<svg width="640" height="480" xmlns="http://www.w3.org/2000/svg" xmlns:svg="http://www.w3.org/2000/svg" xmlns:xlink="http://www.w3.org/1999/xlink">
 <!-- Sketchy ANNOTATION
  ImageNet ID: n02395406_6159
  URL: http://farm1.static.flickr.com/68/194874454_d0a0ec830a.jpg
  Image Width: 500
  Image Height: 375
  BBox X: 109
  BBox Y: 66
  BBox Width: 268
  BBox Height: 231
  Exposure: 2000ms
  Synset Label: pig
  Synset ID: n02395406
  Worker Tag: standing pig
  Sanity Check: 
   Saved
  Comment: 
   {}
  Worker ID: A1OP238L5ZBHZV
  Assignment ID: 337RC3OW052Y2IKQKMD78BU08DULV3
  HIT ID: 30ZKOOGW2W6ZX3FUQFZQ3PCOKP4A16
  Work Time: 104s
  Worker Score: 0.7857
 END ANNOTATION -->
 <g display="inline">
  <title>Layer 1</title>
  <path t="0,447,462,462,485,485,495,517,517,528,528,549,561,562,562,582,615,633,633,642,661,678,699,699,715,715,727,748,748,760,760,781,781,794,794,815,815,827,827,848,860,881,881,894,894,894,917,917,927,927,947,947,947,960,983,993,993,1014,1047,1060,1083,1093,1115,1125,1159,1159,1293,1309,1332,1332,1342,1365,1375,1397,1429,1442,1464,1475,1496,1508,1531,1532,1542,1542,1563,1574,1595,1595,1608,1608,1629,1629,1629,1640,1641,1641,1661,1662,1674,1674,1674,1674,1698,1698,1698,1698,1714,1714,1714,1714,1724,1724,1725,1725,1747,1747,1747,1757,1757,1757,1757,1779,1779,1790,1811,1811,1823,1857,1857,1897,1940,1940" d="m363,294.66666c0,1.75717 -0.05283,2.66342 0.05716,3.40451c0.14972,1.00867 0.55038,1.74832 0.85883,2.71017c0.28094,0.87619 0.78387,1.48132 0.99869,2.36932c0.20389,0.8428 -0.05084,1.82831 0.41867,2.68268c0.40335,0.73401 1.18262,1.06894 1.55234,2.07614c0.33224,0.90509 0.3493,1.71487 0.76166,2.45718c0.45795,0.8244 1.08282,1.37894 1.32733,2.16132c0.29553,0.94568 0.56235,1.603 1.224,2.33868c0.52917,0.58841 0.77545,1.49231 1.51117,2.10001c0.58319,0.48172 1.58765,0.95673 2.08884,1.58533c0.57297,0.7186 0.88638,1.53738 1.68533,2.22934c0.47754,0.4136 1.38171,0.84662 2.10532,1.48532c0.64114,0.56592 1.23645,1.05267 2.11069,1.45267c0.85007,0.38895 1.62131,0.82709 2.32083,0.94733c0.97888,0.16824 1.79788,0.38272 2.49384,0.80133c0.9032,0.54324 1.35962,1.09393 2.14249,1.85135c0.54681,0.52902 1.32224,1.21274 1.93832,1.58566c0.72516,0.43896 1.81308,0.63556 2.60452,1.04565c0.86163,0.44647 1.52686,0.53003 2.39999,0.75201c0.86227,0.21921 1.6167,0.77161 2.49982,0.96417c0.84427,0.18411 1.29977,0.85596 2.10019,1.28381c0.85583,0.45749 1.29712,1.3938 2.08398,1.34534c0.93918,-0.05786 0.716,-1.62933 0.716,-2.42932c0,-0.89999 0,-1.80002 0,-2.70001c0,-0.89999 -0.16699,-1.81589 0.00134,-2.69867c0.14441,-0.75735 0.98065,-1.23679 0.99866,-2.10132c0.01877,-0.90115 0,-1.86667 0,-2.70001c0,-0.83331 0,-1.6955 0,-2.60001c0,-0.92081 0,-1.88397 0,-2.57465c0,-1.08167 0,-1.88 0,-2.87866c0,-0.63333 0,-1.64584 0,-2.61334c0,-0.819 0,-1.72433 0,-2.73468c0,-0.61948 0,-1.76532 0,-2.56033c0,-0.88498 0,-1.52499 0,-2.55981c0,-0.73569 0,-1.49933 0,-2.28302c0,-1.1955 0,-2.39099 0,-3.17465c0,-0.76367 0,-1.85416 0,-2.53549c0,-0.96451 0,-1.58084 0,-2.78534c0,-0.89999 0,-1.5 0,-2.70001c0,-0.89548 0.00153,-1.47916 0,-2.31467c-0.00226,-1.22366 0.10977,-2.09744 -0.35718,-2.92816c-0.48669,-0.86584 -0.98694,-1.34903 -1.62814,-2.14648c-0.4928,-0.61288 -1.36652,-0.66336 -2.25751,-0.96783l-0.75717,-0.64285l-0.60001,-0.564" id="svg_1" stroke-width="2" stroke="#000" fill="none"/>
  <path t="3308,3534,3535,3536,3551,3551,3551,3572,3572,3572,3572,3584,3584,3584,3584,3606,3606,3606,3606,3617,3617,3617,3637,3638,3638,3638,3651,3651,3673,3673,3673,3685,3685,3717,3717,3717,3735,3735,3749,3749,3763,3766,3790,3799,3799,3820,3832,3853,3865,3916,3932,3966,3982,3982,4015,4033,4033,4065,4082,4115,4132,4165,4203,4203,4248,4265,4332,4370,4401,4413,4413,4435,4435,4447,4469,4480,4480,4501,4513,4513,4534,4546,4567,4580,4601,4613,4614,4635,4635,4646,4667,4667,4679,4701,4701,4717,4718,4730,4730,4752,4752,4762,4783,4783,4795,4796,4817,4829,4829,4851,4862,4862,4883,4884,4895,4895,4918,4918,4928,4928,4949,4949,4961,4962,4983,4983,4983,4995,5016,5028,5050,5050,5061,5084,5084,5095,5118,5118,5149,5161,5161,5183,5183,5194,5217,5217,5227,5249,5260,5260,5283,5294,5294,5315,5327,5327,5349,5382" d="m440,264.66666c2.95715,0.00452 3.52475,-0.01968 4.40134,0.08533c1.2066,0.14453 1.80243,0.33841 2.69867,0.61917c0.90396,0.28317 1.80008,0.60654 2.42084,0.77469c0.95825,0.25961 1.99973,0.40799 2.73181,0.46814c0.74667,0.06137 1.50305,0.04538 2.92584,0.27417c0.66946,0.10767 1.30414,0.28818 2.22018,0.57983c1.20609,0.38403 1.80133,0.59866 2.70132,0.89868c0.89999,0.29999 1.79697,0.59573 2.37915,0.79999c0.83768,0.29388 1.8403,0.68964 2.5,1c1.02856,0.48392 1.82083,0.89999 2.42084,1.20001c1,0.5 1.59851,0.80301 2.60001,1.29999c0.59912,0.2973 1.38486,0.70581 2.39868,0.91602c0.75699,0.15695 1.6752,0.44055 2.39999,0.79999c0.86197,0.42749 1.74597,0.71317 2.49683,1.23584c0.62558,0.43549 0.53198,1.61963 1.31516,2.02682c0.77258,0.4017 1.01907,0.86099 1.556,1.68802c0.45377,0.69897 1.15451,1.19717 1.78519,1.68597c0.66068,0.51202 1.43942,0.60162 2.29099,1c0.91095,0.42618 1.53427,0.77081 2.35718,1.22202c0.78012,0.42776 1.69998,0.42532 2.60001,0.42532c0.89999,0 1.79999,0 2.59998,0c0.90002,0 2.01175,-0.0094 2.19553,0.7045c0.22324,0.86725 0.02795,1.81665 0.00314,2.77951c-0.01782,0.69131 -0.32214,1.78751 -0.79999,2.31467c-0.65503,0.72263 -1.55814,1.01443 -2.29868,1.42282c-0.6745,0.37195 -1.28281,1.19611 -2,1.87836c-0.58633,0.55774 -1.39981,0.88974 -2.29999,0.90015c-0.89993,0.01041 -1.80002,0 -2.70001,0c-0.89999,0 -1.65717,0 -2.55267,0c-0.86331,0 -1.84732,0 -2.83133,0c-0.69064,0 -1.76334,0 -2.68265,0c-0.65869,0 -1.66669,0 -2.586,0c-0.90451,0 -1.65186,0 -2.64603,0c-0.76532,0 -1.84866,0 -2.76797,0c-0.65869,0 -1.66669,0 -2.52884,0c-0.94049,0 -1.78851,0 -2.65182,0c-0.90002,0 -1.81934,0 -2.67352,0c-0.97916,0 -1.76849,0 -2.8125,0c-0.79199,0 -1.65198,0.00006 -2.37732,0c-0.98917,-0.00009 -2.00644,0.11523 -2.90533,-0.28534c-0.69626,-0.31027 -1.36224,-0.92776 -2.09467,-1.31467c-0.98001,-0.5177 -1.60016,-0.76331 -2.30402,-1.19998c-0.87845,-0.54498 -1.7045,-1.00613 -2.48532,-1.20001c-0.87109,-0.21628 -0.70779,-1.40845 -1.36166,-1.88565c-0.78064,-0.56973 -1.63834,-0.11435 -2.75299,-0.11435c-0.88535,0 -1.72162,0.18204 -2.52133,-0.07199c-0.93631,-0.29742 -1.28928,-1.03409 -2.19736,-1.59467c-0.70816,-0.43716 -1.59241,-0.74323 -2.26648,-1.43335c-0.56543,-0.57889 -0.77621,-1.4678 -1.25735,-2.19998c-0.52194,-0.79425 -1.27786,-1.267 -1.84149,-1.89999c-0.67908,-0.7627 -0.66489,-1.65756 -1.34299,-2.27917c-0.64566,-0.59189 -1.59702,-0.54617 -2.38635,-0.95685l-0.07199,-0.96399" id="svg_2" stroke-width="2" stroke="#000" fill="none"/>
  <path t="7521,7819,7835,7835,7858,7858,7868,7868,7868,7890,7890,7900,7901,7922,7922,7934,7957,7957,7968,8001,8018,8018,8040,8072,8072,8083,8106,8117,8140,8140,8150,8172,8172,8184,8184,8207,8216,8239,8239,8250,8250,8272,8283,8283,8283,8304,8304,8316,8339,8350,8372,8373,8382,8731,8748,8770,8781,8781,8781,8804,8804,8813,8836,8868,8880,8880,8904,8935,8968,8968,9001,9001,9013,9013,9034,9047,9069,9079,9104,9113,9113,9146,9196,9213,9213,9234,9247,9279,9296,9363,9411,9429,9461,9461,9501,9533,9578,9594,9595,10058,10059,10083,10092,10092,10116,10117,10126,10150,10209,10249,10292,10342,10359,10359,10359,10408,10448,10482,10505,10513,10513,10547,10557,10557,10593,10641,10641,10678,10690,10712,10727,10757,10773,10806,10823,10823,10856,10873,10898,10898,10906,10939,10957,10980,11011,11046,11047,11090,11129,11160,11193,11238,11280,11280,11312,11347,11354,11388,11428,11461,11494,11510,11510,11544,11575,11620,11658,11725,11787,11837,11853,11853,11877,11886,11886,11920,11970,12008,12019,12052,12052,12092,12135,12152,12175,12185,12185,12207,12218,12242,12275,12285,12307,12318,12342,12374,12375,12405,12441,12484,12521,12600,12751,12767,12799,12816" d="m372,319.66666c0.05716,1.75717 0.34744,2.66177 0.7045,3.40451c0.38489,0.8006 0.8652,1.5679 1.12885,2.59549c0.20145,0.78519 0.1246,1.40088 0.17114,2.59552c0.02917,0.7486 0.36346,1.64444 0.79684,2.28848c0.51154,0.76016 0.88498,1.47263 1.49417,2.35883c0.52612,0.76535 0.87384,1.47183 1.7045,1.75717c0.83066,0.28534 1.19086,1.12604 1.7045,1.70001c0.65802,0.73532 1.3287,1.48428 1.89551,1.86398c0.82346,0.55164 1.84454,0.34055 2.60001,0.72c0.86719,0.43558 1.48755,0.7923 2.32083,1.216c0.78934,0.40137 1.702,0.39008 2.59381,0.784c0.74005,0.32687 1.55167,0.63205 2.28534,1.15201c0.7872,0.55789 1.33374,1.28729 2.25269,1.51132c0.68259,0.16641 1.53769,0.53525 2.51398,0.88602c0.6438,0.23132 1.4512,0.19562 2.42883,0.51932c0.76263,0.2525 1.76794,0.62918 2.60452,0.64734c0.8996,0.01953 1.55957,0.47833 1.82532,1.14935c0.34933,0.88202 1.37466,0.85065 2.27466,0.85065c0.90134,0 1.86667,0 2.53601,0c0.76532,0 1.75955,-0.00992 2.67868,0c0.96466,0.01044 1.77823,0.36359 2.58514,0.87885c0.72726,0.46442 0.698,1.23099 1.25284,2.01132c0.48419,0.681 1.21396,1.31406 1.83267,1.70984c0.78989,0.50525 1.54645,1.11301 2.46283,1.34732c0.76959,0.19678 1.435,0.75607 2.20251,1.02734c0.88574,0.31308 1.48151,0.7262 2.34799,1.02802c0.76486,0.26642 0.60825,1.32498 1.32217,1.9765c0.63821,0.58243 1.62054,0.79117 2.27914,1.10483c0.8378,0.39899 1.2442,1.35214 1.77469,1.94131c0.5249,0.58298 1.10275,1.26086 1.70932,1.89069c0.5535,0.57471 1.29797,0.94104 2.06784,1.13666c0.91119,0.23154 1.89191,0.6022 2.52701,1.16882c0.67267,0.60013 1.09256,1.4053 1.9545,1.61185c0.78421,0.18793 1.14865,-0.69418 1.16666,-1.66666c0.01468,-0.7919 0,-1.81934 0,-2.51401c0,-1.01666 -0.00009,-1.95267 0,-2.85266c0.00009,-0.89984 0.23981,-1.58429 1.10001,-1.80035c0.93069,-0.23376 1.2803,-0.87341 1.69998,-1.517c0.56345,-0.86411 1.03329,-1.69412 1.20016,-2.58249c0.14951,-0.79587 0.84961,-1.3493 1.02518,-2.08551c0.22354,-0.93744 1.00385,-1.57053 1.67468,-1.86734c0.84763,-0.37503 1.42139,-1.25491 2.09998,-1.66199c0.73596,-0.4415 1.61606,-0.70358 2.116,-1.48401c0.46667,-0.72845 1.29657,-0.65176 2.18384,-0.80148c0.8533,-0.14401 1.33713,-0.92981 2.08551,-0.98917c1.05423,-0.08362 1.91595,0.03711 2.81467,-0.01068c0.80338,-0.04272 1.53717,-0.74692 2.39999,-0.96399c0.8735,-0.21976 1.80002,-0.03601 2.70001,-0.03601c0.89999,0 1.85324,-0.42865 2.61465,0.08533c0.66776,0.45078 0.89835,1.49664 1.26001,2.31467c0.34686,0.78448 0.94031,1.5874 1.02399,2.40002c0.09219,0.89526 0.00134,1.79999 0.00134,2.69998c0,0.89999 0,1.80002 0,2.70001c0,0.89999 0,1.79999 0,2.60001c0,0.89999 0,1.79999 0,2.69998c0,0.89999 0.00018,1.80002 0,2.70001c-0.00018,0.89984 -0.3226,1.69922 -1.02084,1.77917c-1.08691,0.12448 -1.97916,0.02081 -2.77914,0.02081c-0.90002,0 -1.80008,-0.0108 -2.70001,0c-0.88953,0.01068 -1.15067,0.66589 -1.58401,1.43201c-0.41119,0.7269 -1.51605,0.55719 -2.41599,0.56799c-0.88953,0.01068 -1.20093,0.79959 -1.58401,1.43201c-0.47321,0.78119 -1.616,0.56799 -2.51599,0.56799c-0.89999,0 -1.79999,0 -2.69998,0c-0.90002,0 -1.80002,0 -2.70001,0c-0.79999,0 -1.70001,0 -2.60001,0c-0.89999,0 -1.79999,0 -2.69998,0c-0.90002,0 -1.79984,-0.00015 -2.57852,-0.2215l-0.12164,-0.87851" id="svg_3" stroke-width="2" stroke="#000" fill="none"/>
  <path t="13971,14279,14295,14295,14319,14327,14361,14400,14431,14431,14466,14477,14513,14533,14533,14548,14559,14593,14593,14632,14665,14665,14676,14676,14698,14709,14709,14731,14742,14742,14776,14793,14793,14816,14826,14826,14893,14893,14908,14929,15342,15357,15390,15443,15443,15450,15450,15499,15532,15532,15565,15565,15598,15598,15631,15631,15665,15665,15698,15698,15745,15745,15782,15782,15817,15872,15872,15896,15955,16005,16058,16058,16104,16454,16490,16490,16524" d="m467,346.66666c0,-1.75717 0,-2.65265 0,-3.51599c0,-0.96317 0,-1.884 0,-2.68399c0,-0.90002 0,-1.80002 0,-2.60001c0,-0.89999 0,-1.80002 0,-2.72083c0,-0.96317 0,-1.65384 0,-2.72202c0,-0.85718 0.05051,-1.75876 0,-2.55716c-0.05728,-0.90543 -0.82043,-1.38434 -1.43201,-2.08533c-0.58755,-0.67343 -0.5126,-1.70248 -1.004,-2.47867c-0.53024,-0.83755 -1.20984,-1.19327 -1.8595,-1.936c-0.58121,-0.66446 -0.91455,-1.3212 -1.7045,-1.72083c-0.88821,-0.44937 -0.88229,-1.2164 -1.35266,-2.22202c-0.37997,-0.81241 -0.96793,-1.26508 -1.48068,-2.09048c-0.44235,-0.7121 -0.57452,-1.62378 -1.16666,-2.16669c-0.59375,-0.54437 -1.59811,-0.82852 -1.91467,-1.69998c-0.30872,-0.84988 -0.0401,-1.68695 -0.09601,-2.62534c-0.04132,-0.69345 -0.54416,-1.65173 -1.08932,-2.496c-0.42734,-0.6618 -0.89676,-1.5144 -1.29999,-2.05334c-0.59525,-0.79556 -1.10294,-1.40793 -1.43335,-2.45865c-0.24216,-0.77005 0.00272,-1.69098 -0.28098,-2.51401c-0.29071,-0.84341 -1.14771,-1.13916 -1.99902,-1.854c-0.58554,-0.49167 -0.85062,-1.45004 -0.88217,-2.146c-0.04605,-1.01575 -0.27234,-1.86816 -0.80582,-2.45267c-0.65686,-0.71973 -1.06317,-1.50854 -1.20001,-2.39999c-0.14059,-0.9158 -0.80823,-1.45413 -0.98798,-2.40002c-0.16025,-0.84329 -0.01068,-0.39999 -0.01068,0.40002l0,0.89999" id="svg_4" stroke-width="2" stroke="#000" fill="none"/>
  <path t="17737,18048,18048,18064,18064,18087,18247,18296,18346,18395,18395,18432,18432,18629,18695,18732,18794,18811,18844,19028,19066,19076,19110,19148,19159,19159,19192,19193,19232,19425,19464,19474" d="m449,351.66666c0,1.836 0,2.60135 0,3.59552c0,0.91916 -0.89948,2.78314 0,2.78314c0.18134,0 0.14774,-0.98444 1,-1.54532c0.61865,-0.40714 0.95505,-1.31448 0.99551,-2.18066c0.04156,-0.89001 -0.43097,-1.63403 -1.2955,-1.65268c-0.89847,-0.01938 -1.67142,-0.35568 -1.70001,-1.19998c-0.03046,-0.89917 0,-1.17868 0,-0.30002c0,0.89999 0,1.8045 0,2.66669c0,0.83331 0,1.81183 0,2.63199c0,0.90134 0,1.85834 0,1.00134l0,-0.90002" id="svg_5" stroke-width="2" stroke="#000" fill="none"/>
  <path t="20853,21767,21783,21806,21806,21816,21816,21849,22149,22198,22248,22264,22314,22314,22364,22430,22497,22497,22846,22862,22895,22933,22968" d="m458,351.66666c-0.16666,-1.83331 -0.93912,-1.78415 -1,-0.83331c-0.05322,0.8316 0,1.66666 0,2.52881c0,0.90451 -0.05869,2.36694 0.64734,2.24286c0.82443,-0.1449 1.56726,-0.7052 2.10965,-1.3812c0.48492,-0.6044 0.24301,-1.79999 0.24301,-2.65717c0,-0.89999 0.78568,-2.48566 0,-2.48566c-0.88568,0 0,1.78568 0,2.68567l0,0.89999" id="svg_6" stroke-width="2" stroke="#000" fill="none"/>
  <path t="25783,26367,26798,26897,26934,26980,27048,27113,27447,27485" d="m403,314.66666c1.70001,0 2.81339,-0.39337 3.564,0.03601c0.69064,0.39508 0.436,1.564 0.41516,2.46399l-0.33633,0.7955l-0.74265,0.58316l-0.77884,0.34268" id="svg_7" stroke-width="2" stroke="#000" fill="none"/>
  <path t="28769,29223,29223,29288,29339,29456,29538,29705,29741,29754,29803" d="m447,298.66666c-1,1.16669 -1.75406,1.54471 -1.97916,2.5c-0.18353,0.77896 -0.02084,1.70001 -0.02084,2.60001c0,0.89999 0.2215,1.7785 1.09982,1.89984l0.77884,-0.22116" id="svg_8" stroke-width="2" stroke="#000" fill="none"/>
  <path t="33133,33424,33425,33440,33440,33440,33463,33464,33473,33473,33473,33473,33508,33508,33508,33523,33523,33556,33557,33597,33605,33605,33656,33706,33722,33839,33923,34005,34044,34075,34075,34087,34108,34141,34177,34209,34209,34270,34310,34670,34708,34740,34803,34985,35068,35108,35117,35150,35201,35238,35272,35283,35316,35354,35374,35399,35438,35469,35470,35482,35503,35515,35515,35549,35588,35631,35648,35681,35681,35698,35732,35764,35781,35804,35835,35868,35903,35937,35947,35980,35997,35997,36064,36103,36114,36146,36146,36186,36196,36345,36395,36411,36432,36478,36494,36516,36528,36528,36549,36582,36622,36622,36648,36695,36744,36761,36793,37260,37279,37309,37325,37349,37358,37379,37391,37412,37412,37424,37446,37458,37458,37482,37491,37525,37525,37541,37564,37574,37608,37647,37678,38040,38056,38080,38089,38089,38112,38122,38122,38146,38146,38155,38156,38156,38179,38179,38188,38189,38189,38211,38211,38211,38222,38222,38222,38244,38254,38254,38278,38279,38288,38313,38313,38345,38345,38354,38355,38376,38388,38409,38421,38421,38454,38497,38504,38525,38587,38654,38987,39027,39027,39035,39035,39057,39057,39069,39069,39091,39092,39102,39102,39124,39124,39135,39135,39158,39158,39168,39189,39201,39223,39223,39256,39268,39292,39301,39326,39334,39367,39367,39384,39684" d="m373,333.66666c0,1.84668 0,2.68668 0,3.68402c0,0.81598 0,1.63199 0,2.63333c0,0.944 0,2.01599 0,2.65067c0,0.68265 0,1.72665 0,2.69867c0,0.819 -0.04626,1.72552 0.00266,2.73065c0.03568,0.73309 0.81354,1.29785 1.42935,1.77066c0.67618,0.51913 0.21347,1.77841 0.65332,2.54535c0.38718,0.67511 0.81241,1.31274 0.91483,2.26498c0.09314,0.86609 0.95712,1.30402 0.99985,2.22168c0.04184,0.89902 -0.01801,1.8002 0,2.60001c0.01801,0.8006 0.6181,1.51031 0.91467,2.39999c0.28586,0.85764 0.08533,1.79999 0.08533,2.60001c0,0.89999 0.44119,1.9256 -0.03601,2.76398c-0.39359,0.6915 -1.56403,0.4306 -2.46399,0.436c-0.8894,0.00534 -1.20786,0.57474 -1.51068,1.38934c-0.27267,0.73349 -0.57257,1.33441 -1.02533,2.17465c-0.39279,0.72897 -1.38281,0.85248 -1.87997,1.63467c-0.4649,0.73145 -1.13782,1.24792 -1.65869,1.82666c-0.5741,0.63788 -1.1102,1.4343 -1.86816,1.85318c-0.65707,0.36313 -1.69412,-0.08667 -2.65698,0.12183c-0.78732,0.1705 -0.6019,1.44208 -1.33618,1.92767c-0.72314,0.47824 -1.76401,0.07199 -2.664,0.07199c-0.89999,0 -1.69998,0 -2.60001,0c-0.89999,0 -1.70624,-0.09634 -2.35266,-0.64734c-0.6044,-0.51514 -1.06442,-1.13458 -1.522,-1.95267c-0.43195,-0.77228 -0.87906,-1.55457 -1.53516,-2.04733c-0.65112,-0.48901 -1.70016,-0.64645 -1.86884,-1.53799c-0.17282,-0.91336 -0.39813,-1.99463 0.14532,-2.64798c0.57397,-0.69003 1.48596,-0.96686 2.33334,-1.14584c0.8808,-0.18604 2.06702,0.23273 2.46399,-0.45685c0.42929,-0.74573 0.74393,-1.44449 1.02533,-2.17465c0.3129,-0.81186 0.82544,-1.05951 1.67734,-1.556c0.64255,-0.37448 1.53259,-0.52521 2.22351,-1.19049c0.58588,-0.56415 0.96167,-1.41144 1.10535,-2.34283c0.13721,-0.88953 0.12296,-2.01276 -0.60617,-2.28934c-0.83157,-0.31546 -1.78638,-0.0119 -2.38934,-0.51068c-0.65585,-0.54254 -1.05533,-1.203 -1.5,-2c-0.4455,-0.79849 -0.5,-1.69998 -0.5,-2.60001c0,-0.89999 0,-1.69998 0,-2.59998c0,-0.936 0,-1.784 0,-2.64734c0,-1.01666 0.1637,-1.90997 -0.22134,-2.75269c-0.30579,-0.66928 -0.77332,-1.49994 -0.77866,-2.39999c-0.00534,-0.89996 0.19806,-1.82239 -0.00134,-2.69867c-0.18304,-0.80429 -1.48074,-0.47427 -1.9415,-1.15848c-0.52762,-0.78348 -0.05328,-1.84418 -0.05716,-2.52817c-0.00534,-0.94003 -0.1882,-1.93765 -0.5,-2.61469c-0.44739,-0.97147 -0.45682,-1.72675 -0.72134,-2.69998c-0.2222,-0.8175 -0.57587,-1.38507 -0.7215,-2.40451c-0.12082,-0.8457 -0.03989,-1.81726 -0.06784,-2.62082c-0.02863,-0.82285 -0.1821,-1.86282 -0.42532,-2.54935c-0.32727,-0.92371 -0.77661,-1.90323 -1.04315,-2.7045c-0.24857,-0.74728 -0.34796,-1.74887 -0.6875,-2.52084c-0.36108,-0.82095 -0.80099,-1.65121 -0.82886,-2.34732c-0.04111,-1.02652 -0.00449,-1.974 -0.00449,-2.65268c0,-1.116 0,-1.884 0,-2.82532c0,-0.69067 -0.17001,-1.60956 -0.64734,-2.28452c-0.47086,-0.6658 -0.35266,-1.72348 -0.35266,-2.58566c0,-0.90451 0,-1.8045 0,-2.7045c0,-0.89999 0.43658,-2.3201 -0.35266,-2.53833c-0.72565,-0.20065 -0.64291,-0.16183 -0.64734,-0.94699c-0.00534,-0.95071 -0.01038,-1.73959 -0.35718,-2.71017c-0.20944,-0.58618 -0.93774,-1.4632 -1.28564,-2.15717c-0.42709,-0.8519 -0.35492,-1.65182 -0.35718,-2.64734c-0.0018,-0.79999 0,-1.79984 0,-2.57916c0,-0.99951 0,-1.7735 0,-2.84616c0,-0.69067 -0.17001,-1.60956 -0.64734,-2.28452c-0.47086,-0.6658 -0.35266,-1.72348 -0.35266,-2.58566c0,-0.90451 0,-1.8045 0,-2.7045c0,-0.89999 0,-1.79999 0,-2.70001c0,-0.89999 0,-1.69998 0,-2.59998l0,-0.88568" id="svg_9" stroke-width="2" stroke="#000" fill="none"/>
  <path t="41497,41793,41809,41809,41832,41832,41842,41842,41864,41864,41897,41897,41929,41929,41994,42058,42098,42107,42130,42130,42141,42164,42175,42208,42208,42247,42290,42357" d="m463,297.66666c0,1.75717 0,2.65717 0,3.40451c0,0.99548 0,1.7955 0,2.7955c0,0.79999 0,1.79999 0,2.58932c0,1.04401 0,1.836 0,2.69467c0,0.86334 0,1.88 0,2.81601c0,0.89999 0,1.79999 0,2.69998c0,0.80002 0.24109,1.47241 0.716,2.16934c0.50189,0.73648 0.284,1.80917 0.284,2.62933l0,0.90134l0,0.89999l0,0.89999" id="svg_10" stroke-width="2" stroke="#000" fill="none"/>
  <path t="44150,44417,44432,44466,44504,44504,44536,44549,44549,44586,44623,44665,44704,44721,44738,44738,44749,44770,44803,44835,44847,44868,44904,44904,44947,44997,45081,45081,45130,45169,45230,45246" d="m466,362.66666c0,1.70001 0.1199,2.63107 0.85068,2.98535c0.91354,0.44287 1.13864,1.1998 1.14932,2.12933c0.01016,0.88525 0,1.68533 0,2.58533c0,0.89999 0.16736,1.90933 -0.35718,2.59549c-0.57349,0.75021 -1.64282,0.7045 -2.44281,0.7045c-0.90002,0 -1.80002,0 -2.70001,0c-0.89999,0 -1.80655,0.10706 -2.70001,-0.00131c-0.9198,-0.11157 -1.44623,-0.76285 -2.19998,-1.388c-0.65735,-0.5452 -1.50607,-0.93384 -1.58932,-1.79602c-0.08932,-0.92508 -0.01068,-1.81467 0.15598,-2.64798l0.74933,-0.45068" id="svg_11" stroke-width="2" stroke="#000" fill="none"/>
  <path t="47093,47437,47454,47454,47475,47475,47489,47489,47489,47513,47513,47513,47513,47522,47522,47522,47522,47542,47542,47542,47542,47542,47554,47554,47554,47554,47575,47575,47575,47575,47575,47590,47590,47590,47590,47590,47608,47608,47608,47608,47621,47621,47621,47644,47644,47644,47653,47653,47653,47653,47674,47674,47674,47674,47686,47686,47686,47708,47708,47708,47708,47720,47720,47720,47720,47744,47744,47744,47744,47753,47753,47753,47774,47774,47774,47787,47808,47808,48169,48169,48185,48208,48208,48217,48217,48240,48240,48241,48251,48251,48272,48272,48272,48285,48285,48285,48307,48307,48307,48317,48317,48340,48340,48341,48374,48374,48374,48384,48385,48406,48406,48417,48417,48439,48450,48472,48472,48484,48507,48538,48551,48583,48623,48623" d="m344,303.66666c-1.82535,0 -2.83334,0 -3.62534,0c-1.03632,0 -1.83636,0.0061 -2.79617,-0.00015c-0.81454,-0.00531 -1.68851,-0.01865 -2.57849,-0.1665c-0.91187,-0.15149 -1.52054,-0.35526 -2.48532,-0.63467c-1.03586,-0.30002 -1.77371,-0.49673 -2.53552,-0.71948c-0.78564,-0.22974 -1.98386,-0.63428 -2.77783,-0.96451c-0.39926,-0.16608 -1.18716,-0.52246 -1.94415,-0.91916c-1.10056,-0.57675 -1.77908,-0.98563 -2.42117,-1.40619c-0.63263,-0.41437 -1.8421,-1.34903 -2.436,-1.87466c-0.30313,-0.26831 -0.90329,-0.83209 -1.5,-1.41916c-0.90503,-0.89041 -1.5,-1.49548 -2.10001,-2.09549c-0.60001,-0.60001 -1.19839,-1.2016 -2.09982,-2.09967c-0.59464,-0.59241 -1.16864,-1.17032 -1.74301,-1.686c-0.77637,-0.69705 -1.50357,-1.1991 -2.14648,-1.629c-0.81528,-0.54517 -1.39606,-1.06198 -2.04666,-1.56c-0.90536,-0.69302 -1.44562,-0.94952 -2.28485,-1.32535c-0.87671,-0.39261 -1.7883,-0.80548 -2.37466,-1.15717c-0.88318,-0.52975 -1.44135,-0.91714 -2.4205,-1.74417c-0.46964,-0.39667 -1.13733,-1.05515 -1.85065,-1.76532c-0.51782,-0.5155 -1.04779,-1.05969 -1.608,-1.57199c-1.03891,-0.95007 -1.54135,-1.29333 -2.22534,-1.76135c-0.68399,-0.46799 -1.68997,-1.26282 -2.22534,-1.76132c-0.5556,-0.51733 -1.0881,-1.05859 -1.85315,-1.81702c-0.68323,-0.67731 -1.28809,-1.2981 -2.12134,-1.90015c-0.57092,-0.41251 -1.44351,-0.67468 -2.1535,-1.43216c-0.61243,-0.65338 -0.50201,-1.63379 -0.86801,-2.56784c-0.25745,-0.65704 -0.7298,-1.62335 -1.48849,-1.97333c-0.75937,-0.35028 -1.56998,-0.73975 -1.98566,-1.45718c-0.44537,-0.76871 -0.80341,-1.59155 -1.10449,-2.19101c-0.50272,-1.00092 -0.7879,-1.6347 -1.52133,-2.59998c-0.47409,-0.62393 -1.05551,-1.17758 -1.6575,-2c-0.42807,-0.58484 -0.95737,-1.43356 -1.56384,-1.99985c-0.67337,-0.62875 -1.22562,-0.93892 -2.12399,-1.6335c-0.67615,-0.52275 -1.33173,-1.33432 -1.74402,-2.00267c-0.47281,-0.76646 -1.06177,-1.57315 -1.58932,-2.14316c-0.50513,-0.54578 -1.24771,-1.26782 -1.884,-1.90483c-0.599,-0.59967 -1.32547,-1.24083 -1.87332,-2.09435c-0.40305,-0.6279 -1.1915,-0.77776 -2.07468,-1.30566c-0.73163,-0.43732 -1.64322,-0.42036 -2.12634,-1.23683c-0.44821,-0.75748 -0.04166,-1.77916 -0.04166,-2.67917l0,-0.89999l0,-0.90001l0,-0.79999" id="svg_12" stroke-width="2" stroke="#000" fill="none"/>
  <path t="50182,50477,50477,50477,50477,50493,50493,50493,50515,50515,50515,50516,50516,50526,50526,50526,50526,50526,50553,50553,50553,50553,50553,50559,50559,50559,50559,50580,50580,50580,50580,50592,50592,50592,50592,50613,50613,50626,50626,50626,50626,50626,50647,50647,50647,50647,50647,50659,50659,50660,50660,50680,50680,50680,50680,50695,50695,50695,50708,51058,51058,51074,51097,51097,51107,51128,51128,51140,51140,51161,51161,51161,51174,51174,51174,51196,51196,51207,51207,51207,51229,51229,51229,51229,51240,51241,51241,51263,51263,51273,51274,51274,51296,51296,51296,51307,51307,51307,51329,51329,51339,51339,51361,51361,51373,51373,51394,51394,51406,51406,51427,51427,51439,51440,51440,51462,51462,51755,51778,51779,51788,51788,51811,51811,51811,51822,51822,51822,51844,51844,51844,51844,51854,51854,51854,51854,51875,51876,51876,51887,51887,51887,51909,51909,51909,51909,51909,51921,51921,51921,51921,51942,51942,51942,51954,51955,51955,51955,51977,51978,51988,51988,51988,52011,52011,52021,52021,52044,52045,52053,52053,52077,52077,52171,52586,52605,52618,52619,52635,52635,52652,52652,52675,52676,52684,52706,52718,52718,52739,52751,52772,52773,52807,52867,52985" d="m438,261.66666c-2.05466,0.34534 -2.69974,0.10825 -3.396,-0.19598c-0.72522,-0.31686 -2.11896,-0.91931 -2.76801,-1.17868c-0.62561,-0.25 -1.84491,-0.77585 -2.43732,-1.11334c-0.61911,-0.35272 -1.24792,-0.77756 -1.884,-1.284c-1.05878,-0.84299 -1.76947,-1.53558 -2.14001,-1.88931c-0.75369,-0.71948 -1.12326,-1.08925 -2.20801,-2.17201c-0.3454,-0.34477 -1.01056,-1.00414 -1.625,-1.64583c-0.58533,-0.61127 -1.38049,-1.51645 -1.85767,-2.11951c-0.46402,-0.58644 -0.85724,-1.21353 -1.85065,-2.23466c-0.49274,-0.50648 -1.05756,-0.93214 -1.608,-1.356c-1.05649,-0.81352 -1.53848,-1.21107 -2.2045,-1.78983c-0.6181,-0.53712 -1.43539,-1.11839 -2.25684,-1.68217c-0.94644,-0.64958 -1.45547,-1.10268 -2,-1.61066c-0.5813,-0.5423 -1.16568,-1.13034 -2.064,-2.028c-0.60022,-0.59978 -1.20001,-1.20001 -1.5,-1.5c-0.60001,-0.60001 -1.49985,-1.49983 -2.09552,-2.0955c-0.58365,-0.58366 -1.14734,-1.14734 -1.93784,-1.93784c-0.7095,-0.7095 -1.14581,-1.14583 -1.76532,-1.76534c-0.80002,-0.8 -1.38132,-1.37965 -1.91602,-1.916c-0.72479,-0.72704 -1.40033,-1.47273 -1.48398,-2.28532c-0.09802,-0.95213 0.00232,-1.85269 -0.00134,-2.54733c-0.00534,-1.01672 -0.39124,-1.79704 -0.716,-2.53801c-0.39963,-0.91179 -0.32742,-1.81039 -0.56934,-2.79866c-0.20193,-0.82495 -0.39264,-1.3739 -0.81467,-2.3945c-0.37659,-0.91071 -0.68103,-1.52994 -1.2045,-2.5215c-0.32001,-0.6062 -0.85077,-1.40944 -1.35266,-2.0045c-0.54141,-0.64191 -1.34912,-1.55737 -1.74283,-2.0795c-0.6098,-0.8087 -0.98077,-1.3784 -1.60001,-2.14934c-0.57791,-0.71948 -1.16132,-1.32263 -1.83334,-2c-0.66403,-0.6693 -1.33331,-1.33333 -1.82382,-1.82384c-0.5535,-0.5535 -1.34283,-1.34283 -1.94284,-1.94283c-0.60001,-0.60001 -1.39999,-1.40001 -1.99548,-1.9955c-0.56851,-0.5685 -1.23785,-1.23784 -1.76852,-1.76851c-0.73599,-0.73599 -1.23599,-1.23599 -1.94049,-1.94049c-0.58084,-0.58084 -1.1795,-1.17952 -1.87015,-1.87016c-0.65869,-0.65868 -1.29391,-1.31529 -1.92551,-1.92534c-0.52713,-0.50916 -1.3783,-1.11273 -2.1105,-1.5c-0.78223,-0.41373 -1.56647,-0.85251 -2.38934,-1.11467c-0.96991,-0.30899 -1.64728,-0.39926 -2.45065,-0.86c-0.78848,-0.45221 -1.55255,-0.39601 -2.55383,-0.42982c-0.85379,-0.02884 -1.82303,-0.19498 -2.62085,-0.4315c-0.82907,-0.24579 -1.60696,-0.56647 -2.56,-0.964c-0.72369,-0.30188 -1.54449,-0.61166 -2.52451,-0.89999c-0.70856,-0.20847 -1.44434,-0.39166 -2.5235,-0.70001c-0.68152,-0.19473 -1.6286,-0.48988 -2.20499,-0.7c-1.04718,-0.38173 -1.95688,-0.81119 -2.64566,-1.09999c-0.996,-0.41762 -1.56708,-0.5993 -2.47766,-0.95717c-1.01004,-0.39694 -1.72314,-0.72508 -2.46368,-1.06818c-0.75015,-0.34755 -1.48343,-0.70764 -2.55316,-1.15315c-0.66003,-0.27489 -1.60995,-0.61343 -2.22018,-0.82018c-1.19962,-0.40643 -1.80133,-0.60133 -2.70132,-0.90134c-0.89999,-0.3 -1.79697,-0.59575 -2.37915,-0.8c-0.83768,-0.2939 -1.84149,-0.68715 -2.71017,-1.09999c-0.81647,-0.38803 -1.61057,-0.80017 -2.21066,-1.10001c-0.99857,-0.49893 -1.74304,-0.92487 -2.57867,-1.17867c-0.75906,-0.23055 -1.68332,-0.46832 -2.42584,-0.82584c-1.00085,-0.48187 -1.60379,-0.74873 -2.42883,-1.2955c-0.78619,-0.52104 -1.53983,-0.99405 -2.16666,-1.5c-0.63101,-0.50934 -1.48532,-0.5 -2.21066,-0.5c-0.98935,0 -1.78934,0 -2.78934,0c-0.97916,0 -1.83334,0 -2.6955,0c-0.90451,0 -1.82535,0 -2.78851,0c-0.69064,0 -1.75882,0 -2.616,0c-0.89999,0 -1.69998,0 -2.60001,0l-0.94281,-0.05716l-0.35269,-0.64734" id="svg_13" stroke-width="2" stroke="#000" fill="none"/>
  <path t="54206,54462,54463,54478,54478,54500,54500,54534,54544,54565,54578,54578,54599,54611,54633,54644,54644,54697,54714,54714,54727,54744,54784,54815,54849,54860,54882,54882,54915,54927,54948,54948,54982,55026,55293,55309,55332,55332,55341,55342,55342,55363,55363,55363,55363,55374,55375,55375,55396,55396,55396,55396,55408,55408,55408,55431,55431,55431,55442,55442,55442,55464,55464,55475,55475,55497,55497,55498,55507,55529,55541,55541,55563,55574,55596,55596,55608,55630,55663,55674,55696,55696,55707,55740,55778,55814,55823,55857,55907,55973,55973,56056,56106,56172,56188,56238,56239,56278,56279,56288,56338,56377,56411,56454,56471,56522,56559,56592,56593,56637,56675,56675,56687,56709,56753,56790,56836,56836,56853,56875,56885,56907,56919,56940,56952,56952,56976,56986,57009,57009,57042,57051,57073,57085,57106,57139,57139,57185,57235,57273,57273,57284,57317,57367,57368,57407,57441,57450,57552,57600,57617,57933,57971,57972,57982,58004,58005,58016,58037,58048,58048,58069,58081,58115,58132,58155,58155,58165,58188,58198,58220,58231,58253,58264,58264,58297,58347,58347,58389,58680,58697,58719,58719,58729,58751,58785,58795,58817,58829,58829,58851,58851,58862,58862,58884,58895,58895,58917,58917,58928,58951,58962,58984,58995,59017,59028,59028,59049,59049,59061,59082,59117,59151,59183,59477,59493,59515,59516,59526,59526,59549,59549,59559,59583,59615,59625,59659,59675,59699,59699,59709,59732,59742,59742,59765,59776,59776,59798,59808,59830,59830,59841,59866,59866,59875,59900,59908,59908,59931,59931,59931,59963,59964,59974,59997,60008,60030,60031,60040,60062,60062,60074,60098,60108,60131,60132,60140,60162,60174,60197,60228,60240,60240,60262,60274,60274,60296,60307,60330,60340,60374" d="m266,219.66666c0,1.83601 0,2.60133 0,3.60001c0,0.8 0,1.79868 0,2.74283c0,0.90001 0,1.85718 0,2.75717c0,0.89999 0,1.7 0,2.60001c0,0.89999 0.01746,1.82103 -0.00015,2.62115c-0.01801,0.8181 -0.68475,1.59277 -0.94269,2.38867c-0.24954,0.76999 -0.14325,1.69139 -0.63184,2.31551c-0.49252,0.62914 -0.66641,1.44705 -1.14133,2.144c-0.50186,0.7365 -0.284,1.80916 -0.284,2.52617c0,0.9045 0,1.82533 0,2.7885c0,0.69066 0.14267,1.77081 -0.00015,2.61583c-0.14401,0.85202 -0.98184,1.33562 -0.99985,2.21367c-0.01523,0.74236 0,1.74117 0,2.38383c0,1.05901 0,2.136 0,2.81734c0,0.96451 0,1.58084 0,2.78534c0,0.89999 0,1.5 0,2.69998c0,0.89999 0,1.5 0,2.39999c0,1.20001 0,1.80002 0,2.70001c0,1.19983 0,1.7955 0,2.664c0,1.06934 0,2 0,2.6315c0,1.00449 -0.01285,1.8046 0.00015,2.8045c0.01041,0.8002 0.1412,1.80875 0.42517,2.58932c0.26715,0.73434 0.56934,1.79996 0.57468,2.62134c0.00592,0.91064 0,1.76401 0,2.70401c0,0.98532 0,1.88531 0,2.68533c0,0.89999 0.02621,1.866 0.85068,2.17465c0.78506,0.29391 1.14932,1.02533 1.14932,1.82535c0,0.89999 0,1.79999 0,2.69998c0,0.89999 0,1.80002 0,2.70001c0,0.89999 0,1.79999 0,2.60001c0,0.89999 0.17032,1.82028 -0.02084,2.69998c-0.18378,0.8457 -1.14581,1.33334 -1.97916,1.5c-0.83334,0.16669 -1.65384,0.4657 -2.38934,0.97467c-0.66104,0.4574 -0.61066,1.42532 -0.61066,2.32535c0,0.89999 0.39438,2.08243 -0.28534,2.61465c-0.72339,0.56644 -1.84122,0.12958 -2.35748,0.78983c-0.58887,0.75308 -1.09238,1.1366 -1.87451,1.37952c-0.99075,0.30774 -1.18105,1.46765 -1.83983,1.85883c-0.81242,0.48242 -1.6795,0.3833 -2.44284,0.77316c-0.7529,0.38455 -1.7,0.284 -2.59999,0.284c-0.90001,0 -1.8,0 -2.70001,0c-0.89999,0 -1.84416,0.07889 -2.46399,-0.61066c-0.59187,-0.65842 -1.22331,-1.11127 -1.86801,-1.47333c-0.7282,-0.40894 -0.73621,-1.53586 -0.54716,-2.41602c0.18137,-0.84442 1.07756,-1.39108 1.97917,-1.5c0.79874,-0.0965 1.68587,-0.44049 2.38933,-0.98532c0.62105,-0.48099 0.45459,-1.38022 0.62134,-2.37866c0.1449,-0.86752 0.9043,-1.62341 0.98801,-2.436c0.09222,-0.89526 0.20154,-1.6008 0.71733,-2.284c0.46457,-0.61536 0.23157,-1.7345 -0.51733,-1.91467c-0.89198,-0.2146 -1.19867,-1.00134 -1.19867,-1.80133c0,-0.836 0.07933,-1.86417 -0.05716,-2.54733c-0.18475,-0.92471 -0.7764,-1.75989 -0.94284,-2.65268c-0.13466,-0.72232 -1.29929,-0.60342 -1.88567,-1.35715c-0.52226,-0.67133 -0.11433,-1.74286 -0.11433,-2.64285c0,-0.79999 0,-1.69998 0,-2.60001c0,-0.89999 0,-1.79999 0,-2.69998c0,-0.89999 0,-1.80017 0,-2.58533c0,-0.94 0.40111,-2.08871 -0.05716,-2.75302c-0.40512,-0.58728 -1.69417,0.3407 -1.93834,-0.12781c-0.40971,-0.78616 -0.0045,-1.74985 -0.0045,-2.71301c0,-0.92084 0,-1.82083 0,-2.72083c0,-0.90002 0,-1.80002 0,-2.55719c0,-0.89999 0,-1.64731 0,-2.64148c0,-0.94418 0,-1.84866 0,-2.76801c0,-0.83334 0,-1.81183 0,-2.63199c0,-0.90134 0,-1.80136 0,-2.70135c0,-0.89999 0,-1.79999 0,-2.70132c0,-0.96533 0,-1.62401 0,-2.632c0,-0.86217 0,-1.76666 0,-2.66667c0,-0.89999 0.25357,-2.06702 -0.436,-2.46399c-0.74571,-0.42929 -1.54599,-0.48212 -1.564,-1.3575c-0.01828,-0.88899 0,-1.87834 0,-2.65767c0,-0.99933 0,-1.71634 0,-2.62083c0,-0.90001 0,-1.8 0,-2.7c0,-0.90001 0,-1.8 0,-2.70001c0,-0.79999 0,-1.7 0,-2.63599c0,-0.84801 0.36633,-1.78879 -0.02133,-2.71735c-0.30261,-0.72482 -1.43907,-0.64011 -1.91733,-1.49733c-0.46271,-0.82936 -0.96741,-1.47252 -1.05067,-2.33467c-0.08936,-0.92508 0.16289,-1.85292 -0.09599,-2.61465c-0.30176,-0.88791 -0.89667,-1.61014 -0.91467,-2.5215c-0.01381,-0.6992 0.03188,-1.67958 -0.01067,-2.4785c-0.04272,-0.80234 -0.37018,-1.78499 -0.63667,-2.54283c-0.35468,-1.00861 -0.35266,-1.85718 -0.35266,-2.75717c0,-0.90001 0,-1.7 0,-2.65717c0,-0.89551 0,-1.75883 0,-2.722c0,-0.82083 -0.22627,-1.94286 0.44267,-2.39951c0.7182,-0.49026 1.49103,-0.66676 1.98267,-1.52133c0.41583,-0.72279 0.31911,-1.70818 0.79599,-2.47884c0.45569,-0.7364 0.77325,-1.30646 0.77867,-2.23582c0.00574,-0.98532 0.12428,-1.66277 0.57466,-2.48534c0.42729,-0.7804 0.42534,-1.7 0.42667,-2.59866l0.35133,-0.75317" id="svg_14" stroke-width="2" stroke="#000" fill="none"/>
  <path t="61444,61718,61734,61734,61756,61756,61768,61789,61789,61789,61806,61806,61817,61841,61841,61841,61850,61850,61850,61851,61871,61871,61884,61905,61922,61932,61932,61967,61983,62006,62017,62039,62051,62051,62073,62083,62106,62116,62137,62137,62149,62172,62172,62183,62206,62206,62216,62240,62273,62282,62282,62303,62315,62336,62336,62348,62373,62373,62382,62403,62416,62416,62438,62449,62449,62482,62498,62498,62531,62548,62598,62637,62637,62648,62670,62681,62702,62702,62715,62715,62736,62736,62736,62747,62771,62771,62781,62804,62804,62805,62814,62837,62837,62869,62880,62902,62934,62947,62970,62970,62980,63031,63046,63079,63120,63129,63163,63179,63212,63252,63252,63262,63284,63316,63328,63378,63418,63428,63449,63482,63494,63494,63515,63527,63550,63551,63561,63584,63627,63677,63810,63810,63894,63910,63960,63998,64032,64032,64043,64064,64109,64149,64182,64182,64225,64292,64342,64475,64542,64590,64631,64663,64664,64673,64697,64728,64761,64823,64840,64907,64956,64996,65005,65039,65056,65079,65079,65089,65122,65123,65139,65161,65172,65195,65227,65238,65271,65288,65288,65311,65321,65345,65345,65354,65354,65721,65721,65737,65760,65760,65760,65769,65769,65791,65791,65792,65808,65808,65808,65819,65819,65819,65841,65852,65852,65886,65902,65903,65926,65926,65935,65985,66026,66035,66068,66119,66159,66159,66352" d="m235,202.66666c-1.75717,0.93834 -2.67276,0.6804 -3.34734,0.2955c-0.79335,-0.45268 -1.48479,-1.06425 -2.05266,-1.70616c-0.63951,-0.72289 -1.0542,-1.40091 -1.31467,-2.19066c-0.31876,-0.96648 -0.43472,-1.85466 -1.136,-2.35867c-0.79459,-0.57106 -1.05202,-1.10956 -1.164,-1.87199c-0.17117,-1.16536 -0.33633,-2.06393 -0.48534,-2.64717c-0.21361,-0.83611 -0.46716,-2.05794 -0.4955,-2.85918c-0.03197,-0.90395 -0.0045,-1.86166 -0.0045,-2.76166c0,-0.90001 0,-1.7 0,-2.60001c0,-0.89999 -0.00452,-1.80002 0,-2.7c0.0045,-0.89552 0.62415,-1.341 1.29466,-1.65266c0.80049,-0.37207 0.65237,-1.4821 1.058,-2.24733c0.44841,-0.84593 0.77203,-1.73347 1.25801,-2.3c0.63756,-0.74324 1.42757,-1.13393 2.18933,-1.48401c0.74973,-0.34456 1.51135,-1.03513 1.91466,-1.71599c0.48996,-0.82716 0.66919,-1.62711 1.20267,-2.39867c0.48871,-0.7068 1.36536,-0.87094 2.09734,-1.37601c0.62216,-0.42929 1.48375,-0.31578 2.33267,-0.4825c0.92671,-0.18199 1.57979,-1.03215 2.25267,-1.50684c0.7348,-0.51836 1.55811,-0.78664 2.39999,-1.26933c0.68509,-0.39281 0.76686,-1.38129 1.44284,-1.92366c0.60439,-0.48492 1.85443,-0.09367 2.65717,-0.46434c0.66806,-0.30849 1.34177,-0.91591 1.98399,-1.49466c0.64957,-0.58536 0.916,-1.28401 0.916,-2.084c0,-0.90001 0,-1.8 0,-2.72084c0,-0.96449 0.0127,-1.68991 -0.00017,-2.67917c-0.01041,-0.8002 -0.1412,-1.80875 -0.42517,-2.58932c-0.26714,-0.73433 -0.56424,-1.71051 -0.57466,-2.69467c-0.00731,-0.69061 0.09254,-1.78586 -0.16667,-2.68266c-0.1976,-0.68362 -0.57619,-1.3938 -1.23332,-2.19734c-0.55353,-0.67685 -1.35545,-1.17043 -1.57918,-2.136c-0.2032,-0.877 -0.02083,-1.79999 -0.02083,-2.7c0,-0.89999 0,-1.8 0,-2.59999c0,-0.90001 -0.05815,-1.96867 0.7045,-2.19551c0.85835,-0.25531 1.7955,-0.0045 2.6955,-0.0045c0.90001,0 1.8,0 2.70001,0c0.89999,0 1.7,0 2.59999,0c0.90001,0 1.85777,-0.30476 2.68935,0.01068c0.72913,0.27658 0.61066,1.38933 0.61066,2.28932c0,0.90001 0,1.8 0,2.7c0,0.8 -0.15491,1.7668 -1.02084,2c-0.80087,0.21568 -1.50645,0.74687 -2.37915,0.964c-0.87408,0.21747 -1.82991,0.26573 -2.69984,0.03568c-0.86562,-0.22891 -1.30025,-1.80833 -0.40016,-1.93718c0.83643,-0.11972 1.58072,0.50708 2.257,1.15901c0.58714,0.56601 0.21576,1.5789 0.243,2.4785c0.02859,0.94412 0.83652,1.44109 0.97917,2.32083c0.15332,0.94554 0.02083,1.77783 0.02083,2.67917c0,0.89999 0,1.79999 0,2.7c0,0.89999 0,1.8 0,2.7c0,0.89999 -0.19595,1.73444 0.05716,2.60001c0.25664,0.87762 0.78123,1.61443 0.94299,2.39983c0.17432,0.84634 0.8067,1.57069 1.52069,1.87933c0.80719,0.34894 1.77914,0.02083 2.67917,0.02083c0.89999,0 2.04312,-0.34283 2.63333,0.33334c0.45187,0.5177 0.56427,1.47989 1.36667,1.95067c0.63766,0.37411 1.5,0.71375 2.39999,0.71599c0.89999,0.00224 1.79999,0 2.69998,0c0.90002,0 1.8013,-0.04781 2.70001,0c0.80341,0.04272 1.68555,0.44095 2.38934,0.98534c0.62204,0.48112 0.59805,1.39096 0.96332,2.26651c0.30966,0.74225 0.54529,1.75615 0.67267,2.4615c0.18896,1.04634 1.14133,1.28665 1.81067,1.28665c0.76532,0 1.76849,0 2.62115,0c0.96436,0 1.77884,0 2.64734,0c1.19534,0 1.79102,0 2.65952,0c1.06934,0 1.98932,0 2.74933,0c0.98666,0 1.97067,0 2.66132,0c1.07269,0 1.992,0 2.6507,0c1.008,0 1.87015,0 2.77466,0c0.89999,0 1.79999,0 2.69998,0c0.90002,0 1.80002,0 2.70001,0l0.79999,0l0.91467,-0.08533" id="svg_15" stroke-width="2" stroke="#000" fill="none"/>
  <path t="68565,68825,68825,68841,68842,68842,68842,68865,68865,68875,68875,68875,68896,68896,68896,68896,68908,68908,68929,68941,68941,68974,68975,69013,69291,69330,69363,69373,69423,69557,69595,69605,69629,69660,69672,69693,69705,69727,69739,69760,69796,69821,69821,69861,69904,69971,70009,70072,70088,70088,70204,70243,70253,70274,70370,70370,70371,70386,70409,70409,70418,70453,70469,70503,70553,70553,70702,70742,70775,70775,70785,70785,70808,70818,70851,70868,70900,70900,70938,70983,71134,71134,71234,71316,71365,71432" d="m292,275.66666c0,2.01434 0,2.82135 0,4c0,0.59866 0,1.47919 0,2.31467c0,1.00134 0,1.91068 0,2.85202c0,0.7905 0,1.64398 0,2.83331c0,0.59866 0,1.47919 0,2.31467c0,0.99869 0,1.83868 0,2.80133c0,1.05069 0,1.70935 0,2.71735c0,0.86215 -0.35428,1.85043 0.02084,2.64584c0.33264,0.70532 1.53424,0.22318 2.3685,0.53149c0.74637,0.27582 1.00659,1.43829 1.71048,1.86798c0.7778,0.47482 1.2623,1.05777 1.90018,1.62134c0.5835,0.5155 1.06052,1.28503 1.80133,1.49869c0.89301,0.25754 0.98807,1.10669 1.48267,1.832c0.51804,0.7597 1.28232,1.12262 2.06784,1.16483c1.01074,0.05432 1.94815,0.00458 2.84818,0.00449c0.89981,-0.00009 1.52902,-0.29581 2.02148,-1.09982c0.37958,-0.61972 1.56296,-0.82819 1.77402,-1.60468c0.23505,-0.86469 -0.43475,-1.71329 -1.16217,-2.46216c-0.47226,-0.48618 -1.61514,-1.2814 -1.16534,-1.81201c0.63687,-0.75128 1.67932,-0.02133 2.69601,-0.02133c0.93597,0 1.836,0 2.73599,0c0.89999,0 1.96915,0.5683 2.61465,-0.08533c0.55936,-0.56641 -0.43628,-1.41803 -0.776,-2.064c-0.45691,-0.8688 -1.28369,-1.0372 -2.02133,-1.56668c-0.65591,-0.47079 -1.35571,-0.97711 -1.90265,-1.67331c-0.4852,-0.61761 -1.52737,-0.62384 -2.06284,-1.31519c-0.56662,-0.73157 -1.17062,-1.30627 -1.59467,-1.99548c-0.50537,-0.82141 -0.35718,-1.80002 -0.35718,-2.70001l0,-0.89999" id="svg_16" stroke-width="2" stroke="#000" fill="none"/>
  <polyline timestamps="74244,74538,74704" startTime="1452514497512" id="svg_17" points="463,296.66666412353516 462.8333333333333,294.8333307902018 462.12149999999997,294.44516412353516 " stroke-linecap="round" stroke-width="2" stroke="#000" fill="none"/>
 </g>
 <g display="none">
  <title>muse_image</title>
  <image xlink:href="http://farm1.static.flickr.com/68/194874454_d0a0ec830a.jpg" id="muse" height="480" width="640" y="0" x="0"/>
 </g>
 <g display="none">
  <title>bbox</title>
  <rect stroke="#f00" fill="none" stroke-width="3" height="295.68" width="343.04" y="84.48" x="139.52" id="bbox"/>
 </g>
</svg>
