<svg width="640" height="480" xmlns="http://www.w3.org/2000/svg" xmlns:svg="http://www.w3.org/2000/svg" xmlns:xlink="http://www.w3.org/1999/xlink">
 <!-- Sketchy ANNOTATION
  ImageNet ID: n02395406_6785
  URL: http://farm2.static.flickr.com/1219/954312388_a7bf59218b.jpg
  Image Width: 500
  Image Height: 334
  BBox X: 120
  BBox Y: 38
  BBox Width: 279
  BBox Height: 238
  Exposure: 2000ms
  Synset Label: pig
  Synset ID: n02395406
  Worker Tag: brown pig standing in dirt
  Sanity Check: 
   Context
   Saved
   Shading
  Comment: 
   {}
  Worker ID: A1XCIVM339SV6X
  Assignment ID: 3GNA64GUZE4SVLLO603QLZZVYIWQ5A
  HIT ID: 3G4VVJO6PZG8Q87IN8N5YZXIPOKKPQ
  Work Time: 183s
  Worker Score: 0.9286
 END ANNOTATION -->
 <g display="inline">
  <title>Layer 1</title>
  <path t="0,248,263,287,295,560,792,800,815,815,824,831,839,863,903,936,944,960,983,999,1015,1039,1055,1063,1095,1119,1127,1143,1167,1199,1207,1223,1232,1248,1271,1303,1303,1328,1359,1375,1391,1415,1431,1471,1503,1512,1544,1575,1615,1736,1751,1919,2223,2224,2247,2271,2303,2312,2359,2383,2423,2424,2711,2720,2729,2736,2753,2759,2783,3383,3399,3408,3423,3431,3455,3503,3503,3535,3551,3568,3591,3615,3655,3671,3679,3703,3783,3807,3823,3935,3945,4015,4135,4143,4152,4159,4575,4591,4607,4631,4671,4711,4735,4775,4799,4808,4832,4847,4887,4911,4967,4983,5031,5055,5095,5119,5159,5159,5191,5207,5255,5271,5303,5463,5463,5487,5639,5663,5671,5847,5863,5863,5871,5872,5879,5887,5895,5919,5943,5959,5959,5991,6039,6055,6071,6087,6095,6111,6111,6127,6143,6151,6167,6175,6191,6207,6223,6223,6239,6255,6263,6271,6287,6303,6319,6335,6335,6345,6352,6367,6375,6383,6399,6415,6415,6455,6455,6479,6479,6511,6535,6544,6559,6583,6583,6599,6615,6639,6655,6655,6663,6671,6687,6711,6719,6743,6751,6775,6799,6823,6839,6847,6863,6871,6872,6887,6903,6903,6911,6927,6928,6943,6943,6951,6967,6967,6967,6975,6975,6983,6991,6999,7007,7015,7032,7047,7047,7055,7063,7071,7087,7096,7103,7103,7135,7159,7159,7175,7183,7191,7199,7215,7231,7232,7249,7249,7249,7255,7271,7271,7279,7298,7311,7328,7328,7335,7343,7359,7367,7383,7399,7407,7423,7431,7431,7439,7447,7448,7463,7479,7487,7496,7511,7543,7567,7583,7583,7607,7615,7655,7679,7703,7711,7735,7751,7759,7759,7783,7791,7807,7823,7847,7855,7879,7911,7911,7951,7967,7967,7983,7991,8015,8015,8031,8039,8039,8055,8071,8071,8087,8087,8096,8103,8103,8111,8135,8151,8151,8167,8167,8167,8183,8183,8191,8191,8207,8223,8223,8239,8239,8255,8255,8271,8271,8287,8287,8303,8319,8319,8335,8335,8335,8351,8367,8383,8391,8391,8407,8415,8415,8431,8431,8448,8448,8455,8455,8471,8471,8482,8482,8487,8503,8519,8519,8519,8527,8528,8535,8535,8551,8559,8559,8567,8567,8575,8583,8583,8591,8599,8607,8607,8623,8639,8639,8648,8648,8655,8665,8671,8681,8681,8687,8698,8699,8703,8711,8727,8728,8743,8743,8751,8751,8759,8767,8784,8791,8799,8815,8823,8823,8839,8848,8855,8871,8887,8911,8911,8919,8919,8927,8943,8967,8975,8991,8999,9007,9023,9023,9047,9063,9079,9079,9095,9095,9103,9119,9119,9127,9135,9151,9167,9183,9183,9191,9199,9199,9207,9223,9231,9239,9255,9264,9265,9271,9279,9279,9287,9298,9303,9303,9311,9311,9319,9335,9335,9351,9351,9351,9359,9359,9375,9383,9391,9391,9399,9399,9407,9416,9423,9431,9439,9448,9449,9455,9464,9481,9482,9487,9487,9498,9498,9503,9512,9528,9535,9543,9551,9551,9559,9567,9575,9575,9590,9591,9599,9599,9607,9607,9616,9616,9623,9623,9631,9639,9639,9655,9663,9663,9671,9681,9687,9697,9703,9711,9719,9727,9735,9743,9743,9759,9759,9767,9775,9775,9783,9791,9798,9807,9816,9816,9823,9823,9831,9846,9847,9865,9866,9882,9882,9899,9903,9927,9943,9959,9975,9991,10007,10007,10015,10023,10032,10049,10055,10055,10062,10071,10081,10099,10111,10111,10127,10128,10135,10159,10175,10263,10274,10287,10298,10311,10311,10335,10359,10367,10391,10430,10447,10461,10481,10503,10519,10519,10535,10551,10559,10559,10567,10591,10599,10615,10638,10639,10648,10655,10665,10671,10687,10703,10719,10735,10735,10743,10759,10759,10767,10783,10791,10799,10815,10816,10839,10839,10863,10871,10895,10919,10919,10927,10951,10975,10999,11015,11015,11031,11039,11039,11054,11070,11082,11098,11119,11151,11174,11223,11223,11399,11544,11560,11592,11712,11736,11752,11776,11776,11808,11816,11824,11839,11855,11879,11912,11936,12064,12384,12400,12421,12421,12447,12456,12479,12503,12543,12848,12936,13264,13528,13544,13557,13575,13607,13640,13655,13664,13672,13687,13695,13712,13712,13720,13728,13744,13759,13775,13791,13807,13815,13831,13847,13865,13882,13882,13888,13888,13899,13912,13920,13920,13935,13951,13999,14024,14047,14063,14064,14072,14080,14100,14104,14127,14143,14144,14199,14239,14272,14296,14308,14367,14399,14496,14696,14709,14735,14824,14838,14841,14871,14895,14935,14944,14960,14983,15015,15031,15040,15087,15112,15127,15136,15136,15159,15183,15192,15207,15231,15247,15248,15263,15264,15279,15303,15327,15351,15352,15375,15399,15400,15415,15416,15439,15504,15528,15551,15575,15575,15591,15591,15600,15631,15655,15679,15728,15799,15816,15824,15825,15838,16112,16136,16151,16168,16168,16184,16215,16216,16344,16360,16543,16576,16576,16712,16728,16807,16919,16933,16975,16991,17007,17128,17151,17167,17239,17287,17311,17320,17343,17344,17351,17359,17375,17391,17399,17407,17423,17447,17471,17503,17503,17519,17535,17536,17543,17559,17583,17607,17639,17663,17695,17759,17760,17772,17788,17799,17807,17823,17839,17871,17903,17919,17951,17983,17999,17999,18007,18023,18047,18063,18071,18095,18303,18312,18330,18344,18360,18360,18368,18368,18375,18407,18423,18424,18433,18455,18466,18471,18482,18487,18499,18499,18512,18520,18528,18536,18551,18559,18567,18583,18584,18591,18600,18623,18632,18634,18639,18655,18665,18671,18687,18687,18703,18719,18719,18728,18745,18753,18753,18759,18775,18783,18791,18807,18807,18823,18832,18839,18850,18850,18855,18856,18866,18871,18872,18883,18887,18888,18903,18911,18912,18920,18928,18936,18943,18951,18959,18960,18968,18968,18975,18983,18991,19001,19002,19016,19017,19033,19039,19050,19055,19066,19066,19067,19071,19072,19080,19080,19087,19088,19099,19100,19100,19103,19104,19111,19120,19128,19151,19167,19167,19175,19176,19184,19191,19200,19200,19207,19208,19208,19217,19217,19223,19224,19232,19232,19239,19240,19255,19383,19397,19398,19408,19423,19439,19449,19471,19495,19511,19528,19528,19536,19537,19545,19552,19559,19951,19969,19970,19984,20007,20055,20071,20095,20095,20111,20135,20144,20167,20191,20207,20207,20231,20263,20279,20295,20319,20343,20359,20383,20383,20399,20411,20431,20447,20495,20543,20575,20599,20600,20615,20639,20687,20727,20742,20759,20807,20823,20823,20959,20983,21015,21031,21111,21223,21279,21280,21399,21400,21447,21591,21605,21625,21639,21783,21791,21871,21903,21919,21951,22015,22032,22063,22071,22095,22111,22120,22151,22151,22175,22183,22215,22247,22263,22279,22279,22311,22335,22375,22399,22439,22440,22487,22512,22551,22583,22607,22631,22695,22735,22736,22799,22871,22903,23463,23476,23480,23503,23512,23535,23535,23544,23607,23624,23639,23647,23671,23687,23695,23727,23783,23799,23808,23823,23855,23887,23903,23912,23943,23951,23983,24015,24031,24063,24087,24111,24135,24135,24175,24187,24255,24311,24335,24415,24431,24512,24607,24623,24624,24639,24703,24712,24735,24735,24895,24909,24920,24935,24951,24999,25063,25103,25104,25223,25279,25343,25367,25381,25399,25415,25423,25433,25447,25479,25503,25503,25527,25527,25544,25567,25599,25615,25615,25655,25679,25695,25735,25760,25783,25823,25847,25848,25863,25887,25899,25903,25927,25951,25967,25983,26015,26047,26071,26111,26126,26151,26159,26183,26215,26223,26247,26263,26319,26687,26695,26714,26715,27031,27055,27094,27175,27191,27207,27246,27271,27279,27287,27287,27310,27342,27351,27359,27375,27376,27391,27391,27398,27438,27446,27462,27478,27495,27526,27543,27558,27582,27598,27607,27615,27633,27654,27702,27718,27727,27728,27743,27743,27751,27751,27759,27767,27768,27775,27775,27790,27975" d="m393.5,288c1,1 1.67844,1.28522 2.284,1.91599c0.54999,0.57288 1.29135,0.79025 2.10535,1.0947c0.76038,0.28439 1.21051,1.14658 1.75998,1.58932c0.79126,0.63757 1.51413,1.20993 1.82983,1.92084c0.38931,0.87668 0.61945,1.48825 1.07352,2.18365c0.49487,0.75787 1.5192,1.00217 1.91132,1.73151c0.40747,0.75784 0.70651,1.37085 1.01517,2.08484c0.34894,0.80719 0.01193,1.88474 0.52084,2.47916c0.50638,0.59146 1.04901,1.21439 1.66666,1.83334c0.61734,0.61865 0.66782,1.46948 1.186,2.11398c0.49155,0.61136 1.27533,1.04059 1.67267,1.66333c0.47861,0.75009 1.07355,1.49048 1.67468,2.08936c0.59885,0.59662 1.52972,0.97095 2.17865,1.52133c0.66122,0.56082 1.00534,1.30643 1.64218,1.77866c0.78061,0.57883 1.159,1.23376 1.76315,1.91599c0.52649,0.59454 1.1626,1.13782 1.74133,1.65869c0.63788,0.5741 1.37219,1.09497 1.89066,1.71066c0.56039,0.6655 0.76248,1.53018 1.10934,2.31467c0.36166,0.81802 0.76093,1.69131 1.32733,2.34732c0.51147,0.59238 0.54346,1.5015 0.93134,2.25269c0.3392,0.65692 0.75961,1.65353 1.51733,1.79865c0.88263,0.16904 1.79868,0.00134 2.69867,0.00134c0.89999,0 1.88934,0.01068 2.5,0.5c0.61066,0.48932 1.5,0.50226 2.39999,0.5c0.89551,-0.00226 1.46014,-0.54263 2.04285,-1.09982c0.63287,-0.60516 1.80084,-0.61176 2.47314,-1.18417c0.60373,-0.51404 1.43417,-0.64294 2.05869,-1.14133c0.60797,-0.4852 1.46249,-0.32385 2.32083,-0.57916c0.76263,-0.22684 0.45129,-1.56189 1.1405,-1.9595c0.82678,-0.47696 1.43793,-0.7616 2.17465,-1.02533c0.83737,-0.29977 1.73291,-0.07764 2.41467,-0.58536c0.64081,-0.4772 1.74335,-0.36719 1.97018,-1.12982c0.25531,-0.85834 0.14655,-1.8085 -0.0062,-2.6955c-0.14346,-0.83316 -0.56009,-1.76218 -1.15598,-2.43335c-0.5383,-0.60632 -0.44165,-1.54565 -1.11868,-2.08133c-0.64224,-0.50815 -1.56589,-0.42212 -2.13998,-1.06c-0.52087,-0.57874 -1.09271,-1.18423 -1.65869,-1.74133c-0.67111,-0.66061 -1.52255,-1.02374 -1.87997,-1.72c-0.39508,-0.76968 -0.50592,-1.62756 -1.18533,-2.164c-0.71185,-0.56204 -1.41953,-1.0766 -1.81467,-1.836c-0.39917,-0.76709 0.12766,-1.82129 -0.25735,-2.664c-0.30579,-0.66931 -0.60516,-1.52066 -0.7995,-2.39999c-0.18637,-0.84332 -1.34824,-1.04013 -1.85767,-1.72168c-0.5704,-0.76315 -0.12149,-1.60367 -0.12149,-2.61166c0,-0.86215 0,-1.76666 0,-2.66666c0,-0.89999 -0.09088,-1.80472 0.00134,-2.70001c0.08368,-0.81259 0.79883,-1.45261 0.97781,-2.29999c0.18604,-0.8808 0.02075,-1.79999 0.02084,-2.70001c0.00009,-0.89981 0.53171,-1.547 0.91467,-2.36932c0.33212,-0.7131 0.08533,-1.67349 0.08533,-2.63068c0,-0.89999 -0.3371,-1.94888 0.16666,-2.63333c0.48062,-0.65298 0.83334,-1.26666 0.83334,-2.16666c0,-0.79999 0,-1.70001 0,-2.60001c0,-0.89999 0,-1.79999 0,-2.69998c0,-0.90002 0,-1.80002 0,-2.70001c0,-0.79999 0,-1.70001 0,-2.60001c0,-0.89999 0,-1.79999 0,-2.69998c0,-0.90002 0,-1.80017 0,-2.58536c0,-0.95065 0,-1.71597 0,-2.71014c0,-0.91917 0,-1.76851 0,-2.70451c0,-0.89999 0.18329,-1.85428 -0.16666,-2.7c-0.32468,-0.78462 -0.82068,-1.49985 -0.83334,-2.39999c-0.01266,-0.89993 -0.33688,-1.63127 -0.716,-2.40001c-0.41681,-0.84521 -0.48422,-1.60078 -1,-2.284c-0.46454,-0.61536 0.12872,-1.73943 -0.34116,-2.55884c-0.39444,-0.68784 -1.06216,-1.13785 -1.51752,-1.95717c-0.43451,-0.78178 -0.70584,-1.80341 -1.42532,-2.23332c-0.77048,-0.46039 -1.20868,-1.14015 -1.57468,-1.76668c-0.50671,-0.86736 -1.02588,-1.55635 -1.57465,-2c-0.7926,-0.64079 -1.00208,-1.57164 -1.61234,-2.09999c-0.81024,-0.70148 -1.63947,-0.81842 -2.48117,-1.25633c-0.82693,-0.43022 -1.04968,-1.10944 -1.35718,-1.80367c-0.48819,-1.10214 -1.0545,-1.69534 -1.78934,-2.21468c-0.66904,-0.47284 -0.90063,-1.41846 -1.71048,-1.90399c-0.72977,-0.43753 -1.34213,-0.90692 -2.09885,-1.40668c-0.60892,-0.40215 -0.85501,-1.35579 -1.60266,-1.79866c-0.69962,-0.41441 -1.63998,-0.79987 -2.39868,-1.2c-0.85837,-0.45271 -1.28781,-1.00296 -2.02148,-1.59467c-0.64612,-0.5211 -1.47971,-0.76596 -2.2785,-1.12134c-0.79672,-0.35446 -1.04257,-1.36575 -1.7215,-1.87849c-0.70773,-0.5345 -1.81125,-0.2476 -2.41449,-0.76817c-0.728,-0.62823 -1.13443,-1.23578 -1.88,-1.784c-0.79642,-0.5856 -1.69949,-0.83719 -2.284,-1.37067c-0.7197,-0.65689 -1.50623,-1.07918 -2.40002,-1.2c-0.80954,-0.10942 -1.45438,-0.79065 -2.29999,-0.97784c-0.95688,-0.21182 -1.35098,-0.75233 -1.936,-1.41016c-0.61615,-0.69284 -1.71741,-0.28882 -2.44266,-0.832c-0.64389,-0.48225 -1.30231,-0.64629 -2.10049,-0.7995c-0.9537,-0.18306 -1.19785,-1.31607 -1.82217,-1.69383c-0.80554,-0.48743 -1.79871,-0.27994 -2.69867,-0.28534c-0.8894,-0.00534 -1.37387,-0.72569 -2.11066,-0.98933c-0.85703,-0.30667 -1.91766,0.20564 -2.6795,-0.06783c-0.83801,-0.30081 -1.41434,-0.94058 -2.30984,-0.94284c-0.89999,-0.00226 -1.79999,0 -2.69998,0c-0.90002,0 -1.80002,0 -2.70001,0c-0.79999,0 -1.70001,0 -2.60001,0c-0.89999,0 -1.79999,0 -2.69998,0c-0.90002,0 -1.80002,0 -2.70001,0c-0.79999,0 -1.63599,0 -2.65268,0c-0.69464,0 -1.71133,0 -2.64731,0c-0.90134,0 -1.58536,0 -2.52536,0c-1.008,0 -1.87015,0 -2.6955,0c-0.96448,0 -1.68982,0 -2.67899,0c-0.77933,0 -1.77866,0 -2.80017,0c-0.79999,0 -1.70001,0 -2.52084,0c-0.96582,0 -1.72583,0 -2.64581,0c-0.78152,0 -1.82352,0 -2.69052,0c-0.89099,0 -1.7955,0 -2.65881,0c-0.98401,0 -1.80551,0 -2.69467,0c-0.98917,0 -1.76849,0 -2.76801,0c-0.77399,0 -1.6785,0 -2.42584,0c-0.99417,0 -1.93832,0 -2.84283,0c-0.91931,0 -1.7735,0 -2.75266,0c-0.78934,0 -1.51468,0 -2.58932,0c-0.91068,0 -1.71518,0 -2.73199,0c-0.67868,0 -1.65717,0 -2.67868,0c-0.75717,0 -1.65717,0 -2.40451,0c-0.99548,0 -1.7955,0 -2.79532,0c-0.77933,0 -1.77884,0 -2.68417,0c-0.94135,0 -1.63199,0 -2.70532,0c-0.832,0 -1.74402,0 -2.672,0c-0.7905,0 -1.81702,0 -2.492,0c-1.08002,0 -1.94217,0 -2.76752,0c-0.96448,0 -1.68982,0 -2.67899,0c-0.77933,0 -1.77866,0 -2.80017,0c-0.79999,0 -1.70001,0 -2.52084,0c-0.96317,0 -1.82648,0 -2.7265,0c-0.91931,0 -1.75266,0 -2.73114,0c-0.82019,0 -1.74802,0.18375 -2.62152,-0.036c-0.86282,-0.21706 -1.49335,-0.90186 -2.28534,-0.96268c-0.93726,-0.07198 -1.948,-0.00133 -2.70398,-0.00133c-0.91068,0 -1.82135,0 -2.73218,0c-0.88916,0 -1.87833,0 -2.65765,0c-0.99933,0 -1.71634,0 -2.62085,0c-0.89999,0 -1.79999,0 -2.69998,0c-0.90002,0 -1.80002,0 -2.70001,0c-0.79999,0 -1.70001,0 -2.60001,0c-0.89999,0 -1.79999,0 -2.7045,0c-1.01682,0 -1.6955,0 -2.67398,0c-0.82019,0 -1.72151,0 -2.62152,0c-0.89999,0 -1.79999,0 -2.7,0c-0.89999,0 -1.8,0 -2.7,0c-0.8,0 -1.7,0 -2.636,0c-0.84933,0 -1.76849,0 -2.76266,0c-0.76534,0 -1.716,0 -2.60133,0c-0.8,0 -1.7,0 -2.60001,0c-0.89999,0 -1.81065,0 -2.72133,0c-0.85333,0 -1.79333,0 -2.67867,0c-0.8,0 -1.70006,-0.01041 -2.60001,0c-0.90018,0.01042 -1.6033,0.54318 -2.5,0.87849c-0.85063,0.31808 -1.7,0.12151 -2.536,0.12151c-1.01666,0 -1.71133,0 -2.728,0c-0.94051,0 -1.80779,-0.07362 -2.636,0.02083c-0.9924,0.11317 -1.67372,0.6826 -2.52083,0.97917c-0.78404,0.27449 -1.47736,0.57593 -2.47917,0.83333c-0.78683,0.20216 -1.61661,0.19537 -2.5955,0.51933c-0.76265,0.2524 -1.77246,0.55908 -2.60583,0.64867c-0.97379,0.10468 -1.76393,0.25568 -2.46533,0.99867c-0.56764,0.60132 -1.28801,0.57143 -2.04799,1.08533c-0.66739,0.45129 -0.87949,1.51213 -1.68533,1.88934c-0.88786,0.41559 -1.48337,0.74849 -2.41467,1c-0.94075,0.25406 -1.48128,1.08192 -2.04666,1.41466c-0.92096,0.54199 -1.80959,0.59212 -2.43867,1.31601c-0.46719,0.53761 -1.02036,1.31073 -1.72533,1.86932c-0.62622,0.4962 -1.64108,0.34964 -2.37466,0.86134c-0.6754,0.47112 -1.19376,1.14114 -2.10001,1.564c-0.79022,0.36871 -1.15445,1.10158 -1.66933,1.8c-0.54419,0.73817 -1.42386,0.95963 -2.42618,1.14732c-0.74182,0.13892 -1.71252,0.35295 -2.20316,0.93935c-0.58746,0.70212 -0.83922,1.50557 -1.50134,2.35616c-0.45924,0.58995 -1.2,1.25717 -1.89999,1.95717c-0.5,0.5 -1.21761,1.18283 -1.89984,1.90001c-0.55774,0.58632 -0.83485,1.4321 -1.25282,2.2c-0.45766,0.84081 -1.15453,1.30899 -1.59018,2.05716c-0.42447,0.72896 -0.66502,1.38191 -1.02116,2.07884c-0.43916,0.85941 -0.42513,1.7093 -0.752,2.44933c-0.39392,0.89182 -0.21803,1.71397 -0.80482,2.59384c-0.47102,0.70627 -1.28668,1.17372 -1.46851,2.12083c-0.16969,0.88391 -0.01067,1.79999 -0.01067,2.7045c0,0.86217 0.13904,1.74243 -0.22133,2.674c-0.3009,0.77783 -0.76825,1.54213 -0.77867,2.343c-0.01157,0.88908 0,1.87833 0,2.65767c0,0.99933 0,1.81949 0,2.72083c0,0.90001 0,1.8 0,2.7c0,0.89999 0,1.80002 0,2.70001c0,0.89999 0,1.69998 0,2.60001c0,0.89999 0.00009,1.79999 0,2.71066c-0.00009,0.91049 0.08192,1.79706 -0.42534,2.52798c-0.45815,0.66013 -0.57466,1.46133 -0.57466,2.36584c0,0.86215 0,1.6955 0,2.67398c0,0.82019 0,1.72153 0,2.62152c0,0.89999 0,1.79999 0,2.69998c0,0.90002 0,1.80002 0,2.70001c0,0.79999 -0.05716,1.70001 -0.5,2.5c-0.44284,0.79999 -0.37601,1.70862 -0.50017,2.59982c-0.11172,0.80188 -0.97124,1.25589 -0.99983,2.10019c-0.03047,0.89948 0,1.79999 0,2.59998c0,0.90002 0.00693,1.88052 -0.70534,2.5c-0.53743,0.46744 -1.27382,1.19928 -1.29466,2.10001c-0.02081,0.89975 0.15352,1.84848 -0.16667,2.60001c-0.33284,0.78119 -0.45683,1.58328 -0.85416,2.47916c-0.31535,0.71106 -0.97691,1.22534 -0.97917,2.12085c-0.00226,0.89999 0.01985,1.81088 -0.00017,2.72116c-0.01799,0.81808 -0.61748,1.5163 -0.91451,2.24817c-0.29584,0.72891 -0.08533,1.79468 -0.08533,2.73065c0,0.90002 0,1.80002 0,2.70001c0,0.75717 0,1.65268 0,2.51599c0,0.96317 0.09547,1.92856 -0.284,2.68402c-0.43558,0.86719 -0.71533,1.59998 -0.716,2.5c-0.00066,0.89999 0,1.79999 0,2.71066c0,0.91064 0,1.58932 0,2.70398c0,0.88535 0,1.68533 0,2.58536c0,0.89999 0,1.79999 0,2.69998c0,0.89999 0,1.80002 0,2.70001c0,0.89999 -0.0956,1.694 -0.5,2.39999c-0.45448,0.79343 -0.5,1.70001 -0.5,2.60001c0,0.89999 0.21523,1.83911 1.10001,1.89999c0.89787,0.0618 1.7002,-0.01874 2.59999,0c0.86456,0.01801 1.34894,0.83026 2.10133,0.99866c0.87883,0.19669 1.62103,0.68753 2.49867,0.94418c0.86555,0.25311 1.80438,0.14584 2.7,0.05716c0.84569,-0.08374 1,-1 1,-1.79999c0,-0.90002 -0.00533,-1.80005 0,-2.70001c0.00534,-0.90005 0.43286,-1.75122 0.83333,-2.5c0.42329,-0.79147 1.1218,-1.26398 1.16667,-1.41434c0.252,-0.84436 0.67053,-1.39252 0.97917,-2.10651c0.34894,-0.80719 -0.17407,-1.80084 0.02216,-2.67783c0.18057,-0.80704 0.71318,-1.37363 1.00934,-2.19067c0.27225,-0.75107 0.94551,-1.31967 0.98801,-2.12799c0.05443,-1.03525 0.81943,-1.47696 1,-2.284c0.19623,-0.87698 -0.32678,-1.87064 0.02216,-2.67783c0.30864,-0.71399 0.96657,-1.22543 0.97917,-2.12085c0.01268,-0.90015 0.4942,-1.63965 0.83333,-2.56665c0.2343,-0.64047 0.1044,-1.8367 0.17734,-2.612c0.08444,-0.89764 0.90559,-1.37564 0.98933,-2.22134c0.07883,-0.79608 -0.18375,-1.7265 0.036,-2.60001c0.21706,-0.86282 0.9213,-1.59698 0.964,-2.5c0.04253,-0.89899 0,-1.69998 0,-2.60001c0,-0.89999 -0.1571,-1.8157 0.01067,-2.69998c0.17946,-0.94592 0.9043,-1.5874 0.98801,-2.39999c0.09222,-0.89529 0.20154,-1.6008 0.71733,-2.28403c0.46454,-0.61533 0.65462,-1.34497 1.16249,-2.13748c0.47844,-0.74655 0.31493,-2.37006 1.06435,-2.12668c0.15343,0.04984 0.11165,1.04968 0.55716,1.84818c0.44467,0.797 1.17053,1.30685 1.47917,2.02084c0.34894,0.80719 0.00352,1.7905 0.52083,2.47916c0.46999,0.62567 0.5,1.5 0.5,2.39999c0,0.89999 -0.15935,1.89789 0.35266,2.54733c0.48456,0.61462 0.51077,1.4093 0.93134,2.25269c0.32993,0.66162 0.71375,1.5 0.716,2.39999c0.00224,0.89999 0,1.79999 0,2.7045c0,0.86215 0,1.6955 0,2.67398c0,0.82019 0,1.72153 0,2.62152c0,0.92084 0,1.884 0,2.57465c0,1.07269 0,1.992 0,2.82535c0,0.83334 0,1.6955 0,2.60001c0,0.89999 0,1.79999 0,2.7045c0,0.86215 0,1.6955 0,2.67398c0,0.82019 0,1.72153 0,2.62152c0,0.89999 0,1.79999 0,2.69998c0,0.90002 0,1.80002 0,2.70001c0,0.79999 0.37062,1.42899 0.87849,2.2215c0.47844,0.74655 0.39157,1.55219 1.22151,1.99985c0.64763,0.34933 1.42065,0.76822 2.38399,0.77866c0.8633,0.00934 1.75883,0 2.716,0c0.90001,0 1.8004,0.02536 2.60001,0c0.90135,-0.02859 1.59444,-0.43448 2.39867,-0.91599c0.74362,-0.44522 1.51801,-0.96118 1.79066,-1.69467c0.30281,-0.81461 0.82491,-1.37744 1.00616,-2.09384c0.21965,-0.86816 0.0045,-1.7955 0.0045,-2.6955c0,-0.89999 0,-1.80002 0,-2.70001c0,-0.89999 0,-1.69998 0,-2.60001c0,-0.89999 0,-1.79999 0,-2.69998c0,-0.89999 -0.13733,-1.88113 0.35266,-2.54733c0.50325,-0.68423 0.64734,-1.46335 0.64734,-2.37399c0,-0.85333 0,-1.79333 0,-2.67868c0,-0.79999 0,-1.70001 0,-2.60001c0,-0.89999 0,-1.79999 0,-2.69998c0,-0.90002 0,-1.80002 0,-2.70001c0,-0.79999 -0.01067,-1.70007 0,-2.60001c0.01042,-0.87933 0.81424,-1.38809 0.9955,-2.10449c0.21965,-0.86816 0.0045,-1.7955 0.0045,-2.6955c0,-0.89999 0,-1.80002 0,-2.70001c0,-0.89999 -0.01799,-1.70016 0,-2.60001c0.01801,-0.90054 0.61804,-1.61035 0.91467,-2.5c0.2859,-0.85745 0.42825,-1.63748 1.03265,-2.15265c0.64641,-0.55096 1.45267,-0.64734 2.35718,-0.64734c0.86217,0 1.6955,0 2.674,0c0.82016,0 1.78339,-0.03613 2.5215,0.52084c0.66557,0.50223 1.15506,1.2757 2.10001,1.46848c0.88237,0.18002 1.79301,0.30072 2.27866,1.1105c0.43759,0.72968 1.27483,0.71881 2.12134,1.06683c0.6711,0.27591 1.49985,0.82068 2.39999,0.83334c0.89543,0.0126 1.40875,0.66617 2.12083,0.97916c0.80537,0.35397 1.58774,0.47058 2.47917,0.85419c0.71129,0.30606 1.78346,-0.19925 2.66667,0.33331c0.71365,0.43033 1.33333,0.83334 2.13333,0.83334c0.89999,0 1.81961,-0.00195 2.59999,0.42532c0.82257,0.45038 1.70018,0.57468 2.48534,0.57468c0.94,0 1.94804,-0.00864 2.70401,0c0.91084,0.01044 1.71442,0.35312 2.41066,1c0.60327,0.56049 1.39946,0.98199 2.3,1c0.89981,0.01801 1.80127,-0.04779 2.7,0c0.80341,0.04272 1.42094,0.70563 2.39999,0.96399c0.87091,0.22983 1.81506,-0.03888 2.48535,0.12134c0.97223,0.23236 1.6062,0.75043 2.61465,0.89383c0.97443,0.13855 1.67465,0.02084 2.74283,0.02084c0.85733,0 1.64252,0 2.58252,0c1.008,0 1.76398,0 2.67465,0c0.89999,0 1.79999,0 2.70001,0c0.89999,0 1.79999,0 2.55716,0c0.89551,0 1.77835,-0.17328 2.72198,0.02084c0.86719,0.17841 1.61472,0.91827 2.52084,0.97916c0.75546,0.05075 1.65268,0 2.51599,0c0.96317,0 1.884,0 2.784,0c0.90134,0 1.86667,0 2.53601,0c0.76532,0 1.76401,0 2.564,0c1,0 1.80011,-0.01285 2.80002,0.00015c0.8002,0.01041 1.80475,0.15222 2.59998,0.42517c0.80508,0.27631 1.79416,0.54221 2.54285,0.57019c1.02048,0.03815 1.95715,0.00449 2.85718,0.00449c0.89999,0 1.79999,0 2.55716,0c0.89551,0 1.75882,0 2.72198,0c0.93152,0 1.84235,0 2.54169,0c0.97916,0 1.78824,0.05624 2.57916,-0.08533c1.01892,-0.1824 1.78107,-0.64694 2.79999,-0.82935c0.79092,-0.14157 1.79984,-0.08527 2.57916,-0.08533c0.99933,-0.00009 1.7178,-0.05447 2.52084,-0.5c0.80148,-0.44467 1.63837,-0.88608 2.29999,-1.216c0.84338,-0.42056 1.81964,-0.28204 2.60001,-0.70932c0.8226,-0.45038 1.83817,-0.30075 2.47867,-0.79602c0.6373,-0.4928 1.28799,-0.94531 2.12134,-1.27866c0.83334,-0.33334 1.58939,-0.48495 2.5,-0.5c0.97925,-0.01617 1.47153,-1.01511 2.2045,-0.88116c0.8222,0.15024 1.11676,1.37418 1.25949,2.24518c0.15146,0.92435 0.03601,1.836 0.03601,2.73599c0,0.89999 0,1.69998 0,2.60001c0,0.89999 -0.05289,1.83472 0.35266,2.59998c0.4483,0.84592 0.64734,1.70001 0.64734,2.5c0,0.90002 0,1.80002 0,2.70001c0,0.89999 0,1.79999 0,2.70001c0,0.89999 0,1.79999 0,2.59998c0,0.90002 0,1.80002 0,2.70001c0,0.89999 0,1.79999 0,2.70001c0,0.89999 0,1.79999 0,2.59998c0,0.90002 0,1.80002 0,2.70001c0,0.89999 0,1.79999 0,2.70001c0,0.89999 0,1.79999 0,2.59998c0,0.90002 0,1.80002 0,2.70001c0,0.89999 -0.20615,1.99442 0.44666,2.47467c0.73203,0.53854 1.51721,0.63687 2.53183,0.90384c0.80167,0.21094 1.72159,0.13217 2.62152,0.12149c0.87933,-0.01044 1.53836,-0.44937 2.116,-1.08401c0.58856,-0.64667 1.1474,-1.24203 1.70932,-1.89066c0.50931,-0.58792 0.57468,-1.42532 0.57468,-2.32532c0,-0.90002 -0.08868,-1.80441 0,-2.70001c0.08374,-0.8457 0.95728,-1.28235 1,-2.20001c0.04184,-0.89902 0,-1.79999 0,-2.59998c0,-0.90002 0,-1.80002 0,-2.70001c0,-0.89999 -0.13168,-1.85004 0.22134,-2.60001c0.36505,-0.77551 0.60815,-1.52002 0.7995,-2.39999c0.18402,-0.84631 0.91827,-1.59387 0.97916,-2.5c0.05362,-0.79819 0,-1.70001 0,-2.60001c0,-0.89999 0,-1.79999 0,-2.69998c0,-0.90002 0,-1.80002 0,-2.70001c0,-0.79999 0.18372,-1.7265 -0.03601,-2.60001c-0.21704,-0.86279 -0.76895,-1.82468 -0.96399,-1.77866c-0.85541,0.20187 0.58914,1.69656 0.87851,2.47867c0.31512,0.85175 -0.27148,1.83035 0.20682,2.61465c0.49008,0.80365 0.82599,1.38974 0.91467,2.28534c0.08374,0.8457 0.79269,1.23773 1.00015,2.09982c0.20218,0.84012 0.97055,1.25607 0.99985,2.20016c0.02786,0.89825 0.6102,1.4379 0.96399,2.13602c0.3909,0.77133 -0.1138,1.77658 0.03616,2.66382c0.14401,0.85202 0.95731,1.24432 1.49985,1.90018c0.49878,0.60297 0.5,1.5 0.5,2.39999c0,0.89999 -0.08212,1.8038 0.00015,2.70001c0.08368,0.91144 0.5864,1.49448 0.99985,2.39999c0.36313,0.79529 0.85013,1.60431 1,2.5c0.14023,0.8382 0.79184,1.23792 1.00015,2.09982c0.20282,0.83914 1.09985,0.90018 1.99985,0.90018c0.79999,0 1.42892,0.3707 2.2215,0.87851c0.74673,0.47845 1.7785,0.12149 2.57849,0.12149c0.90002,0 1.94568,0.05093 2.19553,-0.7045c0.29529,-0.89279 0.83191,-0.88431 1.64731,-1.35266c0.81201,-0.4664 1.32892,-1.15454 1.95718,-1.51752c0.84564,-0.48856 1.39465,-1.03592 1.39999,-1.92532c0.0054,-0.89996 0.00009,-1.79999 0,-2.70001c-0.00009,-0.89981 -0.50784,-1.40863 -0.94284,-2.15717c-0.42447,-0.73038 -0.05716,-1.74283 -0.05716,-2.64282c0,-0.88535 0,-1.82535 0,-2.51599c0,-0.96317 0.13272,-1.8945 -0.00449,-2.784c-0.14368,-0.9314 -0.84735,-1.46863 -0.99103,-2.40002c-0.13721,-0.8895 0.04849,-1.83478 -0.35715,-2.59998c-0.44836,-0.84579 -1.0452,-1.3833 -1.59467,-2.05719c-0.57352,-0.7034 -0.90451,-1.41144 -1.04819,-2.34283c-0.13721,-0.8895 0.16278,-1.90927 -0.36166,-2.59549c-0.57336,-0.75024 -1.4606,-0.93658 -1.64297,-1.80432c-0.16653,-0.79233 -0.97119,-1.25592 -0.99985,-2.10019c-0.03055,-0.89929 -0.56677,-1.47769 -0.96399,-2.23599c-0.39926,-0.76221 -0.69946,-1.37393 -1.01517,-2.08484c-0.38931,-0.87668 -0.77954,-1.42056 -1.01636,-2.18365c-0.25504,-0.82178 -0.54779,-1.52063 -1.22583,-2.17416c-0.57953,-0.55862 -1.13226,-1.14459 -1.49466,-1.92133c-0.36856,-0.78992 0.65381,-0.7973 1.43066,-1.28534c0.74005,-0.46494 0.95465,-1.46307 1.64252,-1.85751c0.8194,-0.46985 1.84662,0.02496 2.74283,-0.05731c0.91144,-0.08368 1.43719,-0.7468 2.29999,-0.96384c0.8735,-0.21973 1.80002,-0.03601 2.70001,-0.03601c0.89999,0 1.78696,0.04523 2.72534,-0.01068c0.69345,-0.04132 1.58228,-0.65158 2.37466,-0.90399c0.86124,-0.27432 1.47659,-0.65417 2.23599,-1.04932c0.76709,-0.39917 1.86188,0.12332 2.51132,-0.38867c0.61462,-0.48453 1.35266,-0.64725 2.25269,-0.64734c0.89981,-0.00009 1.47659,-0.56885 2.23599,-0.96399c0.76709,-0.39917 1.76401,-0.03601 2.664,-0.03601c0.89999,0 1.65717,0 2.55716,0c0.74734,0 1.74152,0 2.68567,0c0.90451,0 1.82382,0 2.65717,0c0.97849,0 1.79868,0 2.70001,0.05716l0.77914,0.46368" id="svg_1" stroke-width="2" stroke="#000" fill="none"/>
  <path t="28995,29145,29153,29155,29162,29168,29184,29208,29265,29369,29369,29409,29433,29481,29489,29545,29545,29593,29609,29609,29665,29721,29745,29776,29793,29793,29825" d="m446.5,315c-1.82535,0 -2.83334,0 -3.6955,0c-0.90451,0 -1.8045,0 -2.7045,0c-0.89999,0 -1.80002,0 -2.70016,0c-0.78519,0 -1.82578,-0.28229 -2.5665,0.16666c-0.77185,0.4678 -1.49393,0.63516 -2.33334,1c-0.68457,0.29755 -1.21674,1.25952 -2,1.66669c-0.74384,0.38669 -1.47214,0.83319 -1.97467,1.556c-0.46765,0.67267 -1.32083,0.96783 -1.90399,1.71066l-0.20535,0.69998l-0.49066,0.80002" id="svg_2" stroke-width="2" stroke="#000" fill="none"/>
  <path t="30538,31017,31017,31033" d="m432.5,321" id="svg_3" stroke-width="2" stroke="#000" fill="none"/>
  <path t="31690,31992,32081,32361" d="m437.5,319" id="svg_4" stroke-width="2" stroke="#000" fill="none"/>
  <path t="32930,33080,33080,33097,33121" d="m431.5,322c1,1 1.08533,1.79999 1.5,2.5l0.47467,0.89999" id="svg_5" stroke-width="2" stroke="#000" fill="none"/>
  <polyline timestamps="33994,34225" startTime="1442866758528" id="svg_6" points="439.5,319 439.5,320.79999999999995 " stroke-linecap="round" stroke-width="2" stroke="#000" fill="none"/>
  <path t="36122,36264,36273,36273,36281,36281,36281,36289,36289,36289,36289,36297,36297,36304,36304,36319,36320,36343,36343,36367,36367,36383,36383,36424" d="m432.5,261c-1.63599,-0.57468 -2.48416,-0.94751 -3.24667,-0.98932c-0.91867,-0.05035 -1.71219,0.01575 -2.564,-0.04669c-1.1933,-0.08746 -1.79703,-0.21426 -2.64767,-0.48483c-0.78183,-0.24869 -1.67874,-0.87857 -2.42432,-1.19382c-0.90759,-0.38379 -1.71866,-0.28467 -2.71735,-0.28534c-0.79999,-0.00055 -1.79999,0 -2.60001,0c-0.99982,0 -1.77914,0 -2.77847,0l-0.82019,0l-0.90134,0.05716" id="svg_7" stroke-width="2" stroke="#000" fill="none"/>
  <path t="38236,38392,38408,38418,38425,38432,38449,38449,38471,38487,38487,38498,38503,38519,38528,38535,38543,38551,38559,38559,38567,38583,38591,38591,38599,38607,38607,38615,38623,38633,38633,38639,38647,38648,38655,38663,38663,38671,38671,38671,38682,38687,38687,38699,38703,38711,38719,38727,38728,38752,38752,38767,38767,38791,38791,38887,38887,38905,38943,38956,38991" d="m400.5,229c-0.05716,-1.7 -0.68619,-2.42236 -0.94284,-3.3c-0.25311,-0.86555 -0.00937,-1.80127 -0.05716,-2.7c-0.04272,-0.80341 -0.63049,-1.58119 -1.19867,-2.2c-0.53522,-0.5829 -0.79907,-1.49998 -0.80133,-2.40001c-0.00223,-0.89999 0,-1.79999 0,-2.7c0,-0.89999 0,-1.8 0,-2.7c0,-0.8 0,-1.7 0,-2.636c0,-0.84799 -0.15454,-1.72479 0.01068,-2.728c0.14294,-0.86784 0.84125,-1.4046 0.98483,-2.336c0.14261,-0.92509 -0.10315,-1.79803 0.06165,-2.64734c0.17963,-0.92572 0.66876,-1.69464 1.02686,-2.45267c0.35724,-0.75618 1.26019,-1.26532 1.91599,-1.72083c0.86594,-0.60146 1.42282,-1.27252 1.71335,-1.99518c0.33365,-0.82993 0.28604,-1.80533 0.28665,-2.65866c0.00067,-0.93866 0.44519,-1.56404 0.94733,-2.1825c0.57208,-0.70459 0.70346,-1.7363 1.13669,-2.3575c0.55585,-0.79703 0.76874,-1.35268 1.13748,-2.26401c0.28308,-0.69963 0.96765,-1.51173 1.37851,-2.196c0.48724,-0.81146 1.10001,-1.46367 1.87915,-1.82533l0.51016,-0.61067l0.04669,-0.95332l0.57465,-0.42534" id="svg_8" stroke-width="2" stroke="#000" fill="none"/>
  <path t="39703,39751,39767,39767,39775,39775,39783,39791,39791,39799,39807,39823,39823,39831,39831,39839,39839,39839,39848,39855,39855,39864,39864,39871,39879,39895,39903,39911,39919,39935,39943,39967,39967,39975,40112,40121,40137,40137,40143,40151,40167,40183,40183,40191,40191,40199,40248,40248,40272,40288,40295,40319,40343,40400,40400,40409,40439,40479,40487,40497,40527,40543,40559,40583,40615,40632,40655,40663" d="m412.5,181c0,1.82533 -0.00174,2.83333 0,3.62534c0.00226,1.02283 0.05453,1.83279 0.61066,2.42532c0.65051,0.69308 1.17078,1.26726 1.35333,2.31334c0.1618,0.92719 0.03601,1.80267 0.03601,2.636c0,0.97884 -0.01407,1.66144 0.00134,2.76801c0.01019,0.73218 -0.03949,1.51022 0.42398,2.56c0.3616,0.81906 0.52878,1.55896 0.58536,2.49733c0.04181,0.69344 0.67523,1.57809 0.93216,2.47467c0.24841,0.86691 -0.03152,1.80438 0.05716,2.7c0.08374,0.84569 0.95728,1.282 1,2.10001c0.04694,0.89877 -0.39294,1.83035 0.08533,2.61465c0.49008,0.80365 0.91467,1.38535 0.91467,2.28534c0,0.8 0.26453,1.53636 0.716,2.16933c0.52911,0.74181 0.284,1.83067 0.284,2.62001c0,1.04399 0.24203,1.65588 0.716,2.29466c0.57144,0.77017 0.284,1.716 0.284,2.616c0,0.90001 0,1.8 0,2.7c0,0.90001 0.00394,1.80136 0,2.48534c-0.00534,0.92938 -0.30368,1.77806 -0.91599,2.39867c-0.60272,0.61089 -1.07138,1.23668 -1.08401,2.116c-0.01285,0.89543 -0.67334,1.42154 -0.98932,2.21068c-0.32306,0.80679 -0.58536,1.41466 -1.0062,2.09383l-0.06165,0.93834" id="svg_9" stroke-width="2" stroke="#000" fill="none"/>
  <path t="41785,41832,41848,41864,41872,41879,41887,41895,41895,41903,41911,41911,41919,41928,41935,41935,41951,41951,41967,41967,41975,41983,41991,41999,41999,42015,42015,42023" d="m409.5,200c0,1.8 0,2.7 0,3.60001c0,0.79999 -0.10696,1.70653 0.00134,2.59999c0.11148,0.91977 0.84412,1.5683 0.98798,2.436c0.1387,0.83664 0.01068,1.71133 0.01068,2.728c0,0.836 0,1.73618 0,2.52133c0,0.95067 0,1.716 0,2.71017c0,0.91916 0,1.76849 0,2.7045c0,0.90134 0,1.86667 0,2.7l0,0.83333l0,0.86217l0,0.90451" id="svg_10" stroke-width="2" stroke="#000" fill="none"/>
  <path t="44176,44312,44320,44329,44343,44359,44359,44367,44367,44375,44391,44407,44407,44415,44440,44464,44480,44495,44520,44544,44560,44560,44583,44592,44600,44615,44623,44631,44639,44672,44672,44688,44880,45120" d="m426.5,199c0.05716,1.7 0.68558,2.42255 0.94284,3.3c0.25412,0.86674 0.2204,1.86803 0.48248,2.52533c0.40277,1.0101 0.4021,1.78423 0.59552,2.67467c0.18384,0.84636 0.91699,1.59238 0.97781,2.3c0.07706,0.89668 0.00134,1.8 0.00134,2.7c0,0.89999 0,1.8 0,2.7c0,0.90001 0,1.8 0,2.60001c0,0.89999 0,1.8 0,2.7c0,0.89999 0,1.8 0,2.7c0,0.90001 0,1.8 0,2.60001l-0.08533,0.91466l-0.79318,0.50684l-0.12164,0.87834" id="svg_11" stroke-width="2" stroke="#000" fill="none"/>
  <path t="45631,45688,45696,45713,45713,45728,45735,45743,45751,45759,45767,45775,45783,45791,45806,45830,45830,45862,45871" d="m423.5,199c-0.87851,1.2215 -0.95221,2.10127 -1,3c-0.04272,0.80341 -0.74469,1.53775 -0.96399,2.39999c-0.22095,0.86876 -0.70651,1.40686 -1.01517,2.12083c-0.34897,0.80722 0.17404,1.80086 -0.02219,2.67784c-0.18057,0.80704 -0.96265,1.248 -0.99866,2.12267l0,0.85333l0,0.94l-0.00015,0.98517" id="svg_12" stroke-width="2" stroke="#000" fill="none"/>
  <path t="48626,48800,48800,48812,48812,48822,48822,48825,48840,48848,48864,48864,48872,48872,48872,48881,48898,48904,48904,48935,48935,48951,48951,48959,48968,48975,48991,48991,48999,49007,49023,49033,49033,49039,49047,49055,49055,49063,49071,49087,49087,49099,49099,49103,49103,49111,49119,49119,49132,49135,49144,49159,49184,49223,49240,49287,49311,49335,49343,49359,49359,49391,49407,49423,49433,49503,49511,49511,49607,49623,49639,49639,49655,49655,49663,49671,49671,49680,49687,49687,49699,49699,49703,49719,49719,49733,49733,49733,49735,49735,49744,49751,49751,49759,49759,49759,49767,49767,49767,49775,49775,49784,49784,49791,49791,49800,49808,49816,49816,49823,49823,49831,49848,49855,49871,49895,49911,49927,49935" d="m177.5,225c-1.836,0 -2.60133,0 -3.60001,0c-0.79999,0 -1.79866,0 -2.74283,0c-0.89999,0 -1.85716,0 -2.75717,0c-0.89999,0 -1.71432,0 -2.668,0c-0.73199,0 -1.47737,-0.16043 -2.56,0.01067c-0.90263,0.14265 -1.76546,0.64011 -2.38666,1.07333c-0.79703,0.55586 -1.37016,0.72821 -2.26367,1.1375c-0.74356,0.34061 -1.03818,1.44356 -1.87233,1.75317c-0.7859,0.29172 -1.27403,1.05879 -1.76001,1.62534c-0.63756,0.74324 -1.6487,0.87665 -2.22266,1.56667c-0.54346,0.65335 -0.27997,1.61688 -0.74133,2.43333c-0.43774,0.77464 -1.09122,1.05064 -1.85735,1.48399c-0.72693,0.41118 -0.56567,1.58617 -1.13733,2.11734c-0.70314,0.65334 -1.43565,1.10123 -1.90984,1.79866c-0.55252,0.81267 -1.06725,1.44431 -1.46815,2.3c-0.40767,0.87013 -0.87648,1.47337 -1.04817,2.39999c-0.17213,0.92905 -0.69321,1.39868 -1.0885,2.10133c-0.45959,0.81694 -0.89867,1.59811 -0.916,2.49867c-0.0173,0.8985 0.35571,1.6714 1.2,1.7c0.89949,0.03047 1.8,0 2.60001,0c0.89999,0 1.90257,0.39821 2.76399,-0.036c0.69888,-0.35228 1.35226,-1.1183 1.436,-1.964c0.07883,-0.79611 -0.04889,-1.85399 -0.88667,-1.99867c-0.93549,-0.16154 -1.71466,-0.00133 -2.70883,-0.00133c-0.74733,0 -1.8087,-0.09073 -2.60583,0.284c-0.73213,0.34416 -1.72627,0.41731 -2.46533,0.88268c-0.6844,0.43094 -1.17181,1.27348 -1.85066,1.54799c-0.93578,0.37842 -1.65436,0.87671 -2.11867,1.47067c-0.64566,0.82594 -1.39989,1.27063 -1.88,1.69867c-0.78732,0.70193 -1.26292,1.42896 -1.448,2.49066c-0.16272,0.93344 0.02144,1.66107 -0.20267,2.62534c-0.19264,0.82886 -0.55699,1.44296 -0.748,2.68399c-0.08269,0.53726 -0.06461,1.36353 -0.08665,2.62933c-0.01123,0.6452 -0.29369,1.62915 -0.64601,2.43933c-0.37778,0.86871 -0.3504,1.59467 -0.35266,2.61136c-0.00208,0.94049 0,1.80264 0,2.63599c0,0.97849 0,1.79868 0,2.70001c0,0.89999 0,1.79999 0,2.69998c0,0.89999 0,1.80002 0.00017,2.69983l0.22133,0.77869" id="svg_13" stroke-width="2" stroke="#000" fill="none"/>
 </g>
 <g display="none">
  <title>muse_image</title>
  <image xlink:href="http://farm2.static.flickr.com/1219/954312388_a7bf59218b.jpg" id="muse" height="427" width="640" y="26.5" x="0"/>
 </g>
 <g display="none">
  <title>bbox</title>
  <rect stroke="#f00" fill="none" stroke-width="3" height="304.26946" width="357.12" y="75.08084" x="153.6" id="bbox"/>
 </g>
</svg>
