<svg width="640" height="480" xmlns="http://www.w3.org/2000/svg" xmlns:svg="http://www.w3.org/2000/svg" xmlns:xlink="http://www.w3.org/1999/xlink">
 <!-- Sketchy ANNOTATION
  ImageNet ID: n02395406_25881
  URL: http://farm1.static.flickr.com/44/169019413_c23a98d737.jpg
  Image Width: 500
  Image Height: 385
  BBox X: 32
  BBox Y: 29
  BBox Width: 377
  BBox Height: 307
  Exposure: 2000ms
  Synset Label: pig
  Synset ID: n02395406
  Worker Tag: pig cage
  Sanity Check: 
   Saved
  Comment: 
   {}
  Worker ID: AXD2DZ7U6CK35
  Assignment ID: 326O153BMIYY2VACCFQ9PUY9Z2RDEX
  HIT ID: 3NFWQRSHVEERX9M5JE6LODRLJUYFGM
  Work Time: 87s
  Worker Score: 0.7857
 END ANNOTATION -->
 <g display="inline">
  <title>Layer 1</title>
  <path t="0,11,11,11,11,11,18,18,26,39,56,56,73,73,73,89,89,106,106,123,123,123,139,139,156,156,156,174,174,174,190,190,190,190,207,207,223,223,240,240,256,256,274,274,274,289,290,290,306,306,306,323,323,323,323,339,339,339,340,357,357,357,357,373,373,374,374,389,390,390,406,406,406,406,423,423,424,424,439,439,439,439,439,456,456,457,457,457,474,474,474,474,489,489,490,490,490,506,506,507,523,523,523,524,539,539,539,539,556,556,556,574,574,574,589,589,590,590,606,606,606,623,639,639,656,673,673,689,689,689,706,723,723,739,739,756,757,805,894,1046,1054,1062,1092,1108,1109,1109,1128,1143,1143,1157,1175,1175,1190,1190,1190,1207,1207,1224,1240,1257,1274,1290,1307,1330,1346,1357,1374,1374,1389,1390,1390,1407,1407,1407,1407,1423,1424,1424,1439,1439,1440,1440,1440,1456,1456,1457,1457,1474,1474,1474,1474,1474,1489,1490,1490,1490,1490,1490,1490,1506,1507,1507,1507,1507,1523,1524,1524,1524,1540,1540,1540,1556,1557" d="m111,58c-4.614,7.035 -4.8806,7.53083 -5.256,8.46c-0.32023,0.79263 -0.4442,1.5244 -1.03951,2.6685c-0.36382,0.6992 -0.73652,1.58289 -1.12983,2.2715c-0.46658,0.8169 -0.6282,1.57915 -0.93184,2.60983c-0.23056,0.78262 -0.43593,1.31082 -0.8415,2.30483c-0.35809,0.87766 -0.67415,1.88624 -0.80133,2.68533c-0.15935,1.00119 -0.3371,1.60901 -0.7045,2.4c-0.47012,1.01218 -0.8,1.59776 -1.2955,2.6c-0.29821,0.60316 -0.70232,1.44453 -0.87867,2.4215c-0.14569,0.80709 -0.13695,1.6885 -0.28799,2.5785c-0.15319,0.90263 -0.43156,1.76846 -0.63467,2.31467c-0.3746,1.00742 -0.8285,1.81709 -1.11467,2.80133c-0.21949,0.75491 -0.5409,1.70866 -0.73133,2.28851c-0.32162,0.97931 -0.33514,1.79559 -0.35284,2.79583c-0.01489,0.84145 -0.05992,1.57481 -0.28383,2.76633c-0.12707,0.67617 -0.32599,1.33952 -0.54934,2.53333c-0.15536,0.83042 -0.16357,1.63734 -0.16683,2.48566c-0.00282,0.73401 -0.00156,1.55701 -0.057,2.418c-0.08146,1.26512 -0.21558,2.0281 -0.44283,3.05467c-0.1404,0.63424 -0.3955,1.84026 -0.44283,2.44617c-0.07264,0.92982 -0.0565,1.58083 -0.05717,2.9795c-0.00035,0.74133 -0.00006,1.49066 0,2.23199c0.00008,1.0625 -0.01027,2.0492 0.036,2.67333c0.09003,1.21437 0.31824,2.11029 0.464,2.71067c0.21836,0.89943 0.40371,1.79853 0.464,2.73199c0.0436,0.67508 0.03257,1.42401 0.03617,2.73201c0.00274,0.99399 0.00177,1.51224 0.03584,2.56c0.01685,0.51816 0.11101,1.97896 0.24799,2.82133c0.12366,0.76041 0.31285,1.45441 0.43201,2.136c0.24442,1.3981 0.25622,2.16512 0.27333,2.96533c0.01796,0.83986 0.01067,1.72 0.01067,2.63466c0,0.92267 -0.00007,1.82133 0,2.664c0.00008,1.0905 -0.01757,1.97018 0.05717,2.75551c0.07954,0.83588 0.29744,1.80859 0.44283,2.51999c0.14932,0.73061 0.34843,1.81091 0.44733,2.82201c0.06216,0.63548 0.09496,1.56354 0.33666,2.75583c0.12067,0.59523 0.39984,1.43668 0.59483,2.48016c0.13124,0.70233 0.256,1.70207 0.564,2.56384c0.24044,0.67274 0.57243,1.36002 0.909,2.052c0.61633,1.26715 1.03817,2.00699 1.2865,2.63916c0.39622,1.00865 0.6251,1.88571 1.16299,2.46617c0.67223,0.72542 1.29884,1.30017 1.83467,1.836c0.68533,0.68533 1.36319,1.36481 1.88,1.88c0.72571,0.72345 1.51794,1.23788 2.24117,1.59383c0.77051,0.37923 1.48325,1.00574 2,1.8685c0.41305,0.68962 0.92125,1.30692 1.52683,1.93767c0.55001,0.57288 1.2881,1.02873 1.74133,1.69467c0.50872,0.74747 1.14781,1.54967 1.62284,2.04199c0.49736,0.51547 1.21856,1.45561 1.35183,2.34734c0.11892,0.7957 0.55061,1.4724 1.2,2.20267c0.52498,0.59036 0.90487,1.33795 1.2,2.048c0.40673,0.97855 0.75989,1.81097 1.3,2.44032c0.644,0.75043 1.06711,1.60629 1.584,2.22501c0.54884,0.65695 0.63721,1.4388 1.14133,2.05867c0.50022,0.61507 1.16382,1.34325 1.45317,2.12534c0.31512,0.85173 0.14902,1.72189 0.40683,2.67065c0.2114,0.77797 0.41848,1.33856 0.81467,2.52934c0.19966,0.60011 0.50011,1.49997 0.7,2.09999c0.40021,1.20126 0.60856,1.808 0.89999,2.75717c0.30911,1.00676 0.50881,1.72566 0.68934,2.47884c0.1851,0.77223 0.35556,1.56158 0.48933,2.76399c0.08878,0.79802 0.10975,1.60086 0.174,2.40001c0.0966,1.20152 0.22012,2.00681 0.394,2.832c0.18526,0.87923 0.30862,1.3412 0.72001,2.868c0.15215,0.56464 0.48315,1.75755 0.64799,2.37601c0.16618,0.62355 0.34369,1.24345 0.616,2.472c0.25447,1.14806 0.34351,1.6852 0.4595,2.67599c0.10432,0.89101 0.12192,1.70981 0.2765,2.80933c0.09628,0.68486 0.34567,1.64844 0.53783,2.26218c0.37869,1.2095 0.68483,2.08316 0.8595,2.63249l0.3145,1.129l0.117,0.834" id="svg_1" stroke-width="2" stroke="#000" fill="none"/>
  <path t="2660,2674,2674,2674,2690,2709,2709,2709,2726,2742,2742,2758,2759,2759,2776,2776,2776,2776,2792,2792,2792,2809,2809,2809,2825,2826,2826,2826,2841,2842,2842,2842,2857,2857,2857,2875,2875,2890,2890,2890,2890,2907,2907,2907,2924,2924,2940,2957,2957,2957,2974,2974,2992,2992,3008,3026,3026,3042,3058,3076,3076,3091,3109,3126,3126,3141,3141,3158,3175,3198,3214,3238,3250,3266,3266,3274,3291,3308,3325,3342,3342,3359,3359,3359,3376,3376,3376,3391,3392,3409,3409,3409,3426,3426,3426,3426,3441,3441,3441,3441,3458,3458,3458,3459,3476,3476,3476,3476,3491,3491,3491,3491,3509,3509,3509,3509,3509,3525,3526,3526,3526,3542,3542,3542,3542,3558,3559,3559,3559,3559,3575,3576,3576,3576,3591,3591,3591,3592,3592,3592,3609,3609,3609,3609,3626,3626,3626,3626,3642,3642,3642,3657,3657,3657,3657,3675,3676,3676,3676,3676,3676,3691,3691,3692,3692,3708,3708,3709,3709,3726,3726,3726,3726,3726,3742,3742,3742,3742,3758,3759,3759,3759,3776,3776,3776,3776,3776,3792,3792,3792,3792,3793,3793,3807,3807,3807,3808,3808,3808,3826,3826,3826,3826,3827,3843,3843,3843,3843,3843,3857,3857,3858,3858,3858,3858,3876,3877,3877,3877,3892,3892,3892,3892,3892,3893,3893,3909,3909,3909,3910,3926,3926,3926,3926,3942,3942,3943,3943,3943,3959,3959,3960,3960,3960,3976,3976,3976,3977,3977,3977,3977,3992,3992,3992,3993,3993,3993,4007,4007,4008,4008,4008,4026,4026,4027,4027,4027,4027,4042,4042,4043,4043,4043,4060,4060,4060,4060,4074,4074,4074,4075,4075,4091,4091,4091,4092,4092,4108,4108,4108,4108,4108,4123,4124,4124,4124,4141,4141,4141,4141,4142,4158,4158,4158,4158,4175,4175,4175,4175,4175,4191,4191,4191,4191,4191,4192,4208,4208,4208,4208,4225,4226,4226,4240,4240,4258,4286,4293" d="m115,52c7.47083,-2.6355 8.24457,-2.89693 9.31583,-2.9865c0.92843,-0.07763 1.86487,-0.14811 2.5095,-0.4495c0.70779,-0.33093 1.48535,-1.09451 2.34134,-1.39733c0.81691,-0.28899 1.83392,-0.14449 2.65466,-0.17733c0.694,-0.02777 1.82341,-0.2011 2.48399,-0.3465c0.69701,-0.15342 1.73325,-0.4245 2.65184,-0.74267c0.78749,-0.27276 1.7173,-0.66116 2.72816,-0.81617c0.54738,-0.08393 1.42694,-0.08866 2.61484,-0.3055c0.6093,-0.11122 1.53537,-0.39075 2.18517,-0.57983c1.0351,-0.30119 1.76479,-0.49164 2.85333,-0.79866c0.69328,-0.19554 1.61662,-0.50436 2.61966,-0.87917c0.63794,-0.23838 1.65128,-0.4631 2.31367,-0.54617c1.06238,-0.13322 2.03333,-0.32733 2.728,-0.47467c0.69467,-0.14734 1.95447,-0.40576 2.728,-0.464c0.86757,-0.06532 1.86751,-0.03414 2.61484,-0.036c0.90451,-0.00225 1.82123,-0.17345 2.67799,-0.5c0.57878,-0.2206 1.57796,-0.46681 2.37917,-0.4955c0.99805,-0.03574 1.98637,0.04754 2.84283,-0.35717c0.81088,-0.38317 1.55717,-0.64667 2.45717,-0.64734c0.936,-0.00069 1.784,0 2.64734,0c0.89549,0 1.854,0 2.81934,0c0.65866,0 1.66666,0 2.52882,0c0.90451,0 1.8045,0 2.7045,0c0.90001,0 1.8,0 2.70001,0c0.89999,0 1.7,0 2.59999,0c0.90001,0 1.8,-0.00008 2.71066,0c0.91084,0.00008 1.62506,-0.05744 2.58934,0.16667c0.82884,0.19263 1.67696,0.59701 2.68401,0.74933c0.81108,0.12268 1.38582,0.03674 2.63066,0.36933c0.68111,0.18198 1.68207,0.72134 2.28984,1.01467c0.84821,0.40936 1.81682,0.80107 2.35716,1.0045c0.88445,0.33298 1.53088,0.56712 2.55966,1.01683c0.73567,0.32159 1.47621,0.68401 2.226,1.026c1.0825,0.49374 1.76308,0.77882 2.73184,1.13184c0.61372,0.22364 1.82339,0.61361 2.42082,0.82533c0.90402,0.32037 1.51112,0.55858 2.40034,1.01683c0.93324,0.48094 1.55879,0.88104 2.27032,1.19466c1.15292,0.50818 2.03348,0.73129 2.48,0.848c0.89639,0.2343 1.78523,0.41925 3.0065,0.736c0.73546,0.19075 1.42133,0.40232 2.091,0.6c1.37177,0.40493 2.10721,0.59536 2.85184,0.82083c0.75017,0.22716 1.8403,0.63123 2.51601,0.96317c0.66585,0.3271 1.29716,0.71524 1.96799,1.032c1.37955,0.65142 2.16216,0.86032 2.55768,0.984c0.81892,0.25608 2.12726,0.66021 3.041,0.984c0.46667,0.16537 1.39674,0.51535 2.3075,0.86333c0.44063,0.16835 1.66826,0.62753 2.39549,0.9c0.99498,0.3728 1.62505,0.61009 2.51434,1.074c0.91455,0.47709 1.49107,0.86953 2.09999,1.19466c1.1835,0.63194 1.80646,0.84364 2.70001,1.23667c0.9068,0.39886 1.50267,0.73264 2.44167,1.26817c0.67268,0.38364 1.78983,0.98298 2.20082,1.17917c0.85458,0.40794 1.73828,0.79657 2.17084,1c0.83649,0.39339 1.93695,0.97897 2.51968,1.4c0.79187,0.57215 1.23181,1.02116 2.25366,1.80134c0.55133,0.42094 1.16138,0.8327 1.79999,1.284c1.03693,0.73281 1.76611,1.26716 2.51334,1.81467c0.37473,0.27457 1.11127,0.82263 2.1785,1.5785c0.66144,0.46846 1.29962,0.90219 1.91699,1.317c0.90302,0.60674 1.8045,1.2045 2.40451,1.6045c0.60001,0.4 1.49747,1.00384 2.104,1.40134c0.95456,0.62556 1.2977,0.84531 2.052,1.284c1.29761,0.75464 1.79739,0.99987 2.83066,1.55067c0.53421,0.28477 1.07629,0.56927 1.61249,0.8685c1.57642,0.87974 2.06265,1.18793 2.98651,1.791c0.4447,0.29028 1.29083,0.87171 1.70532,1.14733c1.20285,0.79987 2.00494,1.27914 2.80902,1.72117c0.39801,0.2188 1.19949,0.63249 2.39999,1.236c0.79965,0.40199 1.2041,0.59673 2,1.02084c0.8042,0.42853 2.00278,1.14152 2.39984,1.4005c0.80136,0.52269 1.57999,1.07772 1.96417,1.35333c0.75198,0.53948 1.81454,1.30457 2.48782,1.77717c0.66873,0.4694 1.36426,0.94955 2.48151,1.7815c0.41147,0.3064 1.26944,0.97408 1.70667,1.328c0.44113,0.35707 1.30548,1.08173 1.70667,1.456c1.11169,1.03718 1.68826,1.71938 2.21167,2.341c0.48709,0.5785 1.19327,1.39169 1.72699,1.85767c0.81339,0.71015 1.4335,1.11903 2.31467,1.85066c0.6102,0.50665 1.20395,1.06524 1.79999,1.644c0.60403,0.58655 1.50034,1.48966 1.80267,1.792c0.61868,0.61868 1.26935,1.26933 1.96802,1.96799c0.76266,0.76266 1.172,1.17199 2.03467,2.03467c0.44531,0.44533 0.89465,0.89467 1.34399,1.344c0.88266,0.88266 1.71597,1.71869 2.48132,2.48c0.35886,0.35697 1.04346,1.03438 1.7175,1.66167c0.33203,0.309 1.37094,1.2121 2.10901,1.8135c0.37759,0.30768 1.15961,0.92413 1.94415,1.58083c0.80502,0.67383 1.59976,1.39609 1.99417,1.76733c0.78851,0.7422 1.17047,1.12001 1.91916,1.86333c0.72058,0.71543 1.39709,1.40031 2.04935,2.03734c0.31375,0.30643 0.91437,0.90491 1.836,1.68c0.58932,0.49564 1.50555,1.1594 2.10001,1.61933c0.9086,0.703 1.50974,1.22374 2.10001,1.79401c0.61023,0.58955 0.91708,0.89995 1.79999,1.92c0.61203,0.70711 1.19977,1.45886 1.5,1.83333c0.59952,0.74773 1.49728,1.83569 1.79984,2.1785c0.59042,0.66901 1.18631,1.29436 1.74301,1.91701c0.80066,0.89552 1.27173,1.50426 1.73181,2.09383c0.44931,0.57576 1.37894,1.65842 1.91068,2.12666c0.53784,0.47363 1.13361,0.89888 1.716,1.36801c1.21634,0.9798 1.5036,1.26796 2.09866,1.83682c0.60507,0.57843 1.50195,1.47723 2.10132,2.08183c0.61136,0.61668 1.23804,1.26622 1.55585,1.61168c1.02036,1.1091 1.36716,1.5255 2.091,2.38649c0.36807,0.43782 1.08908,1.31367 1.44199,1.73666c0.97263,1.16576 1.25613,1.50778 2.03784,2.35451c0.44464,0.48163 1.272,1.30801 1.86749,1.9035c0.56851,0.5685 1.23785,1.23782 1.88367,1.86282l0.71951,0.45767l0.73965,0.43666l-0.45917,0.62651" id="svg_2" stroke-width="2" stroke="#000" fill="none"/>
  <path t="5720,5734,5758,5775,5775,5791,5809,5825,5842,5842,5858,5875,5892,5909,5931,5951,5951,5959,5975,5992,6010,6027,6042,6071,6094,6110,6125,6125,6147,6163,6175" d="m111,57c-0.94283,-4.1285 -1,-5.1 -1,-6c0,-0.8 -0.18842,-1.72769 0.036,-2.6c0.22285,-0.86622 1.16595,-1.42142 1.60683,-2.1c0.51479,-0.79234 0.98444,-1.29412 1.75717,-1.72533c0.8189,-0.45698 1.7,-0.57467 2.6,-0.57467c0.8,0 1.7,0 2.6,0c0.9,0 1.8424,-0.26782 2.6955,0.0045c0.82051,0.26192 1.436,0.84649 2.09383,1.4315c0.69284,0.61615 0.61066,1.564 0.61066,2.364l0,0.9l0,0.9l0,0.9" id="svg_3" stroke-width="2" stroke="#000" fill="none"/>
  <path t="8067,8093,8101,8109,8122,8139,8156,8157,8173,8173,8189,8189,8189,8206,8206,8222,8222,8239,8239,8239,8256,8256,8272,8272,8289,8289,8306,8306,8306,8322,8322,8339,8339,8356,8356,8372,8389,8389,8406,8406,8406,8422,8422,8439,8456,8456,8456,8472,8472,8490,8490,8490,8506,8506,8522,8522,8539,8565,8630,8635,8673,8694,8694,8709,8725,8725,8740,8756,8773,8773,8790,8790,8807,8822,8823,8823,8840,8840,8840,8840,8857,8857,8857,8857,8873,8873,8873,8873,8890,8890,8890,8890,8907,8907,8907,8907,8907,8907,8923,8923,8923,8923,8923,8940,8940,8940,8940,8940,8957,8957,8957,8957,8957,8974,8974,8974,8974,8974,8990,8990,8990,8990,9007,9007,9007,9007,9007,9007,9023,9023,9023,9023,9023,9040,9040,9040,9040,9057,9057,9057,9057,9057,9073,9073,9073,9073,9073,9073,9090,9090,9090,9090,9090,9107,9107,9107,9107,9107,9107,9123,9123,9123,9123,9123,9123,9123,9140,9140,9140,9140,9140,9140,9157,9157,9157,9157,9157,9173,9173,9173,9173,9190,9190,9190,9190,9207,9207,9207,9207,9207,9207,9223,9223,9223,9223,9223,9240,9240,9240,9240,9257,9257,9257,9257,9273,9273,9273,9273,9291,9291,9291,9291,9307,9307,9307,9307,9308,9323,9323,9323,9323,9340,9340,9340,9357,9357,9373,9373,9373,9390,9407" d="m124,166c0.16666,1.83333 0.76969,2.30554 1.35267,2.94733c0.52624,0.57932 0.50167,1.41406 0.93266,2.25401c0.31782,0.61938 1.03345,1.45107 1.31467,2.04533c0.4291,0.90678 0.68259,1.70833 1.00001,2.49199c0.37936,0.93663 0.98407,1.69832 1.27882,2.58284c0.2256,0.677 0.41209,1.70753 0.83101,2.274c0.58582,0.79214 1.30988,1.34659 1.8795,2.02983c0.55278,0.66304 0.84891,1.41533 1.51083,2.35333c0.38623,0.54733 1.22954,1.33476 1.72516,1.85733c0.53111,0.56 1.16235,1.358 1.65384,2.14317c0.53082,0.84799 1.01555,1.50514 1.62083,2.12083c0.59485,0.60509 1.2,1.2 1.89999,1.89999c0.52083,0.52083 1.32133,1.32133 1.82533,1.82533c0.522,0.522 1.38101,1.21719 1.813,1.87016c0.50191,0.75865 0.7701,1.65796 1.40334,2.3045c0.53334,0.54454 1.34416,1.13939 2.15833,1.58934c0.78705,0.43497 1.60008,0.8105 2.2,1.11066c0.99881,0.49974 1.78984,0.86017 2.57851,1.39984c0.63313,0.43324 1.59473,0.82066 2.0215,1.42099c0.56587,0.79601 0.60806,1.78461 1.28534,2.39517c0.64622,0.58258 1.41579,0.78737 2.11465,1.48399c0.60097,0.59904 1.01802,1.28903 1.60001,2.07918c0.50035,0.67932 1.19547,1.09308 1.7,1.87267c0.49556,0.76572 1.03806,1.3083 1.7,2.05882c0.63843,0.72386 0.99686,1.45236 1.41434,2.05101c0.68919,0.98828 1.19028,1.49593 1.7065,2.03833c0.52573,0.5524 1.31795,1.32796 2.022,2.04733c0.43977,0.44934 1.06876,1.12631 1.65733,1.87401c0.62442,0.79323 1.01161,1.37439 1.48517,1.89465c0.95323,1.04724 1.56055,1.46889 2.12534,1.98134c0.60143,0.5457 1.49574,1.56198 1.78934,1.95599c0.61356,0.82341 0.89766,1.2691 1.5,2.14584c0.29883,0.43495 1.18887,1.66713 1.79999,2.38649c0.29471,0.34691 0.89577,0.99715 1.5,1.61168c0.89378,0.909 1.50346,1.5038 2.10001,2.12349c0.30177,0.31348 0.9147,0.95192 1.8,2.0005c0.61024,0.72281 0.89804,1.10558 1.5,1.85333c0.59805,0.7429 1.19415,1.46384 1.79866,2.14c0.58505,0.6544 1.17511,1.26599 1.716,1.884c0.77841,0.8894 1.24011,1.50815 1.70616,2.14301c0.49213,0.67038 1.31044,1.79323 1.62184,2.20082c0.65831,0.86168 1.00426,1.30051 1.70667,2.17084c0.34352,0.42564 1.31396,1.58961 1.60783,1.92233c0.77271,0.87485 1.25536,1.37044 1.72549,1.84567c0.7355,0.74347 1.55333,1.55466 1.83817,1.83951c0.58366,0.58368 1.47917,1.47916 2.08051,2.08047c0.60934,0.60934 1.23466,1.23468 1.884,1.884c0.68134,0.68134 1.39758,1.39981 1.77184,1.76285c0.75879,0.73602 1.13763,1.10904 1.94417,1.7825c0.78368,0.65436 1.5878,1.21652 2.39867,1.69733c0.78979,0.46832 1.19858,0.6658 2.39999,1.272c0.80173,0.40454 1.62285,0.81848 2.04167,1.04166c0.87585,0.46674 1.33833,0.71344 2.80099,1.60117c0.52876,0.32092 1.06445,0.66428 1.608,1.01852c1.10231,0.71844 1.64546,1.08835 2.18134,1.45599c1.03754,0.71185 1.99713,1.39627 2.45366,1.72101c0.8723,0.62051 1.28381,0.92865 2.11166,1.47498c1.18962,0.78503 1.59805,1.00714 2.39201,1.45068c0.77151,0.431 1.53369,0.8201 2.58916,1.436c0.66977,0.39084 1.3028,0.79672 1.91701,1.19998c1.20905,0.79379 1.81212,1.2066 2.44617,1.62085c0.67122,0.43854 1.79108,1.14673 2.20099,1.40048c0.86147,0.53329 1.30821,0.80368 2.20668,1.35333c0.44543,0.27249 1.72137,1.05234 2.48,1.54135c0.70247,0.45282 1.36028,0.89493 1.968,1.36798c0.91974,0.71594 1.50266,1.26868 2.10266,1.81601c0.60001,0.54733 1.49359,1.34143 2.09866,1.81467c0.58458,0.45721 1.18315,0.85168 2.23466,1.68533c0.49121,0.38943 1.15567,1.01279 1.85068,1.60001c0.72639,0.61374 1.27525,1.00787 2.16266,1.63599c0.63828,0.45178 1.67519,1.18463 2.03734,1.448c0.7424,0.53989 1.48904,1.09286 2.23199,1.63202c0.71582,0.51947 1.39337,1.00317 2.03732,1.43732c0.87964,0.59305 1.67288,1.09262 2.38953,1.4895c0.84451,0.46768 1.65717,0.85718 2.45715,1.25717c1,0.5 1.591,0.79999 2.28568,1.20001l0.69348,0.77914l0.6315,0.40219" id="svg_4" stroke-width="2" stroke="#000" fill="none"/>
  <path t="11259,11334,11342,11359,11359,11374,11374,11390,11407,11423,11423,11423,11440,11440,11440,11457,11457,11473,11473,11490,11490,11507,11507,11507,11523,11540,11540,11557,11557,11573,11590,11607,11633,11669,11685,11701,11701,11707,11725,11746,11757,11773,11790,11807,11823,11823,11840,11857,11893,11909,11925,11940,11940,11957,11973,11973,11990,12007,12023,12023,12023,12040,12040,12040,12057,12057,12073,12073,12090,12090,12107,12123,12181,12218,12302,12322,12342,12360,12375,12375,12392,12414,12414,12425,12518,12534,12542,12558,12574,12574,12591,12591,12608,12625,12626,12641,12641,12658,12674,12674,12691,12708,12708,12724,12724,12741,12765,12805,12833,12841,12858,12874,12874,12891,12908,12924,12925,12941,12958,12974,13066,13075,13075" d="m130,237c0,0.2 -0.16997,1.1489 0.16667,2c0.27792,0.70265 0.78619,1.48126 0.82883,2.34734c0.04404,0.89442 0.0045,1.854 0.0045,2.81934c0,0.67999 0,1.51999 0,2.51733c0,0.81599 -0.0199,1.63222 0.00133,2.62933c0.0179,0.84052 0.37308,1.75841 0.71468,2.57066c0.31404,0.74672 0.28174,1.57765 0.284,2.53717c0.00186,0.79349 0,1.80948 0,2.76898c0,0.9765 0,1.80984 0,2.64319c0,0.86215 0,1.76666 0,2.66666c0,0.89999 0,1.79999 0,2.70001c0,0.89999 0,1.79999 0,2.59998c0,0.90002 0,1.80002 0,2.70001c0,0.89999 0,1.79999 0,2.70001c0,0.89999 0.17355,1.83823 -0.08533,2.59998c-0.30176,0.88794 -0.89667,1.59946 -0.91467,2.5c-0.01799,0.89984 0,1.80002 0,2.70001c0,0.79999 0,1.63599 0,2.65268c0,0.69464 -0.08505,1.71561 0.0045,2.65182c0.08353,0.87329 0.47815,1.52448 0.7115,2.38217c0.26671,0.98026 0.21075,1.80432 0.368,2.54398c0.24174,1.13718 0.78209,1.61499 1.30533,2.60535c0.29079,0.55038 0.56335,1.56021 0.60617,2.50684c0.04066,0.89908 -0.1814,1.96188 0.2885,2.57315c0.52303,0.68036 1.28711,1.36475 2.10533,1.07333c0.7496,-0.26697 1.19292,-1.30984 1.48917,-2.08948c0.28217,-0.74252 0.08578,-1.72583 0.12151,-2.73318c0.02859,-0.80652 0.33517,-1.72717 1.22133,-2.04498c0.71442,-0.25623 0.53227,1.25748 1.13583,1.82565c0.66068,0.62192 1.41103,0.92612 1.61751,1.87802c0.14822,0.68335 0.58055,1.65125 1.02533,2.34131c0.52078,0.80798 0.75143,1.69235 1.02533,2.42267c0.31912,0.85089 1.07466,1.51068 1.67467,2.11069c0.59999,0.59998 1.29976,1.30023 1.8,1.79999c0.69966,0.69901 1.32797,1.14792 2.2,1.55267c0.83139,0.38589 1.59865,0.91882 2.5,0.94733c0.8994,0.02844 1.5489,-0.28394 2.0215,-1.10001c0.38602,-0.66656 1.27808,-1.23465 1.65717,-2c0.41942,-0.84677 0.54539,-1.59042 1.12134,-2.37915c0.46753,-0.64029 1.084,-1.23685 1.83333,-1.6875l0.16667,-0.83334l0,-0.79999" id="svg_5" stroke-width="2" stroke="#000" fill="none"/>
  <path t="14191,14214,14222,14230,14242,14257,14257,14273,14273,14291,14291,14306,14323,14340,14358,14358,14374,14374,14390,14406,14406,14423,14423,14440,14440,14456,14456,14473,14473,14491,14491,14491,14507,14507,14523,14524,14540,14540,14556,14556,14573,14573,14590,14590,14590,14606,14606,14606,14622,14623,14639,14640,14640,14656,14656,14673,14690,14690,14706,14706,14723,14723,14740,14755,14773,14797,14813,14813,14822,14840,14856,14873,14873,14890,14890,14906,14906,14940,14956,14956,14956,14956,14972,14973,14973,14990,14990,15006,15006,15022,15039,15040,15056,15073,15097,15149,15174,15192,15192,15208,15222,15239,15240,15255,15301" d="m153,205c0,3.45833 0,4.3 0,5.2c0,0.90001 0,1.8 0,2.55717c0,0.89999 0,1.84416 0,2.83833c0,0.74733 0,1.76849 0,2.60449c0,0.90001 0,1.8 0,2.55717c0,0.89549 0,1.75883 0,2.74283c0,0.98534 0,1.71066 0,2.69983c0,0.77934 0,1.77884 0,2.55284c0,0.9045 0,1.84866 0,2.85184c0,0.63148 0,1.81667 0,2.61015c0,0.77551 0,1.81601 0,2.53351c0,0.909 0,1.85316 0,2.85184c0,0.79999 0,1.79999 0,2.59999c0,1 0,1.8 0,2.8c0,0.81067 0,1.45717 0,2.42134c0,0.80399 0,1.62599 0,2.65717c0,0.90067 0,1.92149 0,2.7215c0,0.8 0,1.7955 0,2.54283c0,1.03183 0,1.97867 0,2.86783c0,0.98917 0,1.76849 0,2.62268c0,0.86215 0,1.76666 0,2.66666c0,0.89999 -0.13657,1.85663 0.284,2.70001c0.32993,0.66162 0.53003,1.52686 0.752,2.39999c0.21921,0.86227 0.91626,1.59775 0.96268,2.28534c0.06404,0.94858 0.03099,1.73264 0.35399,2.71014c0.25204,0.76279 0.55225,1.6658 0.81401,2.73785c0.16803,0.68814 0.45944,1.49689 0.72,2.06934c0.55307,1.21512 0.94444,1.76654 1.40349,2.58298c0.48457,0.86188 0.68228,1.64322 0.99384,2.49835c0.25652,0.70404 0.49173,1.68301 0.88268,2.51599c0.36078,0.76871 0.82291,1.49982 0.83333,2.39999c0.01041,0.89993 0,1.80002 0,2.70001c0,0.89999 0,1.69998 0,2.60001c0,0.93597 -0.00133,1.784 -0.05716,2.64731l-0.2955,0.89551l-0.52583,0.85684" id="svg_6" stroke-width="2" stroke="#000" fill="none"/>
  <path t="16636,16659,16667,16692,16708,16708,16708,16725,16725,16725,16725,16742,16742,16758,16758,16758,16774,16774,16774,16790,16790,16790,16790,16806,16806,16806,16806,16823,16823,16823,16840,16840,16840,16856,16856,16856,16873,16873,16890,16890,16906,16906,16906,16923,16923,16940,16940,16956,16973,16990,17010,17010,17026,17040,17056,17073,17090,17091,17106,17123,17123,17123,17140,17140,17140,17156,17173,17173,17190,17190,17242,17266,17274,17290,17306,17306,17323,17411,17467,17491,17491,17507,17524,17541,17557,17557,17574,17591,17591,17591,17607,17607,17607,17624,17641,17678,17706,17730,17782,17790,17842,17858,17874,17891,17907,17907,17924,17924,17941,17941,17957,17957,17957,17974,17991,18083,18083,18099,18115,18123,18140,18156,18156,18173,18173,18190,18190,18206,18206,18206,18223,18223,18223,18240,18240,18256,18278,18363,18363" d="m172,227c0.98933,2.58934 1,3.5 1,4.30901c0,1.02432 0,1.70532 0,2.51233c0,1.17867 -0.00981,2.07474 0.02083,2.65784c0.04398,0.83682 0.28197,1.83102 0.55383,2.74615c0.27802,0.93582 0.38727,1.72649 0.41467,2.54935c0.03523,1.05812 0.01067,1.77716 0.01067,2.73515c0,1.13301 0,1.8 0,2.511c0,0.731 0,2.15767 0,2.82201c0,0.9465 -0.01262,1.55591 0.00133,2.75583c0.01024,0.88066 -0.02611,1.46152 0.28267,2.71733c0.17126,0.69655 0.49094,1.35808 0.63068,2.368c0.1122,0.81082 0.08466,1.63202 0.08533,2.85886c0.00035,0.64648 0,1.65717 0,2.45715c0,1 0,1.79999 0,2.60001c0,1 0,1.79999 0,2.79868c0,0.94415 0,1.84415 0,2.80133c0,0.89999 0,1.79999 0,2.59998c0,0.90002 0.1669,1.64587 0.64734,2.30984c0.48051,0.66409 0.54112,1.71216 0.92732,2.47949c0.41298,0.82053 0.41386,1.7442 0.42984,2.4205c0.01833,0.77594 0.1205,1.83627 0.42084,2.7435c0.25572,0.77246 0.52324,1.7623 0.79599,2.56799c0.23526,0.69492 0.67819,1.65436 0.77734,2.47736c0.11006,0.91348 0.83948,1.40479 1.70132,1.14417c0.88509,-0.26764 1.60757,-1.06424 2.01466,-1.74283c0.4415,-0.73596 0.58252,-1.90555 1.48534,-2.11334c0.8867,-0.20407 1.23167,0.74753 1.82533,1.47733c0.528,0.64908 1.47981,0.95157 2.07468,1.53601c0.60527,0.59467 1.27589,1.34662 2.06667,1.89999c0.64339,0.45023 1.26654,0.71939 2.23199,1.48267c0.59921,0.47372 1.09229,0.99197 2.08051,1.49649c0.80319,0.41006 1.7802,0.4975 2.35416,1.1875c0.54349,0.65335 0.47964,1.58517 1.08267,2.11734c0.64183,0.56644 1.45267,0.81137 2.05867,0.29068c0.61424,-0.52777 0.93491,-1.42886 1.02533,-2.09552c0.15562,-1.14737 0.55676,-1.76727 0.87866,-2.80066c0.21109,-0.67767 0.23433,-1.69891 0.55734,-2.46783c0.31454,-0.74875 1.13084,-1.4837 1.44249,-2.31067c0.32025,-0.84982 0.12151,-1.69998 0.12151,-2.60001c0,-0.89999 -0.11824,-1.70001 -0.57466,-2.36133c-0.51083,-0.74014 -0.42467,-1.54132 -0.42534,-2.53867c-0.00053,-0.79999 0.03951,-1.80402 -0.036,-2.63599c-0.08495,-0.93594 -0.32661,-1.71405 -0.53867,-2.53867c-0.27142,-1.05548 -0.39258,-1.76703 -0.42084,-2.62085c-0.03319,-1.00262 -0.0045,-1.76849 -0.0045,-2.84732l0,-0.85718l0,-0.89999l0,-0.79999" id="svg_7" stroke-width="2" stroke="#000" fill="none"/>
  <path t="20303,20318,20318,20334,20334,20334,20342,20342,20358,20373,20373,20390,20390,20390,20390,20406,20406,20406,20423,20423,20423,20423,20441,20441,20441,20441,20441,20456,20456,20456,20456,20472,20472,20489,20489,20489,20489,20505,20505,20505,20505,20505,20506,20522,20523,20523,20523,20540,20541,20541,20541,20556,20556,20557,20557,20574,20574,20574,20574,20590,20590,20590,20591,20606,20606,20606,20606,20606,20624,20624,20624,20624,20624,20639,20640,20640,20640,20656,20656,20657,20657,20674,20674,20674,20674,20691,20691,20691,20691,20705,20705,20705,20706,20724,20724,20724,20724,20740,20740,20740,20740,20756,20756,20756,20774,20774,20774,20790,20790,20790,20807,20807,20807,20823,20823,20840,20840,20856,20856,20918" d="m271,292c0.91467,5.14401 0.98248,5.93744 1,7c0.01318,0.79996 0.02942,1.61673 0.35266,2.59549c0.25192,0.76282 0.61874,1.64606 0.64734,2.60852c0.01981,0.66718 -0.01147,1.56055 0.01068,2.49332c0.0166,0.69894 0.02386,1.4295 0.27332,2.81735c0.11755,0.65405 0.39877,1.57425 0.54935,2.48532c0.14938,0.90387 0.14856,1.5433 0.25067,2.57068c0.1167,1.17422 0.19736,1.59775 0.34131,2.47998c0.1467,0.89911 0.31369,1.7785 0.45334,3.00616c0.08224,0.72293 0.1131,1.69031 0.20535,2.25519c0.2041,1.24957 0.54208,1.92499 1.08264,2.85464c0.30713,0.5282 0.86682,1.38861 1.23785,2.05219c0.6167,1.10291 0.80609,1.51898 1.19098,2.38651c0.39478,0.8898 0.57571,1.34116 0.91919,2.22665c0.47375,1.22134 0.73581,1.9556 0.96448,2.64716c0.33063,0.99991 0.61761,2.04312 0.82535,2.7735c0.21286,0.74835 0.41208,1.51086 0.86215,2.58069c0.29147,0.69281 0.66696,1.32608 1.18066,2.26215c0.49402,0.90018 0.77081,1.5036 1.15268,2.40451c0.25409,0.5994 0.81366,1.8046 1.15717,2.40451c0.35562,0.62103 0.76004,1.24527 1.34283,2.26215c0.40897,0.71362 0.80319,1.46768 1.20001,2.24402c0.40326,0.78897 0.9993,1.98953 1.19998,2.388c0.39859,0.79135 0.79108,1.57019 1.20001,2.31598c0.58722,1.07095 0.99539,1.73108 1.39999,2.3645c0.39551,0.6192 1.20407,1.81805 1.59549,2.42084c0.38788,0.59729 0.78903,1.17883 1.38318,2.40018c0.28931,0.59473 0.64005,1.53851 0.90533,2.18515c0.42688,1.04044 0.7652,1.77127 1.13684,2.51468c0.37564,0.7514 0.97314,1.83691 1.37784,2.51334c0.38495,0.64343 0.78271,1.2294 1.43466,2.32001c0.42548,0.71173 0.67004,1.18576 1.05066,1.936c0.60672,1.19592 0.94241,1.88654 1.32666,2.57999c0.38123,0.68799 0.97751,1.61661 1.38483,2.13632c0.55295,0.70551 1.27066,1.49353 1.76852,2.31433c0.3555,0.58609 0.82944,1.60547 1.15683,2.22086c0.35599,0.6691 0.95734,1.66562 1.3045,2.19382c0.51343,0.78119 1.21561,1.59888 1.633,2.2645c0.50003,0.79742 0.56699,1.6955 0.82565,2.6355l0.43201,0.68402l0.284,0.83066" id="svg_8" stroke-width="2" stroke="#000" fill="none"/>
  <path t="21999,22014,22014,22025,22041,22041,22058,22058,22074,22075,22075,22089,22089,22089,22089,22089,22106,22106,22106,22123,22123,22123,22123,22123,22139,22139,22139,22156,22156,22156,22173,22173,22173,22173,22190,22190,22190,22190,22190,22206,22206,22206,22223,22223,22223,22239,22239,22239,22239,22256,22256,22256,22256,22273,22273,22273,22289,22289,22289,22289,22306,22306,22306,22323,22323,22323,22323,22339,22339,22339,22356,22356,22356,22373,22373,22373,22389,22389,22389,22406,22406,22406,22406,22423,22423,22423,22423,22423,22440,22440,22441,22441,22441,22458,22458,22458,22473,22473,22473,22473,22489,22489,22489,22489,22489,22507,22508,22508,22508,22525,22525,22525,22525,22541,22541,22541,22541,22541,22557,22557,22558,22558,22575,22575,22575,22575,22591,22591,22591,22591,22607,22608,22608,22625,22625,22625,22674" d="m312,323c3.02802,4.85867 3.58701,5.53604 3.97467,6.39999c0.35187,0.78412 0.80972,1.49683 1.33432,2.25269c0.48978,0.70569 1.23032,1.33286 1.96301,1.74332c0.5466,0.30621 1.73679,1.09436 2.02765,1.36801c0.61044,0.57434 1.16342,1.23215 1.686,1.87799c0.87985,1.0874 1.35483,1.69226 1.87683,2.15884c0.87061,0.7782 1.50104,1.20764 2.15836,1.72c0.67941,0.52957 1.03183,0.77371 2.2085,1.79382c0.50717,0.4397 1.16064,1.08185 1.97083,1.88535c0.40384,0.40051 1.01553,1.02423 1.96649,1.79999c0.50818,0.41455 1.07916,0.79767 1.93784,1.45715c0.9061,0.69592 1.49988,1.22067 2.08484,1.76819c0.58041,0.54324 1.12277,1.09326 1.88916,1.853c0.68323,0.67731 1.07492,1.12024 1.92151,1.755c0.77991,0.58478 1.46487,0.90643 2.42151,1.48816c0.5401,0.32843 1.3898,0.88821 1.97983,1.27982c0.8996,0.59708 1.48898,1.00977 2.39865,1.56268c0.59387,0.36096 1.49835,0.81802 2.38934,1.21066c0.57373,0.25284 1.65851,0.77133 2.358,1.27802c0.69296,0.50195 1.10547,0.91876 2.138,1.46332c0.81335,0.42896 1.43948,0.59576 2.6145,1.20551c0.6069,0.31491 1.19638,0.67554 2.01483,1.27982c0.78073,0.57645 1.45593,1.1918 2.08084,1.79868c0.61102,0.59335 1.18723,1.21429 1.8045,1.76401c0.77896,0.69373 1.61081,1.194 2.19998,1.58865c0.81564,0.54636 1.42123,1.07401 2,1.70901c0.6236,0.6842 1.20169,1.50119 1.64166,2.05917c0.46503,0.58978 1.27731,1.49478 1.92767,2.07782c0.67746,0.60733 1.04431,0.88992 1.7825,1.44418c1.07126,0.80432 1.76251,1.27039 2.40149,1.72116c0.60095,0.42398 1.17224,0.81958 2.16269,1.63467c0.69269,0.57007 1.34491,1.15488 2.10565,1.58014c0.80283,0.44876 1.43414,0.66422 2.065,0.99051c1.05075,0.54349 1.7706,1.03381 2.51334,1.55151c0.75208,0.52423 1.10995,0.80496 2.1785,1.5575c0.66064,0.46527 1.28275,0.91083 2.22018,1.435c0.88553,0.49515 1.8158,0.86353 2.43732,1.14801c0.65344,0.2991 1.69012,0.87381 2.41666,1.34399c0.75241,0.48694 1.11127,0.76089 1.86334,1.22665c1.04807,0.64908 2.04782,1.10706 2.67334,1.38266c0.60916,0.2684 1.81586,0.86191 2.41068,1.22134c0.60541,0.36584 1.19626,0.77094 2.39999,1.56268c0.59818,0.39346 1.18893,0.78494 1.79999,1.116c1.17859,0.63852 1.78967,0.84848 2.64285,1.18082c1.03589,0.4035 1.71048,0.7045 2.47049,1.10449l0.84,0.57867" id="svg_9" stroke-width="2" stroke="#000" fill="none"/>
  <path t="23867,23986,23986,23994,24008,24025,24041,24041,24041,24058,24058,24058,24058,24058,24074,24074,24074,24090,24090,24090,24090,24107,24107,24107,24107,24107,24124,24124,24124,24140,24140,24140,24156,24157,24157,24174,24174,24174,24174,24190,24190,24190,24190,24207,24207,24207,24207,24224,24224,24239,24240,24240,24257,24257,24257,24274,24274,24289,24290,24290,24290,24307,24307,24307,24307,24323,24323,24339,24339,24339" d="m325,341c-0.16666,0 -0.00067,0.79999 0,1.70001c0.00067,0.89999 -0.01224,1.84845 0.16666,2.63333c0.21863,0.95932 0.46082,1.51465 0.66669,2.83331c0.11139,0.71344 0.13702,1.45898 0.19199,2.20801c0.05441,0.74167 0.25214,2.14148 0.39999,2.78934c0.14304,0.6268 0.42697,1.83383 0.522,2.745c0.06586,0.63144 0.07733,1.30869 0.27402,2.8335c0.05484,0.42523 0.20459,1.29742 0.35333,2.17084c0.14191,0.83325 0.32803,1.92029 0.38931,2.78934c0.05215,0.73984 0.02731,1.98294 0.04669,2.53333c0.03061,0.8692 0.20276,2.06577 0.34198,2.664c0.21011,0.90283 0.50009,2.09769 0.56201,2.70132c0.09406,0.91696 0.08307,1.55585 0.08533,2.92001c0.00119,0.73132 0,1.47867 0,2.22601c0,1.086 -0.01068,2.09158 0.02084,2.711c0.04355,0.85629 0.34824,2.08383 0.55383,2.767c0.28131,0.93478 0.38724,1.72647 0.41464,2.54932c0.03525,1.05817 0.01068,1.98935 0.01068,2.62085c0,1.00717 0,1.8765 0,2.93784c0,0.63599 0,1.6875 0,2.41849c0,1.08151 0,1.76151 0,2.70651c0,0.85498 0,1.85767 0,2.767l0,0.94131l0,0.78152l0,0.7905" id="svg_10" stroke-width="2" stroke="#000" fill="none"/>
  <path t="25255,25290,25306,25325,25341,25358,25375,25389,25405,25422,25422,25439,25456,25473,25493,25506,25523,25539,25556,25556,25581,25613,25630,25642,25666,25675,25689,25706,25724,25724,25739,25739,25739,25756,25756,25773,25773,25789,25806,25823,25861,25861,25982,25982,26026,26070,26102,26170,26190,26214,26282,26310,26310,26350,26378,26418,26454,26462,26474,26474,26489,26506,26526,26542,26556,26573,26573,26588,26605,26605,26622,26638,26638,26638,26655,26673,26690,26706,26707,26723,26739,26756,26774,26790,26806,26807,26830,26830,26839,26857,26882,26890,26906,26923,26939,26956,26957,26973,26973,26989,26989,26990,27006,27023,27023,27024,27040,27040,27056,27056,27073,27073,27089,27090,27090,27107,27107,27123,27139,27156,27157,27173,27189,27189,27206,27223,27224,27240,27257,27274,27274,27290,27290,27346,27390" d="m310,392c0,1.70001 0,2.70001 0,3.60001c0,0.89999 0,1.79999 0,2.69998c0,0.90002 0,1.80002 0,2.70001c0,0.79999 0.00601,1.70004 0,2.60001c-0.00534,0.80005 -0.43289,1.65118 -0.83334,2.39999c-0.42328,0.79144 -0.98093,1.33109 -1.388,2.10001c-0.40103,0.75751 -0.76791,1.5 -0.77866,2.39999c-0.01062,0.88934 -0.77481,1.43661 -0.99551,2.2045c-0.24738,0.86069 -0.1264,1.6972 -0.57916,2.39282c-0.45316,0.69623 -0.3392,1.4584 -0.59198,2.73602c-0.14258,0.72067 -0.4429,1.35651 -0.93317,2.36649c-0.37851,0.77972 -0.80661,1.62207 -0.8895,2.3895c-0.09781,0.90546 -0.01068,1.81067 -0.01068,2.71518c0,0.86215 0,1.6955 0,2.67398c0,0.82019 0,1.72153 0,2.62152c0,0.89999 -0.22592,2.19589 0.52084,2.35834c0.93732,0.20389 1.57303,-0.89746 2.47916,-0.95834c0.79819,-0.05362 1.70001,0 2.60001,0c0.89999,0 1.91492,-0.20203 2.6955,0.35718c0.68137,0.4881 0.27521,1.59634 0.78983,2.35748c0.45126,0.66742 1.52219,0.87485 1.88934,1.68533c0.35364,0.78061 1.06357,1.33395 1.82532,1.68402c0.74976,0.34454 1.39737,1.11865 2,1.71597c0.60803,0.60269 1.34918,1.23126 2.02536,1.58936c0.67465,0.35727 1.78421,0.43808 2.67465,0.6315c0.84634,0.18384 1.4874,0.89413 2.29999,0.97781c0.89529,0.09222 1.84958,-0.05157 2.25269,-0.70316c0.4762,-0.76974 1.36563,-1.09308 2.04733,-1.73834c0.5105,-0.48322 1.05515,-1.49731 1.46399,-2.14648c0.47922,-0.76093 1.16159,-1.28461 1.42532,-2.02133c0.29977,-0.83737 0.01001,-1.78934 0.01068,-2.68933c0.00067,-0.90134 0.16324,-1.86801 0.42532,-2.52536c0.40277,-1.0101 0.56424,-1.69534 0.57468,-2.71732c0.00723,-0.70798 0,-1.68933 0,-2.64749c0,-0.9765 0,-1.64584 0,-2.41116c0,-0.99869 0,-1.79868 0,-2.79868c0,-0.80002 0,-1.80002 0,-2.60001c0,-1 0,-1.79999 0,-2.60001c0,-0.99548 0,-1.91467 0,-2.87915c0,-0.93152 0,-1.84216 0,-2.6955c0,-0.94 0,-1.82535 0,-2.62534c0,-0.836 0,-1.85269 0,-2.54733c0,-1.01669 0,-1.95718 0,-2.81934c0,-0.83334 0,-1.81183 0,-2.63202l-0.08533,-0.91599l-0.74802,-0.452" id="svg_11" stroke-width="2" stroke="#000" fill="none"/>
  <path t="28863,28950,28966,28975,28975,28989,29006,29023,29023,29039,29039,29056,29056,29056,29073,29073,29089,29089,29089,29106,29106,29106,29123,29139,29139,29139,29155,29155,29172,29172,29188,29205,29205,29222,29222,29238,29318,29370,29394,29409,29409,29423,29439,29456,29456,29473,29473,29473,29489,29489,29506,29506,29523,29523,29523,29539,29539,29539,29556,29556,29573,29573,29573,29589,29589,29589,29606,29606,29623,29623,29669,29669,29717,29753,29781,29805,29838,29842,29858,29950,29978,30002,30021,30021,30039,30057,30073,30073,30089,30106,30130,30193,30226,30226,30242,30270,30290,30290,30306,30307,30322,30322,30340,30340,30340,30357,30357,30373,30373,30397,30397,30413,30473,30481,30493,30517,30533,30549,30565,30572,30590,30607,30607,30623,30639,30640,30656,30672,30689,30690,30707,30707,30723,30740,30757,30757,30773,30773,30790,30790,30807,30807,30807,30823,30823,30840,30840,30857,30857,30873,30873,30969,30989" d="m353,363c0,0.20001 0,1.10001 0,2c0,0.79999 0.00058,1.70001 0,2.52084c-0.00067,0.96448 0.0376,1.70648 -0.22134,2.67917c-0.21793,0.8186 -0.65964,1.79364 -0.74265,2.59998c-0.082,0.79657 -0.03598,1.8045 -0.03601,2.436c-0.00009,1.18533 0.03094,1.99277 -0.05716,2.81134c-0.11169,1.03799 -0.40286,1.6936 -0.65884,2.466c-0.32932,0.99362 -0.50198,2.0303 -0.70932,2.73734c-0.21848,0.74503 -0.44363,1.79059 -0.62735,2.4975c-0.23969,0.92233 -0.62228,1.59076 -0.922,2.6265c-0.27191,0.93973 -0.58075,1.60526 -0.85867,2.45868c-0.27545,0.84589 -0.85284,1.58902 -1.1095,2.46664c-0.25311,0.8656 -0.10495,1.8013 -0.05716,2.70001c0.04272,0.80338 0.68936,1.42184 0.94284,2.3045c0.28116,0.97903 0.05716,1.71634 0.05716,2.6955c0,0.79999 -0.03061,1.60062 0.00449,2.60001c0.02814,0.80124 0.30637,1.79245 0.57019,2.63599c0.28833,0.92191 0.35699,1.71832 0.45065,2.53867c0.12112,1.06119 0.35797,1.75821 0.62201,2.62085c0.30432,0.99426 0.32004,1.81693 0.51932,2.60449c0.20953,0.82816 0.6478,1.68015 0.93317,2.42117c0.30356,0.78821 0.57538,1.56104 0.81616,2.6095c0.19437,0.84637 0.5553,1.78943 0.80002,2.57065c0.24567,0.78415 0.04681,1.77469 0.28848,2.63702c0.22784,0.81293 1.2955,0.76175 2.19553,0.76166c0.89981,-0.00009 1.62711,-0.35193 2.15265,-0.94733c0.56326,-0.63815 1.3252,-1.11981 2.04733,-0.61667c0.79153,0.55151 1.30002,1.20682 2.10001,1.564c0.79999,0.35718 1.42844,1.08746 2.10001,1.564c0.72568,0.51489 1.51187,0.91537 2.04733,1.48868c0.64001,0.68521 1.35352,0.98453 2.15265,0.94733c0.91766,-0.04272 1.47675,-0.6842 2.20001,-1.33334c0.49295,-0.44244 0.97034,-1.52371 1.39999,-2.03067c0.65695,-0.77512 1.25592,-1.29266 1.92133,-2.17865c0.34177,-0.45505 0.82904,-1.22461 1.51202,-2.12399c0.51282,-0.67529 1.1669,-1.3331 1.66666,-1.83334c0.69901,-0.69968 0.94409,-1.46396 1.58401,-2.21466c0.56769,-0.66595 0.59363,-1.43915 1.13733,-2.164c0.4823,-0.64301 0.77866,-1.32135 0.77866,-2.22134c0,-0.89999 -0.44614,-1.44757 -0.91467,-2.18533c-0.43921,-0.69159 -0.01859,-1.60315 -0.09601,-2.54001c-0.08398,-1.01654 -0.67523,-1.57806 -0.93216,-2.47464c-0.24844,-0.86694 0.03568,-1.81592 -0.14249,-2.58536c-0.22549,-0.97385 -0.75,-1.60574 -0.89383,-2.59381c-0.13422,-0.92203 -0.02084,-1.84216 -0.02084,-2.6955c0,-0.94135 0,-1.70935 0,-2.67203c0,-0.61499 0,-1.83731 0,-2.65332c0,-0.81601 0,-1.81332 0,-2.65332c0,-0.96268 0,-1.73068 0,-2.68268c0,-0.76532 0,-1.75949 0,-2.50684l0,-1.02118l0,-0.93597" id="svg_12" stroke-width="2" stroke="#000" fill="none"/>
  <path t="33226,33245,33261,33273,33289,33306,33322,33323,33339,33339,33373,33389,33389,33406,33422,33439,33439,33457,33472,33472,33489,33489,33506,33506,33506,33522,33522,33539,33539,33556,33556,33572,33572,33589,33590,33606,33606,33623,33623,33623,33639,33640,33656,33657,33672,33672,33689,33689,33705,33706,33706,33722,33722,33722,33738,33738,33755,33755,33756,33772,33772,33772,33788,33789,33789,33805,33806,33806,33821,33822,33822,33839,33856,33856,33872,33872,33893,33893,34065,34066,34077,34094,34110,34126,34139,34156,34172,34172,34173,34189,34189,34190,34190,34207,34207,34207,34222,34222,34223,34223,34239,34240,34240,34256,34256,34257,34257,34272,34272,34273,34290,34290,34290,34290,34306,34306,34307,34307,34322,34323,34323,34323,34340,34340,34340,34340,34356,34357,34357,34373,34373,34373,34373,34389,34389,34389,34406,34406,34406,34406,34406,34422,34422,34422,34438,34439,34439,34456,34456,34456,34471,34471,34472,34488,34488,34505,34505,34506,34522,34522,34522,34522,34539,34539,34539,34539,34539,34555,34555,34556,34556,34571,34572,34572,34588,34589,34650,34650,34659" d="m400,285c0,-1.70001 0.39819,-2.70258 -0.03601,-3.564c-0.35226,-0.69888 -0.95755,-1.22012 -1.32117,-2.08868c-0.29993,-0.7164 -0.92856,-1.6033 -1.44281,-2.146c-0.68158,-0.71927 -1.29773,-1.30365 -1.90002,-1.90134c-0.69733,-0.69202 -1.45053,-1.0527 -2.29999,-1.46664c-0.65228,-0.31787 -1.53592,-0.78464 -2.32132,-1.05469c-0.87341,-0.30029 -1.65155,-0.71298 -2.48853,-0.77417c-0.95697,-0.06995 -1.71609,0.02078 -2.50748,-0.08981c-1.00586,-0.14056 -1.80328,-0.60236 -2.79868,-0.82935c-0.75323,-0.17178 -1.7287,-0.03345 -2.48532,-0.17065c-1.01727,-0.18448 -1.78528,-0.61469 -2.59851,-0.79333c-0.95255,-0.20926 -1.75507,-0.39331 -2.46152,-0.69601c-0.85703,-0.36722 -1.85931,-0.4137 -2.65598,-0.42398c-0.99591,-0.01285 -1.83746,0.05038 -2.79868,-0.00269c-0.77142,-0.0426 -1.70862,-0.45566 -2.28851,-0.646c-0.98059,-0.32187 -1.83145,-0.34732 -3.01682,-0.35266c-0.53134,-0.00238 -1.35333,0 -2.41202,0c-0.93066,0 -1.76532,0 -2.77115,0c-0.85266,0 -1.81702,0 -2.6315,0c-0.8685,0 -1.76419,0.01401 -2.65952,-0.00449c-0.8689,-0.01794 -1.94391,-0.14026 -2.65182,-0.34818c-0.68451,-0.20102 -1.87219,-0.54288 -2.40533,-0.59018c-0.82007,-0.07275 -1.88068,-0.05716 -2.80066,-0.05716c-0.76001,0 -1.87201,0 -2.73199,0c-0.72534,0 -1.71469,0 -2.51468,0c-1,0 -1.79056,-0.05045 -2.83334,0c-0.88309,0.04272 -1.16599,0.80133 -1.16666,1.70001c-0.00067,0.89999 0,1.79999 0,2.69998c0,0.909 -0.01105,1.9335 0.00449,2.61435c0.01843,0.80737 0.14948,1.98828 0.27951,2.58566c0.19687,0.90436 0.4072,1.49237 0.59485,2.69998c0.13916,0.89554 0.09341,1.52374 0.4545,2.70001c0.18906,0.61591 0.69354,1.48752 0.96133,2.10001c0.5152,1.17831 0.60068,1.79929 0.72,2.69998c0.15887,1.19913 0.24326,1.80646 0.50616,2.67917c0.25424,0.84387 0.70422,1.82819 0.95831,2.54169c0.26324,0.7392 0.4118,1.62088 0.49551,2.6405c0.05939,0.72333 0.06528,1.46265 0.24683,2.51733c0.17285,1.00403 0.39059,1.64624 0.57983,2.30533c0.40173,1.39911 0.59769,2.1416 0.79868,2.89066c0.19901,0.74161 0.49518,1.8053 0.69998,2.46817c0.29312,0.94867 0.49982,1.55591 0.90002,2.75717c0.19989,0.60004 0.5,1.5 0.79999,2.39999c0.29999,0.89999 0.50012,1.49997 0.79999,2.39999c0.40021,1.20126 0.6055,1.80893 0.80002,2.436c0.41165,1.32709 0.60098,2.04773 0.79999,2.78934c0.20099,0.74905 0.38766,1.49423 0.70001,2.55301c0.28864,0.97839 0.47562,1.58432 0.89999,2.655c0.28384,0.71613 0.70316,1.56061 1.10001,2.36682c0.4032,0.81912 0.7106,1.48099 1.10001,2.48251c0.30844,0.79324 0.52432,1.59064 1.00131,2.34799c0.4837,0.76801 1.26657,1.4743 1.84033,1.96933c0.62543,0.53958 1.36429,1.01498 2.21567,1.36401c0.61502,0.25214 1.3118,0.44608 2.48535,0.73615c0.86066,0.21274 1.76059,0.40869 2.65198,0.65701c0.43903,0.12228 1.67084,0.54608 2.39102,0.89551c0.68112,0.33044 1.59598,0.89529 2.51398,1.32565c0.8653,0.40564 1.67148,0.72079 2.55753,0.90018c0.88077,0.17831 1.79099,0.117 2.57349,0.03616l0.56033,-0.67633" id="svg_13" stroke-width="2" stroke="#000" fill="none"/>
  <path t="35364,35387,35387,35387,35387,35394,35395,35408,35408,35424,35439,35439,35456,35456,35472,35472,35489,35506,35522,35522,35539,35539,35556,35578,35783,35806,35842,35858,35886,35894,35910,35926,35940,35957,35957,35957,35973,35973,35990,35990,35990,36007,36007,36023,36023,36023,36023,36040,36040,36040,36057,36057,36057,36072,36073,36073,36090,36090,36090,36090,36107,36107,36123,36150" d="m352,275c14.33334,0.83334 15.83627,0.91159 16.38983,0.94733c1.07608,0.06946 1.92609,0.28735 2.78482,0.62735c0.79901,0.31635 1.63977,0.29984 2.58252,0.48248c0.93137,0.18045 1.64569,0.65063 2.44266,1.04266c0.77774,0.38257 1.62424,0.79474 2.49567,0.89569c0.89941,0.10419 1.66306,0.54636 2.47116,0.83783c0.79944,0.28833 1.79697,0.41504 2.42267,0.74133c0.8912,0.46472 1.66907,0.84503 2.41068,1.25867c0.83887,0.46786 1.33679,1.01788 1.97467,1.59198c0.57874,0.52087 1.18423,1.09271 1.74133,1.65869c0.66061,0.67111 1.15411,1.21701 1.45065,2.08264c0.23383,0.68256 0.6344,1.43481 1.13333,2.43335c0.29984,0.6001 0.82755,1.58743 1.17917,2.39999c0.25598,0.59155 0.45801,1.61026 0.57352,2.51434c0.1048,0.82022 0.29999,1.79099 0.44733,2.48566c0.14734,0.69467 0.38364,1.95654 0.47467,2.73868c0.08252,0.70898 0.24469,1.68332 0.45065,2.49731c0.21991,0.86905 0.46158,2.06311 0.522,2.664c0.09036,0.89883 0.20529,2.10294 0.33667,2.69867c0.19525,0.88531 0.43201,1.716 0.63068,2.71466l0.07465,0.84l0.01068,0.96133l0,0.88535" id="svg_14" stroke-width="2" stroke="#000" fill="none"/>
  <path t="36856,36878,36878,36878,36879,36890,36890,36907,36908,36926,36926,36926,36939,36939,36957,36957" d="m401,280c5.71384,6.5925 6.36987,7.31143 6.89584,7.89584c0.43149,0.47943 1.09183,1.29816 1.58331,2.08331c0.53082,0.84802 1.01022,1.54282 1.84216,2.121c0.6557,0.45569 1.19467,0.78519 1.92151,1.55252l0.45267,0.69464l0.60001,0.89551l0.41916,0.55585" id="svg_15" stroke-width="2" stroke="#000" fill="none"/>
  <path t="38568,38586,38594,38606,38624,38640,38641,38656,38656,38657,38657,38673,38673,38673,38689,38689,38689,38705,38705,38705,38705,38722,38722,38722,38722,38739,38739,38739,38739,38739,38739,38754,38754,38754,38755,38755,38772,38772,38772,38772,38789,38789,38789,38804,38805,38805,38805,38822,38822,38822,38838,38839,38839,38839,38854,38854,38855,38855,38872,38872,38889,38889,38889,38889,38905,38905,38905,38905,38925,38925,38939,38939,38939,38956,38956,38956,38956,38956,38973,38973,38973,38973,38990,38990,38990,39005,39005,39005,39005,39021,39022,39022,39040,39040,39040,39041,39041,39056,39057,39057,39057,39073,39073,39074,39074,39090,39090,39091,39091,39106,39106,39106,39106,39123,39123,39123,39124,39140,39140,39140,39140,39154,39154,39155,39155,39155,39173,39173,39173,39174,39190,39191,39191,39191,39206,39206,39207,39207,39223,39223,39223,39224,39238,39239,39239,39255,39255,39255,39255,39273,39273,39273,39290,39290,39290,39306,39306,39321,39321,39346,39356,39434" d="m370,158c2.36401,2.35333 3.22934,2.67143 3.87866,3.22133c0.66641,0.56436 1.18771,1.24908 1.66299,1.7995c0.74139,0.85863 1.46692,1.22905 1.97919,1.47917c0.79456,0.38795 1.79517,0.98399 2.47916,1.5c0.68399,0.51601 1.41614,0.98941 2.22534,1.37466c0.81689,0.38892 1.61777,0.77788 2.32648,1.278c0.7197,0.50786 1.18814,0.92609 2.42017,1.46468c0.69595,0.30424 1.48795,0.537 1.8942,0.69249c1.30927,0.50111 2.21933,0.95526 2.68649,1.19551c0.95038,0.48875 1.41455,0.75877 2.36331,1.22665c0.91043,0.44897 1.79443,0.80676 2.63736,1.10667c0.7973,0.28368 1.57831,0.50195 2.625,0.98283c0.67285,0.30913 1.29999,0.67093 2.13498,1.27983c0.78503,0.57245 1.43903,1.21651 2.13934,1.7415c0.69312,0.51959 1.50281,0.89845 2.32199,1.2825c0.54324,0.25467 1.56012,0.83896 2.22534,1.41634c0.46634,0.40475 1.42133,1.37967 1.95267,1.911c0.54733,0.54733 1.09415,1.0952 1.88068,1.88066c0.48099,0.48033 1.12259,1.15205 1.76532,1.68001c0.77478,0.63644 1.62686,1.07608 2.40134,1.65334c0.62643,0.46692 1.23816,1.07779 1.68533,1.51999c1.00223,0.99109 1.52933,1.52798 2.05334,2.052c0.49197,0.49199 1.29196,1.29205 1.87598,1.87601c0.70712,0.70705 1.23184,1.24385 1.90417,1.847c0.80185,0.71936 1.44806,1.22374 2.13184,1.76366c0.69754,0.55078 1.05746,0.80565 2.01599,1.608c0.8309,0.69553 1.29651,1.14091 1.93066,1.76534c0.80887,0.79643 1.41357,1.41243 1.80267,1.85851c0.82358,0.94414 1.19922,1.49608 1.60001,2.04283c0.59882,0.81688 1.19431,1.58392 1.81067,2.28534c0.42136,0.47951 1.35959,1.54507 1.87332,2.18266c0.27057,0.3358 0.81161,1.03548 1.36334,1.72667c0.77985,0.97696 1.26733,1.536 1.93182,2.2845c0.41635,0.46899 1.22739,1.43752 1.62085,1.978c0.4068,0.55878 1.0025,1.4425 1.59982,2.34283c0.39734,0.59889 0.80692,1.18414 1.31485,2.09999c0.49112,0.8855 0.8566,1.80142 1.11066,2.40001c0.25528,0.60144 0.85464,1.80443 1.21066,2.41066c0.36917,0.6286 0.78113,1.2657 1.36383,2.31084c0.40677,0.72958 0.79712,1.49132 1.14301,2.283c0.51736,1.18413 0.77518,1.9935 1.03183,2.78484c0.12634,0.38951 0.31714,1.17911 0.94666,2.58916c0.30264,0.6779 0.68811,1.29546 1.026,1.91701c0.6496,1.19492 0.90317,1.80772 1.15268,2.42532c0.38889,0.96255 0.81781,2.00211 1.15268,2.73184c0.34372,0.74899 0.71021,1.48784 1.18066,2.58066c0.29099,0.67592 0.52515,1.3221 0.86215,2.205c0.39813,1.04301 0.70963,1.74969 1.06168,2.4715c0.40317,0.82661 0.72684,1.45818 1.24283,2.49017c0.34732,0.69467 0.83334,1.66667 1.11465,2.22934c0.47464,0.94934 0.88535,1.77068 1.28534,2.57066c0.30002,0.59999 0.78171,1.60851 1.10001,2.17915c0.56775,1.01788 1.064,1.61017 1.46399,2.42084l0.0405,0.89551l0.43152,0.66849" id="svg_16" stroke-width="2" stroke="#000" fill="none"/>
  <path t="41971,41986,41986,41986,41994,42006,42007,42025,42025,42025,42041,42041,42056,42057,42057,42074,42074,42074,42091,42107,42107,42107,42124,42124,42140,42140,42156,42156,42156,42173,42173,42190,42190,42206,42206,42223,42223,42240,42256,42256,42256,42273,42273,42273,42290,42290,42305,42305,42323,42323,42340,42340,42340,42356,42356,42373,42373,42373,42389,42389,42389,42390,42406,42406,42425,42426,42441,42466,42487,42517,42545,42561,42577,42613,42645,42657,42673,42673,42894,42930,42942,42958,42973,42989,42989,43006,43022,43022,43039,43039,43039,43056,43056,43056,43073,43073,43089,43105,43122,43139,43139,43156,43156,43173,43173,43189,43205,43205,43222,43222,43239,43239,43255,43255,43272,43272,43289,43289,43305,43305,43322,43322,43339,43339,43339,43339,43355,43355,43372,43372,43373,43389,43389,43405,43405,43405,43422,43422,43439,43439,43455,43455,43455,43472,43472,43489,43489,43489,43505,43505,43505,43522,43522,43522,43539,43539,43539,43555,43555,43555,43572,43572,43589,43589,43589,43605,43605,43622,43641,43641,43665,43934,43950,43966,43978,43993,44009,44033,44158" d="m464,267c3.944,-5.14267 4.26865,-5.69598 4.79599,-6.51068c0.483,-0.74615 1.23666,-1.45984 1.70401,-2.01016c0.64764,-0.76263 1.00269,-1.49863 1.29999,-2.08047c0.50912,-0.99635 0.7879,-1.63339 1.52133,-2.59868c0.47409,-0.62395 1.06216,-1.17274 1.65717,-1.99983c0.41135,-0.57179 0.80389,-1.32646 1.42151,-2.17484c0.58481,-0.8033 0.96823,-1.47006 1.39999,-2.14134c0.57001,-0.8862 1.09528,-1.35826 1.85269,-2.14116c0.52899,-0.5468 1.19803,-1.33125 1.59015,-1.93834c0.47406,-0.73395 1.01224,-1.70409 1.64252,-2.20316c0.72156,-0.57133 1.52081,-0.89809 2.31448,-1.30135c0.78094,-0.3968 1.60541,-0.94038 2.27933,-1.37917c0.79517,-0.51775 1.70639,-0.64606 2.35684,-0.9675c0.79141,-0.39111 1.57315,-1.02577 2.14316,-1.55333c0.54578,-0.50514 1.36676,-1.40015 1.90485,-1.79866c0.89764,-0.66479 1.63495,-0.99701 2.36783,-1.50134c0.72043,-0.49576 1.52448,-0.88297 2.24817,-1.22083c0.74097,-0.34592 1.50726,-0.98616 2.15067,-1.65384c0.65823,-0.68309 1.36362,-1.06367 2.13467,-1.45067c1.05423,-0.52911 1.53827,-0.84737 2.19382,-1.37466c0.62823,-0.50533 1.61856,-1.23921 2.18484,-1.58934c0.81757,-0.50548 1.27866,-1.2285 1.86133,-1.97466c0.48685,-0.62344 1.25989,-1.11441 1.89066,-1.72c0.57288,-0.55 1.14426,-1.15689 1.65866,-1.74133c0.54871,-0.62344 0.99902,-1.43773 1.37268,-2.27467c0.34473,-0.77216 0.42004,-1.74777 1.10535,-2.34283c0.60675,-0.52686 1.45453,0.25183 1.89014,1c0.42511,0.73012 0.37372,1.68446 0.77319,2.44284c0.41541,0.78868 0.60291,1.67421 0.85864,2.44667c0.30035,0.90726 0.38727,1.70514 0.41467,2.528c0.03528,1.05812 0.01068,1.98933 0.01068,2.62082c0,1.00317 0,1.94734 0,2.84734c0,0.95717 0,1.85718 0,2.75717c0,0.75717 0.00049,1.65717 0,2.4045c-0.00067,0.99417 0.15533,2.04059 -0.35718,2.83383c-0.47534,0.73572 -1.42596,0.79904 -1.94281,1.47601c-0.48645,0.63715 -0.8739,1.69856 -1.29999,2.44966c-0.47162,0.83141 -1.03192,1.43947 -1.5,2.15733c-0.43024,0.65991 -1.00616,1.65265 -1.40002,2.17867c-0.60965,0.81421 -0.9422,1.53754 -1.5,2.33333c-0.49304,0.70338 -1.3342,1.33218 -2.00534,1.82384c-0.49527,0.36281 -1.29468,0.88161 -2.02399,1.74283c-0.47668,0.5629 -0.96332,1.60378 -1.27066,2.19551c-0.39072,0.75224 -0.88162,1.53825 -1.45718,2.15717c-0.70215,0.75505 -1.29153,1.22023 -1.67349,1.84865c-0.57098,0.93942 -0.54849,1.81757 -0.85468,2.80002c-0.26654,0.85526 -0.72583,1.7612 -1.01016,2.54684c-0.19119,0.52832 -0.54175,1.71768 -0.67917,2.40115c-0.1976,0.98288 -0.36713,1.66568 -0.63599,2.436c-0.36841,1.05554 -0.67963,1.76212 -1.08936,2.61017c-0.39093,0.80917 -0.8085,1.63226 -1.18533,2.28983c-0.57858,1.00961 -0.96161,1.52216 -1.40482,2.362c-0.40674,0.77078 -0.61655,1.72281 -0.79251,2.55133c-0.17172,0.80853 -0.53067,1.60004 -1.01715,2.60135c-0.29114,0.59921 -0.65964,1.39056 -0.8475,2.39548c-0.1387,0.74188 -0.47952,1.77676 -1.05267,2.40451c-0.55524,0.60812 -0.71478,1.44717 -1.00449,2.2955c-0.27835,0.81509 -0.65176,1.39474 -1.01636,2.18365c-0.35632,0.77103 -1.03183,1.22534 -1.47916,2.02084l-0.44284,0.79099" id="svg_17" stroke-width="2" stroke="#000" fill="none"/>
  <path t="44876,44993,44997,45021,45029,45038,45054,45054,45071,45088,45088,45104,45105,45121,45121,45121,45139,45139,45139,45155,45155,45171,45171,45188,45188,45188,45204,45204,45221,45221,45221,45238,45238,45254,45254,45254,45271,45271,45288,45288,45304,45304,45321,45321,45338,45338,45354,45354,45371,45371,45371,45388,45404,45404,45404,45421,45421,45438,45438,45438,45454,45454,45471,45471,45471,45488,45488,45504,45504,45521,45538,45538,45554,45554,45571,45588,45604,45629,45657,45671,45834,45877,45897,45921,45945,45973,45974,45990,46013,46013,46033,46041,46055,46074,46091,46107,46107,46107,46124,46124,46141,46141,46157,46157,46174,46174,46191,46206,46206,46224,46224,46224,46239,46239,46239,46239,46255,46255,46272,46272,46272,46289,46289,46289,46305,46322,46322,46339,46409,46418" d="m483,280c0,1.79999 0.20328,2.47391 0.83334,3.16666c0.54559,0.59985 0.98056,1.25723 1.452,2.03336c0.41083,0.67636 1.12683,1.18802 1.81467,1.90015c0.50916,0.52713 1.08261,1.3967 1.53598,2.1105c0.50995,0.80289 1.02487,1.38232 1.53867,1.98935c0.66949,0.79099 1.2005,1.59396 1.52084,2.19998c0.52289,0.9892 0.74863,1.6149 1.40451,2.57867c0.36969,0.54324 0.99347,1.34689 1.42084,2.04218c0.35892,0.58395 0.96783,1.37515 1.47916,1.97916c0.84106,0.9935 1.29007,1.57556 1.55334,2.20001c0.40851,0.96899 0.36746,1.81647 0.61331,2.79999c0.20471,0.81891 0.62726,1.60376 1.03336,2.39868c0.39285,0.76901 0.9783,1.5303 1.36398,2.22665c0.44962,0.81183 0.36484,1.7739 0.79318,2.62201c0.34998,0.6929 0.95255,1.40469 1.34283,2.15717c0.51291,0.98889 0.80148,1.59473 1.29999,2.59549c0.29639,0.59503 0.67191,1.33392 0.97467,2.37466c0.27332,0.93954 0.54242,1.64801 0.82666,2.22665c0.49216,1.00189 0.89868,1.79868 1.29868,2.59869c0.39999,0.79999 0.69998,1.39999 1.19998,2.39999c0.30002,0.60001 0.82755,1.58743 1.17917,2.39999c0.25598,0.59155 0.42963,1.60602 0.57352,2.39999c0.1828,1.0087 0.5549,1.75284 0.86331,2.71466c0.28098,0.87619 0.74646,1.48767 1.28268,2.36935c0.40601,0.66754 0.67126,1.63611 0.80133,2.51599c0.12427,0.84073 0.79272,1.23773 1.00018,2.09982c0.20221,0.84012 0.71729,1.3002 1.00433,2.19568c0.2439,0.76086 0.87842,1.29053 1.35266,2.00449c0.52588,0.79166 1.2489,1.27979 1.61749,2.10001c0.35175,0.78281 0.75061,1.48825 1.52533,2.07916c0.73389,0.55978 1.37524,1.0607 2.02081,1.52084c0.70135,0.49988 1.64172,1.0069 2.3045,1.39999c0.68646,0.40717 1.39972,0.92972 2.05865,1.39999c0.74945,0.53491 1.51569,0.90976 2.51471,1.39868c0.76172,0.37277 1.61609,0.56863 2.39996,0.88535c0.77271,0.31219 1.68555,0.86349 2.448,0.9053c0.9187,0.05035 1.71051,0.01068 2.56403,0.01068c1.18933,0 1.78802,0 2.66852,0c0.83545,0 1.83679,0 2.74615,0c0.94135,0 1.72729,0 2.54932,0c1.05865,0 1.9787,0 2.73865,0c0.98669,0 1.96936,0.00134 2.77686,0.05716l0.68903,0.44284l0.66815,0.43832l0.43665,-0.73965" id="svg_18" stroke-width="2" stroke="#000" fill="none"/>
  <path t="47935,47946,47946,47946,47946,47956,47956,47974,47974,47990,47990,47990,48007,48007,48007,48007,48024,48024,48024,48024,48024,48038,48038,48038,48038,48055,48055,48055,48073,48073,48073,48088,48088,48088,48105,48105,48122,48122,48122,48122,48138,48138,48138,48155,48155,48172,48172,48172,48172,48188,48188,48205,48205,48205,48205,48222,48222,48222,48222,48238,48238,48238,48255,48255,48255,48272,48272,48272,48288,48288,48288,48305,48305,48305,48322,48322,48322,48322,48322,48338,48338,48338,48355,48355,48372,48372,48417,48426,48438,48438" d="m411,397c4.17816,4.83533 4.8241,5.43619 5.4375,5.91666c0.77844,0.60974 1.52286,1.30963 2.31067,1.72168c0.85205,0.44565 1.69711,0.38721 2.452,0.8045c0.87851,0.48563 1.21729,0.97479 2.22168,1.53583c0.80719,0.4509 1.46063,0.64719 2.15015,0.90533c1.17035,0.43817 2.03342,0.76849 2.47867,0.94135c0.89883,0.34894 1.77878,0.69745 3.00616,1.15314c0.72284,0.26837 1.38556,0.48761 2.25519,0.82019c1.00989,0.38623 1.68317,0.71259 2.37198,1.00131c0.99332,0.41635 1.81799,0.69464 2.36334,0.90002c1.03503,0.38983 1.93311,0.79733 2.55133,1.09998c1.01248,0.49567 1.66235,0.83044 2.73468,1.20001c0.62872,0.21667 1.31192,0.41269 2.36133,0.64282c0.9675,0.21216 1.7981,0.25525 2.69632,0.40985c1.02145,0.17581 1.60947,0.52777 2.77567,0.78067c0.77618,0.16833 1.61203,0.16245 2.14935,0.25067c1.2489,0.20508 1.93671,0.55118 3.01733,0.91599c0.63129,0.2131 1.32364,0.40851 2.052,0.564c1.44037,0.30746 2.12711,0.36389 2.76797,0.39999c0.88416,0.0498 1.9267,0.00323 2.84668,0.05685c0.68585,0.03998 1.68402,0.26834 2.52084,0.47916c0.87912,0.22147 1.77686,0.40472 2.66849,0.46399c0.8522,0.05664 1.88934,0.03601 2.81067,0.03601c0.68399,0 1.68799,0 2.5625,0c0.65634,0 1.77084,0 2.60416,0c0.87335,0 1.74667,0 2.58002,0c1.08884,0 1.94531,0 2.84933,0c1.004,0 1.80399,0 2.80267,0c0.76532,0 1.71597,0 2.60132,0l0.83334,-0.16666l0.25067,-0.72" id="svg_19" stroke-width="2" stroke="#000" fill="none"/>
  <path t="49874,49974,49979,49991,50007,50023,50039,50039,50054,50071,50087,50087,50113,50113,50129,50137,50157,50171,50189,50205,50221,50237,50237,50254,50254,50254,50271,50271,50287,50287,50304,50321,50337,50354,50371,50371,50387,50404,50453,50457,50497,50533,50549,50565,50566,50578,50590,50606,50623,50639,50655,50656,50673,50673,50688,50688,50706,50706,50723,50723,50738,50738,50755,50773,50788,50805,50822,50838,50855,50855,50873,50889,50889,50906,50906,50923,50923,50938,50939,50939,50955,50956,50977,50988,51005,51006,51023,51023,51038,51055,51056,51073,51073,51089,51125,51141,51141,51157,51177,51177,51193,51209,51222,51238,51257,51257,51272,51273,51288,51306,51306,51322,51323,51339,51339,51357,51357,51358,51373,51373,51388,51389,51405,51405,51422,51423,51423,51438,51438,51455,51473,51473,51488,51505,51505,51537" d="m553,354c-1.59998,0.57468 -2.42517,1.05667 -3.02533,1.57468c-0.62872,0.54266 -1.40045,0.83517 -2.07452,1.52533c-0.56543,0.57892 -0.81775,1.56519 -1.33612,2.29999c-0.47467,0.67291 -1.164,1.20001 -1.86401,1.89999c-0.5,0.5 -1.14722,1.21973 -1.64734,1.99551c-0.45001,0.69806 -0.9939,1.46393 -1.7572,1.70001c-0.85632,0.26486 -1.65332,0.54825 -2.46216,0.83783c-0.81934,0.29333 -1.83887,0.31671 -2.6333,0.59198c-0.60455,0.20947 -1.60919,0.43304 -2.36401,0.60001c-1.10498,0.24438 -1.71387,0.71378 -2.65063,0.94934c-0.84705,0.21301 -1.40985,0.88397 -2.28534,1.02548c-0.90356,0.14606 -1.49451,0.58636 -2.40002,0.99985c-0.79529,0.36313 -1.66241,0.58136 -2.37866,1.22134c-0.59973,0.53586 -1.01508,1.25266 -1.40533,1.97867c-0.45947,0.85477 -0.71533,1.59998 -0.716,2.5c-0.00067,0.89999 0,1.79999 0,2.69998c0,0.90451 0,1.76666 0,2.60001c0,0.97867 0,1.75266 0,2.65717c0,0.74734 -0.0545,1.74722 0.03601,2.54285c0.11493,1.01031 0.5658,1.74631 0.84247,2.77847c0.18811,0.70172 -0.02448,1.74426 0.5575,2.41086c0.60956,0.69818 1.37445,1.1012 2,1.58533c0.74579,0.57721 1.55145,0.94025 2.36401,1.02399c0.8316,0.08569 1.85718,0.00134 2.60449,0.00134c0.99554,0 1.79553,0 2.79553,0c0.79999,0 1.79999,0 2.59998,0c0.79999,0 1.80988,0.09769 2.54285,-0.05716c1.06207,-0.22437 1.75104,-0.88196 2.65717,-0.94284c0.75543,-0.05075 1.67273,0.11673 2.51599,-0.08533c0.89813,-0.21521 1.80829,-0.77792 2.48401,-0.91467c0.98328,-0.19901 1.69672,-0.64462 2.5,-1c0.80121,-0.35446 1.58936,-0.92709 2.06403,-1.60001c0.51837,-0.7348 0.70386,-1.61551 1.2373,-2.19998c0.65692,-0.71973 1.08728,-1.54089 1.62402,-2.17468c0.52173,-0.61603 0.87659,-1.50204 1.14929,-2.19998c0.36426,-0.93225 0.42468,-1.70935 0.42535,-2.6507c0.00073,-1.008 -0.00684,-1.81351 0.284,-2.65997c0.25391,-0.73901 0.63635,-1.71054 0.69519,-2.51468c0.073,-0.99756 0.02081,-1.79999 0.02081,-2.60001c0,-1 0,-1.79999 0,-2.79999c0,-0.80002 0,-1.80002 0,-2.60001c0,-1 0,-1.79999 0,-2.60001c0,-0.99548 0,-1.74283 0,-2.77466c0,-0.94666 0,-1.62534 0,-2.73999l0,-0.88535l0,-0.79999l0,-0.90002" id="svg_20" stroke-width="2" stroke="#000" fill="none"/>
  <path t="52739,52762,52762,52762,52762,52778,52790,52807,52807,52824,52824,52839,52839,52857,52874,52891,52907,52907,52924,52924,52939,52958,52973,52989,53006,53007,53024,53024,53040,53040,53078,53079,53139,53139,53158" d="m496,400c7.69217,0 8.60516,0 9.35416,0c0.8685,0 1.97385,0 2.84586,0c0.90015,0 1.68533,0 2.63599,0c0.76532,0 1.75952,0 2.67865,0c0.84937,0 1.78534,0 2.68671,0c0.96533,0 1.79907,0.02759 2.63196,0c0.86359,-0.02859 1.58923,-0.68552 2.46667,-0.94284c0.8642,-0.25345 1.51898,-0.60489 2.26935,-0.97314c0.71307,-0.34998 1.67004,-0.45282 2.31464,-0.88535c0.76404,-0.51263 1.51685,-0.90607 2.51471,-1.39734c0.57843,-0.28479 1.57983,-0.67984 2.39996,-0.79999l0.84418,-0.0585" id="svg_21" stroke-width="2" stroke="#000" fill="none"/>
  <path t="53999,54014,54014,54014,54014,54030,54039,54040,54057,54072,54072,54088,54088,54106,54106,54122,54122,54138,54139,54156,54156,54172,54188,54205,54205,54222,54222,54239,54255,54272,54288,54306,54323,54354,54373,54388,54414,54426,54426,54442,54455,54472,54488,54505,54522,54522,54538,54538,54556,54556,54572,54622" d="m489,419c12.74182,-2.6355 13.37204,-2.7627 14.35733,-2.892c0.67712,-0.08887 1.75858,-0.06097 2.64267,-0.108c0.80338,-0.04272 1.47107,-0.63138 2.3215,-0.87851c0.86044,-0.25003 1.88297,-0.05499 2.65765,-0.14233c1.013,-0.1142 1.61288,-0.65396 2.5062,-0.89514c0.70819,-0.19119 1.71716,-0.29803 2.49384,-0.58401c1.00287,-0.36923 1.71631,-0.55267 2.52081,-1c0.8045,-0.44733 1.66669,-0.66666 2.5,-1c0.83331,-0.33334 1.70789,-0.53018 2.40002,-0.92532c0.81403,-0.46469 1.4104,-1.06522 2.03595,-1.54935c0.74579,-0.57721 1.8642,-0.48007 2.4425,-1.24683c0.53394,-0.70792 0.51935,-1.46179 1.06885,-2.13568c0.57355,-0.7034 0.88501,-1.41464 1.04816,-2.34283c0.14972,-0.85187 0.69043,-1.40024 1.0885,-2.10132c0.40686,-0.71655 1.1568,-1.36588 1.61603,-1.95584c0.66211,-0.85062 1,-1.59015 1.5,-2.35748l0.59998,-0.68402l0.58936,-0.60132l0.52533,-0.80002" id="svg_22" stroke-width="2" stroke="#000" fill="none"/>
  <path t="55987,56010,56010,56018,56038,56057,56057,56073,56090,56106" d="m461,345c-1.88568,5.07132 -1.99866,5.79468 -2,6.70001c-0.00137,0.93597 0,1.784 0,2.64731l0,1.01669l0,0.836l0,0.89999" id="svg_23" stroke-width="2" stroke="#000" fill="none"/>
  <path t="57967,57974,57974,57974,57974,57974,57974,57975,57990,57990,57990,58007,58023,58058,58086,58118,58134,58134,58147,58157,58172,58188,58188,58205,58206,58230,58230,58254,58274,58298" d="m542,377c-1.99219,-0.21432 -2.55927,-0.06787 -3.17853,0.11966c-1.34668,0.40781 -2.03076,0.64728 -2.70465,0.884c-0.64746,0.22745 -1.80536,0.61572 -2.95947,1.17749c-0.6861,0.33395 -1.7312,0.52444 -2.12134,1.25485c-0.40741,0.76273 -0.1181,1.76779 -0.03583,2.664c0.08368,0.91144 0.6554,1.69778 1.49982,1.87915c0.88019,0.18906 1.8045,0.02084 2.66669,0.02084c0.85413,0 1.83331,0 2.62262,0c1.04401,0 1.80005,0 2.71069,0l0.90002,0l0.89996,0" id="svg_24" stroke-width="2" stroke="#000" fill="none"/>
 </g>
 <g display="none">
  <title>muse_image</title>
  <image xlink:href="http://farm1.static.flickr.com/44/169019413_c23a98d737.jpg" id="muse" height="480" width="623" y="0" x="8.5"/>
 </g>
 <g display="none">
  <title>bbox</title>
  <rect stroke="#f00" fill="none" stroke-width="3" height="382.75325" width="469.742" y="36.15584" x="48.372" id="bbox"/>
 </g>
</svg>
