<svg width="640" height="480" xmlns="http://www.w3.org/2000/svg" xmlns:svg="http://www.w3.org/2000/svg" xmlns:xlink="http://www.w3.org/1999/xlink">
 <!-- Sketchy ANNOTATION
  ImageNet ID: n02395406_19194
  URL: http://farm3.static.flickr.com/2250/1601761565_4ef79a4c73.jpg
  Image Width: 500
  Image Height: 306
  BBox X: 42
  BBox Y: 31
  BBox Width: 408
  BBox Height: 251
  Exposure: 2000ms
  Synset Label: pig
  Synset ID: n02395406
  Worker Tag: Pig
  Sanity Check: 
   Context
   Saved
   Shading
  Comment: 
   {}
  Worker ID: AIH9VLD92GHFH
  Assignment ID: 31QTRG6Q2TD5XXUTHPTYWR7ENPKPYZ
  HIT ID: 3UEDKCTP9VQJK23IRMTOYD6XPMJ7KV
  Work Time: 124s
  Worker Score: 0.9286
 END ANNOTATION -->
 <g display="inline">
  <title>Layer 1</title>
  <path t="0,163,177,192,192,211,225,226,242,243,274,274,292,309,309,325,342,346,358,359,375,391,392,409,409,424,442,459,475,508,525,541,558,559,575,592,611,611,625,626,642,674,692,709,725,758,791,874,891,910,926,958,975,991,1041,1041,1059,1075,1091,1108,1124,1141,1159,1175,1208,1225,1242,1258,1275,1275,1291,1309,1325,1325,1343,1358,1375,1391,1392,1409,1425,1426,1443,1459,1460,1475,1475,1491,1508,1525,1541,1542,1574,1574,1591,1608,1609,1625,1641,1659,1674,1675,1692,1708,1709,1725,1725,1741,1742,1742,1758,1759,1775,1776,1791,1792,1808,1809,1825,1825,1825,1841,1841,1859,1859,1859,1875,1875,1891,1892,1893,1911,1911,1925,1925,1925,1941,1941,1958,1959,1975,1991,1991,2008,2009,2025,2042,2058,2059,2075,2091,2092,2108,2125,2158,2174,2191,2192,2208,2225,2258,2274,2275,2291,2308,2341,2341,2358,2391,2441,2441,2474,2491,2508,2524,2541,2558,2574,2591,2608,2625,2641,2658,2674,2691,2708,2741,2759,2791,2824,2841,2858,2891,2908,2974,3008,3024,3041,3058,3091,3108,3109,3124,3141,3174,3191,3224,3241,3258,3274,3291,3308,3309,3324,3358,3375,3391,3409,3424,3441,3474,3491,3508,3509,3540,3574,3591,3608,3640,3641,3658,3675,3691,3708,3724,3725,3741,3759,3774,3791,3791,3808,3824,3874,3908,3940,3941,3958,3974,3991,4008,4024,4057,4059,4090,4124,4274,4393,4440,4441,4541,4690,4808,4873,4924,4957,5107,5173,5223,5241,5274,5307,5324,5325,5374,5391,5408,5408,5425,5441,5441,5458,5458,5490,5508,5508,5540,5558,5558,5574,5607,5624,5625,5641,5677,5691,5691,5708,5724,5757,5774,5775,5791,5808,5847,5847,5857,5890,5908,5908,5924,5925,5958,5974,5975,5991,6008,6024,6041,6058,6058,6090,6091,6108,6124,6141,6158,6174,6191,6191,6208,6225,6241,6241,6258,6274,6291,6291,6308,6324,6341,6358,6390,6391,6408,6424,6441,6441,6458,6474,6491,6508,6524,6541,6541,6573,6591,6623,6641,6658,6675,6691,6708,6740,6790,6823,6857,6890,6891,6957,6990,7023,7041,7207,7323,7393,7423,7457,7490,7508,7540,7573,7591,7623,7641,7658,7674,7691,7724,7725,7741,7757,7774,7791,7823,7824,7841,7858,7858,7874,7891,7908,7924,7925,7941,7941,7958,7974,7991,8008,8008,8024,8041,8041,8073,8091,8091,8108,8124,8141,8158,8174,8175,8191,8208,8209,8224,8241,8258,8274,8275,8291,8308,8308,8324,8325,8357,8358,8374,8392,8408,8408,8424,8441,8458,8458,8474,8491,8508,8509,8524,8525,8541,8558,8574,8574,8591,8608,8625,8625,8641,8673,8674,8707,8724,8741,8758,8758,8774,8791,8824,8857,8874,8891,8908,8940,8958,8974,8990,9073,9091,9123,9157,9190,9240,9241,9273,9308,9340,9373,9374,9391,9409,9424,9425,9441,9458,9475,9475,9490,9508,9508,9524,9524,9525,9541,9542,9558,9558,9574,9575,9591,9592,9611,9611,9634,9656,9657,9674,9675,9675,9691,9691,9707,9725,9741,9773" d="m179,204c-2.364,2.35333 -3.32945,2.63284 -3.83333,3.33333c-0.48952,0.68053 -0.64557,1.52306 -1.36801,1.95201c-0.73671,0.43742 -1.46376,0.97997 -2.22932,1.42932c-0.81,0.47543 -1.45805,0.84332 -2.26933,1.39517c-0.69897,0.47546 -1.10034,1.32176 -1.8,1.89017c-0.70033,0.56892 -1.0376,1.22873 -1.7,2.11467c-0.45892,0.6138 -1.2,1.28532 -1.8,1.88533c-0.60001,0.60001 -1.30379,1.29625 -1.8,1.8c-0.68443,0.69485 -1.1006,1.53091 -1.62534,2.17467c-0.52026,0.63828 -1.00471,1.33334 -1.45332,2.12517c-0.41945,0.74037 -1.25934,0.93561 -1.76418,1.60466c-0.56664,0.75096 -1.05725,1.27333 -1.65717,2.00534c-0.47946,0.58504 -0.90533,1.65421 -1.5,2.00349c-0.82616,0.48526 -0.80641,0.99886 -1.23599,1.85066c-0.35243,0.69882 -0.87817,1.3885 -1.57468,2c-0.65784,0.57755 -1.31267,0.77443 -1.81467,1.41068c-0.52557,0.66614 -1.06342,1.21094 -1.74133,1.85866c-0.63222,0.60406 -1.27596,0.9129 -2.05482,1.38817c-0.58308,0.35579 -1.18709,1.16612 -1.6945,1.97717c-0.45883,0.7334 -1.56361,0.47598 -2.02684,1.15849c-0.47366,0.69789 -0.14098,1.72835 -0.76166,2.34734c-0.59407,0.59245 -1.66132,0.83803 -2.174,1.517c-0.53442,0.70776 -0.09615,1.7789 -0.12151,2.57851c-0.02859,0.90135 -0.50992,1.74368 -1.32117,2.3c-0.63506,0.4355 -1.14429,1.06047 -1.8455,1.73332c-0.58513,0.56146 -1.02419,1.29269 -1.53783,1.86667c-0.65804,0.73532 -1.29646,1.29904 -1.89551,1.90001c-0.69662,0.69885 -1.21547,1.4054 -1.45267,2.15717c-0.28333,0.89795 -0.69852,1.48383 -1.4265,2.22198c-0.58626,0.59445 -0.94762,1.42963 -1.52083,2.02084c-0.63281,0.65268 -1.47401,1.16931 -2,1.52084c-0.89209,0.59619 -1.23029,1.43948 -1.64733,2.17917c-0.42003,0.745 -1.16554,1.29318 -1.34817,2.06165c-0.20498,0.86252 -0.07922,1.67889 -0.709,2.34369c-0.58578,0.61835 -1.00987,1.29654 -1.49417,2.29465c-0.28914,0.59589 -0.6823,1.59366 -0.76533,2.39999c-0.08202,0.79657 0.16042,1.85663 -0.20667,2.71469c-0.3578,0.83633 -1.2468,1.17316 -1.80766,1.80664c-0.55104,0.62238 -0.95539,1.65158 -1.01717,2.48853c-0.07053,0.9556 0.07639,1.72275 -0.17517,2.42215c-0.37286,1.03662 -1.26769,1.47772 -2.029,2.08951c-0.60377,0.4852 -1.2275,1.01773 -1.631,2.07849c-0.29185,0.76727 -0.29493,1.61502 -0.60533,2.39999c-0.32341,0.81787 -0.764,1.60001 -1.164,2.40002c-0.5,1 -0.79974,1.6001 -1.2,2.39999c-0.39973,0.7988 -0.7608,1.58939 -1.29983,2.37848c-0.50732,0.74268 -0.83772,1.56232 -1.12167,2.34283c-0.32064,0.88138 -0.94271,1.61322 -1.34251,2.26801c-0.52615,0.86172 -0.78575,1.71753 -1.436,2.41068c-0.47382,0.50507 -0.83091,1.3526 -1.284,2.20001c-0.34859,0.65198 -0.74108,1.51651 -1.216,2.27914c-0.47312,0.75977 -0.31673,1.67511 -0.66666,2.52084c-0.32466,0.78464 -0.90134,1.41556 -1.408,2.02533c-0.56103,0.6752 -0.80475,1.61661 -1.07266,2.32199c-0.33382,0.87891 -0.87821,1.40964 -1.57401,1.87418c-0.63387,0.42322 -0.7381,1.54004 -1.27866,2.25766c-0.57619,0.76492 -1.11877,1.23795 -1.52533,2.12085c-0.37411,0.81241 -0.73641,1.70181 -1.25867,2.31598c-0.55592,0.65378 -1.29335,1.02521 -1.74133,1.69467c-0.49213,0.73544 -0.59546,1.87814 -1.33184,2.33218c-0.71801,0.44272 -1.45348,0.48291 -1.92683,1.25583c-0.47172,0.77026 -0.72375,1.58218 -1.51733,1.79999c-0.88473,0.2428 -1.46801,0.69675 -2.11467,1.28534c-0.63464,0.57764 -0.72585,1.29208 -1.09467,2.14133c-0.31773,0.7316 -0.98933,1.01068 -0.98933,1.97467c0,0.89999 -0.23924,1.97113 0.35267,2.54285c0.50702,0.48972 0.7385,1.31366 1.44866,1.77182c0.70969,0.45786 1.75839,-0.02457 2.58801,0.29602c0.79291,0.3064 1.34371,0.79739 2.21066,1.02533c0.85581,0.22501 1.00802,1.26944 1.68533,1.87997c0.64623,0.58249 1.48429,0.91467 2.31467,1.07333c0.94798,0.18115 1.39429,0.82877 2.20133,1.00934c0.87698,0.19623 1.58804,0.21707 2.28267,0.71735c0.71373,0.51404 1.41218,0.83047 2.116,1.48267c0.58047,0.53787 1.52236,0.78723 2.236,1.22665c0.77258,0.47571 1.664,0.57468 2.564,0.57468c0.8,0 1.72707,-0.18604 2.6,0.03601c0.85296,0.21698 1.45225,1.00803 2.26134,1.38931c0.64906,0.30585 1.65194,0.50403 2.43867,0.92734c0.84305,0.45361 1.7,0.64734 2.5,0.64734c0.89999,0 1.80266,-0.07654 2.55717,0.35266c0.79108,0.45001 1.64323,0.62198 2.44283,0.64734c0.90135,0.02859 1.62637,0.66278 2.39999,0.91467c0.85947,0.27985 1.47925,0.47415 1.96667,1.25198c0.38303,0.61124 1.43329,0.828 2.33334,0.83334c0.88932,0.00528 1.83633,-0.1377 2.60001,0.22134c0.7757,0.36469 1.54282,0.7764 2.42082,0.77866c0.97917,0.0025 1.91489,-0.24594 2.77467,0.00449c0.75842,0.22092 1.06166,0.99551 1.9045,0.99551c0.90001,0 1.8,0 2.716,0c0.84567,0 1.73216,0 2.51466,0c1.00534,0 1.87384,0 2.73601,0c0.8125,0 1.83333,0 2.70532,0c0.73067,0 1.71901,0 2.55734,0c1.01733,0 1.89183,0 2.70934,0c1.028,0 1.86133,0 2.66133,0c0.89999,0 1.836,0 2.68399,0c0.86334,0 1.87595,0.10672 2.7375,-0.00015c0.89903,-0.11151 1.43262,-0.80957 2.37851,-0.98917c0.8638,-0.164 1.58049,-0.46863 2.39999,-0.84402c0.74269,-0.34021 1.7,-0.16666 2.64284,-0.16666c0.9265,0 1.709,0 2.59549,0c0.98317,0 1.87793,0.09424 2.647,-0.08533c0.96365,-0.22501 1.60571,-0.54907 2.40001,-1.20001c0.78172,-0.64063 1.12932,-1.40631 2.11465,-1.67865c0.86403,-0.2388 1.411,-0.70804 2.14168,-1.01517c0.86769,-0.36472 1.82187,0.20114 2.625,-0.1875c0.75557,-0.36563 1.45154,-0.82416 2.23332,-1.25867c0.81932,-0.45535 1.34062,-1.18576 2.04668,-1.53867c0.78304,-0.39139 1.72806,-0.02524 2.66666,-0.03601c0.90768,-0.01044 1.57466,-0.40576 2.40401,-0.716c0.92061,-0.34439 1.49342,-0.98206 2.34399,-1.25867c0.63246,-0.20566 1.64415,-0.48035 2.43417,-0.97266c0.70485,-0.43924 1.24692,-1.01047 2.18716,-1.05402c0.80855,-0.03745 1.37929,-0.72488 2.164,-0.98798c0.79272,-0.26578 1.61266,-0.10974 2.4015,-0.65802c0.63342,-0.44028 1.37439,-1.03821 2.25183,-1.2955c0.86545,-0.25378 1.72523,-0.38925 2.41466,-0.77316c0.74675,-0.41583 1.76378,-0.13538 2.58084,-0.63666c0.7495,-0.45984 1.40994,-0.70279 2.2045,-1.14734c0.79646,-0.44562 1.311,-1.18124 2.07466,-1.48932c0.79886,-0.32227 1.86987,0.08478 2.62534,-0.29468c0.86722,-0.43558 1.33813,-0.88113 1.8045,-1.66333c0.38734,-0.64963 1.43555,-0.78925 2.291,-1.05716c0.75383,-0.23608 1.06166,-0.99551 1.9045,-0.99551c0.90001,0 1.8,0 2.716,0c0.7885,0 1.68401,0 2.584,0c0.97917,0 1.85716,0 2.7,0c0.89984,0 1.82533,0 2.56168,0c1.06366,0 1.75433,0 2.7175,0c0.92082,0 1.82083,0 2.7195,0c0.968,0 1.688,0 2.62666,0c1.008,0 1.76401,0 2.67467,0c0.89999,0 1.8045,0 2.82133,0c0.67867,0 1.65717,0 2.47733,0c0.90134,0 1.80135,0 2.72217,0c0.96317,0 1.65384,0 2.722,0c0.85733,0 1.64252,0 2.58252,0c1.008,0 1.76398,0 2.67465,0c0.89999,0 1.79999,0 2.70132,0c0.96533,0 1.77783,0 2.69333,0c0.81519,0 1.62268,0 2.5845,0c0.92084,0 1.82535,0 2.84201,0c0.65799,0 1.67883,0 2.55084,0c0.73065,0 1.71899,0 2.55731,0c1.01352,0 1.75601,0 2.81351,0c0.85718,0 1.75717,0 2.51434,0c1.0575,0 1.90948,0 2.81216,0c0.7825,0 1.79468,0.00006 2.63068,0c0.90015,-0.00009 1.69437,-0.06131 2.62534,-0.42532c0.69788,-0.27286 1.65363,-0.56424 2.58533,-0.57468c0.91043,-0.01019 1.72803,0.00601 2.63998,0c0.81073,-0.00534 1.77429,-0.18262 2.53867,-0.57468c0.79166,-0.40604 1.55313,-0.77658 2.29733,-1.14133c0.86508,-0.42398 1.57498,-0.67303 2.28,-1.11734c0.71896,-0.45313 1.63333,-0.16666 2.53336,-0.16666c0.94281,0 1.89087,0.15594 2.73599,-0.01068c0.91165,-0.17972 1.63562,-0.59787 2.47998,-0.99066c0.71075,-0.33066 1.41492,-0.89926 2.05869,-1.42398c0.63831,-0.52026 1.54617,-0.57468 2.42532,-0.57468c0.89999,0 1.79868,0 2.65268,0c0.94733,0 1.74731,0 2.64734,0c0.89999,0 1.82083,0 2.62131,0c0.85333,0 1.79333,0 2.77869,0c0.89999,0 1.69998,0 2.60001,0c0.82083,0 1.82956,-0.2197 2.59015,0.05716c0.88385,0.32172 1.26523,1.16885 1.93118,1.54285c0.95816,0.53809 1.76312,0.92337 2.37866,1.11465c0.98047,0.30469 1.82382,0.25259 2.79868,0.57068c0.79056,0.25797 1.56812,0.83041 2.22665,1.31467c0.84393,0.62057 1.57355,0.96298 2.35315,1.49982c0.63187,0.43512 1.45166,0.81183 2.34302,1.12167c0.71854,0.24976 1.6785,0.77847 2.2785,1.07849c0.79999,0.39999 1.8273,0.84967 2.35834,1.20001c0.93289,0.61545 1.327,1.41467 2.14166,1.5l0.89999,0" id="svg_1" stroke-width="2" stroke="#000" fill="none"/>
  <path t="12915,13061,13100,13123,13133,13162,13164,13182,13199,13210,13241,13259,13259,13273,13294,13295,13332,13351,13371,13371,13389,13407,13425,13458,13489,13506,13523,13589,13606,13622,13639,13673,13706,13706,13739,13739,13757,13789,13806,13824,13840,13857,13857,13873,13906,13923,13924,13941,13998,14009,14072,14072" d="m179,205c2.45833,-1.97917 2.851,-2.73151 3.436,-3.38933c0.61615,-0.69284 1.79823,-0.36374 2.48,-0.89467c0.62657,-0.48795 0.73859,-1.21977 1.09467,-2.10533c0.30191,-0.75082 1.36813,-0.72905 2.12801,-1.22134c0.76283,-0.49422 1.1351,-1.31854 1.57733,-2.10399c0.4133,-0.73407 0.9313,-1.25182 1.76666,-1.28667c0.80872,-0.03374 1.09561,-0.72446 1.55333,-1.56267c0.39687,-0.72678 1.27437,-1.05405 2.164,-1.35068c0.85748,-0.28592 1.37123,-0.65643 2.0215,-1.08533c0.73322,-0.4836 1.46964,-0.51025 2.13116,-0.94284c0.69383,-0.4537 1.67502,-0.59776 2.25,-0.77316c0.97411,-0.29715 1.912,-0.28333 2.87651,-0.284c0.92082,-0.00064 1.82083,0 2.72083,0c0.90001,0 1.8,0 2.60001,0c0.89999,0 1.836,0 2.68399,0c0.86334,0 1.75433,0 2.7375,0l0.87851,0l0.89999,0l0.8,0" id="svg_2" stroke-width="2" stroke="#000" fill="none"/>
  <path t="16876,16923,16923,16924,16941,16942,16968,16968,16969,16969,17003,17003,17003,17003,17005,17005,17029,17030,17030,17030,17031,17031,17031,17057,17057,17057,17076,17076,17076,17096,17096,17096,17115,17115,17115,17135,17156,17157,17159,17159,17176,17195,17215,17224,17273,17292,17310,17325,17342,17357,17358,17375,17376,17395,17415,17415,17442" d="m177,193c2.11467,-3.59734 2.46318,-4.46518 2.6955,-4.98567c0.47368,-1.06128 0.95677,-1.65273 1.62601,-2.55733c0.34415,-0.46518 0.89009,-1.27771 1.27983,-1.85966c0.6001,-0.89604 1.18666,-1.78494 1.59866,-2.32533c0.38887,-0.51004 1.21512,-1.28493 2,-1.92267c0.81621,-0.66321 1.22041,-1.10237 1.77917,-1.87016c0.37871,-0.52039 0.98044,-1.56946 1.40616,-2.24318c0.40646,-0.64325 1.14931,-1.44559 1.86534,-2.036c0.49323,-0.40668 1.44716,-1.17418 1.9395,-1.8c0.45444,-0.57765 0.96568,-1.40903 1.63516,-2.2c0.51379,-0.60704 1.18471,-1.38081 1.528,-1.98933c0.39787,-0.70526 0.56992,-1.73625 0.93201,-2.69466c0.26982,-0.71419 0.78716,-1.5181 1.31467,-2.10535c0.66235,-0.73735 1.24936,-1.40468 1.92082,-1.91066c0.71442,-0.53836 1.2697,-1.04454 1.83633,-1.7955c0.50484,-0.66905 1.57867,-0.68358 2.16367,-1.22533c0.70541,-0.65326 1.2243,-1.1971 1.96184,-1.67917c0.795,-0.51964 1.46667,-1.2 1.96001,-1.90001l0.70667,-0.5l0.68134,-0.59866" id="svg_3" stroke-width="2" stroke="#000" fill="none"/>
  <path t="17779,17956,17974,17975,17991,18007,18007,18024,18024,18041,18042,18061,18061,18074,18074,18074,18091,18091,18108,18108,18108,18124,18124,18141,18141,18141,18158,18158,18174,18174,18175,18175,18191,18191,18208,18208,18208,18224,18224,18225,18241,18241,18241,18256,18257,18274,18274,18275,18292,18292,18292,18307,18324,18324,18324,18340,18341,18358,18374,18375,18391,18408,18424,18440,18441" d="m171,210c0.97917,-2.5 0.89236,-3.49803 1.05716,-4.34734c0.17963,-0.92572 0.7589,-1.65788 0.99551,-2.40984c0.28391,-0.90222 0.61658,-1.61406 1.14732,-2.35883c0.46982,-0.65926 1.10799,-1.53691 1.40001,-2.09467c0.51416,-0.98204 0.89999,-1.78934 1.2,-2.38934c0.5,-1 0.81041,-1.59486 1.29984,-2.59999c0.38762,-0.79602 0.63379,-1.39569 0.85199,-2.40001c0.17313,-0.79686 0.60378,-1.81058 1.069,-2.39999c0.48251,-0.61131 1.12692,-1.38303 1.45834,-2.02083c0.58037,-1.11687 0.80826,-1.93462 1.04166,-2.45834c0.33998,-0.76289 1.14009,-1.70105 1.65384,-2.1355c0.81743,-0.69125 1.30782,-1.41814 1.70934,-1.98666c0.57672,-0.81662 1.13263,-1.40276 1.71733,-1.99867c0.79037,-0.80554 1.42775,-1.35065 1.828,-2c0.57974,-0.94055 0.52722,-1.68739 1.23466,-2.59999c0.5251,-0.67737 1.18756,-0.89352 1.836,-1.8c0.51555,-0.7207 0.48595,-1.56052 0.936,-2.37466c0.4704,-0.85094 0.94122,-1.48311 1.44933,-2.22667c0.56149,-0.82169 1.23367,-1.24408 1.78134,-2.06534c0.4687,-0.70284 0.28366,-1.72803 0.68599,-2.57616c0.38438,-0.8103 0.81401,-1.5905 1.64734,-1.92384l0.636,-0.48" id="svg_4" stroke-width="2" stroke="#000" fill="none"/>
  <path t="18759,18940,18940,18940,18957,18958,18974,18974,18974,18991,18991,18991,19006,19007,19023,19023,19023,19041,19041,19056,19058,19073,19106,19106,19123,19142,19206,19240,19256,19456" d="m217,181c0,-2.95267 0.0015,-3.5 0,-4.31599c-0.00226,-1.22684 0.002,-2.09389 -0.2215,-2.88417c-0.23772,-0.84058 -0.6037,-1.476 -0.97717,-2.48384c-0.29984,-0.8091 -0.55338,-1.62518 -0.71733,-2.63066c-0.14186,-0.86998 -0.29912,-1.88748 -0.50934,-2.48534c-0.28235,-0.80298 -0.48283,-1.80614 -0.62733,-2.59999c-0.18341,-1.00757 -0.50923,-1.7718 -1.146,-2.43201c-0.63448,-0.65782 -0.55888,-1.38258 -0.80583,-2.40633c-0.18428,-0.76393 -0.9955,-1.04701 -0.9955,-1.96167l0,-0.89984l-0.02083,-0.87933" id="svg_5" stroke-width="2" stroke="#000" fill="none"/>
  <path t="21414,21589,21605,21622,21639,21640,21655,21672,21672,21689,21705,21706,21722,21722,21739,21740,21740,21755,21756,21772,21773,21773,21789,21790,21822,21822,21839,21872,21872,21889,22639,22722,22789,22955" d="m216,264c2.01466,-1.60001 2.51736,-2.35037 2.916,-3.20001c0.4037,-0.86044 0.87686,-1.42438 1.47333,-2.21066c0.52986,-0.69849 0.4274,-1.65344 0.89467,-2.42133c0.44321,-0.72836 0.64864,-1.4126 0.93767,-2.36783c0.24399,-0.80638 0.9295,-1.65244 1.431,-2.0475c0.67479,-0.53159 1.49167,-1.21898 1.82651,-1.7735c0.5733,-0.9494 0.92067,-1.77925 1.22083,-2.37917c0.49974,-0.99881 0.84605,-1.7997 1.40001,-2.57851c0.45753,-0.64326 1.28992,-1.10161 1.73332,-2.0215c0.312,-0.64726 0.16667,-1.64284 0.16667,-2.52083l0,-0.87917l0,-0.98933l-0.284,-0.612" id="svg_6" stroke-width="2" stroke="#000" fill="none"/>
  <path t="29212,29337,29361,29361,29382,29382,29400,29400,29411,29422,29422,29437,29470,29487,29488,29504,29537,29570,29598,29598,29621,29670,29920,30253,30253,30637,30670,30737,30770,30787,30803,30837,30853,30854,30870,30887,30920,30920,30937,30953,30954,30970,30987,30988,31020,31037,31053,31070,31106,31120,31153,31170,31203,31270,31287,31337,31353,31387,31403,31420,31437,31454,31470,31487,31503,31503,31520,31537,31553,31553,31554,31570,31587,31587,31587,31608,31620,31637,31637,31654,31654,31687,31703,31703,31720,31737,31753,31770,31803,31804,31820,31853,31853,31870,31887,31903,31920,31954,32120,32153,32153,32170,32170,32187,32187,32203,32203,32220,32220,32220,32237,32237,32253,32253,32270,32270,32287,32287,32288,32303,32303,32320,32337,32353,32353,32370,32387,32403,32403,32420,32437,32453,32453,32454,32470,32470,32487,32487,32503,32503,32520,32520,32537,32553,32553,32570,32570,32607,32619,32619,32637,32653,32670,32687,32687,32703,32720,32737,32753,32753,32769,32819,32837,32869,32870,32903,32920,32969,33003,33003,33037,33053,33053,33070,33103,33120,33137,33137,33154,33170,33187,33203,33219,33253,33287,33303" d="m219,263c-0.64667,-1.60001 -1.32486,-2.09409 -2,-2.5c-0.9837,-0.59143 -1.59198,-1.09732 -2.2,-1.70001c-0.60263,-0.59735 -1.28529,-1.31506 -1.90001,-1.89981c-0.58632,-0.55774 -1.54044,-0.75659 -2.25716,-1.25734c-0.74524,-0.52066 -1.26373,-1.16803 -2.03217,-1.60684c-0.63399,-0.36205 -0.76154,-1.43057 -1.61067,-1.86932c-0.63835,-0.32983 -1.63782,-0.13393 -2.38933,-0.59201c-0.82544,-0.50314 -1.61067,-0.57466 -2.41068,-0.57466c-0.89999,0 -1.94449,0.38873 -2.77466,-0.036c-0.69087,-0.35345 -1.36314,-0.56129 -2.14,-1.04933c-0.74005,-0.46492 -1.28534,-0.91467 -2.17067,-0.91467c-0.92934,0 -1.78134,0 -2.68401,0c-0.7825,0 -1.84648,0.11435 -2.63066,-0.284c-0.65918,-0.33485 -1.55716,-0.71375 -2.44817,-0.716c-0.7825,-0.00198 -1.78784,0 -2.65184,0c-0.89999,0 -1.79984,0 -2.7,0c-0.80133,0 -1.82343,0.41272 -2.64284,-0.05716c-0.68784,-0.39442 -1.29626,-1.15807 -1.35716,-2.04268c-0.06007,-0.87277 0,-1.70149 0,-2.60016c0,-0.90001 0,-1.8 0,-2.7c0,-0.90001 0,-1.8 0,-2.70001c0,-0.89999 0,-1.65717 0,-2.54816c0,-1.01851 0,-1.85184 0,-2.6385c0,-0.71249 0.09677,-1.92583 -0.16667,-2.88c-0.18834,-0.68211 -0.49347,-1.3676 -0.83333,-2.3125c-0.30377,-0.84456 -0.83333,-1.6875 -1,-2.52083c-0.16667,-0.83333 -0.64421,-1.51985 -1.0045,-2.35716c-0.35114,-0.81606 -0.71878,-1.53368 -1.4955,-2.12201c-0.73708,-0.5583 -1.7019,-0.44656 -2.55267,-0.52083c-0.95824,-0.08365 -1.50775,-0.65363 -2.24733,-1.2955c-0.66669,-0.57861 -1.49458,-0.79776 -2.2,-1.2045c-0.79404,-0.45784 -1.56055,-0.99574 -2.37866,-1.37849c-0.7049,-0.32979 -1.66,-0.12151 -1.02116,-0.12151c0.78516,0 1.73582,0 2.50116,0c0.99867,0 1.79866,0 2.79866,0c0.8,0 1.80017,0 2.62083,0c0.66451,0 1.9299,-0.035 2.71783,0.036c0.93338,0.08409 1.69601,0.58495 2.58284,0.8425c0.6785,0.19705 1.6785,0.12151 2.4785,0.12151c0.8,0 1.7955,0 2.71466,0c0.96451,0 1.78984,0 2.8065,0c0.8175,0 1.73242,-0.0591 2.54016,0.01067c0.98079,0.0847 1.66649,0.73412 2.53867,0.95334c0.8781,0.2207 1.76593,0.20462 2.436,0.46133c0.76448,0.29289 1.77003,0.48346 2.564,0.62733c1.00868,0.1828 1.73082,0.63548 2.716,0.862c0.75294,0.17311 1.72748,-0.0034 2.40001,0.17065c1.03374,0.26755 1.8136,0.75142 2.65866,0.94c0.95027,0.21205 1.5271,0.72415 2.367,0.9955c0.931,0.30077 1.59943,0.66696 2.57166,0.89384c0.84399,0.19696 1.50093,0.75381 2.36934,1.00133c0.78761,0.22449 1.33272,0.70908 1.8745,1.3795c0.59352,0.73445 1.68381,0.52307 2.44284,0.78983c0.85594,0.30081 1.56329,0.81448 2.39999,0.916c0.9198,0.1116 1.48586,0.7177 2.18933,1.388c0.65056,0.61987 1.29706,1.06749 2.05334,1.48917c0.62476,0.34834 1.83466,-0.03648 2.65733,0.34283c0.66824,0.30811 1.52,0.60817 2.39999,0.7995c0.84633,0.18401 1.54254,0.70386 2.3,1.06317c0.86537,0.41051 1.23445,1.33421 2.07866,1.79449c0.74184,0.40446 1.52133,0.54684 2.32001,1.03751l0.74417,0.44116l0.05716,0.94284" id="svg_8" stroke-width="2" stroke="#000" fill="none"/>
  <path t="35110,35186,35203,35221,35236,35252,35253,35286,35319,35319,35336,35369,35386" d="m161,277c1.8,0 2.4724,-0.24109 3.16933,-0.716c0.7365,-0.50189 1.80917,-0.284 2.62933,-0.284c0.83734,0 1.854,0 2.54868,0l1.006,0l0.93066,0.00134l0.68001,0.43466" id="svg_9" stroke-width="2" stroke="#000" fill="none"/>
  <path t="35776,35902,35902,35919,35936,35936,35952,35953,35969,35969,35986,35986,36002,36019,36019,36036,36036,36052,36069,36086,36086,36102,36103,36119,36152,36169,36169,36202,36219" d="m155,287c2.5955,0.94284 3.51466,0.99933 4.5,1c0.98534,0.00067 1.71066,0 2.7,0c0.8,0 1.8,0 2.58934,0c1.04399,0 1.81046,-0.01468 2.62132,-0.42532c0.76642,-0.38812 1.65472,-0.38055 2.56767,-0.79617c0.74435,-0.33887 1.01974,-1.25967 1.63234,-1.83984c0.68718,-0.65079 1.03725,-1.3273 1.58932,-2.05331c0.55075,-0.72427 1.52528,-1.23441 1.8,-2.052c0.26543,-0.78995 0,-1.63333 0,-2.66669l0.036,-0.81332" id="svg_10" stroke-width="2" stroke="#000" fill="none"/>
  <path t="37209,37452,37469,37486,37487,37519,37536,37552,37569,37586,37586,37602,37619,37636,37669,37686,37702,37719,37719,37736,37752,37768,37786,37802,37802,37819,37835,37853,37869,37886,37918,37919,37936,37969,38002" d="m151,287c0,-1.83334 0.43602,-2.436 1.09984,-3.09982c0.61482,-0.61484 0.74129,-1.52716 1.25732,-2.19568c0.57698,-0.7475 1.41492,-1.05951 1.86433,-1.80432c0.37546,-0.62222 1.17447,-1.09268 1.8625,-1.61618c0.6136,-0.46686 1.61694,-0.33945 2.416,-0.784c0.80096,-0.44562 1.64799,-0.8674 2.3,-1.216c0.84738,-0.45306 1.51035,-0.90204 2.39999,-1.19867c0.85765,-0.28595 1.75377,-0.32745 2.5,-0.73267c0.76112,-0.4133 1.7,-0.35266 2.60001,-0.35266c0.89867,0 1.784,0 2.7,0c0.8,0 1.7,0 2.60001,0l0.89999,0" id="svg_11" stroke-width="2" stroke="#000" fill="none"/>
  <path t="40531,40807,40807,40824,40842,40843,40858,40859,40859,40874,40874,40892,40892,40892,40908,40909,40909,40924,40924,40942,40942,40943,40958,40959,40974,40974,40992,40992,40992,41007,41024,41024,41042,41057,41074,41107,41124,41223,41273" d="m140,358c2.5955,0.58566 3.39465,0.36322 4.24283,-0.29999c0.81233,-0.63516 1.2728,-1.2261 1.92384,-1.86667c0.66408,-0.65338 1.18826,-1.22061 2.03333,-1.59067c0.76579,-0.33536 1.82156,-0.54367 2.40001,-0.95251c0.62517,-0.44186 1.58752,-1.28876 2.2,-1.65417c0.58867,-0.3512 1.61989,-0.80255 2.39999,-1.27197c0.82257,-0.49496 1.40501,-1.00653 1.964,-1.53867c0.82886,-0.78903 1.31517,-1.3045 2.03734,-2.02667c0.55583,-0.55585 1.28265,-1.28268 1.79866,-1.79868c0.51601,-0.51599 1.25462,-1.2312 2,-2c0.57321,-0.59122 0.73172,-1.44159 1.0045,-2.2955c0.24211,-0.75793 1.291,-0.70898 1.97017,-1.12982l0.54616,-0.55383l0.95834,-0.04169" id="svg_12" stroke-width="2" stroke="#000" fill="none"/>
  <path t="42114,42157,42174,42174,42191,42191,42207,42207,42223,42241,42241,42257,42273,42274,42291,42291,42307,42307,42323,42341,42358,42358,42373,42391,42391,42407,42423,42441,42457,42457,42473,42490,42507,42507,42524,42541" d="m99,339c3.33867,0.97467 4.33821,1.18582 5,1.52084c0.85764,0.43417 1.44691,1.01413 2.20133,1.67783c0.53419,0.46997 1.56203,0.44888 2.46533,0.96799c0.64483,0.37057 1.40544,0.67453 2.31184,1.05484c0.66786,0.28021 1.29305,1.11954 1.90683,1.57849c0.73152,0.547 1.46865,0.82312 2.47867,1.17468c0.84185,0.29303 1.66518,0.78119 2.336,1.078c0.84766,0.37506 1.42363,1.25116 2.10001,1.66199c0.77613,0.47141 1.35686,1.04193 2.22083,1.28534c0.94595,0.26651 1.5498,0.60217 1.97916,1.5c0.377,0.78836 1.16666,1.33334 1.81467,1.46399l1.016,0.03601l0.81667,0.05716" id="svg_13" stroke-width="2" stroke="#000" fill="none"/>
  <path t="42997,43140,43157,43157,43190,43191,43207,43224,43241,43262,43262,43290,43323,43341,43341" d="m104,343c-3.77583,-3.18567 -4.24334,-4.08276 -4.716,-4.71466c-0.53086,-0.70972 -0.68616,-1.71133 -1.584,-2.17102c-0.80652,-0.41293 -1.51427,-0.44543 -1.92133,-1.21432c-0.40104,-0.75751 -0.80399,-1.5 -1.22533,-2.28934l-0.87467,-0.4895l-0.67867,-0.142" id="svg_14" stroke-width="2" stroke="#000" fill="none"/>
  <path t="46026,46206,46206,46223,46223,46223,46240,46240,46240,46256,46256,46273,46290,46290,46306,46306,46323,46340,46356,46372,46390,46406,46423,46456,46473,46506,46506,46523,46556,46590,46656,46706,46722,46756,46773,46790,46806,46823,46824,46840,46856,46856,46873,46890,46890,46906,46923,46923,46940,46940,46956,46973,46973,46973,46990,46990,47006,47022,47023,47056,47056,47156,47258,47306,47340,47372,47422,47456,47622,47805" d="m216,187c4.23067,1.82933 5.21448,1.98933 6.16667,2c0.78595,0.0088 1.608,0 2.66666,0c0.7095,0 1.56216,0 2.56534,0c0.76534,0 1.84866,0 2.76801,0c0.83333,0 1.81183,0 2.52882,0c0.90451,0 1.8045,0 2.7045,0c0.90001,0 1.8,0 2.70001,0c0.89999,0 1.81599,0 2.66167,0c0.89099,0 1.79279,0.26645 2.69666,0c0.6236,-0.18384 1.09244,-0.94019 1.84167,-1.35266c0.83865,-0.4617 1.74084,-0.38963 2.53333,-0.64734c0.80843,-0.26288 1.4729,-0.88052 2.36667,-1.00133c0.80956,-0.10942 1.48053,-0.69531 2.32083,-0.99867c0.9433,-0.34055 1.61771,-0.57494 2.52983,-1.02533c0.81055,-0.40025 1.46414,-0.69962 2.44934,-0.97467c0.81946,-0.22879 1.49881,-0.57358 2.5,-0.83333c0.76602,-0.19873 1.64914,-0.48129 2.33334,-1.16667c0.47403,-0.47482 1.26401,-0.81079 2.26215,-1.2955c0.56558,-0.27464 1.65079,-0.66846 2.57117,-0.7045c0.65826,-0.02579 1.79861,0.0076 2.38669,-0.57466c0.6391,-0.63275 0.96735,-1.41272 1.84665,-1.42534c0.89542,-0.01286 1.564,-0.42534 1.95718,-1l0.84149,0l0.96799,0l0.83334,0" id="svg_15" stroke-width="2" stroke="#000" fill="none"/>
  <path t="48708,48756,48756,48772,48773,48789,48790,48790,48805,48806,48822,48822,48839,48840,48840,48855,48856,48873,48873,48889,48890,48905,48906,48939,48955,48956,48972,48989,49005,49022,49022,49039,49055,49072,49089,49090,49105,49106,49122,49123,49123,49139,49155,49156" d="m278,177c1.82535,-0.44667 2.57999,-0.83063 3.24734,-1.65717c0.42105,-0.52148 0.89566,-1.36317 1.578,-2.13217c0.50494,-0.56908 1.1167,-1.23042 1.79999,-1.8c0.66318,-0.55283 1.3934,-0.91481 2.37466,-1.41066c0.79828,-0.40338 1.40323,-0.69359 2.39868,-1.2c0.5824,-0.29626 1.60278,-0.87317 2.19064,-1.40001c0.63824,-0.57199 1.14105,-1.14217 2.05884,-1.6955c0.62512,-0.37688 1.63849,-0.7045 2.51849,-0.7045c0.83334,0 1.96387,0.34793 2.66669,-0.16667c0.6543,-0.47906 1.2175,-1.13417 1.86667,-1.48067c0.84937,-0.45335 1.82083,-0.32687 2.60449,-0.70532c0.88885,-0.42926 1.55475,-0.49139 2.52884,-0.81401c0.72531,-0.24022 1.70621,-0.7411 2.40665,-0.79733c0.90442,-0.0726 1.836,-0.07199 2.61334,-0.31999l0.90668,-0.29066" id="svg_16" stroke-width="2" stroke="#000" fill="none"/>
  <path t="53380,53438,53439,53466,53466,53466,53491,53491,53493,53493,53493,53509,53509,53510,53535,53535,53535,53552,53552,53552,53552,53567,53568,53583,53583,53583,53583,53608,53608,53608,53608,53610,53610,53610,53610,53610,53627,53627,53627,53627,53627,53645,53645,53645,53645,53645,53663,53663,53663,53663,53663,53681,53681,53682,53682,53682,53704,53704,53704,53704,53704,53724,53724,53724,53724,53745,53745,53745,53745,53745,53765,53765,53766,53766,53785,53785,53785,53804,53805,53805,53823,53823,53826,53826,53827,54355,54355" d="m341,341c-0.35718,2.60001 -0.69043,3.4071 -1.20132,4.39999c-0.31104,0.60446 -0.65366,1.22406 -1.45135,2.20001c-0.5033,0.61575 -1.20349,1.38504 -1.59015,2c-0.3688,0.58658 -0.83282,1.61337 -1.27802,2.39999c-0.34579,0.61099 -0.96286,1.40274 -1.5,2.02084c-0.57874,0.66599 -1.19278,1.39056 -1.76849,2.2045c-0.38397,0.54285 -0.75525,1.0733 -1.32532,2.09067c-0.50143,0.89487 -0.89395,1.84744 -1.18533,2.64114c-0.20612,0.56149 -0.49261,1.44669 -0.80035,2.34302c-0.31348,0.91309 -0.54807,1.54721 -0.87033,2.18515c-0.53366,1.05646 -1.03687,1.77042 -1.52933,2.53552c-0.25046,0.3891 -0.78152,1.15591 -1.35733,2.37915c-0.36978,0.78555 -0.63403,1.60336 -0.948,2.39999c-0.15833,0.40176 -0.73233,1.60297 -1.1955,2.40451c-0.47339,0.81921 -0.76459,1.20691 -1.14584,2.08084c-0.56891,1.30405 -0.62009,1.79535 -0.76666,2.73999c-0.14685,0.94644 -0.1207,1.43488 -0.42001,2.80801c-0.1944,0.89178 -0.53143,1.73367 -0.70831,2.14581c-0.35303,0.82263 -0.95673,2.02167 -1.35834,2.81952c-0.39838,0.79147 -0.59219,1.18463 -1,1.94415c-0.58878,1.09662 -0.9982,1.77426 -1.39999,2.43182c-0.39825,0.65179 -1.20306,1.9903 -1.39984,2.34668c-0.40192,0.72791 -0.79007,1.47354 -1.14301,2.22601c-0.50601,1.07886 -0.90573,2.09338 -1.13632,2.73181c-0.22189,0.61435 -0.61826,1.82156 -0.82083,2.41635c-0.29623,0.86981 -0.68784,1.94312 -1,2.64734c-0.28882,0.65155 -0.77859,1.66837 -1.20001,2.43631c-0.47617,0.86771 -0.97916,1.5 -1.41599,2.22086l-0.30551,0.89981l-0.57983,0.61484" id="svg_17" stroke-width="2" stroke="#000" fill="none"/>
  <path t="54908,55022,55038,55038,55055,55055,55072,55088,55088,55105,55105,55122,55122,55150,55174,55174,55188,55205,55238,55239,55354,55388,55405,55422,55438,55472,55472,55488,55505,55505,55538,55538,55555,55572" d="m304,422c-0.96399,3.33865 -1,4.32132 -1,5.17465c0,0.94135 0,1.70935 0,2.6507c0,1.008 0.01385,1.81598 -0.284,2.65866c-0.24973,0.70648 -0.67206,1.62857 -0.71466,2.39999c-0.05191,0.93991 0.19385,1.97336 -0.00134,2.75433c-0.21921,0.87698 -0.78485,1.61533 -1.16666,2.36166c-0.36557,0.7146 -0.52304,1.49161 -0.84402,2.38934c-0.26343,0.73685 -0.98398,1.22128 -0.98932,2.17465c-0.00491,0.87885 0.12845,1.62973 -0.00449,2.67883c-0.11111,0.87698 -0.71152,1.47183 -0.99686,2.32651l-0.05582,0.7825l-0.2955,0.88651l-0.62201,0.73633" id="svg_18" stroke-width="2" stroke="#000" fill="none"/>
  <path t="56027,56124,56126,56141,56141,56141,56155,56156,56156,56174,56174,56174,56189,56189,56189,56205,56205,56205,56205,56222,56222,56238,56238,56238,56255,56255,56272,56288,56288,56309,56338" d="m299,462c3.31467,-2.11465 4.18716,-2.5936 5,-3c0.80856,-0.40427 1.45007,-0.7175 2.42133,-1.10001c0.79846,-0.31445 1.63358,-0.58099 2.65735,-1c0.70142,-0.28708 1.36646,-0.6188 2.34283,-1c0.80853,-0.31567 1.38876,-0.50119 2.57849,-0.89999c0.59845,-0.20062 1.48465,-0.48508 2.31467,-0.79999c1.00699,-0.38205 1.66504,-0.69891 2.68533,-1.20001c0.60034,-0.29486 1.38065,-0.72784 2.39868,-0.91467c0.75632,-0.13879 1.71597,-0.08667 2.60132,-0.25198l0.70001,-0.48068l0.79999,-0.33182l0.89999,-0.02084" id="svg_19" stroke-width="2" stroke="#000" fill="none"/>
  <path t="57391,57437,57438,57454,57455,57471,57472,57472,57488,57488,57504,57505,57505,57521,57522,57537,57554,57600,57602,57602,57609,57620,57672,57672,57704,57754,57771,57837,57887,57904,57905,57921,57922,57940,57940,57954,57954,57955,57971,57972,57987,57988,57988,58004,58004,58022,58022,58037,58038,58054,58071,58104,58121,58138,58138,58154,58171" d="m312,456c1.836,0 2.60132,0 3.60449,0c0.85266,0 1.81683,0 2.62085,0c0.82199,0 1.85315,0 2.75381,0c1.02084,0 1.82083,0 2.62085,0c0.99548,0 1.74283,0 2.76401,0c0.93597,0 1.83731,0 2.80264,0c0.64801,0 1.664,0 2.48001,0c1.00601,0 1.70065,0 2.70667,0c0.93201,0 1.84668,0 2.74667,0c0.89999,0 1.81177,-0.15204 1.89551,-0.81885c0.11826,-0.94177 -0.13062,-1.71146 0.17114,-2.84781c0.18686,-0.70361 1.01266,-1.48788 1.48151,-1.99051c0.50446,-0.5408 1.19171,-1.52646 1.31018,-2.34283c0.14374,-0.99048 -0.01459,-1.80908 0.12698,-2.60001c0.1824,-1.01892 0.56039,-1.58112 0.79333,-2.59982c0.17581,-0.76886 0.39569,-1.74969 0.76868,-2.49567c0.38919,-0.77838 0.35266,-1.78366 0.35266,-2.66168c0,-0.84415 0,-1.80948 0,-2.62198l0,-0.9595l0,-0.76584" id="svg_20" stroke-width="2" stroke="#000" fill="none"/>
  <path t="59225,59387,59388,59404,59405,59405,59421,59422,59422,59422,59437,59437,59438,59438,59454,59454,59454,59454,59471,59471,59472,59472,59472,59487,59488,59488,59488,59489,59504,59504,59504,59504,59505,59505,59521,59521,59522,59522,59537,59538,59538,59538,59538,59538,59555,59555,59555,59555,59555,59555,59555,59572,59572,59572,59572,59572,59587,59588,59588,59604,59604,59604,59605,59629,59629,59630,59630,59630,59643,59644,59644,59656,59656,59656,59656,59679,59679,59679,59702,59702,59724,59724,59745,59764,59781" d="m334,422c1.3045,-2.60001 1.73035,-3.41959 2.32132,-4.20035c0.4827,-0.6377 1.07452,-1.28708 1.51202,-2.133c0.31915,-0.6171 0.5126,-1.32816 0.91931,-2.36133c0.38699,-0.98306 0.73135,-1.53732 1.24734,-2.30533c0.51599,-0.76801 0.98959,-1.63873 1.25183,-2.31433c0.28061,-0.72293 0.5083,-1.51776 1.08151,-2.68567c0.40063,-0.81628 0.66742,-1.19839 1.16666,-1.97916c0.49017,-0.76657 1.17947,-1.84747 1.53333,-2.53818c0.33905,-0.6618 0.62994,-1.35663 1.02002,-2.052c0.67114,-1.19638 0.99454,-1.60159 1.62265,-2.48132c0.3219,-0.45084 0.97464,-1.33807 1.272,-1.78134c0.81152,-1.20966 1.20193,-1.95511 1.51035,-2.668c0.30209,-0.6983 0.70187,-1.83585 1.02966,-2.67065c0.17474,-0.44504 0.56677,-1.37463 0.79465,-1.85068c0.47345,-0.98911 1.03561,-1.9884 1.68533,-2.97733c0.32977,-0.50192 0.68127,-0.99167 1.38135,-1.96533c0.34464,-0.47934 0.70834,-0.93362 1.60751,-2.31418c0.27921,-0.42868 0.76938,-1.25967 1.18582,-2.03915c0.37741,-0.70642 0.97333,-1.91467 1.23199,-2.43201c0.37799,-0.75601 0.94464,-1.89459 1.2825,-2.56052c0.36133,-0.71219 0.73328,-1.44986 1.34283,-2.5235c0.38974,-0.68649 0.79486,-1.32739 1.164,-1.95599c0.35602,-0.60623 0.94287,-1.81418 1.22134,-2.39999c0.40924,-0.86093 0.91684,-1.67487 1.62,-2.35352c0.47458,-0.45807 1.29419,-0.99387 2.02399,-1.85715c0.4762,-0.56329 0.73181,-1.2193 1.27518,-2.1955c0.42493,-0.76346 1.01666,-1.38284 1.67465,-1.86285l0.90652,-0.48898l0.19965,-0.76868l0.79318,-0.50549" id="svg_21" stroke-width="2" stroke="#000" fill="none"/>
  <path t="60991,61054,61054,61071,61071,61071,61087,61087,61104,61104,61121,61137,61137,61137,61154,61171,61187,61204,61221,61221,61236,61254" d="m372,359c2.24734,-2.60001 2.58838,-3.22632 3.16666,-4c0.62039,-0.83005 1.21344,-1.37518 1.81183,-2.19968c0.40857,-0.56296 1.01627,-1.47617 1.62152,-1.815c0.7933,-0.44412 1.40686,-1.14786 1.79999,-1.81067c0.40714,-0.68646 0.98016,-1.5368 1.65268,-2.22733c0.55057,-0.56531 1.24731,-1.24731 1.94733,-1.94733l0.564,-0.60001l0.41068,-0.78934l0.52533,-0.58981" id="svg_22" stroke-width="2" stroke="#000" fill="none"/>
  <path t="61940,62153,62187,62221,62271" d="m340,431c1.97867,2.55334 2,3.436 2,4.29999l0,0.90002" id="svg_23" stroke-width="2" stroke="#000" fill="none"/>
  <path t="63693,63853,63853,63853,63853,63870,63871,63871,63871,63887,63887,63887,63887,63903,63903,63904,63904,63904,63904,63920,63921,63921,63921,63937,63937,63937,63937,63937,63937,63954,63954,63954,63954,63954,63954,63954,63970,63971,63971,63971,63971,63971,63987,63987,63987,63987,63987,64003,64003,64004,64004,64004,64004,64020,64021,64021,64021,64021,64021,64036,64037,64037,64037,64037,64037,64038,64053,64054,64054,64054,64054,64054,64054,64054,64070,64071,64071,64071,64071,64071,64087,64087,64087,64087,64087,64088,64103,64104,64104,64104,64104,64122,64122,64122,64123,64137,64137,64137,64137,64153,64154,64154,64170,64171,64171,64187,64187,64203,64204,64220,64221,64239,64253,64270,64321" d="m298,338c-2.85699,5.93549 -3.19534,6.72485 -3.45834,7.4375c-0.35199,0.9538 -0.63403,1.86536 -0.95233,2.77316c-0.21994,0.62726 -0.45691,1.28232 -0.91098,2.31085c-0.3273,0.74139 -0.7041,1.50806 -1.14001,2.28299c-0.68045,1.20963 -0.95139,1.60092 -1.491,2.39099c-0.53912,0.78934 -0.82315,1.16769 -1.36334,1.91916c-0.76413,1.06299 -1.23837,1.7298 -1.66315,2.40619c-0.42813,0.68173 -1.02908,1.80859 -1.42218,2.65115c-0.20752,0.44482 -0.61926,1.39063 -0.83466,1.88535c-0.44882,1.03088 -0.92789,2.1106 -1.18533,2.66382c-0.5257,1.12967 -0.80304,1.694 -1.07867,2.258c-0.27368,0.56 -0.81519,1.65195 -1.33334,2.6875c-0.4819,0.96307 -0.70554,1.42346 -1.16666,2.29169c-0.44455,0.83701 -0.66159,1.25302 -1.42151,2.44183c-0.52048,0.81421 -0.81412,1.21075 -1.38916,2.03583c-0.29364,0.4213 -1.1925,1.72858 -1.48917,2.18533c-0.60217,0.92715 -0.8949,1.40076 -1.46417,2.35333c-0.28152,0.47107 -1.0705,1.85803 -1.31482,2.30399c-0.47525,0.86746 -0.69629,1.30182 -1.1825,2.14667c-0.49765,0.86475 -1.06528,1.74603 -1.70801,2.66269c-0.33701,0.48062 -0.69986,0.96384 -1.41602,1.99466c-0.37054,0.53336 -0.75369,1.07623 -1.448,2.25067c-0.35626,0.60263 -0.68698,1.2298 -1.005,1.86749c-0.63403,1.27142 -0.91632,1.9119 -1.19998,2.53665c-0.27631,0.60858 -0.78961,1.76501 -1.27768,2.80783c-0.22879,0.48886 -0.67801,1.41611 -1.13666,2.29834c-0.22836,0.43924 -0.96738,1.77841 -1.23132,2.24036c-0.53873,0.94281 -0.8176,1.41507 -1.36334,2.36331c-0.26947,0.4682 -1.0325,1.83026 -1.26733,2.26602c-0.45193,0.83859 -0.86716,1.64407 -1.284,2.39999c-0.59061,1.07104 -0.99985,1.72769 -1.38049,2.36581c-0.36661,0.61459 -1.00626,1.81787 -1.26817,2.42084c-0.25938,0.59714 -0.60629,1.51541 -1.07401,2.39966c-0.47377,0.89569 -0.82706,1.44736 -1.51199,2.367c-0.51146,0.68674 -0.98566,1.20334 -1.56667,2.15869c-0.41472,0.68192 -0.93019,1.39941 -1.40001,2.05865c-0.53076,0.74478 -0.91466,1.63199 -1.164,2.48001l-0.0405,0.93149l-0.4315,0.67917l-0.864,0.37799" id="svg_24" stroke-width="2" stroke="#000" fill="none"/>
  <path t="64707,64853,64853,64870,64886,64887,64903,64904,64920,64920,64936,64937,64953,64954,64970,64970,64986,65003,65004,65020,65037,65053,65070,65103,65220,65221,65236,65236,65237,65253,65253,65253,65253,65253,65270,65270,65270,65286,65287,65287,65303,65303,65303,65320,65320,65320,65336,65337,65337,65353,65353,65353,65354,65370,65371,65386,65387,65420,65420" d="m245,436c-2.24283,3.18567 -2.84589,3.75436 -3.5,4.52084c-0.64934,0.76086 -1.02505,1.46112 -1.33333,2.3125c-0.26883,0.74246 -0.88321,1.45609 -1.51851,1.86667c-0.90529,0.58508 -1.53133,1.10126 -2.30083,1.60449c-0.69392,0.45383 -1.31825,1.02252 -1.82651,1.67465c-0.61179,0.78497 -1.56332,0.83511 -2.32083,1.10617c-0.90111,0.32245 -1.61176,0.95267 -2.07849,1.79333c-0.38307,0.68997 -1.46417,0.65735 -1.46417,1.12134c0,0.81335 1.76433,0 2.58934,0c0.59999,0 1.92,0 2.63733,0c0.74133,0 1.49066,0 2.23199,0c1.39867,0 2.048,0 2.97951,0c1.20433,0 1.79999,0 2.6685,0c1.06932,0 2.01067,0 2.68866,0c0.96883,0 1.78333,0 2.65184,0c1.1955,0 1.79549,0 2.6955,0c1.2,0 1.79953,0.0228 2.67917,-0.02084c0.83694,-0.04153 1.83377,-0.2684 2.71016,-0.55383c0.8091,-0.26352 1.60001,-0.38931 2.64401,-0.42532l0.88,0" id="svg_25" stroke-width="2" stroke="#000" fill="none"/>
  <path t="65806,65903,65903,65903,65920,65920,65920,65936,65936,65937,65953,65953,65953,65970,65970,65970,65986,65986,65986,66003,66003,66020,66021" d="m268,452c3.31332,-3.31467 3.7818,-3.73877 4.33835,-4.39551c0.82129,-0.96915 1.13934,-1.61935 1.54565,-2.2045c0.5708,-0.82205 1.13239,-1.40433 1.71732,-2c0.79269,-0.80725 1.40958,-1.4111 1.79868,-1.85715c0.82339,-0.94397 1.19495,-1.49142 1.76401,-2.28152c0.6687,-0.92844 1.06934,-1.46463 1.72,-2.14398c0.58759,-0.61349 1.29065,-1.29199 1.94934,-1.95068l0.625,-0.625" id="svg_26" stroke-width="2" stroke="#000" fill="none"/>
  <path t="66374,66436,66436,66470,66486,66520,66536,66553,66570,66603,66620,66702" d="m285,428c0,-3.53833 0,-4.33835 0,-5.36401c0,-0.836 -0.05066,-1.73718 0,-2.66132c0.04272,-0.77951 0.57468,-1.57468 0.96399,-2.37466l0.03601,-0.89551l0,-0.92599" id="svg_27" stroke-width="2" stroke="#000" fill="none"/>
  <path t="66889,66970,66986,67003,67003,67020,67020,67020,67036,67036,67053,67053,67053,67070,67070,67086,67086,67086,67086,67103,67103,67103,67104,67120,67120,67120,67120,67120,67136,67136,67136,67136,67136,67153,67153,67153,67153,67153,67154,67170,67170,67170,67170,67171,67171,67186,67186,67186,67186,67187,67187,67203,67203,67203,67203,67203,67204,67220,67220,67220,67220,67220,67220,67221,67236,67236,67236,67237,67237,67237,67237,67254,67254,67255,67255,67255,67255,67255,67270,67270,67270,67270,67270,67271,67286,67286,67286,67286,67287,67287,67303,67303,67303,67303,67320,67320,67320,67320,67336,67336,67336,67353,67353,67370,67370,67386" d="m284,413c0.98932,-2.58932 0.931,-3.43286 1.2215,-4.3215c0.23636,-0.72305 0.76761,-1.68411 1.1785,-2.46783c0.29233,-0.55759 0.89078,-1.47083 1.48535,-2.09467c0.58542,-0.61423 1.14178,-1.1138 1.63065,-1.71732c0.78082,-0.96393 1.09122,-1.64749 1.81735,-2.39868c0.6282,-0.64987 1.21124,-0.97482 1.89865,-1.68533c0.67172,-0.69427 1.11887,-1.56058 1.41867,-2.16135c0.31897,-0.63916 0.87711,-1.68469 1.36368,-2.40598c0.51151,-0.75824 0.79367,-1.13263 1.38834,-1.86334c0.87796,-1.07886 1.49844,-1.73483 1.79733,-2.06934c0.60223,-0.67398 1.21664,-1.37122 1.79999,-2.14801c0.61792,-0.82285 0.90408,-1.2738 1.5,-2.1875c0.30206,-0.46313 0.89185,-1.40189 1.5,-2.3125c0.59213,-0.88663 0.89618,-1.31223 1.5,-2.14581c0.29813,-0.41156 0.89941,-1.21994 1.80017,-2.42102c0.30096,-0.40131 0.90988,-1.21094 1.22067,-1.62067c0.6351,-0.83728 0.96176,-1.2666 2.00049,-2.60065c0.36172,-0.46457 0.73456,-0.93317 1.47867,-1.89935c0.37628,-0.48859 0.76511,-0.97092 1.83334,-2.47916c0.35123,-0.49588 0.68542,-0.99817 1.34131,-2c0.32675,-0.49908 0.64246,-1.00549 1.30936,-2c0.67435,-1.00562 1.03381,-1.50272 1.40134,-2c0.74319,-1.00555 1.13379,-1.50134 1.52533,-2c0.78723,-1.00269 1.58939,-1.99997 1.98917,-2.49985c0.3989,-0.49878 1.18979,-1.48923 1.57932,-1.97931c0.38516,-0.48459 0.76752,-0.96066 1.85419,-2.35419c0.34637,-0.44421 1.01013,-1.30899 1.33066,-1.73065c0.62662,-0.82437 0.93137,-1.2316 1.836,-2.436c0.59991,-0.79874 0.89661,-1.19809 1.5,-1.97916c0.29831,-0.38614 0.88306,-1.15005 1.79984,-2.19919c0.58502,-0.66946 1.17603,-1.28323 1.74301,-1.85999c0.78595,-0.7995 1.27182,-1.27634 1.93631,-1.94083c0.41635,-0.41635 1.23019,-1.21164 1.81018,-1.82083c0.56287,-0.59122 1.18915,-1.39984 1.68982,-2.17917l0.52084,-0.85419l0.47916,-0.64581l0.46817,-0.81635" id="svg_28" stroke-width="2" stroke="#000" fill="none"/>
  <path t="69828,69981,69982,69982,69982,69998,69998,69998,70015,70015,70015,70015,70032,70032,70048,70048,70048,70064,70065,70065,70082,70098,70098,70114,70115,70131,70148,70148,70164,70165,70165,70181,70182,70198,70198,70214,70215,70215,70231,70232,70247,70248,70264,70265,70265,70281,70282,70282,70298,70298,70298,70314,70315,70315,70331,70332,70347,70348,70348,70364,70365,70365,70365,70381,70382,70382,70397,70398,70398,70414,70415,70415,70431,70432,70432,70432,70447,70448,70448,70448,70464,70465,70465,70465,70465,70481,70482,70482,70482,70497,70498,70498,70498,70514,70515,70515,70515,70531,70532,70532,70532,70548,70548,70548,70548,70564,70565,70565,70565,70581,70582,70582,70597,70598,70598,70614,70615,70615,70615,70631,70632,70632,70632,70650,70650,70650,70650,70665,70665,70665,70681,70682,70682,70682,70697,70698,70698,70714,70715,70715,70731,70747,70748,70764,70765,70781,70782,70798,70798,70831,70832,70848,70864,70885,70897,70914,70947,70964,70964,70997,71114,71132,71197,71214,71247,71597,71631,71664,71697,71731,71781,71831,71947" d="m382,343c5.05701,-4.39282 5.77747,-4.75235 6.77866,-5.01868c0.61417,-0.16336 1.82391,-0.54391 2.42136,-0.832c0.90396,-0.43588 1.79053,-0.85797 2.6955,-1.03949c0.57886,-0.11612 1.43433,-0.13074 2.65182,-0.46249c0.68832,-0.18756 1.61676,-0.50012 2.40533,-0.59467c0.81982,-0.09827 1.90268,-0.1532 2.80066,-0.48868c0.603,-0.22528 1.41031,-0.99353 2.24667,-1.39734c0.7099,-0.34274 1.64093,-0.54874 2.34732,-0.814c0.88684,-0.33301 1.81934,-0.35266 2.67352,-0.35266c0.97916,0 1.77914,0.0018 2.57916,0c1,-0.00226 1.81616,0.00507 2.79999,-0.284c0.81668,-0.23996 1.79654,-0.62405 2.39999,-0.67999c0.79736,-0.07388 1.80661,0.02209 2.60001,-0.09317c1.01605,-0.14761 1.82144,-0.57715 2.76666,-0.77618c0.77719,-0.16367 1.61859,-0.12762 2.66669,-0.33331c0.724,-0.14209 1.60651,-0.54327 2.58798,-0.71185c0.79688,-0.13687 1.62601,-0.11923 2.65717,-0.12149c0.68552,-0.0015 1.52072,0.02878 2.526,-0.00449c0.85382,-0.02826 1.82034,-0.20511 2.64218,-0.43152c0.60248,-0.16595 1.91843,-0.56967 2.63599,-0.76266c0.73047,-0.19647 1.44913,-0.40167 2.784,-0.63467c0.56152,-0.09802 1.55536,-0.14911 2.5,-0.33331c0.79382,-0.15482 1.61554,-0.42407 2.66669,-0.83334c0.72394,-0.28186 1.41385,-0.6282 2.5,-0.83334c0.63004,-0.11899 1.3277,-0.14413 2.41849,-0.16217c1.08136,-0.01788 1.76617,0.02789 2.74817,-0.04614c0.65485,-0.04938 1.67374,-0.27121 2.384,-0.52768c0.74942,-0.2706 1.48874,-0.6203 2.23199,-0.948c1.06,-0.46732 2.05582,-0.85501 2.70935,-1.07199c0.65591,-0.21777 2.05652,-0.6178 2.79999,-0.80002c0.74728,-0.18317 1.48685,-0.35236 2.55334,-0.48932c0.66669,-0.08563 1.6485,-0.12891 2.30533,-0.20535c1.40491,-0.16348 2.14337,-0.34348 2.89066,-0.52664c0.74347,-0.18222 1.80472,-0.487 2.47266,-0.68933c0.97906,-0.29657 1.63376,-0.51035 2.67401,-0.79984c0.72934,-0.20297 1.47464,-0.39893 2.22601,-0.543c1.42435,-0.27313 2.09299,-0.28391 3.00598,-0.38251c1.08292,-0.11694 1.79916,-0.32999 2.508,-0.58533c1.07303,-0.38654 1.70673,-0.59381 2.40002,-0.78934c1.08853,-0.30701 2.17334,-0.59549 2.85333,-0.80002c0.65063,-0.19568 1.58102,-0.49933 2.48532,-0.79999c0.90021,-0.29932 1.5,-0.5 2.39999,-0.79999c0.89999,-0.30002 1.80002,-0.60001 2.39999,-0.80002c1.20001,-0.40002 2.09698,-0.69574 2.67917,-0.89999c0.83768,-0.29388 1.83685,-0.70001 2.52084,-1c0.68399,-0.29999 1.67792,-0.71262 2.47916,-0.97916c0.74728,-0.2486 1.8793,-0.42429 2.6875,-0.6875c0.86096,-0.28043 1.66669,-0.83334 2.33334,-1.33334c0.66666,-0.5 1.46838,-1.06546 2.33334,-1.33334c0.78439,-0.24292 1.72354,-0.4787 2.35202,-0.74133c0.91309,-0.38153 2.16193,-0.03598 2.69312,-0.64682c0.58185,-0.66913 0.41083,-1.66132 1.2215,-1.77866c0.90588,-0.1311 1.55237,-0.79587 2.37921,-0.979c0.92432,-0.20471 1.39972,-0.73288 2.13147,-1.01016c0.89258,-0.33826 0.99365,-0.84216 1.42535,-1.58536c0.39679,-0.68307 1.56396,-0.42532 2.46399,-0.42532c0.88934,0 1.85718,0 2.70001,0l0.89984,0" id="svg_29" stroke-width="2" stroke="#000" fill="none"/>
  <path t="74270,74436,74436,74436,74452,74452,74452,74469,74469,74469,74489,74489,74502,74503,74503,74503,74519,74519,74519,74536,74536,74536,74552,74552,74552,74569,74569,74586,74586,74602,74603,74619,74619,74636,74652,74669,74669,74669,74686,74686,74702,74702,74719,74719,74719,74736,74736,74736,74752,74752,74769,74769,74786,74786,74802,74802,74802,74819,74837,74837,74837,74852,74852,74869,74869,74886,74886,74902,74902,74919,74919,74936,74952,74952,74953,74969,74986,74986,75002,75019,75019,75036,75118,75136" d="m525,256c-2.39868,3.31467 -3.0011,3.96088 -3.51465,4.59866c-0.62903,0.78122 -0.97949,1.4256 -1.36932,2.08667c-0.59119,1.00259 -0.92719,1.53906 -1.46338,2.30484c-0.61523,0.87863 -1.17578,1.49182 -1.81934,2.34317c-0.50452,0.66739 -0.86108,1.19226 -1.3493,2.06934c-0.49097,0.88193 -0.73248,1.4906 -1.07336,2.36133c-0.41754,1.06665 -0.71564,1.78113 -1.01062,2.46133c-0.40692,0.93835 -0.68256,1.72968 -1,2.51334c-0.37939,0.93661 -1.00754,1.69086 -1.27853,2.58264c-0.19949,0.65646 -0.12149,1.79468 -0.12149,2.56268c0,0.94135 0,1.63199 0,2.70532c0,0.832 0,1.74402 0,2.66135c0,0.74399 0,1.78 0,2.63199c0,0.96402 -0.02786,1.57938 0.00266,2.80133c0.02039,0.81668 -0.00381,1.40753 0.44,2.3945c0.32718,0.72757 1.08231,1.48026 1.38803,2.32019c0.26923,0.73962 0.46027,1.71356 0.97064,2.48532c0.50885,0.76947 0.79028,1.35892 1.51984,2.31583c0.46613,0.61139 1.10767,1.065 1.56897,2.04752c0.40796,0.86899 0.47662,1.63599 0.99652,2.26865c0.67242,0.81824 1.51654,1.18018 2.09186,1.80518c0.55994,0.60834 1.11493,1.45273 1.9068,1.76151c0.75677,0.2951 1.67365,0.74042 2.00482,1.57001c0.32794,0.82147 0.50293,1.77774 1.27655,2.34732c0.62054,0.45688 1.4502,0.67972 2.18665,1.39999c0.62579,0.61203 0.74127,1.50116 1.508,1.98935c0.90137,0.57391 1.69202,0.63599 2.22266,1.32666l0.79449,0.50549l0.12152,0.87833" id="svg_30" stroke-width="2" stroke="#000" fill="none"/>
  <path t="75888,76002,76019,76019,76019,76035,76036,76052,76052,76052,76068,76068,76085,76086,76102,76102,76118,76119,76119,76136,76137,76152,76152,76152,76168,76169,76169,76185,76186,76186,76186,76202,76202,76202,76218,76219,76219,76219,76235,76236,76236,76252,76252,76252,76252,76269,76270,76270,76285,76286,76286,76302,76302,76302,76302,76302,76318,76319,76319,76335,76336,76336,76337,76337,76352,76352,76352,76353,76368,76369,76370,76370,76385,76386,76386,76386,76402,76402,76402,76402,76418,76419,76419,76435,76436,76452,76452,76468,76469,76485,76519,76552,76585,76635,76636,76652,76669,76685,76702,76702,76718,76718,76735,76736,76737,76756,76756,76769,76769,76785,76786,76802,76802,76818,76819,76835,76836,76852,76852,76852,76868,76869,76869,76885,76886,76886,76902,76902,76902,76918,76919,76919,76935,76936,76952,76952,76969,76969,76985" d="m533,329c0.97919,2.52084 1,3.54285 1,4.26132c0,0.7905 0,1.81717 0,2.71783c0,1.02084 0,1.82083 0,2.62085c0,1 0,1.79999 0,2.79999c0,0.80002 0,1.80002 0,2.60001c0,1 0,1.79999 0,2.60001c0,1.00449 0,1.85715 0,2.82132c0,0.80402 0,1.62601 0,2.6575c0,0.70651 -0.0036,1.431 0.00018,2.564c0.0022,0.66702 0.01385,1.74432 0.08514,2.47452c0.104,1.06476 0.34747,2.04492 0.48932,2.672c0.27307,1.20749 0.36249,1.80933 0.40454,2.71066c0.04193,0.89923 0.02081,1.79999 0.02081,2.70001c0,0.89999 0,1.79999 0,2.69998c0,0.89999 0,1.5 0,2.70001c0,0.89999 0,1.5 0,2.70016c0,0.91049 0,1.53583 0,2.86649c0,0.71735 0,1.45868 0,2.20801c0,0.74133 -0.00677,2.14148 0.01068,2.79999c0.01727,0.65097 0.14728,1.9935 0.27332,2.71069c0.1322,0.75232 0.30737,1.52252 0.43201,2.31598c0.18768,1.19482 0.23663,1.99377 0.26318,2.77783c0.02588,0.7634 0.01044,1.85428 0.02533,2.86816c0.00958,0.6528 0.05627,1.6402 0.2168,2.67401c0.11401,0.73422 0.29163,1.47623 0.42603,2.22601c0.2558,1.42694 0.31146,2.09485 0.34198,3.04199c0.01965,0.6091 0.01068,1.80933 0.01068,2.68982c0,0.56369 0,1.83551 0,2.5c0,1.02084 -0.16699,1.85269 0.16669,2.85419c0.27155,0.815 0.81531,1.5661 0.83331,2.46664c0.01794,0.8985 0,1.75269 0,2.70001c0,0.79999 0.18146,1.72595 -0.03601,2.60001c-0.21716,0.87271 -0.74054,1.58148 -0.9848,2.39999c-0.25452,0.85284 -1.01019,1.22372 -1.64587,2.16666c-0.40387,0.59906 -0.37189,1.44763 -0.68597,2.43335c-0.25885,0.81229 -0.52734,1.80469 -0.67267,2.564c-0.15747,0.82285 -0.76367,1.46021 -1.36401,2.25732c-0.38409,0.50998 -0.53162,1.58725 -0.63599,2.328c-0.15692,1.11411 -0.50873,1.73697 -1.29602,2.57233c-0.49915,0.5296 -1.08472,1.10385 -1.65717,2.09967c-0.29578,0.51453 -0.59216,1.36078 -1.02148,2.41202c-0.29193,0.71478 -0.59509,1.38428 -1.16669,2.16666c-0.61615,0.84338 -1.07141,1.19421 -1.66663,2.16666c-0.46063,0.75253 -0.7063,1.59564 -1.16669,2.5c-0.35236,0.69211 -0.83331,1.5 -1,2.33334l-0.2215,0.97849l-0.38916,0.61084l-0.68481,0.70618" id="svg_31" stroke-width="2" stroke="#000" fill="none"/>
  <path t="77638,77768,77768,77768,77785,77786,77786,77801,77802,77802,77827,77827,77839,77839,77852,77852,77868,77869,77869,77869,77885,77886,77901,77902,77918,77935,77935,77952,77952,77968,77986,78018,78018,78035,78051" d="m527,449c6.59265,-1.75699 7.62897,-1.95566 8.43469,-1.991c0.98572,-0.04321 1.80365,0.0495 2.61267,-0.12332c1.05829,-0.22607 1.69037,-0.77621 2.34814,-1.18036c0.96954,-0.5957 1.80432,-0.69464 2.80432,-0.70532c0.7793,-0.0083 1.6377,0.05627 2.4975,-0.03601c1.07648,-0.11554 1.66589,-0.30194 2.62665,-0.57465c0.62769,-0.17819 1.58301,-0.66528 2.41968,-1.03217c0.87665,-0.3844 1.6106,-0.24805 2.63104,-0.36786c0.9632,-0.11307 1.58917,-0.60086 2.60382,-0.86783c0.80157,-0.21091 1.71857,-0.18442 2.43213,-0.54681c0.9068,-0.46054 1.72803,-0.564 2.64001,-0.57468l0.81067,0" id="svg_32" stroke-width="2" stroke="#000" fill="none"/>
  <path t="78204,78335,78335,78351,78352,78368,78368,78385,78386,78402,78402,78418,78418,78418,78435,78452,78452,78468,78502,78551" d="m564,442c0,-4.22934 0,-5.17868 0,-6.19983c0,-0.77933 0.00195,-1.77884 0,-2.55283c-0.00226,-0.90002 0.021,-1.81558 -0.44666,-2.63269c-0.36322,-0.63461 -1.052,-1.37207 -1.53253,-2.11465c-0.46722,-0.72205 -0.80219,-1.73114 -1.1875,-2.5c-0.38043,-0.75916 -0.83331,-1.5 -1.18597,-2.2955l-0.62201,-0.67917" id="svg_33" stroke-width="2" stroke="#000" fill="none"/>
  <path t="79204,79335,79351,79351,79368,79385,79401,79401,79418,79435,79435,79452,79468,79485,79501,79518,79535,79535,79552,79568,79568,79585,79585,79601,79601,79618,79618,79618,79618,79635,79635,79635,79651,79668,79668,79685,79685,79701,79718,79735" d="m551,423c0.61066,-3.04001 1.35748,-3.67996 1.64282,-4.35184c0.4151,-0.97742 0.19348,-1.90549 0.57849,-2.74817c0.30579,-0.66931 0.75348,-1.5531 1.06268,-2.38266c0.25061,-0.67233 0.80054,-1.59946 1.32666,-2.12799c0.68555,-0.68863 1.14862,-1.51553 1.39386,-2.34119c0.23749,-0.79959 0.6214,-1.40717 0.97015,-2.41217c0.29279,-0.84372 0.87958,-1.4899 1.3208,-2.29315c0.39673,-0.72232 0.64575,-1.74197 0.68372,-2.36368c0.06982,-1.14386 0.02081,-1.93631 0.02081,-2.78983c0,-0.59067 0,-1.78665 0,-2.64767c0,-0.771 -0.06885,-1.89935 0.16669,-2.70831c0.25092,-0.86172 0.66663,-1.66669 0.8288,-2.52884l0.00452,-0.90451l0,-0.89999l0,-0.89999" id="svg_34" stroke-width="2" stroke="#000" fill="none"/>
  <path t="80153,80217,80218,80235,80235,80251,80267,80284,80285,80285,80301,80302,80317,80334,80335,80351,80368,80368,80401,80417,80451,80467,80484,80517,80534,80567,80568,80585,80601,80617,80634,80635,80651,80667" d="m560,373c0,-2.60001 0,-3.39999 0,-4.59549c0,-0.74734 0.08051,-1.65085 -0.00134,-2.60583c-0.08368,-0.9758 -0.47772,-1.61639 -0.71466,-2.39999c-0.2951,-0.97607 -0.28174,-1.74152 -0.284,-2.77335c-0.00208,-0.94666 0,-1.62534 0,-2.73999c0,-0.88535 0,-1.68533 0,-2.58536c0,-0.86398 0,-1.73599 0,-2.69998c0,-0.89551 0,-1.76666 0,-2.70001c0,-0.89999 -0.09558,-1.694 -0.5,-2.39999c-0.45447,-0.79343 -0.5,-1.70132 -0.5,-2.66666l0,-0.8125l0,-0.9595l0,-0.823" id="svg_35" stroke-width="2" stroke="#000" fill="none"/>
  <path t="80920,81085,81085,81101,81101,81118,81119,81135,81136,81136,81151,81151,81167,81168,81168,81168,81184,81185,81185,81201,81201,81201,81201,81217,81218,81218,81234,81235,81235,81251,81251,81251,81251,81267,81267,81284,81285,81285,81301,81301,81317,81317,81318,81334,81335,81351,81351,81351,81367,81368,81384,81385,81400,81401,81417,81418,81418,81435,81435,81450,81451,81467,81484,81485,81485,81500,81501,81517,81518,81534,81550,81551,81567,81568,81584,81585,81600,81601,81617,81618,81635,81635,81650,81651,81667,81667,81668,81668,81684,81685,81685,81685,81706,81706,81706,81706,81717,81717,81718,81734,81735,81735,81750,81751,81767,81768,81768,81784,81785,81785,81801,81817,81818,81818,81834,81835,81850,81851,81867,81868,81885,81900,81901,81901,81917,81917,81934,81935,81950,81951,81951,81967,81968,81984,81985,81985,82000,82001,82017,82018,82034,82035,82051,82051,82051,82067,82068,82084,82085,82100,82101,82117,82117,82134,82135,82150,82167,82168,82168,82184,82185,82200,82201,82201,82217,82217,82234,82235,82250,82251,82267,82267,82268,82284,82285,82300,82301" d="m560,329c1.40002,-3.33865 1.83209,-3.86285 2.29999,-4.65717c0.43024,-0.73038 0.90002,-1.74283 1.20001,-2.34283c0.5,-1 0.85858,-1.82556 1.25714,-2.34283c0.64832,-0.84137 1.49756,-1.24847 2.07617,-1.99051c0.48767,-0.62546 0.76849,-1.46408 1.05066,-1.98398c0.55615,-1.02457 1.14435,-1.67636 1.71735,-2.36667c0.60675,-0.73093 1.00616,-1.26794 1.59869,-2.12668c0.40515,-0.58713 0.9978,-1.49036 1.39551,-2.08032c0.56561,-0.83896 1.21954,-1.79065 1.65631,-2.30368c0.53625,-0.62985 1.29083,-1.34799 1.75348,-1.81067c0.74402,-0.74402 1.22668,-1.22668 2.02533,-2.02533c0.58405,-0.58401 1.29907,-1.28278 1.79468,-1.80533c0.53113,-0.56003 1.30927,-1.55234 1.65387,-2.164c0.55341,-0.98233 0.85687,-1.57794 1.16364,-2.34283c0.35736,-0.89111 0.48529,-1.64905 1.06702,-2.66251c0.29083,-0.50674 0.81866,-1.21835 1.5285,-2.18481c0.40643,-0.55334 0.67566,-1.47247 0.81433,-2.21436c0.18787,-1.00491 0.55371,-1.79761 0.94733,-2.59549c0.39575,-0.80212 0.79309,-1.60349 1.20001,-2.39868c0.39337,-0.76874 1.00122,-1.51331 1.44281,-2.29681c0.44708,-0.79324 0.34052,-1.84763 0.36786,-2.55518c0.02881,-0.74487 0.32922,-1.75433 0.63666,-2.4975c0.36377,-0.87927 0.35193,-1.76782 0.35266,-2.6265c0.00085,-0.94684 -0.03662,-1.85242 0.22131,-2.82516c0.15991,-0.603 0.59039,-1.63907 0.80402,-2.42551c0.23505,-0.86542 0.61243,-1.52878 0.89069,-2.49066c0.21844,-0.75519 0.56421,-1.70135 0.79999,-2.48532c0.29749,-0.98914 0.27863,-1.67065 0.284,-2.73203c0.00317,-0.63599 0,-1.6875 0,-2.41849c0,-1.08151 0,-2.09549 0,-2.74817c0,-0.65266 0,-2.02116 0,-2.74817c0,-0.731 0,-1.442 0,-2.709c0,-0.78149 0,-1.72549 0,-2.72684c0,-0.81599 0,-1.63199 0,-2.63199c0,-0.68401 0,-1.85068 0,-2.63667c0,-0.82201 0,-1.88066 0,-2.58566c0,-0.8 0,-1.847 0,-2.795c0,-0.91734 0,-1.66133 0,-2.69734c0,-0.7175 0,-1.6265 0,-2.57066c0,-0.99417 0,-1.7415 0,-2.646c0,-0.91934 0,-1.79434 0,-2.43933c0,-1.26151 0,-2.052 0,-2.98001c0,-0.83333 0,-1.87599 0,-2.584c0,-0.74399 0,-1.78133 0,-2.55466c0,-0.964 0,-1.7155 0,-2.51201c0,-1.22549 0,-2.07816 0,-3.08266c0,-0.8 0,-1.8 0,-2.60001c0,-1 0,-1.8 0,-2.60001c0,-1 0,-1.79999 0,-2.79999c0,-0.8 0,-1.79984 0,-2.57918c0,-0.85416 0,-1.7735 0,-2.67349c0,-0.69467 0,-1.73267 0,-2.68066c0,-0.91734 0.03668,-1.66203 -0.00134,-2.69867c-0.02844,-0.77483 -0.28265,-1.73601 -0.49866,-2.468c-0.216,-0.73199 -0.44922,-1.85437 -0.58398,-2.468c-0.2301,-1.04773 -0.46851,-1.80826 -0.91602,-2.69867c-0.35529,-0.70697 -1.008,-1.66313 -1.29999,-2.33417c-0.30847,-0.70886 -0.79999,-1.63499 -1.40002,-2.09999l-0.59998,-0.60901l-0.5,-0.8075" id="svg_36" stroke-width="2" stroke="#000" fill="none"/>
  <path t="83069,83217,83217,83234,83234,83234,83250,83250,83250,83250,83267,83267,83267,83267,83285,83285,83286,83286,83344,83345,83345,83345,83345,83345,83398,83398,83398,83398,83398,83398,83398,83398,83398,83400,83400,83400,83400,83400,83400,83451,83451,83451,83451,83451,83452,83452,83452,83497,83497,83497,83497,83497,83497,83497,83497,83497,83499,83499,83499,83499,83542,83542,83542,83542,83585,83585,83585,83585,83585,83586,83586,83586,83587,83587,83587,83587,83587,83588,83589,83589,83589,83633,83633,83634,83634,83676,83676,83676,83676,83676,83676,83676,83676,83678,83678,83678,83678,83678,83679,83722,83722,83722,83723,83723,83766,83767,83767,83767,83767,83767,83767,83767,83767,83776,83776,83776,83776,83777,83777,83777,83779,83779,83779,83779,83779,83823,83824,83824,83824,83824,83833,83833,83833,83833,83833,83833,83833,83834,83834,83877,83877,83877,83877,83877,83879,83879,83879,83879,83879,83924,83924,83924,83924,83969,83969,83969,83970,83970,83970,83970,83970,83970,83972,83972,83972,83972,83972,83972,83974,83974,83974,83974,84020,84020,84020,84020,84020,84021,84034,84034,84035,84035,84035,84036,84036,84036,84036,84050,84051,84051,84051,84052,84067,84067,84067,84068,84084,84084,84085,84085,84100,84101,84101,84117,84117,84117,84134,84134,84135,84135,84150,84150,84151,84167,84168,84168,84168,84184,84184,84184,84185,84185,84200,84200,84201,84201,84220,84220,84221,84221,84234,84234,84235,84250,84250,84251,84251,84266,84267,84267,84268,84284,84284,84285,84285,84300,84300,84301,84317,84317,84318,84318,84334,84334,84335,84350,84350,84351,84351,84367,84367,84368,84368,84384,84384,84385,84385,84385,84400,84400,84401,84401,84416,84417,84418,84434,84434,84435,84450,84450,84451,84451,84466,84467,84467,84484,84484,84485,84485,84500,84500,84516,84517,84517,84534,84534,84535,84550,84551,84551,84567,84568,84568,84584,84600,84600,84601,84616,84617,84618,84634,84634,84650,84651,84666,84667,84684,84684,84685,84700,84701,84716,84717,84718,84734,84734,84735,84750,84751,84751,84766,84767,84783,84784,84785,84785,84800,84801,84802,84816,84817,84841,84842,84842,84853,84853,84869,84869,84870,84885,84885,84885,84902,84903,84918,84918,84918,84933,84934,84935,84935,84950,84950,84950,84966,84967,84983,84984,84985,85000,85001,85001,85016,85017,85033,85034,85035,85050,85051,85051,85073,85074,85074,85097,85097,85118,85119,85140,85141,85163,85182,85201,85201,85203,85205,85227" d="m310,156c3.54733,0 4.22537,0.00763 5.42151,-0.00017c0.81454,-0.00531 1.397,0.02235 2.57849,-0.1665c0.91275,-0.1459 1.52054,-0.35521 2.48532,-0.63466c1.03568,-0.29997 1.77005,-0.49402 2.51468,-0.7195c0.75018,-0.22716 1.84033,-0.63124 2.51599,-0.96317c0.66583,-0.3271 1.28339,-0.74641 2.65067,-1.34933c0.71432,-0.315 1.53323,-0.56306 1.97919,-0.70834c1.00137,-0.32622 1.57077,-0.50365 2.85416,-0.95833c0.72974,-0.25853 1.50284,-0.55017 2.31149,-0.8535c0.83002,-0.31134 1.66678,-0.62805 2.50052,-0.93449c0.81396,-0.29918 1.59085,-0.59897 3.02133,-1.04533c0.61365,-0.19148 1.17004,-0.3502 2.15732,-0.54401c0.875,-0.17175 1.74478,-0.26981 2.67599,-0.45599c1.08176,-0.21629 1.67148,-0.37923 2.29868,-0.53867c0.66016,-0.1678 1.34924,-0.3497 2.06699,-0.537c0.74359,-0.19405 2.3006,-0.59273 3.10953,-0.79083c0.81906,-0.20059 1.64096,-0.39577 2.45547,-0.58951c0.79849,-0.18993 1.57245,-0.37297 2.31152,-0.5535c0.6969,-0.17023 2.44614,-0.61911 3.2955,-0.89999c0.67511,-0.22327 1.46292,-0.57864 2.48898,-0.95851c0.60184,-0.22281 1.33081,-0.44389 2.22,-0.68399c1.08368,-0.29262 1.71402,-0.43951 3.10718,-0.76733c0.74173,-0.17453 1.50027,-0.34764 2.26349,-0.522c0.75711,-0.17297 1.4978,-0.33936 2.88266,-0.65866c0.62573,-0.14427 1.7392,-0.40678 2.23203,-0.53067c0.8772,-0.22052 1.63666,-0.39835 2.83197,-0.836c0.75723,-0.27725 1.44312,-0.62323 2.46268,-1.00134c0.60172,-0.22314 1.33081,-0.44389 2.22,-0.68399c1.08368,-0.29262 1.71439,-0.43793 2.392,-0.59866c1.45636,-0.34547 2.21545,-0.51631 2.97867,-0.69067c0.75711,-0.17297 1.49774,-0.33961 2.88266,-0.65866c0.62604,-0.14423 1.74689,-0.40778 2.25336,-0.52c0.92557,-0.20508 1.76932,-0.39238 2.98114,-0.52533c0.82822,-0.09087 1.27344,-0.09695 2.25085,-0.14667c0.54813,-0.02788 2.51483,-0.13898 3.29733,-0.19617c0.83884,-0.06131 1.71954,-0.13333 2.62799,-0.21451c0.92288,-0.08246 1.84564,-0.17166 2.754,-0.26849c0.88098,-0.09392 2.50259,-0.29134 3.21817,-0.39534c0.65375,-0.09502 1.25064,-0.19398 1.79849,-0.28949c0.50644,-0.08829 1.41608,-0.28465 2.65201,-0.444c0.79764,-0.10284 1.60028,-0.13736 2.39999,-0.192c0.80029,-0.05469 2.00211,-0.18968 2.827,-0.33183c0.43762,-0.07541 1.38815,-0.25836 1.91602,-0.34734c1.85419,-0.31256 2.58447,-0.39833 3.35965,-0.49417c0.80847,-0.09996 1.63843,-0.19289 2.4765,-0.2805c0.83261,-0.08704 1.6474,-0.16685 2.43152,-0.23549c1.42218,-0.12447 2.03876,-0.16759 2.59332,-0.20001c0.95432,-0.0558 1.75729,-0.07999 3.16266,-0.08533c0.71735,-0.00272 1.45868,0 2.20801,0c0.74133,0 2.14978,0.01053 2.86401,-0.02133c0.80344,-0.03584 1.26028,-0.06924 2.92798,-0.312c0.68433,-0.09961 1.42288,-0.23347 2.20651,-0.37201c0.81503,-0.14409 1.64746,-0.29592 2.4855,-0.44399c0.82962,-0.14658 1.63629,-0.29852 3.14133,-0.51733c0.67001,-0.0974 1.28638,-0.18275 2.384,-0.26134c0.9509,-0.06808 1.80798,-0.07066 3.01599,-0.072c0.80002,-0.00089 1.60001,0 2.39999,0c1.20001,0 1.60101,0 2.427,0c0.89801,0 1.91602,0 2.48502,0c1.28799,0 2.01584,0 2.79065,0c0.80884,0 1.63867,0 2.4765,0c0.83286,0 1.64767,0 2.43152,0c1.42267,0 2.59332,0 3.09366,0c0.87067,0 1.97168,0 3.017,0c0.73132,0 1.47867,0 2.22601,0c1.43115,0 2.09549,0 3.04199,0c0.60934,0 1.81067,0 2.71066,0c0.60001,0 1.79999,0 2.70001,0c0.59998,0 1.79999,0 2.69998,0c0.60001,0 1.5,0 2.70132,0c0.60934,0 1.55585,0 2.56534,0c0.71869,0 1.46933,0 2.24402,0c1.58932,0 2.38931,0 3.18933,0c0.79999,0 1.60001,0 2.79984,0c0.79565,0 1.57932,0 2.34299,0c1.09052,0 1.77051,0 2.71552,0c0.85501,0 1.85898,0 2.56247,0c0.74854,0 1.94983,0 2.65118,0c0.74933,0 1.53064,-0.00317 2.72784,0.00017c0.79565,0.00222 1.58099,-0.00467 2.34302,0.057c1.44031,0.11656 2.10547,0.2804 3.04645,0.5535c0.61322,0.17796 1.80762,0.59795 2.41071,0.77866c0.89563,0.26836 1.79675,0.47533 2.70001,0.55351c0.89783,0.07771 1.5,0.05649 2.70129,0.05716c0.91949,0.0005 1.55585,-0.00209 2.56537,0c1.086,0.00226 1.83453,0.00143 2.58063,0.05716c1.0885,0.08128 1.7735,0.20883 2.75269,0.46367c0.65613,0.17076 1.66559,0.48315 2.38531,0.67917c0.74957,0.20415 1.52509,0.40103 2.31604,0.60001c1.19812,0.30139 1.99243,0.50299 2.77783,0.67917c0.76208,0.17094 2.19781,0.41466 2.85913,0.46367c0.9137,0.06772 1.9964,0.02034 2.70905,0.06616c0.90948,0.05849 1.88043,0.42163 2.40979,0.70084c0.8642,0.4558 1.42438,0.84889 2.64282,1.40483c0.59113,0.26973 1.19867,0.47855 2.40002,0.88533c0.89453,0.3029 1.48468,0.48512 2.31464,0.8c1.00702,0.38205 1.66583,0.69734 2.68536,1.2c0.60529,0.29843 1.45313,0.7099 2.42114,1.10017c0.79028,0.3186 1.39539,0.41832 2.24554,1.0665c0.75421,0.57507 1.04047,1.26906 1.65466,2.03299c0.63782,0.7933 1.20679,1.21054 2.05334,1.76035c0.80389,0.52209 1.28296,1.09879 1.79999,1.79999c0.6651,0.90196 1.16382,1.61058 1.70929,2.03734c0.72528,0.56747 1.52155,0.9028 2.23206,1.68533c0.55829,0.61484 1.22498,1.22281 2.05865,1.56799c0.82654,0.34221 1.30902,1.0025 1.70929,1.552c0.73926,1.01494 1.29126,1.56079 1.94934,2.23067c0.54181,0.55156 1.0675,1.12363 1.6507,1.936c0.53162,0.74054 0.88342,1.27042 1.49451,2.30917c0.39874,0.67787 0.81409,1.52321 1.22284,2.32283c0.42834,0.83791 0.96179,1.76752 1.28265,2.28267c0.51038,0.8195 0.88855,1.34831 1.49432,2.3945c0.39154,0.67619 0.73059,1.30011 0.93768,2.32283c0.16705,0.82504 0.22296,1.77261 0.44116,2.54683c0.22516,0.79903 0.74805,1.90591 1.14282,2.55183c0.50677,0.82922 0.82745,1.49948 1.06403,2.28534c0.31195,1.03609 0.4032,1.75633 0.43146,2.61015c0.03326,1.00531 0.00452,1.8405 0.00452,2.77118c0,0.7905 0,1.644 0,2.83333c0,0.60001 0,1.5 0,2.39999c0,0.89967 0,1.77867 0,2.58568c0,1.04767 0,1.87683 0,2.77849c0,0.9225 0,1.59584 0,2.90251c0,0.819 0,1.51199 0,2.53349c0,0.82066 0,1.96651 0,2.7525c0,0.82201 0,1.88066 0,2.59467c0,0.67799 0,1.87401 0,2.67799c0,0.82201 0,1.85301 0,2.528c0,1.08 0,1.87201 0,2.73067c0,0.86334 0,1.88 0,2.716c0,0.90018 0,1.68533 -0.01068,2.61467l-0.21063,0.9425l-0.6947,0.52817" id="svg_37" stroke-width="2" stroke="#000" fill="none"/>
  <path t="87403,87499,87516,87516,87533,87549,87549,87566,87566,87583,87583,87599,87599,87616,87633" d="m469,327c0.97916,2.5 1,3.48267 1,4.29016c0,0.96317 0,1.77234 0,2.70901c0,0.858 0,1.74899 0,2.65799c0,0.74734 0,1.74152 0,2.68567l0,0.89999l0,0.95718" id="svg_38" stroke-width="2" stroke="#000" fill="none"/>
  <path t="88901,89132,89149,89165,89166,89183,89199,89199,89199,89215,89216,89216,89216,89216,89233,89233,89233,89234,89249,89249,89249,89249,89249,89249,89249,89249,89266,89266,89266,89266,89266,89266,89266,89267,89267,89283,89283,89283,89284,89284,89284,89284,89284,89284,89299,89300,89300,89300,89300,89317,89317,89317,89318,89318,89333,89333,89333,89333,89333,89334,89334,89334,89349,89349,89349,89349,89349,89350,89365,89366,89366,89366,89366,89366,89366,89383,89383,89383,89383,89383,89399,89399,89399,89399,89400,89416,89416,89416,89416,89432,89433,89433,89433,89449,89449,89449,89449,89466,89467,89482,89483,89499" d="m470,354c1.99734,0.80133 2,1.63599 2,2.65268c0,0.69464 0.08875,1.77475 -0.33334,2.51398c-0.43433,0.76062 -1.10297,1.33304 -1.66666,2.16669c-0.42084,0.62238 -0.80167,1.32706 -1.20001,2.052c-0.4017,0.73105 -0.99084,1.79935 -1.409,2.46649c-0.42313,0.67508 -0.89542,1.3653 -1.72433,2.48151c-0.30652,0.41272 -0.99219,1.29184 -1.37067,1.75998c-0.39774,0.49197 -0.82257,1.00235 -1.27649,1.53c-0.47531,0.55249 -1.51688,1.71246 -2.08368,2.31934c-0.58643,0.62787 -1.19675,1.26419 -1.82248,1.90802c-0.6326,0.65088 -1.27258,1.29938 -1.91251,1.944c-0.63342,0.63806 -1.86801,1.87146 -2.45734,2.46216c-0.56934,0.57068 -1.11789,1.12216 -1.6395,1.66049c-0.50201,0.5181 -0.97897,1.02142 -1.42349,1.51651c-0.42599,0.47446 -1.52335,1.83945 -1.82584,2.27951c-0.57104,0.83075 -1.05356,1.64322 -1.29834,2.02499c-0.70825,1.10458 -1.23734,1.78506 -1.80301,2.45767c-0.59409,0.70636 -0.9343,1.05548 -1.91998,2.30399c-0.36206,0.45859 -0.7207,0.95187 -1.46933,1.98666c-0.38589,0.53342 -0.77252,1.07492 -1.16852,1.61249c-0.39468,0.53577 -1.59198,2.061 -1.99548,2.53152c-0.39661,0.46246 -1.19952,1.34894 -1.60001,1.784c-0.39951,0.43396 -1.60254,1.74979 -1.99966,2.20667c-0.40024,0.46045 -1.1821,1.40155 -1.55869,1.87866c-0.37274,0.47226 -1.08865,1.40396 -1.70831,2.33334c-0.57944,0.86908 -0.82578,1.30112 -1.29169,2.125c-0.43906,0.7764 -1.03143,1.88113 -1.44299,2.55634c-0.39951,0.65543 -0.81979,1.28592 -1.284,1.884c-0.71341,0.91916 -1.26855,1.49631 -1.79382,2.10132c-0.51669,0.59512 -1.22296,1.48029 -1.711,2.39999c-0.31216,0.58829 -0.51929,1.2193 -1.13116,2.39966c-0.31195,0.60181 -0.84094,1.43701 -1.19467,1.92969c-0.70267,0.97864 -1.28268,1.65332 -1.784,2.41882l-0.40002,0.642l-0.77914,0.689" id="svg_39" stroke-width="2" stroke="#000" fill="none"/>
  <path t="89935,90015,90015,90032,90033,90033,90049,90049,90066,90066,90066,90082,90083,90083,90099,90099,90115,90215,90232,90233,90249,90249,90249,90249,90249,90265,90266,90266,90266,90266,90283,90283,90283,90283,90283,90299,90299,90299,90299,90299,90315,90315,90316,90316,90316,90316,90332,90333,90333,90333,90333,90349,90349,90349,90349,90365,90366,90366,90382,90383,90399,90399,90415,90432,90498" d="m420,428c-2.60001,0.95184 -3.44919,1.01495 -4.39999,1.56799c-0.6391,0.37173 -1.17398,0.92432 -2.20001,1.33118c-0.7829,0.31046 -1.62067,0.74573 -2.19998,1.38748c-0.41528,0.46005 -1.1694,1.41739 -1.7955,1.89902c-0.71506,0.55008 -1.67825,0.88855 -2.11786,1.61432c-0.48868,0.80676 -0.27771,1.93799 0.61734,2.164c0.65665,0.1658 1.59601,0.03601 2.35068,0.03601c0.84265,0 1.74133,0.00012 2.664,0c1.35983,-0.00018 1.79651,0.01404 2.64532,-0.02133c0.82617,-0.03442 1.64941,-0.09097 2.83618,-0.42151c0.81641,-0.22739 1.61935,-0.58136 2.457,-0.909c0.42749,-0.16721 1.76077,-0.63953 2.69998,-0.89099c0.47714,-0.12775 1.45294,-0.34918 1.94733,-0.45267c1.49384,-0.31265 2.49551,-0.50452 2.99551,-0.60449c1,-0.19998 1.5,-0.30002 2.5,-0.5c1,-0.20001 1.9967,-0.40204 2.97867,-0.58936c0.47937,-0.09146 1.40347,-0.27896 2.68799,-0.444c0.76086,-0.09778 1.46329,-0.12021 2.42435,-0.21933c0.91129,-0.09399 1.80106,-0.29596 2.63699,-0.522c0.93988,-0.25415 1.77051,-0.36414 2.75601,-0.70932c0.70718,-0.24771 1.63065,-0.63068 2.51599,-0.716l0.91599,0" id="svg_40" stroke-width="2" stroke="#000" fill="none"/>
  <path t="90835,91115,91165,91166,91215,91265,91298,91315,91315,91315,91332,91333,91349,91349,91350,91365,91365,91366,91382,91383,91383,91398,91399,91399,91415,91415,91416,91416,91432,91433,91433,91433,91433,91452,91452,91452,91452,91465,91466,91466,91466,91466,91482,91483,91483,91483,91483,91498,91499,91499,91499,91515,91515,91516,91516,91516,91532,91533,91533" d="m457,431c-1.991,-4.03915 -1.85394,-5.02771 -2.05716,-5.70001c-0.26456,-0.87527 -0.99506,-1.59521 -0.94269,-2.52167c0.05417,-0.95801 0.39078,-1.62946 0.80118,-2.29431c0.56088,-0.90863 1.16901,-1.45367 1.96667,-2.25201c0.48245,-0.48288 0.98331,-0.97937 1.89865,-1.89865c0.52463,-0.52689 1.09357,-1.12946 1.65485,-1.87601c0.52594,-0.69955 0.82755,-1.26352 1.6785,-2.12399c0.56201,-0.5683 1.24915,-0.93033 2,-1.66669c0.65015,-0.63757 1.01605,-1.21204 1.45715,-1.77567c0.70193,-0.89697 1.21793,-1.49939 1.77884,-2.08032c0.56451,-0.58466 1.14789,-1.14636 2.064,-1.88934c0.88367,-0.71664 1.50781,-1.1366 2.10001,-1.60532c0.91251,-0.72223 1.50491,-1.27274 2.12085,-1.83685c0.63675,-0.58319 0.95349,-0.89331 2.00034,-1.77914c0.71954,-0.60889 1.10022,-0.892 1.81747,-1.5c0.69867,-0.59225 1.63138,-1.4888 2.15152,-2.10001c0.50165,-0.58948 0.94061,-1.21417 1.67648,-2.10001c0.50558,-0.60861 1.05466,-1.19321 1.608,-1.76401c0.53748,-0.55444 1.53867,-1.55066 1.97867,-2l0.58502,-0.6315" id="svg_41" stroke-width="2" stroke="#000" fill="none"/>
  <path t="91885,91965,91965,91982,91982,91983,91998,91999,91999,92015,92015,92032,92032,92033,92048,92049,92065,92082,92082,92098,92148,92182,92182,92198,92199,92216,92248,92248,92265,92265,92299,92299,92315,92332,92333,92350,92350,92350" d="m485,387c2.11334,-4.22934 2.54291,-4.93167 2.83334,-6c0.21637,-0.7959 0.20392,-1.48538 0.6095,-2.42117c0.35672,-0.82309 0.89484,-1.57932 1.3905,-2.24548c0.51614,-0.69373 1.17465,-1.66315 1.46664,-2.33417c0.3085,-0.70889 0.79861,-1.63705 1.5,-2.08051c0.69864,-0.44171 1.50385,-1.0423 1.91467,-1.71866c0.47144,-0.77612 1.04117,-1.40204 1.452,-2.20001c0.34589,-0.67181 0.57874,-1.53101 0.88602,-2.29016c0.3461,-0.85501 0.92816,-1.58124 0.94598,-2.3125c0.02411,-0.98804 0.00134,-1.82666 0.00134,-2.84018c0,-0.74249 0,-1.67181 0,-2.6575c0,-0.71399 0,-1.67032 0,-2.44131l0,-0.86102" id="svg_42" stroke-width="2" stroke="#000" fill="none"/>
  <path t="92702,92848,92865,92865,92865,92882,92882,92882,92898,92899,92915,92915,92916,92932,92932,92932,92948,92949,92965,92965,92982,92982,92998,93015,93048,93082,93132,93148,93148,93166,93182,93215,93215,93215,93232,93232" d="m495,322c2.892,3.34933 2.98849,4.33353 3.00449,5.00983c0.01834,0.77594 0.12894,1.83313 0.34818,2.5285c0.25638,0.81311 0.61111,1.85956 0.73135,2.51633c0.18341,1.00186 0.35446,1.62921 0.56332,2.6445c0.19852,0.965 0.25046,1.79364 0.40533,2.69183c0.17569,1.01886 0.61539,1.74405 0.82584,2.58768c0.22104,0.88611 0.12149,1.84668 0.12149,2.53732c0,1.07333 0,1.884 0,2.784c0,0.99551 0,1.86667 0,2.70001c0,0.79999 0,1.70001 0,2.64282c0,1.02133 0,1.64383 0,2.59052l0,0.96133l0,0.77332" id="svg_43" stroke-width="2" stroke="#000" fill="none"/>
 </g>
 <g display="none">
  <title>muse_image</title>
  <image xlink:href="http://farm3.static.flickr.com/2250/1601761565_4ef79a4c73.jpg" id="muse" height="391" width="640" y="44.5" x="0"/>
 </g>
 <g display="none">
  <title>bbox</title>
  <rect stroke="#f00" fill="none" stroke-width="3" height="320.72222" width="522.24" y="84.11111" x="53.76" id="bbox"/>
 </g>
</svg>
