<svg width="640" height="480" xmlns="http://www.w3.org/2000/svg" xmlns:svg="http://www.w3.org/2000/svg" xmlns:xlink="http://www.w3.org/1999/xlink">
 <!-- Sketchy ANNOTATION
  ImageNet ID: n02395406_892
  URL: http://farm2.static.flickr.com/1315/1133313104_01dd30edf4.jpg
  Image Width: 500
  Image Height: 375
  BBox X: 0
  BBox Y: 49
  BBox Width: 429
  BBox Height: 318
  Exposure: 2000ms
  Synset Label: pig
  Synset ID: n02395406
  Worker Tag: large black hog in mud
  Sanity Check: 
   Context
   Saved
   Shading
  Comment: 
   {}
  Worker ID: A2HM35CWB7IIFM
  Assignment ID: 36NEMU28XFDVNP2GA8JIUQS3776MWO
  HIT ID: 3GONHBMNHVYXU09RVTYN4AR0OKQZMJ
  Work Time: 98s
  Worker Score: 0.8571
 END ANNOTATION -->
 <g display="inline">
  <title>Layer 1</title>
  <path t="0,196,198,213,214,228,228,232,232,232,242,255,271,280,292,292,304,304,320,320,329,329,329,340,340,340,340,354,354,371,371,377,378,378,390,390,405,405,415,415,427,427,427,427,438,439,439,439,455,455,455,456,464,464,465,476,477,487,488,488,504,505,512,525,525,537,538,538,538,554,554,554,554,554,562,562,562,563,563,574,575,575,575,587,587,587,605,606,606,612,612,623,623,623,637,638,638,654,654,654,661,661,661,661,673,673,673,673,687,687,688,698,698,698,698,710,710,721,722,738,747,747,759,759,770,787,787,787,796,797,797,797,808,808,808,821,821,821,821,837,837,837,837,845,845,858,858,858,871,872,887,894,894,894,906,907,907,921,921,921,937,937,937,937,944,944,944,944,945,955,955,955,955,971,971,971,981,981,981,992,992,1004,1005,1021,1021,1029,1030,1030,1030,1042,1042,1042,1042,1043,1054,1054,1054,1054,1055,1055,1055,1055,1071,1071,1071,1072,1072,1072,1072,1072,1073,1079,1079,1080,1080,1080,1080,1081,1081,1090,1090,1091,1091,1091,1091,1104,1104,1105,1121,1121,1122,1128,1128,1140,1140,1154,1154,1170" d="m24,117.9c2.6,0 3.6002,0.01665 4.4,-0.00134c0.80055,-0.01801 1.81408,-0.18495 2.6,-0.5195c1.02028,-0.43431 1.57447,-0.82407 2.34283,-1.12199c0.99808,-0.38699 1.95716,-0.35717 2.85717,-0.35717c0.9,0 1.8,0 2.55717,0c0.9,0 1.64733,0 2.64417,0c0.83467,0 1.76534,0 2.55583,0c0.8535,0 2.04284,0 2.93834,0c0.58367,0 1.41917,0 2.64734,0c0.6465,0 1.65717,0 2.45716,0c1,0 1.8,0 2.6,0c1,0 1.8,0 2.79867,0c0.94417,0 1.85767,0 2.656,0c1.00133,0 1.65333,0 2.37733,0c0.772,0 1.968,0 2.768,0c0.8,0 1.60001,0 2.8,0c0.79733,0 1.57867,0 2.68567,0c0.981,0 1.8,0.0006 2.70533,0c1.01034,-0.00067 1.85218,0.00766 2.77567,-0.16666c0.78939,-0.14901 1.55998,-0.45585 2.5,-0.66667c0.90282,-0.20248 1.744,-0.16666 2.655,-0.16666c0.925,0 1.845,0 2.6445,0c0.9165,0 1.60583,0 2.77683,0c0.87134,0 1.329,0 2.27834,0c0.98134,0 1.97867,0 2.976,0c0.98134,0 1.46101,0 2.38834,0c1.281,0 2.04367,0 2.74233,0c0.96301,0 1.87218,0.01398 2.7675,-0.0045c0.86889,-0.01794 1.94545,-0.13522 2.64733,-0.34817c0.86329,-0.26191 1.85477,-0.59501 2.65717,-0.63667c0.99888,-0.05186 1.82084,-0.01067 2.48534,-0.01067c1,0 1.8355,0 2.716,0c0.89867,0 1.79866,0 2.69866,0c0.9,0 1.8045,0 2.736,0c0.64934,0 1.68533,0 2.78934,0c0.74933,0 1.49068,0.00558 2.55316,-0.00017c0.98554,-0.00533 1.61757,0.01611 2.8215,-0.1665c0.60316,-0.09148 1.47338,-0.35708 2.31467,-0.54934c0.99264,-0.22685 1.83862,-0.27866 2.80133,-0.284c0.76799,-0.00426 1.70934,0 2.71733,0c0.79201,0 1.65067,0 2.51401,0c1.03799,0 1.98599,0 2.66699,0c0.80701,0 1.98567,0 2.58568,0c0.89999,0 1.79999,0 2.70016,0c0.91049,0 1.85699,0 2.8665,0c0.71733,0 1.45866,0 2.20799,0c1.45866,0 2.13867,0 3.08366,0c0.58,0 1.85634,0 2.52084,0c1.02083,0 1.82083,0 2.62083,0c0.9955,0 1.91794,-0.06557 2.78532,0.01067c0.95706,0.08412 1.62054,0.35632 2.40001,0.564c1.04305,0.27792 1.98882,0.40384 2.66733,0.42083c1.23361,0.03089 1.79401,0.0045 2.709,0.0045c1.005,0 1.72408,-0.01521 2.85916,0.02084c0.78412,0.0249 1.98175,0.12956 2.77783,0.2645c0.79359,0.13451 1.56778,0.31598 2.31601,0.516c1.06747,0.28536 1.72971,0.49384 2.67467,0.79867c0.61034,0.19688 1.80713,0.60564 2.39999,0.78934c0.85046,0.26352 1.88922,0.48895 2.78984,0.61066c0.61952,0.08373 1.64389,0.30316 2.36366,0.7045c0.94583,0.52739 1.5264,1.11903 2.31883,1.6c0.57481,0.34888 1.50679,0.8593 2.3,1.35267c0.58131,0.36157 1.19241,0.76034 2.205,1.34283c0.71608,0.41193 1.49231,0.81831 2.31599,1.272c0.43706,0.24073 1.85246,1.05838 2.3605,1.37133c0.53073,0.32693 1.08215,0.67033 2.21933,1.44c0.59828,0.40494 1.20764,0.83455 1.8255,1.29c1.28705,0.94874 1.93529,1.46667 2.59467,1.99467c0.66766,0.53464 1.33302,1.08142 1.99651,1.63199c0.66052,0.54811 1.3107,1.09502 1.95149,1.632c1.23546,1.03532 1.82538,1.5258 2.39734,1.996c0.5524,0.4541 1.08861,0.89023 1.6095,1.30949c0.50447,0.40605 0.9929,0.80074 2.39583,1.89584c0.44376,0.34639 1.3009,1.00449 1.70934,1.31999c0.77544,0.59901 1.49915,1.14354 2.41417,1.92517c0.53255,0.45491 1.22643,1.07794 1.8765,1.92149c0.44272,0.57448 0.84758,1.41524 1.48817,1.97835c0.63707,0.56 1.6785,0.855 2.46783,0.99632l1.04399,0.192l0.64584,0.33333l0.82083,0.44284" id="svg_1" stroke-width="2" stroke="#000" fill="none"/>
  <path t="3091,3224,3232,3245,3245,3285,3286,3286,3286,3286,3299,3299,3300,3300,3300,3300,3300,3300,3300,3309,3309,3309,3309,3309,3309,3309,3309,3309,3320,3321,3321,3321,3321,3321,3321,3321,3321,3331,3331,3331,3331,3331,3332,3343,3343,3343,3354,3355,3355,3355,3370,3371,3371,3371,3380,3380,3392,3404,3404,3404,3404,3421,3421,3421,3428,3428,3428,3441,3441,3441,3441,3441,3441,3441,3455,3455,3455,3455,3455,3456,3456,3456,3456,3471,3471,3471,3471,3471,3471,3472,3472,3472,3478,3478,3478,3478,3478,3478,3478,3479,3479,3489,3490,3490,3490,3490,3490,3504,3504,3504,3504,3504,3520,3520,3520,3526,3527,3527,3539,3539,3539,3554,3555,3555,3564,3564,3564,3576,3576,3589,3589,3589,3604,3605,3605,3605,3614,3614,3614,3614,3614,3615,3625,3626,3626,3626,3626,3626,3638,3638,3638,3638,3639,3654,3654,3662,3662,3663,3674,3675,3687,3704,3704,3712,3712,3723,3723,3738,3754,3761,3761,3761,3772,3772,3772,3773,3788,3788,3788,3804,3804,3811,3812,3821,3822,3838,3859,3872,3908,4008,4167,4204,4228,4230,4245,4246,4246,4256,4256,4272,4272,4272,4278,4278,4290,4290,4305,4305,4320,4340,4340,4364,4388,4403,4404,4413,4424,4424,4424,4437,4437,4438,4456,4456,4456,4461,4462,4462,4474,4474,4474,4488,4489,4506,4506,4511,4512,4524,4537,4538,4554,4554,4561,4562,4562,4572,4573,4573,4588,4588,4588,4588,4605,4605,4605,4610,4610,4610,4622,4638,4638,4647,4659,4659,4671,4696,4696,4708,4721,4721,4739,4739,4739,4746,4746,4746,4757,4757,4770,4771,4771,4787,4788,4788,4795,4806,4806,4806,4821,4822,4822,4837,4838,4843,4844,4844,4844,4844,4856,4856,4856,4857,4857,4857,4857,4870,4871,4871,4871,4872,4872,4872,4880,4881,4881,4881,4881,4892,4893,4954,4954" d="m347,160.89999c0,-1.7 0.04999,-2.63762 -0.00266,-3.48532c-0.05737,-0.92415 -0.40488,-1.74638 -0.97601,-2.41068c-0.56744,-0.65999 -0.99969,-1.02089 -1.47733,-1.472c-1.20496,-1.13808 -1.9581,-1.82387 -2.78534,-2.592c-0.89044,-0.82683 -1.8252,-1.69731 -2.77951,-2.60251c-0.96442,-0.91478 -1.91888,-1.82574 -2.82449,-2.73749c-1.67184,-1.68314 -2.37109,-2.46233 -2.98532,-3.188c-0.55966,-0.66122 -1.04477,-1.28883 -1.461,-1.88701c-0.38583,-0.5545 -0.7211,-1.09209 -1.01102,-1.61699c-0.55075,-0.99719 -0.77942,-1.50609 -1.01065,-2.00667c-0.22873,-0.49513 -0.44345,-0.98924 -0.64502,-1.4805c-0.19836,-0.48346 -0.38474,-0.96194 -0.55499,-1.4355c-0.32916,-0.91544 -0.46634,-1.36317 -0.60266,-1.79733c-0.13235,-0.42152 -0.35016,-1.23787 -0.63666,-1.96916c-0.50955,-1.30074 -0.90695,-1.80406 -1.422,-2.53351c-0.66772,-0.94568 -0.94952,-1.46695 -1.32535,-2.30617c-0.39261,-0.8767 -0.80756,-1.78675 -1.15268,-2.37016c-0.50223,-0.84899 -0.82208,-1.37113 -1.59015,-2.29467c-0.52847,-0.63545 -1.30005,-1.33851 -1.92383,-2.14767c-0.32922,-0.42709 -0.84482,-1.18018 -1.34933,-1.984c-0.47354,-0.75446 -0.82013,-1.47144 -1.36801,-2.28133c-0.56421,-0.83402 -1.1741,-1.47238 -1.57767,-2.03001c-0.73566,-1.01649 -0.95969,-1.45781 -1.51349,-2.39999c-0.30304,-0.51559 -0.61905,-1.06104 -0.97952,-1.61401c-0.76703,-1.1766 -1.70209,-2.36604 -2.23114,-2.95716c-0.54413,-0.60796 -1.13257,-1.20164 -1.7475,-1.78951c-0.62338,-0.59595 -1.27054,-1.17787 -1.92752,-1.75349c-0.65634,-0.57505 -1.97189,-1.69122 -2.61765,-2.2355c-0.63556,-0.53571 -1.26309,-1.06149 -1.88553,-1.575c-0.61392,-0.50648 -1.22345,-1.00235 -1.83148,-1.485c-0.60135,-0.47733 -1.80286,-1.39722 -2.40399,-1.84017c-0.59491,-0.43837 -1.18765,-0.86343 -1.76852,-1.2855c-0.57013,-0.41428 -1.1272,-0.82113 -1.66049,-1.2315c-0.51865,-0.39911 -1.9122,-1.59923 -2.31683,-2.00317c-0.39261,-0.39194 -1.11258,-1.18089 -1.45865,-1.56533c-0.67648,-0.75145 -1.71149,-1.82045 -2.07867,-2.148c-0.72101,-0.6432 -1.44614,-1.21896 -2.14801,-1.716c-0.91385,-0.64716 -1.47333,-0.93348 -2.36032,-1.52017c-0.82697,-0.54697 -1.39661,-1.09175 -2.009,-1.59917c-0.78476,-0.65023 -1.39417,-1.05158 -2.28534,-1.45133c-0.98199,-0.4405 -1.54303,-0.59315 -2.362,-0.90133c-1.0351,-0.38952 -1.69537,-0.75037 -2.55133,-1.01467c-0.98642,-0.30459 -1.86646,-0.29756 -2.82285,-0.50683c-0.82278,-0.18003 -1.38983,-0.38715 -2.57849,-0.7785c-0.60434,-0.19897 -1.55908,-0.51259 -2.27151,-0.7c-1.22299,-0.32171 -1.69177,-0.40527 -2.6955,-0.60001c-0.52982,-0.10278 -1.62903,-0.29988 -2.18933,-0.39999c-1.67706,-0.29965 -2.2225,-0.3972 -3.28198,-0.60001c-0.51529,-0.09863 -1.51544,-0.29794 -2,-0.39999c-1.39627,-0.29408 -2.27332,-0.50027 -3.10434,-0.68934c-0.77434,-0.17616 -1.47855,-0.37155 -2.68668,-0.52533c-0.72598,-0.09241 -1.77066,-0.08533 -2.57066,-0.08533c-0.8,0 -1.7955,0 -2.54283,0c-1.03183,0 -1.97867,0 -2.67799,0c-0.97917,0 -1.76851,0 -2.8125,0c-0.86217,0 -1.76668,0 -2.58801,0c-0.91199,0 -1.85066,0 -2.39999,0c-1.17867,0 -2.07866,0 -2.67867,0c-0.89999,0 -2.09866,0 -2.97917,0c-0.56366,0 -1.83549,0 -2.5,0c-1.02083,0 -1.81017,0 -2.85416,0c-0.86217,0 -1.76668,0 -2.66667,0c-0.89999,0 -1.8,-0.00008 -2.7,0c-0.89984,0.00008 -1.86801,0.26453 -1.57867,1.10033c0.21985,0.63507 0.69542,1.43932 0.75784,2.4205c0.05058,0.79514 0.02083,1.79517 0.02083,2.47916c0,1.16666 0,1.94817 0,2.73867c0,1.1185 0,1.876 0,2.74667c0,0.91917 0,1.91333 0,2.67867c0,0.95067 0,1.836 0,2.636c0,0.89999 0,1.836 0,2.684c0,0.86333 0,1.76333 0,2.68266c0,0.875 0,1.52 0,2.51867c0,0.8355 0,1.716 0,2.91467c0,0.6 0,1.5 0,2.69984c0,0.59566 0,1.46416 0,2.5335c0,0.93066 0.03065,1.76594 -0.0045,2.76666c-0.02814,0.80124 -0.20958,1.60247 -0.4955,2.37917c-0.36917,1.00282 -0.49933,1.8195 -0.5,2.65684c-0.00081,1.02116 0,1.7685 0,2.764c0,0.8 0,1.80016 0,2.62083c0,0.6645 0,1.66583 0,2.52083c0,0.945 0,1.9795 0,2.7065c0,0.731 0,1.7825 0,2.709c0,0.7815 0,1.7255 0,2.7255c0,0.79649 0,1.54799 0,2.65599c0,0.98267 0,1.836 0,2.776c0,0.88533 0,1.68533 0,2.52133c0,1.01668 0,1.71133 0,2.73868c0,0.94682 0,1.64616 0,2.62532c0,0.81067 0,1.68535 0,2.68401c0,0.81599 0,1.632 0,2.632c0,0.90933 0,1.85066 0,2.63666c0,0.82201 0,1.88068 0,2.80067c0,0.75999 -0.02155,1.77626 0.16667,2.58c0.22032,0.94083 0.42285,1.4601 0.83333,2.5c0.37039,0.93835 0.7334,1.54199 0.91467,2.56934c0.15161,0.85925 0.07846,1.93073 0.088,2.57199c0.01085,0.72949 0.04651,1.55737 0.168,2.48401c0.13701,1.045 0.39551,2.19673 0.53917,2.80833c0.14824,0.6311 0.31111,1.27463 0.47549,1.929c0.33224,1.3226 0.65117,2.63663 0.79317,3.28217c0.13928,0.63316 0.26802,1.25494 0.50067,2.45932c0.11194,0.5795 0.31212,1.69196 0.52083,2.72917c0.19319,0.96005 0.38565,1.83318 0.60001,2.604c0.18752,0.67427 0.59866,1.67467 1.04283,2.47299l0.30449,0.90451l0.13667,0.7825" id="svg_2" stroke-width="2" stroke="#000" fill="none"/>
  <path t="6423,6505,6531,6549,6549,6562,6562,6573,6574,6574,6574,6581,6581,6581,6581,6581,6581,6591,6591,6591,6591,6591,6591,6604,6604,6604,6605,6605,6605,6605,6605,6620,6620,6621,6621,6621,6621,6621,6621,6628,6628,6628,6628,6628,6628,6629,6639,6639,6640,6640,6640,6640,6655,6655,6655,6656,6656,6664,6664,6664,6664,6665,6665,6676,6676,6676,6676,6676,6677,6677,6688,6689,6689,6689,6689,6689,6704,6704,6704,6704,6704,6705,6714,6714,6714,6714,6726,6726,6726,6726,6738,6738,6755,6756,6756,6764,6765,6765,6765,6774,6774,6774,6775,6787,6787,6787,6788,6805,6806,6806,6806,6806,6806,6812,6812,6813,6813,6824,6824,6837,6837,6861,6862,6862,6873,6874,6888,6888,6904,6910,6910,6923,6939,6939,6954,6954,6960,6971,6972,6972,6988,6988,6988,6997,6997,6997,7009,7020,7021,7039,7047,7057,7057,7082,7107,7107,7132,7146" d="m319,165.89999c0,-1.7 0.01184,-2.65147 -0.284,-3.48399c-0.25092,-0.70609 -0.62695,-1.63559 -0.76868,-2.383c-0.22598,-1.19188 -0.38522,-1.85406 -0.59399,-2.601c-0.23035,-0.8241 -0.50311,-1.70476 -0.84134,-2.61601c-0.35187,-0.948 -0.55264,-1.42683 -1.03082,-2.36333c-0.24225,-0.47441 -1.11255,-1.84048 -1.4545,-2.26733c-0.69617,-0.86899 -1.1015,-1.27319 -1.52002,-1.67467c-0.86279,-0.82762 -1.83664,-1.61497 -2.34964,-2.01067c-0.52429,-0.40442 -1.0661,-0.80745 -2.19867,-1.60001c-0.57703,-0.40381 -1.1666,-0.80115 -1.76102,-1.2c-1.19577,-0.80234 -1.79745,-1.19952 -2.396,-1.59999c-0.59714,-0.39954 -1.78146,-1.19861 -2.36533,-1.60001c-0.5798,-0.39859 -1.15567,-0.79305 -2.26935,-1.60001c-0.5473,-0.39659 -1.60321,-1.19655 -2.10931,-1.59999c-0.49756,-0.39664 -0.99127,-0.78149 -1.88535,-1.60001c-0.85489,-0.78264 -1.60577,-1.5947 -1.95767,-1.9955c-0.6814,-0.77609 -0.9877,-1.1729 -1.61166,-1.91916c-0.89511,-1.07053 -1.20465,-1.40089 -1.80267,-2.07068c-0.60199,-0.67421 -1.21722,-1.37076 -1.79999,-2.14799c-0.61862,-0.82504 -0.9101,-1.27914 -1.5,-2.22916c-0.30527,-0.49161 -0.61349,-0.99616 -1.5,-2.60416c-0.30429,-0.55196 -0.60129,-1.11396 -0.89099,-1.6815c-0.57526,-1.12699 -0.84512,-1.68678 -1.09467,-2.242c-0.70404,-1.56635 -0.89236,-2.06006 -1.20001,-3.0045c-0.29285,-0.89901 -0.40744,-1.35268 -0.61166,-2.27333c-0.32596,-1.46956 -0.3992,-1.99962 -0.61334,-3.07201c-0.10776,-0.53965 -0.33188,-1.6014 -0.47467,-2.10667c-0.39594,-1.40083 -0.75073,-2.19305 -1.1355,-2.89083c-0.36404,-0.66021 -0.97775,-1.56343 -1.37784,-2.15984c-0.57846,-0.86235 -0.91519,-1.41021 -1.57999,-2.25983c-0.50012,-0.63918 -1.16675,-1.33217 -1.86801,-1.96816c-0.59753,-0.54191 -1.30685,-1.03412 -2.11047,-1.422c-0.84067,-0.40576 -1.45859,-0.60867 -2.64417,-1.23667c-0.61719,-0.32693 -1.22406,-0.71169 -1.884,-1.032c-1.02097,-0.49554 -1.77219,-0.74101 -2.55634,-0.96317c-0.81595,-0.23116 -2.12518,-0.52003 -3.04102,-0.72217c-0.46558,-0.10276 -1.40005,-0.30617 -2.3075,-0.55583c-0.44232,-0.1217 -1.67841,-0.53961 -2.39099,-0.8955c-0.97879,-0.48884 -1.51717,-0.88687 -2.53218,-1.46067c-0.63676,-0.35996 -1.7037,-0.6629 -2.43933,-0.9965c-0.78828,-0.35747 -1.27249,-0.92738 -1.84866,-1.49284c-0.80344,-0.7885 -1.29294,-1.47282 -2.23199,-2.064c-0.70432,-0.4434 -1.4805,-0.67577 -2.16667,-1.33334c-0.61263,-0.5871 -1.19873,-1.46289 -2,-1.83334c-0.70287,-0.32495 -1.67276,-0.04993 -2.51601,-0.252c-0.8981,-0.2152 -1.64282,-0.80731 -2.52567,-0.89383c-0.64221,-0.06293 -1.64441,-0.00138 -2.47916,-0.04167c-0.88184,-0.04256 -2.07869,-0.25447 -2.65784,-0.4045c-0.81024,-0.20989 -1.90799,-0.32803 -2.82133,-0.74133c-0.66106,-0.29914 -1.53632,-0.76037 -2.3,-1.186c-0.74171,-0.41339 -1.4657,-0.7951 -2.336,-1.222c-0.82025,-0.40234 -1.53867,-0.41467 -2.60683,-0.42533l-0.85718,0" id="svg_3" stroke-width="2" stroke="#000" fill="none"/>
  <path t="9080,9237,9263,9281,9281,9298,9298,9299,9304,9304,9304,9304,9304,9314,9314,9314,9314,9314,9314,9315,9315,9323,9323,9323,9323,9323,9337,9337,9337,9337,9346,9346,9347,9359,9359,9359,9370,9370,9387,9387,9395,9395,9395,9395,9407,9407,9407,9407,9407,9420,9420,9420,9420,9420,9420,9437,9437,9437,9437,9437,9444,9444,9445,9445,9445,9445,9456,9456,9456,9456,9470,9470,9470,9486,9487,9487,9493,9493,9493,9506,9506,9520,9520,9520,9521,9530,9530,9531,9531,9542,9542,9543,9543,9543,9543,9555,9555,9555,9555,9556,9556,9570,9570,9570,9570,9570,9580,9580,9580,9581,9581,9592,9592,9592,9604,9604,9604,9621,9621,9621,9629,9629,9629,9641,9641,9641,9641,9641,9653,9653,9653,9654,9654,9654,9654,9654,9670,9671,9671,9671,9671,9671,9671,9672,9672,9678,9679,9679,9679,9679,9679,9679,9680,9680,9689,9690,9690,9690,9690,9690,9690,9691,9691,9703,9703,9704,9704,9704,9720,9720,9720,9721,9727,9727,9727,9739,9739,9753,9753,9754,9770,9777" d="m340,147.89999c1.70001,0 2.63599,0 3.48532,0c0.91919,0 1.91867,0 2.57718,0c0.79349,0 1.80249,0 2.6225,0c0.94,0 1.45502,0 2.57501,0c1.23999,0 1.90381,0 2.59067,0c0.70282,0 2.12848,0 2.83731,0c0.69684,0 1.37466,0 2.64536,0c1.12534,0 1.638,0 2.58331,0c0.86536,0 2.08337,-0.00409 2.88068,0.00134c0.78137,0.00533 1.54211,-0.05284 2.86932,0.16533c0.82974,0.13638 1.51404,0.43979 2.33334,0.83333c0.80197,0.38522 1.59705,0.7274 2.59549,0.95184c0.74527,0.16753 1.48221,0.65869 2.10184,1.23351c0.75629,0.7016 1.35147,0.94611 2.34433,1.31465c0.71066,0.26379 1.80103,0.64742 2.47568,0.98668c0.67795,0.34093 1.34476,0.75879 2.052,1.2c1.17474,0.73283 1.60052,0.99785 2.492,1.54933c0.45978,0.28441 1.39285,0.86484 1.85599,1.16533c1.36823,0.88774 1.79785,1.19658 2.64667,1.78801c0.41541,0.28946 1.2196,0.87193 2.436,1.644c0.39606,0.25139 1.19806,0.70959 1.97916,1.16666c0.7662,0.44835 1.1611,0.64838 2.19919,1.42117c0.67749,0.50433 1.27304,1.06599 1.85999,1.569c1.0282,0.88116 1.73477,1.33478 2.35718,1.758c0.81683,0.55544 1.39212,1.09174 2.00449,1.59917c0.78464,0.65019 1.59586,1.13979 2.20001,1.45134c0.99777,0.51454 1.6272,0.82242 2.56665,1.20132c0.78806,0.31786 1.67798,0.60666 2.32001,0.8c1.03183,0.31073 1.77383,0.50459 2.55499,0.7c0.81882,0.20483 2.12436,0.50304 3.04501,0.70001c0.47467,0.10156 1.45471,0.30138 1.95999,0.39999c1.03946,0.20287 2.11975,0.40129 3.23599,0.60001c0.5654,0.10065 1.13235,0.19815 2.25601,0.39999c0.55167,0.09911 2.12875,0.3963 2.61835,0.50017c0.93018,0.19733 1.8075,0.39992 2.63397,0.657c1.21887,0.37914 2.00809,0.72285 2.40002,0.89551c0.77081,0.33954 1.49762,0.68875 2.76599,1.32599c0.52991,0.26622 1.4592,0.73975 2.24301,1.34267c0.62109,0.47775 1.17398,1.06042 2,1.65733c0.58267,0.42105 1.42654,0.87157 2.20132,1.50801c0.6427,0.52795 1.05508,0.97574 2.02066,1.93517c0.54825,0.54475 1.15952,1.14258 1.49667,1.46083c0.73471,0.69353 1.57907,1.45325 2.04617,1.8605c1.0108,0.88127 1.56308,1.34116 2.13931,1.81932c0.59842,0.49658 1.22162,1.00621 1.87051,1.52551c1.35443,1.08397 2.06702,1.63481 2.79468,2.196c0.73932,0.57018 1.49109,1.14252 2.2515,1.71599c0.76361,0.57587 1.52991,1.14879 2.29648,1.716c1.51392,1.12019 2.26025,1.66277 2.99335,2.196c0.71823,0.52242 1.4212,1.03085 2.10599,1.5255c0.66455,0.48003 1.30771,0.94318 1.92603,1.3905c1.15799,0.83774 1.69394,1.22743 2.19998,1.60268c0.48254,0.35783 0.94135,0.70459 1.37399,1.04849c0.41797,0.33223 0.82141,0.65932 1.194,1.00351c1.09418,1.01073 1.40887,1.39572 2.05334,2.13199c0.6301,0.71985 0.89822,1.10739 1.836,2.052c0.57883,0.58305 1.18802,1.06305 2.04285,1.72433c0.78928,0.61057 1.50446,1.19493 2.11047,1.77299c0.69043,0.6586 1.22318,1.20883 2.01334,2.00267c0.48264,0.48489 0.97202,1.008 1.664,1.94667l0.39069,0.76534" id="svg_4" stroke-width="2" stroke="#000" fill="none"/>
  <path t="10642,10774,10774,10774,10795,10796,10796,10798,10799,10799,10799,10816,10816,10823,10823,10823,10823,10838,10838,10839,10847,10847,10847,10858,10858,10858,10871,10871,10887,10896,10896,10909,10920,10920,10937,10937,10945,10945,10945,10945,10957,10957,10957,10957,10970,10970,10970,10987,10987,10987,10994,10994,10994,11006,11007,11007,11007,11020,11020,11020,11020,11020,11038,11038,11038,11038,11038,11044,11044,11044,11056,11057,11057,11070,11070,11087,11087,11093,11093,11105,11105,11120,11120,11130,11142,11142,11153,11154,11170,11179,11179,11179,11191,11191,11191,11203,11203,11203,11222,11222,11228,11228,11228,11240,11240,11265,11279,11289,11314,11315,11339,11339,11353,11364,11376,11487,11512,11512,11526,11527,11548,11561,11585,11733,11746" d="m480,218.89999c0.95184,2.01434 1.0213,2.83022 1.16934,3.40268c0.31604,1.22217 0.69547,1.79544 1.1825,2.69733c0.48499,0.89812 0.74591,1.50571 1.14816,2.35834c0.36749,0.77899 0.966,1.59717 1.71066,2.15633c0.77023,0.57835 1.39273,1.04378 2.02533,1.59601c0.44855,0.39156 1.44174,1.19684 1.98935,1.57866c0.8129,0.56677 1.60941,1.0416 2.3175,1.45801c0.85437,0.50243 1.66943,1.05977 2.24649,1.578c0.56604,0.50835 1.32532,1.28932 1.90616,1.87016c0.7045,0.7045 1.39383,1.23161 1.8685,1.9045c0.51837,0.73482 0.81732,1.68681 1.23734,2.28534c0.53,0.75526 0.918,1.5685 1.29868,2.53633c0.21075,0.53587 0.50659,1.42297 0.69998,2.065c0.31064,1.03136 0.59573,2.12918 0.80002,2.85199c0.19589,0.69316 0.56339,1.90849 0.92084,2.61967c0.33035,0.65729 0.95255,1.45255 1.5,2.04166c0.5683,0.61154 1.37537,1.4053 1.78983,1.8c0.6387,0.60826 1.60431,1.40919 2.151,1.8c0.57315,0.40973 1.19037,0.81641 2.20499,1.39999c0.71341,0.41034 1.47223,0.80643 2.28,1.164c0.8324,0.36847 1.71533,0.68515 2.6347,0.95068c0.91821,0.2652 1.37836,0.35892 2.25165,0.58081c1.16895,0.29703 2.10577,0.58035 2.83502,0.90451c1.04785,0.46579 1.63165,0.80054 2.43195,1.20001c0.79974,0.3992 1.57922,0.84003 2.59985,1.07864c0.76801,0.17957 1.79297,0.32019 2.42548,0.73203c0.71295,0.46423 1.51886,1.04657 2.35321,1.26782c0.80121,0.21246 1.77863,0.12149 2.67865,0.12149c0.74731,0 1.74152,0 2.50684,0c1.08331,0 2.00269,0 2.68268,0c0.83997,0 1.83868,0 2.67413,0c0.88049,0 1.77899,0 2.66852,0c0.85352,0 1.88916,0 2.78986,0c1.02081,0 1.8208,0 2.62079,0c0.99554,0 1.74286,0 2.76404,0c0.836,0 1.73596,0 2.63599,0c0.75714,0 1.65265,0 2.51599,0c0.9632,0 1.88403,0 2.784,0c0.90137,0 1.8667,0 2.70001,0c0.83331,0 1.6955,0 2.59998,0c0.90002,0 1.80005,0 2.6955,-0.00449l0.66852,-0.43152" id="svg_5" stroke-width="2" stroke="#000" fill="none"/>
  <path t="12486,12692,12705,12727,12727,12730,12730,12741,12754,12754,12770,12791,12791,12815,12815,12842,12858,12858,12871,12888,12889,12952,12965,12988,13013,13048,13062,13086,13086,13110,13122,13138,13147,13148,13159,13159,13171,13171,13188,13188,13188,13197,13198,13208,13221,13239,13245,13258,13270,13287,13287,13296,13307,13307,13319,13319,13337,13338,13338,13344,13344,13344,13356,13370,13386,13386,13393,13393,13405,13421,13436,13436,13443,13469,13498,13499,13518,13521,13536,13537,13537,13548,13548,13548,13555,13556,13571,13571,13583,13583,13590" d="m568,264.89999c0.87848,-1.2215 0.80188,-2.16058 1.16669,-3c0.29749,-0.68454 1.1333,-1.29999 1.6333,-1.79999c0.70001,-0.70001 1.51257,-1.31842 1.91467,-2c0.45319,-0.76813 0.52991,-1.70471 0.896,-2.37466c0.53204,-0.9736 1.01068,-1.61186 1.79999,-2.21468c0.69678,-0.53217 1.74689,-0.30157 2.42004,-0.896c0.67719,-0.59798 0.93713,-1.55981 1.76929,-1.70399c0.8869,-0.15366 1.80005,-0.01068 2.70001,-0.01068c0.90002,0 1.80127,-0.04781 2.70001,0c0.80341,0.04272 1.66333,0.46869 2.38934,0.97467c0.68365,0.47647 0.78217,1.37128 1.22131,2.2c0.44073,0.83165 1.02594,1.4258 1.48932,2.14684c0.43561,0.67776 0.88916,1.68408 1.30005,2.46783c0.2923,0.55759 0.88165,1.47055 1.39996,2.00934c0.67682,0.70355 1.53906,1.09204 2.17468,1.62668c0.64935,0.54617 0.92432,1.28787 1.04614,2.09549c0.1488,0.98639 0.56012,1.64584 1.27466,2.37384c0.56061,0.5712 0.69916,1.32663 0.70453,2.30533c0.00439,0.79999 0,1.79999 0,2.61066c0,0.87466 0,1.87201 0,2.66852c0,0.7515 -0.11572,1.89905 0.284,2.72083c0.4245,0.87268 0.67426,1.55832 0.72052,2.45267c0.0448,0.86597 0.58325,1.63339 0.87396,2.44733c0.30548,0.85526 0.12152,1.70001 0.12152,2.60001c0,0.936 0,1.784 0,2.64734c0,1.01666 0,1.854 0,2.81934c0,0.67999 0,1.51999 0,2.51733c0,0.81598 -0.0199,1.6322 0.00134,2.62933c0.01788,0.84052 0.28265,1.80264 0.71466,2.57065l0.24799,0.94135l0.03467,0.69067l0.00134,1.07333" id="svg_6" stroke-width="2" stroke="#000" fill="none"/>
  <path t="14578,14723,14742,14742,14748,14748,14748,14762,14763,14778,14778,14786,14786,14797,14807,14820,14820,14845,14845,14845,14869,14869,14888,14908,14932,14932,14945,14957,14957,14972,14987,14992,15004,15030,15030,15054,15079,15080,15116,15128,15153,15164,15190,15190,15202,15219,15227,15238,15238,15264,15288,15288,15303,15303,15313,15336,15361,15361,15386,15403,15423,15436,15453,15453,15460,15461,15471,15486,15503,15504,15509,15521,15536,15546,15570,15607,15607" d="m601,301.89999c0,1.75717 0,2.66168 0,3.46167c0,0.95969 0,1.76367 0,2.58566c0,1.03101 0,1.91101 0,2.93134c0,0.77402 0,1.67401 0,2.53735c0,0.96317 0,1.78848 0,2.80548c0,0.69934 0,1.6785 0,2.47852c0,0.79999 0,1.7955 0,2.71466c0,0.96451 0,1.78983 0,2.80667c0,0.67865 0,1.65717 0,2.67865c0,0.80002 0,1.70001 0,2.60001c0,0.89999 0,1.7045 0,2.72134c0,0.67865 0.04163,1.65802 0,2.67865c-0.02863,0.70175 -0.45349,1.52798 -0.94733,2.2955c-0.44806,0.69638 -1.4093,0.56793 -2.25269,0.98849c-0.66162,0.32993 -1.5,0.71375 -2.39996,0.716c-0.92084,0.00229 -1.88403,-0.00146 -2.57471,0c-1.07263,0.00226 -1.99335,0.16327 -2.65063,0.42535c-1.01007,0.40277 -1.78424,0.4021 -2.67468,0.59549c-0.84631,0.18384 -1.59235,0.91702 -2.29999,0.97784c-0.89673,0.07709 -1.79999,0.00656 -2.70001,0.00131c-0.91071,-0.00534 -1.83826,-0.18582 -2.5,-0.52081c-0.8576,-0.43417 -1.52454,-1.21808 -2.40002,-1.44318c-0.8725,-0.22433 -1.63116,-0.37289 -2.39996,-0.75201c-0.84521,-0.41681 -1.8775,0.05682 -2.6792,-0.30481c-0.73273,-0.33054 -0.95679,-1.37918 -1.62079,-2.07919l-0.5,-0.5" id="svg_7" stroke-width="2" stroke="#000" fill="none"/>
  <path t="17346,17491,17491,17511,17511,17511,17527,17527,17539,17539,17539,17539,17556,17556,17556,17564,17576,17588,17605,17625,17625,17650,17674,17675,17688,17705,17705,17712,17712,17724,17773,17822,17884,17897,17897,17911,17933,17947,17947,17969,17969,17988,17988,17995,18006,18031,18043,18043,18068,18092,18104,18121,18130,18141,18154,18154,18154,18171,18171,18179,18190,18191,18191,18203,18219,18220,18228,18252,18264,18278,18289,18301,18314" d="m575,286.89999c0,1.84668 0,2.68668 0,3.68402c0,0.81598 0,1.63199 0,2.63333c0,0.944 0,2.01599 0,2.65067c0,0.68265 0,1.72665 0,2.69867c0,0.81448 0,1.66714 0,2.69733c0,0.936 0,1.836 0,2.73599c0,0.89999 0,1.70001 0,2.53601c0,1.01666 -0.00012,1.71133 0,2.73865c0.00012,0.94669 -0.13904,1.67227 0.22131,2.60385c0.3009,0.77783 0.41943,1.70728 0.7995,2.50067c0.33691,0.70331 1.5,0.52081 2.4632,0.52081c0.69067,0 1.76245,0.07822 2.61597,-0.00015c0.91144,-0.08368 1.5575,-0.60828 2.09869,-1.48383c0.41083,-0.66464 0.73914,-1.48798 0.79999,-2.31467c0.06616,-0.8989 0.31586,-1.58853 0.83466,-2.36801c0.47089,-0.70746 0.16669,-1.63333 0.16669,-2.53333c0,-0.90002 0,-1.80002 0,-2.70001c0,-0.89999 0,-1.80133 0,-2.76666c0,-0.66934 0.05554,-1.43646 -0.01068,-2.62268c-0.04065,-0.728 -0.52972,-1.55435 -0.82263,-2.54398c-0.1922,-0.64932 0.09143,-1.78134 -0.52386,-2.49966c-0.54529,-0.63657 -1.12469,-1.10519 -1.6955,-1.80984c-0.59174,-0.7305 -1.23132,-1.27316 -1.89465,-1.70984l-0.57349,-0.6265l-0.86853,-0.03149l-0.61066,-0.48935" id="svg_8" stroke-width="2" stroke="#000" fill="none"/>
  <path t="19473,19656,19676,19676,19688,19688,19691,19691,19703,19703,19721,19740,19741,19753,19803,19815,19815,19843,19859,19876,19876,19888,19888,19888,19905,19905,19913,19913,19925,19949,19999,20048,20048,20061,20073,20085,20134,20146,20196" d="m597,284.89999c0,1.75717 0.05328,2.66351 -0.05719,3.40451c-0.15039,1.00888 -0.52057,1.78018 -1.04266,2.57416c-0.43732,0.6651 -0.84869,1.50284 -0.89563,2.36868c-0.05499,1.01529 -0.36395,1.80499 -0.72052,2.45267c-0.47546,0.86365 -1.20026,1.35431 -1.284,2.19998c-0.07886,0.79611 0,1.70001 0,2.63602c0,0.85065 0,1.61066 0,2.78534c0,0.80399 0,1.62598 0,2.65698c0,0.67499 0,1.755 0,2.61716c0,0.8045 -0.13348,1.71512 0.00452,2.60452c0.14435,0.93036 1.01605,1.08481 1.71014,1.784c0.54352,0.54752 0.37067,1.63065 1.28534,1.91599l0.83331,0.16669l0.45203,0.74933" id="svg_9" stroke-width="2" stroke="#000" fill="none"/>
  <path t="22044,22179,22192,22192,22193,22204,22204,22204,22204,22215,22215,22215,22225,22225,22238,22238,22238,22253,22268,22269,22275,22275,22286,22286,22302,22302,22302,22312,22312,22313,22323,22323,22323,22323,22336,22337,22353,22353,22353,22361,22361,22373,22373,22373,22385,22386,22403,22403,22410,22421,22422,22437,22437,22452,22459,22471,22487,22502,22502,22508,22520,22520,22537,22537,22537,22552,22552,22557,22557,22557,22569,22569,22594,22594,22595,22606,22607,22619,22636,22636,22644,22644,22655,22669,22669,22669,22687,22687,22687,22687,22693,22693,22693,22693,22705,22705,22719,22720,22720,22742,22743,22767,22767" d="m576,337.89999c-2.52081,0 -3.54315,0 -4.28265,0c-0.88348,0 -1.88403,0 -2.60004,0c-0.73199,0 -1.8075,-0.00269 -2.784,0c-0.81897,0.00226 -1.74451,-0.01862 -2.73334,0.28534c-0.61609,0.18939 -1.59296,0.72919 -2.38928,1.104c-0.71924,0.33856 -1.79456,0.51608 -2.41071,1.17999c-0.49963,0.53833 -0.83508,1.47305 -1.43597,2.02002c-0.77399,0.70447 -1.61938,1.01108 -2.19733,1.74399c-0.48877,0.61975 -0.69275,1.48233 -1.33337,2.33334c-0.43329,0.57559 -1.08252,0.94376 -2,1.5c-0.78815,0.47784 -1.30682,0.86407 -2.14929,1.26398c-0.97186,0.4613 -1.8905,0.51306 -2.88403,0.79083c-0.61365,0.17154 -1.40021,0.57932 -2.39996,1.07852c-0.60016,0.29968 -1.59119,0.81897 -2.20001,1.08932c-0.78931,0.35046 -1.79877,0.57803 -2.60004,0.60617c-0.99805,0.03506 -1.77252,-0.12653 -2.84283,0.009c-0.87732,0.11108 -1.49408,0.71124 -2.40533,0.94281c-0.76984,0.19562 -1.39447,0.90695 -2.15314,1.05136c-0.88281,0.16806 -1.83466,0.00131 -2.68268,0.00131c-0.86334,0 -1.89069,0 -2.83746,0c-0.69934,0 -1.67853,0 -2.47852,0c-0.79999,0 -1.8045,0 -2.65717,0c-0.96417,0 -1.76819,0 -2.59021,0c-1.03113,0 -1.93182,-0.00681 -2.95264,0c-0.80005,0.00534 -1.61322,0.03812 -2.39868,0.284c-0.78125,0.24457 -1.71472,0.67331 -2.76797,0.716c-0.65814,0.02667 -1.66669,0 -2.52884,0c-0.84616,0 -1.8475,0 -2.57651,0c-0.83701,0 -2.02817,0 -2.63251,0c-0.93149,0 -1.58081,0 -2.61667,0c-1.09348,0 -1.81747,0 -2.50949,0c-1.19867,0 -2.14801,0 -2.96933,0c-0.79999,0 -1.60001,0 -2.60001,0l-0.79999,0l-0.99869,0l-0.94415,0" id="svg_10" stroke-width="2" stroke="#000" fill="none"/>
  <path t="24174,24305,24305,24305,24325,24325,24326,24326,24329,24329,24330,24343,24343,24343,24344,24355,24355,24355,24355,24371,24371,24371,24371,24371,24379,24379,24379,24379,24379,24379,24390,24390,24391,24391,24391,24391,24391,24391,24391,24404,24404,24404,24404,24404,24404,24404,24404,24420,24420,24420,24420,24421,24421,24428,24428,24428,24428,24428,24429,24439,24439,24439,24439,24454,24454,24454,24471,24471,24471,24477,24477,24477,24489,24489,24490,24504,24520,24521,24526,24526,24526,24538,24538,24538,24552,24552,24553,24563,24563,24563,24563,24575,24575,24575,24575,24586,24586,24586,24602,24602,24612,24612,24612,24623,24623,24636,24636,24652,24652,24652,24661,24661,24673,24673,24674,24674,24685,24686,24686,24686,24686,24702,24702,24702,24702,24702,24711,24711,24711,24711,24711,24722,24722,24722,24722,24736,24736,24737,24737,24755,24755,24759,24759,24759,24771,24772,24785,24785,24786,24786,24802,24802,24803,24803,24803,24809,24809,24809,24810,24810,24820,24821,24821,24821,24821,24836,24836,24836,24836,24846,24846,24846,24857,24857,24869,24870,24886,24886,24895,24896,24906,24906,24907,24919,24919,24919,24936,24936,24937,24944,24944,24945,24945,24945,24956,24956,24956,24957,24969,24969,24969,24985,24986,24986,24986,24994,24994,24994,25005,25005,25005,25019,25035,25036,25042,25043,25055,25055,25069,25069,25086,25091,25091,25103,25120,25120,25129,25129,25140,25141,25152,25153,25169,25169,25169,25178,25178,25179,25189,25189,25202,25202,25202,25220,25220,25220,25227,25228,25239,25239,25252,25252,25276,25301" d="m488,355.89999c-2.68533,1.20135 -3.52774,1.50449 -4.10449,1.75717c-1.21075,0.53043 -1.80502,0.8786 -2.65952,1.45349c-0.56018,0.37689 -1.30936,0.99548 -2.01065,1.57867c-0.67297,0.55963 -1.64362,1.19595 -2.1825,1.46249c-0.84854,0.41971 -1.47192,0.67621 -2.34283,1.29102c-0.62112,0.43848 -1.19751,0.98083 -1.80002,1.509c-0.8963,0.78574 -1.79675,1.51355 -2.46249,1.90649c-0.69275,0.40887 -1.07712,0.60385 -2.40216,1.02066c-1.00037,0.31467 -1.55511,0.41278 -2.11868,0.56268c-1.1897,0.31644 -1.81717,0.48215 -3.08331,0.95831c-0.66089,0.24854 -1.32101,0.54834 -1.98602,0.87152c-0.67648,0.32874 -1.35007,0.68597 -2.02197,1.06049c-0.67548,0.3765 -1.34946,0.75876 -3.30368,1.96783c-0.6377,0.39453 -1.26056,0.7948 -1.875,1.18951c-0.60556,0.38901 -1.19989,0.77484 -1.785,1.15347c-0.57489,0.37204 -2.24005,1.43573 -2.77499,1.77319c-0.52505,0.33121 -1.547,0.98096 -2.04001,1.30933c-0.48697,0.32437 -1.88437,1.33594 -2.32468,1.69598c-0.43704,0.35736 -1.26169,1.09625 -1.63864,1.47867c-0.72238,0.73282 -1.60764,1.81805 -2.02869,2.51334c-0.3797,0.62701 -0.59094,1.27808 -1.22131,2.32001c-0.44455,0.73483 -1.00873,1.36325 -1.83334,2c-0.57697,0.44553 -1.42358,0.88751 -2.20001,1.48801c-0.61981,0.47937 -1.17032,1.06552 -1.99982,1.65717c-0.75412,0.53787 -1.36029,0.76065 -2.16418,1.42148c-0.78476,0.64511 -1.27936,1.25876 -2.17883,1.47867c-0.70413,0.17215 -1.53406,0.06516 -2.77316,0.40802c-0.70355,0.19467 -1.36969,0.59717 -2.36932,1.19598c-0.55161,0.33044 -1.39346,0.87561 -2.31467,1.18402c-0.8804,0.29474 -1.5108,0.28326 -2.39999,0.50131c-0.91394,0.22412 -1.8017,0.69025 -2.39999,1.01733c-0.60168,0.32892 -1.79135,0.94693 -2.38934,1.168c-0.84402,0.31201 -1.89093,0.51276 -2.78983,0.64667c-1.02307,0.1524 -1.81131,0.45303 -2.42084,0.64734c-0.98535,0.31409 -1.79785,0.2757 -2.71735,0.63666c-0.72797,0.28577 -1.65039,0.65369 -2.4035,0.69519c-0.7955,0.04385 -2.02649,0.02081 -2.7045,0.02081c-0.94131,0 -1.74081,0 -2.65732,0c-0.68933,0 -1.86035,0 -2.73166,0c-0.92734,0 -1.40701,0 -2.38834,0c-1.49719,0 -1.996,0 -2.98666,0c-0.48984,0 -1.45352,0 -2.84402,0c-0.88132,0 -1.30948,0 -2.14581,0c-0.81635,0 -2.02084,0 -2.81952,0c-0.79065,0 -1.94415,0 -3.03467,0c-0.67999,0 -1.625,0 -2.47998,0c-1.00134,0 -1.66583,0 -2.68668,0c-0.79999,0 -1.60001,0 -2.60449,0c-0.85266,0 -1.8175,0 -2.66351,0c-0.65067,0 -1.38931,0 -2.69617,0c-0.99832,0 -1.52249,0 -2.59583,0c-0.53915,0 -2.10666,0 -2.59702,0c-0.92865,0 -1.80133,0 -2.63397,0c-1.20901,0 -2.00912,0.00668 -2.80902,-0.01065c-0.8002,-0.01733 -1.60391,-0.04376 -2.79965,-0.21066c-0.79446,-0.1109 -1.55725,-0.28598 -2.28601,-0.42603c-1.26895,-0.24387 -2.04187,-0.33145 -2.91165,-0.35132c-0.99792,-0.0228 -1.79813,0.06857 -2.65002,-0.35849c-0.69397,-0.3479 -1.40479,-0.95239 -2.15717,-1.34283c-0.79034,-0.41013 -1.59549,-0.80002 -2.59549,-1.30002c-0.60001,-0.29999 -1.39798,-0.70401 -2.20016,-1.10001c-0.81866,-0.40411 -1.4805,-0.71182 -2.48651,-1.10132c-0.85117,-0.32956 -1.48114,-0.54105 -2.47998,-0.96533c-0.72195,-0.30667 -1.45786,-0.66043 -2.20801,-1.008c-0.74051,-0.34311 -1.80023,-0.81308 -2.46817,-1.06818c-0.94159,-0.35962 -1.56198,-0.53799 -2.75583,-0.95984c-0.59387,-0.20984 -1.50818,-0.52823 -2.48001,-1.34c-0.50543,-0.42218 -0.88007,-0.9982 -1.60532,-1.68933c-0.69974,-0.66681 -1.55176,-1.06903 -2.30618,-1.51617c-0.89395,-0.52985 -1.3306,-1.08212 -1.80716,-1.76782c-0.59372,-0.85428 -1.20169,-1.48499 -1.80267,-2.08401c-0.70337,-0.70111 -1.2843,-1.20154 -2.05267,-1.7045c-0.69373,-0.45407 -1.43082,-1.20187 -1.93665,-1.83417c-0.57654,-0.7207 -1.44336,-0.98691 -2.01068,-1.47198c-0.7467,-0.63843 -1.37054,-1.42197 -1.92084,-1.88934c-0.76248,-0.64761 -1.51569,-0.94363 -2.3125,-1.5c-0.68024,-0.47498 -1.18396,-1.38522 -1.70831,-1.97916c-0.69394,-0.78604 -1.47165,-0.88138 -2.20767,-1.0715c-0.92938,-0.24008 -1.57602,-0.81259 -2.048,-1.46667c-0.62048,-0.85986 -1.16898,-1.3725 -1.97067,-1.96799c-0.72809,-0.5408 -1.2894,-0.85611 -2.08899,-1.71451c-0.51431,-0.55212 -0.9425,-1.31332 -1.543,-2.18549c-0.40143,-0.58304 -0.8746,-1.62674 -1.20001,-2.328c-0.37149,-0.80054 -1.10001,-1.33035 -1.87915,-1.8075l-0.46368,-0.77917" id="svg_11" stroke-width="2" stroke="#000" fill="none"/>
  <path t="28243,28377,28395,28395,28410,28414,28415,28425,28436,28452,28452,28452,28462,28462,28462,28473,28473,28486,28486,28486,28502,28502,28502,28511,28523,28547,28561,28585" d="m516,260.89999c0,1.82535 0,2.83334 0,3.6955c0,0.82535 0,1.78851 0,2.65186c0,0.89548 0,1.854 0,2.81934c0,0.67999 0,1.51999 0,2.51733c0,0.81598 0,1.63199 0,2.63199c0,0.90933 0,1.85068 0,2.63666c0,0.82202 0,1.88068 0,2.80066c0,0.76001 0,1.72586 0,2.64667l0,0.90002l0,0.89999l0,0.89999" id="svg_12" stroke-width="2" stroke="#000" fill="none"/>
  <path t="29584,29754,29767,29767,29780,29803,29815,29827,29851,29870,29876,29876,29888,29888,29888,29902,29902,29918,29937,29937" d="m536,267.89999c1.93866,3.328 2.35944,4.15234 2.716,4.80002c0.47546,0.86365 1.10181,1.43204 1.28418,2.29984c0.1665,0.7923 0.97119,1.25586 0.99982,2.1015c0.03265,0.96478 0,1.63464 0,2.79865c0,0.80002 0,1.60001 0,2.59552c0,0.74731 0,1.65182 0,2.57117l0,0.83331" id="svg_13" stroke-width="2" stroke="#000" fill="none"/>
  <path t="35284,35426,35427,35428,35431,35448,35448,35449,35449,35449,35452,35453,35453,35469,35469,35469,35469,35478,35478,35478,35479,35479,35487,35488,35488,35488,35488,35488,35504,35504,35504,35504,35504,35511,35511,35512,35512,35521,35522,35522,35535,35535,35553,35554,35559,35559,35560,35571,35585,35586,35586,35602,35602,35602,35602,35609,35609,35609,35609,35609,35609,35609,35609,35621,35621,35621,35622,35622,35622,35636,35636,35636,35636,35636,35652,35652,35652,35658,35658,35658,35670,35670,35670,35685,35685,35686,35694,35695,35695,35706,35707,35707,35707,35718,35719,35719,35719,35736,35736,35736,35736,35736,35744,35744,35756,35756,35769,35769,35806" d="m472,363.89999c-5.2785,0 -6.14282,0 -6.97916,0c-0.81635,0 -2.02084,0 -2.81952,0c-0.79065,0 -1.56534,0 -2.31598,0c-1.40002,0 -2.04935,0 -2.98083,0c-0.90451,0 -1.81427,0.01373 -2.77652,-0.03598c-0.69946,-0.03613 -1.87158,-0.1825 -2.74683,-0.31668c-0.46408,-0.07117 -1.43759,-0.22867 -1.94733,-0.29468c-1.59793,-0.20694 -2.15442,-0.24225 -3.28201,-0.2955c-0.56625,-0.02673 -1.69046,-0.04877 -2.242,-0.05264c-1.57645,-0.01108 -2.06665,-0.00452 -2.991,-0.00452c-0.85632,0 -1.65265,0 -2.75217,0c-0.68134,0 -1.64581,0 -2.56534,0c-0.90115,0 -1.79065,0 -2.64417,0c-1.03549,0 -1.9155,0 -2.7905,0c-0.828,0 -1.70932,0 -2.66666,0c-0.73199,0 -1.83871,0.00961 -2.66666,0c-0.89603,-0.01041 -1.60861,-0.06595 -2.47684,-0.2215c-1.06503,-0.19083 -1.88522,-0.39209 -2.33701,-0.483c-1.51755,-0.30536 -2.08344,-0.39792 -2.67416,-0.49548c-1.24185,-0.20508 -1.88693,-0.30048 -2.54135,-0.40002c-0.66025,-0.10043 -1.32333,-0.19556 -3.28217,-0.5c-0.63403,-0.09854 -1.25626,-0.19629 -2.45932,-0.39999c-0.58014,-0.09824 -1.14648,-0.18546 -2.72916,-0.5c-0.96182,-0.19116 -1.41241,-0.2901 -2.25,-0.5c-0.7623,-0.19101 -2.04871,-0.57938 -2.81134,-0.89999c-0.67084,-0.28204 -1.67749,-0.79343 -2.29285,-1.12082c-0.6691,-0.35596 -1.6637,-0.96228 -2.2045,-1.3045c-0.82285,-0.52069 -1.60941,-1.00558 -2.3175,-1.422c-0.85437,-0.50244 -1.64847,-1.08533 -2.27847,-1.578c-0.68344,-0.53448 -1.50247,-1.03064 -2.14801,-1.28934c-0.68277,-0.27362 -1.78439,-0.57419 -2.86401,-0.88535c-0.68387,-0.19711 -1.34903,-0.38956 -2.31934,-0.75717c-1.02261,-0.38745 -1.72916,-0.72733 -2.46198,-1.0575c-0.72318,-0.32581 -1.39081,-0.70166 -2.61334,-1.01465c-0.69861,-0.17886 -1.75067,-0.17084 -2.52466,-0.22784l-0.90002,-0.2955l-0.69464,-0.29468l-1.01669,-0.31665" id="svg_14" stroke-width="2" stroke="#000" fill="none"/>
  <path t="38673,38832,38845,38845,38855,38855,38855,38868,38868,38868,38868,38886,38886,38886,38893,38893,38893,38905,38905,38918,38918,38918,38935,38941,38942,38953,38954,38969,38969,38984,38991,39003,39028,39028,39040,39041,39052,39069,39069,39078,39114,39127,39127,39139,39163,39177,39177,39187,39188,39201,39201,39218,39218,39224,39225,39225,39237,39237,39237,39251,39267,39268,39274,39274,39286,39286,39301,39318,39318,39324,39335,39335,39351,39351,39360,39360,39360,39372,39372,39372,39372,39384,39384,39385,39409,39409,39410,39410,39472,39472" d="m442,289.89999c-0.05716,-1.75717 -0.3475,-2.66174 -0.7045,-3.40448c-0.38495,-0.8009 -0.82126,-1.62375 -1.01016,-2.36618c-0.21884,-0.86005 -0.25635,-1.89093 -0.31067,-2.61465c-0.05496,-0.7323 -0.16379,-1.80069 -0.41068,-2.76801c-0.15454,-0.6055 -0.56677,-1.67883 -0.8595,-2.3895c-0.35065,-0.85129 -0.59738,-1.86069 -0.72983,-2.65717c-0.16714,-1.0051 -0.36325,-1.61526 -0.776,-2.31467c-0.52951,-0.89722 -0.96231,-1.84244 -1.21951,-2.46451c-0.38742,-0.93707 -1.27826,-0.90607 -2.09381,-1.58884c-0.57547,-0.48178 -1.1799,-1.37463 -2.08536,-1.43201c-0.89819,-0.05692 -1.76431,-0.22852 -2.43597,-0.57465c-0.81213,-0.41855 -1.71872,-0.31473 -2.60684,-0.42984c-0.87683,-0.11365 -1.69421,-0.47757 -2.39999,-1.04819c-0.73105,-0.59106 -1.35757,-0.92197 -2.15717,-0.94733c-0.9014,-0.02859 -1.67346,-0.62329 -2.52151,-0.87848c-0.67657,-0.20358 -1.6785,-0.12152 -2.65765,-0.12152c-0.85419,0 -1.66562,0.02332 -2.50616,-0.28534c-0.74625,-0.27402 -1.70288,-0.84122 -2.32535,-1.10397c-0.85974,-0.36295 -1.87054,-0.54721 -2.66849,-0.58984c-0.75067,-0.0401 -1.88217,0.05524 -2.84216,-0.24216c-0.70081,-0.2171 -1.51776,-0.58966 -2.30402,-0.80402c-0.86435,-0.23566 -1.63132,-0.71307 -2.32401,-1.36398c-0.59283,-0.5571 -1.47479,-0.50275 -2.29349,-0.96783c-0.86365,-0.4906 -1.36237,-1.29263 -2.24249,-1.56018c-0.70752,-0.21507 -1.7251,-0.51093 -2.32535,-0.944c-0.65811,-0.47479 -1.60455,-1.13026 -2.14648,-1.386c-0.84421,-0.39838 -1.46054,-0.60503 -2.64285,-1.23666c-0.60886,-0.32529 -1.18021,-0.72806 -2.39999,-1.34933c-0.58835,-0.29965 -1.45834,-0.64583 -2.22934,-0.96533l-0.79999,-0.39999l-0.76801,-0.51601" id="svg_15" stroke-width="2" stroke="#000" fill="none"/>
  <path t="41196,41366,41378,41414,41427,41427,41438,41438,41451,41451,41468,41468,41476,41476,41476,41487,41487,41518,41518,41518,41525,41549,41549,41568,41574,41586,41602,41623,41648,41672,41697,41697,41710,41710,41721,41734,41752,41752,41758,41758,41758,41770,41770,41771,41784,41802,41832,41894" d="m402,255.89999c0,1.80002 0.24539,2.43787 0.83334,3.16669c0.56351,0.69855 0.83057,1.38519 1.46216,2.13782c0.46045,0.54868 0.63153,1.53983 0.78851,2.29684c0.21021,1.01376 0.61868,1.79953 1.01599,2.59866c0.39819,0.80087 0.68134,1.40964 1.2045,2.39999c0.32019,0.60611 1.01291,1.603 1.51016,2.18933c0.47195,0.55652 0.94757,1.51468 1.40683,2.31067c0.38495,0.66718 1.23846,1.25558 1.65717,1.99985c0.41714,0.74149 1.35349,0.65591 2.03732,1.18414c0.62753,0.48471 1.38858,0.70523 2.25067,0.716c0.83353,0.01044 1.79391,0.25433 2.42267,0.57468c0.88788,0.45236 1.82135,0.42532 2.73233,0.42532c0.72,0 1.845,0 2.63101,0c0.82199,0 1.88068,0 2.58566,0c0.80002,0 1.82568,0 2.76166,0l0.90002,0l0.89999,0" id="svg_16" stroke-width="2" stroke="#000" fill="none"/>
  <path t="45452,45586,45598,45598,45598,45610,45611,45611,45611,45627,45628,45628,45628,45628,45628,45628,45644,45644,45645,45645,45645,45645,45645,45647,45648,45648,45648,45648,45648,45648,45658,45659,45659,45659,45659,45670,45671,45671,45684,45684,45684,45701,45701,45701,45706,45706,45706,45718,45718,45719,45719,45734,45734,45734,45734,45735,45744,45744,45744,45744,45755,45756,45756,45768,45768,45768,45784,45785,45793,45793,45817,45835,45842,45842,45854,45867,45884,45891,45891,45902,45903,45917,45918,45918,45933,45934,45934,45934,45934,45940,45940,45940,45940,45940,45940,45952,45952,45952,45953,45953,45968,45968,45968,45968,45968,45977,45977,45977,45977,45978,45989,45990,45990,45990,45990,45990,46002,46002,46002,46002,46002,46002,46003,46018,46018,46018,46018,46019,46019,46019,46027,46028,46028,46028,46028,46028,46029,46038,46038,46038,46038,46038,46039,46051,46051,46051,46051,46051,46068,46068,46069,46075,46076,46076,46076,46076,46088,46088,46088,46088,46088,46088,46089,46100,46101,46101,46101,46101,46101,46101,46102,46102,46117,46117,46117,46118,46118,46118,46118,46118,46118,46125,46125,46126,46126,46126,46126,46126,46127,46137,46137,46137,46137,46137,46138,46138,46150,46151,46151,46151,46151,46151,46167,46167,46167,46168,46168,46168,46168,46174,46174,46174,46175,46175,46175,46175,46175,46176,46186,46186,46186,46187,46187,46187,46187,46187,46188,46201,46201,46201,46202,46202,46202,46202,46202,46217,46217,46217,46217,46218,46218,46223,46223,46224,46224,46236,46236,46252,46253,46260,46261,46273,46273,46284,46285,46302,46302,46310,46310,46310,46311,46321,46322,46322,46322,46322,46323,46335,46335,46335,46336,46336,46336,46337,46352,46352,46352,46352,46353,46353,46359,46359,46360,46360,46370,46370,46370,46371,46385,46385,46401,46401,46407,46420,46420,46434,46434,46451,46458,46458,46468,46485,46494,46505,46518,46534" d="m326,388.89999c-0.64667,1.63602 -1.30649,2.33765 -1.84668,2.82535c-0.59872,0.54056 -1.56552,1.17435 -2.12399,1.422c-0.93295,0.4137 -1.68613,0.63818 -2.52933,0.91934c-0.95676,0.31903 -1.47366,0.49353 -2.58334,0.83331c-0.58347,0.17865 -1.18475,0.35703 -1.806,0.51602c-1.92453,0.49255 -2.59396,0.60239 -3.26334,0.72681c-0.672,0.12491 -1.34692,0.23874 -2.02197,0.34653c-1.34061,0.21405 -2.65891,0.4093 -3.30353,0.51083c-0.63403,0.09985 -1.86523,0.30664 -2.45932,0.42065c-0.58057,0.11142 -1.69858,0.33621 -2.72916,0.64584c-0.96835,0.29095 -1.8429,0.65204 -2.25,0.83331c-1.11826,0.49792 -2.02866,1.00409 -2.82202,1.35333c-0.6998,0.30804 -1.68369,0.51804 -2.48666,0.63202c-0.82312,0.11682 -1.87772,0.41968 -2.53867,0.87598c-0.65802,0.45428 -1.42715,1.13159 -2.04666,1.51334c-0.63757,0.39288 -1.61664,0.93826 -2.436,1.47202c-0.60422,0.39359 -1.24271,0.83618 -2.27466,1.57449c-0.36365,0.26016 -1.09769,0.80264 -1.85333,1.3175c-0.73529,0.50098 -1.7951,1.13657 -2.46817,1.44699c-0.62863,0.28995 -1.55762,0.60645 -2.457,0.91452c-0.8913,0.30533 -1.50256,0.46463 -2.53351,1.0665c-0.74048,0.43231 -1.29489,1.08047 -2.16666,1.5c-0.74924,0.36053 -1.85559,0.18378 -2.58932,0.36932c-0.87189,0.22046 -1.66431,0.75302 -2.51068,1.18533c-0.6553,0.33472 -1.33795,0.92819 -1.95267,1.42599c-0.61383,0.49707 -1.61075,0.29996 -2.35184,0.40982c-1.00995,0.14972 -1.77496,0.59595 -2.79599,0.8215c-0.85001,0.18777 -1.65768,0.19012 -2.66415,0.34283c-0.81329,0.12341 -1.25421,0.21329 -2.20334,0.38919c-1.02159,0.18933 -2.09854,0.39008 -2.65317,0.48932c-1.12672,0.2016 -1.69385,0.29816 -2.8175,0.5c-0.55167,0.09909 -2.12834,0.39835 -2.61833,0.49985c-0.92932,0.1925 -1.79839,0.39511 -2.634,0.543c-1.20518,0.21332 -2.0098,0.28149 -2.81967,0.32117c-0.40994,0.02008 -1.24649,0.03278 -2.556,0.03598c-0.91733,0.00223 -1.85876,0.00668 -2.33333,0.02084c-0.9476,0.02829 -2.33409,0.13992 -2.77901,0.2005c-0.87898,0.11966 -1.76137,0.28699 -2.68799,0.42599c-0.48703,0.07306 -2.09708,0.23566 -2.68767,0.26733c-0.61211,0.03284 -1.88698,0.06653 -2.54134,0.07468c-0.66032,0.00821 -1.32266,0.00931 -2.63733,0.01065c-1.28267,0.00131 -1.91405,0.00125 -2.54134,0.01068c-1.25079,0.0188 -1.8783,0.04056 -2.50934,0.07465c-1.28337,0.06934 -2.59923,0.19647 -3.26416,0.27634c-0.66711,0.08014 -1.33241,0.17151 -1.99051,0.285c-1.29498,0.22333 -2.52985,0.51315 -3.118,0.67484c-0.57187,0.1572 -1.65306,0.50623 -2.16,0.69934c-0.96609,0.36801 -2.25388,0.9718 -3.01266,1.3765c-0.70232,0.37457 -1.33075,0.77231 -1.968,1.03201c-1.17488,0.47882 -1.8119,0.52591 -2.75983,0.56165c-1.00883,0.03802 -1.73083,0.009 -2.50017,0.009c-0.82533,0 -1.71466,0 -3.18617,0c-0.53116,0 -1.08432,0 -2.26067,0c-0.62517,0 -1.27632,0 -1.9545,0c-1.44133,0 -2.20566,0 -2.996,0c-0.81233,0 -1.64265,0 -2.487,0c-0.85432,0 -1.71466,0 -2.577,0c-1.71466,0 -2.55966,-0.00085 -3.39467,0.00134c-0.825,0.00217 -1.64003,0.00674 -2.44499,0.0195c-0.79504,0.0126 -1.58028,0.02966 -2.35501,0.06448c-1.52063,0.06833 -2.2655,0.13089 -3,0.20135c-0.72552,0.06961 -1.44254,0.14288 -2.84,0.35999c-0.68636,0.10663 -1.36385,0.2225 -2.67999,0.52002c-0.64684,0.14624 -1.90193,0.48575 -2.50934,0.66931c-0.59625,0.18021 -1.1803,0.35904 -2.28534,0.76535c-1.04419,0.38394 -2.00386,0.79767 -2.46666,0.99417c-0.90506,0.38431 -1.80644,0.75916 -2.27333,0.91916c-1.46321,0.50143 -2.00423,0.61221 -3.136,0.85999c-0.59894,0.1311 -1.22522,0.25128 -1.8765,0.37802c-0.67805,0.13196 -2.11975,0.41284 -2.884,0.56866c-0.79175,0.16144 -1.60684,0.33215 -2.4435,0.504c-0.85434,0.17548 -1.72348,0.35208 -2.60551,0.522c-0.88995,0.17145 -2.68584,0.49017 -3.586,0.63116c-0.89586,0.14032 -1.7867,0.26648 -2.66849,0.3855c-0.86922,0.11731 -1.724,0.22549 -2.5605,0.33148c-0.81549,0.10333 -2.3717,0.3031 -3.10684,0.40436c-0.70752,0.09747 -1.3886,0.19608 -2.04599,0.28949c-0.63528,0.09027 -1.24991,0.1806 -1.84801,0.25351c-1.70202,0.20746 -2.24846,0.24176 -3.3045,0.30447c-0.50867,0.03021 -1.48514,0.05658 -2.39417,0.13669c-1.23172,0.10852 -1.96195,0.24188 -2.91467,0.52667c-0.57525,0.17194 -1.56014,0.61319 -2.41067,0.95331c-0.95174,0.38058 -1.74458,0.48346 -2.50383,0.79318c-0.76305,0.31128 -1.75133,0.82455 -2.322,1.14282c-1.01806,0.56781 -1.60468,1.19153 -2.5075,1.41467c-0.74136,0.18323 -1.68056,0.06314 -2.484,0.09433c-0.94938,0.03683 -1.69337,0.13129 -2.99384,0.43384c-0.49432,0.11499 -1.54359,0.41818 -2.098,0.578c-0.56959,0.16418 -1.7383,0.50885 -2.9375,0.8125c-0.5983,0.15149 -1.19808,0.28537 -2.38934,0.54132c-0.58955,0.12668 -1.17818,0.2355 -2.32533,0.50934c-1.1223,0.26788 -2.19829,0.59567 -2.71916,0.76416c-1.00555,0.32526 -1.47643,0.51358 -2.39417,0.7825c-1.22053,0.35764 -1.96293,0.45914 -2.65116,0.56934c-1.00467,0.16086 -2.04758,0.42743 -2.7645,0.70535c-0.72076,0.27942 -1.35834,0.6716 -2.492,1.05167c-0.84969,0.28485 -1.74834,0.24298 -2.61167,0.24298c-1.02733,0 -1.974,0 -2.65266,0c-0.9785,0 -1.79867,0 -2.75716,0c-0.8955,0 -1.75883,0 -2.722,0c-0.82084,0 -1.81634,0.00452 -2.49551,0.42535l-0.54617,0.55383l-0.87917,0.03149" id="svg_17" stroke-width="2" stroke="#000" fill="none"/>
  <path t="55858,56041,56041,56053,56074,56078,56078,56094,56094,56094,56095,56109,56110,56110,56117,56118,56118,56126,56126,56137,56150,56150,56166,56175,56188,56188,56199,56216,56223,56236,56236,56249,56266,56273,56285,56285,56299,56299,56316,56347" d="m554,302.89999c1,1 0.81604,1.83105 1.05719,2.70001c0.21405,0.77121 0.82861,1.62051 0.94281,2.34167c0.17786,1.12329 0.34991,1.91766 0.52081,2.47916c0.2691,0.88406 0.57355,1.78091 0.87921,2.66849c0.29456,0.85541 0.6778,1.89929 1,2.564c0.37463,0.77283 0.99969,1.43649 1.31464,2.13068c0.40344,0.88937 0.30212,2.06247 0.80615,2.57434c0.71539,0.72653 1.87378,0.69254 2.3125,1.54166c0.32983,0.63837 0.16431,1.61987 0.59204,2.39999c0.45123,0.82291 0.87549,1.65082 1.22198,2.30002c0.45337,0.84937 0.32684,1.82083 0.70532,2.60449c0.42926,0.88889 0.62201,1.52084 0.81403,2.52884l0.40796,0.75601l0.38934,0.81064l0.04053,0.90002" id="svg_18" stroke-width="2" stroke="#000" fill="none"/>
  <path t="57482,57615,57628,57628,57644,57658,57658,57673,57675,57675,57688,57701,57718,57725,57726,57736,57736,57749,57749,57766,57766,57774,57774,57786,57836,57947" d="m556,303.89999c0,-2.62534 -0.1076,-3.49802 0.05719,-4.34732c0.17963,-0.92572 0.6767,-1.69092 1.02679,-2.45267c0.34454,-0.74976 1.21985,-1.32364 1.63068,-2c0.47144,-0.77615 1.04205,-1.35681 1.28534,-2.22083c0.26648,-0.94629 0.6748,-1.57123 0.91602,-2.46451c0.19122,-0.70816 0.31067,-1.7128 0.58398,-2.51468c0.34003,-0.99774 0.48199,-1.78888 0.5,-2.83331c0.01306,-0.75589 0,-1.66669 0,-2.56668l0.00452,-0.89999" id="svg_19" stroke-width="2" stroke="#000" fill="none"/>
 </g>
 <g display="none">
  <title>muse_image</title>
  <image xlink:href="http://farm2.static.flickr.com/1315/1133313104_01dd30edf4.jpg" id="muse" height="480" width="640" y="0" x="0"/>
 </g>
 <g display="none">
  <title>bbox</title>
  <rect stroke="#f00" fill="none" stroke-width="3" height="407.04" width="549.12" y="62.72" x="0" id="bbox"/>
 </g>
</svg>
