<svg width="640" height="480" xmlns="http://www.w3.org/2000/svg" xmlns:svg="http://www.w3.org/2000/svg" xmlns:xlink="http://www.w3.org/1999/xlink">
 <!-- Sketchy ANNOTATION
  ImageNet ID: n02395406_3179
  URL: http://www.kingsnake.com/westindian/susscrofa1.JPG
  Image Width: 500
  Image Height: 367
  BBox X: 60
  BBox Y: 78
  BBox Width: 411
  BBox Height: 249
  Exposure: 2000ms
  Synset Label: pig
  Synset ID: n02395406
  Worker Tag: pig sniffing
  Sanity Check: 
   Context
   Saved
   Shading
  Comment: 
   {}
  Worker ID: AXD2DZ7U6CK35
  Assignment ID: 3WQQ9FUS6AUOEX21LGD32UENDYF8BG
  HIT ID: 38B7Q9C28G5GZ66M4FX72QSLJHN964
  Work Time: 126s
  Worker Score: 0.9286
 END ANNOTATION -->
 <g display="inline">
  <title>Layer 1</title>
  <path t="0,15,15,15,15,15,15,24,24,24,24,41,41,57,57,57,74,74,74,91,91,91,107,107,124,124,141,141,157,157,157,174,174,174,191,191,191,207,207,207,207,207,224,224,224,241,242,257,257,257,274,274,292,292,307,307,324,324,341,341,357,357,382,398,410,426,442,442,457,474,491,491,507,507,524,524,524,541,541,541,557,557,557,557,557,557,574,574,574,574,591,591,591,591,607,607,607,607,624,624,624,624,624,641,641,641,641,657,657,657,657,674,674,674,674,691,691,691,691,691,707,707,707,707,707,707,724,724,724,724,724,741,741,741,741,741,741,757,757,757,757,757,774,774,774,774,774,791,791,791,791,791,807,807,807,807,807,807,824,824,824,824,824,824,841,841,841,841,841,841,857,857,857,857,857,857,857,857,874,874,874,874,874,874,874,874,891,891,891,891,891,891,891,907,907,907,907,907,907,924,924,924,924,924,924,941,941,941,941,941,941,957,957,957,957,957,974,974,974,974,974,991,991,991,991,991,1007,1007,1007,1007,1007,1007,1007,1024,1024,1024,1024,1024,1041,1041,1041,1041,1041,1057,1057,1058,1058,1058,1058,1074,1074,1074,1074,1074,1074,1095,1095,1095,1095,1096,1096,1097,1109,1110,1110,1110,1128,1128,1129,1129,1129,1141,1141,1141,1141,1157,1157,1157,1175,1175,1175,1192,1192,1192,1207,1207,1208,1226,1227,1227,1227,1243,1244,1244,1257,1257,1257,1277,1277,1277,1291,1291,1292,1307,1307,1327,1328,1341,1357,1374,1375,1391,1407,1407,1424,1424,1441,1442,1457,1457,1458,1458,1474,1491,1492,1492,1507,1508,1508,1525,1525,1525,1541,1542,1558,1558,1575,1575,1575,1576,1592,1592,1592,1592,1610,1610,1610,1611,1627,1627,1627,1641,1642,1642,1642,1657,1658,1658,1675,1675,1676,1676,1693,1694,1694,1694,1694,1694,1707,1708,1708,1708,1724,1724,1725,1725,1741,1741,1741,1741,1759,1759,1759,1760,1776,1776,1777,1777,1793,1794,1794,1794,1810,1810,1810,1810,1811,1811,1826,1827,1827,1827,1843,1844,1844,1859,1859,1860,1876,1877,1893,1894,1894,1910,1910,1910,1926,1927,1927,1943,1944,1944,1944,1959,1960,1960,1976,1977,1977,1993,1994,1994,2009,2010,2010,2026,2027,2027,2043,2043,2044,2044,2044,2060,2060,2060,2076,2076,2077,2093,2094,2094,2094,2109,2110,2110,2110,2111,2126,2127,2144,2144,2145,2160,2160,2176,2177,2177" d="m89,178c5.27834,-5.9355 5.70544,-6.35295 6.55334,-7.092c0.40131,-0.34979 1.18713,-0.99194 1.56,-1.304c1.07101,-0.89635 1.725,-1.49026 2.32417,-2.06233c0.54781,-0.52304 1.36952,-1.45741 2.0625,-2c0.78256,-0.61273 1.52381,-0.80748 2.24934,-1.17767c0.94398,-0.48166 1.39769,-1.06163 2.056,-1.71133c0.6908,-0.68178 1.44859,-1.00945 2.18933,-1.34816c0.86623,-0.3961 1.56451,-0.92531 2.30983,-1.60451c0.56647,-0.51622 1.34764,-1.00954 2.10001,-1.39999c0.79051,-0.41026 1.62344,-0.80817 2.28083,-1.18533c1.00995,-0.57942 1.53688,-0.94495 2.362,-1.46201c0.78307,-0.49071 1.5004,-0.90779 2.214,-1.278c1.06601,-0.55304 1.70667,-0.85866 2.38934,-1.2c0.69867,-0.34933 1.37521,-0.70311 2.57867,-1.28799c0.72539,-0.35254 1.35708,-0.65337 2.37517,-0.834c0.84594,-0.1501 1.81843,-0.26787 2.62083,-0.47801c0.82368,-0.21571 1.84978,-0.48453 2.528,-0.53867c1.07718,-0.086 1.87242,-0.01057 2.73201,-0.03732c0.92041,-0.02864 1.91246,-0.28496 2.67867,-0.57333c0.81375,-0.30627 1.58865,-0.42308 2.48866,-0.42534c0.86334,-0.00215 1.82651,0 2.74733,0c0.90001,0 1.8573,0.16371 2.70001,-0.22133c0.6693,-0.3058 1.34023,-0.93974 2.00983,-1.42601c0.67117,-0.48741 1.51112,-0.37675 2.49467,-0.70982c0.87206,-0.2953 1.81583,-0.74551 2.34816,-0.94284c0.82048,-0.30414 1.88406,-0.69205 2.60367,-1.0045c0.74461,-0.3233 1.94302,-0.86366 2.30783,-1.01683c0.79697,-0.33461 1.65562,-0.6813 2.535,-1.026c0.43365,-0.16998 1.6554,-0.63849 2.39099,-0.89549c1.021,-0.35672 1.69022,-0.56386 2.73117,-0.85718c0.72977,-0.20563 1.47978,-0.39589 2.226,-0.59999c1.43369,-0.39214 2.10371,-0.60268 2.7735,-0.8c0.6882,-0.20274 1.81128,-0.50516 2.64717,-0.7c0.88141,-0.20544 1.78189,-0.39761 2.22667,-0.5c1.27359,-0.29317 2.03305,-0.50995 3.0845,-0.77917c0.66719,-0.17084 1.686,-0.36838 2.40483,-0.43683c1.11412,-0.10609 1.8678,-0.10008 2.94933,-0.25067c0.68629,-0.09555 1.66753,-0.35114 2.31934,-0.53783c1.01537,-0.29082 1.73543,-0.49651 2.50467,-0.70616c0.82544,-0.22498 1.71649,-0.46849 2.67599,-0.75601c1.03668,-0.31065 1.57211,-0.48566 2.66667,-0.83333c0.54938,-0.1745 1.09169,-0.35709 2.66667,-0.83333c0.48959,-0.14804 1.41943,-0.42207 2.3125,-0.625c0.86537,-0.19662 2.18695,-0.38094 2.64233,-0.42033c0.93468,-0.08086 1.89941,-0.11951 2.38916,-0.14667c0.99088,-0.05496 1.99141,-0.12505 2.98801,-0.26001c0.993,-0.13448 1.48248,-0.22534 2.44417,-0.41916c1.39352,-0.28084 1.8364,-0.39233 2.7,-0.5955c0.83707,-0.19693 1.65268,-0.39993 2.85716,-0.7c0.80269,-0.19997 1.62048,-0.40366 2.472,-0.60001c0.44191,-0.1019 1.86073,-0.40309 2.37083,-0.49983c1.0658,-0.20213 1.61714,-0.29842 2.74249,-0.46416c0.56587,-0.08334 2.2476,-0.27432 2.793,-0.31467c1.05934,-0.07837 1.57516,-0.09317 2.57501,-0.14667c0.48508,-0.02596 1.88274,-0.12254 2.76799,-0.26134c0.8992,-0.14098 1.36299,-0.25056 2.36,-0.475c0.54456,-0.12258 1.75154,-0.40698 2.42567,-0.5595c1.46437,-0.33131 2.24031,-0.49686 3.03467,-0.658c0.80298,-0.1629 1.60779,-0.32011 2.409,-0.4515c1.54654,-0.25361 2.28424,-0.33241 2.99333,-0.4c0.68398,-0.0652 1.34785,-0.11041 1.9935,-0.1485c1.24873,-0.07366 1.8598,-0.0867 3.0625,-0.1875c1.2002,-0.10059 1.79567,-0.18461 2.38933,-0.25867c1.17502,-0.14658 1.75278,-0.22835 2.32533,-0.29067c1.66209,-0.18094 2.20094,-0.20803 3.26001,-0.24799c0.52518,-0.01981 1.578,-0.03287 2.10934,-0.03467c1.63733,-0.00555 2.19998,-0.00134 3.34131,-0.00134c0.57468,0 1.14935,0 2.29068,0c1.11734,0 2.19733,0 2.72232,0c1.02002,0 2,0 2.47501,0c1.36533,0 2.23401,0 3.08667,0c0.85266,0 1.284,0 2.62134,0c0.93134,0 1.87866,0 2.35333,0c0.94131,0 2.30432,0 3.18167,0c0.43967,0 1.341,0 2.29834,0c1.04532,0 2.19733,-0.00011 2.80331,0.0045c0.61801,0.0047 1.86615,0.02773 2.48401,0.05267c0.60614,0.02447 2.29446,0.158 2.80331,0.22683c0.95898,0.12972 1.85782,0.29597 2.29834,0.36333c1.32065,0.20193 2.24121,0.27711 3.19235,0.31667c0.48465,0.02016 1.46848,0.03375 2.96399,0.036c0.5,0.00076 1.5,0 2,0c1,0 2,-0.00066 3,0c1.00266,0.00067 1.50912,-0.0021 2.54166,0.02084c0.53043,0.01178 1.62985,0.05289 2.79169,0.14583c0.6095,0.04875 1.86337,0.18729 2.496,0.26933c0.62943,0.08163 1.25031,0.16072 2.43198,0.36533c1.07428,0.18602 2.00131,0.38838 2.80536,0.59867c0.72916,0.1907 2.09915,0.603 2.81732,0.8c0.74048,0.20311 1.49185,0.39562 2.23199,0.60001c1.06427,0.29388 2.05295,0.59741 2.67334,0.836c0.6145,0.23631 1.81314,0.84146 2.39999,1.18933c0.57852,0.34294 1.63766,1.0192 2.35352,1.4175c0.64096,0.35663 1.6532,0.86569 2.26782,1.15717c0.86902,0.41212 1.8764,0.79684 2.42532,1.01067c0.87131,0.33939 1.7695,0.74594 2.65952,1.2375c0.58734,0.3244 1.3894,0.86703 2.4205,1.18251c0.66931,0.20479 1.37701,0.21169 2.36798,0.45467c0.82486,0.20226 1.64371,0.48792 2.63202,0.916c0.69275,0.30005 1.37366,0.67458 2.36667,1.28133c0.5351,0.32697 1.26205,0.90579 2.34799,1.34801c0.69437,0.28276 1.6095,0.55344 2.31665,0.81667c1.00098,0.3726 1.78,0.76154 2.65268,1.18599c0.65967,0.32086 1.47107,0.79803 2.3215,1.04517c0.86044,0.25005 1.87833,0.12151 2.65765,0.12151c0.85419,0 1.71817,0 2.78485,0c0.59399,0 1.56,0 2.18399,0c1.185,0 2.21866,0 2.89868,0c0.84,0 1.83939,-0.01947 2.67416,0.02083c0.88184,0.04256 1.78833,0.16489 2.65784,0.41518c0.81729,0.23526 1.64261,0.72827 2.43597,1.12799c0.83981,0.42313 1.63864,0.42342 2.552,0.60268c0.80222,0.15746 1.67923,0.44673 2.32001,0.63466c1.03339,0.30307 1.76611,0.49825 2.51334,0.69867c1.11618,0.29938 2.17996,0.59518 2.84283,0.8c0.94867,0.29312 1.55591,0.4998 2.75717,0.89999c0.60004,0.19991 1.5,0.5 2.39999,0.8c0.89999,0.3 1.5,0.5 2.39999,0.8c0.89999,0.3 1.80002,0.60001 2.39999,0.8c1.20001,0.40002 1.80426,0.59668 2.74167,0.92082c0.67383,0.233 1.79245,0.64384 2.62634,0.96317c0.43774,0.16762 1.3316,0.517 2.22665,0.86334c0.43716,0.16916 1.66507,0.62407 2.73334,1.02733c0.65234,0.24625 1.2876,0.47411 2.47333,1.11067c0.61942,0.33255 1.23123,0.73111 1.884,1.116c1.03064,0.60768 1.76328,1.0022 2.51468,1.37784c0.74341,0.37164 1.8299,0.86269 2.51468,1.1355c0.64615,0.25742 1.58105,0.58014 2.48532,0.88533c0.90024,0.30382 1.5126,0.49115 2.39999,0.88533c0.91449,0.4062 1.83194,0.96141 2.508,1.36134c0.36349,0.21504 1.59082,0.92218 2.05585,1.17467c0.98715,0.53596 1.50397,0.79939 2.52417,1.35333c0.49805,0.27043 1.85156,1.04926 2.22598,1.30367c0.95853,0.65131 1.41254,1.11502 2.28601,1.75499c0.77438,0.56738 1.40536,0.8517 2.39999,1.36801c0.60333,0.31317 1.22406,0.65361 2.20001,1.45132c0.61575,0.50331 1.39148,1.1933 2,1.59467c0.59198,0.39046 1.61295,1.05946 2.19998,1.58867c0.61392,0.55345 1.20001,1.164 1.80002,1.76401c0.60001,0.59999 1.39511,1.40494 2.00449,2c0.41309,0.40338 1.06436,1.02101 2.07819,1.79866c0.52371,0.4017 1.31821,0.92972 1.98398,1.43466c0.69418,0.5265 1.29398,1.06059 2.10269,1.65201c0.74484,0.54471 1.30127,0.89545 2.30914,1.71449c0.47345,0.38475 1.08057,1.00264 1.92151,1.6335c0.58908,0.44191 1.51379,0.92044 2.33334,1.33334c0.63422,0.31952 1.32254,0.65974 2.01599,1.04399c0.68799,0.38123 1.88614,1.18031 2.37866,1.57867c0.67151,0.54314 1.47491,1.18538 2.29285,1.73149c0.66675,0.44516 1.4079,1.01407 1.93631,1.4935c0.57166,0.51869 1.14847,1.09354 2.04285,1.98567c0.59808,0.59657 1.17868,1.17867 1.728,1.728c0.50134,0.50134 1.4624,1.46191 2.02017,2.02017c0.73618,0.73683 1.27649,1.25165 1.76782,1.85316c0.63144,0.77301 1.07333,1.59866 1.48401,2.39867l0.41068,0.78934l0.3465,0.5535" id="svg_1" stroke-width="2" stroke="#000" fill="none"/>
  <path t="3674,3686,3700,3700,3712,3725,3725,3743,3743,3759,3759,3776,3776,3776,3793,3793,3793,3810,3810,3810,3810,3826,3826,3843,3843,3843,3859,3859,3859,3876,3876,3895,3895,3895,3895,3909,3909,3909,3926,3926,3943,3943,3943,3959,3959,3959,3976,3976,3993,3993,3994,4009,4009,4026,4026,4026,4044,4044,4059,4059,4076,4076,4093,4093,4109,4109,4126,4126,4143,4174,4579,4666,4683,4699,4724,4724,4745,4745,4745,4761,4761,4761,4778,4778,4795,4795,4795,4811,4811,4811,4826,4827,4841,4841,4859,4859,4859,4876,4876,4893,4893,4893,4907,4907,4926,4926,4926,4942,4942,4942,4959,4959,4959,4976,4976,4993,4993,5009,5009,5026,5043,5060,5060,5082,5126,5222,5282,5306,5342,5374,5386,5386,5402,5418,5434,5446,5462,5476,5476,5493,5507,5526,5526,5542,5542,5560,5560,5576,5593,5593,5609,5626,5626,5643,5643,5659,5676,5676,5693,5710,5710,5724,5724,5743,5743,5759,5759,5776,5776,5776,5793,5793,5809,5810,5810,5826,5826,5827,5843,5843,5859,5859,5859,5876,5876,5893,5893,5893,5909,5909,5909,5925,5926,5943,5943,5959,5959,5959,5976,5976,5976,5993,5993,5994,5994,6009,6009,6009,6010,6026,6026,6043,6044,6044,6059,6059,6076,6076,6076,6093,6094,6094,6109,6109,6126,6126,6126,6143,6143,6159,6176,6176,6193,6209,6209,6227,6243,6243,6259,6260,6260,6276,6276,6293,6294,6309,6310,6310,6328,6329,6329,6343,6343,6359,6376,6376,6393,6393,6422,6438,6454,6465,6490,6506,6506,6522,6534,6582,6618,6694,6747,6782,6814,6814,6834,6850,6866,6877,6894,6909,6909,6926,6944,6959,6960,6978,6991,6991,7012,7012,7024,7024,7044,7059,7077,7077,7091,7092,7111,7112,7127,7127,7145,7157,7179,7179,7194,7194,7194,7218,7234,7244,7262,7262,7278,7294,7310,7329,7346,7362,7376,7398,7414,7433,7441,7518,7674" d="m474,203c1.5,1.5 2.12936,2.29459 2.79999,2.71466c0.73892,0.46284 1.48944,1.00188 1.90002,1.63718c0.58508,0.90529 1.04327,1.37358 1.59998,2.30533c0.43478,0.72766 0.78873,1.54898 1.22086,2.36366c0.35516,0.66954 0.78894,1.40813 1.31516,2.2045c0.36658,0.55478 1.15771,1.61328 1.56268,2.08934c0.57169,0.67207 1.14722,1.26151 1.71732,2.08533c0.53967,0.77986 1.04019,1.60864 1.53668,2.20001c0.51135,0.60907 1.20148,1.38638 1.71133,2.18933c0.34583,0.54465 0.93216,1.47437 1.45032,2.02049c0.7113,0.74971 1.1955,1.19998 1.70651,1.711c0.79648,0.79649 1.5575,1.55751 2.01749,2.0175c0.61499,0.61501 1.47174,1.41174 1.94083,1.96167c0.66833,0.78349 1.01804,1.53636 1.40619,2.10133c0.56519,0.82268 1.13962,1.37808 1.63065,1.99867c0.76709,0.96947 1.0741,1.59961 1.58401,2.59982c0.30042,0.58928 0.66953,1.33701 1.31067,2.1855c0.4537,0.60043 1.09247,1.37086 1.56848,2.1355c0.32523,0.52242 0.78412,1.55598 1,2.4375c0.24942,1.01846 0.65189,1.61191 1.32083,2.34618c0.51614,0.56653 1.05902,1.32631 1.34283,2.09999c0.35507,0.96794 0.24438,1.80838 0.64117,2.71017c0.32581,0.74049 0.75873,1.59097 1.216,2.38533c0.40591,0.70512 0.2775,1.71591 0.784,2.416c0.50177,0.69356 0.65225,1.41512 0.88666,2.05467c0.30719,0.83813 0.85522,1.54703 1.34668,2.34665c0.466,0.75821 0.96442,1.66052 1.28131,2.28134c0.51001,0.99924 0.79993,1.62747 1.36804,2.40134c0.45691,0.62241 1.22528,1.36676 1.81165,2.20001c0.40717,0.57861 0.78473,1.38965 0.96899,2.39999c0.14478,0.79379 0.23895,1.61407 0.57349,2.39999c0.43433,1.02029 0.7796,1.59979 1.1792,2.39999c0.49921,0.99973 0.86304,1.57416 1.1333,2.60001c0.20697,0.78558 0.19281,1.61755 0.52386,2.60449c0.21637,0.64514 0.64862,1.56 0.94281,2.34818c0.30603,0.81976 0.68787,1.88596 1,2.59018c0.28882,0.65155 0.80005,1.65714 1.10004,2.25714c0.40002,0.79999 0.84869,1.57898 1.164,2.40002c0.37573,0.97849 0.28601,1.82465 0.65729,2.77847c0.25598,0.65762 0.7135,1.55356 1.13135,2.3215c0.45758,0.84091 0.64667,1.5 0.64734,2.40002c0.00067,0.89999 0,1.79999 0,2.69998c0,0.89999 0,1.80002 0,2.70001c0,0.89999 0,1.69998 0,2.60001c0,0.89999 0.00226,1.79999 0,2.69998c-0.00226,0.89999 -0.38611,1.73837 -0.716,2.39999c-0.42053,0.84338 -0.25891,1.8364 -0.28534,2.68533c-0.02869,0.92044 -0.21271,1.71713 -0.49866,2.49384c-0.36914,1.00281 -0.39874,1.83002 -0.53601,2.65683c-0.14471,0.87161 -0.61755,1.70926 -0.91132,2.60684c-0.27997,0.85541 -0.81586,1.48413 -0.99548,2.40985c-0.16479,0.84927 0.02893,1.75241 -0.40985,2.65182c-0.30042,0.61575 -0.48547,1.55673 -0.81403,2.52884c-0.23865,0.70609 -0.76221,1.48294 -0.82263,2.34131c-0.0661,0.93909 -0.01068,1.70935 -0.01068,2.67203c0,0.84 0,1.83731 0,2.65332c0,0.81601 -0.06049,1.81931 0.03601,2.68933c0.11328,1.02142 0.44427,1.60495 0.67999,2.496c0.26038,0.98438 0.27185,1.81451 0.28265,2.63068c0.01324,0.99857 -0.03613,1.88959 0.22266,2.884c0.15961,0.61331 0.54694,1.38937 0.72601,2.40448c0.14929,0.84607 0.26788,1.81842 0.47803,2.62085c0.2157,0.82367 0.48151,1.85019 0.53864,2.53867c0.06909,0.83252 -0.02203,1.84259 0.0932,2.63599c0.14758,1.01605 0.57971,1.82089 0.77612,2.76666c0.16138,0.77701 0.15472,1.608 0.16669,2.66669c0.00812,0.71848 0.01117,1.44467 0.33331,2.5c0.19794,0.64838 0.68573,1.68011 0.96136,2.41849c0.39996,1.0715 0.55377,1.75888 0.68451,2.70651c0.07983,0.57858 0.23517,1.62234 0.52081,2.52081c0.32538,1.02341 0.409,1.62683 0.55267,2.42084c0.18298,1.01129 0.5816,1.82144 0.78064,2.76666c0.1637,0.77719 0.12689,1.61874 0.33337,2.66669c0.14178,0.71964 0.54419,1.54727 0.74933,2.56665c0.1593,0.7916 0.30115,1.80148 0.58398,2.60001c0.21289,0.6011 0.46014,1.5946 0.49866,2.51468c0.04034,0.9639 0.44189,1.74335 0.71735,2.37067c0.39197,0.89267 0.44556,1.95068 0.784,2.59381c0.43622,0.82886 0.45886,1.84479 0.52081,2.54169c0.08771,0.98608 0.36975,1.79321 0.78052,2.49384c0.53137,0.90634 0.97601,1.4426 1.146,2.49515c0.12427,0.76947 0.1756,1.83676 0.40985,2.53302c0.29364,0.87262 0.7428,1.65717 1.14282,2.45715c0.29999,0.60001 0.83893,1.57678 1.14282,2.34283c0.35138,0.8858 0.35718,1.82382 0.35718,2.65717c0,0.97849 -0.01801,1.79886 0,2.70001c0.01801,0.90054 0.61816,1.61032 0.91467,2.5c0.28589,0.85764 0.08533,1.79999 0.08533,2.59998c0,0.90002 0,1.80002 0,2.70001c0,0.89999 0,1.79999 0,2.70001c0,0.89999 0,1.79999 0,2.59998c0,0.90002 0.01196,1.8252 -0.42535,2.60001c-0.40985,0.72614 -0.90576,1.41431 -1.67462,1.82135c-0.75751,0.40106 -1.56641,0.69461 -2.30005,1.21466c-0.78711,0.55795 -1.1275,1.246 -1.90448,1.8595c-0.79755,0.62973 -1.521,0.66357 -2.52881,0.7045c-0.79218,0.03217 -1.6369,0.31863 -2.51404,0.64734c-0.88306,0.3309 -1.80151,0.18265 -2.65265,0.51932c-0.70264,0.27792 -1.48999,0.72122 -2.40448,0.88602c-0.80017,0.1442 -1.55432,0.50632 -2.57404,0.82599c-0.80676,0.2529 -1.44336,0.81061 -2.32599,1.06418c-0.979,0.28125 -1.73212,-0.00406 -2.6955,0.22382c-0.80829,0.19119 -1.48981,0.66855 -2.47919,0.8125c-0.9115,0.13263 -1.87744,-0.11572 -2.72083,0.30484c-0.66162,0.32993 -1.59775,0.35077 -2.36398,0.75201c-0.75836,0.39713 -1.23734,0.96332 -2.13602,0.96399c-0.89999,0.00067 -1.73804,0.16281 -2.35266,0.64734c-0.64944,0.51199 -1.64734,0.35266 -2.51132,0.38867l-0.52002,0.67999l-0.71732,0.28265" id="svg_2" stroke-width="2" stroke="#000" fill="none"/>
  <path t="9853,9859,9859,9860,9860,9860,9877,9877,9877,9877,9894,9894,9910,9910,9924,9924,9940,9940,9940,9957,9957,9974,9974,9990,9990,10007,10007,10024,10024,10040,10057,10074,10074,10090,10107,10124,10140,10157,10174,10194,10194,10207,10226,10246,10262,10302,10338,10346,10382,10667,10691,10723,10843,10887" d="m488,397c0.00699,1.32834 0.4678,2.12784 1.04166,3.04166c0.3013,0.47983 0.62027,0.94977 1.45834,2.29169c0.44989,0.72037 0.75729,1.33319 1.29599,2.17599c0.56833,0.88916 1.04099,1.35233 1.604,2.32666c0.32162,0.55658 0.80002,1.564 1.10001,2.164c0.5,1 0.92978,1.78445 1.14282,2.39999c0.33905,0.97961 0.29688,1.82071 0.57867,2.79984c0.2309,0.80228 0.74399,1.66177 1.2785,2.27933c0.56503,0.65283 1.22028,1.25531 1.44733,2.17352c0.20981,0.84851 0.57028,1.66193 0.93134,2.44733c0.39468,0.85858 0.91632,1.55374 1.10049,2.39999c0.18927,0.86954 0.65216,1.48578 1.04617,2.11066c0.47198,0.74854 0.7637,1.64297 1.19601,2.48935c0.33472,0.6553 0.97116,1.29596 1.49466,1.98401c0.46683,0.61359 0.65469,1.34491 1.16251,2.13748c0.47845,0.74673 -0.21561,1.9274 0.28815,2.61185c0.48062,0.65298 0.8335,1.26648 1.11734,2.08264l0.66333,0.43668l0.55267,0.64734" id="svg_3" stroke-width="2" stroke="#000" fill="none"/>
  <path t="22273,22407,22415,22426,22443,22458,22474,22474,22490,22491,22526,22526,22546,22578,22594,22594,22598,22607,22624,22640,22640,22657,22657,22673,22673,22673,22691,22691,22691,22708,22708,22708,22708,22723,22723,22723,22740,22740,22740,22757,22757,22757,22774,22774,22774,22790,22790,22790,22790,22808,22809,22809,22809,22824,22824,22824,22824,22842,22842,22842,22842,22858,22858,22858,22873,22873,22873,22890,22890,22907,22907,22923,22923,22924,22924,22940,22940" d="m528,295c1.79999,0 2.70001,0 3.59998,0c0.90002,0 1.72803,0.08578 2.72137,-0.22134c0.70087,-0.21671 1.50116,-0.68365 2.30396,-0.76797c1.0174,-0.10684 1.73779,-0.17432 2.45734,-0.72668c0.69452,-0.53317 1.14764,-1.24432 1.5647,-1.98401c0.42004,-0.745 1.0282,-1.21939 1.75269,-1.73599c0.78564,-0.56021 1.24805,-1.16797 1.79999,-2.04932c0.43964,-0.702 0.79999,-1.51468 1.20001,-2.31467c0.29999,-0.60001 0.7804,-1.61404 1.14166,-2.22086c0.4046,-0.6796 1.22388,-1.66531 1.70898,-2.2045c0.49622,-0.55154 1.02234,-1.05923 1.77997,-2.08932c0.47504,-0.64584 0.83154,-1.29974 1.45337,-2.08667c0.49988,-0.6326 1.0802,-1.25656 1.63202,-2.28265c0.28418,-0.52841 0.56604,-1.40558 1.20544,-2.3945c0.46539,-0.71979 0.88684,-1.11316 1.67853,-1.92151c0.59821,-0.61078 1.21857,-1.25766 1.59998,-1.77066c0.63165,-0.84955 1.00421,-1.53683 1.40002,-2.25018c0.4043,-0.72861 0.99091,-1.81793 1.40002,-2.49249c0.39136,-0.64529 0.97821,-1.54193 1.59998,-2.32001c0.58008,-0.72586 0.9953,-1.15039 1.59998,-1.76532c0.79395,-0.8074 1.40009,-1.40131 2,-2.00134c0.59991,-0.59998 1.216,-1.17645 1.74286,-1.79999c0.81464,-0.9641 1.09399,-1.60649 1.65717,-2.43333c0.48553,-0.71286 1.17139,-1.49664 1.65265,-2.17201c0.35077,-0.49223 0.86334,-1.22665 1.46204,-2.02399l0.58081,-0.66167" id="svg_5" stroke-width="2" stroke="#000" fill="none"/>
  <path t="23967,23986,23995,24011,24025,24040,24057,24057,24073,24073,24073,24090,24090,24107,24123,24124,24140,24140,24157,24174,24174,24190,24208,24223,24223,24242,24257,24273,24290,24290,24307,24307,24323,24323,24340,24340,24357,24373,24373,24394,24407,24423,24440,24457,24457,24473,24490,24514,24534,24541,24558,24573,24590,24590,24606,24607,24607,24607,24622,24623,24639,24640,24657,24657,24657,24673,24673,24673,24673,24689,24690,24690,24705,24705,24706,24722,24723,24723,24723,24739,24740,24755,24814,24821,24849,24882,24885,24902,24926,24954,24969,24986,25002,25005,25023,25039,25040,25057,25057,25073,25073,25090,25106,25106,25106,25123,25123,25123,25140,25156,25156,25173,25173,25190,25190,25206,25206,25206,25223,25223,25240,25264,25264" d="m514,256c1.79999,0 2.38715,-0.31448 3.16669,-0.83333c0.70746,-0.47086 1.46777,-0.54611 2.16663,-1c0.62732,-0.40741 1.83728,-0.31769 2.61487,-0.51933c0.79474,-0.20609 1.70984,-0.54004 2.51013,-0.62651c0.94733,-0.10236 1.86023,-0.24915 2.54169,-0.52083c0.97455,-0.38853 1.79865,-0.49933 2.63599,-0.5c1.01666,-0.00081 1.72485,0.15457 2.72803,-0.01067c0.86786,-0.14294 1.62231,-0.90143 2.336,-0.98483c0.89392,-0.10446 1.83325,0.04181 2.70001,-0.42984c0.73267,-0.3987 1.41449,-0.55624 2.36798,-0.57599c0.98175,-0.02034 1.9043,-0.15196 2.71118,-0.49867c0.84833,-0.36452 1.52063,-0.48958 2.49933,-0.5c1.02142,-0.01086 1.82147,0 2.7215,0c0.89996,0 1.83887,0.06062 2.59998,-0.35266c0.74622,-0.40521 1.50018,-0.62869 2.40002,-0.64734c0.90051,-0.01866 1.69446,-0.43451 2.49866,-0.916c0.74359,-0.44521 1.26862,-1.0162 1.82214,-1.60483c0.59991,-0.63797 1.24408,-1.10245 2.14587,-1.64584c0.78827,-0.47496 1.32318,-0.81813 2.06396,-1.34933c0.81201,-0.58226 1.50232,-1.20241 2.2547,-1.68533c0.71161,-0.45677 1.52954,-0.94763 2.11462,-1.45583c0.61627,-0.53532 1.40002,-1.34285 2,-1.94284c0.60004,-0.60001 1,-0.99997 1.80005,-1.79999c0.59998,-0.59999 1.19568,-1.20432 2.00128,-2c0.40723,-0.40219 1.03668,-1.02367 2.01984,-1.79984c0.51727,-0.40837 1.32269,-0.95702 1.80951,-1.31483c0.96552,-0.70963 1.72327,-0.93681 2.48401,-1.56934c0.72467,-0.60252 0.961,-1.48676 1.72131,-1.88c0.76398,-0.39511 1.61169,0.3243 2.13867,0.98933c0.49622,0.62624 0.42535,1.57468 0.42535,2.47467c0,0.89999 0.00006,1.8 0,2.7c-0.00012,0.90001 -0.16333,1.80234 -0.61066,2.436c-0.4856,0.6879 -0.93909,1.33807 -1.26801,2.3425c-0.26312,0.80348 -0.66034,1.54494 -1.28802,2.18817c-0.65582,0.67207 -1.22113,1.20734 -1.81183,2.03316c-0.53894,0.7534 -0.76056,1.36032 -1.42151,2.16417c-0.64514,0.78464 -1.23907,1.24562 -1.79999,2.12c-0.43091,0.67178 -0.87292,1.51823 -1.43597,2.14134c-0.65491,0.72475 -1.18933,1.19998 -1.71136,1.722c-0.76733,0.76732 -1.34814,1.34816 -2.05267,2.05266l-0.69995,0.70001l-0.5,0.5" id="svg_6" stroke-width="2" stroke="#000" fill="none"/>
  <path t="28451,28466,28466,28478,28494,28508,28508,28524,28540,28540,28540,28556,28557,28573,28590,28590,28606,28606,28623,28624,28640,28656,28657,28674,28674,28690,28707,28707,28724,28724,28740,28741,28757,28774,28790,28791,28807,28807,28824,28824,28840,28856,28857,28857,28874,28874,28890,28891,28906,28906,28924,28924,28940,28940,28941,28956,28973,28973,28990,28990,29006,29006,29006,29006" d="m465,234c2.11334,4.85867 2.63962,5.68144 3,6.5c0.35394,0.80394 0.80701,1.67297 0.97467,2.31467c0.26889,1.02916 1.09741,1.47491 1.50449,2.22701c0.28961,0.53506 0.36353,1.57561 0.60486,2.47299c0.2403,0.89351 0.73892,1.65416 0.91599,2.48534c0.20908,0.98137 0.6716,1.5929 0.91599,2.48399c0.2312,0.84297 0.57779,1.68591 0.91736,2.51601c0.29318,0.71669 0.04993,1.67276 0.25198,2.51599c0.21521,0.8981 0.83609,1.80035 0.89383,2.48401c0.0824,0.9754 -0.02448,1.88562 0.03152,2.82535c0.04132,0.69345 0.65167,1.58224 0.90399,2.37466c0.27438,0.86172 0.08533,1.77066 0.08533,2.56799c0,0.98132 0,1.89865 0,2.81067c0,0.84265 0,1.75467 0,2.672c0,0.74399 0,1.78 0,2.63199c0,0.95334 0.03058,1.71927 -0.00449,2.71735c-0.02814,0.80124 -0.25919,1.80896 -0.51636,2.39999c-0.44244,1.01678 -0.91556,1.77002 -1.19382,2.51468c-0.31448,0.84158 -0.47116,1.82352 -0.80618,2.48532c-0.43417,0.85764 -1,1.52084 -1.64581,2.33334l-0.48602,0.672l-0.34732,0.49466l-0.51599,0.73199" id="svg_7" stroke-width="2" stroke="#000" fill="none"/>
  <path t="29934,30026,30038,30057,30073,30093,30093,30121,30145,30145,30153,30165,30189,30205,30217,30225,30225,30240,30255,30272,30272,30289,30289,30306,30306,30306,30323,30323,30340,30356,30356,30372,30373,30390,30390,30406,30406,30422,30422,30423,30440,30440,30455,30456,30472,30489,30490,30506,30506,30506,30523,30523,30540,30540,30556,30556,30556,30573,30573,30573,30590,30590,30605,30606,30606,30606,30606,30623,30623,30623,30639,30640,30640,30656,30656,30656,30656,30673,30673,30673,30689,30690,30690,30705,30706,30706,30722,30723,30723,30740,30740,30756,30773,30773,30789,30790,30806,30806,30823,30823,30840,30856,30873,30890,30906,30906,30937,31038,31038,31055,31081,31113,31150,31166,31262,31337,31373,31397" d="m462,231c-0.87851,1.2215 -0.75467,2.23299 -1.284,2.916c-0.48798,0.62968 -0.97943,1.30354 -1.51733,1.884c-0.67224,0.72543 -1.22009,1.40195 -1.89868,1.84283c-0.79233,0.51477 -1.34894,1.18744 -2.10132,1.35583c-0.87885,0.1967 -1.67899,0.54311 -2.39868,1.2c-0.5845,0.53348 -1.38879,0.89632 -1.90982,1.50583c-0.55136,0.645 -1.29825,0.9973 -2.29016,1.4955c-0.59946,0.30109 -1.60376,0.79266 -2.1955,1.10001c-0.75223,0.39072 -1.65674,0.98973 -2.20319,1.5c-0.73508,0.68642 -1.52423,1.29735 -2.20132,1.7c-0.8353,0.49672 -1.49814,0.98097 -2.10001,1.60017c-0.62015,0.63802 -1.0527,1.41692 -1.53598,2.07449c-0.62564,0.85127 -1.23734,1.14066 -1.88,1.70934c-0.79224,0.70105 -1.12766,1.50006 -1.68402,2.23067c-0.55124,0.72385 -1.19998,1.28532 -1.90015,1.98549c-0.53583,0.53583 -1.22116,1.22116 -1.72519,1.72519c-0.69064,0.69064 -1.45428,1.3913 -1.87015,1.92731c-0.66687,0.85956 -0.99734,1.65552 -1.40466,2.44736c-0.41345,0.80374 -0.75842,1.42075 -1.38385,2.19998c-0.49536,0.61716 -1.10574,1.15079 -1.75882,2.20901c-0.39288,0.6366 -0.76462,1.72205 -0.95718,2.36032c-0.20807,0.68964 -0.39548,1.41727 -0.59998,2.14801c-0.39139,1.39844 -0.58502,2.0412 -0.90002,2.92099c-0.28644,0.79999 -0.73746,1.73193 -0.94281,2.4715c-0.3096,1.11508 -0.31021,1.79956 -0.33633,2.51102c-0.02682,0.73068 -0.02084,2.1575 -0.02084,2.8175c0,0.91498 0,1.995 0,2.70898c0,0.67801 0,1.87399 0,2.67801c0,0.82199 -0.02515,1.854 0.01068,2.53867c0.04379,0.83685 0.36447,1.823 0.63666,2.57883c0.32242,0.89526 0.27899,1.82895 0.3735,2.65717c0.11325,0.99258 0.62311,1.60342 1.17917,2.48401c0.42612,0.67484 0.79922,1.60059 1.39999,2.06934c0.77747,0.6066 1.40646,1.04935 2.10449,1.49933c0.77582,0.50012 1.39551,1.04733 1.99551,1.64734c0.69998,0.69998 1.39398,1.22385 1.86398,1.89999c0.56009,0.80579 1.0466,1.39465 1.936,1.39999c0.89996,0.0054 1.7955,0.00449 2.47467,0.42532l0.54617,0.55383l0.87915,0.02084l0.89999,0" id="svg_8" stroke-width="2" stroke="#000" fill="none"/>
  <path t="32199,32207,32207,32207,32207,32225,32225,32242,32242,32242,32258,32258,32273,32273,32290,32290,32307,32307,32350,32350,32374,32386,32394,32405,32422,32439,32440,32456,32456,32456,32456,32472,32473,32489,32506,32506,32523,32540,32540,32540,32556,32556,32573,32573,32590,32590,32606,32606,32623,32623,32640,32640,32656,32672,32689,32690,32706,32706,32723,32723,32740,32740,32756,32756,32756,32773,32790,32790,32790,32806,32806,32823,32823,32839,32899" d="m448,267c-5.271,12.74182 -5.505,13.3696 -5.65701,13.90948c-0.31451,1.11713 -0.34299,2.06934 -0.34299,2.75186c0,1.108 0,1.8595 0,2.65598c0,0.996 0,1.836 0,2.79868c0,0.76801 0,1.72 0,2.48532c0,0.99869 0,1.79868 0,2.79736c0,0.94415 -0.289,2.13272 0.436,2.56531c0.74258,0.44308 1.76779,0.11813 2.664,0.03586c0.91144,-0.08368 1.42868,-0.55832 2.23334,-1.1665c0.66162,-0.50006 1.42215,-0.99945 1.89865,-1.34933c0.96649,-0.70972 1.56567,-1.28235 2.26801,-1.98401c0.70035,-0.69968 1.23898,-1.1636 1.89999,-1.91068c0.63956,-0.72284 1.0069,-1.42175 1.39999,-2.19064c0.40582,-0.79376 0.83084,-1.54056 1.116,-2.51468c0.22086,-0.75452 0.47885,-1.52588 0.73135,-2.28851c0.3237,-0.97763 0.31726,-1.97247 0.70532,-2.84283c0.29852,-0.66949 0.62823,-1.57736 0.646,-2.26865c0.02759,-1.07297 0.01807,-2.00504 0.00119,-2.80533c-0.01801,-0.85388 -0.34866,-1.76184 -0.64719,-2.43134c-0.38806,-0.87036 -0.32819,-1.6731 -0.638,-2.64734c-0.26175,-0.82303 -0.8049,-1.8049 -1.11465,-2.38934c-0.38788,-0.7319 -0.96408,-1.63458 -1.76666,-2.21066c-0.62604,-0.44937 -1.36642,-0.77625 -2.20801,-1.39999c-0.52029,-0.38562 -1.45068,-0.98935 -2.14133,-1.31467l-0.96317,-0.2645l-0.92084,-0.02084" id="svg_9" stroke-width="2" stroke="#000" fill="none"/>
  <path t="36268,36275,36275,36275,36275,36291,36291,36291,36291,36312,36312,36312,36323,36323,36323,36339,36339,36339,36355,36356,36356,36372,36373,36373,36389,36389,36389,36406,36406,36422,36423,36423,36423,36439,36439,36439,36439,36456,36456,36456,36473,36473,36473,36489,36489,36506,36506,36523,36523,36539,36539,36539,36556,36556,36573,36573,36573,36589,36606,36606,36626,36626,36646,36678,36686,37367,37406,37442" d="m384,287c5.83334,13.5 6.40897,14.9213 6.60883,15.45151c0.29236,0.77567 0.70547,1.89291 1.1055,2.55832c0.31268,0.52011 0.87137,1.32114 1.4855,2.06866c0.57394,0.69861 1.18036,1.28885 1.77884,2.12152c0.55728,0.77536 0.87802,1.42123 1.50665,2.20132c0.51382,0.63763 1.13461,1.26926 1.71451,2.01999c0.60947,0.789 0.98273,1.34183 1.63351,2.41202c0.28967,0.47635 0.75159,1.35822 1.16666,2.16666c0.4064,0.79156 0.83527,1.56918 1.48532,2.116c0.67825,0.57056 1.53006,1.03244 2.11917,1.54565c0.64908,0.56546 1.08521,1.02066 2.07819,2.02234c0.53433,0.53903 1.07309,1.07562 1.54797,1.63202c0.83072,0.97327 1.2276,1.67728 1.65201,2.28265c0.57498,0.82013 1.11212,1.41019 1.71866,1.91602c0.76636,0.6391 1.58875,1.03525 2.37735,1.58533c0.67044,0.46765 1.49979,1.11273 2.23199,1.5c0.78223,0.41373 1.58932,0.79999 2.18933,1.10001c1,0.5 1.79895,0.90216 2.60001,1.29999c0.78827,0.39148 1.5098,0.73135 2.37466,0.97467c0.94171,0.26495 1.5892,0.63687 2.60382,0.90384c0.80167,0.21094 1.81842,-0.24167 2.58551,0.1575c0.7594,0.39514 1.23734,0.96265 2.15067,1.04932l0.50684,0.79318" id="svg_10" stroke-width="2" stroke="#000" fill="none"/>
  <path t="38301,38318,38323,38323,38339,38356,38373,38389,38406,38406,38423,38423,38440,38440,38456,38456,38473,38473,38489,38489,38506,38506,38524,38524,38539,38539,38556,38556,38556,38573,38573,38589,38589,38606,38606,38623,38623,38623,38639,38639,38656,38656,38674,38689,38689,38706,38706,38706,38706,38723,38723,38739,38739,38756,38756,38756,38773,38773,38773,38789,38789,38806,38807,38823,38823,38823,38839,38839,38856,38856,38873,38873,38888,38889,38889,38905,38906,38922,38923,38938,38939,38956,38956,38956,38973,38973,38973,38988,38989,38989,39005,39006,39022,39023,39039,39039,39039,39056,39056,39056,39073,39089,39089,39106,39106,39123,39123,39123,39139,39139,39156,39156,39173,39173,39189,39189,39206,39206,39206,39223,39223,39223,39239,39239,39239,39256,39256,39273,39273,39289,39289,39306,39306,39323,39323,39339,39339,39423" d="m436,322c-0.35266,4.12851 -0.91498,4.9874 -0.99866,5.79999c-0.09222,0.89529 -0.00134,1.80002 -0.00134,2.70001c0,0.91068 0,1.82132 0,2.67465c0,0.94135 0,1.70935 0,2.66135c0,0.76532 0.0582,1.77063 -0.05716,2.564c-0.14755,1.01474 -0.57767,1.78302 -0.77618,2.60001c-0.1889,0.77747 -0.16837,1.83334 -0.16666,2.62534c0.00226,1.03183 -0.00287,1.7948 0.284,2.77466c0.17917,0.61203 0.56497,1.59741 0.69067,2.39999c0.12494,0.79773 0.41434,1.78757 0.67267,2.60001c0.31339,0.98557 0.2757,1.79785 0.63666,2.71735c0.28577,0.72797 0.63199,1.65067 0.716,2.38266c0.08401,0.73199 0.44299,1.83401 0.80133,2.38266c0.61066,0.93497 0.94778,1.67108 1.49866,2.36017c0.64389,0.80545 1.24414,1.2804 1.86667,2.09052c0.50534,0.65759 0.82062,1.17578 1.34933,1.89865c0.70999,0.9707 1.20242,1.50098 1.68533,2.25333c0.45676,0.71164 0.95486,1.52332 1.45135,2.11469c0.51135,0.60907 1.33746,1.59235 1.71133,2.18933c0.44882,0.71667 1.0607,1.56683 1.43597,2.09467c0.65536,0.92181 0.91797,1.54984 1.52151,2.31583c0.48425,0.61459 1.04587,1.19336 2.07718,1.91483c0.56165,0.39291 1.49939,0.81403 2.08047,1.40619c0.70959,0.72311 0.95737,1.55194 1.6875,2.3125c0.44012,0.45847 1.20374,0.82913 2.08069,1.46664c0.65479,0.47601 1.44879,0.94394 2.09998,1.45718c0.83087,0.65485 1.06674,1.31955 1.81934,2.07617c0.60709,0.61032 1.26065,0.8887 2.03336,1.48798c0.6192,0.48022 1.3783,1.22476 2.19998,1.79468c0.58536,0.40601 1.23364,0.72629 2.1955,1.53668c0.59024,0.49728 1.27417,1.14731 1.88367,1.84732c0.55551,0.63803 0.89801,1.35785 1.40619,2.10132c0.56265,0.82315 1.10995,1.38242 1.63065,1.91336c0.72037,0.73453 1.48401,1.48532 1.98401,1.98532c0.70132,0.70132 1.25717,1.25717 1.98401,1.98401c0.51599,0.51599 1.03198,1.03198 1.89066,1.89066c0.50934,0.50934 1.27802,1.27802 1.79999,1.79999c0.65869,0.65869 1.34454,1.29593 1.82535,1.992c0.43799,0.63406 0.97217,1.68909 1.42133,2.21869c0.51859,0.61145 1.34668,1.38266 1.82935,1.86533c0.49866,0.49866 1.42795,1.40439 1.935,1.93948c0.51782,0.54645 1.06744,1.49887 1.5715,2.15717c0.51465,0.67215 1.26569,1.09692 2.07617,1.65268c0.68729,0.47125 1.48956,1.09735 2.16666,1.5c0.8353,0.49673 1.47916,1 2.20001,1.70001l0.5,0.5l0.68933,0.67865" id="svg_11" stroke-width="2" stroke="#000" fill="none"/>
  <path t="41680,41718,41734,41746,41747,41757,41773,41790,41790,41807,41823,41823,41839,41839,41856,41872,41889,41889,41906,41922,41939,41958,41958,41986" d="m483,326c1.22134,0.87866 1.8139,1.42389 2.28534,2.20001c0.41083,0.67636 1.20996,1.13953 1.63065,2c0.41745,0.85385 0.84833,1.44611 1.47336,2.19998c0.5452,0.65759 0.67123,1.4942 1.03598,2.42535c0.27328,0.69769 0.49609,1.69223 0.92734,2.47464c0.40991,0.74368 0.45071,1.53455 0.7045,2.40002c0.25729,0.87744 0.89017,1.59998 1.16418,2.39999l0.49466,0.69998l0.33667,0.84283" id="svg_12" stroke-width="2" stroke="#000" fill="none"/>
  <path t="44971,44986,44986,45002,45022,45026,45056,45072,45072,45089,45130,45130,45211,45226,45250,45270,45278,45294,45310,45330,45346,45362,45378,45389,45389,45406,45422,45439,45456,45472,45489,45506,45522,45522,45539,45556,45572,45626" d="m513,421c5.77332,3.94266 6.30347,4.6131 7.20001,4.91467c0.85681,0.28824 1.91437,-0.20111 2.6333,0.25198c0.70502,0.44434 1.35651,0.74304 2.28137,0.83469c0.89624,0.08881 1.42712,1.16092 2.3645,0.957c0.7467,-0.16245 0.52307,-1.45834 0.52081,-2.35834c-0.00226,-0.89551 -0.37598,-1.62848 -1.02533,-2.17468c-0.63556,-0.53464 -1.40106,-1.08813 -2.17468,-1.34c-0.85962,-0.27985 -1.75378,-0.32745 -2.5,-0.73267c-0.76111,-0.41327 -1.73486,-0.1098 -2.59546,-0.35715c-0.76794,-0.2207 -1.31512,-0.99017 -2.20453,-0.99551c-0.91064,-0.00546 -1.82135,0.0004 -2.5,0c-1.11334,-0.00067 -1.87866,-0.22134 -2.35718,-0.94284l-0.84149,-0.0585" id="svg_13" stroke-width="2" stroke="#000" fill="none"/>
  <path t="46279,46290,46298,46306,46326,46326,46339,46339,46356,46373,46373,46373,46389,46389,46407,46407,46422,46422,46422,46440,46441,46457,46457,46472,46472,46490,46490,46509,46526,46540,46540,46556,46572,46589,46608,46625,46640,46640,46659,46674,46690,46710,46839" d="m500,412c-0.63916,0 0.41144,0.10556 1.20001,-0.284c0.87006,-0.42984 1.55716,-0.71375 2.45267,-0.716c0.86331,-0.00217 1.74237,0.03976 2.68066,-0.16666c0.68097,-0.14981 1.64801,-0.53775 2.52383,-0.71185c0.88141,-0.1752 1.80447,-0.12149 2.60449,-0.12149c0.95966,0 1.76367,0 2.58569,0c1.03094,0 1.91095,0 2.93127,0c0.77405,0 1.67853,0 2.42584,0c0.9942,0 1.75952,0 2.83838,0c0.85712,0 1.75714,0 2.55713,0c0.90002,0 1.79999,-0.00534 2.70001,0c0.90009,0.00534 1.71881,0.50052 2.5,0.83334c0.75153,0.32019 1.70001,0.16666 2.59998,0.16666l0.87921,0.02084l0.57349,0.6265l0.74866,0.35132" id="svg_14" stroke-width="2" stroke="#000" fill="none"/>
  <path t="49640,49655,49655,49655,49655,49658,49658,49658,49663,49663,49663,49691,49692,49692,49707,49707,49707,49708,49708,49708,49708,49722,49722,49722,49722,49739,49739,49739,49739,49756,49756,49756,49756,49773,49773,49773,49773,49789,49790,49790,49805,49805,49806,49822,49822,49822,49840,49840,49855,49855,49855,49872,49872,49872,49889,49889,49905,49922" d="m355,312c13.16666,10.33334 14.05859,10.99139 14.85867,11.54532c0.69952,0.48428 1.31857,0.89285 1.87048,1.22552c0.89841,0.54153 1.931,1.07593 2.7565,1.4675c0.68781,0.32626 1.71671,0.63245 2.36768,0.75766c0.83456,0.16052 1.98215,0.49799 2.45349,0.66815c1.06598,0.38483 1.63116,0.62088 2.21402,0.85669c1.17432,0.4751 1.74219,0.71817 2.8125,1.14581c0.92337,0.36893 1.72876,0.65695 2.42398,0.948c1.25427,0.52509 1.84412,0.86685 2.44269,1.21069c0.90216,0.51822 1.79266,1.02417 2.39999,1.28931c0.88989,0.38849 1.4993,0.58289 2.69998,0.98535c0.59967,0.20102 1.50003,0.49988 2.10001,0.69998c1.19876,0.39981 2.08197,0.69232 2.64285,0.90002c1.0412,0.38559 1.71048,0.75659 2.64114,1.01465c0.98273,0.27249 1.81586,0.27316 2.63202,0.284c0.99991,0.01328 1.91656,-0.00693 2.85065,0.168c0.79391,0.14868 1.59781,0.45404 2.66669,0.66669c0.7041,0.14008 1.56216,0.16217 2.56534,0.16666l0.76532,0l0.94934,-0.00134l0.80133,-0.284" id="svg_15" stroke-width="2" stroke="#000" fill="none"/>
  <path t="50808,51043,51043,51055,51074,51074,51074,51091,51091,51105,51105,51105,51105,51123,51123,51123,51139,51139,51140,51140,51155,51155,51155,51155,51155,51172,51172,51172,51172,51189,51189,51189,51189,51205,51205,51205,51205,51222,51222,51222,51222,51222,51239,51239,51239,51239,51239,51239,51255,51255,51256,51256,51256,51273,51273,51273,51273,51289,51289,51289,51289,51289,51305,51305,51305,51305,51306,51322,51322,51322,51322,51322,51340,51340,51340,51340,51355,51355,51355,51355,51355,51372,51372,51372,51389,51389,51389,51389,51389,51405,51405,51406,51422,51422,51422,51439,51439,51439,51455,51455,51455,51455,51472,51472,51472,51489,51489,51505,51522,51522,51539,51539,51539,51555,51555,51572,51572,51589,51589,51604,51605,51622,51639,51723" d="m357,313c-1,1 -1.05588,1.81863 -1.52084,2.52084c-0.54556,0.82394 -0.98288,1.49808 -1.27914,2.08047c-0.51096,1.00443 -0.83643,1.67047 -1.36667,2.73203c-0.31628,0.63321 -0.65811,1.30191 -0.97202,1.97998c-0.54565,1.17865 -0.80753,2.01996 -0.90948,2.60184c-0.18719,1.06815 -0.30353,1.8056 -0.47269,2.6265c-0.17789,0.86322 -0.4718,2.12695 -0.67917,2.88901c-0.19318,0.7099 -0.40466,1.38263 -0.59998,2.052c-0.40845,1.39987 -0.60233,2.15051 -0.76401,2.92801c-0.16385,0.78802 -0.3222,1.98856 -0.38333,2.78482c-0.06012,0.78311 -0.0694,1.5517 -0.21933,2.63785c-0.09473,0.68616 -0.34662,1.66379 -0.48068,2.31934c-0.20654,1.00998 -0.30231,2.11334 -0.35266,2.90982c-0.02655,0.4201 -0.06522,1.3114 -0.22134,2.78018c-0.05594,0.52609 -0.20435,1.60791 -0.27866,2.15732c-0.14807,1.09457 -0.23691,1.62991 -0.37866,3.15701c-0.04379,0.47177 -0.09088,1.37134 -0.14667,2.22165c-0.05374,0.819 -0.18823,2.02264 -0.32733,2.82135c-0.13956,0.80139 -0.32632,1.59549 -0.48068,2.79999c-0.10239,0.79892 -0.13876,1.61044 -0.15598,2.436c-0.0177,0.84921 -0.01068,2.18533 -0.01068,2.64801c0,0.94131 0,1.89066 0,2.36331c0,1.38602 0,2.26602 0,3.10602c0,0.79999 0,1.56 0,2.62549c0,1.0065 0,1.6825 0,2.3905c0,1.17334 0,2.03601 0,2.93066c0,0.89465 0,1.332 0,2.93066c0,0.70801 0,1.384 0,2.73599c0,0.71735 0,1.45868 0,2.20801c0,0.74133 0,2.13867 0,2.77866c0,0.88501 0,1.92535 0,2.62134c0,0.90933 0,1.91202 0,2.767c0,0.62 0.0058,1.97958 -0.00449,2.70651c-0.01035,0.73111 0.02911,1.45529 -0.21686,2.70883c-0.15356,0.78259 -0.55835,1.62717 -0.69333,2.44168c-0.15491,0.93484 -0.08533,1.84866 -0.08533,2.76797c0,0.85419 0,1.83334 0,2.63333c0,0.80002 0.00055,1.80002 0,2.60001c-0.00067,1 0.04333,1.81805 -0.22134,2.79984c-0.21545,0.7991 -0.612,1.63351 -0.77417,2.49567l-0.00449,0.90451l0,0.89999l0,0.87866" id="svg_16" stroke-width="2" stroke="#000" fill="none"/>
  <path t="53329,53335,53335,53335,53335,53335,53335,53335,53335,53335,53343,53343,53343,53343,53343,53343,53343,53343,53343,53355,53355,53372,53372,53389,53389,53389,53389,53405,53405,53405,53405,53422,53422,53422,53422,53439,53439,53439,53439,53455,53455,53455,53455,53472,53472,53472,53472,53489,53489,53489,53505,53505,53505,53505,53522,53522,53522,53539,53539,53539,53539,53555,53555,53555,53572,53572,53572,53589,53589,53589,53605,53605,53605,53622,53622,53622,53639,53639,53639,53639,53655,53655,53655,53672,53672,53689,53689,53689,53689,53705,53705,53705,53722,53722,53739,53739,53739,53755,53755,53756,53772,53772,53789,53789,53805,53805,53805,53822,53822,53839,53839,53855,53855,53872,53872,53872,53889,53905,53905,53922,53922,53939,53939,53939,53955,53955,53955,53972,53972,53989,53989,53989,54005,54005,54005,54022,54039,54039,54055,54055,54055,54055,54072,54072,54089,54089,54105,54105,54122,54154,54154,54190,54190,54267,54283,54291,54307,54322,54339,54339,54355,54355,54355,54355,54372,54372,54372,54389,54389,54389,54405,54405,54405,54422,54422,54422,54439,54439,54439,54439,54455,54455,54455,54455,54472,54472,54489,54489,54489,54505,54575,54603,54635,54815,54826,54858,54894,55183,55354,55382,55398,55418,55442,55442,55482,55502,55502,55526,55539,55555,55572,55589,55605,55622,55622,55639,55639,55662,55727,55727" d="m293,300c0.66666,3.5 0.88388,4.42056 1.13733,5.46133c0.27606,1.13361 0.57294,2.32977 0.88351,3.55951c0.31207,1.23563 0.62119,2.44751 0.9285,3.60449c0.54276,2.04343 0.78085,2.87509 0.99466,3.57867c0.18005,0.59253 0.34149,1.08374 0.4935,1.48349c0.12518,0.32925 0.23758,0.59851 0.35849,0.8085c0.3689,0.64066 0.91287,1.23691 1.15585,2.17017c0.21851,0.8392 0.35995,1.67575 0.758,2.64368c0.29517,0.71771 0.6568,1.43552 1.1235,2.5235c0.29059,0.67743 0.53867,1.32785 0.86215,2.26215c0.31226,0.90186 0.60449,1.8045 0.8045,2.40451c0.29999,0.89999 0.60397,1.79886 0.89999,2.71066c0.20273,0.62445 0.41055,1.27167 0.80002,2.67334c0.20557,0.73981 0.39566,1.49185 0.59998,2.23199c0.29379,1.06424 0.49521,1.72836 0.80002,2.67334c0.19687,0.61035 0.59998,1.81067 0.79999,2.41068c0.29999,0.89999 0.59583,1.80139 0.89999,2.6955c0.29596,0.8699 0.48941,1.42346 0.90002,2.42181c0.38998,0.94818 0.63126,1.44208 0.99866,2.65201c0.20856,0.68683 0.38733,1.41183 0.51599,2.14801c0.24307,1.39069 0.24057,2.04849 0.33801,2.97815c0.09506,0.90671 0.3056,1.79861 0.522,2.66852c0.26556,1.06763 0.38831,1.78226 0.41464,2.46133c0.04633,1.19513 -0.02023,2.00342 0.06784,2.82199c0.11172,1.03848 0.40317,1.72818 0.59018,2.46249c0.28537,1.12045 0.29807,1.79565 0.35266,2.49017c0.08115,1.03226 0.19412,1.96497 0.5,2.95834c0.19849,0.64462 0.43716,1.65192 0.55267,2.556c0.1048,0.82022 0.2951,1.79327 0.46817,2.48566c0.17422,0.69708 0.57669,1.95786 0.8685,2.728c0.2515,0.66376 0.5578,1.67108 0.59998,2.508c0.04684,0.92953 0.01068,1.71667 0.01068,2.53867c0,1.05869 0,1.98935 0,2.62085c0,1.00449 0,1.8045 0,2.8045c0,0.79999 0,1.79999 0,2.59998c0,0.80002 -0.0582,1.80664 0.05716,2.60001c0.14755,1.01474 0.60342,1.77786 0.82135,2.80002c0.16812,0.78857 0.12149,1.79999 0.12149,2.58932c0,0.72534 0,1.71066 0,2.69598c0,0.72534 0,1.71484 0,2.53552c0,1.14581 0,1.93182 0,2.75381c0,1.05869 0.00058,1.76819 0,2.62085c-0.00067,1.00449 0.03311,1.81982 -0.22134,2.80466c-0.16101,0.6232 -0.55273,1.47534 -0.69333,2.48251c-0.11047,0.79141 -0.08456,1.54797 -0.08533,2.65598c-0.00067,0.983 0.03714,1.71204 -0.16666,2.828c-0.14511,0.79459 -0.36273,1.32611 -0.54935,2.14935c-0.27499,1.21323 -0.21027,2.07498 -0.64117,2.93134c-0.34894,0.69345 -0.98682,1.38312 -1.28564,2.09998c-0.36557,0.87698 -0.52383,1.81934 -0.85718,2.65268c-0.33334,0.83334 -0.89349,1.80847 -0.46399,2.564c0.39322,0.69171 1.564,0.436 2.46399,0.436c0.91068,0 1.82166,0 2.54166,0c1.125,0 1.91644,-0.01529 2.76901,0.03601c0.59164,0.03561 1.78964,0.24133 2.66849,0.46399c0.56479,0.14307 1.59622,0.41559 2.52084,0.47916c0.68265,0.04694 1.68533,0.02084 2.52084,0.02084c0.88049,0 2.07916,0 2.67917,0c0.89999,0 2.10028,0.0079 2.7045,-0.00449c0.93182,-0.0191 1.58484,-0.05301 2.61667,-0.21686c1.09857,-0.17447 1.81503,-0.36584 2.50949,-0.49466c1.19485,-0.22162 1.94409,-0.2023 2.96933,-0.45065c0.80728,-0.19556 1.48984,-0.66855 2.47916,-0.8125c0.91147,-0.13263 1.84323,0.17722 2.71951,-0.02219c0.80429,-0.18304 0.65256,-1.28836 1.15399,-1.94598c0.51608,-0.67685 1.3497,-0.68384 2.1265,-1.07352c0.67645,-0.33932 0.00351,-1.32953 -0.39514,-2.17917c-0.40372,-0.86044 -0.78738,-1.50113 -1.48401,-2.19998c-0.59903,-0.60098 -1.3389,-1.13437 -1.564,-2c-0.22562,-0.86755 -0.61337,-1.5412 -1.06134,-2.21066c-0.49213,-0.73544 -0.7865,-1.62979 -1.14133,-2.38934c-0.31982,-0.6846 -0.74933,-1.48401 -0.88602,-2.34732l-0.29999,-0.89551l-0.52585,-0.85718l-0.12015,-0.69998" id="svg_17" stroke-width="2" stroke="#000" fill="none"/>
  <path t="56752,56763,56763,56763,56763,56763,56763,56773,56773,56790,56790,56806,56806" d="m317,421c12.33334,-1.83334 13.18604,-1.97 14.61484,-2.23834c0.59384,-0.11154 1.56927,-0.32083 2.31583,-0.47501c1.01309,-0.20923 1.95068,-0.28531 2.90533,-0.28665l0.76532,0l0.99869,0l0.79999,0" id="svg_18" stroke-width="2" stroke="#000" fill="none"/>
  <path t="58639,58683,58690,58707,58722,58722,58738,58738,58738,58755,58755,58772,58772,58772,58772,58788,58788,58788,58788,58805,58805,58805,58805,58805,58821,58822,58822,58822,58838,58838,58838,58838,58838,58855,58855,58855,58855,58855,58871,58871,58871,58871,58887,58888,58888,58888,58905,58905,58905,58922,58922,58922,58922,58938,58938,58938,58938,58938,58955,58955,58955,58955,58955,58972,58972,58972,58972,58988,58988,58988,58988,59005,59005,59005,59005,59005,59022,59022,59022,59022,59038,59038,59038,59038,59038,59055,59055,59055,59072,59072,59072,59072,59088,59088,59105,59105,59105,59105,59122,59122,59122,59138,59138,59155,59155,59155,59172,59172,59188,59188,59188,59205,59205,59222,59222,59222,59222,59238,59238,59238,59238,59255,59255,59272,59288,59288,59410,59426,59439,59462,59462,59478,59489,59506,59522,59538,59566,59573,59589,59606,59606,59650,59670,59677,59693,59710,59725,59737,59738,59756,59772,59788,59788,59805,59805,59822,59822,59823,59838,59838,59855,59855,59918,59926" d="m364,319c0.57468,1.60001 0.9003,2.40509 1.00449,3.3045c0.10095,0.87143 0.56863,1.69443 0.82886,2.6955c0.15344,0.5903 0.14511,1.40024 0.168,2.40268c0.01987,0.86978 0.15393,1.93289 0.284,2.56665c0.21661,1.05557 0.40927,1.78525 0.71466,2.86401c0.19376,0.68445 0.40488,1.33981 0.70001,2.31934c0.30505,1.01245 0.49716,1.73383 0.71066,2.48331c0.22104,0.77591 0.44739,1.57562 0.91064,2.76385c0.31308,0.80301 0.68158,1.578 1.026,2.34299c0.49014,1.08865 0.77924,1.77017 1.01669,2.4425c0.2373,0.67188 0.44577,1.3812 0.73615,2.55734c0.21249,0.86069 0.41519,1.75876 0.53583,2.20667c0.23853,0.88565 0.66727,2.11615 1.01669,2.83633c0.33044,0.68112 0.88992,1.59851 1.32581,2.51431c0.28177,0.59201 0.61475,1.49866 0.82019,2.10001c0.40909,1.19739 0.60132,1.80002 0.90134,2.70001c0.40015,1.20032 0.60104,1.81018 0.82083,2.44165c0.35886,1.03101 0.64468,1.79211 0.96317,2.62769c0.34015,0.89246 0.52475,1.34827 0.86331,2.2825c0.49896,1.37686 0.63873,1.82419 0.89551,2.68649c0.24353,0.8179 0.44592,1.6019 0.75717,2.69501c0.28925,1.01578 0.50375,1.66098 0.64282,2.31934c0.28705,1.35901 0.30518,2.10443 0.35718,2.86816c0.05334,0.7836 0.155,1.98096 0.284,2.77914c0.12964,0.802 0.30679,1.59732 0.43201,2.40002c0.18661,1.19647 0.23682,1.9996 0.26315,2.79999c0.02634,0.79971 0.01678,2.00003 0.02219,2.79868c0.00534,0.79068 0.0116,1.5672 0.08398,2.31598c0.10321,1.06754 0.3475,2.04761 0.48935,2.67468c0.27313,1.20749 0.36194,1.80798 0.40448,2.68982c0.04028,0.83478 0.02084,1.83817 0.02084,2.78217c0,1.07202 0,1.70667 0,2.73868c0,0.69467 0,1.66666 0,2.728c0,0.66299 0,1.67334 0,2.508c0,0.93066 0,1.71219 0,2.50269c0,1.11865 0,1.91199 0,3.03067c0,0.7515 -0.01834,1.54816 0.00134,2.54666c0.01794,0.90982 0.15778,1.85245 0.35132,2.64566c0.14185,0.58136 0.3981,1.52014 0.52585,2.55933c0.08853,0.72009 0.11511,1.78162 0.12015,2.42435c0.00931,1.18762 0.00134,1.936 0.00134,2.88c0,1.008 -0.20367,1.80896 -0.47916,2.67465c-0.24338,0.7648 0.57303,1.43912 1.47916,1.5c0.79819,0.05362 1.70001,0 2.60001,0c0.89999,0 1.79999,0.00067 2.69998,0c0.89868,-0.00067 1.57132,-0.3652 1.70135,-1.20001c0.14261,-0.91547 0.41028,-1.64795 1.02399,-2.36398c0.52365,-0.61096 1.5943,-0.43405 2.37466,-0.86133c0.8226,-0.45038 1.70001,-0.57468 2.60001,-0.57468c0.79999,0 1.70001,0 2.52084,0c0.96448,0 1.68991,-0.01273 2.67917,0.00015c0.8002,0.01041 1.80475,0.15222 2.59998,0.42517c0.80508,0.27631 1.7988,0.5415 2.60001,0.57019c0.99808,0.03574 1.76401,0.0405 2.71335,0.28714l0.79999,0.34668" id="svg_19" stroke-width="2" stroke="#000" fill="none"/>
  <path t="60581,60594,60595,60595,60595,60595,60595,60595,60595,60595,60607,60607,60607,60608,60608,60608,60608,60608,60608,60624,60625,60625,60625,60625,60625,60625,60625,60625,60640,60640,60640,60640,60655,60655,60655,60655,60655,60655,60672,60672,60672,60672,60672,60688,60688,60688,60688,60705,60705,60705,60705,60722,60722,60722,60722,60722,60738,60738,60738,60738,60755,60755,60755,60755,60772,60772,60772,60788,60788,60788,60805,60805,60805,60805,60822,60822,60838,60838,60838,60855,60855,60855,60872,60872,60887,60888,60888,60888,60905,60905,60922,60922,60938,60938,60955,60955,60955,60972,60972,60988,60988,61005,61022,61082,61091" d="m400,332c0,4.66666 -0.0007,5.96951 0.00134,7.44934c0.00223,1.61383 0.00687,3.3187 0.0195,5.0715c0.01266,1.75784 0.02713,3.47784 0.06448,5.11649c0.06528,2.86307 0.12579,4.0119 0.19867,4.97067c0.06021,0.79221 0.13211,1.43741 0.216,1.9545c0.06729,0.41476 0.14529,0.74356 0.216,1.00949c0.11404,0.42889 0.16669,0.62766 0.19867,0.83069c0.03241,0.20572 0.05203,0.41846 0.06448,0.63898c0.013,0.23019 0.0177,0.47269 0.0195,0.729c0.0061,0.87265 -0.00241,1.55289 0.02219,2.31268c0.02719,0.84033 0.14175,2.25046 0.2005,2.75934c0.1228,1.06366 0.20544,1.60779 0.35333,2.70667c0.07339,0.54523 0.26416,2.11682 0.30383,2.60748c0.07468,0.92355 0.10721,1.78055 0.117,2.577c0.01352,1.09946 0.00449,2.11349 0.00449,2.76617c0,0.98401 0,2.02151 0,2.75717c0,0.76367 0,1.54733 0,2.74283c0,0.79999 0,1.60001 0,2.39999c0,0.80002 0,1.99985 0,2.7955c0,0.78366 -0.00461,1.54733 0.00015,2.983c0.0022,0.66434 0.01059,1.6134 0.08517,2.22018c0.14859,1.20856 0.42984,2.09781 0.56201,2.70132c0.26147,1.19379 0.28616,1.8013 0.37799,2.69998c0.12283,1.20206 0.2532,1.80005 0.47467,2.67917c0.21082,0.83682 0.40265,1.83856 0.52533,2.74619c0.1275,0.9433 0.33728,1.7247 0.54935,2.54932c0.27145,1.05548 0.32886,1.77475 0.478,2.62085c0.17917,1.01642 0.52777,1.60495 0.78067,2.77115c0.16833,0.77618 0.11899,1.33966 0.25067,2.14935c0.20105,1.23624 0.47165,1.87323 1.116,2.79999c0.46213,0.66467 1.01312,1.36224 1.39999,2.09467c0.51773,0.98019 0.79971,1.58948 1.19998,2.38934c0.39975,0.79883 0.76083,1.58939 1.29984,2.37848c0.50732,0.74268 0.90018,1.52151 1.25284,2.3215l0.52585,0.79968l0.08548,0.315" id="svg_20" stroke-width="2" stroke="#000" fill="none"/>
  <path t="61609,61708,61708,61708,61708,61708,61708,61708,61708,61708" d="m386,405c2.16666,0 3.10565,0 4.19867,0c1.211,0 2.504,0 3.84299,0l1.349,0l1.323,0l1.26102,0" id="svg_21" stroke-width="2" stroke="#000" fill="none"/>
  <path t="64120,64126,64126,64126,64126,64126,64126,64126,64126,64126,64140,64140,64140,64140,64140,64140,64140,64140,64140,64157,64174,64174,64188,64188,64205,64222,64237,64278,64278" d="m133,299c3.5,-1.16666 4.4207,-1.5481 5.46133,-1.98801c1.13374,-0.47928 2.32895,-0.9902 3.55949,-1.51199c1.23479,-0.52359 2.44374,-1.03763 3.60451,-1.51199c2.03685,-0.8324 2.87105,-1.1441 3.57733,-1.392c0.58614,-0.20572 1.07094,-0.35831 1.464,-0.47101c0.31119,-0.08923 0.55812,-0.14331 0.74399,-0.20099c0.25938,-0.08051 0.75775,-0.75241 1.47601,-1.00803c0.94098,-0.33487 1.60532,-0.74548 2.5925,-0.89514c0.91095,-0.13812 1.72083,-0.30484 2.52083,-0.85419l0.8,-0.16531" id="svg_22" stroke-width="2" stroke="#000" fill="none"/>
  <path t="64900,64914,64914,64914,64914,64914,64914,64924,64924,64924,64940,64940,64957,64957,64957,64972,64972,64972,64988,64988,64988,64988,65006,65006,65006,65006,65022,65022,65022,65022,65022,65038,65038,65038,65055,65055,65055,65072,65072,65072,65088,65088,65088,65105,65105,65105,65105,65105,65121,65122,65122,65138,65138,65138,65138,65154,65155,65155,65172,65172,65188,65188,65188,65205,65221,65238,65255,65333,65386,65394,65407,65422,65438,65438,65455,65455,65472,65514,65538,65555,65572,65588,65605,65605,65622,65622,65638,65655,65672,65688,65688,65705,65705,65705,65722,65722,65738,65738,65756,65756,65756,65772,65772,65773,65788,65805,65805,65822,65822,65838,65838,65855,65855,65873,65874,65905,65925,65934,65941,65955,65955,65972,65988,65989,65989,66005,66006,66006,66037,66053,66061,66062,66072,66088,66105,66105,66106,66122,66122,66122,66138,66138,66155,66172,66172,66188,66205,66222,66222,66222,66238,66238,66256,66256,66256,66272,66272,66273,66288,66288,66288,66305,66305,66305,66305,66323,66323,66338,66338,66355,66355,66355,66371,66371,66371,66371,66388,66388,66388,66405,66405,66421,66421,66421,66438,66438,66438,66455,66455,66471,66488,66488,66505,66505,66521,66538,66538,66538,66555,66555,66555,66571,66672,66679" d="m135,299c11.5,0 13.03072,-0.00104 13.681,0.009c0.5844,0.009 1.59518,0.00897 2.42166,0.16165c1.0909,0.20154 1.73868,0.52002 2.61467,0.97867c0.95781,0.50146 1.81314,0.7645 2.60417,1.29367c0.55679,0.3725 1.08072,0.96829 1.87866,1.75702c0.60878,0.60175 1.24223,1.2179 1.96651,1.79999c0.77077,0.61945 1.33916,0.99216 1.88066,1.39999c1.04277,0.7854 1.51778,1.19131 2.17799,1.87201c0.47171,0.48636 1.19884,1.36841 1.72734,2.03333c0.55029,0.69232 1.09077,1.39249 1.36333,1.72668c0.98474,1.20749 1.41866,1.71692 2.0795,2.30182c0.77205,0.68335 1.42488,1.01019 2.20451,1.55017c0.82271,0.56982 1.40408,1.13263 2,1.71732c0.80826,0.793 1.19751,1.22733 1.91432,1.79868c0.79393,0.63281 1.44801,1.01135 2.147,1.38934c0.71706,0.38779 1.44997,0.73941 2.517,1.18933c0.96968,0.40887 1.61467,0.57385 2.655,1.18799c0.74597,0.44037 1.1604,0.86166 1.85068,1.43466c0.73062,0.60648 1.53143,1.18695 2.05466,1.56268c0.92938,0.66742 1.56303,1.25128 2.42801,1.836c0.6339,0.4285 1.32605,0.83145 2.42267,0.98932c0.8813,0.12686 1.34726,0.78549 2.11516,1.0062c0.86067,0.24738 1.86165,0.05362 2.32083,-0.60617c0.50549,-0.72632 0.88335,-1.58994 0.97484,-2.4895c0.07993,-0.78574 0.41006,-1.53049 0.71584,-2.41583c0.32596,-0.94376 0.0995,-2.13052 0.80482,-2.46317c0.79539,-0.37512 1.77917,-0.02084 2.67917,-0.02084c0.90018,0 1.68533,0 2.62534,0c0.69067,0 1.76401,0 2.67467,0c0.91066,0 1.8215,0 2.52083,0c0.97917,0 1.77917,0 2.57918,0c1,0 1.79999,0 2.80133,0c0.83466,0 1.76534,0 2.55133,0c0.82201,0 1.88066,0 2.80066,0c0.76001,0 1.74667,0 2.73067,0c0.86334,0 1.76784,0 2.48534,0c1.03601,0 1.78,0 2.88783,0c0.75751,0 1.7955,0 2.49017,0c1.01666,0 2.1122,-0.18216 2.62733,0.436c0.52768,0.63321 0.76904,1.59781 1.10933,2.36398c0.34938,0.78665 0.93242,1.52631 1.216,2.20984c0.31865,0.76804 0.69553,1.82541 0.9955,2.5285c0.34225,0.80222 0.32239,2.13092 1.1405,2.41501c0.75612,0.26257 1.45416,-0.67715 2.04317,-1.45334c0.56267,-0.74149 0.67627,-1.6712 0.95683,-2.34668c0.35136,-0.84595 0.7562,-1.83899 1.064,-2.63248c0.29262,-0.75439 0.65747,-1.58456 1.2,-2.21185c0.65175,-0.75357 1.32211,-1.50986 2,-1.95181c0.73392,-0.47849 1.53964,-0.85141 2.46667,-1.19052c0.64046,-0.23428 1.43466,-0.16599 2.43784,-0.16666c0.85266,-0.00058 1.81683,0 2.62082,0c0.82201,0 1.85333,0 2.77467,0c0.68401,0 1.68668,0 2.54166,0c0.94501,0 1.97952,0 2.70651,0c0.73099,0 1.78256,0.0097 2.70868,-0.00015c0.9808,-0.01044 1.86118,-0.20013 2.564,-0.49985c1.00281,-0.42764 1.76233,-0.46906 2.33649,-0.52533c1.31064,-0.12848 2.02625,-0.25403 2.75732,-0.39999c0.72495,-0.14474 2.04883,-0.43509 2.871,-0.51752c0.6911,-0.06931 1.71451,-0.05716 2.53519,-0.05716c1.14581,0 1.93182,0 2.75381,0c1.05869,0 1.76819,0 2.62085,0c1.00317,0 1.77261,0.08694 2.71915,-0.00134c0.89676,-0.08365 1.48132,-0.69852 2.36935,-0.91333c0.84277,-0.20386 1.9115,-0.04346 2.84933,-0.25198c0.68604,-0.15256 1.46024,-0.42249 2.5,-0.83334c0.71094,-0.28091 1.505,-0.64282 2.40948,-0.94284l0.85684,-0.05716l0.27899,-0.03601" id="svg_23" stroke-width="2" stroke="#000" fill="none"/>
  <path t="68124,68439,68447,68474,68474,68490,68490,68490,68506,68506,68506,68522,68522,68522,68538,68539,68539,68539,68539,68555,68556,68556,68556,68556,68556,68571,68571,68571,68571,68588,68589,68589,68589,68605,68606,68606,68606,68621,68621,68621,68621,68638,68638,68638,68638,68638,68655,68655,68655,68655,68671,68671,68671,68671,68688,68688,68688,68705,68705,68705,68705,68705,68721,68721,68738,68738,68738,68755,68756,68771,68771,68771,68771,68788,68788,68788,68805,68806,68821,68821,68838,68855,68855,68871,68898,69190,69206,69234,69242,69258,69271,69288,69305,69321,69338,69338,69355,69355,69355,69371,69371,69371,69388,69388,69388,69388,69405,69405,69405,69405,69405,69421,69421,69421,69421,69421,69438,69438,69438,69438,69455,69455,69455,69455,69455,69471,69471,69471,69471,69471,69471,69488,69488,69488,69488,69488,69505,69505,69505,69521,69550,69558" d="m140,293c0.57466,1.60001 0.98199,2.39948 1,3.31351c0.01462,0.74234 -0.0148,1.7403 0.02083,2.70734c0.02501,0.67883 0.11458,1.6535 0.33183,2.46933c0.25793,0.96854 0.53906,1.93008 0.62201,2.7565c0.06013,0.59912 0.18463,1.92123 0.30933,2.64133c0.13347,0.77075 0.29817,1.59348 0.36334,2.03082c0.21028,1.4111 0.27127,2.44769 0.29999,2.98203c0.05794,1.07803 0.06262,1.61346 0.13667,2.64581c0.06847,0.95447 0.18884,1.8009 0.416,2.91168c0.14046,0.68677 0.35002,1.7066 0.41467,2.42566c0.06654,0.73999 0.08202,1.86334 0.08533,2.94934c0.00208,0.68134 -0.00273,1.64764 0.05716,2.26215c0.11795,1.21024 0.3085,1.81061 0.5175,2.77652c0.15074,0.69669 0.31845,1.86969 0.36818,2.73334c0.05147,0.89392 0.05069,1.34396 0.05583,2.22665c0.00714,1.22513 0.00133,2.30667 0.00133,2.98267c0,0.668 0,2.06934 0,2.81067c0,0.74933 0.00552,1.49066 -0.00017,2.55334c-0.00533,0.996 0.00911,1.65179 -0.1665,2.98798c-0.09457,0.71957 -0.25774,1.4509 -0.444,2.172c-0.17952,0.69498 -0.60248,1.88528 -0.8685,2.61969c-0.37469,1.03445 -0.44223,1.85074 -0.60483,2.64166c-0.20985,1.02081 -0.54221,1.64771 -1.08267,2.56665c-0.46849,0.79657 -0.84088,1.32861 -1.34933,2.14935c-0.46968,0.75818 -0.81979,1.47299 -1.368,2.28265c-0.56021,0.82739 -1.20531,1.30252 -1.78267,2.23468c-0.43822,0.70752 -0.67575,1.48047 -1.33333,2.16666c-0.58711,0.61264 -1.39638,1.23297 -1.83333,2c-0.44426,0.77988 -0.93025,1.31116 -1.51933,1.94733c-0.53299,0.57559 -1.42212,0.98929 -1.64284,1.75717c-0.24738,0.86069 0.09341,1.80194 -0.01517,2.70618c-0.11145,0.92819 -0.57281,1.5856 -0.82266,2.58932c-0.19835,0.79681 -0.16441,1.45715 -0.16667,2.68668c-0.00102,0.56 -0.00093,1.47498 0,2.47998c0.00067,0.71869 0.0032,1.85519 0.05716,2.63785c0.08258,1.19766 0.21906,1.99725 0.37885,2.7955c0.08026,0.40094 0.26637,1.2005 0.564,2.39999c0.19858,0.80035 0.40001,1.60001 0.60001,2.39999c0.20001,0.80002 0.5,2 0.7,2.80002c0.2,0.79999 0.40047,1.59985 0.7,2.79999c0.20032,0.80258 0.40173,1.62094 0.5,2.04166c0.20361,0.87186 0.50293,2.29114 0.59984,2.80103c0.20175,1.06152 0.29723,1.60678 0.46416,2.70667c0.08267,0.54474 0.27475,2.11685 0.3145,2.60733c0.07449,0.91922 0.1075,1.75986 0.117,2.51999c0.01601,1.28009 0.0045,2.04068 0.0045,2.83533l0.036,1.04135l0.68001,0.35999l0.28267,-0.79999" id="svg_24" stroke-width="2" stroke="#000" fill="none"/>
  <path t="70788,70795,70795,70795,70795,70795,70795,70795,70807,70807,70807,70807,70823,70823,70823,70840,70840,70840,70840,70857,70857,70857,70858,70858,70873,70873,70873,70874,70890,70890,70890,70890,70907,70907,70907,70907,70923,70923,70923,70923,70923,70923,70938,70938,70938,70938,70955,70955,70955,70956,70971,70971,70971,70988,70988,70988,70988,71006,71006,71006,71021,71021,71021,71022,71038,71038,71038,71038,71055,71055,71055,71055,71072,71072,71072,71072,71072,71088,71088,71088,71088,71105,71105,71105,71106,71121,71121,71122,71138,71138,71139,71139,71156,71156,71156,71156,71156,71171,71172,71172,71172,71188,71188,71205,71205,71206,71221,71221,71222,71238,71238,71256,71256,71256,71271,71271,71290,71305,71321,71342,71342,71362,71419,71447,71447,71471,71491,71502,71531,71615,71627,71643,71655,71671,71688,71688,71705,71705,71721,71722,71738,71738,71756,71756,71771,71772,71788,71789,71805,71806,71822,71822,71838,71839,71855,71855,71856,71871,71871,71888,71888,71905,71905,71921,71921,71938,71939,71955,71955,71956,71971,71971,71972,71988,71988,71989,72006,72006,72006,72021,72022,72038,72039,72055,72056,72056,72071,72072,72072,72088,72089,72105,72106,72121,72138,72138,72139,72156,72171,72188,72189,72206,72221,72221,72262,72363,72379,72391,72407,72408,72424,72438,72439,72456,72456,72471,72471,72490,72507,72507,72521,72521,72521,72538,72555,72571,72571,72588,72678,72694,72707,72707,72722,72738,72756,72756,72757,72771,72771,72771,72788,72788,72805,72805,72805,72821,72821,72821,72821,72838,72838,72838,72855,72855,72871,72871,72871,72889" d="m90,252c0.83334,15.66666 0.88051,16.69891 0.91467,17.60535c0.02993,0.79425 0.05621,1.49054 0.07467,2.64532c0.01488,0.9306 0.01067,2.14899 0.01067,2.94034c0,0.76733 0,1.49466 0,2.76633c0,0.79199 -0.00356,1.548 0.00017,2.68582c0.00222,0.67569 0.00507,1.4202 0.057,2.22302c0.08424,1.30237 0.2244,2.21686 0.2955,2.68198c0.14245,0.93176 0.31924,1.83868 0.48067,3.1185c0.09598,0.76096 0.14049,1.46103 0.156,2.112c0.0291,1.22104 0.00276,2.12631 0.0315,2.74219c0.04507,0.96558 0.19741,2.00153 0.33183,2.74533c0.14402,0.79694 0.32436,1.64905 0.48067,3.06717c0.056,0.50809 0.11494,1.56744 0.14133,2.10666c0.05254,1.07324 0.03393,1.60162 0.19199,3.06c0.09182,0.84714 0.26221,1.59125 0.408,2.26801c0.26511,1.23062 0.34133,1.832 0.42533,2.73199c0.084,0.89999 0.21187,1.80219 0.42533,2.70001c0.14301,0.6015 0.43532,1.79709 0.5175,2.69998c0.05449,0.59863 0.0565,1.5 0.05717,2.70001c0.00034,0.60001 0,1.5 0,2.70016c0,0.60434 -0.00031,1.53583 0,2.18515c0.00067,1.40002 -0.0008,2.15112 0.036,2.92535c0.03762,0.79129 0.17757,1.99063 0.31667,2.78934c0.13956,0.80139 0.3261,1.59552 0.48067,2.79999c0.10218,0.79626 0.13851,1.58911 0.156,2.36401c0.01694,0.75052 0.01067,1.81467 0.01067,2.81064c0,0.6507 -0.00814,1.30939 0.00134,2.70935c0.00502,0.74136 0.01213,1.49249 0.084,2.23199c0.10361,1.06613 0.34749,2.04626 0.48933,2.67334c0.27313,1.20749 0.34653,1.81287 0.42533,2.75232c0.0564,0.67236 0.15869,1.79285 0.284,2.62634c0.13289,0.88397 0.29912,1.78003 0.43201,2.664c0.12531,0.8335 0.22618,1.94958 0.284,2.6055c0.07713,0.87515 0.3028,1.87271 0.57467,2.78784c0.27801,0.93579 0.35702,1.72897 0.45066,2.54932c0.12113,1.06119 0.35002,1.76068 0.622,2.62085c0.2524,0.79825 0.34225,1.62518 0.35267,2.77115c0.0071,0.78149 0,1.57202 0,2.5c0,0.91202 0.14208,1.84634 -0.01067,2.73334c-0.14348,0.83316 -0.8768,1.5907 -0.988,2.39999c-0.11501,0.83701 -0.8728,1.35995 -1.00134,2.20001c-0.12168,0.79526 -0.48254,1.6539 -0.97467,2.38934c-0.44798,0.66946 -1.02,1.22125 -1.02533,2.11066c-0.00539,0.89996 -0.19603,1.82193 0.00134,2.69867c0.18295,0.81265 1.11198,1.23517 1.49866,1.82217c0.62175,0.94385 1.13196,1.58261 1.6,2.30048c0.43026,0.65991 0.90421,1.50888 1.4,2.17868c0.60516,0.81754 0.95773,1.52686 1.5,2.33334c0.46499,0.69153 1.09734,1.48956 1.5,2.16666c0.49673,0.8353 1.02448,1.45642 1.59983,2.10016c0.56801,0.63553 0.76943,1.57935 1.01,2.30435c0.34531,1.04062 0.92589,1.58347 1.4075,2.1955c0.61677,0.78375 1.04668,1.58041 1.5825,2.37866c0.44364,0.66092 0.79945,1.50937 0.9255,2.23199c0.17328,0.99344 0.44614,1.79813 0.97467,2.62268c0.45874,0.7157 1.00644,1.49713 1.3045,2.17648c0.33885,0.77234 0.84769,1.83334 1.17817,2.30484c0.47609,0.67926 1.23641,1.66846 1.4075,2.28983c0.2302,0.83606 0.30397,1.82458 0.54583,2.61017c0.24148,0.78436 0.76318,1.81659 1.164,2.39999c0.59876,0.87152 1.00422,1.59387 1.4,2.38535c0.40432,0.80853 0.723,1.44794 1.09983,2.42133c0.30851,0.79691 0.58629,1.61707 0.77884,2.65701c0.12412,0.67038 0.28149,1.75839 0.62133,2.40082c0.43898,0.82983 0.67343,1.68488 1,2.54169c0.22059,0.57874 0.07961,1.71817 0.66666,2.64581c0.44563,0.70416 0.83266,1.22 0.83334,2.15869c0.00072,1.008 -0.00528,1.78513 0.42533,2.57465c0.44883,0.82291 0.85703,1.55728 1.77467,1.60001c0.89919,0.04184 1.68847,0.06674 2.62534,-0.01068c1.01653,-0.08398 1.65173,-0.54416 2.496,-1.08932c0.66179,-0.42734 1.60979,-0.79776 2.13699,-1.39999c0.61859,-0.70663 0.54167,-1.66666 0.54167,-2.52084c0,-0.97916 0.09811,-1.78812 -0.08533,-2.49384c-0.26411,-1.01608 -0.75107,-1.83237 -1.136,-2.58533c-0.39017,-0.76318 -1.65729,-2.12909 -0.77867,-2.42801c0.56288,-0.1915 1.14799,0.89542 1.8,1.24402c0.84738,0.45306 1.62119,0.71976 2.36667,1.45065c0.49306,0.4834 1.05382,1.00845 1.812,2.03317c0.42239,0.57089 0.86166,1.36185 1.50533,1.91617c0.65027,0.56 1.50935,1.19473 1.90134,1.73068c0.44115,0.60315 1.14676,1.5842 1.6245,2.1015c0.49997,0.54138 1.2863,1.30917 2.06851,1.909c0.65793,0.50452 1.32831,0.82492 2.03766,1.62683c0.56857,0.64276 1.20534,1.49448 1.70934,1.88l0.69067,0.43466l0.84799,0.60132" id="svg_25" stroke-width="2" stroke="#000" fill="none"/>
  <path t="73549,73570,73582,73592,73622,73630,73638,73655,73671,73671,73688,73688,73705,73705,73705,73721,73721,73721,73721,73738,73738,73738,73738,73755,73755,73771,73771,73771,73788,73788,73788,73788,73805,73805,73821,73821,73821,73838,73838,73838,73838,73855,73855,73855,73855,73871,73871,73888,73888,73888,73905,73905,73921,73921,73938,73938,73955,73955,73971,74063,74075,74091,74105,74105,74125,74138,74158,74158,74171,74171,74171,74188,74188,74205,74221,74221,74238,74238,74258,74259,74275,74291,74318,74326,74326,74342,74357,74372,74372,74390,74407,74408,74421,74441,74441,74462,74478,74491,74491,74508,74523,74542,74542,74542,74558,74559,74573,74573,74588,74608,74608,74626,74670" d="m130,406c3.9375,1.47916 4.47937,2.11188 5.05267,2.64734c0.68521,0.63998 1.31009,1.16776 1.89465,1.70532c0.58224,0.53543 1.34091,1.02664 1.938,1.44867c0.7524,0.5318 1.54337,0.92319 2.31483,1.52017c0.63141,0.48862 1.24158,1.1019 1.96651,1.6785c0.77455,0.61609 1.34207,0.9993 1.93784,1.34283c1.1729,0.6763 1.79649,0.89209 2.6595,1.2825c0.55431,0.25076 1.57219,0.83133 2.19432,1.37466c0.91013,0.79483 1.427,1.38535 2.011,1.96933c0.57333,0.57333 1.28134,1.28134 1.78,1.78c0.48267,0.48267 1.44087,1.4408 1.99884,1.99884c0.57336,0.57346 1.28288,1.28436 1.65633,1.7135c0.81837,0.9404 1.20297,1.4903 1.7955,2.349c0.40515,0.58716 1.00185,1.48782 1.39551,2.08484c0.57143,0.86658 0.93861,1.40775 1.51917,2.41916c0.37729,0.65732 0.88533,1.68533 1.18533,2.28534c0.39999,0.79999 0.77858,1.61121 1.2,2.37915c0.47615,0.86771 1.01358,1.48709 1.7,2.22217c0.51027,0.54645 1.04858,1.25851 1.364,1.97333c0.45815,1.0383 1.24217,1.81189 1.10268,2.65869c-0.13127,0.79688 -1.23297,1.11996 -2.01851,1.16217c-1.01071,0.05432 -1.8495,0.00449 -2.81483,0.00449c-0.85416,0 -1.83333,0 -2.63333,0c-0.8,0 -1.7955,0 -2.54283,0c-1.03183,0 -1.9785,0 -2.65717,0c-0.97867,0 -1.75267,0 -2.65266,0c-0.86334,0 -1.82651,0.00229 -2.74733,0c-0.90002,-0.00226 -1.9369,-0.177 -2.31467,-0.80133c-0.48743,-0.80554 -0.25862,-1.83511 -0.28667,-2.68268c-0.02861,-0.86465 -0.49541,-1.68469 -0.832,-2.51599c-0.30658,-0.75717 -0.15262,-1.65295 -0.51933,-2.65268c-0.25986,-0.7084 -0.71573,-1.59106 -0.64601,-2.54733c0.0594,-0.81473 0.70242,-1.44449 1.49867,-1.79999c0.80376,-0.35886 1.64673,-1.0365 2.336,-1.38934c0.55406,-0.28363 1.5616,-0.55832 2.364,-0.59998c0.99855,-0.05182 1.964,-0.01068 2.91467,-0.01068c0.88533,0 1.68533,0 2.58533,0l0.864,-0.03601" id="svg_26" stroke-width="2" stroke="#000" fill="none"/>
  <path t="77381,77454,77473,77473,77501,77521,77521,77539,77539,77560,77560,77576,77576,77593,77604,77604,77604,77625,77625,77625,77640,77641,77659,77659,77659,77675,77676,77676,77693,77693,77693,77693,77710,77710,77710,77721,77721,77743,77757,77757,77776,77776,77793,77793,77793,77809,77809,77821,77821,77821,77843,77843,77843,77859,77859,77859,77859,77876,77876,77876,77876,77893,77893,77893,77893,77909,77909,77909,77909,77909,77922,77922,77922,77922,77922,77940,77941,77941,77941,77959,77959,77959,77977,77977,77977,77988,77988,78007,78021,78038,78038,78202,78267,78278,78288,78304,78326,78326,78326,78338,78339,78339,78339,78354,78354,78354,78354,78371,78371,78371,78388,78388,78388,78404,78404,78404,78421,78438,78438,78454,78454,78471,78471,78471,78488,78488,78504,78505,78521,78521,78538,78538,78554,78554,78571,78571,78571,78588,78588,78588,78604,78621,78621,78738,78918,78962,79286,79315,79330,79346,79357,79373,79389,79389,79404,79421,79438,79438,79454,79454,79471,79471,79488,79505,79505,79505,79521,79521,79538,79538,79538,79554,79554,79554,79571,79571,79588,79588,79588,79604,79604,79621,79621,79638,79638,79638,79654,79654,79654,79654,79671,79671,79671,79688,79688,79704,79704,79721,79721,79738,79755,79771,79788,79804,79804" d="m90,176c-1.2215,0.87866 -2.05689,1.2897 -2.7,1.64734c-0.85311,0.47443 -1.61769,0.70009 -2.18533,1.23933c-0.78608,0.74675 -1.28934,1.28799 -2.09317,2.09183c-0.50066,0.50067 -1.22339,1.2196 -1.7215,1.7215c-0.70268,0.70801 -1.2857,1.47589 -1.72134,2.136c-0.38068,0.57683 -1.10028,1.39041 -1.82933,1.94267c-0.48533,0.36765 -1.64449,0.90283 -2.2285,1.24216c-0.91645,0.53249 -1.34588,1.27472 -1.73151,1.73917c-0.76793,0.92488 -1.39554,1.43231 -2.02533,1.89067c-0.93321,0.67918 -1.45344,1.10999 -1.97867,1.60001c-0.78578,0.73311 -1.47437,1.39468 -2.11333,2.088c-0.48691,0.52832 -0.94865,1.32797 -1.37199,2.00867c-0.56927,0.91534 -1.3327,1.62314 -1.8,2.17349c-0.64754,0.7626 -1.06468,1.47318 -1.33333,2.47917c-0.2096,0.78488 -0.19533,1.61601 -0.452,2.39999c-0.26871,0.82076 -0.79758,1.80925 -1.12534,2.40001c-0.45129,0.81342 -1.07968,1.5985 -1.61016,2.24167c-0.38735,0.46964 -1.19261,1.59328 -1.57467,2.26816c-0.39801,0.70306 -0.7659,1.43378 -1.23783,2.5235c-0.29294,0.67642 -0.53656,1.32858 -0.756,1.95601c-0.42205,1.20674 -0.60228,1.81543 -0.9315,2.73149c-0.22958,0.63881 -0.64022,1.64836 -0.9645,2.36584c-0.34472,0.76271 -0.72952,1.55806 -1.116,2.39999c-0.40304,0.87801 -0.80151,1.79427 -1.188,2.728c-0.19191,0.46365 -0.56031,1.37291 -1.044,2.65201c-0.14725,0.38939 -0.52622,1.45229 -0.756,2.07599c-0.40289,1.09357 -0.70267,1.80394 -1.01067,2.44667c-0.48726,1.01678 -0.92439,1.79483 -1.11467,2.41068c-0.30149,0.9758 -0.11111,1.93433 -0.30616,2.87917c-0.179,0.86708 -0.91701,1.6132 -0.97783,2.32083c-0.07708,0.89668 0.15759,2.46214 0.832,2.03333c0.71714,-0.45599 0.4485,-1.51192 1.16667,-2.16666c0.51318,-0.46786 0.75611,-1.19054 1.3215,-2.30934c0.33504,-0.66298 0.68378,-1.36615 1.083,-2.052c0.57345,-0.98517 0.97203,-1.55464 1.5955,-2.26366c0.57882,-0.65825 1.4,-1.44167 1.8,-1.84167c0.59999,-0.59999 1.40934,-1.39079 1.98933,-2c0.56287,-0.59122 1.20213,-1.39165 1.68983,-2.17917c0.32831,-0.53014 0.9243,-1.38155 1.62083,-2.121c0.50251,-0.53348 1.11273,-1.37828 1.5,-2.11049c0.41373,-0.78223 0.73901,-1.631 1.28534,-2.304c0.53419,-0.65807 1.32443,-1.02322 2.09317,-1.58534c0.75468,-0.55185 1.29368,-1.2402 1.90683,-1.7c0.8968,-0.6725 1.55148,-0.87321 2.22934,-1.68533c0.55546,-0.66548 0.86568,-1.52505 1.296,-2.31467c0.33156,-0.60837 1.06176,-1.60916 1.58933,-2.17917c0.50513,-0.54576 1.14801,-1.40533 2,-1.85416c0.64901,-0.34189 1.52615,-0.62306 2.2955,-1.114c0.70533,-0.45009 1.12045,-1.94058 1.6685,-1.58067c0.77626,0.5098 0.036,1.828 0.036,2.728c0,0.90001 -0.02537,1.8004 0,2.60001c0.02859,0.90135 0.57353,1.55093 0.8785,2.52133c0.2057,0.65453 0.1215,1.79466 0.1215,2.56267c0,0.94133 0,1.632 0,2.63683c0,1.022 -0.00006,1.74051 0,2.53101c0.00008,1.02667 -0.06378,1.94305 0.16666,2.94817c0.19016,0.82942 0.54348,1.44424 0.71184,2.42134c0.13729,0.79678 0.11925,1.62599 0.1215,2.65717c0.00197,0.90067 -0.03188,1.92256 0.01067,2.7215c0.04272,0.80234 0.35988,1.79369 0.564,2.39999c0.3335,0.99055 0.35002,1.81551 0.592,2.8c0.20631,0.83939 0.56275,1.50591 0.93333,2.64267c0.21454,0.6581 0.39084,1.36003 0.6,2.052c0.38312,1.2675 0.72306,2.02139 0.94283,2.69633c0.32365,0.99394 0.30823,1.82646 0.57851,2.80882c0.21956,0.798 0.69056,1.62238 0.77416,2.49567c0.0862,0.90041 0.02534,1.78368 0.57917,2.36584l0.38933,0.79999l0.036,0.972l0.05717,0.80501" id="svg_27" stroke-width="2" stroke="#000" fill="none"/>
  <path t="82892,82922,82966,83111,83131,83131,83147,83157,83172,83187,83204,83204,83222,83222,83238,83238,83258,83258,83272,83272,83287,83287,83304,83322,83322,83322,83337,83337,83354,83371,83371,83371,83387,83387,83387,83404,83404,83404,83421,83421,83437,83462,83462,83471,83487,83505,83521,83537,83537,84094,84122,84147,84167,84183,84183,84199,84206,84223,84239,84256,84271,84271,84271,84287,84287,84287,84304,84304,84322,84322,84322,84337,84337,84354,84354,84371,84371,84371,84371,84387,84387,84387,84387,84404,84404,84404,84421,84421,84421,84437,84437,84437,84454,84454,84454,84470,84471,84471,84471,84487,84487,84487,84504,84505,84505,84521,84521,84521,84521,84537,84537,84537,84554,84571,84571,84587,84587,84587,84587,84603,84604,84621,84621,84637,84637,85427,85451,85463,85479,85487,85505,85505,85521,85538,85538,85557,85557,85573,85573,85573,85590,85590,85605,85605,85622,85622,85637,85637,85654,85654,85803,85803,85818,85830,85838,85854,85871,85891,85915,85915,85923,85937,85954,85971,85971,85972,85987,85987,85987,86008,86008,86009,86021,86021,86037,86037,86038,86070,86240,86251,86273,86288,86305,86305,86306,86321,86322,86322,86337,86337,86337,86354,86354,86354,86354,86371,86371,86371,86387,86387,86387,86387,86404,86404,86404,86421,86421,86421,86437,86437,86454,86454,86471,86471,86487,86487,86505,86521,86538,86611,86627,86639,86640,86656,86674,86674,86688,86688,86688,86705,86705,86722,86722,86738,86738,86755,86779,86806,86850,86851,86866,86875,86934,86935,86950,86955" d="m92,305c0,-2.58932 0.87866,-4.37866 0,-4.37866c-0.37866,0 0,1.17865 0,2.07867c0,0.89999 0,1.79999 0,2.60449c0,1.01682 0.0458,1.69656 -0.00017,2.67416c-0.04271,0.90833 -0.39478,1.66318 -0.64716,2.42584c-0.32394,0.97888 -0.30373,1.81299 -0.57401,2.79532c-0.21956,0.798 -0.50439,1.6683 -0.83133,2.49567c-0.30008,0.7594 -1.11399,1.47116 -1.6,1.95718c-0.69466,0.69467 -1.41695,1.25125 -1.90067,1.93665c-0.53228,0.75421 -0.64229,1.74448 -0.98833,2.45233c-0.32126,0.65717 -0.93054,1.6499 -1.29433,2.173c-0.54903,0.78943 -1.15316,1.46475 -1.94267,2.12399c-0.50027,0.41772 -1.06304,1.32684 -1.2695,2.00867c-0.31537,1.04144 -1.04473,1.5773 -1.51584,2.25269c-0.5117,0.73358 -0.32449,1.91696 -0.95683,2.39999c-0.68114,0.52029 -1.57206,0.92462 -2.04317,1.60001c-0.5117,0.73358 -0.436,1.69998 -0.436,2.60001c0,0.89999 0,1.79999 0,2.59998c0,0.90002 0,1.80002 0,2.70001c0,0.89999 0,1.8045 0,2.66666c0,0.875 -0.01125,1.52011 0.00134,2.51733c0.0103,0.81619 0.02227,1.6463 0.28266,2.63068c0.23571,0.89105 0.63264,1.88171 0.69517,2.70618c0.05027,0.66287 0.02084,1.66183 0.02084,2.45831c0,1.1875 -0.01974,2.02896 0.16666,2.85419c0.15676,0.69397 0.44914,1.52246 0.63467,2.15466c0.4087,1.3927 0.5987,2.13492 0.76267,2.88666c0.16122,0.73911 0.33659,1.802 0.39999,2.77866c0.03891,0.59927 0.00912,1.68073 0.04667,2.62134c0.02711,0.67905 0.20452,1.64825 0.41467,2.45068c0.21571,0.82367 0.46104,1.85254 0.57467,2.7955c0.09011,0.7478 0.21841,1.62256 0.42533,2.6405c0.14725,0.72443 0.31937,1.452 0.45334,2.517c0.12228,0.97202 0.06849,1.58813 0.28799,2.655c0.19938,0.96906 0.55826,1.66943 0.83334,2.5c0.3194,0.96439 0.49541,1.66302 0.64283,2.36133c0.26522,1.25632 0.23748,2.04147 0.44117,2.81732c0.23559,0.89734 0.80183,1.8085 0.916,2.52966c0.17783,1.12329 0.35381,1.91071 0.5,2.45834c0.2177,0.81555 0.42427,2.04605 0.52533,2.68933c0.15975,1.01685 0.57649,1.75699 0.85317,2.78915c0.1881,0.70172 0.1215,1.62152 0.1215,2.52151c0,0.89999 0,1.79999 0,2.70001c0,0.90015 0,1.68533 0,2.62534c0,1.008 0.01896,1.80023 -0.00134,2.66132c-0.01793,0.76059 -0.20924,1.93735 -0.424,2.728c-0.21144,0.77844 -0.50932,1.63693 -0.57017,2.53351c-0.06155,0.90692 -0.0045,1.65634 -0.0045,2.65182c0,0.80002 0,1.80002 0,2.60001c0,1 0.15797,1.82892 -0.16666,2.83334c-0.24924,0.77115 -0.03067,1.16599 0.86666,1.16666c0.9,0.00067 1.8,0.00223 2.7,0c0.90001,-0.00226 1.86662,-0.08475 2.31467,-0.80133c0.49916,-0.79834 0.22119,-1.80203 0.296,-2.62c0.08427,-0.92142 0.35632,-1.58453 0.564,-2.36401c0.27792,-1.04306 0.38042,-1.99185 0.478,-2.66733c0.14058,-0.97314 0.39043,-1.7681 0.59467,-2.59467c0.2535,-1.02594 0.27422,-1.94778 0.51933,-2.95267c0.19685,-0.80698 0.65298,-1.49106 0.79733,-2.36401c0.15137,-0.91544 0.72211,-1.17578 0.97884,-0.336c0.26405,0.86377 0.19594,1.87885 0.50383,2.54669c0.28929,0.6275 0.87206,1.57629 1.37867,2.37866c0.34755,0.55045 1.02536,1.59833 1.4175,2.32199c0.36276,0.66943 0.76279,1.61719 1.05717,2.40533c0.2039,0.5459 0.48849,1.36801 0.89999,2.36465c0.29188,0.70694 0.63128,1.44208 0.99867,2.65201c0.20856,0.68683 0.38727,1.41183 0.516,2.14801c0.24295,1.38934 0.22782,2.0394 0.338,2.92099c0.13068,1.04562 0.41817,1.71118 0.66334,2.56033c0.28508,0.9874 0.26965,1.81927 0.56799,2.80002c0.23825,0.78323 0.65381,1.57407 0.71467,2.48532c0.06273,0.93924 -0.2186,1.66232 0.03734,2.70532c0.21432,0.87341 0.81413,1.51498 0.964,2.41068c0.14025,0.8382 1,1 1.8,1c0.95716,0 1.86166,0 2.66167,0c0.95966,0 1.76366,0 2.58566,0c1.031,0 1.911,0 2.93134,0c0.774,0 1.674,0 2.53733,0c0.96317,0 1.89191,0.22571 2.68267,-0.28534c0.80274,-0.5188 0.38656,-1.53897 0.8585,-2.35748c0.39606,-0.68692 0.94283,-1.35718 0.94283,-2.15717l0,-0.90002l-0.036,-0.86398" id="svg_28" stroke-width="2" stroke="#000" fill="none"/>
 </g>
 <g display="none">
  <title>muse_image</title>
  <image xlink:href="http://www.kingsnake.com/westindian/susscrofa1.JPG" id="muse" height="469" width="640" y="5.5" x="0"/>
 </g>
 <g display="none">
  <title>bbox</title>
  <rect stroke="#f00" fill="none" stroke-width="3" height="318.20436" width="526.08" y="105.17847" x="76.8" id="bbox"/>
 </g>
</svg>
