<svg width="640" height="480" xmlns="http://www.w3.org/2000/svg" xmlns:svg="http://www.w3.org/2000/svg" xmlns:xlink="http://www.w3.org/1999/xlink">
 <!-- Sketchy ANNOTATION
  ImageNet ID: n02395406_10372
  URL: http://static.flickr.com/29/42556512_d0c52e6777.jpg
  Image Width: 500
  Image Height: 333
  BBox X: 2
  BBox Y: 1
  BBox Width: 403
  BBox Height: 332
  Exposure: 2000ms
  Synset Label: pig
  Synset ID: n02395406
  Worker Tag: pig in a pen
  Sanity Check: 
   Context
   Saved
   Shading
  Comment: 
   {}
  Worker ID: A3HKR8SW08DOF4
  Assignment ID: 3E7TUJ2EGCMH7ZJV44ANXGXY21E9D8
  HIT ID: 3IH9TRB0FBZE3LYS23R3KN07U4R1IU
  Work Time: 134s
  Worker Score: 0.9286
 END ANNOTATION -->
 <g display="inline">
  <title>Layer 1</title>
  <path t="0,177,187,187,203,203,243,259,275,275,291,291,298,315,315,323,323,331,339,348,355,355,365,365,379,379,395,395,403,411,419,450,450,508,508,531,546,554,570,578,586,586,594,594,626,1154,1154,1164,1179,1187,1196,1202,1210,1226,1235,1242,1258,1274,1290,1290,1331,1354,1370,1378,1386,1394,1402,1411,1411,1411,1418,1426,1434,1435,1442,1458,1474,1474,1482,1498,1498,1514,1538,1538,1539,1554,1554,1564,1564,1570,1586,1595,1595,1610,1610,1618,1618,1635,1635,1650,1658,1659,1667,1682,1691,1691,1698,1706,1714,1723,1731,1731,1748,1754,1770,1786,1795,1810,1811,1818,1826,1835,1842,1843,1850,1858,1874,1874,1882,1882,1891,1898,1907,1914,1915,1931,1931,1939,1962,1963,1970,1970,1978,1979,1986,1995,2002,2011,2034,2034,2042,2043,2066,2066,2074,3694,3704,3723,3723,3747,3770,3950,3960,3972,3972,3995,4243,4808,4808,4818,4818,4818,4818,4834,4850,4858,4882,5363,5387,5396,5397,5410,5411,5426,5434,5434,5442,5450,5458,5466,5498,5498,5514,5523,5531,5547,5564,5579,5579,5586,5594,5618,5634,5634,5642,5650,5682,5682,5691,5698,5722,5730,5738,5747,5764,5764,5764,5779,5779,5786,5786,5794,5810,5810,5818,5818,5826,5826,5834,5842,5858,5858,5866,5866,5866,5882,5882,5890,5898,5906,5914,5914,5938,5962,5970,5994,6010,6010,6018,6018,6026,6034,6043,6050,6058,6066,6082,6122,6201,6211,6211,6227,6243,6266,6274,6531,6531,6531" d="m263.5,194c1.75717,-0.05716 2.67255,-0.32001 3.34732,-0.7045c0.793,-0.45184 1.41971,-1.14671 2.35269,-1.291c0.92499,-0.14304 1.78531,-0.0045 2.51065,-0.0045c0.98917,0 1.95334,0 2.90399,0c0.88535,0 1.64252,0 2.53802,0c0.86331,0 1.82648,0 2.74731,0c0.90451,0 1.76666,0 2.60001,0c0.97867,0 1.75266,0 2.65717,0c0.74734,0 1.74152,0 2.68567,0c0.89999,0 1.85718,0 2.75717,0c0.89999,0 1.65717,0 2.55267,0c0.86331,0 1.82648,0 2.74731,0c0.89999,0 1.80002,0 2.70001,0c0.89999,0 1.68042,-0.00491 2.55267,0.35716c0.71729,0.29776 1.50031,1.09523 2.34732,1.47617c0.65533,0.29472 1.72562,0.60786 2.564,0.13068c0.6915,-0.3936 0.436,-1.56401 0.436,-2.464c0,-0.89999 -0.07306,-1.85017 0.42532,-2.47467c0.4852,-0.60796 0.47922,-1.46986 0.85867,-2.22533c0.43558,-0.86722 0.71533,-1.60001 0.716,-2.5c0.00067,-0.90001 -0.28906,-1.85197 0.01068,-2.68933c0.26373,-0.73674 0.90247,-1.22705 1.01016,-2.15234c0.11798,-1.0139 0.34158,-1.73132 0.68365,-2.39583c0.49109,-0.95395 1.14276,-1.4669 1.5795,-2.2625c0.35577,-0.64812 0.5983,-1.51183 0.75201,-2.436c0.14481,-0.87065 0.5722,-1.5049 1.25949,-2.25867c0.61697,-0.67667 0.55569,-1.47108 0.7135,-2.35266c0.17175,-0.95963 0.89111,-1.5533 1.28568,-2.15717c0.6178,-0.94551 0.55963,-1.82066 0.99066,-2.71017c0.31235,-0.64458 1.21423,-1.21999 1.59332,-1.98534c0.4194,-0.84677 0.76743,-1.51244 1.32135,-2.38399c0.4281,-0.67361 0.87433,-1.51643 1.39999,-2.10535c0.66431,-0.74423 1.06653,-1.31137 1.38531,-2.22533c0.3031,-0.869 1.32037,-0.77379 1.90036,-1.5425c0.57236,-0.75859 0.3074,-1.76688 0.81882,-2.34283c0.65024,-0.73227 0.91376,-1.76289 1.58084,-2.21468c0.75974,-0.51453 1.42816,-0.57928 1.76733,-1.37999c0.32346,-0.76361 1.45828,-0.9355 1.82584,-1.80534c0.35349,-0.83653 0.33765,-1.62946 1.12149,-2.06667c0.65189,-0.3636 1.39639,-1.0663 1.83334,-1.83333c0.44424,-0.77985 1.2049,-0.82645 1.96664,-1.08533c0.88794,-0.30176 1.63187,-0.82149 2.52133,-1.13617c0.69928,-0.24739 1.48355,-0.81949 2.15784,-1.25768c0.7905,-0.5137 1.73499,-0.36237 2.62085,-0.52116c0.94458,-0.16933 1.24149,-1.15565 1.89999,-1.66634c0.68405,-0.53047 1.63669,-0.29967 2.65717,-0.33783c0.74869,-0.028 1.74066,-0.28177 2.50684,-0.57016c0.81357,-0.30624 1.63467,-0.42467 2.53601,-0.42534c0.89999,-0.00066 1.79999,0 2.71066,0c0.91083,0 1.79999,0 2.78915,0c0.77933,0 1.77866,0 2.49567,0c0.90451,0 2.06717,-0.06216 2.29382,0.64667c0.30643,0.95825 0.01068,1.70067 0.01068,2.71733c0,0.936 0,1.836 0,2.73601c0,0.89999 0,1.7 0,2.59999c0,0.82083 0.00012,1.78534 0,2.51067c-0.00018,0.98917 0.17441,1.88541 -0.44266,2.76784c-0.42935,0.61397 -1.15085,1.24606 -1.77869,1.90016c-0.6004,0.6255 -1.25623,0.85866 -2.07416,1.12584c-0.76187,0.24887 -0.7045,1.31683 -0.7045,2.17017c0,0.94133 0,1.70934 0,2.65067c0,1.008 0,1.87016 0,2.77467c0,0.89999 0.03891,1.76842 0.5,2.42082c0.47272,0.66887 0.49933,1.49651 0.5,2.45834c0.00064,0.92082 0,1.82083 0,2.72083c0,0.90001 0,1.8 0,2.60001c0,0.89999 0,1.8 0,2.72083c0,0.96317 0,1.65384 0,2.722c0,0.85718 0,1.75717 0,2.55717c0,0.89999 0,1.8 0,2.7c0,0.89999 0,1.8 0,2.70134c0,0.96533 0,1.63466 0,2.39999c0,0.99867 0,1.79866 0,2.79733c0,0.94417 0,1.84866 0,2.76801c0,0.85416 0,1.83333 0,2.62267c0,1.04399 0,1.8 0,2.71066c0,0.91066 0,1.8215 0,2.52083c0,0.97917 0,1.77917 0,2.57918c0,1.18933 0.00558,1.91467 0,2.87917c-0.00534,0.92087 -0.45297,1.62802 -0.83334,2.52083c-0.32019,0.75154 -0.15598,1.70006 -0.16666,2.60001c-0.01044,0.87935 -0.69049,1.3813 -1.20001,1.96933c-0.60809,0.7018 -1.09784,1.48076 -1.51465,2.22932c-0.41812,0.7509 -0.70181,1.62016 -1.48401,2.11734c-0.73145,0.46492 -1.24792,1.1378 -1.82666,1.65866c-0.63788,0.57408 -0.98441,1.28093 -1.58533,2.02534c-0.52768,0.65369 -1.02371,1.23439 -1.44202,2.09999c-0.39551,0.81845 -1.24731,1.24284 -2.146,1.30133l-0.74417,0.35583l-0.0585,0.8455l-0.08398,0.76801" id="svg_1" stroke-width="2" stroke="#000" fill="none"/>
  <path t="7443,7650,7660,7683,7715,7723,7732,7739,7739,7747,7754,7770,7779,7779,7786,7786,7794,7802,7810,7810,7818,7826,7834,7834,7842,7850,7858,7866,7874,7882,7890,7890,7898,7906,7930,7938,7947,7947,7954,7964,7971,7979,7986,7994,8002,8010,8010,8018,8042,8042,8043,8050,8050,8058,8066,8066,8074,8074,8090,8098,8106,8122,8138,8154,8164,8164,8178,8179,8194,8194,8210,8226,8234,8242,8250,8266,8274,8282,8290,8314,8330,8338,8347,8370,8402,8402,8418,8418,8426,8426,8434,8474,8490,8498,8506,8514,8514,8530,8538,8554,8947,8947,8970,8979,9067,9099,9099,9115,9115,9139,9163,9163,9187,9227,9274,9307,9331,9673,9683,9683,9683,9699,9699,9707,9723,9724,9754,9763,9770,10776,10811,10811,10894,10915,10915,11120,11130,11149,11155,11186,11194,11307,11338,11339,11346,11365,11371,11378,11386,11395,11418,11426,11434,11450,11466,11482,11482,11498,11498,11530,11530,11546,11554,11578,11587,11595,11603,11611,11619,11635,11643,11643,11651,11667,11675,11683,11691,11699,11715,11715,11723,11723,11731,11763,11779,11779,11795,11803,11811,11819,11827,11827,11835,11843,11859,11867,11875,11883,11883,11891,11891,11899,11907,11907,11915,11915,11923,11923,11931,11931,11939,11939,11948,11948,11955,11964,11987,11987,12003,12011,12019,12019,12027,12027,12043,12043,12059,12075,12075,12092,12099,12115,12265,12275,12832,12832" d="m264.5,194c0,-1.7 0,-2.60001 0,-3.5c0,-0.89999 0.07294,-1.95894 -0.436,-2.48534c-0.66769,-0.69058 -1.09695,-1.21237 -1.47998,-2.12799c-0.34079,-0.81461 -0.99796,-1.35281 -1.30551,-2.20801c-0.25101,-0.69798 -0.81729,-1.48495 -1.25766,-2.15784c-0.51532,-0.78741 -1.12372,-1.40681 -1.46817,-2.23067c-0.31592,-0.7556 -0.57587,-1.60394 -0.96866,-2.49016c-0.33969,-0.76645 -0.91086,-1.25739 -1.56317,-1.82083c-0.62759,-0.5421 -0.90987,-1.44084 -1.35417,-2.14584c-0.45311,-0.71896 -0.44861,-1.58359 -1.16667,-2c-0.72505,-0.42047 -0.93469,-1.36543 -1.35266,-2.13333c-0.45766,-0.84081 -0.94313,-1.42902 -1.74718,-1.92149c-0.61972,-0.37958 -1.05939,-1.20111 -1.61617,-1.8625c-0.51921,-0.61678 -0.94571,-1.39516 -1.67332,-1.89067c-0.6658,-0.45343 -1.2973,-1.01395 -1.91068,-1.73067c-0.4631,-0.54114 -1.16342,-1.15712 -2.02133,-1.7375c-0.54259,-0.36707 -1.19501,-1.07416 -1.92149,-1.79999c-0.55609,-0.55557 -1.13382,-1.20271 -1.92384,-1.75717c-0.62332,-0.43745 -1.48392,-1.00902 -1.8815,-1.7c-0.4545,-0.7899 -1.27835,-1.07689 -2.1505,-1.30133c-0.8009,-0.20612 -1.31088,-0.83817 -2.10133,-1.35583c-0.79506,-0.52069 -1.16289,-1.18219 -1.90134,-1.84151c-0.53075,-0.47386 -1.4722,-0.65231 -2.31467,-0.88533c-0.88103,-0.24368 -1.69548,-0.74927 -2.58383,-0.91617c-0.7957,-0.14949 -1.24429,-0.95731 -1.90016,-1.49983c-0.60298,-0.49878 -1.55197,-0.21091 -2.38933,-0.51067c-0.73676,-0.26375 -1.22134,-0.97867 -2.11067,-0.98933c-0.88933,-0.01067 -1.42094,-0.61543 -2.06934,-1.2c-0.5455,-0.49181 -1.49066,-1.09235 -2.18333,-1.44284c-0.84395,-0.42705 -1.54886,-0.61018 -2.33,-1.07317c-0.8261,-0.48961 -1.47177,-0.70163 -2.13882,-1.16249c-0.72968,-0.50414 -1.73882,-0.35182 -2.4785,-0.76884c-0.74503,-0.42004 -1.34215,-1.01744 -2.0045,-1.40533c-0.76309,-0.4469 -1.29483,-0.14465 -1.2955,0.75267c-0.00067,0.90001 0,1.71066 0,2.62134c0,0.85333 0,1.79466 0,2.56267c0,0.94133 0,1.94933 0,2.81149c0,0.90451 0,1.8045 0,2.7045c0,0.90001 -0.12418,1.80864 0.00017,2.69984c0.11189,0.80194 0.93124,0.88345 1.8145,1.33617c0.90929,0.46606 1.17291,1.3745 1.94701,1.55949c0.86664,0.20711 1.87781,-0.1203 2.59166,0.44051c0.74529,0.58549 1.25775,1.3046 1.61067,2.01067c0.39139,0.78304 0.036,1.728 0.036,2.668c0,0.88533 0,1.68533 0,2.58533c0,0.90001 0,1.8 0,2.7c0,0.90001 0,1.8 0,2.70001c0,0.89999 0.12428,1.67743 0.57466,2.5c0.42729,0.78038 0.37346,1.73386 0.85068,2.37466c0.50772,0.68178 0.57466,1.52533 0.57466,2.42532c0,0.90001 -0.17986,1.90013 0.284,2.51601c0.524,0.69574 0.94434,1.4025 1.216,2.084c0.38855,0.97472 0.49774,1.75266 0.5,2.65266c0.00215,0.86334 0,1.82651 0,2.74733c0,0.90001 0,1.8 0,2.70001c0,0.89999 0.41769,1.45439 0.87849,2.12149c0.50406,0.72971 0.09615,1.7789 0.12151,2.57851c0.02859,0.90135 0.6862,1.62236 0.94284,2.5c0.25311,0.86555 -0.15791,1.8967 0.27849,2.57883c0.46677,0.7296 0.60899,1.38495 1.06401,2.2345c0.37364,0.6976 1.49995,0.95053 1.67867,1.748c0.21269,0.94913 -0.14877,1.86078 0.07199,2.73868c0.21698,0.86284 0.66225,1.78081 1.32117,2.34732c0.68765,0.5912 1.29108,0.88188 1.69551,1.75267c0.38609,0.83128 0.71347,1.75383 1.30449,2.24733c0.69609,0.58124 1.3409,1.12268 1.75267,1.75267c0.46251,0.70761 1.32144,1.1006 1.89017,1.8c0.5686,0.69926 1.35136,1.14421 2.24733,1.45183c0.63634,0.21848 1.45717,0.70624 2.04283,1.40001c0.60426,0.71582 0.81541,1.58051 1.41968,2.29633c0.58566,0.69377 1.39317,1.25908 2.17416,1.34917c0.92462,0.10666 1.95045,0.2041 2.116,1.00267c0.16331,0.7878 0.57207,1.65001 1.41066,1.97467c0.87985,0.34064 1.57216,0.57314 2.56767,0.90399c0.7242,0.24068 1.22424,1.09843 1.59633,1.72134c0.45628,0.76387 1.15457,1.26125 1.94267,1.48399c0.87846,0.24828 1.59093,0.74406 2.48267,0.916c0.88972,0.17155 1.28667,0.91467 2.16667,1l0.79166,0" id="svg_2" stroke-width="2" stroke="#000" fill="none"/>
  <path t="20743,21060,21070,21084,21091,21092,21099,21107,21107,21123,21123,21131,21139,21163,21181,21203,21219,21219,21227,21243,21243,21267,21283,21283,21307,21323,21323,21339,21355,21364,21364,21371,21387,21403,21411,21435,21451,21451,21467,21475,21491,21499,21507,21531,21539,21555,21555,21571,21580,21587,21595,21611,21611,21619,21643,21651,21675,21715,21715,21723,21723,21731,21739,21747,21747,21755,21764,21764,21771,21787,21803,21803,21819,21819,21851,21867,21883,21891,21907,21915,21923,21923,21931,21931,21947,21955,21964,21980,22011,22027,22035,22059,22059,22067,22075,22083,22091,22091,22099,22115,22123,22147,22164,22164,22171,22187,22203,22211,22219,22267,22283,22387,22411,22419,22419,22428,22428,22435,22459,22593,22619,22651,22724,22755,22766,22766,22771,22772,22783,22783,22787,22796,22819" d="m292.5,242c-2.58932,0 -3.5,0 -4.41068,0c-0.91064,0 -1.76398,0 -2.70398,0c-0.88535,0 -1.64252,0 -2.53802,0c-0.86331,0 -1.82648,0 -2.74731,0c-0.89999,0 -1.80002,0 -2.70001,0c-0.89999,0 -1.69998,0 -2.53598,0c-1.01669,0 -1.71133,0 -2.73868,0c-0.94666,0 -1.80405,-0.08598 -2.73999,0.00133c-0.89676,0.08366 -1.48126,0.58212 -2.38535,0.99867c-0.79199,0.3649 -1.21664,1.04642 -1.58401,1.8c-0.40662,0.83409 -1.56018,0.9901 -1.89514,1.72083c-0.36661,0.79971 -0.52136,1.69797 -0.85419,2.47917c-0.32019,0.75154 -0.16666,1.7 -0.16666,2.60001c0,0.89999 0,1.79999 0,2.7c0,0.89999 0,1.8 0,2.7c0,0.79999 0.11044,1.66959 0.80133,2.08401c0.7948,0.47675 1.06412,1.48083 1.76666,1.83197c0.78732,0.39352 1.47968,0.91425 2.23334,1.08267c0.87891,0.19641 1.66754,0.55597 2.39999,1.20001c0.53433,0.46982 1.45001,0.77145 2.31467,0.79999c0.96265,0.03177 1.84064,-0.13522 2.68402,0.28534c0.66162,0.32993 1.56952,0.73401 2.45267,1.06866c0.7056,0.2674 1.58887,0.61874 2.54733,0.64734c0.89975,0.02686 1.68533,0 2.62534,0c0.69064,0 1.76398,0 2.67465,0c0.89999,0 1.79999,0 2.70001,0c0.89999,0 1.79999,0 2.55716,0c0.89551,0 1.75882,0 2.72198,0c0.92084,0 1.82083,0 2.72086,0c0.89999,0 1.97998,0.37683 2.63333,-0.16666c0.69,-0.57397 0.75012,-1.42926 1.16666,-2.33334c0.3649,-0.79199 1.25479,-1.05249 1.83334,-1.83334c0.40909,-0.55212 0.78183,-1.36105 1.13065,-2.10266c0.41058,-0.87292 -0.09567,-1.91403 0.25735,-2.664c0.36505,-0.77551 0.77332,-1.49995 0.77866,-2.39999c0.00534,-0.89998 0,-1.8 0,-2.7c0,-0.90001 -0.32175,-1.95334 0.22134,-2.67867c0.48038,-0.64157 0.34634,-1.237 -0.24219,-1.62134c-0.7988,-0.52164 -1.62244,-0.97261 -2.3685,-1.47467c-0.6683,-0.44972 -1.22125,-1.01999 -2.11066,-1.02533c-0.89996,-0.0054 -1.79999,0 -2.70001,0c-0.90033,0 -1.61432,0 -2.56799,0c-0.98132,0 -1.89865,0 -2.69034,0l-0.94165,0l-0.89551,-0.0045l-0.67917,-0.42084" id="svg_4" stroke-width="2" stroke="#000" fill="none"/>
  <path t="23373,23544,23554,23637,23660,23734,23824,23824,23834,23967,23996,23996,24012,24027,24141,24172,24180,24196,24330,24330,24330,24330,24538" d="m276.5,250c0,1.8 0,2.7 0,3.60001c0,0.79999 -0.02222,1.70474 0.00015,2.72116c0.01801,0.81808 0.35327,1.745 1.29984,1.67435c0.82645,-0.06168 1.55115,-0.76511 1.69553,-1.69553c0.138,-0.88936 0.00449,-1.79999 0.00449,-2.69998c0,-0.90001 0.17349,-1.85728 -0.16666,-2.60001c-0.36755,-0.8026 -1.13333,-1.3045 -1.63333,-1.88533l-0.58936,-0.91867" id="svg_5" stroke-width="2" stroke="#000" fill="none"/>
  <path t="25046,25210,25235,25260,25275,25344,25354,25354,25371,25381,25395,25499,25509,25523,25539,25555,25571,25581,25603,25657,25657,25667,25667,25667,25699" d="m288.5,253c0,1.8 -0.01068,2.70006 0,3.60001c0.01044,0.87933 0.45078,1.5585 1.10983,2.04733c0.65051,0.48251 1.64255,0.70657 2.24283,1.29999c0.55789,0.55148 1.42175,1.09714 1.64285,0.34818c0.25357,-0.85889 0.00449,-1.7955 0.00449,-2.6955c0,-0.89999 0,-1.8 0,-2.70001c0,-0.89999 0,-1.65717 0,-2.55266l0,-0.86334l0,-0.96317l-0.01068,-0.92082" id="svg_6" stroke-width="2" stroke="#000" fill="none"/>
  <path t="26590,26720,26827,26827,26923,26963,26987,27003,27019,27091,27099,27108,27115,27115,27131,27131,27139,27154,27163,27259,27283,27291,27315,27409,27419,27435,27443,27555,27596,27703,27713,27724,27724" d="m300.5,226c-1.70001,0 -2.84125,-0.00838 -2.99866,0.80133c-0.17181,0.88385 0.43271,1.87279 1.29865,2.14151c0.86011,0.26691 1.37662,0.62602 2.13602,1.02116c0.76709,0.39915 1.76532,0.036 2.73065,0.036c0.83334,0 1.66669,0 2.52884,0c0.90451,0 1.8045,0.00226 2.7045,0c0.89551,-0.00226 1.582,-0.43544 1.60001,-1.3c0.01874,-0.8998 0.11078,-1.80684 0,-2.7c-0.11151,-0.89923 -0.67661,-1.56886 -1.436,-1.964c-0.76709,-0.39915 -1.76401,-0.036 -2.664,-0.036l-0.89999,0l-0.79999,0" id="svg_7" stroke-width="2" stroke="#000" fill="none"/>
  <path t="28607,28736,28764,28859,28883,28931,28955,28971,28971,28980,28980,28996,28996,29010,29011,29199,29219,29242,29259,29259,29409,29434,29443" d="m266.5,225c0,1.8 -0.39337,2.81339 0.03601,3.564c0.39508,0.69063 1.564,0.436 2.48483,0.436c0.80066,0 1.68982,0 2.67899,0c0.77933,0 1.77884,0 2.55283,0c0.90002,0 1.85587,0.38692 2.70569,-0.02083c0.69424,-0.3331 0.09744,-1.37149 -0.55817,-2.07918c-0.54996,-0.59363 -0.92551,-1.46399 -1.51083,-1.88933l-0.88934,-0.03149" id="svg_8" stroke-width="2" stroke="#000" fill="none"/>
  <path t="30349,30472,30482,30482,30482,30507,30515,30523,30548,30548,30571,30571,30580,30596,30602,30618,30634,30643,30650,30650,30666,30675,30682,30691,30714,30715,30730,30730,30746,30763,30763,30771,30771,30795,30795,30803,30818,30827,30834,30843,30843,30874,30882,30882,30891,30891,30899,30907,30923,30930,30939,30939,30954,30970,30980,30997,30997,31011,31026,31034,31035,31059,31066,31074,31082,31106,31106,31114,31130,31138,31170,31186,31186,31196,31202,31211,31218,31218,31226,31227,31234,31234,31242,31243,31250,31250,31259,31259,31275,31282,31291,31299,31314,31322,31338,31346,31363,31363,31370,31371,31386,31396,31396,31418,31418,31434,31434,31442,31443,31458,31466,31466,31474,31475,31482,31482,31491,31498,31498,31507,31514,31514,31530,31530,31538,31554,31563,31563,31563,31571,31580,31586,31596,31596,31602,31603,31611,31611,31618,31626,31627,31642,31642,31650,31658,31666,31666,31682,31802,31802,31812,31812,31812,31828,31828" d="m239.5,225c-0.02133,3.33867 -0.43787,4.32527 -0.85066,4.82533c-0.57471,0.69621 -1.11331,1.53659 -1.14934,2.47467c-0.03459,0.90067 0,1.86667 0,2.52533c0,1.008 0,1.87016 0,2.77467c0,0.89999 0,1.79999 0,2.7c0,0.89999 0,1.8 0,2.7c0,0.8 -0.01041,1.70006 0,2.60001c0.01042,0.90018 0.53526,1.60632 0.87849,2.50017c0.28474,0.74152 0.03651,1.74234 0.20683,2.41583c0.2274,0.8992 0.89525,1.66307 1.31467,2.29866c0.57394,0.86977 1.40547,1.24455 1.60001,2.18533c0.16292,0.78787 0.6862,1.42236 0.94284,2.29999c0.25313,0.8656 -0.12611,1.85428 0.22383,2.70001c0.32466,0.78464 0.75096,1.54837 1.05499,2.32117c0.33731,0.85742 1.12682,1.36154 1.91701,1.69351c0.82489,0.34656 0.86133,1.28531 0.86133,2.18533c0,0.89999 -0.17355,1.83823 0.08533,2.59998c0.30176,0.88794 0.78017,1.60989 0.91917,2.5c0.1279,0.819 0.77034,1.33752 1.38483,2.10001c0.60103,0.74579 0.84462,1.55829 1.25801,2.30002c0.42563,0.76367 0.64267,1.69302 1.4525,2.17865c0.72978,0.43762 1.18512,1.18091 1.5475,1.82135c0.46442,0.82077 1.19261,1.17996 1.83183,1.82083c0.64192,0.64355 0.62386,1.7178 1.32216,2.19382c0.7493,0.51077 1.21106,1.13693 1.71951,1.78534c0.60242,0.76822 1.20459,1.24985 1.96448,1.69867c0.69928,0.41302 1.71024,0.72183 2.49384,0.78049c0.99695,0.07462 1.92313,0.05917 2.67352,0.37802c0.71478,0.30371 1.53763,1.04156 2.23132,1.35748c0.87939,0.40048 1.6416,0.77286 2.40134,1.20001c0.71387,0.40137 1.39127,0.65417 2.15067,1.04932c0.76709,0.39917 1.76532,0.03601 2.73065,0.03601c0.65869,0 1.66669,0 2.52884,0c0.94049,0 1.80243,-0.10699 2.65182,0.05716c0.93008,0.17975 1.51596,0.75977 2.48868,0.90683c0.75751,0.11453 1.75949,0.03601 2.50684,0.03601c1.03183,0 1.97867,0 2.67801,0c1.17899,0 1.95877,0.02826 2.8125,0c0.86359,-0.02859 1.63834,-0.62921 2.48798,-0.87851c0.82568,-0.24228 1.79333,-0.12149 2.67868,-0.12149c0.75717,0 1.67322,0.11853 2.51599,-0.08533c0.88803,-0.21481 1.70212,-0.77316 2.65067,-1.08133c0.67303,-0.21866 1.32449,-0.6785 2.42267,-0.82266c0.90298,-0.11856 1.7153,0.00473 2.73199,-0.01083c0.67892,-0.01041 1.62115,-0.29486 2.43134,-0.64719c0.86871,-0.37778 1.60156,-0.24353 2.62201,-0.36334c0.9632,-0.11307 1.59143,-0.59262 2.60382,-0.86783c0.70105,-0.19058 1.62152,-0.12085 2.54236,-0.12149c0.96182,-0.00067 1.77643,-0.04736 2.49384,-0.57468c0.60205,-0.4425 1.44327,-0.82739 1.98532,-1.59198c0.45096,-0.63611 0.79999,-1.43466 1.20132,-2.23468l0.43466,-0.83466" id="svg_9" stroke-width="2" stroke="#000" fill="none"/>
  <path t="33124,33264,33264,33274,33274,33284,33284,33291,33291,33291,33299,33299,33299,33306,33306,33306,33314,33315,33315,33323,33330,33330,33330,33339,33339,33339,33346,33355,33363,33371,33371,33386,33395,33395,33402,33410,33418,33434,33434,33442,33458,33458,33466,33474,33490,33498,33515,33515,33522,33530,33530,33546,33555,33555,33563,33579,33589,33602,33602,33626,33642,33642,33642,33650,33658,33675,33690,33690,33699,33699,33715,33738,33738,33738,33746,33746,33835,33843,33843,33859,33883,33891,33891,33907,33914,33923,33930,33938,33946,33971,33972,33986,33986,34002,34011,34026,34050,34050,34066,34066,34074,34082,34090,34098,34098" d="m351.5,220c0.00449,2.60001 -0.00507,3.41618 0.284,4.39999c0.23996,0.81665 0.58884,1.80092 0.716,2.60001c0.15933,1.00119 0.45642,1.80081 0.64734,2.45717c0.27692,0.95204 0.33057,1.76775 0.34818,2.59016c0.02209,1.0311 -0.00958,1.95686 0.08981,2.63667c0.14731,1.00751 0.43454,1.78973 0.63068,2.54666c0.28802,1.11147 0.44711,2.10365 0.63666,2.77916c0.21793,0.77667 0.52475,1.81831 0.61133,2.7435c0.07089,0.75749 0.03372,1.72585 0.03601,2.64667c0.00226,0.90002 0.33121,1.63411 0.716,2.40001c0.39487,0.78592 0.284,1.68399 0.284,2.54733c0,1.01666 0,1.85266 0,2.75267c0,0.89999 0,1.7 0,2.65717c0,0.89551 0,1.75882 0,2.72198c0,0.82083 0,1.72086 0,2.62085c0,0.89999 0.12604,1.71594 -0.05716,2.65717c-0.1796,0.92282 -0.6015,1.58499 -1.34283,2.19217c-0.66251,0.54263 -1.1322,1.27005 -1.89551,1.94083c-0.59961,0.52692 -0.51563,1.37915 -0.92599,2.20984c-0.34116,0.69058 -1.15515,1.34555 -1.94516,1.89999c-0.62332,0.43747 -1.3215,0.76102 -1.84802,1.60001c-0.47562,0.75787 -1.20651,1.24915 -2.15198,1.56665c-0.66525,0.22342 -1.48132,0.84384 -1.8815,1.53336c-0.47183,0.81296 -1.09549,1.34253 -1.78784,1.68933c-0.74353,0.37244 -1.83896,0.30429 -2.59332,0.69467c-0.93365,0.48315 -1.60712,0.74783 -2.37067,1.00131c-0.77219,0.25635 -1.50418,0.86386 -2.52118,0.91483c-0.81726,0.04095 -1.45712,0.67197 -2.19968,0.979c-0.81265,0.33603 -1.77914,0.02084 -2.67917,0.02084c-0.89999,0 -1.81253,-0.09149 -2.55716,0.05716c-0.92474,0.1846 -1.55777,0.72406 -2.60684,0.90683c-0.82437,0.14362 -1.73599,0.03601 -2.63599,0.03601c-0.75717,0 -1.82538,-0.00748 -2.51599,0c-0.96335,0.01044 -1.784,0.35266 -2.58401,0.87851l-0.89999,0.12149l-0.79999,0" id="svg_10" stroke-width="2" stroke="#000" fill="none"/>
  <path t="35342,35971,35995,36011,36011,36035,36139,36139,36148,36633,36926,36936,36950,36956,36964,36986,36995,37043,37075,37083,37083,37171,37187,37198,37228,37313,37323,37323,37323,37323,37323,37339,37339,37348,37371" d="m281.5,269c1.79999,0 2.63599,0 3.48401,0c0.86331,0 1.89066,0 2.83731,0c0.67868,0 1.80139,-0.31537 2.55734,0.22134c0.7019,0.49835 0.31866,0.77866 -0.57867,0.77866c-0.89999,0 -1.79999,0 -2.69998,0c-0.89999,0 -1.80002,0 -2.70001,0c-0.89999,0 -1.69998,0 -2.60001,0c-0.89999,0 -1.79999,0 -2.69998,0c-0.90451,0 -1.76666,0 -2.62085,0c-0.97916,0 -1.77914,0.0018 -2.57916,0c-0.99548,-0.00226 -1.74283,-0.05716 -2.64282,-0.35266l-0.85718,-0.526" id="svg_11" stroke-width="2" stroke="#000" fill="none"/>
  <path t="52675,52847,52847,52857,52955,53095,53105,53105,53115,53131,53155,53195,53204,53255,53291,53291,53307,53365,53395,53395,53419,53492,53592,53592,53602,53619,53630,53635,53635,53643,53725,53735,53865,53865,53899,53915,53915,53931,53979,53979,54043,54051,54059,54067,54098,54145,54183,54395,54395,54395,54427,54509,54579,54579,54618,54662,54722,54755,54755,54845,54895,54905,54931,54954,54970,54986,55002,55012,55042,55058,55095,55095,55129,55129,55139,55149,55171,55186,55187,55202,55262,55307,55355,55355,55355,55379,55395,55491,55515,55650,55660,55660,55660,55660" d="m356.5,139c-1,0 -1.79999,0 -2.70001,0c-0.94281,0 -1.64731,0.36719 -2.29999,1c-0.59122,0.57321 -1.41025,1.07445 -2.02533,1.57466c-0.61987,0.50412 -1.42773,0.56277 -2.05869,1.14134c-0.69418,0.63657 -1.38544,1.06715 -2.06531,1.30933c-0.8382,0.29857 -1.18259,1.29875 -1.85068,1.97467c-0.57889,0.58565 -1.39944,0.98199 -2.3045,1c-0.86197,0.01715 -1.93262,-0.37955 -2.52484,0.28534c-0.61816,0.694 -0.57507,1.5619 -1.37067,1.99866c-0.6481,0.35577 -1.28604,0.90079 -1.96664,1.54933c-0.63354,0.6037 -1.0242,1.29269 -1.53784,1.86667c-0.65802,0.73532 -1.21716,1.39713 -1.89551,1.864c-0.82379,0.56697 -1.79077,0.72421 -2.23334,1.436c-0.50717,0.8157 -1.01788,1.33681 -1.59198,1.97467c-0.52087,0.57872 -1.36731,1.01923 -1.57019,1.72983c-0.25815,0.90424 -0.92075,1.44981 -1.00449,2.2955c-0.07883,0.79611 0,1.7 0,2.60001c0,0.89999 0,1.79999 0,2.7c0,0.89999 0,1.8 0,2.7c0,0.8 0,1.7 0,2.60001c0,0.89999 0.00067,1.79999 0,2.7c-0.00067,0.89867 -0.61172,1.43712 -0.96399,2.136c-0.4342,0.86142 0.05484,1.86873 -0.03735,2.76399c-0.08368,0.81261 -0.69852,1.396 -0.91333,2.284c-0.20389,0.8428 -0.08527,1.88 -0.08533,2.716c-0.00009,0.90001 -0.23395,1.75827 -0.64734,2.5c-0.42563,0.76369 -0.89587,1.5033 -1.23117,2.40001c-0.31808,0.85063 -0.10275,1.7002 -0.12149,2.59999c-0.01801,0.86456 -0.85425,1.34396 -0.99866,2.10133c-0.16833,0.88277 -0.00134,1.76117 -0.00134,2.69867l-0.00449,0.8625l-0.01636,0.65833l-0.06448,1.01251" id="svg_14" stroke-width="2" stroke="#000" fill="none"/>
  <path t="57028,57376,57403,57403,57419,57435,57443,57555,57652,57652,57691,57707,57723,57739,57778,57835,57843,57915,57955,57970,58042,58075,58083,58108,58114,58114,58146,58154,58186,58202,58202,58211,58234,58250,58258,58274,58283,58306,58371,58371,58395,58395,58402,58426,58426,58450,58458,58573,58604,58605,58614,58614,58620,58636,58652,58675,58684,58699,58707,58723,58755,58779,58779,58787,58787,58796,58796,58812,58829,58835,58835,58851,58867,58959" d="m222.5,152c1.2215,0.87866 2.05956,1.28496 2.7,1.64734c0.82079,0.46442 1.38736,1.05652 2.15067,1.32733c0.88544,0.31415 1.17249,1.18005 1.85384,1.66817c0.78056,0.5592 1.99944,0.24208 2.28484,0.96783c0.31805,0.80878 0.63837,1.38271 1.41066,1.81467c0.81808,0.45758 1.40431,1.07324 2.03601,1.54933c0.65765,0.49565 1.04065,1.2847 1.73067,1.85866c0.65335,0.54346 1.57671,0.37523 2,1.16667c0.40047,0.74878 0.65344,1.60851 1.19049,2.2955c0.58162,0.74402 1.38066,1.06639 1.66817,1.85384c0.30348,0.83122 0.91476,1.40149 1.32733,2.15067c0.46178,0.83855 0.87943,1.51767 1.74718,1.70016c0.79218,0.16661 0.80348,1.11665 0.98549,1.88516c0.23122,0.97627 0.7159,1.63075 1.21017,2.3575c0.58304,0.85725 0.6214,1.70493 1.31517,2.32117c0.65816,0.58463 1.32127,1.00102 1.67467,1.92c0.27403,0.71259 0.8759,1.45239 1.27866,2.10535c0.5202,0.84337 1.03462,1.41975 1.48868,2.11516c0.49486,0.75789 1.5192,1.00217 1.91133,1.73151c0.40747,0.75786 0.48431,1.41763 1.336,1.5685c0.92876,0.16452 1.43163,0.73668 1.99998,1.64816c0.42413,0.68021 0.79214,1.59276 1.5,2.06067c0.75797,0.50104 1.57721,0.92256 2.03336,1.62c0.45883,0.70157 0.59198,1.60533 1.14581,2.1875l0.02084,0.87917" id="svg_15" stroke-width="2" stroke="#000" fill="none"/>
  <path t="62138,62295,62305,62324,62324,62348,62364,62372,62391,62398,62404,62404,62435,62443,62443,62459,62572,62582,62582,62596,62619,62630,62644,62651,62691,62707,62723,62731,62747,62747,62787,62795,62819,62835,62851,62851,62875,62875,62883,62884,62899,62907,62923,62939,62947,62963,62971,62979,62987,62987,62995,63003,63012,63029,63035,63035,63043,63044,63051,63051,63059,63067,63067,63084,63107,63107,63115,63139,63148,63148,63171,63187,63196,63203,63212,63244,63244,63251,63251,63259,63283,63361,63361,63371,63387,63387,63403,63403,63419,63419,63427,63427,63435,63444,63451,63467,63475,63491,63491,63499,63515,63515,63539,63555,63555,63563,63571,63579,63619,63643,63651,63651,63659,63675,63683,63699,63707,63715,63821,63831,63859,63867,63875,63883,63907,63915,63931,63940,63947,63955,63963,63971,63979,63987,63996,63996,64019,64028,64043,64059,64059,64067,64083,64107,64155,64172,64172,64179,64196,64219,64227,64278,64299,64299,64315,64363,64363,64387,64427,64435,64451,64461,64475,64531,64547,64548,64558,64558,64571,64571,64581,64587,64603,64603,64651,64691,64699,64710,64715,64731,64739,64740,64755,64755,64779,64779,64795,64811,64811,64819,64819,64843,64851,64851,64867,64867,64875,64883,64883,64899,64899,64899,64907,64915,64931,64931,64939,64955,64955,64965,64966,64971,64979,64987,64995,64995,65011,65019,65028,65028,65035,65051,65051,65059,65067,65075,65083,65099,65099,65123,65139,65139,65147,65171,65187,65203,65203,65219,65230,65251,65251,65275,65283,65291,65307,65323,65331,65339,65347,65355,65371,65387,65395,65403,65411,65419,65428,65435,65451,65467,65475,65491,65499,65515,65515,65523,65531,65555,65555,65571,65587,65587,65596,65603,65619,65635,65674,65683,65691,65691,65715,65723,65723,65748,65755,65763,65787,65787,65803,65803,65811,65828,65828,65844,65851,65867,65883,65883,65907,65907,65915,65931,65941,65955,65964,65971,65971,65987,65995,65995,66011,66011,66019,66019,66027,66035,66046,66046,66051,66052,66061,66061,66069,66075,66075,66083,66083,66091,66091,66099,66099,66115,66115,66123,66131,66139,66147,66155,66163,66171,66203,66213,66214,66219,66235,66244,66261,66267,66283,66291,66307,66330,66346,66347,66379,66379,66387,66395,66403,66411,66411,66420,66428,66428,66435,66444,66445,66451,66451,66460,66467,66467,66475,66475,66483,66491,66499,66499,66507,66515,66522,66531,66554,66571,66586,66587,66643,66674,66683,66795,66805,66805,66805,66827,66828,66840,66844,66851,66852,66867,66875,66875,66882,66883,66898,66907,66907,66915,66947,66971,66971,66995,67003,67003,67019,67034,67050,67059,67059,67066,67090,67098,67122,67138,67170,67178,67197,67211,67227,67228,67319,67329,67466,67466,67476,67492,67506,67515,67523,67523,67531,67578,67578,67705,67705,67715,67715,67715,67715,67715,67715,67725" d="m309.5,165c-0.61066,-1.60001 -1.21674,-2.42616 -2,-2.83333c-0.74384,-0.38667 -1.42258,-0.85219 -2.29999,-1.10951c-0.8642,-0.25345 -1.46341,-0.51424 -1.98535,-1.25583c-0.55011,-0.7816 -1.20248,-1.08829 -1.93616,-1.67999c-0.64612,-0.5211 -1.47934,-0.7668 -2.2785,-1.12134c-0.80081,-0.35529 -1.42712,-1.08931 -2.10001,-1.564c-0.7348,-0.51836 -1.80341,-0.71651 -2.23334,-1.436c-0.46036,-0.77045 -0.83698,-1.54668 -1.52383,-1.94284c-0.81458,-0.46983 -1.32236,-0.55754 -1.65182,-1.35266c-0.3197,-0.77155 -1.42191,-0.61589 -2.00568,-1.31517c-0.57019,-0.68303 -0.64703,-1.79405 -1.27197,-2.30533c-0.70822,-0.57938 -1.74811,-0.54892 -2.54669,-1.084c-0.67853,-0.45462 -1.17743,-1.2188 -1.86667,-1.64284c-0.82138,-0.50534 -1.73181,-0.42905 -2.32532,-0.93182c-0.6337,-0.53683 -1.49826,-0.88574 -2.27017,-1.37267c-0.70245,-0.44312 -1.24689,-1.01045 -2.18716,-1.054c-0.80856,-0.03745 -1.55902,-0.43077 -2.16467,-1.05135c-0.58957,-0.60408 -1.42001,-0.80006 -2.33133,-1.16882c-0.69965,-0.2831 -1.34619,-0.87259 -2.02133,-1.2785c-0.9837,-0.59142 -1.55881,-1.13281 -2.20001,-1.69867c-0.76566,-0.67569 -1.52649,-0.81033 -2.32083,-1.32216c-0.83044,-0.5351 -1.59479,-0.83501 -2.23633,-1.57901c-0.54858,-0.6362 -1.37637,-0.93898 -1.88565,-1.60466c-0.51834,-0.67752 -0.98828,-1.12413 -1.85718,-1.31633c-0.84329,-0.18654 -1.23584,-1.13814 -1.66666,-1.97917c-0.3403,-0.66433 -1.12958,-1.30379 -1.63333,-1.8c-0.69485,-0.68443 -1.57286,-0.99538 -2.40001,-1.48533c-0.68088,-0.40331 -1.16774,-1.14851 -1.90018,-1.8145c-0.63063,-0.57341 -1.56442,-0.78694 -2.24716,-0.95284c-0.92325,-0.22433 -1.53795,-0.74667 -2.46733,-1.34734c-0.61685,-0.39868 -1.11324,-1.35269 -1.88983,-1.5955c-0.82124,-0.25677 -1.37445,-0.73466 -2.15683,-0.97917c-0.94568,-0.29555 -1.70055,-0.66592 -2.33867,-1.224c-0.76868,-0.67226 -1.28783,-1.0883 -2.0215,-1.68c-0.64612,-0.52109 -1.59669,-0.56947 -2.3425,-1.14666c-0.62555,-0.48413 -1.23741,-0.9626 -2.136,-0.97467c-0.82101,-0.01103 -1.8342,-0.19739 -2.43867,-0.61066c-0.83931,-0.57384 -1.27785,-1.37383 -1.86133,-1.88934c-0.63788,-0.56356 -0.8808,-1.33913 -1.52083,-1.97916c-0.64003,-0.64005 -1.3007,-1.19418 -2.08984,-1.51017c-0.80679,-0.32305 -1.39842,-0.60928 -2.09383,-1.06333c-0.7579,-0.49487 -1.00111,-1.52118 -1.73151,-1.91133c-0.76276,-0.40743 -1.86188,0.12333 -2.51132,-0.38867c-0.61461,-0.48454 -1.56964,-0.53581 -2.05267,-1.16817c-0.52029,-0.68114 -0.92461,-1.57206 -1.60001,-2.04317c-0.73358,-0.5117 -1.72888,-0.39011 -2.38533,-0.86133c-0.61894,-0.44431 -1.42943,-0.2356 -2.368,-0.58533c-0.8221,-0.30634 -1.08553,-1.23154 -1.81334,-1.82267c-0.69667,-0.56585 -1.42923,-0.75011 -2.33333,-1.16666c-0.79199,-0.3649 -1.08482,-1.14995 -1.66667,-1.83334c-0.5676,-0.66665 -1.27086,-1.09892 -2.18517,-1.16216c-0.88892,-0.06149 -1.69272,-0.31554 -2.44817,-0.7205c-0.75597,-0.40524 -1.51036,-0.90202 -2.39999,-1.19866c-0.85748,-0.28592 -1.47073,-0.63132 -2.15717,-1.02817c-0.7325,-0.42348 -1.81462,0.0165 -2.64284,-0.078c-0.99258,-0.11326 -1.61005,-0.61234 -2.32117,-1.07916c-0.8011,-0.52589 -1.30499,-1.2805 -1.96417,-1.816c-0.67528,-0.54856 -1.48325,-0.92023 -2.31467,-1.07333c-0.88565,-0.16309 -1.6033,-0.55386 -2.5,-0.88917c-0.85063,-0.31808 -1.57953,-0.40247 -2.23332,-1.1215c-0.44135,-0.48537 -1.48911,-0.90598 -2.29201,-0.98933c-0.85413,-0.08868 -1.722,-0.01067 -2.62199,-0.01067c-0.91934,0 -1.75267,0 -2.73117,0c-0.82016,0 -1.77867,0 -2.67867,0c-0.74733,0 -1.7415,0 -2.50684,0c-1.08333,0 -2.00267,0 -2.672,0c-1.164,0 -1.95334,0 -2.67867,0c-0.96451,0 -1.896,0 -2.80667,0c-0.85333,0 -1.79333,0 -2.67867,0c-0.75717,0 -1.6732,-0.11854 -2.51601,0.08533c-0.888,0.21481 -1.68097,0.87195 -2.584,0.91467c-0.89899,0.04253 -1.66011,-0.06801 -2.54816,0.0045c-1.02792,0.08393 -1.50453,0.91045 -2.23851,0.99416c-0.93262,0.10637 -1.94673,-0.00983 -2.80882,0.00134c-0.8047,0.01042 -1.75299,0.39622 -2.18317,1.09983c-0.47565,0.778 -1.24345,1.09542 -1.82133,1.60467c-0.74046,0.6525 -1.47809,1.08057 -2.27917,1.2955c-0.86696,0.2326 -1.46635,0.87032 -2.32083,1.0045c-0.81883,0.12859 -1.52637,0.64804 -2.39999,1.04816c-0.7256,0.33232 -1.31078,1.16613 -2,1.59016c-0.8214,0.50535 -1.85197,0.06808 -2.68933,0.36784c-0.73676,0.26374 -1.23837,0.9827 -2.01067,1.41467c-0.81808,0.45758 -1.2777,1.14146 -2.036,1.53867c-0.76221,0.39926 -1.38553,0.70935 -2.17467,1.02534c-0.80679,0.32306 -1.24097,0.74159 -1.82533,1.4c-0.61523,0.6932 -1.41525,0.94746 -1.98933,1.58533c-0.52086,0.57873 -1.33859,0.57239 -2.13867,1.09733c-0.74025,0.48568 -0.76398,1.60636 -1.436,1.90717c-0.87893,0.39342 -0.81112,1.29013 -1.2215,2.12083c-0.34116,0.69058 -1.18785,1.2908 -1.7785,1.9c-0.57321,0.59121 -1.07445,1.41025 -1.57467,2.02533c-0.50411,0.61987 -0.4229,1.59454 -0.85066,2.37467c-0.4512,0.8229 -0.69817,1.63539 -1.27917,2.3c-0.55639,0.63644 -1.3884,1.22461 -1.8595,1.9c-0.5117,0.7336 -0.30954,1.79737 -0.87199,2.38534c-0.5574,0.58268 -1.11601,1.23236 -1.664,1.99316c-0.46136,0.64052 -1.32618,1.23825 -1.73334,2.0215c-0.38668,0.74385 -0.64214,1.65868 -1.14133,2.38934c-0.46217,0.67647 -1.37655,0.92793 -1.82533,1.49733c-0.68405,0.8679 -1.11661,1.41692 -1.764,2.128c-0.54778,0.60167 -0.43405,1.60495 -0.86133,2.38533c-0.45037,0.82257 -0.37293,1.78331 -0.74534,2.40001c-0.46878,0.77629 -1.49453,1.20088 -1.88,1.836c-0.51538,0.84918 -1.0554,1.28925 -1.616,2.19733c-0.43719,0.70819 -0.78772,1.54951 -1.25067,2.36667c-0.44447,0.78455 -1.20786,1.16928 -1.84,1.90001c-0.4538,0.52457 -1.1742,1.20251 -1.67467,1.7c-0.72271,0.71838 -0.78175,1.7272 -1.21467,2.37466c-0.58332,0.87239 -1.37685,1.26863 -2.18667,1.82533c-0.54762,0.37645 -1.39565,1.01204 -1.80949,1.75717c-0.45854,0.82562 -0.03088,1.64815 -0.36784,2.59616c-0.27586,0.77611 -1.50028,0.87685 -1.86784,1.74667c-0.35349,0.83653 -0.56764,1.44757 -1.03616,2.18533c-0.43913,0.69147 -0.08533,1.71466 -0.08533,2.51466c0,0.89999 0.3982,1.90257 -0.036,2.76399c-0.35227,0.69888 -0.94537,1.23753 -0.964,2.136c-0.01868,0.90053 -0.61813,1.61032 -0.91467,2.5c-0.28593,0.85782 -0.08533,1.68533 -0.08533,2.62534c0,0.69067 0.1673,1.7834 -0.02084,2.67467c-0.17888,0.84741 -0.86997,1.49025 -0.97783,2.3c-0.12661,0.95056 -0.38128,1.84171 -0.64867,2.54733c-0.33465,0.88313 -0.66154,1.70375 -1,2.40984c-0.40761,0.85034 -0.3519,1.75883 -0.35267,2.74283c-0.00064,0.82133 0.10409,1.72333 -0.284,2.61467c-0.32294,0.74174 -0.71318,1.58533 -0.716,2.40616c-0.0033,0.96184 -0.08376,1.75105 -0.57467,2.49384c-0.44555,0.67413 -0.42339,1.60495 -0.85066,2.38533c-0.45037,0.82257 -0.57467,1.70001 -0.57467,2.60001c0,0.8 0,1.7 0,2.60001c0,0.89999 0,1.709 0,2.73332c0,0.67201 0,1.66133 0,2.52367c0,0.94034 0,1.843 0,2.66383c0,0.96317 0,1.82651 0,2.7265c0,0.91934 0,1.75267 0,2.73117c0,0.82016 0,1.6575 0,2.67416c0,0.69467 0,1.71133 0,2.64734c0,0.90134 0,1.58533 0,2.52533c0,1.008 -0.01047,1.87022 0,2.77467c0.01042,0.90018 0.52719,1.60945 0.8785,2.5c0.26063,0.66069 0.17867,1.59999 0.6215,2.39999c0.44283,0.8 0.3502,1.71259 0.50017,2.59984c0.144,0.85202 0.97054,1.25604 0.99983,2.20016c0.02792,0.89957 0.24213,1.65378 0.64733,2.39999c0.41329,0.76112 0.44215,1.71738 0.92734,2.32533c0.49837,0.6245 0.42,1.57469 0.42533,2.47467c0.00533,0.90004 0.40888,1.62729 0.83334,2.5c0.32084,0.65967 0.73508,1.48848 1.26649,2.32133c0.4182,0.65543 0.80682,1.50192 0.8895,2.37599c0.10047,1.06215 0.01067,1.66518 0.01067,2.66267c0,0.67334 0,1.87067 0,2.61917l0,0.70349" id="svg_16" stroke-width="2" stroke="#000" fill="none"/>
  <path t="69394,69507,69517,69531,69547,69555,69555,69563,69571,69578,69587,69595,69611,69635,69643,69667,69675,69699,69707,69714,69763,69779,69787,69802,69827,69843,69843,69914,69914,69955,69971,69987,69995,70027,70104,70114,70131,70131,70146,70179,70203,70272,70348,70403,70419,70488,70488,70498,70531,70546,70627,70651,70667,70675,70707,70707,70730,70755,70755,70771,70802,70811,70828,70843,70843,70859,70875,71018,71043,71043,71067,71091,71106,71107,71123,71146,71162,71162,71171,71186,71187,71351,71371,71387,71387,71434,71435,71451,71466,71466,71490,71584,71611,71611,71618,71644,71666,71690,71803,71813,71813,71827,71827,71844,71962,71987,72002,72002,72003,72011,72012,72012,72019,72028,72034,72051,72051,72059,72074,72083,72083,72106,72182,72192,72204,72213,72219,72234,72243,72266,72275,72275,72282,72291,72298,72298,72307,72322,72323,72330,72330,72339,72346,72370,72371,72378,72378,72402,72403,72427,72427,72450,72475,72475,72482,72483,72498,72498,72514,72546,72546,72554,72571,72586,72586,72702,72712,72712,72723,72723,72723,72808" d="m343.5,276c0.5,2.47916 0.97141,3.29861 1,4.20001c0.02853,0.89954 0,1.79999 0,2.59998c0,0.90002 0.20023,1.6008 0.716,2.28403c0.46454,0.61533 0.284,1.616 0.284,2.51599c0,0.89999 -0.32224,1.8576 0.01068,2.78934c0.26331,0.73691 0.64557,1.3009 1.01016,2.08981c0.35632,0.77103 0.9769,1.22534 0.97916,2.12085c0.00226,0.89999 0,1.79999 0,2.7045c0,1.01682 0,1.6955 0,2.67398c0,0.82019 0,1.72153 0,2.62152c0,0.89999 0,1.79999 0,2.69998c0,0.90002 0,1.80002 0,2.70001c0,0.79999 0,1.70001 0,2.60001c0,0.89999 0,1.79999 0,2.69998c0,0.90002 0,1.80002 0,2.70001c0,0.79999 0,1.70001 0,2.60001c0,0.89999 0,1.79999 0,2.69998c0,0.90002 0,1.80002 0,2.70001c0,0.79999 0,1.75717 0,2.65268c0,0.86331 0,1.82648 0,2.64731c0,0.90002 0,1.80002 0,2.70001c0,0.79999 0,1.70001 0,2.60001c0,0.92084 0,1.884 0,2.57465c0,1.06818 0,1.92535 0,2.82535c0,0.79999 0,1.70001 0,2.63599c0,0.84802 0.15457,1.72479 -0.01068,2.72803c-0.14294,0.86786 -0.84125,1.40457 -0.98483,2.336c-0.14261,0.92505 -0.00449,1.78531 -0.00449,2.7045c0,0.99417 0,1.75949 0,2.71014c0,0.88535 0,1.68533 0,2.58536c0,0.93597 0.23199,1.83414 -0.05716,2.59015c-0.34317,0.89728 -0.99817,1.41284 -1.44284,2.20984c-0.4455,0.79849 -0.5,1.70132 -0.5,2.66666c0,0.83334 0,1.66669 0,2.52884c0,0.90451 0.185,1.82794 -0.02133,2.71518c-0.22736,0.9776 -0.84338,1.43228 -1.38766,1.99384c-0.78052,0.8053 -1.34308,1.41809 -1.93384,1.88116c-0.85132,0.6673 -1.95493,0.39529 -2.57315,0.99966c-0.62204,0.60809 -0.90244,1.38849 -1.68402,1.73999c-0.82013,0.36884 -1.4173,1.18301 -2.10001,1.61749c-0.73212,0.46594 -1.69998,0.35718 -2.59998,0.35718c-0.90002,0 -1.80441,-0.08868 -2.70001,0c-0.8457,0.08374 -1.29144,0.86484 -2.20001,1.00134c-0.80783,0.12137 -1.45258,0.79895 -2.29999,0.97781c-0.89127,0.18814 -1.82132,0.02084 -2.67465,0.02084c-0.94,0 -1.82535,-0.00504 -2.71069,0c-0.94003,0.00534 -1.65601,0.03079 -2.59381,0.5c-0.74475,0.37259 -1.6875,0.5 -2.52084,0.5c-0.97867,0 -1.75266,0 -2.65717,0c-0.74734,0 -1.74152,-0.00159 -2.50684,0c-1.07883,0.00226 -1.88757,0.3078 -2.59317,0.64734c-0.85486,0.41135 -1.6651,0.33911 -2.64151,0.63666c-0.78311,0.23865 -1.71289,0.67328 -2.60132,0.716c-0.79907,0.03842 -1.70001,0 -2.63599,0c-0.84802,0 -1.73682,-0.20331 -2.60684,0.009c-0.93338,0.22778 -1.25717,1.03265 -1.75717,1.991l-0.2955,0.59549l-0.34732,0.74734l-0.32117,0.99985" id="svg_17" stroke-width="2" stroke="#000" fill="none"/>
  <path t="73434,73617,73627,73637,73637,73644,73644,73658,73666,73675,73675,73682,73706,73707,73722,73739,73739,73746,73755,73762,73762,73778,73778,73787,73787,73787,73794,73803,73818,73819,73828,73828,73850,73850,73859,73866,73875,73890,73906,73906,73914,73923,73938,73939,73954,73962,73971,73978,73978,74002,74011,74011,74028,74050,74066,74075,74083,74083,74091,74098,74098,74107,74107,74123,74123,74130,74130,74131,74147,74147,74155,74162,74162,74187,74319,74355,74363,74379,74379,74379,74387,74395,74403,74412,74419,74429,74429,74429" d="m276.5,338c0,2.58932 -0.03745,3.53775 0.22134,4.32132c0.28964,0.87698 0.71646,1.65063 0.77731,2.47736c0.06616,0.8989 0.00134,1.83731 0.00134,2.68533c0,0.86331 -0.11435,1.93182 0.284,2.716c0.33484,0.65915 0.71375,1.55716 0.716,2.45267c0.00174,0.69464 0,1.71133 0,2.64731c0,0.90268 0,1.67068 0,2.70984c0,0.77551 0,1.82352 0,2.5285c0,0.80002 0,1.82568 0,2.76617c0,0.86215 0,1.6955 0,2.67416c0,0.77399 0,1.67401 0,2.53732c0,0.96317 -0.00067,1.884 0,2.784c0.00067,0.90002 0.19305,1.82407 0.7045,2.40002c0.65021,0.73227 1.18658,1.39838 1.2955,2.29999c0.0965,0.79871 0.74478,1.53772 0.96399,2.39999c0.22195,0.87314 0.22687,1.72604 0.74051,2.30002c0.65802,0.73532 1.49637,1.32211 1.93832,2c0.47849,0.73392 0.64713,1.69315 1.457,2.17865c0.72995,0.43759 1.33713,1.05133 2.08551,1.11066c1.05875,0.08392 1.98132,0.01068 2.64001,0.01068c1.008,0 1.79999,0 2.8363,0c0.80002,0 1.75952,0 2.55301,0c0.77551,0 1.81601,0 2.668,0c0.94269,0 1.95068,0 2.70667,0c0.91068,0 1.81067,0.00067 2.71066,0c0.90134,-0.00067 1.86984,-0.15872 2.52536,-0.42532c0.69412,-0.28232 1.95325,-0.49832 2.17017,-1.27917c0.23984,-0.86337 -0.42084,-1.6955 -0.91284,-2.49551l-0.41602,-0.79999l-0.54932,-0.41068l-0.80533,-0.47467" id="svg_18" stroke-width="2" stroke="#000" fill="none"/>
  <path t="74955,75034,75034,75044,75044,75060,75060,75060,75060,75067,75067,75067,75077,75077,75077,75083,75083,75098,75098,75098,75098,75107,75107,75114,75123,75130,75260" d="m253.5,330c2.78934,0.02133 3.59094,0.08014 4.25183,0.71432c0.64291,0.61691 1.27487,1.5058 1.76251,1.88116c0.78223,0.60211 1.37515,0.94559 2.28549,1.38318c0.87753,0.42181 1.50177,0.57803 2.53351,1.18799c0.73489,0.43448 1.24792,1.08218 2.14566,1.59067c0.67514,0.38242 1.78888,0.67703 2.379,0.95251c0.64639,0.30176 1.30975,0.59906 2.3775,1.26849c0.72052,0.45175 1.56448,0.96451 2.46317,1.02301l0.74866,0.35132l0.5285,0.64285" id="svg_19" stroke-width="2" stroke="#000" fill="none"/>
  <path t="75838,75934,75944,75955,75955,75963,75963,75963,75971,75971,75980,75980,75995,75995,75995,76002,76003,76026,76026,76044,76044,76058,76067,76075,76082,76090,76091,76098,76098,76114,76123,76138,76154,76170,76186,76187,76194,76203,76242,76314,76397,76397,76407,76427,76427,76435,76446,76474,76522,76538,76539,76578,76781,76791,76812,76812,76883,76899,76914,76923,76939,76946,76947,76954,76955,76955,76962,76962,76962,76970,76971,76978,76978,76978,76986,76987,76987,76994,76994,76994,77002,77002,77011,77011,77011,77034,77034,77058,77059,77170,77170,77170,77180,77196,77203,77213,77213" d="m251.5,332c0,2.58932 0,3.52084 0,4.32166c0,0.92502 0,1.845 0,2.62653c0,0.7905 0,1.909 0,2.66647c0,1.047 0,1.84702 0,2.80652c0,0.79349 0,1.569 0,2.61084c0,0.77332 0,1.73599 0,2.46799c0,1.16666 0,1.95834 0,2.89999c0,0.89999 0,1.80002 0,2.70001c0,0.89999 0,1.65717 0,2.55267c0,0.86331 0,1.82648 0,2.74731c0,0.89999 0,1.80002 0,2.70001c0,0.89999 0,1.69998 0,2.60001c0,0.89999 0,1.79999 0,2.71066c0,0.91064 0,1.76398 0,2.70398c0,0.88535 0,1.68533 0,2.58536c0,0.89999 0,1.79999 0,2.71066c0,0.91064 0,1.76398 0,2.70398c0,0.88535 -0.15431,1.80161 -1,1.88535c-0.79611,0.07883 -1.7,0 -2.60001,0c-0.89999,0 -1.79999,0 -2.7,0c-0.90266,0 -1.67067,0 -2.71432,0c-0.80701,0 -1.38834,0 -2.58434,0c-0.88051,0 -1.716,0 -2.71733,0c-0.68401,0 -1.85068,0 -2.63667,0c-0.82201,0 -1.88066,0 -2.59467,0c-0.90533,0 -1.87401,0 -2.67799,0c-0.82201,0 -1.85318,0 -2.75385,0c-1.02083,0 -1.82083,0 -2.62083,0c-1,0 -1.79999,0 -2.79866,0c-0.76534,0 -1.71725,0.04703 -2.60133,0c-0.80341,-0.04272 -1.564,-0.61066 -1.964,-1.39999l-0.045,-0.89999l-0.43367,-0.80051l-0.55733,-0.46201" id="svg_20" stroke-width="2" stroke="#000" fill="none"/>
  <path t="77758,77793,77793,77803,77803,77803,77803,77829,77829,77835,77835,77835,77851,77851,77859,77867,77867,77875,77875,77883,77891,77891,77898,77898,77907,77907,77914,77914,77923,77923,77930,77930,77946,77946,77955,77962,77971,77987,78002,78003,78018,78018,78027,78034,78050,78050,78059,78059,78067,78067,78074,78098,78106,78123,78123,78231,78244,78252,78252,78252,78259,78259,78259,78259,78259,78259,78259,78267,78267,78267,78267,78267,78267,78267" d="m216.5,327c0.35266,2.00534 0.60924,2.74026 0.83333,3.66666c0.22742,0.94012 0.48102,1.80722 0.74133,2.54401c0.34479,0.97589 0.35806,1.80292 0.59201,2.78934c0.14496,0.61121 0.56352,1.38144 0.748,2.39868c0.13721,0.75662 0.08533,1.84866 0.08533,2.76797c0,0.83334 0,1.66669 0,2.52884c0,0.94049 -0.06424,1.79617 0.05716,2.70901c0.10706,0.80502 0.41843,1.60165 0.94284,2.42883c0.5206,0.82117 0.94803,1.64932 0.98933,2.37732c0.05603,0.98764 0.01067,1.76849 0.01067,2.76801c0,0.77399 0,1.67401 0,2.53732c0,0.96317 0,1.884 0,2.784c0,0.90134 0,1.86667 0,2.70001c0,0.83334 0.18248,1.72153 -0.036,2.60001c-0.21706,0.87274 -0.86081,1.5582 -0.94318,2.42084c-0.09308,0.97495 -0.02083,1.76849 -0.02083,2.8125c0,0.75598 0.0529,1.70139 -0.35266,2.46664c-0.4483,0.84592 -0.68452,1.70087 -0.64734,2.5c0.04271,0.91766 0.87509,0.98303 1.3045,0.1105c0.26358,-0.53558 0.45926,-1.25064 0.86217,-2.57715c0.15741,-0.51825 0.48993,-1.65317 0.66933,-2.25601c0.18425,-0.61917 0.36633,-1.25058 0.76534,-2.51199c0.39053,-1.23459 0.59583,-1.82312 0.79733,-2.39334c0.38557,-1.09113 0.58051,-1.6095 0.94417,-2.60583l0.17183,-0.47815" id="svg_21" stroke-width="2" stroke="#000" fill="none"/>
  <path t="80787,80897,80897,80907,80907,80907,80907,80947,80947,80950,80950,80950,80950,80950,80950,80956,80956,80956,80956,80956,80978,80978,80978,80979,80979,80979,80979,80987,80987,80987,80995,80995,81003,81011,81011,81011,81027,81034,81034,81034,81044,81044,81050,81059,81059,81066,81066,81074,81082,81082,81090,81090,81098,81106,81114,81114,81114,81122,81123,81130,81130,81138,81138,81154,81154,81162,81162,81162,81171,81178,81186,81194,81202,81218,81218,81218,81228,81234,81234,81244,81258,81259,81282,81282,81290,81290,81298,81322,81322,81330,81330,81338,81354,81354,81362,81378,81378,81386,81386,81402,81402,81402,81410,81411,81418,81418,81427,81427,81434,81434,81444,81450,81450,81450,81459,81466,81474,81482,81482,81498,81498,81506,81522,81530,81530,81546,81554,81563,81563,81571,81571,81578,81586,81587,81594,81594,81610,81611,81627,81627,81634,81658,81666,81674,81674,81690,81698,81706,81707,81714,81730,81738,81746,81755,81755,81762,81762,81778,81786,81890,81890,81900,81900,81910,81910,81939,81946,81955,81963,81963,81971,81971,81978,81978" d="m130.5,225c1.65266,0.70984 2.34846,1.35071 2.9785,1.9785c0.61194,0.60974 1.32359,1.31941 1.8215,1.8215c0.63469,0.64001 1.2601,1.33789 1.96432,2.18567c0.29205,0.35158 0.9321,1.13774 1.27734,1.556c0.7128,0.86354 1.06395,1.30443 2.13666,2.515c0.33102,0.37357 0.964,1.06122 1.575,1.64999c0.55029,0.53029 1.58063,1.30142 2.22585,1.81416c0.63956,0.50822 1.23184,1.2359 1.62083,1.83717c0.61769,0.95477 0.94118,1.63847 1.59982,2.37767c0.54414,0.61067 1.40857,1.06738 2.0385,1.91699c0.47742,0.64392 0.63895,1.61426 0.92834,2.51401c0.21788,0.67743 0.61783,1.36131 1.23332,2.20799c0.58426,0.8037 0.94981,1.4967 1.48534,2.14134c0.54041,0.65051 1.56226,1.05705 2.00484,1.7885c0.46873,0.77464 0.58296,1.72481 1.10983,2.52882c0.44077,0.67262 0.81177,1.56374 1.33333,2.16667c0.54518,0.63025 1.38379,1.12006 1.74934,1.79999c0.44475,0.82721 0.79279,1.6748 1.36032,2.52118c0.36417,0.54309 1.1286,1.17807 1.95435,1.51083c0.86206,0.34741 1.42596,0.89676 1.68533,1.68533c0.29102,0.88477 0.79327,1.37759 1.57449,2.13535c0.5461,0.52969 1.34038,1.18427 2.12151,1.71133c0.64865,0.43768 1.04352,1.15439 1.23199,2.03598c0.20128,0.9415 0.57407,1.75003 1.15601,2.43335c0.6301,0.73987 1.21095,1.04214 1.63333,1.68399c0.57047,0.86685 1.40089,1.50479 1.84283,2.18268c0.47845,0.73392 0.70459,1.61768 1.24384,2.18533c0.74673,0.78607 1.2934,1.28394 1.94666,1.948c0.63026,0.64069 1.06055,1.48654 1.33334,2.33331c0.217,0.67355 0.58861,1.69092 0.85866,2.42267c0.31299,0.84808 0.84953,1.62344 1.05867,2.29602c0.29506,0.94894 0.95502,1.72629 1.51601,2.16531c0.75963,0.59448 1.10179,1.35742 1.5,2.14935c0.40181,0.79907 0.7,1.39999 1.2,2.39999c0.39999,0.79999 0.77858,1.61121 1.2,2.37915c0.47615,0.86771 0.99472,1.50516 1.7,2.22086c0.49632,0.50366 1.25317,1.17136 1.8,1.96664c0.43352,0.63049 0.47845,1.45657 1,2.29169c0.44141,0.70679 1.52446,0.92538 1.87883,1.86282c0.23802,0.62964 0.74199,1.37872 1.41583,1.72699c0.81169,0.41949 1.14508,1.34833 1.80518,2.05185c0.46681,0.49753 0.7762,1.46783 1.25732,2.19998c0.52194,0.79425 1.13548,1.23956 1.964,1.80002c0.63782,0.43146 1.35571,1.04105 1.8455,1.89999c0.38422,0.6738 0.86708,1.36557 1.43333,2.13867c0.5417,0.73959 1.31911,0.86548 2.21466,1.29733c0.6451,0.31107 1.02547,1.28586 1.62134,1.95334c0.61797,0.6922 1.6209,0.90036 2.26399,1.258c0.85312,0.47443 1.7,0.78867 2.3,1.35266c0.60001,0.564 1.53632,0.92703 2.3,1.35266c0.74173,0.41339 1.32314,1.04468 2.03333,1.48068c0.76836,0.47171 1.87576,0.0665 2.625,0.1875c0.89952,0.14526 1.40205,0.95056 2.36317,0.97916c0.69902,0.02078 1.6785,0 2.46783,0c1.04399,0 1.93459,0.1918 2.81067,-0.03601c0.8564,-0.22272 1.21185,-1.20444 1.56667,-1.96399c0.31979,-0.6846 0.748,-1.48532 0.82883,-2.40451l0.0045,-0.99417l0,-0.76532" id="svg_22" stroke-width="2" stroke="#000" fill="none"/>
  <path t="82757,82963,82973,82995,82995,83003,83012,83012,83036,83044,83059,83067,83091,83107,83107,83123,83147,83147,83163,83179,83187,83210,83210,83234,83234,83244,83244,83267,83283,83290,83298,83298,83314,83322,83330,83338,83346,83354,83362,83378,83378,83394,83410,83442,83499,83499,83531,83548,83554,83562,83570,83570,83627,83682,83743,83764,83771,83794,83802,83922,83922,83922,83954,83954,83962,84002,84018,84050,84106,84106,84122,84130,84138,84323,84333,84333,84355,84386,84603,84603,84613,84634,84645,84650,84666,84674,84807,84971,84981,84981,84981,84994,84994,84994,85002,85002,85012,85012,85018,85027,85154,85154,85154,85154,85164,85336,85346,85363,85363,85371,85474,85474,85474,85501,85506,85514,85530,85538,85546,85562,85586,85595,85611,85611,85618,85618,85627,85644,85645,85650,85650,85659,85666,85666,85682,85690,85714,85722,85946,85946,85946,85956,85979,85979,85979,85987,85997,86002,86002,86012" d="m133.5,228c0,1.8 0,2.636 0,3.48399c0,0.86334 -0.11435,1.93182 0.284,2.716c0.33485,0.65918 0.53003,1.52687 0.752,2.40001c0.21921,0.86227 0.9213,1.59697 0.964,2.5c0.04253,0.89899 0,1.7 0,2.536c0,1.01666 0,1.71133 0,2.728c0,0.936 0.04852,1.83731 -0.00017,2.73618c-0.04271,0.7886 -0.34663,1.5619 -0.70433,2.30432c-0.48163,0.99965 -0.79675,1.82141 -1.49417,2.42618c-0.6411,0.55592 -1.29745,1.02483 -2.00133,1.45467c-0.67538,0.41245 -1.24721,1.23436 -1.74733,2.01016c-0.45,0.69804 -1.00534,1.33221 -1.758,1.65182c-0.90759,0.38541 -1.56811,0.81793 -2.29467,1.21933c-0.77268,0.42688 -1.38483,1.07529 -1.87867,1.93317c-0.42454,0.73749 -1.15562,1.02493 -1.82133,1.60468c-0.63511,0.5531 -1.52857,0.96786 -2.17867,1.51685c-0.66431,0.56097 -1.43385,0.97107 -1.836,1.57999c-0.49975,0.75671 -1.2341,1.11615 -1.84933,1.80933c-0.58437,0.65842 -0.8826,1.44315 -1.46133,1.96402c-0.63787,0.5741 -0.64353,1.60327 -1.14534,2.13998c-0.60808,0.65036 -1.84495,0.11227 -2.628,0.37067c-0.77372,0.25531 -1.49998,0.88608 -2.40133,0.91467c-0.89955,0.02853 -1.8,0 -2.60001,0c-0.89999,0 -1.8002,-0.01913 -2.7,0c-0.97983,0.02084 -1.4612,0.70877 -1.49866,1.51733c-0.04356,0.94028 -0.69941,1.49341 -0.97601,2.34399c-0.20567,0.63245 -0.71053,1.5423 -0.96816,2.43866c-0.24877,0.86554 -0.54574,1.51199 -1.03184,2.13602c-0.57813,0.74216 -1.10938,1.23657 -1.85867,1.73065c-0.78711,0.51901 -1.46354,0.81143 -2.223,0.82886c-1.0219,0.02347 -1.70766,0.00449 -2.54233,0.00449c-1.00134,0 -1.80134,0 -2.8,0c-0.94417,0 -1.84417,0.00009 -2.80133,0c-0.90017,-0.00009 -1.69415,-0.06125 -2.45267,-0.35266c-0.87437,-0.33591 -1.75602,-0.36392 -2.64284,-0.65182c-0.76233,-0.2475 -0.7045,-1.31683 -0.7045,-2.17017c0,-0.94 0,-1.82535 0,-2.62534c0,-0.90002 -0.00957,-1.80008 0,-2.70001c0.01042,-0.97931 0.7748,-1.43661 0.9955,-2.2045c0.24738,-0.86069 0.00225,-1.7955 0.0045,-2.6955c0.00225,-0.89999 0.35783,-1.75955 0.64733,-2.35718c0.41173,-0.84995 0.29813,-1.83069 0.78867,-2.60684c0.52957,-0.83792 1.3197,-1.36298 1.50684,-2.28867c0.13803,-0.68283 -0.09004,-1.78101 0.3425,-2.54733c0.38898,-0.68915 1.38924,-1.21509 1.6575,-2.09998c0.26164,-0.86304 0.05717,-1.80002 0.05717,-2.70001c0,-0.75717 0,-1.66167 0,-2.46167c0,-0.9595 0,-1.75299 0,-2.5285c0,-1.1955 0,-2.10983 0,-3.00983l0,-0.8l-0.05717,-0.84283" id="svg_23" stroke-width="2" stroke="#000" fill="none"/>
  <path t="88057,88223,88233,88246,88246,88252,88260,88275,88275,88298,88298,88314,88314,88330,88346,88362,88386,88386,88402,88410,88410,88418,88427,88514,88524,88539,88539,88547,88619,88713,88723,88746,88746,88746,88754,88754,88762,88778,88778,88786,88794,88794,88810,88810,88818,88867,88907,88907,88923,88923,89052,89075,89075,89092,89093,89353,89363,89363,89381,89386,89395,89396" d="m145.5,241c0,1.8 0,2.636 0,3.48399c0,0.86334 0,1.88 0,2.71735c0,0.96533 0,1.79866 0,2.77733c0,0.774 0,1.674 0,2.53734c0,0.96317 0,1.88399 0,2.784c0,0.80016 0,1.58534 0,2.52534c0,1.008 0.35684,1.96323 -0.036,2.73865c-0.35371,0.69815 -0.96333,1.23734 -0.964,2.07199c-0.00081,1.01669 0,1.71133 0,2.72803c0,0.93597 -0.3239,2.11978 0.36617,2.57883c0.80667,0.53662 1.64253,0.01581 2.38316,0.09317c1.11699,0.11667 1.76877,0.71088 2.66133,0.92798c0.88557,0.21539 1.76401,0.03595 2.70401,0.03601c0.9855,0.00009 1.77948,0.06125 2.53799,0.35266c0.87437,0.33591 1.71082,0.62933 2.65184,0.64734c0.86201,0.01651 1.6955,0 2.67416,0c0.774,0 1.84552,0.42822 2.688,-0.16666c0.55356,-0.39087 0.33333,-1.48602 0.33333,-2.34933c0,-0.96317 0,-1.884 0,-2.784c0,-0.90002 0.00017,-1.80002 0.16667,-2.70001l0.444,-0.672" id="svg_24" stroke-width="2" stroke="#000" fill="none"/>
  <path t="95121,95160,95196,95204,95204,95218,95220,95229,95229,95235,95245,95245,95251,95251,95261,95262,95267,95276,95276,95283,95291,95291,95299,95299,95307,95307,95315,95323,95339,95339,95355,95355,95371,95371,95395,95395,95403,95411,95427,95435,95435,95444,95451,95451,95461,95467,95483,95484,95491,95491,95491,95499,95515,95531,95531,95531,95539,95547,95555,95571,95579,95587,95595,95603,95619,95628,95644,95644,95651,95667,95667,95676,95691,95707,95723,95731,95731,95747,95755,95755,95763,95763,95763,95771,95771,95779,95779,95779,95787,95787,95787,95787,95787,95795,95795,95795,95803,95803,95803,95811,95811,95811,95819,95835,95835,95851,95899,95899,95915,95931,95947,95955,95963,95971,95971,95987,95995,95995,95995,96011,96011,96019,96019,96019,96027,96035,96044,96067,96067,96107,96123,96155,96155,96163,96171,96171,96179,96187,96203,96463,96463,96473,96473" d="m271.5,326c0,1.79999 0,2.63599 0,3.48401c0,0.86331 -0.0993,1.88608 0.00134,2.716c0.11154,0.91977 0.73935,1.59125 1.02399,2.43597c0.28351,0.84137 0.63422,1.55249 0.85318,2.56384c0.16629,0.76801 0.12149,1.77866 0.12149,2.59885c0,0.83731 0,1.854 0,2.54865c0,1.02734 0,1.97418 0,2.67352c0,0.97916 0,1.76849 0,2.8125c0,0.86215 0,1.76666 0,2.6875c0,0.80066 0,1.68982 0,2.67899c0,0.77933 0,1.77884 0,2.55283c0,0.90002 0,1.76334 0,2.7265c0,0.92084 -0.05435,1.82254 0.00134,2.72217c0.04257,0.68784 0.28128,1.73776 0.99866,2.46533c0.54642,0.55417 0.75858,1.27292 1.22134,2.09067c0.4678,0.82666 0.73068,1.48163 1.00015,2.4425c0.1694,0.60403 0.59869,1.30209 1.16785,2.16418c0.54498,0.8255 0.76938,1.80582 1.03598,2.46133c0.28232,0.69412 0.72885,1.60043 1.22202,2.22733c0.51132,0.64996 -0.04071,1.76071 0.38867,2.51132c0.39508,0.69064 1.45575,0.62479 2.048,1.15201c0.60217,0.53607 1.51865,0.89197 2.21597,1.58398c0.50192,0.49808 1.17459,1.22644 1.90002,1.89868c0.58044,0.53787 1.49292,0.42175 2.36398,0.83734c0.73969,0.35291 1.33386,0.8042 2.26935,1.13065c0.68619,0.23944 1.48627,0.72812 2.33331,1c0.87305,0.28024 1.82806,0.70126 2.43335,0.77618c0.79565,0.09845 1.80133,0.05716 2.63599,0.05716c1.18567,0 1.72568,0 2.61069,0c1.31998,0 2.03732,0 2.77866,0c0.74933,0 1.49066,0 2.888,0c0.63998,0 1.52499,0 2.56534,0c0.69598,0 1.60532,0 2.604,0c0.79648,0 1.54797,0 2.65598,0c0.98267,0 1.836,0 2.776,0c0.88535,0 1.72385,0.20947 2.58536,-0.05716c0.86615,-0.26804 1.00662,-1.5148 1.73599,-1.90683c0.76184,-0.40948 1.85699,-0.24179 2.27866,-0.83734c0.51175,-0.72278 1.13513,-1.40668 1.80618,-1.69867c0.70886,-0.30847 1.64713,-0.8439 2.44714,-1.29999c0.77652,-0.44269 1.52359,-0.70718 2.26401,-0.91467c1.07465,-0.30112 1.63626,-1.00085 2.30966,-1.2645c0.87772,-0.34366 1.80566,-0.02084 2.70117,-0.02084c0.95718,0 1.85733,0 2.64252,0c0.94,0 1.94806,0.00864 2.70398,0c0.91086,-0.01044 1.61395,-0.54318 2.51068,-0.87851c0.85065,-0.31808 1.65717,-0.12149 2.55267,-0.12149l0.86331,0" id="svg_25" stroke-width="20" stroke="#fff" fill="none"/>
  <path t="99099,99242,99252,99252,99267,99267,99267,99267,99283,99284,99284,99292,99292,99292,99299,99299,99312,99312,99323,99323,99331,99354,99378,99394,99410,99410,99410,99418,99418,99434,99450,99547,99555,99555,99555,99563,99564,99564,99576,99577,99578,99578,99586,99586,99594,99594,99602,99602,99720,99730,99845,99855,99942,99942,99963,99963,99971,99971,100227,100237,100251,100259,100274,100291,100291,100306,100322,100330,100354,100370,100378,100386,100394,100402,100418,100426,100434,100466,100466,100482,100498,100506,100514,100538,100554,100562,100578,100602,100610,100610,100618,100634,100658,100666,100666,100683,100690,100714,100714,100722,100722,100730,100746,100843,100853,100877,100891,100898,100906,100963,100995,101003,101187,101187,101214,101219,101234,101243,101259,101276,101299,101314,101314,101322,101338,101362,101362,101403,101419,101419,101450,101450,101559,101610,101642,101682,101876,101886,101886" d="m260.5,327c1.82535,0 2.83334,0 3.69733,0c0.80267,0 1.66968,0 2.34433,0c1.077,0 2.13669,0 2.79669,0c0.91498,0 1.99576,-0.02884 2.92566,0.01068c0.63263,0.02689 1.63199,0.28049 2.39999,0.564c0.94876,0.35022 1.72891,0.48566 2.66135,0.85065c0.69775,0.27313 1.65363,0.56424 2.57465,0.57468c0.89993,0.01019 1.80133,0 2.76666,0c0.66934,0 1.43466,0 2.42883,0c0.91919,0 1.88367,0 2.8045,0c0.90451,0 1.77225,0.06537 2.64166,-0.04166c0.65286,-0.08035 1.64673,-0.51599 2.4375,-0.95834c0.51483,-0.28799 1.55777,-0.81036 2.4035,-1.08267c0.78073,-0.2514 1.50732,-0.62576 2.51602,-0.83331c0.75723,-0.15579 1.67041,-0.46478 2.48532,-0.80002c0.90283,-0.3714 1.651,-0.32651 2.59515,-0.784c0.83932,-0.40671 1.72086,-0.5 2.62085,-0.5c0.89999,0 1.65717,0 2.55716,0c0.74734,0 1.74152,-0.00235 2.68567,0c0.89551,0.00226 1.63916,0.43546 1.65717,1.29999c0.01874,0.89984 0,1.80002 0,2.70001c0,0.79999 -0.36316,1.79691 0.03601,2.564c0.39514,0.7594 0.96332,1.23734 0.96399,2.13602c0.00067,0.89999 0.16281,1.73804 0.64734,2.35266c0.51199,0.64944 0.16425,1.67502 0.38867,2.54733c0.22287,0.86621 1.17233,1.4173 1.60681,2.10001c0.46594,0.73212 0.11429,1.7348 0.36166,2.59549c0.2207,0.76788 0.98508,1.22519 0.99551,2.2045c0.00958,0.89993 -0.09088,1.80472 0.00134,2.70001c0.08368,0.81259 0.46729,1.60278 1.02399,2.36398c0.48853,0.66797 0.95667,1.29684 0.97467,2.26935c0.01401,0.75586 -0.02579,1.6875 0.35266,2.47116c0.42926,0.88889 0.6369,1.69534 0.64734,2.67398c0.00763,0.71698 -0.00272,1.64154 0.42532,2.42151c0.45096,0.82175 1.18234,1.33917 1.53867,2.03601c0.43457,0.84982 0.61075,1.27185 1.42535,1.57468c0.73349,0.27267 1.05988,1.22812 1.69467,1.70532c0.76654,0.57626 1.71597,0.284 2.616,0.284c0.89999,0 1.79999,0 2.69998,0c0.89999,0 1.80002,0 2.70001,0c0.89999,0 1.69998,0 2.60001,0c0.82083,0 1.784,0 2.64731,0c0.90002,0 1.81934,0 2.65268,0c0.97849,0 1.79868,0 2.70001,0c0.89999,0 1.79999,-0.02084 2.59549,-0.35718l0.58301,-0.74283l0.12149,-0.89999l0,-0.75717" id="svg_26" stroke-width="2" stroke="#000" fill="none"/>
 </g>
 <g display="none">
  <title>muse_image</title>
  <image xlink:href="http://static.flickr.com/29/42556512_d0c52e6777.jpg" id="muse" height="426" width="640" y="27" x="0"/>
 </g>
 <g display="none">
  <title>bbox</title>
  <rect stroke="#f00" fill="none" stroke-width="3" height="424.72072" width="515.84" y="28.27928" x="2.56" id="bbox"/>
 </g>
</svg>
