<svg width="640" height="480" xmlns="http://www.w3.org/2000/svg" xmlns:svg="http://www.w3.org/2000/svg" xmlns:xlink="http://www.w3.org/1999/xlink">
 <!-- Sketchy ANNOTATION
  ImageNet ID: n02395406_27225
  URL: http://farm1.static.flickr.com/21/29853305_47466ada56.jpg
  Image Width: 500
  Image Height: 333
  BBox X: 36
  BBox Y: 78
  BBox Width: 314
  BBox Height: 247
  Exposure: 2000ms
  Synset Label: pig
  Synset ID: n02395406
  Worker Tag: boy and pig
  Sanity Check: 
   Saved
  Comment: 
   {}
  Worker ID: AXD2DZ7U6CK35
  Assignment ID: 3E7TUJ2EGCMH7ZJV44ANXGXY8ADD9Z
  HIT ID: 3IZPORCT1F920VMPUFOXQ2H51IORHU
  Work Time: 57s
  Worker Score: 0.7464
 END ANNOTATION -->
 <g display="inline">
  <title>Layer 1</title>
  <path t="0,46,46,54,64,80,80,98,98,114,114,114,114,130,130,130,130,147,147,148,148,164,164,180,180,180,180,197,197,197,197,214,214,214,214,230,230,230,247,247,247,248,265,265,265,265,265,281,281,281,281,297,298,298,315,315,315,330,330,330,331,347,347,347,347,364,364,364,380,380,380,397,397,398,414,415,415,430,430,431,431,447,447,464,464,464,480,480,481,497,497,498,514,514,530,530,547,564,564,743,759,775,783,799,800,816,817,831,831,848,848,848,865,865,865,881,881,881,898,898,898,915,915,915,916,931,931,931,931,948,948,948,965,965,965,981,981,981,998,998,998,1015,1015,1015,1031,1031,1031,1031,1048,1048,1048,1065,1065,1065,1065,1081,1081,1081,1098,1098,1098,1115,1115,1115,1131,1131,1148,1148,1165,1181,1198,1198,1215,1231,1231,1231,1248,1265,1265,1281,1281,1298,1299,1315,1315,1331,1358,1359,1390,1410,1418,1434,1447,1447,1465,1465,1480,1497,1498,1515,1530,1531,1547,1564,1580,1581,1597,1598,1614,1615,1630,1631,1631,1647,1648,1648,1665,1665,1665,1681,1681,1681,1681,1698,1698,1698,1698,1698,1715,1715,1715,1715,1731,1731,1731,1748,1765,1765,1781,1781,1781,1798,1798,1815,1831,1831,1831,1847,1847,1848,1864,1880,1881,1881,1898,1898,1898,1914,1915,1915,1930,1931,1931,1948,1948,1978,1986" d="m126,207c-1,-0.16667 -1.56042,-0.65363 -2.3,-1.2955c-0.66669,-0.5786 -1.40759,-0.97571 -1.95467,-1.50583c-0.68623,-0.66495 -1.57133,-0.77972 -2.57867,-1.36534c-0.50034,-0.29088 -1.1587,-0.87782 -1.936,-1.34933c-0.84506,-0.51262 -1.53667,-0.73866 -2.2515,-0.96317c-0.7273,-0.22842 -2.15981,-0.61339 -2.8175,-0.82083c-0.91833,-0.28964 -1.48212,-0.4826 -2.47767,-0.89999c-0.91616,-0.38411 -1.84643,-0.81148 -2.64567,-1.10001c-0.57706,-0.20833 -1.52274,-0.5079 -2.55966,-0.8c-0.72979,-0.20558 -1.47948,-0.39699 -2.226,-0.59999c-1.0872,-0.29564 -1.76919,-0.49411 -2.73183,-0.8c-0.61755,-0.19623 -1.81841,-0.60745 -2.42084,-0.7955c-0.89653,-0.27986 -2.09822,-0.55205 -2.70267,-0.6205c-0.93676,-0.10609 -1.61404,-0.11536 -2.73067,-0.25067c-0.83675,-0.10139 -1.71712,-0.25996 -2.616,-0.40799c-0.44523,-0.07332 -1.71574,-0.27533 -2.48,-0.34001c-1.02734,-0.08694 -1.66166,-0.08307 -2.8705,-0.08533c-0.8895,-0.00166 -1.4642,0.00969 -2.779,-0.00017c-0.70656,-0.00529 -1.4361,-0.02499 -2.564,-0.22133c-0.67057,-0.11673 -1.38028,-0.29051 -2.109,-0.483c-1.43134,-0.37808 -2.08829,-0.60066 -2.72733,-0.77467c-0.91583,-0.24939 -2.11927,-0.43915 -2.71017,-0.4955c-0.85319,-0.08136 -1.89104,-0.24106 -2.81067,-0.52533c-0.6853,-0.21184 -1.68512,-0.41812 -2.52084,-0.5c-0.88029,-0.08624 -1.78136,-0.21188 -2.67916,-0.42534c-0.60153,-0.14301 -1.79714,-0.43469 -2.6955,-0.5175c-0.58233,-0.05368 -1.41959,-0.02885 -2.64734,-0.06166c-0.64703,-0.01729 -1.65553,-0.2222 -2.478,-0.4955c-0.66307,-0.22034 -1.66429,-0.41812 -2.5,-0.5c-0.88028,-0.08624 -2.07925,-0.27821 -2.6685,-0.42534c-0.85563,-0.21362 -1.88536,-0.49289 -2.769,-0.55383c-0.87317,-0.06021 -1.74871,0.09441 -2.67767,-0.05682c-0.87204,-0.14197 -1.48077,-0.82585 -2.47733,-0.87733c-0.82449,-0.0426 -0.88667,1.11333 -0.88667,2.01334c0,0.89999 -0.0049,1.6804 0.35717,2.55266c0.29776,0.71732 1.01942,1.55624 1.28567,2.15717c0.40412,0.91211 0.31999,1.71581 0.44117,2.50751c0.15433,1.00833 0.53635,1.94048 0.71733,2.452c0.42136,1.19089 0.59309,1.88295 0.79866,2.58c0.38945,1.3205 0.59353,1.88396 0.9,2.62984c0.48969,1.19179 0.71088,1.70375 1,2.5625c0.20786,0.6174 0.59518,1.98091 0.8045,2.7065c0.21131,0.73247 0.38609,1.47267 0.86217,2.4185c0.42817,0.85066 1.04159,1.48615 1.66666,2.33333c0.4335,0.58754 0.77984,1.22583 1.16667,2.16667c0.31992,0.77811 0.57955,1.61595 1,2.66666c0.28619,0.71518 0.59786,1.35706 1.10017,2.367c0.30919,0.62166 0.657,1.314 1.22117,2.44234c0.33133,0.66266 0.67867,1.35733 1.026,2.052c0.486,0.972 0.90964,1.78891 1.242,2.51999c0.42908,0.94385 0.69542,1.74625 1.04667,2.56001c0.23619,0.54718 0.83614,1.55185 1.38483,2.22533c0.3748,0.46004 1.18443,1.41714 1.57467,1.94817c0.57659,0.78462 1.23455,1.72108 1.64733,2.242c0.55148,0.69597 1.03382,1.47647 1.45717,2.15717c0.56927,0.91533 1.02303,1.54073 1.8,2.13184c0.73769,0.56123 1.62408,0.71385 2.2,1.22533c0.74349,0.66029 1.44917,1.32675 2.12534,1.68483c0.67468,0.3573 1.70025,0.53392 2.65867,0.89601c0.71418,0.26982 1.44489,0.89317 2.14133,1.27866c0.81302,0.45001 1.60696,0.37325 2.57433,0.6575c0.7825,0.22993 1.48249,0.91656 1.967,1.7785c0.35554,0.63251 0.82291,1.49982 0.83334,2.39999c0.01041,0.89995 0,1.8 0,2.70018c0,0.78516 0.08873,1.7433 -0.08533,2.41583c-0.26755,1.03374 -0.8436,1.80028 -0.904,2.65865c-0.06599,0.93774 -0.01067,1.82535 -0.01067,2.62534c0,0.90002 -0.06102,1.74716 0.28533,2.68402c0.26473,0.71606 0.7835,1.52176 1.41467,2.21149c0.58143,0.63538 1.25982,1.20459 2.06934,1.78851c0.48565,0.35031 1.27541,0.87491 2.064,1.34933c0.92256,0.55502 1.58403,0.88956 2.36683,1.48798c0.62896,0.4808 1.22328,1.08078 2.2215,1.6575c0.52393,0.3027 1.43414,0.66422 2.06499,0.99051c1.05076,0.54346 1.76811,1.03741 2.13867,1.29199c0.75365,0.51776 1.48576,1.0629 2.553,1.81702c0.65701,0.46426 1.27467,0.88828 1.85999,1.26001c1.03082,0.65466 1.68871,1.07672 2.47501,1.375c0.96066,0.36441 1.97349,0.57162 2.52833,0.8075c1.12532,0.47839 1.90266,0.78616 2.4375,0.95831c1.17959,0.3797 1.97898,0.51041 2.82983,0.52084c1.02426,0.01254 1.70283,0.0278 2.47633,-0.03601c1.05254,-0.08685 1.95738,-0.41876 2.728,-0.67999c0.8614,-0.29202 1.82409,-0.43671 2.4965,-0.64117c0.78058,-0.23737 1.82943,-0.62918 2.533,-0.94281c0.86024,-0.38348 1.66331,-0.7887 2.478,-1.22086c0.66954,-0.35516 1.66052,-0.96393 2.19383,-1.29382c0.77361,-0.47855 1.64233,-0.9425 2.47633,-1.23349l0.78816,-0.47269l0.46367,-0.77914" id="svg_1" stroke-width="2" stroke="#000" fill="none"/>
  <path t="2493,2507,2507,2507,2507,2507,2507,2507,2507,2507,2517,2517,2517,2517,2517,2517,2517,2517,2518,2533,2533,2550,2550,2550,2550,2565,2566,2566,2566,2566,2581,2581,2581,2581,2598,2598,2598,2598,2615,2615,2634,2634,2662,2670" d="m119,222c5.5,9.5 6.16068,10.56451 6.84666,11.64267c0.69067,1.08553 1.38567,2.1593 2.07,3.2115c0.66238,1.01845 1.298,1.98679 1.89001,2.8965c1.02896,1.58116 1.44598,2.23225 1.79466,2.79599c0.29684,0.47993 0.5415,0.89032 0.73199,1.24501c0.16069,0.29919 0.29335,0.55768 0.37201,0.795c0.26482,0.79906 0.22385,1.46318 0.62799,2.58c0.1945,0.53748 0.70935,1.3744 1.07567,1.995c0.59265,1.00404 1.00281,1.71507 1.36967,2.46367c0.36383,0.7424 0.70575,1.4752 0.9785,2.55333c0.16721,0.66095 0.24762,1.64777 0.3255,2.30534c0.12308,1.03912 0.34337,2.13049 0.49199,2.85464c0.14201,0.69189 0.36493,1.88892 0.40451,2.61969c0.05635,1.04034 0.02083,1.83099 0.02083,2.875l0,0.82349" id="svg_2" stroke-width="2" stroke="#000" fill="none"/>
  <path t="3332,3355,3355,3355,3359,3359,3375,3383,3400,3417,3433,3433,3448,3448,3448,3465,3465,3481,3481,3481,3498,3498,3498,3498,3498,3514,3515,3515,3531,3531,3531,3548,3548,3548,3565,3565,3565,3565,3581,3581,3598,3598,3598,3615,3615,3615,3631,3631,3631,3648,3648,3648,3648,3665,3665,3665,3682,3682,3682,3700,3700,3718,3718,3731,3731,3748,3802,3810,3818,3830,3847,3847,3864,3865,3865,3865,3880,3881,3881,3881,3897,3897,3897,3898,3914,3915,3915,3915,3930,3930,3931,3931,3931,3931,3947,3947,3947,3948,3948,3965,3965,3965,3965,3981,3981,3981,3981,3981,3998,3998,3998,3998,4014,4015,4015,4015,4030,4030,4031,4031,4031,4031,4031,4047,4048,4048,4048,4048,4064,4065,4065,4081,4081,4081,4097,4098,4098,4098,4114,4115,4115,4130,4131,4154,4154,4194,4198,4215,4231,4247,4264,4265,4280,4351,4359,4488" d="m132,208c2.39867,-3.31334 2.97447,-3.96289 3.51466,-4.51334c0.72194,-0.73566 1.37222,-1.20938 1.96451,-1.98666c0.55943,-0.73418 1.10333,-1.35071 1.52083,-2.04167c0.51004,-0.84413 0.60712,-1.69652 1.16667,-2.45833c0.45502,-0.61949 1.00531,-1.16666 1.812,-1.97867c0.51961,-0.52304 1.188,-1.188 1.868,-1.868c0.40001,-0.40001 1.32001,-1.32001 1.83734,-1.83734c0.54132,-0.54132 1.09067,-1.09067 1.63199,-1.63199c0.99867,-0.99867 1.44801,-1.44801 2.0795,-2.0795c0.8045,-0.8045 1.20451,-1.20451 1.8045,-1.8045c0.8,-0.8 1.37436,-1.43091 2.036,-1.964c0.89267,-0.71924 1.43968,-0.96991 2.26401,-1.31517c0.80827,-0.33855 1.81946,-0.71043 2.47917,-1.02083c1.02855,-0.48392 1.62085,-0.79997 2.42082,-1.2c0.80019,-0.40015 1.62782,-0.80836 2.28534,-1.18533c1.01111,-0.5797 1.54372,-0.95169 2.12534,-1.28934c1.17577,-0.68257 1.78244,-0.95752 2.68933,-1.3045c0.5957,-0.22792 1.79814,-0.6259 2.39549,-0.81633c0.86612,-0.27611 1.93623,-0.5482 2.64284,-0.65182c0.79837,-0.11708 1.6937,-0.44354 2.431,-0.854c0.77942,-0.4339 1.5126,-0.74402 2.69734,-1.032c0.7822,-0.19014 1.66187,-0.12726 2.33333,-0.66667c0.60699,-0.48761 1.05215,-1.20479 1.5,-2c0.4558,-0.80931 0.72322,-1.49525 1.35466,-2.27066c0.42232,-0.5186 0.95003,-1.04298 1.464,-1.632c0.77307,-0.88596 1.45074,-1.79353 1.87067,-2.39734c0.4147,-0.5963 1.01068,-1.5 1.41068,-2.09999c0.60001,-0.89999 0.99857,-1.50096 1.60033,-2.40034c0.40768,-0.60931 0.83487,-1.24593 1.314,-1.914c0.80815,-1.12685 1.12236,-1.53297 1.7955,-2.38649c0.34834,-0.44168 1.06778,-1.31931 1.442,-1.73666c1.05997,-1.18216 1.41682,-1.50903 2.0865,-2.0955c0.61133,-0.53539 1.24892,-0.96109 2.24033,-1.98849c0.49423,-0.51218 0.91742,-1.1024 1.37401,-1.68301c0.70796,-0.90028 1.22914,-1.49748 1.77266,-2.09549c0.54715,-0.60201 1.10718,-1.18626 1.85333,-2.09984c0.47945,-0.58702 1.12682,-1.48134 1.60535,-2.01483c0.70935,-0.79083 1.2802,-1.24411 1.87849,-1.72701c0.65417,-0.528 1.77315,-1.45573 2.18016,-1.82233c0.4278,-0.3853 1.308,-1.21201 1.75734,-1.636c0.44934,-0.424 1.32036,-1.26112 2.16667,-2c0.75117,-0.65581 1.44923,-1.19388 2.07599,-1.668c0.56804,-0.4297 1.57855,-1.22476 2.02135,-1.632c0.64113,-0.58966 1.4296,-1.40675 2.04666,-2c0.4209,-0.40465 1.35324,-1.20358 1.87199,-1.6c0.79234,-0.6055 1.36591,-0.94102 2.1745,-1.79984c0.52177,-0.55418 0.96318,-1.38696 1.7955,-2.043c0.65118,-0.51326 1.39973,-1.0509 2.146,-1.47183c0.79202,-0.44675 1.30002,-0.97403 2.00267,-1.36933c0.81696,-0.4596 1.66272,-0.75985 2.39867,-1.20133c0.67862,-0.4071 1.3,-1.19383 2.10001,-1.6575l0.89867,-0.0585l0.74417,-0.35133" id="svg_3" stroke-width="2" stroke="#000" fill="none"/>
  <path t="4924,4931,4931,4931,4932,4932,4932,4932,4950,4950,4950,4950,4950,4967,4967,4967,4967,4967,4983,4983,4983,4983,4983,4998,4998,4998,4998,5015,5015,5015,5031,5031,5031,5031,5048,5048,5048,5048,5065,5065,5065,5065,5081,5081,5081,5098,5098,5098,5098,5115,5115,5131,5131,5131,5148,5148,5165,5165,5181,5198,5198,5198,5215,5215,5231,5231,5248,5248,5265,5265,5265,5281,5281,5298,5298,5298,5315,5315,5315,5331,5331,5348,5348,5365,5365,5365,5365,5381,5381,5398,5415,5415,5415,5431,5431,5462,5507,5515" d="m232,129c-3.66667,10.16667 -3.95695,10.99202 -4.22934,11.76933c-0.25629,0.73135 -0.72626,2.065 -0.94933,2.66933c-0.20978,0.5683 -0.80905,2.06725 -1.22,2.90668c-0.19116,0.39049 -0.61282,1.09671 -1.116,2.136c-0.49638,1.02527 -0.73779,1.77869 -0.98534,2.56033c-0.12799,0.40416 -0.36899,1.25002 -0.82117,2.5795c-0.31653,0.93063 -0.50317,1.39015 -0.8175,2.31749c-0.3013,0.88892 -0.5648,1.72128 -0.7515,2.847c-0.11101,0.66939 -0.10284,1.31454 -0.33133,2.51434c-0.17308,0.90887 -0.38437,1.50157 -0.7785,2.7c-0.19759,0.6008 -0.50005,1.49998 -0.7,2.10001c-0.39993,1.20013 -0.62012,1.79774 -0.864,2.73599c-0.16769,0.64514 -0.33853,1.68373 -0.40001,2.78934c-0.04163,0.7486 -0.03532,1.49066 -0.036,2.55316c-0.00061,0.9855 0,1.61084 0,2.8215c0,0.89549 0,1.47917 0,2.31467c0,1.23267 0,1.91066 0,3.10667c0,0.80399 0,1.35333 0,2.657c0,0.67499 -0.15155,1.77774 0.036,2.511c0.22636,0.88506 0.94942,1.58665 1.37466,2.23599c0.45915,0.7011 1.24019,1.42026 1.76401,1.76401c0.9381,0.61562 1.55511,1.14595 2.31067,1.61066c0.70555,0.43394 1.71466,0.89999 2.31467,1.2c0.8,0.39999 1.59999,0.8 2.39999,1.20001c0.8,0.39999 1.61909,0.77953 2.2,1.15717c1.03557,0.6732 1.58295,1.23895 2.11467,1.75883c0.73793,0.72148 1.35423,1.30667 2.147,1.7885c0.5746,0.34923 1.51062,0.85324 2.2865,1.34816c0.53494,0.34123 1.34186,0.79169 2.233,1.59016c0.57242,0.51291 0.81334,1.4369 1.38817,2.24251c0.40683,0.57016 1.00967,1.07407 1.66899,2.11017c0.34892,0.54832 0.67635,1.51917 0.76167,2.50417l0,0.35866" id="svg_4" stroke-width="2" stroke="#000" fill="none"/>
  <path t="6408,6491,6491,6491,6499,6518,6534,6534,6534,6548,6548,6548,6565,6565,6565,6581,6581,6581,6598,6598,6598,6598,6615,6615,6615,6615,6615,6631,6631,6631,6631,6631,6648,6648,6648,6648,6665,6665,6665,6665,6681,6681,6681,6681,6681,6698,6698,6698,6698,6714,6714,6714,6715,6715,6715,6731,6731,6731,6731,6748,6748,6748,6748,6748,6764,6764,6764,6764,6781,6781,6781,6781,6798,6798,6798,6798,6814,6814,6814,6814,6831,6831,6831,6831,6848,6848,6848,6848,6864,6864,6864,6864,6881,6881,6898,6898,6898,6915,6915,6915,6915,6931,6931,6931,6948,6948,6964,6964,6964,6981,6982,6982,6982,6998,6998,6998,6998,7014,7014,7014,7014,7014,7031,7031,7031,7048,7048,7048,7064,7064,7086,7086" d="m236,115c6.371,-7.24934 6.87469,-7.98858 7.536,-8.48933c0.77437,-0.58637 1.40038,0.05269 1.75067,0.976c0.21666,0.57106 0.58795,1.20732 1.19733,2.19733c0.50607,0.8222 0.88251,1.35184 1.49451,2.3945c0.3981,0.67825 0.71188,1.31959 1.22284,2.32284c0.31633,0.62112 0.67758,1.28786 1.284,2.28667c0.34702,0.57156 0.74022,1.18643 1.116,1.884c0.62367,1.15771 1.00058,2.03699 1.19867,2.48933c0.4039,0.9223 0.5892,1.39523 1.2,2.772c0.39177,0.88309 0.59605,1.30474 0.97917,2.125c0.3642,0.77975 0.86653,1.87003 1.13548,2.55767c0.38223,0.97725 0.59003,1.63394 0.88535,2.65067c0.20782,0.71548 0.37659,1.46976 0.75717,2.58066c0.37616,1.09799 0.72205,1.77118 1.06818,2.42734c0.34457,0.6532 0.72784,1.29353 1.15332,2.347c0.29483,0.72998 0.51791,1.52106 0.77399,2.34c0.40857,1.30672 0.55728,1.76378 0.90451,2.68651c0.35202,0.93547 0.53522,1.39873 0.94415,2.2825c0.57312,1.23856 0.99768,1.95755 1.37784,2.6485c0.36707,0.66714 0.87195,1.68079 1.1355,2.40483c0.26755,0.73497 0.47427,1.49077 0.68402,2.23199c0.30075,1.06284 0.60245,2.05832 0.80133,2.70934c0.20111,0.65831 0.60098,2.05841 0.79999,2.8c0.20099,0.74907 0.39178,1.49301 0.70001,2.55333c0.19482,0.6702 0.50436,1.64536 0.69998,2.30533c0.30688,1.03532 0.5,1.76868 0.70001,2.51601c0.20001,0.74733 0.59598,2.17972 0.79999,2.84283c0.19614,0.63754 0.50134,1.55539 0.80002,2.45734c0.30136,0.91005 0.50647,1.53386 0.69998,2.18517c0.41394,1.39326 0.59573,2.13052 0.80002,2.85333c0.19589,0.69316 0.61313,1.88527 0.87915,2.61966c0.37473,1.03447 0.48822,1.64957 0.51636,2.556c0.03503,1.12781 0.00449,1.791 0.00449,2.48567c0,1.032 0.03983,1.95863 -0.02084,2.95833c-0.03891,0.64107 -0.33524,1.64664 -0.68365,2.49884c-0.39441,0.96469 -0.56686,1.50966 -0.93149,2.3175c-0.48718,1.07936 -1.02118,1.77718 -1.38486,2.24615c-0.58044,0.74852 -1.19083,1.61537 -1.57916,2.2935c-0.41251,0.72032 -0.80179,1.49376 -1.39999,2.68567c-0.20044,0.39937 -0.59549,1.19099 -0.97916,1.95833c-0.36368,0.72734 -0.84143,1.71492 -1.26819,2.52734c-0.3671,0.69882 -0.89566,1.53467 -1.578,2.30367c-0.50494,0.56908 -1.15314,1.18933 -1.76398,1.836l-0.60934,0.856l-0.36533,0.62132" id="svg_5" stroke-width="2" stroke="#000" fill="none"/>
  <path t="8567,8587,8603,8603,8618,8633,8633,8650,8664,8681,8681,8681,8712,8715,8715,8732,8732,8887,8910,8946,8946,9002,9026,9066,9082,9099,9114,9132,9132,9149,9164,9164,9181,9198,9199,9214,9231,9249,9249,9264,9264,9314" d="m144,272c4.12849,0.35266 5.03824,0.73395 5.8,1.08401c0.74973,0.34454 1.31912,1.22733 2,1.63065c0.82715,0.48996 1.65524,0.68933 2.2,1.452c0.44791,0.62711 0.74026,1.39493 1.39999,2.19736c0.64514,0.7847 1.21582,1.26553 2.08267,1.836c0.64183,0.42236 1.46002,1.09387 1.51733,1.89999c0.06383,0.89774 0,1.69998 0,2.60001c0,0.94281 -0.61067,1.29999 -1.5,1.29999c-0.89999,0 -1.86148,0.15491 -2.60001,-0.2215c-0.68626,-0.34976 -1.28282,-1.19611 -2,-1.87833c-0.58632,-0.55774 -1.57318,-0.82452 -1.84283,-1.61002c-0.26282,-0.76556 -0.02655,-1.7919 -0.40982,-2.59467c-0.42529,-0.89078 -0.61134,-1.52084 -0.64734,-2.52884l0,-0.86215l-0.05716,-0.94733" id="svg_6" stroke-width="2" stroke="#000" fill="none"/>
  <path t="9839,9982,9990,10014,10031,10031,10048,10048,10064,10081,10081,10081,10081,10101,10101,10101,10114,10114,10114,10114,10131,10131,10131,10148,10148,10148,10164,10164,10164,10164,10181,10181,10181,10181,10198,10198,10198,10214,10214,10214,10231,10231,10231,10248,10248,10248,10264,10264,10281,10298,10298,10314,10314,10314,10331,10331,10331,10348,10364,10364,10381,10381,10398,10398,10398,10414,10414,10431,10431,10431,10449,10470,10470,10481,10522" d="m138,277c0,1.79999 0.31448,2.38715 0.83333,3.16666c0.47089,0.70746 0.18716,1.60345 0.51933,2.48602c0.26579,0.70621 0.56113,1.76208 0.98067,2.68066c0.32327,0.70782 0.70851,1.19653 1.18401,2.06934c0.4826,0.88586 0.76978,1.48169 1.036,2.39731c0.34404,1.18326 0.36267,1.80002 0.44667,2.70001c0.084,0.89999 0.1956,1.80649 0.436,2.68933c0.15781,0.57953 0.56401,1.64401 0.864,2.36249c0.40001,0.95801 0.71167,1.77802 1,2.75803c0.20847,0.70856 0.39261,1.44406 0.7,2.5235c0.19402,0.68134 0.49794,1.62003 0.64284,2.20499c0.31416,1.26822 0.33116,1.96536 0.44116,2.64566c0.16304,1.0083 0.4314,1.83859 0.71733,2.71735c0.29295,0.90033 0.6158,1.78021 0.84151,2.64151c0.26927,1.02747 0.27661,1.73029 0.44116,2.55582c0.20181,1.01248 0.68013,1.71405 0.85884,2.64868c0.17299,0.90469 -0.03072,1.82184 0.39049,2.75266c0.29204,0.64536 0.8882,1.172 1.5,2c0.56523,0.76498 0.84891,1.35181 1.46217,2.24283c0.52657,0.76505 0.75488,1.52316 1.41884,2.06168c0.64395,0.52228 1.50687,0.9935 2.075,1.53149c0.57613,0.54556 1.30424,1.57816 1.71066,2.14316c0.63274,0.87961 1.33464,1.37042 2.01601,1.81952c0.73721,0.4859 1.48399,1.20132 1.96317,1.70132l0.4955,0.88934l0.52533,0.61066" id="svg_7" stroke-width="2" stroke="#000" fill="none"/>
  <path t="11347,11362,11370,11383,11400,11416,11416,11432,11432,11433,11449,11449,11465,11466,11483,11483,11506,11506,11542,11558,11574,11574,11587,11599,11616,11632,11650,11650,11650,11666,11666,11682,11683,11683,11700,11700,11700,11716,11716,11716,11733,11733,11748,11748,11764,11764,11781,11781,11798,11814,11814,11831,11848,11848,11864,11881,11881,11898,11914,11931,11931,11948,11948,11948,11964,11964,11981,11981,11998,11998,11998,11998,12014,12014,12014,12031,12031,12048,12048,12064,12064,12081,12081,12098,12098,12098,12114,12114,12114,12131,12131,12131,12148,12148,12164,12164,12181,12181,12198,12198,12215,12215,12231,12231,12248,12248,12264,12264,12264,12281,12281,12298,12298,12315,12331,12348,12348" d="m177,365c-0.94284,-4.12851 -0.77487,-5.2178 -1.284,-5.91599c-0.50938,-0.69855 -1.03928,-1.26233 -1.4205,-1.89835c-0.55254,-0.92181 -0.76216,-1.70023 -1.0955,-2.41766c-0.45541,-0.98013 -0.92889,-1.49765 -1.5,-2.42068c-0.42175,-0.68164 -0.92625,-1.44354 -1.39999,-2.09998c-0.63156,-0.87509 -1.05992,-1.56363 -1.24284,-2.49017c-0.1664,-0.8428 -0.05716,-1.75717 -0.05716,-2.55716c0,-0.90002 -0.16644,-1.81946 0.02083,-2.70001c0.1814,-0.85291 0.98604,-1.66254 1.37917,-2.32535c0.40717,-0.68646 0.91829,-1.41556 1.48534,-2.14398c0.6138,-0.78848 0.95084,-1.28494 1.46201,-2.08249c0.49661,-0.77481 1.00363,-1.72699 1.40533,-2.34369c0.53772,-0.8255 1.08719,-1.39215 1.59467,-2.00449c0.65015,-0.78448 1.08514,-1.60944 1.65266,-2.43335c0.46332,-0.67261 1.14699,-1.22681 1.7,-1.92383c0.54785,-0.69052 0.90302,-1.40378 1.216,-2.35748c0.28693,-0.87427 0.692,-1.48801 1.384,-2.18533c0.69731,-0.7027 1.2269,-1.32068 1.68533,-2.10001c0.42397,-0.7207 1.25517,-1.10995 1.84534,-1.79868c0.55235,-0.64459 1.33891,-0.74869 2.19016,-0.82217c0.9863,-0.08514 1.76949,-0.43268 2.37917,-0.6265c0.98647,-0.31363 1.79996,-0.34732 2.80017,-0.35266c0.82065,-0.00439 1.96651,0 2.757,0c0.8535,0 1.44417,0 2.64149,0c0.88051,0 1.44417,0 2.71468,0c0.84,0 1.81685,-0.08395 2.57066,0.08533c0.7982,0.17926 1.50537,0.6261 2.51599,0.83066c0.7914,0.16019 1.81848,0.26224 2.62083,0.62567c0.68202,0.30893 1.66382,0.94135 2.2045,1.28369c0.55,0.34827 1.59236,1.03671 2.3175,1.41299c0.83597,0.43381 1.66125,0.61557 2.43634,0.76166c1.00587,0.18958 1.71857,0.70224 2.32533,1.3045c0.58299,0.57867 1.34818,1.34818 1.87016,1.87015c0.65868,0.65866 1.3526,1.29111 1.92534,2.14667c0.43823,0.65463 0.89676,1.51443 1.29999,2.05334c0.59526,0.79556 1.006,1.45822 1.40001,2.22665c0.50775,0.99023 0.73148,1.60956 1.39999,2.51334c0.45576,0.61615 1.18933,1.28534 1.67867,1.98535l0.28801,0.89999l0.40799,0.60001" id="svg_8" stroke-width="2" stroke="#000" fill="none"/>
  <path t="13225,13231,13231,13231,13250,13250,13266,13266,13281,13298,13298,13314,13331,13348,13348,13364,13381,13381,13398,13398,13414,13414,13414,13431,13448,13464,13464,13481,13481,13498,13514,13514,13531,13531,13548,13548,13548,13564,13564,13581,13598,13598,13614,13614,13631,13648,13648,13648,13664,13664,13727,13727,13739,13750,13764,13781,13798,13798,13814,13815,13831,13848,13848,13864,13864,13880,13881,13898,13914,13914,13930,13930,13947,13963,13963,13980,13997,14014,14014,14030,14031,14047,14047,14063,14063,14080,14097,14113,14113,14131,14131,14166" d="m177,366c1.48267,1.13733 1.99687,2.01236 2.29016,2.64651c0.49744,1.07559 0.61642,1.8356 0.93134,2.67465c0.31815,0.84769 1.02435,1.41635 1.7785,1.84549c0.64874,0.36917 1.18144,1.34286 2.10001,1.71185c0.84271,0.33853 1.58852,0.20062 2.42082,0.62149c0.79033,0.39966 1.68979,0.49466 2.67917,0.5c0.79999,0.00433 1.8,0 2.58934,0c0.72533,0 1.81046,-0.01468 2.62132,-0.42532c0.76642,-0.38812 1.59036,-0.52551 2.56784,-0.57483c0.71834,-0.03622 1.49843,-0.61172 2.34283,-0.87851c0.82562,-0.26086 1.78586,-0.42392 2.48849,-0.82584c0.72284,-0.41348 1.45128,-0.67081 2.18483,-0.99551c1.0508,-0.46515 1.69858,-0.99774 2.40533,-1.69998c0.60193,-0.59808 1.20001,-1.20001 1.90001,-1.89999c0.5,-0.5 1.22609,-1.21564 1.86667,-1.86667c0.65341,-0.66406 1.22775,-1.18521 1.5905,-2.03317c0.31871,-0.74503 0.29936,-1.93945 0.94733,-2.43851c0.76202,-0.58688 1.7955,-0.36166 2.6955,-0.36166c0.90451,0 1.76668,0.00006 2.60001,0c0.9785,-0.00009 1.8175,-0.05551 2.52083,-0.52084c0.82402,-0.5452 1.51021,-0.93073 2.3125,-1.47916c0.67429,-0.46091 1.26668,-1.10001 1.86667,-1.70001c0.69998,-0.69998 1.3,-1.29999 1.90001,-1.89999c0.7,-0.69998 1.20033,-1.19965 1.89999,-1.89999c0.69901,-0.69968 1.17978,-1.31442 1.52533,-2.10001c0.36397,-0.82748 0.89609,-1.71631 0.95384,-2.39999c0.0824,-0.9754 0.02083,-1.884 0.02083,-2.65717c0,-0.94415 0,-1.93832 0,-2.68567c0,-1.02118 0.09637,-1.8804 -0.16667,-2.82382c-0.19006,-0.68167 -0.66666,-1.66669 -0.85866,-2.42267l-0.41068,-0.80002" id="svg_9" stroke-width="2" stroke="#000" fill="none"/>
  <path t="15392,15519,15539,15539,15549,15566,15583,15599,15599,15599,15616,15616,15634,15635,15649,15649,15649,15649,15668,15668,15668,15681,15681,15681,15698,15698,15715,15715,15715,15731,15731,15731,15747,15747,15747,15764,15764,15764,15781,15781,15797,15797,15798,15814,15814,15831,15831,15847,15847,15864,15864,15881,15881,15897,15897,15914,15914,15914,15931,15931,15947,15947,15947,15964,15964,15964,15981,15981,15981,15997,15997,16014,16014,16031,16031,16031,16047,16047,16047,16047,16064,16064,16064,16081,16081,16081,16097,16097,16097,16114,16114,16215,16215" d="m198,376c0.16667,1.83334 0.97173,2.2117 1.60001,2.57468c0.84566,0.48856 1.23193,1.05426 1.84666,1.82532c0.58426,0.73285 1.39627,0.97104 2.06934,1.39999c0.88336,0.56299 1.35307,1.02377 2.14566,1.50452c0.78592,0.47668 1.76103,1.01465 2.291,1.34818c0.82413,0.51862 1.34872,0.8884 2.36333,1.46198c0.67471,0.38144 1.36223,0.69873 2.36801,1.08536c0.81151,0.31192 1.64084,0.57855 2.63066,1c0.67081,0.28561 1.68207,0.80664 2.28984,1.09998c0.84821,0.40936 1.81584,0.80267 2.34816,1c0.8205,0.30414 1.88351,0.6933 2.59467,1c0.68079,0.29361 1.61441,0.71338 2.40083,0.99551c0.78581,0.28192 1.91173,0.56989 2.7025,0.72983c0.89516,0.18106 1.5961,0.41351 2.34399,0.62201c1.03096,0.28738 1.89296,0.42313 2.84134,0.77798c0.57161,0.2139 1.5616,0.52234 2.364,0.564c0.99872,0.05185 1.80002,0.01746 2.8,0.01068c0.7894,-0.00534 1.81804,-0.20023 2.52083,-0.5c1.00237,-0.42755 1.7357,-0.43115 2.47383,-0.55267c1.04927,-0.17273 1.80032,-0.72287 2.54817,-1.26865c0.70895,-0.5174 1.2327,-0.8692 2.2905,-1.51202c0.69868,-0.42459 1.39952,-0.7074 2.14534,-1.48798c0.5912,-0.61877 0.84314,-1.26666 1.674,-1.92151c0.6512,-0.51324 1.48161,-0.93823 2.10001,-1.51434c0.75717,-0.70541 1.28899,-1.28452 1.709,-1.7045c0.95959,-0.95956 1.48593,-1.49176 2.03833,-2.01749c0.54242,-0.51624 1.57544,-1.38205 2.03833,-1.711c0.7951,-0.565 1.47314,-1.10886 1.96167,-1.8515c0.41254,-0.62714 0.97818,-1.64481 1.32535,-2.173c0.51343,-0.78119 1.15314,-1.64233 1.65381,-2.24368l0.71951,-0.74167l0.51599,-0.59998" id="svg_10" stroke-width="2" stroke="#000" fill="none"/>
  <path t="17320,17327,17327,17327,17327,17327,17335,17336,17336,17351,17351,17351,17364,17364,17364,17381,17381,17381,17381,17381,17398,17398,17399,17414,17415,17415,17415,17431,17431" d="m264,372c10.328,-2.63568 10.91498,-2.76093 11.91199,-2.90268c0.80099,-0.11389 1.48575,-0.13373 2.68668,-0.38132c0.88794,-0.18304 1.43494,-0.40955 2.48001,-0.59467c0.91504,-0.16211 1.61551,-0.16022 2.608,-0.40799c0.86563,-0.21609 1.48187,-0.45825 2.47998,-0.88c0.72256,-0.30533 1.45786,-0.66046 2.20801,-1.008c0.74054,-0.34308 1.79871,-0.8172 2.78934,-1.18936c0.62222,-0.23376 1.83722,-0.63235 2.43332,-0.836c0.86282,-0.29477 1.63202,-0.59998 2.58835,-1.09549l0.61166,-0.41916" id="svg_11" stroke-width="2" stroke="#000" fill="none"/>
  <path t="18700,18719,18719,18719,18733,18733,18749,18749,18765,18765,18781,18781,18781,18797,18797,18797,18814,18814,18814,18814,18831,18831,18831,18831,18831,18847,18847,18847,18847,18847,18847,18848,18863,18863,18864,18864,18864,18864,18880,18880,18880,18880,18880,18897,18897,18897,18897,18897,18897,18913,18913,18914,18914,18914,18930,18930" d="m264,211c-0.00134,5.14534 0.0177,5.9628 -0.08533,6.68134c-0.1449,1.01051 -0.46341,1.78522 -0.74802,2.98534c-0.15796,0.66611 -0.16666,1.65483 -0.16666,2.35416c0,0.97917 -0.03827,1.79541 0.08533,2.66451c0.14359,1.00964 0.43121,1.83687 0.61917,2.41917c0.38684,1.19855 0.5885,1.80417 0.93149,2.73149c0.2413,0.65237 0.67944,1.68871 1.02567,2.43016c0.37332,0.7995 0.5834,1.2173 1.02502,2.10583c0.47824,0.9622 0.9975,1.9966 1.27048,2.53334c0.27765,0.54594 0.85065,1.64555 1.14734,2.18933c0.29401,0.53889 1.19012,2.06578 1.49551,2.53467c0.58972,0.90546 0.8952,1.33247 1.5,2.16167c0.29764,0.40805 1.20187,1.60774 1.79999,2.4135c0.30096,0.40547 0.90356,1.22899 1.20001,1.65266c0.91098,1.30188 1.20404,1.76132 1.7955,2.69101c0.29593,0.46515 0.86823,1.39066 1.14734,1.842c0.7897,1.27699 1.03433,1.66742 1.49548,2.39101c0.61343,0.96251 0.97501,1.53084 1.57632,2.53215l0.3645,0.64502" id="svg_12" stroke-width="2" stroke="#000" fill="none"/>
  <path t="19796,19815,19815,19815,19815,19815,19839,19859,19919,19971,19971,20027,20063,20087,20107,20123,20147,20167,20183,20199,20215,20216,20233,20249,20249,20265,20281,20281,20297,20297,20314,20314,20314,20331" d="m232,260c2.19966,-11.20616 2.38385,-11.83429 2.591,-12.3765c0.34506,-0.90315 0.8502,-1.83507 1.23967,-2.6515c0.40303,-0.84486 0.95491,-1.41396 1.45467,-2.17067c0.40215,-0.60892 1.41464,-0.79907 2.31467,-0.80133c0.89999,-0.00224 1.83714,-0.25081 2.6955,0.0045c0.76265,0.22684 0.7045,1.2955 0.7045,2.1955c0,0.90001 0.18575,1.84251 -0.08533,2.60001c-0.32246,0.90111 -1.11467,1.39999 -1.71468,2c-0.7,0.7 -1.26027,1.34685 -1.95717,1.89999c-0.69186,0.54913 -1.45349,0.90001 -2.44266,1.40001l-0.58951,0.29999l-0.72533,0.40001l-0.84933,0.59999" id="svg_13" stroke-width="2" stroke="#000" fill="none"/>
  <path t="21324,21332,21332,21332,21332,21332,21332,21332,21332,21332,21349,21349,21349,21349,21349,21349,21349,21349,21349,21366,21366,21366,21366,21366,21366,21382,21382,21382,21382,21382,21397,21397,21397,21397,21397,21397,21414,21414,21414,21414,21414,21431,21431,21431,21431,21431,21447,21447,21447,21447,21447,21465,21465,21465,21481,21481,21481,21497,21497,21497,21497,21514,21514,21532,21532,21532,21547,21547,21565,21565,21565,21582,21582,21597,21597,21597,21614,21614,21632,21632,21632,21632,21647,21647,21665,21666,21666,21682,21682,21697,21697,21698,21715,21715,21715,21732,21732,21732,21747,21747,21748,21748,21765,21765,21765,21765,21781,21781,21781,21797,21797,21798,21798,21815,21815,21815,21815,21815,21832,21832,21847,21847" d="m326,268c4.66666,13.33334 5.05966,14.51218 5.42667,15.65201c0.35287,1.09592 0.68295,2.14975 0.98999,3.16049c0.29285,0.96399 0.56467,1.88235 0.81,2.75549c0.44855,1.59628 0.63419,2.32349 0.80136,3.00534c0.15689,0.63992 0.29422,1.24567 0.40948,1.82251c0.10986,0.5499 0.20419,1.08054 0.27451,1.5975c0.13666,1.0047 0.20648,2.0065 0.23532,2.50665c0.05765,0.99973 0.06168,1.5011 0.13669,2.5c0.11279,1.50204 0.19604,2.00055 0.34131,3c0.07272,0.50027 0.24677,1.49713 0.40802,3c0.05356,0.49902 0.11481,1.49548 0.14133,1.98932c0.05231,0.97458 0.08987,1.92731 0.19199,2.84402c0.09857,0.88495 0.26321,1.74054 0.40802,2.59198c0.1459,0.85791 0.30978,2.19559 0.34,2.65869c0.0614,0.94061 0.07697,1.89063 0.08084,2.36331c0.01132,1.38599 0.00449,2.26602 0.00449,3.10602c0,0.79999 0,1.56 0,2.625c0,0.97498 0,1.85999 0,2.90048c0,0.70651 0,1.431 0,2.56384c0,0.66266 0,1.70667 0,2.38934c0,1.19733 0.00696,1.92636 0,2.96799c-0.00534,0.80005 -0.02686,1.61768 -0.35718,2.60449c-0.216,0.64529 -0.64429,1.56161 -0.94281,2.34369c-0.30151,0.78992 -0.66907,1.73837 -1.20001,2.53098c-0.47311,0.70627 -0.90598,1.35373 -1.29999,2.12216c-0.51233,0.99921 -0.82065,1.64359 -1.36667,2.56534c-0.30875,0.52121 -0.81775,1.32346 -1.34933,2.064c-0.58316,0.81238 -1.10309,1.3902 -1.80551,2.09067c-0.51001,0.50858 -1.25165,1.23422 -2.07849,1.79333c-0.58157,0.39325 -1.60001,0.88531 -2.20001,1.18533c-0.79999,0.39999 -1.60614,0.7887 -2.42084,1.22086c-0.66953,0.35516 -1.66299,0.96558 -2.21515,1.3045c-0.57315,0.35181 -1.75668,1.02417 -2.36401,1.28931c-0.88989,0.38849 -1.50061,0.57904 -2.69998,0.9855c-0.60031,0.20343 -1.50894,0.51532 -2.10001,0.78519c-1.21991,0.55698 -1.79565,0.9476 -2.39999,1.28931c-1.19162,0.67377 -1.79858,0.94791 -2.41068,1.20001c-0.94238,0.38815 -1.95761,0.78836 -2.672,1.108c-0.73367,0.32828 -1.44516,0.68317 -2.14801,0.948c-1.18091,0.44498 -1.90683,0.52768 -2.94781,0.56934l-0.82019,0" id="svg_14" stroke-width="2" stroke="#000" fill="none"/>
  <path t="22676,22687,22687,22699,22699,22699,22716,22716,22733,22733,22733,22733,22747,22747,22747,22747,22747,22747,22764,22764,22764,22781,22781,22781" d="m336,350c3.54285,-1.29999 4.19217,-1.59433 5.19983,-2.10001c0.59119,-0.29666 1.29956,-0.72308 2.19617,-1.29999c0.64804,-0.41696 1.66174,-0.80151 2.32266,-1.02133c0.74976,-0.24936 1.58032,-0.52682 2.448,-0.91202c0.9256,-0.41092 1.38174,-0.66336 2.29169,-1.16666c0.8793,-0.48636 1.27991,-0.74448 2.37732,-1.35699c0.86157,-0.48087 1.608,-0.83401 2.58551,-1.24301l0.79349,-0.29999l0.77551,-0.30002" id="svg_15" stroke-width="2" stroke="#000" fill="none"/>
  <path t="23723,23739,23739,23749,23766,23780,23780,23797,23797,23797,23814,23814,23814,23814,23814,23830,23830,23830,23830,23830,23847,23847,23847,23864,23864,23864,23864,23880,23880,23880,23898,23898,23898,23898,23914,23914,23914,23930,23930,23930,23947,23947,23964,23964,23964,23964,23979,23980,23980,23996,23996,23997,24013,24013,24013,24029,24030,24030,24046,24046,24063,24063,24063,24079,24079,24096,24096,24113,24113,24129,24129,24129,24146,24146,24146,24163,24163,24182,24182,24199,24199,24199,24216,24216,24216,24232,24232,24249,24249,24266,24266,24282,24297,24297,24475,24487,24526,24532,24549,24566,24582,24582,24599,24615,24615,24630,24630,24650,24650,24682,24726,24734,24747,24764,24780,24780,24797,24797,24797,24814,24814,24814,24814,24830,24830,24830,24847,24847,24847,24864,24864,24864,24880,24880,24880,24880,24897,24897,24914,24914,24930,24930,24930,24947,24964,24964,24980,25059,25070,25086,25097,25114,25130,25131,25147,25148,25165,25165,25181,25198,25215,25215,25230,25231,25231,25247,25248,25248,25265,25265,25281,25281,25281,25298,25427,25454,25478,25490,25498,25498,25515,25531,25548,25564,25565,25580,25581,25598,25694,25710,25719,25719,25730,25747,25765,25766,25766,25766,25780,25780,25780,25797,25797,25814,25814,25814,25830,25830,25830,25847,25847,25847,25864,25864,25880,25880,25897,25897,25898,25915,25915,25930,25930,25930,25947,25947,25964,25964,25980,25980,25997,26014,26014,26030,26047,26064,26064,26080,26097,26114,26114,26130,26147,26164,26181,26197,26214,26230,26247,26247,26264,26264,26280,26280,26281,26297,26297,26298,26298,26314,26314,26314,26330,26330,26354,26354,26526,26558,26578,26598,26615,26615,26631,26648,26665,26686,26698,26698,26714,26731,26731,26747,26748,26748,26764,26765,26781,26781,26798,26798,26815,26815,26815,26831,26831,26831,26848,26848,26848,26848,26865,26865,26865,26865,26881,26881,26881,26881,26899,26900,26900,26900,26900,26915,26915,26915,26915,26930,26930,26930,26947,26947,26947,26947,26947,26964,26964,26964,26964,26964,26979,26980,26980,26997,26997,26997,27014,27014,27050,27066,27079" d="m360,339c-2.24283,3.18567 -2.72281,3.88525 -3.5,4.47916c-0.73831,0.56418 -1.58798,0.97275 -2.02084,1.54169c-0.62842,0.82602 -1.33325,1.35394 -1.94083,1.789c-0.71393,0.51123 -1.50085,1.20355 -2.07999,1.73181c-0.62091,0.56635 -0.93256,0.87558 -1.97952,1.75818c-0.7186,0.60577 -1.45828,1.17896 -1.81747,1.46417c-0.6926,0.54996 -1.61395,1.31964 -2.40002,1.98932c-0.47327,0.4032 -1.41742,1.10071 -2.21399,1.49402c-0.54053,0.26688 -1.40231,0.57626 -2.36334,1.23932c-0.47992,0.33112 -1.13846,0.97321 -1.85065,1.67999c-0.51865,0.51471 -1.32312,1.32367 -1.88068,1.82352c-0.77216,0.69223 -1.48215,1.21835 -2.142,1.5885c-0.99182,0.55637 -1.61078,0.82104 -2.41068,1.22131c-0.80148,0.40106 -1.64459,0.82117 -2.56665,1.36667c-0.52234,0.30902 -1.33057,0.83774 -1.88068,1.18066c-1.02606,0.63962 -1.73419,0.99951 -2.34818,1.40533c-1.03748,0.6857 -1.39001,1.10547 -2.06165,1.59467c-0.93146,0.67847 -1.78305,0.97891 -2.53302,1.40533c-0.90134,0.51251 -1.29929,1.11447 -1.89249,1.76334c-0.71875,0.78619 -1.35126,1.0769 -2.11734,1.65067c-0.61523,0.46078 -1.34396,1.17953 -1.97849,1.81183c-0.61191,0.60977 -1.29434,1.36084 -1.90686,1.8215c-0.73694,0.55423 -1.5459,0.92126 -2.31467,1.52151c-0.62296,0.48642 -1.20111,1.08188 -1.99982,1.87833c-0.59033,0.58868 -1.14301,1.14301 -1.77866,1.77866c-0.61084,0.61084 -1.32602,1.32602 -1.77869,1.77869c-0.72815,0.72815 -1.26367,1.26367 -1.84415,1.84415c-0.79736,0.79736 -1.37866,1.37701 -1.91336,1.91336c-0.72928,0.73154 -1.30548,1.35574 -1.78531,2.138c-0.41913,0.68329 -0.98575,1.6033 -1.5,2.146c-0.68158,0.71927 -1.50385,1.32495 -1.91467,2.00131c-0.47144,0.77612 -0.84479,1.40878 -1.50668,2.07867c-0.60938,0.61673 -1.30505,0.93106 -1.97733,1.40668c-0.78027,0.552 -0.81329,1.56512 -1.32217,2.21466c-0.60208,0.76849 -1.21649,1.23071 -2.13184,1.79999c-0.68069,0.42334 -1.59277,0.79214 -2.06067,1.5c-0.50101,0.75797 -1.12,1.36667 -1.28665,2.20001c-0.16666,0.83334 -0.91751,1.28503 -1.00015,2.10034c-0.0882,0.87003 -0.26285,1.67856 -0.5415,2.44131c-0.3183,0.87125 -0.76974,1.76382 -1.11102,2.35385c-0.50735,0.87714 -0.88812,1.40472 -1.46198,2.4205c-0.38123,0.6748 -0.70236,1.36084 -1.08536,2.36932c-0.31519,0.8299 -0.60019,1.71594 -0.89999,2.61465c-0.3002,0.89996 -0.50079,1.49973 -0.89999,2.70001c-0.19907,0.59854 -0.51099,1.47083 -0.71466,2.31467c-0.23901,0.9903 -0.21143,1.86871 -0.50668,2.66415c-0.26746,0.72052 -0.66296,1.56314 -0.77866,2.52118c-0.08832,0.73148 -0.49271,1.61786 -0.83334,2.5c-0.29425,0.76205 -0.53741,1.42889 -1.04517,2.2215c-0.47827,0.74661 0.11618,1.57141 0.97833,1.77866c0.8414,0.20227 1.34912,0.85037 2.08551,1.02518c0.93982,0.22308 1.67804,0.78946 2.64001,0.93866c0.68335,0.10599 1.76984,0.12393 2.58533,0.02533c0.92819,-0.11221 1.64972,-0.47296 2.58932,-1.15598c0.62405,-0.45364 1.20258,-1.01285 1.83334,-1.83334c0.44205,-0.57498 0.85312,-1.40897 1.48816,-1.97849c0.64029,-0.57425 1.68906,-1.00159 2.2695,-1.3215c0.85486,-0.47116 1.21613,-1.30762 1.76617,-1.99551c0.58957,-0.7373 1.6001,-0.42249 1.64282,0.39551c0.04694,0.89877 0.19595,1.73441 -0.05716,2.60001c-0.25665,0.87762 -0.90344,1.60349 -0.94284,2.46664c-0.03799,0.83273 -0.27435,1.78287 -0.64734,2.52884c-0.38919,0.77838 -0.53574,1.80038 -0.06732,2.50317c0.53012,0.79532 1.51465,0.80066 2.41467,0.80133c0.86249,0.00064 1.79999,0 2.66248,0c0.65836,0 1.67084,0 2.59451,0c1.00134,0 1.64032,0 2.64749,0c0.85266,0 1.81702,0 2.6315,0c0.8685,0 2.06384,0 2.65952,0c0.8685,0 1.93784,0 2.8685,0c0.6315,0 1.63599,0 2.436,0c1,0 1.80002,0.00668 2.79999,0c0.80005,-0.00534 1.61853,-0.02435 2.60449,-0.35718c0.87231,-0.29446 1.81668,-0.74283 2.34369,-0.94281c0.7905,-0.29999 1.88998,-0.83292 2.53098,-1.17917c0.8201,-0.44302 1.75623,-0.38419 2.6355,-0.80618c0.64575,-0.30994 1.26816,-1.13226 1.98535,-1.81448c0.58633,-0.55774 1.4678,-0.77621 2.19998,-1.25735c0.79425,-0.52194 1.27951,-1.24951 2.10001,-1.61749c0.78262,-0.35101 1.62631,-0.78778 2.30002,-1.078c0.84177,-0.36261 1.6265,-0.72421 2.49866,-0.94867c0.8009,-0.20612 1.26788,-1.03113 1.82666,-1.57333c0.58887,-0.57141 0.90616,-1.30511 1.05869,-2.02798c0.21347,-1.01181 0.62656,-1.79437 1.01599,-2.59769c0.40637,-0.83826 0.71841,-1.56418 1,-2.44232c0.32114,-1.00146 0.48724,-1.71054 0.69998,-2.38934c0.37753,-1.20462 0.69189,-1.93021 1,-2.56531c0.48727,-1.00446 0.87231,-1.76413 1.39868,-2.51733c0.49081,-0.7023 0.95981,-1.4003 1.51733,-1.96936c0.65903,-0.6727 1.10513,-1.45889 1.85199,-1.83197c0.6615,-0.33044 1.36371,-0.84344 2.13651,-1.07953c0.8573,-0.2619 1.68781,-0.4487 2.39551,-1.10431c0.59363,-0.54996 1.43866,-0.84369 2.2215,-1.12167c0.91464,-0.3248 1.6785,-0.7785 2.47849,-1.1785c0.60001,-0.30002 1.61292,-0.7739 2.36401,-1.20001c0.83139,-0.47165 1.43646,-1.03662 2.1575,-1.5c0.67776,-0.43558 1.67523,-0.90665 2.28299,-1.19998c0.84821,-0.40936 1.81436,-0.80734 2.6315,-1.10001c0.57285,-0.20517 1.76578,-0.59479 2.36401,-0.80133c0.90274,-0.31168 1.51901,-0.51709 2.69998,-1.12c0.61047,-0.31165 1.18848,-0.69937 2.10001,-1.19467c0.88937,-0.48328 1.5105,-0.72253 2.436,-1.14536c0.65369,-0.29865 1.68954,-0.87473 2.41666,-1.34399c0.37488,-0.24194 1.11124,-0.76096 1.86334,-1.22665c1.04803,-0.64896 1.7175,-0.97699 2.67334,-1.34668c0.60379,-0.23352 1.8161,-0.61285 2.42133,-0.84265c0.62982,-0.23914 1.96304,-0.90063 2.67334,-1.34802c0.37244,-0.23459 1.11761,-0.74924 1.86334,-1.28247c1.08835,-0.77823 1.76157,-1.27014 2.41666,-1.70151c0.62,-0.40823 1.22162,-0.78625 2.13583,-1.22534c0.87769,-0.42154 1.76953,-0.7269 2.53351,-1.18799c0.73312,-0.44244 1.31683,-1.01126 2.14514,-1.81168c0.49878,-0.48196 1.31702,-0.96899 1.9855,-1.45767l0.03601,-0.86398" id="svg_16" stroke-width="2" stroke="#000" fill="none"/>
  <path t="28029,28034,28034,28034,28034,28034,28034,28034,28034,28034,28051,28051,28051,28051,28051,28051,28051,28051,28051,28065,28065,28065,28065,28084,28084,28084,28084,28084,28097,28097,28097,28097,28097,28097,28116,28116,28116,28116,28116,28130,28130,28130,28130,28130,28130,28148,28148,28148,28148,28148,28148,28148,28165,28165,28165,28165,28165,28180,28180,28180,28180,28180,28197,28197,28197,28197,28215,28215,28215,28215,28215,28230,28230,28230,28230,28230,28247,28247,28247,28247,28247,28264,28264,28264,28264,28280,28280,28280,28280,28297,28297,28297,28314,28314,28314,28314,28314,28330,28330,28330,28330,28330,28347,28347,28347,28347,28366,28367,28367,28382,28382,28382,28382,28397,28397,28397,28397,28414,28414,28414,28414,28432,28432,28432,28447,28447,28447,28447,28466,28466,28466,28482,28482,28497,28497,28516,28516,28516,28532,28532,28532,28550,28550,28550,28564,28564,28583,28583,28597,28597,28597,28616,28617,28633,28633,28647,28647,28647,28664,28664,28683,28683,28699,28700,28716,28716,28717,28733,28733,28747,28747,28767,28767,28783" d="m415,236c3.66666,6.5 4.18719,7.49054 4.73334,8.55333c0.57065,1.11047 1.14868,2.25233 1.72501,3.405c0.57031,1.14069 1.1207,2.25139 1.63498,3.315c0.91382,1.88989 1.28104,2.68849 1.59467,3.38667c0.27194,0.60536 0.49841,1.13232 0.68701,1.59c0.16312,0.39581 0.29773,0.74344 0.41699,1.04999c0.20755,0.53354 0.31116,0.7775 0.608,1.48535c0.30325,0.72314 0.61832,1.54263 0.89999,2.53799c0.21399,0.7562 0.30972,1.16788 0.5,2.04999c0.31619,1.46597 0.40143,1.99445 0.60001,3.07733c0.10071,0.54922 0.29727,1.64453 0.39999,2.18134c0.29218,1.5267 0.39655,1.99945 0.60001,2.90668c0.19666,0.87677 0.40387,1.74313 0.60001,2.62799c0.20404,0.92047 0.4021,1.89029 0.5,2.39584c0.20441,1.05548 0.30627,1.60843 0.5,2.77084c0.20535,1.23224 0.29749,1.86722 0.38934,2.50665c0.0918,0.63889 0.258,1.89697 0.32532,2.50668c0.12723,1.1524 0.20325,2.1972 0.26001,3.14532c0.05243,0.87592 0.04651,1.29788 0.19199,2.508c0.0965,0.80276 0.26254,1.5993 0.40802,2.39999c0.1452,0.79932 0.31778,1.99899 0.36816,2.80002c0.05026,0.79922 0.0549,1.59998 0.05716,2.79999c0.0015,0.80133 0,1.61066 0,2.436c0,0.84933 0,2.18533 0,2.64801c0,0.94131 0,1.89066 0,2.83197c0,0.91736 0,1.79868 0,2.64801c0,0.82535 0,1.63467 0,2.83585c0,0.79565 0,1.57932 0,2.34299c0,1.09052 0,2.10001 0,2.73633c0,0.91953 0.00894,2.12241 -0.01068,2.73151c-0.03052,0.94714 -0.14435,1.95801 -0.27466,2.67599c-0.13837,0.76236 -0.32663,1.55969 -0.51599,2.39999c-0.3006,1.33401 -0.40433,1.79462 -0.58801,2.72803c-0.18158,0.92264 -0.34924,1.81302 -0.48932,3.04233c-0.08286,0.7272 -0.09241,1.40439 -0.20535,2.34033c-0.10941,0.90646 -0.35846,1.79861 -0.56332,2.70267c-0.20309,0.8963 -0.29181,1.80606 -0.3735,2.42084c-0.12857,0.96735 -0.40585,2.00659 -0.689,2.73181c-0.29437,0.75406 -0.65656,1.48834 -1.1235,2.58069c-0.28906,0.67618 -0.64651,1.61874 -0.80499,2.20499c-0.27872,1.03091 -0.34247,1.99158 -0.53101,2.73102c-0.22614,0.88678 -0.68558,1.88434 -1.01599,2.57999c-0.32571,0.6857 -0.79318,1.60767 -1.17868,2.37866c-0.33151,0.66299 -0.80988,1.68491 -1.23599,2.436c-0.47165,0.83139 -1.03329,1.43857 -1.50015,2.15765c-0.45407,0.6994 -0.77429,1.37164 -1.38385,2.36234c-0.33539,0.54507 -0.87531,1.35605 -1.34933,2.14935c-0.4202,0.70322 -0.85886,1.56384 -1.26666,2.36649c-0.39679,0.78098 -0.90424,1.63037 -1.39999,2.30017c-0.60519,0.81769 -1.00214,1.51974 -1.29999,2.10132c-0.50818,0.99231 -0.89941,1.79791 -1.52133,2.37735c-0.62616,0.58337 -1.55124,1.15823 -2.04269,1.84668c-0.47412,0.66418 -0.89273,1.47214 -1.52133,1.97333c-0.7186,0.57297 -1.53467,0.88873 -2.23065,1.68665c-0.43317,0.49661 -1.03354,1.52908 -1.53668,2.11017c-0.50522,0.58347 -1.35739,1.35458 -1.82648,1.90451c-0.66815,0.78333 -1.02084,1.5 -1.52084,2.33334l-0.5,0.625l-0.7955,0.48898" id="svg_17" stroke-width="2" stroke="#000" fill="none"/>
  <path t="30624,30640,30640,30640,30649,30649,30649,30666,30680,30680,30680,30680,30697,30697,30697,30697,30697,30714,30714,30714,30714,30714,30714,30730,30730,30730,30730,30730,30731,30747,30747,30747,30747,30764,30764,30764,30764,30764,30780,30780,30780,30780,30780,30780,30797,30797,30797,30797,30797,30797,30797,30814,30814,30814,30814,30814,30814,30831,30831,30831,30831,30831,30831,30847,30847,30847,30847,30847,30847,30847,30864,30864,30864,30864,30864,30880,30880,30880,30880,30880,30897,30897,30897,30897,30914,30914,30914,30914,30930,30930,30930,30930,30947,30947,30948,30948,30948,30964,30964,30964,30964,30964,30980,30980,30980,30980,30997,30997,30997,30997,30997,31014,31014,31014,31014,31030,31030,31030,31030,31030,31030,31051,31051,31051,31051,31068,31068,31068,31068,31068,31080,31080,31080,31080,31080,31080,31080,31100,31100,31100,31100,31100,31100,31113,31114,31114,31114,31114,31114,31129,31129,31130,31130,31130,31147,31147,31147,31147,31167,31167,31167,31167,31167,31167,31167,31180,31180,31180,31180,31180,31180,31180,31196,31196,31197,31197,31197,31197,31213,31214,31214,31214,31214,31214,31214,31214,31230,31231,31231,31231,31231,31231,31231,31247,31247,31247,31247,31247,31247,31264,31264,31264,31264,31264,31264,31264,31264,31281,31281,31281,31281,31282,31282,31282,31297,31297,31297,31297,31297,31297,31313,31314,31314,31314,31314,31314,31331,31331,31331,31331,31331,31331,31348,31348,31348,31348,31348,31349,31365,31365,31365,31365,31365,31381,31381,31381,31382,31382,31382,31382,31397,31397,31397,31397,31397,31415,31415,31415,31415,31415,31429,31430,31430,31430,31448,31448,31448,31465,31465,31487,31487,31530" d="m261,128c2.05334,-0.284 3.01913,-0.50813 3.69916,-0.64733c0.96521,-0.19757 2.01776,-0.3286 2.81284,-0.35133c0.88373,-0.02527 1.9892,-0.16257 2.54401,-0.28667c1.00876,-0.22565 1.75757,-0.41887 2.944,-0.71467c0.80139,-0.1998 1.20395,-0.30226 2.02084,-0.5c0.83578,-0.20231 2.14575,-0.50022 3.06448,-0.70133c0.4718,-0.10328 1.43643,-0.31567 1.92535,-0.43467c0.99258,-0.24157 2.48999,-0.68261 2.98798,-0.84666c0.99234,-0.32692 1.47702,-0.50748 2.44418,-0.8075c0.47021,-0.14586 1.83356,-0.48114 2.69998,-0.6045c0.83453,-0.11882 1.66577,-0.14996 2.85718,-0.43867c0.81097,-0.19652 1.60254,-0.53282 2,-0.70833c0.80527,-0.35558 1.99768,-0.96302 2.80399,-1.35834c0.82565,-0.40481 1.25397,-0.6105 2.16751,-1c0.48215,-0.20557 2.0914,-0.80366 2.68182,-0.99866c0.60791,-0.20078 1.23087,-0.39917 2.50668,-0.76534c0.63794,-0.1831 1.27106,-0.35953 2.50665,-0.66933c1.16061,-0.29101 1.71967,-0.41129 2.79169,-0.66666c0.52063,-0.12402 1.54385,-0.36733 2.54166,-0.66666c1.0065,-0.30194 1.50623,-0.48571 2.52084,-0.85417c0.51605,-0.1874 1.03381,-0.39049 2.64581,-0.97916c0.55365,-0.20219 1.681,-0.59698 2.24802,-0.78933c0.564,-0.19131 1.67441,-0.55696 2.216,-0.72533c1.52335,-0.47359 1.99722,-0.60526 2.89734,-0.84933c0.8493,-0.2303 1.66922,-0.43498 2.87198,-0.736c0.79996,-0.20021 1.60001,-0.4 2,-0.5c0.80002,-0.2 1.99878,-0.50418 2.7955,-0.6955c0.78265,-0.18794 1.54086,-0.39084 2.98318,-0.58317c0.66626,-0.08884 1.32355,-0.09843 2.30533,-0.20533c1.04044,-0.11329 1.77475,-0.26589 2.53683,-0.43684c0.78537,-0.17618 1.97891,-0.48009 2.78049,-0.67916c0.80908,-0.20094 1.63388,-0.40345 2.48401,-0.60001c0.88049,-0.20358 1.79752,-0.39917 2.72934,-0.6c0.92416,-0.19918 1.37912,-0.28497 2.65198,-0.6c0.7663,-0.18965 1.46475,-0.4203 2.48151,-0.64283c1.01221,-0.22153 1.73682,-0.27794 2.48782,-0.33184c0.77435,-0.05558 1.5694,-0.07766 2.76419,-0.24683c0.80762,-0.11435 1.62119,-0.29693 2.457,-0.483c1.31033,-0.29172 2.22626,-0.49704 2.6955,-0.591c0.9462,-0.18946 1.89355,-0.35491 2.36331,-0.41917c1.35968,-0.18599 2.22687,-0.23203 3.06317,-0.28533c0.81638,-0.05204 2.02231,-0.15697 2.82483,-0.284c0.82965,-0.13132 1.25577,-0.23402 2.16751,-0.36333c1.52454,-0.21622 2.09232,-0.23746 2.68182,-0.26733c1.23273,-0.06248 1.86749,-0.0665 2.50668,-0.07467c0.63913,-0.00816 2.50665,-0.00961 3.09698,-0.01083c1.12869,-0.00233 1.67126,-0.00148 2.72168,-0.03584c0.51248,-0.01676 2.02197,-0.12511 2.52118,-0.18533c0.99707,-0.12027 1.48914,-0.20616 2.46414,-0.35333c0.95038,-0.14345 2.31409,-0.30923 2.75067,-0.34c0.84866,-0.05982 1.67465,-0.07889 2.48401,-0.084c1.20163,-0.00759 2.01035,-0.00134 2.84299,-0.00134c0.87268,0 2.29169,0 2.80133,0c1.07135,0 1.629,0 2.19867,0c1.16736,0 1.76102,0 2.95834,0c1.20001,0 1.79999,0 2.39999,0c1.20001,0 1.80002,0 2.39999,0c1.80017,0 2.40134,0 3.00452,0c1.21634,0 1.83148,0 2.45267,0c1.90948,0 2.56415,0 3.22684,0c0.66867,0 1.34134,0 2.69064,0c0.67267,0 1.34134,0 2.65869,0c0.64499,0 1.905,0 2.51999,0c0.60501,0 1.785,0 2.36002,0c1.66565,0 2.20532,0 3.28265,0c0.54565,0 1.10132,0 2.25867,0c1.24533,0 1.90948,-0.00079 2.59866,0.00134c0.70917,0.00218 2.16757,0.0165 2.90668,0.03467c0.73926,0.01817 1.47433,0.03331 2.90665,0.13066c0.69077,0.04695 1.36212,0.11047 2.65067,0.25867c0.62057,0.07137 1.22424,0.15871 2.39468,0.29067c1.12036,0.12631 1.66605,0.16993 2.73083,0.23133c1.03592,0.05974 1.54727,0.06573 2.55582,0.13667c1.00226,0.07049 2.00336,0.19685 2.50583,0.27317c1.01779,0.15459 2.0527,0.34723 2.58084,0.44416c1.08136,0.19846 2.19861,0.39909 2.76733,0.49867c1.14719,0.20086 1.72217,0.29907 2.29468,0.39999c1.68649,0.29729 2.23077,0.40106 3.29099,0.5955c0.51489,0.09443 1.51404,0.27467 2,0.34733c1.39249,0.20821 2.28003,0.27783 3.15768,0.33184c0.90106,0.05545 1.37241,0.06061 2.90399,0.19199c0.56458,0.04843 1.75833,0.18795 2.37601,0.26933c0.62433,0.08226 1.24957,0.16473 2.47198,0.36533c1.15359,0.18931 2.19669,0.39552 2.68051,0.49867c0.91028,0.19408 1.75839,0.39841 2.9715,0.7c0.80026,0.19895 1.60001,0.4 2.39999,0.6c0.39999,0.1 1.60049,0.39808 2.39734,0.6c0.78183,0.19811 1.89606,0.47582 2.86932,0.8c0.82605,0.27515 1.48898,0.65199 2.53317,0.8785c0.76794,0.16658 1.63351,0.1215 2.51352,0.1215l0.22949,0.64733" id="svg_18" stroke-width="2" stroke="#000" fill="none"/>
  <path t="32966,32972,32972,32972,32972,32972,32972,32972,32972,32972,32983,32983,32983,32983,32983,32983,32983,32983,32999,33000,33017,33017,33017,33033,33033,33033,33047,33048,33048,33063,33063,33080,33080,33098,33127,33143,33143,33151,33151" d="m260,381c2,2.16666 2.65356,2.65344 3.41199,3.18799c0.83035,0.58524 1.72171,1.19278 2.65051,1.81201c0.93918,0.62616 1.87268,1.23816 2.78549,1.81201c1.64429,1.03369 2.35452,1.44391 2.98135,1.78931c0.54401,0.29977 1.02219,0.54279 1.4415,0.73203c0.35855,0.16183 0.93887,0.40524 1.92383,0.61398c0.76825,0.16281 1.82736,0.39346 2.62665,0.69934c0.5874,0.22479 1.48633,0.6611 2.36801,1.17868c0.57996,0.34045 1.63116,1.03137 2.35352,1.41299c0.63586,0.33594 1.66122,0.61563 2.43631,0.76166c1.00586,0.18951 1.54984,0.75537 2.52084,0.97916c0.87753,0.20224 1.70132,0.30484 2.38535,0.73685l0.94,0.24799l0.69064,0.03467" id="svg_19" stroke-width="2" stroke="#000" fill="none"/>
  <path t="37037,37043,37043,37043,37043,37043,37043,37043,37043,37043,37051,37051,37051,37051,37051,37051,37051,37051,37051,37064,37064,37064,37064,37065,37065,37065,37065,37065,37080,37080,37080,37080,37080,37080,37080,37097,37097,37097,37097,37097,37113,37113,37113,37113,37113,37130,37130,37130,37130,37130,37147,37147,37147,37148,37148,37148,37148,37163,37163,37163,37163,37163,37163,37163,37163,37180,37180,37180,37180,37180,37180,37180,37197,37197,37197,37197,37197,37213,37213,37213,37214,37214,37214,37230,37230,37230,37230,37230,37247,37247,37247,37247,37247,37263,37263,37263,37263,37263,37263,37263,37280,37280,37280,37280,37280,37280,37281,37297,37297,37297,37297,37297,37298,37298,37313,37313,37313,37313,37313,37313,37313,37330,37330,37330,37330,37330,37330,37331,37347,37347,37347,37347,37348,37363,37363,37363,37363,37364,37382,37382,37382,37382,37382,37397,37397,37397,37397,37413,37413,37430,37430,37447,37447,37482,37498,37514" d="m427,348c4.66666,-1.66666 5.96896,-1.98907 7.452,-2.336c1.61923,-0.37878 3.33698,-0.76691 5.1105,-1.164c1.78781,-0.4003 3.55035,-0.78915 5.24551,-1.164c3.02539,-0.66901 4.28354,-0.94824 5.36798,-1.19467c0.92917,-0.21115 1.71939,-0.39438 2.38651,-0.55798c0.56345,-0.13818 1.03931,-0.25964 1.4415,-0.37802c0.6655,-0.19589 0.95407,-0.30334 1.228,-0.40533c0.2634,-0.09808 0.51733,-0.19998 0.76801,-0.29999c0.25067,-0.10001 0.50418,-0.20313 0.76801,-0.29999c0.56293,-0.2067 0.87436,-0.30219 1.20267,-0.40002c0.34299,-0.10223 0.70087,-0.20169 1.07098,-0.29999c0.76639,-0.20355 1.95834,-0.50003 2.75833,-0.70001c0.80002,-0.20001 1.60001,-0.39993 2.40002,-0.59998c1.2002,-0.30008 2.00574,-0.49982 2.82083,-0.72086c0.4158,-0.11276 1.27094,-0.34521 2.60065,-0.80066c0.94043,-0.32211 1.41586,-0.51105 2.38919,-0.88916c0.49448,-0.19211 1.98926,-0.78952 2.48981,-0.9895c1.01285,-0.40466 1.53128,-0.61115 2.06201,-0.82068c1.10849,-0.43765 1.69281,-0.66632 2.9375,-1.14581c0.66364,-0.25565 1.3519,-0.51758 2.05801,-0.78601c0.7179,-0.27292 1.44205,-0.54721 2.16599,-0.82199c0.71805,-0.27255 2.77615,-1.05832 3.41135,-1.30368c0.60745,-0.23465 1.18756,-0.46289 2.28131,-0.88c0.51483,-0.19635 1.49026,-0.56607 2.41669,-0.875c0.87921,-0.29318 1.7421,-0.53876 2.59198,-0.79199c0.85944,-0.25607 1.74408,-0.53348 2.65869,-0.85999c0.47012,-0.16782 1.41846,-0.52948 2.36331,-0.91919c0.46991,-0.19382 1.83316,-0.79123 2.6955,-1.1955c0.42215,-0.19791 1.24734,-0.59833 2.05585,-1c1.20291,-0.59766 1.604,-0.80133 2.42267,-1.21066c0.85065,-0.42532 1.29291,-0.64667 2.71201,-1.35599c0.50961,-0.25473 1.58023,-0.78757 2.13864,-1.05869c0.56891,-0.27625 1.14349,-0.56226 2.33069,-1.09067c1.19159,-0.5304 1.79626,-0.76492 2.396,-1c0.59595,-0.23358 1.78125,-0.6821 2.36536,-0.90933c0.57953,-0.22546 2.27185,-0.93588 2.81445,-1.19617c0.53882,-0.25845 1.58716,-0.81149 2.10071,-1.09933c0.51178,-0.28687 1.51959,-0.88028 2.52081,-1.47916c1.00281,-0.59979 1.50732,-0.90277 2.02136,-1.20001c1.04736,-0.60568 1.59027,-0.90506 2.14929,-1.19998c1.15717,-0.6105 1.76904,-0.9054 3.0257,-1.49551c0.63171,-0.29663 1.26221,-0.58307 1.88098,-0.8685c0.60327,-0.27829 2.25903,-1.06339 2.73669,-1.31448c0.86298,-0.45367 1.60754,-0.89301 2.26794,-1.31702c0.92493,-0.59384 1.52057,-1.00406 2.12872,-1.41516c0.62653,-0.42349 1.27856,-0.86917 2.31067,-1.61066c0.73413,-0.52744 1.47839,-1.07901 1.85333,-1.35333c0.74084,-0.54202 1.8006,-1.30807 2.46362,-1.76367c0.61719,-0.42413 1.46838,-0.98618 2.23999,-1.44016c0.87262,-0.5134 1.77875,-0.99185 2.28571,-1.42151c0.77478,-0.65662 1.336,-1.24283 2.13599,-1.60001l0.79547,-0.35718l0.58301,-0.74283" id="svg_21" stroke-width="2" stroke="#000" fill="none"/>
  <path t="38581,38587,38587,38587,38587,38587,38587,38587,38587,38587,38599,38599,38599,38599,38599,38615,38615,38615,38615,38630,38630,38630,38630,38647,38647,38647,38647,38647,38663,38663,38663,38663,38663,38680,38680,38680,38680,38697,38697,38697,38697,38713,38713,38713,38731,38731,38731,38731,38747,38748,38748,38748,38763,38763,38764,38764,38780,38780,38798,38798,38798,38813,38813,38813,38832,38832,38847,38847,38847,38863,38864,38864,38880,38880,38880,38897,38897,38898,38898,38914,38914,38931,38931,38948,38948,38948,38948" d="m311,283c2.5,13.83334 2.64563,14.94781 2.74268,15.99734c0.09097,0.98364 0.14813,1.90765 0.17398,2.7735c0.0242,0.81027 0.02469,1.56943 -0.00598,2.2785c-0.05557,1.28513 -0.11295,1.86697 -0.26785,2.91299c-0.07016,0.47369 -0.21002,1.336 -0.64282,2.70432c-0.18069,0.57132 -0.52979,1.31961 -0.71466,2.10135c-0.2807,1.18689 -0.25708,1.90549 -0.34668,2.65332c-0.09381,0.78317 -0.35925,1.98676 -0.65298,2.78317c-0.30435,0.8252 -0.50769,1.2312 -0.88834,2.08084c-0.59824,1.33533 -0.8002,1.79559 -1.18668,2.72934c-0.19189,0.46362 -0.56213,1.37219 -1.04401,2.65198c-0.28644,0.76074 -0.53467,1.45996 -0.86215,2.42435c-0.30826,0.90771 -0.60449,1.80899 -0.8045,2.409c-0.29999,0.89999 -0.61243,1.79602 -0.88934,2.70001c-0.18301,0.59747 -0.45203,1.79892 -0.52798,2.40131c-0.11575,0.91806 -0.12103,1.57529 -0.52533,2.92001c-0.22372,0.74417 -0.57446,1.47214 -0.85202,2.22601c-0.39664,1.07724 -0.5527,1.76352 -0.68448,2.711c-0.11862,0.85303 -0.30441,1.85648 -0.52084,2.52081c-0.33267,1.02106 -0.39182,1.84827 -0.66934,2.62085c-0.30237,0.84174 -0.87085,1.38449 -1.34799,2c-0.75693,0.97641 -1.06934,1.60138 -1.58282,2.60001c-0.30893,0.6008 -0.75168,1.42627 -1.38516,2.19998c-0.50949,0.62225 -1.11996,1.19608 -1.91467,2.00134c-0.40201,0.40735 -1.02365,1.03668 -1.79984,2.01984c-0.40836,0.51724 -0.7681,1.0661 -1.31485,1.80948c-0.71365,0.97034 -1.19891,1.50543 -1.68799,2.25601c-0.48764,0.74838 -1.13068,1.67999 -1.564,2.19601l-0.47333,0.53198l-0.69751,0.77551" id="svg_22" stroke-width="2" stroke="#000" fill="none"/>
 </g>
 <g display="none">
  <title>muse_image</title>
  <image xlink:href="http://farm1.static.flickr.com/21/29853305_47466ada56.jpg" id="muse" height="426" width="640" y="27" x="0"/>
 </g>
 <g display="none">
  <title>bbox</title>
  <rect stroke="#f00" fill="none" stroke-width="3" height="315.98198" width="401.92" y="126.78378" x="46.08" id="bbox"/>
 </g>
</svg>
