<svg width="640" height="480" xmlns="http://www.w3.org/2000/svg" xmlns:svg="http://www.w3.org/2000/svg" xmlns:xlink="http://www.w3.org/1999/xlink">
 <!-- Sketchy ANNOTATION
  ImageNet ID: n02395406_2294
  URL: http://static.flickr.com/66/188557420_6bca26c8d5.jpg
  Image Width: 500
  Image Height: 375
  BBox X: 146
  BBox Y: 0
  BBox Width: 354
  BBox Height: 306
  Exposure: 2000ms
  Synset Label: pig
  Synset ID: n02395406
  Worker Tag: close-up of snoozing pig
  Sanity Check: 
   Saved
  Comment: 
   {}
  Worker ID: A2HM35CWB7IIFM
  Assignment ID: 3FIJLY1B6U4ZX6DYCZ1A760ZQX8FPJ
  HIT ID: 31YWE12TE0CP422PQ58DO7EZOWE7X5
  Work Time: 245s
  Worker Score: 0.7857
 END ANNOTATION -->
 <g display="inline">
  <title>Layer 1</title>
  <path t="0,122,123,124,127,134,135,135,135,135,135,146,146,146,146,146,174,174,174,174,174,174,175,175,194,194,194,194,194,195,195,195,195,199,199,199,199,199,199,199,199,200,220,220,220,220,221,221,221,221,221,230,231,231,231,231,231,231,231,231,243,243,243,243,244,257,273,273,280,281,291,292,307,307,307,318,318,318,318,318,329,329,329,329,329,340,340,341,341,341,341,341,358,359,359,359,366,366,366,366,377,378,378,390,390,408,408,415,427,428,440,440,459,459,459,464,464,464,476,477,477,490,490,490,490,503,503,513,513,513,525,525,541,542,550,550,562,574,574,592,592,600,611,611,624,624,641,642,642,648,649,649,659,659,660,673,673,674,674,691,691,691,691,697,697,697,709,709,723,724,724,734,734,746,761" d="m606.5,321.89999c-2.34131,0.00269 -3.1449,0.00674 -4.04266,0.07202c-0.47595,0.03461 -1.96002,0.24979 -2.45715,0.37082c-1.00159,0.24387 -1.49194,0.41116 -2.46417,0.74249c-0.95313,0.32483 -1.86658,0.6568 -2.75336,0.93066c-0.86536,0.26727 -1.74438,0.5079 -2.1925,0.63669c-1.4248,0.40945 -1.93359,0.57407 -3.05847,0.909c-0.6308,0.18784 -1.32208,0.38489 -2.08502,0.58499c-0.84027,0.2204 -1.76917,0.4592 -3.94666,0.92001c-1.25403,0.26541 -2.60968,0.5202 -4.04102,0.77698c-1.48328,0.26608 -2.99976,0.52063 -4.52698,0.759c-1.51343,0.23624 -2.99139,0.46942 -5.76532,0.79733c-1.24969,0.14774 -2.40753,0.2514 -3.47705,0.33301c-0.98657,0.07529 -1.89789,0.12668 -2.73895,0.17099c-0.77698,0.04092 -1.49731,0.05954 -2.784,0.16269c-0.58154,0.04663 -1.1272,0.11353 -1.64252,0.18597c-0.49139,0.06909 -0.96161,0.14752 -1.41748,0.22202c-0.4458,0.07285 -0.88495,0.15558 -1.77338,0.25867c-0.45349,0.05261 -0.91455,0.08459 -1.37695,0.11398c-0.46027,0.02927 -0.91473,0.05124 -1.35901,0.078c-0.43042,0.02594 -0.84515,0.03891 -1.59735,0.14136c-0.33667,0.04584 -0.64502,0.10828 -0.92401,0.18597c-0.71478,0.19907 -1.68762,0.60461 -2.57599,0.64734c-0.88428,0.04251 -1.836,0 -2.60132,0c-1.00317,0 -1.6347,0 -2.82037,0c-0.82495,0 -1.42499,0 -2.745,0c-0.71997,0 -1.47998,0 -2.27997,0c-0.84003,0 -2.17499,-0.00299 -2.64001,0.00269c-0.96014,0.01175 -1.96136,0.05554 -2.47498,0.11166c-1.61035,0.1759 -2.16193,0.31796 -2.71967,0.45633c-1.12823,0.27985 -1.68304,0.45383 -2.75171,0.83832c-0.51538,0.18542 -1.90613,0.78372 -2.31097,0.991c-0.75507,0.38657 -1.74438,0.9971 -2.65601,1.60001c-0.59998,0.39679 -1.18384,0.79788 -2.04285,1.34283c-0.78552,0.49835 -1.50958,0.87598 -2.29547,1.35266c-0.7926,0.48074 -1.38007,1.05997 -2.31433,1.60001c-0.67242,0.38867 -1.64575,0.51697 -2.44751,0.92599c-0.72638,0.37057 -1.37805,0.9917 -2.1105,1.37851c-0.98029,0.51767 -1.57697,0.85968 -2.47467,1.11465c-0.98102,0.27863 -1.55026,0.2634 -2.41916,0.28085c-1.19525,0.02399 -2.09668,-0.0047 -2.6955,0.0405c-1.20367,0.09085 -1.80646,0.22192 -2.67917,0.48483c-0.84387,0.25424 -1.82669,0.69974 -2.5,0.95834c-1.0087,0.38742 -1.82935,0.4451 -2.62085,0.60483c-1.01498,0.20483 -1.78659,0.616 -2.59982,0.79465c-0.95255,0.20926 -1.82455,0.28085 -2.49567,0.82584c-0.76273,0.61935 -1.4162,1.13422 -2.18985,1.37952c-0.95679,0.30338 -1.63071,0.71722 -2.35748,1.21149c-0.85739,0.58307 -1.52808,0.71909 -2.41882,1.06168c-0.81403,0.31308 -1.75848,0.746 -2.56369,1.04282c-0.54852,0.20218 -1.61078,0.59351 -2.32199,0.90002c-0.90894,0.39172 -1.87567,0.79587 -2.40533,1.00449c-0.82465,0.32483 -1.90424,0.82983 -2.59467,1.35718c-0.4697,0.35876 -1.13586,1.02579 -1.87399,1.75949c-0.53076,0.52759 -1.06561,1.07239 -1.62601,1.569c-1.00818,0.89343 -1.73785,1.30637 -2.29102,1.758c-0.83002,0.67767 -1.25314,1.48682 -1.82831,2.25183c-0.45984,0.6116 -1.008,1.12802 -1.81183,1.75717l-0.82019,0.3255l-0.76532,0.52802l-0.41068,0.77866" id="svg_1" stroke-width="2" stroke="#000" fill="none"/>
  <path t="1339,1484,1495,1495,1507,1507,1525,1525,1532,1544,1544,1557,1557,1574,1582,1593,1593,1606,1606,1624,1624,1631,1631,1631,1642,1657,1657,1667,1667,1679,1704,1728,1752,1753,1766,1777,1789,1807,1815,1815,1827,1827,1840,1840,1840,1857,1857,1875,1875,1900,1912,1912,1925,1950,1961,1974,1999,2023,2023,2041,2042,2060,2084,2084,2122" d="m460.5,366.89999c-1.75717,1.05267 -2.66101,1.34897 -3.21066,1.61069c-0.99634,0.4744 -1.74524,0.93085 -2.62268,1.22266c-0.84415,0.28076 -1.52219,0.72592 -2.48798,1.04532c-0.65457,0.21649 -1.6282,0.39569 -2.37418,0.76868c-0.77838,0.38919 -1.71518,0.35266 -2.62582,0.35266c-0.85333,0 -1.79602,0 -2.64801,0c-0.80002,0 -1.81601,0 -2.86401,0c-0.70499,0 -1.51855,-0.15573 -2.53067,0.01068c-0.86911,0.14291 -1.50839,0.75812 -2.46133,0.96399c-0.68347,0.14767 -1.58224,0.68768 -2.37466,0.94c-0.86142,0.27429 -1.79999,0.08533 -2.59998,0.08533c-0.90002,0 -1.80002,0 -2.70001,0c-0.91068,0 -1.8215,0 -2.71066,0c-0.98935,0 -1.78934,0 -2.78934,0c-0.79999,0 -1.60001,0 -2.60001,0c-0.79999,0 -1.79868,0 -2.564,0c-0.95065,0 -1.836,0 -2.63599,0c-0.90002,0 -1.80002,0 -2.70001,0c-0.89999,0 -1.8045,0 -2.82132,0c-0.67868,0 -1.65753,0.02441 -2.47736,0c-0.95978,-0.02859 -1.854,-0.35266 -2.54865,-0.64734l-0.89551,-0.2955" id="svg_2" stroke-width="2" stroke="#000" fill="none"/>
  <path t="4923,5082,5082,5097,5097,5110,5110,5118,5118,5129,5129,5141,5180,5180,5196,5212,5212,5216,5217,5231,5231,5240,5241,5256,5256,5264,5301,5339,5387,5411,5412,5425,5425,5449,5449,5460,5461,5475,5492,5498,5523,5524,5542,5542,5547,5547,5559,5575,5596,5608,5625,5645,5658,5682,5694,5695,5708,5725,5725,5731,5731,5744,5758,5775,5776,5779,5804,5817,5841,5858,5858,5866,5867,5867" d="m333.5,302.89999c-0.97467,1.836 -1.00211,2.62759 -1.35718,3.59552c-0.28381,0.77365 -0.86606,1.5029 -1.34283,2.15717c-0.63629,0.87317 -0.96869,1.68307 -1.78265,2.078c-0.75238,0.36505 -1.50735,0.91061 -2.37866,1.13333c-0.63644,0.16269 -1.76447,0.00894 -2.62268,0.03732c-0.86465,0.02859 -1.75449,0.3688 -2.39999,0.79999c-0.76303,0.5097 -1.50525,0.90479 -2.51468,1.11469c-0.7569,0.15738 -1.67719,0.43658 -2.39999,0.79999c-0.76743,0.38583 -1.51172,0.90198 -2.40134,1.19867c-0.85764,0.28604 -1.8566,0.38129 -2.18933,0.94666c-0.54202,0.92096 -0.57397,1.78528 -0.896,2.62268c-0.27402,0.71259 -0.7861,1.51941 -1.41467,2.21149c-0.5705,0.62814 -0.9071,1.59442 -1.52148,2.18317c-0.68088,0.65247 -1.45886,0.84647 -2.08301,1.42136c-0.56372,0.51923 -1.58725,1.00095 -2.12616,1.5c-0.70557,0.65338 -1.3996,1.24893 -1.56799,2.00131c-0.19669,0.87885 -0.68753,1.62103 -0.94418,2.49869c-0.25311,0.86557 -0.05716,1.79999 -0.05716,2.69998c0,0.80002 0,1.63602 0,2.65717c0,0.74734 0,1.74152 0,2.50684c0,1.07883 0,1.936 0,2.836c0,0.80002 0,1.70001 0,2.60001c0,0.89999 -0.069,1.83286 0.2215,2.7215c0.23636,0.72305 0.7785,1.6785 1.07849,2.28302l0.40002,0.85266" id="svg_3" stroke-width="2" stroke="#000" fill="none"/>
  <path t="6359,6543,6568,6580,6580,6590,6606,6615,6615,6627,6627,6639,6639,6639,6656,6656,6664,6664,6664,6676,6676,6689,6689,6706,6707,6714,6738,6750,6750,6762,6786,6800,6811,6836,6849,6849,6860,6860,6873,6873,6873,6889,6898,6899,6909,6934,6946,6958,6972,6995,7006,7007,7033,7045,7069,7118,7118,7131,7142,7156,7173,7173,7180,7180,7204,7204,7228,7241,7258,7290,7306,7316,7326,7340,7351,7364,7388,7388,7406,7407,7413,7413,7425,7425,7440,7450,7450,7450,7462,7473,7491,7511,7523,7559,7560,7609,7609,7645,7670,7696,7696,7719,7733,7733,7744,7769,7793,7793,7806,7830,7830,7854,7855,7872,7872,7873,7879,7879,7891,7892,7906,7906,7916,7929,7929,7940,7940,7957,7957,8015,8016,8030,8031,8046,8064,8064,8065,8079,8079,8080,8090,8091,8108,8113,8124,8125,8141,8162,8223,8244,8250,8259,8275,8275,8289,8290,8297,8297,8309,8323" d="m304.5,353.89999c1.08401,1.71466 1.75024,2.28192 2.16666,3c0.42047,0.72507 1.40115,0.87604 2.13333,1.35718c0.79425,0.52194 1.30942,1.28149 2.02151,1.74283c0.67615,0.43805 1.6785,0.89999 2.2785,1.20001c0.79999,0.39999 1.79999,0.89999 2.39999,1.19998c1,0.5 1.60004,0.79999 2.39999,1.20001c0.79987,0.39996 1.61322,0.74588 2.43335,1.29999c0.67676,0.45724 1.2858,1.31137 1.96664,1.71466c0.82718,0.48996 1.59232,0.72955 2.30002,1.38519c0.59363,0.54996 1.5,0.8894 2.39999,0.90015c0.88934,0.01059 1.41183,0.63272 2.14667,1.02533c0.77408,0.41357 1.54147,0.63583 2.55334,0.85318c0.78833,0.16931 1.80124,0.08636 2.58932,0.13217c0.72794,0.0423 1.66925,0.59662 2.53183,0.86798c0.79227,0.24924 1.45712,0.79349 2.19968,1.10052c0.81268,0.336 1.77914,0.02081 2.67917,0.02081c0.89999,0 1.79999,0 2.59998,0c0.90002,0 1.64835,0.24203 2.28403,0.716c0.76883,0.57324 1.71597,0.284 2.616,0.284c0.89999,0 1.71066,0 2.62149,0c0.88916,0 1.87833,0 2.65765,0c0.99933,0 1.8197,0.01877 2.72086,0c0.86453,-0.01801 1.51505,-0.54837 2.13333,-1.16666c0.61829,-0.61829 1.10309,-1.19547 1.66666,-1.83334c0.5155,-0.58347 1.25214,-1.06839 1.58401,-1.88666c0.30725,-0.75757 0.61325,-1.52145 1.116,-2.51199c0.29575,-0.58267 0.76465,-1.46365 1.29999,-2.08051c0.6586,-0.75885 1.21747,-1.42236 1.92133,-1.91016c0.83371,-0.57776 1.59583,-0.45984 2.51617,-0.66336c0.92215,-0.20392 1.56281,-0.61066 2.45184,-0.95798c0.74115,-0.28955 0.95309,-1.30316 1.61066,-1.98935c0.48926,-0.51053 1.30304,-1.12411 1.71466,-1.79999c0.51309,-0.8425 1.0148,-1.41617 1.452,-2.20001c0.36359,-0.65189 1.28387,-1.22537 1.66669,-2.16666c0.24985,-0.61438 0.49023,-1.47772 1.08398,-2.11868c0.65875,-0.71112 1.2446,-1.05374 1.83984,-1.81467c0.60922,-0.77878 0.86115,-1.54071 1.56433,-2c0.6745,-0.44058 1.68411,-0.88913 2.46783,-1.29999c0.55759,-0.2923 1.43637,-0.92883 2.09467,-1.39999c0.74567,-0.53372 1.46265,-0.90103 2.36334,-1.49551c0.63617,-0.41989 1.74817,-0.40811 2.41931,-1.03781c0.55719,-0.5228 0.78479,-1.63614 1.33334,-2.16669c0.67767,-0.65543 0.96399,-1.32339 1,-2.33331c0.02823,-0.79153 0,-1.81934 0,-2.51401c0,-1.02734 0,-1.97452 0,-2.71518c0,-0.7095 0,-1.90414 0,-2.57748c0,-0.9975 0,-2.09552 0,-2.79752c0,-0.96249 -0.13657,-1.91913 0.284,-2.76248c0.32993,-0.66165 0.71375,-1.5 0.716,-2.40002c0.00223,-0.89999 0,-1.79999 0,-2.69998c0,-0.90134 0,-1.86667 0,-2.52533c0,-1.008 0,-1.80002 0,-2.82733l0,-0.69467l0,-1.01666l0,-0.936" id="svg_4" stroke-width="2" stroke="#000" fill="none"/>
  <path t="8914,9084,9084,9096,9096,9112,9112,9112,9112,9129,9130,9130,9130,9131,9135,9135,9135,9135,9152,9152,9152,9162,9162,9163,9174,9181,9181,9192,9207,9208,9224,9224,9230,9242,9242,9242,9257,9257,9257,9267,9267,9280,9280,9291,9291,9307,9307,9317,9317,9327,9341,9365,9378,9390,9390,9414,9426,9441,9458,9464,9464,9475,9476,9490,9500,9500,9512,9513,9523,9549,9549,9561,9573,9599,9599,9622,9622,9647,9647,9660,9660,9673,9690,9690,9708,9725,9733,9733,9745,9758,9774,9774,9783" d="m395.5,308.89999c-1.82535,-0.44666 -2.57999,-0.83063 -3.24734,-1.65717c-0.42105,-0.52148 -0.9198,-1.34247 -1.40982,-1.95633c-0.55405,-0.69406 -0.98053,-1.22177 -1.54285,-2.25067c-0.42822,-0.78354 -0.79953,-1.65686 -1,-2.09583c-0.39905,-0.87375 -0.98935,-2.10266 -1.39548,-2.82117c-0.37408,-0.66183 -0.75937,-1.24545 -1.38318,-2.29733c-0.40384,-0.68094 -0.73996,-1.34213 -1.3425,-2.12134c-0.62393,-0.80685 -1.09167,-1.32596 -1.62817,-2.16415c-0.47766,-0.74628 -1.29382,-1.14368 -1.88266,-1.836c-0.61166,-0.71918 -1.16287,-1.34604 -2.00134,-1.63333c-0.84158,-0.28836 -1.5437,-0.71066 -2.5,-1c-0.65662,-0.19867 -1.46872,-0.10278 -2.74515,-0.388c-0.69803,-0.15598 -1.50754,-0.5553 -2.3215,-0.69336c-0.79218,-0.13437 -1.79984,-0.08533 -2.76401,-0.08533c-0.952,0 -1.72,0 -2.672,0c-0.76532,0 -1.75949,0 -2.50684,0c-1.02118,0 -1.95715,0 -2.85718,0c-0.89999,0 -1.79999,0 -2.59998,0c-0.90002,0 -1.80002,0 -2.70001,0c-0.91068,0 -1.82132,0 -2.67465,0c-0.94135,0 -1.70935,0 -2.6507,0c-1.008,0 -1.79999,0 -2.65866,0c-0.86331,0 -1.82761,-0.17883 -2.616,0.2215c-0.81046,0.41153 -1.23956,1.27377 -2.10001,1.69452c-0.85385,0.41754 -1.52948,0.82614 -2,1.56799c-0.42749,0.67401 -0.91611,1.48251 -1.39999,2.14133c-0.61966,0.84366 -1.08929,1.51172 -1.31467,2.48935c-0.1998,0.8667 -0.18481,1.67712 -0.58533,2.38531c-0.50333,0.89005 -0.96991,1.56357 -1.64932,2.10001c-0.71185,0.56204 -1.13602,1.31601 -1.9505,1.62149l-0.61484,0.57983l-0.28085,0.89868" id="svg_5" stroke-width="2" stroke="#000" fill="none"/>
  <path t="14734,14891,14907,14928,14928,14952,14967,14976,14976,14991,15014,15042,15050,15075,15099,15124,15148,15173,15191,15191,15197,15210,15223,15239,15239,15247,15258,15258,15273,15274,15291,15308,15334,15334,15349,15364,15365,15381,15406,15406,15424,15432,15447,15469,15482,15483,15497,15512,15517,15540,15540,15562,15591,15612,15613,15617,15634,15645,15645,15656,15657,15657,15664,15664,15676,15676,15689,15706,15713,15713,15737,15762,15774,15799,15823,15839,15849,15872,15872,15897,15909,15909,15923,15923,15940" d="m378.5,368.89999c0.05716,-1.69998 0.51559,-2.50516 1.20001,-3.19998c0.49622,-0.50375 1.13461,-1.30548 2,-1.716c0.75745,-0.35931 1.24719,-0.90585 1.82532,-1.64801c0.48611,-0.62402 1.25989,-1.11441 1.89066,-1.72c0.57288,-0.55002 0.96106,-1.43298 1.69467,-1.70532c0.83426,-0.30972 1.62045,-0.48718 2.48935,-0.88934c0.66202,-0.3064 1.55453,-0.60291 2.28934,-1.09601c0.69327,-0.46524 1.14197,-1.29898 1.96249,-1.66815c0.85867,-0.38635 1.69998,-0.66443 2.40533,-1.00452c0.85071,-0.41016 1.6326,-0.30533 2.60684,-0.77798c0.77771,-0.37732 1.66867,-0.70026 2.23599,-1.18533c0.7467,-0.63843 1.34735,-1.45117 1.89999,-1.8685c0.73969,-0.55859 1.63837,-0.90692 2.29999,-1.23685c0.84338,-0.42056 1.59143,-0.49686 2.28403,-1c0.68848,-0.50015 1.74142,-0.27243 2.43198,-0.284c1.07379,-0.01801 1.83026,-0.52179 2.58401,-0.87866c0.85406,-0.40436 1.49545,-0.70575 2.39999,-1.12134c0.79608,-0.36578 1.5929,-0.92462 2.064,-1.60001c0.51169,-0.73358 0.436,-1.7045 0.436,-2.56665c0,-0.85416 0,-1.83334 0,-2.63333c0,-0.80002 0,-1.80002 0,-2.60001c0,-0.99866 0,-1.76401 0,-2.71466c0,-0.98535 0,-1.88535 0,-2.68533c0,-0.89999 0,-1.80002 0,-2.70001c0,-0.89999 0,-1.79999 0,-2.69998c0,-0.90002 0,-1.80002 0,-2.60001c0,-0.836 0,-1.85718 0,-2.60449l0,-0.99417l0,-0.76535l-0.00134,-0.95065" id="svg_6" stroke-width="2" stroke="#000" fill="none"/>
  <path t="18945,19239,19239,19251,19263,19274,19292,19323,19361,19379,19434,19447,19447,19471,19495,19507,19523,19532,19556,19557,19581,19605,19605,19630,19667,19667,19679,19691,19716,19741,19741,19756,19757,19777,19801,19802" d="m378.5,371.89999c1,1.16669 1.64798,1.56543 2.2955,2.30002c0.58374,0.6622 0.9855,1.37332 1.58316,1.92133c0.63812,0.58508 1.33405,0.62823 2.22116,0.77884c0.85236,0.14471 0.99136,1.25632 1.70151,1.71448c0.70972,0.45789 1.69867,0.28534 2.59866,0.28534c0.89999,0 1.80002,0 2.70016,0c0.78519,0 1.72519,0 2.73318,0c0.75598,0 1.70688,0.04196 2.65067,-0.284c0.70825,-0.2446 1.75482,-0.41812 2.39465,-0.93732c0.67712,-0.54944 1.28799,-0.94534 2.12134,-1.27869c0.83334,-0.33331 1.63834,-0.55267 2.16666,-1.33331l0.83334,-0.33334l0.60001,-0.40799" id="svg_7" stroke-width="2" stroke="#000" fill="none"/>
  <path t="24189,24421,24433,24433,24434,24445,24445,24457,24457,24457,24476,24476,24482,24493,24493,24505,24530,24542,24555,24579,24579,24591,24605,24616,24628,24628,24640,24640,24655,24655,24655,24665,24665,24665,24677,24677,24677,24677,24689,24689,24704,24704,24726,24726,24738,24739,24756,24764,24775,24800,24824,24849,24849,24861,24875,24888,24888,24898,24898,24910,24911,24911,24934" d="m304.5,319.89999c0,-2.52081 0,-3.54282 0,-4.26132c0,-0.7905 0,-1.81717 0,-2.71783c0,-1.02084 -0.0018,-1.82083 0,-2.62085c0.00226,-0.99548 -0.10831,-1.81619 0.35718,-2.64282c0.48734,-0.86548 1.38394,-1.29095 1.60681,-2.15717c0.22443,-0.87231 0.03601,-1.79999 0.03601,-2.70001c0,-0.89999 -0.19595,-1.73441 0.05716,-2.59998c0.25665,-0.87766 0.91425,-1.60309 0.94284,-2.46667c0.02759,-0.83289 0,-1.81216 0,-2.64316c0,-0.96085 -0.00006,-1.73184 0,-2.59283c0.00009,-0.89734 -0.02054,-1.7995 0.05716,-2.69736c0.07819,-0.90326 0.29507,-1.79559 0.51752,-2.664c0.14105,-0.55072 0.39212,-1.77768 0.42084,-2.63147c0.02707,-0.80405 0.00449,-1.60452 0.00449,-2.60452c0,-0.97916 0,-1.83331 0,-2.6955c0,-0.90451 0.1441,-1.67294 0.64734,-2.35718c0.48999,-0.6662 0.35266,-1.58331 0.35266,-2.4313c0,-0.86334 0,-1.88 0,-2.81601c0,-0.90134 0,-1.58533 0,-2.54666c0,-0.84 0,-1.836 0,-2.63251l0,-0.7515l0,-1.09735" id="svg_8" stroke-width="2" stroke="#000" fill="none"/>
  <path t="27284,27491,27503,27503,27516,27517,27531,27550,27550,27563,27563,27563,27574,27588,27606,27624,27639,27655,27655,27661,27673,27688,27704,27710,27710,27722,27739,27748,27759,27797,27797,27820,27820,27837,27845,27857,27857,27871,27871,27888,27906,27932,27944,27944,27955,27971,27980,27980,27992,28004,28022,28022,28022,28030,28042,28054,28055,28071" d="m307.5,279.89999c-1.16934,-0.88666 -1.677,-1.68228 -2.18533,-2.13867c-0.74841,-0.67194 -1.63165,-0.91516 -2.33551,-1.38214c-0.82343,-0.54633 -1.49939,-0.98038 -2.47916,-1.47919c-0.59064,-0.30069 -1.2471,-0.73608 -1.97916,-1.47916c-0.56711,-0.57562 -1.23547,-1.06961 -1.85419,-1.6875c-0.6192,-0.61838 -1.40915,-0.93375 -1.88132,-1.63467c-0.47879,-0.71075 -0.90338,-1.509 -1.20001,-2.39865c-0.28595,-0.85767 -0.21185,-1.83191 -0.69598,-2.40002c-0.63519,-0.74533 -0.97464,-1.54956 -1.556,-2.23331c-0.5676,-0.66757 -1.11957,-1.24265 -1.85419,-1.64584c-0.90964,-0.49924 -1.67465,-0.57352 -2.47916,-1.02084c-0.8045,-0.44733 -1.668,-0.66324 -2.32535,-0.92532c-1.0101,-0.40274 -1.78421,-0.40207 -2.67465,-0.59549c-0.84634,-0.18384 -1.6655,-0.70255 -2.5,-1.14584c-0.63391,-0.33673 -0.93478,-1.36539 -1.35266,-2.13333c-0.45758,-0.84091 -0.64667,-1.5 -0.64734,-2.40001c-0.00073,-0.972 0,-1.84267 0,-2.55066c0,-0.98134 0,-1.935 0,-2.84933l0,-0.90001l0,-0.79999l0,-0.90001" id="svg_9" stroke-width="2" stroke="#000" fill="none"/>
  <path t="32219,32415,32444,32459,32464,32474,32489,32505,32506,32511,32511,32524,32524,32538,32555,32555,32560,32584,32598,32598,32610,32610,32621,32646,32647,32659,32660,32672,32689,32689,32708,32732,32745,32782,32808,32808,32832,32832,32861,32918,32944,32945,32957,32973,32979,32979,33003,33015,33040,33065,33101,33163,33199,33272,33298,33298,33322,33339,33347,33359,33371,33387,33387,33407,33421,33421,33445,33520,33557,33605,33630,33789,33814,33839,33839,33863,33864,33878,33899,33911,33935,34011,34012,34035,34072,34096,34110,34120,34137,34144,34157,34170,34187,34193,34194,34231,34254,34343,34392,34392,34440,34460,34461,34466,34477,34477,34488,34504,34525,34550,34563,34575,34587,34611,34624,34673,34693,34710,34746,34797,34797,34815,34830,34858,34871,34887,34887,34894,34894,34906,34906,34922,34922,34931,34932,34942,34942,34954,34979,34979,35003,35004,35021" d="m269.5,241.89999c0,1.8 0.35489,2.79266 -0.03601,3.56401c-0.35379,0.6981 -0.86325,1.24777 -1,2.07199c-0.14481,0.87286 -0.62518,1.55215 -0.8425,2.56401c-0.16931,0.78831 -0.01447,1.80833 -0.14233,2.75833c-0.10989,0.81641 -0.74252,1.51849 -1.00449,2.19099c-0.35083,0.90059 -1.28848,1.1931 -1.97467,1.85066c-0.51053,0.48926 -1.11844,1.31253 -1.79999,1.71466c-0.76813,0.45319 -1.71103,0.51907 -2.54733,0.98984c-0.79599,0.44806 -1.3493,0.99438 -2.05267,1.6955c-0.70114,0.69888 -1.15726,1.24585 -1.89999,1.89551c-0.66446,0.58121 -1.24623,1.15363 -1.98668,1.61917c-0.74847,0.47061 -1.71333,0.08533 -2.69183,0.08533c-0.82016,0 -1.62151,0 -2.54233,0c-0.96317,0 -1.65384,0 -2.722,0c-0.85718,0 -1.75717,0 -2.55717,0c-0.89999,0 -1.80005,0.00955 -2.7,0c-0.97934,-0.01041 -1.63835,-0.44934 -2.216,-1.08398c-0.58859,-0.64667 -1.09827,-1.24713 -1.50533,-2.01602c-0.40105,-0.75754 -0.77333,-1.49994 -0.77867,-2.39999c-0.00533,-0.89996 0,-1.79999 0,-2.69998c0,-0.90018 0,-1.68535 0,-2.62535c0,-1.008 0,-1.76399 0,-2.67467c0,-0.89999 0,-1.79999 0,-2.7c0,-0.89999 0.45325,-2.07391 -0.2215,-2.6785c-0.66063,-0.59195 -1.66383,-0.12151 -2.60384,-0.12151c-0.69067,0 -1.76401,0 -2.67467,0c-0.89999,0 -1.85007,-0.13165 -2.60001,0.22134c-0.77551,0.36504 -1.55893,0.82149 -1.95267,1.48317c-0.46669,0.78429 -0.72421,1.62201 -0.94865,2.49416c-0.20612,0.80092 -0.98067,1.23683 -0.99867,2.20134c-0.0168,0.89984 0.15352,1.84846 -0.16667,2.59999c-0.33284,0.7812 -0.65332,1.60861 -1.19049,2.2955c-0.58171,0.74387 -1.64284,0.7045 -2.44284,0.7045c-0.836,0 -1.85266,0 -2.54733,0c-1.02733,0 -1.99815,0.16516 -2.79134,-0.03598c-0.8624,-0.21872 -1.27722,-1.04657 -1.914,-1.61136c-0.70145,-0.62216 -1.25847,-1.11624 -1.89465,-1.70532c-0.57559,-0.53297 -1.16455,-1.12671 -1.70001,-1.7c-0.64001,-0.68523 -1.02293,-1.49411 -1.70982,-1.89017c-0.81854,-0.47197 -1.68965,-0.36403 -2.44284,-0.77316c-0.79752,-0.43321 -1.25627,-0.9865 -1.7,-1.78401c-0.44647,-0.80247 -0.5,-1.66666 -0.5,-2.52083c0,-0.97917 -0.02371,-1.76877 0,-2.8125c0.01801,-0.7926 0.31438,-1.64055 0.57466,-2.37733c0.34467,-0.97569 0.36334,-1.7702 0.42551,-2.76782c0.05128,-0.82298 0.56825,-1.50998 1.09967,-2.34283c0.41821,-0.65544 0.77866,-1.65717 0.89566,-2.37418l0.0405,-0.9045" id="svg_10" stroke-width="2" stroke="#000" fill="none"/>
  <path t="35828,36085,36085,36135,36171,36187,36187,36196,36196,36207,36207,36221,36222,36244,36257,36270,36281,36293,36318,36330,36342,36342,36355,36355,36355,36372,36372,36380,36380,36380,36391,36391,36405,36405,36421,36429,36440" d="m207.5,230.89999c-1,-1 -1.8,-1 -2.7,-1c-0.82083,0 -1.78534,0 -2.51067,0c-0.98933,0 -1.78934,0 -2.78934,0c-0.78934,0 -1.83333,0 -2.6955,0c-0.90451,0 -1.8045,0.00226 -2.7045,0c-0.89552,-0.00224 -1.47414,-0.54138 -2.12083,-1c-0.70099,-0.49712 -1.64285,-0.8483 -2.31517,-0.97466c-1.15942,-0.21791 -1.77283,-0.36288 -2.564,-0.72984c-1.01189,-0.46933 -1.57414,-0.85854 -2.60001,-1.12883c-0.78558,-0.20699 -1.63133,-0.1562 -2.5955,-0.52834c-0.59328,-0.22899 -1.383,-0.95949 -1.88367,-1.61749l-0.62067,-0.778l-0.77866,-0.46434l-0.12167,-0.87833" id="svg_11" stroke-width="2" stroke="#000" fill="none"/>
  <path t="37436,37643,37656,37656,37669,37669,37686,37692,37693,37705,37705,37720,37720,37731,37754,37770,37779,37791,37803,37828,37840,37854,37854,37870,37878,37878,37889,37889,37903,37914,37914,37926,37926,37938,37963,37988,37988,38025,38049,38049,38049,38062,38073,38087,38104,38111,38123,38123,38138,38154,38184,38383,38411,38425,38467,38479,38491,38504,38504,38541,38565,38577,38591,38603,38626,38639,38663,38664,38676,38687,38687,38712,38736,38761,38761,38761,38786,38803,38811,38822,38837,38837,38854,38854,38854,38860,38860,38860,38872,38872,38872,38886,38886,38886,38897,38897,38908,38932,38933,38946" d="m177.5,220.89999c-0.97917,-1.02083 -0.99806,-1.97865 -1,-2.75266c-0.00226,-0.90002 -0.05576,-1.77563 -0.42534,-2.62201c-0.42006,-0.96196 -0.55763,-1.64609 -0.57466,-2.62534c-0.01373,-0.78928 -0.16078,-1.8364 -0.5,-2.47916c-0.43532,-0.82484 -0.3502,-1.73343 -0.50017,-2.62067c-0.144,-0.85202 -0.98183,-1.3356 -0.99983,-2.20016c-0.01874,-0.89981 0,-1.8 0,-2.70001c0,-0.79999 0,-1.63599 0,-2.65717c0,-0.74733 0.0016,-1.7415 0,-2.50682c-0.00226,-1.07884 -0.30887,-1.88707 -0.64734,-2.59317c-0.40762,-0.85036 -0.34796,-1.59016 -0.35266,-2.60684c-0.00432,-0.93599 -0.19272,-1.76086 -0.80133,-2.43599c-0.5726,-0.63518 -1.22992,-1.34917 -1.588,-2.02534c-0.3573,-0.67468 -0.73737,-1.62305 -1.25801,-2.22733c-0.56573,-0.6566 -1.04546,-1.38617 -1.74199,-1.93266c-0.61862,-0.48538 -0.70465,-1.56816 -1.46133,-1.95334c-0.84624,-0.43076 -1.95078,-0.63933 -2.08768,-1.414c-0.13518,-0.76489 1.33833,-0.64734 2.23834,-0.64734c0.89999,0 1.8,0 2.7,0c0.8,0 1.7,0 2.60001,0c0.89999,0 1.74355,0.06696 2.42532,0.57468c0.64081,0.47722 1.4955,0.42532 2.45866,0.42532c0.86334,0 1.81287,-0.14844 2.61601,0.22134c0.77858,0.35846 1.53828,0.73587 2.31065,1.21466c0.80167,0.49695 1.38696,1.02022 2.10535,1.27867c1.0425,0.37508 1.98399,0.28532 2.88399,0.28532c0.90451,0 1.76668,0 2.62083,0c0.97917,0 1.78984,0 2.43634,0c1.22816,0 1.77882,0 2.64734,0c1.19533,0 2.08482,0 2.6595,0c1.06932,0 2,0 2.83466,0c0.99684,0 1.74417,0 2.776,0l0.94667,0l0.67867,0l0.9785,0" id="svg_12" stroke-width="2" stroke="#000" fill="none"/>
  <path t="39868,40087,40100,40100,40113,40113,40125,40125,40125,40136,40137,40137,40153,40153,40153,40161,40161,40172,40173,40187,40203,40204,40210,40210,40223,40223,40238,40238,40254,40254,40254,40259,40259,40259,40259,40271,40272,40272,40272,40287,40287,40287,40297,40297,40308,40309,40333,40333,40346,40370,40386,40407,40420,40420,40436,40436,40443,40443,40455,40456,40456,40470,40470,40470,40481,40481,40481,40493,40493,40517,40517,40518,40541,40541,40554,40570,40579,40591,40591,40604,40621,40621,40621,40628,40629,40639,40639,40640,40654,40654,40671,40677,40677,40689,40713,40713,40725,40726,40750,40750,40764" d="m206.5,183.89999c2.5,-0.5 3.31667,-0.92891 4.21066,-0.98932c0.98714,-0.06671 1.80449,0.04924 2.78934,-0.17734c0.61349,-0.14114 1.39192,-0.55457 2.40134,-1.032c0.61475,-0.29076 1.27388,-0.57562 2.28267,-0.716c0.81073,-0.11281 1.63274,-0.04674 2.85432,-0.08983c0.80124,-0.02826 1.7226,-0.33093 2.26033,-0.79684c0.74855,-0.64857 1.51767,-1.12698 2.37601,-1.18799c0.93904,-0.06674 1.72656,-0.0524 2.66133,-0.44667c0.7814,-0.32959 1.564,-0.76401 2.364,-1.164c0.8,-0.40001 1.60481,-0.84013 2.31433,-1.04283c1.10867,-0.31671 1.79956,-0.31041 2.52734,-0.33633c0.76703,-0.02731 1.95833,-0.02084 2.75566,-0.02084c0.78133,0 1.88834,0 2.86934,0c0.819,0 1.72433,0 2.73332,0c0.8,0 1.79984,0 2.57918,0c0.85416,0 1.71632,0 2.62083,0c0.89999,0 1.79999,0 2.7045,0c0.86217,0 1.6955,0 2.67416,0c0.774,0 1.68298,0 2.483,0c0.95984,0 1.77432,-0.00006 2.64282,0c1.19534,0.00009 1.79315,-0.03252 2.65952,0.03601c1.07394,0.08493 2.00763,0.38269 2.6315,0.6685c1.01773,0.46628 1.5769,0.86519 2.60449,1.12883c0.78516,0.20145 1.60001,0.16599 2.59549,0.16666c0.74734,0.0005 1.74493,0.02878 2.42535,0.5c0.67221,0.46556 1.64975,0.66411 2.06183,1.30135c0.46344,0.71664 1.23865,1.51999 1.74268,2.024c0.52197,0.52197 1.29065,1.29066 1.79999,1.79999c0.69598,0.69598 1.37466,1.37466 1.89066,1.89067c0.72684,0.72684 1.28268,1.28267 1.98401,1.98399c0.70001,0.70001 1.27191,1.13583 1.88934,1.90001c0.60263,0.74586 0.68597,1.48849 1.03598,2.436c0.28366,0.76794 0.522,1.75499 0.62735,2.44966l0.522,0.729" id="svg_13" stroke-width="2" stroke="#000" fill="none"/>
  <path t="43870,43980,43981,43981,43993,43993,43993,43993,43993,43993,44004,44004,44004,44004,44004,44019,44019,44019,44019,44029,44030,44030,44030,44030,44041,44042,44042,44053,44054,44054,44070,44070,44079,44090,44090,44103,44103,44103,44120,44120,44128,44128,44128,44139,44139,44139,44152,44152,44152,44152,44153,44169,44170,44170,44170,44170,44177,44177,44189,44189,44204,44204,44220,44225,44238,44254,44263,44263,44275,44275,44288,44288,44304,44304,44313,44313,44324,44324,44324,44337,44337,44338,44354,44354,44354,44361,44361,44372,44373,44397,44398,44410,44410,44422,44422,44436,44447,44447,44458,44458,44458,44458,44471,44471,44471,44487,44487,44487,44487,44496,44496,44496,44508,44508,44508,44521,44521,44537,44537,44546,44546,44546,44557,44571,44586,44587,44595,44595,44595,44605,44606,44621,44621,44637,44638,44643,44643,44644,44656,44656,44656,44670,44671,44671,44687,44687,44693,44729,44754" d="m298.5,174.89999c-1.20401,-2.68666 -1.53296,-3.55728 -1.87149,-4.16165c-0.57928,-1.03415 -1.1774,-1.72729 -1.49551,-2.091c-0.66281,-0.75786 -1.38794,-1.49608 -1.75165,-1.86334c-1.05594,-1.06624 -1.3848,-1.40938 -2.056,-2.02666c-0.63901,-0.58765 -1.27542,-1.145 -2.34668,-1.71468c-0.71109,-0.37814 -1.48892,-0.61867 -2.22601,-0.948c-1.10251,-0.49261 -1.77756,-0.94768 -2.40598,-1.44533c-0.61163,-0.48436 -1.1171,-1.03851 -2.16269,-1.77867c-0.659,-0.46649 -1.3634,-0.77953 -2.36667,-1.17067c-0.79297,-0.30916 -1.58002,-0.5426 -2.50299,-1.09549c-0.63611,-0.38104 -1.46814,-0.67747 -2.29965,-0.98984c-0.74417,-0.27956 -1.71469,-0.81468 -2.31467,-1.11467c-0.80002,-0.40001 -1.78546,-0.93071 -2.40002,-1.164c-0.98022,-0.3721 -1.82431,-0.412 -2.48532,-0.52c-1.00928,-0.1649 -1.87592,-0.44133 -2.53351,-0.6205c-1.11246,-0.30312 -1.94885,-0.50198 -2.8425,-0.68483c-0.45871,-0.09386 -1.3866,-0.28444 -2.772,-0.444c-0.87662,-0.10097 -1.70911,-0.13823 -2.48398,-0.15599c-0.71057,-0.01628 -1.91068,-0.01068 -2.62018,-0.01068c-1.04117,0 -1.81517,0 -2.71516,0c-0.86334,0 -1.82651,0 -2.74733,0c-0.90001,0 -1.8,0 -2.70018,0c-0.78516,0 -1.73582,-0.00174 -2.50116,0c-0.99419,0.00226 -1.76596,-0.00586 -2.784,0.42534c-0.60068,0.25443 -1.62593,0.50891 -2.40001,0.60001c-1.05023,0.1236 -1.76572,0.32228 -2.66733,0.67917c-0.97279,0.38507 -1.49152,0.6185 -2.32201,0.8595c-1.0491,0.30443 -1.9888,0.41391 -2.62082,0.4315c-1.00281,0.02792 -1.99994,-0.0654 -2.85184,0.36166c-0.69397,0.3479 -1.41808,0.92146 -2.10001,1.34283c-0.91805,0.56728 -1.51581,1.11411 -2.478,1.26399c-0.6833,0.10645 -1.79872,0.0038 -2.48817,0.39767c-0.78958,0.45108 -1.4453,0.96959 -2.37315,1.46367c-0.66956,0.35654 -1.34778,0.68848 -2.27051,1.15332c-0.78242,0.39417 -1.49928,0.76006 -2.46417,1.34267c-0.53604,0.32367 -1.34958,0.85936 -1.89465,1.19467c-0.99329,0.61105 -1.68974,0.97395 -2.36801,1.368c-1.00739,0.58524 -1.54042,0.92712 -2.30617,1.46333c-0.87833,0.61505 -1.56184,1.27046 -2.21249,1.85268c-0.58873,0.52681 -1.56763,0.99152 -2.2765,1.29999c-0.67104,0.29201 -1.2907,1.12822 -1.88249,1.7955c-0.6424,0.72432 -1.56404,0.47803 -2.47166,1.03784c-0.64362,0.39697 -0.99168,1.25209 -1.81934,1.9095c-0.4906,0.38969 -1.47636,0.94096 -2.04283,1.45717c-0.74533,0.67921 -1.25752,1.13745 -2.07516,1.5c-0.7563,0.33536 -1.63083,0.60353 -2.52917,0.89983c-0.88835,0.293 -1.73393,0.5871 -2.77867,0.77884c-0.68082,0.12495 -1.5368,0.14981 -2.517,0.474c-0.7627,0.25226 -1.64732,0.59016 -2.60449,0.64732l-0.90001,0" id="svg_14" stroke-width="2" stroke="#000" fill="none"/>
  <path t="46498,46701,46701,46702,46703,46713,46713,46713,46713,46713,46713,46713,46732,46732,46751,46751,46770,46770,46782,46782,46807,46807,46826,46827,46833,46833,46854,46854,46868,46868,46868,46868,46880,46880,46903,46939,46939,46953,46953,46953,46954,46970,46970,46970,46970,46977,46977,46977,46977,46977,46990,46990,46990,47003,47003,47003,47020,47020,47020,47026,47038,47038,47055,47064,47087,47104,47124,47124,47148,47173,47210,47210" d="m293.5,171.89999c0.28799,-2.06 0.44531,-2.74347 0.68268,-3.53999c0.27542,-0.92426 0.64651,-1.96156 0.85983,-2.5235c0.44958,-1.18434 0.69708,-1.78067 0.93665,-2.37401c0.45758,-1.1333 0.69086,-1.64581 1.15668,-2.93349c0.29224,-0.80782 0.67874,-1.6559 1.38501,-2.12901c0.7926,-0.53096 1.46347,-0.99472 2.07916,-1.59999c0.6051,-0.59486 1.35025,-1.28804 1.69998,-1.87067c0.58936,-0.9818 0.65479,-1.83539 1.20001,-2.52934c0.56992,-0.72539 1.33392,-1.20671 1.60001,-1.79332c0.4603,-1.01477 0.70255,-2.00565 0.87915,-2.68584c0.17047,-0.6566 0.25385,-1.79492 0.57352,-2.70734c0.26782,-0.7644 1.02505,-1.43886 1.61932,-1.94949c0.84061,-0.72231 1.33124,-1.03424 2.14932,-1.53867c0.57385,-0.35384 1.77774,-0.95012 2.40002,-1.20001c0.64706,-0.25984 1.35181,-0.50276 2.52115,-0.94666c0.86017,-0.32652 1.73721,-0.67731 2.17084,-0.85333c0.83441,-0.33871 1.92654,-0.79428 2.77866,-1.18935c0.69818,-0.3237 1.70538,-0.84436 2.32886,-1.136c0.6604,-0.3089 1.66479,-0.69221 2.45831,-1c0.75439,-0.29262 1.6196,-0.95892 2.52084,-1.33333c0.75439,-0.3134 1.62903,-0.23219 2.08401,-0.968c0.4241,-0.68585 1.36182,-1.07408 2.116,-1.48267c0.65005,-0.35217 1.5,-0.7115 2.43597,-0.716l0.84802,0l0.86331,0" id="svg_15" stroke-width="2" stroke="#000" fill="none"/>
  <path t="48230,48364,48377,48388,48389,48402,48413,48413,48425,48438,48462,48474,48486,48486,48511,48523,48524,48524,48535,48536,48553,48553,48560,48572,48586,48603,48609,48634,48634,48646,48671,48686,48696,48696,48708,48720,48745" d="m337.5,130.89999c0.05716,-1.7 0.51559,-2.50514 1.20001,-3.19999c0.49622,-0.50376 1.1828,-1.21761 1.89999,-1.89983c0.58633,-0.55774 1.45764,-0.83815 1.92532,-1.51083c0.50253,-0.72281 1.2283,-1.17837 2.07468,-1.61067c0.6553,-0.33472 1.46838,-0.71955 2.2215,-1.2215c0.75497,-0.50317 1.25436,-1.11007 2.07718,-1.67184c0.74374,-0.50779 1.53824,-1.04566 2.19064,-1.44933c0.76874,-0.47564 1.73306,-0.23792 2.60934,-0.43733c0.80429,-0.18303 0.61786,-1.37543 1.02283,-2.0985c0.41296,-0.73736 1.43094,-0.94688 1.83118,-1.60467c0.4798,-0.78854 1.146,-1.4955 1.66199,-2.0955l0.33801,-0.84283l0.74866,-0.44117l0.67783,-0.43684" id="svg_16" stroke-width="2" stroke="#000" fill="none"/>
  <path t="49567,49715,49715,49727,49727,49739,49739,49739,49752,49752,49752,49770,49770,49770,49770,49770,49776,49776,49777,49777,49777,49777,49788,49788,49788,49788,49788,49788,49788,49803,49803,49803,49803,49819,49819,49819,49825,49825,49837,49837,49853,49853,49862,49874,49874,49887,49902,49902,49911,49912,49912,49923,49936,49936,49954,49954,49960,49960,49972,49973,49986,50002,50010,50021,50036,50058,50059,50070,50086,50095,50107,50119,50120,50136,50145,50156,50156,50170,50170,50185,50186,50193,50193,50194,50205,50206,50206,50206,50219,50220,50220,50236,50236,50243,50243,50254,50255,50269,50270,50280,50280,50292,50292,50292,50304,50304,50304,50320,50320,50320,50328,50328,50329,50340,50341" d="m360.5,108.9c0.01068,-1.836 0.01428,-2.62344 0.35718,-3.6c0.28894,-0.82289 0.78094,-1.58353 1.12198,-2.42084c0.26593,-0.65292 0.4437,-1.66653 0.52084,-2.54166c0.05783,-0.6559 0.15628,-1.77238 0.28534,-2.60817c0.13947,-0.90313 0.32397,-1.85092 0.41916,-2.33833c0.29135,-1.49181 0.4006,-1.99033 0.591,-3c0.09653,-0.51183 0.27771,-1.56174 0.34732,-2.10533c0.21967,-1.71552 0.24002,-2.32777 0.27316,-2.951c0.06717,-1.26358 0.08264,-1.89307 0.10934,-2.512c0.026,-0.60307 0.11313,-2.26006 0.26001,-3.18c0.1265,-0.79224 0.2933,-1.47573 0.71466,-2.576c0.27487,-0.71774 0.65433,-1.33221 0.87851,-2.36666c0.17078,-0.78802 0.12149,-1.8 0.12149,-2.58933c0,-1.04401 -0.09924,-1.91469 0.02084,-2.73151c0.14523,-0.98785 0.67416,-1.61867 0.89383,-2.59383c0.19547,-0.86769 0.1171,-1.70606 0.36932,-2.65333c0.19638,-0.73751 0.53079,-1.44642 0.67999,-2.57067c0.10904,-0.82158 0.00012,-1.662 0.03616,-2.64c0.02859,-0.77557 0.39514,-1.66306 0.64719,-2.42583c0.323,-0.9775 0.34726,-1.75946 0.35266,-2.71017c0.00562,-0.98515 0.50723,-1.49432 0.94284,-2.2425c0.42511,-0.73013 0.24582,-1.77082 0.76166,-2.34283c0.65579,-0.7272 1.52783,-0.98147 2.21149,-1.584c0.59766,-0.52674 1.2995,-0.98386 1.884,-1.51733c0.7197,-0.65689 1.49847,-1.17006 2.30017,-1.19867c0.7847,-0.028 1.73584,0 2.50116,0c1.00317,0 1.85583,0 2.82019,0c0.81448,0 1.68298,0 2.57849,0c0.89999,0 1.79999,0 2.39999,0c1.19867,0 2.07916,0 2.91467,0c0.99866,0 1.84012,-0.05174 2.80133,0.00134c0.77142,0.0426 1.7016,0.47809 2.48532,0.71466c0.98044,0.29594 1.79895,0.26077 2.79868,0.28534c0.80054,0.01967 1.60156,0.16049 2.41068,0.424c0.87637,0.28543 1.87424,0.49493 2.71017,0.57467c0.58337,0.05564 1.78201,0.20855 2.66849,0.42533c0.57675,0.14104 1.64401,0.408 2.57468,0.54933l0.6315,0.078l1.00317,0.23133l0.76532,0.29066" id="svg_17" stroke-width="2" stroke="#000" fill="none"/>
  <path t="50844,51029,51041,51041,51052,51053,51053,51053,51069,51069,51069,51069,51070,51077,51078,51078,51078,51078,51078,51090,51090,51090,51090,51090,51090,51090,51103,51103,51103,51103,51103,51103,51120,51120,51120,51120,51120,51126,51126,51126,51126,51139,51139,51139,51152,51153,51153,51169,51169,51169,51176,51176,51176,51188,51188,51188,51188,51203,51203,51203,51203,51214,51214,51214,51224,51224,51224,51225" d="m414.5,51.9c0.57468,1.6 0.95593,2.44143 1.16934,3.056c0.35345,1.01791 0.69934,1.65362 1.052,2.376c0.37775,0.77375 0.98026,1.96737 1.37866,2.7725c0.20078,0.40577 0.60599,1.22871 1,2.08083c0.40619,0.8785 0.7988,1.80103 1.01349,2.26733c0.43845,0.95227 0.65506,1.44611 1.24249,2.36333c0.60449,0.94385 1.39233,1.80499 1.81552,2.22234c0.42883,0.4229 1.35632,1.22027 1.84198,1.6c0.48639,0.38033 1.98447,1.44255 2.48386,1.775c0.49197,0.32752 1.46027,0.94615 1.93066,1.24c0.89996,0.5622 1.73944,1.07874 2.50266,1.56133c0.70874,0.44816 1.37894,0.88305 2.052,1.284c1.03091,0.61411 1.76349,1.00069 2.49649,1.3805c0.70908,0.36741 1.6875,0.85418 2.5065,1.26367c0.69302,0.3465 1.7236,0.84009 2.31433,1.16783c0.81342,0.45129 1.59262,1.08401 2.22086,1.58933c0.65555,0.52729 1.39252,0.99587 2.21515,1.37466c0.86035,0.39617 1.7695,0.78182 2.36401,1.10934c0.90866,0.50058 1.48398,0.89427 2.39999,1.34933c0.88553,0.43991 1.49719,0.65388 2.39999,0.96533c0.89728,0.30953 1.8067,0.59497 2.39999,0.83733c1.21466,0.4962 1.80002,0.84666 2.40002,1.17867l0.89999,0.4755" id="svg_18" stroke-width="2" stroke="#000" fill="none"/>
  <path t="52146,52342,52355,52355,52369,52369,52369,52380,52380,52380,52392,52392,52392,52392,52403,52403,52403,52419,52419,52428,52428,52440,52440,52441,52453,52453,52453,52470,52470,52470,52470,52479,52480,52480,52480,52490,52490,52490,52490,52503,52503,52503,52503,52519,52519,52519,52528,52528,52539,52553,52570,52570,52576,52588,52588,52603,52603,52613,52613,52625,52625,52637,52638,52654,52663,52663,52674,52674,52674,52687,52688,52688,52703,52704,52704,52704,52713,52713,52713,52723,52724,52724,52735,52736,52736,52753,52772,52773,52773,52785,52786,52803,52810,52833,52846,53030,53030,53042,53042,53055,53055,53069,53069,53069,53069,53091,53091,53091,53239,53325,53338,53399,53411,53423,53435,53435,53453,53453,53460,53460,53472,53486,53486,53503,53503,53510,53521,53521,53537,53537,53553,53553,53558,53558,53571,53571,53587,53596,53596,53608,53631,53645,53681,53705,53718,53736,53743,53754,53769,53786,53786,53792,53792,53804,53804,53819,53820,53828,53828,53840,53840,53853,53853,53869,53870,53878,53878,53889,53903,53920,53939,54000,54049,54061,54073,54086,54087,54103,54103,54111,54111,54122,54122,54137,54137,54152,54153,54160,54160,54172,54186,54203,54258,54271,54271,54271,54285,54286,54286,54286,54295,54295,54295,54296,54307,54307,54307,54308,54319,54320,54320,54337,54337,54345,54356,54381,54406" d="m383.5,72.9c1.05267,1.75716 1.35968,2.66059 1.61066,3.24667c0.39328,0.91833 0.71234,1.69752 0.95334,2.528c0.30444,1.04912 0.40256,1.77616 0.43152,2.73517c0.02484,0.82314 0.00449,1.7955 0.00449,2.49017c0,0.69466 0,1.957 0,2.728c0,0.86934 -0.05872,1.87868 0.05716,2.672c0.14825,1.01493 0.55557,1.79899 0.94284,2.6c0.39145,0.80965 0.7023,1.44454 0.87866,2.4215c0.14569,0.80709 0.13,1.69004 0.34268,2.87866c0.10892,0.60877 0.37247,1.53197 0.49466,2.18517c0.19287,1.03094 0.23868,1.77135 0.26315,2.5355c0.03778,1.18005 0.02084,2.379 0.02084,3.17467c0,0.78366 0,1.54733 0,2.63783c0,0.68133 0,1.64583 0,2.26216c0,1.20417 0,2.08317 0,2.89017c0,1.04367 0,1.81167 0,2.71433c0,0.936 -0.10764,1.79804 0.05716,2.64734c0.17963,0.92573 0.76117,1.65717 0.99551,2.40983c0.28201,0.90579 0.67773,1.62865 0.862,2.6415c0.13763,0.75655 -0.00378,1.7327 0.17065,2.48534c0.22598,0.975 0.63025,1.63213 0.91467,2.61599c0.28491,0.98546 0.61481,1.70865 1,2.5c0.39359,0.80861 0.6962,1.44565 0.87885,2.42151c0.15109,0.8074 0.16302,1.70276 0.4545,2.57849c0.30676,0.92172 0.68613,1.47998 1.18399,2.31467c0.59705,1.00098 0.95554,1.68217 1.36667,2.28401c0.56512,0.82726 1.1319,1.40614 1.71732,2.00133c0.79074,0.80391 1.33423,1.41312 1.91336,1.82933c0.92462,0.66452 1.80258,1.01872 2.32132,1.42134c0.75922,0.58928 1.63055,0.79068 2.44968,1.19749c0.79938,0.39702 0.59912,1.65607 1.32498,1.94116c0.82831,0.32533 1.74579,0.32384 2.18933,0.89734c0.68359,0.88391 0.9118,1.50146 1.116,2.51466c0.16629,0.82521 0.2301,1.77057 0.44119,2.55583c0.23111,0.85982 0.44763,1.44301 0.84149,2.64017c0.28299,0.86018 0.40057,1.66789 0.74866,2.58383c0.30792,0.81026 0.90555,1.89375 1.62735,1.77217c0.77008,-0.12971 0.40024,-1.58974 0.42667,-2.43866c0.02866,-0.92043 0.21268,-1.71716 0.49866,-2.49384c0.36926,-1.00284 0.61343,-1.80333 1,-2.54167c0.41077,-0.78459 0.4039,-1.74963 0.94266,-2.45766c0.56564,-0.74333 1.23962,-1.33781 1.89069,-2.02151c0.57791,-0.60686 1.56799,-0.6738 2.25598,-1.06133c0.83853,-0.47234 1.09335,-1.3522 1.89334,-1.77066c0.7554,-0.39514 1.3876,-1.04819 1.60001,-1.68533c0.33426,-1.00269 0.91147,-1.7298 1.71732,-2.19734c0.73163,-0.42448 1.56845,-0.42943 2.25269,-0.93266c0.6662,-0.48999 1.77405,-0.24393 2.42648,-0.8735c0.58029,-0.55995 0.88373,-1.41473 1.52084,-1.97917c0.62085,-0.55003 1.15717,-1.10265 1.75717,-1.85182c0.5271,-0.65813 1.26996,-1.08624 2.07617,-1.64818c0.67004,-0.46703 1.33667,-1.23715 1.92383,-1.7c0.69284,-0.54616 1.44809,-0.85448 2.35883,-1.5c0.66046,-0.46812 1.36221,-1.01315 2.09467,-1.39999c0.97998,-0.51759 1.53979,-0.89503 2.62268,-1.23334c0.73679,-0.23018 1.60406,-0.23203 2.19199,-0.74133c0.64862,-0.56192 1.45731,-1.03285 1.88934,-1.71066c0.49313,-0.77364 0.61978,-1.49617 1.06,-2.16133c0.50156,-0.75786 0.59872,-1.52802 0.90399,-2.53201c0.23077,-0.75902 0.46866,-1.68315 0.82584,-2.42583c0.38498,-0.80049 0.75607,-1.59899 1.2955,-2.42883c0.44745,-0.68835 0.83691,-1.49624 1.02533,-2.34133c0.21216,-0.95158 0.82053,-1.59092 0.96399,-2.42533c0.15253,-0.88705 0.01068,-1.8 0.01068,-2.7045c0,-0.86217 0.0004,-1.758 0,-2.46751c-0.00067,-1.19733 0.00101,-1.88983 -0.03601,-2.61333c-0.03748,-0.7327 -0.23898,-2.13442 -0.39999,-2.8c-0.16415,-0.67863 -0.38,-1.38036 -0.66382,-2.55717c-0.20639,-0.85582 -0.3905,-1.73461 -0.543,-2.595c-0.2056,-1.15993 -0.29645,-1.80351 -0.33633,-2.57916c-0.05453,-1.06064 -0.02084,-1.882 -0.02084,-2.78333l0,-0.9l0,-0.9l0,-0.9" id="svg_19" stroke-width="2" stroke="#000" fill="none"/>
  <path t="57427,57561,57573,57573,57585,57585,57585,57603,57603,57610,57610,57611,57622,57623,57623,57623,57623,57623,57637,57637,57637,57637,57637,57653,57653,57653,57653,57653,57653,57660,57660,57660,57660,57660,57671,57671,57671,57671,57686,57686,57686,57703,57703,57709,57721,57746,57757,57770,57770,57786,57795,57795,57807,57807,57820,57820,57836,57836,57845,57845,57856,57869" d="m422.5,69.9c0.52084,-2.47916 1.31165,-3.13483 1.64282,-3.81433c0.43463,-0.89174 0.28467,-1.69768 0.44119,-2.41767c0.24954,-1.1479 0.83072,-1.71595 1.39865,-2.54134c0.3497,-0.50826 0.88138,-1.42762 1.18399,-2.56c0.22003,-0.82331 0.22913,-1.27637 0.33334,-2.1875c0.10648,-0.93087 0.09894,-1.4123 0.44299,-2.758c0.22647,-0.8857 0.59641,-1.74293 0.77835,-2.1825c0.37665,-0.90995 0.78732,-1.86871 1.17734,-2.90667c0.20129,-0.53567 0.58258,-1.63129 0.76532,-2.18133c0.18094,-0.54464 0.67163,-2.11666 0.81448,-2.6075c0.26865,-0.92309 0.49872,-1.7812 0.71701,-2.577c0.30182,-1.10024 0.49036,-1.78411 0.8045,-2.7245c0.28711,-0.85941 0.6911,-1.86043 1,-2.52084c0.29163,-0.62348 0.70383,-1.67692 1.20001,-2.3065c0.58774,-0.74575 1.12836,-1.34047 1.65717,-2.00983c0.58545,-0.74104 1.608,-0.92778 2.24283,-1.27917c0.87994,-0.48707 1.72644,-0.36114 2.61066,-0.46133c1,-0.11331 1.79666,-0.43778 2.62268,-0.964c0.69241,-0.44111 1.483,-0.92136 2.16666,-0.97917c0.97522,-0.08246 1.79868,-0.10617 2.564,-0.6315l0.42133,-0.77867" id="svg_20" stroke-width="2" stroke="#000" fill="none"/>
  <path t="59600,59783,59783,59783,59797,59797,59797,59809,59809,59809,59820,59820,59820,59820,59834,59834,59834,59852,59852,59853,59858,59858,59858,59870,59870,59870,59870,59885,59885,59885,59885,59885,59885,59895,59896,59896,59896,59896,59896,59896,59906,59906,59906,59906,59906,59906,59919,59919,59919,59919,59919,59919,59936,59936,59936,59936,59936,59944,59944,59944,59944,59944,59945,59945,59955,59955,59956,59956,59956,59956,59956,59956,59968,59969,59969,59969,59969,59969,59969,59969,59985,59986,59986,59986,59986,59986,59993,59993,59993,59993,60005,60005,60005,60005,60018,60018,60019,60036,60036,60042,60042,60042,60054,60054,60054,60069,60069,60070,60070,60070,60080,60080,60080,60080,60080,60080,60080,60091,60091,60091,60091,60091,60092,60103,60103,60103,60103,60103,60104,60119,60119,60120,60120,60129,60130,60140,60140,60153,60153,60169,60170,60177,60190,60202,60202,60219,60220,60226,60226,60238,60263,60336,60351,60373,60373,60401,60475,60484,60508,60532" d="m494.5,146.89999c2.95715,0.009 3.53558,-0.03519 4.40134,0.17067c1.22772,0.29193 1.79315,0.68169 2.36267,1.01468c1.07938,0.63112 1.78586,1.0575 2.46133,1.43999c0.94489,0.53506 1.73346,1.01682 2.25381,1.39551c0.76779,0.55876 1.40591,1.15823 2,1.97916c0.42392,0.58577 0.99423,1.41089 1.54169,2c0.5683,0.61154 1.37915,1.39999 1.97916,2c0.39999,0.40001 1.19464,1.20636 1.83197,1.82133c0.47174,0.45517 1.0163,0.95839 2.03253,1.8215c0.38855,0.33 1.24097,1.02167 1.698,1.37801c0.94592,0.73756 1.43488,1.10583 2.4375,1.8125c0.49658,0.34999 1.49603,1.01318 1.98932,1.34132c0.97577,0.64908 1.4599,0.96909 1.92535,1.30934c1.3833,1.01118 1.80615,1.39297 2.64935,2.14133c0.41827,0.37122 0.82111,0.75398 1.63464,1.49068c0.79724,0.72191 1.60028,1.39963 2.39069,2.05865c0.38995,0.32515 1.16113,0.96967 1.52533,1.30934c1.08673,1.01346 1.73102,1.77309 2.02795,2.17332c0.59918,0.80774 0.90552,1.23094 1.52405,2.67601c0.21417,0.50035 0.52905,1.58406 0.672,2.14934c0.14624,0.5784 0.40778,1.78386 0.54401,2.40532c0.28046,1.27945 0.43481,1.93449 0.60266,2.59734c0.34253,1.35275 0.53418,2.03586 0.72534,2.72534c0.1925,0.6942 0.39008,1.39081 0.78931,2.78932c0.19977,0.69975 0.39862,1.39774 0.59998,2.091c0.39734,1.36813 0.59808,2.0376 0.80005,2.69467c0.19806,0.64426 0.59265,1.88354 0.99866,3.041c0.19336,0.55124 0.57965,1.59032 0.76532,2.08c0.34906,0.92061 0.82025,2.14845 1.07886,2.8835c0.2417,0.68712 0.46185,1.35529 0.75714,2.3765c0.20648,0.71416 0.49152,1.81493 0.70001,2.5235c0.28833,0.98001 0.62024,1.78641 0.86401,2.48851c0.35052,1.00952 0.42554,1.82115 0.43597,2.82132c0.00842,0.81062 0,1.68535 0,2.68668c0,0.855 0,1.47499 0,2.48c0,1.104 0,1.91667 0,2.35201c0,0.93866 0,1.98132 0,3.13466c0,0.60918 0,1.23334 0,2.50667c0,0.63918 0,1.27333 0,2.50667c0,1.164 0,1.7235 0,2.8125c0,0.53551 0,1.6035 0,2.6875c0,1.11467 0,1.677 0,2.79167c0,0.54433 0,1.58699 0,2.54166c0,0.84268 0,1.91667 0,2.52934c0,1.04916 0,1.94983 0,2.97066c0,0.78934 0,1.83334 0,2.62534c0,0.85867 0,1.722 0,2.73868c0,0.836 0,1.73616 0,2.52133c0,0.95067 0,1.71599 0,2.71017c0,0.74731 0,1.76849 0,2.7045c0,0.89999 0,1.79999 0,2.69998c0,0.80002 0,1.70001 0,2.60001l0,0.89999l0,0.89999l0,0.90002" id="svg_21" stroke-width="2" stroke="#000" fill="none"/>
  <path t="62694,62866,62866,62879,62879,62903,62903,62903,62927,62952,62952,62976,63002,63025,63050,63050,63067,63068,63087,63087,63124,63174,63187,63187,63209,63246,63259,63283,63320,63334,63382,63430,63444,63467,63504,63504,63518,63535,63554,63579,63579,63591,63591,63602,63618,63628,63628,63640,63640,63651,63668,63668,63677" d="m361.5,247.89999c0,-1.836 -0.02869,-2.60185 0.00449,-3.60449c0.02826,-0.85382 0.20609,-1.81952 0.42084,-2.61017c0.21146,-0.77844 0.53198,-1.81186 0.57468,-2.78534c0.03506,-0.79922 0,-1.7 0,-2.59999c0,-0.81067 -0.00061,-1.72133 0,-2.57466c0.00067,-0.94135 0.06107,-1.71844 0.42532,-2.65068c0.27271,-0.69795 0.40152,-1.67181 0.58536,-2.57466c0.19241,-0.94501 0.8783,-1.32466 1.46848,-2.10001c0.55905,-0.73447 1.05331,-1.38054 1.52084,-2.02083c0.57593,-0.78874 0.5369,-1.87503 1.28534,-2.39383c0.67322,-0.46664 1.91913,0.2986 2.59332,-0.30684c0.61758,-0.5546 0.7785,-1.58598 1.72134,-1.76782c0.88376,-0.17046 1.83746,0.07054 2.60132,-0.29468c0.72986,-0.34898 1.6431,-0.60518 2.31467,-0.8c1.00763,-0.29233 1.80661,-0.65422 2.48401,-1.24933c0.62955,-0.55309 0.93509,-1.63818 0.99551,-2.36217c0.07822,-0.93724 0.00449,-1.7885 0.00449,-2.65182l0,-1.01668" id="svg_22" stroke-width="2" stroke="#000" fill="none"/>
  <path t="64858,65102,65138,65187,65224,65236,65298,65420,65457,65531,65544,65581,65678,65690,65702,65717,65740,65764,65764,65788,65801,65801,65820,65826,65838,65852,65852,65869,65886,65912,65923" d="m364.5,227.89999c1.70001,0 2.70001,0 3.60001,0c0.89999,0 1.79999,0.00067 2.69998,0c0.89868,-0.00067 1.56342,-0.32605 2.12534,-0.97466c0.50931,-0.58791 0.57468,-1.42534 0.57468,-2.32533c0,-0.90001 -0.39438,-2.08244 0.28534,-2.61467c0.72339,-0.56644 1.74896,-0.21008 2.41467,-0.78984c0.6351,-0.55309 1.43323,-1.08356 2.09998,-1.3795c0.85779,-0.38075 1.64133,-0.79985 2.40002,-1.2c0.85837,-0.45271 1.59998,-0.71466 2.51465,-0.80133l0.36935,-0.716l0.52664,-0.76266l0.77869,-0.41066" id="svg_23" stroke-width="2" stroke="#000" fill="none"/>
  <path t="67104,67349,67386,67410,67434,67451,67459,67459,67520" d="m299.5,268.89999c1.79999,0 2.71976,0.1571 3.5,-0.02081c0.96204,-0.21939 1.60001,-0.85785 2.5,-1.14584l0.60001,-0.40799l0.89999,-0.40451" id="svg_24" stroke-width="2" stroke="#000" fill="none"/>
  <path t="70714,70836,70848,70848,70848,70861,70861,70861,70872,70872,70885,70885,70902,70902,70921,70921,70935,70935,70952,70983,71001,71020,71044,71068,71093,71093,71106,71106,71216,71234,71242,71242,71253,71253,71268,71269,71269,71269,71279,71279,71279,71279,71290,71290,71302,71302,71319,71319,71328,71339,71363,71363,71376,71377,71387,71401,71401,71401,71419,71419,71419,71419" d="m342.5,340.89999c-0.64667,-1.60001 -1.30777,-2.1261 -2.04166,-2.5c-0.63385,-0.32294 -1.63556,-0.71921 -2.45834,-0.97916c-0.80984,-0.25586 -1.81885,-0.40744 -2.68933,-0.54617c-1.01654,-0.16202 -1.81805,-0.44833 -2.64401,-0.97467c-0.56232,-0.35834 -1.49094,-0.86319 -2.16666,-1c-0.98315,-0.19907 -1.40811,-0.85159 -2.02533,-1.564c-0.52689,-0.60815 -1.57468,-0.436 -2.47467,-0.436c-0.89999,0 -1.8045,0 -2.66666,0c-0.83334,0 -1.81229,-0.02771 -2.63202,0c-0.84561,0.02859 -1.19907,0.76169 -1.20132,1.65717c-0.00186,0.74734 -0.07657,1.75458 0.07199,2.57883c0.17148,0.95135 0.6308,1.72806 0.96967,2.28485c0.54276,0.89185 1.16019,1.77768 1.55383,2.37466c0.57141,0.86658 0.93253,1.41125 1.51917,2.41785c0.37305,0.64008 0.85001,1.54898 1.38535,2.16583c0.6586,0.75885 1.13608,1.29245 1.89999,1.91016c0.74478,0.60223 1.5466,0.87424 2.35718,1.258c0.85229,0.4035 1.59015,0.3504 2.61749,0.35266c0.94717,0.00208 1.68784,0 2.39734,0c1.19733,0 1.88934,0 2.61334,0l0.73199,0" id="svg_25" stroke-width="2" stroke="#000" fill="none"/>
  <path t="72542,72738,72751,72767,72768,72776,72776,72788,72802,72819,72837,72861,72861,72898,72923,72972,72996,73083,73100,73108,73119,73135,73135,73145,73145,73181,73193,73205,73205,73218,73234,73254,73279,73292,73292,73303,73303,73317,73317,73328,73328" d="m363.5,330.89999c-0.57468,-1.60001 -0.96295,-2.41068 -1.00015,-3.32132c-0.03488,-0.85336 -0.36688,-1.74747 -0.71585,-2.47733c-0.36523,-0.76385 -0.4549,-1.64435 -0.93134,-2.31119c-0.47406,-0.66354 -0.35266,-1.72348 -0.35266,-2.58566c0,-0.90451 0,-1.8045 0,-2.7045c0,-0.89999 -0.33105,-2.05276 0.28534,-2.51468c0.73514,-0.5509 1.81467,-0.08533 2.71466,-0.08533c0.75717,0 1.65274,-0.00934 2.51599,0c0.96335,0.01044 1.80807,0.33191 2.48401,1c0.58566,0.57889 0.97467,1.38934 1.5,2c0.52533,0.61069 1.07355,1.35095 1.37851,2.32135c0.20569,0.65451 0.12149,1.65732 0.12149,2.43134c0,0.90448 0,1.84866 0,2.84732l0,0.79999" id="svg_26" stroke-width="2" stroke="#000" fill="none"/>
  <path t="75452,75612,75612,75624,75624,75624,75637,75637,75637,75650,75650,75661,75661,75673,75673,75673,75685,75685,75700,75700,75700,75701,75710,75710,75711,75711,75723,75723,75723,75723,75734,75735,75751,75751,75751,75759,75759,75771,75784,75784,75801,75801,75820,75820,75834,75834,75852,75858,75858,75869,75884,75885,75885,75901,75901,75907,75919,75919,75935,75944,75944,75956,75956,75956,75968,75968,75969,75969,75985,75985,75985,75994,75994,75994,76004,76018" d="m373.5,258.89999c1.84668,0.01068 2.69583,0.0441 3.68399,0.28534c0.82507,0.20142 1.3699,0.40247 2.3945,0.81451c0.90671,0.36465 1.51004,0.66382 2.52151,0.84747c0.79391,0.14417 1.81165,0.31073 2.60001,0.66336c1.0162,0.45453 1.57727,0.84131 2.39999,1.10397c0.98322,0.3139 1.66742,0.26013 2.82166,0.72818c0.55826,0.22638 1.41547,0.7616 2.065,1.07449c1.02057,0.49164 1.76315,0.73468 2.51334,0.96185c0.74463,0.22546 1.83377,0.51935 2.51334,0.71948c0.94562,0.27847 1.79037,0.57233 2.80133,0.716c0.86911,0.1235 1.88684,0.05304 2.68533,0.10617c0.60214,0.04007 1.58585,0.35754 2.34283,0.6265c1.02005,0.36243 1.97568,0.58096 2.65717,0.85266c0.97476,0.38864 1.7757,0.49161 2.65268,0.85718c0.71686,0.29883 1.40555,0.92633 2.146,1.35748c0.75452,0.43936 1.55667,0.96625 1.84415,1.63718c0.42352,0.9884 0.49963,1.82529 0.87802,2.66901c0.26382,0.58826 0.8158,1.55688 1.12198,2.32199c0.353,0.88211 0.45416,1.90482 1.15851,2.37183c0.74225,0.49216 1.69025,0.55704 2.40933,0.89603c0.99857,0.47073 1.6066,0.78799 2.24649,1.14648c0.97473,0.54608 1.77499,1.07458 2.35352,1.41751c0.58685,0.34787 1.78445,0.94858 2.37866,1.18933c0.84863,0.34381 1.88901,0.73599 2.564,1.03598l0.76001,0.40002l0.85068,0.58932l0.73599,0.48917" id="svg_27" stroke-width="2" stroke="#000" fill="none"/>
 </g>
 <g display="none">
  <title>muse_image</title>
  <image xlink:href="http://static.flickr.com/66/188557420_6bca26c8d5.jpg" id="muse" height="480" width="640" y="0" x="0"/>
 </g>
 <g display="none">
  <title>bbox</title>
  <rect stroke="#f00" fill="none" stroke-width="3" height="391.68" width="453.12" y="0" x="186.88" id="bbox"/>
 </g>
</svg>
