<svg width="640" height="480" xmlns="http://www.w3.org/2000/svg" xmlns:svg="http://www.w3.org/2000/svg" xmlns:xlink="http://www.w3.org/1999/xlink">
 <!-- Sketchy ANNOTATION
  ImageNet ID: n02395406_9081
  URL: http://farm3.static.flickr.com/2126/2062075713_24cab6c01c.jpg
  Image Width: 500
  Image Height: 483
  BBox X: 56
  BBox Y: 0
  BBox Width: 284
  BBox Height: 479
  Exposure: 2000ms
  Synset Label: pig
  Synset ID: n02395406
  Worker Tag: a black pig
  Sanity Check: 
   Context
   Saved
   Shading
  Comment: 
   {}
  Worker ID: AKDCGQKFLU04S
  Assignment ID: 3G5F9DBFOPXWGM10T1Y9GJ1TKXPVH5
  HIT ID: 35A1YQPVFEGDR3ZB3QTFNDDO6KVI5S
  Work Time: 213s
  Worker Score: 0.9286
 END ANNOTATION -->
 <g display="inline">
  <title>Layer 1</title>
  <path t="0,234,235,236,255,255,255,279,279,279,279,311,311,311,312,312,335,335,335,335,335,336,336,359,359,359,359,359,360,360,360,383,383,383,383,383,407,407,408,439,440,463,463,487,487,487,511,511,535,535,535,567,567,567,597,597,597,619,619,619,639,639,663,663,695,695,719,720,720,720,743,743,743,767,767,767,794,794,795,823,823,823,849,849,850,850,850,871,871,871,898,898,898,898,929,929,929,951,951,952,952,975,975,975,975,975,999,999,999,999,999,999,1023,1023,1023,1023,1103,1103,1133,1133,1151,1151,1151,1151,1175,1175,1175,1175,1175,1255,1255,1255,1279,1279,1303,1335,1335,1335,1360,1360,1360,1385,1385,1385,1385,1385,1385" d="m278,317.5c2.68399,-1.20001 3.50406,-1.48917 4.31601,-1.79999c1.00653,-0.38531 1.69019,-0.73212 2.45334,-0.91467c1.1857,-0.28366 1.91312,-0.25763 2.68799,-0.27466c0.83051,-0.01825 2.16434,-0.01068 2.62933,-0.01068c0.95999,0 1.95999,0 2.47501,0c1.60498,0 2.16016,0 2.72632,0c1.16934,0 1.77451,0 2.39468,0c1.28931,0 2.65067,0 3.3595,0c0.72183,0 1.44965,0 2.17648,0c0.71884,0 1.42267,0 2.75735,0c1.19064,0 2.19751,-0.00873 3.04398,0.01068c0.72693,0.01666 1.38516,0.01331 2.57733,0.27466c0.87195,0.19113 1.66345,0.45825 2.43335,0.91467c0.75226,0.44598 1.46619,0.9826 2.17999,1.43597c0.80289,0.50995 1.39639,1.00446 2.13217,1.71133c0.64615,0.62076 1.29324,1.26746 1.97833,1.97433c0.50146,0.51743 1.08884,1.09048 1.43582,2.09967c0.26727,0.77734 0.23849,1.62598 0.24301,2.65735c0.00403,0.92133 0,1.60532 0,2.60532c0,0.81601 0,1.63202 0,2.63068c0,0.87466 0.00018,1.88516 0,2.66449c-0.00024,0.99966 -0.12769,1.86215 -0.66415,2.56369c-0.57745,0.75516 -1.11005,1.23019 -1.56918,1.77448c-0.82333,0.97598 -1.22513,1.67581 -1.64932,2.28134c-0.57526,0.82123 -1.13348,1.40591 -1.71866,2.00134c-0.79236,0.80624 -1.39862,1.40005 -1.79868,1.79999c-0.80038,0.80014 -1.40073,1.44077 -2.17151,2c-0.89478,0.6492 -1.67731,1.00421 -2.08649,1.19101c-0.83569,0.3815 -1.67157,0.73483 -2.84201,1.07565c-0.63928,0.18616 -1.46725,0.26202 -2.66666,0.5c-0.7933,0.15741 -1.34027,0.33475 -2.14935,0.63467c-1.01056,0.3746 -1.69608,0.72153 -2.45334,0.99866c-1.18866,0.43497 -1.89941,0.60382 -2.65198,0.76401c-0.77829,0.16568 -1.978,0.32901 -2.78769,0.37885c-0.83185,0.05121 -1.70532,0.05405 -2.16165,0.05582c-1.47202,0.00574 -1.99734,0.00134 -3.07999,0.00134c-0.54935,0 -1.64401,0.00003 -2.18134,0c-1.52451,-0.00009 -2.44052,0.008 -3.26385,-0.02084c-0.72412,-0.02536 -1.89731,-0.09109 -2.54166,-0.5c-0.86533,-0.54913 -1.2345,-1.15115 -2.1055,-2.02216c-0.47134,-0.47134 -0.99866,-0.99866 -1.56601,-1.56601c-0.89099,-0.89099 -1.49686,-1.48285 -2.06967,-2.091c-0.55774,-0.59216 -1.09985,-1.1676 -1.67816,-2.09964c-0.35559,-0.57309 -0.76376,-1.40802 -1.02167,-2.55734c-0.15988,-0.71243 -0.16467,-1.71234 0.32135,-2.46451c0.35992,-0.55704 1.12073,-1.24731 1.67316,-2.08249c0.42053,-0.6358 0.7771,-1.44809 1.20566,-2.46118c0.34741,-0.82126 0.52502,-1.28549 0.92502,-2.31082l0.215,-0.56616l0.22501,-0.60318" id="svg_1" stroke-width="2" stroke="#000" fill="none"/>
  <path t="2257,2407,2431,2431,2431,2455,2455,2455,2455,2479,2479,2479,2479,2503,2503,2535,2535,2535,2559,2559,2585,2585,2607,2607,2631,2631,2631,2632,2663,2663,2687,2687,2711,2711,2711,2735,2736,2736,2759,2759,2759,2791,2791,2818,2818,2842,2843,2863,2863,2888,2888,2921,2921,2921,2943,2943,2943,2967,2991,2992,2992,3015,3015,3015,3047,3047,3047,3048,3071,3071,3095,3095,3143,3149,3149,3149,3161,3161,3175,3175,3175,3201,3224,3247,3247,3271,3271,3295,3327,3375,3479,3503,3583,3607,3608,3634,3657,3683,3683,3683,3683,3711,3711,3735,3735,3761,3761,3785,3786,3806,3807,3807,3839,3839,3839,3870,3870,3888,3888,3888,3911,3911,3935,3935,3935,3967,3967,3967,3991,3991,4015,4015,4039,4039,4039,4069,4070,4070,4070,4095,4119,4143,4225,4247,4247,4271,4295,4295,4319,4319,4349,4349,4375,4375,4375,4399,4399,4399,4399,4423,4423,4423,4423,4423,4454,4455,4455,4455,4455,4475,4475,4475,4476,4476,4476,4503,4503,4503,4503,4503,4527,4527,4527,4527,4527,4559,4575,4575,4599,4599,4631,4631,4631,4655,4655,4655,4680,4680,4704,4705,4705,4727,4727,4759,4759,4782,4783,4807,4807,4831,4831,4959,4986,5015,5039,5067,5068,5087,5087,5087,5111,5111,5111,5111,5143,5143,5143,5191,5191,5191,5215,5239,5239,5263,5295,5295,5295,5295,5321,5321,5322,5343,5343,5343,5367,5367,5390,5391,5422,5470,5471,5494,5495,5495,5519,5519,5550,5551,5551,5575,5575,5604,5604,5623,5647,5647,5703,5703,5704,5704,5732,5732,5732,5756,5756,5775,5776,5880" d="m322,321.5c0,-2.52084 0,-3.543 0,-4.272c0,-0.83701 0,-2.02817 0,-2.63251c0,-0.93149 0,-1.58081 0,-2.61667c0,-1.09348 0.0004,-1.81747 0,-2.50949c-0.00067,-1.19867 0.0751,-1.94568 -0.16666,-2.96933c-0.19403,-0.8215 -0.64777,-1.59363 -1.03201,-2.39999c-0.37833,-0.79395 -0.65521,-1.80411 -0.80133,-2.57916c-0.1897,-1.00623 -0.55682,-1.53024 -1.16666,-2.35419c-0.49399,-0.66742 -1.00461,-1.43536 -1.26401,-1.98398c-0.45935,-0.97144 -0.51706,-1.88803 -0.79068,-2.88269c-0.22467,-0.8168 -0.61514,-1.79938 -0.7305,-2.40448c-0.16241,-0.85184 -0.47946,-1.82269 -0.89883,-2.62085c-0.29083,-0.5535 -0.85965,-1.5957 -1.03949,-2.3175c-0.20966,-0.84146 -0.40164,-1.85291 -0.68451,-2.62115c-0.3497,-0.94983 -0.42307,-1.64584 -0.42532,-2.604c-0.00171,-0.73199 0,-1.89865 0,-2.71115c0,-1.00751 0,-1.76752 0,-2.6875c0,-0.78601 -0.00613,-1.60803 0,-2.66669c0.00534,-0.92004 -0.01208,-1.72641 0.436,-2.54132c0.46848,-0.85199 0.98224,-1.46344 1.26401,-2.08701c0.42822,-0.94763 0.68936,-1.78311 1.05716,-2.64282c0.3873,-0.90533 0.72958,-1.49188 1.22198,-2.37466c0.3136,-0.56226 0.78409,-1.59769 1,-2.47919c0.24954,-1.01877 0.57767,-1.55106 1.1875,-2.375c0.49399,-0.66742 1.00427,-1.43552 1.26401,-1.98398c0.46011,-0.97162 0.50406,-1.92502 1.01199,-2.88251c0.33597,-0.63333 0.93866,-1.34764 1.496,-2.1535c0.45746,-0.66144 1.2655,-1.21333 1.66135,-1.832c0.50531,-0.78978 1.04367,-1.36375 1.6955,-2.11467c0.57867,-0.66664 1.18768,-1.30717 1.61917,-1.98534c0.49313,-0.77504 0.03754,-1.81593 0.08533,-2.71466c0.04272,-0.80341 0.56308,-1.46786 0.95184,-2.30901c0.45859,-0.9922 0.75528,-1.70248 1.069,-2.21182c0.49225,-0.79915 1.12064,-1.77823 1.4375,-2.4375c0.41238,-0.85802 0.53632,-1.66696 0.54166,-2.69884c0.00388,-0.74731 -0.03949,-1.74687 0.03601,-2.57883c0.08493,-0.93596 0.29935,-1.72372 0.57465,-2.53868c0.36099,-1.06865 0.71484,-1.7565 0.95334,-2.41466c0.36063,-0.99515 0.42557,-1.8105 0.436,-2.81067c0.00833,-0.79996 -0.02875,-1.60054 0.00449,-2.60451c0.02826,-0.85382 0.21326,-1.8179 0.42084,-2.63148c0.14679,-0.57533 0.43784,-1.76085 0.51752,-2.65501c0.0744,-0.83498 0.05716,-1.77567 0.05716,-2.58817c0,-1.00749 0,-1.7675 0,-2.6875c0,-0.7905 0,-1.644 0,-2.83333c0,-0.59734 0,-1.45833 0,-2.22934c0,-1.09866 0,-2.07066 0,-2.97066c0,-0.90001 0,-1.8 0,-2.60001c0,-0.836 0,-1.85716 0,-2.60449c0,-0.9955 -0.01285,-1.79559 0.00015,-2.7955c0.01041,-0.8002 0.13715,-1.81035 0.43585,-2.61067c0.24478,-0.65585 0.66833,-1.60962 0.97467,-2.44667c0.22842,-0.62419 0.46964,-1.31656 0.91064,-2.48549c0.32764,-0.86842 0.50882,-1.31671 0.85333,-2.24251c0.34616,-0.93021 0.66257,-1.84676 0.94269,-2.73067c0.27176,-0.85748 0.53448,-1.71275 0.6925,-2.13666c0.49402,-1.32538 0.95468,-2.23384 1.19998,-2.70001c0.50122,-0.95255 0.77646,-1.42146 1.3075,-2.36333c0.51694,-0.91681 0.99997,-1.7966 1.22101,-2.22684c0.4277,-0.83243 0.8313,-1.64027 1.29501,-2.85716c0.30048,-0.7885 0.53046,-1.56519 0.72,-2.29201c0.1694,-0.64961 0.2403,-1.89038 0.61331,-2.70799c0.32193,-0.70569 1.08279,-1.46191 1.39734,-2.21066c0.32303,-0.76894 0.41614,-1.59952 0.43466,-2.47467c0.02112,-0.99846 -0.02615,-1.81993 0.08667,-2.63066c0.14038,-1.00879 0.52322,-1.87434 0.91467,-2.68401c0.38727,-0.80101 0.72992,-1.38031 0.91467,-2.39999c0.14325,-0.7906 0.08533,-1.8 0.08533,-2.60001c0,-1 0,-1.78934 0,-2.83333c0,-0.79201 0.00369,-1.81935 0,-2.51401c-0.00534,-1.00604 -0.56592,-1.91832 -1.38934,-1.642c-0.75739,0.25417 -1.34103,0.89404 -2.07681,1.09917c-0.97458,0.2717 -1.76749,0.75568 -2.34451,1.0755c-1.1846,0.6566 -1.78436,0.94167 -2.38934,1.17867c-0.89304,0.34984 -1.80753,0.61481 -2.69098,0.94051c-0.8447,0.3114 -1.81476,0.82318 -2.29468,1.34366c-0.55383,0.60066 -1.27542,1.17433 -2.01434,1.63718c-0.67062,0.42007 -1.3222,1.26006 -2.13333,1.88133c-0.66125,0.5065 -1.18018,0.84482 -1.98398,1.34933c-0.75446,0.47354 -1.67944,0.95694 -2.28134,1.368c-0.82581,0.56398 -1.38348,1.11292 -1.91602,1.632c-0.86487,0.84302 -1.35648,1.30327 -2.31067,1.88399c-0.68179,0.41493 -1.43134,0.8853 -2.17465,1.60001c-0.53094,0.51051 -1.16669,1.16666 -1.82535,1.82533c-0.52197,0.52199 -1.29071,1.2906 -1.79999,1.8c-0.69592,0.69609 -1.27405,1.1496 -1.80533,1.976c-0.48239,0.75037 -0.46826,1.80754 -0.92651,2.64149c-0.34265,0.62355 -1.23264,1.23175 -1.52167,2.07884c-0.237,0.69455 -0.43466,1.85452 -0.69049,2.36234c-0.41959,0.83286 -0.95575,1.62735 -1.40933,2.3945c-0.40292,0.68146 -0.87961,1.54007 -1.504,2.32016c-0.47733,0.59636 -1.18399,1.43466 -1.47568,2.08051l-0.0625,1" id="svg_2" stroke-width="2" stroke="#000" fill="none"/>
  <path t="7140,7287,7290,7290,7290,7312,7312,7312,7312,7312,7312,7312,7312,7335,7335,7335,7335,7335,7335,7335,7335,7335,7358,7359,7359,7359,7359,7359,7359,7359,7359,7614,7615,7615,7615,7615,7615,7615,7615,7615,7647,7647,7647,7647,7647,7647,7671,7672,7695,7695,7695,7695,7696,7696,7719,7719,7719,7719,7719,7719,7749,7749,7749,7749,7749,7775,7775,7775,7775,7775,7799,7799,7799,7799,7799,7799,7823,7823,7823,7823,7823,7823,7847,7847,7847,7847,7847,7871,7872,7872,7872,7872,7895,7895" d="m223,177.5c-1.77733,-0.57333 -2.64384,-1.08672 -3.39484,-1.52333c-0.43336,-0.25195 -1.43573,-0.81519 -2.63583,-1.45c-0.66714,-0.35289 -1.38121,-0.72025 -2.136,-1.11c-0.79453,-0.41026 -1.62813,-0.83849 -2.496,-1.29001c-1.839,-0.95676 -2.80223,-1.46782 -3.78932,-1.996c-1.00691,-0.53879 -2.02505,-1.09007 -3.048,-1.65149c-1.02505,-0.56258 -2.04407,-1.12737 -3.048,-1.6965c-1.95604,-1.1089 -2.88828,-1.65866 -3.79199,-2.19467c-0.87625,-0.51973 -1.72073,-1.02945 -2.535,-1.5255c-0.78572,-0.47865 -1.54005,-0.94357 -2.265,-1.3905c-1.36011,-0.8385 -1.99425,-1.22945 -2.59866,-1.59734c-0.57129,-0.34773 -1.10968,-0.67233 -1.61551,-0.97049c-0.46892,-0.2764 -0.90108,-0.52835 -1.30049,-0.7455c-0.67439,-0.36664 -0.95682,-0.49948 -1.20267,-0.60133c-0.20763,-0.08601 -0.38396,-0.17786 -0.5385,-0.17401c-0.50214,0.0125 -0.60191,0.90698 -0.60417,1.75c-0.00212,0.79333 0,1.74667 0,2.27084c0,1.11833 0,1.7025 0,2.89583c0,1.19733 0,1.791 0,2.95833c0,0.56967 0,1.12733 0,2.70834c0,0.96266 0,1.41899 0,2.29166c0,0.83267 -0.0079,2.04173 0.00267,2.843c0.01068,0.80948 0.03311,1.63966 0.168,2.48401c0.21512,1.34659 0.38269,1.80629 0.71199,2.75066c0.17026,0.48828 0.57478,1.4725 0.80534,1.96533c0.70692,1.51105 0.98534,2.00282 1.54799,2.97734c0.27893,0.48311 0.85925,1.41333 1.16534,1.85066c0.8725,1.24661 1.19818,1.60197 1.78799,2.32001c0.57552,0.70064 1.15306,1.40057 1.644,2.18399c0.50945,0.81296 0.92,1.68533 1.125,2.10417l0.38,0.78566l0.64017,1.16951l0.61084,0.59" id="svg_3" stroke-width="2" stroke="#000" fill="none"/>
  <path t="9200,9302,9302,9326,9326,9326,9326,9326,9327,9327,9327,9361,9361,9361,9361,9361,9361,9361,9361,9361,9382,9382,9383,9383,9383,9383,9383,9383,9383,9406,9406,9407,9407,9407,9407,9407,9407,9407,9430,9431,9431,9431,9431,9431,9431,9455,9487,9487,9487,9510,9511,9511,9511,9511,9542,9542,9542,9542,9542,9542,9542,9543,9558,9559,9559,9559,9559,9559,9559,9583,9583,9583,9614,9615,9615,9638,9639,9639,9639,9639,9662,9663,9663,9663,9663,9711,9711,9711,9711,9711,9711,9790,9791,9791,9814,9815,9839,9839,9839,9862,9863,9863,9895,9895,9895,9895,9919,9919,9942,9943,9943,9970,9970,9970,9970,9970,9990,9991,9991,9991,9991,9991,9991,9991,9991" d="m272,343.5c-0.91467,-1.43201 -1.64233,-1.86389 -2.66666,-2.5c-0.42197,-0.26205 -1.38156,-0.88718 -1.92001,-1.25067c-0.58167,-0.39267 -1.2019,-0.8226 -1.85999,-1.2915c-0.70209,-0.50024 -2.22168,-1.62225 -3.039,-2.24332c-0.85477,-0.64954 -1.73392,-1.32977 -2.63702,-2.02652c-0.91888,-0.70892 -1.84619,-1.42505 -2.78098,-2.13449c-0.9292,-0.7052 -2.76019,-2.05746 -3.65251,-2.68884c-0.86378,-0.61118 -1.70699,-1.18869 -2.51849,-1.746c-0.7795,-0.53534 -1.52721,-1.04614 -2.2305,-1.54797c-0.66859,-0.47708 -1.86868,-1.39569 -2.38734,-1.84885c-0.4877,-0.42612 -0.92596,-0.85141 -1.3275,-1.2645c-0.37994,-0.39087 -0.72655,-0.77478 -1.0575,-1.13849c-0.3157,-0.34698 -0.91835,-0.98984 -1.222,-1.2757c-0.29256,-0.27539 -0.58546,-0.52618 -0.8685,-0.7605c-0.26805,-0.22192 -1.13783,-0.67117 -1.66499,-1.53c-0.51163,-0.8335 -0.59335,-1.62909 -1.04301,-2.21432c-0.57361,-0.74655 -1.17697,-1.23141 -1.84267,-1.79565c-0.74451,-0.63107 -1.16475,-0.94687 -2.448,-2.07602c-0.45946,-0.4043 -0.92003,-0.83453 -1.39049,-1.27649c-0.96652,-0.90799 -1.45255,-1.3765 -1.94734,-1.84201c-0.49586,-0.46652 -1.48997,-1.38782 -2.4915,-2.26016c-0.48782,-0.4249 -0.97127,-0.83154 -1.4415,-1.22549c-0.88962,-0.7453 -1.31892,-1.07611 -2.39783,-2.0195c-0.59563,-0.52081 -1.33698,-1.1889 -1.998,-2.043c-0.45157,-0.58347 -0.81528,-1.28033 -1.66667,-2.16666c-0.52608,-0.54767 -1.19643,-1.07043 -1.54167,-1.35419c-0.71281,-0.58591 -1.79497,-1.4754 -2.47566,-2.07916c-0.33615,-0.29816 -0.99132,-0.91428 -1.6925,-1.5c-1.10477,-0.92288 -1.52687,-1.20786 -2.38649,-1.79099c-0.43022,-0.29184 -1.28445,-0.83167 -2.065,-1.33835c-0.95711,-0.62131 -1.62187,-1.09122 -2.21867,-1.65332c-0.62042,-0.58435 -1.36292,-1.26749 -1.78667,-2.11734c-0.38309,-0.76834 -0.37299,-1.48273 -0.77617,-2.42151c-0.36134,-0.8414 -0.77766,-1.37067 -1.39049,-2.57849c-0.29875,-0.58881 -0.61926,-1.46991 -0.96533,-2.22934c-0.37189,-0.81607 -0.93845,-1.55432 -1.11601,-2.54266c-0.14026,-0.78064 -0.08685,-1.39417 -0.08516,-2.75049c0.00095,-0.76169 0.01733,-1.62347 0.03583,-2.10419c0.04181,-1.08698 0.12827,-2.3735 0.18567,-3.10382c0.06238,-0.7937 0.13843,-1.65317 0.22501,-2.58151c0.09331,-1.00064 0.2,-2.07599 0.315,-3.22949l0.125,-1.2345" id="svg_4" stroke-width="2" stroke="#000" fill="none"/>
  <path t="11020,11119,11143,11143,11173,11173,11173,11173,11201,11201,11201,11201,11202,11222,11222,11223,11223,11223,11275,11275,11276,11276,11276,11308,11308,11308,11308,11308,11309,11309,11326,11326,11327,11327,11327,11351,11351,11351,11351,11374,11374,11375,11375,11398,11399,11399,11399,11399,11423,11423,11423,11454,11455,11455,11455,11479,11479,11479,11479,11479,11479,11479,11503,11503,11503,11503,11504,11504,11504,11529,11529,11529,11529,11530,11530,11530,11530,11552,11552,11552,11552,11552,11552,11552,11552,11583,11583,11583,11583,11583,11583,11583,11607,11607,11608,11608,11630,11631,11631,11631,11631,11631,11655,11655,11655,11655,11655,11655,11655,11686,11686,11687,11687,11687,11710,11711,11711,11711,11711,11711,11711,11734,11735,11735,11735,11735,11758,11758,11759,11759,11759,11783,11784,11784,11808,11809,11809,11838,11839,11839,11882,11882,11882,11882,11902,11902,11902,11918,11918,11936,11936,11970,11971,11991,11991,11991,12014,12015,12015,12041,12042,12042,12062,12063,12063,12063,12086,12087,12087,12121,12121,12142,12143,12143,12168,12168,12168,12193,12193,12193,12215,12215,12215,12215,12246,12247,12247,12247,12271,12271,12271,12343,12344,12398,12399,12422,12423,12447,12471,12494,12526,12527,12550,12551,12678" d="m327,151.5c0.96399,-1.82533 1,-2.83333 1,-3.69733c0,-0.80267 -0.00363,-1.67891 0.02084,-2.386c0.02728,-0.7877 0.1347,-2.08485 0.2645,-2.99934c0.06619,-0.46634 0.2225,-1.39922 0.41916,-2.3075c0.27725,-1.28059 0.49982,-2.04036 0.68484,-2.75917c0.18018,-0.69994 0.36392,-1.41393 0.48917,-2.59399c0.09314,-0.87743 0.10352,-1.83995 0.11081,-2.35001c0.01544,-1.07993 0.01068,-2.23999 0.01068,-2.84917c0,-1.25833 0,-1.89749 0,-2.53666c0,-0.63417 0,-1.8675 0,-3.02084c0,-1.04266 0,-1.524 0,-2.41666c0,-0.81267 0.01074,-1.91678 -0.00449,-2.92617c-0.00958,-0.63647 -0.02844,-1.56577 -0.28217,-2.75983c-0.13281,-0.62507 -0.35153,-1.2723 -0.60001,-1.96799c-0.42038,-1.17703 -0.76343,-2.0312 -1.11334,-2.9085c-0.17337,-0.43468 -0.50687,-1.27142 -0.97849,-2.35651c-0.37823,-0.87021 -0.7316,-1.60209 -1.12186,-2.58633c-0.33353,-0.84114 -0.56348,-1.50002 -0.87033,-2.23534c-0.3533,-0.84663 -0.79688,-1.79883 -1.04367,-2.30967c-0.52075,-1.07786 -0.80502,-1.63 -1.09467,-2.18933c-0.29172,-0.56335 -1.18893,-2.22384 -1.49365,-2.761c-0.30396,-0.53585 -0.93646,-1.60505 -1.26935,-2.144c-0.33975,-0.55009 -0.69189,-1.11247 -1.46133,-2.272c-0.40591,-0.61171 -0.83417,-1.23593 -1.27649,-1.87199c-0.44965,-0.64663 -0.9086,-1.2964 -1.37549,-1.944c-0.92725,-1.28613 -1.84653,-2.51847 -2.29318,-3.10767c-0.43469,-0.57343 -0.86328,-1.12948 -1.28549,-1.671c-0.41412,-0.53114 -0.82388,-1.05183 -1.63467,-2.06933c-0.7999,-1.00382 -1.20056,-1.50252 -1.59866,-1.99867c-0.78049,-0.97269 -1.15814,-1.44384 -1.88834,-2.3325c-0.34232,-0.41661 -1.26868,-1.50983 -1.8045,-2.109c-0.48645,-0.54395 -0.96948,-1.05356 -1.67648,-1.89584c-0.53003,-0.63145 -1.08716,-1.35217 -1.716,-2.124c-0.33432,-0.41035 -0.6734,-0.84483 -1.86002,-2.16383c-0.41974,-0.46658 -0.85861,-0.93091 -1.75732,-1.85799c-0.44733,-0.46146 -0.89398,-0.91168 -1.332,-1.3515c-1.22342,-1.22841 -1.59583,-1.60427 -2.31732,-2.308c-0.69733,-0.68015 -1.04544,-1.02132 -2.18402,-2.028c-0.40576,-0.35875 -1.27444,-1.08404 -1.728,-1.448c-0.45746,-0.36708 -1.3848,-1.08343 -1.85599,-1.416c-1.34512,-0.94941 -1.79419,-1.20301 -2.63602,-1.708c-0.79828,-0.47887 -1.21021,-0.67246 -2.28,-1.428c-0.69724,-0.49244 -1.32077,-1.04711 -1.91998,-1.572c-0.56073,-0.49117 -1.55225,-1.30834 -2.24667,-1.7405c-0.67422,-0.4196 -1.68454,-1.00396 -2.22534,-1.34616c-0.82285,-0.52067 -1.60452,-1.01404 -2.32199,-1.422c-0.6748,-0.38371 -1.6264,-0.90816 -2.40533,-1.40983c-0.55246,-0.35582 -1.37424,-0.93054 -2.12582,-1.5425c-0.69583,-0.56657 -1.26401,-1.19112 -2.12134,-1.5575c-0.74515,-0.31844 -1.82333,-0.40384 -2.49567,-0.94733c-0.66742,-0.53954 -1.34866,-1.12513 -2.06851,-1.3955c-0.89877,-0.33757 -1.58423,-0.43482 -2.73599,-0.9c-0.65329,-0.26385 -1.4516,-0.83179 -2.272,-1.20133c-0.7774,-0.35017 -1.40015,-0.54153 -2.39465,-0.96534c-0.72049,-0.30703 -1.44992,-0.65474 -2.17201,-1.008c-1.33156,-0.65144 -1.89905,-0.92166 -2.59883,-1.3045c-0.90907,-0.49734 -1.54428,-1.10828 -2.39583,-1.35416c-0.90187,-0.26041 -1.73235,-0.14996 -2.74533,-0.38817c-0.70898,-0.16672 -1.36729,-0.49985 -2.34283,-0.8785c-0.80917,-0.31408 -1.6819,-0.60336 -2.57851,-0.9c-0.90338,-0.29889 -1.51193,-0.51913 -2.48534,-0.71467c-1.02835,-0.20657 -1.76733,-0.23267 -2.51466,-0.28533c-0.74733,-0.05267 -2.18153,-0.20547 -2.83383,-0.35266c-0.88863,-0.20052 -1.82407,-0.54321 -2.64534,-0.6265c-0.83812,-0.085 -1.74416,-0.12492 -2.6355,0.26317c-0.74173,0.32294 -1.71156,0.6044 -2.3645,1.23683c-0.58055,0.56232 -0.85416,1.47917 -1.54166,1.95834l-0.9575,0.3995l-0.735,0.20533l-0.28534,0.80267" id="svg_5" stroke-width="2" stroke="#000" fill="none"/>
  <path t="14287,14439,14439,14462,14463,14463,14671,14671,14696,14719,14750,14751,14775,14879,14903,14951,15006,15007,15102,15135,15135,15159" d="m311,242.5c-1.65717,1.65717 -2.21066,2.21066 -3,3c-0.59549,0.5955 -1.17526,1.15294 -1.83334,1.83333c-0.61484,0.63568 -0.88864,1.67865 -0.06665,2.04517c0.82944,0.36983 1.69998,0.12151 2.60001,0.12151c0.89999,0 1.86957,0.11145 2.59998,-0.35716c0.79993,-0.5132 1.30002,-1.20683 2.08936,-1.62817l0.52664,-0.584l0.13669,-0.7825l0.29999,-0.89099" id="svg_6" stroke-width="2" stroke="#000" fill="none"/>
  <path t="15999,16150,16182,16182,16207,16207,16230,16230,16230,16230,16254,16254,16254,16254,16254,16254,16430,16430,16463,16486,16510,16534,16534,16558,16559,16638,16686,16718,16742,16815,16847,16847,16894" d="m256,253.5c-1.75717,-0.05716 -2.6418,-0.39508 -3.4045,-0.64734c-0.98019,-0.3242 -1.6248,-0.30231 -2.76218,-0.51933c-0.81161,-0.15486 -1.41466,-0.36189 -2.10933,-0.53783c-1.22063,-0.30913 -2.17404,-0.49745 -2.67751,-0.591c-1.02444,-0.19035 -1.53282,-0.27977 -2.50916,-0.41916c-1.24886,-0.17828 -2.87158,-1.16481 -3.06584,-0.28084c-0.19289,0.87775 1.78607,0.54593 2.36183,1.32883c0.41911,0.5699 0.32526,1.69183 0.87117,2.36217c0.53386,0.65552 0.95033,1.54829 1.51683,2.18317c0.53548,0.6001 1.22534,1.08533 2.10001,1.12134l0.85333,0l0.94,-0.00134" id="svg_7" stroke-width="2" stroke="#000" fill="none"/>
  <path t="17816,17966,17967,17967,17990,17990,18022,18022,18047,18047,18047,18070,18070,18070,18070,18095,18095,18095,18095,18118,18118,18118,18118,18150,18150,18150,18174,18174,18202,18202,18202,18222,18246,18246,18246,18278,18278,18278,18302,18303,18333,18333,18333,18350,18350,18350,18350,18350,18351,18374,18374,18408,18408,18408,18430,18430,18430,18430,18456,18456,18456,18456,18478,18478,18478,18502,18502,18502,18502,18534,18535,18535,18535,18561,18561,18561,18561,18584,18585,18585,18585,18616,18616,18616,18645,18645,18645,18645,18656,18656,18656,18656,18691,18691,18691,18691,18710,18710,18710,18745,18745,18745,18745,18760,18760,18760,18785,18785,18785,18785,18814,18814,18815,18815,18815,18838,18838,18838,18839,18863,18863,18863,18886,18886,18886,18887,18911,18911,18911,18912,18942,18942,18942,18943,18943,18966,18966,18966,18967,18967,18990,18990,18990,19014,19014,19014,19014,19015,19038,19038,19038,19039,19070,19070,19070,19071,19071,19071,19071,19094,19094,19094,19095,19095,19095,19095,19119,19119,19119,19119,19119,19119,19120,19150,19151,19151,19151,19151,19151,19166,19166,19167,19167,19167,19203,19203,19204,19204,19204,19222,19222,19222,19271,19271,19301,19301,19326,19326,19350,19374,19374,19399,19399,19428,19455,19478,19478,19508,19508,19508,19533,19533,19550,19550,19550,19575,19575,19575,19606,19606,19607,19630,19630,19630,19654,19655,19655,19655,19655,19679,19679,19680,19680,19703,19704,19704,19704,19704,19705,19705,19735,19735,19736,19736,19736,19736,19736,19736,19758,19758,19759,19759,19759,19759,19783,19783,19783,19783,19783,19784,19784,19812,19813,19813,19813,19813,19813,19814,19814,19814,19832,19833,19833,19833,19833,19833,19833,19863,19863,19863,19863,19864,19864,19864,19886,19887,19887,19887,19887,19919,19919,19920,19948,19948,19962,20001,20001,20021,20022,20040,20040,20070,20070,20118,20119,20124,20125,20125,20148,20148,20173,20173,20191,20214,20214,20246,20246,20295,20296,20343,20398,20470,20494,20878,20878,20910,20910,21086,21114,21136,21136,21166,21166,21167,21190,21191,21191,21214,21215,21215,21238,21238,21239,21239,21390,21415,21446,21473,21474,21474,21494,21494,21522,21522,21522,21542,21542,21543,21543,21574,21574,21575,21601,21601,21602,21602,21602,21622,21622,21623,21623,21623,21655,21656,21656,21656,21656,21657,21674,21675,21675,21675,21676,21717,21718,21718,21718,21719,21719,21744,21744,21745,21745,21745,21765,21765,21765,21766,21785,21786,21786,21786,21800,21801,21801,21802,21802,21803,21830,21830,21831,21831,21831,21862,21863,21863,21863,21886,21886,21887,21906,21926,21927,21958,21958,21959,21986,21987,22011,22033,22082,22082,22115,22165,22165,22166,22186,22187,22187,22216,22217,22217,22251,22252,22269,22390,22438,22438,22466,22467,22494,22494,22495,22495,22495,22495,22519,22520,22520,22520,22590,22590,22622,22718,22719,22719,22751,22752,22752,22774,22774,22775,22801,22802,22802,22802,22822,22823,22846,22878,22878,22926,22926,22927,22950,22951,22980,22981,23054,23054,23078,23078,23079,23102,23102,23134,23134,23165,23166,23166,23167,23193,23194,23194,23195,23195,23219,23219,23220,23220,23220,23221,23232,23233,23233,23234,23234,23262,23263,23263,23263,23288,23288,23289,23289,23289,23290,23310,23311,23311,23311,23312,23334,23335,23359,23359,23382,23383,23383,23383,23414,23415,23415,23448,23449,23468,23468,23487,23511,23618,23720,23770" d="m229,29.5c-2.95267,0 -3.5,0 -4.31599,0c-1.22684,0 -2.0795,0 -3.084,0c-0.8,0 -1.80034,0 -2.42134,0c-0.94933,0 -1.82167,0 -2.85066,0c-0.74934,0 -1.53067,0 -2.72783,0c-0.79567,0 -1.57935,0 -2.343,0c-1.0905,0 -2.10052,-0.00961 -2.73634,0.02083c-0.9207,0.04409 -1.83179,0.1587 -2.68883,0.41517c-0.77264,0.23121 -1.61778,0.91257 -2.084,1.44933c-0.72987,0.84031 -1.2402,1.14256 -1.98134,1.54533c-1.06883,0.58087 -1.93788,0.72478 -2.61333,1.00533c-0.84593,0.35137 -1.84453,0.74484 -2.63251,1.08483c-0.51694,0.22305 -1.55817,0.95744 -2,1.47917c-0.69817,0.82442 -1.18217,1.26697 -1.83949,1.66133c-1.16544,0.69921 -1.93288,1.10519 -2.33484,1.344c-0.82748,0.49163 -1.63452,0.98432 -2.00917,1.22667c-1.20784,0.78131 -1.90436,1.38552 -2.65916,1.86817c-0.71762,0.45887 -1.44948,0.78653 -2.321,1.22117c-0.66647,0.33238 -1.37434,0.68644 -2.10899,1.026c-1.07628,0.49745 -1.76636,0.75695 -2.7065,1.15267c-0.5831,0.24543 -1.6364,0.80044 -2.31635,1.336c-0.69508,0.54748 -1.38248,1.17675 -2.1825,1.764c-0.55717,0.40899 -1.14664,0.80104 -2.04283,1.4c-0.89929,0.60104 -1.5,1 -2.10001,1.4c-0.89999,0.59999 -1.50441,0.99165 -2.37917,1.6c-0.56744,0.39462 -1.36189,0.99091 -2.06816,1.6c-0.68562,0.59128 -1.12151,1.01933 -2.13667,1.8c-0.53355,0.41031 -1.11453,0.76936 -2.14932,1.6c-0.72688,0.58348 -1.16795,1.00089 -1.76534,1.68533c-0.62514,0.71624 -1.21021,1.55552 -1.60133,2.16133c-0.40936,0.63405 -1.00533,1.67153 -1.39551,2.4015c-0.38918,0.72808 -0.74716,1.44209 -1.23782,2.4185c-0.41386,0.82357 -0.77629,1.55711 -1.33334,2.5c-0.3087,0.52252 -0.83777,1.33054 -1.18066,1.88067c-0.63965,1.0262 -1.01978,1.7316 -1.40533,2.40533c-0.55814,0.9753 -0.90454,1.51195 -1.289,2.089c-0.41521,0.62321 -1.1254,1.62471 -1.64099,2.34234c-0.53241,0.74104 -1.06285,1.48612 -1.30751,1.86333c-0.69624,1.07346 -1.20952,2.08968 -1.46815,2.73183c-0.24612,0.61108 -0.64912,1.81841 -0.83717,2.42084c-0.27986,0.89653 -0.55153,2.09827 -0.6205,2.70133c-0.1049,0.91735 -0.09633,1.56143 -0.3055,2.92017c-0.11382,0.73936 -0.29459,1.50047 -0.483,2.283c-0.28827,1.19727 -0.49677,1.99652 -0.6955,2.80617c-0.10065,0.41002 -0.30743,1.24483 -0.60001,2.556c-0.20384,0.91354 -0.30154,1.37581 -0.47917,2.29167c-0.16943,0.87357 -0.38158,2.03886 -0.46367,2.97916c-0.06992,0.8008 -0.05716,1.89584 -0.05716,2.53316c0,0.70133 0,1.45067 0,2.232c0,1.19783 0,2.01083 0,2.85983c0,0.909 0,2.4375 0,3.00166c0,0.58917 0,1.8225 0,2.45667c0,0.63917 0,1.27833 0,3.14583c0,0.59067 0,1.16534 0,2.28267c0,0.55067 0,1.656 0,2.21867c0,1.16534 0,2.4 0,3.03733c0,0.64533 0,1.29467 0,2.58933c0,0.63734 0,1.87201 0,3.03334c0,0.55316 0,1.6095 0,2.11467c0,0.96933 0,2.336 0,3.20467c0,0.42732 0,1.278 0,2.13666c0,1.33701 0,2.25967 0,2.72c0,0.89867 0.01653,1.74144 -0.00133,3.14c-0.01013,0.79367 -0.00035,1.47859 -0.35583,2.45151c-0.28282,0.77405 -0.97302,1.62924 -1.44284,2.2885c-0.53075,0.74477 -0.88455,1.45029 -1.14732,2.36333c-0.2614,0.90828 -0.63519,1.72423 -0.886,2.586c-0.24515,0.84233 -0.18369,1.77608 -0.59201,2.57733c-0.39006,0.76541 -0.56424,1.61 -0.57466,2.58934c-0.00851,0.79996 0,1.60001 0,2.60451c0,0.63148 0,1.81699 0,2.63148c0,0.57468 0,1.76401 0,2.6595c0,0.86852 0,1.93784 0,2.65184c0,0.67799 -0.01199,1.87457 0.01067,2.69934c0.01648,0.6003 0.14291,1.92229 0.27467,2.63733c0.13708,0.74396 0.31706,1.49284 0.51599,2.23199c0.28696,1.06627 0.60681,2.08081 0.83467,2.78134c0.24661,0.75821 0.52931,1.60312 0.85066,2.56c0.17427,0.51891 0.55342,1.62656 0.76001,2.21066c0.21336,0.60324 0.42451,1.22728 1.17482,3.15317c0.25853,0.66359 0.53276,1.32822 0.8145,1.9935c0.28194,0.66574 0.57133,1.32552 0.86852,1.97549c0.29353,0.64201 1.19278,2.46819 1.49416,3.03917c0.29434,0.55765 0.59177,1.09805 1.16534,2.14934c0.27936,0.51204 1.07214,2.01996 1.31499,2.52167c0.24249,0.50098 0.71329,1.52277 0.96268,2.04134c0.51764,1.07639 0.79449,1.63947 1.45833,2.79166c0.35439,0.61508 0.74991,1.23688 1.16251,1.87201c0.42068,0.6476 0.85739,1.29529 1.2975,1.944c0.43823,0.64595 0.88559,1.27451 2.09715,3.10783c0.37733,0.57098 0.73407,1.13232 1.08151,1.68149c0.34155,0.53986 1.0085,1.61014 1.34399,2.14401c0.68199,1.08527 1.03593,1.63998 1.7655,2.761c0.36522,0.56117 0.73039,1.11507 1.0905,1.659c0.69083,1.04344 1.32864,1.9969 1.88933,2.84c0.25346,0.38113 0.72322,1.06534 1.284,1.968c0.61794,0.99467 0.97145,1.66632 1.28667,2.28799c0.50369,0.99339 0.96114,1.71332 1.14418,2.64417c0.16579,0.84311 0.05716,1.6425 0.05716,2.59317c0,0.76534 0,1.76401 0,2.564c0,1 0,1.8 0,2.8c0,0.8 0,1.8 0,2.60001c0,0.8 0,1.8 0,2.59999c0,0.99867 0,1.76401 0,2.84734c0,0.91934 0,1.75267 0,2.73134c0,0.774 0,1.674 0,2.53734c0,0.96317 0,1.784 0,2.68399c0,0.90001 -0.10501,1.81651 0.08533,2.68535c0.17389,0.79373 0.46881,1.6991 0.88934,2.46799c0.40616,0.74265 1.34303,0.99408 1.91066,1.53333c0.7907,0.75113 1.32567,1.32367 1.716,1.71466c0.79802,0.79935 1.424,1.38483 1.91333,2.08401c0.66882,0.95563 0.82578,1.56479 1.29517,2.362c0.47916,0.81381 1.18539,1.49747 1.66934,1.91101c0.65996,0.56393 1.46674,1.401 1.52083,2.34164c0.05174,0.89984 0,1.86667 0,2.53601c0,0.76532 -0.04106,1.77252 0.05716,2.62115c0.11247,0.97177 0.37065,1.7814 0.64734,2.64734c0.28702,0.89825 0.5955,1.7955 0.7955,2.39551c0.3,0.89999 0.61603,1.79517 0.88933,2.71066c0.18573,0.62213 0.45743,1.95459 0.52667,2.67599c0.07283,0.75879 0.09557,1.56107 0.168,2.39999c0.11543,1.33691 0.19789,1.79898 0.34134,2.74936c0.14717,0.97501 0.24716,1.46555 0.40799,2.96399c0.05356,0.49902 0.11737,1.49527 0.14584,2.47916c0.01404,0.48474 0.01686,1.43552 0.021,2.79968c0.00264,0.87299 -0.00061,1.30688 0.03583,2.1825c0.03781,0.90854 0.18236,2.38174 0.24934,2.90668c0.06862,0.53775 0.23213,1.63254 0.32533,2.18134c0.18405,1.08377 0.38577,2.11804 0.588,3.07864c0.18736,0.89005 0.38112,1.71176 0.51599,2.48401c0.18567,1.06311 0.24448,1.73468 0.27467,2.71335c0.02031,0.65842 0.01067,2.06265 0.01067,2.83197c0,0.82535 0,1.26151 0,2.67603c0,1.03467 0,1.57199 0,2.66666c0,0.54935 0,1.09467 0,2.66666c0,0.96268 0,1.41901 0,2.29169c0,0.83264 0,2.04166 0,2.83899c0,0.78134 0,1.88834 0,2.86932c0,0.81451 0,1.66718 0,2.70801c0,0.94684 0,1.64618 0,2.62534c0,0.79999 0.04138,1.60104 -0.0045,2.59549c-0.04254,0.92175 -0.58328,1.69055 -0.87399,2.50452c-0.30547,0.85526 -0.12151,1.69998 -0.12151,2.57199c0,0.871 -0.00005,1.86966 0,2.43701c0.00009,1.19098 -0.0092,2.09216 0.036,2.69098c0.09085,1.20367 0.31239,2.09213 0.464,2.65836c0.3242,1.21078 0.48897,1.99982 0.5,2.84164c0.0118,0.89993 0.09169,1.95572 0.80133,2.41467c0.73195,0.47339 1.51154,0.36249 2.627,0.50702c0.47873,0.06204 1.5461,0.21863 2.11334,0.31998c1.15904,0.20706 1.74324,0.28461 3.27199,0.77966c0.44838,0.1452 1.25026,0.45486 2.15401,1.026c0.9218,0.58255 1.40584,1.29352 2.23367,1.56735c0.92006,0.30435 1.64532,0.08533 2.48532,0.08533c0.99867,0 1.83417,0 2.71468,0c0.89883,0 1.80933,0 2.75583,0c1.00951,0 1.72417,0 2.44684,0c1.02899,0 2.14528,0.11911 2.8335,-0.02084c0.9072,-0.18451 1.58501,-0.95837 2.08333,-1.52081c0.67757,-0.76471 1.1501,-1.44916 1.61784,-2.20767c0.55556,-0.90091 0.68259,-1.67746 1.304,-2.35083c0.60144,-0.65173 1.3987,-1.20239 1.51566,-1.92068c0.1575,-0.96732 0.04167,-1.77914 0.04167,-2.57916c0,-1 -0.01932,-1.8002 0.00133,-2.80267c0.01791,-0.86984 0.15585,-1.9325 0.28401,-2.56665c0.1403,-0.69418 0.40985,-1.7851 0.71466,-2.86401c0.19409,-0.68704 0.40689,-1.36075 0.60001,-2.064c0.20741,-0.75531 0.50461,-2.06592 0.7,-3.06516c0.1024,-0.52371 0.29955,-1.5976 0.39999,-2.13666c0.09955,-0.53427 0.39995,-2.05783 0.5955,-2.98651c0.18376,-0.87265 0.28763,-1.2897 0.41916,-2.11166c0.19185,-1.19885 0.23856,-2.01129 0.26451,-2.84433c0.02719,-0.87241 0.01987,-2.29169 0.021,-2.80103c0.00233,-1.06265 0.00185,-1.60822 0.03583,-2.70667c0.01688,-0.54547 0.12302,-2.11823 0.18533,-2.60715c0.11697,-0.91763 0.27936,-1.7392 0.42601,-2.46301c0.26859,-1.32559 0.32912,-2.12454 0.35716,-3.04666c0.01877,-0.617 0.14381,-1.67096 0.35266,-2.63916c0.15048,-0.69763 0.31235,-1.40085 0.74268,-2.65167c0.26791,-0.77875 0.60536,-1.41913 0.81616,-2.44168c0.1561,-0.75717 0.32668,-1.75037 0.88533,-2.39999c0.54836,-0.63766 1.11334,-1.40134 1.19867,-2.30133l0,-0.89999l0.16667,-0.83334" id="svg_8" stroke-width="2" stroke="#000" fill="none"/>
  <path t="24511,24614,24614,24638,24638,24638,24662,24662,24742,24742,24766,24766,24814,24870,24870,24894,24894,24919,24919,24919,24974,25254,25278,25302,25326,25358,25358,25382,25382,25382,25382,25382,25454,25454,25454,25534,25534" d="m245,321.5c0,2.60449 0,3.45715 0,4.42133c0,0.80402 0,1.62601 0,2.65717c0,0.90067 0,1.92151 0,2.71085c0,1.04401 -0.10364,1.80811 0.02083,2.73151c0.11024,0.81784 0.53287,1.69141 1.07935,2.45782c0.48756,0.68381 1.23285,1.3313 1.71449,1.84668c0.6319,0.67615 1.08734,1.55853 1.61067,2.14932c0.56264,0.63516 1.27916,1.02197 2.09549,1.02533c0.96718,0.004 1.77803,0.01385 2.8125,0.33334c0.64816,0.2002 1.32881,0.52615 2.05202,0.85199c0.73282,0.33017 1.79282,0.793 2.75732,1.168l0.57468,0.20001l1.13965,0.32498l0.83401,0.06" id="svg_9" stroke-width="2" stroke="#000" fill="none"/>
  <path t="28680,28855,28855,28878,28910,29042,29063,29087,29087,29135,29135,29135,29214,29262,29366,29366,29390,29390,29414,29446,29446" d="m288,329.5c-1.2955,2.59549 -1.77878,3.30966 -1.96399,4.36401c-0.14478,0.82416 -0.42923,2.01788 0.25064,2.55066c0.69592,0.54535 1.73422,0.09195 2.71335,0.08533c0.7894,-0.00534 1.67792,0.16553 2.45834,-0.52084c0.69073,-0.60748 0.85052,-1.53021 1.189,-2.23633c0.40762,-0.85037 0.35132,-1.75882 0.35266,-2.74283l0,-0.82132l0,-0.85333" id="svg_10" stroke-width="2" stroke="#000" fill="none"/>
  <path t="30080,30238,30262,30262,30438,30438,30462,30462,30462,30542,30590,30622,30646,30646,30750,30774,30879,30879" d="m304,327.5c0.99866,0.88666 0.91833,1.86353 1.17065,2.60132c0.2879,0.84183 0.9747,1.69293 1.82935,1.89868c0.76746,0.18475 1.62799,-0.17029 2.35333,-0.89999c0.689,-0.69315 0.64667,-1.70001 0.64667,-2.60001c0,-0.79999 -0.05716,-1.70001 -0.52084,-2.5l-0.57898,-0.60001l-0.543,-0.60001" id="svg_11" stroke-width="2" stroke="#000" fill="none"/>
 </g>
 <g display="none">
  <title>muse_image</title>
  <image xlink:href="http://farm3.static.flickr.com/2126/2062075713_24cab6c01c.jpg" id="muse" height="480" width="496" y="0" x="72"/>
 </g>
 <g display="none">
  <title>bbox</title>
  <rect stroke="#f00" fill="none" stroke-width="3" height="476.02484" width="281.728" y="0" x="127.552" id="bbox"/>
 </g>
</svg>
