<svg width="640" height="480" xmlns="http://www.w3.org/2000/svg" xmlns:svg="http://www.w3.org/2000/svg" xmlns:xlink="http://www.w3.org/1999/xlink">
 <!-- Sketchy ANNOTATION
  ImageNet ID: n02395406_27034
  URL: http://farm1.static.flickr.com/28/61127972_e9d48d285c.jpg
  Image Width: 483
  Image Height: 500
  BBox X: 32
  BBox Y: 290
  BBox Width: 116
  BBox Height: 149
  Exposure: 2000ms
  Synset Label: pig
  Synset ID: n02395406
  Worker Tag: pig near the river
  Sanity Check: 
   Context
   Saved
   Shading
  Comment: 
   {}
  Worker ID: A1P7U2ULSAE7YL
  Assignment ID: 37UQDCYH6XVZNXVOGSCXP6CZ74P7VW
  HIT ID: 3R15W654VDT4AQQF8LEVD407JKCLQM
  Work Time: 138s
  Worker Score: 0.9286
 END ANNOTATION -->
 <g display="inline">
  <title>Layer 1</title>
  <path t="0,182,198,214,237,254,286,302,318,327,327,358,366,421,430,462,493,533,534,534,566,582,590,607,621,630,646,654,670,725,757,758,789,805,845,877,878,886,894,933,981,989,997,1045,1053,1333,1349,1361,1405,1429,1445,1493,1541,1549,1589,1597,1629,1645,1654,1693,1717,1726,1750,1781,1797,1813,1845,1885,1925,1957,1958,1981,2029,2044,2101,2117,2149,2149,2205,2237,2333,2397,2413,2461,2461,2470,2541,2573,2589,2629,2653,2677,2693,2709,2757,2781,2797,2798,2845,3045,3076" d="m171.01137,309.09091c0,1.83334 -0.3936,2.71216 0.036,3.564c0.35243,0.69882 1.0833,1.21671 1.53867,2.03601c0.43451,0.7818 0.8678,1.51175 1.25867,2.39999c0.29546,0.67142 0.68658,1.16232 1.25067,1.716c0.67204,0.65964 0.52151,1.66556 1.2,2.19867c0.69728,0.54788 1.7431,0.3992 2.116,0.94666c0.43254,0.63504 1.1967,1.40393 1.51468,2.33868c0.29108,0.85571 0.54222,1.43637 1.08533,1.96664c0.57336,0.55981 0.74484,1.3085 1.0045,2.12885c0.24281,0.76715 1.23187,1.16644 1.9955,1.53784c0.75391,0.36667 1.53773,0.91144 2.39999,1.13065c0.87315,0.22195 1.83865,0.13904 2.31467,0.83734c0.51079,0.7493 1.22314,0.79596 2,1.284c0.74005,0.46494 0.95467,1.46307 1.6425,1.85751c0.81941,0.46988 2.34784,-0.37509 2.58118,0.40982c0.20427,0.6871 -1.35512,0.42877 -2.22234,0.64868c-0.72581,0.18405 -0.45796,1.56647 -1.14134,1.96265c-0.74466,0.4317 -1.87254,-0.12332 -2.52199,0.38867c-0.61462,0.48453 -1.4875,0.40445 -2.34818,0.65182c-0.7679,0.2207 -1.22517,0.98288 -2.10449,0.99551c-0.89543,0.01285 -1.48428,0.48767 -1.95267,1.00449c-0.5452,0.60159 -0.64734,1.39551 -0.64734,2.2955c0,0.90002 -0.18134,1.85349 0.16667,2.70001c0.27589,0.67108 0.69765,1.71338 1.444,1.98932c0.81467,0.30121 1.83318,-0.10107 2.68933,0.01517c0.82133,0.11151 1.46861,0.84735 2.39999,0.99103c0.8895,0.13721 1.77917,0.00656 2.65717,0.00449c0.94286,-0.00226 1.88148,-0.10303 2.3575,-0.80133c0.51079,-0.7493 0.95653,-1.48166 1.50667,-2.07733c0.58826,-0.63696 1.46162,-0.93909 1.76801,-1.73199c0.32057,-0.82962 0.01067,-1.78934 0.01067,-2.68484c0,-0.87115 0,-1.8045 0,-2.7045c0,-0.79999 0,-1.70001 -0.036,-2.564l-0.68001,-0.43466" id="svg_1" stroke-width="2" stroke="#000" fill="none"/>
  <path t="4398,4637,4653,4677,4693,4702,4719,4725,4749,4757,4774,4781,4797,4814,4830,4854,4854,5061,5069,5077,5085,5102,5102,5110,5119,5119,5132,5189,5229,5277,5317,5325,5357,5381,5381" d="m171.01137,309.09091c0,-1.70001 0,-2.60001 0,-3.5c0,-0.89999 0,-1.79999 0,-2.70001c0,-0.99866 0.18387,-1.87985 -0.08533,-2.60132c-0.32373,-0.86768 -1.55887,-0.98874 -1.89384,-1.71951c-0.36658,-0.79971 -0.48276,-1.71555 -0.85416,-2.47916c-0.36667,-0.75391 -0.69038,-2.04608 -1.556,-1.95334c-0.7525,0.08063 -0.61067,1.36401 -0.61067,2.27466c0,0.85333 0,1.79333 0,2.67868c0,0.79999 0,1.83334 0,2.61066c0,0.88934 0,1.78934 0,2.68933c0,0.90002 0,1.80002 0,2.70001l0,0.79999" id="svg_2" stroke-width="2" stroke="#000" fill="none"/>
  <path t="6070,6213,6213,6221,6222,6229,6237,6245,6254,6261,6269,6277,6285,6301,6309,6325,6325,6334,6351,6381,6389,6397,6421,6421,6733,6741,6750,6757,6781,6781,6789,6821,6861,6909,6925,7013,7037,7045,7045,7069,7109,7133,7157,7165,7198,7222,7238,7270" d="m151.01137,317.09091c-0.01067,-0.87201 0.0097,-1.63385 -0.35716,-2.591c-0.27797,-0.72522 -1.29332,-1.16904 -1.62201,-1.92984c-0.34877,-0.80728 0.03105,-1.81302 -0.44617,-2.45383c-0.50771,-0.68176 -0.52928,-1.58609 -1.18533,-2.05066c-0.71843,-0.50873 -1.18933,-1.22076 -1.556,-1.97467c-0.3714,-0.76361 -0.77045,-1.75342 -1.53783,-1.99551c-0.85489,-0.26971 -1.79884,-0.37 -2.17416,-1.10449c-0.42998,-0.84146 -0.8954,-1.746 -1.12134,-1.46399c-0.54021,0.67429 0,1.76401 0,2.664c0,0.89999 0,1.69998 0,2.60001c0,0.89999 0,1.79999 0,2.69998c0,0.89551 0,1.8215 0,2.70001c0,0.89999 0,1.69998 0,2.60001c0,0.89999 -0.05295,1.83475 0.35266,2.59998c0.44827,0.84573 0.65184,1.7045 1.222,2.31067l0.40001,0.77869l0.54616,0.58981" id="svg_3" stroke-width="2" stroke="#000" fill="none"/>
  <path t="13526,13654,13662,13662,13678,13694,13854,13878,13894,13910,13926,13942,13942,13958,13958,13966,13975,13998,14030,14038,14054,14060,14078,14094,14118,14142,14174,14190,14198,14222,14318,14318,14350,14374,14414,14422,14438,14502" d="m187.01137,350.09091c-2.16667,0.83334 -3.00087,0.9628 -3.8,1c-0.91763,0.04272 -1.51297,0.75183 -2.116,1.284c-0.64183,0.56644 -1.384,0.716 -2.284,0.716c-0.90001,0 -1.8,0.00189 -2.55717,0c-0.89551,-0.00226 -1.78635,-0.02347 -2.60683,-0.42532c-0.86995,-0.42609 -1.73584,-0.57468 -2.61067,-0.57468c-0.82666,0 -1.72533,0 -2.58932,0c-0.95683,0 -1.836,0 -2.73601,0c-0.89999,0 -1.8,0.00009 -2.7,0c-0.87849,-0.00009 -1.05309,-0.85638 -2,-1c-0.79095,-0.11996 -1.70006,-0.01068 -2.60001,0c-0.87935,0.01044 -1.42532,0.57468 -2.116,1.08398l-0.45067,0.74936" id="svg_5" stroke-width="2" stroke="#000" fill="none"/>
  <path t="15838,15997,16006,16006,16014,16024,16040,16040,16054,16054,16062,16062,16062,16070,16070,16078,16086,16086,16094,16094,16102,16111,16111,16114,16126,16134,16142,16150,16150,16166,16182,16190,16190,16198,16206,16206,16214,16230,16239,16246,16246,16254,16261,16270,16293,16310,16341,16358,16358,16366,16374,16382,16390,16398,16414,16423,16430,16439,16439,16446,16462,16470,16470,16486,16486,16494,16494,16502,16510,16518,16526,16534,16542,16558,16574,16582,16590,16606,16614,16614,16622,16639,16654,16670,16685,16686,16694,16734,16742,16766,16766,16798,16806,16814,16822,16830,16846,16870,16878,16894,16902,16910,16926,17145,17213,17222,17238,17246,17246,17255,17262,17278,17333" d="m162.01137,304.09091c-0.916,-0.28534 -1.10301,-1.23865 -1.80133,-1.71466c-0.74931,-0.5108 -1.46486,-0.79138 -2.0775,-1.50702c-0.47192,-0.55124 -0.81058,-1.45642 -1.3425,-1.953c-0.74551,-0.69598 -1.59964,-1.15738 -2.12151,-1.57797c-0.82716,-0.66666 -1.22221,-1.40945 -1.95267,-2.142c-0.56514,-0.56674 -0.67567,-1.58444 -1.41434,-1.99551c-0.72537,-0.40366 -1.65472,-0.5452 -2.39017,-1.20966c-0.60045,-0.54248 -1.52831,-0.58359 -2.32533,-0.91086c-0.76173,-0.31277 -1.25903,-0.97989 -1.87466,-1.69464c-0.57567,-0.66833 -1.26582,-1.15802 -2,-1.65186c-0.78857,-0.53043 -1.13458,-1.327 -1.68533,-2.03217c-0.48346,-0.61899 -1.3784,-0.77356 -2.09734,-1.32666c-0.69394,-0.53387 -1.24843,-1.0983 -2.01733,-1.50534c-0.75754,-0.40103 -1.58051,-0.43063 -2.37917,-0.7995c-0.77109,-0.35614 -1.4623,-0.62689 -2.16817,-1.03632c-0.80785,-0.46857 -1.31934,-1.16342 -1.95267,-1.51752c-0.86125,-0.48151 -1.78934,-0.436 -2.39999,-0.92532c-0.61067,-0.48935 -1.55972,-0.19009 -2.38934,-0.51068c-0.79292,-0.3064 -1.25896,-0.93472 -2.25883,-0.9938c-0.78529,-0.04642 -1.21432,-0.85632 -1.89349,-1.47467c-0.6478,-0.58978 -1.6743,-0.42111 -2.437,-0.74234c-0.84082,-0.35413 -1.54701,-0.91528 -2.16,-1.37851c-0.81693,-0.61734 -1.2699,-1.39362 -1.86134,-1.89999c-0.59444,-0.50894 -1.5,-0.5 -2.47916,-0.5c-0.87801,0 -1.72084,0 -2.62083,0c-0.9,0 -1.68482,-0.26297 -2.06667,-1c-0.39063,-0.75397 -0.81585,-1.62424 -1.444,-2.02533c-0.74583,-0.47623 -1.64297,-0.7637 -2.48933,-1.19601c-0.65532,-0.33472 -1.50127,-0.69574 -2.25717,-1.13132c-0.78856,-0.45441 -1.64283,-0.64734 -2.44283,-0.64734c-0.9,0 -1.8,0 -2.7,0c-0.9,0 -1.8,0 -2.7,0c-0.89983,0 -1.8,0 -2.60133,0c-0.89867,0 -1.79867,0 -2.69867,0c-0.88934,0 -1.78533,0 -2.7,0c-0.89999,0 -1.80086,-0.0372 -2.6,0c-0.91764,0.04272 -1.284,0.80133 -1.81066,1.564l-0.78934,0.39999" id="svg_6" stroke-width="2" stroke="#000" fill="none"/>
  <path t="17894,18061,18070,18093,18102,18125,18133,18158,18174,18176,18198,18206,18222,18238,18254,18271,18294,18310,18326,18333,18334,18342,18374,18382,18382,18390,18406,18422,18437,18438,18461,18477,18494,18494,18518,18533,18550,18558,18565,18582,18598,18605,18637,18677,18694,18717,18749,18774,18782,18790,18821,18861,18901,18957,18989,19005,19005,19037,19061,19093,19109,19141,19205,19389,19421,19526,19549,19581,19590,19621,19653,19661,19717,19781,19781,19829,19925" d="m69.01137,277.09091c-1.22134,0.87866 -1.7893,1.38223 -2.00134,2.19867c-0.20788,0.80045 -1.07624,1.22739 -1.57333,1.82666c-0.5101,0.61496 -0.42533,1.57468 -0.42533,2.45383c0,0.95685 0.07304,1.87103 -0.42533,2.49551c-0.48518,0.60797 -0.57467,1.52533 -0.57467,2.42532c0,0.89999 0,1.80002 0,2.70001c0,0.89999 0.36436,1.81073 -0.05717,2.54282c-0.46724,0.81149 -0.94283,1.35718 -0.94283,2.15717c0,0.90002 0,1.80002 0,2.72086c0,0.96182 0,1.76932 0,2.70065c0,0.87851 0,1.7785 0,2.57849c0,0.90002 0,1.80002 0,2.70001c0,0.89999 0,1.79999 0,2.70001c0,0.89981 0,1.79999 0,2.60132c0,0.89868 0,1.79868 0,2.69867c0,0.89999 0.1949,1.82169 -0.00134,2.69867c-0.18058,0.80704 -0.98066,1.23682 -0.99866,2.20132c-0.01671,0.89536 0,1.76666 0,2.70001c0,0.89999 -0.01799,1.70016 0,2.60001c0.018,0.90054 0.46589,1.67532 0.87867,2.39981c0.45112,0.79178 0.83874,1.56705 1.40667,1.90018c0.78896,0.46277 2.06205,0.38943 2.59317,-0.2215c0.58187,-0.66931 -0.2003,-1.91641 0.28816,-2.61185c0.50232,-0.71518 0.83334,-1.36667 0.83334,-2.26666c0,-0.89999 0,-1.69998 0,-2.54282l0,-0.87802" id="svg_7" stroke-width="2" stroke="#000" fill="none"/>
  <path t="21038,21197,21205,21229,21253,21261,21261,21267,21317,21341,21341,21365,21389,21398,21429,21437,21453,21461,21469,21477,21501,21517,21533,21541,21541,21557,21567,21583,21613,21613,21637,21653,21653,21661,21661,21677,21685,21693,21701,21709,21717,21733,21741,21750,21767,21783,21783,21789,21797,21806,21813,21813,21821,21853,21877,21901,21933,21957,21966,21973,21997,21997,22006,22061,22069,22085,22093,22109,22133,22149,22165,22181,22198,22213,22261,22277,22293,22294,22301,22349,22405,22445,22454,22477,22509,22541,22557,22573,22589,22605,22605,22615,22615,22669,22677,22725,22733" d="m71.01137,311.09091c0,1.79999 -0.17942,2.71884 0,3.564c0.18027,0.84912 0.78115,1.57236 1.084,2.23599c0.37697,0.82605 1.12336,1.6041 1.916,2.03336c0.66596,0.36066 1.30869,0.93289 1.94733,1.51932c0.5716,0.52487 1.43015,0.4649 2.25134,0.64868c0.80703,0.1806 1.51801,0.87582 1.79066,1.60931c0.30282,0.81461 0.71829,1.26547 1.4,1.81467c0.74795,0.60254 0.64948,1.70822 1.31516,2.2175c0.67751,0.51831 1.28868,1.1701 2.05717,1.35269c0.86691,0.20599 1.80048,-0.00684 2.613,0.44049c0.85174,0.46893 1.58442,0.79898 2.292,1.564c0.50757,0.54877 1.16917,0.80371 2.03333,1.05716c0.87743,0.25732 1.66534,0.79504 2.24734,1.2955c0.64537,0.55496 1.07748,1.3042 1.90333,1.62201c0.87679,0.3374 1.48088,0.83875 2.24934,1.24667c0.64995,0.345 1.49566,0.78229 1.95267,1.48315c0.50417,0.77319 1.19812,1.28751 1.662,2.09549c0.44233,0.77045 0.17668,1.9249 0.896,2.18933c0.83479,0.30685 1.90427,-0.19135 2.68484,0.36786c0.68134,0.48813 0.8588,1.55908 1.7045,1.64282c0.7961,0.07883 1.42893,0.3707 2.2215,0.87851c0.74674,0.47845 1.9913,-0.29251 2.61184,0.28815c0.62689,0.58661 1.31556,0.49625 2,1c0.65301,0.48062 1.39882,0.58908 2.08266,1.11734c0.62749,0.48471 1.384,0.716 2.284,0.716c0.9,0 1.8,0 2.63334,0c0.814,0 1.68752,-0.00586 2.66666,0c0.88938,0.00534 1.37707,0.71698 2.11066,0.98932c0.83426,0.30972 1.78229,0.30075 2.268,1.1105c0.43768,0.72968 1.28801,0.90018 2.12134,0.90018c0.83333,0 1.71333,0.08533 2.22133,0.87851l0.83134,0.12149l0.74866,0.08533l0.79868,0.48935" id="svg_8" stroke-width="2" stroke="#000" fill="none"/>
  <path t="26559,26654,26678,26694,26710,26750,26798,26798,26846,26894,26942,26966,27014,27030,27046,27046,27062,27078,27094,27097,27350,27430,27430,27446,27486,27510,27526,27670,27694,27734,27790,27798,27822,27822,27854,27950,27975,27990,27998,28022,28038,28126,28133" d="m157.01137,351.09091c-1.7,0 -2.60001,0 -3.5,0c-0.97917,0 -1.90916,-0.11984 -2.7,0.284c-0.65846,0.33624 -1.48788,0.81442 -1.884,1.51733c-0.46021,0.81662 -0.89734,1.59814 -0.916,2.49866c-0.01865,0.89984 -0.30084,1.75085 -0.64734,2.40002c-0.45335,0.84937 -0.24129,1.86914 -0.70532,2.59549c-0.49924,0.78146 -0.80165,1.62076 -1.64734,1.7045c-0.79611,0.07883 -1.7,0 -2.60001,0c-0.89999,0 -1.79999,0.00067 -2.7,0c-0.89867,-0.00067 -1.6714,-0.35135 -1.7,-1.28534c-0.02493,-0.81427 0,-1.71466 0,-2.51465c0,-0.90002 0.0027,-1.82004 -0.42534,-2.60001c-0.45097,-0.82175 -0.92732,-1.54733 -1.54933,-2.02533l-0.59999,-0.60001l-0.50934,-0.69067l-0.83067,-0.284" id="svg_10" stroke-width="2" stroke="#000" fill="none"/>
  <path t="29286,29446,29446,29470,29526,29646,29678,29694,29750,29758,29790,29862,29902,29982,30014,30038,30054,30126,30126,30142,30182,30190,30254,30270,30310,30446" d="m158.01137,351.09091c0,1 0,1.79999 0,2.70001c0,0.89999 -0.30991,1.85971 0.01067,2.68933c0.30638,0.79291 0.59604,1.42892 1.02533,2.17465c0.39697,0.68958 1.56401,0.436 2.44318,0.436c0.95683,0 1.82083,0 2.72083,0c0.90001,0 1.80087,0.0372 2.60001,0c0.91763,-0.04272 1.19933,-0.80133 1.2,-1.83334c0.0005,-0.77731 0,-1.66666 0,-2.56665l0,-0.89999" id="svg_11" stroke-width="2" stroke="#000" fill="none"/>
  <path t="31326,31398,31406,31414,31438,31462,31534,31558,31678,31726" d="m70.01137,312.09091c0,1.79999 0,2.70001 0,3.60001c0,0.89999 0,1.79999 0,2.69998l0,0.90002l0,0.89981l0,0.8475" id="svg_12" stroke-width="2" stroke="#000" fill="none"/>
  <path t="32870,33078,33078,33102,33118,33238,33254,33254,33277,33279,33358,33366,33405,33430,33446,33470,33518,33542,33582,33598,33606,33774,33782,33814,33822,33846,33854,33878" d="m81.01137,266.09091c-1,1 -1.8,1 -2.7,1c-0.89999,0 -1.83774,-0.03745 -2.62133,0.22134c-0.877,0.28964 -1.65112,0.71777 -2.59467,0.77866c-0.78687,0.05075 -1.8908,-0.06989 -2.084,0.61066c-0.23725,0.83572 -0.39217,1.5976 -1.084,2.10535c-0.70808,0.51968 -0.89729,1.08551 -0.916,1.98401c-0.01801,0.86453 -0.81915,1.35147 -0.99866,2.10132c-0.2136,0.89221 -0.88,1.42001 -1.28534,2.11465l-0.69067,0.52002l-0.30933,0.76401l-0.54933,0.79999" id="svg_13" stroke-width="2" stroke="#000" fill="none"/>
  <path t="35103,35326,35335,35423,35439,35479,35935,36079,36103,36271,36271,36302,36367,36430,36454,36479,36479,36534,36598,36599,36662,36886,36910,37052,37166,37254" d="m161.01137,323.09091c0,1.79999 -0.03038,2.65988 0.42534,3.436c0.4594,0.78238 0.57466,1.664 0.57466,2.564c0,0.83334 0.06204,0.1937 1,0c0.78792,-0.16272 1.69424,-0.43195 1.964,-1.38934c0.24319,-0.8631 0.036,-1.71066 0.036,-2.61066c0,-0.79999 -0.06178,-1.80557 -1,-2c-0.78781,-0.16324 -1.44858,-1.01392 -2.284,-0.99866c-0.80692,0.01474 -0.716,1.29416 -0.49467,1.99866l0.94534,0" id="svg_14" stroke-width="2" stroke="#000" fill="none"/>
  <path t="38183,38318,38318,38327,38342,38550,38590,38590,38638,38670,38678,38750" d="m142.01137,320.09091c1,1.16666 1.64798,1.5654 2.2955,2.29999c0.58372,0.66223 0.85881,1.61627 1.7045,1.70001c0.79611,0.07883 1.7,0 2.60001,0l0.89999,-0.02084l0.8,-0.33182" id="svg_15" stroke-width="2" stroke="#000" fill="none"/>
  <path t="40439,40598,40646,40646,40655,40718,40839,40878,40910,40911,40958" d="m166.01137,307.09091c-0.16667,-1.83334 -1.00087,-1.9628 -1.8,-2c-0.91763,-0.04272 -1.64899,-0.54526 -2.11467,-1.284c-0.47289,-0.75015 -0.252,-1.716 -0.78983,-2.35883l-0.8595,-0.34653" id="svg_16" stroke-width="2" stroke="#000" fill="none"/>
  <path t="42184,42327,42335,42360,42360,42367,42439" d="m187.01137,340.09091c0.00017,0.87851 0.716,1.08533 1,2l0,0.79999l-0.05717,0.84283l-0.77615,0.52383" id="svg_17" stroke-width="2" stroke="#000" fill="none"/>
  <path t="43584,43919,43967,43999,44015" d="m191.01137,340.09091c0.64734,1.05716 0.99867,1.80133 1,2.70001l0.036,0.86398" id="svg_18" stroke-width="2" stroke="#000" fill="none"/>
  <polyline timestamps="46992,47350,47351" startTime="1443619981450" id="svg_19" points="83.01136684417725,326.09091091156006 82.01136684417725,327.09091091156006 82.01136684417725,327.96941091156003 " stroke-linecap="round" stroke-width="2" stroke="#000" fill="none"/>
  <path t="49327,49687,49687,49839,49879,50007,50031,50063,50095,50119,50127,50159,50215,50231,50255,50287,50327,50359,50383,50495,50495,50559,50623,50767,50791,50799,50831,50831,50839" d="m67.01137,277.09091c-1.16666,1 -1.42406,1.69043 -2,2.47916c-0.46754,0.64029 -0.63477,1.33545 -1.036,2.09552c-0.39661,0.75134 -0.79465,1.37103 -1.02117,2.12982c-0.26043,0.87241 -0.91423,1.59412 -0.94283,2.49551c-0.02854,0.89954 0.3218,1.9379 -0.16667,2.63333c-0.50232,0.71518 -0.83333,1.36533 -0.83333,2.21933c0,0.94733 0,1.74731 0,2.64734c0,0.89999 -0.00225,1.79999 0,2.69998c0.00225,0.89999 0.22133,1.70001 0.716,2.39999l0.33667,0.84283" id="svg_20" stroke-width="2" stroke="#000" fill="none"/>
  <path t="54327,54438,54470,54470" d="m148.01137,312.09091" id="svg_21" stroke-width="2" stroke="#000" fill="none"/>
  <path t="55519,55654,55678,55727,55767,55910" d="m166.01137,302.09091c0,1.79999 0,2.70001 0,3.60001l0,0.89999l0,0.89999" id="svg_22" stroke-width="2" stroke="#000" fill="none"/>
 </g>
 <g display="none">
  <title>muse_image</title>
  <image xlink:href="http://farm1.static.flickr.com/28/61127972_e9d48d285c.jpg" id="muse" height="480" width="463" y="0" x="88.5"/>
 </g>
 <g display="none">
  <title>bbox</title>
  <rect stroke="#f00" fill="none" stroke-width="3" height="143.04" width="111.19669" y="278.4" x="119.17495" id="bbox"/>
 </g>
</svg>
