<svg width="640" height="480" xmlns="http://www.w3.org/2000/svg" xmlns:svg="http://www.w3.org/2000/svg" xmlns:xlink="http://www.w3.org/1999/xlink">
 <!-- Sketchy ANNOTATION
  ImageNet ID: n02395406_10439
  URL: http://farm1.static.flickr.com/51/185635797_e42362fe89.jpg
  Image Width: 500
  Image Height: 375
  BBox X: 185
  BBox Y: 72
  BBox Width: 196
  BBox Height: 120
  Exposure: 2000ms
  Synset Label: pig
  Synset ID: n02395406
  Worker Tag: Wild Pig
  Sanity Check: 
   Shading
   Saved
   Context
  Comment: 
   {}
  Worker ID: A3LW9WQOQQMA5V
  Assignment ID: 3VELCLL3GKJWGEUWRXQK6AI0BSR1FY
  HIT ID: 3MYASTQBG7BLCE2NV4G7URS294RDQ0
  Work Time: 101s
  Worker Score: 0.9286
 END ANNOTATION -->
 <g display="inline">
  <title>Layer 1</title>
  <path t="0,157,180,204,236,244,261,292,308,316,356,372,412,436,460,476,516,524,540,556,564,580,612,620,636,644,668,677,694,710,728,753,764,764,791,812,844,852,884,892,900,900,916,933,933,956,972,988,996,1012,1028,1044,1076,1076,1084,1148,1180,1180,1196,1220,1236,1245,1277,1284,1295,1312,1329,1329,1345,1345,1362,1379,1379,1396,1396,1412,1429,1446,1446,1462,1479,1479,1479,1496,1512,1512,1530,1546,1546,1562,1579,1596,1596,1612,1629,1645,1661,1662,1678,1695,1711,1712,1729,1756,1756,1764,1796,1804,1820,1828,1845,1862,1879,1900,1900,1913,1932,1932,1948,1964,1964,1979,2004,2036,2044,2045,2084,2117,2140,2180,2188,2188,2244,2492,2500,2564,2564,2572,2676,2684,2684,2708,2772,2820,2836,2836,3020,3084,3204,3276,3292,3332,3340,3380,3428,3437,3437,3460,3484,3508,3508,3532,3556,3572,3572,3596,3636,3660,3668,3681,3708,3724,3724,3748,3748,3756,3772,3788,3797,3797,3815,3831,3848,3848,3864,3881,3881,3900,3914,3932,3948,3948,3972,3980,3997,3998,4015,4015,4031,4048,4068,4068,4084,4108,4140,4140,4148,4165,4181,4197,4214,4252,4252,4284,4292,4308,4316,4316,4332,4348,4365,4382,4398,4415,4415,4432,4448,4448,4465,4465,4482,4482,4499,4515,4532,4549,4549,4549,4565,4582,4599,4615,4615,4632,4649,4649,4649,4665,4665,4682,4682,4698,4699,4699,4716,4732,4732,4749,4749,4765,4781,4782,4799,4816,4832,4832,4849,4866,4866,4882,4882,4899,4916,4932,4949,4966,4966,4982,4999,5016,5044,5052,5076,5084,5117,5156,5180,5196,5236,5260,5284,5308,5348" d="m109,211c-0.05717,1.7 -0.53761,2.45247 -1.2955,2.94733c-0.69541,0.45406 -1.46319,0.99409 -1.7,1.75717c-0.25503,0.82179 -0.86868,0.82544 -1.64733,1.35266c-0.68302,0.46248 -0.44765,1.64471 -1.20784,1.91751c-0.88425,0.31731 -1.48613,0.87659 -2.124,1.45067c-0.57872,0.52086 -1.08788,1.20547 -1.82666,1.65866c-0.68737,0.42166 -1.18407,1.29626 -1.69867,1.916c-0.49991,0.60205 -0.5,1.5 -0.5,2.39999c0,0.90001 -0.12401,1.80861 0.00017,2.69984c0.11172,0.80188 0.97123,1.25587 0.99983,2.10016c0.03047,0.89949 0,1.8 0,2.60001c0,0.89999 0,1.8 0,2.7c0,0.89999 0.17389,1.81749 -0.00267,2.7c-0.16982,0.84883 -1.22324,1.09317 -1.75433,1.90001c-0.51255,0.77867 -0.243,1.7 -0.243,2.59999c0,0.90001 0.08949,1.71738 0.57467,2.32533c0.49837,0.6245 0.66737,1.42302 1.14133,2.05867c0.57326,0.76881 -0.08036,1.82675 0.34116,2.55884c0.46724,0.81149 0.94283,1.35716 0.94283,2.15717c0,0.89999 0,1.8 0,2.7c0,0.89999 0,1.79999 0,2.70001c0,0.89999 0.30621,1.94196 -0.2215,2.67899c-0.40221,0.56174 -1.0527,1.19125 -1.3785,1.845c-0.46381,0.93066 -1.23701,1.60846 -1.4,2.29684c-0.22646,0.95645 -0.46082,1.78256 -1.02533,2.54315c-0.45778,0.61676 -1.32687,1.11826 -1.6175,1.78784c-0.42949,0.98947 -0.67773,1.82504 -1.20784,2.47351c-0.43372,0.53055 -1.08021,1.41751 -1.14933,2.34131c-0.06065,0.81052 -0.42313,1.60382 -1.09983,2.05484c-0.70325,0.46869 -0.86602,1.5336 -1.33617,2.1785c-0.56832,0.77954 -1.36056,1.2551 -1.55334,2.20001c-0.18002,0.88235 -0.28632,1.85464 -1.17733,2.23334c-0.6104,0.25943 -1.62881,0.37839 -1.8335,1.26666c-0.20552,0.89191 -0.56525,1.54797 -1.29984,2.1955c-0.66222,0.58374 -1.63666,0.30112 -2.41467,0.78983c-0.74007,0.46487 -0.96303,1.48145 -1.72133,1.87866c-0.76222,0.39926 -1.3043,0.51263 -1.5685,1.33151c-0.24884,0.77127 -1.35843,0.84741 -1.97466,1.22534c-0.92849,0.56943 -1.24303,1.44412 -1.66817,2.17917c-0.43259,0.74796 -1.06107,1.27014 -1.87,1.29865c-0.96124,0.03384 -1.8933,-0.13217 -2.78267,0.00583c-0.9304,0.14438 -1.18184,0.93372 -1.75266,1.63834c-0.59178,0.7305 -1.39252,1.09589 -1.89467,1.71436c-0.57206,0.70459 -0.87647,1.41617 -1.04816,2.34283c-0.17213,0.92902 -0.86088,1.35181 -1.0045,2.29999c-0.1198,0.79095 -0.3145,1.38715 -0.83333,2.16666c-0.47088,0.70746 0.22629,1.7637 -0.252,2.548c-0.49007,0.80362 -0.91467,1.38535 -0.91467,2.28534c0,0.79999 0,1.70001 0,2.60001c0,0.89999 -0.18239,2.04208 0.52083,2.37915c0.78369,0.37564 1.59105,0.50024 2.1265,1.07352c0.64001,0.68524 1.32274,1.1619 1.95266,1.522c0.86419,0.49405 1.6188,0.92584 2.4,1.25867c0.75154,0.32019 1.76292,0.12918 2.5,0.6875c0.7767,0.58835 0.94837,1.44415 1.55267,2.12198c0.49319,0.55319 1.54733,0.35718 2.44733,0.35718c0.9,0 1.80462,0.01541 2.82133,-0.00015c0.6789,-0.01041 1.62821,-0.2742 2.37417,-0.64719c0.77837,-0.38919 1.71501,-0.21994 2.6045,-0.35715c0.93138,-0.14368 1.47153,-0.82956 2.39999,-0.99103c0.92303,-0.16052 1.77695,-0.30588 2.47467,-0.57916c0.93116,-0.36475 1.78303,-0.66031 2.52533,-1.07266c0.82441,-0.45798 1.31665,-1.0708 2.06167,-1.40533c0.85764,-0.38513 1.55302,-0.73019 2.60233,-0.91132c0.82317,-0.14209 1.30043,0.49649 1.74583,1.25867c0.42492,0.72714 1.4075,0.70398 2.36933,0.70532c0.9315,0.00128 1.84217,0.00061 2.6955,0c0.93867,-0.00067 1.55436,-0.29581 2.04683,-1.09982c0.37958,-0.61972 1.45901,-0.55215 2.25767,-0.92102c0.77108,-0.35614 1.28636,-0.94092 2.02084,-1.5c0.77533,-0.59018 1.31535,-1.15689 2.1,-1.50449c0.81777,-0.36227 1.67855,-0.71811 2.49983,-1.19617c0.62807,-0.3656 0.90648,-1.37009 1.60467,-1.83118c0.7553,-0.49881 1.21053,-1.26636 1.72083,-1.93265c0.4637,-0.60544 0.65686,-1.59488 1.436,-1.95334c0.907,-0.41727 1.61943,-0.61047 2.45983,-1.16135c0.644,-0.42215 1.51948,-0.97665 1.67616,-1.69998c0.19453,-0.89807 0.85482,-1.21252 1.52351,-1.74167c0.87619,-0.69333 1.33881,-1.246 1.76933,-1.80566c0.72979,-0.9487 1.18382,-1.54642 1.90983,-1.93668c0.85479,-0.45947 1.65017,-0.72922 2.32083,-1.25766c0.70593,-0.55624 1.30473,-1.28345 1.82651,-1.80566c0.76768,-0.76834 1.26694,-1.26077 1.854,-2.13669c0.45433,-0.67786 0.93556,-1.38858 1.62399,-1.88c0.6642,-0.47412 1.53539,-1.03946 2.27484,-1.73599c0.53348,-0.5025 1.41809,-1.04675 2.0385,-1.5c0.73956,-0.54028 0.97594,-1.61835 1.56583,-2.04282c0.79042,-0.56876 1.71323,-0.7749 2.2955,-1.35718c0.58228,-0.58228 0.85007,-1.51901 1.56934,-2.20001c0.53334,-0.50497 1.54437,-0.77863 2.069,-1.5c0.51637,-0.71002 0.65167,-1.69302 1.4615,-2.17865c0.72978,-0.43762 1.18512,-1.18091 1.5475,-1.82135c0.46442,-0.82077 1.05566,-1.35532 1.85266,-1.79999c0.79852,-0.44553 1.80472,-0.31412 2.416,-0.784c0.68037,-0.52301 0.71553,-1.31848 1.10483,-2.19516c0.31567,-0.71091 0.8578,-1.36215 1.5,-2c0.64331,-0.63895 1.67917,-0.52084 2.57901,-0.521l0.77882,-0.22119" id="svg_1" stroke-width="2" stroke="#000" fill="none"/>
  <path t="6734,6907,6917,6934,6951,6968,6984,7001,7018,7034,7034,7051,7068,7084,7084,7100,7100,7118,7118,7133,7134,7150,7212,7236,7252,7268,7268,7284,7300,7317,7334,7334,7334,7335,7350,7351,7367,7368,7368,7384,7385,7400,7417,7418,7435,7450,7451,7468,7468,7485,7485,7501,7501,7524,7524,7524,7534,7551,7552,7567,7584,7601,7602,7617,7634,7652,7652,7652,7668,7668,7684,7701,7718,7718,7735,7752,7752,7768,7784,7804,7817,7834,7852,7884,7884,7900,7900,7908,7924,7948,7988,7996,8036,8060,8060,8068,8092,8117,8156,8164,8196,8212,8219,8244,8252,8300,8316,8316,8332,8356,8388,8428,8436,8460,8508,8508,8604,8660,8660,8756,8892,9197,9277,9301,9341,9357,9397,9461,9461,9517,9877,9885,9886,9904,9920,9921,9937,9953,9970,9971,10045,10053,10084,10117,10213,10221,10252,10333,10333,10340,10372,10388,10404,10420,10436,10468,10492,10709,10749,10885,10892,10905,10922,10938,10955,10972,10972,10988,11005,11022,11037,11038,11055,11072,11072,11088,11105,11105,11141,11148,11172,11196,11220,11228,11238,11255,11272,11293,11293,11309,11309,11333,11349,11365,11396,11436,11437,11468,11492,11516,11533,11556,11572,11580,11604,11605,11628,11644,11676,11684,11706,11722,11740,11740,11740,11756,11756,11771,11788,11806,11822,11822,11839,11856,11876,11877,11892,11906,11922,11922,11939,11955,11973,11973,11989,12012,12028,12029,12044,12056,12073,12073,12089,12106,12106,12123,12124,12139,12139,12156,12173,12196,12197,12206,12206,12228,12239,12256,12273,12273,12290,12306,12323,12323,12340,12340,12356,12356,12373,12390,12406,12406,12423,12423,12440,12440,12456,12456,12473,12473,12490,12490,12506,12506,12523,12523,12540,12540,12556,12556,12573,12573,12590,12590,12590,12606,12606,12606,12623,12623,12623,12640,12640,12640,12640,12657,12657,12657,12673,12673,12673,12690,12708,12709,12733,12733,12748,12749,12764,12773,12789,12807,12823,12823,12840,12840,12840,12857,12857,12857,12873,12873,12890,12890,12890,12907,12907,12923,12923,12940,12957,12957,12974,12990,12990,13007,13007,13024,13024,13040,13040,13040,13057,13057,13057,13074,13074,13090,13090,13108,13109,13132,13141,13164,13180,13196,13212,13236,13276,13277,13292,13306,13324,13342,13342,13359,13359,13380,13381,13404,13424,13441,13441,13457,13474,13491,13491,13507,13507,13507,13507,13524,13524,13541,13541,13541,13557,13557,13868,13869,13884,13900,13908,13924,13941,13941,13958,13958,13974,13991,14008,14025,14041,14041,14058,14085,14100,14117,14132,14148,14158,14175,14175,14191,14208,14208,14225,14241,14241,14258,14258,14275,14275,14292,14292,14308,14325,14342,14358,14380,14380,14392,14408,14425,14442,14459,14459,14476,14492,14492,14509,14509,14525,14526,14542,14543,14559,14559,14580,14581,14596,14609,14625,14642,14660,14660,14675,14692,14724,14748,14756,14764,14780,14804,14812,14836,14868,14876,14900,14900,14924,14940,14956,14988,15004,15028,15052,15068,15069,15092,15108,15108,15132,15148,15196,15197,15204,15221,15236,15244,15260,15277,15294,15310,15310,15327,15343,15364,15377,15377,15394,15410,15427,15484,15500,15509,15548,15628,15644,15659,15676,15693,15719,15719,15742,15748,15748,15764,15780,15796,15810,15826,15844,15860,15956,15972,15973,16004,16012,16052,16068,16077,16093,16110,16110,16128,16143,16160,16160,16177,16193,16210,16227,16227,16244,16244,16260,16277,16294,16310,16327,16327,16348,16348,16364,16377,16377,16394,16410,16427,16444,16460,16477,16494,16510,16527,16564,16572,16573,16596,16610,16627,16644,16660,16677,16694,16694,16710,16727,16744,16744,16761,16777,16793,16811,16827,16844,16861,16877,16877,16877,16894,16894,16911,16911,16927,16944,16944,16961,16961,16977,16977,16994,17011,17011,17027,17027,17044,17044,17044,17061,17078,17078,17094,17094,17111,17111,17129,17144,17161,17161,17178,17178,17194,17211,17228,17228,17244,17261,17261,17278,17278,17278,17295,17295,17296,17311,17311,17328,17328,17344,17344,17361,17378,17378,17394,17394,17411,17428,17428,17445,17461,17461,17478,17478,17478,17495,17511,17511,17528,17528,17528,17545,17561,17561,17561,17580,17580,17596,17611,17611,17628,17645,17645,17661,17678,17678,17695,17695,17711,17728,17745,17762,17762,17778,17794,17795,17812,17812,17828,17845,17845,17862,17862,17862,17878,17900,17901,17912,17932,17945,17962,17980,17996,18020,18028,18028,18045,18062,18079,18095,18112,18140,18164,18164,18172,18204,18212,18229,18229,18245,18276,18308,18316,18372,18404,18404,18444,18468,18556" d="m158,268c1.8,0 2.7,0 3.60001,0c0.89999,0 1.79999,0 2.7,0c0.89999,0 1.8,0 2.7,0c0.8,0 1.7,0 2.52083,0c0.96317,0 1.65384,0 2.731,0c0.7175,0 1.75351,0 2.4975,0c1.10767,0 1.94167,0 2.85068,0c0.89999,0 1.80791,-0.22571 2.59866,0.28534c0.80273,0.5188 0.89977,1.40256 1.60266,1.79868c0.8166,0.46021 1.64726,0.83691 2.532,1.24933c0.70172,0.32709 1.1835,0.69397 1.98401,1.18399c0.99112,0.60672 1.72769,0.88211 2.51599,1.64932c0.60617,0.58997 0.86476,1.17896 1.46217,2.08069c0.42099,0.63544 0.68649,1.57751 0.7045,2.586c0.01349,0.75586 -0.04195,1.70691 0.284,2.65067c0.24461,0.70825 0.67207,1.62857 0.71468,2.39999c0.05249,0.95056 0.00133,1.71732 0.00133,2.72049c0,0.85266 0,1.81668 0,2.61017c0,0.77551 0,1.81467 0,2.78534c0,0.79999 0,1.70001 0,2.52084c0,0.96317 0,1.82648 0,2.72198c0,0.9585 0,1.92383 0,2.59317c0,0.76532 0,1.75949 0,2.67868c0,0.96448 0,1.896 0,2.80664c0,0.85333 0,1.79333 0,2.67868c0,0.79999 0,1.70001 0,2.60001c0,0.89999 0,1.79999 0,2.69998c0,0.90134 0,1.86667 0,2.52536c0,1.008 0,1.87015 0,2.77466c0,0.89999 0,1.79999 0,2.69998c0,0.90002 0,1.80002 0,2.70001c0,0.79999 0,1.70001 0,2.60001c0,0.89999 0,1.79999 0,2.69998c0,0.90002 -0.25627,1.92493 0.22133,2.57867c0.51071,0.6991 0.77867,1.32135 0.77867,2.22134c0,0.89999 0,1.69998 0,2.60001c0,0.89999 0,1.79999 0,2.69998c0,0.89999 0,1.80002 0,2.70016c0,0.78519 0,1.72519 0,2.73318c0,0.75598 0.39587,1.75949 -0.02083,2.64581c-0.33182,0.70575 -1.53114,0.23178 -2.3685,0.53152c-0.73674,0.26373 -1.05989,1.22812 -1.69467,1.70532c-0.76656,0.57626 -1.91214,-0.20236 -2.55884,0.34116c-0.61183,0.51422 0.64284,0.94284 1.44284,0.94284c0.95717,0 1.8732,-0.11856 2.716,0.08533c0.888,0.21481 1.57788,0.85379 2.48399,0.91467c0.7982,0.05362 1.7,0 2.60001,0c0.89999,0 1.79999,0 2.7,0c0.89999,0 1.8,0 2.7,0c0.8,0 1.7,0 2.60001,0c0.89999,0 1.84709,0.09402 2.7,-0.35266c0.75223,-0.39395 1.24756,-1.09348 1.98534,-1.56201c0.69147,-0.43912 1.98856,0.36792 2.59315,-0.30682c0.59184,-0.66049 -0.20029,-1.91641 0.28818,-2.61185c0.50232,-0.71518 0.65005,-1.32092 1,-2.16666c0.32466,-0.78464 0.68091,-1.51434 0.84399,-2.39999c0.15311,-0.83145 0.8868,-1.58939 0.98801,-2.39999c0.10368,-0.83038 0.31801,-1.67099 0.64867,-2.54733c0.3334,-0.88361 0.6535,-1.70352 1,-2.35269c0.45335,-0.84937 0.35266,-1.79999 0.35266,-2.69998c0,-0.89999 0,-1.80002 0,-2.70001c0,-0.89999 0.44911,-1.4462 0.91467,-2.18665c0.47061,-0.74847 -0.02541,-1.74747 0.252,-2.54669c0.28168,-0.81155 0.81532,-1.5661 0.83333,-2.46664c0.01799,-0.89984 0,-1.80002 0,-2.70001c0,-0.79999 0,-1.70001 0,-2.60001c0,-0.89999 0,-1.79999 0,-2.69998c0,-0.90002 0,-1.80002 0,-2.70001c0,-0.79999 0,-1.70001 0,-2.60001c0,-0.89999 -0.00066,-1.79999 0,-2.69998c0.00067,-0.90134 0.16861,-1.86591 0.42534,-2.53601c0.29288,-0.76447 0.54216,-1.75815 0.57016,-2.50684c0.03816,-1.02048 -0.10246,-1.96368 0.00583,-2.85718c0.11148,-0.91977 0.80867,-1.45407 0.98801,-2.39999c0.17154,-0.90479 0.01067,-1.72131 0.01067,-2.57465c0,-0.94 0,-1.92535 0,-2.82535c0,-0.79999 -0.03613,-1.7619 0.52083,-2.5c0.50224,-0.66559 1.2868,-1.15289 1.46851,-2.10001c0.17351,-0.90442 0.01067,-1.72131 0.01067,-2.57465c0,-0.94 0,-1.92535 0,-2.82535c0,-0.79999 -0.02116,-1.65491 0.28534,-2.48532c0.27527,-0.74579 0.83803,-1.70349 1.19383,-2.49384c0.37959,-0.8432 0.36375,-1.73422 0.95683,-2.41019c0.61247,-0.69809 1.63416,-0.90009 2.04317,-1.6315c0.43259,-0.77359 0.70497,-1.46237 1.35416,-2.14581c0.60191,-0.63367 1.39325,-0.5986 2.16667,-1.16669c0.52704,-0.38712 1.11166,-1.18243 1.83333,-1.83331c0.61884,-0.55814 1.18956,-0.76398 2.28267,-0.83469c0.77097,-0.04987 1.51463,-0.40891 2.40001,-0.71466c0.94377,-0.32593 1.7885,-0.284 2.80533,-0.284c0.67867,0 1.6575,0.00058 2.48849,0c0.95818,-0.00067 1.71724,0.12262 2.85684,-0.16666c0.68829,-0.17471 1.53085,-0.78946 2.21866,-0.832c0.94885,-0.05872 1.716,-0.00134 2.71468,-0.00134c0.79999,0 1.79999,0 2.59999,0c1,0 1.8,0 2.8,0c0.78934,0 1.83905,0.0676 2.66135,-0.03601c0.89371,-0.11261 1.59442,-0.4101 2.39047,-0.61133c1.02045,-0.25797 1.94797,-0.34109 2.63217,-0.35132c1.00256,-0.01495 1.85767,-0.00134 2.80267,-0.00134c1.03452,0 1.76151,0 2.49249,0c1.05151,0 1.978,0 2.75952,0c0.944,0 1.944,0 2.74048,0c0.7515,0 1.8595,0 2.84216,0c0.67868,0 1.65735,0 2.56268,0c0.94135,0 1.63199,0 2.70532,0c0.81067,0 1.71066,0 2.612,0c0.96533,0 1.81952,0 2.79868,0c0.81067,0 1.45715,0 2.68399,0c0.54135,0 1.36334,0 2.63068,0c0.66449,0 1.68533,0 2.48532,0c0.80002,0 1.80002,0 2.60001,0c0.99869,0 1.94284,0 2.84283,0c0.85733,0 1.64252,0 2.58252,0c1.008,0 1.79999,0 2.65997,0c0.91919,0 1.91602,0 2.75067,0c0.93066,0 1.71667,0 2.53867,0c1.05869,0 1.76819,0 2.62085,0c1.00449,0 1.8045,0 2.80432,0c0.77933,0 1.77866,0 2.59885,0c0.90134,0 1.80133,0 2.70132,0c0.89999,0 1.79999,0 2.70001,0c0.89999,0 1.80038,-0.02536 2.59998,0c0.9014,0.02859 1.62314,0.68491 2.50452,0.94284c0.82925,0.24268 1.69617,0.02127 2.67416,0.05731c0.77554,0.02859 1.66025,0.38733 2.36865,0.64719c0.99973,0.3667 2.07007,0.19357 2.75269,0.79532c0.51462,0.45364 1.08493,1.19489 1.77884,1.77869c0.66302,0.55783 1.40164,0.77203 2.28781,1.112c0.81189,0.31149 1.31161,0.71048 2.14935,1.09866c0.97607,0.4523 1.91449,0.52063 2.68399,0.90134c0.8591,0.42505 1.3703,1.05838 2.19983,1.64499c0.57047,0.40341 1.75015,0.60971 2.35352,1.047c0.65622,0.47559 0.44501,1.59415 0.87198,2.37466c0.45062,0.82373 0.52951,1.76895 0.58536,2.42535c0.08646,1.01633 0.73618,1.70193 0.95331,2.57465c0.21747,0.87405 0.03601,1.80002 0.03601,2.70001c0,0.89999 0,1.69998 0,2.60001c0,0.89999 0,1.79999 0,2.69998c0,0.89999 0,1.80002 0,2.70001c0,0.89999 0,1.69998 0,2.53598c0,1.01669 0,1.71133 0,2.73868c0,0.94684 0,1.64618 0,2.62534c0,0.78934 0,1.83334 0,2.62534c0,1.02734 0,1.72198 0,2.73868c0,0.93597 0,1.836 0,2.73599c0,0.89999 0,1.69998 0,2.60001c0,0.89999 0,1.79999 0,2.71066c0,0.91064 0,1.58932 0,2.70398c0,0.88535 0,1.64252 0,2.54251c0,0.74734 0.00006,1.74283 0,2.54285c-0.00009,0.99982 0.07565,1.99774 -0.22134,2.77866c-0.31406,0.82578 -0.74628,1.67258 -0.77417,2.36865c-0.04071,1.0159 -0.00449,1.95267 -0.00449,2.85269c0,0.89999 0,1.79999 0,2.59998c0,0.90002 0,1.80002 0,2.70001c0,0.89999 -0.07306,1.85016 0.42532,2.47467c0.4852,0.60797 0.57468,1.52533 0.57468,2.42532c0,0.89999 0,1.80002 0,2.70001c0,0.89999 0,1.69998 0,2.60001c0,0.89999 0.00226,1.79999 0,2.69998c-0.00226,0.89551 -0.45709,1.3634 -1.19867,1.88535c-0.78162,0.55011 -0.76129,1.47668 -1.32217,2.21466c-0.59018,0.77652 -1.25079,1.13605 -1.8685,1.89999c-0.60223,0.74478 -0.64694,1.73691 -1.31516,2.24283c-0.69522,0.52637 -1.66995,0.65866 -2.17416,1.457c-0.4866,0.77048 -0.94736,1.38522 -1.64218,1.90018c-0.6886,0.51035 -1.56662,0.92844 -2.04315,1.60001c-0.51489,0.72568 -1.04913,1.02945 -1.82535,1.42133c-0.78799,0.39783 -0.83505,1.29904 -1.32666,2.06134c-0.41855,0.64899 -0.49371,1.47641 -1.16266,2.13867c-0.61615,0.60999 -1.19031,1.12262 -1.69601,1.80399c-0.45914,0.61862 0.09851,1.44891 0.87018,1.922c0.65439,0.40118 1.24597,1.04224 2.18851,1.05267c0.69061,0.00763 1.69354,-0.189 2.616,0.22134c0.67233,0.29907 1.49994,0.77332 2.39999,0.77866c0.89996,0.00534 1.8548,-0.0788 2.47467,0.42532c0.61508,0.50021 1.22861,1.11786 2.12534,1.45319c0.85065,0.31808 1.69998,0.12149 2.60001,0.12149c0.89999,0 1.79999,0 2.69998,0c0.89999,0 1.8573,0.17346 2.60001,-0.16666c0.80261,-0.36755 1.21725,-1.26382 2.10001,-1.71201c0.84259,-0.42776 1.30942,-0.82874 1.89999,-1.60049c0.49786,-0.65063 1.40878,-0.94763 2,-1.52084c0.60922,-0.59067 1.29623,-1.30377 1.79999,-1.79999c0.69485,-0.68445 1.54092,-1.08859 2.17468,-1.62534c0.61606,-0.52173 1.52765,-0.82367 2.19998,-1.18533c0.82877,-0.44583 1.37442,-1.03302 2.12534,-1.68484c0.66666,-0.57867 1.64777,-0.6214 2.26401,-1.31516c0.58466,-0.65817 0.87491,-1.44696 1.48868,-2.03668c0.60867,-0.58484 0.72357,-1.46719 1.23132,-2.18332c0.48822,-0.68857 1.30203,-1.05228 2.01599,-1.52652c0.79166,-0.52585 1.4389,-1.17719 1.664,-2.04282c0.22562,-0.86755 0.70218,-1.40875 1.01517,-2.12085c0.35397,-0.80536 0.52136,-1.69794 0.85419,-2.47916c0.32019,-0.75153 0.13055,-1.7619 0.6875,-2.5c0.50223,-0.66556 1.32431,-1.26654 1.46848,-2.10001c0.15341,-0.88687 -0.23221,-1.83481 0.01517,-2.6955c0.2207,-0.76788 0.92697,-1.31876 1.0062,-2.12582c0.09039,-0.92084 0.42514,-1.82629 0.63666,-2.57333c0.24329,-0.85919 0.3504,-1.75351 0.35266,-2.65802c0.00214,-0.86331 -0.01718,-1.8475 0.00015,-2.66864c0.01801,-0.85388 0.34967,-1.76138 0.64719,-2.43134c0.38446,-0.86575 0.35199,-1.76334 0.35266,-2.74734c0.00055,-0.8215 0,-1.71066 0,-2.70001c0,-0.79999 0,-1.79999 0,-2.58932c0,-0.72534 0,-1.836 0,-2.69598c0,-0.72534 0,-1.71469 0,-2.51468c0,-1 -0.22498,-2.07492 0.284,-2.83066c0.47269,-0.70184 0.716,-1.336 0.716,-2.16934c0,-0.97849 0,-1.79868 0,-2.70001c0,-0.93597 0,-1.784 0,-2.64731c0,-0.90002 0,-1.81934 0,-2.67352c0,-0.97916 -0.00058,-1.78983 0,-2.66449c0.00067,-0.99734 -0.04871,-1.80307 0.08533,-2.54532c0.177,-0.98019 0.73157,-1.63132 0.87866,-2.60535c0.11438,-0.75751 -0.09091,-1.7807 0.12134,-2.67868c0.21271,-0.89996 0.81168,-1.64331 0.89383,-2.48532c0.09503,-0.97409 -0.07977,-1.80911 0.05685,-2.63599c0.14401,-0.87173 0.72824,-1.68106 0.90683,-2.61136c0.17365,-0.90457 0.00266,-1.78772 0.22382,-2.75266c0.13937,-0.60809 0.65521,-1.491 0.79733,-2.37466c0.15045,-0.93552 -0.02518,-1.66196 0.20267,-2.62534c0.19119,-0.80835 0.66934,-1.49072 0.8125,-2.52084c0.14069,-1.0123 0.02084,-1.72983 0.02084,-2.47382c0,-1.1955 0,-1.888 0,-2.83069c0,-1.008 0.31467,-1.55865 0.83334,-2.34131c0.46948,-0.7084 0.2225,-1.65198 0.6875,-2.35419c0.5455,-0.82379 0.93896,-1.50461 1.47916,-2.3125c0.44699,-0.66849 0.97134,-1.4653 1,-2.36667c0.02863,-0.89954 0.04178,-1.92969 0.7045,-2.44281c0.69641,-0.53918 1.49631,-0.92599 1.89551,-1.54251c0.60123,-0.92854 1.09888,-1.51129 1.79999,-2.21466c0.59903,-0.60097 1.12503,-1.11668 1.92117,-1.92134c0.49612,-0.50142 1.17273,-1.15987 1.61749,-2.04266c0.40665,-0.80714 0.83417,-1.4677 1.76135,-1.6315c0.85175,-0.15047 0.87692,-0.83885 1.35715,-1.64734c0.39127,-0.65872 1.49466,-0.83871 1.89017,-1.65717c0.4183,-0.8656 0.91434,-1.4463 1.44202,-2.09999c0.60092,-0.74442 0.9664,-1.57133 1.81067,-1.60001c0.89929,-0.03055 1.53415,-0.37926 2.02148,-1.09967c0.44003,-0.65048 1.31686,-0.12207 2.2785,0.07884c0.87054,0.18188 1.14798,-0.67754 1.66934,-1.41118c0.48456,-0.68187 1.35352,-0.07559 2.116,0.34668c0.80237,0.44435 1.50024,-0.35663 2,-1.11334c0.40213,-0.60892 1.41467,-0.79683 2.31467,-0.83733l0.79999,-0.38934" id="svg_2" stroke-width="2" stroke="#000" fill="none"/>
  <path t="20166,20252,20261,20261,20277,20285,20285,20285,20298,20298,20298,20313,20314,20331,20331,20331,20346,20347,20364,20364,20381,20381,20381,20397,20397,20397,20414,20431,20449,20449,20466,20483,20500,20500,20516,20516,20533,20533,20533,20549,20550,20550,20566,20566,20583,20583,20583,20599,20616,20632,20649,20666,20666,20682,20682,20699,20717,20717,20733,20733,20749,20749,20749,20766,20766,20766,20766,20782,20783,20783,20799,20816,20833,20833,20849,20866,20882,20899,20916,20932,20949,20949,20966,20966,20982,20999,21016,21032,21049,21066,21066,21082,21100,21124,21124,21140,21156,21196,21204,21228,21244,21244,21268,21276,21316,21748,21764,21772,21782,21798,21798,21798,21814,21814" d="m391,283c1.75717,0 2.65271,-0.00531 3.51599,0c0.86942,0.00534 1.81754,0.16602 2.49835,0.35266c0.80719,0.22128 1.98392,0.49512 2.87216,0.59467c0.55008,0.06165 1.72006,0.30804 2.27148,0.75717c0.66263,0.5397 1.40396,0.74524 2.07535,1.18085c1.02597,0.66568 1.4082,1.49722 1.96799,2.23065c0.51276,0.67184 1.284,1.36932 1.81952,1.90485c0.58047,0.58047 1.19229,1.16605 1.75781,1.76849c0.6669,0.71045 1.06406,1.5856 1.22583,2.51065c0.14279,0.8165 0.48846,1.62839 1.04819,2.34283c0.49451,0.6312 1.3121,1.04099 1.59015,1.76617c0.36847,0.96103 0.33963,1.83453 0.52383,2.75766c0.15848,0.79419 0.41354,1.64331 1,2.66669c0.2861,0.49924 0.82706,1.13104 1.66669,2c0.52673,0.54514 1.19791,1.31583 1.556,1.992c0.35727,0.67465 0.60022,1.65363 0.61066,2.57465c0.01019,0.89993 -0.04852,1.80133 0.00015,2.70016c0.04272,0.78864 0.47314,1.70691 0.71585,2.41583c0.32993,0.96368 0.284,1.80533 0.284,2.65866c0,0.94269 0,1.79468 0,2.59735c0,0.7905 -0.00598,1.71603 0.00034,2.74918c0.00446,0.72702 0.02213,1.82635 0.17032,2.50949c0.20465,0.94336 0.72229,1.65744 1.26135,2.48132c0.53979,0.82498 0.40433,1.7453 0.78934,2.58801c0.30579,0.66931 0.77332,1.49994 0.77866,2.39999c0.00534,0.89996 0,1.79999 0,2.70001c0,0.89999 0,1.79999 0,2.55716c0,0.89551 0,1.75882 0,2.72198c0,0.92084 -0.00018,1.82083 0,2.72086c0.00018,0.89981 0.36346,1.53363 1.14932,1.82532c0.83417,0.30963 1.3512,1.19345 1.68402,1.97467c0.32019,0.75153 0.22382,1.70001 0.66666,2.5c0.44284,0.79999 0.5,1.70001 0.5,2.60001c0,0.89999 0,1.69998 0,2.60001c0,0.89999 -0.30478,1.85776 0.01068,2.68933c0.27658,0.72913 1.38931,0.61066 2.29382,0.61066c0.86215,0 1.73715,0 2.38217,0l0.99466,0.00134l1.02133,0.03467" id="svg_3" stroke-width="2" stroke="#000" fill="none"/>
  <path t="22980,23068,23100,23117,23117,23132,23132,23149,23149,23149,23166,23166,23166,23182,23182,23199,23199,23216,23216,23233,23233,23249,23249,23249,23266,23266,23266,23283,23283,23300,23300,23316,23316,23333,23333,23349,23366,23366,23383,23404,23420,23433,23449,23468,23468,23492,23492,23516,23548,23556,23580,23580,23604,23612,23628,23660,23700,23708,23724,23740,23740,23750,23766,23788,23828,23844,23884,23916,23940,23940,23956,23964,23980,24004,24012" d="m450,300c0,1.79999 -0.0267,2.63644 0.00134,3.48401c0.02859,0.86465 0.4455,1.72745 0.71466,2.48532c0.35788,1.00769 0.27765,1.85193 0.28265,2.43335c0.01028,1.19595 0.00134,2.07648 0.00134,2.91199c0,0.99866 0,1.83865 0,2.80133c0,0.76801 0,1.72 0,2.48532c0,1.00317 0,1.85583 0,2.82001c0,0.80402 0,1.62601 0,2.65717c0,0.90067 0,1.52017 0,2.52151c0,0.79999 0,1.79999 0,2.60001c0,0.99982 0,1.96399 0,2.91599c0,0.76801 0,1.70935 0,2.71735c0,0.75598 0,1.66666 0,2.56665c0,0.89999 0,1.80002 0,2.70001c0,0.89999 0.03955,1.65823 -0.00449,2.55267c-0.04263,0.86603 -0.61279,1.62543 -0.91019,2.54733c-0.27756,0.86038 -0.08533,1.79999 -0.08533,2.59998c0,0.90002 0,1.80002 0,2.70001c0,0.89999 0,1.79999 0,2.70001c0,0.89999 0,1.79999 0,2.59998c0,0.90002 0,1.80002 0,2.70001c0,0.89999 0,1.79999 0,2.70001c0,0.89999 0,1.79999 0,2.59998c0,0.90002 0.03601,1.76401 0.716,2.28403l0.28265,0.71732l0.08667,0.91333" id="svg_4" stroke-width="2" stroke="#000" fill="none"/>
  <path t="25045,25227,25268,25332,25356,25356,25372,25380,25380,25396,25403,25418,25438,25438,25452,25452,25452,25468,25468,25468,25485,25485,25501,25501,25518,25518,25535,25535,25551,25551,25568,25568,25585,25585,25602,25602,25602,25618,25635,25635,25652,25652,25668,25668,25668,25668,25685,25702,25719,25736,25736,25752,25752,25768,25768,25768,25785,25802,25802,25818,25818,25818,25836,25836,25852,25868,25868,25885,25885,25902,25902,25919,25919,25935,25935,25952,25969,25969,25985,26002,26002,26019,26019,26019,26035,26035,26052,26052,26052,26069,26069,26069,26085,26102,26120,26120,26135,26135,26152,26169,26185,26202,26219,26219,26235,26235,26252,26284,26292,26302,26340,26356,26372,26396,26428,26444,26453,26492,26499,26540,26556,26580,26595,26605,26636,26654,26654,26671,26703,26703,26720,26720,26720,26738,26738,26770,26770,26787,26787,26787,26804,26804,26804,26821,26853,26853,26853,26870,26870,26870,26887,26887,26904,26905,26937,26937,26954,26954,26971,26972,27003,27003,27003,27021,27021,27021,27038,27038,27038,27038,27054,27054,27054,27072,27072,27087,27087,27104,27124,27137,27155,27172,27172,27172,27188,27188,27205,27205,27222,27222,27239,27256,27274,27274,27288,27288,27306,27306,27322,27323,27323,27338,27339,27356,27356,27356,27372,27372,27372,27389,27389,27389,27406,27407,27422,27422,27440,27453,27454,27454,27454,27471,27472,27472,27490,27490,27491,27505,27506,27506,27506,27521,27521,27521,27540,27541,27541,27554,27554,27554,27555,27571,27571,27590,27591,27612,27613,27624,27641,27641,27658,27659,27675,27675,27675,27676,27688,27689,27689,27689,27707,27707,27707,27707,27724,27724,27742,27742,27759,27759,27759,27773,27773,27773,27774,27790,27790,27807,27807,27823,27824,27824,27824,27840,27841,27841,27841,27858,27858,27858,27859,27859,27876,27876,27876,27877,27894,27895,27912,27929,27957,27957,27980,27990,28006,28028,28044,28045,28069,28092,28181,28205,28220,28228,28238,28255,28273,28288,28308,28322,28322,28349,28373,28396,28404,28436,28476,28508,28533,28533,28588,28604,28620,28636,28660,28661,28676,28688,28708,28725,28740,28755,28771,28788,28788,28805,28805,28821,28821,28838,28838,28855,28855,28855,28871,28871,28888,28888,28888,28905,28905,28921,28921,28938,28955,28972,28973,28988,28988,29005,29005,29022,29022,29038,29055,29072,29072,29088,29105,29123,29138,29155,29155,29172,29188,29188,29205,29222,29222,29238,29238,29255,29276,29277,29288,29306,29322,29339,29355,29355,29372,29389,29389,29405,29406,29406,29422,29422,29423,29439,29440,29455,29455,29456,29472,29472,29473,29489,29489,29505,29505,29506,29523,29540,29540,29558,29575,29575,29576,29576,29593,29594,29594,29611,29612,29612,29630,29630,29630,29652,29653,29668,29669,29685,29703,29722,29722,29740,29740,29758,29804,29892,29908,29917,29940,29988,30005,30044,30092,30132,30140,30158,30180,30196,30220,30231,30249,30268,30286,30286,30305,30324,30342,30342,30361,30361,30379,30397,30415,30436,30437,30453,30470,30489,30489,30507,30525,30543,30562,30562,30589,30589,30605,30636,30652,30668,30684,30685,30695,30714,30733,30752,30752,30771,30771,30790,30790,30808,30808,30852,30868,30877,30895,30916,30932,30951,30973,30973,30988,31028,31044,31084,31100,31108,31126,31144,31163,31181,31200,31201,31220,31244,31269,31269,31308,31341,31388,31412" d="m449,303c1,-1 1.44614,-1.54758 1.91467,-2.28534c0.43921,-0.69159 0.08533,-1.60001 0.08533,-2.54001c0,-1.008 0,-1.76398 0,-2.67465c0,-0.89999 -0.14294,-1.90341 0.44266,-2.60034c0.45734,-0.54428 1.29047,-1.215 1.44302,-1.90948c0.16757,-0.76288 0.08917,-2.06952 0.125,-2.75418c0.04379,-0.83685 0.29736,-1.85635 0.69382,-2.57883c0.44144,-0.80444 1.05341,-1.37949 1.23834,-2.31433c0.14542,-0.73495 0.00259,-1.74722 0.09317,-2.54285c0.11505,-1.01035 0.42941,-1.81268 0.96399,-2.63333c0.45483,-0.69824 1.15326,-1.4617 1.47916,-2.1875c0.42651,-0.94989 0.40985,-1.78668 0.60486,-2.49384c0.24701,-0.89581 0.95581,-1.63 1.30533,-2.31067c0.50311,-0.97983 0.59772,-1.71616 0.61066,-2.67465c0.01154,-0.85342 -0.10846,-1.49826 0.08533,-2.36267c0.25201,-1.12415 0.90933,-1.74792 0.91467,-2.65817c0.0047,-0.80066 0,-1.68982 0,-2.67917c0,-0.79999 -0.03513,-1.80124 0.01068,-2.58932c0.0423,-0.72794 0.59906,-1.66849 0.86798,-2.53217c0.211,-0.67769 0.27371,-1.68326 0.54666,-2.4785c0.27631,-0.80508 0.54221,-1.79417 0.57019,-2.54283c0.03854,-1.03111 0.00449,-1.97867 0.00449,-2.67799c0,-0.97917 -0.1391,-2.04344 0.33334,-2.8125c0.38791,-0.63147 1.47794,-1.11432 1.64532,-1.80267c0.24026,-0.9881 0.02133,-1.71133 0.02133,-2.73866c0,-0.94667 0,-1.8 0,-2.74001c0,-0.88533 0.03494,-1.70522 0.284,-2.65466c0.19839,-0.75633 0.48788,-1.53848 0.63068,-2.54533c0.12326,-0.86914 0.08533,-1.68533 0.08533,-2.496c0,-0.87466 0,-1.87199 0,-2.6685c0,-0.7515 0,-1.84883 0,-2.82533c0,-0.86217 0,-1.6955 0,-2.674c0,-0.82016 0,-1.7215 0,-2.62151c0,-0.89999 0.03961,-1.81152 -0.00034,-2.72116c-0.03601,-0.81985 -0.55746,-1.58078 -1.3515,-1.66983c-0.99545,-0.11165 -1.35602,-0.58372 -1.65884,-1.39833c-0.27267,-0.73349 -0.98398,-1.2213 -0.98932,-2.11067c-0.0054,-0.89998 0.00009,-1.8 0,-2.7c-0.00009,-0.89984 -0.56677,-1.47771 -0.96399,-2.23601c-0.39926,-0.76222 -0.42358,-1.57895 -1.06134,-2.13866c-0.5896,-0.51746 -1.25845,-1.10524 -1.89066,-1.70934c-0.57599,-0.55037 -1.30353,-0.97951 -1.884,-1.51733c-0.62173,-0.57607 -1.30017,-1.29884 -1.836,-1.83467c-0.68533,-0.68533 -1.3624,-1.3656 -1.88,-1.88c-0.7291,-0.72459 -1.37344,-1.17963 -2.32001,-1.48c-0.77002,-0.24435 -1.57394,-0.84834 -1.96399,-1.29066c-0.61606,-0.69865 -1.36392,-1.62025 -1.98935,-2.03067c-0.6904,-0.45305 -1.76508,-0.61122 -2.53217,-1.12582c-0.56192,-0.37697 -1.10544,-1.00476 -1.87833,-1.97784c-0.40771,-0.51332 -0.86813,-1.37334 -1.63351,-2.07899c-0.58221,-0.5368 -1.51468,-0.81978 -1.96664,-1.38667c-0.56943,-0.71425 -0.86014,-1.58409 -1.85718,-2.00349c-0.7041,-0.29619 -1.7518,-0.37347 -2.34283,-0.63066c-1.01678,-0.44244 -1.8046,-0.89262 -2.45715,-1.17917c-0.95587,-0.41974 -1.77289,-0.71024 -2.35352,-0.864c-1.1788,-0.31218 -2.08875,-0.3905 -2.68933,-0.41518c-0.89944,-0.03696 -2.09781,-0.00621 -2.67868,-0.03149c-1.05231,-0.04581 -1.97644,-0.41853 -2.70398,-0.70534c-0.90942,-0.35849 -1.79773,-0.11661 -2.57568,-0.80482c-0.68719,-0.60796 -0.25555,-1.87756 -0.82831,-2.39517c-0.67886,-0.61351 -1.53207,-0.55969 -2.31467,-0.8c-0.97675,-0.29993 -1.83337,-0.27353 -2.64603,-0.98933c-0.58255,-0.51312 -1.29572,-0.96709 -2.04282,-1.34283c-0.86319,-0.43413 -1.47266,-0.91026 -2.36252,-0.95633c-0.86594,-0.04483 -1.70129,-0.49504 -2.31665,-0.7115c-1.00461,-0.35338 -1.81598,-0.27866 -2.86401,-0.284c-0.93066,-0.00473 -1.56216,0 -2.56799,0c-0.83466,0 -1.7655,0.0128 -2.55133,-0.0045c-0.82239,-0.01811 -1.89505,-0.11621 -2.82199,-0.4315c-0.6904,-0.23483 -1.64172,-0.67732 -2.44,-0.95332c-0.77112,-0.26662 -1.81281,-0.5621 -2.53351,-0.60617c-0.90286,-0.05521 -1.79721,-0.02429 -2.63718,-0.44051c-0.9884,-0.48976 -1.62039,-0.88693 -2.43597,-1.12799c-0.57593,-0.17023 -1.77612,-0.37013 -2.65784,-0.41518c-0.5632,-0.02876 -1.83902,-0.00168 -2.54169,-0.04166c-0.75006,-0.04268 -1.95023,-0.25679 -2.6405,-0.41518c-0.72589,-0.16656 -1.45966,-0.35257 -2.517,-0.664c-0.97852,-0.28822 -1.58337,-0.47803 -2.655,-0.89999c-0.72446,-0.28526 -1.41809,-0.62761 -2.5,-1c-0.62799,-0.21616 -1.65149,-0.48221 -2.30417,-0.7c-1.10858,-0.3699 -1.77029,-0.91455 -2.68381,-1.1785c-0.82669,-0.23886 -1.79468,-0.11711 -2.56268,-0.12151c-0.93073,-0.00534 -1.76498,-0.362 -2.36932,-0.716c-0.73364,-0.42975 -1.58594,-0.25859 -2.74667,-0.45067c-0.91196,-0.15091 -1.52054,-0.35521 -2.48532,-0.63466c-1.03568,-0.29997 -1.77005,-0.49402 -2.51468,-0.7195c-0.75018,-0.22716 -1.84125,-0.62938 -2.51199,-0.96184c-0.63858,-0.31651 -1.40955,-0.94418 -2.51868,-1.34666c-0.69138,-0.25089 -1.6348,-0.13373 -2.431,-0.22783c-0.96707,-0.1143 -1.77689,-0.37065 -2.64282,-0.64734c-0.89825,-0.28702 -1.78979,-0.58641 -2.35385,-0.7955c-0.77573,-0.28757 -1.86792,-0.91743 -2.42432,-1.3c-0.76276,-0.52444 -1.57007,-0.9222 -2.539,-1.3c-0.8179,-0.31891 -1.42273,-0.50752 -2.065,-0.7c-1.39389,-0.41771 -2.15189,-0.60199 -2.92401,-0.836c-0.7934,-0.24045 -1.59348,-0.52043 -2.38931,-0.84799c-0.80432,-0.33105 -1.59409,-0.70488 -2.40002,-1.03201c-1.19113,-0.48347 -1.98325,-0.73366 -2.73749,-0.94232c-0.68823,-0.1904 -1.82581,-0.30811 -2.63049,-0.567c-0.87881,-0.28273 -1.52588,-0.91379 -2.43201,-0.97467c-0.79819,-0.05363 -1.80438,0.37781 -2.64282,-0.05716c-0.74863,-0.38838 -1.37784,-0.93242 -2.33566,-0.94284c-0.82013,-0.00891 -1.81418,0.35489 -2.58551,-0.036c-0.69812,-0.35379 -1.23734,-0.96333 -2.13602,-0.964c-0.89999,-0.00067 -1.79999,0 -2.69998,0c-0.89999,0 -1.80002,0 -2.70001,0c-0.89999,0 -1.69998,0 -2.60001,0c-0.89999,0 -1.79999,0 -2.69998,0c-0.89999,0 -1.80002,0 -2.70001,0c-0.89999,0 -1.69998,0 -2.60001,0c-0.89999,0 -1.83472,-0.05287 -2.59998,0.35266c-0.84604,0.44833 -1.58966,0.56799 -2.51468,0.658c-0.86209,0.08389 -1.42307,0.78203 -2.28516,0.9895c-0.84012,0.20218 -1.25604,0.97124 -2.20016,0.99983c-0.90091,0.02728 -1.58536,0 -2.53601,0c-0.76532,0 -1.7706,-0.05809 -2.564,0.05716c-1.01605,0.1476 -1.82098,0.57939 -2.76666,0.77617c-0.77261,0.16077 -1.57199,0.16133 -2.69067,0.16667c-0.79333,0.00378 -1.68552,0 -2.40399,0c-0.7905,0 -2.052,-0.00005 -2.69702,0c-1.02014,0.00009 -1.81677,0.12619 -2.64166,0.57466c-0.7901,0.42957 -1.73013,0.33389 -2.57465,0.46133c-0.96255,0.14526 -1.54865,0.72427 -2.48251,0.90685c-0.73529,0.14374 -1.74152,0.05556 -2.50684,0.05716c-1.07433,0.00226 -1.64316,0.5737 -2.40533,0.91467c-0.71808,0.32124 -1.79466,0.08533 -2.73067,0.08533c-0.89999,0 -1.8,0 -2.7,0c-0.8,0 -1.63681,-0.03619 -2.65266,0.0045c-0.69611,0.02789 -1.59714,0.34454 -2.34734,0.9955c-0.64204,0.55711 -1.48126,0.94702 -2.17467,0.98933c-1.06628,0.06506 -1.87616,0.31151 -2.52533,0.658c-0.84938,0.45335 -1.83476,0.2997 -2.60001,0.70532c-0.84595,0.44841 -1.67216,0.85831 -2.3,1.222c-0.76985,0.44597 -1.7135,0.42485 -2.45599,0.42534c-0.99733,0.00067 -1.9662,0.00076 -2.64317,0.05716c-0.97032,0.08083 -1.77881,0.32025 -2.69183,0.59018c-1.0013,0.29602 -1.82573,0.30644 -2.80916,0.57416c-0.62437,0.16997 -1.47836,0.59735 -2.4825,0.97717c-0.52858,0.19994 -1.29724,0.48813 -2.51201,0.74866c-0.76785,0.16467 -1.58005,0.31808 -2.30533,0.5735c-0.7394,0.26038 -1.76735,0.98085 -2.60001,1.35783c-0.66455,0.30087 -1.42676,0.68237 -2.23332,1.28801c-0.66902,0.50235 -1.19225,0.86118 -2.06934,1.34933c-0.8819,0.49083 -1.77924,0.86012 -2.36134,1.03732c-1.05746,0.3219 -2.03722,0.34007 -2.63148,0.61368c-1.1044,0.50847 -1.36465,1.14719 -2.0045,1.77499c-0.75563,0.74141 -1.58066,0.97511 -2.57851,1.05817c-0.82173,0.06841 -1.49002,0.56148 -2.3215,0.94716c-0.87326,0.40506 -1.42342,0.8118 -2.35266,1.34818c-0.67265,0.38828 -1.64165,0.57504 -2.32201,1.12984c-0.60281,0.49156 -1.36888,0.6416 -2.05066,1.14932c-0.64081,0.47722 -1.59981,0.41345 -2.37466,0.85068c-0.72624,0.40979 -1.75443,0.25146 -2.47867,0.79599c-0.64285,0.48332 -0.93008,1.44487 -1.64217,1.75784c-0.80537,0.35397 -1.73039,0.45369 -2.47917,0.85416c-0.79144,0.42329 -1.34421,0.95715 -2.10001,1.38817c-0.6691,0.38158 -1.23465,1.27808 -2,1.65717c-0.84677,0.41942 -1.5042,0.78906 -2.38266,1.03734c-0.7881,0.22275 -1.50371,0.71004 -1.94267,1.48399c-0.46278,0.81595 -1.01175,1.52838 -1.75999,1.58934c-1.04962,0.08551 -1.63579,0.55357 -2.38266,0.92667c-0.66147,0.33043 -1.25534,0.71585 -1.45284,1.584c-0.19159,0.84216 -1.16454,1.22594 -1.77917,1.66933c-0.74278,0.53583 -0.8685,1.46027 -1.59999,2.18401c-0.69472,0.68736 -1.87955,0.32355 -2.47867,0.86816c-0.69769,0.63422 -0.78069,1.57512 -1.72134,1.76784c-0.88222,0.18076 -1.69443,0.37395 -2.39999,1.01067c-0.63107,0.5695 -1.48804,0.89935 -2.21066,1.02533c-0.99341,0.1732 -1.75204,0.52042 -2.62267,0.808c-0.79225,0.2617 -1.44954,0.84756 -2.08267,1.45067c-0.57411,0.54689 -1.384,0.71591 -2.284,0.716c-0.89984,0.00009 -1.48488,0.45963 -2.24284,0.87849c-0.65706,0.36311 -1.78271,-0.07176 -2.50449,0.47417c-0.62421,0.47214 -1.37436,0.45244 -2.25134,0.64867c-0.80704,0.18057 -1.32201,0.98605 -2.20132,0.99867c-0.89543,0.01286 -1.4738,0.63667 -2.30984,0.94284c-0.60487,0.22151 -1.66518,-0.08159 -2.59016,0.06166c-0.93169,0.14429 -1.5,0.79683 -2.09999,1.38483l-0.79868,0.52667l-0.74866,0.43666l-0.48868,0.61134" id="svg_5" stroke-width="2" stroke="#000" fill="none"/>
  <path t="33245,33372,33397,33404,33404,33444,33452,33468,33500,33509,33526,33543,33559,33576,33593,33612,33636,33636,33652,33668,33676,33700,33725,33740,33772,33780,33780,33793,33812,33836,33860,33860,33884,33892,33910,33926,33943,33960,33960,33976,33993,34010,34011,34026,34044,34061,34084,34093,34116,34132,34180,34204,34236,34268,34284,34324,34340,34380,34548,34708,34740,34780,34796,34828,34852,34884,34908,34908,34924,34948,34972,35004,35020,35052,35092,35108,35108,35148,35156,35172,35212,35348,35356,35366,35380,35404,35412,35428,35461,35478,35500,35524,35524,35524,35540,35556,35564,35588,35604,35677,35693,35701,35725,35732,35748,35764,35788,35796,35828,35844,35852,35869,35892,35957,35973,36021" d="m111,215c-0.05717,-1.7 -0.54179,-2.4803 -1.19867,-3.2c-0.53349,-0.58452 -0.44434,-1.59349 -0.83733,-2.364c-0.35559,-0.69719 -0.96333,-1.23734 -0.964,-2.136c-0.00067,-0.90001 0,-1.8 0,-2.7c0,-0.90001 0,-1.8 0,-2.70001c0,-0.89999 0,-1.7 0,-2.59999c0,-0.90001 0,-1.8 0,-2.7c0,-0.90001 0,-1.8 0,-2.70001c0,-0.89999 0,-1.7 0,-2.59999c0,-0.90001 0,-1.82083 0,-2.784c0,-0.69067 -0.14265,-1.77081 0.00017,-2.61584c0.144,-0.85202 0.84914,-1.26814 1.00433,-2.20016c0.13614,-0.81761 0.66982,-1.5174 1.02083,-2.3c0.368,-0.8205 1.17662,-1.42142 1.6175,-2.09999c0.51479,-0.79233 1.08868,-1.15099 1.74651,-1.73601c0.69283,-0.61615 0.36642,-1.79616 0.89466,-2.48c0.48471,-0.62749 0.63123,-1.44373 1.14133,-2.05867c0.49709,-0.59926 1.3119,-0.58437 2.13867,-1.06133c0.6892,-0.3976 0.28936,-1.68733 0.87199,-2.35333c0.61049,-0.69785 1.83791,-1.06392 2.4425,-0.38918c0.59184,0.66051 0.44328,1.9164 -0.04517,2.61183c-0.50232,0.71519 -0.83334,1.26668 -0.83334,2.16667c0,0.8 0,1.7 0,2.60001c0,0.89999 0,1.79999 0,2.7c0,0.89999 -0.0478,1.80127 0,2.7c0.04272,0.80341 0.48255,1.6539 0.97467,2.38933c0.44799,0.66948 1.07543,1.26216 1.72983,1.66335c0.77168,0.47307 1.20551,1.27071 1.72083,1.922c0.52745,0.66663 0.66415,1.4427 1.14934,2.05066c0.49837,0.6245 0.23466,1.6035 0.467,2.4955c0.22567,0.86642 1.01115,1.43921 1.39034,1.99518c0.61845,0.90677 0.45533,2.00247 1.08883,2.48399c0.68091,0.51755 1.84492,0.54257 2.35767,1.2215c0.53441,0.7076 0.66689,1.44957 1.06435,2.13567c0.42285,0.7299 0.68951,1.38834 1.03633,2.16367c0.35466,0.79285 -0.70476,1.35309 -0.96851,2.08984c-0.29976,0.83736 -0.10014,1.8067 -0.58533,2.41466c-0.49838,0.6245 -0.42534,1.57468 -0.42534,2.47467l-0.01067,0.88933" id="svg_6" stroke-width="2" stroke="#000" fill="none"/>
  <path t="37621,37725,37733,37748,37764,37781,37781,37798,37798,37798,37814,37831,37831,37852,37852,37865,37881,37881,37898,37915,37931,37948,37965,37965,37989,37989,38005,38118,38118,38140,38172,38188,38220,38236,38260,38268,38324,38364,38372,38372,38492,38508,38525,38541,38541,38549,38549,38565,38582,38599,38599,38599,38620,38620,38620,38632,38649,38665,38665,38682,38682,38699,38715,38732,38732,38749,38765,38782,38836" d="m136,197c0,-1.7 -0.00165,-2.61945 0.42534,-3.39999c0.45062,-0.82373 0.57466,-1.76668 0.57466,-2.436c0,-1.164 -0.093,-1.97165 0.08533,-2.67867c0.22473,-0.89098 1.05228,-1.55275 1.51468,-2.12134c0.65494,-0.80533 1.00301,-1.52496 1.31599,-2.47867c0.28693,-0.87425 0.8772,-1.37825 1.56317,-1.88533c0.65881,-0.487 0.97522,-1.38284 1.43816,-2.2c0.44446,-0.78455 1.12592,-1.26527 1.916,-1.8c0.666,-0.45074 1.45227,-0.73154 2.26651,-1.2215c0.72412,-0.43573 0.89482,-1.37846 0.90016,-2.2785c0.00533,-0.89998 -0.05188,-1.83386 0.42534,-2.47467c0.50772,-0.68178 0.43169,-1.53848 0.58533,-2.42532c0.14418,-0.83218 1.11046,-1.21359 1.70399,-1.68401c0.73839,-0.58521 1.18587,-0.55484 1.28667,0.28534c0.11667,0.97241 0.51683,1.59123 0.832,2.63199c0.22372,0.7388 0.09407,1.67038 0.17734,2.58801c0.08362,0.92145 0.35631,1.58453 0.564,2.364c0.27791,1.04305 0.40614,1.96741 0.42401,2.728c0.02267,0.96558 -0.1107,1.93988 0.28667,2.688c0.40192,0.75667 1.06595,1.42613 1.3575,2.146c0.40024,0.98822 0.19345,1.90996 0.57849,2.75267c0.3058,0.6693 0.76801,1.5 0.7995,2.37917l0.62651,0.5735l0.43666,0.66333" id="svg_7" stroke-width="2" stroke="#000" fill="none"/>
  <path t="42157,42244,42260,42269,42269,42286,42302,42320,42320,42348,42348,42356,42356,42380,42412,42428,42436,42452,42500,42516,42532,42548,42557,42572,42588,42603,42619,42652,42692,42756,42764,42780,42788,42820,42828,42844,42844,42853,42869,42886,42903,42903,42919,42936,42936,42953,42970,42970,43036,43068,43092,43316,43348,43348,43356,43372,43388,43388,43404,43420,43437,43453,43470,43487,43503,43503,43520,43537,43553,43570,43570,43587,43603,43644,43644,43660,43692,43724,43796,43796,43804,43836" d="m76,321c1.7,-0.05716 2.47791,-0.6088 3.32117,-0.87866c0.79103,-0.25314 1.40916,-0.69638 2.0405,-1.41684c0.63806,-0.72812 1.50598,-0.5242 2.47167,-0.87115c0.69319,-0.24905 1.29079,-1.13638 1.96667,-1.548c0.84248,-0.51309 1.48523,-0.96375 2.116,-1.56934c0.57288,-0.54999 1.07137,-1.23669 1.084,-2.116c0.01286,-0.89542 0.38757,-1.61496 1.02533,-2.17468c0.58959,-0.51746 0.5461,-1.38 1.06001,-2.13998c0.45129,-0.66739 1.38682,-0.95187 1.88934,-1.67468c0.46766,-0.67267 1.41836,-0.9007 1.904,-1.71048c0.43758,-0.72964 1.46871,-0.51074 1.99983,-1.12167c0.58187,-0.66931 0.09613,-1.7789 0.1215,-2.57849c0.02859,-0.9014 0.39874,-1.76678 0.95184,-2.49551c0.52866,-0.69653 1.53806,-0.57925 2.06283,-1.35117c0.49403,-0.72668 0.44983,-1.65881 1.28534,-2.2435c0.70943,-0.49646 1.47211,-0.7496 2.08933,-1.50983c0.60302,-0.74271 0.8707,-2.32547 1.57466,-2.01468c0.38078,0.16809 0.43874,1.35107 -0.04933,2.12933c-0.46433,0.74042 -0.95348,1.41888 -1.61916,1.92816c-0.67751,0.51831 -1.3456,1.00867 -2,1.40985c-0.77168,0.47308 -1.15998,1.25586 -1.29684,2.14734c-0.14059,0.91577 -0.7976,1.45624 -0.988,2.39999c-0.17809,0.88275 -0.36378,1.70374 -1.01067,2.39999c-0.5605,0.60327 -0.88386,1.44131 -1.284,2.20001c-0.45272,0.85837 -0.71533,1.59998 -0.716,2.5c-0.00066,0.89999 0,1.71066 0,2.62131l0,0.85333l-0.00134,0.93869l-0.35133,0.83398" id="svg_8" stroke-width="2" stroke="#000" fill="none"/>
  <path t="46862,47013,47157,47205,47205,47261,47309,47324,47341,47357,47374,47421,47493,47509,47517,47533,47541,47565,47605,47733,47789,47861,47893,47941,47941,47965" d="m104,240c-1.6,0.61067 -2.46577,1.1974 -2.83334,2c-0.34015,0.74272 0.14783,1.38716 0.66667,2.16667c0.47087,0.70746 0.3428,1.62033 1.26649,1.8335c0.78889,0.18205 1.27007,1.15468 2.09884,0.9985c0.8127,-0.15315 1.1834,-1.01997 1.82666,-1.57333c0.65057,-0.55965 0.974,-1.22667 0.97467,-2.12534c0.00067,-0.90001 0.11782,-2.37202 -0.64733,-2.23834c-0.91627,0.1601 -1.35267,0.93834 -2.15267,0.93834l-0.89999,0.05716" id="svg_9" stroke-width="2" stroke="#000" fill="none"/>
  <path t="50110,50396,50429,50437,50459,50476,50476,50493,50509,50509,50509,50509,50526,50526,50543,50543,50559,50559,50559,50576,50576,50576,50576,50593,50593,50593,50609,50609,50609,50609,50626,50626,50626,50626,50643,50643,50659,50659,50676,50676,50693,50693,50709,50726,50743,50743,50759,50776,50793,50810,50810,50826,50826,50843,50843,50860,50860,50860,50876,50893,50893,50910,50910,50926,50926,50943,50964,50964,51044" d="m465,225c0.16666,1.83333 0.76697,2.30801 1.35266,2.94733c0.53433,0.58327 0.98669,1.36908 1.44867,1.85268c0.71375,0.74716 1.52863,1.37137 2.20401,1.85266c0.49222,0.35078 1.2644,0.81621 2.02399,1.46333c0.69897,0.59549 1.15329,1.38089 1.60666,2.09467c0.50998,0.80287 0.98679,1.42781 1.61069,1.95334c0.87015,0.73294 1.73288,1.03568 2.45599,1.53333c0.46866,0.32251 1.04855,1.35411 1.23199,1.97867c0.28345,0.96515 0.6658,1.91295 1.4895,2.457c0.59784,0.39487 1.35022,0.57779 2.40918,1.03368c0.68811,0.29623 1.32742,0.63066 2.14783,1.18066c0.89682,0.60124 1.46722,1.17587 2.34015,1.75267c0.65726,0.4343 1.54099,0.86467 2.15784,1.39999c0.75888,0.65858 1.15656,1.27205 1.92084,1.88933c0.74457,0.60135 1.64545,0.41687 2.39999,0.696c0.8696,0.32169 0.97653,1.42847 1.55719,2.21017c0.49979,0.67282 1.41788,0.70868 2.29999,1.06166c0.76514,0.30618 1.54285,0.74284 2.34283,1.14284c1,0.5 1.66345,0.69461 2.28568,1.20001c0.83246,0.67621 1.30569,1.47165 1.89966,1.93597c0.82578,0.64551 1.14301,1.48956 1.81467,2.03067c0.60077,0.48401 1.63599,0.33334 2.48401,0.33469l0.86331,0.05582l0.89551,0.30002" id="svg_10" stroke-width="2" stroke="#000" fill="none"/>
  <path t="51901,51964,51980,51988,52004,52012,52027,52027,52044,52076,52076,52092,52204,52212,52221,52244,52244,52260,52260,52268,52268,52332,52341,52364,52388,52388,52396,52404,52412,52412,52428,52652,52684,52684,52692,52692,52701,52724,52725,52764,52860,52940,52956,52956,52972,52980,52995,53012,53028,53028,53028,53045,53045,53062,53062,53078,53095,53140,53148,53148,53162,53179,53179,53195,53195,53212,53212,53229,53229,53229,53229,53308,53308,53308,53436,53452,53468,53468,53476,53492,53596,53604,53612,53612,53630,53646,53662,53663,53679,53812,53813,53828,53836,53876,53996,54004,54020,54020,54029,54029,54047,54063,54079,54079,54096,54124,54140,54404,54412,54421,54430,54447,54447,54463,54463,54480,54480,54481,54496,54496,54513,54533,54533,54547,54563,54580,54604,54604,54605,54636,54636,54804" d="m502,257c0,1.79999 -0.00195,2.61963 0.42532,3.39999c0.45038,0.8226 0.57468,1.70001 0.57468,2.60001c0,0.79999 -0.04361,1.75845 0.00449,2.64816c0.04245,0.78552 0.32974,1.91165 1.21686,2.23016c0.71432,0.25647 0.77866,-1.07965 0.77866,-2.04498c0,-0.83334 -0.11923,-1.68195 0.05716,-2.586c0.18085,-0.92694 0.40479,-2.1171 1.33218,-2.16467c0.7338,-0.03766 0.61066,1.328 0.61066,2.23865c0,0.85333 0,1.79333 0,2.77869c0,0.89999 0,1.69998 0,2.60001c0,0.88565 0,0.13333 0,-0.70001c0,-0.97849 -0.11523,-1.70703 0.03601,-2.63599c0.14197,-0.87207 0.44336,-1.57703 0.91132,-2.60236c0.33908,-0.74295 1.03464,-1.17749 1.05267,-0.76166c0.03464,0.79922 0,1.70001 0,2.60001c0,0.89999 -0.035,1.83032 0.16666,2.73334c0.15198,0.68051 0.47635,1.39948 0.71185,2.52383c0.15692,0.74927 0.03238,1.80905 0.17865,2.49014c0.22705,1.05719 0.42676,2.10724 1.16434,2.53101c0.7666,0.44046 1.65417,-0.27328 2.34253,-0.93967c0.65643,-0.63547 0.53333,-1.58163 1.00397,-2.33734c0.50806,-0.81583 1.28979,-1.55792 1.41064,-2.33466c0.14349,-0.92245 0.02753,-1.60278 0.01068,-2.36798c-0.01752,-0.79758 -0.03094,-2.27652 -0.3465,-2.96552c-0.32526,-0.71014 -1.42816,-0.86084 -1.60681,-0.07184c-0.21478,0.94867 -0.03601,1.83417 -0.03601,2.73868c0,0.89999 0.04004,1.83408 -0.02081,1.35834c-0.12158,-0.95035 -0.74268,-1.60101 -1.36853,-2.35834c-0.54407,-0.65836 -0.73718,-1.6319 -1.22131,-2.20001c-0.63519,-0.74533 -1.30432,-1.38739 -1.388,-2.19998c-0.09222,-0.89529 0.00162,-2.01559 -0.80267,-2.19867c-0.80734,-0.18378 0.05072,0.14453 0.90149,-0.22269c0.71893,-0.3103 1.55154,-0.73944 2.41583,-0.77731c0.96252,-0.04218 1.7204,-0.46329 2.48401,-0.83469c0.75391,-0.36667 1.47217,-0.83316 1.97467,-1.55598c0.46765,-0.67268 2.05701,-1.25755 1.50452,-1.569c-0.66248,-0.37344 -0.89417,1.37885 -1.57935,2.05833c-0.52039,0.51605 -1.37219,1.12854 -2.14648,1.5c-0.90454,0.43393 -1.70837,0.68259 -2.492,1c-0.93661,0.37939 -1.50269,0.96558 -2.36136,1.2785c-0.85327,0.31097 -1.70016,0.10349 -2.60001,0.12149c-0.90054,0.01801 -1.67624,0.5466 -2.63333,0.83334c-0.65222,0.1954 -1.41599,0.15598 -2.52365,0.16666l-0.83401,0l-0.95181,-0.05716" id="svg_11" stroke-width="2" stroke="#000" fill="none"/>
  <path t="55213,55276,55292,55300,55316,55332,55349,55349,55365,55365,55396,55396,55412" d="m502,257c1.60001,-0.61066 2.23297,-1.39638 3,-1.83333c0.77988,-0.44426 1.2738,-0.93353 2.10016,-1.38817c0.71445,-0.39307 1.38385,-0.9785 2.07449,-1.37851l0.80383,-0.49983l0.71701,-0.543l0.8045,-0.35716" id="svg_12" stroke-width="2" stroke="#000" fill="none"/>
  <path t="56021,56100,56108,56116,56116,56133,56133,56133,56133,56148,56148,56148,56148,56148,56165,56165,56165" d="m508,257c1.60001,-0.57468 2.41016,-0.98199 3.32166,-1c0.71991,-0.01422 1.84515,0.0087 2.64453,-0.0045c0.59644,-0.00984 1.6084,-0.06012 2.77649,-0.21683c0.86487,-0.11603 1.30756,-0.20665 2.20667,-0.35333c0.8822,-0.14394 2.10748,-0.30383 2.83185,-0.36818l0.96149,-0.04649" id="svg_13" stroke-width="2" stroke="#000" fill="none"/>
  <path t="56581,56644,56644,56652,56668,56668,56682,56682,56699,56717,56733,56733,56756,56765" d="m513,264c1.82532,0.42532 2.49164,0.83508 3.5,0.97916c0.97571,0.1394 1.73279,-0.03632 2.69965,0.24234c0.78369,0.22586 1.26617,1.15613 2.02185,1.65701c0.7392,0.48996 1.57849,0.20682 2.34253,0.73215l0.43597,0.8685" id="svg_14" stroke-width="2" stroke="#000" fill="none"/>
  <path t="57260,57348,57356,57366,57383,57399,57399,57416,57418,57433,57433,57433,57450" d="m499,255c0,1.79999 0,2.70001 0,3.60001c0,0.81067 0,1.7215 0,2.61066c0,0.98935 0,1.78934 0,2.78934l0,0.78934l0,0.72534l0,1.07465" id="svg_15" stroke-width="2" stroke="#000" fill="none"/>
  <path t="57852,57900,57916,57932,57948,57948,57956,57956,57967,57967,57983,58000,58000,58017" d="m506,260c0,1.79999 0.03033,2.60275 0.42532,3.41068c0.44678,0.91382 0.56424,1.58917 0.57468,2.56799c0.00964,0.90527 0,1.84668 0,2.53732c0,0.98401 0,1.96802 0,2.65866l0,1.06818" id="svg_16" stroke-width="2" stroke="#000" fill="none"/>
  <path t="58444,58476,58484,58484,58493,58500,58500,58517,58517,58534,58534,58534,58550,58550,58567,58584,58584,58601,58617,58668,58676,58684" d="m514,263c0.83331,2.16666 0.82855,3.03754 1.08533,3.79999c0.2688,0.79813 1.05664,1.49945 1.39386,2.20001c0.45862,0.95264 0.53241,1.68457 0.9635,2.54266c0.36682,0.73016 0.94879,1.40671 1.31433,2.31433c0.32361,0.8035 0.23114,1.79446 0.52698,2.62701c0.25092,0.70605 0.63068,1.63065 0.716,2.616l0,0.89999l-0.16669,0.83334l-0.74799,-0.11868" id="svg_17" stroke-width="2" stroke="#000" fill="none"/>
  <path t="59180,59236,59244,59252,59268,59268,59285,59285,59285,59285,59301,59301,59301,59301,59319,59319" d="m504,252c1.70001,0 2.70001,0 3.52084,0c0.96716,0 1.76181,0.00221 2.8125,0c0.63599,-0.00134 1.69205,-0.00496 2.41849,-0.11433c1.09113,-0.16428 1.76019,-0.455 2.39081,-0.74699l0.8385,-0.49051l0.87585,-0.6265l0.72168,-0.575" id="svg_18" stroke-width="2" stroke="#000" fill="none"/>
  <path t="59854,59908,59916,59925,59935,59952,59969,59985,59985,60002,60002,60019,60035,60035,60035,60052,60052,60180,60180,60180,60188" d="m512,270c1.79999,0 2.70001,0 3.59998,0c0.90002,0 1.80005,0 2.60138,0c0.96533,0 1.79865,0 2.77716,0c0.82013,0 1.69348,0 2.56415,0c0.70801,0 1.69049,-0.04337 2.65649,0.00449c0.85693,0.04245 1.85016,0.27951 2.45551,0.42084l0.87299,0.22202l0.74988,0.34818" id="svg_19" stroke-width="2" stroke="#000" fill="none"/>
  <path t="60557,60643,60660,60668,60676,60692,60692,60708,60708,60719,60736,60753,60860,60860" d="m508,264c0,1.79999 0.00195,2.61963 -0.42532,3.39999c-0.45038,0.8226 -0.48184,1.71591 -0.66,2.48535c-0.22549,0.97385 -0.41965,1.72235 -0.91467,2.573c-0.41898,0.71994 -0.96399,1.40298 -1,2.375l0,0.79465" id="svg_20" stroke-width="2" stroke="#000" fill="none"/>
  <path t="61196,61252,61268,61277,61286,61303,61303,61321,61337,61337,61353,61353,61370,61387,61387,61403,61403,61403,61420,61508,61508,61524,61621" d="m503,252c-0.57468,1.60001 -0.72058,2.44522 -1.00449,3.2955c-0.2782,0.83322 -0.85254,1.43494 -1.07953,2.22183c-0.25415,0.88101 -0.94894,1.67392 -1.55197,2.04666c-0.78101,0.48276 -1.84259,0.23898 -2.60236,0.79767c-0.80646,0.59302 -0.53067,1.56686 -1.095,2.47168c-0.39615,0.63516 -1.31201,0.82089 -2.01999,1.57733c-0.61191,0.65381 -0.62582,1.58932 -0.64682,2.56766l-0.1665,0.85501" id="svg_21" stroke-width="2" stroke="#000" fill="none"/>
  <path t="61893,61917,61925,61937,61955,61970,61970,61970,61987,61987,61987,61987,62004,62004,62004,62022,62022,62037,62038,62054,62054,62071,62071,62071,62087,62087,62087,62087" d="m498,256c1.70001,0 2.70001,0 3.60001,0c0.82132,0 1.73334,0 2.672,0c0.54932,0 1.72809,-0.01003 2.62799,0.00449c0.60016,0.00967 1.50818,0.03665 2.69733,0.27951c0.58618,0.11972 1.36856,0.46063 2.59286,0.65884c0.68579,0.11102 1.64581,0.05716 2.41113,0.05716c1.00317,0 1.85583,0 2.82019,0c0.81451,0 1.68298,0 2.57849,0l0.90002,0l0.89996,0l0.60004,0" id="svg_22" stroke-width="2" stroke="#000" fill="none"/>
  <path t="63213,63292,63301,63301,63309,63323,63339,63339,63339,63356,63356,63356,63372,63372,63372,63501,63501" d="m514,262c1.82532,0 2.83331,0 3.6955,0c0.90448,0 1.72583,0 2.63782,0c0.92804,0 1.71851,0.00769 2.74536,-0.00015c0.69604,-0.00531 1.61206,-0.05396 2.60535,-0.28384c0.82233,-0.19034 1.63196,-0.43201 2.62665,-0.63068l0.77069,-0.07465" id="svg_23" stroke-width="2" stroke="#000" fill="none"/>
  <path t="64846,64973,64981,65008,65040,65059,65059,65059,65090,65108,65108,65124,65124,65141,65188,65196,65207,65224,65240,65257,65257,65274,65274,65290,65340,65341,65356,65372,65380,65396,65407,65428,65441,65457,65474,65474,65491,65507,65524,65541,65557,65557,65574,65591,65591,65607,65624,65624,65641,65657,65657,65674,65691,65708,65727,65741,65758,65774,65791,65791,65828,65852,65876,65892,65892,65901,65916,66005,66029,66029,66045,66068,66068" d="m465,215c0.87866,1.22133 1.60669,1.73969 1.96399,2.436c0.39703,0.77374 0.3566,1.74089 0.88669,2.38933c0.43372,0.53056 0.98532,1.44006 1.31598,2.34134c0.30527,0.83212 0.78452,1.66084 1.63333,1.83066c0.88254,0.17656 1.88379,-0.35162 2.67917,0.0235c0.70535,0.33267 0.35352,1.58852 0.87802,2.27467c0.57361,0.75038 1.54803,0.73805 2.2955,1.06166c0.89096,0.38574 1.73694,0.83839 2.18066,1.64284c0.40491,0.73409 0.83755,1.46591 1.556,1.97467c0.65604,0.46454 0.6579,1.38403 1.18533,2.05066c0.51532,0.65131 0.8797,1.35751 1.34265,2.17467c0.44449,0.78455 1.20352,1.17307 1.83984,1.89984c0.59726,0.68214 1.09128,1.19421 1.24417,2.10016c0.15417,0.91362 0.70203,1.50113 1.29865,2.10001c0.6987,0.70132 1.2269,1.32068 1.68533,2.09999c0.42395,0.72072 1.31104,1.06602 1.84534,1.8c0.57748,0.79327 0.93359,1.44617 1.55869,2.2c0.5451,0.65733 0.91119,1.42175 1.71048,1.60017c0.84335,0.18826 1.34842,0.85387 2.20016,1.00433c0.92719,0.1638 1.34824,0.82471 1.75269,1.6955c0.38608,0.83128 0.71106,1.56706 1.16882,2.40001c0.37097,0.67502 1.14426,1.34238 1.87833,1.77866c0.78387,0.46588 1.12167,1.22134 1.60468,1.82135l0.6955,0.69998l0.70001,0.70001l0.5,0.5" id="svg_24" stroke-width="2" stroke="#000" fill="none"/>
  <path t="68494,68597,68597,68613,68613,68621,68629,68645,68669,68685,68700,68701,68717,68733,68748,68749,68765,68777,68794,68811,68811,68827,68844,68861,68877,68894,68911,68911,68927,68944,68961,68977,68994,68994,69011,69027,69027,69044,69044,69069,69077,69094,69111,69111,69127,69148,69164,69180,69197,69197,69211,69211,69228,69244,69261,69278,69278,69294,69294,69312,69312,69329,69344,69361,69378,69378,69394,69394,69411,69411,69428,69428,69444,69444,69461,69478,69478,69495,69495,69511,69528,69529,69545,69545,69561,69578,69579,69596,69596,69611,69628,69645,69662,69662,69678,69679,69695,69695,69711,69711,69730,69748,69749,69772,69788,69789,69820,69821,69829,69846,69846,69863,69863,69878,69896,69897,69897,69925,69932,69956,69957,69972,69980,69980,69996,70021,70029,70045,70062,70062,70079,70079,70079,70095,70112,70112,70129,70129,70147,70147,70162,70162,70179,70195,70196,70212,70229,70229,70246,70246,70262,70284,70285,70316,70329,70329,70345,70346,70362,70362,70379,70379,70395,70485,70493,70493,70513,70629" d="m387,216c-1,0 -1.75717,0 -2.65268,0c-0.86331,0 -1.82648,0 -2.74731,0c-0.89999,0 -1.80002,0 -2.70001,0c-0.89999,0 -1.69998,0 -2.60001,0c-0.93597,0 -1.784,0 -2.64731,0c-1.01669,0 -1.85269,0 -2.75269,0c-0.89999,0 -1.69998,0 -2.60001,0c-0.89999,0 -1.83472,-0.0529 -2.59998,0.35266c-0.84592,0.4483 -1.73645,0.47919 -2.5,0.73267c-0.77219,0.25635 -1.71375,0.77615 -2.20001,1.4355c-0.50876,0.68982 -0.92963,1.56496 -1.60001,2.04317c-0.73608,0.52507 -1.56885,0.83992 -1.96399,1.62134c-0.38507,0.76147 -0.55481,1.59303 -1.01068,2.41467c-0.43393,0.7821 -0.8783,1.50719 -1.25867,2.39999c-0.32019,0.75154 -0.16666,1.7 -0.16666,2.60001c0,0.89999 0.06244,1.83072 -0.22134,2.72133c-0.22275,0.69902 -0.56262,1.68703 -0.83133,2.37416c-0.33524,0.85728 -0.91873,1.60315 -0.94733,2.50584c-0.03055,0.96484 0,1.62399 0,2.63199c0,0.91934 0,1.81934 0,2.51401c0,1.01666 -0.00006,1.95267 0,2.85266c0.00009,0.90018 0.00412,1.72072 0.44666,2.62534c0.26791,0.54767 0.99719,1.35851 1.728,1.728c0.9007,0.45538 1.73593,0.57976 2.47803,1.15201c0.54266,0.41846 1.50156,1.03539 2.34732,1.46133c0.67484,0.33987 1.48129,0.78621 2.34732,0.82883c0.89896,0.04424 1.81934,0.0045 2.65268,0.0045c0.97849,0 1.79868,0 2.63599,0c1.02118,0 1.76883,-0.02287 2.76135,0.00133c0.73126,0.01782 1.45895,0.72499 2.21332,0.98801c0.8595,0.29967 1.87466,0.01067 2.60001,0.01067c0.98917,0 1.76849,0 2.76801,0c0.77399,0 1.67401,0 2.53732,0c0.98401,0 1.96802,0 2.65866,0c1.07269,0 1.99429,0.04518 2.6507,-0.01067c1.01633,-0.08646 1.73651,-0.62993 2.37466,-1.188c0.76868,-0.67224 1.59732,-0.8282 2.09549,-1.51117c0.53616,-0.73503 0.56815,-1.80087 1.36865,-2.39c0.55292,-0.40692 1.31564,-0.63161 2.36517,-0.81483c0.9599,-0.16759 1.90854,-0.29897 1.96933,-0.972c0.08444,-0.93486 0.00134,-1.94666 0.00134,-2.80882c0,-0.90451 0,-1.8045 0,-2.7045c0,-0.90451 0,-1.76668 0,-2.62083c0,-0.97917 0,-1.76851 0,-2.49384c0,-0.98534 0,-1.97067 0,-2.696c0,-0.98917 0,-1.76851 0,-2.76801c0,-0.90533 0,-1.84666 0,-2.53734c0,-0.98399 0,-1.96799 0,-2.83133c0,-0.89999 0,-1.81934 0,-2.65266c0,-0.9785 0,-1.79866 0,-2.636c0,-1.01666 0.15503,-1.72487 -0.01068,-2.728c-0.14365,-0.86945 -0.79175,-1.52061 -1.29382,-2.28867c-0.45367,-0.69402 -0.99805,-1.35233 -1.6955,-1.82651c-0.81268,-0.55252 -1.59952,-1.09818 -1.97467,-1.92082c-0.35559,-0.77972 -1.02533,-1.43333 -1.72534,-1.5955l-0.89999,-0.0045l-0.89999,0" id="svg_25" stroke-width="2" stroke="#000" fill="none"/>
 </g>
 <g display="none">
  <title>muse_image</title>
  <image xlink:href="http://farm1.static.flickr.com/51/185635797_e42362fe89.jpg" id="muse" height="480" width="640" y="0" x="0"/>
 </g>
 <g display="none">
  <title>bbox</title>
  <rect stroke="#f00" fill="none" stroke-width="3" height="153.6" width="250.88" y="92.16" x="236.8" id="bbox"/>
 </g>
</svg>
