<svg width="640" height="480" xmlns="http://www.w3.org/2000/svg" xmlns:svg="http://www.w3.org/2000/svg" xmlns:xlink="http://www.w3.org/1999/xlink">
 <!-- Sketchy ANNOTATION
  ImageNet ID: n02395406_24579
  URL: http://farm1.static.flickr.com/1/124356683_1630a5efd2.jpg
  Image Width: 500
  Image Height: 357
  BBox X: 73
  BBox Y: 2
  BBox Width: 315
  BBox Height: 322
  Exposure: 2000ms
  Synset Label: pig
  Synset ID: n02395406
  Worker Tag: young pig
  Sanity Check: 
   Context
   Saved
   Shading
  Comment: 
   {}
  Worker ID: AXD2DZ7U6CK35
  Assignment ID: 323Q6SJS8IG7KPFATMT5YXY7W8GFHQ
  HIT ID: 3J6BHNX0U9S8NNV57TADUASNP1PNKN
  Work Time: 69s
  Worker Score: 0.9286
 END ANNOTATION -->
 <g display="inline">
  <title>Layer 1</title>
  <path t="0,16,16,16,16,16,16,16,16,16,23,23,23,31,31,42,59,59,59,78,78,78,78,95,95,95,95,95,95,109,110,110,110,110,127,127,127,127,127,127,144,144,144,144,144,160,160,160,160,160,160,160,177,177,177,177,177,194,194,194,194,194,210,210,210,210,210,227,227,227,227,227,244,244,244,244,244,244,260,260,260,260,260,260,260,260,277,277,278,278,278,278,278,294,295,295,295,295,295,310,310,310,310,310,310,327,327,327,327,327,327,327,327,328,344,344,344,344,344,344,345,360,360,360,360,361,361,361,377,377,377,378,378,378,378,378,378,394,394,394,394,394,395,395,395,410,410,410,410,410,410,410,411,427,427,427,427,448,448,448,467" d="m133,60c9.16667,15.16666 9.88425,16.26772 10.56799,17.25333c0.62132,0.89563 1.20245,1.69195 1.74451,2.3925c0.48407,0.62561 0.92715,1.16978 1.33949,1.62749c0.66673,0.74009 0.90369,1.08105 1.76468,1.62251c0.74055,0.46571 1.34056,0.95251 2.10416,1.60416c0.76125,0.64965 1.33092,0.90179 2.16583,1.38533c0.73991,0.42852 1.57857,0.96589 2.23201,1.36134c0.73557,0.44515 1.57884,0.92461 2.53333,1.43733c0.5047,0.27111 1.02448,0.54043 2.07201,1.09067c0.51823,0.27222 1.97829,1.05464 2.41167,1.304c0.80164,0.46126 1.52852,0.91259 2.20799,1.374c1.03207,0.70084 1.74115,1.23204 2.11351,1.5c0.7626,0.54879 1.54353,1.10037 1.94417,1.36333c1.18796,0.77974 2.00578,1.23478 2.42,1.45866c0.84688,0.45774 1.74905,0.90987 2.71199,1.392c0.5092,0.25495 1.57201,0.786 2.11734,1.05867c0.54933,0.27467 1.644,0.822 2.18134,1.09067c1.52499,0.7625 1.99733,0.99866 2.896,1.448c0.43033,0.21516 1.263,0.6315 2.472,1.236c0.8,0.4 1.2,0.6 2,1c0.8,0.4 2,1 2.8,1.4c0.39999,0.2 1.2,0.6 2,1c1.2,0.6 2,1 2.39999,1.2c0.8,0.4 1.60005,0.7999 2.8,1.4c0.40051,0.2003 1.21478,0.60651 2.0625,1.04166c0.44617,0.22903 1.39554,0.72523 2.4375,1.29167c0.56528,0.3073 1.76218,0.97257 2.38667,1.31733c0.63383,0.34991 1.27222,0.70074 1.91249,1.044c0.63307,0.33939 1.86325,0.98086 3.03017,1.536c0.55435,0.26373 1.0992,0.50682 2.14934,0.984c0.51259,0.23292 1.02971,0.44593 2.52116,1.20683c0.50267,0.25645 1.49207,0.81013 1.97934,1.09933c0.96884,0.57503 1.44157,0.87129 2.35416,1.47916c0.89136,0.59373 1.32516,0.90598 2.20834,1.54166c0.45679,0.32878 1.41206,1.03028 2.45833,1.79167c0.56366,0.41019 1.15337,0.83595 1.7625,1.2765c0.62421,0.45145 1.2588,0.91035 1.89751,1.3755c0.63963,0.46584 1.27675,0.92741 2.50667,1.848c0.59181,0.44297 1.71614,1.30743 2.25066,1.73066c0.52179,0.41315 1.02937,0.82051 1.51651,1.23151c1.41129,1.19066 1.84865,1.60107 2.28349,2.0085c0.8754,0.82018 1.30591,1.25612 1.744,1.70399c0.451,0.46107 1.87375,1.99043 2.38133,2.55617c0.52715,0.58754 1.064,1.19717 1.608,1.82251c0.55067,0.633 1.09976,1.2724 1.644,1.91249c0.53842,0.63326 1.5732,1.86653 2.06233,2.45801c0.47348,0.57256 0.93039,1.13161 1.371,1.68149c0.43202,0.53915 0.85506,1.07263 1.263,1.60951c1.22224,1.60852 1.61049,2.17154 2.00633,2.73315c0.39548,0.56108 0.78288,1.12163 1.161,1.677c0.73032,1.07266 1.07149,1.58669 1.70834,2.54167c0.56175,0.84238 1.05681,1.57735 1.476,2.23199c0.701,1.09477 0.972,1.58134 1.44667,2.42134l0.51033,0.82483" id="svg_1" stroke-width="2" stroke="#000" fill="none"/>
  <path t="1386,1412,1420,1437,1445,1463,1476,1493,1493,1509,1509,1526,1526,1599,1611,1611,1627,1643,1659,1659,1675,1676,1693,1693,1708,1708,1725,1743,1758,1758,1816,1832,1847,1860,1877,1877,1894,1894,1910,1910,1927,1927,1927,1943,1943,1943,1943,1959,1959,1959,1959,1976,1976,1976,1976,1993,1993,1993,1993,2009,2009,2009,2009,2026,2026,2026,2026,2043,2043,2043,2043,2059,2059,2059,2059,2059,2076,2076,2076,2076,2076,2093,2093,2093,2093,2093,2109,2109,2109,2109,2109,2126,2126,2126,2126,2126,2126,2127,2143,2143,2143,2143,2143,2159,2159,2159,2159,2176,2176,2176,2177,2177,2177,2193,2193,2193,2193,2193,2209,2209,2209,2209,2209,2226,2226,2226,2227,2227,2227,2227,2243,2243,2243,2243,2244,2244,2259,2259,2259,2260,2260,2260,2260,2260,2276,2277,2277,2277,2277,2277,2293,2293,2293,2293,2294,2309,2309,2309,2309,2309,2310,2326,2327,2327,2327,2327,2327,2343,2343,2343,2344,2344,2344,2344,2359,2359,2359,2360,2360,2360,2360,2360,2376,2376,2377,2377,2377,2377,2377,2393,2393,2393,2394,2394,2394,2394,2409,2409,2409,2409,2410,2410,2426,2426,2427,2427,2427,2427,2427,2427,2443,2443,2443,2444,2444,2444,2460,2460,2460,2460,2460,2460,2478,2478,2478,2478,2478,2479,2493,2493,2493,2494,2509,2509,2510,2510,2526,2527,2527,2527,2543,2543,2544,2544,2544,2563,2563,2563,2563,2564,2564,2580,2580,2580,2581,2581,2597,2597,2598,2598,2613,2613,2613,2613,2628,2628,2628,2628,2645,2645,2645,2661,2661,2661,2678,2678,2679,2695,2695,2768" d="m133,61c-0.83333,-2.16667 -1.50719,-2.609 -1.94284,-3.35717c-0.42447,-0.72895 -0.54131,-1.46951 -1.05716,-2.16367c-0.51482,-0.69275 -0.87903,-1.37224 -1.48399,-1.96183c-0.68217,-0.66484 -1.61958,-1.0762 -2.22934,-1.6c-0.71625,-0.61528 -1.39104,-1.00602 -2.28667,-0.91733c-0.8457,0.08374 -1.28394,0.7489 -2.1,1.2215c-0.66654,0.38601 -1.29012,1.22534 -1.87067,1.5785c-0.7616,0.46329 -1.51126,0.74535 -2.696,1.03333c-0.78222,0.19014 -1.74149,0.05018 -2.63334,0.17117c-0.82133,0.11143 -1.68098,0.42715 -2.34283,1.04816c-0.6045,0.56719 -0.45583,1.65581 -0.33633,2.46817c0.1453,0.98784 0.6169,1.6333 0.89516,2.59517c0.21848,0.75519 0.4837,1.52988 0.73133,2.34566c0.28678,0.94475 0.30534,1.77659 0.40533,2.64283c0.13847,1.19956 0.29525,1.80257 0.558,2.7315c0.1842,0.6512 0.49133,1.68479 0.68934,2.41667c0.20203,0.74678 0.39016,1.49742 0.7,2.58067c0.29079,1.01668 0.50425,1.66537 0.7,2.31933c0.4089,1.36604 0.60001,2.10001 0.8,2.84734c0.2,0.74733 0.49627,1.83444 0.7,2.516c0.29462,0.98563 0.50887,1.63409 0.8,2.65067c0.20493,0.71558 0.41664,1.45285 0.64283,2.58067c0.21681,1.08106 0.27705,1.76968 0.33184,2.438c0.08395,1.02402 0.181,2.14964 0.31066,2.984c0.13892,0.89391 0.22809,1.353 0.41917,2.2825c0.28448,1.38381 0.39812,1.82604 0.591,2.69099c0.18636,0.83574 0.37985,1.64797 0.53783,2.85717c0.10419,0.79749 0.13734,1.60026 0.19199,2.4c0.05468,0.80028 0.19127,2.00127 0.32734,2.8135c0.14237,0.84985 0.24445,1.29143 0.36333,2.2425c0.20046,1.60371 0.20236,2.19584 0.22683,2.802c0.02494,0.61786 0.04797,1.86598 0.05267,2.48399c0.00461,0.606 0.0045,2.2935 0.0045,3.28651c0,0.46349 0,1.33949 0,2.1675c0,1.20417 0,2.0085 0,2.82484c0,0.83633 -0.00097,2.14583 0.00017,2.60066c0.00234,0.93568 0.01607,1.89951 0.03584,2.38917c0.04002,0.99109 0.18116,2.48972 0.24799,2.98801c0.13303,0.99181 0.22504,1.47916 0.36333,2.44417c0.19902,1.38869 0.27232,2.2742 0.2955,2.709c0.0463,0.86852 0.05468,1.758 0.05717,3.18149c0.00089,0.50951 0.00137,1.57655 0.01067,2.12801c0.01895,1.12411 0.03749,1.69102 0.07467,2.256c0.10949,1.66362 0.19567,2.20174 0.34,3.27867c0.07315,0.54587 0.22858,1.67027 0.29067,2.25867c0.13126,1.24394 0.17045,1.90897 0.23133,3.30333c0.03134,0.71783 0.05155,1.44205 0.078,2.166c0.02623,0.71805 0.03561,1.4256 0.14133,2.776c0.09744,1.24451 0.17746,1.82603 0.35417,2.91667c0.08366,0.51637 0.27554,1.49507 0.47916,2.41666c0.19526,0.88374 0.40088,1.74113 0.6,2.59201c0.20089,0.85844 0.39954,1.74144 0.60133,2.65999c0.20886,0.95078 0.31131,1.4375 0.55583,2.41917c0.12402,0.49788 0.55578,1.99857 0.9,3c0.1745,0.50768 0.36253,1.01674 0.74733,2.05266c0.19627,0.52838 0.79636,2.16426 0.99684,2.72951c0.20386,0.57475 0.61842,1.75539 0.83466,2.36c0.22009,0.6154 0.44211,1.24275 0.93068,2.52c0.25096,0.6561 0.78548,1.98621 1.05865,2.65866c0.27415,0.67488 0.55037,1.34892 0.82201,2.022c0.26968,0.66826 0.78836,1.98509 1.03133,2.631c0.4733,1.25827 0.69435,1.87563 0.92134,2.48c0.22369,0.59561 0.66701,1.76248 1.16667,2.875c0.24649,0.54881 0.78604,1.60745 1.06932,2.12001c0.28044,0.50745 0.86292,1.48856 1.16534,1.95999c0.88277,1.37607 1.19484,1.80865 1.81999,2.672c0.31708,0.43788 0.99078,1.32625 1.34933,1.78401c0.75797,0.96768 1.16647,1.47786 2.03917,2.53149c0.44859,0.5416 0.90794,1.08101 1.3755,1.6125c0.46347,0.52684 0.90259,1.06277 2.29317,2.42216c0.42732,0.41774 0.85556,0.80347 1.70067,1.502c0.40601,0.33559 1.21896,0.9592 2.42099,1.86267c0.40099,0.30139 1.21097,0.90988 1.62067,1.22066c0.83728,0.6351 1.26628,0.96222 2.60034,2.00017c0.46211,0.35954 0.92288,0.72807 1.858,1.43733c0.45749,0.347 1.33595,1.01117 2.1875,1.54167c0.7496,0.467 1.46269,0.79973 2.42433,1.24367c0.91028,0.42023 1.51773,0.72725 2.409,1.27716c0.60611,0.37396 1.49825,0.98183 2.10133,1.37917c0.91684,0.60405 1.5472,1.01479 2.56534,1.60001c0.7141,0.41045 1.09103,0.60783 1.875,1c0.81595,0.40817 2.12378,1.00281 2.57967,1.19983c0.92888,0.40141 1.40042,0.59868 2.35333,0.96417c0.9379,0.35973 1.85696,0.67465 2.73866,0.952c0.83842,0.26373 1.64832,0.4861 2.39999,0.76801c1.07828,0.40439 1.73401,0.76866 2.38667,1.116c0.65266,0.34734 1.65897,0.85413 2.75267,1.24733c0.74237,0.26689 1.51036,0.46631 2.58066,0.91934c0.69104,0.29251 1.32359,0.65256 1.92,1.008c1.08665,0.64761 1.78374,1.08904 2.472,1.41467c0.92836,0.43922 1.71886,0.73367 2.54935,0.97466c1.0491,0.30443 1.76816,0.37885 2.62082,0.4315l1.00317,0.00583l0.76534,0.03467l0.94933,0.24667" id="svg_2" stroke-width="2" stroke="#000" fill="none"/>
  <path t="4146,4156,4156,4156,4156,4156,4156,4156,4172,4172,4172,4193,4193,4193,4193,4209,4209,4209,4209,4209,4209,4226,4226,4226,4226,4226,4226,4226,4226,4226,4243,4243,4243,4243,4243,4243,4259,4259,4259,4259,4259,4276,4276,4276,4276,4276,4276,4276,4276,4293,4293,4293,4293,4293,4309,4309,4309,4309,4309,4326,4326,4327,4327,4327,4343,4343,4343,4343,4343,4359,4359,4359,4359,4360,4376,4376,4376,4376,4376,4376,4377,4393,4393,4393,4393,4393,4393,4409,4409,4409,4409,4409,4426,4426,4426,4426,4426,4426,4443,4443,4443,4443,4443,4443,4443,4459,4459,4459,4459,4476,4476,4476,4476,4476,4476,4476,4493,4493,4493,4493,4493,4493,4493,4509,4509,4509,4509,4509,4509,4509,4526,4526,4526,4526" d="m155,107c10.83333,7.83334 11.64401,8.35771 12.39867,8.80133c0.68324,0.40164 1.88954,1.03924 2.41867,1.288c0.91153,0.42854 2.01909,0.88745 2.61566,1.1535c0.77199,0.34428 1.73128,0.76352 2.53317,1.06166c0.59459,0.22107 1.25528,0.44559 2.36716,0.86217c0.84337,0.31598 1.77147,0.68874 2.27084,0.89584c0.526,0.21814 1.65771,0.70245 2.89583,1.27084c0.66559,0.30555 1.35136,0.63319 2.0535,0.972c0.71255,0.34384 1.42606,0.69389 2.13451,1.044c0.6972,0.34456 1.3748,0.6824 2.64532,1.31733c1.12546,0.56243 1.638,0.819 2.58334,1.29167c0.44066,0.22033 1.27737,0.64025 2.48383,1.24183c0.81259,0.40518 1.23007,0.61348 2.1075,1.03583c0.46275,0.22275 1.9915,0.93181 2.556,1.18535c0.58746,0.26384 1.19389,0.53159 2.436,1.07866c0.62393,0.27481 1.24298,0.54515 1.84801,0.81599c1.69008,0.75658 2.20001,0.98918 3.13333,1.45868c0.43791,0.22028 1.27531,0.63744 2.35199,1.392c0.70145,0.49159 1.34088,1.05919 1.66667,1.33333c0.65175,0.54842 1.65938,1.3443 2.384,1.81734c0.73412,0.47923 1.49837,0.9328 1.86333,1.19249c1.11049,0.79016 1.78098,1.44595 2.40601,2.1515c0.31262,0.35289 0.89529,1.08301 1.67999,2.172c0.49049,0.68071 0.95357,1.36162 1.42801,2.06401c0.24931,0.36911 1.07242,1.60237 1.38133,2.06683c0.66357,0.99771 1.00914,1.52174 1.35733,2.05666c0.35048,0.53842 1.04039,1.60739 1.66667,2.64584c0.2943,0.48796 0.82494,1.4158 1.29166,2.29166c0.22319,0.41882 0.64079,1.2381 1.24167,2.44183c0.4012,0.80374 0.60461,1.2083 1,2.03584c0.40474,0.84709 0.81168,1.72571 1.19867,2.65199c0.40288,0.96432 0.58832,1.47179 0.76534,1.99467c0.36694,1.08395 0.67807,2.24864 0.81433,2.8595c0.27789,1.2458 0.38039,1.87561 0.48,2.49533c0.19031,1.18405 0.27638,1.73616 0.42017,3.15601c0.07561,0.74661 0.1076,1.4272 0.117,2.127c0.01718,1.27939 0.0045,2.3875 0.0045,3.009c0,0.6545 0,1.33299 0,2.02649c0,1.396 0.00105,2.744 -0.00034,3.37984c-0.00133,0.61084 -0.01286,1.77785 -0.04134,2.34334c-0.05652,1.12259 -0.10007,1.69189 -0.29166,2.85416c-0.20399,1.23746 -0.36966,1.86356 -0.51733,2.496c-0.147,0.62955 -0.44884,1.84988 -0.58134,2.43201c-0.24356,1.07001 -0.39732,1.996 -0.49599,2.784l-0.063,0.97949" id="svg_3" stroke-width="2" stroke="#000" fill="none"/>
  <path t="5836,5846,5846,5846,5846,5846,5846,5846,5846,5846,5861,5861,5861,5861,5862,5862,5862,5862,5862,5878,5878,5878,5878,5878,5878,5879,5879,5879,5893,5893,5893,5893,5893,5893,5910,5910,5910,5910,5910,5910,5926,5926,5926,5926,5926,5943,5943,5943,5944,5944,5944,5944,5944,5944,5959,5960,5960,5960,5960,5960,5976,5976,5976,5976,5976,5992,5992,5992,5992,5993,5993,6009,6009,6009,6009,6009,6009,6026,6026,6026,6026,6026,6026,6042,6042,6042,6042,6042,6042,6059,6059,6059,6059,6060,6060,6076,6076,6076,6076,6092,6092,6092,6092,6109,6109,6109,6129,6129,6129,6145,6145,6146,6146,6163,6163,6163,6163,6163,6180,6180,6180,6180,6197,6198,6198,6198,6214,6214,6215,6232,6232,6232,6247,6247,6247,6247,6247,6247,6263,6263,6263,6263,6281,6281,6281,6281,6292,6292,6292,6311,6311,6311,6325,6343,6343,6343,6363,6363,6378,6378,6512,6512,6522,6554,6560,6561,6580,6580,6580,6594,6594,6610,6611,6626,6644,6692,6704,6712,6726,6744,6744,6759,6759,6775,6776,6776,6791,6792,6792,6809,6809,6809,6809,6826,6826,6826,6826,6826,6826,6844,6844,6844,6844,6844,6844,6844,6845,6845,6859,6859,6859,6859,6859,6859,6859,6877,6878,6878,6878,6878,6878,6892,6892,6892,6892,6892,6892,6911,6911,6911,6911,6911,6911,6928,6928,6928,6928,6928,6928,6928,6928,6929,6943,6943,6943,6943,6944,6944,6944,6944,6944,6961,6961,6961,6961,6962,6962,6962,6962,6978,6978,6978,6978,6978,6978,6978,6979,6994,6994,6994,6994,6994,6994,6994,6995,6995,7011,7011,7011,7011,7011,7011,7012,7012,7028,7028,7028,7028,7028,7028,7029,7045,7045,7045,7045,7046,7046,7046,7061,7061,7061,7061,7061,7062,7062,7062,7078,7078,7078,7078,7078,7079,7079,7094,7094,7094,7094,7094,7094,7095,7095,7111,7111,7111,7111,7112,7112,7112,7128,7128,7128,7128,7128,7128,7128,7141,7142,7142,7142,7142,7142,7142,7143,7159,7159,7159,7159,7159,7159,7160,7160,7176,7176,7176,7176,7176,7176,7177,7192,7192,7192,7192,7192,7193,7193,7209,7209,7209,7209,7209,7210,7210,7210,7210,7225,7226,7226,7226,7226,7226,7242,7242,7242,7242,7242,7242,7259,7259,7259,7259,7260,7260,7276,7276,7276,7276,7276,7292,7293,7293,7293,7294,7294,7309,7309,7309,7309,7326,7326,7326,7326" d="m369,134c1.83334,-1.83333 2.21426,-2.88939 2.62134,-4.14133c0.45483,-1.39883 0.91852,-2.91524 1.39951,-4.50451c0.49109,-1.62271 0.9704,-3.24377 1.44449,-4.8195c0.86331,-2.86942 1.24487,-4.09127 1.59067,-5.16534c0.30331,-0.94214 0.57761,-1.76169 0.819,-2.4735c0.20941,-0.61749 0.39758,-1.15072 0.54901,-1.6185c0.25079,-0.77474 0.33789,-1.11209 0.40665,-1.424c0.0639,-0.28989 0.11011,-0.56635 0.1485,-0.8325c0.0376,-0.26054 0.06662,-0.52199 0.10352,-0.78751c0.07889,-0.5674 0.13678,-0.8769 0.20267,-1.20533c0.06967,-0.34727 0.23599,-1.09039 0.41916,-1.89417c0.2963,-1.30032 0.495,-2.21824 0.60001,-2.6865c0.21265,-0.94817 0.44266,-1.89752 0.58084,-2.36333c0.40704,-1.37219 0.77316,-2.24615 0.96133,-2.69067c0.39346,-0.92947 0.62735,-1.41225 1.31998,-3.06c0.25931,-0.61691 0.51883,-1.27008 0.78601,-1.9485c0.2742,-0.69623 0.54785,-1.40546 0.82199,-2.1195c0.27319,-0.71163 0.53708,-1.41631 1.30383,-3.40067c0.23486,-0.60784 0.46243,-1.18943 0.68552,-1.746c0.42169,-1.05212 0.61786,-1.55396 1.23599,-2.952c0.39139,-0.88519 0.59604,-1.3114 1,-2.14583c0.39612,-0.81823 0.99881,-2.02143 1.20035,-2.42101c0.40628,-0.80553 0.8309,-1.62664 1.314,-2.457c0.25095,-0.43133 1.12576,-1.76597 1.45364,-2.22683c0.33475,-0.47053 1.03284,-1.4154 1.38135,-1.89067c0.34616,-0.47206 1.32352,-1.85469 1.60782,-2.30399c0.54498,-0.86122 1.02341,-1.72056 1.25751,-2.14667c0.47086,-0.85711 0.94696,-1.74419 1.47067,-2.65867c0.26926,-0.47015 0.83261,-1.41778 1.12534,-1.89067c0.5849,-0.94492 1.18393,-1.86237 1.78799,-2.73867c0.29422,-0.42682 0.87994,-1.2454 1.44418,-2.025c0.27155,-0.37519 1.03452,-1.44109 1.50449,-2.1045c0.45142,-0.63722 0.88214,-1.27146 1.61932,-2.15717c0.75818,-0.91094 1.30923,-1.46151 1.82352,-1.98567c0.67224,-0.68518 1.37277,-1.34312 1.89249,-1.98233c0.63321,-0.7788 0.95648,-1.30188 1.52185,-2.141c0.59882,-0.88876 0.99146,-1.4947 1.40616,-2.091c0.41992,-0.60379 1.34729,-1.80762 1.87332,-2.39867c0.53265,-0.59851 1.08853,-1.16743 1.63202,-1.716c0.75986,-0.76695 1.22629,-1.24278 1.94531,-1.91067c0.5015,-0.46581 1.37631,-1.20222 2.04401,-1.72283c0.68954,-0.53765 1.37747,-1.05936 2.36133,-1.7185c0.55615,-0.3726 1.28665,-0.80149 2.33334,-1.33333c0.6106,-0.31026 1.30359,-0.64606 2.5,-1.16667c0.36285,-0.15789 1.16452,-0.48575 2.02084,-0.85417c0.88043,-0.3788 1.3255,-0.5546 2.53616,-1.179c0.73691,-0.38007 1.39459,-0.7913 2.034,-1.143c1.19681,-0.6583 1.80359,-0.91437 2.70898,-1.2465c0.59659,-0.21885 1.79984,-0.60727 2.38934,-0.81067c0.85522,-0.29508 1.89932,-0.67781 2.564,-1c0.77283,-0.37461 1.58963,-1.04432 2.41333,-1.6c0.64642,-0.43609 1.42789,-0.81388 2.23334,-1.19867c0.79358,-0.37912 1.80231,-0.66512 2.57916,-0.80133c0.85721,-0.1503 1.5481,-0.74695 2.42084,-0.964c0.87848,-0.21848 1.76956,-0.08866 2.62085,-0.01517c0.9863,0.08515 1.76517,0.44628 2.57916,0.69517c0.78857,0.24112 1.61749,0.23505 2.59982,0.50533c0.798,0.21956 1.9425,0.36524 2.63351,0.94533c0.62103,0.52136 1.13806,1.18905 1.16666,2.03333c0.03046,0.89948 0,1.8 0,2.55717c0,0.9045 0,1.7045 0,2.66433c0,0.8145 0,1.683 0,2.8785c0,0.6 0,1.5 0,2.7c0,0.60266 0,1.54167 0,2.21433c0,1.119 -0.00333,1.96172 0.01068,2.90033c0.00763,0.51038 0.04193,1.62323 0.07465,2.22934c0.07141,1.32324 0.13419,2.04166 0.19867,2.79333c0.06674,0.778 0.14154,1.57465 0.216,2.3835c0.07492,0.81381 0.15128,1.62534 0.216,2.4285c0.12494,1.55008 0.16809,2.28574 0.23132,3.67467c0.02991,0.65722 0.05002,1.29278 0.078,1.908c0.05362,1.17891 0.12735,2.30296 0.26001,3.38266c0.065,0.52905 0.23233,1.56507 0.32532,2.07467c0.18439,1.0105 0.38934,2.01067 0.58936,3.01067c0.19998,1 0.30002,1.49999 0.5,2.5c0.09998,0.5 0.39981,2.00073 0.50131,2.50533c0.20868,1.03747 0.31793,1.57833 0.55585,2.72334c0.12732,0.61284 0.40872,1.93816 0.56433,2.657c0.16302,0.75317 0.33453,1.53426 0.5145,2.337c0.18369,0.81926 0.37305,1.64838 0.56851,2.481c0.19519,0.83138 0.59378,2.46343 0.79532,3.25333c0.19717,0.77276 0.39609,1.52855 0.58951,2.271c0.19025,0.73023 0.37726,1.45002 0.5535,2.163c0.17444,0.7057 0.49579,2.10793 0.63583,2.809c0.27924,1.39793 0.396,2.10001 0.52133,2.8c0.12534,0.7 0.24786,1.40092 0.384,2.1c0.27304,1.40191 0.43286,2.10143 0.60132,2.80267c0.34131,1.42095 0.5351,2.13911 0.72534,2.86934c0.19342,0.74245 0.39667,1.49715 0.78934,3.06133c0.20294,0.8084 0.40063,1.63287 0.59549,2.4675c0.1958,0.83871 0.3855,1.67793 0.56851,2.5125c0.18063,0.82377 0.35651,1.63216 0.66934,3.18667c0.14789,0.73495 0.28284,1.44372 0.40948,2.1285c0.12265,0.66322 0.23764,1.30877 0.3465,1.9395c0.21188,1.22756 0.41068,2.432 0.51068,3.032c0.10001,0.6 0.29999,1.8 0.39999,2.4c0.10001,0.6 0.30002,1.8 0.5,3c0.10001,0.60017 0.30029,1.80444 0.39999,2.41066c0.10034,0.61012 0.30096,1.84636 0.39999,2.47467c0.20193,1.28104 0.3006,1.93591 0.40002,2.59866c0.20117,1.34116 0.29984,2.01602 0.39999,2.69067c0.09985,0.67268 0.19803,1.34164 0.49982,3.30417c0.09821,0.6386 0.19778,1.27269 0.28952,1.90649c0.09192,0.63519 0.26065,1.92375 0.32532,2.584c0.13348,1.36263 0.16803,2.07297 0.20001,2.79733c0.03241,0.73401 0.05566,1.47325 0.07465,2.94667c0.00931,0.72414 0.01001,1.43333 0.01068,2.78667c0.00031,0.63567 0,1.83299 0,2.40266c0,0.55566 0.00003,1.64101 0,2.17867c-0.00009,1.64067 0.00372,2.20805 -0.01068,3.38667c-0.00751,0.61536 -0.02231,1.25078 -0.04648,1.908c-0.02505,0.68144 -0.16037,2.88835 -0.22949,3.67599c-0.07077,0.80638 -0.15506,1.62457 -0.255,2.448c-0.10007,0.82462 -0.21008,1.6436 -0.345,2.448c-0.26086,1.55533 -0.42905,2.28882 -0.59735,2.996c-0.16324,0.68581 -0.33942,1.34853 -0.51599,1.9935c-0.17276,0.63101 -0.52829,1.85533 -0.83334,3.0625c-0.15125,0.5985 -0.2905,1.19812 -0.53067,2.39999c-0.11972,0.59911 -0.22922,1.19934 -0.43466,2.40001c-0.20523,1.19934 -0.29532,1.80144 -0.51031,3.009c-0.10913,0.61292 -0.22571,1.23415 -0.36301,1.86299c-0.28427,1.30191 -0.65616,2.66289 -0.87067,3.3705c-0.22003,0.7258 -0.46088,1.45894 -0.70801,2.19751c-0.24753,0.73978 -0.5,1.47287 -0.74399,2.19749c-0.23865,0.70872 -0.67679,2.06108 -0.86267,2.69783c-0.34628,1.18611 -0.48035,1.7494 -0.79333,2.79668c-0.14914,0.49902 -0.65891,1.91351 -1.12,2.784c-0.2319,0.43779 -0.76813,1.2859 -1.05066,1.70934c-0.57553,0.86256 -1.1821,1.73911 -1.77869,2.65733c-0.30173,0.46439 -0.89685,1.39857 -1.19998,1.85599c-0.59387,0.89612 -1.18341,1.74138 -1.80133,2.492c-0.59369,0.72119 -0.91269,1.05508 -1.55585,1.7175c-0.99896,1.02884 -1.366,1.37122 -2.091,2.10451c-0.36749,0.37167 -1.09494,1.11783 -1.44199,1.49466c-0.98938,1.0743 -1.54486,1.76163 -2.03784,2.40601c-0.45596,0.59599 -1.272,1.67999 -1.672,2.15866l-0.60001,0.6255l-0.60001,0.49049" id="svg_4" stroke-width="2" stroke="#000" fill="none"/>
  <path t="8199,8209,8209,8209,8209,8209,8209,8209,8209,8209,8221,8221,8245,8245,8261,8261,8261,8278,8278,8278,8278,8295,8295,8295,8295,8311,8311,8311,8312,8328,8328,8328,8328,8344,8344,8344,8344,8361,8361,8361,8361,8378,8378,8378,8378,8394,8394,8395,8395,8411,8411,8412,8412,8412,8426,8427,8427,8427,8442,8442,8442,8459,8460,8460,8460,8476,8476,8476,8477,8492,8492,8492,8492,8492,8509,8509,8509,8510,8510,8526,8526,8526,8527,8527,8542,8542,8542,8563,8563,8563,8563,8564,8576,8576,8577,8577,8592,8592,8593,8593,8593,8593,8593,8609,8609,8610,8610,8610,8626,8626,8626,8627,8627,8642,8642,8643,8643,8643,8659,8660,8660,8660,8660,8676,8676,8677,8677,8677,8692,8693,8693,8693,8693,8709,8710,8710,8710,8710,8726,8726,8726,8727,8727,8742,8742,8742,8743,8760,8760,8760,8760,8776,8776,8777,8777,8794,8794,8794,8794,8794,8809,8810,8810,8810,8810,8827,8827,8827,8827,8859,8859,8859,8859,8878,8878,8879,8894,8894" d="m429,49c0,15.33334 0,16.484 0,17.53867c0,0.96267 0,1.83733 0,2.628c0,0.71067 0,1.34534 0,1.908c0,1.61466 0,2.32117 0,3.41067c0,0.72533 0,1.71516 0,2.57716c0,0.7935 0.0054,1.80155 -0.00449,2.5955c-0.01047,0.84209 -0.00229,1.68988 -0.16217,2.842c-0.09036,0.65123 -0.35956,1.47727 -0.63467,2.26667c-0.30463,0.87411 -0.5997,1.89438 -0.79868,2.61866c-0.20102,0.73172 -0.49008,1.79649 -0.7045,2.46201c-0.31668,0.98289 -0.56415,1.64384 -1.017,2.674c-0.32382,0.73666 -0.68918,1.48397 -1.08301,2.226c-0.58063,1.09402 -0.99475,1.76698 -1.38483,2.41667c-0.37524,0.62498 -1.05743,1.82988 -1.32532,2.436c-0.26266,0.5943 -0.58151,1.49977 -0.88535,2.4c-0.30518,0.90427 -0.50308,1.52773 -0.88535,2.48534c-0.41675,1.04404 -0.77103,1.77016 -1.11465,2.5355c-0.3511,0.78197 -0.54364,1.17019 -0.97849,2.37883c-0.28244,0.78506 -0.49384,1.56075 -0.71701,2.286c-0.39249,1.27543 -0.71594,2.05923 -1.00452,2.81966c-0.31247,0.82338 -0.60709,1.80161 -0.77914,2.5155c-0.17554,0.72824 -0.37094,1.81076 -0.46817,2.831c-0.06366,0.66805 -0.08295,1.36049 -0.21933,2.4815c-0.10199,0.8382 -0.26395,1.72903 -0.444,2.652c-0.09113,0.46704 -0.38577,1.84882 -0.58936,2.72933c-0.19653,0.85014 -0.29843,1.26488 -0.5,2.08083c-0.2977,1.20506 -0.50455,2.00175 -0.68933,2.79384c-0.18042,0.77333 -0.37241,1.51941 -0.52533,2.92667c-0.07135,0.65663 -0.08307,1.63666 -0.08533,2.65067c-0.00159,0.71866 0,1.46933 0,2.24399c0,0.79068 -0.01117,1.98987 0.009,2.79834c0.02078,0.83305 0.06363,1.7124 0.32434,3.12433c0.0946,0.51234 0.37607,1.57346 0.53867,2.11734c0.16467,0.55084 0.52963,1.6467 0.73065,2.18134c0.57639,1.53304 0.78802,2.00154 1.19733,2.896c0.39114,0.85478 0.59821,1.26389 1.20001,2.472c0.3988,0.8006 0.80002,1.59999 1.20001,2.39999c0.20001,0.40001 0.79999,1.60001 1.19998,2.40001c0.39999,0.8 0.60001,1.2 1,2c0.60001,1.2 1.00317,1.99783 1.38934,2.8c0.19205,0.39893 0.58359,1.18813 1.04401,2.39999c0.30118,0.79274 0.53812,1.59795 0.75598,2.39999c0.21677,0.79802 0.51205,1.99983 0.71066,2.8045c0.20142,0.81599 0.30447,1.23047 0.5,2.08084c0.30682,1.33441 0.49884,2.26669 0.58936,2.73999c0.1813,0.94809 0.34213,1.88866 0.444,2.808c0.09747,0.8797 0.13855,1.73047 0.15598,2.556c0.01709,0.80922 0.01666,2.01056 0.0062,2.80617c-0.01031,0.78378 0.01428,1.55659 -0.21719,2.983c-0.10876,0.67015 -0.27884,1.31717 -0.66498,2.22017c-0.39355,0.92036 -0.78647,1.49951 -1.28799,2.47333c-0.35602,0.6913 -0.81027,1.86887 -0.94135,2.29733c-0.2717,0.88814 -0.50357,1.81761 -0.63666,2.2825c-0.39688,1.38651 -0.72565,2.26442 -0.90451,2.68651c-0.35001,0.82591 -0.73026,1.60945 -1.34283,2.69499c-0.38797,0.6875 -0.80026,1.32426 -1.164,1.95601c-0.69028,1.19885 -0.96817,1.80377 -1.31516,2.71066c-0.22794,0.5957 -0.62085,1.79967 -0.82083,2.39101l-0.30002,0.83699l-0.39999,0.93867l-0.47916,0.79166" id="svg_5" stroke-width="2" stroke="#000" fill="none"/>
  <path t="11136,11222,11242,11261,11261,11283,11284,11294,11294,11312,11312,11312,11328,11328,11345,11345,11345,11345,11362,11362,11362,11378,11378,11378,11379,11396,11396,11412,11412,11412,11428,11428,11428,11428,11462,11462,11476,11476,11476,11476,11492,11492,11492,11492,11508,11509,11526,11526,11542,11542,11542,11558,11559,11575,11576,11576,11591,11592,11592,11609,11609,11609,11626,11626,11642,11642,11642,11659,11659,11659,11659,11675,11676,11676,11692,11692,11692,11709,11709,11709,11709,11709,11725,11726,11726,11741,11741,11742,11742,11742,11759,11759,11759,11778,11778,11778,11778,11778,11794,11794,11794,11794,11794,11811,11811,11811,11811,11828,11828,11828,11842,11842,11842,11842,11861,11861,11861,11878,11878,11878,11894,11894,11894,11894,11894,11894,11894,11911,11911,11911,11911,11911,11928,11928,11928,11943,11943,11943,11943,11961,11961,11961,11961,11961,11961,11978,11978,11978,11978,11994,11994,11994,11994,11994,12011,12011,12011,12011,12011,12011,12011,12028,12028,12028,12028,12028,12044,12044,12044,12044,12061,12061,12061,12078,12078,12078,12094,12094,12094" d="m232,241c-0.83333,-0.66667 -1.03391,0.10065 -1,1c0.02859,0.75879 0.3472,1.66188 0.7045,2.4045c0.48213,1.00204 0.79851,1.59401 1.2955,2.5955c0.2973,0.59912 0.71123,1.38382 0.916,2.40266c0.127,0.63187 0.24042,1.93266 0.36934,2.56534c0.13959,0.68501 0.28468,1.39403 0.71466,2.69867c0.27434,0.8324 0.61824,1.54054 1,2.49998c0.31044,0.78024 0.51758,1.32321 0.71466,2.14935c0.28976,1.21463 0.24622,1.88797 0.50667,2.88434c0.22414,0.85745 0.53828,1.56329 0.65717,2.44232c0.13557,1.0025 0.11513,1.70663 0.12018,2.38934c0.00887,1.19995 0.00133,1.96799 0.00133,3.30133c0,0.63599 0,1.328 0,2.052c0,1.448 0,2.12665 0,3.05215c0,0.7905 0,1.75717 0,2.53049c0,1.04184 0.00333,1.81735 0,2.86536c-0.00226,0.7095 0.02379,1.58405 -0.28534,2.56665c-0.25919,0.82382 -0.70531,1.6048 -1.12532,2.41068c-0.339,0.65045 -0.91414,1.60843 -1.2375,2.142c-0.49611,0.81863 -1.06215,1.86838 -1.242,2.59018c-0.20966,0.84146 -0.29611,1.67123 -0.63066,2.45715c-0.43431,1.02029 -0.80072,1.59967 -1.07918,2.272c-0.43402,1.04788 -0.7,2.03333 -0.89999,2.728c-0.2,0.69467 -0.49573,1.66821 -0.7955,2.49017c-0.26472,0.72586 -0.59358,1.93027 -0.65182,2.4715c-0.09505,0.88333 -0.20993,2.2066 -0.33667,2.92233c-0.13159,0.74313 -0.30428,1.48819 -0.43201,2.23199c-0.18195,1.05954 -0.25807,2.05835 -0.27333,2.70935c-0.03142,1.34097 -0.01067,2.05865 -0.01067,2.79999c0,0.74933 0,1.49066 0,2.89066c0,0.65866 0,1.63669 0,2.65067c0,0.72 0,1.48001 0,2.28c0,0.84 0,2.1745 0,3.1015c0,0.46652 0,1.3905 0,2.2825c0,1.22635 0,1.95502 0,2.62769c0,0.939 -0.00949,2.14194 0.01067,2.74167c0.03026,0.9007 0.19522,2.10373 0.3465,2.69998c0.22993,0.90631 0.43979,1.50146 0.84283,2.69867c0.29678,0.88159 0.4758,1.45386 0.90033,2.4805c0.30386,0.73483 0.71327,1.54538 1.233,2.58749c0.20905,0.41916 0.67444,1.35181 0.91734,1.85602c0.50371,1.04559 0.75217,1.57742 0.98132,2.112c0.6483,1.51239 0.95818,2.44507 1.09601,2.88266c0.25916,0.82272 0.45586,1.5986 0.87199,2.99734c0.19374,0.65121 0.39799,1.27533 0.8,2.48532c0.20033,0.603 0.51648,1.54321 0.75717,2.21432c0.40225,1.12164 0.7256,1.95468 0.89999,2.39102c0.35841,0.89676 0.74045,1.79248 0.94417,2.22665c0.57922,1.23447 0.99425,1.96075 1.39867,2.64716c0.39568,0.67157 1.0023,1.68622 1.40266,2.4075c0.4211,0.75867 0.86273,1.56393 1.11166,1.97501c0.79805,1.3179 1.11835,1.76688 1.7955,2.68649c0.34634,0.47037 0.70354,0.93704 1.442,1.84201c0.36188,0.44348 1.42305,1.66998 1.76283,2.03784c0.64255,0.69565 1.26155,1.32904 1.884,1.884c0.88304,0.78729 1.49599,1.23196 2.08051,1.66714c0.83429,0.62112 1.61174,1.20697 2.28484,1.82083c0.64362,0.58698 1.23599,1.20001 1.836,1.80002c0.60001,0.60001 1.39999,1.39999 1.99548,1.99548l0.56851,0.56851" id="svg_6" stroke-width="2" stroke="#000" fill="none"/>
  <path t="13339,13345,13345,13345,13345,13345,13361,13361,13361,13378,13378,13394,13394,13394,13411,13411,13411,13426,13426,13426,13442,13442,13442,13442,13442,13459,13459,13459,13476,13476,13476,13492,13492,13492,13509,13509,13509,13509,13526,13526,13526,13526,13542,13542,13542,13559,13559,13576,13576,13576,13592,13592,13592,13592,13609,13609,13609,13609,13626,13626,13626,13642,13642,13642,13642,13659,13659,13659,13676,13676,13676,13676,13692,13692,13692,13692,13692,13692,13709,13709,13709,13709,13709,13709,13726,13726,13726,13726,13742,13742,13742,13742,13742,13742,13759,13759,13759,13776,13776,13776,13792,13792,13792,13809,13809,13809,13826,13845,13845,13862,13862,13879,13879,13879,13896,13896,13896,13896,13897,13909,13909,13909,13910,13928,13928,13928,13942,13942,13942,13942,13942,13961,13961,13961,13979,13979,13979,13979,13979,13994,13994,13994,13994,13994,13994,13994,14009,14009,14009,14009,14009,14009,14009,14025,14026,14026,14026,14026,14026,14041,14042,14042,14042,14042,14042,14059,14059,14059,14059,14059,14059,14076,14076,14076,14076,14091,14092,14092,14092,14109,14109,14109,14109,14109,14109,14125,14126,14126,14126,14141,14142,14142,14142,14142,14158,14159,14159,14159,14175,14176,14176,14176,14176,14192,14192,14192,14192,14192,14192,14208,14209,14209,14209,14225,14226,14226,14226,14241,14242,14242,14242,14259,14259,14259,14259,14275,14276,14276,14291,14292,14292,14292,14292,14309,14309,14309,14325,14325,14325,14341,14342,14342,14358,14359,14359,14374,14391,14392,14392,14409,14409,14409,14409,14425,14425,14425,14425,14441,14442,14458,14459,14459,14475,14475,14491,14492,14492,14492,14508,14509,14509,14509,14524,14525,14541,14542,14542,14558,14559,14559,14574,14575,14575,14592,14592,14592,14592,14592,14608,14609,14609,14609,14625,14625,14625,14641,14642,14642,14642,14658,14659,14659,14659,14675,14675,14675,14675,14675,14692,14692,14692,14692,14692,14709,14709,14709,14709,14709,14724,14725,14725,14725,14725,14741,14742,14742,14758,14759,14759,14759,14774,14775,14775,14791,14792,14792,14792,14809,14809,14809,14809,14825,14825,14842,14842,14842,14859,14859,14859,14874,14875,14875,14892,14892,14892,14892,14892,14909,14909,14909,14909,14925,14925,14925,14925,14942,14942,14942,14942,14942,14959,14959,14959,14959,14975,14975,14975,14992,14992,14992,15009,15009,15009,15009,15009,15009,15025,15025,15025,15025,15041,15042,15042,15059,15059,15059,15075,15075,15075,15092,15092,15092,15109,15109,15109,15109,15125,15125,15125,15141,15142,15142,15159,15159,15159,15175,15175,15175,15192,15192,15192,15192,15209,15209,15209,15225,15225,15242,15242,15242,15259,15259,15259,15275,15292,15309,15309,15325,15325,15342,15359,15375,15376,15399,15411,15435,15451,15459,15535,15535" d="m307,296c-1.32132,7.03516 -1.64484,8.02258 -1.82535,8.47067c-0.33487,0.83127 -0.6893,1.55533 -1.28931,2.75867c-0.36368,0.7294 -0.67093,1.37469 -1.08667,2.17065c-0.42151,0.80704 -0.95486,1.60864 -1.45135,2.20001c-0.51135,0.60907 -1.19382,1.39124 -1.72198,2.19998c-0.38776,0.59375 -0.94836,1.39911 -1.46133,2.02133c-0.57019,0.69162 -1.17432,1.50565 -1.564,2.14667c-0.41098,0.67612 -0.78006,1.39343 -1.20001,2.06403c-0.76431,1.2204 -1.18552,1.70938 -1.79999,2.35898c-0.7818,0.82648 -1.4118,1.38904 -1.94284,2.009c-0.66486,0.77621 -1.03055,1.41144 -1.40982,2.05716c-0.56708,0.96548 -0.8923,1.51169 -1.49402,2.35352c-0.42828,0.59921 -1.17038,1.49283 -1.70151,2.08484c-0.52692,0.58731 -1.07263,1.12213 -1.71848,1.93784c-0.54568,0.68921 -1.01456,1.56723 -1.4335,2.36649c-0.41113,0.78439 -1.06754,1.63232 -1.55252,2.05652c-0.69617,0.60892 -1.34903,1.49835 -1.59015,2.11066c-0.26193,0.66513 -0.4455,1.39139 -0.75717,2.46634c-0.29327,1.01147 -0.49734,1.6467 -0.79999,2.56534c-0.29721,0.90216 -0.60818,1.79617 -0.76401,2.40131c-0.3067,1.19101 -0.3905,2.09943 -0.41516,2.70001c-0.03696,0.89944 -0.02084,2.10001 -0.02084,2.70001c0,0.89999 0,2.10049 0,2.7135c0,0.99448 0,1.74249 0,2.58649c0,0.95468 0,1.99734 0,2.54166c0,0.55435 0,1.677 0,2.79169c0,1.07999 0,1.60498 0,2.625c0,0.97998 -0.00333,1.45499 0.00015,2.82031c0.00223,0.86868 0.00339,1.72226 0.05701,2.57401c0.08282,1.31595 0.15106,1.77054 0.30002,2.6955c0.1503,0.93326 0.24084,1.39328 0.44415,2.2825c0.28128,1.23029 0.47516,1.95816 0.79868,2.91202c0.37311,1.10016 0.70502,1.80246 1,2.48267c0.40695,0.93832 0.72299,1.71884 0.96399,2.54932c0.30444,1.04913 0.30582,1.77777 0.48868,2.56369c0.2153,0.92538 1.05685,1.50739 1.83267,1.74567c0.78265,0.24039 1.51117,0.63693 2.51865,1.116c0.6535,0.31073 1.44568,0.62213 2.46017,0.89999c0.79376,0.21741 1.65674,0.39972 2.09583,0.5c0.87347,0.19946 2.09964,0.49069 2.82568,0.69998c0.99673,0.28729 1.61093,0.5022 2.81564,0.90002c0.60898,0.20111 1.5531,0.50943 2.56534,0.79999c0.71545,0.20535 1.45627,0.40002 2.20801,0.564c0.73911,0.16119 2.14044,0.36469 2.79999,0.39999c0.97714,0.05231 1.992,0.03601 2.71469,0.03601c0.77866,0 1.62933,0 2.56799,0c1.04266,0 1.60699,0 2.80966,0c0.63034,0 1.27466,0 1.92902,0c1.32266,0 2.63733,0 3.28232,0c0.63501,0 1.875,0 2.48001,0c0.595,0 1.755,0 2.875,0c1.08133,0 1.6095,0 2.64581,0c0.51016,0 1.5195,0 3.021,0c0.50119,0 1.51053,0 2.02069,0c1.03632,0 1.56448,0 3.20016,0c0.56033,0 1.68298,0 2.23734,0c1.07465,0 1.58698,0 2.97733,0c0.79733,0 1.52267,0 2.54565,0c1.04034,0 1.78033,0 2.56033,0c0.82001,0 2.125,0 3.04236,0c0.46866,0 1.41599,0 2.36331,0c0.46866,0 1.83118,0 2.6955,0c0.83633,0 1.65268,0 2.85718,0c0.79999,0 1.60001,0 2.39999,0c0.80002,0 2,0 2.80002,0c0.79999,0 1.59998,0 2.79999,0c0.80267,0 1.62134,0 2.47198,0c0.89868,0 1.86136,0 2.89468,0c0.53418,0 1.61249,0 2.14667,0c1.03333,0 2.42239,0.00668 3.21967,-0.00449c0.72546,-0.01016 1.41492,-0.01846 2.43365,-0.16217c1.09177,-0.15402 1.83566,-0.34497 2.58069,-0.53784c1.08957,-0.28207 1.7692,-0.48962 2.73181,-0.7955c0.61755,-0.19623 1.82083,-0.59998 2.42084,-0.79999c0.89999,-0.29999 1.49915,-0.50259 2.70132,-0.90002c0.60892,-0.20129 1.5531,-0.50943 2.56534,-0.79999c0.71545,-0.20535 1.45627,-0.40002 2.20801,-0.564c0.73911,-0.16119 2.13858,-0.35312 2.77866,-0.41068c0.88486,-0.07956 1.93427,-0.21982 2.62134,-0.46133c0.68796,-0.24182 1.6456,-0.66687 2.45068,-0.96399c0.82092,-0.30295 1.86331,-0.67783 2.52798,-1c0.77283,-0.3746 1.59412,-1.03772 2.41333,-1.60001c0.65955,-0.4527 1.31525,-0.7879 2,-1.33334c0.81116,-0.64612 1.33661,-1.18414 1.88068,-1.71848c0.7908,-0.77667 1.49887,-1.48358 1.91101,-1.92734c0.56601,-0.60947 1.30005,-1.61212 1.63098,-2.22086c0.53629,-0.98651 0.81146,-1.59958 1.21066,-2.39999c0.39948,-0.80093 0.83206,-1.61893 1.03336,-2.56665c0.16675,-0.785 0.16028,-1.67996 0.16531,-2.32001c0.00815,-1.03448 0.00375,-2.12857 -0.03467,-2.85199c-0.0368,-0.69281 -0.20651,-1.90594 -0.48483,-2.61969c-0.41653,-1.06824 -0.77911,-1.64169 -1.17917,-2.44165c-0.40012,-0.80005 -0.79214,-1.61838 -1.18533,-2.20001c-0.56168,-0.8309 -1.16525,-1.43384 -1.80133,-2.17065c-0.74509,-0.86313 -1.00604,-1.19107 -1.52798,-1.89069c-0.53442,-0.71637 -1.05142,-1.43585 -1.64252,-2.517c-0.35461,-0.64862 -0.73096,-1.58847 -1.02548,-2.13498c-0.5553,-1.03046 -1.15201,-1.69324 -1.57901,-2.13934c-0.69382,-0.72485 -1.491,-1.5 -2.03833,-2.04733c-0.54733,-0.54733 -1.32718,-1.33963 -1.81732,-1.81467c-0.69489,-0.67349 -1.16406,-1.1225 -2.3255,-1.8855c-0.65192,-0.42825 -1.37991,-0.81754 -1.74252,-1.03583c-0.73587,-0.44299 -1.80624,-1.17007 -2.46198,-1.72568c-0.66617,-0.56445 -1.30673,-1.19858 -1.63669,-1.52499c-1.0415,-1.0303 -1.4014,-1.39462 -2.13065,-2.13867c-0.36588,-0.37332 -1.09918,-1.10117 -2.052,-2.20801c-0.57593,-0.66904 -0.84567,-0.98846 -1.47601,-1.95599c-0.38895,-0.59702 -0.84445,-1.50699 -1.23199,-2.41068c-0.25629,-0.5976 -0.7811,-1.80588 -1.10934,-2.39865c-0.33047,-0.5968 -0.87543,-1.43686 -1.34933,-2.23468c-0.42035,-0.70764 -0.88199,-1.61127 -1.26666,-2.58832c-0.21097,-0.53583 -0.50665,-1.42297 -0.69998,-2.065c-0.31055,-1.03134 -0.51028,-1.75797 -0.76401,-2.85199c-0.16,-0.68991 -0.336,-1.8927 -0.436,-2.61969c-0.14374,-1.04507 -0.35614,-1.64658 -0.7045,-2.49881c-0.39432,-0.96466 -0.6922,-1.76941 -0.89551,-2.3175c-0.39362,-1.06107 -0.70639,-1.78082 -1.03598,-2.52267c-0.53372,-1.20132 -0.84937,-1.95544 -1.01669,-2.36517c-0.3501,-0.85721 -0.70142,-1.7341 -1.18066,-3.00415c-0.28671,-0.75983 -0.51669,-1.46112 -0.79199,-2.07602c-0.49759,-1.1113 -1.02206,-1.82181 -1.43716,-2.25732c-0.67996,-0.71338 -1.57819,-1.42383 -2.24283,-1.95267c-0.3443,-0.27396 -1.04913,-0.81558 -1.72668,-1.36334c-0.93228,-0.75372 -1.45496,-1.23044 -2.18265,-1.87332c-0.46597,-0.41165 -1.46307,-1.2182 -2.01068,-1.60001c-0.8129,-0.56677 -1.59821,-1.06161 -2.33099,-1.45801c-0.73166,-0.39578 -1.94244,-0.92221 -2.69699,-1.23666c-0.40854,-0.17026 -1.26648,-0.51865 -2.14584,-0.86331c-0.43365,-0.16998 -1.65552,-0.6377 -2.72882,-1.01669c-0.64929,-0.22928 -1.26675,-0.4425 -2.47067,-0.83466c-0.87866,-0.28622 -1.43237,-0.50403 -2.48001,-0.67984c-0.91403,-0.15338 -1.60532,-0.12082 -2.60666,-0.12149c-0.83551,-0.00055 -1.71603,0.00851 -2.91599,-0.00134c-0.60941,-0.005 -1.5592,-0.02841 -2.56534,-0.16531c-0.71893,-0.09784 -1.44632,-0.26694 -2.5235,-0.48068c-0.97504,-0.19348 -1.79901,-0.31552 -2.52451,-0.34198c-1.2059,-0.04398 -2.01068,-0.01068 -2.83267,-0.01068c-1.03134,0 -1.72733,0 -2.63666,0c-1.00269,0 -1.85767,0 -2.47766,0c-1.005,0 -2.08682,-0.00598 -2.8175,0.02084c-0.71146,0.02612 -1.98483,0.17575 -2.74884,0.40448c-0.6698,0.20053 -1.6745,0.48215 -2.508,0.60001c-0.93207,0.13181 -1.71405,0.33728 -2.53867,0.54935c-1.05548,0.27145 -1.78732,0.25583 -2.73868,0.50934c-0.88568,0.23602 -1.63977,0.66348 -2.48666,1.08264c-0.69516,0.34406 -1.51801,0.98044 -2.13867,1.43335c-0.73914,0.53937 -1.30328,1.18558 -2.06,1.68533c-0.60892,0.40216 -0.61539,1.44153 -0.83734,2.31467c-0.21921,0.86227 -0.87866,1.60001 -0.96399,2.5l0,0.89999l0,0.79999" id="svg_7" stroke-width="2" stroke="#000" fill="none"/>
  <path t="16152,16162,16162,16162,16162,16177,16177,16194,16211,16211,16211,16228,16228,16244,16245,16261,16261,16261,16277,16277,16277,16294,16294,16294,16310,16310,16310,16325,16325,16325,16342,16342,16343,16359,16360,16360,16375,16375,16375,16392,16392,16392,16393,16393,16409,16409,16409,16425,16425,16443,16443,16443,16459,16459,16460,16475" d="m309,339c-3.33334,15.16666 -3.5376,16.03006 -3.76685,17.32816c-0.14398,0.81519 0.04956,1.7323 0.48285,2.47183c0.44803,0.76468 1.12634,1.43103 1.82565,1.67917c0.76517,0.27148 1.77084,0.46817 2.64767,0.51016c1.00958,0.04834 1.81076,0.02383 2.81067,0.01068c0.81088,-0.01068 1.48795,-0.03503 2.42117,-0.44299c0.82651,-0.3613 1.38068,-0.70874 2.24548,-1.55701c0.56845,-0.55759 1.05441,-1.4201 1.65466,-2.20016c0.48279,-0.62741 1.0712,-1.22806 1.51202,-1.96649c0.45325,-0.75922 0.77667,-1.5946 1,-2.66669c0.14731,-0.70715 0.17688,-1.61938 0.16632,-2.58798c-0.00879,-0.80423 0.00577,-1.67215 -0.44266,-2.6575c-0.34238,-0.75232 -0.81406,-1.15747 -1.55701,-2.25452c-0.42065,-0.62115 -0.79651,-1.31934 -1.20001,-2.01599c-0.39658,-0.68466 -0.95032,-1.64993 -1.59998,-2.35733c-0.55978,-0.60956 -1.38364,-1.13321 -2.20001,-1.25168c-0.99048,-0.14374 -1.81067,-0.04166 -2.45715,-0.04166c-1.22552,0 -2.022,0 -2.7735,0l-1.08667,0.01068" id="svg_8" stroke-width="2" stroke="#000" fill="none"/>
  <path t="16982,16992,16992,16992,16992,16992,17005,17005,17028,17028,17028,17044,17044,17044,17044,17061,17061,17077,17077,17092,17109,17109,17125,17125,17125,17142,17142,17159,17175,17175,17192,17192,17209,17209,17225,17225,17225,17242,17242,17242,17259,17275,17275,17292,17292,17292,17309,17309,17325,17325,17342,17342,17342,17359,17359,17359,17375,17375" d="m356,336c-7.16666,13 -7.56329,13.82236 -7.78018,15.20499c-0.08423,0.53699 0.03033,1.39313 0.44684,2.46167c0.31616,0.8111 0.57507,1.84772 0.91669,2.35419c0.41907,0.62128 1.4614,1.39215 2.10333,1.76849c0.66473,0.38968 1.34311,0.73248 2.54132,1.32401c0.70743,0.34924 1.59387,0.79318 2.36133,0.87598c0.92621,0.09991 1.91138,0.10266 2.62134,-0.06131c1.0293,-0.23773 1.59222,-0.77448 2.13217,-1.27985c0.79227,-0.74155 1.41415,-1.28799 2.04651,-2.04816c0.54626,-0.65668 0.65384,-1.5015 1.04666,-2.436c0.24362,-0.57959 0.76401,-1.564 1.064,-2.164c0.5,-1 0.93317,-1.79517 1.14282,-2.45715c0.29965,-0.94611 0.33548,-1.75705 0.35269,-2.53302c0.02652,-1.19522 0.05951,-2.11673 -0.05267,-2.82416c-0.15356,-0.96851 -0.42044,-1.70374 -0.74417,-2.41766c-0.44528,-0.98203 -1.07483,-1.57962 -1.85583,-2.07251c-0.73889,-0.46634 -1.54025,-1.02014 -2.1535,-1.52084c-0.64362,-0.52548 -1.6105,-1.15298 -2.13751,-1.41299l-0.7905,-0.315l-1.11832,-0.32532l-0.72168,-0.14667" id="svg_9" stroke-width="2" stroke="#000" fill="none"/>
  <path t="18642,18843,18853,18867,18894,18894,18911,18911,18911,18927,18927,18927,18944,18944,18944,18961,18961,18961,18978,18979,18979,18979,18979,18998,18998,18998,18998,19009,19009,19009,19009,19009,19027,19027,19027,19027,19045,19045,19045,19045,19061,19061,19061,19061,19061,19077,19077,19077,19077,19077,19094,19094,19094,19094,19111,19111,19111,19111,19127,19127,19127,19144,19144,19161,19161,19161,19161,19161,19177,19177,19177,19192,19192,19192,19211,19211,19211,19211,19227,19227,19227,19244,19244,19244,19261,19261,19261,19275,19275,19275,19275,19294,19294,19294,19294,19311,19311,19311,19312,19312,19327,19327,19327,19344,19344,19344,19344,19361,19361,19361,19361,19377,19377,19377,19377,19394,19394,19394,19394,19411,19411,19411,19411,19427,19427,19427,19427,19441,19442,19442,19442,19442,19458,19459,19459,19459,19474,19475,19475,19475,19493,19493,19493,19493,19509,19509,19509,19509,19524,19525,19525,19541,19542,19558,19559,19559,19574,19574,19575,19591,19608,19624,19659,19671,19687,19723,19739,19771,19791,19807,19815,19815,19825,19842,19859,19859,19874,19875,19891,19892,19892,19908,19909,19909,19924,19925,19925,19942,19942,19942,19959,19959,19974,19975,19975,19992,19992,20008,20009,20025,20025,20041,20042,20042,20058,20059,20059,20074,20075,20075,20091,20092,20092,20108,20109,20109,20109,20125,20125,20125,20142,20142,20142,20159,20159,20159,20175,20175,20192,20192,20192,20210,20210,20210,20225,20225,20225,20242,20259,20259,20275,20292,20292,20309,20309,20325,20325,20363,20364,20391,20415,20439,20440,20443,20579,20612,20613,20620,20642,20659,20675,20675,20692,20692,20709,20709,20710,20729,20729,20742,20742,20743,20759,20760,20760,20775,20776,20792,20792,20793,20809,20810,20810,20825,20825,20826,20842,20842,20860,20860,20860,20875,20875,20875,20892,20892,20909,20909,20909,20925,20925,20942,20943,20943,20943,20943,20959,20959,20959,20959,20975,20975,20975,20992,20992,20992,20992,21009,21009,21009,21025,21025,21042,21042,21042,21059,21059,21059,21075,21075,21092,21092,21119,21120,21127,21143,21159,21175,21175,21192,21192,21209,21209,21209,21225,21242,21259,21275,21292,21309,21309,21325,21342,21359,21359,21375,21375,21392,21392,21392,21409,21409,21409,21409,21409,21425,21425,21425,21425,21442,21442,21442,21459,21459,21459,21475,21475,21475,21492,21492,21492,21492,21492,21509,21509,21509,21579,21583" d="m260,386c0.22134,-1.65701 0.5708,-0.83786 1.16666,-0.16666c0.53867,0.60678 1.05734,1.16263 1.68668,1.936c0.41379,0.50851 0.94254,0.98599 1.81332,2.064c0.37869,0.46881 0.91406,1.35492 1.33334,2.16666c0.41269,0.79895 0.71576,1.43088 1.32184,2.20016c0.50256,0.63788 1.18585,1.26999 2.01151,1.96649c0.62506,0.52731 1.31079,1.05365 1.97998,1.608c0.32623,0.27023 1.4328,1.29572 1.83319,1.77716c0.58014,0.69757 0.96387,1.24454 1.83899,2.09085c0.70856,0.68521 1.1243,1.01059 1.94916,1.70667c0.41074,0.34662 1.56894,1.3132 2.21066,1.88c0.56052,0.49509 1.0387,0.97339 2.02133,1.77066c0.50864,0.41269 1.06509,0.80618 1.93784,1.39999c0.8912,0.60635 1.50159,0.99585 2.10617,1.42133c0.63037,0.4436 1.28922,0.93234 2.31052,1.82135c0.36682,0.31931 1.09662,1.00476 1.81747,1.70667c0.35306,0.34375 1.32462,1.32074 1.892,1.88c0.74411,0.73349 1.19827,1.18536 2.19067,1.97067c0.52155,0.41269 1.08856,0.78674 1.89468,1.39999c0.772,0.58731 1.444,1.18237 2.02234,1.74283c0.78952,0.76511 1.3486,1.33112 2.16165,1.99051c0.54651,0.44324 1.18283,0.92258 1.85999,1.41599c0.66956,0.48788 1.58606,1.1261 2.36801,1.57867c0.65421,0.37863 1.68607,0.85239 2.29285,1.21365c0.67963,0.4046 1.41229,0.98819 2.2045,1.71967c0.55777,0.51501 1.0881,1.05859 1.85315,1.81702c0.68323,0.67731 1.07202,1.12411 1.92151,1.755c0.77786,0.5777 1.45059,0.87814 2.42151,1.26682c0.80923,0.32394 1.40756,0.4964 2.57849,1.0665c0.61026,0.29712 1.19217,0.67242 2.10001,1.18066c0.89249,0.49966 1.8031,0.90344 2.42084,1.15268c0.63492,0.25616 1.64822,0.66129 2.36316,0.98401c0.74387,0.33578 1.48712,0.69843 2.23199,1.03198c1.05759,0.4736 2.04593,0.85391 2.67334,1.07333c1.20676,0.42203 1.81036,0.61566 2.73151,0.91068c0.63522,0.20346 1.64499,0.50302 2.36316,0.70001c0.74048,0.20309 1.86551,0.49228 2.94934,0.79999c0.68274,0.19382 1.3237,0.4165 2.26215,0.64282c0.89859,0.21671 1.80835,0.31656 2.74051,0.3465c0.64905,0.02084 1.68533,0.01068 2.41666,0.01068c1.12201,0 1.86334,0 2.92618,0c0.673,0 1.6825,0 2.3905,0c1.17349,0 2.0405,0 2.95151,0c0.46448,0 1.39648,0.00336 2.75748,-0.00015c0.86002,-0.00223 1.68127,0.00003 2.46002,-0.05701c1.09753,-0.08035 1.78253,-0.2041 2.74081,-0.46368c0.62073,-0.16815 1.82022,-0.58157 2.42535,-0.77914c0.9303,-0.30374 1.57803,-0.50977 2.61667,-0.79984c0.72513,-0.20251 1.45294,-0.40311 2.50949,-0.61484c0.92239,-0.18484 1.93448,-0.24405 2.56665,-0.36935c1.02249,-0.2027 1.84799,-0.6199 2.82401,-0.79465c0.79706,-0.1427 1.64099,-0.09958 2.65701,-0.34283c0.68878,-0.16492 1.42975,-0.58749 2.28568,-1.16785c0.73138,-0.49591 1.3053,-1.15906 1.99316,-1.5535c0.8194,-0.46985 1.85144,0.06686 2.74265,-0.05731c0.80188,-0.11172 1.25592,-0.97119 2.10019,-0.99985c0.89948,-0.03055 1.75375,-0.24213 2.5,-0.64734c0.76111,-0.41327 1.7532,-0.24066 2.50131,-0.638c0.75671,-0.40192 1.45078,-1.02426 2.20319,-1.41467c0.79047,-0.41016 1.6102,-0.814 2.28082,-1.09998c0.99002,-0.42218 1.82623,-0.69568 2.362,-0.95718c1.05627,-0.51559 1.71008,-1.07626 2.34818,-1.59015c0.79639,-0.64136 1.39856,-1.02777 2.2045,-1.45135c0.9884,-0.5195 1.64276,-0.75336 2.37866,-1.52264c0.59158,-0.61841 0.83344,-1.27966 1.6785,-1.92151c0.6958,-0.52847 1.55405,-0.83575 2.32199,-1.25717c0.86771,-0.47617 1.52338,-1.01822 2.1875,-1.66666c0.67194,-0.65607 1.211,-1.21603 2.03336,-1.81201c0.58209,-0.42184 1.42047,-0.87897 2.19998,-1.50534c0.61688,-0.4957 1.18048,-1.05893 2.00134,-1.63333c0.60574,-0.42386 1.30252,-0.82932 2.284,-1.65067c0.56155,-0.46994 1.10712,-1.00452 1.716,-1.46399c0.87366,-0.65927 1.78357,-1.10638 2.36267,-1.34668c1.06158,-0.44049 1.78348,-0.71158 2.6315,-1.12134c0.80902,-0.3909 1.62292,-0.79208 2.2045,-1.18533c0.82684,-0.55911 1.38022,-1.11356 2.23334,-1.948c0.5527,-0.54062 1.12363,-1.0675 1.936,-1.65067c0.74054,-0.53159 1.2724,-0.87997 2.30899,-1.49448c0.66867,-0.39639 1.47299,-0.76898 2.16449,-1.3215c0.8056,-0.64368 1.31711,-1.34921 2.06168,-1.64734c0.97766,-0.39145 1.73026,-0.51761 2.52884,-1.05267c0.67853,-0.45462 1.3364,-1.23755 1.92383,-1.70001c0.69257,-0.54526 1.45581,-0.77081 2.48117,-1.24731c0.74265,-0.34512 1.12189,-1.20456 1.47766,-1.85266c0.43674,-0.79559 1.20026,-1.35431 1.284,-2.20001c0.07883,-0.79608 0,-1.70001 0,-2.60001c0,-0.92084 -0.00143,-1.884 0,-2.57465c0.00226,-1.07718 0.07114,-1.79843 0.35266,-2.83517c0.2114,-0.77847 0.43375,-1.29657 0.59018,-2.53751c0.08499,-0.67426 0.03989,-1.87442 0.06784,-2.67801c0.02863,-0.82281 0.19498,-1.858 0.41464,-2.53867c0.27145,-0.84109 0.52286,-1.63501 0.564,-2.47198c0.0582,-1.18396 0.01068,-1.98935 0.01068,-2.53867c0,-1.30402 0,-2 0,-2.90933c0,-1 -0.00055,-1.81601 0,-2.63202c0.00067,-0.99866 -0.02399,-1.88531 0.16666,-2.68399c0.19757,-0.82767 0.60834,-1.67538 0.74802,-2.68399c0.1123,-0.81082 0.08466,-1.63202 0.08533,-2.63068c0.00046,-0.66449 -0.03186,-1.6864 0.01068,-2.48532c0.04272,-0.80237 0.35843,-1.80927 0.59998,-2.50803c0.4097,-1.18515 0.59674,-1.94336 0.77869,-2.77866c0.09436,-0.4332 0.28076,-1.30869 0.444,-2.57999c0.09769,-0.76074 0.15283,-1.79153 0.16217,-2.42435c0.01788,-1.20886 0.00449,-2.10901 0.00449,-2.70898c0,-1.20001 0,-2.10001 0,-2.70001c0,-0.89999 0,-2.09866 0,-2.68933c0,-0.85352 0,-1.88916 0,-2.78983c0,-1.02084 0,-1.83151 0,-2.478c0,-1.22684 0,-2.04285 0,-2.59018c0,-1.26733 0,-1.93182 0,-2.95267c0,-0.78934 0,-1.83334 0,-2.6955c0,-0.90451 0,-1.8045 0,-2.7045c0,-0.909 0,-1.57068 0,-2.60983c0,-0.77551 0,-1.82352 0,-2.7435c0,-0.76001 0.00232,-1.72583 0,-2.64667c-0.00226,-0.89551 -0.67206,-1.41098 -0.97916,-2.14166c-0.36523,-0.86896 -0.02084,-1.633 -0.02084,-2.70117c0,-0.85718 0,-1.75717 0,-2.51434c0,-0.90448 0,-1.7045 0,-2.66467c0,-0.83548 0,-1.797 0,-2.9115c0,-0.83466 0,-1.71732 0,-2.16666c0,-0.89465 0,-2.16666 0,-2.92932c0,-1.02902 0,-1.66168 0,-2.87051c0,-0.59567 0.00607,-1.4642 0,-2.53351c-0.00534,-0.94135 -0.02255,-1.62582 -0.22134,-2.5885c-0.17392,-0.84225 -0.41095,-1.45172 -0.612,-2.9115c-0.11423,-0.82944 -0.11929,-1.26715 -0.14581,-2.14581c-0.02591,-0.85809 -0.02084,-2.02084 -0.02084,-2.94485l0,-0.90533l0,-0.90448l0,-0.05716" id="svg_10" stroke-width="2" stroke="#000" fill="none"/>
  <path t="22372,22382,22382,22382,22382,22382,22382,22382,22382,22396,22396,22396,22411,22411,22425,22425,22425,22442,22442,22442,22442,22442,22442,22459,22459,22459,22459,22459,22459,22475,22475,22475,22475,22475,22492,22492,22492,22492,22492,22492,22509,22509,22509,22509,22509,22509,22525,22525,22525,22525,22525,22542,22542,22542,22542,22542,22559,22560,22560,22560,22560,22575,22575,22576,22576,22576,22576,22592,22592,22592,22592,22609,22609,22609,22625,22625,22625,22625,22642,22642,22642,22642,22642,22659,22659,22659,22659,22660,22675,22675,22675,22675,22692,22692,22692,22692,22692,22708,22708,22708,22708,22725,22725,22725,22725,22742,22742,22742,22742,22743,22743,22758,22758,22758,22758,22775,22775,22775,22776,22792,22792,22792,22793,22808,22808,22808,22808,22825,22825,22825,22842,22842,22842,22843,22858,22858,22859,22875,22876,22876,22876,22899,22900,22900,22908,22925,22943,22971,22979,23031,23064,23064" d="m457,226c5.33334,17.33333 5.70749,18.45793 6.05734,19.43201c0.30399,0.84633 0.5824,1.57294 0.8385,2.19299c0.2207,0.53433 0.61136,1.38406 1.21881,2.60434c0.36322,0.72963 0.68399,1.36801 1.18533,2.37067c0.30002,0.59999 0.81155,1.59528 1.11069,2.24266c0.36032,0.77975 0.75983,1.82259 1.07465,2.69734c0.17398,0.4834 0.53528,1.52258 0.72534,2.06665c0.1936,0.55426 0.78775,2.22726 0.98917,2.77167c0.39258,1.06113 0.5921,1.57404 0.96417,2.57501c0.18008,0.48453 0.67249,1.879 0.81467,2.32516c0.27478,0.8624 0.50873,1.70465 0.77399,2.517c0.39532,1.21075 0.73029,2.00818 0.90451,2.41351c0.3588,0.83475 0.75214,1.70328 0.94415,2.16165c0.61392,1.46564 0.80475,1.99472 1.18802,3.07999c0.19354,0.54803 0.38251,1.09619 0.72534,2.18134c0.32614,1.03235 0.60526,1.99591 0.84933,2.89603c0.23029,0.8493 0.33252,1.2627 0.63599,2.47198c0.20071,0.7998 0.40002,1.60001 0.60001,2.39999c0.20001,0.80002 0.50272,1.99966 0.69998,2.80902c0.20279,0.83197 0.40338,1.70459 0.5,2.16165c0.31067,1.46957 0.40445,1.995 0.58936,3.06934c0.09271,0.53867 0.25928,1.59671 0.32532,2.10666c0.17963,1.38687 0.24368,2.18124 0.27466,3.22134c0.01871,0.62778 0.01068,1.83331 0.01068,2.75284c0,0.63632 0.00943,1.6459 -0.00449,2.73633c-0.00974,0.76379 -0.01929,1.55087 -0.16217,2.74283c-0.09625,0.80301 -0.26175,1.60172 -0.444,2.39999c-0.18304,0.80179 -0.48935,2 -0.58936,2.39999c-0.20001,0.80002 -0.39996,1.60001 -0.59998,2.40002c-0.29999,1.19998 -0.5,2 -0.70001,2.79999c-0.20001,0.79999 -0.49905,2.00024 -0.70001,2.79868c-0.19904,0.79089 -0.39456,1.5668 -0.59998,2.31598c-0.29233,1.06616 -0.60114,2.05966 -0.80002,2.71069c-0.20111,0.65833 -0.49973,1.69644 -0.7045,2.43631c-0.21591,0.78012 -0.43268,1.60645 -0.86215,2.905c-0.30457,0.92081 -0.48154,1.38507 -0.85419,2.3125c-0.18536,0.4613 -0.55399,1.36478 -1.17899,2.57785c-0.37976,0.73709 -0.78787,1.39651 -1.14301,2.034c-0.50269,0.90231 -0.90308,1.8096 -1.15717,2.409c-0.38187,0.90091 -0.81274,1.80511 -1.15717,2.40451c-0.53986,0.93945 -0.95743,1.57327 -1.54266,2.61667c-0.40491,0.72189 -0.78192,1.45667 -1.14301,2.16898c-0.49408,0.9747 -0.74271,1.55606 -1.15717,2.26819c-0.62207,1.06888 -1.15845,1.64505 -1.71066,2.27765c-0.39157,0.44855 -1.19122,1.44662 -1.58932,1.98935c-0.40192,0.54791 -1.19681,1.61066 -1.59869,2.09067c-0.5759,0.68784 -1.17502,1.3349 -1.71466,2.36667c-0.27048,0.51715 -0.42166,1.3392 -0.83398,2.49847c-0.27087,0.76154 -1.03403,1.2543 -1.05267,2.11884c-0.01938,0.89847 -0.35718,1.64734 -1.20001,1.98401l-0.59998,0.43201" id="svg_11" stroke-width="2" stroke="#000" fill="none"/>
  <path t="24392,24402,24402,24402,24402,24402,24402,24402,24402,24417,24417,24417,24442,24442,24442,24458,24458,24458,24458,24458,24458,24477,24477,24477,24477,24495,24495,24495,24539,24539,24547,24560,24575,24592,24592,24592,24608,24608,24608,24608,24608,24625,24625,24625,24625,24642,24642,24642,24658,24658,24658,24675,24675,24692,24692,24708,24708,24708,24725,24725,24742,24742,24758,24758,24758,24775,24775,24795,24808,24825,24825,24842,24842,24842,24842,24858,24858,24858,24875,24875,24875,24875,24892,24892,24892,24908,24908,24908,24925,24925,24925,24942,24942,24958,24958,24958,24975,24975,24975,24975,24992,24992,25008,25008,25008,25008,25025,25025,25025,25042,25042,25042,25058,25058,25058,25075,25075,25075,25075,25092,25092,25092,25108,25108,25125,25125,25142,25142,25142,25158,25158,25177,25192,25192,25208,25208,25208,25267,25283,25300" d="m422,414c8.66666,16.5 9.22858,17.57678 9.716,18.51733c0.42279,0.81583 0.78598,1.521 1.0965,2.12851c0.26672,0.52188 0.69174,1.36337 1.16599,2.31116c0.38574,0.7709 0.82907,1.63596 1.22284,2.44833c0.32693,0.67447 0.69458,1.53204 1.12,2.68018c0.16684,0.45029 0.50507,1.42612 0.67868,1.93533c0.34943,1.02493 0.51617,1.52844 0.97849,2.91464c0.26447,0.79297 0.50064,1.50201 0.82019,2.46051c0.3013,0.90366 0.57147,1.7944 0.90134,2.58966c0.36728,0.88547 0.80389,2.05536 1.68933,1.96768c0.75311,-0.07458 0.52509,-1.42157 1.05365,-2.27518c0.36124,-0.58337 0.99332,-1.17786 1.55701,-2.01151c0.42084,-0.62238 0.80167,-1.32706 1.20001,-2.052c0.4017,-0.73105 0.99075,-1.79868 1.39999,-2.453c0.39124,-0.62555 0.97958,-1.49142 1.60001,-2.24014c0.58127,-0.70145 1.19885,-1.31815 1.79999,-1.92151c0.59439,-0.59659 1.14059,-1.18811 1.97867,-1.97833c0.62961,-0.59363 1.50937,-0.92096 2.23199,-1.047c0.99362,-0.17331 1.79242,-0.48901 2.38934,-0.776c1.00531,-0.48331 1.7858,-0.89645 2.60001,-1.07733c0.78989,-0.17548 1.80475,-0.27371 2.59998,-0.54666c0.80508,-0.27631 1.80814,-0.45462 2.54285,-0.62735c0.92349,-0.2171 2.0097,-0.50031 2.53568,-1.16931c0.41064,-0.52231 0.12149,-1.83267 0.12149,-2.47534c0,-0.69867 0.00937,-1.42136 -0.00134,-2.81735c-0.00497,-0.64938 -0.01825,-1.58615 -0.16531,-2.48532c-0.14835,-0.90695 -0.42795,-1.79565 -0.54935,-2.39999c-0.23959,-1.19275 -0.26837,-2.10159 -0.33667,-2.70001c-0.13736,-1.20383 -0.37753,-2.08807 -0.522,-2.664c-0.2677,-1.06711 -0.36755,-2.00485 -0.478,-2.6315c-0.17917,-1.01642 -0.58463,-1.82532 -0.78067,-2.77115c-0.16196,-0.78143 -0.16132,-1.64398 -0.16666,-2.83334c-0.00269,-0.59866 0.00055,-1.47916 0,-2.31467c-0.00067,-1.00266 -0.00308,-1.95117 -0.16666,-3.01868c-0.09775,-0.63794 -0.26935,-1.31509 -0.48068,-2.36133c-0.19592,-0.97003 -0.25952,-1.79663 -0.40533,-2.69632c-0.13223,-0.81592 -0.4866,-1.61835 -0.66333,-2.29434c-0.25827,-0.98792 -0.26349,-1.85837 -0.36801,-2.80133c-0.11499,-1.03726 -0.26129,-1.76425 -0.43683,-2.49249c-0.17206,-0.7139 -0.57669,-1.9787 -0.8685,-2.74884c-0.2515,-0.66376 -0.55826,-1.66962 -0.59998,-2.47202c-0.05191,-0.99887 0.02957,-1.83026 -0.17734,-2.96664c-0.14392,-0.79034 -0.38803,-1.29849 -0.66669,-2.5c-0.18188,-0.78418 -0.09171,-1.65665 -0.33331,-2.5c-0.2525,-0.88147 -0.71277,-1.82709 -0.79733,-2.62268c-0.07675,-0.72211 -0.03601,-1.68982 -0.04669,-2.60001l-0.564,-0.63599" id="svg_12" stroke-width="2" stroke="#000" fill="none"/>
  <path t="26898,27292,27316,27328,27344,27360,27360,27360,27375,27375,27375,27375,27393,27393,27393,27408,27408,27408,27408,27425,27425,27425,27442,27442,27442,27442,27458,27458,27458,27458,27475,27475,27475,27475,27492,27492,27492,27492,27492,27508,27508,27508,27508,27508,27508,27525,27525,27525,27525,27525,27542,27542,27542,27542,27542,27558,27558,27558,27558,27558,27558,27575,27575,27575,27575,27592,27592,27592,27592,27608,27608,27608,27608,27609,27625,27625,27625,27625,27625,27642,27642,27642,27642,27642,27658,27658,27658,27658,27675,27675,27675,27675,27692,27692,27692,27692,27693,27693,27708,27708,27708,27708,27725,27725,27725,27742,27742,27742,27742,27758,27758,27758,27776,27776,27776,27776,27792,27792,27792,27792,27792,27808,27808,27808,27809,27825,27825,27825,27825,27842,27842,27843,27843,27858,27858,27858,27859,27875,27876,27876,27876,27893,27893,27893,27908,27909,27909,27925,27942,27943,27958,28096,28227" d="m192,235c0,1.8 -0.14491,2.71707 0.02083,3.5c0.18024,0.85138 0.84125,1.66141 0.95384,2.35733c0.14714,0.90936 0.24376,1.78609 0.45067,2.804c0.14726,0.72443 0.32544,1.45126 0.45316,2.51717c0.11768,0.98218 0.11617,1.61081 0.12151,2.8215c0.00397,0.89998 0,1.5 0,2.39999c0,1.20001 0,1.8 0,2.70001c0,1.20016 0,1.80449 0,2.73599c0,0.64932 0,1.68552 0,2.79999c0,0.77469 0,1.56534 0,2.76401c0,0.80002 0,1.60001 0,2.39999c0,1.20001 0.00389,2.00275 -0.01067,2.82135c-0.00748,0.42038 -0.02531,1.2948 -0.15601,2.71201c-0.04704,0.5101 -0.18529,1.57208 -0.25867,2.11731c-0.1479,1.09888 -0.24239,1.64172 -0.40799,3.216c-0.05151,0.48972 -0.11911,1.41867 -0.14584,2.29169c-0.02548,0.8324 -0.02083,2.04166 -0.02083,2.84433c0,0.81866 0,1.66931 0,2.56799c0,0.96268 0,1.996 0,2.53018c0,1.07831 0,1.61249 0,2.64581c0,1.38901 0,2.18634 0,2.91168c0,0.68533 0,1.70831 0,2.79883c0,0.76367 -0.00099,1.54733 0,2.74283c0.00067,0.80133 -0.00061,1.61108 0.036,2.436c0.03772,0.84991 0.1169,1.73254 0.24934,2.64801c0.13649,0.94348 0.22672,1.41772 0.41916,2.36331c0.28264,1.3887 0.49377,2.26642 0.5955,2.69101c0.19667,0.8208 0.3905,1.60266 0.7,2.69501c0.28673,1.01202 0.5118,1.63806 0.71466,2.56534c0.19591,0.89548 0.26007,1.83459 0.34668,2.50931c0.09622,0.74963 0.37427,2.05798 0.50932,2.54401c0.28578,1.02847 0.45718,1.55298 0.83833,2.59c0.18692,0.50854 0.77481,1.90158 1.18651,2.68201c0.36945,0.70035 0.76181,1.29669 1.38316,2.35468c0.40552,0.69049 0.75836,1.38333 1.34283,2.34265c0.327,0.53671 0.87607,1.36304 1.27983,1.89468c0.77402,1.0192 1.21028,1.44855 1.79866,2.13666c0.81668,0.95511 1.20169,1.51016 1.64168,2.06818c0.46501,0.58975 1.2773,1.49478 1.92766,2.07782c0.67744,0.6073 1.04431,0.88992 1.7825,1.44418c1.07126,0.80432 1.76253,1.27039 2.4015,1.72116c0.60095,0.42395 1.68565,1.22925 2.16266,1.63599c0.69235,0.59036 1.11595,1.02579 2.10567,1.80002c0.5293,0.41406 1.41846,1.01065 2.065,1.39999c1.02441,0.61688 1.75949,0.99933 2.49251,1.37915c0.70908,0.3674 1.68884,0.85153 2.2515,1.13684c0.75031,0.38046 1.45889,0.75665 2.45334,1.36801c0.54517,0.33514 1.35669,0.87421 2.14932,1.34933c0.69928,0.41919 1.51469,0.84781 2.4095,1.46216c0.76566,0.5257 1.45717,0.75717 2.25717,1.2045l0.7955,0.44733l0.65784,0.46735" id="svg_13" stroke-width="2" stroke="#000" fill="none"/>
  <path t="29625,29645,29657,29657,29677,29694,29710,29710,29725,29742,29742,29759,29759,29844,29872,29904,29920,29927,29927,29944,29960,29960,29977,29977,29994,29994,29994,30010,30010,30025,30110,30120,30133,30158,30175,30175,30192,30192,30208,30208,30225,30225,30272,30307,30339,30356,30367,30383,30392,30392,30408,30425,30442,30467,30479,30479,30492,30508,30525,30592,30592" d="m250,236c5.07133,-0.94284 6,-1 6.79999,-1c0.90002,0 1.74026,0.04195 2.68402,-0.284c0.70825,-0.24461 1.677,-0.50484 2.51599,-0.88268c0.68896,-0.31027 1.49832,-0.67813 2.34732,-0.886c0.91733,-0.22461 1.88586,-1.32443 2.53119,-0.72583c0.65021,0.60313 0.12149,1.7785 0.12149,2.57851c0,0.836 -0.00061,1.68533 0,2.60449c0.00067,0.9955 -0.03568,1.81148 0.22134,2.7955c0.16016,0.61316 0.57666,1.38481 0.7215,2.39551c0.13065,0.91154 0.30112,1.92238 0.05267,2.7c-0.26212,0.82045 -0.95554,1.38676 -1.64218,1.72983c-0.7851,0.39226 -1.54181,0.63417 -2.55316,0.85316c-0.76801,0.16631 -1.77884,0.12151 -2.68417,0.12151c-0.94135,0 -1.63199,0 -2.70532,0c-0.91068,0 -1.84692,0.24773 -2.70618,-0.0045c-0.77208,-0.22662 -1.11337,-1.1228 -1.53783,-1.9955c-0.32085,-0.65967 -0.85287,-1.42236 -1.10951,-2.3c-0.25311,-0.86555 -0.05716,-1.8 -0.05716,-2.7c0,-0.8 0,-1.7 0,-2.60001l0,-0.92082l0,-0.96317l0,-0.69067" id="svg_14" stroke-width="2" stroke="#000" fill="none"/>
  <path t="31521,31544,31544,31544,31544,31544,31544,31544,31544,31544,31592,31592,31592,31592,31592,31592,31592,31592,31604,31604,31628,31660,31660,31660,31677,31677,31677,31677,31693,31693,31709,31709,31728,31728,31746,31760,31775,31791,31791,31791,31808,31808,31808,31824,31825,31825,31841,31841,31858,31858,31875,31875,31895,31911,31927,31943,31958,31975,31975,31991,32008,32008,32025,32041,32041,32041,32058,32058,32058,32075,32075,32091,32108,32108,32151,32151,32151" d="m379,223c0.83334,3.66667 1.10464,4.6418 1.42133,5.74266c0.34412,1.1962 0.71301,2.4529 1.09952,3.73651c0.38553,1.2804 0.76385,2.52393 1.1445,3.6915c0.6524,2.00116 0.93668,2.76874 1.19333,3.37866c0.20322,0.48291 0.38144,0.84929 0.55798,1.0965c0.12952,0.18135 0.25854,0.31564 0.58334,0.35417c0.79443,0.09422 1.64801,0.00195 2.48932,-0.28534c0.84308,-0.28789 1.36218,-0.53639 2.37451,-0.81467c0.78546,-0.21591 1.62045,-0.38037 2.42099,-0.59999c1.33871,-0.36725 1.92789,-0.82167 2.88184,-1.13333c0.80417,-0.26274 1.81216,-0.14507 2.52884,-0.16667c0.94861,-0.02859 1.35999,-0.81946 1.82535,-1.52083c0.54636,-0.82344 1.00812,-1.50479 1.19382,-2.16583c0.27548,-0.98055 0.27359,-1.83401 0.284,-2.71468c0.01062,-0.89844 0.00134,-1.78799 0.00134,-2.64149c0,-1.03551 0,-1.9155 0,-2.7905c0,-0.91934 0.00955,-1.81938 0,-2.68268c-0.01044,-0.94249 -0.52069,-1.47357 -1.5,-1.48399c-0.89993,-0.00957 -1.85007,0.13168 -2.60001,-0.22133c-0.77551,-0.36504 -1.53592,-0.77333 -2.384,-0.77867c-0.86328,-0.00543 -1.76782,-0.0036 -2.84933,0c-0.67648,0.00226 -1.46442,-0.04063 -2.5,0.16667c-0.94714,0.18961 -1.5437,0.56332 -2.56534,0.748c-0.75668,0.1368 -1.84866,0.08533 -2.76797,0.08533c-0.66934,0 -1.83334,0 -2.62268,0l-0.72534,0" id="svg_15" stroke-width="2" stroke="#000" fill="none"/>
  <path t="33431,33451,33451,33451,33451,33451,33451,33467,33467,33475,33490,33490,33507,33507,33507,33524,33524,33524,33524,33524,33540,33540,33540,33540,33540,33540,33557,33557,33557,33558,33558,33574,33574,33574,33574,33591,33591,33591,33591,33607,33608,33608,33608,33608,33624,33624,33624,33624,33625,33625,33640,33640,33640,33640,33640,33657,33657,33657,33657,33657,33675,33675,33675,33691,33691,33691,33691,33707,33708,33708,33724,33725,33725,33725,33725,33725,33740,33740,33741,33741,33757,33757,33758,33758,33774,33775,33775,33775,33775,33790,33790,33791,33791,33807,33808,33808,33808,33808,33824,33825,33825,33840,33841,33841,33841,33857,33858,33858,33858,33874,33875,33875,33890,33891,33908,33908,33924,33940,33940,33957,33974,33991,33991" d="m249,130c7.83334,-16.16666 8.3403,-17.13926 8.80133,-17.94666c0.38647,-0.67686 0.96204,-1.72008 1.51001,-2.2625c0.72183,-0.71452 1.54187,-0.79884 2.28867,-1.4015c0.65671,-0.52994 1.20197,-1.16282 1.94299,-1.71084c0.71741,-0.53056 1.27631,-0.8922 2.457,-1.6785c0.60297,-0.40155 1.22351,-0.81471 1.90799,-1.2c0.7392,-0.41608 1.58667,-0.813 2.54535,-1.19867c0.50644,-0.20374 1.56619,-0.58441 2.10666,-0.76534c1.07077,-0.35844 2.10538,-0.67371 3.06799,-0.95067c0.45261,-0.13023 1.31003,-0.36255 2.10583,-0.58083c1.10025,-0.3018 2.11093,-0.60935 2.76617,-0.78366c0.65027,-0.17299 2.02075,-0.40842 2.75717,-0.46817c0.76297,-0.0619 1.55081,-0.07349 2.74283,-0.21933c0.80557,-0.09856 1.62375,-0.27006 2.47198,-0.48c0.44366,-0.10981 1.86166,-0.51897 2.3707,-0.6745c1.06329,-0.32487 1.60544,-0.50217 2.70667,-0.8175c0.5441,-0.1558 2.1156,-0.53789 2.60767,-0.6185c0.92578,-0.15166 1.80188,-0.21575 2.63397,-0.291c1.20987,-0.10941 2.00867,-0.23048 2.79834,-0.37717c0.7757,-0.14409 1.5206,-0.32535 2.58917,-0.45317c0.98221,-0.11749 1.61081,-0.11617 2.8215,-0.1215c0.60001,-0.00264 1.5,0 2.39999,0c0.90033,0 1.82135,0 2.47202,0c1.46133,0 1.87082,0 2.73782,0c0.91101,0 1.84201,-0.00003 2.3075,0c1.36099,0.00008 2.22131,-0.00642 3.04102,0.02084c0.78043,0.02594 1.88062,0.11789 2.89349,0.33633c0.67325,0.1452 1.35483,0.35971 2.48151,0.64283c0.8324,0.20917 1.7175,0.39914 2.616,0.6c0.4454,0.09957 1.71964,0.39136 2.48132,0.6c1.05182,0.28811 1.71533,0.50742 2.73599,0.8c0.71588,0.20522 1.45895,0.39899 2.20801,0.6c0.74161,0.19901 2.13815,0.60514 2.78934,0.78934c0.92892,0.26276 1.83389,0.46217 2.74051,0.558c0.61514,0.06502 1.58478,0.1095 2.61667,0.27416c0.73032,0.11653 1.46548,0.27259 2.50949,0.57983c0.93365,0.27476 1.67816,0.64476 2.56665,0.91334c0.98108,0.29657 1.77966,0.24992 2.65002,0.638c0.66949,0.29852 1.62946,0.44255 2.586,0.814c0.78851,0.30621 1.14133,1.23334 1.452,2.03201l0.71466,0.63467l0.71466,0.25066" id="svg_16" stroke-width="2" stroke="#000" fill="none"/>
  <path t="35498,35622,35649,35658,35675,35691,35708,35708,35708,35708,35724,35724,35724,35724,35724,35740,35740,35740,35740,35740,35740,35757,35757,35758,35758,35758,35774,35775,35775,35775,35775,35791,35791,35791,35791,35791,35807,35807,35808,35808,35808,35824,35824,35824,35824,35825,35841,35841,35841,35858,35858,35875,35875,35875,35891,35891,35891,35908,35908,35925,35925,35941,35941,35964,35964,35986,35987,35991,35991,36008,36025,36025,36041,36041,36058,36058,36075,36075,36091,36091,36091,36108,36108,36125,36125,36141,36141,36158,36175,36175,36191,36212,36225,36241,36276,36300" d="m337,5c1.79999,0 2.80127,-0.37143 3.564,0.036c0.73041,0.39015 0.87015,1.38679 1.60266,2.13067c0.49567,0.50335 1.14026,1.0948 1.69067,1.52c0.98651,0.76208 1.80664,1.27281 2.22934,1.56c0.8764,0.59547 1.34695,0.87303 2.57999,1.92c0.40204,0.34137 1.12427,1.08125 1.46133,1.45867c0.66107,0.74017 0.94946,1.1335 1.87201,2.208c0.5914,0.68881 1.19672,1.33384 1.79999,1.956c0.2984,0.30774 1.20001,1.21067 1.80002,1.81067c0.60001,0.6 1.20004,1.19994 1.79999,1.8c0.89993,0.90008 1.50272,1.49776 2.07916,2.12083c0.28848,0.31183 0.87125,0.93908 1.59952,2.00067c0.49344,0.71928 0.91977,1.50023 1.37399,2.283c0.23053,0.39729 0.96271,1.59906 1.49551,2.3865c0.26361,0.38961 0.79678,1.13264 1.28247,1.83834c0.63458,0.92204 1.10989,1.69201 1.56668,2.568c0.4155,0.79678 0.80121,1.62881 1.36932,2.40267c0.45694,0.62243 1.04465,1.17119 1.66669,2c0.43604,0.58098 0.85757,1.40233 1.36667,2.39867c0.29733,0.58187 0.8042,1.43153 1.29999,2.10133c0.60516,0.81754 0.96594,1.5214 1.5,2.33333c0.45117,0.68592 0.78119,1.51489 1.06134,2.34134c0.28561,0.8426 1.12418,1.13461 1.76932,2.02533c0.50897,0.70273 0.81543,1.41244 1.36935,2.284c0.4281,0.6736 0.87247,1.51812 1.39999,2.10533c0.6709,0.74678 1.1636,1.16145 1.884,1.896c0.52069,0.53093 1.07434,1.08638 1.75882,2.11017c0.37003,0.55346 1.05002,1.46424 1.39999,2.15717c0.42834,0.84809 0.23175,1.68109 0.79318,2.61133c0.43924,0.72778 1.25348,1.05343 2.04315,1.636c0.638,0.47066 1.16818,1.05267 1.5195,1.80133l0.00134,0.89867l0.05716,0.94283" id="svg_17" stroke-width="2" stroke="#000" fill="none"/>
  <path t="37749,37769,37769,37769,37769,37769,37769,37769,37790,37790,37827,37827,37843,37843,37843,37844,37844,37844,37860,37860,37875,37875,37891,37891,37908,37925,37941,37958,37975,38004,38032,38274" d="m100,7c6,18 6.37023,19.11293 6.688,20.06133c0.26835,0.80089 0.4817,1.47445 0.848,2.47467c0.24643,0.67291 0.74202,1.66831 1.264,2.26133c0.59698,0.67823 1.03339,1.17711 1.53333,2.036c0.45213,0.77676 0.91708,1.69347 1.16666,2.16667c0.49417,0.93693 0.70472,1.39577 1.35683,2.49267c0.55768,0.93805 0.96607,1.67616 1.14317,2.50733c0.20906,0.9812 0.80016,1.64836 0.97916,2.5c0.18518,0.88099 -0.17406,1.82168 0.02217,2.69867c0.18058,0.80705 0.96266,1.23734 0.99866,2.10133l-0.00134,0.89867" id="svg_18" stroke-width="2" stroke="#000" fill="none"/>
  <path t="39484,39494,39494,39494,39494,39517,39517,39517,39526,39526,39526,39542,39542,39542,39542,39559,39559,39559,39559,39575,39575,39575,39576,39592,39592,39592,39609,39609,39609,39609,39625,39625,39625,39644,39644,39644,39660,39660,39660,39675,39675,39692,39692,39692,39709,39709,39709,39725,39725,39725,39742,39742,39759,39759,39775,39775,39792,39792,39792,39792,39810,39810,39810,39825,39825,39825,39842,39842,39843,39843,39858,39858,39858,39874,39874,39894,39895,39895,39908,39908,39908,39908,39927,39927,39927,39944,39944,39944,39961,39961,39974,39996,39997,40008,40024,40024,40044,40061,40077,40094,40108,40108,40127,40144,40144,40161,40161,40177,40194,40224,40244,40284,40304" d="m151,211c0.00133,2.33733 -0.00154,3.11247 0.036,3.93466c0.03723,0.81531 0.14026,1.91347 0.40001,2.76801c0.2292,0.75407 0.68282,1.71233 0.95332,2.53333c0.18796,0.57047 0.47191,1.76106 0.55351,2.6685c0.0553,0.61493 0.05351,1.58084 0.05733,2.61684c0.0027,0.73135 -0.00385,1.48026 0.05699,2.226c0.11713,1.43579 0.29448,2.09573 0.44284,2.73184c0.21454,0.91985 0.42917,2.12115 0.464,2.73149c0.05397,0.94548 0.036,1.95601 0.036,2.672c0,1.09651 -0.00267,1.80751 0,2.78401c0.00226,0.82352 0.0177,1.78897 0.22133,2.75467c0.17114,0.81161 0.46823,1.61742 0.65733,2.65717c0.12387,0.68102 0.16017,1.53339 0.474,2.5215c0.25807,0.81253 0.53801,1.59868 0.64734,2.44167c0.09438,0.72772 0.27588,1.92848 0.436,2.60899c0.16495,0.70102 0.55286,2.02008 0.76266,2.57733c0.34705,0.92177 0.64188,1.76024 0.854,2.52466c0.25482,0.91824 0.64162,1.64032 0.86465,2.64868c0.18292,0.827 0.39259,1.77689 0.79251,2.55582c0.29404,0.57272 0.6813,1.12753 1.26866,2.34268c0.28362,0.58673 0.59142,1.47183 1.0215,2.53351c0.29144,0.71942 0.61708,1.40292 1.16667,2.33331c0.47,0.79568 0.84091,1.32858 1.34933,2.14935c0.46954,0.758 0.81334,1.45822 1.28265,2.19733c0.57106,0.89935 1.09647,1.44873 1.68668,2.25601c0.54462,0.7449 0.89503,1.30161 1.71466,2.30933c0.38879,0.478 1.00967,1.1384 1.40001,1.60532c0.82071,0.98175 1.17433,1.55124 1.79999,2.30618c0.57698,0.69623 1.39197,1.33386 1.94284,1.70084c0.90436,0.60248 1.45616,1.10864 2.15717,1.80899c0.70033,0.69968 1.19995,1.20004 1.89999,1.89999c0.69997,0.69986 1.19376,1.17715 2.10001,1.60001c0.79022,0.36871 1.1019,1.29538 1.7215,1.87866c0.60439,0.56897 1.47963,0.82471 2.07851,1.42133c0.70132,0.6987 1.27826,1.32263 1.89999,1.89868c0.58051,0.53784 1.63559,0.68024 2.27917,1.32217c0.64084,0.63922 0.94617,1.45383 1.5,2l0.02083,0.87915" id="svg_19" stroke-width="2" stroke="#000" fill="none"/>
 </g>
 <g display="none">
  <title>muse_image</title>
  <image xlink:href="http://farm1.static.flickr.com/1/124356683_1630a5efd2.jpg" id="muse" height="456" width="640" y="12" x="0"/>
 </g>
 <g display="none">
  <title>bbox</title>
  <rect stroke="#f00" fill="none" stroke-width="3" height="411.29412" width="403.2" y="14.55462" x="93.44" id="bbox"/>
 </g>
</svg>
