<svg width="640" height="480" xmlns="http://www.w3.org/2000/svg" xmlns:svg="http://www.w3.org/2000/svg" xmlns:xlink="http://www.w3.org/1999/xlink">
 <!-- Sketchy ANNOTATION
  ImageNet ID: n02395406_33519
  URL: http://farm1.static.flickr.com/49/169690365_3d580daf04.jpg
  Image Width: 500
  Image Height: 382
  BBox X: 94
  BBox Y: 96
  BBox Width: 312
  BBox Height: 190
  Exposure: 2000ms
  Synset Label: pig
  Synset ID: n02395406
  Worker Tag: black boar hog
  Sanity Check: 
   Context
   Saved
   Shading
  Comment: 
   {}
  Worker ID: A2HM35CWB7IIFM
  Assignment ID: 3J4Q2Z4UTY3M840821QZBZC8H4EQWI
  HIT ID: 3T5ZXGO9DEOOFF7JNM54LJB5YLNQZX
  Work Time: 123s
  Worker Score: 0.8571
 END ANNOTATION -->
 <g display="inline">
  <title>Layer 1</title>
  <path t="0,179,180,195,195,196,196,210,210,211,211,216,216,216,216,216,216,231,231,232,232,232,232,232,240,240,241,241,241,253,253,253,253,263,263,263,275,275,275,287,287,304,312,323,323,336,354,354,361,361,361,373,373,385,386,386,403,403,403,403,411,411,411,423,423,435,436,436,452,460,460,472,493,505,509,521,535,558,570,570,586,595,620,644,890,916,928,928,953,953,969,977,1001,1038,1038,1100,1125,1141,1162,1198,1211,1223,1235,1254,1259,1272,1272,1285,1286,1302,1302,1309,1320,1336,1357,1383,1383,1395,1395,1407,1418,1435,1445,1445,1445,1456,1456,1456,1456,1469,1469,1469,1486,1486,1493,1493,1505,1506,1519,1536,1543,1543,1554,1554,1569,1569,1570,1579,1579,1591,1592,1604,1604,1619,1619,1619,1629,1629,1641,1641,1702" d="m242,229.89999c-2.60451,-1.30449 -3.24855,-1.61455 -4.16667,-2.16666c-0.79277,-0.47673 -1.36496,-0.8185 -2.064,-1.52c-0.68179,-0.6842 -1.1221,-1.56464 -1.384,-2.196c-0.28339,-0.68315 -0.7072,-1.86053 -1.0425,-2.74066c-0.17903,-0.46992 -0.55533,-1.46933 -0.74733,-2c-0.19875,-0.54932 -0.79692,-2.31871 -0.9955,-2.94334c-0.20146,-0.6337 -0.39856,-1.27379 -0.60001,-1.91249c-0.39716,-1.25923 -0.58197,-1.87392 -1,-3.02084c-0.38226,-1.04878 -0.5889,-1.52686 -0.97917,-2.41666c-0.35762,-0.81534 -0.86642,-1.91176 -1.13416,-2.59801c-0.25162,-0.64491 -0.56393,-1.5733 -0.72,-2.48534c-0.15225,-0.88979 -0.12154,-1.7757 -0.33334,-2.83333c-0.1434,-0.71606 -0.48032,-1.54486 -1.03333,-2.28133c-0.54634,-0.72758 -1.25438,-1.44795 -2,-1.80133c-0.85887,-0.40706 -1.44603,-0.84843 -2.2,-1.47334c-0.65771,-0.54514 -1.57076,-0.60031 -2.36934,-0.612c-0.75166,-0.011 -1.58041,0.03304 -2.7735,-0.36034c-0.67099,-0.22124 -1.46048,-0.80089 -2.06168,-1.291c-0.63503,-0.51768 -1.55161,-1.20135 -2.34816,-1.59467c-0.54054,-0.26689 -1.39503,-0.5867 -2.362,-1.23534c-0.68887,-0.4621 -1.26172,-0.99869 -2.28084,-1.41649c-0.73315,-0.30057 -1.5369,-0.94318 -1.88367,-1.60085c-0.33698,-0.63908 -1.10602,-1.39069 -1.72083,-2.06799c-0.47429,-0.52251 -1.1356,-1.27486 -1.77467,-1.85733c-0.58594,-0.53406 -1.41846,-0.86464 -1.90399,-1.6745c-0.43753,-0.72978 -0.93526,-1.32404 -1.40668,-2.10017c-0.41081,-0.67636 -1.12614,-1.18582 -1.63066,-1.99866c-0.45708,-0.73639 -0.96872,-1.88716 -1.65866,-1.71867c-0.84573,0.20653 -0.42534,1.75067 -0.42534,2.54266c0,0.85867 0,1.722 0,2.73868c0,0.836 0.22302,1.80783 -0.16667,2.63599c-0.35686,0.75839 -1.23239,1.08099 -1.886,1.64734c-0.60019,0.52007 -1.06442,1.1346 -1.52199,1.95267c-0.43198,0.77231 -1.20012,1.33661 -1.42084,2.10451c-0.24738,0.86066 0.05334,1.72478 -0.22583,2.61699c-0.22481,0.71848 -0.66339,1.67169 -0.74268,2.46783c-0.10353,1.03949 -0.036,1.8 -0.036,2.71066c0,0.90001 0,1.8 0,2.70134c0,0.96533 0,1.79866 0,2.77716c0,0.71701 0,1.62151 0,2.5215c0,0.92134 0,1.83334 0,2.51434c0,0.80699 0,1.98566 0,2.88567c0,0.59999 0,1.5 0,2.69867c0,0.59067 0,1.44417 0,2.71599c0,0.66451 0,1.68533 0,2.47467c0,1.04401 -0.16943,1.81985 0.02083,2.71066c0.18127,0.84868 1.02034,1.46353 1.57918,2.136c0.54227,0.65253 0.83495,1.43829 1.56667,2.19734c0.58601,0.60789 1.42323,0.97687 1.71899,1.82384c0.24881,0.71252 0.05981,1.74721 0.15033,2.54283c0.11496,1.01051 0.53827,1.77823 0.79733,2.79999c0.19966,0.78748 0.20502,1.6134 0.51933,2.60001c0.1942,0.60957 0.52583,1.59984 0.62651,2.37917l0.021,0.99918" id="svg_1" stroke-width="2" stroke="#000" fill="none"/>
  <path t="3049,3318,3342,3366,3380,3403,3416,3431,3448,3452,3463,3463,3475,3475,3487,3488,3503,3503,3503,3512,3512,3524,3524,3536,3536,3552,3552,3561,3574,3574,3574,3586,3603,3603,3610,3623,3623,3637,3652,3652,3660,3671,3672,3687,3702,3702,3709,3709,3721,3721,3737,3737,3746,3746,3747,3758,3770,3796,3796,3807,3819,3836,3856,3882,3906,3906" d="m196,228.89999c-1.7,0 -2.72275,-0.14597 -3.38933,0.436c-0.6982,0.60957 -1.23354,1.31383 -1.58984,2.08484c-0.36458,0.78891 -0.66759,1.28401 -1.31633,1.84084c-0.73463,0.63054 -0.53064,1.50369 -0.87117,2.47166c-0.25052,0.71211 -0.98662,1.46172 -1.3125,2.1875c-0.4265,0.94987 -0.44298,1.78812 -0.60483,2.57916c-0.20692,1.01135 -0.58403,1.76744 -1.116,2.51601c-0.46893,0.65987 -0.9852,1.37679 -1.40001,2.05865c-0.57957,0.95273 -1.06227,1.56105 -1.81065,2.22534c-0.72182,0.64072 -1.47946,0.90274 -2.02,1.39999c-0.74489,0.68523 -1.32272,1.43704 -1.864,1.90001c-0.72835,0.62299 -1.17555,1.36317 -1.85468,1.89999c-0.71223,0.56299 -0.97247,1.60855 -1.55516,2.04283c-0.79256,0.5907 -1.56915,0.88846 -1.93834,1.709c-0.38634,0.85867 -0.66496,1.69977 -1.0045,2.40533c-0.41136,0.85486 -0.34598,1.66302 -0.63666,2.64282c-0.2421,0.81604 -0.63637,1.79587 -0.69518,2.60001c-0.07295,0.99756 0.07729,1.80896 -0.10616,2.51468c-0.26411,1.01611 -0.70369,1.73898 -1.136,2.58533c-0.33473,0.65533 -0.43062,1.58051 -0.7995,2.37918c-0.35614,0.77109 -1.03185,1.22531 -1.5,2.02081l-0.67917,0.70001l-0.5,0.5" id="svg_2" stroke-width="2" stroke="#000" fill="none"/>
  <path t="4611,4793,4793,4805,4805,4805,4824,4824,4824,4824,4836,4836,4836,4836,4841,4841,4867,4867,4890,4890,4953,4953,4989,5013,5038,5038,5064,5087,5088,5103,5103,5103,5112,5112,5112,5124,5125,5137,5153,5153,5162,5162,5186,5203,5223,5237,5254,5260,5273,5273,5287,5287,5303,5303,5310,5310,5321,5321,5335,5335,5351,5352,5358,5382,5408,5408,5432,5482,5483,5496,5518" d="m165,275.89999c-1.41066,0.87201 -1.85834,1.62366 -2.48534,2.40134c-0.51396,0.63748 -0.9427,1.0369 -1.71466,2.02017c-0.41284,0.52585 -1.00197,1.38785 -1.40001,1.97983c-0.6028,0.89651 -1.00096,1.49063 -1.564,2.36267c-0.35411,0.54846 -0.94344,1.5535 -1.31517,2.19434c-0.51094,0.8808 -1.07162,1.50687 -1.62067,2.36301c-0.41971,0.65445 -0.81348,1.65234 -0.89566,2.37415c-0.10741,0.94327 -0.87596,1.46448 -1.0045,2.3045c-0.12169,0.79529 -0.65054,1.46924 -0.91467,2.48535c-0.18344,0.70569 -0.08533,1.71481 -0.08533,2.53549c0,0.66449 0,1.66318 0,2.47916c0,0.81601 0,2.03833 0,2.83835c0,0.909 0,1.82834 0,2.66165c0,0.97852 0,1.79868 0,2.70001c0,0.89999 0,1.79999 0,2.69998c0,0.90002 0,1.80136 0,2.76669c0,0.65866 0,1.66666 0,2.45865c0,1.03183 0,1.77917 0,2.77466c0,0.80002 0,1.80002 0,2.60001c0,1 0,1.78934 0,2.83334c0,0.75601 0,1.66666 0,2.57733c0,0.91068 0.08598,1.76807 -0.00133,2.70401c-0.08366,0.89673 -0.57333,1.48532 -0.97784,2.38531l-0.02083,0.89999" id="svg_3" stroke-width="2" stroke="#000" fill="none"/>
  <path t="6150,6458,6475,6475,6491,6492,6505,6505,6505,6521,6528,6540,6554,6577,6589,6614,6627,6638,6651,6668,6668,6669,6675,6675,6687,6688,6688,6688,6703,6703,6703,6718,6718,6718,6725,6762,6773,6786,6786,6803,6811,6823,6823,6835,6852,6860,6871,6872,6872,6885,6885,6902,6903,6903,6909,6909,6909,6921,6995,7032,7119,7133,7489,7537,7558,7563,7564,7579,7594,7602,7602,7623,7623,7623,7635,7635,7651,7660,7672,7697,7735,7759,7783,7784,7810,7833,7859,7883,7919,7945,7957,7957,7979,7993,8004,8004,8029,8042,8054,8054,8078,8079,8103,8139,8178,8214,8215,8228,9384" d="m151,336.89999c-1.636,0.61069 -2.32483,1.09415 -3,1.5c-0.98399,0.59149 -1.49023,1.05353 -2.33333,1.5c-0.64674,0.3425 -1.83899,0.44263 -2.41068,1.20001c-0.56366,0.74673 -0.56714,1.56357 -1.20332,2.15265c-0.57559,0.53299 -1.05431,1.2576 -1.75717,1.70001c-0.6642,0.41806 -0.96677,1.36319 -1.65717,1.89465c-0.79102,0.60892 -1.66125,0.56921 -2.23967,0.854c-1.00687,0.49573 -1.64354,0.8194 -2.56534,1.36536c-0.79842,0.47287 -1.34549,0.8483 -1.93784,1.18066c-1.17885,0.66144 -1.78876,0.90112 -2.6595,1.242c-1.06664,0.41757 -1.84248,0.59753 -2.51716,1.11066c-0.75823,0.57669 -1.26962,1.24017 -2.01884,1.65265c-0.83865,0.4617 -1.53709,0.4422 -2.39999,0.7045c-0.8847,0.26892 -1.42139,1.2504 -2.10001,1.6575c-0.73594,0.44147 -1.53652,0.83395 -2.40133,1.20135c-0.91794,0.38998 -1.61665,0.56213 -2.4,0.79999c-0.98508,0.2991 -1.86287,0.30051 -2.82,0.50534c-0.81111,0.17358 -1.34188,0.40579 -2.412,0.612c-0.91245,0.17584 -1.68,0.16599 -2.756,0.16666c-0.91067,0.00055 -1.81067,-0.00067 -2.71067,0c-0.89867,0.00067 -1.67148,0.35571 -1.7,1.20001c-0.03039,0.89948 0.22059,1.76666 0.57467,2.39999c0.48151,0.86127 0.35633,1.83286 0.64683,2.7215c0.23637,0.72305 0.77115,1.68225 1.07851,2.27402c0.3907,0.75223 0.79266,1.64911 1.5,2.11783c0.82269,0.54514 0.77142,1.24133 1.28533,2.00131c0.45129,0.66739 1.47509,0.93896 2.21467,1.58084c0.66669,0.57861 1.46294,0.77484 1.7,1.7045c0.20999,0.82349 0.81512,1.36276 1.35267,1.94733c0.53542,0.58224 1.00045,1.35645 1.64733,2.05267c0.56051,0.60327 0.86556,1.40985 1.0045,2.30002c0.12782,0.81894 0.66983,1.5174 1.02083,2.29999c0.368,0.8205 1.04208,1.5376 1.61067,2c0.80533,0.65494 1.54238,0.95425 2.47733,1.31601c0.76847,0.29736 1.24833,1.03131 2.05333,1.25067l0.8125,0.35416l0.778,0.57901l0.4095,0.73349" id="svg_4" stroke-width="2" stroke="#000" fill="none"/>
  <path t="10482,10727,10744,10744,10759,10759,10773,10773,10799,10799,10811,10823,10886,10909,10923,10923,10947,10947,10947,10982,10998,11021,11042,11058,11069,11085,11094,11107,11118,11136,11136,11136,11144,11144,11144,11155,11155,11155,11155,11168,11168,11168,11169,11184,11185,11185,11192,11192,11204,11229,11229,11242,11253,11267,11285,11291,11303,11325,11325,11330,11331,11344,11451" d="m127,390.89999c2.62534,0 3.48534,0 4.21066,0c0.98917,0 1.95334,0 2.90533,0c0.76801,0 1.70934,0 2.40001,0c1.07333,0 1.98399,0 2.88399,0c0.90451,0 1.76959,0.05267 2.62083,-0.02081c0.98631,-0.08514 1.75302,-0.44659 2.49384,-0.69519c0.94781,-0.31805 2.12743,-0.10156 2.46451,-0.80481c0.37566,-0.78369 0.60336,-1.16678 1.41016,-1.48984c0.78914,-0.31598 1.08786,-1.22223 1.78,-1.70535c0.75226,-0.52512 1.84102,-0.4213 2.64134,-0.72c0.65585,-0.24478 1.6123,-0.66028 2.42532,-0.97464c0.57574,-0.2226 1.7673,-0.74985 2.36401,-1.07202c0.60339,-0.32578 1.47479,-0.87454 2.39999,-1.18399c0.87634,-0.29309 1.77609,-0.33722 2.31467,-0.50134c1.03073,-0.31412 1.6524,-0.86829 2.284,-1.34933c0.9787,-0.74542 1.74092,-1.13062 2.64417,-1.42999c0.8542,-0.28311 1.58134,-0.49316 2.32117,-1.078c0.67822,-0.53613 1.21426,-1.09836 2.03601,-1.54932c0.77997,-0.42804 1.72433,-0.34686 2.56667,-0.59201c0.86177,-0.25082 1.66666,-0.66666 2.52882,-0.82883l0.8045,-0.00452l0.89999,0" id="svg_5" stroke-width="2" stroke="#000" fill="none"/>
  <path t="13572,13766,13780,13795,13810,13820,13820,13827,13827,13839,13852,13852,13876,13876,13876,13888,13913,13927,13927,13938,13951,13969,13975,13986,14001,14017,14018,14023,14024,14036,14036,14051,14051,14051,14061,14061,14061,14073,14073,14086,14086,14102,14102,14111,14111,14124,14124,14124,14137,14137,14153,14154,14154,14159,14159,14159,14171,14172,14172,14172,14185,14185,14185,14185,14185,14185,14185,14201,14201,14201,14201,14201,14201,14201,14201,14209,14209,14209,14209,14209,14209,14209,14220,14220,14220,14221,14221,14235,14235,14235,14251,14251,14251,14257,14257,14270,14270,14270,14284,14285,14295,14295,14295,14307,14307,14307,14318,14318,14319,14319,14319,14335,14335,14335,14335,14335,14335,14345,14345,14346,14346,14346,14346,14346,14355,14355,14356,14356,14356,14356,14368,14368,14369,14369,14384,14384,14384,14384,14393,14393,14406,14406,14418" d="m180,374.89999c1.47917,-1.5 1.78528,-2.44873 2.436,-2.97467c0.73346,-0.5928 1.56868,-0.84308 2.32117,-1.078c0.90149,-0.28146 1.55771,-0.73096 2.61749,-0.91132c0.9341,-0.15897 1.66194,0.02521 2.62534,-0.20267c0.80833,-0.19119 1.48981,-0.66867 2.47917,-0.8125c0.92203,-0.13403 1.86632,0.14432 2.6595,-0.05682c0.8624,-0.21872 1.38199,-0.95358 2.36133,-0.96402c0.89995,-0.00958 1.8,0 2.7,0c0.90018,0 1.68668,0.04089 2.636,-0.01065c0.76784,-0.04169 1.77036,-0.34195 2.39999,-0.60001c0.93347,-0.3826 1.70819,-0.71237 2.53868,-0.95334c1.0491,-0.30441 1.77475,-0.33942 2.62082,-0.48868c1.01512,-0.17911 1.58305,-0.52039 2.60451,-0.78064c0.77707,-0.19797 1.88341,-0.25436 2.47917,-0.6875c0.80258,-0.58353 1.28444,-1.22998 2.00482,-1.96451c0.52071,-0.53091 1.06334,-1.09341 1.632,-1.91467c0.53989,-0.77969 1.04019,-1.60864 1.53667,-2.20001c0.51135,-0.60907 1.18066,-1.39999 1.59917,-2c0.558,-0.79999 1.27782,-1.61737 1.776,-2.00449c0.56142,-0.43625 1.2437,-0.86832 2.47217,-1.56216c0.46136,-0.26059 1.47426,-0.78949 2.01866,-1.05865c0.5629,-0.27829 1.14073,-0.56918 2.37067,-1.09067c1.2688,-0.53796 1.93042,-0.767 2.59467,-0.99869c0.66711,-0.23267 1.34038,-0.45239 2.01601,-0.66449c1.34544,-0.42239 2.01703,-0.61618 3.33333,-1.02084c0.64517,-0.19833 1.28,-0.392 2.49867,-0.79999c0.58597,-0.19617 1.15657,-0.38132 2.21066,-0.80002c0.96425,-0.38303 1.80623,-0.78943 2.54933,-1.18933c0.68059,-0.36627 1.28909,-0.7561 2.50667,-1.32666c0.58389,-0.27362 1.47746,-0.5798 2.47984,-1.20517c0.48183,-0.3006 1.2684,-1.06506 2.12149,-1.43616c0.76662,-0.33347 1.83145,-0.53067 2.39101,-0.95251c0.57272,-0.43179 1.15704,-1.45807 1.5715,-2.04282c0.58231,-0.82156 1.37238,-1.25128 1.83667,-1.65182c0.88611,-0.76443 1.33777,-1.41513 1.80615,-2.05267c0.71906,-0.97873 1.21219,-1.51019 1.75717,-2.10535c0.6022,-0.65765 0.93622,-1.00012 1.95901,-2.18048c0.36771,-0.42435 0.73868,-0.86887 1.49933,-1.79868c0.39139,-0.47842 0.78448,-0.96667 1.97916,-2.45834c0.40012,-0.4996 0.79898,-0.99841 1.1955,-1.49548c0.78427,-0.98318 1.16953,-1.46771 1.54733,-1.94736c1.09344,-1.38818 1.43781,-1.83374 2.09552,-2.6955c0.31607,-0.41412 0.91678,-1.21368 1.19998,-1.59998c0.80008,-1.09131 1.2739,-1.77673 1.72568,-2.41501c0.62811,-0.88742 1.22787,-1.68689 1.83148,-2.3895c0.37863,-0.44073 0.96143,-1.02631 1.64734,-2.05267c0.36993,-0.55356 0.95584,-1.51917 1.39999,-2.10001l0.3465,-0.90451" id="svg_6" stroke-width="2" stroke="#000" fill="none"/>
  <path t="16144,16253,16271,16271,16278,16278,16289,16314,16314,16351,16388,16425,16436,16462,16511,16536,16586,16635,16657,16670,16685,16696,16696,16707,16783,16796,16832,16905,16930,16943,16967,16991,17016,17016,17028,17028,17040,17078,17114,17151,17188,17256,17275,17311,17311" d="m114,365.89999c1.75716,-0.05716 2.64173,-0.39529 3.4045,-0.64734c0.9775,-0.323 1.75945,-0.34732 2.71017,-0.35266c0.88531,-0.00497 1.68533,0 2.58533,0c0.9,0 1.8,-0.00226 2.7,0c0.89551,0.00226 1.64771,0.36029 2.17467,1.02533c0.49619,0.62622 0.42339,1.59427 0.85067,2.37466c0.45038,0.82257 0.57466,1.70001 0.57466,2.60001c0,0.80002 0,1.70001 0,2.60001c0,0.89999 0.25081,1.83713 -0.0045,2.6955c-0.22684,0.76266 -1.2955,0.7045 -2.1955,0.7045c-0.9,0 -1.813,0.09375 -2.55717,-0.05716c-0.9214,-0.18683 -1.47175,-0.70651 -2.222,-1.422c-0.58749,-0.56027 -1.42708,-0.61722 -2.0735,-1.16818c-0.60439,-0.51517 -1.16867,-1.23132 -1.89467,-1.70981l-0.33666,-0.84283l-0.43201,-0.60001" id="svg_7" stroke-width="2" stroke="#000" fill="none"/>
  <path t="20664,20968,21017,21055,21091,21101,21140,21190,21214,21227,21227,21242,21299,21299,21350" d="m117,380.89999c0,-1.69998 -0.2032,-2.474 -0.83334,-3.16666c-0.5456,-0.59973 -1.39964,-0.58801 -2.08266,-1.11734c-0.62968,-0.48798 -1.44665,-0.88416 -1.91734,-1.716c-0.36124,-0.63843 -0.6875,-1.5 -1.36666,-2.19867l-0.60001,-0.51599l-0.8,-0.31067" id="svg_8" stroke-width="2" stroke="#000" fill="none"/>
  <path t="27368,27553,27553,27553,27575,27575,27579,27579,27597,27597,27613,27613,27627,27676,27712,27749,27774,27786,27802,27817,27835,27859,27859,27884" d="m166,310.89999c3.59866,-0.00131 4.4845,0.02878 5.31467,-0.08533c1.01004,-0.13882 1.64391,-0.48605 2.68533,-0.74799c0.77768,-0.19559 1.82814,-0.3439 2.5,-0.66669c0.81508,-0.39157 1.67529,-0.46564 2.47917,-1c0.66531,-0.44226 1.52083,-0.5 2.42082,-0.5c0.90001,0 1.81259,-0.14978 2.69984,0.00018c0.85202,0.14401 1.25732,0.94714 2.10016,1.28381l0.60001,0.43201l0.89999,0.27951" id="svg_9" stroke-width="2" stroke="#000" fill="none"/>
  <path t="29834,30015,30015,30028,30028,30028,30028,30044,30044,30060,30060,30065,30065,30079,30079,30087,30101,30125,30125,30176,30176,30191,30191,30206,30222,30261,30284,30285,30302,30310,30310,30322,30336,30336,30336,30352,30352,30360,30360,30370,30385,30402,30408,30408,30420,30436,30457,30481,30505" d="m222,217.89999c-0.0045,-2.01433 0.01437,-2.828 -0.16667,-4c-0.09297,-0.60185 -0.30336,-1.47876 -0.63466,-2.22932c-0.43797,-0.99225 -0.95358,-1.52107 -1.68266,-2.25467c-0.51442,-0.51759 -1.34933,-1.34933 -1.88,-1.88c-0.636,-0.636 -1.22922,-1.22165 -1.61067,-2.036c-0.41481,-0.88556 -1.05798,-1.57051 -1.52533,-2.12083c-0.64749,-0.76247 -1.03165,-1.45877 -1.33333,-2.3125c-0.30487,-0.86273 -1.09845,-0.77368 -1.88133,-1.252c-0.80334,-0.49081 -1.4119,-0.95889 -1.92818,-1.61917c-0.58884,-0.75308 -1.0883,-1.15009 -1.8745,-1.3795c-0.89362,-0.26076 -1.64105,-1.09117 -2.13533,-1.56416c-0.68341,-0.65398 -1.53853,-1.05969 -2.146,-1.51984c-0.73082,-0.55359 -1.03914,-1.3631 -2.01601,-1.77066c-0.90811,-0.37888 -1.51689,-0.87476 -2.28534,-1.28267c-0.64995,-0.34502 -1.5,-0.804 -2.29999,-1.20399l-0.8,-0.48933l-0.89984,-0.08549l-0.77882,-0.22118" id="svg_10" stroke-width="2" stroke="#000" fill="none"/>
  <path t="34496,34632,34644,34645,34659,34667,34667,34667,34684,34684,34684,34692,34692,34704,34704,34728,34742,34753,34767,34784,34790,34791,34802,34827,34857,34857,34857,34877,35049,35099,35111,35236,35260,35382,35395,35408,35408,35418,35418,35432,35443,35443,35455,35455,35467,35483,35492,35503,35516,35533,35543,35565,35584,35584,35590,35602,35617,35617,35627,35627,35627,35639,35639,35652,35652,35676,35676,35765,35863,35898,35911" d="m180,244.89999c-1.75717,-0.05716 -2.71255,-0.25819 -3.29016,-0.7045c-0.7644,-0.59064 -1.16185,-1.61003 -1.5605,-2.14217c-0.45479,-0.60706 -0.92215,-1.57091 -1.09868,-2.368c-0.17105,-0.77232 -0.58141,-1.86128 -1.23599,-2.364c-0.75267,-0.57803 -1.38858,-1.01141 -1.81467,-1.92134c-0.37076,-0.79176 -0.58482,-1.64995 -1.16667,-2.33333c-0.5676,-0.66666 -1.33771,-0.85652 -2.12799,-1.21933c-0.82785,-0.38005 -1.10612,-1.40714 -1.87201,-1.94734c-0.62524,-0.44099 -1.3678,-0.65846 -2.3125,-1c-0.84016,-0.30374 -1.7506,-0.67094 -2.39949,-1.22133c-0.66122,-0.56084 -1.20186,-1.1142 -1.696,-1.804c-0.40381,-0.56371 0.44604,-0.95558 1.17732,-0.97333c1.18633,-0.02879 1.92015,0.10596 2.89734,-0.02217c0.83832,-0.10992 1.70094,-0.54904 2.4785,-1.07899c0.63396,-0.43207 1.48434,-0.5607 2.41083,-0.91084c0.73201,-0.27666 1.22134,-0.97865 2.11067,-0.98933c0.88933,-0.01067 1.37956,-0.72635 2.14667,-0.98932c0.79214,-0.27156 1.70067,-0.01068 2.71733,-0.01068c0.83734,0 1.80267,0 2.65683,0c0.97917,0 1.78865,0.05836 2.57918,-0.08533c1.0153,-0.18456 1.58078,-0.49898 2.51599,-1.11333c0.64882,-0.42622 1.53534,-0.77139 2.40001,-0.8c0.84753,-0.02805 1.784,-0.00134 2.68399,-0.00134l0.89984,0.00017" id="svg_11" stroke-width="2" stroke="#000" fill="none"/>
  <path t="37597,37783,37795,37795,37795,37795,37795,37807,37808,37808,37808,37808,37808,37822,37823,37823,37823,37838,37838,37839,37844,37844,37844,37855,37868,37885,37885,37893,37893,37905,37905,37918,37918,37918,37935,37935,37935,37935,37943,37943,37943,37943,37953,37953,37954,37968,37968,37968,37984,37985,37991,37991,37991,38003,38003,38003,38003,38016,38016,38016,38016,38016,38032,38032,38032,38032,38032,38033,38033,38039,38039,38040,38040,38040,38052,38052,38052,38052,38066,38066,38066,38077,38077,38077,38077,38089,38089,38101,38102,38102,38102,38116,38116,38116,38116,38126,38126,38126,38127,38127,38127,38138,38139,38139,38139,38139,38139,38150,38150,38150,38150,38150,38166,38167,38167,38176,38176,38176,38187,38187,38200,38200,38200,38200,38216,38216,38216,38216,38225,38225,38226,38226,38226,38226,38237,38237,38237,38237,38237,38238,38238,38249,38249,38249,38249,38250,38266,38266,38266,38274,38274,38274,38286,38286,38300,38300,38301,38316,38316,38316,38316,38322,38322,38323,38335,38335" d="m237,221.89999c1.744,0 2.66667,0 3.34267,0c0.812,0 1.73599,0 2.2325,0c1.59151,0 2.14583,0 3.26851,0c0.56033,0 1.659,0 2.18933,0c1.467,0 2.31099,0 3.05899,0c0.99451,0 1.908,0 2.8035,0c0.86852,0 1.93784,0 2.64284,0c0.80002,0 1.82568,0 2.66299,0c0.96533,0 1.79868,0 2.77734,0c0.77399,0 1.68298,0 2.483,0c0.95999,0 1.785,0 2.69998,0c1.005,0 1.72235,0 2.46368,0c0.74933,0 2.20801,0 2.88934,0c0.96448,0 1.58081,0 2.78516,0c0.8895,0 1.46417,0 2.53351,0c0.93066,0 1.76532,0 2.77115,0c0.6315,0 1.81702,0 2.6315,0c0.57468,0 1.76401,0 2.673,0c0.63266,0 1.66168,0 2.83435,0c0.42999,0 1.34998,0 2.34998,0c0.53,0 2.24002,0.0005 2.84918,-0.00015c0.62418,-0.00067 1.25845,0.00278 2.53665,-0.02068c0.63425,-0.01164 1.26086,-0.00134 3.02084,-0.14583c0.53632,-0.04402 1.5246,-0.1823 1.98132,-0.25867c0.85187,-0.14244 2.35043,-0.42267 3.03336,-0.48933c0.6481,-0.06328 1.58081,-0.08308 2.78531,-0.08534c0.60001,-0.00111 1.5,0 2.70001,0c0.59866,0 1.47916,0 2.31467,0c1.00134,0 1.91068,0.00266 2.85199,0c0.79501,-0.00224 1.68158,-0.01883 2.32001,-0.08533c1.03827,-0.10815 2.15967,-0.3418 2.55499,-0.41467c0.81934,-0.15105 2.12366,-0.35028 3.04501,-0.41466c0.95892,-0.067 1.45493,-0.0696 2.47501,-0.08084c0.52496,-0.00578 2.15948,-0.00368 2.72098,-0.00583c0.56552,-0.00217 1.69666,-0.01445 2.25601,-0.03467c1.09241,-0.03947 2.13028,-0.11331 3.08932,-0.248c0.89175,-0.12524 1.71262,-0.3024 2.48401,-0.43199c1.06375,-0.17873 2.04099,-0.25769 2.64133,-0.27333c1.07971,-0.02812 2.02039,0.05119 2.84534,-0.09601c1.02573,-0.18303 1.63058,-0.54187 2.56799,-0.91467c0.78958,-0.31401 1.67798,-0.60664 2.32001,-0.79999c1.03183,-0.31073 1.77383,-0.50461 2.55499,-0.70001c0.81882,-0.20483 2.12442,-0.50264 2.58017,-0.59982c0.94318,-0.20113 1.9397,-0.38564 2.46085,-0.46417c1.08743,-0.16385 2.25018,-0.27632 2.85983,-0.3145c1.25751,-0.07875 1.89743,-0.08795 2.53665,-0.10066c0.63416,-0.0126 1.86752,-0.02017 3.02084,-0.02084c1.04132,-0.00061 1.5195,0 2.39584,0c0.77634,0 2.06131,0 2.84283,0c0.944,0 1.94531,0 2.76132,0c0.81601,0 1.81467,0 2.47916,0c1.02084,0 1.84216,0.00008 2.7915,0c0.87216,-0.00008 1.8912,0.00104 2.61469,-0.036c0.7327,-0.03749 1.79282,-0.1855 2.75732,-0.39999l0.57468,-0.17467l1.13965,-0.48933l0.60135,-0.40001" id="svg_12" stroke-width="2" stroke="#000" fill="none"/>
  <path t="39323,39493,39493,39493,39493,39493,39506,39507,39507,39507,39507,39507,39507,39507,39520,39520,39520,39520,39520,39520,39520,39532,39532,39532,39532,39532,39532,39543,39543,39543,39543,39543,39543,39543,39543,39554,39554,39554,39554,39554,39554,39554,39554,39566,39566,39566,39566,39566,39566,39566,39567,39582,39583,39583,39583,39583,39592,39592,39592,39592,39592,39602,39603,39603,39603,39615,39616,39616,39635,39635,39635,39635,39640,39640,39640,39641,39652,39652,39652,39653,39653,39653,39665,39666,39666,39666,39666,39682,39682,39682,39682,39682,39690,39690,39690,39690,39702,39702,39702,39717,39717,39733,39739,39739,39751,39775,39788,39800,39800,39816,39836,39837,39850,39850,39867,39874,39874,39886,39887,39887,39899,39899,39900,39916,39916,39924,39924" d="m385,211.89999c3.26001,-0.00266 3.68567,0.00685 4.625,-0.04166c1.06107,-0.05479 1.63785,-0.1086 2.875,-0.29167c0.66586,-0.09854 1.35437,-0.23085 2.0625,-0.3765c1.46057,-0.30042 2.19751,-0.47545 2.93668,-0.642c0.73416,-0.16544 2.16687,-0.48448 2.85767,-0.62651c0.67059,-0.13788 1.32242,-0.27109 2.58066,-0.48c0.60431,-0.10034 1.19348,-0.20663 2.89584,-0.375c0.54474,-0.05388 1.61844,-0.1151 2.15198,-0.14133c1.07593,-0.05289 1.62598,-0.05762 3.34802,-0.192c0.61026,-0.04762 1.23764,-0.11604 1.88098,-0.19051c0.65799,-0.07616 2.00717,-0.25244 2.69467,-0.34734c0.69382,-0.09576 2.09094,-0.29599 2.79102,-0.39532c0.69992,-0.09932 1.39911,-0.20256 2.79999,-0.37933c0.69958,-0.08829 1.39938,-0.16986 2.10001,-0.2355c1.3989,-0.13106 2.0994,-0.16945 2.79733,-0.2c1.38089,-0.06044 2.06097,-0.06644 2.73065,-0.07466c0.65765,-0.00809 1.30133,-0.01001 3.12885,-0.01068c0.57117,-0.00021 1.66049,0 2.18066,0c0.99634,0 2.39584,0 3.27585,0c0.42499,0 1.245,0 2.39999,0c1.06516,0 1.72949,0 2.67599,0c0.60934,0 1.81247,-0.01512 2.73151,0.02084c0.63687,0.02493 1.65005,0.12309 2.73181,0.33633c0.75061,0.14796 1.49725,0.3381 2.58069,0.64282c0.68567,0.19284 1.34326,0.42772 2.3765,0.64284c1.11563,0.23227 1.96051,0.27722 2.40448,0.3c0.92682,0.04758 1.89468,0.05403 2.38834,0.05583c1.49734,0.00545 2.49734,0.00133 2.99734,0.00133c1,0 1.5,0 3,0c0.99734,0 1.491,0 2.45834,0c0.92734,0 2.20831,0 2.97098,0c0.69867,0 1.34933,0 2.57068,0c0.89099,0 1.728,0 2.66666,0c0.91202,0 1.74423,-0.01987 2.65451,0.00017c0.81808,0.01801 1.59247,0.58183 2.19968,0.99983c0.80832,0.55644 1.40082,1.09714 2.07916,1.56401c0.82379,0.56697 1.68704,0.81696 2.28534,1.23734c0.74677,0.5247 1.63824,0.88974 2.47867,1.17332c0.84695,0.2858 1.59335,0.80588 2.40665,0.94c0.76337,0.12589 1.63202,0.08466 2.828,0.08533c0.59067,0.00032 1.44418,0 2.47968,0.00017l0.88,0.02068l1.02014,0.2005l0.71701,0.42599" id="svg_13" stroke-width="2" stroke="#000" fill="none"/>
  <path t="40603,40761,40774,40774,40774,40775,40789,40789,40789,40789,40790,40790,40790,40790,40805,40805,40805,40806,40806,40806,40806,40806,40806,40811,40811,40811,40811,40811,40811,40811,40811,40812,40821,40821,40821,40822,40822,40822,40822,40822,40822,40834,40834,40834,40834,40834,40834,40834,40834,40834,40849,40849,40849,40849,40849,40849,40849,40849,40849,40859,40859,40859,40859,40859,40860,40860,40860,40860,40871,40871,40872,40872,40872,40872,40872,40872,40872,40882,40883,40883,40883,40883,40883,40883,40883,40883,40900,40901,40901,40901,40901,40901,40901,40901,40901,40909,40909,40909,40909,40909,40910,40910,40910,40910,40920,40920,40920,40920,40920,40920,40920,40921,40921,40932,40932,40933,40950,40951,40957,40957,40970,40970,40982,40982,40982,40999,40999,41007,41007,41018,41019,41033,41033,41033,41049,41049,41049,41049,41055,41056,41056,41056,41056,41068,41068,41068,41068,41068,41082,41082,41083,41083,41099,41099,41099,41217" d="m498,215.89999c1.672,0.07201 2.55142,0.43019 3.30399,0.89334c0.6322,0.38907 1.35416,0.88078 2.19601,1.44c0.96075,0.63821 1.48743,0.98428 2.05066,1.33867c0.59302,0.37312 1.22214,0.75488 1.89151,1.13699c0.69986,0.39951 2.22144,1.19731 3.04333,1.591c0.84872,0.40654 1.72867,0.8022 2.6265,1.2c0.90784,0.40222 1.82343,0.79834 2.7345,1.2c0.90356,0.39836 2.65643,1.19398 3.48883,1.60017c0.81018,0.39534 1.59204,0.7981 2.34601,1.21049c0.73871,0.40408 1.45447,0.81917 2.14801,1.24651c0.68512,0.42212 2.00769,1.30429 2.64929,1.7645c0.64111,0.45984 1.27148,0.9364 1.89606,1.425c0.62811,0.49139 1.25226,0.998 1.87799,1.515c0.63293,0.52298 1.91455,1.60434 2.56879,2.16c0.66443,0.56433 1.33685,1.13863 2.01453,1.72499c0.68604,0.59361 1.37646,1.19798 2.06848,1.815c0.69867,0.62297 2.09802,1.90233 2.79572,2.56017c0.70367,0.66348 1.4068,1.34178 2.11047,2.03551c0.71271,0.70259 1.42773,1.42297 2.14648,2.1615c0.73065,0.75078 2.21112,2.31305 2.96454,3.12399c0.76654,0.82504 1.53925,1.66768 2.32495,2.51851c0.79431,0.86017 1.59717,1.72673 2.41504,2.5905c0.82214,0.86824 2.50073,2.58583 3.35913,3.42616c0.85498,0.83701 1.71619,1.65369 2.57251,2.45401c0.84204,0.78699 1.67303,1.54962 2.48248,2.29199c0.78387,0.71896 2.25842,2.07498 2.93817,2.711c0.64557,0.60406 1.25537,1.18216 1.84204,1.72501c0.55878,0.51706 1.09631,1.00586 1.62598,1.45499c0.50793,0.43069 1.51263,1.19318 2.01752,1.52084c0.49133,0.31885 0.98633,0.60287 1.46851,0.8775c0.46881,0.26703 0.92804,0.52005 1.36047,0.78751c0.41949,0.25946 1.18182,0.82166 1.50702,1.14166c0.31897,0.31387 0.59882,0.6539 0.85651,0.9975c0.25122,0.33496 0.47559,0.67361 0.69446,0.9975c0.20911,0.30945 0.60706,0.86813 0.81335,1.09818c0.19293,0.21512 0.39294,0.40048 0.58948,0.56699c0.18732,0.15872 0.37555,0.30023 0.55353,0.44101c0.17267,0.1366 0.6557,0.56345 1.15717,1.27716c0.40015,0.56949 1.1662,1.55963 1.63867,2.14316c0.64362,0.79492 0.81049,1.48486 1.14801,2.32135c0.30298,0.75092 1.03992,1.71024 1.52795,2.31467c0.48096,0.59564 0.95801,1.39557 1.16455,2.17917c0.26208,0.99448 0.69806,1.60428 1.21948,2.50748c0.42163,0.73032 0.64142,1.67902 0.75317,2.466c0.11658,0.82104 0.34943,1.89828 0.758,2.60367c0.28888,0.49881 0.86469,1.27414 1.26868,2.30817c0.30902,0.79095 0.505,1.69699 0.61084,2.16751c0.2182,0.97003 0.40967,1.96817 0.61066,2.96533c0.09949,0.49374 0.29181,1.4628 0.5,2.38834c0.2887,1.2836 0.49066,2.0451 0.70001,2.73166c0.19147,0.62799 0.59998,1.716 0.98932,2.63599l0.25348,0.58502l0.33185,1.01498" id="svg_14" stroke-width="2" stroke="#000" fill="none"/>
  <path t="42869,43026,43042,43057,43067,43067,43068,43075,43075,43088,43088,43088,43099,43099,43117,43117,43123,43123,43123,43140,43149,43166,43166,43166,43173,43173,43186,43199,43215,43215,43222,43222,43234,43259,43271,43271,43283,43283,43299,43299,43299,43309,43309,43321,43345,43345,43359,43359,43382,43398,43398,43408,43419,43419,43432,43448,43449,43457,43457,43468,43468,43482,43493,43505,43505,43517,43518,43518,43533,43543,43566,43566,43592,43592,43616,43634,43665,43682,43691,43715,43727,43727,43739,43739,43751,43751,43766,43766,43783,43783,43784,43800,43800,43816,43825,43850,43850,43874,43874,43887,43887,43911,43911,43924,43925,43935,43949,43949,43973,43973,43997,44022,44022,44034,44050,44066,44066,44072,44083,44099,44109,44109,44120,44132,44133,44149,44158,44158,44182,44199,44199,44208,44231,44249,44256,44256,44269,44269,44283,44293,44293,44305,44305,44317,44333,44333,44355,44367,44391,44404,44416,44432,44441,44441,44441,44453,44453,44465,44466,44466,44483,44483,44483,44490,44490,44490,44502,44517,44532,44539,44540,44551,44567,44582,44582,44589,44589,44639,44662,44706,44744,44775,44775" d="m592,311.89999c1.70001,1.05267 2.59705,1.46155 2.94733,2.3045c0.34137,0.82156 0.48187,1.53476 0.854,2.29684c0.48981,1.00305 0.79865,1.59866 1.29865,2.59866c0.30005,0.60001 0.71973,1.39047 1.1955,2.39999c0.28027,0.59464 0.57733,1.60092 0.70453,2.39999c0.15936,1.00119 0.46741,1.77386 0.716,2.51468c0.31805,0.94785 0.28094,1.90668 0.284,2.81866c0.00226,0.672 -0.06329,1.69324 0.22131,2.52365c0.30365,0.88596 0.67041,1.65027 0.78937,2.55368c0.12201,0.92673 0.60083,1.55322 0.8678,2.56784c0.21094,0.80164 0.12152,1.7215 0.12152,2.54233c0,0.96451 0,1.68982 0,2.67917c0,0.79999 0,1.79999 0,2.60001c0,0.79999 0,1.7955 0,2.71466c0,0.85999 0,1.80667 0,2.66c0,0.94131 0.06683,1.71246 -0.01068,2.65067c-0.08398,1.01654 -0.54749,1.62473 -0.93665,2.47467c-0.39972,0.87296 -0.85199,1.42044 -1.80981,1.75266c-0.89362,0.30994 -1.59967,0.63739 -2.35889,1.146c-0.64496,0.43207 -1.53528,0.77148 -2.39996,0.80002c-0.96265,0.03177 -1.91327,-0.05649 -2.80548,0.22266c-0.71844,0.22479 -1.67664,0.62289 -2.46783,0.75333c-0.72375,0.11932 -1.61768,0.69019 -2.41205,0.94c-0.92444,0.29074 -1.79865,0.08533 -2.77716,0.08533c-0.71698,0 -1.62146,0 -2.52148,0c-0.90002,0 -2.01996,0.1268 -2.47467,-0.436c-0.59381,-0.73495 -1.05798,-1.53448 -1.52533,-2.08481c-0.64752,-0.76248 -1.06189,-1.44937 -1.37866,-2.45786c-0.23773,-0.75684 -0.47028,-1.68234 -0.73199,-2.23199c-0.47449,-0.99652 -0.88989,-1.78906 -1.18933,-2.38934c-0.4964,-0.99503 -0.96301,-1.71133 -1.14282,-2.64282c-0.18176,-0.94147 -0.0661,-1.85739 -0.05719,-2.64249c0.01068,-0.94019 0.06226,-1.72534 0.70984,-2.35751c0.56207,-0.54871 1.51489,-1.08734 2.17413,-1.55716c0.74475,-0.53076 1.5097,-0.72784 2.48004,-1.18533c0.78381,-0.36957 1.17676,-1.2406 1.73596,-1.99301c0.45453,-0.61157 1.31012,-1.00366 2.22137,-1.02167c0.85315,-0.01688 1.79333,0 2.77863,0c0.90002,0 1.70001,0 2.60004,0c0.89996,0 1.71063,0 2.62134,0c0.85333,0 1.85626,-0.20044 2.67865,0.16669c0.80609,0.35983 1.21185,1.2746 2.09998,1.71198c0.65442,0.32233 1.50269,0.72931 2.10004,1.32135c0.60266,0.59729 1.47461,1.21512 1.7428,2.10001c0.26196,0.86432 0.05719,1.86667 0.05719,2.52533c0,1.008 0,1.87015 0,2.6955c0,0.96451 0,1.68982 0,2.67899c0,0.96417 0,1.91486 0,2.80017c0,0.80002 0,1.70001 0,2.60001c0,0.89999 0,1.79999 0,2.70001c0,0.90134 0,1.86667 0,2.53598c0,0.76535 0,1.76852 0,2.62119c0,0.96432 0,1.77881 0,2.64734c0,1.19531 0,1.79099 0,2.65948c0,1.06934 0.09552,2.00739 -0.08533,2.74933c-0.21692,0.89005 -0.59717,1.86646 -1.20001,2.40268c-0.65002,0.57819 -1.48517,0.9238 -2.41467,1.0795c-0.80988,0.13568 -1.80231,0.25354 -2.47467,0.61517c-0.82874,0.44571 -1.47241,1.1871 -2.32532,1.3685c-0.88055,0.18729 -1.79999,0.02081 -2.70001,0.02216l-0.89984,0.22015l-0.54297,0.483" id="svg_15" stroke-width="2" stroke="#000" fill="none"/>
  <path t="46549,46722,46755,46768,46768,46792,46793,46829,46849,46867,46929,46942,46958,46973,46978,46996,46997,47005,47006,47006,47015,47032,47050,47050,47075,47087,47087,47112,47162,47188,47204,47215,47223,47223,47235,47260,47260,47284,47284,47299,47300,47315,47315,47321,47333,47350,47358,47395,47507,47531,47544,47556,47580,47594,47617,47642,47654,47666,47703,47703,47765,47815,47840,47890,47938,47963,47976,47994,48012,48012,48024,48024,48035,48073,48110,48122,48122,48134,48150,48159,48170,48183,48183,48199,48208,48208,48220,48244,48269,48294,48307,48308,48331,48350,48368,48384,48384,48393,48393,48404,48404,48404,48417,48417,48432,48433,48449,48449,48454,48478,48492,48515,48553,48553,48576,48664,48701" d="m587,319.89999c1.08398,1.71466 1.79755,2.05936 2.65265,2.70535c0.54681,0.41309 1.30023,1.16934 2.146,1.29199c0.89203,0.12936 1.65454,0.14001 2.28534,0.71866c0.69391,0.63657 0.82733,1.3884 0.91602,2.284c0.08374,0.8457 0.93909,1.21585 1,2.16669c0.04279,0.66794 0,1.83331 0,2.62265c0,0.72534 0,1.68985 0,2.62134c0,0.91068 0,1.76401 0,2.70401c0,0.88531 0,1.68533 0,2.58533c0,0.89999 0.00226,1.79999 0,2.69998c-0.00226,0.90002 -0.26349,1.81955 -0.80133,2.40002c-0.57605,0.62173 -1.26605,1.33759 -1.83466,1.79999c-0.80536,0.65494 -1.51605,1.03189 -2.48004,1.31601c-0.75403,0.22223 -1.77917,0.40967 -2.31464,0.88531c-0.71814,0.63791 -1.39764,0.78601 -2.21216,1.25583c-0.68683,0.39618 -0.96436,1.42603 -1.64252,1.85751c-0.77502,0.49316 -1.94891,0.33228 -2.63068,-0.19867c-0.62659,-0.48795 -1.06598,-1.15149 -1.08398,-2.116c-0.01678,-0.89984 0,-1.79999 0,-2.70001c0,-0.89999 -0.36432,-1.81073 0.05719,-2.54282c0.46722,-0.81146 1.28577,-1.19467 1.89014,-1.70984c0.64636,-0.55096 1.4527,-0.64734 2.35266,-0.64734c0.90002,0 1.80017,0 2.58533,0c0.94,0 1.63074,-0.01227 2.70404,0c0.91083,0.01044 1.73474,0.33191 2.41064,1c0.58569,0.57889 0.862,1.513 1.52081,2c0.68597,0.50708 1.41827,1.09387 1.47919,2c0.05365,0.79822 0,1.63602 0,2.65268c0,0.69467 0,1.71133 0,2.64734c0,0.89999 0,1.79999 0,2.69998c0,0.80002 0,1.70001 0,2.60001c0,0.81067 0,1.7215 0,2.61066c0,0.98935 0,1.78934 0,2.78934c0,0.80002 0.03058,1.60062 -0.00452,2.60001c-0.02814,0.80124 -0.22852,1.82309 -0.60614,2.564c-0.43146,0.8465 -0.99353,1.40622 -1.36401,2.23599c-0.34937,0.7825 -1.224,1.13208 -1.85864,1.76669c-0.63464,0.63464 -0.74133,1.43332 -1.16669,2.3125l-0.61066,0.51016l-0.86853,0.03149" id="svg_16" stroke-width="2" stroke="#000" fill="none"/>
  <path t="51574,51742,51742,51758,51758,51759,51775,51776,51776,51780,51780,51780,51795,51795,51795,51795,51796,51805,51805,51805,51805,51805,51805,51805,51817,51817,51817,51817,51817,51817,51833,51833,51834,51834,51834,51834,51840,51840,51841,51841,51851,51867,51867,51883,51884,51884,51889,51889,51889,51900,51900,51900,51900,51900,51914,51915,51915,51915,51915,51915,51915,51925,51925,51925,51925,51925,51925,51925,51925,51937,51937,51937,51937,51937,51937,51938,51938,51949,51950,51950,51950,51950,51950,51950,51950,51965,51965,51965,51965,51965,51965,51976,51976,51976,51976,51976,51986,51986,51986,51986,51986,51998,51998,51998,51999,51999,51999,51999,52015,52015,52015,52015,52015,52015,52015,52024,52024,52024,52024,52025,52025,52036,52036,52036,52036,52036,52049,52049,52049,52049,52066,52066,52085,52086,52086,52098,52098,52172,52187,52259" d="m267,327.89999c0,2.60452 0,3.45718 0,4.42151c0,0.81448 0,1.68301 0,2.87833c0,0.59567 0,1.46417 0,2.53351c0,0.952 0,1.67648 0,2.81015c0,0.68436 0,1.46069 0,2.33701c0,0.47818 0,2.08383 0,2.67416c0,0.61234 0,1.88702 0,2.54135c0,0.66034 0,1.32266 0,3.28232c0,0.63501 0,1.26001 0,1.875c0,1.20001 0,1.785 0,3.48001c0,0.54483 0,1.60049 0,2.10934c0,0.97464 0.00171,1.88531 0,2.724c-0.00226,1.10999 0.06769,1.76196 -0.08533,2.56c-0.21704,1.13199 -0.79291,1.87375 -0.96735,2.58765c-0.2334,0.95517 -0.4371,1.73105 -0.83398,2.50302c-0.53268,1.03613 -0.94583,1.47049 -1.57501,2.13531c-0.68973,0.72876 -1.23724,1.22305 -1.76367,1.81534c-0.5657,0.63647 -1.12732,1.36792 -1.608,2.23199c-0.52063,0.93585 -0.72757,1.46771 -1.125,2.58334c-0.20682,0.58057 -0.39221,1.18399 -0.55499,1.806c-0.50323,1.92282 -0.6055,2.59677 -0.73401,3.27234c-0.13019,0.68445 -0.25256,1.38004 -0.37799,2.08499c-0.12723,0.71503 -0.245,1.44269 -0.54132,2.92001c-0.30466,1.51886 -0.48746,2.28223 -0.66934,3.04797c-0.18178,0.76526 -0.37189,1.52475 -0.5685,2.27551c-0.19411,0.74124 -0.5929,2.17728 -0.7955,2.86667c-0.19746,0.67194 -0.39653,1.32544 -0.60001,1.96051c-0.39328,1.22748 -0.59639,1.81775 -0.8,2.39465c-0.58943,1.67001 -0.79854,2.20135 -1.18933,3.24133c-0.18977,0.50504 -0.55817,1.48334 -0.72533,1.95999c-0.47722,1.36075 -0.73187,2.23297 -0.84933,2.66135c-0.23271,0.84869 -0.44119,1.70786 -0.73601,3.047c-0.10226,0.46451 -0.30281,1.42444 -0.5,2.42499c-0.10144,0.51474 -0.40077,2.11987 -0.5,2.67484c-0.10078,0.56369 -0.3004,1.71445 -0.39999,2.29935c-0.10042,0.58978 -0.30011,1.78046 -0.5,2.97916c-0.10005,0.60001 -0.3,1.80002 -0.39999,2.39999c-0.10001,0.60001 -0.3,1.80002 -0.40001,2.40002c-0.2,1.19998 -0.39951,2.3974 -0.5,2.991c-0.0995,0.58774 -0.2972,1.73752 -0.39999,2.29465c-0.29201,1.58252 -0.39246,2.07285 -0.60001,2.99551c-0.19299,0.85794 -0.3889,1.65576 -0.7,2.75217c-0.19313,0.68063 -0.47531,1.61389 -0.7,2.14783c-0.45135,1.07263 -1.03595,1.80576 -1.40001,2.56149c-0.33371,0.69275 -0.52782,1.48999 -1.09866,2.48666c-0.39609,0.69153 -0.79066,1.57068 -0.80133,2.47067l0,0.89999" id="svg_17" stroke-width="2" stroke="#000" fill="none"/>
  <path t="53122,53268,53292,53296,53296,53314,53314,53318,53331,53341,53341,53353,53366,53366,53384,53384,53391,53391,53402,53415,53439,53452,53452,53465,53627,53700,53722,53722,53958,53975,53988,53998,54006,54007,54017,54017,54017,54033,54033,54056,54340,54357,54374,54374,54377,54377,54388,54388,54399,54400,54416,54416,54425,54436,54437,54449,54450,54465,54466,54474,54474,54474,54474,54474,54485,54485,54485,54485,54485,54499,54499,54499,54500,54500,54500,54515,54515,54515,54516,54516,54523,54523,54523,54535,54535,54535,54548,54565,54565,54573,54573,54584,54599,54599,54617,54617,54622,54622,54623,54634,54634,54634,54651,54652,54652,54652,54666,54666,54666,54670,54671,54671,54683,54683,54684,54699,54699,54707,54708,54708,54719,54731,54731,54748,54769,54770,54781,54781,54806,54831,54848,54855,54868,54868,54882,54882,54893,54893,54893,54905,54905,54916" d="m241,449.89999c1.71466,-0.17065 1.77876,-1.20004 2.44284,-1.75717c0.60205,-0.5051 1.63553,-0.59055 2.35582,-0.95883c0.87892,-0.4494 1.30428,-1.17389 2.06267,-1.67331c0.61156,-0.40274 1.63907,-0.57623 2.62267,-0.612c0.69109,-0.02512 1.5851,-0.37946 2.40001,-0.71469c0.90282,-0.3714 1.65733,-0.31363 2.59517,-0.784c0.74336,-0.37283 1.62083,-0.5 2.52083,-0.5c0.79999,0 1.42896,-0.3707 2.2215,-0.87848c0.74673,-0.47845 1.77936,-0.15872 2.57849,-0.12152c0.91766,0.04272 1.19934,0.80133 1.20001,1.70001c0.0007,0.936 -0.04074,1.78973 0.03601,2.54666c0.11993,1.18295 0.32001,1.70056 0.53867,2.492c0.30859,1.117 0.39514,1.95282 0.42532,2.86133c0.03088,0.92975 0.57813,0.36169 0.83334,-0.60001c0.20569,-0.77505 0.34393,-1.82809 0.66666,-2.5c0.39166,-0.8154 0.47067,-1.72244 0.66666,-2.5c0.20303,-0.80545 0.73099,-1.82285 0.82266,-2.58932c0.10822,-0.90479 0.39246,-1.69717 0.81201,-2.29599c0.52591,-0.75058 0.89386,-1.50623 1.116,-2.51733c0.18909,-0.86069 0.40036,-1.93671 0.65335,-2.56802c0.28394,-0.70856 0.64725,-1.45233 1.03198,-2.23199c0.59222,-1.2001 0.79562,-1.60022 1.20801,-2.40799c0.42218,-0.82697 0.63611,-1.25217 1.35599,-2.556c0.50873,-0.92139 0.78653,-1.38324 1.3125,-2.33334c0.26202,-0.4733 0.7756,-1.40491 1.1875,-2.33331c0.3855,-0.86893 0.66696,-1.70755 0.91202,-2.48401c0.22379,-0.70908 0.50827,-1.64496 0.82132,-2.42133c0.28809,-0.71445 0.71335,-1.67773 0.98935,-2.47601c0.2666,-0.77109 0.34586,-1.8804 0.77731,-2.78534c0.32123,-0.67377 1.13699,-1.29633 1.63333,-1.79999c0.70526,-0.71567 1.29736,-1.52292 1.70001,-2.20001c0.49673,-0.83527 1.01865,-1.50214 1.66666,-2.16666c0.47989,-0.4921 1.23602,-1.18173 1.59052,-2.03366c0.33429,-0.80334 0.28879,-1.57718 0.52948,-2.76767c0.13895,-0.68729 0.31839,-1.39743 0.60001,-2.064c0.521,-1.23312 0.97992,-1.6745 1.4035,-2.41617c0.53534,-0.93732 0.63449,-1.77914 0.758,-2.59918c0.15573,-1.03397 0.36731,-1.72595 0.75317,-2.55133c0.47375,-1.01337 0.79517,-1.60309 1.29868,-2.60117c0.29791,-0.59055 0.63998,-1.36057 1.29999,-2.16415c0.64462,-0.78482 1.15607,-1.38309 1.62085,-2.13602c0.4671,-0.75671 1.18933,-1.06308 2.09381,-1.69867c0.59827,-0.42041 1.50882,-0.78284 2.28534,-1.22665c0.72394,-0.41376 1.37292,-0.96661 1.93335,-1.57468c0.56793,-0.61621 1.64603,-0.8761 2.328,-1.02533c0.88205,-0.19302 1.58932,-0.42133 2.33331,-0.73633l1.03467,-0.72101l0.42902,-0.49649l0.74033,-0.8515" id="svg_18" stroke-width="2" stroke="#000" fill="none"/>
  <path t="55782,55904,55904,55904,55904,55915,55915,55915,55931,55931,55931,55939,55939,55939,55950,55950,55950,55950,55965,55965,55965,55965,55965,55965,55982,55982,55982,55982,55982,55982,55982,55982,55987,55987,55987,55987,55988,55988,55999,56000,56000,56000,56000,56017,56017,56017,56025,56037,56037,56049,56049,56066,56074,56075,56086,56086,56087,56087,56099,56099,56116,56116,56116,56116,56123,56123,56123,56123,56135,56135,56135,56149,56149,56149,56149,56166,56166,56173,56173,56185,56185,56221,56234,56249,56250,56259,56270,56271,56283,56320,56480,56505,56517,56533,56534,56542,56555,56566,56566,56581,56581,56592,56592,56603,56604,56616,56616,56632,56632,56653,56677,56814,56840,56857,56857,56875,56875,56898,56898,56915,56924,56948,56948,56972,57072,57232,57256,57281,57299,57299,57306,57307,57307,57317,57317,57317,57317,57317,57332,57332,57332,57332,57342,57342,57342,57354,57354,57365,57365,57366,57382,57391,57391,57402,57403,57403,57415,57415,57415,57415,57431,57431,57431,57432,57432,57432,57432,57432,57440,57440,57440,57441,57441,57441,57441,57441,57441,57453,57453,57453,57453,57453,57453,57454,57454,57454,57464,57465,57465,57465,57465,57465,57466,57466,57466,57482,57482,57482,57482,57482,57483,57483,57483,57490,57490,57491,57491,57491,57502,57502,57502,57503,57514,57515,57515,57515,57515,57532,57532,57533,57533,57533,57533,57538,57539,57539,57539,57539,57539,57551,57552,57552,57552,57552,57552,57553,57565,57565,57565,57565,57566,57581,57582,57582,57582,57582,57588,57588,57588,57601,57601,57615" d="m309,376.89999c0,3.884 0,4.62534 0,5.37466c0,0.74133 0,2.14001 0,2.78934c0,0.93152 0,1.836 0,2.73151c0,0.8685 0,1.93784 0,2.65634c0,0.7095 0.00861,1.78159 -0.00449,2.767c-0.00986,0.74377 -0.02954,1.5495 -0.16217,2.84784c-0.04657,0.45605 -0.18811,1.39917 -0.33334,2.39581c-0.07578,0.52002 -0.17639,1.05344 -0.33334,2.77084c-0.05563,0.60864 -0.08716,1.23581 -0.14133,2.52798c-0.02765,0.65942 -0.04865,1.3241 -0.078,1.99051c-0.02933,0.66559 -0.16418,2.62683 -0.23267,3.26016c-0.06729,0.62238 -0.23224,1.82602 -0.32532,2.40533c-0.09067,0.56436 -0.383,2.1507 -0.58936,3.10934c-0.09698,0.45062 -0.28281,1.29474 -0.5,2.04999c-0.37067,1.28891 -0.72775,2.026 -1.01465,2.83533c-0.30103,0.84921 -0.51367,1.80652 -0.78534,2.48801c-0.38852,0.97458 -0.38223,1.70728 -0.53601,2.63602c-0.14478,0.87454 -0.59116,1.60385 -0.96399,2.53067c-0.314,0.78049 -0.59225,1.61093 -0.79999,2.14932c-0.47778,1.23831 -0.83136,1.89261 -1.03336,2.85068c-0.16556,0.78522 -0.16022,1.67993 -0.16531,2.31998c-0.00821,1.03464 -0.00134,2.13867 -0.00134,2.888c0,0.74133 0.01453,1.80411 -0.01068,2.78934c-0.01602,0.62564 -0.13638,1.84021 -0.27466,2.43466c-0.20648,0.88779 -0.50543,1.72028 -0.91333,2.716c-0.27344,0.66745 -0.68604,1.67853 -0.76532,2.47467c-0.10352,1.03949 -0.03061,1.80005 -0.03601,2.71066c-0.00534,0.90005 -0.27216,1.71161 -0.80133,2.30002c-0.66165,0.73569 -0.96228,1.55042 -1.224,2.33865c-0.28186,0.84885 -1.8288,1.15762 -1.604,1.86133c0.2814,0.88098 1.45255,-0.46045 2.07199,-1.10001c0.60226,-0.6218 1.25626,-1.21063 1.91452,-1.85181c0.63788,-0.62134 1.02786,-1.22437 1.96399,-1.80551c0.59583,-0.3699 1.27475,-0.77084 1.78418,-1.53732c0.47321,-0.71201 1.36746,-0.75403 2.00931,-1.55734c0.46408,-0.58087 0.98428,-1.56079 1.44934,-2.18799c0.54126,-0.72998 0.75238,-1.60571 1.31467,-2.18134c0.59976,-0.61398 1.29019,-0.37479 1.68533,0.40665c0.38513,0.76163 0.49628,1.7074 0.78867,2.46735c0.33636,0.87421 0.55667,1.75995 1.16818,2.36816c0.61823,0.61487 0.95502,1.2009 1.42648,2.2175c0.3436,0.74088 0.83408,1.81244 1.62735,1.715c0.72391,-0.08893 0.38843,-1.6188 0.48248,-2.41501c0.11423,-0.96719 0.38336,-1.78143 0.51752,-2.38498c0.2919,-1.31305 0.34607,-2.0383 0.39999,-2.78934c0.05557,-0.77432 0.07611,-1.56961 0.24683,-2.76367c0.11365,-0.7948 0.27966,-1.5639 0.483,-2.28601c0.36087,-1.28159 0.68427,-2.04755 0.99551,-2.70532c0.38599,-0.81567 0.86185,-1.58347 1.13333,-2.60901c0.2052,-0.77518 0.23474,-1.52151 0.66666,-2.5c0.3653,-0.82755 0.42603,-1.53632 0.66666,-2.5c0.20694,-0.8288 0.55972,-1.44849 0.9335,-2.42233c0.32999,-0.85977 0.54279,-1.56628 0.78519,-2.40567c0.28964,-1.00293 0.43069,-1.58127 0.78531,-2.86234c0.19409,-0.70123 0.40656,-1.43658 0.64801,-2.19897c0.25095,-0.79239 0.508,-1.61478 1.18134,-3.27734c0.34872,-0.86105 0.74777,-1.72 1.17151,-2.58151c0.42822,-0.87061 0.8847,-1.73444 1.3605,-2.59048c0.47522,-0.85501 0.95798,-1.70062 1.96799,-3.328c0.49304,-0.79443 0.99576,-1.56326 1.49551,-2.31451c0.49097,-0.73804 0.98239,-1.45718 1.46848,-2.1615c0.4776,-0.69202 0.953,-1.36771 1.86935,-2.69064c0.44611,-0.64404 0.88037,-1.27841 1.30499,-1.90051c0.41537,-0.60858 0.81967,-1.20389 1.215,-1.78351c0.3847,-0.56403 0.7562,-1.11331 1.48001,-2.14932c0.34335,-0.49142 0.67953,-0.96265 1.00949,-1.41449c0.31943,-0.43747 0.63416,-0.858 0.9465,-1.26151c0.30408,-0.39279 1.20273,-1.49774 1.80933,-2.17068c0.5831,-0.64688 1.16333,-1.24197 1.716,-1.79999c0.76105,-0.7684 1.25983,-1.21655 1.87466,-1.98401c0.43234,-0.53964 1.02167,-1.56161 1.41068,-2.36966c0.20584,-0.42755 0.59854,-1.32965 1,-2.25168c0.39853,-0.91528 0.80054,-1.7984 1.19998,-2.66666c0.20029,-0.43536 0.6055,-1.32214 0.80002,-1.784c0.61765,-1.46643 0.80264,-2.00085 1.21066,-3.10266c0.21085,-0.56943 0.42026,-1.15128 0.64648,-1.737c0.69406,-1.79706 0.96124,-2.39172 1.22552,-2.987c0.26273,-0.59177 0.7963,-1.74161 1.056,-2.29602c0.25134,-0.53659 0.93271,-2.00598 1.29333,-2.85333c0.32153,-0.75555 0.59616,-1.46967 0.93597,-2.13599c0.53973,-1.05835 1.02969,-1.77118 1.55286,-2.47699c0.25858,-0.34885 0.74042,-1.04617 1.79248,-1.987c0.61432,-0.54938 1.20001,-0.936 1.9295,-1.70285l0.45267,-0.642l0.78366,-0.689" id="svg_19" stroke-width="2" stroke="#000" fill="none"/>
  <path t="58705,58858,58858,58858,58874,58875,58875,58875,58875,58875,58875,58885,58885,58885,58885,58885,58885,58885,58900,58900,58900,58900,58901,58901,58901,58905,58906,58906,58906,58906,58906,58906,58906,58916,58916,58917,58917,58917,58917,58917,58917,58917,58932,58932,58932,58933,58933,58933,58933,58933,58933,58947,58948,58948,58948,58948,58948,58948,58948,58948,58954,58954,58954,58966,58967,58967,58981,58981,58991,58991,59003,59016,59031,59031,59043,59044,59044,59053,59053,59053,59065,59065,59065,59065,59065,59066,59066,59081,59082,59082,59082,59082,59082,59090,59090,59091,59091,59091,59091,59102,59103,59103,59103,59114,59115,59115,59132,59132,59132,59139,59139,59150,59176,59176,59262" d="m355,368.89999c1.43765,0.94284 2.12488,0.98605 2.93234,0.99551c1.40091,0.01642 1.91064,0.00449 2.98199,0.00449c0.55765,0 1.12732,0 2.29468,0c0.59366,0 1.79099,0 2.991,0c0.59998,0 1.19998,0 2.39999,0c0.60001,0 1.19998,0.00165 3.00034,-0.00015c0.60233,-0.00061 1.20874,0.00232 2.44131,-0.02066c0.6304,-0.01175 1.27292,-0.03085 1.92902,-0.06451c1.36331,-0.06995 2.80307,-0.19748 3.55267,-0.27634c0.77042,-0.08105 1.56046,-0.17645 2.37,-0.285c0.83047,-0.11136 1.68152,-0.23059 3.44,-0.51999c0.91031,-0.14981 1.83618,-0.31635 2.77649,-0.48599c0.95169,-0.17169 1.9108,-0.34848 2.87549,-0.522c0.96631,-0.1738 1.93021,-0.35245 3.84802,-0.65866c0.94348,-0.15063 1.87439,-0.28333 2.78699,-0.40952c0.89008,-0.12308 1.7547,-0.23608 2.58899,-0.3465c0.80038,-0.10593 1.56421,-0.19897 2.95734,-0.41068c0.6264,-0.09518 1.20572,-0.19669 1.74301,-0.2955c0.5,-0.09195 0.96524,-0.18414 1.401,-0.26849c0.40958,-0.07928 0.79163,-0.19608 2.20267,-0.35068c0.63806,-0.06992 1.52499,-0.08307 2.56534,-0.08533c0.92133,-0.00201 1.60532,0 2.604,0c0.79648,0 1.98398,-0.00214 2.77567,0c0.83716,0.00226 1.39777,0.55524 2.11234,1.20001c0.56705,0.51169 1.41547,0.83026 2.23999,1.18933c0.63666,0.27725 1.87888,0.52628 2.45734,0.59601c1.00836,0.12152 2.23361,0.34134 2.69632,0.45749c1.00641,0.25259 1.53329,0.41751 2.07733,0.578c1.11526,0.32901 1.67184,0.51544 3.33701,0.95767c0.53574,0.14227 1.59528,0.38895 2.12134,0.50067c1.05124,0.22324 1.58328,0.32355 2.66666,0.52081c1.11392,0.20285 1.67621,0.30038 2.79169,0.47919c0.54395,0.08719 1.58542,0.24866 2.54166,0.35416c0.8428,0.09299 1.93735,0.1528 2.58649,0.16217c1.21323,0.01749 2.10284,0.00449 2.67752,0.00449c1.06934,0 2,0 2.83466,0c0.99683,0 1.74417,0 2.776,0l0.94666,0l0.67868,0l0.97849,0" id="svg_20" stroke-width="2" stroke="#000" fill="none"/>
  <path t="60261,60396,60409,60425,60425,60439,60449,60449,60457,60468,60482,60482,60498,60499,60505,60505,60505,60505,60517,60517,60517,60518,60531,60531,60531,60531,60531,60531,60547,60547,60547,60547,60547,60547,60555,60555,60555,60555,60555,60555,60566,60566,60566,60566,60566,60582,60582,60582,60582,60582,60598,60598,60604,60604,60616,60616,60631,60652,60665,60665,60681,60681,60690,60690,60702,60702,60702,60715,60715,60715,60730,60731,60739,60740,60740,60752,60752,60765,60765,60765,60781,60782,60782,60788,60788,60801,60801,60816,60816,60833,60833,60838,60838,60849,60849,60865,60865,60866,60866,60882,60882,60882,60882,60882,60882,60886,60887,60887,60887,60887,60887,60887,60899,60899,60899,60899,60900,60900,60915,60915,60915,60924,60924,60924,60936,60948,60948,60966,60966,60974,60986,60986,60998,61014,61014,61014,61022,61022,61022,61022,61034,61034,61035,61035,61035,61035,61048,61048,61048,61048,61048,61048,61064,61065,61065,61065,61065,61065,61072,61072,61072,61096,61096,61115" d="m495,292.89999c0,1.80002 0.04416,2.66388 -0.28534,3.48267c-0.33966,0.84402 -1.28049,1.3522 -1.63065,2.08533c-0.31866,0.66724 -0.70972,1.41898 -1.48401,1.85736c-0.81827,0.46329 -1.50595,0.71555 -2.26166,1.28448c-0.60226,0.45343 -1.49832,1.13629 -2.29102,1.54199c-0.54291,0.27786 -1.41266,0.65723 -2.12616,1.29135c-0.76447,0.67944 -1.17511,1.32019 -1.69052,1.94482c-0.86124,1.04373 -1.19751,1.39963 -1.892,2.14801c-0.35822,0.38602 -1.09442,1.16489 -1.45599,1.56534c-1.073,1.18842 -1.40854,1.59256 -2.04666,2.41998c-0.32083,0.41602 -0.94,1.28748 -1.23468,1.74933c-0.92825,1.4549 -1.20218,1.99478 -1.49683,2.53018c-0.29605,0.53793 -0.86676,1.6134 -1.14734,2.13666c-0.78564,1.46512 -1.03,1.90146 -1.5,2.6955c-0.43115,0.72842 -0.86542,1.40326 -1.45715,2.43369c-0.40753,0.70966 -0.7868,1.43869 -1.164,2.13599c-0.34833,0.64395 -0.87817,1.70969 -1.46133,2.26532c-0.7717,0.73529 -1.6734,0.95203 -2.13184,1.75317c-0.42569,0.74393 -0.82385,1.50055 -1.24283,2.22052c-0.49503,0.85065 -0.63773,1.61246 -0.91599,2.57431c-0.21848,0.75519 -0.4314,1.54581 -0.78851,2.28851c-0.48236,1.00323 -0.80988,1.61002 -1.09549,2.28082c-0.42145,0.98984 -0.68832,1.81906 -1,2.63068c-0.38565,1.0043 -0.69891,1.66373 -1.20001,2.68399c-0.29486,0.60031 -0.72992,1.38031 -0.91467,2.39999c-0.14325,0.79062 -0.08533,1.80017 -0.08533,2.62085c0,0.66449 0,1.66318 0,2.47916c0,0.81601 0,2.04285 0,2.68933c0,1.0105 0,1.97467 0,2.92667c0,0.76801 -0.05188,1.7287 0.08533,2.48535c0.18448,1.01724 0.56427,1.57889 0.79333,2.59882c0.18179,0.80945 0.27905,1.96863 0.40668,2.48917c0.22015,0.89792 0.43878,1.58209 0.71466,2.81067c0.21393,0.9527 0.30582,1.46982 0.47916,2.5625c0.09021,0.5687 0.19122,1.14828 0.35419,2.9375c0.05457,0.59909 0.08643,1.19849 0.14133,2.38934c0.02719,0.58975 0.03757,1.17538 0.10934,2.32532c0.06989,1.11954 0.19485,2.1983 0.27316,2.71918c0.15118,1.00562 0.23898,1.48663 0.44415,2.39417c0.27887,1.23346 0.50873,1.94925 0.76266,2.91467c0.2858,1.08649 0.39929,1.79456 0.43152,2.59567c0.04166,1.03558 0.15778,2.01834 0.52533,2.64084c0.49323,0.8353 1.30942,1.16336 1.87915,1.87149c0.63492,0.78915 1.39609,1.06812 2.10001,1.69101c0.5994,0.5304 0.92743,1.29248 1.29999,2.14499c0.43228,0.98917 0.61105,1.57803 0.80002,2.23199c0.21246,0.7352 0.50928,2.04404 0.6955,3.05283c0.09888,0.53558 0.19528,1.08942 0.34732,2.242c0.07779,0.58975 0.23877,2.38617 0.27316,2.98517c0.03427,0.59668 0.08286,1.78058 0.10934,2.36533c0.02621,0.57892 0.13474,2.27005 0.19601,2.81403c0.11859,1.05286 0.20087,1.55447 0.35333,2.50333c0.13849,0.86179 0.33005,1.95193 0.38931,2.81067c0.06229,0.9025 0.03601,1.9035 0.03601,2.65082l0.01068,1.0105" id="svg_21" stroke-width="2" stroke="#000" fill="none"/>
  <path t="61986,62168,62189,62189,62194,62194,62205,62206,62206,62206,62215,62216,62216,62216,62216,62216,62216,62231,62231,62231,62231,62231,62231,62248,62248,62248,62249,62249,62253,62253,62254,62265,62265,62265,62281,62281,62290,62302,62314,62314,62331,62340,62351,62364,62364,62382,62388,62388,62401,62401,62414,62414,62430,62431,62462,62462,62661,62674,62689,62705,62705,62705,62710,62711,62711,62723,62733,62733,62748,62845,62846,62894,62931,62955,62970,62986,62986,62998,63004,63079,63080,63091,63092,63106,63106,63116,63116,63132,63141,63263,63289,63304,63305,63317,63317,63324,63324,63324,63336,63336,63336,63347,63347,63348,63373,63373,63385,63385,63397,63414,63414,63422,63423,63434,63447,63447,63464,63465,63465,63465,63472,63472,63472,63484,63484,63484,63497,63497,63498,63498,63514,63514,63514,63522,63522,63522,63522,63522,63533,63533,63533,63534,63548,63548,63549,63549,63558,63558,63558,63570,63570,63570,63583,63583,63599,63599,63608,63620,63620,63631,63631,63632,63649,63649,63649,63657,63657,63657,63669,63670,63670,63670,63681,63681,63706,63706,63718,63718,63732,63732,63748,63748,63767,63782,63891,63915,63915,63940" d="m474,422.89999c-1.60001,0.61069 -2.27377,1.3381 -2.88535,1.80002c-0.73776,0.55722 -1.38101,0.8107 -2.11465,1.53333c-0.65387,0.64404 -1.02628,1.25598 -1.39999,1.94717c-0.64639,1.19553 -0.81076,1.67978 -1.20001,2.69098c-0.20569,0.53433 -0.60135,1.66006 -0.79999,2.242c-0.20139,0.59006 -0.59772,1.78726 -1,2.98251c-0.19888,0.59088 -0.39163,1.17502 -0.80002,2.29599c-0.19598,0.53796 -0.79291,2.01132 -0.99982,2.44351c-0.38266,0.79935 -0.78851,1.49692 -1.14301,2.151c-0.65268,1.20425 -0.90561,1.80676 -1.24649,2.67749c-0.41757,1.06665 -0.67935,1.79059 -1.01068,2.38934c-0.54831,0.99091 -1.00952,1.55695 -1.42532,2.44666c-0.38074,0.81467 -0.89853,1.49399 -1.57468,1.96399c-0.80579,0.56009 -1.32111,1.11035 -1.836,1.836c-0.47653,0.67157 -0.92828,1.33719 -1.58484,2.07919c-0.55368,0.62573 -1.5907,0.58261 -2.22198,1.23065c-0.54816,0.56268 -1.07721,1.52228 -1.45718,2.04285c-0.63919,0.8757 -0.99951,1.65134 -1.62115,2.22583c-0.60724,0.56116 -1.95517,1.34436 -1.39349,1.93616c0.56387,0.59412 1.70844,-0.25299 2.13599,-0.776c0.54156,-0.66245 1.33771,-1.27191 2.07867,-1.61783c0.72369,-0.33786 1.61859,-0.93524 2.5,-1.35416c0.66257,-0.31491 1.48029,-0.70847 2.20001,-1.36536c0.58447,-0.53348 1.61243,-1.19266 2.36398,-0.76532c0.69168,0.39328 0.40747,1.60052 0.43735,2.44666c0.02856,0.80893 0.67172,1.47232 1.02399,2.164c0.48138,0.94522 0.67331,1.76276 1.29599,2.33185c0.62253,0.56897 1.54099,0.98615 2.15784,1.52148c0.75888,0.6586 1.15717,1.27133 1.92084,1.88934c0.74368,0.60184 1.28952,1.35812 2.03601,1.564c0.88651,0.24451 1.42722,-0.80304 1.8595,-1.61499c0.40988,-0.76984 0.59293,-1.75858 0.67917,-2.56366c0.08795,-0.82101 0.21811,-1.86282 0.46133,-2.54935c0.32727,-0.92371 0.66095,-1.64767 0.96399,-2.44c0.29703,-0.77667 0.79877,-1.81686 1.20001,-2.39999c0.59814,-0.86929 0.78857,-1.80487 1.69998,-2.271c0.80905,-0.41379 1.61002,-0.13959 2.52536,-0.55035c0.71283,-0.31989 1.5415,-0.96097 2.17465,-1.564c0.54413,-0.51825 1.32709,-1.17548 2.00983,-1.65265c0.50647,-0.35397 1.30225,-0.87213 2.30484,-1.46335c0.66107,-0.38983 1.31564,-0.72809 2.08533,-1.37067c0.62741,-0.5238 1.22162,-1.18286 1.79984,-1.93481c0.61292,-0.79706 0.98569,-1.37692 1.31485,-1.97986c0.64285,-1.17758 0.87018,-1.80228 1.18082,-2.75583c0.3266,-1.00256 0.50549,-1.72656 0.7045,-2.46817c0.20099,-0.74905 0.39102,-1.49326 0.80002,-2.892c0.19571,-0.66928 0.40887,-1.34155 0.59998,-2.052c0.31451,-1.16931 0.5033,-2.02991 0.67917,-2.90982c0.17126,-0.85684 0.36133,-2.01996 0.43683,-2.66483c0.0928,-0.79254 0.19699,-1.87643 0.52002,-2.64536c0.31454,-0.74872 0.89853,-1.43231 1.36398,-2.09467c0.63855,-0.90866 1.02121,-1.608 1.164,-2.49066c0.15134,-0.93552 -0.00113,-1.67603 0.20267,-2.79199c0.14511,-0.79459 0.45126,-1.59836 0.66669,-2.66666c0.14291,-0.7088 0.14255,-1.40115 0.388,-2.58817c0.17001,-0.82227 0.40057,-1.37988 0.612,-2.57852c0.10495,-0.59497 0.155,-1.479 0.16531,-2.31467c0.01233,-0.99994 0.00134,-1.87466 0.00134,-2.88531c0,-0.80002 -0.05313,-1.80252 0.01068,-2.58936c0.08533,-1.05212 0.52634,-1.67496 1.18799,-2.41064c0.52917,-0.58841 0.84351,-1.50598 1.30133,-2.30002c0.40671,-0.70541 0.7215,-1.59982 1.30133,-2.21466l0.79868,-0.27466" id="svg_22" stroke-width="2" stroke="#000" fill="none"/>
  <path t="64929,65059,65059,65071,65071,65083,65084,65084,65097,65097,65115,65121,65133,65133,65148,65148,65164,65170,65182,65182,65182,65198,65198,65199,65216,65216,65216,65216,65216,65220,65220,65220,65220,65220,65220,65232,65232,65233,65233,65233,65233,65233,65233,65249,65249,65249,65249,65249,65249,65257,65257,65257,65257,65257,65269,65269,65269,65269,65281,65281,65281,65298,65298,65298,65306,65306,65306,65317,65342,65342,65355,65355,65355,65367,65380,65380,65398,65398,65405,65405,65405,65416,65416,65432,65432,65432,65448,65448,65448,65453,65454,65454,65465,65465,65466,65481,65481,65481,65491,65491,65514" d="m503,396.89999c0.97467,-1.836 1.01355,-2.62332 1.35718,-3.60001c0.28943,-0.82269 0.74283,-1.59998 1.14282,-2.39999c0.29999,-0.60001 0.83835,-1.57703 1.14282,-2.34283c0.35049,-0.88156 0.16003,-1.97308 0.69052,-2.65717c0.51068,-0.65851 1.36575,-1.13007 1.74933,-1.79999c0.46146,-0.80594 1.45062,-1.0798 2.01733,-1.86435c0.41016,-0.56784 0.57291,-1.40302 1.00034,-2.41449c0.30206,-0.71481 0.698,-1.44128 1.23297,-2.25449c0.42487,-0.64578 0.93652,-1.34027 1.48804,-2.08801c0.28656,-0.38849 1.17395,-1.58228 1.78265,-2.37866c0.30713,-0.40182 0.95068,-1.20688 1.30402,-1.60001c0.73212,-0.81454 1.58643,-1.60654 2.05634,-1.99982c0.48468,-0.40564 1.53015,-1.19351 2.07733,-1.57935c0.55151,-0.38885 1.112,-0.7677 1.677,-1.1355c1.65204,-1.07544 2.19336,-1.40082 2.71967,-1.72366c1.01746,-0.62411 1.51306,-0.91821 2,-1.20001c1.38965,-0.8042 2.27454,-1.27713 2.69995,-1.50449c0.81921,-0.43784 1.60791,-0.83859 2.69501,-1.45718c0.68506,-0.38983 1.3194,-0.79034 1.92004,-1.164c1.07886,-0.67111 1.78375,-1.0997 2.47198,-1.42532c0.92834,-0.43924 1.74457,-0.66748 2.51331,-1.04666c0.95874,-0.47293 1.39417,-1.05756 1.95233,-1.65417c0.6618,-0.70743 1.63831,-0.9137 2.32983,-1.23065c0.99103,-0.45422 1.59412,-0.74484 2.32202,-1.17917c0.92676,-0.55301 1.66272,-1.11496 2.41431,-1.35269c0.90729,-0.28699 1.48486,-0.5502 2.44287,-1.26849c0.62158,-0.46603 1.14661,-1.07568 2,-1.436c0.76483,-0.32294 1.81836,-0.36105 2.61066,-0.68948c0.66431,-0.27539 1.6123,-0.87204 2.41467,-1.37866c0.55048,-0.34753 1.60742,-1.00888 2.08929,-1.29068c0.87372,-0.51096 1.70026,-1.03296 2.28534,-1.54117c0.61627,-0.53534 1.40741,-1.33557 1.99103,-1.93832c0.54395,-0.56183 1.16614,-1.383 1.45715,-2.10001l0.45184,-0.8045" id="svg_23" stroke-width="2" stroke="#000" fill="none"/>
  <path t="74681,74869,74874,74874,74874,74884,74884,74884,74884,74884,74884,74884,74899,74900,74900,74900,74900,74900,74900,74900,74900,74914,74914,74914,74914,74914,74914,74914,74914,74914,74921,74921,74921,74921,74921,74921,74921,74933,74934,75095,75095,75487,75488,75499,75500,75513,75513,75513,75513,75513,75525,75525,75525,75525,75525,75525,75525,75536,75536,75537,75537,75537,75537,75537,75537,75537,75548,75548,75548,75548,75548,75548,75549,75549,75563,75564,75564,75564,75564,75564,75564,75564,75564,75580,75580,75580,75581,75581,75581,75581,75581,75581,75585,75586,75586,75586,75586,75586,75586,75586,75586,75598,75598,75598,75598,75598,75599,75599,75599,75599,75614,75614,75614,75614,75614,75614,75614,75614,75615,75623,75623,75623,75623,75624,75624,75624,75624,75624,75895,75896,75907,75908,75919,75919,75919,75919,75930,75930,75931,75931,75948,75948,75957,75957,75957,75968,75968,75981,76005,76005,76017,76041,76054,76054,76066,76090,76091,76116,76116,76130,76301,76320,76337,76350,76350,76350,76374,76374,76398,76414,76435,76460,76485,76497,76497,76521,76534,76585,76609,76623,76710,76731,76732,76744,76772,76793,76805,76805,76817,76829,76846,76855,76856,76866,76880,76880,76881,76897,76897,76897,76897,76898,76904,76904,76904,76904,76904,76905,76916,76916,76916,76916,76916,76930,76930,76930,76930,76947,76947,76948,76948,76953,76953,76953,76954,76964,76964,76980,76980,76997,76997,77002,77002,77002,77014,77014,77030,77030,77031,77039,77040,77050,77050,77050,77063,77063,77064,77064,77081,77081,77081,77081,77082,77082,77088,77088,77088,77088,77100,77100,77100,77101,77114,77114,77114,77130,77130,77131,77150,77150,77187,77211,77212,77231,77236,77248,77265,77265,77273,77273,77274,77285,77285,77286,77298,77298,77298,77313,77314,77314,77314,77322,77322,77322,77323,77334,77334,77334,77335,77346,77347,77347,77364,77364,77372,77372,77435,77454,77455,77460,77461,77478,77478,77479,77488,77532,77533,77558,77558,77583,77583,77598" d="m530,366.89999c0,1.672 -0.01306,2.77548 0.02136,3.30402c0.06378,0.97885 0.30664,2.19727 0.42145,2.66132c0.25525,1.03168 0.4209,1.59537 0.578,2.20135c0.16711,0.64465 0.52057,2.05945 0.8125,3.66666c0.15826,0.87137 0.28644,1.78867 0.40955,2.73898c0.12634,0.97501 0.2384,1.96915 0.3465,2.97302c0.10822,1.00543 0.20587,2.00568 0.41064,3.95465c0.09821,0.93484 0.19812,1.8374 0.29547,2.70599c0.09332,0.83273 0.18439,1.62726 0.26855,2.38202c0.07947,0.71259 0.15845,1.38055 0.26929,2.57867c0.04858,0.52536 0.0838,1.00516 0.1095,1.44299c0.02344,0.39954 0.04388,0.7652 0.05585,1.69833c0.01581,1.23474 -0.04382,1.89963 0.22266,2.89182c0.21472,0.79935 0.71356,1.7724 0.77417,2.55286c0.07074,0.91077 0.00928,1.53 0.00452,2.58066c-0.00452,0.99454 -0.02655,1.77222 -0.11432,2.64716c-0.04803,0.4791 -0.32306,2.0853 -0.4577,2.67551c-0.14075,0.61691 -0.30341,1.25406 -0.49048,1.90649c-0.38861,1.35541 -0.61237,2.04608 -1.10419,3.4375c-0.24823,0.70221 -0.51508,1.40009 -0.79047,2.09552c-0.27527,0.69525 -0.56091,1.38486 -0.85352,2.06848c-0.29108,0.68002 -0.58203,1.35464 -1.48932,3.31519c-0.29718,0.64212 -0.60193,1.28076 -0.90002,1.92749c-0.30188,0.65494 -0.60437,1.32477 -0.89996,2.01749c-0.30463,0.71393 -0.90521,2.24063 -1.2002,3.06183c-0.30658,0.85342 -0.60614,1.74207 -0.91052,2.65802c-0.31195,0.93872 -0.62396,1.89911 -0.94647,2.87399c-0.32678,0.98779 -1.00507,2.98358 -1.3645,3.98199c-0.36053,1.00162 -0.73566,2.00168 -1.125,3c-0.39069,1.00171 -0.79578,2.00177 -1.21503,3c-0.42078,1.0018 -1.30109,3.00177 -1.75964,3.99951c-0.4588,0.99829 -0.92816,1.98856 -1.40399,2.96851c-0.4715,0.97101 -0.94666,1.92535 -1.422,2.8605c-0.46606,0.91684 -1.38354,2.67276 -1.83099,3.5065c-0.43268,0.80624 -0.85736,1.58145 -1.27502,2.32498c-0.40247,0.71643 -0.79706,1.40173 -1.185,2.05499c-0.37219,0.62668 -1.09238,1.78668 -1.43982,2.32034c-0.33136,0.50894 -0.65536,0.98889 -0.96451,1.44601c-0.29453,0.43552 -0.577,0.84912 -0.8385,1.24799c-0.24905,0.37988 -0.68991,1.10159 -0.87601,1.44882c-0.17773,0.3316 -0.33353,0.65543 -0.48148,0.96451c-0.14102,0.29459 -0.272,0.57675 -0.40952,0.8385c-0.13074,0.24884 -0.66321,1.82578 -1.31851,1.4895c-0.35602,-0.18268 0.51108,-0.98007 1.06668,-1.80399c0.41904,-0.62143 0.79709,-1.31326 1.164,-2.01602c0.68387,-1.30984 0.93164,-1.89108 1.336,-2.60898c0.36588,-0.64957 1.16089,-1.63464 1.67465,-2.24167c0.66949,-0.79099 1.05545,-1.40341 1.52084,-2.14285c0.49115,-0.78036 1.10419,-1.45609 1.70453,-2.05716c0.69946,-0.70035 1.2428,-1.29999 1.59998,-2.10001c0.35718,-0.79999 1.08936,-1.42709 1.56403,-2.10001c0.51837,-0.7348 0.66272,-1.66656 1.32263,-2.19998c0.70947,-0.57352 1.53729,-0.66641 2.46667,-1.17468c0.73102,-0.39975 1.2691,-1.14227 2.06799,-1.004c0.94977,0.1644 1.57861,0.69318 2.328,1.12802c0.91095,0.52856 1.82312,0.64133 2.54614,1.20782c0.74329,0.5824 1.18719,1.25031 1.6192,1.92816c0.49377,0.77481 0.38617,1.76547 0.73267,2.41467c0.45337,0.84937 0.44214,1.71738 0.92731,2.32532c0.49841,0.62448 -0.50262,2.50269 0.42535,2.50269c0.6947,0 -0.2923,-1.47842 0.284,-2.35867c0.46198,-0.70557 0.55225,-1.42664 0.93732,-2.26935c0.30579,-0.66928 0.76801,-1.5 0.77869,-2.39999c0.01068,-0.89999 0.27631,-1.70786 0.80133,-2.29999c0.66656,-0.75183 1.02686,-1.53424 1.19464,-2.47202c0.09839,-0.54987 0.4751,-1.74603 0.86005,-2.33066c0.42133,-0.63992 0.98395,-1.26288 1.54797,-1.96799c0.60461,-0.75586 1.19873,-1.59467 1.49152,-2.03467c0.5918,-0.88931 0.86853,-1.34396 1.41913,-2.22668c0.76416,-1.2251 1.23096,-1.95932 1.46002,-2.30667c0.44727,-0.67825 0.90417,-1.34769 1.64648,-2.38248c0.52338,-0.72964 1.06421,-1.45361 1.56903,-2.16901c0.68494,-0.97061 1.03131,-1.54718 1.50983,-2.289c0.45801,-0.71002 1.03363,-1.4501 1.50531,-1.96899c0.73022,-0.80325 1.21454,-1.29483 2.02533,-2.08118c0.57556,-0.5582 1.51172,-1.09317 2.10803,-1.60666c0.69971,-0.60254 0.75104,-1.4296 1.19464,-2.36401c0.30115,-0.63428 1.0907,-1.26776 1.49738,-2.11734c0.38361,-0.80139 0.43469,-1.65738 0.69012,-2.38266c0.26038,-0.73941 0.82391,-1.66754 1.27917,-2.46799c0.44366,-0.78009 0.70728,-1.58759 0.84283,-2.19818c0.29822,-1.34314 0.30579,-2.0954 0.35718,-2.87549c0.05402,-0.81992 0.16095,-2.12573 0.2215,-2.5795c0.12396,-0.92865 0.29529,-1.8588 0.38916,-2.3175c0.18286,-0.89365 0.4718,-2.12354 0.69385,-2.84698c0.30719,-1.00079 0.54138,-1.63217 1.18085,-2.81436c0.33063,-0.61124 0.7226,-1.20178 1.11597,-1.79999c0.79053,-1.20227 1.2005,-1.77591 1.52667,-2.36401c0.58075,-1.04706 0.74188,-1.78281 0.92017,-2.63147c0.21185,-1.00851 0.64636,-1.73383 0.86652,-2.71918c0.19391,-0.86804 0.10333,-1.68552 0.08533,-2.58533c-0.01801,-0.90057 -0.54376,-1.65787 -0.83331,-2.46667c-0.29333,-0.81934 -0.32452,-1.83621 -0.59204,-2.64401c-0.2149,-0.64886 -0.48102,-1.60837 -0.53864,-2.42532c-0.06116,-0.86691 -0.02789,-2.06412 -0.04053,-2.664c-0.01898,-0.90033 -0.13867,-2.10519 -0.28217,-2.70001c-0.21942,-0.90933 -0.43298,-1.52051 -1.03479,-2.70016c-0.31415,-0.61578 -0.70239,-1.21881 -1.08301,-1.85699c-0.60034,-1.00662 -0.99536,-1.72351 -1.38483,-2.44684c-0.37585,-0.69806 -1.02411,-1.90933 -1.45355,-2.52899c-0.43298,-0.62473 -0.94269,-1.35959 -1.35712,-2.04166c-0.57874,-0.95242 -0.92572,-1.5849 -1.46136,-2.42535c-0.4231,-0.66382 -1.3446,-1.10226 -1.9173,-1.72131c-0.58118,-0.62823 -1.1593,-1.54984 -1.84668,-2.04266c-0.50256,-0.36032 -1.4314,-0.9213 -2.17468,-1.63602c-0.5097,-0.49011 -1.20001,-1.20132 -1.70001,-1.75717l-0.49866,-0.72681l-0.44415,-0.86334l-0.29999,-0.89551" id="svg_24" stroke-width="2" stroke="#000" fill="none"/>
 </g>
 <g display="none">
  <title>muse_image</title>
  <image xlink:href="http://farm1.static.flickr.com/49/169690365_3d580daf04.jpg" id="muse" height="480" width="628" y="0" x="6"/>
 </g>
 <g display="none">
  <title>bbox</title>
  <rect stroke="#f00" fill="none" stroke-width="3" height="238.74346" width="391.872" y="120.62827" x="124.064" id="bbox"/>
 </g>
</svg>
