<svg width="640" height="480" xmlns="http://www.w3.org/2000/svg" xmlns:svg="http://www.w3.org/2000/svg" xmlns:xlink="http://www.w3.org/1999/xlink">
 <!-- Sketchy ANNOTATION
  ImageNet ID: n02395406_3718
  URL: http://static.flickr.com/71/220631094_879be281b2.jpg
  Image Width: 500
  Image Height: 446
  BBox X: 106
  BBox Y: 177
  BBox Width: 349
  BBox Height: 232
  Exposure: 2000ms
  Synset Label: pig
  Synset ID: n02395406
  Worker Tag: a pig
  Sanity Check: 
   Saved
  Comment: 
   {}
  Worker ID: AI16JQPI42EKR
  Assignment ID: 3U8YCDAGXPGT0EZN9UXE4434OOP0Q2
  HIT ID: 3TC2K6WK9G2S304BCLFQCHGYM7J82I
  Work Time: 379s
  Worker Score: 0.7857
 END ANNOTATION -->
 <g display="inline">
  <title>Layer 1</title>
  <path t="0,132,148,148,170,187,188,188,202,202,219,219,236,236,236,252,252,252,270,270,287,287,287,302,302,302,319,319,337,337,352,353,369,369,386,386,386,402,419,419,436,436,436,452,452,452,469,470,486,487,487,487,502,502,520,520,520,536,536,552,552,552,569,569,586,586,586,602,602,602,619,619,619,636,636,652,652,652,652,669,669,669,686,686,686,702,702,702,702,719,719,719,736,736,752,752,752,769,769,790,790,790,803,803,819,819,836,836,836,852,852,869,869,869,886,886,886,886,886,919,919,919,919,919,919,936,936,936,936,936,936,952,952,952,952,969,969,969,986,986,986,1002,1002,1002,1019,1019,1036,1036,1036,1052,1052,1052,1069,1069,1086,1086,1086,1102,1102,1102,1119,1119,1119,1136,1136,1136,1136,1152,1152,1169,1169,1169,1186,1186,1202,1202,1202,1219,1219,1236,1236,1236,1252,1253,1269,1269,1269,1286,1286,1286,1302,1302,1302,1302,1302,1319,1319,1319,1335,1335,1335,1335,1352,1352,1352,1352,1369,1369,1369,1385,1385,1385,1385,1402,1402,1402,1419,1419,1419,1435,1435,1452,1452,1452,1469,1469,1469,1485,1485,1502,1502,1502,1502,1502,1519,1519,1519,1519,1535,1535,1535,1536,1552,1552,1552,1552,1553,1569,1569,1569,1585,1585,1585,1585,1602,1602,1602,1602,1619,1619,1619,1635,1635,1635,1635,1652,1652,1652,1669,1669,1669,1669,1685,1685,1685,1685,1702,1702,1702,1719,1719,1719,1719,1735,1735,1735,1752,1752,1752,1769,1769,1769,1785,1785,1785,1802,1802,1802,1802,1819,1819,1819,1835,1835,1835,1835,1852,1852,1852,1852,1869,1869,1885,1886,1886,1902,1903,1903,1919,1919,1935,1935,1936,1952,1952,1952,1969,1969,1985,1986,1986,2002,2002,2019,2019,2035,2035,2052,2052,2069,2085,2085,2085,2102,2102,2119,2135,2135,2152,2152,2169,2169,2185,2186,2202,2202,2219,2235,2236,2252,2252,2269,2270,2286,2286,2286,2302,2302,2319,2319,2335,2352,2369,2385,2386,2402,2419,2419,2435,2452,2469,2469,2487,2487,2487,2502,2503,2519,2519,2535,2535,2536,2552,2569,2569,2569,2585,2585,2585,2602,2602,2619,2636,2636,2652,2652,2669,2669,2685,2686,2702,2702,2702,2719,2735,2752,2752,2769,2769,2785,2785,2802,2802,2819,2835,2836,2852,2852,2869,2885,2886,2886,2902,2919,2919,2936,2952,2973,2973,2986,3002,3019,3019,3035,3036,3054,3054,3069,3085,3102,3119,3119,3135,3135,3152,3152,3169,3189,3202,3221,3238,3238,3254,3269,3285,3302,3302,3319,3319,3319,3335,3335,3352,3352,3369,3385,3385,3402,3402,3419,3436,3436,3452,3453,3453,3469,3469,3485,3486,3486,3486,3502,3502,3519,3519,3535,3535,3552,3552,3569,3569,3585,3585,3602,3602,3619,3619,3635,3635,3652,3652,3669,3669,3685,3686,3686,3702,3702,3722,3722,3738,3738,3739,3754,3754,3772,3773,3788,3788,3804,3804,3820,3820,3836,3854,3854,3870,3870,3886,3886,3903,3920,3937,3937,3937,3954,3970,3970,3987,3987,4003,4003,4004,4020,4020,4020,4036,4037,4053,4070,4086,4086,4087,4103,4120,4141,4141,4165,4173,4186,4203,4221,4238,4238,4253,4254,4270,4286,4309,4309,4341,4341,4510,4807,4807,4855,4876,4891,4891,4891,4905,4906,4920,4920,4920,4936,4954,4954,4970,4970,4987,5004,5004,5023,5023,5023,5041,5042,5042,5061,5062,5062,5081,5081,5082,5082,5098,5099,5099,5099,5099,5118,5119,5119,5119,5119,5138,5139,5139,5139,5139,5139,5140,5157,5158,5158,5158,5158,5175,5176,5176,5176,5176,5176,5195,5195,5196,5196,5196,5196,5214,5214,5214,5519,5519,5519,5579,5579,5603,5604,5604,5604,5604,5622,5622,5623,5642,5642,5642,5661,5661,5661,5679,5679,5679,5699,5699,5718,5719,5736,5737,5737,5755,5755,5774,5774,5793,5793,5812,5813,5813,5813,5832,5833,5833,5833,5853,5853,5853,5872,5872,5894,5894,5894,5911,5912,5935,5935,5935,5949,5949,5950,5989,6021" d="m128,293c-0.87867,0.7785 -1.28328,-0.06052 -1.64733,-0.70001c-0.45555,-0.8002 -0.79033,-1.84552 -1.058,-2.30533c-0.4359,-0.74878 -0.99069,-1.65063 -1.27383,-2.47382c-0.34208,-0.99454 -0.63145,-1.73154 -1.02084,-2.52084c-0.39994,-0.8107 -0.71539,-1.4509 -1.1,-2.42117c-0.3126,-0.7886 -0.54445,-1.59686 -1,-2.43616c-0.44734,-0.82419 -1.01115,-1.68097 -1.3,-2.40399c-0.20808,-0.52087 -0.5826,-1.57971 -1,-2.50269c-0.28809,-0.63702 -0.81911,-1.62524 -1.07916,-2.21515c-0.43418,-0.98495 -0.5241,-1.79166 -0.87801,-2.67801c-0.3056,-0.76535 -0.7841,-1.52448 -1.12199,-2.34283c-0.40488,-0.98056 -0.41362,-1.80652 -0.60484,-2.51468c-0.24119,-0.89325 -0.79578,-1.80664 -0.916,-2.50616c-0.16822,-0.97888 -0.43745,-1.78922 -0.7045,-2.43631c-0.39749,-0.96313 -0.70814,-1.75027 -0.93833,-2.53302c-0.30424,-1.03452 -0.38921,-1.87643 -0.57867,-2.77383c-0.19353,-0.91667 -0.35908,-1.56999 -0.57983,-2.18399c-0.4358,-1.2121 -0.93362,-1.83159 -1.11333,-2.82133c-0.13476,-0.74213 -0.05836,-1.54839 -0.08984,-2.778c-0.01736,-0.6785 -0.14652,-1.62323 -0.34817,-2.40083c-0.2061,-0.79478 -0.57626,-1.90375 -0.63667,-2.7025c-0.06728,-0.88969 0.02551,-1.61482 -0.06783,-2.40117c-0.15139,-1.27539 -0.48068,-1.93735 -0.65884,-2.63217c-0.25322,-0.98759 -0.27182,-1.81583 -0.28266,-2.63199c-0.0133,-1.00125 -0.00443,-1.94987 -0.168,-3.01733c-0.09776,-0.63799 -0.34026,-1.66524 -0.48067,-2.36134c-0.19567,-0.97009 -0.31961,-1.79448 -0.34817,-2.75349c-0.02898,-0.9729 -0.0045,-1.78783 -0.0045,-2.65634c0,-0.89549 0,-1.79549 0,-2.6955c0,-0.59999 0,-1.79866 0,-2.67917c0,-0.83549 0,-1.83549 0,-2.5c0,-1.02083 0,-1.82083 0,-2.62083c0,-1.0045 0,-1.85716 0,-2.82117c0,-0.79349 0,-1.569 0,-2.7735c0,-0.77333 0,-1.81516 0,-2.59067c0,-1.04799 0,-1.75749 0,-2.61015c0,-1.0045 -0.0238,-1.80479 0.00034,-2.80501c0.02081,-0.86273 0.14224,-1.66351 0.4425,-2.664c0.24433,-0.81415 0.4205,-1.2428 0.7425,-2.1675c0.16754,-0.48114 0.65732,-1.96541 0.93066,-2.968c0.13598,-0.49875 0.38213,-1.50047 0.50934,-2c0.25491,-1.00096 0.52855,-2.00418 0.86,-2.99733c0.16547,-0.49583 0.52381,-1.46593 0.91917,-2.38834c0.19121,-0.44612 0.78486,-1.677 1.19099,-2.39551c0.3741,-0.66183 0.93392,-1.52209 1.383,-2.2975c0.39874,-0.68849 0.83157,-1.60077 1.1215,-2.34265c0.31236,-0.79929 0.57819,-1.63474 1,-2.65718c0.28537,-0.69173 0.69974,-1.52029 1.1,-2.32149c0.39973,-0.80014 0.78035,-1.6104 1.21067,-2.40001c0.33156,-0.60837 1.07333,-1.59999 1.58933,-2.2c0.516,-0.60001 1.13458,-1.38834 1.47916,-2c0.55341,-0.98235 0.78614,-1.62349 1.278,-2.39999c0.52389,-0.82706 1.07167,-1.40688 1.64734,-2c0.78583,-0.80966 1.4051,-1.40184 1.79549,-1.836c0.82059,-0.91258 1.20317,-1.44341 1.77917,-2.24318c0.36654,-0.50894 1.11938,-1.56718 1.64617,-2.1355c0.67429,-0.72742 1.2,-1.21066 1.722,-1.73267c0.76866,-0.76866 1.40533,-1.40533 2.13666,-2.13666c0.51601,-0.51601 1.04929,-1.01524 1.76334,-1.76784c0.51816,-0.54613 1.22716,-1.52307 1.58867,-1.98817c0.55222,-0.71045 1.35326,-1.42201 2.164,-1.73917c0.98796,-0.38647 1.60255,-0.72748 2.2,-1.20616c0.80344,-0.64372 1.40039,-1.07751 2.07201,-1.44c1.04845,-0.56587 1.69913,-0.85397 2.37866,-1.21066c0.70197,-0.36847 1.40938,-0.7247 2.58,-1.56267c0.52109,-0.37302 1.18201,-1.00214 2.19099,-1.58c0.52339,-0.29976 1.42708,-0.6416 2.065,-0.90533c1.03793,-0.42911 1.7634,-0.76469 2.49251,-1.116c0.71288,-0.34348 1.68439,-0.83966 2.511,-1.24283c0.72182,-0.35205 1.67285,-0.76697 2.467,-1.05717c0.84973,-0.31053 1.44498,-0.49757 2.64149,-0.89999c0.59108,-0.19879 1.45052,-0.48392 2.47984,-0.89984c0.68993,-0.27878 1.50938,-0.66762 2.526,-0.84749c0.84601,-0.14969 1.82211,-0.25529 2.62082,-0.48868c0.55331,-0.16168 1.60521,-0.57072 2.53868,-0.95332c0.62964,-0.25807 1.63907,-0.5235 2.508,-0.636c1.06183,-0.13747 1.70171,-0.24857 2.39999,-0.42134c0.75287,-0.18628 1.54001,-0.4151 2.72783,-0.8745c0.80232,-0.3103 1.57118,-0.67885 2.343,-0.969c1.07988,-0.40596 1.7709,-0.56771 2.4425,-0.63783c1.02089,-0.10659 2.14801,-0.06821 2.98134,-0.07333c0.87335,-0.00536 1.31419,0.00916 2.17082,-0.05583c1.50282,-0.11401 2.09355,-0.3024 2.8665,-0.5175c0.96033,-0.26725 1.75781,-0.37111 2.64267,-0.45066c0.64011,-0.05755 2.03793,-0.25558 2.77867,-0.4c0.74994,-0.14622 1.48593,-0.3254 2.55316,-0.45317c0.98219,-0.11758 1.61082,-0.11314 2.8215,-0.1215c0.89998,-0.00622 1.50395,0.02071 2.39999,-0.08533c1.20792,-0.14296 1.79594,-0.35715 2.70001,-0.562c0.8963,-0.20309 1.80382,-0.31205 2.73599,-0.342c0.64906,-0.02086 1.68533,-0.01067 2.41667,-0.01067c1.12199,0 1.86333,0 2.92583,0c0.66434,0 1.61084,0 2.8215,0c0.60001,0 1.5,0 2.39999,0c0.89984,0 1.78934,0 2.64284,0c1.03583,0 1.95717,0 2.64117,0c1.00133,0 1.83682,0 2.71733,0c0.89867,0 1.79866,0 2.69867,0c0.89999,0 1.79999,0 2.7,0c0.59999,0 1.80133,0 2.72083,0c0.63634,0 1.64584,0 2.73184,0c0.74733,0 1.49466,0 2.58066,0c1.005,0 1.625,0 2.48001,0c1.00266,0 1.91199,0 2.85333,0c0.786,0 1.608,0 2.66666,0c0.93068,0 1.76534,0 2.77118,0c0.63148,0 1.81682,0 2.62083,0c0.82199,0 1.85315,0 2.53867,0c0.83466,0 1.85577,-0.07784 2.69315,0.11433c0.99258,0.22779 1.7561,0.73882 2.28152,1.035c0.92554,0.52171 1.74063,0.80529 2.74533,0.85201c0.69077,0.03212 1.58331,0.38374 2.39999,0.71467c0.90222,0.36559 1.66141,0.08304 2.616,0.32566c0.88599,0.22518 1.47913,1.02091 2.10132,1.39034c0.94125,0.55887 1.78116,0.51752 2.64151,0.92065c0.91071,0.42674 1.64389,0.6058 2.59317,0.658c0.76779,0.04222 1.77771,0.30905 2.328,0.60001c0.9892,0.52303 1.55762,1.15005 2.48868,1.33217c0.84903,0.16608 1.85898,0.00645 2.65182,0.40982c0.61063,0.31067 1.53983,0.57439 2.29681,0.73134c1.01382,0.21021 1.79956,0.6187 2.59869,1.01601c0.80087,0.39819 1.40656,0.68712 2.39548,1.2c0.75247,0.39026 1.44089,1.02344 2.20319,1.41466c0.83994,0.43106 1.82034,0.12099 2.70132,0.30617c0.85165,0.179 1.37573,0.73312 2.32535,0.95384c0.99948,0.23232 1.57709,0.72838 2.57465,0.98933c0.77475,0.20267 1.70471,-0.00542 2.4715,0.09315c0.90009,0.11571 1.80377,0.37141 2.45251,0.5175c1.17468,0.26453 1.99869,0.32852 2.9975,0.64667c0.71732,0.22849 1.67664,0.62289 2.46783,0.75334c0.72375,0.11932 1.56268,0.52158 2.54401,1.02533c0.65674,0.33713 1.44,0.61586 2.5,0.83333c0.70325,0.14427 1.56216,0.16441 2.56534,0.16667c0.76532,0.00172 1.76331,-0.16331 2.60132,0.16667c0.8345,0.3286 1.65582,0.80078 2.40451,0.82883c0.99478,0.03726 1.7955,0.0045 2.7955,0.0045c0.79999,0 1.80124,-0.03513 2.58932,0.01067c0.72794,0.0423 1.61484,0.67393 2.51517,0.93217c0.83057,0.23822 1.69617,0.02129 2.67416,0.05733c0.77554,0.02858 1.66306,0.39513 2.42584,0.64717c0.97751,0.323 1.75946,0.34732 2.71014,0.35266c0.88535,0.00496 1.64252,0 2.71069,0c0.69064,0 1.6955,0 2.71732,0c0.70801,0 1.452,0 2.48666,0c0.97067,0 1.77066,0 2.67068,0c0.93597,0 1.784,0 2.64731,0c1.01669,0 1.854,0 2.81934,0c0.83334,0 1.81201,0 2.586,0c0.90002,0 1.76334,0 2.7265,0c0.82083,0 1.72217,0 2.6875,0c0.83334,0 1.81201,0 2.586,0c0.90002,0 1.76334,0 2.7265,0c0.82083,0 1.72086,0 2.62085,0c0.89999,0 1.69998,0 2.60001,0c0.89999,0 1.82083,0 2.78665,0c0.76001,0 1.67999,0 2.46152,0c0.7905,0 1.909,0 2.79999,0c0.90451,0 1.76782,0 2.6265,0c0.94666,0 1.79999,0 2.74133,0c0.76801,0 1.70935,0 2.71735,0c0.828,0 1.7095,0 2.42798,0c0.7905,0 2.05469,0 2.73868,0c1.16666,0 1.95267,0 2.5,0c0.81601,0 2.04285,0 2.89551,0c1.00317,0 1.76849,0 2.72049,0c0.76801,0 1.72,0 2.48532,0c0.99869,0 1.79868,0 2.79868,0c0.80002,0 1.79984,0 2.57916,0c0.99951,0 1.7735,0 2.67801,0c0.94415,0 1.94284,-0.00053 2.74283,0c1,0.00067 1.81601,-0.03572 2.80002,0.22133c0.61313,0.16016 1.39001,0.54312 2.39999,0.726c0.79398,0.14377 1.79492,0.35103 2.60001,0.62733c0.79523,0.27293 1.59943,0.40614 2.39999,0.42401c0.99976,0.02231 1.80023,-0.01965 2.79999,0.00266c0.80057,0.01787 1.80246,0.21277 2.57916,0.49867c1.00299,0.36919 1.7735,0.49774 2.67352,0.5c0.86331,0.00215 1.86469,-0.04022 2.66864,0.22133c0.69766,0.22697 1.66708,0.61865 2.43134,0.83134c0.91397,0.25436 1.56244,0.72777 2.61136,0.91133c0.82559,0.14449 1.81668,0.17059 2.46133,0.472c0.70776,0.33092 1.46533,1.09373 2.37598,1.48c0.64844,0.27504 1.64258,0.52643 2.26035,0.7885c0.95547,0.40533 1.75482,0.71555 2.58566,0.93834c1.0217,0.27397 1.7258,0.27661 2.55133,0.44116c1.01248,0.20181 1.7121,0.69637 2.76535,0.88c0.82568,0.14397 1.81668,0.17059 2.46133,0.472c0.70776,0.33092 1.47775,1.06548 2.37466,1.48c0.76099,0.3517 1.45792,0.83452 2.09998,1.3795c0.7547,0.64059 1.8378,0.38287 2.53336,0.87117c0.7168,0.50319 1.33466,0.99658 1.992,1.25867c1.0101,0.40274 1.7886,0.55356 2.57465,1c0.72519,0.41188 1.56467,0.80255 2.23599,1.14932c0.81107,0.41896 1.59125,0.56841 2.41217,1.07268c0.70816,0.435 1.67566,0.52539 2.55185,0.31667c0.75317,-0.17941 1.55627,-0.9819 2.23599,-1.364c0.56036,-0.31499 1.564,-0.8 2.36401,-1.20001c0.79999,-0.39999 1.60883,-0.76651 2.31467,-1.2c0.75052,-0.46092 1.59445,-1.04704 2.37067,-1.284c0.77759,-0.23737 1.62592,-0.64825 2.48932,-0.89067c0.94202,-0.26448 1.62326,-0.60239 2.62534,-0.85866c0.79724,-0.20389 1.46387,-0.1846 2.42151,-0.388c0.82132,-0.17444 1.67432,-0.4765 2.87848,-0.65717c0.59677,-0.08954 1.49997,-0.11617 2.70001,-0.12151c0.60266,-0.00269 1.54166,0 2.21432,0c1.11902,0 1.95502,0 2.84702,0c0.92398,0 1.3905,0 2.77197,0c0.88538,0 1.7627,0 2.20837,0c0.92529,0 2.45831,0 3.02234,0c0.58795,0 1.81195,0 2.43597,0c0.62402,0 1.84802,0 3,0c1.04535,0 1.53302,0 2.45831,0c0.88538,0 2.20837,0 2.66333,0c0.94,0 1.92004,0 2.42505,0c1.03998,0 2.12,0 3.23334,0c0.55914,0 1.65747,0 2.18665,0c0.99335,0 2.24731,0 2.90466,0c0.78601,0 1.85736,-0.19727 2.75665,0.036c0.85657,0.2222 0.60272,1.18614 -0.00397,1.83551c-0.60461,0.64717 -1.17975,1.17815 -1.80005,1.81516c-0.65192,0.66949 -0.99915,0.98412 -1.82397,1.98001c-0.66028,0.79718 -1.06976,1.53654 -1.66669,2.33333c-0.46466,0.62022 -1.04132,1.20267 -1.83331,2c-0.59351,0.5975 -1.164,1.16402 -1.83331,1.83333c-0.54138,0.54135 -1.05066,1.05067 -1.81934,1.81934c-0.52203,0.522 -1.32599,1.326 -1.84735,1.84734c-0.66669,0.66667 -1.29175,1.35437 -1.84735,1.79016c-0.85303,0.66908 -1.57404,0.82832 -2.3053,1.41968c-0.73553,0.59479 -1.30078,1.29675 -2.00867,1.9155c-0.64972,0.56789 -1.35114,1.03461 -1.88037,1.39549c-0.85791,0.58501 -1.75677,1.181 -2.35382,1.57468c-0.86658,0.57141 -1.41394,0.9279 -2.41913,1.52049c-0.66119,0.38979 -1.30481,0.74127 -2.08539,1.368c-0.61707,0.49544 -1.58838,1.3667 -2.1955,1.75883c-0.73392,0.47406 -1.51895,0.96213 -2.06583,1.39317c-0.87692,0.69118 -1.59534,1.19641 -2.12399,1.53867c-1.03906,0.67268 -1.7485,1.06816 -2.332,1.41467l-0.77283,0.70616l-0.54584,0.6685" id="svg_1" stroke-width="2" stroke="#000" fill="none"/>
  <path t="6844,7106,7122,7122,7158,7165,7198,7222,7245,7261,7285,7309,7310,7349,7349,7373,7373,7389,7421,7429,7437,7461,7470,7486,7503,7520,7520,7536,7553,7570,7586,7603,7603,7620,7636,7636,7653,7670,7686,7686,7703,7703,7720,7736,7736,7753,7753,7770,7790,7790,7806,7806,7829,7830,7845,7846,7861,7870,7886,7903,7903,7925,7926,7936,7960,7974,7997,7998,8014,8029,8045,8045,8069,8093,8109,8125,8136,8152,8170,8189,8221,8253,8261,8293,8309,8325,8325,8349,8373,8382,8389,8421,8429,8429,8437,8454,8469,8721,8798,8798,8838,8846,8870,8893,8893,8902,8919,8935,8952,8970,8970,8985,9002,9020,9020,9035,9052,9070,9085,9085,9109,9133,9149,9157,9173,9197,9213,9237,9261,9285,9285,9301,9309,9341,9386,9402,9453,9707,9742,9742,9803,9819,9853,9869,9894,9910,9918,9934,9934,9958,9974,9990,10014,10038,10046,10078,10118,10118,10126,10150,10182,10206,10222,10238,10262,10270,10270,10286,10318,10342,10342,10350,10374,10390,10398,10422,10438,10438,10454,10462,10486,10502,10518,10526,10542,10566,10566,10574,10590,10606,10619,10636,10653,10653,10669,10669,10686,10686,10703,10703,10719,10719,10736,10736,10736,10753,10753,10769,10769,10785,10785,10802,10818,10818,10835,10852,10852,10868,10868,10885,10885,10902,10902,10902,10918,10935,10935,10952,10952,10969,10969,10969,10969,10986,10986,10986,11002,11002,11018,11018,11035,11035,11035,11052,11068,11068,11085,11085,11085,11102,11102,11118,11118,11118,11119,11135,11135,11152,11152,11168,11168,11185,11203,11203,11218,11218,11235,11235,11252,11252,11268,11268,11285,11309,11310,11310,11325,11335,11357,11381,11389" d="m512,183c1.83331,0.16667 2.05463,1.11011 2.61066,1.564c0.75287,0.61453 1.37354,1.06891 1.8147,1.836c0.41571,0.72281 1.1214,1.27029 1.51746,1.95717c0.47198,0.81853 0.29047,1.73451 0.76172,2.40001c0.50836,0.71788 0.83002,1.46263 1.49548,2.3575c0.45734,0.61497 1.36804,1.18979 1.67847,1.98534c0.33014,0.84602 0.43915,1.64656 1.03754,2.18399c0.63849,0.57343 0.93433,1.25099 1.09467,2.116c0.15411,0.83168 0.88092,1.32269 1.46851,2.10001c0.55756,0.73761 0.4129,1.76007 0.87347,2.45183c0.46277,0.69501 0.49054,1.41385 0.65802,2.41217c0.14557,0.86783 0.86865,1.36813 1.46851,2.136c0.50867,0.65111 0.68408,1.66801 0.94617,2.32533c0.40271,1.0101 0.40082,1.7845 0.59546,2.67467c0.18628,0.85187 0.83734,1.35208 1.36853,2.32533c0.36572,0.67015 0.52216,1.56808 0.83197,2.496c0.23236,0.69589 0.61694,1.66754 0.83136,2.43134c0.25684,0.91475 0.62402,1.61368 1.2428,2.49016c0.40149,0.56873 0.51392,1.48523 0.74054,2.35718c0.22504,0.86563 1.15509,1.43309 1.52802,2.036c0.48236,0.7798 0.51978,1.63075 1.08331,2.41217c0.55066,0.76353 1.10156,1.23578 1.57416,2.05183c0.38605,0.66655 1.27808,1.23466 1.65717,2c0.41943,0.84677 0.81989,1.32115 1.60052,1.89999c0.63684,0.4722 1.19086,1.1095 1.6048,1.80133c0.47589,0.79535 1.30536,1.17334 1.91602,1.69867c0.61066,0.52533 1.31036,1.11804 2.20001,1.41467c0.85748,0.28592 1.5387,0.53052 2.15717,1.03265c0.70459,0.57207 1.41144,0.9045 2.34283,1.04817c0.88947,0.13721 1.81299,-0.13759 2.70001,0.01517c0.83313,0.14348 1.58734,0.9043 2.39996,0.98801c0.89526,0.09222 1.81989,-0.00111 2.60004,0.42667c0.82288,0.45119 1.74426,0.60542 2.2428,1.27916c0.51373,0.69427 0.5083,1.77594 0,2.5955c-0.50092,0.80763 -1.07007,1.23294 -1.59015,1.9955c-0.50452,0.73975 -0.97375,1.37885 -1.48865,2.10449c-0.47656,0.6716 -1.14429,1.19234 -1.56403,2.10001c-0.36694,0.79355 -0.73688,1.5369 -1.08398,2.29999c-0.38861,0.85428 -0.79987,1.64133 -1.20001,2.40002c-0.4527,0.85837 -0.77039,1.49902 -1.216,2.29999c-0.44452,0.79904 -0.36267,1.78113 -0.85266,2.44733c-0.50323,0.68423 -0.64734,1.45267 -0.64734,2.35266c0,0.90002 0.18134,1.85349 -0.16669,2.70001c-0.27588,0.67108 -0.49384,1.46286 -0.84399,2.38934c-0.27667,0.73199 -0.9787,1.22131 -0.98932,2.11066c-0.01074,0.89999 -0.14569,1.90475 -1,2.33334c-0.73016,0.3663 -1.70001,0.16666 -2.59998,0.16666c-0.90002,0 -1.80005,0 -2.70001,0c-0.90002,0 -1.79999,0 -2.70001,0c-0.79999,0 -1.70001,0 -2.59998,0c-0.90002,0 -1.80005,0 -2.70001,0c-0.90002,0 -1.79999,0 -2.70001,0c-0.79999,0 -1.70001,0 -2.59998,0c-0.90002,0 -1.80005,0 -2.70001,0c-0.90002,0 -1.79999,0 -2.70001,0c-0.79999,0 -1.45148,-0.33102 -2.16669,-0.83334c-0.69543,-0.48843 -1.66772,0.0293 -2.53333,-0.22382c-0.87762,-0.25665 -1.59863,-0.91425 -2.5,-0.94284c-0.89954,-0.02853 -1.79999,0 -2.59998,0c-0.90002,0 -1.79999,0 -2.70001,0c-0.90002,0 -1.79999,0 -2.70001,0c-0.89999,0 -1.79999,0 -2.59998,0c-0.90002,0 -1.80002,0 -2.70001,0c-0.89999,0 -1.8045,0 -2.66666,0c-0.83334,0 -1.81201,0 -2.586,0c-0.90451,0 -1.65186,0 -2.64734,0c-0.80002,0 -1.80267,0.04736 -2.60001,-0.02084c-1.0069,-0.08612 -1.78333,-0.4552 -2.60001,-0.69516c-0.98383,-0.28906 -1.80029,-0.25983 -2.79868,-0.28534c-0.76587,-0.01956 -1.66782,-0.37048 -2.39999,-0.71466c-0.79712,-0.37469 -1.854,-0.284 -2.54865,-0.284c-1.02734,0 -1.98093,0.07834 -2.82733,-0.03601c-0.81769,-0.11044 -1.54837,-0.72629 -2.487,-0.90683c-0.78732,-0.15143 -1.75952,-0.05716 -2.55301,-0.05716c-0.77551,0 -1.81537,0.03656 -2.78534,0c-0.75879,-0.02859 -1.6618,-0.36807 -2.28265,-0.61066c-1.04367,-0.40778 -1.68073,-0.60559 -2.71735,-0.8685c-0.6918,-0.17545 -1.66562,-0.3623 -2.728,-0.49551c-0.66238,-0.08307 -1.66449,-0.33084 -2.47202,-0.60001c-0.99152,-0.33051 -1.79993,-0.40814 -2.79999,-0.42532c-0.78931,-0.01358 -1.5271,-0.05542 -2.37466,-0.42532c-0.96213,-0.41992 -1.66217,-0.49881 -2.62534,-0.74133c-0.81857,-0.20612 -1.59708,-0.64059 -2.40134,-1.03336c-0.83167,-0.40616 -1.76321,-0.8056 -2.55133,-1.09998c-0.5459,-0.20392 -1.36942,-0.48511 -2.36066,-0.89868c-0.84537,-0.35272 -1.67908,-0.6268 -2.57068,-0.88535c-0.78348,-0.2272 -1.47357,-0.60522 -2.35883,-1.21149c-0.76627,-0.52478 -1.53223,-0.70868 -2.41434,-1.06168c-0.76514,-0.30618 -1.53165,-0.76617 -2.32199,-1.12198c-0.8432,-0.37961 -1.78613,-0.53799 -2.67352,-0.8735c-0.70581,-0.26685 -1.65186,-0.48328 -2.51398,-0.98068c-0.53012,-0.30585 -1.07129,-1.1763 -2.07617,-1.55234c-0.80975,-0.30302 -1.67316,-0.39832 -2.11435,-1.05716l-0.94281,-0.06166" id="svg_2" stroke-width="2" stroke="#000" fill="none"/>
  <path t="12580,12699,12714,12753,12769,12786,12806,12806,12806,12822,12822,12846,12855,12870,12870,12886,12903,12919,12936,12936,12959,12959,12969,12986,13003,13003,13019,13038,13038,13062,13062,13070,13070,13093,13102,13118,13152,13152,13185,13185,13219,13219,13219,13219,13252,13252,13252,13268,13268,13268,13285,13285,13285,13302,13302,13318,13318,13318,13335,13352,13352,13368,13385,13385,13402,13418,13435,13435,13452,13452,13468,13468,13485,13502,13518,13535,13535,13552,13568,13568,13585,13602,13602,13618,13618,13635,13635,13635,13652,13652,13668,13685,13685,13702,13702,13718,13718,13735,13752,14425,14510,14510,14526,14526,14544,14557,14557,14581,14794,14809,14877,14877,14934,15456,15456,15502,15520,15541,15541,15557,15573,15589,15602,15618,15635,15635,15652,15668,15668,15685,15685,15769,15930,15969,15989,15990,15997,16005,16018,16035,16035,16052,16052,16068,16085,16085,16102,16102,16118,16118,16135,16135,16152,16152,16168,16185,16185,16202,16218,16236,16236,16252,16268,16268,16285,16285,16302,16318,16318,16335,16357,16357,16373,16389,16402,16418,16418,16437,16452,16468,16485,16502,16502,16518,16518,16535,16535,16552,16568,16585,16585,16602,16618,16618,16635,16635,16652,16668,16668,16685,16685,16702,16718,16718,16718,16718,16735,16735,16752,16752,16768,16785,16785,16785,16802,16802,16818,16818,16838,16838,16854,16854,16868,16886,16886,16903,16918,16918,16935,16952,16952,16968,16985,17006" d="m453,265c0,2.58932 0,3.5 0,4.39999c0,0.89999 0,1.80133 0,2.76666c0,0.66934 0.04135,1.4357 -0.00449,2.42883c-0.04254,0.92175 -0.51871,1.71832 -0.9115,2.60452c-0.33969,0.76645 -0.87915,1.45367 -1.06317,2.29999c-0.19135,0.87997 -0.49109,1.73239 -0.85419,2.5c-0.33707,0.71259 -0.54968,1.64056 -0.814,2.34732c-0.37057,0.99091 -1.00159,1.59717 -1.29999,2.36252c-0.29752,0.76303 -0.48248,1.65982 -1.15268,2.39032c-0.49545,0.54004 -1.08923,1.3902 -1.5,2.07449c-0.48715,0.81155 -1.14963,1.35117 -1.37915,2.32535c-0.20651,0.87656 -0.43921,1.62274 -0.85419,2.5c-0.3371,0.71259 -0.51059,1.67062 -0.81332,2.24667c-0.49164,0.93546 -1.00644,1.70572 -1.35333,2.25333c-0.51663,0.81561 -1.00671,1.5639 -1.47916,2.5c-0.34015,0.67398 -0.72192,1.68359 -0.92084,2.22534c-0.30161,0.82141 -0.68826,1.8584 -1,2.53867c-0.38559,0.8414 -0.80005,1.63599 -1.20001,2.436c-0.49985,0.99982 -0.84811,1.56573 -1.11465,2.31467c-0.34207,0.96115 -0.28317,1.96933 -0.28534,2.83264c-0.00226,0.89551 -0.31107,1.69724 -0.716,2.45267c-0.40524,0.75598 -0.85754,1.55093 -1.16251,2.52133c-0.20569,0.65454 -0.11957,1.65735 -0.12149,2.43134c-0.00226,0.90002 -0.03043,1.78888 -0.5,2.7265c-0.37238,0.74359 -0.5,1.62085 -0.5,2.52084c0,0.79999 0,1.75717 0,2.65268c0,0.86331 0,1.72198 0,2.66882c0,0.88916 0,1.87851 0,2.6785c0,1 0,1.79999 0,2.60001c0,0.99548 0,1.74283 0,2.64734c0,0.91931 0,1.75266 0,2.73132c0,0.77399 -0.12915,1.69717 0.08533,2.53732c0.2594,1.01605 0.78973,1.68866 0.91483,2.58401c0.12665,0.90646 0.6246,1.53174 1.48251,2.10001c0.64056,0.42429 1.21078,1.07303 1.73883,1.89981c0.39117,0.61246 1.37418,0.90381 1.83118,1.60468c0.50418,0.77319 1.15433,1.31366 1.59015,1.99551c0.52667,0.82397 0.99008,1.72794 0.77185,2.32532c-0.27921,0.76422 -1.27551,0.95667 -2.24802,0.97467c-0.862,0.01596 -1.76666,0 -2.66666,0c-0.89999,0 -1.79999,0 -2.70001,0c-0.90015,0 -1.68533,0 -2.62534,0c-1.008,0 -1.79999,0 -2.65866,0c-0.86331,0 -1.88,0 -2.716,0c-0.89999,0 -1.84543,0.19379 -2.59998,-0.08533c-0.8696,-0.32169 -1.06265,-1.42682 -1.72086,-1.91467c-0.69009,-0.51151 -1.3367,-0.85291 -1.8685,-1.82535c-0.3663,-0.6698 -0.51031,-1.57211 -0.83215,-2.49597c-0.24402,-0.70047 -0.95682,-1.60767 -1.3425,-2.30402c-0.44962,-0.81183 -0.3179,-1.60129 -0.72134,-2.49066c-0.31488,-0.69418 -1.06027,-1.51382 -1.35748,-2.23132c-0.36307,-0.8765 -0.35712,-1.81934 -0.35718,-2.65268c-0.00009,-0.97833 -0.39478,-1.62473 -0.83334,-2.33334c-0.45581,-0.73651 -0.1333,-1.78195 -0.16666,-2.66666c-0.02859,-0.75879 -0.31625,-1.67471 -0.7045,-2.34732c-0.53638,-0.92926 -1.2077,-1.63898 -1.29102,-2.35269c-0.10855,-0.92966 -0.00449,-1.784 -0.00449,-2.64731c0,-1.01669 0,-1.85269 0,-2.75269c0,-0.89999 0,-1.69998 0,-2.60001c0,-0.89999 0.02579,-1.82083 -0.35266,-2.60449c-0.42926,-0.88889 -0.53336,-1.72668 -0.814,-2.52884c-0.29422,-0.84094 -0.78403,-1.64804 -0.82886,-2.51398c-0.04605,-0.88986 -0.62231,-1.52029 -0.91916,-2.22202c-0.30649,-0.72452 0.03754,-1.85101 -0.37067,-2.63199c-0.39688,-0.75934 -1.06253,-1.42755 -1.35748,-2.146c-0.40619,-0.98935 -0.73737,-1.802 -1.07318,-2.53802c-0.33267,-0.72913 -0.30304,-1.65988 -0.72,-2.5c-0.49039,-0.98807 -0.86771,-1.62305 -1.164,-2.39999c-0.20251,-0.53101 -0.67239,-1.76724 -1,-2.36798c-0.46188,-0.84698 -1.06161,-1.53403 -1.42084,-2.38834c-0.32993,-0.78458 -0.69363,-1.45828 -1.12848,-2.20767c-0.52856,-0.91092 -0.73416,-1.75861 -1.20786,-2.55518c-0.37372,-0.62848 -1.07574,-1.51401 -1.28564,-2.10001c-0.34723,-0.96942 -0.44458,-1.85858 -0.93185,-2.64615c-0.39728,-0.64206 -0.30713,-1.47632 -0.44617,-2.44934c-0.1441,-1.00833 -0.58807,-1.66293 -0.89514,-2.61465c-0.28253,-0.8757 -0.65869,-1.48535 -1.06317,-2.38535l-0.02084,-0.89999l-0.00449,-0.89999" id="svg_3" stroke-width="2" stroke="#000" fill="none"/>
  <path t="136139,136196,136231,136254,136278,136295,136303,136334,136350,136350,136350,136366,136382,136390,136406,136422,136430,136447,136447,136463,136480,136480,136497,136497,136513,136513,136513,136530,136530,136530,136547,136547,136547,136547,136563,136563,136563,136580,136580,136580,136597,136597,136597,136613,136613,136613,136630,136630,136630,136630,136647,136647,136647,136647,136664,136664,136664,136680,136680,136680,136680,136697,136697,136713,136713,136713,136713,136730,136730,136730,136747,136747,136763,136763,136763,136763,136780,136780,136780,136797,136797,136797,136813,136813,136813,136813,136830,136830,136830,136847,136847,136847,136847,136847,136847,136863,136863,136863,136863,136880,136880,136880,136897,136897,136897,136913,136913,136913,136930,136930,136930,136930,136947,136947,136947,136963,136963,136980,136980,136980,136980,136997,136997,136997,137013,137013,137030,137030,137030,137030,137047,137047,137047,137047,137047,137063,137063,137063,137080,137080,137080,137097,137097,137097,137113,137113,137113,137130,137130,137130,137130,137147,137147,137147,137147,137163,137163,137163,137163,137180,137180,137197,137197,137197,137197,137213,137213,137230,137230,137230,137230,137247,137247,137247,137247,137263,137263,137263,137280,137280,137280,137298,137298,137314,137314,137314,137330,137330,137330,137347,137347,137363,137363,137363,137380,137380,137380,137397,137397,137397,137397,137413,137413,137430,137430,137430,137431,137447,137447,137447,137463,137463,137480,137480,137497,137497,137513,137534,137534" d="m392,282c-1.22134,0.87866 -1.90787,1.38507 -2.42532,1.97467c-0.55972,0.63776 -1.30652,0.83801 -2.17468,1.06134c-0.87549,0.22522 -1.57126,0.9566 -2.21466,1.36398c-0.62054,0.39291 -1.22424,1.25803 -1.88983,1.65268c-0.785,0.46548 -1.59412,0.91873 -2.49551,0.94733c-0.89954,0.02853 -1.83575,-0.16617 -2.59998,0.08533c-0.92014,0.3028 -1.68268,0.86264 -2.41068,0.90399c-0.98782,0.05612 -1.80466,-0.04993 -2.78934,0.17734c-0.82913,0.19138 -1.44519,0.53799 -2.42151,0.71201c-0.8074,0.14389 -1.69092,0.12509 -2.87848,0.34283c-0.60507,0.11093 -1.50116,0.38556 -2.10001,0.57983c-1.20239,0.39011 -1.79053,0.62445 -2.70001,0.84149c-1.18936,0.28381 -1.79471,0.31891 -2.664,0.3465c-1.06885,0.03394 -2.01379,-0.01227 -2.68866,0.06784c-0.9758,0.11584 -1.7785,0.38797 -2.65182,0.59018c-0.89105,0.20633 -1.80029,0.29691 -2.73151,0.37799c-0.64951,0.05655 -1.68668,0.18799 -2.41217,0.32733c-1.09286,0.20993 -1.77817,0.39023 -2.70917,0.526c-1.03873,0.15146 -1.8139,0.18619 -2.68533,0.34268c-1.01224,0.18179 -1.70398,0.36697 -2.38934,0.49466c-1.19443,0.22253 -1.94702,0.27356 -3.13464,0.284c-0.79047,0.00693 -1.35419,0 -2.23468,0c-1.19733,0 -2.07782,0 -2.64151,0c-1.27316,0 -1.95715,0 -3.12381,0c-0.7905,0 -1.35419,0 -2.23468,0c-1.19867,0 -1.79868,0 -2.69867,0c-1.19998,0 -1.79999,0 -2.69998,0c-1.20001,0 -1.80002,0 -2.70001,0c-0.89999,0 -1.80032,0 -2.72134,0c-0.65067,0 -2.112,0 -2.948,0c-0.44049,0 -1.3515,0 -2.2825,0c-0.46548,0 -1.82632,0 -2.68198,0c-0.80368,0 -1.8942,0 -2.82333,0c-0.78152,0 -1.72552,0 -2.72818,0c-0.83551,0 -1.41916,0 -2.61465,0c-0.90002,0 -1.5,0 -2.70001,0c-0.89999,0 -1.5,0 -2.39999,0c-1.19867,0 -2.07916,0 -2.64285,0c-1.27316,0 -1.95715,0 -3.12381,0c-0.7905,0 -1.35419,0 -2.23468,0c-1.19733,0 -2.07782,0 -2.64151,0c-1.27316,0 -1.95715,0 -3.12381,0c-0.7995,0 -1.39584,0 -2.40533,0c-1.1705,0 -1.59467,0 -2.46802,0c-0.87332,0 -1.70667,0 -2.79565,0c-0.867,0 -1.84567,0 -2.84833,0c-0.81601,0 -1.63202,0 -2.63333,0c-0.70352,0 -1.45203,0 -2.65201,0c-0.69202,0 -1.41602,0 -2.86401,0c-0.68265,0 -1.34131,0 -2.31934,0c-1.01398,0 -1.73175,0.01599 -2.84732,-0.02084c-0.74783,-0.02469 -1.83676,-0.12756 -2.51334,-0.26315c-0.95047,-0.19049 -1.79324,-0.46957 -2.80266,-0.63199c-0.68039,-0.1095 -1.85361,-0.23868 -2.63667,-0.43668c-0.54951,-0.13895 -1.35588,-0.40729 -2.59467,-0.59467c-0.67479,-0.10208 -1.62369,-0.202 -2.41434,-0.40985c-0.89032,-0.23407 -1.52235,-0.45346 -2.55949,-0.74265c-0.72522,-0.20221 -1.81401,-0.48123 -2.50951,-0.61484c-1.19472,-0.22949 -1.9483,-0.27377 -2.65199,-0.284c-1.00124,-0.01456 -1.81734,0.00015 -2.63333,-0.00134c-1.22684,-0.00226 -1.8925,0.04828 -2.88417,-0.2215c-0.84291,-0.22931 -1.476,-0.6037 -2.48384,-0.97717c-0.8091,-0.2998 -1.62529,-0.55264 -2.63066,-0.71732c-0.66098,-0.10828 -1.69568,-0.22131 -2.496,-0.52002c-0.65585,-0.24478 -1.60703,-0.67517 -2.436,-0.96399c-0.59724,-0.2081 -1.9187,-0.60471 -2.63466,-0.79868c-0.72141,-0.19543 -1.41507,-0.39487 -2.61867,-0.63467c-0.80962,-0.16132 -1.83641,-0.3226 -2.51433,-0.52383c-0.8109,-0.24072 -1.38966,-0.44022 -2.58434,-0.84283c-0.8815,-0.29709 -1.45206,-0.48013 -2.47968,-0.89981c-0.88713,-0.3623 -1.76054,-0.71191 -2.547,-0.92551c-0.86542,-0.23505 -1.54933,-0.54935 -2.48933,-0.88934l-0.98534,-0.08548l-0.7,-0.08517" id="svg_4" stroke-width="2" stroke="#000" fill="none"/>
  <path t="138856,138945,138976,138998,138998,139022,139038,139048,139070,139094,139102,139118,139158,139190,139190,139230,139230,139239,139262,139271,139287,139318,139342,139342,139358,139414,139414,139461,139462,139493,139502,139525,139541,139541,139581,139597,139621,139645,139654,139669,139701,139701,139717,139749,139773,139797,139805,139837,139853,139853,139861,139893,139925,139957,139966,139981,140005,140013,140013,140038,140053,140069,140080,140097,140113,140113,140130,140149,140149,140163,140180,140197,140213,140213,140230,140247,140247,140263,140280,140297,140313,140330,140349,140349,140366,140397,140397,140413,140429,140437,140453,140469,140493,140493,140517,140549,140549,140581,140581,140597,140605,140613,140638,140647,140663,140693,140693,140701,140730,140763,140763,140798,140798,140837,140837,140869,140869,140897,140930,140957,140957,140997,141064,141064,141064,141112,141141,141157,141181,141181,141197,141229,141261,141269,141269,141285,141301,141313,141333,141357,141357,141381,141522,141522,141610,141661,141805,141853,141869,141869,141880,141897,141913,141930,141947,141963,141980,141997,142013,142013,142045,142061,142085,142101,142133,142157,142173,142173,142213,142229,142253,142285,142325,142461,142564,142622,142622,142646,142662,142686,142710,142717,142757,142789,142789,142829,142845,142845,142869,142893,142933,142965,142965,142973,142973,142990,143013,143029,143045,143053,143069,143085,143101,143101,143117,143133,143146,143163,143180,143196,143213,143230,143246,143263,143317,143317,143341,143373,143389,143413,143413,143437,143461,143485,143509,143564,143564,143564,143606,143629,143645,143661,143670,143709,143733,143733,143765,143797,143797,143821,143845,143845,143861,143901,143901,143933,143933,143973,143981,144005,144013,144030,144046,144063,144080,144096,144117,144133,144146,144165,144165,144182,144197,144213,144237,144237,144246,144269,144293,144293,144309,144317,144333,144346,144363,144363,144380,144397,144413,144413,144430,144430,144446,144463,144463,144480,144480,144496,144496,144513,144513,144513,144530,144546,144546,144563,144580,144605,144606,144613,144630,144646,144663,144680,144696,144713,144713,144730,144750,144750,144782,144798,144838,144838,144870,144886,144910,144918,144934,144950,144974,144998,144998,145054,145054,145208" d="m199,274c0.61067,1.60001 1.42616,2.21674 1.83333,3c0.38667,0.74384 0.85219,1.42258 1.10951,2.29999c0.25345,0.8642 0.68019,1.44974 1.03633,2.22086c0.36887,0.79865 0.20766,1.81021 1.02083,2.3125c0.76358,0.47168 1.06075,1.06186 1.35266,1.81934c0.33682,0.87399 0.68745,1.7677 1.222,2.37265c0.51942,0.58786 1.18201,1.1315 1.42534,1.99551c0.26645,0.94608 0.76115,1.50684 0.97917,2.47916c0.19696,0.87842 -0.13406,1.86145 0.24232,2.60001c0.34975,0.68628 1.37599,1.19699 1.69318,2.10001c0.29959,0.85294 0.08533,1.79999 0.08533,2.59998c0,0.90002 0,1.80002 0,2.70001c0,0.89999 -0.10696,1.80652 0.00133,2.70001c0.11148,0.91977 0.80855,1.45407 0.98801,2.39999c0.16777,0.88428 0.01067,1.79999 0.01067,2.69998c0,0.90002 0,1.80002 0,2.70001c0,0.79999 0,1.70001 0,2.60001c0,0.89999 0,1.79999 0,2.69998c0,0.90002 0,1.80002 0,2.70001c0,0.79999 0,1.70001 0,2.60001c0,0.89999 0,1.79999 0,2.69998c0,0.90134 0,1.58536 0,2.52536c0,1.008 0,1.87015 0,2.77466c0,0.89999 0,1.7045 0,2.72131c0,0.67868 0,1.65717 0,2.67868c0,0.79999 0,1.70001 0,2.60001c0,0.89999 -0.11649,1.80814 0.0045,2.69998c0.11142,0.82135 0.73601,1.49133 1.02083,2.336c0.28328,0.84012 0.6743,1.50247 0.88934,2.47867c0.21272,0.96573 0.59256,1.49432 1.02817,2.24252c0.42509,0.73013 0.3513,1.69727 0.7045,2.34283c0.48448,0.88556 0.60172,1.80228 0.96333,2.47464c0.44571,0.8287 1.18188,1.47357 1.3685,2.32535c0.19046,0.86929 0.77953,1.44141 1.01633,2.2045c0.25502,0.82178 0.79916,1.32825 1.3,2.00534c0.43408,0.58682 0.5784,1.69873 0.98849,2.49017c0.44646,0.86163 0.76765,1.59738 1.28534,2.284c0.55714,0.73895 1.26402,1.3493 1.79466,1.88c0.73589,0.73596 1.27884,1.336 1.636,2.13599c0.35716,0.79999 1.08931,1.42712 1.564,2.10001c0.51836,0.7348 0.69508,1.62363 1.23734,2.19998c0.66766,0.70966 1.64534,0.98694 2.17334,1.63602c0.59366,0.7298 1.06221,1.30087 1.82533,1.64801c0.85426,0.38858 1.64133,0.79984 2.39999,1.19998c0.85838,0.45273 1.50008,0.70334 2.40001,0.716c0.90015,0.01266 1.60329,0.54321 2.5,0.87851c0.85063,0.31808 1.71042,0.02106 2.536,0.1575c0.87169,0.14404 1.74469,0.52618 2.60233,0.91132c0.74503,0.33453 1.5144,0.96667 1.70001,1.758c0.22084,0.9415 -0.77428,1.09775 -1.63834,1.35184c-0.87724,0.25797 -1.59865,0.91418 -2.5,0.94284c-0.89938,0.02859 -1.409,0.50723 -2.15717,0.94284c-0.73013,0.42511 -1.6795,0.3833 -2.44284,0.77316c-0.7529,0.38452 -1.7,0.284 -2.59999,0.284c-0.90001,0 -1.8,0 -2.70001,0c-0.89999,0 -1.7,0 -2.59999,0c-0.90001,0 -1.8,0 -2.7,0c-0.90001,0 -1.8,0 -2.70001,0c-0.89999,0 -1.68109,-0.11768 -2.5,-0.57468c-0.77271,-0.43121 -1.48407,-0.83984 -2.04733,-1.478c-0.52553,-0.5954 -1.11794,-1.22076 -1.51933,-1.94733c-0.42688,-0.77271 -1.14424,-1.28925 -1.83333,-2c-0.5732,-0.59122 -0.86148,-1.51373 -1.52083,-2c-0.68982,-0.50876 -1.52037,-0.96353 -2.07918,-1.63599c-0.54211,-0.65237 -0.77324,-1.46539 -1.59866,-2.19467c-0.63593,-0.56186 -1.28802,-0.99414 -1.80133,-1.69019c-0.5076,-0.68832 -0.6019,-1.77454 -1.2215,-2.35782c-0.60439,-0.56897 -1.22571,-0.94318 -1.80383,-1.68533c-0.4861,-0.62402 -0.76492,-1.27591 -1.03183,-2.13602c-0.26872,-0.86594 -1.30818,-1.15219 -1.89017,-1.65265c-0.64537,-0.55496 -0.97214,-1.32285 -1.48868,-2.04733c-0.5601,-0.78561 -1.20985,-1.15726 -1.8595,-1.89999c-0.58119,-0.66446 -0.96748,-1.4848 -1.7045,-1.86667c-0.75397,-0.39063 -1.55768,-0.77133 -2.02533,-1.444c-0.50252,-0.72284 -1.19498,-1.24121 -2.14134,-1.556c-0.67523,-0.22461 -1.46135,-0.50296 -2.18666,-1.23334c-0.68842,-0.69324 -0.97794,-1.45746 -1.62134,-2.02533c-0.59439,-0.52463 -1.47171,-0.83505 -1.90399,-1.67468c-0.33391,-0.64856 -0.8212,-1.49597 -1.03601,-2.384c-0.20386,-0.84277 0.08798,-1.82483 -0.30682,-2.616c-0.34393,-0.68921 -1.31126,-1.22232 -1.6945,-2.10132c-0.28149,-0.64566 -0.55539,-1.60641 -0.8,-2.31467c-0.32594,-0.94376 -0.35095,-1.82758 -0.85866,-2.50934c-0.47722,-0.64081 -0.62555,-1.37546 -1.14134,-2.05869c-0.46454,-0.61533 -0.34116,-1.616 -0.784,-2.41599c-0.44284,-0.79999 -0.41788,-1.7038 -0.50017,-2.60001c-0.08368,-0.91144 -0.761,-1.43765 -0.979,-2.39999c-0.1989,-0.87799 0.11086,-1.85007 -0.24216,-2.60001c-0.36504,-0.77551 -1.01747,-1.3461 -1.49467,-1.98401c-0.57445,-0.76791 -0.26601,-1.71616 -0.284,-2.616c-0.01801,-0.90054 -0.52742,-1.64572 -0.916,-2.5c-0.34712,-0.76309 -0.73216,-1.49963 -1.084,-2.29999c-0.3535,-0.80414 -0.84096,-1.66507 -0.97467,-2.32535c-0.20366,-1.00571 -0.67908,-1.72998 -1,-2.58533c-0.33144,-0.88336 -0.50455,-1.61469 -1.02533,-2.42267c-0.44478,-0.69006 -0.86432,-1.49063 -1.02533,-2.37732c-0.18018,-0.99222 -0.35826,-1.60754 -0.776,-2.30402c-0.5345,-0.89111 -1.39957,-1.50745 -1.84151,-2.18533c-0.47845,-0.73392 -0.71027,-1.60373 -1.35716,-2.29999c-0.5605,-0.60327 -0.7148,-1.44717 -1.0045,-2.2955c-0.27835,-0.81509 -1.15981,-1.13116 -1.7115,-1.78851c-0.48643,-0.57959 -0.50966,-1.65512 -1.08533,-2.34665c-0.56636,-0.68033 -1.05992,-1.29855 -1.28267,-2.08667c-0.24828,-0.87848 -0.70502,-1.73633 -1.13733,-2.58267c-0.33473,-0.65533 -0.44554,-1.57379 -0.7995,-2.37915c-0.31297,-0.7121 -0.96657,-1.22543 -0.97917,-2.12085c-0.01268,-0.90015 -0.48561,-1.64282 -0.83333,-2.56665c-0.23732,-0.63049 -0.33334,-1.66669 -0.74133,-2.42267l-0.40001,-0.80002" id="svg_5" stroke-width="2" stroke="#000" fill="none"/>
  <path t="146092,146429,146447,146470,146501,146501,146517,146574,146583,146606,146625,146645,146669,146680,146701,146717,146717,146733,146749,146773,146781,146781,146805,146821,146830,146846,146863,146885,146896,146896,146913,146930,146946,146963,146980,146996,146997,147013,147030,147046,147063,147080,147096,147117,147117,147133,147133,147149,147163,147180,147196,147213,147213,147230,147230,147253,147277,147277,147301,147309,147325,147341,147349,147349,147363,147380,147396,147413,147430,147446,147446,147463,147463,147480,147496,147513,147530,147546,147546,147563,147563,147581,147581,147596,147613,147613,147630,147630,147653,147669,147685,147717,147717,147733,147733,147757,147781,147797,147821,147821,147861,147885,147909,147917,147941,147957,147981,148013,148029,148053,148077,148101,148109,148117,148141,148157,148189,148213,148221,148230,148253,148269,148280,148280,148296,148317,148341,148365,148365,148381,148389,148405,148405,148445,148469,148493,148703,148750,148782,148798,148814,148846,148854,148878,148894,148894,148910,148926,148950,148974,148998,149022,149022,149046,149062,149070,149094,149118,149134,149142,149142,149150,149182,149190,149206,149206,149222,149246,149262,149278,149302,149310,149310,149334,149350,149374,149382,149406,149422,149438,149462,149462,149478,149494,149502,149513,149534,149546,149563,149580,149580,149596,149614,149614,149614,149630,149646,149646,149663,149663,149686,149696,149696,149713,149730,149746,149763,149780,149780,149796,149796,149813,149813,149830,149830,149846,149846,149846,149870,149870,149894,149894,149902,149913,149930,149946,149964,149964,149980,149996,150013,150030,150047,150070,150086,150319,150319" d="m126,291c0.9955,1.70001 1.19378,2.48737 1.716,3.08401c0.67235,0.76816 1.03094,1.45316 1.248,2.31598c0.21974,0.8735 -0.11378,1.81259 0.03616,2.69983c0.144,0.85202 0.98183,1.33563 0.99983,2.20016c0.01874,0.89984 -0.18134,1.85349 0.16667,2.70001c0.27589,0.67108 0.82066,1.49985 0.83333,2.39999c0.01266,0.8999 0.32613,1.63666 0.716,2.39999c0.38455,0.7529 0.284,1.70001 0.284,2.60001c0,0.89999 0,1.80002 0,2.70001c0,0.89999 -0.01799,1.70016 0,2.60001c0.01801,0.90054 0.61813,1.61032 0.91467,2.5c0.28587,0.85764 0.08533,1.79999 0.08533,2.59998c0,0.90002 0,1.80002 0,2.70001c0,0.89999 0,1.79999 0,2.70132c0,0.96533 0,1.79868 0,2.63202c0,0.86215 0,1.76666 0,2.66666c0,0.89999 0,1.8045 0,2.66666c0,0.83334 0,1.81183 0,2.63202c0,0.83731 0,1.854 0,2.54865c0,1.01669 0,1.95267 0,2.85269c0,0.89999 0,1.79999 0,2.59998c0,0.90002 0,1.80002 0,2.70001c0,0.89999 0,1.8045 0,2.66666c0,0.83334 0,1.81183 0,2.63202c0,0.90134 -0.00526,1.80136 0,2.70132c0.00534,0.91074 0.18582,1.8382 0.52083,2.5c0.43416,0.85767 1.09576,1.44644 1.35767,2.32132c0.24677,0.82437 0.06837,1.79477 0.12167,2.77884c0.04271,0.78864 0.40221,1.53323 0.71584,2.41583c0.29585,0.83255 0.2083,1.78729 0.28532,2.68533c0.08369,0.9758 0.51683,1.59125 0.832,2.63202c0.22372,0.73877 0.16443,1.66666 0.16667,2.56665c0.00226,0.89999 0.31105,1.64456 0.716,2.39999c0.40524,0.75598 0.71851,1.59445 1.2,2.39868c0.44519,0.74362 0.75644,1.29813 1.09467,2.19067c0.2773,0.73175 0.84097,1.34158 1.42534,2c0.61523,0.69318 1.42741,0.93671 1.98933,1.58533c0.50931,0.58792 0.63422,1.46783 1.14932,2.05066c0.5195,0.5878 1.2036,1.09839 2.02534,1.54935c0.77997,0.42804 1.7,0.42532 2.59999,0.42532c0.90001,0 1.8,0 2.60001,0c0.89999,0 1.8,0 2.61066,0c0.91068,0 1.76401,0 2.70401,0c0.98534,0 1.88533,0 2.68533,0c0.89999,0 1.80002,0.0054 2.7,0c0.88937,-0.00534 1.49179,-0.52063 1.5,-1.39999c0.00836,-0.89548 -0.4756,-1.49469 -1.3,-1.95267c-0.74229,-0.41235 -1.41782,-0.87009 -1.86667,-1.64734c-0.35896,-0.62158 -1.26427,-1.05005 -1.85866,-1.57468c-0.6434,-0.56787 -1.3721,-1.095 -1.89067,-1.71066c-0.56039,-0.66531 -1.0661,-1.14618 -1.72684,-1.76733c-0.60394,-0.56775 -0.40268,-1.6539 -0.85716,-2.44733c-0.4044,-0.70599 -0.5,-1.60001 -0.5,-2.5c0,-0.79999 -0.3707,-1.42896 -0.87849,-2.2215c-0.47844,-0.74673 -0.09615,-1.7789 -0.12151,-2.57849c-0.02859,-0.9014 -0.6862,-1.62238 -0.94284,-2.5c-0.25313,-0.8656 -0.05716,-1.80002 -0.05716,-2.70001c0,-0.79999 0,-1.70001 0,-2.60001c0,-0.89999 0,-1.79999 0,-2.69998c0,-0.90002 0,-1.80002 0,-2.70001c0,-0.79999 0,-1.70001 0,-2.60001c0,-0.89999 0,-1.79999 0,-2.69998c0,-0.90002 0,-1.80002 0,-2.70001c0,-0.79999 0.00529,-1.67911 0.22133,-2.54266c0.17882,-0.71478 0.41628,-1.4545 0.726,-2.64301c0.21268,-0.8161 0.71513,-1.41666 1.25134,-2.29834c0.40599,-0.66754 0.75862,-1.62756 0.80133,-2.51599c0.03842,-0.79907 0.05716,-1.70001 0.5,-2.5c0.44284,-0.79999 0.34357,-1.74973 0.66667,-2.5c0.30679,-0.7124 1.07674,-1.46213 1.39732,-2.17465c0.41257,-0.91693 0.5675,-1.73721 1.14584,-2.48251c0.44734,-0.57648 1.1443,-1.32922 1.65416,-2.13217c0.34586,-0.54465 0.96619,-1.43542 1.436,-2.09467c0.53076,-0.74478 0.97801,-1.43015 1.164,-2.48001c0.14574,-0.82269 0.49307,-1.39938 1.23466,-1.92133c0.7816,-0.55011 0.78229,-1.41486 0.80133,-2.31467c0.02042,-0.96445 0.79256,-1.40042 0.99867,-2.20132c0.22446,-0.87216 0.50133,-1.69867 0.94865,-2.49417l0.47801,-0.67917l0.57466,-0.52533" id="svg_6" stroke-width="2" stroke="#000" fill="none"/>
  <path t="151373,151628,151663,151686,151702,151726,151749,151789,151790,151814,151814,151821,151838,151861,151870,151893,151909,151917,151941,151949,151949,151974,151997,152005,152013,152029,152046,152063,152063,152079,152079,152096,152113,152129,152146,152163,152179,152179,152196,152213,152229,152246,152263,152263,152279,152296,152296,152314,152314,152329,152346,152365,152365,152382,152405,152405,152421,152437,152453,152463,152479,152496,152496,152513,152529,152529,152546,152563,152579,152596,152596,152613,152629,152646,152669,152669,152685,152685,152701,152733,152765,152797,152813,152853,152894,152925,152950,152990,152990,153037,153069,153070,153093,153117,153133,153174,153221,153254,153277,153278,153325,153341,153365,153373,153405,153429,153430,153478,153594,153631,153649,153679,153679,153701,153702,153717,153742,153757,153790,153806,153813,153814,153838,153861,153869,153879,153896,153918,153934,153934,153950,153963,153963,153990,154005,154021,154037,154037,154069,154077,154093,154109,154118,154129,154149,154163,154163,154179,154198,154213,154229,154246,154263,154263,154279,154279,154296,154313,154329,154329,154349,154365,154379,154398,154421,154429,154446,154446,154463,154479,154496,154496,154496,154513,154513,154529,154546,154546,154563,154563,154579,154579,154596,154596,154613,154629,154629,154646,154677,154677,154677,154685,154709,154733,154750,154750,154782,154822,154830,154830,154846,154878,154894,154944,154945" d="m360,292c0.05716,1.70001 0.46042,2.52359 0.94733,3.2955c0.44308,0.70242 1.04727,1.31509 1.05267,2.11517c0.00616,0.91061 -0.10406,1.81262 0.284,2.70398c0.32294,0.74176 0.71375,1.58536 0.716,2.48535c0.00223,0.89999 0.03644,1.7702 0.5,2.42084c0.47446,0.66595 0.88904,1.4408 1.33334,2.14581c0.45313,0.71896 0.16666,1.63333 0.16666,2.53336c0,0.89999 0,1.79999 0,2.69998c0,0.89999 -0.04852,1.80133 0.00015,2.70016c0.04272,0.78864 0.47122,1.70755 0.71585,2.41583c0.32596,0.94376 0.284,1.884 0.284,2.784c0,0.90002 0,1.80002 0,2.70001c0,0.79999 0,1.70001 0,2.60001c0,0.89999 0,1.81067 0,2.72131c0,0.67868 0,1.65717 0,2.67868c0,0.75717 0,1.65268 0,2.51599c0,0.96317 0,1.89468 0,2.80533c0,0.67868 0,1.65717 0,2.67868c0,0.79999 0,1.70001 0,2.60001c0,0.89999 0,1.79999 0,2.69998c0,0.90134 0,1.58536 0,2.52536c0,1.008 0.01047,1.87021 0,2.77466c-0.01044,0.90018 -0.52719,1.60944 -0.87851,2.5c-0.26062,0.66068 0.05997,1.62595 -0.1575,2.5c-0.21713,0.87271 -0.88541,1.71634 -0.94315,2.39999c-0.08237,0.97522 -0.02084,1.79868 -0.02084,2.70001c0,0.89999 0,1.79999 0,2.69998c0,0.89999 -0.14981,1.81259 0.00015,2.69983c0.14401,0.85202 0.81375,1.32407 1.28519,2.10019c0.41083,0.67636 1.19995,1.31506 1.81467,1.89981c0.58633,0.55774 1.49994,0.89484 2.39999,0.90018c0.89996,0.00534 1.79999,0 2.70001,0c0.89999,0 1.79999,0 2.59998,0c0.90002,0 1.80005,0.00534 2.70001,0c0.90005,-0.00534 1.60721,-0.45297 2.5,-0.83334c0.75153,-0.32019 1.83804,-0.04639 2.47916,-0.6875c0.64111,-0.64111 0.52084,-1.67917 0.52084,-2.57932c0,-0.78519 0,-1.72519 0,-2.41583c0,-1.07333 0,-1.98401 0,-2.884c0,-0.89999 0.05438,-1.80167 -0.00015,-2.70001c-0.04272,-0.70386 -0.7468,-1.43719 -0.96384,-2.29999c-0.21973,-0.8735 0.1199,-1.8952 -0.38867,-2.54733c-0.48541,-0.62244 -0.64673,-1.37399 -0.64734,-2.22733c-0.00067,-0.94 -0.28409,-1.88544 -0.64734,-2.52536c-0.43161,-0.76031 -0.9418,-1.61789 -1.23117,-2.39999c-0.31512,-0.85175 -0.12149,-1.69998 -0.12149,-2.60001c0,-0.89999 0,-1.79999 0,-2.69998c0,-0.89999 0,-1.80002 0,-2.70001c0,-0.89999 0,-1.69998 0,-2.60001c0,-0.89999 0.1709,-1.74298 0.64734,-2.40982c0.47406,-0.66354 0.35266,-1.72351 0.35266,-2.5155c0,-0.85867 -0.00082,-1.72198 0,-2.73868c0.00067,-0.836 0.32614,-1.67264 0.716,-2.43597c0.38452,-0.7529 0.284,-1.70001 0.284,-2.60001c0,-0.89999 -0.08212,-1.8038 0.00015,-2.70001c0.08368,-0.91144 0.64801,-1.59964 0.99985,-2.39999c0.35349,-0.80414 0.88303,-1.65884 0.96399,-2.336c0.09097,-0.76068 -0.09283,-1.78116 0.12134,-2.67868c0.21234,-0.88986 0.79205,-1.6973 0.99869,-2.37067c0.29739,-0.96912 0.72409,-1.71265 1.11465,-2.51334c0.3718,-0.76221 0.75739,-1.7139 0.79999,-2.48532c0.05191,-0.93991 -0.15018,-1.97208 0.03735,-2.70532c0.22638,-0.88507 0.99524,-1.55984 1.35333,-2.23602c0.35727,-0.67465 0.58954,-1.7886 1.03598,-2.57465c0.41187,-0.72519 0.78925,-1.5701 1.14935,-2.20001c0.49405,-0.8642 0.90939,-1.6434 1.25867,-2.56665c0.23468,-0.62033 0.388,-1.59052 1.08133,-2.11868l0.08667,-0.91467l0.22,-0.89999l0.42599,-0.60001" id="svg_7" stroke-width="2" stroke="#000" fill="none"/>
  <path t="157217,157297,157313,157347,157364,157364,157383,157397,157414,157429,157446,157463,157479,157496,157496,157513,157534,157534,157546,157563,157563,157579,157596,157613,157629,157646,157646,157663,157663,157679,157679,157696,157729,157729,157763,157763,157763,157763,157763,157796,157796,157796,157817,157817,157838,157838,157838,157858,157858,157880,157899,157899,157913,157913,157936,157957,157957,157957,157964,157979,157979,158001,158001,158022,158022,158022,158042,158042,158047,158047,158068,158088,158102,158102,158113,158134,158134,158146,158166,158179,158198,158214,158229,158229,158246,158263,158263,158263,158279,158296,158296,158313,158313,158329,158329,158346,158346,158363,158363,158379,158379,158379,158397,158397,158414,158414,158414,158430,158430,158430,158447,158463,158463,158464,158479,158479,158496,158496,158513,158513,158513,158529,158529,158546,158563,158579,158579,158596,158597,158655,158745,158784,158814,158880,158880,158896,158960,158998,159022,159080,159118,159180,159195,159195,159238,159270,159320,159350,159382,159382,159390,159422,159446,159454,159463,159479,159496,159513,159513,159529,159529,159546,159563,159563,159579,159579,159596,159613,159629,159629,159646,159662,159679,159679,159696,159712,159729,159729,159746,159746,159762,159779,159779,159798,159818,159818,159841,159841,159841,159862,159862,159862,159882,159882,159905,159905,159905,159925,159925,159925,159946,159947,159967,159989,159989,159998,159998,160019,160020,160041,160041,160064,160064,160083,160083,160083,160097,160097" d="m126,160c-0.57467,1.60001 -0.84878,2.41264 -1.0045,3.3c-0.16296,0.9286 -0.87414,1.43265 -1.47466,2.2c-0.50784,0.6489 -1.00755,1.32478 -1.52084,2.02083c-0.50761,0.68834 -0.60192,1.77455 -1.2215,2.35783c-0.60439,0.56898 -1.45643,0.82529 -2.29934,1.12134c-0.78361,0.27522 -1.61867,0.69499 -2.59383,0.91467c-0.86769,0.19547 -1.68533,0.08533 -2.58533,0.08533c-0.9,0 -1.8,0 -2.7,0c-0.909,0 -1.57066,0 -2.60533,0c-0.744,0 -1.85167,0 -2.68567,0c-0.82983,0 -1.80486,0.05933 -2.59167,-0.07201c-1.0679,-0.17827 -1.68984,-0.48991 -2.37866,-0.78932c-0.72744,-0.31621 -1.44924,-0.67189 -2.51684,-1.11717c-0.95864,-0.39984 -1.58765,-0.5141 -2.679,-1.12167c-0.65607,-0.36525 -1.30949,-1.0665 -1.96816,-1.72516c-0.522,-0.522 -1.28934,-1.28934 -1.764,-1.76401c-0.71066,-0.71066 -1.4109,-1.41042 -1.91067,-1.91066c-0.69901,-0.69966 -1.26788,-1.28284 -1.52533,-2.172c-0.24821,-0.85724 -0.41747,-1.57368 -0.622,-2.32266c-0.32328,-1.18378 -0.34831,-2.10553 -0.35267,-2.89067c-0.00533,-0.96138 -0.01095,-1.58583 -0.284,-2.79733c-0.12103,-0.53699 -0.3935,-1.30037 -0.66334,-2.50751c-0.15398,-0.68884 -0.52406,-1.61754 -0.76867,-2.32584c-0.32594,-0.94377 -0.284,-1.89465 -0.284,-2.80533c0,-0.85333 0,-1.79333 0,-2.67867c0,-0.8 0,-1.7 0,-2.60001c0,-0.89999 -0.13332,-1.81059 0.0045,-2.7c0.14436,-0.93167 0.82958,-1.46953 1.3955,-2.11066c0.63871,-0.7236 0.96906,-1.43355 1.4,-2.10535c0.56088,-0.87436 1.26765,-1.62129 1.836,-2.084c0.80558,-0.65584 1.55569,-0.97362 2.34267,-1.49983c0.66171,-0.44246 1.51935,-0.74623 2.36867,-0.95284c0.92594,-0.22525 1.61042,-0.71719 2.422,-0.86333c0.74422,-0.134 1.56319,-0.10603 2.778,-0.43667c0.68838,-0.18736 1.61551,-0.51294 2.40533,-0.59016c0.8194,-0.08012 1.88067,-0.05717 2.80067,-0.05717c0.76,0 1.7675,0 2.58,0c0.92799,0 1.7185,0 2.745,0c0.88,0 1.755,-0.00008 2.583,0c0.8815,0.00008 1.86459,-0.02525 2.65601,0.08533c1.00584,0.14056 1.63533,0.4303 2.661,0.79333c0.8505,0.30103 1.35412,0.95835 2.0425,1.12133c0.95647,0.22646 1.69131,0.60974 2.57916,1.02533c0.80586,0.37721 1.35728,1.17165 1.4,2.07468c0.04253,0.89899 0.01874,1.7002 0,2.59999c-0.01801,0.86456 -0.6887,1.39868 -1.084,2.10133c-0.4596,0.81696 -0.71195,1.69385 -1.20133,2.39734c-0.54581,0.78462 -1.41371,0.85571 -2.21467,1.30133c-0.79905,0.44455 -1.7,0.5 -2.6,0.5c-0.9,0 -1.7,0 -2.6,0c-0.9,0 -1.83474,0.0529 -2.60001,-0.35266c-0.84589,-0.4483 -1.81436,-0.3609 -2.53333,-0.81401c-0.705,-0.44431 -1.41194,-0.69983 -2.28133,-1.11867c-0.6453,-0.31088 -1.28533,-1.11465 -1.88533,-1.71466c-0.6,-0.60001 -1.30379,-1.29623 -1.8,-1.8c-0.68443,-0.69485 -0.99538,-1.57285 -1.48533,-2.39999c-0.40331,-0.68088 -1.31502,-1.09618 -1.62933,-2.00134c-0.31789,-0.91547 0.13102,-1.8918 -0.36933,-2.62933c-0.47505,-0.70024 -0.716,-1.49066 -0.716,-2.16933c0,-0.9785 0,-1.79867 0,-2.75716c0,-0.8955 0,-1.75883 0,-2.6175c0,-0.947 0,-1.667 0,-2.792c0,-0.786 0,-1.608 0,-2.66667c0,-0.7095 -0.02021,-1.56239 0.00134,-2.568c0.01789,-0.83519 0.14131,-1.77154 0.35583,-2.55133c0.22816,-0.82938 0.62136,-1.8902 0.94283,-2.58566c0.37528,-0.81189 0.98352,-1.51992 1.41467,-2.26034c0.43935,-0.75451 1.02314,-1.46854 1.63717,-1.9585c0.65901,-0.52584 0.93448,-1.43372 1.84949,-2.0735c0.5974,-0.4177 1.63725,-0.59995 2.20317,-0.87383c1.00148,-0.48468 1.59236,-0.8644 2.76216,-1.12884c0.77033,-0.17413 1.57201,-0.19199 2.5,-0.33333l0.79167,-0.33334" id="svg_8" stroke-width="2" stroke="#000" fill="none"/>
  <path t="161827,162078,162125,162157,162199,162215,162245,162269,162285,162285,162309,162333,162349,162357,162373,162389,162397,162421,162421,162445,162461,162477,162501,162525,162533,162533,162565,162597,162637,162693,162693,162774,162774,162847,162847,162863,162894,162959,162959,162974,163006,163030,163062,163078,163118,163118,163142,163158,163198,163230,163280,163295,163335,163381,163382,163430,163462,163544,163576,163576,163614,163738,163738,163984,164087,164087" d="m125,164c-1.8,0 -2.6,0 -3.5,0c-0.9,0 -1.8,0 -2.7,0c-0.9,0 -1.8,0 -2.60001,0c-0.89999,0 -1.8,0 -2.7,0c-0.9,0 -1.8,0 -2.7,0c-0.9,0 -1.83826,0.17355 -2.60001,-0.08533c-0.88791,-0.30176 -1.59946,-0.89667 -2.5,-0.91467c-0.89981,-0.01799 -1.80126,0.04779 -2.7,0c-0.80341,-0.04272 -1.53771,-0.7448 -2.4,-0.964c-0.87314,-0.22197 -1.69167,-0.26926 -2.35716,-0.74049c-0.7179,-0.50835 -1.48788,-0.79753 -2.35617,-1.4955c-0.66135,-0.53162 -0.80269,-1.46634 -1.32266,-2.2c-0.55785,-0.78708 -1.36178,-1.25134 -1.54317,-2.10001c-0.18816,-0.88036 -0.02084,-1.8 -0.02084,-2.7c0,-0.90001 0,-1.8 0,-2.60001c0,-0.89999 0,-1.8 0,-2.7c0,-0.89999 -0.00008,-1.8 0,-2.7c0.00008,-0.90001 0.24213,-1.75378 0.64733,-2.5c0.41329,-0.76112 0.2572,-1.74454 0.63667,-2.5c0.43559,-0.8672 0.67596,-1.56203 1.23684,-2.3c0.59016,-0.7765 1.17916,-1.2 1.87917,-1.89999l0.7,-0.70001l0.5,-0.5" id="svg_9" stroke-width="2" stroke="#000" fill="none"/>
  <path t="164866,165094,165109,165134,165150,165165,165190,165205,165229,165261,165262,165277,165319,165380,165494,165762,165986,166063,166161,166161" d="m102,133c1.8,0 2.7,0 3.6,0c0.9,0 1.8,0 2.7,0c0.89999,0 1.8,0 2.7,0c0.8,0 1.7,0 2.6,0c0.9,0 1.8,-0.00067 2.7,0c0.89867,0.00067 1.616,0.28534 1.92133,1.10001l0.49467,0.7" id="svg_10" stroke-width="2" stroke="#000" fill="none"/>
  <path t="171520,171688,171734,171765,171829" d="m102,122c0,1.8 0,2.7 0,3.6l0,0.9" id="svg_11" stroke-width="20" stroke="#fff" fill="none"/>
  <path t="188339,188614,188647,188685,188717,188741,188765,188797,188821,188845,188877,188909,188978,189038,189038,189112,189166,189277,189311,189357,189357,189412,189486,189518,189558,189558,189612,189627,189671,189718,189750,189766,189790,189830,189830,189862,189886,189886,189902,189950,189974,189974,190022,190046,190046,190069,190109,190141,190165,190205,190221,190221,190262,190312,190358,190358,190366,190382,190421,190469,190485,190509,190549,190565,190606,190607,190645,190677,190693,190725,190749,190765,190797,190797,190821,190829,190845,190877,190885,190901,190917,190917,190933,190949,190981,190981,190997,191021,191037,191069,191077,191117,191117,191173,191246,191246,191270,191294,191350,191389,191390,191430,191445,191485,191533,191559,191573,191605,191637,191637,191695,191711,191737" d="m117,132c1.7,0.05716 2.52801,0.45349 3.2955,0.94733c0.69637,0.44806 0.71516,1.442 1.2045,2.05267c0.48933,0.61067 0.62654,1.38173 1.14733,2.05267c0.45312,0.58377 0.66717,1.33449 1.186,2.114c0.47087,0.70746 0.18465,1.63351 0.16666,2.53333c-0.01801,0.90054 -0.36589,1.80937 -1.2,2.216c-0.75358,0.36737 -1.5,0.73134 -2.3,1.084c-0.8,0.35266 -1.59388,0.93912 -2.5,1c-0.7982,0.05363 -1.7,0 -2.6,0c-0.9,0 -1.8,0 -2.7,0c-0.89999,0 -1.86058,0.19817 -2.7,-0.16667c-0.68455,-0.29753 -1.19741,-1.29909 -2,-1.66666c-0.74272,-0.34015 -1.48849,-0.45462 -2.2215,-1.04533c-0.64632,-0.52086 -1.33088,-0.78435 -2.07851,-1.41684c-0.7558,-0.6394 -1.47953,-0.82355 -2.3,-1.27916c-0.78196,-0.43423 -1.73103,-0.61218 -2.23334,-1.42534c-0.47168,-0.76358 -1.13676,-1.21457 -1.76666,-1.57466c-0.8642,-0.49403 -1.72408,-0.75723 -2.4,-1.42534c-0.58566,-0.57889 -0.9854,-1.38026 -1.5,-2c-0.49991,-0.60205 -0.5,-1.5 -0.5,-2.39999c0,-0.90001 0,-1.8 0,-2.70001c0,-0.89999 0,-1.7 0,-2.59999c0,-0.9 0,-1.8 0,-2.7c0,-0.9 -0.16369,-1.85729 0.22134,-2.7c0.3058,-0.6693 0.77333,-1.49995 0.77866,-2.4c0.00533,-0.89999 0,-1.8 0,-2.7c0,-0.9 -0.16815,-1.83644 0.08533,-2.60001c0.25634,-0.77216 0.79009,-1.64584 1.19866,-2.39999c0.35218,-0.65008 0.70334,-1.50008 0.716,-2.4c0.01267,-0.90015 0.5432,-1.6033 0.8785,-2.5c0.31808,-0.85064 0.13465,-1.75045 0.64233,-2.4c0.60062,-0.76845 1.33987,-1.2459 1.8685,-1.9c0.60133,-0.74407 1.01507,-1.44727 1.81066,-1.884c0.64812,-0.35577 1.49999,-0.71375 2.4,-0.716c0.9,-0.00225 1.8,0 2.7,0c0.89999,0 1.8,0 2.7,0c0.8,0 1.7,0 2.6,0l0.9,0" id="svg_15" stroke-width="2" stroke="#000" fill="none"/>
  <path t="199435,199681,199681,199719,199775,199831,199839,199895,199951,200027,200070,200070,200118" d="m98,118c0,1 0,1.8 0,2.7c0,0.9 0,1.8 0,2.7c0,0.9 0,1.8 0,2.7l0,0.9l0,0.8l0,0.89999" id="svg_16" stroke-width="2" stroke="#000" fill="none"/>
  <path t="204702,204856,204887,204918,204918,204928,204945,204945,204998,205328,205344,205374,205398,205398,205430,205430,205454,205502,205502,205542" d="m456,149c1.60001,-0.57466 2.4736,-0.83432 3.29999,-1.35716c0.56519,-0.35757 1.17459,-1.16927 1.90002,-1.84151c0.58044,-0.53787 1.10489,-1.25887 1.96664,-1.63466c0.69424,-0.30275 0.83334,0.93333 0.83334,1.83333c0,0.88533 -0.00732,1.82538 0,2.51601c0.01044,0.98416 0.284,1.96799 0.57468,2.65866l0.34131,0.94" id="svg_17" stroke-width="2" stroke="#000" fill="none"/>
  <path t="209766,210046,210046,210102,210118,210150,210166,210182,210214,210230,210254,210254,210278,210310,210318,210350,210366,210390,210390,210407,210431,210462,210478,210606" d="m531,269c1,0 1.91602,0 2.70453,0c0.89545,0 1.79547,0 2.6955,0c0.89996,0 1.79999,0 2.69995,0c0.90002,0 1.70001,0 2.60004,0c0.89996,0 1.79999,0.00226 2.70001,0c0.89996,-0.00226 1.73834,-0.38608 2.39996,-0.716c0.84338,-0.42056 1.79999,-0.32001 2.60004,-0.70932l0.79865,-0.49066l0.71735,-0.36801" id="svg_18" stroke-width="2" stroke="#000" fill="none"/>
  <path t="211611,211801,211817,211846,211861,211861,211878,211894,211925,211933,211965,211989,212030" d="m515,219c1.79999,0 2.70001,-0.00056 3.52081,0c0.96185,0.00067 1.77637,0.04752 2.49384,0.57466c0.63904,0.4695 1.15204,1.25867 1.98535,1.42534l0.83331,0.16667l0.45068,0.74933l0.69067,0.52" id="svg_19" stroke-width="2" stroke="#000" fill="none"/>
  <path t="212855,213177,213222,213222,213247,213262,213286,213302,213318,213327,213344,213411,213572,213607,213881,213881,213912,213950,213950,213974,214006,214030,214054,214078,214144,214144,214175,214229,214229" d="m517,221c1.5,1.5 2.19812,2.20192 2.70001,2.7c0.69739,0.69202 1.59674,1.08002 2.24731,1.65266c0.58887,0.51833 0.99408,1.40604 1.7572,1.64284c0.82178,0.25502 1.17462,0.84528 1.81628,1.48367c0.64716,0.64386 1.61963,0.76685 2.45837,1c0.83051,0.23087 0.75299,-0.69467 0.21948,-1.27917c-0.65686,-0.71971 -0.98218,-1.49371 -1.55133,-2.14732c-0.51947,-0.59654 -1.00043,-1.35643 -1.64734,-2.05267c-0.56055,-0.60329 -0.97467,-1.39999 -1.284,-2.2l-0.43201,-0.60001" id="svg_20" stroke-width="2" stroke="#000" fill="none"/>
 </g>
 <g display="none">
  <title>muse_image</title>
  <image xlink:href="http://static.flickr.com/71/220631094_879be281b2.jpg" id="muse" height="480" width="538" y="0" x="51"/>
 </g>
 <g display="none">
  <title>bbox</title>
  <rect stroke="#f00" fill="none" stroke-width="3" height="249.6861" width="375.524" y="190.49327" x="165.056" id="bbox"/>
 </g>
</svg>
