<svg width="640" height="480" xmlns="http://www.w3.org/2000/svg" xmlns:svg="http://www.w3.org/2000/svg" xmlns:xlink="http://www.w3.org/1999/xlink">
 <!-- Sketchy ANNOTATION
  ImageNet ID: n02395406_40626
  URL: http://farm2.static.flickr.com/1080/989878199_fcad013e6a.jpg
  Image Width: 375
  Image Height: 500
  BBox X: 0
  BBox Y: 36
  BBox Width: 367
  BBox Height: 463
  Exposure: 2000ms
  Synset Label: pig
  Synset ID: n02395406
  Worker Tag: close-up pig sleeping on sawdust
  Sanity Check: 
   Context
   Saved
   Shading
  Comment: 
   {}
  Worker ID: A2HM35CWB7IIFM
  Assignment ID: 3ZOTGHDK5IBQGB6J3JOUP5ENXSNOSL
  HIT ID: 3CMIQF80GNQMR5N8LH8TOLIATHT6QP
  Work Time: 70s
  Worker Score: 0.9286
 END ANNOTATION -->
 <g display="inline">
  <title>Layer 1</title>
  <path t="0,133,134,134,134,135,139,139,145,145,146,146,146,146,146,160,160,160,160,160,160,160,168,168,168,168,168,187,187,188,194,195,195,205,205,218,218,234,242,243,254,254,267,268,284,284,284,291,291,303,303,304,304,319,319,319,319,335,335,335,335,340,340,341,341,353,353,353,353,368,368,369,384,384,390,390,401,401,401,418,418,418,426,427,427,427,438,438,439,439,451,452,452,467,467,467,476,476,488,488,501,501,517,525,537,723,748,761,762,776,777,778,791,791,796,796,808,808,820,820,820,835,852,857,881,900,906,906,918,919,934,935,943,943,955,956,967,967,967,968,984,984,984,993,993,1004,1004,1005,1018,1018,1018,1034,1034,1034,1042,1042,1053,1053,1067,1067,1067,1083,1090,1091,1091,1103,1103,1117,1117,1117,1118,1134,1134,1135,1140,1141,1141,1141,1151,1151,1152,1167,1167,1167,1178,1178,1178,1188,1189,1201,1201,1202,1218,1218,1226,1227,1227,1238,1238,1250,1268,1276,1287,1301,1301,1318,1318,1318,1324,1324,1325,1336,1337,1337,1337,1351,1351,1351,1351,1367,1367,1374,1374,1374,1385,1385,1401,1401,1401,1413,1413,1429,1442,1451,1451,1460,1471,1471,1484,1484,1484" d="m301,192.89999c-1.10016,-5.94283 -1.20074,-6.56941 -1.3045,-7.20982c-0.10559,-0.6516 -0.328,-1.97615 -0.45267,-2.642c-0.12469,-0.66615 -0.40176,-1.9834 -0.56433,-2.62666c-0.3205,-1.26826 -0.51151,-1.88641 -0.69934,-2.50067c-0.18686,-0.61108 -0.57974,-1.81975 -0.97916,-3.02084c-0.19946,-0.59978 -0.40039,-1.19676 -0.78934,-2.37866c-0.19067,-0.57939 -0.38031,-1.14755 -0.72534,-2.25066c-0.32397,-1.03569 -0.60303,-1.99782 -0.84933,-2.888c-0.22815,-0.82457 -0.42773,-1.59666 -0.73581,-2.66101c-0.19141,-0.66125 -0.51373,-1.56383 -0.73352,-2.655c-0.14175,-0.70377 -0.1424,-1.56247 -0.168,-2.56534c-0.01956,-0.76585 -0.24478,-1.74641 -0.70316,-2.29683c-0.63367,-0.76088 -1.15869,-1.62877 -1.2955,-2.3045c-0.1991,-0.98329 -0.56033,-1.64255 -1.30899,-2.29999c-0.62317,-0.54726 -1.46732,-0.88298 -2.19101,-1.22084c-0.74097,-0.34592 -1.50726,-0.98615 -2.15067,-1.65382c-0.65823,-0.68309 -1.36182,-1.08711 -2.20667,-1.45067c-0.62616,-0.26944 -1.66562,-0.69247 -2.39532,-1.02734c-0.74902,-0.34372 -1.4881,-0.70966 -2.58069,-1.18066c-0.67737,-0.29202 -1.33914,-0.52104 -2.26215,-0.91933c-0.91336,-0.39412 -1.80893,-0.89732 -2.40451,-1.26817c-0.60458,-0.37643 -1.5065,-0.96965 -2.39099,-1.57916c-0.57162,-0.39391 -1.16248,-0.73192 -1.966,-1.60001c-0.51816,-0.55978 -0.9314,-1.40456 -1.44299,-2.39549c-0.29489,-0.57118 -0.9328,-1.49919 -1.30002,-2.06584c-0.55112,-0.85046 -0.79663,-1.60127 -1.10001,-2.39049c-0.39545,-1.0287 -0.73746,-1.71841 -0.94281,-2.45801c-0.3096,-1.11507 -0.31183,-1.7995 -0.33633,-2.511c-0.03772,-1.09602 -0.01212,-2.15778 -0.02533,-2.822c-0.01886,-0.94683 -0.03793,-1.56372 -0.27951,-2.75716c-0.18362,-0.90716 -0.41962,-1.49052 -0.59451,-2.69967c-0.12643,-0.87405 -0.11923,-1.68599 -0.12149,-2.5575c-0.00229,-0.891 0,-1.8 0,-2.54733c0,-0.99416 0,-1.93833 0,-2.83833c0,-0.95716 0.08868,-1.86154 0,-2.75716c-0.08374,-0.8457 -1,-1 -1.81433,-1c-0.95502,0 -1.70651,0 -2.50299,0c-0.99734,0 -1.87201,0 -2.88251,0c-0.77934,0 -1.78658,-0.06837 -2.61,0.05717c-0.97243,0.14825 -1.71837,0.36769 -2.33684,0.74416c-0.90329,0.54984 -1.37059,1.35836 -1.93733,1.91467c-0.60558,0.59443 -1.18732,1.24719 -1.916,1.95066c-0.55991,0.54053 -0.93149,1.21312 -1.084,1.936c-0.21347,1.01179 -0.61452,1.80032 -1.01601,2.59717c-0.39415,0.7823 -0.89203,1.63961 -1.42082,2.321c-0.63634,0.81996 -1.13751,1.48518 -1.47917,2c-0.52478,0.79074 -0.948,1.5764 -1.5,2.4375c-0.36423,0.56818 -1.14273,1.31866 -1.74667,1.631c-0.8949,0.46281 -1.72015,0.68202 -2.528,1.04667c-1.07935,0.48719 -1.56152,0.82067 -2.18365,1.36399c-0.91013,0.79483 -1.41486,1.37616 -1.92567,1.884c-0.77094,0.76643 -1.25871,1.37967 -2.31583,1.87334c-0.56175,0.26233 -1.68965,0.52501 -2.16417,1.104c-0.49881,0.60864 -1.08031,1.48163 -1.636,2.30533c-0.43608,0.64641 -0.70695,1.23438 -1.2,2.23466c-0.30432,0.6174 -0.80606,1.76305 -1,2.28401c-0.30971,0.83194 -0.60022,1.71591 -0.90001,2.61465c-0.3002,0.89993 -0.4996,1.50014 -0.89999,2.7c-0.1998,0.59874 -0.48463,1.48485 -0.8,2.31467c-0.38281,1.00723 -0.68762,1.68529 -1.08533,2.28401c-0.55405,0.83408 -1.15532,1.3925 -1.63068,2.08667c-0.65723,0.95975 -0.93916,1.80449 -1.28265,2.54532c-0.37674,0.81255 -0.95624,1.51974 -1.68533,2.25334c-0.5144,0.51758 -0.9897,1.07748 -1.76784,1.75883c-0.68283,0.5979 -1.51617,0.95717 -2.24817,1.25716c-0.73199,0.3 -1.70697,0.77502 -2.29733,1.3c-0.73027,0.6494 -1.77652,0.90561 -2.16667,1.636c-0.40744,0.76274 -0.036,1.76666 -0.036,2.53467c0,1.04367 0,1.85066 0,2.43201c0,1.19865 0,2.11816 0,2.7545c0,1.36417 0,2.09549 0,2.84282c0,0.74734 -0.01097,1.83345 0.0045,2.83835c0.00955,0.62013 0.00197,1.49403 0.28084,2.47632c0.25487,0.89775 0.67583,1.70679 1.12532,2.47467c0.43793,0.74811 1.15012,1.24565 1.72801,1.87201c0.73012,0.79134 0.77109,1.59416 0.9095,2.33333c0.19533,1.04308 0.80342,1.77141 0.94733,2.70534c0.125,0.81126 0.0045,1.784 0.0045,2.64732c0,0.90001 0,1.81934 0.02083,2.67351l0.14584,0.97916l0.25867,0.78934l0.29066,0.72534" id="svg_1" stroke-width="2" stroke="#000" fill="none"/>
  <path t="2407,2530,2543,2543,2555,2555,2555,2555,2567,2568,2568,2568,2568,2568,2586,2586,2586,2586,2591,2592,2592,2592,2603,2603,2603,2619,2619,2619,2636,2636,2640,2641,2653,2653,2667,2667,2668,2677,2677,2677,2690,2690,2690,2701,2701,2701,2717,2726,2726,2739,2739,2751,2751,2767,2767,2776,2776,2788,2788,2788,2788,2802,2802,2802,2802,2817,2817,2818,2818,2825,2825,2825,2825,2825,2837,2837,2837,2837,2837,2851,2851,2851,2851,2867,2867,2867,2874,2874,2887,2887,2948" d="m246,192.89999c0,-1.75716 0,-2.66615 0,-3.51883c0,-0.8145 0,-1.8 0,-2.54367c0,-0.80367 0,-2.10416 0,-2.55882c0,-0.93134 0,-1.87868 0,-2.826c0,-0.46866 0,-1.83099 0,-2.69099c0,-0.82001 -0.00244,-1.60001 0,-2.69501c0.00226,-1.00949 -0.01578,-1.64912 0.08533,-2.56534c0.09996,-0.90585 0.35486,-1.78694 0.56201,-2.64417c0.24927,-1.03149 0.27257,-1.73018 0.43666,-2.55583c0.20209,-1.01686 0.64827,-1.78241 0.83067,-2.80133c0.14159,-0.79091 0.08533,-1.8 0.08533,-2.60001c0,-1 0,-1.81065 0,-2.45715c0,-0.96434 0,-1.77884 0,-2.64734c0,-1.19533 0,-1.791 0,-2.6595c0,-1.06934 -0.00803,-1.98938 0,-2.74933c0.01042,-0.98685 0.31433,-1.96057 0.57466,-2.69734c0.34476,-0.97571 0.30655,-1.80054 0.59201,-2.62267c0.29222,-0.84161 0.71034,-1.65797 0.85866,-2.34132c0.20747,-0.95598 0.75983,-1.61784 1.29584,-2.3685c0.51665,-0.72353 0.86736,-1.29341 1.1095,-1.94484c0.50584,-1.36082 0.51321,-2.13643 0.548,-2.88667c0.03436,-0.74077 0.0079,-1.8044 0.032,-2.81067c0.01619,-0.67627 0.04863,-1.3873 0.211,-2.5575c0.12071,-0.8699 0.31311,-1.77962 0.425,-2.24249c0.22612,-0.93547 0.65994,-2.29897 1.0105,-3.15301c0.1716,-0.41805 0.53944,-1.22239 0.94417,-1.975c0.5786,-1.07594 0.99248,-1.72604 1.37782,-2.345c0.5332,-0.85645 1.12662,-1.86234 1.52084,-2.52083c0.37439,-0.62536 0.98267,-1.4195 1.47916,-2l0.6875,-0.85417l0.31201,-0.756l0.08383,-0.88983" id="svg_2" stroke-width="2" stroke="#000" fill="none"/>
  <path t="4473,4620,4620,4633,4633,4633,4650,4650,4650,4650,4657,4657,4658,4658,4669,4669,4669,4669,4685,4685,4685,4700,4700,4706,4706,4717,4767,4789,4793,4805,4805,4820,4820,4834,4834,4866,4867,4881,4882,4896,4896,4913,4914,4916,4940,4941,4964,4976,4976,4989,5008,5025,5038,5038,5050,5068,5075,5075,5087,5087,5100,5100,5101,5117,5118,5118,5118,5124,5124,5124,5136,5136,5136,5136,5136,5150,5150,5151,5151,5151,5151,5166,5166,5166,5167,5167,5167,5173,5174,5174,5174,5174,5184,5185,5185,5185,5200,5200,5200,5200,5210,5210,5212,5212,5212,5221,5221,5221,5221,5222,5234,5234,5234,5234,5234,5234,5234,5235,5250,5250,5250,5251,5251,5251,5251,5251,5260,5260,5260,5260,5260,5261,5261,5271,5271,5271,5271,5271,5272,5284,5284,5284,5284,5300,5300,5384,5384,5406,5482,5728,5745,5745,5764,5777,5800,5818,5826,5836,5837,5852,5877,5877,5887,5888,5920,5920,5922,5923,5923,5923,5951,5952,5981,5981,5982,6004,6004,6005,6035,6036,6036,6081,6082,6082,6083,6083,6083,6083,6087,6087,6087,6087,6087,6088,6088,6088,6088,6099,6099,6100,6100,6100,6108,6108,6108,6108,6120,6120,6120,6120,6120,6121,6133,6134,6134,6134,6134,6134,6151,6151,6152,6152,6152,6156,6156,6157,6157,6174,6175,6175,6191,6192,6192,6196,6209,6218,6219,6267,6268" d="m304,186.89999c1.84668,0 2.68668,0 3.68668,0c0.85498,0 1.47498,0 2.83466,0c0.73132,0 1.47867,0 2.22601,0c1.086,0 2.09998,0 2.75266,0c0.98401,0 2.02118,0 2.74817,0c0.73099,0 1.7825,0 2.70883,0c1.00134,0 1.64032,0 2.64301,0c0.79999,0 1.79868,0 2.74283,0c0.89999,0 1.86578,-0.12407 2.75699,0.00017c0.80209,0.11182 1.21475,1.02672 1.92102,1.49983c0.7926,0.53096 1.44995,1.00879 2.07932,1.60001c0.6485,0.60919 1.36157,1.14429 2.07449,1.464c0.9166,0.41106 1.70935,0.43532 2.66135,0.43599c0.76532,0.00053 1.75949,0 2.67868,0c0.98532,0 1.80664,0.0006 2.65997,0c0.94,-0.00067 1.96335,-0.03545 2.46817,-0.7045c0.56665,-0.75098 1.03268,-1.21497 1.75717,-1.73149c0.78561,-0.5601 1.25659,-1.3112 1.89999,-1.8595c0.75351,-0.64214 1.7327,-0.83009 2.30002,-1.31517c0.75153,-0.64259 1.13892,-1.16531 1.888,-1.87334c0.56119,-0.53044 1.26129,-1.07755 2.15466,-1.49466c0.64792,-0.30251 1.7175,-0.61967 2.38934,-0.90533c0.94183,-0.40047 1.72083,-0.9464 2.18265,-1.36267c0.98337,-0.8864 1.47797,-1.43436 2.02133,-2.01067c0.58261,-0.61795 0.89911,-0.93758 1.76401,-2.076c0.6225,-0.81938 0.90408,-1.27382 1.5,-2.1875c0.30206,-0.46315 0.58942,-0.93794 1.5,-2.3125c0.29642,-0.44745 0.89645,-1.30882 1.47916,-2.14583c0.28531,-0.40985 0.84842,-1.21129 1.35419,-2.02084c0.49408,-0.79085 0.93179,-1.58871 1.35599,-2.364c0.4104,-0.75006 1.00433,-1.81837 1.41068,-2.47882c0.39386,-0.64015 0.79477,-1.25615 1.39999,-2.15718c0.60382,-0.89899 1.01266,-1.50481 1.51434,-2.04283c0.77628,-0.83249 1.44852,-1.28308 2.147,-1.73183c0.7175,-0.46095 1.46979,-0.8895 2.172,-1.392c0.69962,-0.50063 1.36206,-1.0807 2.064,-1.68001c0.36935,-0.31535 1.59958,-1.32405 2.06732,-1.67467c0.4895,-0.36693 1.55106,-1.10851 2.11868,-1.47867c0.58167,-0.3793 1.18262,-0.75531 1.806,-1.116c1.26801,-0.73367 1.92975,-1.06676 2.59332,-1.39999c1.32791,-0.66687 1.99768,-0.9816 2.65601,-1.30934c0.65268,-0.32494 1.30453,-0.63641 2.52798,-1.34132c0.59665,-0.34377 1.168,-0.7081 2.26135,-1.448c0.53296,-0.36067 1.03992,-0.7401 2.06934,-1.416c0.99252,-0.65169 1.49792,-0.93402 2.48465,-1.4595c0.47342,-0.25214 1.40613,-0.67331 2.17667,-1.1925c1.0015,-0.6748 1.43481,-1.25391 1.77884,-1.79649c0.46698,-0.73654 1.22339,-1.7011 1.73715,-2.1355c0.8172,-0.69099 1.16608,-1.49884 1.92517,-2.1425c0.64075,-0.5433 1.13315,-1.47583 0.90018,-1.47583c-0.75165,0 0,1.71216 0,2.633c0,0.89999 0,1.8 0,2.7c0,0.89999 -0.12317,1.71541 0.05716,2.65717c0.17734,0.92618 0.69971,1.56146 0.88568,2.49467c0.14066,0.7058 0.05716,1.7625 0.05716,2.56949c0,1.17867 0,1.776 0,2.63701c0,0.771 0,1.90166 0,2.595c0,1 0,1.9675 0,2.64583c0,1.25783 0,2.02884 0,2.69183c0,1.01567 0,1.71317 0,2.63567c0,1.28134 0,1.804 0,2.37267c0,1.26733 0,1.96201 0,2.69467c0,0.76866 0,2.40599 0,3.26933c0,0.88333 0,1.77667 0,2.67c0,0.88333 0,1.74667 0,2.58c0,0.79333 0,2.22 0,2.83617c0,0.55316 0,1.4985 0,2.27583c0,1.27466 0,1.87733 0,2.81633c0,0.67267 0,1.79167 0,2.63034c0,0.91066 0,1.39049 0,2.39417c0,0.52184 0.00156,2.155 -0.00134,2.71649c-0.00586,1.13203 -0.00873,1.6969 -0.05582,2.80751c-0.02292,0.54074 -0.15851,2.06763 -0.22684,2.53915c-0.13049,0.90031 -0.30563,1.7469 -0.43201,2.56801c-0.18457,1.19916 -0.22989,1.99377 -0.284,2.761c-0.0513,0.72742 -0.20267,2.00394 -0.42532,2.78033c-0.20496,0.71461 -0.48227,1.6799 -0.53867,2.476c-0.07181,1.01404 -0.03601,1.97099 -0.03601,2.88533c0,0.89999 0,1.65717 0,2.55267l0,0.86333" id="svg_3" stroke-width="2" stroke="#000" fill="none"/>
  <path t="7294,7413,7413,7426,7426,7426,7426,7426,7426,7443,7443,7444,7444,7444,7444,7454,7454,7455,7455,7455,7461,7461,7461,7461,7485,7485,7501,7501,7510,7510,7523,7523,7534,7535,7552,7552,7559,7559,7559,7571,7571,7572,7584,7584,7584,7584,7602,7602,7602,7603,7603,7608,7608,7608,7608,7620,7620,7621" d="m371,203.89999c1.30899,-1.67065 1.6637,-2.32335 2.33334,-3.5c0.43198,-0.75905 0.67972,-1.17224 1.20831,-2.0625c0.27899,-0.46989 0.86111,-1.44145 1.45834,-2.4375c0.29968,-0.4998 0.89453,-1.49345 1.17868,-1.98932c0.55627,-0.97072 0.8428,-1.43652 1.48798,-2.84401c0.20166,-0.43997 0.5318,-1.30084 0.79169,-2.125c0.24478,-0.77628 0.53256,-1.87775 0.74167,-2.55367c0.28754,-0.92944 0.52356,-1.759 1.00131,-2.51866c0.48318,-0.76831 1.2641,-1.47206 1.79868,-1.9485c0.80649,-0.7188 1.64545,-0.93805 2.3045,-1.38251c0.64911,-0.43776 1.32468,-1.31279 1.87015,-1.77699c0.77258,-0.65749 1.62143,-0.90463 2.31067,-1.43333c0.5762,-0.442 1.13583,-1.1004 1.91467,-2.112c0.41061,-0.53333 0.77631,-1.10901 1.60001,-2.14934c0.39029,-0.49294 1.02512,-1.18373 1.45715,-1.6765c0.71661,-0.81732 1.23196,-1.45552 1.76819,-2.1515c0.55466,-0.71991 1.09464,-1.45316 1.608,-2.172c0.48373,-0.67734 0.91998,-1.31999 1.505,-2.205l0.495,-0.795l0.40948,-0.7095l0.45267,-0.85266" id="svg_4" stroke-width="2" stroke="#000" fill="none"/>
  <path t="9016,9206,9207,9207,9219,9219,9219,9219,9219,9219,9234,9234,9234,9234,9244,9244,9245,9245,9245,9255,9256,9256,9269,9269,9269,9284,9284,9293,9293,9293,9306,9306,9318,9335,9342,9342,9353,9353,9368,9368,9368,9385,9385,9385,9385,9391,9391,9391,9402,9402,9402,9402,9418,9418,9418,9434,9434,9434,9439,9440,9440,9452,9452,9468,9468,9468,9477,9477,9489,9489,9489,9501,9501,9502,9502,9519,9519,9519,9519,9526,9526,9527,9527,9527,9527,9537,9537,9537,9538,9538,9538,9551,9551,9551,9552,9552,9567,9568,9568,9568,9575,9575,9591,9591,9591,9603,9603,9603" d="m362,197.89999c3.60132,0.28934 4.53995,0.54492 5.15717,0.87601c1.04581,0.561 1.73154,1.17174 2.091,1.491c0.74374,0.66057 1.10712,1.01344 1.7825,1.75166c0.95023,1.03865 1.4686,1.71901 1.92767,2.38133c0.44608,0.64357 1.04807,1.66315 1.44034,2.38268c0.39716,0.72849 0.76694,1.45517 1.116,2.14799c0.46616,0.92525 0.8291,1.71594 1.23798,2.36034c0.52982,0.83496 1.09091,1.39362 1.59467,2.009c0.79828,0.97517 1.06763,1.65295 1.81934,2.43333c0.44092,0.45773 1.22473,0.80153 2.07617,1.46666c0.58917,0.46025 1.35226,1.1429 1.7045,2.0045c0.33664,0.82347 0.51584,1.73143 1.05267,2.52884c0.47244,0.70178 1.17862,1.32187 1.65268,1.82832c0.5358,0.57239 1.20135,1.49445 1.59467,2.291c0.26688,0.54054 0.57639,1.40215 1.23798,2.36334c0.49252,0.71558 0.94678,1.11465 1.71436,2.1055c0.40625,0.52443 0.9726,1.36859 1.22964,1.97983c0.48969,1.16446 0.46313,1.8004 0.67603,2.64151c0.26727,1.05597 0.75555,1.7215 1.24649,2.35266c0.6261,0.80493 1.13474,1.6006 1.44684,2.2045c0.51358,0.99374 0.80829,1.59656 1.30115,2.60001c0.2937,0.59796 0.66769,1.38919 0.8475,2.4045c0.14981,0.84598 0.25891,1.82117 0.48868,2.6315c0.16385,0.57784 0.57092,1.76175 0.76266,2.36533c0.29105,0.91621 0.49796,1.54764 0.67999,2.92033c0.09769,0.73674 0.11191,1.52066 0.17401,2.34001c0.099,1.30623 0.15845,1.76155 0.3045,2.7c0.1528,0.98175 0.25317,1.48505 0.44415,2.52499c0.19836,1.08008 0.30286,1.63373 0.49417,2.76151c0.09604,0.56613 0.27448,1.68967 0.34732,2.242c0.20761,1.57434 0.24173,2.06622 0.3045,2.991c0.05811,0.85596 0.06165,1.65808 0.21933,2.75217c0.14581,1.01163 0.35559,1.61969 0.54935,2.48001c0.22458,0.99716 0.27866,1.91196 0.284,2.85333c0.00446,0.78598 0,1.608 0,2.66666l0,0.91998l0,0.76001" id="svg_5" stroke-width="2" stroke="#000" fill="none"/>
  <path t="10403,10572,10573,10573,10573,10591,10592,10592,10592,10601,10601,10601,10601,10609,10609,10620,10620,10620,10633,10633,10633,10633,10650,10651,10651,10651,10657,10657,10657,10657,10657,10669,10669,10669,10669,10684,10684,10684,10700,10701,10706,10706,10719,10719,10733,10733,10749,10750,10750,10756,10756,10756,10756,10768,10768,10768,10768,10784,10784,10784,10785,10785,10792,10793,10793,10793,10793,10793,10804,10805,10805,10805,10817,10817,10817,10834,10834,10834,10842,10842,10853,10853,10867,10867,10867,10884,10884,10884,10891,10891,10891,10903,10903,10917,10917,10917,10917,10933,10933,10940,10940,10940,10952,10952,10966,10966,10966,10978,10978,10989,10990,11001,11001,11001,11018,11018,11038,11038,11063" d="m403,281.89999c1.20001,3.884 1.39902,4.62561 1.60001,5.37466c0.19901,0.74161 0.49765,1.80472 0.69998,2.47269c0.29657,0.97903 0.50961,1.63394 0.79984,2.67383c0.20239,0.72516 0.47775,1.8147 0.61484,2.50949c0.1821,0.92294 0.20947,1.94269 0.452,2.96933c0.14572,0.61685 0.55453,1.4505 0.93335,2.42166c0.20926,0.53647 0.50665,1.42297 0.69998,2.065c0.31073,1.03183 0.60172,2.15958 0.70001,2.55502c0.20358,0.81909 0.50159,2.12466 0.70001,3.04099c0.10077,0.46533 0.2933,1.39801 0.5,2.3075c0.29062,1.27869 0.48831,2.04135 0.69998,2.72717c0.28439,0.92148 0.58258,1.72369 1,2.64667c0.28809,0.63702 0.81906,1.62527 1.07916,2.21518c0.43423,0.9848 0.65784,1.85812 1.38217,2.43149c0.47089,0.37274 1.2587,1.07187 1.76401,1.79999c0.54568,0.78632 1.02182,1.39871 1.58533,1.98935c0.77579,0.81314 1.39969,1.39484 1.98935,2.03598c0.40723,0.44278 1.20541,1.44772 1.61066,2.01068c0.42969,0.59689 0.86896,1.24405 1.61084,2.27484c0.53159,0.73859 0.8132,1.11545 1.38916,1.88916c0.58936,0.79166 1.19257,1.58694 1.78665,2.38934c0.29529,0.3988 0.87534,1.19073 1.38834,2c0.25076,0.3956 0.88666,1.59348 1.2045,2.39099c0.30356,0.76169 0.47275,1.53665 1.13116,2.76599c0.29459,0.55002 0.88547,1.1969 1.51202,2.043c0.43231,0.58377 0.85757,1.40231 1.36667,2.39868c0.2973,0.58188 0.76532,1.46326 1.32083,2.10132c0.6095,0.70004 1.31516,1.336 1.88367,1.90451c0.59549,0.59549 1.20978,1.17822 1.75949,1.7955c0.69373,0.77896 1.21051,1.59433 1.53149,2.19998c0.52451,0.98969 0.73508,1.69757 1.63785,2.43335c0.61298,0.49957 1.45294,0.75366 1.98398,0.96533c0.99911,0.39825 1.89963,0.79736 2.68268,1.36801c0.61887,0.45102 1.04636,1.17389 2.11734,1.66266c0.64694,0.29526 1.65283,0.1514 2.4035,0.1915c0.79794,0.04263 2.01782,0.34439 2.66849,0.55383c1.00461,0.32336 1.81052,0.41492 2.81067,0.42532c0.79996,0.00833 1.60001,0 2.60001,0c0.79999,0 1.79868,0 2.564,0l0.95065,0" id="svg_6" stroke-width="2" stroke="#000" fill="none"/>
  <path t="12235,12466,12491,12527,12539,12551,12568,12576,12576,12588,12588,12625,12749,12785,12802,12811,12811,12833,12849,12849,12858,12858,12858,12870,12870,12870,12870,12883,12883,12883,12883,12883,12883,12902,12902,12902,12902,12902,12902,12907,12907,12907,12907,12919,12919,12919,12919,12933,12933,12933,12949,12950,12956,12956,12969,12969,12983,12983,12999,13000,13000,13006,13006,13006,13017,13017,13017,13018,13033,13033,13049,13049,13055,13055,13055,13067,13067,13083,13083,13092,13092,13092,13092,13104,13104,13116,13116,13133,13133,13133,13140,13141,13153,13153,13167,13183,13183,13202" d="m464,361.89999c1.70001,0 2.70001,0 3.60001,0c0.89999,0 1.79999,0 2.60132,0c0.96533,0 1.79868,0 2.77716,0c0.82019,0 1.8349,-0.39337 2.58551,0.03601c0.69064,0.39508 0.436,1.48483 0.436,2.448c0,0.86334 0.0112,1.7634 0,2.68268c-0.01044,0.85434 -0.11823,1.85168 -0.44666,2.64398c-0.27539,0.66437 -0.87253,1.61273 -1.215,2.15552c-0.37729,0.59802 -0.80527,1.24933 -1.505,2.36716c-0.52261,0.8349 -0.79172,1.28027 -1.35419,2.20834c-0.29047,0.47925 -0.58414,0.96701 -1.47916,2.45831c-0.2998,0.49957 -0.89224,1.49026 -1.17868,1.97867c-0.28088,0.47894 -0.8335,1.39325 -1.48798,2.68802c-0.38095,0.75363 -0.64868,1.4682 -0.98401,2.07599c-0.62155,1.12662 -1.10718,1.58316 -1.60001,2.02133c-0.72931,0.64838 -1.62076,1.42447 -2.08798,2.02533c-0.42264,0.54355 -1.13687,1.33792 -1.836,1.80002c-0.79446,0.52512 -1.41733,1.00797 -2.12985,1.71515c-0.58301,0.57864 -1.20361,1.15863 -1.87015,1.90616c-0.68417,0.76733 -1.12668,1.36618 -1.37869,2.02533c-0.43903,1.14822 -0.40891,1.72037 -0.43597,2.57468c-0.03769,1.18878 -0.00089,2.08542 -0.03152,2.66852c-0.04401,0.83682 -0.34436,2.05948 -0.55383,2.71014c-0.32346,1.00461 -0.35205,1.82568 -0.59198,2.81067c-0.19897,0.81693 -0.56561,1.38107 -0.74802,2.39999c-0.14157,0.79092 -0.04391,1.80228 -0.10617,2.62085c-0.08759,1.15176 -0.33298,1.93152 -0.47916,2.47916c-0.21771,0.81555 -0.46265,2.04172 -0.48932,2.68933c-0.0416,1.00989 -0.01068,1.81067 -0.01068,2.81067c0,0.80002 0,1.60001 0,2.60001c0,0.79999 0,1.79868 0,2.74283c0,0.89999 0,1.85852 0,2.54251l0,0.94" id="svg_7" stroke-width="2" stroke="#000" fill="none"/>
  <path t="14199,14370,14370,14370,14383,14383,14400,14400,14400,14407,14408,14420,14433,14450,14450,14457,14457,14457,14469,14470,14470,14470,14484,14484,14484,14484,14484,14484,14484,14501,14501,14501,14501,14501,14501,14507,14507,14507,14507,14507,14518,14518,14518,14533,14534,14534,14543,14543,14555,14555,14568,14583,14592,14593,14604,14616,14616,14617,14633,14634,14641,14641,14642,14653,14653,14667,14667,14667,14667,14683,14683,14683,14690,14691,14691,14703,14703,14716,14717,14717,14733,14734,14740,14741,14751,14751,14767,14767,14767,14783,14784,14788,14789,14789,14801,14801,14801,14816,14817,14826,14850" d="m477,363.89999c0.94284,2.95267 0.98697,3.49985 0.99866,4.31601c0.01764,1.2312 -0.0282,1.92136 0.22284,3.10516c0.1705,0.80408 0.30176,1.35995 0.87833,2.43582c0.4053,0.75632 0.87158,1.44168 0.90018,2.34436c0.03055,0.96484 0.00644,1.81952 0,2.79865c-0.00534,0.81073 -0.01486,1.46536 -0.22168,2.42218c-0.18707,0.86557 -0.42615,1.53214 -0.66498,2.3205c-0.43695,1.44235 -0.59845,1.99606 -0.77051,2.577c-0.17862,0.60306 -0.55185,1.85153 -0.74734,2.48401c-0.19516,0.6315 -0.58905,1.86523 -0.99417,3.02432c-0.19373,0.55426 -0.3923,1.08871 -0.76532,2.11469c-0.35223,0.96878 -0.67346,1.88934 -0.952,2.76932c-0.26254,0.82944 -0.47733,1.61783 -0.76801,2.31601c-0.39465,0.94791 -0.94272,1.69891 -1.46332,2.36301c-0.63303,0.8075 -1.10352,1.62708 -1.53668,2.12366c-0.69598,0.79791 -1.50006,1.12897 -2.23065,1.68533c-0.72388,0.55127 -1.38065,1.13953 -1.80133,2c-0.41745,0.85385 -0.82629,1.4649 -1.48401,2.21066c-0.6384,0.72388 -1.00574,1.42233 -1.30002,1.99384c-0.50998,0.99042 -0.9043,1.79337 -1.29999,2.59549c-0.39362,0.79791 -0.71405,1.38327 -0.91599,2.40268c-0.17026,0.85947 -0.23816,1.93314 -0.36935,2.56534c-0.21509,1.03644 -0.39206,1.73529 -0.71466,2.69867c-0.27695,0.82709 -0.59573,1.5141 -1.10001,2.53333c-0.29749,0.60126 -0.70001,1.39999 -1.10001,2.19998c-0.40002,0.80002 -0.87259,1.81519 -1.21066,2.38934c-0.43982,0.74698 -1.24274,1.45236 -1.93665,1.90616c-0.7695,0.50327 -1.39056,1.02679 -2.138,1.50586c-0.71191,0.4563 -1.51468,0.96533 -2.11469,1.44681c-0.79999,0.642 -1.59125,1.14334 -2.39999,1.33102c-0.99109,0.23001 -1.81009,0.45822 -2.45715,0.72531c-0.96317,0.39758 -1.76736,0.6712 -2.53302,0.99551c-0.879,0.37231 -1.5885,0.86398 -2.40982,1.27466l-0.80002,0.30933" id="svg_8" stroke-width="2" stroke="#000" fill="none"/>
  <path t="15859,16030,16042,16055,16055,16055,16067,16068,16083,16083,16083,16093,16093,16104,16105,16129,16141,16141,16153,16153,16167,16183,16183,16191,16191,16191,16191,16203,16203,16203,16203,16217,16217,16217,16217,16217,16233,16233,16233,16233,16233,16240,16240,16240,16252,16252,16252,16267,16267,16284,16289,16289,16289,16301,16302,16316,16316,16326,16338,16338,16350,16350,16350,16366,16366,16366,16375,16387,16399,16416,16424,16425,16436,16473,16498,16782,16807,16824,16836,16866,16879,16892,16903,16916,16916,16932,17174,17198,17216,17235,17249,17267,17285,17299,17299,17322,17457,17506,17567,17592,17628,17642,17654,17666,17666,17666,17691,17691,17715,17715,17739,17752,17752,17766,17790,17813,17833,17838,17850,17866,17866,17875,17887,17899,17899,17916,17916,17924,17924,17936,17950,17966,17986,17986,17999,18016,18016,18023,18024,18035,18035,18035,18035,18050,18050,18050,18051,18051,18067,18067,18067,18067,18067,18072,18072,18072,18072,18084,18085,18100,18100,18110,18120,18120,18133,18151,18151,18158,18158,18170,18183,18183,18183,18200,18200,18207,18231,18231" d="m439,438.89999c-1.70001,0 -2.672,0 -3.54285,0c-0.71848,0 -1.50897,0 -2.77182,0c-0.66449,0 -1.68533,0 -2.48532,0c-0.80002,0 -1.80002,0 -2.60001,0c-0.99869,0 -1.94284,0 -2.84735,0c-0.91931,0 -1.75266,0 -2.73114,0c-0.82019,0 -1.65775,-0.01871 -2.50818,0.00134c-0.76059,0.01794 -1.93515,0.21939 -2.76001,0.42401c-0.60013,0.14886 -1.23343,0.34406 -2.63998,0.48932c-0.75757,0.07825 -1.55997,0.0787 -2.39999,0.08401c-0.87997,0.00555 -1.79736,0.00131 -2.73868,0.00131c-0.94934,0 -1.422,0 -2.80801,0c-0.88,0 -1.72,0 -2.51999,0c-0.76001,0 -1.82501,0 -2.79999,0c-0.60001,0 -1.68002,0 -2.61069,0c-0.83466,0 -1.83148,0 -2.57883,0c-1.04251,0 -1.99051,0 -2.66251,0c-0.98932,0 -1.85184,0 -2.74283,0c-0.90451,0 -1.76782,0.00009 -2.75183,0c-0.82166,-0.00009 -1.7536,0.00586 -2.66666,-0.16666c-0.79367,-0.14996 -1.5979,-0.45346 -2.66669,-0.66666c-0.69968,-0.13956 -1.505,-0.16443 -2.53067,-0.16669c-0.93597,-0.00208 -1.83978,0.08212 -2.73599,-0.00015c-0.91144,-0.08368 -1.43796,-0.74368 -2.29999,-0.96384c-0.95966,-0.24509 -1.47717,-0.75269 -2.21066,-1.02533c-0.81461,-0.3028 -1.54819,-0.52878 -2.10535,-1.09467c-0.66068,-0.67102 -1.50787,-0.66113 -2.16266,-1.13733c-0.70221,-0.51068 -1.45407,-0.67493 -2.10049,-0.7995c-0.95206,-0.18344 -1.75336,-1.07364 -2.01016,-0.3685c-0.29724,0.81613 0.61658,1.38345 1.38931,1.81467c0.81891,0.457 1.70129,0.52686 2.60001,0.57465c0.80338,0.04272 1.66302,0.46918 2.38934,0.97467c0.65979,0.4592 0.61133,1.42532 0.61066,2.32535c-0.00067,0.89865 -0.36118,1.60052 -1.20132,1.70132c-0.97241,0.11667 -1.63779,0.42819 -2.39999,0.79999c-0.80069,0.39056 -1.5271,0.8811 -2.51468,1.11334c-0.75208,0.17685 -1.70935,0.08533 -2.71735,0.08533c-0.86215,0 -1.76666,0 -2.66666,0c-0.89999,0 -1.79999,0 -2.70001,0c-0.89999,0 -1.79999,0 -2.59998,0c-0.90002,0 -1.72086,0 -2.68533,0c-0.72534,0 -1.71451,0 -2.67868,0c-0.952,0 -1.72424,0.07883 -2.65067,-0.01065c-0.86215,-0.08325 -1.40057,-0.92844 -2.28549,-0.98935c-0.78333,-0.05392 -1.72519,0 -2.73318,0c-0.79199,0 -1.65332,0.00006 -2.41333,0c-1.17517,-0.00009 -1.72021,0.01251 -2.63599,-0.03598c-0.69012,-0.03656 -1.86176,-0.1767 -2.73166,-0.32117c-0.92896,-0.15427 -1.40747,-0.25119 -2.38834,-0.44418c-0.9978,-0.19632 -1.99515,-0.39645 -2.97601,-0.59866c-0.47989,-0.09894 -1.41095,-0.2836 -2.68799,-0.60001c-0.76248,-0.1889 -1.43631,-0.40237 -2.31,-0.64282c-1.0498,-0.28891 -1.79483,-0.34778 -2.67603,-0.71432c-0.71707,-0.29828 -1.51538,-1.06332 -2.34732,-1.47617c-0.6571,-0.32608 -1.48849,-0.73511 -2.32132,-1.26651c-0.65543,-0.41821 -1.50201,-0.80118 -2.37418,-0.89566c-0.84161,-0.09119 -1.853,-0.20761 -2.55518,-0.44052c-0.75073,-0.24899 -1.77866,-0.76266 -2.44034,-1.20682l-0.82983,-0.33633l-0.96317,-0.02216l-0.69064,-0.03467" id="svg_9" stroke-width="2" stroke="#000" fill="none"/>
  <path t="19265,19426,19426,19426,19441,19441,19441,19457,19457,19457,19465,19465,19475,19475,19486,19500,19516,19516,19517,19523,19536,19536,19550,19566,19572,19584,19584,19600,19610,19610,19622,19622,19636,19636,19636,19651,19651,19651,19659,19659,19671,19671,19683,19683,19712,19744,19757,19768,19768,19782,19799" d="m304,431.89999c-2.95715,0.00452 -3.52469,-0.0192 -4.40134,0.08533c-1.20648,0.14386 -1.79462,0.35718 -2.69867,0.56201c-0.8963,0.20309 -1.79474,0.26694 -2.62799,0.37799c-1.13586,0.15137 -1.74545,0.47937 -2.47202,1.17468c-0.61304,0.58667 -1.32693,1.12488 -1.71597,2.00134c-0.4046,0.91159 -0.47934,1.64709 -0.88535,2.31467c-0.53622,0.88165 -1.15082,1.68176 -1.19733,2.36932c-0.06274,0.92728 -0.39636,1.69995 -0.91733,2.39999c-0.51935,0.69788 -0.87637,1.45462 -1.72,1.73999c-0.83984,0.28409 -1.51538,0.62225 -2.48135,0.89069c-0.8367,0.23251 -1.66302,0.34021 -2.4035,0.62567c-0.80991,0.31223 -1.79086,0.94495 -2.45831,1.4375c-0.61679,0.45517 -1.61597,0.95486 -2.42084,1.01181c-0.99625,0.07047 -1.81332,-0.09793 -2.71466,0.293c-0.74222,0.32193 -1.50339,0.70712 -2.28534,1.14136c-0.82047,0.45563 -1.69983,0.79614 -2.24283,1.27914l-0.38251,0.89551l-0.39999,0.79999" id="svg_10" stroke-width="2" stroke="#000" fill="none"/>
  <path t="21102,21234,21234,21245,21245,21259,21259,21259,21259,21259,21271,21271,21271,21271,21283,21283,21283,21299,21299,21299,21299,21306,21306,21318,21333,21333,21349,21349,21355,21355,21367,21367,21367,21382,21382,21382,21382,21392,21392,21404,21404,21416" d="m211,186.89999c-1.836,0.964 -2.60165,0.97864 -3.61349,1.0045c-0.69499,0.01776 -1.88789,0.15366 -2.63983,0.28084c-0.83499,0.14124 -1.70757,0.32127 -2.14584,0.41917c-1.27019,0.28374 -2.02837,0.50085 -3.05916,0.77466c-0.63159,0.16777 -1.84067,0.40941 -2.74167,0.4955c-0.59941,0.05727 -1.80293,0.17796 -2.39867,0.30934c-0.88535,0.19524 -1.70676,0.48604 -2.71468,0.63066c-0.83476,0.11977 -1.80266,0.08533 -2.85333,0.08533c-0.65866,0 -1.66666,0 -2.45866,0c-1.03633,0 -1.83635,-0.0061 -2.79616,0.00017c-0.81454,0.00533 -1.68869,0.01775 -2.57851,0.1665c-0.903,0.15096 -1.48734,0.33093 -2.31467,0.63467c-1.00943,0.37061 -1.83867,0.79866 -2.66383,1.29849l-0.717,0.543l-0.78368,0.35716" id="svg_11" stroke-width="2" stroke="#000" fill="none"/>
  <path t="22820,22955,22971,22983,22983,22983,22991,22992,23015,23039,23040,23064,23064,23084,23090,23101,23127,23138,23150,23175,23175,23188,23200,23215,23215,23225,23225,23225,23236,23249,23249,23265,23265,23286,23286,23310,23310,23335,23349,23372,23372,23389,23389,23389,23400,23400,23409,23409,23409,23421,23421,23434,23434,23434,23448,23449,23459,23459,23470" d="m329,315.89999c0.17065,1.71466 1.05762,1.92554 2,2.16669c0.80798,0.20676 1.51193,0.63873 2.24734,1.12881c0.63431,0.4227 1.6203,0.52423 2.586,0.87119c0.69318,0.24905 1.27463,1.16415 1.96664,1.54797c0.82449,0.45728 1.64597,0.43066 2.28403,1.00134c0.65176,0.58295 1.36075,1.02307 1.86331,1.64117c0.57288,0.70459 0.77524,1.53464 1.55267,2.12201c0.74088,0.55975 1.66956,0.46817 2.52084,0.54166c0.9863,0.08514 1.75482,0.44125 2.49384,0.69516c0.84647,0.29083 1.80664,0.284 2.65997,0.284c0.94135,0 1.70935,0 2.66135,0c0.76532,0 1.75949,0 2.67868,0c0.96448,0 1.78983,0 2.80682,0c0.69934,0 1.6785,0 2.47849,0c0.80002,0 1.8045,0 2.65717,0c0.96417,0 1.76819,0 2.59018,0c1.03116,0 1.93185,0.00681 2.95267,0c0.80005,-0.00534 1.62369,-0.0101 2.59549,-0.35715c0.58621,-0.20935 1.51917,-0.84152 2.10001,-1.28568l0.90451,-0.3465" id="svg_12" stroke-width="2" stroke="#000" fill="none"/>
  <path t="24421,24578,24592,24608,24608,24626,24652,24687" d="m352,327.89999c0.05716,1.70001 0.49036,2.53101 1.20001,3.19867c0.57635,0.54224 1.44281,0.854 1.96664,1.63467l0.71219,0.388" id="svg_13" stroke-width="2" stroke="#000" fill="none"/>
  <polyline timestamps="25468,25684,25733" startTime="1442498766452" id="svg_14" points="362,330.9000015258789 363.69999999999993,330.9000015258789 364.69999999999993,330.9000015258789 " stroke-linecap="round" stroke-width="2" stroke="#000" fill="none"/>
  <path t="27026,27151,27161,27161,27175,27175,27175,27192,27193,27193,27207,27208,27208,27211,27211,27221,27222,27234,27234,27250,27250,27259,27259,27271,27282,27298,27299,27308,27308,27319,27319,27332,27332,27369,27370" d="m445,358.89999c-1.75717,0 -2.66165,0 -3.46167,0c-0.95984,0 -1.77432,0 -2.64282,0c-0.89551,0 -1.79315,-0.0325 -2.65952,0.03601c-1.07394,0.08493 -1.76871,0.34781 -2.6315,0.61133c-0.99411,0.30362 -1.80463,0.33417 -2.80432,0.35284c-0.77948,0.01456 -1.69104,0.0806 -2.3895,0.6105c-0.79135,0.60037 -1.29031,1.19815 -2.05884,1.68933c-0.63736,0.40735 -1.21515,1.26581 -1.70901,2c-0.53043,0.78857 -1.18799,1.18887 -1.74283,2.02133c-0.43689,0.65549 -0.90421,1.50885 -1.39999,2.17865c-0.60516,0.81757 -1,1.5 -1.5,2.33334l-0.47916,0.64584" id="svg_15" stroke-width="2" stroke="#000" fill="none"/>
  <path t="30861,30997,31011,31022,31022,31022,31034,31034,31048,31048,31059,31059,31084,31109,31156,31181,31257,31280,31294,31368,31416" d="m407,206.89999c-0.61066,1.56401 -1.46567,1.88922 -2.3215,2.44284c-0.55685,0.36021 -1.04834,0.95644 -2.07718,1.67183c-0.56274,0.39131 -1.46338,0.8503 -2.08047,1.38533c-0.75848,0.65762 -1.29016,1.32997 -2.12085,1.48933c-0.94785,0.18184 -1.5856,0.4994 -2.23334,1.17734c-0.60406,0.63222 -1.1095,1.19051 -1.17114,2.12883l-0.42084,0.67917l-0.55383,0.54617" id="svg_16" stroke-width="2" stroke="#000" fill="none"/>
 </g>
 <g display="none">
  <title>muse_image</title>
  <image xlink:href="http://farm2.static.flickr.com/1080/989878199_fcad013e6a.jpg" id="muse" height="480" width="360" y="0" x="140"/>
 </g>
 <g display="none">
  <title>bbox</title>
  <rect stroke="#f00" fill="none" stroke-width="3" height="444.48" width="352.32" y="34.56" x="140" id="bbox"/>
 </g>
</svg>
