<svg width="640" height="480" xmlns="http://www.w3.org/2000/svg" xmlns:svg="http://www.w3.org/2000/svg" xmlns:xlink="http://www.w3.org/1999/xlink">
 <!-- Sketchy ANNOTATION
  ImageNet ID: n02395406_3475
  URL: http://farm3.static.flickr.com/2150/1808308470_0820fc24c2.jpg
  Image Width: 350
  Image Height: 500
  BBox X: 30
  BBox Y: 0
  BBox Width: 311
  BBox Height: 459
  Exposure: 2000ms
  Synset Label: pig
  Synset ID: n02395406
  Worker Tag: black wild pig boar
  Sanity Check: 
   Context
   Saved
   Shading
  Comment: 
   {}
  Worker ID: AXD2DZ7U6CK35
  Assignment ID: 3XCC1ODXDLBH08JM37GTO04RP99RQU
  HIT ID: 30IRMPJWDZJT2LNX00RU3UXXQYCRKD
  Work Time: 160s
  Worker Score: 0.9286
 END ANNOTATION -->
 <g display="inline">
  <title>Layer 1</title>
  <path t="0,22,22,22,22,22,22,22,29,29,55,55,89,89,90,90,90,122,122,122,122,122,122,122,122,139,139,139,139,139,139,139,155,155,155,172,172,172,189,189,189,189,205,205,205,222,222,222,239,239,239,255,255,255,255,272,272,272,272,289,289,305,305,305,305,322,322,322,339,339,339,355,355,373,373,425" d="m164,107c10,3 11.48669,3.58995 12.14349,3.8865c0.61107,0.27589 1.16891,0.55119 2.158,1.042c0.43445,0.21558 1.83656,0.83433 2.61517,1.02984c0.91173,0.22894 1.60759,0.61087 2.58333,1.20833c0.55061,0.33715 1.23984,0.69097 2.03999,1.116c0.44492,0.23634 1.96046,1.04983 2.52417,1.36c0.58966,0.32446 1.19801,0.66324 1.82251,1.008c0.63383,0.34991 1.26762,0.70943 2.54666,1.38133c1.22794,0.64505 1.82173,0.92803 2.392,1.19733c1.06799,0.50435 1.57417,0.72123 2.49417,1.16167c0.42355,0.20277 1.83516,0.99313 2.3725,1.39833c0.70908,0.53471 1.49518,1.21078 2.12933,1.58533c0.67969,0.40145 1.82133,0.94667 2.48399,1.278c0.69467,0.34734 1.39041,0.69254 2.36134,1.18067c0.8199,0.4122 1.53951,0.7524 2.33333,1.33334c0.62311,0.45601 1.17087,1.04506 2,1.66666c0.78473,0.5883 1.47729,0.95027 2.16667,1.5c0.81081,0.64656 1.33659,1.18416 1.88066,1.71851c0.79077,0.77666 1.25458,1.2749 1.93184,1.90649c0.60828,0.56728 1.44945,1.11914 2.22083,1.703c0.83305,0.63055 1.21065,1.09962 1.8,1.8595c0.40744,0.52531 1.19623,1.56076 1.5955,2.022c0.56346,0.65089 1.27061,1.43636 1.76849,2.25717c0.3555,0.58609 0.836,1.59866 1.136,2.17917l0.60001,0.99916l0.5,0.575l0.77866,0.40001" id="svg_1" stroke-width="2" stroke="#000" fill="none"/>
  <path t="1468,1483,1483,1483,1507,1507,1523,1541,1556,1573,1589,1589,1605,1605,1623,1623,1639,1639,1655,1655,1655,1672,1672,1689,1689,1689,1705,1705,1705,1722,1722,1739,1739,1739,1739,1755,1755,1755,1773,1773,1773,1789,1790,1790,1805,1805,1805,1805,1823,1823,1823,1840,1840,1840,1855,1857,1857,1873,1873,1890,1890,1890,1890,1905,1905,1906,1922,1922,1922,1922,1940,1940,1955,1955,1955,1973,1973,1973,1990,1990,1990,1990,2005,2005,2005,2023,2023,2023,2040,2040,2041,2041,2055,2055,2055,2076,2077,2077,2090,2090,2105,2105,2105,2105,2122,2123,2138,2138,2155,2155,2155,2172,2173,2188,2189,2189,2205,2205,2222,2222,2222,2238,2238,2255,2255,2255,2272,2288,2345" d="m163,106c-1.48267,4.512 -1.81935,5.14005 -2.13867,5.71733c-0.62759,1.1346 -0.85066,1.86115 -0.86133,2.78267c-0.01042,0.89994 0,1.8 0,2.7c0,0.90034 -0.01204,1.61443 0.00133,2.568c0.01025,0.73219 0.14374,1.90739 0.42401,2.57067c0.42128,0.99699 0.50459,1.69671 0.74133,2.66133c0.20039,0.81655 0.61148,1.5871 0.748,2.40134c0.13857,0.82645 0.07222,2.02029 0.09599,2.82399c0.01625,0.54968 0.19501,1.85803 0.41467,2.53868c0.27145,0.84109 0.48749,1.63907 0.59999,2.508c0.13747,1.06183 0.24243,1.70016 0.4955,2.728c0.17178,0.69771 0.46144,1.67336 0.77917,2.49017c0.28427,0.7308 0.71732,1.6702 0.9955,2.46249c0.28647,0.81592 0.55505,1.87814 0.65182,2.59917c0.09496,0.70743 0.20099,1.78528 0.40984,2.75349c0.15048,0.69765 0.31253,1.40077 0.74284,2.65184c0.18517,0.53833 0.52415,1.24777 0.99983,2.46417c0.20621,0.52733 0.51656,1.34137 0.73349,2.41199c0.18695,0.92261 0.14742,1.58156 0.45201,2.56801c0.2643,0.85594 0.72328,1.76212 1.01466,2.55583c0.20612,0.56145 0.5002,1.44409 0.8,2.34283c0.3002,0.89992 0.59932,1.80023 0.89999,2.7c0.29933,0.89572 0.48511,1.48466 0.8,2.31467c0.38205,1.00699 0.70039,1.66431 1.2,2.68533c0.29573,0.60439 0.6962,1.44565 0.87883,2.42149c0.15111,0.80742 0.16382,1.70251 0.4545,2.57851c0.30725,0.92593 0.69437,1.49626 1.01851,2.10001c0.6403,1.19261 0.89662,1.79326 1.2375,2.664c0.41757,1.06664 0.71568,1.78113 1.01067,2.46132c0.40694,0.93835 0.69717,1.73471 0.92082,2.2955c0.35301,0.88518 0.78691,1.78685 1.3045,2.6685c0.34047,0.57997 1.01263,1.64133 1.4175,2.349c0.35054,0.61272 0.91081,1.40617 1.35718,2.159c0.45738,0.77141 0.69855,1.66113 0.89999,2.30267c0.29787,0.94867 0.6795,1.95822 1.10001,2.604c0.4772,0.73285 0.90414,1.41472 1.39999,2.396c0.30254,0.59872 0.7,1.39999 1.2,2.39999c0.3,0.60001 0.77879,1.61134 1.10451,2.19551c0.42551,0.76312 1.20226,1.49429 1.6955,1.92532c0.87639,0.76585 1.2484,1.48193 1.58934,2.2285c0.41751,0.91425 0.8448,1.56564 1.41066,2.41734c0.42644,0.64186 0.8,1.34933 1.39999,2.18666l0.69984,0.52533l0.81483,0.40401" id="svg_2" stroke-width="2" stroke="#000" fill="none"/>
  <path t="3564,3606,3621,3641,3657,3674,3690,3690,3706,3706,3722,3722,3738,3738,3755,3772,3772,3788,3805,3805,3822,3822,3838,3855,3855,3872,3888,3888,3905,3906,3922,3922,3938,3938,3955,3972,3988,3988,4005,4005,4022,4022,4022,4038,4039,4055,4072,4072,4088,4088,4105,4105,4122,4138,4138,4155,4155,4172,4172,4188,4188,4205,4205,4222,4222,4238,4255,4256,4272,4288,4288,4305,4305,4322,4338,4338,4357,4372,4388,4409,4409,4437,4477,4505,4521,4529,4538,4557,4573,4589,4605,4622,4638,4655,4673,4688,4705,4705,4722,4722,4738,4755,4772,4788,4788,4809,4809,4822,4841,4842,4858,4873,4888,4889,4909,4909,4925,4925,4941,4955,4955,4975,4988,4988,4988,5008,5025,5026,5041,5055,5075,5088,5089,5108,5108,5108,5125,5125,5141,5141,5141,5155,5155,5175,5176,5191,5191,5208,5208,5226,5241,5241,5258,5258,5272,5288,5288,5305,5305,5325,5326,5338,5338,5358,5358,5374,5374,5391,5405,5425,5441,5441,5458,5472,5491,5505,5526,5526,5538,5538,5558,5558,5585" d="m227,143c0,1.8 0,2.7 0,3.60001c0,0.89999 0,1.7045 0,2.7215c0,0.69933 0,1.6785 0,2.46783c0,1.04399 0,1.836 0,2.69466c0,0.86334 0.11435,1.93182 -0.284,2.716c-0.33485,0.65918 -0.70859,1.57991 -1.07317,2.45267c-0.29938,0.71664 -0.82242,1.48022 -1.34283,2.04283c-0.67439,0.72905 -1.40001,1.40451 -1.90001,1.90451c-0.7,0.7 -1.39975,1.40024 -1.89999,1.89999c-0.701,0.70033 -1.23732,1.23073 -2.15266,1.8c-0.68069,0.42334 -1.48222,0.87743 -2.04283,1.39999c-0.72096,0.67203 -1.10158,1.54752 -1.47118,2.3c-0.34195,0.69621 -1.01596,1.49689 -1.46933,2.21066c-0.50996,0.80287 -1.03607,1.36505 -1.50267,1.95334c-0.7307,0.92126 -0.91518,1.65295 -1.38216,2.35683c-0.54619,0.82326 -1.04106,1.44936 -1.35783,2.45784c-0.23773,0.75687 -0.50545,1.66148 -0.76868,2.36867c-0.37259,1.00096 -0.73343,1.80173 -1.06866,2.53799c-0.33389,0.73332 -0.27046,1.53694 -0.56799,2.51334c-0.23863,0.78313 -0.67207,1.71393 -0.71468,2.48534c-0.05249,0.95055 -0.00133,1.71733 -0.00133,2.7115c0,0.91916 0,1.9045 0,2.72583c0,0.85333 0,1.79333 0,2.77884c0,0.78516 0,1.72516 0,2.41583c0,0.98399 0,1.96799 0,2.83133c0,0.89549 0,1.85266 0,2.75267c0,0.89999 -0.19595,1.73444 0.05716,2.59999c0.25664,0.87764 0.90013,1.49698 0.94284,2.40001c0.04253,0.89899 0.48317,1.50717 0.91467,2.18533c0.49315,0.77504 -0.15892,1.94682 0.36932,2.63066c0.48471,0.6275 0.63722,1.4388 1.14134,2.05867c0.50021,0.61507 0.91708,1.33916 1.57466,2.02533c0.58711,0.61263 1.12411,1.30304 1.8,1.71466c0.84247,0.51308 1.20891,1.14162 1.81067,1.88535c0.52959,0.65453 1.24864,1.24281 2.04199,1.6955c0.67458,0.3849 1.65785,0.494 2.44734,0.92599c0.79739,0.43631 1.23952,1.27382 2.09999,1.6945c0.85387,0.41745 1.48035,0.80913 2.10451,1.384c0.56372,0.51921 1.53596,1.07492 2.2115,1.5c0.74452,0.46849 1.61955,0.98286 2.284,1.284c0.77771,0.35246 1.51251,1.24634 2.02533,1.73067c0.51334,0.48483 1.47868,0.94756 2.27467,1.40683c0.66716,0.38493 1.27266,1.21181 2.09866,1.6945c0.69763,0.40767 1.25323,1.172 1.82216,1.60483c0.82603,0.62845 1.36005,1.30566 1.67467,1.88367c0.53357,0.98022 0.8045,1.5955 1.3045,2.5955c0.39999,0.8 0.6936,1.40321 1.2,2.39867c0.29628,0.58241 0.87349,1.60254 1.40001,2.19067c0.57103,0.63786 1.16809,1.28282 1.37466,2.23599c0.14812,0.68341 0.63287,1.63318 0.90399,2.496c0.20667,0.65771 0.39099,1.63057 0.76868,2.37416c0.40645,0.80022 0.60175,1.80679 0.96333,2.47916c0.44574,0.82889 1.05508,1.41571 1.30533,2.30936c0.23569,0.84167 0.51999,1.72253 0.8,2.39999c0.37685,0.91171 0.31294,1.73386 0.63666,2.71149c0.25252,0.76263 0.62933,1.76794 0.64734,2.60452c0.01936,0.89978 0,1.79999 0,2.59998c0,0.90002 0,1.80002 0,2.70001c0,0.91068 0.00008,1.8215 0,2.71066c-0.00009,0.98917 -0.02083,1.76849 -0.16667,2.62268l-0.40799,0.75598l-0.38934,0.81067" id="svg_3" stroke-width="2" stroke="#000" fill="none"/>
  <path t="6671,6686,6710,6733,6749,6761,6761,6774,6793,6807,6824,6840,6840,6857,6874,6891,6907,6929,6945,6945,6965,6981,6998,7006,7022,7038,7038,7055,7055,7072,7088,7088,7088,7105,7105,7122,7122,7139,7139,7156,7156,7172,7172,7188,7205,7257,7257" d="m237,243c0,2.58934 0.0529,3.53474 -0.35266,4.3c-0.4483,0.84589 -0.62198,1.70039 -0.64734,2.5c-0.02859,0.90135 -0.61813,1.51033 -0.91467,2.39999c-0.28587,0.85765 -0.08533,1.8 -0.08533,2.60001c0,0.89999 0.00194,1.8196 -0.42534,2.59999c-0.45038,0.82257 -0.57466,1.70001 -0.57466,2.60001c0,0.79999 -0.18375,1.7265 0.036,2.60001c0.21706,0.86282 0.77786,1.66092 1.248,2.31732c0.52873,0.73822 0.62032,1.49997 1.07317,2.3255c0.34221,0.62381 1.19342,1.24249 1.74284,2.07867c0.44241,0.67331 0.68739,1.28625 1.2,2.27399c0.39046,0.75238 0.92157,1.50415 1.39999,2.15717c0.52423,0.71555 0.89157,1.46231 1.40001,2.44702c0.39349,0.76205 0.90291,1.4617 1.59999,1.84848c0.80341,0.44577 1.60001,0.89917 2.5,1.23584l0.60001,0.43201" id="svg_4" stroke-width="2" stroke="#000" fill="none"/>
  <path t="8749,8764,8790,8806,8806,8822,8822,8838,8838,8855,8855,8872,8872,8888,8888,8905,8905,8922,8922,8922,8938,8938,8955,8955,8955,8972,8988,8988,9005,9005,9022,9022,9038,9038,9056,9072,9072,9088,9105,9122,9122,9138,9155,9172,9172,9188,9205,9222,9244,9244,9268,9269,9288,9320,9336,9340,9380,9485,9493,9521,9573,9605,9629,9629,9640,9656,9673,9700,9716,9717,9724,9741,9756,9771,9772,9787,9805,9821,9822,9837,9838,9855,9872,9872,9887,9888,9905,9905,9922,9922,9937,9938,9955,9971,9972,9987,9987,10004,10021,10022,10022,10038,10038,10055,10055,10071,10072,10072,10087,10088,10104,10105,10122,10122,10137,10154,10155,10171,10171,10187,10204,10205,10222,10222,10238,10256,10280,10338" d="m316,282c0.94284,-4.12851 1,-5.10001 1,-6c0,-0.88535 0,-1.65717 0,-2.60132c0,-0.99869 0,-1.79868 0,-2.79736c0,-0.76532 -0.09149,-1.73325 0.08533,-2.48532c0.23221,-0.98761 0.61829,-1.52094 1.11469,-2.51599c0.39929,-0.80038 0.79999,-1.60001 1.19998,-2.39999c0.30002,-0.60001 0.80002,-1.60001 1.10001,-2.20001c0.5,-1 0.86502,-1.80975 1.29999,-2.51468c0.46384,-0.75171 1.20026,-1.48508 1.70001,-1.98532c0.70035,-0.701 1.23071,-1.23734 1.79999,-2.15266c0.42334,-0.68071 0.87961,-1.48022 1.40002,-2.04283c0.67438,-0.72905 1.32211,-1.5054 2,-1.94734c0.73392,-0.47845 1.60373,-0.71027 2.29999,-1.35716c0.60327,-0.5605 1.44131,-0.88387 2.20001,-1.284c0.85837,-0.45271 1.49905,-0.77039 2.29999,-1.216c0.79904,-0.44455 1.70139,-0.48795 2.66666,-0.5c0.83353,-0.01042 1.65729,-0.1846 2.42267,-0.57466c0.80127,-0.40834 1.73236,-0.23044 2.60934,-0.42667c0.80704,-0.18057 1.23688,-0.97824 2.20132,-0.99867c0.89532,-0.01897 1.47574,-0.53915 2.12085,-1c0.69742,-0.49823 1.40759,-1.08748 2.07916,-1.564c0.72568,-0.51489 1.48254,-0.8519 2.04733,-1.48868c0.62216,-0.70145 1.3244,-1.15903 1.95267,-1.52199c0.84564,-0.48856 1.32111,-1.09969 1.836,-1.82533c0.47653,-0.67159 1.14423,-1.19232 1.564,-2.10001c0.36697,-0.79353 0.81775,-1.50468 1.05267,-2.25717c0.28143,-0.90149 0.73102,-1.55769 0.91132,-2.61749c0.15887,-0.93394 0.03601,-1.62534 0.03601,-2.74133c0,-0.76801 -0.05188,-1.72871 0.08533,-2.48534c0.18448,-1.01724 0.57358,-1.57686 0.79318,-2.5985c0.16513,-0.76826 0.12149,-1.77867 0.12149,-2.80017c0,-0.75717 0,-1.65266 0,-2.51601c0,-0.86932 0,-1.81732 0,-2.73466c0,-0.74399 0.00473,-1.78001 0,-2.63199c-0.00534,-0.96405 -0.01791,-1.58656 -0.22134,-2.53851c-0.17123,-0.80119 -0.45615,-1.56186 -0.72598,-2.769c-0.15399,-0.68884 -0.53171,-1.62753 -0.76868,-2.41116c-0.29517,-0.97607 -0.20514,-1.7453 -0.28848,-2.646c-0.086,-0.92957 -0.55093,-1.73257 -0.82886,-2.586c-0.27545,-0.8459 -0.67343,-1.52203 -1.08398,-2.36801c-0.31827,-0.65579 -0.74088,-1.50299 -1.43451,-2.08882c-0.71344,-0.60254 -1.56415,-0.99384 -2.07349,-1.68451l-0.564,-0.564" id="svg_5" stroke-width="2" stroke="#000" fill="none"/>
  <path t="11766,11781,11781,11806,11806,11824,11825,11825,11837,11854,11870,11870,11887,11887,11904,11920,11920,11937,11937,11954,11954,11970,11987,12012,12020,12056,12096,12096,12132,12148,12164,12171,12188,12205,12205,12221,12221,12238,12255,12255,12271,12271,12288,12288,12305,12371" d="m316,278c4.228,-3.02933 4.96561,-3.41437 5.83334,-4c0.69073,-0.46616 1.32919,-1.00687 1.992,-1.39999c0.68646,-0.40714 1.4827,-1.09097 2.37466,-1.51599c0.85812,-0.40891 1.40231,-0.74646 2.284,-1.28268c0.66754,-0.40601 1.69006,-0.56238 2.51599,-0.96799c0.66998,-0.32901 1.27313,-1.17227 1.88535,-1.63333c0.72858,-0.54868 1.48584,-1.0527 2.09381,-1.67917c0.61325,-0.6319 0.65649,-1.43301 1.078,-2.16367c0.46793,-0.8111 0.9682,-1.35757 0.94284,-2.15717c-0.02859,-0.9014 -0.43384,-1.87482 -1.29999,-2.14285c-0.86151,-0.26663 -1.80002,-0.05716 -2.70001,-0.05716c-0.75717,0 -1.65268,0 -2.51599,0c-0.98401,0 -1.80551,0 -2.69467,0c-0.98917,0 -1.76849,0 -2.76782,0l-0.82019,0l-0.90134,0l-0.89999,0" id="svg_6" stroke-width="2" stroke="#000" fill="none"/>
  <path t="14048,14120,14135,14156,14156,14172,14189,14189,14189,14205,14205,14220,14220,14237,14237,14238,14238,14254,14254,14254,14270,14271,14271,14271,14288,14288,14288,14288,14305,14305,14305,14320,14321,14321,14337,14338,14338,14355,14355,14370,14371,14371,14388,14388,14388,14404,14405,14405,14405,14420,14420,14420,14437,14438,14438,14438,14455,14455,14470,14470,14488,14488,14505,14505,14505,14520,14520,14538,14538,14538,14558,14558,14570,14570,14570,14590,14590,14607,14764,14779,14799,14820,14820,14820,14839,14839,14839,14839,14839,14854,14854,14854,14870,14870,14870,14870,14887,14887,14887,14887,14904,14904,14920,14920,14920,14920,14937,14937,14937,14937,14937,14954,14954,14954,14954,14970,14970,14970,14987,14987,14987,15004,15004,15004,15004,15020,15020,15020,15020,15021,15037,15037,15037,15037,15054,15054,15054,15054,15070,15070,15070,15070,15087,15087,15087,15104,15104,15104,15104,15123,15124,15124,15124,15124,15140,15141,15141,15157,15157,15157,15173,15173,15173,15190,15190,15190,15207,15207,15221,15221,15221,15241,15241,15241,15257,15257,15273,15290" d="m367,192c-2.19467,-0.716 -1.34967,-0.9823 -0.51599,-1.284c0.88077,-0.31873 1.7821,-0.59581 2.68265,-0.88268c0.68747,-0.21899 1.43134,-0.64142 2.23203,-1.032c0.76221,-0.3718 1.73096,-0.68016 2.46832,-0.91116c0.91321,-0.28609 1.82123,-0.74828 2.49298,-1.0755c0.67493,-0.32877 1.58984,-0.80899 2.38934,-1.17867c0.74927,-0.34645 1.89331,-0.73682 2.56052,-0.94051c0.71078,-0.217 1.45804,-0.41258 2.5235,-0.86217c0.69138,-0.29172 1.62601,-0.83165 2.20499,-1.18066c1.04199,-0.62814 1.72263,-1.02251 2.35718,-1.34816c1.00113,-0.51378 1.61902,-0.81889 2.28983,-1.10451c0.98981,-0.42143 1.81906,-0.68834 2.63068,-1c1.00427,-0.38565 1.66672,-0.69276 2.68399,-1.2c0.60214,-0.30025 1.422,-0.72717 2.20016,-1.32133c0.62921,-0.48044 1.22055,-1.08553 2.22134,-1.65717c0.51868,-0.29626 1.38736,-0.61601 1.97983,-0.82016c1.19513,-0.4118 1.79868,-0.60133 2.69867,-0.90134c0.89999,-0.3 1.79788,-0.59315 2.664,-0.90001c0.55222,-0.19565 1.5704,-0.55841 2.38931,-1c0.84937,-0.45802 1.43182,-1.06232 2.332,-1.59866c0.69769,-0.41571 1.51773,-0.61937 2.31467,-0.78667c0.80341,-0.16864 1.78632,-0.73912 2.40002,-1.164c0.78329,-0.54228 1.60715,-0.75401 2.39999,-0.93333c1.01566,-0.22971 1.62936,-0.54422 2.56665,-0.91733c0.77628,-0.30902 1.55496,-0.63261 2.69034,-0.87849c0.71359,-0.15454 1.73584,-0.51738 2.62216,-0.10068c0.70575,0.33182 0.52084,1.40051 0.52084,2.3125c0,0.94934 0,1.524 0,2.83334c0,0.71733 0,1.45866 0,2.20799c0,0.74133 0,2.14134 0,2.8c0,0.978 0,1.992 0,2.70934c0,0.74133 0,1.86333 0,2.94933c0,0.68001 0,1.625 0,2.205c0,1.27766 0.00327,1.96167 0,3.12834c-0.00226,0.79951 0.00531,1.39784 -0.08533,2.40533c-0.10562,1.17378 -0.19604,1.59642 -0.34,2.47865c-0.1467,0.89912 -0.31403,1.77847 -0.45334,3.00635c-0.08252,0.72722 -0.08536,1.40524 -0.20535,2.34033c-0.15506,1.20818 -0.32654,1.80043 -0.62048,2.64549c-0.36429,1.04723 -0.70407,1.72812 -0.99551,2.40984c-0.41217,0.96405 -0.7085,1.802 -0.89999,2.42999c-0.20935,0.68655 -0.49814,1.86047 -0.7045,2.72267c-0.21426,0.89517 -0.44028,1.79317 -0.58084,2.22667c-0.40109,1.23692 -0.75244,1.96449 -1.1355,2.62633c-0.55298,0.95546 -1.18323,1.83891 -1.57465,2.44167c-0.38788,0.59729 -0.94409,1.48759 -1.38318,2.40001c-0.28506,0.59238 -0.62979,1.50755 -0.90533,2.09999c-0.5658,1.21651 -0.94894,1.79565 -1.29065,2.40001c-0.67377,1.1916 -0.93652,1.8028 -1.21069,2.39999c-0.41519,0.90434 -0.93298,1.81117 -1.38266,2.40001c-0.46735,0.61198 -1.00894,1.17879 -1.46399,1.79999c-0.85074,1.16139 -1.10718,1.78468 -1.45901,2.64284c-0.42245,1.03041 -0.7175,1.72815 -1.009,2.40984c-0.41208,0.96359 -0.69174,1.77571 -1,2.59467c-0.38962,1.03514 -0.69421,1.71945 -1,2.34816c-0.49078,1.00903 -0.797,1.606 -1.29999,2.60451c-0.3027,0.60092 -0.72058,1.42711 -1.32132,2.19983c-0.47604,0.61232 -1.026,1.14301 -1.79333,1.91484l-0.58084,0.58083l-0.69385,0.7045l-0.52664,0.79868" id="svg_7" stroke-width="2" stroke="#000" fill="none"/>
  <path t="17204,17219,17219,17219,17219,17219,17219,17219,17219,17239,17239,17239,17239,17239,17256,17256,17270,17270,17270,17270,17270,17287,17287,17287,17304,17304,17304,17320,17320,17321,17337,17337,17338,17354,17354,17354,17354,17370,17370,17387,17387,17388,17404,17404,17420,17420,17420,17420,17437,17437,17437,17454,17454,17470,17470,17487,17487,17504,17504,17520,17520,17537,17537,17558,17583" d="m351,172c15.16666,-3.5 16.26239,-3.73897 17.25867,-3.94267c0.90283,-0.1846 1.72321,-0.34303 2.47049,-0.474c0.68082,-0.11932 1.30389,-0.2392 2.9375,-0.41666c0.48904,-0.05313 1.40512,-0.12 2.22919,-0.14584c1.04517,-0.03279 2.05585,0.01234 2.81616,-0.05682c0.95959,-0.08731 1.62637,-0.24959 2.41068,-0.38934c0.84769,-0.15105 1.70874,-0.31732 2.93414,-0.45316c0.72275,-0.08011 1.68582,-0.11272 2.77652,-0.12151c0.7095,-0.00572 1.57538,-0.00488 2.56934,-0.284c0.64938,-0.18236 1.36005,-0.48799 2.56665,-0.63068c0.68896,-0.08147 1.41599,-0.07999 2.86401,-0.08533c0.67999,-0.0025 1.31998,0 2.20499,0c1.04016,0 1.94083,0 2.96167,0c0.79999,0 1.60001,0 2.60901,0c0.66299,0 1.72433,0 2.69632,0c0.69467,0 1.38934,0 2.65167,0c0.771,0 1.64032,0 2.64301,0c0.79999,0 1.79999,0 2.60001,0c0.99982,0 1.77914,0 2.77866,0c0.77399,0 1.6785,0 2.42584,0c0.99417,0 1.93832,0 2.83832,0l0.95718,0" id="svg_8" stroke-width="2" stroke="#000" fill="none"/>
  <path t="19049,19085,19085,19093,19105,19122,19122,19137,19137,19153,19153,19153,19170,19170,19170,19188,19188,19188,19203,19203,19203,19220,19220,19220,19220,19243,19243,19243,19243,19259,19259,19259,19276,19276,19276,19276,19291,19291,19291,19307,19307,19307,19307,19324,19324,19324,19324,19324,19341,19341,19341,19341,19357,19357,19357,19357,19369,19370,19370,19370,19391,19391,19391,19391,19391,19391,19391,19407,19407,19407,19407,19407,19424,19424,19424,19424,19437,19438,19438,19438,19438,19438,19457,19457,19457,19457,19474,19474,19474,19474,19491,19491,19491,19507,19507,19507,19507,19520,19520,19520,19520,19541,19541,19541,19541,19541,19557,19557,19557,19557,19574,19574,19574,19574,19591,19591,19591,19603,19603,19603,19624,19624,19624,19637,19637,19637,19637,19653,19653,19653,19674,19674,19674,19691,19691,19691,19703,19703,19724,19724,19737,19737,19757,19757,19770,19791,19791,19803,19803,19828,19828,19919" d="m205,123c2.35333,-0.86134 2.658,-1.53559 3,-2.47916c0.30443,-0.83992 0.84373,-1.63098 1.084,-2.40617c0.24284,-0.78349 0.64417,-1.54383 1.23734,-2.31467c0.47787,-0.62101 1.07515,-1.16357 1.65717,-2.00017c0.54901,-0.78915 0.83508,-1.4793 1.2215,-2.48383c0.31213,-0.81144 0.47018,-1.37541 0.90018,-2.39467c0.39368,-0.93317 0.77647,-1.61053 1.22133,-2.343c0.50471,-0.83102 0.89673,-1.42044 1.27983,-2.06499c0.61064,-1.02737 0.99803,-1.75949 1.37784,-2.4925c0.3674,-0.70908 0.86049,-1.68438 1.26366,-2.511c0.35207,-0.72182 0.75179,-1.6786 1.06168,-2.4625c0.32585,-0.82426 0.52827,-1.39674 1.17949,-2.36333c0.47873,-0.71058 1.0723,-1.34422 1.49484,-2.10583c0.45076,-0.81247 0.67041,-1.46636 0.99049,-2.15016c0.55263,-1.18058 1.03532,-2.03371 1.28134,-2.47867c0.49728,-0.89943 0.77003,-1.33057 1.416,-2.616c0.37946,-0.7551 0.66443,-1.46459 0.948,-2.112c0.53773,-1.22768 0.86682,-1.82276 1.21066,-2.42133c0.51825,-0.90218 1.02046,-1.7943 1.29201,-2.404c0.4231,-0.95001 0.6797,-1.67303 1.21599,-2.896c0.20448,-0.46632 0.67229,-1.46237 0.91734,-1.98666c0.2496,-0.53404 0.75168,-1.60915 0.98132,-2.14667c0.64697,-1.51437 0.80342,-1.99303 1.10667,-2.884c0.2804,-0.82384 0.50566,-1.61124 0.98283,-2.6615c0.31108,-0.68471 0.70647,-1.33807 1.08299,-2.031c0.6071,-1.11728 0.99736,-1.95732 1.19551,-2.3955c0.40379,-0.89296 0.79424,-1.79202 1,-2.22667c0.5836,-1.23281 0.99437,-1.95431 1.37917,-2.62633c0.36261,-0.63327 1.01364,-1.83557 1.26366,-2.44167c0.36777,-0.89153 0.55644,-1.4998 0.95717,-2.7c0.2003,-0.5999 0.49797,-1.50068 0.8,-2.4c0.30247,-0.90068 0.49109,-1.51262 0.88533,-2.4c0.40616,-0.91418 0.76024,-1.5148 1.36134,-2.436c0.42863,-0.65688 0.91788,-1.3322 1.43733,-2.048c0.53914,-0.74293 1.09163,-1.48997 1.36333,-1.86333c0.78879,-1.08397 1.26489,-1.76772 1.71667,-2.406c0.62811,-0.8874 1.22192,-1.69214 1.836,-2.3895c0.39119,-0.44424 0.99966,-1.05617 1.79999,-1.85717c0.59975,-0.60025 1.20001,-1.2 1.8,-1.8c0.60001,-0.6 1.20345,-1.19657 2.00002,-2.00017c0.6026,-0.60791 1.02438,-1.01541 1.79999,-1.9665c0.41327,-0.50679 0.99222,-1.33911 1.39999,-1.88067c0.785,-1.04251 1.20563,-1.48674 1.76401,-2.142c0.68185,-0.80016 1.19406,-1.62146 1.58865,-2.21067c0.54611,-0.81541 1.06519,-1.3965 1.59467,-1.94283c0.75809,-0.78224 1.39453,-1.36864 2.13669,-1.8585c0.68106,-0.44954 1.52097,-1.10123 1.99515,-1.79867c0.55252,-0.81267 0.98856,-1.48586 1.47269,-2.3c0.47977,-0.80679 1.09695,-1.1572 1.8815,-1.7c0.67166,-0.46469 1.36533,-1.2 1.88132,-1.8l0.33801,-0.84283" id="svg_9" stroke-width="2" stroke="#000" fill="none"/>
  <path t="23019,23060,23072,23094,23110,23110,23120,23140,23153,23153,23153,23173,23173,23173,23187,23203,23203,23203,23220,23220,23220,23220,23237,23237,23256,23256,23256,23273,23273,23273,23290,23290,23290,23306,23306,23306,23323,23323,23323,23340,23340,23340,23340,23356,23356,23356,23370,23370,23390,23390,23406,23406,23423,23423,23423,23440,23440,23440,23440,23455,23455,23473,23473,23473,23490,23490,23503,23503,23520,23520,23520,23520,23537,23537,23537,23556,23556,23573,23573,23573,23590,23590,23590,23606,23606,23623,23623,23623,23637,23637,23637,23653,23653,23653,23670,23670,23690,23690,23690,23706,23720,23740,23800,24348,24392,24432,24440,24460,24470,24490,24490,24503,24520,24537,24538,24553,24570,24590,24611,24639,24640,24655,24672,24679,24699,24707,24707,24723,24737,24757,24773,24790,24790,24805,24821,24821,24840,24840,24856,24873,24890,24903,24903,24920,24948,24964,24964,24973,24987,25006,25020,25037,25056,25056,25070,25070,25090,25103,25123,25123,25137,25137,25153,25170,25170,25187,25187,25206,25206,25223,25223,25223,25237,25237,25237,25253,25253,25253,25254,25270,25270,25270,25270,25287,25287,25287,25288,25303,25303,25304,25320,25320,25320,25321,25337,25337,25337,25353,25353,25370,25370,25387,25387,25403,25420,25420,25437,25438,25453,25470,25470,25487,25488,25511,25512,25520,25540,25579,25668,25668" d="m240,316c-0.036,2.58932 -0.61804,3.31036 -0.91467,4.20001c-0.28595,0.85764 -0.20949,1.57748 -0.65999,2.39999c-0.43884,0.80124 -0.58846,1.73431 -0.778,2.40982c-0.21793,0.77667 -0.52473,1.81833 -0.61134,2.7435c-0.07091,0.75748 -0.00987,1.77786 -0.25749,2.78967c-0.18065,0.73813 -0.38835,1.27859 -0.7785,2.457c-0.19826,0.59882 -0.51164,1.47067 -0.71466,2.31467c-0.23851,0.99152 -0.28,1.87463 -0.28534,2.8855c-0.00433,0.82068 0,1.48517 0,2.48517c0,0.83551 0,1.716 0,2.91467c0,0.60001 0,1.5 0,2.69983c0,0.59567 0.00336,1.46417 0,2.53351c-0.00226,0.71848 -0.02791,1.68112 -0.22133,2.80933c-0.11415,0.66583 -0.28838,1.35535 -0.42601,2.052c-0.24873,1.25897 -0.33342,2.03281 -0.35133,2.90265c-0.02065,1.00247 -0.00133,1.80267 -0.00133,2.80267c0,0.80002 0,1.80002 0,2.60001c0,1 0,1.82132 0,2.51434c0,1.12833 0,1.79099 0,2.83499c0,0.68268 0,1.88 0,2.60901c0,1.04166 0,1.84164 0,2.64166c0,1 0,1.79999 0,2.80267c0,0.86932 0,1.93066 0,2.56531c0,0.68268 -0.00267,1.72668 0,2.69867c0.00226,0.819 -0.00659,1.74081 0.284,2.73334c0.23917,0.81689 0.59827,1.59363 0.68001,2.41068c0.08714,0.871 0.036,1.87332 0.036,2.68933c0,0.81601 0,1.81467 0,2.68933c0,1.01102 0,1.85233 0,2.58133c0,0.87201 0,1.88 0,2.57867c0,1.31732 0,1.88 0,2.82935c0,1.02133 0,1.82132 0,2.82132c0,0.78934 0,1.51468 0,2.58932c0,0.91068 0,1.81067 0,2.71066c0,0.90002 0.08868,1.80441 0,2.70001c-0.08374,0.8457 -0.73918,1.44461 -1.35716,1.94733c-0.70348,0.5723 -1.05804,1.04395 -1.72684,1.76733c-0.5141,0.55606 -1.59181,0.59964 -2.26334,0.98984c-0.92659,0.53842 -1.2234,1.45767 -1.81934,2.12885c-0.53841,0.60638 -1.0264,1.29071 -1.53783,1.86667c-0.65021,0.73227 -0.97697,1.53232 -1.5795,2.21597c-0.52675,0.59766 -1.10208,1.22238 -1.43201,1.884c-0.42056,0.84338 -0.284,1.80002 -0.284,2.70001c0,0.91068 0,1.82132 0,2.67465c0,0.94 0,1.82535 0,2.58252c0,0.89551 -0.00558,1.75885 0,2.72198c0.00534,0.9209 0.45294,1.62805 0.83333,2.52084c0.32019,0.75153 0.43439,1.5004 1,2.16666c0.58087,0.68423 0.96106,1.32465 1.64584,1.83334c0.69424,0.51572 1.22426,1.0546 2.02083,1.5c0.80344,0.44925 1.66667,0.66666 2.5,1c0.83333,0.33334 1.60829,0.48904 2.39999,0.92532c0.82133,0.45261 1.71593,0.48184 2.48534,0.66c0.97383,0.22549 1.62819,0.63943 2.61467,0.91467c0.8195,0.22864 1.4968,0.58136 2.5,0.83334c0.77597,0.19489 1.83333,0.16666 2.66133,0.16666c0.88167,0 1.61067,0 2.44766,0c1.19101,0 1.791,0 2.69101,0c1.2,0 1.80133,0 2.72083,0c0.63634,0 2.0005,0 2.73184,0c0.74733,0 1.49466,0 2.58067,0c1.00949,0 1.64581,0 2.56534,0c1.20264,0 1.81198,0 2.75848,0c1.00949,0 1.72549,0 2.82199,0c0.711,0 1.6875,0 2.5065,0c0.90533,0 1.91434,0 2.71436,0c0.99982,0 1.77914,0 2.77847,0c0.82019,0 1.77869,0 2.67868,0c0.74734,0 1.74152,0 2.50684,0c1.08334,0 2.00266,0 2.836,0c0.83334,0 1.75266,0 2.65268,0c0.86331,0 1.80566,0.02084 2.37265,0.57468l0.67917,0.42084l0.8595,-0.03152l0.43152,-0.66849" id="svg_10" stroke-width="2" stroke="#000" fill="none"/>
  <path t="26677,26693,26693,26693,26693,26693,26712,26720,26737,26737,26752,26753,26770,26770,26770,26787,26787,26787,26802,26802,26803,26803,26819,26819,26819,26819,26837,26837,26837,26853,26853,26875,26875,26875,26887,26887,26902,26903,26920,26937,26937,26952,26953,26970,26970,26987,27003,27003,27020,27020,27037,27037,27053,27070,27070,27087,27103,27119,27120,27139,27139,27159,27191,27199,27219,27227,27235,27252,27269,27285,27302,27303,27319,27319,27335,27335,27352,27369,27369,27386,27402,27403,27419,27419,27435,27435,27452,27470,27470,27485,27486,27502,27503,27519,27535,27536,27553,27570,27586,27586,27603,27620,27636,27636,27653,27670,27752,27767" d="m232,410c12.83333,-4.33334 14.29047,-4.85431 14.85234,-5.06683c0.85774,-0.32443 1.62021,-0.75894 2.62683,-0.91232c0.91084,-0.13879 1.66521,-0.41208 2.40616,-0.73685c0.91179,-0.39966 1.58298,-0.30249 2.53616,-0.50534c0.82126,-0.17477 1.67433,-0.4765 2.87849,-0.65717c0.59677,-0.08954 1.49997,-0.11481 2.70001,-0.12149c0.60132,-0.00336 1.52231,-0.00089 2.15717,-0.05716c1.3685,-0.12131 2.0914,-0.29352 2.82199,-0.44284c0.7114,-0.14542 1.97552,-0.4028 2.74884,-0.46399c0.66168,-0.05237 1.67334,-0.03601 2.508,-0.03601c1.18533,0 1.98935,-0.00003 2.53867,0c1.30368,0.00009 2.02615,-0.18643 3.05869,0.16666c0.67975,0.23245 0.96423,1.25165 1.6095,1.93335c0.48322,0.5105 1.41974,0.86438 2.03632,1.39999c0.75784,0.65833 1.26001,1.29129 1.54617,2.13599c0.28461,0.84009 0.66473,1.72079 1.17334,2.48001c0.43204,0.64493 0.6478,1.55884 0.88535,2.39999c0.24954,0.88361 1.12433,1.50131 1.55881,2.18402c0.46594,0.73212 0.29474,1.73074 0.57852,2.62131c0.22275,0.69904 0.69928,1.65155 0.77417,2.37418c0.09332,0.9006 0.42096,1.72333 1.20316,2.22049c0.73145,0.4649 1.22739,1.16159 1.82666,1.65869c0.61496,0.5101 1.64224,0.34796 2.37466,0.86133c0.7901,0.55377 1.22562,1.13947 1.89999,1.8685c0.52042,0.56262 0.97787,1.36139 1.40002,2.04282c0.56638,0.91418 1.04712,1.685 1.384,2.45267c0.33444,0.76212 0.84497,1.51666 0.9053,2.41068c0.06662,0.98697 0.01068,1.76849 0.01068,2.76782c0,0.82019 0,1.6575 0,2.67868c0,0.74734 0.07913,1.74942 -0.03601,2.50684c-0.14774,0.97165 -0.76462,1.63538 -1.36398,2.23599c-0.69919,0.70065 -1.30002,1.24283 -2.10001,1.60001c-0.79999,0.35718 -1.42712,1.08932 -2.10001,1.564c-0.7348,0.51837 -1.61877,0.93652 -2.39999,1.26935c-0.75153,0.32019 -1.70001,0.22382 -2.5,0.66666l-0.7955,0.43832l-0.67917,-0.37433" id="svg_11" stroke-width="2" stroke="#000" fill="none"/>
  <path t="29192,29207,29207,29225,29240,29240,29253,29284,29284,29308,29316,29316,29336,29352,29364,29372,29386,29403,29420,29436,29453,29470,29486,29503,29503,29520,29520,29536,29536,29553,29553,29570,29571,29586,29603,29628,29652,29652,29660,29670,29686,29703,29703,29720,29720,29736,29736,29736,29753,29753,29753,29772,29786,29803,29803,29803,29820,29820,29836,29853,29876,29886,29904,29920,29936,29953,29953,29970,29970,29987,30003,30020,30036,30053,30053,30083,30083,30098,30098,30103,30123,30156,30234" d="m233,428c2.11467,-4.85867 2.53629,-5.61237 3.3,-6.2955c0.65796,-0.58853 1.60277,-0.35977 2.41466,-0.78983c0.8578,-0.45438 1.306,-0.90424 2.26384,-0.91467c1.02144,-0.01111 1.8215,0 2.7215,0c0.90001,0 1.85197,-0.28906 2.68933,0.01068c0.73674,0.26373 1.2999,0.64783 2.08984,1.01016c0.73065,0.33514 1.13887,1.28952 1.4355,2.17917c0.28595,0.85764 0.31403,1.76422 0.65999,2.43597c0.41888,0.81332 0.42,1.57465 0.42534,2.56403c0.00432,0.79999 0,1.79999 0,2.77914c0,0.85419 -0.01047,1.7164 0,2.62085c0.01042,0.90018 0.33188,1.72406 1,2.39999c0.57889,0.58566 1.37317,0.99405 2,1.5c0.63103,0.50934 1.48534,0.5 2.40451,0.5c0.99683,0 1.83148,0 2.76215,0c0.78601,0 1.608,0 2.66669,0c0.70499,0 1.67999,0 2.64581,0c0.82983,0 1.85419,0 2.52618,0c0.74399,0 1.85165,0 2.68567,0c0.909,0 1.80899,0.00485 2.70898,0c0.98938,-0.00534 1.45102,-0.53488 1.61069,-1.39999c0.15344,-0.83136 0.89944,-1.58755 0.98483,-2.35718c0.09875,-0.89008 0.02716,-1.78671 0.42981,-2.60684c0.42667,-0.86911 1.02164,-1.38718 1.54935,-2.07199c0.50372,-0.65369 0.89835,-1.38556 1.67801,-1.86398c0.6832,-0.41925 1.39108,-1.02728 2.23132,-1.41467c0.87753,-0.4046 1.78265,-0.452 2.33749,-1.16385l0.87851,-0.12149" id="svg_12" stroke-width="2" stroke="#000" fill="none"/>
  <path t="32457,32473,32473,32473,32493,32493,32505,32524,32633,32649" d="m233,426c8.34933,1.75717 9.20427,1.83746 10.08934,2.01468c1.03947,0.20813 1.70932,0.70132 2.51067,0.97464l0.89999,0.01068l0.88933,0.01068l0.636,0.564" id="svg_13" stroke-width="2" stroke="#000" fill="none"/>
  <path t="33398,33414,33414,33517,33517,33635" d="m274,434c7.31866,0.284 8.07468,0.716 9,1l0.79999,0l0.84283,0.05716" id="svg_14" stroke-width="2" stroke="#000" fill="none"/>
  <path t="36351,36366,36366,36366,36366,36388,36388,36388,36404,36404,36419,36419,36419,36419,36436,36436,36436,36436,36453,36453,36453,36453,36469,36469,36469,36469,36469,36486,36486,36486,36503,36503,36503,36519,36519,36519,36519,36536,36536,36536,36553,36553,36553,36553,36569,36569,36569,36586,36586,36603,36603,36619,36619,36619,36636,36636,36653,36653,36653,36669,36669,36669,36686,36686,36703,36719,36719,36719,36736,36736,36753,36769,36769,36787,36787,36803,36819,36836,36836,36853,36853,36869,36886,36903,36918,36919,36936,36955,36955,37019,37019,37053" d="m320,343c-1.10001,8.57083 -1.29016,9.55496 -1.39999,9.97333c-0.27548,1.04926 -0.70007,2.10489 -0.98935,2.78c-0.32559,0.75989 -0.57858,1.65439 -0.69467,2.38669c-0.19031,1.20044 -0.34988,1.98309 -0.43683,2.40164c-0.17929,0.86292 -0.47067,2.12729 -0.67917,2.88766c-0.19217,0.70087 -0.49796,1.66235 -0.79999,2.57068c-0.30246,0.90967 -0.51651,1.54321 -0.75717,2.21432c-0.40225,1.12164 -0.729,1.95102 -1.0575,2.82568c-0.32751,0.87201 -0.52115,1.28369 -0.85199,2.45999c-0.25977,0.92358 -0.30969,1.71085 -0.5,2.66666c-0.15878,0.79749 -0.44199,1.64468 -0.83334,2.83334c-0.19766,0.60034 -0.50089,1.49451 -0.64282,2.10001c-0.27911,1.1907 -0.26337,1.80673 -0.41852,2.69998c-0.21057,1.21231 -0.49542,1.80426 -0.93866,2.67917c-0.28745,0.56741 -0.7916,1.59155 -0.97916,2.5c-0.12701,0.61511 -0.35837,1.62967 -0.72534,2.42084c-0.46933,1.0119 -0.85855,1.57416 -1.12885,2.60001c-0.20697,0.78555 -0.18478,1.62039 -0.52383,2.60001c-0.21304,0.61554 -0.72574,1.60925 -1.0535,2.19998c-0.45132,0.81342 -1.08597,1.58871 -1.56848,2.20001c-0.46524,0.58942 -0.85501,1.60956 -1.069,2.34283c-0.30881,1.05817 -0.99438,1.80081 -1.34119,2.49316c-0.37244,0.74353 -0.561,1.5603 -0.60617,2.50684c-0.04309,0.90353 -0.12183,1.84656 -0.52533,2.65717c-0.42834,0.86057 -1.12964,1.40033 -1.39383,2.20001c-0.2836,0.8584 -0.25299,1.79929 -0.69598,2.43597c-0.58936,0.84708 -0.94354,1.54239 -1.30533,2.47736c-0.29736,0.76846 -0.93127,1.29108 -1.36801,2.08667c-0.35577,0.6481 -0.6983,1.45032 -1,2.284c-0.31873,0.88077 -0.65433,1.75433 -0.35883,2.45883l0.94281,0.05716" id="svg_15" stroke-width="2" stroke="#000" fill="none"/>
  <path t="39821,39852,39864,39880,39887,39903,39919,39936,39953,39953,39953,39969,39969,39986,39986,40003,40003,40019,40036,40036,40053,40053,40053,40070,40070,40070,40086,40086,40103,40103,40103,40119,40119,40136,40136,40136,40154,40154,40154,40154,40169,40169,40169,40186,40186,40186,40203,40203,40219,40219,40236,40236,40236,40253,40253,40253,40269,40269,40269,40286,40286,40303,40303,40303,40303,40319,40319,40319,40336,40336,40353,40353,40353,40369,40369,40369,40369,40386,40386,40386,40403,40403,40419,40419,40419,40419,40436,40436,40436,40453,40453,40469,40469,40486,40486,40503,40503,40519,40519,40519,40519,40536,40536,40536,40553,40553,40553,40569,40569,40586,40586,40603,40603,40603,40619,40619,40619,40636,40636,40653,40653,40669,40669,40669,40669,40686,40686,40704,40704,40719,40719,40720,40736,40736,40753,40753,40769,40769,40786,40786,40803,40803,40803,40819,40819,40836,40836,40853,40853,40869,40886,40886,40903,40903,40919,40919,40936,40936,40953,40970,40970,40970,40986,40986,41003,41019,41036,41036,41053,41053,41069,41070,41086,41103,41103,41119,41120,41136,41153,41153,41169,41169,41186,41187,41203,41204,41219,41219,41236,41237,41253" d="m215,235c0,2.58934 0,3.5 0,4.39999c0,0.90001 -0.15251,1.89256 0.35266,2.54733c0.48633,0.63034 0.64734,1.386 0.64734,2.30334c0,0.74399 0,1.78 0,2.63199c0,0.77451 0,1.71867 0,2.71284c0,0.74733 0,1.77916 0,2.726c0,0.69933 0,1.6785 0,2.48917c0,0.87466 0.0211,1.87418 -0.02083,2.68933c-0.04204,0.81747 -0.26273,1.81482 -0.47917,2.47916c-0.33266,1.02106 -0.42471,1.82925 -0.584,2.62085c-0.20512,1.01935 -0.57053,1.61832 -0.79466,2.8215c-0.15019,0.80624 -0.09314,1.39676 -0.28801,2.57849c-0.14967,0.90768 -0.34592,1.50262 -0.63466,2.39999c-0.29041,0.90256 -0.59206,1.79169 -0.79868,2.36401c-0.38766,1.07388 -0.69028,1.78348 -1.09999,2.6315c-0.39078,0.80884 -0.75218,1.61349 -1.3,2.43784c-0.46123,0.69403 -1.12608,1.47443 -1.5,2.20831c-0.32294,0.63385 -0.70081,1.64203 -1,2.45834c-0.20053,0.54715 -0.58519,1.58521 -1,2.47916c-0.28973,0.62439 -0.82155,1.62051 -1.10001,2.29285c-0.43402,1.04788 -0.61034,1.69284 -0.78932,2.37866c-0.27129,1.03952 -0.4532,2.01477 -0.558,2.83499c-0.11551,0.90408 -0.31631,1.92331 -0.5735,2.51434c-0.44244,1.01678 -0.83783,1.58725 -1.12201,2.51434c-0.24643,0.80396 -0.30449,1.79099 -0.35716,2.48566c-0.05267,0.69467 -0.19676,1.96393 -0.42534,2.728c-0.26271,0.87817 -0.51692,1.88162 -0.59999,2.54401c-0.13322,1.06238 -0.25728,1.69629 -0.47467,2.728c-0.14641,0.69485 -0.37323,1.66251 -0.464,2.728c-0.05634,0.66135 -0.036,1.672 -0.036,2.47202c0,0.99982 0,1.77914 0,2.77866c0,0.90533 0,1.6875 0,2.54016c0,1.12384 0,1.7865 0,2.48117c0,1.03201 0,1.95715 0,2.97916c0,0.70352 0,1.70483 0,2.52084c0,0.81601 0,1.81467 0,2.68933c0,1.01068 0,1.81067 0,2.81067c0,0.81067 0,1.68533 0,2.68399c0,0.81601 0,1.63202 0,2.62933c0,0.84 -0.03844,1.80936 0.05716,2.55368c0.11618,0.90463 0.37199,1.81885 0.5175,2.49298c0.14516,0.67252 0.27744,1.87793 0.45067,2.78268c0.18964,0.99042 0.70038,1.64862 0.89067,2.62668c0.14441,0.74225 0.10712,1.56213 0.368,2.54532c0.23639,0.89087 0.54749,1.68567 0.69067,2.47467c0.18956,1.04446 0.65137,1.6665 0.94133,2.69598c0.19887,0.70605 0.27403,1.72717 0.60483,2.51468c0.2565,0.61066 0.80986,1.58548 1.04317,2.20001c0.37202,0.97992 0.25375,1.83789 0.6575,2.77847c0.341,0.79443 1.29883,1.34625 1.65717,2.12167c0.34045,0.73672 0.46872,1.56161 0.82584,2.30435c0.48108,1.00058 0.91031,1.74164 1.17416,2.57397c0.25551,0.80597 0.65775,1.54749 1.28801,2.18817c0.65326,0.66406 1.19992,1.16193 1.94666,1.948c0.53925,0.56766 0.80432,1.55054 1.32268,2.28534c0.47469,0.67288 1.18961,1.17545 1.864,1.90451c0.52043,0.56262 0.87566,1.43878 1.5,2.12616c0.59792,0.65829 1.5527,0.88544 2,1.45599c0.68733,0.87677 0.94914,1.66708 1.5,2.35617c0.64388,0.80545 1.24518,1.24606 1.8,2.07849c0.4369,0.65552 0.90419,1.50888 1.39999,2.17868c0.60516,0.81754 0.95157,1.53104 1.5,2.33334c0.46091,0.67426 1.09984,1.26666 1.64284,1.86667l0.38249,0.86398" id="svg_16" stroke-width="2" stroke="#000" fill="none"/>
  <path t="43213,43284,43284,43300,43324,43336,43353,43369,43386,43403,43420,43436,43436,43453,43453,43469,43486,43486,43503,43503,43519,43536,43536,43536,43553,43553,43553,43569,43569,43586,43586,43586,43603,43603,43619,43619,43619,43636,43636,43636,43653,43653,43669,43669,43669,43686,43686,43703,43703,43719,43719,43719,43736,43753,43753,43753,43769,43769,43786,43786,43786,43802,43802,43819,43819,43836,43836,43852,43852,43869,43869,43886,43886,43886,43902,43902,43902,43919,43919,43919,43936,43936,43952,43952,43952,43969,43969,43969,43969,43986,43986,43986,44002,44002,44002,44019,44019,44019,44019,44036,44036,44036,44052,44052,44052,44069,44069,44086,44086,44102,44102,44119,44119,44136,44136,44152,44532,44547" d="m295,417c0,2 0.79999,2 1.70001,2c0.89999,0 1.66843,-0.1441 2.35266,-0.64734c0.6662,-0.48999 1.5672,-0.35025 2.34732,-0.77798c0.82291,-0.4512 1.65186,-0.88196 2.35718,-1.22202c0.85071,-0.41016 1.6326,-0.30539 2.60684,-0.77798c0.77786,-0.37732 1.53018,-0.63525 2.46133,-1c0.69769,-0.27328 1.69086,-0.52148 2.49631,-0.79617c0.73801,-0.25168 1.35953,-0.59384 2.36234,-0.97852c0.81174,-0.31137 1.64087,-0.57855 2.63068,-1c0.67081,-0.28561 1.68533,-0.79996 2.28534,-1.09998c0.79999,-0.39999 1.60001,-0.80002 2.39999,-1.20001c1,-0.5 1.60001,-0.80002 2.39999,-1.20001c0.80002,-0.40002 1.60001,-0.79999 2.20001,-1.09998c1,-0.5 1.79999,-0.90002 2.60001,-1.30002c0.79999,-0.39999 1.38782,-0.72537 2.39999,-1.1955c0.79099,-0.3674 1.60092,-0.57733 2.39999,-0.7045c1.00119,-0.15933 1.81699,-0.38562 2.51468,-0.80133c0.90018,-0.53635 1.6416,-1.21655 2.32132,-1.59866c0.56036,-0.315 1.564,-0.80002 2.36401,-1.20001c0.79999,-0.39999 1.6091,-0.76605 2.31467,-1.19998c0.75555,-0.46469 1.35605,-1.02103 2.138,-1.5c0.68353,-0.4187 1.57242,-1.02969 2.23132,-1.5c0.74942,-0.53491 1.52637,-0.88861 2.31583,-1.30017c0.78531,-0.40939 1.64981,-1.05338 2.18552,-1.73584c0.43808,-0.55811 1.14661,-1.37671 1.62,-1.75949c0.72809,-0.58875 1.66284,-1.23593 2.33331,-1.76852c0.54526,-0.43311 1.33536,-0.91376 2.06586,-1.39316c0.81552,-0.53519 1.39966,-1.0863 2.05264,-1.64734c0.70258,-0.60364 1.49609,-1.1947 2.04285,-1.59549c0.81689,-0.59882 1.58936,-1.18784 2.26401,-1.79999c0.4324,-0.39233 1.23599,-1.20001 1.836,-1.80002c0.60001,-0.60001 1.39999,-1.39999 2,-2c0.39999,-0.39999 1,-1 1.79999,-1.79999c0.60001,-0.60001 1.20441,-1.19565 1.99869,-2c0.39285,-0.39783 0.99359,-0.96365 1.71597,-1.99869c0.39227,-0.56207 0.85028,-1.46338 1.38535,-2.08047c0.65887,-0.75989 1.22858,-1.25916 1.70001,-2.00485c0.42648,-0.67459 0.99866,-1.63065 1.51465,-2.31467l0.31067,-0.80133l0.38934,-0.78934l-0.03601,-0.59998" id="svg_17" stroke-width="2" stroke="#000" fill="none"/>
  <path t="48401,48401,48401,48401,48401,48401,48401,48417,48417,48417,48438,48454,48454,48470,48470,48486,48486,48486,48486,48502,48502,48502,48519,48519,48536,48536,48552,48552,48552,48569,48569,48586,48602,48602,48619,48619,48636,48652,48652,48652,48669,48686,48687,48702,48702,48719,48719,48736,48736,48752,48752,48784,48784,48812,48852,48869,48869,48920,49035,49051" d="m174,124c7.91367,5.05684 8.45854,5.42436 8.96233,5.78117c0.91737,0.64975 1.33191,0.95012 2.06168,1.53082c0.94458,0.75165 1.66618,1.46342 2.30983,1.96918c0.74989,0.58925 1.47972,0.97301 1.83549,1.6055c0.46449,0.82578 1.07253,1.34302 1.83067,2.28c0.41133,0.50836 0.99431,1.33754 1.39999,1.88066c0.59177,0.79222 1.18593,1.49998 1.76401,2.106c0.65858,0.69041 1.31517,1.32584 1.93617,1.94684c0.657,0.657 1.22116,1.22116 1.89983,1.89983c0.51601,0.51601 1.2469,1.23878 1.79866,1.79866c0.7066,0.71703 1.29869,1.52425 1.70134,2.20134c0.49673,0.83528 1.09312,1.42422 1.44733,2.3045c0.33209,0.82533 0.44519,1.54565 0.854,2.2115c0.54312,0.8846 1.33597,1.55165 1.79868,2.12c0.65584,0.80557 0.95973,1.56516 1.5,2.34267c0.46645,0.67128 1.13841,1.48572 1.46399,2.196c0.35976,0.78487 0.45317,1.59062 0.78867,2.478c0.26686,0.70583 0.52126,1.75587 0.93134,2.54733c0.44646,0.86165 0.8,1.51466 1.5945,2.0215l0.12134,0.87834l-0.28517,0.81483" id="svg_18" stroke-width="2" stroke="#000" fill="none"/>
  <path t="50779,50810,50810,50836,50852,50870,50892,50892,50912,50936,50944,50956,50969,51012,51100,51311,51347" d="m194,212c4.12849,1.88567 5.23216,1.75575 5.916,2.284c0.6275,0.48471 1.43407,0.58434 2.18401,0.93733c0.77553,0.36504 1.51778,0.77026 2.29999,1.20401c0.82014,0.45479 1.82492,0.31839 2.47867,0.79599c0.69908,0.51071 1.32133,0.77867 2.22118,0.77884l0.81483,0.28517" id="svg_19" stroke-width="2" stroke="#000" fill="none"/>
  <path t="53871,53871,53871,53871,53871,53887,53887,53907,53907,53921,53921,53935,53935,53935,53952,53952,53969,53969,53969,53969,53984,53985,53985,54001,54002,54002,54019,54019,54035,54035,54035,54052,54052,54052,54069,54069,54085,54085,54085,54101,54102,54118,54119,54134,54134,54152" d="m213,238c0.87849,10.32767 0.92288,10.91429 0.964,11.89067c0.03166,0.75175 0.036,1.96649 0.036,2.724c0,0.86932 0,1.73267 0,2.64166c0,0.79832 0,1.79567 0,2.74367c0,0.642 0,1.73599 0,2.5c0,1 0,1.867 0,2.54166c0,0.71469 0,2.13669 0,2.79669c0,0.91498 0,1.995 0,2.7045c0,0.85266 0.00006,1.85715 0,2.65717c-0.00009,1.00015 0.0126,1.82492 -0.08533,2.48532c-0.1494,1.00748 -0.41617,1.82156 -0.716,2.63068c-0.37347,1.00781 -0.76006,1.63824 -1.032,2.68399c-0.20445,0.78622 -0.17995,1.62207 -0.52383,2.60001c-0.28932,0.82275 -0.74284,1.59982 -1.14284,2.37915l-0.5,0.85419l-0.47917,0.64581l-0.46815,0.82535" id="svg_20" stroke-width="20" stroke="#fff" fill="none"/>
  <path t="57233,57249,57249,57269,57269,57285,57285,57285,57302,57319,57319,57319,57335,57335,57335,57352,57352,57352,57352,57369,57369,57369,57369,57369,57385,57385,57385,57385,57402,57402,57402,57402,57419,57419,57419,57419,57419,57435,57435,57435,57435,57453,57453,57453,57453,57469,57469,57470,57470,57470,57485,57485,57485,57502,57502,57502,57502,57519,57519,57519,57535,57535,57535,57552,57552,57569,57569,57569,57585,57602,57602,57602,57619,57619,57619,57635,57635,57635,57652,57652,57669,57669,57669,57669,57685,57685,57685,57702,57702,57702,57702,57702,57719,57719,57719,57735,57735,57735,57752,57752,57752,57752,57769,57769,57769,57769,57785,57785,57785,57785,57802,57802,57802,57819,57819,57819,57835,57835,57835,57852,57852,57869,57869,57869,57885,57885,57885,57902,57902,57919,57919,57935,57935,57972,57972,57976,57985,58002,58002,58019,58019,58019,58019,58019,58035,58035,58035,58035,58035,58035,58035,58052,58052,58052,58052,58052,58052,58052,58052,58052,58069,58069,58069,58069,58069,58069,58069,58070,58070,58085,58085,58085,58085,58085,58085,58085,58086,58086,58102,58102,58102,58102,58102,58103,58103,58103,58103,58119,58120,58120,58120,58120,58120,58120,58120,58120,58135,58135,58135,58136,58136,58136,58152,58152,58152,58152,58169,58170,58170,58170,58170,58185,58185,58185,58202,58202,58203,58203,58219,58219,58219,58235,58235,58252,58252,58272,58288,58288" d="m213,234c4.3925,7.24966 4.90965,8.14671 5,9.16667c0.05905,0.66672 0,1.83333 0,2.62267c0,0.72533 0.02155,1.74025 -0.16667,2.54399c-0.22034,0.94084 -0.52371,1.72398 -0.83333,2.5c-0.38268,0.95911 -0.7235,1.66832 -1,2.5c-0.32323,0.97221 -0.49899,1.70438 -0.64284,2.47568c-0.22112,1.18568 -0.27663,1.98943 -0.33183,2.78032c-0.05406,0.77444 -0.06497,1.53201 -0.24683,2.58936c-0.17268,1.00406 -0.3896,1.64655 -0.57983,2.30533c-0.29953,1.03732 -0.49673,1.77502 -0.7195,2.53683c-0.22972,0.78561 -0.63899,1.9819 -0.96184,2.77914c-0.32512,0.80283 -0.68996,1.58841 -0.948,2.40002c-0.37675,1.185 -0.46852,1.99451 -0.54851,2.77914c-0.07777,0.76282 -0.16748,1.85797 -0.30617,2.53818c-0.20593,1.00998 -0.43134,1.68936 -0.71466,2.81601c-0.209,0.83109 -0.3989,1.70691 -0.5,2.14581c-0.19785,0.85883 -0.47215,2.03027 -0.8,2.95386c-0.27675,0.77963 -0.70862,1.73044 -1,2.52414c-0.20612,0.56149 -0.49864,1.44464 -0.8,2.34268c-0.29865,0.88995 -0.58299,1.74966 -0.89999,2.53351c-0.37979,0.93909 -0.6991,1.56262 -1.2,2.56665c-0.29947,0.60028 -0.81451,1.59302 -1.18933,2.38934c-0.33855,0.71927 -0.53157,1.60098 -0.832,2.53232c-0.23703,0.73477 -0.55458,1.35495 -0.69334,2.36368c-0.11421,0.83017 -0.08466,1.716 -0.08533,2.91199c-0.00032,0.58136 0.04581,1.38937 -0.0045,2.60184c-0.02759,0.66486 -0.21902,1.5647 -0.42084,2.49817c-0.15097,0.6983 -0.3372,1.4155 -0.48933,2.81866c-0.0712,0.65665 -0.07999,1.30933 -0.08533,2.65067c-0.00285,0.71735 0,1.45868 0,2.20801c0,0.74133 0,2.13867 0,2.77866c0,0.88501 0,1.92551 0,2.86752c0,0.7485 0.00586,1.94995 -0.01067,2.65115c-0.01765,0.74954 -0.04449,1.53448 -0.21066,2.72784c-0.11122,0.79871 -0.28696,1.57776 -0.42601,2.34299c-0.19778,1.08844 -0.3069,2.09946 -0.33183,2.73633c-0.03596,0.91904 -0.02083,1.82068 -0.02083,2.71017c0,0.85352 0,1.88934 0,2.81067c0,0.68399 0,1.68399 0,2.5c0,0.81601 0,1.81467 0,2.68933c0,1.01083 0,1.83151 0,2.496c0,1.26733 0,1.81467 0,2.63068c0,1.22684 0.02109,2.07974 -0.00133,3.08398c-0.01787,0.80057 -0.20844,1.80396 -0.42401,2.38934c-0.38736,1.05185 -0.56602,2.40952 -1.29066,2.12399c-0.7894,-0.31104 -0.26143,-1.58597 -0.34116,-2.48932c-0.0818,-0.92688 -0.22969,-1.68088 -0.36818,-2.54266c-0.15247,-0.94885 -0.24983,-1.44904 -0.40799,-3.048c-0.05482,-0.55429 -0.11269,-1.69943 -0.13068,-2.29068c-0.01842,-0.60507 -0.02937,-1.22531 -0.03467,-2.51465c-0.0056,-1.36136 -0.00055,-2.07184 -0.00266,-2.80536c-0.00218,-0.75949 -0.00714,-1.54803 -0.0195,-2.3685c-0.01288,-0.85553 -0.03145,-1.74915 -0.0645,-2.6835c-0.07089,-2.00439 -0.1347,-3.07739 -0.19734,-4.19064c-0.06433,-1.1434 -0.13451,-2.30655 -0.1965,-3.48001c-0.062,-1.17322 -0.12183,-2.33633 -0.15149,-3.48001c-0.05672,-2.18622 -0.03535,-3.21246 0.00133,-4.19064c0.03505,-0.93488 0.0947,-1.82858 0.17101,-2.6835c0.07329,-0.82108 0.16235,-1.60965 0.261,-2.3685c0.18787,-1.44525 0.29613,-2.13452 0.39732,-2.80667c0.09883,-0.65652 0.1992,-1.2988 0.3,-1.92902c0.09923,-0.62045 0.1996,-1.23273 0.3,-1.83899c0.1992,-1.20279 0.29967,-1.8024 0.39999,-2.39999c0.09967,-0.59372 0.19914,-1.18149 0.3,-1.76102c0.09917,-0.56982 0.19768,-1.12775 0.3,-1.67099c0.19556,-1.03818 0.29918,-1.52783 0.39867,-2c0.18941,-0.89896 0.38445,-1.74603 0.51599,-2.56799c0.19182,-1.19852 0.23817,-2.00229 0.26451,-2.80267c0.02632,-0.79971 0.02083,-2 0.02083,-2.79868c0,-0.79065 0,-1.56534 0,-2.31598c0,-1.06384 0,-2.04935 0,-2.67468c0,-1.21066 0,-1.81067 0,-2.71066c0,-0.89999 0,-1.79984 0,-2.68933c0,-0.85352 0,-1.88901 0,-2.76901c0,-0.875 -0.05716,-1.73715 -0.52083,-2.54166l-0.67784,-0.70001l-0.51599,-0.59998" id="svg_21" stroke-width="20" stroke="#fff" fill="none"/>
  <path t="66455,66455,66455,66455,66455,66455,66455,66471,66471,66491,66502,66502,66518,66518,66535,66535,66535,66552,66568,66568,66585,66585,66601,66618,66618,66635,66651,66667,66684,66685,66702,66723,66735,66752,66768,66792,66802,66818,66835,66852,66868,66885,66885,66939,66947" d="m199,346c9.33333,14.66666 9.89093,15.59528 10.34666,16.40268c0.38673,0.68515 0.70648,1.2655 1.14667,2.17599c0.52238,1.08054 1.06406,1.83884 1.42267,2.62134c0.39604,0.86414 0.82307,1.53479 1.284,2.28531c0.43349,0.70584 0.91016,1.70956 1.18933,2.30402c0.33792,0.71957 0.53391,1.73624 0.89601,2.69467c0.26982,0.71417 0.78809,1.51724 1.31467,2.10532c0.66331,0.74078 1.13687,1.44757 1.48399,2.21066c0.38858,0.85428 0.79987,1.64133 1.2,2.40002c0.45271,0.85837 0.77039,1.49905 1.216,2.29999c0.44455,0.79904 0.34065,1.79788 0.85266,2.44733c0.48456,0.61462 0.40446,1.48749 0.65184,2.34818c0.22072,0.76788 0.8465,1.23938 1.00616,2.10449c0.15344,0.83139 0.82266,1.60001 0.98801,2.39999l-0.084,0.91467l-0.716,0.19867" id="svg_23" stroke-width="20" stroke="#fff" fill="none"/>
  <path t="68829,69197,69331,69346,69366,69366,69385,69401,69418,69435,69435,69451,69468,69468,69485,69501,69528,69528,69552,69564,69580,69604,69624,69648,69676,69708,69708,69724,69731,69744,69768,69792,69812,69836,69836,69860,69880,69904,69928,69956,69976,70000,70000,70008,70044,70060,70068,70085,70100,70118,70135,70151,70168,70168,70185,70201,70218,70235,70251,70251,70268,70268,70285,70301,70317,70318,70335,70351,70367,70385,70401,70417,70418,70435,70451,70468,70484,70485,70500,70501,70518,70518,70535,70535,70551,70551,70568,70585,70585,70601,70601,70618,70618,70635,70635,70651,70668,70668,70685,70685,70701,70701,70701,70718,70718,70735,70751,70751,70768,70768,70768,70785,70785,70785,70801,70801,70818,70818,70818,70835,70835,70835,70851,70851,70868,70868,70885,70885,70885,70901,70901,70901,70901,70918,70918,70918,70918,70935,70935,70935,70951,70951,70951,70968,70968,70968,70985,70985,70985,70985,71001,71001,71001,71017,71018,71034,71035,71035,71035,71050,71051,71051,71068,71068,71068,71084,71085,71085,71100,71101,71101,71117,71118,71118,71135,71135,71135,71150,71151,71151,71167,71168,71168,71184,71185,71185,71200,71201,71201,71218,71218,71218,71234,71235,71235,71250,71251,71267,71284,71285,71285,71301,71301,71318,71318,71334,71335,71350,71367,71368,71384,71385,71400,71401,71417,71434,71435,71450,71451,71467,71484,71507,71569,71621" d="m209,218c0.87849,-1.2215 1.33783,-2.4375 1,-2.4375c-0.92149,0 0,1.78484 0,2.68033c0,0.95717 0,1.85718 0,2.75717c0,0.8 -0.01184,1.65149 0.284,2.48399c0.31364,0.88261 0.68741,1.7574 0.716,2.61601c0.02995,0.89949 0,1.7 0,2.59999c0,0.90001 0,1.8 0,2.7c0,0.90001 0,1.8 0,2.70001c0,0.89999 0,1.7 0,2.59999c0,0.90001 0,1.8 0,2.7c0,0.90001 -0.16371,1.8573 0.22133,2.70001c0.3058,0.6693 0.77333,1.49995 0.77867,2.39999c0.00533,0.89998 0,1.8 0,2.7c0,0.90001 0.0372,1.80087 0,2.60001c-0.04271,0.91763 -0.91634,1.35561 -1,2.3c-0.07942,0.89648 -0.41769,1.45439 -0.87849,2.12149c-0.50406,0.72971 0.16493,1.89288 -0.28818,2.61185c-0.44431,0.70499 -0.82799,1.35193 -0.83333,2.28131c-0.00508,0.88535 -0.48206,1.49374 -0.91467,2.172c-0.47546,0.74539 0.04825,1.75821 -0.30666,2.69183c-0.25075,0.65961 -0.71346,1.55356 -1.13133,2.3215c-0.45758,0.84091 -0.45071,1.53455 -0.7045,2.40002c-0.25729,0.87744 -0.91425,1.5986 -0.94284,2.5c-0.02853,0.89954 0.17355,1.83823 -0.08533,2.59998c-0.30176,0.88794 -0.81499,1.6051 -0.91917,2.50452c-0.10095,0.87143 -0.57433,1.66815 -0.82883,2.52884c-0.22888,0.77408 -0.16606,1.65198 -0.16667,2.57117c-0.00067,0.99417 0.10695,1.80881 -0.284,2.71014c-0.32193,0.74222 -0.68558,1.52185 -0.71733,2.37067c-0.03442,0.92023 -0.28101,1.91397 -0.49867,2.49384c-0.37561,1.00061 -0.49774,1.7735 -0.5,2.67352c-0.00215,0.86331 0,1.84732 0,2.83264c0,0.72534 0,1.71469 0,2.51468c0,1 0,1.79999 0,2.60001c0,0.99548 0,1.74283 0,2.77466c0,0.94684 0,1.64618 0,2.8255c0,0.6105 0,1.48517 0,2.48383c0,0.81601 0,1.63202 0,2.63068c0,0.87466 0,1.8855 0,2.70618c0,0.66449 -0.0211,1.664 0.02083,2.47916c0.04204,0.81747 0.34441,2.03867 0.55383,2.68933c0.32336,1.00461 0.40843,1.81061 0.42534,2.81067c0.01389,0.82126 0.02904,1.5188 0.22133,2.64282c0.11464,0.6701 0.30205,1.37369 0.49467,2.47452c0.18503,1.05746 0.24281,1.72485 0.27333,2.672c0.01962,0.6091 -0.00546,1.81122 0.03149,2.71066c0.02467,0.60059 0.18773,1.80286 0.40451,2.68933c0.14104,0.57675 0.42712,1.64136 0.54933,2.59601c0.09253,0.72278 0.24223,1.85822 0.37799,2.51999c0.1427,0.69565 0.3866,1.7229 0.526,2.65167c0.11533,0.76834 0.14697,1.65799 0.4785,2.64749c0.21619,0.64523 0.74803,1.81509 0.94284,2.35266c0.30824,0.85059 0.5002,1.44412 0.89999,2.64285c0.30016,0.89993 0.49873,1.50043 0.90001,2.69983c0.19937,0.59589 0.47878,1.47235 0.89999,2.53351c0.28572,0.71982 0.61996,1.38376 1,2.33331c0.31203,0.7796 0.61232,1.59686 0.83333,2.66669c0.14629,0.70807 0.13358,1.40308 0.38817,2.58798c0.1748,0.81357 0.36525,1.36243 0.7785,2.41202c0.28372,0.72061 0.71536,1.61313 1.10001,2.58798c0.20837,0.52811 0.48073,1.36081 0.89999,2.41202c0.28691,0.71936 0.61758,1.38474 1,2.33331c0.31458,0.7803 0.57954,1.61597 1,2.66669c0.28618,0.71518 0.60837,1.3519 1.09984,2.36667c0.38593,0.79684 0.65582,1.3913 0.84749,2.39548c0.17422,0.91281 0.5257,1.75409 1.05267,2.57117c0.41969,0.65073 0.75955,1.4252 0.94733,2.42883c0.13881,0.74185 0.42195,1.64359 0.854,2.28851c0.50861,0.75922 0.82133,1.47012 1.17334,2.48001c0.29395,0.84332 0.84749,1.50818 1.32533,2.28867c0.41855,0.68362 1.0033,1.39438 1.41466,2.146c0.42879,0.78342 0.51961,1.71207 0.98984,2.54865c0.4472,0.79562 1.12544,1.42072 1.28484,2.25269c0.18159,0.94788 0.658,1.45267 1.17734,2.23334l0.71182,0.38815" id="svg_24" stroke-width="2" stroke="#000" fill="none"/>
  <path t="73317,73332,73332,73332,73332,73332,73332,73332,73332,73353,73353,73353,73353,73353,73353,73370,73370,73387,73387,73387,73530,73545,73574,73585,73585,73585,73601,73601,73601,73618,73618,73618,73635,73635,73635,73651,73651,73668,73685,73720" d="m231,440c-0.664,3.31366 -0.85197,4.04266 -1.058,4.83566c-0.21797,0.83899 -0.44388,1.70551 -0.666,2.58301c-0.21986,0.86853 -0.4416,1.70807 -0.776,3.24799c-0.14323,0.65958 -0.25159,1.24832 -0.33299,1.77151c-0.13579,0.87277 -0.1899,1.8793 -0.451,2.8765c-0.17699,0.67593 -0.59543,1.67908 -0.68001,2.47467c-0.07677,0.72211 -0.10292,2.15247 0.6685,2.14899c0.94698,-0.00427 1.46217,-1.10498 1.95267,-1.59549c0.5535,-0.5535 1.33598,-1.34982 1.94284,-1.93832c0.59337,-0.57541 1.39171,-1.25012 2,-1.65186c0.78957,-0.52145 1.61227,-1.05978 2.18933,-1.578c0.56604,-0.50833 1.32533,-1.28931 1.90616,-1.87015l0.7045,-0.69385l0.79868,-0.52664l0.71733,-0.36935" id="svg_25" stroke-width="2" stroke="#000" fill="none"/>
  <path t="74332,74348,74348,74348,74348,74348,74348,74348,74348,74348,74482,74482,74482,74482,74482,74482,74498,74535,74554,74554,74554,74554,74567,74567,74585,74585,74585,74585,74600,74600,74600,74617,74617,74635,74655,74679,74711,74739" d="m248,445c0.16667,3.33334 0.22105,4.1987 0.284,5.17599c0.06836,1.06137 0.14134,2.17868 0.216,3.32401c0.07466,1.14532 0.14787,2.26263 0.216,3.32401c0.11827,1.84259 0.16315,2.57465 0.19867,3.17865c0.0287,0.48798 0.02411,0.87442 0.0645,1.164c0.03514,0.25201 0.73465,-0.24478 1.34216,-1.05215c0.37564,-0.49921 0.84224,-1.45544 1.19467,-2.06384c0.58318,-1.00674 1.12613,-1.67844 1.81732,-2.21732c0.659,-0.51379 1.19827,-0.83969 1.98401,-1.43466c0.77184,-0.58447 1.44289,-1.18082 2.02101,-1.74152c0.7858,-0.76215 1.30154,-1.41406 2.06165,-2.04651c0.65643,-0.54617 1.51599,-0.89465 1.95718,-1.5535l0.93832,-0.06165" id="svg_26" stroke-width="2" stroke="#000" fill="none"/>
  <path t="77879,77895,77895,77895,77895,77895,77895,77895,77895,77895,77920,77920,77920,77920,77920,77920,77920,77920,77920,77953,77953,77953,77953,77953,77953,77953,77970,77970,77970,77970,77970,77970,78000,78000,78000,78001,78001,78020,78020,78020,78020,78020,78020,78053,78053,78053,78053,78053,78070,78070,78070,78070,78070,78070,78085,78085,78085,78085,78085,78101,78102,78102,78102,78117,78117,78118,78133,78133,78134,78150,78151,78151,78151,78167,78168,78183,78183,78184,78184,78200,78201,78201,78217,78217,78218,78233,78234,78234,78234,78250,78251,78251,78268,78268,78268,78268,78284,78284,78284,78300,78301,78301,78317,78318,78318,78333,78333,78334,78334,78350,78350,78367,78368,78368,78383,78384,78384,78400,78401,78418,78433,78450,78451,78467,78484,78484,78501,78519,78519" d="m387,256c1.5,5 1.76688,6.18317 2.05066,7.51068c0.30612,1.43213 0.61658,2.93427 0.9285,4.46848c0.31073,1.52844 0.60818,3.0152 0.88351,4.42352c0.47501,2.42981 0.65332,3.38898 0.79733,4.17999c0.11734,0.64438 0.20755,1.16516 0.2775,1.58398c0.05655,0.33856 0.09955,0.61972 0.14249,0.86401c0.08261,0.47006 0.1405,0.73422 0.20535,1.02667c0.07074,0.31891 0.15054,0.66135 0.2355,1.026c0.18341,0.78738 0.48029,2.08307 0.57916,2.53799c0.2023,0.93085 0.3996,1.87875 0.5,2.35333c0.19919,0.9415 0.50101,2.30389 0.59866,2.74268c0.19305,0.86746 0.3844,1.74103 0.51599,2.65198c0.13885,0.96133 0.20517,1.99844 0.22818,2.53601c0.04681,1.09427 0.05045,1.64398 0.05582,2.72665c0.00513,1.03467 0.00134,2 0.00134,2.91736c0,0.90131 0,1.35599 0,2.784c0,1.03467 0,1.57199 0,2.11731c0,1.09869 0,1.64401 0,3.216c0,0.96133 0,1.41452 0,2.27084c0,0.79633 0,2.241 0,2.90533c0,0.9465 0,1.55585 0,2.75717c0,0.89999 0,1.5 0,2.69998c0,0.90002 0.00299,1.5 0,2.70001c-0.00226,0.89551 0.03571,1.48544 -0.08533,2.31467c-0.1828,1.25244 -0.54718,1.93433 -0.74802,3.01868c-0.11655,0.6293 -0.11932,1.31918 -0.21933,2.36133c-0.09348,0.97418 -0.31839,1.79013 -0.522,2.51999c-0.33441,1.19876 -0.39127,2.02216 -0.45065,2.59601c-0.12326,1.19135 -0.31717,2.08914 -0.49551,2.66849c-0.25931,0.84232 -0.68689,1.83493 -0.97916,2.54169c-0.30817,0.74518 -0.60861,1.61948 -0.89999,2.6405c-0.20612,0.72229 -0.38785,1.4595 -0.70001,2.517c-0.28879,0.97836 -0.47562,1.58432 -0.89999,2.655c-0.28384,0.71613 -0.60468,1.3537 -1.10001,2.367c-0.30286,0.61957 -0.63028,1.30371 -0.99982,2.44232c-0.21329,0.6572 -0.48151,1.70306 -0.61484,2.38934c-0.23157,1.19183 -0.20947,1.94135 -0.452,2.96799c-0.14572,0.61682 -0.55685,1.44958 -0.93317,2.42117c-0.30505,0.78766 -0.56909,1.56232 -0.77884,2.43582c-0.19894,0.82843 -0.68277,1.61163 -1.06866,2.44299c-0.40475,0.87204 -0.85367,1.50034 -1.45267,2.10001c-0.69962,0.70041 -1.30002,1.30002 -1.89999,1.89999l-0.70001,0.70001l-0.60001,0.60001" id="svg_27" stroke-width="2" stroke="#000" fill="none"/>
  <path t="80023,80162,80177,80218,80218,80234,80234,80251,80267,80268,80284,80284,80284,80300,80300,80317,80333,80333,80350,80350,80351,80367,80367,80383,80384,80400,80400,80417,80418,80434,80434,80434,80450,80450,80467,80467,80484,80484,80484,80500,80501,80501,80517,80518,80518,80533,80533,80533,80550,80551,80551,80567,80568,80568,80568,80583,80583,80584,80584,80603,80603,80603,80620,80620,80636,80636,80650,80667,80668,80668,80668,80683,80684,80701,80701,80718,80718,80718,80736,80736,80736,80736,80752,80753,80753,80753,80769,80769,80769,80769,80784,80784,80784,80784,80784,80784,80801,80801,80801,80801,80801,80818,80818,80818,80818,80834,80834,80834,80834,80834,80853,80853,80853,80853,80869,80870,80870,80870,80884,80884,80884,80884,80884,80901,80901,80901,80918,80918,80919,80919,80934,80934,80952,80953,80968,80968,80983,81004,81004,81021,81021,81037,81037,81054,81054,81071,81071,81084,81084,81084,81103,81103,81103,81118,81118,81138,81138,81154,81154,81155,81171,81171,81187,81187,81187,81187,81201,81201,81201,81201,81221,81221,81236,81236,81236,81254,81255,81255,81255,81271,81271,81272,81272,81272,81288,81288,81288,81288,81304,81304,81305,81321,81321,81321,81322,81322,81337,81337,81337,81338,81355,81355,81355,81356,81370,81370,81370,81370,81384,81384,81384,81384,81384,81404,81404,81404,81404,81405,81421,81421,81422,81422,81422,81438,81438,81438,81438,81453,81453,81453,81453,81453,81471,81471,81472,81472,81472,81472,81487,81488,81488,81488,81488,81488,81488,81504,81505,81505,81505,81505,81521,81521,81521,81522,81537,81537,81538,81538,81551,81551,81551,81551,81572,81572,81573,81573,81573,81573,81584,81584,81584,81604,81604,81604,81605,81621,81621,81621,81634,81634,81634,81634,81654,81654,81655,81655,81671,81671,81671,81672,81684,81684,81684,81684,81685,81704,81704,81704,81721,81721,81721,81722,81737,81738,81738,81754,81755,81755,81755,81770,81770,81770,81787,81787,81789,81789,81804,81805,81805,81805,81822,81822,81822,81837,81838,81838,81838,81854,81855,81855,81855,81871,81872,81872,81872,81887,81888,81888,81888,81903,81903,81903,81921,81921,81922,81922,81934,81934,81934,81934,81934,81953,81953,81953,81971,81971,81984,82004,82004,82021,82034,82034,82054,82054,82071,82071,82072,82087,82088,82104,82105,82135,82147,82147,82171,82195,82215,82247,82275,82307,82308,82321,82334,82354,82355,82368,82387,82387,82405,82406,82418,82439,82501" d="m395,325c-0.02533,-0.42532 0.56595,-0.91422 1.3045,-1.35718c0.62708,-0.3761 1.5369,-1.01633 2.21149,-1.44281c0.7457,-0.47144 1.48401,-1.20001 2.00485,-1.72086c0.64581,-0.64581 1.3045,-1.3045 1.82648,-1.82648c0.76733,-0.76733 1.34818,-1.34818 1.95267,-1.95267c0.70001,-0.70001 1.31448,-1.33093 2.02151,-1.80017c0.67999,-0.45129 1.31348,-0.74344 2.27399,-1.55252c0.59027,-0.49722 1.23782,-1.18069 1.88367,-1.82648c0.62097,-0.62088 1.13455,-1.15363 2.00616,-1.72217c0.70825,-0.46198 1.52908,-0.94821 2.11017,-1.45135c0.58347,-0.50522 1.383,-1.32581 1.88367,-1.82648c0.72217,-0.72217 1.27802,-1.27802 2.00616,-2.00616c0.53552,-0.53552 1.10974,-1.12231 1.91467,-1.91336c0.59543,-0.58517 0.96664,-0.98932 2,-1.71732c0.58237,-0.41028 1.23163,-0.72876 2.20001,-1.54117c0.41415,-0.34744 1.00641,-0.93781 1.79999,-1.74417c0.60492,-0.61469 1.21387,-1.27292 1.80017,-2.02017c0.41428,-0.52798 1.02524,-1.39737 1.48517,-1.97983c0.71967,-0.91144 1.25705,-1.49976 1.81467,-2.05701c0.5376,-0.53723 1.31531,-1.23373 2.03833,-1.72733c0.78152,-0.53351 1.73242,-0.90469 2.17502,-1.69968c0.39023,-0.7009 0.30569,-1.65988 0.72266,-2.5c0.49039,-0.98807 0.86771,-1.62305 1.164,-2.39999c0.20251,-0.53101 0.7254,-1.74588 0.96399,-2.40399c0.36081,-0.99521 0.33011,-1.8595 0.76935,-2.81067c0.29956,-0.64871 0.90741,-1.22009 1.66666,-2.16666c0.40933,-0.51031 0.81842,-1.05148 1.34283,-1.93784c0.51993,-0.87875 0.78934,-1.48862 1.13632,-2.39551c0.22794,-0.5957 0.612,-1.80356 0.82983,-2.409c0.34842,-0.96838 0.64297,-1.67099 1.23367,-2.83383c0.21848,-0.43008 0.71002,-1.31741 0.95734,-1.77802c0.49872,-0.92883 0.77798,-1.37628 1.35699,-2.75766c0.35745,-0.85281 0.60577,-1.69937 0.72168,-2.11084c0.22733,-0.80695 0.51587,-2.01212 0.72583,-2.81067c0.21072,-0.80148 0.42316,-1.61046 0.86215,-2.79999c0.29755,-0.80624 0.65747,-1.58989 1.008,-2.364c0.34015,-0.75121 0.81903,-1.8089 1.06369,-2.48334c0.23486,-0.64746 0.50879,-1.63184 0.64032,-2.67416c0.0925,-0.73305 0.11038,-1.50014 0.17401,-2.283c0.09726,-1.19698 0.21945,-1.99678 0.38333,-2.78484c0.16168,-0.77747 0.35376,-1.52864 0.664,-2.58916c0.28925,-0.98871 0.49921,-1.6111 0.89999,-2.8215c0.19827,-0.5988 0.51163,-1.47069 0.71466,-2.31467c0.23853,-0.99152 0.28,-1.87462 0.28534,-2.68533c0.00644,-0.97916 0,-1.83333 0,-2.6955c0,-0.94051 -0.10638,-1.80229 0.05716,-2.65184c0.17987,-0.93439 0.7265,-1.60815 0.85751,-2.42067c0.15665,-0.9716 0.08478,-1.89867 0.08533,-2.71117c0.00067,-1.00749 -0.00583,-1.77443 0.16666,-2.6875c0.14993,-0.79367 0.45404,-1.59781 0.66669,-2.66666c0.14008,-0.7041 0.1644,-1.56216 0.16666,-2.56667c0.0018,-0.8 0,-1.8 0,-2.60001c0,-1 -0.00177,-1.8 0,-2.60001c0.00226,-1.00899 0.03455,-1.91766 0.16666,-2.73332c0.15894,-0.98128 0.34381,-1.68547 0.48068,-2.4185c0.20145,-1.07874 0.30658,-2.08595 0.33182,-2.7065c0.03476,-0.85452 0.02084,-2.089 0.02084,-2.767c0,-0.94135 0,-1.73184 0,-2.58534c0,-1.18933 0,-2.09833 0,-2.731c0,-0.67267 0,-1.79166 0,-2.62633c0,-0.88266 -0.00006,-1.78134 0,-2.664c0.00009,-1.22501 -0.01041,-1.95419 0.02084,-2.62633c0.0437,-0.9402 0.26239,-2.14319 0.40448,-2.75233c0.22083,-0.94678 0.42114,-1.95462 0.49066,-2.67467c0.07236,-0.74948 0.09354,-1.52666 0.16803,-2.31601c0.11334,-1.20099 0.26678,-1.99451 0.41599,-2.77783c0.14551,-0.76401 0.38544,-2.19865 0.44733,-2.86366c0.05917,-0.63577 0.10245,-1.56201 0.33667,-2.76117c0.12338,-0.63176 0.31433,-1.29991 0.43201,-2.052c0.2038,-1.3024 0.23264,-2.30643 0.25867,-2.83066c0.05331,-1.07321 0.04785,-1.61499 0.19199,-3.18001c0.04526,-0.49129 0.18256,-1.41957 0.33334,-2.29166c0.14407,-0.83325 0.34924,-2.04021 0.41467,-2.84167c0.06522,-0.79886 0.07886,-1.59996 0.08398,-2.39999c0.00766,-1.19997 0.00134,-2 0.00134,-2.8c0,-0.8 0,-2 0,-2.80133c0,-0.80934 0,-1.63467 0,-2.48401c0,-0.88133 0,-1.80266 0,-2.77199c0,-0.50517 0,-1.56151 0,-2.11467c0,-1.16133 0,-2.39467 0,-3.02884c0,-0.63916 0,-1.91249 0,-2.53667c0,-0.60916 0,-2.298 0,-2.8065c0,-0.948 0,-1.82399 0,-2.65199c0,-1.20383 0,-1.9995 0,-2.78316c0,-0.76367 0,-1.85417 0,-2.53683c0,-0.984 0,-1.63667 0,-3.00567c0,-0.74 0,-1.52 0,-2.34c0,-1.305 0,-1.75951 0,-2.6865c0,-0.931 0,-1.842 0,-2.2825c0,-1.59867 0,-2.29733 0,-2.948c0,-1.22134 0,-2.12134 0,-2.72134c0,-0.9 0,-2.10133 0,-2.71067c0,-0.9465 0,-1.95599 0,-2.67333c0,-0.74133 0,-1.86333 0,-2.94933c0,-0.68133 -0.00003,-1.64583 0,-2.26216c0.00009,-1.20483 0.00043,-2.12632 0.03601,-2.7765c0.0383,-0.69936 0.18008,-1.87148 0.31665,-2.73333c0.14191,-0.89555 0.23383,-1.34219 0.36334,-2.22667c0.17902,-1.22271 0.24649,-2.29706 0.30933,-2.94666c0.11841,-1.22377 0.25867,-1.82133 0.47467,-2.72134c0.216,-0.9 0.38858,-1.799 0.47467,-2.7c0.05728,-0.59941 0.17538,-1.8036 0.37799,-2.7c0.1362,-0.60262 0.40488,-1.49382 0.56332,-2.70133c0.07965,-0.60695 0.11163,-1.55898 0.25067,-2.56533c0.09949,-0.72003 0.26663,-1.45713 0.40802,-2.208c0.27414,-1.45584 0.35364,-2.13911 0.38931,-2.78934c0.05106,-0.93063 0.03601,-2.136 0.03601,-2.736c0,-0.9 -0.00583,-2.10004 0.00134,-2.7c0.01077,-0.90015 0.04279,-1.80722 0.22034,-2.70017c0.18292,-0.91987 0.41101,-1.54117 0.66498,-2.18517c0.41217,-1.04515 0.76602,-1.76733 1.11334,-2.51467c0.34732,-0.74733 0.84839,-1.82735 1.24283,-2.84283c0.24576,-0.63275 0.55624,-1.5557 0.85718,-2.45716c0.30038,-0.89987 0.50079,-1.49974 0.89999,-2.7c0.20041,-0.60254 0.50912,-1.53902 0.70001,-2.21433c0.31512,-1.11483 0.50052,-1.95221 0.69998,-2.82567c0.10028,-0.43911 0.26703,-1.30652 0.60001,-2.46c0.26907,-0.93204 0.68097,-1.59786 0.91467,-2.616c0.17285,-0.75299 0.06134,-1.70962 0.08533,-2.71733c0.01801,-0.75665 0.56525,-1.4964 0.91599,-2.36934c0.29309,-0.72949 0.34085,-1.57513 0.60486,-2.29733c0.43304,-1.18456 0.95392,-1.81147 1.19382,-2.468c0.3645,-0.99763 0.23953,-1.78223 0.28549,-2.88883c0.03232,-0.77842 0.91611,-1.29747 0.99985,-2.14317c0.07883,-0.79611 0,-1.7 0,-2.6c0,-0.9 -0.09546,-1.84454 0.284,-2.6c0.43558,-0.86721 0.76868,-1.5 1.216,-2.3c0.44733,-0.8 0.76868,-1.71474 1.30133,-2.3c0.57062,-0.62696 1.12003,-1.51635 1.17783,-2.2c0.08246,-0.97525 0.10617,-1.79867 0.59552,-2.6l0.38931,-0.8l0.03601,-0.9" id="svg_28" stroke-width="2" stroke="#000" fill="none"/>
  <path t="84599,84777,84793,84820,84834,84834,84834,84851,84851,84868,84868,84868,84884,84884,84884,84884,84901,84901,84901,84918,84918,84934,84934,84934,84951,84951,84951,84968,84968,84968,84984,84985,84985,85001,85001,85001,85018,85018,85034,85258,85258,85312,85328,85353,85386,85386,85420,85420,85420,85420,85453,85453,85453,85453,85453,85486,85486,85486,85486,85517,85517,85517,85517,85534,85534,85534,85534,85550,85551,85551,85566,85583,85583,85600,85601,85601,85617,85617,85617,85617,85633,85634,85650,85651,85651,85651,85666,85666,85667,85667,85683,85684,85684,85700,85701,85716,85717,85717,86475,86862,86878,86878,86917,86934,86934,86951,86951,86967,86967,86967,86983,86984,87000,87000,87016,87017,87033,87033,87051,87067,87083,87084,87100,87101,87101,87116,87133,87150,87151,87166,87183,87200,87216,87233,87251,87251,87267,87367,87367,87402,87418,87418,87435,87435,87452,87452,87452,87466,87467,87483,87484,87484,87501,87501,87501,87517,87517,87517,87517,87534,87534,87534,87550,87551,87566,87583,87584,87584,87601,87601,87601,87617,87634,87795,87811,87811,87835,87852,87852,87867,87867,87867,87884,87884,87884,87901,87901,87901,87917,87917,87917,87917,87934,87934,87951,87951,87951,87967,87967,87984,87984,87984,88001,88001,88017,88017,88034,88034,88051,88051,88051,88067,88067,88084,88101,88101,88117,88117,88134,88134,88151,88167,88184,88201,88220,88234,88268,88296,88312,88312,88320,88356,88372,88372,88408,88499,88552,88788,88804,88824,88851,88867,88884,88884,88902,88902,88902,88917,88917,88934,88934,88935,88951,88951,88951,88952,88967,88967,88967,88984,88984,88984,89001,89001,89001,89017,89017,89017,89034,89034,89034,89051,89051,89067,89067,89084,89084,89084,89084,89101,89101,89101,89101,89117,89117,89117,89134,89134,89151,89151,89151,89167,89167,89167,89167,89184,89184,89184,89201,89201,89201,89201,89202,89217,89217,89217,89234,89234,89235,89251,89252,89252,89252,89267,89267,89267,89284,89284,89285,89302,89302,89302,89302,89319,89319,89319,89334,89335,89352,89352,89368,89368,89384,89384,89385,89402,89402,89402,89403,89417,89417,89418,89434,89434,89436,89452,89452,89467,89468,89468,89484,89485,89501,89517,89534,89535,89564,89564,89758" d="m374,371c0.05716,1.70001 0.60736,2.44907 0.94733,3.3045c0.32855,0.82672 0.59073,1.70358 0.76868,2.29681c0.29581,0.98608 0.30338,1.86224 0.50534,2.82034c0.17529,0.83157 0.4054,1.41586 0.612,2.745c0.11072,0.71219 0.12823,1.44904 0.19199,2.172c0.11728,1.33035 0.33453,2.14474 0.54935,2.84003c0.31458,1.01813 0.34613,1.8378 0.59198,2.82132c0.20471,0.81891 0.54214,1.39789 1.03336,2.40134c0.30264,0.61823 0.61795,1.27701 1,2.284c0.31491,0.83002 0.6033,1.7149 0.89981,2.6145c0.29282,0.88843 0.52188,1.45126 0.73352,2.53351c0.18036,0.92233 0.13318,1.76602 0.17114,2.76215c0.02853,0.74866 0.51965,1.56342 0.87402,2.50452c0.25027,0.66467 0.13168,1.60007 0.12149,2.5c-0.01044,0.92102 -0.26566,1.89679 -0.54166,2.44165c-0.58157,1.14804 -0.9505,1.64014 -1.28369,2.20502c-0.53519,0.90732 -1.02576,1.91327 -1.28931,2.63733c-0.26755,0.73495 -0.47433,1.49075 -0.68402,2.23199c-0.30066,1.06284 -0.60284,2.05551 -0.76532,2.70935c-0.16293,0.65573 -0.36304,2.0593 -0.39999,2.81064c-0.03809,0.77417 -0.03534,1.56534 -0.03601,2.76367c-0.00046,0.79135 0,1.55869 0,2.28601c0,1.27118 0,2.03168 0,2.82632c0,0.98801 0,1.97467 0,2.73468c0,0.91998 0,1.71048 0,2.564c0,1.18933 -0.0228,1.78885 0.02084,2.66849c0.04153,0.83698 0.24249,1.84503 0.58981,2.74619c0.36633,0.9505 0.68652,1.73468 0.91019,2.2955c0.353,0.88516 0.79419,1.78265 1.13184,2.37915c0.51251,0.90543 0.90952,1.47806 1.46066,2.69867c0.26236,0.58109 0.56229,1.43622 0.7655,2.47968c0.13062,0.67075 0.4147,1.79697 0.97183,2.28568c0.54568,0.47867 1.30142,1.90375 1.98267,1.46933c0.71655,-0.45694 0.16483,-1.63333 0.16666,-2.46933c0.00226,-1.02118 -0.0043,-1.78455 0.284,-2.76401c0.24036,-0.81656 0.59698,-1.59366 0.67999,-2.39999c0.082,-0.79657 -0.02231,-1.80664 0.09317,-2.60001c0.14752,-1.01346 0.57953,-1.74402 0.85883,-2.716c0.21713,-0.75558 0.55539,-1.69171 0.80002,-2.39999c0.32596,-0.94376 0.2706,-1.89478 0.28415,-2.80551c0.01041,-0.69955 0.1412,-1.68726 0.42517,-2.46783c0.26715,-0.73434 0.5719,-1.81354 0.92734,-2.51517c0.44611,-0.88055 0.41766,-1.79004 0.93134,-2.52615c0.48264,-0.69165 0.716,-1.46933 0.716,-2.36935c0,-0.89999 -0.16815,-1.83643 0.08533,-2.59998c0.25635,-0.77219 0.85242,-1.55002 1.08133,-1.36667c0.68301,0.54709 1.13956,1.21899 1.48068,1.92383c0.41391,0.85522 0.35944,1.70172 0.922,2.64282c0.38528,0.64453 1.00436,1.16098 1.54401,2c0.4939,0.76791 0.77499,1.79874 0.86133,2.41068c0.12317,0.87283 0.31537,1.87451 0.52533,2.73099c0.15173,0.61893 0.36108,1.62256 0.44284,2.70651c0.05502,0.72983 0.04636,1.44202 0.05731,2.70883c0.00668,0.77103 0.03751,1.65366 0.28384,2.44168c0.24426,0.78137 0.67331,1.71472 0.716,2.76797c0.02756,0.67947 0,1.52002 0,2.51602c0,0.79648 -0.16061,1.56137 0.01068,2.64532c0.14264,0.90265 0.46051,2.18982 1.21082,2.32901c0.72754,0.13498 1.29175,-1.14404 1.97983,-1.85968c0.44336,-0.46112 1.12268,-1.33807 1.62402,-2.048c0.3512,-0.49731 1.00174,-1.42099 1.54932,-2.09866c0.50363,-0.62329 1.11948,-1.41458 1.45068,-1.92267c0.53867,-0.82635 1.02786,-1.71918 1.41748,-2.6235c0.24915,-0.57828 0.53473,-1.42789 0.95718,-2.41916c0.28583,-0.67072 0.79996,-1.68533 1.09998,-2.28534c0.39999,-0.79999 0.92807,-1.78711 1.17917,-2.39999c0.40219,-0.98169 0.44513,-1.8085 0.60486,-2.60001c0.20483,-1.01498 0.6308,-1.78351 0.79449,-2.59982c0.1908,-0.95157 0.0705,-1.92374 0.17865,-2.61002c0.15347,-0.97394 0.47003,-1.70413 0.65884,-2.50748c0.23239,-0.98868 0.27866,-1.83597 0.284,-2.79733c0.00546,-0.98569 0,-1.69968 0,-2.65335c0,-0.73199 0,-1.89865 0,-2.69034c0,-0.94165 0,-1.84164 0,-2.74167c0,-0.89999 0.32181,-1.9379 -0.16666,-2.63333c-0.50232,-0.71518 -0.83334,-1.26666 -0.83334,-2.16666c0,-0.79999 -0.28796,-1.48846 -0.87866,-2.2215c-0.52084,-0.64633 -0.92151,-1.43112 -1.10049,-2.2785c-0.18604,-0.8808 -0.03152,-1.88934 -0.52084,-2.5c-0.48932,-0.61066 -0.5,-1.5 -0.5,-2.39999c0,-0.90451 0,-1.76666 0,-2.62085c0,-0.97916 0,-1.77914 0,-2.57916c0,-1 0,-1.79999 0,-2.80399c0,-0.65851 0,-1.452 0,-2.46002c0,-0.79398 0,-1.63599 0,-2.478c0,-1.15799 -0.06439,-2.09277 0.05716,-3.04449c0.10516,-0.82336 0.48203,-1.62286 0.65884,-2.29883c0.25806,-0.9866 0.25308,-1.83902 0.36801,-2.716c0.15775,-1.20361 0.35617,-1.78427 0.56332,-2.64151c0.24927,-1.03146 0.31342,-1.9429 0.43668,-2.55582c0.20441,-1.01642 0.62988,-1.7858 0.83197,-2.80267c0.16409,-0.82565 0.24432,-1.76682 0.43668,-2.56033c0.21494,-0.88675 0.39539,-1.52048 0.526,-2.55951c0.09109,-0.72452 0.1188,-1.8204 0.20535,-2.50949c0.15146,-1.20575 0.44827,-1.91766 0.63199,-2.56665c0.28149,-0.99432 0.30194,-1.86655 0.50534,-2.82419c0.17444,-0.82132 0.46143,-1.67636 0.612,-2.57849c0.14935,-0.89481 0.17145,-1.80234 0.25067,-2.39999c0.16003,-1.20752 0.34802,-1.8118 0.62048,-2.75717c0.29129,-1.01071 0.50262,-1.7247 0.68484,-2.46817c0.18317,-0.74728 0.371,-1.48489 0.52533,-2.888c0.07016,-0.63803 0.06046,-1.5253 0.08566,-2.56549c0.02286,-0.94266 0.13852,-1.70108 0.44232,-2.564c0.23807,-0.67621 0.73288,-1.73294 0.98935,-2.47452c0.3627,-1.04877 0.45609,-1.72128 0.58267,-2.63599c0.14951,-1.08035 0.33087,-1.79846 0.59598,-2.47202c0.37308,-0.94788 0.70844,-1.72476 0.95334,-2.58533c0.16687,-0.5863 0.34976,-1.78821 0.436,-2.66849c0.08188,-0.83572 0.27362,-1.83774 0.5,-2.47919c0.36218,-1.02631 0.50327,-1.81247 0.85718,-2.69882c0.3056,-0.76535 0.78995,-1.52341 1.12198,-2.38449c0.27563,-0.71481 0.4118,-1.60007 0.49551,-2.61969c0.05939,-0.72333 0.06833,-1.4621 0.24667,-2.517c0.16605,-0.98215 0.46762,-1.85159 0.65732,-2.90015c0.12323,-0.68115 0.13922,-1.54062 0.47852,-2.52151c0.21292,-0.61557 0.77036,-1.58743 1.12198,-2.39999c0.25598,-0.59155 0.49094,-1.59424 0.5195,-2.51468c0.02991,-0.96402 -0.10977,-1.82965 0.28534,-2.68665c0.33875,-0.73468 0.67999,-1.62402 0.71466,-2.31467l-0.03467,-1.03735" id="svg_29" stroke-width="2" stroke="#000" fill="none"/>
 </g>
 <g display="none">
  <title>muse_image</title>
  <image xlink:href="http://farm3.static.flickr.com/2150/1808308470_0820fc24c2.jpg" id="muse" height="480" width="336" y="0" x="152"/>
 </g>
 <g display="none">
  <title>bbox</title>
  <rect stroke="#f00" fill="none" stroke-width="3" height="440.64" width="298.56" y="0" x="180.8" id="bbox"/>
 </g>
</svg>
