<svg width="640" height="480" xmlns="http://www.w3.org/2000/svg" xmlns:svg="http://www.w3.org/2000/svg" xmlns:xlink="http://www.w3.org/1999/xlink">
 <!-- Sketchy ANNOTATION
  ImageNet ID: n02395406_9891
  URL: http://farm1.static.flickr.com/125/374474373_164476f759.jpg
  Image Width: 500
  Image Height: 375
  BBox X: 1
  BBox Y: 2
  BBox Width: 458
  BBox Height: 370
  Exposure: 2000ms
  Synset Label: pig
  Synset ID: n02395406
  Worker Tag: wrapped white black young pig blanket
  Sanity Check: 
   Context
   Saved
   Shading
  Comment: 
   {}
  Worker ID: AXD2DZ7U6CK35
  Assignment ID: 3MB8LZR5BFTKM7QELIZ062JJKBQLK4
  HIT ID: 3B9XR6P1WEVBBU0QMI5S20SGTN9JBT
  Work Time: 131s
  Worker Score: 0.9286
 END ANNOTATION -->
 <g display="inline">
  <title>Layer 1</title>
  <path t="0,27,27,27,27,34,34,64,64,98,98,99,131,131,131,131,131,147,147,147,147,147,164,164,164,181,182,197,197,198,214,214,231,231,231,247,247,247,264,264,281,282,297,297,314,314,331,331,347,347,347,364,364,381,381,381,397,397,397,414,414,431,431,431,447,447,447,464,481,481,497,514,514,531,531,547,547,564,564,581,581,581,597,614,614,614,614,631,631,647,647,647,664,665,665,681,681,681,697,697,714,714,731,731,731,747,747,747,747,764,765,781,781,797,797,797,814,814,831,831,847,864,880,918,942,986,994,1078" d="m2,272c5.93533,-1.10001 6.73076,-1.27817 7.732,-1.60001c0.58287,-0.18738 1.79836,-0.71454 2.42133,-0.96399c0.95271,-0.38147 1.8206,-0.5025 2.61867,-0.72134c0.79547,-0.21814 1.39029,-0.43271 2.74967,-0.81467c0.73797,-0.20737 1.51918,-0.40335 2.34,-0.60001c0.42459,-0.10172 1.75952,-0.39914 2.682,-0.59998c0.91485,-0.19916 1.36377,-0.28088 2.20167,-0.5c1.40742,-0.36807 1.95592,-0.57971 2.85067,-1c0.81281,-0.38181 1.60054,-0.80701 2.604,-1.29984c0.59797,-0.2937 1.3892,-0.66772 2.4045,-0.8475c0.62655,-0.11093 1.82211,-0.25531 2.62083,-0.48868c0.55329,-0.16168 1.60685,-0.56677 2.3175,-0.8595c0.8513,-0.35065 1.85336,-0.65161 2.62117,-0.69382c0.95064,-0.05228 1.73721,-0.0524 2.672,-0.44669c0.78139,-0.32959 1.54298,-0.81274 2.364,-1.12799c0.97867,-0.37579 1.81382,-0.36765 2.8,-0.60266c0.60688,-0.14462 1.32292,-0.55344 2.396,-0.80801c0.64965,-0.15411 1.65672,-0.31213 2.62483,-0.52533c0.67791,-0.14929 1.64231,-0.36404 2.46484,-0.44284c0.90273,-0.08649 1.91836,-0.01767 2.75033,-0.09317c0.93595,-0.08493 1.71405,-0.3266 2.53867,-0.53867c1.05547,-0.27142 1.76243,-0.39276 2.56367,-0.42084c1.03571,-0.0363 1.983,-0.00449 2.83633,-0.00449c0.94,0 1.82533,0 2.5825,0c0.9,0 1.84477,-0.03058 2.84283,0.00449c0.80124,0.02814 1.59814,0.22223 2.4,0.49551c0.99774,0.34006 1.81139,0.37549 2.51466,0.58401c1.05975,0.31421 1.81193,1.09216 2.25467,1.39865c0.74057,0.51266 1.51898,1.02979 2.54533,1.34799c0.65034,0.20163 1.70372,0.28757 2.496,0.616c0.66434,0.27539 1.6161,0.86594 2.404,1.37869c0.52782,0.34351 1.45351,1.00607 2.124,1.53867c0.54524,0.43311 1.31336,0.94574 2.06583,1.336c0.98891,0.51291 1.59624,0.79849 2.5955,1.29999c0.60495,0.30359 1.46627,0.74191 2.42117,1.32132c0.5322,0.32294 1.32474,0.84314 1.8095,1.19467c0.97446,0.70667 1.6423,1.29788 2.4265,1.78851c0.54694,0.34219 1.54721,1.01166 2.14284,1.52084c0.60448,0.51675 1.36852,1.20801 2.17916,1.633c0.8262,0.43314 1.62954,0.52991 2.42084,0.96698c0.82051,0.45319 1.27769,1.14145 2.036,1.53867c0.76222,0.39926 1.528,0.47202 1.5685,1.33151l0.47466,0.66284" id="svg_1" stroke-width="2" stroke="#000" fill="none"/>
  <path t="2297,2312,2312,2312,2312,2332,2349,2349,2366,2366,2366,2382,2382,2382,2399,2399,2399,2416,2416,2416,2416,2432,2432,2432,2449,2449,2450,2466,2466,2466,2466,2482,2482,2482,2499,2499,2499,2499,2516,2516,2516,2530,2530,2530,2531,2547,2547,2564,2564,2564,2564,2580,2580,2580,2580,2597,2597,2597,2615,2615,2631,2631,2631,2647,2647,2647,2664,2664,2664,2680,2680,2697,2714,2714,2730,2731,2731,2747,2765,2765,2765,2780,2780,2797,2797,2814,2814,2838,2862,2863,2866,2880,2897,2914,2930,3107,3305" d="m10,304c10.98483,-4.39249 11.53485,-4.61456 12.42933,-4.82001c0.86027,-0.19757 1.93467,-0.17999 2.77333,-0.17999c0.768,0 1.8126,-0.01389 2.61867,0.03601c0.58231,0.03604 1.78396,0.2258 2.65783,0.48483c0.56839,0.16849 1.59833,0.58234 2.30617,0.87915c0.72316,0.30325 1.85607,0.70425 2.52,0.89999c0.69338,0.20444 1.73493,0.47562 2.65184,0.80002c0.78916,0.27921 1.48376,0.6181 2.46433,1c0.80881,0.315 1.68277,0.60068 2.5785,0.89999c0.89978,0.30066 1.49998,0.50006 2.4,0.79999c0.89997,0.2999 1.79484,0.60818 2.4,0.76401c1.19101,0.3067 2.09941,0.3905 2.7,0.41516c0.89945,0.03696 2.10158,0.0119 2.71067,0.03152c0.94715,0.03052 1.95818,0.1434 2.67067,0.27332c1.08064,0.19702 1.74372,0.40518 2.85467,0.59451c0.75965,0.12946 1.764,0.12149 2.631,0.12149c0.67467,0 1.38933,0 2.46633,0c1.0095,0 1.64583,0 2.56533,0c1.2,0 1.79066,0 2.64417,0c1.27184,0 1.93636,0.00671 2.95717,0c0.81072,-0.00534 1.69453,-0.04391 2.684,-0.28534c0.8251,-0.20132 1.3699,-0.40244 2.3945,-0.81448c0.90672,-0.36462 1.5048,-0.69745 2.517,-0.84302c0.91148,-0.13107 1.92382,-0.01105 2.72601,-0.27866c0.72161,-0.24075 1.67374,-0.7883 2.27399,-1.07401c0.91218,-0.43417 1.79786,-0.64307 2.73784,-0.87115c0.67879,-0.1647 1.45063,-0.3721 2.52383,-0.93317c0.64563,-0.33752 1.47253,-0.73651 2.3175,-0.92551c0.95178,-0.21286 1.52303,-0.67694 2.22533,-1.37466c0.7022,-0.69763 1.28947,-1.01743 2.07916,-1.60001c0.63799,-0.47067 1.22533,-1.05267 2,-1.52084l0.46817,-0.77466l0.48866,-0.66849l0.8595,-0.0405" id="svg_2" stroke-width="2" stroke="#000" fill="none"/>
  <path t="5126,5141,5166,5182,5182,5199,5199,5216,5216,5232,5232,5249,5250,5266,5266,5266,5282,5282,5297,5297,5297,5314,5314,5314,5330,5330,5330,5330,5347,5347,5347,5347,5347,5364,5364,5364,5364,5364,5380,5380,5380,5380,5397,5397,5397,5397,5397,5414,5414,5414,5430,5430,5447,5447,5447,5464,5464,5464,5464,5480,5480,5480,5497,5497,5497,5514,5514,5514,5530,5530,5530,5547,5547,5547,5564,5564,5580,5580,5597,5597,5614,5614,5630,5630,5647,5647,5647,5664,5664,5680,5680,5680,5697,5697,5697,5714,5714,5714,5730,5730,5747,5747,5747,5764,5764,5764,5780,5780,5780,5797,5797,5797,5814,5814,5814,5830,5830,5847,5847,5847,5847,5864,5864,5864,5864,5880,5880,5880,5897,5914,5914,5930,5930,5947,5947,5964,5964,5980,5997,5997,6014,6014,6030,6047,6066,6080,6080,6097,6114,6130,6130,6147,6164,6180,6197" d="m2,385c1.6,0.57468 2.43184,0.9068 3.32133,1.2215c0.69928,0.24741 1.54048,0.74374 2.15783,1.2785c0.7595,0.6579 1.39099,1.27277 2.178,1.44733c0.93137,0.2066 1.75451,0.31067 2.54283,0.66333c1.01625,0.45462 1.59961,0.79013 2.4,1.18933c0.80094,0.39948 1.61967,0.82867 2.56667,1.03336c0.7763,0.16779 1.61844,0.12845 2.66667,0.33331c0.7284,0.14236 1.41431,0.47336 2.5,0.66669c0.9723,0.17313 1.70911,0.15634 2.47567,0.21933c1.19242,0.09796 1.99277,0.22885 2.80167,0.37265c0.82579,0.14682 1.67231,0.31 2.556,0.40802c0.914,0.10138 1.84785,0.13696 2.772,0.15598c0.45145,0.00928 1.72804,0.00436 2.49333,0.01202c1.06813,0.01068 1.77596,0.03152 2.90133,0.16531c0.83567,0.09933 1.70669,0.25854 2.58,0.40802c0.42418,0.0726 1.92067,0.31961 2.51517,0.36816c0.95626,0.07809 1.97588,0.00269 2.7715,0.09317c1.01084,0.11496 1.60645,0.44336 2.57067,0.67999c0.86161,0.21146 1.53858,0.24319 2.61467,0.27332c0.73177,0.02048 1.793,0.01068 2.768,0.01068c0.6,0 1.68,0 2.62133,0c0.678,0 1.91067,0 2.46133,0c0.8685,0 2.06412,0.01416 2.95333,-0.01068c0.575,-0.01608 1.65318,-0.12497 2.57467,-0.41464c0.63858,-0.20074 1.63949,-0.46762 2.436,-0.60001c1.00508,-0.16705 1.75873,-0.53271 2.63334,-0.80801c0.77734,-0.24469 1.80798,-0.54767 2.514,-0.814c0.89162,-0.33633 1.63053,-0.40601 2.6625,-0.70984c0.78265,-0.23044 1.31983,-0.41486 2.533,-0.94281c0.65352,-0.28439 1.45245,-0.70972 2.26784,-1.10001c0.64288,-0.30771 1.60415,-0.7186 2.41467,-0.98935c0.81588,-0.27252 1.85322,-0.48892 2.75383,-0.61066c0.61954,-0.08374 1.62967,-0.33749 2.42084,-0.7045c0.8097,-0.37561 1.61446,-0.81003 2.28533,-1.09549c0.99106,-0.42169 1.83479,-0.70212 2.41917,-0.90002c1.19389,-0.4043 1.79487,-0.58899 2.6595,-0.89999c1.07432,-0.38641 1.78262,-0.69196 2.42533,-1c1.01682,-0.48737 1.81094,-0.89944 2.41067,-1.19998c1.00496,-0.5036 1.64601,-0.81882 2.56667,-1.36667c0.79948,-0.47574 1.35519,-0.85263 1.93784,-1.23785c0.89708,-0.59311 1.78937,-1.19348 2.37466,-1.57465c0.56211,-0.36609 1.59928,-0.99915 2.27417,-1.38486c0.76013,-0.43445 1.6284,-1.01773 2.24667,-1.63599c0.61826,-0.61826 1.09408,-1.32483 1.5,-2c0.59142,-0.9837 1.0973,-1.59198 1.7,-2.20001c0.59734,-0.60263 1.39733,-1.27206 1.67867,-2.12131c0.21682,-0.65445 0.39395,-1.62909 0.76866,-2.37418c0.44044,-0.87579 0.87445,-1.65076 1.23134,-2.40451c0.40437,-0.85406 0.76866,-1.60001 1.12133,-2.39999c0.35267,-0.79999 0.7774,-1.63806 1.084,-2.29999c0.40256,-0.86911 1.2115,-1.5 1.74934,-2.20001l0.33333,-0.83334" id="svg_3" stroke-width="2" stroke="#000" fill="none"/>
  <path t="7392,7407,7407,7407,7407,7407,7432,7432,7449,7449,7466,7466,7466,7480,7480,7497,7497,7514,7514,7514,7514,7530,7530,7547,7547,7564,7564,7564,7580,7580,7580,7597,7597,7614,7614,7614,7630,7630,7630,7647,7647,7647,7664,7664,7664,7680,7680,7680,7697,7697,7714,7714,7730,7751,7751,7767,7803,7818,7835,7842,7847,7864,7880,7880,7880,7897,7897,7897,7914,7914,7914,7930,7930,7930,7947,7947,7947,7947,7964,7964,7964,7964,7980,7980,7997,7997,8014,8014,8030,8030,8047,8047,8047,8064,8064,8080,8080,8080,8097,8097,8114,8114,8114,8115,8130,8130,8147,8147,8147,8164,8164,8164,8180,8180,8197,8197,8197,8214,8214,8231,8231,8247,8248" d="m39,304c4.83517,5.49933 5.16407,5.98251 5.67067,6.95734c0.23588,0.45392 0.64572,1.29861 0.996,2.37601c0.29967,0.92172 0.28067,1.83621 0.35416,2.6875c0.08515,0.9863 0.44692,1.76498 0.69517,2.57916c0.24041,0.78845 0.26616,1.6001 0.28417,2.60016c0.01478,0.8208 0.15417,1.96951 0.3525,2.7525c0.20906,0.82538 0.43801,1.35187 0.59017,2.59018c0.10418,0.8479 0.05717,1.65732 0.05717,2.478c0,1.14581 0,1.93182 0,2.75381c0,1.05869 0,1.76819 0,2.62085c0,1.00583 0,1.84048 0,2.77115c0,0.78601 0,1.608 0,2.66669c0,0.94131 0,1.61932 0,2.58817c0,0.81448 0,1.68298 0,2.87833c0,0.59567 0,1.46417 0,2.53351c0,0.93066 0,1.76532 0,2.56665c0,0.80002 0,1.99869 0,2.76401c0,0.95065 -0.0372,1.83685 0,2.63599c0.04271,0.91766 0.80133,1.19934 1.7,1.20001c0.9,0.00067 1.8,0.00223 2.7,0c0.90451,-0.00226 1.76004,-0.1846 2.64167,-0.5c0.64046,-0.22913 1.64346,-0.41812 2.47916,-0.5c0.88028,-0.08624 1.78683,-0.19131 2.6685,-0.436c0.86215,-0.23926 1.64698,-0.55704 2.58533,-0.96399c0.6802,-0.29498 1.64303,-0.71118 2.472,-1c0.59724,-0.2081 1.23755,-0.40863 2.636,-0.80002c0.73075,-0.2045 1.46026,-0.3858 2.148,-0.59998c1.2053,-0.37534 1.94244,-0.64096 2.80267,-1.20001c0.69874,-0.4541 1.33157,-1.00293 1.992,-1.39999c1.00534,-0.60446 1.51918,-1.06995 2.508,-1.60001c0.64861,-0.34769 1.44562,-0.53799 2.33333,-1c0.69861,-0.36359 1.49998,-1.16666 1.986,-1.65268c0.52199,-0.52197 1.34776,-1.30603 1.84734,-1.86816c0.69816,-0.78561 1.15221,-1.4848 1.5,-1.97916c0.51533,-0.73248 1.23451,-1.70203 1.75267,-2.24817c0.71535,-0.75397 1.26817,-1.27267 1.84866,-1.85315c0.79735,-0.79733 1.188,-1.18802 1.91333,-1.91336c0.73267,-0.73267 1.2445,-1.23154 1.96934,-1.97064c0.52071,-0.53094 1.06801,-1.09018 1.63067,-1.91336c0.50819,-0.74347 0.9855,-1.5798 1.52133,-2.19064l0.848,-0.60934l0.69067,-0.36533" id="svg_4" stroke-width="2" stroke="#000" fill="none"/>
  <path t="11220,11220,11220,11220,11220,11220,11220,11220,11220,11236,11236,11236,11236,11236,11236,11236,11256,11256,11263,11263,11280,11280,11297,11297,11297,11297,11297,11313,11313,11313,11313,11313,11330,11330,11330,11330,11330,11347,11347,11347,11347,11363,11363,11363,11363,11363,11380,11380,11380,11380,11397,11397,11397,11397,11413,11413,11413,11413,11430,11430,11430,11430,11430,11447,11447,11447,11447,11463,11463,11463,11463,11463,11463,11480,11480,11480,11480,11497,11497,11497,11497,11513,11513,11513,11513,11530,11530,11530,11530,11530,11530,11547,11547,11547,11547,11563,11563,11563,11563,11580,11580,11580,11580,11597,11597,11597,11597,11597,11613,11613,11613,11613,11630,11630,11630,11647,11647,11647,11647,11663,11663,11663,11663,11680,11680,11680,11680,11697,11697,11697,11713,11713,11713,11713,11730,11730,11730,11730,11747,11747,11747,11747,11763,11763,11763,11763,11763,11780,11780,11780,11780,11797,11797,11797,11813,11830,11830,11847,11863,11881,11903" d="m75,108c0,3.75633 0,4.61066 0,5.541c0,0.98433 0,2.00066 0,3.027c0,1.01434 0,1.99467 0,3.76534c0,0.75133 0,1.41067 0,1.986c0,0.49933 0,0.93066 0,1.30199c0,1.23584 0,1.99334 0,2.86267c0,0.86333 0,1.78133 0,2.49734c0,1.22583 0,2.09549 0,2.57733c0,1.02266 0.00027,1.5495 0,3.108c-0.00008,0.49033 0.00636,1.41927 -0.02084,2.29166c-0.02596,0.83305 -0.13346,2.04359 -0.26316,2.84033c-0.12906,0.79277 -0.30367,1.563 -0.43201,2.31601c-0.18087,1.0612 -0.2562,2.0704 -0.27333,2.74666c-0.01793,0.70784 -0.01067,1.8815 -0.01067,2.7485c0,0.911 0,1.842 0,2.3075c0,1.36101 0,2.22101 0,3.041c0,0.78 0.01044,1.87511 -0.0045,2.88901c-0.00962,0.6528 -0.01353,1.31059 -0.21684,2.67416c-0.11021,0.73914 -0.29102,1.4971 -0.42599,2.283c-0.2048,1.19241 -0.27931,1.99484 -0.31667,2.7955c-0.0373,0.79951 -0.03219,1.59999 -0.03617,2.80016c-0.00267,0.80434 -0.00394,1.62157 -0.057,2.457c-0.08328,1.31143 -0.15756,1.76514 -0.2955,2.69551c-0.1406,0.94835 -0.23628,1.41997 -0.36333,2.36333c-0.18313,1.35971 -0.2364,2.22197 -0.26316,3.04233c-0.02544,0.77975 -0.01462,1.87505 -0.02217,2.55634c-0.0107,0.96465 -0.00766,1.58839 -0.22,2.78584c-0.1665,0.93892 -0.37697,1.60342 -0.49467,2.3555c-0.2038,1.30223 -0.20457,1.79573 -0.25867,2.81999c-0.02767,0.52388 -0.06866,1.56668 -0.10933,2.07201c-0.11186,1.38997 -0.25075,2.19055 -0.52666,3.256c-0.17641,0.68118 -0.49665,1.71536 -0.68484,2.44867c-0.19129,0.74541 -0.39153,1.48807 -0.58317,2.92616c-0.08936,0.67056 -0.10217,1.3437 -0.20533,2.3905c-0.11586,1.17564 -0.1974,1.59909 -0.34133,2.48132c-0.14669,0.89912 -0.31755,1.77808 -0.45317,3.00635c-0.08028,0.72707 -0.10937,1.40118 -0.12016,2.34033c-0.01382,1.20259 0.02589,1.80542 -0.0585,2.70267c-0.11343,1.20602 -0.30466,1.80235 -0.5175,2.73599c-0.14771,0.64792 -0.31286,1.68456 -0.37267,2.41667c-0.09157,1.12097 -0.10135,1.86848 -0.274,2.92583c-0.10913,0.66835 -0.37263,1.60669 -0.49467,2.22017c-0.23785,1.19576 -0.2745,2.12302 -0.33666,2.7585c-0.09891,1.01109 -0.3,2.0955 -0.44733,2.84283c-0.14733,0.74733 -0.34489,1.83203 -0.416,2.51466c-0.10032,0.96295 -0.13317,1.89 -0.3055,2.78568c-0.17866,0.9286 -0.39507,1.57007 -0.57983,2.27032c-0.30855,1.16943 -0.4991,2.03458 -0.69867,2.92934c-0.10021,0.4493 -0.28636,1.33542 -0.59983,2.55701c-0.18753,0.73079 -0.48707,1.71654 -0.61483,2.34033c-0.24409,1.1918 -0.27189,2.06084 -0.284,2.832c-0.01501,0.95622 -0.32746,1.80733 -0.71733,2.57066c-0.38454,0.7529 -0.284,1.7 -0.284,2.59999l0,0.90001" id="svg_5" stroke-width="2" stroke="#000" fill="none"/>
  <path t="13081,13192,13208,13227,13227,13247,13263,13263,13263,13280,13280,13300,13300,13300,13315,13315,13330,13330,13330,13330,13349,13349,13349,13366,13366,13366,13366,13379,13380,13380,13396,13397,13397,13397,13412,13413,13430,13430,13430,13446,13446,13446,13462,13463,13463,13479,13479,13479,13496,13512,13512,13513,13530,13530,13530,13530,13547,13547,13547,13547,13547,13547,13563,13563,13563,13563,13580,13580,13580,13597,13597,13597,13613,13613,13613,13629,13630,13630,13630,13646,13647,13647,13662,13663,13679,13680,13680,13680,13697,13697,13697,13712,13713,13713,13730,13730,13747,13747,13762,13763,13779,13798,13813,13830,13846,13874,14009,14025,14063,14094,14106,14123,14147,14150,14182,14198,14211,14227,14243,14250,14314,14329" d="m74,107c0,-0.2 0,-1.1 0,-2c0,-0.8 0.0053,-1.6791 0.22134,-2.54266c0.17881,-0.71478 0.52409,-1.68274 0.726,-2.652c0.16016,-0.76881 0.34233,-1.57307 0.55267,-2.32617c0.22199,-0.79485 0.43565,-2.02795 0.52533,-2.7045c0.12508,-0.94363 0.32182,-1.73488 0.58533,-2.58533c0.1837,-0.59287 0.58933,-1.78933 0.88934,-2.68933c0.2,-0.6 0.6,-1.8 0.8,-2.4c0.3,-0.9 0.49999,-1.5 0.89999,-2.7c0.2,-0.6 0.49932,-1.50023 0.8,-2.4c0.29933,-0.89573 0.48558,-1.48448 0.8,-2.31467c0.38129,-1.00675 0.83847,-1.85443 1.07867,-2.8855c0.14021,-0.60189 0.16745,-1.49355 0.40666,-2.48517c0.20357,-0.84386 0.42037,-1.41877 0.8145,-2.6145c0.19627,-0.59547 0.51398,-1.45284 0.73351,-2.5335c0.14203,-0.69917 0.16599,-1.68 0.16666,-2.55199c0.00072,-0.94801 0,-1.88667 0,-2.436c0,-1.17867 0,-2.09217 0,-2.74117c0,-0.709 0,-1.9375 0,-2.8895c0,-0.506 0,-1.548 0,-2.072c0,-1.024 0,-2.4115 0,-3.2045c0,-0.709 0,-1.6675 0,-2.5715c0,-0.9 0,-1.8 0,-2.7c0,-0.8955 0,-1.764 0,-2.83333c0,-0.7185 0,-1.6765 0,-2.5c0,-0.972 0,-1.66667 0,-2.69867c0,-0.925 0.00193,-1.696 0,-2.56533c-0.00225,-1.01168 -0.03421,-1.9204 -0.16666,-2.736c-0.15864,-0.97684 -0.34304,-1.66468 -0.48067,-2.36134c-0.24876,-1.25915 -0.33112,-2.0435 -0.34817,-2.7535c-0.02966,-1.23549 -0.0045,-2.05183 -0.0045,-2.86783c0,-0.99733 0.05174,-1.8388 -0.00134,-2.8c-0.04259,-0.77141 -0.40891,-1.51464 -0.71467,-2.4c-0.32594,-0.94377 -0.0891,-1.80568 -0.28533,-2.68267c-0.18058,-0.80705 -0.98604,-1.32201 -0.99866,-2.20133c-0.01286,-0.89542 -0.67052,-1.40685 -0.97916,-2.12083c-0.34895,-0.80722 -0.00354,-1.79051 -0.52084,-2.47917c-0.46999,-0.62568 -0.62654,-1.38171 -1.14733,-2.05267c-0.45312,-0.58377 -0.35072,-1.56694 -0.778,-2.34733c-0.45037,-0.82257 -0.57484,-1.69983 -0.85734,-2.51333l-0.1965,0.43417" id="svg_6" stroke-width="2" stroke="#000" fill="none"/>
  <path t="15065,15081,15081,15081,15081,15081,15099,15099,15099,15115,15130,15130,15130,15130,15147,15147,15147,15147,15163,15163,15163,15163,15180,15180,15180,15180,15180,15197,15197,15197,15197,15197,15213,15213,15213,15213,15230,15230,15230,15247,15247,15247,15247,15247,15267,15267,15267,15280,15280,15299,15299,15299,15317,15317,15330,15330,15330,15350,15350,15350,15350,15363,15363,15363,15384,15384,15384,15399,15399,15416,15416,15416,15433,15433,15433,15447,15447,15447,15447,15466,15466,15480,15480,15480,15480,15500,15500,15500,15516,15580,15580" d="m112,4c10.5,7 11.82963,7.88622 12.3765,8.2525c0.47843,0.32044 1.2747,0.82115 2.29016,1.58083c0.52936,0.39602 1.10032,0.99799 1.87501,1.6875c0.76317,0.67926 1.47101,1.13874 2,1.5c0.56557,0.38624 1.75833,1.17917 2.35832,1.57917c0.60001,0.4 1.20036,0.79948 2.10001,1.4c0.90485,0.60398 1.52336,1.01716 2.15717,1.45717c1.0136,0.70366 1.72716,1.2264 2.0955,1.4955c0.74797,0.54645 1.49138,1.09921 2.58066,1.88067c0.34398,0.24677 1.32961,0.92883 1.92,1.392c0.56952,0.4468 1.33908,1.18417 1.78951,1.72733c0.66754,0.805 1.0249,1.38901 1.85983,2.36333c0.4041,0.47156 1.09987,1.15042 1.93066,1.85067c0.62463,0.52649 1.30644,1.04829 1.98001,1.572c0.63312,0.49227 1.43468,1.10434 1.98933,1.6c0.59221,0.52922 1.36703,1.30291 1.87199,1.872c0.68231,0.76897 1.20064,1.58322 1.52083,2.18933c0.52316,0.99036 0.80301,1.60075 1.3045,2.6c0.3036,0.60495 0.74646,1.46345 1.16667,2.16667c0.47403,0.79327 0.8427,1.32748 1.34933,2.14933c0.61137,0.99174 0.95718,1.68061 1.368,2.28267c0.56424,0.82689 1.14096,1.38074 1.632,2.00133c0.76709,0.96945 1.08102,1.59611 1.584,2.60017c0.30466,0.60818 0.71611,1.47887 1.09999,2.48517c0.20882,0.54738 0.5,1.41917 0.8,2.31467c0.3,0.8955 0.591,1.76736 0.8,2.31467c0.38486,1.00779 0.81874,1.92061 1.36667,2.852c0.30774,0.52309 0.83775,1.33055 1.18066,1.88066c0.63947,1.02587 1.01666,1.706 1.45132,2.466l0.50134,0.7295l0.7,0.75716l0.528,0.564" id="svg_7" stroke-width="2" stroke="#000" fill="none"/>
  <path t="16628,16628,16628,16628,16628,16665,16665,16665,16682,16682,16699,16699,16715,16715,16715,16730,16730,16747,16747,16747,16747,16763,16763,16780,16780,16797,16797,16797,16814,16814,16814,16830,16830,16847,16847,16847,16847,16863,16863,16863,16863,16880,16880,16880,16897,16897,16897,16913,16913,16913,16930,16930,16930,16930,16947,16947,16947,16947,16963,16963,16963,16963,16980,16980,16980,16980,16980,16997,16997,16997,17013,17013,17013,17013,17030,17030,17030,17030,17047,17047,17047,17047,17047,17063,17063,17063,17063,17082,17082,17082,17082,17100,17100,17101,17113,17113,17114,17133,17133,17133,17150,17150,17150,17151,17166,17167,17167,17167,17184,17200,17201,17795,17829,17829,17850,17865,17882,17898,17898,17898,17915,17915,17915,17930,17930,17930,17948,17948,17948,17948,17962,17963,17963,17982,17982,17982,17982,17998,17998,17998,17998,18015,18015,18015,18032,18032,18032,18048,18048,18048,18065,18065,18065,18065,18082,18082,18082,18082,18083,18083,18095,18096,18096,18096,18096,18096,18115,18115,18115,18115,18115,18132,18132,18132,18132,18132,18132,18145,18146,18146,18146,18146,18165,18165,18165,18165,18165,18182,18182,18182,18182,18198,18198,18198,18198,18198,18198,18198,18213,18213,18213,18213,18213,18232,18232,18232,18232,18233,18249,18249,18249,18249,18265,18265,18265,18265,18265,18282,18282,18282,18282,18282,18283,18298,18298,18298,18298,18299,18299,18315,18315,18316,18316,18332,18332,18332,18332,18348,18348,18348,18348,18367,18367,18367,18367,18367,18383,18383,18383,18383,18384,18398,18398,18398,18399,18415,18415,18416,18432,18433,18433,18433,18433,18446,18446,18446,18465,18465,18465,18480,18480,18480,18498,18498,18499,18515,18515,18515,18532,18532,18533,18548,18548,18549,18565,18565,18565,18580,18580,18580,18580,18598,18598,18598,18615,18615,18616,18632,18632,18633,18648,18648,18649,18649,18649,18665,18665,18665,18665,18666,18682,18682,18683,18683,18698,18699,18699,18699,18715,18715,18715,18716,18732,18732,18733,18733,18748,18748,18748,18749,18765,18765,18765,18781,18781,18781,18781,18781,18798,18798,18799,18799,18816,18816,18816,18833,18833,18833,18833,18848,18848,18849,18849,18865,18865,18865,18880,18880,18880,18880,18898,18899,18899,18915,18915,18932,18932,18933,18948,18948,18965,18966,18966,18983,18983,18983,18983,18998,18999,18999,18999,19015,19016,19016,19034,19034,19034,19034,19048,19049,19049,19049,19066,19066,19066,19080,19080,19080,19096,19096,19096,19114,19114,19114,19133,19133,19133,19149,19149,19149,19149,19166,19166,19166,19183,19183,19183,19184,19184,19184,19199,19199,19199,19200,19213,19213,19230,19249,19249,19263,19290,19298" d="m100,86c1.42267,-1.19867 2.14542,-1.4016 2.94534,-1.564c0.80292,-0.16301 1.88795,-0.34073 2.74667,-0.39999c0.90252,-0.06229 1.91461,0.02219 2.708,-0.09317c1.01473,-0.14755 1.78408,-0.57322 2.6,-0.77617c0.78837,-0.1961 1.61504,-0.20018 2.609,-0.52383c0.67493,-0.21977 1.72108,-0.65353 2.35767,-0.8415c1.00762,-0.29752 1.66589,-0.4685 2.769,-0.68c0.86488,-0.16582 1.7382,-0.43575 2.47501,-0.696c0.976,-0.34473 1.80996,-0.4138 2.47466,-0.424c0.99855,-0.01532 1.81467,-0.00134 2.63067,-0.00134c1.23583,0 1.94534,0.00112 3.01733,0c0.636,-0.00067 1.68867,-0.00212 2.4185,-0.05717c1.08395,-0.08176 1.7644,-0.21992 2.72734,-0.44283c0.61737,-0.14291 1.81853,-0.40475 2.71016,-0.464c0.8522,-0.05663 1.89006,-0.01292 2.58534,-0.04667c0.91132,-0.04424 1.91135,-0.2759 2.472,-0.41467c0.91397,-0.2262 1.9185,-0.42223 2.63733,-0.49067c1.11412,-0.10608 1.86768,-0.10092 2.94933,-0.25066c0.68483,-0.0948 1.64268,-0.34726 2.26218,-0.48067c1.19933,-0.25826 1.81282,-0.31231 2.77649,-0.342c0.69839,-0.02152 1.87071,-0.00513 2.73334,-0.01517c0.89476,-0.01041 1.34569,-0.00737 2.22667,-0.08083c1.22827,-0.10243 2.29477,-0.3455 2.94667,-0.48933c1.2191,-0.26898 1.82001,-0.36246 2.72133,-0.4045c0.89923,-0.04194 1.80051,-0.02084 2.73199,-0.02084c0.67601,0 1.42401,0.00148 2.73201,-0.00017c0.48799,-0.00062 1.51224,-0.00177 2.56,-0.03584c0.51816,-0.01685 1.9791,-0.11018 2.81999,-0.24799c0.75122,-0.12312 1.41548,-0.33532 2.65601,-0.54934c0.59668,-0.10294 1.49985,-0.15491 2.39999,-0.16533c0.89995,-0.01041 1.8,-0.00134 2.70001,-0.00134c0.89999,0 1.79762,0.03252 2.664,-0.036c1.07391,-0.08493 1.78084,-0.34036 2.49733,-0.53867c1.06281,-0.29415 1.70694,-0.36047 2.75949,-0.4045c0.73055,-0.03056 1.8125,-0.02084 2.813,-0.02084c0.60367,0 1.39417,0 2.50484,0c0.98267,0 1.836,0 2.776,0c0.88533,0 1.68552,0.01799 2.58533,0c0.90054,-0.01801 1.67705,-0.544 2.63333,-0.83334c0.65663,-0.19868 1.46245,-0.129 2.5,-0.33333c0.72392,-0.14257 1.60747,-0.53774 2.58817,-0.71201c0.8075,-0.14349 1.68808,-0.13953 2.57851,-0.28799c0.90649,-0.15115 1.49284,-0.36572 2.39999,-0.54934c1.19345,-0.24157 1.81032,-0.26163 2.75717,-0.2795c1.00934,-0.01904 1.72684,-0.0045 2.84283,-0.0045c0.74733,0 1.83333,0 2.51466,0c0.96451,0 1.58084,0 2.78517,0c0.8895,0 1.743,0 2.77882,0c0.69601,0 1.60535,0 2.60667,0c0.83549,0 1.41917,0 2.61533,0c0.942,0 1.64334,0 2.44067,0c0.92534,0 1.99602,-0.001 2.57384,0.0045c1.20572,0.01147 1.81985,0.023 2.43134,0.05267c1.75485,0.08513 2.29065,0.15226 3.282,0.2955c0.46434,0.06709 1.33717,0.23637 2.1675,0.36333c1.20132,0.18369 2.01369,0.22794 2.84567,0.30483c0.87347,0.08072 1.3367,0.10989 2.80099,0.422c0.52847,0.11264 1.60889,0.41547 2.15733,0.578c1.09648,0.32494 1.62904,0.5064 3.15701,0.95766c0.47144,0.13923 1.37003,0.38916 2.22165,0.61083c0.81775,0.21286 2.02133,0.51067 2.82135,0.71067c0.79999,0.2 1.59998,0.39998 2,0.5c1.20032,0.30013 2.01013,0.50022 2.84164,0.72083c0.87387,0.23185 2.29224,0.644 2.80103,0.80067c0.52591,0.16194 1.60913,0.51105 2.15732,0.69933c1.09705,0.37679 1.63702,0.56767 2.66666,0.97916c0.96756,0.38668 1.86102,0.79012 2.29169,0.97916c0.83197,0.3652 2.03671,0.86864 2.84164,1.13551c0.79538,0.26371 1.599,0.47856 2.40002,0.684c1.19833,0.30733 1.9989,0.4938 2.77914,0.72217c0.76721,0.22456 1.86111,0.63135 2.53952,0.9645c0.68463,0.3362 1.37183,0.73886 2.13599,1.116c0.8381,0.41364 1.79739,0.80196 2.30783,0.99866c1.05576,0.40684 1.60004,0.59324 2.67084,1c1.03583,0.39348 1.99768,0.7962 2.45233,1c0.87601,0.39269 1.70584,0.79892 2.11166,1c1.2041,0.59663 1.99609,0.99976 2.78183,1.37917c0.76169,0.36781 1.8522,0.859 2.53552,1.13683c0.64746,0.26326 1.5932,0.61058 2.48532,1.05067c0.61032,0.30108 1.51901,0.85724 2.15717,1.23784c1.00662,0.60035 1.72614,0.99939 2.47882,1.3955c0.38382,0.20199 1.16788,0.6013 2.36401,1.2c0.79825,0.39954 1.5885,0.79103 1.97916,0.97916c0.76208,0.367 1.85342,0.85606 2.85919,1.26817c0.61951,0.25384 1.50253,0.59167 2.24048,1.07433c0.73663,0.4818 1.42212,1.15051 2.25452,1.845c0.62805,0.524 1.31549,1.05043 1.66666,1.3125c0.69113,0.51579 1.66168,1.19537 2.48566,1.71101c0.68893,0.43112 1.52298,0.96601 2.11435,1.46249c0.6091,0.51137 1.60416,1.32011 2.19998,1.73267c0.60428,0.4184 1.40961,1.14932 2,1.86533c0.40671,0.49324 1.1796,1.44016 1.7955,1.93951c0.55112,0.44683 1.40302,1.11697 1.90451,1.83067c0.40015,0.56948 0.97339,1.39005 1.52084,1.97916c0.5683,0.61154 1.38049,1.40134 1.78983,1.81067c0.64648,0.6465 1.35599,1.35598 2.13751,2.1375c0.53098,0.53099 1.04199,1.04199 1.909,1.909c0.48148,0.48149 1.01593,1.03521 1.80447,1.8c0.57813,0.56071 1.01367,0.95853 2.02234,1.74417c0.53543,0.41705 1.13794,0.78349 2.14935,1.76533c0.509,0.49413 0.94669,1.07378 1.42798,1.644c0.50253,0.59537 1.37436,1.49713 2.04401,2.08932c0.68759,0.60809 1.05939,0.88297 1.72668,1.5c0.94757,0.87619 1.45914,1.49469 1.94714,2.07918c0.46997,0.56288 1.43478,1.608 1.97351,2.06816c0.54007,0.46132 1.39474,1.10551 2.12601,1.87416c0.49057,0.51567 0.91742,1.10239 1.37399,1.68301c0.70795,0.90027 1.22516,1.49986 1.77267,2.08482c0.54324,0.58041 1.608,1.644 2.08932,2.12534c0.66449,0.66451 1.07748,1.08421 1.88568,1.8855c0.61841,0.6131 1.05508,1.05507 2.133,1.96651c0.62524,0.52867 0.97198,0.786 1.66666,1.33333c0.69467,0.54733 1.67432,1.32452 2.22934,1.81467c0.73938,0.65294 1.15933,1.08316 1.97083,1.88533c0.60876,0.60176 1.24142,1.2189 1.96649,1.8c0.77441,0.62064 1.35208,1.00307 1.93784,1.39999c0.89233,0.60469 1.79431,1.19527 2.37466,1.60001c0.56693,0.39539 1.60312,1.19582 2.06818,1.60001c0.68335,0.5939 1.61313,1.40817 2.13666,1.79866c0.53516,0.39914 1.3508,0.965 2.3945,1.57983c0.67764,0.39919 1.31656,0.7179 2.3215,1.2215c0.59973,0.30054 1.60376,0.79266 2.1955,1.10001c0.75223,0.39072 1.65057,1.0117 2.21436,1.45717c0.72586,0.57353 1.45245,1.08391 2.01147,1.4175c1.15948,0.69189 1.77777,0.94345 2.67868,1.32533c0.5994,0.25409 1.5098,0.64903 2.39551,1.15266c0.59042,0.33571 1.409,0.88057 2.18332,1.32584c0.69769,0.40121 1.42093,0.74637 2.564,1.12151c0.66165,0.21715 1.37866,0.39769 2.10901,0.59999c1.42776,0.39549 2.08911,0.59215 2.70651,0.8c0.85873,0.28911 1.8663,0.68344 2.54166,1.02083c0.69336,0.34637 1.67667,0.97409 2.5,1.45834c0.54263,0.31914 1.57062,0.81232 2.27466,0.95949c0.90118,0.18839 1.91431,0.33411 2.74619,0.58217c0.58636,0.17485 1.78256,0.5692 2.37466,0.78368c0.87402,0.3166 1.94836,0.84671 2.4205,1.17949c0.70032,0.49361 1.33591,1.08925 2.37198,1.632c0.55392,0.29019 1.1958,0.50636 2.64536,1.05067c0.40964,0.15382 1.27206,0.48581 2.16666,0.83333c0.44937,0.17458 1.32944,0.52284 2.55682,0.9785c0.72284,0.26836 1.68881,0.60297 2.25519,0.82016c1.00677,0.38608 1.80466,0.88977 2.80264,1.11601c0.86743,0.19664 1.68533,0.17065 2.38535,0.58533l0.88934,0.45334l0.58981,-0.47417" id="svg_8" stroke-width="2" stroke="#000" fill="none"/>
  <path t="20815,20830,20830,20830,20830,20830,20830,20830,20830,20830,20850,20850,20850,20850,20850,20850,20850,20850,20865,20865,20882,20882,20882,20883,20896,20896,20896,20896,20913,20913,20913,20930,20930,20930,20930,20946,20946,20946,20946,20963,20963,20980,20980,20980,20996,20996,20996,21013,21013,21013,21014,21030,21030,21030,21030,21046,21046,21046,21046,21063,21063,21063,21063,21063,21080,21080,21080,21080,21096,21096,21096,21113,21114,21114,21130,21130,21130,21146,21146,21146,21163,21163,21163,21163,21180,21180,21180,21180,21196,21196,21196,21213,21214,21230,21230,21251,21469,21827,21842,21862,21882,21882,21898,21913,21913,21913,21930,21946,21946,21963,21963,21980,21980,21980,22006,22014,22030,22030,22046,22063,22080,22080,22080,22096,22096,22113,22113,22113,22130,22146,22146,22163,22180,22180,22196,22196,22213,22213,22230,22230,22246,22246,22263,22302,22520,22555,22587,22603,22623,22639,22655,22666,22683,22683,22698,22715,22730,22746,22763,22780,22780,22796,22796,22813,22813,22830,22846,22846,22863,22863,22880,22880,22880,22896,22896,22913,22930,22930,22946,22946,22946,22963,22963,22980,22980,22980,22996,22996,22996,23013,23013,23013,23030,23030,23030,23046,23047,23047,23047,23063,23063,23080,23080,23081,23081,23096,23096,23096,23113,23113,23114,23114,23130,23130,23130,23131,23146,23146,23147,23163,23163,23163,23164,23164,23180,23180,23180,23181,23181,23181,23196,23196,23197,23197,23197,23219,23220,23220,23230,23231,23231,23231,23246,23246,23247,23247,23263,23263,23264,23264,23280,23281,23281,23281,23281,23296,23297,23297,23297,23313,23313,23314,23314,23330,23330,23331,23331,23346,23346,23347,23347,23347,23363,23363,23364,23364,23380,23380,23381,23399,23399,23454" d="m442,185c1.66666,0.66667 2.44135,0.8871 3.34799,1.136c1.00763,0.27663 2.08887,0.56718 3.21451,0.864c1.13968,0.30052 2.26514,0.59409 3.34949,0.864c1.91928,0.47774 2.70737,0.65543 3.37869,0.79466c0.56525,0.11723 1.04047,0.20326 1.43848,0.25801c0.33154,0.04561 0.85406,0.0531 1.87985,0.08783c0.90634,0.03069 2.03448,0.21352 2.70084,0.34816c0.71173,0.14381 1.43674,0.32841 2.5235,0.48067c1.00558,0.14087 1.64566,0.15457 2.56534,0.16534c1.20123,0.01407 1.80408,-0.02591 2.70132,0.05849c1.20602,0.11343 1.80237,0.30466 2.73599,0.5175c0.64792,0.14771 1.68439,0.31369 2.77866,0.40001c0.72351,0.05707 1.43054,0.03619 2.61469,0.30933c0.74088,0.17088 1.76465,0.59456 2.58133,0.68001c0.64374,0.06735 1.61133,0.02048 2.436,0.04666c0.91571,0.02908 1.92227,0.14291 2.63733,0.27467c0.74396,0.13708 1.86606,0.40936 2.94934,0.71466c0.68311,0.1925 1.32367,0.41652 2.26215,0.64284c0.89859,0.21671 1.81363,0.30307 2.77652,0.38249c0.69876,0.05763 1.87137,0.19139 2.73334,0.32733c0.44571,0.0703 1.34219,0.23383 2.22665,0.36334c1.22272,0.17905 1.95435,0.22331 2.94666,0.30933c0.61914,0.05367 1.82211,0.25552 2.42136,0.40001c0.90115,0.21727 2.0983,0.4693 2.6955,0.5175c0.86691,0.06998 1.93784,0.05716 2.87915,0.05716c0.67801,0 1.64685,0 2.46133,0c0.8685,0 2.06418,0 2.66849,0c0.93152,0 1.58087,0 2.97949,0c0.74133,0 1.49072,0 2.23206,0c1.06213,0 2.02661,0 2.86511,0c1.0495,0 1.76703,0 2.67151,0c0.86334,0 1.67603,0.17656 2.40002,0.64734c0.66608,0.43312 1.49915,-0.12891 1.89465,-0.94734c0.41827,-0.8656 0.88678,-1.46951 1.4527,-2.11066c0.63873,-0.72359 0.96906,-1.43356 1.39996,-2.10535c0.56091,-0.87437 1.33698,-1.55191 1.79999,-2.12c0.6568,-0.80583 0.96857,-1.59921 1.56671,-2.19733c0.59808,-0.59808 1.3429,-0.97459 2.19733,-1.556c0.73059,-0.49715 1.63599,-0.61067 2.43597,-0.61067c0.90002,0 1.87872,-0.00694 2.74286,-0.22133c0.72491,-0.17984 1.4978,-0.48286 2.53564,-0.65717c0.8938,-0.1501 1.92151,-0.12151 2.71082,-0.12151c0.72534,0 1.71069,0 2.6947,0c0.69067,0 1.76337,-0.01149 2.68268,0c0.8335,0.01042 1.69019,0.12701 2.45862,0.61067c0.71997,0.45319 1.34485,0.95123 2.35333,1.26799c0.7569,0.23775 1.66193,0.50435 2.36871,0.76868c0.99084,0.37056 1.73022,0.77873 2.22729,1.37799c0.51013,0.61496 0.42535,1.57468 0.42535,2.47467c0,0.89999 0,1.8 0,2.7c0,0.90001 0,1.8 0,2.60001c0,0.89999 0,1.8 0,2.7c0,0.89999 0,1.8045 0,2.66667c0,0.83333 0,1.812 0,2.586c0,0.89999 0,1.76334 0,2.74733c0,0.98399 0.05811,1.67648 -0.00452,2.75183c-0.04199,0.72081 -0.35553,1.75592 -0.57013,2.53351c-0.14642,0.53062 -0.39252,1.75175 -0.42084,2.55299c-0.0321,0.90845 -0.00452,1.82834 -0.00452,2.6825c0,0.97917 0.05579,1.78819 -0.08533,2.57918c-0.18262,1.0233 -0.57593,1.6171 -0.79315,2.82133c-0.14349,0.79568 -0.10645,1.35338 -0.1217,2.65732c-0.00818,0.69604 -0.0556,1.61168 -0.28381,2.60535c-0.12524,0.54527 -0.41125,1.35373 -0.59467,2.39482c-0.16473,0.93538 -0.18207,1.69461 -0.40533,2.88918c-0.12805,0.68527 -0.30396,1.37872 -0.43201,2.064c-0.22327,1.19456 -0.26965,2.18941 -0.45068,3.13467c-0.15277,0.79758 -0.36713,1.34654 -0.54932,2.23466c-0.24438,1.19153 -0.2616,1.80898 -0.27948,2.75583c-0.01904,1.00934 -0.00452,1.72684 -0.00452,2.84283c0,0.74733 0,1.83333 0,2.51466c0,0.96451 0,1.58084 0,2.78551c0,0.91049 0.00122,1.53583 0,2.8665c-0.00067,0.72133 -0.00049,1.49104 -0.03601,2.31599c-0.03833,0.88989 -0.12335,1.85153 -0.24799,2.88535c-0.06482,0.53781 -0.21747,1.63181 -0.29065,2.18134c-0.14417,1.08228 -0.27264,2.11624 -0.34003,3.07864c-0.06219,0.88852 -0.07886,1.71466 -0.08398,2.48401c-0.00714,1.06647 -0.00134,1.73083 -0.00134,2.67734c0,1.21066 0.0152,1.81247 -0.02081,2.73151c-0.02496,0.63687 -0.18896,2.00275 -0.33636,2.73181c-0.15161,0.74988 -0.33813,1.49725 -0.64282,2.58069c-0.19281,0.68567 -0.50177,1.68253 -0.64282,2.3765c-0.22705,1.1167 -0.27765,1.95789 -0.33185,2.84082c-0.02759,0.44922 -0.03693,1.34836 -0.19202,2.616c-0.09387,0.76746 -0.3493,1.81384 -0.53784,2.48151c-0.28815,1.0206 -0.50256,1.73373 -0.68481,2.47717c-0.18317,0.74728 -0.4552,2.20676 -0.52667,2.892c-0.06958,0.66696 -0.1142,1.69501 -0.25067,2.81601c-0.10193,0.83685 -0.18085,1.27383 -0.35413,2.16666c-0.17401,0.89658 -0.46948,2.16928 -0.6792,2.92801c-0.19122,0.69183 -0.48517,1.61157 -0.79999,2.40533c-0.37195,0.93774 -0.64282,1.56216 -0.91467,2.56534l-0.07465,0.76532l-0.00616,1.06982" id="svg_9" stroke-width="2" stroke="#000" fill="none"/>
  <path t="24208,25629,25629,25663,25683,25691,25707,25715,25730,25746,25746,25763,25763,25780,25780,25796,25796,25813,25813,25830,25830,25830,25847,25847,25863,25864,25864,25879,25879,25879,25896,25896,25914,25914,25929,25929,25946,25946,25963,25963,25963,25979,25979,25996,25996,25996,26013,26013,26013,26029,26029,26029,26046,26046,26046,26063,26063,26063,26079,26079,26096,26096,26096,26096,26113,26113,26113,26129,26129,26129,26129,26146,26163,26163,26179,26179,26179,26196,26213,26229,26246,26247,26263,26283,26307,26327,26351,26383,26411,26443,26443,26481,26523,26575,26599,26623,26627,26647,26664,26680,26696,26697,26714,26735,26747,26764,26764,26780,26780,26797,26814,26814,26830,26830,26847,26865,26865,26866,26880,26896,26896,26912,26928,26950,26951,26967,26967,26978,26995,26995,27013,27013,27028,27029,27045,27045,27062,27063,27078,27078,27079,27096,27096,27096,27113,27113,27128,27145,27146,27162,27178,27179,27179,27195,27195,27212,27212,27228,27229,27245,27246,27262,27279,27279,27295,27312,27313,27335,27522" d="m558,253c-1,1 -1,1.8 -1,2.7c0,0.90001 0,1.8 0,2.7c0,0.89999 0,1.80002 0,2.70016c0,0.78519 0,1.73584 0,2.50116c0,0.99869 0,1.79868 0,2.79868c0,0.80002 0,1.80002 0,2.60001c0,1 0,1.79999 0,2.60001c0,1.00449 0,1.85715 0,2.82132c0,0.80402 -0.00781,1.62604 0.00018,2.65717c0.00531,0.68558 0.03937,1.53354 0.35248,2.52151c0.25757,0.81268 0.59503,1.79761 0.63666,2.60001c0.05182,0.99854 0.01068,1.77914 0.01068,2.77881c0,0.68253 -0.01929,1.79135 0.02081,2.54202c0.0426,0.79794 0.26276,1.79398 0.47919,2.45831c0.33264,1.02106 0.48071,1.83102 0.49866,2.70618c0.02045,0.99844 0.00079,1.81467 0.00134,2.63068c0.00067,1.00131 -0.00842,1.70792 0.08533,2.45334c0.15161,1.20551 0.34583,1.8801 0.48932,2.57999c0.26959,1.31512 0.3877,2.13528 0.41467,2.82935c0.03967,1.02078 -0.03119,1.8519 0.17737,2.98798c0.14679,0.79977 0.34869,1.35596 0.63464,2.23468c0.29303,0.90048 0.59869,1.79868 0.79865,2.39865c0.39996,1.20004 0.70026,2.08948 0.87921,2.65836c0.24194,0.76901 0.43054,1.89893 0.74213,2.86316c0.23151,0.71634 0.65808,1.67224 0.74268,2.46783c0.07678,0.72211 -0.0224,1.7265 0.38867,2.51065c0.44446,0.8479 0.64734,1.70001 0.64734,2.5c0,0.90002 0,1.80002 0,2.70001c0,0.89999 0,1.79999 0,2.70001c0,0.89999 0,1.79999 0,2.59998c0,0.90002 0.34076,1.87756 -0.02081,2.67917c-0.33057,0.73279 -1.37366,0.95532 -2.17786,1.43683c-0.74359,0.44522 -1.24939,0.93878 -2.10132,1.0885c-0.92822,0.16315 -1.65601,0.44986 -2.41467,1.07953c-0.72516,0.60187 -1.38531,0.91599 -2.28534,0.91599c-0.75714,0 -1.67273,-0.11673 -2.51599,0.08533c-0.89813,0.21521 -1.64203,0.81168 -2.48401,0.89383c-0.97412,0.09503 -1.79865,0.02084 -2.672,0.02084c-0.87067,0 -1.828,0.00357 -2.56,0c-1.09607,-0.00534 -1.81256,-0.31104 -2.56799,-0.716c-0.75592,-0.40521 -1.58154,-0.76126 -2.3667,-1.284c-0.63684,-0.42401 -1.69232,-0.75143 -2.42267,-1.02533c-0.85089,-0.31909 -1.47827,-1.11197 -2.04663,-1.57468c-0.8056,-0.65585 -1.56519,-0.95975 -2.34265,-1.5c-0.67126,-0.46646 -1.34625,-0.99408 -2.02136,-1.39999c-0.98389,-0.59155 -1.50519,-1.01556 -2.16669,-1.66666c-0.67462,-0.664 -1.23779,-1.23785 -2.03314,-2.03317c-0.39569,-0.39566 -0.96417,-0.96417 -1.77869,-1.77866c-0.61084,-0.61084 -1.37677,-1.11917 -1.8548,-2.02151c-0.34338,-0.64822 -0.70313,-1.52597 -1.33337,-2.16666c-0.65326,-0.66403 -1.19397,-1.1676 -1.948,-1.94934c-0.48334,-0.5011 -1.12915,-1.34595 -1.44934,-2.05865c-0.4118,-0.91675 -0.47351,-1.72748 -0.79315,-2.47803c-0.30426,-0.71457 -1.10223,-1.49713 -1.47614,-2.34732c-0.31171,-0.70883 -0.1712,-1.64816 -0.33337,-2.66666l-0.54932,-0.50134l-0.284,-0.832l-0.35266,-0.89017" id="svg_10" stroke-width="2" stroke="#000" fill="none"/>
  <path t="28676,28692,28692,28715,28715,28715,28731,28731,28749,28749,28765,28765,28781,28781,28781,28798,28798,28798,28813,28813,28829,28829,28829,28847,28847,28863,28864,28864,28864,28880,28880,28880,28880,28896,28896,28896,28914,28914,28914,28914,28930,28930,28930,28930,28946,28946,28946,28946,28964,28964,28964,28964,28964,28964,28979,28980,28980,28980,28980,28996,28996,28997,29013,29014,29029,29029" d="m497,210c-0.00134,4.22934 0.04285,5.19617 -0.22134,6.2c-0.21561,0.81924 -0.57394,1.38528 -0.7215,2.40001c-0.11536,0.79338 -0.05716,1.79999 -0.05716,2.59999c0,1 0.00659,1.80002 0,2.8c-0.00534,0.81071 -0.05426,1.69202 -0.284,2.68401c-0.19043,0.82234 -0.43414,1.35043 -0.63068,2.63066c-0.10129,0.6599 -0.05347,1.68639 -0.09601,2.48534c-0.04272,0.80234 -0.37003,1.80025 -0.564,2.472c-0.30304,1.04951 -0.37836,2.03738 -0.40448,2.74883c-0.02682,0.7307 -0.02084,1.8125 -0.02084,2.82201c0,0.63634 0.00519,1.55585 -0.00015,2.45717c-0.00534,0.90004 -0.02032,1.80522 -0.1665,2.7c-0.1489,0.91135 -0.42715,1.83212 -0.54935,2.48534c-0.19284,1.03078 -0.23846,1.76686 -0.26315,2.51466c-0.03683,1.11555 -0.02084,2.179 -0.02084,2.85634c0,1.041 0,1.79832 0,2.64366c0,0.95334 0,1.98666 0,2.52084c0,1.07831 0,1.61249 0,3.13599c0,0.47116 0,1.3605 0,2.18585c0,0.76932 0,2.17065 0,2.81064c0,0.88501 0,1.92502 0,2.80502l0,1.02032l0,0.77399" id="svg_11" stroke-width="2" stroke="#000" fill="none"/>
  <path t="29657,29672,29672,29672,29672,29672,29672,29672,29672,29672,29699,29699,29699,29699,29699,29699,29699,29699,29699,29713,29713,29713,29713,29713,29713,29713,29714,29714,29729,29729,29729,29730,29730,29747,29747,29747,29763,29763,29763,29780,29780,29780,29780,29796,29796,29797,29813,29813,29814,29830,29830,29830,29847,29847,29847,29863,29863,29864,29864,29880,29880,29880,29880,29896,29897,29913,29914,29930,29930,29947,29947,29964,29964,29980,30011" d="m523,215c-0.33331,4.16667 -0.44171,5.30577 -0.56934,6.59866c-0.13928,1.41113 -0.29004,2.90422 -0.45148,4.44301c-0.16254,1.54921 -0.32477,3.07271 -0.49652,4.53299c-0.30499,2.59332 -0.45563,3.66098 -0.59601,4.57733c-0.12042,0.78589 -0.23798,1.4577 -0.34497,2.03551c-0.09326,0.50351 -0.18597,0.94928 -0.255,1.3605c-0.13147,0.78348 -0.16956,1.19431 -0.20135,1.62c-0.03265,0.43701 -0.05182,0.88258 -0.06451,1.332c-0.01263,0.44928 -0.01752,0.89467 -0.01947,1.332c-0.00372,0.83467 -0.00134,1.22501 -0.00134,1.95366c0,0.99301 0,1.61168 0,2.81435c0,0.89999 0,1.5 0,2.7c0,0.89999 0,1.5 0,2.7c0,0.89999 0,1.5 0,2.39999c0,1.19867 0,1.78934 0,2.64285c0,1.03598 0,1.978 0,2.7265c0,1.19864 0,1.88132 0,2.57999c0,1.31732 0,2.14532 0,2.90134c0,1.08267 0,1.71866 0,2.41068c0,1.09048 0,2.172 0,2.85199c0,0.94501 0,1.79999 0,2.79999c0,0.84 0,1.80267 0,2.57068c0,0.952 0,1.71732 0,2.716c0,0.79999 0,1.79868 0,2.564l0,1.07883l0,0.85718" id="svg_12" stroke-width="2" stroke="#000" fill="none"/>
  <path t="32490,32640,32655,32675,32696,32696,32713,32713,32729,32729,32746,32746,32746,32763,32763,32779,32779,32779,32796,32796,32813,32813,32829,32829,32829,32846,32846,32846,32846,32863,32863,32863,32879,32879,32879,32879,32896,32896,32913,32913,32913,32913,32929,32929,32929,32929,32946,32946,32963,32963,32963,32979,32979,32979,32979,32996,32996,32996,33013,33013,33013,33029,33029,33029,33046,33046,33046,33063,33063,33063,33079,33079,33079,33079,33079,33096,33096,33096,33113,33113,33113,33113,33129,33129,33129,33129,33146,33146,33146,33146,33146,33163,33163,33163,33179,33179,33179,33179,33196,33196,33196,33213,33213,33213,33213,33213,33229,33229,33246,33246,33246,33263,33263,33263,33279,33279,33279,33296,33296,33313,33313,33329,33346,33346,33363,33379,33379,33396,33396,33413,33429,33591,33818" d="m416,346c1.70001,0 2.70847,-0.09851 3.52084,0.02084c0.98911,0.14532 1.66763,0.6387 2.67899,0.85767c0.76801,0.16629 1.63351,0.12149 2.46152,0.12149c0.8815,0 1.8595,-0.00055 2.65598,0c0.99734,0.00067 1.88437,-0.02554 2.68268,0.16666c0.81741,0.19681 1.58527,0.62863 2.60001,0.77618c0.79337,0.11536 1.80133,0.05716 2.63599,0.05716c0.93066,0 1.72287,-0.02643 2.57468,0.03601c1.1933,0.08746 1.78992,0.24564 2.68933,0.46399c0.6004,0.14575 1.79898,0.38858 2.70001,0.47467c0.5994,0.05728 1.80414,0.173 2.6955,0.37799c0.58664,0.13492 1.41183,0.40439 2.42181,0.56332c0.93875,0.14774 2.01715,0.24463 2.65201,0.36801c0.69333,0.13474 1.40915,0.33258 2.86401,0.54935c0.67737,0.10092 1.62485,0.15298 2.20499,0.16217c1.27618,0.02023 1.94083,0.00449 2.96167,0.00449c0.82132,0 1.51434,0 2.64282,0c0.66702,0 1.74252,0 2.47452,0c1.061,0 2.03598,0 2.63599,0c1.08002,0 2.02133,0.00037 2.69934,0c1.23132,-0.00067 1.77695,0.0387 2.59467,-0.05716c1.28003,-0.15005 1.94189,-0.48053 2.63666,-0.65884c0.99158,-0.25452 1.87912,-0.27682 2.53485,-0.33667c1.11569,-0.10181 1.94989,-0.2211 2.82117,-0.38333c0.87555,-0.16306 1.71536,-0.3353 2.79565,-0.664c0.60266,-0.18338 1.36188,-0.51593 2.33099,-0.89999c0.78995,-0.31305 1.67798,-0.60663 2.32001,-0.79999c1.03168,-0.3107 1.7699,-0.50238 2.53418,-0.70001c0.78302,-0.20245 1.9794,-0.49905 2.77783,-0.70001c0.79089,-0.19904 1.56726,-0.39294 2.31598,-0.59998c1.40375,-0.38815 2.05728,-0.58978 2.67468,-0.836c1.22781,-0.48965 1.81363,-0.8407 2.39999,-1.18936c0.85995,-0.51132 1.88589,-1.15976 2.36249,-1.422c0.70432,-0.38757 1.78152,-0.91931 2.41617,-1.23666c0.68268,-0.34134 1.38135,-0.69064 2.06403,-1.03198c1.19733,-0.59866 1.92633,-0.9632 2.96799,-1.48401c0.60001,-0.29999 1.39801,-0.70401 2.2002,-1.10001c0.8186,-0.40408 1.48096,-0.7106 2.48248,-1.10001c0.79327,-0.30844 1.58575,-0.53336 2.50751,-1.09998c0.5849,-0.35956 1.44049,-1.04346 2.15717,-1.34283c0.8728,-0.36459 1.69427,-0.67374 2.45264,-1.07318c0.7887,-0.41541 1.70233,-0.53305 2.37469,-0.89465c0.82874,-0.44571 1.52081,-1.03217 2.32532,-1.38934l0.79999,-0.35266l0.79999,-0.52585l0.90002,-0.12149" id="svg_13" stroke-width="2" stroke="#000" fill="none"/>
  <path t="35022,35038,35038,35038,35038,35063,35161,35161" d="m415,341c-8.12799,6.59235 -8.56848,6.92828 -9.33334,7.875c-0.49026,0.60684 -0.96216,1.36783 -1.5,2.125l-0.16531,0.79999" id="svg_14" stroke-width="2" stroke="#000" fill="none"/>
  <path t="36366,36381,36406,36422,36434,36446,36462,36479,36479,36496,36496,36512,36512,36529,36529,36529,36529,36546,36546,36546,36562,36562,36562,36579,36579,36579,36579,36596,36596,36596,36596,36612,36612,36612,36612,36629,36629,36629,36629,36647,36647,36647,36662,36662,36662,36662,36662,36662,36679,36679,36679,36679,36696,36696,36696,36696,36712,36712,36712,36712,36729,36729,36729,36729,36729,36746,36746,36746,36746,36746,36762,36762,36762,36762,36762,36779,36779,36779,36779,36796,36796,36796,36796,36796,36796,36812,36812,36812,36812,36812,36812,36829,36829,36829,36829,36829,36829,36846,36846,36846,36847,36847,36862,36863,36863,36863,36863,36863,36863,36879,36879,36880,36880,36880,36897,36897,36897,36897,36897,36912,36912,36912,36912,36929,36930,36930,36930,36946,36946,36946,36962,36962,36962,36963,36963,36979,36979,36979,36996,36996,36996,36996,37012,37012,37012,37012,37029,37029,37029,37030,37046,37046,37046,37046,37047,37047,37062,37062,37062,37063,37079,37079,37079,37080,37096,37096,37096,37097,37112,37112,37112,37113,37113,37129,37129,37129,37130,37146,37146,37147,37147,37162,37162,37163,37163,37163,37179,37179,37179,37197,37197,37197,37212,37212,37212,37229,37229,37246,37246,37247,37247,37262,37262,37263,37263,37279,37279,37279,37280,37296,37296,37297,37297,37312,37312,37329,37329,37330,37330,37346,37346,37346,37347,37347,37362,37362,37363,37363,37363,37379,37379,37379,37396,37396,37397,37397,37412,37412,37413,37413,37413,37429,37429,37430,37446,37446,37447,37447,37462,37462,37463,37479,37480,37496,37496,37512,37513,37530,37546,37612,37612,37628,37648,37674,37675,37682,37702,37904" d="m325,401c1.79999,0 2.70001,0 3.60001,0c0.89999,0 1.79999,0 2.60132,0c0.96533,0 1.79868,0 2.77734,0c0.77399,0 1.6875,0 2.54016,0c0.81451,0 1.7865,0 2.48117,0c1.03201,0 1.95715,0 2.73868,0c0.944,0 1.94666,0 2.78217,0c0.58365,0 1.77948,0 2.7005,0c0.65067,0 1.34933,0 2.52133,0c0.86267,0 1.75732,0 2.65198,0c1.272,0 2.03467,0 2.73334,0c0.65067,0 1.87201,0 2.772,0c0.60001,0 1.5,0 2.70401,0c0.62799,0 1.66751,0 2.896,0c0.46399,0 1.45801,0 1.97601,0c1.04797,0 1.56598,0 3.02399,0c0.84534,0 1.60266,0 2.64368,0c1.02298,0 1.74048,0.0065 2.48166,-0.01068c0.74954,-0.0174 2.21057,-0.14197 2.89066,-0.27332c0.66144,-0.12775 1.63101,-0.39749 2.65067,-0.54935c0.71683,-0.10675 1.48019,-0.13873 2.28,-0.19199c0.84018,-0.05594 2.17551,-0.19022 3.10602,-0.32733c0.47311,-0.0697 1.4205,-0.2323 2.36331,-0.36334c0.91602,-0.12732 1.7981,-0.21027 2.64801,-0.24799c0.82492,-0.03659 1.63467,-0.03217 2.83618,-0.03616c0.80432,-0.00266 1.62155,-0.00397 2.457,-0.05701c1.3114,-0.08328 1.76605,-0.15393 2.7045,-0.30002c0.98172,-0.1528 1.48505,-0.25317 2.52499,-0.44415c1.08005,-0.19833 2.19598,-0.39874 2.76151,-0.49866c0.5665,-0.10007 1.69092,-0.29764 2.242,-0.40002c1.57776,-0.29315 2.06802,-0.39526 3,-0.59998c0.88998,-0.1955 1.75772,-0.40125 2.19247,-0.5c1.33817,-0.30396 2.27936,-0.50305 2.76401,-0.61069c1.00067,-0.22226 1.51965,-0.3287 3.12,-0.75598c0.55618,-0.1485 1.68188,-0.48483 2.24802,-0.65869c0.56485,-0.17346 1.6748,-0.5242 2.216,-0.69064c1.52441,-0.46881 1.99722,-0.60394 2.89734,-0.84802c0.8493,-0.23029 1.66922,-0.435 2.87198,-0.73599c0.79996,-0.2002 1.60001,-0.39999 2,-0.5c0.80002,-0.20001 2.00021,-0.49854 2.7955,-0.69998c0.78403,-0.19858 1.55154,-0.38519 2.983,-0.80002c0.66638,-0.19312 1.30154,-0.39728 2.22018,-0.69998c0.90237,-0.29736 1.81024,-0.6055 2.43732,-0.80002c1.32709,-0.41165 2.04587,-0.60712 2.78934,-0.78934c0.74728,-0.18317 1.48648,-0.35513 2.55316,-0.48932c0.98242,-0.12357 1.61713,-0.10046 2.8215,-0.28799c0.60538,-0.09427 1.51672,-0.35236 2.15717,-0.48068c1.35666,-0.27185 2.09549,-0.29999 2.84283,-0.35266c0.74734,-0.05267 1.83847,-0.14099 2.85632,-0.35718c0.68924,-0.14639 1.40646,-0.36554 2.64368,-0.64282c0.94897,-0.21268 1.45676,-0.30276 2.5,-0.47916c0.52338,-0.0885 1.54651,-0.24817 2.5,-0.35419c0.84418,-0.09387 1.95935,-0.15494 2.64368,-0.21933c1.02478,-0.09644 1.74301,-0.21994 2.48166,-0.38333c1.12646,-0.24918 2.20865,-0.5618 2.892,-0.76401c0.66864,-0.19785 1.33899,-0.41895 2.81601,-0.79999c0.40802,-0.10526 1.272,-0.29999 2.16666,-0.5c0.89465,-0.20001 2.16895,-0.49152 2.92932,-0.70001c0.70087,-0.19217 1.35065,-0.39597 2.57068,-0.79999c0.60199,-0.19934 1.52441,-0.51141 2.15717,-0.75717c1.01547,-0.39444 1.72775,-0.72202 2.45749,-1.06818c0.72629,-0.34451 1.41315,-0.69641 2.616,-1.28931c0.74673,-0.36807 1.44662,-0.69775 2.45334,-1.08536c0.53857,-0.20737 1.37207,-0.47821 2.3945,-0.89999c0.69174,-0.28537 1.51712,-0.70618 2.32285,-1.10001c0.83154,-0.40643 1.76514,-0.80048 2.55582,-1.10449c0.56357,-0.21667 1.45941,-0.55078 2.34283,-1.017c0.91687,-0.48386 1.50192,-0.8862 2.10001,-1.27982c0.90292,-0.59424 1.80002,-1.1987 2.39999,-1.59869c0.60001,-0.40002 1.49854,-1.00183 2.09552,-1.39548c0.86658,-0.57141 1.41397,-0.92792 2.41916,-1.52051c0.66113,-0.38977 1.69922,-1.03421 2.29434,-1.55017c0.44336,-0.38437 1.16125,-1.10629 2.03381,-1.9765c0.32635,-0.3255 1.01654,-1.01001 1.37799,-1.35733c0.72711,-0.69873 1.80432,-1.6767 2.49249,-2.22934c0.63263,-0.508 1.2453,-0.94238 1.80005,-1.36798c0.77277,-0.5929 1.43347,-1.22797 2.13928,-1.74551c0.93475,-0.68542 1.51215,-0.90231 2.39404,-1.31851c0.64233,-0.30313 1.68378,-0.86737 2.40149,-1.34848c0.74084,-0.49661 1.09918,-0.76443 1.78247,-1.3075c0.93866,-0.746 1.69269,-1.45502 2.18402,-1.836c0.92456,-0.71689 1.73889,-1.09201 2.28534,-1.34668c0.81738,-0.38098 1.83295,-0.96042 2.45831,-1.5c0.57373,-0.49506 1.33032,-1.21008 1.84033,-1.884c0.55377,-0.73181 0.87506,-1.48138 1.49683,-2.35883c0.40253,-0.56802 0.58344,-1.59277 1.22534,-2.23633c0.63922,-0.64087 1.48199,-0.91928 2.05383,-1.54617c0.513,-0.56241 1.13519,-1.27017 1.77716,-1.61749l1.00153,-0.33185l0.64667,-0.52533l0.59015,-0.49551" id="svg_15" stroke-width="2" stroke="#000" fill="none"/>
  <path t="41118,41494,41510,41530,41534,41546,41562,41562,41579,41596,41596,41612,41612,41612,41612,41629,41629,41629,41646,41646,41646,41646,41662,41662,41662,41679,41679,41679,41679,41696,41696,41712,41712,41712,41729,41729,41729,41746,41746,41746,41762,41762,41762,41762,41779,41779,41779,41796,41796,41796,41812,41812,41812,41829,41829,41829,41829,41846,41846,41846,41862,41862,41862,41862,41879,41879,41879,41879,41895,41896,41896,41912,41912,41912,41929,41929,41929,41929,41946,41946,41962,41962,41979,41979,41979,41995,42012,42012,42012,42028,42046,42046,42112,42128,42159,42159,42195,42574,42692,42707,42707,42727,42738,42738,42748,42762,42762,42779,42779,42795,42795,42795,42812,42812,42812,42812,42829,42829,42829,42845,42862,42863" d="m227,311c1.8,0 2.61961,0.00195 3.39999,-0.42532c0.82257,-0.45038 1.75429,-0.39139 2.60001,-0.74133c0.78462,-0.32468 1.52113,-0.80157 2.48666,-0.83469c0.76036,-0.02606 1.68524,-0.14474 2.4705,-0.35583c0.85982,-0.23111 1.44429,-0.44379 2.64284,-0.84283c0.60005,-0.1998 1.5,-0.5 2.39999,-0.79999c0.89999,-0.29999 1.5,-0.5 2.39999,-0.79999c0.90001,-0.30002 1.8,-0.60001 2.70001,-0.90002c0.89999,-0.29999 1.79279,-0.60428 2.37917,-0.77914c0.83186,-0.24805 1.83853,-0.42349 2.74615,-0.54617c0.94331,-0.1275 1.73439,-0.31003 2.54935,-0.58533c1.06868,-0.36099 1.77193,-0.68134 2.41466,-0.98935c1.01712,-0.48743 1.62222,-0.82367 2.32501,-1.10001c1.11411,-0.43805 1.79123,-0.59909 2.48566,-0.79999c1.03238,-0.29868 1.96228,-0.58694 2.73868,-0.89999c0.71445,-0.28809 1.68158,-0.70288 2.48666,-1c0.82092,-0.30295 1.86179,-0.68192 2.54932,-1.01068c0.68692,-0.32849 1.646,-0.91202 2.1825,-1.242c0.85217,-0.52417 1.43051,-0.89093 2.34283,-1.32599c0.88754,-0.42325 1.51758,-0.60928 2.70001,-1.18799c0.60968,-0.29837 1.19217,-0.67242 2.10001,-1.18066c0.89249,-0.49966 1.50244,-0.76007 2.37915,-1.15268c0.83923,-0.37582 1.60696,-0.81119 2.2955,-1.32535c0.68558,-0.51199 1.63757,-1.17279 2.1825,-1.41748c0.84033,-0.37732 2.04407,-0.75354 2.64017,-0.95718c0.86282,-0.29477 1.66324,-0.54276 2.43335,-1c0.75198,-0.44647 1.44757,-1.01309 2.17999,-1.39999c0.98001,-0.5177 1.60071,-0.76239 2.30402,-1.19998c0.89035,-0.55396 1.64786,-1.20688 2.31067,-1.60001c0.68646,-0.40714 1.53812,-1.00058 2.17465,-1.60001c0.59949,-0.56454 1.53204,-0.93478 2.29999,-1.35266c0.84091,-0.45758 1.70108,-0.15393 2.41467,-0.73267c0.74417,-0.60355 0.43964,-1.83093 1.28534,-1.91467c0.79608,-0.07883 1.63599,0 2.65268,0c0.69464,0 1.75153,-0.0907 2.54865,0.284c0.73218,0.34418 1.64966,0.66156 2.48535,0.80002c1.00504,0.1665 1.55203,0.34338 2.41782,0.62048c1.19922,0.38379 1.80145,0.57385 2.65952,0.93149c0.55795,0.23257 1.56891,0.82443 2.19434,1.36401c0.57376,0.49503 1.40567,1.36401 2.04166,2l0.5,0.5" id="svg_16" stroke-width="2" stroke="#000" fill="none"/>
  <path t="43680,43869,43885,43904,43932,43947,43947,43962,43962,43979,43979,43995,43995,44012,44012,44029,44029,44045,44045,44062,44079,44079,44079,44095,44095,44112,44129,44129,44145,44145,44162,44162,44179,44179,44195,44195,44212,44212,44212,44229,44229,44229,44245,44245,44245,44262,44262,44262,44279,44279,44295,44295,44312,44312,44312,44329,44329,44345,44345,44362,44362,44379,44379,44379,44395,44395,44412,44412,44412,44429,44429,44445,44445,44445,44462,44462,44462,44479,44479,44479,44495,44495,44495,44512,44512,44529,44529,44545,44545,44562,44562,44562,44579,44579,44595,44595,44595,44612,44612,44612,44629,44645,44662,44662,44679,44679,44695,44712,44729,44746,44812,45026,45063,45070,45079,45095,45112,45129,45166" d="m256,305c-3.2775,0.7045 -2.62732,1.43329 -1.80133,1.91599c0.69763,0.40768 1.23364,1.19968 1.82217,1.58401c0.7988,0.52164 1.42606,1.03497 2.18048,1.69867c0.53421,0.46997 1.51035,0.58896 2.31467,0.97067c0.8183,0.38834 1.09039,1.25046 1.78851,2.07349c0.52005,0.6131 1.32596,1.10117 2.04282,1.39999c0.87698,0.36557 1.81671,0.53061 2.67352,0.85718c0.57874,0.22058 1.59644,0.34268 2.49384,0.58401c0.89349,0.2403 1.65414,0.73889 2.48532,0.91599c0.98135,0.20908 1.58536,0.70197 2.48532,0.91467c0.89798,0.21225 1.91467,0.08533 2.71469,0.08533c1,0 1.79999,0 2.79999,0c0.81067,0 1.45715,0 2.42133,0c0.80402,0 1.62607,0.01151 2.65735,-0.00015c0.92151,-0.01041 1.61203,-0.05396 2.60532,-0.28384c0.82239,-0.19034 1.62253,-0.48782 2.63068,-0.63068c0.86917,-0.12314 1.888,-0.03796 2.68533,-0.10617c1.0069,-0.08612 1.78397,-0.45306 2.60001,-0.69516c0.9798,-0.29068 1.7951,-0.21155 2.64734,-0.64117c0.69318,-0.34943 1.40103,-0.97052 2.21432,-1.34283c0.94519,-0.43271 1.75876,-0.68546 2.27701,-0.89999c1.13199,-0.46863 1.7117,-0.94257 2.58282,-1.5c0.67862,-0.43423 1.27969,-0.70023 2.2785,-1.19998c0.7999,-0.40021 1.61337,-0.77567 2.39999,-1.22086c0.61099,-0.34579 1.40274,-0.96286 2.02084,-1.5c0.66599,-0.57874 1.4017,-1.17734 2.19382,-1.77914c0.52493,-0.3988 1.47617,-1.1796 1.97549,-1.7955c0.44684,-0.55112 1.1124,-1.40948 1.80984,-1.88367c0.81268,-0.55252 1.48431,-1.01556 2.10016,-1.621c0.54037,-0.53125 1.23663,-1.20667 1.89984,-1.92068c0.52856,-0.56906 1.09357,-1.39331 1.5,-1.95831c0.63272,-0.87961 1.34253,-1.38589 1.90451,-1.7735c0.80475,-0.55505 1.60739,-1.20313 2.02481,-1.76334c0.59103,-0.79324 1.02042,-1.59259 1.40402,-2.48401c0.30609,-0.71127 0.16666,-1.65268 0.16666,-2.51599c0,-0.96317 0.01068,-1.87335 0.5,-2.48401c0.48932,-0.61066 0.89584,-1.59283 0.47916,-2.47916c-0.33179,-0.70572 -1.39651,-0.61032 -2.00449,-1.09552c-0.62451,-0.49838 -1.57468,-0.42532 -2.47467,-0.44617l-0.79999,-0.33182" id="svg_17" stroke-width="2" stroke="#000" fill="none"/>
  <path t="48371,48387,48387,48387,48406,48431,48431,48447,48447,48447,48447,48466,48466,48466,48466,48466,48466,48483,48483,48483,48483,48499,48499,48499,48499,48499,48499,48516,48516,48516,48516,48516,48533,48533,48533,48533,48545,48546,48546,48566,48566,48579,48579,48579,48599,48616,48616,48629,48645,48666,48679,48679,48695" d="m328,399c-2.00534,0.70532 -2.47772,1.04022 -3.23199,1.43201c-1.0676,0.55453 -1.98535,0.50888 -2.6395,0.68231c-0.91995,0.24393 -1.84714,0.75775 -2.5965,1.10703c-0.40268,0.18768 -1.69751,0.78134 -2.61469,1.17865c-0.4649,0.20139 -1.39758,0.59747 -1.85599,0.80002c-0.8942,0.39508 -2.12247,0.99307 -2.85602,1.39999c-0.70905,0.39334 -1.40048,0.81952 -2.53867,1.39999c-0.40598,0.20703 -1.27509,0.60324 -2.1875,1c-0.46378,0.20166 -1.39951,0.5932 -2.3125,1c-0.88297,0.39343 -1.72153,0.79694 -2.125,1c-0.78299,0.39407 -1.87912,0.99304 -2.55499,1.39868c-0.95093,0.57074 -1.51364,0.9631 -2.56516,1.5798c-0.67841,0.39789 -1.31656,0.71793 -2.3215,1.22153c-0.59973,0.30054 -1.59628,0.80762 -2.1955,1.09549c-0.74283,0.35684 -1.80386,0.59885 -2.72568,0.92599c-0.68124,0.24176 -1.14459,1.15619 -1.90033,1.65701c-0.73926,0.48993 -1.7785,0.12149 -2.57849,0.12149l-0.84283,0.05716" id="svg_18" stroke-width="2" stroke="#000" fill="none"/>
  <path t="49496,49512,49512,49512,49512,49512,49512,49512,49512,49512,49512,49512,49512,49512,49512,49512,49512,49532,49532,49545,49562,49562,49562,49579,49579,49579,49579,49579,49595,49595,49595,49595,49612,49612,49612,49612,49629,49629,49629,49629,49645,49645,49645,49645,49662,49662,49662,49662,49679,49679,49679,49695,49695,49695,49712,49712,49712,49712,49729,49729,49745,49745,49762,49762,49779,49779,49779,49795,49795,49812,49829,49829,49845,49862,49862,49879,49879,49879,49895,49913,49913,49929,49966,49966,50010,50109,50109" d="m295,448c2.83334,-1.33334 3.53622,-1.76862 4.32535,-2.27335c0.86005,-0.55008 1.76437,-1.13937 2.6955,-1.7475c0.93689,-0.61188 1.85602,-1.21649 2.74048,-1.79248c1.57031,-1.02267 2.22238,-1.43802 2.784,-1.78934c0.47754,-0.29874 0.88345,-0.54623 1.22552,-0.7515c0.52615,-0.3157 1.36008,-0.82755 1.92465,-1.34586c0.73718,-0.67676 1.46033,-1.31876 2.16183,-1.71066c0.65192,-0.3642 1.48145,-0.74542 2.45251,-1.25098c0.71509,-0.37228 1.09003,-0.56168 1.8075,-1.02502c1.08411,-0.7001 1.73019,-1.25577 2.341,-1.81332c0.58899,-0.53763 1.3696,-1.33881 2.08899,-2.04285c0.44934,-0.43976 1.12451,-1.07104 1.87418,-1.65732c0.80182,-0.62704 1.39734,-1.02527 1.97983,-1.48517c0.91159,-0.71973 1.49896,-1.2623 2.07782,-1.81467c0.56842,-0.54242 1.35419,-1.33334 2.06369,-2.04285c0.43631,-0.43631 1.04956,-1.06213 1.85715,-1.85583c0.59543,-0.58517 1.18011,-1.1434 2.00134,-1.71866c0.60553,-0.42419 1.30905,-0.82166 2.28134,-1.65067c0.5466,-0.46606 1.05759,-0.97974 1.54797,-1.46399c0.96259,-0.95056 1.50632,-1.47556 2.25336,-1.96933c0.68079,-0.44995 1.48801,-1.12515 2.01599,-1.79868c0.65842,-0.83987 1.15637,-1.23721 1.84732,-1.6955c0.90039,-0.5972 1.45135,-1.10449 2.15268,-1.8045c0.70001,-0.69867 1.29123,-1.23935 2.13599,-1.52533c0.84134,-0.28482 1.57745,-0.57974 2.56384,-1.07468c0.59119,-0.29666 1.35931,-0.64154 2.16418,-1.29999c0.67676,-0.55362 1.19324,-1.24585 1.93597,-1.89551c0.66446,-0.58121 1.5,-0.78851 2.20001,-1.22534l0.70001,-0.67917l0.59998,-0.59998" id="svg_19" stroke-width="2" stroke="#000" fill="none"/>
 </g>
 <g display="none">
  <title>muse_image</title>
  <image xlink:href="http://farm1.static.flickr.com/125/374474373_164476f759.jpg" id="muse" height="480" width="640" y="0" x="0"/>
 </g>
 <g display="none">
  <title>bbox</title>
  <rect stroke="#f00" fill="none" stroke-width="3" height="473.6" width="586.24" y="2.56" x="1.28" id="bbox"/>
 </g>
</svg>
