<svg width="640" height="480" xmlns="http://www.w3.org/2000/svg" xmlns:svg="http://www.w3.org/2000/svg" xmlns:xlink="http://www.w3.org/1999/xlink">
 <!-- Sketchy ANNOTATION
  ImageNet ID: n02395406_26048
  URL: http://farm1.static.flickr.com/111/269880887_0b5161ec60.jpg
  Image Width: 500
  Image Height: 375
  BBox X: 2
  BBox Y: 69
  BBox Width: 463
  BBox Height: 232
  Exposure: 2000ms
  Synset Label: pig
  Synset ID: n02395406
  Worker Tag: pig wearing bandana
  Sanity Check: 
   Saved
  Comment: 
   {}
  Worker ID: A2HM35CWB7IIFM
  Assignment ID: 3P1L2B7AD1P3CYBTJARTDJ0SCF7OL4
  HIT ID: 3538U0YQ1FUQ3XAHOZZ15J2CFPV3F4
  Work Time: 216s
  Worker Score: 0.7857
 END ANNOTATION -->
 <g display="inline">
  <title>Layer 1</title>
  <path t="0,208,219,258,272,329,347,354,354,366,384,391,403,403,415,432,432,441,441,452,452,452,465,465,465,480,490,501,502,515,538,550,550,566,587,601,617,637,649,650,666,676,685,699,699,699,716,724,724,735,749,765,796,809,845,845,858,908,932,969,995,1006,1031,1066,1116,1152,1226,1251,1360,1398,1415,1415,1423,1447,1496,1496,1521,1569,1581,1631,1655,1692,1693,1717,1718,1733,1751,1751,1751,1755,1755,1770,1793,1794,1805,1827,1851,1889,1889,1901,1915,1934,1939,1962,1963,1975,1975,2000,2000,2023,2024,2049,2066,2074,2084,2134,2147,2171,2183,2220,2257,2269,2293,2307,2318,2331,2416,2430,2431,2450,2450,2491,2491,2502,2515,2576,2601" d="m470.5,171.89999c0,-1.7 0,-2.59999 0,-3.5c0,-0.89999 0.10696,-1.80652 -0.00134,-2.7c-0.11148,-0.91975 -0.83487,-1.56857 -0.98798,-2.39999c-0.16309,-0.88567 -0.3638,-1.70375 -1.01068,-2.40001c-0.56049,-0.60327 -0.81705,-1.48109 -1.28665,-2.2c-0.46402,-0.7104 -1.36545,-1.10959 -2.11786,-1.5c-0.79047,-0.41016 -1.60992,-0.81462 -2.28082,-1.09999c-0.98837,-0.42041 -1.78616,-0.70517 -2.54532,-0.91467c-1.07709,-0.29724 -1.65787,-0.88095 -2.47467,-1.23267c-0.67914,-0.29243 -1.35699,-0.81328 -2.05634,-1.10533c-0.86496,-0.36121 -1.61111,-0.79993 -2.2175,-1.4265c-0.58063,-0.59996 -1.33118,-1.13895 -2.22086,-1.4355c-0.85764,-0.28587 -1.79999,-0.08534 -2.59998,-0.08534c-0.90002,0 -1.80002,0 -2.74167,0c-0.79169,0 -1.70901,0 -2.453,0c-1.03467,0 -2.00574,0.02536 -2.80533,0c-0.9014,-0.02859 -1.62238,-0.68619 -2.5,-0.94283c-0.8656,-0.25313 -1.85349,0.12419 -2.70001,-0.22383c-0.67108,-0.27589 -1.57321,-0.75383 -2,-1.35417c-0.56589,-0.79601 -0.53436,-1.87869 -1.28534,-2.39383c-0.75653,-0.51897 -1.47424,-0.39899 -1.716,-1.284c-0.21793,-0.79778 -0.80515,-1.47272 -1.5195,-1.7805c-0.89944,-0.38753 -1.88733,-0.13742 -2.77914,-0.01634c-0.82138,0.11151 -1.47244,0.63506 -2.08936,1.39551c-0.60342,0.7438 -0.85278,1.55376 -1.258,2.3c-0.41327,0.76111 -0.35266,1.7 -0.35266,2.59999c0,0.90001 0,1.8 0,2.7c0,0.75717 -0.01825,1.65288 0,2.51601c0.02084,0.98465 0.42252,1.82317 1.02084,2.48399c0.48062,0.53082 1.34656,1.16896 1.6925,1.884c0.42426,0.87691 0.27802,1.94939 0.28665,2.70534c0.01044,0.91084 0.46594,1.64674 0.87866,2.51067c0.40732,0.85265 0.72263,1.48723 1.09601,2.3c0.4075,0.88702 0.64603,1.72095 1.19199,2.43333c0.50693,0.66145 0.828,1.35196 0.83334,2.284c0.00488,0.85199 -0.05066,1.65388 0.03601,2.632c0.08179,0.92297 0.62579,1.63945 0.87866,2.45067c0.26904,0.86307 -0.23703,1.9538 0.30667,2.67867c0.4823,0.64301 0.61658,1.42137 1.13132,2.06866c0.49234,0.61911 1.08023,1.30388 1.48068,2.05266c0.42328,0.79144 0.83698,1.54668 1.52383,1.94284c0.81458,0.46982 1.4538,0.72923 2.18448,1.03633c0.87018,0.36571 1.66901,0.02083 2.65817,0.02083c0.77933,0 1.77866,0 2.59885,0c0.90134,0 1.80133,0 2.70132,0l0.89999,0" id="svg_1" stroke-width="2" stroke="#000" fill="none"/>
  <path t="4505,4689,4701,4714,4738,4738,4750,4774,4787,4799,4800,4815,4824,4824,4835,4835,4849,4849,4864,4873,4885,4898,4922,4947,4947,4958,4970,4983,4983,4998,4998,5007,5020,5020,5031,5031,5047,5047,5048,5057,5068,5068,5069,5081,5081,5098,5098,5106,5107,5118,5131,5148,5155,5155,5168,5192,5204,5217,5217,5230,5241,5241,5253,5253,5266,5266,5283,5291,5314,5331,5388,5401,5401,5401,5413,5413,5431,5431,5431,5431,5438,5438,5462,5462" d="m442.5,112.9c1,1 1.61227,1.35674 2.28534,1.916c0.66916,0.55602 1.42764,0.70183 2.31467,1.10933c0.81274,0.37337 1.6012,0.87748 2.5,0.97484c0.70105,0.07594 1.50211,0.67533 2.38531,0.91583c0.70776,0.19273 1.71713,0.29808 2.49384,0.584c1.00281,0.36916 1.71643,0.48728 2.62085,0.5c0.90015,0.01266 1.65887,0.42124 2.49982,0.87867c0.74753,0.40662 1.09326,1.24537 1.60468,1.82133c0.65024,0.73228 1.043,1.45309 1.46216,2.3c0.34406,0.69517 0.86752,1.36526 1.43335,2.13866c0.5408,0.7392 1.47098,0.95074 2,1.508c0.70978,0.74763 0.95483,1.60496 1.72131,2.33183c0.46045,0.43665 1.20605,0.80423 2.05334,1.42151c0.80307,0.58508 1.50433,0.94078 2.14133,1.48534c0.80338,0.68678 0.96701,1.36797 1.68533,2.228c0.49011,0.58682 1.51093,0.63177 2.22934,0.97067c0.8783,0.41431 1.74384,0.61749 2.39999,1.20132c0.67493,0.60054 1.00354,1.14633 1.73334,1.74001c0.64908,0.528 0.97781,1.45496 1.63467,2.17467c0.53348,0.5845 0.79059,1.44783 1.08533,2.28532c0.2594,0.73711 0.56998,1.71875 0.716,2.49384c0.18951,1.00586 0.76114,1.54852 0.97916,2.52083c0.19696,0.87843 -0.14755,1.81618 0.02219,2.69867c0.14581,0.75809 1.19067,0.91458 1.82401,1.248c0.72461,0.38148 1.42062,1.21915 1.836,1.8c0.66272,0.92671 1.1048,1.43648 1.81781,2.2325c0.45801,0.51131 1.15668,1.37801 1.56085,2.1355l0.40265,0.70667l0.55734,0.67867" id="svg_2" stroke-width="2" stroke="#000" fill="none"/>
  <path t="6606,6776,6789,6812,6812,6832,6832,6837,6873,6898,6935,6972,7046,7071,7095,7095,7107,7156,7181,7267,7303,7352,8961,8975,9071,9108,9145,9145,9182,9219,9231,9248,9255,9268,9268,9268,9292,9292,9293,9317,9354,9354,9366,9380,9380,9391,9403,9427,9428,9452,9526,9540,9543,9559,9563,9564,9574,9574,9662,9709" d="m493.5,161.89999c0.05716,1.70001 0.5737,2.48517 1.09982,3.3215c0.42365,0.67342 0.72055,1.68097 0.87485,2.45717c0.17712,0.89108 0.83813,1.39236 1.02533,2.22133c0.19958,0.88388 0.95728,1.28236 1,2.20001c0.04184,0.89902 0,1.79999 0,2.59999c0,0.90001 0,1.8 0,2.7c0,0.90001 0,1.8 0,2.70001c0,0.89966 -0.17981,1.23732 0.02084,0.29999c0.18079,-0.84453 0.96655,-1.41496 1.77914,-1.49866c0.89529,-0.09222 1.80002,-0.00134 2.70001,-0.00134c0.89999,0 1.80493,-0.02899 2.82166,0.00034c0.72089,0.0208 1.39005,0.11259 2.36102,0.56767c0.82043,0.38452 1.52222,0.92207 2.50299,1.32216c0.7963,0.32483 1.41699,0.71783 2.11432,1.40984c0.7027,0.69731 1.27985,1.30583 2.10004,1.67467c0.78156,0.35147 1.2135,1.1465 1.68396,1.74001c0.58545,0.73856 1.26019,1.07584 2.01599,1.50684c0.66913,0.38158 1.27667,1.22401 2.06671,1.77849c0.62329,0.43744 1.5,1 1.88147,1.64284l0.78516,0.52383l0.45068,0.74933" id="svg_3" stroke-width="2" stroke="#000" fill="none"/>
  <path t="11186,11467,11491,11515,11527,11541,11562,11580,11588,11624,11650,11687,11687,11713,11723,11734,11759,11809,11809,11833,11833,11846,11869,11920,12017,12275,12373,12373,12471,12496,12514,12521,12619,12643" d="m523.5,192.89999c1.79999,0 2.70001,0 3.59998,0c0.90002,0 1.8056,0.00893 2.40002,-0.5c0.59143,-0.50636 1.2251,-1.04329 1.87866,-1.72133c0.55859,-0.57954 1.15796,-1.10478 1.92133,-1.49466c0.75287,-0.38452 1.70001,-0.28177 2.60004,-0.28401c0.89996,-0.00224 1.74359,-0.39305 2.48529,-0.71599c0.89136,-0.38809 1.63068,-0.28334 2.59387,-0.28401c0.92084,-0.00064 1.8208,0 2.72083,0c0.89996,0 1.79999,0 2.59998,0c0.90002,0 1.79999,0 2.76404,-0.036l0.48865,-0.61133l0.74866,-0.35133l0.89868,-0.00134" id="svg_4" stroke-width="2" stroke="#000" fill="none"/>
  <path t="13307,13735,13784,13797,13812,13834,13858,13884,13897,13920,13957,13957,13995,14008,14044,14069,14093,14106" d="m552.5,186.89999c1.22131,0.87868 1.90582,1.38689 2.42535,1.97467c0.51514,0.58282 0.57465,1.52533 0.57465,2.42534c0,0.89999 0,1.8 0,2.7c0,0.89999 0,1.7 0,2.60001c0,0.89999 0,1.79999 0,2.7l0,0.89999l0,0.90001" id="svg_5" stroke-width="2" stroke="#000" fill="none"/>
  <path t="14817,15001,15014,15036,15039,15050,15064,15086,15086,15098,15098,15147,15172,15172,15209,15222,15258,15283,15307,15307,15332,15332,15380,15405,15405,15418,15431,15449,15457,15491,15492,15564,15613,15651,15675,15782,15782,15787,15798,15813,15823,15835,15860,15921,15932,15946,15994,16007,16031,16056,16073,16180" d="m555.5,202.89999c0,1.8 0,2.70001 0,3.60001c0,0.8 0,1.7 0,2.60133c0,0.96533 0,1.79866 0,2.77716c0,0.82018 0,1.6575 0,2.50551c0,0.86333 0,1.88 0,2.81599c0,0.90001 0.03394,1.80064 0,2.7c-0.02863,0.75879 -0.37994,1.64172 -0.64734,2.34734c-0.33466,0.88313 -0.68958,1.68391 -1.06866,2.45267c-0.41681,0.84521 -0.27203,1.82516 -0.70935,2.60001c-0.40991,0.72627 -0.70117,1.63188 -1.1853,2.2c-0.63513,0.74536 -0.84399,1.70026 -1.61084,2.2785c-0.70813,0.53394 -1.7785,0.12149 -2.57849,0.12149c-0.90002,0 -1.79999,0 -2.70001,0c-0.90002,0 -1.79999,0 -2.70001,0c-0.89996,0 -2.03241,0.43425 -2.6333,-0.16666c-0.60095,-0.60092 -0.33337,-1.66667 -1.08136,-2.11867l-0.08533,-0.81467l0,-0.90001l-0.22131,-0.87866" id="svg_6" stroke-width="2" stroke="#000" fill="none"/>
  <path t="17333,17528,17541,17541,17554,17554,17565,17565,17580,17580,17591,17603,17663,17680,17701,17715,17733,17738,17750,17767,17782,17799,17848,17864,17873,17897,17897,17934,17947,17965,17972,17983,18008,18021,18057,18069,18081,18081,18096,18107,18130,18148,18167,18191,18216,18241,18241,18253,18254,18265,18280,18290,18302,18315,18340,18340,18351,18412,18522,18560,18584,18646,18670" d="m537.5,225.89999c-0.87885,1.22151 -1.31451,2.02689 -2.02081,2.5c-0.7926,0.53096 -1.45001,1.00879 -2.07935,1.60001c-0.6485,0.60919 -1.42554,1.03676 -2.03851,1.5c-0.81689,0.61734 -1.27783,1.38449 -1.86133,1.89999c-0.63788,0.56357 -1.4176,1.05449 -1.87848,1.72151c-0.50403,0.72952 -0.66992,1.44785 -1.06433,2.13567c-0.46985,0.8194 0.12335,1.94347 -0.34119,2.55882c-0.51575,0.68321 -0.54218,1.53369 -1.15198,2.05867c-0.71606,0.6165 -1.2887,0.91432 -2.06403,1.5045c-0.73444,0.55905 -1.31775,1.20378 -2.11066,1.51016c-0.82965,0.32057 -1.78937,0.01067 -2.68933,0.01067c-0.90002,0 -1.85345,-0.18137 -2.70001,0.16667c-0.67108,0.27589 -1.46289,0.49387 -2.38934,0.84401c-0.73199,0.27664 -1.22125,0.98398 -2.11066,0.98932c-0.89996,0.0054 -1.80457,-0.01077 -2.66666,0c-0.83353,0.01042 -1.78287,0.27435 -2.52884,0.64734c-0.77838,0.38919 -1.7045,0.35266 -2.60449,0.35266c-0.90002,0 -1.80002,0 -2.70001,0c-0.79999,0 -1.70001,0 -2.60001,0c-0.89999,0 -1.79999,0 -2.69998,0l-0.90002,0l-0.89999,0" id="svg_7" stroke-width="2" stroke="#000" fill="none"/>
  <path t="22330,22525,22537,22537,22549,22549,22562,22562,22579,22586,22598,22613,22613,22647,22671,22684,22684,22697,22713,22713,22722,22722,22733,22733,22733,22746,22746,22763,22764,22770,22783,22807,22807,22819,22831,22832,22856,22856,22869,22881,22881,22897,22897,22905,22906,22906,22917,22917,22918,22930,22931,22931,22946,22946,22946,22955,22955,22967,22967,22982,22998,23005,23028,23048,23065,23081,23081,23090,23090,23102,23102,23115,23115,23131,23132,23140,23140,23140,23151,23165,23165,23182,23182,23188,23189,23200,23215,23215,23215,23232,23238,23238,23249,23265,23282,23287,23299,23323,23323,23335,23347,23347,23364,23364,23373,23373,23383,23383,23396,23397,23414,23421" d="m491.5,247.89999c-1.38934,0.86134 -1.90533,1.82251 -1.98932,2.62534c-0.08936,0.8541 0.02112,1.75626 -0.36334,2.62201c-0.29752,0.66995 -0.328,1.69939 -0.86868,2.50983c-0.48428,0.72592 -1.08969,1.28738 -1.49466,2.04285c-0.40521,0.75595 -0.69385,1.62576 -1.384,2.29984c-0.57892,0.56543 -1.4408,0.83768 -2.22131,1.12164c-0.88138,0.32065 -1.68085,0.85156 -2.30402,1.41452c-0.72479,0.65479 -1.16632,1.23734 -1.77917,1.65414c-0.9357,0.63638 -1.80783,0.59122 -2.71014,0.99384c-0.7388,0.32965 -1.47528,0.81003 -1.99518,1.4205c-0.5481,0.64362 -1.44501,1.04504 -2.133,1.59552c-0.80515,0.6442 -1.25717,1.19998 -1.95718,1.89999c-0.59998,0.60001 -1.17136,1.25314 -1.96664,1.79999c-0.63049,0.43353 -1.6647,0.84174 -2.35419,1c-1.01923,0.23395 -1.74603,0.42017 -2.53098,0.7045c-1.03461,0.37479 -1.71912,0.70407 -2.40085,0.99551c-0.96371,0.41202 -1.77451,0.7218 -2.65182,0.94284c-0.88782,0.22366 -1.78903,0.28085 -2.6235,0.38248c-0.94229,0.11478 -1.73077,0.49506 -2.37201,1.07452c-0.6004,0.54257 -1.49994,0.89481 -2.39999,0.90015c-0.89996,0.00531 -1.79999,0 -2.70001,0c-0.89999,0 -1.79999,0 -2.55716,0c-0.89999,0 -1.64734,0 -2.64282,0c-0.80002,0 -1.80737,0.08948 -2.76401,-0.03598c-0.82852,-0.10864 -1.62753,-0.68835 -2.604,-0.88c-0.72299,-0.14191 -1.53482,0.01129 -2.41766,-0.44116c-0.92331,-0.47321 -1.42459,-1.27621 -2.297,-1.56018c-0.78937,-0.25693 -1.34482,-0.81009 -1.60001,-1.60001c-0.28506,-0.88239 -0.92419,-1.6452 -1.31732,-2.30798c-0.40717,-0.68646 -1.00058,-1.53812 -1.60001,-2.17468c-0.56454,-0.59949 -1.05667,-1.42514 -1.57468,-2.02533c-0.54263,-0.62872 -0.90121,-1.53845 -1.72531,-1.922c-0.76672,-0.35684 -1.33731,-0.82779 -2.10001,-1.44199c-0.74686,-0.60144 -1.50983,-0.63516 -2.42535,-1.04669c-0.71262,-0.32031 -1.52783,-0.99298 -2.05865,-1.36398c-0.91769,-0.64142 -1.52051,-0.84283 -2.51468,-1.116l-0.94415,-0.13669l-0.89551,-0.30447l-0.595,-0.64285" id="svg_8" stroke-width="2" stroke="#000" fill="none"/>
  <path t="26469,26675,26689,26703,26714,26724,26735,26759,26773,26797,26812,26832,26846,26862,26862,26870,26882,26882,26896,26896,26896,26912,26912,26912,26919,26920,26931,26931,26945,26945,26962,26962,26968,26968,26981,26996,26996,27005,27019,27029,27046,27046,27054,27054,27066,27066,27066,27078,27079,27095,27096,27096,27115,27115,27129,27152,27203,27252,27350,27368,27410,27435,27460,27473" d="m443.5,112.9c-1.60001,-0.61066 -2.39639,-1.23296 -2.83334,-2c-0.44424,-0.77986 -0.93024,-1.31116 -1.51932,-1.94733c-0.53299,-0.57558 -1.40677,-0.99386 -1.64285,-1.75716c-0.26486,-0.85639 -0.38834,-1.7226 -0.92181,-2.49417c-0.48868,-0.70679 -1.24539,-0.80343 -2.08267,-1.30133c-0.7265,-0.43201 -1.45877,-0.51488 -2.40134,-1.06934c-0.66074,-0.38867 -1.25702,-0.99416 -2.01999,-1.409c-0.77942,-0.42377 -1.61606,-0.70767 -2.65701,-0.90034c-0.8735,-0.16167 -1.8118,-0.20303 -2.51099,-0.73199c-0.67761,-0.51263 -1.20578,-1.11154 -2.17868,-1.30534c-0.7226,-0.14393 -1.9183,-0.20514 -2.56,-0.50933c-0.90411,-0.42861 -1.62576,-0.8168 -2.37201,-1.222c-0.76111,-0.41328 -1.69998,-0.35267 -2.60449,-0.35267c-1.01682,0 -1.6955,0 -2.67432,0c-0.83102,0 -1.79053,0 -2.54202,0c-0.79648,0 -1.79517,0 -2.7045,0c-0.94131,0 -1.72284,0 -2.51334,0c-1.11832,0 -1.95233,0 -2.86133,0c-0.89999,0 -1.81735,0.08949 -2.42532,0.57467c-0.62448,0.49837 -1.53867,0.46133 -1.97018,1.12983l-0.00449,0.8955l0,0.9l-0.01068,0.88934" id="svg_9" stroke-width="2" stroke="#000" fill="none"/>
  <path t="29168,29351,29362,29363,29363,29386,29387,29387,29391,29391,29391,29402,29402,29402,29402,29412,29412,29424,29436,29436,29460,29474,29474,29474,29484,29496,29513,29513,29513,29513,29522,29522,29522,29523,29533,29534,29534,29546,29546,29546,29546,29562,29562,29562,29562,29571,29571,29571,29582,29582,29595,29595,29612,29612,29619,29619,29619,29632,29632,29632,29632,29647,29647,29647,29647,29662,29662,29662,29662,29662,29669,29669,29669,29669,29670,29681,29682,29682,29695,29696,29696,29706,29706,29718,29718,29718,29729,29729,29729,29729,29747,29747,29747,29747,29747,29755,29755,29755,29755,29755,29755,29755,29766,29767,29767,29767,29767,29767,29767,29767" d="m396.5,100.9c-1.60001,0.64667 -2.1261,1.30778 -2.5,2.04166c-0.32294,0.63383 -0.70001,1.64233 -1,2.45834c-0.29999,0.816 -0.69193,1.82169 -1.02084,2.52084c-0.35443,0.75332 -0.80264,1.62052 -1.12732,2.28c-0.33337,0.67716 -0.86652,1.61622 -1.18118,2.64317c-0.22263,0.72655 -0.15881,1.70749 -0.45465,2.54c-0.25092,0.70609 -0.59955,1.78092 -0.88266,2.68266c-0.21198,0.67515 -0.67084,1.32554 -0.82266,2.42267c-0.11407,0.82442 -0.17944,1.74344 -0.36334,2.4295c-0.22458,0.83781 -0.40762,1.46353 -0.56332,2.86517c-0.08212,0.73911 -0.09094,1.49235 -0.16803,2.232c-0.11105,1.06558 -0.3399,2.0515 -0.52664,2.67332c-0.36578,1.21799 -0.60846,1.806 -0.8685,2.73151c-0.17773,0.63255 -0.40759,1.99962 -0.46817,2.72733c-0.06079,0.73038 -0.01785,1.45677 -0.27417,2.70883c-0.16049,0.78404 -0.49216,1.42957 -0.97717,2.44301c-0.28592,0.59743 -0.68604,1.59319 -0.76532,2.38933c-0.10352,1.03949 -0.02972,1.87204 -0.03616,2.75368c-0.00534,0.72905 -0.01129,1.5732 -0.22119,2.75716c-0.10797,0.60895 -0.37244,1.53198 -0.49466,2.18517c-0.19296,1.03111 -0.2326,1.77625 -0.284,2.55634c-0.05402,0.81992 -0.15668,2.12633 -0.284,3.04234c-0.13107,0.94281 -0.22589,1.41451 -0.36334,2.36333c-0.20047,1.38399 -0.24396,1.82996 -0.2955,2.68649c-0.04831,0.80304 -0.05649,1.89418 -0.05716,2.82333c-0.00058,0.78151 0,1.72551 0,2.72684c0,0.81599 0,1.632 0,2.632c0,0.90933 0.01236,1.85083 -0.00449,2.64116c-0.01819,0.85388 -0.14542,2.04639 -0.28085,2.64417c-0.20972,0.92574 -0.42749,1.55345 -0.71466,2.56534c-0.20462,0.72101 -0.40781,1.49776 -0.564,2.35201c-0.17096,0.93518 -0.2789,1.98067 -0.35333,3.13733c-0.03958,0.6152 -0.06598,1.25211 -0.10352,1.90649c-0.03842,0.66963 -0.12195,2.04488 -0.3125,3.4375c-0.09598,0.70146 -0.22989,1.39697 -0.37198,2.0865c-0.14066,0.6825 -0.444,2.00551 -0.58936,2.642l-0.13733,0.61551" id="svg_10" stroke-width="2" stroke="#000" fill="none"/>
  <path t="30468,30603,30603,30619,30619,30619,30634,30634,30634,30640,30640,30640,30650,30650,30663,30663,30679,30679,30688,30688,30688,30700,30700,30712,30712,30729,30730,30737,30738,30749,30749,30762,30762,30779,30779,30786,30798,30798,30798,30812,30812,30828,30828,30835,30835,30847,30847,30872,30872,30883,30896,30896,30912,30921,30921,30933,30945,30945,30945,30962,30962,30970,30971,30982,30982,30996,31011,31012,31019,31019,31031,31031,31046,31056,31056,31068,31081,31096,31117,31118,31129,31129,31129,31129,31146,31146,31146,31146,31154,31154,31155,31166,31166,31364,31364" d="m376.5,200.89999c0,1.84668 0,2.68668 0,3.68535c0,0.83549 0,1.71599 0,2.61449c0,0.88951 0,1.74301 0,2.77867c0,0.6855 -0.03067,1.52078 0.00449,2.5215c0.02814,0.80124 0.30103,1.79251 0.57019,2.60001c0.33051,0.9915 0.41489,1.79982 0.42532,2.79999c0.00833,0.79996 -0.03061,1.60062 0.00449,2.60001c0.02814,0.80124 0.28668,1.79747 0.49551,2.39999c0.34521,0.99596 0.45828,1.78955 0.5,2.83334c0.03168,0.79218 0.30154,1.64354 0.57468,2.34132c0.36499,0.93242 0.44952,1.73392 0.86133,2.65068c0.32016,0.71272 1.0083,1.51762 1.564,2.34132c0.4361,0.64641 0.69226,1.24178 1.20001,2.23201c0.39401,0.76842 0.83899,1.63945 1.43597,2.19066c0.62793,0.57979 1.40701,0.84561 2.3425,1.51067c0.64337,0.45738 1.22153,1.10001 1.8215,1.7c0.70001,0.70001 1.30002,1.3 1.90002,1.90001c0.69998,0.7 1.39288,1.22459 1.86398,1.89999c0.52536,0.75316 0.58524,1.73853 0.79318,2.40533c0.23401,0.75035 0.77579,1.83279 1.12198,2.47383c0.44296,0.82024 0.50211,1.73163 0.521,2.7205c0.0145,0.7588 0.42902,1.56197 1.09967,2.022c0.6315,0.43318 0.68942,1.48924 1.06952,2.29434c0.38556,0.81662 1.30215,1.06036 1.80981,2.00482c0.3959,0.73654 0.53448,1.71371 1.21951,2.30984c0.63983,0.55676 0.5097,1.60843 1.172,2.11664c0.55545,0.42624 1.68771,0.32996 2.33734,0.49936c0.72681,0.18951 1.50674,0.41153 2.69165,0.87466c0.79904,0.31232 1.56122,0.6734 2.28601,1.026c0.98447,0.47891 1.79999,0.89548 2.49301,1.242c0.82132,0.41064 1.59998,0.81064 2.48798,1.41064l0.3815,0.64285" id="svg_11" stroke-width="2" stroke="#000" fill="none"/>
  <path t="32225,32421,32421,32421,32421,32437,32437,32438,32454,32455,32455,32459,32460,32460,32467,32467,32492,32505,32529,32545,32566,32578,32653,32654,32751,32752,32769,32864,32866,32949,32949,32980,33022,33022,33022,33095,33127,33447,33448,33462,33488,33499,33512,33513,33530,33531,33531,33536,33536,33536,33547,33547,33547,33548,33562,33562,33572,33586,33597,33613,33622,33622,33634,33647,33671,33683,33708,33720,33720,33732,33746,33763,33764,33769,33769,33769,33781,33781,33797,33806,33818,33819,33830,33831,33855" d="m419.5,268.89999c1.48532,2.96802 1.82642,3.65588 2.21066,4.34933c0.38123,0.68799 0.96475,1.62744 1.58932,2.37866c0.38525,0.46338 1.207,1.26514 1.7955,1.87201c0.57541,0.59338 1.25522,1.38843 1.64734,1.99551c0.47406,0.73395 1.03882,1.66437 1.55716,2.20316c0.67685,0.70355 1.75323,0.89877 2.14285,1.5585c0.48032,0.81332 -0.02496,1.84662 0.05731,2.74283c0.08368,0.91144 0.69971,1.496 0.91452,2.384c0.20389,0.8428 0.08533,1.76334 0.08533,2.68268c0,0.83331 0,1.81183 0,2.63199c0,0.87332 0,1.74399 0,2.70132c0,0.73199 0.10251,1.69101 -0.00134,2.70001c-0.08362,0.81259 -0.65424,1.59781 -1.49866,1.77917c-0.88016,0.18903 -1.88779,0.21338 -2.70132,-0.26718c-0.66177,-0.3909 -1.12857,-1.24887 -1.62402,-1.97333c-0.3555,-0.51984 -1.00327,-1.57477 -1.42648,-2.28601c-0.40503,-0.68066 -1.07419,-1.62555 -1.51483,-2.13531c-0.46567,-0.53873 -1.25415,-1.24658 -1.86902,-2.17435c-0.37698,-0.56885 -0.78561,-1.40186 -1.24298,-2.24283c-0.40652,-0.7475 -0.93527,-1.32401 -1.40668,-2.10016c-0.41083,-0.67636 -1.20459,-1.2934 -1.63065,-1.99869c-0.44812,-0.74185 -0.91284,-1.25348 -1.0947,-2.20132c-0.15936,-0.83066 -0.88184,-1.32199 -1.46848,-2.10001c-0.55905,-0.74142 -0.52084,-1.66666 -0.52084,-2.52081c0,-0.97919 0,-1.77917 0,-2.57919c0,-0.99548 0,-1.74283 0,-2.76398c0,-0.94052 0,-1.80267 0,-2.63602l0,-0.97849l0,-0.82016l0,-0.90134" id="svg_12" stroke-width="2" stroke="#000" fill="none"/>
  <path t="35505,35675,35686,35687,35703,35703,35718,35723,35858,35882,35955,35980,36004,36019,36019,36035,36035,36047,36078,36096,36101,36126,36126,36138,36139,36163,36178,36199,36236,36248,36261,36261,36273,36274,36285,36285,36298,36298,36312,36312,36312,36323,36323,36335,36346,36347,36362,36372,36384,36384,36396,36396,36412,36421,36422,36422,36422,36432,36432,36433,36433,36433,36445,36445,36445,36445,36462,36463,36470,36470" d="m398.5,97.9c-0.5,-2.5 -0.83691,-3.32957 -1.02533,-4.17467c-0.21216,-0.95158 -0.45468,-1.76245 -1.02734,-2.46816c-0.50198,-0.6186 -1.17938,-1.17495 -2.04715,-1.35734c-0.79233,-0.16653 -1.25589,-0.97123 -2.1015,-0.99983c-0.96478,-0.03263 -1.79868,0 -2.63202,0c-0.86215,0 -1.76666,0 -2.66666,0c-0.89999,0 -1.82434,-0.07848 -2.66666,0.16666c-0.86179,0.25081 -1.6575,0.72707 -2.52884,0.82883c-0.86359,0.10085 -1.35345,0.83477 -2.10583,1.00317c-0.87885,0.1967 -1.6756,0.61321 -2.51999,0.88c-0.82562,0.26086 -1.76184,0.47015 -2.43134,0.76866c-0.87036,0.38808 -1.67093,0.33503 -2.64868,0.638c-0.85568,0.26514 -1.76041,0.72802 -2.54684,1.01017c-0.7858,0.28192 -1.70944,0.60059 -2.51016,0.68366c-0.84189,0.08736 -1.86298,0.02077 -2.54166,0.02084c-0.97833,0.00008 -1.69482,0.44205 -2.44284,0.87867c-0.65363,0.38152 -1.70383,0.36674 -2.35583,0.92266c-0.65729,0.56042 -1.52237,1.2292 -2.22467,1.49417c-0.55139,0.20804 -1.54559,0.45426 -2.71933,0.58317c-0.86023,0.09447 -1.30826,0.09148 -2.20667,0.14666c-0.88293,0.05423 -2.11081,0.17883 -2.83182,0.32734c-0.96652,0.19908 -1.53085,0.36333 -2.76169,0.59016l-0.64648,0.0465l-1.0105,0.01067l-0.96417,0" id="svg_13" stroke-width="2" stroke="#000" fill="none"/>
  <path t="37332,37464,37465,37477,37501,37501,37526,37526,37526,37539,37540,37554,37563,37579,37588,37598,37599,37599,37612,37612,37612,37628,37628,37636,37636,37648,37648,37662,37662,37679,37685,37697,37713,37723,37733,37733,37746,37763,37763,37763,37771,37771,37783,37783,37783,37795,37813,37832,37832,37856,37856,37931,38006,38030,38153,38214,38263,38264,38362,38384,38388,38434,38508,38545,38570,38585,38594,38606,38606,38618,38618,38630,38644,38645,38655,38655,38667,38678,38678,38695,38695,38704,38705,38716,38716,38728,38728,38745,38745,38753,38753,38777,38777,38802,38803,38803,38819,38819,38829,38830,38830,38845,38846,38846,38852,38852,38852,38852,38863,38863,38863,38887,38887,38888" d="m342.5,99.9c-1.82535,1.38934 -2.49161,1.83298 -3.5,1.97916c-0.81342,0.11792 -1.74667,0.02084 -2.66666,0.02084c-0.78152,0 -1.57202,0 -2.69034,0c-0.83401,0 -1.74301,0 -2.64301,0c-0.89999,0 -1.8045,0 -2.66666,0c-0.875,0 -1.52002,0 -2.51733,0c-0.81601,0 -1.63202,0 -2.85886,0c-0.64648,0 -1.65717,0 -2.45715,0c-1,0 -1.78934,0 -2.83334,0c-0.86215,0 -1.76666,0 -2.66666,0c-0.89999,0 -1.79999,-0.00008 -2.70001,0c-0.89999,0.00008 -1.56042,0.16372 -2.47198,0.57467c-0.84085,0.37906 -1.5889,0.40334 -2.37982,0.42083c-1.02643,0.0227 -1.92734,0.0045 -2.94818,0.0045c-0.78934,0 -1.51474,-0.01202 -2.58932,0c-0.9317,0.01042 -1.72659,0.23469 -2.58533,0.57467c-0.79901,0.31633 -1.62421,0.40665 -2.52536,0.42533c-0.90051,0.01867 -1.61032,0.61812 -2.5,0.91467c-0.85764,0.28587 -1.79999,0.08533 -2.59998,0.08533c-0.90002,0 -1.88379,-0.35429 -2.67917,0.02084c-0.70535,0.33266 -0.88754,1.55888 -0.5,2.45833c0.3078,0.71435 0.94644,1.27976 1.41516,1.92084c0.56952,0.77896 1.30652,1.32976 1.76266,2.084c0.40433,0.66858 0.57382,1.68456 0.96799,2.516c0.33228,0.70088 1.07703,1.46201 1.39734,2.17467c0.4115,0.91552 0.5993,1.8277 1.04666,2.46133c0.48569,0.68792 0.81836,1.41126 1.4895,2.3425c0.38235,0.53052 1.22275,1.11884 1.89984,1.5215c0.8353,0.49673 1.46625,1.01357 2.20132,1.7c0.54645,0.51027 1.43799,1.13594 2.00934,1.36401c0.9642,0.38489 1.80783,0.34888 2.78934,0.60266c0.81085,0.20965 1.57974,0.66122 2.11465,1.31867c0.54706,0.6724 0.99387,1.71072 1.28534,2.32533c0.41211,0.86903 0.80435,1.87312 1,2.42534c0.30685,0.8661 0.59109,1.76706 0.90451,2.664c0.21039,0.60211 0.55606,1.51244 1.01666,2.39983c0.46863,0.90286 0.8175,1.46417 1.34549,2.53351l0.22351,0.705l0.15799,0.8" id="svg_14" stroke-width="2" stroke="#000" fill="none"/>
  <path t="39566,39736,39736,39752,39752,39752,39752,39764,39764,39764,39764,39772,39772,39772,39772,39772,39784,39784,39784,39784,39784,39797,39797,39797,39797,39797,39797,39812,39813,39813,39813,39813,39821,39822,39822,39822,39834,39834,39834,39834,39834,39845,39845,39845,39846,39846,39862,39862,39862,39862,39870,39870,39870,39870,39882,39882,39882,39895,39895,39895,39911,39912,39912,39919,39919,39919,39931,39931,39932,39944,39944,39945,39962,39962,39963,39968,39968,39968,39980,39980,39980,39996,39996,39996,40005,40005,40017,40018,40030,40030,40046,40046,40046,40056,40056,40056,40066,40066,40066,40078,40079,40079,40079,40096,40104,40104" d="m314.5,142.89999c0.44666,1.84668 0.75085,2.46805 1.32132,3.42168c0.32526,0.5437 0.87579,1.41353 1.19467,2.065c0.49835,1.01813 0.73425,1.76953 0.98401,2.53416c0.25565,0.78268 0.64828,1.98676 0.98666,2.77783c0.34164,0.79877 0.52814,1.19589 0.97501,1.94417c0.6658,1.11485 1.21478,1.78069 1.77432,2.43182c0.5658,0.65842 0.88165,0.96655 1.76401,1.992c0.6105,0.70952 1.20807,1.46082 1.52084,1.83333c0.63113,0.75172 0.93427,1.14633 2.00034,2.17851c0.70752,0.68501 1.09647,0.98204 1.81747,1.61082c0.69492,0.60603 1.63138,1.49947 2.15152,2.11067c0.50162,0.58946 0.94208,1.21294 1.67648,2.09999c0.5065,0.6118 1.07245,1.20998 1.608,1.87201c0.55588,0.68716 1.08371,1.44745 1.53867,2.29601c0.46603,0.8692 0.65872,1.32629 1.02502,2.22665c0.51437,1.2643 0.7796,2.03349 1.02567,2.73334c0.22839,0.6496 0.63599,1.87199 0.836,2.472c0.29999,0.89999 0.49872,1.50043 0.89999,2.69983c0.19934,0.59589 0.48044,1.47169 0.89999,2.53351c0.28244,0.7148 0.65591,1.33186 0.87851,2.36684c0.17386,0.80833 0.0983,1.48549 0.12415,2.48383c0.02115,0.81665 0.06821,1.67781 0.56668,2.632c0.37949,0.72643 1.01218,1.33249 1.54401,2.36934c0.27414,0.53447 0.5752,1.41016 0.76532,2.61449c0.09351,0.59229 0.07785,1.47554 0.28799,2.53351c0.14398,0.72482 0.55127,1.61395 0.93335,2.588c0.20731,0.5285 0.48239,1.36015 0.89999,2.412c0.2836,0.71434 0.72974,1.54259 0.91467,2.56667c0.14279,0.79068 0.08533,1.79984 0.08533,2.57916c0,0.85417 -0.00601,1.69208 0.22168,2.56367c0.19031,0.72844 0.48047,1.54373 1.09949,2.53583c0.45166,0.72386 1.07098,1.33115 1.436,2.34283c0.18732,0.51917 0.21085,1.39606 0.40948,2.57849c0.15082,0.89763 0.33334,1.45834 0.54935,2.22934l0.25867,1.09866l0.30933,0.87334l0.43201,0.68401" id="svg_15" stroke-width="2" stroke="#000" fill="none"/>
  <path t="40682,40866,40884,40884,40884,40900,40901,40901,40902,40902,40913,40913,40913,40929,40929,40938,40938,40950,40950,40950,40962,40988,40988,40999,41011,41029,41030,41036,41048,41048,41048,41061,41061,41079,41079,41079,41086,41086,41086,41098,41098,41098,41123,41123,41135,41135,41173,41188,41205,41210,41211,41258,41272,41281,41294,41312,41320,41320,41343,41356,41380,41418,41429,41445,41454,41466,41466,41478,41502,41502,41540,41540,41567,41567,41584,41614,41614,41664,41664,41713,41732,41738,41738,41748" d="m352.5,229.89999c1.52084,1.5 2.32556,2.09349 3.02084,2.52084c0.58395,0.35892 1.37915,0.96317 1.97916,1.47916c0.60001,0.51601 1.61926,1.21384 2.164,1.62534c0.85507,0.6459 1.31888,1.40721 1.72,1.976c0.57465,0.81483 1.19595,1.30569 1.78265,2.23201c0.47095,0.74358 0.75586,1.50583 1.35419,2.16666c0.48062,0.53082 1.46237,1.28682 1.85782,2.10001c0.31903,0.65604 0.73373,1.48222 1.09601,2.3c0.3476,0.78465 0.87369,1.35722 1.52533,2.12083c0.64948,0.76108 1.00269,1.49863 1.29999,2.08049c0.50909,0.99634 0.78308,1.6371 1.52151,2.59868c0.48138,0.62686 1.08075,1.20224 1.6785,1.79999c0.59775,0.59776 1.16412,1.20941 2,1.83334c0.76932,0.57425 1.39587,0.87042 2.39868,1.36533c0.57813,0.28531 1.57562,0.71301 2.39999,0.80002c0.89825,0.09479 1.66437,0.57498 2.50131,0.94864c0.77219,0.34476 1.51553,0.73114 2.30002,1.078c0.81802,0.36169 1.6937,0.75818 2.34732,1.32733c0.59656,0.51947 1.36234,0.99387 1.85266,1.44867c0.71442,0.66266 1.52338,1.10867 2.17468,1.62402c0.6666,0.52747 1.52533,0.57239 2.42532,0.57465c0.89999,0.00226 1.64163,0.31656 2.39999,0.716c0.78867,0.41541 1.67389,0.59839 2.41068,0.85867c0.97568,0.34467 1.76834,0.41492 2.76782,0.42532c0.82016,0.00854 1.5318,0.3187 2.35486,0.83334c0.59982,0.37503 1.62033,0.43286 2.36215,0.814c0.78131,0.40143 1.60449,0.70984 2.3045,1.35266l0.60001,0.60001l0.60001,0.59866" id="svg_16" stroke-width="2" stroke="#000" fill="none"/>
  <path t="44154,44341,44341,44353,44353,44369,44379,44380,44389,44399,44400,44413,44413,44437,44461,44486,44498,44511,44527,44528,44536,44536,44547,44547,44561,44561,44562,44572,44572,44572,44584,44597,44597,44611,44621,44621,44633,44633,44645,44661,44671,44671,44681,44682,44694,44695,44695,44711,44711,44711,44719,44719,44719,44719,44731,44731,44744,44744,44761,44761,44769,44769,44780,44781,44781,44795,44795,44795,44796,44805,44805,44805,44805,44806,44817,44817,44818,44818,44818,44818,44818,44830,44830,44830,44830,44830,44844,44844,44844,44845,44856,44856,44857,44873,44873,44887,44888,44888,44895,44896,44904,44904" d="m290.5,110.9c-1.836,0 -2.60132,0 -3.59549,0c-0.91919,0 -1.90451,0 -2.72583,0c-0.85333,0 -1.79468,0 -2.84534,0c-0.65869,0 -1.66669,0 -2.52884,0c-0.90451,0 -1.8045,0 -2.7045,0c-0.89999,0 -1.80002,0 -2.70016,0c-0.78519,0 -1.73584,-0.00172 -2.50116,0c-1.00317,0.00225 -1.86316,0.01883 -2.82001,0.22134c-0.81152,0.17175 -1.33942,0.42083 -2.65701,0.65717c-0.66971,0.12012 -1.44812,-0.01686 -2.547,0.1575c-0.88272,0.14007 -1.51416,0.65899 -2.48932,0.87866c-0.86771,0.19547 -1.64359,0.0458 -2.53802,0.08984c-0.86603,0.04264 -1.75491,0.65784 -2.54732,0.91016c-0.86159,0.27435 -1.68533,0.08533 -2.64667,0.08533c-0.84,0 -1.83867,0 -2.67416,0c-0.58368,0 -1.77917,0 -2.67917,0c-0.60001,0 -1.8,0 -2.6955,0c-0.86852,0 -1.41917,0 -2.64734,0c-0.85266,0 -1.85716,0 -2.65717,0c-0.99983,0 -1.77917,0 -2.77884,0c-0.6825,0 -1.56416,0 -2.56284,0c-0.56732,0 -1.75867,0 -2.67966,0c-0.65067,0 -1.34933,0 -2.522,0c-0.88,0 -1.84,0 -2.35001,0c-1.08,0 -2.23999,0.00096 -2.84917,-0.00017c-1.25833,-0.00234 -1.89754,-0.00794 -2.53667,-0.02067c-0.63422,-0.01263 -1.86943,-0.0405 -3.02083,-0.14583c-1.04488,-0.09559 -1.52519,-0.17897 -2.41667,-0.33334c-0.8138,-0.14091 -1.9142,-0.35912 -2.92616,-0.44283c-0.63521,-0.05255 -1.55583,-0.0565 -2.75583,-0.05717c-0.59067,-0.00033 -1.44417,0 -2.47984,0c-0.90067,0 -1.92149,0 -2.7215,0c-0.8,0 -1.8,-0.0045 -2.59999,-0.05717l-0.99734,-0.22816l-0.73067,-0.32533" id="svg_17" stroke-width="2" stroke="#000" fill="none"/>
  <path t="45853,46010,46010,46010,46010,46022,46023,46023,46023,46038,46038,46039,46039,46056,46056,46058,46058,46069,46069,46082,46082,46095,46095,46110,46111,46111,46111,46118,46119,46119,46131,46131,46131,46131,46144,46144,46144,46161,46161,46168,46168,46180,46180,46195,46195,46205,46205,46217,46217,46230,46230,46230,46230,46245,46245,46245,46245,46255,46255,46255,46255,46255,46266,46266,46266,46266,46266,46278,46278,46278,46278,46295,46295,46295,46304,46304,46304,46304,46315,46315,46315,46315,46315,46328,46328,46328,46328,46328,46328,46328,46329,46344,46345,46345,46345,46345,46345,46345,46345,46345,46352,46353,46353,46353,46353,46353,46353,46363,46363,46364,46364,46364,46364,46377,46378,46378,46378" d="m199.5,110.9c-2.97067,-0.28533 -3.67291,-0.43212 -4.42134,-0.61066c-0.7823,-0.18662 -1.97885,-0.4879 -2.77415,-0.68934c-0.78404,-0.19859 -1.55,-0.39046 -2.63783,-0.7c-1.00755,-0.2867 -1.61711,-0.50993 -2.48001,-0.71467c-0.99353,-0.23573 -1.87595,-0.28 -2.88649,-0.28533c-0.77933,-0.00411 -1.7914,0.09294 -2.55284,-0.05717c-0.93358,-0.18404 -1.63583,-0.65478 -2.44749,-0.82133c-0.80994,-0.16621 -1.96667,-0.10917 -2.757,-0.126c-0.85388,-0.01819 -1.45113,-0.04263 -2.64417,-0.2795c-0.61353,-0.12181 -1.55,-0.39832 -2.56534,-0.54934c-0.71275,-0.10602 -1.81238,-0.15236 -2.5235,-0.16216c-0.97643,-0.01347 -1.7955,-0.0045 -2.70084,-0.0045c-1.00899,0 -1.80899,0 -2.80899,0c-0.8,0 -1.8,0 -2.58934,0c-1.04399,0 -1.836,0 -2.696,0c-0.91916,0 -1.916,0 -2.53549,0c-1.14584,0 -1.94084,0 -2.82584,0c-0.64,0 -1.67484,0 -2.41051,0c-0.76366,0 -1.94417,0 -3.14299,0c-0.40117,0 -1.21051,0 -2.03584,0c-0.84933,0 -2.18517,0 -3.11217,0c-0.46649,0 -1.39049,-0.00006 -2.2825,0c-1.22633,0.00008 -1.95602,-0.01925 -2.948,0.036c-0.61967,0.03452 -1.8219,0.24564 -2.72133,0.464c-0.60039,0.14576 -1.79922,0.38762 -2.4045,0.44733c-0.93025,0.09177 -1.58592,0.10396 -2.98618,0.338c-0.79129,0.13226 -1.21282,0.23893 -2.14249,0.41917c-0.50914,0.09871 -2.25262,0.39704 -2.90816,0.49683c-0.68713,0.1046 -1.40282,0.20837 -2.14201,0.3195c-0.75948,0.11418 -1.53553,0.23111 -2.322,0.36449c-1.5965,0.27076 -2.39522,0.43193 -3.192,0.60001c-0.79456,0.1676 -1.58218,0.34714 -2.361,0.5355c-0.77052,0.18635 -1.5285,0.37927 -2.271,0.5805c-1.43967,0.39017 -2.12978,0.5912 -3.45184,0.99866c-0.63728,0.19641 -1.25739,0.39685 -1.8615,0.6c-1.1714,0.39391 -2.29185,0.79684 -2.83533,1c-1.05365,0.39388 -1.56136,0.58298 -2.50333,1c-0.86839,0.38444 -1.954,1 -2.54267,1.4l-0.708,0.6l-0.37866,0.4" id="svg_18" stroke-width="2" stroke="#000" fill="none"/>
  <path t="59066,59234,59247,59247,59262,59262,59271,59271,59271,59281,59281,59282,59294,59312,59312,59319,59344,59368,59381,59381,59393,59410,59418,59418,59429,59429,59443,59443,59460,59460,59460,59460,59466,59466,59466,59466,59466,59479,59479,59479,59479,59492,59493,59503,59503,59503,59514,59515,59527,59527,59543,59543,59552,59552,59564,59564,59577,59593,59594,59602,59602,59602,59614,59614,59626,59626,59644,59644,59645,59651,59652,59662,59662,59676,59694,59695,59700,59712,59712,59726,59726,59743,59749,59749,59749,59761,59777,59786,59797,59797,59812,59812,59828,59835,59835,59847,59847,59861,59878,59896,59896,59911,59912,59929,59929,59933,59933,59957,59957,59982,59995,59995,60011,60019,60043,60043,60059,60060,60068,60080,60081,60094,60094,60117,60117,60142,60142" d="m103.5,111.9c-1.75716,0 -2.65717,-0.0005 -3.4045,0c-0.99683,0.00067 -1.83857,-0.00706 -2.76216,0.16666c-0.79379,0.14931 -1.59791,0.45351 -2.66667,0.66667c-0.69967,0.13954 -1.68822,0.05852 -2.66666,0.1875c-0.83808,0.11047 -1.73454,0.49281 -2.33067,1.17783c-0.55678,0.63982 -1.41779,0.6478 -2.16933,0.96799c-0.7812,0.33282 -1.61815,0.86502 -1.95184,1.53867c-0.45908,0.9268 -1.11481,1.13618 -2.02683,1.51617c-0.69669,0.29027 -1.49681,1.00018 -2.063,1.2785c-1.10483,0.54311 -1.64606,0.69853 -2.5,1.02084c-0.62077,0.2343 -1.62884,0.63732 -2.34234,0.9645c-0.74545,0.34183 -1.49619,0.71501 -2.23199,1.116c-1.07059,0.58344 -1.71255,1.00671 -2.63734,1.52666c-0.55432,0.31166 -1.56083,0.70506 -2.436,0.88667c-1.01009,0.2096 -1.81426,0.49861 -2.41067,0.78667c-1.00623,0.48599 -1.60264,0.79343 -2.59984,1.29867c-0.78142,0.39591 -1.59512,0.9585 -2.30016,1.37917c-0.78434,0.46799 -1.54657,0.37073 -2.4785,0.74217c-0.77473,0.30879 -1.55687,0.73329 -2.50683,1.06267c-0.73829,0.25598 -1.71399,0.59923 -2.51467,0.71599c-0.59951,0.08743 -1.60881,0.33754 -2.4,0.70451c-1.01189,0.46933 -1.57414,0.85854 -2.6,1.12883c-0.78558,0.20699 -1.6263,0.16847 -2.5955,0.52383c-0.77374,0.28369 -1.45157,0.94612 -2.20317,1.3575c-0.78344,0.4288 -1.73688,0.48076 -2.34,0.896c-0.84246,0.58002 -0.97868,1.57874 -1.38216,2.38933c-0.42835,0.86057 -1.06725,1.42365 -1.39517,2.20134c-0.3875,0.91899 -0.47934,1.64709 -0.88533,2.31467c-0.53621,0.88167 -1.15595,1.68098 -1.19867,2.584c-0.04253,0.89899 -0.08551,1.63113 -0.85067,2.31067c-0.56116,0.49835 -0.74132,1.37083 -1.316,2.256c-0.37793,0.58212 -1.1411,1.25972 -1.63333,1.76534c-0.69038,0.70914 -1.59733,1.00684 -2.30017,1.668c-0.53381,0.50217 -1.36174,1.14946 -2.1105,1.464c-0.76892,0.32303 -1.62254,0.24692 -2.62267,0.60266c-0.69398,0.24684 -1.36667,1.03334 -1.96667,1.63333c-0.6,0.60001 -1.39038,1.22908 -1.84283,1.90001c-0.53676,0.79594 -1.27486,0.92007 -2.02383,1.63333c-0.54688,0.5208 -0.4959,1.68698 -0.944,2.256c-0.61061,0.77538 -1.29945,1.39821 -1.38483,2.16783c-0.09925,0.89456 -0.08983,1.84416 -0.28983,2.64284l-0.32533,0.8l-0.48917,0.99983l-0.2895,0.58949" id="svg_21" stroke-width="2" stroke="#000" fill="none"/>
  <path t="64968,65163,65176,65176,65176,65194,65194,65201,65202,65202,65202,65214,65214,65214,65214,65214,65214,65214,65229,65229,65229,65229,65229,65229,65246,65246,65246,65250,65250,65263,65288,65288,65300,65300,65311,65312,65328,65345,65349,65349,65361,65361,65376,65376,65386,65386,65396,65397,65397,65410,65411,65411,65411,65411,65427,65427,65427,65434,65435,65446,65447,65461,65461,65476,65483,65483,65495,65496,65509,65509,65526,65526,65532,65544,65544,65544,65559,65559,65576,65576,65576,65576,65581,65582,65582,65582,65594,65594,65594,65594,65594,65594" d="m88.5,250.89999c0.52084,1.54167 1.10622,2.54008 1.4,3.25067c0.3065,0.74135 0.67489,1.62395 1.12083,2.24933c0.61211,0.85843 1.14994,1.51947 1.5,2.10419c0.39941,0.66714 0.98547,1.89316 1.17916,2.36017c0.41354,0.99713 0.60348,1.53174 1,2.63165c0.20177,0.55969 0.39198,1.12561 0.99984,2.78217c0.19624,0.53479 0.3943,1.05618 0.77933,2.05933c0.36239,0.94415 0.54111,1.3884 0.99934,2.61917c0.26762,0.71878 0.55033,1.67819 1.0215,2.61002c0.34628,0.68484 0.95729,1.53186 1,2.5c0.02903,0.65802 0.00174,1.66666 0,2.45865c-0.00225,1.02283 -0.18719,1.73215 -0.64733,2.48001c-0.4317,0.70163 -0.43359,1.7854 -0.96333,2.48401c-0.51335,0.677 -1.12006,1.14798 -1.68934,2.06332c-0.42334,0.68069 -0.94452,1.4346 -1.39999,2.15717c-0.44549,0.70673 -0.70417,1.4754 -1.05717,2.35632c-0.40212,1.00351 -0.72507,1.71866 -1.06817,2.45917c-0.34756,0.75015 -0.70529,1.48441 -1.15317,2.55283c-0.27331,0.65198 -0.54741,1.56921 -1.0215,2.48853c-0.35424,0.68692 -1.13708,1.40115 -1.6,1.96933c-0.65546,0.80447 -0.90383,1.59927 -1.6,2.19598c-0.71683,0.61441 -1.26323,1.21265 -1.8,2.00134c-0.46886,0.6889 -1.05082,1.30612 -1.47916,2.16666c-0.4035,0.81061 -0.47507,1.62894 -0.95683,2.41068c-0.49486,0.80298 -0.97012,1.42215 -1.36401,2.19067c-0.40768,0.79541 -0.79964,1.62399 -1.36666,2.39865c-0.46187,0.63101 -1.05987,1.25998 -1.43467,1.77066c-0.62611,0.85309 -1.00205,1.54703 -1.44033,2.27103c-0.46672,0.77097 -1.28511,1.96347 -1.60084,2.35815c-0.6451,0.80643 -0.9975,1.18951 -1.67083,1.96417l-0.63333,0.75067" id="svg_22" stroke-width="2" stroke="#000" fill="none"/>
  <path t="66374,66540,66554,66570,66590,66590,66603,66603,66613,66628,66644,66644,66651,66662,66662,66676,66677,66693,66693,66698,66698,66711,66711,66726,66726,66726,66736,66736,66748,66772,66786,66786,66798,66810,66827,66835,66846,66847,66861,66878,66883,66883,66883,66895,66895,66895,66895,66909,66910,66910,66920,66920,66920,66931,66931,66944,66944,66959,66959,66969" d="m71.5,325.89999c-2.58933,0 -3.56957,-0.11142 -4.3,0.35718c-0.79991,0.51318 -1.3,1.24283 -1.89999,1.84283c-0.60001,0.60001 -1.36269,1.25433 -1.716,2c-0.40694,0.85886 -0.59485,1.57639 -1.14533,2.39999c-0.53025,0.79337 -1.31279,1.0675 -2.05467,1.60001c-0.65765,0.47205 -1.36226,1.01309 -2.09467,1.39999c-0.98002,0.5177 -1.7964,0.85513 -2.62267,1.39999c-0.56191,0.37054 -1.31034,1.04254 -2.00267,1.38934c-0.74354,0.37247 -1.77214,0.49063 -2.50684,0.66333c-0.9235,0.2171 -1.82264,0.67068 -2.65717,1.11401c-0.6339,0.33676 -0.938,1.39099 -1.61067,1.85864c-0.72281,0.5025 -1.18933,1.22076 -1.556,1.97467c-0.3714,0.76361 -0.75032,1.50424 -0.844,2.42136c-0.09402,0.92044 -0.34059,1.59488 -0.6,2.39999c-0.38068,1.18149 -0.60417,1.77377 -0.8685,2.67865c-0.17439,0.59698 -0.42239,1.79791 -0.48483,2.68933c-0.0402,0.57382 -0.036,1.64401 -0.036,2.57468c0,0.83466 0,1.836 0,2.63599c0,0.99869 0,1.76401 0,2.716l0,0.76801l0,0.94135" id="svg_23" stroke-width="2" stroke="#000" fill="none"/>
  <path t="67524,67694,67694,67707,67707,67719,67719,67733,67733,67733,67747,67747,67759,67759,67768,67768,67779,67779,67793,67809,67809,67817,67853,67865,67866,67877,67877,67892,67903,67903,68014,68149,68166,68182,68182,68188,68200,68221,68247,68272,68300,68321,68333,68344,68457,68481,68497,68497,68513,68513,68516,68516,68528,68542,68559,68589,68589,68615,68650,68663,68712,68761,68776,68776,68792,68798,68798,68810,68811,68811,68826,68826,68848,68848,68909" d="m42.5,366.89999c0.0045,2.60001 -0.00506,3.41617 0.284,4.39999c0.23995,0.81665 0.48532,1.83109 0.75767,2.57919c0.3316,0.91089 1.0435,1.22385 1.68233,1.64615c0.95694,0.63257 1.07151,1.48514 1.71867,2.35318c0.4478,0.60065 1.33401,1.11386 1.64,1.90683c0.29339,0.76031 0.60658,1.47226 1.21283,2.35748c0.52478,0.76627 0.70383,1.55719 0.7045,2.45718c0.00061,0.82083 0,1.78534 0,2.51065c0,0.98917 0,1.95334 0,2.90402c0,0.88531 0.0374,1.6861 0,2.58533c-0.03603,0.86624 -0.86083,1.28198 -1.83333,1.29999c-0.75587,0.01398 -1.66667,0 -2.56667,0c-0.9,0 -1.8,0 -2.7,0c-0.9,0 -1.57841,-0.28522 -2.184,-0.91599c-0.55001,-0.57288 -1.23665,-1.07358 -2.12667,-1.08401c-0.91061,-0.01065 -1.76543,-0.05057 -2.70533,0.00134c-0.7714,0.0426 -1.56711,0.30109 -2.4,0.79999c-0.753,0.45105 -1.00566,1.41934 -1.7055,2.07733c-0.60476,0.56857 -1.4311,0.92154 -2.2785,1.10052c-0.88081,0.18604 -1.8,0.0209 -2.7,0.02081c-0.9,-0.00009 -1.9401,-0.03384 -2.44283,-0.7045c-0.53445,-0.71295 -0.56105,-1.62482 -0.878,-2.31631c-0.45422,-0.991 -0.84523,-1.7883 -1.27917,-2.49384c-0.4647,-0.75555 -1,-1.36935 -1.5,-2.138l-0.4,-0.69467l-0.6,-0.89099" id="svg_24" stroke-width="2" stroke="#000" fill="none"/>
  <path t="74307,74491,74519,74524,74524,74540,74540,74557,74560,74571,74594,74610,74610,74619,74631,74655,74668,74680,74692,74692,74709,74717,74717,74728,74728,74743,74759,74759,74759,74766,74766,74778,74791,74814,74814,74838,74839,74839,74853,74863,74864,74864,74875,74875,74875,74894,74894,74901,74901,74913,74925,74926" d="m417.5,284.89999c-1.70001,0.05716 -2.60153,0.4903 -2.87866,1.32135c-0.2739,0.82138 -0.47394,1.75455 -0.83734,2.47733c-0.38583,0.76743 -0.9021,1.51166 -1.19867,2.40134c-0.28586,0.85764 -0.08533,1.79999 -0.08533,2.60001c0,0.89999 0.00195,1.81961 -0.42532,2.59998c-0.45038,0.8226 -0.57468,1.70001 -0.57468,2.60001c0,0.80002 0,1.63602 0,2.65717c0,0.74734 0,1.74152 0,2.50684c0,0.952 0,2.00269 0,2.672c0,0.76535 0,1.75952 0,2.67868c0,0.96451 -0.0134,1.89609 0.00015,2.80682c0.01041,0.69955 0.11282,1.69891 0.43585,2.46783c0.31454,0.74875 1.09622,1.52075 1.39734,2.37735c0.29419,0.83685 0.16599,1.51999 0.16666,2.51733c0.00055,0.81598 0,1.63199 0,2.85883c0,0.64648 0,1.65698 0,2.62115l0.00134,0.95068l0.16531,0.88531l0.444,0.564" id="svg_25" stroke-width="2" stroke="#000" fill="none"/>
  <path t="75589,75797,75824,75834,75858,75907,75931,75936,75950,75969,75993,76008,76018,76029,76043,76059,76078,76078,76103,76128,76203,76228,76263,76282,76294,76300,76300,76312,76327,76341,76349,76361,76387,76387,76422,76473,76485,76496,76508,76525,76526,76533,76533,76545,76545,76559,76559,76576,76576,76582,76594,76594,76609,76609,76619,76619,76619,76631,76631,76643,76659,76659,76669" d="m415.5,327.89999c0.61066,1.60001 1.39639,2.23297 1.83334,3c0.44427,0.77988 1.39908,0.56573 2,1.16669c0.60089,0.60092 0.48428,1.5799 1.08264,2.11731c0.63846,0.57343 1.07358,1.23666 1.08401,2.116c0.01068,0.89996 0,1.80002 0,2.70001c0,0.89999 0,1.70001 0,2.60001c0,0.89999 0,1.79999 0,2.69998c0,0.90002 0,1.80002 0,2.70001c0,0.89999 0,1.70001 0,2.60001c0,0.89999 0.05292,1.83475 -0.35266,2.60001c-0.4483,0.84589 -0.64734,1.69998 -0.64734,2.5c0,0.89999 -0.16519,1.81918 0.02084,2.69998c0.17899,0.84741 0.62097,1.81723 1.3125,2.33334c0.57108,0.42624 1.65787,0.59818 2.14581,1.16666c0.63782,0.74313 1.396,1.11032 1.92084,1.87201c0.47263,0.68591 0.83377,1.51089 1.164,2.29199c0.39474,0.93375 0.60391,1.83514 1.04666,2.47202c0.58966,0.84818 0.95404,1.358 1.22269,2.36398c0.20963,0.78491 0.19537,1.61661 0.51932,2.59552c0.25238,0.76263 0.62201,1.76849 0.93134,2.60449l0.43201,0.60001l0.27951,0.89999" id="svg_26" stroke-width="2" stroke="#000" fill="none"/>
  <path t="77273,77419,77433,77434,77449,77449,77465,77468,77479,77578,77726,77885,77902,77917,77933,77946,77994,78019,78044,78082,78105,78105,78119,78142,78155,78156,78168,78182,78182,78205,78218,78512,78512,78532,78598,78621,78634,78646,78646,78670,78694,78708,78708,78725,78743,78759,78759,78792,78853,78880,78904,78953,79101,79101,79125,79150,79166,79166,79174,79186,79198,79210,79246" d="m431.5,377.89999c0.05716,1.75717 0.32001,2.67255 0.7045,3.34735c0.45181,0.793 1.14664,1.41968 1.29102,2.35266c0.13763,0.88943 0.13104,1.68173 0.65182,2.35266c0.45313,0.58377 0.35565,1.763 -0.44867,1.94601c-0.87628,0.1994 -1.79868,0.00131 -2.69867,0.00131c-0.89999,0 -1.79999,0 -2.70001,0c-0.89999,0 -1.79999,0 -2.59998,0c-0.90002,0 -1.72137,0.03046 -2.68402,-0.00131c-0.86465,-0.02853 -1.70251,-0.45435 -2.51599,-0.832c-0.76041,-0.353 -1.46835,-0.72867 -2.29999,-1.11401c-0.87189,-0.40399 -1.56833,-1.36511 -2.41467,-0.966c-0.72763,0.34314 -0.86044,1.55054 -1.48535,2.112c-0.75961,0.68246 -1.5,0.854 -2.29999,1.30133c-0.79999,0.44733 -1.54681,0.80688 -2.29999,1.216c-0.79752,0.43323 -1.40759,1.02921 -2.20001,1.45068c-0.64059,0.34073 -1.49982,0.82291 -2.39999,0.83331c-0.89993,0.01041 -1.80002,0 -2.70001,0c-0.89999,0 -1.81702,0.05792 -2.37915,-0.52081c-0.63333,-0.65207 -0.90692,-1.61752 -1.23685,-2.27917c-0.42056,-0.84335 -0.284,-1.80002 -0.284,-2.70001l0,-0.89999l0,-0.89999" id="svg_27" stroke-width="2" stroke="#000" fill="none"/>
  <path t="79925,80108,80120,80120,80136,80136,80136,80136,80145,80146,80146,80146,80161,80161,80162,80162,80170,80170,80180,80193,80194,80208,80208,80217,80218,80228,80229,80243,80243,80259,80266,80277,80277,80291,80291,80308,80308,80315,80315,80315,80315,80327,80327,80327,80327,80341,80341,80352,80352,80364,80365,80376,80376,80392,80402,80413,80426,80450,80462,80475,80491,80499,80511,80525,80548,80548,80560,80560,80575,80591,80597,80622,80622,80622,80635,80635,80658,80675,80683,80684,80708,80724,80744" d="m398.5,382.89999c-1.05267,-1.75717 -1.34393,-2.67062 -1.64667,-3.24667c-0.49164,-0.93546 -1.01718,-1.70633 -1.33249,-2.29498c-0.32751,-0.61142 -0.80051,-1.97595 -0.91101,-2.711c-0.11188,-0.74426 -0.11493,-1.50021 -0.27649,-2.58066c-0.1506,-1.00729 -0.29993,-1.62558 -0.63467,-2.39468c-0.43091,-0.99002 -1.04544,-1.52682 -1.69867,-2.29282c-0.64905,-0.76111 -0.84882,-1.60309 -1.60016,-2.23651c-0.56842,-0.47922 -1.39911,-0.79532 -2.07449,-1.42801c-0.67432,-0.63168 -1.2724,-1.3985 -2.14651,-1.69333c-0.78699,-0.26544 -1.67181,-0.49976 -2.17883,-1.14215c-0.51047,-0.64679 -0.58957,-1.56244 -1.20532,-2.2265c-0.52786,-0.56927 -1.11069,-1.24414 -1.34534,-1.99936c-0.36746,-1.18283 -0.64786,-1.72006 -1.17068,-2.564c-0.37027,-0.59766 -0.9805,-1.48782 -1.37415,-2.08481c-0.57144,-0.86661 -0.93253,-1.41129 -1.51917,-2.41785c-0.37305,-0.64008 -0.88953,-1.51688 -1.38535,-2.18668c-0.60516,-0.81754 -0.95984,-1.52545 -1.5,-2.33331c-0.44699,-0.66852 -0.89072,-1.5058 -1.42532,-2.14136c-0.5462,-0.64932 -1.21866,-1.07999 -1.65869,-1.82666c-0.41284,-0.70053 -0.61783,-1.54376 -0.92047,-2.49417c-0.24243,-0.76132 -0.98508,-1.22513 -0.99551,-2.11514c-0.01065,-0.91061 0,-1.76401 0,-2.70535c0,-0.76801 0.29956,-1.82794 -0.22134,-2.64117c-0.4711,-0.73547 -0.94724,-1.40875 -1.20398,-2.07883c-0.29291,-0.76447 -0.54221,-1.75815 -0.57019,-2.50684c-0.03815,-1.02045 0.1272,-2.0072 -0.22583,-2.75717c-0.36505,-0.77551 -0.77417,-1.59998 -0.77866,-2.5l-0.02084,-0.87915" id="svg_28" stroke-width="2" stroke="#000" fill="none"/>
  <path t="82158,82316,82328,82355,82377,82392,82409,82415,82427,82427,82441,82452,82452,82463,82463,82475,82475,82492,82492,82501,82524,82542,82542,82550,82561,82561,82575,82575,82592,82592,82592,82598,82599,82599,82612,82612,82612,82612,82627,82627,82642,82642,82648,82648,82660,82660,82675,82684,82684,82696,82697,82709,82709,82709,82724,82724,82724,82724,82725,82734,82735,82735,82735,82735,82735,82735,82746,82746,82746,82746,82746,82759,82759,82759,82775,82776,82776,82783,82783,82794,82794" d="m365.5,319.89999c-1.70001,0 -2.60001,0 -3.5,0c-0.89999,0 -1.79999,0 -2.70001,0c-0.89999,0 -1.79999,0 -2.59998,0c-0.95718,0 -1.85718,0 -2.60452,0c-0.99548,0 -1.7955,0 -2.79532,0c-0.77933,0 -1.77866,0 -2.59885,0c-0.90134,0 -1.83777,-0.0267 -2.68533,0.00134c-0.86465,0.02859 -1.67172,0.53131 -2.61615,0.87717c-0.74588,0.27313 -1.56531,0.08463 -2.36151,0.17865c-0.96707,0.11423 -1.76813,0.39401 -2.64282,0.59018c-1.18814,0.26648 -1.79471,0.31476 -2.6955,0.34201c-1.19952,0.03629 -1.79868,0.01065 -2.67917,0.01065c-0.83551,0 -1.84015,-0.06052 -2.71017,0.03601c-1.02109,0.11328 -1.76938,0.52203 -2.64401,0.79733c-0.77734,0.24469 -1.64362,0.46802 -2.34131,0.74133c-0.93115,0.36475 -1.82471,0.59293 -2.46133,1.03601c-0.84848,0.59055 -1.56851,1.00174 -2.36401,1.38931c-0.82581,0.40234 -1.56348,0.68732 -2.5,0.83334c-0.75259,0.11734 -1.6185,0.13751 -2.56799,0.15601c-0.50262,0.0098 -2.09866,0.01065 -2.65335,0.01065c-1.13132,0 -1.70398,0 -2.27866,0c-1.14734,0 -1.716,-0.00171 -3.37799,0.00018c-0.53268,0.00061 -1.55414,0.00589 -2.03867,0.02066c-0.90765,0.02768 -2.09192,0.10699 -3.01636,0.33182c-0.7796,0.18961 -1.72986,0.51221 -2.51517,0.59018c-0.78799,0.07825 -1.909,0.05734 -2.79999,0.11432l-0.90451,0.2955l-0.69464,0.29468" id="svg_29" stroke-width="2" stroke="#000" fill="none"/>
  <path t="83643,83826,83826,83826,83842,83842,83842,83842,83857,83857,83857,83857,83864,83864,83864,83875,83875,83891,83891,83901,83912,83912,83924,83924,83941,83941,83949,83950,83950,83950,83962,83962,83962,83962,83962,83974,83974,83974,83991,83991,83991,83991,83998,83998,83998,84010,84010,84010,84024,84025,84025,84042,84042,84042,84042,84042,84048,84048,84048,84048,84048,84059,84059,84060,84060,84060,84060,84074,84074,84075,84075,84085,84085,84085,84096,84108,84108,84124,84134,84146,84146,84158,84158,84175,84175,84175,84175,84183,84183,84184,84184,84184,84195,84195,84195,84195,84195,84195,84195,84207,84208,84208,84208,84208,84208,84208,84224,84225,84225,84225,84232,84232,84233,84243,84244,84244,84259,84269" d="m293.5,328.89999c-3.60132,0 -4.52084,-0.00003 -5.15717,0c-1.36417,0.00009 -2.09576,-0.00546 -2.84283,0.02084c-0.74777,0.02634 -1.83783,0.12299 -2.84283,0.33182c-0.6395,0.13287 -1.54999,0.40018 -2.45682,0.52585c-0.87482,0.12125 -1.68741,0.0686 -2.73102,0.12283c-0.85498,0.04443 -1.604,0.39746 -2.48532,0.71466c-0.84381,0.30371 -1.80249,0.51233 -2.48401,0.784c-0.97473,0.38855 -1.75266,0.49774 -2.66617,0.5c-0.85266,0.00211 -1.97684,0 -2.64816,0c-0.72733,0 -1.49466,-0.00101 -2.68567,0c-0.79868,0.00067 -1.58984,-0.00208 -2.36401,0.03601c-0.75134,0.03696 -2.15207,0.24164 -2.79999,0.38934c-0.93362,0.21286 -1.83392,0.42581 -2.73599,0.52197c-0.89828,0.09576 -1.51091,0.08005 -2.69867,0.33801c-0.89069,0.19345 -1.45012,0.4039 -2.48,0.81451c-0.70021,0.27917 -1.59651,0.66531 -2.608,0.81616c-0.84973,0.12674 -1.47882,0.10693 -2.48001,0.25067c-1.10016,0.15796 -1.87521,0.35318 -2.28,0.444c-0.84045,0.1886 -2.17436,0.49155 -3.11049,0.68933c-0.47859,0.1011 -1.45341,0.30045 -1.94734,0.39999c-1.49522,0.30136 -2.49426,0.49951 -2.991,0.60001c-0.98387,0.19904 -1.46944,0.29562 -2.41917,0.5c-1.36485,0.2937 -2.22108,0.49243 -3.02283,0.69998c-0.74551,0.19299 -1.73486,0.48477 -2.54367,0.7955c-0.66643,0.25604 -1.63287,0.64828 -2.6855,0.7045c-0.81161,0.04333 -1.44508,0.55084 -2.19499,0.94284c-0.71521,0.37387 -1.63834,0.05716 -2.61734,0.05716c-0.888,0 -1.78549,0 -2.3925,0c-1.0605,0 -1.83249,-0.00308 -3.02899,0.00018c-0.81302,0.00223 -1.66216,0.01666 -2.1075,0.03583c-0.94839,0.0408 -1.99289,0.12238 -3.14667,0.24933c-0.61284,0.06744 -1.24333,0.14584 -2.54134,0.32535c-0.66068,0.09137 -1.32306,0.18808 -2.63733,0.38931c-0.64487,0.09875 -1.89627,0.29849 -2.49867,0.39999c-0.58492,0.09854 -1.69312,0.29437 -2.21066,0.40002c-1.39603,0.28497 -2.19351,0.48077 -2.89484,0.72083c-0.9702,0.33209 -1.86403,0.79727 -2.75183,1.29382c-0.57579,0.32202 -1.644,0.85202 -2.349,1.0755l-0.8,0.15802l-0.9045,0.30447l-0.75717,0.48068" id="svg_30" stroke-width="2" stroke="#000" fill="none"/>
  <path t="85119,85264,85281,85295,85296,85300,85300,85300,85300,85300,85311,85311,85311,85311,85325,85325,85325,85325,85341,85341,85341,85349,85349,85361,85361,85376,85376,85391,85392,85398,85398,85410,85410,85410,85425,85426,85426,85443,85443,85443,85443,85444,85447,85448,85448,85460,85460,85460,85476,85476,85476,85476,85485,85485,85496,85496,85509,85509,85525,85533,85533,85534,85545,85546,85546,85560,85560,85560,85561,85577,85577,85577,85577,85582,85582,85583,85583,85583,85583,85594,85594,85594,85608,85608,85608,85608,85625,85625,85632,85632,85645,85658,85676,85676,85676,85681,85681,85693,85693,85693,85709,85709,85709,85717,85718,85718,85718,85730,85730,85730,85743,85743,85743,85743,85762,85762,85766,85778,85779,85779,85794,85794,85816,85816,85840,85840,85859,85859,85865,85877,85877,85895,85895,85911,85911,85911" d="m188.5,345.89999c-1.7,0 -2.65009,0.0079 -3.48801,-0.28534c-0.81047,-0.28363 -1.84178,-0.72641 -2.48267,-0.91333c-0.69771,-0.20349 -1.44685,-0.38666 -2.23199,-0.51599c-1.19225,-0.19638 -1.99243,-0.23795 -2.7765,-0.2645c-0.7634,-0.02585 -2.19933,-0.02084 -2.86366,-0.02084c-0.9465,0 -1.55591,0.01263 -2.75583,-0.00131c-0.88066,-0.01022 -1.73059,-0.02115 -2.71468,-0.28268c-0.65738,-0.17471 -1.6749,-0.55655 -2.43933,-0.76868c-0.91824,-0.25482 -1.6373,-0.65576 -2.646,-0.86331c-0.75725,-0.15579 -1.68414,-0.44327 -2.41116,-0.73135c-0.92719,-0.3674 -1.73169,-0.34091 -2.59283,-0.35132c-0.89745,-0.01083 -1.808,-0.00134 -2.43333,-0.00134c-1.33067,0 -2.048,0 -2.78934,0c-0.74933,0 -1.49066,0 -2.88933,0c-0.64934,0 -1.58084,0 -2.78534,0c-0.59999,0 -1.5,0.00131 -2.7,0c-0.59866,-0.00067 -1.4845,0.02878 -2.31467,-0.08533c-1.01004,-0.13882 -1.85941,-0.54321 -2.68533,-0.74799c-0.77834,-0.19296 -1.83563,-0.32892 -2.47917,-0.66669c-0.83286,-0.43713 -1.85432,-0.48853 -2.53065,-0.50449c-0.77594,-0.01831 -1.83789,-0.11621 -2.76485,-0.43152c-0.69037,-0.23483 -1.64688,-0.66443 -2.472,-0.97464c-0.59991,-0.22556 -1.2449,-0.46317 -2.27499,-0.91068c-0.74364,-0.32306 -1.51253,-0.69687 -2.34,-1.026c-1.29395,-0.51468 -1.75433,-0.65024 -2.6865,-0.89099c-0.92625,-0.23923 -1.38724,-0.33441 -2.2825,-0.47501c-1.22245,-0.19196 -2.29839,-0.24918 -2.948,-0.31201c-1.22377,-0.11841 -1.82905,-0.22491 -2.67967,-0.49548c-0.78185,-0.24869 -1.67921,-0.87756 -2.42433,-1.19385c-0.89756,-0.38101 -1.66449,-0.06186 -2.70667,-0.32132c-0.88651,-0.2207 -1.56695,-0.98193 -2.24667,-1.36401c-0.56034,-0.31497 -1.564,-0.79999 -2.364,-1.20001c-0.8,-0.39999 -1.60462,-0.81339 -2.25717,-1.09998c-0.95588,-0.41983 -1.77779,-0.70303 -2.3535,-0.90002c-1.18722,-0.40622 -1.78932,-0.59998 -2.68933,-0.89999c-0.89999,-0.29999 -1.8,-0.60001 -2.7,-0.89999c-0.60001,-0.20001 -1.80124,-0.59634 -2.39734,-0.79999c-0.86282,-0.29474 -1.68774,-0.50543 -2.58833,-1.10001c-0.65929,-0.43527 -1.19221,-1.1438 -1.981,-1.70001c-0.63435,-0.4473 -1.40173,-0.83859 -2.08067,-1.65265c-0.55021,-0.6597 -1.05524,-1.35233 -1.75267,-1.82651c-0.81268,-0.55252 -1.44643,-1.13742 -2.32133,-1.39932c-0.82436,-0.24677 -1.79333,-0.12152 -2.77883,-0.12152c-0.78516,0 -1.7465,0 -2.3615,0l-1.22233,0l-0.816,0l-0.54733,0" id="svg_31" stroke-width="2" stroke="#000" fill="none"/>
  <path t="88492,88678,88698,88698,88714,88714,88714,88725,88725,88725,88725,88740,88740,88750,88762,88787,88801,88801,88811,88811,88824,88824,88841,88841,88841,88848,88848,88860,88860,88876,88876,88892,88892,88898,88898,88909,88924,88934,88946,88958,88974,88974,88983,88983,88995,89009,89009,89025,89032,89033,89045,89058,89058,89058,89075,89081,89082,89082,89106,89106,89143,89143,89159,89174,89180,89180,89191,89191,89209,89266,89279,89316,89499,89499,89709,89730,89769,89782,89794,89807,89824,89824,89831,89842,89842,89858,89868,89868,89891,89892,89907,89917,89917,89941,89958,89966,89978,90002,90003,90040,90127,90262,90262,90280,90298,90298,90433,90448,90449,90470,90470,90493,90493,90508,90525,90531,90555,90579,90703,90731,90746,90838,90839,90864,90887,90901,90915,90915,90930,90942,90942,90948,90948,90959,90975,90996,91021,91021,91045,91170,91219,91243,91262,91273,91273,91279,91279,91291,91291,91308,91316,91316,91328,91329,91329,91341,91358,91390,91390,91415,91426,91427,91443,91443,91451,91452,91463,91464,91488,91525,91543,91647,91659" d="m377.5,347.89999c0,1.75717 0.09705,2.67999 -0.11432,3.40451c-0.30722,1.0531 -0.93152,1.62064 -1.23752,2.10983c-0.68439,1.09412 -0.89651,1.78461 -1.12732,2.46484c-0.32736,0.96487 -0.66354,2.00552 -1.12085,2.58881c-0.62302,0.79462 -0.93201,1.63068 -1.56665,2.26535c-0.63464,0.63467 -1.43521,0.84305 -2.31866,1.08267c-0.89688,0.24326 -1.92365,0.34766 -2.51468,0.60483c-1.01678,0.44244 -1.57724,0.83267 -2.39999,1.12201c-0.97794,0.3439 -1.82071,0.29684 -2.79984,0.57864c-0.80228,0.2309 -1.63351,0.7785 -2.30017,1.2785c-0.66666,0.5 -1.6058,0.86118 -2.16666,1.5c-0.52597,0.59909 -0.78683,1.52802 -1.28067,2.2955c-0.44806,0.69638 -1.68259,0.51187 -2.01666,1.15118c-0.40543,0.77588 0.06808,1.77664 -0.32001,2.668c-0.32294,0.74173 -0.70102,1.56412 -1.42133,2.18533c-0.5394,0.46518 -1.21341,1.33557 -2.00452,1.64731c-0.76196,0.30023 -1.64157,0.52283 -2.45682,1.05267c-0.64157,0.41696 -1.34079,0.74664 -2.35419,1c-1.01447,0.25363 -1.73495,0.44608 -2.53098,0.64734c-1.02014,0.2579 -1.70105,0.33466 -2.78152,0.35266c-0.75589,0.01257 -1.6731,-0.09793 -2.57733,0.01068c-0.92801,0.11145 -1.56775,0.55063 -2.56781,0.86798c-0.80591,0.25574 -1.44308,0.82455 -2.42151,1.08536c-0.7738,0.20627 -1.75427,-0.14728 -2.60001,0.20267c-0.78464,0.32465 -1.49982,0.82291 -2.39999,0.83331c-0.89993,0.01041 -2.08209,0.32706 -2.54285,-0.35715c-0.52762,-0.78348 -0.05716,-1.84418 -0.05716,-2.52817c0,-0.94 0,-1.948 0,-2.81018c0,-0.82532 0,-1.78983 0,-2.51517c0,-0.98917 0,-1.76849 0,-2.76782c0,-1.02151 -0.16754,-1.84698 0.03601,-2.62152c0.22491,-0.8558 1.34543,-1.09769 1.91132,-1.75714c0.59103,-0.68878 0.50702,-1.59885 1.13669,-2.35751c0.60187,-0.72516 0.76544,-1.42081 1.00131,-2.08533c0.33026,-0.93048 1.05673,-1.49939 1.39383,-2.20001c0.4581,-0.95209 0.19812,-1.89822 -0.5,-1.97916c-0.95169,-0.11032 -1.73181,-0.02084 -2.8045,-0.02084c-0.69064,0 -1.65381,0 -2.57465,0c-0.89999,0 -1.80002,0 -2.70001,0c-0.89999,0 -1.83911,-0.21524 -1.89999,-1.10001c-0.0618,-0.89786 -0.38562,-1.82336 0.05716,-2.54282c0.45343,-0.73676 1.41269,-1.00519 2.42685,-1.27185c0.67184,-0.17664 1.63065,-0.08533 2.61615,-0.08533c0.78519,0 1.74399,0.09134 2.41583,-0.08533c1.01416,-0.26666 1.79254,-0.77914 2.68402,-0.91599c0.91577,-0.14056 1.4541,-0.80853 2.39999,-0.98801c0.88428,-0.16779 1.79999,-0.01068 2.69998,-0.01068c0.90002,0 1.81534,-0.0903 2.58536,0.08533c0.79367,0.18103 1.50769,0.55557 2.35748,1.21469c0.59076,0.45822 1.25226,1.23599 2.07849,1.80017c0.65939,0.45026 1.55536,1.03345 1.91702,1.55249c0.45828,0.65768 0.63556,1.75589 1.04565,2.54733c0.44647,0.86163 0.59937,1.51166 0.75201,2.436c0.14417,0.87299 0.62518,1.55212 0.8425,2.564c0.16931,0.78833 0.06836,1.80249 0.13217,2.58932c0.08533,1.05215 0.67523,1.61411 0.93216,2.51068c0.24841,0.86691 0.05731,1.79984 0.34116,2.616l0.65884,0.44116" id="svg_32" stroke-width="2" stroke="#000" fill="none"/>
  <path t="92680,92852,92852,92870,92870,92870,92870,92876,92876,92876,92893,92894,92894,92894,92901,92901,92912,92950,92950,92950,92986,92986,93000,93000,93015,93029,93029,93041,93041,93048,93048,93060,93060,93076,93085,93085,93108,93158,93183,93194,93208,93232,93243,93268" d="m335.5,350.89999c0.009,-2.60449 0.03293,-3.48886 0.44318,-4.42133c0.36899,-0.83868 0.78452,-1.3783 1.24481,-1.89465c0.93854,-1.05289 1.53622,-1.44949 2.08667,-1.87335c1.05652,-0.81351 1.53848,-1.21106 2.2045,-1.78983c0.6181,-0.53711 1.45276,-1.08612 2.14883,-1.61017c0.74454,-0.56052 1.19058,-1.43137 1.91367,-1.93149c0.55023,-0.38055 1.36914,-0.94986 1.9375,-1.47919c0.87326,-0.81329 1.56653,-1.25931 1.89935,-2.10001c0.33429,-0.84439 0.12817,-1.6756 0.47867,-2.55716c0.30444,-0.76578 0.86191,-1.73206 1.12198,-2.32199c0.43411,-0.98477 0.53302,-1.86972 1.04169,-2.52084c0.59985,-0.76785 1.31082,-1.27151 1.47467,-2.19998c0.1503,-0.85181 0.70898,-1.29776 1.60449,-1.30002c0.89999,-0.00226 1.79999,0 2.69998,0l0.90002,0" id="svg_33" stroke-width="2" stroke="#000" fill="none"/>
  <path t="94216,94424,94436,94448,94449,94463,94479,94521,94521,94534,94546,94546,94559,94559,94576,94583,94594,94619,94631,94655,94674,94675,94680,94692,94708,94730" d="m427.5,370.89999c-1.70001,0 -2.63599,0 -3.48401,0c-0.86331,0 -1.88,0 -2.716,0c-0.90015,0 -1.68533,0 -2.62534,0c-1.008,0 -1.81598,-0.01385 -2.65866,0.284c-0.70648,0.24973 -1.77414,0.54492 -2.61581,0.71619c-0.84674,0.1723 -1.25607,0.97052 -2.20016,0.99982c-0.8996,0.02792 -1.65381,0.24213 -2.40002,0.64734c-0.76111,0.4133 -1.69998,0.35266 -2.59549,0.35718l-0.67917,0.43149" id="svg_34" stroke-width="2" stroke="#000" fill="none"/>
  <path t="99214,99409,99421,99434,99434,99451,99467,99467,99472,99472,99472,99484,99484,99494,99509,99509,99544,99567,99570,99580,99617,99641,99665,99678,99714,99727,99727,99764,99788,99836,99850,99886,99935,99960,99960,99973,99991,100022,100071,100120,100133,100133,100144,100157,100176,100194,100254,100273,100280,100304,100402,100452,100476,100501,100501,100514,100589,100589,100600,100610,100623,100641,100660,100709,100724,100760,100783,100845,100856,100856,100880,100919,101018,101018,101054,101090,101114,101130,101130,101151,101201,101213,101263,101287,101287,101300,101322,101360,101360,101384,101397,101409,101409" d="m114.5,332.89999c0,1.80002 0,2.63602 0,3.48401c0,0.86334 -0.06445,1.91055 0.22134,2.83749c0.22179,0.71939 0.65964,1.67215 0.74266,2.47852c0.08202,0.79654 -0.05111,1.80768 0.09317,2.54282c0.18243,0.92953 0.6797,1.69406 1.02683,2.45718c0.38858,0.85425 0.89182,1.58835 1.416,2.19998c0.55388,0.6463 1.203,1.05533 2,1.5c0.79852,0.44553 1.88015,0.25269 2.44733,0.85718c0.62101,0.66187 0.43761,1.66226 1.13667,2.35748c0.54704,0.54404 1.74551,0.70853 2.55883,0.22818c0.65971,-0.38962 0.8475,-1.47385 1.55717,-2.14151c0.57637,-0.54227 1.44862,-0.8504 1.85268,-1.50583c0.47499,-0.77048 1.24725,-1.23651 1.93266,-1.72083c0.72928,-0.51532 1.5596,-0.59692 2.37866,-1c0.86871,-0.42752 1.48726,-0.91147 2.06134,-1.54935c0.52086,-0.57874 1.06757,-1.21097 1.65866,-1.74133c0.60007,-0.53842 1.43221,-1.18942 2.31599,-1.23734c0.94643,-0.05133 1.33392,0.99158 1.68401,1.75336c0.34454,0.74973 1.11148,1.40454 1.716,2c0.69485,0.68445 1.47275,1.00848 2.14732,1.55264c0.6611,0.53326 1.44969,0.64856 2.05267,1.14734c0.65587,0.54251 0.58879,1.32742 1.05716,2.14285c0.46638,0.81198 0.91748,1.35754 0.94284,2.15717c0.02859,0.90137 0.50096,1.71982 1.10001,2.29984c0.58136,0.5629 1.58717,1.26114 2.37917,0.87933c0.72733,-0.35065 0.2923,-1.51202 0.57799,-2.26935c0.32179,-0.85306 1.35991,-1.12741 1.85884,-1.90851c0.46777,-0.73233 1.29948,-1.06918 1.884,-1.60266c0.7197,-0.65686 1.46706,-0.9624 2.3,-1.42017c0.67502,-0.37097 1.29999,-1.16782 2,-1.65717l0.89999,-0.28799l0.64284,-0.53784" id="svg_35" stroke-width="2" stroke="#000" fill="none"/>
  <path t="102063,102283,102283,102314,102315,102331,102332,102344,102359,102367,102392,102416,102428,102453,102466,102466,102501,102539,102564,102597,102597,102662,102687,102773,102797,102836,102921,102934,102948,102969,102982,103005,103025,103030,103042,103066,103091,103108,103116,103152,103166,103190,103214,103214,103238,103238,103256,103264,103337,103361,103373,103390,103411,103496,103497,103521" d="m163.5,345.89999c1.16667,1 1.64111,1.61526 2.10001,2.32135c0.42929,0.66052 1.05516,1.61884 1.46399,2.26801c0.4792,0.76093 1.153,1.28769 1.42534,2.02133c0.30969,0.83423 0.412,1.65936 0.88933,2.48917c0.45467,0.79044 1.33971,1.01477 1.76418,1.60464c0.56876,0.79041 0.88458,1.64124 1.27316,2.49551c0.34712,0.76309 0.51825,1.62915 1.10933,2.36398c0.45351,0.56381 1.55438,0.06931 2.45384,0.45685c0.71434,0.3078 1.22531,0.9769 2.12083,0.97916c0.89999,0.00226 1.79999,0 2.7,0c0.89999,0 1.93423,0.24695 2.616,-0.284c0.62657,-0.48795 0.86295,-1.26941 1.44116,-2.01151c0.58038,-0.74484 1.39465,-1.01746 1.92683,-1.62048c0.56644,-0.64185 0.59821,-1.43149 1,-2.28534c0.28275,-0.60086 0.67659,-1.45035 0.71468,-2.31467c0.0415,-0.94168 0.81557,-1.47211 0.99683,-2.18851c0.21965,-0.86816 -0.1526,-1.81122 0.01517,-2.6955c0.17946,-0.94592 0.82266,-1.60001 0.98801,-2.39999l0.08665,-0.91467" id="svg_36" stroke-width="2" stroke="#000" fill="none"/>
  <path t="106947,107094,107106,107107,107107,107107,107107,107122,107122,107122,107122,107122,107122,107132,107132,107132,107132,107132,107143,107143,107143,107143,107143,107143,107157,107158,107158,107158,107158,107158,107158,107173,107174,107174,107174,107174,107174,107174,107174,107174,107182,107182,107182,107182,107183,107183,107183,107183,107183,107194,107194,107194,107194,107194,107194,107195,107195,107195,107208,107208,107208,107208,107208,107208,107208,107208,107209,107224,107224,107224,107224,107225,107225,107225,107225,107225,107230,107230,107231,107231,107231,107231,107231,107231,107231,107242,107242,107242,107242,107242,107243,107243,107243,107243,107258,107259,107259,107259,107259,107259,107259,107259,107274,107275,107275,107275,107275,107275,107275,107278,107278,107279,107279,107279,107279,107279,107292,107292,107292,107292,107292,107308,107308,107308,107309,107309,107316,107316,107316,107316,107327,107328,107328,107340,107340,107340,107357,107357,107357,107357,107357,107365,107365,107366,107366,107378,107378,107378,107378,107378,107390,107391,107391,107391,107406,107407,107407,107407,107414,107415,107415,107415,107426,107426,107426,107440,107440,107456,107456,107456,107456,107463,107463,107463,107463,107463,107474,107474,107474,107489,107490,107506,107597,107610,107621,107622,107640,107640,107648,107659,107659,107659,107673,107673,107690,107690,107696,107696,107696,107696,107707,107707,107722,107723,107723,107739,107739,107745,107745,107746,107757,107757,107773,107773,107773,107783,107806,107832,107832,107843,107857,107857,107873,107874,107881,107881,107893,107893,107893,107906,107907,107907,107924,107924,107924,107929,107941,107942,107957,107957,107973,107979,107979,107991,107991,108007,108007,108007,108016,108017,108017,108027,108027,108040,108040,108058,108058" d="m264.5,119.9c-0.99551,0.93317 -0.99048,1.98618 -1.009,2.72867c-0.02133,0.85503 -0.03415,1.31739 -0.16165,2.27666c-0.13278,0.9991 -0.38474,1.99754 -0.69067,2.984c-0.15259,0.49203 -0.49316,1.45258 -0.65601,1.92533c-0.46896,1.36139 -0.73065,2.23248 -0.98267,3.08533c-0.12567,0.42525 -0.36746,1.28954 -0.82166,2.62167c-0.15924,0.46701 -0.52121,1.42651 -0.72,1.92c-0.41217,1.02321 -0.63574,1.54921 -1.37967,3.18033c-0.25943,0.56882 -0.53387,1.14754 -0.80402,1.746c-0.27725,0.61418 -0.8327,1.90388 -1.09067,2.58934c-0.53984,1.43439 -0.7681,2.20576 -1.00133,3c-0.23994,0.81709 -0.4682,1.66129 -0.70349,2.526c-0.24071,0.8846 -0.48141,1.78952 -0.7485,2.70599c-0.54846,1.88193 -0.8678,2.83418 -1.20134,3.79601c-0.33772,0.97391 -0.6978,1.952 -1.071,2.9355c-0.37611,0.9912 -0.76559,1.98434 -1.161,2.9805c-0.79385,2.00005 -1.19594,2.99857 -1.59734,3.99333c-0.39862,0.98788 -0.79639,1.96417 -1.2,2.922c-0.39645,0.94083 -0.79021,1.85916 -1.2,2.742c-0.7814,1.68343 -1.19357,2.45898 -1.60001,3.20132c-0.3938,0.71927 -0.79666,1.40868 -1.2,2.0775c-0.39671,0.65782 -0.80057,1.30133 -1.2,1.9425c-0.80113,1.28596 -1.20088,1.94063 -1.60001,2.60268c-0.40088,0.66496 -0.79889,1.33266 -1.2,1.99649c-0.3989,0.66017 -0.79483,1.31427 -1.2,1.95151c-0.78996,1.24243 -1.19673,1.82822 -1.59734,2.39732c-0.39081,0.55519 -0.78101,1.08957 -1.161,1.6095c-0.36937,0.5054 -0.73166,0.99327 -1.071,1.4745c-0.64561,0.91557 -0.93208,1.36423 -1.20134,1.80534c-0.26367,0.43198 -0.51097,0.86636 -0.7485,1.3035c-0.23848,0.43887 -0.4705,0.88823 -0.70349,1.3485c-0.48717,0.96242 -0.73845,1.47369 -1.00267,2c-0.27144,0.5407 -0.5497,1.09248 -0.83549,1.6515c-0.28886,0.565 -0.87462,1.69968 -1.47917,2.8125c-0.29712,0.54691 -0.89957,1.61424 -1.2,2.14133c-0.29958,0.52557 -0.60507,1.04782 -1.2,2.10934c-0.60516,1.07979 -0.90256,1.63556 -1.4955,2.75966c-0.2952,0.55962 -0.58264,1.11522 -0.86852,1.659c-0.54868,1.0437 -1.06374,2.00052 -1.55066,2.84401c-0.44427,0.76961 -0.88937,1.48524 -1.284,2.22c-0.62488,1.16348 -0.80133,1.59999 -1.20134,2.47333c-0.39999,0.87334 -0.55437,1.3222 -1.2,2.45999c-0.37415,0.65936 -0.98595,1.45059 -1.60001,2.09601c-0.58684,0.61679 -1.19994,1.20406 -1.79999,1.804c-0.80025,0.80009 -1.4057,1.41833 -1.87201,1.8c-1.02847,0.8418 -1.68723,1.21918 -2.39999,1.57866c-0.73819,0.37231 -1.51477,0.71555 -2.728,0.97833c-0.79192,0.17152 -1.59958,0.21468 -2.40001,0.23401c-1.19968,0.02898 -2,0.00899 -2.8,0.00899c-0.79999,0 -1.59999,0 -2.79982,0c-0.79567,0 -1.57935,0 -2.343,0c-1.0905,0 -1.77405,0.03441 -2.73634,-0.04166c-0.61867,-0.0489 -1.83511,-0.37163 -2.41632,-0.67267c-0.89299,-0.46254 -1.44067,-0.86209 -2.41785,-1.68434c-0.45021,-0.37883 -1.21918,-1.09744 -1.80266,-1.71999c-0.52718,-0.56247 -1.21181,-1.64241 -1.54117,-2.25284c-0.37079,-0.68721 -0.74823,-1.44154 -1.34283,-2.62851c-0.20013,-0.39951 -0.5955,-1.19099 -0.97917,-1.95833c-0.36366,-0.72733 -0.86757,-1.70183 -1.25916,-2.52733c-0.32626,-0.68777 -0.56401,-1.73022 -0.76167,-2.47267c-0.25633,-0.96278 -0.84319,-2.10432 -1.57466,-1.923c-0.7863,0.19492 -0.34145,1.66527 -0.59201,2.548c-0.23456,0.82634 -0.68365,1.69031 -1.16666,2.5c-0.31496,0.52798 -1.00433,1.19504 -1.78267,1.948c-0.5004,0.48409 -1.35948,1.10701 -1.92567,1.38533c-1.10484,0.54311 -1.63556,0.71921 -2.45833,0.97917c-0.80983,0.25587 -1.81885,0.40738 -2.68933,0.54617c-1.01671,0.16211 -1.83215,0.48141 -2.41068,0.86133c-0.83388,0.54761 -1.32327,1.22023 -2.39999,1.78c-0.5681,0.29535 -1.4211,0.30559 -2.39999,0.61867c-0.82257,0.26309 -1.59302,0.72917 -2.38934,1.104c-0.71925,0.33855 -1.68967,0.60023 -2.62132,0.61066c-0.91061,0.01018 -1.76401,0 -2.70401,0c-0.88533,0 -1.77066,0 -2.5425,0c-0.94417,0 -1.94734,0 -2.57883,0c-1.18535,0 -1.98933,0 -2.81134,0c-1.03133,0 -1.72734,0.00061 -2.63667,0c-0.99866,-0.00067 -1.80641,0.05937 -2.54666,-0.08533c-1.12746,-0.22038 -1.87909,-0.75969 -2.65466,-0.99867c-0.7784,-0.23984 -1.47226,-0.60524 -2.3575,-1.21149c-0.76628,-0.52478 -1.55457,-0.75616 -2.24117,-1.27383c-0.73897,-0.55716 -1.34933,-1.26401 -1.90134,-1.81601c-0.584,-0.584 -1.38528,-1.37881 -1.85468,-1.86533c-0.47739,-0.4948 -1.21115,-1.44771 -1.73917,-2.20767c-0.54092,-0.77856 -1.17017,-1.17766 -1.77783,-1.86299l-0.22166,-0.85333" id="svg_37" stroke-width="2" stroke="#000" fill="none"/>
  <path t="108656,108814,108814,108825,108825,108825,108826,108838,108838,108838,108838,108855,108855,108855,108855,108863,108863,108863,108874,108874,108874,108874,108888,108888,108888,108906,108906,108906,108912,108912,108913,108913,108924,108924,108924,108924,108924,108939,108939,108939,108939,108949,108950,108950,108950,108950,108960,108961,108961,108961,108961,108974,108974,108974,108974,108989,108989,108989,108997,108997,109009,109010,109010,109023,109023,109023,109039,109047,109047,109058,109058,109072,109073,109090,109090,109096,109096,109220,109257,109257,109281,109282,109297,109297,109298,109298,109298,109315,109316,109316,109316,109316,109320,109320,109320,109332,109332,109342,109342,109343,109357,109357,109373,109378,109378,109390,109391,109391,109406,109406,109406,109416,109416,109416,109416,109428,109428,109428,109428,109429,109440,109440,109440,109456,109457,109457,109457,109465,109476,109501,109526,109526,109550,109551,109563,109575,109599,109623,109640,109640,109649,109649,109661,109674,109674,109689,109690,109690,109698,109698,109698,109722,109741,109809,109835" d="m127.5,212.89999c-1.85733,0.01068 -2.52443,0.02266 -3.64283,0.22168c-0.67099,0.1194 -1.7516,0.39882 -2.4745,0.66499c-1.07611,0.39622 -1.72787,0.7617 -2.36183,1.11333c-0.61868,0.34315 -1.81184,1.00018 -2.42084,1.23834c-0.88804,0.34729 -1.49494,0.50742 -2.7,0.679c-0.89689,0.12772 -1.52847,0.10315 -2.69984,0.5255c-0.61407,0.22141 -1.46339,0.74379 -2.01483,1.07449c-0.99994,0.59967 -1.67651,0.98145 -2.36933,1.28134c-0.98954,0.42834 -1.83084,0.70361 -2.4205,0.84416c-1.18562,0.28259 -2.11657,0.32948 -2.7675,0.3465c-0.69849,0.01826 -1.87088,0.01613 -2.73783,0.00618c-0.91109,-0.01045 -1.84264,-0.04353 -2.3075,-0.08084c-1.36358,-0.10942 -2.22787,-0.26012 -3.06183,-0.4355c-0.81883,-0.1722 -2.02436,-0.46587 -2.81817,-0.68317c-0.78503,-0.2149 -1.56712,-0.4386 -2.232,-0.85201c-0.99123,-0.6163 -1.47207,-1.29829 -1.94983,-1.96483c-0.48044,-0.67027 -0.63313,-1.07504 -1.70483,-2.20982c-0.50972,-0.53972 -1.10414,-0.96887 -1.632,-1.45201c-0.78294,-0.71661 -1.44249,-1.52811 -1.83733,-2.056c-0.68907,-0.92128 -1.25485,-1.56786 -1.84666,-2.42799c-0.44512,-0.64694 -0.72413,-1.26233 -1.32117,-2.03317c-0.62455,-0.80638 -1.09166,-1.32599 -1.62817,-2.16417c-0.47767,-0.74626 -1.3302,-1.11455 -1.88267,-1.83733c-0.46279,-0.60545 -0.92739,-1.41621 -1.46267,-2.20317c-0.51749,-0.7608 -0.53107,-1.66524 -1.03867,-2.42883c-0.51384,-0.77298 -1.1899,-1.45988 -1.83333,-2c-0.58393,-0.49017 -1.51716,-0.50105 -2.35217,-0.9855c-0.8333,-0.48346 -1.46111,-0.93756 -2.13183,-1.46382c-0.71172,-0.55843 -1.0984,-0.83339 -2.016,-1.884c-0.59849,-0.68524 -1.06556,-1.43945 -1.476,-2.172c-0.38341,-0.68431 -0.83583,-1.61833 -1.22133,-2.38934c-0.3315,-0.66299 -0.836,-1.672 -1.136,-2.272c-0.5,-1 -0.93007,-1.78436 -1.14283,-2.39999c-0.33808,-0.97824 -0.35183,-1.76395 -0.35717,-2.84734c-0.00452,-0.91931 0,-1.7735 0,-2.75267c0,-0.81065 0,-1.45715 0,-2.42166c0,-0.825 0,-1.73999 0,-2.745c0,-0.71867 0,-1.46933 0,-2.63783c0,-1.19551 0.00692,-1.99431 -0.01067,-2.78484c-0.01724,-0.7749 -0.03857,-1.53056 -0.21067,-2.58917c-0.10867,-0.66841 -0.399,-1.60196 -0.612,-2.8215c-0.10372,-0.59384 -0.15511,-1.45815 -0.16533,-2.22932c-0.01456,-1.09857 -0.00134,-2.07066 -0.00134,-2.97067c0,-0.90016 -0.04525,-1.68694 0.01067,-2.62534c0.04132,-0.69345 0.67524,-1.57808 0.93217,-2.47466c0.24843,-0.86693 0.05717,-1.8 0.05717,-2.70001c0,-0.75716 0,-1.65266 0,-2.51599c0,-0.98401 -0.04711,-1.80872 0.036,-2.73067c0.08343,-0.92548 0.3266,-1.70337 0.53867,-2.528c0.27143,-1.05547 0.39273,-1.76244 0.42083,-2.56367c0.03596,-1.02504 0.0045,-1.96165 0.00584,-2.86032l0.284,-0.71733" id="svg_38" stroke-width="2" stroke="#000" fill="none"/>
  <path t="114094,114290,114290,114326,114326,114351,114377,114377,114389,114412,114425,114425,114450,114473,114498,114510,114536,114560,114597,114597,114670,114709,114857,114891,114941" d="m542.5,197.89999c-1.83331,0.16667 -1.99933,0.88667 -2,1.82535c-0.00049,0.69066 0,1.79999 0,2.65866c0,0.86333 0.11377,1.76578 -0.00134,2.716c-0.11145,0.91975 -0.80853,1.45409 -0.98798,2.39999c-0.16779,0.88428 -0.01068,1.8 -0.01068,2.7c0,0.90001 0,1.8 0,2.7c0,0.8 0,1.70001 0,2.60001l0,0.89999l0,0.90001l0.00452,0.89549" id="svg_39" stroke-width="2" stroke="#000" fill="none"/>
  <path t="115728,115913,115913,115929,115929,115944,115948,115948,115948,115960,115961,115972,116009,116145,116170,116193,116242,116254,116279,116365,116366,116413,116475,116475,116513,116537,116562,116649,116664,116664,116685,116685,116697,116697,116708,116783,116783" d="m544.5,215.89999c0,-2.59999 0,-3.59999 0,-4.59549c0,-0.74733 0,-1.65634 0,-2.73784c0,-0.672 0,-1.416 0,-2.52367c0,-0.834 -0.00543,-1.74301 0,-2.64301c0.00537,-0.88937 0.52063,-1.48958 1.40002,-1.5c0.8999,-0.01067 1.79999,0 2.69995,0c0.90002,0 1.90076,-0.49281 2.61469,0.08534c0.74457,0.603 0.28534,1.71466 0.28534,2.61467c0,0.89999 0.05292,1.83473 -0.35266,2.59999c-0.44843,0.84608 -0.63989,1.4799 -1.00452,2.35268c-0.29938,0.71664 -0.94281,1.59016 -1.44281,2.146l-0.70001,0.70132l-0.69867,0.70001l-0.51599,0.59999" id="svg_40" stroke-width="2" stroke="#000" fill="none"/>
  <path t="122358,122640,122652,122665,122676,122676,122689,122704,122705,122715,122715,122738,122738,122754,122755,122763,122777,122789,122812,122812,122824,122839,122861,122861,122872,122889,122898,122922,122947,122959,122960,122984,122997,123008,123046" d="m489.5,183.89999c-1.70001,0.05717 -2.46835,0.562 -3.29999,0.94734c-0.87189,0.40399 -1.52759,0.70827 -2.336,1.114c-0.8829,0.4431 -1.30023,1.02731 -2.19736,1.60533c-0.71277,0.45924 -1.45969,1.04755 -1.86667,1.68517c-0.49033,0.7682 -0.9476,1.47491 -1.35266,2.34818c-0.38568,0.83147 -0.71106,1.56706 -1.16882,2.39999c-0.37097,0.67503 -1.34656,1.20445 -1.65701,2c-0.33014,0.84602 -0.24579,1.67743 -0.69617,2.5c-0.42728,0.7804 -0.42532,1.7 -0.42532,2.60001c0,0.89999 0,1.79999 0,2.59999c0,0.90001 0,1.8 0,2.7l0,0.90001" id="svg_41" stroke-width="2" stroke="#000" fill="none"/>
  <path t="124017,124325,124325,124336,124362,124363,124420,124457,124472,124507,124522,124581,124616,124617,124641,124653,124691,124740,124789,124825,124825,124850,124900,124912,124912,124973" d="m488.5,188.89999c1,1 1,1.8 1,2.636c0,1.01668 0,1.71133 0,2.72801c0,0.93599 0.12411,1.84462 -0.00015,2.73582c-0.11182,0.80176 -1.09985,0.90016 -1.99985,0.90016c-0.79999,0 -1.70001,0 -2.60001,0c-0.89999,0 -1.8959,0.18311 -2.59866,-0.28532c-0.79532,-0.53012 -0.39795,-1.65132 -0.88666,-2.42934c-0.46487,-0.74008 -0.91467,-1.28534 -0.91467,-2.08533l0,-0.90001" id="svg_42" stroke-width="2" stroke="#000" fill="none"/>
  <path t="130733,130991,131003,131021,131029,131029,131040,131055,131065,131077,131077,131089,131113,131138,131176,131176,131212,131236,131256,131256,131274,131298,131310,131311,131323,131347,131348,131359,131359,131372,131397,131409,131422,131457,131508,131523,131539,131539,131544,131568,131568,131580,131580,131592,131605,131620,131629,131653,131670,131703,131714,131752,131801,131801,131850,131863,131863,131887" d="m424.5,151.89999c0,1.8 0,2.70001 0,3.52084c0,0.96317 0,1.65382 0,2.722c0,0.95717 0,1.85716 0,2.75716c0,0.8 0,1.70001 0,2.60001c0,0.81067 0,1.72133 0,2.57466c0,0.94 0,1.92534 0,2.82533c0,0.8 0,1.70001 0,2.52084c0,0.96317 0,1.65382 0,2.7265c0,0.91933 0,1.75266 0,2.73116c0,0.82018 0,1.72151 0,2.62151c0,0.89999 -0.00067,1.8 0,2.7c0.00067,0.89867 0.36163,1.46129 1.09982,1.92151c0.71716,0.44711 0.8743,1.47081 1.61002,2.07849c0.58319,0.48172 1.63708,0.91574 2.00351,1.5c0.51105,0.81485 0.82428,1.65248 1.58215,2.14734c0.6954,0.45406 1.12039,1.13519 1.75717,1.7c0.70148,0.62218 1.16257,1.29178 2.04733,1.35266c0.89786,0.06178 1.69998,0 2.65717,0l0.89099,-0.00449l0.7825,-0.08084l0.65201,-0.63066" id="svg_43" stroke-width="2" stroke="#000" fill="none"/>
 </g>
 <g display="none">
  <title>muse_image</title>
  <image xlink:href="http://farm1.static.flickr.com/111/269880887_0b5161ec60.jpg" id="muse" height="480" width="640" y="0" x="0"/>
 </g>
 <g display="none">
  <title>bbox</title>
  <rect stroke="#f00" fill="none" stroke-width="3" height="296.96" width="592.64" y="88.32" x="2.56" id="bbox"/>
 </g>
</svg>
