<svg width="640" height="480" xmlns="http://www.w3.org/2000/svg" xmlns:svg="http://www.w3.org/2000/svg" xmlns:xlink="http://www.w3.org/1999/xlink">
 <!-- Sketchy ANNOTATION
  ImageNet ID: n02395406_28318
  URL: http://static.flickr.com/101/306864212_1f24af56b4.jpg
  Image Width: 500
  Image Height: 333
  BBox X: 104
  BBox Y: 18
  BBox Width: 210
  BBox Height: 280
  Exposure: 2000ms
  Synset Label: pig
  Synset ID: n02395406
  Worker Tag: A DIRTY PIG
  Sanity Check: 
   Context
   Saved
   Shading
  Comment: 
   {}
  Worker ID: A1E9VI5RSZI31F
  Assignment ID: 3X08E93BHVIV472IWAZX70W4VBU667
  HIT ID: 3IJ95K7NDXC3L1ZMH2PYWI0UIS3GNO
  Work Time: 338s
  Worker Score: 0.9286
 END ANNOTATION -->
 <g display="inline">
  <title>Layer 1</title>
  <path t="0,91,107,125,125,148,148,160,160,160,177,177,177,177,193,193,193,193,210,210,210,227,229,229,229,243,243,243,243,260,260,260,260,260,277,277,277,277,277,293,293,293,310,310,310,310,327,327,327,327,343,343,343,343,343,343,360,360,360,360,377,377,377,377,393,393,410,427,427,428,443,443,444,444,460,460,483,483,483,483,493,493,493,516,516,516,527,527,766,766,781,781,801,801,837,838,853,853,853,853,863,864,877,877,893,893,893,914,932,933,944,960,961,977,977,993,993,1010,1011,1028,1028,1043,1043,1043,1061,1061,1061,1078,1078,1078,1078,1094,1096,1096,1096,1111,1111,1127,1128,1143,1144,1160,1161,1177,1178,1194,1194,1194,1211,1211,1228,1228,1244,1244,1245,1261,1261,1261,1277,1278,1278,1293,1293,1294,1311,1311,1327,1328,1343,1344,1344,1360,1361,1377,1378,1378,1393,1394,1394,1411,1411,1427,1428,1444,1461,1461,1461,1483,1483,1498,1511,1527,1528,1544,1563,1563" d="m282.5,222c0,-1 -0.21616,-1.72946 -1,-2.16667c-0.65189,-0.3636 -1.3045,-1.13783 -1.88535,-1.71866c-0.60132,-0.60132 -1.15631,-1.15633 -1.80133,-1.80133c-0.73465,-0.73465 -1.26599,-1.26601 -1.81332,-1.81334c-0.54733,-0.54733 -1.58301,-1.57425 -2.04285,-2.04733c-0.65295,-0.67177 -1.07556,-1.12117 -1.85715,-2.13667c-0.41052,-0.53339 -0.7756,-1.10957 -1.60001,-2.14932c-0.38998,-0.49187 -1.01724,-1.17018 -1.45715,-1.61934c-0.95639,-0.9765 -1.50046,-1.49976 -2.04285,-2.06816c-0.5524,-0.57889 -1.33826,-1.47525 -1.81732,-2.07918c-0.4729,-0.59616 -0.92395,-1.21758 -1.45203,-1.79999c-0.84229,-0.92894 -1.53171,-1.50064 -2.23065,-2.07918c-0.34723,-0.2874 -1.04352,-0.82178 -1.95715,-1.59933c-0.79166,-0.67377 -1.23865,-1.13353 -2.2095,-1.92149c-0.50775,-0.41209 -1.33755,-0.99431 -1.88068,-1.39999c-0.79222,-0.59177 -1.49918,-1.21867 -2.01517,-1.60001c-0.8549,-0.63179 -1.59612,-1.01802 -2.47484,-1.39999c-0.9662,-0.42 -1.48393,-0.59889 -1.99733,-0.8c-1.01553,-0.39781 -2.40474,-0.99191 -2.808,-1.2c-0.74649,-0.38519 -1.70413,-0.97728 -2.49066,-1.60001c-0.72623,-0.575 -1.12369,-1.00594 -1.76534,-1.51466c-0.96524,-0.76529 -1.57938,-1.00394 -2.51601,-1.40266c-0.90004,-0.38315 -1.28122,-0.98329 -1.856,-1.77068c-0.54828,-0.75107 -1.02878,-1.2657 -1.52933,-1.79117c-0.72357,-0.7596 -1.55479,-1.53091 -2.11467,-2.17149c-0.57774,-0.66103 -1.06644,-1.34454 -1.524,-2.17067c-0.3152,-0.56908 -0.69786,-1.77644 -0.81067,-2.368c-0.16254,-0.85228 -0.44643,-1.92058 -0.91199,-2.564c-0.44754,-0.6185 -1.33839,-1.29362 -1.77701,-1.94217c-0.46147,-0.68234 -0.42773,0.10333 -0.0045,0.94283c0.34947,0.69319 0.98846,1.38246 1.28568,2.10001c0.36848,0.88962 0.43117,1.79434 0.57866,2.638c0.12708,0.72688 0.27519,1.52068 0.483,2.304c0.35451,1.33633 0.81914,1.92274 1.12883,2.87733c0.2674,0.82423 0.16667,1.83333 0.16667,2.62267c0,0.72533 0,1.71066 0,2.69466c0,0.86334 0,1.75883 0,2.71735c0,0.68399 0,1.63466 0,2.39999c0,0.99867 0,1.79866 0,2.79866c0,0.8 0,1.80017 0,2.62083c0,1.14584 0,1.93184 0,2.75385c0,1.05865 0,1.77716 0,2.48666c0,1.07199 0,2.04849 0,2.75949c0,0.731 0,1.8125 0,2.8175c0,0.62 0,1.47501 0,2.7045c0,0.6465 0,1.657 0,2.43634c0,0.99966 -0.0121,1.83075 0.00133,2.78883c0.01025,0.73218 0.09424,1.93175 0.43468,2.57066c0.47112,0.88416 1.02028,1.47221 1.27866,2.26266c0.31723,0.9705 0.27075,1.76653 0.638,2.6505c0.30856,0.74271 0.57951,1.76541 0.70868,2.5695c0.09378,0.58379 0.48969,1.78674 0.79999,2.368c0.46361,0.86841 0.98462,1.63686 1.3815,2.3535c0.4677,0.84451 0.83282,1.67055 1.278,2.45717c0.34578,0.61099 0.94983,1.4108 1.47917,1.97917c0.81328,0.87326 1.33823,1.43307 2.16667,2.02083c0.63306,0.44913 1.40347,0.83569 1.94933,1.48534c0.57016,0.67856 1.03296,1.5296 1.54117,2.11467c0.53531,0.61627 1.35023,1.39275 1.93384,1.9955c0.54398,0.56183 1.17679,1.37926 1.45717,2.15717c0.32121,0.89117 0.57841,1.6324 1.36249,2.19667c0.84071,0.60504 1.42183,0.90453 2.10535,1.56799c0.7346,0.71306 1.31459,1.12097 2.18399,1.53534c0.83675,0.3988 1.40001,1.04733 2.00002,1.64732l0.69998,0.68933l0.70016,0.4895l0.78519,0.2905" id="svg_1" stroke-width="2" stroke="#000" fill="none"/>
  <path t="4808,4859,4859,4883,4936,4951,4995,4995,5011,5035,5035,5051,5067,5083,5107,5107,5115,5177,5177,5177,5193,5219,5227,5227,5251,5251,5260,5277,5277,5293,5310,5327,5327,5343,5343,5360,5360,5377,5393,5411,5435,5443,5443,5460,5477,5493,5515,5515,5531,5531,5543,5563,5595,5619,5627,5643,5665,5665,5677,5677,5693,5693,5710,5710,5727,5743,5743,5760,5760,5777,5793,5793,5810,5810,5810,5810,5827,5827,5843,5843,5843,5843,5860,5860,5882,5882,5896,5931,5931,5955,5971,5971,5979,5994,6010,6027,6051,6051,6083,6083,6083,6099,6099,6123,6123,6131,6131,6147,6147" d="m285.5,219c1,0 1.95325,0.42865 2.71466,-0.08533c0.66776,-0.45076 0.89334,-1.51732 1.48535,-2.11467c0.59729,-0.60268 1.29999,-1.3 1.89999,-1.90001c0.60001,-0.59999 1.26575,-1.34238 1.99982,-1.77866c0.78387,-0.46588 1.00061,-1.36383 1.70151,-1.836c0.71075,-0.47879 1.59097,-0.72955 2.29868,-1.38518c0.59363,-0.54996 1.43207,-0.83493 2.19998,-1.25282c0.84109,-0.45772 1.60339,-0.6852 2.35269,-1.0045c0.71448,-0.30446 1.49582,-1.10535 2.34732,-1.47617c0.74896,-0.32616 1.70001,-0.16594 2.63599,-0.16667c0.84933,-0.00067 1.59241,0.04158 2.56384,-0.22133c0.79892,-0.21622 1.81696,-0.54095 2.59885,-0.86267c0.75409,-0.31027 1.49994,-0.88741 2.40134,-0.916c0.89954,-0.02853 1.80038,0.02536 2.59998,0c0.9014,-0.02859 1.62314,-0.68491 2.50452,-0.94284c0.82925,-0.24268 1.6955,-0.05716 2.67398,-0.05716c0.82019,0 1.72153,0 2.62152,0c0.89999,0 1.79999,0 2.69998,0c0.90002,0 1.80035,0 2.51434,0c0.95367,0 1.68567,0 2.85233,0c0.8125,0 1.81735,0 2.508,0c1.07269,0 1.992,0 2.82535,0c0.83334,0 1.70709,-0.11552 2.63599,0.036c0.87491,0.14272 1.60388,0.59117 2.53067,0.964c0.78052,0.314 1.61084,0.59251 2.14935,0.8c1.00546,0.38742 1.91907,0.81909 2.85065,1.36667c0.52164,0.30663 1.29559,0.84189 2.064,1.26399c0.78397,0.43065 1.67191,0.60155 2.42203,0.9265c0.89087,0.38593 1.59305,0.93971 2.34732,1.64284c0.60233,0.56151 1.44583,0.87541 2.20001,1.284c0.65005,0.35217 1.22824,1.08571 2.02148,1.5945c0.74637,0.47873 1.53036,0.40375 2.00018,1.22168c0.34064,0.59305 1.09964,1.22115 1.77832,1.89983c0.51599,0.51601 1.2471,1.24757 1.75266,1.75267c0.73102,0.73035 1.24734,1.2265 2.08069,1.914l0.75598,0.38399l0.71066,0.65918l0.40002,0.642" id="svg_2" stroke-width="2" stroke="#000" fill="none"/>
  <path t="9154,9257,9272,9272,9272,9292,9292,9310,9310,9310,9330,9331,9345,9345,9345,9362,9362,9377,9377,9377,9393,9393,9410,9426,9426,9443,9443,9460,9460,9460,9476,9476,9476,9494,9494,9494,9510,9510,9510,9526,9526,9526,9543,9543,9543,9560,9560,9560,9576,9576,9576,9593,9593,9593,9610,9626,9626,9643,9643,9660,9660,9660,9676,9693,9693,9693,9710,9710,9726,9726,9743,9743,9743,9760,9760,9776,9776,9776,9776,9793,9793,9810,9811,9811,9826,9826,9859,9859,9867,9867,9883,9907,9923,9923,9923,9955,9979,9987,10003,10013,10026,10043,10043,10060,10060,10060,10076,10076,10076,10093,10110,10110,10131,10131,10147,10147,10171,10179,10203,10211,10235,10283,10315,10339,10371,10387,10405,10420,10443,10451,10451,10483,10491,10515,10531,10531,10555,10579,10587,10587,10595,10627,10643,10643,10651,10675,10683,10683,10707,10707,10723,10739,10747,10747,10760,10760,10779,10793,10810,10810,10831,10845,10846,10860,10876,10876,10893,10893,10910,10910,10926,10926,10943,10960,10960,10960,10976,10976,10993,10993,11010,11031,11031,11031,11049,11049,11049,11049,11060,11060,11060,11076,11076,11076,11093,11093,11093,11110,11110,11110,11126,11126,11126,11143,11143,11143,11160,11160,11176,11176,11176,11193,11193,11193,11210,11210,11226,11226,11243,11243,11243,11243,11260,11260,11260,11260,11276,11293,11293,11310,11310,11326,11326,11343,11343,11343,11360,11360,11360,11360" d="m368.5,221c0,-1.04167 -0.06302,-2.00417 0.02133,-2.8c0.08578,-0.80928 0.56863,-1.58449 1.12799,-2.39999c0.53888,-0.78564 0.75357,-1.60727 0.93335,-2.40001c0.22934,-1.01131 0.53409,-1.59703 1.01715,-2.59999c0.38419,-0.79768 0.66769,-1.38921 0.8475,-2.40451c0.14981,-0.84598 0.24683,-1.82457 0.48868,-2.61015c0.24149,-0.78435 0.70465,-1.61765 1.12799,-2.364c0.50735,-0.89452 1.00269,-1.62547 1.62134,-2.02135c0.78995,-0.50548 1.44266,-1.03331 2.13617,-1.7215c0.51648,-0.51251 1.07956,-1.08646 1.87851,-1.87833c0.59741,-0.59212 1.17273,-1.17888 2,-1.77884c0.58194,-0.42204 1.42596,-0.87225 2.19998,-1.50667c0.62198,-0.50981 1.20035,-1.11566 2,-1.91466c0.40018,-0.39984 0.99652,-1.00348 1.80002,-1.79984c0.59741,-0.5921 1.17038,-1.18214 2.00015,-1.77884c0.59079,-0.42485 1.26477,-0.76102 2.22116,-1.34267c0.81076,-0.49307 1.34195,-0.87201 2.41202,-1.51199c0.69778,-0.41731 1.33475,-0.68312 2.28131,-1.084c0.90076,-0.38148 1.2388,-1.22359 1.88535,-1.74934c0.69772,-0.56734 1.76801,-0.61732 2.5,-0.83333c0.73199,-0.216 1.75638,-0.31322 2.66666,-0.83333c0.72723,-0.41553 1.07648,-1.16507 2.08517,-1.55234c0.67789,-0.26025 1.76303,-0.05193 2.4975,-0.18634c0.93823,-0.17171 1.55765,-0.81693 2.13333,-1.44533c0.5751,-0.62778 1.39651,-1.11482 2.45068,-1.64934c0.63129,-0.32008 1.30191,-0.65808 1.97998,-0.972c1.17865,-0.54565 1.81598,-0.78754 2.85333,-0.86133c0.668,-0.04752 1.47617,-0.09949 2.43335,-0.70534c0.63071,-0.3992 1.3735,-1.06213 2.18933,-1.22266c1.02679,-0.20204 1.82083,-0.06731 2.61066,-0.49734c0.82523,-0.44931 1.76984,-0.7334 2.42535,-1c0.69409,-0.2823 1.76392,-0.56932 2.67465,-0.57466c0.89996,-0.00526 1.79999,0 2.70001,0c0.89999,0 1.79999,0 2.47198,0c1.09866,0 1.86966,0 2.73068,0c0.89697,0 1.776,0 2.58298,0c1.04367,0 2.01434,0 2.77151,0c0.89999,0 1.64734,0 2.64151,0c0.94415,0 1.90381,-0.09183 2.57599,0.42534c0.61649,0.47432 1.39526,0.608 2.05066,1.14932c0.60483,0.49956 0.974,1.22667 0.97467,2.12534c0.00067,0.90001 0,1.8 0,2.7c0,0.90001 0.18887,1.86931 -0.2215,2.70001c-0.34116,0.69058 -1.02045,1.28485 -1.87833,1.77866c-0.73764,0.42459 -1.2402,1.11256 -1.90018,1.62134c-0.76505,0.58977 -1.1543,1.41626 -2,1.5c-0.79608,0.07883 -1.49377,0.28145 -2.2215,0.87866c-0.72885,0.59814 -1.24606,0.92773 -1.80383,1.68533c-0.49063,0.66641 -0.90729,1.31554 -1.05869,2.03867c-0.21078,1.00671 -0.69717,1.70795 -0.87997,2.76134c-0.14331,0.82578 -0.03595,1.80267 -0.03601,2.636c-0.00009,0.97833 -0.37079,1.42802 -0.87851,2.2215c-0.478,0.74702 -0.12149,1.7785 -0.12149,2.57851c0,0.836 0,1.85266 0,2.54733c0,1.02733 0,1.97417 0,2.67349c0,0.97917 0,1.95834 0,2.8125c0,0.79201 0,1.81934 0,2.51401c0,1.03799 0,1.98599 0,2.658c0,0.98932 0.00177,2.02533 0,2.74283c-0.00226,0.90451 0.05453,1.84122 -0.44666,2.6265c-0.57587,0.90225 -1.21051,1.2825 -1.76401,1.836c-0.78934,0.78934 -1.39584,1.3877 -1.78934,1.81017c-0.61023,0.65514 -1.40591,1.65804 -1.78934,2.2045c-0.38193,0.54433 -1.0437,1.60818 -1.45801,2.3175c-0.37772,0.64667 -0.90161,1.47209 -1.40982,2.05717c-0.53531,0.61627 -1.33597,1.407 -1.94284,1.9955c-0.59338,0.57541 -1.39172,1.25009 -2,1.65182c-0.78958,0.52147 -1.60156,1.07175 -2.18933,1.56734c-0.72751,0.61342 -1.47742,1.04367 -2.17999,1.35333c-0.81955,0.36122 -1.56625,0.85332 -2.34799,1.43466c-0.77615,0.57718 -1.41101,1.20638 -2.02103,1.683c-0.7489,0.58513 -1.55167,0.87369 -2.32782,1.41968c-0.62137,0.43712 -1.65994,0.99254 -2.30316,1.12534c-0.68591,0.1416 -1.78671,0.18401 -2.86401,0.336c-0.68198,0.09622 -1.60092,0.34552 -2.39465,0.54933c-0.9585,0.24611 -1.94,0.44725 -2.59735,0.70934c-1.0101,0.40274 -1.6745,0.56424 -2.65997,0.57466c-0.72531,0.00766 -1.71503,0 -2.55634,0c-0.729,0 -1.93033,0 -2.64102,0l-0.77466,0l-0.83066,0" id="svg_3" stroke-width="2" stroke="#000" fill="none"/>
  <path t="14921,14956,14964,15003,15043,15075,15075" d="m273.5,220c0,0.88667 0.01068,1.81467 0.22134,2.75717l0.69333,0.5295l0.08533,0.88l0,0.83333" id="svg_4" stroke-width="2" stroke="#000" fill="none"/>
  <path t="22077,22157,22173,22188,22206,22206,22231,22232,22243,22243,22259,22299,22316,22339,22364,22403,22412,22412,22428,22443,22464,22476,22493,22516,22516,22516,22526,22526,22543,22559,22576,22595,22596,22612,22612,22635,22636,22643,22659,22676,22693,22709,22726,22743,22764,22764,22780,22793,22811,22811,22835,22851,22868,22868,22883,22899,22916,22916,22955,22971,22971,23003,23019,23035,23075,23083,23093,23110,23128,23128,23149,23163,23177,23177,23203,23227,23244,23268,23268,23283,23293,23316,23326,23343,23364,23364,23396,23403,23419,23436,23467,23491,23492,23499,23500,23500,23509,23526,23543,23571,23571,23587,23587,23596,23627,23627,23635,23667,23675,23675,23693,23716,23726,23743,23743,23759,23759,23759,23776,23776,23776,23793,23809,23809,23827,23827,23843,23859,23859,23876,23893,23893,23909,23909,23926,23926,23943,23943,23959,23959,23976,23976,23993,23993,24009,24026,24043,24043,24059,24083,24093,24109,24126,24143,24159,24159,24179,24179,24204,24204,24235,24235" d="m264.5,205c0.01068,1.81467 0.42389,2.56505 0.91599,3.28667c0.51553,0.75597 0.54895,1.74808 1.08401,2.54666c0.45462,0.67854 1.10114,1.26555 1.70001,1.86667c0.59662,0.59888 1.15012,1.4043 1.29999,2.3c0.14023,0.83818 0.95728,1.282 1,2.10001c0.04694,0.89877 0,1.7 0,2.59999c0,0.90001 0,1.8 0,2.7c0,0.90901 0,1.93333 0,2.60535c0,0.74399 0,1.85165 0,2.68565c0,0.90901 0,1.80901 0,2.71967c0,0.91084 0,1.8 0,2.78917c0,0.77934 0,1.77867 0,2.49567c0,0.90451 -0.13586,1.7648 -0.64734,2.35718c-0.56641,0.65601 -0.76474,1.50017 -1.32733,2.33665c-0.45844,0.68163 -0.8866,1.33989 -1.10934,2.12801c-0.24826,0.87846 -0.69595,1.73882 -1.08264,2.48267c-0.40717,0.78325 -1.34286,1.18144 -1.71185,2.10001c-0.33853,0.84271 0.0625,1.73102 -0.17865,2.59999c-0.21402,0.77122 -0.86426,1.61635 -0.922,2.3c-0.08237,0.97525 -0.02084,2 -0.02084,2.8c0,0.89999 0,1.8 0,2.7c0,0.89999 0,1.79999 0,2.70001c0,0.89999 0,1.79999 0,2.59998c0,0.90002 0,1.72086 0,2.68402c0,0.86331 0,1.75882 0,2.716c0,0.89999 0,1.79999 0,2.59998c0,0.90002 0,1.80002 0,2.70001c0,0.89999 -0.13168,1.85004 0.22134,2.60001c0.36505,0.77551 0.37549,1.60458 0.81467,2.46399c0.35614,0.69693 0.95963,1.23734 0.96399,2.07199c0.00531,1.02121 0.02548,1.81131 0.44266,2.56384c0.46454,0.83798 1.22009,1.2211 1.51569,2.27933c0.24799,0.88779 -0.03418,1.84442 0.20831,2.6875c0.19562,0.68008 0.39948,1.79388 0.88602,2.47168c0.46603,0.6492 0.92026,1.36212 0.94733,2.16165c0.02859,0.8443 0.87146,1.35995 1,2.20001c0.12167,0.79526 0.74478,1.53772 0.96399,2.39999c0.22195,0.87314 0.29285,1.67767 0.74051,2.41434c0.43051,0.7084 0.69202,1.44833 0.99551,2.23749c0.39545,1.02826 0.77139,1.92294 1.09998,2.46152c0.54355,0.89093 1.0632,1.81094 1.20001,2.48666c0.1991,0.98328 0.7496,1.65448 1.2955,2.29999c0.63928,0.75592 0.76453,1.51559 1.31516,2.336c0.4693,0.69922 0.83298,1.40054 1.38934,2.19736c0.47498,0.68024 1.36292,1.20773 1.97916,1.6875c0.74429,0.57944 0.85693,1.52615 1.24234,2.45782c0.28851,0.69742 0.87256,1.34619 1.2785,2.02133c0.5914,0.98355 1.15173,1.46823 1.88934,1.97467c0.68829,0.4726 1.237,1.14969 1.90533,1.72534c0.71475,0.61563 1.27722,1.24484 1.73065,1.91064c0.49554,0.72763 1.30588,1.1185 1.892,1.67468c0.59985,0.56921 1.12732,1.17789 1.91602,1.71466c0.6889,0.46887 1.48798,1.09982 2.16666,1.47916l0.83334,0.35419l0.79199,0.228" id="svg_6" stroke-width="2" stroke="#000" fill="none"/>
  <path t="27026,27185,27185,27201,27221,27221,27245,27268,27268,27268,27285,27285,27292,27324,27324,27340,27356,27356,27382,27391,27391,27412,27427,27444,27444,27468,27468,27476,27492,27509,27509,27526,27542,27542,27564,27576,27592,27628,27628,27636,27636,27652,27668,27684,27701,27716,27716,27740,27740,27756,27780,27788,27788,27804,27828,27852,27852,27868,27884,27884,27898,27898,27909,27926,27926,27942,27959,27980,27980,27999,27999,28020,28020,28028,28028,28044,28060,28060,28084,28124,28124,28156,28156,28164,28176,28192,28211,28226,28251,28276,28276,28316,28316,28340,28372,28372,28388,28396,28396,28422,28436,28447,28447,28470,28470,28485,28500,28531,28532,28547,28563,28564,28579,28580,28603,28628,28628,28651,28652,28683,28683,28699,28715,28716,28716,28726,28726,28742,28759,28776,28776,28792,28792,28792,28809,28826,28826,28842,28842,28842,28859,28876,28876,28892,28892,28916,28947,28963,28964,28988,29003,29020,29020,29027,29027,29043,29043,29059,29076,29076,29092,29092,29115,29131,29155,29188,29188,29196,29196,29211,29227,29227,29243,29243,29259,29276,29276,29292,29292,29309,29309,29326,29326,29342,29359,29359,29376,29392,29392,29419,29435,29451,29452,29476,29491,29500,29500,29513,29534,29534,29550,29550,29550,29572,29572,29579,29580,29611,29627,29628,29628,29668,29668,29676,29676,29692,29723,29731,29763,29764,29787,29888" d="m422.5,173c0,1 -0.01022,1.85472 -0.61066,2.60001c-0.52704,0.65419 -1.15714,1.18286 -1.41467,2.07199c-0.24829,0.85725 -0.35922,1.5994 -0.776,2.56c-0.35458,0.81725 -0.93729,1.55685 -1.224,2.40401c-0.28394,0.83894 -0.58249,1.50525 -1.27017,2.25867c-0.61795,0.677 -0.65228,1.49966 -1.05716,2.34816c-0.38623,0.80943 -0.61212,1.55786 -0.64734,2.45717c-0.03671,0.93805 -0.44702,1.61778 -1,2.3c-0.672,0.82904 -0.96664,1.61424 -1.35266,2.3c-0.46964,0.83426 -0.59683,1.7016 -0.64734,2.5c-0.05728,0.90541 -0.79529,1.38953 -1.43201,2c-0.63217,0.60612 -0.43484,1.61057 -0.57248,2.5c-0.14438,0.93298 -0.71432,1.44777 -1.2955,2.34816c-0.41022,0.63553 -1.04935,1.33321 -1.72534,1.9265c-0.5896,0.51746 -1.05106,1.16501 -1.67999,1.72984c-0.69214,0.62158 -0.96469,1.43401 -1.37735,2.12616c-0.49689,0.83347 -1.42249,1.0849 -2.11734,1.76933c-0.50375,0.4962 -1.13953,1.29532 -2,1.716c-0.85385,0.41743 -1.5011,0.78738 -2.09998,1.384c-0.70132,0.69868 -1.30002,1.29999 -1.90002,1.89999c-0.59998,0.59999 -1.29999,1.3 -1.89999,1.90001c-0.60001,0.59999 -1.39957,1.23465 -1.77866,2c-0.4194,0.84677 -0.78378,1.50232 -1.32001,2.38399c-0.40601,0.66757 -0.73914,1.48877 -0.79999,2.40001c-0.06271,0.93924 -0.00134,1.632 -0.00134,2.616c0,0.98399 0,1.67467 0,2.74733c0,0.91934 0,1.75267 0,2.73117c0,0.82016 -0.35489,1.81413 0.03601,2.58549c0.35379,0.69812 1.41013,0.98357 1.87866,1.72134c0.43912,0.69147 0.08533,1.71466 0.08533,2.59999c0,0.94 0,1.63068 0,2.61467c0,0.98399 -0.12973,1.68312 0.00449,2.74283c0.11111,0.87718 0.84146,1.52402 0.98483,2.35718c0.15616,0.90755 -0.0593,1.89128 0.04669,2.57466c0.1492,0.96194 0.70309,1.70322 0.93866,2.64c0.21298,0.847 0.9632,1.39897 1.02399,2.07201c0.08444,0.93486 0.00134,1.94667 0.00134,2.73866c0,1.02734 0,1.72198 0,2.74933c0,0.94666 0,1.62534 0,2.604c0,0.90533 0,1.84668 0,2.53732c0,1.00485 0.01666,2.02713 -0.01068,2.73468c-0.02878,0.74487 -0.35706,1.73724 -0.70532,2.54666c-0.3735,0.86801 -0.23145,1.7467 -0.56934,2.68799c-0.26859,0.7482 -0.70093,1.52179 -1.11465,2.30402c-0.38727,0.73221 -1.12045,1.52496 -1.43335,2.37732c-0.2999,0.81699 -0.31149,1.84061 -0.51932,2.42883c-0.32925,0.93195 -0.60953,1.77924 -0.64749,2.72583c-0.03424,0.85339 -0.06476,1.814 -0.80118,2.39203c-0.65942,0.51761 -1.14621,1.14874 -1.19867,2.12c-0.04352,0.80585 -0.7674,1.32056 -1,2.1875c-0.21494,0.80109 -0.63898,1.58542 -1.10001,2.30048c-0.42688,0.66208 -1.05688,1.61774 -1.46399,2.26801c-0.48221,0.77026 -0.74466,1.59503 -1.23734,2.29602c-0.52405,0.74561 -0.95895,1.34216 -1.67783,2.09381c-0.56113,0.5867 -0.44901,1.62308 -1.09018,2.22086c-0.5372,0.50085 -1.43524,0.87012 -2.12616,1.5c-0.62939,0.57379 -1.3045,1.29999 -1.90451,1.89999c-0.60001,0.60001 -1.19998,1.19998 -1.89999,1.89999c-0.60001,0.60001 -1.20001,1.20001 -1.8045,1.8045c-0.58084,0.58084 -1.34818,1.34818 -1.87015,1.87015c-0.65869,0.65869 -1.30673,1.28 -2.12534,1.77719c-0.80222,0.48721 -1.03909,1.21008 -1.80002,1.80533c-0.77878,0.60922 -1.43896,0.99829 -2.39999,1.22198c-0.87711,0.20416 -1.71548,0.2887 -2.29999,0.82217c-0.7197,0.65689 -1.55948,1.01178 -2.30002,1.42017c-0.6745,0.37195 -1.2504,1.2919 -2.06665,1.61185c-0.81421,0.31915 -1.85962,0.46133 -2.42883,0.8765c-0.59879,0.43674 -1.383,1.26865 -1.99384,1.87949c-0.61069,0.61069 -1.17981,1.24377 -1.82135,1.81067c-0.72324,0.6391 -1.39954,1.05838 -2.19064,1.31467c-0.97455,0.3157 -1.79926,0.25247 -2.79602,0.28668c-0.88956,0.03052 -1.5817,0.62482 -2.21332,1.02399c-0.75217,0.47534 -1.48935,1.07449 -2.08936,1.61749l-0.79999,0.33633l-0.89999,0.03152" id="svg_7" stroke-width="2" stroke="#000" fill="none"/>
  <path t="32723,32792,32808,32843,32851,32891" d="m292.5,332c1.79999,0 2.70001,0 3.5,0.02084l0.88934,0.41516l0.48932,0.66382" id="svg_8" stroke-width="2" stroke="#000" fill="none"/>
  <path t="33377,33471,33487,33487,33506,33525,33542,33542,33559,33580,33580,33627,33627,33643,33644,33683,33683,33700,33732,33780,33780,33857,33899,33899,33931,33947,33978,34010,34059,34107,34107,34131,34163,34217,34275,34299,34351,34351,34433,34449,34531,34531,34563,34611,34635,34675,34715,34755,34779,34804,34851,34875,34883,34915,34923,34984,35051,35051,35092,35092,35115,35147,35147,35163,35179,35196,35235,35235,35259,35259,35276,35300,35307,35308,35332,35355,35356,35424,35424,35424,35461,35477,35477,35492,35492,35492,35510,35510,35510,35525,35526,35526" d="m294.5,330c2.47916,0.52084 3.30759,1.1214 3.71466,1.79999c0.4415,0.73596 0.71216,1.60883 1.38535,2.30002c0.49335,0.50656 1.20715,1.19287 1.89999,1.89999c0.50528,0.51572 1.09735,1.32291 1.5,2c0.49673,0.8353 1.02176,1.45871 1.69867,2.20001c0.5336,0.58435 1.04343,1.23572 1.63467,1.96664c0.56445,0.69781 0.73206,1.48132 1.46664,2.12885c0.66223,0.58374 1.5,0.70383 2.40002,0.7045c0.89999,0.00067 1.83472,-0.05289 2.59998,0.35266c0.84592,0.4483 1.70001,0.64734 2.5,0.64734c0.90002,0 1.80002,0 2.70001,0c0.89999,0 1.8045,0 2.66666,0c0.83334,0 1.99561,0.3887 2.66669,-0.16666c0.69147,-0.57224 0.73206,-1.48132 1.46664,-2.12885c0.66223,-0.58374 1.53336,-0.87115 1.70001,-1.7045c0.16666,-0.83334 0.66931,-1.5484 1.35718,-1.94284c0.8194,-0.46985 1.85144,0.06686 2.74265,-0.05731c0.80188,-0.11172 1.28293,-0.78714 2.09885,-1.00119c0.80179,-0.21033 1.02991,-1.263 1.68799,-1.79865c0.70651,-0.57507 1.52011,-0.80777 2.052,-1.60001c0.55325,-0.82407 0.78659,-1.48825 1.56134,-2.07916c0.73392,-0.55978 1.31512,-1.04785 1.86166,-1.82083c0.41855,-0.59198 1.26721,-1.04788 1.98566,-1.34283c0.98935,-0.40619 2.00137,-0.53336 2.48602,-1.35718c0.38403,-0.65277 1.07126,-1.03815 1.81934,-1.35718c0.71439,-0.30466 1.59647,-0.93607 2.34732,-1.64282c0.50427,-0.47467 1.30151,-0.92291 2.20267,-1.00134c0.76968,-0.06699 1.81787,-0.33273 2.58267,-0.64532c0.54022,-0.22079 1.51981,-0.85132 2.21466,-1.33249c0.6738,-0.46658 1.68268,-0.85284 2.47916,-1.02084l0.7515,-0.168" id="svg_9" stroke-width="2" stroke="#000" fill="none"/>
  <path t="38510,38637,38653,38674,38686,38697,38715,38726,38726,38755,38755,38772,38772,38782,38803,38803,38827,38842,38859,38875,38892,38909,38909,38925,38926,38943,38943,38964,38996,38996,39052,39067,39067,39107,39107,39116,39190,39206,39206,39251,39259,39276,39292,39309,39325,39325,39342,39359,39359,39375,39392,39409,39425,39425,39442,39442,39459,39475,39475,39492,39492,39509,39531,39548,39549,39571,39595,39627,39627,39651,39651,39691,39691,39715,39715,39739,39739,39771,39771,39787,39811,39835,39835,39851,39875,39891,39899,39899,39923,39931,39947,40011,40012,40067,40124,40155,40179,40203,40211,40225,40242,40259,40275,40275,40292,40331,40363,40418,40483,40484,40702,40747,40748,40763,40788,40811,40828,40844,41089,41089,41104,41163,41163,41211,41251,41251,41309,41375,41427,41460,41460,41508,41548,41564,41603,41675,41675,41690,41739,41807,41839,41871,41871,41899,41939,41947,41971,41987,41987,42043,42091,42115,42131,42179,42203,42227,42227,42267,42283,42294,42315,42355,42356,42363,42379,42392,42408,42427,42427,42442,42442,42442" d="m300.5,306c0,-1.70001 0,-2.60001 0,-3.5c0,-0.89999 0,-1.79999 0,-2.70001c0,-0.90015 0,-1.68533 0,-2.63599c0,-0.76532 -0.26724,-1.82846 0.08533,-2.59332c0.38016,-0.82468 1.12564,-1.54282 1.48935,-2.17068c0.44595,-0.76984 0.436,-1.78934 0.92532,-2.39999c0.48932,-0.61066 0.43933,-1.59027 1.06934,-2.20132c0.54117,-0.5249 1.47653,-1.07697 1.88901,-1.79868c0.45343,-0.7934 0.64407,-1.57626 1.24615,-2.10983c0.76633,-0.67914 1.04501,-1.44501 1.59549,-2.133c0.64423,-0.80518 1.17459,-1.2836 1.90002,-1.95584c0.58044,-0.53787 1.25073,-1.13141 1.96664,-1.63467c0.69525,-0.48874 1.63333,-0.16666 2.53336,-0.16666c0.89999,0 1.81607,-0.15903 2.69998,0.01068c0.94708,0.18182 1.54193,1.05841 2.10001,1.46848c0.82791,0.60834 1.64801,0.88824 2.29999,1.23685c0.84741,0.45309 1.67712,0.80609 2.15186,1.58398c0.48889,0.80112 1.04178,1.25198 2.02664,1.57867c0.80252,0.2662 1.50912,0.65521 2.22284,1.32135c0.54654,0.51013 1.50378,1.02051 2.08884,1.5c0.73199,0.59991 1.35876,1.24448 1.65717,2.00983c0.29752,0.76303 0.49469,1.63544 1.25134,2.20749c0.68552,0.51828 0.68619,1.31927 1.08667,2.19867c0.31592,0.6937 0.9964,1.54752 1.41467,2.23132c0.47812,0.78162 1.05789,1.375 1.24283,2.30984c0.14542,0.73495 0.05716,1.74152 0.05716,2.68567c0,0.89999 -0.15353,1.90564 0.16666,2.65717c0.33282,0.78122 0.76813,1.53204 1.186,2.29999c0.45758,0.84091 0.64734,1.70001 0.64734,2.5c0,0.90002 0,1.80002 0,2.70001c0,0.89999 0,1.79999 0,2.70001c0,0.89999 0.43427,2.03241 -0.16666,2.63333c-0.60092,0.60092 -1.44052,0.64984 -2.11868,1.08133c-0.77505,0.49316 -1.81467,0.08533 -2.71466,0.08533c-0.79999,0 -1.70001,0 -2.60001,0c-0.89999,0 -1.79999,0 -2.69998,0c-0.90002,0 -1.80002,0 -2.70001,0c-0.79999,0 -1.70001,0 -2.60001,0c-0.89999,0 -1.82867,0.21661 -2.69998,-0.009c-0.88095,-0.22809 -0.99319,-1.21689 -1.80002,-1.74799c-0.77869,-0.51254 -1.75537,-0.23364 -2.5,0.36765c-0.65359,0.52777 -1.03436,1.22372 -1.45267,2.08936c-0.39551,0.81842 -1.29437,1.13641 -2.04733,1.52133c-0.76318,0.39017 -1.62686,0.59271 -2.5,0.81467c-0.86227,0.21921 -1.55148,0.71478 -2.39999,1.13065c-0.76251,0.37372 -1.49982,0.82291 -2.39999,0.83334c-0.89993,0.01041 -1.8573,0.16367 -2.70001,-0.22134c-0.66931,-0.30579 -1.61322,-0.63626 -2.28934,-1.21466c-0.62665,-0.53607 -0.97229,-1.32529 -1.71048,-1.78549c-0.71716,-0.44711 -0.89484,-1.37845 -0.90018,-2.2785c-0.00534,-0.89996 0,-1.79999 0,-2.70001c0,-0.89999 0,-1.79999 0,-2.59998c0,-0.90002 0,-1.80002 0,-2.70001c0,-0.91068 0,-1.82132 0,-2.67465c0,-0.94 -0.32184,-1.97876 0.22134,-2.70401c0.48227,-0.64389 0.77866,-1.28799 0.7995,-2.14218l0.14581,-0.97916l0.26935,-0.78934l0.36533,-0.72534" id="svg_10" stroke-width="2" stroke="#000" fill="none"/>
  <path t="45607,45815,45906,45906,45922,45922,45922,45956,45980,45988,45988,46004,46161,46161,46264,46280,46309,46347,46363,46363,46395,46466,46541,46639,46675,46715,46731,46779,46811,46811" d="m307.5,310c-0.91467,-0.28665 -1.05264,-1.16956 -0.97916,-2.02084c0.08514,-0.9863 0.37994,-1.78702 0.68365,-2.32199c0.53159,-0.93631 0.86215,-1.823 1.46216,-2.49051c0.48007,-0.53409 1.07993,-1.1564 1.83334,-1.83331c0.61511,-0.55267 1.47662,-1.57504 1.94284,-0.97617c0.51895,0.6666 0.05716,1.74283 0.05716,2.64282c0,0.79999 0,1.70001 0,2.60001c0,0.89999 0.18307,1.89587 -0.28534,2.59866c-0.53012,0.79532 -1.548,0.96799 -2.00131,1.716l-0.88,0.08533l-0.83334,0.02084" id="svg_11" stroke-width="2" stroke="#000" fill="none"/>
  <path t="47655,47850,47850,47884,47900,47910,47939,47963,47995,48067,48131,48559,48703,48719,48788,48850,48915,48916,48964,49353,49750" d="m328.5,307c1,-1 1.06421,-1.92358 0.47916,-2.47916c-0.7251,-0.68854 -1.53296,-0.96744 -2.05383,-1.54617c-0.5741,-0.63788 -1.03284,-1.45731 -1.71066,-1.88934c-0.77365,-0.4931 -1.69067,-0.44217 -1.71466,-0.28265c-0.13373,0.88916 0.57367,1.66037 0.94733,2.49731c0.34476,0.77219 0.76868,1.5 1.10535,2.34283l0.65182,0.40985l0.7955,0.44733" id="svg_12" stroke-width="2" stroke="#000" fill="none"/>
  <path t="52736,52855,52907,52915,52939,52955,52979,52995,53019,53043,53051,53083,53124,53184,53266,53298,53298,53331,53355,53424,53484,53518,53532,53617,53617,53669,53669,53707,53758,53789,53789,53820,53868,53932,53964,53996" d="m304.5,328c1.70001,-0.93832 2.52802,-0.54651 3.2955,-0.05267c0.69635,0.44806 0.66507,1.3812 1.2045,2.05267c0.48761,0.60699 1.33026,1.04895 1.49866,1.80133c0.19669,0.87885 0.54156,1.64719 1.29684,2.146c0.69818,0.46109 0.85019,1.45743 1.7045,1.88602c0.73016,0.3663 1.70001,0.16666 2.60001,0.16666c0.89999,0 1.80627,0.00974 2.39999,-0.5c0.62933,-0.54031 1.29303,-1.21423 1.70001,-1.85184c0.49033,-0.76819 0.74347,-1.61105 1.384,-2.36282c0.56754,-0.66611 0.9548,-1.41888 1.62048,-1.92816c0.67752,-0.51831 1.28482,-0.96783 1.2955,-1.85718l0,-0.89999l0,-0.89999" id="svg_13" stroke-width="2" stroke="#000" fill="none"/>
  <path t="56815,56936,56952,56952,56996,57036,57036,57076,57092,57110,57110,57127,57143,57158,57175,57175,57191,57208,57227,57241,57258,57258,57275,57299,57299,57355,57395,57427,57444,57460,57491,57513,57514,57525,57525,57525,57547,57655,57655,57717,57717,57791,57807,57829,57884,57884,57899,57899,57931,57931,57955" d="m281.5,255c-0.57468,-1.636 -0.95288,-2.48126 -0.99551,-3.34734c-0.04425,-0.89891 -0.00455,-1.81934 -0.00449,-2.65266c0.00009,-0.97833 0.1543,-1.91626 1,-2c0.79608,-0.07883 1.70096,0.05545 2.5,0.5c0.80093,0.44562 1.54681,0.80687 2.29999,1.216c0.79752,0.43323 1.25363,0.98796 1.70001,1.784c0.4483,0.79947 0.76349,1.7195 1.30133,2.3c0.57605,0.62173 1.40701,1.2173 1.84149,1.89999c0.46594,0.73213 0.63943,1.74715 0.35269,2.5955c-0.27432,0.81165 -1.39551,0.7045 -2.30002,0.7045c-0.86215,0 -1.71637,0.00662 -2.6955,0c-0.7894,-0.00534 -1.56494,0.01416 -2.5,-0.52084c-0.71259,-0.40771 -1.53543,-0.92435 -2.33334,-1.47916c-0.65714,-0.45692 -1.44403,-1.46921 -0.80948,-1.94284c0.76056,-0.56769 1.80948,-0.05724 2.64282,-0.05716c0.97867,0.00009 1.75266,0.05716 2.65268,0.35266l0.69464,0.29468l1.01669,0.32733" id="svg_14" stroke-width="2" stroke="#000" fill="none"/>
  <path t="58478,58577,58611,58611,58643,58652,58652,58659,58659,58707,58707,58755,58755,58779,58779,58796,58812,58843,58852,58868,58868,58907,58907,58923,58971,58996,59020,59043,59074,59091,59091,59091,59108,59108,59124,59124,59141,59203,59252,59324,59324,59360,59393,59394,59394,59408,59408,59408" d="m354.5,256c-0.97916,-2.5 -1.00217,-3.48399 -1,-4.34734c0.00226,-0.90001 0.10617,-1.84795 0.436,-2.46733c0.48029,-0.90186 1.06415,-1.51663 1.89734,-2.01866c0.61942,-0.37321 1.66666,-0.16667 2.45599,-0.16667c1.04401,0 1.90616,0 2.81067,0c0.89999,0 1.84454,-0.09547 2.60001,0.284c0.86719,0.43558 1.65567,0.7675 1.79999,1.716c0.12033,0.79091 0.01068,1.70006 0,2.60001c-0.01044,0.87935 -0.6106,1.39465 -1.5,1.39999c-0.9213,0.00552 -1.83334,0 -2.50534,0c-0.98932,0 -2.02533,0 -2.74283,0c-0.90451,0 -1.76782,0 -2.73099,0c-0.92084,0 -1.96213,0.27432 -2.71817,-0.284c-0.61496,-0.45412 0.39868,-0.72357 1.36398,-0.716c0.68008,0.00534 1.52002,0.08533 2.51602,0.284l0.79648,0.216l0.7515,0.216" id="svg_15" stroke-width="2" stroke="#000" fill="none"/>
  <path t="60743,60964,60964,60964,60964,60964,60964,60980,60980,60980,61009,61009,61009,61009,61024,61024,61024,61024,61024,61042,61042,61042,61059,61059,61059,61074,61075,61092,61092,61092,61092,61109,61109,61109,61109,61109,61125,61125,61125,61142,61142,61142,61142,61142,61159,61159,61159,61159,61159,61174,61174,61174,61174,61192,61192,61192,61192,61192,61209,61209,61209,61224,61224,61225,61225,61242,61242,61242,61259,61259,61259,61259,61274,61275,61275,61275,61275,61275,61292,61292,61310,61310,61310,61310,61325,61325,61325,61342,61342,61359,61359,61359,61375,61375,61375,61392,61392,61409,61409,61425,61425,61425,61442,61442,61459,61459,61459,61476,61476,61476,61492,61492,61492,61509,61509,61509,61509,61509,61525,61526,61526,61526,61542,61542,61542,61559,61559,61559,61559,61575,61575,61575,61576,61592,61592,61592,61609,61610,61610,61610,61610,61641,61641,61642,61642,61659,61659,61659,61659,61675,61675,61675,61676,61676,61692,61692,61692,61709,61709,61709,61725,61725,61726,61726,61742,61742,61742,61759,61759,61759,61759,61759,61775,61776,61776,61776,61776,61776,61793,61793,61793,61793,61793,61793,61809,61809,61810,61810,61810,61810,61810,61826,61826,61826,61827,61843,61843,61843,61843,61843,61860,61860,61860,61860,61860,61860,61877,61877,61877,61877,61877,61877,61877,61877,61893,61893,61893,61893,61919,61919,61919,61919,61919,61933,61933,61934,61934,61948,61948,61948,61948,61948,61965,61965,61982,61982,62018,62018,62018,62026,62026,62026,62026,62042,62042,62059,62059,62075,62076,62092,62093,62093,62093,62109,62110,62110,62127,62143,62143,62143,62160,62160,62160,62176,62177,62177,62177,62193,62194,62194,62211,62211,62211,62211,62211,62211,62227,62228,62228,62228,62228,62228,62244,62244,62244,62244,62244,62260,62261,62261,62261,62261,62277,62277,62277,62294,62294,62310,62311,62311,62327,62327,62328,62328,62344,62344,62344,62344,62360,62360,62360,62361,62377,62377,62377,62377,62377,62394,62394,62394,62394,62394,62411,62411,62411,62411,62411,62427,62427,62427,62428,62428,62444,62444,62444,62445,62445,62460,62461,62461,62461,62477,62477,62478,62494,62494,62494,62494,62510,62511,62511,62511,62511,62527,62528,62528,62528,62544,62544,62544,62560,62560,62560,62577,62577,62593,62594,62594,62594,62611,62611,62627,62627,62628,62651,62651,62651,62651,62651,62665,62666,62666,62681,62682,62682,62682,62697,62697,62698,62713,62713,62713,62728,62728,62729,62744,62744,62744,62745,62761,62761,62761,62761,62777,62777,62777,62778,62795,62796,62796,62796,62811,62811,62811,62811,62827,62827,62828,62844,62844,62844,62860,62861,62877,62877,62878,62894,62894,62894,62894,62910,62911,62911,62927,62927,62927,62951,62952,62952,62966,62967,62983,62983,62983,62983,62999,63000,63000,63000,63017,63018,63018,63034,63054,63055,63055,63055,63074,63075,63075,63076,63091,63092,63092,63108,63108,63108,63108,63124,63124,63125,63125,63141,63142,63142,63161,63161,63162,63162,63162,63177,63177,63178,63178,63178,63194,63194,63194,63194,63211,63211,63212,63227,63227,63227,63244,63244,63260,63261,63261,63277,63278,63278,63278,63278,63294,63294,63295,63311,63327,63328,63328,63328,63344,63344,63345,63345,63360,63361,63361,63377,63377,63394,63394,63394,63410,63411,63427,63427,63428,63444,63444,63444,63445,63461,63461,63461,63462,63477,63478,63478,63494,63494,63510,63511,63527,63528,63544,63544,63560,63561,63577,63594,63595,63610,63610,63611,63627,63627,63644,63644,63660,63661,63681,63681,63681,63697,63698,63716,63716,63732,63732,63756,63757,63780,63780,63820,63840,63852,63860,63884,63916,63916,63932,63957,63977,63996,64011,64027,64042,64064,64065,64082,64082,64097,64120,64121,64140,64140,64157,64157,64195,64212,64212,64236,64301,64316,64351,64367,64383,64383,64399,64400,64415,64415,64431,64448,64448,64539,64539,64573,64574,64590,64607,64608,64625,64625,64626,64642,64642,64643,64643,64659,64659,64676,64676,64692,64693,64693,64725,64725,64738,64739,64739,64751,64752,64752,64752,64768,64769,64769,64789,64804,64821,64906,64906,64922,64951,64967,64983,65005,65083,65083,65140,65140,65179,65787,65787,65822,65836,65836,65916,65916" d="m371.5,207c-0.03201,-1.85733 -0.09903,-2.55348 -0.66415,-3.6425c-0.3544,-0.68298 -0.84677,-1.34398 -1.33502,-1.995c-0.65436,-0.8725 -1.25687,-1.4597 -1.69183,-2.2205c-0.49365,-0.86346 -0.60989,-1.51628 -0.85065,-2.2045c-0.26382,-0.75415 -0.7702,-1.94958 -1.22635,-2.73483c-0.4613,-0.79413 -0.73077,-1.16182 -1.22665,-1.88834c-0.67035,-0.98213 -1.181,-1.8091 -1.62,-2.493c-0.53458,-0.83278 -1.07138,-1.38591 -1.67551,-2.16417c-0.57959,-0.74667 -0.77927,-1.48518 -1.28052,-2.4305c-0.28156,-0.53098 -0.84415,-1.44684 -1.03198,-1.8c-0.61649,-1.1591 -0.99692,-2.02571 -1.3765,-2.90584c-0.18686,-0.43329 -0.52402,-1.27248 -0.99951,-2.35666c-0.38669,-0.88165 -0.77414,-1.66495 -1.18799,-2.4975c-0.31744,-0.63863 -0.67181,-1.34355 -1.008,-2.12401c-0.35529,-0.82478 -0.80972,-2.16214 -0.94,-2.62534c-0.2612,-0.92874 -0.47394,-1.85616 -0.58084,-2.3075c-0.30246,-1.27699 -0.4906,-2.04518 -0.71518,-2.7485c-0.32465,-1.01672 -0.74915,-2.03107 -1.07333,-2.74399c-0.33432,-0.73524 -0.68893,-1.45686 -1.03198,-2.14801c-0.59702,-1.2028 -0.8587,-1.71864 -1.23666,-2.47467c-0.56857,-1.1373 -0.90378,-1.79611 -1.2265,-2.49466c-0.31921,-0.69093 -0.70966,-1.66086 -0.9155,-2.49017c-0.2363,-0.952 -0.53391,-1.9393 -0.82419,-2.476c-0.32742,-0.60539 -0.75064,-1.25056 -1.44781,-2.36716c-0.51849,-0.83046 -0.77975,-1.2641 -1.3125,-2.125c-0.50934,-0.82306 -0.73877,-1.21155 -1.55017,-2.40434c-0.42245,-0.62102 -0.98349,-1.63286 -1.17068,-2.19066c-0.32227,-0.96031 -0.47485,-1.65401 -0.79999,-2.61334c-0.27863,-0.82205 -0.67776,-1.68182 -1.20001,-2.45067c-0.47995,-0.70654 -0.99866,-1.65314 -1.21066,-2.144c-0.34222,-0.79236 -0.89337,-1.82985 -1.40399,-2.49199c-0.46036,-0.59698 -1.01605,-1.52544 -1.35333,-2.13068c-0.45959,-0.82471 -1.06607,-1.28949 -1.81049,-2.31583c-0.41357,-0.57018 -0.76492,-1.35696 -1.43219,-2.17483c-0.44012,-0.53947 -1.25583,-1.27831 -1.79999,-1.872c-0.39758,-0.43376 -1.19162,-1.43337 -1.57867,-1.968c-0.55872,-0.77174 -1.17303,-1.6571 -1.60666,-2.14533c-0.63504,-0.71503 -1.36487,-1.40755 -1.97101,-1.998c-0.32846,-0.31994 -1.00668,-0.99281 -1.75165,-1.59c-1.03021,-0.82585 -1.71588,-1.19241 -2.33969,-1.51034c-0.84988,-0.43314 -1.64478,-0.8324 -2.31631,-1.38833c-0.70511,-0.58372 -1.39008,-1.32192 -1.90933,-1.836c-0.53937,-0.53401 -1.05725,-1.09556 -2.14935,-1.984c-0.46896,-0.38151 -1.16864,-0.80916 -1.85065,-1.216c-1.00427,-0.59909 -1.5679,-0.94215 -2.4205,-1.579c-0.91312,-0.68204 -1.4975,-1.22014 -2.09552,-1.76366c-0.60199,-0.54713 -1.18332,-1.11077 -2.09998,-1.85316c-0.58957,-0.4775 -1.19687,-0.90522 -1.80002,-1.317c-0.89539,-0.6113 -1.80359,-1.21318 -2.44165,-1.6045c-0.66714,-0.40916 -1.78964,-1.00423 -2.20068,-1.19984c-0.84988,-0.40445 -1.71957,-0.77138 -2.53799,-1.143c-1.05771,-0.48027 -1.57077,-0.78881 -2.349,-1.2465c-0.90222,-0.5306 -1.6398,-0.81879 -2.47968,-1.11066c-0.88803,-0.30862 -1.79282,-0.58813 -2.37015,-0.82084c-0.84546,-0.34079 -1.83719,-0.96452 -2.30618,-1.3045c-0.72299,-0.52409 -1.85291,-1.16601 -2.53351,-1.4265c-0.73856,-0.28267 -1.55099,-0.54862 -1.96915,-0.7175c-1.34598,-0.54359 -1.80078,-0.79342 -2.74802,-1.292c-0.48663,-0.25613 -1.46576,-0.79568 -1.96533,-1.05601c-1.49081,-0.77686 -1.99759,-1.00402 -3.00934,-1.45733c-0.50897,-0.22803 -1.0271,-0.44661 -2.07465,-0.90933c-1.08319,-0.47848 -1.63547,-0.73744 -2.75833,-1.25967c-0.56024,-0.26056 -1.10928,-0.52708 -2.18933,-0.98933c-0.50986,-0.21822 -1.89615,-0.7313 -2.70001,-0.9c-0.7204,-0.15118 -1.41635,-0.17115 -2.78882,-0.38866c-0.74808,-0.11856 -1.54266,-0.31245 -2.397,-0.54c-0.45428,-0.12099 -1.92432,-0.55973 -2.45319,-0.72234c-1.11063,-0.34147 -1.68968,-0.51875 -2.28532,-0.69067c-0.60802,-0.17548 -2.50839,-0.66299 -3.1635,-0.804c-0.65825,-0.14169 -1.31847,-0.26797 -1.9725,-0.396c-1.27359,-0.24931 -1.88618,-0.36256 -2.46666,-0.50934c-1.56522,-0.39578 -2.41704,-0.76139 -3.17751,-1.09516c-0.70279,-0.30845 -1.72308,-0.7169 -2.44783,-0.8515c-0.74565,-0.13848 -1.52641,-0.17233 -2.31601,-0.252c-1.20058,-0.12112 -2.00067,-0.26497 -2.79866,-0.43817c-0.80214,-0.1741 -1.99953,-0.48109 -2.79733,-0.67783c-0.78088,-0.19256 -1.52737,-0.38161 -2.23199,-0.516c-1.19373,-0.22768 -2.11691,-0.20352 -3.08801,-0.288c-0.69879,-0.06079 -1.64912,-0.57556 -2.16533,-0.848c-0.87448,-0.46152 -1.87753,-0.84763 -2.59866,-0.97866c-0.71762,-0.1304 -1.75163,-0.16617 -2.85434,-0.17067c-0.72266,-0.00295 -1.74966,0 -2.47499,0c-0.9895,0 -1.81017,0 -2.95601,0c-0.7905,0 -1.35416,0 -2.23466,0c-1.196,0 -2.05699,0 -2.828,0c-0.96083,0 -1.93733,0 -2.81233,0c-0.64499,0 -1.64565,-0.01804 -2.5,0.02084c-0.94621,0.04306 -1.98085,0.19318 -2.7065,0.33183c-0.73245,0.13995 -1.43938,0.30949 -2.70934,0.5265c-0.80095,0.13687 -1.63271,0.29053 -2.5425,0.7875c-0.78117,0.42671 -1.16969,0.74925 -2.04167,1.375c-0.45573,0.32705 -1.3651,1.01059 -2.29166,1.625c-0.8718,0.57809 -1.3015,0.83868 -2.16667,1.27084c-0.84117,0.42017 -1.2717,0.61138 -2.62134,1.04117c-0.92361,0.29412 -1.40526,0.39124 -2.35333,0.64667c-0.94261,0.25395 -1.86716,0.5188 -2.73734,0.86c-0.83942,0.32915 -1.61937,0.70083 -2.31599,1.116c-0.9491,0.56564 -1.44344,1.0019 -2.11467,1.52666c-0.82448,0.64457 -1.68819,0.93502 -2.40016,1.31517c-0.743,0.39671 -1.54153,0.98831 -2.2905,1.7235c-0.50427,0.495 -0.93045,1.05884 -1.56216,1.88067c-0.60429,0.78616 -1.19531,1.51433 -1.64618,1.93183c-0.70193,0.64999 -1.59569,1.23013 -2.26816,1.62083c-0.70538,0.40983 -1.44983,0.78609 -2.5235,1.4c-0.68646,0.39251 -1.3389,0.79883 -1.95601,1.236c-0.61778,0.43764 -1.51785,1.17793 -2.11516,1.72567c-0.62376,0.572 -1.25337,1.1993 -1.58084,1.52499c-1.03806,1.03244 -1.76448,1.76439 -2.12933,2.13867c-0.72731,0.74612 -1.09845,1.1018 -2.052,2.208c-0.57816,0.67071 -1.07651,1.33805 -1.54799,1.992c-0.47255,0.65542 -1.20598,1.69651 -1.46935,2.05867c-0.53987,0.74239 -1.09163,1.48996 -1.36333,1.86333c-0.7888,1.08398 -1.26599,1.76468 -1.70599,2.39534c-0.58499,0.8385 -1.23917,1.7042 -1.74667,2.37817c-0.39493,0.52445 -0.99054,1.53239 -1.336,2.18716c-0.38042,0.72099 -0.76534,1.496 -1.164,2.292c-0.39999,0.79867 -0.795,1.59194 -1.2,2.364c-0.39514,0.75325 -0.99803,1.81557 -1.39551,2.47884c-0.38194,0.63737 -0.79231,1.22998 -1.38283,2.457c-0.28185,0.58564 -0.63039,1.45117 -0.855,2.5335c-0.14587,0.70292 -0.12408,1.56315 -0.16934,2.568c-0.03767,0.83669 -0.31042,1.77524 -0.70267,2.55133c-0.28038,0.55478 -0.8333,1.32726 -1.12399,2.362c-0.23999,0.85425 -0.17067,1.886 -0.17067,2.528c0,0.786 0,1.82401 0,2.692c0,0.95599 0,1.4445 0,2.39749c0,1.23451 0,2.0955 0,2.91684c0,0.91533 0,1.84833 0,2.547c0,0.72267 0,2.11734 0,2.75734c0,0.88499 0,1.92532 0,2.84666c0,0.68401 0,1.68666 0,2.54167c0,0.62 0,1.97966 0,2.711c0,0.74733 0,1.49466 0,2.58066c0,1.01401 0,1.66667 0,2.65067c0,1.03734 0,1.76868 0,2.51601c0,0.74733 0,2.17867 0,2.84734c0,0.978 0,1.63666 0,2.674c0,0.73134 0,1.85333 0,2.59467c0,1.0625 0,1.72684 0,2.67334c0,1.21066 0,1.808 0,2.66899c0,1.20834 0,1.89101 0,2.875c0,0.681 0,1.48801 0,2.66667c0,0.89999 0,1.5 0,2.39999c0,1.19867 0,1.78934 0,2.64284c0,1.03583 -0.00122,1.95717 0,2.64117c0.00226,1.26866 -0.03372,1.82216 0.08533,2.63199c0.1839,1.25098 0.54619,1.9332 0.748,3.01733c0.1174,0.63069 0.10301,1.33472 0.2765,2.4185c0.17456,1.09047 0.43475,1.77339 0.7515,2.4015c0.4556,0.90346 0.99254,1.66859 1.377,2.38499c0.42294,0.78812 0.67078,1.72195 0.92834,2.795c0.16606,0.69182 0.44783,1.52286 0.63466,2.15468c0.30495,1.03133 0.49471,1.76126 0.69867,2.49117c0.29428,1.05312 0.61052,1.97435 0.88933,2.77016c0.26366,0.75253 0.5045,1.89238 0.55351,2.565c0.05292,0.72632 0.0549,1.49467 0.05716,2.68567c0.00151,0.79733 0,1.57867 0,2.68567c0,0.981 -0.02199,1.815 0.036,2.601c0.08977,1.21704 0.241,1.96989 0.41068,2.81067c0.08989,0.4454 0.282,1.36913 0.72,2.73599c0.14375,0.44859 0.48325,1.30431 0.8125,2.125c0.31265,0.77933 0.72223,1.86763 0.85016,2.55634c0.1777,0.95673 0.16933,1.884 0.17067,2.78517c0.00131,0.8895 -0.00784,1.74303 0.00017,2.77867c0.00531,0.68556 0.04865,1.53058 0.35249,2.526c0.26338,0.86284 0.52715,1.81703 0.63268,2.64217c0.07672,0.5999 0.32622,1.92755 0.584,2.63599c0.26949,0.74059 0.61098,1.45844 0.948,2.14801c0.45427,0.92949 0.88818,1.66502 1.196,2.48132c0.37213,0.98685 0.59528,1.83594 1.00549,2.50235c0.50856,0.82617 0.95175,1.40286 1.70235,2.28549c0.51523,0.60587 1.0661,1.17209 1.569,1.74301c0.68771,0.78076 1.18982,1.49908 1.70082,2.2955c0.50212,0.78259 1.03235,1.45215 1.22501,2.431c0.14603,0.74194 0.09045,1.56683 0.36934,2.54532c0.25578,0.89746 0.73311,1.67661 1.11465,2.50665c0.3154,0.68616 0.62012,1.50616 0.89551,2.48853c0.19823,0.70709 0.38089,1.43661 0.53783,2.5235c0.14519,1.00549 0.13905,1.64874 0.25067,2.56534c0.11017,0.90469 0.34862,1.77805 0.56334,2.58698c0.27673,1.04257 0.311,1.89838 0.36333,2.85034c0.04221,0.76779 0.29736,1.78436 0.69383,2.50684c0.44144,0.80444 1.01549,1.3873 1.24283,2.30984c0.20914,0.84866 0.60373,1.66898 0.886,2.51398c0.27457,0.8219 0.16667,1.83334 0.16667,2.63333c0,0.80002 0,1.80002 0,2.60001c0,1 0,1.80002 0,2.80002c0,0.79999 0,1.79999 0,2.59998c0,0.80002 0,1.80002 0,2.60001c0,1 -0.02632,1.80038 0.00034,2.79984c0.02081,0.78015 0.29962,1.66983 0.99966,2.27933c0.63806,0.55551 0.99866,1.32083 1,2.22086c0.00133,0.89999 -0.14209,1.81299 0.01067,2.69998c0.14348,0.83316 0.9043,1.5874 0.98801,2.39999c0.09222,0.89529 0.13718,1.66028 0.64867,2.25269c0.56641,0.65601 1.09961,1.4845 1.31667,2.34732c0.21974,0.8735 -0.08356,1.84357 0.20667,2.48535c0.38536,0.85214 1.29489,1.36771 1.65866,2.22931c0.35071,0.83066 0.16576,1.66577 0.52783,2.53802c0.29776,0.71729 0.92859,1.6033 1.44284,2.146c0.68156,0.71924 1.50385,1.32495 1.91466,2.00131c0.47142,0.77612 0.98982,1.19775 1.88535,1.20001c0.89999,0.00226 1.81065,0 2.72133,0c0.85333,0 1.81004,-0.08911 2.56267,0.08533c0.97501,0.22598 1.60757,0.75043 2.616,0.89383c0.97441,0.13855 1.67467,0.02084 2.61467,0.02084c0.98534,0 1.88693,0.05051 2.68533,0c0.90541,-0.05728 1.56914,-0.68884 1.84283,-1.46616c0.32681,-0.92816 0.31577,-1.77142 0.40984,-2.63834c0.0974,-0.89746 0.29956,-1.79114 0.52199,-2.65952c0.14107,-0.55072 0.29926,-1.78748 0.47801,-2.57434c0.21394,-0.94177 0.67094,-1.51389 0.86333,-2.71231c0.09787,-0.60968 -0.07411,-1.59857 0.3055,-2.46384c0.32182,-0.73352 1.08453,-1.55634 1.29933,-2.048c0.36713,-0.84036 0.80322,-1.7359 1.29384,-2.63751c0.32593,-0.59894 0.72075,-1.17007 1.01466,-2.39731c0.20277,-0.84668 0.16933,-1.63202 0.17067,-2.73068c0.00105,-0.87201 0,-1.772 0,-2.672c0,-0.79999 0,-1.70001 0,-2.60001c0,-0.89999 0,-1.79999 0,-2.7045c0,-0.86215 0,-1.6955 0,-2.67398c0,-0.82019 0,-1.77869 0,-2.67419c0,-0.69464 0,-1.72198 0,-2.66864l0,-0.85333l0,-0.94135l0,-0.76801" id="svg_16" stroke-width="2" stroke="#000" fill="none"/>
  <path t="66604,66652,66661,66672,66686,66836,66836,66891,66891,66923,66948,66948,66963,66963,66980,66995,67011,67024,67043,67075,67123,67147,67147,67163,67171,67187,67211,67329,67329" d="m176.5,326c0.61067,-1.60001 1.23297,-2.39639 2,-2.83334c0.77985,-0.44424 1.04875,-1.29364 1.64667,-1.73065c0.73291,-0.53568 1.70065,-0.43375 2.60066,-0.436c0.91934,-0.00229 1.75267,0 2.73117,0c0.82016,0 1.72156,-0.01068 2.62151,0c0.87935,0.01044 1.39336,0.62769 1.82533,1.39999c0.45757,0.81808 1.01662,1.38559 1.77333,1.88535c0.60892,0.40213 0.46548,1.49774 0.83733,2.27866c0.35234,0.73996 0.92801,1.29733 0.964,2.26935l-0.08533,0.88" id="svg_17" stroke-width="2" stroke="#000" fill="none"/>
  <path t="67756,67841,67841,67841,67857,67857,67882,67891,67891,67891,67891,67907,67907,67907,67907,67907,67924,67924,67924,67941,67941,67941,67957,67957,67957,67974,67974,67995,67995" d="m199.5,291c0,-1.82535 0,-2.83334 0,-3.62534c0,-1.02734 0,-1.72198 0,-2.76001c0,-0.948 0.01126,-1.6387 -0.036,-2.508c-0.037,-0.68079 -0.1801,-1.85016 -0.31667,-2.71201c-0.14191,-0.89554 -0.23389,-1.34216 -0.36334,-2.22665c-0.17894,-1.22253 -0.2576,-2.28503 -0.27333,-2.91068c-0.0274,-1.09036 -0.01067,-2.03198 -0.01067,-2.70999c0,-0.96866 0,-1.77267 0,-2.59467c0,-1.03116 0,-1.93182 0,-2.95267l0,-0.78934" id="svg_18" stroke-width="2" stroke="#000" fill="none"/>
  <path t="68370,68402,68402,68422,68422,68444,68457,68457,68457,68457,68474,68475,68475,68492,68492,68492,68492,68508,68508,68508,68508,68524,68524,68524,68541,68541,68541,68557,68574,68574,68591,68607,68607,68607,68624,68624,68624,68641,68641,68657,68657,68675,68675,68675,68675,68692,68692,68692,68708,68708,68708,68708,68725,68725,68725,68725,68741,68742,68742,68758,68758,68758,68774,68775,68792,68808,68825,68825,68947,68947,68963,68981,68991,69011,69011,69027,69027,69043,69043,69057,69057,69074,69075,69091,69107,69108,69108,69128,69128,69128,69141,69157,69157,69157,69187,69187,69203,69219,69235,69243,69243,69267,69276,69292,69308,69308,69336,69342,69342,69357,69357,69374,69374,69391,69391,69391,69407,69407,69424,69424,69671,69671,69686,69686,69724,69724,69741,69741,69741,69741,69741,69757,69757,69787,69787,69835,69836,69867,69884,69899,69899,69918,69931,69931,69971,69971,69995,69996,70003,70115,70131,70131,70179,70180,70195,70196,70211,70377,70472,70472,70506,70506,70515,70516,70516,70526,70526,70542,70542,70542,70558,70558,70575,70575,70597,70608,70659,70691,70700,70813,70875,70884,70900,70900,70917,70940,70995,71081,71081,71096,71123,71131,71131,71171,71219,71243,71243,71267,71433,71433,71449,71449,71475,71487,71496,71509,71524,71524,71541,71541,71541,71557,71574,71591,71607,71607,71624,71763,71763,71763,71779,71819,71835,71898,71899,71950,72011,72019,72044,72067,72083,72083,72091,72107,72124,72141,72157,72174,72174" d="m200.5,292c1,1.16666 1.60266,1.60797 2.3,2.29999c0.50192,0.49808 1.22459,1.24237 2.03333,1.86667c0.65858,0.50839 1.20096,0.81339 1.89867,1.43466c0.84424,0.75177 1.23178,1.42877 1.73601,1.99869c0.75156,0.84946 1.30383,1.21088 1.85333,1.63599c0.58115,0.44958 1.47964,1.18408 2.07866,1.71219c0.60098,0.52988 1.47113,1.32611 2.39967,1.909c0.57478,0.36081 1.49341,0.65936 2.367,1.30948c0.56795,0.42267 0.92693,1.24954 1.73332,1.772c0.73174,0.47409 1.35724,0.9097 2.12083,1.56134c0.76125,0.64963 1.3309,0.90182 2.16583,1.38535c0.73909,0.42804 1.51497,0.95126 2.30351,1.40482c0.85356,0.49097 1.6243,0.69916 2.49783,0.70984c0.7946,0.0097 1.84541,-0.00919 2.81732,0.00449c0.69479,0.0098 1.40331,-0.03217 2.65201,0.21701c0.80466,0.16058 1.5416,0.50159 2.37599,0.7785c0.96954,0.32175 1.68785,0.49872 2.4185,0.70001c1.08202,0.2981 1.76611,0.48584 2.7065,0.79999c0.85942,0.28711 1.85767,0.70001 2.54167,1c0.68401,0.29999 1.68564,0.69223 2.47917,1c0.75439,0.2926 1.58464,0.65833 2.31816,1.29999c0.63445,0.55499 1.40157,1.14944 2.36934,1.20001c0.65785,0.03436 1.65933,0.18054 2.42267,0.57468c0.80321,0.41473 1.5549,0.80099 2.41066,1.25867c0.79144,0.42328 1.04797,1.06705 1.35718,1.82382c0.31171,0.76288 0.87119,1.72803 1.20682,2.50684c0.34561,0.80197 0.39401,1.58981 0.44049,2.48868c0.04477,0.86594 0.53702,1.6907 0.82886,2.68066c0.194,0.65802 0.11902,1.46445 0.33331,2.5c0.19366,0.93582 0.52664,1.68732 0.81866,2.552c0.32312,0.95676 0.72916,1.61459 1.164,2.36398c0.52856,0.91092 0.81467,1.57669 0.85068,2.55066c0.03326,0.89941 -0.04779,1.8013 0,2.70001c0.04272,0.80338 0.74695,1.5372 0.96399,2.39999c0.21973,0.8735 0.03601,1.80133 0.03601,2.48535c0,0.94 0,1.948 0,2.73999c0,1.03183 0,1.77917 0,2.776c0,0.83466 0,1.76532 0,2.54684c0,0.7905 0,1.909 0,2.66647c0,1.04251 0,1.78986 0,2.78403c0,0.76532 0.00418,1.71732 0,2.48532c-0.00534,0.98404 -0.03329,1.69525 -0.22134,2.98001c-0.11655,0.79626 -0.20587,1.21164 -0.35333,2.06c-0.14316,0.82367 -0.3634,2.21707 -0.40448,2.99265c-0.04852,0.91565 -0.00479,1.7262 -0.3735,2.73602c-0.25879,0.7088 -0.51819,1.63489 -1,2.29916c-0.49023,0.6759 -0.53873,1.40686 -0.65802,2.42282c-0.1131,0.9632 -0.59854,1.58984 -0.86783,2.604c-0.2009,0.75656 -0.11194,1.67407 -0.12149,2.53732c-0.01044,0.94254 -0.565,1.41595 -1.48401,1.76935c-0.71255,0.27402 -1.51642,0.789 -2.10533,1.31467c-0.74425,0.66428 -1.29384,1.12247 -2.22533,1.37466c-0.9404,0.25461 -1.75638,0.70081 -2.14934,1.46133c-0.40306,0.78009 0.03008,1.62405 0.24934,2.616c0.13855,0.6268 0.37044,1.60837 0.71466,2.448c0.34204,0.83432 0.86676,1.82874 0.94284,2.50534c0.0833,0.74078 -0.03027,1.86111 0.09315,2.60931c0.147,0.89108 0.66371,1.6806 1.35333,2.32401c0.60649,0.56586 1.26216,1.11145 1.66335,1.76584c0.47308,0.77167 1.27356,1.07339 2.146,1.29684c0.80508,0.20621 1.42163,0.74805 2.09601,1.05133c0.83075,0.3736 1.07605,1.44696 1.90533,1.86331c0.84933,0.42645 1.45126,1.09683 2.39999,1.03735c0.88797,-0.05566 1.5975,-0.97766 2.04282,-1.65335c0.47165,-0.71567 1.00378,-1.29465 1.84119,-1.29999c0.86328,-0.00549 1.7634,0.01151 2.68265,0c0.83353,-0.01044 1.96259,-0.06442 2.47168,-0.7045c0.53873,-0.67734 0.36166,-1.6955 0.36166,-2.59549c0,-0.90134 0,-1.86667 0,-2.72086c0,-0.97916 0,-1.76849 0,-2.49384c0,-0.96448 -0.09399,-1.9324 0.35266,-2.78531c0.39395,-0.75226 0.64667,-1.5 0.64734,-2.40002c0.0007,-0.93597 0.00217,-1.784 0,-2.64731c-0.00226,-0.89102 -0.44812,-1.50745 -1.29999,-1.65717c-0.92819,-0.16315 -1.52814,-0.6442 -2.40002,-1.04819c-0.83163,-0.38535 -1.5986,-0.91873 -2.5,-0.94733c-0.89954,-0.02853 -1.79999,0 -2.59998,0c-0.90002,0 -1.80002,0 -2.70001,0c-0.89999,0 -1.8045,0 -2.66666,0l-0.83334,-0.02084" id="svg_19" stroke-width="2" stroke="#000" fill="none"/>
  <path t="72588,72704,72704,72704,72720,72740,72740,72750,72750,72750,72750,72750,72757,72757,72757,72774,72774,72774,72791,72791,72791,72791,72791,72807,72807,72807,72807,72825,72825,72825,72825,72841,72842,72857,72874,72874,72892,72892,72907,72907,72907,72931,72931,72963,72963,73015,73051,73051,73099,73099,73123,73147,73147,73171,73171,73171,73187,73211,73219,73219,73243,73259,73259,73291,73398,73414,73459,73507,73507,73547" d="m272.5,387c0.28534,-2.68268 0.47092,-3.49973 0.80133,-4.23065c0.51285,-1.13443 1.08084,-1.86929 1.26001,-2.54935c0.27716,-1.052 0.50568,-1.8403 0.64398,-2.28333c0.2926,-0.93732 0.60831,-1.86777 0.96133,-3.10333c0.17337,-0.60675 0.31937,-1.45889 0.55484,-2.3765c0.19141,-0.74582 0.49091,-1.62073 0.7785,-2.6235c0.20566,-0.7171 0.40192,-1.46884 0.60001,-2.24402c0.20193,-0.79016 0.50418,-1.9881 0.6955,-2.78482c0.18793,-0.78265 0.38254,-1.54175 0.53784,-2.63785c0.14182,-1.00095 0.15509,-1.62485 0.16531,-2.47998c0.01465,-1.22491 0.00134,-2.02502 0.00134,-2.93402c0,-0.91931 0,-1.75266 0,-2.73148c0,-0.83102 0,-1.79053 0,-2.54202c0,-0.79648 0,-1.79248 0,-2.63248c0,-0.96268 0,-1.73068 0,-2.67203c0,-1.008 0,-1.79999 0,-2.82733c0,-0.69464 -0.01392,-1.72208 0.00015,-2.66882c0.01041,-0.69955 0.1412,-1.68726 0.42517,-2.46783c0.26715,-0.73434 0.44379,-1.76022 0.93185,-2.51065c0.51816,-0.79672 1.28867,-1.25726 1.93832,-2c0.58121,-0.66446 0.68509,-1.50021 0.7045,-2.40002c0.01865,-0.86453 0.7045,-1.35266 1.5,-1.82083l0.59982,-0.57916l0.543,-0.60001l0.3465,-0.89999" id="svg_20" stroke-width="2" stroke="#000" fill="none"/>
  <path t="74252,74324,74340,74356,74356,74375,74375,74392,74392,74408,74408,74425,74425,74425,74425,74441,74441,74457,74457,74457,74474,74474,74495,74495,74512,74512,74512,74528,74544,74544,74557,74574,74574,74591,74591,74607,74607,74624,74624,74641,74641,74657,74657,74674,74674,74691,74691,74707,74707,74724,74724,74724,74741,74741,74757,74757,74757,74774,74774,74791,74791,74807,74807,74825,74825,74841,74841,74858,74874,74907,74907,74923,74947,74963,74972,74972,74979,74995,75007,75024,75075,75075,75107,75107,75123,75155,75171,75211,75235,75251,75251,75259,75274,75297,75309,75310,75324,75325,75340,75341,75615,75615,75675,75731,75732,75764,75779,75835,75835,75995,76011,76040,76057,76057,76075,76075,76102,76102,76124,76140,76157,76174,76204,76331,76379,76388,76421,76427,76427,76440,76467,76467,76475,76491,76491,76507,76531,76531,76557,76574,76590,76608,76630,76630,76683,76755,76755" d="m354.5,320c0,2.58932 0,3.52084 0,4.32132c0,0.85333 0,1.79602 0,2.64801c0,1.03601 -0.03433,1.78064 0,2.69733c0.03128,0.83511 0.49213,1.67325 1.05801,2.34317c0.43597,0.51614 1.17886,1.25742 1.57767,2.06866c0.42209,0.85858 0.51535,1.92657 0.71698,2.52151c0.27365,0.80743 0.54028,1.80347 0.67267,2.60001c0.16708,1.00525 0.5545,1.77682 0.80801,2.79999c0.19241,0.77658 0.16599,1.51468 0.16666,2.5c0.00067,0.98401 0,1.67465 0,2.74283c0,0.85733 0,1.64252 0,2.59317c0,0.76532 0,1.76401 0,2.564c0,1 0,1.80002 0,2.79984c0,0.77933 0.09296,1.79141 -0.05716,2.55283c-0.18405,0.93359 -0.67532,1.63281 -0.85751,2.64734c-0.14203,0.79083 -0.08533,1.80002 -0.08533,2.60001c0,1 0,1.79999 0,2.60001c0,1.00449 0,1.85715 0,2.82132c0,0.80402 0,1.62601 0,2.65701c0,0.88 0.00171,1.755 0,2.547c-0.00226,1.03183 0.01117,1.79727 -0.284,2.77335c-0.23697,0.78363 -0.65381,1.57327 -0.71466,2.39999c-0.06616,0.8989 -0.00134,1.83731 -0.00134,2.68533c0,0.86331 0,1.88 0,2.716c0,0.89999 0,1.79999 0,2.59998c0,0.90002 0,1.80002 0,2.70001c0,0.91068 -0.09158,1.83014 0.03601,2.67465c0.14523,0.96124 0.79462,1.59369 0.95331,2.42535c0.18091,0.94803 0.64658,1.45947 1.0947,2.20132c0.42606,0.70529 1.24683,1.30664 1.63065,1.99866c0.45728,0.82449 0.35184,1.72867 0.98984,2.30984c0.62729,0.57141 0.99097,1.30148 1.49551,2.28885c0.29733,0.58185 0.80417,1.43155 1.29999,2.10132c0.60513,0.81741 0.73764,1.78659 1.60001,2.25684c0.793,0.43243 1.43857,-0.51401 2.39999,-0.73599c0.78427,-0.18109 1.85669,-0.17416 2.47916,-0.54169c0.83511,-0.49307 1.5029,-1.08759 1.93552,-1.76581c0.47546,-0.74539 -0.05704,-1.80289 0.41867,-2.54669c0.50009,-0.78195 1.54108,-1.23682 1.664,-1.96664c0.14948,-0.88754 0.00266,-1.80002 0.00266,-2.70001c0,-0.89999 0.00009,-1.79999 0,-2.70001c-0.00009,-0.89981 -0.28201,-1.75726 -1.10001,-1.79999c-0.89877,-0.04694 -1.80255,0.34409 -2.61465,-0.08533c-0.85815,-0.45374 -1.306,-0.90424 -2.26382,-0.91467c-1.02145,-0.01111 -1.88568,0.25009 -2.62152,-0.07199c-0.86475,-0.37851 -0.93066,-1.51108 -1.89999,-1.88635c-0.84018,-0.32529 -1.79999,-0.04166 -2.70001,-0.04166c-0.90015,0 -1.68533,0 -2.62534,0l-1.008,0l-0.75598,0" id="svg_21" stroke-width="2" stroke="#000" fill="none"/>
  <path t="77328,77383,77398,77398,77398,77414,77414,77443,77451,77451,77459,77459,77474,77490,77507,77507,77532,77532,77540,77540,77557,77574,77590,77607,77624,77640,77658,77658,77677,77692,77708,77724,77724,77740,77757,77774,77774,77796,77796,77812,77828,77853,77868,77868,77884,77908,77916,77940,77940,77948,77957,77974,77974,77990,78007,78007,78024,78044,78044,78044,78057,78057,78074,78090,78107,78124,78124,78140,78141,78141,78163,78174,78174,78190,78190,78207,78207,78224,78224,78240,78240,78257,78274,78290,78290,78290,78307,78324,78324,78340,78340,78340,78357,78357,78357,78374,78374,78390,78390,78412,78412,78413,78424,78425,78440,78457,78474,78490,78507,78524,78524,78540,78557,78557,78574,78604,78612,78628" d="m372.5,390c1,-1.04166 1.15237,-2.00476 1.42532,-2.79999c0.27631,-0.80508 0.52737,-1.59619 0.57019,-2.54285c0.04086,-0.90359 -0.06912,-1.82892 0.02533,-2.65717c0.11319,-0.99237 0.77942,-1.64835 0.95831,-2.5c0.18726,-0.89145 0.02084,-1.8215 0.02084,-2.52084c0,-0.97916 0,-1.95831 0,-2.8125c0,-0.86215 0,-1.76666 0,-2.66666c0,-0.89999 0,-1.79999 0,-2.70001c0,-0.89999 0,-1.79999 0,-2.59998c0,-0.90002 0,-1.80002 0,-2.72086c0,-0.96317 0,-1.65381 0,-2.59381c0,-0.98535 0.09149,-1.89789 -0.05716,-2.64252c-0.1846,-0.92474 -0.72406,-1.55777 -0.90683,-2.60684c-0.14362,-0.82437 -0.03601,-1.73599 -0.03601,-2.63599c0,-0.79999 0,-1.70001 0,-2.60001c0,-0.92084 0,-1.884 0,-2.57465c0,-1.06818 0,-1.92535 0,-2.82535c0,-0.79999 0.02051,-1.77011 0.35266,-2.65268c0.26578,-0.70621 0.61874,-1.59802 0.64734,-2.68066c0.01773,-0.67175 0,-1.41599 0,-2.52365c0,-0.83401 -0.00528,-1.74304 0,-2.64301c0.00534,-0.91074 0.23929,-1.81461 0.5,-2.52084c0.35822,-0.97034 0.48083,-1.76788 0.49866,-2.49384c0.0242,-0.98502 -0.10757,-1.98361 0.0585,-2.83264c0.18213,-0.93106 0.79691,-1.5054 1.23834,-2.30984c0.39645,-0.72247 0.57336,-1.74976 0.72983,-2.50684c0.1994,-0.96484 0.80182,-1.60501 0.96399,-2.436c0.17667,-0.90524 0.45013,-1.72397 1.01068,-2.39999c0.42957,-0.51804 0.88303,-1.53064 1.36166,-2.30899c0.44244,-0.71951 1.12802,-1.45648 1.46368,-1.95233c0.53101,-0.78445 1.04828,-1.55063 1.52798,-2.50269c0.31177,-0.61874 0.51532,-1.64294 0.672,-2.39999c0.20029,-0.96765 0.72195,-1.62491 1.17468,-2.604c0.332,-0.71805 0.54984,-1.49109 0.99866,-2.26132c0.46585,-0.79941 0.79599,-1.57062 0.80133,-2.47067c0.00534,-0.89996 0,-1.79999 0,-2.70001c0,-0.90015 0,-1.68533 0,-2.62534c0,-1.008 0,-1.76398 0,-2.67465l0,-0.89999l0,-0.89999l0,-0.90002" id="svg_22" stroke-width="2" stroke="#000" fill="none"/>
  <path t="79719,79868,79876,79876,79890,79890,79907,79924,79924,79940,79940,79940,79957,79957,79974,79990,79990,80011,80024,80024,80043,80057,80075,80091,80107,80108,80124,80124,80140,80140,80157,80174,80190,80190,80215,80215,80230,80240,80240,80257,80275,80323,80333,80333,80340,80371,80395,80396,80404,80404,80427,80779,80795,80815,80825,80843,80859,80875,80875,80939,80956,80974,81003,81003,81089,81104,81147,81171,81172,81187,81219,81219,81236,81252,81267,81299,81419,81419,81435,81516,81532,81550" d="m225.5,311c0,2.62534 0,3.48532 0,4.21066c0,0.98917 0,1.95334 0,2.90399c0,0.88535 0,1.69968 0,2.65469c0,0.7515 0,1.54797 0,2.54398c0,0.84 0,1.80133 0,2.78683c0,0.78519 0,1.72519 0,2.73318c0,0.75598 0,1.66666 0,2.56665c0,0.89999 0,1.80133 0,2.76666c0,0.65869 0,1.66669 0,2.45868c0,1.02734 0,1.72198 0,2.73868c0,0.94049 0,1.80264 0,2.63599c0,0.97849 -0.10139,1.80923 0.036,2.63599c0.1447,0.8707 0.6696,1.65302 1.35333,2.30267c0.61165,0.58115 0.94255,1.38541 1.61067,2.06134c0.57889,0.58566 1.40511,0.9003 2.3045,1.00449c0.87146,0.10095 1.66928,0.5705 2.52882,0.82886c0.73926,0.2222 1.66667,0.16891 2.56667,0.16666c0.89552,-0.00226 1.58958,-0.52066 1.60001,-1.39999c0.01067,-0.89993 -0.15352,-1.84848 0.16667,-2.60001c0.33284,-0.78119 0.76811,-1.53204 1.18599,-2.29999c0.45758,-0.84091 0.64734,-1.70001 0.64734,-2.5c0,-0.90002 0.00507,-2.01431 -0.76167,-2.19553c-0.86273,-0.20389 -1.54041,0.24942 -2.321,0.71152c-0.82634,0.48917 -1.71135,0.37961 -2.41733,0.784c-0.79344,0.4545 -1.7,0.5 -2.60001,0.5c-0.89999,0 -1.7,0 -2.59999,0l-0.90001,0l-0.89999,0l-0.89999,-0.01068" id="svg_23" stroke-width="2" stroke="#000" fill="none"/>
  <path t="82202,82379,82379,82379,82379,82379,82395,82395,82395,82414,82414,82428,82428,82428,82440,82440,82440,82457,82457,82475,82476,82476,82476,82524,82524,82564,82564" d="m239.5,340c0,-1.84668 -0.02196,-2.68698 0.00267,-3.68533c0.02063,-0.83615 0.00516,-1.45367 0.44017,-2.61417c0.33839,-0.90271 0.66862,-1.45773 1.39049,-2.2005c0.65858,-0.67767 1.07146,-1.38342 1.13068,-2.22266c0.04564,-0.64691 0.036,-1.944 0.036,-2.763c0,-0.69302 -0.08095,-1.72266 0.04167,-2.53519c0.17644,-1.1691 0.52632,-1.66315 0.95833,-2.47916c0.43201,-0.81601 0.82933,-1.81332 0.95833,-2.45834l0.04167,-1.02032l0,-0.77399" id="svg_24" stroke-width="2" stroke="#000" fill="none"/>
  <path t="83582,83732,83732,83732,83747,83747,83765,83773,83773,83773,83794,83794,83815,83815,83815,83834,83834,83834,83834,83854,83854,83854,83879,83879,83879,83903,83903,83903,83903,83926,83926,83926,83926,83926,83951,83951,83951,83951,83951,83951,83970,83970,83970,83970,83970,83998,83998,83998,83998,84023,84023,84023,84023,84023,84023,84049,84049,84049,84049,84049,84049,84050,84074,84074,84074,84075,84075,84075,84075,84101,84101,84101,84101,84101,84101,84101,84125,84125,84125,84125,84125,84125,84126,84139,84139,84139,84139,84139,84155,84155,84155,84169,84169,84184,84184,84196,84267,84307,84336,84347,84357,84357,84373,84373,84390,84390,84407,84423,84443,84443,84457,84457,84473,84490,84507,84507,84523,84540,84540,84563,84573,84599,84599,84612,84627,84643,84643,84660,84660,84676,84676,84693,84719,84746,84771,84771,84797,84797,84823,84823,84823,84850,84850,84850,84850,84873,84874,84874,84874,84900,84900,84901,84901,84953,84954,84954,84954,84963,84963,84963,84964,84964,84964,84989,84989,84989,85016,85016,85016,85017,85043,85043,85043,85043,85068,85068,85068,85069,85081,85082,85082,85082,85098,85098,85113,85113,85129,85129,85129,85145,85161,85161,85179,85179,85179" d="m142.5,122c-1.02083,-0.97916 -1.97867,-1 -2.75267,-1c-0.89999,0 -1.76891,-0.08681 -2.76816,0.02084c-1.03535,0.11154 -1.74171,0.38431 -2.47383,0.68366c-0.87828,0.35912 -1.59612,0.93113 -2.32718,1.39567c-0.71892,0.45683 -1.45003,0.78543 -2.32083,1.22117c-0.66255,0.33154 -1.35735,0.67863 -2.05199,1.026c-1.26237,0.63127 -2.05194,0.99642 -2.69633,1.40533c-0.83514,0.52996 -1.41317,1.09081 -2.06617,1.65182c-0.7026,0.60362 -1.50257,1.20271 -2.0845,1.61633c-0.61797,0.43922 -1.62943,1.1398 -2.341,1.66583c-0.36781,0.27191 -1.12272,0.82616 -1.8075,1.47501c-1.01718,0.96381 -1.28834,1.34483 -1.8,2.0955c-0.51072,0.7493 -0.95433,1.54951 -1.1925,1.94417c-0.72737,1.20528 -1.26553,1.99414 -1.53201,2.388c-0.52406,0.77461 -1.0523,1.50478 -1.64266,2.58949c-0.35987,0.66122 -0.63505,1.34543 -0.94801,2.03101c-0.5155,1.12927 -0.96437,1.96059 -1.1955,2.409c-0.48472,0.9404 -0.75482,1.42171 -1.14584,2.46916c-0.39696,1.0634 -0.60822,2.19717 -0.68183,2.77367c-0.07454,0.58371 -0.14408,1.78488 -0.158,2.40001c-0.01414,0.62491 -0.01595,1.905 -0.01216,3.22232c0.00192,0.66867 0.00684,1.34138 0.0195,2.01601c0.01267,0.67471 0.04893,2.01706 0.14583,3.33333c0.04754,0.64578 0.09975,1.28445 0.29067,2.53067c0.09451,0.6169 0.20818,1.22945 0.3615,1.8315c0.46307,1.81837 0.71621,2.4071 0.95184,3.0005c0.23575,0.5937 0.76408,1.74504 1.05067,2.29601c0.28092,0.54005 1.16939,2.01453 1.47833,2.44316c0.57435,0.79684 1.14879,1.46986 1.686,2.037c0.6689,0.70616 1.35221,1.36729 1.897,1.91049c0.76888,0.76663 1.21405,1.37335 2.09583,1.87451c0.76715,0.436 1.44182,0.95084 2.4215,1.20683c0.86694,0.22653 1.58199,-0.39944 1.6,-1.26851c0.01786,-0.86198 0,-1.6955 0,-2.67416c0,-0.774 0,-1.674 0,-2.53734c0,-0.96317 0.01903,-1.89485 -0.00017,-2.80533c-0.018,-0.8539 -0.15937,-1.70305 -0.70433,-2.37416c-0.61935,-0.76271 -1.00648,-1.47668 -1.46217,-2.3045c-0.40418,-0.73427 -1.42447,-0.92094 -2.03333,-1.56799c-0.48358,-0.51392 -1.10789,-1.26752 -2,-1.43333c-0.9109,-0.16931 -1.45615,-0.79799 -2.4,-0.98801c-0.90325,-0.18184 -1.71595,-0.2453 -2.57467,-0.58533c-0.79918,-0.31645 -1.59063,-0.4425 -2.478,-0.778c-0.70583,-0.26686 -1.71082,-0.62933 -2.64734,-0.64734c-0.89983,-0.01729 -1.80021,-0.00871 -2.58533,0c-0.96151,0.01067 -1.60464,0.04106 -2.53617,0.44299c-0.84525,0.3647 -1.39282,0.77278 -2.5785,1.55701c-0.60052,0.39719 -1.19627,0.79022 -1.764,1.2c-1.08287,0.78159 -1.57769,1.1757 -2.21516,1.84167c-0.43555,0.45502 -1.22769,1.59691 -1.62083,2.26366c-0.40715,0.69051 -0.77087,1.40794 -1.4,2.36134c-0.38263,0.57983 -0.84093,1.07651 -1.4,1.95299c-0.64896,1.0174 -0.81583,1.459 -1.191,2.39101c-0.19617,0.48732 -0.55445,1.48273 -0.83833,2.45334c-0.25297,0.8649 -0.49376,1.90845 -0.54933,2.72932c-0.06576,0.97136 -0.02133,1.76834 -0.02133,2.65334c0,0.64 0,1.67467 0,2.77867c0,0.74933 -0.00546,1.49068 0.00017,2.5535c0.00533,1.00655 0.01962,1.68381 0.08517,2.3905c0.10907,1.17581 0.26385,2.02759 0.41467,2.88899c0.14401,0.8226 0.2725,1.8864 0.47467,2.79767c0.19051,0.85869 0.66931,1.38266 1.34666,2.06534c0.676,0.68132 1.15393,1.23811 1.9215,1.91699c0.72132,0.63799 1.42916,0.82301 2.29983,1.20435l0.708,0.40799l0.744,0.444" id="svg_25" stroke-width="2" stroke="#000" fill="none"/>
  <path t="97023,97078,97134,97148,97175,97175,97192,97192,97192,97192,97192,97192,97192,97207,97207,97207,97207,97207,97207,97208,97208,97224,97224,97224,97225,97225,97225,97225,97242,97242,97242,97242,97242,97242,97242,97242,97242,97258,97258,97258,97258,97258,97258,97258,97258,97258,97275,97275,97275,97275,97275,97275,97275,97275,97291,97291,97291,97292,97292,97292,97357,97357,97357,97357,97357,97357,97372,97372,97393,97425,97425,97425,97442,97442,97442,97442,97442,97442,97458,97458,97458,97458,97458,97458,97458,97475,97475,97475,97475,97476,97492,97492,97492,97492,97492,97492,97492,97508,97508,97508,97508,97508,97508,97508,97508,97525,97525,97525,97525,97525,97525,97542,97542,97542,97542,97542,97542,97542,97558,97558,97558,97558,97558,97558,97558,97575,97575,97575,97575,97575,97592,97592,97592,97592,97610,97610,97610,97610,97625,97625,97625,97634,97644,97644,97644,97660,97660,97660,97660,97685,97685,97685,97701,97709,97725,97742,97742,97758,97758,97759,97775,97775,97775,97775,97776,97792,97792,97792,97792,97792,97792,97808,97808,97808,97808,97809,97809,97809,97825,97825,97825,97825,97826,97826,97826,97826,97826,97842,97842,97842,97842,97842,97842,97842,97843,97843,97863,97863,97863,97863,97863,97863,97865,97865,97865,97876,97876,97876,97876,97877,97877,97877,97877,97877,97891,97892,97892,97892,97892,97892,97892,97892,97892,97908,97908,97908,97908,97909,97909,97909,97909,97909,97924,97925,97925,97925,97925,97925,97925,97925,97925,97941,97942,97942,97942,97942,97942,97942,97942,97942" d="m315.5,289c2.55334,-1.02533 3.12619,-2.09497 3.80133,-1.828c0.88867,0.35141 0.82803,1.21857 1.03201,2.66135c0.06668,0.47162 0.11285,1.55237 0.13065,2.14667c0.01868,0.62405 0.02936,1.27328 0.03467,2.62665c0.00549,1.39334 0.00134,2.09317 0.00134,2.79202c0,0.69681 0,1.39066 0,2.76532c0,0.67883 0.00067,1.35068 0,2.66934c-0.00034,0.64532 -0.00995,1.91437 -0.04266,2.54132c-0.03265,0.62579 -0.04312,1.2612 -0.29868,2.50934c-0.26541,1.29639 -0.53345,1.94199 -0.79868,2.60266c-0.27286,0.67963 -0.58923,1.36197 -0.92249,2.05499c-0.34,0.70703 -0.70227,1.41809 -1.0575,2.14502c-0.72134,1.4761 -1.06192,2.23306 -1.396,2.996c-0.33456,0.7641 -0.65775,1.53238 -0.98401,2.29648c-0.32446,0.75992 -0.64417,1.51489 -0.98401,2.2515c-0.66608,1.44376 -1.0307,2.12964 -1.39999,2.79602c-0.36221,0.65363 -0.7348,1.28406 -1.116,1.88998c-0.73483,1.16797 -1.11008,1.71414 -1.83334,2.75c-0.67581,0.9679 -1.00983,1.42328 -1.33066,1.87201c-0.62601,0.87555 -0.94342,1.30139 -1.836,2.62799c-0.30374,0.45145 -0.89169,1.37204 -1.17868,1.82669c-0.55069,0.87247 -1.02289,1.68552 -1.67831,2.62048c-0.45224,0.64508 -1.30487,1.55051 -2.14301,1.21951c-0.65997,-0.26062 -0.99411,-1.04803 -1.54251,-2.04083c-0.47903,-0.86722 -0.70776,-1.36792 -0.93665,-1.89667c-0.48013,-1.10916 -0.71979,-1.68826 -1.02084,-2.89584c-0.29593,-1.18692 -0.34094,-1.79431 -0.392,-2.38934c-0.10062,-1.17279 -0.09857,-1.75342 -0.104,-2.32532c-0.01581,-1.66379 -0.004,-2.20001 -0.004,-3.24933c0,-0.51517 -0.00024,-1.53152 0,-3.03601c0.00009,-0.50049 0.0015,-1.51352 0.01068,-2.03201c0.0191,-1.07611 0.0397,-1.63986 0.07465,-2.224c0.11423,-1.90945 0.19708,-2.59644 0.27634,-3.302c0.08069,-0.71848 0.17465,-1.44278 0.285,-2.16599c0.10968,-0.71881 0.19489,-1.43442 0.67465,-3.41168c0.14877,-0.61319 0.3255,-1.19916 0.67868,-2.32266c0.17181,-0.54657 0.53137,-1.61859 0.83334,-2.70831c0.15317,-0.55273 0.41556,-1.69019 0.54132,-2.26935c0.12692,-0.5845 0.37354,-1.7695 0.50934,-2.36533c0.27368,-1.20074 0.59735,-2.39676 0.76868,-2.98965c0.17004,-0.58844 0.52182,-1.73709 0.69464,-2.29468c0.16852,-0.54373 0.63083,-2.07132 0.90002,-2.99551c0.12708,-0.43622 0.35315,-1.27026 0.63666,-2.03082c0.40265,-1.08014 0.94257,-2.05774 1.32666,-2.67734c0.38138,-0.6152 0.98935,-1.51065 1.38934,-2.11066c0.60001,-0.89999 0.99707,-1.50195 1.60001,-2.39966c0.39807,-0.59265 0.97238,-1.45169 1.39999,-1.92969c0.75623,-0.84531 1.43384,-1.26428 2.17065,-1.65332c0.86319,-0.45578 1.53467,-0.77002 2.57867,-1.29199c0.68268,-0.34134 1.60147,-0.81616 2.36801,-1.17868c0.78867,-0.37296 1.64615,-0.62866 2.58264,-0.64667c0.89987,-0.0173 1.88214,-0.17676 2.58536,0.25601c0.72345,0.44522 1.14432,1.33252 1.46198,1.97183c0.53738,1.08148 0.77475,1.93912 0.89102,2.38199c0.23798,0.90649 0.42712,1.83844 0.595,3.22351c0.05389,0.44467 0.11981,1.32263 0.14581,2.20831c0.02716,0.92511 0.02017,1.41302 0.02084,3.02316c0.00024,0.59384 0,1.21567 0,1.8645c0,1.37466 0,2.09851 0,2.84534c0,1.55869 0.00241,2.36853 -0.004,3.19733c-0.00653,0.84689 -0.0209,1.71097 -0.0585,2.59052c-0.03827,0.89517 -0.09164,1.80545 -0.19351,2.72549c-0.2085,1.88293 -0.39905,2.83569 -0.59866,3.80002c-0.20291,0.98013 -0.4397,1.97006 -0.68698,2.97449c-0.25134,1.0209 -0.52014,2.05499 -0.77701,3.1095c-0.52585,2.15866 -0.76346,3.27084 -1,4.40268c-0.24084,1.1525 -0.47504,2.32977 -0.72299,3.52948c-0.25333,1.22568 -0.5137,2.47903 -0.81302,3.75452c-0.62122,2.64709 -1.00229,4.0061 -1.396,5.384c-0.39594,1.3858 -0.81198,2.75949 -1.22849,4.11148c-0.40622,1.31863 -0.80859,2.58676 -1.1835,3.79651c-0.67593,2.18106 -0.95486,3.13376 -1.19867,3.99866c-0.22192,0.7872 -0.41565,1.51212 -0.59702,2.18402c-0.17062,0.63208 -0.33112,1.23801 -0.50699,1.82397c-0.35425,1.18024 -0.57471,1.78622 -0.80133,2.41068c-0.23163,0.63824 -0.47552,1.28189 -0.71249,1.93201c-0.23639,0.64853 -0.47061,1.29077 -0.66751,1.93201c-0.37695,1.22763 -0.4978,1.82272 -0.59866,2.392c-0.09607,0.54224 -0.16083,1.06094 -0.21301,1.55099c-0.04892,0.45932 -0.07944,0.88794 -0.12299,1.28101c-0.07516,0.67853 -0.13287,0.96008 -0.20267,1.20398c-0.06232,0.21777 -0.14133,0.40668 -0.216,0.57751l-0.07468,0.15582l-0.07266,0.14584l-0.06866,0.14084" id="svg_26" stroke-width="20" stroke="#fff" fill="none"/>
  <path t="98245,98268,98268,98276,98277,98291,98291,98291,98308,98308,98308,98324,98325,98325,98325,98325,98342,98342,98342,98342,98342,98342,98342,98357,98357,98357,98357,98357,98358,98358,98374,98374,98374,98375,98375,98375,98375,98375,98391,98391,98392,98392,98392,98392,98407,98407,98407,98407,98407,98424,98424,98424,98425,98425,98441,98441,98441,98493,98509,98517,98525,98525,98542,98542,98558,98558,98558,98558,98575,98575,98575,98575,98592,98592,98592,98592,98608,98608,98608,98608,98608,98608,98625,98625,98625,98625,98625,98625,98642,98642,98642,98642,98642,98642,98642,98642,98659,98659,98659,98659,98659,98660,98660,98660,98684,98684,98684,98684,98684,98684,98685,98695,98695,98695,98695,98695,98695,98695,98713,98713,98713,98724,98725,98725,98741,98848,98864,98906,98906,98906,98906,98906,98909,98909,98909,98910,98910,98910,98910,98910,98910,98925,98925,98925,98925,98942,98942,98958,98959,98959,98975,98975,98975,98975,98992,98992,98992,99008,99008,99008,99025,99025,99025,99025,99042,99042,99042,99058,99058,99058,99058,99075,99075,99075,99075,99092,99092,99108,99108,99109" d="m315.5,339c1.65268,-2.59549 2.18802,-3.15109 2.83334,-3.83334c0.63849,-0.67499 1.01123,-1.49814 1.1185,-2.17648c0.12234,-0.77359 0.34335,-1.84485 0.758,-2.54199c0.43658,-0.73407 1.14957,-1.77069 1.40482,-2.42151c0.2782,-0.70935 0.48651,-1.5173 0.68402,-2.39999c0.2142,-0.95724 0.4025,-1.99738 0.50583,-2.54102c0.10602,-0.55768 0.32877,-1.70758 0.45267,-2.29468c0.12543,-0.59424 0.56088,-2.39209 0.72815,-2.99231c0.16837,-0.60416 0.53455,-1.81982 0.72534,-2.43466c0.19287,-0.62149 0.39505,-1.24799 0.78934,-2.53067c0.40451,-1.31598 0.60025,-1.98596 0.79999,-2.65869c0.20026,-0.67459 0.39948,-1.34946 0.60001,-2.02197c0.19946,-0.66882 0.79874,-2.63101 0.99869,-3.26334c0.19574,-0.61902 0.38879,-1.22195 0.76532,-2.37067c0.17795,-0.54294 0.66803,-2.01913 0.81482,-2.4545c0.27057,-0.80249 0.66718,-1.91086 0.99051,-2.63086c0.34769,-0.7742 0.79135,-1.60278 1.28134,-2.46265c0.24567,-0.43112 0.72052,-1.26636 1.41599,-2.30402c0.50232,-0.74945 0.97745,-1.39908 1.63333,-1.96216c0.75107,-0.64484 1.85202,-1.04581 2.53336,-0.53784c0.57574,0.42923 1.10513,1.19321 1.68399,1.88934c0.54034,0.64984 0.85736,1.63556 1.03601,2.34c0.18195,0.71744 0.34845,1.78094 0.41064,2.77866c0.04053,0.64993 0.03534,1.30936 0.03601,2.71201c0.00037,0.76001 0,1.56 0,2.39999c0,0.88 0,1.80002 0,2.76001c0,0.495 0.00009,1.51501 0,2.04001c-0.00024,1.63501 0.01169,2.20047 -0.03201,3.35999c-0.02243,0.59537 -0.03296,1.2059 -0.224,2.44c-0.19934,1.28772 -0.39771,1.93796 -0.60132,2.59735c-0.20755,0.67221 -0.44882,1.34637 -0.72601,2.01599c-0.56213,1.358 -0.8877,2.02554 -1.58331,3.33334c-0.34567,0.64987 -0.71362,1.2822 -1.086,1.905c-0.36902,0.61719 -0.74536,1.22125 -1.12201,1.815c-0.73746,1.16248 -1.46011,2.27911 -1.80383,2.82532c-0.33759,0.53644 -0.98734,1.59491 -1.30066,2.12134c-0.31201,0.52423 -0.9256,1.58066 -1.52084,2.66666c-0.30273,0.55234 -0.59857,1.11136 -1.17868,2.216c-0.28027,0.53369 -0.5383,1.05392 -1.05066,1.992c-0.61472,1.12543 -1.10739,1.8681 -1.51883,2.41718c-0.73242,0.97739 -1.03748,1.47971 -1.59915,2.14566c-0.71774,0.85101 -1.44193,1.52597 -1.63184,1.45834c-0.85507,-0.30441 0.3385,-1.79224 0.60416,-2.54169c0.15399,-0.43445 0.57617,-1.41437 1.20834,-2.52081c0.35834,-0.62717 0.78214,-1.26968 1.22998,-1.935c0.45874,-0.68149 0.93524,-1.3577 1.41,-2.02502c0.46194,-0.64932 0.9166,-1.25967 1.69333,-2.37332c0.61459,-0.8812 1.03931,-1.58215 1.51083,-2.31583c0.6091,-0.94775 1.09247,-1.48434 1.64401,-2.22702c0.52686,-0.70944 1.06451,-1.52341 1.6785,-2.2905c0.58279,-0.72812 1.01282,-1.15564 1.60001,-1.85065c0.61343,-0.72607 1.19894,-1.53491 1.564,-2.09067c0.68765,-1.04688 1.07886,-1.77521 1.46133,-2.45068c0.53503,-0.94489 0.85803,-1.45905 1.37466,-2.27466c0.34689,-0.54761 0.98169,-1.57697 1.37466,-2.27466c0.38095,-0.67636 0.94269,-1.64948 1.2825,-2.1825c0.54684,-0.85779 0.94107,-1.44623 1.54285,-2.3425c0.39795,-0.59271 0.97296,-1.45117 1.39999,-1.92969c0.7533,-0.84415 1.564,-1.38531 2.23334,-1.93732l0.51999,-0.66934l0.36002,-0.76532" id="svg_27" stroke-width="20" stroke="#fff" fill="none"/>
  <path t="99509,99588,99604,99622,99622,99641,99641,99641,99657,99657,99657,99674,99674,99691,99691,99691,99711,99712,99745,99745,99745,99775,99775,99775,99775,99775,99791,99791,99791,99791,99792,99792,99807,99808,99808,99825,99841,99841,99841,99858,99858,99875,99875,99875,99892,99892,99919,99919,99919,99931,99932,99932,99948,99964,99964,99974" d="m379.5,294c0,1.79999 0.00558,2.68652 -0.56934,3.48401c-0.40097,0.55618 -1.28036,1.33377 -1.80533,1.90134c-0.52618,0.56888 -1.09216,1.3956 -1.64618,2.09381c-0.37152,0.46823 -1.16843,1.18286 -1.97916,1.5c-0.98798,0.38647 -1.61792,0.70544 -2.34283,1.37268c-0.65695,0.60468 -1.2825,1.2735 -1.97882,1.96982c-0.52502,0.52502 -1.14001,1.14001 -1.845,1.845c-0.52002,0.52002 -1.08002,1.08002 -1.68002,1.68002c-0.63998,0.63998 -1.31873,1.32123 -2.03598,2.03467c-0.36487,0.36295 -1.09082,1.08304 -1.8075,1.75165c-0.33786,0.31522 -1.52576,1.32883 -2.24734,1.8045c-0.56537,0.37271 -1.41074,0.99908 -2.22916,1.5625c-0.63937,0.44016 -1.40347,0.83569 -1.94934,1.48532c-0.57016,0.67856 -1.03177,1.53061 -1.53668,2.11017c-0.67026,0.76929 -1.28946,1.42413 -1.97266,1.99384c-0.66324,0.55307 -1.42883,0.91058 -1.97598,1.38135c-0.85406,0.73483 -1.35718,1.52567 -1.74152,1.96683c-0.73392,0.84241 -1.65717,1.22916 -2.35718,1.70984l-0.79999,0.33182" id="svg_28" stroke-width="20" stroke="#fff" fill="none"/>
  <path t="100641,100707,100707,100722,100722,100722,100740,100740,100748,100748,100748,100762,100762,100762,100762,100782,100782,100782,100782,100782,100782,100793,100793,100793,100793,100793,100813,100813,100813,100813,100825,100825,100825,100825,100825,100841,100841,100841,100841,100841,100859,100859,100859,100859,100860,100875,100875,100875,100875,100891,100891,100908,100908,100925,100948,100949,100949,100949,100960,100960,100960,100960" d="m268.5,281c0.97916,1.0625 0.98267,1.68817 1.00449,2.95267c0.00943,0.54749 0.01001,1.38095 0.34818,2.59018c0.18408,0.65829 0.56479,1.65375 0.6265,2.49881c0.05313,0.72733 0.00964,1.93082 0.04218,2.64102c0.03552,0.77551 0.1188,1.61151 0.31201,2.48398c0.20517,0.92639 0.53363,1.87115 0.70831,2.35419c0.35709,0.98743 0.55975,1.48099 1.15817,2.97867c0.19846,0.49664 0.58871,1.46878 0.77933,1.93799c0.36218,0.8916 0.8559,2.06177 1.1355,2.71051c0.36676,0.85101 0.70441,1.69812 0.9855,2.71631c0.22043,0.7984 0.41711,1.67825 0.53583,2.13168c0.2421,0.92459 0.6785,2.28519 0.84933,2.71866c0.33691,0.85489 0.72052,1.67703 1.116,2.48401c0.39389,0.80371 0.79541,1.60168 1.19867,2.39066c0.39682,0.77634 0.78445,1.53427 1.39984,2.58884c0.38599,0.66141 0.76154,1.2717 1.31485,2.04984c0.58029,0.81604 1.19556,1.49863 1.43265,2.42017c0.19794,0.76929 0.77158,1.38791 1.59552,2.01617c0.49033,0.37387 0.98242,0.8728 1.77448,1.65433c0.76566,0.75549 1.23001,1.22418 1.90802,1.87067l0.45865,0.40933" id="svg_29" stroke-width="20" stroke="#fff" fill="none"/>
  <path t="105277,105340,105355,105376,105407,105407,105407,105432,105432,105440,105440,105457,105474,105490,105507,105507,105524,105540,105540,105557,105574,105590,105590,105628,105628,105706,105706,105706,105721,105756,105764,105764,105774,105790,105807,105824,105824,105840,105840,105840,105857,105876,105890,105948,105948,105972,105988,106004,106020,106020,106028,106044,106057,106097,106182,106182,106182" d="m268.5,279c0,1.79999 0,2.70001 0,3.54166c0,1.00119 0,1.71967 0,2.51016c0,1.02652 -0.04037,1.90732 0.00015,2.92667c0.02856,0.71872 0.68539,1.44406 0.94269,2.3215c0.25378,0.86548 0.24802,1.82605 0.76166,2.40002c0.65802,0.73532 1.21936,1.39398 1.89551,1.86398c0.80579,0.56009 1.33194,1.00101 1.68533,1.92001c0.27402,0.71255 0.78763,1.51819 1.35065,2.14133c0.65475,0.72467 1.24646,1.14508 1.79468,1.89066c0.5856,0.79642 1.01169,1.59583 1.40268,2.48401c0.28952,0.65765 0.02078,1.72266 0.60266,2.38934c0.61066,0.69968 1.55603,0.9501 2.08484,1.6315c0.63632,0.81995 1.13474,1.21756 1.82648,1.67465c0.89932,0.59427 1.91205,0.78116 2.48602,1.47116c0.54349,0.65335 0.26767,1.62427 0.66666,2.33334c0.49435,0.87854 1.18509,1.4324 1.44284,2.20984c0.25473,0.76831 -0.00134,1.80603 0.40982,2.59015c0.44455,0.84781 0.86884,1.57886 1.64734,2.03336l0.38934,0.53867l0.32532,0.73065" id="svg_30" stroke-width="2" stroke="#000" fill="none"/>
  <path t="106877,107017,107033,107059,107074,107090,107109,107109,107134,107150,107164,107175,107192,107192,107207,107228,107240,107257,107257,107332,107348,107348,107381" d="m281.5,339c0,-2.58932 0.10477,-3.3992 0.64734,-4.05267c0.49033,-0.59055 0.96146,-1.42523 1.23132,-2.26849c0.25314,-0.79105 0.78897,-1.45898 1.10049,-2.19968c0.34106,-0.81091 0.48279,-1.71552 0.85419,-2.47916c0.36667,-0.75391 0.77966,-1.58197 1.14133,-2.39999c0.34686,-0.78448 0.93744,-1.58633 1.02084,-2.30002c0.10446,-0.89392 0.00449,-1.79999 0.00449,-2.69998l0,-0.89999" id="svg_31" stroke-width="2" stroke="#000" fill="none"/>
  <path t="107774,107964,107980,107998,107998,108007,108007,108024,108024,108040,108040,108057,108057,108057,108074,108074,108090,108107,108107,108124,108124,108140,108140,108140,108158,108159,108159,108178,108178,108194,108194,108194,108220,108234,108234,108234,108234,108240,108240,108240,108257,108257,108274,108274,108290,108290,108290,108307,108307,108307,108324,108324,108340,108340,108340,108357,108357,108357,108374,108374,108390,108412,108412,108428,108428,108444,108460,108751,108766,108766,108797,108823,108823,108840,108840,108857,108873,108873,108890,108907,108923,108923,108940,108957,108957,108973,108973,108990,108990,109007,109007,109023,109023,109040,109040,109040,109057,109057,109057,109073,109073,109073,109090,109090,109107,109123,109123,109140,109140,109157,109173,109173,109190,109190,109207,109207,109223,109223,109242,109242,109279,109279,109295,109295,109309,109309,109324,109325,109325,109341,109341,109358,109381,109381,109413,109413,109422,109441,109468,109476,109491,109508,109524,109549,109549,109558,109558,109582,109582,109595,109608,109624,109647,109649,109659,109659,109659,109674,109691,109691,109708,109708,109730,109741,109741,109758,109780,109782,109791,109808,109808,109824,109841,109858,109874,109874,109891,109891,109908,109924,109924,109941,109941,109958,109974,109996,109997,109997,110008,110008,110028,110052,110052,110076,110076,110084,110084,110092,110108,110108,110124,110141,110157,110174,110174,110190,110191,110207,110224,110240,110257,110258,110275,110292,110293,110315,110328,110328,110341,110342,110358,110358" d="m288.5,292c0.01068,1.81467 0.44034,2.60031 0.87866,3.44284c0.3493,0.67142 0.40314,1.67551 0.82584,2.30981c0.49008,0.73541 0.95102,1.43344 1.17401,2.44736c0.17319,0.78748 0.12149,1.79999 0.12149,2.59998c0,0.80002 0,1.7955 0,2.71469c0,0.85999 -0.14636,1.83194 0.07199,2.65997c0.2258,0.8562 1.08792,1.23795 1.59467,2.15869c0.34351,0.62418 0.28177,1.46378 0.5,2.5c0.19904,0.94522 0.52335,1.55167 0.75067,2.56665c0.17767,0.79321 0.50488,1.81451 0.93335,2.38934c0.55551,0.7453 1.1102,1.59409 1.14932,2.54401c0.02823,0.68491 0.01599,1.52588 0.08533,2.15466c0.15427,1.39896 0.33923,2.11615 0.48935,2.81467c0.25735,1.1976 0.40732,1.99945 0.42532,2.86398c0.01779,0.854 0,1.83334 0,2.64401c0,0.64648 0,1.87332 0,2.68933c0,0.81601 0,1.81467 0,2.47916c0,1.02084 0,1.83151 0,2.70618c0,0.99866 0,1.81467 0,2.63068c0,0.99731 0,1.83731 0,2.79999c0,1.05066 -0.03336,1.7099 0,2.71735c0.02859,0.86359 0.68488,1.58942 0.94284,2.46664c0.25412,0.86407 0.51236,1.80569 1.20648,1.65335c0.94379,-0.20712 1.0853,-1.26929 1.42535,-2.12799c0.31641,-0.79901 0.43384,-1.67911 1.03598,-2.42535c0.52814,-0.65454 1.27832,-1.12347 1.8685,-1.89999c0.56088,-0.73798 0.7117,-1.62604 1.22534,-2.20001c0.65802,-0.73532 1.3963,-1.3992 1.89551,-1.89999c0.70111,-0.70337 1.18866,-1.29294 1.7045,-2.04816c0.44305,-0.64868 1.35806,-1.20352 2.04282,-1.39999c0.91611,-0.26285 1.52783,-0.84753 2.31433,-1.60901c0.57861,-0.56021 1.00162,-0.9744 2.02234,-1.74017c0.52966,-0.39737 1.33267,-0.95953 2.14935,-1.26932c0.90384,-0.34283 1.76605,-0.29919 2.76215,-0.33783c0.74863,-0.02902 1.59546,-0.4765 2.57117,-0.82886c0.63364,-0.22882 1.66275,-0.3407 2.42267,-0.74133c0.71155,-0.37512 1.73199,-0.42532 2.41068,-0.42532c0.97867,0 1.884,0 2.836,0c0.76532,0 1.76401,0 2.564,0c0.99869,0 1.76401,0 2.71735,0c0.85199,0 1.65067,0 2.63199,0c0.91733,0 1.78107,-0.05179 2.57217,0.44266c0.75833,0.47397 1.23492,1.10309 2.27399,1.44751c0.72507,0.24036 1.67416,0.43671 2.40451,1.10983c0.51996,0.47922 1.33084,1.10797 1.71466,1.79999c0.45728,0.82449 0.28534,1.80002 0.28534,2.70001c0,0.89999 0,1.79999 0,2.70001c0,0.89999 0,1.79999 0,2.55716c0,0.89999 0,1.84415 0,2.83832c0,0.74734 0,1.64734 0,2.60452c0,0.89999 0.06696,1.80746 -0.05716,2.61432c-0.1489,0.9679 -0.3631,1.71667 -0.74417,2.33234c-0.56366,0.91064 -1.48468,1.23581 -2.08401,1.65466c-0.91348,0.6384 -1.6684,0.94778 -2.35748,1.49866c-0.80545,0.64389 -1.33694,1.30609 -2.15717,1.67468c-0.78281,0.35178 -1.40027,0.82639 -2.10001,1.52533c-0.60025,0.59958 -1.15292,1.3075 -2.10001,1.48932c-0.88391,0.16971 -1.81067,0.01068 -2.72131,0.01068c-0.85333,0 -1.79468,0 -2.56268,0c-0.94135,0 -1.94934,0 -2.74133,0c-0.85867,0 -1.72198,0 -2.61749,0c-0.9585,0 -1.92383,0 -2.59317,0c-0.76532,0 -1.7807,0.12692 -2.67868,-0.08533c-0.89996,-0.21271 -1.65414,-0.73758 -2.48532,-0.91467c-0.98135,-0.20908 -1.59415,-0.66693 -2.48267,-0.91599c-0.7886,-0.22104 -1.49786,-0.76883 -2.22266,-1.384c-0.54306,-0.46091 -1.20093,-1.26761 -1.81552,-1.70001c-0.80261,-0.56467 -1.39484,-1.11267 -2.11514,-1.564c-0.77701,-0.48685 -1.78592,-0.35034 -2.37869,-1.04666c-0.57391,-0.67416 -1.24149,-1.16931 -1.98532,-1.556c-0.78326,-0.40717 -1.28925,-1.14423 -2,-1.83334c-0.59122,-0.57321 -1.51526,-0.76935 -2.19867,-1.28799c-0.6825,-0.51794 -0.716,-1.48001 -0.79065,-2.46133l-0.01068,-0.91733l0,-0.8125" id="svg_32" stroke-width="2" stroke="#000" fill="none"/>
  <path t="111137,111254,111288,111288,111293,111293,111308,111326,111346,111360,111360,111376,111376,111391,111391,111407,111407,111423,111423,111423,111440,111440,111457,111457,111473,111473,111473,111490,111507,111507,111523,111523,111540,111540,111540,111557,111557,111586,111587,111587,111593,111593,111607,111623,111640,111640,111657,111676,111676,111700,111700,111716,111740,111740,111756,111772,111772,111780,111849,111893,111894,111941,111941,111941" d="m384.5,293c-0.05716,1.75717 -0.32001,2.67255 -0.7045,3.34732c-0.45184,0.793 -0.94312,1.47943 -1.34818,2.35269c-0.38568,0.83145 -0.75912,1.69705 -1.28067,2.29999c-0.54517,0.63025 -1.38947,1.11963 -1.772,1.75717c-0.55591,0.92645 -1.08539,1.41217 -1.87314,2.2215c-0.50415,0.51797 -1.11499,1.34689 -1.54236,2.04218c-0.35892,0.58395 -0.94983,1.38995 -1.47916,1.95831c-0.81329,0.87329 -1.41714,1.35562 -2,2.1875c-0.4422,0.63113 -0.74911,1.38708 -1.29999,2.07617c-0.64389,0.80545 -1.1951,1.29315 -2.02133,1.85733c-0.65942,0.45029 -1.53241,1.05026 -2.05334,1.72519c-0.39377,0.51016 -1.12973,1.2641 -1.79999,1.79999c-0.83057,0.66409 -1.1416,1.24716 -1.70935,1.89066c-0.69772,0.79083 -1.5325,1.08139 -2.05466,1.884c-0.47479,0.72983 -1.09729,1.33893 -1.86133,1.68402c-0.76816,0.34695 -1.52292,1.01334 -2.20001,1.41599c-0.8353,0.49673 -1.43881,1.05835 -2.29999,1.44733c-0.77072,0.34811 -1.40109,0.7561 -2.10001,1.45267c-0.70108,0.69876 -1.30002,1.24283 -2.10001,1.60001c-0.79999,0.35718 -1.5,1 -2.02084,1.52084l-0.80032,0.80066l-0.4935,0.5145l-0.47549,0.56851" id="svg_33" stroke-width="2" stroke="#000" fill="none"/>
  <path t="112946,113037,113052,113076,113077,113093,113107,113125,113149,113173,113173,113205,113221,113237,113253,113260,113273,113290,113308,113308,113323,113323,113340,113340,113357,113357,113373,113390,113418,113418,113430,113447,113447,113469,113477,113492,113518,113525,113540,113564,113565,113580,113590,113607" d="m347.5,296c0,1.79999 0,2.63599 0,3.48401c0,0.86331 0,1.88 0,2.81598c0,0.90002 0,1.80002 0,2.70001c0,0.79999 0,1.70001 0,2.60001c0,0.89999 0,1.79999 0,2.69998c0,0.90002 0,1.80002 0,2.70001c0,0.75717 0.05331,1.66351 -0.05716,2.40451c-0.15039,1.00888 -0.51053,1.7869 -1.04266,2.57397c-0.50375,0.74509 -0.88974,1.52133 -0.90018,2.43219c-0.01041,0.91058 0,1.76398 0,2.70398c0,0.88535 0,1.68533 0,2.58536c0,0.89999 0,1.79999 0,2.69998c0,0.89999 0.16367,1.8573 -0.22134,2.70001c-0.30579,0.66931 -0.76797,1.5 -0.77866,2.39999l-0.02133,0.89999" id="svg_34" stroke-width="2" stroke="#000" fill="none"/>
  <path t="114216,114319,114335,114335,114373,114373,114390,114390,114390,114407,114407,114407,114423,114423,114447,114461,114533" d="m289.5,319c0.88666,-0.99866 1.84396,-1.09058 2.51599,-0.91467c0.91479,0.23944 1.45401,0.88599 2.25201,1.68268c0.48306,0.48227 0.98331,0.97934 1.89865,1.89865c0.52014,0.52237 1.13544,1.21289 1.63333,1.98151c0.50485,0.77939 1.20001,1.33099 2,1.7045l0.79984,0.526" id="svg_35" stroke-width="2" stroke="#000" fill="none"/>
  <path t="114994,115071,115071,115071,115109,115142,115173,115173,115196,115196,115212,115228,115244,115268,115292,115292,115300,115308,115333,115340,115357,115388,115396,115407,115423,115440,115440,115462,115476,115490,115508,115533,115564,115596" d="m311.5,343c1.75717,0 2.65268,0 3.51599,0c0.96317,0 1.89603,-0.23141 2.68268,0.28665c0.66092,0.43527 0.78223,1.53806 0.79999,2.22934c0.02759,1.07297 0.00357,1.98401 0.00134,2.884c-0.00226,0.89999 -0.09119,1.85651 -0.80133,2.31467c-0.70972,0.45786 -1.69867,0.28534 -2.59866,0.28534c-0.89999,0 -1.81274,0.15067 -2.69983,-0.00015c-0.8511,-0.14471 -0.90018,-1.19986 -0.90018,-2.09985c0,-0.89999 0,-1.69998 0,-2.60001c0,-0.89999 0,-1.79999 0,-2.69998l0,-0.89999l0,-0.90002l0.00034,-0.89981" id="svg_36" stroke-width="2" stroke="#000" fill="none"/>
  <path t="116038,116185,116201,116201,116243,116243,116276,116276,116276,116310,116310,116343,116343,116375,116407,116407,116407,116423,116423,116440,116440,116457,116457,116473,116473,116500,116500,116500,116507,116507,116525,116525,116550,116550,116573,116598,116598,116621,116621,116645,116685,116685" d="m337.5,341c1.82535,0.01068 2.99933,-0.01807 3.55334,0.64667c0.58466,0.70148 0.44131,1.56396 0.44666,2.5535c0.00443,0.82068 0,1.48517 0,2.74802c0,0.7905 0.14151,1.73502 -0.02084,2.51016c-0.1853,0.88467 -1.138,1.42581 -1.82584,1.50565c-0.83511,0.09692 -1.836,0.03601 -2.63248,0.03601c-1.1875,0 -2.00082,0.03662 -2.84201,-0.00034c-0.81985,-0.03601 -1.53607,-0.56561 -1.72699,-1.46582c-0.20139,-0.94962 -0.39499,-1.75458 -0.59918,-2.58118c-0.25339,-1.02576 -0.33466,-1.70554 -0.35266,-2.78601c-0.01318,-0.79187 -0.00217,-1.65067 0,-2.51398c0.00226,-0.89551 0.09976,-1.91901 0.88666,-2.36734c0.69449,-0.39566 1.62933,-0.284 2.61334,-0.28534l0.98401,0l0.69064,0" id="svg_37" stroke-width="2" stroke="#000" fill="none"/>
  <path t="118140,118221,118253,118253,118284,118284,118300,118308,118340,118348,118356,118356,118373,118390,118390,118406,118406,118423,118423" d="m384.5,305c0,-1.82535 0,-2.83334 0,-3.62534c0,-1.02734 0,-1.72198 0,-2.73868c0,-0.93597 0,-1.836 0,-2.73599c0,-0.89999 0,-1.69998 0,-2.53598c0,-1.02118 0,-1.76852 0,-2.76401l0,-0.80002l0,-1l0,-0.79999" id="svg_38" stroke-width="2" stroke="#000" fill="none"/>
 </g>
 <g display="none">
  <title>muse_image</title>
  <image xlink:href="http://static.flickr.com/101/306864212_1f24af56b4.jpg" id="muse" height="426" width="640" y="27" x="0"/>
 </g>
 <g display="none">
  <title>bbox</title>
  <rect stroke="#f00" fill="none" stroke-width="3" height="358.1982" width="268.8" y="50.02703" x="133.12" id="bbox"/>
 </g>
</svg>
