<svg width="640" height="480" xmlns="http://www.w3.org/2000/svg" xmlns:svg="http://www.w3.org/2000/svg" xmlns:xlink="http://www.w3.org/1999/xlink">
 <!-- Sketchy ANNOTATION
  ImageNet ID: n02395406_3978
  URL: http://farm2.static.flickr.com/1386/1459418749_41fc591d71.jpg
  Image Width: 500
  Image Height: 375
  BBox X: 106
  BBox Y: 96
  BBox Width: 345
  BBox Height: 204
  Exposure: 2000ms
  Synset Label: pig
  Synset ID: n02395406
  Worker Tag: black potbellied pig
  Sanity Check: 
   Context
   Saved
   Shading
  Comment: 
   {}
  Worker ID: A2HM35CWB7IIFM
  Assignment ID: 3PPTZCWALQKQ2Z5DDOA6A36QZ4OQZB
  HIT ID: 335VBRURDJ0KCLZ1AXG5EEKY0FD9ER
  Work Time: 78s
  Worker Score: 0.9286
 END ANNOTATION -->
 <g display="inline">
  <title>Layer 1</title>
  <path t="0,192,192,192,192,193,193,194,194,211,211,211,211,211,211,211,212,212,216,216,216,216,217,217,217,217,237,237,238,238,238,257,257,257,257,277,277,277,277,277,279,279,299,299,318,318,318,334,334,334,334,335,335,359,359,360,360,360,380,380,380,380,380,380,380,380,425,426,426,426,426,427,427,427,427,430,430,431,431,431,431,441,442,442,450,462,463,478,488,499,511,511,529,539,548,561,561,578,598,598,611,611,611,634,635,659,659,679,696,696,734,745,746,760,771,782,795,795,795,812,812,819,820,831,832,844,868,868,893,893,917,917,930,945,962,967,967,979,995,1016,1040,1040" d="m261,176.89999c-1.55032,2.42868 -1.99316,2.91206 -2.49567,3.43401c-0.5426,0.56361 -1.12695,1.15175 -1.74301,1.758c-0.63321,0.62315 -1.27744,1.2538 -2.59465,2.47467c-0.64119,0.5943 -1.27792,1.16368 -1.905,1.71451c-0.61299,0.53847 -1.21861,1.05797 -1.815,1.56149c-0.58365,0.49278 -1.15823,0.97148 -2.28,1.89067c-0.54414,0.44588 -1.07877,0.8802 -1.60501,1.30049c-0.51379,0.41035 -1.51266,1.18663 -2,1.54733c-0.47275,0.3499 -1.83798,1.27896 -2.27367,1.5495c-0.82718,0.51364 -1.62694,0.95274 -2.31599,1.45201c-0.9614,0.69659 -1.47154,1.27014 -1.972,1.83817c-0.51036,0.57927 -1.32207,1.4913 -1.96533,2.07649c-0.65282,0.59389 -1.33147,1.10884 -1.896,1.632c-0.82983,0.76903 -1.18478,1.51639 -1.84851,2.07516c-0.60094,0.50592 -1.41225,1.18329 -1.85266,1.77884c-0.36339,0.49139 -1.09622,1.42381 -1.77483,2.16867c-0.3735,0.40997 -1.18251,1.24896 -1.59734,1.672c-0.41084,0.41898 -1.56534,1.57599 -2.21468,2.22533c-0.58533,0.58534 -1.16266,1.16267 -1.46584,1.46584c-1.05151,1.05148 -1.46992,1.47142 -1.92616,1.92351c-0.48637,0.48196 -1.53928,1.50589 -2.10133,2.032c-0.57257,0.53595 -1.14874,1.08032 -2.35733,2.09599c-0.59312,0.49844 -1.19582,0.96642 -1.7955,1.41901c-0.59103,0.44606 -1.18279,0.8739 -1.76849,1.293c-0.57797,0.41354 -1.15977,0.80617 -2.81384,2.02083c-0.53447,0.39249 -1.04881,0.78465 -1.5435,1.1685c-0.92741,0.71962 -1.3544,1.04971 -2.41199,1.93199c-0.74435,0.62097 -1.3053,1.23392 -1.96667,1.7955c-0.75465,0.64079 -1.48076,0.82135 -2.3,1.27917c-0.77245,0.43167 -1.34445,1.07425 -2.10983,1.37267c-0.76303,0.2975 -1.6978,0.71494 -2.49016,0.96733c-0.86142,0.2744 -1.75635,0.32277 -2.5,0.73267c-0.78241,0.43126 -1.61462,0.59195 -2.32083,0.85266c-0.97034,0.35823 -1.77867,0.479 -2.57918,0.49867c-0.99971,0.02457 -1.81824,-0.0106 -2.79866,0.28534c-0.78375,0.23657 -1.77542,0.47707 -2.60133,0.88266c-0.66998,0.32903 -1.46576,1.03075 -1.83333,1.83333c-0.34015,0.74272 -0.16667,1.70001 -0.16667,2.60001c0,0.94167 0,1.94267 0,2.65067c0,0.744 0,1.78 0,2.632c0,0.95334 0,1.71866 0,2.71283c0,0.91917 0.06445,1.79907 -0.22133,2.726c-0.2218,0.71941 -0.66339,1.67169 -0.74268,2.46783c-0.10353,1.03949 -0.03059,1.80002 -0.036,2.71066c-0.00534,0.90005 -0.45296,1.60721 -0.83333,2.5c-0.32021,0.75156 -0.16667,1.70001 -0.16667,2.60001l0,0.81067l0,0.91068l0,0.85333" id="svg_1" stroke-width="2" stroke="#000" fill="none"/>
  <path t="1957,2112,2124,2139,2139,2139,2155,2155,2155,2155,2167,2167,2167,2167,2167,2177,2177,2177,2178,2178,2178,2186,2186,2187,2196,2197,2197,2210,2211,2227,2228,2228,2234,2234,2246,2262,2277,2277,2284,2295,2312,2312,2321,2321,2321,2332,2332,2344,2345,2345,2360,2360,2361,2361,2369,2370,2382,2382,2382,2394,2394,2394,2411,2412,2412,2419,2420,2431,2431,2432,2432,2444,2444,2444,2462,2462,2468,2468,2480,2494,2511,2517,2518,2528,2544,2555,2566,2584,2585,2602,2605,2605,2615,2629,2630,2653,2653,2666,2689,2689,2714,2838,2874,2888,2899,2912,2928,2960,2998,3020,3021,3024,3033,3059,3159,3171,3172,3184,3207,3220,3230,3231,3245,3267,3280,3294,3295,3503,3539,3564,3600,3612,3629,3629,3637,3637" d="m181,264.89999c0,1.80002 0.00618,2.67203 -0.00017,3.543c-0.00533,0.72906 -0.00423,1.57449 -0.2215,2.75735c-0.11282,0.61426 -0.41653,1.57462 -0.66501,2.27032c-0.42056,1.17752 -0.59647,1.60086 -0.94933,2.50134c-0.37234,0.95023 -0.5683,1.43707 -1.164,2.92798c-0.1996,0.49954 -0.59346,1.48557 -0.77867,1.96802c-0.35403,0.92218 -0.68594,1.76602 -0.97867,2.86749c-0.15633,0.58826 -0.2625,1.59198 -0.68533,2.3645c-0.46811,0.85526 -1.08055,1.36264 -1.452,2.39999c-0.20898,0.58365 -0.51416,1.62552 -0.96666,2.18933c-0.61212,0.76273 -1.50124,1.38199 -1.85201,2.09467c-0.42688,0.86731 -0.65547,1.62894 -1.12,2.44934c-0.33858,0.59799 -0.69951,1.40524 -1.14134,2.11334c-0.48117,0.77112 -0.60776,1.54987 -0.85866,2.55331c-0.19664,0.78641 -0.13728,1.60056 -0.17117,2.60452c-0.02882,0.85379 -0.20174,1.82117 -0.4315,2.63147c-0.16385,0.57785 -0.56221,1.76462 -0.76399,2.36267c-0.29738,0.88141 -0.57832,1.72495 -1,2.716c-0.28546,0.6709 -0.7865,1.69238 -1.10451,2.28534c-0.43443,0.81003 -0.9935,1.62119 -1.53149,2.18933c-0.54556,0.57611 -1.34698,1.21744 -2.164,1.68985c-0.58847,0.34027 -1.59898,0.83273 -2.23599,1.12082c-0.923,0.41742 -1.71947,0.70493 -2.57468,1c-0.58951,0.2034 -1.7858,0.60562 -2.37866,0.78934c-0.85046,0.26352 -1.89432,0.45563 -2.769,0.61066c-1.02792,0.18219 -1.59389,0.65143 -2.34167,1.2955c-0.66887,0.57608 -1.41782,0.92728 -1.86667,1.7045c-0.35898,0.62158 -1.39648,0.9342 -1.85866,1.61069c-0.49918,0.73065 -0.75467,1.64548 -1.14134,2.38931c-0.40717,0.78326 -1.22736,1.23676 -1.71216,2.10001c-0.37111,0.66083 -1.12096,1.13766 -1.78784,1.89999c-0.47734,0.54568 -0.48753,1.56564 -1.03783,2.29016c-0.57516,0.75726 -1.51912,0.9689 -2.0955,1.51117c-0.70967,0.66766 -1.1714,1.49731 -1.2,2.39868c-0.02853,0.89954 -0.33717,1.94894 0.16667,2.63333c0.48073,0.65298 1.44435,0.90729 1.79733,1.61334c0.39139,0.78284 0.00838,1.73038 0.536,2.5325c0.43904,0.66745 0.44702,1.55557 0.85266,2.32083c0.44839,0.84592 0.56253,1.64969 1.25801,2.26398c0.66689,0.58902 1.49652,0.88895 2.38933,1.26935c0.75154,0.32019 1.70094,0.22211 2.5,0.66666c0.80096,0.44562 1.53667,0.82614 2.3,1.216c0.7529,0.38455 1.7,0.284 2.59999,0.284c0.90001,0 1.80135,0 2.76668,0l0.83333,0l0.83333,0l0.86217,0" id="svg_2" stroke-width="2" stroke="#000" fill="none"/>
  <path t="4714,4869,4869,4885,4885,4885,4900,4900,4900,4912,4917,4917,4930,4945,4965,4990,4991,5003,5015,5040,5040,5054,5054,5064,5078,5078,5101,5113,5128,5145,5151,5175,5199,5200,5262,5284,5284,5298,5298,5313,5328,5347" d="m142,333.89999c1.84666,0 2.68666,0 3.68533,0c0.83549,0 1.716,0 2.61433,0c0.879,0 1.686,0 2.72966,0c0.97067,0 1.77086,-0.01801 2.67067,0c0.90054,0.01801 1.69647,0.43976 2.40001,1.09985c0.49751,0.4668 1.29492,1.00043 1.96133,1.47482c0.73643,0.52423 1.5578,0.45453 2.53416,0.77798c0.76257,0.25266 1.69905,0.46732 2.5045,0.86868c0.76717,0.38229 1.60457,0.37552 2.46399,0.81467c0.69693,0.35611 1.27596,0.84396 1.91518,1.48483c0.64194,0.64359 0.90198,1.62 1.23683,2.27917c0.39835,0.78418 0.23117,1.8634 0.34116,2.60449c0.1497,1.00867 0.5175,1.75949 0.85884,2.70883l0.30533,0.76532l0.72151,0.47852" id="svg_3" stroke-width="2" stroke="#000" fill="none"/>
  <path t="6224,6443,6443,6455,6456,6468,6479,6503,6504,6540,6540,6566,6583,6603,6614,6627,6643,6643,6651,6652,6664,6688,6688,6714,6714,6739,6763,6764,6788,6802,6823,6837,6849,6849,6861,6861,6878,6878,6886,6886,6897,6897,6922,6922,6935,6947,6959,6976,6983,6983,6996,6996,7011,7012,7020,7020,7032,7032,7033,7044,7044,7061,7061,7070,7071,7081,7081,7095,7112,7112,7120,7120,7131,7131,7144,7160,7160,7169,7169,7181,7181,7181,7193,7193,7211,7211,7212,7218,7218,7218,7229,7229,7229,7229,7243,7244,7260,7260,7260,7266,7267,7279,7293,7316,7327,7344,7353" d="m163,357.89999c2.8,0 3.60001,0 4.5955,0c0.74733,0 1.64732,0 2.60583,0c0.96533,0 1.79866,0 2.63199,0c0.86217,0 1.76668,0 2.66667,0c0.89999,0 1.8,0 2.70134,0c0.96533,0 1.79866,0 2.63199,0c0.86217,0 1.80267,0 2.65201,0c0.72533,0 1.91333,0 2.67867,0c0.95067,0 1.836,0 2.636,0c0.89999,0 1.8,0 2.7,0c0.91066,0 1.82133,0 2.67467,0c0.94133,0 1.70934,0 2.66133,0c0.76534,0 1.77063,0.05832 2.564,-0.05716c1.01343,-0.14752 1.7308,-0.63101 2.716,-0.85751c0.75294,-0.1731 1.80995,0.19699 2.55067,-0.25198c0.7718,-0.4678 1.48897,-0.64679 2.33333,-1c0.71556,-0.29935 1.46439,-1.07178 2.17467,-1.39734c0.78487,-0.35974 1.59618,-0.43924 2.4825,-0.79315c0.76535,-0.3056 1.73286,-0.86795 2.36366,-1.12201c0.65396,-0.26337 1.66339,-0.42316 2.45834,-0.52084c1.19019,-0.14624 1.84242,-0.44351 2.621,-1.09982c0.6517,-0.54935 1.55121,-0.86414 2.24716,-0.89566c1.01573,-0.04602 1.91653,-0.23346 2.45267,-0.89117c0.57951,-0.71094 0.88869,-1.53177 1.68266,-2.228c0.60881,-0.53384 1.2653,-1.12534 1.68401,-1.88535c0.37427,-0.67935 0.99519,-1.51044 1.46933,-2.17465c0.49142,-0.68845 1.23643,-1.14166 1.88,-1.70935c0.79564,-0.70184 1.02155,-1.37601 1.80566,-2.09467c0.65532,-0.60062 1.3688,-0.89899 2.09982,-1.34265c0.81883,-0.49695 1.36879,-0.89157 2.57851,-1.51199c0.58803,-0.30157 1.48077,-0.62439 1.98567,-0.91934c1.10133,-0.64337 1.40601,-1.32803 2.181,-2.08066c0.60806,-0.59048 1.22205,-0.86945 2.23199,-1.08267c0.93344,-0.19705 1.80298,-0.5087 2.60133,-0.91733c0.79895,-0.40894 1.22133,-1.04535 1.94733,-1.51935l0.47801,-0.62201" id="svg_4" stroke-width="2" stroke="#000" fill="none"/>
  <path t="10666,10812,10812,10825,10825,10851,10851,10867,10867,10884,10885,10897,10897,10911,10928,10934,10934,10946,10946,10946,10961,10962,10962,10962,10971,10971,10983,10983,10994,10994,11020,11020,11044,11061,11069,11081,11093,11093,11110,11110,11118,11118,11131,11143,11143,11167,11328,11349,11350,11354,11355,11370,11370,11385,11385,11393,11393,11402,11402,11402,11413,11414,11414,11426,11427,11444,11444,11451,11475,11475,11487,11487,11499,11499,11512,11512,11527,11537,11537,11549,11549,11549,11560,11560,11578,11586,11610,11611,11636,11639,11660,11678,11696" d="m182,246.89999c-0.436,-1.82533 -0.80243,-2.51524 -1.39999,-3.38533c-0.40074,-0.5835 -0.83363,-1.37035 -1.164,-2.364c-0.30164,-0.90723 -0.38069,-1.74634 -0.65733,-2.57199c-0.23309,-0.69565 -0.71649,-1.65065 -0.77734,-2.47734c-0.06618,-0.89891 -0.00133,-1.83733 -0.00133,-2.688c0,-0.75999 0,-1.93483 0,-2.74933c0,-0.57466 0,-1.76401 0,-2.6595c0,-0.58366 0,-1.41916 0,-2.64734c0,-0.85266 0.00053,-1.85583 0,-2.62115c-0.00067,-0.95201 -0.0611,-1.72911 -0.42534,-2.66135c-0.27271,-0.69795 -0.56424,-1.65364 -0.57466,-2.57466c-0.01018,-0.89993 0,-1.8 0,-2.70016c0,-0.78517 0,-1.73584 0,-2.50116c0,-0.99417 0,-1.7415 0,-2.77335c0,-0.94666 0,-1.62534 0,-2.60382c0,-1.02151 -0.0563,-1.35904 0.05716,-0.608c0.15102,0.9996 0.53108,1.74571 0.86017,2.7025c0.26289,0.76433 0.75433,1.57231 1.26801,2.02266c0.87286,0.76526 1.6313,0.88344 2.58533,1.14667c0.77713,0.21443 1.33786,0.42061 2.52901,0.8145c0.87865,0.29056 1.40897,0.54454 2.5575,0.77867c0.88054,0.1795 1.80972,0.02924 2.49017,0.17867c1.05969,0.23273 1.61618,0.98401 2.28867,1.54283c0.65236,0.5421 1.67386,0.84686 2.19467,1.60133c0.41411,0.5999 0.56662,1.64592 0.97066,2.31467c0.53818,0.89075 0.99744,1.65961 1.18401,2.30934c0.2943,1.02496 0.96562,1.47496 1.44667,2.144c0.52042,0.72377 0.31015,1.85159 0.78932,2.66634c0.44637,0.75897 1.06363,1.42389 1.42601,2.06433c0.46442,0.82079 1,1.35266 1.35133,2.10133l0.00133,0.89867l0,0.89999" id="svg_5" stroke-width="2" stroke="#000" fill="none"/>
  <path t="12660,12867,12885,12885,12900,12900,12902,12902,12927,12952,12963,12977,12993,13013,13013,13037,13051,13051,13062,13062,13062,13077,13077,13094,13095,13099,13100,13112,13112,13113,13126,13127,13143,13173,13186,13211,13231,13247,13262,13262,13278,13295,13433,13450,13483,13501,13501,13501,13517,13521,13521,13530,13530,13544,13544,13544,13561,13562,13562,13567,13567,13567,13567,13579,13579,13579,13593,13593,13593,13610,13610,13611,13616,13617,13617,13627,13628,13643,13643,13644,13661,13661,13669,13679,13679,13693,13703,13703,13714,13715,13715,13727,13727,13727,13746,13747,13747,13752,13752,13752,13763,13763,13776,13776,13793,13793,13793,13801,13813" d="m238,264.89999c-0.05716,-1.75717 -0.39482,-2.64188 -0.64734,-3.40448c-0.32372,-0.97763 -0.23988,-1.80838 -0.63666,-2.71017c-0.32581,-0.74048 -0.71066,-1.48529 -0.716,-2.38535c-0.00533,-0.89998 0,-1.79999 0,-2.7c0,-0.90016 0,-1.68533 0,-2.62534c0,-1.008 -0.00739,-1.69553 0.00017,-2.7175c0.00531,-0.71855 -0.02911,-1.52654 0.22133,-2.53549c0.22394,-0.90215 0.83707,-1.7166 1.25768,-2.42168c0.46806,-0.78462 0.46852,-1.55066 0.6875,-2.66666c0.15404,-0.78505 0.23207,-1.68275 0.93333,-2.46901c0.48296,-0.54149 1.4236,-0.82474 2.1955,-1.31166c0.70244,-0.4431 1.12039,-1.13521 1.75717,-1.7c0.70146,-0.62216 1.07202,-1.38614 1.558,-1.95267c0.63756,-0.74324 1.55148,-0.97079 2.22266,-1.56667c0.60632,-0.5383 1.39606,-1.07187 2.16667,-0.5c0.53194,0.39474 0.74075,1.22926 1.39999,2.03067c0.64534,0.78453 1.2328,1.24969 1.80135,2.12132c0.46198,0.70825 0.95485,1.52332 1.45132,2.11467c0.51137,0.6091 1.20067,1.38676 1.59467,2.0045c0.53299,0.83566 0.89745,1.57648 1.41432,2.34367c0.36484,0.54152 0.97546,1.34576 1.75967,1.909c0.76117,0.54669 1.65149,0.84627 2.41202,1.30949c0.73666,0.44868 1.35977,1.04013 2.16666,1.83333c0.60284,0.59262 0.9588,1.02991 2,1.83334c0.57419,0.44307 1.24097,0.71091 1.97867,1.48799c0.5892,0.62065 1.17914,1.52254 1.66949,1.92601c0.63089,0.51912 1.28323,1.39993 1.34283,2.09999c0.08624,1.0132 0.40207,1.79628 0.72501,2.53801c0.38809,0.89136 0.284,1.948 0.284,2.6355c0,1.02216 0,1.75116 0,2.58817c0,1.19083 0,1.7865 0,2.655c0,1.06934 0,2.01068 0,2.68866c0,0.96869 0,1.77267 0,2.59467c0,1.03101 0,1.91101 0,2.93152c0,0.83099 0,1.78915 0,2.52115l0,0.73199l0,1.09601l0,0.97202" id="svg_6" stroke-width="2" stroke="#000" fill="none"/>
  <path t="15671,15833,15868,15871,15871,15886,15900,15900,15910,15917,15917,15929,15929,15944,15944,15960,15960,15967,15967,15978,15993,15993,16009,16010,16015,16015,16027,16027,16044,16044,16053,16053,16064,16065,16065,16077,16077,16093,16093,16093,16093,16103,16103,16103,16115,16115,16115,16127,16127,16143,16143,16151,16151,16163,16187,16201,16212,16227,16243,16243,16249,16249,16262,16262,16262,16263,16277,16278,16278,16278,16278,16293,16294,16294,16294,16299,16299,16299,16311,16311,16311,16325,16336,16348,16348,16360,16361,16377,16386,16386,16397,16397,16398,16410,16410,16410,16426,16427,16427,16435,16446,16446" d="m260,177.89999c0.05716,-1.7 0.49036,-2.53099 1.20001,-3.19865c0.57635,-0.54225 1.45032,-0.78366 2.284,-1.08534c0.70459,-0.25497 1.76227,-0.67995 2.68265,-0.716c0.65826,-0.02579 1.72379,-0.08131 2.42267,-0.61066c0.67654,-0.51242 1.29337,-1.1134 2.23602,-1.37466c0.68878,-0.19089 1.33545,-0.79083 1.97333,-1.44667c0.62924,-0.64696 1.42734,-1.1234 1.80133,-1.78934c0.53802,-0.95801 0.92236,-1.74117 1.23334,-2.612c0.26556,-0.74364 0.90448,-1.43388 1.51849,-1.92383c0.659,-0.52583 0.95117,-1.40384 1.7485,-2c0.61749,-0.46169 1.66739,-0.53252 2.4205,-0.74284c0.79483,-0.22198 1.79688,-0.40265 2.7045,-0.52533c0.9433,-0.1275 1.73486,-0.32181 2.58533,-0.58533c0.59286,-0.1837 1.78915,-0.58594 2.37866,-0.78934c0.85522,-0.29507 1.88519,-0.70943 2.57468,-0.98933c0.83002,-0.33696 1.84201,-0.51945 2.63599,-0.66333c1.0087,-0.1828 1.74829,-0.56804 2.57849,-0.826c0.80743,-0.25089 1.55869,-0.86827 2.42151,-1.08533c0.8735,-0.21974 1.80002,-0.03601 2.70001,-0.03601c0.89999,0 1.65717,0 2.56616,0c0.85266,0 1.97684,0 2.64816,0c0.72733,0 1.49466,0 2.68567,0c0.79999,0 1.60001,0 2.39999,0c0.80002,0 1.99985,0 2.7955,0c0.78366,0 1.54733,0 2.98285,0c0.66,0 1.57498,0 2.655,0c0.70499,0 1.505,0 2.53067,0c0.94049,0 1.80774,-0.07362 2.63599,0.02084c0.99237,0.11317 1.67371,0.6826 2.52084,0.97916c0.78418,0.27452 1.49905,0.58504 2.64581,0.83334c0.77563,0.16795 1.60797,0.16132 2.66669,0.16666c0.71399,0.0036 1.61932,0 2.58783,0c0.79349,0 1.569,0 2.60815,0l0.97067,0l0.75717,0" id="svg_7" stroke-width="2" stroke="#000" fill="none"/>
  <path t="17091,17297,17297,17298,17298,17298,17316,17316,17316,17316,17316,17316,17333,17333,17333,17333,17334,17334,17351,17351,17351,17351,17351,17351,17351,17351,17360,17361,17361,17361,17361,17361,17361,17361,17376,17376,17376,17376,17376,17376,17376,17381,17381,17382,17382,17382,17393,17394,17394,17394,17394,17410,17410,17419,17419,17419,17419,17431,17431,17431,17443,17444,17444,17444,17444,17461,17461,17461,17461,17461,17461,17462,17467,17467,17467,17468,17468,17468,17468,17468,17479,17480,17480,17480,17480,17480,17493,17493,17493,17493,17510,17510,17510,17510,17517,17517,17517,17529,17529,17529,17543,17543,17543,17543,17560,17560,17560,17560,17560,17567,17567,17567,17567,17567,17567,17578,17578,17578,17578,17578,17592,17593,17593,17593,17610,17610,17610,17615,17615,17628,17628,17652,17653,17676,17677,17692,17692,17692,17701,17702,17713,17714,17714,17714,17726,17726,17727,17727,17743,17744,17744,17744,17751,17751,17752,17763,17763,17763,17764,17776,17776,17793,17801,17812,17812,17827,17843,17849,17849,17861,17861,17876,17876,17893,17894,17899,17899,17910,17910,17926,17926,17935,17935,17947,17997" d="m343,156.89999c3.96432,0.00017 4.96704,0.00148 5.49734,0.01068c1.09879,0.01907 1.66116,0.01738 3.336,0.15599c0.54602,0.0452 1.08209,0.11169 2.13065,0.25867c1.02612,0.14383 1.52872,0.24634 3.03601,0.408c0.49954,0.05357 1.50912,0.11673 2.02133,0.15199c1.0509,0.07236 1.59888,0.08319 3.31201,0.34801c0.61209,0.09462 1.23792,0.23201 1.88098,0.37199c1.32852,0.28918 2.0061,0.44843 2.69467,0.58934c0.69278,0.14178 2.08997,0.38039 2.79102,0.46249c0.69907,0.08188 2.09982,0.18399 2.79999,0.222c0.69989,0.03799 1.40018,0.06526 2.10001,0.1035c1.40042,0.07652 2.10028,0.13048 3.48648,0.27c0.68195,0.06863 1.35101,0.14731 2.00552,0.222c0.63647,0.07265 2.40756,0.26387 2.94348,0.30383c0.99234,0.07399 1.90192,0.10727 2.75101,0.117c1.21344,0.01392 2.01083,0.00449 2.79218,0.00449c0.74933,0 1.45065,0 2.65198,0c0.7485,0 1.936,0 2.7265,0c0.85352,0 1.44418,0 2.64417,0c0.91953,0 1.55585,-0.00093 2.56534,0c0.72269,0.00067 1.50168,0.00101 2.35202,0.03601c0.93915,0.03865 1.98193,0.12492 3.13733,0.248c0.61584,0.0656 1.2518,0.14294 1.90649,0.21599c1.35065,0.15068 2.04044,0.22955 3.4375,0.33334c0.69922,0.05196 1.39716,0.0862 2.091,0.1095c1.36707,0.04591 2.03699,0.04797 2.69467,0.05267c0.64365,0.00461 2.47116,0.00449 3.04233,0.00449c0.55316,0 1.6095,0 2.60583,0c0.47815,0 1.84448,0 2.7045,0c0.82001,0 1.60001,0 2.69501,0c1.00949,0 1.64581,0 2.56534,0c0.90115,0 1.79065,0 2.64417,0c1.03598,0 1.978,0 2.7265,0c0.87381,0 1.91333,0 2.68799,0c0.83066,0 1.70932,0.00385 2.62799,-0.00133c0.95071,-0.00536 1.43634,-0.00172 2.41916,-0.05583c1.49725,-0.08244 1.99698,-0.15295 2.99103,-0.3c0.49466,-0.07318 1.46994,-0.24635 2.41916,-0.44417c0.92014,-0.19176 1.79883,-0.40254 2.64932,-0.588c0.82425,-0.17973 1.63101,-0.3549 2.83566,-0.48933c0.78943,-0.08809 1.56058,-0.09962 2.28601,-0.174c1.27567,-0.13078 2.06387,-0.32018 2.82632,-0.74867c0.7778,-0.4371 1.43893,-1.03786 2.25601,-1.39732c0.71753,-0.31567 1.89053,-0.68724 2.57065,-0.76534c0.97708,-0.1122 1.68219,-0.03601 2.66135,-0.03601c0.79999,0 1.60001,0 2.60901,0c0.90533,0 2.034,0 2.70532,0c0.72733,0 1.49466,0 2.68567,0c0.79868,0 1.58932,0 2.36401,0c1.46933,0 2.15067,0 2.79999,0c0.93149,0 2.13599,0 2.73599,0c0.89999,0 2.10001,0 2.69867,0c0.88049,0 1.716,0 2.71466,0c0.84,0 1.9295,0 2.78668,0c0.89999,0 1.69998,0 2.60001,0c0.93597,0 1.78531,0 2.51065,0c0.98935,0 1.78934,0 2.78934,0c0.97916,0 1.83334,0 2.75266,0c0.90451,0 1.65186,0 2.64734,0c0.80002,0 1.79984,0 2.57916,0c0.99933,0 1.81952,0 2.7355,0.08534l0.50684,0.79317" id="svg_8" stroke-width="2" stroke="#000" fill="none"/>
  <path t="18887,19069,19069,19084,19084,19099,19099,19099,19111,19112,19112,19112,19117,19118,19118,19118,19128,19129,19129,19129,19129,19129,19145,19145,19145,19145,19145,19159,19159,19159,19159,19159,19159,19166,19166,19166,19178,19179,19179,19192,19192,19203,19203,19203,19215,19216,19227,19227,19244,19244,19244,19245,19253,19253,19253,19253,19264,19264,19264,19264,19276,19276,19277,19277,19293,19293,19293,19294,19302,19302,19314,19314,19314,19326,19326,19326,19326,19343,19344,19344,19344,19344,19350,19351,19351,19363,19363,19363,19363,19378,19378,19378,19378,19394,19395,19395,19395,19400,19401,19401,19401,19401,19401,19411,19411,19412,19412,19412,19412,19412,19412,19428,19428,19428,19429,19429,19429,19429,19429,19429,19442,19442,19443,19443,19443,19443,19443,19443,19449,19449,19450,19450,19450,19460,19460,19461,19476,19476" d="m510,157.89999c1.836,0 2.60132,0 3.60449,0c0.85266,0 1.81854,-0.03258 2.63153,0.02135c0.87152,0.0578 1.78992,0.25655 2.65948,0.69749c0.60413,0.30634 1.20612,0.68732 2.18298,1.703c0.49597,0.51569 0.92334,1.12683 1.31702,1.797c0.64221,1.09322 1.00726,1.94928 1.20447,2.39101c0.40564,0.90851 0.79785,1.84294 1,2.3075c0.59363,1.36415 0.79846,1.79939 1.20001,2.65733c0.3985,0.85139 0.61176,1.27271 1.20001,2.592c0.4068,0.91241 0.60071,1.37938 0.97919,2.3125c0.36871,0.90897 0.53833,1.35043 0.99945,2.5775c0.27032,0.71938 0.53796,1.72002 1.18805,2.61c0.42133,0.5768 1.23425,1.0275 1.81195,1.65466c0.57977,0.62947 1.15826,1.55125 1.84668,2.04268c0.66418,0.47414 1.39911,0.96657 2.05865,1.43599c0.75323,0.53613 1.57086,0.91684 2.53772,1.30017c0.8194,0.32486 1.42847,0.52707 2.065,0.78517c1.04053,0.42192 1.7699,0.76385 2.51331,1.1355c0.7514,0.37564 1.84064,0.96704 2.51331,1.38049c0.64722,0.39781 1.29291,0.77663 2.32001,1.76534c0.50909,0.49005 0.93048,1.05882 1.56219,1.88068c0.60431,0.78615 1.20184,1.49387 1.58368,1.93182c0.53809,0.61722 1.2793,1.61208 1.61017,2.22084c0.53632,0.9868 0.83441,1.61153 1.11066,2.31433c0.43805,1.11443 0.60486,1.79868 0.79999,2.52733c0.20514,0.76598 0.49902,1.95857 0.70001,2.757c0.1991,0.79091 0.39453,1.5668 0.59998,2.31599c0.2923,1.06598 0.59705,2.05031 0.79999,2.67467c0.39417,1.21259 0.60004,1.81067 0.90002,2.71066c0.20001,0.60001 0.59998,1.8 0.79999,2.40001c0.29999,0.89999 0.50751,1.49753 0.90002,2.70399c0.20392,0.62675 0.41345,1.30052 0.59998,2.052c0.32336,1.30305 0.49915,2.31938 0.58936,2.86267c0.09363,0.56404 0.26062,1.75122 0.32532,2.37067c0.1333,1.27588 0.17535,1.93199 0.22815,3.27682c0.0271,0.69096 0.03845,1.3963 0.04651,2.1165c0.00824,0.73616 0.01001,1.48933 0.01068,3.05067c0.00037,0.80933 0,1.63466 0,2.472c0,0.84534 0,1.69466 0,2.54399c0,0.84534 0,1.68268 0,3.31734c0,0.78984 0,1.55867 0,2.3055c0,0.72385 0,1.42368 0,2.09851c0,1.27066 0,2.42932 0,3.472c0,0.48132 0,1.37399 0,2.18666c0,1.104 0,2.10451 0,2.98801l0,0.94933l0,0.81252" id="svg_9" stroke-width="2" stroke="#000" fill="none"/>
  <path t="20428,20594,20607,20620,20636,20650,20650,20661,20661,20661,20668,20668,20668,20679,20679,20679,20679,20679,20693,20693,20693,20693,20693,20693,20709,20709,20709,20709,20709,20716,20716,20716,20716,20716,20728,20729,20729,20729,20743,20743,20743,20743,20759,20759,20760,20760,20760,20760,20766,20766,20766,20766,20766,20766,20766,20778,20778,20779,20779,20779,20779,20779,20793,20793,20793,20794,20794,20809,20810,20810,20810,20810,20810,20816,20816,20816,20827,20827,20827,20843,20843,20843,20864,20876,20877,20901,20925,20925,20942,20950,20962,20975,20975,20993,21024,21099,21110,21111,21126,21127,21136,21136,21136,21146,21147,21147,21159,21177,21177,21184,21184,21196,21197,21209,21227,21234,21245,21259,21259,21277,21277,21278,21283,21283,21283,21283,21295,21295,21295,21295,21309,21309,21325,21326,21326,21332,21332,21343,21343,21530,21550,21567,21584,21584,21585,21595,21596,21678,21701,21813,21833,21849,21850,21861,21861,21861,21861,21877,21877,21934,21960,21961,21984,21988,22004,22014,22027,22045,22059,22132,22148,22148,22167,22168,22172,22172,22188,22188,22205,22205,22218,22502,22526,22588,22662,22686,22699,22699,22714,22734,22747,22759,22759,22776,22796,22821,22821,22835,22835,22845,22845,22860,22875,22876,22876,22883,22883,22894,22894,22894,22909,22909,22926,22926,22931,22943,22943,22960,22968,22980,22993,23018,23030,23042,23059,23068,23079,23092,23110,23116,23117,23128,23142,23159,23165,23165,23177,23193,23202,23203,23214,23239,23252,23264,23265,23265,23277,23278,23301,23302,23305,23315,23316,23316,23326,23326,23342,23343" d="m561,258.89999c0,1.80002 0,2.70001 0,3.60001c0,0.81067 0,1.7215 0,2.61066c0,0.9895 0,1.81018 0,2.47467c0,1.00269 0,1.87717 0,2.53351c0,1.1145 0.01202,1.95227 -0.02136,2.85318c-0.03516,0.95001 -0.04077,1.44559 -0.31195,2.92798c-0.0921,0.50339 -0.37238,1.49835 -0.5387,1.98935c-0.33215,0.98065 -0.72302,1.92865 -1.12799,2.84399c-0.39136,0.88458 -0.79138,1.72974 -0.97919,2.14584c-0.36768,0.81451 -0.86005,2.01874 -1.13812,2.81949c-0.27386,0.78867 -0.505,1.58255 -0.85205,2.31601c-0.51685,1.09232 -1.02454,1.73715 -1.55145,2.34366c-0.51575,0.5936 -1.3186,1.36902 -1.79517,1.86032c-0.69299,0.71442 -1.16113,1.23013 -1.85071,2.18134c-0.53815,0.74228 -0.79535,1.16843 -1.35413,2.0625c-0.29242,0.46793 -0.88098,1.44119 -1.47919,2.4375c-0.30023,0.50003 -0.90088,1.504 -1.20001,2.01068c-0.30084,0.50964 -0.90265,1.54498 -1.20001,2.07465c-0.60541,1.07831 -1.19958,2.19623 -1.5,2.75836c-0.29962,0.56055 -0.58893,1.12091 -1.19995,2.18933c-0.29474,0.51538 -1.19421,1.90698 -1.49872,2.31366c-0.58008,0.77469 -1.17413,1.48666 -1.44415,1.85416c-0.81775,1.11298 -1.27679,1.96326 -1.5,2.39999c-0.44635,0.87329 -0.84052,1.74292 -1.05585,2.14584c-0.75922,1.42065 -1.18018,1.96417 -1.80133,2.63983c-0.58075,0.63171 -1.18268,1.22778 -1.79999,1.7775c-0.77899,0.6937 -1.59747,1.18671 -2.14282,1.53149c-0.91431,0.57803 -1.69537,1.03845 -2.45715,1.38852c-0.74976,0.34454 -1.51135,1.03513 -1.91467,1.716c-0.48993,0.82715 -0.84424,1.6218 -1.58081,2.15182c-0.61871,0.44522 -0.78619,1.32266 -1.27917,2.06284c-0.44794,0.67255 -0.42535,1.50616 -0.42535,2.47067c0,0.72531 0,1.71481 0,2.53549c0,1.14584 0,1.93182 0,2.75385c0,1.05865 0,1.76364 0,2.56366c0,1.03632 0.05792,1.98727 -0.02081,2.66165c-0.11584,0.99225 -0.73712,1.72363 -0.922,2.65268c-0.13599,0.68326 -0.05719,1.71133 -0.05719,2.64734c0,0.89999 0,1.79999 0,2.69998c0,0.81433 0,1.772 0,2.5625c0,0.60367 0,1.95883 0,2.69019c0,0.74731 0,1.49466 0,2.58066c0,1.005 0,1.625 0,2.48001c0,1.23398 0,1.91199 0,3.108c0,0.80399 0,1.35333 0,2.65698c0,0.67499 0,1.755 0,2.51102c0,0.91064 0,1.81064 0,2.71967c0,1.02432 0,1.69632 0,2.44031c0,1.10767 0,1.94168 0,2.85068c0,0.89999 0.18939,2.43152 -0.57465,2.31732c-0.73077,-0.10922 -0.41949,-1.44064 -0.42554,-2.55981c-0.00354,-0.65833 0.00958,-1.67603 -0.08514,-2.30417c-0.18134,-1.20248 -0.65344,-1.92865 -0.88934,-2.86801c-0.21271,-0.84708 -0.82666,-1.18399 -1.72534,-1.18533c-0.89996,-0.00134 -1.8797,0.36673 -2.77917,-0.02081c-0.71436,-0.30777 -1.22552,-0.99814 -2.12079,-0.97919c-0.88,0.01862 -1.37012,0.71307 -1.39868,1.60266c-0.03198,0.99683 -0.00134,1.79733 -0.00134,2.79733c0,0.80002 0,1.79984 0,2.57919c0,0.85416 -0.37067,1.44891 -0.87848,2.24231c-0.47803,0.74689 -0.33676,1.71762 -1.22153,1.7785c-0.89786,0.0618 -1.64337,-0.20856 -2.06665,-1c-0.40045,-0.74878 -0.68094,-1.51434 -0.84402,-2.39999c-0.15311,-0.83142 -0.73157,-1.63449 -1.07333,-2.39999c-0.33197,-0.74353 -0.87195,-1.50388 -0.91614,-2.52133c-0.02945,-0.67834 -0.27133,-1.63239 -0.57452,-2.30402c-0.44962,-0.99603 -0.40701,-1.74884 -0.77798,-2.62198c-0.40567,-0.95483 -0.62643,-1.58813 -0.646,-2.354c-0.0256,-1.00287 -0.01282,-1.86475 -0.22284,-2.81985c-0.17651,-0.8028 -0.42371,-1.5993 -0.97717,-2.6095c-0.33096,-0.60413 -0.64612,-1.46762 -0.854,-2.31665c-0.22461,-0.91733 -0.68423,-1.68958 -1.03134,-2.45267c-0.38858,-0.85428 -0.90137,-1.58026 -1.41599,-2.20001c-0.49988,-0.60202 -0.19012,-1.55972 -0.51068,-2.38931c-0.3064,-0.79294 -0.97672,-1.31528 -0.98932,-2.21069c-0.01266,-0.90015 -0.54318,-1.60327 -0.87851,-2.5c-0.31808,-0.85065 -0.12149,-1.69998 -0.12149,-2.59998c0,-0.90002 0,-1.71066 0,-2.62134c0,-0.85333 0,-1.79333 0,-2.77869c0,-0.89999 0,-1.69998 0,-2.59998c0,-0.90002 0,-1.72134 0,-2.63333c0,-0.91736 0,-1.66135 0,-2.69736c0,-0.85199 -0.00717,-1.79468 0,-2.48532c0.01044,-1.00497 0.22235,-2.02655 0.42532,-2.74533c0.22311,-0.79019 0.45319,-1.81702 0.53867,-2.492l0.03601,-1.07999l0,-0.86218" id="svg_10" stroke-width="2" stroke="#000" fill="none"/>
  <path t="24706,24878,24903,24903,24921,24935,24935,24935,24938,24938,24938,24950,24950,24950,24950,24961,24961,24961,24975,24975,24975,24993,24993,24999,24999,25011,25025,25026,25042,25042,25049,25060,25060,25075,25075,25085,25097,25097,25109,25110,25126,25126,25134,25135,25146,25146,25158,25159,25176,25176,25183,25184,25195,25195,25208,25208,25226,25226,25233,25248,25259,25259,25275,25282,25298,25308,25309,25318,25331,25331,25343,25359,25359,25369,25369,25379,25405,25419,25429,25429,25442,25442,25442,25459,25459,25466,25466,25467,25479,25479,25493,25494,25511,25517,25517,25528,25528,25528,25543,25559,25565,25565,25565,25577,25577,25577,25593,25593,25609,25609,25609,25614,25614,25626,25626,25642,25651,25651,25675,25700,25712,25737,25749,25762,25762,25762,25775,25775,25793,25793,25793,25793,25799,25799,25800,25811,25811,25811,25812,25825,25825,25826,25842,25842,25847,25848,25860,25860,25878,25885,25885,25897,25897,25910,25926,25926,25935,25935,25945,25946,25960,25960,25960,25977,25977,25977,25983,25983,25984,25995,25996,26009,26028,26029,26033,26033,26044,26045,26061,26062,26077,26078,26078,26082,26082,26094,26095,26095,26111,26112,26112,26119,26120,26131,26131,26131,26144,26145,26160,26161,26169,26180,26196" d="m497,300.89999c-0.80133,1.16934 -1.45078,1.83429 -1.71466,2.51733c-0.37601,0.97318 -0.50769,2.02524 -0.71066,2.74402c-0.22311,0.79019 -0.46317,1.81619 -0.54935,2.52399c-0.08807,0.72333 -0.23831,1.85931 -0.38251,2.52451c-0.15457,0.71304 -0.43674,1.8096 -0.74265,2.8685c-0.19107,0.66135 -0.51373,1.56381 -0.73352,2.655c-0.14175,0.70377 -0.1424,1.56247 -0.168,2.56534c-0.01956,0.76587 -0.24478,1.74643 -0.70316,2.29681c-0.63367,0.76089 -1.11835,1.47336 -1.2955,2.3045c-0.20914,0.98123 -0.68781,1.52274 -1.2955,2.3045c-0.62366,0.80231 -0.65314,1.52151 -0.7045,2.52884c-0.04401,0.86292 -0.47726,1.54822 -1,2.33334c-0.42404,0.63687 -0.75522,1.69092 -1.02533,2.42267c-0.32129,0.87042 -0.8103,1.36548 -1.27466,2.41599c-0.32434,0.7337 -0.64069,1.70108 -1.10001,2.32266c-0.5354,0.72452 -1.23407,1.28442 -1.70001,1.99335c-0.43265,0.65829 -0.9725,1.68073 -1.5,2.26801c-0.57269,0.6376 -1.27188,1.23196 -2.05267,1.71066c-0.68338,0.41895 -1.47882,0.88132 -2.146,1.5c-0.61737,0.57248 -1.46838,0.96375 -2.30133,1.42148c-0.67505,0.37097 -1.26575,1.22089 -1.99982,1.65717c-0.78387,0.46588 -1.09103,1.24738 -1.60468,1.82135c-0.65802,0.73532 -1.29648,1.29901 -1.89551,1.89999c-0.69662,0.69888 -1.08798,1.47668 -1.50983,2.10001c-0.57126,0.84409 -1.19473,1.21674 -1.90485,1.86398c-0.60135,0.54813 -1.64023,0.41483 -2.47064,0.72134c-0.74579,0.27527 -1.70584,0.83365 -2.31467,1.104c-0.78931,0.35049 -1.80334,0.57782 -2.65717,0.60617c-0.9635,0.03198 -1.75751,0.004 -2.53302,0.00449c-1.0405,0.00067 -1.90146,0.06076 -2.66251,0.35266c-0.87454,0.33545 -1.74304,0.55203 -2.66882,0.86884c-0.71973,0.24631 -1.67477,0.78613 -2.27399,1.07401c-0.74286,0.35687 -1.76801,0.68649 -2.70901,0.7045c-0.862,0.01648 -1.73715,-0.00043 -2.38217,0c-0.99731,0.00067 -1.8186,-0.0275 -2.62933,0.08533c-1.00876,0.14038 -1.87433,0.52325 -2.68399,0.91467c-0.80099,0.38724 -1.58508,0.79459 -2.60001,0.94284c-0.7933,0.11588 -1.79868,0.05716 -2.564,0.05716c-0.95065,0 -1.836,0 -2.63599,0c-0.90002,0 -1.80002,0 -2.70001,0c-0.89999,0 -1.86624,0.12259 -2.66666,-0.33331c-0.73355,-0.41782 -1.15848,-1.0416 -1.952,-1.78268c-0.56342,-0.52618 -1.37473,-1.06262 -2.24384,-1.53665c-0.6535,-0.35641 -1.33676,-0.69452 -2.30417,-1.18066c-0.82358,-0.41388 -1.55713,-0.77631 -2.5,-1.33334c-0.52252,-0.30869 -1.33054,-0.83783 -1.88068,-1.18066c-1.02597,-0.6394 -1.68805,-1.08145 -2.55133,-1.366c-0.97665,-0.3219 -1.62204,-0.22638 -2.60117,-0.50818c-0.80228,-0.2309 -1.59241,-0.83826 -2.3895,-1.3425c-0.68396,-0.43268 -1.73627,-0.37799 -2.41068,-0.45682c-0.9921,-0.11597 -1.65442,-0.72885 -2.29999,-1.27469c-0.75601,-0.63922 -1.58673,-0.66293 -2.53601,-0.71515c-0.76779,-0.04224 -1.77036,-0.34192 -2.39999,-0.60001c-0.93347,-0.3826 -1.70819,-0.71237 -2.53867,-0.95334c-1.04913,-0.30441 -1.776,-0.35779 -2.67801,-0.48868c-0.9729,-0.1412 -1.75919,-0.38269 -2.53751,-0.59467c-1.03558,-0.28204 -1.82596,-0.40692 -2.53067,-0.87347c-0.82373,-0.54538 -1.58688,-0.84192 -2.23648,-1.57919c-0.5365,-0.60892 -1.15198,-1.25055 -1.76001,-1.78531c-0.79544,-0.69955 -1.07837,-1.32208 -1.58267,-2.31467c-0.30386,-0.59805 -0.71973,-1.3905 -1.1955,-2.40002c-0.28021,-0.59457 -0.5918,-1.59894 -0.7045,-2.42081c-0.091,-0.6636 -0.26495,-1.66934 -0.52084,-2.47919c-0.25995,-0.82275 -0.66879,-1.81946 -0.97916,-2.47916c-0.48392,-1.02856 -0.87567,-1.82407 -1.20001,-2.36368c-0.55914,-0.93027 -1.14258,-1.51532 -1.59549,-2.30981c-0.38464,-0.67471 -0.66849,-1.71133 -0.70898,-2.64285l-0.42084,-0.67917" id="svg_11" stroke-width="2" stroke="#000" fill="none"/>
  <path t="28360,28507,28521,28532,28532,28544,28545,28560,28560,28560,28560,28569,28569,28569,28569,28569,28570,28570,28570,28580,28580,28580,28580,28580,28580,28580,28593,28593,28593,28593,28593,28609,28610,28610,28610,28610,28616,28617,28617,28617,28617,28628,28629,28641,28642,28660,28661,28666,28678,28692,28715,28727,28743,28743,28759,28764,28776,28793,28793,28793,28802,28813,28814,28825,28825,28842,28842,28850,28862,28875,28875,28899,28912,28912,28925,28949,28961,28985,28998,29010,29010,29010,29024,29024,29025,29035,29036,29036,29046,29046,29047,29063,29064,29064,29084,29121,29184,29208,29430,29449,29455,29455,29466,29467,29481,29481,29492,29492,29492,29509,29509,29509,29515,29515,29515,29527,29543,29552,29552,29725,29751,29774,29786,29797,29822,29836,29846,29921,29958,30095,30117,30118,30118,30122,30122,30123,30137,30138,30138,30148,30148,30149,30162,30162,30162,30162,30167,30167,30168,30178,30178,30179,30179,30179,30179,30192,30193,30193,30193,30193,30193,30209,30209,30209,30210,30210,30228,30228,30228,30278,30278,30302,30314,30314,30326,30352,30363,30364,30375,30376,30393,30393,30402,30402,30412,30412,30412,30425,30425,30426,30442,30442,30442,30442,30450,30450,30450,30462,30462,30462,30475,30476,30476,30492,30493,30499,30500,30511,30511,30526,30526,30543,30543,30549,30560,30560,30577,30577,30577,30585,30586,30597,30597,30597,30609,30609,30609,30609,30626,30626,30635,30635,30646" d="m252,328.89999c1.8,0 2.636,0 3.48534,0c0.91917,0 1.91869,-0.03949 2.75066,0.03601c0.93594,0.08493 1.74277,0.319 2.36816,0.52649c0.73346,0.24332 2.06296,0.76968 2.58167,0.98035c0.55466,0.22528 1.74728,0.71899 2.37668,0.978c0.64395,0.26498 1.29721,0.53384 1.95749,0.79651c1.31113,0.52161 2.59152,0.99774 3.20935,1.2345c0.60352,0.23129 1.1994,0.4425 2.29465,0.95798c0.52478,0.24698 1.50528,0.78632 2.32135,1.45819c0.78714,0.64804 1.10187,1.04315 1.79834,1.72665c1.00714,0.9884 1.36911,1.27423 2.10449,1.79999c0.7229,0.51685 1.50333,0.94336 2.41849,1.83868c0.60495,0.59183 0.8338,0.95493 1.27084,1.64584c0.6015,0.95093 1.03464,1.76093 1.54166,2.47916c0.61304,0.86844 1.09186,1.50833 1.35419,2.375c0.25415,0.83966 -0.17642,1.84525 0.1875,2.64584c0.35147,0.77322 0.94095,1.28635 1.5,2.02081c0.59018,0.77533 1.15689,1.31537 1.50449,2.10001c0.36227,0.81775 0.83316,1.61813 1.14133,2.56668c0.21866,0.673 0.54935,1.34933 0.83334,2.33331c0.284,0.98401 0.63773,1.65414 0.91599,2.616c0.21848,0.75519 0.55539,1.69171 0.80002,2.40002c0.32593,0.94376 0.284,1.78848 0.284,2.80533c0,0.67865 0,1.65717 0,2.67865c0,0.80002 0,1.70001 0,2.60001c0,0.89999 0,1.79999 0,2.60135c0,0.96533 0,1.84033 0,2.48532c0,0.99866 0,1.83417 0,2.71466c0,0.89868 0,1.79868 0,2.69867c0,0.89999 0,1.7955 0,2.664c0,1.06934 0,1.77432 0,2.74933c0,0.96585 0,1.88666 0,2.78668c0,0.89999 -0.38953,2.04749 0.2215,2.57849c0.66937,0.58173 1.65408,0.00903 2.1785,-0.75049c0.4733,-0.68549 0.76657,-1.54791 1.23599,-2.328c0.49496,-0.82257 1.0249,-1.39297 1.53867,-2c0.66949,-0.79099 1.21439,-1.59845 1.52084,-2.25717c0.44098,-0.94781 0.71664,-1.75043 0.94733,-2.53302c0.30341,-1.02939 0.5867,-1.71609 1.35718,-2.17648c0.71948,-0.42993 0.87939,-1.97202 1.64734,-1.77167c0.79233,0.20673 -0.0105,1.73523 0.38867,2.50232c0.39514,0.7594 0.93613,1.23776 0.96399,2.13602c0.0293,0.94412 0.5896,1.86801 1,1.71667c0.90042,-0.33206 0,-1.68869 0,-2.52567c0,-0.89102 0,-1.7865 0,-2.65503c0,-1.06931 0,-1.78333 0,-2.68866c0,-0.96881 0,-1.78333 0,-2.65182c0,-0.89551 0,-1.7955 0,-2.6955c0,-0.60001 0,-1.80267 0,-2.74167c0,-0.67267 0,-1.79166 0,-2.63034c0,-0.91068 0,-1.3905 0,-2.39417c0,-0.52182 0,-2.155 0,-2.71649c0,-1.13202 0,-1.6965 0,-2.8075c0,-0.5405 0,-2.06668 0,-2.53784c0,-0.88934 0,-1.71466 0,-2.48401c0,-1.39999 0,-2.03067 0,-2.86917c0,-1.20898 0,-1.90149 0,-2.84415c0,-1.008 -0.0054,-1.76404 0,-2.67468c0.00534,-0.90005 0.37772,-1.78937 0.80133,-2.38531c0.52948,-0.74484 0.87573,-1.54514 1.85135,-2.00934c0.65546,-0.31189 1.6004,-0.81546 1.97266,-1.32666c0.70694,-0.97079 1.21454,-1.56635 1.72198,-2.17868c0.65036,-0.78479 1.02615,-1.41138 1.40533,-2.05716c0.56686,-0.96539 1.07907,-1.77499 1.422,-2.35352c0.34787,-0.58685 0.94012,-1.78854 1.20001,-2.37866c0.37622,-0.85428 0.77344,-1.65695 1.2735,-2.35349c0.47327,-0.65924 1.1492,-1.64709 1.33099,-2.45718c0.13333,-0.59409 0.35828,-1.60886 0.72534,-2.39999c0.37555,-0.80939 0.7561,-1.60349 1.2955,-2.43332c0.44745,-0.68835 0.83633,-1.49637 1.02533,-2.34134c0.21286,-0.95178 0.86456,-1.5498 1.36401,-2.23599c0.60849,-0.83597 0.54059,-1.62473 0.77731,-2.58936c0.20038,-0.81653 0.59546,-1.5899 0.74933,-2.40134c0.15683,-0.82706 0.29465,-2.02301 0.44119,-2.55582c0.23608,-0.85849 0.64642,-2.04166 0.84149,-2.64151c0.28577,-0.87878 0.56656,-1.70721 0.716,-2.716c0.09784,-0.6604 0.08533,-1.68533 0.09601,-2.46399l0.21066,-0.97852" id="svg_12" stroke-width="2" stroke="#000" fill="none"/>
  <path t="31868,32112,32135,32135,32137,32137,32137,32137,32137,32151,32151,32152,32152,32152,32163,32163,32163,32163,32178,32178,32178,32178,32185,32185,32196,32209,32209,32226,32226,32234,32234,32234,32246,32246,32258,32258,32258,32277,32278,32278,32283,32294,32294,32319,32319,32319,32344,32344,32382,32444,32444,32455,32481,32592,32617,32617,32633,32634,32642,32643" d="m322,323.89999c1.75717,0 2.66617,0 3.51883,0c0.81451,0 1.8045,0 2.56451,0c0.84,0 1.28998,0 2.75916,0c1.05835,0 1.5975,0 2.67084,0c0.52417,0 1.98666,0 2.83066,0c0.74802,0 1.42401,0 2.65601,0c0.59866,0 1.47916,0 2.31467,0c1.22366,0 2.02368,0 2.92816,0c0.85751,0 1.72784,0 2.52652,0c1.01599,0 2.064,0 2.7735,0c0.85266,0 1.85849,0 2.69315,0c0.93066,0 1.71875,0.03021 2.53867,-0.03598c1.06326,-0.08585 1.75568,-0.33936 2.56369,-0.61136c1.02698,-0.34573 1.82831,-0.35266 2.6825,-0.35266c0.97916,0 1.77914,0.0018 2.57916,0c0.991,-0.00226 1.70099,-0.25381 2.48267,-0.716c0.8266,-0.48877 1.71732,-0.284 2.61734,-0.284c0.89999,0 1.71066,0 2.62149,0c0.88916,0 1.87833,0 2.65765,0l0.99933,0l0.82019,0" id="svg_13" stroke-width="2" stroke="#000" fill="none"/>
  <path t="35188,35386,35398,35398,35398,35415,35415,35415,35415,35446,35446,35446,35446,35447,35447,35480,35480,35480,35480,35480,35480,35480,35480,35483,35483,35483,35484,35484,35484,35493,35493,35493,35507,35507,35507,35507,35519,35519,35519,35519,35519,35519,35530,35531,35531,35531,35543,35543,35543,35543,35558,35558,35568,35568,35581,35581,35592,35608,35629,35641,35641,35658,35658,35666,35678,35678,35678,35691,35692,35692,35708,35708,35715,35728,35728,35728,35742,35743,35852,35888,35902,35903,35918,35932,35932,35941,35950,35961,35976,35992,35992,35998,35998,36010,36024,36025,36047,36171,36185,36207,36256,36281,36281,36285,36286,36297,36311,36319,36356,36357,36466,36467,36483,36497,36510,36515,36539,36539,36552,36552,36566,36566,36576,36577,36594,36594,36594,36602,36602,36603,36603,36603,36614,36614,36614,36614,36626,36627,36627,36627,36644,36644,36651,36652,36663,36663,36677,36693,36699,36712,36712,36712,36726,36727,36727,36744,36744,36744,36748,36749,36749,36761,36761,36761,36777,36778,36778,36794,36794,36798,36798,36809,36827,36828,36835,36847,36872,36872,36934,36946" d="m236,332.89999c0,1.672 0,2.772 0,3.5625c0,0.60367 0,1.95901 0,2.69467c0,0.76367 0.00098,1.54733 0,2.74283c-0.00067,0.80667 -0.0074,1.65344 -0.02083,2.10419c-0.02924,0.9819 -0.04713,1.52383 -0.20084,3.4025c-0.05841,0.7139 -0.13568,1.45715 -0.22501,2.22c-0.09062,0.77383 -0.19348,1.54767 -0.315,2.31c-0.11865,0.74435 -0.39037,2.13382 -0.55966,2.75549c-0.30513,1.12048 -0.48279,1.61526 -0.85333,2.48251c-0.32304,0.75607 -0.95889,1.94861 -1.3045,2.72531c-0.33817,0.75995 -0.62932,1.64075 -0.82083,2.31885c-0.2093,0.74109 -0.40784,1.54556 -0.7,2.84784c-0.20552,0.91611 -0.3,1.38599 -0.5,2.33331c-0.2,0.94733 -0.29201,1.41779 -0.60001,2.77835c-0.19495,0.86115 -0.3936,1.68167 -0.59999,2.45999c-0.291,1.09741 -0.50507,1.77313 -0.77917,2.72c-0.16757,0.57886 -0.46091,1.85434 -0.5,2.52084c-0.05978,1.01929 0.13692,1.84964 -0.1875,2.85416c-0.22337,0.69162 -0.7601,1.47876 -1.33333,2.16666c-0.46298,0.5556 -0.39044,1.49841 -0.55716,2.34735c-0.18199,0.9267 -0.81834,1.388 -1.44284,2.19434c-0.57333,0.74026 -0.80176,1.46747 -1.10001,2.24365c-0.40236,1.04709 -0.65765,1.7756 -1.09999,2.55301c-0.45631,0.80197 -0.99947,1.46652 -1.36134,2.33365c-0.36607,0.8772 -0.79883,1.57312 -1.088,2.07733c-0.62854,1.09595 0.09886,2.78949 -0.85066,2.77869c-0.62798,-0.00714 0.12469,-1.56149 0.61067,-2.12802c0.63756,-0.74326 1.57672,-0.98141 2.10399,-1.56931c0.58644,-0.65387 0.63672,-1.77332 1.48534,-1.83069c0.89796,-0.0607 1.7993,-0.16766 2.436,-0.61066c0.84706,-0.58936 1.50525,-1.05789 2.3425,-1.26782c0.99782,-0.25018 1.7215,-0.17868 2.5215,-0.62152c0.8,-0.44284 1.7,-0.5 2.60001,-0.5c0.89999,0 1.73701,0.33246 1.89999,1.02084c0.22646,0.95648 0.64651,1.67502 1,2.47916c0.35184,0.80038 0.93912,1.59387 1,2.5c0.05363,0.79822 0,1.34534 0,0.64368c0,-1.00766 -0.19389,-1.96512 0.00133,-2.84235c0.18053,-0.81122 0.85629,-1.38315 1.05135,-2.15317c0.23189,-0.91547 0.76427,-1.51144 0.91133,-2.48416c0.11453,-0.75751 0.03592,-1.76849 0.036,-2.62115c0.00009,-0.96451 -0.01575,-1.79126 0.05716,-2.7045c0.08044,-1.00775 0.2193,-1.72549 0.37885,-2.47433c0.16548,-0.77667 0.36412,-1.56564 0.664,-2.76382c0.19919,-0.7959 0.39529,-1.5806 0.59999,-2.34302c0.29327,-1.09232 0.60149,-2.09375 0.77917,-2.71548c0.24371,-0.85269 0.46817,-1.85419 0.51016,-2.73102c0.04834,-1.0094 0.01067,-1.78983 0.01067,-2.78915c0,-0.71701 -0.16644,-1.64096 0.02083,-2.52151c0.1814,-0.85291 1.02382,-1.64297 1.3685,-2.34665c0.29263,-0.59741 0.49908,-1.57358 0.58534,-2.37866c0.08797,-0.82101 0.21246,-1.8652 0.54616,-2.77469c0.25464,-0.69403 0.67998,-1.68369 0.97917,-2.5c0.20053,-0.54715 0.61752,-1.57153 0.88933,-2.27466c0.34822,-0.90082 0.52667,-1.90933 0.61067,-2.72534c0.084,-0.81598 0.21692,-1.84314 0.61067,-2.65332c0.41934,-0.86285 1.02216,-1.40549 1.588,-2.04666c0.6757,-0.76566 0.95717,-1.41742 1.60266,-1.96933c0.68935,-0.58942 1.19867,-1.49734 1.84151,-1.87885l0.52383,-0.78516l0.74933,-0.45068" id="svg_14" stroke-width="2" stroke="#000" fill="none"/>
  <path t="43544,43727,43727,43728,43728,43728,43751,43751,43751,43751,43751,43751,43752,43752,43769,43769,43769,43769,43769,43769,43769,43769,43770,43787,43788,43788,43788,43788,43788,43788,43788,43789,43798,43798,43799,43799,43799,43799,43799,43799,43799,43811,43811,43811,43811,43811,43812,43812,43812,43812,43824,43824,43824,43824,43824,43824,43862,43862,43882,43899,43900,43916,43916,43916,43927,43927,43946,43946,44084,44108,44109,44144,44161,44181,44205,44218,44218,44229,44280,44328,44340,44358,44377,44392,44392,44463,44487,44501,44513,44513,44514,44514,44531,44532,44532,44532,44533,44533,44534,44534,44534,44539,44539,44539,44540,44540,44540,44540,44540,44540,44552,44552,44552,44552,44552,44552,44553,44553,44553,44563,44563,44564,44564,44564,44564" d="m540,318.89999c0,5.50018 0,6.50452 0,7.01068c0,1.02533 -0.00024,1.54648 0,3.15601c0.00012,0.55566 0.00275,1.71301 0.01068,2.32266c0.0083,0.63568 0.02258,1.30142 0.04651,2.00098c0.02521,0.73776 0.10651,2.3432 0.16431,3.21686c0.06067,0.91702 0.13361,1.86984 0.21448,2.8515c0.0827,1.004 0.17328,2.02277 0.26855,3.0495c0.0954,1.02795 0.2948,3.05856 0.39545,4.04965c0.09937,0.97824 0.20044,1.95032 0.30005,2.92349c0.1004,0.98114 0.20135,1.97723 0.29999,2.99551c0.10144,1.047 0.30182,3.25635 0.39984,4.42865c0.10071,1.20502 0.19696,2.42627 0.28949,3.64651c0.09119,1.20209 0.17578,2.36923 0.25348,3.4845c0.07288,1.04611 0.19189,2.8634 0.23566,3.6055c0.03741,0.63394 0.06586,1.17194 0.08551,1.62601c0.01648,0.38193 0.02661,0.70398 0.03149,0.978c0.00427,0.23798 0.00452,0.65399 0.00452,0.854c0,0.19998 0,0.39999 0,0.60001c0,0.59998 0,1.59866 0,2.36398c0,0.95068 0,1.93634 0,2.65033c0,0.95502 0,1.70651 0,2.50302c0,1.22549 0,1.87198 0,2.88248c0,0.77936 0.17834,2.18723 -0.284,2.14551c-0.78693,-0.07101 -0.68164,-1.70615 -1.216,-2.34534c-0.51666,-0.61801 -0.91772,-1.41769 -1.5,-2c-0.58228,-0.58228 -1.41028,-1.07446 -2.02533,-1.57465c-0.61987,-0.50412 -1.57471,-0.43616 -2.47467,-0.42535c-0.88953,0.01068 -1.22192,0.78732 -1.58398,1.43201c-0.409,0.72821 -1.61444,0.54465 -1.97736,-0.11465c-0.45447,-0.8255 -0.82178,-1.66568 -1.12402,-2.42667c-0.1795,-0.45203 -0.65753,-2.22217 -0.79327,-2.96234c-0.14789,-0.80649 -0.27228,-1.67618 -0.39606,-2.595c-0.12903,-0.95786 -0.24933,-1.94681 -0.37799,-2.95502c-0.13,-1.01846 -0.40845,-3.04587 -0.56866,-4.03497c-0.15723,-0.97089 -0.32849,-1.92053 -0.50397,-2.85001c-0.17194,-0.91052 -0.34937,-1.80002 -0.52203,-2.67001c-0.16864,-0.85001 -0.48895,-2.48944 -0.63098,-3.27966c-0.13788,-0.76715 -0.26282,-1.51086 -0.375,-2.229c-0.10767,-0.68924 -0.20282,-1.34897 -0.28497,-1.97699c-0.07764,-0.59332 -0.19794,-1.67072 -0.24017,-2.15134c-0.03888,-0.44211 -0.06433,-0.84866 -0.08551,-1.22101l-0.03149,-0.93298" id="svg_15" stroke-width="2" stroke="#000" fill="none"/>
  <path t="45735,45880,45898,45898,45898,45914,45914,45916,45916,45917,45917,45927,45927,45927,45927,45940,45940,45940,45958,45958,45964,45965,45965,45975,45991,45991,46007,46007,46013,46013,46025,46025,46042,46042,46042,46050,46050,46062,46062,46075,46075,46092,46092,46100,46100,46112,46136,46160,46173,46173,46190,46190,46190,46198,46198,46198,46198,46209,46209,46209,46209,46224,46224,46224,46224,46234,46234,46234,46234,46246,46246,46246,46259,46283,46296,46320,46370,46433,46457,46457,46475,46492,46507,46517,46529,46530,46541,46541,46557,46557,46568,46568,46579,46579,46579,46591,46616,46627,46653,46666,46677,46690,46714,46726,46764,46764,46775,46800,46800,46812,46825,46840,46862,46874,46891,46899,46935,46973,46974,46986,47000,47015,47023,47024,47046,47070,47084" d="m538,225.89999c0.98535,1.82535 1.2973,2.87094 1.86133,3.37468c0.61945,0.55324 1.27716,1.09743 1.76398,1.87199c0.56805,0.90378 0.8656,1.43446 1.37469,2.27417c0.35211,0.5808 0.9826,1.77722 1.24731,2.37466c0.38373,0.86598 0.57788,1.45688 1.23669,2.41916c0.47528,0.6942 1.07532,1.25337 1.63068,2.08534c0.51642,0.7737 0.87164,1.60709 1.28534,2.38933c0.38727,0.73221 0.89288,1.46011 1.59998,2.21066c0.49512,0.52551 1.09735,1.32291 1.5,2c0.49677,0.83528 0.96405,1.59126 1.82147,1.87868c0.85449,0.28645 1.88068,0.33646 2.47852,0.54666c0.80298,0.28235 1.79877,0.54202 2.60004,0.57018c0.99939,0.03511 1.79999,0.00449 2.79999,0.00449c0.79999,0 1.79999,0 2.58929,0c1.04401,0 1.80005,0.00546 2.71069,0c0.8894,-0.00534 1.46771,-0.54199 1.50134,-1.48532c0.02588,-0.72571 0.20941,-1.7189 0.51947,-2.55634c0.27118,-0.73253 0.58752,-1.59889 0.77917,-2.27267c0.31378,-1.10316 0.40179,-1.49422 0.70001,-2.68567c0.19983,-0.79837 0.40509,-1.58594 0.56403,-2.364c0.29901,-1.46358 0.34552,-2.15285 0.42133,-2.81065c0.11285,-0.97942 0.32483,-2.00006 0.58398,-2.70668c0.26837,-0.73177 0.57074,-1.44696 1.26398,-2.61867c0.38074,-0.64351 1.01709,-1.26416 1.16217,-2.2c0.13788,-0.88939 0.00452,-1.8 0.00452,-2.7c0,-0.89999 0.23804,-2.03996 -0.44281,-2.4785c-0.63116,-0.40654 -1.81219,-0.265 -2.65704,-0.12134c-0.85107,0.14471 -0.73022,1.14871 -1.06683,1.99983c-0.27789,0.70264 -0.78625,1.48277 -0.8288,2.40451c-0.0459,0.99445 -0.00452,1.7955 -0.00452,2.7955c0,0.79999 0,1.79999 0,2.58932c0,0.72534 0,1.68983 0,2.61067c0,0.89999 -0.14978,1.81259 0.00018,2.69983c0.14398,0.85202 0.87604,1.4386 1.52063,1.90016c0.69354,0.49664 1.25659,1.13808 1.56317,1.8c0.40253,0.86909 1.21222,1.5038 1.716,2c0.69489,0.68443 1.49866,1.1714 2.40002,1.2c0.89954,0.02853 1.93787,0.32178 2.6333,-0.16666c0.71521,-0.50232 1.32092,-0.65005 2.16669,-1c0.78461,-0.32466 1.36633,-0.96693 2.10986,-1.48067c0.67438,-0.46593 1.72345,-0.51933 2.36932,-0.85268l0.8208,-0.44283l0.89868,-0.0585l0.74866,-0.35133" id="svg_16" stroke-width="2" stroke="#000" fill="none"/>
  <path t="49004,49152,49152,49167,49182,49182,49198,49198,49202,49223,49240,49248,49273,49298,49298,49310,49310,49334,49385,49421,49435,49449,49449,49464,49473,49473,49494,49494,49506,49531,49568,49596,50382,50413,50466,50517,50553,50553,50566,50578,50615,50676,50713,50729,50746,50775,50862,50887,50934,50934,51034" d="m202,305.89999c0.01067,-2.78934 -0.0117,-3.56094 0.436,-4.37466c0.46869,-0.85187 1.06215,-1.40942 1.39732,-2.45865c0.23489,-0.73532 0.23203,-1.6041 0.74133,-2.19202c0.56192,-0.64862 1.31277,-0.94855 1.92534,-1.51633c0.72147,-0.6687 1.04974,-1.43243 1.37866,-2.43683c0.26312,-0.8035 0.54074,-1.56949 1.09601,-2.41083c0.40593,-0.61505 1.43599,-0.61069 2.34666,-0.61069c0.67867,0 1.65717,0 2.67867,0c0.75717,0 1.65266,0 2.51601,0c0.96317,0 1.88399,0 2.784,0c0.89999,0 2.15833,0.35867 2.15833,0c0,-0.85831 -1.85146,-0.20206 -2.657,0.28534c-0.62433,0.37775 -0.85249,1.53311 -1.60266,1.71335c-0.89204,0.21432 -1.50981,0.76489 -2.146,1.35397c-0.57559,0.53299 -0.99277,1.19818 -1.40533,1.94736c-0.46178,0.83856 -0.93268,1.616 -1.74734,1.92133l-0.59999,0.42599l-0.90001,0.34201" id="svg_17" stroke-width="2" stroke="#000" fill="none"/>
 </g>
 <g display="none">
  <title>muse_image</title>
  <image xlink:href="http://farm2.static.flickr.com/1386/1459418749_41fc591d71.jpg" id="muse" height="480" width="640" y="0" x="0"/>
 </g>
 <g display="none">
  <title>bbox</title>
  <rect stroke="#f00" fill="none" stroke-width="3" height="261.12" width="441.6" y="122.88" x="135.68" id="bbox"/>
 </g>
</svg>
