<svg width="640" height="480" xmlns="http://www.w3.org/2000/svg" xmlns:svg="http://www.w3.org/2000/svg" xmlns:xlink="http://www.w3.org/1999/xlink">
 <!-- Sketchy ANNOTATION
  ImageNet ID: n02395406_26602
  URL: http://farm1.static.flickr.com/79/230640742_63d3ad7408.jpg
  Image Width: 333
  Image Height: 500
  BBox X: 3
  BBox Y: 116
  BBox Width: 312
  BBox Height: 341
  Exposure: 2000ms
  Synset Label: pig
  Synset ID: n02395406
  Worker Tag: pig eating
  Sanity Check: 
   Saved
  Comment: 
   {}
  Worker ID: AXD2DZ7U6CK35
  Assignment ID: 3M0BCWMB8VWZ4YYJJJT9GAH93D0WBP
  HIT ID: 33CLA8O0MIBIMZVJZP0XNH5SL39RFU
  Work Time: 66s
  Worker Score: 0.7857
 END ANNOTATION -->
 <g display="inline">
  <title>Layer 1</title>
  <path t="4820,4834,4834,4846,4847,4856,4872,4872,4887,4887,4887,4904,4904,4904,4920,4920,4920,4937,4937,4937,4937,4954,4954,4954,4954,4954,4972,4972,4972,4972,4972,4972,4987,4987,4987,4987,4987,5004,5004,5004,5004,5020,5020,5020,5020,5020,5037,5037,5037,5037,5037,5037,5037,5054,5054,5054,5054,5054,5070,5070,5070,5070,5070,5087,5087,5087,5087,5087,5087,5104,5104,5104,5104,5104,5120,5120,5120,5120,5120,5137,5137,5137,5138,5138,5138,5154,5154,5154,5154,5154,5155,5155,5170,5170,5170,5171,5171,5171,5171,5171,5187,5187,5187,5187,5188,5188,5204,5204,5204,5204,5204,5221,5221,5221,5222,5222,5222,5237,5237,5238,5238,5238,5254,5254,5254,5254,5254,5254,5271,5271,5271,5271,5271,5271,5271,5287,5287,5287,5287,5287,5287,5288,5304,5304,5304,5304,5304,5304,5321,5321,5321,5321,5321,5321,5337,5337,5337,5337,5337,5338,5338,5338,5354,5354,5354,5354,5354,5355,5355,5371,5371,5371,5371,5371,5371,5387,5387,5387,5387,5387,5388,5388,5404,5404,5404,5404,5404,5405,5405,5405,5405,5421,5421,5421,5421,5421,5421,5437,5437,5437,5437,5438,5454,5454,5455,5455,5471,5472,5472,5472,5472,5487,5487,5487,5488,5504,5504,5504,5504,5505,5520,5521,5521,5521,5521,5538,5538,5538,5539,5539,5554,5554,5554,5570,5570,5570,5571,5571,5587,5587,5588,5588,5605,5605,5605,5605,5621,5621,5621,5621,5637,5638,5638,5638,5655,5655,5655,5655,5671,5671,5671,5687,5687,5688,5704,5704,5704,5721,5722,5747,5755" d="m226,75c2.5955,3.18567 3.19576,3.5321 3.9785,4.1c0.63893,0.46356 1.31439,1.20718 2.0215,1.9c0.5157,0.50529 1.30779,1.12608 2.04167,1.5c0.63382,0.32294 1.64795,0.68735 2.45833,1.02084c0.55132,0.22688 1.59473,0.7796 2.27467,1.31516c0.69508,0.54749 1.37935,1.18114 2.187,1.764c0.57132,0.41231 1.19185,0.81388 2.205,1.4c0.71306,0.41251 1.47495,0.81181 2.24399,1.272c0.3968,0.23745 1.59497,1.05419 1.98917,1.37067c0.80746,0.64825 1.5795,1.35715 1.96417,1.70667c0.75098,0.68233 1.46162,1.32677 2.15067,1.88133c0.64227,0.51691 1.28212,0.97446 1.884,1.452c0.91302,0.72439 1.50151,1.27489 2.12216,1.81734c0.63197,0.55235 1.63631,1.34779 2.36583,1.81734c0.75052,0.48306 1.16122,0.6932 1.97501,1.1925c1.31528,0.80698 1.76205,1.12946 2.22235,1.45817c0.94629,0.67577 1.41293,1.03619 2.36331,1.72666c0.46716,0.3394 1.37875,0.98351 2.26602,1.536c0.83331,0.5189 1.25436,0.73325 2.02499,1.2175c1.10892,0.69683 1.78299,1.23235 2.44699,1.78783c0.33755,0.2824 1.0065,0.89157 2.14801,1.764c0.40314,0.30811 1.2699,0.8987 1.71732,1.18933c0.89453,0.58109 1.34692,0.84881 2.616,1.644c0.76578,0.47984 1.47513,0.93671 2.14801,1.392c0.67111,0.45409 1.70758,1.19517 2.07068,1.46c0.75217,0.5486 1.5256,1.12496 1.91916,1.41917c1.19635,0.89436 1.99713,1.49644 2.39999,1.8c0.81693,0.61555 1.23325,0.92921 2.08084,1.58083c0.88315,0.67896 1.33783,1.03442 2.27634,1.77633c0.48578,0.38402 0.98138,0.77826 2,1.6c0.52573,0.42411 1.6055,1.30438 2.15933,1.75951c0.56085,0.46087 1.12338,0.92611 1.68298,1.39349c0.55508,0.46362 1.63101,1.37318 2.14133,1.81601c0.95847,0.83167 1.39304,1.22342 2.18768,1.95499c0.72778,0.67001 1.06323,1.00162 1.74832,1.61168c1.02853,0.91589 1.40497,1.20123 2.14401,1.81332c0.75165,0.62253 1.15393,0.91321 2.20801,1.95601c0.70331,0.69579 1.01538,1.08102 1.64581,1.83333c0.62219,0.74246 0.90295,1.13028 1.82101,2.17867c0.59378,0.67807 1.21924,1.32272 1.53583,1.64667c0.64642,0.6615 1.68567,1.69633 2.05066,2.06134c0.76001,0.76001 1.155,1.155 1.56,1.56c0.84,0.84 1.71976,1.72025 2.17468,2.1745c0.46243,0.46175 1.40274,1.39479 1.87866,1.858c0.47342,0.46077 0.93198,0.92787 2.33334,2.1875c0.4404,0.39584 0.87851,0.7674 1.73065,1.472c0.41379,0.34215 1.23495,1.0054 1.63467,1.34399c1.21185,1.02652 1.60602,1.39769 2.40134,2.15334c0.40237,0.38232 1.20068,1.1678 1.60001,1.56534c1.20227,1.19688 1.60254,1.60013 2.00449,2.00766c0.81885,0.83022 1.23499,1.25972 1.65268,1.70534c1.32053,1.40872 1.76581,1.92673 2.22549,2.45366c0.46735,0.53572 0.93347,1.08144 1.39648,1.632c0.46097,0.54811 0.91876,1.08841 2.1875,2.66667c0.39276,0.48857 0.76831,0.95969 1.46133,1.87199c0.33307,0.43845 0.96756,1.30632 1.26935,1.744c0.91656,1.32935 1.20691,1.79999 1.80267,2.75333c0.30215,0.48349 0.60175,0.9736 1.19998,1.96533c0.60178,0.9976 0.90247,1.49782 1.50452,2.51218c0.30731,0.51781 0.62152,1.04604 1.25266,2.15799c0.33087,0.58296 1.01151,1.82744 1.36401,2.49234c0.36356,0.68573 0.72818,1.38905 1.09348,2.1015c0.36569,0.71323 0.72458,1.42238 1.0755,2.11949c0.34106,0.67755 0.97653,1.94849 1.53918,3.07384c0.25632,0.51266 0.729,1.45801 0.94934,1.89867c0.41867,0.83733 1.01974,2.0433 1.42133,2.83817c0.19919,0.39424 0.59106,1.17334 1,1.91917c0.58725,1.07109 1,1.73267 1.39999,2.38533c0.39999,0.65266 1.00803,1.66228 1.39868,2.384c0.3989,0.73694 0.77655,1.48544 1.116,2.23199c0.48001,1.05571 0.73669,1.73433 1.11066,2.74533c0.26151,0.70697 0.69577,1.88159 0.85867,2.308c0.34088,0.8922 0.69443,1.81462 0.86331,2.2825c0.49722,1.37752 0.77176,2.2612 0.89102,2.69101c0.2312,0.83331 0.43463,1.64757 0.595,2.85716c0.10553,0.79596 0.13641,1.58968 0.19199,2.364c0.05392,0.75102 0.25568,2.15398 0.39999,2.82133c0.14633,0.67665 0.41528,2.14726 0.45319,2.55733c0.07962,0.86139 0.10724,1.75725 0.117,2.65201c0.01385,1.27194 -0.0058,2.03624 0.01517,2.744c0.02991,1.01012 0.14587,2.02972 0.27332,2.74399c0.13095,0.73393 0.32816,1.44925 0.54935,2.78401c0.13736,0.82895 0.18103,1.62123 0.25067,2.18666c0.17285,1.40359 0.27026,1.8089 0.41599,2.6675c0.14902,0.87807 0.34256,2.1449 0.41599,2.90851c0.06711,0.69791 0.08948,1.6692 0.30536,2.8705c0.10788,0.60034 0.39578,1.45479 0.612,2.53349c0.14209,0.70894 0.18112,1.62677 0.388,2.58784c0.17239,0.80093 0.42599,1.569 0.69333,2.60815l0.08398,0.76801l0.00134,0.90268l0.03601,0.86398" id="svg_2" stroke-width="2" stroke="#000" fill="none"/>
  <path t="7221,7231,7231,7231,7239,7239,7256,7271,7271,7271,7290,7290,7305,7306,7306,7321,7321,7339,7339,7339,7356,7356,7356,7371,7372,7372,7388,7389,7389,7406,7406,7406,7421,7422,7437,7437,7437,7454,7454,7454,7470,7470,7470,7487,7504,7504,7520,7615,7631,7647,7654,7655,7670,7687,7704,7704,7721,7721,7721,7738,7738,7738,7754,7755,7770,7788,7788,7804,7805,7820,7837,7837,7854,7855,7870,7871,7871,7887,7888,7904,7904,7920,7920,7938,7938,7955,7955,7971,7971,7971,7988,7988,7988,8004,8004,8020,8020,8037,8037,8038,8054,8054,8055,8071,8087,8087,8088,8118,8118,8133,8133,8144,8144,8154,8155,8170,8193,8193,8193,8204,8204,8220,8220,8220,8237,8237,8237,8253,8253,8253,8269,8269,8269,8286,8286,8287,8287,8379" d="m335,258c9.88501,3.7355 10.75925,4.07788 11.29166,4.4375c0.866,0.58493 1.41879,1.18341 2.22919,1.58334c0.81152,0.40048 1.50717,0.99628 1.99515,1.58182c0.63818,0.76578 1.04434,1.6196 1.65067,2.23068c0.60049,0.60522 1.41281,0.99521 2.08069,1.82382c0.42062,0.52185 0.90851,1.35184 1.578,2.14282c0.51379,0.60703 1.14743,1.40417 1.56,2c0.4184,0.60428 1.14932,1.40961 1.86533,2c0.49323,0.40671 1.45709,1.16678 1.935,1.80002c0.43207,0.57251 0.91434,1.60001 1.21432,2.19998c0.39999,0.80002 0.88049,1.81393 1.23599,2.40002c0.49786,0.8208 1.01117,1.40936 1.57468,2c0.77579,0.81314 1.40363,1.38272 1.95334,2c0.69373,0.77896 1.14169,1.36316 1.47433,2.14282c0.42587,0.9982 0.43793,1.86954 0.88251,2.63632c0.48645,0.83899 1.49295,1.46661 1.04315,1.55951c-0.87067,0.17981 -1.52228,-0.77261 -2.26401,-1.186c-0.76367,-0.42563 -1.53961,-0.84692 -2.46664,-1.186c-0.81732,-0.29895 -1.83661,-0.323 -2.43784,-0.51932c-0.85757,-0.28003 -1.81427,-0.55234 -2.61017,-0.61133c-0.77402,-0.05737 -1.81601,-0.03601 -2.668,-0.03601c-0.94269,0 -1.95068,0 -2.74268,0c-0.85867,0 -1.72559,-0.07623 -2.62201,0.00449c-0.92975,0.08371 -1.78333,0.46658 -2.586,0.99551c-0.69583,0.45853 -1.3103,1.04254 -2.00266,1.38934c-0.74353,0.37244 -1.77002,0.51956 -2.564,0.66333c-1.00998,0.18289 -1.78113,0.59305 -2.79984,0.82599c-0.76886,0.17581 -1.61417,0.328 -2.42551,0.69601c-0.84329,0.38251 -1.62128,0.41998 -2.54132,0.42532c-0.78601,0.00458 -1.608,0 -2.66669,0c-0.93066,0 -1.76532,0 -2.76666,0c-0.79999,0 -1.80133,0 -2.42084,0c-1.14581,0 -1.93182,0 -2.75381,0c-1.05869,0 -1.76367,0 -2.73868,0c-0.87201,0 -1.82001,0 -2.73734,0c-0.74399,0 -1.78,0.00247 -2.63199,0c-0.77451,-0.00226 -1.73669,-0.02374 -2.51602,-0.28534c-0.78836,-0.26462 -1.73618,-0.89212 -2.29681,-1.41467c-0.73203,-0.68228 -1.32239,-1.45627 -1.7045,-2.13599c-0.315,-0.56036 -0.84058,-1.54614 -1.164,-2.36401c-0.31039,-0.78497 -0.37881,-1.61523 -0.52002,-2.48532c-0.16336,-1.00662 -0.43246,-1.8316 -0.56332,-2.41916c-0.26468,-1.18839 -0.32693,-2.08447 -0.34198,-2.65952c-0.03436,-1.31442 0.00754,-2.02377 -0.06784,-2.74582c-0.11884,-1.13831 -0.2955,-1.79102 -0.51752,-2.8035l-0.14133,-0.63333l-0.22232,-1.17734" id="svg_3" stroke-width="2" stroke="#000" fill="none"/>
  <path t="9748,9767,9767,9791,9807,9807,9822,9839,9839,9856,9872,9872,9889,9904,9904,9920,9937,9937,9954,9971,9971,10003,10031,10051,10067,10083,10083,10106" d="m369,258c1.82935,6.68799 1.98932,7.53583 2,8.41068c0.01111,0.91058 0,1.76398 0,2.70398c0,0.88535 0,1.68533 0,2.64252c0,0.89551 0,1.59015 0,2.61749c0,0.94666 0,1.79999 0,2.73999c0,0.88535 0,1.68533 0,2.64252c0,0.89551 0,1.59015 0,2.60684c0,0.93597 0,1.836 0,2.73599l0,0.89999l0,0.79999l0,0.90002" id="svg_4" stroke-width="2" stroke="#000" fill="none"/>
  <path t="11384,11447,11464,11464,11479,11487,11503,11520,11520,11537,11537,11554,11570,11570,11587,11603,11620,11637,11637,11653,11670,11670,11687,11703,11703,11730,11738,11770,11786,11802,11814,11838,11935,11935,12167,12207,12235,12243,12267,12287,12294,12303,12320,12337,12353,12353,12370,12387,12387,12403,12403,12403,12403,12420,12420,12437,12437,12437,12453,12473,12473,12473,12487,12487,12503,12503,12503,12520,12520,12520,12537,12537,12537,12553,12553,12553,12570,12571,12571,12587,12587,12603,12603,12603,12620,12620,12638,12638,12653,12654,12670,12670,12689,12690,12690,12703,12703,12723,12723,12737,12753,12770,12835,12843,12843,12859,12874,12888,12904,12904,12904,12921,12922,12938,12938,12938,12954,12954,12954,12971,12971,12988,12988,12988,12988,12988,13004,13004,13004,13004,13020,13021,13021,13038,13038,13038,13053,13054,13054,13070,13071,13071,13143" d="m245,299c1.2215,0.87866 2.12404,1.19308 2.7,1.7045c0.73227,0.65024 1.49522,1.00995 2.17883,1.51685c0.69572,0.51587 1.37094,0.63596 2.23584,1.064c0.7679,0.38004 1.26816,1.13226 1.98534,1.81448c0.58632,0.55774 1.50558,0.89743 1.95267,1.60468c0.42435,0.67126 1.04733,1.39551 1.64734,1.99551c0.69998,0.69998 1.30096,1.29901 1.89999,1.89999c0.69662,0.69885 1.16245,1.4263 1.45267,2.10001c0.36261,0.84177 0.83804,1.6391 1.37265,2.27466c0.5462,0.64935 1.21057,1.08481 1.65869,1.82666c0.42606,0.70529 1.24683,1.30664 1.63065,1.99866c0.45728,0.82449 -0.05771,1.8786 0.30618,2.67917c0.35147,0.77322 0.96021,1.22552 0.97916,2.12085c0.02042,0.96445 0.63589,1.45947 1.08401,2.20132c0.42606,0.70529 1.116,1.39868 1.71597,1.99866c0.60001,0.60001 1.32526,1.27783 1.836,1.87201c0.72235,0.84036 1.0061,1.34479 1.57468,2.07733c0.38074,0.49054 1.40076,1.42029 1.95334,1.86533c0.83981,0.67636 1.18033,1.22348 1.63467,1.90134c0.58707,0.87592 1.36798,1.65067 1.854,2.13669c0.52197,0.52197 1.32599,1.32599 1.84732,1.84732c0.66666,0.66666 1.34613,1.3176 1.84732,1.90451c0.65958,0.77243 1.02612,1.40689 1.40533,2.05264c0.56683,0.96524 1.07541,1.76648 1.422,2.3175c0.66388,1.05545 1.07602,1.76404 1.41467,2.41467c0.52286,1.00446 0.81064,1.61066 1.21066,2.41068c0.39999,0.79999 0.80432,1.59787 1.20001,2.39999c0.39362,0.79788 0.76376,1.58984 0.94733,2.60001c0.14426,0.79388 0.21869,1.62347 0.57352,2.37915c0.41626,0.88654 1.02576,1.48874 1.57916,2.34235c0.43826,0.67603 0.89996,1.6785 1.19998,2.2785c0.39999,0.79999 0.82846,1.58655 1.17917,2.37915c0.43546,0.98413 0.50171,1.71652 0.52084,2.62085c0.02039,0.96445 0.43884,1.64221 1.16666,2.23334c0.69669,0.56586 1.371,0.92783 2.33334,1.14581c0.87799,0.19888 1.72253,-0.07297 2.66666,0.1875c0.69174,0.19083 1.41968,0.63058 2.43784,0.77618c0.84567,0.12094 1.81726,0.03989 2.62085,0.06784c0.82281,0.02863 1.858,0.19498 2.53867,0.41464c0.84109,0.27145 1.84842,0.53763 2.54401,0.564c1.19119,0.04517 1.94531,0.01068 2.77866,0.01068c0.87332,0 1.74667,0 2.57999,0c1.11902,0 1.79169,0 2.73068,0c0.9025,0 1.79199,0 2.64551,0c1.03583,0 1.95715,0 2.64114,0c1.00134,0 1.83685,0 2.71735,0c0.89832,0 1.77734,0 2.58432,0l1.04236,-0.00134" id="svg_5" stroke-width="2" stroke="#000" fill="none"/>
  <path t="13939,14087,14087,14111,14127,14139,14155,14155,14178,14178,14194,14194,14206,14222,14242,14254,14270,14287,14303,14303,14320,14320,14320,14337,14353,14353,14370,14370,14387,14387,14403,14403,14403,14420,14420,14437,14437,14453,14453,14471,14487,14487,14487,14503,14503,14503,14520,14520,14537,14538,14538,14553,14553,14570,14570,14570,14587,14587,14603,14603,14603,14620,14637,14637,14637,14637,14653,14653,14671,14671,14687,14687,14703,14724,14724,14738,14738,14753,14753,14770,14770,14786,14802,14803,14819,14819,14836,14858,14858,14926,14943,14955,14970,14987,14987,15003,15021,15037,15053,15138,15139,15159,15174,15187,15203,15224,15224,15242,15242,15347" d="m370,294c1,1 1.10608,1.78812 1.5,2.5c0.49023,0.88596 0.5,1.79999 0.5,2.70132c0,0.68402 0,1.63467 0,2.39999c0,0.99417 0,1.91336 0,2.87784c0,0.92084 0.16699,1.83673 -0.00134,2.71951c-0.14441,0.75735 -0.95499,1.24835 -0.99899,2.12283c-0.03519,0.69968 -0.29578,1.70419 -0.85034,2.46783c-0.41696,0.57416 -0.91156,1.51468 -1.37082,2.31067c-0.38495,0.66718 -1.12427,1.16803 -1.57849,1.78534c-0.6716,0.91275 -0.91617,1.56976 -1.30002,2.53583c-0.31323,0.78836 -0.54971,1.59402 -0.99982,2.436c-0.41882,0.78348 -0.76669,1.63651 -0.92551,2.31747c-0.25403,1.08929 -0.85019,1.56067 -1.47467,2.367c-0.57333,0.7403 -0.76581,1.48215 -1.13599,2.20767c-0.48166,0.944 -1.04208,1.41061 -1.71133,1.99884c-0.79922,0.70245 -1.24838,1.45923 -1.65268,2.25183c-0.4064,0.79675 -0.70001,1.39999 -1.20001,2.39999c-0.29999,0.60001 -0.79999,1.60001 -1.19998,2.39999c-0.30002,0.60001 -0.80002,1.60001 -1.10001,2.20001c-0.5,1 -0.9335,1.77112 -1.21466,2.51468c-0.32248,0.85284 -0.59937,1.82986 -0.99518,2.49066c-0.45374,0.75748 -0.82867,1.21106 -1.5285,2.18481c-0.49008,0.68192 -0.68988,1.65393 -0.84567,2.41116c-0.20755,1.0087 -0.6373,1.5235 -0.85883,2.64603c-0.17834,0.90366 0.09183,1.61609 -0.22382,2.586c-0.2757,0.8472 -0.711,1.65784 -0.85867,2.34131c-0.20587,0.95294 -0.69836,1.62137 -1.02734,2.58252c-0.30719,0.89755 -0.66238,1.63071 -0.82584,2.44266c-0.19153,0.95145 0.05502,1.96747 -0.28815,2.80017c-0.27646,0.67087 -0.66415,1.60028 -1.19052,2.2955c-0.50592,0.66821 -1.34912,0.93402 -1.80948,1.7045c-0.4299,0.71948 -1.44186,0.82007 -2.12885,1.35718c-0.74387,0.5816 -0.97455,1.4165 -1.8045,1.86417c-0.64764,0.34933 -1.49994,0.77332 -2.39999,0.77866c-0.89996,0.00534 -1.84317,-0.11667 -2.60016,0.22134c-0.715,0.31924 -1.55252,0.72598 -2.41583,0.86267l-0.84802,0.34131" id="svg_6" stroke-width="2" stroke="#000" fill="none"/>
  <path t="16120,16503,16523,16547,16571,16571,16583,16599,16675,16690,16711,16711,16719,16739,16755,16755,16771,16788,16788,16803,16803,16820,16837,16837,16853,16853,16870,16887,16887,16887,16903,16903,16903,16920,16937,16937,16937,16953,16953,16953,16970,16970,16987,16987,16987,17003,17020,17020,17037,17037,17053,17070,17087,17103,17103,17120,17120,17137,17153,17153,17170,17170,17187,17187,17187,17203,17203,17220,17237,17253,17253,17270,17270,17287,17287,17287,17303,17320,17320,17374,17374,17386" d="m297,371c1.22134,0.87866 1.87131,1.3652 2.00134,2.20001c0.14261,0.91547 0.8085,1.4541 0.98798,2.39999c0.16779,0.88428 -0.17239,1.89587 0.29602,2.59866c0.53012,0.79532 1.50925,0.89459 2.21466,1.30133c0.79404,0.45782 1.64084,0.88116 2.29999,1.216c0.78418,0.39835 1.86343,0.23117 2.60452,0.34116c1.00867,0.14972 1.72479,0.63742 2.71014,0.85751c0.86804,0.19391 1.65546,0.10583 2.53802,0.43799c0.70621,0.26578 1.60727,0.55789 2.68066,0.814c0.68243,0.16281 1.44232,0.45102 2.5,0.66669c0.69974,0.14267 1.53152,0.15253 2.54132,0.59198c0.81693,0.3555 1.4715,0.55487 2.31201,0.57333c0.99707,0.02191 1.8186,-0.02615 2.62933,0.08667c1.00876,0.14038 1.87537,0.52109 2.68399,0.91467c0.79138,0.38519 1.51205,0.72385 2.5,1c0.81921,0.22897 1.64661,0.66306 2.47849,0.87851c0.80246,0.20782 1.72159,0.13168 2.62152,0.12149c0.92102,-0.01044 1.90234,-0.24896 2.57465,-0.61066c0.82864,-0.4458 1.52411,-1.06531 1.82535,-1.91019c0.27893,-0.78232 0.47195,-1.5098 1.10001,-2.45798c0.37198,-0.56161 0.91281,-1.34903 1.29999,-2.27185c0.31036,-0.73975 0.74332,-1.58014 1.164,-2.328c0.44788,-0.79623 0.436,-1.72131 0.436,-2.62399c0,-0.76801 0,-1.80716 0,-2.58267c0,-1.048 -0.09427,-1.76569 0.05716,-2.55301c0.18054,-0.93863 0.77618,-1.82831 0.922,-2.66165l0.02084,-0.83334l0,-0.86215l-0.05716,-0.94733" id="svg_7" stroke-width="2" stroke="#000" fill="none"/>
  <path t="21728,21742,21742,21742,21742,21758,21762,21762,21770,21786,21786,21803,21804,21804,21820,21820,21821,21836,21836,21836,21836,21854,21854,21854,21870,21870,21870,21886,21886,21903,21904,21904,21920,21921,21921,21937,21937,21937,21982,21990" d="m272,265c-4.61401,8.34933 -5.06613,9.19818 -5.41666,9.83334c-0.37253,0.67505 -0.99246,1.52209 -1.68317,2.26666c-0.55035,0.59326 -0.77942,1.46606 -1.26184,2.2045c-0.42822,0.65546 -1.13339,1.17294 -1.65918,1.73715c-0.59161,0.63483 -1.38104,1.64096 -1.77914,2.18369c-0.40192,0.54791 -1.19022,1.6163 -1.60001,2.08932c-0.58624,0.67667 -1.19342,1.29065 -2,2.08401c-0.59518,0.58542 -0.96664,0.98932 -2,1.71732c-0.58237,0.41028 -1.24472,0.71365 -2.19551,1.54117c-0.5985,0.5209 -1.26065,1.32788 -1.64732,1.94284c-0.3688,0.58658 -0.83282,1.6134 -1.278,2.39999c-0.34578,0.61099 -0.96184,1.39999 -1.45834,2l-0.45149,0.60001l-0.455,0.98648l-0.11433,0.90552" id="svg_8" stroke-width="2" stroke="#000" fill="none"/>
  <path t="22432,22446,22446,22446,22446,22446,22455,22455,22455,22455,22455,22471,22471,22486,22486,22487,22514,22514,22534,22534,22550,22558,22574,22590,22604,22722,22799,22823,22839,22843,22843,22853,22870,22886,22903,22920,22920,22936,22953,22970,22970" d="m248,257c-4.16667,12.83334 -4.58226,14.29312 -4.72316,14.87033c-0.22432,0.91895 -0.33769,1.65076 -0.61017,2.62967c-0.21091,0.75769 -0.51666,1.56558 -0.81601,2.388c-0.28204,0.77487 -0.6862,1.97217 -0.86533,2.74133c-0.21243,0.9122 -0.43141,1.62646 -0.63268,2.42249c-0.25792,1.02011 -0.34224,1.90637 -0.35266,2.92667c-0.00838,0.82016 0,1.62152 0,2.52151c0,0.89999 -0.01067,1.88934 -0.5,2.5c-0.48933,0.61066 -0.55296,1.53476 -0.14734,2.29999c0.44841,0.84595 0.85904,1.67175 1.222,2.30002c0.48856,0.84564 1.0379,1.40018 1.47801,2.10449c0.42084,0.67346 1.04964,1.39322 1.64732,1.99551c0.692,0.69733 1.17867,1.39999 1.46667,2.29999l0.40799,0.60001" id="svg_9" stroke-width="2" stroke="#000" fill="none"/>
  <path t="23900,23911,23911,23922,23922,23938,23938,23955,23955,23972,23972,24023,24039,24047,24047,24054,24070,24086,24103,24103,24120,24120,24136,24136,24136,24153,24153,24153,24170,24170,24170,24186,24186,24186,24203,24203,24203,24203,24220,24220,24220,24220,24236,24236,24236,24236,24253,24253,24253,24253,24271,24271,24271,24271,24286,24286,24286,24286,24303,24303,24303,24303,24303,24320,24320,24320,24320,24336,24336,24336,24336,24353,24353,24353,24353,24370,24370,24370,24370,24386,24386,24386,24386,24386,24403,24403,24403,24403,24423,24423,24423,24443,24453" d="m239,295c-1.0625,-0.233 -1.7774,0.17194 -2.66667,0.83334c-0.67503,0.50208 -1.51675,0.89529 -2.13333,1.336c-0.75082,0.53665 -1.03438,1.40564 -1.84816,2.07349c-0.60722,0.49835 -1.43286,1.15869 -1.34734,2.05716c0.07854,0.82516 0.84135,1.46686 0.98483,2.30002c0.15276,0.88699 0.01067,1.81067 0.01067,2.7215c0,0.88916 0.04736,1.88116 -0.02083,2.6785c-0.08612,1.0069 -0.3353,1.60492 -0.68367,2.45715c-0.39433,0.96466 -0.69218,1.76941 -0.89551,2.3175c-0.3936,1.06107 -0.75391,1.75238 -1.04283,2.67801c-0.2971,0.95184 -0.31577,1.78491 -0.40984,2.65182c-0.0974,0.89746 -0.29727,1.80197 -0.46815,2.41635c-0.26917,0.96771 -0.58649,1.99854 -0.77467,2.73181c-0.1913,0.74542 -0.3833,1.48898 -0.53783,2.58069c-0.14293,1.0098 -0.15497,1.6665 -0.16534,2.65067c-0.01094,1.03726 -0.00133,1.76865 -0.00133,2.51599c0,0.74734 0,2.17868 0,2.84732c0,0.97803 0,1.63669 0,2.67419c0,0.73566 0,1.49933 0,2.28299c0,1.1955 0,1.99548 0,2.7955c0,0.79999 0,1.60001 0,2.79984c0,0.79565 -0.00006,1.96417 0,2.71481c0.00009,1.06403 -0.01631,1.73355 0.036,2.71069c0.03531,0.65958 0.18011,1.69714 0.38934,2.81064c0.14569,0.77539 0.32024,1.56171 0.45332,2.76401c0.08835,0.7981 0.10976,1.60086 0.17401,2.39999c0.0966,1.20154 0.16089,1.60132 0.29999,2.40002c0.13956,0.80139 0.32599,1.59555 0.48067,2.79999c0.10208,0.79495 0.14388,1.57837 0.16217,2.68567c0.0162,0.98087 0.0045,1.7955 0.0045,2.64816l0,1.00885l-0.08533,-0.14536" id="svg_10" stroke-width="2" stroke="#000" fill="none"/>
  <path t="25293,25299,25299,25299,25308,25308,25308,25322,25322,25339,25353,25353,25353,25370,25370,25370,25386,25386,25406,25406,25424,25424,25424,25435,25435,25436,25452,25452,25469,25469,25486,25486,25486,25486,25502,25502,25502,25502,25519,25519,25519,25519,25520,25520,25520,25536,25536,25536,25536,25536,25552,25552,25552,25553,25569,25569,25585,25585,25585,25585,25602,25602,25602,25602,25602,25619,25619,25619,25619,25635,25635,25636,25636,25652,25653,25653,25669,25669,25669,25669,25685,25685,25703,25703,25703,25703,25719,25719,25720,25736,25736,25736,25736,25752,25753,25753,25770,25770,25770,25786,25786,25803,25803,25803,25819,25820,25820,25835,25835,25836,25853,25871,25871,25886,25886,25903,25903,25920,25920,25935,25953,25970,25986,25986,26003,26019,26019,26035,26035,26053,26053,26070,26070,26086,26086,26103,26119,26135,26162,26174,26190,26203,26220,26220,26236,26236,26253,26253,26253,26269,26269,26269,26286,26286,26286,26303,26303,26303,26319,26320,26320,26320,26335,26336,26353,26353,26353,26370,26385,26386,26403,26419,26435,26436,26452,26472,26472,26488,26505,26505,26521,26536,26536,26552,26570,26570,26586,26586,26603,26603,26620,26620,26658,26706,26722,26738,26746,26754,26754,26770,26785,26803,26803,26803,26819,26820,26835,26835,26853,26853,26853,26869,26870,26870,26888,26903,26903,26979,26980" d="m171,260c-0.2215,9.88535 -0.289,10.76135 -0.61067,11.56534c-0.40598,1.01471 -0.8054,1.67676 -1.03217,2.42932c-0.30864,1.02429 -0.35641,1.80267 -0.35716,2.67734c-0.00075,0.871 -0.00012,1.87137 -0.05716,2.43701c-0.12057,1.19583 -0.36888,2.06949 -0.5175,2.61899c-0.30528,1.12878 -0.42308,2.02017 -0.42534,2.93365c-0.00197,0.80002 -0.01729,1.7601 0.01067,2.56369c0.02863,0.82281 0.19501,1.858 0.41467,2.53867c0.27145,0.84109 0.48318,1.84207 0.62733,2.63599c0.18365,1.01147 0.48428,1.61423 0.94733,2.76666c0.20726,0.51581 0.50282,1.35324 0.8,2.23468c0.30289,0.89835 0.61125,1.83823 0.8,2.54266c0.21275,0.79404 0.40492,1.72174 0.60133,2.79333c0.10582,0.57733 0.20122,1.17618 0.43466,2.39734c0.11711,0.61261 0.20129,1.22781 0.68533,2.90067c0.14809,0.51178 0.49539,1.44958 0.85333,2.29666c0.16862,0.39908 0.81502,1.84198 1.06366,2.50635c0.23059,0.61612 0.51515,1.46768 0.67767,2.47766c0.14551,0.90424 0.22919,1.8562 0.44566,2.65015c0.16386,0.60098 0.5193,1.60797 0.95967,2.77652c0.16058,0.42612 0.50438,1.30783 0.85333,2.20667c0.17285,0.44525 0.66272,1.71582 0.94,2.47998c0.25304,0.69733 0.58081,1.66168 0.88533,2.57068c0.29999,0.89551 0.48549,1.4845 0.8,2.31467c0.38246,1.00946 0.72224,1.69763 1,2.45468c0.43524,1.18631 0.59784,1.88193 0.8,2.57999c0.19789,0.68329 0.55043,1.90451 0.92082,2.60901c0.57034,1.08484 1.13632,1.64618 1.5,2.0625c0.58047,0.66452 1.38873,1.65692 1.76851,2.21515c0.38588,0.5672 1.05296,1.75986 1.32666,2.36267c0.39711,0.87466 0.5697,1.48389 1.20534,2.47983c0.45775,0.71722 1.06456,1.28821 1.65717,2.12152c0.4133,0.58118 0.82069,1.39972 1.2215,2.19998c0.40054,0.79974 0.80971,1.59528 1.2,2.41068c0.30771,0.64285 0.7029,1.60959 1,2.41467c0.30295,0.82092 0.70007,1.85291 0.98933,2.52798c0.32559,0.75989 0.5838,1.74686 0.61084,2.56818c0.02928,0.8894 0.21002,1.88239 0.49983,2.65765c0.32106,0.85889 0.49466,1.64612 0.5,2.50485c0.00536,0.86328 0,1.88 0,2.716c0,0.89999 0,1.79999 0,2.59998c0,0.95718 0.0005,1.85718 0,2.60452c-0.00067,0.99548 0.05472,1.81668 -0.2215,2.79532c-0.22676,0.80344 -0.74347,1.66223 -1.2785,2.27933c-0.65762,0.75848 -1.32997,1.29013 -1.48933,2.12085c-0.18184,0.94785 -0.85448,1.38895 -1.00934,2.20132c-0.16861,0.88449 0.47452,1.76251 1.29868,2.146c0.76685,0.35681 1.4408,0.75357 2.35716,1.00452c0.73672,0.20175 1.74686,0.61383 2.36366,1.069c0.66743,0.49255 1.38863,0.98349 2.2045,1.34317c0.81102,0.35754 1.85791,0.7254 2.53868,1.03598c0.63606,0.29019 1.63156,0.81561 2.27766,1.10001c0.7215,0.3176 1.92572,0.70212 2.60899,0.89999c0.69804,0.20215 1.39561,0.35956 2.57867,0.80002c0.73875,0.27505 1.77443,0.79263 2.36617,1.09998c0.75224,0.39072 1.55746,1.1524 2.4045,1.53336c0.65532,0.29471 1.66757,0.24402 2.39999,-0.26935c0.7901,-0.55377 1.30002,-1.26401 1.90001,-1.86398c0.70001,-0.70001 1.27939,-1.30692 2.09999,-1.67468c0.78386,-0.35129 1.46364,-0.84711 2.42534,-0.98932c0.99779,-0.14755 1.76401,-0.03601 2.6955,-0.03601c0.96451,0 1.68993,-0.01306 2.679,0.00015c0.77954,0.01041 1.75833,0.26163 2.42551,0.57452c0.83614,0.39215 1.72198,0.42389 2.73866,0.42532c0.83467,0.00116 1.60741,-0.35571 1.636,-1.20001c0.03047,-0.89948 0,-1.79999 0,-2.59998c0,-0.90002 -0.0014,-1.8815 -0.56934,-2.68533c-0.40419,-0.57208 -0.98357,-1.09055 -1.54533,-1.91336c-0.5078,-0.74374 -1.02585,-1.55225 -1.48534,-2.26266c-0.55038,-0.85095 -0.79649,-1.60132 -1.09999,-2.39047c-0.39546,-1.02829 -0.65907,-1.72449 -1.10001,-2.46152c-0.45467,-0.75998 -1.03333,-1.65332 -1.164,-2.31201l-0.036,-1.008l-0.08533,-0.88" id="svg_11" stroke-width="2" stroke="#000" fill="none"/>
  <path t="28676,28735,28748,28772,28789,28806,28806,28822,28822,28839,28839,28855,28855,28855,28872,28872,28889,28889,28906,28906,28906,28923,28923,28939,28939,28939,28955,28955,28955,28972,28972,28988,28988,28988,29006,29006,29006,29022,29022,29022,29038,29038,29038,29055,29055,29072,29130,29146,29146,29162,29174,29188,29205,29221,29221,29239,29239,29255,29255,29271,29289,29289,29305,29321,29321,29338,29338,29338,29356,29356,29372,29372,29388,29388,29388,29405,29405,29405,29423,29423,29423,29423,29436,29436,29436,29456,29456,29456,29471,29471,29471,29489,29489,29489,29507,29507,29522,29538,29539,29555,29555,29555,29572,29572,29588,29588,29588,29603,29603,29621,29621,29621,29638,29638,29639,29655,29655,29672,29672,29672,29689,29689,29689,29705,29705,29705,29721,29721,29721,29739,29739,29739,29756,29772" d="m167,276c-1.7,0 -2.60001,0 -3.5,0c-0.91066,0 -1.8215,0 -2.71066,0c-0.98917,0 -1.76851,0 -2.76817,0c-0.6825,0 -1.7905,0 -2.54199,0c-0.79651,0 -1.79384,0.00006 -2.6685,0c-1.01067,-0.00009 -1.82582,0.05991 -2.81067,-0.16666c-0.61349,-0.14114 -1.40088,-0.53604 -2.39999,-1.03336c-0.60054,-0.29892 -1.59674,-0.80664 -2.20451,-1.09998c-0.84821,-0.40936 -1.81783,-0.79697 -2.61015,-1.10001c-0.77666,-0.29703 -1.67799,-0.65195 -2.26451,-1.12085c-0.73676,-0.58899 -1.33846,-1.32526 -1.92532,-1.82648c-0.77232,-0.65964 -1.42342,-1.0011 -1.9955,-1.46252c-0.84456,-0.68118 -1.40001,-1.45148 -1.8,-1.97549c-0.79999,-1.048 -1.20882,-1.51819 -1.75833,-2.173c-0.72368,-0.86237 -1.14267,-1.50177 -1.68901,-2.09433c-0.63557,-0.68936 -1.35266,-0.94733 -2.15266,-0.94733c-0.89999,0 -1.81961,0.00195 -2.6,-0.42532c-0.82257,-0.45038 -1.71534,-0.48438 -2.48533,-0.66c-0.79368,-0.18103 -1.62772,-0.7204 -2.362,-1.21017c-0.63415,-0.42297 -1.61604,-0.53638 -2.58601,-0.87115c-0.68701,-0.23712 -1.47049,-0.78976 -2.48817,-0.8335c-0.699,-0.03003 -1.68326,-0.15222 -2.4785,-0.42517c-0.80507,-0.27631 -1.80465,-0.49127 -2.6,-0.62735c-0.8059,-0.13789 -1.60188,-0.46425 -2.6,-0.94733c-0.60565,-0.29314 -1.44441,-0.70302 -2.42167,-0.87866c-0.81747,-0.14691 -1.42961,-0.10873 -2.745,-0.28801c-0.71912,-0.09801 -1.45245,-0.25185 -2.172,-0.444c-1.33704,-0.35704 -1.90189,-0.56364 -2.84,-0.98933c-0.83191,-0.3775 -1.62125,-0.80016 -2.22134,-1.09999c-1.0012,-0.50027 -1.61459,-0.81424 -2.28533,-1.10001c-0.98857,-0.42117 -1.80923,-0.66397 -2.54533,-1c-0.98237,-0.44846 -1.64226,-0.953 -2.59467,-1.17467c-0.99941,-0.2326 -1.64822,-0.58562 -2.49617,-1.12534c-0.67965,-0.43259 -1.2797,-0.70026 -2.2785,-1.2c-0.59992,-0.30016 -1.6,-0.8 -2.4,-1.2c-0.6,-0.3 -1.5895,-0.83395 -2.236,-1.064c-0.91279,-0.3248 -1.7183,-0.36768 -2.53867,-0.46133c-1.06117,-0.12114 -1.98113,-0.42488 -2.62083,-0.62201c-0.99461,-0.30649 -1.84045,-0.34732 -2.77116,-0.35266c-0.78599,-0.0045 -1.608,0 -2.66667,0c-0.94133,0 -1.61933,0 -2.58817,0c-0.8145,0 -1.683,0 -2.87833,0c-0.59566,0 -1.46416,0 -2.5335,0c-0.92,0 -1.68,0 -2.756,0l-0.81067,0" id="svg_12" stroke-width="2" stroke="#000" fill="none"/>
  <path t="31488,31495,31495,31495,31505,31505,31538,31538,31557,31557,31557,31557,31575,31575,31575,31575,31585,31585,31585,31606,31606,31618,31618,31639,31639,31639,31653,31653,31668,31668,31668,31688,31688,31688,31705,31706,31719,31719,31740,31740,31740,31752,31753,31768,31768,31786,31786,31805,31805,31818,31818,31819,31835,31852,31853,31868,31868,31868,31885,31885,31885,31902,31918,31918,31918,31935,31935,31935,31953,31953,31953,31969,31969,31986,31986,31986,32002,32002,32018,32019,32019,32035,32035,32035,32052,32052,32068,32069,32069,32085,32085,32085,32086,32102,32102,32103,32118,32118,32118,32118,32136,32136,32136,32152,32152,32168,32168,32168,32185,32185,32185,32202,32202,32203,32218,32218,32236,32236,32252,32253,32253,32268,32268,32285,32285,32286,32302,32318,32318,32318,32319,32335,32335,32335,32352,32352,32368,32368,32388,32388,32388,32403,32403,32403,32419,32419,32419,32438,32438,32454,32454,32454,32468,32469,32486,32486,32486,32503,32503,32518,32519,32536,32536,32553,32553,32553,32569,32569,32586,32586,32586,32602,32603,32619,32619,32619,32619,32635,32636,32636,32653,32669,32669,32686,32686,32703,32703,32719,32719,32719,32736,32753,32753,32769,32769,32785,32802,32803,32818,32819,32835,32836,32853,32853,32868,32886,32886,32903,32903,32919,32919,32936,32936,32953,32953,32971,32971,32986,32986,33004,33004,33020,33020,33037,33054,33054,33090,33203" d="m33,70c2.00983,-0.70983 2.51635,-1.02809 3.31733,-1.51733c0.99054,-0.60503 1.61584,-1.00622 2.516,-1.316c0.84494,-0.29078 1.67091,-0.49037 2.53367,-0.8765c0.67809,-0.30347 1.38266,-0.6572 2.46633,-1.1235c0.67598,-0.29087 1.32209,-0.52515 2.205,-0.86217c1.04267,-0.398 1.72864,-0.69835 2.56033,-1.1045c0.80425,-0.39275 1.58005,-0.84203 2.60133,-1.07867c0.78827,-0.18265 1.81385,-0.24992 2.6,-0.55733c0.6122,-0.23939 1.61397,-0.74038 2.2,-1.08483c1.02628,-0.60321 1.57579,-1.15854 2.2,-1.61784c0.77206,-0.56808 1.6069,-0.7659 2.4,-0.944c1.01064,-0.22696 1.78441,-0.62775 2.6,-0.79583c0.78971,-0.16275 1.80106,-0.08962 2.6,-0.13216c0.80234,-0.04272 1.78738,-0.37884 2.6,-0.63667c0.98541,-0.31266 1.76395,-0.34733 2.716,-0.35266c0.76799,-0.0043 1.73067,0 2.57067,0c0.99599,0 1.7925,0 2.544,0c1.108,0 2.09084,0 2.79017,0c0.97916,0 1.78983,0 2.6645,0c0.99733,0 1.79383,0 2.54533,0c1.11867,0 2.10267,0 2.77917,0c0.7755,0 1.8235,0 2.76483,0c0.678,0 1.90933,0 2.72533,0c0.54733,0 1.81682,-0.03601 2.47916,0.02083c1.02742,0.08818 1.80408,0.45561 2.62083,0.69517c0.98817,0.28983 1.63596,0.27867 2.82133,0.284c0.80399,0.00362 1.626,0 2.65717,0c0.6855,0 1.52071,-0.02877 2.526,0.0045c0.85383,0.02826 1.8175,0.21486 2.6315,0.42083c0.86903,0.2199 1.76109,0.43531 2.664,0.5175c0.59863,0.05449 1.5,0.0565 2.70133,0.05717c0.60934,0.00034 1.55583,-0.00094 2.56533,0c0.716,0.00067 1.81393,-0.00069 2.52351,0.05717c0.97936,0.07986 1.78764,0.32081 2.70083,0.59017c1.00117,0.29531 1.8091,0.33483 2.80917,0.35283c0.8208,0.01478 1.49122,0.05681 2.48517,0.28383c0.84131,0.19215 1.7101,0.46896 2.61433,0.5945c0.87476,0.12145 1.686,0.11925 2.731,0.1215c0.85199,0.00183 1.81599,0 2.431,0c1.22234,0 1.76366,-0.00043 2.58566,0c1.26733,0.00067 1.94846,-0.0677 2.95267,0.16667c0.8089,0.18879 1.49132,0.66845 2.54167,0.8125c0.94966,0.13024 1.82083,0.02083 2.47916,0.02083c0.67834,0 1.93617,0 2.70717,0c0.86934,0 1.87201,0 2.672,0c1,0 1.80008,-0.0125 2.80017,0.00017c0.82086,0.0104 1.49123,0.05681 2.48517,0.28383c0.84129,0.19215 1.71002,0.46946 2.6145,0.5945c0.88518,0.12237 1.74309,0.10745 2.77867,0.12167c0.90082,0.01236 1.92656,0.15087 2.5215,0.3525c0.80742,0.27364 1.80348,0.54029 2.59999,0.67267c1.00523,0.16706 1.78828,0.51049 2.40001,0.69067c0.98459,0.29 1.81583,0.27654 2.79999,0.568c0.81613,0.2417 1.80092,0.58882 2.60001,0.716c1.00119,0.15935 1.79041,0.45323 2.39999,0.64733c0.98788,0.31455 1.84267,0.33953 2.76668,0.51933c0.78853,0.15344 1.56017,0.45547 2.69083,0.71201c0.65762,0.14921 1.64508,0.27668 2.505,0.4785c0.66042,0.155 1.34892,0.3103 2.59433,0.74266c0.76874,0.26688 1.55264,0.62373 2.54317,0.90017c0.81949,0.22871 1.49681,0.58136 2.5,0.83334c0.77597,0.19491 1.83905,0.09904 2.66133,0.20267c0.89354,0.1126 1.58534,0.40318 2.33333,0.61133c1.02953,0.2865 2.00534,0.35267 2.76251,0.35267c0.89549,0 1.75883,-0.00066 2.74283,0c0.98534,0.00067 1.72839,-0.04157 2.69983,0.22134c0.79892,0.21622 1.63905,0.59039 2.42551,0.80399c0.86542,0.23505 1.69171,0.73891 2.62199,0.9175c0.9046,0.17367 1.78415,-0.04588 2.586,0.22383c0.84444,0.28403 1.64935,0.7813 2.37733,0.82267c0.98763,0.05613 1.81059,-0.11808 2.76801,0.232c0.82976,0.30341 1.68593,0.66544 2.36867,0.83133c0.92325,0.22433 1.50539,0.8014 2.30983,1.24284c0.72247,0.39645 1.75208,0.56244 2.50684,0.72983c1.10065,0.24409 1.836,0.80801 2.536,0.97017l0.94284,0.06167l0.52383,0.77617" id="svg_13" stroke-width="2" stroke="#000" fill="none"/>
  <path t="36237,36243,36243,36243,36243,36243,36243,36243,36243,36243,36254,36254,36254,36254,36254,36254,36269,36285,36286,36302,36302,36319,36319,36335,36336" d="m64,244c-0.83333,2.33333 -1.10634,3.09901 -1.42133,3.97734c-0.34596,0.96469 -0.7146,1.98849 -1.0995,3.04349c-0.3871,1.06102 -0.76781,2.10097 -1.1445,3.0885c-0.65894,1.72748 -0.94172,2.41405 -1.19333,2.98c-0.20699,0.46558 -0.35824,0.8577 -0.558,1.11902c-0.58133,0.76047 -1.61524,0.91815 -2.18333,1.40231c-0.75018,0.63931 -1.28534,1.18933 -2.05267,1.68933l-0.69466,0.40002l-0.8955,0.59998l-0.55584,0.5" id="svg_14" stroke-width="2" stroke="#000" fill="none"/>
  <path t="41012,41023,41023,41023,41023,41023,41023,41023,41038,41038,41038,41038,41038,41057,41057,41070,41070,41070,41070,41070,41087,41087,41087,41087,41087,41103,41104,41104,41104,41104,41104,41120,41120,41120,41120,41120,41137,41137,41137,41137,41153,41153,41153,41153,41153,41170,41170,41170,41170,41187,41187,41203,41203,41271,41287,41308,41321,41321,41337,41337,41352,41352,41352,41369,41369,41369,41386,41386,41386,41402,41402,41402,41402,41418,41419,41435,41436,41436,41452,41452,41468,41469,41486,41486,41502,41502,41519,41519,41536,41536,41536,41536,41552,41552,41569,41569,41586,41586,41586,41586,41601,41602,41602,41619,41619,41619,41619,41635,41636,41636,41652,41652,41669,41669,41686,41686,41702,41702" d="m370,251c2.64984,0.22166 3.19312,0.27831 4.40933,0.44667c0.65381,0.09052 1.32227,0.19452 1.9935,0.315c0.66617,0.11957 2.51462,0.5471 3.05185,0.72232c0.97702,0.31866 1.8082,0.66455 2.48398,1.03201c1.03156,0.56093 1.5394,1.01816 2.56134,1.65067c0.54492,0.33727 1.2063,0.67262 1.93201,1.04399c0.77023,0.39417 1.96677,0.99249 2.77701,1.38934c0.41156,0.20157 1.25806,0.61127 2.16165,1c0.95761,0.41199 1.9964,0.80124 2.53467,0.99548c0.54437,0.19644 1.64273,0.57245 2.18933,0.74734c1.56842,0.50183 2.05927,0.64603 2.98651,0.89551c0.85376,0.22971 1.64752,0.43152 2.75217,0.595c0.6814,0.10086 1.35165,0.14435 2.3765,0.16217c1.12335,0.01953 1.95822,0.00052 2.84082,0.01517c0.4494,0.00745 1.34839,0.00391 2.616,0.15598c0.76486,0.09177 1.7691,0.34064 2.36719,0.48068c1.0416,0.2439 1.92435,0.34222 2.94464,0.35266c0.82016,0.00839 1.87506,0.04486 2.02017,0.80133c0.18005,0.93872 0.05453,1.86215 -0.05582,2.60318c-0.15045,1.01016 -0.54922,1.79761 -0.94284,2.59549c-0.39569,0.80212 -0.694,1.40302 -1.20132,2.40134c-0.3158,0.62143 -0.66721,1.29428 -1.284,2.28265c-0.34146,0.54721 -0.89835,1.37958 -1.51468,2.14935c-0.58078,0.72534 -1.19781,1.35812 -1.60001,1.76532c-0.79437,0.80429 -1.37915,1.38049 -2.23334,2.23468c-0.54132,0.54132 -1.05066,1.05066 -1.81934,1.81934c-0.52197,0.52197 -1.18057,1.18076 -1.82648,1.82648c-0.62091,0.62076 -1.2536,1.24866 -2.17801,1.46817c-0.73431,0.17438 -1.74823,0.32779 -2.57883,0.66333c-0.93536,0.37787 -1.71286,0.69659 -2.26401,0.8685c-0.81079,0.2529 -2.04172,0.48343 -2.68933,0.51016c-1.01004,0.04169 -1.84125,-0.03119 -2.97733,0.17734c-0.79977,0.14682 -1.35593,0.34879 -2.23468,0.63467c-0.90048,0.29297 -1.79352,0.60684 -2.39865,0.76266c-1.19101,0.3067 -2.09943,0.3905 -2.70001,0.41516c-0.89944,0.03696 -2.09866,0.02084 -2.68933,0.02084c-0.85352,0 -2.12534,0 -2.78983,0c-1.02084,0 -1.81018,0 -2.85419,0l-0.79199,0l-0.85733,-0.00134l-0.8075,-0.05582" id="svg_15" stroke-width="2" stroke="#000" fill="none"/>
 </g>
 <g display="none">
  <title>muse_image</title>
  <image xlink:href="http://farm1.static.flickr.com/79/230640742_63d3ad7408.jpg" id="muse" height="480" width="319" y="0" x="160.5"/>
 </g>
 <g display="none">
  <title>bbox</title>
  <rect stroke="#f00" fill="none" stroke-width="3" height="327.36" width="298.88288" y="111.36" x="163.37387" id="bbox"/>
 </g>
</svg>
