<svg width="640" height="480" xmlns="http://www.w3.org/2000/svg" xmlns:svg="http://www.w3.org/2000/svg" xmlns:xlink="http://www.w3.org/1999/xlink">
 <!-- Sketchy ANNOTATION
  ImageNet ID: n02395406_16380
  URL: http://farm2.static.flickr.com/1164/1151210978_7be7886beb.jpg
  Image Width: 500
  Image Height: 375
  BBox X: 27
  BBox Y: 30
  BBox Width: 401
  BBox Height: 293
  Exposure: 2000ms
  Synset Label: pig
  Synset ID: n02395406
  Worker Tag: Pig
  Sanity Check: 
   Context
   Saved
   Shading
  Comment: 
   {}
  Worker ID: AIH9VLD92GHFH
  Assignment ID: 3XLBSAQ9Z4CGWH0YHP10ACPVTQ27ZN
  HIT ID: 3I6NF2WGIGWZVCTGD2TC2108RZ7G5M
  Work Time: 84s
  Worker Score: 0.9286
 END ANNOTATION -->
 <g display="inline">
  <title>Layer 1</title>
  <path t="0,296,298,310,328,329,350,350,379,379,394,410,410,427,443,460,477,477,497,528,529,560,560,577,610,643,643,660,693,693,727,727,743,777,793,793,810,827,843,843,860,860,893,893,910,945,946,977,993" d="m400,286c5.77335,-3.65866 6.5705,-3.79965 7.5,-4.02084c0.84998,-0.20227 1.37839,-0.87289 1.98401,-1.46182c0.68289,-0.66406 1.51245,-1.23364 2.21149,-1.56549c0.85004,-0.4035 1.62079,-0.88077 2.47916,-0.94116c0.93774,-0.06598 1.92545,0.25232 2.65869,-0.17734c0.80853,-0.47379 1.35193,-0.828 2.28131,-0.83334c0.88535,-0.0051 1.77069,0 2.71069,0c0.69064,0 1.76398,0 2.58533,0c0.91064,0 1.76398,0 2.70398,0c0.88535,0 1.77069,0 2.71069,0c0.69064,0 1.76984,-0.08786 2.58533,0.01068c0.92783,0.11212 1.6937,0.37744 2.41998,1.18799c0.56702,0.63281 1.00589,1.25375 1.19467,1.98666c0.27573,1.07047 0.8479,1.58215 1.80002,1.78934c0.68326,0.14868 1.633,0.56699 2.05316,1.34665l0.11081,0.85333l0.01068,0.94l0,0.88535" id="svg_1" stroke-width="2" stroke="#000" fill="none"/>
  <path t="1351,1512,1512,1528,1529,1544,1544,1544,1560,1561,1561,1577,1577,1593,1593,1593,1609,1609,1627,1627,1643,1643,1660,1677,1677,1693,1693,1726,1727,1727,1743,1760,1777,1777,1793,1809,1810,1843,1843,1877,1893,1910,1910,1943,1960,1960,1993,1993,2010,2027,2027,2043,2093,2110,2110,2127,2143,2160,2160,2177,2226,2260,2260,2293,2293,2376,2409" d="m400,291c4.228,3.66 4.99496,3.77774 5.97867,4.22168c0.70532,0.3183 1.32782,1.11594 1.86801,1.60367c0.59872,0.54056 1.5654,1.17242 2.36798,1.53867c0.76727,0.35013 1.67801,0.68796 2.2645,1.15683c0.73676,0.58902 1.31219,1.353 1.92535,1.76932c0.93665,0.63593 1.59485,0.689 2.59549,0.70984c0.97894,0.02039 1.8335,-0.01651 2.6955,0c0.94101,0.01801 1.77835,0.31442 2.51517,0.57468c0.97586,0.3447 1.78918,0.41489 2.78934,0.42532c0.78931,0.00824 1.51468,0 2.58932,0c0.82135,0 1.73199,0 2.58533,0c0.94,0 1.92551,0 2.71069,0c0.94,0 1.63065,0 2.70398,0c0.82135,0 1.73199,0.00061 2.58533,0c0.94,-0.00067 1.77191,-0.26355 2.58252,-0.64734c0.85229,-0.40353 1.66861,0.01633 2.59616,-0.37399c0.72308,-0.30429 0.80167,-1.34857 1.36267,-2.06134c0.52551,-0.66769 1.11716,-1.37106 1.80133,-1.63199c0.93204,-0.35547 2.01846,-0.19604 2.39999,-0.85333c0.45181,-0.77838 1.1102,-1.04575 1.83984,-1.6535c0.67587,-0.56296 0.8175,-1.41449 1.15881,-2.26251l0.13669,-0.86331l0.29999,-0.89551l0.52618,-0.85699" id="svg_2" stroke-width="2" stroke="#000" fill="none"/>
  <polyline timestamps="3730,4009" startTime="1441667710327" id="svg_3" points="423,285 423.94283333333334,290.0713333333333 " stroke-linecap="round" stroke-width="2" stroke="#000" fill="none"/>
  <path t="4179,4376,4376,4409,4409" d="m433,287c2.74399,5.14267 2.9375,5.91666 3,6.97849l0,0.71701" id="svg_4" stroke-width="2" stroke="#000" fill="none"/>
  <path t="5095,5342,5342,5377,5377,5392,5393,5393,5426,5426,5459,5459,5459,5476,5476,5476,5492,5492,5511,5525,5525,5544,5544,5560,5592,5592,5609,5609,5626,5659,5659,5692,5693,6176,6242,6292,6309,6359,6360,6392,6426,6442,6476,6477,6492,6513,6513,6542,6542,6576,6593,6609,6609,6626,6626,6642,6676,6676,6692,6709,6726,6726,6742,6742,6759,6776,6776,6792,6809,6809,6826,6826,6842,6842,6860,6861,6876,6876,6892,6892,6908,6909,6926,6926,6942,6942,6959,6959,6976,6976,6992,6992,7009,7009,7026,7026,7060,7060,7076,7076,7092,7092,7109,7109,7126,7126,7158" d="m449,291c-0.96399,-1.836 -0.99933,-2.60132 -1,-3.60449c-0.00058,-0.85266 0,-1.81668 0,-2.61017c0,-0.77551 0.05017,-1.9877 -0.08533,-2.75333c-0.14398,-0.81363 -0.40536,-1.57693 -0.80133,-2.34933c-0.53003,-1.03394 -1.15714,-1.61954 -1.54401,-2.28134c-0.55301,-0.94598 -0.45593,-1.75183 -0.57382,-2.64417c-0.11584,-0.87671 -0.71823,-1.49252 -0.94284,-2.40985c-0.20789,-0.849 -0.55447,-1.67087 -0.97,-2.54865c-0.31189,-0.65887 -0.82123,-1.42447 -1.37735,-2.146c-0.57138,-0.74133 -0.93323,-1.61731 -1.28,-2.28867c-0.41895,-0.81107 -0.54752,-1.60446 -1.07266,-2.41217c-0.40497,-0.62289 -0.46155,-1.60657 -1.20334,-1.93716c-0.81027,-0.36111 -1.13864,-1.19983 -1.14932,-2.12933c-0.01016,-0.88528 -0.39478,-1.51007 -0.83334,-2.21869c-0.45581,-0.73651 -0.16666,-1.78133 -0.16666,-2.66666c0,-0.75717 0,-1.82533 0,-2.51601c0,-0.96317 0.06244,-1.91472 -0.22134,-2.80533c-0.22275,-0.69902 -0.71643,-1.65065 -0.77731,-2.47733c-0.06152,-0.83508 -0.00134,-1.854 -0.00134,-2.54868c0,-1.01666 0,-1.95717 0,-2.81934c0,-0.83333 0,-1.81183 0,-2.63199c0,-0.83734 0,-1.854 0,-2.54868c0,-1.01666 0,-1.96167 0,-2.62334c0,-1.03467 0,-1.77866 0,-2.88649c0,-0.75751 0,-1.8 0,-2.54733c0,-0.9955 0,-1.7955 0,-2.79533c0,-0.77934 0,-1.77884 0,-2.55284c0,-0.9045 0,-1.65182 0,-2.646c0,-0.94417 0.00311,-1.85316 0,-2.57066c-0.00452,-1.03604 0.13608,-1.87309 -0.44266,-2.88766c-0.30878,-0.54129 -1.37875,-1.0941 -1.54834,-1.90018c-0.1853,-0.88075 -0.009,-1.64732 -0.009,-2.64282c0,-0.8 0,-1.79984 0,-2.57918c0,-0.99966 0,-1.83066 0,-2.78883c0,-0.73199 0,-1.89867 0,-2.69032l0,-0.84618" id="svg_5" stroke-width="2" stroke="#000" fill="none"/>
  <path t="8279,8625,8641,8641,8658,8692,8692,8708,8725,8726,8758,8775,8776,8792,8792,8808,8809,8825,8842,8842,8858,8859,8875,8892,8892,8908,8908,8909,8925,8926,8942,8958,8959,8975,8976,8976,8991,9008,9008,9009,9025,9026,9042,9042,9075,9092,9108,9108,9125,9126,9142,9192,9225,9226,9241,9242,9258,9291,9292,9308,9309,9325,9326,9341,9342,9358,9375,9376,9391,9392,9408,9425,9426,9442,9443,9443,9458,9458,9475,9476,9476,9491,9492,9492,9508,9509,9509,9525,9525,9526,9526,9526,9541,9541,9558,9559,9559,9559,9576,9577,9577,9592,9592,9592,9592,9608,9609,9626,9627,9627,9627,9642,9642,9642,9643,9658,9659,9675" d="m408,308c-4.12851,-1.88568 -5.10016,-2 -5.88535,-2c-0.94,0 -1.948,0 -2.70398,0c-0.93152,0 -1.89468,0.0029 -2.58533,0c-1.06821,-0.00452 -1.79068,-0.36197 -2.34619,-1c-0.6095,-0.70001 -1.47952,-0.95157 -2.3125,-1c-0.86258,-0.05014 -1.64359,-0.61188 -2.48798,-0.87866c-0.82562,-0.26086 -1.74518,-0.49316 -2.47736,-0.83734c-0.79712,-0.37469 -1.70203,-0.19208 -2.41199,-0.35599c-1.02942,-0.23764 -1.5437,-0.84732 -2.38934,-1.36002c-0.76282,-0.46246 -1.75049,-0.45459 -2.64282,-0.57248c-0.87689,-0.11584 -1.55084,-0.7323 -2.52518,-0.91019c-0.72287,-0.13199 -1.46399,-0.08466 -2.58133,-0.08533c-0.98401,-0.00058 -1.65601,0.00009 -2.64532,0c-0.86252,-0.00009 -1.76697,-0.0188 -2.65802,-0.35266c-0.7066,-0.26474 -1.71075,-0.62933 -2.54865,-0.64734c-0.96512,-0.02075 -1.97726,0.21414 -2.55585,-0.44266c-0.49716,-0.56436 -0.77124,-1.44095 -1.6535,-1.56802c-0.92514,-0.13324 -1.57214,-0.53711 -2.56766,-0.86798c-0.72421,-0.24069 -1.03992,-1.03516 -1.38333,-1.77402c-0.33786,-0.7269 -1.11392,-1.47446 -1.81299,-1.93665c-0.79437,-0.52521 -1.48132,-1.00974 -1.74133,-1.89334c-0.2312,-0.78568 -0.74963,-1.47919 -1.56802,-1.80267c-0.70996,-0.28064 -1.6507,-0.8923 -2.21149,-1.41467c-0.62323,-0.58051 -1.08105,-1.48148 -1.32535,-2.29999c-0.25455,-0.85284 -0.83661,-1.3895 -1.58182,-1.79868c-0.78296,-0.42993 -1.62582,-0.79669 -2.39734,-1.36798c-0.62003,-0.45911 -1.21408,-1.00415 -1.83334,-1.83334c-0.57977,-0.77631 -0.8728,-1.45276 -1.267,-2.42151c-0.32996,-0.81088 -0.50208,-1.4306 -1.233,-2.57849c-0.39694,-0.62338 -0.91309,-1.18408 -1.38,-1.76401c-0.43942,-0.54578 -1.03784,-1.55057 -1.32666,-2.46133c-0.298,-0.93985 -0.67255,-1.72809 -0.95999,-2.2955c-0.44324,-0.87491 -0.75345,-1.77994 -0.95999,-2.66849c-0.19861,-0.85443 -0.48743,-1.68909 -1.10251,-2.35352c-0.64606,-0.69791 -1.22928,-1.00165 -1.96817,-1.85715c-0.48965,-0.56693 -1.138,-1.59839 -1.62201,-2.20901c-0.52417,-0.66125 -0.92154,-1.13318 -1.32565,-2.03366c-0.44034,-0.98122 -0.57501,-1.70667 -0.73502,-2.38933l-0.20132,-1.196l-0.07465,-0.91467l-0.01202,-0.97066" id="svg_6" stroke-width="2" stroke="#000" fill="none"/>
  <path t="12310,12552,12553,12568,12569,12585,12586,12586,12619,12619,12619,12635,12635,12652,12653,12669,12685,12685,12702,12703,12703,12719,12735,12735,12752,12753,12753,12753,12768,12769,12770,12785,12818,12819,12819,12819,12835,12835,12836,12852,12852,12853,12868,12885,12885,12902,12903,12935,12935,12936,12968,12969,12985,12985,13018,13019,13019,13035,13035,13035,13052,13068,13085,13085,13086,13102,13103,13135,13136,13152,13153,13168,13169,13169,13185,13185,13202,13203,13219,13219,13219,13235,13253,13253,13253,13268,13269,13285,13285,13286,13302,13303,13319,13335,13336,13336,13352,13353,13353,13368,13369,13402" d="m391,196c3.02802,-4.228 3.52344,-4.90427 3.83334,-5.83333c0.26895,-0.80629 0.35571,-1.72054 0.61331,-2.41734c0.28015,-0.7578 0.8678,-1.61398 1.55334,-2.24933c0.51093,-0.47351 1.11505,-1.26646 1.47916,-1.97917c0.52139,-1.02055 1.10803,-1.60756 1.63068,-2.22533c0.55011,-0.65024 1.3273,-1.01518 2.08984,-1.61684c0.60263,-0.47548 1.21252,-1.2054 1.74966,-2.04266c0.47861,-0.74605 1.12033,-1.1171 2.05066,-1.80267c0.62439,-0.46013 1.2179,-1.03322 1.68533,-1.34933c0.96298,-0.65126 1.78229,-0.97929 2.54532,-1.19733c1.10458,-0.31561 2.11011,-0.42928 2.77917,-0.64833c0.78522,-0.25708 1.33527,-0.48076 2.30618,-1.121c0.7056,-0.46529 1.33035,-1.05965 2.36667,-1.34666c0.77759,-0.21536 1.54797,-0.16933 2.65598,-0.17067c0.98267,-0.00119 1.66135,0 2.77869,0c0.6925,0 1.65201,0 2.4035,0c0.79648,0 2.022,0 2.66849,0c1.01068,0 1.81076,-0.01315 2.81067,0c0.81088,0.01067 1.71304,0.10744 2.68134,0.56934c0.54037,0.25777 1.35767,0.68329 2.064,1.54399c0.57187,0.69685 1.44669,0.99992 2.08002,1.33334c0.72461,0.38148 1.41565,1.2072 1.87015,1.90067c0.50378,0.76868 1.05017,1.36511 1.78851,1.854c0.68039,0.45053 1.53665,1.09181 1.99515,1.81949c0.35324,0.56062 0.85144,1.56467 1.08484,2.17917c0.37222,0.97998 0.2883,1.91211 0.936,2.63333c0.62814,0.69945 1.6626,0.62538 2.33301,1.47118c0.57425,0.72449 0.53467,1.57802 1.05365,2.2115c0.67313,0.82166 1.40524,1.05122 2.09167,2.02666c0.46109,0.65521 0.68863,1.44452 0.90033,2.31433c0.20148,0.82779 0.66028,1.66646 1.28799,2.30968c0.65588,0.67209 1.22617,1.20375 1.81168,2.03333c0.40799,0.57808 0.73502,1.40001 0.96451,2.39551l0.05267,0.74733l0.01517,1.0105" id="svg_7" stroke-width="2" stroke="#000" fill="none"/>
  <path t="14138,14735,14752,14752,14768,14768,14768,14768,14785,14785,14785,14802,14802,14802,14832,14832,14852,14852,14853,14868,14868,14885,14885,14902,14918,14918,14935,14936,14952,14968,14985,15034,15035,15101,15102,15118,15118,15152,15168,15168,15169,15184,15185,15202,15202,15218,15218,15235,15235,15235,15252,15252,15268,15268,15269,15285,15285,15302,15303,15303,15318,15318,15334,15335,15351,15352,15368,15368,15385,15385,15402,15418,15418,15434,15435,15452,15452,15468,15468,15484,15485,15502,15502,15502,15535,15535,15535,15552,15552,15568,15568,15618,15634,15684,15685,15702,15718,15719,15734,15751,15752,15768,15784,15785,15801,15818,15818,15834,15851,15852" d="m400,214c-0.41467,-0.75734 -0.2114,0.22385 0.04166,1c0.341,1.04585 1.0253,1.59521 1.45834,2.02083c0.66196,0.6506 1.28668,1.65349 1.45834,2.47917c0.11276,0.54234 0.28189,1.83438 0.58331,2.47917c0.30026,0.64236 0.94702,1.41684 1.45834,2.02083c0.84106,0.9935 1.25842,1.59126 1.58932,2.2c0.53613,0.98633 0.95236,1.75584 1.24402,2.63333c0.24603,0.74019 0.55038,1.69113 1.48782,2.0455c0.62964,0.23802 1.58255,0.67877 1.66983,1.47301c0.09686,0.88129 0.59137,1.49895 1.009,2.18983c0.50952,0.84293 0.57327,1.69827 1.16666,2.29166c0.59341,0.59341 1.65527,1.07268 2.42267,1.15601c0.82721,0.08983 1.74402,0.01067 2.66135,0.01067c0.74399,0 1.78134,0 2.55466,0c0.96268,0 1.69467,0 2.86133,0c0.83334,0 1.66669,0 2.58401,0c0.74399,0 1.78839,0.06105 2.55466,-0.05716c0.97809,-0.15088 1.73297,-0.41284 2.42667,-0.82951c0.8559,-0.51408 1.349,-1.36884 2.10135,-1.94666c0.62225,-0.47791 1.40189,-0.77261 2.52383,-1.04533c0.74973,-0.18224 1.67004,-0.3351 2.31747,-0.76801c0.87238,-0.58333 1.24902,-1.39069 1.82535,-2.18666c0.47714,-0.65898 1.31628,-1.08858 2,-1.14584c1.11099,-0.09306 1.96478,-0.24844 2.63599,-0.59549c0.81247,-0.42009 1.80219,-0.40932 2.47867,-0.99333c0.56808,-0.49045 1.19208,-1.33006 1.85602,-1.51468c1.03134,-0.28679 1.80817,-0.46472 2.69598,-0.91733c0.70975,-0.36185 1.29291,-0.89674 2.10135,-1.48399c0.72461,-0.52635 1.23013,-0.85866 2.26266,-1.62933c0.58597,-0.43736 1.51315,-0.60213 2.25949,-0.93935c0.80762,-0.3649 0.70984,-1.46815 0.70984,-2.43132c0,-0.69067 0,-1.75883 0,-2.61618c0,-0.78516 0,-1.72516 0,-2.73315c0,-0.75601 0,-1.6875 0,-2.65067c0,-0.69067 0,-1.75883 0,-2.61618c0,-0.78516 0,-1.72516 0,-2.73315l-0.07199,-0.75601" id="svg_8" stroke-width="2" stroke="#000" fill="none"/>
  <path t="16171,16317,16318,16318,16318,16318,16318,16318,16334,16335,16335,16335,16335,16335,16335,16351,16352,16352,16352,16352,16352,16368,16368,16368,16384,16385,16385,16385,16401,16402" d="m392,198c3.957,6.60001 4.23532,7.19748 4.48566,7.8c0.24829,0.59755 0.69571,1.79907 0.90533,2.39999c0.20898,0.59908 0.60602,1.80101 1.01035,2.99867c0.20166,0.59734 0.39905,1.19444 0.83466,2.36533c0.21606,0.58076 0.42685,1.16061 0.93066,2.26933c0.49417,1.08752 0.77368,1.60027 1.3125,2.58334c0.2558,0.46672 0.75803,1.32227 1.37802,2.41899c0.33655,0.59534 0.74274,1.37694 1.30948,2.33101c0.30939,0.52081 0.83334,1.3125 1.34933,2.064l0.59735,0.8l0.52499,0.7175" id="svg_9" stroke-width="2" stroke="#000" fill="none"/>
  <path t="17720,17967,17967,17967,17968,17984,17984,17984,17984,17984,17985,18002,18003,18003,18003,18003,18018,18018,18018,18018,18018,18034,18034,18034,18051,18052,18052,18068,18068,18068,18084,18084,18084,18101,18101,18117,18118,18118,18134,18134,18135,18151,18151,18167,18168,18185,18186,18217,18234" d="m325,205c3.95767,-4.17833 4.4826,-4.85725 5.04166,-5.45833c0.55765,-0.59958 1.61749,-1.38831 2.04385,-1.62035c0.91446,-0.49768 1.42715,-0.6945 2.44916,-1.14665c0.51218,-0.22659 1.97208,-0.93015 2.401,-1.19568c0.81061,-0.50182 1.49988,-1.07204 2.20801,-1.51199c0.99347,-0.61725 1.73495,-0.84013 2.48166,-0.96967c0.74503,-0.12924 1.49866,-0.12955 2.88934,-0.38133c0.6539,-0.11839 1.57401,-0.40016 2.48532,-0.54933c0.89032,-0.14574 1.76398,-0.16133 2.83334,-0.16667c0.71399,-0.00356 1.61932,0 2.58783,0c0.79349,0 1.5697,-0.03687 2.61084,0.00133c0.77481,0.02843 1.74084,0.27689 2.50964,0.5195c0.86359,0.27252 1.75601,0.58507 2.63702,0.8685c0.80521,0.25905 1.76147,0.29022 2.51233,0.7205c0.74182,0.42509 1.19434,1.32217 1.95715,1.78033l0.7825,0.1925l0.73599,0.75066l0.83334,0.16667" id="svg_10" stroke-width="2" stroke="#000" fill="none"/>
  <path t="18754,19101,19117,19118,19134,19134,19151,19167,19184,19184,19217,19217,19217,19234,19234,19234,19251,19251,19267,19284,19284,19301,19317,19317,19334,19334,19334,19351,19351,19352,19367,19367,19384,19384,19401,19401,19417,19434,19434,19451,19501,19501,19567,19568,19684,19701,19717,19717,19733,19734,19734,19751,19751,19751,19767,19784,19801,19801,19818,19818,19834,19851,19851,19867,19867,19884,19901,19901,19934,19934" d="m327,204c-0.94284,4.12849 -0.90717,5.11592 -1.08533,5.88533c-0.22549,0.97383 -0.75,1.60579 -0.89383,2.59384c-0.13422,0.92201 0.05896,1.85172 -0.0625,2.54166c-0.17715,1.00623 -0.73254,1.53996 -1.25302,2.43634c-0.5369,0.92464 -0.5712,1.49498 -0.75348,2.533c-0.15289,0.87064 -0.71149,1.52913 -0.931,2.53065c-0.17145,0.78221 -0.02084,1.65384 -0.02084,2.59384c0,0.98566 0,1.69966 0,2.65599c0,0.77101 0,1.632 0,2.82668c0,0.58133 0,1.38834 0,2.59734c0,0.77333 0,1.81067 0,2.55466c0,0.91734 0,1.82935 0,2.7715c0,0.80051 0,1.65384 0,2.59384c0,0.9855 0,1.77066 0,2.71066c0,0.69067 -0.0379,1.84355 0.64667,2.2c0.77914,0.40569 1.59903,0.57265 2.55334,1.29601c0.62445,0.47333 1.16904,1.06734 1.99982,1.657c0.56976,0.40439 1.29062,0.85762 2.3895,1.011c0.81375,0.11359 1.72916,0.23897 2.41068,0.51067c0.97455,0.38852 1.79868,0.49933 2.63599,0.5c1.02118,0.00081 1.76852,0 2.7627,0c0.76532,0 1.84866,0 2.76797,0l0.65869,0l1.008,0l0.86215,0" id="svg_11" stroke-width="2" stroke="#000" fill="none"/>
  <path t="20286,20483,20484,20484,20501,20501,20517,20517,20517,20533,20533,20551,20551,20551,20552,20567,20567,20583,20584,20584,20601,20617,20617,20618,20634,20634,20634,20651,20651,20651,20667,20667,20667,20667,20683,20684,20684,20701,20701,20717,20717,20733,20734,20734,20751,20751,20767,20783,20784,20800,20801,20883,20950,20984,21033,21034,21050,21051,21067,21067,21083,21100,21101,21133,21151,21183,21184,21184,21217,21217,21217,21238,21238,21284" d="m363,202c0.91467,3.59866 0.98834,4.479 0.99866,5.31467c0.01236,1.00125 0.00134,1.91066 0.00134,2.85201c0,0.78149 0,1.57199 0,2.69083c0,0.82916 0,1.6425 0,2.505c0,0.65833 0,1.67084 0,2.86684c0,0.72899 0,1.77066 0,2.56c0,0.72533 0,1.73149 0,2.75366c0,0.729 0,1.56599 0,2.457c0,0.89549 -0.00674,1.76402 0,2.83333c0.00452,0.71405 0.04846,1.64421 0.44266,2.58817c0.35104,0.84064 0.74438,1.37256 0.98935,1.97984c0.47189,1.16995 0.54471,2.07718 0.56534,2.91333c0.02466,0.99969 0.00266,1.87466 0.00266,2.88533c0,0.8 0,1.8 0,2.60001c0,0.8 -0.08713,1.80768 0.05716,2.54283c0.18243,0.92953 0.85297,1.64471 0.93835,2.41434c0.09875,0.89008 0.02814,1.78624 0.42981,2.60683c0.42508,0.86841 0.12363,1.46909 -0.52548,2.07867c-0.509,0.47803 -1.2016,1.39905 -1.89984,1.51566c-0.966,0.16132 -1.79868,0.04167 -2.75717,0.04167c-0.89551,0 -1.75882,0 -2.72198,0c-0.82983,0 -1.85419,0 -2.53519,0c-0.80698,0 -1.98566,0 -2.58298,0c-0.86102,0 -2.06934,0 -2.86102,0l-0.84616,0" id="svg_12" stroke-width="2" stroke="#000" fill="none"/>
  <path t="22086,22400,22417,22417,22450,22451,22451,22467,22483,22484,22500,22501,22517,22517,22551,22583,22583,22601,22601,22601,22616,22617,22633,22667,22667,22684,22684,22717,22717,22750,22766,22767,22783,22783,22800" d="m413,173c-1.94934,-3.328 -2.4519,-4.088 -3.02084,-4.52083c-0.82605,-0.62843 -1.32715,-1.31483 -1.77783,-1.99518c-0.57071,-0.86156 -1.04361,-1.59459 -1.28534,-2.36932c-0.24179,-0.77495 -0.74225,-1.66499 -1.56415,-2.00484c-0.74469,-0.30791 -1.57007,-0.83559 -2.35184,-1.2765c-0.69403,-0.39142 -1.32132,-1.15465 -1.82535,-1.65866c-0.522,-0.52199 -1.42148,-1.19217 -1.888,-1.97333c-0.45816,-0.76718 -0.50043,-1.72852 -0.93332,-2.37601c-0.58322,-0.87233 -1.4953,-1.14285 -2.1105,-1.92534c-0.47714,-0.60687 -0.81125,-1.38847 -1.34265,-2.22133c-0.41818,-0.65543 -0.77902,-1.657 -1.06952,-2.392l-0.83066,-0.28667" id="svg_13" stroke-width="2" stroke="#000" fill="none"/>
  <path t="23303,23516,23516,23533,23533,23550,23550,23567,23568,23583,23600,23601,23601,23617,23617,23617,23633,23633,23633,23650,23650,23666,23667,23683,23683,23700,23700,23700,23716,23717,23733,23733,23733,23750,23751,23751,23766,23767,23783,23783,23783,23800,23800,23801,23816,23817,23817,23817,23833,23833,23834,23850,23851,23866,23867,23867,23900,23900,23901,23916,23917,23933,23933,23934,23950,23950,23966,23967,23983,23984,23984,24000,24000,24001,24001,24017,24018,24018,24033,24034,24034,24034,24050,24050,24051,24051,24066,24067,24067,24083,24083,24084,24100,24101,24116,24117,24117,24117,24133,24133,24134,24150,24150,24151,24173,24173,24173,24189,24189,24189,24204,24204,24204,24219,24219,24219,24234,24234,24234,24234,24249,24250,24250,24265,24265,24266,24284,24284,24284,24302,24302,24302,24317,24317,24317,24317,24333,24333,24333,24349,24349,24367,24367,24368,24383,24383,24399,24399,24400,24416,24417,24417,24433,24433,24451,24451,24452,24452,24469,24469,24469,24469,24487,24487,24504,24505,24505,24525,24525,24526,24542,24542,24542,24542,24562,24562,24562,24583,24584,24584,24584,24586,24586,24587,24606,24606,24606,24624,24642,24642,24643,24659,24659,24678,24678,24678,24694,24695,24695,24695,24712,24712,24713,24713,24730,24730,24747,24747,24747,24748,24766,24766,24766,24766,24783,24784,24784,24800,24800,24800,24816,24816,24831,24831,24846,24846,24846,24862,24862,24878,24878,24878,24893,24894,24894,24910,24910,24910,24925,24926,24926,24926,24944,24944,24944,24945,24961,24961,24980,24980,24980,24998,24998,24999,24999,25018,25018,25035,25036,25053,25054,25070,25070,25071,25098,25098,25115,25116,25116,25117,25118,25118,25135,25135,25135,25136,25152,25152,25153,25168,25169,25169,25169,25185,25185,25186,25186,25203,25203,25219,25219,25220,25220,25236,25236,25236,25237,25253,25254,25270,25271,25271,25287,25303,25303,25320,25320,25336,25337,25337,25353,25353,25370,25370,25370,25386,25387,25403,25403,25403,25403,25421,25421,25421,25438,25438,25439,25454,25455,25455,25471,25471,25471,25487,25488,25488,25504,25505,25505,25521,25522,25538,25539,25556,25557,25576,25576,25577,25596,25614,25614,25631,25631,25647,25647,25648,25664,25665,25665,25665,25681,25682,25698,25699,25699,25715,25715,25732,25733,25733,25750,25750,25751,25751,25768,25784,25785,25785,25802,25802,25819,25836,25836,25852,25870,25870,25870,25887,25887,25888,25904,25904,25905,25935,25935,25936,25939,25956,25972,25989,25989,26007,26007,26007,26024,26024,26025,26025,26042,26042,26042,26059,26059,26059,26059,26076,26077,26077,26094,26111,26111,26128,26129,26129,26146,26146,26163,26180,26181,26181,26197,26197,26214,26224,26225,26235,26236,26236,26254,26254,26271,26271,26272,26289,26289,26300,26300,26300,26318,26319,26319,26337,26337,26337,26354,26355,26365,26366,26366,26389,26389,26390,26412,26412,26431,26431,26444,26445,26464,26465,26465,26485,26485,26486,26506,26506,26518,26518,26519,26519,26538,26538,26538,26549,26550,26571,26571,26571,26597,26597,26617,26618,26621,26622,26622,26626,26626,26640,26640,26652,26653,26667,26668,26682,26682,26699,26700,26716,26744,26745,26758,26771,26772,26799,26816,26817,26866,26899,26900,26966,27015,27016,27066,27149,27150,27165,27181,27182,27216,27250,27415,27682,27683,27684,27698,27699,27699,27700,27719,27720,27720,27738,27738,27739,27755,27756,27756,27775,27775,27776,27792,27792,27807,27808,27832,27833,27848,27882,27883,27884,27898,27916,27952,27953,27953,27971,27999,28000,28017,28132,28133,28165,28232,28249,28250,28282,28332,28415,28465,28466,28515,28516,28533,28566,28567,28583,28583,28615,28616,28638,28639,28660,28680,28681,28699,28699,28718,28719,28736,28737,28754,28770,28770,28787,28803,28819,28819,28836,28837,28854,28870,28871,28888,28999,29082,29083,29118,29119,29149,29167,29167,29249,29266,29299,29300,29332,29333,29367,29384,29415,29416,29417,29449,29450,29451,29468,29469,29469,29489,29490,29512,29512,29534,29534,29537,29537,29538,29559,29560,29560,29578,29595,29596,29617,29617,29618,29638,29661,29662,29662,29683,29704,29705,29707,29708,29732,29733,29736,29736,29758,29759,29779,29796,29797,29798,29816,29834,29835,29865,29866,29884,29887,29890,29890,29908,29909,29932,29952,29953,29982,30002,30002,30065,30132,30133,30265,30266,30315,30316,30335,30336,30357,30358,30379,30379,30400,30401,30422,30422,30442,30442,30460,30461,30480,30499,30499,30518,30536,30537,30556,30557,30575,30593,30612,30612,30634,30635,30682,30782" d="m408,170c-3.944,-3.944 -4.56799,-4.56801 -5.20132,-5.20134c-0.55585,-0.55583 -1.2641,-1.30139 -1.79868,-1.77783c-0.80649,-0.71881 -1.62732,-0.96846 -2.41068,-1.45683c-0.80038,-0.49899 -1.48941,-0.90268 -2.10532,-1.53467c-0.69702,-0.71521 -0.96255,-1.55659 -1.29385,-2.02399c-0.65433,-0.92314 -1.42136,-1.37303 -2.18481,-1.63918c-1.01334,-0.35326 -1.84399,-0.59618 -2.30984,-1.42416c-0.36478,-0.64836 -0.83493,-1.49283 -1.6955,-1.92117c-0.81061,-0.40349 -1.30048,-0.97156 -1.96933,-1.45284c-0.72507,-0.5217 -1.84314,-0.46344 -2.69733,-0.90132c-0.76224,-0.39073 -1.06702,-1.11781 -2.10269,-1.49734c-0.71924,-0.26358 -1.56674,-0.17509 -2.54532,-0.45467c-0.89731,-0.25636 -1.69574,-0.69501 -2.48532,-1.12532c-0.6084,-0.33157 -1.39133,-0.92201 -2.02133,-1.41467c-0.68344,-0.53447 -1.81299,-1.1754 -2.48401,-1.41299c-0.68689,-0.24321 -1.38245,-0.43961 -2.65152,-0.64034c-0.75711,-0.11975 -1.60767,-0.09842 -2.4285,-0.56801c-0.63467,-0.3631 -1.37827,-1.04578 -2.1355,-1.55333c-0.52704,-0.35327 -1.55154,-0.98956 -2.24316,-1.364c-0.82758,-0.44803 -1.67752,-0.76935 -2.39999,-1.272c-0.8739,-0.608 -1.11191,-1.3051 -1.80533,-1.79466c-0.92584,-0.65367 -1.80447,-0.47633 -2.69733,-0.73601c-0.86945,-0.25287 -1.66382,-0.83977 -2.34317,-1.13783c-0.77234,-0.33885 -1.83405,-0.84671 -2.30618,-1.17949c-0.70032,-0.49361 -1.33066,-1.09964 -2.37067,-1.62933c-0.54291,-0.27652 -1.46823,-0.56378 -2.47998,-0.72c-0.71362,-0.11018 -1.46024,-0.12161 -2.58069,-0.21935c-1.08783,-0.09488 -1.76865,-0.21997 -2.711,-0.44733c-0.58173,-0.14035 -1.61719,-0.41644 -2.5625,-0.47917c-0.7471,-0.04958 -1.94583,-0.02083 -2.61917,-0.02083c-0.67331,0 -1.8703,0.10951 -2.67331,-0.02133c-1.0528,-0.17155 -1.69458,-0.69582 -2.22833,-0.97867c-0.8512,-0.45107 -1.75211,-0.79005 -2.64767,-0.93866c-0.84891,-0.14087 -1.89883,-0.25414 -2.58533,-0.49734c-0.92371,-0.32727 -1.9129,-0.75333 -2.44,-0.97466c-0.78317,-0.32884 -1.61768,-0.9369 -2.30618,-1.5685c-0.51447,-0.47195 -1.52948,-0.87092 -2.16583,-0.9595c-1.00867,-0.14041 -1.98642,-0.20134 -2.80798,-0.414c-0.76279,-0.19746 -1.83585,-0.50983 -2.81067,-0.59016c-0.69327,-0.05713 -1.38937,-0.04652 -2.65182,-0.05733c-0.78156,-0.00669 -1.4982,-0.01902 -2.46436,-0.22117c-0.82184,-0.17195 -1.67603,-0.46336 -2.57849,-0.612c-0.8902,-0.14661 -1.76401,-0.15459 -2.83334,-0.16666c-0.71399,-0.00806 -1.64255,-0.05249 -2.58817,-0.44267c-0.55148,-0.22755 -1.37256,-0.74439 -1.97983,-0.98933c-1.16995,-0.47189 -2.07718,-0.54415 -2.91333,-0.56533c-0.99969,-0.02532 -1.88702,0.02287 -2.68533,-0.16933c-0.81741,-0.1968 -1.59003,-0.5978 -2.60001,-0.78067c-0.79398,-0.14376 -1.79871,-0.34882 -2.44165,-0.55267c-0.72476,-0.22979 -1.92413,-0.42867 -2.59836,-0.464c-0.99661,-0.05222 -1.85999,-0.036 -2.85999,-0.036c-1,0 -1.55466,0 -2.54166,0c-0.71469,0 -1.79169,0 -2.79669,0c-0.62,0 -1.47498,0 -2.70898,0c-0.67801,0 -1.61932,0 -2.40533,0c-0.82199,0 -1.88312,0.05006 -2.83267,-0.02133c-0.72836,-0.05476 -1.8605,-0.41347 -2.51999,-0.684c-0.69812,-0.28638 -1.36041,-0.67772 -2.65201,-1.05167c-0.77829,-0.22533 -1.54797,-0.23849 -2.68533,-0.243c-0.66266,-0.00262 -1.35733,0 -2.38934,0c-0.92514,0 -1.70667,0 -2.65067,0c-0.99998,0 -1.79651,0.00359 -2.54799,0c-1.1187,-0.00533 -2.10455,-0.15997 -2.77467,-0.35267c-0.74617,-0.21457 -1.84656,-0.57634 -2.64532,-0.63667c-0.88986,-0.06721 -1.62134,-0.01067 -2.45833,-0.01067c-1.19118,0 -1.7955,0 -2.72701,0c-0.64934,0 -2.04666,0 -2.77867,0c-0.724,0 -1.416,0 -2.61732,0c-1.01868,0 -2.10133,0 -2.73734,0c-0.692,0 -1.416,0 -2.864,0c-0.68134,0 -1.64584,0 -2.26218,0c-1.20433,0 -2.09383,0 -2.6685,0c-1.06932,0 -2.00948,0.06062 -2.83466,-0.08533c-1.02057,-0.1805 -1.57918,-0.57523 -2.60133,-0.79317c-0.78859,-0.16814 -1.8,-0.1215 -2.60001,-0.1215c-0.8,0 -1.8045,0 -2.65717,0c-0.96432,0 -1.77882,0 -2.64734,0c-0.89549,0 -1.79099,0 -2.6595,0c-1.06932,0 -1.78783,0 -2.74582,0c-0.8235,0 -1.8,0 -2.511,0c-0.731,0 -1.8125,0 -2.8175,0c-0.91499,0 -1.47501,0 -2.709,0c-0.67799,0 -1.87416,0 -2.68866,0c-0.57468,0 -1.76401,0 -2.6595,0c-0.86852,0 -1.41917,0 -2.64734,0c-0.85266,0 -1.85716,0 -2.65717,0c-1,0 -1.80009,0.01351 -2.8,0c-0.78955,-0.01067 -1.59781,-0.07285 -2.24283,-0.70533c-0.65323,-0.64053 -1.29819,-1.27383 -2.29984,-1.29467c-0.70786,-0.01472 -1.452,0 -2.65651,0c-0.66333,0 -1.56516,0 -2.49815,0c-0.69867,0 -1.42134,0 -2.81868,0c-0.65866,0 -1.63666,0 -2.65067,0c-0.71733,0 -1.45866,0 -2.20799,0c-1.45866,0 -2.13867,0 -3.08366,0c-0.58,0 -1.85767,0 -2.54167,0c-1.16667,0 -1.96211,0.0071 -2.54167,-0.02084c-0.94609,-0.04559 -1.98093,-0.192 -2.702,-0.33183c-0.71634,-0.13891 -1.698,-0.38264 -2.703,-0.56333c-0.85136,-0.15308 -1.82133,-0.368 -2.55333,-0.584c-0.73199,-0.216 -1.83818,-0.48199 -2.82133,-0.5c-0.67856,-0.01243 -1.6575,0 -2.48849,0c-0.9595,0 -1.711,0 -2.50751,0c-1.23,0 -1.90799,0 -2.84933,0c-0.78149,0 -1.8235,0 -2.69083,0c-0.82916,0 -1.90683,0 -2.50951,0c-1.02899,0 -1.75166,0 -2.81133,0c-0.97501,0 -1.575,0 -2.655,0c-0.94135,0 -1.61934,0 -2.85201,0c-0.55066,0 -1.41917,0 -2.6145,0c-0.8895,0 -1.46416,0 -2.5335,0c-0.94133,0 -1.61933,0 -2.84933,0c-0.7965,0 -1.548,0 -2.512,0c-0.77334,0 -1.81067,0 -2.55467,0c-1.10799,0 -1.90133,0 -2.79333,0c-0.95734,0 -1.68934,0 -2.64751,0c-0.97649,0 -1.80983,0 -2.78867,0c-0.83099,0 -1.79317,0 -2.58366,0c-0.60367,0 -1.9585,0 -2.68117,0c-0.71467,0 -1.70167,0 -2.703,0c-0.85417,0 -1.82267,0 -2.57417,0c-0.7965,0 -1.79517,0 -2.7045,0c-0.94133,0 -1.73183,0 -2.58533,0c-1.18933,0 -1.78667,0 -2.64767,0c-0.771,0 -1.891,0 -2.875,0c-0.672,0 -1.66133,0 -2.52367,0c-0.94033,0 -1.779,0 -2.79566,0c-0.69467,0 -1.73267,0 -2.68067,0c-0.6765,0 -1.45201,-0.00594 -2.5,0c-0.94138,0.00533 -1.62643,0.01973 -2.58817,0.22134c-0.82179,0.17226 -1.67519,0.47083 -2.878,0.65733c-0.58402,0.09056 -1.51088,-0.14447 -2.44583,0.40533c-0.77504,0.45576 -1.56045,0.53223 -2.25467,1.04934c-0.68887,0.51312 -1.31731,1.38988 -2.01433,1.55683c-0.79409,0.1902 -1.98989,0.25691 -2.58434,0.39516c-0.88776,0.20647 -1.71642,0.51495 -2.71867,0.91334c-0.70379,0.27975 -1.4461,0.55128 -2.32533,0.68016c-1.0029,0.147 -1.71796,0.12633 -2.38934,0.2905c-1.22502,0.29956 -1.92298,0.83197 -2.48,1.348c-0.75544,0.69984 -1.488,1.48267 -2.00883,2.0035c-0.64583,0.64583 -1.30473,1.30427 -1.8265,1.8265c-0.76633,0.76701 -1.20818,1.39407 -1.69434,2.1735c-0.53662,0.86031 -1.24509,1.29112 -1.68233,1.65383c-0.93537,0.77593 -1.152,1.53323 -1.312,2.46133c-0.1503,0.87178 -0.57128,1.62283 -1.29733,2.19733c-0.61712,0.48831 -1.4595,0.67014 -2.33334,1.16667c-0.81912,0.46544 -1.18891,1.33017 -1.308,2.25067c-0.09598,0.74188 -0.27535,1.80415 -0.672,2.39999c-0.61982,0.93106 -0.98447,1.37476 -1.564,2.09866c-0.75632,0.94475 -1.44205,1.38133 -1.91733,1.90134c-0.73636,0.80565 -0.82728,1.59821 -0.863,2.34399c-0.04963,1.03621 -0.08181,1.83136 -0.57833,2.776c-0.26994,0.51357 -0.81344,1.3223 -1.264,2.22934c-0.43541,0.87654 -0.68183,1.44214 -1,2.66667c-0.20345,0.783 -0.55593,1.48564 -0.88267,2.304c-0.30492,0.76373 -0.1854,1.84222 -0.61733,2.696c-0.38667,0.7643 -1.1178,1.06702 -1.49733,2.10266c-0.26358,0.71925 -0.19719,1.56064 -0.45333,2.54666c-0.24003,0.924 -0.56996,1.84798 -0.66333,2.64117c-0.1002,0.85118 -0.08894,1.45314 -0.33667,2.64017c-0.18135,0.86896 -0.51244,1.61665 -0.65883,2.60184c-0.12581,0.84668 -0.05717,1.85283 -0.05717,2.47682c0,0.966 0,2.05968 0,2.78233c0,1.02701 0,1.75233 0,2.74184c0,0.82066 0,1.48517 0,2.748c0,0.7905 0,1.71851 0,2.53101c0,1.00482 0,1.6955 0,2.77266c0,0.7175 0,1.75351 0,2.4975c0,1.10767 0,1.82935 0,2.7715c0,0.96317 0,1.65384 0,2.722c0,0.85735 0,1.6425 0,2.5825c0,1.008 0,1.76401 0,2.6955c0,0.96317 0,1.65384 0,2.722c0,0.85735 0,1.6425 0,2.5825c0,1.008 -0.00064,1.76401 0,2.6955c0.00067,0.96184 0.01577,1.79776 0.5,2.45834c0.48564,0.66251 1.05325,1.37836 1.37883,2.34267c0.24125,0.71452 0.25572,1.46185 0.56383,2.32083c0.36715,1.02357 0.7254,1.6992 0.98933,2.38933c0.35029,0.91595 0.52835,1.9502 0.65067,2.65067c0.17575,1.00641 0.4181,1.82451 0.71867,2.63333c0.37518,1.00958 0.70271,1.69322 1.084,2.36801c0.57247,1.01312 0.95127,1.51762 1.40483,2.30617c0.49096,0.85356 0.64186,1.76109 0.71883,2.66249c0.05978,0.70006 0.73803,1.54051 1.28567,2.04283c0.71451,0.65538 1.02759,1.48003 1.556,2.12984c0.56956,0.70041 1.13021,1.49812 1.57467,2.17067c0.54462,0.82411 0.50924,1.53563 0.65866,2.23734c0.23882,1.12151 0.84476,1.86078 0.91467,2.65199c0.08182,0.92601 0.3517,1.74384 1.15067,2.12933c0.79739,0.38474 0.83961,1.28992 0.85067,2.15201c0.01042,0.8127 0.61176,1.52934 0.964,2.26933c0.37368,0.78505 0.20267,1.73067 0.536,2.564c0.33333,0.83333 0.49775,1.69548 0.5,2.52083c0.00263,0.96317 0,1.82651 0,2.731c0,0.7175 0,1.75351 0,2.4975c0,1.10767 0,1.94168 0,2.77151c0,0.96448 0,1.68982 0,2.67917c0,0.79999 0,1.79999 0,2.58932c0,1.04401 0,1.90616 0,2.73151c0,0.96317 0,1.82648 0,2.72198c0,0.9585 0,1.92383 0,2.58252c0,1.008 0,1.87015 0,2.6955c0,0.96317 0,1.82648 0,2.72198c0,0.9585 0,1.92383 0,2.58252c0,1.008 0,1.87015 0,2.6955c0,0.96317 0,1.82648 0,2.72198c0,0.95718 0,1.85733 0,2.64252c0,0.94 0,1.63065 0,2.70398c0,0.832 0,1.74402 0,2.68268c0,0.83701 0,1.728 0,2.6235c0,0.8685 0,1.93784 0,2.64734c0,0.85266 0,1.85583 0,2.62115c0,0.95334 0,1.80533 0,2.84583c0,0.77551 -0.03907,1.8251 0.009,2.53302c0.0582,0.85718 0.41131,1.67346 0.991,2.43631c0.41629,0.54782 0.91256,1.53369 1.35717,2.32983c0.38857,0.6958 0.86161,1.45163 1.122,2.19101c0.25542,0.72528 0.3987,1.89255 0.85416,2.66666c0.42473,0.72189 1.16248,1.31433 1.60534,2.19736c0.40604,0.8096 0.86612,1.50061 1.00417,2.29315c0.1623,0.93176 0.05663,1.94284 0.05717,2.74283c0.00067,0.99869 -0.10694,1.81332 0.284,2.71466c0.32192,0.74222 0.69069,1.42709 0.71633,2.42786c0.01788,0.69757 -0.00267,1.80667 0.85033,2.36017c0.71945,0.46683 1.148,0.98398 1.14933,1.92267c0.00098,0.69064 0.01468,1.77441 0.42533,2.58533c0.38811,0.76639 0.43001,1.63376 0.796,2.56781c0.25744,0.65704 0.76825,1.54214 0.77867,2.34283c0.0111,0.85327 -0.2723,2.03952 0.44267,2.55734c0.58452,0.42334 1.50113,0.67487 1.77867,1.44266c0.31397,0.86859 0.65082,1.65811 0.77733,2.47736c0.15998,1.03595 0.91411,1.33517 1.654,1.90665c0.54235,0.41891 1.30253,1.16354 2.15717,1.28568c0.94857,0.13556 1.69017,0.009 2.85683,0.009c0.672,0 1.65484,-0.00006 2.54401,0c0.98917,0.00009 1.80345,-0.11578 2.62267,0.16666c0.81216,0.28 1.5768,0.81534 2.488,0.83334c0.85316,0.01688 1.79333,0 2.67867,0c0.75716,0 1.65266,0 2.516,0c0.96317,0 1.91474,-0.06244 2.80534,0.22134c0.69902,0.22275 1.65717,0.65717 2.47733,0.77731l0.84416,0.11566l0.34251,0.73636" id="svg_14" stroke-width="2" stroke="#000" fill="none"/>
  <path t="31307,31615,31615,31632,31650,31651,31682,31682,31699,31699,31699,31715,31715,31731,31749,31749,31765,31782,31782,31799,31799,31799,31815,31831,31832,31832,31849,31849,31849,31865,31865,31881,31898,31899,31899,31915,31949,31949,31965,31965,31981,31982,31982,31999,32015,32015,32032,32048,32065,32081,32082,32098,32099,32115,32131,32132" d="m70,303c1.82933,6.68799 1.98933,7.53583 2,8.41068c0.0111,0.91077 0,1.79999 0,2.78934c0,0.79999 -0.0693,1.80493 0.02133,2.58932c0.085,0.73566 0.77129,1.35498 1.41067,2.00934c0.62452,0.63916 0.56654,1.68533 0.568,2.37598c0.00225,1.06818 0.31926,1.87573 0.64733,2.63968c0.39082,0.91006 0.33765,1.68555 0.35133,2.41766c0.02088,1.11722 0.14015,2.11008 0.363,2.77335c0.25374,0.75522 0.77459,1.69202 1.453,2.33331c0.45604,0.43109 1.12048,1.30832 1.17633,2.00867c0.08252,1.03479 -0.01583,1.98666 0.01967,2.89267c0.02737,0.69852 0.58484,1.57562 0.90533,2.33069c0.33187,0.78186 0.3091,1.85916 0.62566,2.40848c0.52847,0.91705 1.35736,1.28497 1.889,1.81952c0.71988,0.72382 0.87055,1.67834 1.144,2.37598c0.36451,0.92993 1.03629,1.56601 1.38933,2.272c0.39155,0.78296 -0.06036,1.82977 0.47884,2.53168c0.4577,0.59583 1.5355,0.90033 2.3905,1.18832l0.16533,0.72" id="svg_15" stroke-width="2" stroke="#000" fill="none"/>
  <path t="32601,32815,32815,32831,32832,32849,32849,32850,32865,32865,32881,32898,32915,32915,32915,32931,32931,32965,32965,32999,32999,33015,33015,33031,33032,33065,33098,33099,33099,33131,33148,33149,33181,33182,33214,33248,33281,33281,33314,33348,33348,33381,33382,33399,33414,33448,33465,33465,33481,33481,33498,33514,33548,33549,33564,33565,33581,33598,33599,33631,33631,33650,33681,33682,33715,33715,33748,33749,33775,33788,33800,33800,33814,33831,33866,33866,33898,33899,33915,33915,33915,33931,33948,33949,33964,33965,33981,33998,34048,34048,34065,34065" d="m72,308c-0.91467,-4.22934 -0.99467,-5.17865 -1,-6.20001c-0.00417,-0.79999 0,-1.79999 0,-2.59998c0,-0.80002 0,-1.7955 0,-2.54285c0,-1.02118 0.07353,-1.98007 -0.16666,-2.82382c-0.19648,-0.69016 -0.62866,-1.41989 -0.77617,-2.43335c-0.11548,-0.79337 -0.05717,-1.79999 -0.05717,-2.60001c0,-0.99982 0,-1.77914 0,-2.77866c0,-0.77399 0,-1.67401 0,-2.53732c0,-1.00485 0,-2.02667 0,-2.73468c0,-0.74399 0,-1.77866 0,-2.74933c0,-0.75717 0,-1.65268 0,-2.51599c0,-0.96317 0,-1.89468 0,-2.80533c0,-0.85333 -0.16532,-1.84146 0.16666,-2.67868c0.27852,-0.70239 0.78185,-1.48151 0.82883,-2.34732c0.05452,-1.00464 0.71904,-1.5213 0.98367,-2.19434c0.34444,-0.87601 -0.00645,-1.93466 0.73067,-2.34851c0.72385,-0.4064 1.93203,-0.53857 2.20483,-1.31116c0.32268,-0.91379 0.04662,-1.79944 0.0855,-2.77716c0.02859,-0.71872 0.49712,-1.60269 1.321,-1.90036c0.78777,-0.28464 1.53224,-0.84119 1.727,-1.47299c0.31818,-1.03223 0.79485,-1.75854 1.03584,-2.53349c0.24232,-0.77922 0.60808,-1.53392 1.39867,-2.22934c0.60798,-0.53481 1.36685,-1.21144 1.87,-1.83716c0.52317,-0.6506 0.73215,-1.47943 1.29466,-2.09634c0.60822,-0.66702 1.41809,-0.8764 2.11267,-0.97716c1.10315,-0.16003 1.86725,-0.62943 2.7825,-0.8535c0.68534,-0.16779 1.78386,-0.11821 2.2905,-0.82651c0.59202,-0.82765 1.05367,-1.29332 1.99233,-1.29466c0.69067,-0.00098 1.77444,-0.01469 2.58533,-0.42534c0.76639,-0.38812 1.58933,-0.55383 2.56783,-0.57466l0.82017,0" id="svg_16" stroke-width="2" stroke="#000" fill="none"/>
  <path t="36844,37119,37136,37153,37153,37170,37170,37186,37203,37203,37220,37237,37238,37253,37253,37270,37270,37286,37303,37303,37336,37352,37353,37370,37370,37386,37403,37420,37436,37436,37452,37453,37453,37470,37470,37470,37486,37486,37486,37503,37503,37520,37521,37521,37536,37536,37553,37553,37554,37570,37570,37570,37586,37586,37603,37603,37603,37620,37620,37635,37653,37653,37670,37670,37670,37686,37686,37702,37703,37740,37745,37745,37772,37803,37803,37876,37877" d="m111,263c-2.9375,2.47916 -2.92152,3.32434 -3.16666,4.16666c-0.25081,0.86179 -0.74531,1.65555 -0.82883,2.52884c-0.08955,0.93622 0.10313,1.80255 -0.06167,2.65182c-0.17963,0.92575 -0.69749,1.68625 -1.05267,2.40985c-0.37857,0.7713 -1.18061,1.32816 -1.64717,2.22131c-0.34921,0.66852 -0.243,1.6575 -0.243,2.50552c0,0.86331 0.09071,1.9202 -0.284,2.71732c-0.34417,0.73215 -0.68614,1.45001 -0.71467,2.31467c-0.03176,0.96265 -0.00134,1.884 -0.00134,2.78851c0,1.017 0,1.71634 0,2.6955c0,0.81067 0,1.68533 0,2.68533c0,0.83551 0,1.41916 0,2.61432c0,0.87903 0,1.686 0,2.73236c0,0.77332 0,1.73734 0,2.48883c0,0.79648 0,1.79517 0,2.7045c0,0.94131 0,1.73181 0,2.58533c0,1.18933 0,1.78665 0,2.64767c0,1.20831 -0.04456,1.90134 0.16666,2.875c0.14783,0.68143 0.47966,1.39877 0.71184,2.52365c0.17024,0.8248 0.08238,1.78003 0.12417,2.62833c0.03585,0.72775 0.41759,1.73108 0.85867,2.31467c0.46728,0.61826 1.30201,1.57391 1.597,2.20001c0.45519,0.96613 0.27343,1.86899 0.70833,2.66666c0.45132,0.82779 0.82291,1.35403 0.83334,2.448c0.00843,0.88531 0,1.64252 0.009,2.53351l0.16167,0.7825" id="svg_17" stroke-width="2" stroke="#000" fill="none"/>
  <path t="38162,38403,38403,38403,38403,38420,38421,38421,38436,38436,38436,38436,38452,38453,38453,38453,38453,38470,38470,38470,38486,38487,38487,38501,38502,38506,38506,38519,38519" d="m82,324c5.9355,2.6355 6.72334,2.87479 7.768,2.96799c0.62614,0.05588 1.83383,0.01691 2.75284,0.05286c0.63688,0.02493 1.6479,0.13403 2.73633,0.33182c0.76522,0.13907 1.54311,0.32425 2.74284,0.48068c0.79501,0.10364 1.58088,0.13263 2.328,0.228c0.70389,0.08984 1.9101,0.49368 2.41067,0.78934c0.72066,0.42563 1.6733,0.96262 2.508,1.07733c0.90863,0.12488 1.92,0.07199 2.63467,0.07199c0.72266,0 1.75167,0 2.85433,0l0.86833,0" id="svg_18" stroke-width="2" stroke="#000" fill="none"/>
  <path t="40289,40535,40536,40552,40569,40570,40585,40586,40602,40619,40635,40636,40652,40685,40686,40702,40702,40702,40719,40735,40736,40736,40752,40752,40769,40769,40785,40802,40802,40835,40836,40854,40854,40869,40902,40902,40919,40952,41002,41003,41019,41019,41052,41102,41152,41185,41186,41186,41235,41252,41285,41335,41335,41369,41369,41385,41435,41435,41452,41452,41504,41519,41519,41552,41552,41569,41569,41602,41602,41619,41619,41636,41669,41669,41698,41698,41719,41752,41752,41769,41786,41786,41802,41819,41820,41852,41870,41871,41885,41886,41902,41919,41919,41935,41952,41952,41969,41970,41970,41985,41985,42002,42002,42019,42019,42037,42037,42051,42052,42069,42102,42102,42119,42135,42135,42152,42152,42169,42185,42202,42202,42219,42220,42235,42236,42252,42252,42269,42269,42285,42285,42302,42302,42302,42319,42319,42335,42336,42352,42352,42352,42353,42369,42369,42369,42370,42385,42385,42401,42401,42401,42419,42420,42436,42437,42437,42451,42451,42452,42469,42469,42486,42487,42487,42501,42528,42528,42542,42542,42557,42557,42572,42573,42573,42587,42588,42588,42602,42602,42619,42635,42635,42656,42657,42669,42669,42686,42686,42702,42719,42719,42735,42752,42769,42769,42785,42785,42819,42819,42820,42835,42835,42854,42854,42868,42868,42884,42902,42902,42919,42935,43051,43201,43202" d="m84,254c4.228,-2.744 5.14227,-2.98399 6.11467,-3c0.88521,-0.01457 1.64249,0 2.53799,0c0.86333,0 1.8265,0 2.758,0c0.91067,0 1.764,0 2.704,0c0.88533,0 1.69966,0 2.65333,0c0.732,0 1.464,0 2.58134,0c0.984,0 1.656,0 2.64533,0c1.036,0 1.7535,0 2.658,0c0.86333,0 1.91294,-0.06001 2.54867,0.56799c0.5164,0.51013 1.27346,1.32762 2.00934,1.41068c0.98299,0.11095 1.82124,-0.11842 2.684,0.37399c0.76246,0.43518 1.40858,0.68839 2.12,1.222c0.69844,0.5239 1.20003,1.21213 1.7425,1.72002c0.78232,0.73245 1.75033,0.72015 2.291,1.40982c0.55988,0.71417 1.31042,1.14316 2.1185,1.62885c0.71786,0.43146 1.17736,0.96631 2.07167,1.55682c0.70641,0.46643 1.20834,1.07352 2.083,1.10999c0.85335,0.03558 1.74518,0.3717 2.47733,0.71585c0.79713,0.37473 1.88681,0.16254 2.54868,0.39832c0.83972,0.29913 1.25085,1.30652 2.05266,1.82434c0.73404,0.47406 1.39368,0.79813 2.36801,0.97601c0.72289,0.13199 1.89867,0.08527 2.71117,0.08533c0.84216,0.00009 1.74416,-0.1041 2.6355,0.284c0.74174,0.32294 1.56409,0.71182 2.36932,1.284c0.54858,0.3898 1.30496,1.24246 2.10535,1.41068c0.91182,0.19165 1.89465,0.02133 2.58533,0.02133c1.06816,0 1.92551,0 2.71066,0c0.94,0 1.96976,-0.14764 2.70401,0.03601c0.88174,0.22058 1.56868,0.86093 2.41066,0.94315c0.97409,0.09512 1.77608,0.14825 2.52083,0.52084c0.93782,0.46921 1.67747,0.28467 2.722,0.509c0.80534,0.17297 1.18597,1.15469 2.0905,1.65765c0.61772,0.34348 1.41585,0.32266 2.52383,0.33334c0.75748,0.00729 1.8,-0.00052 2.54733,0c0.9955,0.00067 1.81352,-0.04333 2.79533,0.22134c0.79913,0.21545 1.62352,0.67935 2.49567,0.77417c0.82088,0.08926 1.78127,0.3063 2.47917,0.57916c0.93097,0.36398 1.82533,0.42532 2.5825,0.42532c0.89549,0 1.75883,0 2.722,0c0.93149,0 1.84216,-0.00119 2.6955,0c0.94,0.00134 1.6405,0.15616 2.23599,0.85068c0.48849,0.56976 1.42303,1.11093 2.19067,1.14667c0.99759,0.04642 1.79866,0.00266 2.79866,0.00266c0.8,0 1.80017,0 2.62083,0c0.66451,0 1.9299,-0.03497 2.71783,0.03601c0.93338,0.08411 1.56967,0.50732 2.59467,0.79733c0.66797,0.189 1.52396,0.16034 2.15468,0.16531c1.39461,0.01099 2.12666,0.00134 2.85066,0.00134c0.692,0 1.892,0 2.87599,0c0.95201,0 1.73351,0 2.524,0c1.11867,0 1.912,0 2.80434,0c0.729,0 1.56599,0 2.75667,0c0.879,0 1.686,0 2.55766,0c0.948,0 1.91068,0 2.64267,0c0.73199,0 1.828,0 2.80901,0c0.66167,0 1.69633,0 2.44032,0c1.108,0 1.90134,0 2.79367,0c0.729,0 1.56599,0 2.75667,0c0.879,0 1.686,0 2.55733,0c0.94034,0 1.77901,0 2.80017,0c0.74733,0 1.74283,0 2.54283,0c0.99983,0 1.77917,0 2.7785,0c0.82016,0 1.6575,0 2.67416,0c0.69467,0 1.71133,0 2.65184,0c0.86217,0 1.6955,0 2.67433,0c0.83099,0 1.7905,0 2.54199,0c0.79651,0 1.79384,0 2.6685,0c1.0105,0 1.78983,0 2.78915,0c0.82019,0 1.6575,0 2.67419,0c0.69464,0 1.71133,0 2.64282,-0.00449l0.68982,-0.42084l0.58401,-0.48935l0.7825,-0.08084" id="svg_19" stroke-width="2" stroke="#000" fill="none"/>
  <path t="44409,44818,44835,44835,44835,44851,44852,44852,44852,44868,44869,44869,44885,44885,44885,44885,44901,44901,44901,44902,44918,44919,44934,44935,44935,44951,44952,44968,44969,44984,45001,45001,45001,45018,45019,45034,45084,45118,45119,45135,45168,45184,45201,45251,45251,45284,45318,45334,45368,45484,45485,45518,45518,45568,45568,45601,45601,45618,45634,45651,45668,45668,45669,45702,45718,45734,45751,45752,45801,45818,45834,45835,45835,45884,45885,45901,45901,45918,45918,45934,45951,45968,45984,45985,45985,46018,46018,46044,46044,46058,46084,46118,46134,46135,46151,46234,46251,46268,46318,46318,46351,46368,46368,46418,46418,46451,46484,46501,46501,46534,46535,46552,46568,46568,46584,46618,46618,46634,46668,46668,46702,46718,46734,46784,46784,46851,47034,47054,47072,47073,47073,47094,47094,47115,47115,47130,47130,47130,47156,47156,47156,47158,47158,47183,47184,47207,47207,47227,47227,47247,47269,47269,47290,47290,47292,47293,47316,47317,47337,47337,47337,47359,47359,47379,47401,47422,47423,47868,47900,47951,47973,47997,47997,48022,48047,48071,48100,48101,48135,48161,48161,48186,48186,48210,48251,48300,48301,48324,48384,48467,48468,48518,48519,48584,48607,48634,48657,48658,48683,48683,48711,48739,48742,48767,48768,48794,48818,48819,48850,48851,48851,48874,48917,48941,48984,49017,49018,49050,49051,49117,49118,49183,49184,49234,49257,49283,49333,49334,49383,49384,49434,49467,49468,49492,49517,49519,49519,49544,49545,49570,49572,49572,49604,49627,49648,49648,49670,49670,49670,49672,49672,49674,49675,49731,49731,49733,49733,49733,49882,49883,49883,49883,49913,49913,49913,49913,49913,49914,49914,49914,49914,49942,49943,49943,49943,49943,49943,49944,49944,49944,49971,49971,49971,50050,50100,50168,50191,50217,50217,50243,50244,50269,50269,50272,50272,50272,50296,50319,50319,50319,50342,50343,50366" d="m281,263c-2.45834,-4.33334 -2.89255,-3.45868 -2.97467,-2.728c-0.0939,0.83536 -0.1463,1.7392 -0.38699,2.6235c-0.24005,0.88199 -0.47781,1.44882 -1.12234,2.42181c-0.48181,0.72736 -0.93558,1.15515 -1.49466,2.3255c-0.30997,0.64886 -0.50937,1.38226 -0.77399,2.10901c-0.39621,1.08817 -0.71747,1.767 -1.2265,2.68567c-0.30359,0.54785 -0.81143,1.61044 -1.12619,2.36783c-0.40991,0.9863 -0.7681,1.43222 -1.18933,2.18933c-0.56714,1.01929 -0.71912,1.76581 -1.05798,2.65802c-0.26791,0.70538 -0.62933,1.73215 -0.64734,2.68066c-0.01276,0.67188 0,1.66132 0,2.69598c0,0.76801 0,1.67068 0,2.49152c0,0.96317 -0.22641,1.8569 0.00449,2.7175c0.21979,0.81912 0.9736,1.33432 1.70084,1.7135c0.91708,0.47818 1.18201,1.07474 1.29483,2.02649c0.10254,0.86502 0.79114,1.40744 1.35703,1.97351c0.62939,0.62964 1.22174,1.22772 1.52167,2.02664c0.30582,0.81461 1.06271,1.33878 1.55316,1.90686c0.58401,0.67648 0.58914,1.65817 0.99332,2.47867c0.42786,0.86853 0.98807,1.49377 1.74133,1.96933c0.70682,0.44623 1.34671,0.90454 1.71902,1.90948c0.33447,0.90283 0.68802,1.56433 1.02899,2.32651c0.32126,0.71808 0.00482,1.677 0.08667,2.63199c0.08365,0.9758 0.36441,1.6828 0.88531,2.31467c0.67172,0.81479 1.52386,1.09482 2.22668,1.68533c0.58539,0.49185 0.85678,1.45001 0.88531,2.31467c0.03177,0.96265 0.06873,1.83444 0.50134,2.52567c0.48422,0.77365 0.41428,1.51004 0.66934,2.19168c0.38434,1.02716 1.33105,1.40988 1.71634,2.41934c0.25052,0.6564 0.125,1.70065 0.61432,2.34732c0.48932,0.64667 0.26801,1.53415 0.55716,2.29016c0.34317,0.89728 0.49942,1.58881 1.05716,2.35266c0.47891,0.65588 1.74353,0.7771 1.86435,1.54251c0.14493,0.91821 0.02133,1.81467 0.02133,2.57184c0,0.89551 -0.17239,1.77817 0.02084,2.72198c0.17844,0.87146 0.8746,1.67899 0.95831,2.52084c0.08249,0.8295 0.09909,1.68451 0.52084,2.52084c0.39871,0.79062 0.25406,1.68723 0.50266,2.5925c0.23376,0.85129 1.44128,0.59201 1.92535,1.33331c0.47983,0.73483 0.07193,1.728 0.07199,2.668c0.00009,0.98517 0.45966,1.57022 0.87851,2.32819c0.3631,0.65707 -0.0145,1.68127 0.12164,2.65698c0.11191,0.80197 1.16577,1.06876 1.83585,1.3255c0.76447,0.29291 1.76282,0.54099 2.564,0.57019c0.99936,0.03644 1.85019,-0.03784 2.80017,0.44714c0.65399,0.33389 1.20947,0.96817 2.22101,1.31433c0.76797,0.26282 1.56897,0.23849 2.6095,0.24301c0.85199,0.00369 1.80533,0 2.57065,0c0.99869,0 1.79868,0 2.79736,0c0.76532,0 1.7641,-0.16531 2.60132,0.16666c0.70242,0.27853 1.48126,0.78647 2.34732,0.82886c1.0155,0.04968 1.854,0.00449 2.81934,0.00449c0.85419,0 1.83334,0 2.63333,0c0.80002,0 1.7955,0 2.54285,0c1.02118,0 1.85849,0 2.82382,0c0.83334,0 2.1705,0.51242 2.37201,-0.01068c0.29602,-0.76843 -1.45218,-0.6138 -2.20532,-1.32266c-0.53613,-0.50461 -0.94501,-1.3627 -1.29733,-2.10266c-0.37183,-0.78091 -0.22705,-1.90134 -0.92267,-2.27866c-0.8497,-0.46091 -1.90698,-0.57776 -2.07169,-1.30618c-0.2114,-0.93494 0.35303,-1.90903 -0.12698,-2.69382c-0.44257,-0.72354 -1.35266,-1.12473 -1.62933,-1.80267c-0.3739,-0.9162 -1.16583,-1.05414 -1.952,-1.64932c-0.54028,-0.40903 -0.20837,-1.50815 -0.41867,-2.34933c-0.22018,-0.88071 -1.40744,-1.10416 -1.85751,-1.84567c-0.49875,-0.82172 0.16934,-1.86002 -0.62515,-2.46899c-0.60202,-0.46146 -1.58838,-0.59146 -2.14801,-1.25336c-0.48856,-0.57782 -0.66476,-1.5574 -0.93134,-2.26331c-0.37851,-1.00232 -0.81219,-1.73044 -1.53799,-2.28867c-0.66391,-0.51065 -1.23456,-1.15857 -1.52802,-1.88c-0.40817,-1.00342 -0.77094,-1.70688 -1.45599,-2.20001c-0.73401,-0.52838 -1.77585,-0.53027 -2.289,-1.30484c-0.49423,-0.746 -0.76324,-1.42865 -1.375,-2.14581c-0.51563,-0.60449 -0.88712,-1.47351 -1.31598,-2.008c-0.63062,-0.78592 -1.29977,-1.37155 -1.76535,-2.112c-0.47061,-0.74847 -0.08533,-1.71335 -0.08533,-2.69183c0,-0.82019 0,-1.6575 0,-2.67419c0,-0.69464 0,-1.71133 0,-2.65182c0,-0.86215 0,-1.6955 0,-2.67398c0,-0.82019 0,-1.6575 0,-2.67419c0,-0.69464 0,-1.71133 0,-2.65182c0,-0.86215 -0.0593,-1.73166 0.16666,-2.6955c0.19189,-0.81857 0.51984,-1.39023 0.75067,-2.39868c0.17377,-0.75912 0.6326,-1.74228 1.26801,-2.19064c0.77081,-0.54391 1.46683,-1.05191 1.69333,-1.95334c0.17413,-0.69293 0.07837,-1.73758 0.51901,-2.70599c0.24426,-0.53683 0.82233,-1.24197 1.17166,-1.74335c0.93332,-1.33948 1.52365,-2.20599 2.18668,-3.18399c0.71906,-1.06061 1.47198,-2.17868 2.24399,-3.32401c0.772,-1.14532 1.52414,-2.26392 2.24399,-3.32401c1.25278,-1.84485 1.76056,-2.57626 2.18668,-3.18134c0.34888,-0.49536 0.63434,-0.8909 0.86099,-1.203c0.17609,-0.24249 0.3157,-0.42529 0.41101,-0.573c0.13812,-0.21405 0.23062,-0.31238 0.29599,-1.104c0.07648,-0.92624 0.48877,-1.64029 0.91602,-2.39999c0.40143,-0.71384 0.5766,-1.4603 1.23465,-1.776c0.76697,-0.36798 0.83054,-1.36655 1.13602,-2.33865c0.19324,-0.61493 0.72919,-1.59302 1.104,-2.38934c0.33853,-0.71927 0.5242,-1.62552 0.944,-2.54401c0.31927,-0.69858 0.81598,-1.41599 1.33331,-2.33331l0.29169,-0.79169l0.04166,-0.84616" id="svg_20" stroke-width="2" stroke="#000" fill="none"/>
  <path t="51994,52083,52084,52084,52099,52099,52099,52099,52117,52118,52118,52118,52118,52132,52132,52132,52150,52150,52150,52150,52167,52167,52182,52182,52200,52200,52217,52217,52232,52233,52250,52267,52267,52300,52317,52317,52333,52350,52350,52383,52400,52400,52417,52450,52450,52483,52500,52500,52533,52550,52550,52567,52582,52582,52600,52617,52617,52650,52683,52684,52699,52799,52800,52917,52933,52933,52950,52966,52966,52966,52982,52982,52982,52983,53000,53000,53017,53017,53017,53017,53032,53033,53033,53033,53033,53050,53051,53051,53067,53067,53100,53100,53100,53135,53149" d="m323,283c1.75699,6.59283 1.95493,7.63977 1.991,8.49182c0.03558,0.84082 0.00446,1.82275 0.02985,2.54984c0.02679,0.76773 0.12955,1.96094 0.2645,2.75702c0.13452,0.79355 0.31604,1.56775 0.51599,2.31598c0.28528,1.06747 0.60477,2.04489 0.76266,2.67468c0.30161,1.20303 0.37262,1.80798 0.41516,2.68982c0.04028,0.83478 0.02084,2.06369 0.02084,2.71017c0,1.0105 -0.10196,1.79507 0.00034,2.78915c0.08575,0.83328 0.90903,1.37207 1.517,1.90686c0.79059,0.69543 1.2402,1.42993 1.42551,2.35748c0.16833,0.84259 0.05716,1.64252 0.05716,2.58252c0,1.008 0,1.76398 0,2.6955c0,0.96317 0,1.65381 0,2.72198c0,0.85733 0,1.64252 0,2.58252c0,1.008 0,1.76398 0,2.6955c0,0.96317 0,1.65381 0,2.72198c0,0.85733 0,1.64252 0,2.58252c0,1.008 0,1.76398 0,2.6955c0,0.96317 0,1.65381 0,2.72198c0,0.85733 0,1.64252 0,2.58252c0,1.008 -0.00064,1.76398 0,2.6955c0.00067,0.96182 -0.14746,1.98288 0.5625,2.45831c0.83917,0.56195 1.70599,0.45978 2.25882,0.59552c1.17194,0.28772 2.07486,0.36545 2.94269,0.45065c0.55112,0.05411 1.78082,0.35104 2.49731,0.54935c1.06284,0.29416 1.70847,0.35489 2.41068,0.38931c1.13608,0.05566 2.328,0.03601 3.12668,0.03601c0.79065,0 1.56534,0 2.31598,0c1.06351,0 2.02802,0 2.86652,0c0.87616,0 1.66949,0 2.78683,0c0.73199,0 1.46399,0 2.56,0l0.87332,0" id="svg_21" stroke-width="2" stroke="#000" fill="none"/>
  <path t="53726,53886,53886,53886,53886,53898,53899,53899,53899,53917,53918,53918,53918,53918,53933,53933,53933,53949,53950,53950,53950,53967,53967,53967,53999,54000,54000,54017,54017,54017,54033,54033,54050,54067,54067,54083,54099,54116,54117,54133,54133,54150,54183,54183,54183,54199,54200,54200,54233,54233,54249,54250,54283,54283,54299,54333,54399,54400,54433,54433,54483,54500,54500,54549,54567,54567" d="m350,285c0.00134,3.88535 -0.00079,4.63644 0.03601,5.41068c0.0376,0.79129 0.172,1.99173 0.32117,2.78934c0.15012,0.80264 0.34592,1.60031 0.64282,2.79999c0.19772,0.79892 0.39853,1.58731 0.564,2.36401c0.15955,0.74881 0.31296,1.8147 0.38785,2.47882c0.10678,0.94681 0.35986,2.16611 0.61615,2.75583c0.26099,0.60056 0.82104,1.40704 1.189,2.48001c0.23248,0.67792 0.23068,1.60541 0.24435,2.60666c0.01141,0.83566 0.00134,1.42792 0.22,2.61432c0.16357,0.88745 0.48407,1.67264 0.65717,2.55734c0.18201,0.93036 0.12149,1.77899 0.12149,2.79568c0,0.69464 0,1.71133 0,2.65182c0,0.86215 -0.05054,1.69681 0.00015,2.67398c0.04269,0.82349 0.60538,1.52661 0.83319,2.35486c0.25134,0.91379 0.1644,1.77567 0.16666,2.66666c0.00223,0.89099 -0.03696,1.72873 0,2.66666c0.03601,0.91415 0.77469,1.55963 1.29468,2.09052c0.63138,0.64462 0.70081,1.59012 0.70532,2.48566c0.00482,0.9585 0,1.92383 0,2.58252c0,1.008 -0.00073,1.87015 0,2.81064c0.00067,0.84802 0.05716,1.71133 0.35266,2.60684l0.48068,0.75717l0.21933,0.75717" id="svg_22" stroke-width="2" stroke="#000" fill="none"/>
  <path t="56507,56699,56699,56734,56734" d="m404,245c2.82849,4.1375 2.996,4.96666 3,5.76801l0,0.98132" id="svg_23" stroke-width="2" stroke="#000" fill="none"/>
  <path t="57425,57616,57616,57616,57632,57632,57632,57633,57649,57649,57649,57649,57666,57666,57666" d="m400,310c6.59283,-1.75699 7.63977,-1.95493 8.49182,-1.991c0.84082,-0.03558 1.81802,-0.009 2.52902,-0.009c0.73099,0 2.15765,0 2.82199,0c0.63632,0 1.55585,0 2.75449,0l0.86102,0l0.771,0" id="svg_24" stroke-width="2" stroke="#000" fill="none"/>
  <path t="59574,59782,59782,59798,59799,59799,59816,59816,59833,59833,59833,59874,59874,59875,59876,59919,59919,59919,59919,59960,59961,59961,59961,59961,59961,59962,59962,59962,60000,60000,60000,60015,60016,60016,60016,60016,60057,60057,60057,60059,60059,60059,60101,60101,60102,60116,60116,60116,60117,60117,60117,60117,60157,60157,60157,60200,60200,60201,60202,60248,60249,60348,60365,60398,60399,60415,60432,60465,60466,60482,60482,60498,60515,60532,60532,60548,60565,60566,60582,60582,60598,60615,60632,60632,60673,60674,60674,60675,60675,60718,60718,60719,60719,60760,60760,60760,60760" d="m35,144c-4.22933,-4.57333 -4.95524,-4.93373 -6,-5c-0.78804,-0.04999 -1.57948,-0.09174 -2.25183,-0.70984c-0.6262,-0.57568 -1.27608,-1.29709 -1.99883,-1.65416c-0.73025,-0.36078 -1.84142,-0.76808 -2.328,-1.272c-0.73133,-0.75739 -1.02335,-1.61734 -1.75467,-2.19733c-0.63298,-0.502 -1.25984,-0.68271 -2.15467,-1.30667c-0.70465,-0.49136 -1.40196,-1.18951 -1.75117,-1.57967c-0.71934,-0.8037 -1.07601,-1.21962 -1.62083,-2.11501c-0.7205,-1.18409 -0.93967,-1.93674 -1.13333,-2.87199c-0.19781,-0.95525 -0.48368,-1.65788 -0.654,-2.27016c-0.3354,-1.20576 -0.29996,-2.09082 -0.31667,-2.5605c-0.03456,-0.97172 -0.03937,-1.92801 -0.03583,-3.17667c0.00186,-0.65735 -0.08545,-1.47242 0.22167,-2.48584c0.24667,-0.81397 0.69628,-1.39423 1.55283,-1.9175c0.78717,-0.48087 1.5106,-0.68153 2.72533,-1.216c0.46587,-0.20498 1.45701,-0.66965 1.976,-0.90666c1.04602,-0.47769 1.56062,-0.71103 2.072,-0.90667c1.37368,-0.52554 2.16535,-0.73521 3.148,-0.82133c0.96749,-0.0848 1.9208,-0.09025 2.78667,-0.02933c0.81318,0.05721 1.45769,0.70147 1.51467,1.51466c0.07493,1.06938 0.02928,2.07655 -0.70267,2.4345c-0.6814,0.33324 -0.91068,1.29997 -1.58,1.87749c-0.63034,0.54388 -1.60903,0.23201 -2.54,0.596c-0.6979,0.27287 -1.65366,0.56425 -2.58533,0.57467c-0.91061,0.01019 -1.58933,0 -2.704,0c-0.88533,0 -1.6425,0 -2.538,0c-0.86333,0 -1.83309,0.10045 -2.758,-0.01067c-0.92812,-0.1115 -1.66715,-0.43888 -2.42267,-1.156c-0.46344,-0.43989 -0.88335,-1.22742 -1.36533,-2.23467c-0.29353,-0.61343 -0.63981,-1.76451 -0.72,-2.28533c-0.13145,-0.85374 -0.336,-1.8 -0.74533,-2.83434l-0.394,-0.72266l-0.442,-0.71467l-0.442,-0.67467" id="svg_25" stroke-width="2" stroke="#000" fill="none"/>
 </g>
 <g display="none">
  <title>muse_image</title>
  <image xlink:href="http://farm2.static.flickr.com/1164/1151210978_7be7886beb.jpg" id="muse" height="480" width="640" y="0" x="0"/>
 </g>
 <g display="none">
  <title>bbox</title>
  <rect stroke="#f00" fill="none" stroke-width="3" height="375.04" width="513.28" y="38.4" x="34.56" id="bbox"/>
 </g>
</svg>
