<svg width="640" height="480" xmlns="http://www.w3.org/2000/svg" xmlns:svg="http://www.w3.org/2000/svg" xmlns:xlink="http://www.w3.org/1999/xlink">
 <!-- Sketchy ANNOTATION
  ImageNet ID: n02395406_2303
  URL: http://www.theage.com.au/ffximage/2006/07/12/svPIGS_wideweb__470x306,0.jpg
  Image Width: 470
  Image Height: 306
  BBox X: 214
  BBox Y: 132
  BBox Width: 230
  BBox Height: 143
  Exposure: 2000ms
  Synset Label: pig
  Synset ID: n02395406
  Worker Tag: woman feeding fat black pig
  Sanity Check: 
   Context
   Saved
   Shading
  Comment: 
   {}
  Worker ID: A2HM35CWB7IIFM
  Assignment ID: 3KB8R4ZV1E737C8J4EPRU7VL2R1GBY
  HIT ID: 31HLTCK4BLVGT68VJTBP6ZU74V4VGJ
  Work Time: 100s
  Worker Score: 0.9286
 END ANNOTATION -->
 <g display="inline">
  <title>Layer 1</title>
  <path t="0,139,140,141,141,149,149,162,173,210,222,223,223,223,236,236,236,246,246,246,258,259,259,272,272,272,287,287,296,308,308,308,321,321,337,337,346,346,357,357,371,371,388,388,394,394,407,420,421,421,437,437,444,444,444,456,456,456,472,472,472,488,488,488,493,505,505,522,555,572,594,629,641,665,715,716,729,764,790,805,805,814,826,839,862,888,905,923,950,986,1036,1036,1060,1085,1098,1109,1124,1141,1147,1157,1157,1171,1172,1187,1195,1207,1207,1207,1232,1246,1259,1259,1270,1287,1295,1305,1343,1376,1377,1384,1405,1504,1590,1591,1628,1644,1654,1654,1664,1664,1664,1676,1676,1676,1687,1706,1724,1738,1761,1798,1798,1813,1828,1860,1910,1934,1947,1948,2021,2043,2043" d="m339,215.89999c-0.56934,2.33601 -0.85458,3.10411 -1.18533,3.89868c-0.16318,0.39204 -0.69971,1.78273 -1.17868,2.34666c-0.62848,0.73996 -1.3797,1.08519 -1.99765,1.711c-0.68253,0.69119 -1.31161,1.09912 -1.61749,1.60616c-0.49329,0.81772 -0.85736,2.03529 -0.97018,2.62685c-0.16254,0.85228 -0.45569,1.91373 -0.91199,2.57466c-0.45428,0.65804 -1.10703,1.44322 -1.52402,2.036c-0.56989,0.81012 -1.13272,1.43112 -1.86533,1.97867c-0.72116,0.53899 -1.63092,0.91583 -2.44034,1.2695c-0.75772,0.33109 -1.63269,0.97482 -2.31433,1.24733c-0.73444,0.29362 -1.67099,0.49503 -2.60931,0.72984c-0.88025,0.22029 -1.5885,0.54131 -2.36401,1.07466c-0.67352,0.46321 -1.47998,1.15733 -2.23199,1.464c-0.96112,0.39194 -1.76877,0.40617 -2.62268,0.43599c-0.79233,0.02766 -1.63739,0.31734 -2.51398,0.64734c-0.88788,0.33424 -1.81857,0.52127 -2.48868,0.778c-0.76447,0.29288 -1.76733,0.54184 -2.62115,0.57018c-0.96384,0.03198 -1.77884,0.00449 -2.64734,0.00449c-0.89551,0 -1.79102,0 -2.65952,0c-1.06934,0 -1.78333,0 -2.68866,0c-0.96851,0 -1.76199,0 -2.53751,0c-1.03915,0 -2.00983,0 -2.80981,0c-0.90002,0 -1.81985,0.16821 -2.70001,-0.02083c-0.84442,-0.18137 -1.17236,-1.20773 -1.72134,-1.85783c-0.56097,-0.66431 -1.03772,-1.34496 -1.57999,-1.92133c-0.66766,-0.70967 -1.39566,-1.15729 -2.29868,-1.20001c-0.89899,-0.04253 -1.69998,0 -2.60001,0c-0.89999,0 -1.92093,-0.00539 -2.32532,0.61067c-0.48309,0.73593 -1.46408,1.00974 -1.91751,1.74651c-0.44275,0.71944 -0.05716,1.74283 -0.05716,2.64282c0,0.8 -0.01682,1.70016 0,2.60001c0.01801,0.96451 0.63879,1.45772 1.08401,2.20134c0.48151,0.80421 0.7832,1.64911 1.20132,2.39999c0.41684,0.74858 1.05972,1.4287 1.35748,2.146c0.36209,0.87227 0.25421,1.87779 0.52383,2.81934c0.19589,0.68413 0.64301,1.34364 1.22269,2.19734c0.49649,0.73117 0.84094,1.59631 1.258,2.336c0.42004,0.74503 1.14529,1.29388 1.34818,2.00449c0.25815,0.90424 0.92075,1.44983 1.00449,2.2955c0.07883,0.79611 0.05545,1.70096 0.5,2.5c0.44562,0.80096 0.59119,1.7565 1.30133,2.21466c0.70972,0.45789 1.71951,0.28534 2.68533,0.28534c0.76001,0 1.67999,0 2.466,0c0.82199,0 1.88068,0 2.80066,0c0.76001,0 1.72583,0 2.64667,0c0.89999,0 1.80002,0 2.70001,0c0.89999,0 1.67743,-0.12427 2.5,-0.57465c0.7804,-0.42728 1.69998,-0.42535 2.60001,-0.42535c0.89999,0 1.79999,0 2.59998,-0.08533l0.70001,-0.43549l0.70001,-0.67786l0.59998,-0.51599" id="svg_1" stroke-width="2" stroke="#000" fill="none"/>
  <path t="3305,3550,3574,3596,3648,3649,3673,3695,3698,3708,3733,3733,3757,3782,3782,3794,3818,3831,3855,3873,4016,4044,4045,4058,4485,4510,4547,4547,4620,4642,4656,4705,4721,5088,5114,5129,5163,5273,5274,5298,5315,5315,5384,5420,5433,5457,5477,5505,5557,5576,5605,5629,5644,5644,5656,5673,5678,5702,5702,5723,5723,5724,5728,5739,5757,5770,5771,5778,5778,5801,5839" d="m312,265.89999c-0.05716,1.70001 -0.56143,2.46863 -0.94733,3.30002c-0.40475,0.87201 -0.79907,1.56155 -1.45267,2.08932c-0.74463,0.60129 -1.79855,0.41275 -2.51733,0.89465c-0.65915,0.44193 -1.31393,0.61246 -2.19733,1c-0.95416,0.41858 -1.61404,0.52301 -2.48535,0.75201c-0.85583,0.22491 -1.18347,1.25769 -1.75266,1.91132c-0.51947,0.59653 -0.89273,1.52124 -1.64734,1.88602c-0.73547,0.35553 -1.74069,0.23596 -2.22116,1.04532c-0.3248,0.54709 0.32199,1.22055 0.82117,1.72134c0.69662,0.69888 1.05484,1.6438 1.62134,2.27866c0.53546,0.6001 1.18723,1.11496 1.77866,1.62134c0.59442,0.50894 1.47565,0.61862 2.05267,1.14734c0.69131,0.63345 1.09131,1.18414 1.798,1.75266c0.78915,0.63486 1.02521,1.43533 1.67017,2.07919c0.64056,0.63947 1.46365,0.93735 1.97916,1.52081c0.56357,0.63788 1.29486,1.09506 2,1.5c0.79294,0.45535 1.70001,0.5 2.60001,0.5c0.89999,0 1.69998,0 2.60001,0c0.89999,0 1.84402,-0.05255 2.78531,0.28534c0.74823,0.26859 1.50769,0.72919 2.30402,1.104c0.71927,0.33853 1.68964,0.60025 2.61066,0.61066c0.90445,0.01022 1.76666,0 2.60001,0c0.97849,0 1.79868,0 2.70001,0l0.89999,0" id="svg_2" stroke-width="2" stroke="#000" fill="none"/>
  <path t="6879,7036,7047,7057,7070,7088,7089,7145,7196,7218,7242,7242,7255,7255,7270,7280,7280,7292,7304,7304,7304,7341,7341,7378,7389" d="m338,215.89999c0,-1.7 -0.18237,-2.62299 0.02084,-3.5c0.22372,-0.96556 1.07315,-1.42384 1.54315,-2.09999c0.56012,-0.8058 1.05502,-1.29373 1.95685,-1.42084c0.81714,-0.11516 1.62576,-0.64221 2.45764,-0.85767c0.80246,-0.20784 1.77869,-0.12151 2.67419,-0.12151c0.86331,0 1.73267,0 2.68066,0c0.91733,0 1.66132,0 2.69598,0l0.76801,0l0.90268,-0.05716l0.82083,-0.44284" id="svg_3" stroke-width="2" stroke="#000" fill="none"/>
  <path t="8106,8266,8278,8279,8279,8295,8295,8295,8296,8296,8310,8311,8311,8311,8316,8316,8316,8316,8326,8326,8338,8339,8339,8353,8353,8363,8387,8387,8410,8426,8647,8672,8672,8672,8682,8683,8683,8697,8697,8698,8707,8708,8708,8721,8721,8722,8739,8739,8739,8746,8746,8756,8757,8770,8789,8794,8794,8806,8820,8837,8842,8868,8906,8930,8931,8954,8954,8971,8971,8979,8979" d="m379,204.89999c-1.672,-1.02533 -2.54453,-1.2168 -3.28265,-1.43599c-0.88519,-0.26288 -1.8829,-0.56798 -2.60269,-0.76401c-0.74951,-0.20413 -1.52505,-0.40103 -2.31598,-0.59999c-1.19812,-0.30141 -1.99246,-0.50299 -2.77783,-0.67917c-0.76208,-0.17094 -1.85269,-0.36835 -2.85919,-0.46817c-0.6192,-0.0614 -1.4971,-0.05107 -2.70898,-0.40984c-0.69406,-0.20547 -1.61874,-0.64432 -2.40085,-0.94283c-0.78992,-0.3015 -1.72495,-0.68924 -2.37982,-1.08934c-0.77991,-0.47647 -1.672,-0.61067 -2.47198,-0.61067c-0.90002,0 -2.72803,-0.92801 -2.72803,0c0,0.69467 1.39432,-0.06355 2.21469,0.17067c1.03278,0.29486 1.54068,0.6873 2.36066,1.18117c1.03372,0.6226 1.73151,0.9991 2.34818,1.40083c0.82556,0.53783 1.41141,1.07611 2.00449,1.65184c0.80942,0.78575 1.41187,1.37549 1.94284,1.9955c0.66458,0.77602 1.09103,1.36842 1.37051,2.2c0.32684,0.97253 0.28439,1.8 0.28665,2.79868c0.00171,0.76532 0,1.71599 0,2.70132c0,0.89999 0,1.7 0,2.60001c0,0.89999 0,1.79999 0,2.7c0,0.89999 -0.04852,1.80132 0.00015,2.70016c0.04272,0.78862 0.3157,1.57475 0.70435,2.24716c0.54004,0.93434 1.09549,1.53667 1.591,2.30534l0.34732,0.69466" id="svg_4" stroke-width="2" stroke="#000" fill="none"/>
  <path t="10005,10164,10180,10180,10199,10199,10199,10202,10203,10215,10215,10225,10225,10237,10253,10283,10283,10321,10347,10361,10361,10377,10389,10389,10395,10395,10406,10406,10421,10421,10443,10456,10471,10471,10489,10494,10517,10543" d="m376,205.89999c1.75717,0 2.66165,0 3.46167,0c0.95966,0 1.76367,0 2.58566,0c1.03101,0 1.91101,0 2.93134,0c0.77399,0 1.67407,-0.00934 2.53732,0c0.96335,0.01042 1.91537,0.26453 2.31735,1c0.40207,0.73566 0.77905,1.58223 1.14133,2.40001c0.3476,0.78465 0.78323,1.4476 1.54617,2.09999c0.76031,0.65013 1.50055,0.96594 2.3125,1.5c0.68591,0.45117 1.48334,0.92122 2.1875,0.97917c0.97607,0.08032 2.04892,-0.21147 2.73633,0.24217c0.72833,0.48065 1.28738,1.08971 2.04282,1.49466c0.75598,0.40524 1.60001,0.70934 2.40002,1.19867l0.89999,0.08533" id="svg_5" stroke-width="2" stroke="#000" fill="none"/>
  <path t="11113,11295,11295,11309,11309,11309,11309,11326,11326,11326,11326,11332,11333,11333,11347,11347,11347,11358,11358,11358,11371,11371,11371,11371,11380,11380,11380,11380,11380,11380,11392,11392,11392,11392,11393,11393,11404,11405,11405,11405,11405,11405,11421,11421,11421,11421,11430,11430,11430,11430,11442,11442,11442,11442,11442,11454,11454,11454,11454,11454,11455,11470,11471,11471,11471,11471,11471,11471,11471,11472,11479,11479,11480,11480,11480,11480,11480,11480,11480,11490,11490,11490,11491,11491,11491,11491,11491,11491,11503,11503,11503,11503,11520,11520,11552,11589" d="m407,216.89999c2.60901,0 3.51434,-0.00359 4.64282,0.00017c0.66702,0.00221 1.37958,-0.00302 2.10901,0.05701c1.43124,0.1178 2.09073,0.29668 3.03751,0.5175c0.60916,0.14209 1.81036,0.34464 2.41068,0.39999c0.89954,0.08296 2.10208,0.23679 2.6955,0.37801c0.87207,0.20753 1.93347,0.51436 2.65182,0.59016c0.90186,0.09517 1.87488,0.04613 2.72067,0.06784c0.65094,0.01671 1.3912,0.05766 2.6965,0.21066c1.00861,0.11823 1.54324,0.20581 2.09799,0.27866c1.15051,0.15109 1.73987,0.23399 2.9375,0.33334c1.19733,0.09933 1.79538,0.11368 2.38934,0.13066c1.17444,0.03358 1.75348,0.03375 3.444,0.036c0.54483,0.00072 1.60049,0 2.10931,0c0.97467,0 1.88535,0.00359 3.11435,-0.00015c0.72867,-0.00221 1.40552,0.02423 2.34033,-0.08517c1.21353,-0.14203 1.82437,-0.3493 2.47467,-0.52533c0.69907,-0.18922 1.86969,-0.49509 2.74231,-0.68933c0.92599,-0.20613 1.40668,-0.30162 2.38834,-0.5c1.49768,-0.30264 2.004,-0.40134 3.05069,-0.61067c0.55081,-0.11017 1.12665,-0.22534 2.37332,-0.47467c1.40668,-0.28134 2.18051,-0.43671 2.99866,-0.59866c0.85587,-0.16942 1.74368,-0.34315 2.65802,-0.51601c0.93365,-0.1765 1.88113,-0.35219 2.83798,-0.51599c1.91037,-0.32706 2.85611,-0.46631 3.78934,-0.59734c0.91812,-0.12891 1.82089,-0.24385 2.70599,-0.345c0.86426,-0.09877 1.70682,-0.18591 2.526,-0.255c1.55643,-0.13126 2.29218,-0.16852 2.99734,-0.20132c0.67484,-0.03139 1.31995,-0.05157 1.935,-0.0645c0.58496,-0.0123 1.14001,-0.01755 1.66501,-0.0195c0.95999,-0.00356 1.39517,-0.00134 2.53067,-0.00134c0.62534,0 1.78632,0 2.62033,0l0.909,0l0.89999,0" id="svg_6" stroke-width="2" stroke="#000" fill="none"/>
  <path t="12246,12403,12403,12403,12403,12415,12415,12415,12415,12415,12429,12429,12429,12430,12430,12445,12445,12445,12461,12461,12461,12465,12465,12465,12475,12476,12488,12488,12488,12503,12503,12503,12513,12513,12513,12525,12525,12525,12525,12537,12538,12538,12554,12554,12554,12554,12564,12564,12574,12574,12574,12598,12598,12612,12612,12623,12636,12654,12661,12661,12661,12672,12672,12672,12688,12688,12688,12688,12703,12704,12709,12710,12736,12736" d="m494,213.89999c2.97198,0 3.68268,0 4.45734,0c0.83066,0 2.164,0 3.09534,0c0.47266,0 1.422,0 2.36331,0c0.91736,0 1.79736,0 2.63736,0c0.79999,0 1.56003,0.00955 2.95999,-0.00133c0.64005,-0.00497 1.53931,0.0177 2.56534,-0.22017c0.70947,-0.16447 1.59772,-0.59967 2.60535,-0.97716c0.53748,-0.20134 1.35162,-0.50298 2.39447,-0.67984c0.89355,-0.15154 1.92151,-0.12151 2.73218,-0.12151c0.64648,0 1.87469,0 2.42535,0c0.86847,0 2.06421,-0.01357 2.96399,0.01068c0.60028,0.01617 1.80383,0.13785 2.39996,0.27466c0.90674,0.2081 1.80396,0.50456 2.69983,0.815c0.89355,0.30963 1.52759,0.47868 2.53351,1.233c0.51813,0.38855 1.11157,1.1795 1.56219,1.60416c0.93872,0.88464 1.64819,0.9366 2.60449,1.39584c0.63635,0.30559 1.34485,1.07375 2.19983,1.42366c0.745,0.30489 1.77911,0.21703 2.59882,0.243c0.90271,0.02859 1.65045,0.60736 2.50586,0.94734c0.82672,0.32857 1.55103,0.48262 2.15717,0.81433c0.97461,0.53336 1.77167,1.06287 2.31299,1.44901c1.07501,0.76686 1.53845,1.18973 2.20453,1.76849c0.6181,0.53711 1.42059,1.13373 2.18481,1.61017c0.8158,0.50861 1.4613,0.97467 2.32001,1.32533l0.86334,0.08084" id="svg_7" stroke-width="2" stroke="#000" fill="none"/>
  <path t="13353,13488,13498,13513,13513,13529,13543,13553,13553,13560,13572,13586,13586,13597,13597,13597,13597,13609,13609,13620,13620,13637,13637,13647,13657,13670,13670,13687,13695,13695,13707,13732,13732,13757,13757,13758,13781,13781,13795,13805,13820,13820,13836,13836,13843,13844,13855,13855,13869,13870,13886,13886,13892,13892,13904,13904,13904,13919,13920,13929,13929,13941,13954,13954,13969,13970,13979,13991,13991,14003,14003,14003,14003,14003,14020,14020,14020,14020,14020,14020,14028,14029,14030,14030,14030,14040,14040,14040,14052,14053,14069,14070" d="m558,226.89999c2.36401,1.38934 3.26709,1.76378 4.09998,2.22151c0.67505,0.37099 1.23468,1.27809 2,1.65717c0.8468,0.41943 1.49548,0.70572 2.40002,1.12132c0.79608,0.36577 1.47925,1.02249 2.04169,1.52084c0.76465,0.67754 1.46393,1.13136 1.95831,1.47916c0.73248,0.51532 1.73242,1.20459 2.19098,1.75267c0.57178,0.6834 0.84357,1.46713 1.50903,2.362c0.45734,0.61499 1.29956,1.22002 1.67865,1.98534c0.41943,0.84677 0.77496,1.46042 1.41681,2.2c0.57861,0.66669 0.75952,1.51837 1.22534,2.22084c0.54608,0.82356 0.98187,1.49863 1.47919,2.47916c0.30164,0.59468 0.6366,1.38852 1.29999,2.24284c0.45856,0.5905 1.2951,1.20007 1.64734,2.06166c0.33667,0.82349 0.5246,1.50322 0.88599,2.52884c0.26239,0.74477 0.94159,1.3927 1.46136,1.92383c0.63184,0.64566 0.67902,1.64767 0.70667,2.64151c0.0213,0.76581 0.2807,1.71948 0.70319,2.354c0.49036,0.73651 0.92712,1.47684 1.12878,2.414c0.16602,0.77145 0.12573,1.57269 0.16687,2.69049c0.03284,0.89221 0.3819,1.78375 0.64716,2.49017c0.33301,0.88681 0.27905,1.82443 0.37347,2.65265c0.11316,0.9924 0.72614,1.52805 0.94318,2.41068c0.21771,0.8855 0.03601,1.65182 0.03601,2.92267c0,0.63998 0,1.35999 0,2.16c0,0.88 0,1.84 0,2.87466c0,0.53732 0,1.63199 0,2.18134c0,1.08267 0,2.11734 0,3.07867c0,0.88931 0,1.71466 0,2.48398c0,1.06635 0,2.04135 0,2.92633c0,1.04001 0,1.715 0,2.79501l0.05719,0.86215" id="svg_8" stroke-width="2" stroke="#000" fill="none"/>
  <path t="16579,16726,16744,16744,16744,16752,16753,16753,16753,16753,16753,16763,16763,16763,16763,16763,16763,16763,16763,16763,16773,16773,16773,16773,16773,16774,16774,16774,16774,16786,16786,16786,16786,16786,16786,16802,16802,16802,16803,16811,16824,16824,16873,16923,16997,17012,17029,17034,17034,17045,17045,17045,17057,17057,17057,17057,17070,17070,17070,17070,17070,17087,17088,17088,17088,17094,17094,17106,17120,17120,17137,17137,17168,17194,17205,17221,17292,17293,17317,17317,17341,17563,17580,17580,17580,17595,17595,17600,17600,17614,17614,17630,17846,17857,17871,17888,17888,17895,17906,17907,17920,17937,17981,17995,18005,18026,18032,18055,18179,18194,18194,18211,18220,18228,18229,18239,18252,18252,18271,18271,18276,18276,18289,18289,18303,18303,18320,18321,18337,18450,18464,18477,18477,18486,18486,18503,18510,18523,18560,18584,18596,18609,18610,18633,18646,18646,18658,18671,18671,18687,18688,18696,18696,18696,18707,18707,18708,18708,18720,18720,18721,18721,18737,18737,18745,18745,18756,18781,18805,18820,18820,18837,18843,18844,18844,18855,18856,18871,18871,18871,18871,18887,18887,18888,18888,18892,18892,18893,18904,18905,18905,18919,18919,18920,18929,18930,18930,18942,18942,18953,18953,18970,18971,18978,18979,18990,19003,19019,19028,19028" d="m525,311.89999c0.64667,1.63602 1.31641,2.32727 1.85736,2.84668c0.42114,0.40439 1.47595,1.32004 2.11462,1.84399c0.34686,0.28455 1.09637,0.90704 1.48535,1.26401c0.84357,0.77417 1.71576,1.70648 2.164,2.23132c0.46942,0.54962 0.9364,1.13882 1.40399,1.758c0.47986,0.63544 0.95349,1.29581 1.422,1.974c0.4729,0.68448 1.38892,2.08014 1.83099,2.78149c0.43787,0.69467 0.86102,1.38638 1.27502,2.06851c0.40601,0.66888 0.79895,1.32462 1.185,1.96051c0.37402,0.61609 1.43738,2.30856 1.77496,2.81415c0.32251,0.48303 0.94299,1.37546 1.52502,2.18668c0.27411,0.38202 1.04761,1.44348 1.49548,2.10449c0.59387,0.87656 0.92499,1.38037 1.40485,2.49417c0.37079,0.86069 1.08191,1.05682 1.776,1.75601c0.54352,0.54752 0.28534,1.616 0.28534,2.51599c0,0.92084 0,1.88535 0,2.61066c0,0.98969 0,1.83102 0,2.56c0,1.20135 0,1.91202 0,2.68668c0,0.83066 0,2.16385 0,2.62534c0,0.93201 0,1.85599 0,2.74802c0,1.22617 0,1.9505 0,2.60681c0,0.87451 0,1.87585 0,2.71585c0,1.09399 0,2.01334 0,2.84665c0,0.83334 0,1.6955 0,2.60001c0,0.89999 0.08167,1.80411 -0.00452,2.7045c-0.08362,0.87332 -0.578,1.66705 -0.8288,2.52884c-0.24512,0.84232 -0.05133,1.86472 -0.61334,2.56665c-0.58582,0.73163 -1.42438,0.9502 -2.06934,1.48535c-0.65155,0.54065 -0.98444,1.44653 -1.96802,1.94534c-0.63745,0.32327 -1.76758,0.32797 -2.22931,0.97064c-0.57513,0.80048 -0.745,1.20081 0.11334,1.19867c0.89996,-0.00226 1.81946,-0.26352 2.39996,-0.80133c0.62177,-0.57608 1.40198,-1.22009 1.84283,-1.89865c0.51477,-0.79236 1.00116,-1.35468 1.44116,-2.10135c0.41284,-0.70053 0.83716,-1.5155 1.41602,-2.19867c0.5033,-0.59402 0.95166,-1.32999 1.66669,-1.83331c0.69489,-0.48917 1.63348,-0.18399 2.53333,-0.16669c0.93652,0.01801 1.85309,0.17111 2.59015,0.7045c0.68488,0.49564 1.35437,1.02792 2.00452,1.40533c0.73383,0.42599 0.71448,1.51614 1.0625,2.48569c0.21027,0.58585 0.86414,1.50433 1.34283,2.15717c0.52386,0.71442 0.86023,1.44852 1.49866,2.362c0.41888,0.5993 0.79163,2.06766 1.51733,1.79865c0.685,-0.25394 0.284,-1.5705 0.284,-2.51465c0,-0.99417 -0.00079,-1.74152 0,-2.76266c0.00067,-0.83469 0.62775,-1.38361 0.97919,-2.15683c0.36389,-0.8006 -0.11084,-1.82925 0.24213,-2.57919c0.36505,-0.77551 0.77332,-1.53592 0.77869,-2.38397c0.00543,-0.86331 -0.04498,-1.88129 0.00134,-2.71869c0.04266,-0.77139 0.3656,-1.80319 0.5733,-2.58267c0.27789,-1.04303 0.35645,-1.76407 0.45068,-2.43997c0.16742,-1.20071 0.40875,-2.02191 0.58533,-2.62134c0.18866,-0.64059 0.5946,-2.03433 0.77869,-2.76801c0.18121,-0.72238 0.37024,-1.40936 0.52533,-2.61334c0.091,-0.7066 -0.09326,-1.78946 0.17065,-2.57065c0.30054,-0.88956 0.79852,-1.64267 1.19867,-2.40134c0.4527,-0.8584 0.53314,-1.63644 0.78802,-2.436c0.29895,-0.93771 0.97198,-1.36578 1.44531,-1.96533c0.7688,-0.97375 1.09766,-1.64075 1.64935,-2.56534c0.31152,-0.52216 0.84497,-1.34738 1.18066,-1.93784c0.5036,-0.88571 0.90576,-1.79156 1.13184,-2.39551c0.33478,-0.89441 0.59894,-1.80783 0.93146,-2.68933c0.32513,-0.86185 0.72852,-1.66367 1.242,-2.35349c0.49622,-0.66656 1.19293,-1.44891 1.59467,-2.05719c0.52148,-0.78958 1.07928,-1.59552 1.56732,-2.19998c0.48096,-0.59567 0.95306,-1.62003 1.23602,-2.36401c0.32135,-0.84503 1.26093,-1.34784 1.70636,-2.15732c0.34125,-0.62021 0.06439,-1.69614 0.32831,-2.47733c0.30054,-0.88956 0.88934,-1.60135 1.26733,-2.50134l0.48065,-0.70001l0.16534,-0.79999" id="svg_9" stroke-width="2" stroke="#000" fill="none"/>
  <path t="20078,20261,20286,20286,20296,20297,20320,20336,20336,20346,20346,20358,20358,20370,20370,20386,20387,20396,20420,20437,20437,20444,20444,20457,20470,20470,20487,20487,20494,20494,20505,20505,20519,20519,20536,20536,20543,20543,20555,20555,20570,20570,20586,20591,20604,20604,20621,20621,20638,20643,20643,20653,20653,20653,20669,20669,20678,20678,20678,20690,20690,20703,20703,20719,20728,20728,20739,20752,20776,20789,20789,20803,20803,20819,20819,20826,20826,20837,20837,20852,20852,20870,20871,20871,20876,20900,20914,20936,20952,20962,20985,20985,21004,21010,21022,21036,21052,21060,21071,21086,21108,21442,21466,21480,21481,21496,21511,21519,21528,21540,21564,21564,21589,21605,21621,21622,21626,21638,21639,21654,21672,21672,21676,21676,21688,21688,21705,21721,21738,21755,21755,21762,21774,21787,21805,21805,21812,21812,21823,21823,21838,21838,21852,21852,21852,21853,21860,21860,21860,21873,21873,21873,21886,21886,21904,21904,21909,21910,21922,21935,21953,21953,21959,21970,21986,21986,22002" d="m545,332.89999c-0.01068,1.82535 -0.08771,2.88342 -0.52081,3.47919c-0.5824,0.80109 -1.27917,1.3208 -1.87921,1.92081c-0.70001,0.69998 -1.32178,1.27914 -1.89996,1.90451c-0.52026,0.56274 -1.07446,1.53629 -1.5,2.21152c-0.47229,0.74951 -1.021,1.35471 -1.5,2.13666c-0.4187,0.68356 -1.08881,1.53186 -1.53333,2.34732c-0.42957,0.78806 -1.06207,1.06088 -1.992,1.42535c-0.69763,0.27344 -1.70355,0.47672 -2.47919,0.93182c-0.63062,0.37003 -1.36163,0.92026 -2.04285,1.34283c-0.91913,0.57016 -1.51666,1.13235 -2.30981,1.60001c-0.73016,0.43051 -1.55408,0.77853 -2.32202,1.19998c-0.86768,0.47614 -1.49609,1.03537 -2.34198,1.60001c-0.64044,0.42752 -1.32776,1.07614 -1.84686,1.70001c-0.58643,0.70477 -1.42889,0.90131 -2.07031,1.5c-0.74908,0.69919 -1.09412,1.53696 -1.78247,1.69998c-0.95654,0.22653 -1.61542,0.77246 -2.28369,1.2955c-0.80023,0.62631 -1.54736,0.59991 -2.6955,0.87119c-0.61133,0.14444 -1.38498,0.54449 -2.39999,0.74933c-0.7915,0.15973 -1.80148,0.30118 -2.60001,0.58398c-0.6011,0.21289 -1.59879,0.46683 -2.39999,0.49551c-0.99808,0.03574 -1.98639,-0.04758 -2.84283,0.35715c-0.81088,0.38318 -1.55716,0.64667 -2.45718,0.64734c-0.89999,0.00064 -1.82083,0 -2.62149,0c-0.88916,0 -1.87833,0 -2.65765,0c-0.99951,0 -1.77414,-0.02954 -2.67801,0.00452c-0.74866,0.0282 -1.73532,0.30099 -2.54285,0.57016c-0.99152,0.33051 -1.79984,0.41492 -2.79999,0.42532c-0.78931,0.00821 -1.51468,0 -2.58932,0c-0.91068,0 -1.81067,0 -2.71066,0c-0.90002,0 -1.80002,0 -2.70001,0c-0.79999,0 -1.70007,-0.01068 -2.60001,0c-0.87933,0.01044 -1.33661,0.77481 -2.10449,0.99551c-0.86069,0.24738 -1.7955,0.00449 -2.6955,0.00449c-0.89999,0 -1.8606,-0.10873 -2.55185,0.35266c-0.6944,0.4635 -1.47906,0.55875 -2.06284,1.25803c-0.57019,0.68301 -0.76266,1.68842 -1.33798,2.33664c-0.52637,0.59305 -1.35574,1.02286 -2.16467,1.05136c-0.96121,0.03384 -1.83929,-0.13525 -2.68268,0.28531c-0.66162,0.32993 -1.55716,0.71375 -2.45267,0.716c-0.69464,0.00174 -1.72198,0 -2.66882,0c-0.69934,0 -1.87833,0 -2.65765,0c-0.85419,0 -1.71634,0 -2.62085,0c-0.89999,0 -1.86618,0.13531 -2.60001,-0.28534c-0.68652,-0.39355 -1.31787,-1.1647 -2.09549,-1.66199c-0.70703,-0.45215 -1.43921,-0.93259 -2.11349,-1.16251c-1.03223,-0.35196 -1.50089,-0.98999 -2.42435,-1.55682c-0.62747,-0.38516 -1.48962,-0.55173 -2.20831,-0.85416c-1.12708,-0.4743 -1.64124,-0.686 -2.47919,-0.97919c-0.87802,-0.30719 -1.77621,-0.60852 -2.66849,-0.88931c-0.57294,-0.1803 -1.63873,-0.48975 -2.57468,-0.57468c-0.83197,-0.0755 -1.84387,0.05222 -2.57883,-0.09317c-0.93484,-0.18494 -1.50812,-0.80075 -2.48251,-1.33215c-0.67026,-0.36554 -1.66479,-0.47894 -2.47464,-0.61517c-0.92975,-0.1564 -1.4324,-0.87448 -2.20001,-1.47467c-0.65002,-0.50824 -1.60001,-0.74216 -2.20001,-1.16818l-0.89999,-0.34198" id="svg_10" stroke-width="2" stroke="#000" fill="none"/>
  <path t="23367,23512,23529,23529,23546,23546,23550,23550,23550,23550,23550,23560,23560,23560,23560,23571,23572,23572,23586,23587,23587,23602,23602,23609,23634,23634,23634,23646,23658,23682,23683,23696,23707,23719,23719,23736,23736,23745,23745,23756,23756,23769" d="m416,359.89999c-0.61066,-1.60001 -1.27164,-2.34094 -1.88535,-2.79999c-0.74445,-0.55682 -1.39645,-0.83768 -2.448,-1.36667c-0.63547,-0.31967 -1.33038,-0.66476 -2.052,-1.04401c-0.73447,-0.38602 -1.79581,-0.98453 -2.453,-1.38483c-0.62268,-0.37927 -1.46997,-0.92761 -2.47632,-1.52051c-0.66122,-0.38959 -1.2991,-0.74829 -2.08533,-1.36667c-0.61215,-0.48145 -1.15454,-1.06317 -2.1955,-1.4075c-0.89163,-0.29492 -1.75909,-0.57513 -2.57117,-1.10983c-0.64365,-0.4238 -1.45035,-0.6796 -2.18668,-1.39999c-0.62555,-0.612 -0.64667,-1.60001 -0.64667,-2.39999c0,-0.89999 0.0267,-1.83646 -0.00134,-2.68399c-0.02859,-0.86469 -0.4382,-1.7211 -0.71466,-2.40002c-0.371,-0.91113 -0.28265,-1.71732 -0.28848,-2.707l-0.08084,-0.83832l-0.63068,-0.73868" id="svg_11" stroke-width="2" stroke="#000" fill="none"/>
  <path t="24979,25125,25141,25142,25156,25156,25156,25156,25163,25163,25163,25163,25173,25173,25173,25174,25174,25174,25174,25174,25186,25187,25187,25187,25187,25202,25203,25203,25203,25210,25210,25210,25222,25222,25247,25261,25261,25271,25271,25285,25285,25296,25296,25308,25308,25320,25321,25321,25336,25336,25336,25345,25345,25358,25369,25369,25386,25386,25386,25395,25395,25407,25419,25435,25444,25444,25469,25469,25486,25505,25519,25542,25555,25555,25555,25569,25569,25580,25580,25591,25592,25592,25603,25603,25620,25640,25653,25729,25746,25763,25827,25851,25975,25992,25993,26007,26008,26011,26011,26012,26022,26047,26047,26060,26146,26170,26185,26202,26220,26237,26256,26368,26391,26394,26405,26405,26421,26437,26441,26453,26470,26470,26479,26479,26491,26509,26577,26677,26692,26709,26709,26713,26714,26714,26724,26725,26736,26736,26753,26762,26762,26762,26786,26786,26801,26811,26823,26835,26836,26853,26861,26861,26861,26872,26872,26872,26885,26885,26885,26885,26903,26903,26909,26909,26921,26935,26935,26952,26952,26959,26959,26970,26971,26971,26985,26985,26985,26986,27002,27002,27002,27008,27008,27008,27020,27020,27020,27035,27045,27069,27069,27087,27087,27095,27095,27106,27119,27136" d="m402,319.89999c-0.85068,1.39999 -1.6994,1.98233 -2.05066,2.672c-0.43359,0.85132 -0.819,1.60608 -1.13467,2.18533c-0.34106,0.62582 -0.81439,1.6575 -1.0575,2.41333c-0.25916,0.80569 -0.46951,1.70209 -0.75717,3.22934c-0.10605,0.56305 -0.20255,1.15274 -0.2955,1.76251c-0.19165,1.25714 -0.27167,1.89709 -0.34732,2.53665c-0.07498,0.63382 -0.23901,2.45731 -0.27316,3.0275c-0.06467,1.07968 -0.06802,1.59103 -0.13669,2.55002c-0.09247,1.29172 -0.21194,2.05746 -0.38333,2.75134c-0.23972,0.97055 -0.55536,1.87494 -0.86398,2.763c-0.29187,0.83984 -0.68927,1.7821 -1.08936,2.43698c-0.47647,0.77991 -0.51804,1.68475 -0.66782,2.42917c-0.18713,0.93005 -0.65067,1.64569 -1.04266,2.44266c-0.38257,0.77777 -0.83316,1.77255 -0.89569,2.55286c-0.0726,0.90613 -0.02386,1.71622 -0.22583,2.66867c-0.17206,0.8114 -0.4682,1.6174 -0.65732,2.65717c-0.12387,0.681 -0.14981,1.5368 -0.474,2.517c-0.25226,0.7627 -0.61966,1.77881 -0.64734,2.57117c-0.02982,0.85388 -0.15237,1.83807 -0.42532,2.63333c-0.27631,0.80505 -0.54196,1.79419 -0.57019,2.54282c-0.03391,0.89935 -0.00449,1.85718 -0.00449,2.75717c0,0.89999 0,1.65717 0,2.55267c0,0.86334 0,1.82651 0,2.74731c0,0.90002 0,1.80136 0,2.76669c0,0.66931 0.03058,1.43527 -0.00449,2.43332c-0.02814,0.80124 -0.30637,1.79245 -0.57019,2.63599c-0.28833,0.92194 -0.3876,1.71127 -0.41464,2.50269c-0.03818,1.11771 0.17508,1.97906 -0.04669,2.86133c-0.21689,0.86285 -0.79724,1.61151 -0.96414,2.49985c-0.14951,0.79568 -0.7377,1.51038 -1.43585,1.86417c-0.77133,0.3909 -1.99115,0.26559 -2.44266,-0.40701c-0.44144,-0.65759 -0.34805,-1.75513 -0.62134,-2.55701c-0.34003,-0.99774 -0.47314,-1.78897 -0.49866,-2.51465c-0.03464,-0.98499 -0.20926,-2.01248 -0.612,-2.62402c-0.49945,-0.75839 -1.36069,-1.21704 -1.38934,-2.06131c-0.03055,-0.89932 -0.33127,-1.65747 -0.97467,-2.22534c-0.59442,-0.52463 -1.28192,-0.96411 -1.90399,-1.67435c-0.4473,-0.51068 -1.06046,0.19354 -1.12134,1.09967c-0.05362,0.79822 0,1.70001 0,2.60001c0,0.89999 0.01904,1.81088 -0.00015,2.72134c-0.01801,0.85388 -0.27249,1.62909 -0.64719,2.37415c-0.44046,0.87579 -0.80841,1.68658 -1.26865,2.50317c-0.39468,0.70029 -1.04843,0.35471 -1.08417,-0.52017c-0.03632,-0.88913 -0.21497,-1.88065 -0.42517,-2.47849c-0.28235,-0.80301 -0.54205,-1.79877 -0.57019,-2.60001c-0.03506,-0.99805 -0.00449,-1.76401 -0.00449,-2.84732c0,-0.91934 0,-1.58868 0,-2.354c0,-1.18802 0.17355,-1.93289 -0.02084,-2.87784c-0.17841,-0.86722 -0.91827,-1.61472 -0.97916,-2.52084c-0.05362,-0.79819 0,-1.672 0,-2.543c0,-0.729 0,-1.56598 0,-2.75699c0,-0.89999 0,-1.5 0,-2.70001c0,-0.89548 0,-1.47916 0,-2.31467c0,-1.22815 0,-1.87466 0,-2.88516c0,-0.96417 0,-1.91483 0,-2.80017c0,-0.75717 0,-1.65717 0,-2.40448c0,-0.99686 0,-1.83151 0,-2.76218c0,-0.7905 0,-1.64401 0,-2.83334c0,-0.89999 0,-1.5 0,-2.39999c0,-1.20001 0,-1.79999 0,-2.70001c0,-1.19983 0,-1.79547 0,-2.664c0,-1.06931 0,-1.98932 0,-2.74933c0,-0.96582 0.0134,-1.8974 -0.00015,-2.80817c-0.01041,-0.69952 -0.07788,-1.71506 -0.43585,-2.45715c-0.45703,-0.94751 -1.20682,-1.2695 -1.56265,-2.02267l-0.0585,-0.89865l-0.44284,-0.80002" id="svg_12" stroke-width="2" stroke="#000" fill="none"/>
  <path t="28663,28954,28965,28984,28991,28991,29002,29003,29019,29019,29029,29029,29039,29039,29039,29052,29052,29070,29070,29070,29076,29076,29077,29089,29102,29119,29119,29138,29139,29153,29175,29175,29200,29200,29224,29236,29252,29262,29273,29273,29285,29286,29286,29286,29302,29302,29303,29303,29310,29310,29311,29323,29323,29349,29349,29349,29375,29385,29397,29411,29434,29435,29453,29459,29459,29471,29487,29487" d="m332,293.89999c1.83334,0.16669 2.33307,0.74097 2.95184,1.35718c0.63092,0.62833 1.10022,1.09531 1.8815,1.64282c0.79037,0.55389 1.49158,1.12231 1.88132,1.88535c0.36728,0.71909 0.38422,1.75537 0.85468,2.51465c0.39551,0.63831 1.02036,1.15164 1.66901,2.20001c0.35657,0.57629 0.64896,1.59894 0.76166,2.42084c0.091,0.66357 0.27802,1.66348 0.5,2.45834c0.21033,0.75311 0.36389,1.89645 0.784,2.72083c0.44064,0.86465 1.03659,1.30789 1.54935,2.13333c0.44232,0.7121 0.63943,1.43213 1.26648,2.1095c0.59485,0.64258 0.63632,1.58524 0.98419,2.35583c0.38223,0.84674 1.41116,0.99728 2.11465,1.48666c0.78464,0.54581 0.96622,1.55261 1.67734,1.82449c0.88614,0.33878 1.49127,0.5994 2.16565,0.91101c0.715,0.33035 2.13675,0.9577 2.79669,1.2265c0.62006,0.25253 1.5094,0.58261 2.47632,1.23666c0.46741,0.31616 1.03333,0.93002 2.08533,1.62933c0.57639,0.38315 1.59375,0.76611 2.38934,0.85068c0.72211,0.07675 1.79999,0.03598 2.71066,0.03598c0.89999,0 1.79999,0 2.70132,0c0.68402,0 1.62402,0 2.63202,0c0.86215,0 1.6875,0 2.65198,0l0.72534,0" id="svg_13" stroke-width="2" stroke="#000" fill="none"/>
  <path t="30434,30605,30606,30606,30625,30625,30625,30638,30638,30641,30641,30641,30654,30654,30654,30670,30670,30678,30678,30689,30702,30777,30802,30814,30814" d="m336,296.89999c1.0625,-1.65717 1.55154,-1.98505 2.23334,-2.60132c0.83722,-0.75674 1.22678,-1.41193 1.64932,-1.99869c0.73755,-1.02417 1.32861,-1.57117 1.95068,-2.39999c0.43604,-0.58099 0.76025,-1.19781 1.26666,-2.19998c0.40341,-0.79831 0.71973,-1.3905 1.1955,-2.40002c0.28021,-0.59457 0.44534,-1.63223 0.72983,-2.52798c0.27365,-0.86157 0.95383,-1.39282 0.98535,-2.272l0.27466,-0.79868l0.71466,-0.63464l0.79999,-0.25067" id="svg_14" stroke-width="2" stroke="#000" fill="none"/>
  <path t="32552,32722,32723,32741,32741,32741,32741,32757,32757,32759,32759,32771,32771,32796,32796,32809,32821,32835,32858,32882,32882,32895,32907,32907,32919,32919,32919,32936,32936,32944,32944,32955,32955,32955,32969,32970,32985,32986,32993,32993,33005,33019,33019,33042,33043,33055" d="m349,278.89999c2.01434,0 2.82132,0 4,0c0.59866,0 1.47916,0 2.31467,0c1,0 1.87466,0 2.88516,0c0.77933,0 1.77884,0 2.55283,0c0.90002,0 1.76334,0 2.7265,0c0.92084,0 1.82083,0 2.72086,0c0.90015,0 1.68848,0.06677 2.62534,-0.01065c1.01654,-0.08398 1.65778,-0.53485 2.49597,-1.08951c0.66586,-0.44064 1.27988,-0.71298 1.92151,-1.55701c0.52875,-0.69556 0.79922,-1.57697 1.27802,-2.32199c0.57892,-0.90085 1.16681,-1.2233 1.82648,-1.7735c0.81406,-0.67896 1.19473,-1.45407 1.75269,-2.22583c0.46249,-0.63971 1.30472,-1.26108 1.61465,-1.90683c0.42203,-0.87927 0.452,-1.948 0.80618,-2.59384l0.67917,-0.71951l0.59998,-0.51599l0.84283,-0.33801" id="svg_15" stroke-width="2" stroke="#000" fill="none"/>
  <path t="34413,34608,34621,34642,34643,34658,34681,34692,34692,34716,34755,34775,34791,34878,34909,35038,35051,35075,35086,35137,35137,35161,35164,35174,35186,35383,35445,35605,35632,35632,35649" d="m333,234.89999c1.2215,0.87851 2.15347,0.81865 3,1.16667c0.67108,0.27589 1.53207,0.76807 2.29999,1.186c0.84097,0.4577 1.47711,0.7708 2.30002,1.222c0.78012,0.42775 1.74844,0.35446 2.37466,0.85066c0.66507,0.52698 1.48218,0.88261 1.85867,1.74133c0.30411,0.69362 -1.03336,0.83333 -1.93335,0.83333c-0.89999,0 -1.69998,0 -2.60001,0c-0.89999,0 -1.79999,0.00226 -2.69998,0c-0.89551,-0.00224 -1.54285,-0.35716 -1.59552,-1.29999l0.21719,-0.79984l0.53998,-0.543l0.88651,-0.3045" id="svg_16" stroke-width="2" stroke="#000" fill="none"/>
  <path t="37035,37217,37217,37231,37231,37231,37246,37247,37247,37261,37261,37261,37279,37279,37354,37390,37464,37477,37477,37491,37514,37541,37541,37575,37587,37624,37648,37672" d="m290,242.89999c0.42532,1.84668 0.72476,2.4473 0.91467,3.68535c0.08383,0.54648 0.08307,1.41916 0.08533,2.61449c0.00168,0.88951 0,1.46417 0,2.53351c0,0.93066 0,1.76534 0,2.76216c0,0.74733 0.00137,1.76851 0,2.70451c-0.00134,0.89865 -0.43701,1.62946 -1.18533,1.68933c-0.92642,0.0741 -1.91467,0.01065 -2.81467,0.01065c-0.79999,0 -1.70001,0 -2.564,-0.03598l-0.43152,-0.66852l-0.06165,-0.93832l-0.65884,-0.44116" id="svg_17" stroke-width="2" stroke="#000" fill="none"/>
  <path t="38821,39029,39059,39074,39139,39175,39348,39385" d="m286,244.89999c0,1.8 0,2.70001 0,3.60001c0,0.8 0,1.7 -0.00449,2.6955l-0.35269,0.64734" id="svg_18" stroke-width="2" stroke="#000" fill="none"/>
  <path t="42282,42453,42464,42464,42464,42477,42478,42478,42478,42478,42496,42496,42496,42496,42496,42496,42512,42512,42513,42513,42525,42525,42525,42525,42549,42549,42598,42636,42637,42735,42760,42783,42803,42808,42820,42820,42836,42845,42845,42857,42981,42994,42995,43013,43013,43021,43022,43022,43022,43031,43031,43032,43032" d="m397,354.89999c0,1.672 0,2.77335 0,3.58334c0,0.63998 0,1.75 0,2.58734c0,0.90134 0,1.371 0,2.33832c0,1.491 0,1.99066 0,2.98199c0,0.96735 0,1.43701 0,2.33835c0,1.228 0,1.96533 0,3.02133c0,0.71732 0,1.89166 0,2.74567c0,0.862 0,1.68399 0,2.737c0,0.73801 0,1.76666 0,2.66666c0,0.80002 0,1.70001 0,2.60001c0,0.89999 0,1.79999 0,2.70001c0,0.80017 0,1.58533 0,2.52533c0,1.008 -0.03253,1.88358 -0.42532,2.57465c-0.46353,0.81552 -1.01593,1.61038 -1.76001,1.55334c-0.95862,-0.07349 -1.58853,-0.75601 -2.13617,-1.49649c-0.53568,-0.7243 -0.8985,-1.30847 -1.27982,-1.94485c-0.61368,-1.0242 -0.99417,-1.76016 -1.37784,-2.49115l-0.36368,-0.711" id="svg_19" stroke-width="2" stroke="#000" fill="none"/>
  <path t="44243,44373,44392,44393,44397,44397,44397,44407,44407,44407,44407,44408,44419,44419,44419,44419,44419,44434,44434,44434,44434,44434,44451,44451,44451,44452,44452,44456,44456,44482,44482,44482,44519,44535,44535,44556,44556,44567,44568,44585,44585,44586,44593,44593,44604,44604,44604,44604,44617,44617,44618,44635,44636,44642,44654,44692,44703,44741,44753,44753,44753,44767,44767,44778,44778,44778,44789,44790,44790,44801,44801,44818,44864,44864,44900,44900,44919,44927,44937,44951,44951,44967,44974,44974,44999,45012,45024,45024,45036,45036,45036,45036,45051,45051,45051,45061,45061,45061,45072,45073,45084,45109,45110,45122,45134,45134,45159,45235" d="m591,288.89999c0,1.75717 -0.03699,2.6655 0.05719,3.46167c0.11438,0.96725 0.37347,1.79056 0.58948,2.38501c0.4845,1.33344 0.82971,2.04242 1.20001,2.77866c0.18976,0.37735 0.57532,1.1488 1.32001,2.20801c0.4931,0.70139 1.06689,1.34351 1.64398,1.992c0.58813,0.66089 1.19513,1.33652 1.78931,2.05865c0.60602,0.73648 0.89423,1.1207 1.5,1.86334c0.89154,1.09299 1.19299,1.43692 1.79102,2.08649c0.5611,0.60947 1.33801,1.3945 1.96619,2.02335c0.6217,0.62234 1.32227,1.29721 1.95746,1.96817c0.48547,0.51279 1.12805,1.4118 1.18536,2.27484c0.052,0.78345 0.05347,1.74481 -0.08533,2.50116c-0.18683,1.01801 -0.61737,1.79956 -1.01465,2.59866c-0.39819,0.8009 -0.69104,1.40457 -1.20453,2.40451c-0.32581,0.63443 -0.85101,1.56924 -1.35266,2.34814c-0.35577,0.55246 -0.72455,1.11264 -1.54248,2.12585c-0.56366,0.69821 -1.18805,1.26529 -1.5575,2.12115c-0.31329,0.72577 -0.61792,1.66547 -1.21753,2.22568c-0.56836,0.53101 -1.5332,0.99304 -2.41467,0.54266c-0.71191,-0.36374 -0.59906,-1.50949 -0.60931,-2.28668c-0.01312,-0.99591 -0.00134,-1.87067 -0.00134,-2.8815c0,-0.6105 0,-1.48517 0,-2.48383c0,-0.81601 0,-1.63199 0,-2.62933c0,-0.84 -0.01147,-1.93405 0,-2.85333c0.01044,-0.83353 -0.00885,-1.8107 0.61066,-2.38666c0.65167,-0.60587 1.68933,-0.44669 2.58936,-0.44669c0.90015,0 1.6853,0 2.62531,0c1.008,0 1.87378,-0.4147 2.73871,0.03601c0.67871,0.35367 0.76379,1.43732 1.01062,2.24667c0.31561,1.03497 0.34424,1.68512 0.42535,2.71732c0.05457,0.69452 0.13544,1.67438 0.35266,2.49017c0.25793,0.96854 0.534,1.93008 0.62201,2.72449c0.08582,0.77469 0.34296,1.79727 0.67267,2.47635c0.3938,0.8111 0.65442,1.78577 0.92731,2.48367c0.36401,0.93097 0.42535,1.82532 0.42535,2.62534l0,0.89999l0,0.89999" id="svg_20" stroke-width="2" stroke="#000" fill="none"/>
 </g>
 <g display="none">
  <title>muse_image</title>
  <image xlink:href="http://www.theage.com.au/ffximage/2006/07/12/svPIGS_wideweb__470x306,0.jpg" id="muse" height="416" width="640" y="32" x="0"/>
 </g>
 <g display="none">
  <title>bbox</title>
  <rect stroke="#f00" fill="none" stroke-width="3" height="194.40523" width="313.19149" y="211.45098" x="291.40426" id="bbox"/>
 </g>
</svg>
