<svg width="640" height="480" xmlns="http://www.w3.org/2000/svg" xmlns:svg="http://www.w3.org/2000/svg" xmlns:xlink="http://www.w3.org/1999/xlink">
 <!-- Sketchy ANNOTATION
  ImageNet ID: n02395406_10078
  URL: http://farm2.static.flickr.com/1040/773714967_1c51a4b10e.jpg
  Image Width: 375
  Image Height: 500
  BBox X: 0
  BBox Y: 3
  BBox Width: 321
  BBox Height: 470
  Exposure: 2000ms
  Synset Label: pig
  Synset ID: n02395406
  Worker Tag: pig sleeping
  Sanity Check: 
   Context
   Saved
   Shading
  Comment: 
   {}
  Worker ID: AXD2DZ7U6CK35
  Assignment ID: 30ZX6P7VF8VJA1YOTRHJQRKX0VS2J9
  HIT ID: 3APP19WN71EVEGTUIL3HU7E8NUIG62
  Work Time: 74s
  Worker Score: 0.9286
 END ANNOTATION -->
 <g display="inline">
  <title>Layer 1</title>
  <path t="0,11,11,11,11,11,11,11,26,26,33,33,50,66,66,66,83,83,83,100,100,100,116,117,117,117,133,134,134,134,150,150,151,166,166,166,167,183,183,184,184,184,200,200,200,200,201,216,216,216,217,217,233,234,234,251,251,251,251,251,266,267,267,267,267,283,283,284,284,300,300,300,316,316,317,317,334,334,334,350,351,351,351,366,367,367,367,383,400,400,401,417,417,417,433,450,547,547,677,677,687,707,731,751,758,768,785,802,818,835,852,870,871,886,911,918,935,952,968,985,1002,1002,1002,1018,1018,1035,1035,1052,1052,1052,1068,1068,1068,1085,1085,1102,1102,1102,1118,1118,1135,1152,1152,1168,1168,1185,1185,1202,1218,1235,1235,1252,1252,1252,1268,1285,1285,1302,1302,1302,1318,1318,1335,1335,1352,1352,1368,1385,1402,1402,1419,1419,1419,1435,1435,1435,1452,1452,1452,1452,1468,1469,1469,1469,1489,1489,1502,1502,1502,1502,1518,1518,1535,1535,1535,1535,1553,1553,1582,1583,1599" d="m213,239c-1.328,1.5495 -1.70642,1.98727 -2.552,2.98801c-0.4493,0.53174 -0.8981,1.06894 -1.332,1.60049c-0.41402,0.5072 -1.51607,1.71417 -1.89999,2.5955c-0.33711,0.77386 -0.216,1.616 -0.216,2.48799c0,1.09734 0,1.84883 0,2.64534c0,1 0,1.70349 0,2.452c0,1.2 0,1.892 0,2.61601c0,1.448 0,2.13065 0,2.78931c0,0.97803 0,1.992 0,2.70801c0,1.0965 0,1.8075 0,2.784c0,0.82352 0,1.78152 0,2.75534c0,0.84601 0,1.49667 0,2.23535c0,1.30682 0,2.30515 0,2.82932c0,1.07333 0,1.61249 0,3.17999c0,0.49036 0,1.41901 0,2.29169c0,0.83264 0,2.04166 0,2.84033c0,0.79065 0,1.56534 0,2.31598c0,1.06403 0,2.06 0,2.71069c0,1.34131 0.00603,2.06143 -0.01067,2.82132c-0.01758,0.8002 -0.0524,1.64246 -0.21066,2.97449c-0.05495,0.46249 -0.2043,1.39346 -0.35333,2.3175c-0.07281,0.45148 -0.27176,1.72675 -0.37267,2.84702c-0.06053,0.672 -0.10431,1.61719 -0.274,2.51431c-0.17152,0.90677 -0.40535,1.48996 -0.612,2.70001c-0.15273,0.89423 -0.13438,1.5036 -0.25067,2.39999c-0.15669,1.20773 -0.36421,1.8056 -0.56334,2.75717c-0.21025,1.00473 -0.27945,1.72614 -0.31667,2.46817c-0.03757,0.74881 -0.036,2.20801 -0.036,2.88666c0,0.92551 0,1.716 0,2.67816c0,0.9765 0.03465,1.6618 -0.08533,2.49652c-0.1445,1.00528 -0.43642,1.78656 -0.63068,2.54398c-0.27951,1.08975 -0.18762,1.99258 -0.45067,2.936c-0.19006,0.68167 -0.42137,1.78333 -0.85866,2.38669c-0.47559,0.65619 -1.57468,0.44666 -2.47467,0.44666c-0.89999,0 -1.85017,0.07306 -2.47467,-0.42532c-0.60796,-0.4852 -1.42532,-0.57468 -2.32533,-0.57468c-0.89999,0 -1.8,0 -2.7,0c-0.8,0 -1.83347,0.01468 -2.61067,0c-0.95383,-0.01801 -1.45189,-0.63083 -2.19066,-1.08401c-0.68738,-0.42166 -1.04546,-1.27509 -1.532,-2.08264c-0.43996,-0.73022 -1.05751,-1.20862 -1.64517,-2.03317c-0.5376,-0.75433 -0.99155,-1.65759 -1.43216,-2.17484c-0.71002,-0.83347 -1.24651,-1.2825 -1.8,-1.836c-0.78934,-0.78934 -1.38484,-1.38483 -1.95334,-1.95334c-0.66933,-0.66934 -1.30206,-1.36179 -2.00267,-1.836c-0.64125,-0.43405 -1.41924,-0.79733 -2.42883,-0.94284c-0.91144,-0.13135 -1.92184,-0.01697 -2.72583,-0.2785c-0.69766,-0.22696 -1.66707,-0.61862 -2.43134,-0.83133c-0.91394,-0.25436 -1.56229,-0.72858 -2.61133,-0.91132c-0.82568,-0.14383 -1.80559,0.01663 -2.65683,-0.05685c-0.9863,-0.08514 -1.7563,-0.43704 -2.49384,-0.69516c-0.84764,-0.29666 -1.81464,-0.48788 -2.50616,-0.80484c-0.99098,-0.45422 -1.55629,-0.83304 -2.37917,-1.12198c-0.97656,-0.3429 -1.76569,-0.30069 -2.716,-0.35852c-0.77116,-0.04694 -1.73538,-0.38919 -2.40001,-0.79999c-0.87558,-0.5412 -1.21588,-1.35968 -1.65067,-2.19867c-0.36661,-0.70743 -1.16304,-1.31342 -1.65866,-1.836c-0.53113,-0.56 -1.18307,-1.34665 -1.67467,-2.20566c-0.40926,-0.71512 -0.82788,-1.5979 -1.14816,-2.26819c-0.33813,-0.70764 -0.70543,-1.42194 -1.01851,-2.5235c-0.28146,-0.99033 -0.27882,-1.62976 -0.416,-2.47998c-0.16293,-1.00992 -0.54102,-1.90674 -0.91733,-2.85333c-0.31081,-0.7818 -0.48853,-1.33765 -0.8,-2.14935c-0.38586,-1.00555 -0.7224,-1.67465 -1.2,-2.85065c-0.20853,-0.51343 -0.51271,-1.3244 -0.71466,-2.14935c-0.24193,-0.98825 -0.31067,-1.83731 -0.56934,-2.79865l-0.43201,-0.68402l-0.2795,-0.90134" id="svg_1" stroke-width="2" stroke="#000" fill="none"/>
  <path t="2304,2314,2314,2314,2314,2314,2314,2314,2314,2335,2335,2335,2351,2351,2367,2367,2384,2401,2417,2417,2434,2451,2451,2467,2484,2484,2591" d="m205,213c4.5,7.16667 4.84566,7.91621 5.14267,8.67599c0.29152,0.74576 0.77692,2.19809 0.98933,2.88268c0.20007,0.64481 0.32237,1.26477 0.84633,2.69099c0.33908,0.92299 0.79459,1.61092 0.96899,2.4075c0.16142,0.73726 0.34413,1.73871 0.62733,2.50684c0.34926,0.94731 0.37755,1.93727 0.42534,2.836c0.04272,0.80341 0.62918,1.47168 0.87849,2.32133c0.24228,0.82568 0.12283,1.79333 0.28818,2.67867l0.48067,0.7l0.34816,0.88567" id="svg_2" stroke-width="2" stroke="#000" fill="none"/>
  <path t="3971,4107,4117,4136,4150,4168,4168,4184,4184,4210,4218,4246,4286,4330,4341,4487,4522,4538,4538,4546,4554,4567,4584,4600,4600,4600,4617,4617,4634,4634,4650,4650,4667,4684,4684,4684,4700,4700,4700,4717,4717,4734,4734,4750,4750,4767,4767,4767,4784,4784,4784,4800,4800,4817,4817,4817,4834,4834,4834,4834,4850,4850,4850,4867,4867,4867,4884,4884,4884,4900,4900,4900,4917,4917,4934,4934,4950,4950,4967,4967,4967,4984,4984,4984,5000,5000,5017,5034,5050,5050,5050,5067,5067,5084,5084,5100,5100,5117,5117,5117,5134,5134,5150,5150,5167,5198,5206,5217,5234,5250,5267,5284,5284,5300,5317,5317,5317,5334,5350,5367,5384,5384,5402,5418,5504,5531,5531,5539,5550,5567,5567,5584,5584,5600,5600,5617,5617,5617,5634,5634,5650,5650,5650,5650,5667,5667,5667,5684,5684,5684,5700,5700,5700,5700,5717,5717,5717,5734,5734,5734,5750,5750,5750,5750,5767,5767,5767,5767,5784,5784,5784,5799,5800,5800,5800,5817,5817,5817,5834,5834,5834,5850,5850,5867,5867,5867,5883,5884,5884,5884,5884,5900,5900,5900,5900,5916,5917,5917,5917,5934,5934,5934,5934,5950,5950,5950,5967,5967,5967,5967,5984,5984,5984,5984,5984,6000,6000,6000,6000,6017,6017,6017,6017,6017,6034,6034,6034,6034,6034,6050,6050,6050,6050,6067,6067,6067,6084,6084,6084,6084,6100,6100,6100,6100,6117,6117,6117,6117,6117,6134,6134,6134,6134,6150,6150,6150,6150,6167,6167,6167,6167,6167,6183,6184,6184,6184,6200,6200,6200,6200,6217,6217,6217,6217,6236,6236,6237,6252,6253,6253,6253,6267,6267,6267,6267,6267,6284,6284,6284,6284,6300,6300,6300,6317,6317,6317,6334,6334,6334,6352,6353,6353,6353,6369,6370,6370,6384,6384,6384,6400,6400,6400,6400,6419,6420,6420,6420,6420,6436,6436,6437,6437,6452,6453,6453,6453,6453,6469,6469,6470,6492,6493,6550" d="m271,243c1.79999,0 2.70004,0.00592 3.60001,0c0.81073,-0.00534 1.71848,-0.2283 2.39999,-0.5c0.97455,-0.38852 1.79868,-0.49933 2.70001,-0.5c0.89999,-0.00066 1.79999,0 2.69998,0c0.89999,0 1.81079,-0.14603 2.68533,0c0.8663,0.14464 1.0325,1.21394 1.61917,1.64284c0.75946,0.55521 1.10818,1.089 1.33151,1.95717c0.22519,0.87546 0.98325,1.55553 1.36398,2.23599c0.42166,0.75362 0.84872,1.54298 1.164,2.364c0.37576,0.97852 0.28607,1.82466 0.65735,2.7785c0.25595,0.65761 0.7554,1.44243 0.77866,2.35483c0.02365,0.92775 -0.00949,1.7314 0.22134,2.74516c0.15881,0.69736 0.57388,1.50546 0.7215,2.52151c0.11526,0.7934 0.05716,1.79999 0.05716,2.60001c0,1 0,1.79999 0,2.79999c0,0.81067 0,1.45715 0,2.68399c0,0.54135 0,1.36334 0,2.63068c0,0.66449 -0.02216,1.68591 0.01068,2.50665c0.02777,0.69403 0.20761,1.82211 0.34198,2.48853c0.21707,1.07651 0.39249,1.80344 0.52585,2.8685c0.0824,0.65799 0.11615,1.57495 0.12149,2.655c0.00354,0.71399 0,1.61932 0,2.58798c0,0.80402 0,1.62601 0,2.65735c0,0.92133 0,1.60532 0,2.604c0,0.79648 0,1.98398 0,2.79648c0,0.8425 0,1.76752 0,2.6875c0,0.78601 0,1.608 0,2.66669c0,0.93066 0,1.56216 0,2.56534c0,0.94415 0,1.84415 0,2.80264c0,0.96533 0.00171,1.63467 0,2.39999c-0.00226,0.99869 0.00507,1.81485 -0.284,2.79868c-0.23996,0.81668 -0.58884,1.80093 -0.716,2.60001c-0.15933,1.00119 -0.38901,1.58755 -0.64734,2.39999c-0.31339,0.98557 -0.2399,1.81287 -0.63666,2.71466c-0.32581,0.74051 -0.90454,1.61325 -0.67999,2.48535c0.22067,0.85693 1.26074,1.17999 1.91132,1.75266c0.58884,0.51831 0.957,1.28204 1.62201,1.84601c0.68622,0.58197 1.6976,0.67862 2.59732,0.96799c0.67746,0.2179 1.33624,0.65402 2.19736,1.22269c0.82391,0.5441 1.78946,0.42929 2.63599,0.77731c0.67108,0.27591 1.39948,0.81607 2.38934,0.83334c0.89587,0.01563 1.85315,-0.1004 2.32532,-0.80133c0.47879,-0.71075 0.83963,-1.53278 1.20132,-2.39999c0.27115,-0.65009 0.45074,-1.68201 0.97067,-2.31467c0.67242,-0.81824 1.37543,-1.01965 2.09183,-1.80551c0.57944,-0.63562 0.78473,-1.29874 1.33051,-2.2785c0.34128,-0.61264 1.00989,-1.4166 1.69635,-2c0.48474,-0.41196 1.27734,-0.95233 2.02667,-1.79999c0.50397,-0.5701 0.89627,-1.24185 1.73734,-2c0.47098,-0.42453 1.29684,-0.98172 2.064,-1.60001c0.72348,-0.5831 1.35812,-1.19781 1.76532,-1.60001c0.8056,-0.79568 1.40134,-1.39999 2.00134,-2c0.80133,-0.80133 1.21066,-1.21066 1.85715,-1.85715c0.7095,-0.7095 1.22684,-1.22684 2.04285,-2.04285c0.54733,-0.54733 1.33334,-1.33334 1.81467,-1.81467c0.66449,-0.66449 1.08783,-1.07391 1.88516,-1.8855c0.59476,-0.60538 1.20096,-1.22119 1.77884,-2.22134c0.2998,-0.51886 0.63147,-1.39606 0.90533,-1.97983c0.56882,-1.21246 0.93964,-1.78903 1.29065,-2.36267c0.65552,-1.07129 1.12805,-1.75153 1.46368,-2.6315c0.29919,-0.78445 0.34482,-1.60443 0.36166,-2.60449c0.01401,-0.83194 0.03348,-1.57474 0.22134,-2.86417c0.11664,-0.80063 0.20789,-1.22183 0.35333,-2.09583c0.14523,-0.87271 0.31036,-2.09659 0.37265,-2.83017c0.08691,-1.02377 0.1098,-1.69641 0.27417,-2.73117c0.11667,-0.73459 0.28867,-1.48138 0.483,-2.22601c0.37497,-1.43668 0.59204,-2.09659 0.7955,-2.73181c0.29501,-0.92114 0.59998,-1.82083 0.89999,-2.72086c0.29999,-0.89999 0.60571,-1.79813 0.89999,-2.70898c0.20398,-0.63138 0.41586,-1.30121 0.70001,-2.42435c0.21045,-0.83176 0.39688,-1.71588 0.564,-2.616c0.08255,-0.44464 0.28641,-1.7157 0.35068,-2.48132c0.08786,-1.04678 0.08099,-1.7175 0.08533,-2.73601c0.00467,-1.095 0.01187,-1.87544 0.05716,-2.69499c0.0235,-0.42529 0.15668,-1.7606 0.2955,-2.68651c0.13977,-0.93216 0.23334,-1.38876 0.36334,-2.2825c0.17807,-1.22417 0.24258,-1.95438 0.27332,-2.948c0.01913,-0.61844 0.02679,-1.82188 -0.01016,-2.72133c-0.02466,-0.6006 -0.18204,-1.80476 -0.41516,-2.71066c-0.1618,-0.62878 -0.37729,-1.27132 -0.76401,-2.67467c-0.20639,-0.74893 -0.40091,-1.5251 -0.59998,-2.31601c-0.30157,-1.19814 -0.39178,-1.59991 -0.61069,-2.388c-0.21591,-0.77733 -0.41586,-1.55199 -1.07465,-2.92667c-0.32248,-0.67291 -0.72928,-1.30702 -1.116,-1.96799c-0.60486,-1.03377 -0.99869,-1.76868 -1.39868,-2.51601c-0.39999,-0.74733 -0.98978,-1.83945 -1.40134,-2.51466c-0.39951,-0.65543 -0.81973,-1.28596 -1.284,-1.884c-0.7135,-0.91908 -1.26227,-1.50162 -1.81467,-2.08051c-0.54239,-0.56841 -1.32797,-1.3596 -2.04733,-2.06366c-0.44934,-0.43977 -1.1239,-1.07184 -1.87399,-1.65717c-0.79092,-0.61717 -1.36111,-0.98969 -1.89468,-1.40001c-1.01517,-0.78065 -1.67734,-1.40764 -2.13666,-1.79999c-0.95544,-0.81615 -1.5029,-1.20898 -2.08899,-1.60001c-0.61377,-0.40948 -1.62225,-1.00497 -2.34235,-1.39999c-0.73856,-0.40514 -1.49454,-0.79291 -2.23199,-1.20001c-1.06805,-0.5896 -1.72339,-0.99382 -2.34235,-1.37917c-0.85641,-0.53317 -1.8483,-1.15363 -2.54166,-1.5c-0.67535,-0.33739 -1.68369,-0.72163 -2.5,-1.02083c-0.54715,-0.20053 -1.57748,-0.60316 -2.28534,-0.89999c-0.72314,-0.30324 -1.85608,-0.70425 -2.51999,-0.90001c-0.69339,-0.20444 -1.73495,-0.47563 -2.65182,-0.8c-0.78918,-0.27921 -1.4838,-0.61807 -2.46436,-1c-0.80878,-0.31502 -1.68231,-0.60199 -2.57849,-0.89999c-0.90833,-0.30203 -1.539,-0.50912 -2.21432,-0.7c-1.11487,-0.31511 -1.95331,-0.50169 -2.83633,-0.7c-0.89828,-0.20174 -1.34769,-0.28477 -2.616,-0.60001c-0.7677,-0.19081 -1.83173,-0.50578 -2.53867,-0.7c-1.12552,-0.30922 -1.96069,-0.50156 -2.39551,-0.5955c-0.87708,-0.1895 -1.73267,-0.37355 -2.89917,-0.53783c-0.92581,-0.13039 -1.668,-0.15601 -2.69968,-0.16667l-0.75867,0l-1.07767,0" id="svg_3" stroke-width="2" stroke="#000" fill="none"/>
  <path t="7697,7718,7719,7719,7734,7735,7742,7742,7758,7768,7768,7785,7801,7818,7835,7835" d="m207,285c7.24966,6.371 7.88062,6.98508 8.56134,7.53601c0.73566,0.5954 1.46411,0.92383 2.27199,1.46399c0.66852,0.44699 1.51929,0.83093 2.36667,1.284c0.65201,0.3486 1.5,0.76868 2.3,1.216l0.8,0.44733l0.8,0.27402l0.7,0.49466" id="svg_4" stroke-width="2" stroke="#000" fill="none"/>
  <path t="8707,8731,8731,8731,8731,8731,8739,8739,8762,8787,8787,8790,8823,8831,8882" d="m274,296c10.32767,-5.71365 10.9155,-6.0546 11.43365,-6.36234c0.85938,-0.51038 1.47363,-0.99542 2.59567,-1.46832c0.74484,-0.31393 1.45099,-0.71112 2.17068,-1.36801c0.5845,-0.53348 1.44281,-0.854 1.96664,-1.63467l0.71201,-0.388l0.474,-0.7215" id="svg_5" stroke-width="2" stroke="#000" fill="none"/>
  <path t="10481,10487,10488,10488,10503,10518,10518,10535,10551,10551,10568,10585,10585,10601,10618,10635,10635,10651,10668,10668,10683,10700,10719,10719,10735,10750,10766,10784,10784,10784,10800,10800,10817,10834,10834,10850,10867,10883,10899,10900,10900,10916,10917,10934,10950,10950,10967,10967,10984,10984,10984,11000,11000,11000,11016,11017,11017,11035,11035,11050,11050,11067,11067,11084,11084,11100,11100,11117,11117,11133,11149,11150,11167,11183,11199,11200,11216,11234,11250,11250,11267,11267,11284,11284,11284,11300,11300,11316,11317,11317,11334,11334,11334,11350,11350,11350,11366,11367,11384,11384,11384,11400,11400,11400,11417,11417,11434,11449,11450,11450,11466,11467,11467,11483,11484,11484,11500,11500,11500,11516,11517,11534,11550,11550,11575,11599,11611,11619,11635,11650,11667,11684,11684,11699,11700,11716,11733,11734,11749,11766,11767,11784,11784,11800,11816,11834,11834,11850,11867,11883,11899,11900,11900,11916,11934,11934,11934,11950,11967,11984,11999,12000,12016,12047,12063,12079,12084,12100,12100,12116,12132,12150,12167,12211,12251,12263,12263,12271,12282,12300,12317,12347" d="m251,341c0,8.34933 0.00058,9.19534 0,10.08932c-0.00067,1.02533 -0.12469,1.94415 -0.61067,2.51068c-0.63756,0.74326 -1.51973,1.19452 -2.18933,1.48401c-0.88977,0.38464 -1.68117,0.86447 -2.37466,0.9053c-1.06636,0.06281 -1.98592,-0.1875 -2.82533,0.17734c-0.68456,0.29755 -1.21188,1.2746 -2.10001,1.71201c-0.65443,0.3223 -1.50774,0.71072 -1.87466,1.52133c-0.35391,0.78186 -0.91432,1.32465 -1.5045,2.10001c-0.55907,0.73447 -1.08209,1.39148 -1.62067,2.16415c-0.39256,0.5632 -0.62599,1.31665 -0.81483,2.36652c-0.15157,0.84259 -0.08533,1.79468 -0.08533,2.80267c0,0.75598 -0.00449,1.66666 0,2.56665c0.0045,0.90454 0.30785,1.78793 0.86133,2.42535c0.46962,0.54083 1.25334,1.28931 1.83417,1.87015c0.7045,0.7045 1.26796,1.34576 1.94051,1.90451c0.65263,0.54221 1.3842,0.90121 2.364,1.39999c0.59962,0.30524 1.42453,0.72388 2.2,1.32132c0.62076,0.47824 1.1758,1.05792 1.99983,1.65735c0.75824,0.55157 1.36732,0.85852 2.0475,1.67401c0.55022,0.65967 1.1994,1.52551 1.92734,1.90067c0.77097,0.39731 1.59616,0.44992 2.4825,0.80383c0.76534,0.3056 1.73207,0.86191 2.32201,1.12198c0.98479,0.43411 1.80327,0.6344 2.54167,1.02084c0.78452,0.41058 1.65378,0.49466 2.59381,0.5c0.98532,0.00558 1.88535,0 2.68533,0c0.90002,0 1.74716,0.061 2.68402,-0.28534c0.71606,-0.26471 1.51819,-0.78763 2.14133,-1.35065c0.72485,-0.65491 1.18875,-1.21429 1.77917,-1.71133c0.96155,-0.80945 1.59274,-1.13712 2.59549,-1.65268c0.59839,-0.30768 1.42453,-0.72388 2.20001,-1.32132c0.62073,-0.47824 1.17636,-1.05713 1.99982,-1.65735c0.57388,-0.4183 1.37872,-0.84949 2.04752,-1.6785c0.42084,-0.52167 1.05066,-1.56403 1.58865,-2.13217c0.54556,-0.57611 1.37671,-1.17093 1.94266,-1.58533c0.66669,-0.48816 1.08987,-1.46912 1.30402,-2.14133c0.33273,-1.04453 0.93375,-1.8103 1.21732,-2.49384c0.31863,-0.76804 0.67593,-1.83435 1.00452,-2.53302c0.30917,-0.65744 0.85135,-1.46616 1.52084,-2.25714c0.51379,-0.60703 1.19455,-1.37598 1.52798,-2c0.41345,-0.77374 0.52661,-1.80814 0.69934,-2.54285c0.2171,-0.92349 0.88516,-1.74954 0.94598,-2.45715c0.07709,-0.89673 0.01093,-1.80008 0.00134,-2.70001c-0.01044,-0.97931 -0.63028,-1.33246 -1.5,-1.52084c-0.85052,-0.18423 -1.66507,-0.82013 -2.32535,-0.95383c-1.00571,-0.20364 -1.70267,-0.77231 -2.58533,-0.98932c-0.88501,-0.21759 -1.58932,-0.03601 -2.70398,-0.03601c-0.88535,0 -1.64359,0.03955 -2.53802,-0.00449c-0.86603,-0.04263 -1.66113,-0.51871 -2.54733,-0.9115c-0.76645,-0.33969 -1.61774,-0.53275 -2.36398,-1.10934c-0.58975,-0.45569 -0.90863,-1.35934 -1.436,-2.14133c-0.43088,-0.63892 -0.7836,-1.36102 -1.39999,-2.20801c-0.58466,-0.80338 -1.04996,-1.42526 -1.31467,-2.14133c-0.34634,-0.93686 -0.19135,-1.93109 -0.638,-2.784c-0.39395,-0.75226 -0.25366,-1.63065 -0.73267,-2.41467c-0.49078,-0.80328 -1.19702,-1.24261 -2.11469,-1.28534c-0.89902,-0.04184 -1.79999,0 -2.59998,0c-0.90002,0 -1.80002,0 -2.70001,0c-0.89999,0 -1.80652,-0.10696 -2.70001,0.00134c-0.91977,0.11148 -1.61819,0.44681 -2.36398,1.02399c-0.62555,0.48413 -1.23734,0.97333 -2.136,1.03183l-0.8,0.44284" id="svg_6" stroke-width="2" stroke="#000" fill="none"/>
  <path t="13021,13031,13031,13044" d="m243,368" id="svg_7" stroke-width="2" stroke="#000" fill="none"/>
  <path t="14663,14688,14688,14688,14688,14688,14688,14703,14703,14703" d="m248,366c2.42799,1.76382 2.90082,2.05612 3.952,2.66534c0.54637,0.31665 1.09601,0.62265 2.144,1.19733l0.90401,0.47067l0.9525,0.4425l0.75417,0.30414" id="svg_8" stroke-width="2" stroke="#000" fill="none"/>
  <path t="15543,15553,15569,15569,15585,15601,15601,15619,15647,15663,15699" d="m271,362c1.39999,0.85068 2.11923,1.50885 2.71466,2.08267c0.61234,0.59012 1.16211,1.29303 1.80267,1.71732c0.85791,0.56827 1.36133,1.29984 1.76666,2.116l0.66333,0.44119" id="svg_9" stroke-width="2" stroke="#000" fill="none"/>
  <path t="18610,18620,18620,18620,18620,18620,18620,18620,18620,18635,18635,18652,18652,18652,18667,18667,18667,18667,18683,18683,18683,18683,18683,18700,18701,18701,18701,18701,18717,18717,18717,18717,18734,18734,18734,18734,18750,18750,18750,18750,18767,18767,18767,18784,18784,18784,18800,18800,18800,18817,18817,18833,18833,18851,18851,18867,18867,18883,18884,18884,18900,18901,18917,18917,18917,18934,18934,18934,18950,18950,18950,18950,18967,18967,18967,18967,18983,18983,18983,18983,19000,19000,19000,19000,19000,19017,19017,19017,19033,19033,19033,19050,19051,19051,19067,19067,19067,19083,19083,19084,19084,19100,19100,19117,19117,19117,19134,19134,19134,19151,19167,19167,19184,19184,19200,19217,19247,19255,19275,19291,19300" d="m155,309c7.66667,17.33334 8.1337,18.4534 8.51733,19.43201c0.33025,0.84241 0.59883,1.56918 0.81599,2.19299c0.18489,0.5311 0.41591,1.39722 0.86667,2.60434c0.27577,0.73853 0.79355,1.77396 1.10451,2.37515c0.44351,0.85745 0.85928,1.56393 1.35266,2.35718c0.36156,0.5813 0.76025,1.19244 1.34283,2.20499c0.41051,0.7135 0.80498,1.47247 1.23599,2.24402c0.44351,0.79395 0.92052,1.59601 1.44801,2.388c0.53117,0.79752 0.81497,1.18121 1.36333,1.94415c0.78455,1.09155 1.2659,1.77151 1.71667,2.41049c0.42397,0.60095 1.22926,1.6857 1.63599,2.16269c0.59035,0.69235 1.022,1.1189 1.8,2.10532c0.41187,0.52222 0.98952,1.36124 1.40001,1.89468c0.78035,1.01407 1.19284,1.45486 1.79999,2.0795c0.79079,0.81357 1.40001,1.40448 2,2.00449c0.60001,0.60001 1.19548,1.19553 1.76401,1.76401c0.81462,0.81454 1.30176,1.36325 2.15733,1.936c0.65462,0.43823 1.54099,0.86465 2.15784,1.39999c0.76027,0.65982 1.27162,1.26361 2.00616,1.98401c0.53093,0.52069 1.08493,1.07584 1.91466,1.63065c0.77328,0.51706 1.59529,0.89505 2.41068,1.28534c0.64287,0.30771 1.61229,0.69632 2.42532,1.01068c0.57573,0.2226 1.77061,0.74384 2.36401,1.07465c0.60701,0.33841 1.50058,0.9183 2.39999,1.51468c0.60039,0.3981 1.18582,0.81308 2.10001,1.34283c0.88684,0.51392 1.50392,0.76865 2.42082,1.17801c0.63817,0.28494 1.65408,0.79922 2.36183,1.24716c0.74089,0.46893 1.45229,0.98669 2.14801,1.46399c0.92146,0.63217 1.44653,0.96899 2.14799,1.34668c1.00978,0.54367 1.83586,0.9357 2.50667,1.22131c0.98982,0.42145 1.543,0.59189 2.362,0.90002c1.0354,0.38956 1.72293,0.7374 2.46249,0.94281c1.11493,0.30966 1.79596,0.29868 2.83951,0.38251c0.68298,0.05487 1.88239,0.25079 2.60899,0.47467c1.04521,0.32205 1.85181,0.47818 2.49884,0.49551c0.96367,0.02579 1.76999,-0.08569 2.7735,0.08981c0.97688,0.17084 1.75667,0.82672 2.5265,0.91019c0.89029,0.09653 1.75883,0.00449 2.722,0.00449c0.82083,0 1.81633,0.00449 2.4955,0.42532l0.54616,0.55383l0.87917,0.02084l0.90001,-0.00449" id="svg_10" stroke-width="2" stroke="#000" fill="none"/>
  <path t="20216,20236,20236,20236,20236,20236,20252,20252,20269,20269,20285,20285,20285,20303,20303,20317,20317,20317,20333,20333,20350,20350,20350,20367,20367,20367,20383,20383,20383,20400,20400,20400,20417,20417,20433,20433,20433,20433,20450,20451,20468,20468,20468,20485,20485,20500,20500,20500,20517,20517,20517,20533,20533,20533,20550,20550,20550,20565,20565,20566,20582,20582,20599,20600,20600,20600,20616,20616,20616,20616,20633,20633,20633,20633,20650,20650,20650,20666,20666,20666,20682,20682,20683,20700,20700,20700,20700,20716,20716,20733,20733,20733,20750,20750,20750,20766,20766,20783,20783,20783,20800,20800,20816,20816,20833,20850,20866,20866,20883,20883,20900,20900,20916,20916,20933,20933,20950,20966,20983,21000,21019,21039,21131" d="m273,383c7.91367,-1.97849 8.45718,-2.11005 9.43466,-2.36401c0.85175,-0.22128 1.60596,-0.38788 2.79333,-0.836c0.7207,-0.272 1.60776,-0.79675 2.14667,-1.19998c0.79556,-0.59525 1.45789,-1.00668 2.22665,-1.39999c0.99429,-0.5087 1.59869,-0.80002 2.59869,-1.30002c0.59998,-0.29999 1.40668,-0.68695 2.19998,-1.10132c0.80701,-0.42151 1.60864,-0.95486 2.20001,-1.45135c0.60907,-0.51135 1.38422,-1.20508 2.21066,-1.72198c0.63492,-0.39709 1.61423,-0.9408 2.13751,-1.27802c0.79626,-0.51312 1.72107,-1.1774 2.24197,-1.59015c0.69598,-0.55148 1.50607,-1.01273 2.21436,-1.5715c0.84677,-0.66803 1.19055,-1.19504 1.7955,-1.935c0.39676,-0.48532 1.16925,-1.3277 2,-1.82935c0.77399,-0.46738 1.62592,-0.77948 2.14282,-1.1785c0.84073,-0.64896 1.24976,-1.47696 1.82382,-2.24283c0.46481,-0.62012 1.04285,-1.20117 1.83334,-2c0.5946,-0.60086 1.20181,-1.16986 1.83334,-2c0.44138,-0.58017 0.74738,-1.23257 1.48798,-2.20001c0.47632,-0.62219 1.06546,-1.17038 1.65717,-2c0.41412,-0.58063 0.81439,-1.40292 1.22284,-2.20132c0.42859,-0.8378 0.96039,-1.76837 1.284,-2.284c0.52753,-0.84058 0.91934,-1.41907 1.51468,-2.31467c0.39877,-0.59995 0.99301,-1.49182 1.34283,-2.10001c0.51105,-0.88849 0.9057,-1.79324 1.13632,-2.37915c0.32764,-0.83237 0.72086,-1.83685 1.02084,-2.52084c0.29999,-0.68399 0.70685,-1.68292 1,-2.52084c0.30716,-0.87802 0.59998,-1.77914 0.89999,-2.67917c0.20001,-0.59998 0.60361,-1.7988 0.79868,-2.39865c0.28577,-0.87878 0.55258,-1.70932 0.71732,-2.716c0.10818,-0.66098 0.24179,-1.68823 0.50934,-2.496c0.2149,-0.6489 0.50934,-1.87198 0.55383,-2.68933c0.02975,-0.54675 0.02084,-1.81467 0.02084,-2.47916c0,-1.02084 0,-1.82083 0,-2.62085c0,-1 0,-1.79999 0,-2.79868c0,-0.94415 -0.09668,-1.84918 0.00134,-2.80133c0.08365,-0.81259 0.75906,-1.52762 0.9415,-2.45715c0.14429,-0.73517 0.05716,-1.74283 0.05716,-2.54285c0,-0.99982 0,-1.77914 0,-2.77847c0,-0.82019 0,-1.72153 0,-2.62152c0,-0.89999 0,-1.79999 0,-2.69998l0,-0.90002l0,-0.89966" id="svg_11" stroke-width="2" stroke="#000" fill="none"/>
  <path t="22040,22050,22050,22050,22060,22060,22060,22068,22068,22085,22085,22102,22102,22118,22118,22118,22135,22135,22150,22150,22166,22166,22183,22183,22200,22200,22216,22216,22233,22250,22250,22266,22266,22283,22283,22300,22300,22316,22316,22333,22350,22365,22366,22366,22383,22402,22403,22427,22427,22435,22463" d="m215,312c8.66667,11.5 9.23366,12.302 9.71466,13.02802c0.42433,0.64047 1.09192,1.71393 1.328,2.168c0.66685,1.28259 0.80174,2.13541 1.17867,2.90414c0.34473,0.70306 0.7088,1.56393 0.83134,2.36151c0.14795,0.96292 0.38329,1.75003 0.59467,2.5285c0.28152,1.03674 0.31386,1.75897 0.35716,2.66699c0.04514,0.94653 0.30098,1.73535 0.57016,2.54285c0.33046,0.99133 0.41492,1.77899 0.42534,2.77866c0.00806,0.77396 0,1.67401 0,2.53732c0,0.98401 0,1.96933 0,2.69467c0,0.98917 0,1.76849 0,2.76801c0,0.77399 0,1.6785 0,2.62265c0,0.99417 -0.00063,1.74152 0,2.64151c0.00067,0.9585 0.15874,1.927 0.42534,2.58252c0.2823,0.69409 0.49789,1.70023 0.86,2.65866c0.26982,0.71417 0.81467,1.49432 1.41466,2.15433l0.77917,0.36166l0.5735,0.64734" id="svg_12" stroke-width="2" stroke="#000" fill="none"/>
  <path t="24030,24040,24040,24040,24040,24040,24040,24040,24055,24055,24066,24083,24100,24100,24116" d="m287,355c6,-14.83334 6.37494,-15.81857 6.68799,-16.68668c0.27243,-0.75543 0.49753,-1.41281 0.84802,-2.46664c0.25708,-0.77298 0.71667,-1.76093 1.10681,-2.53317c0.44659,-0.88394 0.7825,-1.72418 1.19052,-2.48016l0.16666,-0.8125l0.35266,-0.91101" id="svg_13" stroke-width="2" stroke="#000" fill="none"/>
  <path t="25272,25690,25711,25719,25733,25750,25766,25766,25766,25783,25783,25783,25800,25800,25800,25816,25816,25817,25833,25833,25833,25833,25850,25850,25851,25851,25851,25851,25866,25866,25866,25866,25883,25883,25883,25900,25900,25900,25900,25900,25916,25916,25916,25916,25933,25933,25933,25933,25950,25950,25950,25951,25966,25966,25966,25967,25984,25984,25984,25984,26000,26000,26000,26000,26000,26016,26016,26016,26016,26033,26033,26033,26050,26050,26050,26050,26066,26066,26066,26066,26083,26083,26083,26100,26100,26116,26116,26133,26133,26150,26150,26165,26166,26166,26182,26200,26200,26216,26216,26233,26250,26266,26266,26283,26536,26567,26575,26587,26603,26619,26634,26634,26651,26667,26684,26684,26701,26701,26717,26733,26733,26733,26750,26750,26766,26766,26783,26800,26800,26816,26833,26833,26850,26911,26927,26942,26950,26950,26966,26983,27000,27000,27015,27016,27016,27032,27033,27033,27033,27050,27050,27050,27066,27066,27066,27083,27083,27083,27100,27100,27116,27134,27134,27150,27150,27166,27183,27183,27199,27200,27216,27216,27216,27242,27243,27294,27312,27319,27333,27350,27366,27366,27383,27426,27442,27450,27466" d="m181,360c1.2215,-0.87851 2.23424,-1.24695 2.916,-0.716c0.62657,0.48795 1.00705,1.17889 1.3055,2.03766c0.25597,0.73654 0.58395,1.36337 0.97984,2.36234c0.32286,0.8147 0.64107,1.65823 1.12,2.3945c0.46394,0.71323 1.06673,1.28665 1.65733,2.12167c0.56143,0.79379 0.89403,1.49207 1.508,2.48782c0.35353,0.57336 0.76265,1.19299 1.2,1.884c0.73915,1.16788 0.99799,1.59561 1.53867,2.47867c0.27499,0.44913 0.82072,1.34479 1.09067,1.78134c0.75874,1.22705 1.22296,1.94876 1.64233,2.6055c0.38057,0.59598 1.01772,1.64294 1.427,2.34784c0.42163,0.72617 0.93851,1.55466 1.38533,2.18265c0.49103,0.69012 1.02888,1.40051 1.632,2.06403c0.86676,0.95355 1.48672,1.4613 2.07651,1.92633c0.55797,0.43994 1.36868,1.0249 2.06816,1.64615c0.69276,0.61526 1.13701,1.08051 1.87401,1.81683c0.53157,0.5311 1.07861,1.07874 1.89465,1.89468c0.76262,0.76254 1.22076,1.2381 1.90933,1.87332c0.45186,0.41684 1.45837,1.21609 2.02135,1.62134c0.59689,0.42966 1.2437,0.86948 2.27466,1.61066c0.73399,0.52768 1.47841,1.07901 1.85333,1.35333c0.74083,0.54202 1.8037,1.3038 2.46367,1.76819c0.62003,0.43628 1.21819,0.82968 2.24033,1.65698c0.70898,0.57385 1.10347,1.02951 2.08801,1.63351c0.76062,0.46661 1.3624,0.64832 2.23466,1.05066c0.90747,0.41858 1.50816,0.75177 2.36267,1.32666c0.56018,0.37686 1.55951,1.17691 2.19432,1.76849c0.56422,0.52582 1.25879,1.29987 1.79434,1.71634c0.85583,0.66553 1.61768,0.97083 2.36333,1.50452c0.65829,0.47116 1.36227,1.01309 2.09467,1.39999c0.98003,0.5177 1.60199,0.76035 2.304,1.19998c0.88133,0.55194 1.55316,1.3371 2.12134,1.80002c0.80449,0.65546 1.5809,0.92001 2.19467,1.59866c0.61392,0.6788 1.48114,0.99423 1.88399,1.60266c0.54388,0.82144 1.10312,1.43073 1.28551,2.29849c0.16653,0.79233 0.97116,1.25592 0.99983,2.10019c0.03055,0.89948 0.2206,1.76666 0.57466,2.39999c0.48151,0.86127 0.3441,1.83749 0.70934,2.60132c0.34898,0.72989 0.68971,1.6236 0.71468,2.31467c0.03627,1.00446 0.21931,2.02765 0.42667,2.73468c0.21849,0.74503 0.43106,1.79395 0.65866,2.63199c0.21375,0.78702 0.73798,1.60959 0.88,2.492c0.15054,0.9353 0.036,1.79999 0.036,2.73999c0,0.88535 -0.39305,1.81573 0.08533,2.60001c0.49019,0.80362 1.20871,1.13385 2.11467,1.28668c0.9136,0.15411 1.45541,0.80167 2.40001,0.98798c0.79562,0.15692 1.72931,0.21457 2.42084,0.53152c0.99097,0.45419 1.57565,0.80875 2.4935,1.17917c0.80884,0.32642 1.79099,0.59998 2.48566,0.79999c0.69467,0.20001 1.66821,0.49573 2.49017,0.7955c0.72586,0.26474 1.93005,0.5929 2.73517,0.67917c0.82098,0.08795 1.858,0.23099 2.53867,0.45065c0.84109,0.27145 1.83017,0.54199 2.57883,0.57019c0.90387,0.03406 1.82895,0.07819 2.65717,-0.01636c0.99225,-0.11325 1.64188,-0.68207 2,-1.47916c0.36075,-0.80292 0.81213,-1.37851 1.41068,-2.336c0.35291,-0.56454 0.89505,-1.37753 1.41467,-1.95334c0.67099,-0.74356 1.33353,-1.5701 1.97333,-1.92401c0.82645,-0.45715 1.80136,-0.29199 2.70132,-0.28665c0.90005,0.00534 1.60721,0.45297 2.5,0.83334c0.75153,0.32019 1.70001,0.16666 2.564,0.13065l0.43152,-0.66849l-0.03152,-0.89551l-0.39999,-0.79999" id="svg_14" stroke-width="2" stroke="#000" fill="none"/>
  <path t="28224,28296,28306,28335,28351,28351,28367,28367,28367,28383,28383,28400,28400,28400,28416,28433,28434,28434,28450,28451,28467,28467,28483,28483,28500,28516,28517,28517,28533,28533,28550,28550,28566,28567,28567,28583,28583,28600,28600,28600,28616,28616,28616,28633,28651,28651,28666,28667,28667,28683,28700,28700,28700,28716,28716,28733,28751,28766,28766,28783,28783,28799,28816,28816,28833,28849,28866,28883,28883,28899,28916,28934,28958,28998" d="m263,387c0.99551,1.70001 1.21268,2.50809 1.64734,3.16699c0.5224,0.7919 0.31247,1.64005 0.51932,2.66635c0.14514,0.72015 0.53513,1.56351 0.93335,2.36667c0.39731,0.80133 0.90762,1.79626 1.1955,2.39548c0.35684,0.74283 0.61832,1.79645 0.87115,2.57117c0.2869,0.87909 0.62152,1.44138 1.13333,2.42883c0.39008,0.75259 0.9263,1.50073 1.40002,2.15717c0.63153,0.87509 0.98453,1.5816 1.24731,2.49469c0.26138,0.90823 0.4194,1.63599 0.93933,2.26865c0.67242,0.81824 1.36237,1.03171 2.09201,1.80533c0.58719,0.62259 1.16382,1.54257 1.67401,1.92151c0.66562,0.49438 1.60782,1.04761 2.23132,1.64252c0.61456,0.5864 1.13684,1.1355 1.71732,1.71597c0.79736,0.79736 1.37784,1.37784 1.91336,1.91336c0.72815,0.72815 1.48532,1.48532 2.00616,2.00616c0.64581,0.64581 1.27142,1.33289 1.82648,1.76932c0.84933,0.66779 1.69739,1.01364 2.15268,1.7515c0.33408,0.54141 0.70142,1.61633 1.20001,2.24402c0.59543,0.74954 1.73938,0.97455 2.13333,1.71432c0.37054,0.6958 0.48291,1.67471 0.87115,2.34732c0.53638,0.92926 1.19336,1.64081 1.29102,2.35269c0.12244,0.89255 0.52188,1.65033 0.92047,2.5c0.40363,0.86041 0.89386,1.4541 1.07333,2.39999c0.16779,0.88428 0.01068,1.79999 0.01068,2.6955l-0.00015,0.92599" id="svg_15" stroke-width="2" stroke="#000" fill="none"/>
  <path t="30666,31166,31176,31201,31218,31233,31233,31233,31249,31249,31266,31266,31266,31283,31283,31299,31299,31299,31299,31316,31316,31316,31333,31333,31349,31349,31366,31366,31366,31383,31383,31383,31399,31399,31399,31416,31416,31433,31433,31433,31449,31449,31466,31466,31466,31483,31483,31483,31483,31499,31516,31516,31533,31533,31533,31562,31570,31590,31614,31630,31634,31650,31666,31683,31699,31716,31733,31749,31766,31766,31766,31783,31783,31783,31799,31799,31799,31816,31816,31833,31833,31833,31849,31849,31849,31866,31866,31866,31883,31883,31899,31899,31916,31916,31950,31974,31982,31999,32016,32016,32033,32033,32033,32049,32049,32066,32066,32083,32083,32083,32083,32099,32099,32099,32099,32116,32116,32116,32133,32133,32133,32133,32149,32149,32149,32149,32166,32166,32166,32166,32183,32183,32183,32199,32199,32199,32199,32216,32216,32216,32233,32233,32249,32249,32249,32266,32266,32266,32283,32283,32299,32299,32299,32316,32316,32333,32333,32349,32349,32366,32366,32383,32383,32383,32399,32399,32416,32416,32433,32433,32449,32449,32449,32467,32467,32483,32483,32483,32499,32499,32499,32516,32516,32516,32533,32533,32549,32549,32549,32566,32583" d="m292,377c0.87851,1.2215 0.75787,2.2305 1.284,2.91599c0.4881,0.63596 0.86523,1.42255 1.07318,2.08936c0.23401,0.75034 0.61188,1.68121 1.14282,2.47382c0.47311,0.70627 0.90598,1.35373 1.29999,2.12216c0.51233,0.99921 0.82117,1.64328 1.36667,2.56534c0.30902,0.52234 0.8378,1.33054 1.18066,1.88068c0.6395,1.02603 1.02386,1.71298 1.45135,2.55133c0.40686,0.79788 0.84335,1.58008 1.07999,2.60135c0.18265,0.78824 0.24991,1.81384 0.55734,2.59998c0.23941,0.61218 0.77237,1.59738 1.064,2.22086c0.3089,0.6604 0.71921,1.65637 0.97916,2.47916c0.25586,0.80984 0.40744,1.81885 0.54617,2.68933c0.16202,1.01672 0.39917,1.616 0.776,2.41068c0.47964,1.01151 0.82773,1.61957 1.03201,2.56665c0.16843,0.7807 0.14709,1.65021 0.33331,2.83334c0.09467,0.60132 0.35394,1.45288 0.54935,2.22934c0.2774,1.10233 0.24286,2.0946 0.30484,2.7915c0.08771,0.98605 0.44656,1.75302 0.69516,2.49384c0.31805,0.94778 0.31708,1.8555 0.85867,2.51065c0.47067,0.56937 0.8598,1.36911 1.34131,2.17334c0.44522,0.74362 1.13782,1.24792 1.65869,1.82666c0.5741,0.63788 1.2598,0.78305 2.12534,1.03183c0.89639,0.25763 1.61749,0.86133 2.36249,0.922c0.70743,0.05762 1.90549,0.02084 2.58817,0.02084c1.04401,0 2.01599,0 2.83499,0c0.90533,0 1.91434,0 2.71436,0c1.00015,0 1.61066,0 2.48532,0c1,0 1.83551,0 2.716,0c0.89832,0 1.77734,0 2.58432,0c1.04636,0 1.98233,0 2.78235,0c0.98132,0 1.89865,0.00455 2.69034,0c0.93106,-0.00534 1.53122,-0.52069 1.54166,-1.5c0.00858,-0.80447 0,-1.8215 0,-2.52084c0,-0.97916 0,-1.77914 0,-2.57916c0,-1 0,-1.79999 0,-2.80267c0,-0.86932 -0.00522,-1.93069 0.00134,-2.56665c0.01086,-1.05164 0.01822,-1.78696 0.16531,-2.86401c0.09354,-0.685 0.34726,-1.64264 0.48068,-2.26215c0.25824,-1.19897 0.32663,-2.10419 0.34198,-2.7045c0.03064,-1.19968 0.00278,-2.10498 0.03152,-2.72086c0.04507,-0.96558 0.19431,-2.00162 0.33182,-2.73181c0.14099,-0.74857 0.32819,-1.48947 0.48068,-2.58069c0.14053,-1.00565 0.15506,-1.64566 0.16531,-2.56534c0.01343,-1.20258 0.00134,-1.81198 0.00134,-2.75848c0,-1.00949 0,-1.72549 0,-2.82199c0,-0.711 0,-1.6875 0,-2.5065c0,-0.90533 0.0545,-1.91873 -0.03601,-2.71436c-0.11496,-1.01065 -0.50308,-1.80936 -0.67999,-2.48532c-0.25784,-0.98529 -0.24481,-1.81967 -0.36801,-2.63068c-0.15302,-1.0072 -0.5202,-1.87643 -0.91599,-2.68399c-0.39362,-0.80313 -0.69131,-1.40439 -1.20001,-2.39868c-0.39331,-0.76877 -0.9115,-1.57123 -1.39999,-2.22665c-0.51205,-0.68704 -0.93683,-1.35306 -1.27884,-2.35349c-0.27899,-0.81616 -0.55844,-1.56699 -0.97183,-2.27185c-0.43832,-0.74734 -0.91153,-1.81064 -1.25467,-2.4975c-0.38876,-0.7782 -1.08057,-1.4259 -1.728,-2.08517c-0.53116,-0.54086 -1.15207,-1.34265 -1.57733,-1.992c-0.45914,-0.70108 -1.25891,-1.39969 -1.76398,-1.79999c-0.8335,-0.66058 -1.30786,-1.40747 -1.70935,-1.97598c-0.57672,-0.81662 -1.13239,-1.40302 -1.71732,-1.99869c-0.79138,-0.80591 -1.40387,-1.37775 -1.91336,-2c-0.63348,-0.77371 -1.07452,-1.60007 -1.48532,-2.39999c-0.3999,-0.77872 -0.79999,-1.42932 -1.564,-2.01468l-0.52002,-0.70132" id="svg_16" stroke-width="2" stroke="#000" fill="none"/>
  <path t="35063,35087,35087,35087,35087,35087,35087,35087,35098,35099,35118,35118,35149,35149,35149,35149,35169,35169,35169,35169,35169,35186,35186,35186,35199,35199,35199,35199,35216,35216,35216,35233,35233,35249,35249,35249,35268,35268,35285,35299,35299,35316,35316,35336,35352,35369,35385,35400,35400,35416,35435,35435,35449,35449,35466,35483,35483,35502,35502,35530" d="m170,215c-9.33333,15.5 -9.89091,16.47412 -10.34666,17.31866c-0.38672,0.71663 -0.71333,1.32143 -1.14667,2.28534c-0.30768,0.68439 -0.66512,1.73041 -1.10667,2.54933c-0.45805,0.8495 -1.05531,1.47884 -1.50017,2.39c-0.35612,0.72943 -0.53395,1.35068 -0.78516,2.03c-0.43279,1.17035 -0.76604,2.028 -0.94,2.46666c-0.34676,0.87436 -0.67618,1.71295 -1.15334,2.79567c-0.38438,0.87221 -0.76187,1.61508 -1.188,2.33101c-0.47266,0.79408 -0.84309,1.32722 -1.34933,2.14932c-0.61053,0.99146 -0.96687,1.66127 -1.28265,2.28267c-0.50732,0.99832 -0.90134,1.80133 -1.30135,2.60135c-0.39999,0.79999 -0.71338,1.39343 -1.1955,2.39548c-0.35732,0.74261 -0.54059,1.69122 -0.92583,2.50467c-0.33516,0.7077 -0.62967,1.57339 -0.86267,2.41583c-0.24368,0.88107 -0.6808,1.78323 -1.2,2.39999c-0.55678,0.66141 -0.97946,1.30356 -1.51733,1.884c-0.67224,0.72543 -1.50119,1.33234 -1.84151,1.95718c-0.45172,0.82938 -0.18188,1.77875 -0.37799,2.72198c-0.18141,0.87259 -0.7805,1.40619 -1.27467,2.17352l-0.34734,0.69464l-0.32117,1.01669" id="svg_17" stroke-width="2" stroke="#000" fill="none"/>
  <path t="41139,41163,41163,41163,41163,41163,41163,41163,41163,41163,41174,41174,41174,41174,41174,41189,41189,41189,41189,41189,41199,41199,41199,41199,41199,41199,41199,41199,41216,41216,41216,41216,41216,41216,41216,41216,41232,41232,41232,41232,41232,41232,41232,41249,41249,41249,41249,41249,41249,41249,41266,41266,41266,41266,41266,41266,41266,41282,41282,41282,41282,41282,41282,41282,41282,41282,41299,41299,41299,41299,41299,41299,41316,41316,41316,41316,41316,41332,41332,41349,41349,41349,41366,41366,41382,41382,41422,41466,41500,41542,41575,41603,41618,41634,41634,41649,41666,41666,41682,41699,41699,41699,41716,41716,41732,41733,41733,41733,41749,41749,41749,41766,41766,41766,41782,41782,41782,41783,41799,41799,41799,41800,41816,41816,41832,41832,41832,41849,41866,41866,41882,41882,41899,41899,41916,41932,41949,41966,41966,41982,41999,41999,42016,42016,42032,42033,42054,42055,42055,42106,42114,42176" d="m7,229c16.66667,16.5 17.79469,17.58124 18.80133,18.51733c0.88152,0.81975 1.66002,1.52432 2.3445,2.12849c0.59454,0.52478 1.11942,0.97263 1.5795,1.36351c0.77426,0.65782 1.1115,0.94633 1.42,1.22c0.55946,0.49628 1.03798,0.97421 2.02133,1.77066c0.51353,0.41592 1.10668,0.82941 1.788,1.272c0.78201,0.508 1.71124,1.06262 2.23117,1.371c1.13666,0.67416 1.74776,1.02856 2.37667,1.39865c0.64443,0.37921 1.29976,0.76495 1.9575,1.16101c1.31621,0.79257 1.95931,1.19562 2.59333,1.59601c0.62597,0.39529 1.24039,0.79004 1.845,1.18048c1.18076,0.76248 1.75277,1.13898 2.875,1.85419c0.54425,0.34686 1.61293,1.01126 2.14133,1.33066c0.52428,0.31689 1.04604,0.63345 2.10933,1.23468c1.07804,0.60959 1.63582,0.90417 2.76867,1.50131c0.57191,0.30145 1.14777,0.59918 1.722,0.89999c1.1422,0.59836 2.25938,1.19873 2.80434,1.5c0.54037,0.29874 1.61586,0.9021 2.16267,1.20001c0.55452,0.30209 1.11105,0.6297 2.95833,1.5c0.65908,0.31052 1.35059,0.60205 2.058,0.89551c0.71658,0.29727 1.44138,0.58524 2.166,0.8685c0.71738,0.28043 1.42453,0.54929 2.776,1.06934c0.63541,0.24451 1.8203,0.70752 2.37067,0.93066c0.52594,0.21326 1.51559,0.6022 2.796,1.23599c0.77021,0.38126 1.45298,0.78549 2.076,1.164c0.57147,0.34717 1.56662,0.96063 2.2365,1.31516c1.01292,0.53607 1.63525,0.78732 2.36367,1.22086c0.93058,0.55383 1.52804,1.06796 2.4825,1.27466c0.68343,0.14798 1.57809,0.71121 2.47467,0.96817c0.86563,0.24811 1.34785,0.48752 1.98533,0.97183c0.73148,0.55573 1.81467,0.08533 2.71467,0.08533c0.8,0 1.65149,-0.01184 2.484,0.284c0.70609,0.25092 1.78016,0.60202 2.68266,0.88266c0.68521,0.21307 1.42039,0.62622 2.44234,0.77618c0.65759,0.0965 1.72442,0.04797 2.69633,0.06165c0.69479,0.0098 1.40217,-0.02649 2.65183,0.21686c0.79279,0.15439 1.47804,0.48965 2.4645,0.65717c0.81771,0.13885 1.73999,0.11923 2.745,0.12149c0.71734,0.00159 1.45867,0 2.58067,0c1.08601,0 1.76662,-0.01846 2.71101,0.02084c0.58063,0.02417 1.85648,0.2627 2.52083,0.47916c1.02106,0.33267 1.80978,0.47314 2.5355,0.49866c0.98498,0.03464 1.96221,0.30289 2.66,0.57602c0.93241,0.36499 1.71825,0.48566 2.65067,0.85065c0.6978,0.27313 1.65366,0.56424 2.57466,0.57468c0.89995,0.01019 1.80135,0 2.48534,0c0.94,0 1.9577,-0.09271 2.74001,0.03601c0.88316,0.14532 1.56561,0.61243 2.57466,0.84265c0.78888,0.17999 1.80875,0.2627 2.58934,0.54666c0.73431,0.26715 1.68983,0.55383 2.59999,0.58536l0.60001,0.52798" id="svg_19" stroke-width="2" stroke="#000" fill="none"/>
  <path t="43449,43459,43459,43459,43459,43459,43459,43459,43459,43459,43481,43481,43481,43481,43481,43481,43481,43481,43481,43500,43500,43500,43500,43500,43501,43501,43501,43501,43516,43516,43516,43516,43516,43516,43516,43532,43532,43532,43532,43562,43562,43562,43572,43572,43572,43582,43582,43600,43600,43600,43616,43616,43632,43632,43649,43649,43666,43682,43699,43780,43788,43788,43801" d="m55,4c3,4 3.53682,5.30894 4.10266,6.81867c0.61868,1.65068 1.24245,3.40934 1.8765,5.223c0.63663,1.82101 1.24708,3.60887 1.8315,5.313c1.02164,2.97902 1.43597,4.17313 1.79067,5.16667c0.29178,0.8173 0.53429,1.47664 0.732,1.9995c0.15466,0.40901 0.28026,0.72213 0.37199,0.9645c0.13126,0.34679 0.17459,0.49358 0.21333,0.63467c0.0386,0.14058 0.075,0.28737 0.123,0.4425c0.0531,0.17165 0.11996,0.36393 0.21301,0.5775c0.23206,0.53265 0.40771,0.84663 0.59866,1.19867c0.20724,0.38206 0.67136,1.20088 1.14584,2.065c0.23608,0.42995 0.875,1.64583 1.1865,2.382c0.41616,0.98352 0.60982,1.61229 1.01433,2.813c0.1991,0.59097 0.47445,1.45441 0.9,2.47967c0.28317,0.68223 0.69505,1.43838 1.2,2.1735c0.49516,0.72085 0.90737,1.5146 1.2,2.269c0.30779,0.79352 0.66936,1.80766 1,2.4375c0.55013,1.04797 1.16577,1.63202 1.416,2.52567c0.18855,0.67337 0.54586,1.51969 0.9625,2.39466c0.33928,0.71251 0.95483,0.95467 1.1215,0.12133l0,-0.8l-0.08533,-0.91467" id="svg_20" stroke-width="2" stroke="#000" fill="none"/>
  <path t="44272,44292,44292,44292,44292,44292,44292,44292,44296,44297,44318,44318,44318,44334,44334,44334,44334,44349,44349,44349,44349,44349,44366,44366,44366,44366,44366,44366,44382,44382,44382,44382,44382,44382,44399,44399,44399,44399,44416,44416,44416,44416,44432,44432,44432,44432,44432,44432,44432,44449,44449,44449,44449,44449,44466,44466,44466,44466,44466,44482,44482,44482,44482,44482,44482,44499,44499,44499,44499,44499,44499,44516,44516,44517,44517,44517,44517,44517,44517,44517,44532,44532,44532,44532,44532,44532,44532,44549,44549,44549,44549,44549,44549,44566,44566,44566,44566,44566,44582,44582,44582,44582,44582,44599,44599,44599,44599,44599,44599,44616,44616,44616,44616,44616,44616,44616,44632,44632,44632,44632,44632,44649,44649,44649,44649,44666,44666,44666,44666,44666,44682,44682,44682,44682,44699,44699,44699,44699,44699,44717,44717,44717,44717,44717,44717,44732,44732,44734,44734,44749,44750,44750,44750,44750,44750,44767,44767,44767,44767,44767,44782,44782,44782,44782,44799,44799,44800,44800,44800,44817,44817,44817,44817,44817,44817,44817,44832,44832,44832,44832,44832,44849,44850,44850,44850,44850,44851,44867,44867,44867,44867,44867,44867,44882,44882,44882,44883,44883,44883,44899,44899,44899,44899,44899,44916,44916,44916,44917,44917,44917,44917,44932,44932,44932,44932,44932,44933,44933,44949,44949,44949,44950,44950,44967,44967,44967,44968,44968,44968,44968,44982,44982,44982,44983,44983,44999,44999,44999,45000,45017,45017,45018,45018,45032,45032,45032,45032,45033,45049,45049,45049,45049,45050,45066,45067,45067,45082,45082,45082,45083,45099,45099,45101,45101,45101,45116,45117,45117,45117,45117,45132,45132,45132,45133,45133,45149,45149,45150,45151,45151,45166,45167,45167,45182,45182,45183,45183,45199,45199,45199,45200,45216,45217,45217,45217,45218,45218,45232,45232,45232,45233,45249,45249,45249,45250,45266,45266,45267,45267,45282,45282,45282,45299,45299,45300,45300,45316,45316,45317,45317,45332,45332,45332,45333,45333,45349,45349,45349,45366,45366,45382,45382,45383,45399,45399,45399,45416,45416,45417,45417,45432,45432,45450,45465,45465,45482,45499,45519,45535,45549,45565,45587,45611,45623,45623,45632,45663,45691,45691,45707,45812,45899" d="m40,34c13,11.16667 13.83894,11.86691 14.57467,12.46c0.63236,0.50975 1.16998,0.95076 2.06134,1.58667c0.65361,0.46629 1.68148,1.06076 2.32233,1.4325c0.88081,0.51094 1.56953,1.06192 2.09634,1.40617c0.9772,0.63855 1.65164,0.95395 2.37733,1.32533c0.77023,0.39417 1.56879,0.78776 2.36933,1.19067c0.81013,0.40774 1.63612,0.83194 2.05584,1.05583c1.31408,0.70098 1.76713,0.95921 2.6955,1.5c0.47419,0.27622 1.42458,0.84939 1.89467,1.14733c1.39376,0.88338 1.83212,1.19355 2.691,1.7865c0.41554,0.28688 1.20258,0.85636 1.975,1.33833c1.04897,0.65454 1.72766,0.96491 2.36583,1.24984c0.9169,0.40937 1.82533,0.83538 2.43433,1.1825c0.65338,0.37242 1.3512,0.81198 2.5865,1.505c0.46167,0.259 1.4611,0.78429 1.98666,1.048c0.53276,0.26733 1.60861,0.78433 2.14667,1.016c1.51314,0.65151 1.9935,0.8074 2.89467,1.108c0.84837,0.28299 1.67786,0.52129 2.87217,0.98283c0.40419,0.1562 1.21143,0.51245 2.03583,0.88917c0.8503,0.38856 1.72785,0.79588 2.64934,1.188c0.47042,0.20018 1.43171,0.59092 2.41917,0.94417c0.49499,0.17707 1.99514,0.63979 2.50083,0.7745c1.03529,0.27578 1.57845,0.40176 2.13866,0.544c1.19829,0.30426 2.52366,0.66863 3.24133,0.8815c0.75172,0.22297 1.52612,0.46455 2.316,0.7185c0.79947,0.25703 1.59801,0.522 2.388,0.7905c0.77534,0.26353 2.2445,0.78012 2.92467,1.0265c0.64514,0.23369 1.25621,0.46306 2.40266,0.88c0.54015,0.19644 1.05756,0.40454 2.58334,0.875c0.49742,0.15337 1.4957,0.41323 2.47916,0.66666c0.48493,0.12496 1.4466,0.35079 2.79934,0.8215c0.44004,0.15312 1.28996,0.5048 2.11082,0.88917c0.81389,0.3811 1.60988,0.79092 2.412,1.18933c0.80855,0.4016 1.63332,0.80289 2.05583,1c1.30536,0.60897 2.22841,1.00262 2.7045,1.2c0.9778,0.40539 1.48253,0.60649 2.52501,1c1.07748,0.40672 1.63292,0.60433 2.76149,0.9955c0.56573,0.19609 1.12947,0.38841 2.242,0.74734c0.53976,0.17413 2.06662,0.63596 2.53784,0.77316c0.88925,0.25891 1.72343,0.48457 2.48399,0.76801c1.08026,0.40258 1.73534,0.76866 2.388,1.116c0.65266,0.34734 2.01747,0.98996 2.75717,1.24733c0.7597,0.26433 1.54936,0.49936 1.94417,0.63667c1.20512,0.41916 1.99866,0.76866 2.79866,1.116c0.8,0.34734 1.99664,0.84306 2.80133,1.116c0.40155,0.1362 1.22113,0.37865 2.05583,0.63667c1.31213,0.4056 2.22714,0.7283 2.69101,0.9045c0.93437,0.35491 1.39871,0.53524 2.2825,0.94417c1.23871,0.57314 1.95979,1.00199 2.66933,1.37783c0.70126,0.37145 1.82767,0.87157 2.66933,1.13551c0.43776,0.13728 1.3504,0.36926 2.2825,0.58083c0.46497,0.10555 1.82887,0.39561 2.69101,0.60899c0.83856,0.20755 1.65533,0.44456 2.05583,0.58083c1.20988,0.41167 2.00133,0.76733 2.80133,1.11467c0.8,0.34734 1.9964,0.84378 2.80267,1.116c0.40459,0.1366 1.23926,0.38311 2.11166,0.63667c1.41942,0.41254 1.93018,0.56303 2.991,0.9045c0.54631,0.17585 1.09738,0.35601 2.18933,0.74734c0.53871,0.19306 2.06404,0.79189 2.536,0.9955c0.91104,0.39305 1.34764,0.60188 2.2175,1c1.3172,0.60286 1.77032,0.80707 2.709,1.1955c0.47733,0.19752 1.44814,0.58406 2.44417,0.91917c0.99356,0.33427 1.99806,0.60368 2.49867,0.73267c0.99881,0.25735 1.50296,0.36684 2.5,0.63667c1.0031,0.27147 1.99971,0.59698 2.4955,0.76866c0.98576,0.34135 1.46552,0.53046 2.41917,0.86333c1.36017,0.47477 2.24098,0.73367 2.68132,0.85867c0.89999,0.25546 1.85921,0.50737 2.90401,0.792c0.56445,0.15377 1.76291,0.48907 2.38667,0.66933c0.63458,0.18339 1.27472,0.37012 1.91249,0.5685c1.8717,0.58219 2.4586,0.79266 3.02884,0.99416c1.09114,0.38557 1.6086,0.58299 2.60583,0.94417c0.47774,0.17303 1.8446,0.63725 2.718,0.909c0.86861,0.27025 1.31487,0.3941 2.2175,0.7175c0.97005,0.34756 2.00002,0.79698 2.536,1.0405c0.54674,0.24842 1.64458,0.77431 2.18933,1.042c0.53792,0.26433 2.06255,1.02591 2.53334,1.26283c0.89005,0.44791 1.7197,0.86534 2.48399,1.284c1.07373,0.58816 1.72902,0.99986 2.36717,1.3805c0.61459,0.36659 1.81647,1.01041 2.42982,1.26817c0.62807,0.26393 1.30751,0.49955 2.42433,0.91933c0.8363,0.31435 1.71872,0.666 2.16667,0.85417c0.89749,0.37701 2.17236,0.96846 2.92932,1.37783c0.7041,0.38078 1.34232,0.77803 1.96802,1.116c0.89301,0.48233 1.80624,0.85162 2.40265,1.11067c1.20749,0.52448 1.80615,0.8497 2.40002,1.21066c0.90967,0.55289 1.79938,1.1649 2.40265,1.56534c0.61807,0.41026 1.26694,0.83842 1.96802,1.284c1.168,0.74232 1.59692,0.99931 2.47998,1.53999c0.44913,0.27499 1.3468,0.81746 2.616,1.608c0.39139,0.24377 1.1218,0.71222 1.8125,1.14584c0.66736,0.41896 1.68564,1.02417 2.4035,1.42082c0.73013,0.40343 1.46634,0.78264 2.14801,1.20001c0.94135,0.57637 1.70801,1.2 2.18399,1.59999c0.952,0.8 1.47672,1.19171 2.28534,1.82083c0.55246,0.42982 1.34528,1.1351 2.05634,1.93634c0.49371,0.55632 0.97748,1.18323 1.94366,2.04283c0.35242,0.31354 1.15698,0.90141 1.57599,1.2c0.84598,0.60286 1.30685,0.84981 2.42401,1.8c0.6698,0.56967 1.20081,1.18213 1.668,1.76401c0.84824,1.05649 1.23074,1.55307 1.832,2.23599c0.39917,0.4534 1.20395,1.4184 1.60001,1.95267c0.60605,0.81755 0.97897,1.38052 1.79999,2.36333c0.39017,0.46706 1.01788,1.12201 1.60001,1.85068c0.61942,0.77538 1.00323,1.35194 1.39999,1.93784c0.80664,1.19121 1.2045,1.7971 1.60001,2.41632c0.4046,0.63342 1.00641,1.64232 1.39868,2.36183c0.39719,0.7285 0.76703,1.45514 1.116,2.14801c0.60294,1.19717 0.96448,1.92766 1.284,2.56667c0.40134,0.80266 0.80475,1.60095 1.30133,2.60283c0.30209,0.60947 0.61407,1.25128 1.00015,2.22133c0.32233,0.80989 0.63135,1.69521 1.0665,2.57851c0.29865,0.6062 0.84665,1.43932 1.26401,2.22934c0.49661,0.94002 0.50107,1.65654 0.58002,2.59599c0.08542,1.0164 0.67523,1.57809 0.93216,2.47467c0.24841,0.86691 -0.05362,1.80684 0.05716,2.7c0.11151,0.89923 0.95728,1.28236 1,2.2c0.04184,0.89903 -0.0372,1.80087 0,2.60001c0.04272,0.91763 0.91626,1.35431 1,2.2c0.07883,0.79611 0.08533,1.71466 0.87851,2.22133l0.12149,0.69334" id="svg_21" stroke-width="2" stroke="#000" fill="none"/>
 </g>
 <g display="none">
  <title>muse_image</title>
  <image xlink:href="http://farm2.static.flickr.com/1040/773714967_1c51a4b10e.jpg" id="muse" height="480" width="360" y="0" x="140"/>
 </g>
 <g display="none">
  <title>bbox</title>
  <rect stroke="#f00" fill="none" stroke-width="3" height="451.2" width="308.16" y="2.88" x="140" id="bbox"/>
 </g>
</svg>
