<svg width="640" height="480" xmlns="http://www.w3.org/2000/svg" xmlns:svg="http://www.w3.org/2000/svg" xmlns:xlink="http://www.w3.org/1999/xlink">
 <!-- Sketchy ANNOTATION
  ImageNet ID: n02395406_27716
  URL: http://farm2.static.flickr.com/1260/1085046451_c74c5c33bf.jpg
  Image Width: 500
  Image Height: 425
  BBox X: 3
  BBox Y: 2
  BBox Width: 496
  BBox Height: 422
  Exposure: 2000ms
  Synset Label: pig
  Synset ID: n02395406
  Worker Tag: pig cage
  Sanity Check: 
   Saved
  Comment: 
   {}
  Worker ID: AXD2DZ7U6CK35
  Assignment ID: 3F1567XTNW5BW8N09QG7XF4XRTHQ94
  HIT ID: 3OB6JN3A9QPOS9N0LC4AI7P1I4NMRY
  Work Time: 99s
  Worker Score: 0.7857
 END ANNOTATION -->
 <g display="inline">
  <title>Layer 1</title>
  <path t="0,16,16,16,16,16,16,16,16,20,21,21,21,21,21,21,32,32,49,49,49,65,65,65,82,82,82,82,82,82,99,99,99,115,115,115,115,132,132,132,132,132,149,149,149,150,150,165,165,165,165,165,182,182,182,182,182,182,199,199,199,200,200,200,215,215,215,215,215,232,232,232,233,233,250,250,250,250,250,250,250,265,265,265,265,265,282,282,282,282,299,299,299,299,299,315,315,315,315,316,332,332,332,333,348,349,349,366,366,366,382,382,382,398,398,415,415,432,432,432,448,448,465,465,482,482,500,705,733,749,767,783,799,799,816,833,833,849,849,866,866,866,883,883,901,901,901,916,916,916,916,933,933,933,933,933,949,949,949,968,968,969,969,985,985,985,985,1001,1001,1001,1001,1017,1017,1034,1034,1034,1050,1050,1050,1050,1067,1067,1067,1067,1085,1085,1100,1100,1100,1117,1117,1117,1134,1134,1134,1150,1150,1150,1150,1167,1167,1167,1182,1183,1183,1200,1200,1200,1217,1217,1217,1234,1250,1250,1267,1267,1267,1284,1284,1300,1300,1318,1334,1334,1350,1350,1350,1368,1369,1383,1383,1383,1400,1400,1417,1417,1434,1434,1434,1450,1450,1450,1450,1467,1467,1467,1484,1484,1484,1500,1500,1500,1517,1517,1517,1517,1534,1534,1534,1534,1549,1549,1549,1549,1567,1567,1567,1567,1567,1584,1584,1584,1584,1600,1600,1600,1617,1617,1617,1634,1634,1634,1650,1650,1650,1667,1667,1667,1684,1684,1684,1700,1700,1700,1717,1717,1717,1734,1735,1735,1750,1750,1750,1750,1767,1767,1767,1784,1784,1784,1800,1800,1800,1817,1817,1817,1835,1835,1835,1850,1850,1850,1850,1850,1867,1867,1867,1867,1867,1884,1884,1884,1884,1900,1900,1900,1900,1917,1917,1917,1917,1934,1934,1934,1934,1935,1950,1950,1950,1950,1950,1950,1967,1967,1967,1967,1967,1984,1984,1984,2000,2000,2000,2001,2017,2017,2017,2017" d="m44,45c2.87767,1.5425 3.69352,1.77113 4.59367,2.00083c0.9558,0.24391 1.94725,0.48158 2.949,0.7125c0.98627,0.22736 1.93356,0.44521 3.624,0.78667c0.69586,0.14056 1.2942,0.24806 1.8045,0.333c0.43245,0.07198 0.80812,0.07851 1.61417,0.24833c1.0289,0.21678 1.61509,0.52847 2.61483,1.01867c0.61076,0.29947 1.47957,0.71428 2.48783,1.10133c0.5663,0.2174 1.53282,0.55047 2.64534,0.96534c0.4099,0.15286 1.27111,0.48189 2.14583,0.85416c0.43601,0.18556 1.29967,0.52538 2.35651,1.17917c0.89666,0.5547 1.35392,1.01767 2.33099,1.8c0.5113,0.40939 1.06509,0.8062 1.93784,1.4c0.8912,0.60636 1.49366,1.00706 2.11684,1.4c0.64607,0.40738 1.33732,0.82406 2.5215,1.4c0.85865,0.41762 1.31779,0.60163 2.2425,1c0.46615,0.20082 1.84878,0.79829 2.73067,1.19867c0.43171,0.196 1.27588,0.60015 2.13667,0.94417c1.3024,0.52051 1.76578,0.6467 2.7045,0.9045c0.96068,0.26382 1.45619,0.3679 2.44417,0.63667c1.0015,0.27245 1.99918,0.59609 2.49416,0.77316c0.98746,0.35325 1.47236,0.54424 2.41917,0.94417c0.92252,0.38967 1.80225,0.79395 2.64934,1.19867c0.82755,0.39539 1.23155,0.5999 2.436,1.2c0.8027,0.39993 1.61991,0.80302 2.04166,1c0.86979,0.40623 2.29064,1.00265 2.801,1.2c0.52428,0.20273 1.60812,0.59969 2.15733,0.8c1.0949,0.39935 1.63692,0.5875 2.66666,1c0.96609,0.387 1.85117,0.78823 2.676,1.164c0.3914,0.17831 1.48693,0.6786 2.50467,1.08333c0.65033,0.25861 1.3116,0.4903 2.31933,0.91933c0.72333,0.30795 1.47092,0.66608 2.244,1.04401c0.7923,0.38733 1.98952,0.98862 2.388,1.18933c0.79137,0.39861 1.57016,0.79105 2.316,1.2c1.07076,0.58709 1.7247,0.99383 2.34366,1.37917c0.85645,0.53319 1.85767,1.13683 2.54167,1.52084c0.68401,0.384 1.42297,0.81874 2.22533,1.32533c0.55048,0.34756 1.6057,1.01199 2.313,1.4175c0.79744,0.45718 1.56181,0.97804 2.21434,1.45716c0.71471,0.52476 1.4982,0.85556 2.226,1.62134c0.58955,0.62032 0.83344,1.27966 1.6785,1.9215c0.6958,0.52847 1.55405,0.83573 2.32201,1.25716c0.86768,0.47615 1.52254,0.9419 2.31633,1.44733c0.70056,0.44607 1.31815,1.03263 1.75717,0.34817c0.49274,-0.7682 0.76044,-1.65497 1.16882,-2.3955c0.37196,-0.67448 1.31126,-1.22234 1.6945,-2.10133c0.28149,-0.64563 0.49667,-1.65488 0.84567,-2.20317c0.66043,-1.03759 1.25839,-1.5788 1.75433,-2.1955c0.62601,-0.77844 0.89186,-1.45986 1.65067,-2.23334c0.61336,-0.62521 1.31351,-0.95245 2,-1.5c0.8134,-0.64878 1.34871,-1.19355 1.93784,-1.7185c0.88737,-0.7907 1.48969,-1.27071 2.09549,-1.71217c0.59439,-0.43314 1.20239,-0.83109 2.39867,-1.636c0.59186,-0.39823 1.185,-0.77438 2.23466,-1.6c0.49353,-0.38818 1.17366,-1.01755 1.6765,-1.4c1.10384,-0.83956 1.7955,-1.2 2.49017,-1.6c0.69467,-0.4 1.67807,-0.98439 2.22934,-1.39867c0.74496,-0.55984 1.35051,-1.14004 2.16933,-1.71733c0.56886,-0.40106 1.45096,-1.03755 1.98666,-1.72c0.43808,-0.5581 1.14503,-1.37938 1.629,-1.764c0.78728,-0.62567 1.38712,-1.00182 2.28551,-1.59983c0.88831,-0.5913 1.45972,-0.97126 2.01483,-1.31483c0.9922,-0.61411 1.69992,-0.93402 2.68533,-1.652c0.62407,-0.4547 1.1712,-1.04462 2,-1.66666c0.58099,-0.43605 1.39517,-0.87186 2.20033,-1.26667c0.83644,-0.41014 1.56558,-0.71417 2.44234,-1.00017c0.65926,-0.21505 1.71861,-0.50528 2.38933,-0.78517c0.94374,-0.39381 1.69482,-0.9415 2.35901,-1.462c0.80772,-0.63299 1.40446,-1.0487 2.29433,-1.45134c0.72458,-0.32785 1.54306,-0.59307 2.362,-0.90133c1.03499,-0.38959 1.73036,-0.65677 2.466,-1.1c0.89394,-0.5386 1.65138,-1.04364 2.50749,-1.2c0.9771,-0.17846 1.58809,-0.33732 2.37917,-0.7045c1.01068,-0.46911 1.5545,-0.84298 2.57851,-1.17417c0.80444,-0.26018 1.50665,-0.69501 2.343,-1.22117c0.6734,-0.42365 1.67589,-0.74914 2.4785,-0.87483c0.79771,-0.12493 1.80722,-0.36604 2.39999,-0.636c1.01311,-0.46139 1.57687,-0.84267 2.40001,-1.104c0.97858,-0.31068 1.81583,-0.27788 2.79999,-0.56933c0.81613,-0.2417 1.59639,-0.57228 2.42134,-0.69067c0.94591,-0.13575 1.82227,-0.24207 2.48399,-0.378c1.04552,-0.21476 1.72174,-0.39551 2.92534,-0.56334c0.74599,-0.10402 1.45863,-0.13724 2.45334,-0.368c0.82227,-0.19075 1.62434,-0.4751 2.63466,-0.632c0.9731,-0.15112 1.53801,-0.15396 2.5455,-0.30533c0.80009,-0.12021 1.6552,-0.28767 2.535,-0.426c1.26553,-0.19897 2.03008,-0.2697 2.72884,-0.32733c0.96288,-0.07942 1.87459,-0.17976 2.78099,-0.378c0.6346,-0.13879 1.6571,-0.40053 2.83366,-0.52584c0.8602,-0.09162 1.30782,-0.09341 2.20668,-0.11083c0.88254,-0.0171 2.10767,-0.01067 2.83632,-0.01067c0.99301,0 1.61177,0.01236 2.81435,-0.00134c0.90015,-0.01025 1.50763,-0.00737 2.69983,-0.22c0.60049,-0.1071 1.45264,-0.40678 2.53351,-0.612c0.93365,-0.17727 1.61932,-0.16442 2.58817,-0.16667c0.81448,-0.00189 1.68298,-0.00426 2.87833,0.00017c0.59567,0.00221 1.47525,-0.03507 2.53351,0.1665c0.72479,0.13805 1.60638,0.5439 2.58817,0.71183c0.80722,0.13807 1.68298,0.11925 2.57849,0.1215c0.89551,0.00225 1.76401,0 2.83334,0c0.71848,0 1.42798,0 2.5,0c0.97198,0 1.66666,0 2.36133,0c1.26248,0 2.04401,0 2.75351,0c1.23581,0 2.05182,-0.00055 2.86783,0c1.00131,0.00067 1.70795,-0.00841 2.45334,0.08533c1.20551,0.15161 1.8801,0.34583 2.57999,0.48933c1.31512,0.26964 2.14438,0.38768 2.90134,0.41467c1.08203,0.03858 1.72144,0.00505 2.43201,0.02133c0.77487,0.01775 1.60858,0.04568 2.93848,0.21083c0.92975,0.11546 1.39566,0.20354 2.3175,0.38917c0.8942,0.18006 2.12051,0.48165 2.84702,0.68933c0.67474,0.19289 1.61282,0.49654 2.5145,0.80017c0.91168,0.307 1.53989,0.52552 2.18515,0.78517c1.04282,0.41961 1.77127,0.76385 2.51468,1.1355c0.7514,0.37564 1.83722,0.97264 2.51733,1.3805c0.67188,0.40292 1.3428,0.83656 2.052,1.284c1.17154,0.73913 1.59821,1.00166 2.492,1.54c0.45859,0.2762 1.38879,0.82497 1.85599,1.09067c1.35596,0.77115 2.21719,1.22556 2.62534,1.448c0.77597,0.42291 1.51501,0.79117 2.41434,1.43616c0.79916,0.57315 1.25153,1.01033 2.043,1.9665c0.41751,0.50438 1.00427,1.34696 1.45715,1.88066c0.68509,0.80737 1.49551,1.4955 2.04285,1.93184l0.54733,0.41633" id="svg_1" stroke-width="2" stroke="#000" fill="none"/>
  <path t="2939,2946,2946,2947,2947,2947,2954,2954,2954,2970,2985,2985,2985,2999,2999,3018,3018,3018,3034,3034,3034,3049,3049,3049,3066,3066,3066,3083,3083,3083,3101,3101,3116,3117,3117,3133,3133,3133,3149,3149,3166,3167,3184,3199,3216,3217,3233,3233,3249,3249,3266,3266,3283,3299,3299,3316,3334,3334,3334,3349,3349,3366,3366,3366,3383,3383,3399,3399,3416,3416,3433,3433,3449,3449,3449,3466,3466,3483,3483,3499,3499,3499,3516,3516,3516,3533,3533,3549,3549,3549,3566,3566,3583,3583,3583,3599,3599,3599,3616,3616,3616,3635,3635,3651,3651,3651,3668,3668,3685,3685,3701,3701,3701,3718,3718,3736,3736,3751,3766,3766,3784,3820,3834,3850,3865,3884,3928,3940,3956,3956,3967,3982,4000,4000,4019,4033,4050,4065,4084,4084,4098,4099,4117,4132,4133,4150,4150,4165,4165,4184,4184,4200,4215,4216,4234,4234,4248" d="m285,86c13,-2.66666 13.84491,-2.84446 15.2095,-3.18567c0.5491,-0.1373 1.43933,-0.35812 2.62384,-0.81433c0.71335,-0.27473 1.49234,-0.68359 2.414,-0.94733c0.90863,-0.26003 1.57126,-0.52875 2.35397,-0.76867c0.98111,-0.30074 1.8399,-0.30829 2.59885,-0.72683c0.879,-0.48475 1.21854,-0.97257 2.22116,-1.53567c0.77744,-0.43662 1.63101,-0.70438 2.41202,-1.0215c0.94763,-0.38478 1.61258,-0.71676 2.58798,-1.1c0.79874,-0.31382 1.3613,-0.47955 2.41202,-0.9c0.71518,-0.28619 1.56262,-0.69909 2.36667,-1.1c0.80045,-0.3991 1.79999,-0.9 2.39999,-1.2c0.79999,-0.39999 1.60001,-0.8 2.39999,-1.2c0.60001,-0.3 1.61255,-0.76963 2.34283,-1.2c0.79166,-0.46654 1.48795,-0.93906 2.35718,-1.35267c0.83698,-0.39826 1.39999,-1.04733 2,-1.64733c0.71066,-0.71066 1.18533,-1.18533 1.95267,-1.95267c0.52197,-0.522 1.25952,-1.11275 1.80566,-1.8265c0.5806,-0.75879 0.72845,-1.6511 1.34299,-2.32083c0.57819,-0.6301 1.35419,-1.21925 2.03467,-1.6c0.7536,-0.42166 1.58389,-0.76656 2.36401,-1.236c0.82254,-0.49497 1.40497,-1.0065 1.96399,-1.53867c0.82883,-0.78902 1.40973,-1.43071 2.03732,-2.02533c0.54272,-0.51421 1.48767,-1.05315 2.146,-1.55717c0.6723,-0.51469 1.06601,-1.32026 1.81934,-2.07616c0.59708,-0.59914 1.40329,-0.89551 2.07617,-1.47117c0.6109,-0.52263 1.03488,-1.36956 1.51434,-2.1c0.53513,-0.81527 1.05243,-1.4133 1.64734,-1.93834c0.76346,-0.67381 1.59216,-1.14265 2.1955,-1.45583c0.99463,-0.5163 1.63788,-0.78511 2.59982,-1.52267c0.61548,-0.47192 1.14413,-1.02488 1.91617,-1.79467c0.51007,-0.50859 1.20551,-1.2055 1.72,-1.72c0.56851,-0.5685 1.3548,-1.37335 1.96399,-1.95333c0.59122,-0.56288 1.40396,-1.18326 1.98935,-1.58533c0.73056,-0.5018 1.42242,-1.30534 1.96332,-1.97266c0.5351,-0.66018 1.28275,-1.13153 1.84866,-1.53667c1.02182,-0.7315 1.56207,-1.29131 2.23203,-1.94934c0.5408,-0.53118 1.34265,-1.15207 1.992,-1.57733c0.70108,-0.45913 1.41605,-1.24293 1.87015,-1.93667c0.50293,-0.76837 1.00339,-1.34929 1.7045,-2.05267c0.69888,-0.70113 1.24585,-1.15727 1.89551,-1.9c0.58118,-0.66445 1.15424,-1.24529 1.61917,-1.98533c0.48804,-0.77685 0.3996,-1.47204 1.284,-1.716c0.79907,-0.22042 1.06223,-1.22059 1.60266,-1.79867c0.5737,-0.61366 1.4523,-0.98903 2.29868,-1.42133c0.6553,-0.33473 1.49158,-0.78498 1.95267,-1.48317c0.49881,-0.7553 1.24936,-1.2125 2.14865,-1.29683c0.68616,-0.06434 1.64713,-0.39401 2.31467,-0.8c0.88168,-0.53622 1.59409,-1.04263 2.36935,-1.28267c0.96487,-0.29874 1.50482,-0.62353 2.51334,-0.832c0.93423,-0.19312 1.80679,-0.5226 2.48532,-0.8c0.90106,-0.36838 1.94934,-0.284 2.74133,-0.284l0.85867,0l0.86331,0l0.89551,0" id="svg_2" stroke-width="2" stroke="#000" fill="none"/>
  <path t="4910,4925,4938,4938,4950,4966,4966,4983,4983,4999,4999,5016,5068,5080,5088,5099,5099,5116,5133,5149,5166,5166,5166,5166,5183,5183,5199,5199,5199,5216,5216,5216,5234,5234,5234,5249,5249,5249,5267,5267,5284,5284,5300,5300,5317,5352,5368,5384,5399,5417,5449,5461,5461,5461,5467,5467,5467,5484,5484,5484,5519,5519,5524,5524,5524,5535,5535,5535,5549,5549,5565,5565,5583,5583,5599,5616,5632,5648,5648,5676,5704,5781,5801,5816,5834,5849,5849,5866,5884,5884,5900,5916,5933,5933,5949,5949,5966,5984,5984,6000,6016,6033,6033,6050,6072,6072,6088,6100,6117,6134,6150,6150,6167,6167,6184,6186,6200,6201,6217,6235,6235,6250,6268,6288,6304,6304,6328,6340,6356,6372,6388,6402,6402,6420,6436,6452,6470,6486,6501,6518,6518,6534,6550,6550,6567,6567,6567,6636,6656,6656,6672,6688,6702,6718,6735,6735,6752,6752,6769,6783,6783,6799,6817,6817,6834,6850,6850,6868,6868,6896,6904,6928,6964,6980,6986,7001,7040,7040,7060,7068,7085,7101,7118,7118,7136,7136,7151,7151,7169,7169,7185,7185,7185,7202,7202,7202,7202,7218,7219,7238,7238,7252,7252,7268,7268,7268,7285,7285,7298,7298,7318,7318,7335,7335,7351,7351,7366,7366,7382,7383,7402,7402,7418,7434,7449,7449,7468,7484,7501,7501,7516,7516,7535,7550,7550,7568,7568,7568,7584,7584,7584,7602,7602,7602,7617,7617,7617,7617,7636,7636,7636,7649,7649,7649,7649,7649,7668,7668,7668,7668,7668,7686,7687,7687,7699,7699,7699,7719,7719,7734,7734,7760,7768,7783" d="m429,10c-1.39999,3.328 -1.92963,4.08579 -2.60001,4.564c-0.73608,0.52507 -1.51126,0.87137 -2,1.62133c-0.5119,0.78553 -0.99731,1.40666 -1.69998,2.11467c-0.49811,0.50189 -1.37457,1.11511 -1.64285,2c-0.26163,0.86303 -0.05716,1.8 -0.05716,2.7c0,0.8 -0.1976,1.7301 0.03601,2.6c0.2345,0.87322 1.29028,1.41642 1.97382,1.7c0.76804,0.31864 1.31961,0.47128 2.53302,1c0.65338,0.28469 1.65402,0.80682 2.26782,1.1c0.6431,0.30718 1.60416,0.71859 2.41467,0.98933c0.81589,0.27253 1.85049,0.51934 2.56,0.57467c0.98163,0.07655 1.85715,0.036 2.85468,0.036c0.67331,0 1.85999,0 2.66266,0c0.86398,0 1.69864,-0.05051 2.67581,0.00017c0.82349,0.04271 1.67542,0.48237 2.41086,0.9745c0.66946,0.44799 1.38547,0.96194 1.60617,1.72983c0.24738,0.86067 -0.01981,1.82976 0.28848,2.7835c0.18878,0.58401 0.48752,1.2761 0.63068,2.48c0.08081,0.67966 0.07639,1.38132 0.08533,2.69867c0.00555,0.81899 0.00299,1.73724 0.22134,2.53333c0.22409,0.81697 0.6572,1.794 0.74265,2.61066c0.06735,0.64375 0.03601,1.87333 0.03601,2.68933c0,0.816 -0.00058,1.81333 0,2.65333c0.00067,0.96267 0.061,1.73956 0.35266,2.49934c0.33569,0.87445 0.63629,1.82631 0.64734,2.64733c0.01208,0.89992 0.32614,1.73666 0.716,2.5c0.38452,0.75289 0.5007,1.52058 0.93134,2.25267c0.40689,0.69172 -0.33099,1.34474 -1.00452,1.89467c-0.7034,0.57432 -1.44315,0.85367 -2.04282,1.45267c-0.70041,0.69961 -1.25659,1.3472 -1.89999,1.8955c-0.75351,0.64214 -1.7327,0.83009 -2.30002,1.31516c-0.7467,0.63844 -1.19998,1.18934 -1.89999,1.88934c-0.70001,0.7 -1.27164,1.13605 -1.88934,1.9c-0.6022,0.74477 -0.65488,1.72655 -1.31516,2.24283c-0.75308,0.58884 -1.26566,1.06557 -1.29416,1.8745c-0.03384,0.96124 0.05469,1.9283 0.57333,2.508c0.57654,0.64442 1.12906,1.29363 1.83432,1.67467c0.77972,0.42127 1.60422,0.74589 2.42435,1.3c0.67676,0.45725 1.36667,1.2 1.96664,1.8c0.60001,0.60001 1.40088,1.22211 1.84283,1.89999c0.47849,0.73392 0.90039,1.5033 1.23569,2.4c0.31808,0.85064 0.12149,1.7 0.12149,2.6c0,0.9 0.14206,1.813 -0.01068,2.7c-0.14346,0.83313 -0.9043,1.58739 -0.98798,2.4c-0.09219,0.89526 0.01056,1.82514 -0.42667,2.6c-0.40979,0.72625 -0.12149,1.87384 -0.79617,2.4785c-0.66046,0.59192 -1.59433,0.18244 -2.41449,0.73216c-0.69962,0.46893 -1.38348,0.89201 -2.36401,1.38934c-0.59467,0.30163 -1.43387,0.58252 -2.23834,1.3c-0.68564,0.6115 -0.76099,1.5 -0.76166,2.39999c-0.00067,0.9 -0.14252,1.81307 0.01068,2.7c0.14417,0.83473 0.83301,1.45966 1.28482,2.25266c0.38449,0.67481 0.53665,1.7792 0.98984,2.54733c0.40213,0.68158 1.13226,1.18283 1.81448,1.9c0.55774,0.58632 0.81342,1.49968 1.46951,2.1c0.54187,0.49581 1.56552,0.97743 2.12616,1.5c0.72098,0.67204 0.98703,1.53141 1.5885,2.216c0.52335,0.59566 0.716,1.384 0.716,2.28267c0,0.854 0,1.80133 0,2.60133c0,0.89999 0.00534,1.80002 0,2.7c-0.00534,0.90004 -0.39407,1.64314 -0.716,2.38533c-0.39096,0.90135 -0.25275,1.71663 -0.28848,2.71468c-0.02869,0.80121 -0.28665,1.79745 -0.49551,2.39999c-0.34521,0.99596 -0.46207,1.82288 -0.55267,2.51433c-0.14825,1.13123 -0.28671,1.79549 -0.55798,2.83501c-0.17899,0.68582 -0.48553,1.60892 -0.8685,2.58817c-0.35086,0.89714 -0.51468,1.69794 -0.80484,2.54916c-0.26254,0.77019 -0.58087,1.67624 -0.65884,2.4615c-0.07825,0.78799 0.02945,1.91812 -0.09317,2.6665c-0.14636,0.89339 -0.62354,1.57382 -0.8425,2.58516c-0.16629,0.76802 -0.02682,1.79173 -0.17865,2.55284c-0.18643,0.93454 -0.64011,1.65547 -1.14285,2.646c-0.29575,0.58267 -0.76492,1.46339 -1.29999,2.08051c-0.65762,0.75847 -1.15179,1.34703 -1.55267,2.22083c-0.33279,0.72539 -1.14926,1.32143 -1.59015,2c-0.5148,0.79233 -1.02582,1.26294 -1.84119,1.58534c-0.89246,0.35287 -1.64886,0.89423 -2.21149,1.41466c-0.72906,0.67439 -1.35831,1.45883 -1.9765,1.90001c-0.81729,0.58328 -1.57932,0.82297 -2.37982,1.04283c-1.01596,0.27904 -1.72784,0.29611 -2.63217,0.44116c-1.00848,0.16176 -1.55466,0.34354 -2.4205,0.6205c-1.19931,0.38364 -1.78983,0.61082 -2.6955,0.8595c-0.59656,0.1638 -1.80222,0.35701 -2.42136,0.41068c-0.99231,0.08601 -2.11307,0.1846 -2.948,0.30933c-0.89322,0.13344 -1.34985,0.22678 -2.2825,0.36334c-1.37924,0.20195 -2.26135,0.27066 -2.68649,0.29999c-0.81976,0.05653 -1.98032,0.10045 -3.04001,0.274c-0.66409,0.10876 -1.56595,0.39442 -2.655,0.612c-0.70468,0.14079 -1.58359,0.14114 -2.56534,0.45201c-0.5972,0.1891 -1.5798,0.8145 -2.19064,1.27866l-0.80002,0.41068l-0.564,0.59999l0.60001,0.45067" id="svg_3" stroke-width="2" stroke="#000" fill="none"/>
  <path t="9253,9296,9305,9317,9333,9350,9350,9367,9367,9367,9367,9383,9383,9383,9400,9400,9400,9400,9417,9417,9417,9417,9417,9433,9433,9433,9433,9433,9433,9450,9450,9450,9450,9468,9468,9468,9468,9483,9483,9483,9500,9500,9500,9500,9517,9517,9517,9532,9533,9533,9533,9533,9549,9549,9550,9550,9550,9567,9567,9567,9567,9567,9582,9582,9582,9582,9583,9599,9599,9599,9600,9600,9600,9616,9617,9617,9617,9617,9632,9632,9632,9632,9633,9650,9650,9650,9650,9666,9667,9667,9667,9682,9682,9682,9683,9683,9683,9683,9700,9701,9701,9701,9716,9716,9717,9717,9717,9717,9733,9733,9733,9733,9733,9733,9750,9750,9750,9750,9750,9766,9767,9767,9767,9767,9767,9782,9783,9783,9783,9800,9800,9800,9800,9800,9816,9817,9817,9817,9817,9817,9833,9833,9833,9833,9833,9833,9833,9850,9850,9850,9850,9850,9866,9867,9867,9867,9867,9885,9885,9886,9886,9886,9886,9900,9900,9900,9900,9900,9900,9900,9916,9916,9917,9917,9935,9935,9936,9936,9949,9949,9949,9949,9968,9969,10016" d="m52,61c1.47917,1.5 1.87713,2.35079 2.42533,2.97467c0.53337,0.60699 1.16443,1.2026 1.796,1.69733c0.80424,0.62999 1.38342,1.33415 1.77867,1.84884c0.60736,0.7909 1.19499,1.56219 1.8,2.25383c0.39674,0.45354 1.20535,1.38791 1.60133,1.91067c0.62804,0.8291 1.0378,1.43375 1.76534,2.31467c0.50632,0.61308 1.07395,1.21729 1.644,1.872c0.29624,0.34024 1.19907,1.45442 1.78799,2.29466c0.30186,0.43068 0.87978,1.31297 1.16534,1.74667c0.54929,0.83424 1.3049,1.92992 1.77883,2.51967c0.42778,0.53233 1.07123,1.23608 1.65717,1.98833c0.61647,0.79145 0.98969,1.36111 1.4,1.89467c0.78067,1.01517 1.40762,1.67738 1.8,2.13667c0.81606,0.95518 1.1992,1.50058 1.6,2.04733c0.59881,0.81687 1.18079,1.59661 1.82133,2.27467c0.43767,0.4633 1.50818,1.39674 2.14799,1.90933c0.33849,0.27119 1.04763,0.82122 1.7825,1.36333c1.07588,0.79368 1.76501,1.26559 2.41217,1.72733c0.62746,0.44769 1.24943,0.89165 2.13616,1.64684c0.61481,0.52361 1.21865,1.10155 1.857,1.683c0.32714,0.29797 1.36192,1.19861 2.1,1.8c0.37761,0.30768 1.15961,0.92413 1.94417,1.58083c0.80501,0.67383 1.59975,1.39609 1.99417,1.76733c0.78852,0.7422 1.17048,1.12 1.91917,1.86333c0.72057,0.71542 1.39999,1.39867 2.04933,2.048c0.31516,0.31516 0.93099,0.932 1.836,1.836c0.59966,0.599 1.19392,1.19575 1.8,1.764c0.59411,0.55702 1.4982,1.31675 2.0955,1.78333c0.58208,0.4547 1.19875,0.85313 2.18333,1.8745c0.50047,0.51918 0.94331,1.13969 1.431,1.797c0.82571,1.11287 1.13087,1.52534 1.7955,2.3865c0.34431,0.44612 0.69609,0.89356 1.38933,1.78934c0.33803,0.43679 1.271,1.65633 1.791,2.3955c0.48075,0.68338 0.92016,1.34928 1.51434,2.3765c0.41306,0.7141 0.81856,1.48155 1.04166,1.875c0.46687,0.8233 0.70635,1.26007 1.60101,2.57967c0.31739,0.46814 1.008,1.40399 1.35733,1.87866c0.34933,0.47467 1.0486,1.40474 1.66666,2.33333c0.57977,0.87105 0.82669,1.30765 1.3125,2.14584c0.47211,0.81454 1.18319,2.02361 1.44217,2.42065c0.5227,0.80138 1.07773,1.58002 1.35333,1.96417c0.53951,0.75198 1.30976,1.81059 1.76817,2.48334c0.44208,0.64879 0.86707,1.29689 1.45717,2.31934c0.41145,0.71291 0.80696,1.47137 1.23599,2.24399c0.21928,0.3949 0.9243,1.59351 1.44934,2.39201c0.26859,0.40848 0.83792,1.23737 1.12534,1.66933c0.59572,0.89532 1.19963,1.85544 1.78799,2.896c0.30215,0.53436 0.59341,1.08124 0.88051,1.632c0.56912,1.09184 0.83604,1.63173 1.59933,3.157c0.23633,0.47224 0.6855,1.371 0.90067,1.80133c0.41632,0.83267 1.02083,2.04167 1.42082,2.84167c0.40001,0.8 0.60001,1.2 1,2c0.60001,1.2 1.00288,2.00261 1.20001,2.4135c0.40594,0.84616 0.80833,1.75464 1,2.24249c0.62752,1.59729 0.80132,2.19423 1,2.7975c0.20135,0.61139 0.59705,1.83549 0.79999,2.43134c0.19714,0.57881 0.79205,2.13272 0.99867,2.57384c0.37662,0.80406 0.80014,1.48055 1.43466,2.74133c0.29791,0.59195 0.65207,1.49779 0.86217,2.10001c0.4171,1.19557 0.58287,1.80592 0.94051,2.664c0.23254,0.55795 0.84666,1.54933 1.34317,2.19432l0.6875,0.875" id="svg_4" stroke-width="2" stroke="#000" fill="none"/>
  <path t="10941,11032,11040,11052,11068,11087,11087,11087,11103,11117,11117,11241,11241,11241,11254,11267,11269,11286,11286,11298,11298,11315,11315,11331,11331,11331,11331,11348,11348,11348,11365,11366,11366,11381,11381,11381,11398,11398,11398,11398,11415,11415,11415,11431,11431,11448,11448,11472,11472,11492,11500,11523,11552,11570,11570,11597,11597,11616,11617,11632,11632,11649,11649,11666,11666,11682,11682,11699,11728,11781,11801,11819,11834,11849,11849,11866,11881,11881,11898,11898,11915,11932,11932,11948,11948,11965,11981,11998,11998,11999,12015,12015,12080,12092,12112,12116,12133,12148,12165,12165,12181,12181,12181,12198,12198,12215,12216,12216,12231,12232,12232,12232,12248,12249,12249,12267,12267,12283,12283,12299,12299,12299,12316,12316,12331,12332,12349,12366,12366,12382,12382,12398,12398,12416,12431,12449,12465,12466,12482,12498,12515,12537,12537,12549,12565,12582,12600,12600,12615,12616,12631,12632,12649,12649,12665,12666,12681,12682,12699,12716,12732,12749,12749,12766,12766,12782,12782,12799,12816,12816,12832,12832,12849,12849,12866,12866,12866,12882,12899,12916,12916,12932,12949,12949,12966,12966,12981,12982,12982,12999,12999,12999,13016,13016,13016,13032,13049,13049,13066,13066,13082,13082,13083,13099,13099,13115,13115,13131,13132,13149,13149,13149,13166,13166,13182,13182,13198,13199,13199,13216,13216,13232,13232,13249,13249,13249,13266,13266,13281,13282,13298,13316,13316,13331,13331,13349,13349,13369,13369,13384,13385,13402,13402,13418,13418,13435,13435,13448,13449,13468,13484,13484,13484,13501,13501,13502,13518,13518,13535,13535,13535,13551,13552,13566,13566,13585,13585,13585,13600,13600,13600,13618,13618,13632,13632,13651,13652,13652,13652,13666,13666,13666,13685,13685,13702,13702,13702,13716,13716,13731,13732,13732,13749,13749,13749,13765,13781,13782,13799,13799,13799,13816,13816,13816,13831,13832,13832,13849,13849,13873,13893,13893,13901,13915,13931,13949" d="m42,44c-1.7,0 -2.61971,-0.00213 -3.4,0.42533c-0.82406,0.45145 -1.78071,0.70927 -2.42533,1.01067c-0.70779,0.33093 -1.48899,1.08443 -2.34134,1.39733c-0.81696,0.29991 -1.86045,0.26497 -2.612,0.60267c-0.68065,0.30585 -1.21066,1.16381 -1.22133,2.064c-0.01079,0.9106 0,1.82133 0,2.67467c0,0.94133 0,1.70933 0,2.68267c0,0.6615 0,1.78533 0,2.448c0,1.044 0,1.72667 0,2.92533c0,0.7485 0,1.452 0,2.45467c0,0.8355 0,1.716 0,2.916c0,0.60934 0,1.55583 0,2.56533c0,0.716 0,1.44801 0,2.52351c0,0.97649 -0.06917,1.8028 0.05717,2.70083c0.14389,1.02281 0.57277,1.75446 0.8215,2.58767c0.26554,0.88954 0.5237,1.65472 0.83733,2.53733c0.29584,0.83252 0.0964,1.94971 0.70934,2.448c0.71201,0.57883 1.69576,0.64963 2.28933,1.12c0.73878,0.58545 1.18885,0.95751 2.12133,1.352c0.78104,0.33042 1.57689,0.73789 2.328,1.164c0.8314,0.47166 1.42635,1.0536 2.32,1.59867c0.66705,0.40686 1.66461,0.61421 2.31467,0.88533c0.86722,0.36169 1.64452,0.80096 2.50133,1.26867c0.74532,0.40686 1.42406,0.89156 1.984,1.56467c0.50751,0.61008 0.61247,1.31393 1,2.19733c0.41856,0.95414 0.73401,1.65486 1.06866,2.53799c0.26739,0.70562 0.61874,1.59333 0.64734,2.514c0.02587,0.83293 0.02597,1.81225 0,2.632c-0.0286,0.90269 -0.4375,1.62083 -1.16667,2.368c-0.48004,0.49189 -1.17125,1.19023 -1.81183,1.81167c-0.60212,0.58412 -1.67101,0.80934 -2.00067,1.5425c-0.40163,0.89325 -0.02083,1.87917 -0.02083,2.77917c0,0.89999 -0.0005,1.80033 0,2.51433c0.00067,0.955 -0.02567,1.71165 0.08533,2.50301c0.14129,1.00732 0.51258,1.87824 0.91467,2.68266c0.40848,0.81722 0.78129,1.48305 1.54267,2.42133c0.44393,0.54708 0.96792,1.06928 1.452,1.626c0.88194,1.01427 1.32318,1.71243 1.69633,2.291c0.59304,0.91949 1.09221,1.55705 1.618,2.31433c0.48993,0.70562 1.21225,1.36926 1.94167,1.70067c0.72536,0.32957 1.7767,0.59989 2.4975,0.64217c0.90296,0.05296 1.76783,0.0045 2.75183,0.0045c0.98533,0 1.71067,0 2.69983,0c0.77934,0 1.81765,-0.17862 2.59883,0.08533c0.88952,0.30056 1.6112,0.78024 2.50134,0.91917c0.81895,0.12782 1.51836,0.66768 2.3,1.02083c0.81086,0.36635 1.18902,1.2283 1.62134,2.07468c0.33472,0.6553 0.94218,1.31902 1.49467,1.98399c0.48357,0.58202 0.59983,1.59091 0.98849,2.26334c0.54005,0.93433 1.14873,1.50504 1.591,2.30983c0.3969,0.72223 0.57351,1.74969 0.72983,2.50684c0.19947,0.96614 0.73775,1.55861 0.9175,2.48866c0.16417,0.84943 0.05717,1.82651 0.05717,2.74733c0,0.90451 0.00007,1.76668 0,2.60001c-0.00008,0.97867 -0.01968,1.76585 -0.35267,2.65266c-0.26526,0.70642 -0.51845,1.61626 -0.814,2.51401c-0.28314,0.86006 -0.79873,1.69499 -1.33334,2.3125c-0.56527,0.65292 -1.14128,1.1516 -1.82117,1.84216c-0.66319,0.6736 -1.15369,1.17081 -1.658,2.15784c-0.41031,0.80307 -0.93584,1.50822 -1.0195,2.32083c-0.09803,0.95213 -0.00184,1.85716 -0.00134,2.60449c0.00067,0.99684 -0.00706,1.83856 0.16666,2.76218c0.14931,0.79378 0.44743,1.59914 0.66667,2.66666c0.14471,0.70462 0.16371,1.62195 0.736,2.56534c0.38143,0.62877 0.94733,1.11665 1.6735,1.84416c0.75647,0.75786 1.20535,1.31348 1.95983,1.95584c0.57557,0.49004 1.56505,0.739 2.31817,0.7805c0.79553,0.04384 1.79383,0.02083 2.6685,0.02083c1.01051,0 1.78983,0 2.78951,0c0.83099,0 1.7905,0 2.542,0c0.7965,0 1.7925,-0.00345 2.6325,0c1.09853,0.0045 1.83467,0.13527 2.61466,0.56934c0.75151,0.41823 1.47621,0.93202 2.26267,1.54533c0.59345,0.4628 1.48651,1.03795 2.144,1.52133c0.85105,0.6257 1.26067,1.16655 1.53867,1.96533c0.33714,0.96873 0.27233,1.81659 0.57066,2.79733c0.23825,0.78323 0.67329,1.71292 0.716,2.60133c0.03636,0.7563 0,1.65717 0,2.4045c0,0.9955 0,1.7955 0,2.7955c0,0.8 0,1.8 0,2.58934c0,1.04399 0,1.836 0,2.86783c0,0.74733 0,1.7415 0,2.50684c0,0.952 -0.13,1.73199 0.02133,2.66133c0.16959,1.04146 0.90164,1.49738 1.496,2.144c0.67547,0.73486 0.9481,1.5499 1.23534,2.02533c0.65575,1.08542 1.32121,1.40369 2.08067,2.17201c0.59461,0.60156 0.91734,1.38496 1.47116,2.08066c0.53675,0.67426 1.15861,1.26079 1.90617,1.92734c0.76733,0.68416 1.37896,1.08699 2.18933,1.52083c0.79032,0.42311 1.59946,0.80559 2.2,1.10451c0.9991,0.4973 1.57829,0.84392 2.60017,1.07866c0.80853,0.18573 1.96885,0.27831 2.757,0.474c0.56544,0.1404 1.4371,0.41205 2.64149,0.56201c0.58818,0.07324 1.44416,0.08307 2.47984,0.08533c0.90067,0.00195 1.9215,0 2.7215,0c0.8,0 1.80855,0.04117 2.65717,-0.05716c0.97144,-0.11255 1.79039,-0.3183 2.533,-0.70451c0.91541,-0.47607 1.3257,-1.07207 1.80716,-1.75433c0.59843,-0.84804 1.37897,-1.27789 2.2235,-1.50482c0.99261,-0.26672 1.60948,-0.65698 2.14317,-1.2005c0.71941,-0.73265 1.19406,-1.58946 1.58867,-2.17867c0.54611,-0.8154 1.06541,-1.39627 1.59467,-1.94284c0.7571,-0.78188 1.34821,-1.35262 2.05266,-2.05716c0.69989,-0.69997 1.24284,-1.3 1.60001,-2.07918l0.64734,-0.5735l0.43666,-0.66333l0.71733,-0.368" id="svg_5" stroke-width="2" stroke="#000" fill="none"/>
  <path t="15238,15253,15253,15253,15253,15253,15253,15253,15261,15261,15269,15269,15269,15283,15299,15299,15299,15299,15316,15317,15317,15317,15317,15332,15332,15332,15349,15349,15349,15349,15367,15367,15367,15367,15367,15382,15382,15382,15382,15399,15399,15399,15417,15417,15417,15433,15433,15433,15449,15449,15466,15467,15482,15499,15516,15516,15532,15532,15533,15573" d="m159,130c0,16.5 0,17.57716 0,18.51733c0,0.81616 0,1.52133 0,2.65067c0,0.84134 0,1.789 0,2.79033c0,1.04167 0,1.83101 0,2.55634c0,1.02701 0.00804,1.98541 -0.0045,2.85684c-0.00995,0.69112 -0.02077,1.44537 -0.16217,2.62849c-0.09579,0.80153 -0.26035,1.58902 -0.40799,2.364c-0.14296,0.75037 -0.32655,1.81279 -0.38934,2.8c-0.03972,0.62459 -0.02652,1.83609 -0.0405,2.745c-0.00974,0.63281 -0.06282,1.66389 -0.21683,2.83366c-0.05612,0.42625 -0.20665,1.30757 -0.35333,2.20668c-0.14394,0.88225 -0.30977,2.10715 -0.37267,2.83632c-0.05798,0.67223 -0.08659,1.62115 -0.33801,2.813c-0.12582,0.59645 -0.4039,1.45012 -0.8145,2.48c-0.27917,0.70021 -0.60773,1.36052 -0.77866,2.34268c-0.13863,0.79655 -0.10078,1.62617 -0.12283,2.892c-0.01123,0.64519 -0.27303,1.6362 -0.64601,2.38216c-0.38921,0.77837 -0.28366,1.73737 -0.57416,2.62601c-0.23636,0.72304 -0.7785,1.6785 -1.07401,2.274l-0.34734,0.74733l-0.32117,1.02116" id="svg_6" stroke-width="2" stroke="#000" fill="none"/>
  <path t="17562,17621,17725,17742,17757,17765,17782,17782,17799,17799,17799,17815,17815,17815,17815,17833,17833,17833,17833,17833,17850,17850,17850,17850,17865,17865,17865,17865,17901,17901,17921" d="m396,181c-1.60001,0.57466 -2.70969,0.85101 -2.97916,1.52083c-0.36548,0.90842 0.45667,1.70819 0.8125,2.47917c0.35342,0.76573 0.46149,1.76912 0.66666,2.5625c0.15558,0.60159 0.39313,1.95787 0.44284,2.69467c0.05145,0.76279 0.0549,1.54733 0.05716,2.74283c0.0015,0.79866 0,1.58934 0,2.364c0,0.75067 0,1.81483 0,2.82133c0,0.67599 0,1.384 0,2.55701c0,0.85399 0,1.71599 0,2.53799l0,1.05299l0.01068,0.912l0.48932,0.713" id="svg_7" stroke-width="2" stroke="#000" fill="none"/>
  <path t="18838,18853,18853,18853,18853,18853,18854,18854,18861,18861,18866,18866,18866,18882,18883,18899,18899,18916,18916,18916,18916,18916,18916,18933,18933,18933,18933,18949,18949,18949,18949,18949,18965,18965,18965,18965,18965,18982,18983,18983,19000,19000,19000,19015,19016,19016,19033,19033,19033,19049,19049,19065,19065,19065,19082,19082,19082,19100,19100,19100,19115,19115,19115,19132,19132,19132,19133,19134,19150,19150,19150,19167,19167,19167,19182,19182,19183,19183,19200,19200,19200,19215,19215,19215,19232,19232,19232,19249,19249,19265,19265,19265,19281,19281,19281,19298,19298,19298,19315,19315,19315,19331,19331,19331,19331,19348,19348,19348,19348,19365,19365,19365,19365,19365,19365,19365,19381,19381,19382,19382,19398,19398,19398,19399,19399,19415,19415,19415,19415,19415,19431,19431,19431,19431,19448,19448,19448" d="m386,44c-7.83334,14.83333 -8.34961,15.81985 -8.80133,16.68667c-0.39426,0.75654 -0.7345,1.41412 -1.03201,1.98c-0.47562,0.90459 -1.13461,2.07631 -1.53067,2.636c-0.61972,0.87574 -1.00702,1.54028 -1.43597,2.21333c-0.56299,0.88337 -1.0253,1.3522 -1.509,2.15467c-0.38345,0.63612 -1.02185,1.8308 -1.46036,2.58266c-0.23911,0.40997 -0.7504,1.26817 -1.01599,1.70667c-0.52979,0.87467 -1.29199,2.09774 -1.52933,2.46934c-0.44714,0.70007 -1.08124,1.66139 -1.68533,2.57066c-0.40027,0.60249 -0.81021,1.21516 -1.20001,1.872c-0.41086,0.69232 -1.00681,1.86731 -1.39548,2.72883c-0.19742,0.43758 -0.56671,1.31326 -0.91919,2.14584c-0.46146,1.09 -0.73553,1.68305 -1.07465,2.45734c-0.41986,0.95869 -0.70602,1.75037 -1.01068,2.57066c-0.39401,1.06091 -0.69199,1.77193 -1,2.41467c-0.48724,1.01678 -0.8555,1.58686 -1.11465,2.41067c-0.30914,0.98261 -0.28308,1.85716 -0.28534,2.82133c-0.00186,0.804 0,1.626 0,2.65733c0,0.92133 0.01102,1.60541 -0.00134,2.60667c-0.01031,0.83566 -0.05252,1.72133 -0.22,2.61483c-0.17191,0.91711 -0.40616,1.52665 -0.612,2.8665c-0.10962,0.71356 -0.13858,1.45844 -0.15598,2.208c-0.01718,0.7412 -0.01068,2.13867 -0.01068,2.77867c0,0.88499 0,1.9255 0,2.8675c0,0.7485 0,1.62199 0,2.6405c0,0.724 0,1.456 0,2.51701c0,0.975 0,1.85999 0,2.90033c0,0.696 0,1.60533 0,2.60533c0,0.816 0,1.632 0,2.632c0,0.90933 -0.01282,1.85086 0.00449,2.63667c0.01813,0.82242 0.11841,1.89389 0.35269,2.59016c0.29361,0.87262 0.75497,1.65154 1.14282,2.478c0.30975,0.66002 0.69321,1.66765 1.02084,2.5c0.23065,0.58595 0.79025,1.78511 1.13632,2.37917c0.35318,0.60625 0.74387,1.20233 1.54318,2.40034c0.40689,0.60985 0.83484,1.24593 1.314,1.914c0.80817,1.12683 1.12634,1.52985 1.79099,2.39099c0.34433,0.44612 0.69611,0.89357 1.38934,1.78934c0.33804,0.4368 1.26358,1.66154 1.7955,2.39099c0.48999,0.67194 0.93927,1.32048 1.67648,2.21434c0.50473,0.61195 1.06396,1.20605 1.608,1.836c0.27536,0.31886 1.07248,1.32158 1.54135,2.048c0.47275,0.73242 0.89005,1.50294 1.36798,2.23199c0.70886,1.0813 0.996,1.39844 1.52002,2.03734c0.72714,0.88654 1.29599,1.67999 1.629,2.38499l0.21066,0.8" id="svg_8" stroke-width="2" stroke="#000" fill="none"/>
  <path t="22320,22341,22341,22341,22341,22341,22341,22346,22346,22367,22367,22385,22385,22385,22385,22399,22399,22399,22416,22416,22432,22432,22449,22449,22465,22465,22481,22482,22482,22498,22498,22498,22514,22534,22551,22551,22567,22567,22582,22582,22599,22599,22615,22615,22632,22661,22685,22701,22701,22717,22758,22812" d="m318,44c10.32782,-5.05667 10.92334,-5.41594 11.43817,-5.77667c0.88739,-0.62177 1.23486,-0.93687 1.86581,-1.45c1.00049,-0.81366 1.68079,-1.19115 2.52936,-1.77333c0.71121,-0.48795 1.49374,-1.17551 2.17648,-1.65267c0.50647,-0.35395 1.30225,-0.87213 2.30484,-1.46333c0.66107,-0.38983 1.30963,-0.73526 2.08401,-1.368c0.60144,-0.49142 1.43466,-1.34933 1.96533,-1.88c0.63599,-0.636 1.26691,-1.25048 1.73615,-1.9575c0.45129,-0.67998 1.04221,-1.69936 1.55701,-2.274c0.52942,-0.59097 1.33707,-1.24627 1.93384,-1.64733c0.68817,-0.46249 1.3602,-1.26579 1.92984,-1.778c0.64914,-0.58372 1.11191,-1.37972 1.68048,-2.09383c0.50076,-0.62895 1.31577,-1.03806 1.97333,-1.52133c0.85107,-0.62551 1.14288,-1.50598 1.92535,-2.12117c0.60687,-0.47712 1.50833,-0.83197 1.87466,-1.64283c0.35315,-0.78165 0.85867,-1.6 1.10934,-2.31467l0.71732,-0.36933l0.76266,-0.49067l0.07883,-0.06817" id="svg_9" stroke-width="2" stroke="#000" fill="none"/>
  <path t="24854,24913,24917,24934,24949,24965,24981,24982,24999,25015,25015,25032,25032,25032,25049,25049,25064,25065,25065,25081,25082,25082,25099,25117,25117,25117,25135,25135,25135,25135,25152,25152,25152,25152,25167,25167,25167,25184,25184,25184,25184,25202,25202,25202,25217,25217,25217,25217,25234,25234,25252,25253,25253,25253,25267,25267,25267,25267,25267,25285,25285,25285,25286,25286,25301,25301,25301,25301,25319,25319,25319,25319,25334,25334,25334,25334,25350,25350,25350,25368,25368,25368,25368,25384,25384,25384,25385,25385,25385,25399,25399,25400,25400,25400,25416,25417,25417,25417,25417,25417,25417,25434,25434,25434,25434,25434,25434,25449,25450,25450,25450,25467,25467,25467,25467,25484,25484,25484,25484,25512,25520,25531,25532" d="m153,204c1.83333,0.16667 2,1 2,1.87866c0,0.82584 -0.03043,1.64268 0.00133,2.60533c0.02853,0.86467 0.49843,1.6835 0.832,2.51601c0.30884,0.77075 0.16667,1.76933 0.16667,2.52083c0,0.79651 0,1.79517 0,2.7045c0,0.94135 -0.0302,1.7294 0.036,2.54935c0.08583,1.06323 0.33932,1.75568 0.61134,2.56366c0.34575,1.02699 0.33151,1.98454 0.37349,2.745c0.0428,0.7755 0.19165,1.78227 0.33633,2.57468c0.15407,0.8438 0.3181,1.69185 0.64284,2.842c0.18358,0.65019 0.50529,1.45615 0.8,2.18134c0.40735,1.00237 0.70682,1.85818 0.89999,2.48033c0.31102,1.00165 0.49608,1.72208 0.8,2.8175c0.19746,0.71172 0.48227,1.69418 0.8,2.511c0.28427,0.7308 0.70578,1.67432 1,2.46249c0.30603,0.81978 0.48309,1.37025 0.89999,2.36333c0.38454,0.91599 0.81419,1.84549 1.10001,2.65018c0.21051,0.5927 0.4157,1.24855 0.7,2.36716c0.21173,0.8331 0.40092,1.72781 0.60001,2.65201c0.10046,0.46638 0.40039,1.8479 0.59866,2.72932c0.19104,0.84924 0.37242,1.67337 0.44417,2.08084c0.21147,1.20099 0.27576,2.00299 0.33183,2.79382c0.08179,1.15323 0.16924,2.24838 0.31067,2.92535c0.20303,0.97183 0.4203,1.58044 0.8145,2.78531c0.19624,0.59982 0.4882,1.49448 0.61482,2.10001c0.24904,1.19104 0.26967,2.10159 0.33801,2.70001c0.13756,1.2045 0.29343,1.81812 0.59399,2.80798c0.22824,0.75168 0.52277,1.59109 0.836,2.54535c0.16698,0.50867 0.50246,1.5658 0.65601,2.10666c0.30379,1.07007 0.54851,2.10336 0.69333,3.07199c0.13676,0.91467 0.14879,1.37045 0.27333,2.27335c0.1976,1.43253 0.32533,1.94061 0.60451,3.00449c0.14517,0.55322 0.311,1.11102 0.642,2.242c0.1655,0.56552 0.63194,2.22516 0.76149,2.76151c0.25058,1.03751 0.3573,1.54285 0.52501,2.52499c0.08095,0.47403 0.24701,1.83948 0.30899,2.70001c0.05904,0.81958 0.06058,1.60559 0.21935,2.69501c0.14879,1.02094 0.35188,1.6673 0.53783,2.31934c0.39058,1.36969 0.59586,2.08975 0.77467,2.80566c0.16823,0.67352 0.4355,1.983 0.52083,2.62283l0,-0.90268l0,-0.69934" id="svg_10" stroke-width="2" stroke="#000" fill="none"/>
  <path t="26486,26493,26493,26493,26493,26493,26493,26501,26501,26501,26515,26532,26532,26548,26548,26548,26548,26565,26565,26565,26565,26582,26582,26598,26598,26598,26598,26615,26615,26615,26632,26632,26632,26632,26632,26648,26648,26648,26648,26665,26665,26665,26665,26666,26682,26682,26682,26682,26682,26698,26698,26698,26698,26715,26716,26716,26716,26732,26732,26732,26733,26748,26749,26749,26765,26765,26782,26782,26782,26783,26798,26798,26798,26816,26816,26816,26832,26832,26832,26848,26848,26865,26866,26882,26899,26915,26915,26936,26972,26988,27004,27015,27032,27052,27069,27069,27084,27100,27117,27117,27132,27132,27150,27165,27165,27184,27200,27217,27217,27234,27234,27249,27264,27265,27284,27284,27284,27300,27300,27300,27317,27317,27317,27334,27334,27334,27334,27349,27349,27349,27364,27364,27364,27384,27384,27384,27399,27399,27417,27417,27417,27433,27433,27449,27449,27449,27470,27470,27470,27470,27470,27485,27485,27485,27503,27503,27503,27503,27518,27518,27518,27518,27518,27535,27535,27535,27535,27551,27551,27551,27551,27568,27568,27568,27568,27584,27585,27585,27585,27600,27601,27672,27672" d="m146,215c0,10.77049 0,11.48399 0,12.14349c0,0.60851 0,1.68451 0,2.5925c0,1.09933 0,1.94534 0,2.77467c0,0.96851 0,1.80733 0,2.63066c0,0.84435 0,1.57834 0,2.40034c0,0.862 0,2.125 0,2.88632c0,1.00951 0,1.60583 0,2.888c0,0.68401 0,1.85068 0,2.64117c0,0.8535 0,1.44417 0,2.64549c0,0.61867 0,1.61168 0,2.73067c0,0.83467 0,1.71733 0,2.16667c0,0.89467 0.00644,2.16672 -0.00133,2.93066c-0.01067,1.04861 -0.02817,1.72086 -0.16534,2.73599c-0.09769,0.72293 -0.26581,1.4787 -0.40799,2.28c-0.14882,0.83871 -0.31512,2.17398 -0.36818,3.10602c-0.02689,0.47235 -0.0507,1.42197 -0.05583,2.36331c-0.00742,1.3623 -0.00133,1.79736 -0.00133,2.63736c0,0.79999 0.00424,2.28003 -0.00133,2.96133c-0.00529,0.64935 -0.00778,1.58835 -0.22,2.78531c-0.10722,0.60477 -0.37354,1.49561 -0.49467,2.10001c-0.23877,1.19135 -0.27237,2.07901 -0.28267,2.91467c-0.01234,1.00128 -0.00133,1.68533 -0.00133,2.85199c0,0.7905 0,1.64401 0,2.23468c0,1.19867 0,2.09866 0,2.69867c0,1.19983 0,2.08932 0,2.94284c0,1.03564 0,1.72116 0,2.55582c0,1.00134 0,1.80133 0,2.80002c0,0.76532 0,1.84415 0,2.70132c0,0.89999 0,1.69998 0,2.60001c0,0.89999 0,1.79999 0,2.69998c0,0.89999 0,1.80002 0,2.70001c0,0.89999 0.12204,1.67865 0.57466,2.5c0.43629,0.79172 0.65364,1.71848 0.92534,2.39999c0.38852,0.97455 0.38251,1.70721 0.536,2.63599c0.14406,0.87173 0.6832,1.49936 0.90685,2.60684c0.17004,0.84207 -0.03433,1.76971 0.11432,2.51434c0.18462,0.92474 0.62665,1.57922 0.91751,2.61749c0.21983,0.78473 0.5919,1.62598 0.85866,2.62534c0.15886,0.59515 0.21121,1.48224 0.60934,2.42133c0.35193,0.83008 0.78496,1.31854 1.224,2.41202c0.27927,0.69553 0.37776,1.64273 0.77617,2.58817c0.23242,0.55154 0.75716,1.38116 1.07449,1.97983c0.62666,1.18225 0.84579,1.78833 1.17816,2.64151c0.40361,1.03607 0.68106,1.74112 1.06168,2.35266c0.51921,0.83423 1.08685,1.38873 1.59016,2.00449c0.79771,0.97595 1.14012,1.59573 1.65266,2.60001c0.30495,0.5975 0.7,1.39999 1.10001,2.20001c0.39999,0.79999 0.89047,1.8049 1.209,2.409c0.35254,0.66861 1.01961,1.7276 1.459,2.35898c0.47757,0.68625 0.9845,1.37912 1.22665,1.72668c0.87404,1.25452 1.19716,1.79453 1.62001,2.51999c0.55417,0.95074 1.0442,1.74594 1.40616,2.327c0.3855,0.61887 0.98415,1.62225 1.37917,2.34235c0.40514,0.73856 0.79289,1.49454 1.20001,2.23199c0.58974,1.06824 0.99541,1.72974 1.39999,2.36316c0.39552,0.6192 1.00409,1.51816 1.39867,2.12085c0.58661,0.89603 0.97585,1.48346 1.43466,2.39999c0.44528,0.88953 0.66125,1.52301 0.91934,2.15717c0.55701,1.36862 0.89177,2.09055 1.24733,2.80118c0.33954,0.67862 0.83333,1.54166 1.364,2.33365l0.636,0.70801l0.564,0.52802" id="svg_11" stroke-width="2" stroke="#000" fill="none"/>
  <path t="28379,28384,28399,28422,28422,28432,28432,28448,28448,28466,28466,28466,28466,28482,28482,28482,28482,28498,28498,28498,28498,28515,28515,28515,28515,28532,28532,28532,28532,28548,28548,28548,28548,28565,28565,28565,28565,28581,28582,28582,28582,28582,28582,28598,28598,28598,28598,28615,28615,28615,28615,28632,28632,28632,28649,28649,28649,28649,28665,28665,28665,28682,28682,28682,28682,28699,28699,28699,28715,28715,28715,28715,28732,28732,28732,28748,28748,28748,28765,28765,28781,28782,28782,28799,28815,28815,28832,28832,28832,28850,28850,28850,28867,28867,28867,28882,28882,28882,28900,28900,28900,28917,28917,28917,28933,28933,28933,28933,28948,28948,28948,28948,28967,28967,28967,28967,28967,28967,28982,28982,28982,28982,28982,29000,29000,29000,29000,29015,29015,29015,29015,29034,29034,29034,29034,29050,29050,29050,29067,29067,29067,29082,29082,29082,29100,29118,29185,29193" d="m180,325c1,4.91666 1.62862,5.49487 1.916,6.48532c0.20441,0.70447 0.25002,1.73816 0.60483,2.49384c0.41626,0.88654 0.94611,1.367 1.47917,2.35419c0.35532,0.65802 0.64528,1.5025 0.97067,2.06934c0.52982,0.92294 1.03348,1.5022 1.55016,2.09732c0.52528,0.60501 1.32175,1.49268 1.79384,2.09866c0.67793,0.87021 1.06137,1.45944 1.68533,2.23468c0.58658,0.72879 1.01617,1.1712 1.68533,1.85065c0.73111,0.74234 1.26709,1.27362 1.83549,1.81601c0.57889,0.5524 1.47482,1.33878 2.07784,1.81601c0.87428,0.69193 1.47536,1.10358 2.23466,1.85065c0.50571,0.49756 0.93126,1.0871 1.6765,1.93784c0.80164,0.91513 1.12076,1.20935 1.8,1.79102c0.6987,0.59833 1.43993,1.15015 1.80751,1.41916c1.05508,0.77213 1.73112,1.21912 2.34099,1.68533c0.86987,0.66498 1.62508,1.41699 2.089,1.94818c0.68506,0.78439 1.08762,1.34528 1.87401,1.909c0.76164,0.54599 1.6508,0.84738 2.41199,1.30948c0.74049,0.44952 1.38589,1.0513 1.85068,1.43466c0.98727,0.81436 1.54781,1.18988 2.36333,1.79868c0.79239,0.59152 1.49388,1.19733 1.93184,1.57916c0.61723,0.53812 1.62982,1.27267 2.29283,1.68219c0.49866,0.30798 1.37282,0.87827 2.03333,1.34399c0.69696,0.49142 1.37608,1.00891 2.36134,1.66132c0.80844,0.53531 1.50983,0.91626 2.33333,1.33334c0.79793,0.40411 1.59999,0.79999 2.39999,1.20001c0.79999,0.39999 1.593,0.81451 2.38934,1.18933c0.71925,0.33853 1.72832,0.55331 2.53217,0.83215c0.71869,0.2493 1.67851,0.7785 2.4785,1.1785c0.59999,0.30002 1.59735,0.80838 2.22083,1.10001c0.66042,0.3089 1.65614,0.72495 2.5,0.97916c0.87271,0.26291 1.77824,0.4068 2.6685,0.49551c0.85283,0.08499 1.89824,0.21982 2.58534,0.46133c0.68796,0.24182 1.64381,0.67227 2.46132,0.96399c0.86543,0.30881 1.76401,0.60001 2.664,0.89999c0.60001,0.20001 1.4985,0.50452 2.40051,0.80002c0.92998,0.30466 1.60403,0.51343 2.3555,0.69998c1.30258,0.32339 1.79672,0.40317 2.83066,0.60001c0.53387,0.10162 1.61298,0.29752 2.14667,0.39999c1.52509,0.29285 1.99722,0.39465 2.89468,0.60001c0.85184,0.19492 1.66959,0.39896 2.87183,0.70001c0.79584,0.19928 1.58057,0.39529 2.34299,0.60001c1.09235,0.29327 1.77338,0.4993 2.75717,0.79999c0.65283,0.19952 1.66467,0.50726 2.38266,0.69867c1.0936,0.29156 1.80261,0.47116 2.784,0.63467c0.82007,0.13666 1.78998,0.17624 2.75467,0.38815c0.81274,0.17856 1.36298,0.36389 2.41202,0.7785c0.92905,0.36719 1.505,0.64282 2.53067,0.96399l0.93597,0.03601l0.89734,0l0.18134,0" id="svg_12" stroke-width="2" stroke="#000" fill="none"/>
  <path t="30187,30533,30605,30641,30658,30674,30674,30682,30698,30715,30732,30748,30748,30765,30765,30765,30782,30782,30798,30815,30815,30815,30832,30832,30848,30867,30867,30883,30883,30884,30900,30900,30917,30933,30933,30933,30950,30950,30966,30967,30967,30983,30983,30983,30999,30999,31000,31017,31017,31034,31034,31050,31050,31050,31066,31066,31083,31083,31100,31100,31100,31116,31116,31116,31134,31134,31134,31149,31150,31150,31150,31167,31167,31167,31183,31183,31183,31184,31184,31200,31200,31200,31217,31217,31217,31217,31234,31234,31234,31234,31250,31250,31250,31267,31283,31353,31353" d="m177,376c0.87849,1.22134 1.42992,1.64822 1.91467,2.28534c0.55632,0.7312 0.32031,1.67236 0.73267,2.41467c0.45796,0.8244 1.05659,1.38733 1.32733,2.15067c0.31409,0.88556 0.89949,1.59317 1.05066,2.37067c0.19051,0.9798 0.39777,1.58466 0.776,2.37866c0.47798,1.00336 0.82036,1.54462 1.11467,2.51599c0.3132,1.03375 0.56305,1.70172 0.8,2.48532c0.29515,0.97607 0.17439,1.74844 0.29466,2.77335c0.11305,0.96338 0.56526,1.62354 0.82266,2.62534c0.20216,0.78683 0.20409,1.61313 0.45067,2.39868c0.24519,0.78107 0.66492,1.71509 0.716,2.76797c0.03244,0.66864 0.04924,1.44498 0.35266,2.43784c0.26366,0.86276 0.55054,1.81479 0.61134,2.6315c0.04271,0.57364 0.036,1.76401 0.036,2.65952c0,0.8685 0,1.93784 0,2.64734c0,0.85266 0,1.85715 0,2.65717c0,1 0,1.79999 0,2.79999c0,0.79999 0,1.60001 0,2.60001c0,0.79999 -0.0545,1.80438 0.036,2.60001c0.11496,1.01065 0.44385,1.59439 0.68001,2.48532c0.26129,0.98575 0.26935,1.83701 0.33667,2.41916c0.13872,1.19937 0.37422,2.09824 0.558,2.6955c0.37103,1.20581 0.60417,1.79514 0.8685,2.70001c0.17439,0.59698 0.41052,1.79907 0.4955,2.71066c0.05823,0.62466 0.17891,1.95828 0.31067,2.67334c0.13708,0.74396 0.31708,1.49283 0.51599,2.23199c0.2868,1.06577 0.59569,2.04895 0.79868,2.67334c0.39421,1.21255 0.60498,1.81036 0.89999,2.73151c0.20345,0.63522 0.50203,1.64526 0.7,2.36182c0.20207,0.73141 0.47571,1.81531 0.8,2.784c0.27507,0.82166 0.564,1.47601 0.91467,2.448l0.08549,0.98535l0.1665,0.89999l0.42349,0.64282" id="svg_13" stroke-width="2" stroke="#000" fill="none"/>
  <path t="38034,38053,38061,38077,38085,38097,38114,38130,38130,38131,38148,38148,38148,38165,38165,38181,38181,38181,38181,38198,38198,38214,38215,38230,38248,38248,38248,38265,38265,38265,38280,38281,38281,38281,38297,38297,38314,38331,38347,38348,38348,38364,38381,38381,38381,38397,38414,38431,38431,38447,38464,38465,38481,38481,38498,38516,38531,38565,38581,38686,38702,38731,38731,38750,38751,38751,38767,38768,38782,38782,38799,38799,38816,38832,38849,38866,38866,38882,38882,38882,38899,38916,38916,38932,38932,38932,38949,38966,38982,38999,39016,39016,39032,39032,39032,39049,39049,39066,39082,39082,39099,39099,39116,39116,39132,39132,39149,39149,39166,39166,39182,39182,39199,39199,39216,39216,39232,39232,39232,39249,39249,39249,39266,39266,39266,39282,39282,39282,39299,39299,39299,39299,39316,39316,39316,39332,39332,39332,39332,39332,39349,39349,39349,39366,39366,39366,39382,39382,39382,39399,39399,39399,39416,39416,39416,39432,39449,39450,39466,39518" d="m248,320c1,-3.4375 1.71204,-3.87891 1.98933,-4.61066c0.33823,-0.89255 0.6619,-1.43948 1.1205,-2.151c0.4648,-0.72113 0.92738,-1.26352 1.49283,-1.83966c0.78984,-0.80478 1.40245,-1.3765 1.912,-1.99869c0.63478,-0.77509 1.09929,-1.6427 1.65199,-2.56665c0.311,-0.51987 0.82343,-1.3194 1.18066,-1.82352c0.74689,-1.05396 1.23932,-1.59116 1.95267,-2.30981c0.49814,-0.50186 1.24677,-1.18787 1.80017,-2.02167c0.46115,-0.69479 0.77295,-1.37244 1.22134,-2.09967c0.50098,-0.8125 0.86322,-1.37317 1.6785,-2.41202c0.38531,-0.491 1.0282,-1.09845 1.42932,-1.76532c0.56607,-0.94107 0.3656,-1.88257 1.00668,-2.75467c0.50156,-0.68228 1.59109,-0.96054 1.96399,-1.508c0.43253,-0.63501 1.04141,-1.48361 1.60001,-2.30533c0.43326,-0.6373 0.81931,-1.33624 1.38934,-2.19736c0.54541,-0.82388 0.73624,-1.66867 1.22131,-2.23599c0.63843,-0.7467 1.38959,-1.39975 1.88934,-1.89999c0.69901,-0.69968 1.13437,-1.33438 1.55267,-2.20001c0.39551,-0.81842 1.29858,-1.17661 1.922,-1.72531c0.58447,-0.51443 1.15057,-1.12793 1.74133,-1.65869c0.72223,-0.64883 1.35504,-0.86685 2.45065,-1.08264c0.78925,-0.15546 1.34937,-0.27139 2.5,-0.83334c0.69785,-0.34082 1.5,-0.83334 2.33334,-1c0.83334,-0.16666 1.52728,-0.74686 2.39999,-0.96399c0.87405,-0.21747 1.80075,-0.00024 2.70035,-0.03616c0.7157,-0.02859 1.66766,-0.28384 2.39966,-0.49985c0.73199,-0.216 1.85727,-0.40976 2.8215,-0.72134c0.71634,-0.23148 1.67224,-0.65808 2.46783,-0.74265c0.72211,-0.07675 1.79999,-0.03601 2.71066,-0.03601c0.89999,0 1.70132,0 2.66666,0c0.85419,0 1.83334,0 2.63333,0c0.80002,0 1.7955,0 2.54285,0c1.02118,0 1.86786,-0.05365 2.62784,0.08533c1.05121,0.19226 1.76715,0.53424 2.69598,0.74802c0.80444,0.18515 1.82275,0.11823 2.54401,0.20267c0.99957,0.11703 1.80203,0.42941 2.62268,0.96399c0.69824,0.45483 1.48956,1.09735 2.16666,1.5c0.8353,0.49673 1.48431,0.99472 2.10016,1.60016c0.54037,0.53125 1.22134,1.22134 1.73584,1.73584c0.56851,0.56851 1.36401,1.36401 1.96399,1.96399c0.60001,0.60001 1.40002,1.40002 2,2c0.40002,0.40002 1.20001,1.20001 1.80002,1.80002c0.60001,0.60001 1.39999,1.39999 2,2c0.39999,0.39999 0.99417,1.00589 1.80267,1.80133c0.63443,0.62418 1.10114,1.06818 1.93066,1.76532c0.62683,0.52679 1.31845,1.05722 2.01599,1.608c0.68381,0.53992 1.6142,1.29617 2.13184,1.76367c0.67029,0.60538 1.35217,1.29501 1.90417,1.84702c0.58398,0.58398 1.38266,1.38266 1.86533,1.86533c0.49866,0.49866 1.41599,1.41599 1.93948,1.93948c0.55801,0.55801 1.29385,1.29385 1.80984,1.80984c0.51599,0.51599 1.36401,1.36401 2,2l0.564,0.60001l0.41068,0.78934l0.564,0.59998" id="svg_14" stroke-width="2" stroke="#000" fill="none"/>
  <path t="51171,51378,51402,51417,51515,51530,51542,51550,51551,51566,51582,51582,51598,51598,51615,51615,51634,51634,51634,51634,51648,51648,51648,51665,51665,51665,51665,51687,51687,51687,51687,51698,51698,51698,51698,51698,51698,51714,51714,51715,51731,51732,51732,51747,51747,51764,51782,51782,51798,51798,51814,51815,51815,51831,51847,51866,51882,51882,51898,51898,51915,51931,51947,51947,51965,51965,51965,51981,51982,51982,51997,51997,52014,52015,52015,52031,52047,52047,52047,52064,52064,52081,52081,52105,52105,52114,52174,52190,52198,52214,52231,52247,52264,52264,52264,52281,52281,52297,52314,52314,52315,52334,52334,52347,52347,52347,52347,52364,52364,52586,52750,52759,52774,52789,52813,52834,52834,52851,52865,52865,52882,52882,52897,52897,52914,52914,52931,52931,52947,52947,52964,52964,52981,52982,52997,52997,53015,53015,53031,53047,53064,53134,53150,53170,53170,53186,53199,53215,53231,53247,53264,53281,53282,53297,53297,53297,53317,53332,53347,53365,53382,53382,53397,53397,53415,53431,53432,53447,53447,53464,53465,53465,53481,53481,53482,53497,53497,53514,53515,53531,53531,53531,53532,53547,53547,53564,53565,53581,53581,53582,53597,53597,53614,53615,53631,53649,53650,53665,53686,53701,53726,53745,53769,53786,53786,53797,53814,53831,53847,53864,53882,53897,53914,53985,54017,54018,54041" d="m250,320c-0.87849,1.2215 -0.75577,2.23215 -1.284,2.91599c-0.48471,0.6275 -0.8069,1.38873 -0.71468,2.28403c0.08371,0.81259 0.64497,1.50046 0.99867,2.29999c0.35611,0.80496 0.83809,1.36316 1.39999,2.336c0.3215,0.55664 0.8123,1.55954 1.10001,2.18484c0.52254,1.13571 0.70683,1.66208 1,2.5c0.30719,0.87802 0.59998,1.77914 0.89999,2.67917c0.2,0.59998 0.5948,1.80176 0.80135,2.39999c0.31166,0.90274 0.51428,1.52045 1.12033,2.70032c0.31854,0.62018 0.71864,1.24219 1.14,1.914c0.70273,1.12042 0.95984,1.5278 1.48651,2.38202c0.53131,0.86179 0.78223,1.28622 1.28247,2.065c0.61639,0.95956 1.25595,1.79114 1.65201,2.30399c0.61304,0.79379 1.10641,1.54248 1.63333,2.26666c0.58664,0.80621 1.17838,1.46014 1.784,2.06799c0.69873,0.70129 1.23599,1.1951 1.80017,2.02133c0.45029,0.65942 1.03775,1.54987 1.72519,2.04269c0.50253,0.36026 1.53369,0.84918 2.008,1.63599c0.46335,0.76868 1.13098,1.22852 1.80264,1.57468c0.81213,0.41855 1.71133,0.42307 2.72803,0.42532c0.83731,0.00186 1.80441,-0.03918 2.47198,0.01068c1.17114,0.08749 1.75516,0.38385 2.62115,0.63666c0.95178,0.27783 1.76776,0.33063 2.59018,0.34818c1.03094,0.022 1.93182,0.00449 2.95267,0.00449c0.78934,0 1.51468,0 2.52084,0c1.022,0 1.74048,0.00006 2.53098,0c1.02652,-0.00009 1.93961,0.11273 2.78152,-0.16666c0.84558,-0.28061 1.64792,-0.78033 2.34131,-0.82266c1.06183,-0.06482 1.76178,-0.3728 2.32535,-1.01068c0.5155,-0.5835 1.20343,-1.0546 2,-1.5c0.80344,-0.44925 1.67545,-0.64578 2.336,-0.936c0.7764,-0.34113 1.74149,-0.90121 2.50684,-1.20682c0.88635,-0.35391 1.84918,-0.4704 2.48251,-0.80383c0.72461,-0.38147 1.40784,-1.22482 1.836,-1.76401c0.64465,-0.81183 1.33865,-1.39182 1.83865,-1.76849c0.7244,-0.54575 1.61099,-1.37546 2.29733,-1.73419c0.83817,-0.43811 1.78238,-0.65335 2.68182,-0.26581c0.71436,0.3078 1.02148,1.24591 1.6875,1.8125c0.68362,0.58157 1.36438,0.85626 2.13785,1.46216c0.79993,0.62665 1.52103,0.66357 2.52884,0.7045c0.79214,0.03217 1.6405,0.31442 2.37732,0.57468c0.97586,0.3447 1.78928,0.40814 2.78934,0.42532c0.78931,0.01358 1.82813,0.17731 2.5,0.5c0.81519,0.39154 1.67462,0.49466 2.61734,0.5c0.85199,0.00482 1.65067,0 2.63199,0c0.91733,0 1.82935,0 2.75067,0c0.89999,0 1.79999,0 2.70001,0c0.89999,0 1.79999,0 2.59998,0c0.90002,0 1.63806,-0.16281 2.25269,-0.64734c0.64944,-0.51199 1.63589,-0.43173 2.46817,-0.85266c0.79034,-0.39975 1.51648,-0.42215 2.47916,-0.66666c0.80835,-0.20529 1.5018,-0.65372 2.36401,-1.22269c0.8241,-0.54382 1.92038,-0.2822 2.51465,-0.83215c0.60922,-0.56378 0.87943,-1.50647 1.06418,-2.43118c0.13651,-0.68314 -0.01205,-1.74338 0.2785,-2.66864c0.21982,-0.69995 0.65482,-1.65805 0.80399,-2.34003c0.19296,-0.8822 0.39487,-1.60553 0.67917,-2.39047c0.37463,-1.03439 0.81699,-1.91287 1.01016,-2.54684c0.29965,-0.98337 0.26691,-1.82056 0.57068,-2.80267c0.26471,-0.8558 0.72879,-1.76016 1.01016,-2.55133c0.19345,-0.54395 0.48825,-1.35248 0.64734,-2.59018c0.08264,-0.64285 0.05716,-1.65717 0.05716,-2.45715c0,-1 0,-1.79999 0,-2.60001c0,-1 -0.02194,-1.80026 0.00134,-2.79868c0.01785,-0.7659 0.4855,-1.77408 0.832,-2.60132c0.27759,-0.66275 0.16666,-1.60001 0.16666,-2.5c0,-0.89999 0,-1.79999 0,-2.70001c0,-0.89999 0,-1.79999 0,-2.59998c0,-0.90002 0.00272,-1.82004 -0.42532,-2.60001c-0.45096,-0.82175 -1.06323,-1.41199 -1.54935,-2.03601c-0.57813,-0.74216 -1.02533,-1.39734 -1.90399,-1.78549l-0.28799,-0.7785l-0.48068,-0.70001l-0.35266,-0.77914" id="svg_17" stroke-width="2" stroke="#000" fill="none"/>
  <path t="55528,55542,55549,55566,55566,55583,55583,55599,55599,55615,55615,55615,55615,55632,55632,55632,55632,55632,55648,55648,55648,55648,55665,55665,55665,55665,55682,55682,55682,55698,55698,55698,55715,55715,55715,55732,55748,55765,55765,55782,55782,55798,55798,55815,55815,55832,55832,55832,55848,55848,55865,55865,55865,55882,55882,55882,55898,55898,55915,55915,55915,55932,55932,55932,55932,55948,55948,55965,55982,55982,55982,55998,55998,55998,55998,56015,56015,56032,56032,56048,56065" d="m287,392c3.328,0.96399 4.34747,0.8822 5.20132,1.284c0.60086,0.28275 1.45001,0.6861 2.31467,0.71466c0.8902,0.02942 1.62402,0.00134 2.82401,0.00134c0.79333,0 1.66666,0 2.12085,0c1.3725,0 2.25381,0 3.10315,0c0.82535,0 1.63467,0 2.83585,0c0.79565,0 1.57932,0 2.34299,0c1.09052,0 1.77185,0 2.73633,0c0.91953,0 1.82083,0 2.72086,0c0.89999,0 1.79999,0 2.6955,0c0.8685,0 1.93784,0 2.64282,0c0.80002,0 1.82996,0.08505 2.76617,-0.00449c0.87329,-0.08353 1.67386,-0.55576 2.52884,-0.82886c0.77631,-0.24796 1.64053,-0.48102 2.37732,-0.74133c0.97589,-0.34479 1.80435,-0.35205 2.78934,-0.59198c0.81689,-0.19897 1.5903,-0.59326 2.39999,-0.74933c0.79288,-0.1528 1.80786,-0.28522 2.62085,-0.60486c0.67123,-0.26392 1.66483,-0.67139 2.45831,-0.97916c0.75439,-0.2926 1.69611,-0.8313 2.32617,-1.20001c0.93881,-0.54938 1.74213,-0.80734 2.30368,-1.05716c1.2038,-0.53552 1.78912,-0.88409 2.34933,-1.24283c0.78128,-0.50027 1.58701,-1.09689 2.23267,-1.6955c0.73853,-0.68469 1.47861,-1.29977 2.15567,-1.72583c0.61771,-0.3887 1.58139,-1.11362 2.1015,-1.58401c0.53821,-0.48676 1.04312,-0.98819 1.90881,-1.85165c0.60214,-0.60056 1.34302,-1.34167 1.94299,-1.85767l0.80002,-0.31067l0.78934,-0.41068" id="svg_18" stroke-width="2" stroke="#000" fill="none"/>
  <path t="57768,57782,57782,57790,57798,57815,57815,57832,57832,57832,57832,57848,57848,57848,57848,57865,57865,57865,57865,57882,57882,57882,57882,57882,57897,57897,57897,57897,57897,57897,57914,57914,57914,57914,57914,57931,57932,57932,57932,57932,57950,57950,57950,57950,57964,57964,57964,57964,57964,57964,57981,57981,57981,57981,57997,57997,57997,58014,58014,58015,58031,58031,58031,58047,58047,58048,58064,58064,58081,58081,58097,58097,58097,58114,58114,58131,58131,58147,58147,58164,58164,58164,58183,58183,58183,58197,58197,58198,58198,58214,58214,58214,58231,58231,58231,58231,58247,58247,58248,58264,58264,58264,58281,58281,58281,58297,58297,58314,58314,58331,58331,58353,58614,58630,58657,58674,58674,58684,58870,58880,58890,58899,58915,58933,58933,58933,58948,58948,58965,58981" d="m401,208c3.02802,3.944 3.63507,4.68594 4,5.5c0.3584,0.79945 1.02249,1.47923 1.52084,2.04167c0.67752,0.76468 1.1391,1.47075 1.5,2c0.58499,0.85793 1.17917,1.75833 1.57916,2.35832c0.39999,0.60001 0.9978,1.50146 1.60016,2.40001c0.40286,0.60097 0.80911,1.20859 1.25699,1.8c0.69189,0.9136 1.22937,1.5016 1.77884,2.12132c0.57593,0.64957 1.18158,1.33687 1.76401,2.112c0.61749,0.82181 0.90094,1.27138 1.5,2.16667c0.30045,0.44902 0.88284,1.34459 1.5,2.16667c0.58273,0.77621 1.19446,1.46767 1.76401,2.14799c0.55569,0.6638 1.086,1.34111 1.55066,2.06934c0.46631,0.73079 0.87082,1.4928 1.284,2.23199c0.59583,1.06595 1.00568,1.73328 1.40134,2.40483c0.40442,0.68642 1.00952,1.80801 1.39868,2.64717c0.20178,0.43507 0.58572,1.3299 0.94415,2.22667c0.17441,0.43633 0.64014,1.66072 0.89999,2.39099c0.3526,0.99086 0.55344,1.61249 0.95718,2.813c0.19879,0.59106 0.48016,1.45204 0.89999,2.48c0.28656,0.70164 0.61676,1.36725 1,2.34267c0.31381,0.79874 0.57532,1.63593 1,2.65701c0.28366,0.68201 0.67542,1.45236 1.19998,2.16901c0.47815,0.65323 1.02777,1.401 1.40002,2.21432c0.43259,0.94516 0.70892,1.74686 0.94281,2.5285c0.25757,0.86081 0.35953,1.77643 0.71436,2.66699c0.30502,0.76559 0.78409,1.52448 1.12198,2.34283c0.40488,0.98056 0.44672,1.60742 0.57352,2.45715c0.14447,0.96829 0.37512,1.7814 0.65182,2.64734c0.28702,0.89825 0.59549,1.7955 0.7955,2.39551c0.29999,0.89999 0.61603,1.79517 0.88934,2.71066c0.18573,0.62213 0.45651,1.95465 0.52664,2.672c0.07144,0.73087 0.03253,1.46643 0.25067,2.784c0.13791,0.83292 0.4689,1.53351 0.66669,2.5c0.15912,0.7775 0.16132,1.60797 0.16666,2.66669c0.00357,0.7095 -0.02203,1.56244 0.00134,2.56534c0.01785,0.7659 0.38373,1.66864 0.71466,2.48532c0.36557,0.90222 0.28333,1.63199 0.284,2.70532c0.00055,0.88983 0.12732,0.96457 -0.00449,0.11069c-0.14377,-0.9314 -0.4404,-1.66394 -1.07953,-2.41467c-0.56726,-0.66632 -0.91599,-0.664 -0.91599,0.21466c0,0.89999 0.07495,1.8233 -0.16666,2.66666c-0.2525,0.88147 -0.54935,1.43466 -0.77618,2.42883l-0.05582,0.91919l-0.02219,0.94366l-0.58981,0.56699" id="svg_19" stroke-width="2" stroke="#000" fill="none"/>
  <path t="59463,59478,59478,59478,59478,59478,59478,59478,59488,59488,59506,59506,59515,59515,59515,59530,59530,59531,59531,59531,59548,59548,59548,59548,59564,59564,59564,59565,59580,59580,59581,59597,59597,59597,59614,59614,59614,59614,59614,59630,59630,59631,59631,59647,59647,59647,59665,59665,59665,59665,59681,59681,59681,59681,59697,59698,59698,59698,59714,59714,59714,59715,59715,59731,59731,59731,59731,59748,59748,59748,59748,59765,59765,59765,59765,59781,59781,59781,59798,59798,59798,59814,59815,59923" d="m429,316c-12,12.16666 -12.74588,12.95966 -13.37601,13.65866c-0.54135,0.60052 -0.99261,1.12347 -1.69598,1.952c-0.51245,0.60364 -1.31293,1.43796 -1.90717,1.84769c-0.97791,0.67429 -1.526,1.05722 -2.1875,1.70831c-0.68539,0.67459 -1.08002,1.08002 -2,2c-0.51868,0.51868 -1.06934,1.06934 -1.64401,1.64401c-0.59067,0.59067 -1.48917,1.48917 -2.08484,2.08484c-0.58365,0.58365 -1.14734,1.14734 -1.93784,1.93784c-0.48132,0.48132 -1.14581,1.14581 -1.76532,1.76532c-0.60135,0.60135 -1.20132,1.20132 -1.80133,1.80133c-0.80017,0.80017 -1.41068,1.41068 -1.836,1.836c-0.93066,0.93066 -1.44556,1.45187 -2,1.98935c-0.5708,0.55334 -1.14969,1.1095 -2.06384,1.85315c-0.58591,0.47662 -1.18832,0.8887 -2.01483,1.52017c-0.77258,0.59027 -1.45572,1.20621 -1.91068,1.60135c-0.93265,0.81006 -1.45346,1.2092 -2.2955,1.79999c-0.57922,0.40637 -1.48099,0.99728 -2.07782,1.39999c-0.88324,0.59598 -1.45853,0.98154 -2.23468,1.60001c-0.73703,0.58728 -1.19028,1.04355 -2.02133,1.68533c-0.98862,0.76346 -1.39322,1.00378 -2.22131,1.52933c-0.42194,0.26779 -1.26093,0.7843 -2.42401,1.452c-0.64255,0.3689 -1.465,0.80078 -2.18134,1.216c-1.0137,0.58759 -1.56116,0.95483 -2.12933,1.36401c-0.59769,0.43045 -1.49283,1.17038 -2.08484,1.70151c-0.58731,0.52692 -1.3963,1.3114 -2.18298,1.909c-0.66708,0.50671 -1.34586,0.85254 -2.12134,1.46414c-0.81143,0.63995 -1.31485,1.19467 -2.043,1.91702l-0.55585,0.47501l-0.91599,0.28531" id="svg_20" stroke-width="2" stroke="#000" fill="none"/>
  <path t="61106,61174,61190,61200,61200,61217,61233,61233,61250,61250,61266,61266,61266,61266,61281,61281,61281,61298,61298,61298,61298,61315,61315,61315,61331,61331,61331,61331,61348,61348,61348,61348,61366,61366,61381,61381,61381,61381,61398,61398,61398,61398,61415,61415,61415,61431,61431,61448,61448,61465,61465,61481,61481,61498,61498,61515,61515,61531,61531,61548,61548,61565,61565,61565,61565,61581,61581,61581,61598,61598,61615,61615,61615,61615,61631,61631,61631,61648,61648,61648,61648,61648,61665,61665,61665,61681,61681,61698,61698,61698,61715,61715,61731,61731,61748,61765,61765,61781,61781,61798,61798,61815,61832,61832,61848,61848,61848,61865,61865,61865,61881,61881,61881,61898,61898,61898,61915,61915,61915,61931,61931,61931,61931,61948,61948,61948,61948,61965,61965,61965,61965,61981,61981,61981,61981,61998,61998,61998,62015,62015,62015,62031,62031,62048,62071" d="m278,411c1,1 1.74518,1.20758 2.16666,2c0.34073,0.64063 0.74149,1.54742 1.19052,2.3045c0.37299,0.62891 0.94077,1.3609 1.39999,2.15717c0.55624,0.96445 0.90176,1.49167 1.24283,2.05917c0.5257,0.87473 0.98203,1.7775 1.37466,2.66849c0.25284,0.57373 0.76563,1.66287 1.2825,2.358c0.34647,0.46597 0.96307,1.12183 1.74283,2.13666c0.4101,0.53375 0.77646,1.10889 1.60001,2.14935c0.38907,0.49152 1.01273,1.1557 1.60001,1.85065c0.61349,0.72598 0.98688,1.27432 1.60001,2.05469c0.39172,0.4986 1.19229,1.30267 2,1.87598c0.79257,0.56259 1.40048,1.05289 2.07199,1.59601c0.49252,0.39835 1.36411,1.00037 2.03333,1.38483c0.68811,0.39529 1.72644,0.91971 2.65167,1.383c0.77078,0.38596 1.43076,0.72357 2.44168,1.22018c0.57864,0.28424 1.58957,0.64188 2.35397,0.854c0.91824,0.25482 1.63318,0.67773 2.64603,0.862c0.75653,0.13763 1.73239,-0.00244 2.48532,0.17065c0.9852,0.2265 1.70255,0.70999 2.716,0.85751c0.79337,0.11548 1.80133,0.05716 2.42084,0.05716c1.14581,0 1.93631,0 2.78983,0c0.59067,0 1.78799,0 2.66849,0c0.83551,0 1.83685,0 2.52084,0c1.16666,0 1.95715,0 2.81067,0c0.59067,0 1.79245,0.01422 2.73099,-0.02084c0.67319,-0.02515 1.79294,-0.13727 2.625,-0.26315c0.87476,-0.13235 1.31128,-0.22327 2.17084,-0.36334c1.496,-0.2438 2.09,-0.31906 3.04901,-0.34818c1.01303,-0.03073 1.8295,0.03119 2.81351,-0.22583c0.61313,-0.16016 1.38525,-0.57394 2.39999,-0.7215c0.79337,-0.11536 1.79868,-0.05716 2.564,-0.05716c1.08334,0 2.00266,0 2.836,0c0.83334,0 1.75266,0 2.65268,0c0.86331,0 1.72198,0 2.66882,0c0.88916,0 1.87936,-0.02057 2.48917,0.01068c0.87671,0.04492 1.87949,0.2543 2.68933,0.51016c0.82278,0.25995 1.80823,0.69763 2.5,0.95831c0.67694,0.2551 1.68253,0.45798 2.5,0.5c0.81516,0.04193 1.81992,-0.00366 2.79733,0.05685c0.55844,0.03458 1.95654,0.24634 2.36517,0.32117c0.8595,0.15738 1.74084,0.32996 3.00415,0.64282c0.76535,0.18954 1.46387,0.39194 2.42435,0.70001c0.91147,0.29236 1.81549,0.59894 2.42984,0.82083c0.63843,0.23059 1.65283,0.63055 2.72281,1.13184c0.71957,0.33713 1.40561,0.66672 2.25635,1.18066c0.65063,0.39307 1.28818,0.93622 2.04266,1.48782c0.69669,0.50937 1.452,0.96899 2.31433,1.436l0.83401,0.29099l0.80899,0.45184l0.7955,0.44284" id="svg_21" stroke-width="2" stroke="#000" fill="none"/>
  <path t="62974,62981,62981,62981,62997,62997,62997,63014,63014,63030,63030,63030,63048,63048,63048,63064,63064,63081,63081,63081,63146,63154" d="m325,445c-0.94284,1.41968 -0.9881,2.04153 -0.99866,3.03467c-0.0098,0.92227 0.03,1.93112 -0.08667,2.56265c-0.18872,1.02161 -0.62958,1.79761 -1.0145,2.60284c-0.38992,0.8157 -0.66315,1.47662 -0.81616,2.48383c-0.1232,0.811 -0.09027,1.65091 -0.36935,2.63068c-0.25565,0.89749 -0.71466,1.68533 -1.104,2.47467l-0.32532,0.72534l-0.31067,1.00266l-0.62201,-0.16916" id="svg_22" stroke-width="2" stroke="#000" fill="none"/>
  <path t="66723,66738,66742,66758,66782,66797,66814,66834,66850,66865,66881,66898,66898,66915,66915,66930,66947,66963,66981,66981,66998,66998,67014,67014,67014,67031,67047,67047,67063,67063,67081,67098,67098,67113,67130,67131,67147,67147" d="m178,198c0.9955,-1.7 1.162,-2.51674 1.716,-3.084c0.65799,-0.67372 1.18443,-1.30769 1.70934,-1.89067c0.53047,-0.58917 0.97075,-1.47404 1.6745,-1.90399c0.77916,-0.47601 1.18636,-1.19731 1.92099,-1.60051c0.90965,-0.49925 1.8112,-0.39781 2.45834,-1.04166c0.64166,-0.6384 0.98759,-1.38658 1.72217,-1.76317c0.71991,-0.36906 1.64958,-0.66188 2.48532,-0.8c1.00229,-0.16565 1.78757,-0.43399 2.54401,-0.632c0.95381,-0.24968 1.936,-0.284 2.59467,-0.284c1.008,0 1.87016,0 2.81067,0c0.84799,0 1.71133,0 2.61133,0c0.91934,0 1.75267,0 2.73117,0l0.82016,0" id="svg_23" stroke-width="2" stroke="#000" fill="none"/>
  <path t="67820,68062,68075,68109,68121,68130,68147,68163,68163,68180,68180,68198,68198,68213,68213,68230,68247,68247,68247,68263,68280,68297,68297,68313,68313,68330,68331,68347,68347,68363,68381,68381,68397,68397,68413,68413,68430,68542,68558,68575,68582,68582,68598,68614,68614,68631,68631,68631,68631,68648,68648,68648,68648,68664,68664,68664,68664,68681,68681,68681,68681,68698,68698,68714,68714,68731,68748,68764,68781,68781,68890,68899,68916,68931,68931,68947,68948,68963,68963,68963,68980,68980,68980,68997,68997,69013,69030" d="m187,191c0.80133,0 1.71466,0 2.61067,0c0.88933,0 1.83386,-0.09546 2.58932,0.284c0.8672,0.43558 1.56558,0.74455 2.45717,1.06866c0.75499,0.27444 1.74983,0.51572 2.50684,0.67267c0.96506,0.20009 1.49744,0.716 2.24666,1.37466c0.72488,0.63725 1.39194,1.04279 2.10535,1.31467c0.93869,0.35774 1.80746,0.61784 2.48399,1.28534c0.62241,0.61411 1.09735,1.32291 1.5,2c0.49673,0.83528 0.99474,1.48431 1.7,2.2c0.5956,0.60439 1.18805,1.21216 1.90018,1.90001c0.52713,0.50916 1.3902,1.08916 2.07449,1.5c0.81161,0.48727 1.46336,0.95407 2.12083,1.7c0.58369,0.66223 0.48927,1.6391 -0.39551,1.7c-0.89787,0.0618 -1.71046,-0.10069 -2.536,0.036c-0.87454,0.14479 -1.60225,0.59521 -2.53067,0.964c-0.78824,0.3131 -1.67485,0.58777 -2.31999,0.71466c-1.02789,0.20216 -1.76613,0.23088 -2.51334,0.28534c-1.1162,0.08134 -2.18066,0.21156 -2.84734,0.35266c-0.98114,0.20766 -1.63179,0.39824 -2.67383,0.52583c-0.72444,0.0887 -1.81746,0.11475 -2.50951,0.12018c-1.1973,0.0094 -1.95685,-0.15396 -2.94783,0.22266c-0.7796,0.2963 -1.53584,0.62625 -2.42149,0.78934c-0.83144,0.15311 -1.58438,0.94218 -2.40001,0.98801c-0.91707,0.05151 -1.19933,-0.8 -1.2,-1.75584c-0.00063,-0.89999 0,-1.64732 0,-2.64282c0,-0.8 0,-1.80017 0,-2.62083c0,-0.66451 0,-1.93184 0,-2.47917c0,-0.81599 0,-2.03833 0,-2.83833l0,-1.02567l0,-0.836" id="svg_24" stroke-width="2" stroke="#000" fill="none"/>
  <path t="70847,70854,70854,70854,70854,70854,70870,70870,70870,70959,70959,70974" d="m196,231c8.66667,-10.33333 9.22203,-10.99025 10.14267,-12.02834c0.36696,-0.41377 0.96661,-1.07028 1.85733,-1.97166c0.59195,-0.59904 1.164,-1.164 1.83333,-1.83333l0.64584,-0.625l0.82083,-0.48451" id="svg_25" stroke-width="2" stroke="#000" fill="none"/>
  <path t="72040,72054,72054,72065,72066,72083,72083,72083,72100,72100,72100,72114,72114,72114,72131,72131,72131,72148,72148,72148,72164,72164,72181,72198,72198,72198,72214,72230,72247,72263,72280,72280,72297,72297,72297,72313,72313,72331,72331,72331,72331,72347,72347,72347,72364,72364,72381,72381,72381,72397,72397,72397,72413,72474" d="m313,191c0.86133,0.092 1.40109,-0.37724 2.11465,-1.39867c0.39255,-0.56192 0.89111,-1.43045 1.40619,-2.14301c0.36865,-0.51003 0.96509,-1.50928 1.3045,-2.13432c0.35129,-0.64693 0.98438,-1.83998 1.422,-2.4615c0.48007,-0.68181 1.06851,-1.40929 1.58865,-2.11317c0.37067,-0.50163 1.13339,-1.45337 1.75949,-1.935c0.71506,-0.55006 1.53543,-0.99602 2.10001,-1.51433c0.73718,-0.67679 1.45367,-1.33124 2.12985,-1.68933c0.67468,-0.35728 1.76392,-0.60533 2.57465,-0.61067c0.89996,-0.00592 1.80133,0 2.76666,0c0.85419,0 1.83441,-0.03188 2.63333,0.01067c0.80237,0.04272 1.80637,0.34193 2.436,0.60001c0.93344,0.38258 1.72491,0.67409 2.53867,1.02533c0.54721,0.23619 1.54895,0.8367 2.2045,1.364c0.62823,0.50533 1.42804,1.10486 2.22086,1.62534c0.80746,0.53011 1.39294,1.03552 2,1.54933c0.79095,0.66946 1.57864,1.18933 2.22931,1.62399l0.58536,0.76534l0.61465,0.43733" id="svg_26" stroke-width="2" stroke="#000" fill="none"/>
  <path t="73032,73038,73038,73038,73050,73050,73067,73067,73081,73081,73098,73098,73113,73113,73113,73113,73130,73130,73130,73147,73147,73163,73163,73163,73180,73180,73180,73197,73213,73213,73230,73253,73253,73263,73280,73299,73299,73313,73313,73313,73313,73330,73330,73347,73347,73374,73417,73433,73447" d="m312,193c7.47083,1.09984 8.25616,1.28421 9.10001,1.564c1.0206,0.33839 1.80103,0.47697 2.73599,0.87201c0.78119,0.33006 1.54666,0.79828 2.328,1.12799c0.93744,0.39558 1.70779,0.46494 2.60016,0.65767c0.92816,0.20045 1.61142,0.38509 2.26917,0.66501c1.22958,0.52327 1.6651,0.9722 2.35767,1.40349c0.97165,0.6051 1.8237,0.66313 2.80917,0.93117c0.83633,0.22746 1.47534,0.55273 2.48251,0.69334c0.79141,0.11049 1.54797,0.08466 2.65598,0.08533c0.98267,0.0006 1.66135,0 2.776,0c0.88535,0 1.84192,0.43352 2.60001,-0.08533c0.62396,-0.42705 0.62927,-1.58531 0.93201,-2.16135c0.49164,-0.93546 1.00644,-1.70572 1.35333,-2.25333c0.51663,-0.81558 1.14148,-1.79906 1.45834,-2.45833c0.41238,-0.85802 0.59433,-1.73717 1.04166,-2.54167l0.43832,-0.7955l-0.36365,-0.67917l-0.57468,-0.52533" id="svg_27" stroke-width="2" stroke="#000" fill="none"/>
  <path t="76275,76334,76350,76360,76373,76381,76381,76396,76413,76430,76430,76446,76446,76464,76464,76464,76464,76481,76481,76482,76482,76496,76496,76497,76514,76514,76514,76531,76531,76531,76547,76547,76547,76564,76564,76564,76581,76581,76581,76597,76597,76597,76614,76614,76614,76630,76630,76630,76646,76647,76647,76664,76664,76664,76682,76682,76697,76697,76697,76716,76716,76716,76730,76731,76748,76748,76766,76766,76781,76781,76782,76798,76798,76798,76815,76815,76831,76831,76847,76847,76864,76864,76864,76881,76882,76882,76898,76898,76898,76898,76915,76915,76915,76931,76931,76931,76948,76948,76948,76982,76982,76982,76997,76998,76998,76998,76998,77014,77014,77014,77014,77015,77031,77031,77032,77047,77048,77064,77064,77081,77081,77081,77097,77097,77097,77114,77114,77115,77131,77131,77131,77131,77147,77147,77147,77147,77164,77164,77182,77182,77182,77198,77198,77214,77214,77230,77230,77246,77264" d="m541,464c0.716,0.19733 1.03156,-0.71167 1.42535,-1.39999c0.46606,-0.81458 0.86432,-1.65689 1.22198,-2.30002c0.47443,-0.85312 0.89453,-1.65857 1.18597,-2.46664c0.28833,-0.79944 0.39209,-1.80994 0.77734,-2.49469c0.49457,-0.879 0.79919,-1.62161 1.02533,-2.19598c0.24847,-0.63101 0.84314,-2.02762 1.18933,-2.75732c0.34454,-0.72632 0.69043,-1.41614 1.1532,-2.34235c0.38531,-0.77109 0.72314,-1.43094 1.2215,-2.44434c0.30377,-0.61768 0.61432,-1.27835 1,-2.28265c0.31165,-0.81161 0.58362,-1.6387 1,-2.63202c0.28876,-0.68881 0.61414,-1.36243 1,-2.36798c0.31146,-0.81171 0.58362,-1.6387 1,-2.63202c0.28876,-0.68881 0.61414,-1.36243 1,-2.36798c0.31146,-0.81171 0.47015,-1.37543 0.90015,-2.39468c0.39368,-0.93317 0.77563,-1.61102 1.22119,-2.34265c0.49353,-0.81046 0.87091,-1.34259 1.51196,-2.41202c0.4212,-0.70264 0.75812,-1.35495 1.26666,-2.36667c0.30127,-0.59937 0.70001,-1.39996 1.10004,-2.19998c0.40002,-0.80002 0.9068,-1.79684 1.20001,-2.41068c0.30719,-0.6431 0.69696,-1.61163 1,-2.40399c0.29706,-0.77664 0.79895,-1.81674 1.19995,-2.39999c0.59845,-0.87042 0.96979,-1.57956 1.5,-2.36417c0.47369,-0.70102 1.01184,-1.55917 1.30005,-2.2825c0.31293,-0.78546 0.6778,-1.8273 1,-2.492c0.37463,-0.77283 1.01038,-1.44272 1.31464,-2.216c0.38873,-0.9881 0.19788,-1.80466 0.45203,-2.69733c0.24792,-0.87085 0.84973,-1.65964 1.1333,-2.34317c0.3186,-0.76804 0.6817,-1.8316 1.00452,-2.53751c0.3139,-0.68634 0.85754,-1.62219 1.34814,-2.40533c0.34412,-0.54938 0.87402,-1.35696 1.32599,-2.12601c0.40576,-0.6904 0.75275,-1.38681 1.34283,-2.3425c0.49683,-0.80469 0.82416,-1.37704 1.67853,-2.24548c0.55609,-0.56522 1.23651,-0.87222 1.979,-1.65518c0.46704,-0.49246 0.86523,-1.21521 1.521,-2.01151c0.5365,-0.65143 1.1955,-1.32977 1.54169,-1.6875c0.71094,-0.73462 1.79114,-1.81302 2.13666,-2.15732c0.659,-0.65665 1.2688,-1.27148 1.85999,-1.80301c0.78058,-0.70184 1.50104,-1.20291 2.11499,-1.5975c0.96295,-0.61887 1.56732,-1.09726 2.25732,-1.84265c0.49323,-0.53278 1.0722,-1.34979 1.61017,-2.09952c0.3819,-0.53226 0.97107,-1.3194 1.57471,-2.022c0.56104,-0.65298 1.24701,-1.4509 1.65631,-2.06165c0.41901,-0.62521 1.0719,-1.5704 1.51752,-2.0795c0.48181,-0.55045 1.28186,-1.36395 2.06396,-2.14935c0.47968,-0.48169 1.1524,-1.12234 1.67999,-1.76532c0.63556,-0.77451 0.97144,-1.39847 1.48669,-2.40134c0.40442,-0.78711 0.69995,-1.34286 1.29547,-2.24734c0.41919,-0.63666 0.63269,-1.59674 0.78851,-2.35397c0.20752,-1.0087 0.56335,-1.74152 0.85883,-2.64151l0.05719,-0.95718" id="svg_28" stroke-width="2" stroke="#000" fill="none"/>
 </g>
 <g display="none">
  <title>muse_image</title>
  <image xlink:href="http://farm2.static.flickr.com/1260/1085046451_c74c5c33bf.jpg" id="muse" height="480" width="564" y="0" x="38"/>
 </g>
 <g display="none">
  <title>bbox</title>
  <rect stroke="#f00" fill="none" stroke-width="3" height="476.61176" width="559.488" y="2.25882" x="41.384" id="bbox"/>
 </g>
</svg>
