<svg width="640" height="480" xmlns="http://www.w3.org/2000/svg" xmlns:svg="http://www.w3.org/2000/svg" xmlns:xlink="http://www.w3.org/1999/xlink">
 <!-- Sketchy ANNOTATION
  ImageNet ID: n02395406_32520
  URL: http://farm1.static.flickr.com/44/132180399_a3c3b87286.jpg
  Image Width: 499
  Image Height: 332
  BBox X: 223
  BBox Y: 127
  BBox Width: 195
  BBox Height: 131
  Exposure: 2000ms
  Synset Label: pig
  Synset ID: n02395406
  Worker Tag: pig performing trick
  Sanity Check: 
   Context
   Saved
   Shading
  Comment: 
   {}
  Worker ID: A2HM35CWB7IIFM
  Assignment ID: 3EG49X351UC8NMMEXX8N7D9ORL4X6E
  HIT ID: 3MDWE879UH2M5INH06EFD6EDXQU9B1
  Work Time: 102s
  Worker Score: 0.9286
 END ANNOTATION -->
 <g display="inline">
  <title>Layer 1</title>
  <path t="0,148,150,160,160,160,160,169,169,169,169,169,169,185,185,185,185,185,191,191,191,191,191,191,191,202,202,202,202,202,202,202,202,203,216,216,216,216,216,216,216,217,217,234,234,234,234,234,234,235,235,235,239,239,240,240,252,252,252,266,266,277,289,289,301,301,315,315,325,325,337,338,350,350,350,366,366,366,366,375,375,375,387,387,399,399,399,417,417,424,435,451,467,467,473,473,485,500,500,510,510,522,523,523,534,534,550,551,551,559,559,571,595,595,609,621,632,650,657,683,699,719,734,750,755,756,768,783,793,804,804,816,834,835,842,854,855,866,903,941,952,977,1026,1026,1038,1150,1186,1202,1643,1662,1679,1690,1702,1717,1717,1739,1763,1789,1800,1824,1888,1889,2144" d="m430,239.89999c-2.60449,-0.36166 -3.46365,-0.75049 -4.16666,-1.16666c-0.80716,-0.47781 -1.38861,-0.86679 -2.05219,-1.23784c-1.10291,-0.61671 -1.9483,-0.99734 -2.38651,-1.1955c-0.89294,-0.40379 -1.79199,-0.79427 -2.22665,-1c-1.23346,-0.58382 -1.96735,-1.00807 -2.70966,-1.40001c-0.77359,-0.40846 -1.18271,-0.63579 -2.64484,-1.2c-0.55374,-0.21368 -1.15149,-0.41385 -2.45935,-0.8c-0.70267,-0.20747 -1.44226,-0.40546 -2.21548,-0.59999c-1.6358,-0.41158 -2.50217,-0.60286 -3.392,-0.79868c-0.90851,-0.19992 -1.83276,-0.39354 -2.76752,-0.58049c-0.93857,-0.18771 -1.8775,-0.36826 -2.8125,-0.53551c-1.83173,-0.32767 -2.72296,-0.46626 -3.59332,-0.59999c-0.84964,-0.13055 -1.67984,-0.25043 -2.48999,-0.3645c-0.78986,-0.11122 -1.56012,-0.2155 -2.31,-0.3195c-1.44022,-0.19974 -2.1301,-0.29968 -2.79868,-0.40134c-0.64709,-0.09839 -1.27103,-0.19789 -1.87051,-0.3c-0.57516,-0.09798 -1.12482,-0.19409 -1.64548,-0.29999c-1.39731,-0.28419 -2.18622,-0.48811 -2.87534,-0.70001c-0.61603,-0.18942 -1.65527,-0.6158 -2.5625,-0.97916c-0.61523,-0.24641 -1.61508,-0.49095 -2.53552,-0.5195c-0.98486,-0.03055 -1.80682,-0.00134 -2.69598,-0.00134c-0.98917,0 -1.76849,0 -2.76801,0c-0.77399,0 -1.6785,0 -2.42584,0c-0.99683,0 -1.83148,0 -2.76215,0c-0.7905,0 -1.64401,0 -2.83334,0c-0.60001,0 -1.5,0 -2.39999,0c-0.89984,0 -1.78934,0 -2.64285,0c-1.03564,0 -1.93631,0 -2.95715,0c-0.79999,0 -1.60001,0 -2.59549,0c-0.74734,0 -1.76852,0 -2.7045,0c-0.90002,0 -1.80017,0 -2.58536,0c-0.94,0 -1.63065,0 -2.61465,0c-0.98532,0 -1.71066,0 -2.70001,0c-0.79999,0 -1.79999,0 -2.59998,0c-0.80002,0 -1.8045,0.00006 -2.65717,0c-0.96402,-0.00008 -1.76343,0.04926 -2.53302,-0.05716c-1.05359,-0.14568 -1.79865,-0.68298 -2.64581,-0.96817c-0.84027,-0.28285 -1.74469,-0.53687 -2.60236,-0.922c-0.745,-0.33455 -1.33356,-0.99754 -1.78699,-1.66333c-0.49554,-0.72762 -1.18616,-1.2226 -2.07449,-1.3895c-0.79572,-0.14949 -1.33585,-0.85536 -1.8855,-1.43584c-0.55435,-0.58545 -1.23709,-1.09355 -1.90485,-1.8595c-0.52521,-0.60245 -0.98199,-1.2419 -1.67783,-1.90451c-0.51102,-0.48663 -1.21188,-1.15518 -1.6535,-1.89999c-0.39285,-0.66254 -1.19611,-1.28282 -1.87833,-2c-0.55774,-0.58632 -0.60114,-1.45508 -0.91086,-2.28934c-0.27234,-0.73361 -1.23154,-1.04951 -1.82266,-1.77733c-0.56586,-0.69669 -0.56577,-1.54259 -1.16666,-2.3125c-0.48956,-0.62729 -1.5,-0.52084 -2.39999,-0.52084c-0.89999,0 -2.07965,-0.32536 -2.54285,0.35718c-0.47437,0.69901 -0.00937,1.74409 -0.05716,2.64282c-0.04272,0.80341 -0.74695,1.53719 -0.96399,2.40001c-0.21973,0.8735 -0.03735,1.79866 -0.39319,2.54733l-0.84149,0.338l-0.51599,0.51601l-0.28085,0.89867" id="svg_1" stroke-width="2" stroke="#000" fill="none"/>
  <path t="2679,2872,2884,2906,2922,2945,2945,2981,2981,2994,3018,3043,3054,3067,3091,3104,3128,3128,3166,3183,3202,3239,3264,3314,3376,3386,3412,3424,3424,3436,3461,3474,3523,3523,3535,3559,3583,3633,3657,3657,3695,3928,4001,4026,4026,4062,4150,4162,4175,4260,4261,4290,4306,4345,4358,4382,4382,4407,4517,4593,4594,4753,4778,4780,4802,4850,4875,4887,4924,4935,4973,4986,5009,5033,5231,5257,5292,5317,5333,5343,5366,5391,5895,5958,5958,5982,6093,6109,6130,6156,6178,6202,6240,6266,6314,6351,6367,6387,6411,6486,6505,6560,6596,8416,8439,8488,8551,8573,8577,8614,8626,8649,8686,8711,8747,8773,8795,8795,8809,8834,8834,8856,8859,8860,8875,8896,8922,8923,8936,8936,8993,9007,9056,9072,9089,9103,9140,9141,9165" d="m305,214.89999c-2.58932,0 -3.5,0 -4.39999,0c-0.90451,0 -1.76666,0 -2.60001,0c-0.97849,0 -1.79868,0 -2.70001,0c-0.89999,0 -1.79999,0 -2.69998,0c-0.89999,0 -1.8038,-0.08212 -2.70001,0.00017c-0.91144,0.08368 -1.43903,0.75511 -2.39999,0.979c-0.8667,0.20192 -1.3739,0.74641 -2.11066,1.01016c-0.83737,0.29976 -1.78934,0.01134 -2.68933,0.01067c-0.89868,-0.00067 -1.4856,-0.44194 -1.98535,-1.19865c-0.40216,-0.60892 -1.53308,-0.85252 -1.71332,-1.60268c-0.21432,-0.89204 -1.03778,-1.03052 -1.80133,-1.284c-0.77219,-0.25635 -1.49863,-0.88608 -2.40002,-0.91467c-0.89954,-0.02855 -1.80084,0.03719 -2.59998,0c-0.91766,-0.04271 -1.41525,-0.9391 -2.30002,-1c-0.89786,-0.0618 -1.8364,-0.40274 -2.61465,0.08534c-0.74042,0.46434 -1.48981,0.53073 -2.164,1.13617c-0.61758,0.5546 -0.7814,1.52652 -1.42133,2.07399c-0.75217,0.64349 -1.55862,0.929 -1.70016,1.8045c-0.14606,0.90353 -0.5864,1.49449 -0.99985,2.39999c-0.36313,0.7953 -0.95285,1.48439 -0.99866,2.3c-0.05151,0.91707 0.99866,1.2 1.79865,1.2c0.90002,0 1.91388,0.13564 2.58936,-0.43599c0.62952,-0.53273 0.91736,-1.35072 1.80933,-1.56534c0.7489,-0.18018 0.67731,-1.20728 0.80148,-2.0985c0.11172,-0.8019 0.97079,-1.25616 0.99985,-1.0975c0.16165,0.88266 0.0054,1.79735 0,2.69733c-0.00534,0.88939 -0.4794,1.61189 -1.05267,2.14734c-0.68524,0.64001 -0.94733,1.35266 -0.94733,2.15266c0,0.90001 -0.34305,1.87857 0.02084,2.67917c0.35147,0.77322 1.34888,0.94994 1.85767,1.74234c0.47916,0.74628 -0.20105,1.9169 0.28815,2.61183c0.50333,0.71503 1.23337,0.88414 2.12885,1.17116c0.76086,0.24387 1.28705,0.68312 2.09384,1.00618c0.78912,0.31598 1.31525,0.97646 2.21066,0.98932c0.8793,0.01262 1.40909,0.59862 2.10449,1.05267c0.75787,0.49486 1.17212,1.29857 1.72083,1.922c0.51443,0.58446 1.39276,1.01962 1.57333,1.82668c0.19623,0.87698 -0.01062,1.82384 0.42667,2.59866c0.40988,0.72629 0.70026,1.63268 1.18533,2.2c0.63843,0.7467 1.31647,1.48932 1.98935,1.964c0.7348,0.51836 1.548,0.80341 2.19998,1.15199c0.84741,0.45308 1.68851,0.85243 2.52133,1.38383c0.65543,0.41821 1.63843,0.46742 2.31702,0.95284c0.76669,0.54842 1.50006,0.6248 2.19501,1.114c0.715,0.50333 1.1095,1.19051 1.17114,2.13333l0.21686,0.8l0.49466,0.7l0.33667,0.84283" id="svg_2" stroke-width="2" stroke="#000" fill="none"/>
  <path t="10631,10973,10986,11097,11123,11169,11206,11282,11329" d="m260,219.89999c1.22134,0.87868 1.90042,1.39171 2.42532,1.97467c0.53049,0.58919 1,1.42534 1.45334,2.12517l0.40533,0.81616l0.65884,0.44118" id="svg_3" stroke-width="2" stroke="#000" fill="none"/>
  <path t="13484,13703,13703,13716,13741,13741,13755,13755,13767,13776,13788,13800,13800,13825,13849,13867,13886,13910,13935,13935,13948,13965,13972,13984,13984,14000,14000,14009,14009,14021,14033,14050,14071" d="m294,252.89999c1.64816,2.24284 2.5101,2.74324 2.97916,3.5c0.46716,0.75372 0.87375,1.35757 1.84619,1.88934c0.66983,0.36627 1.65363,0.60025 2.47464,0.61066c0.90128,0.01141 1.87714,-0.11081 2.67917,0.02084c0.87946,0.14435 1.37671,0.95056 2.32083,0.97916c0.8996,0.02725 1.80002,0 2.70001,0c0.79999,0 1.70001,0 2.60001,0c0.81067,0 1.72131,0.00058 2.57465,0c0.94135,-0.00067 1.7341,-0.02493 2.6507,-0.436c0.71292,-0.3197 1.53867,-0.95331 2.27466,-1.44247l0.89999,-0.12152l0.83334,-0.16666" id="svg_4" stroke-width="2" stroke="#000" fill="none"/>
  <path t="15842,16087,16099,16114,16135,16135,16160,16184,16185,16234,16272,17648,18055,18079,18093,18116,18116,18139,18139,18142,18156,18188,18214,18214,18237,18275,18287,18374,18410,18437,18455,18455,18472,18473,18485,18500,18500,18508,18521,18521,18533,18550,18570,18583,18607,18631,18650,18673,18686,18700,18700,18700,18705,18705,18705,18717,18717,18731,18731,18742,18766,18766,18782,18879,18903,18927,18927,18954,18976,19038,19054" d="m310,258.89999c0,1.80002 0.09866,2.7085 -0.02084,3.52084c-0.14529,0.98782 -0.67416,1.61868 -0.89383,2.59384c-0.19547,0.86768 -0.08533,1.68533 -0.08533,2.58533c0,0.89999 0,1.79999 0,2.69998c0,0.90002 0,1.80136 0,2.76669c0,0.65866 0,1.66666 0,2.52881c0,0.90451 -0.14273,1.81763 0.01068,2.7045c0.14417,0.83347 0.8783,1.32468 1.46848,2.10001c0.55908,0.73447 1.19135,1.30685 1.5,2.02084c0.34894,0.80719 -0.09027,1.82355 0.30484,2.68051c0.33871,0.73468 0.60779,1.64233 0.80002,2.31467c0.29367,1.02713 0.83829,1.80026 0.89514,2.48398c0.09238,1.11105 0.02084,2 0.02084,2.80002c0,0.89999 -0.32813,1.87195 0.02084,2.67917c0.30865,0.71396 0.9769,1.22531 0.97916,2.12082c0.00226,0.89999 0,1.79999 0,2.7045c0,0.86218 0,1.73718 0,2.38217c0,1.26599 0,1.81332 0,2.62933c0,1.22684 0,2.0795 0,3.08267c0,0.76532 0,1.716 0,2.60132c0,0.80002 0.3707,1.42892 0.87851,2.2215c0.47845,0.74673 0.12149,1.7785 0.12149,2.57852c0,0.89999 0,1.79999 0,2.69998l0,0.89999" id="svg_5" stroke-width="2" stroke="#000" fill="none"/>
  <path t="20120,20304,20305,20322,20323,20337,20337,20337,20341,20341,20357,20369,20630,20645,20660,20663,20663,20672,20684,20702,20715,20715,20722,20746,20882,20931,20954,20971,20989,20995,21003,21016,21031,21041,21066,21102,21103,21140,21189,21213,21239,21313,21375,21399,21422,21460,21473,21487,21510,21510,21534,21558,21558,21570,21606,21631,21648,21705,21717,21718,21731,21731,21750,21750,21755,21766,21792,21816,21831,21841,21841,21865,21902,22307,22666,22886,22887,22912,22948,23008,23033,23058,23069,23095,23106,23107,23119,23119,23131,23131,23148,23156,23180,23198,23267,23267" d="m316,320.89999c0,1.836 0,2.60135 0,3.60452c0,0.85266 -0.01834,1.81711 0.01068,2.61014c0.02841,0.7764 0.35706,1.77325 0.70532,2.58267c0.3735,0.86801 -0.10205,1.90222 0.30484,2.68185c0.35938,0.6886 0.9769,-0.24084 0.97916,-1.13184c0.00217,-0.86334 -0.00229,-1.82651 0,-2.74734c0.00226,-0.89999 0.32614,-1.63666 0.716,-2.39999c0.38452,-0.7529 -0.11185,-1.79285 0.30484,-2.67917c0.33179,-0.70572 1.53992,-0.56619 2.00449,0.08984c0.50873,0.71844 1.27649,1.15106 1.89066,1.67331c0.65378,0.55591 0.91235,1.34219 1.44119,2.01151c0.58542,0.74094 1.68106,0.53094 2.44281,0.78983c0.88794,0.30176 1.58029,0.90005 2.20001,1.41467c0.60202,0.49991 1.55774,0.80478 2.38934,0.48935c0.72916,-0.27658 0.61066,-1.38934 0.61066,-2.28934c0,-0.89999 0,-1.80002 0,-2.70001c0,-0.79999 0.01788,-1.78607 -0.35718,-2.64816c-0.2912,-0.66934 -1.34625,-1.189 -1.62198,-1.87265c-0.36633,-0.90833 -0.02084,-1.87918 -0.02084,-2.78369c0,-0.86215 0,-1.6955 0,-2.67416c0,-0.77399 0,-1.67398 0,-2.53732c0,-0.96317 0,-1.884 0,-2.784c0,-0.89999 0,-1.80002 0,-2.70001c0,-0.79999 0.33374,-1.78226 -0.03601,-2.564c-0.3504,-0.74088 -0.99298,-1.29709 -0.96399,-2.26932c0.02637,-0.88373 0.80133,-1.16602 1.70001,-1.16669c0.89999,-0.00067 1.79999,0 2.69998,0c0.89999,0 1.80133,0 2.76666,0c0.83334,0 1.66669,0 2.586,0c0.90002,0 1.59467,0 2.61136,0c0.93597,0 1.836,0 2.73599,0l0.89999,0l0.79999,0" id="svg_6" stroke-width="2" stroke="#000" fill="none"/>
  <path t="23847,24055,24070,24087,24091,24102,24102,24102,24116,24117,24117,24131,24131,24131,24131,24139,24139,24151,24151,24151,24165,24165,24181,24181,24181,24189,24201,24215,24231,24238,24262,24280,24280,24287,24287,24299,24314,24314,24324,24324,24324,24335,24335,24335,24335,24349,24349,24366,24366,24366,24373,24373,24385,24399,24414,24414,24422,24434,24448,24448,24465,24465,24465,24472,24472,24472,24483,24483,24483,24499,24499,24499,24515,24516,24520,24533,24631" d="m347,300.89999c1.70001,0 2.70004,-0.00592 3.60001,0c0.81073,0.00534 1.72409,0.2157 2.44165,0.52084c0.64728,0.27527 1.64682,0.67239 2.47919,1c0.58594,0.23062 1.78391,0.79184 2.37466,1.13184c0.58865,0.33878 1.40805,0.88229 2.41916,1.46201c0.6575,0.37695 1.68533,0.88531 2.28534,1.18533c0.79999,0.39999 1.58163,0.84128 2.39999,1.17917c0.98056,0.40488 1.78873,0.50168 2.51468,0.5195c0.96417,0.02368 1.9324,-0.09268 2.78531,0.35397c0.75226,0.39395 1.24625,1.09647 1.98666,1.56201c0.74847,0.47061 1.71335,0.08533 2.69183,0.08533c0.71701,0 1.66833,0.0015 2.50818,0.284c0.77124,0.25943 1.67612,0.58231 2.47049,0.65884c0.85083,0.08197 2.04285,0.05716 2.64151,0.05716c0.88049,0 1.716,0 2.71735,0c0.90933,0 1.85065,0 2.63217,0c0.7905,0 1.90881,0 2.74283,0c0.909,0 1.82983,0 2.793,0c0.69064,0 1.75882,0 2.616,0c0.89999,0 1.71432,0 2.67065,0c0.771,0 1.63202,0 2.52933,0c0.90002,0 1.80002,0 2.70001,0c0.89551,0 1.76401,0.00339 2.83334,0c0.7095,-0.00226 1.58057,0.01273 2.56534,-0.284c0.78384,-0.23618 1.71466,-0.63199 2.47998,-0.93732l0.47852,-0.72601" id="svg_7" stroke-width="2" stroke="#000" fill="none"/>
  <path t="25790,25973,25986,25986,25986,25999,26000,26009,26009,26009,26020,26020,26020,26033,26033,26050,26070,26070,26093,26094,26107,26118,26130,26131,26147,26155,26155,26168,26183,26205,26229,26229,26243,26243,26266,26291,26304,26315,26330,26341,26352,26352,26364,26383,26389,26389,26401,26402,26402,26414,26415,26432,26475,26488,26488,26512,26524,26549,26564,26580,26622,26622,26636,26653,26653,26670,26674,26675,26733,26734,26846,27104,27121,27136,27141,27142,27154,27176,27176,27276,27313,27313,27399,27423,27438,27438,27451,27451,27464,27472,27484,27497,27533,27594,27594,27607,27804,27819,27841,27856,27856,27856,27871,27871,27871,27871,27881,27881,27881,27890,27890,27901,27901,27926,27962,27981,27982,27988,27999,28000,28014,28036,28061,28086,28098,28098,28123,28160,28187,28187,28201,28215,28223,28223,28233,28233,28248,28249,28249,28265,28265,28271,28283,28307,28345,28368,28368,28395,28395,28407,28418,28419,28432,28432,28450,28450,28456,28457,28467,28467,28481,28482,28482,28503,28504,28529,28529,28553,28565,28565,28581,28590,28590,28602,28602,28614,28614,28614,28631,28631,28639,28639,28640,28651,28652,28665,28665,28680,28681,28689,28700,28714" d="m421,280.89999c0,1.672 0.01926,2.77017 -0.02084,3.52084c-0.04263,0.79797 -0.27261,1.79227 -0.47916,2.47916c-0.3494,1.16199 -0.46191,1.95181 -0.48932,2.77469c-0.03525,1.05814 -0.01068,1.76816 -0.01068,2.62082c0,1.00317 0,1.76849 0,2.71918c0,0.88531 0,1.77066 0,2.71066c0,0.69067 0,1.76401 0,2.58533c0,0.91068 0,1.76401 0,2.70401c0,0.88531 -0.02725,1.68576 0,2.58533c0.02859,0.94415 0.63748,1.67487 1.33334,2.13333c0.59073,0.38919 1.69104,0.32617 2.36215,0.87115c0.76273,0.61935 1.41278,1.12357 2.3045,1.2955c0.88971,0.17154 1.29144,0.86481 2.20001,1.00134c0.80783,0.12137 1.49963,0.64682 2.29999,0.99866c0.80414,0.35349 1.6647,0.84363 2.52084,1c0.97708,0.17847 1.6015,0.30441 2.32199,0.7045c0.94461,0.52454 1.53909,1.01773 2.47183,1.27017c0.94028,0.25449 1.01178,1.0636 1.27066,1.82535c0.30176,0.88791 0.8905,1.58835 1.41467,2.19998c0.55389,0.6463 1.35638,1.05182 1.5,2c0.11981,0.79099 -0.03622,1.63681 0.00449,2.65268c0.02789,0.69611 0.5282,1.50305 0.87402,2.44751c0.2731,0.74588 0.12149,1.72516 0.12149,2.41583c0,1.07333 -0.06409,2.58414 0.64734,2.36514c0.77148,-0.23746 0.35266,-1.71448 0.35266,-2.57666c0,-0.82532 -0.08041,-1.79749 0.03601,-2.47916c0.18759,-1.09821 0.57755,-1.9465 1.048,-2.54001c0.58545,-0.73853 1.27612,-1.25674 2.08264,-1.28534c0.83282,-0.02954 1.81183,0 2.63202,0c0.90134,0 1.85092,0.05292 2.254,0.7045c0.4762,0.76978 1.29993,1.1264 2.14734,1.5795c0.65198,0.3486 1.23599,1.43228 1.79999,1.24402c0.88025,-0.29385 0.08835,-1.85529 -0.16666,-2.69467c-0.21497,-0.70758 -0.61896,-1.32101 -1.37601,-2.25467c-0.44376,-0.54724 -0.97568,-1.06259 -1.68933,-1.89465c-0.64182,-0.74826 -1.07819,-1.44864 -1.56534,-2.19736c-0.48517,-0.74567 -1.00681,-1.36798 -1.50266,-2.13483c-0.50421,-0.77979 -1.46152,-1.27158 -1.68933,-1.9985c-0.30087,-0.96005 0.0051,-1.72797 -0.36334,-2.60065c-0.40353,-0.95572 -0.41766,-1.84723 -0.93134,-2.58334c-0.48264,-0.69162 -0.716,-1.36932 -0.716,-2.26935c0,-0.89999 0,-1.69998 0,-2.59998c0,-0.936 0,-1.784 0,-2.64734c0,-0.89551 0,-1.854 0,-2.81934c0,-0.83334 -0.06769,-1.67239 0.03601,-2.49466c0.1127,-0.89359 0.34854,-1.61008 0.76532,-2.57068c0.35458,-0.81726 0.87582,-1.58087 1.224,-2.36801c0.36182,-0.81796 0.93195,-1.59695 0.97467,-2.5c0.04251,-0.89899 0,-1.65717 0,-2.55264c0,-0.86334 0,-1.84735 0,-2.83133c0,-0.69067 0,-1.63336 0,-2.48535c0,-1.03601 0,-1.78 0,-2.69733c0,-0.948 0,-1.82001 0,-2.58002c0,-1.1745 0,-1.96799 0,-2.7435c0,-1.0405 0,-1.758 0,-2.66248c0,-0.86334 0.06198,-1.87213 -0.2215,-2.66852c-0.30362,-0.85297 -1.19879,-1.27548 -1.69449,-1.96683c-0.4104,-0.57239 -0.45099,-1.71786 -0.65869,-2.49734c-0.27792,-1.04303 -0.32886,-1.76404 -0.478,-2.61014c-0.17917,-1.01645 -0.52728,-1.60504 -0.78067,-2.77118c-0.16769,-0.77177 -0.07291,-1.59814 -0.33331,-2.5c-0.24588,-0.85155 -0.97028,-1.63522 -1.3125,-2.33334c-0.39856,-0.81303 -0.51636,-1.6955 -0.55685,-2.59999l-0.39999,-0.78934l-0.66382,-0.48933" id="svg_8" stroke-width="2" stroke="#000" fill="none"/>
  <path t="29812,29994,29994,30006,30007,30022,30022,30033,30034,30042,30054,30054,30079,30079,30103,30129,30141,30141,30164,30181,30189,30202,30202,30226,30263,30275,30326,30353,30369,30370,30374,30387,30398,30398,30422,30423,30435,30435,30472,30521,30595,30607,30619,30619,30643,30643,30643,30669,30681,30705,30730,30754,30754,30766,30782,30799,30799,30803,30803,30816,30816,30816,30832,30832,30841,30842,30852,30852,30878,30902,30902,30926,30939,30975" d="m447,260.89999c0,1.836 0,2.60135 0,3.60001c0,0.79999 -0.11905,1.8136 0.05716,2.74283c0.17728,0.93491 0.66583,1.53925 0.91751,2.47183c0.25391,0.9408 0.88571,1.30643 1.42532,2.04666c0.45261,0.62088 0.92288,1.62195 1.80002,2.05469c0.75183,0.37091 1.45367,0.87915 2.29999,1.06317c0.87997,0.19135 1.71878,0.5213 2.5,0.85416c0.75153,0.32019 1.70001,0.16666 2.60001,0.16666c0.89999,0 2.04834,0.17975 2.37915,-0.54166c0.39288,-0.85675 0.02084,-1.633 0.02084,-2.70117c0,-0.85718 0,-1.75717 0,-2.5715c0,-0.95367 0,-1.68567 0,-2.85233c0,-0.79166 0.2576,-1.90747 -0.436,-2.29733c-0.83136,-0.46729 -1.51468,0.52139 -1.78549,1.28549c-0.25412,0.71701 -0.79303,1.67151 -1.16785,2.46783c-0.33853,0.71927 -0.59265,1.57416 -0.61066,2.51068c-0.0173,0.89984 0,1.79999 0,2.69998c0,0.80002 -0.00073,1.70001 0,2.63602c0.00067,0.84933 0.00519,1.78101 0.22134,2.564c0.22543,0.81659 0.62762,1.79739 0.75333,2.60001c0.12494,0.7977 0.36603,1.80722 0.63599,2.39999c0.46133,1.01297 0.92346,1.75842 1.22269,2.63333c0.26999,0.78943 0.92831,1.1644 1.81934,1.16666c0.86331,0.00217 1.82648,0 2.74731,0l0.89999,0" id="svg_9" stroke-width="2" stroke="#000" fill="none"/>
  <path t="32271,32464,32465,32465,32478,32478,32478,32491,32491,32506,32506,32522,32526,32550,32574,32599,32599,32599,32621,32626,32639,32639,32648,32648,32664,32664,32673,32673,32685,32685,32697,32697,32713,32714,32723,32723,32734,32734,32747,32764,32764,32771,32808,32808,32821,32845,32859,32888,32903,32931,33092,33105,33105,33119,33133,33153,33153,33167,33183,33190" d="m452,287.89999c0,2.95718 0,3.52084 0,4.40134c0,1.19733 0,1.78799 0,2.64151c0,1.27051 0,1.9155 0,2.93567c0,0.82016 -0.18372,1.74799 0.03601,2.62149c0.21704,0.86279 0.82248,1.61813 1.13065,2.56668c0.21866,0.673 0.67065,1.32556 0.82266,2.42267c0.11276,0.81381 0.23898,1.72919 0.51068,2.41064c0.38864,0.97476 0.50327,1.77084 0.85718,2.65717c0.3056,0.76535 0.72141,1.55405 1.14282,2.32202c0.47614,0.86768 1.02588,1.5025 1.60016,2.34198c0.44098,0.64459 1.08948,1.29425 1.879,1.67883c0.80487,0.39203 0.88403,1.34583 1.58884,1.83069c0.74149,0.5101 1.41251,0.85419 2.13733,1.46933c0.54306,0.46091 1.20056,1.28824 1.86267,1.89999c0.51828,0.47888 1.26871,1.14127 1.85733,1.77466c0.53003,0.57034 1.36545,1.02621 1.57333,1.82666c0.21204,0.81647 0.51868,1.19867 -0.31998,1.19867c-0.85333,0 -1.79745,0.08994 -2.77869,-0.00015c-0.91144,-0.08368 -1.5,-0.57449 -2.29999,-0.96384l-0.98935,-0.04666l-0.61066,-0.48935" id="svg_10" stroke-width="2" stroke="#000" fill="none"/>
  <path t="35114,35343,35356,35372,35388,35392,35392,35410,35411,35411,35411,35419,35419,35430,35440,35440,35452,35452,35464,35464,35481,35500,35537,35575,35587,35587,35611,35638,35674,35674,35699,35723,35746,35764,35783,35784,35943,35980,35997,35997,36005,36017,36031,36031,36048,36048,36091,36214,36238,36350,36351,36363,36380,36380,36387,36411,36411,36436,36484,36496,36512" d="m341,301.89999c0,1.80002 -0.00592,2.70004 0,3.60001c0.00534,0.81073 0.25079,1.71097 0.5,2.44168c0.37872,1.11053 0.45444,1.91034 0.47916,2.45831c0.03677,0.8154 0.01886,2.03833 0.02084,2.83835c0.00226,0.909 0.16666,1.82834 0.5,2.66165c0.33334,0.83334 0.49466,1.62531 0.5,2.65268c0.0036,0.69467 0,1.71133 0,2.64734c0,0.89999 -0.18137,1.85345 0.16666,2.69998c0.27591,0.67108 0.71826,1.44321 1.186,2.30002c0.40686,0.74533 0.64667,1.5 0.64734,2.39999c0.00067,0.89999 0,1.79999 0,2.71066c0,0.91068 0.15863,1.77774 -0.00134,2.70267c-0.14468,0.83649 -1.25516,0.79547 -1.71332,0.08533c-0.45786,-0.70972 -0.22433,-1.74579 -0.57068,-2.68265c-0.26471,-0.71609 -0.87589,-1.45239 -1.27866,-2.10535c-0.5202,-0.84338 -1.18433,-1.39276 -1.39999,-0.54935c-0.24097,0.94235 -0.10278,1.92163 -0.89734,2.10269c-0.94836,0.21613 -1.83417,0.03598 -2.65952,0.03598c-0.96317,0 -1.65381,0 -2.72198,0l-0.95718,0l-0.89981,-0.00015l-0.77884,-0.22116" id="svg_11" stroke-width="2" stroke="#000" fill="none"/>
  <path t="40041,40237,40260,40260,40273,40310,40384,40407,40428,40448,40468,40762,40784,40815,40816,40838,40838,40863,40863,40891,40891,40906,40917,40948,40975,41010,41010,41023,41083,41157" d="m307,229.89999c0,-1.82533 0,-2.83333 0,-3.6955c0,-0.9045 0.00226,-1.8045 0,-2.7045c-0.00226,-0.89551 -0.47372,-1.34947 -1.2955,-1.60449c-0.76309,-0.2368 -1.45282,-0.9776 -1.66849,-0.13417c-0.24094,0.94235 -0.02917,1.77753 -0.32001,2.62399c-0.25391,0.73901 -0.63651,1.71024 -0.69516,2.49384c-0.07462,0.99677 -0.07706,1.71686 -0.52084,2.52083c-0.44189,0.80052 -0.5,1.70001 -0.5,2.60001c0,0.89999 0,1.7 0,2.60001l0.05716,0.94283l0.65884,0.44118" id="svg_12" stroke-width="2" stroke="#000" fill="none"/>
  <path t="45954,46188,46223,46508,46522,46740,46865,47023,47122" d="m292,228.89999c0,-1.7 0.00958,-2.60004 0,-3.5c-0.01044,-0.97932 -0.61066,-1.48932 -1.5,-1.5l-0.89999,0l-0.89999,0" id="svg_13" stroke-width="2" stroke="#000" fill="none"/>
  <path t="48589,48820,48821,48832,48853,48893,48893,48934,48978,48978" d="m278,212.89999c-1.16666,1 -1.60129,1.58723 -1.97467,2.40001c-0.4075,0.88702 -0.85867,1.59999 -1.10934,2.39999l-0.43683,0.7l-0.67917,0.69867l-0.59998,0.51601" id="svg_14" stroke-width="2" stroke="#000" fill="none"/>
  <path t="50162,50381,50419,50517,50536,50653,50750,50750" d="m280,215.89999c0,1.8 0.00601,2.70003 0,3.60001c-0.00534,0.80006 -0.35266,1.7 -0.83334,2.39999l-0.16531,0.8" id="svg_15" stroke-width="2" stroke="#000" fill="none"/>
 </g>
 <g display="none">
  <title>muse_image</title>
  <image xlink:href="http://farm1.static.flickr.com/44/132180399_a3c3b87286.jpg" id="muse" height="425" width="640" y="27.5" x="0"/>
 </g>
 <g display="none">
  <title>bbox</title>
  <rect stroke="#f00" fill="none" stroke-width="3" height="167.69578" width="250.1002" y="190.0753" x="286.01202" id="bbox"/>
 </g>
</svg>
