<svg width="640" height="480" xmlns="http://www.w3.org/2000/svg" xmlns:svg="http://www.w3.org/2000/svg" xmlns:xlink="http://www.w3.org/1999/xlink">
 <!-- Sketchy ANNOTATION
  ImageNet ID: n02395406_2524
  URL: http://farm2.static.flickr.com/1300/583491122_7266efdbc2.jpg
  Image Width: 500
  Image Height: 334
  BBox X: 119
  BBox Y: 175
  BBox Width: 246
  BBox Height: 149
  Exposure: 2000ms
  Synset Label: pig
  Synset ID: n02395406
  Worker Tag: pig
  Sanity Check: 
   Context
   Saved
   Shading
  Comment: 
   {}
  Worker ID: AQ9ISCTDF9B48
  Assignment ID: 3NKQQ8O39Y5FRR7Y2F5ETCKCEYNUD6
  HIT ID: 3ATYLI1PRT2VUOPZQNAE8KSF0UPJOA
  Work Time: 122s
  Worker Score: 0.9286
 END ANNOTATION -->
 <g display="inline">
  <title>Layer 1</title>
  <path t="0,135,151,151,158,159,167,179,196,212,212,229,229,246,246,246,262,262,262,262,262,279,279,279,296,296,312,312,329,329,346,346,362,362,379,379,396,412,429,446,447,462,463,479,496,512,529,529,546,546,562,562,580,596,596,612,612,629,646,646,662,662,662,679,695,695,712,712,729,729,782,782,830,830,862,982,982,1310,1319,1350,1350,1366,1510,1519,1574,1574,1598,1630,1646,1662,1662,1678,1694,1703,1703,1718,1718,1729,1758,1766,1814,1822,1846,1862,1886,1902,1902,1918,1934,1958,1967,1982,1982,2006,2030,2062,2086,2110,2110,2142,2222,2262,2286,2318,2326,2358,2510,2510,2638,2638,2678,2686,2710,2838,2886,2902,2934,2950,2966,2982,2982,2990,2998,2998,3012,3029,3030,3045,3045,3046,3063,3063,3063,3063,3079,3079,3080,3080,3096,3096,3096,3113,3113,3113,3129,3129,3145,3146,3162,3162,3179,3179,3198,3198,3198,3214,3214,3230,3246,3263,3286,3286,3310,3334,3334,3366,3390,3446,3798,3830,3862,3879,3879,3887,3902,3918,3930,3946,3963,3980,3980,3996,3996,4013,4013,4014,4030,4030,4046,4046,4063,4063,4080,4080,4096,4113,4113,4130,4130,4146,4146,4174,4174,4198,4206,4222,4222,4238,4246,4263,4286,4326,4334,4334,4430,4446,4470,4638,4702,5030,5030,5046,5078,5150,5278,6318,6318" d="m175,358c2.62534,0.03601 3.50233,0.24896 4.17467,0.61066c0.82863,0.44577 1.25409,1.21826 1.85066,1.95334c0.45596,0.5618 1.56494,0.37534 2.17601,1.00534c0.5249,0.54117 1.12517,1.40268 1.79866,1.93066c0.83986,0.65842 1.2467,1.17319 1.69733,1.78265c0.78607,1.06317 1.35187,1.68536 1.65617,2.01819c0.62268,0.68106 1.27898,1.29755 1.97983,2.19916c0.47627,0.6127 0.72943,1.47134 1.01933,2.50534c0.20959,0.74759 0.5448,1.65237 0.62651,2.47382c0.09962,1.00143 0.0078,1.7316 0.021,2.72067c0.01039,0.77954 0.26158,1.75833 0.57449,2.42551c0.39217,0.83615 0.42308,1.72198 0.42534,2.73868c0.00185,0.836 0,1.73599 0,2.63599c0,0.88535 0.00746,1.82538 0,2.51599c-0.01042,0.96335 -0.54318,1.68729 -0.87849,2.58401c-0.31808,0.85065 -0.11659,1.68042 -0.47867,2.55267c-0.29776,0.71729 -0.93671,1.59573 -1.44284,2.146c-0.67113,0.72964 -1.03691,1.53088 -1.22533,2.37598c-0.21216,0.95157 -0.66234,1.50562 -1,2.46133c-0.2959,0.83752 -0.58109,1.57678 -0.97467,2.36401c-0.39572,0.79147 -0.8392,1.48907 -1.38933,2.37466c-0.47911,0.77127 -0.4826,1.66159 -0.77734,2.45868c-0.3149,0.85159 -0.98662,1.4617 -1.3125,2.1875c-0.4265,0.94989 -0.34435,1.80798 -0.6875,2.8125c-0.23494,0.68774 -0.71165,1.49173 -1,2.33331c-0.28729,0.83847 -1.17207,1.32098 -1.66666,2c-0.50035,0.68695 0.22629,1.7637 -0.252,2.548c-0.49007,0.80365 -0.96246,1.38663 -0.91467,2.28534c0.04272,0.80338 0.43358,1.69186 1.39999,1.96399c0.8672,0.24417 1.64456,0.34708 2.40001,0.75201c0.75597,0.40524 1.55092,0.85754 2.52133,1.16251c0.65453,0.20569 1.65758,0.09552 2.47733,0.12149c0.90269,0.02859 1.6237,0.68619 2.50134,0.94284c0.86555,0.25311 1.92491,-0.1991 2.57866,0.2785c0.69907,0.51071 1.3782,0.61591 2.22134,1c0.78001,0.35535 1.5,0.76797 2.39999,0.77866c0.89999,0.01068 1.62729,0.40887 2.5,0.83334c0.75391,0.3667 1.42094,0.87228 2.39999,1.13065c0.87091,0.22983 1.84846,-0.11752 2.60001,0.20267c0.7812,0.33282 1.49982,0.82291 2.39999,0.83334c0.89995,0.01041 1.81273,0.1507 2.69984,-0.00015c0.85109,-0.14471 0.90016,-1.19986 0.90016,-2.10001c0,-0.78519 0,-1.72519 0,-2.41583c0,-1.07333 -0.28909,-2.03598 0.01067,-2.87335c0.26375,-0.73676 0.92593,-1.38547 1.69383,-1.60617c0.86067,-0.24738 1.81108,0.15189 2.6955,-0.01517c0.9502,-0.17947 1.47571,-0.74329 2.42534,-0.96399c0.99948,-0.2323 1.57845,-0.71002 2.47467,-0.96817c0.86929,-0.2504 1.68457,-0.20108 2.47066,-0.6265c0.7858,-0.42526 1.31905,-0.82059 2.52934,-1.40933c0.59117,-0.28757 1.50601,-0.63315 2.09999,-0.90533c0.90967,-0.41684 1.79826,-0.94434 2.40001,-1.29065c0.59828,-0.34433 1.7951,-0.94861 2.38933,-1.18936c0.8486,-0.34384 1.89391,-0.7254 2.57468,-1.03598c0.63606,-0.29019 1.61815,-0.84061 2.43599,-1.164c0.78499,-0.31042 1.81943,-0.29459 2.63333,-0.60266c0.81998,-0.31039 1.32219,-1.09735 1.981,-1.53336c0.89847,-0.5946 1.72159,-0.7562 2.41766,-1.18533c0.84804,-0.52283 1.2572,-1.3454 1.96667,-1.94531c0.64798,-0.54791 1.26924,-1.0784 2.1225,-1.39084c0.67882,-0.24857 1.22601,-1.11005 2.01216,-1.61185c0.70662,-0.45102 1.44682,-0.83429 2.1875,-1.14581c0.81091,-0.34109 1.55231,-0.56659 2.47917,-0.85419c0.7959,-0.24695 1,0.83334 1,1.63333c0,0.90002 0,1.80002 0,2.70001c0,0.89999 0,1.79999 0,2.70132c0,0.96533 0,1.79868 0,2.63202c0,0.828 0,1.7095 0,2.6875c0,0.79648 0,1.79382 0,2.66849c0,1.0105 0,1.78983 0,2.64401c0,0.91931 0,1.81934 0,2.51398c0,1.02734 0,1.97418 0,2.67352c0,1.17899 0.02652,1.95871 0,2.8125c-0.02859,0.92065 -0.38155,1.80777 -0.64734,2.51398c-0.33217,0.88257 -0.29829,1.85434 -0.35283,2.75269c-0.04272,0.70386 -0.74678,1.43716 -0.96384,2.29999c-0.21974,0.8735 -0.036,1.80002 -0.036,2.70001c0,0.89999 0.01799,1.70016 0,2.60001c-0.01801,0.90054 -0.61813,1.61032 -0.91467,2.5c-0.28587,0.85764 -0.04814,1.80084 -0.08533,2.59998c-0.04271,0.91766 -0.80133,1.28403 -1.60001,1.81067l-0.59866,0.58936l-0.63466,0.79999l-0.08,0.71466" id="svg_1" stroke-width="2" stroke="#000" fill="none"/>
  <path t="7262,7478,7502,7518,7534,7550,7566,7575,7598,7598,7622,7654,7662,7662,7830,7910,7926,7926,7934,7950,7982,7998,7998,8014,8038,8038,8038,8046,8063,8063,8079,8079,8095,8095,8112,8112,8129,8129,8145,8145,8145,8162,8162,8162,8179,8195,8195,8212,8212,8212,8229,8245,8245,8262,8262,8279,8295,8295,8312,8312,8342,8342,8358,8398,8422,8446,8446,8462,8486,8510,8542,8606,8694,8950,9206,9262,9318,9334,9334,9374,9398,9422,9422,9438,9438,9454,9454,9470,9470,9479,9495,9513,9513,9528,9528,9545,9562,9579,9580,9596,9596,9613,9613,9628,9645,9662,9678,9679,9679,9695,9695,9695,9712,9712,9712,9728,9728,9728,9745,9745,9745,9762,9762,9778,9778,9778,9795,9795,9795,9795,9812,9812,9812,9812,9828,9828,9828,9845,9845,9845,9846,9862,9862,9863,9879,9879,9879,9879,9895,9895,9895,9896,9912,9912,9913,9928,9928,9928,9929,9929,9945,9945,9945,9945,9962,9963,9978,9978,9978,9998,10012,10028,10045,10070,10086,10095,10112,10128,10128,10145,10162,10162,10178,10195,10213,10214,10229,10245,10270,10326,10326,10789,10798,10821,10830,10854,10855,10878,10879,10894,10895,10910,10911,10934,10950,10951,10959,10974,10990,11006,11007,11022,11038,11046,11062,11063,11078,11095,11096,11113,11113,11129,11129,11145,11162,11162,11178,11179,11195,11212,11212,11228,11245,11245,11262,11278,11279,11302,11334,11343,11374,11375,11398,11406,11430,11455,11455,11462,11478,11496,11496,11512,11534,11574,11607,11607,11630,11631,11654,11678,11790,11814,11815,11830,11831,11846,11855,11863,11878,11879,11895,11896,11912,11913,11928,11929,11945,11946,11962,11963,11978,11979,11995,11996,11996,11996,12012,12013,12028,12045,12062,12102,12103,12111,12118,12142,12174,12182,12195,12212,12228,12245,12262,12263,12302,12334,12350,12351,12814,12838,12846,12878,12894,12927,12942,12982,12998,12998,13022,13046,13070,13086,13086,13095,13112,13129,13129,13146,13146,13166,13179,13198,13214,13229,13246,13246,13263,13263,13279,13279,13302,13318,13342,13358,13358,13654,13678,13702,13718,13742,13750,13774,13982,14006,14030,14046,14070,14094,14118,14174,14214,14230,14246,14270,14270,14294,14326,14342,14454,14486,14606,14630,14686,14718,14766,15462,15494" d="m271,448c0,-1.70001 0,-2.60001 0,-3.5c0,-0.89999 -0.00009,-1.79999 0,-2.70001c0.00009,-0.89999 0.12653,-1.83188 0.61066,-2.39999c0.63519,-0.74533 1.32846,-1.49387 1.38934,-2.39999c0.05362,-0.79819 -0.0773,-1.66754 0.436,-2.39999c0.55365,-0.79004 0.99377,-1.43045 1.58932,-2.164c0.52737,-0.64957 1.40042,-0.84586 2.07449,-1.53601c0.56543,-0.57892 0.83557,-1.47208 1.34302,-2.22131c0.49991,-0.7381 1.03345,-1.2384 1.79999,-1.91702c0.72104,-0.63834 1.62927,-0.87534 2.15717,-1.63367c0.35144,-0.50482 0.7739,-1.54089 1.20001,-2.29199c0.47165,-0.83139 1.03662,-1.43646 1.5,-2.1575c0.43558,-0.67776 0.88034,-1.6889 1.31067,-2.47849c0.33157,-0.6084 0.90842,-1.40158 1.40399,-1.98935c0.61343,-0.72751 1.05383,-1.60919 1.40701,-2.53198c0.26822,-0.70074 0.92761,-1.53339 1.42648,-1.92151c0.75757,-0.58939 1.24741,-1.30203 1.70901,-2.06168c0.37973,-0.62488 1.01871,-1.53537 1.44281,-2.21149c0.46942,-0.74838 1.04099,-1.64908 1.17468,-2.30936c0.20364,-1.00571 0.53552,-1.664 1.22534,-2.37466c0.59097,-0.60883 1.39749,-1.09702 1.71466,-2c0.29959,-0.85294 0.08533,-1.79999 0.08533,-2.59998c0,-0.90002 0,-1.80002 0,-2.70001c0,-0.89999 0,-1.79999 0,-2.70001c0,-0.89999 -0.45325,-2.07388 0.2215,-2.6785c0.66052,-0.59183 1.80621,-0.26755 2.47852,-0.06433c0.87527,0.26456 1.6033,0.91425 2.62149,0.94284c0.69907,0.01962 1.6785,0 2.46783,0c1.04401,0 1.836,0 2.69467,0c0.86331,0 1.88,0 2.71732,0c0.96533,0 1.79868,0 2.63202,0c0.86215,0 1.76666,0 2.6875,0c0.96448,0 1.68982,0 2.67899,0c0.77933,0 1.77866,0 2.59885,0c0.90134,0 1.80133,0.00006 2.74298,0c1.00134,-0.00009 1.73236,0.01724 2.56735,-0.05716c0.89417,-0.07968 1.7851,-0.30112 2.655,-0.51752c1.06763,-0.26556 1.78226,-0.38837 2.46133,-0.41464c1.19513,-0.04626 2,-0.01062 2.82199,-0.01068c1.03116,-0.00009 1.72638,0.06189 2.55133,-0.08533c1.02573,-0.18304 1.63,-0.5433 2.56799,-0.91467c0.78467,-0.31067 1.63379,-0.61395 2.83334,-0.83334c0.59598,-0.10901 1.50662,-0.15067 2.10001,-0.27649c1.21823,-0.25836 1.80463,-0.59134 2.69998,-1.0755c0.60318,-0.32617 1.49146,-0.81372 2.40002,-1.17868c0.5947,-0.23889 1.79999,-0.63599 2.69998,-0.93597c0.60001,-0.20001 1.50156,-0.49536 2.39999,-0.80017c0.90161,-0.30588 1.51886,-0.49512 2.70001,-1.0665c0.61047,-0.29532 1.17957,-0.6889 2.10001,-1.1235c0.88217,-0.41653 1.79431,-0.60818 2.37915,-0.689c0.83398,-0.1152 2.08295,-0.36795 2.81818,-0.66751c0.56195,-0.22897 1.56537,-0.67822 2.36517,-1.00601c0.85678,-0.35114 1.29559,-0.52686 2.17084,-0.86331c1.22089,-0.46933 1.94894,-0.72372 2.90933,-1.07333c0.57001,-0.20749 1.57797,-0.59784 2.44666,-1.01068c0.81647,-0.388 1.61951,-0.76651 2.32535,-1.19998c0.75052,-0.46091 1.58963,-1.05014 2.48532,-1.20001c0.8382,-0.14023 1.23773,-0.79269 2.09982,-1.00015c0.84012,-0.20218 1.3046,-0.84711 2.10019,-1.28384c0.6481,-0.35577 1.55792,-0.68213 2.45267,-0.72049c0.69598,-0.02985 1.63336,-0.58331 2.44733,-0.87402c0.85526,-0.30548 1.67984,-0.24136 2.5,-0.69617c0.7822,-0.43375 1.52728,-0.8342 2.39999,-1.25867c0.65967,-0.32086 1.42236,-0.85284 2.29999,-1.1095c0.8656,-0.25311 1.8606,-0.25534 2.70001,0.1095c0.68457,0.29755 1.30417,1.13818 1.88535,1.71869c0.59833,0.59766 1.21329,1.36728 2.09314,1.87183c0.67126,0.38495 1.54135,0.7438 2.12134,1.34283c0.5629,0.58139 1.02942,1.34906 1.61618,1.98401c0.63919,0.69168 1.4209,0.95227 1.92682,1.62048c0.52637,0.69522 0.90036,1.49878 1.23569,2.39551c0.31808,0.85065 -0.06055,1.73627 0.19348,2.53598c0.29742,0.93631 1.05978,1.2739 1.59467,2.19736c0.42667,0.7366 0.22571,1.6647 0.3905,2.51398c0.17963,0.92575 0.87619,1.7464 0.9415,2.53802c0.0773,0.93689 -0.06378,1.71405 0.52219,2.59381c0.47061,0.70654 1.27692,1.17337 1.45831,2.04169c0.19702,0.94305 -0.03003,1.86969 0.3735,2.72198c0.38379,0.81061 0.45071,1.59171 0.7045,2.45718c0.25729,0.87744 0.77927,1.64703 1.16418,2.39999c0.39017,0.76318 0.60605,1.52048 0.7995,2.39999c0.18643,0.84756 1.06848,1.42712 1.54315,2.10001c0.51837,0.7348 0.88898,1.5072 1.26935,2.39999c0.32019,0.75153 0.22382,1.70001 0.66666,2.5c0.44284,0.79999 0.42511,1.71506 0.58533,2.38535c0.23236,0.97223 0.57388,1.64926 0.91467,2.59381c0.30319,0.84036 0.93912,1.61472 1,2.52084c0.05075,0.75546 0,1.65268 0,2.51599c0,0.96317 0,1.884 0,2.78851c0,0.86215 0.12222,1.73611 -0.22134,2.67416c-0.25342,0.69196 -0.62216,1.51999 -0.83133,2.36865c-0.22736,0.92255 -0.78052,1.51703 -1.24731,2.30984c-0.43008,0.73047 -0.77859,1.55405 -1.20001,2.32199c-0.47617,0.86771 -1.0426,1.52487 -1.66666,2.35419c-0.49927,0.66348 -0.86658,1.15918 -1.26401,1.98398c-0.46539,0.96582 -0.4534,1.87958 -0.99466,2.62134c-0.47354,0.64893 -1.26129,1.04996 -1.87466,1.76666c-0.46313,0.54117 -1.11835,1.33597 -1.72534,1.86935c-0.62387,0.54822 -1.64877,0.85938 -1.91751,1.72531c-0.26694,0.86011 -0.66556,1.43881 -1.02115,2.13602c-0.39297,0.77051 -0.30212,1.7811 -0.83734,2.36398c-0.56821,0.6188 -0.9877,1.45364 -1.42001,2.30002c-0.33472,0.6553 -1.12802,1.5817 -0.75781,2.37915c0.32837,0.70734 1.47916,0.52084 2.37915,0.52084c0.89999,0 1.80002,0 2.70001,0c0.89999,0 1.69998,0 2.60001,0c0.89999,0 1.82083,0 2.784,0c0.69064,0 1.75882,0 2.616,0c0.89999,0 1.65717,0 2.55267,0c0.86331,0 1.82648,0 2.74731,0c0.89999,0 1.80002,0 2.70001,0c0.89999,0 1.65717,0 2.55716,0c0.94415,0 1.93832,0 2.68567,0c1.02118,0 1.85718,0 2.75717,0c0.89999,0 2.22189,0.7388 2.49017,-0.00449c0.26163,-0.72485 -1.24167,-1.04562 -1.64285,-1.70001c-0.47308,-0.77167 -1.28644,-1.18622 -1.922,-1.72083c-0.64935,-0.5462 -0.66208,-1.37646 -1.06134,-2.13867c-0.39722,-0.7583 -0.96332,-1.23734 -0.96399,-2.13602c-0.00067,-0.89999 0,-1.79999 0,-2.69998c0,-0.89999 -0.16275,-1.85687 0.22134,-2.70001c0.35535,-0.78 0.76947,-1.51822 1.20398,-2.29999c0.45535,-0.81931 1.18488,-1.33789 1.53867,-2.03601c0.3909,-0.77133 -0.10132,-1.84512 0.38867,-2.51132c0.50323,-0.68423 0.64734,-1.45267 0.65182,-2.34818l0.42084,-0.67917" id="svg_2" stroke-width="2" stroke="#000" fill="none"/>
  <path t="20422,20462,20470,20486,20496,20511,20511,20528,20528,20528,20545,20545,20545,20561,20561,20561,20561,20561,20580,20580,20595,20595,20595,20611,20702,20702" d="m437,448c-0.99551,1.70001 -0.99759,2.61987 -1.42532,3.39999c-0.4512,0.82291 -0.76831,1.72366 -1.22134,2.23599c-0.63721,0.72061 -1.18936,1.19998 -1.75784,1.76852c-0.79572,0.79581 -1.41446,1.40912 -1.83148,1.86749c-0.94992,1.04416 -1.44791,1.69373 -1.71219,2.02884c-0.53342,0.67639 -1.02835,1.34756 -1.90881,2.43481c-0.4639,0.57285 -1.14987,1.42688 -1.543,2.08969c-0.40714,0.68646 -0.89999,1.41748 -1.60001,2.17465l-0.60001,0.564" id="svg_4" stroke-width="20" stroke="#fff" fill="none"/>
  <path t="23086,23749,23765,23829,24005,24077,24125,24141,24165,24181,24181,24213,24221,24245,24285,24285,24317,24341,24398,24398,24414,24430,24430,24446,24469,24549,24573,24645,24661,24661,25461,25493,25509,25509,25517,25534,25557,25605,25605,25669,25669,25677,25709,25741,25757,25789,25789,25853,25877,25917,25925,25965,26013,26029,26069,26125,26125,26157,26157,26173,26190,26237,26277,26277,26293,26333,26365,26373,26397,26397,26421,26445,26445,26453,26469,26485,26501,26525,26525,26533,26549,26566,26589,26590,26605,26605,26621,26645,26653,26669,26669,26685,26701,26725,26725,26725,26741,26749,26773,26773,26789,26813,26813,26829,26829,26837,26869,26917,26925,26925,26965,26989,27013,27045,27069,27077,27101,27101,27111,27128,27144,27161,27178,27178,27178,27195,27211,27211,27229,27244,27245,27262,27262,27278,27278,27278,27294,27311,27311,27328,27328,27373,27405,27405,27413,27477" d="m420,455c1.70001,0 2.70001,0 3.60001,0c0.89999,0 1.82825,0.21875 2.6955,-0.00449c0.7139,-0.18378 0.57281,-1.34555 0.92584,-2.09552c0.36505,-0.77551 0.76599,-1.6001 0.77866,-2.5c0.01266,-0.90015 0.43964,-1.65845 0.716,-2.28534c0.38913,-0.88269 0.54327,-1.80688 1.284,-2.28131c0.74338,-0.47614 1.44125,-1.04523 1.87866,-1.93335c0.3223,-0.65442 0.79224,-1.36591 1.51068,-1.87466c0.65604,-0.46457 0.47794,-1.43582 0.61514,-2.32532c0.14368,-0.9314 0.63565,-1.53214 1.04819,-2.40002c0.39792,-0.83716 1.26843,-1.41342 1.66199,-2.09998c0.42065,-0.73383 0.18741,-1.70645 0.29602,-2.61069c0.11145,-0.92801 0.60086,-1.55319 0.86783,-2.56781c0.21094,-0.80167 -0.06223,-1.74802 0.1575,-2.62152c0.21704,-0.86279 0.85507,-1.49838 0.96399,-2.39999c0.0965,-0.79871 0.74695,-1.5372 0.96399,-2.39999c0.21973,-0.8735 -0.12332,-1.89789 0.38867,-2.54733c0.48453,-0.61462 0.64734,-1.45267 0.64734,-2.35718c0,-0.86215 -0.13358,-1.74036 0.22134,-2.67398c0.25073,-0.65961 0.62625,-1.53586 0.78934,-2.42151c0.15311,-0.83145 0.88718,-1.58813 0.98483,-2.30002c0.12244,-0.89255 0.62259,-1.61032 0.91916,-2.5c0.28586,-0.85764 0.08533,-1.79999 0.08533,-2.59998c0,-0.836 0,-1.85269 0,-2.54733c0,-1.01669 0,-1.95267 0,-2.85269c0,-0.89999 0,-1.79999 0,-2.59998c0,-0.90002 -0.10233,-1.80804 0.02084,-2.72086c0.11035,-0.81784 0.54904,-1.68008 1.07898,-2.45764c0.43207,-0.63394 0.8815,-1.42099 0.90018,-2.3215c0.01868,-0.89984 0.31107,-1.74457 0.716,-2.5c0.40524,-0.75598 0.76129,-1.58157 1.284,-2.36667c0.42404,-0.6369 0.63242,-1.37665 1.02533,-2.42267c0.27579,-0.73425 0.97565,-1.4097 1.57468,-2.01068c0.69662,-0.69885 1.09805,-1.47 1.50983,-2.10001c0.46249,-0.70758 1.56116,-0.9812 1.86884,-1.89999c0.2861,-0.85434 0.37445,-1.70374 1.02133,-2.39999c0.56049,-0.60327 0.79596,-1.49518 1.28534,-2.19867c0.54581,-0.78464 1.38718,-1.0831 1.936,-1.67999c0.58853,-0.64005 1.04477,-1.33844 1.57999,-1.92133c0.56821,-0.6188 0.98288,-1.4931 1.55133,-2.14734c0.52863,-0.6084 1.08517,-1.37793 1.49802,-1.87802c0.57468,-0.69617 0.9603,-1.60391 1.43466,-2.37466c0.41476,-0.67392 1.25986,-1.28888 1.81467,-2.12131c0.43692,-0.65552 0.89676,-1.51443 1.29999,-2.05334c0.59525,-0.79556 0.97189,-1.46774 1.39999,-2.14133c0.55392,-0.87158 1.07953,-1.69534 1.28403,-2.36935c0.29034,-0.95697 0.64072,-1.62817 0.91599,-2.61465c0.22861,-0.81934 0.57468,-1.67465 0.91599,-2.61334l0.30536,-0.76532" id="svg_5" stroke-width="2" stroke="#000" fill="none"/>
  <path t="29598,29742,29742,29750,29766,29782,29798,29815,29830,29846,29861,29861,29878,29894,29894,29911,29934,29950,29974,29990,29990,30006,30014,30030,30046,30062,30086,30110,30126,30126,30142,30174,30214,30254,30254,30254,30278,30318,30318,30830,30878,30942,30998,30998,31038,31118,31150,31222,31278,31366,31390,31430,31430,31494,31502,31518,31814,31838,31894,31926,31958,31982,32006,32006,32030,32038,32062,32086,32110,32126,32150,32166,32166,32174,32190,32199,32214,32246,32286,32326,32334,32334,32406,32438,32446,32502,32510,32534,32566,32590,32606,32630,32646,32646,32670,32702,32710,32710,32734,32734,32766,32790,32790,32790,32806,32806,32822,32830,32845,32861,32902,32902,32918,32933,32957,32973,32974,32989,32997,33021,33045,33061,33077,33093,33125,33141,33149,33165,33197,33245,33246,33253,33277,33317,33317,33349,33349,33381,33405,33421,33437,33437,33445,33461,33478,33494,33511,33528,33544,33561,33561,33579,33594,33595,33613,33613,33637,33645,33661,33678,33695,33711,33728,33745,33745,33762,33778,33778,33794,33794,33812,33812,33828,33844,33861,33861,33878,33878,33894,33895,33912,33928,33928,33944,33962,33962,33962,33978,33978,33994,34012,34028,34028,34028,34045,34045,34062,34062,34078,34078,34095,34095,34112,34128,34128,34145,34145,34162,34162,34178,34178,34195,34195,34212,34212,34227,34246,34246,34262,34262,34277,34294,34294,34311,34312,34327,34328,34344,34344,34361,34377,34394,34395,34411,34427,34444,34444,34461,34462,34477,34494,34495,34511,34512,34533,34533,34549,34550,34561,34577,34596,34611,34611,34627,34644,34661,34662,34677,34678,34695,34718,34718,34741,34741,34781,34782,34782,34805,34829,34829,34846,34846,34862,34885,34909,34909,34933,34949,34949,34966,34977,34994,35011,35011,35027,35027,35044,35061,35077,35077,35077,35094,35094,35111,35111,35127,35127,35127,35144,35161,35161,35182,35182,35194,35194,35211,35227,35245,35269,35278,35302,35317,35317,35341,35357,35381,35405,35413,35429,35453,35462,35462,35478,35494,35511,35512,35528,35544,35545,35561,35562,35578,35595,35596,35612,35628,35628,35645,35645,35662,35662,35678,35694,35695,35711,35728,35728,35744,35745,35745,35761,35762,35762,35778,35778,35794,35795,35811,35812,35828,35828,35844,35861,35862,35878,35878,35878,35878,35894,35895,35895,35911,35912,35928,35928,35928,35944,35945,35961,35962,35962,35978,35978,35978,35978,35994,35995,36011,36012,36028,36028,36028,36028,36045,36045,36045,36045,36062,36062,36062,36078,36078,36078,36094,36095,36111,36112,36112,36128,36128,36144,36145,36145,36161,36162,36178,36196,36196,36212,36212,36228,36228,36244,36245,36261,36262,36278,36278,36295,36295,36315,36330,36330,36345,36362,36363,36379,36396,36412,36429,36429,36446,36446,36446,36463,36463,36463,36479,36479,36479,36496,36496,36512,36513,36529,36529,36546,36546,36546,36562,36563,36579,36579,36597,36597,36597,36613,36613,36613,36629,36629,36629,36646,36646,36646,36663,36663,36663,36679,36679,36679,36696,36696,36712,36713,36729,36729,36746,36746,36762,36763,36778,36779,36796,36796,36812,36813,36853,36862,36885,36885,36901,36941,36989,36997,37029,37029,37069,37125,37141,37165,37213,37253,37293,37317,37317,37333,37365,37381,37413,37437,37437,37445,37462,37478,37501,37517,37533,37549,37562,37597,37621,37621,37645,37661,37669,37709,37717,37717,37733,37757,37774,37781,37781,37805,37813,37829,37869,37877,37893,37925,37941,37941,37958,37974,37989,38029,38029,38053,38053,38069,38078,38101,38125,38133,38221,38221,38229,38269,38301,38301,38309,38341,38389,38389,38413,38421,38437,38453,38477,38478,38517,38549,38549,38629,38669,38989,39013,39013,39045,39077,39101,39157,39189,39221,39221,39237,39261,39278,39293,39333,39357,39373,39405,39421,39437,39453,39485,39557,39701,39845,39901,39901,39941,40149" d="m446,414c-1,1 -1,1.79999 -1,2.70001c0,0.89999 0,1.79999 0,2.69998c0,0.89999 0,1.80002 0,2.70001c0,0.89999 0,1.69998 0,2.53598c0,1.01669 0,1.71133 0,2.72803c0,0.93597 0,1.836 0,2.73599c0,0.89999 0,1.69998 0,2.60001c0,0.89999 0,1.79999 0,2.69998c0,0.89999 0,1.80002 0,2.70001c0,0.89999 0.19595,1.73441 -0.05716,2.60001c-0.25665,0.87762 -0.83081,1.62183 -1.1095,2.46664c-0.22293,0.67581 -0.65384,1.33636 -1.22269,2.19736c-0.54529,0.82529 -0.73688,1.50739 -1.02533,2.45065c-0.28455,0.93045 0.51468,1.18533 1.41467,1.18533c0.79999,0 1.70001,0 2.60001,0c0.89999,0 1.79999,0 2.69998,0c0.90002,0 1.80002,0 2.70001,0c0.79999,0 1.70007,-0.01041 2.60001,0c0.90018,0.01044 1.84656,0.90094 2.37915,0.45834c0.66034,-0.54877 0.02084,-1.75833 0.02084,-2.65836c0,-0.89999 0,-1.79999 0,-2.59998c0,-0.90002 0,-1.80002 0,-2.70001c0,-0.89999 0,-1.79999 0,-2.70001c0,-0.89999 0,-1.79999 0,-2.59998c0,-0.90002 0,-1.80002 0,-2.70001c0,-0.89999 0,-1.79999 0,-2.70001c0,-0.89999 0,-1.79999 0,-2.59998c0,-0.90002 -0.17804,-1.82202 0.02084,-2.70001c0.21799,-0.96234 0.659,-1.73376 1.26315,-2.41599c0.52649,-0.59454 1.28976,-1.02762 1.74133,-1.69467c0.49878,-0.73682 1.17554,-1.41147 1.61749,-2.08936c0.47849,-0.73392 0.69962,-1.6138 1.35718,-2.29999c0.5871,-0.61264 1.20001,-1.20001 1.79999,-1.79999c0.61069,-0.61069 1.36667,-1.36667 1.85269,-1.85269c0.52197,-0.52197 1.25388,-1.41327 1.93665,-1.90067c0.7359,-0.52533 1.23904,-1.07281 1.76785,-1.74216c0.58545,-0.74103 1.6763,-0.82916 2.24283,-1.31516c0.74326,-0.63754 0.93201,-1.58804 1.56665,-2.22269c0.63464,-0.63464 1.62418,-0.65906 2.3125,-1.16666c0.69604,-0.51331 1.22534,-1.05267 2.02084,-1.5c0.7955,-0.44733 1.51468,-0.88782 2.07468,-1.52533c0.48752,-0.55499 0.8598,-1.36911 1.34131,-2.17334c0.44522,-0.74362 1.00894,-1.26358 1.30536,-2.12265c0.23929,-0.69354 0.37967,-1.80914 0.94531,-2.51202c0.60928,-0.75711 1.31174,-0.99207 1.66669,-2c0.25906,-0.73569 0.7847,-1.47699 1.08133,-2.36667c0.28595,-0.85764 0.29703,-1.77173 0.66,-2.39999c0.48856,-0.84564 1.18475,-1.34119 1.42084,-2.10449c0.26489,-0.85638 0.62259,-1.60583 0.91916,-2.49551c0.28586,-0.85764 -0.05707,-1.8266 0.14249,-2.5c0.26501,-0.89423 0.77975,-1.62955 0.96817,-2.47464c0.21216,-0.95157 0.82053,-1.59094 0.96399,-2.42535c0.15253,-0.88705 0.10016,-1.81735 0.58536,-2.42532c0.49838,-0.62451 0.42532,-1.57468 0.42532,-2.49551c0,-0.96317 0,-1.65381 0,-2.72198c0,-0.85733 0,-1.64252 0,-2.59317c0,-0.76532 0,-1.75949 0,-2.50684c0,-1.02118 0,-1.96167 0,-2.82382c0,-0.83334 0,-1.81201 0,-2.586c0,-0.90002 0,-1.76334 0,-2.74734c0,-0.98401 0,-1.67465 0,-2.74734c0,-0.91931 0.00345,-1.58865 0,-2.35397c-0.00534,-1.18805 -0.02341,-1.94086 -0.42532,-2.7627c-0.42606,-0.87122 -0.57468,-1.80264 -0.57468,-2.47198c0,-0.76532 0.0582,-1.77063 -0.05716,-2.564c-0.14755,-1.01474 -0.60175,-1.7782 -0.82135,-2.79984c-0.16513,-0.76825 -0.12149,-1.77866 -0.12149,-2.59885c0,-0.83731 0.05331,-1.86484 -0.05716,-2.60583c-0.15039,-1.00888 -0.5206,-1.78018 -1.04266,-2.57416c-0.43735,-0.6651 -0.74561,-1.5195 -0.95285,-2.36865c-0.22495,-0.92166 -0.76212,-1.51605 -0.91132,-2.47803c-0.10599,-0.68335 -0.00519,-1.8223 -0.32135,-2.65866c-0.26993,-0.71411 -0.90411,-1.43469 -1.35748,-2.21149c-0.45331,-0.7767 -0.52875,-1.65042 -0.96783,-2.47916c-0.44061,-0.8316 -1.05508,-1.41571 -1.30533,-2.30936c-0.23569,-0.84167 -0.41553,-1.78033 -0.88535,-2.31467c-0.64404,-0.73245 -1.02957,-1.55392 -1.48267,-2.40134c-0.3486,-0.65198 -0.61459,-1.50876 -0.73685,-2.32083c-0.14868,-0.9877 -0.53513,-1.68976 -1.07916,-2.45764c-0.45633,-0.6441 -1.29401,-1.25824 -1.77884,-2.12152c-0.37109,-0.6608 -1.02255,-1.2597 -1.63849,-1.78534c-0.64328,-0.54898 -1.03595,-1.31369 -1.68134,-2.22931c-0.42126,-0.59766 -0.79715,-1.49319 -1.50583,-1.93802c-0.68057,-0.42715 -1.48206,-0.91638 -2.27466,-1.44733c-0.70627,-0.47311 -1.237,-1.22946 -2.02084,-1.66666c-0.65189,-0.36359 -1.29633,-1.13702 -1.79999,-1.63333c-0.7157,-0.70529 -1.52292,-1.29736 -2.20001,-1.70001c-0.8353,-0.49673 -1.47635,-1.03317 -2.16666,-1.5c-0.63837,-0.4317 -1.31436,-0.85452 -2.20801,-1.38934c-0.9144,-0.54724 -1.67191,-0.46057 -2.60382,-0.832c-0.77475,-0.30881 -1.55356,-0.71347 -2.3215,-1.13132c-0.84106,-0.45761 -1.58536,-0.64667 -2.52536,-0.64734c-1.008,-0.00073 -1.76398,0 -2.67465,0c-0.89999,0 -1.8045,0 -2.66666,0c-0.83334,0 -1.81183,0 -2.63202,0c-0.90134,0 -1.74298,0 -2.74399,0c-0.70801,0 -1.68933,0 -2.65201,0c-0.77332,0 -1.81516,0 -2.59067,0c-1.048,0 -1.75299,0 -2.55301,0c-1.03632,0 -1.98315,0 -2.6825,0c-0.97916,0 -1.95831,0 -2.8125,0c-0.86215,0 -1.76666,0 -2.66666,0c-0.89999,0 -1.79999,0 -2.70001,0c-0.89999,0 -1.79999,0 -2.59998,0c-0.90002,0 -1.80002,0 -2.70001,0c-0.89999,0 -1.79999,0 -2.70001,0c-0.89999,0 -1.79999,0 -2.59998,0c-0.90002,0 -1.836,0 -2.68402,0c-0.86331,0 -1.76334,0 -2.68265,0c-0.83334,0 -1.81183,0 -2.63202,0c-0.83731,0 -1.854,0 -2.54865,0c-1.02734,0 -1.97418,0 -2.67352,0c-0.97916,0 -1.95831,0 -2.8125,0c-0.86215,0 -1.80264,0 -2.65067,0c-0.86331,0 -1.76334,0 -2.68265,0c-0.85419,0 -1.83334,0 -2.64401,0c-0.87466,0 -1.87332,0 -2.68933,0c-0.81601,0 -1.81467,0 -2.47916,0c-1.02084,0 -2,0 -2.85419,0c-0.79199,0 -1.81934,0 -2.51398,0c-1.02734,0 -1.97433,0 -2.69434,0c-1.125,0 -1.91644,-0.01529 -2.76901,0.03601c-0.59164,0.03561 -1.78964,0.24133 -2.66849,0.46399c-0.56479,0.14307 -1.5957,0.41953 -2.5,0.47916c-1.01883,0.0672 -1.84921,-0.06717 -2.62085,0.1915c-0.84747,0.28409 -1.36237,0.89883 -2.39999,1.66269c-0.58899,0.43359 -1.25626,0.78854 -2.33334,1c-0.62674,0.12305 -1.64816,0.14282 -2.30417,0.21933c-1.10355,0.12872 -1.93295,0.6265 -2.85049,0.86331c-0.77667,0.20047 -1.84717,0.24118 -2.48132,0.36935c-0.69418,0.14032 -1.78513,0.4097 -2.86401,0.71466c-0.6817,0.19269 -1.31323,0.41415 -2.20499,0.64282c-1.03336,0.26498 -1.97635,0.32184 -2.64566,0.52652c-1.02829,0.31448 -1.5209,0.69882 -2.30618,1.12534c-1.02957,0.5592 -1.82007,0.73425 -2.77917,0.98932c-0.75565,0.20096 -1.54129,0.46881 -2.54532,0.63199c-0.87006,0.14142 -1.69009,0.23639 -2.48532,0.50934c-0.80508,0.27631 -1.81064,0.44431 -2.54285,0.62735c-1.0546,0.26364 -1.75089,0.88074 -2.54251,0.94598c-0.94751,0.07809 -1.74231,0.00415 -2.71014,0.35852c-0.77386,0.28336 -1.46399,0.93622 -2.15717,1.28564c-0.85223,0.42963 -1.66962,0.34363 -2.64603,0.64117c-0.78311,0.23865 -1.7139,0.67206 -2.48532,0.71466c-0.93991,0.05191 -1.97256,-0.15207 -2.70532,0.03735c-0.87521,0.22626 -1.42798,1.17233 -2.11069,1.60681c-0.73212,0.46594 -1.7041,0.27545 -2.60449,0.36166c-0.87329,0.08359 -1.69519,0.5657 -2.6955,0.82886c-0.59491,0.15649 -1.46512,0.17889 -2.42151,0.38815c-0.82278,0.18002 -1.6832,0.48233 -2.57849,0.7785c-0.8912,0.29483 -1.71552,0.61212 -2.66666,0.83334c-0.80402,0.18698 -1.66345,0.07535 -2.508,0.20267c-0.96387,0.14529 -1.61688,0.68832 -2.59335,0.87997c-0.72299,0.14191 -1.49118,0.0892 -2.58133,0.50934c-0.63782,0.24582 -1.66193,0.50891 -2.436,0.60001c-1.05023,0.1236 -1.77014,0.30228 -2.61017,0.67917c-0.81796,0.36697 -1.61032,0.82236 -2.28983,1.01016c-0.98322,0.27173 -1.83826,0.26041 -2.716,0.36935c-0.90204,0.11197 -1.79642,0.32651 -2.64151,0.62048c-1.04721,0.36429 -1.72809,0.70404 -2.40982,0.99551c-0.96341,0.41193 -1.75482,0.71237 -2.53751,0.94281c-1.03195,0.30383 -1.76688,0.38416 -2.66699,0.70984c-0.7554,0.27335 -1.74045,0.59494 -2.54285,0.63666c-0.99854,0.05191 -1.83295,-0.14844 -2.77847,0.23218c-0.67188,0.27048 -1.25903,1.18756 -1.90686,1.49316c-0.88885,0.41931 -1.71667,0.25195 -2.71014,0.28983c-0.74866,0.02853 -1.69055,0.58331 -2.50452,0.87402c-0.85526,0.30548 -1.69998,0.12149 -2.60001,0.12149c-0.89999,0 -1.86957,-0.11142 -2.59999,0.35718c-0.79991,0.51318 -1.23378,1.38394 -2.09999,1.60681c-0.87231,0.22443 -1.81259,-0.1138 -2.69984,0.03616c-0.85202,0.14401 -1.26816,0.84903 -2.20016,1.00433c-0.81747,0.13623 -1.16148,0.95068 -1.75267,1.63834c-0.56651,0.65894 -1.41605,0.91843 -2.24733,1.3045c-0.87079,0.40445 -1.08482,1.07324 -1.784,1.76733c-0.54753,0.54355 -1.45848,0.51187 -2.13733,1.164c-0.58002,0.55719 -1.19615,1.10474 -1.77867,1.62134c-0.60268,0.53448 -1.42577,0.90985 -2.09984,1.60001c-0.56543,0.57892 -1.02803,1.35614 -1.5475,1.95267c-0.56917,0.65363 -0.89444,1.42764 -1.55133,2.14734c-0.53348,0.5845 -0.68161,1.63422 -1.32216,2.27914c-0.63951,0.64389 -1.18172,1.0195 -1.53185,1.81552c-0.35806,0.81406 -1.00197,1.3493 -1.74866,1.78934c-0.70053,0.41284 -1.71239,0.77747 -2.19867,1.43683c-0.50873,0.68979 -0.92461,1.57205 -1.60001,2.04315c-0.73358,0.51169 -1.79736,0.30954 -2.38533,0.87201c-0.58267,0.5574 -1.22261,1.12979 -1.99316,1.66382c-0.63055,0.43701 -1.57979,0.59262 -2.41083,0.91086c-0.74312,0.28455 -0.84084,1.50027 -1.71068,1.86783c-0.83653,0.35349 -1.81075,-0.24286 -2.54283,0.17865c-0.81151,0.46725 -1.35803,0.90564 -2.15717,0.94284c-0.91763,0.04272 -1.32217,0.86063 -2.06133,1.39999c-0.62067,0.45288 -1.41171,1.16687 -2.23868,1.47852c-0.84982,0.32025 -1.62946,0.33765 -2.06667,1.12149c-0.3636,0.65189 -1.12259,1.31091 -1.83333,2c-0.59122,0.57321 -1.51227,0.86255 -2,1.52084c-0.50539,0.6821 -1.06741,1.06769 -1.8,0.76181c-0.86928,-0.36295 -1.81961,-0.2807 -2.59999,-0.70798c-0.82257,-0.45038 -1.70001,-0.57468 -2.60001,-0.57468c-0.8,0 -1.7,0 -2.60001,0c-0.89999,0 -1.79999,0.00067 -2.7,0c-0.89867,-0.00067 -1.43788,-0.6102 -2.136,-0.96399c-0.77136,-0.3909 -1.84512,0.10132 -2.51132,-0.38867c-0.68422,-0.50323 -1.45267,-0.64801 -2.35268,-0.64734c-0.89999,0.00067 -1.7,0.16666 -2.39999,0.64734l-0.8,0.35266l-0.8,0.35266" id="svg_6" stroke-width="2" stroke="#000" fill="none"/>
  <path t="47534,47629,47645,47661,47661,47677,47693,47701,47711,47727,47727,47744,47760,47760,47777,47777,47794,47794,47810,47810,47810,47827,47827,47844,47844,47861,47877,47901,47941,47949,47960,47977,47994,47994,48010,48010,48027,48045,48045,48069,48077,48094,48094,48110,48133,48134,48157,48190,48213,48245,48349,48381,48405,48405,48421,48469,48533,48645,48661,48701,48733,48765,48805,48829,48829,49005" d="m463,312c1.70001,0 2.63599,0 3.48401,0c0.86331,0 1.88,0 2.81598,0c0.90002,0 1.80075,-0.03665 2.70001,0c0.70175,0.02859 1.5585,0.49997 2.09982,1.32132c0.42786,0.6492 0.71225,1.51749 0.92551,2.30402c0.23535,0.86798 0.61194,1.60599 0.80801,2.54132c0.16193,0.77237 0.1644,1.82352 0.16666,2.69052c0.00232,0.89099 0,1.7955 0,2.65881c0,0.96317 0,1.884 0,2.784c0,0.90002 0.38943,2.04739 -0.2215,2.57852c-0.66931,0.58188 -1.7785,0.12149 -2.53568,0.12149c-0.89551,0 -1.75882,0 -2.74283,0c-0.98401,0 -1.70337,0.24103 -2.73834,-0.00449c-0.77048,-0.18277 -1.14282,-1.13635 -1.47766,-1.7955c-0.39835,-0.78418 -0.284,-1.85269 -0.284,-2.54733c0,-1.01669 0,-1.95267 0,-2.85269c0,-0.89999 -0.43427,-2.03241 0.16666,-2.63333c0.60092,-0.60092 1.63333,-0.16666 2.53336,-0.16666c0.89999,0 1.85776,-0.30478 2.68933,0.01068c0.72913,0.27658 0.65604,1.55008 0,2.01465c-0.71844,0.50876 -1.30533,1.17468 -1.556,1.97467l-0.48068,0.70001l-0.35266,0.77914" id="svg_8" stroke-width="2" stroke="#000" fill="none"/>
  <path t="51749,51852,51869,51877,51884,51900,51900,51910,51927,51942,51943,51972,51972,51980,52004,52012,52027,52042,52060,52077,52077,52093,52093,52093,52116,52148,52228,52364,52396,52412,52420,52452,52452,52476,52484,52508,52516,52527,52542,52565,52588,52596,52610,52627,52643,52668,52692,52700,52700,52724,52828" d="m220,372c-0.9955,-1.70001 -1.00241,-2.61987 -0.57466,-3.39999c0.45122,-0.82291 0.86436,-1.65692 1.222,-2.30002c0.47441,-0.85312 0.77945,-1.70877 1.35266,-2.29999c0.59065,-0.60922 1.3038,-1.29623 1.8,-1.79999c0.68443,-0.69485 0.90668,-1.77188 1.636,-2.164c0.75786,-0.40747 1.46577,-0.67004 2.10567,-1.03601c0.85579,-0.48944 1.66899,-0.61066 2.45833,-1c0.78934,-0.38934 1.48956,-0.8345 2.47917,-0.97916c0.91138,-0.13321 1.82083,-0.02094 2.72083,-0.02084c0.89984,0.00009 1.75728,0.28201 1.8,1.10001c0.04694,0.89877 0.02725,1.70041 0,2.60001c-0.02859,0.94412 -0.83333,1.46664 -1,2.29999c-0.16667,0.83334 -0.83751,1.34293 -1.35266,1.94733c-0.55098,0.64642 -0.46423,1.54855 -0.93268,2.25134c-0.53012,0.79532 -1.38715,1.0831 -1.93599,1.67999c-0.58855,0.64005 -1.06401,1.32001 -1.58,1.836l-0.89867,0.33801l-0.8,0.44733" id="svg_9" stroke-width="2" stroke="#000" fill="none"/>
  <path t="55988,56092,56100,56110,56148,56148,56172,56204,56212,56228,56236,56260,56268,56572,56604,56636,56644,56788,56788,56788,56836,56932,56996,57036,57036,57108,57140,57172,57228,57244,57284,57532,57556,57732" d="m208,393c0.57466,-1.60001 0.84879,-2.41263 1.0045,-3.29999c0.16296,-0.92862 0.72809,-1.57877 1.4955,-2.17917c0.64931,-0.508 1.72035,-0.29224 2.416,-0.80484c0.69087,-0.50906 0.95793,-1.44159 1.69467,-1.70532c0.83736,-0.29974 2.03833,-0.17731 2.37866,0.59998c0.32114,0.73343 0.46201,1.70383 0.85066,2.21469c0.51862,0.6817 0.55426,1.77988 -0.23999,2.14932c-0.77771,0.36172 -1.58632,0.93744 -2.3,1.02084c-0.89394,0.10446 -1.73805,0.1673 -2.35268,0.65182c-0.64944,0.51199 -1.64732,0.35266 -2.54733,0.35266l-0.87917,0.02084l-0.5735,0.6265l-0.66333,0.43668" id="svg_10" stroke-width="2" stroke="#000" fill="none"/>
  <path t="64357,64572,64636,64660,64660,64668,64724,64804,64844,64884,64916,64964,64996,65028,65028,65060,65076,65140,65148,65196,65244,65244,65316,65436,65484,65484,65540,65716,65884,66156,66236,66260,66260,66324" d="m179,419c0.88667,0 1.82533,0 2.83333,0c0.75601,0 1.60472,-0.16281 2.21935,-0.64734c0.64944,-0.51199 1.64732,-0.35266 2.54733,-0.35266c0.89999,0 1.84453,-0.09546 2.59999,0.284c0.86722,0.43558 1.63777,0.59271 2.27917,1.23685c0.63976,0.64246 0.37039,1.69186 0.521,2.57898c0.1447,0.85236 1.24232,1.00061 1.71449,1.70151c0.47879,0.71075 0.72955,1.59097 1.38518,2.29868c0.54996,0.59363 0.76443,1.61349 1.51083,1.88931c0.83424,0.30829 1.78932,0 2.68933,-0.34198l0.7,-0.48068l0.8,-0.16531l0.89999,-0.00134" id="svg_12" stroke-width="2" stroke="#000" fill="none"/>
  <path t="69972,70275,70291,70307,70315,70326,70347,70358,70427,70427,70451,70459,70507,70547,70547,70563,70579,70595,70611,70627,70715,70819,70851,70851,70923,70971,70972,71003,71003,71003,71027,71059" d="m247,449c1.7,0.99551 2.60001,1 3.5,1c0.89999,0 1.8,-0.00006 2.7,0c0.90001,0.00009 1.75377,0.24213 2.5,0.64734c0.76112,0.4133 1.74455,0.2572 2.50002,0.63666c0.86719,0.43558 1.59998,0.71533 2.5,0.716c0.89999,0.00067 1.79999,0 2.69998,0c0.89999,0 1.80002,0 2.70001,0c0.89999,0 1.75043,-0.01312 2.39999,-0.52084c0.76993,-0.60178 1.25717,-1.23633 1.98401,-1.96317c0.51599,-0.51599 1.03198,-1.03198 1.86932,-1.88l0.52533,-0.73581" id="svg_13" stroke-width="2" stroke="#000" fill="none"/>
 </g>
 <g display="none">
  <title>muse_image</title>
  <image xlink:href="http://farm2.static.flickr.com/1300/583491122_7266efdbc2.jpg" id="muse" height="427" width="640" y="26.5" x="0"/>
 </g>
 <g display="none">
  <title>bbox</title>
  <rect stroke="#f00" fill="none" stroke-width="3" height="190.48802" width="314.88" y="250.22754" x="152.32" id="bbox"/>
 </g>
</svg>
