<svg width="640" height="480" xmlns="http://www.w3.org/2000/svg" xmlns:svg="http://www.w3.org/2000/svg" xmlns:xlink="http://www.w3.org/1999/xlink">
 <!-- Sketchy ANNOTATION
  ImageNet ID: n02395406_37751
  URL: http://farm1.static.flickr.com/85/244454005_555f4e67c7.jpg
  Image Width: 500
  Image Height: 361
  BBox X: 57
  BBox Y: 45
  BBox Width: 443
  BBox Height: 316
  Exposure: 2000ms
  Synset Label: pig
  Synset ID: n02395406
  Worker Tag: wild boar
  Sanity Check: 
   Context
   Saved
   Shading
  Comment: 
   {}
  Worker ID: A1P7U2ULSAE7YL
  Assignment ID: 3570Y55XZPJZKK1UE63B2ITMN6BGYH
  HIT ID: 33EEIIWHK7776V29MPG10DY9AIDQV9
  Work Time: 206s
  Worker Score: 0.8571
 END ANNOTATION -->
 <g display="inline">
  <title>Layer 1</title>
  <path t="0,135,175,199,215,239,263,287,312,312,327,335,351,367,376,391,391,407,423,439,455,471,487,495,511,511,527,536,551,567,577,592,607,607,615,615,623,639,647,664,679,703,711,727,735,735,744,752,760,760,768,777,783,791,799,840,842,855,871,880,880,888,903,911,911,935,951,967,977,977,999,1015,1023,1039,1048,1055,1071,1079,1088,1103,1119,1127,1143,1160,1160,1168,1176,1199,1215,1239,1239,1247,1264,1271,1280,1280,1296,1303,1314,1335,1359,1359,1367,1376,1393,1393,1399,1399,1407,1415,1423,1431,1431,1439,1447,1455,1479,1487,1495,1503,1519,1535,1535,1543,1544" d="m200.01137,184.09091c0,1.8 0,2.7 0,3.60001c0,0.79999 0,1.78932 0,2.68533c0,0.81467 0.17355,1.75291 -0.08533,2.51466c-0.30176,0.88791 -0.89667,1.59946 -0.91467,2.5c-0.01799,0.89981 0,1.8 0,2.7c0,0.8 0,1.7 0,2.60001c0,0.89999 0,1.79999 0,2.7c0,0.89999 0,1.8 0,2.7c0,0.8 -0.05621,1.70053 -0.5,2.5c-0.44188,0.79604 -0.9962,1.18744 -1.44284,1.85716c-0.52673,0.78983 -0.22041,1.81087 -0.4825,2.46817c-0.40276,1.0101 -0.56932,1.76395 -0.57466,2.67467c-0.00526,0.89998 0,1.8 0,2.7c0,0.90001 0.27881,1.84546 -0.00017,2.67867c-0.26363,0.78735 -0.92876,1.43762 -0.98917,2.29601c-0.06599,0.93774 0.026,1.92609 -0.01067,2.82533c-0.02861,0.70175 -0.68552,1.42256 -0.94284,2.3c-0.25343,0.86417 -0.68343,1.44275 -1.03633,2.2c-0.36218,0.77716 -0.02083,1.7955 -0.02083,2.7215c0,0.87851 0,1.7785 0,2.57851c0,0.89999 0,1.72083 0,2.68399c0,0.86334 0,1.75433 0,2.7375c0,0.87851 0,1.7785 0,2.57851c0,0.89999 0,1.8 0,2.7c0,0.89999 0,1.8 0,2.7c0,0.89984 0,1.77467 0,2.60133c0,0.89867 -0.00195,1.81828 0.42534,2.59866c0.45038,0.82257 0.56958,1.60001 0.57466,2.48535c0.00534,0.92938 0.42764,1.55432 0.87849,2.33615c0.44302,0.76828 0.1196,1.7785 0.12151,2.53568c0.00226,0.89099 0.32643,1.74805 0.83333,2.40948c0.54596,0.7124 0.92784,1.371 1.14584,2.33334c0.1989,0.87799 -0.07007,1.80472 0.02216,2.70001c0.08371,0.81259 0.70317,1.44281 1.49867,1.79999c0.7955,0.35718 1.34256,1.1105 1.584,1.88535c0.2975,0.95474 0.74551,1.60663 0.89517,2.59381c0.13811,0.91098 0.4297,1.64816 0.85416,2.52084c0.32086,0.65967 0.70427,1.45245 1.46217,1.94733c0.6954,0.45407 1.30698,0.6842 2.18367,1.07352c0.71089,0.3157 1.23692,0.86316 2.15683,1.01517c0.87296,0.14426 1.57466,0.53867 2.56366,0.8425l0.75867,0.10065" id="svg_1" stroke-width="2" stroke="#000" fill="none"/>
  <path t="2456,2567,2583,2592,2608,2608,2615,2631,2639,2647,2663,2671,2680,2696,2703,2712,2727,2735,2735,2751,2761,2768,2791,2799,2808,2815,2815,2831,2841,2847,2863,2863,2871,2871,2887,2896,2896,2919,2919,2928,2935,2935,2943,2943,2959,2967,2967,2978,2992,2999,3000,3008,3015,3024,3031,3031,3041,3047,3063,3071,3079,3079,3087,3095,3112,3127,3128,3135,3135,3144,3151,3160,3167,3177,3183,3191,3199,3215,3231,3231,3247,3247,3255,3263,3271,3287,3295,3303,3319,3328,3328,3335,3351,3367,3377,3399,3410,3431,3455,3455,3471,3487,3511,3527,3535,3551,3575,3583,3607,3615,3631,3640,3647,3657,3671,3687,3696,3703,3727,3743,3815,3847" d="m279.01135,180.09091c0,1.8 0,2.7 0,3.52083c0,0.96317 0,1.65384 0,2.722c0,0.95717 0,1.85718 0,2.75717c0,0.83333 0,1.61067 0,2.60001c0,0.79999 0,1.7 0,2.7c0,0.8 0,1.8 0,2.5c0,0.89999 0,1.8 0,2.76399c0,0.87201 -0.10696,1.74254 0.00134,2.636c0.11148,0.91977 0.82935,1.56963 0.98801,2.40001c0.18115,0.94797 0.74377,1.35332 1.30615,2.11432c0.46158,0.62462 0.65271,1.68036 0.69385,2.41368c0.0582,1.03709 0.25317,1.82173 0.65799,2.51483c0.44092,0.75494 0.26233,1.54672 0.35718,2.60449c0.08337,0.92981 0.28281,1.68716 0.99548,2.41934c0.60892,0.62556 0.88336,1.38713 1.16669,2.16666c0.29346,0.80739 0.68213,1.57932 0.83783,2.46667c0.16296,0.9286 0.875,1.43198 1.47467,2.2c0.50735,0.6498 0.52081,1.60001 0.52081,2.5c0,0.8 0.05719,1.7 0.5,2.5c0.44284,0.8 0.3363,1.75729 0.72134,2.60001c0.30579,0.6693 0.76807,1.5 0.77866,2.39999c0.01074,0.91066 0.22833,1.81851 0.5,2.5c0.38852,0.97456 0.49774,1.69548 0.5,2.60001c0.00223,0.89999 0.06696,1.74355 0.57468,2.42532c0.4772,0.64081 0.42532,1.57468 0.42532,2.47467c0,0.89999 0,1.8045 0,2.66667c0,0.83333 0,1.812 0,2.586c0,0.89549 0,1.914 0,2.76816c0,0.87917 0,1.77917 0,2.67917c0,0.90001 0,1.8 0,2.59999c0,0.90002 0,1.80002 0,2.70001c0,0.88934 0,1.784 0,2.66934c0,0.8515 0,1.80914 0,2.62933c0,0.90134 0.00272,1.82135 -0.42532,2.60132c-0.45096,0.82175 -1.14145,1.27771 -1.53867,2.03601c-0.39926,0.76221 -0.50906,1.272 -1.38867,1.56848c-0.71735,0.24179 -0.92783,1.39893 -1.64734,1.82886c-0.77045,0.46036 -1.33679,1.01791 -1.97464,1.59198c-0.57874,0.52087 -1.1842,1.09274 -1.74133,1.65866c-0.66058,0.67102 -1.28268,1.00134 -1.56802,1.832l-0.65881,0.44119" id="svg_2" stroke-width="2" stroke="#000" fill="none"/>
  <path t="5175,5383,5383,5399,5423,5455,5463,5471,5488,5505,5519,5551,5575,5575,5607,5615,5679,5759,5767,5776,5807,5823,5823,5839,5863,5880,5888,5896,5905,5905,5912,5922,5928,5944,5944,5952,5960,5960,5968,5976,5976,5984,5985,6056,6064,6080,6080,6096,6096,6105,6105,6112,6122,6144,6152,6160,6192,6208,6224,6224,6232,6264,6272,6280,6280,6296,6305,6328,6344,6344,6360,6360,6368,6392,6408,6416,6432,6448,6464,6475,6480,6496,6512,6536,6544,6560,6568,6584,6584,6608,6616,6624,6632,6641,6641,6657,6664,6680,6696,6705,6712,6728,6744,6744,6752,6784,6800,6809,6832,6848,6872,6872,6872,6896,6896,6912,6921,6952,6968,6984,7008,7014,7016,7056,7152,7160,7184,7208,7248,7280,7296,7344,7384,7400,7408,7416,7448,7472,7480,7512,7536,7544,7576,7600,7600,7608,7616,7624,7640" d="m224.01137,291.09091c0,-1 0,-1.79999 0,-2.70001c0,-0.89999 -0.00226,-1.79999 0,-2.69998c0.00226,-0.89551 0.37598,-1.62848 1.02533,-2.17468c0.63556,-0.53461 1.3835,-0.85214 2.07451,-1.52515c0.62289,-0.60666 1.315,-1.00797 1.95284,-1.54752c0.58603,-0.49573 1.48755,-0.78766 2.24283,-1.29999c0.72752,-0.49353 0.88499,-1.51062 1.7045,-1.88602c0.74269,-0.34021 1.7,-0.16666 2.60001,-0.16666c0.89999,0 1.79999,0 2.7,0c0.90134,0 1.58533,0 2.51466,0c1.01601,0 1.832,0 2.838,0c0.69467,0 1.722,0 2.66867,0c0.67867,0 1.65717,0 2.67867,0c0.8,0 1.70001,-0.00528 2.564,0c0.87206,0.00534 1.65601,0.49771 2.436,0.83334c0.71129,0.30609 1.87183,0.04688 2.51601,0.33731c0.82257,0.37088 1.36548,1.16623 2.048,1.84402c0.56723,0.56329 0.99042,1.40295 1.6575,1.86383c0.72952,0.50403 1.73575,0.4035 1.77847,1.2215c0.04694,0.89877 -0.39294,1.83035 0.08536,2.61465c0.49008,0.80362 0.91464,1.38535 0.91464,2.28534c0,0.79999 -0.21317,1.72443 0,2.64282c0.18103,0.77997 0.89703,1.51517 0.97919,2.35718c0.09503,0.97409 0.02081,1.6955 0.02081,2.60001c0,0.89999 0,1.79999 0,2.69998c0,0.90002 0.31732,1.86917 -0.03598,2.72534c-0.30344,0.73532 -1.01407,1.40561 -1.53867,2c-0.56787,0.6434 -1.23807,1.14572 -1.42535,1.97467c-0.19965,0.88373 -1.15347,0.8186 -2,1.16666c-0.67105,0.27591 -1.51379,0.60986 -2.29547,1.19052c-0.67282,0.49979 -0.85883,1.55908 -1.70451,1.64282c-0.79611,0.07883 -1.7,0 -2.64284,0c-0.87799,0 -1.75716,0 -2.65717,0c-0.89999,0 -1.8,0 -2.7,0c-0.8,0 -1.7,0 -2.60001,0c-0.89999,0 -1.87917,0.0007 -2.75716,0c-0.84418,-0.00067 -1.80876,-0.16861 -2.47884,-0.42532c-0.7645,-0.29291 -1.75818,-0.54221 -2.50684,-0.57019c-1.02046,-0.03815 -2.00734,0.06857 -2.63184,-0.42981c-0.60796,-0.4852 -1.51611,-0.43677 -2.38249,-0.57916c-0.87497,-0.1438 -1.25125,-0.99353 -1.70001,-1.64285c-0.53094,-0.76825 -0.62103,-1.49057 -1.1095,-2.186c-0.50232,-0.71518 -0.83333,-1.26648 -0.83333,-2.19199c0,-0.776 -0.0545,-1.67618 -0.5,-2.47467c-0.44466,-0.797 -1.18295,-1.31775 -1.48933,-2.11066c-0.32057,-0.82962 -0.01067,-1.78934 -0.01067,-2.68933c0,-0.90002 0.3284,-1.98434 -0.22133,-2.57852c-0.56384,-0.60947 -0.7533,-1.12189 -0.77867,-1.92148c-0.02859,-0.9014 -0.5,-1.70001 -0.94284,-2.5l-0.05716,-0.90002" id="svg_3" stroke-width="2" stroke="#000" fill="none"/>
  <path t="8345,8456,8472,8488,8504,8512,8536,8536,8560,8568,8624,8640,8656,8664,8680,8688,8696,8704,8712,8720,8728,8752,8760,8769,8785,8808,8824,8896,8896,8936,8944,8984,8992,9001,9016,9032,9064,9064,9073,9096,9112,9128,9152,9168,9176,9208,9216,9232,9248,9256,9256,9272,9280,9296,9312,9344,9368,9384,9384,9416,9432,9448,9448,9448,9456,9464,9464,9472,9488,9504,9512" d="m230.01137,284.09091c-1.7,0.05716 -2.6748,0.43384 -2.94284,1.29999c-0.26662,0.86154 -0.05716,1.80002 -0.05716,2.70001c0,0.79999 0,1.70001 0,2.64282c0,0.87802 -0.09401,1.80426 0.35266,2.65717c0.39395,0.75223 0.93259,1.37842 1.56334,1.98401c0.57286,0.54999 0.79185,1.29074 1.09467,2.10535c0.27266,0.73349 1.24352,0.97949 1.82266,1.61066c0.5132,0.5593 1.09843,0.60706 1.88133,1.08533c0.80325,0.49072 1.38535,0.91467 2.28534,0.91467c0.8,0 1.78116,0.3656 2.564,0c0.61543,-0.28741 0.32503,-1.51627 0.95683,-2c0.67732,-0.51859 1.41829,-1.09387 1.47917,-2c0.05363,-0.79819 0,-1.71466 0,-2.61066c0,-0.88934 0.13574,-1.79968 0,-2.68484c-0.11195,-0.73007 -0.9707,-1.06039 -1,-2.00449c-0.02786,-0.89825 -0.44746,-1.45084 -0.97467,-2.13602c-0.50296,-0.65366 -0.75058,-1.45224 -1.52533,-2.04315c-0.73393,-0.55978 -1.30875,-1.18701 -2.02083,-1.5c-0.80537,-0.35397 -1.79301,-0.36328 -2.47917,-1.02084c-0.57587,-0.55188 -1.28868,-0.9231 -2.20134,-1.00134c-0.9758,-0.08368 -1.60571,-0.47195 -2.31467,-0.71466c-0.96367,-0.3299 -1.96799,-0.284 -2.65866,-0.284c-1.06816,0 -1.92534,0 -2.82533,0l-0.916,0" id="svg_4" stroke-width="2" stroke="#000" fill="none"/>
  <path t="10193,10297,10305,10313,10321,10329,10345,10353,10361,10385,10409,10425,10433,10449,10465,10473,10489,10505,10521,10521,10553,10561,10593,10609,10617,10625,10649,10681,10681,10697,10753,10790,10825,10841,10873,10881,10897,10977,11009,11033,11089,11105,11105,11121,11145,11161,11177,11193,11217,11217,11233,11249,11281,11297,11321,11329,11329" d="m250.01137,280.09091c-1.83333,0.16666 -2.50719,0.60901 -2.94284,1.35718c-0.42445,0.72894 -0.41928,1.57925 -1.05716,2.14282c-0.58348,0.5155 -0.99774,1.2045 -1,2.10001c-0.00226,0.89999 0,1.79999 0,2.69998c0,0.90002 -0.24423,1.93213 0.284,2.616c0.48471,0.6275 0.56111,1.44547 0.9375,2.18402c0.34975,0.68628 1.15102,1.33359 1.97717,1.81598c0.69623,0.40652 1.20988,1.07767 1.80133,1.58401c0.59444,0.50891 1.56448,0.47073 2.44267,0.50015c0.85341,0.02859 1.48445,0.77478 2.26183,0.99536c0.82686,0.23465 1.38823,-0.42886 1.87016,-1.02084c0.50443,-0.61963 0.42532,-1.57468 0.42532,-2.47467c0,-0.89999 0,-1.79999 0,-2.69867c0,-0.96799 0,-1.80133 0,-2.60132c0,-0.90002 0.00531,-1.80005 0,-2.70001c-0.00534,-0.90005 -0.46191,-1.73639 -0.83331,-2.5c-0.36667,-0.75391 -0.55673,-1.56808 -1.14134,-2.38934c-0.46617,-0.65488 -1.42532,-0.62134 -2.224,-0.896l-0.63466,-0.71466l-0.16534,-0.79999" id="svg_5" stroke-width="2" stroke="#000" fill="none"/>
  <path t="15273,15328,15369,15377,15425,15433,15473,15504,15521,15553,15593,15609,15648,15664,15680,15697,15705,15720,15760,15792,15800,15857,15865,15872,15888,15905,15921,15937,15938" d="m263.01135,294.09091c0.61069,-1.60001 1.14557,-2.49652 1.91602,-2.91467c0.71893,-0.3902 0.87427,-0.92523 1.14117,-1.78534c0.26871,-0.86594 1.28192,-1.1907 1.91748,-1.72531c0.64935,-0.5462 1.05765,-1.29047 1.45068,-1.97467c0.46689,-0.81281 0.9368,-1.53644 1.57465,-2.10001c0.5835,-0.51553 0.52756,-1.37903 1.05719,-2.14734c0.48386,-0.7019 1.55356,-0.3432 2.44281,-0.35266c0.97934,-0.01044 1.1452,-0.69547 1.52084,-1.47916c0.3371,-0.70328 1.47916,-0.52084 2.3685,-0.53152l0.60001,-0.564" id="svg_6" stroke-width="2" stroke="#000" fill="none"/>
  <path t="16753,16864,16872,16888,16920,16952,16961,16968,17000,17008,17032,17080,17080,17096,17104,17120,17152,17160,17200,17225,17241,17248,17265,17265,17281,17281" d="m223.01137,294.09091c-1,-1.61066 -0.88148,-2.71277 -1.61067,-2.98935c-0.83157,-0.31543 -1.77327,-0.02814 -2.38933,-0.51065c-0.6418,-0.50266 -1.12001,-0.98334 -1.64734,-1.55267c-0.63715,-0.6879 -1.32439,-1.15903 -1.95267,-1.522c-0.84566,-0.48856 -1.53047,-0.88196 -2.116,-1.50934c-0.64252,-0.68848 -1.02838,-1.23151 -1.28416,-2.13733c-0.21877,-0.77469 -1.37898,-0.53229 -1.94716,-1.13583c-0.62193,-0.66064 -0.93935,-1.35748 -1.88867,-1.61749l-0.76534,-0.10934" id="svg_7" stroke-width="2" stroke="#000" fill="none"/>
  <path t="21593,21768,21768,21772,21800,21824,21848,21856,21864,21888,21896,21912,21921,21944,21954,21968,21976,21984,21992,22000,22016,22040,22072,22080,22096,22120,22144,22144,22152,22168,22184,22192,22208,22232,22272,22296,22592,22632,22664,22688,22688,22697,22704,22720,22728,22744,22760,22760,22776,22802,22840,22880,22880,22888,22912,22936,22992,23008,23032,23152,23160,23176,23192,23192,23224,23224" d="m201.01137,182.09091c1,0 1.8,0 2.71466,0c0.89601,0 1.78534,-0.00226 2.68533,0c0.89552,0.00226 1.42154,0.67336 2.21068,0.98933c0.80679,0.32304 1.0345,0.70615 1.41016,1.48984c0.33708,0.70325 1.74783,0.46268 1.97467,1.22533c0.25531,0.85835 -0.28459,1.84747 0.01517,2.68483c0.26375,0.73676 0.98708,1.258 0.98933,2.1315c0.00226,0.87917 0,1.77917 0,2.67917c0,0.90001 0,1.8 0,2.60001c0,0.89999 0.16609,1.81938 -0.02083,2.7c-0.17897,0.84315 -0.97383,1.52527 -0.97917,2.30133c-0.00618,0.89865 0.46725,1.93968 -0.036,2.76266c-0.3997,0.65366 -1.35631,-0.00819 -2.06401,-0.66383c-0.59363,-0.54996 -1.34175,-1.0374 -1.98399,-1.61617c-0.64957,-0.58537 -1.20532,-1.16682 -2.01601,-1.28416c-0.90582,-0.13112 -1.69768,-0.65544 -1.87917,-1.49983c-0.18692,-0.86971 0.099,-1.90916 -0.30482,-2.7c-0.33623,-0.65848 -0.30121,-1.62431 -0.77318,-2.44284c-0.39606,-0.68689 -1.06435,-1.13663 -1.51749,-1.95717c-0.42548,-0.77045 -0.42534,-1.75716 -0.42534,-2.59999c0,-0.90001 0,-1.8 0,-2.55717l0,-0.89549l0,-0.86334" id="svg_8" stroke-width="2" stroke="#000" fill="none"/>
  <path t="24296,24384,24408,24424,24440,24496,24512,24528,24536,24544,24553,24560,24560,24569,24585,24592,24592,24601,24601,24617,24617,24624,24634,24648,24648,24664,24664,24680,24689,24704,24720,24738,24753,24770,24800,24800,24856,24862,25112,25120,25128,25136,25160,25192,25192,25232,25248,25256,25272,25280,25296,25296,25304,25312,25320,25328,25336,25344,25352,25360,25368,25376,25384,25392,25400,25400,25424,25433,25496,25512,25536,25536,25552,25576" d="m277.01135,180.09091c-1.69998,0 -2.59998,0 -3.5,0c-0.97916,0 -1.85715,0 -2.69998,0c-0.89999,0 -2.03854,-0.27438 -2.67868,0.22133c-0.63641,0.49284 -1.16364,1.09387 -1.92133,1.49467c-0.8494,0.44933 -1.60883,0.71083 -2.29999,1.384c-0.60785,0.59203 -1.16849,1.24516 -1.78534,1.7c-0.89294,0.65843 -1.64993,0.85628 -2.59384,1.2c-0.84113,0.30629 -1.55344,0.97055 -2.02084,1.52083c-0.64755,0.76236 -0.86499,1.58435 -1.59982,2.23634c-0.67819,0.60173 -1.46902,0.91945 -1.86417,1.67883c-0.39917,0.76711 -0.036,1.76399 -0.036,2.664c0,0.89999 0,1.7 0,2.59999c0,0.94284 0.53369,1.16046 1.39999,1.31067c0.83217,0.14429 1.07668,1.2487 1.76668,1.82266c0.65332,0.54346 1.63333,0.16667 2.53333,0.16667c0.89999,0 1.77917,0.00249 2.73599,0c0.86401,-0.00226 1.71588,-0.36023 2.36401,-0.716c0.79559,-0.43674 1.37729,-0.97772 2.19998,-1.284c0.89499,-0.33318 0.85126,-1.28969 1.35269,-1.94733c0.51608,-0.67683 1.12051,-1.16588 1.73132,-1.76868c0.55356,-0.54633 0.77795,-1.35161 1.26868,-2.17867c0.44754,-0.75427 0.50415,-1.48888 1,-2.10983c0.50659,-0.6344 0.55188,-1.44003 0.93134,-2.1955c0.43558,-0.86719 0.76865,-1.5 1.21597,-2.3l0.44284,-0.8" id="svg_9" stroke-width="2" stroke="#000" fill="none"/>
  <path t="26209,26256,26280,26296,26296,26320,26336,26408,26408,26424,26456,26472,26488,26504,26512,26536,26552,26584,26608,26608,26648,26672,26696" d="m259.01135,189.09091c0.05719,1.7 0.51556,2.50514 1.20001,3.2c0.49622,0.50375 1.01944,1.4725 1.884,1.79868c0.85703,0.32332 1.71643,0.02858 2.616,0.00133c0.94415,-0.02859 1.29773,-0.70448 1.29999,-1.60001c0.00226,-0.89999 0,-1.87917 0,-2.75716c0,-0.84283 0,-1.74284 0,-2.64284c0,-0.8 0,-1.7 0,-2.60001l-0.03598,-0.96399" id="svg_10" stroke-width="2" stroke="#000" fill="none"/>
  <path t="27561,27689,27721,27721,27729,27745,27761,27801,27809,27849" d="m209.01137,186.09091c-1.83333,0.16667 -2.00191,1 -2,1.75717c0.00226,0.89101 0.16667,1.9095 0.87849,2.243l0.12151,0.70433l0.05716,0.93834l0.77617,0.52383" id="svg_11" stroke-width="2" stroke="#000" fill="none"/>
  <path t="31841,31920,31929,31961,31969,31985,32009,32033,32041,32041,32057,32073,32074,32096,32128,32137,32153,32169,32169,32177,32201,32217,32226,32233,32242,32257,32280,32289,32297,32305,32313,32313,32329,32329,32337,32337,32345,32369,32377,32385,32385,32393,32401,32409,32409,32417,32433,32442,32457,32465,32488,32489,32497,32497,32497,32505,32505,32513,32513,32529,32529,32561,32624,32632,32657,32673,32688,32704,32729" d="m267.01135,284.09091c0,-1.70001 0,-2.64282 0,-3.52084c0,-0.87915 0,-1.77914 0,-2.67917c0,-0.89999 0,-1.79999 0,-2.59998c0,-0.90002 0,-1.80002 0,-2.76401c0,-0.936 0,-1.79318 0,-2.63602c0,-0.89999 0,-1.79999 0,-2.59998c0,-0.90002 0.00955,-1.80008 0,-2.70001c-0.01041,-0.97931 -0.77484,-1.43658 -0.99548,-2.2045c-0.25912,-0.90186 -0.00452,-1.81635 -0.00452,-2.6955c0,-0.89999 0.04852,-1.80133 -0.00015,-2.70016c-0.04272,-0.78864 -0.45663,-1.72453 -0.64716,-2.30434c-0.32138,-0.97804 -0.35043,-1.93832 -0.35269,-2.83383c-0.00235,-0.92834 0.04779,-1.86295 0,-2.76167c-0.04272,-0.80341 -0.60956,-1.35094 -1.38931,-1.98534c-0.60931,-0.49573 -0.60843,-1.3665 -0.61069,-2.37866c-0.00186,-0.836 0.22601,-1.85445 -0.284,-2.552c-0.50143,-0.68585 -0.716,-1.41733 -0.716,-2.12567c0,-0.95833 0.0018,-1.75833 0,-2.55833c-0.00226,-1 0.0304,-1.82411 -0.28531,-2.79866c-0.25629,-0.79114 -0.99658,-1.66092 -1.35751,-2.29683c-0.46155,-0.81322 -0.04688,-1.7961 -0.36783,-2.69383c-0.26346,-0.73688 -0.97867,-1.22134 -0.98935,-2.11067l-0.01065,-0.89999l-0.27335,-0.8" id="svg_12" stroke-width="2" stroke="#000" fill="none"/>
  <path t="33825,33897,33905,33912,33921,33929,33936,33945,33953,33953,33969,33977,34000,34016,34024,34040,34049,34056,34057,34074,34081,34090,34097,34112,34112,34121,34121,34129,34129,34137,34137,34169,34169,34184,34209,34217,34217,34232,34240,34257,34257,34265,34273,34273,34280,34296,34305,34305,34321,34336,34336,34345,34353,34353,34369,34377,34384,34400,34417,34424,34433,34440,34457,34465,34473,34505,34521,34569,34577,34592" d="m223.01137,282.09091c0,-1.70001 0,-2.60001 0,-3.5c0,-0.89999 0,-1.79999 0,-2.70001c0,-0.89999 0,-1.79999 0,-2.59998c0,-0.90002 0,-1.84283 0,-2.72086c0,-0.87915 0,-1.77914 0,-2.67917c0,-0.89999 0,-1.79999 0,-2.59998c0,-0.90002 0,-1.80002 0,-2.70001c0,-0.97916 0,-1.94284 0,-2.68533c0,-0.93066 0,-1.69867 0,-2.65067c0,-0.76535 0,-1.76401 0,-2.564c0,-0.99867 0,-1.94284 0,-2.84283c0,-0.85718 0,-1.75717 0,-2.55717c0,-0.89999 0,-1.836 0,-2.68399c0,-0.86334 0,-1.89067 0,-2.83734c0,-0.67867 0,-1.657 0,-2.63049c0,-0.75801 -0.11755,-1.57507 0.02083,-2.54817c0.1434,-1.00844 0.67416,-1.6395 0.89384,-2.61467c0.19547,-0.86769 -0.11063,-1.71977 0.14249,-2.58533c0.25664,-0.87764 0.65111,-1.7426 1.16417,-2.30017c0.54507,-0.59236 0.62888,-1.21242 0.77884,-2.09967c0.144,-0.85202 0.98183,-1.3356 0.99983,-2.20016c0.01874,-0.8998 0,-1.8 0,-2.7l0.16667,-0.83333l0.74933,-0.45067l0.43666,-0.66333" id="svg_13" stroke-width="2" stroke="#000" fill="none"/>
  <path t="39424,39480,39489,39496,39506,39512,39512,39524,39524,39528,39528,39528,39539,39539,39544,39544,39556,39576,39587,39587,39601,39608,39617,39634,39634,39640,39640,39657,39657,39672,39680,39690,39697,39706,39706,39712,39720,39728,39744,39744,39754,39768,39768,39776,39785,39793,39806,39806,39809,39809,39817,39825,39840,39841,39851,39864,39864,39872,39872,39880,39880,39896,39912,39928,39944,39960,39962,39984,40000,40088,40096,40104,40112,40112,40120,40128,40128,40136,40144,40152,40160,40160,40168,40176,40184,40208,40216,40224,40233,40233,40240,40250,40250,40256,40266,40272,40273,40280,40288,40289,40296,40305,40321,40336,40336,40344,40352,40376,40384,40384,40392,40408,40416,40448,40472,40480,40488,40504,40504,40512,40528,40537,40537" d="m199.01137,179.09091c-1.7,0 -2.62117,-0.07045 -3.084,-0.80133c-0.43756,-0.69099 -1.26424,-0.97983 -2.09067,-1.26001c-0.8428,-0.28574 -1.25212,-1.02554 -1.992,-1.77199c-0.59441,-0.59969 -1.35909,-1.00423 -1.78267,-1.992c-0.28552,-0.66582 -0.70871,-1.51474 -1.56799,-1.888c-0.80989,-0.35179 -1.87579,-0.08459 -2.68134,-0.57201c-0.62433,-0.37776 -0.68159,-1.54889 -1.32216,-2.19383c-0.6395,-0.64386 -1.32971,-0.96979 -1.5045,-1.70616c-0.22308,-0.93983 -0.78947,-1.67805 -0.93867,-2.64c-0.10599,-0.68336 0.02295,-1.81764 -0.46133,-2.564c-0.47755,-0.73596 -0.57466,-1.472 -0.57466,-2.444c0,-0.86217 0,-1.76668 0,-2.66667c0,-0.91068 0,-1.82133 0,-2.67467c0,-0.94 0,-1.82533 0,-2.62534c0,-0.89999 0.10223,-1.80803 -0.02083,-2.72083c-0.11026,-0.81784 -0.6422,-1.62578 -0.85767,-2.45767c-0.20784,-0.80244 -0.12151,-1.7215 -0.12151,-2.6575c0,-0.84799 0,-1.71133 0,-2.73866c0,-0.94684 0,-1.64616 0,-2.62534c0,-0.78934 0,-1.83333 0,-2.58934c0,-0.91066 -0.09401,-1.85776 0.35266,-2.71066c0.39395,-0.75223 0.21477,-1.69905 0.64734,-2.416c0.37802,-0.62654 1.22484,-0.82758 1.87866,-1.50533c0.55807,-0.57851 1.32133,-0.77867 2.2215,-0.77867c0.78517,0 1.72517,0 2.73317,0c0.756,0 1.70142,-0.0529 2.46667,0.35266c0.84589,0.4483 1.73643,0.47917 2.5,0.73267c0.77217,0.25635 1.49837,0.85837 2.2,1.41467c0.61319,0.48618 1.51311,0.35725 2.39999,0.51067c0.83347,0.14418 1.40039,0.79028 2.10001,1.48933c0.60016,0.59969 0.98259,1.4566 1.56133,2.064c0.62033,0.65103 1.7758,0.59543 2.41785,0.936c0.82582,0.43806 1.67271,0.86023 2.32083,1.216c0.79559,0.43674 1.17397,1.17137 1.74167,1.784c0.66861,0.72151 1.66095,0.78899 2.21533,1.59984c0.50832,0.74347 0.98637,1.10872 1.40967,1.90016c0.40047,0.74878 0.82291,1.49982 0.83333,2.39999c0.01036,0.89545 0,1.8215 0,2.70001c0,0.89999 0.39203,1.52644 0.83333,2.23332c0.43996,0.70473 0.16667,1.772 0.16667,2.528l0,0.972l0,0.86217" id="svg_14" stroke-width="2" stroke="#000" fill="none"/>
  <path t="40929,41008,41024,41048,41056,41072,41072,41082,41088,41096,41104,41112,41128,41128,41144,41176,41184,41200,41208,41216,41232,41232,41248,41248,41256,41256,41265,41288,41328,41336,41352,41360,41368,41368,41376,41376,41384,41392,41400,41416,41416,41432,41456,41480,41496,41504,41504,41512,41520,41528,41536,41544,41552,41560,41576,41576,41600,41624,41624,41632,41648,41664,41672,41681,41698,41698,41704,41712,41752,41768,41776,41784,41792,41792,41800,41800,41808,41816,41816,41824,41824,41832,41832,41832,41840,41857" d="m213.01137,156.09091c0.05716,-1.64734 0.5609,-2.20735 1.22133,-2.87866c0.60979,-0.61983 0.95567,-1.45824 1.58,-1.836c0.80554,-0.48741 1.92142,-0.13936 2.588,-0.72134c0.69818,-0.60957 0.94177,-1.37827 1.71068,-1.78532c0.75754,-0.40105 1.26607,-1.0331 1.89999,-1.612c0.5605,-0.51186 1.32869,-0.90118 1.916,-1.45067c0.58084,-0.54343 1.4055,-0.716 2.10483,-0.716c0.97917,0 1.95834,0 2.8125,0c0.86217,0 1.76668,0 2.64584,0c0.95683,0 1.82083,0 2.72083,0c0.90001,0 1.8,0 2.55717,0c0.89549,0 1.75883,0 2.722,0c0.92082,0 1.89241,-0.22646 2.6875,0.16667c0.64659,0.3197 1.43329,0.82799 2.33333,0.83333c0.89998,0.00533 1.85664,-0.13655 2.7,0.284c0.66165,0.32993 1.52687,0.53003 2.40001,0.752c0.86227,0.21921 1.59564,0.91599 2.42082,0.964c0.82851,0.04822 1.56952,0.46011 2.422,0.87849c0.67395,0.33076 1.67184,0.12151 2.55716,0.12151c0.80002,0 1.7265,-0.18375 2.60001,0.036c0.86285,0.21706 1.63025,0.74393 2.50983,1.02116c0.79816,0.25157 1.38275,0.78722 2.47952,0.93217c0.80374,0.10623 1.73233,-0.18422 2.60931,0.01199c0.80707,0.18057 1.40329,0.8597 2.10135,1.36034c0.58914,0.42255 1.00916,1.52264 1.5,2.069c0.603,0.67119 1.4007,1.13823 1.79999,1.75467c0.60239,0.92999 1.1517,1.5728 1.72134,2.13583c0.67227,0.66451 1.19467,1.1095 2.15784,1.658l0.81631,0.37349" id="svg_15" stroke-width="2" stroke="#000" fill="none"/>
  <path t="42385,42446,42449,42472,42488,42488,42497,42504,42528,42528,42536,42544,42552,42560,42560,42584,42592,42593,42608,42617,42624,42632,42640,42648,42656,42656,42665,42665,42680,42688,42720,42728,42728,42736,42760,42768,42784,42784,42848,42857,42865,42872,42883,42888,42888,42897,42905,42905,42913,42921,42930,42936,42944,42952,42960,42968,42976,42976,42992,43000,43008,43017,43017,43024,43032,43040,43040,43050,43050,43056,43064,43072,43080,43088,43088,43104,43104,43120,43129,43129,43136,43160,43160,43176,43176,43184,43184,43200,43208,43216,43224,43232,43249,43267,43272,43280,43280,43288,43288,43296,43304,43313,43320,43320,43336,43352,43352,43360,43368,43376,43424,43448,43472,43496,43520,43544,43560,43592" d="m272.01135,153.09091c0,-1 0,-1.91467 0,-2.76167c0,-0.89099 -0.37283,-1.65755 0.02084,-2.69666c0.26178,-0.69098 0.9494,-1.25008 0.97784,-2.05901c0.03766,-1.07135 -0.14984,-1.9631 0.35849,-2.78267c0.50095,-0.80763 1.31226,-1.20982 1.64417,-1.98534c0.332,-0.77579 0.85049,-1.48328 0.99417,-2.41466c0.13721,-0.8895 -0.29312,-1.85509 0.01517,-2.68933c0.27582,-0.7464 1.30316,-0.95309 1.98932,-1.61067c0.51053,-0.48926 1.1955,-1.20454 1.80002,-1.8c0.69482,-0.68443 1.39584,-1.15729 2.36667,-1.2c0.83252,-0.03662 1.7637,0.39296 2.548,-0.08533c0.80365,-0.49007 1.38531,-0.91467 2.28531,-0.91467c0.80002,0 1.70007,-0.01067 2.60001,0c0.87936,0.01042 1.39368,0.81093 2.16168,0.9955c0.86206,0.20717 1.81781,0.08734 2.177,0.86583c0.41827,0.90654 0.80591,1.66652 1.02533,2.53867c0.21872,0.86934 0.69949,1.40994 1.01517,2.12083c0.38931,0.87669 0.76501,1.42525 1.01633,2.18367c0.28271,0.85315 0.74872,1.53218 1.29916,1.93834c0.76773,0.56648 0.70532,1.55716 0.70532,2.45717c0,0.89999 0,1.7 0,2.59999c0,0.82083 0,1.78534 0,2.51067c0,0.989 -0.29947,1.98735 0.05719,2.83751c0.34146,0.81392 0.9324,1.45164 0.94281,2.36249c0.01041,0.91061 0,1.76401 0,2.70534c0,0.76801 0,1.70934 0,2.71733c0,0.756 0.09979,1.67435 -0.22131,2.60966c-0.21442,0.62459 -0.66339,1.5502 -0.74268,2.34634c-0.10352,1.03947 -0.23898,1.68149 -0.86932,2.37733c-0.54437,0.60094 -0.95596,1.21555 -1.168,2.032c-0.20789,0.80045 -0.84879,1.33636 -1.00934,2.20132c-0.15411,0.8304 -1.05936,1.29807 -1.68933,1.70984c-0.70761,0.46251 -1.19669,1.21355 -1.86401,1.90483c-0.58713,0.6082 -0.86279,1.39417 -1.53598,2.08534c-0.59204,0.60786 -1.30936,1.29079 -1.90002,1.89999c-0.57321,0.59122 -0.85397,1.70244 -1.52081,1.97917c-0.88535,0.36742 -1.87372,-0.23697 -2.77466,0.02533c-0.75845,0.22083 -1.06168,0.9955 -1.90317,0.9955l-0.80136,0.16667l-0.28531,0.748l-0.91467,0.08665" id="svg_16" stroke-width="2" stroke="#000" fill="none"/>
  <path t="48338,48385,48393,48409,48417,48426,48433,48441,48457,48474,48505,48505,48529,48537,48537,48545,48553,48569,48577,48585,48593,48593,48601,48610,48617,48622,48633,48633,48641,48649,48657,48665,48674,48674,48691,48697,48705,48713,48721,48729,48729,48737,48745,48753,48769,48769,48777,48785,48785,48793,48793,48801,48815,48815,48815,48817,48817,48830,48833,48833,48841,48841,48841,48849,48849,48857,48858,48865,48865,48881,48881,48890,48890,48891,48898,48898,48905,48905,48913,48913,48921,48921,48921,48929,48937,48937,48937,48945,48945,48953,48953,48961,48961,48961,48961,48969,48977,48977,48985,48985,48996,48996,48996,49001,49001,49009,49009,49017,49025,49033,49041,49041,49049,49057,49057,49065,49074,49081,49090,49098,49098,49107,49107,49113,49121,49121,49129,49137,49137,49147,49147,49153,49169,49185,49185,49193,49201,49201,49209,49217,49217,49225,49225,49233,49242,49249,49249,49257,49257,49257,49265,49265,49265,49273,49273,49281,49281,49290,49290,49297,49297,49307,49307,49307,49313,49314,49314,49321,49321,49321,49329,49329,49329,49337,49337,49337,49345,49345,49353,49353,49353,49361,49361,49369,49369,49369,49377,49385,49385,49393,49401,49401,49417,49417,49417,49425,49425,49433,49441,49449,49458,49465,49465,49481,49490,49490,49497,49513,49521,49521,49529,49537,49537,49561,49569,49577,49585,49593,49593,49601,49601,49609,49617,49617,49625,49625,49642,49642,49649,49649,49649,49653,49658,49665,49673,49673,49681,49689,49706,49706,49713,49729,49729,49737,49737,49745,49745,49753,49761,49769,49777,49785,49793,49793,49810,49817,49817,49825,49843,49843,49849,49857,49857,49866,49866,49873,49881,49881,49890,49897,49906,49913,49923,49937,49937,49945,49953,49961,49961,49969,49977,49977,49977,49985,49993,49993,50001,50001,50009,50025,50033,50041,50041,50049,50059,50059,50065,50081,50089,50106,50123,50137,50137,50153,50169,50169,50177,50177,50185,50185,50193,50193,50193,50201,50201,50217,50226,50241,50258,50258,50265" d="m299.01135,140.09091c1.70001,-0.05717 2.48035,-0.49812 3.28403,-1.00133c0.69165,-0.43306 0.9028,-1.3297 1.71597,-1.832c0.76361,-0.47169 1.21527,-1.10577 2.10001,-1.16667c0.89786,-0.0618 1.70001,0.00185 2.53601,0c1.01666,-0.00226 1.7901,0.11115 2.71732,-0.42534c0.7594,-0.43938 1.25418,-1.05733 1.93201,-1.48933c0.77478,-0.49379 1.7655,-0.38617 2.41467,-0.73267c0.84937,-0.45335 1.79999,-0.35266 2.70001,-0.35266c0.89548,0 1.69794,-0.25697 2.3045,-0.64734c0.78958,-0.50812 1.33945,-1.20694 2.09683,-1.35133c0.9389,-0.17899 1.84683,0.00282 2.62933,-0.00133c1.00534,-0.00534 1.71356,-0.37566 2.56931,-0.83333c0.79144,-0.42329 1.327,-0.90028 2,-1.5c0.62216,-0.55441 1.30652,-1.179 1.83334,-1.83334c0.5452,-0.67713 1.2059,-0.65688 1.96667,-0.91867c0.77954,-0.26824 1.32156,-1.24103 2.08533,-1.62933c0.71475,-0.3634 1.70395,-0.23 2.48935,-0.732c0.90186,-0.57645 1.23645,-1.24957 1.97266,-1.8435c0.73074,-0.58955 1.53986,-0.64165 2.478,-0.7205c1.01642,-0.08543 1.66034,-0.59299 2.508,-0.82267c0.90454,-0.24509 1.71854,-0.15652 2.745,-0.16683c0.67508,-0.00678 1.80487,-0.08781 2.40085,-0.52067c0.80212,-0.58258 1.25153,-1.22087 2.17801,-1.77917c0.53922,-0.32494 1.54282,-0.8 2.14282,-1.1c0.79999,-0.4 1.77817,-0.93553 2.54282,-1.24284c0.8869,-0.35643 1.56906,-0.48866 2.31436,-1.06699c0.57651,-0.44734 1.53522,-1.28032 2.13214,-1.65417c0.71667,-0.44883 1.52991,-1.14344 2.37735,-1.46934c0.64066,-0.24637 1.49313,-0.2401 2.42883,-0.8765c0.61282,-0.4168 1.36319,-1.2906 1.92532,-1.79017c0.78558,-0.69817 1.48529,-1.14552 1.95834,-1.5c0.67514,-0.50591 1.32108,-1.52116 2.09015,-1.91734c0.71637,-0.36903 1.53766,-0.65958 2.056,-1.268c0.68439,-0.80334 1.38901,-1.30595 1.97601,-1.61333c0.98813,-0.51745 1.78174,-0.912 2.59833,-1.07983c0.9158,-0.18822 1.84894,-0.17823 2.41101,-0.73216c0.69434,-0.6843 1.55905,-1.20937 2.20398,-1.36401c0.94757,-0.22721 1.65976,-0.795 2.33469,-1.05067c0.89401,-0.33866 1.30017,-1.13492 1.96048,-1.62199c0.65967,-0.4866 1.78091,-0.4336 2.47952,-0.96333c0.67551,-0.5122 1.18082,-1.24049 2.16782,-1.38483c0.88611,-0.12958 1.59686,0.10239 2.61752,-0.01517c0.96344,-0.11097 1.58917,-0.60088 2.60382,-0.86784c0.80164,-0.21092 1.7215,-0.1215 2.54233,-0.1215c0.96317,0 1.82651,0 2.72202,0c0.9585,0 1.64249,0 2.58249,0c1.008,0 1.79999,0 2.82733,0c0.69467,0 1.71133,0 2.65182,0c0.86218,0 1.71634,0 2.6955,0c0.81067,0 1.45718,0 2.68402,0c0.81598,0 1.36331,0 2.62933,0c0.84,0 1.80399,0 2.49649,0c0.95816,0 1.69016,0 2.85684,0c0.83331,0 1.66666,0 2.59467,0c0.7905,0 1.81732,0 2.51334,0c0.90933,0 1.91064,0 2.74615,0c0.88049,0 1.77899,0 2.66852,0c0.85349,0 1.88916,0 2.57465,0c0.83469,0 1.84052,0 2.69318,0c0.96417,0 1.76816,0 2.59015,0c1.03119,0 1.93185,0 2.95267,0c0.78934,0 1.51468,0 2.5,0c0.98401,0 1.84735,0 2.74734,0c0.91934,0 1.7735,0 2.75266,0c0.80002,0 1.60001,0 2.59552,0c0.74731,0 1.76849,0 2.7045,0c0.89999,0 1.79999,0 2.69998,0c0.80002,0 1.63602,0 2.65268,0c0.69467,0 1.71133,0 2.64734,0c0.90134,0 1.58847,-0.06675 2.52533,0.01067c1.01654,0.084 1.75082,0.52402 2.52734,0.99384c0.64252,0.38875 1.26416,0.90474 2.05798,1.00616c0.92722,0.11847 1.63596,0.43777 2.56784,1.08933c0.64694,0.45233 1.11398,1.26513 2.02148,1.73334c0.70056,0.36143 1.6337,0.55319 2.29019,0.814c1.02335,0.40656 1.76822,0.28899 2.70981,0.51933c0.81012,0.19818 1.55435,0.5818 2.35333,1.22267c0.70602,0.56631 1.50803,0.61066 2.48001,0.61066c0.75601,0 1.6712,-0.0942 2.64584,0c0.86624,0.08372 1.5997,0.43011 2.27817,1.09983c0.66373,0.65517 1.30304,0.77049 2.22131,1.1215c0.82526,0.31546 1.74429,0.50195 2.45203,0.86267c0.80899,0.41234 1.33591,0.8239 2.38397,0.92667c0.86206,0.08453 1.4552,0.76119 2.18533,1.156c0.65659,0.35503 1.21188,1.27461 2.10001,1.712c0.65445,0.3223 1.50266,0.72932 2.10001,1.32133c0.60269,0.59731 1.29239,1.33908 1.96667,1.8c0.80228,0.54842 1.70721,0.9513 2.29166,1.47916c0.6431,0.58084 0.94571,1.40104 1.34299,2.03817c0.54541,0.8747 0.96576,1.77995 1.48267,2.39867c0.54883,0.65694 0.55695,1.50137 1.15869,2.184c0.45361,0.51461 1.18353,1.28043 1.84265,1.816c0.67511,0.54859 1.3822,0.90649 1.776,1.72c0.34174,0.70601 0.95642,1.36703 1.45599,1.88c0.83081,0.85307 1.42053,1.57736 1.48132,2.36933c0.07196,0.93725 -0.21857,1.66101 0.03735,2.70399c0.21436,0.8734 0.69989,1.56963 1.13068,2.41068c0.34027,0.66432 1.25952,1.21674 1.66669,2c0.38666,0.74385 0.91357,1.5372 1.13062,2.39999c0.21973,0.87352 -0.04608,1.80377 0.03619,2.70001c0.08368,0.91144 0.65479,1.46513 0.97449,2.31065c0.33374,0.88255 0.48853,1.62585 1.12537,2.56801c0.36798,0.54439 1.05328,1.31639 1.37915,2.04216c0.42651,0.94989 0.44415,1.78789 0.6048,2.57918c0.20428,1.00626 0.42285,1.82619 1.13739,2.40016c0.62756,0.50412 0.77863,1.29984 0.77863,2.20117l0,0.68399l0,0.94" id="svg_17" stroke-width="2" stroke="#000" fill="none"/>
  <path t="62369,62433,62441,62441,62449,62449,62458,62458,62465,62465,62465,62475,62481,62481,62489,62489,62497,62497,62497,62505,62505,62513,62521,62529,62529,62545,62553,62553,62561,62561,62577,62577,62593,62593,62601,62601,62609,62625,62633,62642,62642,62650,62666,62666,62675,62694,62697,62721,62721,62729,62729,62737,62753,62753,62761,62769,62780,62780,62785,62785,62793,62793,62801,62801,62801,62817,62817,62825,62825,62834,62834,62842,62849,62850,62859,62859,62865,62875,62875,62881,62881,62889,62897,62905,62905,62913,62921,62929,62937,62937,62945,62953,62961,62961,62969,62978,62985,62985,63001,63017,63017,63034,63034,63057,63065,63089,63090,63097,63137,63169,63193,63273,63289,63313,63321,63329,63337,63346,63346,63353,63353,63369,63377,63377,63381,63393,63401,63410,63427,63433,63443,63443,63449,63457,63465,63465,63474,63481,63491,63491,63497,63505,63513,63593,63601,63617,63617,63625,63625,63641,63649,63657,63669,63669,63674,63681,63691,63691,63697,63697,63713,63714,63716,63716,63721,63721,63729,63729,63737,63737,63748,63748,63761,63769,63769,63781,63785,63809,63817,63825,63833,63842,63850,63857,63857,63866,63874,63874,63881,63881,63897,63913,63921,63937,63953,63953,63969,63977,63977,63985,63996,64001,64009,64027,64042,64042,64057,64057,64066,64097,64105,64122,64129,64137,64161,64161,64177,64177,64196,64196,64210,64227,64241,64257,64265,64282,64290,64297,64321,64345,64361,64377,64393,64411,64413,64414,64425,64449,64473,64505,64521,64529,64529,64537,64553,64553,64563,64569,64578,64585,64594,64601,64633,64642,64649,64649,64668,64674,64681,64697,64697,64706,64706,64713,64729" d="m220.01137,291.09091c-0.99867,0.88666 -1.00172,1.836 -1,2.60132c0.00226,0.99869 -0.01697,1.81854 0.28534,2.79868c0.18997,0.61594 0.72917,1.59302 1.10399,2.38934c0.33855,0.71927 0.54776,1.71964 0.96333,2.51517c0.31723,0.60727 0.59267,1.54651 0.73134,2.38217c0.16635,1.00244 0.39751,1.80835 0.71733,2.54398c0.35591,0.81863 0.96869,1.39844 1.588,2.16934c0.59987,0.7467 0.7348,1.63483 1.32668,2.31467c0.59602,0.6846 1.08278,1.46094 1.26933,2.11066c0.29431,1.02499 1.01112,1.38654 1.68134,2.17468c0.46965,0.55228 0.56708,1.51102 1.03783,2.34732c0.44804,0.79596 1.06647,1.28513 1.68483,2.05267c0.59975,0.74445 0.71689,1.56747 1.46133,2.04666c0.61304,0.39462 0.76419,1.53198 1.31601,2.22c0.44775,0.55826 1.29469,0.65662 2.05466,1.21185c0.65054,0.47528 0.90428,1.15417 1.38934,1.7215c0.63844,0.7467 1.18933,1.19998 1.88933,1.89999c0.7,0.70001 1.27161,1.13608 1.88933,1.89999c0.60225,0.74478 0.69981,1.67126 1.25734,2.20001c0.74744,0.70886 1.58943,0.91272 2.33167,1.50034c0.6357,0.5033 0.91273,1.44095 0.99634,2.16098c0.09161,0.78903 0.29901,2.05554 0.52533,2.69702c0.36208,1.02628 0.45801,1.79547 0.5045,2.69434c0.04478,0.86594 0.4315,1.71133 0.9955,2.34732c0.564,0.63599 0.95288,1.48129 0.9955,2.34732c0.04424,0.89896 0.0045,1.81934 0.0045,2.65268c0,0.97849 0,1.79868 0,2.70001c0,0.93597 0,1.784 0,2.64731c0,0.89551 0,1.85269 0,2.75269c0,0.89999 0,1.69998 0,2.60001c0,0.93597 0,1.784 0,2.64731c0,0.89551 0,1.85269 0,2.75284c0,0.78519 0,1.72516 0,2.73318c0,0.79199 0,1.64932 0,2.45682c0,0.99518 -0.1637,1.96713 0.22133,2.80984c0.3058,0.66931 0.76794,1.5 0.77867,2.39999c0.0106,0.88934 0.41452,1.58408 1.05267,2.14734c0.5954,0.52551 0.96364,1.23346 1.79799,1.36331c0.9196,0.1431 1.43291,0.94662 2.31601,0.98935c0.83234,0.04025 1.83878,-0.14569 2.52884,0.05716c0.89859,0.26416 1.62079,0.87177 2.47916,0.93216c0.9364,0.06589 1.86133,0.01068 2.62668,0.01068c0.89865,0 1.79865,0 2.71948,0c0.96317,0 1.65384,0 2.72202,0c0.85715,0 1.75714,0 2.55716,0c0.89999,0 1.836,0 2.68399,0c0.86334,0 1.88,0 2.716,0c0.89999,0 2.07391,0.45328 2.6785,-0.2215c0.59192,-0.66061 0.12149,-1.66385 0.12149,-2.60385c0,-0.69064 0,-1.76398 0,-2.67465c0,-0.91068 0,-1.82132 0,-2.5c0,-1.11334 0,-1.95184 0,-2.71432c0,-0.88834 0,-1.88568 0,-2.68567c0,-0.99869 0,-1.76401 0,-2.71735c0,-0.85199 0,-1.65067 0,-2.63199c0,-0.91733 0.0499,-1.75107 -0.284,-2.73468c-0.24088,-0.70956 -0.67203,-1.62857 -0.71466,-2.39999c-0.05194,-0.93991 0.00729,-1.9494 -0.00134,-2.70532c-0.01041,-0.91086 -0.54147,-1.61459 -0.87848,-2.5105c-0.31097,-0.82669 -0.12152,-1.70151 -0.12152,-2.60019c0,-0.89999 0,-1.82083 0,-2.62131c0,-0.85336 0.05313,-1.79477 -0.00015,-2.77884c-0.04272,-0.78864 -0.47708,-1.6926 -0.71582,-2.33051c-0.36615,-0.97842 -0.28403,-1.86932 -0.28403,-2.76935c0,-0.89999 0,-1.79999 0,-2.59998c0,-0.95718 0.2468,-1.91754 -0.08533,-2.63068c-0.38297,-0.8223 -0.71838,-1.40515 -0.97183,-2.26935c-0.25732,-0.87741 -0.91422,-1.60306 -0.94284,-2.46664c-0.02759,-0.83289 0,-1.81186 0,-2.63202c0,-0.90134 0.16522,-1.82053 -0.02081,-2.70132c-0.17899,-0.84738 -0.4538,-1.77551 -1,-2.47916c-0.54349,-0.70016 -0.96875,-1.06232 -0.97919,-2.02084c-0.00858,-0.78928 0,-1.83334 0,-2.58932c0,-0.91068 0,-1.81067 0,-2.71066c0,-0.90002 0,-1.79984 0,-2.72534c0,-0.776 0,-1.67468 0,-2.57468c0,-0.89999 0,-1.79999 0,-2.69998c0,-0.90002 0,-1.80002 0,-2.70001c0,-0.91467 0.33612,-1.32904 0.96402,-2.01068c0.57404,-0.62317 0.99326,-1.27133 1.03598,-2.08932c0.04694,-0.89877 0.01065,-1.75436 0.61069,-2.5c0.52725,-0.65521 1.12784,-1.27899 1.36398,-2.21466c0.21371,-0.8468 0.78894,-1.49649 1.37802,-2.13266c0.53296,-0.57556 1.34076,-0.85666 2,-1.40985c0.69724,-0.58508 0.85828,-1.61499 1.22198,-2.24283c0.44595,-0.76987 0.42532,-1.69998 0.42532,-2.60132c0,-0.96533 0,-1.79868 0,-2.77719l0,-0.71698l0.05719,-0.94733l0.77615,-0.52383" id="svg_19" stroke-width="2" stroke="#000" fill="none"/>
  <path t="65697,65776,65785,65785,65793,65793,65801,65801,65809,65809,65817,65817,65825,65825,65833,65841,65849,65849,65849,65857,65865,65865,65880,65888,65912,65920,65937,65937,65953,65960,65968,65976,66008,66016,66016,66032,66040,66048,66056,66064,66072,66072,66080,66080,66096,66106,66106,66112,66112,66112,66120,66120,66128,66128,66136,66136,66144,66144,66144,66144,66153,66153,66153,66160,66160,66170,66170,66176,66176,66176,66184,66192,66192,66200,66200,66208,66208,66216,66216,66216,66224,66232,66232,66240,66240,66248,66248,66256,66264,66288,66296,66305,66305,66312,66320,66320,66328,66336,66336,66344,66344,66360,66369,66369,66384,66392,66392,66408,66432,66456,66456,66464,66473,66631,66648,66656,66672,66688,66704,66704,66712,66720,66720,66736,66744,66760,66776,66792,66792,66880,66912,66912,66944,66968,66992,67000,67008,67016,67024,67032,67040,67056,67064,67080,67096,67105,67120,67128,67138,67138,67144,67144,67152,67152,67160,67171,67171,67176,67185,67192,67192,67192,67202,67202,67208,67208,67216,67216,67224,67232,67248,67256,67256,67264,67264,67272,67280,67280,67288,67288,67296,67305,67328,67336,67344,67352,67360,67376,67385,67385,67392,67392,67402,67416,67424,67432,67448,67464,67464,67472,67488,67495,67512,67512,67520,67528,67559,67560,67576,67592,67608,67624,67632,67632,67640,67656,67672,67672,67688,67688,67719,67728,67759,67768" d="m284.01135,281.09091c0.70453,0.7045 1.34021,1.27219 1.80002,1.88535c0.67249,0.89679 0.88867,1.53308 1.68265,2.22931c0.60883,0.53384 1.41501,1.1922 1.60001,1.85602c0.28619,1.02698 0.30884,1.89804 1.01733,2.66498c0.56311,0.60956 1.37943,0.90311 2.2045,1.31619c0.84308,0.42206 1.55606,0.8688 1.98569,1.39999c0.67786,0.8381 0.79807,1.85373 1.23065,2.62732c0.409,0.73141 1.15164,1.30261 1.7005,1.89951c0.58856,0.64005 1.03958,1.34326 1.58002,1.92133c0.57373,0.61368 1.47641,1.00232 2.146,1.55267c0.64539,0.53046 1.2529,1.06485 2.05264,1.48068c0.65085,0.33841 1.52359,0.62708 2.2955,1.11398c0.70242,0.44308 1.32153,1.06555 2.11517,1.478c0.7623,0.39615 1.64178,0.41019 2.56784,0.79617c0.66852,0.27866 1.40466,1.01913 1.85483,1.7785c0.42194,0.71176 1.0141,1.49161 1.45334,1.82532c0.70331,0.53433 1.59387,1.1264 2.29199,1.76401c0.64395,0.58813 1.26013,1.27237 1.72134,2.07233c0.3284,0.56955 0.70978,1.50134 1,2.2955c0.31052,0.84973 0.4812,1.45065 0.90134,2.64017c0.30588,0.86597 0.44101,1.47821 1.28131,2.43335c0.44196,0.50235 1.25394,1.11356 1.49652,1.99017c0.26587,0.96085 0.4787,1.75629 0.73682,2.49384c0.29663,0.84763 0.46985,1.82352 0.80484,2.48532c0.43414,0.85767 1.03537,1.46176 1.57901,2.3215c0.4252,0.67242 0.74438,1.67664 0.87482,2.46783c0.11932,0.72375 0.64066,1.6348 0.94135,2.41333c0.28326,0.73337 0.44232,1.80103 0.65866,2.54666c0.26559,0.91534 0.41492,1.70883 0.42532,2.65067c0.00989,0.89545 0,1.8215 0,2.70001c0,0.89999 -0.00241,1.69998 0,2.65717c0.00226,0.89099 0.18912,1.59915 0.64734,2.34818c0.43503,0.71109 0.36652,1.51913 0.70535,2.48566c0.30228,0.86221 0.64731,1.77066 0.64731,2.73032c0,0.67868 0,1.65717 0,2.67868c0,0.79999 0.31451,1.38715 0.83334,2.16666c0.47089,0.70746 -0.31573,1.82581 0.25201,2.548c0.54202,0.68948 0.90009,1.20145 1.61917,1.28534c0.88943,0.10376 1.79547,0 2.70615,0c0.91068,0 1.58932,0 2.70401,0c0.88531,0 1.68533,0 2.58533,0c0.86401,0 1.73599,0 2.71066,0c0.91068,0 1.58932,0 2.70401,0c0.88531,0 1.68533,0 2.58533,0c0.89999,0 2.00424,0.1152 2.28934,-0.61066c0.32532,-0.82831 0.55386,-1.59265 0.88916,-2.48935c0.31805,-0.85065 0.12149,-1.73334 0.12149,-2.60449c0,-0.89551 0,-1.7955 0,-2.6955c0,-0.89551 0,-1.76935 0,-2.62085c0,-0.95782 0,-1.73181 0,-2.63632c0,-0.74734 0,-1.74152 0,-2.68567c0,-0.90451 0.13068,-1.8378 -0.02081,-2.63632c-0.18069,-0.95258 -0.94412,-1.38596 -0.97919,-2.35419c-0.02432,-0.67163 0.04407,-1.73972 -0.44266,-2.52365c-0.43246,-0.69656 -1.43201,-1.21643 -1.55466,-2.02835c-0.14041,-0.92947 -0.00269,-1.63065 -0.00269,-2.70398c0,-0.91068 0,-1.82135 0,-2.73218c0,-0.69934 0.10715,-1.68686 -0.02081,-2.63684c-0.10999,-0.81644 -1.04935,-1.33109 -1.45834,-2.0625c-0.43259,-0.77359 -0.51859,-1.67465 -0.52084,-2.57916c-0.0022,-0.87915 0.25461,-1.79364 -0.00449,-2.6955c-0.22061,-0.76791 -0.98508,-1.22516 -0.99551,-2.10449c-0.01071,-0.90445 0.00006,-1.76666 0,-2.60001c-0.00009,-0.97852 -0.12402,-1.77628 -0.57465,-2.60001c-0.427,-0.78055 -0.42535,-1.69998 -0.42535,-2.60001c0,-0.89999 0,-1.79999 0,-2.59998c0,-0.90002 0,-1.80002 0,-2.67917c0,-0.96368 0,-1.70618 0,-2.63419c0,-0.93933 0,-1.88666 0,-2.68665c0,-0.90002 -0.00241,-1.81989 0.42535,-2.60001c0.4512,-0.82291 0.80859,-1.55829 1.22198,-2.30002c0.42563,-0.76367 0.69507,-1.61383 1.35266,-2.29999c0.55188,-0.57587 1.47241,-0.83008 2.14935,-1.03601c0.90231,-0.27448 0.85065,-1.36398 0.85065,-2.26398l0.00134,-0.89868" id="svg_20" stroke-width="2" stroke="#000" fill="none"/>
  <path t="68648,68759,68768,68768,68776,68784,68792,68800,68808,68823,68856,68872,68879,68904,68904,68920,68928,68943,68968,68976,69000,69008,69016,69024,69032,69033,69040,69040,69040,69049,69056,69056,69063,69064,69072,69079,69095,69095,69104,69104,69112,69127,69136,69136,69144,69144,69152,69160,69160,69160,69168,69168,69176,69184,69184,69192,69192,69199,69200,69200,69208,69216,69216,69224,69224,69233,69240,69240,69249,69256,69256,69264,69264,69272,69279,69288,69296,69296,69296,69304,69312,69312,69320,69320,69328,69328,69328,69335,69344,69344,69351,69352,69352,69360,69360,69367,69368,69368,69376,69376,69383,69392,69392,69399,69400,69408,69408,69424,69424,69432,69432,69440,69449,69464,69479,69480,69488,69495,69512,69512,69520,69520,69527,69535,69536,69544,69544,69552,69552,69557,69568,69576,69576,69583,69584,69599,69600,69608,69608,69608,69621,69624,69624,69624,69632,69632,69640,69649,69656,69656,69665,69665,69665,69672,69680,69680,69695,69696,69704,69720,69744,69751,69767,69783,69792,69807,69839,69848,69848,69855,69872,69872,69888,69888,69896,69896,69904,69920,69928,69928,69936,69944,69951,69952,69975,69976,69983,69984,69992,69999,70008,70008,70015,70016,70024,70040,70048,70056,70065,70072,70080,70095,70104,70128,70143,70144,70160,70167,70176,70199,70208,70215,70239,70248,70256,70271,70288,70312,70312,70335,70336,70351,70352,70375,70391,70423,70424" d="m347.01135,287.09091c1.75717,-0.99551 2.65274,-0.99045 3.51602,-1c0.9425,-0.01044 1.42062,-0.77481 2.18851,-0.99551c0.86066,-0.24738 1.79547,-0.00449 2.6955,-0.00449c0.89999,0 1.80377,0.08212 2.69998,-0.00015c0.91144,-0.08368 1.48758,-0.6004 2.30002,-0.97452c0.88287,-0.40656 1.5459,-0.99673 2.40134,-1.02533c0.89816,-0.03003 1.79865,0 2.69864,0c0.90002,0 1.70142,0.01178 2.66669,0c0.85434,-0.01044 1.86044,-0.0983 2.612,-0.436c0.68066,-0.30585 1.20355,-1.28778 1.93567,-1.50684c0.85272,-0.25513 1.88116,-0.05716 2.62848,-0.05716c1.02118,0 1.85852,0 2.82385,0c0.83331,0 1.81229,0.02771 2.63199,0c0.84561,-0.02859 1.35565,-0.91626 2.20132,-1c0.75348,-0.07462 1.65286,0.01825 2.51602,0c0.98465,-0.02084 1.79636,-0.45432 2.50482,-1c0.57327,-0.44156 1.56943,-0.93445 2.32199,-0.991c0.89755,-0.06744 1.85983,-0.009 2.62784,-0.009c1.03918,0 1.81467,0.00333 2.86267,0c0.70502,-0.00226 1.53207,0.0116 2.54135,-0.42532c0.8176,-0.35394 1.65921,-0.453 2.45865,-0.74133c0.80814,-0.29147 1.60059,-0.73151 2.36801,-1.11734c0.72278,-0.3634 1.66632,-0.53571 2.63199,-0.88266c0.69321,-0.24905 1.28806,-1.1409 1.96667,-1.548c0.73593,-0.44147 1.53653,-0.83395 2.40134,-1.20135c0.91794,-0.38998 1.60571,-0.55728 2.31467,-0.79999c0.96365,-0.3299 1.97342,-0.23563 2.69467,-0.32001c0.99969,-0.11697 1.76614,-0.54382 2.78931,-0.79733c0.77658,-0.19241 1.51468,-0.16467 2.5,-0.16666c0.98535,-0.00201 1.76187,0.04318 2.70001,-0.44266c0.64432,-0.33368 1.13779,-0.98932 2.20001,-1.388c0.76852,-0.28845 1.80966,-0.36554 2.39999,-0.60535c0.81479,-0.33099 1.85596,-0.76794 2.48566,-1.26401c0.75772,-0.59692 1.12076,-1.46487 1.75601,-1.77914c0.91574,-0.45303 1.78918,-0.33841 2.79166,-0.6875c0.71292,-0.24826 1.46857,-0.97028 2.16666,-1.3125c0.81305,-0.39856 1.69565,-0.57333 2.5,-1.02084c0.79562,-0.44266 1.76871,-0.35208 2.5,-0.66666c0.78006,-0.33554 1.56784,-0.70938 2.30002,-1.19052c0.79422,-0.52191 1.29999,-1.24283 2,-1.94281c0.5,-0.5 1.18207,-1.21841 1.90134,-1.90001c0.54266,-0.51424 1.35373,-0.90808 1.93732,-1.436c0.81091,-0.73358 0.83444,-1.71161 1.36133,-2.32233c0.46188,-0.53539 1.06665,-1.24585 1.68533,-1.64168c0.78992,-0.50537 1.4115,-1.04306 2.30002,-1.59999c0.52008,-0.32599 1.53055,-0.77045 2.29333,-1.2c0.66553,-0.37477 1.15576,-1.16075 1.664,-1.92151c0.49673,-0.74358 1.13672,-1.22501 1.44299,-2.274c0.21152,-0.72447 -0.04382,-1.94583 0.65601,-2.4045c0.67795,-0.44431 1.54242,-0.44299 2.29166,-1.16667c0.6084,-0.58763 0.90771,-1.39328 1.56668,-2.19733c0.55423,-0.67625 1.19998,-1.23601 1.89999,-1.936c0.5,-0.5 1.1153,-1.37389 2,-1.64284c0.8616,-0.26193 1.57767,-0.47136 2.12534,-1.02116c0.52597,-0.52802 0.94675,-1.17215 1.62732,-1.68333c0.68494,-0.51447 1.71793,-0.12637 2.37933,-0.43799c0.81973,-0.3862 1.59991,-1.04118 2.168,-1.52534c0.75018,-0.63933 1.27963,-1.19814 2.04819,-1.68933c0.63736,-0.40735 1.26639,-1.23347 1.7045,-2c0.42136,-0.7372 0.65582,-1.55516 1.258,-2.3c0.52814,-0.65327 1.48279,-1.05075 2.104,-1.48399c0.79703,-0.55585 1.36237,-0.74564 2.26382,-1.1375c0.79285,-0.34465 1.34756,-1.05708 1.90033,-1.87834c0.48181,-0.71584 1.46466,-0.77277 1.95184,-1.46817c0.43521,-0.62123 0.96918,-1.41975 1.16483,-2.13649c0.23605,-0.86479 0.62253,-1.60587 0.91916,-2.4955c0.28592,-0.85748 0.42828,-1.6375 1.03268,-2.15266c0.64639,-0.55096 1.64838,-0.5278 1.96732,-1.21667c0.33051,-0.71387 0.08707,-1.79086 0.58533,-2.43066c0.4808,-0.61742 0.5,-1.60001 0.5,-2.5c0,-0.89999 0,-1.8 0,-2.7c0,-0.89984 -0.10294,-1.76118 0.05719,-2.56168c0.18442,-0.92188 0.63956,-1.59071 1.14148,-2.35432c0.50821,-0.77319 0.77148,-1.53534 0.80002,-2.40001c0.03177,-0.96265 0.00131,-1.89467 0.00131,-2.80516l0,-0.8175" id="svg_21" stroke-width="2" stroke="#000" fill="none"/>
  <path t="71656,71751,71751,71767,71783,71783,71791,71799,71799,71816,71816,71823,71832,71832,71839,71839,71847,71856,71856,71864,71872,71872,71880,71888,71896,71903,71903,71913,71913,71920,71929,71929,71936,71936,71944,71959,71967,71967,71975,71975,71975,71991,72000,72007,72008,72015,72023,72031,72047,72047,72055,72063,72063,72072,72072,72080,72088,72103,72103,72113,72120,72120,72129,72129,72135,72135,72143,72144,72151,72159,72167,72175,72183,72183,72191,72191,72199,72207,72215,72216,72223,72223,72239,72239,72247,72256,72263,72271,72271,72279,72288,72295,72296,72303,72312,72320,72320,72328,72336,72343,72344,72351,72359,72359,72367,72383,72391,72399,72407,72416,72423,72432,72432,72439,72455,72463,72495,72519,72527,72535,72559,72559,72639,72643,72679,72687,72711,72719,72743,72751,72767,72775,72791,72791,72807,72807,72823,72831,72832,72839,72847,72856,72863,72872,72887,72919,72935,72967,72999,73015,73055,73055,73151,73175,73199,73207,73215,73231,73232,73247,73264,73264,73272,73280,73287,73297,73297,73304,73314,73314,73319,73328,73336,73336,73336,73344,73351,73368,73376,73376,73383,73384,73391,73400,73400,73407,73415,73423,73431,73447,73448,73455,73455,73463,73463,73480,73480,73487,73487,73497,73514,73514,73519,73520,73528,73544,73561,73561,73568,73576,73584,73591,73599,73617,73624,73632,73632,73648,73656,73656,73672,73675,73695,73711,73727,73728,73743,73767,73776,73783,73816,73840" d="m532.01135,151.09091c0,1 0.12762,1.77727 0.5,2.52083c0.46954,0.93762 0.36493,1.66289 0.50452,2.722c0.11554,0.87679 0.74091,1.48816 1.19415,2.24117c0.40295,0.66943 0.75861,1.62791 0.80133,2.61617c0.03387,0.78444 -0.00732,1.72522 0,2.41585c0.01044,0.98416 0.30182,1.96075 0.57471,2.65866c0.36401,0.93095 0.42529,1.82533 0.42529,2.5825c0,0.89099 -0.02368,1.92203 0.35266,2.60449c0.45276,0.82106 0.6369,1.63817 0.64734,2.61684c0.00873,0.82011 0,1.6575 0,2.50684c0,0.91916 -0.02136,1.91231 0,2.64267c0.02863,0.97858 0.51862,1.69925 0.83337,2.70532c0.20984,0.67073 0.16663,1.70934 0.16663,2.41734c0,0.74399 0,1.935 0,2.84933c0,0.89999 0,1.7 0,2.59999c0,0.90001 0,1.82083 0,2.62134c0,0.85333 0,1.79466 0,2.84534c0,0.65866 0,1.66666 0,2.52882c0,0.90451 0,1.78368 0,2.74733c0,0.74251 0,1.67317 0,2.72385c0,0.65866 0.09344,1.67648 -0.03601,2.45866c-0.146,0.88213 -0.53418,1.57588 -1.16266,2.48933c-0.48566,0.70586 -0.79065,1.48534 -0.80133,2.38533c-0.01068,0.89999 -0.49768,1.72002 -0.83331,2.5c-0.30609,0.71129 -0.04816,1.67319 -0.25201,2.51601c-0.21478,0.88799 -0.87195,1.68251 -0.91467,2.65067c-0.02905,0.65802 0,1.66666 0,2.54666c0,0.856 0,1.6385 0,2.65067c0,0.936 0.01239,1.83742 0,2.80267c-0.01044,0.8127 -0.55084,1.44511 -0.94281,2.19499c-0.37384,0.71521 -0.05719,1.61751 -0.05719,2.653c0,0.74701 0,1.638 0,2.50134c0,0.96317 0,1.89465 0,2.80533c0,0.85333 0,1.79333 0,2.67867c0,0.8 0,1.71466 0,2.61067c0,0.88933 0,1.78932 0,2.68933c0,0.89999 0,1.8 0,2.7c0,0.8 0,1.7 0,2.60001c0,0.96399 0,1.836 0,2.7c0,0.89999 0,1.8 0,2.7c0,0.8 0,1.70001 0,2.64282c0,0.87802 0.27393,1.80151 -0.00446,2.65268c-0.26245,0.80252 -0.78625,1.32864 -1.51636,1.68365c-0.79083,0.38455 -1.83258,-0.11783 -2.57935,0.24234c-0.73444,0.35425 -1.35236,1.04465 -2.24713,1.42133c-0.87439,0.3681 -1.82977,0.24637 -2.63184,0.37802c-0.87946,0.14435 -1.383,0.91559 -2.02087,1.47916c-0.5835,0.5155 -1.04395,1.35425 -1.80133,1.49866c-0.88275,0.16833 -1.81781,-0.16388 -2.69867,0.02219c-0.84735,0.17899 -1.59387,0.91827 -2.5,0.97916c-0.79822,0.05362 -1.70001,0 -2.59998,0c-0.90002,0 -1.8959,0.18307 -2.59866,-0.28534c-0.79532,-0.53012 -0.70026,-1.52512 -0.83734,-2.35065c-0.14474,-0.87161 -0.72626,-1.6813 -0.90683,-2.60684c-0.16446,-0.84302 -0.04691,-1.79419 -0.41434,-2.46249c-0.41034,-0.74634 -1.3783,-1.2814 -1.60684,-2.15601c-0.16608,-0.63559 0.00327,-1.7691 -0.47198,-2.54935c-0.49066,-0.80554 -1.01395,-1.38924 -1.27869,-2.10533c-0.34634,-0.93684 -0.28534,-1.87332 -0.28534,-2.84566c0,-0.80501 0.13904,-1.68527 -0.22131,-2.61684c-0.3009,-0.77783 -0.76825,-1.54216 -0.77869,-2.50549c-0.00748,-0.69063 0,-1.75883 0,-2.61601c0,-0.89999 -0.00693,-1.81488 -0.35266,-2.61433c-0.29953,-0.69257 -0.59497,-1.68182 -0.63666,-2.44966c-0.05161,-0.95065 -0.01068,-1.72 -0.01068,-2.672c0,-0.76534 0,-1.75951 0,-2.67867c0,-0.94366 0.07843,-1.93617 -0.03598,-2.67067c-0.14801,-0.95041 -0.81558,-1.58202 -0.9595,-2.51466c-0.12518,-0.81125 -0.00452,-1.784 -0.00452,-2.64734c0,-0.89549 0.12402,-1.86127 -0.00015,-2.7525c-0.11172,-0.80186 -0.97116,-1.25587 -0.99985,-2.10016c-0.03055,-0.89949 -0.22327,-1.7652 -0.57465,-2.40001c-0.48706,-0.87994 -0.23984,-1.75093 -0.46133,-2.53867c-0.25989,-0.92424 -0.63705,-1.5824 -0.98483,-2.36133c-0.33197,-0.74352 -1.34879,-1.16734 -1.69385,-1.93201c-0.36975,-0.81937 -0.71066,-1.54266 -1.31067,-2.14265l-0.62198,-0.47801l-0.35135,-0.74866l-0.0585,-0.89867" id="svg_22" stroke-width="2" stroke="#000" fill="none"/>
  <path t="74440,74495,74504,74512,74512,74519,74527,74528,74536,74536,74536,74543,74544,74552,74552,74552,74560,74560,74568,74576,74577,74583,74583,74593,74593,74600,74600,74607,74616,74624,74632,74640,74640,74648,74656,74656,74664,74664,74671,74680,74696,74707,74727,74759,74760,74775,74792,74800,74810,74810,74816,74847,74871,74872,74880,74896,74904,74911,74912,74920,74927,74935,75039,75071,75087,75111,75136,75151,75183,75199,75200,75216,75231,75248,75256,75271,75271,75279,75295,75295,75303,75319,75327,75328,75335,75343,75352,75367,75383,75384,75392,75394,75423,75432,75440,75448,75455,75464,75464,75471,75479,75488,75495,75527,75527,75535,75543,75544" d="m475.01135,235.09091c0,1.8 0,2.636 0,3.48399c0,0.86334 -0.06442,1.91057 0.22134,2.83751c0.22177,0.71939 0.65964,1.67216 0.74268,2.4785c0.08203,0.79654 0.03598,1.80449 0.03598,2.43599c0,1.18518 0,1.97867 0,2.75418c0,1.03915 0,1.80716 0,2.767c0,0.89999 0,1.64732 0,2.64282c0,0.8 0,1.79984 0,2.57916c0,0.99933 0,1.81952 0,2.72086c0,0.89999 0,1.79999 0,2.71066c0,0.91064 0,1.76398 0,2.70398c0,0.88535 0,1.64252 0,2.53802c0,0.86331 0,1.82648 0,2.73666c0,0.96783 0,1.80933 0,2.69598c0,0.91467 -0.19592,1.74908 0.05719,2.61469c0.25665,0.87759 0.72733,1.67599 1.16434,2.39981c0.4368,0.72348 1.16324,1.21158 1.94516,1.73352c0.70682,0.4718 1.63333,0.16666 2.548,0.16666c0.896,0 1.80615,0 2.76932,0c0.69067,0 1.84741,0.14185 2.46335,-0.35266c0.61029,-0.48996 1.45267,-0.64734 2.35266,-0.64734c0.89999,0 2.0466,0.38882 2.57849,-0.22134c0.57245,-0.65671 0.40546,-1.52756 1.2215,-2.00015c0.66656,-0.38602 1.26593,-1.22064 1.99985,-1.65717c0.78268,-0.46552 0.702,-1.28192 1.06683,-2.12134c0.29755,-0.68457 1.05008,-1.42618 1.83331,-1.83334c0.74387,-0.38669 1.63721,-0.74176 2.19867,-1.36667c0.68246,-0.75961 0.85571,-1.49905 1.30133,-2.29999c0.44455,-0.79904 0.5,-1.70001 0.5,-2.60001c0,-0.89999 0,-1.69998 0,-2.60001c0,-0.86398 0,-1.82083 0,-2.69998c0,-0.89999 0,-1.80002 0,-2.70001c0,-0.89999 0,-1.7 0,-2.59999c0,-0.90001 0,-1.8 0,-2.68933c0,-0.944 0,-1.79601 0,-2.72534l0,-0.88533l0,-0.75717" id="svg_23" stroke-width="2" stroke="#000" fill="none"/>
  <path t="76777,76807,76807,76815,76815,76824,76832,76832,76841,76847,76857,76864,76871,76879,76887,76896,76903,76919,76919,76935,76951,76951,76967,76967,76975,76975,76975,76983,76983,76991,77007,77015,77023,77023,77031,77040,77047,77047,77057,77119,77119,77143,77159,77175,77183,77199,77199,77207" d="m522.01135,130.09091c0.70984,1.009 1.5993,1.07442 2.24286,1.70534c0.53064,0.5202 1.3454,1.20056 1.95715,1.86266c0.47888,0.5183 1.1413,1.26872 1.77466,1.85735c0.57031,0.53003 0.60858,1.29842 1.06134,2.13866c0.39282,0.72897 1.35907,0.86948 2.16266,1.35201c0.73975,0.44418 0.93799,1.427 1.60266,1.8c0.76593,0.42981 1.86206,0.23128 2.60321,0.34116c1.00995,0.14973 1.57367,0.51711 2.59546,0.77617c0.78748,0.19966 1.63129,0.15567 2.591,0.52383c0.72516,0.27818 1.32587,1.16156 1.83435,1.6535c0.55396,0.53593 1.28339,0.95076 2.09198,0.98801c0.96106,0.04428 1.78638,0.35445 2.48267,1.00133c0.60327,0.5605 1.40997,1.00186 2.32117,0.99983c0.8183,-0.00183 1.64282,-0.43359 1.67883,-1.29984c0.03735,-0.89922 0,-1.8 0,-2.7l0,-0.8l-0.08533,-0.91466" id="svg_24" stroke-width="2" stroke="#000" fill="none"/>
  <path t="77455,77503,77511,77519,77535,77543,77551,77559,77559,77567,77567,77575,77599,77607,77623,77624,77639,77640,77647,77655,77655,77655,77663,77672,77672,77679,77689,77689,77703,77703,77711,77711,77719,77735,77759,77767,77767,77831" d="m538.01135,131.09091c0,1.8 -0.15704,2.71976 0.02087,3.5c0.21942,0.96201 0.64032,1.7509 1.26447,2.41733c0.56525,0.60356 1.17993,1.12593 1.71466,1.916c0.45074,0.666 0.76227,1.49144 1.00018,2.388c0.20752,0.78195 1.34186,0.96719 1.71448,1.66534c0.45862,0.85928 0.27325,1.67532 0.72137,2.48799c0.46948,0.85141 0.935,1.46829 1.36395,2.14134c0.56299,0.88338 1.21985,1.63916 1.58936,2.29866c0.46967,0.83817 0.5542,1.76186 0.66785,2.59433c0.10925,0.80029 0.4093,1.60304 0.94281,2.42433c0.51379,0.79099 0.98132,1.56615 1,2.46667c0.01868,0.8998 0.16669,1.7 0.64734,2.39999l0.34198,0.864" id="svg_25" stroke-width="2" stroke="#000" fill="none"/>
  <path t="79816,79888,79920,79960,79976,79984,79992,80016,80024,80040,80056,80080,80088,80096,80104,80144,80184,80216,80256,80312,80352,80464,80480,80537,80592,80608,80616,80632,80640" d="m543.01135,129.09091c1.79999,0 2.70001,-0.006 3.60004,0c0.80005,0.00534 1.80341,0.2805 2.23334,1c0.46039,0.77045 1.26666,1 2.16663,1c0.83337,0 0.98938,0.70456 1,1.60001c0.01044,0.87935 0.81427,1.38806 0.99554,2.10449c0.21967,0.86816 0.00446,1.7955 0.00446,2.6955c0,0.90001 0.02863,1.80046 0,2.69984c-0.02856,0.89702 -0.72498,0.94603 -1,1.73349c-0.28027,0.80255 -0.94733,1.46217 -1.42529,2.14134l-0.59552,0.52533" id="svg_26" stroke-width="2" stroke="#000" fill="none"/>
  <path t="81368,81480,81480,81569,81608,81632,81672" d="m542.01135,131.09091c-1,0 -1.79999,0 -2.71466,0l-0.93268,0.05716l-0.34814,0.64734l-0.00452,0.89551" id="svg_27" stroke-width="2" stroke="#000" fill="none"/>
  <path t="82697,82872,82896,82904,82921,82944,82952,82984,83000,83040,83040,83048,83096,83112,83112,83160,83192,83224,83296,83320,83336,83344,83376,83392,83400,83456,83480,83488,83528,83528,83568,83584" d="m526.01135,142.09091c1.79999,0 2.79266,-0.35492 3.56403,0.036c0.69812,0.35379 1.23749,0.94424 2.15063,0.964c0.8606,0.01863 1.3371,0.85638 2.28534,1c0.79095,0.1198 1.38715,0.31448 2.16669,0.83333c0.70746,0.47086 1.6333,0.16667 2.53333,0.16667c0.90002,0 1.86566,-0.10596 2.59552,0.35266c0.79822,0.5016 1.5058,0.64734 2.40448,0.64734c0.90002,0 1.79999,0 2.70001,0c0.89996,0 1.79999,0 2.70001,0c0.89996,0 1.69995,0 2.61462,-0.08533l0.284,-0.716" id="svg_28" stroke-width="2" stroke="#000" fill="none"/>
  <path t="86113,86184,86184,86200,86208,86216,86216,86224,86224,86240,86256,86296,86304,86313" d="m272.01135,159.09091c1.16669,1 1.81708,1.58182 2,2.35716c0.21753,0.92204 0.16669,1.80951 0.5,2.64284c0.33334,0.83333 0.49466,1.58928 0.5,2.5c0.00525,0.89998 0,1.8 -0.00131,2.69867l-0.35135,0.74866" id="svg_29" stroke-width="2" stroke="#000" fill="none"/>
  <path t="87048,87175,87184,87192,87208,87216,87224,87232,87263,87264,87272,87280,87296,87320,87336,87352,87360,87384,87405" d="m212.01137,157.09091c0,1 -0.17107,1.81273 -1,2c-0.88371,0.19965 -0.61118,1.34659 -1.22133,1.87849c-0.65669,0.57248 -1.91223,0.16032 -2.42151,0.826c-0.51833,0.67752 -0.96672,1.29756 -1.40984,2c-0.48692,0.7719 -0.89017,1.5955 -0.94733,2.4955l-0.00017,0.89984l-0.28383,0.81616l-0.65884,0.43666" id="svg_30" stroke-width="2" stroke="#000" fill="none"/>
  <path t="87912,88063,88063,88072,88080,88096,88112,88128,88151,88161,88176,88184,88192,88192,88200,88200,88216,88239,88264,88296,88367,88384,88392,88400,88416,88416,88434" d="m202.01137,169.09091c-1,-1 -1,-1.8 -1,-2.7c0,-0.90001 0,-1.8 0,-2.7c0,-0.90001 0.15935,-1.89789 -0.35266,-2.54733c-0.48456,-0.61462 -0.64734,-1.35718 -0.64734,-2.37401c0,-0.67867 0,-1.65717 0,-2.47733c0,-0.90134 0,-1.80135 0,-2.70134c0,-0.89999 -0.25549,-2.0704 0.436,-2.464c0.83836,-0.4772 1.864,-0.03149 2.66383,0.1855l0.61482,0.57983l0.28084,0.84151" id="svg_31" stroke-width="2" stroke="#000" fill="none"/>
  <path t="89408,89495,89504,89514,89519,89527,89536,89559,89559,89568,89623,89647,89656,89664,89671,89688,89711,89727,89736,89775,89792,89800,89824" d="m277.01135,162.09091c0,-1.61067 -0.15976,-2.51622 0.01068,-3.39999c0.18185,-0.94283 1.18799,-1.13202 1.82266,-1.76668c0.63464,-0.63464 0.8223,-1.63101 1.66666,-1.8125c0.86972,-0.18694 1.47675,0.35408 2,0.97917c0.49979,0.59705 1.35428,1.04396 1.49869,1.80133c0.16833,0.88277 0.00131,1.79868 0.00131,2.76266c0,0.87201 0,1.73601 0,2.636l0,0.90001" id="svg_32" stroke-width="2" stroke="#000" fill="none"/>
 </g>
 <g display="none">
  <title>muse_image</title>
  <image xlink:href="http://farm1.static.flickr.com/85/244454005_555f4e67c7.jpg" id="muse" height="462" width="640" y="9" x="0"/>
 </g>
 <g display="none">
  <title>bbox</title>
  <rect stroke="#f00" fill="none" stroke-width="3" height="404.40997" width="567.04" y="66.59003" x="72.96" id="bbox"/>
 </g>
</svg>
