<svg width="640" height="480" xmlns="http://www.w3.org/2000/svg" xmlns:svg="http://www.w3.org/2000/svg" xmlns:xlink="http://www.w3.org/1999/xlink">
 <!-- Sketchy ANNOTATION
  ImageNet ID: n02395406_30669
  URL: http://farm3.static.flickr.com/2002/1765001576_f3b6f94bde.jpg
  Image Width: 500
  Image Height: 375
  BBox X: 0
  BBox Y: 17
  BBox Width: 357
  BBox Height: 357
  Exposure: 2000ms
  Synset Label: pig
  Synset ID: n02395406
  Worker Tag: sleeping pig
  Sanity Check: 
   Context
   Saved
   Shading
  Comment: 
   {}
  Worker ID: A3S692G1BCNMYZ
  Assignment ID: 35USIKEBNRG3BS8AVRLE9BIQQCD6NX
  HIT ID: 38G0E1M85M5ZYO9Q3Y06AEVYD3KVUK
  Work Time: 176s
  Worker Score: 0.9286
 END ANNOTATION -->
 <g display="inline">
  <title>Layer 1</title>
  <path t="0,368,408,472,496,512,584,608,632,656,656,688,704,720,752,792,832,856,896,896,928,960,1000,1032,1040,1064,1088,1112,1120,1136,1160,1168,1200,1224,1256,1264,1280,1296,1344,1352,1368,1392,1408,1440,1464,1472,1480,1512,1536,1568,1584,1616,1648,1656,1696,1712,1760,1800,1824,1848,1856,1872,1880,1904,1928,1944,1968,2007,2024,2032,2048,2104,2120,2144,2152,2192,2208,2232,2264,2272,2296,2304,2336,2344,2360,2400,2408,2432,2456,2464,2476,2493,2510,2528,2528,2543,2568,2608,2616,2648,2696,2712,2712,2728,2744,2784,2824,2840,2880,2928,2944,2960,2968,2976,3008,3016,3072,3104,3104,3128,3144,3168,3192,3192,3208,3224,3232,3248,3264,3280,3293,3312,3328,3344,3344,3360,3408,3416,3432,3448,3448,3464,3504,3520,3528,3544,3544,3560,3584,3584,3640,3656,3680,3696,3719,3728,3752,3760,3777,3793,3810,3810,3827,3843,3843,3860,3860,3877,3893,3910,3910,3927,3927,3943,3960,3981,3981,3993,4010,4010,4026,4043,4059,4060,4060,4076,4093,4109,4126,4143,4143,4143,4160,4160,4177,4177,4177,4193,4193,4210,4226,4243,4243,4264,4264,4276,4293,4293,4310,4326,4344,4368,4384,4424,4440,4448,4448,4459,4480,4496,4512,4527,4543,4543,4560,4577,4600,4640,4672,4696,4720,4760,4760,4784,4808,4840,4864,4888,4912,4944,4960,4960,4976,5016,5056,5088,5112,5143,5208,5296,5296,5376,5504,5520,5537,5664,5672,5672,5693,5752,5759,5888,5928,5928,5944,6056,6088,6160,6184,6232,6264,6296,6344,6400,6488,6520,6560,6560,6608,6640,6664,6695,6735,6760,6776,6800,6800,6832,6856,6864,6904,6928,6928,6952,6991,7024,7055,7056,7080,7104,7143,7167,7184,7240,7272,7288,7319,7328,7343,7360,7384,7416,7432,7447,7460,7479,7495,7511,7527,7543,7544,7560,7577,7593,7610,7627,7643,7660,7679,7680,7695,7719,7720,7727,7759,7767,7792,7815,7831,7863,7879,7903,7911,7936,7959,7967,7984,8023,8055,8072,8104,8119,8183,8192,8216,8231,8243,8260,8277,8415,8463,8480,8503,8543,8559,8575,8576,8623,8663,8679,8695,8711,8767,8815,8823,8863,8880,8911,8919,8944,8960,8961,9007,9023,9031,9043,9060,9077,9093,9127,9138,9167,9191,9201,9215,9239,9271,9279,9295,9311,9327,9343,9399,9416,9431,9463,9464,9495,9511,9527,9542,9560,9577,9577,9623,9624,9631,9643,9660,9677,9677,9693,9743,9751,9760,9777,9793,9810,9810,9810,9831,9832,9863,9887,9895,9910,9927,9943,9944,9960,9999,10015,10026,10027,10043,10060,10060,10077,10095,10127,10135,10143,10143,10160,10185,10185,10201,10247,10295,10463" d="m259.5,171c1.79999,0 2.70001,0 3.60001,0c0.89999,0 1.79999,0 2.69998,0c0.90002,0 1.80002,0 2.70001,0c0.79999,0 1.70001,0 2.60001,0c0.89999,0 1.79999,0 2.69998,0c0.90002,0 1.80002,0 2.70001,0c0.79999,0 1.70001,0 2.60001,0c0.89999,0 1.78934,0.01067 2.39999,0.5c0.61066,0.48933 1.55197,0.21091 2.38934,0.51067c0.73676,0.26375 1.22141,0.97229 2.21066,0.98933c0.87927,0.01515 1.33661,0.77478 2.10449,0.9955c0.86069,0.24738 1.70175,0.10086 2.34818,0.65184c0.6044,0.51515 1.2529,1.12234 1.89465,1.70532c0.57932,0.52625 1.36401,0.63004 2.05267,1.14734c0.62567,0.46999 1.55197,0.21091 2.38934,0.51067c0.73676,0.26375 1.23792,0.98346 2.01065,1.41467c0.81891,0.45699 1.83215,0.33043 2.51599,0.85866c0.6275,0.48471 1.44373,0.63124 2.05869,1.14134c0.59927,0.49709 1.01871,1.20236 1.45065,1.97466c0.45758,0.81808 0.95691,1.38931 1.77335,1.60133c0.80045,0.20787 1.47467,0.82021 1.79065,1.60934c0.32306,0.80679 0.46732,1.51981 1.0947,2.10533c0.68848,0.64252 1.25278,1.13525 1.89066,1.70934c0.57874,0.52086 1.01053,1.18539 1.02533,2.07466c0.0163,0.97926 0.75943,1.44119 0.99551,2.2045c0.26489,0.8564 0.62253,1.60585 0.91916,2.4955c0.28592,0.85748 0.59314,1.40865 1.02817,2.15717c0.42447,0.73038 -0.1871,1.875 0.34116,2.55884c0.48471,0.62749 0.64294,1.43417 1.14133,2.05867c0.4852,0.60796 0.60803,1.39525 1.14935,2.05066c0.49954,0.60484 1.24081,0.99667 1.81467,1.836c0.41327,0.60446 0.53769,1.68752 1.22131,2.164c0.72598,0.50598 1.85275,0.59259 2.30402,1.26001c0.51462,0.76111 0.32031,1.67236 0.73267,2.41466c0.45798,0.8244 0.82788,1.50008 1.51932,2.13333c0.59793,0.54762 0.72256,1.27351 0.83334,2.16667c0.11151,0.89923 0.75955,1.31367 1.00134,2.19867c0.21793,0.79776 1.01364,1.1889 1.57333,1.82666c0.51746,0.5896 1.34158,1.12898 1.42532,1.97467c0.07883,0.79611 0.05545,1.70094 0.5,2.5c0.44562,0.80096 0.80688,1.54681 1.216,2.3c0.43323,0.79752 1.22925,0.7829 1.92682,1.25716c0.68216,0.46376 -0.00598,1.73973 0.39319,2.50684c0.39514,0.75938 1.36151,1.10564 1.87997,1.72134c0.56039,0.6655 0.56607,1.65173 1.13669,2.3575c0.59109,0.73108 1.34518,1.04045 1.89465,1.71432c0.57352,0.7034 0.47269,1.62871 1.13669,2.3575c0.5434,0.59639 1.52371,0.87476 1.89066,1.68533c0.35391,0.78183 0.82629,1.40039 1.52533,2.10001c0.59967,0.60016 1.15515,1.29617 2.10001,1.48933c0.86188,0.17621 1.5589,0.5287 2.116,1.09467c0.66064,0.67113 1.19186,1.30107 1.70932,1.89067c0.55969,0.63776 1.185,1.05133 1.98535,1.45067c0.9101,0.45409 1.89154,0.35809 2.47949,0.93182c0.66577,0.64967 0.98328,1.41103 1.93518,1.61751c0.68335,0.14822 1.57825,0.71063 2.47464,0.96817c0.8681,0.24942 1.59439,0.1185 2.52536,0.4825c0.69788,0.27286 1.6684,0.41905 2.57465,0.58533c0.83276,0.15279 1.47574,0.74329 2.42535,0.964c0.99948,0.2323 1.57825,0.71063 2.47464,0.96817c0.8681,0.24942 1.86984,0.21588 2.52536,0.48248c0.69412,0.28232 1.76392,0.56934 2.67465,0.57468c0.89996,0.00528 1.82291,-0.07355 2.66666,0.16666c0.69016,0.19647 1.42401,0.60165 2.43784,0.78067c0.84607,0.14938 1.81952,0.26324 2.61017,0.478c0.77847,0.21146 1.81128,0.5307 2.58267,0.57333c0.90131,0.0498 1.83865,0.00134 2.68799,0.00134c0.91919,0 1.91336,0 2.67868,0c0.95065,0 1.836,0 2.63599,0c0.90002,0 1.80002,0 2.70001,0c0.89999,0 1.79999,0 2.70001,0c0.89999,0 1.79999,0 2.59998,0c0.90002,0 1.81964,-0.00195 2.60001,0.42532c0.8226,0.45038 1.70001,0.57468 2.60001,0.57468c0.79999,0 1.70001,0 2.60001,0c0.89999,0 1.79999,0 2.69998,0c0.90002,0 1.80002,0 2.70001,0c0.79999,0 1.70001,0 2.60001,0c0.89999,0 1.79999,0 2.69998,0c0.90002,0 1.80002,0 2.70001,0c0.79999,0 1.70001,0 2.60001,0c0.89999,0 1.79999,0 2.69998,0c0.90002,0 1.80002,0 2.70001,0c0.79999,0 1.70001,-0.05716 2.5,-0.5c0.79999,-0.44284 1.87549,-0.23483 2.41599,-0.78534c0.60953,-0.62082 0.56607,-1.6517 1.13669,-2.35748c0.59109,-0.73108 0.51306,-1.58958 1.11398,-2.19051c0.60092,-0.60094 1.7637,0.22629 2.548,-0.252c0.80365,-0.49007 1.51196,-1.17329 2.164,-0.69334c0.69827,0.51398 1.01605,1.25427 1.474,2.07866c0.41235,0.74231 1.09766,1.24493 1.56201,1.98535c0.48807,0.77826 0.08533,1.81467 0.08533,2.71466c0,0.79999 0,1.70001 0,2.60001c0,0.89999 0,1.79999 0,2.69998c0,0.90002 0,1.80002 0,2.70001c0,0.79999 0.01041,1.70007 0,2.60001c-0.01044,0.90018 -0.50052,1.61877 -0.83334,2.39999c-0.32019,0.75153 0.02176,1.72769 -0.20267,2.60001c-0.22287,0.86621 -1.06512,1.49887 -1.664,2.10001c-0.59662,0.59885 -0.95483,1.54376 -1.52133,2.17865c-0.53546,0.6001 -1.16623,1.13629 -1.80399,1.69601c-0.5896,0.51746 -0.95529,1.22687 -0.97467,2.12534c-0.01865,0.86453 -0.83026,1.34894 -0.99866,2.10132c-0.19669,0.87885 -0.68686,1.62125 -0.94418,2.49866c-0.25345,0.8642 -0.66736,1.4379 -1.02115,2.13602c-0.3909,0.77133 0.04611,1.76779 -0.03616,2.664c-0.08368,0.91144 -0.49225,1.69083 -0.99985,2.37915c-0.51331,0.69604 -1.05533,1.22385 -1.5,2.02084c-0.4455,0.79849 -0.39166,1.76035 -0.85266,2.45184c-0.46365,0.69547 -0.60168,1.43939 -1,2.29099c-0.42606,0.91089 -0.25375,1.68777 -0.73267,2.47183c-0.49066,0.80328 -0.67044,1.51749 -1.19867,2.20132c-0.48471,0.6275 -0.64294,1.43417 -1.14133,2.05869c-0.4852,0.60797 -0.33179,1.46014 -0.57916,2.32083c-0.2207,0.76788 -0.62704,1.30698 -1.01636,2.18365c-0.3157,0.71091 -0.96631,1.22543 -0.97916,2.12085c-0.01263,0.8793 -0.6618,1.44391 -1.05267,2.10449c-0.46475,0.78546 -0.7326,1.74423 -1.38333,2.27017c-0.73343,0.5928 -1.71371,0.61041 -2.39734,1.19199c-0.66602,0.56659 -0.91428,1.46103 -1.6875,1.8125c-0.80057,0.36389 -1.77914,0.02084 -2.67917,0.02084c-0.89999,0 -1.79999,0 -2.59998,0c-0.90002,0 -1.81964,-0.00195 -2.60001,0.42532c-0.8226,0.45038 -1.82492,0.31842 -2.47867,0.79602c-0.69907,0.51071 -1.32135,0.77866 -2.22134,0.77866c-0.89999,0 -1.44525,0.4498 -2.18533,0.91467c-0.77802,0.48871 -1.66843,0.32745 -2.41467,0.73267c-0.76111,0.41327 -1.74237,0.08481 -2.59549,0.35715c-0.82053,0.26193 -1.31509,0.99017 -2.2045,0.99551c-0.89996,0.0054 -1.85016,-0.07306 -2.47467,0.42532c-0.60797,0.4852 -1.46771,0.30682 -2.32083,0.57916c-0.82053,0.26193 -1.31509,0.99017 -2.2045,0.99551c-0.89996,0.0054 -1.79999,-0.00009 -2.70001,0c-0.89981,0.00009 -1.40863,0.50784 -2.15717,0.94284c-0.73038,0.42447 -1.74283,0.05716 -2.64282,0.05716c-0.79999,0 -1.70001,0 -2.60001,0c-0.89999,0 -1.79999,-0.00006 -2.7045,0c-1.01682,0.00009 -1.74243,-0.13901 -2.67398,0.22134c-0.77783,0.3009 -1.52136,0.76599 -2.42151,0.77866c-0.8999,0.01266 -1.73837,0.38608 -2.39999,0.716c-0.84338,0.42056 -1.80002,0.284 -2.70001,0.284c-0.89999,0 -1.79999,0 -2.70132,0c-0.96533,0 -1.63467,0 -2.39999,0c-1.18802,0 -1.91336,0 -2.87784,0c-0.92084,0 -1.82083,0 -2.72086,0c-0.89999,0 -1.80084,-0.0372 -2.59998,0c-0.91766,0.04272 -1.41525,0.93912 -2.30002,1c-0.89786,0.0618 -1.69998,0 -2.53598,0c-0.84802,0 -1.71133,0 -2.72803,0c-0.93597,0 -1.836,0 -2.73599,0c-0.89999,0 -1.69998,0 -2.53598,0c-0.84802,0 -1.71133,0 -2.72803,0l-0.93597,0l-0.90002,0l-0.89999,0" id="svg_1" stroke-width="2" stroke="#000" fill="none"/>
  <path t="11817,12032,12056,12095,12111,12111,12127,12143,12151,12167,12223,12231,12249,12264,12311,12327,12335,12359,12368,12375,12393,12415,12439,12455,12463,12487,12495,12511,12525,12543,12575,12591,12607,12623,12647,12711,12727,12735,12744,12799,12847,12855,12856,12879,12887,12967,12991,13015,13055,13087,13103,13104,13127,13207,13223,13239,13247,13271,13319,13343,13359,13439,13471,13487,13487,13503,13535,13567,13599,13623,13671,13671,13687,13711,13727,13751,13775,13775,13807,13831,13863,13872,13880,13903,13919,13951,13991,13999,14010,14031,14047,14071,14095,14111,14143,14143,14151,14167,14183,14199,14209,14231,14242,14259,14279,14292,14316,14326,14331,14343,14343,14375,14384,14384,14393,14409,14425,14426,14442,14443,14459,14460,14475,14492,14493,14509,14510,14526,14526,14543,14559,14560,14576,14593,14593,14609,14631,14642,14660,14661,14676,14693,14693,14709,14726,14726,14743,14760,14760,14775,14776,14793,14793,14809,14810,14825,14826,14843,14860,14860,14876,14892,14911,14911,14925,14943,14960,14960,14991,14991,15023,15055,15071,15111,15111,15127,15151,15175,15207,15207,15231,15247,15259,15260,15288,15343,15367,15367" d="m367.5,334c-1,1 -1.61227,1.35672 -2.28534,1.91599c-0.66916,0.55603 -1.42764,0.70184 -2.31467,1.10934c-0.81274,0.37338 -1.69727,0.74179 -2.31598,1.25867c-0.65695,0.54883 -1.43417,0.64294 -2.05869,1.14133c-0.60797,0.4852 -1.5773,0.28558 -2.41467,0.58536c-0.73672,0.26373 -1.3009,0.64557 -2.08981,1.01016c-0.77103,0.35632 -1.32217,0.97849 -2.22086,0.97916c-0.89999,0.00067 -1.85196,-0.28909 -2.68933,0.01068c-0.73672,0.26373 -1.22131,0.97864 -2.11066,0.98932c-0.88934,0.01068 -1.44141,0.7587 -2.2045,0.99551c-0.82178,0.25504 -1.29907,0.78522 -2.09683,1.00314c-0.88501,0.24179 -1.41391,0.94046 -2.29868,1.00134c-0.89786,0.0618 -1.45438,0.41769 -2.12149,0.87851c-0.72971,0.50406 -1.81674,-0.05206 -2.57849,0.20682c-0.88794,0.30176 -1.58029,0.90009 -2.20001,1.41467c-0.60202,0.49991 -1.53473,0.44711 -2.29999,0.85266c-0.84592,0.4483 -1.70001,0.64734 -2.5,0.64734c-0.90002,0 -1.80005,-0.0054 -2.70001,0c-0.8894,0.00534 -1.37393,0.72559 -2.11066,0.98932c-0.83737,0.29977 -1.78934,0.01068 -2.68933,0.01068c-0.90002,0 -1.80002,0 -2.70001,0c-0.79999,0 -1.70001,0 -2.60001,0c-0.89999,0 -1.81049,-0.13272 -2.69998,0.00449c-0.9314,0.14368 -1.47168,0.82877 -2.40002,0.99103c-0.88745,0.15512 -1.65033,0.52188 -2.5,0.92047c-0.86041,0.40363 -1.5047,0.72089 -2.29999,1.08401c-0.90552,0.41345 -1.60431,0.85013 -2.5,1c-0.8382,0.14023 -1.31366,0.75955 -2.19867,1.00134c-0.79776,0.21793 -1.27505,0.74811 -2.09683,1.00314c-0.76309,0.23682 -1.31509,0.99017 -2.2045,0.99551c-0.89996,0.0054 -1.80472,-0.09088 -2.70001,0.00134c-0.81259,0.08368 -1.61819,0.44681 -2.36398,1.02399c-0.62555,0.48413 -1.23755,0.95529 -2.13602,0.97467c-0.86453,0.01865 -1.3515,0.81915 -2.10132,0.99866c-0.89221,0.21359 -1.43076,0.81906 -2.29849,1.0015c-0.79254,0.16663 -1.18961,1.07001 -1.92102,1.479c-0.77359,0.43259 -1.42902,0.85101 -2.14581,1.35419c-0.69556,0.48828 -1.78311,0.08276 -2.39734,0.77731c-0.58945,0.66653 -0.66385,1.65457 -1.32266,2.18933c-0.71024,0.57651 -1.50555,0.83789 -2.35617,1.5c-0.58997,0.45923 -1.29626,1.19241 -1.75717,1.86667c-0.54843,0.80231 -0.97031,1.69043 -1.39999,2.19736c-0.65677,0.77481 -1.30002,1.336 -1.89999,1.93597c-0.70001,0.70001 -1.267,1.33505 -1.90002,1.89868c-0.76266,0.67908 -1.47665,0.90622 -1.884,1.60266c-0.483,0.82581 -1.01361,1.55399 -1.91599,2.03201c-0.64822,0.34338 -1.50516,0.68222 -2.20001,1.36667c-0.50375,0.49622 -1.19998,1.19998 -1.89999,1.89999c-0.5,0.5 -1.20715,1.19287 -1.89999,1.89999c-0.50528,0.51572 -1.06418,1.34433 -1.5,1.97916c-0.55615,0.81006 -1.40318,1.05798 -2.15266,1.37802c-0.71426,0.30502 -1.60332,0.92856 -2.146,1.44281c-0.71925,0.68158 -1.32272,1.50757 -2.00134,1.91467c-0.73595,0.44147 -1.60883,0.71216 -2.3,1.38535c-0.60786,0.59204 -1.08144,1.40952 -2,1.7785c-0.84271,0.33853 -1.6701,0.142 -2.55266,0.47415c-0.70622,0.26581 -1.71075,0.62933 -2.54733,0.64734c-0.8998,0.01938 -1.83826,-0.17355 -2.60001,0.08533c-0.88792,0.30176 -1.64133,0.79852 -2.39999,1.19867c-0.85838,0.45273 -1.2282,1.08582 -2.0215,1.59451c-0.74657,0.47873 -1.77937,0.08429 -2.57851,0.12149c-0.91763,0.04272 -1.36667,0.83334 -2.2,1l-0.8,0" id="svg_2" stroke-width="2" stroke="#000" fill="none"/>
  <path t="37674,37913,37945,37953,37993,38025,38065,38177,38233,38313,38313,38377,38394,38417,38489,38553,38601,38633,38673,38729,38769,38809,38833,38873,38873,38880,38905,38929,38953,38961,38977,38993,39010,39026,39057,39081,39097,39129,39153,39169,39183,39203,39225,39249,39289,39313,39353,39353,39360,39393,39401,39433,39449,39456,39481,39505,39529,39553,39593,39633,39633,39649,39697,39729,39737,39761,39785,39833,39857,39889,39896,39929,39985,40009,40049,40049,40065,40321,40329,40377,40489,40496,40529,40560,40585,40617,40617,40640,40660,40689,40697,40769,40825,40873,40897,40977,40993,41009,41025,41049,41088,41096,41121,41145,41184,41217,41224,41243,41265,41297,41304,41321,41337,41344,41360,41385,41409,41425,41433,41449,41465,41476,41497,41510,41526,41543,41543,41560,41585,41609,41617,41626,41643,41660,41705,41713,41737,41769,41776,41793,41833,41849,41889,41913,41969,41993,42017,42057,42145,42177,42177,42240,42273,42297,42368,42393,42417,42417,42433,42457,42504,42537,42560,42616,42656,42680,42688,42721,42760,42784,42792,42792,42816,42826,42843,42859,42875,42893,42893,42910,42925,42943,42943,42960,42976,42976,42993,42993,42993,43010,43010,43026,43026,43026,43043,43043,43060,43060,43075,43076,43093,43093,43109,43110,43125,43143,43160,43175,43176,43193,43210,43210,43210,43226,43226,43226,43226,43243,43243,43243,43260,43275,43293,43293,43310,43329,43329,43346,43346,43361,43361,43361,43376,43376,43393,43410,43410,43426,43443,43443,43459,43475,43476,43493,43493,43493,43510,43510,43526,43526,43543,43543,43559,43575,43576,43593,43610,43610,43610,43626,43643,43660,43660,43680,43693,43710,43726,43743,43760,43784,43816,43833" d="m404.5,327c1.70001,0 2.70001,0 3.60001,0c0.89999,0 1.79999,0 2.69998,0c0.90002,0 1.80002,0 2.70001,0c0.79999,0 1.79266,-0.35489 2.564,0.03601c0.69812,0.35379 1.11444,1.24921 1.72,1.87997c0.54999,0.57288 1.44159,0.95795 1.70532,1.69467c0.29977,0.83737 0.01135,1.78934 0.01068,2.68933c-0.00067,0.90002 -0.28497,1.75958 -0.64734,2.40002c-0.46442,0.82077 -1.19397,1.17862 -1.83182,1.82083c-0.63895,0.64328 -0.33496,1.78387 -0.80484,2.39514c-0.52301,0.68039 -1.1319,1.16656 -1.76868,1.73135c-0.70145,0.62216 -1.25534,1.11966 -1.89465,1.70532c-0.58325,0.53433 -1.45612,0.92786 -1.88602,1.64734c-0.46036,0.77048 -1.00415,1.34293 -1.51932,1.94733c-0.55096,0.64642 -0.53082,1.46082 -0.65182,2.35266c-0.11142,0.82135 -0.47757,1.63705 -1.04819,2.34283c-0.59109,0.73108 -0.62479,1.49557 -1.11398,2.19052c-0.50333,0.71503 -1.37402,1.04129 -1.83334,1.6875c-0.49548,0.69708 -0.6553,1.72253 -1.22134,2.35782c-0.53546,0.60098 -1.08554,1.16815 -1.49466,1.92133c-0.43323,0.79752 -1.11734,1.36667 -1.284,2.20001c-0.16666,0.83334 -0.78775,1.30646 -1.00134,2.19867c-0.1795,0.74982 -0.98001,1.23679 -0.99866,2.10132c-0.01938,0.89847 -0.49054,1.51047 -0.97467,2.13602c-0.57718,0.74579 -0.90262,1.55615 -1.02399,2.36398c-0.13651,0.90857 -0.74792,1.51764 -1.28534,2.116c-0.57343,0.63846 -1.23666,1.07358 -2.116,1.08401c-0.89993,0.01068 -1.80002,0 -2.70001,0c-0.89999,0 -1.69998,0 -2.60001,0c-0.89999,0 -1.73804,0.16281 -2.35266,0.64734c-0.64944,0.51199 -1.64734,0.35266 -2.54733,0.35266c-0.89999,0 -1.83481,-0.24289 -2.6955,0.00449c-0.76788,0.2207 -1.22519,0.98288 -2.10449,0.99551c-0.89542,0.01285 -1.47708,0.71698 -2.21066,0.98932c-0.83426,0.30972 -1.64819,0.43198 -2.48917,0.88934c-0.7475,0.40652 -1.18256,1.07855 -2.10019,1.12134c-0.89883,0.0419 -1.62711,0.35193 -2.15265,0.94733c-0.56326,0.63815 -1.07761,1.21274 -1.73135,1.76868c-0.61417,0.52228 -1.56989,0.76654 -2.30533,1.25867c-0.66946,0.44797 -1.34158,0.87695 -2,1.46133c-0.69318,0.61523 -0.99341,1.35129 -1.80933,1.56534c-0.80179,0.21033 -0.99423,1.31046 -1.60266,1.71332c-0.82144,0.54388 -1.5163,1.03192 -2.11465,1.56934c-0.63846,0.57343 -1.16809,1.13052 -1.73135,1.76868c-0.52554,0.5954 -1.12234,1.25287 -1.70532,1.89465c-0.52625,0.57932 -0.45245,1.37436 -0.64868,2.25134c-0.18057,0.80704 -1.07623,1.22739 -1.57333,1.82666c-0.5101,0.61496 -0.42532,1.57468 -0.42532,2.47467c0,0.89999 0,1.79999 0,2.70001c0,0.89999 0,1.79999 0,2.59998c0,0.90002 -0.24203,1.64835 -0.716,2.28403c-0.57324,0.76883 -0.49158,1.66116 -1.284,2.08264c-0.64063,0.34073 -1.41025,0.90781 -2.02533,1.40802c-0.61987,0.50412 -1.49142,0.58731 -2.05869,1.14133c-0.67371,0.65799 -1.22964,1.04355 -2.11465,1.28534c-0.79776,0.21793 -1.23688,0.97824 -2.20132,0.99866c-0.89981,0.01904 -1.63666,0.32614 -2.39999,0.716c-0.7529,0.38452 -1.66031,0.41986 -2.25269,0.93134c-0.65601,0.56641 -1.44559,0.90607 -2.26849,1.45267c-0.64142,0.42606 -1.20319,1.19885 -1.90033,1.77866c-0.63818,0.53076 -1.38116,0.72931 -2.07849,1.42133c-0.7027,0.69733 -1.19141,1.24149 -2.02151,1.80017c-0.67706,0.45569 -1.31082,0.74606 -2.07718,1.38516c-0.60654,0.50583 -1.44086,1.51041 -1.84866,2.11017c-0.38388,0.56454 -1.05521,1.40948 -1.75266,1.88367c-0.81268,0.55252 -1.4715,1.06195 -2.32132,1.62085c-0.6582,0.43286 -1.54031,0.86545 -2.15784,1.39999c-0.65271,0.565 -1.17593,1.29654 -2.12085,1.48932c-0.88235,0.18002 -1.6311,0.48718 -2.5,0.88934c-0.66202,0.30643 -1.42206,0.66174 -2.22165,1.44284c-0.52582,0.51367 -1.12448,1.1019 -1.845,1.6785c-0.76993,0.61612 -1.32431,0.99319 -2.14935,1.51468c-0.7543,0.47678 -1.65634,0.94131 -2.19733,1.284c-0.87488,0.5542 -1.74283,0.98129 -2.48666,1.36798c-0.78326,0.40717 -1.22366,1.2514 -2.10016,1.71219c-0.61646,0.32407 -1.55173,0.83722 -2.1105,1.30649c-0.78204,0.6568 -1.39563,1.0401 -2.13217,1.51016c-0.91391,0.58325 -1.45621,1.1041 -2.15717,1.8045c-0.60016,0.59967 -0.89041,1.37735 -1.56134,2.064c-0.62845,0.64319 -1.54062,0.36826 -2.41782,0.95685c-0.82394,0.55289 -1.27802,1.23633 -1.84216,1.80048c-0.67868,0.67868 -1.1716,1.21866 -1.92603,1.92151c-0.61838,0.57611 -1.41928,1.03384 -2.09998,1.45718c-0.91534,0.56927 -1.45169,1.09964 -2.15268,1.79999c-0.60028,0.59973 -1.1636,1.23898 -1.91068,1.89999c-0.72284,0.63956 -1.39194,1.04279 -2.10532,1.31467c-0.93869,0.35773 -1.71512,0.76184 -2.58401,1.164c-0.66202,0.30643 -1.29648,0.83881 -1.89999,1.60049c-0.49414,0.62369 -1.41736,0.61032 -2.02533,1.09552c-0.62451,0.49838 -1.57468,0.42532 -2.47467,0.42532l-0.89999,0" id="svg_6" stroke-width="2" stroke="#000" fill="none"/>
  <path t="46809,46880,46905,46921,46937,46969,46978,47009,47017,47033,47057,47081,47097,47097,47105,47121,47145,47161,47185,47193,47201,47232,47256,47280,47304,47305,47313,47325,47343,47359,47376,47393,47409,47432,47456,47464,47482,47494,47494,47509,47536,47584,47624,47624,47648,47673,47680" d="m422.5,270c-0.16666,1.83334 -0.76358,2.31116 -1.35266,2.94733c-0.53299,0.57559 -1.12671,1.16455 -1.70001,1.70001c-0.68521,0.64001 -0.62552,1.49057 -1.11398,2.186c-0.50232,0.71518 -0.67981,1.41513 -1,2.16666c-0.33282,0.78122 -0.98834,1.43356 -1.48068,2.05267c-0.51471,0.64728 -0.40717,1.64883 -0.85266,2.44733c-0.44467,0.797 -0.98669,1.3248 -1.5,2.02084c-0.5076,0.68832 -0.93912,1.57303 -1,2.47916c-0.05362,0.79819 0.36316,1.79691 -0.03601,2.564c-0.39514,0.7594 -0.96332,1.23734 -0.96399,2.13602c-0.00067,0.89999 0,1.79999 0,2.69998c0,0.89999 0,1.80002 0,2.70001c0,0.89999 0.39297,1.83035 -0.08533,2.61465c-0.49008,0.80365 -0.91467,1.38535 -0.91467,2.28534c0,0.79999 0,1.70001 -0.03601,2.564l-0.67999,0.52002" id="svg_7" stroke-width="2" stroke="#000" fill="none"/>
  <path t="50314,50488,50521,50521,50537,50569,50593,50593,50640,50649,50672,50681,50693,50712,50728,50760,50776,50784,50800,50816,50832,50843,50859,50876,50894,50909,50926,50944,50959,50977,50994,50994,51017,51041,51049,51059,51081,51098,51121,51145,51154,51161,51193,51217,51217,51241,51281,51298,51321,51337,51369,51369,51393,51425,51457,51473,51570,51594,51601" d="m307.5,257c-0.16666,1.83334 -1.10608,2.05789 -1.564,2.61066c-0.56763,0.68521 -0.70053,1.82071 -1.436,2.22269c-0.73563,0.40207 -1.6539,0.6492 -2.38934,1.14133c-0.66946,0.44797 -1.12869,1.18423 -1.69467,1.74133c-0.67111,0.66061 -1.30106,1.19186 -1.89066,1.70932c-0.63776,0.55972 -1.2254,1.04987 -1.85867,1.74133c-0.54761,0.59793 -1.40088,0.58643 -2.08264,1.11734c-0.62659,0.48795 -1.14426,1.15686 -1.65869,1.74133c-0.54871,0.62341 -0.85916,1.64948 -1.72531,1.91751c-0.86151,0.26663 -1.85349,-0.12421 -2.70001,0.22382c-0.67108,0.27591 -1.53632,0.76038 -2.29999,1.186c-0.74173,0.41339 -1.44659,0.96497 -1.98401,1.56332c-0.57343,0.63846 -1.26685,1.02411 -2.01599,1.43668c-0.83856,0.46179 -1.3833,1.0452 -2.05719,1.59467c-0.7034,0.57352 -1.41144,0.90451 -2.34283,1.04819c-0.8895,0.13721 -1.81299,-0.13757 -2.69998,0.01517c-0.83316,0.14346 -1.5874,0.9043 -2.39999,0.98798c-0.89529,0.09222 -1.80005,-0.00406 -2.70001,0.00134c-0.8894,0.00534 -1.5,0.5 -2.11066,0.98932l-0.8685,0.03152" id="svg_8" stroke-width="2" stroke="#000" fill="none"/>
  <path t="53306,53473,53497,53513,53537,53553,53569,53601,53617,53617,53633,53657,53681,53698,53713,53737,53737,53761,53777,53817,53833,53857,53873,53897,53905,53926,53942,53959,53976,53994,54010,54033,54033,54049,54073,54081,54113,54153,54185,54225,54273,54273,54305,54321,54321,54337,54345,54359,54377,54394,54409,54441,54441,54497,54537,54553,54553,54577,54593,54609,54633,54649,54705,54728,54737,54753,54769,54785,54794,54811,54827,54849,54849,54865,54881,54897,54929,54945,54945,54961,54977,55001,55017,55033,55049,55061,55078,55078,55094,55111,55128,55146,55163,55179,55180,55201,55212,55228,55245,55261,55281,55297,55313,55313,55328,55353,55363,55378,55395,55413,55413,55430,55430,55444,55461,55477,55494,55526,55526,55558,55558,55574,55574,55588,55588,55617,55633,55661,55665,55681,55681,55699,55714,55737,55785,55809,55841,55865,55874,55898" d="m283.5,171c0,-1.7 0,-2.60001 0,-3.5c0,-0.89999 0,-1.8 0,-2.7c0,-0.90001 0,-1.8 0,-2.60001c0,-0.89999 0,-1.8 0,-2.7c0,-0.89999 -0.13657,-1.85664 0.284,-2.7c0.32993,-0.66165 0.71375,-1.49998 0.716,-2.40001c0.00223,-0.89999 0,-1.79999 0,-2.7c0,-0.89999 0.11078,-1.80684 0,-2.7c-0.11151,-0.89923 -0.75955,-1.31367 -1.00134,-2.19867c-0.21793,-0.79776 -0.8924,-1.27533 -1.28265,-2.00133c-0.45947,-0.8548 -0.31262,-1.73666 -0.80133,-2.51466c-0.46487,-0.74008 -1.46307,-0.95467 -1.85751,-1.6425c-0.46988,-0.81941 -0.05716,-1.84283 -0.05716,-2.74284c0,-0.89999 -0.01346,-1.7502 -0.52084,-2.39999c-0.59967,-0.76801 -1.11353,-1.3344 -1.53183,-2.2c-0.39551,-0.81845 -1.30811,-1.15756 -1.89465,-1.65266c-0.66089,-0.55786 -1.37674,-0.97922 -2.05267,-1.64734c-0.58566,-0.57889 -0.88385,-1.44133 -1.284,-2.2c-0.45273,-0.85838 -0.69696,-1.50019 -0.716,-2.4c-0.02042,-0.96446 -0.81808,-1.39429 -0.99866,-2.20133c-0.19623,-0.87698 0.34171,-1.87724 -0.02219,-2.67783c-0.35147,-0.77322 -0.81125,-1.34773 -1.01517,-2.12083c-0.22568,-0.85564 -1.45428,-1.01986 -1.90683,-1.75717c-0.49423,-0.80527 -0.3833,-1.67948 -0.77316,-2.44283c-0.38452,-0.75288 -0.12689,-1.71571 -0.29468,-2.6c-0.17947,-0.94591 -0.9043,-1.58739 -0.98798,-2.4c-0.09219,-0.89526 -0.00134,-1.8 -0.00134,-2.7c0,-0.9 0,-1.8 0,-2.7c0,-0.9 0,-1.8 0,-2.60001c0,-0.89999 0.00534,-1.80001 0,-2.7c-0.00534,-0.90005 -0.45297,-1.60719 -0.83334,-2.5c-0.32019,-0.75154 -0.16666,-1.7 -0.16666,-2.6c0,-0.9 0,-1.8 0,-2.7c0,-0.89999 0,-1.8 0,-2.7c0,-0.8 0,-1.7 0,-2.6c0,-0.9 0,-1.8 0,-2.7045c0,-0.86217 0,-1.6955 0,-2.674c0,-0.82017 0,-1.7215 0,-2.6215c0,-0.9 0,-1.8 0,-2.709c0,-0.66167 0,-1.69633 0,-2.44034c0,-1.10783 0,-1.86533 0,-2.90333c0,-0.69467 0,-1.71133 0,-2.64734c0,-0.89999 0,-1.8 0,-2.7c0,-0.8 0,-1.7 0,-2.6c0,-0.9 0,-1.8 0,-2.7c0,-0.9 -0.00015,-1.79984 -0.22134,-2.57867l-0.72598,-0.474" id="svg_9" stroke-width="2" stroke="#000" fill="none"/>
  <path t="56201,56393,56401,56425,56443,56443,56465,56489,56513,56521,56537,56577,56601,56609,56617,56630,56647,56665,56705,56761,56785,56825,56833,57065" d="m256.5,49c-1.7,0 -2.43787,0.2454 -3.16667,0.83333c-0.69856,0.56353 -1.52376,0.59072 -2.3125,1.16667c-0.64027,0.46753 -1.34909,0.58732 -2.16367,1.05717c-0.68683,0.39617 -1.17494,1.17491 -1.35733,2.04267c-0.16653,0.79231 -0.92561,1.26999 -1.42517,1.87483c-0.54132,0.65541 -0.40738,1.63462 -0.93182,2.32084c-0.57339,0.75025 -1.52133,0.926 -1.64284,1.8045l0,0.9l-0.16667,0.83333" id="svg_10" stroke-width="2" stroke="#000" fill="none"/>
  <path t="58193,58320,58529,58561,58625,58625,58696,58745,58776,58824,58889,58913,58937,58961,59105,59185" d="m256.5,50c1.83334,-0.16667 2.21524,-0.93911 3.10001,-1c0.89786,-0.06179 1.70041,-0.02725 2.60001,0c0.94412,0.02859 1.28104,0.70469 1.29999,1.6c0.02042,0.96446 0.64734,1.45267 0.99866,2.20134l0.00134,0.89867l0.03601,0.9l0.38931,0.8" id="svg_11" stroke-width="2" stroke="#000" fill="none"/>
  <path t="60505,60568,60601,60616,60640,60665,60689,60728,60728,60753,60777,60785,60793,60809,60826,60849,60865,60876,60892,60909,60929,60941,60959,60959,60975,60992,61008,61009,61032,61041,61058,61058,61075,61091,61108,61126,61141,61158,61176,61176,61191,61192,61208,61209,61226,61226,61241,61242,61258,61258,61277,61292,61313,61325,61344,61360,61378,61392,61409,61425,61426,61444,61458,61477,61491,61509,61525,61543,61558,61593,61616,61624,61648,61665,61676" d="m243.5,61c0,1.8 0,2.7 0,3.6c0,0.9 0.095,1.80582 -0.00133,2.6c-0.11156,0.91976 -0.82935,1.56963 -0.98801,2.4c-0.18114,0.94798 -0.82877,1.39429 -1.00934,2.20133c-0.19623,0.87698 -0.00133,1.79867 -0.00133,2.69867c0,0.9 0.07878,1.8548 -0.42534,2.47467c-0.50021,0.61507 -1.11784,1.22863 -1.45316,2.12533c-0.31808,0.85064 0.28123,1.83641 -0.20683,2.61467c-0.46432,0.74041 -0.72893,1.32784 -1,2.08533c-0.32246,0.90111 -1.26997,1.29762 -1.748,2.2c-0.34338,0.64822 -0.62708,1.52361 -1.114,2.2955c-0.44312,0.70244 -0.9928,1.25531 -1.40533,2.0045c-0.46181,0.83869 -0.77386,1.7319 -1.25801,2.3c-0.63933,0.75017 -1.22194,1.26516 -1.68933,2.05717c-0.4308,0.73001 -0.77858,1.55405 -1.2,2.322c-0.47615,0.86769 -1.02176,1.47953 -1.69867,2.22083c-0.53362,0.58438 -0.60832,1.52868 -0.83733,2.4c-0.22493,0.85584 -1.26582,1.16174 -1.88,1.684c-0.65376,0.55592 -1.02412,1.26682 -1.43666,2.01601c-0.46181,0.83869 -0.85904,1.67174 -1.222,2.3c-0.48857,0.84566 -1.18404,1.34142 -1.42084,2.1045c-0.25504,0.82179 -0.69321,1.39418 -1.0885,2.09683c-0.45959,0.81694 -0.89734,1.59814 -0.916,2.49867c-0.01863,0.89848 -0.35266,1.64733 -0.964,2.13599l-0.04666,0.95334l-0.48933,0.61066" id="svg_12" stroke-width="2" stroke="#000" fill="none"/>
  <path t="63545,63680,63705,63712,63752,63768,63792,63808,63816,63816,63848,63872,63888,63928,63952,63968,63992,64024,64024,64048,64057,64080,64104,64112,64129,64144,64184,64192,64224,64240,64264,64288,64288,64304,64312,64336,64376,64400,64400,64432,64440,64456,64480,64496,64513,64513,64524,64543,64558,64575,64592,64610,64610,64624,64649,64649,64688,64688,64712,64728,64728,64753,64753,64760,64777,64792,64792,64809,64842,64880,64888,64908,64928,64944,64959,64976,64992,65010,65010,65025,65049,65066,65081,65093,65120,65144,65176,65176,65184,65376,65384,65409,65424,65425,65443,65474,65512,65512,65536,65544,65560,65584,65824,65904,66040,66072,66096,66136,66136,66176,66200,66224,66240,66256,66304,66312,66312,66344,66360,66384,66456,66512,66537,66537,66568,66585,66648,66704,66704,66712,66752,66792,66824,66864,66873,66960,66968,67024,67040,67064,67088,67105,67128,67152,67152,67184,67216,67232,67264,67273,67568,67600,67600,67640,67672,67864,67928,67969,67969,68393,68409,68441,68473,68513,68585,68649,68649,68673,68713,68745,68769,68785,68825,68857,68857,68897,68937,68961,68961,69033,69073,69081,69105,69145,69161,69185,69201,69209,69230,69230,69254,69273,69274,69329,69329,69345,69377,69473,69481,69501,69521" d="m224.5,202c0,-1.7 0,-2.60001 0,-3.5c0,-0.89999 0,-1.8 0,-2.7c0,-0.90001 0,-1.8 0,-2.60001c0,-0.89999 0,-1.8 0,-2.7c0,-0.89999 0,-1.8 0,-2.7c0,-0.90001 0,-1.8 0,-2.60001c0,-0.89999 0,-1.8 0,-2.7c0,-0.89999 -0.01067,-1.88933 -0.5,-2.5c-0.48933,-0.61067 -0.21091,-1.55197 -0.51067,-2.38933c-0.26375,-0.73676 -0.90886,-1.28615 -1.42534,-2.01067c-0.56,-0.78555 -1.0094,-1.41803 -1.58932,-2.164c-0.48549,-0.6245 -0.98767,-1.28711 -1.4955,-1.936c-0.60052,-0.76735 -1.31084,-1.27155 -1.47467,-2.2c-0.1503,-0.85179 -0.55328,-1.51462 -1.17117,-2.13333c-0.61838,-0.6192 -1.0264,-1.29071 -1.53783,-1.86667c-0.65021,-0.73227 -1.06261,-1.59729 -1.5795,-2.216c-0.54884,-0.65695 -0.54408,-1.45952 -1.00134,-2.284c-0.3838,-0.69206 -1.05965,-1.33879 -2.036,-1.67867c-0.65111,-0.22665 -1.70486,-0.27864 -2.37416,-0.82584c-0.65695,-0.53709 -1.3045,-1.2955 -1.90451,-1.89551c-0.59999,-0.59999 -1.12544,-1.28642 -1.89999,-1.87917c-0.73483,-0.56235 -1.20256,-1.01952 -1.55267,-1.81549c-0.35806,-0.81404 -1.25854,-1.09322 -1.78065,-1.87201c-0.47324,-0.70589 -0.61642,-1.37862 -1.08134,-2.11867c-0.48804,-0.77686 -0.53329,-1.46509 -1.06,-2.15067c-0.50214,-0.65363 -0.91458,-1.55444 -1.024,-2.364c-0.1208,-0.89377 -0.68396,-1.62341 -0.94417,-2.5c-0.2282,-0.76874 -0.50513,-1.45042 -1.03183,-2.136c-0.50214,-0.65363 -0.9128,-1.55469 -1.024,-2.364c-0.11501,-0.83699 -0.67876,-0.91382 -1.28532,-0.284c-0.5535,0.57472 -1.29855,0.93871 -2.06784,1.13667c-0.90775,0.23361 -1.37152,1.11281 -1.81483,1.94733c-0.33675,0.6339 -1.29617,0.66052 -2.22266,1.01067c-0.73201,0.27664 -0.94447,1.28862 -1.69467,1.70534c-0.69684,0.38707 -1.36397,-0.46643 -1.89067,-1.15201c-0.50214,-0.65363 -0.94029,-1.55139 -1.024,-2.364c-0.09221,-0.89526 -0.00133,-1.8 -0.00133,-2.7c0,-0.89999 -0.09088,-1.80473 0.00133,-2.7c0.08371,-0.81261 0.79886,-1.45261 0.97784,-2.3c0.18605,-0.8808 0.02083,-1.8 0.02083,-2.7c0,-0.9 0,-1.8 0,-2.60001c0,-0.89999 -0.31448,-1.58714 -0.83333,-2.36666c-0.47089,-0.70746 0.29889,-1.81287 -0.252,-2.548c-0.46191,-0.6164 -1.47374,-0.49505 -2.136,-1.164c-0.61,-0.61616 -1.16626,-1.1363 -1.804,-1.696c-0.5896,-0.51744 -1.25766,-1.09653 -1.85333,-1.64667c-0.63695,-0.58826 -0.94992,-1.23087 -1.132,-2.17867c-0.15935,-0.82941 -1.02023,-1.35198 -1.68933,-1.65266c-0.82913,-0.3726 -1.19072,-1.28643 -1.72534,-1.922c-0.5462,-0.64935 -0.96252,-1.33655 -1.74133,-1.85867c-0.70589,-0.47323 -1.63333,-0.16666 -2.53333,-0.16666c-0.90001,0 -1.86958,-0.11144 -2.60001,0.35717c-0.79991,0.51319 -1.21448,1.69229 -2.08932,1.59616c-0.75227,-0.08266 -0.61067,-1.35333 -0.61067,-2.25333c0,-0.89999 0,-1.8 0,-2.7c0,-0.8 -0.3707,-1.42895 -0.87849,-2.2215c-0.47844,-0.74674 0.20056,-1.9166 -0.28818,-2.61184c-0.50327,-0.7159 -1.0264,-1.2907 -1.53783,-1.86666c-0.65021,-0.73227 -1.09549,-1.54609 -1.46217,-2.3c-0.3714,-0.76361 -0.91432,-1.39906 -1.48067,-2.05267c-0.52007,-0.60019 -1.11623,-1.25849 -1.70532,-1.89467c-0.53299,-0.57558 -1.19814,-0.9928 -1.94734,-1.40533c-0.8387,-0.46181 -1.80753,-0.70404 -2.26399,-1.258c-0.6358,-0.7716 -1.00264,-1.59354 -1.62134,-1.98933c-0.78975,-0.50522 -1.62888,-0.84359 -2.37866,-1.42533c-0.62495,-0.48489 -1.26933,-1.14133 -1.436,-1.97467l-0.16667,-0.83334l-0.74933,-0.45066" id="svg_13" stroke-width="2" stroke="#000" fill="none"/>
  <path t="69690,69809,69881,69881,69889,69915,69954,70065,70409,70433,70447,70537,70545,70577,70673,70673,70697,70737,70801,70849,70873,70905,70905,70953,70985,71009,71065,71105,71161,71193,71233,71233,71265,71329,71401,71409,71441,71481,71521,71561,71625,71673,71697,71777,71801,71865,71929,72001,72025,72025,72057,72105,72129,72161,72201,72241,72257,72265,72281,72305,72314,72324,72341,72357,72391,72407,72441,72442,72465,72481,72505,72529,72561,72577,72601,72609,72641,72657,72681,72713,72713,72729,72761,72774,72791,72825,72858,72874,72875,72875,72891,72925,72941,72942,72957,72958,72992,72992,73007,73008,73042,73042,73075,73107,73108,73124,73125,73125,73142,73142,73174,73175,73193,73193,73225,73225,73258,73258,73258,73275,73275,73308,73308,73324,73325,73359,73359,73375,73375,73375,73408,73408,73408,73442,73442,73458,73458,73458,73492,73492,73513,73513,73542,73575,73575,73592,73592,73608,73608,73608,73625,73625,73642,73642,73642,73658,73658,73658,73674,73691,73692,73692,73707,73708,73725,73725,73725,73741,73742,73742,73757,73758,73758,73758,73775,73775,73775,73792,73792,73808,73808,73825,73825,73849,73873,73889,73913,73929,73929,73945,73961,73977,73985,73993,74009,74025,74025,74042,74058,74075,74075,74091,74107,74108,74124,74125,74142,74142,74158,74158,74158,74175,74175,74175,74192,74208,74208,74225,74242,74242,74265,74265,74274,74292,74313,74337,74353,74360,74361,74383,74392,74417,74433,74449,74458,74497,74505,74525,74593,74617,74657,74657,74681,74705" d="m141.5,80c-1.2215,-0.87867 -2.21394,-1.11781 -2.64284,-1.7045c-0.55521,-0.75948 -0.80881,-1.6255 -1.52383,-2.12884c-0.69492,-0.48918 -1.34943,-0.84873 -2.11732,-1.07999c-0.73656,-0.22182 -1.19539,1.0252 -1.76868,1.56066c-0.68523,0.64 -1.16792,1.31935 -1.52199,1.95267c-0.48151,0.86127 -0.42534,1.8 -0.42534,2.7c0,0.89999 0,1.8 0,2.7c0,0.8 0,1.7 0,2.6c0,0.9 0,1.8 0,2.7c0,0.89999 0,1.8 0,2.7c0,0.8 0,1.7 0,2.6c0,0.9 0.01067,1.78934 0.5,2.4c0.48933,0.61066 0.19009,1.55972 0.51067,2.38934c0.30638,0.79291 0.98708,1.31516 0.98933,2.21066c0.00226,0.9 0,1.8 0,2.7c0,0.89999 0,1.8 0,2.7c0,0.8 0,1.7 0,2.6c0,0.9 0,1.8 0,2.7c0,0.89999 0.08868,1.80437 0,2.7c-0.08374,0.8457 -0.79269,1.23772 -1.00017,2.09983c-0.20218,0.84013 -0.97124,1.25604 -0.99983,2.20017c-0.02724,0.89958 0,1.8 0,2.7c0,0.8 0,1.7 0,2.6c0,0.9 0,1.8 0,2.7c0,0.89999 0.08868,1.80438 0,2.7c-0.08374,0.8457 -0.9391,1.21523 -1,2.10001c-0.0618,0.89787 0,1.7 0,2.59999c0,0.90001 -0.12752,1.76758 -0.64734,2.35268c-0.50981,0.57382 -0.95686,1.4528 -1.18599,2.28065c-0.24716,0.89304 -0.03473,1.66995 -0.168,2.69467c-0.11334,0.87148 -0.87289,1.41585 -1.024,2.19333c-0.1904,0.97961 -0.51421,1.74345 -0.80801,2.612c-0.26409,0.78072 -0.74044,1.64589 -1.16666,2.16667c-0.6759,0.82585 -0.88585,1.59821 -1.02084,2.52083c-0.11951,0.81686 -0.5605,1.49988 -0.8125,2.64584c-0.16962,0.77133 -0.08274,1.59535 -0.33333,2.5c-0.23444,0.84634 -0.76233,1.64998 -0.82267,2.54399c-0.06662,0.98698 -0.01067,1.76851 -0.01067,2.62267c0,0.828 0.029,1.71056 -0.02084,2.6875c-0.04071,0.79808 -0.2528,1.79607 -0.47916,2.4375c-0.36219,1.02631 -0.51717,1.80696 -0.85267,2.69434c-0.26685,0.70583 -0.61753,1.60222 -0.646,2.40201c-0.03552,0.99803 -0.00134,1.96616 -0.00134,2.6445c0,0.9675 0.00043,2.02882 0,2.69183c-0.00067,1.01033 0.00766,1.85217 -0.16666,2.77567c-0.14901,0.78938 -0.4756,1.55579 -0.71184,2.69049c-0.15604,0.7495 -0.1215,1.62683 -0.1215,2.49017c0,1.01666 0,1.85533 0,2.62334c0,1.03915 0,1.81467 0,2.86266c0,0.7095 0,1.56216 0,2.56801c0,0.83466 0,1.76534 0,2.55133c0,0.82201 0,1.88066 0,2.80066c0,0.76001 0,1.7675 0,2.78951c0,0.71851 -0.0117,1.50906 0.00017,2.53568c0.01041,0.90085 0.15618,1.92476 0.3525,2.526c0.28003,0.85757 0.5537,1.81454 0.61133,2.63148c0.06115,0.86693 0.036,1.76401 0.036,2.664c0,0.90001 0,1.5 0,2.69867c0,0.88051 0,1.716 0,2.716c0,0.87466 -0.05529,1.88861 0.02084,2.66451c0.08462,0.86238 0.72603,1.54813 0.94316,2.42082c0.21748,0.87408 -0.04612,1.80377 0.03617,2.70001c0.08368,0.91144 0.64716,1.59999 0.99983,2.39999c0.35267,0.8 0.85013,1.60429 1,2.5c0.14025,0.83818 0.72903,1.29579 1.2215,2.09984c0.37958,0.61972 1.44484,0.81618 2.1785,1.33617c0.78707,0.55785 1.19286,1.14305 2.1,1.564c0.79845,0.37051 1.38461,0.80244 2.15266,1.3045c0.69402,0.45367 1.44537,1.1931 1.97267,1.87016c0.52385,0.67265 1.22572,1.17805 1.976,1.70934c0.81436,0.57666 1.3824,1.1113 1.91333,1.632c0.73453,0.72038 1.43268,1.54582 1.98534,1.96317c0.7397,0.55859 1.68846,0.82382 2.25717,1.22533c0.87651,0.61882 1.63435,0.83112 2.48116,1.24283c0.78952,0.38387 1.28235,1.04005 2.16167,1.05267c0.89993,0.01291 1.73836,0.38608 2.40001,0.716c0.84335,0.42055 1.87857,-0.05907 2.67917,0.30482c0.77324,0.35146 1.34824,0.56796 2.16367,1.03633c0.81198,0.46638 1.49506,0.62106 2.19049,1.10951c0.71518,0.50232 1.26668,0.83333 2.16667,0.83333l0.8,0l0.89999,0l0.90001,0" id="svg_14" stroke-width="2" stroke="#000" fill="none"/>
  <path t="82625,82768,82792,82848,82888,82912,82928,82952,82960,82960,82984,83000,83016,83040,83064,83088,83104,83104,83136,83160,83192,83208,83216,83232,83240,83258,83274,83291,83308,83308,83325,83325,83341,83341,83358,83374,83424,83440,83480,83504,83504,83536,83568,83584,83624,83640,83664,83665,83680,83720,83736,83744,83760,83784,83800,83816,83816,83856,83880,83920,83944,83976,83984,84024,84048,84073,84112,84128,84144,84160,84200,84200,84217,84225,84256,84280" d="m196.5,219c0,-1.7 0,-2.60001 0,-3.5c0,-0.89999 0,-1.8 0,-2.7c0,-0.90001 0,-1.8 0,-2.60001c0,-0.89999 0,-1.8 0,-2.7c0,-0.89999 -0.10696,-1.80653 0.00133,-2.7c0.11148,-0.91978 0.67715,-1.61554 1.024,-2.40001c0.36169,-0.81802 0.75468,-1.69676 1.32733,-2.34732c0.51833,-0.58884 1.25604,-0.67046 2.12651,-1.0735c0.72946,-0.33777 1.0426,-1.32542 1.39949,-2.07918c0.40437,-0.85406 0.70488,-1.52797 1.42584,-2.2c0.56061,-0.52257 1.44252,-0.87155 2.12616,-1.5c0.70795,-0.6508 1.36014,-1.20088 1.56801,-2.00133c0.21204,-0.81645 0.87279,-1.35861 1.00133,-2.19867c0.12169,-0.79529 0.74695,-1.53717 0.964,-2.39999c0.21976,-0.8735 0.036,-1.8 0.036,-2.70001c0,-0.89999 0,-1.7 0,-2.59999c0,-0.90001 0,-1.8 0,-2.7c0,-0.90001 0,-1.8 0,-2.70001c0,-0.89999 0,-1.7 0,-2.59999c0,-0.90001 0.00226,-1.8 0,-2.7c-0.00226,-0.89552 -0.66348,-1.40994 -0.97917,-2.12083c-0.38931,-0.87669 -0.78024,-1.42036 -1.01633,-2.18367c-0.26488,-0.8564 -0.53192,-1.64124 -0.9205,-2.4955c-0.34712,-0.76312 -0.73134,-1.5 -1.10933,-2.364l-0.62201,-0.48868l-0.35133,-0.74866l-0.00133,-0.89867" id="svg_16" stroke-width="2" stroke="#000" fill="none"/>
  <path t="88297,88417,88545,88569,88585,88769" d="m160.5,250c1.8,0 2.7,0 3.60001,0l0.79999,-0.01067l0.90001,-0.342" id="svg_17" stroke-width="2" stroke="#000" fill="none"/>
  <path t="89745,89840,89857,89873,89945,89945,89969,90024,90041,90041,90065,90129,90129,90137,90169,90193,90225,90265,90289,90305,90425,90425,90473,90537" d="m174.5,249c-0.16667,1.83333 -0.68381,2.39722 -1.35716,2.94733c-0.70229,0.57375 -1.08754,1.01775 -1.72684,1.76733c-0.56786,0.66583 -1.0407,1.3188 -1.52667,1.88535c-0.63756,0.74326 -1.38148,1.27728 -2.18933,1.39865c-0.90855,0.13651 -1.41522,0.94046 -2.3,1.00134c-0.89787,0.0618 -1.44756,0.44614 -2.18533,0.91467c-0.69147,0.43912 -1.71466,0.08533 -2.51466,0.08533l-0.91466,-0.08533l-0.50684,-0.79318" id="svg_18" stroke-width="2" stroke="#000" fill="none"/>
  <path t="93544,93879,93920,93936,93957,93989,94022,94023,94056,94080,94091,94123,94157,94157,94157,94172,94173,94206,94240,94240,94272,94272,94296,94296,94323,94357,94390,94390,94390,94406,94407,94407,94439,94440,94473,94473,94507,94507,94540,94573,94573,94607,94640,94640,94672,94672,94690,94723,94756,94757,94790,94823,94823,94840,94840,94873,94907,94907,94940,94940,94973,94973,95007,95007,95007,95028,95029,95053,95054,95078,95101,95101,95128,95128,95128,95150,95150,95176,95176,95200,95200,95220,95241,95266,95266,95266,95288,95288,95359,95359,95367,95367,95385,95409,95410,95410,95410,95431,95432,95432,95471,95479,95502,95525,95567,95568,95592,95592,95607,95618,95624,95649,95649,95669,95759,95759,95767,95872,95879,95897,95897,95921,95922,95946,96103,96127,96160,96173,96279,96304" d="m118.5,184c-1.83334,0.16667 -2.23772,0.79269 -3.09983,1.00017c-0.84013,0.20218 -1.30457,0.84709 -2.10017,1.28383c-0.64812,0.35577 -1.63558,0.59491 -2.27917,1.23683c-0.64086,0.63922 -0.97768,1.45824 -1.85417,1.47917c-0.67182,0.01605 -1.71638,-0.11833 -2.696,0.28534c-0.72418,0.29842 -1.17271,1.17657 -2.071,1.59332c-0.66665,0.30928 -1.68169,0.3645 -2.37883,0.64217c-1.04766,0.41728 -1.50124,1.07886 -2.22533,1.53185c-0.68555,0.42886 -1.45621,1.12009 -1.95267,1.59999c-0.54702,0.52879 -1.53522,1.33748 -2.13217,1.71133c-0.71665,0.44882 -1.47121,0.92633 -2.09467,1.52133c-0.78572,0.74986 -1.28529,1.29475 -1.94933,1.948c-0.64069,0.63026 -1.52613,0.97978 -2.26666,1.38817c-0.67448,0.37196 -1.2823,1.19675 -1.9,1.7785c-0.61881,0.58279 -1.48128,0.95287 -2.34734,0.9955c-0.89443,0.04404 -1.92196,-0.18439 -2.75266,0.226c-0.69058,0.34116 -1.2823,1.19675 -1.9,1.7785c-0.61881,0.58279 -1.48128,0.95288 -2.34734,0.9955c-0.89892,0.04424 -1.81933,0.0045 -2.65266,0.0045c-0.97867,0 -1.75267,0 -2.66167,0c-0.8,0 -1.76009,-0.01729 -2.56367,0.01067c-0.82281,0.02863 -1.86134,0.18558 -2.733,0.48933c-0.88419,0.30814 -1.64988,0.48915 -2.44167,0.92534c-0.824,0.45393 -1.57423,0.64491 -2.36933,0.85866c-0.75512,0.203 -1.54099,0.47287 -2.7735,0.66333c-0.64355,0.09944 -1.65963,0.26675 -2.43634,0.55267c-1.00282,0.36916 -1.8195,0.49933 -2.72083,0.5c-0.84167,0.00063 -1.84324,-0.01569 -2.56133,0.01067c-0.79133,0.02904 -1.82534,0.18558 -2.697,0.48933c-0.88419,0.30814 -1.66695,0.49466 -2.52567,0.5c-0.86332,0.00536 -1.77995,-0.06215 -2.84933,0.16667c-0.69149,0.14796 -1.4884,0.44279 -2.06934,0.63466c-1.19549,0.39485 -2.04871,0.70193 -2.82666,0.91333c-0.94877,0.25781 -1.99456,0.03049 -2.64933,0.50667c-0.7022,0.51068 -1.44694,0.72073 -2.12133,0.7995c-0.99209,0.11588 -1.69587,0.62569 -2.5,0.97917c-0.80036,0.35184 -1.65896,0.73586 -2.5,1.16667c-0.66433,0.3403 -1.19741,1.29909 -2,1.66666c-0.74272,0.34015 -1.54779,0.3829 -2.16667,1c-0.62,0.61823 -1.28526,1.0051 -2.01867,1.192c-1.07401,0.27371 -1.53828,0.86345 -2.31467,1.45384c-0.73473,0.55872 -1.47467,0.94617 -2.02083,1.5l-0.87917,0.02083l-0.9,0l-0.9,0" id="svg_19" stroke-width="2" stroke="#000" fill="none"/>
  <path t="97856,98063,98071,98087,98103,98112,98127,98143,98159,98159,98199,98224,98234,98247,98263,98279,98303,98343,98343,98359,98383,98392,98431,98447,98463,98480,98503,98503,98511,98527,98528,98551,98575,98607,98623,98647,98647,98719,98744,98760" d="m259.5,170c-1.70001,0 -2.60001,0 -3.5,0c-0.89999,0 -1.8,0 -2.7,0c-0.90001,0 -1.8,0 -2.60001,0c-0.89999,0 -1.8,0 -2.7,0c-0.89999,0 -1.8,0 -2.7,0c-0.90001,0 -1.8,0 -2.60001,0c-0.89999,0 -1.8,0 -2.7,0c-0.89999,0 -1.8,0 -2.7,0c-0.90001,0 -1.8,0 -2.60001,0c-0.95717,0 -1.85266,0 -2.716,0c-0.96317,0 -1.784,0 -2.68399,0c-0.90001,0 -1.8,0 -2.60001,0l-0.89999,0l-0.90001,0l-0.89999,0" id="svg_20" stroke-width="2" stroke="#000" fill="none"/>
  <path t="101512,101703,101703,101719,101728,101752,101783,101799,101815,101824,101848,101863,101873,101896,101906,101924,101941,101956,101956,101974,101992,102006,102039,102055,102064,102080,102090,102106,102129,102140,102168,102193,102209,102232,102304,102320,102336,102361,102384,102392,102392,102576,102609" d="m218.5,116c-1.16667,1 -1.69856,1.42117 -2.47917,2c-0.63683,0.47221 -1.20953,1.09868 -1.60483,1.80133c-0.45959,0.81694 -0.89067,1.58801 -1.416,2.19867c-0.52533,0.61066 -0.95641,1.38173 -1.416,2.19867c-0.39529,0.70265 -1.12054,1.17059 -1.65866,1.82666c-0.47374,0.57758 -0.18942,1.68726 -0.51067,2.40533c-0.34097,0.76218 -0.51196,1.50714 -1,2.284c-0.46492,0.74005 -0.5923,1.43913 -1.136,2.164c-0.48232,0.64302 -0.61932,1.41922 -1.13133,2.06866c-0.48456,0.61462 -0.61812,1.37314 -1.14734,2.05267c-0.49496,0.63553 -1.11813,1.31033 -1.41467,2.2c-0.28587,0.85765 0.25174,1.9489 -0.252,2.63333c-0.48059,0.65298 -0.83333,1.26668 -0.83333,2.16667l0,0.8l0,0.89999l0,0.90001" id="svg_21" stroke-width="2" stroke="#000" fill="none"/>
  <path t="106376,106488,106496,106507,106537,106542,106556,106584,106616,106632,106640,106656,106656,106673,106689,106689,106705,106723,106738,106738,106755,106773,106788,106789,106805,106823,106823,106838,106838,106839,106857,106873,106889,106905,106923,106923,106923,106938,106939,106939,106955,106956,106973,106973,107008,107008,107032,107040,107055,107073,107088,107089,107113,107144,107144,107152,107168,107176,107189,107189,107189,107206,107206,107223,107223,107238,107238,107256,107256,107280,107288,107306,107323,107323,107338,107339,107356,107356,107376,107376,107392,107392,107406,107423,107438,107439,107456,107456,107456,107473,107473,107489,107490,107490,107490,107506,107507,107523,107538,107571,107571,107580,107580,107580,107590,107606,107624,107624,107638,107656,107657,107673,107673,107689,107690,107690,107690,107706,107706,107706,107706,107723,107723,107723,107739,107760,107792,107800,107823,107839,107840,107857,107857,107896,107896,107928,107937,107956,107956,107973,107973" d="m228.5,401c-1.83333,0.16666 -2.30554,0.76968 -2.94733,1.35266c-0.57932,0.52625 -1.442,0.65802 -2.05267,1.14734c-0.61067,0.48932 -1.53474,0.44708 -2.3,0.85266c-0.8459,0.4483 -1.70018,0.63013 -2.5,0.64734c-0.83658,0.01801 -1.67021,0.31863 -2.54733,0.64734c-0.88303,0.3309 -1.75267,0.35266 -2.65266,0.35266c-0.8,0 -1.7,0 -2.636,0c-0.84799,0 -1.71133,0 -2.61133,0c-0.91934,0 -1.78928,-0.06122 -2.75267,0.16666c-0.80833,0.19119 -1.48982,0.66855 -2.47917,0.8125c-0.91145,0.13263 -1.82083,0.02084 -2.72217,0.02084c-0.96533,0 -1.64532,0 -2.48532,0c-0.99734,0 -1.81334,0 -2.62933,0c-0.99867,0 -1.87334,0 -2.88383,0c-0.77934,0 -1.77867,0 -2.59883,0c-0.90134,0 -1.80135,0 -2.70134,0c-0.91066,0 -1.82133,0 -2.5,0c-1.11467,0 -2.0004,0.02536 -2.8,0c-0.90135,-0.02859 -1.64861,-0.60242 -2.40134,-0.91599c-0.92065,-0.38351 -1.61674,-0.56177 -2.39999,-0.80002c-0.98074,-0.29834 -1.8145,-0.27655 -2.79866,-0.56799c-0.81613,-0.2417 -1.5932,-0.60071 -2.38934,-0.67999c-1.03947,-0.10352 -1.90622,-0.0253 -2.81067,-0.03601c-0.87935,-0.01044 -1.40012,-0.74362 -2.27199,-0.96399c-0.70918,-0.17926 -1.72801,-0.03601 -2.528,-0.03601c-1,0 -1.8,0 -2.79984,0c-0.77934,0 -1.81766,0.17862 -2.59883,-0.08533c-0.88954,-0.30057 -1.66475,-0.7598 -2.40268,-1.20132c-0.62741,-0.37543 -1.27373,-1.20822 -1.81949,-1.71335c-0.57001,-0.52756 -1.58131,-1.25131 -2.21516,-1.62534c-0.92726,-0.54715 -1.45367,-0.84802 -2.24318,-1.37466c-0.75836,-0.50586 -1.49194,-1.19653 -2.21182,-1.63834c-0.73909,-0.45361 -1.32726,-1.03717 -2.19167,-1.34698c-0.77766,-0.27872 -1.8112,-0.56262 -2.32133,-0.87601c-0.74867,-0.45993 -1.33054,-1.42767 -1.96268,-1.97202c-0.68011,-0.58566 -1.53378,-0.81296 -2.33333,-1.16666c-0.80498,-0.35611 -1.38136,-0.80746 -2.16167,-1.30899c-0.79601,-0.51163 -1.51031,-1.01816 -2.2955,-1.69635c-0.56754,-0.4902 -1.11516,-1.03448 -2.04283,-1.66132c-0.57997,-0.39188 -1.47739,-0.79608 -2.04283,-1.02435c-1.03247,-0.41684 -1.92078,-0.83408 -2.55583,-1.02365c-1.15782,-0.34561 -1.86298,-0.67438 -2.568,-1.11868c-0.71897,-0.45313 -1.45473,-0.59418 -2.27634,-1.04517c-0.68919,-0.3783 -1.76028,-0.06619 -2.53616,-0.14233c-0.86239,-0.08463 -1.5984,-0.57864 -2.42084,-0.95383c-0.88811,-0.40515 -1.6,-0.85867 -2.35716,-1.02084l-0.8955,-0.00449l-0.86333,0" id="svg_22" stroke-width="2" stroke="#000" fill="none"/>
  <path t="112864,113032,113056,113080,113160,113200,113232,113272,113296,113305" d="m300.5,264c0,1.79999 0.01068,2.70007 0,3.60001c-0.01044,0.87933 -0.57468,1.42532 -1.08401,2.116l-0.71732,0.36801l-0.76266,0.52664l-0.41068,0.77869" id="svg_23" stroke-width="2" stroke="#000" fill="none"/>
  <path t="114288,114400,114400,114416,114432,114456,114480,114488,114506,114528,114544,114544,114556,114584,114592,114672,114688,114704,114712" d="m293.5,272c-1.16666,1 -1.59885,1.58838 -1.97467,2.39999c-0.40918,0.88364 -1.2847,1.07666 -1.85867,1.76666c-0.54349,0.65335 -0.56409,1.50305 -1.08264,2.11868c-0.56039,0.66534 -1.06613,1.14621 -1.72684,1.76733c-0.60394,0.56778 -0.4425,1.66199 -1.19052,2.11398l-0.45065,0.74933l-0.66333,0.44119l-0.33667,0.84283" id="svg_24" stroke-width="2" stroke="#000" fill="none"/>
  <path t="115464,115495,115512,115521,115608,115624,115640,115640,115648,115664,115680,115712,115728,115736" d="m282.5,279c-1.71466,1.08401 -1.60696,1.93182 -2.08533,2.71466c-0.49084,0.80325 -1.35663,1.07092 -2.11334,1.57068c-0.60892,0.40216 -0.68024,1.55026 -1.32217,2.19382c-0.63922,0.64084 -1.45383,0.94617 -2,1.52084l-0.77914,0.35266" id="svg_25" stroke-width="2" stroke="#000" fill="none"/>
 </g>
 <g display="none">
  <title>muse_image</title>
  <image xlink:href="http://farm3.static.flickr.com/2002/1765001576_f3b6f94bde.jpg" id="muse" height="480" width="640" y="0" x="0"/>
 </g>
 <g display="none">
  <title>bbox</title>
  <rect stroke="#f00" fill="none" stroke-width="3" height="456.96" width="456.96" y="21.76" x="0" id="bbox"/>
 </g>
</svg>
