<svg width="640" height="480" xmlns="http://www.w3.org/2000/svg" xmlns:svg="http://www.w3.org/2000/svg" xmlns:xlink="http://www.w3.org/1999/xlink">
 <!-- Sketchy ANNOTATION
  ImageNet ID: n02395406_3109
  URL: http://www.animalbase.uni-goettingen.de/animalbaseimage/Sus-scrofa_03.jpg
  Image Width: 700
  Image Height: 459
  BBox X: 36
  BBox Y: 31
  BBox Width: 624
  BBox Height: 404
  Exposure: 2000ms
  Synset Label: pig
  Synset ID: n02395406
  Worker Tag: wild brown pig
  Sanity Check: 
   Context
   Saved
   Shading
  Comment: 
   {}
  Worker ID: A2HM35CWB7IIFM
  Assignment ID: 3NGMS9VZTLIN6TO4YW55VCMUFKCFFI
  HIT ID: 3VADEH0UHCX6ERKQSHW7PLOS6A3SP5
  Work Time: 118s
  Worker Score: 0.9286
 END ANNOTATION -->
 <g display="inline">
  <title>Layer 1</title>
  <path t="0,203,203,204,204,215,215,215,215,215,226,226,226,226,227,241,241,241,241,241,252,252,252,252,263,263,263,263,264,264,264,276,276,276,276,276,276,276,276,292,292,292,292,292,293,301,301,302,302,302,316,316,316,326,326,326,326,342,342,350,350,351,351,361,362,362,362,362,375,375,375,375,375,375,375,375,392,392,392,392,392,392,392,393,393,399,399,399,399,400,400,400,400,400,410,410,411,411,411,425,426,426,426,442,448,448,460,460,474,491,491,497,497,497,497,509,509,509,509,510,525,525,525,526,526,526,534,534,535,535,535,535,546,546,546,559,559" d="m85.5,214.89999c0,3.88535 0,4.636 0,5.41068c0,0.79066 0,1.98967 0,2.79834c0,0.83266 0,1.70532 0,2.16167c0,1.47183 0,1.99599 0,3.06932c0,0.53917 0.00028,1.5975 0,3.06c-0.00008,0.43567 0.00216,1.60326 -0.036,2.304c-0.03693,0.67813 -0.17716,1.71941 -0.32117,2.46217c-0.15473,0.79811 -0.35605,1.65086 -0.64283,3.06717c-0.10314,0.50937 -0.30165,1.58971 -0.4,2.16c-0.1017,0.58971 -0.30215,1.82965 -0.4,2.48c-0.20451,1.35933 -0.30146,2.06895 -0.39867,2.79333c-0.09849,0.73395 -0.19405,1.47293 -0.28049,2.21249c-0.17035,1.45757 -0.24667,2.16656 -0.35417,3.52083c-0.0504,0.63495 -0.08985,1.24234 -0.13066,2.38135c-0.01917,0.5352 -0.03375,1.548 -0.036,2.952c-0.00141,0.88 0,1.72 0,2.51999c0,0.76001 0,1.82516 0,2.4895c0,0.9465 0,2.15717 0,2.75583c0,0.88052 0.01841,1.71619 -0.00134,2.71735c-0.01794,0.90982 -0.13371,1.85916 -0.36033,2.64117c-0.25046,0.86426 -0.51257,1.45026 -0.95967,2.34399c-0.49046,0.98041 -0.70405,1.33478 -1.026,2.19901c-0.18327,0.49197 -0.63912,2.3486 -0.76733,3.09448c-0.13667,0.7951 -0.2533,1.6355 -0.36449,2.50952c-0.11425,0.89798 -0.21716,1.8129 -0.3195,2.7345c-0.20297,1.82782 -0.30029,2.71829 -0.40133,3.58932c-0.09898,0.8533 -0.19909,1.68945 -0.3,2.50949c-0.0991,0.8053 -0.19887,1.5965 -0.3,2.37451c-0.19779,1.52161 -0.29903,2.26611 -0.39999,2.99866c-0.09907,0.71878 -0.19853,1.42154 -0.3,2.10602c-0.09856,0.66486 -0.19664,1.30786 -0.3,1.92599c-0.19371,1.15839 -0.39761,2.2002 -0.4955,2.68134c-0.1817,0.89307 -0.3791,1.70032 -0.53783,2.80933c-0.14267,0.9968 -0.09116,1.61588 -0.25066,2.39465c-0.23313,1.13834 -0.81301,1.93002 -0.89516,2.772c-0.09505,0.97412 -0.02084,1.79868 -0.02084,2.63602c0,0.85065 0,1.61066 0,2.78583c0,0.83551 0.00005,1.46082 0,2.15018c-0.00008,1.17114 0.00179,2.04694 -0.02084,2.99048c-0.01187,0.49493 -0.04867,1.52682 -0.14583,2.60419c-0.10091,1.11893 -0.18515,1.6861 -0.33334,2.83331c-0.07424,0.57474 -0.16999,1.14499 -0.33334,2.83334c-0.05265,0.54416 -0.11444,1.60046 -0.14133,2.10934c-0.05151,0.97461 -0.06696,1.89081 -0.24667,3.11398c-0.10638,0.72412 -0.35333,1.64999 -0.612,2.61002l-0.14583,0.79166" id="svg_1" stroke-width="2" stroke="#000" fill="none"/>
  <path t="1388,1580,1592,1592,1610,1610,1610,1616,1617,1617,1629,1629,1629,1641,1641,1641,1658,1678,1728,1765,1766,1781,1781,1963,2208,2256,2273,2282,2282,2293,2307,2325,2325,2325,2330,2330,2330,2342,2343,2343,2358,2358,2368,2369,2380,2391,2408,2416,2428,2442,2465,2477,2477,2515,2578" d="m72.5,338.89999c-0.57467,1.63602 -0.94753,2.48416 -0.98933,3.24667c-0.05036,0.9187 0.01952,1.70807 -0.04667,2.52802c-0.08583,1.06323 -0.39647,2.0014 -0.6685,2.67798c-0.39029,0.97073 -0.71552,1.76382 -0.93833,2.59467c-0.27395,1.02155 -0.23283,1.72699 -0.44117,2.466c-0.28535,1.01218 -0.7805,1.79523 -0.91734,2.68668c-0.14059,0.91595 -0.71445,1.53696 -0.946,2.44815c-0.19563,0.76987 -0.93108,1.39035 -1.05133,2.15317c-0.1402,0.88943 0.48899,1.72968 1.19866,2.39734c0.57638,0.54227 1.40743,0.81195 2.21067,1.22668c0.76331,0.39413 1.63423,0.55273 2.276,0.65866c1.0049,0.16586 1.82793,0.44321 2.71467,0.63199c0.8929,0.19009 1.77692,0.26151 2.58433,0.27951c1.04476,0.02328 1.90619,0.06534 2.83967,0.42984c0.69801,0.27255 1.71009,0.26871 2.564,0.58533c0.73372,0.27203 1.24113,0.82092 2.11066,1.01016c0.84628,0.18417 1.6,0.85767 2.5,0.97916l0.8,0l0.89999,0l0.9,0" id="svg_2" stroke-width="2" stroke="#000" fill="none"/>
  <path t="3412,3573,3573,3585,3585,3598,3598,3598,3609,3610,3610,3624,3624,3624,3636,3636,3636,3636,3646,3647,3647,3647,3647,3659,3659,3659,3659,3675,3675,3684,3684,3684,3695,3708,3708,3725,3726,3726,3733,3733,3733,3745,3745,3745,3745,3758,3759,3759,3775,3776,3776,3782,3783,3783,3783,3794,3795,3795,3810,3810,3810,3826,3826,3826,3832,3832,3832,3844,3844,3860,3860,3860,3880,3880,3894,3894,3910,3917,3918,3929,3930,3944,3944,3944,3961,3967,3968,3978,3979,3993,3993,4009,4009,4009,4009,4015,4016,4016,4016,4016,4028,4028,4028,4028,4041,4041,4041,4041,4058,4058,4058,4065,4065,4065,4089,4089,4089,4101" d="m91.5,367.89999c0.01067,-1.836 0.02458,-2.61978 0.35717,-3.60449c0.29462,-0.87228 0.73869,-1.81851 0.94733,-2.34818c0.32483,-0.82465 0.82557,-1.90756 1.35267,-2.58566c0.34095,-0.43863 1.34071,-1.29803 1.94283,-1.7135c0.5979,-0.41254 1.40533,-1.07669 2.0135,-1.758c0.45299,-0.50745 0.9091,-1.10406 1.8865,-1.82349c0.71908,-0.52927 1.57488,-0.93289 2,-1.14584c0.83983,-0.42068 2.01331,-1.00012 2.644,-1.41949c0.56042,-0.37265 1.20505,-0.99527 2.056,-1.57968c0.76905,-0.52814 1.79813,-0.86591 2.58933,-0.99634c0.72375,-0.11932 1.58106,-0.45432 2.311,-1.12549c0.57677,-0.53033 1.44073,-1.22339 1.905,-1.55249c0.74147,-0.5256 1.69469,-1.14243 2.18484,-1.60367c0.60242,-0.56689 1.13103,-1.50787 1.467,-2.10168c0.36333,-0.64218 0.88175,-1.6416 1.54283,-2.37766c0.55162,-0.6142 1.22691,-0.97299 2.20134,-1.74966c0.4215,-0.33597 1.03638,-0.94336 2.02,-1.71451c0.52135,-0.40872 1.34739,-0.97351 1.89467,-1.31482c0.98954,-0.6171 1.67542,-0.98355 2.368,-1.284c0.98853,-0.42883 1.82032,-0.68988 2.632,-1.00134c1.00554,-0.38586 1.67902,-0.71167 2.36801,-1c0.99309,-0.41559 1.80702,-0.71283 2.63199,-0.91467c0.98958,-0.24213 1.68013,-0.20282 2.68401,-0.452c0.81927,-0.20334 1.60376,-0.62723 2.39867,-1.03333c0.76903,-0.39285 1.60344,-0.8725 2.19067,-1.40002c0.74207,-0.6666 1.41066,-1.39999 1.91066,-1.89999c0.70134,-0.70132 1.25719,-1.25717 1.98399,-1.98398c0.51601,-0.51602 1.03201,-1.03201 1.88,-1.88c0.636,-0.63602 1.19647,-1.27853 1.83734,-1.83469c0.64711,-0.56155 1.47429,-0.70865 2.31749,-0.91116c1.13992,-0.27377 1.79671,-0.59238 2.502,-0.93182c0.73718,-0.3548 1.81387,-0.95602 2.49518,-1.35699c0.65999,-0.38843 1.2977,-0.78815 1.96799,-1.116c1.02081,-0.4993 1.76868,-0.73267 2.51601,-0.98535c0.74733,-0.25266 1.8528,-0.62863 2.83833,-1.15717c0.63344,-0.33969 1.22549,-0.71506 2.24001,-1.54282c0.47232,-0.38538 1.11604,-0.96686 1.75499,-1.80002c0.44362,-0.57846 0.91934,-1.39999 1.48784,-2.19983l0.4935,-0.58951l0.616,-0.72531l0.508,-0.84933" id="svg_3" stroke-width="2" stroke="#000" fill="none"/>
  <path t="6822,6944,6944,6945,6964,6964,6964,6964,6980,6980,6980,6980,6981,6981,6994,6994,6994,6994,7010,7010,7018,7042,7066,7078,7078,7092,7092,7107,7107,7107,7116,7116,7116,7127,7127,7127,7140,7140,7140,7157,7165,7227,7227,7246,7246,7258,7263,7300,7375,7448,7460,7473,7473,7485,7485,7496,7496,7509,7509,7524,7534,7534,7546,7546,7546,7546,7546,7558,7558,7558,7558,7559,7574,7574,7574,7575,7575,7584,7584,7584,7594,7594,7607,7607,7625,7625,7632,7632,7632,7644,7644,7657,7657,7657,7675,7675,7675,7682,7682,7682,7693,7693,7719,7743,7743" d="m122.5,204.89999c-0.0045,-2.01883 -0.01934,-2.85886 -0.08533,-3.48799c-0.10877,-1.0369 -0.34893,-2.15904 -0.4355,-2.55367c-0.18006,-0.8208 -0.48119,-2.12456 -0.67916,-3.04234c-0.10104,-0.46843 -0.29897,-1.41621 -0.5,-2.36333c-0.09949,-0.46877 -0.39845,-1.83099 -0.5955,-2.68199c-0.18238,-0.78763 -0.41009,-1.48329 -0.61916,-2.81467c-0.11588,-0.73785 -0.08292,-1.67587 -0.51067,-2.45601c-0.4512,-0.82291 -0.80196,-1.696 -1.18533,-2.23599c-0.59845,-0.84294 -0.99776,-1.57047 -1.38934,-2.36401c-0.39794,-0.80646 -0.69538,-1.44579 -0.87883,-2.42133c-0.14989,-0.79706 -0.12076,-1.66835 -0.56384,-2.65733c-0.32985,-0.73627 -0.96778,-1.3268 -1.31434,-2.3425c-0.26212,-0.76823 -0.07923,-1.58217 -0.24433,-2.60684c-0.1483,-0.92043 -1.23553,-1.08432 -1.64149,-1.73366c-0.49916,-0.7984 -0.37986,-1.78166 -0.7825,-2.60234c-0.42667,-0.86966 -0.31792,-1.86125 -0.79601,-2.51466c-0.50754,-0.69366 -0.33256,-1.10333 0.54267,-1.12134c0.85315,-0.01755 1.79466,0 2.56267,0c0.952,0 1.71733,0 2.71149,0c0.91917,0 1.9045,0 2.72633,0c0.74067,0 2.01152,-0.00352 2.65017,0.00134c0.7107,0.00542 1.48656,0.01711 2.316,0.084c1.33591,0.10776 2.26479,0.26651 2.73733,0.34c0.9496,0.14767 1.88875,0.30676 2.808,0.408c0.87845,0.09674 1.71979,0.13841 2.52,0.15599c0.75987,0.01669 2.16,0.01067 2.8,0.01067c0.88499,0 1.92867,-0.06206 2.80499,0.02084c0.88313,0.08354 1.52483,0.52466 2.36301,1.07933c0.66586,0.44064 1.56097,1.03043 2.04266,1.73584c0.37111,0.54347 0.836,1.564 1.136,2.16399c0.5,1 0.91333,1.80464 1.2,2.45717c0.41989,0.95575 0.69012,1.77705 0.936,2.3175c0.4904,1.07791 1.02145,1.75636 1.50267,2.37866c0.63083,0.81578 0.9095,1.54218 1.38216,2.34666l0.67784,0.70001l0.51599,0.59999" id="svg_4" stroke-width="2" stroke="#000" fill="none"/>
  <path t="8779,8864,8879,8879,8897,8897,8901,8901,8911,8911,8924,8924,8940,8940,8948,8948,8961,8973,8974,8992,8992,8992,8997,8997,8997,9010,9010,9024,9046,9046,9059,9120,9133,9169,9182,9194,9626,9648,9652,9652,9666,9667,9667,9677,9678,9678,9678,9691,9691,9691,9699,9699,9699,9710,9710,9710,9724,9725,9741,9742,9748,9748,9760,9760,9760,9775,9775,9775,9791,9791,9797,9798,9809,9809,9825,9825,9834,9858,9858" d="m90.5,209.89999c-0.80133,-1.16933 -1.41293,-1.86507 -1.8,-2.60266c-0.41396,-0.78883 -0.75687,-1.58942 -1.3,-2.37599c-0.46446,-0.67264 -1.08917,-1.51172 -1.5,-2.196c-0.48728,-0.81161 -1.02322,-1.39265 -1.7,-2.12984c-0.51831,-0.56456 -1.04447,-1.32578 -1.34283,-2.04283c-0.41213,-0.99049 -0.80907,-1.74066 -1.37801,-2.17351c-0.82603,-0.62843 -1.35883,-1.32278 -1.73183,-1.94083c-0.57627,-0.95485 -1.07161,-1.74718 -1.38599,-2.27701c-0.54484,-0.91821 -0.71096,-1.79082 -1.21851,-2.56133c-0.52281,-0.79367 -1.30458,-1.16251 -2.03217,-1.67467c-0.65734,-0.46272 -0.70015,-1.4427 -1.18533,-2.05067c-0.49837,-0.6245 -0.79119,-1.664 -0.4045,-2.45383c0.35503,-0.72517 1.46583,-0.5209 2.22583,-0.52084c1.17484,0.00009 1.99047,-0.00809 2.564,0.03601c1.19296,0.09172 2.08895,0.31824 2.68933,0.46399c0.89944,0.21835 1.79771,0.40475 2.68933,0.464c0.8522,0.05664 1.89066,0.0032 2.81067,0.05684c0.68587,0.03998 1.684,0.26317 2.5,0.47916c0.816,0.216 1.82256,0.35986 2.65334,0.52534c0.97794,0.19479 1.56559,0.73343 2.33333,1.17332c0.73166,0.41924 1.67742,0.65413 2.466,0.74867c0.81982,0.09828 1.88985,0.18832 2.81133,0.478c0.63858,0.20074 1.63361,0.52228 2.436,0.564c0.99855,0.05191 1.82072,-0.11661 2.77867,0.23201c0.69247,0.252 1.50533,0.69466 2.36867,0.83133l0.8955,0.3l0.85716,0.52583l0.7,0.12016" id="svg_5" stroke-width="2" stroke="#000" fill="none"/>
  <path t="10771,10891,10891,10891,10891,10891,10906,10907,10907,10907,10907,10907,10907,10907,10907,10924,10924,10924,10924,10924,10924,10924,10929,10929,10929,10929,10929,10943,10943,10943,10966,10966,10977,11014,11014,11027,11052" d="m97.5,207.89999c0.88633,-3.52165 1.42076,-4.27689 2.125,-5.04166c0.38071,-0.41344 0.79338,-0.83514 2.20834,-2.125c0.50475,-0.46011 1.03538,-0.91962 1.58099,-1.386c0.55569,-0.47499 1.12526,-0.94989 1.707,-1.422c0.58559,-0.47523 1.1743,-0.95058 2.37867,-1.85867c0.59606,-0.44943 1.78516,-1.30241 2.368,-1.70934c0.5682,-0.39671 1.12295,-0.77621 1.66051,-1.13849c1.46864,-0.98976 1.90379,-1.28056 2.7,-1.8c0.70618,-0.46069 1.34118,-0.88475 2.2715,-1.35217c0.87622,-0.44025 1.75423,-0.70061 2.66666,-1.16667c0.68343,-0.34909 1.43333,-0.87849 2.33334,-1l0.8,0l0.91467,-0.08533l0.452,-0.748" id="svg_6" stroke-width="2" stroke="#000" fill="none"/>
  <path t="13035,13218,13219,13219,13231,13231,13231,13231,13232,13232,13246,13246,13246,13247,13247,13247,13247,13247,13247,13263,13263,13263,13263,13263,13263,13263,13264,13264,13268,13268,13269,13269,13269,13269,13269,13269,13270,13284,13284,13284,13284,13284,13284,13284,13284,13285,13293,13293,13293,13294,13294,13294,13294,13294,13294,13308,13308,13308,13308,13308,13308,13309,13309,13309,13316,13316,13316,13316,13316,13316,13316,13316,13317,13328,13328,13328,13328,13328,13328,13329,13329,13329,13341,13341,13342,13342,13342,13342,13342,13342,13342,13358,13358,13359,13359,13359,13359,13359,13359,13359,13365,13365,13366,13366,13366,13366,13366,13366,13367,13376,13376,13376,13377,13377,13377,13377,13377,13377,13392,13392,13392,13392,13393,13393,13393,13393,13393,13408,13409,13409,13409,13409,13409,13409,13409,13410,13413,13414,13414,13414,13414,13414,13414,13414,13415,13424,13425,13425,13425,13425,13425,13426,13426,13426,13442,13442,13442" d="m151.5,172.89999c2.688,-1.20132 3.56328,-1.51869 4.21883,-1.75716c1.11583,-0.40588 1.95641,-0.73021 2.41351,-0.90001c0.99101,-0.36812 1.53041,-0.56128 2.10533,-0.74733c1.92075,-0.6216 2.64745,-0.79953 3.405,-0.9955c0.78941,-0.20421 1.61136,-0.40271 2.4615,-0.60001c0.87386,-0.20279 1.77049,-0.40228 2.68649,-0.59999c1.875,-0.40469 2.83043,-0.6004 3.79201,-0.8c0.96542,-0.20039 1.9321,-0.39951 2.8965,-0.60001c0.95959,-0.19951 1.9115,-0.39764 2.8515,-0.59999c1.83699,-0.39543 2.72629,-0.59985 3.59866,-0.79733c0.85628,-0.19385 1.69786,-0.38513 2.52899,-0.561c0.81956,-0.17342 1.63066,-0.33916 2.43901,-0.47099c1.59901,-0.26079 2.40302,-0.33522 3.21066,-0.40134c0.81842,-0.06699 1.65587,-0.11108 2.517,-0.1485c0.89087,-0.0387 1.81807,-0.06676 2.787,-0.1035c2.08818,-0.07918 3.21681,-0.13614 4.39732,-0.20267c1.22484,-0.06903 2.48546,-0.14886 3.774,-0.2355c1.30879,-0.088 2.62946,-0.18205 3.95401,-0.2805c2.62958,-0.19545 3.91939,-0.29787 5.18933,-0.39867c1.25006,-0.09921 2.48006,-0.19917 3.69,-0.3c1.19006,-0.09918 2.36012,-0.19865 3.50999,-0.29999c2.24023,-0.1974 3.32993,-0.29897 4.39867,-0.40001c1.04692,-0.09898 2.07079,-0.19873 3.0705,-0.3c0.97496,-0.09875 1.92393,-0.1976 2.8455,-0.29999c1.75919,-0.19545 2.59438,-0.29948 3.40401,-0.39867c0.7877,-0.0965 1.5571,-0.19258 2.31299,-0.2805c0.74545,-0.08672 1.48474,-0.17007 2.22301,-0.2355c1.48425,-0.13155 2.24017,-0.16719 3.00533,-0.20132c0.77487,-0.03458 1.56001,-0.05884 2.35501,-0.08401c0.80499,-0.0255 1.62018,-0.04805 2.44499,-0.084c1.68045,-0.07326 2.5352,-0.13474 3.40001,-0.2c0.8752,-0.06604 1.75996,-0.14174 2.655,-0.216c0.90497,-0.07509 1.81961,-0.15277 2.745,-0.21599c1.87926,-0.12839 2.83437,-0.16573 3.79601,-0.2c0.96539,-0.03441 1.93201,-0.05861 2.89648,-0.08401c0.9595,-0.02527 1.91122,-0.04716 2.8515,-0.084c1.83646,-0.07193 2.72662,-0.1319 3.59735,-0.20265c0.85364,-0.06937 1.69003,-0.15411 2.50949,-0.255c0.80591,-0.09921 1.59781,-0.21117 2.37451,-0.345c1.52441,-0.26268 2.26675,-0.43106 2.99866,-0.59601c0.71942,-0.16212 1.4213,-0.33208 2.10599,-0.49649c0.66464,-0.15959 1.30582,-0.31787 1.92603,-0.45151c1.15463,-0.24879 1.6918,-0.3327 2.19998,-0.39867c0.48059,-0.06238 0.93835,-0.10316 1.37399,-0.129c0.4151,-0.02461 0.81265,-0.03513 1.194,-0.039c0.72266,-0.00734 1.06769,-0.00267 1.40268,-0.00267c0.32501,0 0.63998,0 0.94501,0c0.29498,0 0.57999,0 0.85498,0c0.52002,0 0.76501,0 1,0c0.22501,0 0.44,0 0.64502,0c0.19498,0 0.38,0 0.55499,0l0.32001,0l0.14514,0l0.13617,0" id="svg_7" stroke-width="2" stroke="#000" fill="none"/>
  <path t="14336,14521,14521,14521,14521,14521,14521,14533,14533,14533,14534,14534,14534,14534,14534,14545,14545,14545,14545,14545,14545,14545,14546,14546,14557,14557,14557,14557,14557,14557,14557,14557,14557,14574,14575,14575,14575,14575,14575,14575,14575,14575,14582,14582,14582,14582,14582,14582,14582,14582,14582,14594,14594,14594,14594,14594,14595,14595,14595,14595,14606,14606,14606,14607,14607,14607,14607,14607,14607,14623,14623,14623,14623,14624,14624,14624,14624,14624,14631,14632,14632,14632,14632,14632,14632,14643,14643,14644,14656,14657,14657,14657,14674,14674,14674,14674,14674,14681,14681,14681,14681,14681,14681,14681,14692,14692,14693,14693,14693,14693,14693,14693,14693,14706,14707,14707,14707,14707,14707,14707,14707,14707,14724,14724,14724,14724,14724,14730,14730,14730,14742,14742" d="m292.5,154.89999c2.86517,-1.32166 3.68777,-1.66608 4.64584,-2.04166c0.52921,-0.20746 1.09503,-0.42348 1.69949,-0.645c2.03656,-0.7464 2.79639,-1.00015 3.58783,-1.26599c0.82053,-0.2756 1.66977,-0.5513 2.5455,-0.82201c0.89523,-0.27673 1.80746,-0.55812 3.68799,-1.05867c0.95245,-0.25352 1.91617,-0.48518 2.88602,-0.705c0.9715,-0.2202 1.94641,-0.42462 2.922,-0.61499c0.97177,-0.18962 1.93924,-0.37263 3.85867,-0.68001c0.94434,-0.15123 1.88205,-0.28467 2.814,-0.405c0.92676,-0.11966 1.85214,-0.22505 2.77798,-0.315c0.92685,-0.09006 1.85776,-0.17543 3.74133,-0.28c0.95444,-0.05299 1.91858,-0.0849 2.8905,-0.1095c0.97876,-0.02477 1.96365,-0.03833 2.95352,-0.04649c0.9938,-0.00819 1.99066,-0.01001 3.98932,-0.01068c0.99985,-0.00034 1.99866,0 2.99551,0c0.9938,0 1.98364,0 2.96848,0c0.97885,0 1.95068,-0.00034 3.86935,0c0.94449,0.00017 1.87601,-0.00047 2.7915,0.009c0.89651,0.00928 1.77127,0.02597 2.62048,0.063c0.82181,0.03584 1.61652,0.06198 3.08801,0.26134c0.68298,0.09253 1.32611,0.22699 1.9335,0.3765c0.58066,0.14293 1.13034,0.30682 1.65448,0.47551c0.50482,0.16248 0.9859,0.3382 1.91202,0.64799c0.44385,0.14847 0.87912,0.28253 1.30048,0.4185c0.4093,0.13208 0.80606,0.26271 1.1835,0.4095c0.36624,0.14244 0.73099,0.27448 1.34933,0.672c0.30109,0.19356 0.56802,0.42902 0.819,0.672c0.24774,0.23987 0.46411,0.5023 0.90533,0.98933c0.79398,0.87636 1.4006,1.36958 2.06616,1.69633c0.94061,0.46181 1.80032,0.71928 2.42551,0.94499c0.68948,0.24892 1.85992,0.68648 2.73166,1.01668c0.45746,0.17326 1.40256,0.53511 2.38834,0.86333c0.99301,0.33061 2.00223,0.60602 2.51984,0.72684c1.07819,0.25168 1.65677,0.35071 2.26334,0.45267c0.64011,0.1076 2.04718,0.30702 2.82117,0.4045c0.81534,0.10268 1.66522,0.201 2.54102,0.3c0.89352,0.10101 1.79736,0.19968 2.703,0.3c0.89969,0.09967 2.6492,0.29816 3.48398,0.39999c0.80524,0.09824 1.58029,0.19795 2.32501,0.3c0.71527,0.09802 1.40036,0.19766 2.05499,0.3c0.62537,0.09776 2.32074,0.3978 2.82767,0.49866c0.93942,0.18692 1.78656,0.38049 2.56799,0.51601c1.06412,0.18454 2.03201,0.24933 2.87051,0.28084l1.04816,0.00449l0.76801,0" id="svg_8" stroke-width="2" stroke="#000" fill="none"/>
  <path t="15680,15788,15802,15802,15802,15817,15818,15818,15818,15818,15818,15830,15831,15831,15831,15831,15831,15831,15842,15842,15842,15842,15842,15842,15842,15842,15842,15850,15850,15850,15851,15851,15851,15851,15851,15851,15861,15861,15861,15861,15861,15861,15861,15861,15861,15874,15874,15874,15874,15874,15874,15874,15874,15874,15890,15890,15890,15890,15890,15890,15890,15890,15890,15898,15899,15899,15899,15899,15899,15899,15899,15899,15909,15910,15910,15910,15910,15910,15910,15910,15910,15923,15923,15923,15924,15924,15924,15924,15924,15924,15939,15940,15940,15940,15940,15940,15940,15940,15940,15947,15947,15947,15948,15948,15948,15948,15948,15948,15960,15960,15960,15960,15960,15960,15960,15960,15961,15973,15973,15973,15973,15974,15974,15974,15974,15974,15990,15990,15991,15991,15991,15991,15991,15991,15991,15997,15997,15997,15997,15998,15998,15998,15998,15998,16020,16021,16021,16021,16021,16021,16021,16022,16022" d="m408.5,159.89999c1.672,0 2.77502,-0.02361 3.58334,0.04167c0.642,0.05185 1.75497,0.27484 2.58865,0.53033c0.44971,0.13782 1.3945,0.4807 2.39417,0.89417c0.52399,0.21672 1.6044,0.69215 2.72049,1.22183c0.57706,0.27386 1.16199,0.56552 1.755,0.8745c0.60706,0.31628 1.23645,0.62869 3.125,1.77084c0.66122,0.3999 1.32281,0.83578 2.004,1.2765c0.69751,0.45126 1.41006,0.91516 2.14801,1.37549c0.75467,0.47078 1.52362,0.9595 3.18134,1.84801c0.8573,0.4595 1.75504,0.88921 2.68051,1.30949c0.94519,0.42924 1.92126,0.84216 2.92349,1.24651c1.02145,0.41211 2.06686,0.8196 4.22934,1.61066c1.10739,0.40511 2.23376,0.80125 3.37198,1.19551c1.14447,0.39642 2.29398,0.78578 3.444,1.1685c1.14465,0.38094 2.28104,0.75577 4.51733,1.46933c1.08905,0.34749 2.15826,0.68134 3.20551,1.005c1.02344,0.3163 2.02338,0.621 2.9985,0.91499c0.94852,0.28598 1.87018,0.5616 3.62933,1.08c0.83511,0.24609 1.6431,0.4812 2.42401,0.714c0.75775,0.22591 1.49377,0.4491 2.20798,0.67799c0.69849,0.22386 1.38519,0.44124 2.70135,0.94133c0.64865,0.24646 1.28482,0.51508 1.914,0.795c0.62952,0.28009 1.25443,0.5764 1.87799,0.88501c0.62912,0.31136 1.26181,0.63412 2.54132,1.31999c0.65695,0.35216 1.32352,0.7198 2.004,1.0995c0.69824,0.3896 1.41339,0.79509 2.14801,1.21651c0.75806,0.43488 1.54031,0.88652 3.18134,1.85066c0.86554,0.50851 1.75854,1.03798 2.67599,1.59c0.94391,0.56793 1.90927,1.15689 2.892,1.77c1.00467,0.62682 2.03021,1.26654 4.09866,2.64c1.05893,0.70314 2.11972,1.43294 3.177,2.19c1.06543,0.76291 2.12219,1.55042 3.159,2.37c1.03793,0.82048 2.07703,1.64258 3.99734,3.44c0.95258,0.8916 1.85297,1.82803 2.71951,2.78549c0.86285,0.95338 1.68713,1.93509 2.4765,2.93851c0.78699,1.0004 1.55713,2.01166 2.97067,4.10933c0.7041,1.04489 1.36639,2.11021 2.01447,3.1725c0.64124,1.0511 1.2572,2.09784 1.86151,3.1275c0.59198,1.00868 1.1554,2.00174 2.29065,3.86667c0.53845,0.88454 1.07635,1.72638 1.60504,2.53349c0.51141,0.78082 1.01819,1.53021 1.51495,2.2545c0.48334,0.7047 0.96222,1.38649 1.88,2.71201c0.44574,0.64377 0.87848,1.27527 1.29602,1.89149c0.40369,0.59578 0.78857,1.1702 1.15198,1.7205c0.34387,0.52074 0.66687,1.00853 1.21869,1.888c0.23804,0.37935 0.44659,0.72592 0.633,1.0425c0.17084,0.29015 0.32544,0.56158 0.47101,0.8175c0.13977,0.24576 0.27362,0.48885 0.56268,0.97333c0.15253,0.25568 0.31586,0.51607 0.48151,0.78151c0.16632,0.26656 0.33099,0.53099 0.49048,0.7905l0.15149,0.2515l0.1405,0.24049" id="svg_9" stroke-width="2" stroke="#000" fill="none"/>
  <path t="17711,17844,17855,17868,17869,17880,17880,17892,17892,17909,17909,17909,17909,17917,17917,17917,17917,17918,17927,17928,17928,17928,17928,17928,17928,17940,17940,17940,17940,17940,17940,17957,17957,17957,17957,17965,17965,17965,17977,17977,17991,18007,18014,18014,18026,18026,18041,18041,18041,18041,18041,18057,18057,18057,18057,18058,18058,18063,18063,18063,18063,18064,18064,18075,18075,18075,18075,18091,18091,18091,18091,18100,18101,18113,18124,18124,18141,18150,18161,18174,18192,18192,18192,18203,18203,18203,18213,18214,18214,18224,18224,18241,18241,18260,18322,18338,18348,18348,18362,18363,18378,18384,18384,18395,18395,18395,18407,18408,18423,18445,18469,18481,18519,18567,18568,18617,18630,18630,18644,18660,18660,18666,18666,18679,18679,18690,18716,18752,18753,18765,18765,18780,18795,18796,18796,18806,18806,18807,18807,18814,18814,18814,18814,18815,18815,18825,18825,18826,18826,18839,18840,18857,18857,18913,18913,18924,18924,18949,18950,18963,18987,19022,19041,19048,19059,19059,19073,19073,19090,19097,19109,19133,19146,19490,19515,19527,19541,19542,19558,19564,19564,19576,19577,19601,19625,19626,19641,19658,19663,19675,19701,19727,19727,19741,19742,19761,19775,19775,19797,19810,19823,19823,19846,19846,19872,19890,19896,19897,19921,19934,19934,19945,19945,19957,19979,19979,19985,19985,20001,20009,20009,20023,20032,20068,20068,20105,20193,20212,20229,20243,20243,20259,20259,20278,20292,20292,20306,20315,20315,20326,20339,20340,20356,20364,20376,20390,20406,20406,20425,20450,20451,20487,20500,20511,20512,20524,20524,20549,20560,20560,20573,20590,20590,20610,20624,20647,20671,20689,20690,20696,20708,20708,20708,20724,20724,20725,20734,20734,20735,20735,20745,20745,20757,20757,20757,20773,20774,20783,20807,20833,20849,20863,20874,20881,20881,20892,20908,20908,20923,20924,20954,20991,21016,21016,21028,21115" d="m520.5,226.89999c1.70001,0.05717 2.55853,0.49997 3.09985,1.32133c0.42786,0.64917 0.63568,1.54298 0.95282,2.37418c0.29596,0.77573 0.78387,1.34714 1.14868,2.3605c0.23193,0.64427 0.42035,1.38075 0.68396,2.14799c0.41382,1.20441 0.77258,2.00917 1.1355,2.85849c0.19031,0.44534 0.59314,1.38878 0.97919,2.4375c0.20679,0.56172 0.60138,1.76205 0.79999,2.38667c0.20148,0.63371 0.3941,1.27521 0.79999,2.54666c0.39429,1.23518 0.59662,1.82448 0.79871,2.39334c0.38446,1.08221 0.5799,1.59023 0.94415,2.55c0.48969,1.2903 0.7793,2.04832 1.0105,2.74066c0.20795,0.62274 0.5257,1.71072 0.61066,2.64667c0.0755,0.83197 0.03601,1.83151 0.03601,2.57883c0,1.02118 0.04852,1.85849 -0.00018,2.75735c-0.04272,0.7886 -0.44086,1.75986 -0.76147,2.41864c-0.39807,0.81793 -0.7309,1.44913 -1.06366,2.16385c-0.35864,0.77039 -0.72186,1.59491 -1.15332,2.939c-0.14819,0.46167 -0.39734,1.42468 -0.52136,1.92001c-0.25525,1.01935 -0.36682,1.54968 -0.82135,3.17932c-0.15674,0.56201 -0.5025,1.68347 -0.67865,2.23734c-0.17328,0.5448 -0.51379,1.58774 -0.97864,2.97717c-0.13672,0.40869 -0.50385,1.50906 -0.77405,2.151c-0.3891,0.92438 -0.88855,1.81165 -1.24731,2.37183c-0.50031,0.78125 -1.09467,1.58908 -1.6955,2.23267c-0.58557,0.62723 -1.39203,1.2374 -1.86853,1.909c-0.51489,0.72565 -0.9566,1.38959 -1.836,1.39999c-0.90442,0.01071 -1.76666,0 -2.64166,0c-0.64496,0 -1.91547,0 -2.47913,0c-0.88049,0 -2.07788,0 -2.66852,0c-0.85352,0 -2.12399,0 -2.76901,0c-1.02014,0 -1.84052,0.01801 -2.74167,0c-0.90054,-0.01801 -1.73325,-0.40262 -2.39981,-1.10016c-0.48978,-0.51251 -0.85333,-1.38107 -0.89569,-2.24716c-0.05017,-1.02612 -0.00449,-1.97433 -0.00449,-2.69434c0,-1.125 0,-1.90649 0,-2.69699c0,-0.92801 0,-1.84 0,-2.76135c0,-0.89999 0,-1.79999 0,-2.69998c0,-0.90002 -0.03589,-1.80081 0,-2.60001c0.03604,-0.80243 0.67957,-1.55853 1.35184,-1.84283c0.9874,-0.41757 1.96948,-0.35718 2.64816,-0.35718c0.97867,0 1.884,0 2.82535,0c0.69064,0 1.7789,-0.14444 2.57468,0.01068c0.94812,0.18481 1.44763,0.8472 1.89545,1.642c0.47113,0.83615 0.61859,1.7399 0.92603,2.66916c0.25092,0.75842 0.60168,1.44299 0.87836,2.3215c0.21252,0.6749 0.40381,1.43561 0.54297,2.28c0.23138,1.40387 0.24701,1.91852 0.29999,2.97751c0.02698,0.53891 0.04877,1.61246 0.05267,2.13666c0.01086,1.46246 -0.00757,2.30548 0.0152,3.04382c0.02924,0.9487 0.13586,2.02618 0.51013,2.87701c0.40173,0.91315 1.03046,1.34891 1.35767,2.36301c0.21069,0.65292 0.12152,1.65732 0.12152,2.56265c0,0.94135 0,1.63202 0,2.59518c0,0.92081 0,1.82083 0,2.72083c0,0.89999 0,1.79999 0,2.68533c0,0.94 0,1.63068 0,2.59384c0,0.92081 0,1.82083 0,2.72083c0,0.89999 -0.45837,2.25833 0,2.25833c0.86902,0 0,-1.77966 0,-2.633c0,-0.94 0,-1.82535 0,-2.58252c0,-0.89548 0,-1.75882 0,-2.74283c0,-0.98398 -0.23834,-1.70273 0.00452,-2.73831c0.18036,-0.76901 0.97748,-1.19717 0.99548,-2.16168c0.01691,-0.90436 0,-1.76666 0,-2.60001c0,-0.97849 -0.00189,-1.79865 0,-2.63599c0.00226,-1.01218 0.19165,-1.71875 0.64734,-2.46933c0.42535,-0.70065 0.35266,-1.728 0.35266,-2.52002c0,-1.02731 0,-1.72198 0,-2.73865c0,-0.936 0.00391,-1.83734 0,-2.52133c-0.00537,-0.94003 -0.18848,-1.93756 -0.5,-2.61469c-0.44629,-0.97003 -0.49457,-1.67462 -0.5,-2.61465c-0.00568,-0.98547 -0.0343,-1.79068 -0.35718,-2.53799c-0.38507,-0.89127 -1.10529,-1.49585 -1.47614,-2.34735c-0.32617,-0.74896 -0.12921,-1.76291 -0.6875,-2.5c-0.58832,-0.77673 -1.24573,-1.34515 -2.07916,-1.48932c-0.8869,-0.15341 -1.80005,-0.01068 -2.70453,-0.01068c-1.01685,0 -1.6955,0 -2.67398,0c-0.82019,0 -1.80759,-0.01788 -2.66968,0.35718c-0.66934,0.2912 -1.31583,1.05136 -1.35184,1.96417c-0.03366,0.85266 0.17838,1.84674 -0.16666,2.67865c-0.32532,0.78436 -0.82291,1.49982 -0.83334,2.39999c-0.01041,0.89996 0,1.80002 0,2.7002c0,0.78516 -0.02399,1.72543 0,2.73315c0.01801,0.75665 0.36591,1.67603 1.20001,2.08267c0.75357,0.36737 1.52795,0.84207 2.45267,1.02682c0.68314,0.13651 1.72198,0.05716 2.66864,0.05716c0.67868,0 1.79337,0 2.67868,0c0.79999,0 1.80127,0.37146 2.56403,-0.03598c0.73041,-0.39017 0.96649,-1.4548 1.53583,-2.06403c0.55249,-0.59119 0.88971,-1.4415 0.90015,-2.44299c0.00757,-0.72897 0,-1.56598 0,-2.75699c0,-0.60001 0,-1.5 0,-2.70001c0,-0.59866 0,-1.47916 0,-2.31467c0,-1.00131 0,-1.91064 0,-2.85199c0,-0.78149 0,-1.57199 0,-2.69034c0,-0.83398 0,-1.74301 0,-2.64301c0,-0.89999 0,-1.79999 0,-2.69998c0,-0.90002 0,-1.80002 0,-2.60001c0,-0.836 0,-1.85718 0,-2.60451c0,-0.99417 0,-1.75949 0,-2.83833c0,-0.85716 0,-1.75717 0,-2.55716l-0.08533,-0.91467l-0.74799,-0.452" id="svg_10" stroke-width="2" stroke="#000" fill="none"/>
  <path t="23605,23760,23760,23760,23760,23760,23780,23780,23780,23780,23780,23780,23780,23780,23784,23785,23785,23785,23785,23785,23785,23785,23798,23798,23799,23799,23799,23799,23808,23808,23808,23808,23808,23808,23808,23825,23825,23825,23825,23825,23825,23825,23833,23833,23833,23833,23833,23833,23833,23845,23845,23845,23845,23845,23845,23846,23846,23857,23857,23858,23858,23858,23858,23858,23858,23874,23874,23874,23875,23875,23875,23875,23883,23883,23883,23883,23883,23895,23895,23895,23895,23896,23896,23907,23907,23907,23907,23924,23925,23925,23925,23932,23932,23932,23943,23944,23957,23957,23958,23974,23974,23974,23981,23981,23981,23992,23992,23992,23992,23992,24007,24008,24008,24008,24008,24024,24024,24024,24024,24029,24030,24041,24042,24042,24057,24067,24079,24079,24090,24106,24127,24139,24156,24165,24165,24177,24177,24189,24189,24189,24206,24206,24207,24214,24214,24276,24295,24296,24325,24350,24387,24387,24424,24448,24459,24475,24492,24510,24524,24534,24534,24545,24583,24683,24707,24780,24781,24805,24823,24829,24852,24866,24878,24878,24891,24891,24906,24939,24956,25000,25014,25014,25025,25040,25057,25063,25063,25075,25075,25090,25091,25091,25106,25106,25107,25112,25112,25112,25123,25123,25124,25124,25139,25140,25140,25140,25140,25141,25141,25149,25150,25150,25150,25150,25150,25151,25160,25160,25161,25161,25161,25161,25173,25173,25174,25174,25190,25190,25190,25198,25199,25210,25210,25223,25223,25239,25247,25248,25248,25259,25260,25260,25273,25273,25273,25290,25290,25290,25296,25297,25297,25297,25297,25308,25308,25308,25308,25309,25309,25323,25324,25324,25324,25324,25325,25339,25340,25340,25340,25340,25341,25346,25346,25346,25346,25347,25357,25358,25358,25374,25374,25383,25383,25383,25394,25395,25407,25408,25408,25422,25432,25433,25443,25443,25456,25474,25556,25578,25579,25583" d="m189.5,289.89999c-0.22166,2.20767 -0.35562,3.0914 -0.54167,4.125c-0.1017,0.56494 -0.20015,1.15903 -0.625,3.04169c-0.1481,0.65625 -0.31584,1.31842 -0.495,1.98599c-0.18082,0.6738 -0.3726,1.34961 -0.58501,2.022c-0.42522,1.3461 -0.91479,2.66074 -1.17467,3.30365c-0.25752,0.63712 -0.52765,1.26166 -0.80399,1.875c-0.54214,1.20328 -0.82422,1.78397 -1.09067,2.36002c-0.76892,1.66235 -1.00204,2.20123 -1.22684,2.73398c-0.44301,1.0499 -0.6539,1.57516 -1.05583,2.63669c-0.40887,1.07983 -0.60353,1.63657 -1.00134,2.76865c-0.20111,0.5723 -0.39841,1.14789 -0.79999,2.29468c-0.19923,0.56894 -0.59753,1.68692 -1,2.76999c-0.19879,0.53497 -0.40338,1.06677 -0.8,2.14401c-0.20172,0.54785 -0.41577,1.10275 -1,2.88165c-0.20555,0.62589 -0.40166,1.27087 -0.60001,1.92902c-0.20168,0.66919 -0.40211,1.34872 -0.8,2.73065c-0.40215,1.39673 -0.59972,2.09726 -0.79999,2.79602c-0.19974,0.69693 -0.39934,1.39084 -0.60001,2.08051c-0.19933,0.685 -0.59563,2.03683 -1,3.35416c-0.1982,0.64566 -0.39581,1.28229 -0.60899,1.905c-0.41927,1.22467 -0.65524,1.81827 -0.90533,2.39999c-0.24866,0.57837 -1.1212,2.24451 -1.455,2.77499c-0.33327,0.52963 -0.68181,1.04745 -1.416,2.04001c-0.36153,0.48874 -0.73286,0.95932 -1.79333,2.32501c-0.33762,0.43478 -0.99197,1.27826 -1.32133,1.67999c-0.64484,0.7865 -1.66125,1.88065 -2.02116,2.22015c-0.7164,0.67575 -1.0965,0.98206 -1.8175,1.61084c-0.6949,0.60602 -1.63506,1.49634 -2.147,2.11066c-0.489,0.58676 -0.90897,1.19757 -1.51433,2.10001c-0.59911,0.8931 -0.98557,1.4751 -1.34283,2.04285c-0.64717,1.02841 -1.08821,1.69177 -1.3705,2.55582c-0.32039,0.98071 -0.27368,1.63736 -0.28683,2.82269c-0.00893,0.80402 0.00826,1.63849 -0.22116,2.65732c-0.15933,0.70758 -0.48448,1.36188 -0.65733,2.34317c-0.14589,0.82825 -0.15227,1.79944 -0.28801,2.9115c-0.10231,0.83817 -0.18274,1.27792 -0.35416,2.1875c-0.17574,0.93253 -0.4785,2.31265 -0.57901,2.75751c-0.19437,0.86029 -0.39285,1.67728 -0.543,2.45999c-0.2094,1.09155 -0.3004,2.10037 -0.35716,2.72c-0.07837,0.85556 -0.3028,1.85187 -0.57466,2.767c-0.27802,0.93582 -0.31949,1.72568 -0.45067,2.47733c-0.18471,1.05826 -0.82193,1.70175 -1.25867,2.49734c-0.35577,0.64813 -0.7704,1.49905 -1.216,2.29999c-0.44456,0.79907 -0.5,1.70001 -0.5,2.60001c0,0.89999 0,1.65717 0,2.56168c0,0.79999 0.01729,1.7601 -0.01067,2.56366c-0.02863,0.82281 -0.19475,1.85825 -0.48933,2.75385c-0.20499,0.6232 -0.47009,1.61508 -0.49867,2.53549c-0.02925,0.9422 -0.00133,0.16266 -0.00133,-0.74933c0,-0.95102 0,-1.86536 0,-2.76535c0,-0.79999 -0.11812,-1.83585 0.52083,-2.47916c0.63785,-0.64221 1.35381,-1.06152 2,-1.52084c0.69711,-0.49548 1.57756,-0.89108 2.47917,-1c0.79874,-0.0965 1.42094,-0.70563 2.39999,-0.96399c0.87091,-0.22983 1.84846,0.11755 2.60001,-0.20267c0.78119,-0.33286 1.76843,-0.88211 1.9955,-0.12885c0.25847,0.85742 0.0045,1.7955 0.0045,2.70618c0,0.91083 -0.01064,1.61023 0,2.58932c0.01042,0.95853 0.28757,1.68454 0.94733,2.35266c0.54993,0.55692 1.4458,0.84943 2.25134,0.362c0.62433,-0.37778 0.61067,-1.44272 0.83733,-2.31467c0.22502,-0.86566 1.10101,-1.46786 1.56401,-2.03598c0.65675,-0.80582 0.96913,-1.59866 1.56667,-2.19733c0.60814,-0.60928 1.2796,-0.86581 2.23199,-1.65201c0.60905,-0.50278 1.14368,-1.09589 1.71867,-1.91602c0.42441,-0.60535 0.83612,-1.29684 1.65199,-2.28799c0.48273,-0.58643 1.02914,-1.21991 1.2825,-1.58667c0.82538,-1.19485 1.04741,-1.67917 1.491,-2.6955c0.23213,-0.53186 0.44537,-1.08777 0.85266,-2.242c0.20779,-0.58887 0.60374,-1.78674 1.0045,-2.98517c0.19963,-0.59695 0.39877,-1.19107 0.60001,-1.78049c0.39757,-1.16449 0.5943,-1.73755 1,-2.85416c0.39314,-1.08203 0.59674,-1.60455 0.97917,-2.625c0.18542,-0.49481 0.55154,-1.44968 0.99933,-2.81985c0.14125,-0.43222 0.38072,-1.2659 0.61084,-2.03915c0.40231,-1.35184 0.5536,-1.93781 1.01067,-2.82535c0.44595,-0.86594 1.06577,-1.44769 1.31599,-2.34131c0.18855,-0.67337 0.33305,-1.65961 0.88533,-2.31467c0.65741,-0.77975 1.20078,-1.53372 1.50317,-2.2067c0.33383,-0.74295 0.82533,-1.69809 1.34816,-2.18481c0.65219,-0.60712 1.4825,-1.28372 1.84734,-1.8515c0.40579,-0.6315 0.9765,-1.65045 1.34666,-2.19434c0.59877,-0.87976 1.30698,-1.77557 1.84134,-2.36401c0.55605,-0.6123 0.85641,-0.92038 1.53082,-1.5c1.08641,-0.93372 1.52408,-1.19974 2.382,-1.80899c0.43938,-0.31201 1.32784,-0.94479 1.73666,-1.30533c1.21021,-1.06723 1.52205,-1.51227 2.10001,-2.39099c0.28786,-0.43765 0.77693,-1.3598 1.32916,-2.22668c0.54202,-0.85086 1.19504,-1.60605 1.54317,-1.95816c0.69608,-0.70407 1.44766,-1.35193 1.80751,-1.6925c1.07826,-1.02054 1.40573,-1.3916 2.036,-2.13199c0.60951,-0.716 1.14633,-1.42749 1.925,-2.34216c0.45215,-0.53113 1.07913,-1.18179 1.75499,-1.8765c0.53395,-0.54883 1.16417,-1.50116 1.47118,-2.16751c0.32883,-0.71375 0.83023,-1.55508 1.52083,-1.91251c0.9698,-0.50192 1.52809,-0.95514 1.97333,-1.604c0.58754,-0.85629 1.20134,-1.48267 1.80135,-2.08267c0.7,-0.69998 1.12421,-1.28802 1.89999,-1.87915c0.73419,-0.55942 1.47467,-0.95685 1.86166,-1.81635l0.52501,-0.41916l0.93866,-0.24933" id="svg_11" stroke-width="2" stroke="#000" fill="none"/>
  <path t="27316,27487,27487,27487,27487,27488,27500,27500,27500,27500,27500,27516,27516,27516,27516,27516,27526,27526,27526,27526,27542,27542,27542,27542,27542,27542,27542,27542,27548,27548,27548,27549,27549,27549,27549,27549,27549,27560,27560,27560,27560,27560,27560,27560,27560,27560,27572,27572,27572,27572,27572,27572,27572,27573,27573,27589,27590,27590,27590,27590,27590,27590,27597,27597,27598,27598,27598,27598,27609,27609,27609,27609,27609,27609,27609,27622,27622,27622,27622,27622,27623,27623,27623,27623,27639,27640,27640,27640,27640,27640,27640,27640,27641,27646,27646,27646,27646,27647,27647,27658,27658,27658,27658,27673,27673,27673,27683,27683,27683,27683,27683,27694,27694,27694,27694,27695,27706,27707,27707,27707,27707,27707,27707,27707,27708,27722,27722,27722,27723,27723,27723,27723,27723,27723,27732,27732,27732,27732,27732,27732,27733,27733,27733,27744,27744,27744,27745,27745,27745,27745,27745,27745,27756,27756,27756,27756,27756,27756,27774,27774,27774,27780,27781,27781,27781,27781,27793,27793,27793,27805,27806,27806,27830,27830" d="m223.5,323.89999c3.256,0 3.67149,0 4.5625,0c0.951,0 1.4415,0 2.93733,0c0.99567,0 1.4895,0 2.46417,0c0.95067,0 1.86932,0 2.75066,0c0.84933,0 1.67467,0 2.48401,0c1.20166,0 2.01033,0 2.843,0c0.87267,0 2.29166,0 2.80215,0c1.093,0 1.6815,0 2.302,0c0.6555,0 1.349,0 2.08351,0c1.60399,0 2.47783,0 3.39465,0c0.95284,0 1.93468,0 2.93851,0c1.01883,0 2.04565,0 3.07349,0c2.03067,0 3.02051,0 3.98935,0c0.94684,0 1.87067,0 2.77051,0c0.87482,0 1.72366,0 2.5455,0c1.55865,0 2.29398,0 3.00131,0c0.68134,0 1.33868,0 1.974,0c0.61536,0 1.21268,0 1.79401,0c1.12268,0 1.668,0 2.20532,0c0.53134,0 1.58401,0 2.10934,0c1.05869,0 2.14133,0 3.25867,0c0.56866,0 1.716,0 2.29068,0c0.57266,0 2.25867,-0.00201 2.80466,0.00034c1.08603,0.00467 1.63873,0.00656 2.79001,0.07169c0.61249,0.03464 1.25818,0.08066 2.664,0.26132c0.77499,0.09958 1.58984,0.23285 2.439,0.3765c0.87622,0.14822 1.76947,0.31021 2.673,0.47549c0.90582,0.16571 1.80429,0.3378 3.55466,0.64801c0.83469,0.14795 1.64111,0.28262 2.41949,0.40948c0.75098,0.12241 1.47632,0.23648 2.17651,0.34653c0.67612,0.10626 1.33005,0.2049 2.57065,0.41064c0.59036,0.0979 1.71057,0.29712 2.24002,0.39999c1.00107,0.19452 1.92355,0.38574 3.15033,0.69986c0.7309,0.18716 1.39407,0.41052 2.34033,0.61481c0.89691,0.19363 1.81299,0.25952 2.43866,0.27469c1.33032,0.03226 2.04935,0.01065 2.79999,0.01065c0.77469,0 1.56534,0 2.76501,0c0.82599,0 1.724,0 2.215,0c1.09601,0 2.384,0.00046 3.11316,-0.00015c0.78418,-0.00067 1.61835,-0.00256 2.4975,-0.0105c0.91922,-0.0083 1.87341,-0.02219 2.85751,-0.04651c1.00925,-0.02493 3.08273,-0.10516 4.13666,-0.16434c1.05942,-0.05948 2.11859,-0.13229 3.17252,-0.21451c1.04443,-0.08148 2.07358,-0.17197 3.08249,-0.26849c0.98441,-0.09421 2.85779,-0.29324 3.73767,-0.39551c0.8414,-0.09781 1.64462,-0.19757 2.41049,-0.29999c0.73047,-0.09769 1.42575,-0.19742 2.08652,-0.29999c0.62854,-0.09756 1.78995,-0.29767 2.32532,-0.40002c0.51126,-0.09775 1.00189,-0.19894 1.47751,-0.29999c0.46603,-0.099 0.92654,-0.2005 1.38751,-0.29999c0.4657,-0.10049 1.94104,-0.40231 2.46448,-0.49869c1.06308,-0.19571 1.59216,-0.28586 2.61502,-0.44415c0.48059,-0.07437 2.08218,-0.27432 2.70764,-0.33185c0.86536,-0.07959 1.81281,-0.18692 2.56534,-0.30933c0.83429,-0.13571 1.70474,-0.30307 2.58002,-0.43201c1.22104,-0.17987 1.94711,-0.24536 2.90933,-0.27332c1.09027,-0.03168 1.80017,-0.01068 2.65283,-0.01068l1.00317,0l0.76532,0" id="svg_12" stroke-width="2" stroke="#000" fill="none"/>
  <path t="30118,30303,30304,30316,30316,30316,30316,30328,30328,30328,30328,30328,30328,30328,30328,30340,30341,30341,30341,30341,30341,30341,30341,30341,30366,30367,30367,30367,30367,30367,30367,30367,30367,30386,30386,30386,30386,30386,30386,30386,30386,30386,30405,30405,30405,30405,30405,30405,30405,30405,30405,30424,30424,30424,30424,30425,30425,30425,30425,30425,30444,30444,30444,30444,30444,30444,30444,30444,30444,30487,30487,30487,30487,30488,30488,30488,30488,30488,30514,30514,30514,30514,30514,30550,30551,30551,30599,30599,30623,30625,30625,30635,30635,30650,30660,30660,30660,30674,30674,30675,30689,30689,30689,30690,30697,30697,30697,30710,30710,30710,30711,30722,30722,30723,30739,30739,30746,30747,30757,30758,30773,30789,30789,30795,30795,30808,30808,30808,30822,30822,30823,30839" d="m396.5,301.89999c2.60001,1.30902 3.25928,1.60623 4,2.33334c0.65741,0.64532 1.03149,1.27487 1.39999,2.00433c0.65747,1.30154 0.80994,1.84552 0.99869,2.409c0.4129,1.23276 0.58777,1.91818 0.76532,2.64001c0.18649,0.75815 0.37344,1.55594 0.66934,3.28c0.15747,0.91748 0.28653,1.87546 0.414,2.86649c0.13132,1.021 0.25293,2.07098 0.37799,3.14551c0.12759,1.09647 0.24774,2.21338 0.54132,4.48801c0.14929,1.15671 0.31726,2.32819 0.49051,3.52197c0.1774,1.22223 0.36496,2.47784 0.5535,3.77402c0.19519,1.34183 0.40231,2.73444 0.78934,5.70401c0.20605,1.58102 0.40088,3.21442 0.59549,4.87949c0.19608,1.67758 0.38422,3.34961 0.56851,4.99649c0.17935,1.60278 0.34558,3.14325 0.66934,5.95734c0.14291,1.24213 0.27927,2.37491 0.40948,3.40952c0.11932,0.94806 0.23456,1.81992 0.3465,2.6265c0.10452,0.75308 0.2067,1.46307 0.41068,2.79733c0.09854,0.6445 0.19843,1.27469 0.2955,1.88699c0.0936,0.59036 0.18396,1.1546 0.26849,1.689c0.07913,0.50027 0.15466,0.9621 0.26935,1.75735c0.04697,0.32556 0.08234,0.60669 0.11398,0.84747c0.02707,0.20587 0.04968,0.3822 0.078,0.5325c0.02475,0.13138 0.04651,0.25195 0.14133,0.45334c0.04861,0.10327 0.11667,0.20181 0.186,0.3045c0.07199,0.10663 0.14935,0.21506 0.22202,0.33151c0.07477,0.11987 0.15723,0.24319 0.25867,0.53067c0.05377,0.15237 0.10559,0.31912 0.14581,0.89581c0.04938,0.70804 0.02084,1.90417 0.02084,2.57751c0,0.9975 -0.00528,2.09552 0,2.92798c0.00534,0.84274 0.22833,1.75052 0.5,2.43201c0.38852,0.97458 0.42596,1.80484 0.53601,2.672c0.11209,0.88327 0.41003,1.58383 0.61133,2.37985c0.25809,1.0206 0.33615,1.97104 0.43668,2.7175c0.11801,0.87631 0.34592,1.89105 0.49066,2.616c0.14597,0.73108 0.31201,1.79239 0.39999,2.77866c0.05576,0.62491 0.17538,1.8396 0.37799,2.73599c0.13623,0.60263 0.40076,1.49405 0.52585,2.39984c0.12225,0.88519 0.11923,1.74301 0.12149,2.7785c0.00189,0.88 -0.09351,1.91299 0.05716,2.67435c0.1839,0.92923 0.7084,1.56396 0.88568,2.49014c0.18076,0.9444 0.05716,1.72784 0.05716,2.767c0,0.77551 0,1.82352 0,2.53751c0,0.90533 0,1.87384 0,2.66733l0,0.77551l0,1.03915" id="svg_13" stroke-width="2" stroke="#000" fill="none"/>
  <path t="32534,32753,32767,32783,32784,32837,32913,32973,32997,33009,33022,33022,33039,33039,33046,33046,33046,33058,33058,33058,33071,33071,33072,33089,33089,33089,33095,33096,33108,33232,33249,33249,33266,33267,33268,33280,33280,33280,33292,33292,33292,33292,33305,33305,33305,33322,33322,33322,33330,33330,33330,33342,33342,33342,33355,33355,33372,33372,33379,33391,33515,33533,33533,33548,33548,33549,33549,33552,33553,33554,33554,33567,33567,33567,33577,33577,33577,33591,33591,33591,33605,33605,33605,33606,33606,33606,33606,33612,33612,33612,33612,33612,33612,33612,33612,33613,33624,33624,33624,33624,33624,33625,33625,33625,33625,33640,33640,33640,33640,33641,33641,33641,33641,33641,33649,33649,33649,33649,33649,33650,33650,33661,33661,33661,33661,33662,33662,33672,33673,33673,33673,33673,33673,33673,33690,33690,33690,33690,33691,33691,33699,33699,33699,33699,33699,33699,33710,33710,33710,33711,33722,33722,33740,33740,33798,33798" d="m417.5,417.89999c0.87851,-0.7785 0.81671,0.15427 1.16666,1c0.32468,0.78464 0.51868,1.56104 0.84402,2.38934c0.2851,0.72589 1.50424,0.81271 2.28482,0.25351c0.68137,-0.48813 0.70868,-1.41791 1.06168,-2.30002c0.30618,-0.76511 0.78094,-1.52637 1.12198,-2.36365c0.26593,-0.65292 0.45847,-1.66306 0.5,-2.5c0.04364,-0.87967 0.0108,-2.07816 0.03152,-2.66852c0.03,-0.85422 0.19473,-1.89423 0.48932,-2.78983c0.20499,-0.62323 0.46014,-1.61545 0.49866,-2.53549c0.04034,-0.96393 0.24805,-1.9512 1.00134,-2.31866c0.69595,-0.33948 1.84253,-0.25168 2.51599,-0.08136c0.8992,0.22739 1.65359,0.90997 2.33069,1.33603c0.61771,0.3887 1.58423,1.11075 2.1015,1.58847c0.54138,0.49997 1.0885,1.00449 1.909,2.0687c0.51147,0.66339 0.85553,1.34348 1.46432,2.12149c0.48709,0.62247 1.08536,1.19766 1.87833,2c0.59128,0.59827 1.17557,1.17514 1.77884,1.99982c0.41931,0.57318 0.85779,1.36823 1.67401,2.04752c0.49536,0.41226 1.31827,1.07962 1.82648,1.73184c0.61169,0.78506 1.02441,1.84811 1.8735,1.95465c0.75113,0.09424 0.642,-1.22714 0.64734,-2.26715c0.005,-0.9765 0,-1.6875 0,-2.41852c0,-1.08148 0,-2.091 0,-2.72733c0,-0.91949 0,-1.82068 0,-2.71017c0,-0.85349 0,-1.88931 0,-2.81067c0,-0.68399 0,-1.68933 0,-2.58331c0,-0.69269 0,-1.91669 0,-2.87668c0,-0.52499 0,-1.07999 0,-2.28c0,-0.64499 0,-1.32001 0,-2.76001c0,-0.76431 0,-1.55466 0,-2.367c0,-0.83032 0,-1.67465 0,-2.52899c0,-0.86032 0,-1.72266 0,-3.43732c0,-0.84518 0,-1.68134 0,-2.50952c0,-0.82117 0,-1.63632 0,-2.4465c0,-0.80615 0,-1.60931 0,-3.21066c0,-0.79965 0,-1.59732 0,-2.39099c0,-0.78766 0,-1.56732 0,-2.33701c0,-0.75766 0,-1.50134 0,-2.93866c0,-0.69016 0,-1.36133 0,-2.65067c0,-0.62018 0,-1.22534 0,-2.39468c0,-1.12131 0,-2.20398 0,-2.73532c0,-1.05267 0,-1.578 0,-2.63666c0,-1.08267 0,-2.20135 0,-2.77316c0,-0.57886 0,-1.75351 0,-2.34735c0,-0.59683 -0.00082,-2.39532 0.00134,-2.99417c0.00217,-0.59683 0.01642,-1.78058 0.03467,-2.36533c0.0181,-0.57892 0.12317,-2.27011 0.18549,-2.81418c0.12115,-1.05743 0.29422,-2.0603 0.38916,-2.53915c0.18094,-0.91266 0.4859,-2.14038 0.68484,-2.86383c0.18069,-0.65717 0.48813,-1.52002 0.64734,-2.76166c0.08243,-0.64291 0.05716,-1.65701 0.05716,-2.43634l0.00034,-0.99933l0.17032,-0.82016" id="svg_14" stroke-width="2" stroke="#000" fill="none"/>
  <path t="34626,34745,34756,34756,34756,34773,34773,34773,34773,34773,34782,34783,34783,34783,34783,34783,34783,34783,34794,34795,34795,34795,34795,34795,34795,34795,34795,34806,34806,34806,34806,34806,34806,34806,34806,34821,34822,34822,34822,34822,34822,34831,34831,34831,34831,34843,34843,34855,34855,34872,34879,34880,34892,34905,34905,34922,34922,34923,34929,34929,34940,34941,34956,34956,34956,34965,34966,34978,34978,34990,34991,35015,35015,35028,35052,35065,35066,35076,35076,35089,35089,35106,35115,35116,35126" d="m450.5,335.89999c0.52084,-1.54166 1.08176,-2.55176 1.43201,-3.26132c0.26215,-0.53107 1.04169,-1.60422 1.62665,-2.05466c0.64377,-0.49573 1.44284,-0.91409 1.86917,-1.13669c1.39746,-0.72964 1.91486,-0.97012 2.4455,-1.23267c1.11865,-0.55344 1.70898,-0.83768 2.32001,-1.12534c0.62894,-0.29608 1.27567,-0.60065 2.64001,-1.18933c0.70728,-0.30518 1.43524,-0.6019 2.17648,-0.89999c0.75073,-0.30191 1.51089,-0.60034 2.27551,-0.89999c0.76636,-0.30035 1.53381,-0.5954 3.048,-1.20001c0.74557,-0.29773 1.47855,-0.59711 2.19598,-0.89999c0.70386,-0.29715 1.39377,-0.58618 2.69467,-1.20001c0.62183,-0.2934 1.78036,-0.89233 2.31134,-1.19965c0.99704,-0.57706 1.44562,-0.87958 2.29666,-1.42834c0.77832,-0.50186 1.83966,-1.14233 2.50183,-1.45767c0.59802,-0.28479 1.4328,-0.54379 2.35632,-1.11432c0.72665,-0.44891 1.43872,-1.04788 2.15717,-1.34283c0.98935,-0.40619 1.87219,-0.62067 2.45267,-1.15851c0.62173,-0.57605 1.30017,-1.29883 1.836,-1.83466c0.68533,-0.68533 1.19043,-1.18826 1.88,-1.88c0.72797,-0.73022 1.29816,-1.35812 1.78851,-2.14117c0.34241,-0.54681 1.01166,-1.54718 1.52084,-2.14282c0.51678,-0.60449 1.19379,-1.37579 1.52798,-1.98935c0.54962,-1.00906 0.64493,-1.87448 1.08932,-2.53198c0.49179,-0.7276 1.23166,-1.50836 1.5365,-2.15784c0.38318,-0.81638 0.75668,-1.67981 1.1875,-2.52084c0.3403,-0.66434 1.10648,-1.33893 1.71869,-1.79999c0.72858,-0.54868 1.40482,-0.89999 2.11465,-1.70001l0.56799,-0.69998l0.58133,-0.40002l0.74084,-0.69998" id="svg_15" stroke-width="2" stroke="#000" fill="none"/>
  <path t="36803,36997,36997,36997,36998,36998,36998,37000,37009,37009,37009,37009,37009,37009,37009,37032,37033,37033,37033,37033,37033,37033,37033,37034,37035,37035,37035,37035,37035,37035,37049,37049,37049,37049,37071,37071,37072,37094,37094,37095,37130,37130,37131,37131,37135,37135,37135,37135,37146,37146,37146,37146,37159,37159,37159,37159,37172,37173,37173,37181,37181,37181,37204,37204,37231,37248,37258,37274,37290,37291,37305,37316,37328,37339,37340,37356,37357,37366,37367,37367,37377,37377,37389,37389,37406,37414,37438,37439,37456,37475,37489,37489,37512,37513,37649,37666,37682,37682,37691,37691,37691,37692,37692,37706,37707,37707,37707,37707,37709,37710,37710,37710,37710,37722,37722,37722,37723,37723,37740,37740,37740,37746,37746,37758,37810,37810,37848,37864,37865,37878,37882,37882,37894,37894,37906,37981,37982,37997,37998,38013,38014,38019,38020,38020,38034,38034,38092,38111,38129,38132,38133,38148,38149,38166,38183,38184,38185,38202,38202,38205,38220,38220,38230,38230,38231,38240,38240,38240,38241,38255,38255,38255,38255,38256,38256,38256,38263,38263,38263,38263,38264,38275,38275,38275,38275,38288,38289,38289,38289,38306,38306,38306,38312,38313,38313,38313,38325,38325,38325,38325,38325,38338,38338,38338,38338,38339,38339,38339,38339,38355,38356,38356,38356,38356,38356,38357,38357,38357,38361,38361,38361,38361,38362,38362,38362,38373,38374,38374,38374,38374,38375,38390,38390,38390,38391,38391,38398,38399,38399,38399,38411,38411,38411,38411,38422,38422,38423,38423,38439,38439,38448,38448,38459,38509,38510,38521,38522,38540,38541,38559,38559" d="m495.5,311.89999c0,11 0,11.871 0,12.68802c0,1.496 0,2.18698 0,2.84799c0,0.63699 0,2.46399 0,3.06418c0,0.60117 0,1.20432 0,2.42065c0,0.61517 0.00021,1.23633 0,3.14584c-0.00009,0.65466 0.00015,1.31732 -0.00449,1.98599c-0.00467,0.67267 -0.02792,2.02213 -0.05267,2.69467c-0.0246,0.66882 -0.10318,1.98657 -0.16418,2.63083c-0.11902,1.2569 -0.20303,1.86462 -0.27866,2.45932c-0.14548,1.14392 -0.24362,1.68784 -0.37851,3.21918c-0.08093,0.91867 -0.10712,1.75989 -0.117,2.51999c-0.01291,0.98996 -0.00449,1.81351 -0.00449,2.77151c0,0.97333 0,1.78781 0,2.65634c0,0.89548 0,1.79999 0,2.41632c0,0.96451 0,2.00049 0,2.73184c0,0.74731 0,1.86331 0,2.92599c0,0.66867 0,1.64667 0,2.30533c0,1.03732 0,2.14133 0,2.89066c0,0.74133 0,1.80368 0,2.77869c0,0.59998 0,1.67999 0,2.61066c0,0.83466 0,1.83151 0,2.57883c0,1.02118 0,1.95718 0,2.85718c0,0.89999 0,1.79999 0,2.60001c0,0.89999 0,1.79999 0,2.72083c0,0.80066 0,1.68982 0,2.67917c0,0.79999 0,1.79999 0,2.60001c0,0.79999 0,1.79999 0,2.59998c0,0.99869 0,1.76401 0,2.71469c0,0.98532 0,1.88531 0,2.68533c0,0.89999 0,1.72083 0,2.68533c0,0.72531 0,1.71448 0,2.67865c0,0.948 0,1.2735 0,0.34799c0,-0.79465 0,-1.84531 0,-2.48398c0,-0.71066 0,-1.48535 0,-2.31601c0,-1.3335 0,-2.26917 0,-2.74799c0,-0.97467 -0.00067,-1.96533 0,-2.96402c0.00067,-0.99866 -0.00586,-1.4957 0.02084,-2.47916c0.02618,-0.96402 0.13916,-2.35501 0.2005,-2.79901c0.11847,-0.85751 0.28473,-1.65814 0.42599,-2.40298c0.24161,-1.27393 0.33145,-2.04639 0.35132,-2.91617c0.0228,-0.99792 -0.12296,-1.83267 0.43735,-2.76666c0.43732,-0.72894 1.09857,-1.37729 1.97467,-1.60001c0.88327,-0.22455 1.76398,-0.03601 2.70398,-0.03601c0.88535,0 1.64359,-0.03952 2.53802,0.00452c0.86603,0.04263 1.76166,0.37964 2.44714,1.09567c0.58942,0.61569 0.86765,1.55563 0.89569,2.30432c0.03729,0.99612 0.00449,1.83148 0.00449,2.76218c0,0.78149 0,1.57199 0,2.69049c0,0.75751 -0.88431,2.52493 0.00134,2.68683c0.7829,0.1431 0.81641,-1.54871 1.05133,-2.30118c0.28143,-0.90149 0.64951,-1.57376 0.89465,-2.49466c0.28387,-1.06638 0.4136,-1.7511 0.62735,-2.4975c0.31622,-1.10422 0.4313,-1.8389 0.85065,-2.66132c0.39023,-0.76535 0.55789,-1.61008 0.57468,-2.58936c0.01407,-0.82126 0.02765,-1.51901 0.2215,-2.64331c0.11783,-0.68335 0.30298,-1.43921 0.483,-2.28003c0.30161,-1.40869 0.39798,-1.91885 0.59549,-2.98199c0.10126,-0.54507 0.19824,-1.095 0.40002,-2.18933c0.09912,-0.53748 0.3999,-2.06232 0.59546,-2.991c0.18378,-0.87265 0.28766,-1.2897 0.41919,-2.11166c0.19177,-1.19833 0.23962,-1.99771 0.26453,-2.78183c0.03607,-1.1351 0.02081,-2.19934 0.02081,-2.86368c0,-0.9465 0,-1.55582 0,-2.75848c0,-0.91949 -0.00391,-1.55585 0.00018,-2.92017c0.0022,-0.73569 0.00305,-1.50034 0.05701,-2.28302c0.08258,-1.19766 0.22571,-1.99966 0.36816,-2.82748c0.0741,-0.4306 0.25305,-1.33606 0.40796,-2.86801c0.05701,-0.56363 0.08441,-1.15729 0.15204,-2.41867c0.03564,-0.66464 0.07123,-1.34967 0.12451,-2.052c0.05457,-0.71906 0.21582,-2.19714 0.33295,-2.95065c0.11877,-0.76392 0.26337,-1.53207 0.41852,-2.30399c0.15582,-0.77542 0.32404,-1.54935 0.49048,-2.32202c0.16553,-0.76865 0.4906,-2.28427 0.76288,-3.76465c0.13263,-0.72104 0.25061,-1.43045 0.3645,-2.12552c0.11139,-0.67963 0.20905,-1.34485 0.52081,-3.22916c0.09772,-0.59055 0.1955,-1.16217 0.40002,-2.25067c0.09784,-0.52057 0.29327,-1.51797 0.59998,-2.91599c0.09772,-0.44547 0.30109,-1.3038 0.47919,-2.125c0.16895,-0.77887 0.37006,-1.87332 0.46814,-2.88901c0.06293,-0.65176 0.11279,-1.64011 0.27399,-2.67401c0.11444,-0.73416 0.28809,-1.47687 0.42603,-2.22598c0.19958,-1.08359 0.3111,-2.09033 0.34198,-3.00601c0.01886,-0.55975 0.01068,-1.78949 0.01068,-2.64215c0,-1.00317 0,-1.76852 0,-2.71918c0,-0.88535 0,-1.64252 0,-2.54251c0,-0.94415 0.00452,-1.94284 0.05719,-2.74283l0.16412,-0.79984l0.27869,-0.77933" id="svg_16" stroke-width="2" stroke="#000" fill="none"/>
  <path t="42342,42521,42522,42522,42534,42534,42534,42546,42546,42546,42546,42546,42558,42558,42558,42570,42570,42589,42619,42619,42854,42865,42902,42920,42927,42939,42939,42955,42955,42955,42964,42965,42965,42965,42976,42977,42988,42988,43005,43005,43014,43014,43025,43025,43025,43038,43038,43039,43039,43055,43055,43055,43055,43055,43055,43062,43062,43063,43063,43063,43063,43063,43075,43075,43075,43075,43075,43075,43087,43088,43088,43088,43104,43111,43112,43123,43123,43139,43139,43148,43148,43160,43160,43185,43185,43494,43512,43521,43530,43530,43542,43542,43555,43571,43591,43690,43691,43728,43753,43754,43778,43802,43832,43975,43999,44013,44013,44031,44048,44052,44053,44053,44067,44067,44067,44067,44075,44076,44076,44076,44076,44076,44089,44089,44089,44089,44089,44089,44097,44097,44097,44107,44108,44108,44108,44123,44123,44139,44139,44139,44145,44145,44145,44157,44157,44174,44174,44174,44189,44189,44189,44189,44195,44195,44207,44207,44222,44223,44232,44244,44244,44255,44255,44274,44274,44281,44282,44293,44293,44305,44306,44322,44322,44323,44330,44330,44331,44331,44341,44341,44356,44441" d="m239.5,324.89999c-0.35716,2.01434 -0.60947,2.82175 -0.80133,3.40268c-0.39616,1.19949 -0.60724,1.8053 -0.89867,2.75449c-0.30911,1.00677 -0.50711,1.72473 -0.68933,2.46817c-0.18317,0.74728 -0.37027,1.48495 -0.52534,2.88666c-0.06956,0.62875 -0.08307,1.46918 -0.08533,2.67819c-0.00128,0.69247 0,1.63516 0,2.64316c0,0.75601 0.36673,1.74637 -0.02083,2.64584c-0.30779,0.71432 -0.97691,1.22531 -0.97917,2.15683c-0.00206,0.85065 0,1.61066 0,2.78549c0,0.53568 0,1.38916 0,2.57849c0,0.89551 0,1.47919 0,2.31467c0,1.22818 0,1.87466 0,2.88516c0,0.96417 0,1.91617 0,2.68417c0,0.96268 0,1.80267 0,2.80133c0,0.83551 0,1.41919 0,2.61517c0,0.93149 0,1.60751 0,2.3555c0,1.30865 0,1.80133 0,2.86267c0,0.56467 0,1.14932 0,2.37067c0,1.27734 0,1.93182 0,2.59332c0,1.332 0,1.99652 0,2.65601c0,0.65149 0,2.52802 0,3.11801c0,0.56998 0,1.64999 0,2.64999c0,0.47 0,1.76001 0,2.51999c0,0.99002 0,1.80002 0,2.91202c0,0.828 0,1.68216 0,2.66132c0,0.78934 0,1.83334 0,2.62534c0,0.86002 0,1.58533 0,2.57468c0,0.79999 0,1.79999 0,2.77917c0,0.85416 0.10823,1.48901 -0.52083,1.02081c-0.69087,-0.51419 -1.36559,-0.79965 -2.29384,-1.39999c-0.61673,-0.39886 -1.03603,-1.31259 -1.62134,-1.98932c-0.53952,-0.62378 -1.56487,-0.64789 -2.364,-0.61069c-0.91763,0.04272 -1.03183,1.03644 -1.28532,1.80002c-0.25635,0.77216 -0.886,1.49866 -0.91467,2.39999c-0.02861,0.89938 -0.36011,1.94507 -1.09984,1.57849c-0.75723,-0.37524 -0.79968,-1.48709 -0.92099,-2.29932c-0.14806,-0.99136 -0.52631,-1.52902 -0.69518,-2.25119c-0.27725,-1.18567 -0.25642,-1.92111 -0.27333,-2.72131c-0.0186,-0.87985 -0.01067,-1.84 -0.01067,-2.87601c0,-0.5405 0,-1.65149 0,-2.216c0,-1.13199 0,-2.24799 0,-3.32666c0,-0.52185 0,-1.52551 0,-2.00534c0,-0.91068 0,-2.13968 0,-3.21066c0,-0.65067 0.00597,-1.87204 -0.00133,-2.47067c-0.01073,-0.88065 -0.02751,-1.72888 -0.28267,-2.71732c-0.23862,-0.92435 -0.58162,-1.84686 -0.65884,-2.63669c-0.08012,-0.8194 -0.05716,-1.88065 -0.05716,-2.59015c0,-0.85266 0,-1.85852 0,-2.69318c0,-0.93066 0,-1.72116 0,-2.57468c0,-1.18933 0,-1.78799 0,-2.66849c0,-0.83551 0,-1.83551 0,-2.71017c0,-1.0105 0,-1.78983 0,-2.78915c0,-0.82016 0,-1.77869 0,-2.67868c0,-0.74731 0,-1.74283 0,-2.54282c0,-0.99985 0,-1.77917 0,-2.77869c0,-0.90533 0,-1.6785 0,-2.62265c0,-1.00317 0,-1.63467 0,-2.82016c0,-0.81451 0,-1.38919 0,-2.57852c0,-0.89548 0,-1.76401 0,-2.31467c0,-1.22366 0,-2.02365 0,-3.04932l0,-0.832" id="svg_17" stroke-width="2" stroke="#000" fill="none"/>
  <path t="46362,46497,46512,46512,46533,46557,46558,46573,46581,46605,46655,46692" d="m82.5,351.89999c1.82533,0 2.86504,-0.18146 3.6955,0.05716c0.76879,0.22089 1.31526,1.16165 2.00449,1.58569c0.8214,0.50534 1.77917,0.37799 2.32533,0.96783l0.41067,0.77866l0.76267,0.52667" id="svg_18" stroke-width="2" stroke="#000" fill="none"/>
  <path t="48958,49080,49080,49095,49095,49095,49095,49095,49095,49110,49110,49110,49110,49110,49120,49121,49121,49121,49128,49128,49128,49152,49171,49178,49202,49228,49239,49254,49264,49376,49400,49437,49462,49473,49474,49489,49510,49510,49546,49583,49793,49811,49854,49916,49928,49928,49940,49953,49965,49977,49977,49989,49989,50004,50020,50026,50038,50055,50064,50113,50163,50199,50248" d="m104.5,297.89999c0.0045,-2.61798 0.0117,-3.34662 0.16666,-4.66666c0.10261,-0.87405 0.1857,-1.35379 0.35417,-2.375c0.08734,-0.52942 0.2728,-1.59454 0.47916,-2.625c0.19282,-0.9628 0.39316,-1.85236 0.6,-2.67599c0.19362,-0.771 0.50317,-1.83487 0.6955,-2.50018c0.27324,-0.94516 0.47363,-1.548 0.61916,-2.75449c0.1034,-0.85718 0.08458,-1.63202 0.08533,-2.58835c0.00072,-0.91415 0.5484,-1.48364 0.94283,-2.17148c0.46988,-0.8194 -0.10217,-1.94073 0.40984,-2.59018c0.48454,-0.61462 0.39185,-1.62308 1.08333,-2.01666c0.83837,-0.4772 1.91407,0.09567 2.664,-0.25732c0.77554,-0.36505 1.53595,-0.77335 2.384,-0.77869c0.86332,-0.00543 1.88,-0.00009 2.716,0c0.89983,0.00009 1.75729,0.28235 1.8,1.20001c0.04185,0.89902 0,1.79999 0,2.60001c0,0.89999 0.01191,1.82513 -0.42533,2.59998c-0.40993,0.72647 -0.57959,1.51929 -1.01067,2.41467c-0.31067,0.64529 -1.22202,1.22427 -1.61667,1.88983c-0.46549,0.785 -0.83806,1.63461 -1.37267,2.27017c-0.5462,0.64935 -1.27917,1.02084 -2.17467,1.02533l-0.9,0l-0.9,0" id="svg_19" stroke-width="2" stroke="#000" fill="none"/>
 </g>
 <g display="none">
  <title>muse_image</title>
  <image xlink:href="http://www.animalbase.uni-goettingen.de/animalbaseimage/Sus-scrofa_03.jpg" id="muse" height="419" width="640" y="30.5" x="0"/>
 </g>
 <g display="none">
  <title>bbox</title>
  <rect stroke="#f00" fill="none" stroke-width="3" height="368.79303" width="570.51429" y="58.79847" x="32.91429" id="bbox"/>
 </g>
</svg>
