<svg width="640" height="480" xmlns="http://www.w3.org/2000/svg" xmlns:svg="http://www.w3.org/2000/svg" xmlns:xlink="http://www.w3.org/1999/xlink">
 <!-- Sketchy ANNOTATION
  ImageNet ID: n02503517_9827
  URL: http://farm1.static.flickr.com/182/466831693_35c432cff0.jpg
  Image Width: 500
  Image Height: 375
  BBox X: 40
  BBox Y: 22
  BBox Width: 381
  BBox Height: 353
  Exposure: 2000ms
  Synset Label: elephant
  Synset ID: n02503517
  Worker Tag: Elephant
  Sanity Check: 
   Context
   Saved
   Shading
  Comment: 
   {}
  Worker ID: AIH9VLD92GHFH
  Assignment ID: 3ON104KXQKWFJZDA44JM8WB3LI74W1
  HIT ID: 3OREP8RUT2B1KSAPECKP5N001VSGBM
  Work Time: 167s
  Worker Score: 0.9286
 END ANNOTATION -->
 <g display="inline">
  <title>Layer 1</title>
  <path t="0,183,196,197,197,197,214,214,214,214,230,236,236,248,249,249,249,264,264,264,280,280,280,296,297,297,297,313,314,314,330,330,330,346,347,347,363,364,368,368,379,380,380,396,396,396,413,413,414,434,434,446,447,464,465,481,481,496,496,496,513,513,514,529,530,546,546,563,564,579,580,580,596,597,613,613,629,630,630,646,646,663,663,679,680,696,696,697,714,714,731,732,732,746,746,763,763,779,780,796,797,813,813,829,830,849,850,863,879,880,880,896,913,913,929,930,946,946,946,963,964,979,980,996,996,1013,1013,1014,1029,1030,1046,1063,1063,1064,1080,1080,1081,1096,1096,1113,1113,1114,1129,1130,1146,1146,1163,1163,1164,1179,1180,1196,1196,1213,1213,1214,1229,1230,1230,1246,1246,1263,1263,1264,1279,1280,1296,1296,1297,1314,1329,1346,1346,1347,1364,1379,1380,1380,1396,1413,1413,1429,1430,1430,1446,1446,1464,1480,1481,1481,1497,1498,1498,1513,1513,1514,1529,1530,1546,1547,1579,1579,1596,1596,1597,1597,1613,1614,1614,1629,1630,1646,1663,1663,1679,1680,1680,1696,1713,1713,1729,1730,1746,1747,1763,1779,1780,1780,1796,1813,1829,1830,1831,1863,1863,1879,1880,1880,1896,1896,1916,1929,1929,1930,1946,1946,1963,1963,1980,1981,1981,1996,1996,2013,2013,2029,2030,2063,2063,2095,2129,2163,2163,2230,2295,2296,2396,2397,2479,2545,2564,2564,2596,2629,2663,2664,2679,2680,2713,2729,2730,2762,2812,2813,2863,2879,2880,2913,2929,2962,2963,2979,2997,3013,3013,3029,3030,3046,3063,3079,3079,3095,3096,3113,3129,3130,3146,3179,3180,3180,3196,3196,3213,3229,3229,3262,3279,3312,3313,3345,3346,3362,3395,3396,3413,3445,3479,3480,3496,3497,3549,3579,3579,3613,3662,3679,3679,3728,3729,3762,3813,3814,3829,3845,3879,3879,3895,3896,3945,3995,3996,4013,4029,4062,4078,4079,4095,4145,4146,4162,4213,4213,4245,4246,4263,4312,4313,4313,4345,4378,4413,4429,4430,4445,4479,4479,4496,4528,4562,4563,4579,4613,4645,4646,4662,4695,4712,4713,4728,4746,4762,4763,4795,4828,4829,4845,4862,4895,4896,4912,4913,4962,5015,5016,5045,5062,5095,5162,5163,5195,5196,5228,5229,5230,5245,5246,5278,5295,5296,5312,5313,5345,5362,5363,5363,5378,5379,5396,5412,5429,5429,5445,5446,5462,5463,5496,5497,5513,5528,5545,5546,5562,5563,5578,5595,5596,5612,5628,5629,5646,5646,5662,5663,5663,5678,5695,5696,5696,5712,5728,5745,5746,5746,5762,5778,5779,5795,5796,5812,5828,5829,5845,5862,5863,5878,5880,5895,5896,5912,5913,5928,5930,5951,5952,5962,5962,5962,5978,5979,5995,5996,6012,6028,6029,6030,6045,6046,6062,6063,6078,6112,6113,6128,6129,6130,6145,6146,6162,6163,6163,6178,6179,6195,6196,6212,6213,6228,6229,6245,6246,6247,6262,6263,6264,6278,6279,6295,6296,6297,6312,6313,6314,6328,6329,6345,6346,6362,6363,6378,6379,6395,6396,6412,6413,6414,6414,6429,6430,6444,6445,6445,6463,6463,6478,6479,6480,6496,6497,6497,6513,6514,6528,6529,6530,6545,6546,6562,6563,6564,6578,6579,6595,6596,6612,6613,6628,6629,6662,6663,6663,6678,6680,6680,6695,6696,6712,6713,6728,6729,6745,6769,6769,6780,6812,6813,6828,6829,6846,6878,6895,6896,6929,6945,6946,6978,6979,7012,7028,7062,7063,7078,7095,7096,7128,7129,7162,7178,7179,7195,7196,7212,7228,7229,7245,7246,7262,7278,7312,7313,7328,7329,7345,7362,7363,7379,7412,7413,7447,7447,7463,7463,7479,7480,7512,7528,7565,7565,7566,7595,7596,7612,7613,7614,7628,7629,7645,7662,7663,7678,7695,7696,7728,7729,7744,7762,7778,7779,7812,7828,7829,7845,7846,7862,7878,7894,7896,7912,7913,7928,7944,7946,7978,7995,7996,8012,8013,8028,8029,8044,8046,8062,8078,8079,8112,8128,8129,8144,8146,8161,8178,8194,8196,8212,8213,8228,8244,8246,8261,8263,8278,8279,8294,8296,8311,8328,8329,8345,8361,8363,8378,8379,8394,8411,8413,8414,8428,8429,8448,8448,8480,8491,8502,8503,8503,8517,8529,8530,8530,8544,8545,8561,8563,8578,8580,8594,8611,8613,8628,8629,8644,8645,8661,8678,8695,8728,8729,8777,8779,8794,8811,8844,8845,8878,8894,8911,8961,8962,8994,8995,9028,9044,9077,9094,9096,9111,9127,9129,9130,9144,9145,9161,9163,9177,9179,9194,9195,9196,9211,9213,9227,9229,9261,9262,9277,9294,9296,9311,9327,9329,9345,9346,9361,9378,9394,9396,9411,9413,9427,9429,9462,9463,9478,9479,9480,9495,9496,9514,9515,9527,9529,9544,9545,9546,9561,9591,9593,9611,9613,9613,9627,9629,9630,9644,9645,9661,9663,9677,9679,9695,9711,9713,9727,9729,9744,9761,9777,9779,9794,9827,9845,9861,9862,9911,9927,9929,9944,9961,9977,9994,9995,10011,10012,10027,10062,10077,10079,10079,10094,10111,10128,10144,10145,10161,10177,10179,10194,10195,10211,10227,10229,10245,10261,10277,10294,10327,10329,10344,10361,10411,10429,10444,10476,10477,10494,10512,10513,10549,10550,10562,10563,10577,10612,10613,10614,10644,10645,10677,10711,10712" d="m391,180c1.10983,0.87601 1.43835,1.76634 1.70984,2.367c0.30597,0.67697 0.65598,1.38319 1.1235,2.46632c0.43146,0.99951 0.62073,1.66351 1.13599,2.48001c0.51028,0.80861 1.07132,1.19446 1.74402,1.91199c0.83905,0.89496 1.05914,1.45325 1.26581,2.2955c0.21451,0.87431 0.44174,1.78931 0.87152,2.6685c0.28442,0.58185 0.84488,1.63541 1.04398,2.358c0.24692,0.89613 0.53598,1.88043 0.81519,2.40984c0.45578,0.86418 0.85339,1.42241 1.4035,2.64149c0.26224,0.58113 0.5723,1.43431 0.76532,2.48c0.12753,0.69093 0.16394,1.61462 0.40799,2.60667c0.13699,0.55682 0.44281,1.43445 0.88,2.31467c0.45325,0.91252 0.83713,1.47685 1.34933,2.31467c0.46579,0.76189 0.99683,1.66742 1.19736,2.36934c0.28061,0.98233 0.27197,1.83833 0.33932,2.4205c0.1387,1.19904 0.34149,2.08931 0.65182,2.88116c0.34918,0.89098 0.98459,1.58855 1.21017,2.49966c0.17526,0.70778 0.08521,1.71449 0.08533,2.49384c0.00018,0.99966 0.07977,1.84714 0.44266,2.56366c0.37332,0.73714 0.94543,1.47186 1.31433,2.53568c0.23148,0.66751 0.24167,1.52016 0.24301,2.5215c0.00107,0.79999 0,1.79999 0,2.59999c0,1 -0.00668,1.80002 0,2.8c0.00534,0.80006 0.03976,1.61331 0.35266,2.60001c0.25769,0.81265 0.56769,1.59583 0.6265,2.39999c0.07294,0.99756 0.02084,1.8 0.02084,2.60001c0,1 0,1.79999 0,2.79999c0,0.8 0,1.8 0,2.60001c0,1 0,1.8 0,2.60001c0,1.0045 0,1.85716 0,2.82117c0,0.79349 0,1.80948 0,2.7735c0,0.77332 0,1.81067 0,2.55466c0,0.91733 0,1.86533 0,2.73468c0,0.86331 0,1.76782 0,2.48532c0,1.03601 0,1.78 0,2.88766c0,0.83401 0,1.68466 0,2.68567c0,0.70801 0,1.452 0,2.64749c0,0.9765 0,1.63519 0,2.64319c0,0.828 0.03156,1.71054 -0.02084,2.66666c-0.04019,0.73373 -0.40915,1.66284 -0.69516,2.46799c-0.27594,0.77676 -0.25516,1.78174 -0.284,2.69867c-0.02557,0.81317 -0.45432,1.64572 -1,2.35419c-0.44156,0.57324 -0.93109,1.56964 -0.991,2.32199c-0.08273,1.0394 -0.16171,1.9946 -0.36618,2.66699c-0.23737,0.78058 -0.64319,1.82336 -0.93832,2.53302c-0.26883,0.64636 -0.62485,1.65302 -0.68365,2.45715c-0.07294,0.99756 0.0354,1.80908 -0.10617,2.60001c-0.1824,1.01892 -0.60504,1.78934 -0.832,2.79999c-0.1781,0.79312 -0.37878,1.6257 -0.93335,2.38934c-0.41696,0.57416 -1.0882,1.45621 -1.14667,2.17999c-0.0838,1.03714 0.03345,1.82755 -0.16931,2.86401c-0.14102,0.72098 -0.52701,1.5676 -0.9335,2.36667c-0.40982,0.8056 -0.76541,1.41516 -1.38251,2.19998c-0.48135,0.61221 -1.23315,1.58392 -1.4075,2.20001c-0.22205,0.78464 -0.36786,1.81165 -0.72049,2.60001c-0.4545,1.01605 -0.84195,1.56415 -1.104,2.31467c-0.36563,1.04721 -0.19763,1.9549 -0.728,2.80664c-0.34277,0.55048 -1.12106,1.13028 -1.496,2.06403c-0.36334,0.90482 -0.35703,1.64044 -0.672,2.328c-0.49515,1.0809 -1.20279,1.62558 -1.41019,2.32831c-0.28534,0.96677 -0.72958,1.52701 -1.27383,2.35834c-0.50598,0.77289 -0.4895,1.66269 -1.0625,2.49918c-0.49725,0.72592 -1.00952,1.42047 -1.45715,2.10001c-0.46512,0.70609 -1.19598,1.18237 -1.935,1.61548c-0.92368,0.54132 -1.41092,1.06314 -1.99884,1.73267c-0.70151,0.79886 -1.46814,1.1817 -2.23032,1.75284c-0.65024,0.48727 -1.06161,1.26437 -1.56317,1.89984c-0.71213,0.90228 -1.47079,1.23917 -1.95834,1.52084c-0.74332,0.42944 -1.53714,1.24179 -1.97916,1.95831c-0.40952,0.66385 -1.18939,1.3042 -2.03683,1.60217c-0.86716,0.3049 -1.58414,1.01886 -2.12,1.55466c-0.6853,0.68521 -1.13443,1.24646 -1.88,1.79468c-0.79642,0.5856 -1.672,0.87299 -2.24118,1.27383c-0.88031,0.61996 -1.63275,0.99832 -2.64017,1.21149c-0.72278,0.15295 -1.48416,0.5712 -1.936,1.25067c-0.46283,0.69604 -1.09531,1.46252 -2.03067,1.76135c-0.80066,0.2558 -1.81668,0.20657 -2.46133,0.508c-0.70776,0.33093 -1.55078,0.98624 -2.14398,1.44934c-0.78677,0.61423 -1.53506,1.10846 -2.02533,1.46198c-1.04422,0.75296 -1.66333,1.37479 -2.42667,1.62735c-0.88483,0.29276 -1.82629,0.46115 -2.57333,0.67267c-0.85919,0.24329 -1.75613,0.29135 -2.66251,0.36166c-0.75247,0.05838 -1.74283,0.55899 -2.34283,0.991c-0.60001,0.43201 -1.6058,0.8475 -2.34283,1.04816c-0.92499,0.2518 -1.61218,0.74777 -2.66251,0.89468c-0.73825,0.10327 -1.85165,0.05716 -2.57333,0.05716c-0.92133,0 -1.832,0 -2.74265,0c-0.85333,0 -1.79333,0 -2.67868,0c-0.88535,0 -1.82544,-0.01199 -2.51599,0c-1.03781,0.01801 -1.47867,0.64664 -1.48401,1.65268c-0.00369,0.69464 0.08505,1.71561 -0.00449,2.65182c-0.08353,0.87329 -0.5137,1.48807 -0.82886,2.52884c-0.22372,0.73877 -0.16666,1.6875 -0.16666,2.65067c0,0.69064 0,1.75882 0,2.61615c0,0.78519 -0.03571,1.72583 0,2.73318c0.02859,0.80652 0.80133,1.16599 1.63599,1.16666c1.01669,0.00082 1.71133,0 2.72803,0c0.94049,0 1.80264,-0.00006 2.63599,0c0.97849,0.00009 1.79239,0.09616 2.5,0.5c0.79761,0.45517 1.82132,0.5 2.5,0.5c0.97849,0 1.79868,0 2.75717,0c0.89551,0 1.75882,0 2.62817,0c0.948,0 1.86533,0 2.60931,0c1.03467,0 1.80267,0 2.76251,0c0.89551,0 1.75882,0 2.72198,0c0.82535,0 1.84216,0 2.52084,0c0.97849,0 1.79868,0 2.75717,0c0.89551,0 1.75882,0 2.72198,0c0.82535,0 1.84216,0 2.52084,0c0.97849,0 1.79868,0 2.75717,0c0.89551,0 1.75882,0 2.72198,0c0.82535,0 1.84216,0 2.52084,0c0.97849,0 1.79868,0 2.75717,0c0.89551,0 1.75882,0 2.72198,0c0.82535,0 1.84216,0.00006 2.52084,0c0.97849,-0.00009 1.76486,-0.14838 2.63599,-0.57468c0.82065,-0.40158 1.53864,-0.41989 2.60684,-0.42532c0.85699,-0.00436 1.52579,-0.45993 2.19983,-0.87885c0.74979,-0.46597 1.09094,-1.01331 1.724,-1.78781c0.45291,-0.55411 1.34363,-0.65204 2.16669,-1.16669c0.59982,-0.37503 1.62259,-0.42847 2.36215,-0.814c0.80334,-0.41876 1.62848,-0.79211 2.3045,-1.35266c0.51804,-0.42957 1.58997,-0.79901 2.2955,-1.35718c0.7406,-0.58594 1.02722,-1.54095 1.72534,-1.62198c0.95132,-0.11041 1.71701,-0.38275 2.00449,-1.17017c0.30347,-0.83124 0.90707,-1.53577 1.68451,-1.79352c0.76831,-0.25473 1.89746,0.02991 2.31549,-0.70383c0.43384,-0.76147 0.51001,-1.54324 0.89066,-2.46667c0.33649,-0.81628 1.26465,-0.75601 2.06317,-0.9075c0.95258,-0.18069 1.60825,-0.85992 1.93683,-1.54715c0.37967,-0.7941 0.59586,-1.746 1.41736,-2.26535c0.58084,-0.36722 1.49402,-0.57947 2.10266,-1.15198c0.70062,-0.65906 1.0882,-1.3204 1.88516,-1.77185c0.74576,-0.42245 1.5686,-0.70386 2.03149,-1.54733c0.32962,-0.60062 0.32761,-1.64249 0.86868,-2.45267c0.48523,-0.72656 1.09323,-1.26971 1.7995,-1.74283c0.7926,-0.53094 1.50113,-0.98938 2.07932,-1.82132c0.45569,-0.6557 0.73502,-1.25128 1.548,-1.92151c0.7406,-0.61057 1.29178,-1.29095 1.57318,-2.07849c0.31079,-0.86972 0.52945,-1.70029 0.86267,-2.47736c0.33694,-0.78577 1.2373,-1.52264 1.74133,-2.02667c0.52197,-0.52197 1.21399,-1.38583 1.87015,-1.81299c0.79684,-0.51874 1.23981,-1.12628 1.31351,-2.01434c0.05811,-0.70016 0.69461,-1.59912 1.34283,-2.04282c0.75439,-0.51636 1.41534,-1.17545 1.59549,-1.95718c0.19629,-0.85175 0.42682,-1.74368 0.97,-2.54599c0.48181,-0.71167 1.46417,-0.66815 1.97284,-1.51117c0.42886,-0.71075 0.71436,-1.5726 1.02451,-2.49149c0.2204,-0.65295 -0.08798,-1.67035 0.25198,-2.63202c0.2489,-0.7041 1.21857,-1.18396 1.8125,-1.70831c0.78604,-0.69394 0.88202,-1.46484 1.03552,-2.17169c0.22687,-1.04477 0.84021,-1.78302 0.95999,-2.56265c0.13345,-0.86865 0.7536,-1.57245 1.01465,-2.40668c0.25684,-0.8208 0.00604,-1.56799 0.01068,-2.54932c0.00452,-0.9537 0.28625,-1.84387 1.02084,-2.24716c0.90952,-0.4993 1.81421,-0.66138 1.95831,-1.54169c0.15472,-0.94528 0.09894,-1.66376 0.52084,-2.5c0.3989,-0.79068 0.4039,-1.74963 0.94266,-2.45764c0.56564,-0.74335 1.39041,-1.22195 1.64001,-1.90686c0.34601,-0.94943 0.70679,-1.70209 0.86017,-2.71466c0.09012,-0.59503 0.0098,-1.60266 0.078,-2.39999c0.08612,-1.0069 0.45129,-1.78448 0.69516,-2.60001c0.29309,-0.98016 0.25357,-1.85333 0.98932,-2.64282c0.50665,-0.54364 1.22192,-1.18143 1.46133,-2.09052c0.17758,-0.67429 0.47635,-1.39948 0.71185,-2.52383c0.15692,-0.74927 0.12149,-1.7955 0.12149,-2.49014c0,-1.02734 0,-1.97433 0,-2.69434c0,-1.125 0,-1.90652 0,-2.69702c0,-0.92798 0,-1.76132 0,-2.80399c0,-0.70801 -0.06717,-1.45413 0.00449,-2.64749c0.04181,-0.69595 0.47495,-1.62744 0.71152,-2.41116c0.29596,-0.98044 0.28174,-1.79868 0.284,-2.79868c0.0018,-0.80002 -0.05756,-1.80515 0.04166,-2.62085c0.08173,-0.67194 0.51599,-1.66754 0.95834,-2.45831c0.28799,-0.51483 0.90607,-1.54071 0.991,-2.32617c0.10376,-0.95978 0.009,-1.73633 0.009,-2.59735c0,-0.89697 0,-1.776 0,-2.58298c0,-1.04636 -0.01346,-1.98245 0.00134,-2.78235c0.01816,-0.98178 0.13336,-1.91289 0.49866,-2.69032c0.40784,-0.868 0.49933,-1.51234 0.5,-2.556c0.00052,-0.80701 0,-1.98567 0,-2.58434c0,-0.88051 0,-1.716 0,-2.71733c0,-0.90933 0,-1.85068 0,-2.63217c0,-0.7905 0,-1.90916 0,-2.7025c0,-0.89233 0,-1.62134 0,-2.45833c0,-1.19067 0,-2.06967 0,-2.87668c0,-0.87166 0,-1.81966 0,-2.78233c0,-0.73199 0,-1.46399 0,-2.592c0,-0.69333 0,-1.692 0,-2.64c0,-0.642 0,-1.73567 0,-2.604c0,-1.05316 0,-1.80049 0,-2.79466c0,-0.76534 0,-1.71867 0,-2.57066c0,-0.80133 0,-1.57234 0,-2.43333c0,-1.19467 0,-2.05566 0,-2.82668c0,-0.96533 0,-1.73866 0,-2.776c0,-0.74399 0,-1.85165 0,-2.68565c0,-0.82983 0,-1.793 0,-2.65634c0,-0.89549 0.07486,-1.86775 -0.08533,-2.53799c-0.23239,-0.97221 -0.75,-1.60579 -0.89383,-2.59384c-0.13422,-0.92201 -0.02084,-1.84216 -0.02084,-2.6955c0,-0.94 0,-1.82533 0,-2.5825c0,-0.89549 0,-1.75883 0,-2.722c0,-0.93149 0,-1.84216 0,-2.6955c0,-0.94 0,-1.82533 0,-2.5825c0,-0.89549 0.27667,-1.81201 -0.04166,-2.722c-0.29507,-0.84349 -1.32037,-1.02344 -1.78769,-2.00482c-0.3038,-0.63799 -0.12442,-1.76009 -0.17081,-2.61618c-0.04272,-0.7886 -0.47122,-1.70753 -0.71585,-2.41583c-0.32593,-0.94377 -0.2702,-1.89476 -0.28415,-2.80533c-0.01041,-0.67889 -0.27756,-1.62656 -0.64719,-2.37416c-0.39426,-0.79739 -0.35266,-1.7885 -0.35266,-2.65184c0,-0.89549 0,-1.85533 0,-2.62334c0,-1.03467 0,-1.77866 0,-2.696c0,-0.948 0,-1.81732 0,-2.68066c0,-0.89549 0.01538,-1.85413 0,-2.81934c-0.01068,-0.66959 -0.10995,-1.46945 -0.70532,-2.43784c-0.4043,-0.65761 -1.02295,-1.54745 -1.18036,-2.34366c-0.15436,-0.78084 -0.11432,-1.71851 -0.11432,-2.63049c0,-0.832 0,-1.74268 0,-2.59601c0,-0.94 0,-1.92551 0,-2.71066c0,-0.94 0,-1.63068 0,-2.70401c0,-0.82132 0,-1.73199 0,-2.58533c0,-0.94 0,-1.92551 0,-2.71066c0,-0.94 0,-1.63068 0,-2.70401c0,-0.82132 -0.24426,-1.79207 0.07199,-2.54933c0.37985,-0.90956 1.41711,-0.65976 2.28134,-1.29733c0.68137,-0.50267 0.57925,-1.4525 0.65735,-2.38933c0.08472,-1.01646 0.49979,-1.69514 1.31049,-2.27483c0.63525,-0.45425 1.46756,-1.03337 1.63718,-1.89983c0.16031,-0.81883 -0.07358,-1.70705 0.07767,-2.636c0.14197,-0.87203 0.57291,-1.52693 0.87997,-2.47867c0.28253,-0.87568 0.7998,-1.48083 1.02686,-2.53799c0.1463,-0.68113 0.05716,-1.71133 0.05716,-2.65183c0,-0.86217 0,-1.6955 0,-2.674c0,-0.82017 0,-1.6575 0,-2.50684c0,-0.91917 0,-1.91467 0,-2.71466c0,-0.99984 0,-1.77917 0,-2.7785c0,-0.82017 0,-1.6575 0,-2.67416c0,-0.69467 0.0907,-1.75153 -0.284,-2.54867c-0.34415,-0.73215 -0.59317,-1.64669 -0.80002,-2.31467c-0.31543,-1.01864 -1.09198,-1.4694 -1.74133,-1.89467c-0.70108,-0.45913 -1.41647,-1.24265 -1.87015,-1.93667c-0.50208,-0.76806 -0.75192,-1.63978 -1.41434,-2.29549c-0.58694,-0.58099 -1.77966,-0.63951 -2.25418,-1.21851c-0.49881,-0.60864 -1.00348,-1.55787 -1.80264,-2.13866c-0.62793,-0.45634 -1.40662,-0.83306 -1.948,-1.484c-0.53589,-0.64433 -0.98883,-1.75774 -1.64252,-2.15434c-0.80627,-0.48917 -1.68661,-0.43169 -2.34818,-1.06616c-0.6124,-0.58732 -1.28455,-0.99502 -1.79382,-1.94366c-0.32822,-0.61139 -1.16382,-1.21777 -1.82483,-1.3665c-1.03049,-0.23186 -1.62424,-0.93858 -2.26132,-1.41067c-0.71957,-0.53323 -1.47519,-0.54755 -2.25751,-1.28c-0.54248,-0.5079 -1.10486,-1.28405 -1.77802,-1.79467c-0.65256,-0.49498 -1.49652,-0.4937 -2.45831,-0.5c-0.91022,-0.00597 -1.53824,-0.66319 -2.23068,-0.95184c-0.77188,-0.32176 -1.44119,-0.83398 -2.08884,-1.48016c-0.68091,-0.67938 -1.26645,-1.3557 -2.06265,-1.532c-0.94968,-0.21029 -1.83417,-0.036 -2.68033,-0.036c-1.00101,0 -1.70901,0 -2.453,0c-1.1955,0 -1.888,0 -2.84134,0c-0.76532,0 -1.76849,0 -2.62115,0c-0.96402,0 -1.75751,0 -2.53302,0c-1.19998,0 -1.89249,0 -2.84583,0c-0.76532,0 -1.75949,0 -2.67868,0c-0.98532,0 -1.80664,0 -2.65997,0c-0.94,0 -1.92551,0 -2.71069,0c-0.94,0 -1.63065,0 -2.70398,0c-0.82135,0 -1.73199,0 -2.58533,0c-0.94269,0 -1.79468,0 -2.59335,0c-0.98132,0 -1.89865,0 -2.73199,0c-1.04266,0 -1.75067,0 -2.49466,0c-1.20001,0 -1.97333,0 -2.77335,0c-0.98132,0 -1.89865,0 -2.73199,0c-1.04266,0 -1.75067,0 -2.49466,0c-1.19101,0 -2.10568,0 -2.81967,0c-0.95633,0 -1.72733,0 -2.58835,0c-1.19464,0 -1.776,0 -2.58298,0c-1.20901,0 -1.98233,0 -2.78235,0c-0.98132,0 -1.9238,-0.17968 -2.81067,0.036c-0.89258,0.21707 -1.57932,0.86101 -2.42133,0.94316c-0.97409,0.09504 -1.95703,-0.37015 -2.64282,0.13517c-0.65378,0.48173 -0.77719,1.74297 -1.54251,1.86433c-0.91684,0.14539 -1.48517,0.57047 -2.17633,0.96416c-0.83536,0.47581 -1.81299,0.05717 -2.75299,0.05717c-0.88535,0 -1.64545,-0.06801 -2.53351,0.0045c-1.02789,0.08393 -1.50613,0.91176 -2.35184,0.9955c-0.75348,0.07461 -1.65268,0 -2.51599,0c-0.96317,0 -1.95355,-0.08771 -2.80533,0.44267c-0.55048,0.34277 -1.10577,1.18977 -2.04269,1.48534c-0.89133,0.28119 -1.5036,0.68983 -2.20532,0.98666c-0.72452,0.30647 -1.9751,-0.00146 -2.30933,0.74934c-0.34354,0.77175 -0.15097,2.05693 -0.82584,2.3225c-0.86688,0.34113 -1.79404,-0.09669 -2.64282,0.07066c-0.92242,0.18188 -1.30725,1.18685 -1.87402,1.8215c-0.53647,0.60072 -1.42175,0.85622 -2.07333,1.23116c-0.72992,0.42004 -1.1329,1.32985 -1.58383,2.11166c-0.44302,0.7681 -0.58115,1.46336 -1,2.22134c-0.3631,0.65707 0.10388,1.79493 -0.45483,2.55717c-0.50015,0.68232 -1.43689,1.13449 -1.59467,1.82533c-0.22498,0.98521 -0.07794,1.90112 -0.59283,2.6955c-0.43741,0.67481 -0.82089,1.35735 -1.3645,1.99516c-0.68347,0.8019 -1.40482,1.1795 -2.04266,1.89467l-0.07214,0.9105l-0.03586,0.8175" id="svg_1" stroke-width="2" stroke="#000" fill="none"/>
  <path t="12868,13070,13087,13087,13103,13103,13121,13121,13154,13154,13169,13204,13204,13220,13237,13237,13270,13287,13287,13336,13337,13370,13387,13388,13420,13470,13470,13554,13554,13587,13654,13671,13671,13704,13720,13754,13754,13770,13770,13787,13804,13804,13820,13858,13870,13871,13920,13920,13937,13937,13954,13987,14004,14004,14037,14038,14054" d="m366,121c4.12851,-1.88567 5.10034,-2 5.81433,-2c0.95367,0 1.68567,0 2.85233,0c0.8125,0 1.81735,0 2.508,0c1.06818,0 1.92551,0 2.71069,0c0.94,0 1.948,0 2.70398,0c0.93152,0 1.90207,-0.07056 2.58533,0.036c0.96088,0.14986 1.71378,0.68964 2.21469,1.37466c0.61017,0.83444 0.60022,1.58919 0.61066,2.704c0.00827,0.88529 0,1.64249 0,2.53799c0,0.86333 0.00009,1.8265 0,2.758c-0.00009,0.91051 0.29819,2.02338 -0.436,2.51733c-0.72305,0.48648 -1.73065,0.07201 -2.564,0.07201c-0.97849,0 -1.79868,0 -2.63599,0c-1.01669,0 -1.71133,0 -2.72803,0c-0.94049,0 -1.80264,0.00014 -2.63599,0c-0.97849,-0.00017 -1.88831,-0.10313 -2.38934,-0.86133c-0.40369,-0.6109 -0.60031,-1.61766 -0.61066,-2.54934c-0.0101,-0.91061 0.03601,-1.764 0.2215,-2.56783l0.483,-0.717l0.70618,-0.69383" id="svg_2" stroke-width="2" stroke="#000" fill="none"/>
  <path t="17770,18077,18078,18093,18093,18110,18110,18110,18127,18127,18144,18144,18144,18161,18161,18161,18177,18178,18194,18194,18210,18211,18227,18228,18244,18244,18244,18260,18261,18278,18278,18278,18294,18294,18294,18310,18311,18327,18328,18328,18344,18344,18344,18360,18361,18378,18378,18378,18394,18394,18394,18410,18411,18427,18428,18428,18444,18445,18464,18481,18481,18498,18777,18827,18828,18860,18877,18894,18921,18944,18944,18960,18977,18978,18994,19010,19011,19028,19044,19044,19060,19077,19078,19094,19094,19110,19111,19127,19128,19143,19161,19161,19177,19178,19193,19194,19210,19211,19211,19227,19228,19244,19244,19260,19261,19261,19278,19278,19278,19294,19294,19310,19311,19327,19328,19344,19344,19360,19361,19361,19377,19394,19394,19410,19411,19411,19427,19428,19443,19444,19444,19460,19460,19477,19477,19493,19493,19513,19513,19544,19544,19560" d="m390,204c1.38934,0.87199 1.69684,1.60718 1.95633,2.5955c0.19717,0.75101 0.90564,1.50624 1.54367,1.92532c0.65869,0.43265 1.28458,1.23688 1.45834,1.97917c0.27011,1.15393 0.47223,1.87262 1.01364,2.468c0.75864,0.83426 1.28076,1.27087 1.74136,1.78133c0.80957,0.89719 1.13626,1.76729 1.5733,2.45201c0.4895,0.76695 1.19736,1.28265 1.71335,1.79866c0.83334,0.83334 1.40442,1.34386 2,2.16667c0.45322,0.62611 0.93176,1.35266 1.76801,1.66666c0.7074,0.26563 1.94415,0.62688 2.42667,1.22467c0.50696,0.62808 1.10437,1.52277 1.81067,1.77499c0.71893,0.25673 1.92569,0.27745 2.453,0.70868c0.78183,0.63936 1.02621,1.51173 1.51233,1.97433c0.72229,0.68735 1.54437,0.93073 2.26132,1.28265c1.14362,0.56137 1.71991,1.1089 2.53867,1.68401c0.49207,0.34563 1.31128,0.87935 2.22934,1.18401c0.87082,0.28897 1.72803,0.31093 2.66666,0.33333c0.83337,0.01988 1.87698,0.21799 2.58401,0.42534c0.74503,0.21849 1.81436,0.37265 2.54666,0.65866c0.90506,0.3535 1.68396,0.86887 2.54999,0.9115c0.89444,0.04404 2.09265,-0.23355 2.53119,0.44734c0.40649,0.63115 0.32162,1.78796 -0.23117,2.50449c-0.47919,0.62111 -1.18881,1.04225 -2.13135,1.05267c-0.69061,0.00763 -1.75882,0 -2.61615,0c-0.78519,0 -1.72519,0 -2.73318,0c-0.86215,0 -1.6875,0 -2.65067,0c-0.69064,0 -1.75882,0 -2.61615,0c-0.78519,0 -1.73584,0.00172 -2.50116,0c-0.99869,-0.00226 -1.81693,0.01195 -2.79736,-0.284c-0.78372,-0.23657 -1.76233,-0.50484 -2.60132,-0.88268c-0.68896,-0.31027 -1.5256,-0.61583 -2.34732,-0.94316c-0.83197,-0.33142 -1.19193,-1.16028 -1.97418,-1.86867c-0.63754,-0.57733 -1.27286,-0.83432 -2.27399,-1.317c-0.74234,-0.35791 -1.69897,-0.57397 -2.37384,-0.95917c-0.86688,-0.49478 -1.28787,-1.02524 -2.02533,-1.74449c-0.67807,-0.66135 -1.36951,-1.3103 -1.80267,-1.8835c-0.55591,-0.7356 -0.8833,-1.54523 -1.68668,-2.23201c-0.63699,-0.54456 -1.55405,-0.92438 -2.10532,-1.52133c-0.5799,-0.62796 -0.8389,-1.44484 -1.57733,-2.19733c-0.59244,-0.60373 -1.39331,-0.9077 -2.19736,-1.56667c-0.67624,-0.55423 -1.1568,-1.12085 -1.95731,-1.92134c-0.50403,-0.50401 -1.05191,-1.00102 -1.79333,-1.79601c-0.4924,-0.52798 -0.97754,-1.42886 -1.29602,-2.13333c-0.3381,-0.74785 -0.86786,-1.65839 -1.58932,-2.20766c-0.7908,-0.60207 -1.5408,-1.0183 -2.09982,-1.86301c-0.42908,-0.64836 -0.73352,-1.51199 -0.96152,-2.26801l-0.6485,-0.70616l-0.642,-0.34734l-1.0015,-0.3425" id="svg_3" stroke-width="2" stroke="#000" fill="none"/>
  <path t="39966,40530,40530,40551,40551,40572,40572,40588,40589,40613,40613,40630,40631,40650,40650,40665,40665,40682,40682,40698,40698,40713,40730,40730,40745,40745,40762,40763,40780,40780,40812,40813,40846,40846,40880,41112,41113,41158,41160,41160,41179,41179,41191,41191,41191,41212,41212,41228,41229,41248,41248,41281,41313" d="m465,181c-0.16666,0 -0.08047,0.76155 0.009,1.65266c0.08777,0.87395 0.69757,1.59485 1.34283,2.04283c0.88654,0.61548 1.44888,1.18849 1.95267,1.95717c0.4545,0.69347 1.17065,1.47487 1.6955,1.82651c0.96268,0.64499 1.66061,1.11861 1.91599,2.00482c0.19363,0.67194 0.28247,1.71948 0.97067,2.31467c0.69058,0.59726 1.49362,0.76151 2.35617,1.15317c0.89948,0.40842 1.2066,1.10237 1.75717,1.8815c0.47882,0.6776 1.29947,1.30856 2,1.64584c0.95233,0.45853 1.75146,0.5787 2.3045,1.23067c0.50815,0.59904 1.13922,1.47427 1.87015,1.84349c0.89932,0.45427 2.45877,0.33786 2.41101,1.09401c-0.0416,0.65892 -1.35367,0.35266 -2.33499,0.35266c-0.91733,0 -1.75067,0 -2.79352,0c-0.71848,0 -1.50897,0 -2.53549,0c-0.88,0 -1.90033,0 -2.67432,0c-0.90002,0 -1.76334,0 -2.7265,0l-0.82535,0" id="svg_4" stroke-width="2" stroke="#000" fill="none"/>
  <path t="42150,42312,42312,42329,42330,42330,42346,42350,42362,42362,42363,42379,42380,42412,42413,42445,42446" d="m482,202c-4.23065,1.82933 -5.21448,1.98933 -6.16666,2c-0.78146,0.00876 -1.57202,0 -2.69067,0c-0.79333,0 -1.68533,0 -2.39334,0c-0.98132,0 -1.944,0 -2.71732,0c-1.03735,0 -1.78134,0 -2.88901,0l-0.72168,0" id="svg_5" stroke-width="2" stroke="#000" fill="none"/>
  <path t="42882,43029,43029,43045,43046,43046,43062,43062,43063,43063,43079,43080,43096,43096,43112,43113,43129" d="m475,185c-2.60449,-3.18117 -3.21579,-3.61772 -4.16666,-3.83333c-0.7789,-0.17661 -1.6506,-0.14458 -2.83334,-0.33334c-0.60165,-0.09602 -1.50079,-0.29262 -2.22934,-0.72c-0.86047,-0.50476 -1.20135,-1.42181 -1.97198,-1.944c-0.60345,-0.40892 -1.62402,-0.60533 -2.31467,-0.97066l-0.84802,-0.588" id="svg_6" stroke-width="2" stroke="#000" fill="none"/>
  <path t="43598,43745,43746,43762,43763,43763,43781,43782,43782,43795,43796,43812,43829" d="m477,206c-2.60001,-1.89467 -3.45016,-2.00964 -4.40134,-2.56934c-0.66068,-0.38876 -1.25806,-0.99226 -2.01984,-1.409c-0.76996,-0.4212 -1.569,-0.66 -2.6095,-0.93634l-0.85199,-0.084l-0.93201,-0.01199l-0.85199,-0.15601" id="svg_7" stroke-width="2" stroke="#000" fill="none"/>
  <path t="56894,57092,57092,57113,57113,57137,57137,57137,57158,57158,57180,57181,57181,57181,57201,57202,57221,57221,57221,57241,57242,57261,57261,57281,57281,57281,57300,57317,57317,57317,57335,57335,57352,57352,57352,57369,57387,57387,57387,57403,57403,57421,57421,57421,57438,57458,57458,57458,57475,57475,57477,57477,57477,57478,57478,57495,57513,57513,57513,57530,57530,57548,57548,57548,57559,57560,57581,57581,57581,57581,57602,57602,57602,57623,57624,57624,57644,57644,57644,57665,57666,57666,57671,57671,57671,57679,57680,57694,57710,57711,57727,57727,57743,57744,57760,57760,57760,57760,57776,57777,57777,57793,57793,57810,57810,57810,57826,57827,57827,57843,57843,57860,57860,57876,57892,57910,57910,57910,57926,57927,57942,57943,57943,57960,57960,57976,57977,57993,58010,58010,58042,58042,58060,58061,58076,58077,58093,58110,58110,58127,58143,58143,58161,58176,58177,58193,58193,58210,58226,58227,58243,58243,58260,58292,58292,58310,58326,58327,58343,58343,58360,58360,58376,58376,58393,58394,58410,58410,58426,58427,58443,58443,58444,58460,58461,58476,58476,58477,58492,58493,58510,58510,58510,58526,58527,58542,58543,58544,58544,58559,58560,58578,58579,58579,58592,58593,58593,58609,58610,58610,58626,58627,58642,58643,58643,58660,58660,58676,58677,58677,58693,58694,58710,58710,58710,58726,58727,58742,58743,58743,58743,58760,58760,58761,58776,58776,58777,58797,58797,58797,58797,58812,58812,58812,58813,58826,58827,58827,58844,58844,58844,58844,58859,58860,58860,58878,58878,58895,58896,58896,58914,58914,58915,58932,58933,58933,58952,58952,58969,58969,58970,58986,58986,59002,59002,59018,59018,59018,59034,59034,59035,59050,59050,59066,59066,59082,59083,59099,59099,59114,59114,59142,59159,59159,59209,59210,59392,59592,59859,59859,59892,60094,60192,60775,60776,60859" d="m298,107c-3.94534,-3.028 -4.72537,-3.69228 -5.65717,-3.95184c-0.73584,-0.20497 -1.54721,-0.48463 -2.34283,-1.04816c-0.60333,-0.42733 -1.59021,-0.93447 -2.34283,-0.991c-0.90649,-0.06808 -1.99051,-0.009 -2.66251,-0.009c-0.74399,0 -1.85739,0.063 -2.64532,-0.036c-0.90393,-0.11359 -1.59216,-0.4172 -2.58133,-0.68c-0.95587,-0.25397 -1.73599,-0.28333 -2.77783,-0.284c-0.77551,-0.0005 -1.82352,0 -2.5285,0c-0.80002,0 -1.84702,0 -2.79501,0c-0.672,0 -1.66132,0 -2.69867,0c-0.77332,0 -1.73599,0 -2.46799,0c-0.73199,0 -1.84933,0 -2.83334,0c-0.672,0 -1.66132,0 -2.69867,0c-0.77332,0 -1.73599,0 -2.46799,0c-0.73199,0 -1.84933,-0.0033 -2.83333,0c-0.67203,0.00225 -1.69897,-0.07932 -2.52383,0.22166c-0.81596,0.29774 -1.46417,1.09967 -1.96817,1.60367c-0.69067,0.69067 -1.4175,1.4175 -1.97333,1.97334c-0.612,0.612 -1.37653,1.35971 -1.8495,1.854c-0.65396,0.68342 -1.20409,1.45826 -1.40001,2.15717c-0.2668,0.95169 -0.45676,1.71678 -0.75316,2.50751c-0.37726,1.00642 -0.76382,1.65995 -1.032,2.84933c-0.17581,0.77976 -0.13138,1.36549 -0.336,2.23467c-0.21521,0.91417 -0.68962,1.78377 -0.98001,2.36266c-0.53264,1.0618 -0.80696,2.00863 -0.84166,2.68867c-0.04936,0.96762 -0.009,1.78333 -0.009,2.65183c0,1.19534 0,1.791 0,2.6595c0,1.06934 0,2 0,2.63149c0,1.00317 0,1.94734 0,2.84734c0,0.95984 0,1.72784 0,2.76251c0,0.74399 -0.1311,1.67838 0.04167,2.49466c0.2314,1.09328 0.67365,1.51112 1.14366,2.32133c0.33592,0.57907 0.93382,1.77409 1.17867,2.35733c0.33771,0.80443 0.89636,1.82083 1.2,2.472c0.39983,0.85745 0.35956,1.62291 0.54584,2.40117c0.25124,1.04968 0.75502,1.70946 1.242,2.34366c0.76706,0.99893 1.22719,1.54112 1.52666,2.58301c0.20068,0.69821 0.16656,1.61728 0.54684,2.44284c0.418,0.90744 0.53703,1.58304 0.564,2.32799c0.04007,1.10733 0.02597,1.92706 0.45334,2.79333c0.36153,0.73282 0.95641,1.4037 1.31433,2.3145c0.33694,0.85739 0.23366,1.79555 0.243,2.65884c0.01042,0.96333 0.44473,1.7402 0.716,2.36932c0.38901,0.90219 0.28333,1.716 0.284,2.71468c0.00053,0.79999 0,1.79866 0,2.564c0,1.07883 0,1.93617 0,2.72133c0,0.94 -0.14767,1.96977 0.036,2.70401c0.22058,0.88176 0.88542,1.72701 0.94318,2.41066c0.08238,0.97525 0.01601,1.79868 0.02083,2.75717c0.0045,0.89552 -0.02568,1.70029 0.70534,2.48566c0.5063,0.54393 1.25864,1.1657 1.29466,2.07851c0.03366,0.85266 -0.18159,1.84808 0.16666,2.67867c0.29993,0.71532 1.09055,1.45871 1.39734,2.21066c0.39209,0.961 0.20584,1.94371 0.87885,2.54668c0.5946,0.53271 1.57684,0.65224 2.03632,1.26349c0.68579,0.91238 1.01022,1.50117 1.84216,2.07935c0.65567,0.45567 1.55127,1.03673 2.04269,1.72516c0.47412,0.6642 0.88531,1.49745 1.60666,1.97333c0.74561,0.49188 1.56531,0.65742 2.26132,1.08667c0.84958,0.52394 1.30359,1.36646 2.08951,2.09317c0.47202,0.43646 1.284,0.81197 2.28299,1.326c0.63419,0.32632 1.56595,0.85611 2.07819,1.17949c0.80249,0.50659 1.55185,1.02689 2.34933,1.63068c0.62167,0.47069 1.51166,0.98363 2.22931,1.29599c0.79141,0.34445 1.58655,0.73535 2.28601,1.242c0.69299,0.50195 1.60275,1.21436 2.40085,1.58566c0.52112,0.24245 1.72134,0.58195 2.39047,0.73634c0.98746,0.22783 1.70126,0.53676 2.26266,0.912c0.82916,0.55421 1.5683,1.32675 2.39868,1.94666c0.58008,0.43304 1.38467,0.8636 2.20016,1.04533c0.80972,0.18047 1.97037,0.27235 2.74802,0.474c0.7948,0.20609 1.73331,0.42387 2.55182,0.66817c0.85284,0.25453 1.50342,0.705 2.32132,1.12851c0.57404,0.29724 1.77469,0.69708 2.36801,0.78932c0.85031,0.13219 1.89627,0.26169 2.59601,0.49734c0.73224,0.2466 1.8558,0.66971 2.52451,0.864c0.70926,0.20607 1.80917,0.49414 2.86865,0.79984c0.66541,0.19199 1.29138,0.41904 2.22018,0.61482c1.19293,0.25146 1.81161,0.26299 2.75848,0.28084c1.00931,0.01904 1.72549,0.0045 2.82199,0.0045c0.711,0 1.6875,0 2.5065,0c0.90533,0 1.91434,-0.00014 2.71436,0c1.00015,0.00017 1.83572,-0.01962 2.48532,0.17067c1.03265,0.30251 1.82172,0.8584 2.41916,1.12399c1.17096,0.52057 1.78311,0.6295 2.6235,0.68401c1.12717,0.0731 1.92267,0.02133 2.81485,0.02133c0.71848,0 1.50897,0 2.77048,0c0.84,0 1.80402,0 2.49652,0c0.96082,0 1.73181,0 2.59283,0c1.19464,0 1.776,0 2.58298,0c1.20901,0 1.98233,0 3.01968,0c0.74399,0 1.72229,0.26369 2.57333,-0.07201c0.74051,-0.2921 1.0777,-1.39792 1.90533,-1.75732c0.80563,-0.34984 1.80563,-0.0383 2.61615,-0.392c0.71768,-0.31319 1.57339,-0.62967 2.41583,-0.86267c0.88107,-0.24368 1.68314,-0.86089 2.65067,-0.916c0.81146,-0.04622 1.44391,-0.55057 2.19052,-0.94284c0.7468,-0.39238 1.52133,-0.5 1.63214,-1.24249l0.01068,-1.0575" id="svg_9" stroke-width="2" stroke="#000" fill="none"/>
  <path t="61669,61925,61941,61942,61959,61959,61976,61976,61976,61991,61992,62009,62009,62025,62025,62025,62041,62042,62059,62060,62060,62075,62075,62076,62076,62091,62092,62109,62109,62109,62109,62125,62125,62125,62143,62143,62158,62159,62174,62174,62192,62193,62194,62208,62208,62225,62225,62242,62243,62259,62260,62260,62275,62275,62291,62292,62309,62309,62310,62327,62327,62327,62341,62341,62359,62360,62360,62374,62375,62390,62410,62410,62410,62441,62442,62460,62460,62474,62474,62508,62541,62542,62574,62593,62593,62641,62642,62691" d="m331,76c-0.81885,-0.9955 -1.76984,-1.03439 -2.5,-0.97916c-1.17239,0.08868 -1.8107,0.51422 -2.83334,0.8125c-0.65506,0.19107 -1.51855,0.00755 -2.52365,0.60933c-0.70346,0.42119 -1.21613,1.42532 -1.95734,1.54833c-0.94089,0.15615 -1.7171,-0.0687 -2.41766,0.17967c-1.03787,0.36797 -1.51202,1.24049 -2.311,1.58666c-0.69174,0.29971 -1.59238,0.26597 -2.75684,0.68533c-0.61252,0.22058 -1.45132,0.73323 -2.01483,0.98933c-0.9812,0.44594 -1.91666,0.54935 -2.85199,0.73466c-0.7966,0.15783 -1.63947,0.42857 -2.23468,0.54934c-1.18967,0.24139 -2.08289,0.24351 -2.91333,0.368c-1.00854,0.15118 -1.64218,0.49425 -2.68533,0.74934c-0.77719,0.19005 -1.83334,0.16666 -2.66135,0.16666c-0.88132,0 -1.58932,0 -2.57065,0c-0.96268,0 -1.73599,0 -2.77335,0c-0.74399,0 -1.85739,-0.063 -2.64532,0.036c-0.90393,0.11359 -1.59595,0.40341 -2.34399,0.61133c-1.03214,0.28687 -1.81137,0.31781 -2.77335,0.35534c-0.98303,0.03835 -1.93192,0.28949 -2.58133,0.848c-0.48254,0.41499 -1.41553,1.00482 -2.17151,1.12849c-0.79263,0.12967 -1.79208,0.31007 -2.66849,0.5955c-0.80911,0.26352 -1.61011,0.40612 -2.41068,0.424c-0.99524,0.02222 -1.9194,-0.07745 -2.92084,0.02217c-0.82144,0.08171 -1.72681,0.41484 -2.47382,0.6265c-0.85922,0.24345 -1.78806,0.41119 -2.48935,0.92067c-0.73035,0.53059 -1.46719,1.30096 -2.21149,1.423c-0.92813,0.15218 -1.80292,-0.10054 -2.65182,0.06617c-0.92673,0.182 -1.65268,0.94283 -2.17352,1.422l-0.80048,0.39934l-0.85333,0.11083l-0.94,0.01334" id="svg_10" stroke-width="2" stroke="#000" fill="none"/>
  <path t="64317,64524,64524,64540,64540,64540,64558,64559,64559,64579,64579,64579,64593,64593,64658,64658" d="m375,117c3.31467,0.56934 3.95679,1.04978 5,1.83334c0.57904,0.43491 1.30209,0.72674 1.75717,1.7095c0.3114,0.67247 0.21271,1.52533 0.46432,2.53567c0.22934,0.92098 0.57983,1.52016 1.07401,2.5215l0.34732,0.8l0.23569,0.8l0.10065,0.8" id="svg_11" stroke-width="2" stroke="#000" fill="none"/>
  <path t="70243,70572,70591,70591,70591,70610,70626,70626,70626,70640,70640,70655,70673,70673,70689,70706,70722,70723,70739,70756,70773,70774,70789,70789,70806,70807,70839,70872,70873" d="m467,123c-3.41666,1.04166 -3.12057,1.99374 -3.03601,2.78933c0.07675,0.72209 0.01752,1.73956 0.20267,2.544c0.21378,0.92883 0.55576,1.64479 0.74802,2.696c0.13898,0.75998 0.08533,1.60667 0.08533,2.62334c0,0.69467 0,1.71133 0,2.65184c0,0.86217 0.09387,1.70003 -0.00015,2.67383c-0.08371,0.86702 -0.96463,1.24928 -1.63583,1.59633c-0.81247,0.42009 -1.80219,0.40932 -2.47867,0.99333c-0.56808,0.49045 -1.18985,1.31767 -2.20651,1.43217l-0.65799,0.02066" id="svg_13" stroke-width="2" stroke="#000" fill="none"/>
  <path t="76375,76556,76556,76556,76573,76573,76573,76590,76590,76609,76609,76609,76622,76623,76623,76653,76653,76653,76684,76684,76686,76686,76686,76715,76715,76715,76716,76716,76716,76745,76745,76746,76746,76746,76770,76772,76772,76797,76797,76797,76797,76821,76847,76847,76871,76871,76871,76896,76896,76896,76898,76898,76899,76899,76899,76924,76924,76926,76926,76950,76950,76950,76975,76975,76975,76977,76977,77001,77025,77025,77026,77027,77052,77052,77077,77077,77101,77126,77127,77151,77152,77153,77153,77153,77178,77179,77180,77180,77205,77229,77229,77255,77255,77255,77280,77280,77280,77305,77329,77331,77331,77331,77332,77357,77360,77360,77384,77384,77409,77409,77409,77435,77435,77460,77461,77462,77489,77517,77546,77546,77548,77549,77578,77580,77580,77610,77610,77636,77665,77665,77666,77692,77692,77718,77719,77719,77744,77744,77745,77771,77772,77796,77821,77857,77857,77860,77860,77861,77862,77863,77863,77887,77913,77913,77913,77939,77940,77965,77965,77990,77990,77992,77992,78017,78017,78042,78044,78044,78044,78070,78070,78095,78095,78121,78121,78121,78147,78147,78149,78149,78150,78150,78151,78176,78176,78178,78178,78178,78203,78203,78228,78228,78254,78254,78280,78280,78280,78282,78282,78283,78283,78283,78309,78309,78309,78311,78312,78312,78336,78337,78339,78339,78339,78365,78366,78366,78390,78391,78393,78393,78419,78419,78419,78445,78445,78445,78447,78447,78473,78473,78475,78475,78501,78501,78501,78501,78527,78527,78529,78529,78529,78554,78555,78555,78580,78580,78606,78636,78636,78636,78638,78638,78638,78640,78640,78640,78643,78643,78643,78673,78674,78674,78676,78676,78677,78715,78716,78716,78743,78743,78744,78769,78769,78772,78772,78772,78774,78774,78776,78776,78777,78804,78804,78804,78830,78830,78857,78857,78858,78884,78884,78884,78886,78887,78887,78887,78889,78889,78889,78891,78891,78891,78919,78919,78919,78946,78946,78946,78948,78948,78948,78975,78975,78976,78978,78978,78978,78979,79004,79004,79004,79031,79031,79031,79058,79058,79058,79069,79069,79070,79072,79072,79072,79073,79075,79075,79075,79076,79101,79102,79128,79128,79129,79129,79131,79131,79132,79132,79159,79160,79160,79160,79162,79163,79189,79190,79190,79190,79193,79193,79193,79194,79206,79206,79207,79222,79223,79223,79239,79240,79240,79255,79256,79257,79272,79273,79289,79290,79291,79305,79306,79322,79323,79323,79339,79340,79355,79356,79372,79389,79391,79391,79405,79406,79422,79423,79423,79439,79455,79456,79472,79473,79489,79522,79523,79539,79540,79555,79593,79594,79607,79607,79638,79689,79705,79706,79739,79755,79756,79805,79872,79873,79889,79922,79955,79989,80022,80040,80040,80055,80072,80073,80139,80189,80190,80289" d="m256,95c-5.776,2.39867 -6.1897,2.84473 -6.964,3.51466c-0.75887,0.65656 -1.54408,0.98758 -2.35333,1.19867c-0.98476,0.25687 -1.68028,0.19818 -2.68266,0.45333c-0.8214,0.20908 -1.41891,0.56942 -2.40134,1.316c-0.6321,0.48035 -1.24948,1.04807 -2.28133,1.348c-0.77803,0.22615 -1.57373,0.17294 -2.51201,0.522c-0.80081,0.29792 -1.57553,0.56767 -2.347,0.64733c-0.8605,0.08885 -2.06473,0.25679 -2.63699,0.44666c-0.82224,0.2728 -1.66896,0.88413 -2.32133,1.5325c-0.46124,0.4584 -1.50618,0.94499 -2.28534,0.9995c-1.04565,0.07316 -2.00266,-0.14957 -2.64265,0.10667c-0.8586,0.34375 -1.64256,0.87726 -2.40401,0.904c-1.16733,0.04099 -1.76534,0.01067 -2.62633,0.01067c-0.77101,0 -1.90305,-0.07929 -2.74434,0.284c-0.80896,0.34933 -1.56639,0.65414 -2.339,0.69517c-0.86,0.04567 -2.05754,-0.00816 -2.63699,0.04217c-1.05725,0.09183 -1.80983,0.59676 -2.472,1.128c-0.84198,0.67549 -1.60893,0.80667 -2.40117,0.84167c-1.02554,0.0453 -1.90649,0.009 -2.78149,0.009c-0.828,0 -1.71004,-0.01481 -2.43867,0.01067c-0.83777,0.02929 -2.03163,0.19427 -2.90666,0.41467c-0.55203,0.13904 -1.67236,0.50931 -2.51233,0.57017c-0.84846,0.06148 -1.85167,0.0045 -2.55968,0.0045c-0.98132,0 -1.9395,0 -2.916,0c-0.65866,0 -1.66666,0 -2.52882,0c-0.94051,0 -1.7885,0 -2.65184,0c-0.89549,0 -1.854,0 -2.81934,0c-0.66933,0 -1.43466,0 -2.43333,0c-0.79999,0 -1.79866,0 -2.74283,0c-0.89999,0 -1.85983,0 -2.62784,0c-1.04366,0 -1.85066,0 -2.43199,0c-1.19467,0 -2.05566,0 -2.82668,0c-1.09866,0 -1.99393,-0.09637 -2.93733,0.16666c-0.68163,0.19006 -1.3246,0.6778 -2.42267,0.82267c-0.81433,0.10744 -1.73216,0.01051 -2.62132,0.01067c-0.98933,0.00017 -1.83865,-0.09245 -2.78934,0.33334c-0.64081,0.287 -1.05267,1.0078 -2.11467,1.49599c-0.63994,0.29417 -1.65544,0.19118 -2.53799,0.52334c-0.70622,0.26579 -1.58888,0.61874 -2.54868,0.64733c-0.9649,0.02875 -1.62517,-0.0487 -2.63199,0c-0.8831,0.04272 -1.40149,0.80505 -2.22917,0.94283c-0.9254,0.15405 -1.79449,0.05717 -2.73483,0.05717c-0.83867,0 -1.85538,-0.00729 -2.55,0c-1.01683,0.01067 -1.67671,0.51189 -2.32466,1.14933c-0.59856,0.58884 -1.57683,0.80689 -2.32266,0.84167c-1.03358,0.04819 -1.80267,0.009 -2.76251,0.009c-0.89549,0 -1.75883,-0.00262 -2.722,0c-0.82535,0.00225 -1.6875,0.16666 -2.52083,0.5c-0.83333,0.33334 -1.6955,0.49775 -2.54166,0.5c-1.001,0.00266 -1.709,0 -2.453,0c-1.1955,0 -2.172,0 -2.84133,0c-0.76534,0 -1.764,0 -2.564,0c-1,0 -1.8,0 -2.8,0c-0.8,0 -1.8,0 -2.77917,0c-0.85417,0 -1.70758,0.07497 -2.44217,0.42533c-0.90179,0.43011 -1.58305,0.5404 -2.57333,0.57017c-1.03556,0.03113 -1.78301,0.07405 -2.49067,0.5725c-0.75995,0.53529 -1.49002,1.19189 -2.31467,1.36c-0.78681,0.16039 -1.8,0.07146 -2.6,0.072c-1.00134,0.00067 -1.84318,-0.00766 -2.76666,0.16666c-0.78939,0.14901 -1.55505,0.47926 -2.69067,0.71184c-0.78475,0.16071 -1.68598,0.10004 -2.39333,0.13216c-0.98316,0.04465 -1.90257,0.42339 -2.632,0.70534c-0.91881,0.35515 -1.72012,0.23798 -2.72183,0.293c-0.63368,0.03481 -1.82331,0.42073 -2.34367,0.69633c-0.80122,0.42435 -1.68538,1.08339 -2.55183,1.25301c-0.81883,0.16029 -1.7731,0.03468 -2.32133,0.07767c-1.18226,0.0927 -2.08324,0.28002 -2.90666,0.57466c-0.9568,0.34237 -1.58435,0.8617 -2.24001,1.104c-1.00224,0.37036 -1.85624,0.22623 -2.86533,0.61867c-0.74859,0.29114 -1.33055,0.88519 -2.16666,1.5c-0.5832,0.42883 -1.38415,0.8701 -2.39867,1.08267c-0.75668,0.15854 -1.6845,0.44231 -2.41116,0.73134c-0.92738,0.36887 -1.73802,0.34044 -2.29917,0.46249c-1.20795,0.26276 -1.81344,0.54379 -2.583,1.0755c-0.85213,0.58876 -1.25188,1.50342 -1.87867,2.01334c-0.57885,0.47092 -1.65318,0.58994 -2.42933,0.843c-1.04584,0.341 -1.59748,1.01862 -2,1.45833c-0.59629,0.6514 -1.62057,1.29489 -2.2,1.576c-1.04371,0.50636 -1.58418,1.21463 -2,1.64799c-0.77164,0.8042 -1.63549,1.08348 -2.31467,1.44267c-0.80067,0.42345 -1.2819,1.26793 -2.00616,1.85416c-0.79836,0.64621 -1.1206,1.05444 -1.68983,1.73917c-0.76849,0.92441 -1.38685,1.43372 -1.98933,1.85468c-0.79674,0.5567 -1.38998,1.04974 -2,1.56c-0.98421,0.82326 -1.61362,1.1792 -2.2,1.578c-1.02507,0.69716 -1.60347,1.26457 -2,1.65182c-0.80714,0.78825 -1.40003,1.39548 -2,1.9955c-0.79988,0.79996 -1.40339,1.38728 -1.764,1.8c-0.8486,0.97122 -1.21261,1.59328 -1.63467,2.40001c-0.41517,0.79356 -0.79848,1.62717 -1.368,2.39999c-0.456,0.61877 -0.98948,1.18271 -1.81217,1.9785c-0.53034,0.513 -1.36043,1.00899 -2.022,1.33051c-0.7192,0.34952 -1.5816,0.99147 -1.9125,1.94167c-0.25233,0.72458 -0.54219,1.59573 -1.08667,2.24933c-0.68306,0.81995 -0.84536,1.51741 -1.05067,2.24933c-0.3175,1.13188 -0.84677,1.58481 -1.35833,2.11317c-0.83417,0.86157 -1.2017,1.4894 -1.54933,2.15833c-0.34732,0.66833 -0.79809,1.9364 -0.991,2.70717c-0.21764,0.8696 -0.61633,1.67603 -1.0715,2.29283c-0.49254,0.66745 -1.11862,1.65384 -1.3325,2.21516c-0.32547,0.85417 -0.53284,2.06302 -0.594,2.6595c-0.08894,0.86746 -0.19806,1.94373 -0.40533,2.65184c-0.26746,0.91374 -0.52557,1.87424 -0.63267,2.68866c-0.07558,0.57474 -0.30741,1.78218 -0.7245,2.6595c-0.28396,0.59731 -0.66797,1.13206 -1.2685,2.18317c-0.3922,0.68646 -0.7961,1.59499 -0.93633,2.60667c-0.11505,0.83005 -0.07611,1.4192 -0.0855,2.6145c-0.00699,0.88953 0.05155,1.47852 -0.1665,2.53349c-0.20086,0.97179 -0.59333,1.67732 -1,2.5c-0.31471,0.63664 -0.67395,1.31694 -0.972,2.052c-0.57915,1.42831 -0.71603,2.12321 -0.78933,2.75734c-0.09656,0.8353 -0.07163,2.0565 -0.072,2.71983c-0.00067,1.1935 -0.00023,1.84593 -0.036,2.5695c-0.0382,0.77261 -0.17649,1.96933 -0.31667,2.76349c-0.13861,0.78526 -0.32769,1.54221 -0.48067,2.63783c-0.1398,1.00124 -0.16036,1.91994 -0.16533,2.48001c-0.01099,1.23845 -0.00133,1.948 -0.00133,3.01999c0,0.636 0,1.6875 0,2.4185c0,1.0815 0,2.091 0,2.72734c0,0.91949 0,1.82066 0,2.71016c0,0.8535 0,1.88933 0,2.81067c0,0.68401 0,1.68533 0,2.52083c0,0.88051 0,1.77901 0,2.6685c0,0.8535 0,1.88918 0,2.78984c0,1.02083 0,1.82083 0,2.62083c0,1.0045 0,1.63599 0,2.82117c0,0.79349 0,1.569 0,2.6095c0,0.7175 -0.11495,1.64166 0.08533,2.48532c0.21561,0.90823 0.78455,1.81241 0.8575,2.48935c0.10616,0.98502 0.05717,1.85199 0.05717,2.79999c0,0.96268 -0.00712,1.6947 0,2.42667c0.01067,1.09616 0.49868,1.80139 1.14933,2.40399c0.672,0.62238 0.72778,1.37012 0.852,2.47867c0.10029,0.89505 0.67098,1.48828 0.91467,2.36935c0.233,0.84244 0.57776,1.68591 0.91733,2.51599c0.29318,0.71671 0.16667,1.65268 0.16667,2.51599c0,0.96317 0,1.89468 0,2.80533c0,0.67868 -0.2799,2.01035 0.33333,2.51202c0.64882,0.53079 1.63064,0.61108 1.66667,1.48798c0.03503,0.8526 -0.24016,1.92429 0.284,2.59467c0.48917,0.62561 1.44236,0.96356 1.70533,1.73068c0.27156,0.79214 -0.28582,1.75461 0.01967,2.59167c0.30116,0.82523 1.28567,0.81433 1.96967,1.40833l0.02133,0.83734l0,0.86331l0.01067,1.01669" id="svg_14" stroke-width="2" stroke="#000" fill="none"/>
  <polyline timestamps="81491,81656,81672" startTime="1441566388724" id="svg_15" points="21,303 22.714666666666666,304.1693333333333 22.985333333333333,304.8613333333333 " stroke-linecap="round" stroke-width="2" stroke="#000" fill="none"/>
  <path t="84937,85115,85163,85163,85181,85213,85364,85381,85381,85398,85398,85398,85398,85414,85414,85414,85431,85431,85431,85432,85447,85448,85448,85448,85464,85464,85481,85481,85481,85482,85497,85498,85498,85514,85514,85531,85532,85532,85564,85631,85631,85781,85781,85881,85914,85964,85964,85981,85997,86014,86031,86031,86064,86097,86097,86131,86131,86147,86164,86181,86182,86214,86214,86247,86247,86264,86264,86264,86281,86297,86297,86314,86314,86331,86331,86351,86351,86363,86363,86381,86381,86397,86397,86414,86414,86414,86431,86431,86447,86447,86464,86465,86465,86481,86481,86481,86482,86497,86497,86498,86514,86514,86514,86515,86531,86531,86532,86532,86547,86547,86548,86548,86564,86564,86564,86564,86581,86581,86582,86582,86597,86598,86598,86614,86614,86614,86631,86631,86647,86647,86648,86648,86663,86663,86682,86683,86683,86699,86699,86714,86715,86731,86731,86731,86747,86764" d="m236,241c0,-3.33867 -0.00061,-4.32133 0,-5.17467c0.00067,-0.93866 0.2063,-2.58495 0.964,-2.22934c0.46118,0.21645 0.036,1.17868 0.036,2.37334c0,0.692 0,1.416 0,2.14801c0,1.39867 0,2.05733 0,3.03532c0,1.01401 0,1.73134 0,2.47267c0,1.12199 0,2.20799 0,2.888c0,0.94499 0,1.52499 0,2.80266c0,0.68401 0.0092,1.85078 -0.0045,2.64117c-0.00977,0.56381 -0.03246,1.45322 -0.2795,2.64017c-0.18088,0.86905 -0.41536,1.63622 -0.66783,2.59734c-0.2041,0.77695 -0.61617,1.57333 -1.04817,2.30533c-0.43201,0.73199 -0.94269,1.67969 -1,2.5c-0.06169,0.88318 0,1.82535 0,2.51599c0,0.96317 0,1.89468 0,2.80533c0,0.85333 0.10893,1.80005 0,2.67868c-0.11151,0.89941 -0.92947,1.43701 -0.98933,2.18533c-0.07411,0.92642 -0.01067,1.91483 -0.01067,2.70001c0,0.94 0,1.63065 0,2.70398c0,0.82135 0,1.73199 0,2.58533c0,0.94269 0,1.79468 0,2.5947c0,1.01599 -0.02931,2.06479 0.0045,2.7645c0.04333,0.89676 0.67357,1.51453 0.91283,2.31949c0.26157,0.88 0.34711,1.87354 0.93333,2.47467c0.73804,0.75681 1.10896,1.32758 1.43468,2.15601c0.27934,0.71048 0.86118,1.6886 1.47183,2.21149c0.6718,0.57523 1.58121,0.81113 2.0735,1.78983c0.33626,0.66852 0.36552,1.72433 0.60533,2.31467c0.33101,0.81482 0.82109,1.82593 1.2,2.36401c0.61296,0.87045 1.50769,1.24237 2.03067,2.16934c0.35078,0.62173 0.26724,1.49069 0.66666,2.5c0.29779,0.7525 0.89307,1.38785 1.26933,1.85065c0.80696,0.99255 1.2056,1.5401 1.56134,2.12668c0.7077,1.1669 0.93404,1.79709 1.35683,2.66849c0.27652,0.56992 1.01302,1.60846 1.48451,2.07266c0.48575,0.47824 1.29996,1.16949 1.85165,2.091c0.38196,0.638 0.61227,1.37463 0.834,2.10901c0.32512,1.07678 0.59776,2.09659 0.82983,2.72733c0.34154,0.92828 0.79056,1.82632 1.13184,2.41635c0.50735,0.87714 0.88815,1.40472 1.46199,2.4205c0.38123,0.6748 0.68488,1.36765 1.08667,2.36667c0.32022,0.7962 0.59897,1.61935 1.284,2.34933c0.65237,0.69519 1.53387,1.28452 1.91202,1.73599c0.59219,0.707 1.05469,1.45325 1.50183,2.42667c0.27759,0.60431 0.75809,1.35388 1.37683,2.056c0.44321,0.50293 1.31192,1.37231 1.68234,2.22849c0.35037,0.80981 0.48093,1.60855 1.20831,2.35419c0.586,0.60071 1.34933,0.88 2.29169,1.16666l0.54166,0.54166" id="svg_16" stroke-width="2" stroke="#000" fill="none"/>
  <path t="87983,88246,88263,88263,88263,88280,88281,88297,88297,88297,88297,88314,88314,88314,88314,88331,88331,88331,88347,88347,88347,88364,88364,88381,88381,88381,88397,88397,88397,88414,88414,88431,88431,88431,88447,88447,88464,88464,88480,88481,88497,88497,88497,88514,88514,88530,88531,88547,88548,88567,88567,88567,88597,88613,88614,88631,88631,88647,88666,88666,88697,88712,88730,88731,88749,88766,88782,88782,88797,88797,88813,88830,88831,88846,88847,88864,88864,88864,88880,88898,88913,88913,88930,88946,88946,88963,88963,88981,88981,88996,88996,89014,89031,89031,89046,89046,89064,89081,89096,89096,89131,89146,89146,89164,89164,89213,89264,89313,89313,89330,89363,89364,89380,89381,89396,89431,89463,89464,89480,89481,89496,89512,89513,89547,89547,89581,89581,89581,89597,89616,89617" d="m297,242c0.64734,-0.17667 0.91833,0.76907 1,1.52083c0.08649,0.79625 0.22937,1.81999 0.64667,2.7045c0.45886,0.97261 0.84424,1.45578 1.35333,2.2955c0.35211,0.5808 0.83572,1.47807 1.25183,2.37466c0.27057,0.58296 0.66177,1.46437 1.29068,2.18301c0.64404,0.73593 1.30267,1.00105 1.95749,1.92149c0.5192,0.7298 0.53271,1.61398 0.78534,2.40134c0.27368,0.853 0.70471,1.76926 1.01917,2.54684c0.32138,0.79468 0.82532,1.75525 1.34818,2.24197c0.65216,0.60712 1.3732,1.09973 1.82648,1.83069c0.5845,0.94254 0.87372,1.55664 1.16367,2.37915c0.34436,0.97681 0.23007,1.892 0.92651,2.71466c0.50247,0.59354 1.54446,0.87601 1.98401,1.55734c0.50388,0.78104 0.33789,1.59161 0.53067,2.56c0.19476,0.97836 0.681,1.51291 1.39865,2.25201c0.49884,0.51373 1.25201,1.32233 1.49649,2.03683c0.33997,0.99359 0.45959,1.72595 0.66818,2.47382c0.2872,1.02966 0.58011,1.97021 0.92734,2.64133c0.41974,0.81122 0.40326,1.82346 1.13065,2.25418c0.86072,0.50967 1.29333,0.91116 1.29468,1.80984c0.00137,0.93597 0,1.784 0,2.64731c0,1.01669 0,1.854 0,2.81934c0,0.83334 -0.14569,1.83878 0.05716,2.52884c0.26416,0.89862 0.87183,1.62115 0.93216,2.51517c0.06662,0.98715 0.01068,1.78934 0.01068,2.78934c0,0.78934 0,1.51468 0,2.58932c0,0.82135 0,1.73199 0,2.58533c0,0.94 0,1.82535 0,2.71069c0,0.95065 0,1.71597 0,2.71466c0,0.79999 0,1.79868 0,2.564c0,0.95065 0,1.836 0,2.72134c0,0.94 0,1.63065 0,2.70398c0,0.82135 0,1.73199 0,2.58533c0,0.94 0,1.82535 0,2.71069c0,0.94 0,1.63065 0,2.70398c0,0.82135 0,1.73199 0,2.58533c0,0.94 0.10501,1.84186 -0.08533,2.71069c-0.17389,0.79373 -0.73669,1.6066 -0.87866,2.47867c-0.15125,0.92896 -0.03601,1.80264 -0.03601,2.63599c0,0.97849 0.18237,1.83502 -0.07199,2.63599c-0.29736,0.93634 -1.06668,1.26993 -1.59467,2.19736c-0.43777,0.76895 -0.33334,1.70932 -0.33334,2.41733c0,0.98132 -0.00449,1.935 -0.22134,2.84949l-0.42599,0.65701" id="svg_17" stroke-width="2" stroke="#000" fill="none"/>
  <path t="90166,90363,90363,90363,90380,90381,90381,90397,90397,90397,90412,90412,90430,90431,90431,90446,90447,90447,90463,90463,90480,90481,90497,90514,90514,90514,90530,90530,90550,90550,90563,90564,90580" d="m273,343c1.832,4.51334 1.88815,5.16632 2.10535,6.03833c0.26431,1.06113 0.75558,1.72598 1.24649,2.35718c0.62601,0.8049 1.1593,1.58472 1.36151,2.2045c0.31989,0.9805 0.29007,1.8671 0.50833,2.82117c0.18393,0.80399 0.45059,1.6337 1.09949,2.43616c0.43817,0.54187 1.26364,1.05594 1.56451,2.14801c0.19916,0.72284 0.11432,1.66132 0.11432,2.57333c0,0.84265 0,1.75467 0,2.672c0,0.74399 0,1.78134 0,2.55466c0,0.96268 0,1.69467 0,2.86133l0.02084,0.77084l0.55383,0.62384" id="svg_18" stroke-width="2" stroke="#000" fill="none"/>
  <path t="90883,91030,91030,91030,91046,91047,91047,91063,91063,91064,91064,91080,91080,91081,91096,91097,91097,91113,91114,91114,91114,91130,91130,91130,91131,91146,91147,91147,91147,91163,91163,91164,91180,91180,91181,91196,91197,91197,91213,91214,91214,91214,91214,91230,91230,91230,91247,91247,91247,91263,91264,91264,91283,91283,91302,91302,91302,91317,91317,91317,91317,91331,91332,91332,91347,91348,91363,91364,91364,91380,91381,91397,91397,91397,91413,91414,91430,91431,91431,91447,91463,91464,91480,91481" d="m274,348c2.74399,3.59866 2.96506,4.47769 2.996,5.31467c0.03705,1.00198 0.00357,1.70618 0.004,2.45468c0.00067,1.19998 -0.00101,1.89249 0.03601,2.616c0.03748,0.7327 0.23889,2.13007 0.38931,2.76797c0.20941,0.88809 0.48334,1.92252 0.53867,2.63202c0.07654,0.98163 0.02362,1.8577 0.04669,2.87601c0.01642,0.72424 0.03519,1.46179 0.21066,2.51733c0.16672,1.00287 0.37659,1.64209 0.49466,2.30533c0.2478,1.39212 0.25592,2.14111 0.27332,2.89066c0.01718,0.74118 0.01068,1.80368 0.01068,2.77866c0,0.88501 0,1.92535 0,2.62134c0,0.90933 -0.02771,1.91394 0.04166,2.767c0.0506,0.62219 0.27121,1.63208 0.52768,2.34235c0.2706,0.74942 0.62265,1.48773 0.948,2.23199c0.60849,1.39194 0.86758,2.02777 1.121,2.92233c0.22311,0.7876 0.34018,1.73581 0.35718,2.41434c0.03082,1.22964 0.00449,2.02649 0.00449,2.77798c0,0.96402 0,1.73734 0,2.78818c0,0.8385 0,1.46918 0,2.5025c0,1.104 0,1.85333 0,2.59467c0,1.06216 0,2.02667 0,2.86517c0,0.87616 0,1.82416 0,2.78818c0,0.7515 0,1.54797 0,2.54666c0,0.90933 0,1.85065 0,2.63217c0,0.7905 0,1.90915 0,2.70248c0,0.892 0,1.84933 0,2.58133c0,0.95816 0,1.93466 0,2.76801l0,0.97849l0,0.82019" id="svg_19" stroke-width="2" stroke="#000" fill="none"/>
  <path t="91939,92062,92063,92063,92063,92080,92081,92081,92097,92097,92097,92097,92113,92113,92113,92129,92129,92129,92129,92146,92147,92147,92147,92147,92163,92163,92163,92163,92180,92180,92180,92180,92196,92196,92196,92197,92197,92213,92213,92213,92213,92230,92230,92230,92230,92230,92246,92246,92263,92263,92263,92263,92280,92280,92280,92280,92296,92297,92297,92297,92313,92313,92313,92314,92330,92330,92330,92346,92347,92347,92363,92363,92363,92380,92380,92396,92396,92397,92413,92413,92446,92446,92447,92480,92480,92480,92496,92496,92496,92530,92546,92546,92612,92613,92630,93197,93596,93612,93612,93646,93646,93679,93699,93699,93699,93729,93730,93748,93748,93748,93780,93780,93800,93821,93821,93846,93847,93866" d="m322,336c0,3.884 0,4.62534 0,5.37466c0,0.74133 0,2.14133 0,2.79999c0,0.6507 0,1.992 0,2.70801c0,0.73199 0,1.45599 0,2.784c0,0.828 0.00113,1.58401 0,2.66669c-0.00067,0.63733 -0.00381,1.70932 -0.05716,2.47565c-0.08304,1.19315 -0.22296,1.9917 -0.36816,2.79102c-0.14548,0.80069 -0.31674,1.59674 -0.45352,2.79984c-0.09024,0.79388 -0.10919,1.58386 -0.23099,2.34299c-0.17633,1.09912 -0.44998,1.77673 -0.74084,2.43182c-0.29053,0.65436 -0.84537,1.98593 -0.97998,2.71069c-0.13849,0.74564 -0.17242,1.52643 -0.25201,2.31598c-0.12103,1.20059 -0.26999,1.99869 -0.41733,2.79868c-0.14734,0.79999 -0.34464,1.9989 -0.41599,2.79733c-0.06973,0.78043 -0.08084,1.53363 -0.16803,2.23199c-0.15088,1.20847 -0.49792,1.92981 -0.74933,3.13733c-0.16357,0.78568 -0.15479,1.37485 -0.16531,2.32001c-0.01151,1.03461 0.01633,1.76764 -0.043,2.51334c-0.08908,1.1199 -0.38443,2.18542 -0.66367,2.84732c-0.27835,0.65982 -0.68967,1.27545 -1.05185,2.67386c-0.1853,0.71545 -0.2081,1.45947 -0.29099,2.16898c-0.14838,1.27014 -0.4021,2.0412 -0.59918,2.75803c-0.2652,0.96466 -0.30536,1.79007 -0.40533,2.65631c-0.13837,1.19904 -0.29596,1.78757 -0.522,2.6235c-0.25415,0.93988 -0.37836,1.80206 -0.86798,2.81467c-0.2316,0.47897 -0.78967,1.16458 -1.224,2.12399c-0.36414,0.80435 -0.31766,1.87659 -0.34402,2.59467c-0.02905,0.79132 -0.20221,1.81989 -0.41464,2.51334c-0.2796,0.91281 -0.5112,1.90656 -0.55383,2.7045c-0.0401,0.75067 -0.02084,1.8595 -0.02084,2.84216c0,0.67868 0.03809,1.65805 0,2.47736c-0.04272,0.91895 -0.90268,1.04941 -1.81467,1.22266c-0.89139,0.16934 -1.39709,1.24774 -0.616,1.80801c0.64926,0.4657 1.6825,0.16705 2.76401,0.17065c0.672,0.00226 1.45444,-0.12222 2.52399,0.2215c0.84128,0.27036 1.68274,0.8847 2.39334,1.1785c0.74133,0.30649 1.57907,0.74521 2.328,1.164c0.80576,0.45056 1.74265,0.43634 2.59598,0.508l0.80383,0.37067l0.50067,0.55734l0.62067,0.75717" id="svg_20" stroke-width="2" stroke="#000" fill="none"/>
  <path t="94283,94480,94480,94480,94496,94513,94514,94531,94546,94547,94563,94579,94579,94579,94613,94613,94630,94662,94663,94679,94729,94779,94780,94845,94846,94896,94945,94946,94963,94980,94980,94996,94996,95013,95013,95013,95030,95046,95046,95063,95063,95063,95080,95080,95096,95096,95113,95130,95130,95130,95146,95146,95146,95162,95163,95180,95180,95196,95196,95212,95213,95213,95231,95231,95246,95263,95280,95280,95296,95296,95296,95313,95313,95330,95346,95363,95363,95380,95380,95380,95396,95396,95413,95430,95446,95446,95446,95463,95480,95496,95513,95513,95534,95545,95563,95563,95579,95580,95596,95629,95646,95646,95679,95679,95679,95696,95696,95729,95745,95763,95763,95780,95796,95796,95813,95813,95830,95830,95830,95846,95846,95846,95879,95879,95912,95912,95945" d="m281,416c-2.74399,4.51199 -2.93375,5.13901 -2.98651,5.98117c-0.06552,1.0462 -0.01349,2.01883 -0.01349,2.81882c0,0.95718 0,1.85269 0,2.716c0,0.86935 0,1.81735 0,2.73468c0,0.74399 0,1.77866 0,2.54666c0,0.95984 0,1.85535 0,2.71866c0,0.84802 0,1.78851 0,2.80533c0,0.67868 0,1.65717 0,2.47736c0,0.9585 -0.12952,1.87726 0.08533,2.71732c0.22595,0.88354 1.08347,1.30695 1.91467,1.48401c0.98151,0.20908 1.63416,0.66956 2.54266,0.87851c0.69501,0.15985 1.70734,-0.05426 2.64301,0.13049c0.85995,0.1698 1.24313,1.15469 2.14767,1.65765c0.61771,0.34348 1.41583,0.32266 2.52383,0.33334c0.75745,0.00729 1.7955,0 2.49014,0c1.03802,0 1.98602,0 2.66251,0c0.77551,0 1.82352,0 2.75418,0c0.83466,0 1.836,0 2.63599,0c1,0 1.80002,0 2.80002,0c0.79999,0 1.79999,0 2.59998,0c0.80002,0 1.7955,0 2.54285,0c1.02118,0 1.96167,0 2.82382,0c0.85419,0 1.83334,0 2.63333,0c0.80002,0 1.7955,0 2.54285,0c1.02118,0 1.96167,0 2.82382,0c0.85419,0 1.83334,0 2.63333,0c0.80002,0 1.7955,0 2.54285,0c1.02118,0 2.02115,0.11859 2.82382,-0.33334c0.72983,-0.41092 1.17737,-0.96631 2.07169,-1.55682c0.70639,-0.46643 1.20837,-1.07272 2.08282,-1.10999c0.81754,-0.03482 1.65305,-0.50543 2.28949,-1.06119c0.58618,-0.51184 1.05969,-1.37723 1.87201,-1.76932c0.75314,-0.36353 1.52377,-0.7843 1.94266,-1.58002c0.40018,-0.76016 0.56424,-1.61002 0.57468,-2.58932c0.00851,-0.79996 0,-1.60001 0,-2.59549c0,-0.74734 0,-1.76852 0,-2.70901c0,-0.86215 0.09387,-1.70001 -0.00015,-2.67383c-0.08371,-0.86703 -0.81888,-1.00333 -1.76785,-1.02301c-0.98172,-0.02036 -1.93512,-0.08914 -2.58133,-0.44531c-0.66489,-0.36646 -1.40808,-1.05197 -2.15067,-1.5325c-0.72205,-0.46725 -1.69016,-0.91101 -2.38266,-1.10352l-0.94269,-0.34265l-0.69064,-0.29068l-1.03735,-0.30933" id="svg_21" stroke-width="2" stroke="#000" fill="none"/>
  <path t="97938,98095,98095,98095,98112,98112,98112,98112,98129,98129,98129,98129,98144,98144,98144,98162,98162,98162,98162,98179,98179,98179,98179,98179,98195,98195,98196,98196,98196,98212,98213,98213,98213,98229,98229,98230,98230,98230,98246,98246,98246,98246,98246,98262,98263,98263,98263,98279,98279,98280,98280,98295,98296,98296,98312,98313,98313,98329,98329,98330,98346,98346,98362,98363,98363,98379,98396,98412" d="m364,247c-0.91467,4.51466 -0.97803,5.16364 -0.99551,6.0955c-0.02261,1.20447 -0.00449,1.80899 -0.00449,2.74049c0,0.64932 0.0137,1.68539 -0.01068,2.77866c-0.01614,0.72427 0.01749,1.43515 -0.27597,2.61734c-0.19495,0.7854 -0.6011,1.53546 -1.03467,2.41101c-0.33221,0.6709 -0.69318,1.39227 -1.026,2.16599c-0.50833,1.18167 -0.76645,1.99222 -1.03802,2.79102c-0.2724,0.80121 -0.37277,1.22391 -0.948,2.39999c-0.39951,0.81683 -0.9162,1.59006 -1.16666,1.97916c-0.49246,0.76511 -1.18124,1.84659 -1.53201,2.53683c-0.33124,0.65176 -0.74014,1.65466 -1.30133,2.65067c-0.41208,0.73135 -0.92575,1.46024 -1.1875,1.83334c-0.52652,0.75049 -1.31094,1.83444 -1.79517,2.51334c-0.45718,0.64102 -0.88712,1.25894 -1.36798,1.79999c-0.70605,0.79446 -1.55093,1.46271 -2.12668,1.91202c-0.58957,0.46008 -1.49545,1.18866 -2.08032,1.72284c-0.57376,0.52402 -1.09579,1.04086 -1.96634,1.90915c-0.64349,0.64185 -1.10718,1.11417 -1.91202,1.91068c-0.48987,0.4848 -0.98367,1.01959 -2.064,1.89865c-0.46661,0.3797 -1.35513,0.86014 -2.14532,1.4335c-0.67972,0.49323 -1.3313,1.23285 -1.84668,1.71451c-0.67615,0.6319 -1.52798,1.12399 -2.14932,1.61066l-0.60001,0.60001" id="svg_22" stroke-width="2" stroke="#000" fill="none"/>
  <path t="100181,100544,100560,100561,100561,100579,100579,100579,100594,100594,100594,100612,100613,100613,100613,100629,100629,100629,100645,100645,100646,100661,100662,100679,100679,100679,100679,100695,100695,100695,100695,100711,100712,100712,100730,100730,100730,100745,100745,100745,100745,100762,100762,100762,100778,100779,100779,100779,100794,100795,100795,100795,100795,100812,100813,100828,100829,100829,100845,100862,100994,100995" d="m351,285c-1.9375,2.52084 -1.29251,3.32083 -1.10535,4.00534c0.20047,0.73325 0.51242,1.88577 0.97736,2.34399c0.68188,0.67203 1.35797,1.17029 1.91733,1.92267c0.3967,0.5336 1.05807,1.72159 1.32532,2.32666c0.38501,0.87173 0.55362,1.45523 0.9855,2.47983c0.2923,0.69348 0.75806,1.54117 1.38385,2.3215c0.49512,0.61734 1.08301,1.16431 1.63065,2.00134c0.5257,0.8035 0.88583,1.76514 1.18985,2.55582c0.21667,0.56357 0.55591,1.45673 1.01682,2.34268c0.31458,0.60471 0.85776,1.46146 1.19467,2.01483c0.60669,0.99649 0.98199,1.67685 1.28268,2.36932c0.42987,0.98996 0.70581,1.84375 0.9585,2.4205c0.53043,1.21075 0.8786,1.80502 1.45349,2.65952c0.37686,0.56018 0.98483,1.31857 1.58932,2.01065c0.59558,0.68188 1.21713,1.37936 1.80002,2.18701c0.41229,0.57129 0.81412,1.19168 1.39999,2.20499c0.40994,0.70901 0.78723,1.44482 1.20001,2.13602c0.38812,0.6499 1.19067,1.65186 1.77914,2.15567c0.84293,0.72165 1.33511,1.15582 1.65918,1.88898c0.43161,0.97644 0.36615,1.95718 0.52832,2.81934l0.28,0.64801" id="svg_23" stroke-width="2" stroke="#000" fill="none"/>
  <path t="103138,103310,103311,103311,103311,103329,103329,103329,103348,103349,103349,103364,103365,103365,103365,103381,103381,103381,103381,103397,103397,103397,103397,103412,103413,103428,103428,103428,103443,103444,103461,103462,103462,103478,103479,103479,103479,103493,103493,103493,103493,103512,103512,103512,103528,103529,103529,103529,103563,103565,103566,103566,103582,103582,103582,103582,103599,103599,103599,103615,103615,103615,103637,103637,103652,103652,103652,103652,103672,103672,103672,103687,103687,103688,103705,103705,103705,103721,103722,103736,103736,103751" d="m395,229c-2.6355,4.39967 -2.87531,5.18622 -2.96799,6.328c-0.05679,0.69958 -0.03201,1.90266 -0.03201,2.65117c0,0.70349 0,1.70749 0,2.5625c0,0.94499 0.00568,1.97972 -0.00449,2.711c-0.01041,0.74744 0.00421,1.50233 -0.21686,2.92599c-0.10458,0.67337 -0.30859,1.31523 -0.49466,2.30533c-0.19388,1.0316 -0.23792,1.7592 -0.26315,2.47433c-0.03479,0.98657 0.04794,1.99583 -0.078,2.8425c-0.14633,0.98389 -0.47021,1.71307 -0.65884,2.51649c-0.23273,0.9913 -0.27866,1.90799 -0.284,2.84933c-0.00449,0.7905 0,1.64401 0,2.83334c0,0.60132 0,1.52084 0,2.15717c0,1.36401 0,2.091 0,2.82199c0,0.711 0,1.97818 0,2.77017c0,0.75601 -0.00534,1.89355 0.00449,2.56052c0.0105,0.71112 0.04565,1.81259 0.21686,2.86884c0.10904,0.67264 0.37177,1.64297 0.49466,2.30533c0.19156,1.03238 0.22595,1.76904 0.30933,2.89066c0.05515,0.74161 0.16321,1.81146 0.33633,2.45917c0.23972,0.89685 0.76816,1.8696 1.29102,2.35632c0.65216,0.60712 1.52792,1.25998 1.80566,1.8515c0.504,1.07343 0.48563,1.9158 0.56699,2.76901c0.05637,0.59088 0.2352,1.79568 0.42133,2.37866c0.2767,0.8667 0.87631,1.88806 1.36801,2.58533c0.47726,0.67679 0.97623,1.63956 1.12399,2.44c0.14218,0.7702 0.28268,1.64252 0.63602,2.39999l0.34131,0.86935l0.13669,0.86331l0.29999,0.89551" id="svg_24" stroke-width="2" stroke="#000" fill="none"/>
  <path t="105419,105710,105711,105711,105728,105728,105744,105744,105744,105762,105762,105762,105762,105778,105778,105778,105793,105793,105810,105811,105811,105829,105829,105844,105844,105844,105860,105861,105861,105878,105878,105878,105894,105894,105911,105912,105912,105928,105928,105944,105944,105960,105961,105978,105979,105979,105994,105995,106010,106029,106029,106044,106044,106061,106062,106062,106078,106078,106094,106094,106111,106112,106128,106129,106144,106163,106178,106179,106194,106211,106211,106228,106244,106244,106278,106279,106310,106343,106344,106344,106377,106394,106427,106428,106510" d="m428,364c0.87851,6.5925 0.97809,7.61954 0.99551,8.3775c0.0235,1.02222 -0.0199,1.82281 0.00482,2.82285c0.02081,0.84207 0.12115,1.58783 0.569,2.76764c0.26352,0.69418 0.6127,1.38297 0.948,2.06403c0.45651,0.92722 0.91046,1.66876 1.19601,2.56531c0.31348,0.98428 0.27353,1.6387 0.2868,2.82385c0.00888,0.79352 -0.05844,1.60101 0.28384,2.61084c0.21942,0.64737 0.62338,1.50818 0.67999,2.23999c0.06458,0.83511 0.03601,2.02783 0.03601,2.91733c0,0.57468 -0.04974,1.89252 0.02133,2.57468c0.08789,0.84335 0.5686,1.62048 1.12799,2.436c0.53888,0.78564 0.81226,1.59778 0.84802,2.39999c0.04453,0.99902 0.00266,1.79999 0.00266,2.79999c0,0.80002 0,1.80002 0,2.60001c0,1 0,1.79999 0,2.60001c0,0.99548 0,1.74283 0,2.76401c0,0.83865 0.03918,1.60773 -0.009,2.64133c-0.03476,0.74585 -0.27151,1.70551 -0.84167,2.33331c-0.53528,0.58939 -1.10922,1.49512 -1.14667,2.26266c-0.04868,0.99753 0.00931,1.81693 -0.28665,2.79736c-0.23657,0.78372 -0.47281,1.62036 -0.80002,2.39999c-0.36362,0.86639 -0.80963,1.73367 -1.62131,2.15317c-0.67386,0.34827 -1.22644,0.90921 -1.29468,1.8815c-0.06049,0.86194 -0.55923,1.52219 -0.87866,2.48798c-0.21649,0.65457 -0.38315,1.63461 -0.76868,2.37418c-0.41876,0.80334 -0.79211,1.62848 -1.35266,2.3045c-0.42957,0.51804 -0.97916,1.47916 -1.35266,2.3045l-0.48068,0.86215l-0.14133,0.64801l-0.30933,1.01599" id="svg_25" stroke-width="2" stroke="#000" fill="none"/>
  <path t="107130,107427,107428,107443,107444,107460,107461,107461,107478,107478,107478,107493,107494,107494,107494,107510,107511,107527,107543,107544,107544,107560,107560,107560,107578,107578,107610,107610,107610,107628,107628,107660,107727,107760,107760,107810,107827,107827,107844,107877,107893,107910,107910,107927,107927,107943,107960,107977,108010,108027,108027,108043,108044,108077,108093,108127,108143,108160,108160,108177,108178,108193,108210,108227,108228,108228,108243,108260,108260,108260,108277,108293,108293,108310,108310,108310,108329,108329,108343,108343,108344,108360,108362,108376,108377,108377,108393,108393,108394,108410,108411,108411,108427,108428,108444,108445,108445,108460,108460,108461,108477,108478,108493,108494,108510,108510,108510,108527,108528,108543,108561,108561,108561,108577,108577,108594,108610,108611,108627,108660,108677,108678,108693,108694,108712,108728,108729,108743,108760,108760,108777,108778,108793,108794,108812,108827,108828,108843,108860,108877,108878,108893,108894,108910,108927,108927,108944,108944,108960,108993" d="m392,397c2.82849,1.0625 2.98398,1.75967 3,2.85733c0.01157,0.79324 0,1.91333 0,2.68433c0,0.56735 0,1.75851 0,2.66901c0,0.62534 0,1.95599 0,2.67068c0,0.72266 0,1.75165 0,2.61865c0,0.9375 0,1.80899 0,2.83334c0,0.681 0,1.48798 0,2.66666c0,0.59732 0,1.45834 0,2.66666c0,0.68268 0,1.66669 0,2.58401c0,0.74399 0,1.77866 0,2.54666c0,0.90268 0.03671,1.83951 -0.00134,2.68533c-0.04279,0.95074 -0.64706,1.4574 -1.64682,1.52182c-0.78503,0.0506 -1.39972,0.64331 -2.15317,1.07953c-0.71927,0.41641 -1.73621,0.67776 -2.33734,0.97733c-0.88577,0.44141 -0.80975,1.60641 -1.66266,1.936c-0.7869,0.30408 -1.35556,0.75916 -2.21951,1.00266c-0.94595,0.2666 -1.63589,0.60907 -1.89514,1.48267c-0.233,0.78513 -0.56268,1.74194 -1.25336,2.23334c-0.7153,0.50891 -1.74493,0.55835 -1.83066,1.45065c-0.07968,0.82953 -0.05515,1.81369 0,2.63202c0.05728,0.84991 0.96045,0.98334 1.83334,1.53467c0.6329,0.39975 0.86627,1.26529 1.57733,2.03067c0.67242,0.72375 1.39465,1.07175 2.10532,1.35065c0.9408,0.36923 1.64343,0.89017 2.15601,1.47067c0.61285,0.69406 1.31647,1.09625 2.07733,1.36801c1.08749,0.38843 1.90808,0.44345 2.79333,0.668c0.7142,0.18115 1.45599,0.41061 2.65201,0.7305c0.77603,0.20755 1.56924,0.62842 2.34698,1.04816c0.56262,0.30362 1.75348,0.78027 2.35385,0.89017c0.86304,0.15796 1.94547,0.24954 2.64734,0.46249c0.86328,0.26193 1.86063,0.54028 2.65717,0.67267c1.0054,0.16708 1.59427,0.45496 2.48532,0.69067c0.98438,0.26041 1.81448,0.27234 2.63068,0.28265c0.99857,0.0126 1.87332,0.00134 2.884,0.00134c0.79999,0 1.79999,0 2.59998,0c0.80002,0 1.7955,0 2.54285,0c1.04251,0 1.99051,0 2.66251,0c0.74399,0 1.85165,0 2.79199,0c0.83865,0 1.68668,0 2.54999,0c1.01669,0 1.87595,0.09637 2.81934,-0.16666c0.68167,-0.19006 1.65619,-0.73129 2.42267,-0.82266c0.92551,-0.11032 1.72665,-0.24518 2.58533,-0.58536c0.79892,-0.3165 1.66223,-0.75781 1.82535,-1.44617c0.22662,-0.95633 0.7395,-1.69043 1.64816,-1.92648c0.76883,-0.19974 1.34732,-0.8143 1.35184,-1.70535c0.00351,-0.69464 0,-1.71133 0,-2.65182c0,-0.86215 0,-1.6955 0,-2.67398c0,-0.82019 0.06281,-1.78152 -0.009,-2.67419c-0.05634,-0.70032 -0.69632,-1.59015 -1.28568,-2.04282l-0.64398,-0.69385l-0.56134,-0.6315" id="svg_26" stroke-width="2" stroke="#000" fill="none"/>
  <path t="111806,112003,112004,112004,112004,112020,112020,112020,112020,112038,112039,112039,112039,112039,112054,112054,112054,112054,112070,112070,112070,112071,112087,112087,112088,112103,112104,112104,112120,112120,112121,112121,112121,112140,112140,112140,112153,112154,112154,112170,112170,112170,112187,112187,112188,112188,112203,112204,112220,112220,112221,112237,112238,112238,112253,112254,112254,112270,112270,112271,112287,112288,112288,112303,112304,112304,112320,112320,112321,112337,112338,112353,112354,112354,112370,112370,112387,112388,112388,112403,112404,112420,112420,112421,112437,112437,112438,112453,112454,112470,112471,112471,112488,112488,112503,112504,112504,112520,112520,112521,112537,112538,112538,112553,112554,112570,112570,112571,112587,112588,112588,112588,112603,112604,112604,112620,112620,112637,112638,112653,112654,112654,112670,112670,112671,112687,112688,112703,112704,112704,112704,112723,112724,112724,112724,112739,112739,112739,112753,112754,112754,112754,112770,112770,112787,112788,112788,112803,112804,112804,112804,112820,112820,112821,112821,112837,112838,112838,112838,112853,112854,112854,112870,112870,112871,112887,112887,112888,112903,112904,112920,112921,112937,112937,112954,112970,112970,112971,112987,113003,113004,113037,113037" d="m84,330c6.81416,0.87851 7.67539,0.95386 8.4375,0.97916c1.04211,0.03458 2.084,0.02084 2.81966,0.02084c0.76367,0 1.54733,0 2.74284,0c0.8,0 1.6,0 2.4,0c0.8,0 2,0 2.8,0c0.8,0 1.60001,0 2.8,0c0.79733,0 1.57867,0 2.328,0c1.33866,0 2.16216,-0.00006 2.88667,0c1.207,0.00009 1.74844,-0.02338 2.632,0.03601c1.32346,0.08899 2.03793,0.2449 2.77867,0.38931c0.74995,0.14621 1.48598,0.32495 2.553,0.45319c0.97174,0.11679 1.86014,0.10373 2.90033,0.12183c0.69621,0.01212 1.62157,0.12979 2.34283,0.44232c0.83589,0.36218 1.65707,0.92194 2.5785,1.224c0.87602,0.28717 1.47852,0.31027 2.31467,0.33069c1.2323,0.03006 1.91066,0.00266 2.85201,0.00266c0.786,0 1.608,0 2.66666,0c0.94135,0 1.61934,0 2.85201,0c0.83549,0 1.41917,0 2.6145,0c0.8895,0 1.46417,0 2.53349,0c0.94135,0 1.61934,0 2.85201,0c0.83549,0 1.41917,0 2.61433,0c0.879,0 1.6864,-0.02609 2.55766,0.00015c0.94928,0.02859 1.9104,0.28952 2.6635,0.49985c0.79486,0.22198 1.79185,0.44006 2.45834,0.47916c1.01929,0.05978 1.82083,0.02084 2.62083,0.02084c1.0045,0 1.85716,0 2.82149,0c0.8145,0 1.68301,0 2.87817,0c0.59134,0 1.42833,0 2.55766,0c0.79333,0 1.68533,0 2.64267,0c0.73199,0 1.69467,0 2.468,0c1.05083,0 1.88933,0.00006 2.52,0c1.03299,-0.00009 2.11737,0.01462 2.81467,-0.03601c1.20128,-0.08719 1.80692,-0.38852 2.66399,-0.67999c0.78287,-0.26624 1.8187,-0.27206 2.86667,-0.284c0.71402,-0.00815 1.42438,0.01974 2.58817,-0.44266c0.55444,-0.22031 1.37259,-0.74429 1.97984,-0.98935c1.1687,-0.47162 1.77567,-0.52921 2.828,-0.56534c0.96477,-0.03314 1.73892,0.01627 2.78049,-0.00714c0.77596,-0.01743 1.83357,-0.12778 2.53751,-0.35269c0.68948,-0.22031 1.61441,-0.65619 2.40083,-0.93832c0.78581,-0.28192 1.94487,-0.48083 2.7025,-0.80182c0.72978,-0.30917 1.35716,-0.97458 1.91183,-1.40268c0.59229,-0.45712 1.58498,-1.07034 2.68567,-1.33301c0.72142,-0.17215 1.45,-0.15851 2.4185,-0.33365c0.83276,-0.1506 1.79039,-0.57962 2.5,-1c0.79178,-0.46906 1.32413,-0.8168 2.064,-1.34933c0.97989,-0.70529 1.55356,-1.22202 2.53999,-1.68533c0.49176,-0.23099 1.35152,-0.52829 2.22934,-0.96533c0.91919,-0.45761 1.51219,-0.84967 2.15717,-1.18066c0.99681,-0.51157 1.72913,-0.75702 2.44684,-1.03802c1.0365,-0.40585 1.94978,-0.90079 2.53349,-1.62c0.37885,-0.4668 0.73143,-1.33893 1.63184,-2.02399c0.68867,-0.52396 1.29474,-0.6322 2.30917,-1.07083c0.91243,-0.3945 1.53555,-0.76508 2.32149,-1.38251c0.6124,-0.48111 1.15291,-1.06879 2.20001,-1.4075c0.77586,-0.25098 1.82309,-0.34283 2.564,-0.72049c0.84648,-0.43146 1.54233,-1.00937 2.35683,-1.41019c0.81194,-0.39957 1.31168,-0.83301 1.99518,-1.49649c0.7346,-0.71307 1.48399,-1.31601 2.24117,-1.53534l0.89099,-0.30899l0.642,-0.39999" id="svg_27" stroke-width="2" stroke="#000" fill="none"/>
  <path t="115057,115203,115203,115203,115219,115220,115220,115220,115238,115238,115238,115238,115238,115253,115253,115253,115270,115270,115270,115286,115287,115287,115287,115303,115303,115303,115303,115303,115319,115320,115320,115336,115337,115337,115353,115353,115353,115369,115370,115370,115386,115387,115403,115419,115420" d="m84,322c1.82933,2.96933 1.94798,3.66022 1.97867,4.38535c0.06124,1.44687 0.04054,2.13162 0,2.78931c-0.06045,0.98059 -0.29482,1.99786 -0.54667,2.70935c-0.26475,0.74792 -0.60641,1.48157 -0.864,2.23199c-0.36069,1.05081 -0.48819,2.03979 -0.61617,2.92233c-0.15137,1.04388 -0.41217,1.73718 -0.59917,2.4715c-0.28542,1.12079 -0.30137,1.80441 -0.35267,2.53183c-0.05411,0.76724 -0.15429,1.96027 -0.284,2.75702c-0.12905,0.79276 -0.30766,1.56235 -0.43201,2.31598c-0.23021,1.39517 -0.262,2.04898 -0.2795,2.98083c-0.02261,1.20413 -0.0045,1.80002 -0.0045,2.66852c0,1.06934 0.04274,2.02258 -0.11433,2.68866c-0.23472,0.99533 -0.74166,1.759 -1.035,2.28601c-0.61898,1.11209 -0.82934,1.84 -0.87151,2.78217l-0.2005,0.80048l-0.35333,0.85333" id="svg_28" stroke-width="2" stroke="#000" fill="none"/>
  <path t="115955,116136,116136,116154,116155,116155,116155,116169,116170,116170,116170,116187,116187,116188,116188,116202,116203,116203,116219,116219,116219,116220,116220,116236,116237,116237,116253,116253,116253,116253,116253,116269,116269,116270,116270,116287,116287,116287,116302,116303,116303,116303,116319,116319,116320,116320,116336,116337,116352,116353,116353,116369,116369,116370,116370,116386,116387,116387,116387,116403,116403,116419,116419,116420,116436,116437,116437,116452,116453,116453,116469,116469,116487,116487,116487,116503,116504,116519,116519,116520,116536,116537,116537,116552,116553,116569,116570,116570,116586,116587,116587,116603,116603,116619,116619,116636,116637,116637,116652,116653,116669,116670,116670,116686,116687,116687,116687,116702,116703,116719,116720,116736,116737,116737,116752,116752,116770,116771,116787,116788,116788,116802,116803,116803,116819,116819,116836,116837,116837,116869,116870,116870,116886,116887,116887,116902,116903,116903,116919,116936,116937,116952,116953,116953,116969,116970,116986,116987,117002,117003,117019,117020,117020,117036,117052,117053" d="m15,298c2.833,2.60901 2.97968,3.27603 3.16667,4.33334c0.17264,0.9762 0.34463,1.677 0.595,2.36133c0.36181,0.98886 0.91004,1.78522 1.377,2.556c0.30781,0.50809 0.70941,1.71616 0.8,2.41068c0.09416,0.72186 0.08755,1.46533 0.34667,2.85464c0.12388,0.66422 0.3336,1.30698 0.71467,2.65067c0.20308,0.71609 0.40003,1.45627 0.564,2.20801c0.16121,0.73911 0.30998,1.80453 0.42133,2.79999c0.07283,0.65106 0.32879,1.9986 0.584,2.71069c0.27174,0.75821 0.61937,1.52393 0.7825,1.91916c0.4917,1.19135 0.77607,1.98849 1.0015,2.77417c0.2139,0.74548 0.4941,2.08615 0.594,2.91599c0.09085,0.75458 0.21329,1.83984 0.33667,2.47467c0.13474,0.69333 0.38889,1.77841 0.54933,2.86401c0.09998,0.67648 0.08069,1.63193 0.336,2.39465c0.28486,0.85101 1.1466,1.32959 1.58783,2.315c0.30701,0.68567 0.25752,1.57111 0.4095,2.457c0.15629,0.91104 0.35533,1.52051 0.63467,2.48532c0.29975,1.03531 0.50036,1.75677 0.67783,2.47302c0.24404,0.98492 0.4727,1.9856 0.51633,2.8425c0.04925,0.96729 -0.03975,1.73877 0.17517,2.51648c0.28629,1.03601 0.8944,1.64569 1.26133,2.36667c0.48806,0.95898 0.54474,1.81534 0.56533,2.63202c0.02521,0.99969 -0.00069,1.68399 0.00267,2.85065c0.00225,0.78152 -0.07443,1.59442 0.16667,2.5c0.23091,0.86734 0.71407,1.66129 0.79733,2.60535c0.07359,0.83435 0.036,1.728 0.036,2.61899c0,0.83701 -0.00007,1.77567 0,2.60901c0.00008,1.04285 -0.02871,1.76462 0.05717,2.55182c0.11275,1.03357 0.47807,1.91617 0.65883,2.54684c0.28288,0.98697 0.2416,1.80231 0.28667,2.80267c0.03769,0.83667 0.3045,1.77832 0.70267,2.54684c0.41707,0.80502 1.06363,1.68768 1.22267,2.40115c0.21466,0.96301 0.072,1.66501 0.072,2.47198c0,1.17868 0,2.07419 0,2.65784c0,0.83551 0,2.06369 0,2.71017c0,1.01068 0,1.81067 0,2.81067c0,0.79999 0,1.60001 0,2.60001c0,0.79999 0,1.80133 0,2.63599c0,0.93066 0,1.72116 0,2.57468c0,1.18933 0,2.08032 0,2.64767c0,1.20831 0,2.04166 0,2.875c0,0.92798 0,1.71848 0,2.74533c0,0.69598 0,1.60532 0,2.60666c0,0.83551 0,1.716 0,2.61432c0,0.87903 0,1.686 0,2.72968c0,0.97067 0,1.785 0,2.74002c0,0.7515 -0.01908,1.54819 0.00134,2.54532c0.01792,0.87515 0.20886,1.88922 0.49866,2.66449c0.32106,0.85889 0.49467,1.68213 0.5,2.56351c0.00428,0.70801 0,1.68933 0,2.64301l0,0.91449l0,0.78519" id="svg_29" stroke-width="2" stroke="#000" fill="none"/>
  <path t="117641,117736,117736,117736,117752,117752,117752,117770,117770,117770,117771,117787,117787,117787,117787,117788,117802,117803,117803,117803,117819,117819,117819,117819,117836,117836,117836,117836,117852,117852,117853,117853,117853,117869,117869,117869,117869,117886,117886,117886,117886,117886,117902,117902,117903,117903,117903,117919,117920,117920,117920,117936,117936,117936,117937,117952,117952,117953,117953,117953,117969,117969,117969,117969,117989,117989,117989,117990,117990,118002,118002,118003,118003,118019,118019,118019,118019,118036,118036,118052,118053,118053,118069,118069,118069,118086,118087,118087,118102,118119,118119,118136,118136" d="m83,354c-0.91467,2.05334 -0.98611,3.02072 -0.9955,3.69916c-0.0174,1.25806 -0.0045,2.05017 -0.0045,2.80618c0,1.13766 0,1.80899 0,2.53632c0,0.76733 0,1.95834 0,2.75833c0,0.80002 0,1.60001 0,2.40002c0,1.19983 0,1.99548 0,2.77914c0,0.76367 0,2.19952 0,2.86816c0,0.97803 0,1.63669 0,2.67419c0,0.73566 0,1.49933 0,2.28299c0,1.1955 0,1.99548 0,2.7955c0,0.79999 0.00633,1.60004 -0.00034,2.79999c-0.00445,0.80005 -0.00545,1.6041 -0.114,2.39999c-0.16484,1.20865 -0.44915,2.00293 -0.73634,2.81067c-0.29404,0.827 -0.61875,1.66556 -0.81599,2.556c-0.2012,0.90833 -0.27404,1.84741 -0.312,2.772c-0.01853,0.45129 -0.02133,1.728 -0.02133,2.8515c0,0.689 0,1.358 0,2.73135c0,0.73566 0,1.49933 0,2.28299c0,1.1955 0,1.99548 0,2.7955c0,0.79999 0,1.60001 0,2.79999c0,0.80002 0,1.60001 0,2.39999c0,1.20001 0,2 0,2.80002c0,0.79999 0,1.60001 0,2.79984c0,0.79565 0,1.57932 0,2.34299c0,1.09052 0,2.09552 0,2.71552c0,0.85498 0,2.08899 0,2.767c0,0.94131 0,1.72733 0,2.54932c0,1.05869 0,2 0,2.67801c0,1.23001 0,2.02649 0,2.77798c0,0.9595 0,1.936 0,2.76935l0.00034,0.97833l0.17033,0.73502" id="svg_30" stroke-width="2" stroke="#000" fill="none"/>
  <path t="118606,118752,118752,118752,118769,118787,118787,118787,118802,118802,118802,118819,118819,118819,118836,118836,118852,118852,118869,118869,118886,118886,118886,118902,118902,118919,118919,118919,118936,118936,118936,118936,118952,118952,118952,118969,118969,118969,118969,118986,118986,118986,118986,118987,119002,119002,119003,119003,119003,119018,119018,119018,119018,119018,119036,119036,119036,119036,119037,119037,119052,119052,119052,119053,119069,119069,119069,119069,119069,119069,119086,119086,119086,119086,119087,119103,119103,119103,119103,119103,119119,119119,119119,119119,119136,119136,119136,119136,119137,119137,119152,119152,119153,119153,119169,119169,119169,119170,119186,119186,119186,119186,119202,119202,119202,119203,119219,119220,119220,119220,119220,119236,119236,119237,119252,119252,119253,119269,119269,119286,119286,119286,119302,119302,119319,119352,119353,119353,119368,119369,119386,119402,119402,119402,119419,119419,119436,119436,119436,119452,119452,119453,119469,119469,119469,119489,119489,119502,119502,119503,119519,119519,119519,119536,119536,119552,119586,119587,119619,119619" d="m35,430c-1.82933,3.59732 -1.97691,4.45764 -1.99733,5.22934c-0.02963,1.1196 -0.00267,2.104 -0.00267,2.78049c0,0.77551 0,1.82352 0,2.76483c0,0.67801 0,1.64651 0,2.44c0,1.01599 0,1.98001 0,2.75333c0,1.03735 -0.05207,1.78259 0.00033,2.88919c0.03599,0.76001 0.54826,1.64789 1.04134,2.14282c0.53794,0.53998 1.40578,1.05453 2.12233,1.66135c0.72379,0.61295 1.0407,1.37195 1.49733,2.08798c0.61143,0.95877 1.33702,1.45901 1.8595,1.70901c0.78086,0.37363 1.81298,0.71054 2.47917,1.08331c0.7046,0.39426 1.68082,1.23495 2.25733,1.70901c0.61778,0.508 1.29177,1.02414 2.076,1.41599c0.81472,0.40707 1.72525,0.66171 2.1875,0.77084c0.92602,0.2186 2.31189,0.4025 3.19384,0.47983c0.84879,0.0744 1.67889,0.11609 2.484,0.25201c0.80653,0.13617 1.60473,0.39655 2.42267,0.68134c0.85143,0.29645 1.74055,0.62082 2.712,0.81598c1.02578,0.20605 1.56683,0.23212 2.64584,0.3125c0.53386,0.03976 1.56987,0.0799 2.52083,0.1875c0.85065,0.09625 1.99699,0.34979 2.758,0.48068c1.23768,0.21286 1.70546,0.24316 2.7045,0.2955c0.52387,0.02744 1.59747,0.0488 2.13667,0.05267c1.56747,0.01126 2.05783,0.00449 2.9865,0.00449c0.87267,0 1.70533,0 2.91433,0c0.8,0 1.6,0 2.4,0c0.8,0 2.00017,0 2.8045,0c0.81634,0 1.65267,0 2.96217,0c0.45467,0 1.386,0 2.33334,0c0.94733,0 1.41601,0.00336 2.77834,-0.00015c0.86001,-0.00223 1.68124,0.00003 2.46,-0.05701c1.09753,-0.08035 2.11525,-0.26614 2.72,-0.50534c0.88154,-0.34869 1.64048,-0.96127 2.089,-1.45184c0.7112,-0.77786 1.11523,-1.4064 1.87434,-2.28549c0.52547,-0.60852 1.10028,-1.20181 1.74,-1.74301c0.97616,-0.82584 1.35404,-1.04401 2.082,-1.5c0.7096,-0.44452 1.46761,-0.7551 2.492,-1.65717c0.61954,-0.54556 0.97908,-1.22168 1.58567,-2c0.48167,-0.61804 1.07821,-1.16144 1.657,-2c0.52995,-0.76782 0.90264,-1.79364 0.98566,-2.59998c0.08202,-0.79657 0.036,-1.7955 0.036,-2.54285c0,-0.909 0,-1.99051 0,-2.66251c0,-0.74399 0.04743,-1.853 0,-2.68567c-0.05408,-0.94958 -0.65217,-1.64551 -1.28667,-2.13434c-0.69968,-0.53903 -1.54569,-1.18695 -2.21333,-1.65381c-0.80536,-0.56314 -1.49951,-0.84827 -2.28533,-1.08484c-1.03613,-0.31195 -1.76092,-0.40292 -2.66734,-0.43152c-0.96803,-0.03055 -1.78371,0.08578 -2.5375,-0.1188c-1.09666,-0.29764 -1.40305,-1.0473 -2.34317,-1.55234c-0.63018,-0.33853 -1.48785,-0.32266 -2.66666,-0.33334c-0.89096,-0.00806 -1.45834,0 -2.66666,0c-0.79167,0 -1.744,-0.01068 -2.65467,-0.22134l-0.67867,-0.27866l-0.9785,-0.37851l-0.717,-0.117" id="svg_31" stroke-width="2" stroke="#000" fill="none"/>
  <path t="121139,121368,121368,121368,121387,121387,121387,121387,121402,121402,121402,121402,121419,121420,121420,121435,121436,121436,121436,121436,121452,121452,121452,121452,121452,121468,121468,121469,121469,121469,121485,121486,121486,121486,121486,121501,121502,121502,121502,121503,121518,121518,121519,121535,121535,121536,121551,121552,121552,121552,121552,121568,121568,121569,121569,121585,121586,121586,121602,121602,121602,121618,121618,121619,121619,121619,121635,121636,121636,121636,121652,121652,121652,121652,121668,121668,121669,121685,121686,121686,121701,121702,121702,121718,121719,121719,121739,121739,121739,121752,121753,121753,121753,121770,121770,121787,121787,121802,121802,121818,121819,121835,121836,121836,121852,121868,121869,121869,121885,121886,121918" d="m115,335c0.0135,2.01883 0.06248,2.86978 0.256,3.48801c0.33188,1.0603 0.79935,1.76907 1.26484,2.51199c0.47113,0.75189 1.16409,1.82391 1.5085,2.51334c0.31563,0.63181 0.53377,1.24619 0.97066,2.32001c0.29408,0.72281 0.63386,1.42905 1.16666,2.5c0.31739,0.63797 0.66934,1.33865 1.04401,2.08798c0.39067,0.78134 0.98933,1.97867 1.18933,2.37866c0.40001,0.80002 0.79999,1.60001 1.2,2.40002c0.59999,1.19998 0.8,1.59998 1.2,2.39999c0.39999,0.79999 0.79999,1.60001 1.39999,2.79999c0.2,0.39999 0.60001,1.20001 1,2c0.4,0.80002 0.80162,1.59921 1.19867,2.39868c0.39227,0.78986 0.77505,1.56088 1.116,2.31598c0.47752,1.05762 0.72755,1.72394 1.07468,2.63867c0.40994,1.08029 0.70718,1.80228 1.04666,2.508c0.51854,1.07794 0.851,1.70654 1.18933,2.40002c0.35248,0.72247 0.70789,1.44867 1.15317,2.51715c0.27504,0.65997 0.61331,1.60999 0.82016,2.22018c0.4062,1.19833 0.58824,1.79535 0.90134,2.64417c0.38435,1.04202 0.69789,1.75571 1.11433,2.46698c0.49182,0.84003 0.95572,1.45807 1.43634,2.15152c0.50079,0.72253 1.01761,1.43542 1.60649,2.51715c0.35532,0.65268 0.61198,1.30515 0.89101,1.91699c0.55342,1.21353 0.89854,1.80362 1.4265,2.66852c0.33755,0.55298 0.95813,1.54263 1.3045,2.23599c0.33739,0.67535 0.74068,1.67853 1,2.52084c0.17834,0.57932 0.38824,1.78043 0.50616,2.66849c0.11353,0.85504 0.29715,1.67343 0.7245,2.35352c0.42699,0.6795 1.30319,1.63736 1.65416,2.27847c0.3689,0.67386 0.7439,1.81882 0.9315,2.47952c0.19196,0.67603 0.3927,1.65155 0.62183,2.64316c0.17268,0.74734 1.03787,1.38449 1.51468,2.02667c0.53142,0.71573 0.43001,1.55429 0.73466,2.69598c0.18822,0.70535 0.68677,1.66357 0.78065,2.33417c0.09938,0.70987 0.51402,1.64542 0.886,2.49918c0.32002,0.73453 0.2765,1.49918 0.73466,2.52933l0.58134,0.54935l0.67999,0.62134" id="svg_32" stroke-width="2" stroke="#000" fill="none"/>
  <path t="123722,123935,123935,123935,123951,123951,123951,123969,123970,123970,123985,123985,123985,124001,124001,124001,124002,124018,124018,124018,124035,124036,124036,124051,124051,124052,124068,124068,124068,124068,124085,124085,124085,124101,124101,124102,124118,124118,124118,124119,124135,124151,124151,124152,124168,124168,124168,124185,124185,124185,124201,124201,124218,124218,124218,124235,124235,124235,124251,124252,124252,124268,124268,124268,124269,124285,124285,124301,124301,124302,124318,124335,124335,124351,124351,124352,124368,124368,124368,124385,124385,124401,124401,124418,124435,124435" d="m151,332c1.20134,6.06 1.37254,6.68491 1.75717,7.43918c0.51447,1.00891 0.88226,1.51788 1.4175,2.2995c0.64296,0.93893 1.27477,1.56396 1.53867,2.22931c0.39604,0.99854 0.24944,1.59714 0.54134,2.43469c0.32455,0.93124 1.02597,1.79166 1.50533,2.36133c0.46753,0.5556 1.30406,1.5314 1.69833,2.23599c0.37277,0.6662 0.73492,1.68719 0.95233,2.22534c0.33415,0.82709 0.89938,1.86166 1.41467,2.54932c0.34193,0.45633 1.04031,1.37607 1.4175,2.1825c0.25896,0.55365 0.54619,1.44748 0.95851,2.64151c0.20454,0.59235 0.50929,1.47009 0.96533,2.23468c0.44243,0.74176 1.06239,1.3562 1.66666,2.33331c0.30879,0.49933 0.66197,1.30096 0.88,2.064c0.31561,1.10458 0.42549,2.11142 0.64833,2.77469c0.25374,0.75522 0.7765,1.69003 1.46367,2.34399c0.50209,0.47784 1.18158,1.17859 1.53867,1.90134c0.36078,0.73022 0.82425,1.79074 1.272,2.39999c0.66615,0.9064 1.01262,1.35754 1.53867,2.09866c0.65366,0.9209 1.23608,1.56967 1.62399,2.21866c0.46072,0.77081 0.69991,1.58344 1.08667,2.43469c0.41254,0.90799 0.75064,1.49896 1.28934,2.32532c0.33121,0.50809 1.1172,1.4332 1.52083,2.07733c0.57678,0.92047 0.80911,1.68698 1.01917,2.42667c0.3084,1.086 0.75575,1.83438 1.30617,2.30966c0.85863,0.74139 1.22757,1.46112 1.56851,2.20767c0.41751,0.91425 0.80435,1.60461 1.29599,2.13333c0.7381,0.79376 1.41205,1.1918 1.87167,2.09583c0.38734,0.76187 0.27899,1.6575 0.52699,2.50552l0.36334,0.86331" id="svg_33" stroke-width="2" stroke="#000" fill="none"/>
  <path t="125354,125517,125518,125541,125541,125552,125552,125569,125635,125635,125735,125750,125769,125769,125851,125851,125985,126034,126117,126118,126167,126167,126250,126267,126268,126285,126317,126367,126417,126450,126451,126517,126567,126567,126601,126602,126617,126650,126667,126668,126684,126685,126685,126701,126734,126735,126735,126751,126751,126767,126767,126767,126785,126802,126818,126818,126834,126835,126835,126851,126851,126851,126867,126868,126868,126884,126885,126901,126901,126901,126917,126918,126934,126935,126935,126935,126951,126951,126951,126967,126985,126985,126985,127001,127001,127017,127018,127018,127034,127051,127051,127067,127068,127084,127085,127101,127102,127117,127118,127134,127135,127167,127168,127168,127184,127185,127185,127201,127201,127217,127218,127234,127251,127267,127268,127284,127285,127301,127317,127334,127351,127351,127367,127368,127400,127434,127435,127451,127500,127501,127517,127518,127550,127567,127585,127585,127601,127617,127618,127650,127651,127667,127668,127668,127684,127717,127717,127718,127734,127736,127767,127785,127786,127801,127834,127867,127867,127900,127901,127917,127959,127967,127967,128000,128017,128018,128050,128051,128067,128117" d="m151,420c0.91467,4.22934 0.99466,5.17865 1,6.19983c0.00407,0.77933 -0.01762,1.77884 0,2.59885c0.01801,0.83789 0.31865,1.67154 0.64734,2.54865c0.33092,0.88303 0.07433,1.96182 0.68599,2.48602c0.64333,0.55133 1.57288,0.72397 1.65767,1.51849c0.10741,1.0065 0.009,1.95267 0.009,2.81482c0,0.83334 0,1.81183 0,2.63202c0,0.83731 0.25813,1.95776 -0.17067,2.63199c-0.45551,0.71622 -1.48041,0.88574 -2.11333,1.48532c-0.57747,0.54703 -0.716,1.40533 -0.716,2.25867c0,0.94 0,1.82535 0,2.58252c0,0.89551 -0.00551,1.75885 0,2.72198c0.00534,0.93158 0.15457,1.87805 0.54167,2.52084c0.53738,0.89236 1.25285,1.41992 1.97433,1.71335c0.84087,0.34198 1.81921,0.44659 2.48933,0.63931c0.74617,0.21457 1.84656,0.57632 2.64532,0.63666c0.88953,0.06717 1.84933,0.01068 2.58133,0.01068c1.09601,0 1.96935,0 2.93468,0c0.66933,0 1.83333,0 2.43784,0c0.85266,0 1.81699,0 2.63148,0c0.86852,0 2.06367,0 2.65501,0c0.83699,0 1.96632,0 2.75966,0c0.89217,0 1.87016,0 2.66667,0c0.99866,0 1.68266,0 2.84933,0c0.7905,0 1.644,0 2.23466,0c1.196,0 2.05699,0 2.828,0c1.12,0 2.10399,0 2.776,0c0.74399,0 1.85199,0 2.64532,0c0.892,0 1.84933,0 2.58133,0c1.09601,0 1.9787,0.05365 2.73868,-0.08533c1.05121,-0.19226 1.76988,-0.52277 2.696,-0.74802c0.80592,-0.19601 1.64932,-0.40118 2.508,-0.74133c0.79906,-0.31653 1.64406,-0.57712 2.24667,-1.28665c0.40688,-0.47906 1.33659,-1.27783 2.09949,-1.61783c0.52373,-0.2334 1.55112,-0.63663 2.45834,-1c0.61523,-0.2464 1.65991,-0.33368 2.36366,-0.63068c0.99312,-0.4191 1.1376,-1.30978 1.63184,-2.2435c0.36504,-0.68964 1.40883,-0.76343 2.0045,-1.18832c0.89659,-0.63953 0.90617,-1.4642 1.021,-2.43668c0.10214,-0.86505 0.94609,-1.30582 0.99983,-2.18832c0.05067,-0.83206 0.24658,-1.79791 0.57466,-2.42267c0.42259,-0.80475 0.42534,-1.73199 0.42534,-2.58533c0,-0.94 0,-1.92551 0,-2.71069c0,-0.94 0,-1.63065 0,-2.70398c0,-0.82135 0.0006,-1.73199 0,-2.58533c-0.00067,-0.94 -0.16644,-1.8255 -0.61067,-2.46133c-0.59169,-0.84689 -0.97307,-1.63794 -1.72266,-2.03067c-0.83849,-0.4393 -1.6886,-0.21268 -2.59067,-0.76935c-0.84621,-0.52219 -1.37076,-0.94547 -2.07516,-1.26401c-1.04285,-0.47156 -1.64471,-1.09833 -2.52167,-1.27914c-0.94354,-0.19455 -1.65384,-0.02084 -2.722,-0.02084c-0.85718,0 -1.75717,0 -2.51434,0c-0.89549,0 -1.75883,0 -2.722,0c-0.93149,0 -1.84216,0 -2.6955,0c-0.94,0 -1.82533,0 -2.5825,0c-0.89549,0 -1.75883,0 -2.722,0.02084l-0.82533,0.33182" id="svg_34" stroke-width="2" stroke="#000" fill="none"/>
  <path t="128738,128967,128967,128967,128984,128984,128984,128984,128984,129002,129002,129002,129002,129017,129017,129017,129017,129017,129034,129035,129035,129035,129050,129051,129051,129051,129067,129067,129067,129068,129084,129084,129085,129100,129101,129117,129118" d="m184,397c0.91867,3.60132 1.00244,4.52985 1.16701,5.15717c0.26973,1.0282 0.66248,1.74255 1.14099,2.45749c0.49712,0.74271 1.06644,1.44553 1.99167,2.34268c0.57361,0.55621 1.18948,1.01236 1.686,1.548c0.72881,0.78625 1.07187,1.45398 1.34233,2.16666c0.28035,0.73874 0.46716,1.53122 0.77217,2.72784c0.2029,0.79602 0.39819,1.58664 0.657,2.34299c0.37711,1.10214 0.70424,1.78552 1.26366,2.73633c0.36815,0.62573 0.97731,1.52209 1.37917,2.11951c0.39816,0.59192 0.98103,1.45895 1.60001,2.23468c0.57376,0.71909 1.12801,1.31998 1.75717,2.14532l0.291,0.77399l0.30899,0.90002l0.34734,0.69464" id="svg_35" stroke-width="2" stroke="#000" fill="none"/>
  <path t="131311,131599,131599,131615,131615,131615,131616,131632,131649,131649,131649,131649,131666,131666,131682,131682,131699,131699,131699,131716,131716,131732,131732,131732,131749,131749,131765,131765,131783,131783,131799,131866,131866" d="m87,351c2.01434,-0.94284 2.8213,-0.99466 4,-1c0.59733,-0.00272 1.45837,0.00735 2.22933,0c1.12016,-0.01068 2.1152,-0.31403 2.776,-0.70984c0.75748,-0.45374 1.25923,-0.76657 2.18034,-1.53299c0.63533,-0.52863 1.2441,-1.16257 1.69966,-1.72784c0.62564,-0.77634 1.10432,-1.53674 1.63067,-2.26132c0.58725,-0.80844 1.13312,-1.38702 1.58383,-2.31067c0.33545,-0.68744 0.52823,-1.45602 0.8175,-2.48801c0.23981,-0.8555 0.80319,-1.60947 1.23199,-2.14398c0.63055,-0.78601 0.848,-1.62402 0.85067,-2.58252l0,-0.89551l0,-0.86331" id="svg_36" stroke-width="2" stroke="#000" fill="none"/>
  <path t="135428,135681,135682,135703,135703,135703,135727,135728,135728,135746,135746,135746,135768,135768,135768,135785,135786,135786,135802,135819,135819,135834,135834,135834,135849,135863,135863,135882,135899,135900,135948,136231,136232,136298,136332,136348,136348,136365,136366,136381,136399,136414,136432,136432,136432,136448,136448,136465,136466,136481,136481,136497,136516,136531,136531,136566,136566,136581,136581,136598,136616,136616,136631,136631,136648,136648,136682,136682,136698,136715,136716,136731,136748,136748,136766,136767,136783,136802,136802,136824,136840,136841,136856,136856,136872,136887,136902,136917,136918,136932,136933,136948,136982,136982,136982,137051" d="m335,127c2.892,0.88267 2.99799,1.688 3,2.68533c0.00168,0.83549 0,1.716 0,2.6145c0,0.8895 0,1.743 0,2.77882c0,0.69601 0,1.60535 0,2.60667c0,0.83549 0,1.716 0,2.61433c0,0.879 0,1.686 0,2.72966c0,0.97067 0,1.785 0,2.73868c0,0.73199 0,1.46399 0,2.57066c0,0.98267 0,1.836 0,2.776c0,0.88533 -0.00183,1.68533 0,2.52133c0.00226,1.01666 -0.0448,1.75427 0.42532,2.728c0.37576,0.77831 0.82843,1.45032 1.46133,1.80533c0.8154,0.4574 1.43622,1.16209 2.22668,1.66135c0.77896,0.49199 0.70013,1.58134 1.38666,2.00266c0.67395,0.4136 1.80975,0.17722 2.33749,0.87651c0.5253,0.69603 0.83261,1.61769 1.5715,1.9285c0.94629,0.39804 1.77567,0.29724 2.57016,0.86166c0.68881,0.48933 1.12543,1.15344 1.77802,1.79466c0.64417,0.63297 1.65576,0.60565 2.48566,1.0625c0.62332,0.34312 1.23407,1.22592 2.07849,1.52167c0.82358,0.28845 1.66171,0.55978 2.15784,1.12117c0.72891,0.82477 1.43051,1.02373 2.34619,1.436c0.71243,0.32076 1.30991,1.0632 2.27481,1.44249c0.73926,0.29059 1.88983,-0.14961 2.5665,0.45483c0.55588,0.49655 0.94193,1.39134 1.62802,1.71484c0.76794,0.36211 1.23578,1.22734 2.05716,1.59467c0.85822,0.3838 1.797,0.20676 2.53351,0.52783c0.85733,0.37373 1.23911,1.05383 2.228,1.66c0.73257,0.44907 1.24722,1.13066 2.05331,1.16933c0.83264,0.03995 1.78928,0.26181 2.52884,0.64734c0.80331,0.41876 1.62582,0.79533 2.3045,1.35266l0.51599,0.43201l0.96317,0.52632" id="svg_37" stroke-width="2" stroke="#000" fill="none"/>
 </g>
 <g display="none">
  <title>muse_image</title>
  <image xlink:href="http://farm1.static.flickr.com/182/466831693_35c432cff0.jpg" id="muse" height="480" width="640" y="0" x="0"/>
 </g>
 <g display="none">
  <title>bbox</title>
  <rect stroke="#f00" fill="none" stroke-width="3" height="451.84" width="487.68" y="28.16" x="51.2" id="bbox"/>
 </g>
</svg>
