<svg width="640" height="480" xmlns="http://www.w3.org/2000/svg" xmlns:svg="http://www.w3.org/2000/svg" xmlns:xlink="http://www.w3.org/1999/xlink">
 <!-- Sketchy ANNOTATION
  ImageNet ID: n02503517_1984
  URL: http://farm1.static.flickr.com/33/99995258_5d66772a78.jpg
  Image Width: 450
  Image Height: 299
  BBox X: 56
  BBox Y: 43
  BBox Width: 279
  BBox Height: 193
  Exposure: 2000ms
  Synset Label: elephant
  Synset ID: n02503517
  Worker Tag: an elephant is lead by mahout
  Sanity Check: 
   Context
   Saved
   Shading
  Comment: 
   {}
  Worker ID: A1P7U2ULSAE7YL
  Assignment ID: 32N49TQG3GIH6ZTMNVOHZXEP7AFAV5
  HIT ID: 34KYK9TV2R84AXJG9CE6U1J3PEISBU
  Work Time: 271s
  Worker Score: 0.9286
 END ANNOTATION -->
 <g display="inline">
  <title>Layer 1</title>
  <path t="6197,6372,6382,6397,6416,6437,6445,6454,6470,6478,6494,6510,6510,6525,6525,6534,6534,6542,6550,6558,6566,6582,6582,6590,6598,6606,6606,6622,6630,6638,6646,6646,6654,6663,6663,6702,6709,6710,6734,6742,6758,6774,6782,6790,6798,6814,6822,6838,6838,6846,6854,6870,6879,6886,6894,6894,6902,6918,6926,6942,6942,6942,6958,6966,6966,6974,6974,6982,6998,7006,7014,7022,7037,7038,7046,7054,7062,7062,7070,7079,7086,7102,7102,7110,7110,7118,7134,7134,7142,7142,7149,7166,7174,7190,7198,7198,7206,7214,7214,7222,7230,7230,7238,7238,7246,7254,7262,7262,7262,7270,7279,7286,7286,7296,7302,7302,7310,7317,7326,7333,7342,7358,7358,7366,7374,7406,7422,7438,7454,7462,7470,7478,7496,7502,7502,7510,7510,7518,7518,7526,7534,7534,7542,7542,7550,7550,7558,7558,7566,7566,7574,7597,7598,7606,7615,7632,7632,7638,7653,7670,7671,7679,7687,7696,7703,7703,7711,7711,7711,7719,7719,7727,7727,7735,7735,7743,7743,7743,7751,7751,7759,7759,7767,7767,7775,7783,7783,7791,7799,7799,7815,7816,7823,7823,7839,7849,7863,7863,7871,7871,7879,7879,7887,7896,7903,7918,7935,7943,7943,7951,7967,7983,7991,7999,8016,8016,8023,8038,8047,8065,8071,8080,8087,8095,8112,8127,8127,8142,8143,8158,8183,8198,8199,8207,8223,8232,8254,8255,8270,8279,8295,8303,8319,8335,8351,8359,8374,8383,8391,8391,8399,8399,8407,8414,8432,8454,8455,8486,8512,8534,8535,8543,8543,8558,8567,8606,8623,8678,8679,8687,8695,8703,8711,8728,8758,8790,8799,8822,8838,8894,9094,9095,9118,9134,9190,9199,9222,9255,9278,9287,9287,9300,9311,9319,9334,9344,9359,9382,9430,9462,9486,9534,9535,9566,9590,9599,9615,9631,9648,9678,9710,9726,9742,9774,9790,9862,9894,9934,9943,9982,9998,10014,10030,10062,10071,10079,10182,10206,10230,10239,10254,10263,10294,10295,10303,10342,10374,10374,10390,10406,10446,10526,10558,10575,10590,10630,10662,10663,10671,10686,10696,10703,10726,10735,10750,10766,10767,10775,10798,10878,10887,10902,10918,10919,10934,10950,10959,10960,10967,10976,10982,10983,10998,11022,11054,11063,11094,11103,11103,11118,11127,11135,11145,11151,11159,11190,11206,11215,11231,11246,11255,11263,11279,11286,11295,11296,11312,11328,11345,11345,11350,11361,11367,11375,11382,11398,11408,11415,11423,11423,11438,11447,11470,11471,11479,11495,11502,11518,11534,11545,11545,11566,11582,11583,11591,11608,11615,11630,11647,11654,11670,11678,11687,11702,11718,11728,11734,11750,11774,11782,11791,11799,11814,11830,11838,11846,11847,11863,11886,11902,11911,11912,11928,11950,11966,11974,11991,12008,12014,12038,12062,12063,12071,12094,12126,12134,12145,12161,12182,12191,12207,12208,12215,12224,12231,12254,12270,12286,12286,12294,12302,12326,12350,12358,12374,12375,12391,12407,12424,12432,12447,12462,12463,12471,12471,12478,12487,12496,12511,12519,12534,12550,12561,12567,12574,12583,12591,12607,12608,12624,12640,12647,12655,12678,12694,12694,12702,12718,12734,12744,12744,12766,12790,12798,12814,12823,12847,12870,12878,12887,12910,12918,12934,12935,12950,12966,12982,12998,13015,13030,13031,13040,13047,13063,13071,13086,13102,13103,13118,13127,13150,13158,13174,13191,13191,13207,13238,13255,13270,13294,13310,13342,13390,13398,13414,13415,13438,13446,13462,13486,13510,13526,13535,13550,13560,13582,13598,13615,13638,13654,13678,13686,13687,13702,13726,13766,13776,13782,13798,13809,13838,13870,13894,13910,13942,13943,13950,13975,13982,13998,13998,14022,14038,14038,14046,14047,14070,14071,14094,14110,14134,14142,14166,14190,14206,14222,14234,14239,14262,14272,14288,14303,14398,14415,14431,14510,14534,14558,14654,14686,14702,14718,14734,14735,14747,14782,14790,14810,14830,14990,15001,15002,15031,15054,15070,15094,15126,15246,15422,15470,15471,15830,15870" d="m160.51137,172.09091c0.05716,-1.64734 0.8405,-1.87943 1.47917,-2.52083c0.63702,-0.63976 0.38577,-1.78349 0.87349,-2.4265c0.52263,-0.68906 1.06853,-1.3116 1.526,-2.15251c0.40657,-0.74736 1.27017,-0.74977 2.00667,-1.07083c0.85732,-0.37373 1.21494,-1.09222 2.09317,-1.5865c0.76897,-0.43279 1.68018,-0.71831 2.41083,-1.2175c0.67647,-0.46217 1.08717,-1.25645 1.48933,-2.12534c0.30641,-0.66202 0.73372,-1.48222 1.09601,-2.29999c0.34763,-0.78465 0.75058,-1.48827 1.52533,-2.07918c0.73393,-0.55977 1.35117,-1.08157 2.06934,-1.7195c0.53545,-0.47562 1.60576,-0.56035 2.43066,-0.968c0.7196,-0.35561 1.29298,-1.11111 2,-1.83333c0.48447,-0.49487 0.92117,-1.31682 1.5,-2c0.50331,-0.59404 1.2045,-1.05267 2,-1.5c0.7955,-0.44733 1.37463,-1.0407 2.02083,-1.5c0.69711,-0.4955 1.61241,-0.78804 2.27917,-1.084c0.85777,-0.38075 1.71379,-0.6925 2.4955,-1.27316c0.67284,-0.49979 0.8588,-1.5591 1.7045,-1.64284c0.79611,-0.07883 1.74223,0.18752 2.61067,-0.036c0.8662,-0.22293 1.55188,-0.97087 2.21466,-1.364c0.68648,-0.40717 1.48972,-1.11844 2.34134,-1.43333c0.79709,-0.29474 1.92603,-0.25783 2.38666,-0.77734c0.64793,-0.73074 1.05734,-1.37866 1.94667,-1.38933c0.88933,-0.01067 1.40971,-0.62839 2.06934,-1.19867c0.54178,-0.4684 1.67827,-0.69452 2.53067,-0.8015c0.90814,-0.11398 1.43765,-0.761 2.39999,-0.979c0.87799,-0.1989 1.82434,0.05765 2.66667,-0.1875c0.86177,-0.25081 1.6902,-0.5905 2.42265,-0.85866c0.85788,-0.31409 1.72702,-0.89609 2.41068,-0.95384c0.97525,-0.08238 1.83315,0.17545 2.7,-0.078c0.87764,-0.25661 1.59865,-0.91423 2.5,-0.94283c0.8997,-0.02855 1.68533,0 2.62534,0c1.008,0 1.83298,0.0808 2.57466,-0.436c0.79161,-0.55159 1.20168,-1.22586 2.08267,-1.48c0.7869,-0.22699 1.32635,-0.8553 1.97467,-1.47334c0.71085,-0.67764 1.55983,-0.45982 2.48016,-0.66333c0.92213,-0.20391 1.50862,-0.92934 2.38383,-0.94733c0.85315,-0.01755 1.79459,0.04702 2.67867,0c0.80341,-0.04272 1.53719,-0.74695 2.39999,-0.964c0.8735,-0.21975 1.80377,0.04613 2.70001,-0.03616c0.91144,-0.08368 1.43767,-0.761 2.39999,-0.979c0.87799,-0.19889 1.8,-0.02084 2.7,-0.02084c0.89984,0 1.77467,0 2.60133,0c0.89867,0 1.79866,0 2.7195,0c0.80066,0 1.68985,0 2.67917,0c0.79999,0 1.79999,0 2.57867,0c0.97867,0 1.79199,0 2.63034,0c0.991,0 1.79099,0 2.79083,0c0.77933,0 1.77881,0 2.55283,0c0.89999,0 1.76334,0 2.70566,0c0.9845,0 1.72699,0 2.65634,0c0.98532,0 1.88531,0 2.68533,0c0.89999,0 1.72083,0 2.68399,0c0.86334,0 1.75885,0 2.716,0c0.89999,0 1.79999,0 2.61435,0c0.95499,0 1.70648,0 2.50299,0c0.99731,0 1.87201,0 2.88251,0c0.77933,0 1.77899,0 2.60999,0c0.9595,0 1.711,0 2.50751,0c0.99731,0 1.87201,0 2.88266,0c0.79999,0 1.79999,0 2.57867,0c0.97867,0 1.79065,-0.00412 2.57315,0c1.01221,0.00533 1.79132,0.39408 2.53351,0.716c0.90137,0.39096 1.716,0.28333 2.71017,0.284c0.74731,0.0005 1.76849,0 2.70898,0c0.86218,0 1.71634,0 2.6955,0c0.78934,0 1.83334,0 2.58936,0c0.91064,0 1.81067,0 2.71066,0c0.89999,0 1.79999,0 2.69998,0c0.80002,0 1.70001,0 2.60001,0c0.89999,0 1.80817,-0.11646 2.70001,0.0045c0.8215,0.11143 1.44168,0.69347 2.34818,0.94283c1.00452,0.27633 1.51175,0.92421 2.35181,1.05267c0.79663,0.12182 1.53717,0.74694 2.40002,0.964c0.8735,0.21973 1.80133,0.036 2.76666,0.036c0.65866,0 1.66684,-0.01714 2.52884,0c0.90503,0.018 1.66376,0.53989 2.47116,0.83334c0.77954,0.28332 1.52936,0.77833 2.26932,1.13067c0.78094,0.37186 1.70236,0.42207 2.36401,0.752c0.84335,0.42055 1.6008,0.48421 2.284,1c0.61536,0.46457 1.77927,-0.19223 2.55884,0.34116c0.70514,0.48247 1.06113,1.00096 1.85715,1.44284c0.79947,0.4438 1.71622,0.4205 2.38535,0.58533c0.96445,0.23756 1.38773,0.85851 2.16284,1.55751c0.64822,0.58456 1.4321,0.89896 2.15182,1.55583c0.5845,0.53348 1.23575,1.04341 1.96667,1.63466c0.69778,0.56445 1.43753,0.8344 2.31598,1.08267c0.78815,0.22275 1.63962,0.53651 2.23334,1.168c0.64499,0.686 1.33746,0.87743 2.284,0.916c0.70175,0.02861 1.45248,0.5376 1.94736,1.2955c0.45407,0.6954 1.05475,1.31406 1.75717,1.75717c0.77188,0.48692 1.61533,0.75197 2.49414,0.94865c0.75241,0.1684 1.27533,0.89243 2.00134,1.28267c0.85477,0.45946 1.60001,0.71533 2.5,0.716c0.86401,0.00064 1.73599,0 2.70001,0c0.89999,0 1.80377,0.08212 2.69998,-0.00017c0.91144,-0.08368 1.60925,-0.39893 2.37918,-0.99983c0.62729,-0.48958 0.58618,-1.43744 1.09549,-2.02533c0.56192,-0.64862 1.36792,-0.88885 1.98935,-1.54933c0.61111,-0.64952 0.88641,-1.23596 1.41064,-1.86134c0.52982,-0.63205 0.75061,-1.45227 1.52533,-2.04317c0.73392,-0.55978 1.30972,-1.04721 1.78534,-1.7195c0.552,-0.78026 1.3931,-1.08658 1.99869,-1.71733c0.55002,-0.57286 1.14206,-1.16158 1.74133,-1.65866c0.61496,-0.5101 1.31348,-0.71751 1.97464,-1.25867c0.56024,-0.45856 1.40082,-0.36688 2.08401,-0.88268c0.61536,-0.46457 1.616,-0.284 2.51599,-0.284c0.96402,0 1.86945,0.23302 2.6955,-0.0045c0.76788,-0.22079 1.31512,-0.99016 2.18369,-0.9955c0.87796,-0.00539 1.82083,0 2.72083,0c0.89999,0 1.80045,0.02708 2.60001,0c0.8443,-0.02861 1.35431,-0.91626 2.19998,-1c0.79611,-0.07884 1.86328,0.47621 2.64285,-0.05717c0.70514,-0.48245 1.08804,-0.7601 1.95715,-0.97882c0.86282,-0.21714 1.59698,-0.92129 2.5,-0.964c0.89899,-0.04253 1.70001,0 2.60001,0c0.89999,0 1.79999,0 2.68933,0c0.896,0 1.81067,0 2.71066,0c0.89999,0 1.70001,0 2.60001,0c0.89999,0 1.79999,-0.00225 2.70001,0c0.89999,0.00225 1.841,0.08485 2.31467,0.716c0.55826,0.74386 1.14618,1.266 2.11865,1.284c0.75589,0.01399 1.70142,-0.05298 2.46667,0.35266c0.84592,0.44839 1.47711,0.7708 2.29999,1.222c0.78015,0.42776 1.70001,0.42534 2.59866,0.42534c0.96802,0 1.84677,-0.1938 2.60135,0.08533c0.8696,0.32169 0.98804,1.56331 1.72083,1.89384c0.80164,0.3616 1.81302,-0.03104 2.45383,0.44617c0.68179,0.50772 1.58041,0.27702 2.41467,0.58533c0.74637,0.27583 0.90067,1.38242 1.71051,1.868c0.72961,0.43747 1.25061,0.83829 1.81616,1.40668c0.61359,0.61665 0.90244,1.38852 1.68399,1.73999c0.82016,0.36884 1.4173,1.18301 2.10001,1.61751c0.73212,0.46594 1.65872,0.40437 2.32535,0.93182c0.65131,0.51534 1.37018,0.85806 2.17331,1.34134c0.7446,0.44804 0.97751,1.43269 1.80133,1.91733c0.6528,0.38403 1.21527,1.10577 2.10001,1.16667c0.89786,0.0618 1.81076,-0.36436 2.54285,0.05716c0.81149,0.46724 1.17969,1.29889 1.70984,1.89017c0.57886,0.6456 1.42712,0.78831 2.07932,1.13667c0.92563,0.49443 1.53809,1.13055 2.168,1.49066c0.8642,0.49403 1.65125,0.8582 2.39999,1.25867c0.79144,0.42329 1.30646,0.95441 2.19867,1.168c0.74985,0.17952 1.47189,0.80553 1.78052,1.5195c0.34894,0.80722 0.00351,1.79053 0.52081,2.47917c0.47,0.62569 0.49774,1.5 0.5,2.39999c0.00226,0.89552 0.6813,1.41101 0.98935,2.17467c0.32227,0.79886 -0.09631,1.73187 0.01199,2.62534c0.11148,0.91977 0.80853,1.45409 0.98801,2.40001c0.16776,0.88428 -0.12466,1.86617 0.29599,2.59999c0.39355,0.68658 1.44318,1.16478 1.71466,2.08534c0.23044,0.78139 -0.32236,1.86845 0.22134,2.59332c0.4823,0.64302 0.77866,1.32133 0.77866,2.22134c0,0.89999 -0.20081,1.73587 0.05719,2.59999c0.25638,0.85875 0.79166,1.61687 1.2955,2.24733c0.48859,0.61139 0.64664,1.45267 0.64731,2.35268c0.00067,0.89999 0.24213,1.65378 0.64734,2.39999c0.4133,0.76112 0.35266,1.7 0.35266,2.60001c0,0.89999 0,1.8 0,2.7c0,0.8 0,1.7 0,2.60001c0,0.89999 -0.13272,1.8105 0.00452,2.7c0.14368,0.93138 0.84732,1.46861 0.991,2.39999c0.13721,0.8895 0.00223,1.8 0.00449,2.7c0.00226,0.90002 0.35919,1.75891 0.64734,2.35718c0.40918,0.84959 -0.00879,1.83958 0.3735,2.70116c0.35025,0.78935 0.97849,1.343 0.97916,2.24167c0.00064,0.864 0,1.73601 0,2.7c0,0.90001 -0.12399,1.80861 0.00018,2.69984c0.11172,0.80186 0.85254,1.29945 1.22116,2.00017c0.39905,0.75858 0.76599,1.60007 0.77866,2.5c0.01266,0.90015 0.61429,1.53252 0.96402,2.38533c0.33286,0.81163 0.07956,1.5511 0.53598,2.49384c0.40643,0.83946 0.3363,1.77812 0.72134,2.62083c0.30579,0.6693 0.71979,1.43025 1.20401,2.29999c0.40564,0.72858 0.04889,1.76715 0.57599,2.51468c0.43747,0.62041 0.89642,1.11142 0.99884,2.06366c0.09314,0.86606 0.93893,1.23689 0.99982,2.12167c0.0618,0.89787 -0.19592,1.73444 0.05719,2.59999c0.25665,0.87762 0.91425,1.59865 0.94281,2.5c0.0285,0.89955 -0.17358,1.83826 0.08533,2.60001c0.30176,0.88794 0.89667,1.59946 0.91467,2.5c0.01801,0.89981 0,1.8 0,2.7c0,0.8 -0.00964,1.70006 0,2.564c0.01044,0.93617 0.77368,1.37909 0.99554,2.19768c0.23193,0.85567 0.22961,1.55815 0.72046,2.321c0.41785,0.64943 0.284,1.61734 0.284,2.51733c0,0.89999 0,1.79999 0,2.78934c0,0.896 0,1.71066 0,2.61066c0,0.79999 0,1.70001 0,2.60001c0,0.89999 0,1.79999 0,2.69998c0,0.90002 0,1.79984 0,2.72534c0,0.776 0,1.67468 0,2.57468c0,0.89999 0.00067,1.79999 0,2.69998c-0.00067,0.90002 -0.32611,1.73666 -0.716,2.5c-0.38452,0.7529 -0.28174,1.76401 -0.284,2.63602c-0.00226,0.8595 -0.68292,1.38174 -0.98932,2.17465c-0.32062,0.82962 -0.01068,1.78934 -0.01068,2.68933c0,0.90002 0,1.80002 0,2.70001c0,0.79999 0.35291,1.80676 -0.03601,2.57468c-0.38684,0.76392 -1.31934,1.10623 -1.60681,1.77716c-0.42352,0.9884 -0.58542,1.96667 -0.85718,2.64816c-0.38858,0.97443 -0.81482,1.5105 -1.33331,2.33334c-0.36633,0.58139 -0.79391,1.36633 -1.14584,2.16666c-0.34338,0.78088 -0.74643,1.37393 -1.01016,2.11066c-0.29977,0.83737 0.23221,1.82416 -0.01517,2.68484c-0.2207,0.76788 -1.00461,1.3031 -1.70001,1.75717c-0.75787,0.49487 -1.13116,1.3389 -1.72083,1.91132c-0.50046,0.48584 -0.93494,1.08371 -1.60001,1.61069c-0.62622,0.49619 -1.57465,0.42532 -2.47467,0.42532c-0.89999,0 -1.79999,0 -2.69998,0c-0.89999,0 -1.80002,0 -2.60001,0c-0.91467,0 -1.81067,0 -2.70001,0c-0.89999,0 -1.80472,0.09085 -2.69998,-0.00134c-0.81262,-0.08368 -1.45438,-0.79062 -2.30002,-0.97781c-0.95688,-0.21182 -1.14517,-0.71631 -1.52081,-1.5c-0.3371,-0.70328 -1.57224,-0.30441 -2.26318,-0.80618c-0.72937,-0.52966 -0.71466,-1.51465 -0.716,-2.41467l0,-0.89999" id="svg_2" stroke-width="2" stroke="#000" fill="none"/>
  <path t="18647,18950,18966,18977,18991,19006,19016,19038,19054,19086,19094,19142,19174,19184,19199,19216,19254,19262,19278,19292,19307,19334,19350,19366,19374,19374,19391,19422,19430,19454,19462,19470,19478,19502,19526,19534,19558,19570,19598,19622,19630,19678,19718,19774,19814,19878" d="m161.51137,172.09091c-1.22133,0.87866 -1.9079,1.38507 -2.42534,1.97467c-0.55969,0.63774 -1.35539,1.0289 -1.57333,1.82666c-0.24178,0.88499 -0.95203,1.11443 -1.56532,1.80934c-0.58876,0.66711 -0.52747,1.82211 -1.35201,2.304c-0.70624,0.41275 -1.08333,0.88666 -1.084,1.91866c-0.0005,0.77734 -0.16278,1.60472 -0.64734,2.21935c-0.51201,0.64944 -0.68367,1.39882 -1.18599,2.114c-0.48845,0.69543 -0.44861,1.58359 -1.16667,2c-0.72505,0.42047 -0.6834,1.46164 -1.01067,2.25867c-0.31277,0.76173 -0.62607,1.37645 -1.02533,2.13866c-0.39722,0.75832 -0.96333,1.23734 -0.964,2.136c-0.00067,0.90001 -0.16278,1.73805 -0.64734,2.35268c-0.51201,0.64944 0.04239,1.76167 -0.38866,2.51132c-0.4023,0.69965 -0.964,1.04668 -0.964,2.03601l0,0.89999l0,0.89999l0,0.90001" id="svg_3" stroke-width="2" stroke="#000" fill="none"/>
  <path t="21223,21398,21406,21422,21438,21438,21454,21454,21464,21480,21511,21526,21534,21551,21558,21606,21638,21662,21686,21686,21710,21718,21774,21806,21815,21854,21886,21942,21966,21990,22022,22062,22062,22102,22166,22174,22190,22198,22230,22254,22270,22318,22327,22374,22390,22406,22406,22462,22534,22566,22598,22654,22654,22686,22718,22734,22766,22814,22902,22926,22958,22982,23006,23006,23015,23022,23038,23062,23086,23134,23150,23158,23158,23182,23206,23230,23246,23262,23262,23286,23302,23334,23350,23359,23374,23390,23390,23406,23414,23438,23454,23462,23470,23486,23511,23527,23544,23558,23566,23574,23582,23590,23598,23606,23622,23638,23646,23654,23662,23678,23694,23694,23702,23750,23759,23759,23774,23783,23790,23806,23814,23822,23831,23838,23846,23862,23870,23878,23886,23894,23911,23918,23918,23927,23927,23944,23944,23944,23950,23958,23958,23967,23998,24014,24030,24030,24062,24070,24110,24126,24134,24143,24143,24160,24160,24166,24174,24182,24198,24222,24222,24230,24230,24238,24254,24262,24270,24286,24310,24342,24382,24390,24406,24430,24438,24454,24478,24494,24502,24518,24534,24543,24543,24566,24606,24662,24702,24726,24758,24767,24782,24822,24830,24870,24902,24918,24918,24934,24982,24998,25046,25070,25110,25159,25287" d="m415.51135,151.09091c-1.83331,-0.16667 -2.21524,-0.9391 -3.09998,-1c-0.89789,-0.0618 -1.65717,0 -2.55267,0c-0.86334,0 -1.82651,0 -2.74734,0c-0.89999,0 -1.89789,0.15936 -2.54733,-0.35266c-0.61459,-0.48454 -1.44199,-0.64734 -2.33798,-0.64734c-0.91467,0 -1.81467,0 -2.71469,0c-0.79999,0 -1.69998,0 -2.59998,0c-0.90002,0 -1.80002,0 -2.70001,0c-0.89865,0 -1.88443,0.27798 -2.57867,-0.22133c-0.70285,-0.50551 -1.32132,-0.77867 -2.22131,-0.77867c-0.90002,0 -1.70001,0 -2.60001,0c-0.89999,0 -1.86081,-0.04538 -2.32535,0.61067c-0.50873,0.71843 -1.18921,1.20174 -2.05865,1.38933c-0.85934,0.18542 -1.27185,0.97141 -2.21149,1c-0.87079,0.0265 -1.46579,0.36165 -1.92603,1.09984c-0.44711,0.71715 -1.41962,0.95384 -1.86249,1.70149c-0.41443,0.69962 -0.74695,1.55127 -1.20001,2.39867c-0.34857,0.65199 -0.7677,1.50053 -1.216,2.3c-0.44638,0.79604 -1.16995,1.30208 -1.47916,2c-0.37921,0.856 -0.02084,1.8 -0.02084,2.7c0,0.90001 0,1.8 0,2.60001c0,0.89999 0,1.8 0,2.7c0,0.89999 0,1.7955 0,2.7215c0,0.87851 0,1.7785 0,2.57851c0,0.89999 -0.16733,1.81964 0.02084,2.7c0.1814,0.84866 1.06665,1.42841 1.54318,2.10001c0.51489,0.72565 1.0079,1.34485 1.46133,2.01067c0.49551,0.7276 1.35565,1.08739 1.922,1.74649c0.5918,0.68874 0.78592,1.52077 1.55264,2.12201c0.64841,0.50845 1.44614,0.87454 2,1.52083c0.5242,0.61166 1.05884,1.29799 1.49869,2.084c0.42953,0.76756 0.90918,1.30585 1.50131,1.89517c0.48065,0.47836 1.08255,0.70845 1.88934,1.03149c0.78915,0.31598 1.39139,0.9929 1.60934,1.79066c0.24179,0.88499 0.69675,1.468 1.28534,2.11467c0.57764,0.63463 1.42441,0.96428 1.70532,1.69467c0.31979,0.83148 0.6394,1.51089 1.30533,2.08932c0.70673,0.61386 0.56763,1.63634 0.92667,2.40001c0.36469,0.7757 0.62592,1.62221 1.21466,2.28932c0.61328,0.69493 1.46445,1.00237 1.98935,1.58534c0.53046,0.58917 0.97058,1.47427 1.6745,1.90399c0.7778,0.47482 1.38443,0.94794 1.90015,1.64217c0.5087,0.68478 1.10269,1.33925 1.94736,1.47917c0.8894,0.14734 1.21591,1.0024 1.66333,1.636c0.48581,0.68796 0.81757,1.44482 1.556,2.19733c0.59244,0.60371 1.39331,0.9077 2.19733,1.56667c0.67624,0.55423 1.29333,1.0688 2.02533,1.57468c0.67398,0.46577 0.94257,1.34941 1.61066,2.02533c0.57889,0.58565 1.38205,0.98204 1.98935,1.57466c0.44144,0.43076 1.41858,0.19965 2.20932,0.71068c0.80273,0.5188 0.85284,1.57034 1.80133,1.71466c0.79092,0.12033 1.78229,-0.33376 2.56403,0.036c0.74084,0.35042 1.33804,0.79253 2.26932,1.13068c0.69235,0.2514 1.27463,1.16418 1.96667,1.54799c0.82449,0.45726 1.87857,-0.05774 2.67917,0.30617c0.77322,0.35146 1.32217,0.9785 2.22083,0.97917c0.89999,0.00067 1.81302,-0.14232 2.70001,0.01067c0.83185,0.14348 1.47202,0.92842 2.3045,0.98933c0.8931,0.06535 1.79547,0 2.6955,0c0.89999,0 1.79999,0 2.69998,0c0.89999,0 1.70001,0 2.60001,0c0.86401,0 1.73599,0.00243 2.70001,0c0.89548,-0.00226 1.5936,-0.40857 2.09998,-1c0.50894,-0.59444 0.1192,-1.58592 0.52084,-2.47917c0.32965,-0.73315 1.50073,-0.90115 1.8125,-1.6875c0.30569,-0.77103 0.65793,-1.53223 1.16684,-2.05466c0.56314,-0.57811 0.96384,-1.21468 0.99982,-2.17867l0,-0.90001l0,-0.89999l0,-0.90001" id="svg_4" stroke-width="2" stroke="#000" fill="none"/>
  <path t="28656,29103,29191,29215,29263,29295,29423,29511,29551,29583,29623,29663,29695,29719,29736,29767,29791,29799,29823,29839,29871,29903,29999,30023,30039,30039,30127,30639,30647,30671,30703,30703,30719,31031,31047,31071,31087,31102,31103,31111,31135,31174,31191,31199,31215,31231,31407,31407,31439,31462,31479,31519" d="m454.51135,220.09091c1.70001,0 2.79266,-0.35492 3.56403,0.036c0.69812,0.35379 1.23734,0.96333 2.13599,0.964c0.89999,0.00067 1.86569,-0.10594 2.59549,0.35266c0.79825,0.50162 1.50586,0.64734 2.40451,0.64734c0.89999,0 1.66846,0.1441 2.35266,0.64734c0.66623,0.49001 1.64734,0.35266 2.54733,0.35266c0.89999,0 1.80002,0 2.6955,0c0.87119,0 1.80579,0.04779 2.7045,0c0.80341,-0.04272 1.42236,-0.6862 2.30002,-0.94284c0.86557,-0.25311 1.79999,-0.05716 2.69998,-0.05716c0.80002,0 2.37793,0.91537 2.6572,-0.00017c0.2222,-0.72844 -1.25137,-0.87572 -2.05719,-1.43584c-0.67618,-0.47 -1.28946,-0.98141 -2.07916,-1.564c-0.638,-0.47066 -1.32263,-0.63673 -2.08484,-1.036c-0.7583,-0.39722 -1.43817,-0.47139 -2.15067,-1.04933c-0.74411,-0.60359 -0.28534,-1.71468 -0.3425,-2.61467l-0.44284,-0.8l-0.44281,-0.8l-0.05719,-0.89999" id="svg_5" stroke-width="2" stroke="#000" fill="none"/>
  <path t="45192,45367,45383,45399,45423,45423,45432,45443,45463,45479,45479,45479,45511,45535,45543,45551,45551,45568,45577,45583,45583,45593,45599,45607,45623,45642,45647,45663,45679,45679,45692,45695,45695,45711,45727,45727,45743,45743,45759,45759,45775,45791,45799,45807,45825,45831,45831,45841,45856,45863,45873,45879,45911,45911,45920,45927,45937,45953,45959,45976,45992,45999,46015,46039,46047,46070,46086,46102,46103,46111,46135,46151,46166,46174,46190,46207,46215,46230,46278,46302,46303,46326" d="m462.51135,188.09091c1.61069,0 2.56958,-0.11147 3.30002,0.35716c0.7999,0.51318 1.2338,1.3839 2.10001,1.60684c0.86792,0.22339 1.84482,-0.06369 2.76666,0.20267c0.68362,0.19753 1.33624,0.65399 2.19733,1.22266c0.82391,0.54411 1.73727,0.56288 2.63599,0.61067c0.80341,0.04272 1.46838,0.56198 2.30002,0.94733c0.87186,0.40398 1.47336,0.87648 2.39999,1.04817c0.92905,0.17213 1.44049,0.84047 2.29999,0.98367c0.8783,0.14635 1.69257,0.10077 2.52084,0.52083c0.7897,0.40051 1.65381,0.49466 2.59384,0.5c0.88531,0.00502 1.74005,0.01024 2.48532,0.61067c0.65567,0.52824 1.26611,1.22028 2.04819,1.68483c0.62756,0.37277 1.48575,1.05247 2.15317,1.4205c0.82413,0.45442 1.79868,0.27867 2.69864,0.284c0.90009,0.00534 1.61182,0.44234 2.5,0.83333c0.65765,0.28951 1.38718,0.48116 2.16669,1c0.70743,0.47087 1.39703,0.35062 1.91867,0.88268c0.67047,0.68387 1.71484,0.26526 2.61465,0.284c0.86456,0.01801 1.34396,0.85425 2.10135,0.99867c0.88275,0.16832 1.87723,-0.34175 2.67783,0.02216c0.77322,0.35146 1.22382,1.03452 2.02081,1.47917c0.79852,0.44551 1.70001,0.5 2.60004,0.5c0.89996,0 1.69995,0 2.59998,0c0.90002,0 1.79999,0 2.70001,0c0.89996,0 1.97699,-0.36418 2.59998,0.16667c0.60938,0.51924 1.20001,0.83333 2.10004,0.83333l0.89996,0l0.79999,0l0.90002,0" id="svg_8" stroke-width="2" stroke="#000" fill="none"/>
  <path t="48112,48271,48303,48312,48335,48359,48367,48399,48423,48423,48439,48463,48487,48503,48527,48535,48567,48575,48583,48591,48607,48631,48639,48687,48711,48711,48719,48735,48751,48767,48783,48807,48807,48831,48839,48870,48879,48895,48903,48903,48919,48942,48952,48968,48999,49015,49047,49110,49143,49167,49183,49199,49199,49231,49247,49255,49287,49303,49327,49335,49343,49358,49390,49398,49422,49438,49454,49471,49471,49487,49518,49550,49598,49614,49646,49678,49702,49734,49838,50078,50110,50127,50246,50278,50382,50406,50415,50454,50462,50798" d="m463.51135,205.09091c1.70001,0 2.70001,0 3.60001,0c0.89999,0 1.80002,-0.00009 2.70001,0c0.79999,0.00009 1.65048,0.24823 2.39999,0.64734c0.82019,0.43675 1.73599,0.35266 2.60001,0.35266c0.89999,0 1.93216,-0.24425 2.616,0.284c0.6275,0.48471 1.43414,0.64296 2.05865,1.14134c0.60797,0.48518 1.42535,0.57466 2.32535,0.57466c0.89865,0 1.86667,0 2.69998,0c0.80002,0 1.70007,-0.01041 2.60001,0c0.90018,0.01042 1.6033,0.54318 2.5,0.87849c0.85062,0.31808 1.67865,0.24361 2.5,0.69617c0.77087,0.42474 1.68533,0.42534 2.60001,0.42534c0.89999,0 1.79999,0 2.60001,0c0.89999,0 1.87195,-0.32813 2.67917,0.02083c0.71399,0.30864 1.22534,0.97691 2.12082,0.97917c0.96402,0.00243 1.836,0 2.70001,0c0.89999,0 1.80127,-0.04779 2.69998,0c0.80341,0.04272 1.53717,0.74695 2.40002,0.964c0.8735,0.21974 1.80859,-0.08801 2.69983,0.03616c0.80188,0.11172 1.28235,0.78912 2.09882,1.00116c0.80042,0.20789 1.32202,0.98825 2.20135,0.99867c0.8999,0.01067 1.79999,0 2.70001,0c0.89996,0 1.69995,0 2.59998,0c0.94281,0 1.82086,0 2.70001,0c0.89996,0 1.79999,0 2.70001,0c0.89996,0 1.44763,-0.44606 2.1853,-0.91467c0.69128,-0.43913 1.67194,-0.36769 1.71466,-1.28532c0.04181,-0.89886 0.33484,-1.91667 -0.16663,-2.63333c-0.50134,-0.71649 -1.18604,-1.114 -1.83337,-1.66667l-0.57465,-0.52533l-0.42084,-0.67917" id="svg_9" stroke-width="2" stroke="#000" fill="none"/>
  <path t="54430,54574,54598,54662" d="m501.51135,206.09091" id="svg_10" stroke-width="20" stroke="#fff" fill="none"/>
  <path t="56039,56102,56102,56112,56118,56118,56118,56129,56129,56134,56134,56144,56144,56161,56167,56167,56182,56191" d="m500.51135,202.09091c0.01068,2.78934 0.07056,3.52058 0.42535,4.38533c0.39175,0.95482 0.49579,1.62321 0.60001,2.364c0.15674,1.11406 0.64554,1.83347 0.89066,2.73466c0.2294,0.84344 0.52258,1.72148 0.79999,2.40001c0.36838,0.90106 0.284,1.94933 0.284,2.70532l0,0.91068l0.01068,0.88933" id="svg_11" stroke-width="20" stroke="#fff" fill="none"/>
  <path t="59479,59573,59582,59598,59638,59670,59765,59774,59798,59854,59894,59934,59958,59974,60014" d="m497.51135,201.09091c1.70001,0 2.70001,0 3.60001,0c0.89999,0 1.78934,-0.00066 2.68533,0c0.91333,0.00067 1.3913,0.56886 2.15067,0.964c0.76712,0.39917 1.76401,0.036 2.664,0.036l0.89999,0l0.83334,0.16667" id="svg_12" stroke-width="2" stroke="#000" fill="none"/>
  <path t="62119,62238,62263,62270,62278,62302,62318,62358,62398,62446,62447,62494,62502,62534,62558,62568,62591,62630,62654,62663,62670,62702,62711,62726,62736,62743,62774,62799,62799,62807,62902,62935,62951,62967,63030" d="m487.51135,208.09091c1.70001,0 2.61963,-0.00195 3.40002,0.42534c0.82254,0.45038 1.89932,0.0654 2.59549,0.63182c0.66077,0.53763 1.10449,0.94284 2.00449,0.94284c0.80002,0 1.70001,0 2.60001,0c0.89999,0 1.80002,0 2.70001,0c0.89999,0 1.79984,0 2.67465,0c0.82669,0 1.74002,0 2.63602,0c0.88931,0 1.78934,0 2.68933,0c0.89999,0 1.85345,-0.18134 2.69998,0.16667c0.67108,0.27589 1.479,0.8208 2.35718,0.83333c0.93829,0.01338 1.61749,0.42534 2.1637,0.97917l0.87915,0.02083" id="svg_13" stroke-width="2" stroke="#000" fill="none"/>
  <path t="64727,64846,64854,64879,64879,64902,64919,64919,64927,64935,64951,64959,64983,64991" d="m504.51135,211.09091c0,1.8 0.30353,2.39459 0.83334,3.16667c0.418,0.60912 0.01733,1.69684 0.33334,2.66666c0.22516,0.69102 0.80472,1.46532 0.83331,2.36667c0.02853,0.89938 0.02084,1.8 0.57468,2.41068l0.39999,0.77866" id="svg_14" stroke-width="2" stroke="#000" fill="none"/>
  <path t="66911,67118,67126,67150,67182,67214,67245,67278,67301,67310,67341,67374,67398,67413,67437,67470,67470,67486,67510,67534,67550,67558,67574,67590,67630,67630,67638,67670,67686,67686,67694,67718,67742,67758,67758,67782,67798,67814,67838,67870,67870,67878,67886,67934,67942,67966,67982,68014,68030,68038,68053,68070,68086,68102,68126,68141,68158,68190,68214,68222,68238,68254,68262,68262,68285,68317,68350,68358,68429,68446,68502,68518,68534,68542,68582,68590,68614,68630,68638,68669,68694,68726,68750,68774,68806,68853,68886,68886,68926,68934,68957,68989,69030,69054,69085,69374,69398,69413,69430,69462,69477,69494,69502,69526,69550,69566,69582,69613,69710,69734,69734,69758,69766,69766,69782,69798,69822,69846,69862,69910,69942,69965,69974,69991,70014,70014,70029,70046,70077,70134,70150,70165,70182,70238,70246,70254,70310,70357,70390" d="m482.51135,224.09091c0,1.8 0,2.7 0,3.60001c0,0.79999 -0.05365,1.70145 0,2.6955c0.04276,0.79195 0.80988,1.36285 0.98935,2.3045c0.16852,0.88414 0.01065,1.79999 0.01065,2.7c0,0.89999 0,1.8 0,2.7c0,0.8 -0.36316,1.79689 0.03601,2.564c0.39514,0.75938 0.93613,1.23776 0.96399,2.136c0.0293,0.94412 0.85638,1.35181 1,2.3c0.11981,0.79099 0.31451,1.38716 0.83334,2.16667c0.47086,0.70746 0.28879,1.61197 0.74133,2.43333c0.42471,0.77086 0.28763,1.73633 0.64667,2.5c0.36469,0.7757 0.59268,1.62686 0.81467,2.5c0.21921,0.86227 0.90311,1.49387 0.96399,2.39999c0.05362,0.79819 -0.41119,1.8226 0.05719,2.64282c0.46432,0.81314 0.94281,1.33185 0.94281,2.15851c0,0.89868 -0.0054,1.79871 0,2.69867c0.00534,0.8894 0.72562,1.3739 0.98935,2.11066c0.29977,0.83737 -0.08331,1.83643 0.36334,2.68933c0.39395,0.75223 0.46893,1.61093 0.7045,2.40451c0.25906,0.8728 0.91422,1.59412 0.94281,2.49551c0.02853,0.89954 0,1.79999 0,2.59998c0,0.90002 0,1.80002 0,2.70001c0,0.88934 0,1.78534 0,2.70001c0,0.89999 0.43427,2.03241 -0.16666,2.63333c-0.60092,0.60092 -1.52875,0.43597 -2.11734,1.08264c-0.57764,0.63461 -1.10541,1.19791 -1.76865,1.73135c-0.57587,0.46317 -1.54733,0.35266 -2.44736,0.35266c-0.89999,0 -1.79999,0 -2.69864,0c-0.96802,0 -1.80136,0 -2.60135,0c-0.89999,0 -1.79999,0 -2.70001,0c-0.89999,0 -1.82166,0.19489 -2.69864,-0.00134c-0.80707,-0.18057 -1.3848,-1.02396 -1.82669,-0.388c-0.50494,0.72668 -0.93195,1.58633 -0.97467,2.48917c-0.04135,0.87387 0,1.70151 0,2.60019c0,0.89999 0,1.79999 0,2.69998c0,0.89999 0.08212,1.8038 -0.00015,2.70001c-0.08368,0.91144 -0.56525,1.54797 -1.29984,2.1955c-0.66223,0.58374 -1.5,0.70383 -2.39999,0.7045c-0.89999,0.00067 -1.85776,-0.30478 -2.68933,0.01065c-0.72919,0.27658 -0.79556,1.63672 -0.08984,1.96851c0.88632,0.41669 1.88733,-0.09567 2.77917,0.02533c0.82132,0.11142 1.4668,0.84167 2.29999,0.98483c0.95016,0.16324 1.29135,0.73557 2.01068,1c0.83478,0.30685 1.78934,0.01068 2.68933,0.01068c0.89999,0 1.79984,0.00015 2.616,0.284l0.44116,0.65884l0.84283,0.05716l0.89999,0" id="svg_15" stroke-width="2" stroke="#000" fill="none"/>
  <path t="71734,71917,71917,71926,71934,71950,71958,71966,71974,71974,71982" d="m480.51135,217.09091c-1,-1 -1.10608,-1.78812 -1.5,-2.5c-0.49023,-0.88597 -0.33228,-1.81604 -0.50131,-2.69867c-0.14511,-0.75774 -1.09851,-1.02283 -1.71335,-1.60266l-0.28082,-0.89867" id="svg_16" stroke-width="2" stroke="#000" fill="none"/>
  <path t="74070,74157,74174,74205,74214,74245,74269,74285,74294,74294,74302,74325,74341,74341,74365,74381,74397,74397,74421,74429,74437,74453,74461,74485,74509,74533,74557" d="m446.51135,151.09091c1.70001,0 2.70001,0 3.60001,0c0.89999,0 1.78934,0 2.68533,0c0.91467,0 1.75717,-0.18576 2.51468,0.08533c0.90109,0.32246 1.30579,1.25485 2.19998,1.748c0.66321,0.36577 1.39743,0.85031 1.94736,1.52383c0.57431,0.7034 0.91434,1.38916 1.44199,2.04283c0.60092,0.74442 1.21835,1.33919 1.57468,2.03601c0.43454,0.84981 0.53598,1.564 1.03149,2.21133l0.02533,0.87349l0.33185,0.77917" id="svg_17" stroke-width="2" stroke="#000" fill="none"/>
  <path t="75158,75221,75221,75238,75254,75262,75278,75301,75301,75326,75350,75365,75389,75445,75485,75493,75517,75549,75741,75933,75957,75973,75982,75998,76013,76022" d="m450.51135,150.09091c0,1.70984 0,2.51733 0,3.364c0,0.936 0,1.836 0,2.73601c0,0.89999 -0.02725,1.70041 0,2.59999c0.02859,0.94414 0.95386,0.87054 1.64285,1.35716c0.73163,0.51672 1.06168,0.94284 1.95715,0.94284c0.89999,0 1.80002,0 2.70001,0c0.89734,0 0.991,0 0.10001,0c-0.90002,0 -1.80002,0 -2.70001,0l-0.89865,-0.00133" id="svg_18" stroke-width="2" stroke="#000" fill="none"/>
  <path t="76709,76940,76949,76965,76965,76974,76989,77021,77181,77253,77285,77589,77605,77622,77630,77638,77662,77877,77886,77894,77918" d="m456.51135,153.09091c0,0.2 0,1.10001 0,2c0,0.8 0,1.7 0,2.60001c0,0.89999 -0.18451,2.04649 0.52084,2.37917c0.79541,0.37514 2.05328,0.27844 2.44318,-0.41518c0.46729,-0.83133 -0.41064,-1.6178 -0.98935,-2.13866c-0.63785,-0.57408 -0.95383,-0.88367 -0.62198,-0.12534l0.526,0.79984l0.34265,0.77882" id="svg_19" stroke-width="2" stroke="#000" fill="none"/>
  <path t="79703,79814,79830,79862,79870,79880,79895,79903,79910,79926,79942,79942,79950,79958,79958,79966,79974,79974,80014,80022,80046,80062,80062,80070,80110,80126,80150,80150,80158,80166,80190,80190,80214,80222,80238,80246,80254,80254,80263,80302,80310,80334,80334,80342,80358,80358,80366,80382,80398,80422,80430,80438,80446,80454,80478,80502,80526,80534,80542,80566,80574" d="m453.51135,228.09091c0,1.8 -0.31448,2.38718 -0.83331,3.16667c-0.47089,0.70746 -0.21222,1.67911 -0.66669,2.35416c-0.49957,0.74205 -1.08325,1.32942 -1.5,2.02084c-0.50806,0.84291 -0.60889,1.62126 -0.91599,2.573c-0.28256,0.87567 -0.45453,1.62347 -1.10483,2.3645c-0.547,0.62331 -1.30859,0.7215 -2.14584,1.35416c-0.64694,0.48886 -1.27527,0.95227 -2.03198,1.45201c-0.60895,0.40215 -1.0159,1.26254 -1.63467,1.88133c-0.61877,0.61879 -1.21347,1.14018 -1.96667,1.54933c-0.79752,0.43321 -1.2518,1.14038 -2.20001,1.284c-0.79095,0.1198 -1.72647,-0.18375 -2.59998,0.036c-0.86285,0.21706 -1.57217,0.67497 -2.40002,1.13068c-0.73425,0.40417 -0.80643,1.54414 -1.43597,1.83333c-0.78519,0.36067 -1.64267,0.45863 -2.06403,1c-0.66721,0.85722 -1.53345,1.12469 -2.09998,1.61067c-0.74323,0.63757 -0.98584,1.53844 -1.56668,2.22266c-0.56561,0.66624 -0.64743,1.47139 -1.11734,2.08266c-0.52301,0.68036 -1.49069,1.02063 -1.71149,1.78851c-0.23752,0.82605 -0.00452,1.73151 -0.01517,2.68484l-0.48935,0.61066l-0.48932,0.61066l-0.01068,0.8685" id="svg_20" stroke-width="2" stroke="#000" fill="none"/>
  <path t="86150,86253,86253,86262,86270,86270,86278,86286,86286,86294,86294,86294,86301,86310,86318,86318,86318,86326,86326,86334,86334,86342,86350,86350,86358,86358,86366,86374,86382,86390,86390,86406,86422,86430,86438,86455,86455,86462,86470,86486,86486,86502,86502,86510,86510,86518,86518,86526,86534,86542,86550,86558,86565,86574,86581,86581,86590,86598,86614,86614,86630,86638,86645,86655,86655,86662,86670,86670,86678,86678,86686,86686,86694,86694,86701,86717,86725,86725,86733,86749,86749,86765,86782,86790,86790,86807,86807,86821,86830,86838,86855,86872,86885,86894,86894,86917,86927,86944,86944,86960,86973,86973,86994,87013,87037,87213,87357,87389" d="m411.51135,256.09091c1,1 0.89938,1.81046 1.03601,2.63599c0.14404,0.87042 0.50885,1.72156 1.07382,2.46936c0.51535,0.68213 1.13278,1.07224 1.8685,2.09448c0.40811,0.56708 0.84433,1.2912 1.00085,2.27933c0.14587,0.92099 0.45624,1.84845 0.88217,2.35684c0.48221,0.57556 1.12634,1.358 1.61783,2.14316c0.53082,0.84799 1.07932,1.45959 1.46817,2.32083c0.34805,0.77084 0.81586,1.42694 0.99548,2.35269c0.16479,0.84927 0.05484,1.82648 0.05716,2.74731c0.00226,0.89999 0.33691,1.63126 0.716,2.39999c0.41684,0.84525 -0.03119,1.86652 0.30484,2.67917c0.30704,0.74255 0.87512,1.40027 1.06317,2.03818c0.29633,1.00516 0.70895,1.85364 1.13766,2.58267c0.40918,0.69583 1.33316,1.00833 1.91699,1.53598c0.81189,0.73376 0.85168,1.79587 1.56668,2.25867c0.65173,0.42188 0.97372,1.09122 1.57867,1.936c0.49142,0.68628 1.24844,1.04993 1.71597,1.69019c0.57596,0.78876 0.93912,1.57303 1,2.47916c0.05362,0.79819 -0.03708,1.76266 0.52084,2.5c0.58737,0.77625 1.21664,1.15707 2.08984,1.53601c0.80304,0.34851 1.17606,1.21667 1.556,1.96399c0.33829,0.66537 1.28543,1.2247 1.66666,2.16666c0.25272,0.62445 0.25467,1.71655 0.6875,2.3125c0.58258,0.80212 1.19507,1.26752 1.77917,2.16901c0.41132,0.6348 1.25555,1.10812 1.7045,1.70901c0.53171,0.7117 0.79654,1.44312 1.39551,2.04282c0.69949,0.70035 1.21051,1.31445 1.62534,2.20001c0.38144,0.81433 0.97464,1.39999 1.57465,2c0.70001,0.69998 1.28806,1.12421 1.87918,1.89999c0.55942,0.73419 1.01227,1.38016 1.52533,1.85266c0.60907,0.56094 1.44189,0.90768 1.87418,1.74734c0.33392,0.64856 0.72089,1.48804 1.09598,2.29999c0.41013,0.88776 0.82669,1.39999 1.52533,2.10001c0.69867,0.70001 1.3317,1.27155 1.49551,2.20001c0.1503,0.85178 0.72049,1.29865 1.00449,1.91064l0,0.88934l0,0.89999" id="svg_22" stroke-width="2" stroke="#000" fill="none"/>
  <path t="88742,88829,88829,88829,88837,88837,88846,88853,88862,88862,88862,88870,88870,88870,88870,88878,88878,88886,88894,88894,88902,88902,88902,88910,88910,88919,88925,88925,88933,88934,88934,88941,88942,88950,88950,88958,88958,88958,88966,88966,88974,88974,88974,88982,88982,88990,88997,89006,89013,89029,89038,89038,89045,89045,89056,89061,89061,89071,89087,89093,89093,89102,89102,89109,89110,89119,89126,89135,89141,89149,89149,89165,89173,89189,89205,89205,89213,89221,89229,89229,89245,89262,89262,89277,89277,89285,89285,89309,89319,89335,89335,89365,89373,89391,89397,89406,89424,89442,89454,89454,89474,89478,89493,89525,89565,89573,89597,89629,89637,89662,89701,89709,89733,89741,89765,89797,89813,89901,89901,89949,89973,90029,90061,90070,90091,90109,90157,90181,90213,90285,90317,90533,90533,90549,90557,90567,90574,90581,90590,90590,90597,90613,90623,90645,90773,90789,90806,90806,90821,90845,90869,90877,90893,90909,90925,90933,90934,90950,90957,90967,90983,90997,91013,91029,91053,91061,91101,91117,91141,91165,91181,91181,91197,91229,91245,91261,91277,91277,91301,91317,91349,91389,91389,91397,91421,91445,91445,91469,91485,91501,91525,91549,91565,91597,91629,91645,91693,91717,91725,91789,91845,91917,91917,91933,91933" d="m358.51135,276.09091c1.65268,1.0625 1.99109,1.52737 2.51602,2.23334c0.71484,0.96136 1.36093,1.49585 1.96317,2.26666c0.5087,0.65109 0.64478,1.68655 0.97815,2.34668c0.32159,0.63678 1.0806,1.57849 1.54352,2.10147c0.47369,0.53516 1.24179,1.21887 1.74451,2.08118c0.42221,0.72421 0.88797,1.59103 1.35483,2.29199c0.4426,0.66458 1.05023,1.53244 1.72516,2.05334c0.51019,0.39377 1.3588,1.06906 1.728,1.79999c0.45425,0.89932 0.59799,1.83658 1.09332,2.49734c0.50464,0.67316 1.00195,1.33621 1.52802,2.07733c0.65366,0.9209 1.06171,1.44241 1.82532,2.25067c0.49582,0.52481 1.11496,1.31317 1.5,2.02084c0.31229,0.57397 0.80002,1.57916 1.20001,2.37915c0.39999,0.80002 0.79892,1.60056 1.10001,2.20001c0.4982,0.99188 0.90674,1.67862 1.58932,2.33865c0.59579,0.57611 0.51947,1.56622 1.18533,2.05066c0.69589,0.50632 1.15128,1.19604 1.59467,1.81067c0.53586,0.7428 1.39197,0.94235 2.19467,1.60001c0.67633,0.55414 1.21411,1.19333 1.63599,2.10001c0.3696,0.79431 1.08801,1.43103 1.47919,2.02084c0.58417,0.8808 0.38797,1.84308 1.22617,2.36932c0.63666,0.39969 1.10745,0.84143 1.33066,1.70984c0.22147,0.86169 0.75302,1.65363 1.18533,2.5c0.33472,0.6553 0.76981,1.51804 1.20401,2.29999c0.4556,0.8205 0.81677,1.5538 1.22198,2.30002c0.4133,0.76111 0.21735,1.76617 0.638,2.5c0.39355,0.68655 1.31485,1.27112 1.59335,2.12131c0.26953,0.82281 0.46915,1.7623 0.76865,2.43134c0.38589,0.862 0.55307,1.57581 1.186,2.414c0.48868,0.64716 1.42477,0.90573 1.88135,1.54935c0.49405,0.69647 0.04245,1.71884 0.28983,2.5795c0.2207,0.76788 0.80222,1.24814 1.01633,2.2045c0.18961,0.84686 1.05081,1.44006 1.45834,2c0.60156,0.82654 0.44174,1.85504 0.94617,2.47467c0.48193,0.59198 0.64795,1.3974 1.14932,2.05066c0.48645,0.63382 0.42532,1.57468 0.42532,2.47467c0,0.89999 -0.16702,1.81589 0.00134,2.69867c0.14444,0.75735 0.98065,1.23679 0.99866,2.10132c0.01871,0.8985 0,1.784 0,2.70001c0,0.79999 0,1.70001 0,2.60001c0,0.89999 0.06696,1.74356 0.57468,2.42532c0.4772,0.64081 0.42532,1.57468 0.42532,2.47467c0,0.88934 0,1.78534 0,2.70001c0,0.89999 -0.15649,1.83096 0.05719,2.5c0.27585,0.86368 1.27017,1.07373 2.14148,1.30133c0.7981,0.2085 0.64117,1.50571 1.36935,1.91464c0.64468,0.36206 1.3591,0.85901 2.13651,1.07953c0.86151,0.24435 1.83023,-0.04843 2.59549,0.35715c0.84589,0.4483 1.69998,0.64734 2.5,0.64734c0.89999,0 1.76401,0 2.72083,0c0.87918,0 1.77917,0.00006 2.67917,0c0.89999,-0.00009 1.76666,-0.22058 2.39999,-0.57468c0.86124,-0.48151 1.80002,-0.42532 2.70001,-0.42532c0.89865,0 1.75726,0.09335 2.69998,0c0.8457,-0.08374 1.30557,-0.76965 1.94736,-1.35266c0.57928,-0.52621 1.35266,-0.64734 2.25266,-0.64734c0.89999,0 1.80084,0.0372 2.60001,0c0.91766,-0.04272 1.4368,-0.79703 2.284,-1c0.85538,-0.20493 1.03064,-1.21835 1.62051,-1.64282c0.79037,-0.56876 1.64124,-0.88461 2.49548,-1.27319c0.76309,-0.34711 1.22318,-0.92517 1.82535,-1.64798c0.48196,-0.57852 1.55328,-0.09726 2.40533,-0.52133c0.74759,-0.37207 0.24121,-1.58664 0.59015,-2.39383c0.30865,-0.71399 0.9769,-1.22534 0.97916,-2.12085c0.00226,-0.89999 0,-1.79999 0,-2.69998c0,-0.90002 -0.3045,-1.98367 0.28403,-2.61469c0.53128,-0.56964 0.71597,-1.18533 0.71597,-2.08533l0,-0.75717l0,-0.89551l0,-0.86331" id="svg_23" stroke-width="2" stroke="#000" fill="none"/>
  <path t="92509,92637,92645,92646,92653,92661,92661,92669,92669,92677,92677,92685,92685,92693,92693,92701,92701,92709,92709,92725,92733,92741,92741,92757,92757,92765,92765,92773,92789,92797,92805,92869,92893,92901,92901,92917,92933,92981,93029,93053,93061,93077,93093,93109,93117,93125,93141,93149,93157,93173,93181,93189,93189,93197,93205,93205,93214,93221,93231,93247,93247,93261,93261" d="m456.51135,333.09091c0,1.82532 0,2.83334 0,3.6955c0,0.82535 0,1.78983 0,2.51517c0,0.98917 0,1.95334 0,2.90533c0,0.76801 -0.05185,1.7287 0.08536,2.48532c0.18448,1.01724 0.57355,1.57687 0.79315,2.59851c0.16516,0.76825 0.12149,1.77866 0.12149,2.59885c0,1.03467 0.57751,1.58469 0.87851,2.52283c0.21585,0.67276 0.12149,1.6785 0.12149,2.65765c0,0.85419 0,1.71634 0,2.62085c0,0.89999 0,1.79999 0,2.6955c0,0.92599 0,1.8045 0,2.7045c0,0.79999 0,1.70001 0,2.60001c0,0.89999 0.1824,2.04208 -0.52081,2.37915c-0.78369,0.37564 -1.47678,0.6376 -2.18369,1.07352c-0.6716,0.41415 -1.56821,0.75583 -2.24283,1.29999c-0.66107,0.53326 -1.45267,0.64734 -2.35266,0.64734c-0.89999,0 -1.79999,0 -2.70001,0c-0.79999,0 -1.63599,0 -2.65265,0c-0.69467,0 -1.71133,0 -2.64734,0c-0.90134,0 -1.86667,0 -2.52533,0l-1.008,0l-0.86218,0" id="svg_24" stroke-width="2" stroke="#000" fill="none"/>
  <path t="95630,95789,95789,95789,95799,95799,95799,95806,95806,95806,95806,95814,95814,95814,95822,95822,95822,95830,95830,95830,95838,95838,95838,95846,95846,95846,95846,95854,95854,95854,95862,95862,95870,95870,95870,95878,95878,95878,95886,95895,95895,95902,95974,96014,96062,96070,96078,96190,96206,96215,96222,96238,96254,96270,96286,96294" d="m457.51135,331.09091c0,2.95715 0.00049,3.52084 0,4.40134c-0.00067,1.19867 0.02725,1.80142 -0.05716,2.69867c-0.11343,1.20584 -0.30023,1.79883 -0.51749,2.69998c-0.14447,0.59924 -0.35999,1.7988 -0.40451,2.70001c-0.02963,0.59949 -0.02084,1.79999 -0.02084,2.70001c0,0.59998 0,1.79999 0,2.6955c0,0.8685 0,1.93784 0,2.65631c0,0.7095 0,1.78152 0,2.75351c0,0.69467 0,1.38934 0,2.65167c0,0.771 0,1.64032 0,2.64749c0,0.6315 0.0173,1.81726 -0.01065,2.62085c-0.02863,0.82281 -0.18658,1.86075 -0.41467,2.52798c-0.26321,0.76996 -0.50143,1.77002 -0.79617,2.56784c-0.31375,0.8493 -1.15799,1.31815 -1.72583,2.03601c-0.56229,0.71085 -0.87448,1.54413 -1.66333,1.64282c-0.94662,0.11844 -1.38708,0.7045 -1.38934,1.60001c-0.00226,0.89999 -0.00067,1.79999 0,2.69998c0.00067,0.89868 0.28534,1.61469 1.19867,1.70001l0.86267,0" id="svg_25" stroke-width="20" stroke="#fff" fill="none"/>
  <path t="99894,99989,100006,100006,100013,100013,100023,100029,100029,100045,100045,100053,100053,100077,100093,100109,100118,100133,100133,100149,100157,100181,100197,100221,100261,100277,100301,100302,100309,100325,100349,100373,100373,100405,100429,100461,100501,100525,100541,100573,100693,100709,100717,100749,100781,100797,100829,100830,100853,100901,100909,100926,100957,100965,100989,101005,101013,101037,101046,101069,101093,101102,101109,101134,101182,101198,101198,101205,101206,101222,101245,101255,101270,101285,101286,101301,101325" d="m455.51135,331.09091c1.22134,0.87885 1.87418,1.44385 2.02536,2.22134c0.19046,0.97946 0.33694,1.88055 1.07449,2.53583c0.62799,0.55795 0.89948,1.12949 0.90015,2.07883c0.00052,0.76532 0,1.755 0,2.59332c0,1.00668 0,1.87067 0,2.77069c0,0.89999 0,1.79999 0,2.59998c0,0.90002 0,1.80002 0,2.70001c0,0.89999 0,1.7955 0,2.7215c0,0.87851 0,1.7785 0,2.57849c0,0.90002 0,1.80002 0,2.72086c0,0.96317 0,1.65381 0,2.72198c0,0.85699 0,1.75717 0,2.5585c0,0.89868 0,1.79868 0,2.69867c0,0.89999 0.19809,1.82239 -0.00131,2.69867c-0.18301,0.80432 -1.19867,0.80133 -2.09866,0.80133c-0.90002,0 -1.87888,-0.43787 -2.73334,0.16666c-0.6619,0.46829 -1.26651,0.83334 -2.16669,0.83334c-0.80133,0 -1.69998,0.05716 -2.5,0.5c-0.79999,0.44284 -1.79785,0.34064 -2.44733,0.85266c-0.61459,0.48453 -1.35266,0.64725 -2.25266,0.64734c-0.89984,0.00009 -1.47366,0.56802 -2.22534,0.96399c-0.76273,0.40179 -1.74133,0.03595 -2.57468,0.03601c-0.97849,0.00009 -1.79282,0.09534 -2.5,0.5c-0.79361,0.45416 -1.70377,0.41788 -2.59998,0.50015c-0.91147,0.08368 -1.60001,0.64719 -2.46402,0.98917l-0.87198,0.02133" id="svg_26" stroke-width="2" stroke="#000" fill="none"/>
  <path t="103349,103381,103397,103421,103437,103453,103477,103485,103503,103503,103520,103526,103541,103549,103557,103565,103574,103629,103629,103637,103645,103661,103669,103669,103685,103693,103702,103718,103725,103741,103765,103797,103797,103821,103829,103845,103861,103885,103885,103893,103917,103933,103934,103949,103957,104021,104053,104061,104069,104117" d="m412.51135,376.09091c0,-1.70001 0,-2.60001 0,-3.5c0,-0.97916 0,-1.85718 0,-2.70001c0,-0.89999 0,-1.79999 0,-2.59998c0,-0.90002 -0.00958,-1.80008 0,-2.70001c0.01044,-0.97931 0.60556,-1.50461 1.05267,-2.2045c0.48157,-0.75385 1.0358,-1.5676 1.65186,-1.94284c0.81866,-0.49866 1.79547,-0.35266 2.70615,-0.35266c0.91068,0 1.76401,0 2.70401,0c0.88531,0 1.79626,-0.17841 2.58984,0.05716c0.8728,0.25906 1.59662,0.8284 2.46216,0.94284c0.84247,0.11139 1.4913,0.75043 2.13333,1.2955c0.75458,0.64066 1.6391,0.91974 1.69998,1.8045c0.0618,0.89786 -0.40274,1.8364 0.08536,2.61465c0.46432,0.74039 0.91464,1.28534 0.91464,2.08533c0,0.90002 0,1.84283 0,2.72086c0,0.87915 0.01068,1.8685 0.5,2.47916l0.48935,0.61066" id="svg_27" stroke-width="2" stroke="#000" fill="none"/>
  <path t="104661,104749,104758,104773,104773,104781,104781,104789,104797,104805,104813,104821,104837,104845,104861,104869,104885,104893,104901,104909,104917,104934,104941,104941,104951,104981,104989,105021,105045,105085,105125,105165,105165,105181,105189,105189,105205,105213,105221,105237,105253,105269,105285,105293,105325,105429" d="m442.51135,370.09091c0,-1.70001 0,-2.63599 0,-3.48532c0,-0.91919 0,-1.91336 0,-2.67868c0,-0.95065 0,-1.93582 0,-2.78333c0,-0.75717 0,-1.75269 0,-2.55267c0,-0.89999 -0.11096,-2.01627 0.52084,-2.5c0.67731,-0.51855 1.32928,-1.10431 1.47916,-2c0.14026,-0.8382 0.68332,-1.39786 1.35718,-1.94733c0.7034,-0.57355 1.41144,-0.90451 2.34283,-1.04819c0.8895,-0.13721 1.79999,-0.00449 2.70001,-0.00449c0.89548,0 1.8215,0 2.69998,0c0.89999,0 1.7507,0.01285 2.39999,0.52084c0.7674,0.6004 1.3317,1.2507 1.49551,2.17917c0.1503,0.85178 0.85876,1.34393 1.00317,2.10132c0.16833,0.88278 0.00131,1.79868 0.00131,2.69867l0,0.89999l0,0.89551l0,0.98984" id="svg_28" stroke-width="2" stroke="#000" fill="none"/>
  <path t="107613,107757,107773,107797,107805,107821,107830,107837,107845,107861,107869,107877,107894,107894,107903,107903,107910,107917,107933,107949,107965,107973,107989,107989,107997,108005,108014,108030,108037,108053,108069,108077,108085,108101,108117,108117,108133,108149,108149,108157,108165,108165,108173,108197,108213,108237,108245,108253,108261,108270,108277,108285,108293,108301,108309,108333,108333,108341,108349,108349,108357,108373,108373,108381,108381,108389,108389,108397,108413,108421,108429,108437,108437,108446,108453,108469,108469,108477,108477,108485,108501,108509,108517,108517,108525,108541,108541,108549,108557,108573,108573,108581,108590,108597,108613,108630,108630,108638,108638,108647,108653,108663,108670,108677,108686,108693,108694,108702,108709,108725,108733,108742,108749,108765,108774,108774,108781,108790,108797,108806,108821,108837,108862,108862,108870,108893,108902,108902,108909,108918,108925,108926,108934,108949,108966,108966,108974,108974,108989,109005,109006,109016,109029,109046,109062,109085,109093,109101,109109,109109,109136,109157,109157,109173,109173,109189,109205,109205,109215,109221,109221,109237,109246,109253,109262,109269,109279,109285,109293,109309,109317,109325,109333,109357,109365,109373,109382,109389,109398,109415,109421,109469,109485,109485,109501,109509,109517,109525,109541,109541,109549,109557,109566,109582,109597,109613,109621,109645,109661,109661,109677,109685,109695,109709,109733,109765,109773,109789,109798,109815,109869,109885,109925,109925,109957,109989,110005,110029,110069,110109,110125,110133,110165,110197,110261,110269,110285,110301,110325,110349,110381,110381,110405,110421,110421,110437,110448,110469,110501,110549,110549,110573,110597,110597,110717,110725,110765,110829,110853,110853,110869,110885,110893,111165,111181,111189,111189,111205,111317,111325,111341,111389,111421,111429,111437,111437,111453,111463,111469,111637,111685,111709,111709,111725,111749,111829,111853,111884,111893,111901,111917,111917,111933,111949,111965,111973,111981,111997,112013,112037,112037,112053,112053,112064,112085,112095,112112,112117,112133,112133,112149,112165,112173,112221,112229,112237,112237,112245,112253,112262,112269,112278,112285,112301,112301,112317,112317,112325,112326,112333,112333,112342,112358,112359,112365,112373,112373,112381,112397,112397,112405,112405,112413,112414,112421,112429,112437,112445,112453,112461,112479,112495,112501,112501,112510,112525,112533,112533,112543,112559,112576,112576,112582,112591,112598,112607,112614,112631,112646,112655,112663,112680,112680,112696,112710,112727,112734,112743,112743,112750,112760,112767,112777,112777,112783,112791,112799,112806,112814,112822,112822,112830,112839,112839,112839,112846,112847,112854,112863,112871,112871,112880,112886,112896,112897,112903,112912,112927,112935,112943,112943,112960,112967,112976,112976,112982,112990,112991,112998,112999,113007,113014,113015,113030,113039,113047,113054,113063,113079,113080,113087,113087,113102,113113,113119,113119,113126,113135,113135,113143,113159,113166,113166,113183,113183,113192,113199,113207,113214,113238,113239,113262,113263,113278,113287,113296,113313,113319,113334,113342,113351,113359,113367,113375,113383,113393,113407,113407,113430,113438,113439,113470,113510,113542,113550" d="m146.51137,203.09091c0,1.8 0.1571,2.71976 -0.02083,3.5c-0.21939,0.96202 -0.91829,1.59389 -0.97917,2.5c-0.06142,0.91394 0.18274,1.73088 -0.036,2.60001c-0.21715,0.86279 -0.9213,1.59851 -0.964,2.56667c-0.02902,0.65802 0,1.66666 0,2.52882c0,0.90451 0,1.8045 0,2.7045c0,0.90001 0,1.8 0,2.70001c0,0.89999 0,1.7 0,2.59999c0,0.90001 0,1.8 0,2.7c0,0.90001 0,1.8 0,2.69984c0,0.87483 0,1.70149 0,2.53616c0,1.01666 0,1.71133 0,2.73866c0,0.94667 0,1.8 0,2.74001c0,0.88533 0,1.68533 0,2.59999c0,0.89601 0,1.78534 0,2.68533c0,0.90001 -0.15935,1.89789 0.35266,2.54733c0.48456,0.61462 0.64725,1.35268 0.64734,2.25267c0.00009,0.89984 0.56883,1.47322 0.964,2.22534c0.42265,0.80443 0.036,1.75999 0.036,2.68933c0,0.88533 0.01344,1.73555 0.52083,2.38533c0.60085,0.7695 1.2099,1.23734 1.77917,2.15268c0.42332,0.68066 1.01617,1.38748 1.41466,2.146c0.41376,0.78757 0.2442,1.75342 0.71068,2.60132c0.40199,0.73071 0.78922,1.5701 1.14932,2.20001c0.49403,0.8642 0.91814,1.64017 1.25867,2.56665c0.23166,0.63028 -0.02347,1.70093 0.22383,2.52884c0.25763,0.86246 1.01935,1.40298 1.36818,2.16583c0.43839,0.95868 0.63058,1.65665 1.27916,2.2485c0.6221,0.56769 1.11469,1.38351 1.25951,2.25418c0.15372,0.92416 0.22841,1.94852 0.83733,2.35065c0.75671,0.49976 0.99388,1.12372 1.25583,1.98535c0.26895,0.88467 1.08983,1.36014 1.64284,2.05716c0.54785,0.69052 0.99396,1.37878 1.21468,2.35748c0.21756,0.96463 0.32326,1.67719 1.18517,1.8855c0.83914,0.20282 0.71689,1.15411 1.06683,1.99985c0.32466,0.78464 0.78513,1.5462 1.48067,1.99551c0.6658,0.43011 1.03413,1.23682 1.63666,1.92047c0.52675,0.59766 0.88414,1.44666 1.716,1.91736c0.63844,0.36124 1.6741,0.60071 1.94283,1.46664c0.26692,0.86011 0.54634,1.51154 1.03185,2.13602c0.57993,0.74597 0.94994,1.65689 1.62534,2.12799c0.73358,0.51169 1.77676,0.25253 2.49983,0.6575c0.73735,0.41296 0.81619,1.44482 1.33617,2.1785c0.55785,0.78708 1.01279,1.41541 1.58932,2.164c0.48563,0.63055 1.48785,0.97391 1.95384,1.45685c0.73904,0.76593 1.06612,1.49655 1.72533,2.08899c0.62637,0.56293 1.14655,1.25711 1.8595,1.86884c0.48517,0.41629 0.72598,1.41443 1.53584,1.89999c0.72977,0.43753 1.34763,0.87213 1.87483,1.55734c0.50294,0.65366 0.87364,1.32126 1.52533,2.08484c0.64941,0.76093 0.95981,1.50464 1.5,2.3125c0.44699,0.66849 0.76375,1.43372 1.2215,2.26666c0.37097,0.67505 1.18785,1.29077 1.7785,1.89999c0.57321,0.59122 1.07445,1.41025 1.57466,2.02533c0.50412,0.61987 0.27934,1.69742 0.86134,2.36401c0.60957,0.69818 1.35329,0.99289 1.56532,1.80933c0.20789,0.80045 1.05247,1.24792 1.57333,1.82666c0.57408,0.63788 1.10625,1.25751 1.70934,1.89066c0.54688,0.57413 0.64296,1.43417 1.14134,2.05869c0.48518,0.60797 0.57458,1.42532 0.57466,2.32083c0.00009,0.92618 0.14467,1.88037 0.42534,2.51917c0.42067,0.95746 0.2301,1.77832 0.59549,2.66449c0.3063,0.74286 0.94868,1.3819 0.97784,2.03818c0.04602,1.03568 0.85558,1.52661 1,2.284c0.16833,0.88278 0.00133,1.79868 0.00133,2.69867c0,0.88934 -0.11983,1.90918 0.284,2.70001c0.33623,0.65845 0.35075,1.59775 0.752,2.36398c0.39713,0.75836 0.96333,1.23734 0.964,2.13602c0.00067,0.89999 0.16278,1.73804 0.64734,2.35266c0.51201,0.64944 0.41124,1.75687 1.26866,1.94733c0.7854,0.17444 1.084,1 1.084,1.79999c0,0.90002 -0.0054,1.80005 0,2.70001c0.00534,0.8894 0.72559,1.3739 0.98933,2.11066c0.29976,0.83737 0.06406,1.74323 0.58533,2.41467c0.46054,0.5932 1.03601,0.97467 1.92534,0.97467c0.89999,0 1.8,0 2.7,0c0.90001,0 1.8,0 2.60001,0c0.836,0 1.84816,0 2.63066,0c1.00534,0 1.86934,0 2.76933,0c0.90001,0 1.8,0 2.60001,0c0.836,0 1.85266,0 2.54733,0c1.01666,0 1.94817,0 2.87416,0c0.87851,0 1.7785,0 2.57851,0c0.89999,0 1.80002,-0.00531 2.7,0c0.90004,0.00534 1.60719,0.45297 2.5,0.83334c0.75154,0.32019 1.71466,0.16666 2.61067,0.16666c0.88933,0 1.78932,0 2.68933,0c0.89999,0 1.8,0 2.7,0c0.8,0 1.7,0 2.60001,0c0.87917,0 1.76569,0.12216 2.7,-0.00449c0.82137,-0.11133 1.46686,-0.8414 2.29999,-0.98486c0.88699,-0.15274 1.82355,0.20386 2.78934,-0.01065c0.65799,-0.14615 0.36389,-1.37955 0.96783,-1.94733c0.66071,-0.62112 1.49399,-0.8223 1.63834,-1.75269c0.138,-0.88937 0.00449,-1.79999 0.00449,-2.69998c0,-0.89999 0,-1.80002 0,-2.70001c0,-0.89999 0,-1.65717 0,-2.55267c0,-0.86331 0,-1.82648 0,-2.74731c0,-0.89999 0,-1.80002 0,-2.70001c0,-0.89999 0,-1.69998 0,-2.60001c0,-0.89999 0.00223,-1.79999 0,-2.69998c-0.00226,-0.89999 -0.32611,-1.63666 -0.71597,-2.39999c-0.38455,-0.7529 -0.12689,-1.71573 -0.29468,-2.60001c-0.17947,-0.94592 -0.52133,-1.79871 -1.15601,-2.43335c-0.63467,-0.63464 -1.50455,-0.776 -1.74933,-1.65198c-0.25009,-0.89502 -0.32938,-1.93121 -0.60483,-2.49384c-0.50784,-1.03732 -1.22037,-1.54553 -1.44318,-2.43152c-0.22226,-0.88385 0.04999,-1.76807 -0.03732,-2.70398c-0.08365,-0.89676 -0.65367,-1.45044 -0.97334,-2.29602c-0.33363,-0.88251 -0.59874,-1.564 -0.90399,-2.56799c-0.23077,-0.759 -0.50882,-1.66025 -0.76868,-2.36865c-0.36671,-0.99973 -0.33311,-1.95288 -0.35266,-2.85135c-0.01801,-0.82724 -0.75555,-1.35025 -0.97917,-2.30133c-0.20612,-0.87665 -0.46317,-1.61182 -0.85416,-2.5c-0.28951,-0.65765 -0.48117,-1.38715 -1,-2.16666c-0.47089,-0.70746 -0.28877,-1.61197 -0.74133,-2.43335c-0.42473,-0.77087 -0.77332,-1.53387 -1.14134,-2.20132c-0.45444,-0.82416 0.04411,-1.87064 -0.30482,-2.67783c-0.30864,-0.71399 -0.7942,-1.25208 -1.01517,-2.12085c-0.21931,-0.86224 -0.83907,-1.60464 -0.96417,-2.5c-0.12665,-0.90646 -0.70714,-1.43628 -1.42517,-1.91068c-0.64114,-0.42358 -1.11784,-1.1926 -1.45316,-2.08932c-0.31808,-0.85065 -0.12151,-1.69998 -0.12151,-2.60001c0,-0.89999 0.03253,-1.82144 -0.00133,-2.78265c-0.0285,-0.80893 -0.58617,-1.38177 -1.29417,-1.87c-0.7751,-0.53448 -0.83234,-1.42578 -1.2045,-2.16818c-0.46994,-0.93744 -0.31825,-1.67075 -0.509,-2.7265c-0.17332,-0.95932 -0.68857,-1.41687 -1.34283,-2.09998c-0.61516,-0.64224 -1.39209,-1.17526 -1.62733,-2.15268c-0.21072,-0.87555 -0.28868,-1.71548 -0.82216,-2.29999c-0.65689,-0.7197 -1.03508,-1.54706 -1.42,-2.30002c-0.39015,-0.76318 -0.77026,-1.51779 -1.20401,-2.29999c-0.45479,-0.82016 -0.39333,-1.75348 -0.74133,-2.60001c-0.27589,-0.67108 -0.81926,-1.49429 -1.444,-2.06134c-0.57538,-0.52225 -1.041,-1.28754 -1.33667,-2.18149c-0.28264,-0.85458 -0.77353,-1.50342 -1.25266,-2.23984c-0.51796,-0.79608 -1.27882,-1.31287 -1.99867,-1.80267c-0.6033,-0.41049 -0.38657,-1.53897 -0.85851,-2.35748c-0.39606,-0.68692 -1.08679,-1.18866 -1.79349,-1.75717c-0.78918,-0.63489 -1.13867,-1.23581 -1.14934,-2.24817c-0.00824,-0.78247 -0.04475,-1.7507 -0.5,-2.37268c-0.4852,-0.66289 -0.55516,-1.50854 -0.92534,-2.35382c-0.42101,-0.96132 -0.1656,-1.90916 -0.93182,-2.511c-0.67007,-0.52632 -1.83812,-0.2205 -2.4575,-0.55034c-0.90186,-0.48026 -0.80327,-1.36993 -1.24251,-2.20683c-0.39194,-0.74675 -0.64435,-1.53165 -1.22816,-2.18784c-0.60065,-0.67511 -1.46228,-0.90034 -1.91333,-1.65332c-0.49892,-0.8329 -0.5394,-1.92728 -1.15849,-2.46333c-0.6852,-0.59329 -1.24156,-1.05766 -1.70001,-1.70001c-0.4437,-0.62166 -1.47083,-0.80615 -2.23833,-1.29999c-0.69638,-0.44807 -0.71516,-1.442 -1.2045,-2.05267c-0.48933,-0.61067 -0.43585,-1.59387 -1.06801,-2.2c-0.63667,-0.61046 -1.3588,-1.10071 -1.43216,-2.12117c-0.04721,-0.65663 -0.35249,-1.5645 -0.99983,-1.96417l-0.00133,-0.91333l-0.35133,-0.74866" id="svg_29" stroke-width="2" stroke="#000" fill="none"/>
  <path t="114743,114934,114942,114942,114950,114958,114966,114982,114998,115022,115030,115030,115046,115094,115102,115118,115134,115134,115158,115158,115182,115222,115222,115238,115246,115254,115262,115270,115278,115286,115302,115302,115342,115342,115358,115358,115374,115382,115398,115510" d="m226.51137,370.09091c0,-1.82535 0,-2.83334 0,-3.6955c0,-0.90451 0,-1.8045 0,-2.7045c0,-0.89999 0,-1.80002 0,-2.70001c0,-0.89999 -0.41721,-1.84381 0.05716,-2.54282c0.4632,-0.68253 1.64284,-0.35718 2.57884,-0.35718c0.84933,0 1.57466,0 2.76134,0c0.73067,0 1.68663,-0.04871 2.60266,0c0.80341,0.04272 1.47215,0.6665 1.97467,1.38934c0.46765,0.67267 1.57626,0.77216 2.0045,1.61066c0.36766,0.71988 0.57982,1.49457 1.12083,2.32132c0.43137,0.65918 0.86496,1.54074 1.39999,2.15784c0.65762,0.75848 1.21466,1.32083 1.4955,2.22086l0.0045,0.89999l0,0.89999l0,0.88934" id="svg_30" stroke-width="2" stroke="#000" fill="none"/>
  <path t="116286,116342,116350,116350,116359,116366,116375,116390,116414,116430,116439,116439,116446,116470,116478,116550,116558,116582,116590,116598,116614,116614,116639,116654,116662,116678,116734" d="m251.51137,369.09091c0,-1.82535 0,-2.83334 0,-3.6955c0,-0.90451 0,-1.8045 0,-2.7045c0,-0.89551 0,-1.8215 0,-2.70001c0,-0.89999 -0.41721,-1.84381 0.05716,-2.54282c0.4632,-0.68253 1.6575,-0.35718 2.55351,-0.35718c0.88933,0 1.78932,-0.00067 2.68933,0c0.89999,0.00067 1.82797,0.18866 2.39999,0.7045c0.7272,0.65579 1.1785,1.39551 1.29999,2.2955l0.16669,0.83334l0.82883,0.22382" id="svg_31" stroke-width="2" stroke="#000" fill="none"/>
  <path t="118047,118094,118119,118135,118166,118181,118197,118209,118215,118228,118230,118245,118245,118254,118254,118262,118269,118287,118293,118293,118302,118313,118313,118325,118343,118343,118365,118365,118377,118382,118398,118398,118408,118415,118415,118429,118429,118432,118449,118452,118452,118454,118470,118497,118503,118511,118520,118537,118537,118549,118564,118564,118566,118581,118589,118614,118614,118630,118644,118653,118653,118680,118680,118693,118693,118714,118714,118730,118737,118754,118765,118775,118782,118789,118813,118829,118845,118845,118861,118876,118886,118902,118902,118925,118941,118957,118973,118981,118989,118997,119021,119037,119077,119093,119109,119125,119149,119181,119198,119214,119229,119240,119264,119280,119309,119309,119421,119445,119517,119565,119605,119645,119677,119686,119709,119719,119725,119750,119773,119773,119798,119829,119846,119846,119854,119863,119893,119908,119957,119973,120029,120069,120101,120110,120110,120149,120158,120167,120197,120221,120237,120237,120245,120254,120270,120277,120278,120285,120293,120341,120373,120397,120413,120422,120422,120445,120469,120478,120495,120517,120528,120549,120567,120597,120606,120613,120629,120693,120709,120709,120725,120734,120734,120749,120773,120789,120829,120829,120837,120861,120870,120893,120933,120949,120997,120997,121029,121053,121062,121070,121086,121104,121109,121149,121181,121197,121221,121221,121237,121246,121269,121285,121301,121310,121319,121341,121341,121351,121365,121382,121383,121399,121422,121422,121445,121453,121469,121485,121509,121509,121533,121565,121581,121581,121605,121614,121614,121630,121638,121662,121678,121678,121686,121694,121703,121718,121737,121742,121751,121758,121766,121782,121790,121805,121830,121830,121838,121854,121861,121870,121877,121893,121902,121910,121926,121926,121936,121941,121966,121966,121974,121989,122005,122015,122032,122046,122046,122070,122086,122086,122094,122094,122103,122119,122126,122137,122137,122142,122152,122169,122174,122174,122190,122199,122206,122206,122221,122238,122238,122238,122254,122254,122262,122270,122294,122318,122318,122327,122334,122334,122358,122374,122398,122407,122415,122438,122486,122606,122614,122649,122662,122670,122678,122750,122781,122797,122829,122861,122893,122918" d="m143.51137,227.09091c0,1.8 0.00536,2.70001 0,3.564c-0.00534,0.86139 -0.77478,1.3726 -0.9955,2.1405c-0.24738,0.86067 0.13759,1.8085 -0.01517,2.6955c-0.14348,0.83315 -0.80708,1.60469 -1.04201,2.35718c-0.28145,0.90149 -0.44189,1.65346 -0.922,2.59616c-0.34834,0.68398 -0.98515,1.189 -1.02666,2.13066c-0.0381,0.8643 -0.45435,1.70255 -0.832,2.51601c-0.3089,0.66536 -0.77855,1.47693 -1.04533,2.32133c-0.26085,0.82562 -0.46994,1.75656 -0.83734,2.47733c-0.41273,0.80971 -1.06035,1.24753 -1.584,1.91118c-0.58832,0.74561 -1.15553,1.46098 -1.53333,2.45683c-0.23817,0.62784 0.00986,1.69698 -0.22385,2.52882c-0.215,0.76526 -0.68628,1.58307 -1.16432,2.40433c-0.3656,0.62808 -1.38109,0.89935 -1.83118,1.60468c-0.49094,0.76935 -0.72594,1.75259 -1.38333,2.27017c-0.64703,0.50943 -1.29792,1.06357 -1.64799,1.82532c-0.34456,0.74976 -1.22736,1.31915 -1.63067,2c-0.48997,0.82718 -0.80273,1.55038 -1.20133,2.40002c-0.40357,0.86026 -0.78349,1.52109 -1.10484,2.32083c-0.31574,0.7858 -0.82314,1.58923 -1.06316,2.3645c-0.29874,0.96487 -0.62353,1.50482 -0.832,2.51331c-0.19313,0.93427 -0.4155,1.86569 -0.88533,2.40002c-0.64407,0.73245 -0.90696,1.64392 -1.42001,2.20148c-0.54508,0.59238 -0.61166,1.31573 -0.78,2.19852c-0.14442,0.75735 -0.89242,1.27533 -1.28267,2.00134c-0.45947,0.85477 -0.81077,1.59369 -1.216,2.29999c-0.45503,0.79312 -0.31122,1.76926 -0.72134,2.59982c-0.34938,0.70758 -0.77866,1.42102 -0.77866,2.30017c0,0.89999 0.00008,1.80002 0,2.70001c-0.00008,0.99982 -0.48316,1.50717 -0.91467,2.18533c-0.49316,0.77505 -0.08533,1.81467 -0.08533,2.71466c0,0.87866 0.18273,1.73087 -0.036,2.60001c-0.21714,0.86279 -0.92128,1.59698 -0.964,2.5c-0.04253,0.89899 -0.41769,1.45438 -0.8785,2.12149c-0.50406,0.72971 -0.1215,1.7785 -0.1215,2.57849c0,0.91467 -0.24203,1.65149 -0.716,2.284c-0.57509,0.76746 -0.73013,1.46359 -1.19866,2.20135c-0.43913,0.69147 0.23702,1.86847 -0.30667,2.59332c-0.48231,0.64301 -0.53189,1.50092 -1.13583,2.06866c-0.66072,0.62115 -1.12467,0.99088 -1.6955,1.6955c-0.59178,0.7305 -1.15903,1.32892 -1.522,1.95718c-0.48856,0.84564 -1.20021,1.33658 -1.42083,2.10449c-0.2591,0.90186 0.29801,1.87469 -0.01517,2.68484c-0.3065,0.79288 -0.9566,1.3696 -1.42534,2.01065c-0.56935,0.77863 -1.10207,1.40903 -1.58483,2.10001c-0.47847,0.68484 -1.34888,0.92911 -1.85767,1.7215c-0.47918,0.74628 -0.11958,1.7785 -0.1215,2.53568c-0.00225,0.89099 -0.32643,1.74805 -0.83334,2.40948c-0.54596,0.7124 -0.5571,1.54944 -1.16666,2.3125c-0.51682,0.64697 -1,1.04169 -1,1.92084c0,0.89999 0.16277,1.8569 -0.22134,2.70001c-0.35534,0.78 -0.43064,1.58051 -0.7995,2.37915c-0.35613,0.77109 -0.97849,1.32217 -0.97916,2.22086c-0.00064,0.86398 0,1.73599 0,2.69998c0,0.89999 -0.124,1.80862 0.00017,2.69983c0.11172,0.80188 0.81374,1.32407 1.28516,2.10019c0.41081,0.67636 1.0975,1.21759 1.81467,1.89981c0.58632,0.55774 1.43205,0.83496 2.2,1.25284c0.84091,0.45758 1.7,0.64734 2.5,0.64734c0.91467,0 1.63936,0.42715 2.116,1.19867c0.4547,0.73599 1.284,0.80133 2.184,0.80133c0.9,0 1.67742,0.1243 2.5,0.57468c0.78039,0.42728 1.72168,0.23044 2.59867,0.42667c0.80704,0.18057 1.23682,0.98065 2.19067,0.99866c0.89584,0.01691 1.81066,0 2.71066,0c0.9,0 1.7,0 2.6,0c0.9,0 1.8,0 2.7,0c0.89999,0 1.79867,0 2.65266,0c0.94733,0 1.74733,0 2.64733,0c0.82084,0 1.784,0 2.64734,0c0.89999,0 1.81934,0 2.65266,0c0.97833,0 1.83333,0 2.7045,0c0.81633,0 1.7795,0 2.64284,0c0.89549,0 1.90112,0.15353 2.65266,-0.16666c0.7812,-0.33282 1.59114,-0.7543 2.2,-1.40134c0.60449,-0.6424 1.32602,-1.25549 1.77917,-1.93201c0.46883,-0.69992 0.90829,-1.49069 1.0195,-2.29999c0.11501,-0.83701 0.95575,-1.11249 1.56532,-1.81067c0.582,-0.6666 0.36296,-1.7395 0.86134,-2.36401c0.48518,-0.60797 0.4718,-1.53119 1.09549,-2.02533c0.76169,-0.60352 1.0872,-1.30542 1.76451,-1.91602c0.64622,-0.58258 1.47658,-0.73215 2.10399,-1.48398c0.54716,-0.65567 0.28778,-1.75421 0.832,-2.47867c0.48238,-0.64215 0.65767,-1.35123 0.77884,-2.22116c0.11172,-0.80206 0.92981,-1.33713 0.98917,-2.08551c0.08327,-1.04977 -0.1754,-1.95306 0.17734,-2.81467c0.2749,-0.67148 0.82291,-1.49982 0.83333,-2.39999c0.01041,-0.89993 0,-1.80002 0,-2.70001c0,-0.89999 0.01376,-1.74994 0.52083,-2.39999c0.5999,-0.76904 1.28119,-1.36462 1.422,-2.15268c0.15216,-0.85162 -0.00122,-1.86316 0.40984,-2.64731c0.44449,-0.84793 0.47379,-1.73825 0.73267,-2.5c0.30176,-0.88794 0.79854,-1.64133 1.19867,-2.40002c0.45271,-0.85837 0.83183,-1.45847 1.51733,-1.884c0.80522,-0.49985 1.15134,-1.39575 1.19417,-2.20615c0.0526,-0.99515 0.17313,-1.87573 0.42984,-2.54584c0.29289,-0.7645 0.53825,-1.75833 0.57016,-2.50684c0.0435,-1.02036 0.43161,-1.89258 0.9205,-2.57449c0.5285,-0.73715 0.77435,-1.44406 1.3795,-2.3255c0.52567,-0.76566 0.70224,-1.45718 0.7045,-2.35718c0.00224,-0.89999 0.06696,-1.74356 0.57466,-2.42532c0.47722,-0.64081 0.42038,-1.57468 0.42534,-2.45383c0.00534,-0.9462 0.72559,-1.39474 0.98933,-2.1315c0.29976,-0.83737 0.07762,-1.73291 0.58533,-2.41467c0.47722,-0.64081 0.62555,-1.37546 1.14134,-2.05869c0.46454,-0.61533 0.284,-1.616 0.284,-2.51599l0,-0.96399" id="svg_32" stroke-width="2" stroke="#000" fill="none"/>
  <path t="124078,124149,124158,124165,124165,124173,124181,124189,124189,124197,124197,124197,124205,124213,124213,124221,124221,124229,124229,124229,124237,124246,124253,124253,124262,124293,124293,124317,124326,124349,124349,124365,124365,124373,124389,124397,124397,124405,124413,124421,124429,124437,124453,124453,124485,124485" d="m100.51137,359.09091c1.22133,-0.87866 1.84726,-1.40442 2.284,-2.20001c0.35577,-0.6481 0.60459,-1.62607 1.23684,-2.27914c0.56347,-0.58203 1.4041,-0.73947 2.13183,-1.57886c0.36823,-0.42474 0.68182,-1.37698 1.722,-1.83398c0.87237,-0.38327 1.89095,-0.02597 2.604,-0.55084c0.62686,-0.46143 1.1694,-1.41406 1.836,-1.92117c0.60002,-0.45645 1.01243,-1.3728 1.632,-2.02533c0.58244,-0.61343 1.60208,-0.4664 2.44801,-0.96332c0.75712,-0.44476 1.45715,-0.64508 2.34817,-0.64734c0.95716,-0.00241 1.94189,-0.20413 2.55716,0.17065c0.78136,0.47595 0.98753,1.35562 1.58934,2.18268c0.5984,0.82239 0.41687,1.69211 0.696,2.44666c0.32169,0.8696 1.56329,0.9881 1.89383,1.72086c0.3616,0.80161 0.02084,1.78366 0.02084,2.64581l0.02084,0.83334l0.20049,0.97849l0.426,0.71701" id="svg_33" stroke-width="2" stroke="#000" fill="none"/>
  <path t="125478,125581,125589,125597,125629,125645,125645,125661,125661,125670,125678,125678,125702,125726,125758,125798,125798,125805" d="m142.51137,346.09091c1.61067,0 2.47562,0.11862 3.05266,0.64734c0.69131,0.63342 1.17587,1.31699 1.522,1.98865c0.41853,0.81213 0.31464,1.71872 0.42984,2.60684c0.11374,0.87686 0.77078,1.39432 1.38483,2.15717c0.60013,0.74554 0.61067,1.70001 0.61067,2.60001l0,0.79999l0,0.90002" id="svg_34" stroke-width="2" stroke="#000" fill="none"/>
  <path t="126390,126534,126542,126542,126542,126542,126550,126550,126558,126558,126566,126567,126574,126574,126582,126590,126590,126606,126614,126622,126670,126679,126694,126766,126790,126814,126830,126838,126854,126862,126894,126902,126910,126926" d="m129.51137,362.09091c0.436,-1.45734 1.00644,-2.33047 1.3045,-3.00983c0.33885,-0.77234 0.52419,-1.34372 1.17816,-2.3035c0.45834,-0.67267 1.32555,-1.47803 1.496,-2.31201c0.17201,-0.84161 0.00827,-1.81332 0.58932,-2.48932c0.48921,-0.56915 1.23531,-1.22708 1.65334,-1.98535c0.41382,-0.75061 0.7782,-1.68832 1.58,-1.89865c0.81593,-0.21405 1.36971,-0.81415 2.19867,-1.00134c0.88387,-0.19958 1.28236,-0.95737 2.2,-1c0.89886,-0.04175 1.56969,0.30557 2.15266,0.94733c0.52625,0.57932 0.658,1.44202 1.16817,2.05267l0.77467,0.35718l0.58316,0.74265l0.34267,0.77869" id="svg_35" stroke-width="2" stroke="#000" fill="none"/>
  <path t="129455,129550,129562,129576,129583,129583,129599,129615,129631,129647,129647,129655,129663,129695,129703,129703,129727,129751,129783,129807,129823,129839,129839,129855,129863,129871,129871,129886,129886,129895,129911,129918,129926,129934,129950,129966,129966,129975,129975,129982,129991,129998,130014,130023,130030,130040,130047,130056,130071,130080,130087,130087,130096,130096,130103,130112,130127,130135,130136,130148,130149,130151,130151,130166,130166,130179,130196,130212,130212,130215,130216,130224,130241,130249,130265,130265,130272,130283,130287,130303,130312,130313,130319,130335,130346,130351,130367,130367,130383,130399,130435,130443,130447,130457,130471,130479,130479,130488,130503,130514,130514,130535,130545,130551,130567,130567,130578,130583,130599,130609,130624,130632,130648,130657,130657,130663,130672,130687,130696,130711,130719,130719,130735,130744,130751,130767,130778,130778,130794,130799,130812,130815,130831,130840,130857,130887,130896,130927,130927,130936,130951,130975,130984,131031,131047,131056,131074,131143,131143,131151,131175,131192,131239,131263,131272,131289,131289,131303,131319,131343,131367,131399,131408,131428,131428,131431,131439,131448" d="m236.51137,280.09091c1.8,0 2.38715,0.31448 3.16667,0.83334c0.70746,0.47089 1.6692,-0.03415 2.53333,0.22382c0.85876,0.25638 1.57732,0.78485 2.40001,1.16418c0.66823,0.30811 1.51805,0.76978 2.29999,1.20398c0.82047,0.4556 1.55377,0.8168 2.3,1.22202c0.76112,0.4133 1.74454,0.25717 2.5,0.63666c0.8672,0.43561 1.67883,0.716 2.50984,0.716c0.8075,0 1.80598,-0.05835 2.59016,0.35266c0.84805,0.44452 1.58694,0.60141 2.52533,0.65799c0.69345,0.04181 1.57828,0.67456 2.47467,0.93219c0.86551,0.24878 1.37659,0.6261 2.13599,1.02115c0.77115,0.40115 1.73068,0.03601 2.564,0.03601c0.97852,0 1.7991,-0.02728 2.70001,0c0.94415,0.02859 1.44107,0.83652 2.32083,0.97916c0.94537,0.15329 1.8125,0.02084 2.58984,0.02084c0.88931,0 1.78934,0 2.68933,0c0.89999,0 1.81592,-0.09283 2.58533,0.08533c0.97385,0.22549 1.60583,0.74976 2.59384,0.89383c0.90088,0.13138 1.8075,0.02084 2.6875,0.02084c0.85416,0 1.83331,0 2.62265,0c1.04401,0 1.836,0 2.69467,0c0.86334,0 1.75885,0 2.71735,0c0.96533,0 1.62399,0 2.63199,0c0.86218,0 1.76666,0 2.66666,0c0.91068,0 1.82135,0 2.67468,0c0.94,0 1.82532,0 2.70401,0c0.82584,0 1.72131,0 2.62131,0c0.90002,0 1.80002,0 2.70001,0c0.89999,0 1.79999,0 2.60001,0c0.89999,0 1.76401,0 2.72083,0c0.87918,0 1.77917,0 2.67917,0c0.89999,0 1.79999,0 2.60001,0c0.89999,0 1.72083,0 2.68265,0c0.80753,0 1.80267,0 2.71735,0c0.89999,0 1.83643,0.16818 2.60001,-0.08533c0.77216,-0.25635 1.59946,-0.89667 2.5,-0.91467c0.89981,-0.01801 1.79999,0 2.69998,0c0.83334,0 1.70984,0 2.51733,0c0.96185,0 1.88269,0 2.78268,0c0.89999,0 1.79999,0 2.69998,0c0.80002,0 1.79691,0.36316 2.56403,-0.03601c0.75937,-0.39514 1.19766,-0.96173 2.08865,-0.96399c0.86334,-0.00217 1.82651,0.00232 2.74734,0c0.89548,-0.00226 1.61493,-0.38757 2.17465,-1.02533c0.51746,-0.5896 1.26263,-0.77353 2.12534,-1.03183c0.85858,-0.25705 1.55698,-1.04077 1.94733,-1.64734c0.50815,-0.78958 1.18097,-0.88281 1.99551,-1.35266c0.68683,-0.39618 0.96619,-1.45004 1.71432,-1.88568c0.72894,-0.42447 1.42017,-0.4816 1.86417,-1.27866c0.37091,-0.66583 0.41342,-1.57626 0.81467,-2.3425c0.39713,-0.75836 0.75922,-1.27438 1.02118,-2.13602c0.26895,-0.88467 1.19363,-1.29199 1.6575,-2.09998c0.44232,-0.77045 -0.00522,-1.77469 0.29599,-2.58936c0.27594,-0.74634 1.50027,-0.84085 1.86783,-1.71066c0.35349,-0.83655 0.12149,-1.69998 0.12149,-2.60001l0.05719,-0.94281l0.65881,-0.44119" id="svg_36" stroke-width="2" stroke="#000" fill="none"/>
  <path t="139671,139798,139799,139815,139831,139831,139839,139847,139871,139886,139887,139895,139903,139913,139919,139935,139951,139967,139975,139975,139983,139991,139991,140000,140000,140007,140016,140033,140050,140054,140070,140078,140095,140103,140103,140112,140129,140129,140142,140143,140151,140158,140169,140174,140186,140200,140206,140216,140216,140222,140232,140238,140254,140254,140266,140270,140270,140282,140282,140286,140295,140295,140302,140302,140318,140318,140334,140334,140342,140350,140366,140374,140374,140383,140406,140416,140416,140422,140431,140431,140438,140454,140462,140478,140495,140511,140528,140550,140550,140566,140583,140606,140742,140758,140782,140806,140816,140838,140838,140854,140870,140882,140898,140902,140926,140942,140966,140966,140982,140990,140998,141006,141022,141032,141048,141066,141070,141086,141102,141110,141111,141119,141134,141144,141151,141151,141158,141166,141174,141182,141199,141206,141214,141222,141232,141238,141246,141254,141265,141278,141286,141302,141318,141334,141350,141382,141406,141422,141422,141438,141438,141454,141454,141470,141510,141518,141542,141550,141566,141630,141646,141678,141678,141734,141774,141798,141974,141990,141998,142006,142022,142031,142048,142064,142070,142070,142081,142086,142102,142114,142127,142135,142151,142166,142182,142182,142191,142191,142199,142214,142222,142238,142238,142247,142254,142254,142264,142280,142286,142302,142314,142314,142326,142326,142334,142342,142359,142367,142367,142376,142382,142391,142406,142414,142414,142422,142422,142430,142430,142438,142447,142454,142454,142462,142481,142481,142486,142494,142502,142513,142542,142558,142558,142566,142576,142582,142606,142614,142630,142638,142646,142664,142670,142671,142681,142697,142702,142713,142718,142742,142758,142758,142766,142782,142793,142800,142807,142816,142823,142838,142855,142870,142881,142887,142911,142934,142959,142983,142983,142999,143151" d="m327.51135,291.09091c-1,1 -1.01346,1.85019 -1.52081,2.5c-0.59967,0.76804 -1.12213,1.33029 -1.53183,2.20001c-0.38287,0.81277 -0.78937,1.5773 -1.16867,2.39999c-0.30811,0.66824 -0.41943,1.58578 -0.7995,2.37915c-0.33694,0.70331 -1.48972,0.48434 -1.98984,0.94617c-0.60498,0.55865 -0.94818,1.22226 -0.99384,2.22736c-0.03162,0.69592 -0.33307,1.60724 -0.99551,2.34732c-0.58313,0.65146 -1.06424,1.34427 -1.5,1.97916c-0.55594,0.80997 -1.32095,1.32156 -1.50015,2.12067c-0.1889,0.84238 -1.45258,0.56912 -1.91449,1.18552c-0.5509,0.73514 -0.03757,1.81595 -0.08536,2.71466c-0.04272,0.80338 -0.53384,1.48761 -1.19998,2.20132c-0.51013,0.54654 -1.14291,1.4296 -1.44284,2.146c-0.36365,0.86856 -0.77368,1.63715 -1.35718,2.15268c-0.63785,0.56357 -1.1051,1.17746 -1.80133,1.58398c-0.82614,0.48239 -1.4032,1.11151 -1.99866,1.716c-0.68445,0.69485 -1.00006,1.63074 -1.62534,2.164c-0.63019,0.53745 -0.92886,1.1994 -1.67465,1.79318c-0.77356,0.61588 -1.50266,0.8508 -2.20001,1.54282c-0.50192,0.49808 -1.17688,1.28311 -2.02133,1.57886c-0.82358,0.28845 -1.69843,0.5307 -2.15784,1.142c-0.68567,0.91232 -1.0961,1.59384 -1.72083,2.17783c-0.57813,0.54041 -1.5,0.854 -2.30002,1.30133c-0.79999,0.44733 -1.53662,0.82614 -2.29999,1.216c-0.75287,0.38452 -1.75061,0.21384 -2.68268,0.56934c-0.68414,0.26093 -1.26117,1.20337 -1.95999,1.59332c-0.75937,0.42374 -1.22751,0.76648 -1.56799,1.54666c-0.31903,0.73102 -1.42532,0.57468 -2.38934,0.57468c-0.89999,0 -1.84845,-0.15353 -2.60001,0.16666c-0.78119,0.33282 -1.49988,0.81808 -2.39999,0.83334c-0.98923,0.01678 -1.58957,0.52066 -1.60001,1.39999c-0.01068,0.89993 0,1.80002 0,2.70001c0,0.89999 0,1.69998 0,2.60001c0,0.89999 0.06537,1.7374 0.57468,2.32532c0.56192,0.64862 1.09503,1.37213 1.71066,1.89066c0.66547,0.56049 1.48679,0.72379 2.104,1.48401c0.60303,0.74271 0.92432,1.35959 1.80933,1.60135c0.79779,0.21796 1.33228,0.88034 1.80133,1.5195c0.57217,0.77963 1.02441,1.50543 1.61069,2.08981c0.6882,0.68597 1.37671,1.30432 2.18933,1.388c0.90985,0.09369 1.87671,-0.07245 2.60001,0.43735c0.78851,0.55576 1.37387,1.07693 2.07916,1.564c0.67313,0.46484 1.37152,0.96286 2.27798,1c0.85355,0.03497 1.65887,0.41824 2.15884,1.19867c0.46664,0.72845 1.29657,0.65152 2.18384,0.80148c0.85202,0.14401 1.25601,0.97125 2.20016,0.99985c0.89957,0.02725 1.79999,0 2.69998,0c0.83334,0 1.70453,0 2.60001,0c0.89999,0 1.7045,0 2.72134,0c0.67865,0 1.65732,0 2.56265,0c0.94135,0 1.63208,-0.01141 2.66934,0c0.94684,0.01044 1.38788,0.75943 2.15118,0.99551c0.85635,0.26486 1.60583,0.62262 2.49548,0.91916c0.85764,0.28589 1.79999,0.08533 2.60001,0.08533c0.89999,0 1.79999,0 2.67917,0c0.87799,0 1.8425,0.19489 2.71948,-0.00134c0.80707,-0.18057 1.18893,-1.01361 1.82669,-1.57333c0.58957,-0.51743 1.19742,-1.14316 1.97464,-1.59198c0.62161,-0.35898 1.07446,-1.24359 1.57468,-1.85867c0.50412,-0.61987 0.27896,-1.69775 0.86133,-2.36401c0.60947,-0.69727 1.56174,-0.72501 1.564,-1.6315c0.00238,-0.95782 -0.04382,-1.73309 0.00452,-2.62732c0.04245,-0.78552 0.83517,-1.22882 1.47467,-1.87268c0.64056,-0.64493 0.90039,-1.62875 1.23682,-2.3645c0.33148,-0.72495 0.3992,-1.9086 1.08536,-2.112c0.87973,-0.26077 0.86148,-1.15161 1.36533,-1.836c0.48083,-0.65317 1.17337,-1.15784 1.83331,-1.66666c0.76508,-0.58987 1.12262,-1.27676 1.57468,-2.10001c0.42822,-0.77988 0.29367,-1.75003 0.64667,-2.5c0.36502,-0.77551 0.40515,-1.70215 0.81467,-2.46399c0.39206,-0.7294 1.41925,-0.84003 1.96399,-1.60266c0.44794,-0.62711 0.97034,-1.6904 1.40002,-2.19736c0.65665,-0.77475 1.24283,-1.336 1.59998,-2.13599c0.35718,-0.79999 1.08582,-1.4296 1.56403,-2.10001c0.52505,-0.73608 1.03586,-1.55725 1.58533,-2c0.79123,-0.63757 1.47827,-1.14764 1.82983,-1.92084c0.35959,-0.79083 -0.11688,-1.81549 0.24216,-2.57916c0.36469,-0.77567 0.41342,-1.69775 0.81467,-2.46399c0.39713,-0.75836 0.8765,-1.39044 1.57468,-2c0.6666,-0.58197 1.74863,-0.35172 2.36398,-0.86133c0.62234,-0.51538 1.14969,-1.20102 1.72534,-1.86935c0.61563,-0.71475 1.19946,-1.22205 1.91068,-1.73065c0.71606,-0.51208 0.87485,-1.39706 1.4465,-1.97018c0.6767,-0.67844 1.69244,-0.55023 1.922,-1.50449c0.20813,-0.8652 0.4469,-1.57758 1.04617,-2.07468c0.61496,-0.5101 1.49139,-0.58731 2.05865,-1.14133c0.67374,-0.65799 1.30869,-1.18335 1.89066,-1.70932c0.64871,-0.58627 0.66278,-1.40936 1.19202,-2.24133c0.48438,-0.76141 0.83331,-1.38602 1,-2.33334l0.444,-0.564l0.78934,-0.41068l0.89548,-0.38251" id="svg_38" stroke-width="2" stroke="#000" fill="none"/>
  <path t="144111,144238,144254,144254,144270,144294,144318,144334,144350,144358,144366,144366,144374,144382,144406,144422,144430,144446,144454,144462,144462,144470,144478,144486,144486,144494,144510,144518,144526,144542,144566,144582,144582,144598,144598,144622" d="m288.51135,349.09091c2.47919,-0.52084 3.11166,-1.32422 3.80002,-1.71466c0.77274,-0.43829 1.72083,-0.28534 2.60001,-0.28534c0.89999,0 1.80377,-0.08212 2.69998,0.00015c0.91144,0.08368 1.55374,0.79483 2.39999,0.979c0.86954,0.18924 1.44019,0.57166 1.85269,1.32083c0.4617,0.8385 0.64731,1.68533 0.64731,2.56134c0,0.97202 0.16998,1.57358 0.64734,2.2485c0.47089,0.6658 0.35266,1.72351 0.35266,2.58566c0,0.90451 0,1.8045 0,2.7045c0,0.89551 0,1.76935 0,2.62085c0,0.95782 0,1.73181 0,2.63184l0,0.86331l0,0.96317" id="svg_39" stroke-width="2" stroke="#000" fill="none"/>
  <path t="145150,145182,145190,145198,145206,145206,145214,145230,145239,145246,145256,145278,145286,145286,145295,145390,145390,145406,145422,145430,145439,145456,145462,145462,145472,145478,145486,145502,145526,145534,145558,145582,145598" d="m309.51135,366.09091c0.16669,-1.83334 0.85864,-2.22449 1.00018,-3.10001c0.14606,-0.90353 0.74615,-1.26819 1.479,-1.92084c0.61929,-0.55151 0.90985,-1.4408 1.35416,-2.14581c0.45309,-0.71899 0.38284,-1.56281 1.16666,-2c0.65189,-0.36359 1.19742,-1.29913 2,-1.66669c0.74274,-0.34015 1.70007,-0.17706 2.60001,-0.16666c0.90018,0.01044 1.83618,0.26569 2.27869,1.10001c0.44275,0.83481 0.83881,1.29648 1.60049,1.89999c0.62369,0.49414 0.23172,1.55197 0.53149,2.38934c0.26373,0.73672 1.04199,1.258 1.79068,1.69464l0.67783,0.43686l0.46365,0.77914" id="svg_40" stroke-width="2" stroke="#000" fill="none"/>
  <path t="147640,147719,147735,147751,147759,147767,147775,147783,147791,147807,147823,147839,147847,147863,147863,147887,147887,147903,147911,147927,147927,147951,147967,147967,147983,147991,147999,148007,148015,148031,148039,148039,148047,148063,148071,148079,148087,148095,148095,148103,148111,148111,148120,148127,148137,148144,148144,148151,148159,148167,148183,148191,148191,148199,148199,148207,148223,148231,148231,148239,148247,148255,148271,148279,148287,148303,148303,148319,148327,148336,148343,148343,148352,148359,148367,148375,148383,148391,148391,148399,148407,148415,148423,148423,148423,148431,148439,148439,148447,148447,148455,148455,148463,148463,148475,148481,148482,148482,148487,148500,148500,148503,148511,148511,148519,148532,148536,148536,148543,148553,148553,148553,148565,148565,148568,148568,148575,148575,148583,148591,148591,148599,148599,148607,148607,148615,148628,148628,148631,148639,148647,148659,148671,148671,148679,148687,148695,148703,148703,148719,148736,148743,148831,149423,149439,149455,149502,149526,149535,149560,149575,149584,149600,149623,149631,149655,149679,149703,149711,149727,149735,149751,149759,149807,149815,149839,150111,150123,150143,150152,150168,150175,150175,150184,150191,150222,150239,150318,150342,150367,150454,150526,150538,150558,150606,150799,150831,150839,150863,150895,150910,150950,150982,151006,151023,151047,151063,151071,151071,151095,151126,151150,151167,151190,151230,151231,151246,151270,151287,151304,151319,151337,151343,151351,151382,151398,151406,151431,151447,151478,151486,151510,151511,151534,151551,151574,151606,151622,151646,151655,151670,151694,151718,151719,151742,151766,151791,151799,151839,151855,151855,151895,151935,151959,151991,151999,152007,152023,152032,152049,152071,152111,152127,152127,152135,152183,152191,152231,152247,152263,152271,152271,152279,152303,152311,152319,152326,152359,152375,152390,152407,152415,152439,152511,152519,152536,152536,152543,152553,152559,152574,152586,152591,152606,152617,152618,152623,152631,152639,152665,152665,152671,152695,152711,152719,152719,152727,152775,152785,152806,152831,152831,152839,152848,152855,152871,152871,152879,152894,152902,152911,152943,152943,152967,153015,153054,153055,153127" d="m144.51137,198.09091c0,1.83333 -0.00061,2.62914 -0.42534,3.39999c-0.45256,0.82137 -0.57466,1.70001 -0.57466,2.60001c0,0.916 0,1.7045 0,2.60001c0,0.89999 0.20204,1.91493 -0.35716,2.6955c-0.48811,0.68135 -1.53183,0.80699 -2.03217,1.56583c-0.40308,0.61133 -0.45416,1.6326 -0.62134,2.53867c-0.15347,0.8318 -0.79037,1.4003 -1.48933,2.10001c-0.59959,0.60025 -1.17142,1.31818 -1.52533,2.10001c-0.36693,0.81058 -1.46347,1.02078 -1.91751,1.75716c-0.44272,0.71802 -0.49911,1.42842 -1.25583,1.92818c-0.60892,0.40215 -1.01628,1.26213 -1.63466,1.88133c-0.61789,0.61871 -0.93007,1.29041 -1.45201,2.032c-0.55011,0.78162 -1.47696,0.76094 -2.21466,1.32216c-0.77548,0.58995 -0.96085,1.43326 -1.55267,2.12201c-0.56633,0.65909 -1.42763,0.89896 -2.14734,1.55583c-0.5845,0.53348 -1.42796,0.86298 -1.884,1.60266c-0.4232,0.68643 -1.36642,1.06596 -2.11733,1.48401c-0.60825,0.33862 -1.42868,1.05974 -2.146,1.3575c-0.87225,0.36206 -1.90997,0.19347 -2.75266,0.57849c-0.66931,0.3058 -1.57993,0.43188 -2.37917,0.7995c-0.6841,0.31467 -1.05704,0.82582 -1.92084,0.98984c-0.94589,0.1796 -1.63448,0.73154 -2.4,1.07333c-0.74353,0.33199 -1.69518,0.71196 -2.39867,1.20134c-0.78462,0.54581 -0.94212,1.55049 -1.82217,1.69383c-0.94527,0.15398 -1.83736,-0.14146 -2.58983,0.05682c-0.8557,0.22549 -1.41075,1.16597 -2.08934,1.60684c-0.79234,0.51479 -1.18185,1.06323 -1.74667,1.75716c-0.59164,0.72688 -1.39753,0.96907 -2.06933,1.40001c-0.87436,0.56088 -1.62159,1.2674 -2.084,1.836c-0.65494,0.80533 -0.96709,1.53751 -1.31734,2.47867c-0.25424,0.68317 -0.95994,1.26028 -1.6,1.68533c-0.86962,0.5775 -1.48955,1.36253 -1.88267,2.02533c-0.40717,0.68648 -1.15956,1.45052 -1.4785,2.27483c-0.28663,0.74081 -0.1215,1.72516 -0.1215,2.73318c0,0.75598 0.14275,1.67978 -0.01067,2.56665c-0.14417,0.83347 -0.9174,1.30154 -1.4685,2.14166c-0.47571,0.72519 -0.43162,1.7254 -0.63067,2.453c-0.24396,0.89175 -1.04459,1.36285 -1.55683,2.172c-0.47607,0.75198 -0.57993,1.79791 -0.908,2.42267c-0.42258,0.80475 -0.42525,1.73218 -0.42533,2.62134c-0.00008,0.98917 0.13887,1.81436 -0.22134,2.76782c-0.24939,0.66013 -0.7408,1.43225 -0.77883,2.34268c-0.03416,0.81757 -0.43963,1.71707 -1.02517,2.25351c-0.63275,0.57968 -0.97241,1.18698 -0.97466,2.25064c-0.00146,0.69067 0.0584,1.69052 -0.35267,2.47467c-0.44448,0.84793 -0.64733,1.70001 -0.64733,2.5c0,0.90002 -0.2366,1.65244 -0.716,2.284c-0.54951,0.72391 -0.26528,1.71753 -0.284,2.61603c-0.01801,0.86453 -0.80178,0.93674 -1.564,1.336c-0.7583,0.39722 -1.18784,1.27698 -1.72,1.87997c-0.56644,0.64185 -0.716,1.384 -0.716,2.28403c0,0.89999 0,1.79999 0,2.67865c0,0.82584 -0.34305,1.79993 0.02084,2.60049c0.35146,0.77325 0.56797,1.34827 1.03633,2.16367c0.46639,0.81198 1.22969,1.14813 1.89017,1.70984c0.6246,0.53119 1.04603,0.01965 1.478,-0.75266c0.45757,-0.81808 1.0731,-1.36273 1.49067,-2.168c0.34039,-0.65643 0.78138,-1.0722 1.56316,-1.45285c0.70115,-0.34137 0.68362,-1.41721 1.16817,-2.03183c0.512,-0.64944 0.36333,-1.6474 0.35267,-2.54733c-0.01042,-0.87933 -0.61066,-1.38934 -1.5,-1.39999c-0.88934,-0.01068 -1.48958,-0.52066 -1.5,-1.39999c-0.01067,-0.89993 0,-1.80002 0,-2.70001c0,-0.89999 -0.01584,-1.81616 0,-2.60449c0.018,-0.89606 0.61812,-1.60583 0.91467,-2.49551c0.28587,-0.85764 0.08533,-1.79999 0.08533,-2.59998c0,-0.90002 -0.00224,-1.81979 0.42533,-2.60001c0.45013,-0.82141 0.57467,-1.68402 0.57467,-2.60001c0,-0.79999 0.05717,-1.70001 0.5,-2.5c0.44283,-0.79999 0.5,-1.70001 0.5,-2.60001c0,-0.89999 0.41768,-1.45441 0.8785,-2.12149c0.50397,-0.72955 0.09605,-1.7789 0.1215,-2.57983c0.02859,-0.90005 0.68554,-1.62122 0.94283,-2.49866c0.25378,-0.86548 0.358,-1.75085 0.7045,-2.40002c0.45335,-0.84937 0.29205,-1.83887 0.70534,-2.59998c0.4052,-0.74625 0.89639,-1.22296 1.48067,-1.86667c0.57119,-0.62927 0.52334,-1.44565 1.08266,-2.11868c0.55611,-0.66916 0.84834,-1.36075 1.47334,-2.11465c0.54504,-0.65744 0.28799,-1.75403 0.83199,-2.47867c0.48327,-0.64374 1.10824,-1.15625 1.49467,-1.92134c0.40033,-0.7926 0.72984,-1.36362 1.33667,-1.84734c0.64668,-0.51549 1.74422,0.01051 2.51133,-0.38866c0.75939,-0.39514 1.23777,-0.93613 2.136,-0.964c0.94411,-0.0293 1.4543,-0.91626 2.3,-1c0.7961,-0.07883 1.81313,0.3652 2.57467,-0.036c0.75167,-0.396 1.2598,-0.77242 2.12533,-1.02118c0.89638,-0.25763 1.65729,-0.68663 2.43867,-0.96815c0.90813,-0.32718 1.55056,-0.63318 2.3405,-0.9955c0.73068,-0.33514 0.86894,-1.52751 1.71951,-1.89384c0.75128,-0.32356 1.10186,-0.90707 1.90116,-1.08549c0.84335,-0.18826 1.36147,-0.75243 2.18417,-1.00116c0.78447,-0.23718 1.28273,-0.94472 2.06783,-0.99417c1.10461,-0.06958 1.58936,-0.76392 2.35267,-1c0.85639,-0.26488 1.67522,-0.44019 2.32083,-1.02983c0.61238,-0.5593 1.50923,-0.71143 2.26484,-1.02734c0.82384,-0.34444 1.32813,-1.10333 1.87917,-1.74866c0.58895,-0.68974 1.1141,-1.13072 1.87884,-1.84151c0.56677,-0.52679 1.43211,-0.89896 2.15182,-1.55583c0.5845,-0.53348 1.55469,-0.39284 2.37466,-0.83733c0.72249,-0.39165 0.94089,-1.46915 1.52534,-2.06401c0.59467,-0.60527 1.26575,-1.34238 1.99983,-1.77866c0.78387,-0.46588 1.18512,-1.18089 1.5475,-1.82133c0.46442,-0.82079 1.17181,-1.3515 1.35133,-2.10133c0.21361,-0.89221 1.0423,-1.01724 1.80133,-1.284c0.85594,-0.30081 1.20132,-1.20001 1.42133,-2.01468l0.49467,-0.7l0.2795,-0.89999" id="svg_41" stroke-width="2" stroke="#000" fill="none"/>
  <path t="162022,162086,162095,162103,162103,162110,162110,162110,162120,162126,162126,162134,162134,162142,162142,162142,162150,162150,162158,162159,162174,162182,162206,162230,162230,162246,162259,162270,162295,162326,162830,162841,162846,162858,162862,162862,162873,162888,162905,162905,162958,163102,163110,163110,163118,163118,163126,163135,163135,163142,163152,163166,163190,163206,163214,163222,163238,163238,163255,163271,163288,163310" d="m505.51135,204.09091c1.70001,0.05716 2.47607,0.61472 3.3215,0.87866c0.86026,0.26859 1.89197,0.30858 2.46783,0.55734c0.74557,0.32208 1.47849,1.15399 2.41336,1.47867c0.7298,0.25346 1.80914,0.05751 2.58264,0.12132c1.05255,0.08684 1.76776,0.29643 2.40399,0.57468c1.02863,0.44984 1.75781,0.95869 2.64404,1.22266c0.84076,0.25041 1.79181,0.15479 2.56665,0.59201c0.72626,0.40979 1.59998,0.57466 2.39996,0.57466c0.90002,0 1.80005,0 2.70001,0c0.90002,0 1.79999,0 2.69733,0c0.09369,0 -0.7973,0 -1.71814,0c-0.9632,0 -1.65387,0 -2.72198,0c-0.85718,0 -1.7572,0 -2.55719,0c-0.91467,0 -1.84668,0 -2.6853,0c-0.91919,0 -1.91339,0 -2.67871,0c-0.95062,0 -1.836,0 -2.63599,0c-0.90002,0 -1.79999,0 -2.67914,0c-0.95685,0 -1.82086,0 -2.72086,0c-0.89999,0 -1.80002,0 -2.60001,0c-0.89999,0 -1.79999,0 -2.70001,0l-0.89999,0" id="svg_42" stroke-width="20" stroke="#fff" fill="none"/>
  <path t="166703,166910,166991,167055,167119,167159,167207,167271,167296,167335,167375,167407,167407,167431,167478,167503,167575,167575,167599,167607,167623,167639,167655,167664,167681,167687,167742,167767,167831,167871,167871,167879,167927,167935,167974,167983,167991,168007,168023,168054,168102,168127,168182,168470,168502,168535,168542,168559,168614,168686,168703,168727,168830,168847,168871,168911,168990,169006,169016,169023,169062,169094,169111,169135,169174,169191,169230,169238,169262,169294,169319,169351,169358,169414,169439,169494,169527,169551,169575,169622,169662,169702,169758,169783,169822,169862,169878,169903,169935,169950,170006,170062" d="m500.51135,202.09091c1.70001,0 2.29572,-0.32536 3.00018,-0.87849c0.56216,-0.44139 1.59982,-0.12151 2.49982,-0.12151c0.90002,0 1.80002,0 2.70001,0c0.89999,0 1.80084,0.0372 2.60001,0c0.91763,-0.04271 1.41476,-0.93909 2.25266,-1c0.94482,-0.06868 1.74731,0 2.64734,0c0.90002,0 1.79999,0 2.70001,0c0.89996,0 1.79999,0 2.69983,0c0.84747,0 1.84167,0.35223 2.54749,-0.05717c0.8078,-0.46857 1.35352,-0.90564 2.15265,-0.94283c0.91766,-0.04271 1.43207,-0.81778 2.29987,-1.00017c0.7923,-0.16653 1.28522,-0.90773 1.87482,-1.42517c0.63776,-0.55971 1.08789,-1.20547 1.82666,-1.65866c0.68738,-0.42166 1.1861,-1.29459 1.69867,-1.916c0.5116,-0.62021 -0.17047,-0.19313 -0.47913,0.52083c-0.349,0.80721 0.18994,1.79903 -0.021,2.7005c-0.18341,0.78384 -1.56689,0.52509 -1.96387,1.21468c-0.42926,0.74571 -0.40698,1.59846 -1.06134,2.13866c-0.57916,0.47809 -1.58643,0.03815 -2.4538,0.44617c-0.70569,0.33197 -0.40234,1.69193 -1.13153,1.96851c-0.8316,0.31543 -1.86774,-0.13795 -2.68481,0.36333c-0.74951,0.45982 -1.40997,0.70277 -2.20453,1.14734c-0.79645,0.4456 -1.30682,1.17053 -2.02081,1.47917c-0.80719,0.34895 -1.86853,0.03149 -2.47919,0.52083c-0.61066,0.48933 -1.51306,0.3577 -2.39996,0.51067c-0.83191,0.14348 -1.51257,0.94661 -2.3045,0.98933c-0.8942,0.04825 -1.79553,0 -2.69553,0c-0.89999,0 -1.89789,-0.15936 -2.54733,0.35266c-0.61459,0.48454 -1.45267,0.64667 -2.35266,0.64734c-0.89865,0.00067 -1.61465,0.284 -1.92151,1l-0.87848,0" id="svg_43" stroke-width="2" stroke="#000" fill="none"/>
  <path t="171200,171351,171351,171376,171383,171399,171415,171431,171439,171455,171471,171487,171503,171526,171550,171558,171582,171598,171599,171614,171630,171639,171654,171678,171718,171718,171726,171743,171759,171806,172126,172150,172166,172174,172190,172190,172206,172214,172214,172222,172230,172238,172286,172294,172318,172319,172326,172342,172351,172359,172367,172391,172407,172415,172439,172470,172486,172518,172527,172550,172574,172598,172622,172638,172647,172647,172655,172679" d="m503.51135,188.09091c1,0 1.80002,0 2.70001,0c0.89999,0 1.79999,0 2.70001,0c0.89999,0 1.79999,0 2.69998,0c0.89999,0 1.81601,0 2.60452,0c0.89551,0 1.79547,0.00226 2.6955,0c0.89996,-0.00226 1.73834,-0.38608 2.39996,-0.716c0.84338,-0.42056 1.65314,-0.42142 2.284,-1c0.69403,-0.63652 1.27875,-1.0076 2.0827,-1.45067c0.63171,-0.34816 1.25592,-0.99257 1.9173,-1.54933c0.61676,-0.51923 1.43658,-1.34535 2.30536,-1.23734c0.73505,0.09138 0.08887,1.29956 -0.26801,2.05334c-0.40436,0.85405 -0.72931,1.50266 -1.42133,2.2c-0.69733,0.70268 -1.22424,1.14027 -1.99548,1.64732c-0.69196,0.45491 -0.42151,1.69032 -0.98987,2.05267c-0.77124,0.49171 -1.85266,0.03545 -2.35748,0.7045c-0.56665,0.75098 -1.06171,1.28264 -1.95715,1.2955c-0.87933,0.01262 -1.34119,0.75941 -2.10449,0.9955c-0.85638,0.26489 -1.68994,0.439 -2.4942,0.9205c-0.74359,0.44519 -1.23676,1.06535 -2.10132,1.084c-0.89844,0.01936 -1.4476,0.62772 -2.22083,0.97917c-0.8006,0.36391 -1.78391,-0.07005 -2.67917,0.02216c-0.81262,0.08371 -1.5,0.64601 -2.30002,0.97784l-0.97916,0.02083" id="svg_44" stroke-width="2" stroke="#000" fill="none"/>
  <path t="173575,173742,173783,173822,173831,173841,173871,173903,173918,173951,173983,174015,174030,174055,174095,174103,174103,174127,174151,174175,174198,174207,174247,174255,174263,174279" d="m465.51135,184.09091c-1.83331,0.16667 -1.66522,1.11665 -2.16666,1.83333c-0.50128,0.71645 -1.32385,0.97714 -1.80798,1.60268c-0.57721,0.7458 -0.94168,1.55272 -1.02536,2.48c-0.07086,0.78531 0,1.68401 0,2.584c0,0.89999 -0.13651,1.85663 0.28403,2.7c0.32993,0.66164 0.76767,1.50055 1.21597,2.3c0.44638,0.79605 1.17001,1.30206 1.47919,2c0.37921,0.856 0.02533,1.7955 0.44617,2.47467l0.60001,0.59999" id="svg_45" stroke-width="2" stroke="#000" fill="none"/>
  <path t="174927,175126,175126,175135,175174,175183,175183,175198,175214,175223,175255" d="m463.51135,183.09091c1,0 1.93039,-0.39299 2.71469,0.08533c0.80374,0.49017 1.23907,1.1568 1.98532,1.56201c0.76111,0.41328 1.70001,0.35266 2.59549,0.35716l0.66852,0.4315" id="svg_46" stroke-width="2" stroke="#000" fill="none"/>
  <path t="175759,175886,175895,175911,175919,175935,175959,175974,175999" d="m457.51135,182.09091c0,1.8 0,2.7 0,3.60001c0,0.79999 0,1.7 0,2.59999l0,0.99867l0,0.854" id="svg_47" stroke-width="2" stroke="#000" fill="none"/>
  <path t="176729,176767,176783,176783,176791,176799,176807,176814,176823,176831,176839,176846,176863,176879,176887,176895,176911,176943,176959,177007" d="m446.51135,200.09091c1.5,1.5 2.20193,2.19807 2.70001,2.7c0.69202,0.69734 1.13327,1.51149 1.30017,2.39984c0.14951,0.7957 0.95731,1.24431 1.49982,1.90016c0.49878,0.603 0.49933,1.5 0.5,2.38933c0.00067,0.89467 0.41653,1.59517 1,2.11067c0.63788,0.56357 0.99869,1.30133 1,2.2l0,0.90001" id="svg_48" stroke-width="2" stroke="#000" fill="none"/>
  <path t="177687,177758,177767,177767,177775,177782,177791,177791,177798,177815,177815,177823,177823,177830,177847,177855,177871,177903,177903,177951,177975,178022" d="m446.51135,202.09091c0,1.75717 0,2.65266 0,3.51601c0,0.96317 -0.13651,1.84062 0.28403,2.68399c0.32993,0.66164 0.78558,1.54247 1.42133,2.10451c0.55673,0.49219 0.98672,1.42133 1.37732,2.12616c0.44058,0.79504 0.52438,1.50111 1.00269,2.284c0.49081,0.80334 1.08133,1.28534 1.56198,1.98534l0.33185,0.8l0.04166,0.97917l0.55383,0.54616" id="svg_49" stroke-width="2" stroke="#000" fill="none"/>
  <path t="179502,179599,179614,179615,179624,179624,179631,179639,179647,179671" d="m412.51135,151.09091c1.75717,0.05716 2.73282,0.25031 3.29019,0.76167c0.664,0.60916 0.758,1.52849 1.3205,2.217l0.88931,0.02133l0.97919,0.02083l0.54617,0.55383" id="svg_50" stroke-width="2" stroke="#000" fill="none"/>
  <path t="183031,183239,183255,183255,183279,183295,183295,183399,183471,183471,183607" d="m453.51135,228.09091c0.16669,-1.83333 1.03348,-2.12469 1.60001,-2.61067c0.74326,-0.63756 1.13394,-1.42757 1.48401,-2.18933c0.34454,-0.74973 1.116,-1.39867 1.716,-1.91466l0.89999,-0.28084" id="svg_51" stroke-width="2" stroke="#000" fill="none"/>
  <path t="184688,184807,184815,184823,184823,184831,184839,184850,184855,184871,184871,184879,184895,184912,184928,184935,184959" d="m422.51135,261.09091c-0.87848,1.2215 -1,2.10001 -1,3c0,0.79999 0.18375,1.7265 -0.03598,2.60001c-0.21704,0.86282 -0.76401,1.64609 -1.13068,2.39999c-0.3714,0.76361 -0.51672,1.6283 -0.84399,2.42532c-0.31277,0.76175 -0.98483,1.27917 -1.02533,2.13867l-0.67999,0.51999" id="svg_52" stroke-width="2" stroke="#000" fill="none"/>
 </g>
 <g display="none">
  <title>muse_image</title>
  <image xlink:href="http://farm1.static.flickr.com/33/99995258_5d66772a78.jpg" id="muse" height="425" width="640" y="27.5" x="0"/>
 </g>
 <g display="none">
  <title>bbox</title>
  <rect stroke="#f00" fill="none" stroke-width="3" height="274.3311" width="396.8" y="88.6204" x="79.64444" id="bbox"/>
 </g>
</svg>
