<svg width="640" height="480" xmlns="http://www.w3.org/2000/svg" xmlns:svg="http://www.w3.org/2000/svg" xmlns:xlink="http://www.w3.org/1999/xlink">
 <!-- Sketchy ANNOTATION
  ImageNet ID: n02503517_6611
  URL: http://static.flickr.com/1230/879887762_c07ea779f7.jpg
  Image Width: 500
  Image Height: 375
  BBox X: 94
  BBox Y: 4
  BBox Width: 291
  BBox Height: 371
  Exposure: 2000ms
  Synset Label: elephant
  Synset ID: n02503517
  Worker Tag: large mammal
  Sanity Check: 
   Saved
  Comment: 
   {}
  Worker ID: A1CVM8I2566ILI
  Assignment ID: 3KXIR214I4GT7JF3QKUFKPVFVHW24T
  HIT ID: 3LN50BUKPVBJAEP088Z6DZAXLVFPL9
  Work Time: 163s
  Worker Score: 0.7143
 END ANNOTATION -->
 <g display="inline">
  <title>Layer 1</title>
  <path t="0,155,166,166,183,279,279,279,295,295,295,295,295,295,295,295,312,312,312,313,313,330,362,362,378,394,394,394,411,427,427,444,457,457,512,513,515,532,532,552,554,578,630,637,637,638,644,644,659,674,705,715,732,732,737,737,769,777,777,817,817,849,849,881,881,900,907,916,921,922,937,953,977,993,1001,1001,1017,1017,1034,1050,1057,1067,1073,1073,1084,1100,1105,1121,1121,1137,1145,1145,1153,1169,1185,1185,1193,1193,1201,1217,1225,1234,1251,1251,1268,1273,1273,1290,1290,1305,1305,1329,1345,1361,1377,1377,1401,1401,1420,1426,1434,1434,1451,1457,1473,1473,1489,1489,1513,1513,1521,1537,1553,1553,1561,1569,1585,1609,1625,1625,1657,1657,1677,1690,1699,1722,1722,1974,2025,2025,2025,2025,2025,2082,2082,2162,2186,2186" d="m328,108.53333c-1.75717,-0.9955 -2.65274,-0.98914 -3.51599,-1c-0.84824,-0.01067 -1.65002,-0.62481 -2.17151,-1c-0.49011,-0.35262 -1.8107,-0.67939 -2.40451,-0.757c-0.66229,-0.08656 -1.38132,-0.14488 -2.90799,-0.20133c-0.77173,-0.02853 -1.52597,-0.03506 -2.24399,-0.03899c-1.25598,-0.00687 -2.18933,-0.00267 -3.08936,-0.00267c-0.98798,0 -1.66666,0 -2.78131,0c-0.88535,0 -1.68533,0 -2.55734,0c-0.87067,0 -1.828,0 -2.56,0c-0.95367,0 -1.96936,-0.00776 -2.65335,0c-0.94019,0.01067 -1.98441,0.29845 -2.47867,0.85067c-0.69,0.77087 -1.33112,1.20683 -2.04666,1.57466c-0.90463,0.46505 -1.5975,0.44685 -2.56766,0.57484c-0.91913,0.12126 -1.45618,0.85662 -2.01767,1.4465c-0.60596,0.63659 -1.04617,1.23177 -1.76401,1.692c-0.88324,0.56628 -1.63275,0.88826 -2.26532,1.436c-0.64874,0.56175 -1.45673,1.03375 -1.88934,1.712c-0.47546,0.7454 0.13321,1.89709 -0.52817,2.4705c-0.59378,0.51479 -1.9386,0.49247 -2.3905,1.24284c-0.39072,0.64879 -1.29285,1.04933 -1.73065,1.64667c-0.53726,0.73302 -0.41998,1.79151 -1.004,2.468c-0.49045,0.56808 -1.28683,1.21022 -1.85733,1.86c-0.52292,0.59562 -0.37711,1.5472 -0.63184,2.3155c-0.25775,0.77743 -0.93723,1.33694 -1.36816,2.10983c-0.45724,0.82007 -0.40439,1.79369 -0.61633,2.57916c-0.22803,0.84503 -1.42935,0.72118 -1.91669,1.54167c-0.44431,0.74808 -0.76736,1.35893 -1.03098,2.12582c-0.27179,0.7907 -0.15671,1.58202 -0.65802,2.4015c-0.43369,0.70895 -0.65619,1.34639 -1.186,2.1185c-0.41797,0.60912 -0.09561,1.66118 -0.16666,2.66667c-0.05731,0.81105 -1.08072,0.73625 -1.75699,1.38817c-0.58716,0.56601 -0.30426,1.67265 -0.59567,2.43117c-0.33591,0.87436 -0.62418,1.6989 -1.14734,2.34732c-0.49136,0.60902 -0.45804,1.54024 -0.784,2.48401c-0.24463,0.70828 -0.58035,1.63696 -0.716,2.51599c-0.12476,0.80843 -0.94281,1.31619 -1.43201,1.88535c-0.58105,0.67601 -0.56665,1.63066 -0.56799,2.59383c-0.00128,0.92084 0,1.82533 0,2.6875c0,0.83333 0,1.81183 0,2.632c0,0.90134 0,1.83733 0,2.68533c0,0.86333 0,1.75883 0,2.716c0,0.90016 -0.08917,1.6916 0.02133,2.62534c0.08304,0.70172 0.90866,1.44907 1.41068,1.97333c0.6709,0.70062 0.56799,1.72217 0.56799,2.68533c0,0.69066 -0.14185,1.8474 0.35266,2.46333c0.48996,0.61029 0.63354,1.46344 0.64749,2.37399c0.01041,0.67889 0.26703,1.63185 0.64719,2.37418c0.43176,0.84306 1.20389,1.34746 1.34818,2.06616c0.17538,0.87358 -0.18182,1.783 0.06699,2.78c0.25507,1.02213 0.78699,1.51204 1.2135,2.13434c0.44537,0.6498 0.97449,1.21822 1.55701,2.4525c0.30399,0.64406 0.77765,1.4715 1.46249,2.17599l0.41916,0.58084" id="svg_1" stroke-width="2" stroke="#000" fill="none"/>
  <path t="2972,3282,3282,3297,3297,3297,3297,3313,3313,3337,3337,3354,3364,3364,3378,3401,3417,3445,3458,3458,3473,3490,3513,3513,3524,3529,3529,3553,3570,3593,3593,3609,3633,3633,3649,3665,3665,3673,3690,3697,3707,3724,3724,3729,3730,3745,3761,3769,3769,3777,3777,3785,3801,3817,3825,3825,3841,3842,3849,3849,3857,3874,3874,3881,3881,3898,3898,3908,3913,3924,3929,3941,3945,3945,3958,3958,3969,3977,3985,4001,4001,4001,4009,4009,4017,4025,4025,4033,4033,4042,4049,4060,4066,4075,4076,4092,4092,4097,4097,4108,4125,4142,4142,4145,4145,4153,4161,4161,4169,4177,4177,4185,4193,4209,4209,4217,4217,4217,4225,4225,4225,4233,4242,4242,4259,4259,4259,4265,4265,4275,4275,4276,4281,4281,4292,4297,4297,4309,4309,4309,4313,4313,4325,4325,4326,4329,4329,4337,4337,4337,4345,4345,4345,4345,4354,4361,4361,4361,4369,4369,4370,4377,4377,4385,4385,4386,4393,4401,4401,4409,4417,4417,4425,4426,4433,4433,4449,4449,4459,4459,4465,4476,4476,4481,4481,4493,4493,4497,4497,4509,4509,4509,4513,4513,4521,4521,4529,4529,4529,4538,4538,4547,4547,4554,4554,4561,4561,4561,4562,4573,4579,4580,4585,4585,4594,4601,4601,4609,4610,4617,4617,4626,4633,4643,4643,4649,4665,4665,4677,4677,4681,4681,4681,4693,4693,4697,4710,4710,4715,4715,4729,4729,4737,4737,4745,4745,4755,4756,4762,4762,4770,4770,4781,4781,4785,4785,4794,4794,4970,4970,4970,4970,4978,4979,4979,4979,4979,4979,4979,4979,4979,4987,4987,4987,4987,4987,4988,4988,4988,4988,4995,4996,4996,4996,4996,4996,4996,4996,4996,5011,5011,5017,5017,5027,5028,5044,5044,5049,5061,5065,5078,5078,5078,5081,5097,5105,5113,5113,5129,5129,5145,5162,5162,5169,5178,5185,5209,5217,5228,5228,5245,5249,5262,5278,5281,5297,5321,5377,5377,5385,5401,5412,5412,5417,5449,5465,5514,5553,5553,5563,5564,5585,5617,5617,5630,5657,5665,5689,5689,5697,5705,5722,5745,5745,5763,6058,6089,6153,6153,6185,6201,6265,6361,6362,6504,6504,6545,6546,6546,6546,6722,6738,6738,6760,6785,6786,6786,6794,6817,6842,6861,6879,6879,6882,6882,6937,6959,7065,7065,7090,7090,7122,7161,7161,7178,7195,7225,7249,7277,7278,7295,7296,7314,7332,7353,7353,7361,7378,7401,7428,7447,7448,7451,7451,7458,7475,7498,7506,7506,7522,7522,7538,7568,7570,7570,7578,7585,7585,7778,7778,7778,7796,7796,7796,7796,7797,7797,7797,7797,7797,7820,7820,7820,7820,7821,7821,7821,7821,7821,7839,7841,7898,7898,7919,7920,7920,7920,7920,7940,7940,7940,7959,7960,7961,8012,8013,8028,8028,8028,8049,8049,8081,8081,8090,8090,8103,8113,8137,8137,8161,8169,8170,8201,8201,8225,8241,8241,8273,8305,8321,8330,8369,8401,8441,8441" d="m274,169.53333c1.92801,1.86801 1.99548,2.57597 2,3.5c0.00366,0.75066 0,1.56534 0,2.388c0,1.44534 0,2.18333 0,3.112c0,0.8 -0.04361,1.75845 0.00449,2.64818c0.04245,0.78552 0.84976,1.39453 0.99417,2.15317c0.16806,0.88281 0.00134,1.83466 0.00134,2.68266c0,0.86333 0,1.88 0,2.716c0,0.90016 0,1.68533 0,2.62534c0,1.008 0,1.76399 0,2.67465c0,0.91068 0,1.82133 0,2.67467c0,0.94 0,1.82533 0,2.62534c0,0.95717 0,1.85268 0,2.716c0,0.96317 0.19388,1.80545 -0.00134,2.68266c-0.18054,0.81123 -0.80133,1.40817 -1.10849,2.15317c-0.33917,0.82268 -1.44205,1.17873 -1.81818,2.04817c-0.36041,0.8331 -0.23523,1.76802 -0.49731,2.42534c-0.40277,1.0101 -0.73276,1.68651 -1.29068,2.25867c-0.65747,0.67424 -1.21924,1.2009 -1.284,2.08266c-0.0611,0.83212 -0.40836,1.85464 -1.02084,2.3125c-0.77298,0.57785 -1.56192,0.95734 -1.92648,1.82533c-0.34448,0.82022 -0.30966,1.66077 -1.05267,2.36217c-0.60132,0.56764 -1.36191,1.07118 -2.14932,1.35867c-0.83124,0.30348 -1.27673,1.05223 -1.87601,1.54933c-0.61496,0.51012 -1.61273,0.36853 -2.45734,0.42799c-0.81317,0.05725 -1.38495,0.87842 -1.60001,1.51466c-0.33237,0.98337 -1.22162,1.37837 -2.11865,1.48401c-0.97269,0.11453 -1.617,0.47563 -2.40001,0.71466c-0.97206,0.29675 -1.98216,0.24271 -2.41333,0.93066c-0.46689,0.74493 -0.64893,1.80933 -1.46933,2.18268c-0.64316,0.29269 -1.83119,0.04971 -2.46333,0.52333c-0.67973,0.50928 -1.4834,0.58488 -2.37401,0.86867c-0.69902,0.22273 -1.65105,0.71159 -2.43134,0.77417c-0.89267,0.07159 -1.57596,0.23383 -2.41533,0.72049c-0.78351,0.45427 -1.67514,0.60725 -2.20667,1.13467c-0.80721,0.80096 -1.54549,0.85332 -2.38268,1.37067c-0.71494,0.44179 -1.43245,0.68835 -2.35733,0.78c-0.89624,0.08881 -1.55832,0.44739 -2.3645,0.99866c-0.69672,0.47641 -1.38583,0.85699 -2.28082,1.06134c-0.92285,0.21071 -1.53467,0.8535 -2.04533,1.23334c-0.88358,0.65721 -1.69411,0.67615 -2.42667,0.70267c-1.22575,0.04439 -1.94623,0.32613 -2.58234,0.70717c-0.92297,0.55289 -1.70998,0.78641 -2.50301,1.09549c-1.00052,0.38994 -1.72423,0.62112 -2.51599,1.36667c-0.61473,0.57884 -0.9881,1.39032 -1.81934,1.7235c-0.66127,0.26506 -1.70372,0.55455 -2.34734,1.10983c-0.66426,0.5731 -1.54129,0.89107 -2.26134,0.97467c-0.78903,0.09161 -1.86839,0.13087 -2.69699,0.567c-0.95152,0.50084 -1.19302,1.19537 -1.79434,1.7485c-0.80161,0.73737 -1.71657,0.72031 -2.66882,0.93134c-0.82231,0.18224 -1.39011,0.38635 -2.57851,0.77849c-0.59781,0.19725 -1.45073,0.50565 -2.22934,0.71468c-1.11046,0.29811 -2.11639,0.41415 -2.776,0.6515c-0.76076,0.27374 -1.71521,0.92856 -2.18033,1.63467c-0.4476,0.67953 -0.70967,1.70752 -1.48633,1.96716c-0.82631,0.27625 -1.8374,-0.01627 -2.56,0.11731c-0.97514,0.18024 -1.71674,0.97467 -2.26801,1.39386c-0.73656,0.56009 -1.22173,1.18982 -1.66701,1.81549c-0.50494,0.7095 -1.61961,0.60614 -2.49966,0.87201c-0.8302,0.25079 -1.50308,1.07086 -2.0905,1.53333c-0.69255,0.54526 -1.44232,0.80145 -2.48566,1.25183c-0.77843,0.33603 -1.20662,1.10236 -1.75717,1.8815c-0.47879,0.67758 -1.16492,1.16959 -1.82533,1.56665c-1.00534,0.60446 -1.62639,0.96609 -2.17467,1.93335c-0.36089,0.63666 -0.40364,1.51764 -1.10017,2.30249c-0.53427,0.60202 -1.42171,0.89685 -2.07449,1.58551c-0.70161,0.74017 -1.08377,1.3699 -1.41467,1.97867c-0.53613,0.9863 -0.95712,1.7543 -1.24399,2.63333c-0.25282,0.77472 -0.38728,1.69296 -0.84933,2.37732c-0.5724,0.84781 -1.31819,1.38483 -1.79651,1.76852c-0.66753,0.53546 -1.39293,1.40631 -1.74216,2.34216c-0.2565,0.68735 -0.48685,1.55392 -0.83134,2.37415c-0.36458,0.86801 -1.31024,1.34561 -1.9265,1.82535c-0.74432,0.57944 -0.9514,1.30432 -1.02083,2.3125c-0.05936,0.862 -0.6653,1.59235 -0.91467,2.36801c-0.29662,0.92258 0.1553,1.90912 -0.37067,2.63065c-0.51424,0.70544 -1.30836,1.14877 -1.59315,2.14685c-0.18973,0.66489 -0.05913,1.56857 -0.16318,2.52115c-0.0807,0.73889 -0.70053,1.6456 -1.25299,2.19101c-0.68222,0.67349 -0.62701,1.63727 -0.74133,2.48367c-0.11044,0.81766 -0.69395,1.55469 -0.91133,2.48248c-0.17216,0.73483 -0.35103,1.73776 -0.62733,2.54285c-0.27293,0.79523 -0.30655,1.81122 -0.59201,2.63333c-0.29222,0.84161 -0.78136,1.64935 -0.82266,2.37732c-0.05605,0.98764 -0.01067,1.76852 -0.01067,2.76801c0,0.77402 0,1.6785 0,2.62268c0,0.99417 -0.02286,1.74194 0.009,2.74048c0.01903,0.59625 0.10397,1.61145 0.16167,2.33417c0.15894,1.991 0.27101,3.29361 0.39867,4.77335c0.13924,1.61395 0.28975,3.31888 0.45149,5.0715c0.16225,1.75806 0.32339,3.47845 0.49651,5.11649c0.30269,2.86411 0.45023,4.01248 0.59866,4.96802c0.12221,0.78662 0.24139,1.422 0.384,1.9155c0.11192,0.3873 0.22668,0.689 0.384,0.88049c0.24611,0.29956 0.43462,0.36179 0.59866,0.43066c0.16318,0.06851 0.33223,0.11661 0.49651,0.168c0.15973,0.04996 0.32114,0.0863 0.45149,0.168c0.3616,0.22662 0.55867,1.05316 0.56934,2.03183c0.0085,0.7793 -0.09351,1.7915 0.05716,2.55286c0.1839,0.92923 0.7648,1.73932 0.90685,2.61133c0.1506,0.9245 -0.06696,1.86111 0.20267,2.80267c0.19591,0.68411 0.64304,1.3436 1.22266,2.19733c0.49638,0.73114 0.27652,1.86929 0.944,2.46933c0.51503,0.46298 1.57039,0.72424 1.65767,1.51849c0.09734,0.88577 0.36923,1.80005 0.72501,2.44818c0.43674,0.79559 0.98024,1.37634 1.284,2.19998c0.3313,0.89835 0.88077,1.58746 1.56799,1.91602c0.7941,0.37967 1.05186,0.89398 1.48917,1.72684c0.39206,0.7467 0.72176,1.46979 1.22684,2.18784c0.48521,0.68982 0.716,1.46933 0.716,2.37067c0,0.68399 -0.45038,1.86218 0.22166,2.55566c0.67905,0.70071 2.00865,-0.1304 2.60767,0.52832c0.55991,0.61572 0.64806,1.42999 1.118,2.07632c0.58691,0.80722 0.59601,1.62228 0.886,2.47168c0.29564,0.86594 0.85155,1.62628 1.60951,2.04517c0.65706,0.3631 1.79091,-0.10315 2.47316,0.40549c0.69492,0.5181 0.76041,1.36786 1.168,2.14801c0.42003,0.80396 1.07283,1.32465 1.93683,1.56799c0.94611,0.26648 1.76614,0.49069 2.45834,1c0.69659,0.51254 1.28249,0.99774 2.17349,1c0.86334,0.00217 1.76877,-0.06128 2.37267,-0.57465c0.65385,-0.55582 1.14827,-1.23956 1.86134,-1.50934c0.94856,-0.35886 1.55493,-0.73206 2.09166,-1.68002c0.31947,-0.56424 0.59369,-1.55551 0.735,-2.18399c0.26477,-1.17761 0.36699,-2.22498 0.276,-2.86667c-0.14781,-1.04239 -1.15918,-1.34406 -1.81467,-1.61066c-0.69414,-0.28232 -1.62305,-0.70135 -2.22734,-1.22202c-0.6566,-0.5657 -1.43106,-0.94382 -2.26849,-1.23148c-0.79221,-0.27213 -1.36937,-0.91183 -1.76151,-1.55319c-0.43616,-0.71338 -1.34201,-0.83011 -2.084,-1.40131c-0.60411,-0.46506 -1.58626,-0.37616 -2.26399,-0.96802c-0.68144,-0.59509 -0.87053,-1.67566 -1.144,-2.37332c-0.36449,-0.9299 -0.97221,-1.49554 -1.36818,-2.1825c-0.47409,-0.82251 -0.22041,-1.81085 -0.4825,-2.46817c-0.40276,-1.0101 -0.59378,-1.81903 -1.42532,-2.14935c-0.873,-0.34677 -1.14552,-1.02533 -1.14934,-1.7825c-0.00534,-1.05753 -0.42764,-1.6825 -0.87849,-2.46432c-0.44302,-0.76828 -0.12151,-1.7785 -0.12151,-2.53568c0,-0.89548 0,-1.75882 0,-2.72198c0,-0.92084 0,-1.82535 0,-2.6875c0,-0.83334 0,-1.81183 0,-2.63199c0,-0.90134 -0.04195,-1.74155 0.284,-2.68533c0.24461,-0.70828 0.67329,-1.62759 0.716,-2.51602c0.03842,-0.79907 0.02075,-1.55103 0.17149,-2.50034c0.07864,-0.4953 0.32706,-1.83325 0.49268,-2.69867c0.18753,-0.97995 0.397,-2.04761 0.6225,-3.177c0.23279,-1.16592 0.4715,-2.34167 0.71249,-3.50098c0.23242,-1.11804 0.66431,-3.12375 0.85767,-3.96466c0.1684,-0.73233 0.32208,-1.36392 0.46051,-1.90503c0.11823,-0.46213 0.22491,-0.85345 0.3165,-1.185c0.07782,-0.28174 0.01128,-1.25067 0.58749,-1.94699c0.51711,-0.62488 0.97253,-1.07416 1.664,-2.10684c0.24034,-0.35895 0.82153,-1.1225 1.41333,-1.94916c0.29343,-0.40988 1.07579,-1.54605 1.36134,-2.20801c0.32568,-0.75497 0.59824,-1.81512 0.98734,-2.55283c0.4138,-0.78452 0.95749,-1.46393 1.53799,-1.9765c0.69405,-0.61282 1.09619,-1.3165 1.368,-2.07733c0.38832,-1.08701 0.754,-1.72079 1.32533,-2.47232c0.4212,-0.55405 0.57645,-1.59189 0.83734,-2.29434c0.34482,-0.92844 1.14104,-1.08786 1.95067,-1.65067c0.62311,-0.43314 0.90175,-1.32181 1.43317,-2.15466c0.41821,-0.65543 0.66689,-1.69403 0.95284,-2.37418c0.35799,-0.85153 1.29776,-1.06812 2.086,-1.32983c0.84885,-0.28186 1.53252,-0.99411 1.836,-1.82532c0.28751,-0.78745 0.90399,-1.37067 1.312,-2.06403l0.88,-0.08533l0.8125,-0.02081" id="svg_2" stroke-width="2" stroke="#000" fill="none"/>
  <path t="9318,9410,9410,9429,9429,9435,9435,9450,9466,9467,9467,9479,9479,9498,9508,9529,9540,9540,9546,9556,9572,9572,9581,9581,9590,9596,9602,9609,9618,9618,9618,9634,9649,9665,9665,9665,9689,9689,9698,9707,9707,9723,9745,9757,9757,9762,9762,9786,9794,9809,9809,9818,9818,9825,9833,9854,9854,9861,9861,9865,9865,9884,9884,9905" d="m188,284.53333c0.44667,1.82535 0.82671,2.58496 1.65266,3.24283c0.4901,0.39035 1.58913,0.85175 2.06067,1.55719c0.44617,0.66751 0.72337,1.74612 1.13733,2.45065c0.29445,0.50116 0.69708,1.74112 1.2,2.29199c0.61299,0.67148 1.49135,0.74179 2.17084,1.33618c0.6785,0.59354 1.14265,1.25232 1.87834,1.87833c0.6398,0.5444 1.23854,1.05499 2.08549,1.26816c0.93549,0.23544 1.58202,0.81055 2.41467,0.96402c0.86516,0.15945 1.49709,0.6879 2.26132,0.996c0.95752,0.38605 1.41307,0.94464 1.93733,1.44666c0.70064,0.6709 1.75218,0.54755 2.744,0.78934c0.71585,0.1745 1.44699,0.44608 2.48666,0.69467c0.76462,0.18283 1.56822,0.7775 2.45467,0.99866c0.67404,0.16818 1.76242,0.00711 2.61601,0.08551c0.91144,0.08371 1.49599,0.69968 2.38399,0.91449c0.8428,0.20389 1.88,0.08539 2.716,0.08533c0.90018,-0.00009 1.69437,-0.06134 2.62534,-0.42532c0.69791,-0.27286 1.66838,-0.41928 2.57466,-0.58533c0.83406,-0.1528 1.39592,-0.71362 2.36667,-0.90533c0.93491,-0.18463 1.869,-0.30566 2.31467,-0.97067l0.27583,-0.76151l0.44417,-0.7825l0.76266,-0.58398" id="svg_3" stroke-width="2" stroke="#000" fill="none"/>
  <path t="10867,11002,11018,11032,11032,11034,11034,11049,11061,11078,11082,11098,11098,11113,11137,11153,11153,11178,11210,11210,11251,11282,11282,11282,11306,11314,11314,11314,11353,11361,11377,11394,11402,11402,11458,11458,11489,11506,11513,11513,11537,11553,11585,11609,11609,11617,11649,11650,11673,11690,11699,11700,11723,11755,11827,11827,11874,11875" d="m191,282.53333c1.8,0 2.65773,-0.02859 3.48399,0.28534c0.71368,0.27115 1.57312,1.00098 2.2115,1.35751c0.84566,0.47229 1.70572,0.47369 2.36584,0.93182c0.73093,0.50726 1.92566,0.05298 2.577,0.53967c0.64847,0.48456 0.63097,1.56259 1.36166,2.05234c0.69623,0.46664 0.93695,1.46994 1.70984,1.78064c0.75987,0.30548 1.72058,0.44574 2.29016,1.21936c0.45688,0.62054 0.70007,1.43112 1.41066,2.19733c0.6718,0.72437 1.38698,1.09219 2.10535,1.35065c1.04251,0.37509 1.90964,0.36462 2.50932,0.86002c0.57591,0.47574 1.66617,0.2876 2.32201,0.53967c1.00151,0.38492 1.18228,1.43967 2.05266,1.81366c0.83366,0.35822 1.76668,0.0719 2.60001,0.07199c0.97833,0.00009 1.54491,0.45041 2.28534,0.91467c0.77942,0.48871 1.59999,0.08533 2.53999,0.08533c1.008,0 1.87016,0 2.77467,0c0.81065,0 1.72133,0 2.57466,0c0.94,0 1.92534,0 2.82533,0l0.75717,0l0.89549,0l0.86334,0" id="svg_4" stroke-width="2" stroke="#000" fill="none"/>
  <path t="13101,13170,13194,13195,13218,13219,13242,13250,13273,13274,13283,13299,13299,13306,13322,13322,13333,13338,13361,13361,13378,13378,13394,13401,13410,13417,13418,13426,13426,13433,13442,13450,13461,13461,13466,13467,13475,13490,13497,13498,13513,13513,13522,13522,13522,13530,13530,13538,13554,13554,13554,13562,13732,13732,13732,13732,13748,13748,13748,13748,13748,13748,13748,13748,13748,13761,13762,13762,13762,13762,13762,13762,13762,13762,13777,13777,13785,13793,13793,13809,13809,13817,13834,13851,13851,13886,13886,13893,13893,13893,13912,13912,13912,13914,13914,13914,13931,13931,13948,13948,13985,13985,14010,14033,14061,14079,14079,14097,14097,14127,14127,14130,14130,14146,14163,14180,14180,14198,14214,14214,14231,14233,14233,14250,14250,14266,14267,14289,14289,14311,14311,14328,14330,14347,14347,14366,14369,14401,14428,14428,14447,14465,14465,14495,14495,14513,14513,14514,14545,14562,14585,14593,14593,14594,14651,14651,14670,14670,14670,14691,14691,14691,14691,14709,14754,14754,14762,14762,14762,14777,14777,14809,14841,14921,14962,14962,14977,14993,15009,15009,15033,15033,15054,15065,15146,15171,15172,15178,15178,15193,15328,15328,15690,15690,15690,15722,15730,15731,15745,15756,15773,15789,15793,15809,15809,15817,15833,15833,15852,15852,15865,15865,15873,15897,15906,15913,15923,15923,15929,15945,15945,15956,15973,15977,15989,15989,15993,15993,16001,16017,16025,16033,16049,16057,16057,16073,16089,16090,16106,16107,16114,16123,16140,16156,16157,16161,16161,16177,16193,16217,16217,16225,16225,16241,16257,16273,16274,16281,16297,16307,16307,16313,16313,16329,16345,16357,16361,16361,16385,16385,16417,16441,16457,16457,16465,16489,16489,16507,16513,16546,16546,16569,16569,16585,16595,16603,16610,16626,16626,16641,16652,16673,16673,16682,16682,16872,16873,16873,16874,16874,16874,16874,16874,16874,16874,16875,16916,16916,16916,16916,16917,16935,16936,16936,16937,16945,16945,16953,16969,16977,16977,17001,17033,17073,17073,17109,17110,17123,17149,17169,17218,17241,17242,17249,17265,17297,17297,17315,17331,17337,17338,17361,17361,17385,17385,17401,17401,17473,17498,17514,17537,17537,17545,17585" d="m207,290.53333c1.22166,-0.87848 2.16667,-1 2.82533,-1c1.008,0 1.87022,0.01022 2.77467,0c0.92101,-0.01041 1.71593,-0.23465 2.57466,-0.57465c0.799,-0.31635 1.85194,-0.28296 2.52533,-0.48251c0.89423,-0.26501 1.61629,-0.87173 2.47467,-0.93216c0.93774,-0.06601 1.92534,-0.01068 2.82533,-0.01068c0.75717,0 1.65266,0 2.51601,0c0.96317,0 1.88399,0 2.68533,0c0.96533,0 1.98398,0.21997 2.55583,-0.44266c0.58823,-0.68158 0.76291,-1.5365 1.64282,-1.55734c0.90425,-0.02142 1.76668,0 2.60001,0c0.9785,0 1.79866,0 2.7,0c0.936,0 1.78534,0 2.7045,0c0.99684,0 1.61633,0 2.76218,0c0.78149,0 1.57199,0 2.69032,0c0.72166,0 1.68468,0 2.68567,0c0.70801,0 1.45573,0.08652 2.48666,-0.00131c0.98109,-0.08359 1.54451,-0.47073 2.18268,-0.64536c1.02823,-0.28134 2.62047,-0.52579 3.65067,-0.6745c1.16443,-0.16806 2.43228,-0.32999 3.76801,-0.4935c1.36896,-0.16757 2.73846,-0.32571 4.07401,-0.47549c1.26712,-0.14212 3.46185,-0.37775 4.3298,-0.46683c0.71475,-0.07336 1.29352,-0.13031 1.75351,-0.17099c0.35773,-0.03162 0.63055,-0.05264 0.83551,-0.06302c0.15378,-0.00778 0.3765,-0.00897 0.57651,-0.009c0.89981,-0.00018 1.48743,-0.38901 1.86133,-1.14932c0.37457,-0.76169 1.29047,-0.84616 2.30267,-0.85068c0.836,-0.00372 1.73615,0 2.52133,0c0.96133,0 1.80139,0.01099 2.79999,-0.00131c0.83566,-0.01031 1.42764,-0.00284 2.6145,-0.22c0.89767,-0.16425 1.45279,-0.40594 2.53351,-0.612c0.92316,-0.17603 1.76593,-0.13535 2.76666,-0.17117c0.80121,-0.02869 1.79782,-0.2818 2.564,-0.57016c0.81375,-0.30627 1.59177,-0.35474 2.48416,-0.42984c1.02768,-0.08652 1.6286,-0.67969 2.35184,-1.32883c0.49298,-0.44247 0.90933,-1.58673 1.41068,-2.02002c0.79532,-0.68738 1.591,-0.58572 2.56781,-0.64682c0.823,-0.05148 1.55945,-0.74683 2.43219,-0.96384c0.88428,-0.21988 1.7594,-0.01242 2.53867,-0.46133c0.79709,-0.45917 1.53006,-0.09851 2.509,-0.61633c0.73105,-0.38672 0.61908,-1.55197 1.41367,-1.897c0.68307,-0.2966 1.75034,-0.36575 2.47083,-0.76584c0.94461,-0.52457 1.52805,-1.06351 2.48251,-1.27017c0.68341,-0.14798 1.70145,-0.44833 2.47015,-0.97714c0.62799,-0.43201 0.73062,-1.36285 1.27917,-2.06284c0.51114,-0.65225 1.32623,-0.81699 2.25867,-1.15201c0.80844,-0.2905 1.63007,-0.67847 2.36798,-1.12c0.62741,-0.37543 1.28268,-1.19733 1.79868,-1.71335c0.83331,-0.83334 1.32504,-1.41269 2.09982,-1.87866c0.78043,-0.46936 0.60712,-1.39499 1.18683,-2.03867c0.6514,-0.7233 1.57208,-0.90485 2.00351,-1.43451c0.68393,-0.83966 0.93179,-1.56516 1.56451,-2.13483c0.65634,-0.59093 1.24854,-0.92738 2.22366,-1.93433c0.48438,-0.50017 0.82565,-1.08507 1.435,-1.72433c0.78583,-0.82442 1.66531,-1.17741 2.30099,-1.55917c0.92084,-0.55301 1.73572,-0.70915 2.33234,-1.18083c0.80496,-0.6364 0.77686,-1.80168 1.55783,-2.10567c0.83456,-0.32484 1.81635,-0.009 2.77951,-0.009c0.69064,0 1.75882,0 2.616,0c0.89999,0 1.78534,0 2.72534,0c0.69064,0 1.65381,0 2.57465,0c0.90451,0 1.92133,0 2.60001,0c0.97849,0 1.99414,-0.42009 2.71466,0.17067c0.58435,0.47911 0.46478,1.49446 1.13733,2.22801c0.58792,0.64127 1.57181,0.93971 2.04001,1.976c0.3291,0.72842 -0.0867,1.71524 0.46066,2.51549c0.46722,0.68304 1.08023,1.36105 1.48068,2.10983c0.42328,0.79144 1.07147,1.32332 1.15598,2.18533c0.09067,0.92502 0.33923,1.82095 0.86136,2.21466c0.80869,0.6098 1.10123,1.35864 1.15381,2.24817c0.04642,0.78531 0.83194,1.49164 0.97467,2.37268c0.15317,0.9454 0.39804,1.61505 0.85419,2.3125c0.45883,0.70157 0.61209,1.61154 1.48782,1.66684c0.81665,0.05157 1.64215,0.43359 1.67883,1.29984c0.03812,0.90054 0.10617,1.89526 0.436,2.51465c0.48029,0.90186 1.41754,1.22766 1.56265,1.98666c0.16876,0.88269 0.24243,1.67108 0.71735,2.36801c0.50189,0.73648 0.24725,1.81 0.284,2.62933c0.03604,0.80374 0.78836,1.41455 1.29468,1.9585c0.73105,0.78537 0.70081,1.59015 0.70532,2.60684c0.00415,0.936 0,1.83734 0,2.80267c0,0.65866 -0.18552,1.69955 0.05716,2.52881c0.25793,0.88138 0.90015,1.50305 0.94284,2.47119c0.03671,0.83249 0,1.81183 0,2.63199c0,0.80133 0,1.72217 0,2.68533c0,0.69067 0,1.75882 0,2.616c0,0.89999 0,1.78534 0,2.72534c0,0.69067 0,1.76401 0,2.57465c0,0.90451 0,1.92136 0,2.60001c0,0.97852 0.01733,1.79883 0,2.70001c-0.01801,0.93652 -0.30402,1.77591 -0.57468,2.47467c-0.40765,1.05237 -0.86227,1.75531 -1.61066,1.81467c-1.05423,0.08359 -1.96356,-0.1593 -2.81467,0.17734c-0.70264,0.27792 -1.48129,0.78619 -2.34732,0.82883c-0.89444,0.04404 -1.86523,-0.14505 -2.7525,0.00467c-0.8533,0.14401 -1.33713,0.92981 -2.08551,0.98917c-1.05423,0.08359 -1.91467,0.01065 -2.81467,0.01065c-0.75717,0 -1.82538,0.00763 -2.51599,0c-0.96552,-0.01068 -1.80878,-0.11127 -2.22134,-0.17065c-1.7991,-0.25894 -2.58566,-0.39673 -3.4375,-0.53918c-0.89349,-0.14944 -1.80496,-0.30743 -2.71051,-0.47549c-0.87878,-0.16309 -1.71219,-0.30276 -3.11465,-0.64798c-0.54523,-0.13422 -1.04181,-0.1713 -1.58932,-0.552c-0.66736,-0.46402 -1.117,-1.61942 -1.41068,-2.11469c-0.4335,-0.73111 -0.78928,-1.90063 -1.2215,-2.59982c-0.4444,-0.71884 -1.56378,-0.96405 -1.74249,-1.76151c-0.21271,-0.9491 -0.08084,-1.84106 -0.53601,-2.63867c-0.40384,-0.70761 -0.5,-1.66666 -0.5,-2.5c0,-0.97849 -0.47284,-1.85556 0.05716,-2.64282c0.46066,-0.68427 1.64285,-0.35718 2.46368,-0.35718c0.96317,0 1.82648,0 2.72198,0c0.95718,0 1.85733,-0.00452 2.64252,0c0.92938,0.00534 1.62589,0.37177 2.448,0.83334c0.61682,0.34631 1.61072,0.45804 2.41931,0.814c0.8696,0.38281 1.70425,0.32391 2.49017,1.05801c0.54306,0.50726 1.19855,1.01941 2.05267,1.29916c0.76791,0.2515 1.41434,0.93832 2.05634,0.991l1.10651,0.02533l0.56699,0.55383" id="svg_5" stroke-width="2" stroke="#000" fill="none"/>
  <path t="18182,18322,18322,18338,18338,18354,18378,18378,18414,18414,18430,18449,18473,18481,18481,18489,18489,18505,18521,18529,18529,18537,18537,18546,18563,18582,18585,18601,18617,18617,18641,18657,18665,18689,18689,18697,18705,18705,18729,18737,18746,18769,18769,18780,18785,18801,18813,18825,18849,18849,18866,18866,18890,18902,18961,18986,18986,19025,19025" d="m353,298.53333c0.83334,-1.33331 0.85956,-2.02997 1.00266,-3.11465c0.0921,-0.69827 1.03445,-1.09192 1.664,-1.88535c0.51199,-0.64526 0.33334,-1.65265 0.33334,-2.34732c0,-1.01666 0,-1.95267 0,-2.854c0,-0.96533 0,-1.79868 0,-2.63199c0,-0.86218 0.00128,-1.76669 0,-2.6875c-0.00134,-0.96185 0.02304,-1.94653 -0.70532,-2.36935c-0.65015,-0.37741 -1.27463,-0.91138 -1.29468,-1.80981c-0.01929,-0.86456 -0.78769,-1.36514 -0.96399,-2.16135c-0.21027,-0.94965 -0.08954,-1.83618 -0.53601,-2.63867c-0.44373,-0.79752 -1.11783,-1.36761 -1.41467,-2.06934c-0.30649,-0.72452 0.02487,-1.98355 -0.79065,-2.37799c-0.66565,-0.32196 -0.8942,-0.87369 -1.35184,-1.6955c-0.38837,-0.69736 -1.31445,-1.03186 -1.6575,-1.87451c-0.37076,-0.91071 -1.0282,-1.42917 -1.28085,-2.18716c-0.27286,-0.8186 -1.03656,-1.00897 -1.67114,-1.62881c-0.54025,-0.52768 -0.40244,-1.7901 -1.03784,-2.30502c-0.73233,-0.59348 -1.18021,-1.19562 -1.74216,-1.75098c-0.71283,-0.70447 -1.69202,-0.67203 -2.384,-1.17868l-0.2175,-0.72665" id="svg_6" stroke-width="2" stroke="#000" fill="none"/>
  <path t="20612,20766,20788,20789,20806,20806,20806,20824,20824,20824,20826,20826,20857,20898,20898,20921,20947,20947,20969,21001,21001,21009,21081,21384,21386,21409,21409,21430,21463,21463,21489,21489,21489,21553,21553,21561,21561,21590,21615,21640,21673,21673,21681,21697,21715,21715,21735,21753,21771,21825,21886,21887,21906,21906,21924,21953,22006,22008,22009" d="m358,298.53333c-1.75717,0 -2.66165,0 -3.46167,0c-0.95984,0 -1.77432,0 -2.64282,0c-0.89551,0 -1.7901,0.04776 -2.6235,-0.03598c-1.13837,-0.11441 -1.7901,-0.71091 -2.68268,-0.92801c-0.88553,-0.21539 -1.58932,-0.03601 -2.70398,-0.03601c-0.88535,0 -1.68533,0 -2.52133,0c-1.01669,0 -1.71133,0 -2.72803,0c-0.93597,0 -1.8317,-0.00238 -1.73865,0.01068c0.9397,0.13199 1.62549,0.61749 2.08798,1.38931c0.42996,0.71753 1.08688,1.0777 2.01468,1.76669c0.6171,0.45825 1.1503,1.02213 1.97867,1.81165c0.513,0.48892 1.3739,0.77893 2.16,1.047c0.84216,0.28717 0.80835,1.42123 1.38217,1.99551c0.6163,0.61682 1.01056,1.17752 1.39514,2.0925c0.3421,0.81393 1.26511,0.75363 2.06317,0.9075c0.94943,0.18304 0.6955,1.4588 1.37802,1.922c0.69901,0.47437 1.79166,-0.09323 2.52817,0.22784c0.8573,0.37375 1.36771,1.29489 2.22931,1.65866c0.83066,0.35071 1.71869,0.33734 2.17334,1.08533l0.68399,0.08401" id="svg_7" stroke-width="2" stroke="#000" fill="none"/>
  <path t="23670,23834,23946,24002,24002,24058,24083,24083,24319,24338,24353,24353,24379" d="m274,172.53333c-0.83334,-2.16666 -1.21524,-2.9391 -2.10016,-3c-0.78333,-0.05391 -1.72519,0 -2.73318,0c-0.75598,0 -1.73065,0.03601 -2.15598,0.64667l-0.01068,0.83734l0,0.86333l0.01068,1.00601" id="svg_8" stroke-width="2" stroke="#000" fill="none"/>
  <path t="27171,27306,27322,27322,27330,27346,27362,27378,27378,27396,27396,27396,27418,27433,27433,27433,27441,27441,27463,27463,27463,27465,27465,27560,27560,27560,27561,27561,27561,27561,27561,27561,27562,27571,27571,27571,27577,27577,27588,27588,27593,27593,27602,27602,27609,27619,27619,27625,27625,27636,27636,27652,27669,27669,27669,27681,27681,27697,27697,27713,27713,27729,27745,27745,27753,27753,27761,27761,27769,27777,27786,27786,27803,27809,27809,27825,27825,27836,27837,27841,27841,27853,27853,27857,27865,27865,27873,27881,27882,27896,27897,27912,27913,27920,27921,27937,27945,27953,27961,27961,27970,27970,28011,28025,28025,28047,28047,28047,28066,28066,28083,28083,28100,28101,28118,28118,28135,28135,28135,28137,28137,28153,28170,28188,28188,28205,28205,28222,28222,28239,28239,28239,28241,28241,28257,28257,28257,28273,28290,28307,28307,28307,28325,28325,28342,28342,28359,28359,28359,28376,28376,28376,28393,28393,28394,28410,28410,28427,28428,28445,28445,28445,28462,28462,28462,28480,28480,28481,28498,28498,28517,28517,28534,28535,28537,28555,28555,28574,28574,28587,28594,28602,28602,28620,28634,28696,28697,28717,28717,28717,28718,28737,28737,28756,28756,28806,28806,28818,28818,28818,28818,28818,28843,28843,29052,29052,29052,29065,29065,29065,29065,29066,29066,29066,29066,29066,29088,29088,29088,29088,29089,29089,29089,29099,29099,29108,29113,29129,29129,29145,29145,29158,29177,29185,29201,29209,29209,29225,29249,29273,29282,29313,29325,29326,29345,29361,29369,29386,29401,29401,29417,29426,29426,29443,29460,29460,29476,29497,29497,29521,29521,29569,29569,29601,29617,29633,29633,29649,29660,29677,29682,29682,29697,29710,29710,29726,29745,29761,29793,29793,29817,29849" d="m293,107.53333c-1.75717,0 -2.65268,0 -3.51599,0c-0.96317,0 -1.884,0 -2.68533,0c-0.96533,0 -1.81952,0 -2.79868,0c-0.78934,0 -1.51468,0 -2.52084,0c-1.02182,0 -1.72983,0.00279 -2.47382,0c-1.20004,-0.0045 -1.9859,-0.14625 -2.77469,-0.568c-0.7644,-0.40872 -1.24176,-0.83054 -2.30899,-1.189c-0.85577,-0.28744 -1.90213,-0.22784 -2.5675,-0.26383c-0.83673,-0.04526 -1.68765,-0.1443 -2.82614,-0.26316c-0.64944,-0.0678 -1.33069,-0.14133 -2.02802,-0.216c-0.69733,-0.07467 -2.02768,-0.2194 -3.16666,-0.33334c-0.85178,-0.08521 -1.90002,-0.13725 -2.65466,-0.388c-0.87646,-0.29124 -1.79126,-0.73473 -2.56268,-0.77733c-0.95056,-0.0525 -1.71732,-0.00134 -2.7115,-0.00134c-0.74733,0 -1.77916,0 -2.726,0c-0.69933,0 -1.6785,0 -2.46783,0c-1.04399,0 -1.90616,0 -2.75233,0c-1.00099,0 -1.709,0 -2.45299,0c-1.19551,0 -1.888,0 -2.84134,0c-0.76534,0 -1.75951,0 -2.67867,0c-0.98534,0 -1.80684,0 -2.696,0c-0.98917,0 -1.76851,0 -2.76784,0c-0.82016,0 -1.7215,0 -2.54233,0c-0.96317,0 -1.82651,0 -2.722,0c-0.95984,0 -1.72784,0 -2.76251,0c-0.74399,0 -1.66133,0 -2.60933,0c-0.87067,0 -1.59599,0 -2.58516,0c-0.77934,0 -1.96747,-0.17649 -2.80017,0.16666c-0.67085,0.27646 -1.41068,0.79707 -2.3215,0.8335c-0.88918,0.03558 -1.88246,0.20959 -2.46783,0.42516c-1.05183,0.38735 -1.83595,0.56934 -2.69466,0.57467c-0.86333,0.00536 -1.75883,-0.00018 -2.716,0c-0.89984,0.00017 -1.48746,0.38904 -1.86134,1.14933c-0.37457,0.76168 -1.29755,0.7398 -2.31332,0.86134c-0.96312,0.11523 -1.62553,0.55758 -2.62534,0.82267c-0.77699,0.20602 -1.62093,0.21731 -2.24283,0.881c-0.56693,0.60503 -0.94202,1.69242 -1.25717,2.26483c-0.47737,0.86702 -0.99982,1.52807 -1.82117,2.12117c-0.64233,0.46384 -1.3983,1.21769 -1.569,1.905c-0.18182,0.73211 -0.33572,1.84945 -0.68449,2.57333c-0.39453,0.81886 -0.42534,1.72583 -0.42534,2.74284c0,0.69933 0,1.6785 0,2.46783c0,1.04401 0.00636,1.87202 -0.00017,2.7535c-0.00531,0.71855 0.01517,1.52318 -0.22116,2.53567c-0.21431,0.91811 -0.6581,1.91524 -0.74268,2.71083c-0.07677,0.72211 -0.036,1.68983 -0.036,2.632c0,0.912 0,1.82933 0,2.57333c0,1.036 0.02777,1.75406 -0.0045,2.66699c-0.02832,0.80124 -0.21069,1.76126 -0.42084,2.56367c-0.21571,0.82368 -0.49023,1.85004 -0.55383,2.77466c-0.04695,0.68268 -0.02083,1.68401 -0.02083,2.5c0,0.81601 -0.06053,1.81932 0.036,2.68935c0.1133,1.02126 0.53239,1.79041 0.79733,2.81065c0.15462,0.59541 0.17584,1.46581 0.38817,2.42117c0.17833,0.80241 0.40787,1.60818 0.97717,2.60817c0.39427,0.69255 0.73392,1.54948 1.36932,2.172c0.51851,0.50798 1.19731,1.30745 1.48267,1.97333c0.42262,0.98622 1.24471,1.28334 1.78001,2.02534c0.57402,0.79565 0.92152,1.47148 1.81749,1.75183c0.7751,0.24254 0.96559,1.07568 1.57333,1.80533c0.56297,0.67589 1.41948,0.94818 1.7785,1.74283c0.3598,0.79634 1.22096,1.18826 2,1.5625c0.9278,0.44571 1.14063,1.06458 1.47917,1.95834c0.2345,0.61909 0.58455,1.73613 1.02083,2.4375c0.55511,0.89241 1.0442,1.51692 1.33333,2.375c0.29645,0.87982 0.49149,1.8364 0.73601,2.50267c0.28221,0.76898 0.59982,1.56989 0.948,2.32799c0.44072,0.95959 1.05341,1.69763 1.40266,2.55334c0.21597,0.52917 0.29372,1.22855 0.74667,2.94933c0.21373,0.81198 0.46861,1.72554 0.74399,2.718c0.28992,1.04488 0.58969,2.11523 0.888,3.186c0.29102,1.04457 0.57271,2.03534 1.03467,3.76266c0.18361,0.68655 0.32935,1.25772 0.438,1.728c0.08794,0.3806 0.17235,0.68555 0.21066,1.13733c0.06638,0.78276 -0.02629,1.6888 0.37067,2.54417c0.42331,0.91216 0.64734,1.75716 0.64734,2.51433c0,0.89551 0,1.75883 0,2.722c0,0.92084 -0.04669,1.8503 0.42534,2.50616c0.44498,0.61827 0.75851,1.36844 1.222,2.06284c0.46138,0.69125 0.45825,1.61714 1.35266,1.95183c0.82182,0.30753 0.88918,1.17714 1.02083,1.97917c0.14436,0.87947 0.69162,1.42249 0.98367,2.31633c0.24991,0.76486 1.33282,0.89557 1.71016,1.59117c0.46092,0.8497 0.61304,1.79231 1.28534,2.0925c0.88307,0.3943 1.35942,1.17317 1.716,1.82083c0.47551,0.86368 1.12088,1.53249 1.284,2.22084c0.22661,0.95634 0.73712,1.70036 1.65266,1.9265c0.68211,0.16849 1.50005,0.5937 2.44734,0.93117c0.8555,0.30475 1.66011,0.05348 2.54816,0.12599c1.02792,0.08394 1.50615,0.91176 2.35184,0.9955c0.79611,0.07883 1.64168,-0.0984 2.64816,0.009c0.79451,0.08479 0.89111,1.08769 1.57333,1.748c0.65495,0.63393 1.7785,0.243 2.53568,0.243l0.89099,0.0045l1.01851,0.16217" id="svg_9" stroke-width="2" stroke="#000" fill="none"/>
  <path t="32464,32764,32801,32802,32834,32890,32995,32995,33075,33114,33114,33268,33330,33330,33348,33348,33362,33377,33377,33417,33572,33618,33618,33626,33707,33763,33859,33859,33883,33883,33905,33905,33929,34027,34115,34130,34162,34299,34403,34403,34553,34829,34829,35007,35007,35058,35058,35085,35085,35104,35187,35274,35330,35498,35546,35585,35585,35697,35779,35779,35810,35842,35842,35923,36044,36107" d="m269,173.53333c1.02084,0.97917 1.97849,1 2.79868,1c0.90134,0 1.83783,0.02855 2.68399,-0.00133c0.80893,-0.02856 1.53152,-0.7242 0.8075,-1.29416c-0.57355,-0.45149 -1.66602,-0.64529 -2.61133,-0.70483c-0.81903,-0.05159 -1.57657,-0.55794 -1.66983,-1.3515c-0.11697,-0.99512 -0.6749,-1.29881 -1.44101,-1.73218c-0.72693,-0.41118 -0.68668,-1.34792 -0.12534,-1.03732c0.76089,0.42101 1.7709,0.51024 2.20468,1.174c0.43903,0.6718 -0.33408,1.33673 -0.70868,2.09666c-0.37433,0.75941 -1.4357,0.90265 -2.177,0.14084c-0.52753,-0.54211 -0.65659,-1.56529 -1.18698,-2.26483c-0.48288,-0.63689 -0.02414,-0.80925 0.59198,-0.192c0.61792,0.61903 0.94525,1.34398 0.8125,2.14583c-0.14502,0.8759 -0.83011,-0.37872 -1.60849,-0.06982c-0.5737,0.22766 0.03989,1.51692 0.62933,2.424c0.4855,0.74709 1.48401,0.66208 2.34732,0.66666c1.00604,0.00534 1.54056,1.12387 2.30002,0.93834c0.71017,-0.17349 0.51157,-2.2005 1.186,-1.77167c0.71713,0.45599 0.23468,1.59344 0.16217,2.48151c-0.08392,1.02791 -0.82785,1.20468 -1.39551,0.50116c-0.63602,-0.78824 -1.31467,-1.23199 -1.76935,-1.86533l-0.83066,-0.28401l-0.88568,-0.35716" id="svg_10" stroke-width="2" stroke="#000" fill="none"/>
  <path t="38823,38951,38952,38954,38988,38994,38994,39002,39026,39057,39074,39074,39084,39084,39107,39107,39162,39250" d="m233,289.53333c-0.42534,1.82535 -0.39255,2.67511 -1.02533,3.55334c-0.44373,0.61584 -1.69522,0.19348 -2.40533,0.53198c-0.78937,0.37628 -1.07045,1.42606 -1.76933,1.832c-0.77971,0.45291 -1.18469,1.24927 -1.96667,1.74936c-0.7438,0.47568 -1.81183,0.33331 -2.52882,0.33331l-0.90451,0l-0.98566,0" id="svg_11" stroke-width="2" stroke="#000" fill="none"/>
  <path t="39654,39747,39763,39776,39776,39788,39795,39817,39826,39874,39930,39930,39946,39961,39986,39986,40026,40026" d="m239,287.53333c0,1.80002 0.03673,2.63687 -0.00133,3.48267c-0.04279,0.95074 -0.81789,1.12198 -1.56267,1.55334c-0.68852,0.39877 -0.45541,1.67999 -1.19768,2.01666c-0.85619,0.38834 -1.55499,0.71283 -2.48116,0.89017c-0.94176,0.18033 -1.85735,0.05716 -2.6425,0.05716l-0.94,0l-0.69067,0" id="svg_12" stroke-width="2" stroke="#000" fill="none"/>
  <path t="43923,44009,44010,44033,44056,44058,44059,44077,44095,44095,44111,44113,44130,44147,44147,44164,44164,44181,44198,44198,44198,44215,44215,44232,44232,44280,44281,44306,44322,44323,44340,44340,44377,44377,44409,44427,44478,44478,44570,44570,44595,44666" d="m338,109.53333c1.82535,0.42533 2.49417,0.81559 3.47916,0.97916c0.9884,0.16415 1.22885,0.81617 1.60486,1.45284c0.44672,0.75638 1.56866,0.568 2.43198,0.568c0.96317,0 1.88812,-0.0817 2.78851,0.0045c0.87329,0.0836 1.48807,0.51366 2.52884,0.82883c0.73877,0.22372 1.70831,0.16666 2.70932,0.16666c0.70801,0 1.452,0 2.48801,0c0.85199,0 1.80533,0 2.57065,0c0.99417,0 1.91336,0 2.77335,0c0.94684,0 1.836,0 2.82516,0c0.77933,0 1.63351,0 2.49567,0c0.90451,0 1.82565,-0.02348 2.78851,0.00134c0.69128,0.01782 1.63065,0.28266 2.31467,0.71467l0.90134,0.33666l0.82083,0.44733" id="svg_13" stroke-width="2" stroke="#000" fill="none"/>
  <path t="45914,45993,46006,46010,46033,46042,46052,46057,46057,46073,46085,46089,46105,46113,46113,46133,46153,46153,46168,46168,46184,46184,46201,46224,46235,46241,46241,46256,46257,46281,46289,46297,46297,46313,46329,46337,46337,46361,46361,46386,46386,46409,46425,46436,46456,46456,46469,46484,46497,46505,46521,46521,46546,46546,46562,46585,46585,46585,46771,46771,46771,46784,46784,46784,46784,46784,46785,46785,46785,46785,46808,46808,46808,46808,46809,46809,46824,46889" d="m384,175.53333c1.95834,1.02084 1.6521,2.13051 2.16666,2.83334c0.47897,0.65422 0.63547,1.36519 1.11734,2.084c0.44183,0.65907 0.71057,1.26796 0.716,2.3255c0.00439,0.85698 0.56979,1.43661 0.96399,2.20383c0.40009,0.77864 0.03601,1.728 0.03601,2.668c0,0.88533 0.15649,1.70148 0.85068,2.29601c0.57001,0.48819 1.08951,1.23669 1.14667,2.10533c0.06323,0.96109 0.00266,1.884 0.00266,2.7885c0,0.86217 0,1.6955 0,2.674c0,0.82018 0,1.72151 0,2.6575c0,0.84801 0.00125,1.71133 0,2.60684c-0.00134,0.95583 -0.52621,1.45602 -1.14932,1.85449c-0.85666,0.54784 -0.82983,1.42294 -0.85068,2.56934c-0.01437,0.79153 0.2399,1.76732 -0.00449,2.62883c-0.22052,0.7774 -0.94461,1.27104 -0.99103,2.05634c-0.05911,0.99988 -0.58365,1.58815 -1.02982,2.25883c-0.49542,0.74469 -0.89609,1.70567 -0.95383,2.38933c-0.08237,0.97525 -0.02084,1.79868 -0.02084,2.67201c0,1.09599 0.00821,1.82803 0,2.56c-0.01126,1.00334 -0.16422,1.74796 -0.42667,2.504c-0.38379,1.10556 -0.6788,1.7993 -0.99335,2.58934c-0.34201,0.85901 -0.70752,1.76366 -1.07999,2.6955c-0.37418,0.93614 -0.74261,1.85471 -1.07999,2.74049c-0.59723,1.56802 -0.81738,2.22188 -0.996,2.78267c-0.15103,0.47414 -0.26535,0.87466 -0.58801,1.87199l-0.68668,0.52267l-0.90649,0.28267" id="svg_14" stroke-width="2" stroke="#000" fill="none"/>
  <path t="54745,54976,54976,54984,54985,54992,55000,55001,55008,55008,55024,55024,55033,55041,55060,55060,55075,55075,55096,55107,55107,55112,55112,55128,55144,55144,55152,55153,55160,55160,55168,55176,55184,55184,55184,55192,55192,55192,55200,55200,55208,55208,55216,55216,55216,55224,55224,55232,55241,55248,55248,55258,55264,55264,55280,55296,55308,55308,55312,55336,55352,55360,55384,55400,55400,55409,55416,55417,55428,55441,55457,55465,55465,55482,55489,55498,55498,55505,55522,55529,55537,55544,55553,55553,55553,55561,55568,55576,55585,55593,55594,55609,55609,55616,55625,55642,55642,55648,55659,55659,55675,55680,55680,55696,55712,55721,55736,55737,55752,55752,55768,55776,55793,55793,55800,55801,55809,55826,55832,55833,55848,55848,55859,55859,55864,55880,55880,55893,55893,55896,55912,55912,55920,55921,55921,55928,55928,55951,55951,55953,55953,56133,56133,56133,56133,56133,56140,56140,56141,56141,56141,56141,56141,56141,56141,56154,56154,56154,56154,56154,56155,56155,56155,56155,56162,56162,56163,56163,56163,56163,56163,56163,56163,56177,56177,56177,56177,56178,56178,56178,56178,56178,56194,56194,56200,56200,56201,56211,56211,56216,56227,56228,56232,56244,56248,56249,56261,56261,56272,56288,56304,56312,56313,56328,56328,56345,56361,56361,56362,56378,56378,56395,56412,56416,56417,56428,56429,56445,56445,56448,56449,56457,56457,56464,56480,56480,56480,56488,56489,56496,56504,56505,56512,56521,56536,56536,56552,56553,56553,56562,56562,56569,56569,56584,56585,56595,56595,56601,56616,56616,56629,56632,56648,56664,56697,56704,56720,56720,56729,56729,56753,56784,56785,56808,56816,56817,56829,56848,56872,56873,56880,56889,56897,56898,56905,56920,56936,56952,56976,56977,56977,56985,56985,56996,57013,57017,57032,57032,57041,57041,57048,57057,57072,57089,57089,57097,57097,57105,57120,57120,57137,57160,57169,57184,57200,57200,57201,57210,57224,57233,57249,57264,57265,57280,57304,57304,57305,57336,57431,57431,57432,57448,57448,57448,57449,57449,57449,57449,57464,57464,57464,57472,57472,57496,57496,57516,57521,57536,57549,57566,57566,57577,57592,57600,57600,57608,57624,57624,57648,57648,57729,57729,57785,57832,57833,57841,57864,57865,57920,57953,57985,58097,58273,58273" d="m382,103.53333c1,1 1.75717,1 2.65268,1c0.86331,0 1.86334,0.03605 2.66882,-0.22134c0.7171,-0.22914 1.67169,-0.66338 2.46783,-0.74266c1.03949,-0.10352 1.82056,-0.03178 2.61066,-0.46133c0.82489,-0.44847 1.76666,-0.57467 2.60001,-0.57467c0.83334,0 1.76633,0.28622 2.60001,-0.072c0.87036,-0.374 1.05637,-1.39794 1.884,-1.75733c0.80563,-0.34984 1.89066,-0.17067 2.83749,-0.17067c0.69934,0 1.6785,0 2.46783,0c1.04401,0 1.79999,0 2.71066,0c0.92133,0 1.83334,0 2.76132,0c0.7905,0 1.81717,0 2.50269,0c0.83466,0 1.836,0 2.63599,0c1.00134,0 1.836,0 2.76666,0c0.78152,0 1.57202,0 2.69034,0c0.83401,0 1.74301,0 2.66385,0c0.96317,0 1.70187,-0.30726 2.7175,0.009c0.73837,0.22993 0.58002,1.58048 1.37231,1.96967c0.71832,0.35284 1.74026,-0.16417 2.52802,0.05733c0.92422,0.25988 1.55157,0.62026 2.34048,0.98483c0.77103,0.3563 1.29462,0.99802 2.17352,1.33183c0.70538,0.26791 1.84976,0.39886 2.26199,1.21667c0.3541,0.70246 -0.11481,1.83637 0.52133,2.40533c0.7012,0.62717 1.13766,1.2215 1.73334,1.74c0.67255,0.58541 2.06995,-0.08064 2.664,0.61867c0.45502,0.53562 -0.16696,1.80267 0.388,2.54533c0.48141,0.64424 1.29996,1.00986 1.7995,1.66299c0.53854,0.70412 1.02478,1.42333 1.41116,1.97433c0.62561,0.89218 1.34262,1.42065 1.56351,2.1885c0.22568,0.78453 -0.10251,1.79342 0.06165,2.64284c0.17975,0.93005 0.66589,1.53474 0.91751,2.46733c0.25381,0.94077 0.9314,1.50852 1.01465,2.37067c0.08936,0.92509 0.01068,1.81466 0.01068,2.61466c0,0.836 -0.25815,1.95645 0.17065,2.63068c0.45551,0.71623 1.62482,0.78108 1.8295,1.66933c0.20554,0.89189 0.69971,1.49599 0.91452,2.384c0.20386,0.84279 -0.01135,1.76387 0.08667,2.716c0.08365,0.81259 0.71445,1.53697 0.94598,2.44817c0.19565,0.76988 0.6337,1.45215 1.16251,2.05634c0.67438,0.77051 1.46143,1.02567 2.133,1.59999c0.61099,0.52252 1.12054,1.31841 1.47183,2.2115c0.32468,0.82541 0.51208,1.7506 1.172,2.284c0.70953,0.57349 1.50699,0.72775 2.47736,1.18533c0.78391,0.36964 1.13385,1.05745 1.63599,2.01466c0.40894,0.77959 0.8215,1.55807 1.65268,1.89017c0.82138,0.32817 1.77829,0.51738 2.146,1.08183c0.62466,0.95895 0.71268,1.79312 1.20132,2.528c0.47037,0.70741 1.10944,1.32796 1.50034,1.85851c0.50131,0.68039 1.83755,2.6385 2.69849,3.95384c0.98373,1.50293 2.04431,3.15982 3.1665,4.91699c1.15686,1.81146 2.31479,3.63545 3.4545,5.42101c1.08835,1.70508 3.00903,4.68597 3.80035,5.87683c0.66406,0.99933 1.22675,1.8203 1.69049,2.4915c0.3761,0.54434 0.68448,0.97884 0.9165,1.33949c0.18964,0.29478 0.44815,0.80559 0.53,1.063c0.08231,0.25887 0.13675,0.52635 0.18149,0.7935c0.04419,0.2639 0.07474,0.52417 0.1095,0.7755c0.03329,0.24066 0.11215,0.67844 0.17319,0.867c0.05679,0.17549 0.12885,0.33423 0.20398,0.48149c0.07233,0.14174 0.15112,0.27505 0.22202,0.4095c0.07043,0.13359 0.26501,0.73904 0.37799,1.4985c0.13693,0.92065 0.33069,1.70056 0.54935,2.492c0.30859,1.11703 0.41998,1.83995 0.42532,2.78217c0.00546,0.96315 0,1.65382 0,2.722c0,0.85716 -0.09149,1.7697 0.05716,2.51433c0.1846,0.92476 0.72647,1.55737 0.90683,2.60684c0.15866,0.92314 0.03601,1.83733 0.03601,2.80266c0,0.65868 0,1.66667 0,2.52884c0,0.84616 0.01666,1.84761 -0.01068,2.55516c-0.02878,0.7449 -0.3981,1.90497 -0.70532,2.54668c-0.41602,0.86896 -0.89587,1.6796 -1.16266,2.52399c-0.26086,0.82562 -0.23703,1.75095 -0.883,2.37418c-0.63409,0.61177 -1.46823,0.82584 -2.353,1.50583c-0.51031,0.3922 -1.02017,1.32585 -1.48535,1.93733c-0.62369,0.81981 -1.59201,0.97458 -2.22534,1.308c-0.72461,0.38148 -1.35657,1.24911 -1.87015,1.84351c-0.6257,0.72417 -1.04813,1.48543 -1.38852,2.14183c-0.41757,0.80524 -1.03293,1.35571 -1.97849,1.868c-0.6676,0.36169 -1.67365,0.60692 -2.2655,1.12134c-0.54532,0.47398 -0.9213,1.60788 -1.30798,2.29201c-0.46692,0.82608 -1.22214,1.08636 -2.19736,1.45332c-0.6976,0.2625 -1.52249,0.58122 -2.30533,0.85867c-0.92697,0.32852 -1.68472,0.69127 -2.29333,1.144c-0.79807,0.59367 -0.9187,1.58623 -1.51532,2.18333c-0.55911,0.55954 -1.39999,0.96448 -1.88602,1.64732c-0.56354,0.79176 -1.41156,0.76453 -1.99731,1.56934c-0.47794,0.65666 -0.62503,1.6172 -1.00269,2.43066c-0.35303,0.76041 -0.77545,1.47791 -1.04532,2.32117c-0.25314,0.79103 -0.62659,1.65338 -1.18268,2.28951c-0.51151,0.58513 -1.24191,1.08142 -1.87732,1.77867c-0.56912,0.62451 -1.02255,1.31944 -1.06,2.12799c-0.04355,0.94026 -0.65411,1.532 -1.05402,2.18718c-0.49576,0.81224 -1.11398,1.46214 -1.77267,2.12083c-0.52197,0.522 -1.38153,1.21686 -1.81299,1.87015c-0.47565,0.72021 -0.91492,1.42975 -1.44568,2.02051c-0.64883,0.72223 -0.68588,1.521 -1.48398,2.11469c-0.60861,0.45273 -1.55426,0.62186 -2.14801,1.25333c-0.64514,0.68613 -1.24411,1.15283 -1.91998,1.49066c-0.96619,0.48297 -1.9183,0.37454 -2.29202,1.28665c-0.36954,0.90192 -0.23355,1.65231 -0.78799,2.22269c-0.6564,0.67526 -1.05048,1.34378 -1.73065,1.90134c-0.61847,0.50696 -1.43942,0.81558 -1.98401,1.53198c-0.59201,0.77878 -1.01593,1.53647 -1.59467,2.05734c-0.63788,0.5741 -1.12836,1.33197 -1.86133,1.42401c-0.93164,0.117 -2.00284,0.28366 -2.47736,0.86264c-0.49881,0.60864 -0.97049,1.59308 -1.73715,2.01801c-0.70398,0.3902 -1.30655,0.52731 -2.54816,1.22751c-0.54333,0.3064 -1.12054,0.65906 -1.728,1.03049c-0.6239,0.3815 -1.25031,0.76428 -2.43469,1.52802c-1.02563,0.66135 -1.7879,1.19589 -2.336,1.57999c-0.84778,0.59409 -1.60916,0.75241 -2.50467,0.75467c-0.86331,0.00217 -1.87964,-0.29599 -2.73666,0.01068c-0.73676,0.26364 -1.25726,0.98398 -2.09467,0.98932c-0.86328,0.00549 -1.88,0 -2.716,0c-0.90015,0 -1.68533,0 -2.62534,0c-1.008,0 -1.79999,0 -2.65997,0c-0.91919,0 -1.91336,0 -2.67868,0c-0.95065,0 -1.836,0 -2.63599,0c-0.95718,0 -1.85269,0 -2.716,0c-0.96317,0 -1.87335,-0.01065 -2.48401,-0.5l-0.54166,-0.47916l-0.94101,-0.02216l-0.8075,-0.05585" id="svg_16" stroke-width="2" stroke="#000" fill="none"/>
  <path t="59404,59489,59497,59497,59497,59513,59514,59532,59532,59549,59569,59569,59617,59617,59650,59650,59671,59672,59673,59691,59709,59709,59727,59727,59729,59729,59747,59766,59782,59817,59849,59849,59903,59940,59940,60034" d="m384,124.53333c0.02133,1.82533 0.30988,2.85677 0.85068,3.37466c0.5582,0.53457 1.0578,1.46764 1.23199,2.22666c0.23044,1.00407 0.57016,1.7397 0.86465,2.64151c0.27939,0.85548 0.75604,1.45828 1.35718,2.06166c0.57977,0.58192 1.32468,1.36996 1.87015,1.83417c0.7724,0.65732 1.7493,0.79329 2.3045,1.38217c0.69229,0.73428 0.7113,1.81757 1.4075,2.19383c0.85944,0.46451 1.75,0.32292 2.35168,0.99516c0.62482,0.69806 0.50769,1.81091 0.76614,2.58566c0.27258,0.81705 0.95331,1.24692 0.99686,2.18718c0.03745,0.80855 0.57333,1.56799 0.96265,2.37866l0.03467,0.65599l0.00134,1.108" id="svg_17" stroke-width="2" stroke="#000" fill="none"/>
  <path t="60884,60929,60936,60937,60945,60956,60957,60961,60961,60961,60973,60973,60977,60977,60985,60985,60985,60993,60993,61001,61001,61009,61033,61033" d="m437,208.53333c0.16666,1.83334 0.8992,2.32262 0.97916,3.02084c0.12448,1.08691 -0.04651,1.98671 0.078,2.7935c0.1496,0.96941 0.4129,1.72389 0.8295,2.41766c0.513,0.85434 1.41284,1.26933 1.87051,2.08966c0.3671,0.65797 0.39505,1.84857 0.59549,2.62651c0.13748,0.53363 0.40735,1.73756 0.64734,2.51016c0.27194,0.87544 0.716,1.427 0.96399,2.367l0.03601,1.008l0,0.756" id="svg_18" stroke-width="2" stroke="#000" fill="none"/>
  <path t="61418,61465,61473,61473,61473,61481,61481,61481,61491,61491,61491,61497,61497,61497,61508,61508,61508,61513,61513,61513,61525,61525,61525,61529,61536,61537,61545,61545,61577,61577,61618,61628,61641,61664,61673,61673,61682,61682" d="m438,217.53333c0,1.67201 -0.01926,2.77017 0.02084,3.52084c0.04263,0.79796 0.22849,1.81026 0.52081,2.47916c0.30676,0.70198 0.9415,1.68456 1.28369,2.22534c0.52066,0.82283 1.18692,1.83609 1.52798,2.54933c0.31729,0.6635 0.5351,1.64557 0.62134,2.45067c0.08795,0.821 0.21811,1.86284 0.46133,2.54933c0.32727,0.92372 0.67734,1.64171 0.95334,2.44c0.2666,0.77109 0.29755,1.95024 0.944,2.78532c0.4003,0.51711 1.38681,0.97534 1.71481,1.75717c0.36594,0.87221 0.71796,1.55937 0.89468,2.48567c0.17944,0.94049 -0.55377,1.49785 -0.90683,2.20383c-0.39148,0.78282 -0.108,1.692 -0.74133,2.4435l-0.72668,0.1925" id="svg_19" stroke-width="2" stroke="#000" fill="none"/>
  <path t="61938,61968,61980,61980,61986,61987,61994,61994,62000,62001,62009,62009,62026,62026,62026,62064,62081,62121" d="m428,248.53333c0,1.75717 0,2.65718 0,3.40451c0,0.99417 0,1.93832 0,2.84734c0,0.7175 0,1.75349 0,2.49748c0,1.108 0,1.90134 0,2.79333c0,0.70801 0,1.68933 0,2.64301l-0.00134,1.013l-0.284,0.716" id="svg_20" stroke-width="2" stroke="#000" fill="none"/>
  <path t="62914,62969,62969,62979,62993,62997,62997,63001,63014,63018,63018" d="m467,199.53333c0.83334,1.33334 0.80557,2.29518 1.36166,2.89467c0.62347,0.67212 1.52441,0.90628 2.069,1.62267c0.59201,0.77878 0.99466,1.468 1.51218,2.1925l0.05582,0.8075" id="svg_21" stroke-width="2" stroke="#000" fill="none"/>
  <path t="63340,63353,63353,63367,63369,63369,63369,63382,63382,63481,63489" d="m464,193.53333c1.89017,2.5955 1.98672,3.56067 2.436,4.37468c0.46982,0.85124 1.02029,1.43622 1.27866,2.22665c0.31723,0.9705 0.33801,1.7415 0.638,2.63251l0.61133,0.28349" id="svg_22" stroke-width="2" stroke="#000" fill="none"/>
  <path t="63611,63642,63642,63650,63650,63721,63721" d="m469,198.53333c2.24283,2.00534 2.47916,2.5 3,3.66667l0.39999,0.66133l0.60001,0.672l0.64282,0.58568" id="svg_23" stroke-width="2" stroke="#000" fill="none"/>
  <path t="64027,64081,64081,64098,64098,64115,64115" d="m454,167.53333c2.59549,1.3 3.34283,1.70001 4.116,2.19867l0.76801,0.51601l0.76868,0.22816l0.86331,0.05583" id="svg_24" stroke-width="2" stroke="#000" fill="none"/>
  <path t="65075,65361,65369,65401,65401,65424,65457,65457,65489,65528,65553,65553,65585,65603,65603,65620,65640,65640,65672,65673,65865,65921,65921,65956,65962,65977,66000,66024,66025,66048,66048,66081,66092,66108,66113,66152,66152,66431,66480,66520,66528,66553,66593,66624,66624,66665,66665,66681,66704,66737,66737,66765,66785,66815,66889,66889,66952,67122,67152,67152,67193,67201,67224,67250,67250,67267,67338,67363,67385,67385,67440,67440,67496,67520,67521,67521,67528,67528,67723,67742,67742,67776,67977,68025,68057,68109,68136,68136,68136,68137,68201,68216,68216,68226,68291,68304,68386,68401,68425,68449,68472,68481,68504,68528,68529" d="m357,177.53333c0.03601,-2.55333 0.43985,-3.35345 1.22168,-3.87849c0.56097,-0.37674 1.60367,-0.12151 2.61166,-0.12151c0.86215,0 1.76666,0 2.57733,0c0.91064,0 1.76804,-0.08597 2.70398,0.00134c0.89676,0.08366 1.52509,0.77188 2.18985,1.29416c0.79904,0.62778 1.77408,0.34918 2.45248,1.14734c0.50183,0.59044 0.52951,1.93835 -0.19983,2.43567c-0.62024,0.42293 -1.78467,0.33765 -2.47314,-0.16251c-0.69257,-0.50313 -1.38852,-0.716 -2.25067,-0.716c-0.83334,0 -1.81183,0 -2.63202,0c-0.90134,0 -1.67374,0.24109 -2.37067,0.716c-0.73651,0.50188 -1.80948,0.3056 -2.52615,0.284c-0.94861,-0.02859 -1.36993,-0.76442 -1.30002,-1.64816c0.08133,-1.02811 0.54779,-1.77272 1.21719,-2.23033c0.78653,-0.53767 1.77832,-0.12151 2.61166,-0.12151c0.86215,0 1.76666,0 2.6875,0c0.96317,0 1.68188,-0.23837 2.7175,0.0045c0.76901,0.18034 1.44675,0.92792 1.7045,1.70534c0.25473,0.7683 0.40289,1.84636 0.03583,2.6795c-0.3053,0.69296 -1.62003,0.66243 -1.96967,-0.09384c-0.39716,-0.85902 -1.04898,-1.00098 -1.67566,-1.62883c-0.52759,-0.52858 0.04688,-2.02373 -0.55484,-2.54517c-0.67023,-0.58081 -1.7785,-0.12209 -2.59283,-0.12151c-0.95233,0.00067 -1.87729,-0.47359 -2.68567,0.16667c-0.59949,0.47482 0.24576,1.32458 0.56134,1.98267c0.36703,0.76535 1.32605,1.09558 2.30267,0.82933c0.8179,-0.22299 1.64377,-1.3967 1.01465,-1.95732c-0.67825,-0.60442 -0.68994,-0.88699 -1.26666,-1.02c-0.90387,-0.20847 -1.84119,0.64981 -1.99768,1.41383c-0.12241,0.5976 -0.35837,1.56174 -0.10532,2.70883c0.16803,0.76166 1.17627,0.87065 2.10565,0.87599c0.88535,0.00508 1.94702,-0.21532 1.88519,-1.09982c-0.05643,-0.80734 -1.15466,-0.53026 -0.9985,0.29849c0.15314,0.8127 0.99866,1.30133 1.64532,1.79066l0.83734,0.01067l0.86331,0" id="svg_25" stroke-width="2" stroke="#000" fill="none"/>
  <path t="69654,69697,69697,69705,69705,69714,69714,69721,69721,69721,69730,69730,69737,69737,69747,69747,69753,69850,69858,69874,69884,69884,69884" d="m224,188.53333c-1.3,2.00534 -1.54532,2.77518 -2,3.66667c-0.34866,0.68364 -0.86125,1.55672 -1.16933,2.304c-0.34,0.82471 -0.84067,1.53676 -1.18251,2.024c-0.73845,1.05255 -1.33147,1.57683 -1.56284,2.49066c-0.17897,0.70686 -0.08533,1.71451 -0.08533,2.67867c0,0.95067 -0.52802,2.36401 0,2.36401c0.94934,0 0,-1.86134 0.0045,-2.53784l0.03149,-0.7755" id="svg_26" stroke-width="2" stroke="#000" fill="none"/>
  <path t="70083,70105,70115,70121,70132,70137,70137,70153,70153,70185" d="m223,180.53333c-0.5,2.47917 -0.89447,3.33597 -1.42534,3.97467c-0.50664,0.60954 -0.57733,1.50934 -0.64667,2.2l-0.49599,0.94l-0.58134,0.47467l-0.74083,0.70616" id="svg_27" stroke-width="2" stroke="#000" fill="none"/>
  <path t="70453,70481,70506,70506,70569,70748" d="m217,179.53333c-0.98534,1.81467 -1.44267,2.75717 -2.14934,3.01468l-0.77866,0.39999l0.04233,-0.29517" id="svg_28" stroke-width="2" stroke="#000" fill="none"/>
  <path t="70770,70803,70811,70812,70825" d="m216,164.53333c-2.04817,0.76167 -2.35266,1.65268 -2.64734,2.34734l-0.32733,1.00601" id="svg_29" stroke-width="2" stroke="#000" fill="none"/>
  <path t="73046,73130,73162,73162,73194,73201,73217,73226,73241,73241,73265,73289,73297,73298,73313,73313,73329,73345,73357,73361,73361,73377,73377,73390,73390,73393,73393,73401,73409,73417,73425,73425,73425,73440,73441,73449,73456,73457,73465,73473,73473,73481,73481,73481,73490,73497,73497,73507,73507,73513,73513,73523,73523,73529,73529,73540,73540,73540,73545,73557,73557,73561,73561,73578,73578,73587,73587,73587,73593,73594,73604,73610,73610,73610,73618,73618,73625,73642,73642,73649,73658,73665,73665,73673,73681,73681,73692,73692,73697,73697,73705,73713,73713,73886,73886,73886,73886,73889,73889,73889,73889,73889,73889,73889,73889,73889,73897,73897,73897,73897,73897,73897,73897,73897,73897,73912,73912,73912,73912,73912,73912,73912,73912,73912,73923,73923,73923,73923,73923,73930,73930,73930,73940,73940,73940,73940,73944,73944,73944,73944,73944,73957,73957,73957,73960,73960,73960,73992,73992,74000,74040,74057,74057,74064,74064,74074,74091,74108,74108,74124,74128,74141,74153,74160,74160,74169,74169,74176,74212,74220,74220,74220,74221,74221,74238,74238,74256,74256,74273,74291,74291,74308,74308,74336,74336,74360,74385,74385,74404,74404,74473,74473,74506,74507,74540,74541" d="m257,288.53333c0.99551,1.75717 1,2.65268 1,3.51602c0,0.84799 -0.03391,1.80811 0.5,2.48398c0.4483,0.56747 0.5,1.48401 0.5,2.34735c0,0.89548 0,1.85266 0,2.75284c0,0.78516 0,1.72516 0,2.41583c0,1.07333 0,1.98398 0,2.89465c0,0.91068 0,1.58932 0,2.70532c0,0.76801 0,1.72 0,2.48535c0,0.99417 0,1.74149 0,2.76266c0,0.936 0,1.83734 0,2.80267c0,0.66931 0,1.43466 0,2.42883c0,0.91916 0,1.90448 0,2.72583c0,0.85333 0.03918,1.79413 -0.00015,2.77899c-0.02859,0.7157 -0.28384,1.66766 -0.49985,2.39966c-0.216,0.73199 -0.42462,1.83041 -0.50449,2.80902c-0.0542,0.66437 -0.35382,1.69467 -0.57019,2.44031c-0.26563,0.91537 -0.42142,1.84317 -0.77798,2.55969c-0.3363,0.67578 -0.60947,1.69989 -0.63666,2.47632c-0.0367,1.04742 -0.01068,1.96799 -0.01068,2.728c0,0.98666 0,1.80801 0,2.66135c0,0.94131 0,1.70932 0,2.672c0,0.84 0.04544,1.83981 -0.04167,2.63251c-0.0833,0.75793 -0.70027,1.66669 -1.25299,2.21182c-0.69327,0.68375 -0.86531,1.64423 -1.058,2.31433c-0.21455,0.74615 -0.5822,1.84567 -0.64284,2.68567c-0.06805,0.94257 -0.0045,1.793 -0.0045,2.65634c0,1.01666 0,1.85266 0,2.75284c0,0.78516 0,1.72516 0,2.73315c0,0.79199 0,1.65201 0,2.57117c0,0.99417 0,1.75949 0,2.71017c0,0.88531 0,1.68533 0,2.56265c0,0.85867 0,1.509 0,2.34134c0,2.31467 0,3.836 0,5.56534c0,1.88531 0,3.87466 0,5.91599c0,2.04135 0,4.03067 0,5.91602c0,3.25067 0,4.52499 0,5.56534c0,0.83231 0,1.48267 0,1.97699c0,0.36432 0,0.62466 0,0.80701c0,0.23465 0,0.33499 0,0.43732c0,0.10635 0,0.21869 0,0.33902c0,0.13031 0,0.27264 0,0.42899c0,0.36267 0,0.57217 0,0.79868c0,0.24048 0.00328,1.01599 0,2.064c-0.00226,0.71851 0.00641,1.43402 -0.16667,2.5c-0.16045,0.98813 -0.36331,1.71997 -0.65216,2.47568c-0.4632,1.21185 -0.71089,1.59821 -1.18201,2.38199c-0.46582,0.77499 -1.00719,1.45746 -1.49916,2.47568c-0.38571,0.79828 -0.48126,1.54761 -0.5,2.5c-0.01538,0.78134 0.12422,1.61069 -0.22133,2.69031c-0.24495,0.76529 -0.76067,1.54245 -0.77867,2.44751c-0.02022,1.01663 0,1.6955 0,2.67401c0,0.82016 0,1.7215 0,2.6575c0,0.84799 -0.00081,1.71133 0,2.728c0.00067,0.83466 0.62834,1.38855 0.97917,2.17767c0.38239,0.86011 -0.10402,1.82251 0.72617,2.34848c0.63501,0.40231 1.21169,0.91989 1.33633,1.69318c0.17853,1.1076 0.52455,1.7533 0.80899,2.51801c0.29683,0.79803 0.6326,1.54663 0.90634,2.51282c0.27368,0.96594 0.243,1.86984 0.243,2.73318c0,0.89548 0,1.85532 0,2.62332c0,1.03467 -0.0181,1.77884 0,2.69601c0.01801,0.91251 0.61165,1.64609 0.91467,2.53598c0.24904,0.73135 0.08533,1.56534 0.08533,2.54666c0,0.91736 0.07201,1.82935 0.56799,2.45203l0.72667,0.55582l0.53601,0.72684l0.21748,0.86334" id="svg_30" stroke-width="2" stroke="#000" fill="none"/>
  <path t="75790,75841,75848,75857,75864,75864,75864,75872,75873,75880,75888,75888,75888,75896,75904,75912,75912,75912,75920,75921,75929,75936,75936,75945,75945,75945,75952,75952,75953,75962,75968,75979,75979,75979,75984,75984,75984,75996,76000,76000,76000,76012,76012,76012,76016,76016,76024,76024,76032,76032,76032,76040,76040,76048,76048,76056,76057,76057,76064,76064,76072,76072,76073,76080,76080,76088,76096,76096,76096,76104,76112,76113,76129,76129,76129,76136,76152,76152,76163,76163,76168,76168,76179,76184,76196,76196,76213,76216,76216,76224,76232,76232,76248,76256,76257,76272,76272,76272,76280,76280,76296,76313,76313,76313,76320,76330,76330,76352,76353,76376,76397,76400,76416,76416,76424,76425,76440,76440,76456,76456,76464,76472,76472,76480,76497,76497,76504,76504,76515,76521,76528,76536,76545,76546,76560,76581,76585,76585,76594,76602,76602,76613,76622,76648,76648,76857" d="m288,320.53333c0,2.58936 0,3.5 0,4.42136c0,0.91199 0,1.58398 0,2.5733c0,1.03467 0,1.80267 0,2.67734c0,0.87067 0,1.828 0,2.56c0,1.09601 0,1.96936 0,2.93469c0,0.66931 0,1.43466 0,2.42883c0,0.91916 0,1.90448 0,2.72617c0,0.92499 0,1.845 0,2.63098c0,0.82202 0,1.88068 0,2.80066c0,0.76001 -0.07434,1.72964 0.01068,2.66803c0.0835,0.92145 0.35629,1.5845 0.564,2.36398c0.27792,1.04306 0.40613,1.96741 0.42398,2.728c0.02362,1.00723 0.00134,1.82001 0.00134,2.74802c0,0.7905 -0.04974,1.82053 0.02133,2.50266c0.08789,0.84335 0.69037,1.82657 1.12799,2.39999c0.61676,0.80814 0.83618,1.5332 0.85083,2.60001c0.00815,0.59396 -0.06763,1.57617 0.1665,2.73599c0.1297,0.64249 0.74545,1.48822 0.82886,2.31433c0.09595,0.9502 0.00449,1.70651 0.00449,2.50302c0,0.99866 0,1.90799 0,2.84933c0,0.78149 0,1.57199 0,2.69031c0,0.83401 -0.02042,1.69385 0.22134,2.68567c0.1745,0.71585 0.51227,1.43347 0.69333,2.48666c0.1651,0.96033 0.1171,1.79141 0.36932,2.73868c0.19638,0.73752 0.53076,1.44641 0.67999,2.57068c0.10904,0.82159 0.03601,1.68216 0.03601,2.66132c0,0.78934 0,1.83334 0,2.58936c0,0.91064 0,1.82132 0,2.73199c0,0.85333 0,1.79333 0,2.67865c0,0.80002 0,1.63602 0,2.65268c0,0.69467 0,1.72198 0,2.66882c0,0.69934 0,1.6785 0,2.47852c0,0.79999 0,1.98932 0,2.71466c0,1.00616 0,1.81866 0,2.73599c0,0.74399 0,1.77866 0,2.74933c0,0.75717 0,1.65268 0,2.51602c0,0.96317 0,1.88397 0,2.78848c0,0.86218 0,1.6955 0,2.67416c0,0.77402 0.00052,1.6785 0,2.42584c-0.00067,0.99417 0.05206,1.98187 -0.35266,2.83832c-0.38318,0.81088 -0.30261,1.65994 -0.73267,2.47183c-0.45438,0.85782 -0.90424,1.306 -0.91467,2.26385c-0.00891,0.8201 0.37784,1.8259 -0.05716,2.66434c-0.38837,0.74863 -0.9324,1.37781 -0.94284,2.33566c-0.00891,0.8201 0,1.7215 0,2.54233c0,0.96317 0.35483,1.71796 -0.009,2.7175c-0.30048,0.82547 -1.58176,0.57941 -1.96967,1.37234c-0.40005,0.81781 -0.02133,1.71066 -0.02133,2.564l-0.009,1.05917" id="svg_31" stroke-width="2" stroke="#000" fill="none"/>
  <path t="77483,77552,77552,77560,77561,77568,77568,77576,77576,77588,77588,77592,77600,77608,77608,77608,77616,77624,77633,77633,77640,77650,77650,77656,77656,77656,77668,77668,77672,77672,77683,77683,77688,77688,77688,77700,77700,77700,77708,77708,77717,77717,77717,77720,77720,77731,77745,77745,77746,77752,77760,77760,77768,77776,77776,77788,77788,77792,77792,77792,77800,77800,77808,77808,77817,77817,77817,77817,77824,77824,77834,77840,77850,77865,77944,77944,77952,77952,77960" d="m288,340.53333c1.836,0 2.60544,-0.08194 3.59549,0.009c0.92938,0.08536 1.62064,0.72672 2.15717,1.34283c0.69397,0.79694 1.23758,1.19916 2.24734,1.48151c0.76215,0.2131 1.7196,0.41806 2.284,1.08533c0.51651,0.61069 0.4808,1.43524 0.88535,2.22934c0.46152,0.90594 1.34357,1.22083 2.164,1.68533c0.59799,0.33856 1.44757,0.58438 1.95331,1.36801c0.39645,0.61432 1.18842,1.29352 1.73419,1.79865c0.57001,0.52756 1.37897,1.11285 2.14316,1.58936c0.81589,0.50873 1.4407,1.04126 2.32132,1.612c0.70959,0.4599 1.53555,0.94104 2.11017,1.45581c0.591,0.52942 1.24173,1.34018 1.65186,1.93835c0.51013,0.74402 1.25027,1.50253 1.92731,2.02982c0.67267,0.5239 1.25989,1.17749 1.5387,1.97601c0.33524,0.96008 0.37766,1.82245 0.89731,2.48532c0.5961,0.76038 0.8952,1.4259 1.104,2.14667c0.31088,1.07318 0.94031,1.48163 1.58002,1.8765c0.84128,0.51929 1.03564,1.56317 1.72617,1.89017c0.9537,0.45163 1.40582,1.08704 2.14581,1.83334c0.44989,0.45374 1.23859,0.86069 2.03317,1.26666c0.78006,0.39856 1.63962,0.89203 2.32101,1.42084c0.81995,0.63635 1.48483,1.13138 1.97916,1.47916c0.73248,0.51532 1.62564,1.32788 2.29733,1.71335c0.79016,0.45346 1.37241,1.00146 2.20267,1.28665c0.83109,0.28549 1.16666,1.16669 1.436,1.81467l0.564,0.85202l0.79999,0.33066l0.84283,-0.11166" id="svg_32" stroke-width="2" stroke="#000" fill="none"/>
  <path t="78471,78488,78488,78488,78488,78488,78488,78496,78497,78497,78497,78497,78504,78504,78504,78504,78504,78512,78512,78512,78512,78521,78521,78521,78521,78529,78529,78529,78529,78536,78536,78536,78545,78545,78545,78552,78553,78560,78560,78571,78586,78586,78592,78592,78592,78602,78602,78608,78608,78619,78624,78624,78624,78636,78636,78640,78640,78640,78652,78652,78656,78656,78656,78672,78672,78672,78680,78680,78680,78688,78696,78696,78712,78712,78712,78728,78728,78744,78744,78753,78753,78760,78769,78776,78776,78786,78786,78792,78803,78808,78824,78824,78856,78873,78873,78881,78888,78888,78904,78912,78928,78968,78968,79113,79124,79129,79129,79138,79138,79138,79145,79145,79145,79145" d="m337,342.53333c0,11.42816 0,12.11868 0,12.74716c0,1.10703 0,1.60352 0,2.52753c0,1.34665 0,1.80933 0,2.75064c0,0.94934 0,1.422 0,2.80801c0,0.88 0,1.72 0,2.51999c0,0.76001 0,2.164 0,2.832c0,0.67599 0,1.384 0,2.55734c0,0.86267 0,1.75732 0,2.65201c0,1.272 0,2.03333 0,2.72266c0,0.9165 -0.02307,1.96207 0.01068,2.65735c0.04425,0.91132 0.26733,1.90964 0.48932,2.7045c0.21033,0.75311 0.46854,1.71405 0.49866,2.48883c0.0401,1.03207 -0.19693,1.83173 0.28534,2.77866c0.41559,0.81601 0.70541,1.51068 0.716,2.42001c0.00909,0.78149 -0.15674,1.67603 0.44266,2.69031c0.41714,0.70587 1.36734,1.09787 1.55469,1.94302c0.1889,0.85214 0.22501,1.74255 0.42798,2.46133c0.22311,0.79019 0.4942,1.81354 0.55383,2.71783c0.0672,1.0188 0.01904,1.82083 0.02084,2.62082c0.00226,1.00452 0.01883,1.8645 0.22134,2.82135c0.17175,0.81149 0.47696,1.61588 0.65717,2.65732c0.11957,0.69098 0.10928,1.60544 0.12283,2.604c0.01083,0.79666 -0.03769,1.59079 0.35132,2.50299c0.37094,0.86981 0.72327,1.64514 1.09,2.35699c0.37424,0.72644 0.98801,1.39246 1.38669,2.48801c0.25153,0.69113 0.17065,1.6265 0.17065,2.37384c0,0.99417 0,1.93832 0,2.83832c0,0.95718 0,1.85736 0,2.64252c0,0.94 0,1.63068 0,2.70401c0,0.91064 0,1.82132 0,2.73199c0,0.67865 0,1.79333 0,2.67865c0,0.80002 0,1.63602 0,2.65268c0,0.69467 0,1.71133 0,2.64734c0,0.90134 0,1.86667 0,2.52533c0,1.008 0,1.80267 0,0.85315c0,-0.69931 0,-1.6785 0,-2.49982c0,-0.69299 0,-1.82169 0,-2.49301l0,-1.10699l0,-0.78134" id="svg_33" stroke-width="2" stroke="#000" fill="none"/>
  <path t="80312,80360,80376,80376,80384,80384,80392,80392,80392,80400,80400,80400,80408,80408,80408,80416,80424,80424,80424,80432,80432,80432,80441,80441,80441,80448,80448,80448,80457,80457,80457,80464,80464,80473,80473,80473,80473,80473,80480,80480,80490,80490,80490,80490,80496,80496,80507,80507,80507,80512,80512,80520,80528,80544,80544,80544,80552,80552,80552,80560,80560,80568,80576,80584,80584,80592,80592,80600,80600,80608,80608,80616,80616,80624,80624,80632,80632,80641,80641,80648,80648,80649,80658,80658,80658,80664,80665,80674,80674,80674,80680,80680,80691,80691,80696,80696,80708,80712,80724,80724,80724,80728,80728,80736,80752,80768,80768,80768,80776,80784,80784,80792,80792,80800,80800,80816,80825,80825,80825,80842,80842,80858,80858,80858,80864,80875,80880,80880,80892,80896,80896,80908,80912,80920,80920,80928,80936,80944,80944,80960,80960,80976,80992,81000,81024,81024,81048,81048,81064,81075,81092,81092,81112,81112,81136,81136,81160,81160,81168,81178,81185,81208,81233,81233,81249,81273,81321,81321,81451,81451,81537,81538,81538,81648,81649,81721,81722,81744" d="m408,299.53333c0,1.82535 0,2.83334 0,3.62534c0,1.03635 0,1.83633 0,2.79602c0,0.80399 0,1.62598 0,2.65732c0,0.69601 0,1.60535 0,2.604c0,0.79651 0,1.548 0,2.66666c0,0.98401 0,1.66049 0,2.436c0,1.048 0.02777,1.99307 -0.05716,2.66733c-0.15649,1.24225 -0.38596,1.76807 -0.59018,2.59467c-0.25351,1.02612 -0.32703,1.9563 -0.43668,2.63669c-0.16226,1.00681 -0.4407,1.80984 -0.63199,2.63199c-0.23145,0.99481 -0.28912,1.96121 -0.61734,3.01733c-0.20081,0.64618 -0.5213,1.31564 -0.81598,2.01599c-0.28656,0.68106 -0.66296,1.88605 -0.85068,2.62985c-0.30182,1.19589 -0.56516,1.70633 -1,2.52081c-0.29276,0.54837 -0.83838,1.56412 -0.95834,2.47919c-0.13281,1.013 -0.03986,1.82083 -0.04166,2.62082c-0.00226,0.991 -0.1814,1.74866 -0.716,2.48267c-0.49155,0.67487 -0.72833,1.45923 -1.13467,2.17868c-0.44586,0.78946 -0.96219,1.8056 -1.07733,2.50266c-0.13647,0.82632 0.17175,1.89005 -0.15732,2.66534c-0.37949,0.89404 -0.90424,1.59128 -0.91467,2.40399c-0.01178,0.91928 0.05283,1.83008 -0.05716,2.57117c-0.14972,1.00867 -0.57953,1.7395 -0.85883,2.71149c-0.21713,0.75558 -0.47931,1.52573 -0.73135,2.28851c-0.323,0.97751 -0.3504,1.93832 -0.35266,2.84732c-0.00177,0.7175 0.05405,1.76572 -0.07199,2.53351c-0.17499,1.06583 -0.65985,1.74536 -1.07733,2.44c-0.55331,0.92065 -0.77365,1.71933 -0.82935,2.51334c-0.06497,0.92596 -0.02133,1.76132 -0.02133,2.80399c0,0.70801 0,1.452 0,2.64752c0,0.69247 0,1.64581 0,2.41116c0,0.99417 0,1.91333 0,2.87784c0,0.82983 0,1.85416 0,2.52615c0,0.74399 0,1.85165 0,2.79199c0,0.90268 0,1.74435 0,2.74533c0,0.70801 0,1.452 0,2.64301c0,0.91452 0,1.69968 0,2.65033c0,0.76535 0,1.75952 0,2.50684c0,1.04251 0,1.99051 0,2.66251c0,0.74399 0,1.85199 0,2.64532c0,1.11734 0,1.84933 0,2.58133c0,1.09601 0,2.06802 0,2.96936c0,0.68399 0,1.62399 0,2.63199c0,0.86215 0,1.76666 0,2.57733c0,0.91068 0,1.76401 0,2.70401c0,0.98532 0,1.88531 0,2.64249c0,0.89551 0,1.75885 0,2.72202c0,0.92081 0,1.72217 0,2.6875c0,0.83331 0.14938,1.83987 -0.05716,2.52881c-0.2637,0.87964 -0.91425,1.60782 -0.94284,2.62585c-0.01904,0.67838 0,1.65732 0,2.43134c0,0.90448 0,1.84866 0,2.84283c0,0.74731 -0.00177,1.76465 -0.5,2.40448c-0.4808,0.61743 -0.5,1.52084 -0.5,2.32135c0,0.85333 0,1.79333 0,2.77866c0,0.89999 0,1.65717 0,2.56168c0,0.79999 0,1.75967 0,2.56366c0,0.82199 0,1.853 0,2.733l0,1.02017l0,0.82016l0,0.90134" id="svg_34" stroke-width="2" stroke="#000" fill="none"/>
  <path t="82323,82354,82373,82391,82391,82391,82393,82393,82406,82406,82408,82408,82408,82460,82461,82481,82481,82481,82481,82481,82481,82481,82512,82512,82520,82520,82569,82569,82586,82586,82602,82641,82656,82665,82680,82744,82744,82929,82929" d="m347,435.53333c0,2.58936 0,3.42136 0,4.33334c0,0.91733 0,1.66132 0,2.69733c0,0.85199 0,1.81601 0,2.431c0,1.22101 0,2.01752 0,2.76901c0,0.98648 -0.00018,1.8605 0,2.936c0.00009,0.48267 0.00262,1.60202 0.01068,2.21066c0.00824,0.62268 0.03317,1.8548 0.07465,2.43466c0.10303,1.44025 0.38715,2.31497 0.74802,3.18799c0.28934,0.69989 0.98099,1.25378 1.336,1.88669c0.45737,0.81537 1.16208,1.43622 1.66132,2.22665c0.492,0.77899 1.27618,0.77591 2.16934,0.88666c0.89941,0.11151 1.44284,0.87851 2.18533,0.98935l0.93332,0.01199l0.74835,0.05582" id="svg_35" stroke-width="2" stroke="#000" fill="none"/>
  <path t="84594,84738,84746,84746,84758,84761,84761,84773,84773,84773,84784,84784,84784,84786,84786,84786,84797,84801,84820,84820,84820,84824,84825,84840,84856,84856,84856,84872,84880,84881,84895,84896,84896,84898,84922,84922,84922,84928,84928,84928,84928,84944,84944,84944,84960,84960,84969,84969,84976,84976,84986,84993,84993,85003,85003,85008,85019,85019,85024,85036,85052,85053,85053,85056,85072,85080,85081,85081,85088,85088,85096,85112,85112,85120,85120,85120,85128,85128,85144,85168,85176,85200,85200,85200,85208,85219,85224,85224,85240,85240,85248,85248,85256,85272,85280,85280,85288,85304,85312,85320,85328,85328,85336,85337,85354,85354,85360,85371,85378,85378,85384,85393,85401,85409,85409,85424,85441,85441,85449,85449,85466,85481,85482,85489,85490,85512,85700,85700,85700" d="m397,387.53333c1.75717,0 2.65289,0.01865 3.51599,0c0.96384,-0.02084 1.60956,-0.63983 2.15601,-1.14932c0.77667,-0.72415 1.58759,-0.80667 2.37982,-0.84167c1.02588,-0.04532 1.94818,-0.009 2.63217,-0.009c0.99869,0 1.79517,0 2.54666,0c1.22769,0 2.07834,0 3.10269,0c0.672,0 1.41599,0 2.52365,0c0.83401,0 1.68466,0 2.68567,0c0.70801,0 1.68933,0 2.64749,0c0.9765,0 1.66324,0.08734 2.80984,-0.16666c0.6091,-0.13492 1.31052,-0.61691 2.37466,-0.79733c0.93454,-0.15845 1.6907,-0.0307 2.39734,-0.12134c1.20383,-0.15439 1.88843,-0.34457 2.61334,-0.48932c0.73108,-0.14597 2.1279,-0.34247 2.76797,-0.40002c0.88486,-0.07956 1.93231,-0.22394 2.60001,-0.45065c1.0932,-0.37122 1.87195,-0.56934 2.73068,-0.57468c0.86328,-0.00537 1.88644,0.18231 2.616,-0.44266c0.521,-0.44632 0.97342,-1.43201 1.78534,-1.55466c0.92947,-0.14041 1.97025,0.14685 2.70398,-0.03867c0.87189,-0.22046 1.63095,-0.81589 2.57733,-1.13068c0.67526,-0.22461 1.34369,-0.64291 2.19736,-1.22266c0.73123,-0.49658 1.6452,-0.93695 2.04666,-1.47202c0.48596,-0.64767 1.20715,-1.44476 1.93665,-1.77701c0.86212,-0.39264 1.73044,-0.61835 2.46701,-1.06616c0.70813,-0.43051 1.52399,-0.55316 2.33234,-1.18082c0.81052,-0.62933 0.75638,-1.54144 1.46399,-2.12933c0.68439,-0.5686 1.60745,-0.84384 2.556,-1.15201c0.67303,-0.21866 1.49664,-0.24255 2.38669,-0.85867c0.64157,-0.44409 0.69067,-1.47968 1.05731,-2.14932c0.53259,-0.97278 1.12457,-1.53629 2.03751,-1.77267c0.76898,-0.1991 1.42618,-0.74323 1.85184,-1.57349c0.40393,-0.7879 0.43445,-1.67017 0.92532,-2.41785c0.48148,-0.73337 0.38327,-1.69119 0.93634,-2.35684c0.61868,-0.74463 1.69968,-0.36407 2.39551,-1.14734c0.52194,-0.58752 0.60986,-1.62595 0.95883,-2.3558c0.36523,-0.76385 0.22647,-1.746 0.50549,-2.52252c0.30618,-0.85205 1.27393,-1.24176 1.72134,-2.03598c0.41406,-0.73505 0.5546,-1.34818 1.35184,-1.69553c0.77118,-0.336 1.01965,-1.42123 1.28,-2.15799c0.34473,-0.97552 0.10568,-1.92978 0.71066,-2.62c0.59552,-0.67941 1.47562,-0.8996 1.6575,-1.82199c0.16736,-0.84882 0.07849,-1.71133 0.62915,-2.55936l0.49051,-0.47549l0.40366,-0.52698" id="svg_36" stroke-width="2" stroke="#000" fill="none"/>
  <path t="86643,86801,86801,86809,86809,86817,86817,86829,86829,86834,86834,86844,86844,86849,86849,86858,86858,86864,86865,86874,86874,86880,86880,86880,86891,86891,86896,86896,86907,86907,86912,86912,86924,86924,86940,86940,86944,86944,86944,86952,86952,86960,86960,86968,86968,86976,86984,86984,86992,86992,86992,87000,87008,87008,87016,87024,87024,87024,87032,87032,87041,87048,87048,87048,87058,87058,87058,87064,87064,87074,87074,87075,87080,87081,87081,87091,87091,87096,87096,87108,87108,87108,87108,87112,87112,87124,87124,87124,87128,87128,87128,87136,87136,87136,87144,87144,87153,87153,87153,87160,87160,87168,87168,87169,87176,87176,87184,87184,87192,87192,87192,87200,87200,87208,87208,87208,87216,87216,87216,87226,87226,87226,87233,87233,87233,87241,87241,87241,87253,87254,87257,87257,87258,87265,87265,87273,87287,87287,87287,87287,87290,87290,87297,87298,87298,87306,87306,87306,87313,87313,87321,87321,87321,87331,87331,87331,87331,87337,87337,87337,87344,87344,87344,87353,87353,87363,87363,87363,87372,87372,87372,87376,87377,87377,87472,87472,87472,87472,87472,87472,87473,87473,87473,87473,87474,87474,87474,87474,87474,87480,87480,87480,87480,87480,87480,87480,87481,87481,87491,87492,87492,87492,87492,87492,87492,87492,87492,87496,87496,87496,87496,87496,87496,87497,87497,87497,87504,87504,87504,87512,87512,87528,87528,87536,87536,87544,87544,87544,87552,87560,87560,87576,87576,87584,87593,87593,87600,87600,87609,87616,87632,87632,87643,87643,87648,87659,87664,87680,87680,87696,87696,87712,87721,87736,87736,87752,87760,87768,87784,87800,87800,87832,87832,87864" d="m476,237.53333c1.836,0 2.60193,-0.03058 3.60001,0.0045c0.80124,0.02815 1.82309,0.22855 2.564,0.60617c0.84662,0.4315 1.41864,1.08554 2.32132,1.304c0.89685,0.21706 1.92133,0.00583 2.67868,0.12134c0.97318,0.14844 1.58429,0.73012 2.32001,1.44667c0.51297,0.49962 1.34573,1.19151 1.99515,1.49649c0.82538,0.38762 1.47717,0.85223 2.28885,1.22084c0.72028,0.32712 1.56094,0.45166 2.56,1.21066c0.53152,0.40381 1.04266,1.4325 1.47198,2.10533c0.47729,0.74805 1.15741,1.31015 1.96667,1.68401c0.70181,0.3242 1.85187,0.72191 2.23734,1.43599c0.42502,0.78732 0.59601,1.58002 0.996,2.364c0.40009,0.78416 0.85706,1.48293 1.82535,1.96001c0.6731,0.33163 1.31396,0.88045 1.65381,1.56084c0.56241,1.12601 1.01242,1.75116 1.39951,2.57916c0.40018,0.85602 0.76889,1.53516 1.4425,2.22134c0.49414,0.50336 1.17297,1.15973 1.61749,2.04266c0.40698,0.80835 0.96381,1.35394 1.45068,2.05734c0.57727,0.83401 0.51501,1.58951 0.66333,2.5733c0.13098,0.86887 0.61078,1.68945 0.96814,2.54703c0.32739,0.78561 0.70856,1.45486 1.12854,2.24365c0.54932,1.03162 0.73706,1.75824 0.8653,2.40399c0.20099,1.01187 0.50226,1.81253 0.98535,2.81067c0.29315,0.60565 0.70081,1.44482 0.87866,2.42117c0.14325,0.78635 0.04608,1.60596 0.40533,2.6095c0.27106,0.7572 0.64404,1.6402 0.77734,2.25201c0.23108,1.06042 0.49774,1.68784 0.93866,2.6965c0.28888,0.66089 0.78485,1.74893 0.97919,2.5c0.21906,0.84662 0.45551,1.7796 0.59546,2.30615c0.27728,1.04324 0.40344,1.98883 0.42084,2.66733c0.03149,1.23096 -0.00519,2.05023 0.06171,2.59467c0.15704,1.27811 0.45258,1.9371 0.94281,2.95267c0.289,0.59869 0.75787,1.31281 0.94281,2.25635c0.15393,0.78534 0.026,1.79767 0.09888,2.74365c0.04962,0.6442 0.33405,1.79431 0.95831,2.4375c0.60754,0.62592 0.98932,1.23434 1,2.33185c0.00732,0.75146 0,1.548 0,2.54666c0,0.90933 0,1.85068 0,2.63666c0,0.82202 -0.01849,1.88104 0.00452,2.59467c0.02924,0.9064 0.21069,1.87561 0.42084,2.67801c0.2157,0.82367 0.48248,1.85034 0.53864,2.54935c0.07288,0.90707 0.01489,1.91019 0.05682,2.72531c0.04205,0.81747 0.27264,1.81308 0.47919,2.5c0.34937,1.16199 0.46149,1.9473 0.48932,2.73868c0.03259,0.92749 0.01068,1.84 0.01068,2.69333c0,1.06799 0,1.62 0,2.56799c0,0.642 0,1.948 0,2.67599c0,1.08801 0,1.68201 0,2.64801c0,1.17599 0,1.81351 0,2.64267c0,1.04315 0,1.81866 0,2.86667c0,0.71851 0,1.67648 0,2.5c0,0.97198 0,1.66666 0,2.69867c0,0.92517 0,1.70667 0,2.65067c0,1.00134 0,1.81732 0,2.63333c0,1 0,1.90933 0,2.85068c0,0.78598 0,1.608 0,2.66666c0,0.71399 0,1.61932 0,2.58801c0,0.80399 0.03351,1.62656 -0.00098,2.6615c-0.03198,0.96002 -0.1189,1.43878 -0.21503,2.04248c-0.12061,0.75754 -0.28577,1.69403 -0.784,4.20801c-0.32159,1.62265 -0.70294,3.45117 -1.12048,5.436c-0.43964,2.08987 -0.89777,4.2312 -1.36353,6.37198c-0.45465,2.0899 -0.88208,4.07819 -1.68268,7.52536c-0.31952,1.37592 -0.60095,2.51712 -0.84296,3.45148c-0.19617,0.75742 -0.36438,1.3613 -0.50104,1.84052c-0.10889,0.38171 -0.2132,0.68839 -0.32263,1.20801c-0.05334,0.25314 -0.08478,0.51724 -0.11853,0.78598c-0.03424,0.27258 -0.06488,0.54797 -0.1095,0.82202c-0.04449,0.27335 -0.0791,0.55136 -0.27197,1.05865c-0.0954,0.25095 -0.23016,0.4841 -0.37201,0.7095c-0.14093,0.224 -0.2951,0.43604 -0.44403,0.64648c-0.14575,0.2059 -0.30383,0.39767 -0.51733,0.81067c-0.10071,0.19485 -0.20355,1.01065 -0.5,1.83334c-0.302,0.83813 -0.78125,1.64935 -0.82263,2.37732c-0.05615,0.98782 0.05377,1.80554 -0.17737,2.78934c-0.19,0.80862 -0.54913,1.51474 -0.83331,2.5c-0.28381,0.98407 -0.68866,1.64099 -0.91467,2.616c-0.17444,0.75262 0.18579,1.87402 -0.41864,2.55069c-0.49652,0.55588 -1.57245,0.89069 -1.65771,1.68515c-0.09509,0.88596 -0.00897,1.84818 -0.00897,2.74835c0,0.78516 0.09131,1.74396 -0.08533,2.41583c-0.26666,1.01416 -0.88605,1.78262 -0.91467,2.68533c-0.03058,0.96484 0,1.62399 0,2.63199c0,0.86215 0,1.76666 0,2.6875c0,0.80051 0.00006,1.65384 0,2.59384c-0.00012,0.98517 -0.51123,1.49359 -0.94281,2.24698c-0.47787,0.83423 -0.05719,1.63834 -0.05719,2.61685l0,0.82016l0,0.90134" id="svg_37" stroke-width="2" stroke="#000" fill="none"/>
  <path t="88449,88520,88520,88523,88523,88523,88523,88523,88523,88529,88529,88529,88529,88540,88540,88725,88725,88725,88725,88725,88725,88743,88743,88743,88743,88743,88743,88743,88743,88743,88745,88745,88745,88745,88745,88745,88745,88746,88746,88766,88767,88767,88767,88767,88767,88767,88767,88767,88769,88769,88769,88769,88769,88769,88769,88769,88769,88788,88788,88788,88788,88788,88788,88788,88788,88788,88807,88807,88809,88809,88826,88826,88843,88860,88888,88888" d="m479,383.53333c0,1.64584 0.00131,2.39734 -0.00015,3.64951c-0.00064,0.53983 -0.00809,1.73853 -0.02069,2.37134c-0.0127,0.63788 0.02136,1.27234 -0.14581,2.97916c-0.08731,0.89145 -0.26642,1.58188 -0.48068,2.37302c-0.2774,1.02429 -0.33148,1.82718 -0.35333,2.83234c-0.01172,0.53882 -0.07996,1.46158 -0.14334,2.14667c-0.08118,0.87766 -0.19189,1.97925 -0.52264,4.98132c-0.21481,1.94974 -0.46872,4.15445 -0.73502,6.552c-0.28046,2.52509 -0.56345,5.11395 -0.82498,7.70401c-0.25494,2.52466 -0.52979,4.91846 -0.77335,9.07733c-0.09628,1.6442 -0.11618,3.00485 -0.06601,4.10849c0.04022,0.88464 0.1272,1.58395 0.258,2.11951c0.10333,0.4231 0.26428,0.74011 0.47467,1.272c0.0994,0.25128 0.1698,0.51593 0.21902,0.78598c0.0495,0.27145 0.0766,0.54706 0.09299,0.82202c0.01624,0.27243 0.01999,0.54132 0.02133,1.05865c0.00064,0.24518 0,0.48132 0,0.7095c0,0.22116 0,0.43634 0,0.64648c0,0.20618 0,0.40933 0,0.81067c0,0.20001 0,0.39999 0,0.60001c0,0.20001 0,0.39999 0,0.60001c0,0.19998 0,0.39999 0,0.99982c0,0.77936 0,1.77884 0,2.55286c0,0.89999 0,1.76334 0.02084,2.7265l0.33182,0.82083l0.52585,0.80017l0.12015,0.78516" id="svg_38" stroke-width="2" stroke="#000" fill="none"/>
  <path t="89457,89520,89522,89522,89522,89545,89545,89545,89564,89564,89564,89564,89564,89564,89564,89564,89564,89581,89581,89581,89581,89581,89581,89581,89581,89581,89585,89585,89585,89585,89585,89585,89585,89585,89585,89636,89636,89636,89637,89637,89637,89642,89642,89642,89642,89642,89642,89642,89642,89642,89659,89659,89660,89660,89660,89660,89677,89677,89677,89695,89695,89695,89695,89697,89719,89720,89722,89722,89751,89751,89753,89762,89800,89800,89848" d="m426,387.53333c0,1.672 0,2.76935 0,3.52084c0,0.79651 -0.01987,1.80588 0.04166,2.625c0.05322,0.70874 0.28992,2.18781 0.401,2.82584c0.12338,0.70865 0.26413,1.47641 0.40802,2.29498c0.15085,0.85806 0.30328,1.74594 0.444,2.655c0.14203,0.91763 0.37967,2.74426 0.46249,3.63535c0.08102,0.87167 0.13669,1.72845 0.18149,2.57101c0.04413,0.83014 0.07538,1.6507 0.1095,2.46298c0.03387,0.80637 0.11435,2.4093 0.17319,3.20816c0.05853,0.79449 0.12933,1.57852 0.20398,2.3475c0.07275,0.74936 0.14954,1.4733 0.22202,2.16751c0.06882,0.65912 0.18759,1.85239 0.23166,2.37982c0.08023,0.96042 0.10406,1.42346 0.21832,2.37668c0.06259,0.52222 0.39859,2.43018 0.56668,3.22116c0.18353,0.86377 0.3927,1.77798 0.612,2.72549c0.22269,0.96216 0.44894,1.91846 0.66599,2.8515c0.20694,0.88962 0.56207,2.46368 0.6937,3.11618c0.11316,0.56094 0.20016,1.04288 0.267,1.45499c0.10583,0.65265 0.30804,1.76416 0.53333,2.38135c0.34875,0.95551 0.67361,1.81833 0.8595,2.47949c0.28351,1.00842 0.49759,1.63336 0.64734,2.82767c0.12109,0.96579 -0.03201,1.76312 0.07849,2.69684c0.08304,0.70172 0.78156,1.30908 1.41068,1.97333c0.66705,0.70428 0.56799,1.612 0.56815,2.52249l0.03586,0.8175l0.46399,0.84052" id="svg_39" stroke-width="2" stroke="#000" fill="none"/>
  <path t="93981,94065,94066,94073,94082,94082,94082,94100,94100,94105,94112,94112" d="m266,223.53333c1,1.16667 1.59933,1.57602 2.41068,1.98534c0.90988,0.45901 1.42081,0.86961 2.10532,1.532c0.73804,0.71417 1.36801,1.19601 2.13217,1.43001l1.01849,0.21933l0.50134,0.54933" id="svg_40" stroke-width="2" stroke="#000" fill="none"/>
  <path t="94428,94458,94473,94473,94492,94492" d="m272,219.53333c0.80133,1.16934 1.41068,1.86134 1.88535,2.51733l0.76733,0.72101l0.69464,0.39999" id="svg_41" stroke-width="2" stroke="#000" fill="none"/>
  <path t="95012,95073,95080,95089,95097,95140,95141" d="m251,225.53333c0,2.58934 0,3.5 0.01067,4.38934l0.51016,0.6315l0.67784,0.54984l0.36533,0.65067" id="svg_42" stroke-width="2" stroke="#000" fill="none"/>
  <polyline timestamps="95356,95408" startTime="1460699019164" id="svg_43" points="248,235.53333282470703 248.03599999999997,238.12266615804037 " stroke-linecap="round" stroke-width="2" stroke="#000" fill="none"/>
  <path t="95627,95657,95673,95697" d="m236,239.53333" id="svg_44" stroke-width="2" stroke="#000" fill="none"/>
  <polyline timestamps="95915,95970,95992" startTime="1460699019164" id="svg_45" points="234,244.53333282470703 234,247.99166615804035 234,248.833332824707 " stroke-linecap="round" stroke-width="2" stroke="#000" fill="none"/>
  <path t="96199,96272,96282,96282" d="m221,248.53333" id="svg_46" stroke-width="2" stroke="#000" fill="none"/>
  <path t="96498,96520,96538,96576" d="m217,253.53333" id="svg_47" stroke-width="2" stroke="#000" fill="none"/>
  <path t="96727,96752,96816,96816,96835,96835" d="m194,253.53333c2.45833,0.52084 2.94733,1.30901 3.084,1.97067l0.27316,1.03018l0.25351,0.71249" id="svg_48" stroke-width="2" stroke="#000" fill="none"/>
  <path t="97049,97074,97074,97084,97084,97101" d="m198,259.53333c1.64816,1.65717 2.13867,2.21066 2.75717,3.19968l0.222,0.75867l0.30482,0.87234" id="svg_49" stroke-width="2" stroke="#000" fill="none"/>
  <path t="97386,97440,97441,97457,97457,97523,97523,97542,97549,97813,97813" d="m204,257.53333c2.16667,0.83334 2.89221,1.06863 3.65717,1.35266c0.75308,0.27963 1.78519,0.866 2.62849,0.58569c0.83899,-0.27887 0.71434,-1.45917 0.7155,-2.25952l0.25084,-0.8175" id="svg_50" stroke-width="2" stroke="#000" fill="none"/>
  <polyline timestamps="97994,98098" startTime="1460699019164" id="svg_51" points="221,250.53333282470703 222.79999999999998,250.53333282470703 " stroke-linecap="round" stroke-width="2" stroke="#000" fill="none"/>
 </g>
 <g display="none">
  <title>muse_image</title>
  <image xlink:href="http://static.flickr.com/1230/879887762_c07ea779f7.jpg" id="muse" height="480" width="640" y="0" x="0"/>
 </g>
 <g display="none">
  <title>bbox</title>
  <rect stroke="#f00" fill="none" stroke-width="3" height="474.88" width="372.48" y="5.12" x="120.32" id="bbox"/>
 </g>
</svg>
