<svg width="640" height="480" xmlns="http://www.w3.org/2000/svg" xmlns:svg="http://www.w3.org/2000/svg" xmlns:xlink="http://www.w3.org/1999/xlink">
 <!-- Sketchy ANNOTATION
  ImageNet ID: n02503517_5909
  URL: http://farm1.static.flickr.com/62/187899954_357e156a47.jpg
  Image Width: 500
  Image Height: 332
  BBox X: 153
  BBox Y: 74
  BBox Width: 194
  BBox Height: 251
  Exposure: 2000ms
  Synset Label: elephant
  Synset ID: n02503517
  Worker Tag: elephant
  Sanity Check: 
   Context
   Saved
   Shading
  Comment: 
   {}
  Worker ID: AQ9ISCTDF9B48
  Assignment ID: 3TYCR1GOTCJFB2P0LJ2ATH7WPHKZLG
  HIT ID: 3JHB4BPSFK999OP6JOB58V9CJQUQ9T
  Work Time: 151s
  Worker Score: 0.9286
 END ANNOTATION -->
 <g display="inline">
  <title>Layer 1</title>
  <path t="0,134,142,142,157,172,190,207,223,223,243,243,243,256,273,290,290,306,323,323,323,339,339,356,373,374,389,389,406,406,423,423,423,439,456,457,473,489,506,524,540,556,556,573,589,606,607,623,639,656,678,678,702,702,726,726,742,743,750,766,766,782,790,790,806,823,823,839,856,856,856,873,889,889,906,906,923,939,939,956,973,989,989,1007,1023,1023,1040,1040,1057,1073,1089,1106,1123,1139,1156,1156,1173,1189,1189,1206,1206,1223,1223,1239,1240,1240,1256,1273,1273,1289,1289,1306,1323,1323,1339,1339,1356,1373,1389,1389,1406,1407,1423,1423,1439,1440,1440,1456,1456,1473,1473,1489,1490,1506,1506,1506,1524,1524,1524,1539,1539,1539,1556,1556,1573,1573,1589,1590,1607,1607,1607,1623,1623,1623,1623,1639,1640,1640,1656,1656,1657,1673,1673,1689,1689,1706,1706,1723,1723,1739,1739,1739,1756,1756,1773,1789,1806,1807,1807,1823,1823,1839,1839,1856,1856,1873,1873,1889,1889,1906,1907,1923,1939,1956,1973,1973,1989,1989,2014,2014,2030,2046,2056,2073,2089,2089,2106,2123,2139,2156,2156,2173,2189,2190,2206,2207,2223,2223,2240,2257,2257,2273,2273,2289,2289,2290,2306,2307,2323,2323,2339,2340,2356,2357,2373,2373,2389,2406,2407,2438,2438,2462,2462,2462,2478,2502,2526,2539,2540,2558,2574,2590,2614,2646,2679,2679,2694,2718,2750,2766,2798,2822,2838,2854,2854,2894,2918,2942,3014,3118,3158,3166,3182,3182,3198,3214,3223,3240,3256,3257,3273,3273,3289,3290,3290,3307,3307,3323,3323,3339,3340,3340,3355,3356,3373,3373,3373,3373,3389,3390,3390,3390,3406,3406,3406,3423,3423,3423,3439,3440,3456,3457,3473,3473,3489,3505,3506,3524,3524,3539,3555,3556,3556,3573,3589,3590,3606,3606,3606,3623,3639,3640,3655,3673,3689,3705,3723,3723,3739,3755,3773,3789,3790,3806,3823,3823,3823,3839,3840,3840,3855,3856,3856,3873,3873,3873,3889,3890,3905,3906,3923,3923,3939,3940,3940,3955,3956,3956,3973,3973,3973,3990,3990,4006,4006,4006,4006,4023,4023,4023,4024,4039,4040,4040,4056,4056,4073,4073,4089,4090,4112,4112,4126,4126,4126,4139,4140,4156,4173,4190,4190,4206,4223,4246,4247,4262,4278,4278,4294,4310,4334,4350,4350,4382,4414,4422,4478,4478,4502,4518,4534,4542,4556,4574,4590,4590,4606,4606,4623,4624,4640,4657,4657,4673,4674,4690,4706,4707,4723,4723,4740,4740,4756,4757,4757,4774,4774,4790,4790,4791,4806,4806,4823,4823,4840,4856,4856,4873,4873,4874,4890,4891,4906,4907,4923,4940,4940,4940,4956,4956,4957,4973,4974,4974,4990,4991,5006,5006,5023,5040,5056,5073,5074,5074,5090,5090,5106,5106,5123,5140,5155,5173,5174,5190,5207,5238,5238,5254,5270,5310,5310,5342,5350,5358,5374,5391,5406,5423,5439,5455,5473,5473,5489,5505,5526,5526,5542,5559,5559,5590,5606,5630,5646,5670,5670,5694,5702,5734,5758,5774,5774,5782,5798,5799,5814,5823,5823,5839,5856,5856,5873,5889,5890,5906,5923,5923,5923,5939,5940,5955,5956,5973,5973,5990,5990,6006,6023,6040,6040,6056,6073,6073,6089,6105,6106,6123,6123,6140,6156,6173,6189,6190,6206,6206,6223,6223,6278,6326,6326,6526,6540,6540,6556,6556,6556" d="m199,218c-0.87866,-1.2215 -1.19307,-2.12404 -1.7045,-2.7c-0.65021,-0.73227 -0.97018,-1.52661 -1.51683,-2.17867c-0.55782,-0.66537 -0.73752,-1.44528 -0.7995,-2.14217c-0.08769,-0.98608 -0.36571,-1.79562 -0.7805,-2.49384c-0.52762,-0.88811 -1.08975,-1.58374 -1.19867,-2.48534c-0.0965,-0.79874 -0.56435,-1.49109 -1.10001,-2.3215c-0.43671,-0.677 -0.71361,-1.27316 -1.1955,-2.274c-0.3575,-0.74252 -0.58522,-1.67032 -0.87117,-2.57117c-0.27153,-0.85545 -0.73932,-1.65575 -0.82266,-2.45866c-0.08894,-0.8568 -0.01067,-1.62134 -0.01067,-2.79584c0,-0.79349 0,-1.569 0,-2.60815c0,-0.97067 0,-1.77068 0,-2.67067c0,-0.90001 -0.14209,-1.813 0.01067,-2.7c0.14348,-0.83315 0.88719,-1.58813 0.98483,-2.3c0.12242,-0.89256 0.4487,-1.69231 1.10434,-2.40001c0.54996,-0.59363 0.83488,-1.43207 1.25282,-2.2c0.45769,-0.84096 0.77385,-1.7319 1.25801,-2.3c0.63933,-0.75017 1.21065,-1.27185 1.68933,-2.05266c0.41896,-0.6834 0.98575,-1.60332 1.5,-2.146c0.68158,-0.71925 1.3,-1.30135 1.89999,-1.90134c0.7,-0.7 1.2283,-1.38765 1.90001,-1.864c0.80818,-0.57312 1.25279,-1.16766 1.48399,-1.95334c0.26001,-0.88361 1.07855,-1.48953 1.74133,-1.88266c0.68648,-0.40717 1.5564,-0.98174 2.17467,-1.60001c0.61827,-0.61827 1.03419,-1.36526 1.60001,-2.13867c0.54079,-0.7392 1.5369,-0.8976 2.04283,-1.56583c0.52637,-0.69521 0.68906,-1.61958 1.35716,-2.2955c0.57889,-0.58565 1.48109,-0.81708 2.2,-1.28667c0.7104,-0.46404 1.01157,-1.42592 1.5,-2.00349c0.67163,-0.7942 1.46008,-1.14008 2.01601,-1.79384c0.52226,-0.61418 0.91412,-1.44543 1.68399,-1.90134c0.71944,-0.42604 1.09091,-1.23123 1.51733,-2.12799c0.35709,-0.75096 1.15302,-0.73206 2.06134,-1.10817c0.84294,-0.34903 1.49959,-0.99161 2.23199,-1.37851c0.98001,-0.5177 1.59888,-0.76537 2.304,-1.2c0.8875,-0.54704 1.65201,-1.03333 2.48534,-1.2c0.83333,-0.16667 1.5522,-0.65143 2.3,-1.2955c0.66887,-0.57608 1.45831,-0.66272 2.35266,-0.709c0.86595,-0.04482 1.62462,-0.61569 2.54868,-0.91017c0.92334,-0.29425 1.66017,0.0578 2.63199,-0.252c0.71014,-0.22638 1.65082,-0.78087 2.41335,-0.82266c0.91869,-0.05035 1.70497,0.03391 2.49199,-0.04666c1.12785,-0.11546 1.84331,-0.63812 2.74667,-0.88c0.70856,-0.18971 1.7128,-0.31071 2.51466,-0.584c0.99774,-0.34004 1.81013,-0.47824 2.45717,-0.4955c0.96384,-0.02571 1.76816,-0.0045 2.59016,-0.0045c1.26866,0 1.95267,0 2.63666,0c1.26419,0 2.05469,0 2.98267,0c0.8125,0 1.81866,0 2.54401,0c0.98969,0 1.83099,0 2.56,0c1.19867,0 1.89069,0 2.61469,0c0.73199,0 2.12799,0 2.76797,0c0.88501,0 1.92535,0 2.84668,0c0.68399,0 1.68268,0 2.47916,0c1.1875,0 1.8595,0 2.84235,0c0.88916,0 1.87851,0 2.6785,0c1,0 1.79999,0 2.60001,0c0.99548,0 1.74283,-0.00081 2.76401,0c0.83731,0.00067 1.80188,0.16861 2.47198,0.42534c0.76447,0.29288 1.77002,0.48357 2.564,0.62733c1.00998,0.18288 1.78302,0.58211 2.60001,0.78065c0.77747,0.18893 1.83334,0.16667 2.62534,0.16667c1.03183,0 1.77917,0 2.77335,0c0.76532,0 1.82639,-0.21277 2.5173,0.284c0.70032,0.50354 1.41415,0.62456 2.25867,0.752c0.96255,0.14526 1.54794,0.7271 2.47803,0.90685c0.8494,0.16415 1.82648,0.05716 2.64731,0.05716c0.90002,0 1.80002,0 2.70001,0c0.79999,0 1.70001,0 2.60001,0c0.92084,0 1.884,0 2.57465,0c1.06818,0 1.92551,0 2.71069,0c0.95065,0 1.71597,0 2.71014,0c0.91919,0 1.77917,0 2.72601,0c0.88916,0 1.87851,0 2.6785,0c1,0 1.79999,0 2.60001,0c1,0 1.79999,0 2.79868,0c0.76532,0 1.71732,0.0043 2.48532,0c0.95203,-0.00534 1.73398,-0.02966 2.71149,-0.35266c0.76279,-0.25204 1.64606,-0.61874 2.60718,-0.64734c0.76767,-0.02284 1.80914,0.02783 2.58267,-0.036c1.05255,-0.08684 1.74765,-0.33157 2.55301,-0.61134c0.89883,-0.31224 1.86166,-0.35266 2.76166,-0.35266c0.89999,0 1.68811,-0.10608 2.39999,-0.5c0.88596,-0.49025 1.79999,-0.5 2.70001,-0.5c0.89999,0 1.79999,0 2.59998,0c0.90002,0 1.80002,0 2.70001,0c0.89999,0 1.79999,0 2.70001,0c0.89999,0 1.79999,0 2.59998,0c0.90002,0 1.80002,0 2.70001,0c0.89999,0 1.79999,0 2.70001,0c0.89999,0 1.79999,0 2.59998,0c0.90002,0 1.80002,0 2.70001,0c0.89999,0 1.70267,0.00166 2.47067,0c1.03915,-0.00226 1.82559,0.033 2.86267,-0.16667c0.72025,-0.13867 1.54337,-0.5654 2.56665,-0.748c0.79099,-0.14114 1.80002,-0.08533 2.60001,-0.08533c1,0 1.79999,0 2.60001,0c1.009,0 1.672,0 2.73334,0c0.9765,0 1.6875,0 2.41849,0c1.08151,0 2.091,0 2.72733,0c0.91953,0 1.82068,0 2.71017,0c0.85352,0 1.88934,0 2.81067,0c0.68399,0 1.68268,0 2.47916,0c1.1875,0 2,0 2.84216,0c0.85333,0 1.79333,0 2.67868,0c0.88535,0 1.82535,0 2.51599,0c1.00485,0 2.02667,0 2.73468,0c0.74399,0 1.98141,-0.14919 2.74933,0.16667c0.74487,0.30638 1.53433,0.95444 2.25067,1.22266c0.73608,0.27562 1.77585,0.56796 2.74933,0.61067c0.79922,0.03506 1.7265,-0.18375 2.60001,0.036c0.86282,0.21706 1.49387,0.90312 2.39999,0.964c0.79819,0.05363 1.81537,-0.39832 2.64282,0.05716c0.69928,0.38492 1.03186,1.31444 1.87451,1.6575c0.82977,0.33781 1.80676,0.50101 2.52432,0.80617c0.64728,0.27527 1.65005,0.66145 2.45834,1c0.82434,0.34526 1.59308,0.78125 2.26401,1.3045c0.64606,0.50386 1.4444,1.14075 2.21515,1.67467c0.54169,0.37524 1.2233,1.18764 1.7735,1.84734c0.67896,0.81407 1.27722,1.08708 2.22601,1.75267c0.66919,0.46944 1.34689,0.99348 2.04218,1.42082c0.58395,0.35892 1.58484,1.13017 1.97916,1.5c0.60895,0.57114 1.38843,1.39003 2,1.95834c0.58911,0.54745 1.4072,1.12569 2.20001,1.64616c0.80746,0.53011 1.41263,1.02765 2.03598,1.62134c0.45538,0.43373 1.17862,1.18135 1.98935,1.96799c0.54483,0.52866 1.06387,1.05061 2.08798,1.81601c0.6293,0.47032 1.27252,0.78926 1.9295,1.62199c0.51355,0.65096 0.97809,1.44746 1.45718,2.10001c0.52475,0.71469 0.85553,1.49821 1.62131,2.226c0.62033,0.58955 1.54257,1.16382 1.92151,1.674c0.49438,0.66562 1.04703,1.59946 1.55716,2.146c0.66617,0.71371 0.9845,1.57735 1.42151,2.30118c0.4368,0.72348 1.49222,0.91634 1.83118,1.66183c0.38971,0.85715 0.53445,1.67645 1.24731,2.47665c0.61111,0.68599 1.41528,0.93079 1.70001,1.76167c0.28461,0.83047 0.81393,1.42386 1.28534,2.2c0.41083,0.67638 1.3656,1.2189 1.62933,2c0.28922,0.85655 0.31927,1.75827 0.73267,2.5c0.42563,0.76369 0.89587,1.5033 1.23117,2.40001c0.31808,0.85063 0.56763,1.44754 1.03616,2.18533c0.43921,0.69162 0.08533,1.59999 0.08533,2.55066c0,0.76534 0,1.75951 0,2.67867c0,0.86 0,1.80667 0,2.66c0,0.94133 0,1.70934 0,2.65067c0,1.008 0.02539,1.80042 -0.00134,2.66c-0.02863,0.92041 -0.28979,1.91212 -0.49866,2.51466c-0.34521,0.99596 -0.42261,1.80887 -0.58401,2.60001c-0.20721,1.01572 -0.52237,1.6021 -1.01599,2.59999c-0.39658,0.80171 -0.68707,1.4066 -1.19998,2.39551c-0.39026,0.75247 -0.87961,1.53738 -1.40002,2.09999c-0.67438,0.72905 -1.40018,1.40465 -1.93597,1.94051c-0.68536,0.68546 -1.21014,1.18159 -1.71133,1.76849c-0.65936,0.77213 -1.07861,1.6095 -1.65268,2.42883c-0.45929,0.6555 -1.41602,0.96666 -2.10016,1.60966c-0.53317,0.50111 -0.76672,1.17409 -1.55252,2.16151c-0.51016,0.64107 -0.91,1.05418 -1.46332,2.07816c-0.42038,0.77792 -0.67148,1.63063 -1.36801,2.34666c-0.61533,0.63257 -1.59454,0.97469 -2.06934,1.57068c-0.5575,0.69981 -1.06012,1.24536 -1.74664,1.76166c-0.8526,0.6412 -1.10559,1.47142 -1.40002,2.04283c-0.5097,0.98923 -0.83456,1.80351 -1.39999,2.57384c-0.4509,0.61427 -1.45953,0.95834 -1.92532,1.63234c-0.50586,0.73198 -0.89853,1.48332 -1.57468,1.95332c-0.80579,0.5601 -1.41074,1.13408 -2.26132,1.41068c-0.63245,0.20567 -1.58301,0.59621 -2.43866,0.97266c-0.77405,0.34055 -1.4696,0.88335 -2.30002,1.04201c-0.94797,0.18112 -1.39429,0.82877 -2.20132,1.00934c-0.87698,0.19623 -1.79871,-0.004 -2.69867,0.00133c-0.90005,0.00534 -1.60721,0.45294 -2.5,0.83333c-0.75153,0.32019 -1.7085,0.06801 -2.52084,0.1875c-0.98785,0.14531 -1.61865,0.67416 -2.59381,0.89384c-0.86771,0.19547 -1.68552,0.06734 -2.58536,0.08533c-0.90054,0.01801 -1.66959,0.45006 -2.21732,1.19867c-0.50739,0.69348 -1.26712,0.76993 -2.06183,1.30133c-0.66409,0.44408 -1.59042,0.38855 -2.32083,0.85716c-0.79993,0.5132 -1.27942,1.24974 -2.10001,1.61751c-0.78384,0.35129 -1.47574,0.77928 -2.42535,1c-0.99948,0.23232 -1.62433,0.58427 -2.47464,0.97266c-0.87408,0.39923 -1.49133,0.79318 -2.336,1.078c-0.84012,0.28329 -1.69907,0.66168 -2.61136,0.922c-0.90884,0.25934 -1.57074,0.53043 -2.35397,0.76868c-0.98074,0.29834 -1.81409,0.27798 -2.79868,0.56799c-0.61172,0.18018 -1.5932,0.60071 -2.38934,0.67999c-1.03949,0.10352 -1.90616,0.03601 -2.71066,0.03601c-0.91068,0 -1.82132,0.00061 -2.67465,0c-0.94,-0.00067 -1.85803,-0.12558 -2.42535,-0.61066c-0.7467,-0.63843 -1.39999,-1.38934 -1.89999,-1.88934c-0.70001,-0.70001 -1.23221,-1.37769 -2,-1.97917c-0.64865,-0.50815 -1.33865,-0.9301 -1.78534,-1.72217c-0.34198,-0.60638 -0.9957,-1.4626 -1.41467,-2.146c-0.4787,-0.78081 -1.09961,-1.45169 -1.69998,-2.05266c-0.69958,-0.70027 -1.25253,-1.3978 -2.12085,-1.57918c-0.94434,-0.19727 -1.68982,-0.05682 -2.67999,-0.24232l-0.6525,-0.21451l-0.83249,-0.26849" id="svg_1" stroke-width="2" stroke="#000" fill="none"/>
  <path t="7551,7662,7671,7678,7689,7705,7706,7723,7723,7740,7740,7755,7773,7790,7790,7806,7806,7823,7823,7823,7840,7840,7840,7840,7856,7873,7873,7890,7890,7905,7906,7923,7923,7940,7940,7956,7956,7973,7973,7990,7990,8006,8006,8023,8023,8040,8040,8040,8056,8056,8078,8078,8094,8106,8123,8123,8140,8156,8156,8173,8190,8206,8206,8223,8240,8240,8256,8256,8278,8302,8318,8318,8334,8350,8374,8398,8430,8454,8470,8502,8518,8542,8566,8614,8646,8694,8750,8750,8766,8790,8814,8862,8886,8949,8981,8982,9021,9037,9061,9086,9093,9094,9150,9174,9198,9214,9222,9262,9263,9302,9334,9382" d="m198,217c1.7,0.05716 2.52615,0.45639 3.2955,0.94733c0.70534,0.45009 1.052,1.3703 1.59117,1.938c0.58238,0.6132 1.29135,1.286 1.94666,1.948c0.52269,0.52803 0.92358,1.4848 1.52383,2.1185c0.61237,0.64647 1.09229,1.10237 1.64284,1.8815c0.47879,0.6776 1.32997,1.25374 2.04167,1.70834c0.65282,0.41699 1.38423,0.99548 2.17299,1.69833c0.52719,0.46977 0.98936,0.94507 1.97101,1.59749c0.79404,0.52773 1.20674,1.31723 1.981,1.82918c0.72614,0.48013 1.63426,0.63849 2.00133,1.22c0.50082,0.79341 1.18271,1.46179 1.8105,2.09183c0.60974,0.61194 1.29245,1.36336 1.90683,1.8215c0.73528,0.54828 1.49971,0.92804 2.51334,1.11467c0.75626,0.13924 1.765,-0.05893 2.48534,0.256c0.86366,0.37759 1.29475,1.05562 2.116,1.66266c0.772,0.57065 1.39468,0.87286 2.39867,1.36534c0.76138,0.37347 1.62039,0.55814 2.39999,0.88533c0.86642,0.36363 1.66539,0.75986 2.40134,1.20134c0.67862,0.40709 1.27457,1.2411 2,1.91333c0.58046,0.53789 1.46637,0.71732 2.2,1.23734c0.78714,0.55797 1.3,1.26399 1.90001,1.864c0.7,0.7 1.3,1.3 1.89999,1.89999c0.60001,0.60001 1.3627,1.25435 1.716,2c0.40695,0.85886 0.88255,1.4563 1.07333,2.40001c0.17432,0.86227 0.74217,1.25098 1.39999,1.836c0.69284,0.61615 0.36375,1.79822 0.89467,2.47998c0.48795,0.62659 1.28792,1.02887 1.74133,1.69467c0.49553,0.72763 1.4381,1.00726 1.88934,1.67468c0.5146,0.76114 0.1927,1.94324 0.78983,2.35748c0.78896,0.5473 1.7955,0.35718 2.6955,0.35718c0.89999,0 1.80002,0 2.70001,0c0.89999,0 1.694,0.09561 2.39999,0.5c0.79343,0.45447 1.70001,0.5 2.60001,0.5c0.89999,0 1.69998,0 2.60001,0c0.89999,0 1.79999,0.00223 2.69998,0c0.89999,-0.00226 1.80002,-0.284 2.39999,-0.716l0.90002,-0.27951l0.89999,-0.0405l0.79999,-0.39999" id="svg_2" stroke-width="2" stroke="#000" fill="none"/>
  <path t="14206,14294,14302,14310,14322,14338,14338,14355,14355,14373,14373,14390,14390,14406,14423,14423,14439,14439,14456,14456,14473,14473,14473,14491,14491,14506,14523,14523,14540,14556,14556,14573,14573,14589,14606,14606,14623,14623,14623,14646,14647,14678,14678,14710,14710,14726,14726,14742,14742,14750,14758,14758,14773,14806,14822,14822,14838,14862,14886,14886,14894,14918,14934,14934,14958,14966,14974,14990,15006,15023,15038,15038,15055,15055,15078,15088,15088,15110,15122,15138,15138,15158,15198,15198,15214,15238,15246,15286,15302,15614,15662,15710,15774,15942,15990,16030,16062,16078,16102,16150,16150,16174,16174,16206,16246,16262,16262,16302,16358,16382,16382,16398,16438,16462,16478,16494,16510,16534,16534,16590,16606,16606,16646,16670,16670,16718,16742,16766,16782,16806,16830,16830,16862,16878,16894,16910,16910,16934,16950,16950,16974,16990,17006,17022,17022,17054,17054,17078,17078,17086,17094,17118,17142,17166,17206,17206,17214,17223,17246,17255,17286,17286,17294,17318,17334,17350,17366,17390,17414,17414,17430,17438,17454,17470,17486,17518,17598,17598,17646,17718,17718,18126,18150,18190,18222,18246,18262,18318,18318,18334,18366,18390,18414,18438,18438,18462,18502,18510,18550,18558,18598,18654,18662,18710,18774,18870,18926,18926,18942,18966,19006,19014,19038,19038,19062,19094,19110,19118,19134,19182,19182,19214,19254,19278,19302,19486,19486,19526,19558" d="m276,262c0,1.79999 0,2.70001 0,3.60001c0,0.81067 0,1.7215 0,2.61066c0,0.98917 0,1.76849 0,2.76801c0,0.77399 0.11853,1.69455 -0.08533,2.53732c-0.21481,0.88803 -0.86691,1.68176 -0.91333,2.36935c-0.06403,0.94858 -0.01563,1.7381 -0.35852,2.71466c-0.28894,0.82288 -0.74283,1.60001 -1.14282,2.39999c-0.29999,0.60001 -0.83664,1.5777 -1.14282,2.34283c-0.353,0.88211 -0.55023,1.78122 -1.06168,2.35718c-0.65021,0.73227 -1.12735,1.53918 -1.46484,2.18533c-0.43335,0.82962 -1.22394,1.40179 -1.66132,2.22931c-0.4425,0.83722 -0.82916,1.53149 -1.26935,2.42801c-0.3389,0.69025 -0.53683,1.48422 -1,2.31451c-0.44214,0.79263 -0.99411,1.46765 -1.39999,2.14282c-0.59146,0.98386 -1.13196,1.60345 -1.60001,2.32132c-0.43027,0.65991 -0.95676,1.47284 -1.46399,2.26801c-0.43423,0.68076 -0.79544,1.56302 -1.15201,2.21066c-0.47552,0.86368 -1.06879,1.46298 -1.45065,2.20001c-0.39063,0.75397 -0.70938,1.56781 -1.19052,2.29999c-0.52194,0.79425 -1.24951,1.27951 -1.61749,2.10001c-0.35101,0.78262 -0.76755,1.63449 -1.10933,2.39999c-0.33199,0.74356 -0.83719,1.51685 -1.416,2.20001c-0.50331,0.59406 -1.26137,1.06332 -1.55267,1.76166c-0.36252,0.86902 -0.58823,1.63138 -1.24733,2.48117c-0.45821,0.59076 -1.21967,1.23813 -1.79984,1.85718c-0.63708,0.67978 -0.81615,1.56638 -1.33617,2.29999c-0.55797,0.78714 -1.164,1.20001 -1.864,1.89999c-0.70001,0.70001 -1.09198,1.25455 -1.67467,2.08936c-0.46104,0.66055 -1.01869,1.23834 -1.45067,2.01065c-0.45757,0.81808 -0.88348,1.55383 -0.77199,1.60001c0.82904,0.34335 1.67296,-0.11862 2.25,-0.64734c0.6913,-0.63342 1.29446,-1.18524 1.89465,-1.70532c0.65361,-0.56635 1.36652,-0.98978 2.05267,-1.64734c0.51053,-0.48926 1.11913,-1.31134 1.8,-1.71466c0.82715,-0.48996 1.69081,-0.81586 2.3,-1.38516c0.59123,-0.55252 1.56636,-0.81616 2.29999,-1.33618c0.78714,-0.55795 1.15727,-1.20984 1.89999,-1.8595c0.66446,-0.58121 1.37994,-0.98828 1.98401,-1.62048c0.55035,-0.57599 0.88412,-1.44666 1.716,-1.91736c0.63846,-0.36124 1.50516,-0.68222 2.20001,-1.36667c0.50375,-0.49622 1.21759,-1.1828 1.89981,-1.89999c0.55774,-0.58633 0.83496,-1.43204 1.25284,-2.19998c0.45758,-0.84091 0.27051,-1.88 0.814,-2.53336c0.57397,-0.69 1.58313,-0.71237 1.8125,-1.66666c0.21045,-0.87561 0.42972,-1.62729 0.85419,-2.5c0.32086,-0.65967 0.70844,-1.48032 1.36533,-2.20001c0.53348,-0.5845 0.79245,-1.41803 1.22665,-2.19998c0.4556,-0.8205 0.80176,-1.69614 1.18533,-2.23599c0.59814,-0.84186 0.95297,-1.56247 1.48917,-2.3425c0.50949,-0.74118 0.74686,-1.53601 0.91086,-2.42151c0.15381,-0.83047 1.18802,-1.13202 1.82266,-1.76666c0.63464,-0.63464 0.57886,-1.53256 1.16666,-2.3125c0.4931,-0.65427 1.50937,-0.88675 1.91599,-1.72086c0.36734,-0.75357 0.73135,-1.5 1.08401,-2.29999c0.35266,-0.79999 0.67328,-1.72778 1.22134,-2.37866c0.55762,-0.66226 0.61499,-1.37863 1,-2.22134c0.30579,-0.66931 0.43292,-1.57947 0.7995,-2.37915c0.33496,-0.73074 1.57718,-0.84943 1.89383,-1.72086c0.30875,-0.8497 0.21091,-1.83267 0.69598,-2.39999c0.63843,-0.7467 1.45233,-1.34647 1.8685,-1.89999c0.55569,-0.73904 0.66357,-1.78513 0.16818,-2.44733c-0.51807,-0.6925 -1.19052,-1.25595 -1.52585,-2.15268c-0.31808,-0.85065 0.24286,-1.81073 -0.17865,-2.54282c-0.46725,-0.81149 -1.3407,-1.04047 -1.89017,-1.71436c-0.57352,-0.7034 -0.90451,-1.41144 -1.04819,-2.34283c-0.13721,-0.8895 -0.00223,-1.79999 -0.00449,-2.69998c-0.00226,-0.89551 -0.67136,-1.40649 -0.97916,-2.12085c-0.38754,-0.89944 -0.02017,-1.87915 -0.02084,-2.77916c-0.00067,-0.89999 -0.01767,-1.86241 -0.7045,-2.34283c-0.74884,-0.5238 -1.48068,0.132 -2.12885,0.80951c-0.60495,0.63232 -1.29465,1.02197 -1.86667,1.53783c-0.7272,0.65579 -0.98145,1.52786 -1.58398,2.2115c-0.52673,0.59764 -1.15836,1.19582 -1.54935,2.084c-0.28952,0.65765 -0.1647,1.61963 -0.59198,2.39999c-0.45038,0.8226 -0.57468,1.70001 -0.57468,2.60001l0,0.79999l0,0.90002l0,0.89999" id="svg_3" stroke-width="2" stroke="#000" fill="none"/>
  <path t="21598,21813,21909,21941,21957,22005,22013,22037,22053,22069,22085,22109,22157,22157,22181,22205,22213,22261,22285,22301,22333,22333,22373,22469,22469,22669,22741,22749,22773,22789,22789,22805,22813,22829,22845,22855,22872,22888,22888,22909,22922,22922,22938,22965,22989,22997,23005,23021,23053,23053,23069,23069,23093,23117,23133,23141,23157,23173,23197,23229,23229,23245,23253,23277,23293,23309,23325,23349,23365,23365,23373,23389,23405,23422,23438,23455,23472,23501,23501,23525,23541,23557,23581,23605,23613,23637,23653,23653,23677,23685,23709,23733,23741,23757,23773,23788,23788,23814,23830,23845,23861,23893,23917,23917,23933,23949,23957,23981,24005,24013,24045,24069,24093,24093,24125,24125,24149,24157,24173,24189,24205,24205,24222,24238,24255,24272,24272,24288,24305,24322,24322,24339,24355,24356,24372,24372,24388,24389,24389,24406,24406,24406,24423,24423,24423,24439,24456,24456,24472,24473,24473,24489,24506,24506,24523,24541,24541,24556,24556,24573,24573,24589,24589,24606,24623,24623,24639,24639,24656,24656,24673,24689,24706,24706,24723,24723,24740,24756,24772,24789,24806,24832,24853,24869,24869,24885,24917,24949,24957,24989,25021,25077,25093,25093,25141,25173,25197,25206,25261,25293,25309,25341,25341,25365,25421,25445,25493,25493,25509,25549,25565,25653,25653,25749,26085,26149,26189,26237,26325,26421,26573,26686,26798,26862,26918,26918,26982,27070,27150,27238,27262,27262,27326,27486,27542,27542,27574,27630,27662,27686,27726,27814,27854,27950,27950,27982,27982,28022,28046,28094,28126,28158,28182,28182,28230,28230,28270,28278,28310,28350,28350,28374,28390,28398,28438,28462,28478,28510,28526,28526,28542,28566,28582,28598,28622,28622,28646,28670,28718,28734,28742,28758,28758,28772,28788,28804,28822,28839,28862,28862,28886,28902,28910,28926,28942,28955,28974,28974,28990,29006,29006,29022,29038,29055,29055,29072,29072,29088,29089,29105,29122,29138,29139,29155,29172,29172,29188,29205,29222,29239,29239,29255,29255,29272,29294,29294,29310,29310,29334,29350,29358,29374,29398,29398,29406,29423,29439,29455,29455,29473,29473,29489,29505,29505,29522,29540,29556,29556,29573,29573,29589,29605,29605,29623,29639,29639,29662,29662,29672,29689,29705,29722,29723,29739,29739,29755,29772,29772,29789,29789,29805,29805,29822,29822,29839,29855,29855,29878,29889,29889,29910,29926,29939,29958,29958,29982,29992,30022,30038,30053,30054,30062,30078,30094,30110,30134,30158,30158,30166,30182,30206,30214,30238,30269,30270,30318,30318,30342,30374,30382,30437,30478,30525,30558,30558,30589,30605,30621,30661,30733,30973,31205,31245,31413,31414,31541,31653,31654,31661,31678,31688,31789,31965,31966,31973,32045,32109,32110,32141,32205,32221,32230,32246,32285,32286,32333,32341,32342,32357,32429,33293,33365,33365,33413,33437,33453,33501,33557,33557,33589,33613,33645,33654,33678,33689,33689,33705,33722,33739,33757,33758,33772,33789,33789,33805,33822,33822,33839,33839,33855,33855,33872,33893,33894,33905,33923,33939,33939,33954,33955,33972,33972,33989,33989,33989,34005,34005,34005,34022,34022,34039,34039,34039,34055,34055,34072,34089,34089,34105,34105,34122,34122,34123,34139,34139,34155,34173,34197,34237,34238" d="m290,271c1.71466,1.08401 2.31299,1.75183 2.91599,2.284c0.64185,0.56644 1.4057,0.52112 2.28268,0.71735c0.80704,0.18057 1.34586,0.78918 2.09683,1.35583c0.66907,0.50482 0.91306,1.3862 1.7045,1.80948c0.74881,0.40045 1.39905,0.91434 2.05267,1.48068c0.60019,0.52005 1.25534,1.11966 1.89465,1.70532c0.58325,0.53433 1.27222,0.9108 1.85266,1.44867c0.72543,0.67224 1.32141,1.50626 2,1.91333c0.73596,0.4415 1.79813,0.61389 2.11469,1.48535c0.30865,0.8497 0.08533,1.79999 0.08533,2.59998c0,0.90002 0,1.80002 0,2.70001c0,0.89999 0,1.79999 0,2.70001c0,0.90015 0,1.68533 0,2.62534c0,1.008 0,1.76398 0,2.67465c0,0.89999 -0.19489,1.82169 0.00134,2.69867c0.18057,0.80704 0.92358,1.26358 1.22,2.12265c0.23929,0.69354 0.71646,1.65063 0.77731,2.47736c0.06616,0.8989 0.00134,1.80133 0.00134,2.70132c0,0.89999 0,1.79999 0,2.70001c0,0.89999 0,1.79999 0,2.59998c0,0.90002 0,1.80002 0,2.70001c0,0.89999 0,1.79999 0,2.70001c0,0.89999 0,1.79999 0,2.59998c0,0.90002 0,1.80002 0,2.70001c0,0.89999 0,1.79999 0,2.70001c0,0.89999 0,1.79999 0,2.59998c0,0.90002 0,1.80002 0,2.70001c0,0.89999 0,1.79999 0,2.70001c0,0.89999 0,1.79999 0,2.59998c0,0.90002 0,1.80002 0,2.70001c0,0.89999 0,1.79999 0,2.70001c0,0.89999 -0.17355,1.83823 0.08533,2.59998c0.30176,0.88794 0.89667,1.59946 0.91467,2.5c0.01801,0.89984 0,1.80002 0,2.70001c0,0.79999 -0.36316,1.79691 0.03601,2.564c0.39514,0.7594 0.96332,1.23734 0.96399,2.13602c0.00067,0.89999 -0.00009,1.79999 0,2.71066c0.00009,0.91064 -0.10406,1.81262 0.284,2.70398c0.32294,0.74176 0.71066,1.48529 0.716,2.38535c0.00534,0.89996 -0.13657,1.85663 0.284,2.70001c0.32993,0.66162 0.71375,1.5 0.716,2.39999c0.00229,0.92084 0,1.884 0,2.57465c0,1.06818 0,1.92535 0,2.82535c0,0.79999 0,1.75717 0,2.65717c0,0.74734 0,1.74283 0,2.54285c0,1.00015 0,1.82083 0,2.48532c0,1 0,1.83551 0,2.716c0,1.19598 0,1.77734 0,2.828c0,0.96082 0,1.93732 0,2.60666c0,1.164 0,1.95334 0,2.67868c0,0.98532 0,1.96933 0,2.65997c0,1.07269 0,1.992 0,2.82535c0,0.83334 0,1.75266 0,2.65717c0,0.74734 0,1.74152 0,2.50684c0,1.08334 0,2.00266 0,2.836c0,0.83334 0,1.75266 0,2.65268c0,0.69464 0,1.71133 0,2.65182c0,0.86215 0,1.6955 0,2.67398c0,0.82019 0,1.72153 0,2.62152c0,0.89999 0,1.79999 0,2.69998c0,0.90002 0,1.80002 0,2.70001c0,0.79999 0,1.70001 0,2.60001c0,0.89999 0,1.79999 0,2.69998c0,0.90002 0,1.80002 0,2.70001c0,0.79999 0,1.70001 0,2.60001c0,0.89999 0,1.79999 0,2.69998c0,0.90002 0,1.80002 0,2.70001c0,0.79999 -0.3707,1.42892 -0.87851,2.2215c-0.47845,0.74673 0.04666,1.81494 -0.20682,2.57849c-0.25635,0.77219 -0.77905,1.50854 -0.91602,2.40002c-0.14066,0.91562 -0.96475,1.24899 -1.64148,1.85266c-0.55307,0.49335 -0.79837,1.67294 -0.32117,2.51132c0.39359,0.6915 1.564,0.436 2.46399,0.436c0.89999,0 1.79999,0 2.70001,0c0.89999,0 1.79999,0 2.59998,0c0.90002,0 1.82516,0.0119 2.60001,-0.42532c0.72626,-0.40979 1.6004,-0.54932 2.39999,-0.57468c0.9014,-0.02859 1.73102,-0.49036 2.39868,-1.20001c0.54224,-0.57635 0.78641,-1.40005 0.80133,-2.29999c0.01624,-0.97925 0.77481,-1.43661 0.99551,-2.2045c0.24738,-0.86069 -0.01898,-1.81665 0.00583,-2.77951c0.01782,-0.69128 0.37592,-1.57999 0.71466,-2.31467c0.39511,-0.85699 0.27866,-1.80136 0.284,-2.70132c0.00534,-0.90005 0.41837,-1.62274 0.83334,-2.5c0.3371,-0.71259 0.54822,-1.64111 0.814,-2.34732c0.33215,-0.88257 0.27054,-1.85648 0.35281,-2.75269c0.08368,-0.91144 0.42392,-1.59042 0.99985,-2.37915c0.46753,-0.64029 0.99774,-1.22534 1,-2.12085c0.00226,-0.89999 -0.09399,-1.84708 0.35266,-2.69998c0.39395,-0.75226 0.64667,-1.5 0.64734,-2.40002c0.00067,-0.89999 -0.05295,-1.83475 0.35266,-2.59998c0.44839,-0.84595 0.77081,-1.47711 1.22202,-2.30002c0.42773,-0.78012 0.42532,-1.69998 0.42532,-2.60001c0,-0.89999 0,-1.79999 0,-2.59998c0,-0.90002 -0.00958,-1.80008 0,-2.70001c0.01044,-0.97931 0.72769,-1.49582 0.94284,-2.20984c0.23352,-0.77499 0.05716,-1.87949 0.05716,-2.79016c0,-0.89999 0,-1.79999 0,-2.70001c0,-0.89999 0,-1.79999 0,-2.59998c0,-0.836 0,-1.68402 0,-2.54733c0,-1.01669 0,-1.95267 0,-2.854c0,-0.68402 0,-1.63467 0,-2.39999c0,-0.99417 0,-1.91336 0,-2.87784c0,-0.82535 0,-1.84216 0,-2.52084c0,-0.97849 0,-2 0,-2.79999c0,-0.90002 0,-1.80002 0,-2.61069c0,-0.91064 0,-1.76398 0,-2.70532c0,-0.76801 0,-1.70935 0,-2.71735c0,-0.79199 0,-1.65067 0,-2.51398c0,-1.01669 0,-1.95267 0,-2.85269c0,-0.89999 0,-1.79999 0,-2.59998c0,-0.90002 0,-1.80002 0,-2.61069c0,-0.91064 0,-1.76398 0,-2.70532c0,-0.76801 0,-1.70935 0,-2.71735c0,-0.86215 -0.08658,-1.77246 0.01068,-2.57733c0.11212,-0.92795 0.60086,-1.55319 0.86783,-2.56781c0.21094,-0.80167 0.10745,-1.67447 0.47415,-2.67419c0.25986,-0.7084 0.61874,-1.59332 0.64734,-2.51398c0.02588,-0.83295 -0.02771,-1.81229 0,-2.63202c0.02859,-0.84561 0.83652,-1.34241 0.97916,-2.22217c0.15335,-0.94571 0.02084,-1.73181 0.02084,-2.63184c0,-0.86331 -0.04138,-1.86505 0.22134,-2.66864c0.28702,-0.87787 0.71368,-1.65164 0.77731,-2.56268c0.05386,-0.7713 0.03262,-1.73346 0.354,-2.71149c0.19055,-0.57983 0.61874,-1.6459 0.64734,-2.50467c0.02612,-0.78476 0,-1.72519 0,-2.73318c0,-0.75598 -0.05289,-1.70139 0.35266,-2.46664c0.4483,-0.84592 0.64734,-1.70001 0.64734,-2.5c0,-0.90002 -0.00195,-1.81964 0.42532,-2.60001c0.45038,-0.8226 0.57468,-1.60001 0.57468,-2.39999c0,-0.90002 0,-1.80002 0,-2.70001c0,-0.89999 -0.13657,-1.85663 0.284,-2.70001c0.32993,-0.66162 0.71375,-1.5 0.716,-2.39999c0.00223,-0.89999 -0.13315,-1.81055 0.00449,-2.69998c0.14438,-0.93298 0.75464,-1.42343 1.29102,-2.35269c0.38824,-0.67261 0.67581,-1.58887 0.7045,-2.54733c0.02692,-0.89941 0.50723,-1.40897 0.94284,-2.15717c0.42508,-0.73013 0.358,-1.69366 0.7045,-2.34283c0.45334,-0.84937 0.44214,-1.71735 0.92734,-2.32532c0.49838,-0.62451 0.26013,-1.59387 0.44617,-2.47467c0.17899,-0.84738 0.91827,-1.59387 0.97916,-2.5c0.05362,-0.79819 -0.01404,-1.65295 0.35266,-2.65268c0.25986,-0.7084 0.51163,-1.64679 1.07266,-2.32199c0.50668,-0.60977 0.90659,-1.3494 1.57468,-2.02533c0.57889,-0.58566 1.40988,-0.86545 2.29999,-1.00449c0.81882,-0.1279 1.1615,-0.95068 1.75269,-1.63834c0.5665,-0.65894 1.36893,-1.06039 2.34732,-1.32117c0.87051,-0.23203 1.72604,-0.22687 2.30002,-0.74051c0.73532,-0.65802 1.32211,-1.49637 2,-1.93832c0.73392,-0.47849 1.63763,-0.68311 2.17883,-1.457c0.49454,-0.70715 1.42581,-0.49945 2.00684,-1.25735c0.57782,-0.75372 0.37943,-2.01825 -0.17102,-2.55881c-0.62067,-0.6095 -1.37189,-0.90909 -1.76733,-1.78403c-0.3266,-0.72263 -0.75513,-1.51666 -0.94748,-2.39981c-0.18417,-0.84555 -0.70239,-1.39883 -1.05252,-2.19485c-0.35806,-0.81406 -0.84705,-1.41846 -0.96817,-2.22617c-0.14807,-0.98743 -0.58807,-1.64209 -0.89514,-2.59381c-0.28253,-0.8757 -0.73764,-1.44577 -1.37952,-2.18535c-0.57861,-0.66669 -0.69708,-1.4799 -1.06168,-2.35266c-0.29938,-0.71664 -1.04626,-1.53551 -1.35748,-2.23134c-0.39758,-0.88893 -0.2767,-1.94937 -0.28534,-2.70534c-0.01044,-0.91084 -0.49283,-1.65082 -0.83334,-2.57733c-0.23166,-0.63028 -0.07336,-1.67645 -0.20267,-2.45866c-0.14603,-0.88342 -0.58273,-1.58138 -1.06381,-2.57483c-0.29449,-0.60812 -0.67447,-1.47505 -0.81485,-2.48384c-0.11282,-0.81073 -0.06555,-1.6322 -0.08667,-2.63066c-0.01852,-0.87515 -0.21378,-1.88748 -0.42398,-2.48534c-0.28235,-0.80298 -0.54471,-1.79425 -0.57333,-2.71466c-0.02673,-0.85959 -0.00134,-1.80684 -0.00134,-2.696c0,-0.98933 0,-1.78934 0,-2.78934c0,-0.8 0,-1.60001 0,-2.5955c0,-0.74733 0,-1.76849 0,-2.60449l0,-0.90001l0,-0.89999l0,-0.8" id="svg_4" stroke-width="2" stroke="#000" fill="none"/>
  <path t="41373,41653,41677,41677,41693,41693,41693,41701,41717,41733,41733,41741,41741,41757,41757,41772,41788,41804,41821,41838,41838,41854,41871,41871,41887,41904,41904,41921,41921,41938,41954,41954,41971,41987,41987,42005,42021,42021,42038,42038,42054,42054,42071,42087,42087,42104,42104,42121,42121,42138,42154,42154,42171,42171,42187,42187,42204,42222,42222,42260,42300,42301,42332,42412,42428,42452,42452,42492,42740,42780,42804,42828,42852,42868,42884,42916,42925,42964,42988,43012,43052,43068,43100,43132,43164,43196,43196,43220,43244,43252,43276,43308,43324,43348,43380,43380,43468,43477,43516,43548,43572,43596,43620,43644,43644,43676,43716,43716,43732,43788,43788,43836,43852,43868,43892,43908,43940,43988,44012,44044,44044,44076,44117,44133,44181,44181,44197,44221,44253,44253,44277,44293,44317,44325,44381,44397,44429,44445,44454,44493,44541,44613,44613,44645,44845,44846,44885,44973" d="m363,277c0.436,-0.02533 1.27603,0.22552 1.70001,0.81885c0.62305,0.87189 0.7019,1.71375 1.09998,2.32782c0.62463,0.96362 1.16776,1.52011 1.48535,2.33734c0.27652,0.71158 1.00699,1.57599 1.35748,2.26865c0.42706,0.84396 0.37305,1.75504 1.06168,2.2955c0.71387,0.56027 1.15997,1.26038 1.29684,2.15186c0.14059,0.91577 0.79941,1.45364 0.97781,2.32083c0.19412,0.94363 -0.05539,1.83008 0.02533,2.7265c0.08371,0.92975 0.3681,1.61621 0.99551,2.586c0.4368,0.67517 0.95728,1.36365 1,2.26682c0.03708,0.7843 -0.14935,1.7634 0.16666,2.73318c0.22516,0.69101 0.72455,1.48743 1,2.33331c0.27792,0.85342 0.73932,1.65579 0.82266,2.45868c0.08868,0.85416 -0.09619,1.72867 0.02136,2.74933c0.11096,0.96344 0.57672,1.59549 0.82266,2.45868c0.2558,0.89777 0.16666,1.81934 0.16666,2.51398c0,1.02734 -0.00003,1.97418 0,2.67352c0.00009,1.17899 -0.11578,1.99329 0.16666,2.8125c0.28,0.81216 0.81534,1.57681 0.83334,2.48798c0.01688,0.85318 0,1.79333 0,2.67868c0,0.79999 0.05545,1.70096 0.5,2.5c0.44562,0.80093 0.82614,1.53665 1.216,2.29999c0.38452,0.7529 0.22235,2.13571 0.98849,2.13834c0.90826,0.00311 1.84708,-0.63678 2.23834,-1.2955c0.48022,-0.80847 0.72766,-1.44968 1.03632,-2.16367c0.34894,-0.80719 -0.17404,-1.80084 0.02219,-2.67783c0.18057,-0.80704 0.98822,-1.32199 0.99866,-2.20132c0.01068,-0.89993 0,-1.80002 0,-2.70001c0,-0.89999 0,-1.69998 0,-2.60001c0,-0.89999 0,-1.79999 0,-2.69998c0,-0.89999 0,-1.80002 0,-2.70001c0,-0.89999 0,-1.69998 0,-2.60001c0,-0.89999 0,-1.79999 0,-2.69998c0,-0.89999 0,-1.80002 0,-2.70001c0,-0.89999 0.1004,-1.71039 -0.03601,-2.53598c-0.14404,-0.8717 -0.61752,-1.70929 -0.91132,-2.60684c-0.27994,-0.85526 -0.8512,-1.41348 -1.04199,-2.35718c-0.17432,-0.86227 -0.82513,-1.38803 -1.0062,-2.10449c-0.24393,-0.96518 0.04196,-1.82889 -0.42981,-2.6955c-0.39877,-0.73248 -0.8168,-1.55377 -1.22202,-2.30002c-0.41327,-0.76111 -0.2572,-1.74454 -0.63666,-2.5c-0.43558,-0.86719 -0.52347,-1.63333 -0.77316,-2.5c-0.22034,-0.76483 -1.16162,-1.31076 -1.58566,-2c-0.50534,-0.82138 -0.44666,-1.71735 -0.93185,-2.32532c-0.49838,-0.62451 -0.61411,-1.46643 -1.14133,-2.05869c-0.53607,-0.60217 -0.74982,-1.58136 -1.25867,-2.30533c-0.50281,-0.71533 -1.00964,-1.27112 -1.30933,-2.09467c-0.32028,-0.88019 -0.66333,-1.75882 -0.9375,-2.61581l-0.483,-0.543l-0.8595,-0.38251l-0.48868,-0.67917" id="svg_6" stroke-width="2" stroke="#000" fill="none"/>
  <path t="48918,49101,49110,49126,49139,49157,49173,49173,49189,49205,49245,49245,49277,49277,49277,49293,49301,49317,49317,49333,49341,49365,49381,49397,49397,49413,49437,49454,49469,49477,49494,49510,49533,49533,49549,49557,49573,49588,49605,49605,49622,49622,49639,49640,49640,49655,49655,49655,49655,49672,49672,49688,49689,49705,49705,49722,49722,49722,49740,49740,49755,49755,49772,49772,49788,49788,49805,49805,49822,49822,49822,49840,49840,49855,49855,49872,49888,49905,49925,49957,49957,49981,49997,49997" d="m366,261c1.70001,-0.05716 2.44852,-0.54022 2.94733,-1.2955c0.46109,-0.69818 1.48404,-0.96902 1.88602,-1.7045c0.40207,-0.73563 0.82162,-1.56512 1.14133,-2.41066c0.33377,-0.88271 0.54346,-1.6115 1.02533,-2.58934c0.29385,-0.59631 0.77795,-1.30981 0.96399,-2.364c0.14545,-0.8241 0.33688,-1.68683 0.68335,-2.336c0.45334,-0.84938 0.2106,-1.813 0.36334,-2.7c0.14346,-0.83315 0.9043,-1.5874 0.98798,-2.40001c0.09219,-0.89526 0.00134,-1.8 0.00134,-2.7c0,-0.89999 0,-1.8 0,-2.7c0,-0.90001 0,-1.8 0,-2.60001c0,-0.89999 0,-1.8 0,-2.7c0,-0.89999 0,-1.80901 0,-2.47067c0,-1.03915 0,-1.81467 0,-2.86266c0,-0.71851 0.00366,-1.6765 -0.00015,-2.80917c-0.0022,-0.65834 0.04193,-1.3429 -0.08517,-2.30417c-0.13348,-1.00945 -0.64404,-1.77403 -0.862,-2.71049c-0.17108,-0.73508 -0.35104,-1.73775 -0.62735,-2.54283c-0.27295,-0.79524 -0.4043,-1.5995 -0.42398,-2.40001c-0.02457,-0.99971 0.00372,-1.81618 -0.28534,-2.79999c-0.23996,-0.81665 -0.56995,-1.80409 -0.716,-2.57918c-0.18958,-1.00604 -0.65164,-1.61909 -1.09982,-2.34233c-0.41907,-0.67627 -0.74915,-1.67589 -0.87485,-2.4785c-0.12494,-0.79771 -0.3331,-1.82053 -0.72983,-2.54283c-0.44122,-0.80328 -1.12802,-1.42726 -1.29102,-2.35716c-0.15555,-0.88739 -0.53189,-1.64574 -0.92047,-2.5c-0.34714,-0.76312 -0.78851,-1.5 -1.37952,-2.10001l-0.58316,-0.8l-0.20535,-0.7" id="svg_7" stroke-width="2" stroke="#000" fill="none"/>
  <path t="51245,51333,51365,51397,51405,51421,51439,51454,51477,51494,51509,51525,51525,51549,51565,51581,51637,51669,51685,51725,51789,51789,51853,51901,51965,51981,52013,52061,52061,52109,52157,52197,52237,52237,52293,52365,52413,52453,52517,52541,52541,52554,52571,52587,52621,52645,52645,52669,52701,52701,52717,52741,52781,52781,52805,52821,52837,52869,52925,52933,52965,52965,53013,53037,53157,53189,53221,53221,53237,53285,53349,53373,53437,53517,53565,53629,53629,53661,53670,53717,53781,53797,53821,53877,53893,53933,53973,54037,54061,54109,54141,54141,54165,54237,54309,54373,54637,54637,54717,54733,54797" d="m280,250c-1.70001,0 -2.72275,0.146 -3.38934,-0.436c-0.69818,-0.60957 -1.23834,-1.3116 -1.58981,-2.08482c-0.36389,-0.8006 -0.02084,-1.77917 -0.02084,-2.67917c0,-0.90001 0,-1.8 0,-2.60001c0,-0.89999 0,-1.8 0,-2.7c0,-0.89999 0,-1.8 0,-2.7c0,-0.90001 -0.02536,-1.8004 0,-2.60001c0.02859,-0.90135 0.66278,-1.62636 0.91467,-2.39999c0.27985,-0.85948 0.58374,-1.56276 1.00131,-2.368c0.34039,-0.6564 0.81491,-1.27614 1.47336,-1.86801c0.68954,-0.61983 0.4371,-1.60225 0.69598,-2.364c0.30176,-0.88792 0.89667,-1.59946 0.91467,-2.5c0.01801,-0.89981 0.04779,-1.80127 0,-2.7c-0.04272,-0.80341 -0.6665,-1.47215 -1.38934,-1.97467c-0.67267,-0.46765 -0.96378,-1.32909 -1.61066,-2.02533c-0.56049,-0.60327 -0.84387,-1.46405 -1.28534,-2.2c-0.4071,-0.67862 -1.26352,-1.26311 -1.66199,-2.10001c-0.4133,-0.86801 -0.91498,-1.4458 -1.44202,-2.09999c-0.60043,-0.74529 -0.36639,-1.83217 -0.89465,-2.51601c-0.48471,-0.62749 -0.58435,-1.43407 -0.93735,-2.18401c-0.36505,-0.77551 -0.60815,-1.52 -0.7995,-2.39999c-0.18402,-0.84631 -0.91827,-1.59389 -0.97916,-2.5c-0.05362,-0.7982 0,-1.7 0,-2.60001c0,-0.89999 0,-1.79999 0,-2.7c0,-0.89999 0,-1.8 0,-2.7c0,-0.8 -0.18375,-1.72649 0.03601,-2.60001c0.21704,-0.86281 0.92126,-1.59697 0.96399,-2.5c0.04251,-0.89899 0.28299,-1.57118 0.87866,-2.12132c0.63696,-0.58826 1.18158,-1.21954 1.69601,-1.804c0.54871,-0.62343 0.9263,-1.49452 1.52533,-2.07451c0.58139,-0.5629 1.49158,-0.90646 1.95267,-1.60466c0.49881,-0.75531 1.30679,-1.10861 2.04733,-1.517c0.6745,-0.37196 1.28934,-1.1785 1.81467,-1.9785l0.08533,-0.90001" id="svg_8" stroke-width="2" stroke="#000" fill="none"/>
  <path t="55645,55773,55773,55781,55788,55804,55821,55840,55876,55877,55900,55909,55909,55909,55924,55941,55953,55972,55988,56004,56021,56068,56068,56092,56092,56116,56148,56196" d="m270,183c-1,0.83333 -1.69043,0.57594 -2.47916,0c-0.64029,-0.46753 -1.36078,-0.87999 -2,-1.52083c-0.64194,-0.64359 -0.7095,-1.60715 -1.22534,-2.17917c-0.66589,-0.73842 -1.44467,-1.33124 -2.12085,-1.68933c-0.67468,-0.35728 -1.73871,-0.22614 -2.65381,-0.6315c-0.71118,-0.31503 -1.22543,-0.96657 -2.12085,-0.97917c-0.90015,-0.01268 -1.64017,-0.4928 -2.56667,-0.83333c-0.63028,-0.23166 -1.66666,-0.16667 -2.52882,-0.16667l-0.90451,0l-0.89999,0l-0.89999,0" id="svg_9" stroke-width="2" stroke="#000" fill="none"/>
  <path t="57141,57284,57308,57308,57332,57332,57341,57356,57356,57372,57388,57403,57421,57421,57452,57476,57476,57500,57500,57516,57533,57533,57556,57588,57700,57772,57812,57868,57868,57892,57916,58036,58036" d="m370,196c0,-1.75717 -0.05283,-2.66344 0.05716,-3.4045c0.14972,-1.00867 0.55042,-1.74834 0.85883,-2.71017c0.28094,-0.87619 0.83948,-1.42432 1.06317,-2.38533c0.20416,-0.87711 0.42972,-1.62729 0.85419,-2.5c0.32083,-0.65967 0.72565,-1.49457 1.26666,-2.32133c0.43137,-0.65918 0.93958,-1.48444 1.37915,-2.15784c0.51654,-0.79129 0.62387,-1.75948 1.32217,-2.23549c0.7493,-0.51079 1.01163,-1.11852 1.25583,-1.98534c0.21448,-0.76128 0.70657,-1.56706 1.16434,-2.40001c0.37097,-0.67502 1.16785,-1.29999 1.65717,-2l0.28799,-0.89999l0.444,-0.60001" id="svg_10" stroke-width="2" stroke="#000" fill="none"/>
  <path t="64965,65173,65197,65221,65229,65301,65365,65381,65501,65605,65605,65661,65661,65701,65741,65741,65765,65773,65787,65821,65877,65917,65917,65917,65997,65997,66053,66069,66101,66101,66125,66141,66180,66212,66245,66268,66269,66301,66309,66325,66340,66353,66373,66373,66420,66430,66452,66461,66493,66516,66596,66644,66700,66756,66804,66860" d="m378,166c-1.71466,-1.084 -1.97214,-1.80176 -2,-2.7c-0.0293,-0.94412 -0.67337,-1.58101 -1.22134,-2.17867c-0.58508,-0.63811 -0.60803,-1.38185 -1.00015,-2.22151c-0.34503,-0.73885 -0.91431,-1.42625 -1.37851,-2.0385c-0.62048,-0.81836 -1.53836,-1.24741 -2.19998,-1.57733c-0.84338,-0.42056 -1.79376,-0.29922 -2.25269,-0.98849c-0.50165,-0.75342 -1.26648,-1.19168 -2.11398,-1.46217c-0.68362,-0.21819 -1.42612,-0.58978 -2.42883,-0.78065c-0.9129,-0.17378 -1.69055,-0.64046 -2.50452,-0.93117c-0.85526,-0.30547 -1.70016,-0.10352 -2.60001,-0.12151c-0.90054,-0.01801 -1.61032,-0.61813 -2.5,-0.91467c-0.85764,-0.28587 -1.83823,0.08823 -2.59998,-0.17065c-0.88794,-0.30176 -1.64063,-0.64948 -2.49551,-0.91917c-0.76736,-0.2421 -0.87265,-1.35814 -1.7045,-1.82883c-0.72964,-0.41286 -1.5365,-0.60719 -2.2955,-1.114c-0.74466,-0.49722 -1.13474,-1.21275 -1.78851,-1.76868c-0.61417,-0.52226 -1.45316,-1.03094 -2.31598,-1.248c-0.8735,-0.21974 -1.79868,-0.03732 -2.54733,-0.38866l-0.48868,-0.61134" id="svg_12" stroke-width="2" stroke="#000" fill="none"/>
  <path t="67796,67939,67971,68019,68019,68036,68051,68083,68083,68107,68139,68155,68171,68195,68227,68243,68252,68270,68285,68302,68321,68321,68339,68371,68387,68419,68443,68452,68491,68507,68507,68516,68532,68543,68552,68587,68587,68627,68651,68660,68723,68732,68771,68787,68819,68836,68851,68851,68860,68870,68886,68902,68903,68920" d="m309,142c-1.83334,0.16667 -2.28394,0.7489 -3.10001,1.2215c-0.66656,0.38602 -1.23465,1.27808 -2,1.65717c-0.84677,0.41942 -1.30942,0.82875 -1.89999,1.60051c-0.49786,0.65062 -1.38171,0.97723 -2.19867,1.43683c-0.70264,0.39529 -1.46735,0.89281 -1.78049,1.60483c-0.34985,0.79553 -0.50836,1.58249 -1.07352,2.12651c-0.57581,0.55428 -1.31894,1.02734 -1.66199,1.87c-0.37076,0.91074 -1.04477,1.42386 -1.28085,2.18716c-0.26489,0.8564 -0.40817,1.73503 -1.20316,2.2115c-0.69205,0.41476 -1.10822,1.13081 -1.51733,1.884c-0.43323,0.79752 -1.21008,1.13399 -1.76315,1.72083c-0.69217,0.73442 -0.77991,1.70279 -1.32217,2.27917c-0.66766,0.70967 -1.51849,1.00462 -2.39734,1.20132c-0.75238,0.1684 -1.20987,0.99229 -1.80133,1.49867c-0.59442,0.50893 -1.52084,0.47421 -2.3045,0.85266c-0.88885,0.42926 -1.79196,0.41492 -2.52615,0.93134c-0.6904,0.48563 -1.19019,1.216 -1.87918,1.66333l-0.8075,0.13667l-0.84668,0.34134" id="svg_13" stroke-width="2" stroke="#000" fill="none"/>
  <path t="71531,71675,71715,71755,71811,71859,71899,71931,71947,71947,71995,72003,72019,72041,72075,72723,73067,73107,73155,73203,73219,73275,73299,73395,73427,73427,73435,73539,73563,73587,73587,73603,73643,73675,73675,73707,73723,73883" d="m280,189c1.79999,0 2.70001,0 3.60001,0c0.89999,0 1.79999,0 2.69998,0c0.90002,0 1.73825,-0.17355 2.5,0.08533c0.88794,0.30176 1.53223,0.95638 2.22534,1.48933c0.63339,0.48703 1.698,0.27869 2.36401,0.86134c0.69781,0.61049 1.0639,1.83789 0.38916,2.44249c-0.66049,0.59184 -1.91641,0.4433 -2.61185,-0.04517c-0.71518,-0.50232 -1.26666,-0.83333 -2.16666,-0.83333c-0.79999,0 -1.42899,-0.37062 -2.2215,-0.87849c-0.74673,-0.47853 -1.75262,-0.3291 -2.37851,-0.69617c-0.77151,-0.45248 -1.6188,-0.92583 -2.39999,-1.25867c-0.75153,-0.32019 -1.70001,-0.16667 -2.60001,-0.16667l-0.89999,0" id="svg_14" stroke-width="2" stroke="#000" fill="none"/>
  <path t="75907,76139,76163,76195,76235,76267,76323,76323,76355,76411,76411,76443,76499,76979,77011,77042,77043,77083,77115,77138,77178,77226,77227,77362,77442,77466,77467,77498,77514,77539,77690" d="m352,195c1.70001,0.9955 2.6496,0.94707 3.05267,0.2955c0.4762,-0.76976 1.32016,-1.09087 2.14734,-1.58084c0.68085,-0.40331 1.19998,-1.11465 1.89999,-1.81467c0.60001,-0.59999 1.08145,-1.4095 2,-1.77849c0.84271,-0.33852 1.98029,0.0826 1.73334,0.87849c-0.25165,0.811 -0.76804,1.5321 -1.186,2.3c-0.45767,0.84081 -0.92078,1.46527 -1.64734,1.86667c-0.77271,0.42688 -1.18146,1.34283 -2.10001,1.71182c-0.84271,0.33852 -1.69998,0.12151 -2.60001,0.12151l-0.89999,0l-0.89999,0l-0.89999,0" id="svg_15" stroke-width="2" stroke="#000" fill="none"/>
  <path t="81652,81787,81835,81844,81883,81907,81915,81923,81963,81963,81972,81995,82019,82019,82035,82035,82099,82131,82131,82140,82163,82203,82219,82251,82275,82339,82411,82451,82499,82499,82571,82595,82651,82699,82731,82763,82795,82819,82819,82827,82851,82867,82875,82891,82915,82915,82955,82971,83003,83035,83099,83107,83155,83155,83195,83227,83259,83291,83323,83331,83379,83379,83387,83411,83435,83451,83460,83491,83507,83507,83516,83539,83555,83568,83585,83601,83601,83619,83635,83636,83651,83652,83669,83685,83701,83701,83719,83719,83735,83751,83751,83769,83769,83769,83785,83785,83801,83801,83801,83819,83819,83835,83838,83838,83852,83852,83869,83885,83885,83901,83901,83901,83919,83935,83935,83951,83969,83969,83985,83985,84001,84001,84019,84035,84036,84052,84069,84069,84085,84101,84119,84119,84135,84151,84169,84185,84185,84227,84347,84451,84474,84538,84594,84595,84619,84667,84698,84699,84826,85074,85075,85098,85162,85210,85242,85298,85299,85346,85354,85378,85395,85395,85411,85450,85482,85483,85514,85531,85547,85562,85579,85610,85642,85674,85675,85754,85819,85835,85835,85859,85891,85915,85939,85947,85971,85987,86043,86075,86091,86179,86203,86203,86315,86403,86795,86979,86979,87027,87083,87195,87243,87299,87299,87331,87371,87411,87466,87515,87586,87587" d="m273,295c0,1.79999 0,2.70001 0,3.60001c0,0.89999 -0.00009,1.79999 0,2.69998c0.00009,0.80002 0.23395,1.65829 0.64734,2.40002c0.42563,0.76367 0.84476,1.54041 1.186,2.46664c0.29379,0.79745 0.24759,1.72406 0.77731,2.42267c0.51221,0.67554 1.30145,1.397 1.38486,2.11069c0.10446,0.89392 -0.36221,1.8797 0.02533,2.77914c0.3078,0.71436 0.9769,1.22534 0.97916,2.12085c0.00226,0.89999 -0.09546,1.84454 0.284,2.60001c0.43558,0.86719 0.71533,1.59998 0.716,2.5c0.00067,0.89999 0,1.79999 0,2.69998c0,0.89999 0,1.80002 0,2.70001c0,0.89999 0,1.69998 0,2.60001c0,0.89999 0.00223,1.79999 0,2.69998c-0.00226,0.89999 -0.32614,1.63666 -0.716,2.39999c-0.38452,0.7529 -0.284,1.70001 -0.284,2.60001c0,0.89999 0,1.80002 0,2.70001c0,0.89999 0,1.69998 0,2.60001c0,0.89999 0,1.79999 0,2.69998c0,0.89999 -0.16275,1.85687 0.22134,2.70001c0.35535,0.78 0.77332,1.49994 0.77866,2.39999c0.00534,0.89996 0,1.79999 0,2.70001c0,0.89999 0,1.79999 0,2.59998c0,0.90002 -0.0054,1.80005 0,2.70001c0.00534,0.8894 0.64893,1.44449 0.94733,2.20984c0.29752,0.76303 0.60938,1.61246 0.93134,2.61148c0.21149,0.65622 0.38754,1.63235 0.76868,2.37418c0.40143,0.78131 0.85596,1.54086 1.186,2.47116c0.28287,0.7973 0.02097,1.83878 0.22382,2.52884c0.26416,0.89862 0.80725,1.62848 0.96817,2.51517c0.18011,0.99237 0.45111,1.57257 0.69067,2.38934c0.28983,0.98816 0.28174,1.85715 0.284,2.82117c0.00183,0.79349 -0.03687,1.5697 0.00134,2.61084c0.02841,0.77481 0.28833,1.73572 0.49866,2.48883c0.22198,0.79483 0.44785,1.79019 0.48932,2.63248c0.0538,1.09274 0.01068,2.01334 0.01068,2.68268c0,1.164 0,1.95334 0,2.67868c0,0.98532 0,1.96933 0,2.65997c0,1.07269 0,1.992 0,2.82535c0,0.83334 0,1.75266 0,2.65268c0,0.69464 0,1.72198 0,2.66864c0,0.85333 0,1.79333 0,2.67868c0,0.79999 0,1.70001 0,2.63599c0,0.84802 0,1.71133 0,2.72803c0,0.836 0,1.73599 0,2.63599c0,0.79999 0.18372,1.7265 -0.03601,2.60001c-0.21704,0.86279 -0.66168,1.78143 -1.32117,2.34732c-0.68878,0.591 -1.5712,0.54562 -2.28564,1.10535c-0.6312,0.49451 -1.22995,1.32916 -1.87451,1.74731c-0.73917,0.47952 -1.57556,1.12463 -2.04666,1.80002c-0.51169,0.73358 -0.4361,1.69998 -0.436,2.60001c0.00009,0.89999 0.12653,1.83188 0.61066,2.39999c0.63519,0.74533 0.92136,1.59869 1.556,2.23334c0.63464,0.63464 1.58313,0.71237 1.8125,1.66666c0.21045,0.87561 0.2887,1.71548 0.82217,2.29999c0.65689,0.7197 1.08719,1.54099 1.62399,2.17468c0.50278,0.59351 0.64575,1.36829 1.14935,2.08667c0.42709,0.60925 0.5928,1.60406 1.22665,2.02133c0.79971,0.52643 1.2963,1.27264 2.19867,1.75067c0.64822,0.34338 1.45245,0.70428 1.94733,1.46216c0.45407,0.6954 1.1817,1.16833 1.70001,1.75717c0.57266,0.65057 0.89627,1.68854 1.75266,1.91132c0.8717,0.22678 1.80002,0.03601 2.70001,0.03601c0.89999,0 1.73849,0.20947 2.60001,-0.05716c0.86615,-0.26804 1.03152,-1.22845 1.52148,-2.04266c0.43576,-0.72412 1.39679,-1.06012 2.2785,-0.87933c0.84842,0.17395 1.59387,0.91827 2.5,0.97916c0.79819,0.05362 1.70007,0.01041 2.60001,0c0.90018,-0.01044 1.69998,-0.35266 2.5,-0.87851l0.89999,-0.12149l0.79999,-0.08533" id="svg_16" stroke-width="2" stroke="#000" fill="none"/>
  <path t="89395,89594,89658,90050,90050,90074,90083,90114,90170,90210,90242,90274,90330,90330,90346,90410,90898,90938,90970,91002,91010,91034,91066,91122,91122,91202,91562,91642,91714,91714,91842,91842,91882,91906,91906,91946,91962,92010,92010,92026,92058,92082,92106,92138,92138,92162,92282,92314,92650,92666,92682,92682,92698,92706,92722,92746,92770,92810,92834,92874,92874,92914,92938,92954,93058,93098,93210,93210,93290,93290,93434,93466,93562,93770,93802,93958,94122,94178,94202,94234,94266,94274,94290,94330,94338,94418,94450,94466,94479,94557,94626,94668,94693,94693,94722,94738,94770,94786,94818,94842,94842,94850,94874,94922,94954,94962,95026,95066,95074,95074,95106,95154,95210,95210,95266,95322,95338,95338,95385,95425,95433,95465,95505,95545,95561,95562,95585,95625,95649,95689,95713,95761,95785,95817,95818,95849,95857,95881,95905,95922,95938,95969,95985,95986,95993,96009,96025,96035,96051,96051,96067,96084,96101,96118,96134,96134,96135,96151,96168,96184,96201,96201,96218,96218,96235,96265,96266,96297,96298,96305,96345,96377,96393,96425,96426,96497,96537,96691,96842,96843,96898,96922,96938,96962,96986,97010,97058,97122,97154,97170,97186,97226,97266,97298,97354,97410,97410,97419,97458,97482,97522,97578,97586,97634,97682,97682,97714,97762,97762,97778,97794,97810,97826,97843,97843,97882,97898,97899,97922,97938,97954,97994,97994,98002,98019,98035,98052,98068,98090,98101,98118,98147,98147,98170,98202,98218,98218,98226,98243,98260,98260,98282,98322,98322,98346,98356,98356,98378,98386,98386,98401,98419,98436,98452,98467,98484,98501,98519,98536,98552,98552,98567,98584,98602,98619,98619,98635,98635,98659,98659,98668,98684,98685,98701,98719,98719,98746,98746,98762,98770,98784,98802,98819,98819,98835,98835,98859,98859,98868,98884,98901,98902,98919,98935,98935,98954,98954,98970,98970,98994,98995,99020,99026,99052,99074,99075,99146,99202" d="m327,438c1,1 1.91626,1.1543 2,2c0.07883,0.79608 0,1.70001 0,2.60001c0,0.89999 0,1.79999 0,2.69998c0,0.90002 0,1.80002 0,2.70001c0,0.79999 0,1.70001 0,2.60001c0,0.89999 -0.18448,2.04651 0.52084,2.37915c0.79538,0.37512 1.77914,0.02084 2.67917,0.02084c0.89999,0 1.79999,0 2.59998,0c0.90002,0 1.85248,0.26398 2.70001,-0.04166c0.82465,-0.29736 1.12494,-1.36517 1.70001,-2.07169c0.53564,-0.65808 1.45251,-0.8927 2.284,-0.60266c0.70752,0.2468 1.63589,0.58331 2.616,0.71616c0.90698,0.12296 1.43765,0.76102 2.39999,0.979c0.87799,0.19888 1.79999,0.02075 2.70001,0.02084c0.89999,0.00009 1.57739,0.1243 2.39999,0.57468c0.78036,0.42728 1.69998,0.42532 2.60001,0.42532c0.89999,0 1.79999,0 2.59998,0c0.90002,0 1.80002,0 2.70001,0c0.89999,0 1.79999,0 2.70001,0c0.89999,0 1.79999,0 2.59998,0c0.90002,0 1.80005,0.00534 2.70001,0c0.90005,-0.00534 1.81381,-0.34244 2.5,-1c0.51053,-0.48926 1.33084,-1.10797 1.71466,-1.79999c0.45728,-0.82449 0.28534,-1.80002 0.28534,-2.70001c0,-0.89999 0.16699,-1.81589 -0.00134,-2.69867c-0.14441,-0.75735 -1.21448,-1.26544 -0.99417,-2.09683c0.20465,-0.77234 0.6665,-1.38812 1.01636,-2.18365c0.31314,-0.71204 0.79422,-1.25208 1.01517,-2.12085c0.2193,-0.86224 0.7467,-1.69437 1.31665,-2.34732c0.51028,-0.58463 0.64734,-1.40533 0.64734,-2.27417c0,-0.87851 -0.02536,-1.7789 0,-2.57849c0.02859,-0.9014 0.68619,-1.62238 0.94284,-2.5c0.25311,-0.8656 0.05716,-1.80002 0.05716,-2.70001c0,-0.79999 0,-1.70001 0,-2.60001c0,-0.89999 0,-1.79999 0,-2.69998c0,-0.90002 0,-1.80002 0,-2.70001c0,-0.79999 0,-1.70001 0,-2.63599c0,-0.84802 0.00064,-1.71133 0,-2.60684c-0.00067,-0.95718 -0.30084,-1.80801 -0.64734,-2.45718c-0.45334,-0.84937 -0.35266,-1.79999 -0.35266,-2.69998c0,-0.89999 0,-1.80002 0,-2.70001c0,-0.89999 0,-1.69998 0,-2.60001c0,-0.89999 0,-1.79999 0,-2.69998c0,-0.89999 0,-1.80002 0,-2.70001c0,-0.89999 0,-1.69998 0,-2.60001c0,-0.89999 0,-1.79999 0,-2.69998c0,-0.89999 0,-1.80002 0,-2.70001c0,-0.89999 -0.01801,-1.70016 0,-2.60001c0.01801,-0.90054 0.61292,-1.61206 0.91467,-2.5c0.25888,-0.76175 0.08533,-1.59998 0.08533,-2.5c0,-0.89999 -0.07483,-1.84705 0.35718,-2.60449c0.53281,-0.93417 1.09277,-1.49542 1.35748,-2.21149c0.34634,-0.93686 0.16885,-1.89215 0.28983,-2.784c0.11142,-0.8215 0.75873,-1.42694 0.93835,-2.35269c0.16479,-0.84927 0.00668,-1.8681 0.27866,-2.66864c0.23862,-0.70233 0.93884,-1.6156 1.3425,-2.26801c0.47565,-0.76874 0.43591,-1.71066 0.436,-2.61069c0.00009,-0.89999 0.24213,-1.75375 0.64734,-2.5c0.41327,-0.76111 0.2572,-1.74454 0.63666,-2.5c0.43558,-0.86719 0.71533,-1.59998 0.716,-2.5c0.00067,-0.89999 0.08948,-1.71735 0.57468,-2.32532c0.49838,-0.62451 0.42532,-1.57468 0.42532,-2.47467c0,-0.89999 -0.00009,-1.79999 0,-2.70001c0.00009,-0.89981 0.5484,-1.4693 0.94284,-2.15717c0.46985,-0.8194 -0.09637,-1.8913 0.22382,-2.64282c0.33282,-0.78122 0.98834,-1.43356 1.48068,-2.05267c0.51471,-0.64728 0.34225,-1.6474 0.35266,-2.54733c0.01044,-0.90018 0.4765,-1.6311 0.87866,-2.5c0.30643,-0.66202 0.72931,-1.50266 1.32135,-2.10001c0.59729,-0.60266 1.24313,-1.3223 1.74731,-2.09549c0.457,-0.70087 1.41531,-0.87265 1.88602,-1.7045c0.41284,-0.72964 0.65701,-1.53101 1.36667,-2.19867c0.57635,-0.54224 1.27203,-1.00113 1.96664,-1.63467c0.59915,-0.54648 1.11832,-1.22623 1.48068,-1.86667c0.46442,-0.82077 1.19177,-1.18079 1.83182,-1.82083c0.64005,-0.64005 1.18686,-1.28796 1.5,-2c0.34985,-0.79553 0.65555,-1.38348 1.21951,-2.04849c0.58197,-0.68622 0.69452,-1.67825 0.80148,-2.53067c0.11398,-0.90814 0.64719,-1.60001 0.99985,-2.39999c0.35266,-0.79999 0.79453,-1.6304 1.08401,-2.29999c0.38467,-0.88977 0.78381,-1.69339 0.94131,-2.37466c0.25165,-1.0885 0.74078,-1.85007 1.02734,-2.52536c0.36514,-0.86053 0.71094,-1.65042 0.97266,-2.43866c0.28186,-0.84885 0.96399,-1.47198 0.97467,-2.36133c0.01068,-0.88934 0.57736,-1.44119 1.02533,-2.11066c0.49213,-0.73544 0.93195,-1.58633 0.97467,-2.48935c0.04251,-0.89899 0.10608,-1.68811 0.5,-2.39999c0.49023,-0.88596 0.45148,-1.70132 0.50015,-2.60016c0.04272,-0.78864 0.43015,-1.73856 0.70435,-2.30435c0.48416,-0.99908 0.98438,-1.72235 1.21017,-2.71014c0.19821,-0.86707 -0.01569,-1.69586 0.12134,-2.52133c0.14474,-0.87198 0.64038,-1.73016 1.16266,-2.47867c0.4903,-0.70267 0.79059,-1.48535 0.80133,-2.38535c0.01062,-0.88934 0.72986,-1.49561 0.94284,-2.21432c0.25287,-0.85342 0.05716,-1.88568 0.05716,-2.68567c0,-0.99869 0,-1.76401 0,-2.71466c0,-0.98535 -0.01721,-1.88553 0,-2.68533c0.01801,-0.83658 0.27173,-1.69159 0.61066,-2.41068c0.47046,-0.9982 0.88928,-1.53827 1.22269,-2.62268c0.23721,-0.77158 0.16666,-1.65067 0.16666,-2.51398c0,-0.89551 0,-1.85269 0,-2.75269c0,-0.89999 0,-1.69998 0,-2.60001l0,-0.89999" id="svg_17" stroke-width="2" stroke="#000" fill="none"/>
  <path t="100883,101090,101115,101130,101186,101210,101234,101266,101298,101330,101378,101410,101426,101490,101538,101850,101882,101930,101930,101962,101962,101986,102002,102018,102066,102074,102106,102106,102122,102138,102170,102250,102282,102386,102410,102418,102434,102466,102746,102834,103058,103058,103154,103178,103258,103258,103322,103362,103410,103410,103458,103483,103498,103498,103554,103618,103618,103634,103666,103682,103682,103690,103706,103730,103746,103818,103818,103898,103970,104058,104058,104090,104122,104130,104170,104226,104242,104242,104274,104282,104314,104354,104378,104426,104458,104490,104522,104522,104538,104538,104554,104578,104602,104618,104642,104642,104658,104674,104698,104722,104738,104754,104778,104802,104802,104810,104834,104850,104866,104882,104906,104922,104938,104938,104962,105002,105026,105066,105114,105114,105162,105162,105186,105186,105194,105218,105218,105242,105266,105266,105282,105298,105306,105330,105346,105370,105370,105386,105402,105418,105434,105466,105474,105474,105485,105506,105530,105546,105586,105618,105618,105626,105650,105668,105690,105690,105715,105754,105762,105785,105802,105835,105835,105851,105852,105869,105885,105885,105901,105919,105935,105936,105936,105951,105952,105969,105985,105985,106001,106002,106019,106035,106035,106052,106052,106069,106069,106085,106085,106104,106104,106120,106120,106121,106136,106153,106169,106169,106185,106202,106202,106220,106220,106236,106252,106269,106269,106285,106302,106320,106320,106320,106336,106354,106354,106375,106375,106375,106391,106392,106407,106407,106407,106424,106424,106424,106442,106442,106442,106459,106459,106459,106475,106475,106475,106491,106491,106491,106507,106507,106507,106521,106522,106540,106540,106540,106554,106555,106571,106571,106587,106587,106603,106604,106604,106620,106636,106654,106654,106670,106686,106687,106702,106720,106736,106737,106752,106770,106770,106786,106802,106820,106820,106836,106836,106852,106870,106886,106902,106921,106921,106937,106954,106971,106971,106988,106988,107003,107020,107036,107058,107070,107087,107103,107121,107121,107138,107154,107170,107186,107203,107221,107237,107254,107254,107282,107314,107314,107354,107370,107402,107450,107490,107490,107498,107538,107706,107762,107794,107834,107914,107954,107954,108130,108154" d="m376,437c1.70001,0 2.72275,-0.146 3.38934,0.436c0.69818,0.60956 0.97278,1.50043 1.61066,2.064c0.5835,0.5155 1.04398,1.35425 1.80133,1.49866c0.88278,0.16833 1.79868,0.00134 2.69867,0.00134c0.89999,0 1.79999,0 2.70001,0c0.89999,0 1.79999,0 2.55716,0c0.89551,0 1.75882,0 2.72198,0c0.92084,0 1.82083,0 2.72086,0c0.89999,0 1.79999,0 2.59998,0c0.90002,0 1.80002,0 2.70001,0c0.89999,0 1.95102,0.17496 2.47467,-0.436c0.61371,-0.71603 0.61041,-1.71371 1.19199,-2.39734c0.56659,-0.66602 1.5054,-0.97763 1.8125,-1.70831c0.36523,-0.86896 0.02084,-1.633 0.02084,-2.70117c0,-0.85718 0.02536,-1.75757 0,-2.55716c-0.02859,-0.9014 -0.51556,-1.70514 -1.10001,-2.30002c-0.59467,-0.60529 -1.39957,-1.23465 -1.77866,-2c-0.4194,-0.84677 -0.72931,-1.50266 -1.42133,-2.19998c-0.69733,-0.7027 -1.39178,-1.11465 -1.664,-2.10001c-0.2399,-0.86838 -0.36215,-1.63666 -0.75201,-2.39999c-0.38452,-0.7529 -0.28177,-1.70001 -0.284,-2.60001c-0.00226,-0.89999 -0.38608,-1.73837 -0.716,-2.39999c-0.42056,-0.84338 -0.284,-1.836 -0.284,-2.68402c0,-0.86331 -0.00009,-1.75882 0,-2.716c0.00009,-0.89981 0.44519,-1.5387 0.94733,-2.15717c0.57205,-0.70459 0.8765,-1.41617 1.04819,-2.34283c0.17212,-0.92902 0.69321,-1.39868 1.0885,-2.10132c0.45959,-0.81696 0.89798,-1.59811 0.91599,-2.49866c0.01804,-0.90115 0,-1.86667 0,-2.70001c0,-0.83334 0.05621,-1.69601 0.5,-2.5c0.44189,-0.80051 0.5,-1.70001 0.5,-2.60001c0,-0.89999 0,-1.69998 0,-2.60001c0,-0.89999 0,-1.79999 0,-2.69998c0,-0.89999 0,-1.80002 0,-2.70001c0,-0.89999 0,-1.69998 0,-2.60001c0,-0.89999 0,-1.79999 0,-2.69998c0,-0.89999 0,-1.80002 0,-2.70001c0,-0.89999 -0.01801,-1.70016 0,-2.60001c0.01801,-0.90054 0.5274,-1.64572 0.91599,-2.5c0.34711,-0.76309 0.7301,-1.41241 1.28403,-2.284c0.4281,-0.67358 0.78705,-1.61832 1.5,-2.15433c0.69376,-0.52161 1.15701,-1.0921 1.384,-1.879c0.25415,-0.88101 1.11349,-1.50699 1.55881,-2.18268c0.47165,-0.71567 1.01898,-1.3439 1.40985,-2.00449c0.46475,-0.78546 0.71246,-1.68716 1.23267,-2.49417c0.39536,-0.61334 1.54422,-0.84995 1.71332,-1.60266c0.19742,-0.87869 0.57501,-1.66171 0.94867,-2.49866c0.34476,-0.77219 0.73114,-1.51553 1.078,-2.30002c0.36166,-0.81802 0.7616,-1.69073 1.32733,-2.34732c0.52066,-0.60428 0.79056,-1.41541 1.16818,-2.03183c0.56854,-0.92804 1.34399,-1.31229 1.4805,-2.22086c0.12137,-0.80783 0.646,-1.5 0.99866,-2.29999c0.35266,-0.79999 0.67236,-1.72855 1.22134,-2.37866c0.56097,-0.66431 1.07999,-1.31094 1.48315,-1.87851c0.62061,-0.87369 0.95065,-1.58411 1.6955,-2.19217c0.66339,-0.54156 1.12402,-1.27515 1.79868,-1.88132c0.68549,-0.61591 1.10919,-1.35727 1.66266,-1.99469c0.4696,-0.54086 1.25333,-1.28931 1.83417,-1.87015c0.60449,-0.60449 1.3045,-1.3045 1.90451,-1.90451c0.60001,-0.60001 1.16196,-1.24139 1.92084,-1.89999c0.61685,-0.53534 1.50668,-0.95676 2.3125,-1.5c0.55103,-0.37146 1.30347,-1.06805 1.76666,-1.63599c0.65637,-0.80475 0.92313,-1.65738 1.7215,-2.12134c0.80954,-0.47043 1.72702,-0.51071 2.45715,-1.104c0.54749,-0.44489 0.92099,-1.54895 1.57852,-2.086c0.70331,-0.57443 1.4762,-0.82285 2.04282,-1.46335c0.6395,-0.72287 0.83203,-1.55164 1.60001,-2.25598c0.60944,-0.55893 1.14719,-1.10062 1.57468,-1.96933c0.40308,-0.81909 0.31726,-1.79694 0.94617,-2.34317c0.6553,-0.56915 1.48602,-1.18338 1.87915,-1.84619c0.40714,-0.68646 1.09442,-1.47876 1.47885,-2.27499c0.32626,-0.67578 0.68118,-1.67343 0.98248,-2.15033c0.47598,-0.75336 1.15097,-1.5817 1.61783,-2.24933c0.56314,-0.80536 0.8226,-1.50916 1.12085,-2.28534c0.40237,-1.04709 0.61319,-1.81204 1.15717,-2.55301c0.63104,-0.85953 1.29385,-1.14594 1.84415,-1.63098c0.84735,-0.74686 1.3902,-1.54324 1.74152,-2.08249c0.65921,-1.01187 1.04132,-1.71335 1.35266,-2.40085c0.43307,-0.9563 0.69464,-1.78156 0.94049,-2.32199c0.49039,-1.07794 1.02155,-1.75632 1.50269,-2.37866c0.63092,-0.81604 0.87677,-1.66522 1.14667,-2.61469c0.21027,-0.73965 0.44922,-1.5018 1.01465,-2.42215c0.35941,-0.58499 1.03595,-1.44916 1.26401,-2.02051c0.38489,-0.9642 0.3548,-1.8063 0.60266,-2.78934c0.20392,-0.80872 0.64276,-1.50916 1.22269,-2.36401c0.49612,-0.73132 0.61066,-1.63599 0.61066,-2.43597c0,-0.95718 -0.08911,-1.86624 0.05716,-2.54733c0.22705,-1.05719 0.83392,-1.75107 0.94284,-2.65268c0.0965,-0.79871 0.64801,-1.46985 0.91467,-2.48401c0.17664,-0.67184 0.08533,-1.75882 0.08533,-2.616c0,-0.89999 0.02051,-1.6701 0.35266,-2.55267c0.26578,-0.70621 0.62933,-1.71082 0.64734,-2.64731c0.0173,-0.89984 -0.04779,-1.80128 0,-2.70001c0.04272,-0.80341 0.68933,-1.42186 0.94284,-2.3045c0.28113,-0.97887 0.05716,-1.6955 0.05716,-2.674c0,-0.82016 0,-1.7215 0,-2.62151c0,-0.89999 0,-1.79999 0,-2.7c0,-0.89999 0,-1.8 0,-2.7c0,-0.8 0,-1.7 0,-2.60001c0,-0.89999 0,-1.79999 0,-2.7c0,-0.89999 0,-1.8 0,-2.7c0,-0.8 0,-1.75717 0,-2.65266c0,-0.86334 0,-1.82651 0,-2.64734c0,-0.89999 0,-1.8 0,-2.7c0,-0.8 0,-1.7 0,-2.60001c0,-0.89999 0,-1.79999 0,-2.7c0,-0.89999 0,-1.8 0,-2.7l0,-0.8l0,-0.89999l-0.05716,-0.94284" id="svg_18" stroke-width="2" stroke="#000" fill="none"/>
 </g>
 <g display="none">
  <title>muse_image</title>
  <image xlink:href="http://farm1.static.flickr.com/62/187899954_357e156a47.jpg" id="muse" height="424" width="640" y="28" x="0"/>
 </g>
 <g display="none">
  <title>bbox</title>
  <rect stroke="#f00" fill="none" stroke-width="3" height="320.55422" width="248.32" y="122.50602" x="195.84" id="bbox"/>
 </g>
</svg>
