<svg width="640" height="480" xmlns="http://www.w3.org/2000/svg" xmlns:svg="http://www.w3.org/2000/svg" xmlns:xlink="http://www.w3.org/1999/xlink">
 <!-- Sketchy ANNOTATION
  ImageNet ID: n02503517_8205
  URL: http://farm1.static.flickr.com/72/164393610_b72feb55b6.jpg
  Image Width: 500
  Image Height: 375
  BBox X: 113
  BBox Y: 70
  BBox Width: 204
  BBox Height: 276
  Exposure: 2000ms
  Synset Label: elephant
  Synset ID: n02503517
  Worker Tag: elephant bathing
  Sanity Check: 
   Context
   Saved
   Shading
  Comment: 
   {}
  Worker ID: AXD2DZ7U6CK35
  Assignment ID: 3VHP9MDGRNKG3H4U7UF4N61RJQHCF4
  HIT ID: 3D1UCPY6GG9HOI0UGLTVVRLQPSZ38F
  Work Time: 121s
  Worker Score: 0.9286
 END ANNOTATION -->
 <g display="inline">
  <title>Layer 1</title>
  <path t="0,30,31,31,31,31,31,37,37,47,63,80,80,80,97,97,113,113,130,130,130,147,147,163,180,180,197,197,213,213,230,230,247,247,263,263,263,280,280,297,297,313,330,330,347,347,363,363,380,380,397,397,397,413,413,749,749,786,794,810,818,833,834,847,863,863,880,897,897,914,914,931,931,948,964,980,997,997,1013,1013,1030,1030,1047,1047,1063,1097,1097,1097,1113,1113,1113,1113,1130,1130,1147,1147,1163,1164,1164,1180,1180,1197,1197,1197,1213,1213,1214,1230,1230,1230,1230,1247,1247,1247,1263,1263,1263,1280,1280,1281,1281,1297,1297" d="m228.5,135c6.37784,-4.17799 6.90781,-4.51315 7.42484,-4.82933c0.96814,-0.59203 1.40884,-0.87314 2.2325,-1.31334c1.18536,-0.63351 2.02435,-0.90157 2.84267,-1.35733c0.80418,-0.4479 1.67546,-0.64578 2.336,-0.936c0.77643,-0.34113 1.74947,-0.89471 2.364,-1.12801c0.98009,-0.37207 1.81502,-0.36273 2.8,-0.60266c0.81689,-0.19898 1.58553,-0.62643 2.5955,-0.77617c0.74109,-0.10988 1.64732,-0.05717 2.60716,-0.05717c0.76801,0 1.80267,0 2.54666,0c0.91733,0 1.86533,0 2.73599,0c0.72534,0 1.71484,0 2.53552,0c1.14581,0 1.92734,0 2.71783,0c0.92798,0 1.89249,-0.01589 2.74533,0.284c0.70688,0.24857 1.677,0.50482 2.51599,0.88267c0.68896,0.31028 1.49173,0.71164 2.40451,0.886c1.0029,0.19157 1.62207,0.39317 2.57416,1.0475c0.55209,0.37942 1.18802,1.06649 1.84668,1.72517c0.52197,0.52199 1.25241,1.33426 1.92731,1.87016c0.69522,0.55203 1.38437,0.9938 2.362,1.21918c0.86673,0.19981 1.55499,-0.31213 2.17068,-0.83067c0.66547,-0.56049 1.41574,-0.78741 2.11465,-1.48399c0.70108,-0.69876 1.27695,-1.30142 2.12085,-1.60001c0.78311,-0.27707 1.67239,-0.6356 2.47916,-0.83334c0.77707,-0.19046 1.83334,-0.16666 2.6955,-0.16666c0.90451,0 1.8045,0 2.71518,0c0.91083,0 1.61017,0 2.58932,0c0.78934,0 1.83334,0 2.62534,0c1.02734,0 1.72198,-0.00018 2.74933,0c0.94717,0.00017 1.6987,-0.00807 2.39734,0.17067c1.21973,0.31206 1.86835,0.67923 2.54132,0.97867c0.63367,0.28195 1.83167,0.69907 2.56802,0.93333c0.9736,0.30975 1.55383,0.63853 2.51865,1.40132c0.62079,0.4908 1.17831,1.06209 2,1.632c0.58536,0.40599 1.61441,1.03352 2.1955,1.53667c0.58347,0.50522 1.23785,1.18066 1.78986,1.73267c0.58398,0.584 1.39008,1.37831 1.86533,1.88667c0.50665,0.54196 1.05438,1.08505 1.77866,2.32666c0.3335,0.57172 0.64642,1.4503 0.97067,2.23466c0.39236,0.94913 0.74258,1.62799 1.32132,2.58801c0.32327,0.53627 0.85333,1.35333 1.19467,1.89465l0.59735,0.99867l0.345,0.66451" id="svg_1" stroke-width="2" stroke="#000" fill="none"/>
  <path t="2560,2570,2570,2570,2570,2570,2570,2584,2584,2618,2618,2827,2858,2874,2882,2896,2933,2986,3013,3013,3031,3047,3064,3081,3081,3097,3114,3131,3131,3147,3164,3181,3197,3197,3214,3231,3247,3269,3294,3294,3298,3314,3331,3347,3365,3389,3397,3422,3431,3447,3464,3481,3509,3510,3517,3537,3553,3622,3646,3666,3681,3697,3697,3714,3731,3731,3747,3747,3764,3781,3797,3797,3797,3814,3814,3831,3831,3831,3847,3847,3864,3864,3864,3881,3881,3881,3897,3897,3914,3914,3914,3914,3931,3931,3931,3947,3947,3964,3964,3980,3980,3996,3996,3996,4013,4030,4030,4045,4046,4062,4063,4080,4095,4096,4112,4129,4145,4162,4180,4196,4196,4213,4230,4257,4281,4281,4306,4315,4341,4495,4505,4518,4531,4531,4547,4564,4564,4581,4581,4597,4597,4614,4631,4673,4756,4756" d="m228.5,133c-1.10667,2.20667 -1.76268,3.06386 -2.12666,3.52667c-0.37267,0.47386 -1.11626,1.40521 -1.45334,1.85333c-0.82819,1.10098 -1.13995,1.89804 -1.64149,2.72c-0.4012,0.65752 -1.07549,1.49756 -1.9785,1.81467c-0.85281,0.29947 -1.40863,-0.42249 -2.15717,-0.85751c-0.73038,-0.42447 -1.74411,-0.10495 -2.64284,-0.05716c-0.80341,0.04272 -1.48518,0.65764 -1.97467,1.38933c-0.45676,0.68275 -0.88658,1.3399 -1.10933,2.12801c-0.24828,0.87846 -0.67973,1.74973 -1.1375,2.58267c-0.37097,0.67502 -1.14426,1.34238 -1.87834,1.77866c-0.78387,0.46588 -1.00754,1.34995 -1.60466,1.76418c-0.78896,0.54732 -1.83026,0.3042 -2.5955,0.70982c-0.84595,0.44841 -1.67174,0.85904 -2.3,1.222c-0.84567,0.48857 -1.34119,1.18475 -2.10449,1.42084c-0.8564,0.26488 -1.67723,0.46091 -2.49417,0.9205c-0.70265,0.39529 -1.27504,0.83348 -2.09683,1.0885c-0.76308,0.2368 -1.24117,0.96223 -2.009,1.34816c-0.88197,0.44328 -1.79007,0.41766 -2.52617,0.93134c-0.69162,0.48262 -1.73824,0.46136 -2.13333,1.15201c-0.4294,0.75061 -0.036,1.76399 -0.036,2.664c0,0.89999 0.12718,1.67747 0.5,2.42082c0.47035,0.93782 0.35403,1.71909 0.78534,2.59384c0.37889,0.76846 1.24162,1.21021 1.63066,2.08667c0.40463,0.91158 0.51328,1.63791 0.88533,2.39999c0.39162,0.80214 0.79518,1.60042 1.29868,2.5985c0.29791,0.59056 0.66954,1.33701 1.31065,2.1855c0.45369,0.60045 1.0818,1.37827 1.58934,2.1355c0.35327,0.52707 0.98843,1.55219 1.364,2.24318c0.34058,0.62663 0.81238,1.64996 1.15683,2.23599c0.60321,1.02629 1.14493,1.5939 1.65384,2.23599c0.35051,0.44223 0.95924,1.43968 1.3045,2.26401c0.33855,0.80827 0.69408,1.82646 1.02083,2.45833c0.46292,0.89517 1.10168,1.49269 1.37866,2.36317c0.27324,0.85875 0.30856,1.89195 0.55734,2.46783c0.32207,0.74554 1.09373,1.50133 1.48,2.412c0.27502,0.64841 0.56137,1.61687 0.8,2.39999c0.29753,0.97639 0.23602,1.78157 0.63666,2.64149c0.42468,0.91153 0.45073,1.59172 0.7045,2.45717c0.25729,0.87744 0.91425,1.59865 0.94284,2.5c0.02853,0.89955 -0.17355,1.83826 0.08533,2.60001c0.30176,0.88791 0.78024,1.60986 0.91917,2.5c0.12781,0.81895 0.82787,1.47183 0.991,2.39999c0.14972,0.85188 0.39238,1.61122 1.17117,2.13333c0.70589,0.47324 1.60518,-0.10316 2,-0.83333c0.35504,-0.65657 1.1405,-1.29289 1.83333,-2c0.50528,-0.5157 1.09735,-1.32291 1.5,-2c0.49673,-0.83528 1.01826,-1.42979 1.7955,-1.94733c0.69644,-0.46373 1.06166,-1.35268 1.7045,-2.05267l0.47917,-0.5" id="svg_2" stroke-width="2" stroke="#000" fill="none"/>
  <path t="5820,5850,5870,5886,5898,5915,5932,5948,5965,5982,5982,5998,5998,6013,6030,6046,6046,6063,6063,6080,6080,6096,6113,6130,6130,6146,6146,6163,6180,6180,6196,6213,6230,6246,6246,6263,6286,6301,6321,6337,6346,6363,6380,6380,6396,6413,6430,6430,6446,6463,6463,6480,6480,6496,6513,6513,6530,6530,6546,6546,6546,6563,6563,6580,6596,6596,6613,6630,6630,6646,6646,6663,6663,6680,6696,6713,6733,6733,6749,6749,6763,6780,6795,6795,6812,6812,6829,6829,6846,6846,6862,6863,6879,6895,6896,6896,6913,6930,6930,6945,6946,6946,6962,6963,6980" d="m224.5,144c0,1.8 0,2.7 0,3.60001c0,0.89999 0,1.79999 0,2.7c0,0.89999 0,1.8 0,2.7c0,0.75717 0,1.65266 0,2.51601c0,0.96317 0,1.7885 0,2.8055c0,0.69933 0,1.6785 0,2.46783c0,1.04399 0,1.90616 0,2.81067c0,0.81065 0,1.72133 0,2.57466c0,0.94133 0,1.70934 0,2.65067c0,1.008 -0.15805,1.89003 0.02083,2.67467c0.21931,0.96204 0.91829,1.59389 0.97917,2.5c0.05363,0.7982 0,1.7 0,2.60001c0,0.89999 0,1.79999 0,2.7c0,0.89999 0,1.8 0,2.7c0,0.8 0,1.7 0,2.636c0,0.84799 0,1.71133 0,2.61133c0,0.91934 0,1.75267 0,2.73117c0,0.82016 0,1.77867 0,2.67867c0,0.74733 0,1.74417 0,2.57883c0,0.93068 0,1.71217 0,2.50267c0,1.11833 0,1.95233 0,2.89734c0,0.84799 0,1.71133 0,2.61133c0,0.91934 0,1.7735 0,2.75267c0,0.78934 0,1.83333 0,2.58934c0,0.91066 -0.08171,1.81476 0.0045,2.71516c0.0836,0.87329 0.57802,1.66705 0.82883,2.52882c0.24515,0.84233 0.06435,1.77472 0.1875,2.6875c0.11035,0.81787 0.42761,1.5258 1.07918,2.45767c0.45233,0.64693 1.15024,1.18184 1.7,1.90683c0.55339,0.72977 0.8466,1.49957 1.39999,2.22934c0.54976,0.72499 1.24843,1.25996 1.8,2.052c0.44038,0.63237 0.74033,1.39488 1.39999,2.19733c0.64519,0.78482 1.23601,1.272 1.92134,1.95734c0.504,0.504 1.19467,1.19467 1.91699,1.92149l0.47501,0.55583l0.33934,0.90134" id="svg_3" stroke-width="2" stroke="#000" fill="none"/>
  <path t="8166,8233,8258,8273,8285,8301,8317,8317,8337,8346,8346,8363,8380,8396,8413,8413,8430,8430,8430,8446,8446,8463,8480,8480,8496,8496,8513,8530,8530,8546,8563,8563,8580,8580,8580,8596,8596,8613,8613,8630,8630,8646,8646,8646,8663,8663,8680,8696,8696,8713,8713,8713,8730,8730,8730,8746,8746,8763,8763,8763,8780,8780,8796,8796,8813,8813,8813,8830,8830,8830,8830,8846,8846,8846,8863,8863,8880,8880,8937" d="m330.5,155c0,1.8 -0.00195,2.61961 0.42532,3.39999c0.45038,0.82257 0.57468,1.70001 0.57468,2.60001c0,0.8 0,1.75717 0,2.65266c0,0.86334 0,1.71133 0,2.64734c0,0.90134 0,1.86667 0,2.536c0,1.164 0.0018,1.964 0,2.76401c-0.00226,0.9955 0.05206,1.78636 -0.35266,2.64282c-0.38318,0.81088 -0.64508,1.51433 -0.64734,2.40984c-0.00217,0.86334 0,1.84734 0,2.83133c0,0.69067 0,1.76334 0,2.68268c0,0.66933 0,1.83333 0,2.63333c0,0.8 0,1.8 0,2.59999c0,0.99867 0.03766,1.7648 -0.00134,2.71735c-0.02841,0.69415 -0.28833,1.65039 -0.49866,2.40349c-0.22198,0.79486 -0.44785,1.79022 -0.48932,2.63251c-0.0538,1.09273 -0.01068,2.01334 -0.01068,2.68266c0,1.164 0,1.97467 0,2.62117c0,0.96417 0,1.76816 0,2.59016c0,1.26733 0.00681,1.93185 0,2.95267c-0.00534,0.80006 -0.03976,1.61331 -0.35266,2.60001c-0.25769,0.81265 -0.56769,1.59583 -0.6265,2.39999c-0.07294,0.99756 -0.02084,1.82133 -0.02084,2.77066c0,0.87218 0,1.89067 0,2.61467c0,0.73201 0,1.793 0,2.76801c0,0.88499 0,1.925 0,2.59999l0,1.08l0,0.75601l0,0.95467" id="svg_4" stroke-width="2" stroke="#000" fill="none"/>
  <path t="9786,9796,9796,9820,9834,9848,9848,9863,9880,9897,9897,9897,9914,9914,9930,9930,9930,9947,9947,9963,9980,9997,10014,10014,10030,10030,10047,10047,10064,10064,10064,10080,10080,10097,10097,10097,10097,10113,10113,10131,10131,10131,10147,10147,10147,10163,10163,10180,10180,10197,10197,10213,10213,10213,10231,10231,10231,10247,10247,10264,10264,10280,10280,10280,10297,10297,10313,10330,10330,10347,10348,10365,10380,10483,10483,10521,10530,10557,10680,10726,10738,10748,10763,10780,10796,10796,10797,10813,10813,10830,10830,10846,10846,10863,10863,10880,10880,10896,10896,10896,10913,10913,10930,10930,10931,10946,10946,10946,10963,10963,10980,10981,10996,10996,10996,11013,11013,11031,11046,11046,11064,11064,11080,11096,11096,11113,11113,11131,11131,11146,11146,11163,11163,11180,11181,11196,11196,11213,11229,11246,11246,11263,11263,11279,11296,11296,11313,11313,11329,11329,11329,11347,11377,11377,11393,11413,11413,11429,11461,11479,11479,11513,11533,11573,11601,11625,11633,11646,11663,11663,11683,11684,11701,11716,11716,11732,11733,11749,11766,11766,11782,11798,11880" d="m327.5,148c1.64816,1.65266 2.21735,2.12148 2.83066,3.11333c0.45178,0.73065 1.2294,0.60262 1.86935,0.23933c0.76031,-0.43161 1.57281,-0.75462 2.46664,-1.35266c0.64807,-0.43361 1.2374,-0.7009 2.23334,-1.2c0.79965,-0.40074 1.58994,-0.8214 2.39999,-1.18933c0.59305,-0.26936 1.59622,-0.56335 2.54285,-0.60617c0.89908,-0.04066 1.85718,-0.0045 2.75717,-0.0045c0.89999,0 1.65781,-0.0294 2.55716,0.0045c0.74866,0.02821 1.75412,0.25435 2.54285,0.60617c0.81253,0.36244 1.59985,0.7896 2.39999,1.18933c0.80121,0.40027 1.62924,0.81607 2.56665,1.2c0.77618,0.3179 1.35773,0.43948 2.064,0.88533c1.03891,0.65582 1.30399,1.36746 2.09085,2.09334c0.64114,0.59145 1.31055,0.86664 2.07718,1.50667c0.60626,0.50613 1.14023,1.09859 1.84866,2.11017c0.3916,0.5592 1.05521,1.40948 1.75266,1.88367c0.81268,0.55252 1.50363,1.03792 2.16666,1.6875c0.49323,0.48323 1.00845,1.05382 2.03317,1.812c0.57089,0.42239 1.37225,0.85295 1.91483,1.50533c0.53589,0.64435 0.95828,1.51823 1.52133,2.14134c0.65488,0.72473 1.18936,1.20001 1.88,1.89067c0.72684,0.72684 1.31586,1.25174 1.884,1.89465c0.63913,0.72325 0.96118,1.69516 1.60001,2.25601c0.59909,0.52597 1.52802,0.78682 2.2955,1.28065c0.69635,0.44806 0.69559,1.45824 1.2045,2.05267c0.50635,0.59145 1.04901,1.21439 1.66666,1.83333c0.61734,0.61865 0.95737,1.37527 0.83319,2.26651c-0.11172,0.80188 -0.86066,1.31166 -1.33319,2.06683c-0.44778,0.71561 -1.03482,1.16481 -1.78131,1.94933c-0.59409,0.62433 -1.07452,1.37439 -1.48535,2.05867c-0.48727,0.81161 -0.99731,1.41733 -1.7045,2.12984c-0.57864,0.58301 -1.15857,1.20361 -1.90616,1.87016c-0.76733,0.68416 -1.39279,1.05524 -2.13217,1.52083c-0.78183,0.49232 -1.41092,1.06056 -2.14249,1.78984c-0.53635,0.53467 -1.11603,1.11598 -1.91336,1.91333c-0.39066,0.39067 -1.116,1.11601 -1.84415,1.84416c-0.55585,0.55583 -1.18695,1.16257 -1.64252,1.72784c-0.62564,0.77634 -1.10373,1.53716 -1.63065,2.26132c-0.58664,0.80623 -1.17838,1.46013 -1.784,2.06801c-0.6987,0.70131 -1.20001,1.19998 -1.90002,1.89999c-0.59998,0.59999 -1.19998,1.2 -1.89999,1.90001c-0.60001,0.59999 -1.24265,1.17035 -1.69998,1.78532c-0.66547,0.89485 -0.97614,1.64758 -1.5,2.362c-0.4787,0.65283 -0.94366,1.44904 -1.45718,2.10001c-0.6546,0.82982 -1.45792,1.18333 -2.22116,1.75267c-0.61078,0.45561 -0.89771,1.46782 -1.37885,2.2c-0.52191,0.79424 -1.14282,1.19998 -1.84283,1.89999c-0.59998,0.59999 -1.21216,1.18805 -1.89999,1.90018c-0.50916,0.52713 -1.11273,1.37828 -1.5,2.11049c-0.41373,0.78223 -0.76035,1.60199 -1.19998,2.304c-0.55194,0.88133 -1.19968,1.48567 -1.80002,2.08534c-0.59967,0.599 -1.38916,1.29062 -2.10001,1.39549c-0.93469,0.13791 -1.51614,0.73396 -2.29999,1.17117c-0.65189,0.3636 -1.23297,1.22971 -2,1.66666c-0.77988,0.44426 -1.21756,1.25475 -2.09982,1.1665c-0.85901,-0.08592 -0.73016,-1.14873 -1.06683,-1.99983c-0.27795,-0.70265 -0.67813,-1.49832 -0.88602,-2.34734c-0.22461,-0.91731 -0.80496,-1.75877 -1,-2.40984c-0.27103,-0.90468 -0.73102,-1.55769 -0.91132,-2.61749c-0.15887,-0.93394 -0.03601,-1.8 -0.03735,-2.73866l-0.22,-0.76534l-0.7215,-0.4785" id="svg_5" stroke-width="2" stroke="#000" fill="none"/>
  <path t="13413,13603,13626,13658,13678,13717,13754,13770,13786,13798,13813,13829,13829,13846,13846,13863,13863,13879,13896,13896,13913,13929,13929,13946,13963,13979,14001,14349,14349" d="m231.5,205c0.87866,1.22133 1.38507,1.90788 1.97467,2.42534c0.63774,0.55969 1.21094,1.06342 1.85866,1.74133c0.60406,0.63222 1.10223,1.19623 1.66667,1.83333c0.55005,0.62086 1.07256,1.19498 1.85184,1.7c0.76604,0.49643 1.39207,1.02594 1.84683,1.784c0.49947,0.83258 0.59636,1.82352 1.02283,2.61601c0.36499,0.67827 1.1785,1.29999 1.7785,1.89999c0.60001,0.60001 1.39638,1.23297 1.83333,2c0.44426,0.77986 1.04533,1.2215 1.388,2.09984l0.49467,0.61482" id="svg_6" stroke-width="2" stroke="#000" fill="none"/>
  <path t="15863,15905,15922,15945,15945,15963,15981,16005,16025,16033,16046,16063,16079,16079,16096,16113,16133,16133,16146,16163,16164,16179,16196,16213,16213,16229,16229,16246,16246,16264,16279,16279,16296,16313,16313,16329,16329,16329,16346,16346,16363,16379,16379,16396,16396,16396,16413,16413,16413,16413,16429,16429,16446,16446,16446,16463,16463,16463,16479,16479,16497,16497,16497,16513,16514,16514,16529,16529,16529,16530,16546,16546,16546,16563,16563,16579,16579,16579,16596,16596,16614,16614,16629,16629,16629,16646,16646,16646,16663,16663,16663,16679,16679,16679,16696,16696,16696,16713,16729,16729,16746,16746,16746,16764,16764,16779,16796,16857" d="m244.5,221c0.87849,1.2215 1,2.10001 1,3c0,0.8 0,1.7 0,2.60001c0,0.89999 0,1.79999 0,2.7c0,0.89999 0,1.8 0,2.7c0,0.8 -0.0791,1.68854 -0.5,2.52083c-0.3996,0.79018 -0.49466,1.65379 -0.5,2.59384c-0.00502,0.88531 0.19127,1.71841 -0.05716,2.58533c-0.25693,0.89658 -0.86406,1.61668 -0.92201,2.32083c-0.08034,0.97609 -0.02083,1.95834 -0.02083,2.8125c0,0.86217 0,1.80267 0,2.65067c0,0.86334 0,1.76334 0,2.68268c0,0.85416 0,1.83333 0,2.63333c0,0.8 0,1.7955 0,2.54283c0,1.03183 0,1.97867 0,2.67801c0,0.97916 0,1.80048 0,2.74982c0,0.87201 0,1.88 0,2.57867c0,0.68268 -0.05614,1.88385 0.036,2.82935c0.08066,0.82773 0.44373,1.61575 0.68001,2.50665c0.26109,0.98447 0.24532,1.81958 0.368,2.63068c0.15231,1.00702 0.48978,1.64194 0.74933,2.68399c0.1989,0.79849 0.18179,1.46481 0.45067,2.68668c0.12413,0.56406 0.39763,1.46924 0.54933,2.47998c0.10698,0.71277 0.1178,1.44995 0.21935,2.5235c0.09258,0.97876 0.3165,1.79028 0.59467,2.70084c0.24583,0.80469 0.33559,1.60895 0.35266,2.60901c0.01366,0.79996 0.03976,1.61331 0.35266,2.60001c0.25771,0.81265 0.59451,1.79907 0.63667,2.63599c0.04683,0.92953 -0.01953,1.71875 0.04666,2.53867c0.08583,1.06326 0.3533,1.76157 0.61134,2.67801c0.26991,0.95859 0.33055,1.77225 0.34816,2.59467c0.02208,1.03113 -0.03671,1.73309 0.08983,2.63666c0.14124,1.00842 0.43266,1.79022 0.63068,2.54666c0.24968,0.95383 0.284,1.936 0.284,2.79019c0,0.97916 0,1.77914 0,2.57916c0,0.99548 0,1.74283 0,2.76401l0,0.836l0,0.99731" id="svg_7" stroke-width="2" stroke="#000" fill="none"/>
  <path t="18579,18589,18589,18605,18631,18650,18650,18665,18681,18698,18698,18715,18765,18777,18798,18815,18829,18829,18846,18863,18863,18879,18896,18896,18913,18913,18929,18929,18946,18946,18964,18964,18979,18979,18979,18996,18996,19013,19013,19013,19029,19029,19029,19046,19046,19046,19063,19063,19079,19079,19079,19096,19096,19096,19096,19113,19113,19129,19129,19129,19146,19146,19146,19146,19163,19163,19163,19179,19179,19179,19179,19196,19196,19213,19213,19213,19229,19229,19229,19229,19229,19246,19246,19246,19263,19263,19263,19263,19279,19279,19279,19279,19296,19296,19296,19313,19313,19313,19329,19329,19329,19329,19346,19346,19346,19346,19363,19363,19363,19379,19379,19380,19396,19396,19396,19396,19413,19413,19413,19429,19429,19429,19429,19446,19446,19446,19446,19463,19463,19463,19479,19479,19479,19496,19496,19496,19513,19513,19513,19529,19529,19529,19529,19546,19546,19546,19546,19562,19562,19579,19579,19625,19632" d="m311.5,206c-1.2955,4.12849 -1.45065,4.9536 -2.08401,5.71466c-0.54324,0.65279 -1.2963,1.15907 -1.71597,1.80267c-0.56345,0.86412 -0.95273,1.63321 -1.36667,2.48267c-0.31787,0.65227 -0.82291,1.49982 -0.83334,2.39999c-0.01041,0.89995 0.08212,1.80377 -0.00015,2.70001c-0.08368,0.91144 -0.74692,1.43791 -0.96384,2.31065c-0.21985,0.88448 -0.03601,1.76401 -0.03601,2.70401c0,0.88533 0,1.77066 0,2.5425c0,0.94417 0,1.94284 0,2.74283c0,1 0,1.8 0,2.8c0,0.8 0,1.8 0,2.60001c0,0.8 0,1.8 0,2.59999c0,1.00267 0,1.64168 0,2.37067c0,1.19734 0,1.88 0,2.92401c0,0.972 0,1.791 0,2.69633c0,1.00899 0,1.80899 0,2.80933c0,0.621 0,1.57033 0,2.44234c0,1.008 0,1.70667 0,2.38933c0,1.19734 0,2.14668 0,3.1685c0,0.6315 0,1.371 0,2.66351c0,0.79398 0,1.63599 0,2.478c0,1.15799 0,1.80331 0,2.61633c0,1.20831 0,1.99432 0,2.81631c0,0.54135 0,1.77267 0,2.45068c0,1.19632 0,2.02133 0,2.62134c0,1.31998 0,2.03732 0,2.77866c0,0.74933 0,1.49066 0,2.89066c0,0.65866 0,1.63669 0,2.65067c0,0.71735 0,1.45868 0,2.20801c0,1.45868 0,2.14001 0,2.78934c0,0.93149 0,2.13583 0,2.73151c0,0.8685 0,1.93784 0,2.88983c0,0.72449 0,1.85748 0,2.52451c0,0.711 0.00339,1.8075 -0.00015,2.86865c-0.00223,0.66434 -0.01053,1.61343 -0.08517,2.22018c-0.14853,1.20721 -0.42822,2.07712 -0.56201,2.64417c-0.2991,1.26767 -0.33273,1.9805 -0.43668,2.7265c-0.16791,1.2049 -0.34592,1.89105 -0.49066,2.616c-0.14597,0.73108 -0.34344,2.12915 -0.39999,2.77866c-0.08109,0.93121 -0.15964,1.84357 -0.38699,2.74051c-0.15775,0.62241 -0.51181,1.58643 -0.9595,2.61667c-0.31769,0.73111 -0.67383,1.45126 -0.96899,2.16898c-0.39804,0.96793 -0.60016,1.79999 -0.72452,2.52451c-0.20709,1.2066 -0.32068,1.74506 -0.59598,2.56c-0.36099,1.0687 -0.67966,1.7728 -1.08936,2.62085c-0.39099,0.80933 -0.82086,1.64612 -1.18533,2.37515c-0.436,0.87213 -0.77118,1.53732 -1.11465,2.25018c-0.35129,0.7291 -0.84155,1.80914 -1.11465,2.49249c-0.37589,0.94055 -0.56207,1.53247 -0.98517,2.565c-0.36334,0.88672 -0.73352,1.755 -0.8895,2.51099l-0.04669,0.97467l-0.61133,0.37433" id="svg_8" stroke-width="2" stroke="#000" fill="none"/>
  <path t="20679,20679,20679,20679,20679,20679,20703,20703,20703,20731,20731,20731,20748,20748,20748,20748,20764,20764,20764,20779,20779,20779,20796,20796,20812,20829,20829,20846,20846,20862,20862,20879,20896,20912,20929,20946,20962,20979,21005,21029,21046" d="m320.5,226c-0.22134,4.621 -0.34955,5.54417 -0.5,6.45833c-0.07318,0.44458 -0.25937,1.28152 -0.41467,2.68701c-0.08957,0.81061 -0.06308,1.5363 -0.08798,2.54132c-0.02121,0.85564 -0.11935,1.81404 -0.44019,2.8345c-0.2323,0.73883 -0.57007,1.46176 -0.909,2.16901c-0.47052,0.98184 -0.89099,1.7955 -1.23749,2.48849c-0.51068,1.02133 -0.81091,1.62122 -1.21066,2.42134c-0.39893,0.79854 -0.80167,1.55089 -1.116,2.51466c-0.28531,0.87479 -0.74646,1.48766 -1.28268,2.36932c-0.40601,0.66757 -0.60385,1.66904 -0.88535,2.31467c-0.38324,0.879 -1.14893,1.59773 -1.91599,2.03468c-0.77988,0.44424 -1.30801,0.93365 -1.94733,1.51932c-0.58325,0.53433 -1.34818,1.00452 -1.88602,1.64734l-0.33331,0.83334" id="svg_9" stroke-width="2" stroke="#000" fill="none"/>
  <path t="22259,22289,22310,22333,22350,22405,22408,22430,22430,22446,22446,22462,22462,22479,22479,22496,22541" d="m319.5,229c3.77585,-3.18117 4.48993,-3.81091 4.97467,-4.436c0.57538,-0.74199 1.05005,-1.30336 1.72983,-1.67833c0.73743,-0.40675 0.93188,-1.28391 1.60001,-2.133c0.53293,-0.67729 1.17947,-1.23668 1.87015,-1.92734c0.65869,-0.65868 1.17868,-1.18933 1.74002,-2.02533l0.08533,-0.90001" id="svg_10" stroke-width="2" stroke="#000" fill="none"/>
  <path t="25266,25286,25305,25317,25333,25346,25362,25362,25379,25396,25412,25412,25429,25447,25447,25462,25462,25479,25497,25497,25512,25513,25529,25529,25546,25546,25562,25562,25579,25579,25597,25597,25597,25612,25612,25629,25629,25646,25662,25662,25679,25679,25696,25696,25712,25729,25729,25746,25746,25762,25762,25779,25797,25812,25813,25837,25857,25889,25889,26062,26089,26105,26105,26121,26144,26162,26179,26196,26212,26233,26233,26257,26257,26277,26356,26381,26421,26437,26652,26689,26737,26737,26757,26772,26781,26796,26812,26812,26829,26846,26862,26862,26879,26896,26896,26912,26912,26929,26929,26946,26946,26962,26962,26962,26979,26996,26996,26996,27012,27012,27029,27029,27046,27046,27047,27062,27062,27079,27079,27079,27096,27112,27112,27113,27113,27129,27129,27129,27146,27146,27146,27146,27162,27162,27162,27179,27179,27196,27196,27197,27197,27213,27213,27213,27229,27229,27229,27229,27246,27246,27246,27262,27263,27263,27263,27263,27281,27281,27281,27281,27296,27296,27296,27312,27312,27312,27329,27329,27329,27346,27346,27346,27346,27362,27362,27362,27379,27379,27396,27396,27396,27412,27412,27429,27429,27429,27446,27446,27446,27462,27462,27462,27479,27479,27496,27496,27512,27512,27512,27529,27529,27529,27546,27562,27562,27562,27579,27596,27596,27612,27612,27629,27646,27646,27662,27679,27679,27696,27712,27712,27729,27746,27762,27779,27779,27796,27796,27812,27829,27846,27862,27878,27879,27895,27911,27929,27945,27962,27962,27979,28010,28029,28049,28049,28073,28085,28095,28112,28137,28161,28179,28222,28290,28318" d="m248.5,300c-0.64734,-3.04367 -1.09505,-3.79486 -1.5,-4.5c-0.45537,-0.79291 -0.33723,-1.7569 -0.72133,-2.60001c-0.35535,-0.78 -0.6947,-1.56631 -1.21468,-2.29999c-0.55785,-0.78708 -1.26532,-1.27698 -1.564,-2.12085c-0.27713,-0.78296 -0.55598,-1.68976 -1.10001,-2.45764c-0.45633,-0.6441 -1.33467,-1.23389 -1.73332,-2.02151c-0.35599,-0.70334 -0.45097,-1.7034 -0.92834,-2.34732c-0.62764,-0.84662 -1.41655,-1.00208 -1.9955,-1.974c-0.36543,-0.61346 -0.36946,-1.73572 -0.8895,-2.26801c-0.72478,-0.74185 -1.59091,-0.9769 -2.18666,-1.57733c-0.60162,-0.60635 -0.95924,-1.43774 -1.36667,-2.23203c-0.39413,-0.76837 -0.87143,-1.60474 -1.5,-2.29681c-0.5705,-0.62814 -1.03102,-1.48624 -1.46933,-2.10449c-0.52916,-0.74643 -1.40321,-1.02225 -1.76933,-2.02536c-0.24188,-0.66272 -0.58543,-1.65079 -1.16135,-2.27481c-0.60342,-0.65387 -1.08922,-1.3902 -1.5,-2.07449c-0.48718,-0.81155 -1.04199,-1.52121 -1.39999,-2.32535c-0.35632,-0.80035 -1.09288,-1.42462 -1.564,-2.10001c-0.5117,-0.73358 -0.29945,-1.75662 -0.72,-2.59999c-0.32993,-0.66165 -0.92268,-2.00746 -1.59467,-1.57851c-0.69966,0.44664 -0.82463,1.42406 -1.62134,1.7785c-0.7988,0.35538 -1.72778,0.67328 -2.37866,1.22134c-0.66225,0.55762 -1.3446,0.68228 -2.28801,0.94531c-0.68164,0.19006 -1.6909,0.58862 -2.42267,0.85867c-0.84807,0.31296 -1.60764,0.93195 -2.51067,0.97467c-0.89899,0.04251 -1.48369,0.37781 -2.12132,0.87851c-0.63365,0.49759 -0.95222,1.15973 -0.69334,1.92148c0.30176,0.88794 0.65727,1.63821 0.91917,2.49551c0.23608,0.7728 0.84178,1.28928 1.04817,2.05634c0.28026,1.04156 0.70006,1.79871 1.114,2.64816c0.31784,0.65225 0.75156,1.42789 1.05466,2.32132c0.2357,0.69476 0.61751,1.66739 0.83134,2.43134c0.25726,0.91907 0.65918,1.64825 1.04716,2.44736c0.38669,0.79645 0.74438,1.79813 0.87483,2.58932c0.11932,0.72375 0.57883,1.68835 1.02533,2.37732c0.42113,0.64981 0.76384,1.42447 0.94733,2.43335c0.14439,0.79388 0.31152,1.81128 0.66335,2.60001c0.36244,0.81253 0.78932,1.59998 1.08932,2.19998c0.5,1 0.90218,1.79895 1.3,2.60001c0.39146,0.78827 0.71141,1.51569 0.98534,2.396c0.34392,1.10529 0.57401,1.6608 0.87599,2.28c0.47491,0.97375 0.9733,1.82318 1.3815,2.466c0.4541,0.71509 0.86903,1.61838 1.15717,2.54468c0.20863,0.67068 0.35979,1.36087 0.8,2.54266c0.27518,0.73874 0.61732,1.35962 1.10001,2.37967c0.31126,0.65778 0.70711,1.72214 0.89999,2.35898c0.31154,1.02859 0.4758,1.7345 0.8,2.69867c0.27933,0.83075 0.61345,1.54248 1,2.5c0.31554,0.78165 0.60709,1.62228 0.88533,2.14935c0.54497,1.03229 1.14862,1.69482 1.51917,2.19382c0.82532,1.11145 1.1993,1.79791 1.5955,2.51102c0.20193,0.36343 0.58701,1.10394 1.19983,2.15765c0.57735,0.99268 0.97853,1.60278 1.31483,2.22018c0.48482,0.89005 0.85051,1.79019 1.18083,2.64417c0.3056,0.79007 0.69821,1.72418 1.0045,2.35266c0.49261,1.0108 0.81306,1.64471 1.27068,2.28983c0.53931,0.76028 1.28246,1.53778 1.77866,2.08932c0.48508,0.53918 1.30438,1.52487 1.709,2.2045c0.36125,0.60681 0.82217,1.63477 1.17767,2.22086c0.49786,0.8208 1.18225,1.59607 1.71133,2.14282c0.62311,0.64389 1.278,1.2825 1.97417,1.97867c0.5145,0.5145 1.07953,1.08649 1.87849,1.87833c0.59743,0.5921 1.17151,1.1806 1.99983,1.77866c0.57109,0.41232 1.35696,0.76492 2.17484,1.43219c0.53947,0.44012 1.2825,1.24649 1.836,1.79999c0.78934,0.78934 1.35388,1.42282 1.98933,1.91733c0.76112,0.59232 1.60667,0.74115 2.31468,0.95468c0.89014,0.26846 1.64786,0.92419 2.31067,1.31732c0.68646,0.40714 1.48596,1.12878 2.34131,1.43335c0.797,0.28378 1.81183,0.16666 2.63202,0.16666c0.83731,0 1.854,0 2.54865,0c1.02734,0 1.974,0 2.82733,0c0.94,0 1.82535,0 2.62534,0c0.90002,0 1.80002,0.00064 2.72086,0c0.96317,-0.00067 1.70245,0.10406 2.59381,-0.284c0.74176,-0.32294 1.61221,-0.53006 2.48535,-0.75201c0.86227,-0.21921 1.64609,-0.76398 2.39999,-1.13065c0.76364,-0.3714 1.62424,-0.81586 2.02533,-1.444c0.47623,-0.74582 0.7637,-1.64297 1.19601,-2.48935c0.33472,-0.6553 0.69571,-1.50125 1.13132,-2.25717c0.45441,-0.78854 0.47919,-1.67926 0.73267,-2.44281c0.25635,-0.77219 0.65427,-1.63913 0.91916,-2.49551c0.23608,-0.76331 0.98288,-1.22519 0.99551,-2.10449c0.01285,-0.89542 0.42532,-1.57468 0.98932,-2.21066l0.01068,-0.88934" id="svg_11" stroke-width="2" stroke="#000" fill="none"/>
  <path t="32022,32199,32209,32242,32261,32279,32295,32312,32329,32345,32362,32362,32380,32396,32396,32412,32429,32445,32445,32462,32462,32479,32479,32495,32512,32512,32528,32529,32529,32544,32544,32562,32562,32562,32579,32579,32595,32595,32611,32611,32629,32645,32645,32664,32664,32681,32681,32681,32698,32715,32715,32732,32732,32747,32747,32764,32765,32782,32782,32797,32797,32814,32829,32829,32847,32865,32885,32885,32910,32917,32933,32947,32964,32985,32997,33021,33037,33049,33065,33065,33082,33101,33117,33132,33148,33148,33165,33179,33197,33214,33232,33248,33248,33264,33264,33282,33282,33297,33298,33315,33331,33348,33348,33365,33365,33382,33398,33414,33414,33432,33432,33448,33448,33465,33465,33481,33481,33482,33498,33514,33529,33529,33547,33548,33564,33565,33583,33583,33598,33612,33612,33632,33645,33645,33665,33665,33681,33695,33695,33714,33729,33747,33764,33785,33785,33821,33833,33847,33869,33897,33897,33917,33977,33977,33999,33999,34015,34033,34057,34069,34082,34095,34115,34129,34145,34145,34165,34179,34179,34179,34198,34199,34212,34212,34232,34232,34232,34245,34245,34245,34266,34266,34266,34279,34279,34279,34298,34299,34299,34315,34315,34316,34332,34333,34333,34345,34345,34345,34345,34366,34366,34383,34384,34384,34384,34398,34398,34398,34415,34415,34415,34432,34432,34432,34448,34448,34465,34465,34465,34482,34482,34482,34482,34482,34499,34499,34515,34515,34515,34515,34532,34532,34532,34546,34546,34546,34565,34565,34565,34582,34582,34582,34598,34598,34598,34615,34615,34615,34632,34632,34632,34632,34648,34648,34648,34665,34665,34665,34681,34681,34681,34681,34698,34698,34698,34715,34715,34732,34732,34732,34745,34745,34746,34765,34765,34765,34782,34782,34783,34783,34798,34799,34799,34815,34815,34815,34830,34830,34848,34848,34848,34865,34865,34865,34882,34882,34883,34898,34898,34898,34915,34915,34915,34932,34932,34948,34948,34948,34965,34965,34982,34982,34982,34982,34998,35015,35015,35015,35032,35033,35033,35048,35048,35048,35048,35065,35065,35082,35082,35083,35097,35098,35115,35115,35132,35132,35149,35149,35165,35165,35182,35182,35198,35199,35215,35215,35215,35231,35232,35248,35249,35249,35265,35265,35266,35282,35282,35282,35298,35298,35315,35315,35315,35332,35332,35349,35349,35365,35365,35365,35382,35382,35398,35398,35415,35416,35432,35432,35448,35448,35465,35466,35466,35482,35483,35483,35497,35498,35498,35515,35515,35532,35532,35533,35548,35548,35549,35566,35566,35582,35582,35582,35583,35598,35598,35615,35616,35632,35632,35649,35649,35665,35665,35665,35683,35683,35683,35683,35698,35699,35715,35715,35733,35733,35748,35765,35765,35765,35782,35783,35798,35816,35832,35848,35866,35866,35882,35901,35901,35917,35932,35953,35977,36005,36029,36029,36089,36117,36157,36177,36201,36217,36232,36248,36248,36281,36354,36354,36372,36403,36421,36449,36449,36465,36465,36481,36481,36482,36499,36499,36515,36515,36532,36532,36548,36565,36566,36566,36581,36581,36599,36599,36615,36631,36631,36648,36648,36665,36666,36681,36681,36698,36715,36716,36732,36748,36748,36764,36781,36810,36869,36877" d="m212.5,145c-1.7,0 -2.60001,0 -3.5,0c-0.89999,0 -1.88933,-0.01067 -2.5,-0.5c-0.61067,-0.48933 -1.51295,-0.35814 -2.39999,-0.51067c-0.83443,-0.14348 -1.47571,-0.74329 -2.42534,-0.964c-0.99948,-0.23232 -1.57809,-0.71124 -2.47467,-0.96817c-0.86691,-0.24843 -1.80017,-0.05716 -2.58533,-0.05716c-0.95067,0 -1.716,0 -2.71017,0c-0.74733,0 -1.80273,-0.07605 -2.726,0.2215c-0.72403,0.23334 -1.67157,0.79298 -2.2785,1.07401c-0.79143,0.36644 -1.80348,0.5974 -2.59999,0.72983c-1.00526,0.16714 -1.60637,0.39705 -2.40001,0.776c-1.00838,0.48149 -1.59822,0.80223 -2.59982,1.29851c-0.58847,0.29158 -1.65918,0.65158 -2.38951,0.92549c-0.85088,0.31911 -1.4438,1.1657 -2.04666,1.53867c-0.78229,0.48398 -1.62679,0.38287 -2.56383,0.87868c-0.63368,0.3353 -1.25995,1.09688 -2.17484,1.49599c-0.90559,0.39507 -1.66008,0.52628 -2.45866,1.06134c-0.67854,0.45464 -1.33623,1.23778 -1.92384,1.7c-0.69366,0.54564 -1.43227,0.94078 -2.44266,1.17867c-0.76775,0.18076 -1.91277,0.19936 -2.43851,0.82584c-0.6158,0.7338 -1.09373,1.14693 -1.879,1.3795c-1.00481,0.29759 -1.73582,0.70595 -2.58267,1.13733c-0.76376,0.38905 -1.58051,0.43063 -2.37917,0.7995c-0.77109,0.35614 -1.32216,0.9785 -2.22083,0.97917c-0.90001,0.00067 -1.8,0 -2.7,0c-0.90001,0 -1.84846,-0.15353 -2.60001,0.16667c-0.78119,0.33284 -1.49982,0.82291 -2.39999,0.83333c-0.89995,0.01041 -1.8573,-0.16371 -2.70001,0.22133c-0.6693,0.3058 -1.49995,0.77333 -2.39999,0.77867c-0.89998,0.00533 -1.8,0 -2.7,0c-0.90018,0 -1.68533,0 -2.636,0c-0.76534,0 -1.76401,0 -2.564,0c-0.99867,0 -1.76401,0 -2.84283,0c-0.85718,0 -1.75717,-0.00191 -2.51434,0c-0.89551,0.00226 -1.78634,0.02347 -2.60683,0.42534c-0.86993,0.42609 -1.78548,0.42282 -2.52133,0.74533c-0.85894,0.37646 -1.28403,1.02008 -2.09334,1.80783c-0.51796,0.50417 -1.33355,1.1382 -2.04217,1.5215c-0.96703,0.52307 -1.64636,0.69005 -2.26483,1.2c-0.81688,0.67354 -1.05676,1.61385 -1.71433,2.3c-0.48925,0.51053 -1.24076,1.16722 -1.7,1.75717c-0.66212,0.85059 -0.95002,1.62515 -1.5,2.3575c-0.46022,0.61282 -1.2,1.28532 -1.9,1.98534c-0.5,0.5 -1.2,1.2 -1.9,1.89999c-0.5,0.5 -1.2,1.2 -1.7,1.7c-0.7,0.7 -1.32211,1.5009 -2,1.94284c-0.73392,0.47847 -1.69305,0.64717 -2.17867,1.457c-0.43762,0.72978 -1.24536,1.09323 -1.82133,1.60466c-0.73227,0.65021 -1.52857,0.96785 -2.17867,1.51683c-0.66432,0.56099 -1.27366,1.13809 -1.92133,1.49467c-0.86368,0.47549 -1.53246,1.12094 -2.22083,1.284c-0.95632,0.22653 -1.42419,0.8212 -2.00449,1.564c-0.45882,0.58731 -1.39349,0.85246 -1.89067,1.63467c-0.46492,0.73145 -0.91353,1.25336 -1.09467,2.20132c-0.15867,0.83038 -0.74893,1.62753 -1.042,2.3c-0.37753,0.86627 -1.06231,1.61314 -1.44733,2.32083c-0.31229,0.57399 -0.83071,1.56464 -1.064,2.17917c-0.37207,0.98009 -0.36463,1.81454 -0.60266,2.8c-0.19979,0.82715 -0.5481,1.44434 -0.74934,2.68533c-0.08864,0.54663 -0.08684,1.42728 -0.3055,2.6145c-0.11065,0.60081 -0.3633,1.47395 -0.7785,2.53349c-0.28257,0.72108 -0.61995,1.38377 -1,2.33334c-0.31202,0.77959 -0.61233,1.59686 -0.83334,2.66666c-0.14629,0.7081 -0.18407,1.62614 -0.388,2.58817c-0.17412,0.82141 -0.40858,1.37849 -0.612,2.57851c-0.15077,0.88948 -0.15361,1.47902 -0.16533,2.31467c-0.01736,1.23706 -0.00443,1.9512 -0.168,3.01866c-0.09776,0.63799 -0.34026,1.66524 -0.48067,2.36134c-0.19567,0.97009 -0.30534,2.04675 -0.40533,2.75349c-0.13837,0.97795 -0.39049,1.77255 -0.59467,2.59917c-0.25341,1.02594 -0.33157,1.71619 -0.35133,2.55133c-0.0238,1.00558 -0.01738,1.86642 -0.22283,2.823c-0.179,0.83344 -0.39984,1.42191 -0.7785,2.74501c-0.20444,0.71436 -0.39744,1.44609 -0.564,2.172c-0.15839,0.69028 -0.38245,1.89011 -0.42533,2.87599c-0.04137,0.95117 0.00464,1.74347 -0.04667,2.59601c-0.03561,0.59166 -0.24136,1.78966 -0.464,2.6685c-0.14307,0.56476 -0.43769,1.83643 -0.47916,2.54167c-0.04395,0.74747 -0.02084,1.94714 -0.02084,2.62982c0,0.69867 0,2.01599 0,2.83951c0,0.72449 0,1.67648 0,2.46249c0,0.82199 0,1.88068 0,2.83267c0,0.72449 0,1.85733 0,2.51999c0,0.69467 0,1.72668 0,2.92532c0,0.7485 0,1.45203 0,2.45602c0,0.85498 0,1.79999 0,2.8345c0,0.72699 0,1.45798 0,2.50949c0,0.92633 0,1.69733 0,2.56665c0,1.00717 0,1.85983 0,2.82401c0,0.80402 0,1.62601 0,2.65735c0,0.92133 0,1.60532 0,2.608c0,0.85498 0,1.79999 0,2.8345c0,0.72699 0,1.45798 0,2.50949c0,0.92648 -0.00063,1.70801 0,2.65201c0.00067,1.00131 -0.02696,1.82251 0.08533,2.63333c0.13969,1.00861 0.48845,1.64194 0.748,2.68399c0.19889,0.79849 0.22295,1.69128 0.45066,2.68533c0.1927,0.84119 0.40916,1.41119 0.59467,2.6145c0.09136,0.59262 0.07392,1.47632 0.28799,2.53351c0.19374,0.95679 0.53625,1.6077 0.71201,2.58783c0.14108,0.78671 0.06065,1.60083 0.40533,2.61084c0.27595,0.80862 0.63435,1.73709 0.716,2.48883c0.08649,0.7962 0.26556,1.80231 0.52084,2.47916c0.44507,1.18008 0.67137,1.68567 0.97916,2.47916c0.29263,0.75439 0.94669,1.64188 1.33334,2.6875c0.24088,0.65146 0.21165,1.52872 0.45333,2.52002c0.13795,0.56583 0.45836,1.48184 0.88,2.47998c0.30408,0.71985 0.65462,1.43433 0.972,2.13602c0.53928,1.19229 0.74667,2.01587 1.028,2.86398c0.22716,0.68481 0.62444,1.43985 1.13334,2.42883c0.29411,0.57156 0.99338,1.46399 1.34283,2.15717c0.42963,0.85223 0.34362,1.66962 0.64117,2.64603c0.23864,0.78311 0.58464,1.72922 0.8,2.48532c0.22463,0.78864 0.63222,1.51477 1.11467,2.51599c0.28751,0.59668 0.65031,1.59741 0.776,2.39999c0.12492,0.79773 0.37793,1.80637 0.63599,2.436c0.38258,0.93347 0.71236,1.70819 0.95334,2.53867c0.30444,1.04913 0.35776,1.77603 0.48866,2.67801c0.1412,0.9729 0.3834,1.759 0.59467,2.53751c0.2817,1.03806 0.35042,1.81516 0.35267,2.77917c0.00175,0.7515 0,1.54797 0,2.54532c0,0.87466 0,1.88535 0,2.68533c0,1 0,1.79999 0,2.60001c0,1 0,1.79999 0,2.79999c0,0.80002 0,1.79984 0,2.57916c0,0.99951 0,1.7735 0,2.6825c0,0.80002 0.01637,1.76022 -0.01067,2.57434c-0.02886,0.86926 -0.20078,2.0661 -0.342,2.65952c-0.20753,0.87207 -0.4936,1.93588 -0.59467,2.64734c-0.12083,0.85062 -0.36353,1.84961 -0.62733,2.69315c-0.28832,0.92191 -0.35702,1.71832 -0.45066,2.53867c-0.12113,1.06119 -0.35809,1.75818 -0.622,2.62085c-0.30456,0.99554 -0.29939,1.63437 -0.51933,2.77115c-0.15363,0.79404 -0.4332,1.61194 -0.63467,2.14935c-0.37727,1.00641 -0.85129,1.84988 -1.07717,2.88382c-0.16772,0.7677 -0.00633,1.64801 -0.17867,2.55283c-0.17883,0.93893 -0.59796,1.4761 -0.8215,2.66885c-0.15107,0.80609 -0.09536,1.39639 -0.28799,2.57849c-0.1471,0.90271 -0.35654,1.47351 -0.54934,2.31467c-0.22755,0.99274 -0.19137,1.87839 -0.56799,2.80133c-0.33292,0.81586 -0.6897,1.70892 -0.71467,2.39999c-0.03629,1.00446 -0.21933,2.02765 -0.42667,2.73468c-0.21848,0.74503 -0.5307,1.77524 -0.57333,2.54666c-0.04981,0.90131 0.004,1.8027 -0.00134,2.70267c-0.00533,0.90005 -0.39305,1.64359 -0.716,2.38535c-0.38808,0.89136 -0.284,1.948 -0.284,2.70398c0,0.91068 0,1.81067 0,2.71066c0,0.90002 0,1.80002 0,2.70001c0,0.79999 0,1.70001 0,2.60001c0,0.89999 0,1.79999 0,2.69998c0,0.90002 0,1.80002 0,2.70001c0,0.79999 0.05946,1.81723 1,2c0.68943,0.13397 1.42255,0.68555 2.3,0.94284c0.86546,0.25378 1.75133,0.36551 2.45716,0.7045c0.85902,0.41257 1.71177,0.36826 2.664,0.57401c0.80082,0.17303 1.55292,0.49905 2.6095,0.69333c0.71014,0.13058 1.6265,0.08533 2.57066,0.08533c0.99416,0 1.7415,0 2.6505,0c1.0815,0 1.7535,0 2.49751,0c1.10783,0 1.99883,0 2.90333,0c0.69467,0 1.722,0 2.66867,0c0.85333,0 1.796,0 2.48849,0c0.95817,0 1.93951,0 2.85683,0c0.79167,0 1.744,0 2.65467,0c0.85333,0 1.79333,0 2.67867,0c0.8,0 1.7,0 2.6,0l0.964,0l0.86133,-0.01068l0.55383,-0.51016" id="svg_12" stroke-width="2" stroke="#000" fill="none"/>
  <path t="42668,42689,42698,42711,42728,42728,42745,42745,42761,42761,42761,42762,42777,42777,42777,42777,42794,42794,42794,42794,42811,42811,42811,42827,42827,42827,42844,42844,42844,42861,42861,42861,42877,42877,42877,42877,42894,42894,42894,42911,42911,42927,42927,42944,42944,42944,42961,42961,42961,42977,42977,42977,42994,42994,43011,43011,43011,43027,43027,43027,43027,43044,43044,43061,43061,43077,43077,43094,43094,43094,43111,43111,43111,43127,43127,43127,43144,43144,43161,43161,43161,43177,43177,43177,43194,43194,43211,43211,43211,43227,43227,43227,43244,43244,43261,43261,43261,43277,43277,43277,43294,43294,43294,43294,43311,43311,43311,43311,43327,43327,43327,43327,43344,43344,43344,43361,43361,43361,43377,43377,43377,43377,43394,43394,43394,43411,43411,43427,43444,43444,43444,43461,43461,43461,43477,43477,43494,43494,43494,43511,43527,43527,43544,43544,43561,43577,43577,43594,43611,43611,43627,43656,43668,43668,43692,43708,43728,43776,43864,43884,43912,43928,43960,43978,44024" d="m126.5,308c0,2.58932 0,3.5 0,4.41068c0,0.91064 0,1.76398 0,2.70798c0,0.74835 0,1.64584 0,2.58936c0,0.724 -0.00317,1.496 0.00017,2.69183c0.00222,0.79565 0.00063,1.58054 0.057,2.34299c0.08082,1.09302 0.29449,2.10025 0.44283,2.73633c0.21453,0.91986 0.40541,1.8187 0.464,2.72086c0.05836,0.89865 0.036,1.79999 0.036,2.6955c0,0.8685 0,1.93784 0,2.65182c0,0.90533 0,1.87433 0,2.69934c0,0.60001 0,1.91998 0,2.63599c0,0.73199 0,1.8075 0,2.784c0,0.819 0,1.72433 0,2.73334c0,0.80002 0,1.80002 0,2.60001c0,1 0.04107,1.60852 -0.05717,2.45715c-0.11247,0.97159 -0.35821,1.77521 -0.64733,2.59018c-0.36923,1.0408 -0.74587,1.69537 -1.01017,2.55133c-0.30459,0.98642 -0.26542,1.64569 -0.50667,2.82285c-0.11073,0.54028 -0.39927,1.3801 -0.612,2.57849c-0.10563,0.59503 -0.12617,1.48422 -0.25066,2.31467c-0.15118,1.00854 -0.57426,1.85321 -0.7945,2.88516c-0.16401,0.76849 -0.05391,1.63922 -0.1575,2.46152c-0.11261,0.89386 -0.41765,1.60367 -0.61133,2.44766c-0.27132,1.18234 -0.28185,1.78833 -0.378,2.655c-0.11893,1.07205 -0.42477,1.99182 -0.622,2.6315c-0.30627,0.99332 -0.34734,1.80447 -0.35267,2.80466c-0.00438,0.82068 0.01126,1.48526 -0.00134,2.48383c-0.0103,0.81619 -0.01319,1.64963 -0.35133,2.85886c-0.18407,0.65829 -0.56397,1.65353 -0.6265,2.478c-0.05027,0.66287 -0.02084,1.66315 -0.02084,2.47916c0,0.81601 0,2.04285 0,2.68933c0,1.01102 0,1.85233 0,2.58133c0,1.19867 0,1.89069 0,2.61469c0,1.448 -0.00964,2.13089 0.01067,2.78931c0.03019,0.97867 0.14659,1.99362 0.27333,2.70935c0.13159,0.74313 0.33071,1.48413 0.54934,2.94934c0.10129,0.6788 0.11547,1.33319 0.21933,2.26215c0.13512,1.20856 0.30562,1.79861 0.522,2.66852c0.26557,1.06766 0.35925,1.78937 0.478,2.74582c0.10244,0.82504 0.3,1.7955 0.44733,2.49017c0.14733,0.69467 0.3782,1.95706 0.47467,2.728c0.1088,0.86938 0.39877,1.85962 0.67266,2.61484c0.3249,0.89587 0.52968,1.81998 0.778,2.50385c0.30338,0.83548 0.49067,1.83731 0.57467,2.65332c0.084,0.81601 0.28355,1.81482 0.5,2.47916c0.33266,1.02106 0.38513,1.82947 0.584,2.53552c0.28996,1.02948 0.84494,1.80161 0.90533,2.65997c0.06607,0.93909 0.01067,1.70935 0.01067,2.6507c0,1.008 0,1.76398 0,2.6955c0,0.96317 0,1.65381 0,2.59381c0,0.98535 0,1.88535 0,2.68533c0,0.90002 0,1.80002 0,2.70001c0,0.89999 0.1949,1.82169 -0.00134,2.69867c-0.18058,0.80704 -0.97334,1.22665 -1.60933,1.79065l-0.8685,0.03152l-0.54617,0.55383" id="svg_14" stroke-width="2" stroke="#000" fill="none"/>
  <path t="45739,45761,45761,45761,45769,45769,45785,45797,45797,45813,45830,45830,45830,45847,45847,45847,45860,45861,45877,45878,45878,45895,45895,45910,45910,45910,45928,45928,45945,45945,45960,45960,45960,45978,45978,45994,45995,45995,46010,46011,46028,46028,46045,46061,46061,46061,46078,46078,46095,46110,46111,46128,46144,46161,46184,46184,46195,46228,46232,46256,46272,46296,46296,46308,46332,46340,46364,46408,46408,46420,46460,46468,46480,46494,46512,46656" d="m99.5,246c1.82933,6.05867 1.95927,6.65422 1.99733,7.59467c0.04047,1.00005 -0.12166,1.83534 0.43867,2.76935c0.4373,0.72894 1.21281,1.19833 1.53867,2.04666c0.33843,0.88107 0.55585,1.62686 0.82666,2.276c0.41354,0.99124 0.68748,1.81754 0.99867,2.62933c0.3849,1.00406 0.76139,1.63824 1.03333,2.68399c0.20445,0.78622 0.18478,1.62039 0.52383,2.60001c0.21304,0.61554 0.7618,1.59113 1.03217,2.19998c0.3505,0.78931 0.51957,1.80603 0.66333,2.60001c0.18287,1.00998 0.57772,1.78409 0.78067,2.60001c0.1961,0.78836 0.17995,1.62207 0.52383,2.60001c0.28931,0.82275 0.78095,1.58353 1.12199,2.42084c0.26593,0.65292 0.42316,1.66339 0.52084,2.45831c0.14624,1.19019 0.61935,1.76566 0.91467,2.72217c0.28587,0.92596 0.03303,1.64346 0.17067,2.39999c0.18428,1.01285 0.53952,1.74899 0.88934,2.7627c0.29078,0.84262 0.674,1.46411 1.078,2.336c0.38534,0.83163 0.78374,1.64703 1.16867,2.39999c0.39016,0.76318 1.09005,1.28473 1.612,2.06665c0.47182,0.70685 0.5234,1.44562 1.08266,2.11868c0.55602,0.66916 0.69472,1.43094 1.10933,2.31467c0.37793,0.80551 1.35445,1.08246 1.89067,1.68533c0.5782,0.65009 0.56605,1.6517 1.13667,2.35748c0.59108,0.73108 1.16867,1.23584 1.89467,1.70984l0.478,0.62201l0.6,0.60001l0.69067,0.50934" id="svg_15" stroke-width="2" stroke="#000" fill="none"/>
  <path t="51934,51957,51957,51972,51980,52000,52000,52010,52010,52028,52045,52045,52061,52061,52061,52078,52078,52095,52095,52095,52095,52111,52111,52111,52128,52128,52128,52144,52145,52145,52145,52161,52161,52161,52161,52161,52178,52178,52178,52195,52195,52195,52211,52211,52228,52228,52228,52245,52245,52261,52261,52261,52261,52278,52278,52278,52295,52295,52310,52311,52311,52328,52328,52328,52345,52345,52360,52361,52378,52378,52378,52395,52395,52411,52411,52428,52428,52445,52445,52461,52478,52504,52536,52548,52548,52564,52580,52595,52611,52628,52645,52645,52661,52661,52661,52678,52678,52695,52695,52711,52711,52728,52728,52745,52761,52761,52761,52778,52778,52778,52795,52795,52811,52811,52828,52828,52845,52861,52861,52861,52861,52878,52878,52894,52894,52894,52911,52911,52911,52928,52928,52928,52944,52944,52944,52961,52961,52961,52961,52978,52978,52978,52994,52994,52994,53010,53010,53010,53027,53027,53044,53044,53044,53060,53060,53060,53078,53078,53093,53093,53093,53110,53110,53128,53128,53143,53143,53143,53160,53160,53160,53177,53177,53177,53193,53193,53193,53210,53210,53227,53227,53227,53227,53242,53243,53243,53260,53277,53277,53277,53292,53293,53309,53310,53310,53326,53327,53343,53360,53360,53377,53377,53377,53393,53393,53410,53410,53426,53427,53443,53443,53459,53460,53477,53477,53493,53509,53540,53547,53559,53577,53593,53609,53627,53627,53643,53660,53679,53704,53720,53735,53747,53763,53779,53832,53833,53940,53976,53995,54025,54025,54043,54043,54061,54077,54093,54094,54110,54127,54128,54143,54160,54177,54177,54193,54193,54210,54210,54228,54244,54260,54284,54284,54312,54400,54424,54460,54494,54510,54528,54528,54544,54568,54588,54588,54603,54612,54628,54643,54660,54677,54677,54693,54693,54710,54710,54727,54727,54728,54743,54760,54760,54777,54844,54851,54920,54929,54944" d="m186.5,251c0,3.53833 0,4.33833 0,5.36401c0,0.836 -0.09285,1.75189 0.08533,2.52133c0.22551,0.97385 0.74823,1.60654 0.89384,2.61465c0.11748,0.81332 -0.0168,1.72733 0.24216,2.70001c0.21794,0.81863 0.55025,1.38885 0.726,2.409c0.15474,0.89822 0.20967,1.72623 0.40533,2.69632c0.14041,0.69611 0.34033,1.38184 0.52583,2.65182c0.11363,0.77792 0.1098,1.72562 0.12283,2.72818c0.01086,0.83566 0.00652,1.42697 0.22017,2.61499c0.11038,0.61377 0.39507,1.5701 0.57983,2.27036c0.30853,1.16925 0.4984,2.03021 0.59866,2.46933c0.19945,0.87344 0.36383,1.7175 0.79868,3.10532c0.17612,0.5621 0.52209,1.28378 0.716,2.53867c0.08301,0.53723 0.06516,1.36353 0.08665,2.63068c0.01128,0.66467 0.15108,1.69009 0.42401,2.48532c0.27631,0.80508 0.51692,1.80963 0.59999,2.47202c0.13322,1.06238 0.25728,1.69629 0.47467,2.728c0.14641,0.69485 0.37323,1.66251 0.464,2.728c0.05634,0.66135 -0.00351,1.67603 0.07199,2.508c0.08495,0.93594 0.32661,1.71405 0.53867,2.53867c0.27142,1.05548 0.39201,1.76706 0.42084,2.62085c0.03389,1.00394 -0.03487,1.82144 0.22583,2.8045c0.21715,0.81882 0.65965,1.79364 0.74268,2.59998c0.08203,0.79657 0.036,1.80002 0.036,2.60001c0,1 -0.01317,1.80011 0.00017,2.79984c0.01039,0.77954 0.18443,1.62411 0.57449,2.3895c0.40834,0.80127 0.42534,1.71066 0.42534,2.61069c0,0.89999 0,1.79999 0,2.59998c0,0.90002 0,1.80002 0,2.70001c0,0.89999 0,1.8045 0,2.8215c0,0.69934 0,1.6785 0,2.47849c0,0.80002 -0.00053,1.80002 0,2.60001c0.00067,1 -0.04337,1.81805 0.22133,2.79984c0.21545,0.79913 0.50439,1.6683 0.83134,2.49567c0.30008,0.7594 1.12009,1.46521 1.59999,1.96167c0.52878,0.54703 1.34595,1.5304 1.71133,2.14282c0.35121,0.58868 0.86993,1.58282 1.2,2.36401c0.39503,0.93497 0.49626,1.72873 0.78867,2.48868c0.33635,0.87418 0.56218,1.7616 0.98067,2.68066c0.31993,0.70261 0.84531,1.43744 1.09868,1.98398c0.45229,0.97559 0.54561,1.91476 0.73466,2.84933c0.15948,0.78842 0.38634,1.59839 0.83333,2.5c0.35553,0.71713 0.83759,1.37247 1.2,2.38669c0.22348,0.62543 0.47655,1.65341 0.8,2.61331c0.27988,0.83057 0.61674,1.54114 1,2.5c0.31381,0.78513 0.50307,1.35315 0.8,2.23468c0.40283,1.19592 0.6172,1.78021 0.84283,2.64151c0.2692,1.02762 0.3373,1.73135 0.35583,2.64114c0.02039,0.99979 -0.02565,1.8212 0.08665,2.63202c0.13969,1.00861 0.54512,1.8576 0.748,2.68399c0.1962,0.79916 0.22025,1.69193 0.45067,2.68399c0.19096,0.82224 0.48196,1.62335 0.63068,2.63068c0.0975,0.66046 0.05345,1.6864 0.09599,2.48532c0.04272,0.80237 0.3791,1.78732 0.63667,2.60001c0.31311,0.98798 0.33896,1.62073 0.35266,2.76666c0.0094,0.78598 -0.03355,1.61893 0.16667,2.66669c0.13849,0.7247 0.54324,1.60651 0.71182,2.58798c0.13687,0.79688 0.11145,1.62604 0.12167,2.65717c0.00681,0.68558 0.05275,1.5293 0.35249,2.53052c0.20053,0.6698 0.50984,1.7215 0.59018,2.69632c0.05713,0.69327 0.0549,1.38934 0.05716,2.65152c0.00136,0.7605 0,1.55515 0,2.564c0,1.022 0,1.74048 0,2.53098c0,1.02667 0,1.92734 0,2.94818c0,0.79999 0,1.60001 0,2.59549c0,0.74734 0,1.77917 0,2.72617c0,0.72 0,1.845 0,2.62653c0,0.7905 0,1.71848 0,2.53098c0,1.00616 0,1.73151 0,2.72086c0,0.79999 0,1.79999 0,2.58932c0,1.04401 0,1.836 0,2.69467c0,0.86331 0,1.88 0,2.716c0,0.89999 0.32237,1.9538 -0.22133,2.67865c-0.48232,0.64304 -0.77867,1.32135 -0.77867,2.22134c0,0.89999 -0.10608,1.68811 -0.5,2.39999c-0.49025,0.88596 -0.49991,1.79999 -0.5,2.70001c-0.00009,0.89981 -0.48317,1.40717 -0.91467,2.08533c-0.49315,0.77505 -0.08533,1.81467 -0.08533,2.71466c0,0.79999 -0.41269,1.82343 0.05716,2.64282c0.39442,0.68787 1.27528,1.19418 1.96367,1.35718c0.95648,0.22647 1.67503,0.64651 2.47917,1c0.80037,0.35184 1.59337,0.93784 2.38533,0.99866c0.93724,0.07196 1.94804,-0.00729 2.70401,0.00134c0.91084,0.01044 1.64703,0.5033 2.57733,0.83334c0.7973,0.28287 1.66666,0.16666 2.586,0.16666c0.89999,0 1.59467,0 2.61133,0c0.936,0 1.8933,0.1637 2.73601,-0.22134c0.6693,-0.30579 1.49995,-0.77332 2.39999,-0.77866c0.89998,-0.00534 1.8,-0.00006 2.7,0c0.90001,0.00009 1.77411,0.20761 2.40001,0.57468c0.77151,0.45248 1.61879,0.92584 2.39999,1.25867c0.75154,0.32019 1.7,0.16666 2.60001,0.16666c0.89999,0 1.79999,0 2.7045,0c0.86217,0 1.74347,0.1416 2.67416,-0.2215c0.70313,-0.27432 1.49979,-0.99124 2.23199,-1.37851c0.78223,-0.41373 1.59909,-0.76501 2.30402,-1.19998c0.75171,-0.46384 1.40994,-1.29291 2.08533,-1.76401c0.73358,-0.51169 1.69998,-0.436 2.59866,-0.43735l0.74417,-0.35583l0.05716,-0.84283l-0.00015,-0.89999" id="svg_17" stroke-width="2" stroke="#000" fill="none"/>
  <path t="56063,56310,56320,56346,56361,56361,56377,56377,56393,56393,56393,56410,56411,56411,56428,56428,56443,56443,56443,56444,56461,56461,56461,56461,56477,56477,56477,56494,56494,56494,56494,56511,56511,56511,56528,56528,56528,56528,56528,56543,56543,56544,56560,56561,56561,56577,56578,56578,56578,56593,56593,56593,56610,56610,56611,56611,56628,56628,56628,56644,56644,56644,56644,56661,56661,56661,56677,56677,56678,56678,56678,56694,56694,56694,56711,56711,56711,56728,56728,56728,56743,56744,56744,56761,56761,56777,56777,56778,56778,56793,56794,56810,56811,56827,56827,56843,56843,56844,56861,56877,56878,56893,56911,56928,56928,56944,56944,56961,56978,56996,57011,57028,57043,57043,57061,57077,57094,57121,57169" d="m253.5,350c0,1.70001 0,2.70001 0,3.52084c0,0.96448 0,1.68982 0,2.67917c0,0.79999 0,1.79999 0,2.61066c0,0.87466 0,1.87332 0,2.68933c0,0.81601 0,1.81732 0,2.52084c0,1.3125 0,1.94849 0,2.6405c0,0.724 0,2.172 0,2.85333c0,0.96448 -0.00427,1.58081 0.00017,2.78531c0.00221,0.60001 -0.01482,1.50659 0.1665,2.70001c0.09184,0.60443 0.35904,1.4942 0.54933,2.39999c0.18806,0.89517 0.25815,1.81033 0.27333,2.436c0.03227,1.33032 0.01067,2.048 0.01067,2.78934c0,0.74933 0,1.49066 0,2.888c0,0.63998 0,1.52499 0,2.56549c0,0.94202 0,1.69052 0,2.564c0,1.01852 -0.00006,1.74252 0,2.47452c0.00009,1.06116 -0.02219,2.04889 0.05716,2.97815c0.07751,0.90781 0.29707,1.80411 0.44284,2.40451c0.21837,0.89941 0.41931,2.0997 0.47467,2.70001c0.08296,0.89954 0.23875,2.10175 0.37799,2.69998c0.21014,0.90283 0.40567,1.49371 0.56332,2.70267c0.08035,0.61624 0.11523,1.61404 0.25067,2.73068c0.10132,0.83542 0.25833,1.70673 0.33334,2.14581c0.14667,0.85846 0.39258,2.35516 0.44284,2.95386c0.06461,0.76968 0.05716,1.98831 0.05716,2.79233c0,0.82199 0,1.85333 0,2.54932c0,0.90933 -0.02109,1.91019 0.02084,2.72534c0.04202,0.81747 0.27261,1.81311 0.47916,2.5c0.3494,1.16196 0.45444,1.95203 0.47916,2.5c0.03677,0.8154 0.02084,2.04285 0.02084,2.89551c0,1.00449 0,1.8045 0,2.8045c0,0.79999 0,1.79999 0,2.58932c0,0.72534 0,1.71066 0,2.69467c0,0.69064 -0.07822,1.76242 0.00015,2.616c0.08368,0.91144 0.69971,1.49597 0.91452,2.384c0.20386,0.84277 0.08533,1.88 0.08533,2.716c0,0.89999 -0.25555,1.90817 0.22134,2.67883c0.45569,0.73642 0.61771,1.32071 0.78,2.2345c0.1488,0.83786 0.96265,1.32266 0.99866,2.18216l0,0.92599" id="svg_18" stroke-width="2" stroke="#000" fill="none"/>
  <path t="59120,59277,59277,59314,59314,59330,59346,59346,59361,59377,59394,59394,59394,59411,59411,59428,59428,59428,59443,59461,59461,59461,59477,59478,59478,59478,59494,59494,59511,59511,59511,59528,59528,59528,59544,59544,59561,59561,59578,59578,59578,59594,59594,59594,59611,59611,59628,59628,59644,59644,59661,59661,59678,59678,59678,59694,59694,59694,59711,59711,59730,59745,59745,59761,59761,59761,59777,59777,59777,59794,59811,59827,59849,59869,59869,60113,60161,60327,60354" d="m127.5,329c1.8,0 2.64284,0 3.56934,0c0.7825,0 1.8465,-0.11435 2.63066,0.284c0.65918,0.33484 1.50507,0.64117 2.34167,0.73685c1.01442,0.11603 1.71413,0.42523 2.51016,0.6265c1.02028,0.25797 1.92719,0.34222 2.94817,0.35266c0.78929,0.00806 1.52023,-0.08691 2.52083,0.02084c1.03569,0.11154 1.75217,0.41208 2.30051,0.58981c1.18083,0.38272 1.77274,0.60287 2.65784,0.8685c0.83142,0.24951 1.83966,0.40753 2.71016,0.54617c1.01685,0.16196 1.60495,0.45496 2.496,0.69067c0.98438,0.26041 1.8145,0.27234 2.63066,0.28265c0.9986,0.0126 1.87334,0.00134 2.884,0.00134c0.8,0 1.80066,-0.02374 2.61067,0.01068c0.64758,0.02753 1.61224,0.2045 2.41466,0.41464c0.82368,0.2157 1.84927,0.49438 2.733,0.55383c1.01825,0.06848 1.79434,0.02084 2.69884,0.02084c0.74733,0 1.74417,0 2.57883,0c0.93068,0 1.71667,0 2.53868,0c1.05865,0 1.98933,0 2.82399,0c0.99684,0 1.74417,0 2.776,0c0.94701,0 1.66701,0 2.79201,0c0.786,0 1.608,0 2.66666,0c0.705,0 1.505,0 2.53067,0c0.936,0 1.836,0 2.73601,0c0.89999,0 1.7,0 2.59999,0l0.90001,0l0.87917,-0.02084l0.51016,-0.55383" id="svg_19" stroke-width="2" stroke="#000" fill="none"/>
  <path t="61313,61610,61610,61620,61642,61663,61663,61679,61693,61710,61710,61710,61726,61726,61743,61743,61743,61761,61776,61776,61776,61793,61793,61810,61810,61810,61826,61826,61826,61843,61843,61843,61860,61860,61860,61860,61876,61876,61876,61876,61893,61893,61893,61893,61910,61910,61910,61926,61926,61926,61926,61926,61943,61943,61943,61943,61960,61960,61960,61961,61976,61976,61976,61977,61993,61994,61994,61994,61994,62010,62010,62010,62010,62026,62026,62026,62026,62043,62043,62043,62060,62061,62061,62076,62076,62076,62093,62093,62093,62110,62111,62111,62126,62126,62126,62143,62143,62160,62160,62160,62176,62176,62176,62193,62210,62210,62211,62226,62227,62227,62243,62260,62260,62276,62276,62293,62294,62310,62326,62343,62360,62360,62376,62393,62393,62410,62426,62426,62443,62460,62481,62566,62574,62596,62613,62637,62740,62917,62962,62962,62974,62996,63013,63029,63044,63044,63061,63061,63076,63093,63110,63126,63127,63127,63144,63144,63161,63161,63177,63194,63194,63211,63211,63226,63244,63244,63261,63281,63305,63305,63325,63349,63426,63469,63477" d="m145.5,331c1.16667,1 1.60129,1.58725 1.97467,2.39999c0.4075,0.88702 0.76221,1.6369 1.10933,2.39999c0.38858,0.85428 0.8181,1.65488 1.24933,2.36667c0.43834,0.72354 1.09908,1.1752 1.49734,2.23334c0.28917,0.76828 0.35655,1.81345 0.60533,2.38934c0.32207,0.74554 1.0367,1.55371 1.564,2.54401c0.34502,0.64798 0.60469,1.405 0.83333,2.33331c0.20325,0.8252 0.38904,1.87589 0.59201,2.59467c0.22314,0.79016 0.4594,1.81653 0.54933,2.51334c0.11725,0.90836 0.30435,1.91376 0.46133,2.47202c0.25813,0.91797 0.57062,1.91818 0.76266,2.63733c0.19749,0.73953 0.41055,1.48303 0.63466,2.94934c0.1037,0.67847 0.11549,1.33319 0.21935,2.26215c0.13513,1.20871 0.30472,1.80334 0.52199,2.7045c0.14449,0.59924 0.34654,1.80222 0.42534,2.74167c0.0564,0.67236 0.15506,1.79343 0.28534,2.62634c0.13837,0.88467 0.22397,1.33444 0.41916,2.22665c0.27908,1.2757 0.5002,2.03442 0.68483,2.74402c0.26208,1.00729 0.45683,2.02661 0.52667,2.74533c0.07191,0.74017 0.05576,1.49686 0.25067,2.94934c0.09213,0.68649 0.27916,1.33688 0.48067,2.31934c0.20714,1.00986 0.27342,1.7323 0.32733,2.48331c0.05557,0.77435 0.08022,1.56903 0.24666,2.76401c0.11183,0.80298 0.29004,1.59799 0.42601,2.39999c0.20299,1.19727 0.27046,1.99722 0.32733,2.77869c0.08055,1.10681 0.16116,2.09555 0.37799,2.9115c0.1946,0.73233 0.51295,1.67267 0.59018,2.46249c0.08012,0.8194 0.03027,1.88138 0.06783,2.82199c0.02711,0.67905 0.20869,1.64734 0.41467,2.46133c0.21991,0.86902 0.42459,1.76205 0.52199,2.65952c0.09407,0.86691 0.1924,1.94547 0.40533,2.64734c0.2619,0.86328 0.59496,1.85477 0.63667,2.65717c0.05193,0.99887 -0.02728,1.61618 0.09599,2.48532c0.14281,1.00687 0.43796,1.78751 0.63068,2.54532c0.28241,1.1105 0.284,2.10269 0.284,2.77917c0,0.77551 0,1.82352 0,2.7435c0,0.76001 0,1.74667 0,2.73199c0,0.72534 0,1.71451 0,2.49384c0,0.99933 0,1.81952 0,2.72086c0,0.89999 0,1.82083 0,2.784c0,0.69064 0,1.75882 0,2.61615c0,0.78519 0,1.72519 0,2.73318c0,0.75598 0,1.66666 0,2.56665c0,0.89999 -0.13733,1.88113 0.35266,2.54733c0.50325,0.68423 0.64734,1.45267 0.64734,2.35266c0,0.89868 0.05849,1.64993 1,1.70001c0.80341,0.04272 1.42236,0.68619 2.3,0.94284c0.86555,0.25311 1.8,0.05716 2.7,0.05716c0.88533,0 1.82533,0 2.51601,0c1.07333,0 1.88399,0 2.793,0c1.02432,0 1.69633,0 2.44032,0c1.10783,0 1.99884,0 2.90334,0c0.86334,0 1.74339,0.06921 2.66867,-0.22134c0.69994,-0.21982 1.65065,-0.71643 2.47733,-0.77731c0.83508,-0.06152 1.86754,0.0878 2.54868,-0.0585c1.05716,-0.22705 1.74655,-0.88196 2.65266,-0.94284c0.7982,-0.05362 1.7,0 2.60001,0l0.89999,0l0.88933,-0.01068l0.569,-0.51016" id="svg_20" stroke-width="2" stroke="#000" fill="none"/>
  <path t="64306,64551,64551,64551,64686,64696,64727,64727,64744,64744,64761,64777,64777,64794,64794,64811,64811,64826,64826,64843,64843,64860,64860,64860,64877,64877,64893,64893,64910,64910,64926,64926,64943,64960,64960,64976,64993,64993,65010,65010,65026,65043,65043,65060,65076,65076,65093,65093,65110,65110,65110,65126,65126,65126,65143,65143,65160,65160,65160,65160,65176,65176,65176,65193,65193,65210,65210,65210,65226,65226,65226,65243,65243,65243,65260,65260,65260,65276,65276,65276,65293,65293,65310,65310,65310,65310,65326,65326,65326,65343,65343,65360,65360,65360,65376,65376,65376,65393,65393,65410,65410,65410,65426,65426,65426,65443,65443,65460,65460,65476,65476,65493,65510,65510,65526,65526,65543,65560,65576,65576,65593,65621,65621,65652,65714,65726,65744,65765,65781,65794,65810,65833,65843,65876,65916,65967" d="m196.5,343c0,-1.41068 0,-2 0,-2.86401c0,-0.91449 0.03391,-0.03534 0,0.86401c-0.02859,0.75879 -0.38853,1.63852 -0.64734,2.34732c-0.36873,1.00983 -0.35266,1.974 -0.35266,2.82733c0,0.94135 0.04094,1.71069 -0.01067,2.66135c-0.04167,0.76782 -0.35986,1.75769 -0.564,2.36401c-0.3335,0.99057 -0.35207,1.815 -0.59201,2.79999c-0.19899,0.81689 -0.62862,1.58527 -0.77617,2.60001c-0.11536,0.79337 -0.00262,1.80438 -0.09315,2.60001c-0.11496,1.01031 -0.47893,1.55862 -0.79733,2.63333c-0.21927,0.74011 -0.16667,1.6875 -0.16667,2.65067c0,0.69064 0,1.76334 0,2.68265c0,0.65869 0,1.66669 0,2.52884c0,0.94049 0,1.78851 0,2.65182c0,0.90002 -0.07367,1.82446 0.02083,2.65268c0.11327,0.99274 0.64522,1.63281 1.07901,2.54285c0.33331,0.69922 0.58768,1.49973 0.77882,2.53564c0.12561,0.68073 0.14722,1.53778 0.4785,2.526c0.21629,0.6452 0.74803,1.81509 0.94284,2.35266c0.30824,0.85059 0.50407,1.44284 0.89867,2.64017c0.28343,0.86005 0.54582,1.62531 0.74866,2.59735c0.16042,0.76874 0.33089,1.57819 0.5735,2.34698c0.27252,0.86359 0.59056,1.75449 0.8685,2.64767c0.26456,0.85016 0.49541,1.88852 0.58534,2.58533c0.11725,0.90836 0.29326,1.91455 0.54616,2.72534c0.17191,0.55115 0.595,1.57193 0.95834,2.47916c0.24641,0.61523 0.48811,1.62875 0.51633,2.53519c0.03511,1.12778 -0.00452,1.79144 0.02533,2.48566c0.0444,1.03308 0.17593,1.96393 0.40451,2.728c0.26271,0.87817 0.54175,1.87534 0.57016,2.72916c0.03206,0.96365 -0.02643,1.77161 0.06166,2.59018c0.11171,1.03815 0.41411,1.70209 0.65884,2.55133c0.2858,0.99173 0.25937,1.64667 0.50533,2.82266c0.16982,0.81192 0.40665,1.34171 0.612,2.41202c0.17709,0.92294 0.166,1.76532 0.16667,2.76666c0.00053,0.79999 -0.07866,1.80652 0.036,2.564c0.14703,0.97141 0.80949,1.60303 0.95334,2.47198c0.13872,0.83801 0.01067,1.76852 0.01067,2.7627c0,0.76532 0,1.71597 0,2.70132c0,0.89999 0,1.69998 0,2.53598c0,1.01669 0.00246,1.71133 0,2.72803c-0.00226,0.93149 -0.40855,1.62964 -1,2.13599c-0.59444,0.50891 -1.4603,0.63586 -2.05267,1.14734c-0.65601,0.56641 -1.44733,0.85266 -2.33665,1.32733l-0.61067,0.52533l-0.61067,0.48932l-0.8685,0.01068" id="svg_21" stroke-width="2" stroke="#000" fill="none"/>
  <path t="69713,69723,69723,69723,69723,69736,69736,69760,69776,69777,69794,69810,69810,69829,69844,69861,69877,69897,69921,69949,69973,69973,70009,70025,70044,70060,70077,70094,70110,70127,70144,70161,70242,70242" d="m261.5,356c-0.87851,13.62033 -0.9176,14.28918 -0.94284,14.85233c-0.05258,1.17276 -0.05716,2.12616 -0.05716,2.84317c0,0.94049 0.10764,1.80255 -0.05716,2.65182c-0.17963,0.92575 -0.88068,1.74506 -0.9415,2.45267c-0.07709,0.89673 -0.00134,1.80002 -0.00134,2.70001c0,0.89999 0,1.79999 0,2.70001c0,0.89999 0,1.79999 0,2.59998c0,0.90002 0.39819,1.90259 -0.03601,2.76401c-0.35226,0.69888 -0.96332,1.23734 -0.96399,2.13602c-0.00067,0.89999 -0.02084,1.79999 -0.35266,2.59998l-0.52585,0.80002l-0.12149,0.89999l0,0.79999" id="svg_22" stroke-width="2" stroke="#000" fill="none"/>
  <path t="73383,73476,73496,73512,73526,73543,73559,73576,73576,73593,73609,73609,73626,73626,73626,73643,73659,73659,73676,73676,73676,73693,73693,73693,73693,73709,73709,73709,73726,73726,73743,73743,73760,73760,73776,73777,73777,73793,73793,73793,73809,73809,73809,73826,73826,73826,73843,73843,73843,73843,73859,73859,73859,73876,73876,73876,73893,73893,73893,73909,73909,73909,73909,73926,73926,73926,73943,73943,73943,73959,73959,73976,73976,73976,73993,73993,73993,73993,74009,74009,74009,74026,74026,74026,74043,74043,74059,74059,74075,74076,74076,74076,74093,74093,74093,74109,74126,74126,74143,74143,74159,74159,74241,74577,74629,74645,74661,74679,74693,74709,74709,74728,74743,74758,74759,74776,74776,74793,74793,74808,74809,74825,74825,74826,74842,74843,74858,74876,74876,74876,74892,74893,74893,74909,74909,74925,74926,74943,74943,74959,74959,74976,74976,74976,74993,74993,74993,75009,75009,75009,75026,75026,75043,75043,75059,75059,75059,75076,75076,75093,75093,75109,75109,75109,75125,75126,75143,75159,75159,75159,75176,75193,75193,75209,75226,75226,75243,75243,75259,75276,75276,75296,75296,75312,75344,75359,75380,75380,75393,75409,75426,75426,75443,75443,75443,75459,75476,75476,75476,75493,75493,75509,75509,75509,75526,75543,75543,75559,75559,75576,75576,75593,75593,75609,75626,75626,75643,75659,75659,75676,75745,75769,75778,75793,75816,75828,75828,75843,75859,75876,75876,75876,75893,75893,75909,75926,75926,75943,75943,75959,75976,75993,75993,76009,76009,76026,76043,76059,76059,76076,76093,76093,76112,76126,76143,76159,76176,76193,76209,76228,76243,76264,76264" d="m313.5,257c0,1.79999 0,2.70001 0,3.60001c0,0.89999 0,1.79999 0,2.69998c0,0.80017 0,1.58536 0,2.52536c0,1.008 0,1.836 0,2.71732c0,0.70801 0,1.68933 0,2.64749c0,0.9765 0.00638,1.83072 0,2.80984c-0.00534,0.82138 -0.02838,1.51892 -0.22134,2.64267c-0.11432,0.6658 -0.29541,1.35397 -0.49466,2.38934c-0.17749,0.92224 -0.27106,1.92615 -0.28265,2.56531c-0.01822,1.00253 0.00372,1.81885 -0.28534,2.80267c-0.23996,0.81668 -0.63635,1.79587 -0.69516,2.60001c-0.07294,0.99756 -0.00027,1.81369 -0.078,2.45715c-0.11731,0.97116 -0.39398,1.77264 -0.59018,2.64734c-0.26648,1.18796 -0.31439,1.79022 -0.34198,2.65952c-0.03394,1.06885 0.02179,1.79056 -0.06784,2.74582c-0.07761,0.82712 -0.2955,1.7955 -0.44284,2.49017c-0.14734,0.69467 -0.40378,1.9548 -0.46399,2.73868c-0.05441,0.70813 -0.01492,1.94617 -0.05685,2.76132c-0.04202,0.81747 -0.25204,1.82162 -0.5,2.52084c-0.26715,0.75336 -0.59952,1.61636 -0.8685,2.6405c-0.18918,0.72034 -0.35468,1.45187 -0.48932,2.517c-0.12286,0.97195 -0.07095,1.58762 -0.28799,2.655c-0.19247,0.94656 -0.56543,1.54337 -0.74802,2.56665c-0.14114,0.79099 -0.08533,1.80035 -0.08533,2.64166c0,0.729 0.00607,1.92783 -0.01068,2.61969c-0.01755,0.72424 -0.02176,1.46454 -0.27332,2.85199c-0.11691,0.6449 -0.41281,1.51523 -0.59451,2.56516c-0.1178,0.68069 -0.09015,1.52078 -0.12598,2.52151c-0.02869,0.80121 -0.30637,1.79245 -0.57019,2.63599c-0.28833,0.92191 -0.36929,1.72147 -0.45065,2.57468c-0.05637,0.59088 -0.24692,1.78967 -0.47467,2.64767c-0.20544,0.77386 -0.37323,1.75146 -0.66666,2.70831c-0.20749,0.67657 -0.73932,1.65579 -0.82266,2.45868c-0.08868,0.85416 -0.01068,1.72198 -0.01068,2.61749c0,0.95718 0.08868,1.86157 0,2.75717c-0.08374,0.8457 -0.88281,1.28931 -1.00015,2.10001c-0.1311,0.90582 -0.79498,1.55368 -0.979,2.39999c-0.19135,0.87997 -0.41104,1.64484 -0.73685,2.38535c-0.39676,0.90179 -0.32327,1.7291 -0.63666,2.71466c-0.25833,0.81244 -0.52017,1.60092 -0.64734,2.39999c-0.15933,1.00119 -0.47565,1.78345 -0.716,2.60001c-0.2883,0.97946 -0.17444,1.74976 -0.29468,2.77466c-0.11304,0.96353 -0.53012,1.65472 -0.70532,2.31201c-0.26199,0.98285 -0.24469,1.81833 -0.36801,2.62933c-0.15295,1.00586 -0.491,1.8595 -1.01581,2.66266c-0.43542,0.66635 -0.78806,1.51126 -0.95285,2.42584c-0.1442,0.80029 -0.52277,1.57343 -0.78067,2.59549c-0.20132,0.79788 -0.2146,1.6933 -0.452,2.68399c-0.13095,0.54645 -0.40195,1.37012 -0.81448,2.3945c-0.27798,0.69028 -0.65955,1.51077 -0.8475,2.517c-0.13858,0.74191 -0.51773,1.77264 -0.854,2.37384c-0.43607,0.7796 -0.71786,1.54074 -0.91333,2.34799c-0.29355,1.21237 -0.23865,1.88867 -0.50668,2.88269c-0.22055,0.81793 -0.62762,1.79739 -0.75333,2.59998c-0.12494,0.79773 -0.32147,1.59418 -0.60001,2.36401c-0.38977,1.0773 -0.58405,2.00583 -0.85065,2.66135c-0.28232,0.69412 -0.51743,1.69299 -0.85867,2.65866c-0.24966,0.70651 -0.50479,1.677 -0.88266,2.51599c-0.3103,0.68896 -0.67813,1.49832 -0.88602,2.34732c-0.22461,0.91733 -0.76508,1.65738 -1,2.40985c-0.28143,0.90152 -0.72855,1.55777 -0.91132,2.60684c-0.14362,0.82437 -0.03601,1.73599 -0.03601,2.63599c0,0.79999 0.07907,1.68857 0.5,2.52084c0.39975,0.79034 0.46594,1.70279 0.66666,2.47916c0.20877,0.80746 0.61749,1.52689 1.23334,2.37466c0.58395,0.80389 1.00662,1.45792 1.39999,2.22665c0.40689,0.7952 0.80219,1.59763 1.20001,2.39868c0.39148,0.78827 0.72375,1.51208 1,2.5c0.22906,0.81924 0.55597,1.7106 1.10001,2.47849c0.45633,0.6441 1.24103,1.29309 1.69998,1.90686c0.547,0.73151 0.82312,1.46863 1.17468,2.47867c0.293,0.84186 0.86975,1.40445 1.01465,2.27197c0.16675,0.99847 0.23584,1.68384 0.72668,2.44669c0.41788,0.64941 0.70715,1.74686 0.22684,2.56015c-0.38962,0.65973 -1.42316,0.89896 -2.14285,1.55585c-0.5845,0.53348 -1.43829,0.75851 -2.21066,1.23734c-0.80164,0.49695 -1.42175,0.97089 -2.19064,1.36398c-0.79376,0.40582 -1.52393,0.89627 -2.51468,1.11469c-1.02939,0.22693 -1.75049,-0.07297 -2.71735,0.25198c-0.8143,0.27368 -1.608,0.71719 -2.36667,1.11734c-0.85837,0.45273 -1.56952,0.73401 -2.45267,1.06866c-0.7056,0.2674 -1.59918,0.505 -2.54733,0.64868c-0.91605,0.13882 -1.45364,0.79941 -2.32083,0.97781c-0.94363,0.19412 -1.82648,0.02084 -2.72198,0.02084c-0.95584,0 -1.7048,0.13516 -2.36783,0.57468c-0.81433,0.53979 -1.78934,0.42532 -2.68933,0.42532c-0.90002,0 -1.80002,0 -2.70001,0l-0.79999,0" id="svg_23" stroke-width="2" stroke="#000" fill="none"/>
 </g>
 <g display="none">
  <title>muse_image</title>
  <image xlink:href="http://farm1.static.flickr.com/72/164393610_b72feb55b6.jpg" id="muse" height="480" width="640" y="0" x="0"/>
 </g>
 <g display="none">
  <title>bbox</title>
  <rect stroke="#f00" fill="none" stroke-width="3" height="353.28" width="261.12" y="89.6" x="144.64" id="bbox"/>
 </g>
</svg>
