<svg width="640" height="480" xmlns="http://www.w3.org/2000/svg" xmlns:svg="http://www.w3.org/2000/svg" xmlns:xlink="http://www.w3.org/1999/xlink">
 <!-- Sketchy ANNOTATION
  ImageNet ID: n02503517_5420
  URL: http://farm1.static.flickr.com/49/170299685_7d3150eac0.jpg
  Image Width: 500
  Image Height: 333
  BBox X: 179
  BBox Y: 0
  BBox Width: 257
  BBox Height: 319
  Exposure: 2000ms
  Synset Label: elephant
  Synset ID: n02503517
  Worker Tag: elephant near a mahout
  Sanity Check: 
   Context
   Saved
   Shading
  Comment: 
   {}
  Worker ID: A1P7U2ULSAE7YL
  Assignment ID: 3TY7ZAOG5FK7PB1SWPDH8IRVJWC0KB
  HIT ID: 34O39PNDK68S9IJ3UNE14RE73C1BRR
  Work Time: 175s
  Worker Score: 0.9286
 END ANNOTATION -->
 <g display="inline">
  <title>Layer 1</title>
  <path t="0,197,197,213,229,300,389,405,453,501,557,581,589,605,621,637,669,677,685,709,733,757,765,781,797,798,805,813,830,846,853,869,885,901,917,925,942,949,965,973,981,997,1005,1013,1021,1037,1061,1077,1093,1093,1109,1109,1125,1133,1149,1165,1173,1189,1197,1205,1221,1237,1253,1253,1261,1261,1269,1285,1295,1301,1357,1357,1373,1373,1373,1389,1397,1413,1421,1437,1453,1461,1477,1495,1501,1511,1517,1533,1549,1557,1581,1597,1621,1621,1629,1647,1662,1669,1693,1709,1725,1725,1749,1749,1757,1765,1789,1805,1821,1845,1861,1877,1893,1893,1909,1933,1942,1981,1989,2013,2029,2053,2053,2061,2069,2101,2109,2125,2133,2157,2165,2189,2206,2214,2214,2221,2237,2246,2253,2262,2279,2294,2301,2325,2341,2357,2360,2405,2429,2445,2445,2461,2469,2485,2501,2517,2527,2533,2557,2573,2573,2589,2605,2605,2621,2629,2637,2637,2646,2653,2662,2669,2679,2693,2701,2717,2717,2726,2733,2743,2749,2765,2773,2781,2797,2798,2805,2813,2821,2829,2837,2845,2862,2870,2870,2879,2879,2885,2894,2902,2909,2917,2933,2933,2949,2957,2965,2965,2973,2981,2989,2990,2998,2998,3005,3013,3014,3021,3021,3021,3030,3030,3030,3037,3037,3045,3053,3069,3069,3078,3079,3085,3085,3095,3101,3109,3110,3117,3117,3125,3126,3133,3143,3143,3149,3150,3159,3165,3173,3181,3181,3189,3197,3205,3213,3214,3221,3229,3229,3237,3253,3261,3262,3269,3278,3278,3285,3295,3295,3301,3309,3309,3317,3317,3325,3333,3342,3343,3349,3350,3350,3359,3365,3365,3374,3374,3374,3387,3387,3389,3397,3405,3405,3413,3414,3421,3421,3429,3429,3437,3445,3445,3453,3454,3461,3461,3469,3470,3470,3477,3478,3485,3486,3495,3501,3502,3517,3517,3533,3533,3542,3542,3549,3559,3565,3573,3581,3582,3589,3589,3598,3598,3605,3606,3614,3621,3630,3630,3637,3638,3653,3661,3661,3669,3685,3685,3701,3710,3710,3727,3733,3749,3749,3765,3775,3776,3782,3813,3813,3829,3829,3837,3838,3845,3853,3862,3880,3885,3917,3933,3942,3966,3976,3982,3997,4005,4014,4021,4029,4037,4038,4046,4053,4061,4093,4101,4117,4117,4141,4157,4157,4165,4175,4189,4197,4213,4221,4237,4245,4261,4285,4301,4312,4327,4341,4358,4365,4379,4391,4405,4421,4437,4461,4470,4479,4495,4496,4501,4533,4541,4542,4549,4565,4581,4581,4581,4591,4598,4613,4614,4621,4629,4653,4669,4693,4693,4709,4717,4728,4733,4749,4758,4765,4774,4791,4798,4805,4829,4837,4845,4853,4869,4878,4885,4885,4901,4917,4928,4933,4949,4958,4975,4982,4982,4991,5013,5022,5030,5037,5046,5077,5085,5086,5095,5107,5117,5133,5133,5141,5150,5165,5174,5197,5207,5214,5214,5229,5237,5246,5262,5277,5301,5325,5645,5693,5757,5765,5781,5805,5813,5823,5830,5909,5917,5933,5965,5965,6021,6037,6077,6117,6132,6133,6189,6213,6221,6373,6381,6397,6429,6429,6453,6493,6517,6549,6741,6765,6789,6789,6805,6813,6814,6861,6877,6893,6909,6981,7021,7021,7029,7053,7117,7141,7157,7189,7205,7221,7229,7277,7301,7333,7341,7359,7375,7381,7397,7421,7429,7453,7469,7470,7485,7501,7509,7605,7621,7629,7638,7654,7662,7670,7671,7686,7693,7709,7733,7749,7765,7789,7813,7813,7829,7853,7901,7909,7910,7933,7957,7973,7990,8008,8029,8045,8054,8061,8093,8141,8141,8157,8173,8173,8181,8190,8193,8207,8222,8229,8230,8237,8245,8261,8277,8277,8293,8294,8301,8310,8318,8326,8333,8357,8365,8381,8397,8408,8421,8421,8429,8445,8461,8470,8477,8509,8517,8533,8541,8542,8549,8573,8581,8582,8597,8607,8608,8624,8637,8637,8638,8645,8645,8661,8670,8670,8677,8686,8687,8703,8703,8710,8710,8717,8718,8725,8733,8741,8749,8765,8781,8797,8805,8813,8829,8839,8845,8853,8870,8886,8903,8903,8910,8933,8957,8973,8990,8997,8998,9013,9024,9029,9045,9062,9070,9078,9110,9142,9150,9166,9166,9182,9198,9222,9222,9238,9246,9262,9286,9286,9321,9350,9438,9447,9486,9582,9606,9646,9694,9750,9782,9846,9857,9894,9902,9958,9967,10006,10046,10086,10134,10165,10174,10206,10238,10251,10318,10414,10422,10510,10550,10550,10558,10574,10606,10614,10638,10654,10662,10693,10710,10750,10758,10774,10798,10814,10814,10830,10886,10910,10918,10942,10943,10951,10959,10974,11005,11030,11061,11070,11102,11102,11110,11133,11142,11166,11174,11269,11278,11281,11290" d="m313.01135,103.09091c-1,0 -1.79999,0 -2.69998,0c-0.89999,0 -1.86401,0 -2.73599,0c-0.86401,0 -1.77673,-0.15067 -2.66385,0.00017c-0.85107,0.14471 -0.67157,1.22017 -1.18417,1.91583c-0.50903,0.69085 -1.44159,0.95792 -1.70532,1.69466c-0.29977,0.83736 -0.01068,1.78934 -0.01068,2.68933c0,0.89867 -0.49527,1.38806 -0.94281,2.05717c-0.46967,0.70217 0.12418,1.79631 -0.22385,2.64284c-0.27588,0.67107 -0.90778,1.41026 -1.40799,2.02533c-0.50412,0.61987 -0.42535,1.57467 -0.42535,2.47467c0,0.9 0.01096,1.79557 0,2.66933c-0.01041,0.83086 -0.61359,1.52581 -0.96399,2.26666c-0.36975,0.78172 0.1138,1.77658 -0.03616,2.66383c-0.14401,0.85204 -0.9812,1.33562 -0.99985,2.20017c-0.01938,0.89845 -0.61053,1.43448 -0.96399,2.12534c-0.42474,0.83017 -0.03601,1.776 -0.03601,2.74133c0,0.83333 0,1.81183 0,2.52882c0,0.90451 0.00223,1.8045 0,2.7045c-0.00226,0.90002 -0.50009,1.65852 -0.87848,2.47867c-0.34967,0.75795 0.04581,1.74098 -0.14233,2.62134c-0.18137,0.84866 -0.97943,1.49976 -1.47919,2c-0.69897,0.69966 -1.3511,1.26833 -1.49548,2.2c-0.13782,0.8894 0.07309,1.80339 -0.00452,2.68933c-0.08365,0.95494 -0.58289,1.62743 -0.83331,2.61067c-0.19748,0.77533 -0.16037,1.51468 -0.16669,2.47917c-0.00595,0.9102 -0.77478,1.45743 -0.99548,2.22533c-0.24738,0.86067 0.10364,1.86258 -0.35718,2.591c-0.48853,0.77223 -0.62863,1.50603 -0.64734,2.4045c-0.01801,0.86456 -0.85422,1.34396 -0.99866,2.10133c-0.16833,0.88275 0.16302,1.81769 -0.02216,2.69867c-0.17902,0.85165 -0.87622,1.65778 -0.95834,2.47917c-0.09549,0.95496 0.1619,1.75171 -0.05682,2.62083c-0.21713,0.86279 -0.9213,1.59697 -0.96402,2.5c-0.04254,0.89899 0,1.65717 0,2.55266c0,0.86334 -0.14273,1.78192 -0.64731,2.34283c-0.47424,0.52718 -0.35269,1.5045 -0.35269,2.4045c0,0.90001 0,1.8 0,2.70001c0,0.89999 0,1.7 0,2.59999c0,0.90001 0,1.77917 0,2.65717c0,0.94284 0,1.84283 0,2.74284c0,0.89999 -0.19592,1.73444 0.05719,2.59999c0.25665,0.87762 0.90009,1.49698 0.94281,2.40001c0.04251,0.89899 0.04785,1.68956 0.80136,1.98532c0.74997,0.29436 1.18063,1.31413 1.19864,2.21918c0.01715,0.862 -0.19812,1.7766 0.28403,2.52617c0.49249,0.76567 0.64294,1.5195 1.14133,2.144c0.4852,0.60796 0.30078,1.46968 0.57916,2.32083c0.26245,0.80251 1.01477,1.1226 1.49548,1.7045c0.49838,0.60332 0.34015,1.58076 0.51068,2.436c0.18204,0.91292 1.06097,1.50404 1.46851,2.064c0.60156,0.82655 0.52081,1.8 0.52081,2.7c0,0.90001 -0.4816,1.95326 0,2.63333c0.43869,0.61946 0.99774,0.92833 1,1.81934c0.00217,0.86334 0,1.84734 0,2.83133c0,0.69067 0,1.75883 0,2.61601c0,0.89999 -0.42865,1.85327 0.08536,2.61465c0.45078,0.66774 1.65588,0.82895 1.87866,1.68533c0.22678,0.87172 0.03598,1.8 0.03598,2.70001c0,0.89999 0,1.7 0,2.59999c0,0.90001 0,1.8 0,2.68933c0,0.96783 0,1.81067 0,2.71068c0,0.89999 0,1.7 0,2.59999c0,0.90001 0,1.8 0,2.7c0,0.90001 0,1.79868 0,2.76668c0,0.83333 0,1.5905 0,2.48599c0,0.86334 0,1.82651 0,2.74733c0,0.89999 0,1.80002 0,2.70001c0,0.89999 0,1.69998 0,2.60001c0,0.93597 0,1.784 0,2.64731c0,1.01669 0,1.854 0,2.81934c0,0.66934 0,1.83334 0,2.612c0,0.888 0,1.79333 0,2.47867c0,1.164 0,1.96802 0,2.79001c0,1.03116 0,1.71667 0,2.55133c0,0.99683 0,1.91602 0,2.76535c0,0.94049 0,1.80264 0,2.63599c0,0.97867 0,1.75266 0,2.65268c0,0.86331 -0.10037,1.83307 0.01068,2.758c0.11142,0.92807 0.46039,1.62 0.98932,2.42267c0.45853,0.69583 1.06424,1.51093 1.5,2.14581c0.55594,0.80997 1.36237,1.24777 1.58401,1.9075c0.31808,0.94678 0.75122,1.60446 0.89517,2.5925c0.13278,0.91144 -0.11572,1.87747 0.30484,2.72086c0.32993,0.66162 0.97742,1.33725 1.43198,1.96933c0.52036,0.72357 0.10248,1.84912 0.36935,2.62933c0.26718,0.7811 1.24551,1.30927 1.62933,2.00131c0.45728,0.82449 0.26361,1.8551 0.56934,2.68268c0.30685,0.8306 0.78421,1.6152 1.14133,2.37866c0.30402,0.64993 0.56424,1.63852 0.57465,2.62268c0.00912,0.86325 -0.13235,1.80563 0.22134,2.61615c0.31317,0.71768 0.74881,1.55118 0.77734,2.41583c0.03177,0.96265 -0.07928,1.81046 0.22266,2.80551c0.2186,0.72037 0.65811,1.67224 0.74268,2.46783c0.07675,0.72211 -0.00961,1.71185 0.03867,2.69598c0.03571,0.72778 0.40732,1.73883 0.84799,2.29333c0.54288,0.68307 1.14932,1.55469 1.14932,2.22134c0,1.04166 -0.02209,1.86157 0,2.83334c0.01801,0.7926 0.3143,1.64056 0.57468,2.37732c0.34485,0.97574 0.25702,1.86395 0.75867,2.62268c0.50397,0.76227 1.50604,1.08179 1.67566,1.8765c0.17188,0.80539 0.77322,1.45969 1.28568,2.04282c0.71735,0.81628 0.66757,1.50446 0.92685,2.66852c0.17871,0.80231 0.40579,1.60858 0.87866,2.43582c0.3642,0.63712 1.24414,1.20718 1.879,1.64301c0.80988,0.556 0.9299,1.51242 1.078,2.25717c0.18478,0.92908 0.65128,1.63281 0.85883,2.64148c0.15582,0.75726 0.46127,1.66534 0.79999,2.40002c0.39511,0.85699 0.31024,1.86737 1.13467,2.17599c0.7851,0.29388 1.27585,1.05725 1.76001,1.62534c0.63931,0.75018 1.21063,1.27188 1.68933,2.05267c0.41895,0.68338 0.98987,1.59946 1.5,2.146c0.66614,0.71371 1.08557,1.52396 1.36667,2.36798c0.22174,0.6658 0.95172,1.34305 1.548,1.91602c0.68042,0.65384 1.32181,1.03955 1.98532,1.62183c0.633,0.55548 1.06729,1.43835 1.384,2.09549c0.42465,0.88107 1.21548,1.34192 1.91599,1.67917c0.95215,0.4584 1.72946,0.737 2.16669,1.52084c0.36359,0.65189 1.14081,1.2926 1.83331,2c0.48447,0.49487 0.73468,1.54843 1.33334,2.16666c0.53799,0.55557 1.46164,0.89182 2.16666,1.3125c0.78418,0.46793 1.93304,0.21747 2.42801,0.95685c0.48001,0.71704 0.49808,1.64157 1.09735,2.13867c0.61496,0.5101 1.65323,0.08224 2.45383,0.44617c0.77322,0.35147 1.07962,1.14844 1.60617,1.69516c0.534,0.55444 1.64114,0.10028 2.51465,0.32001c0.86282,0.21704 1.59698,0.92126 2.5,0.96399c0.89899,0.04251 1.68811,0.10608 2.39999,0.5c0.88599,0.49026 1.7955,0.5 2.66669,0.5c0.93332,0 1.83331,0 2.63333,0c0.836,0 1.68399,0 2.54733,0c1.01666,0 1.95267,0 2.85266,0c0.89984,0 1.74734,0 2.60135,0c0.89865,0 1.79865,0 2.69864,0c0.90002,0 1.80002,0 2.70001,0c0.89999,0 1.79999,0 2.63333,0c0.87119,0 1.76666,0 2.66666,0c0.90002,0 1.81592,0.16699 2.69867,-0.00134c0.75739,-0.14441 1.24945,-0.85342 2.10135,-1.00314c0.92816,-0.16315 1.63705,-0.47757 2.34283,-1.04819c0.73108,-0.59109 1.32382,-1.16791 1.95715,-1.522c0.86124,-0.48151 1.86044,-0.34619 2.56668,-0.75867c0.72324,-0.42239 1.26126,-1.29651 2.19733,-1.59467c0.79962,-0.2547 1.6944,-0.35901 2.336,-0.71933c0.89481,-0.50253 1.15222,-1.18335 1.73599,-1.77798c0.63611,-0.64795 1.82053,-0.66586 2.27869,-1.37601c0.45786,-0.70972 0.42941,-1.56711 0.93265,-2.25134c0.48999,-0.6662 -0.0105,-1.74423 0.38867,-2.51132c0.39514,-0.7594 0.76773,-1.27182 1.02118,-2.13602c0.25732,-0.87741 0.91422,-1.59418 0.94281,-2.52148c0.02707,-0.87808 -0.32178,-1.91641 0.16669,-2.61185c0.50232,-0.71515 0.83331,-1.26666 0.83331,-2.16666c0,-0.79999 0,-1.70001 0,-2.60001c0,-0.89999 0,-1.87915 0,-2.75717c0,-0.84283 0,-1.74283 0,-2.64282c0,-0.79999 0,-1.70001 0,-2.60001c0,-0.89999 0,-1.79999 0,-2.69998c0,-0.89868 0,-1.86667 0,-2.70001c0,-0.79999 -0.04187,-1.70889 -0.5,-2.47916c-0.48529,-0.81592 -0.82611,-1.5575 -1.21597,-2.32083c-0.38455,-0.7529 -0.28403,-1.70001 -0.28403,-2.60001c0,-0.89551 0,-1.8215 0,-2.70001c0,-0.89999 0,-1.69998 0,-2.60001c0,-0.89999 0,-1.79999 0,-2.69998c0,-0.89999 0.01819,-1.8002 0,-2.69983c-0.01801,-0.89008 -0.80197,-0.93634 -1.83331,-0.90018c-0.81549,0.02859 -1.25937,0.79623 -1.66669,1.5c-0.45715,0.78989 -0.94754,1.54916 -1.48932,2.07468c-0.48862,0.47397 -1.37909,0.46423 -2.03149,0.92532c-0.66885,0.47272 -1.49652,0.49933 -2.45834,0.5c-0.92084,0.00064 -1.82083,0 -2.72083,0c-0.89984,0 -1.82535,0 -2.716,0c-0.78851,0 -1.70361,0.00195 -2.48401,-0.42532c-0.82257,-0.45038 -1.69998,-0.57468 -2.60001,-0.57468c-0.79999,0 -1.69998,0 -2.59998,0c-0.90002,0 -2.048,-0.2565 -2.40002,0.35718c-0.41937,0.73111 0,1.74298 0,2.52817c0,0.93997 0,1.948 0,2.75299c0,0.88251 0.06537,1.79907 0.57468,2.38699c0.56192,0.64862 1.34158,1.12897 1.42532,1.97467c0.07883,0.79608 0,1.70001 0,2.60001c0,0.89999 0,1.79999 0,2.6955c0,0.92599 0.11075,1.81134 0,2.7045c-0.11151,0.89923 -0.8092,1.379 -1.42532,1.96399c-0.50583,0.48026 -1.05026,0.93069 -1.87466,1.38867c-0.74231,0.41235 -1.24527,1.09708 -1.98532,1.56201c-0.77686,0.48804 -1.39413,0.65512 -2.16135,1.04932c-0.77863,0.40009 -1.728,0.03601 -2.66666,0.03601c-0.88669,0 -1.68802,0 -2.58667,0c-0.89999,0 -1.80002,0 -2.70001,0c-0.89999,0 -1.85727,0.16367 -2.69998,-0.22134c-0.66931,-0.30579 -1.5831,-0.67081 -2.28934,-1.20398c-0.71616,-0.54065 -0.97345,-1.3898 -1.55801,-1.92734c-0.58224,-0.53543 -1.52121,-0.89273 -1.88599,-1.64734c-0.35553,-0.73547 0.24451,-1.82257 -0.22385,-2.64282c-0.46432,-0.81317 -0.94284,-1.35718 -0.94284,-2.15717c0,-0.90002 0.34305,-1.87857 -0.02081,-2.67917c-0.35144,-0.77325 -0.96024,-1.22552 -0.97919,-2.12085c-0.02042,-0.96445 -0.63107,-1.46237 -1.08398,-2.20132c-0.47391,-0.77319 -0.91602,-1.53201 -0.91602,-2.384c0,-0.92932 0.02536,-1.81506 0,-2.61465c-0.02859,-0.9014 -0.6853,-1.62225 -0.94281,-2.49551c-0.24692,-0.83737 -0.0094,-1.80579 -0.05719,-2.7045c-0.04272,-0.80338 -0.68622,-1.42236 -0.94281,-2.29999c-0.25345,-0.86685 -0.05719,-1.86667 -0.05719,-2.70001c0,-0.97852 0.01688,-1.69565 0,-2.60001c-0.01801,-0.96448 -0.81808,-1.39429 -0.99866,-2.20132c-0.19943,-0.8913 -0.00134,-1.80933 -0.00134,-2.69867c0,-0.89999 0.10696,-1.80652 -0.00131,-2.70001c-0.11148,-0.91977 -0.80853,-1.45407 -0.98801,-2.39999c-0.16779,-0.88428 0.23526,-1.83569 -0.01517,-2.6955c-0.22092,-0.75839 -0.99551,-1.06168 -0.99551,-1.90451c0,-0.89999 0.0372,-1.80084 0,-2.59998c-0.04272,-0.91766 -0.78482,-1.46298 -1.16666,-2.20001c-0.39063,-0.75397 -0.82291,-1.52066 -0.83334,-2.48267c-0.00876,-0.80743 0.08435,-1.82452 -0.16666,-2.68399c-0.20224,-0.69257 -0.64142,-1.43137 -1.03198,-2.23203c-0.3718,-0.76221 -0.75,-1.71512 -0.80136,-2.76797c-0.03159,-0.64734 -0.48236,-1.52139 -0.87866,-2.27618c-0.35184,-0.67007 -0.40594,-1.67361 -0.82584,-2.30981c-0.59448,-0.9007 -0.96893,-1.61258 -1.49414,-2.362c-0.49176,-0.70166 -0.79602,-1.48529 -0.80136,-2.38535c-0.00534,-0.89996 0,-1.7955 0,-2.7215c0,-0.87833 0.03732,-1.77936 0,-2.57983c-0.04272,-0.91632 -0.93909,-1.41391 -1,-2.29868c-0.0618,-0.89786 -0.41766,-1.45441 -0.87848,-2.12149c-0.50406,-0.72971 0.05203,-1.81674 -0.20685,-2.57849c-0.30176,-0.88791 -0.89667,-1.58881 -0.91467,-2.48535c-0.01837,-0.91449 0,-1.81467 0,-2.71466c0,-0.79999 0,-1.70001 0,-2.60001c0,-0.89999 0.00067,-1.79999 0,-2.69998c-0.00067,-0.89868 -0.62216,-1.35797 -1,-1.98535c-0.47189,-0.78354 0,-1.81467 0,-2.71466c0,-0.79999 0,-1.70001 0,-2.52083c0,-0.96184 0,-1.76933 0,-2.76451c0,-0.91333 0,-1.76733 0,-2.71466c0,-0.8 0,-1.7 0,-2.60001c0,-0.89999 0,-1.79999 0,-2.7c0,-0.89999 0,-1.8 0,-2.7c0,-0.83333 0,-1.7045 0,-2.60001c0,-0.89999 0.00009,-1.79796 0.5,-2.39999c0.51462,-0.61975 0.95642,-1.38173 1.41602,-2.19867c0.39529,-0.70265 1.06598,-1.23677 1.08398,-2.10133c0.01871,-0.89847 0.43033,-1.3479 0.91467,-1.98534c0.55496,-0.73039 -0.49344,-1.97035 0.08533,-2.69383c0.5336,-0.66699 0.67795,-1.15892 1.16669,-1.85416c0.50327,-0.71591 0.93378,-1.40916 1.63467,-1.88133c0.71072,-0.47878 1.61746,-0.7018 2.11465,-1.48401c0.46494,-0.73145 0.89053,-1.47255 1.60483,-1.7805c0.88025,-0.3795 1.96838,0.11005 2.47916,-0.54166c0.52621,-0.6714 1.24341,-1.13445 1.87869,-1.7005c0.60098,-0.53549 1.16812,-1.08553 1.92133,-1.49467c0.79752,-0.43321 1.48181,-0.95647 2.07867,-1.50533c0.64005,-0.58855 1.27365,-1.13809 1.92133,-1.49467c0.86368,-0.47551 0.80698,-1.21582 1.28534,-1.99866c0.49084,-0.80322 1.35037,-0.96971 1.91483,-1.50667c0.58182,-0.55348 1.1488,-1.10057 1.80118,-1.49467c0.77576,-0.46866 1.64471,-0.83163 2.11331,-1.56934c0.43912,-0.6913 0.36935,-1.63066 1.04935,-2.15067l0.03598,-0.864l0,-0.89867l0,-0.88666" id="svg_1" stroke-width="2" stroke="#000" fill="none"/>
  <path t="11887,12038,12070,12086,12094,12134,12158,12167,12183,12200,12238,12238,12254,12270,12294,12294,12311,12358,12390,12422,12574,12582,12622,12630,12678,12694,12702,12734,12750,12758,12782,12791,12799,12854,12870,12878,12910,12926,12990,12990,12998,13054,13070,13110,13150,13166,13174,13190,13206,13238,13246,13270,13310,13341,13430,13486,13502,13590,13694,13710,13718,13726,13902,13918,13918,13942,13982,13982,14118,14126,14158,14182,14198,14366,14370,14371,14398,14414,14414,14430,14438,14470,14470,14862,14878,14894,14903,14910,14974,15390,15398,15401,15403,15422,15438,15662,15670,15670,15679,15686,15696,15696,15696,15702,15710,15710,15718,15719,15726,15726,15734,15750,15766,15766,15774,15783" d="m369.01135,207.09091c0,2.55333 -0.43015,3.30797 -0.87866,4.09984c-0.41934,0.74036 -1.09265,1.25587 -1.12134,2.10016c-0.03055,0.89932 -0.44745,1.55084 -0.97464,2.23601c-0.50293,0.65364 -0.74988,1.45322 -1.52536,2.04317c-0.7377,0.56122 -1.75974,0.60991 -2.21466,1.32216c-0.47751,0.74765 -0.73114,1.36229 -1.33798,1.84601c-0.6467,0.5155 -1.64883,0.40714 -2.44736,0.85266c-0.79697,0.44466 -1.3746,1.0407 -2.02081,1.5c-0.69711,0.49548 -1.70895,0.67094 -2.35785,1.22133c-0.66122,0.56084 -1.16901,1.13895 -1.69598,1.804c-0.49622,0.62622 -0.42535,1.53867 -0.42535,2.4955c0,0.87917 0,1.77467 0,2.70067c0,0.87851 0,1.7785 0,2.57851c0,0.91466 0.61069,1.2 1.5,1.2c0.90002,0 1.80002,0.00009 2.70001,0c0.89984,-0.00009 1.62173,-0.30054 1.80017,-1.09984c0.18826,-0.84335 0.98431,-1.31668 1.49982,-1.90016c0.56357,-0.63788 1.47382,-0.5965 2.14734,-1.05717c0.67923,-0.4646 0.30533,-1.79668 0.96335,-1.94283c0.86816,-0.19281 1.75925,-0.03333 2.41467,-0.57466c0.60483,-0.49954 1.12897,-1.3416 1.97464,-1.42534c0.79611,-0.07884 1.63602,0 2.65268,0c0.69467,0 1.71075,0.00053 2.33667,-0.57466c0.45413,-0.41734 1.41068,-0.42468 2.31067,-0.42534c0.89999,-0.00067 1.64935,-0.24312 2.34283,-0.64734c0.75836,-0.44203 1.6785,-0.35266 2.53183,-0.35266c0.93866,0 1.87799,0 2.82532,0c0.80002,0 1.70001,0 2.60001,0c0.89999,0 1.80002,0 2.70001,0c0.89999,0 1.79999,0 2.69998,0c0.80002,0 1.72266,-0.01323 2.436,0.42534c0.77289,0.47517 1.66528,0.52687 2.564,0.57466c0.80341,0.04272 1.42221,0.68947 2.30902,0.94283c0.98645,0.28183 1.70718,-0.06258 2.62848,0.11433c0.92749,0.1781 1.25436,1.27875 1.94919,1.6575c0.70557,0.38461 1.71466,0.28467 2.70883,0.28534c0.74731,0.0005 1.76849,0 2.60583,0c0.96533,0 1.77783,0.02083 2.62933,0.284l0.522,0.65883" id="svg_2" stroke-width="2" stroke="#000" fill="none"/>
  <path t="18263,18366,18518,18533,18534,18558,18566,18597,18606,18614,18622,18646,18678,18782,18806,18814,18838,18838,18862,18878,18918,18918,19030,19038,19045,19069,19101,19101,19117,19157,19165,19175,19213,19229,19245,19273,19273,19280,19301,19313,19317,19341,19357,19357,19373,19381,19391,19405,19414,19445,19445,19453,19469,19517,19541,19541,19557,19573,19581,19605,19613,19621,19621,19637,19669,19685,19717,19765,19773,19781,19790,19813,19813,19821,19821,19829,19845,19869,20117,20125,20125,20141,20149,20149,20165,20165,20181,20181,20207,20237,20973,20981,20989,20997,21005,21013,21029,21205,21205,21213,21225,21225,21229,21236,21245,21253,21261,21261,21269,21269,21277,21285,21285,21301,21317,21405,21405,21421,21421,21429,21430,21439,21446,21446,21455,21462,21462,21469,21477,21485,21597,21609,21613,21622,21638,21638,21646,21646,21655,21662,21669,21669,21685,21701,21709,21717,21741,21765,21781,21797,21807,21813,21813,21845,21853,21861,21861,21885,21893,21909,21917,21933,21957,21957,21965,21981,21997,21997,22009,22021,22029,22045,22061,22071,22077,22085,22101,22117,22117,22133,22149,22149,22157,22165,22181,22197,22205,22213,22221,22229,22229,22237,22254,22265,22265,22277,22293,22309,22309,22325,22333,22333,22341,22349,22357,22365,22365,22373,22389,22397,22413,22421,22429,22437,22453,22461,22461,22470,22471,22485,22485,22501,22509,22517,22525,22541,22541,22549,22549,22565,22574,22590,22590,22597,22605,22613,22613,22629,22629,22637,22645,22653,22661,22670,22677,22687,22687,22693,22694,22701,22701,22709,22717,22717,22726,22733,22741,22749,22749,22757,22765,22774,22774,22781,22781,22790,22797,22797,22807,22813,22813,22823,22823,22829,22840,22840,22854,22870,22870,22877,22893,22901,22909,22917,22925,22941,22965,23295,23296,23429,23439,23453,23469,23477,23493,23517,23525,23525,23533,23541,23542,23549,23557,23565,23581,23581,23597,23606,23606,23622,23629,23639,23639,23645,23645,23655,23661,23661,23669,23669,23677,23693,23709,23709,23725,23733,23734,23741,23749,23749,23757,23765,23765,23773,23781,23781,23797,23821,23829,23853,23861,23877,23886,23894,23894,23903,23910,23910,23919,23926,23926,23934,23950,23958,23974,23974,23982,23990,23997,24006,24023,24029,24046,24054,24054,24062,24072,24078,24086,24093,24094,24103,24110,24119,24134,24150,24150,24166,24190,24190,24222,24230,24254,24309,24318,24327,24327" d="m316.01135,103.09091c1.22153,-0.8785 2.10001,-1 3,-1c0.80002,0 1.70007,-0.01146 2.64285,0c0.85733,0.01042 1.34525,0.81424 2.06168,0.9955c0.86813,0.21964 1.79547,0.0045 2.6955,0.0045c0.89999,0 1.79999,0 2.69998,0c0.89999,0 1.70044,0.02724 2.60001,0c0.94415,-0.02859 1.45319,-0.91073 2.18668,-0.99866c0.92145,-0.11047 1.63885,-0.48893 2.39865,-0.916c0.71405,-0.40137 1.7529,0.08823 2.51468,-0.17067c0.88791,-0.30177 1.57458,-0.90699 2.19998,-1.41467c0.63293,-0.51378 1.12003,-0.98334 1.64734,-1.55267c0.63715,-0.6879 1.35352,-0.91013 2.15268,-0.94733c0.91766,-0.04272 1.51495,-0.74957 2.116,-1.284c0.64606,-0.57448 1.19119,-1.16896 2.08398,-1.54933c0.75156,-0.3202 1.81436,0.2284 2.56403,-0.20267c0.69965,-0.4023 0.88745,-1.20603 1.51999,-1.68c0.76746,-0.57507 1.70508,-0.38835 2.41599,-0.784c0.87653,-0.48781 1.83633,-0.36231 2.60001,-0.72134c0.7757,-0.36469 1.49994,-0.77333 2.39999,-0.77866c0.88931,-0.00527 1.86331,0.10012 2.70001,-0.00134c0.91977,-0.11153 1.45407,-0.80853 2.39999,-0.988c0.88428,-0.16778 1.83484,0.2322 2.6955,-0.01517c0.76788,-0.22071 1.22516,-0.98508 2.10452,-0.9955c0.98926,-0.01172 1.93332,0 2.62082,0c0.95767,0 1.77783,0 2.67917,0c0.89999,0 1.81555,-0.15639 2.70001,0.01067c0.95016,0.17947 1.46362,0.8111 2.42532,0.95333c0.99777,0.14757 1.79999,0.036 2.66,0.036c0.91916,0 1.91333,0 2.67865,0c0.94934,0 1.87201,0 2.72269,0c0.92798,0 1.78,0 2.63416,0c0.87918,0 1.77917,0 2.67917,0c0.90018,0 1.68533,0 2.62534,0c1.008,0 1.76401,0 2.67465,0c0.97919,0 1.85718,0 2.70135,0c0.96533,0 1.79865,0 2.77716,0c0.71701,0 1.6575,0 2.50549,0c0.86334,0 1.88,0 2.71466,0c0.96802,0 1.68802,0 2.63736,0c0.76532,0 1.75949,0 2.67865,0c0.86002,0 1.80667,0 2.66,0c0.94,0 1.82532,0 2.62534,0c0.89999,0 1.79999,0 2.69998,0c0.90002,0 1.80002,-0.00017 2.70001,0c0.89999,0.00017 1.78055,0.34937 2.21066,0.85066c0.72433,0.84424 1.53775,0.81017 2.3465,1.37067c0.71725,0.49709 1.27951,1.10478 2.04285,1.49467c0.75287,0.38454 1.73477,0.23101 2.5,0.63667c0.84579,0.44837 1.37033,1.19399 2.05716,1.59016c0.81454,0.46984 1.40625,0.51424 1.92816,1.25584c0.55011,0.78162 1.4776,0.87167 1.71466,1.80133c0.20999,0.82349 1.11011,1.05458 1.56403,1.61066c0.6145,0.75283 1.09869,1.01499 1.93597,1.41017c0.75552,0.35658 1.35638,1.03096 1.5,1.97916c0.11981,0.79098 0.31451,1.38715 0.83334,2.16666c0.47086,0.70747 0.14865,1.63351 0.16666,2.53333c0.01801,0.90054 0.52661,1.6462 0.91467,2.49867c0.34802,0.76453 0.87305,1.10777 1.08667,2c0.17953,0.74983 0.98065,1.24744 0.99866,2.12267c0.01755,0.85315 0,1.79333 0,2.67867c0,0.8 0,1.7 0,2.6c0,0.87917 0,1.836 0,2.7c0,0.9 0,1.8 0,2.7c0,0.8 0,1.7 0,2.636c0,0.84666 0,1.65416 0,2.71666c0,0.86884 0,1.7475 0,2.53267c0,0.94 0.14954,1.97023 -0.03598,2.70399c-0.22046,0.87189 -0.9213,1.60765 -0.96402,2.51068c-0.04254,0.89899 0.47726,1.88846 -0.08533,2.61465c-0.51627,0.66638 -0.91467,0.98984 -0.91467,1.88535c0,0.89999 0.00064,1.79999 0,2.7c-0.00067,0.90134 -0.10614,1.89528 -0.43597,2.51466c-0.48029,0.90187 -1.41971,1.23555 -1.56403,2.18533c-0.12018,0.79092 0.1571,1.71976 -0.02081,2.5c-0.21939,0.96202 -0.74332,1.64507 -1.14584,2.5c-0.32187,0.68364 -0.55472,1.54118 -0.88599,2.29016c-0.38971,0.8811 -0.96622,1.48361 -1.30002,2.3625c-0.26791,0.70541 -0.61874,1.58888 -0.64734,2.54733c-0.02686,0.89977 0,1.68533 0,2.62534c0,0.69067 0,1.76399 0,2.67467c0,0.89999 0,1.8 0,2.7c0,0.90001 0,1.8 0,2.55717c0,0.89999 0,1.64732 0,2.64149c0,0.94417 0,1.84866 0,2.76801c0,0.8125 0,1.8125 0,2.63466c0,0.83467 0,1.85133 0,2.54601c0,1.01666 0,1.95717 0,2.81934c0,0.85416 0,1.83333 0,2.612c0,0.97867 -0.09482,1.80354 0.05719,2.57317c0.18271,0.92513 0.83829,1.80632 0.922,2.64816c0.08249,0.8295 -0.09442,1.70705 0.05682,2.636c0.142,0.87204 0.66373,1.50244 0.87866,2.47867c0.21271,0.96603 0.00665,1.7749 0.09601,2.7c0.08328,0.86215 0.92844,1.40056 0.98932,2.28534c0.0618,0.89787 0.44617,1.44757 0.91467,2.18533c0.43912,0.69148 0.72449,1.96437 0.08533,2.65749c-0.47916,0.51961 -1.59998,0.05717 -2.5,0.05717c-0.89999,0 -1.85226,0.06563 -2.47916,-0.5c-0.5087,-0.459 -1.16614,-0.88913 -1.90616,-1.216c-0.89182,-0.39392 -1.95218,-0.44267 -2.59384,-0.784c-0.82181,-0.43715 -1.332,-1.17155 -2.0625,-1.47917c-0.86871,-0.36581 -1.72913,0.17697 -2.57166,-0.30617c-0.88004,-0.50465 -1.09247,-1.27609 -1.76535,-1.93599c-0.62256,-0.61057 -1.31073,-0.89601 -2.12134,-1.2995c-0.86053,-0.42834 -1.42361,-1.06725 -2.20132,-1.39517c-0.91901,-0.3875 -1.59863,-0.57872 -2.63199,-0.91733c-0.74124,-0.24289 -1.67114,-0.50174 -2.16534,-1.25067c-0.452,-0.68498 -1.32797,-0.70615 -1.94,-1.35201c-0.57706,-0.60896 -0.862,-1.36465 -1.56134,-2.064c-0.69931,-0.69933 -1.29135,-1.23897 -2.13599,-1.52533c-0.83881,-0.28439 -1.66049,-0.44551 -2.25418,-1.27467c-0.5715,-0.79819 -1.14688,-1.06885 -1.82449,-1.784c-0.60498,-0.63849 -0.34079,-1.62144 -0.78534,-2.416c-0.44562,-0.79646 -1.02637,-1.30972 -1.69864,-1.78534c-0.78027,-0.55202 -0.8136,-1.56491 -1.32217,-2.21466c-0.60114,-0.76804 -1.27921,-1.29996 -1.87918,-1.89999c-0.69989,-0.69997 -1.24472,-1.29916 -1.60001,-2.10001c-0.35455,-0.79916 -0.72336,-1.66548 -1.16666,-2.5c-0.33673,-0.63391 -1.54684,-0.86427 -1.82266,-1.61067c-0.30829,-0.83424 -0.01068,-1.78932 -0.01068,-2.68933c0,-0.89999 0.18137,-1.85347 -0.16666,-2.7c-0.27588,-0.67108 -0.53427,-1.55508 -0.84399,-2.38933c-0.27237,-0.73363 -0.95761,-1.2579 -0.99066,-2.09467c-0.03412,-0.86447 -0.42337,-1.71765 -0.832,-2.51601c-0.40894,-0.79895 -1.12396,-1.282 -1.16669,-2.10017c-0.04095,-0.78409 0,-1.72516 0,-2.73315c0,-0.86217 0,-1.66667 0,-2.56667c0,-0.90001 0,-1.8 -0.00015,-2.70001l-0.1665,-0.89999l-0.48065,-0.64284" id="svg_3" stroke-width="2" stroke="#000" fill="none"/>
  <path t="39022,39245,39254,39286,39293,39302,39310,39334,39342,39342,39350,39358,39366,39389,39389,39405,39405,39413,39421,39437,39445,39445,39455,39473,39487,39493,39501,39509,39518,39525,39525,39535,39544,39551,39565,39589,39597,39609,39613,39613,39630,39637,39661,39676,39678,39687,39695,39710,39727,39727,39743,39743,39751,39765,39779,39779,39790,39805,39813,39829,39845,39846,39862,39877,39879,39894,39911,39911,39919,39919,39937,40373,40390,40397,40413,40430,40509,40533,40557,40573,40573,40621,40637,40645,40661,40685,40693,40693,40709,40721,40725,40733,40749,40773,40789,40797,40797,40805,40813,40821,40829,40837,40853,40869,40869,40877,40885,40893,40907,40908,40918,40925,40925,40941,40950,40950,40957,40966,40973,40989,40997,41006,41013,41021,41021,41029,41045,41045,41053,41061,41061,41077,41085,41085,41093,41109,41110,41118,41118,41135,41142,41149,41166,41166,41173,41183,41199,41205,41205,41221,41221,41241,41242,41242,41245,41245,41253,41253,41261,41277,41287,41287,41293,41304,41310,41318,41326,41326,41335,41342,41353,41358,41365,41366,41373,41373,41382,41389,41389,41398,41399,41413,41421,41438,41438,41445,41445,41454,41454,41461,41470,41470,41477,41477,41487,41493,41503,41503,41509,41517,41517,41526,41534,41542,41553,41553,41558,41558,41565,41566,41573,41573,41582,41582,41589,41599,41599,41605,41605,41613,41621,41638,41653,41670,41678,41678,41686,41694,41726,41742,41765,41790,41799,41806,41838,41838,41846,41877,41901,41911,41936,41966,42022" d="m302.01135,106.09091c-1.69998,-0.9955 -2.60001,-0.99467 -3.5,-1c-0.90005,-0.00533 -1.90338,-0.28051 -2.33331,-1c-0.46039,-0.77046 -1.16669,-1 -1.96667,-1c-0.89999,0 -1.68735,-0.19379 -2.284,-0.716c-0.76819,-0.67237 -1.51199,-0.98386 -2.39999,-1.19866c-0.8428,-0.20387 -1.75885,-0.08533 -2.716,-0.08533c-0.89999,0 -1.80002,0 -2.60001,0c-0.89999,0 -1.79999,0 -2.70001,0c-0.89999,0 -1.79999,0 -2.69998,0c-0.89999,0 -1.80002,0 -2.60001,0c-0.89999,0 -1.79999,0 -2.70001,0c-0.88931,0 -1.78531,0 -2.69998,0c-0.89999,0 -1.80002,0 -2.60001,0c-0.89999,0 -1.79999,0 -2.70001,0c-0.89999,0 -1.79999,0 -2.69864,0c-0.854,0 -1.49615,0.44205 -2.24417,0.87866c-0.65366,0.38154 -1.63553,0.46903 -2.35583,0.83733c-0.87894,0.44942 -1.35565,1.20026 -2.20135,1.284c-0.7961,0.07883 -1.42892,0.3707 -2.22148,0.8785c-0.7466,0.47836 -1.75317,0.1215 -2.57983,0.1215c-0.89867,0 -1.79868,0 -2.69867,0c-0.89999,0 -1.8045,0 -2.66667,0c-0.83333,0 -1.81183,0 -2.63199,0c-0.916,0 -1.19733,0.79992 -1.90584,0.9955c-0.86411,0.23853 -1.60587,0.62253 -2.4955,0.91917c-0.85748,0.28592 -1.75728,0.36732 -1.8,1.18533c-0.04694,0.89877 0.02391,1.70027 0,2.73334c-0.01801,0.77795 -0.61813,1.477 -0.91467,2.36666c-0.28587,0.85765 -0.08533,1.8 -0.08533,2.6c0,0.9 0,1.8 0,2.7c0,0.9 0,1.7955 0,2.7215c0,0.8785 0,1.7785 0,2.5785c0,0.9 -0.0054,1.80002 0,2.7c0.00534,0.88938 0.68146,1.46043 1.02533,2.14667c0.39223,0.78273 0.68591,1.63644 1.364,2.29199c0.59584,0.57603 0.47089,1.52994 0.89467,2.26001c0.479,0.82521 1.34621,1.29231 1.5945,2.12267c0.24652,0.82443 -0.05498,1.84596 0.28818,2.67867c0.27646,0.67085 0.53429,1.55507 0.84399,2.38933c0.27234,0.73361 0.98346,1.23795 1.41467,2.01067c0.45699,0.81891 0.39333,1.75348 0.74133,2.60001c0.27589,0.67108 0.75427,1.59113 1.40132,2.2c0.51392,0.4836 1.21187,1.1552 1.6535,1.90001c0.39285,0.66254 1.1785,1.29999 1.87851,2c0.5,0.5 1.35944,1.12178 1.73332,2.06667c0.24707,0.62439 -0.17857,1.77211 0.22383,2.47166c0.46817,0.81387 0.76585,1.3797 0.94301,2.24049c0.18231,0.88588 0.63928,1.52 1.29533,2.3595c0.53331,0.68242 1.17261,1.16707 1.80434,1.86183c0.57343,0.63063 0.7825,1.57515 1.00998,2.30434c0.25684,0.82326 0.92587,1.5835 1.4075,2.19551c0.61676,0.78375 1.03592,1.58777 1.58252,2.37849c0.43625,0.63107 0.72873,1.4715 1.18417,2.30684c0.43149,0.7914 0.53,1.44153 0.75198,2.31467c0.21921,0.86227 0.92126,1.59697 0.96399,2.5c0.04251,0.89899 0,1.7 0,2.59999c0,0.90001 -0.02576,1.82085 0.35269,2.60451c0.42926,0.88887 0.52567,1.7294 0.814,2.52882c0.29147,0.80811 0.75156,1.59453 1.05466,2.48801c0.23569,0.69475 0.71643,1.65065 0.77734,2.47733c0.0589,0.79918 -0.05969,1.74849 0.28665,2.68533c0.26474,0.71609 0.89346,1.44475 1.27869,2.14134c0.44882,0.81166 0.35754,1.72578 0.44049,2.62199c0.08606,0.92957 0.46231,1.78616 0.99548,2.586c0.43683,0.6553 0.99927,1.336 1,2.1875c0.00082,0.95767 0.01306,1.82826 0.52084,2.47917c0.59933,0.76828 1.12711,1.32797 1.53183,2.2c0.38586,0.83139 0.89661,1.60411 0.94733,2.46667c0.04776,0.81216 0.46393,1.54204 1.18533,1.88399c0.96173,0.45586 1.35968,1.16504 1.91467,1.92784c0.46442,0.63831 1.20001,1.3215 1.70001,1.8215c0.69998,0.7 1.43689,1.37024 1.89999,1.95717c0.54578,0.69173 0.98383,1.55063 1.68933,2.18149c0.57257,0.51198 1.03033,1.31979 1.444,2.06134c0.46799,0.83888 1.30023,1.0388 1.80951,1.7045c0.51831,0.67751 1.14795,1.29639 1.35583,2.09683c0.21204,0.81645 0.79031,1.30418 1.50131,1.69867c0.88544,0.49126 1.85007,0.36833 2.60001,0.72133c0.77554,0.36505 1.58405,0.38487 2.46402,0.77867c0.61819,0.27664 1.01065,1.02533 1.43466,1.716l0.612,0.284l0.88931,0" id="svg_6" stroke-width="2" stroke="#000" fill="none"/>
  <path t="44159,44295,44307,44311,44327,44335,44343,44367,44375,44383,44391,44399,44407,44423,44439,44447,44479,44479,44511,44527,44535,44543,44567,44847,44855,44863,44863,44872,44880,44880,44887,44887,44896,44911,44911,44919,44935,44943,45025,45025,45422,45431,45439,45447,45463,45471,45479,45487,45487,45504,45513,45535,45556,45556,45559,45575,45591,45615,45623,45639,45650,45655,45656,45678,45696,45712,45730,45730,45735,45735,45743,45767,45775,45788,45788,45802,45807,45815,45839,45841,45851,45851,45863,45874,45879,45888,45905,45912,45912,45919,45929,45935,45935,45951,45951,45959,45959,45967,45967,45983,45991,46000,46007,46007,46023,46047,46059,46059,46064,46079,46087,46095,46105,46112,46112,46128,46129,46135,46135,46143,46143,46151,46151,46159,46168,46175,46175,46175,46184,46184,46191,46200,46200,46208,46208,46221,46225,46225,46235,46235,46239,46247,46256,46256,46264,46264,46271,46279,46287,46295,46303,46303,46312,46312,46319,46319,46329,46329,46342,46351,46351,46359,46359,46367,46367,46375,46383,46399,46399,46415,46423,46423,46439,46439,46455,46455,46471,46487,46487,46495,46512,46512,46519,46528,46545,46559,46559,46582,46583,46591,46615,46623,46639,46663,46671,46680,46687,46687,46695,46703,46712,46731,46735,46745,46745,46759,46759,46775,46783,46807,46823,46839,46847,46871,46887,46887,46895,46903,46911,46919,46935,46944,46952,46952,46967,46968,46975,46983,46991,46999,46999,47015,47031,47039,47039,47048,47064,47064,47071,47071,47085,47096,47111,47119,47135,47144,47151,47167,47167,47190,47191,47199,47199,47207,47215,47223,47232,47239,47239,47248,47249,47255,47262,47279,47279,47279,47287,47287,47298,47299,47303,47303,47311,47311,47319,47319,47319,47327,47328,47335,47336,47344,47345,47351,47361,47361,47367,47367,47375,47383,47391,47399,47400,47407,47415,47423,47431,47439,47448,47449,47455,47465,47465,47471,47481,47487,47495,47495,47503,47512,47527,47527,47535,47535,47543,47544,47551,47551,47561,47568,47575,47584,47584,47591,47591,47600,47607,47607,47616,47623,47631,47639,47639,47639,47649,47655,47666,47666,47671,47671,47686,47688,47703,47719,47719,47735,47735,47752,47760,47760,47767,47799,47816" d="m391.01135,87.09091c1.70001,0 2.70001,0 3.60001,0c0.89999,0 1.80002,0 2.70001,0c0.89999,0 1.79999,0 2.69998,0c0.83334,0 1.04526,-0.85424 1.80136,-0.99866c0.88269,-0.16861 1.647,-0.24338 2.28265,-0.71734c0.7688,-0.57325 1.716,-0.284 2.616,-0.284c0.89999,0 1.79999,0 2.70001,0c0.89548,0 1.83957,0.14588 2.51733,-0.284c0.76599,-0.48585 1.43448,-0.71375 2.32999,-0.716c0.91934,-0.00231 1.75266,0 2.73117,0c0.82016,0 1.6575,0 2.67416,0c0.69467,0 1.71133,0 2.64734,0c0.89999,0 1.79984,0 2.6955,0c0.80585,0 1.7045,0 2.60449,0c0.89999,0 1.80002,0.00066 2.70001,0c0.89999,-0.00067 1.75082,-0.30084 2.39999,-0.64733c0.84937,-0.45335 1.83887,-0.29204 2.60001,-0.70534c0.74622,-0.4052 1.63058,-0.25375 2.41467,-0.73267c0.80328,-0.49065 1.38971,-0.82598 2.28531,-0.91467c0.8457,-0.08374 1.28198,-0.95728 2.10001,-1c0.89877,-0.04694 1.73444,0.19595 2.60001,-0.05717c0.87762,-0.25665 1.62076,-0.83403 2.46667,-1.1095c0.85339,-0.2779 1.69162,-0.58669 2.42267,-0.85867c0.83829,-0.31187 1.50912,-1.05115 2.272,-1.39999c0.95868,-0.43838 1.74887,-0.39906 2.63864,-0.5955c0.84338,-0.1862 1.0426,-1.34492 1.72153,-1.85767c0.7077,-0.53448 1.75259,-0.3291 2.37848,-0.69617c0.77155,-0.45248 1.91714,-0.60361 2.34283,-1.37267c0.3786,-0.68398 0.74203,-1.5123 1.5,-1.93117c0.65707,-0.36311 1.67184,-0.1215 2.65717,-0.1215c0.89999,0 1.65781,0.0294 2.55719,-0.0045c0.74863,-0.02822 1.76593,-0.22848 2.50681,-0.60616c0.84634,-0.43144 1.51273,-1.24459 2.35684,-1.38934c0.86655,-0.1486 1.82922,0.13165 2.57916,-0.22134c0.77554,-0.36504 1.5007,-0.8026 2.31067,-1.20399c0.91129,-0.4516 1.79858,-0.25868 2.62534,-0.61067c0.7247,-0.30856 1.47476,-0.83524 2.26401,-0.9685c0.92838,-0.15675 1.23907,-1.18419 1.784,-1.71017c0.69028,-0.66629 1.69159,-0.29201 2.57318,-0.6425c0.76578,-0.30445 1.52444,-0.7841 2.3428,-1.122c0.98056,-0.40488 1.77814,-0.50283 2.66669,-0.52083c0.7905,-0.01602 1.87646,0.01667 2.58398,-0.01067c0.7449,-0.02879 1.73987,-0.35109 2.54666,-0.70533c0.80768,-0.35463 1.69437,-0.21985 2.60718,-0.34117c0.80487,-0.10697 1.66302,-0.68651 2.54483,-0.90683c0.74301,-0.18565 1.65335,-0.036 2.64618,-0.036c0.74731,0 1.76849,0 2.70898,0c0.86218,0 1.71634,0 2.6955,0c0.77869,0 1.75717,0 2.61066,0c0.88934,0 1.80005,0 2.71069,0c0.67865,0 1.65735,0 2.56268,0c0.95197,0 1.71729,0 2.70697,0c0.83832,0 1.77069,0 2.73035,0c0.67865,0 1.65735,0 2.56268,0c0.94128,0 1.63196,0 2.70532,0c0.82135,0 1.73181,0 2.54932,0c1.02802,0 1.96149,0 2.7467,0c0.95062,0 1.71594,0 2.71014,0c0.74731,0 1.77917,0 2.72583,0c0.67865,0 1.65717,0 2.67865,0c0.79999,0 1.71216,0.03495 2.40002,0.42533c0.81659,0.46343 1.76666,0.57467 2.59998,0.57467c0.97852,0 1.6955,0 2.60004,0c0.89996,0 1.83868,0.06105 2.38928,0.57467c0.4978,0.46437 1.37915,0.46424 2.03156,0.92533c0.66882,0.47269 1.60339,0.07613 2.53247,0.536c0.6665,0.32988 0.86249,1.38385 1.64532,1.88c0.73535,0.46606 1.45935,0.79412 2.09601,1.19383c0.8382,0.52623 0.74628,1.42673 1.20532,2.36933c0.40668,0.83497 0.18842,2.01556 0.85718,2.46367c0.70074,0.46956 1.51184,0.47895 2.07886,1.0425c0.68146,0.67731 1.11658,1.21156 1.8595,1.90484c0.63092,0.58879 0.50958,1.43151 0.70581,2.3085c0.1806,0.80704 0.84161,1.30897 1.36035,2.10583c0.42712,0.65614 1.12097,1.17817 1.77698,1.83417c0.69202,0.692 1.38324,1.24334 1.77734,2.06133c0.41254,0.85619 0.71698,1.50647 1.08398,2.3c0.4198,0.90769 1.08936,1.4271 1.56403,2.1c0.51837,0.7348 0.81488,1.68849 1.2373,2.28533c0.52649,0.7439 0.87311,1.78895 1.7627,2.09334c0.81549,0.27903 1.565,0.48516 2.08331,1.074c0.57263,0.65057 0.96191,1.29872 1.742,1.93266c0.60883,0.49477 0.58569,1.44698 0.61084,2.4575c0.01849,0.74313 0.35242,1.63303 0.71582,2.35583c0.38586,0.76743 0.71674,1.59685 1.20001,2.4c0.44806,0.74457 1.42975,0.98788 1.79865,1.688c0.45276,0.85924 0.07813,1.65659 0.32135,2.70267c0.17755,0.7636 1.00653,1.55434 1.35333,2.24667c0.37244,0.74354 0.44287,1.79523 0.72052,2.50684c0.32623,0.83615 1.24799,1.08109 1.78033,1.96616c0.35516,0.59052 0.4516,1.70603 0.72046,2.47633c0.36841,1.05554 0.71484,1.74585 0.95337,2.404c0.3606,0.99499 0.42554,1.78967 0.43597,2.78934c0.00806,0.77396 -0.00916,1.67404 0,2.53733c0.01044,0.98417 0.17151,1.82995 0.61066,2.65867c0.44061,0.83147 1.12823,1.34985 1.35333,2.22533c0.22437,0.87253 0.23804,1.90726 1.03601,2.43333c0.6593,0.43465 0.77893,1.27931 1.284,1.99734c0.48523,0.68982 0.716,1.36932 0.716,2.26933c0,0.89999 -0.12317,1.71539 0.05719,2.65717c0.17737,0.92615 0.70831,1.55948 0.88568,2.48566c0.18036,0.94176 0.05713,1.85718 0.05713,2.75717c0,0.8 -0.11438,1.71146 0.03601,2.636c0.14209,0.87332 0.62354,1.55249 0.84253,2.56383c0.16626,0.76802 0.02802,1.7915 0.17865,2.55284c0.1839,0.92923 0.72406,1.5623 0.9068,2.61133c0.14362,0.82436 0.03601,1.73601 0.03601,2.636c0,0.75717 0,1.65266 0,2.51601c0,0.98399 0,1.96799 0,2.65866c0,1.06366 0,1.93517 0,2.69733c0,1.12801 -0.00787,1.91739 0,2.64267c0.01044,0.96468 0.5033,1.72169 0.83337,2.65201c0.28284,0.7973 0.16663,1.66666 0.16663,2.52882c0,0.90451 0,1.8045 0,2.71516c0,0.91068 0,1.76401 0,2.70534c0,0.76801 0,1.70934 0,2.71733c0,0.756 0,1.73067 0,2.60268l0,0.864" id="svg_7" stroke-width="2" stroke="#000" fill="none"/>
  <path t="51160,51367,51367,51375,51375,51375,51383,51399,51399,51407,51407,51414,51422,51430,51439,51456,51463,51472,51479,51502,51502,51510,51526,51526,51542,51543,51550,51550,51574,51574,51590,51598,51598,51606,51606,51614,51622,51622,51630,51631,51638,51646,51656,51656,51663,51672,51672,51681,51687,51687,51694,51694,51702,51712,51712,51718,51726,51726,51742,51742,51751,51751,51759,51759,51759,51766,51767,51774,51783,51783,51790,51798,51799,51814,51814,51822,51822,51822,51830,51839,51847,51847,51855,51863,51879,51879,51879,51888,51888,51893,51893,51910,51927,51935,51950,51966,51976,51982,51998,52007,52014,52030,52030,52038,52039,52047,52063,52072,52088,52088,52103,52118,52118,52134,52151,52151,52161,52166,52186,52190,52206,52206,52224,52224,52231,52238,52238,52246,52262,52278,52295,52302,52318,52334,52334,52350,52350,52366,52374,52392,52414,52424,52446,52454,52455,52471,52479,52488,52504,52518,52526,52542,52574,52918,53214,53226,53254,53302,53318,53358,53390,53414,53422,53582,53830,53846,53948,53998,54014,54014,54022,54038,54046,54055,54062,54078,54086,54102,54102,54110,54119,54142,54152,54159,54167,54182,54190,54198,54206,54214,54215,54230,54246,54254,54270,54286,54294,54310,54326,54342,54342,54358,54382,54406,54414,54438,54438,54454,54470,54486,54502,54502,54510,54534,54566,54590,54614,54646,54646,54670,54686,54694,54718,54750,54774,54870,54886,54950,54958,54977,55086,55095,55110,55158,55174,55174,55182,55182,55190,55198,55206,55214,55215,55222,55230,55230,55246,55262,55262,55270,55270,55278,55286,55294,55318,55350,55374,55384,55414,55438,55438,55446,55462,55494,55502,55510,55526,55534,55558,55574,55584,55590,55606,55622,55630,55678,55694,55702,55702,55718,55734,55742,55766,55784,55790,55798,55814,55830,55838,55854,55870,55878,55886,55894,55910,55918,55926,55926,55958,55967,55975,55990,56000,56008,56009,56030,56038,56054,56062,56070,56086,56102,56118,56118,56135,56150,56167,56174,56183,56191,56200,56215,56222,56230,56246,56262,56270,56278,56286,56302,56302,56310,56311,56334,56342,56342,56358,56366,56374,56383,56383,56391,56414,56422,56446,56462,56462,56470,56470,56486,56494,56495,56502,56510,56526,56542,56558,56558,56574,56574,56598,56616,56631,56638,56646,56662,56670,56678,56686,57036" d="m399.01135,229.09091c2.33334,2.16667 3.04315,2.51793 4,3c0.59192,0.29822 1.39886,0.61446 1.97919,1.5c0.48602,0.74167 0.90442,1.30473 1.66901,1.8c0.77939,0.50485 1.15906,1.30754 1.70898,1.9955c0.5896,0.73758 1.6001,0.9865 1.64282,1.8045c0.04694,0.89877 0.45264,1.39468 0.99869,1.98532c0.63132,0.68286 0.58453,1.51068 1.00131,2.41467c0.36929,0.80104 0.89377,1.37837 1.48267,1.98399c0.66406,0.68292 1.07626,1.61954 1.60001,2.22934c0.6153,0.71637 0.78711,1.18538 0.93869,2.112c0.17035,1.04134 1.0018,1.36458 1.64532,2.17467c0.47989,0.60408 0.28836,1.57045 0.776,2.32133c0.4783,0.7365 1.34689,1.46959 1.51566,2.15782c0.21967,0.89578 0.54218,1.73965 0.875,2.52084c0.32019,0.75153 0.13046,1.63678 0.17117,2.65268c0.02789,0.69608 0.53442,1.6525 0.87418,2.44748c0.31894,0.74631 0.52518,1.53275 0.83731,2.41583c0.29785,0.84268 0.28339,1.80533 0.284,2.65866c0.00067,0.94 0.16736,1.82486 0.61069,2.46133c0.59024,0.84738 0.95914,1.55823 1.48932,2.34283c0.47372,0.70102 1.00623,1.56125 1.30002,2.27185c0.30649,0.74133 0.74521,1.57907 1.164,2.328c0.45056,0.80576 0.2666,1.76791 0.47198,2.56c0.22452,0.86578 1.37457,1.16232 1.67868,1.83331c0.33932,0.74872 0.27661,1.81332 0.28531,2.86136c0.00583,0.70499 -0.04657,1.54575 0.35269,2.40948c0.42194,0.91281 0.62192,1.75757 0.64731,2.55716c0.02859,0.9014 0.47537,1.58286 1,2.36667c0.43372,0.64801 0.79031,1.43961 1.30002,2.42883c0.2944,0.57141 1.01807,1.43304 1.41467,2.11783c0.42923,0.74112 0.1459,1.7551 0.56934,2.48535c0.4791,0.82626 0.71597,1.50583 0.71597,2.40134c0,0.89999 0,1.79999 0,2.69998c0,0.90134 0,1.86667 0,2.70001c0,0.83334 -0.41479,1.81946 0.05719,2.64282c0.39432,0.68787 0.94214,1.24384 0.94281,2.1825c0.00049,0.69067 0,1.67468 0,2.65869c0,0.86331 0,1.76334 0,2.68265c0,0.83334 0,1.81168 0,2.66669c0,0.87115 0,1.6875 0,2.65198c0,0.72534 0,1.71451 0,2.49384c0,1.1355 0,2.02084 0,2.82083c0,0.90002 0,1.80002 0,2.70001c0,0.89999 0,1.79999 0,2.70001c0,0.90015 0,1.68533 0,2.62531c0,0.69067 0,1.76401 0,2.67468c0,0.88934 0,1.78534 0,2.70001c0,0.89999 0,1.79999 0,2.59998c0,0.90002 0,1.80002 0,2.70001c0,0.89999 0.04773,1.80127 0,2.69867c-0.04272,0.80338 -0.95728,1.08331 -1,1.90115c-0.04807,0.91977 0,1.70151 0,2.60019c0,0.89999 0,1.79999 0,2.69998c0,0.89999 0,1.80002 0,2.69983c0,0.92551 0.23212,1.71793 1.09985,1.90033c0.79214,0.16653 0.9855,0.99985 1.90015,0.99985c0.80002,0 1.70001,0 2.60001,0c0.89999,0 1.80002,0 2.70001,0c0.89999,0 1.79999,0 2.69998,0c0.80002,0 1.72708,0.18604 2.60001,-0.03601c0.85297,-0.21698 1.36041,-1.13715 2.10452,-1.61133c0.72687,-0.4632 1.6955,-0.35266 2.59549,-0.35266c0.89999,0 1.80127,0.04779 2.69998,0c0.80341,-0.04272 1.5372,-0.74686 2.40002,-0.96399c0.86911,-0.21872 1.87329,0.15863 2.51599,-0.32001c0.68655,-0.51129 1.39053,-0.60904 2.284,-0.71735c0.91977,-0.11148 1.45407,-0.80853 2.39999,-0.98801c0.88428,-0.16779 1.84457,0.08481 2.60001,-0.29465c0.86719,-0.43558 1.69461,-0.38083 2.44284,-0.77316c0.74692,-0.39166 1.37781,-0.9324 2.33566,-0.94284c0.8201,-0.00891 1.7215,0 2.62149,0c0.89999,0 1.84457,0.09546 2.60001,-0.284c0.86719,-0.43558 1.60022,-0.69659 2.5,-0.716c0.86456,-0.01865 1.34396,-0.85425 2.10135,-0.99866c0.88275,-0.16833 1.79865,-0.00134 2.69864,-0.00134c0.90002,0 1.82193,0.19589 2.69867,-0.00134c0.80286,-0.18063 1.34125,-0.72473 1.74417,-1.35583c0.50586,-0.79236 0.05716,-1.8645 0.05716,-2.80948c0,-0.65869 0,-1.66669 0,-2.52884c0,-0.90451 0.05292,-1.83923 -0.35266,-2.60449c-0.4483,-0.84589 -0.36465,-1.58405 -0.76166,-2.40002c-0.36847,-0.75729 -1.44812,-1.01749 -1.86484,-1.82083c-0.46536,-0.89713 -0.55713,-1.70413 -1.12082,-2.45749c-0.53436,-0.71417 -1.29907,-1.10266 -1.95267,-1.66901c-0.60019,-0.52008 -0.85867,-1.30841 -1.55801,-1.91666c-0.73325,-0.63776 -1.13129,-1.05661 -1.41068,-1.87201c-0.30438,-0.88843 -1.17676,-1.09604 -2.09198,-1.48001c-0.81363,-0.34134 -0.72733,-1.38187 -1.23935,-2.03131c-0.48456,-0.61462 -0.63004,-1.36401 -1.14734,-2.05267c-0.46997,-0.62567 -0.49774,-1.5 -0.5,-2.39999c-0.00226,-0.89551 -0.6712,-1.40656 -0.97916,-2.12085c-0.37949,-0.88022 0.07928,-1.84247 -0.02216,-2.67917c-0.11151,-0.91977 -0.84451,-1.56683 -0.98801,-2.39999c-0.15277,-0.88699 -0.01068,-1.79999 -0.01068,-2.69998c0,-0.90002 0,-1.80002 0,-2.70001c0,-0.87866 0.18274,-1.73087 -0.03598,-2.60001c-0.21713,-0.86279 -0.79727,-1.61148 -0.96417,-2.49982c-0.14951,-0.79572 -0.97122,-1.25589 -0.99985,-2.10019c-0.03049,-0.89948 0,-1.79999 0,-2.59998c0,-1.03336 0.00525,-1.8107 0,-2.70001c-0.00534,-0.90005 -0.50687,-1.71613 -0.83331,-2.5c-0.34375,-0.82547 -0.16669,-1.7045 -0.16669,-2.60001c0,-0.89999 0,-1.79999 0,-2.6955c0,-0.92599 0,-1.8045 0,-2.7045c0,-0.79999 0,-1.70001 0,-2.60001c0,-0.89999 0,-1.79999 0,-2.69998c0,-0.90002 0,-1.79984 0,-2.70001c0,-0.80133 0,-1.70001 0,-2.60001c0,-0.89999 0,-1.79999 0,-2.69998c0,-0.90134 0,-1.86667 0,-2.52536c0,-1.008 0,-1.888 0,-2.82132c0,-0.83734 0,-1.70065 0,-2.59616c0,-0.95718 0,-1.85718 0,-2.75717c0,-0.79999 0,-1.70001 0,-2.60001c0,-0.87915 0,-1.84665 0,-2.72131c0,-0.85336 0,-1.79468 0,-2.56268c0,-0.94135 0,-1.94933 0,-2.70534c0,-0.91066 0,-1.81065 0,-2.71066c0,-0.90134 0,-1.86667 0,-2.52533c0,-1.008 0,-1.87016 0,-2.77467c0,-0.89999 0,-1.79999 0,-2.7c0,-0.89999 0,-1.79984 0,-2.7l0,-0.80133l0,-0.89867l0,-0.94284" id="svg_8" stroke-width="2" stroke="#000" fill="none"/>
  <path t="66351,66407,66423,66446,66462,66462,66472,66472,66479,66494,66510,66518,66518,66526,66558,66574,66582,66598,66606,66614,66622,66639,66647,66647,66655,66671,66688,66695,66695,66710,66719,66734,66734,66742,66759,66759,66766,66767,66775,66782,66791,66791,66806,66815,66815,66830,66838,66847,66855,66863,66863,66878,66888,66895,66910,66910,66926,66934,66934,66942,66943,66951,66966,66967,66975,66975,66983,66983,66991,66994,66994,66998,67006,67015,67015,67022,67031,67031,67047,67055,67062,67071,67078,67094,67104,67104,67110,67118,67126,67134,67142,67150,67151,67158,67166,67175,67182,67198,67199,67207,67214,67223,67223,67238,67246,67254,67271,67271,67278,67288,67294,67310,67311,67319,67326,67326,67334,67342,67350,67358,67366,67374,67382,67382,67391,67399,67407,67407,67415,67415,67422,67430,67438,67439,67447,67454,67455,67463,67463,67470,67479,67479,67487,67495,67504,67504,67510,67519,67535,67542,67559,67574,67591,67599,67614,67630,67646,67647,67655,67662,67679,67687,67695,67695,67711,67735,67775,67815" d="m602.01135,177.09091c-0.05713,1.7 -0.74005,2.37317 -1,3.28667c-0.24084,0.84641 0.00671,1.73419 0,2.71333c-0.00537,0.77873 -0.42761,1.43965 -0.87848,2.2215c-0.44305,0.76828 -0.08435,1.77937 -0.12152,2.57851c-0.04272,0.91763 -0.6225,1.44598 -1.03601,2.22533c-0.37286,0.70267 -0.95129,1.47452 -0.96399,2.37466c-0.01263,0.89543 -0.45709,1.3634 -1.19867,1.88535c-0.78162,0.55011 -0.43634,1.62566 -0.85846,2.3575c-0.4679,0.81114 -1.22681,1.10608 -2.04285,1.57866c-0.66656,0.38602 -1.56842,0.99425 -1.89551,1.83118c-0.34485,0.88234 -0.20135,1.59877 -1.00452,1.96815c-0.78754,0.36218 -0.85138,1.22861 -1.28534,2.09384c-0.38409,0.76587 -1.27728,1.33969 -1.63068,2.08533c-0.40704,0.85886 -0.78729,1.50113 -1.48395,2.2c-0.59906,0.60098 -1.3078,1.12827 -2.02533,1.61067c-0.62488,0.42012 -0.35809,1.41801 -0.58368,2.28934c-0.22809,0.88094 -1.37158,1.11191 -1.82037,1.89999c-0.45319,0.79588 -0.42517,1.44185 -1.00397,2.13333c-0.4411,0.52696 -0.54004,1.5248 -1.33331,1.83334c-0.82605,0.3213 -1.63519,0.91949 -1.83069,1.63333c-0.22729,0.83009 -1.06812,1.12456 -1.7627,1.22533c-1.10297,0.16002 -1.82397,0.64084 -2.72266,0.89067c-0.78906,0.21936 -1.44806,0.64275 -1.80133,1.56667c-0.25623,0.6702 -0.75763,1.51733 -1.57733,1.51733c-0.97198,0 -1.8905,-0.03275 -2.53864,0.436c-0.78174,0.56535 -1.31232,1.17921 -2.20001,1.58932c-0.81195,0.37511 -1.63281,0.65555 -2.31604,1.25867c-0.59253,0.52307 -1.44745,0.52559 -2.18378,0.9375c-0.73755,0.41261 -0.89307,1.59419 -1.70154,1.77718c-0.87653,0.19838 -1.86505,-0.07436 -2.59863,0.43733c-0.67542,0.47112 -1.13446,1.31944 -2.10004,1.54317c-0.87695,0.20319 -1.82886,-0.02504 -2.48529,0.44617c-0.61896,0.44432 -1.38025,0.41856 -2.37872,0.58533c-0.86755,0.1449 -1.62335,0.9043 -2.43597,0.98801c-0.89526,0.09222 -1.80939,0.01833 -2.61066,0.42667c-0.76538,0.39006 -1.57001,0.51697 -2.52802,0.57466c-0.8653,0.05211 -1.53302,0.62918 -2.38263,0.87849c-0.82574,0.24229 -1.84674,-0.05688 -2.67871,0.28818c-0.78436,0.32532 -1.49982,0.82291 -2.39996,0.83333c-0.89996,0.01041 -1.86285,-0.25629 -2.68402,0.08533c-0.81287,0.33815 -1.5672,0.88228 -2.26331,0.91017c-1.01593,0.04071 -1.95721,0.0045 -2.81934,0.0045c-0.83337,0 -1.81201,0 -2.586,0c-0.89551,0 -1.93506,-0.06374 -2.69019,0.22133c-0.76929,0.29041 -1.66876,0.73596 -2.55719,0.77867c-0.75629,0.03636 -1.65265,0 -2.51599,0c-0.98401,0 -1.96802,0 -2.65869,0c-1.06812,0 -1.92529,0 -2.82532,0c-0.79999,0 -1.69998,0 -2.59998,0c-0.90002,0 -1.80002,0 -2.70001,0c-0.89999,0 -1.79999,0 -2.70001,0c-0.87866,0 -1.64667,0 -2.65265,0c-0.69467,0 -1.71133,0 -2.64734,0c-0.89999,0 -1.79999,0 -2.70001,0c-0.79999,0 -1.69998,0 -2.64282,0l-0.87799,0l-0.87918,0" id="svg_10" stroke-width="2" stroke="#000" fill="none"/>
  <path t="69655,69759,69768,69775,69783,69783,69799,69807,69807,69807,69815,69815,69823,69823,69831,69831,69839,69839,69839,69847,69847,69855,69863,69871,69871,69879,69879,69887,69887,69895,69903,69903,69911,69911,69919,69919,69927,69927,69935,69935,69943,69951,69959,69959,69968,69969,69975,69985,69985,69985,69991,69991,69999,70007,70015,70015,70015,70024,70024,70031,70039,70039,70047,70055,70055,70071,70071,70079,70082,70083,70087,70095,70104,70111,70111,70119,70119,70127,70136,70136,70143,70151,70151,70159,70168,70175,70175,70184,70184,70191,70207,70207,70215,70231,70231,70239,70239,70247,70255,70263,70271,70279,70295,70295,70303,70303,70311,70327,70343,70351,70351,70367,70385,70407,70439,70463,70471,70495,70543,70543" d="m376.01135,224.09091c0,1.8 0,2.7 0,3.52083c0,0.96317 0,1.65384 0,2.7265c0,0.91934 0,1.79434 0,2.43933c0,0.996 -0.01523,1.7926 0,2.98001c0.01044,0.8127 0.23929,1.64795 0.5,2.35416c0.35822,0.97034 0.48083,1.77863 0.49869,2.57918c0.02222,0.99525 -0.00113,1.74283 0.00131,2.76399c0.00226,0.94052 0.16669,1.80267 0.5,2.636c0.33334,0.83333 0.49466,1.62529 0.5,2.65266c0.0036,0.69466 0,1.722 0,2.66867c0,0.67867 0,1.79466 0,2.56267c0,0.952 0,1.71733 0,2.716c0,0.79999 0,1.79865 0,2.564c0,0.94934 -0.03592,1.89862 0.01068,2.70801c0.04221,0.73325 0.36771,1.71384 0.63666,2.47083c0.3624,1.02005 0.52609,1.82123 0.85266,2.67801c0.22058,0.57874 0.34076,1.59695 0.58401,2.49384c0.23962,0.88345 0.87329,1.68384 0.91599,2.65198c0.02951,0.6687 0,1.43466 0,2.42883c0,0.91919 0,1.90451 0,2.72583c0,0.85333 -0.21646,1.86896 0.22134,2.7785c0.34225,0.71103 0.77866,1.46951 0.77866,2.25201c0,0.89551 -0.0018,1.81482 0,2.62732c0.00226,1.02533 0.74707,1.56863 0.96402,2.43152c0.2222,0.88385 -0.13144,1.84341 0.32132,2.70267c0.36893,0.7001 1.42853,0.84418 2.01016,1.5965c0.44647,0.57748 0.52451,1.58472 0.92584,2.39017c0.38226,0.76715 0.77585,1.60001 0.77866,2.42084c0.0033,0.96448 -0.04572,1.70868 0.22134,2.67883c0.21451,0.77924 0.73877,1.68875 1.13135,2.51016c0.30463,0.63733 0.61871,1.53616 0.64731,2.45682c0.02588,0.83295 -0.02597,1.81223 0,2.63202c0.02859,0.90271 0.68616,1.62369 0.94284,2.50131c0.25278,0.86429 0.02264,1.78464 0.05716,2.70001c0.02863,0.75879 0.38751,1.63892 0.64734,2.34732c0.3667,0.99973 0.35266,1.85269 0.35266,2.75269c0,0.89999 0,1.69998 0,2.60001c0,0.94281 0,1.87466 0,2.73599c0,0.86398 0,1.76401 0,2.664l0,0.89999l0,0.79999" id="svg_11" stroke-width="2" stroke="#000" fill="none"/>
  <path t="71512,71670,71679,71687,71695,71702,71711,71711,71726,71727,71734,71734,71743,71919,71966,71998,72014,72039,72047,72047,72070,72118,72127,72138,72142,72182,72206,72246,72263,72270,72279,72302,72326,72366,72382,72398" d="m407.01135,362.09091c1.70001,0 2.70001,0 3.60001,0c0.89999,0 1.7045,0 2.7215,0c0.69934,0 1.6785,0 2.46783,0c1.04401,0 1.90619,0 2.81067,0c0.89999,0 1.78934,0 2.68533,0c0.91467,0 1.8154,0.03665 2.71466,0c0.70175,-0.02859 1.42236,-0.68619 2.30002,-0.94284c0.86557,-0.25311 1.79984,-0.05716 2.72083,-0.05716c0.78052,0 1.69385,0 2.58984,0c0.88931,0 1.82416,0.24289 2.68481,-0.00449c0.76788,-0.2207 1.31519,-0.98486 2.2045,-0.99551l0.90002,0l0.89548,-0.00449" id="svg_12" stroke-width="2" stroke="#000" fill="none"/>
  <path t="73424,73623,73640,73648,73656,73656,73665,73671,73711,73735,73751,73783,73783,73847,73854,73887,73903" d="m391.01135,338.09091c0.05719,-1.70001 0.56201,-2.46835 0.94736,-3.29999c0.40399,-0.87189 0.90439,-1.46863 1.04816,-2.40002c0.13181,-0.85388 0.00229,-1.82083 0.00449,-2.69998c0.00226,-0.89999 0.33691,-1.63126 0.716,-2.39999c0.41684,-0.84525 0.284,-1.76401 0.284,-2.63602l0,-0.96399" id="svg_13" stroke-width="2" stroke="#000" fill="none"/>
  <path t="75751,75886,75903,75903,75912,75916,75999,76023,76246,76254" d="m368.01135,203.09091c1.81467,0.436 2.80542,0.95117 2.99103,1.7c0.20813,0.83975 0.72498,1.29868 1.00897,1.91068l0,0.88933l-0.01065,0.89999l-0.27466,0.79868" id="svg_14" stroke-width="2" stroke="#000" fill="none"/>
  <path t="79696,79879,79879,79887,79887,79895,79895,79903,79903,79911,79911,79919,79919,79919,79927,79927,79935,79935,79943,79943,79951,79951,79951,79959,79967,79967,79975,79983,79983,79983,79999,79999,80007,80007,80015,80023,80031,80031,80033,80033,80063,80063,80071,80071,80071,80079,80087,80095,80103,80112,80112,80119,80135,80143,80143,80151,80159,80167,80175,80176,80191,80191,80199,80199,80207,80215,80223,80223,80231,80231,80240,80240,80241,80247,80257,80257,80263,80263,80279,80287,80295,80303,80303,80311,80312,80319,80327,80335,80343,80351,80359,80367,80367,80375,80375,80383,80391,80399,80399,80407,80423,80439,80439,80456,80463,80487,80511,80527" d="m559.01135,70.09091c1.82532,0.44666 2.55841,0.84807 3.24738,1.64816c0.40405,0.46925 1.23865,1.17516 1.92731,1.3665c0.94287,0.26197 1.62634,0.87048 2.12982,1.638c0.45477,0.6933 1.00269,1.34583 1.71637,1.84734c0.56946,0.40014 1.58374,1.14293 2.14313,1.67467c0.68066,0.64701 1.31519,1.3045 1.93616,1.9255c0.53583,0.53584 1.20459,1.23856 1.89984,1.879c0.50427,0.46454 1.46564,0.84493 2.10004,1.4635c0.61981,0.60433 1.21802,1.4083 2.06665,1.724c0.67078,0.24953 1.42181,0.65721 2.07617,1.486c0.51379,0.65074 1.05499,1.39743 1.4718,2.146c0.41809,0.75089 0.66296,1.74246 1.60669,2.07999c0.64917,0.23218 1.76001,0.21643 2.39197,0.83733c0.63275,0.62164 0.89307,1.50747 1.28668,2.284c0.39575,0.78084 0.93176,1.28156 1.64282,2.04816c0.52625,0.56731 0.9184,1.42055 1.3045,2.25183c0.40442,0.8708 1.02924,1.1375 1.6955,1.75267c0.58179,0.5372 0.23865,1.62053 0.4425,2.46333c0.21478,0.88802 0.78973,1.68864 0.91486,2.584c0.12665,0.90647 0.66223,1.50234 1.19849,2.384c0.40601,0.66757 0.53748,1.54406 0.88531,2.31467c0.3822,0.84676 1.49927,1.07229 1.86334,1.91116c0.25903,0.5968 0.41101,1.54449 0.93933,2.2595c0.59222,0.80148 1.11279,1.51851 1.4035,2.02534c0.58057,1.01204 0.70795,2.00533 0.70984,2.7625c0.00226,0.89101 0.20142,1.57169 0.83337,2.4095c0.48828,0.64735 1.13806,1.19373 1.16663,2.15467c0.0202,0.67837 0,1.65717 0,2.47733c0,0.90133 0,1.80133 0,2.70133c0,0.89999 0,1.8 0,2.70134c0,0.96533 0,1.79866 0,2.77716c0,0.717 0,1.62151 0,2.54233c0,0.96317 0,1.65384 0,2.722c0,0.85718 0,1.75717 0,2.55717c0,0.89999 0,1.8 0,2.7l0,0.89999l0,0.90001" id="svg_15" stroke-width="20" stroke="#fff" fill="none"/>
  <path t="81728,81791,81806,81832,81848,81863,81872,81895,81912,82092,82109,82112,82134,82134,82138,82138,82143,82143,82151,82159,82159,82167" d="m553.01135,66.09091c1.79999,0 2.47394,-0.20329 3.16669,-0.83334c0.59985,-0.54556 1.3219,-0.97865 1.80798,-1.60266c0.57813,-0.74216 1.30164,-1.02691 1.8587,-1.73067c0.52301,-0.6607 -0.6947,-0.83333 -1.66669,-0.83333c-0.79199,0 -1.65198,0 -2.57117,0c-0.9942,0 -1.75952,0 -2.71014,0l-0.88538,0l-0.79999,0l-0.90002,0" id="svg_16" stroke-width="20" stroke="#fff" fill="none"/>
  <path t="85623,85814,85823,85830,85830,85838,85839,85846,85862,85862,85867,85871,85950,85958,85974,85982,85990,86006,86016,86046,86055,86062,86078,86086,86103,86110,86110,86134,86151,86151,86166,86175,86182,86191,86199,86216,86223,86223,86230,86238,86239,86246,86262,86278,86302,86310,86319,86319,86326,86335,86342,86350,86359,86359,86374,86383,86399,86407,86431,86431,86446,86454,86454,86470,86486,86495,86502,86510,86519,86535,86535,86550,86551,86558,86558,86566,86574,86574,86582,86591,86591,86599,86616,86616,86622,86623,86632,86639,86639,86646,86654,86662,86662,86670,86678,86686,86703,86710,86719,86719,86726,86742,86750,86758,86759,86774,86790,86806,86807,86822,86832,86832,86847,86862,86863,86878,86878,86887,86895,86910,86919,86926,86958,86982,86990,87006,87015,87023,87047,87055,87062,87078,87078,87086,87102,87103,87118,87134,87135,87151,87151,87158,87166,87175,87183,87191,87199,87199,87215,87232,87232,87248,87248,87262,87262,87270,87278,87286,87294,87294,87310,87310,87326,87326,87334,87343,87351,87359,87374,87390,87391,87400,87400,87407,87422,87438,87438,87448,87448,87455,87455,87463,87470,87478,87486,87494,87510,87518,87535,87535,87542,87543,87551,87559,87567,87583,87590,87606,87606,87614,87615,87631,87638,87638,87648,87654,87664,87665,87670,87694,87702,87710,87719,87719,87726,87735,87735,87742,87751,87751,87766,87774,87783,87790,87806,87806,87815,87823,87831,87831,87847,87864,87864,87887,87887,87895,87902,87911,87911,87918,87926,87942,87951,87951,87958,87966,87983,87983,88000,88015,88015,88031,88039,88047,88047,88064,88079,88086,88094,88102,88110,88119,88126,88135,88150,88151,88158,88167,88174,88182,88190,88206,88222,88222,88238,88238,88247,88255,88255,88270,88280,88286,88302,88302,88310,88318,88319,88334,88342,88358,88382,88391,88406,88422,88430,88431,88454,88470,88480,88502,88518,88550,88566,88582,88583,88599,88622,88646,88654,88670,88686,88695,88734,88774,88854,88886,88887,88934,88955,89158,89174,89222,89230,89294,89310,89318,89334,89342,89366,89390,89398,89406,89415,89432,89438,89454,89470,89486,89510,89518,89542,89566,89566,89590,89606,89615,89638,89638,89647,89670,89679,89695,89742,89750,89782,89838,89838,89854,89854,89870,89878,89887,89895,89902,89926,89926,89934,89950,89974,89984,90158,90182,90310,90318,90319,90398,90414,90438,90494,90502,90598,90606,90774,90790,90798,90806,90822,90838,90862,90886,90896,90902,90911,90950,90950,90966,90998,91013,91031,91062,91080,91110,91127,91190,91198,91214,91215,91238,91246,91262,91286,91310,91318,91334,91343,91350,91360,91375,91375,91390,91391,91398,91399,91406,91414,91422,91431,91446,91447,91454,91454,91463,91470,91471,91479,91486,91486,91495,91511,91511,91527,91534,91543,91550,91560,91560,91574,91582,91590,91606,91614,91622,91631,91646,91654,91662,91679,91686,91702,91711,91718,91718,91726,91742,91750,91759,91766,91776,91782,91790,91791,91806,91814,91830,91862,91894,91911,91934,91950,91950,91982,92006,92015,92045,92078,92118,92150,92222,92223,92238,92342" d="m550.01135,61.09091c1.70001,0.05717 2.47699,0.61188 3.32135,0.87867c0.82562,0.26086 1.75195,0.47919 2.47736,0.83733c0.80035,0.39515 1.67621,0.59064 2.37598,0.85867c1.05109,0.4026 1.91064,0.42533 2.82532,0.42533c0.87866,0 1.8053,-0.36941 2.56403,0.036c0.73035,0.39024 0.86987,1.63879 1.73596,1.90684c0.86151,0.26662 1.92493,-0.19909 2.57867,0.2785c0.6991,0.51071 1.32513,0.69655 2.22137,0.77884c0.91138,0.08368 1.45746,0.7508 1.92084,1.49983c0.46686,0.75467 1.28961,1.10423 2.2005,1.50017c0.74011,0.32171 1.18195,0.99739 1.80396,1.5745c0.6015,0.55809 0.77954,1.3363 1.14136,2.25867c0.3089,0.78746 1.27917,1.04208 2.03333,1.45066c0.65002,0.35218 1.48053,0.8186 1.88397,1.51733c0.45343,0.78539 0.71271,1.65692 1.20135,2.39734c0.52649,0.79772 1.41486,0.78229 2.3147,0.80133c0.96442,0.02042 1.31946,0.67551 1.836,1.4c0.56012,0.78559 1.31116,1.2566 1.8595,1.89999c0.64203,0.75335 1.0376,1.44093 1.65631,2.05717c0.63086,0.62832 1.23529,0.9677 1.87885,1.84283c0.5141,0.69902 0.8139,1.50121 1.16931,2.3c0.35449,0.79671 1.16809,1.14826 1.94733,1.5045c0.79553,0.36369 1.62427,0.85786 1.96869,1.56483c0.3479,0.7141 0.45483,1.66867 0.88531,2.31467c0.61865,0.92835 0.9917,1.6368 1.4942,2.35883c0.53052,0.7623 0.52844,1.5326 0.72583,2.57183c0.16931,0.89139 1.27887,0.7802 1.86432,1.547c0.49341,0.64625 0.1076,1.65919 0.11432,2.63834c0.00537,0.77872 0.43164,1.59513 0.83337,2.33334c0.414,0.7608 -0.09186,1.92724 0.45197,2.584c0.5274,0.63692 1.36102,1.01463 1.62933,1.91333c0.25116,0.8413 0.08337,1.78894 0.51068,2.56934c0.45038,0.82256 0.54926,1.6004 0.57465,2.39999c0.02863,0.90136 0.56201,1.66837 0.94733,2.5c0.40399,0.87186 0.89252,1.47054 1.04822,2.4c0.13568,0.80994 0.30627,1.77676 0.57916,2.47467c0.36401,0.93095 0.23956,1.86784 0.51062,2.62533c0.32245,0.90111 1.25452,1.31487 1.62933,2.08533c0.42542,0.87451 0.07074,1.65312 0.28534,2.668c0.18079,0.85477 0.98956,1.44647 1,2.248c0.01184,0.91325 0,1.80934 0,2.69867c0,0.89999 -0.19489,1.82169 0.00134,2.69867c0.1806,0.80704 0.67841,1.29539 1.00934,2.19066c0.27698,0.74933 0.95953,1.31909 0.98798,2.12801c0.03455,0.98206 0.00134,1.96666 0.00134,2.65733c0,0.94133 0,1.992 0,2.65067c0,1.008 0,1.87016 0,2.77467c0,0.89999 0,1.79999 0,2.7c0,0.89999 0,1.80016 0,2.58533c0,0.94 0,1.948 0,2.74001c0,0.85733 -0.21204,1.7426 0.22137,2.59616c0.34503,0.67957 0.77637,1.47849 0.77863,2.37851c0.00226,0.92082 0,1.88533 0,2.61066c0,0.98933 0,1.78934 0,2.78934c0,0.77867 0,1.75717 0,2.61067c0,0.88933 -0.08173,1.79343 0.00452,2.69383c0.08362,0.87329 0.578,1.66705 0.82886,2.52882c0.24518,0.84233 0.16663,1.76668 0.16663,2.64584c0,0.96382 0,1.74216 0,2.72066c0,0.77934 0,1.77867 0,2.59883c0,0.90134 0,1.80135 0,2.70134c0,0.89999 0,1.7955 0,2.66667c0,0.93333 0,1.83333 0,2.5905c0,0.89549 0,1.75883 0,2.722c0,0.92082 0,1.82083 0,2.72083c0,0.90001 0,1.8 0,2.55717c0,0.89549 0,1.75883 0,2.74283c0,0.82133 0,1.67467 0,2.61467c0,0.98534 0,1.88533 0,2.68533c0,0.84283 -0.18066,1.74156 0.02087,2.7c0.17822,0.84755 0.89417,1.4874 0.97778,2.3c0.09802,0.95213 -0.008,1.85271 0.00134,2.716c0.01044,0.96333 0.44299,1.74097 0.716,2.36932c0.3833,0.88219 0.284,1.94534 0.284,2.72534c0,0.91016 0,1.87332 0,2.564c0,1.06816 0,1.92534 0,2.82533c0,0.8 0,1.75717 0,2.64816c0,0.7825 0,1.79466 0,2.53717c0,1.0575 -0.18323,1.96893 0.16669,2.81467c0.32465,0.78462 0.82288,1.49982 0.83331,2.38933c0.0105,0.89728 0,1.77734 0,2.58984c0,1 0,1.7825 0,2.67349c0,0.86334 0,1.84734 0,2.83133c0,0.69067 0,1.75883 0,2.61601c0,0.89999 0,1.7 0,2.59999c0,0.90001 -0.00226,1.8 0,2.7c0.00226,0.89552 0.67139,1.40648 0.97919,2.12083c0.38751,0.89946 0.02081,1.78368 0.02081,2.80049c0,0.67868 0,1.65701 0,2.62601c0,0.854 0,1.75269 0,2.65268c0,0.81067 0,1.72131 0,2.57465c0,0.94135 0,1.70935 0,2.65067c0,1.00803 0,1.81302 0,2.69553c0,0.97916 0,1.78366 0,2.80048c0,0.67868 0,1.65717 0,2.67868c0,0.79999 0,1.70001 0,2.60001c0,0.87915 0,1.75717 0,2.69998c0,0.90002 0,1.80002 0,2.70001c0,0.79999 0,1.70001 0,2.60001c0,0.89999 0,1.79999 0,2.6955c0,0.87115 0,1.8045 0,2.7045c0,0.79999 0,1.70001 0,2.60001c0,0.89999 0,1.79999 0,2.69998c0,0.90002 -0.07867,1.8035 0,2.64734c0.08368,0.89767 0.77368,1.32272 1.22137,2.15268c0.3493,0.64764 0.77081,1.46396 0.77863,2.39999c0.00714,0.85263 1.08875,1.38016 0.93835,2.14734c-0.15131,0.77197 -0.89984,1.32822 -0.93835,2.15399c-0.04272,0.91632 -0.80151,1.18002 -1.70001,1.19867c-0.90051,0.01868 -1.61029,0.61804 -2.5,0.91467c-0.85742,0.28589 -1.56354,0.39648 -2.15265,1.03265c-0.53302,0.57559 -1.27777,0.88425 -2.14734,1.07352c-0.84625,0.18417 -1.74335,0.63443 -2.37866,1.2005c-0.60101,0.53546 -1.24536,0.97171 -1.82135,1.48315c-0.73224,0.65021 -1.49695,1.25278 -2.39996,1.2955c-0.89905,0.04251 -1.70001,0 -2.60004,0c-0.89996,0 -1.69391,0.10211 -2.29547,0.64734c-0.46881,0.42493 -1.4516,0.25864 -2.3045,0.70532c-0.75226,0.39395 -1.45715,0.64508 -2.35266,0.64734c-0.86334,0.00217 -1.82648,0 -2.74731,0c-0.90002,0 -1.79871,0 -2.68402,0c-0.91602,0 -1.716,0 -2.61603,0c-0.89996,0 -1.79999,0 -2.68933,0c-0.96783,0 -1.81445,0.08212 -2.71063,-0.00015c-0.91144,-0.08368 -1.48737,-0.81738 -2.336,-0.99985c-0.84033,-0.18069 -1.50525,-0.57733 -2.17468,-1.02533c-0.73541,-0.49213 -1.60724,-0.67285 -2.30536,-1.25867c-0.65735,-0.55164 -1.07355,-1.23666 -1.08398,-2.116c-0.01068,-0.89993 0,-1.80002 0,-2.69983c0,-0.90018 0.44977,-1.4455 0.91467,-2.18552c0.48804,-0.77686 0.44696,-1.47592 1.18518,-1.93616c0.71716,-0.44708 0.96161,-1.40677 1.70148,-1.86252c0.77216,-0.47565 1.11365,-1.26108 1.62402,-1.89066c0.48071,-0.59299 0.57465,-1.46133 0.57465,-2.32083c0,-0.92599 0,-1.8045 0,-2.7045c0,-0.79999 0,-1.70001 0,-2.60001c0,-0.89999 0,-1.79999 0,-2.69998c0,-0.90002 0.24426,-1.93216 -0.284,-2.61603c-0.48468,-0.62747 -0.66168,-1.38568 -0.71735,-2.28531c-0.0426,-0.68784 -0.42816,-1.63779 -0.79999,-2.40002c-0.39056,-0.80066 -0.88751,-1.52551 -1.11334,-2.51331c-0.19824,-0.86707 -0.44202,-1.49762 -1.00134,-2.17068c-0.55615,-0.66925 -0.82941,-1.44562 -1.28265,-2.19867c-0.40289,-0.66943 -0.77271,-1.75739 -0.80133,-2.61615c-0.02612,-0.78476 0.14941,-1.7634 -0.16663,-2.73318c-0.22516,-0.69101 -0.66974,-1.5137 -1.05469,-2.26666c-0.39014,-0.76318 -0.59271,-1.62686 -0.8147,-2.5c-0.21918,-0.86224 -0.90308,-1.49387 -0.96399,-2.39999c-0.05365,-0.79819 0.18372,-1.7265 -0.03601,-2.60001c-0.21704,-0.86279 -0.92126,-1.59698 -0.96399,-2.49982c-0.04254,-0.89917 0,-1.70151 0,-2.60019c0,-0.89999 0,-1.79999 0,-2.69998c0,-0.90001 0,-1.8 0,-2.70001c0,-0.89999 0,-1.7 0,-2.61465c0,-0.89601 0,-1.78534 0,-2.68533c0,-0.90001 0,-1.8 0,-2.70001c0,-0.89999 0,-1.7 0,-2.59999c0,-0.90001 0,-1.77917 0,-2.73601c0,-0.864 0,-1.76399 0,-2.664c0,-0.89999 0,-1.7 0,-2.59999c0,-0.90001 0,-1.8 0,-2.68933c0,-0.89467 0,-1.83217 0,-2.71068c0,-0.89999 0,-1.7 0,-2.59999l0,-0.90001" id="svg_17" stroke-width="2" stroke="#000" fill="none"/>
  <path t="93886,93950,93958,93966,93966,93974,93982,93982,93990,93998,93998,94006,94006,94014,94014,94023,94023,94030,94040,94040,94046,94046,94054,94062,94070,94070,94078,94078,94086,94086,94094,94102,94102,94110,94118,94118,94126,94126,94134,94134,94134,94142,94150,94150,94158,94158,94166,94166,94174,94174,94182,94182,94190,94190,94198,94198,94198,94206,94206,94214,94214,94214,94223,94223,94223,94230,94230,94240,94246,94246,94254,94262,94262,94270,94270,94278,94278,94286,94294,94302,94302,94310,94318,94326,94334,94334,94342,94350,94358,94382,94406,94430,94440,94440,94446,94470,94478,94486,94494,94502,94510,94534,94534,94542,94550,94558,94566,94566,94574,94582,94590,94606,94614,94638,94662,94670,94686,94686,94702,94702,94718,94718,94726,94726,94734,94742,94742,94758,94774,94790,94798,94814,94814,94830,94840,94846,94855,94870,94926,94942,94974,94990,94998,95014,95031,95070,95086,95102,95110,95118,95118,95136,95262,95278,95294,95302,95318,95318,95422,95430,95454,95518,95550,95574,95598,95598,95608,95638,95662,95678,95678,95688,95702,95710,95726,95742,95750,95758,95766,95766,95775,95791,95798,95798,95807,95814,95830,95840,95840,95862,95878,95894,95902,95902,95910,95910,95918,95934,95942,95950,95966,95982,95998,95998,96008,96008,96014,96014,96024,96030,96038,96047,96047,96054,96063,96071,96094,96110,96118,96126,96142,96150,96158,96158,96163,96175,96182,96191,96208,96208,96223,96223,96238,96246,96262,96286,96304,96311,96318,96318,96326,96326,96334,96350,96358,96358,96366,96374,96374,96382,96398,96414,96424,96446,96479,96488,96505,96505,96511,96535,96655,96695,96703,96727,96735,96743,96767" d="m542.01135,238.09091c0,1.8 0,2.636 0,3.48399c0,0.86334 0,1.89067 0,2.83734c0,0.67867 0,1.65717 0,2.67867c0,0.75717 0,1.65717 0,2.4045c0,0.9955 0,1.7955 0,2.79533c0,0.77934 0,1.77867 0,2.80017c0,0.75717 0,1.65268 0,2.51599c0,0.96317 0,1.78851 0,2.80533c0,0.67868 0,1.65735 0,2.56268c0,0.94131 0,1.63199 0,2.616c0,0.98267 0,1.79016 0,2.78665c0,0.88 0,1.71335 0,2.69217c0,0.68253 0,1.78918 0,2.52118c0,0.73199 0,1.83865 0,2.8215c0,0.69934 0,1.6785 0,2.46783c0,1.04401 0,1.836 0,2.69598c0,0.91919 0,1.91467 0,2.71469c0,1 0,1.79999 0,2.79999c0,0.79999 0,1.60001 0,2.60449c0,0.6315 0,1.81683 0,2.62085c0,0.82199 0,1.85315 0,2.53867c0,0.83466 0,1.83148 0,2.75067c0,0.85999 0,1.80664 0,2.65997c0,0.94 0,1.82535 0,2.71069c0,0.95065 0,1.71597 0,2.71014c0,0.74734 -0.07025,1.77158 0.00134,2.60583c0.08374,0.9758 0.57336,1.55515 0.8772,2.55585c0.25049,0.82489 0.12146,1.76367 0.12146,2.56415c0,0.85333 -0.1358,1.80276 0.00018,2.7785c0.11176,0.80188 0.97125,1.25589 0.99982,2.10019c0.03046,0.89948 0,1.79999 0,2.59998c0,0.90002 0.39819,1.90259 -0.03601,2.76401c-0.35229,0.69888 -1.06775,1.22592 -1.46399,1.936c-0.48877,0.87595 -0.7196,1.72336 -1.20447,2.2045c-0.69281,0.68753 -1.50018,1.17056 -2.39551,1.29565c-0.90649,0.12665 -1.48755,0.60043 -2.29999,0.97452c-0.88293,0.40656 -1.71118,0.63208 -2.43335,1.19199c-0.64081,0.4968 -1.54559,0.44168 -2.08136,1.11868c-0.50824,0.64221 -0.52234,1.64359 -1.27063,1.70398c-0.92773,0.07486 -1.70209,0.08652 -2.6507,0.436c-0.76819,0.28302 -1.77209,0.45462 -2.50684,0.62735c-0.92346,0.2171 -1.64453,0.8623 -2.45715,0.94598c-0.90985,0.09369 -1.82941,0.0015 -2.59998,0.42667c-0.82172,0.4534 -1.65088,0.87552 -2.30005,1.22202c-0.84937,0.45331 -1.85199,0.06354 -2.68933,0.36331c-0.73676,0.26373 -1.24133,0.82007 -2.11066,1.01019c-0.84198,0.18414 -1.49982,0.96872 -2.30133,0.97916c-0.89859,0.01169 -1.79865,0 -2.69867,0c-0.89999,0 -1.79999,0 -2.69998,0c-0.89999,0 -1.80002,0 -2.60001,0c-0.91467,0 -1.20062,-0.62912 -1.62534,-1.39999c-0.45255,-0.82138 -0.57468,-1.70001 -0.57468,-2.60001c0,-0.79999 0,-1.70001 0,-2.60001c0,-0.89999 0.00064,-1.78934 0,-2.68533c-0.00067,-0.91467 -0.30081,-1.7655 -0.64731,-2.41467c-0.45334,-0.84937 -0.29205,-1.83887 -0.70535,-2.59998c-0.40521,-0.74622 -0.64667,-1.5 -0.64734,-2.40002c-0.00067,-0.89999 0,-1.86398 0,-2.73599c0,-0.86398 0,-1.76401 0,-2.664c0,-0.89999 -0.01022,-1.7547 -0.61066,-2.5c-0.52704,-0.65421 -1.30142,-1.38632 -1.38483,-2.10001c-0.10446,-0.89392 0.07202,-1.90265 -0.35718,-2.65717c-0.44998,-0.79108 -0.62869,-1.44299 -0.64734,-2.34283c-0.01868,-0.90051 -0.57352,-1.65094 -0.87848,-2.62131c-0.20572,-0.65454 -0.12152,-1.6572 -0.12152,-2.47736c0,-0.90134 0,-1.80133 0,-2.70132c0,-0.89999 0.07571,-1.80328 -0.00131,-2.70132c-0.08368,-0.9758 -0.52151,-1.58984 -0.832,-2.63202c-0.23047,-0.77362 -0.16669,-1.65067 -0.16669,-2.51398c0,-0.89102 0,-1.82202 0,-2.67352c0,-0.95767 0,-1.77783 0,-2.67917c0,-0.89999 0,-1.79999 0,-2.69998c0,-0.89999 0,-1.80002 0,-2.69983c0,-0.8855 0,-1.76151 0,-2.73352c0,-0.75598 0,-1.64581 0,-2.60266c0,-0.86398 0,-1.76532 0,-2.73065c0,-0.65869 0,-1.66669 0,-2.52884c0,-0.90451 0,-1.8045 0,-2.7045c0,-0.89999 0,-1.80002 0,-2.70001c0,-0.89999 0,-1.65717 0,-2.55267c0,-0.86331 0,-1.80566 0,-2.70898c0,-0.95966 0,-1.81302 0,-2.75299c0,-0.88535 0,-1.68533 0,-2.58534c0,-0.90001 0,-1.8 0,-2.7c0,-0.89551 0,-1.8215 0,-2.70001c0,-0.89999 0,-1.7 0,-2.59999c0,-0.90001 0,-1.8 0,-2.7c0,-0.90001 0,-1.8 -0.00015,-2.69984l-0.28384,-0.81483l-0.716,-0.252" id="svg_18" stroke-width="2" stroke="#000" fill="none"/>
  <path t="97672,97823,97840,97847,97871,97871,97879,97883,97891,97911,97921,97937,98079,98095,98103,98143,98183,98183,98199,98271,98295" d="m492.01135,240.09091c-1.69998,0 -2.59998,0 -3.52081,0c-0.96317,0 -1.65384,0 -2.72202,0c-0.95581,0 -1.79315,0 -2.75717,0c-0.83331,0 -1.61066,0 -2.59998,0c-0.90002,0 -1.70654,0.10696 -2.60001,-0.00133c-0.91977,-0.11148 -1.60001,-0.71468 -2.39999,-0.98801l-0.90002,-0.03149l-0.79547,-0.33633" id="svg_19" stroke-width="2" stroke="#000" fill="none"/>
  <path t="101328,101415,101423,101423,101433,101439,101449,101463,101463,101471,101479,101479,101487,101495,101503,101511,101511,101519,101519,101527,101535,101535,101543,101543,101551,101551,101559,101567,101567,101575,101583,101583,101591,101599,101599,101607,101607,101616,101623,101623,101632,101632,101632,101639,101649,101649,101655,101663,101671,101671,101679,101679,101687,101695,101704,101704,101711,101719,101719,101727,101735,101736,101736,101743,101743,101751,101751,101759,101759,101768,101769,101775,101775,101786,101791,101791,101799,101807,101807,101823,101823,101832,101832,101839,101839,101849,101855,101855,101863,101863,101887,101895,101895,101903,101903,101911,101918,101926,101934,101951,101951,101966,101974,101974,101984,101990,101998,102006,102014,102022,102031,102038,102038,102069,102086,102094,102102,102118,102134,102134,102142,102150" d="m609.01135,123.09091c1.83337,0.16666 1.83185,1.03644 2.08533,1.8c0.25635,0.77217 0.76746,1.61499 1,2.36934c0.28455,0.92301 0.63275,1.43287 0.88934,2.60934c0.1936,0.88766 0.97968,1.13286 1.58936,1.832c0.58154,0.66692 0.38159,1.69106 0.43732,2.59067c0.0426,0.68781 0.46503,1.60814 0.71466,2.31467c0.34119,0.96565 0.52509,1.79742 0.8587,2.65866c0.36151,0.93326 0.42462,1.70934 0.42529,2.65067c0.00049,0.69067 0,1.67467 0,2.65866c0,0.86334 0,1.75883 0,2.71735c0,0.68399 0,1.62399 0,2.63199c0,0.79201 0,1.81934 0,2.51401c0,1.02733 -0.04108,1.97661 0.02087,2.67349c0.08771,0.98608 0.44855,1.75237 0.69513,2.49384c0.32184,0.96776 0.284,1.96933 0.284,2.66c0,1.06816 0,1.92534 0,2.82533c0,0.75717 0,1.82533 0,2.51601c0,0.96317 0,1.89465 0,2.80533c0,0.85333 0,1.79333 0,2.67867c0,0.8 0,1.672 0,2.76933c0,0.7515 0,1.548 0,2.54533c0,0.87466 0,1.88516 0,2.66451c0,0.9995 0,1.7735 0,2.67799c0,0.74733 0,1.7415 0,2.50684c0,1.07883 0,1.93616 0,2.72133c0,0.94 0,1.948 0,2.75301c0,0.93233 0,1.77066 0,2.76033c0,0.76534 0,1.71733 0,2.48534c0,0.94133 0,1.94933 0,2.74133c0,0.85733 0,1.66483 0,2.73633c0,0.95967 0,1.63834 0,2.61684c0,0.82016 0,1.7215 0,2.62151c0,0.89999 0,1.81065 0,2.72116c0,0.8175 0,1.8455 0,2.67883c0,0.8 0,1.7 0,2.60001c0,0.96399 0,1.836 0,2.7c0,0.89999 0,1.8 0,2.7c0,0.8 0,1.83333 0,2.61067c0,0.88933 -0.09399,1.83643 0.35266,2.68933c0.39398,0.75224 0.646,1.5 0.64734,2.39999l0,0.90001" id="svg_20" stroke-width="2" stroke="#000" fill="none"/>
  <path t="103856,103982,103990,103998,103999,104006,104022,104031,104031,104038,104055,104056,104063,104070,104087,104096,104096,104103,104112,104135,104142,104158,104174,104183,104206,104222,104230,104238,104262,104294,104294,104526,104534,104543,104558,104566,104574,104582,104583,104590,104606,104622,104646,104686,104694,104758,104767,104791,104798,104798,104822,104830,104846,104854,104862,104886,104895,104895,104911,104919,104950,104958,105022,105022,105039,105062,105086,105088" d="m347.01135,158.09091c-1.59998,0.61067 -2.21674,1.42616 -3,1.83333c-0.74384,0.38667 -1.61212,0.59297 -2.00131,1.45201c-0.34821,0.76854 -0.93686,1.1965 -1.64151,1.76733c-0.7305,0.59178 -1.00964,1.25697 -1.4425,2.03133c-0.36298,0.64931 -1.40778,1.1042 -1.79315,2.01601c-0.27652,0.65421 0.2897,1.72256 -0.17868,2.54283c-0.46432,0.81316 -0.94284,1.35716 -0.94284,2.15849c0,0.89867 0,1.79868 0,2.69867c0,0.89999 0,1.8 0,2.7c0,0.90001 -0.00229,1.8 0,2.60001c0.00226,0.79018 0.62619,0.37167 1.2955,-0.15717c0.74094,-0.58543 0.41806,-1.7572 0.87119,-2.47617c0.44431,-0.705 0.74167,-1.38719 1.25867,-2.10535c0.47794,-0.66386 0.99597,-1.32019 1.45334,-2.16116c0.40649,-0.74748 0.90756,-1.36354 1.40533,-1.90149c0.55423,-0.59895 1.11023,-1.13326 1.54932,-1.99867c0.34268,-0.67538 0.93637,-1.30554 1.51935,-1.94733c0.52625,-0.57932 0.6134,-1.37683 1.14731,-2.05267c0.4483,-0.56749 0.28372,-1.52834 0.55719,-2.29016c0.30081,-0.83798 1.00043,-1.52005 1.85883,-1.70984c0.78555,-0.17369 1.08398,-1 1.08398,-1.8c0,-0.89999 0,-1.8 0,-2.7l0,-0.88933" id="svg_21" stroke-width="2" stroke="#000" fill="none"/>
  <path t="105830,105981,105989,106013,106061,106113,106165,106181,106221,106253,106445,106461,106477,106485,106493,106501,106501,106509,106526,106534,106534,106543,106543,106559,106559,106566,106590,106638,106654,106693,106709,106709,106741,106789" d="m342.01135,167.09091c0,1.8 0.00534,2.70001 0,3.564c-0.00534,0.86139 -0.57462,1.43066 -1.52081,1.436c-0.87918,0.00496 -1.77917,0 -2.67917,0c-0.89966,0 -1.2583,0.00568 -0.30002,0c0.90009,-0.00534 1.61182,-0.44234 2.5,-0.83333c0.65765,-0.28951 1.52554,-0.27679 2.07202,-0.74133c0.67795,-0.57629 1.52362,-0.50244 2.17532,-1.13518c0.58618,-0.56914 1.267,-1.36386 1.89133,-1.8795c0.7951,-0.65668 1.48907,-1.15825 1.84052,-1.93149c0.36389,-0.8006 0.01633,-1.77917 -0.20068,-2.57901l-0.57983,-0.61482l-0.89865,-0.28084l-0.89999,-0.0045" id="svg_22" stroke-width="2" stroke="#000" fill="none"/>
  <path t="111759,111845,111854,111854,111854,111861,111861,111861,111870,111870,111870,111878,111878,111878,111886,111886,111894,111894,111894,111902,111903,111903,111910,111910,111919,111919,111919,111926,111926,111934,111942,111942,111942,111950,111950,111953,111958,111958,111958,111965,111974,111974,111974,111982,111982,111990,111990,111998,111998,112006,112006,112014,112014,112022,112030,112030,112038,112045,112045,112054,112070,112070,112086,112086,112094,112102,112103,112110,112119,112119,112126,112126,112135,112135,112142,112150,112158,112158,112165,112165,112174,112174,112181,112181,112190,112190,112198,112206,112206,112214,112222,112222,112230,112230,112244,112244,112246,112246,112254,112262,112270,112270,112278,112278,112286,112302,112302,112303,112310,112319,112319,112326,112335,112342,112350,112366,112381,112390,112638,112646,112654,112654,112654,112662,112662,112662,112662,112669,112670,112670,112677,112677,112677,112693,112694,112694,112694,112695,112695,112696,112702,112702,112702,112702,112710,112710,112710,112710,112718,112718,112719,112726,112726,112735,112735,112742,112742,112742,112751,112752,112752,112758,112758,112766,112766,112766,112774,112774,112774,112782,112782,112790,112790,112797,112797,112806,112806,112806,112814,112814,112814,112822,112822,112822,112829,112829,112838,112838,112845,112861,112862" d="m316.01135,336.09091c-0.57465,-1.672 -0.87555,-2.54333 -0.98532,-3.26132c-0.12094,-0.79108 -0.41971,-1.84174 -0.87601,-2.50269c-0.45428,-0.65802 -1.1853,-1.39984 -1.59698,-2.25684c-0.3082,-0.64157 -0.47879,-1.66168 -0.52084,-2.47916c-0.04193,-0.81516 0.03967,-1.81931 -0.05682,-2.68933c-0.11331,-1.02142 -0.44431,-1.60495 -0.67999,-2.496c-0.26038,-0.98438 -0.27185,-1.81451 -0.28268,-2.63068c-0.01324,-0.99857 0.03979,-1.89056 -0.22266,-2.884c-0.21637,-0.81903 -0.57663,-1.3848 -0.7215,-2.39548c-0.13065,-0.91156 -0.01819,-1.79938 -0.22385,-2.73785c-0.15018,-0.68533 -0.4603,-1.44046 -0.66666,-2.5c-0.17563,-0.90173 -0.16669,-1.83331 -0.16669,-2.83081c0,-0.62253 0.07639,-1.5726 -0.00449,-2.526c-0.08368,-0.98633 -0.47324,-1.62796 -0.71149,-2.41119c-0.29834,-0.98074 -0.26968,-1.81656 -0.56802,-2.79733c-0.23825,-0.7832 -0.66888,-1.71527 -0.71149,-2.41116c-0.05856,-0.95639 0.1181,-1.71722 -0.17117,-2.85681c-0.17471,-0.68829 -0.79062,-1.53033 -0.83334,-2.4335c-0.03711,-0.7843 0.02396,-1.72546 0,-2.73318c-0.01801,-0.75662 -0.55164,-1.52176 -0.83331,-2.33331c-0.2774,-0.79922 0.00137,-1.84735 -0.25201,-2.63202c-0.25592,-0.79245 -0.86267,-1.68253 -0.90399,-2.37601c-0.05594,-0.93835 -0.01068,-1.92548 -0.01068,-2.71066c0,-0.95065 0,-1.716 0,-2.71014c0,-0.74734 0,-1.76852 0,-2.70901c0,-0.86215 0,-1.71634 0,-2.6955c0,-0.78934 0,-1.83334 0,-2.62534c0,-0.85999 0,-1.58533 0,-2.57434c0,-0.92831 -0.01593,-1.86121 -0.43597,-2.66165c-0.34891,-0.66489 -1.12357,-1.41452 -1.4425,-2.23883c-0.28665,-0.74081 -0.12152,-1.73584 -0.12152,-2.50117c0,-0.99867 0,-1.79866 0,-2.79601c0,-0.88834 0,-1.77066 0,-2.62349c0,-0.95784 0,-1.73184 0,-2.63184c0,-0.86334 0,-1.86816 0,-2.89c0,-0.70801 0,-1.45201 0,-2.48666c0,-0.97067 0,-1.77068 0,-2.67067c0,-0.90001 0,-1.8 0,-2.7c0,-0.90001 0,-1.8 0,-2.70001c0,-0.89999 0,-1.40666 0,-0.56667c0,0.93867 0,1.77567 0,2.66667c0,0.89999 0,1.8 0,2.39999c0,1.20001 0,2.10001 0,2.70001c0,1.2 0,2.09999 0,2.7c0,1.2 0,2.09999 0,2.7c0,0.89999 0.00949,2.10027 -0.01065,2.7c-0.03027,0.9007 -0.19733,2.10338 -0.3465,2.7045c-0.23254,0.93697 -0.45334,1.57825 -0.74268,2.61667c-0.20206,0.72525 -0.4032,1.45293 -0.61484,2.50951c-0.18475,0.92239 -0.2738,1.92746 -0.284,2.56665c-0.01596,1.00256 -0.00134,1.80267 -0.00134,2.80402c0,0.83466 0,1.76532 0,2.55133c0,0.82199 0,1.88068 0,2.81134c0,0.83466 0,1.84048 0,2.69315c0,0.96417 0,1.76819 0,2.59018c0,1.03116 0,1.71667 0,2.55133c0,1.00134 0.021,1.80157 -0.00131,2.80133c-0.01785,0.80057 -0.2254,1.79816 -0.49869,2.60001c-0.34006,0.99774 -0.47855,1.81012 -0.49548,2.45715c-0.03214,1.22775 -0.00452,1.77884 -0.00452,2.64734c0,1.19516 0,2.07419 0,2.88116c0,0.87152 0,1.76251 0,2.66702c0,0.86331 0,1.84732 0,2.66864l0,0.85333" id="svg_23" stroke-width="20" stroke="#fff" fill="none"/>
  <path t="122735,123102,123118,123326,123342,123342,123373,123485,123493,123501,123509,123525,123565,123629,123639,123662,123669,123670,123693,123709,123717,123733,123749,123765,123789,123797,123813,123822,123829,123846,123855,123862,123869,123869,123877,123893,123909,123933,123933,123941,123962,123965,123973,123998,124013,124029,124029,124046,124055,124062,124069,124077,124085,124101,124109,124117,124133,124149,124165,124181,124181,124205,124229,124245,124261,124269,124285,124285,124301,124317,124325,124341,124357,124365,124381,124397,124413,124430,124430,124438,124455,124462,124462,124471,124494,124533,124557,124573,124581,124597,124613,124630,124638,124646,124646,124669,124685,124701,124710,124717,124717,124725,124733,124741,124757,124765,124766,124773,124773,124789,124805,124821,124829,124837,124846,124854,124862,124877,124885,124901,124925,124949,124957,124973,124989,124993,125037,125054,125054,125077,125087,125118,125134,125174,125214,125253,125254,125270,125317,125373,125405,125445,125485,125517,125525,125589,125637,125661,125693,125717,125797,125821,125853,125877,125878,125893,125903,125925,125934" d="m313.01135,341.09091c-0.16666,-0.83334 -0.95728,-1.28198 -1,-2.10001c-0.04697,-0.89877 0,-1.69998 0,-2.60001c0,-0.89999 0.3667,-1.8797 -0.02081,-2.77914c-0.30777,-0.71436 -0.96582,-1.22543 -0.97919,-2.16367c-0.01251,-0.87817 -0.54318,-1.56049 -0.87848,-2.45718c-0.31808,-0.85065 -0.10278,-1.70016 -0.12152,-2.60001c-0.01801,-0.86453 -0.54898,-1.51437 -1.16666,-2.13333c-0.61734,-0.61862 -0.83334,-1.36667 -0.83334,-2.26648c0,-0.8475 0,-1.70151 0,-2.60019c0,-0.89999 0.28229,-1.84955 -0.01065,-2.68933c-0.26312,-0.75433 -0.9595,-1.31906 -0.98801,-2.12799c-0.03387,-0.96121 0.09412,-1.92719 -0.28534,-2.68268c-0.43558,-0.86719 -0.35101,-1.71097 -0.77316,-2.44281c-0.46786,-0.81113 -0.94284,-1.36786 -0.94284,-2.15851c0,-0.89868 0.01184,-1.85013 -0.284,-2.68268c-0.25092,-0.70609 -0.67068,-1.62799 -0.716,-2.61581c-0.03885,-0.84662 -0.41147,-1.47565 -0.97464,-2.28952c-0.45837,-0.66241 -1.02002,-1.22125 -1.02536,-2.11066c-0.0054,-0.89996 0,-1.79999 0,-2.70001c0,-0.89999 0,-1.79999 0,-2.59998c0,-0.91467 0,-1.81067 0,-2.70001c0,-0.89999 0.13657,-1.85663 -0.284,-2.70001c-0.32993,-0.66162 -0.53,-1.52686 -0.75198,-2.39999c-0.21921,-0.86227 -0.9213,-1.59698 -0.96402,-2.49982c-0.04007,-0.84656 0,-1.70151 0,-2.60019c0,-0.82083 0,-1.784 0,-2.64731c0,-0.89551 0.05438,-1.85434 -0.00015,-2.75269c-0.04272,-0.70386 -0.74805,-1.43607 -0.96384,-2.28934c-0.23746,-0.93893 -0.03601,-1.81067 -0.03601,-2.71066c0,-0.89999 -0.48312,-1.50717 -0.91464,-2.18533c-0.49316,-0.77505 -0.08536,-1.81467 -0.08536,-2.71466c0,-0.79999 0.18375,-1.7265 -0.03598,-2.60001c-0.21704,-0.86282 -0.9213,-1.59659 -0.96402,-2.39999c-0.04251,-0.79886 -0.05716,-1.70001 -0.5,-2.5c-0.44281,-0.79999 -0.5,-1.70134 -0.5,-2.66667c0,-0.83333 0.41016,-1.81441 -0.08533,-2.54666c-0.45184,-0.66776 -1.65588,-0.83028 -1.87866,-1.68666c-0.22678,-0.87172 0.10132,-1.88112 -0.38867,-2.54733c-0.50323,-0.68422 -0.64734,-1.45267 -0.64734,-2.35268c0,-0.89999 0,-1.8 0,-2.7c0,-0.87866 0,-1.7045 0,-2.60001c0,-0.89999 0.11716,-1.7972 -0.00131,-2.68533c-0.11157,-0.83644 -0.84485,-1.48146 -0.98801,-2.31467c-0.16327,-0.95012 -0.01068,-1.836 -0.01068,-2.78932c0,-0.89601 0,-1.71068 0,-2.61067c0,-0.8 0,-1.7 0,-2.60001c0,-0.89999 0,-1.79999 0,-2.7c0,-0.89999 0,-1.79984 0,-2.72533c0,-0.776 0,-1.67467 0,-2.57468c0,-0.89999 0,-1.79999 0,-2.7c0,-0.89999 0,-1.8 0,-2.7c0,-0.8 0,-1.7 -0.05716,-2.64284l-0.82132,-0.35733l-0.17868,-0.70433" id="svg_25" stroke-width="2" stroke="#000" fill="none"/>
 </g>
 <g display="none">
  <title>muse_image</title>
  <image xlink:href="http://farm1.static.flickr.com/49/170299685_7d3150eac0.jpg" id="muse" height="426" width="640" y="27" x="0"/>
 </g>
 <g display="none">
  <title>bbox</title>
  <rect stroke="#f00" fill="none" stroke-width="3" height="408.09009" width="328.96" y="27" x="229.12" id="bbox"/>
 </g>
</svg>
