<svg width="640" height="480" xmlns="http://www.w3.org/2000/svg" xmlns:svg="http://www.w3.org/2000/svg" xmlns:xlink="http://www.w3.org/1999/xlink">
 <!-- Sketchy ANNOTATION
  ImageNet ID: n02503517_10558
  URL: http://farm1.static.flickr.com/74/197941804_520419630f.jpg
  Image Width: 500
  Image Height: 375
  BBox X: 161
  BBox Y: 80
  BBox Width: 242
  BBox Height: 202
  Exposure: 2000ms
  Synset Label: elephant
  Synset ID: n02503517
  Worker Tag: African elephant with long tusks
  Sanity Check: 
   Context
   Saved
   Shading
  Comment: 
   {}
  Worker ID: A2HM35CWB7IIFM
  Assignment ID: 3FPRZHYEPY7HMEU1EG97CP0J1VK3VP
  HIT ID: 32TMVRKDGNY26EJYGZYE5WDW3K148R
  Work Time: 91s
  Worker Score: 0.9286
 END ANNOTATION -->
 <g display="inline">
  <title>Layer 1</title>
  <path t="0,169,170,170,170,170,170,170,181,181,181,181,181,193,193,193,211,211,211,219,220,220,231,231,232,245,245,245,245,245,261,262,262,262,268,268,268,268,280,281,294,294,294,311,311,329,343,366,379,379,393,410,410,415,415,427,427,428,443,443,443,452,452,453,453,464,465,477,477,494,494,502,503,514,514,527,545,545,545,552,552,563,563,578,578,578,595,595,595,595,600,600,601,601,601,613,613,613,613,613,628,629,629,629,629,645,645,645,649,649,661,662,677,686,686,698,699,711,711,727,748" d="m378,139.89999c-0.2215,-6.821 -0.28177,-7.48172 -0.35718,-8.14366c-0.07526,-0.66074 -0.25064,-1.95943 -0.34732,-2.58932c-0.09406,-0.61276 -0.38953,-2.30344 -0.49683,-2.80834c-0.19803,-0.9318 -0.39551,-1.76924 -0.68402,-2.48399c-0.38504,-0.95393 -0.92834,-1.72246 -1.51917,-2.36567c-0.76743,-0.83551 -1.17822,-1.22329 -1.7955,-1.773c-0.77896,-0.6937 -1.58868,-1.24558 -2.25714,-1.47433c-0.94046,-0.32183 -1.79071,-0.32357 -2.7045,-0.41433c-1.0065,-0.09996 -1.72552,-0.22379 -2.47433,-0.38333c-0.7767,-0.16548 -1.56491,-0.3671 -2.76385,-0.66383c-0.79538,-0.19685 -1.57632,-0.39394 -2.34299,-0.543c-1.08667,-0.21128 -2.09589,-0.30042 -2.71552,-0.35717c-0.85553,-0.07836 -2.08383,-0.36909 -2.767,-0.57467c-0.93481,-0.2813 -1.72192,-0.38763 -2.51334,-0.41467c-1.11771,-0.03819 -1.95233,-0.01067 -2.86133,-0.01067c-0.89999,0 -1.81067,0 -2.72131,0c-0.85333,0 -1.79333,0 -2.67868,0c-0.75717,0 -1.66165,0 -2.46167,0c-0.95984,0 -1.77432,0 -2.64282,0c-1.1955,0 -1.7955,0 -2.6955,0c-1.20001,0 -1.79868,0 -2.67917,0c-0.83551,0 -1.84247,-0.08688 -2.67416,0.036c-0.98343,0.1453 -1.71579,0.73739 -2.50385,0.91133c-0.93158,0.20562 -1.76862,0.28046 -2.50684,0.66333c-0.99292,0.51496 -1.50342,1.11924 -2.1405,1.68934c-0.82758,0.74055 -1.53625,1.07449 -2.21149,1.5c-0.74951,0.47234 -1.35965,1.01303 -2.14117,1.50449c-0.73965,0.46513 -1.54843,1.01061 -2.1535,1.5315c-0.65244,0.56167 -1.34775,1.17499 -2.151,1.7685c-0.57422,0.42427 -1.20358,0.84761 -2.20499,1.56216c-0.71994,0.51371 -1.45862,1.05876 -1.83334,1.33334c-0.74722,0.54751 -1.83502,1.331 -2.51468,1.81733c-0.65094,0.46577 -1.29404,0.92162 -1.884,1.45201c-0.93311,0.83891 -1.20456,1.19333 -1.79065,1.87067c-0.57922,0.6694 -1.08572,1.34703 -1.88901,2.09566c-0.6449,0.60101 -1.49231,1.09349 -2.03632,1.74834c-0.53552,0.64462 -1.06921,1.64496 -1.58536,2.2115c-0.66895,0.73427 -1.0257,1.50378 -1.32083,2.28366c-0.31326,0.82785 -1.12848,1.0715 -1.86932,1.72617l-0.1925,0.72667l-0.63333,0.65067l-0.50534,0.79601" id="svg_1" stroke-width="2" stroke="#000" fill="none"/>
  <path t="1343,1475,1476,1489,1489,1505,1505,1505,1505,1512,1512,1513,1513,1513,1530,1530,1530,1530,1539,1539,1540,1548,1548,1548,1563,1563,1579,1579,1585,1586,1587,1598,1598,1611,1611,1628,1628,1628,1635,1635,1635,1646,1646,1661,1661,1677,1677,1677,1683,1684,1696,1711,1727,1733,1745,1746,1746,1760,1760,1760,1760,1770,1771,1771,1771,1771,1771,1782,1782,1783,1783,1794,1794,1794,1794,1811,1811,1820,1820,1820,1831,1844,1861,1861,1869,1880,1894,1894,1910,1910,1911,1917,1917,1918,1929,1930,1930,1944,1944,1944,1960,1961,1961,1967,1967,1967,1978,1978,1979,1979,1994,1994,1994,2010,2010,2011,2016,2016,2028,2028,2044,2045,2045,2053,2053,2053,2053,2065,2066,2066,2066,2078,2078,2078,2094,2094,2103,2103,2115,2115,2127,2128,2144,2144,2151,2151,2164,2177,2193,2194,2201,2201,2201,2212,2212,2227,2228,2244,2244,2244,2251,2251,2262,2263,2278,2278,2337,2338,2353,2353,2369,2369,2386,2421,2473,2500,2517,2531,2531,2534,2535,2545,2546,2561,2571,2571,2581,2582,2595,2612,2632,2645,2661,2669,2680,2695,2696,2712,2712,2712,2718,2730" d="m294,145.89999c0,1.83601 0,2.60133 0,3.60901c0,0.90533 0,2.034 0,2.70534c0,0.72733 0,1.49466 0,2.68565c0,0.8 0,1.60001 0,2.40001c0,0.8 0,1.99966 0,2.791c0,0.76733 0,1.83833 0,2.76616c0,0.78151 0,1.72551 0,2.72684c0,0.81599 0,1.632 0,2.63066c0,0.87468 0,1.88535 0,2.68533c0,1 0,1.8 0,2.60001c0,1 0,1.8 0,2.80133c0,0.83467 0,1.76534 0,2.55133c0,0.82201 0,1.88068 0,2.81134c0,0.6315 0,1.636 0,2.436c0,1 0,1.79999 0,2.79999c0,0.8 0,1.60001 0,2.5955c0,0.91917 0,1.88367 0,2.8045c0,0.89999 -0.00748,1.80136 0,2.76666c0.00534,0.69073 0.0274,1.35692 0.2215,2.4765c0.11771,0.67903 0.29984,1.41922 0.483,2.22301c0.2963,1.30031 0.496,2.21773 0.59549,2.68649c0.20102,0.94711 0.3985,1.89499 0.5,2.36333c0.29544,1.3633 0.50107,2.22112 0.67917,3.04234c0.16891,0.77887 0.36835,1.87349 0.46817,2.88c0.0614,0.61919 0.05847,1.49396 0.33801,2.47632c0.25543,0.89758 0.72919,1.67833 1.104,2.47467c0.33853,0.71927 0.42233,1.80161 0.96783,2.50616c0.57816,0.74673 1.42233,0.82356 2.24283,1.27917c0.78195,0.4342 1.55194,0.81557 2.37067,1.14133c0.76617,0.30486 1.57449,0.25366 2.43201,0.36801c1.20239,0.16032 1.8111,0.30299 2.64017,0.67766c1.07266,0.48474 1.47632,0.91942 2.14648,1.377c0.97867,0.66823 1.83405,0.82535 2.496,0.944c1.00302,0.17979 1.82159,0.41875 2.63068,0.71867c1.01056,0.37462 1.69754,0.71751 2.45334,0.99866c0.86551,0.32196 1.88574,0.59737 2.57999,0.836c0.68732,0.23625 1.63058,0.65192 2.37866,1.18935c0.6853,0.49232 1.4407,1.20952 2.272,1.633c0.5809,0.29593 1.59879,0.50848 2.39999,0.53717c1.00073,0.03583 1.84296,-0.00198 2.76666,0.17116c0.79819,0.14961 1.63489,0.4543 2.83334,0.66667c0.59766,0.10591 1.52203,0.15376 2.15717,0.21933c1.36716,0.14114 2.09375,0.29263 2.82199,0.46817c0.7139,0.17207 1.69766,0.45273 2.5065,0.77916c0.91785,0.37042 1.72556,0.77858 2.4935,1.2c0.86771,0.47615 1.49597,1.03502 2.1875,1.5c0.80649,0.54227 1.69495,0.96548 2.3125,1.5c0.65283,0.56503 1.24783,1.25571 2.17352,1.44284c0.68283,0.13803 1.71133,0.05716 2.65182,0.05716c0.86215,0 1.71634,0 2.6955,0c0.79999,0 1.60001,0 2.60001,0c0.79999,0 1.80438,-0.05457 2.60001,0.03601c1.01053,0.11505 1.80307,0.47835 2.39999,0.76534c1.00528,0.48331 1.57919,0.83871 2.59982,1.07733c0.76801,0.17957 1.79041,0.32425 2.42551,0.73199c0.87668,0.56282 1.56113,1.0432 2.57449,1.26784c0.76718,0.17006 1.77866,0.12149 2.49567,0.12149c0.90451,0 1.8045,0.00226 2.7045,0c0.89551,-0.00224 1.51129,-0.46642 1.95267,-1.30449c0.31924,-0.60619 0.57556,-1.5396 0.73135,-2.29683c0.20755,-1.0087 0.68011,-1.71138 0.85883,-2.64601c0.173,-0.90471 0.05716,-1.75267 0.05716,-2.73116c0,-0.82018 0,-1.72151 0,-2.62151c0,-0.90001 0,-1.8 0,-2.7c0,-0.90001 0,-1.8 0,-2.70001c0,-0.81433 0,-1.76799 0,-2.5l0,-0.73199l-0.02084,-1.22633l-0.26315,-0.74167" id="svg_2" stroke-width="2" stroke="#000" fill="none"/>
  <path t="4149,4333,4335,4351,4351,4351,4362,4362,4368,4368,4379,4379,4396,4396,4396,4412,4413,4413,4417,4417,4417,4418,4430,4430,4430,4430,4445,4446,4446,4462,4462,4462,4467,4467,4467,4479,4479,4494,4504,4514,4514,4515,4527,4527,4527,4545,4545,4545,4545,4552,4552,4552,4552,4563,4563,4563,4564,4564,4577,4577,4577,4577,4594,4594,4601,4613,4613,4627,4644,4644,4650,4650,4661,4662,4677,4677,4693,4699,4711,4711,4712,4726,4727,4727,4736,4736,4748,4748,4772,4773" d="m374,116.9c2.60449,0 3.45715,0 4.42133,0c0.80402,0 1.62607,0.01202 2.65701,-0.00017c0.88019,-0.01041 1.9119,-0.20274 2.547,-0.6105c0.87668,-0.56283 1.5654,-1.02093 2.37466,-1.22267c0.79675,-0.19862 1.68533,-0.16599 2.68668,-0.16666c0.85498,-0.00057 1.47498,-0.00394 2.83466,0.00017c0.73132,0.00221 1.47986,0.00128 2.22601,0.057c1.08847,0.08128 2.09927,0.28594 2.73181,0.46367c0.92551,0.26005 1.82214,0.57489 2.71017,0.87917c0.57562,0.19724 1.64679,0.5935 2.358,0.9c0.90894,0.39172 1.8743,0.79875 2.66733,1.1c0.52432,0.19918 1.63138,0.7178 2.24368,1.07916c0.82755,0.48838 1.76529,0.4231 2.70831,0.6875c0.70425,0.19746 1.28558,0.56155 2.25485,0.93317c0.80713,0.30944 1.67538,0.58309 2.57849,0.73351c0.89874,0.14969 1.83594,0.16014 2.48532,0.16533c1.03632,0.00828 1.77731,-0.0078 2.55634,0.043c0.82147,0.05357 2.13022,0.27229 3.03967,0.52767c0.46521,0.13064 1.38199,0.43861 2.25168,0.78249c1.17398,0.46421 1.81491,0.75448 2.60449,1.12733c0.66183,0.31253 1.6402,0.85749 2.40533,1.16367c0.88211,0.35299 1.78125,0.55019 2.35718,1.06167c0.7435,0.66029 1.47903,1.27608 2.11465,1.6955c0.86975,0.57393 1.15137,1.2907 1.89517,1.89999c0.58514,0.47934 1.55005,0.98167 2.08884,1.5c0.70355,0.67682 1.16245,1.50348 1.20132,2.36667c0.03937,0.87436 0.05444,1.52666 0.284,2.51733c0.19055,0.82231 0.48782,1.6225 0.63068,2.63066c0.12317,0.86917 0.08548,1.88518 0.10617,2.66451l0.2005,0.99933l0.35333,0.61084" id="svg_3" stroke-width="2" stroke="#000" fill="none"/>
  <path t="5552,5723,5734,5735,5735,5750,5750,5766,5766,5773,5773,5773,5789,5789,5789,5789,5795,5795,5795,5795,5795,5809,5809,5809,5809,5809,5826,5826,5827,5827,5827,5831,5832,5832,5832,5844,5844,5844,5860,5861,5869,5869,5881,5881,5894,5894,5894,5910,5910,5910,5910,5918,5919,5919,5919,5919,5919,5919,5929,5930,5930,5930,5930,5930,5930,5945,5945,5945,5945,5945,5946,5961,5961,5962,5962,5962,5968,5968,5968,5968,5979,5980,5980,5980,5995,5995,5995,6011,6011,6011,6011,6011,6017,6017,6017,6017,6017,6018,6028,6028,6028,6028,6028,6044,6044,6044,6061,6062" d="m441,144.89999c1.41068,2.36401 2.17599,2.9854 2.82535,3.41068c0.70108,0.45914 1.39978,1.25885 1.79999,1.76399c0.6604,0.83353 1.52203,1.22963 2.04132,2.15868c0.3497,0.62564 0.30884,1.49371 0.5,2.66666c0.0986,0.60495 0.35297,1.52119 0.53784,2.15718c0.29358,1.01006 0.50592,1.72664 0.68484,2.48949c0.18698,0.79721 0.36087,1.63611 0.48917,2.97467c0.08908,0.92929 0.09344,1.40382 0.11081,2.35333c0.01721,0.94122 0.00903,2.30385 0.01202,2.74001c0.00583,0.84937 0.01367,1.67622 0.08398,2.48399c0.1048,1.2043 0.26547,1.99719 0.41467,2.7805c0.14554,0.76402 0.36163,1.85149 0.44284,2.85468c0.07138,0.88184 0.05661,1.83282 0.05716,2.64532c0.00067,1.00616 -0.0376,1.74817 0.22134,2.72084c0.21793,0.81862 0.64865,1.79453 0.7215,2.409c0.10678,0.90056 0.05215,2.03438 0.06165,2.71432c0.01059,0.76012 0.03198,1.60176 0.16217,3.01001c0.04721,0.51057 0.18604,1.58549 0.25867,2.14934c0.07471,0.57982 0.22775,1.78288 0.29068,2.40532c0.12915,1.27753 0.17361,1.93268 0.22684,3.26018c0.02673,0.66629 0.03827,1.33096 0.04648,1.99049c0.00812,0.65149 0.01068,2.528 0.01068,3.11816c0,1.12434 0,1.66051 0,2.68584c0,0.49117 0,1.89067 0,2.772c0,0.84933 0,1.67467 0,2.48399c0,1.20117 0,1.99684 0,2.7805c0,0.76367 0,1.85417 0,2.53551c0,0.96449 0,1.884 0,2.78549c0,0.91051 0,1.53584 0,2.8665c0,0.72133 0,1.49066 0,2.31601c0,0.88933 0,1.85066 0,2.88533c0,0.53732 0,1.63199 0,2.18134c0,1.08266 0,2.11732 0,3.07866c0,0.88933 0,1.71468 0,2.48401c0,1.06616 0,2.03065 0,2.86916l0,0.87584l0,0.94034" id="svg_4" stroke-width="2" stroke="#000" fill="none"/>
  <path t="9403,9587,9587,9604,9604,9612,9612,9633,9633,9636,9636,9636,9647,9647,9648,9648,9648,9661,9661,9662,9662,9679,9679,9679,9679,9685,9685,9685,9685,9697,9697,9709,9709,9710,9726,9726,9726,9734,9735,9735,9745,9745,9746,9746,9760,9760,9760,9760,9779,9779,9779,9783,9783,9783,9795,9795,9810,9810,9810,9826,9831,9832,9844,9844,9844,9860,9860,9860,9860,9860,9869,9869,9869,9869,9869,9870,9881,9881,9881,9881,9881,9881,9881,9894,9894,9894,9894,9910,9910,9910,9910,9919,9931,9931,9943,9943,9960,9960,9968,9968,9979,9979,9993,9993,9994,9994,10010,10010,10017,10017,10029,10029,10030,10030,10043,10043,10060,10060,10066,10066,10078,10078,10095,10095,10103,10103,10103,10115,10115,10115,10127,10127,10128,10128,10128,10144,10144,10144,10153,10153,10153,10164,10165,10165,10177,10178,10178,10194,10194,10194,10203,10203,10213,10411,10426,10442,10443,10449,10449,10460,10460,10522,10536,10551,10572,10588,10596,10610,10611,10620,10632,10670,10681,10681,10693,10718,10719,10731,10731,10745,10745,10759,10780,10780,10780,10804,10804,10829,10829,10848,10848,10868,10879,10879,10879,10893,10910,10910,10915,10916,10928,10943,10953,10977,10977,11001,11025,11047,11047,11048,11052,11070,11070,11079,11079,11093,11094,11100,11100,11112,11112,11112,11126,11126,11127,11143,11144,11150,11161,11161,11177,11177,11193,11198,11210,11227,11236,11236,11248,11248,11248,11261,11261,11276,11276,11285,11286,11296,11296,11297,11310,11310,11327,11334,11346,11360,11377,11378,11383,11395,11410,11426,11426,11427,11432,11433,11433,11433,11444,11445,11445,11460,11460,11470,11470,11470,11482,11494,11494,11511,11511,11530,11543,11561,11562,11568,11568,11580,11593,11593,11610,11610,11617,11618,11628,11629,11643,11660,11667,11667,11691,11703,11729,11765,11790,11791,11816,11841,11841,11852,11852,11863,12037,12098,12122,12135,12147,12147,12160,12178,12184,12195,12195,12195,12211,12211,12211,12226,12226,12227,12232,12232,12233,12244,12245,12245,12259,12269" d="m399,220.89999c3.53833,0.0045 4.39133,-0.07118 5.24734,0.35718c0.69421,0.34738 1.42078,0.91714 2.09998,1.34283c0.91763,0.5751 1.48434,1.25493 1.854,2.07199c0.35147,0.77682 0.54221,1.39986 0.96533,2.39467c0.3075,0.72295 0.66492,1.46655 1.008,2.244c0.34769,0.7879 0.81494,1.98557 1.06818,2.78484c0.24722,0.78029 0.44449,1.54965 0.75717,2.63783c0.1962,0.68283 0.37875,1.34317 0.75717,2.26216c0.37805,0.91808 0.88409,1.80264 1.24283,2.36284c0.50031,0.78128 1.05338,1.63759 1.75266,2.23267c0.68109,0.57961 1.29865,0.83699 2.01935,1.10899c1.17947,0.44516 1.87503,0.60451 2.57733,0.76401c1.31119,0.29779 2.14645,0.37314 2.90134,0.46133c1.08447,0.12671 1.71881,0.258 2.41068,0.39999c0.72415,0.14862 2.17068,0.41956 2.85333,0.49066c0.96292,0.10031 1.58902,0.08586 2.78516,0.30551c0.60089,0.11034 1.4733,0.36494 2.53351,0.77849c0.71603,0.2793 1.54813,0.69749 2.36667,0.87868c0.79001,0.17487 1.8204,0.2343 2.58932,0.55733c0.74878,0.31454 1.56552,0.97386 2.21066,1.564c0.62723,0.57373 1.48856,0.94508 2.35468,0.98933c0.58728,0.03 1.73117,0.01067 2.66949,0.01067c0.50916,0 1.58249,0 2.13666,0c1.67252,0 2.21786,-0.00392 3.2865,0.0045c0.52737,0.00417 1.57834,0.02423 2.10535,0.05267c1.61536,0.08719 2.16891,0.16051 2.72998,0.22684c1.1329,0.13394 1.69611,0.21904 2.80753,0.36333c0.54031,0.07014 2.06604,0.24088 2.991,0.2955c0.43591,0.02574 1.26147,0.05182 2.75217,0.05716c0.67865,0.00243 1.60416,0 2.39465,0c0.95767,0 1.87234,0 2.74268,0c0.79733,0 1.77866,0 2.69598,0c0.8125,0 1.81866,0 2.54401,0c0.9895,0 1.81018,0 2.95599,0c0.78601,0 1.33334,0 2.14935,0c1.22684,0 2.07962,0.01517 3.08533,-0.00133c0.61972,-0.01016 1.77155,-0.14131 2.55133,-0.35583c0.82938,-0.22816 1.36603,-0.43758 2.59018,-0.93832c0.64792,-0.26503 1.66122,-0.55846 2.43631,-0.70451c1.00604,-0.18959 1.62711,-0.63896 2.34216,-1.09999c0.66211,-0.4269 1.67767,-0.97617 2.17868,-1.42084c0.85785,-0.7614 1.38019,-1.28035 1.79016,-1.94083c0.56308,-0.90709 0.64609,-1.78735 0.7605,-2.38501c0.25378,-1.32585 0.50366,-2.04218 0.81067,-2.76799c0.30902,-0.73053 0.65027,-1.41888 1.11734,-2.34233c0.3912,-0.77345 0.72418,-1.47212 1.50665,-2.44301c0.50467,-0.62617 0.91119,-1.00804 1.71484,-1.79984c0.60455,-0.59561 1.22025,-1.20256 2.22116,-1.77866c0.51434,-0.29605 1.36011,-0.59381 2.41202,-1.02151c0.70975,-0.28857 1.51486,-0.68494 2.28265,-1.19865c0.6452,-0.43169 1.67337,-0.40604 2.55069,-0.968c0.70172,-0.44948 1.26282,-0.3959 1.32263,0.388c0.07446,0.97572 0.01068,1.75783 0.01068,2.75716c0,0.82018 0,1.72151 0,2.62151c0,0.89999 0.00067,1.8 0,2.7c-0.00067,0.90001 -0.03546,1.838 -0.70453,2.34283c-0.75098,0.56665 -1.53769,0.79602 -2.12881,1.52383c-0.56583,0.69667 -0.82028,1.39375 -1.46216,2.13333c-0.57861,0.66669 -0.69708,1.4799 -1.06168,2.35268c-0.29938,0.71663 -0.931,1.60103 -1.44281,2.146c-0.58673,0.62474 -1.21927,1.35686 -1.60001,2.03734c-0.42166,0.7536 -0.87778,1.77179 -1.20001,2.32799c-0.56335,0.97235 -1.13281,1.55688 -2.05267,1.78334c-0.68222,0.16795 -1.7019,0.51796 -2.51398,1.05266c-0.64365,0.4238 -1.33334,0.82445 -2.08069,1.2955c-0.90103,0.56793 -1.57751,0.68649 -2.586,0.7045c-0.86203,0.01538 -1.78653,-0.0024 -2.56665,0.42535c-0.82291,0.4512 -1.55829,0.80859 -2.30002,1.22198c-0.76367,0.42563 -1.57495,0.75146 -2.46664,1.35266c-0.63898,0.43079 -1.34906,0.80045 -2.07617,1.2955c-0.85699,0.5835 -1.64252,0.70383 -2.59317,0.7045c-0.76532,0.00052 -1.76401,0 -2.564,0c-1.00134,0 -1.836,0 -2.76666,0c-0.78601,0 -1.608,0 -2.66669,0c-0.7095,0 -1.56216,0 -2.56534,0c-0.76532,0 -1.84866,0 -2.76797,0c-0.83334,0 -1.81183,0 -2.52884,0c-0.90451,0 -1.8045,0 -2.7045,0c-0.90451,0 -1.92151,0 -2.62085,0c-0.97916,0 -1.77914,0 -2.57916,0c-1,0 -1.79999,0 -2.79999,0c-0.80002,0 -1.80002,0 -2.60001,0c-1,0 -1.79999,0 -2.60001,0c-0.99548,0 -1.91467,0 -2.87915,0c-0.82083,0 -1.72086,0 -2.62085,0c-0.89999,0 -1.69998,0 -2.60001,0c-0.89999,0 -1.84167,0.00714 -2.84299,-0.00015c-0.72906,-0.00531 -1.5712,-0.02078 -2.457,-0.1665c-0.90683,-0.14917 -1.79559,-0.42819 -2.39999,-0.54935c-1.19131,-0.23877 -2.07901,-0.27002 -2.64285,-0.27948c-1.27167,-0.02133 -1.95438,0.06931 -2.95715,-0.17117c-0.81104,-0.19449 -1.48944,-0.6734 -2.37466,-1.22266c-0.77151,-0.4787 -1.65924,-0.48901 -2.45868,-0.77734c-0.80811,-0.29144 -1.5661,-0.81528 -2.47116,-0.83334c-1.0166,-0.02029 -1.74243,0.13904 -2.67398,-0.22131c-0.77786,-0.3009 -1.55688,-0.73332 -2.50684,-1.06268c-0.73828,-0.25598 -1.71033,-0.63516 -2.49384,-0.69516c-0.85196,-0.06523 -1.64618,-0.02084 -2.67352,-0.02084c-0.69464,0 -1.72226,0.13812 -2.64731,-0.00449c-0.93143,-0.14359 -1.47168,-0.82875 -2.40002,-0.99101c-0.88745,-0.15512 -1.80936,-0.37039 -2.21597,-1.2045c-0.36737,-0.75359 -0.78796,-1.47794 -1.08401,-2.32083c-0.27524,-0.7836 -0.62561,-1.63686 -0.91599,-2.59383c-0.2045,-0.674 -0.83096,-1.42252 -1.048,-2.28534c-0.21973,-0.8735 0.04611,-1.80377 -0.03616,-2.7c-0.08368,-0.91145 -0.80002,-1.55261 -0.979,-2.40001c-0.18604,-0.8808 -0.02084,-1.80899 -0.02084,-2.83333c0,-0.6765 0,-1.452 0,-2.5c0,-0.94133 0,-1.61932 0,-2.58817c0,-0.8145 0,-1.683 0,-2.87833c0,-0.59567 0,-1.46417 0,-2.53351c0,-0.92 0,-1.67999 0,-2.64583l-0.01068,-0.92084" id="svg_5" stroke-width="2" stroke="#000" fill="none"/>
  <path t="13761,13947,13958,13958,13971,13971,13972,13984,13984,13984,13984,13994,13994,14011,14011,14030,14068,14083,14101,14105,14117,14129,14153,14165,14178,14178,14194,14194,14203,14203,14214,14214,14227,14227,14251,14263,14277,14300,14312,14327,14327,14343,14350,14374,14399,14411,14427,14437,14622,14652,14668,14695" d="m451,224.89999c1.75717,0.05717 2.65039,0.38501 3.24667,0.57468c1.15643,0.36783 1.99014,0.39128 2.564,0.45067c1.19135,0.12328 2.08917,0.31715 2.66849,0.4955c0.84232,0.25932 1.82596,0.6973 2.67416,1.04317c0.81769,0.33344 1.64536,0.43532 2.54669,0.43599c0.89999,0.00066 2.05267,-0.05321 2.2955,0.70451c0.2626,0.8194 0.73572,1.11053 1.60449,1.3315c0.86224,0.2193 1.59698,0.92128 2.50015,0.96399c0.7843,0.03709 1.73584,-0.00172 2.50116,0c0.99869,0.00226 1.81693,-0.01193 2.79736,0.28401c0.78372,0.23657 1.62036,0.47279 2.39999,0.8c0.86639,0.36362 1.60077,0.89798 2.50131,0.91599c0.89984,0.01799 1.85349,-0.18135 2.70001,0.16667c0.67108,0.27589 1.55508,0.53429 2.38934,0.84401c0.73358,0.27234 1.22125,0.98398 2.11066,0.98932c0.89996,0.0054 1.79999,0 2.70001,0l0.89999,0l0.89999,0l0.87866,0.22134" id="svg_6" stroke-width="2" stroke="#000" fill="none"/>
  <path t="15697,15865,15866,15885,15886,15886,15902,15902,15913,15913,15913,15913,15927,15943,15951,15951,15962,15978,15993,15999,16011,16028,16028,16036,16036,16048,16073,16073,16086,16087,16110,16111,16135,16135,16159,16184,16196" d="m454,233.89999c2.60001,0.36168 3.42242,0.7309 4.20001,1.32117c0.61877,0.46973 1.14236,1.09265 2.20132,1.51083c0.80252,0.31693 1.78354,0.46588 2.54233,0.87784c0.52847,0.28691 1.33664,0.70386 1.95901,1.65417c0.50305,0.76813 1.08365,1.54811 1.79733,1.6315c0.89392,0.10445 1.79999,0.00449 2.69998,0.00449c0.89999,0 1.80133,0 2.76666,0c0.83334,0 1.81195,-0.01372 2.52884,0c0.94101,0.01801 1.77838,0.31439 2.51517,0.57468c0.97568,0.34467 1.76938,0.37827 2.76801,0.42549c0.77521,0.03667 1.67401,0.35251 2.36865,0.64717l1.01669,0.31667l0.93597,0.036l0.90002,0" id="svg_7" stroke-width="2" stroke="#000" fill="none"/>
  <path t="17296,17441,17441,17454,17470,17470,17478,17478,17478,17497,17497,17497,17500,17500,17500,17513,17513,17513,17528,17528,17529,17529,17544,17544,17550,17550,17561,17561,17577,17596,17596,17601,17601,17611,17611,17627,17627,17642,17642,17648,17660,17660,17675,17675,17685,17686,17697,17709,17709,17734,17771,17771,17784,17784,17795,17809,17826,17832,17845,17870,17870,17945,18104,18140,18140,18153,18165,18177,18192,18209,18209,18209,18214,18214,18214,18226,18251,18251,18263,18263,18276,18300,18312,18312,18326,18343,18351,18351,18361,18362,18376,18376,18393,18393,18399,18411,18412,18426,18448,18461,18476,18485,18486,18497,18497,18509,18526,18527,18534,18534,18546,18547,18559,18559,18576,18576,18576,18584,18595,18595,18610,18627,18628,18633,18645,18645,18669,18694,18694,18709,18709,18731,18731,18769,18792,18793" d="m513,240.89999c1.82532,-0.43599 2.49054,-0.84032 3.37469,-1.38933c0.77136,-0.47897 1.66003,-0.54314 2.62531,-0.77733c0.61176,-0.14842 1.39789,-0.54213 2.40131,-1.03334c0.61823,-0.30264 1.27704,-0.61794 2.28406,-1c0.82996,-0.3149 1.41888,-0.50067 2.61462,-0.89999c0.89984,-0.30051 1.50012,-0.49962 2.70001,-0.90001c0.59875,-0.1998 1.48199,-0.49222 2.04285,-0.7c1.04089,-0.38562 1.95245,-0.74019 2.79047,-1.3c0.6792,-0.45372 1.26666,-1.09999 1.8667,-1.7c0.70001,-0.7 1.34125,-1.26347 1.89996,-1.93599c0.54205,-0.65248 0.92743,-1.34567 1.27887,-2.34267c0.26849,-0.76181 0.7074,-1.49039 1.27051,-2.196c0.6286,-0.78767 0.85559,-1.54713 1.37146,-2.34618c0.53583,-0.82997 0.80634,-1.62975 1.57935,-2.23633c0.56531,-0.44359 1.57452,-0.55907 2.24719,-0.94734c0.92926,-0.53636 1.64178,-1.18613 2.35266,-1.291c0.93469,-0.13791 1.46698,-0.83701 2.18665,-1.0885c0.7663,-0.26779 1.64148,-0.59503 2.47736,-0.89066c0.95166,-0.33658 1.78534,-0.6109 2.4693,-1.192c0.66693,-0.5666 1.38062,-0.95117 1.80951,-1.53784c0.55518,-0.75948 1.21356,-1.24112 1.35718,-0.2955c0.12012,0.79094 0,1.70001 0,2.60001c0,0.89999 0.00342,1.709 0,2.73334c-0.00226,0.67651 0.04218,1.46474 -0.16669,2.5c-0.18896,0.9368 -0.56519,1.6754 -0.80798,2.54134c-0.26416,0.94197 -0.47601,1.6698 -1.02533,2.45866c-0.53558,0.7691 -1.44135,1.05052 -2.20001,1.45067c-0.85834,0.45273 -1.63422,0.59625 -2.27917,1.23683c-0.64386,0.6395 -1.10309,1.33505 -1.87262,1.53183c-0.91638,0.23433 -1.54028,0.73654 -2.29639,1.25183c-0.64911,0.44237 -1.20447,1.35777 -1.39996,2.04283c-0.25995,0.91096 -1.0412,1.57977 -1.51587,2.25267c-0.51837,0.7348 -0.6228,1.73103 -1.43597,2.23334c-0.76355,0.47168 -1.12561,1.19934 -1.61066,1.76666c-0.63843,0.74672 -1.18903,1.20033 -1.88934,1.89999c-0.70105,0.70035 -1.23358,1.23618 -1.98535,1.70001c-0.70496,0.43495 -1.70349,0.92332 -2.49384,1.27916c-0.84314,0.37959 -1.54962,0.48662 -2.56348,0.74217c-0.71448,0.18008 -1.43347,0.51225 -2.48669,0.69333c-0.96027,0.1651 -1.77063,0.08348 -2.60663,0.08533c-1.01666,0.00226 -1.75421,-0.04462 -2.72803,0.42534c-0.7785,0.37572 -1.5213,0.57399 -2.4613,0.57466c-1.008,0.00072 -1.80048,-0.02705 -2.65869,0.00134c-0.86469,0.02861 -1.76331,0.35133 -2.39996,0.71466l-0.94135,0.248l-1.008,0.036l-0.80499,0.05717" id="svg_8" stroke-width="2" stroke="#000" fill="none"/>
  <path t="19857,20038,20051,20075" d="m452,236.89999" id="svg_9" stroke-width="2" stroke="#000" fill="none"/>
  <path t="21218,21366,21366,21382,21398,21398,21398,21404,21404,21405,21405,21419,21419,21419,21419,21419,21419,21419,21427,21428,21428,21428,21428,21428,21441,21442,21442,21442,21458,21458,21476,21476,21476,21492,21492,21500,21513,21526,21526,21543,21543,21549,21550,21562,21576,21576,21576,21592,21592,21592,21592,21600,21600,21600,21600,21600,21615,21615,21615,21615,21633,21633,21633,21643,21643,21643,21649,21649,21660,21661,21677,21677,21677,21686,21686,21698,21698,21698,21709,21709,21709,21709,21726,21726,21726,21735,21735,21735,21746,21747,21747,21758,21778,21778,21784,21784,21796,21796,21809,21809,21826,21827,21833,21834,21834,21845,21845,21845,21845,21845,21859,21859,21859,21860,21877,21877,21877,21894,21894,21894" d="m454,261.89999c0.436,1.82535 0.84033,2.49057 1.38934,3.37466c0.479,0.77136 0.56821,1.48486 0.69467,2.39734c0.12112,0.87375 0.35178,1.92136 0.43683,2.31134c0.1832,0.84009 0.48151,2.24954 0.57916,2.75967c0.20493,1.07037 0.30215,1.62863 0.5,2.77832c0.1011,0.58749 0.20099,1.18115 0.49982,2.97818c0.09918,0.59644 0.19937,1.1864 0.37933,2.33798c0.08661,0.55423 0.24857,1.60498 0.35419,2.5625c0.09283,0.84149 0.15268,1.91653 0.16217,2.52933c0.01624,1.04907 0.00449,1.94986 0.00449,2.97067c0,0.80002 0,1.60001 0,2.59552c0,0.74731 0,1.76849 0,2.70898c0,0.86218 0,1.71634 0,2.6955c0,0.78934 0,1.83334 0,2.58936c0,0.93149 0.01358,1.90067 -0.02084,2.49399c-0.04498,0.77536 -0.19861,1.78131 -0.33182,2.58368c-0.14526,0.875 -0.3175,1.78641 -0.48068,3.16632c-0.05252,0.44418 -0.11905,1.30463 -0.14581,2.125c-0.02545,0.77975 -0.01212,2.22028 -0.02533,2.88449c-0.01886,0.94684 -0.03027,1.56537 -0.28085,2.75583c-0.12555,0.5965 -0.40109,1.45126 -0.81448,2.47986c-0.2775,0.69046 -0.66385,1.51001 -0.8475,2.52148c-0.14417,0.79391 -0.35104,1.79492 -0.62735,2.60001c-0.27295,0.79523 -0.40433,1.59949 -0.42398,2.39999c-0.02466,1.00424 -0.02164,1.8642 -0.22269,2.8215c-0.17258,0.82172 -0.46143,1.67639 -0.612,2.57849c-0.14935,0.89481 -0.17136,1.8024 -0.25067,2.39999c-0.15991,1.2049 -0.3266,1.79776 -0.62048,2.64285c-0.36417,1.04718 -0.7514,1.71072 -1.01016,2.64117c-0.27295,0.98151 -0.22287,1.80481 -0.36935,2.54666c-0.19244,0.97446 -0.94858,1.73987 -1.41599,2.29016c-0.64755,0.76236 -0.86273,1.58691 -1.60001,2.23651c-0.60892,0.5365 -1.2742,1.12039 -1.69998,1.75998c-0.58673,0.88138 -1.16962,1.36807 -1.96936,1.97067c-0.49133,0.37021 -1.33038,0.98743 -2.064,1.84534c-0.51822,0.60602 -0.93481,1.32156 -1.392,2.01599c-0.45224,0.68692 -1.1835,1.6203 -1.72284,2.14084c-0.51941,0.50128 -1.12967,0.88651 -1.90881,1.93118c-0.3735,0.50079 -0.72168,1.35333 -1.14301,2.41199l-0.2955,0.70499l-0.34732,0.80002" id="svg_10" stroke-width="2" stroke="#000" fill="none"/>
  <path t="23263,23398,23415,23415,23435,23435,23435,23445,23445,23460,23482,23495,23533,23570,23570,23594,23644,23668,23668,23692,23715,23731,23750,23762,23766,23777,23792,23792,23811,23811,23814,23814,23827,23827,23851,23852,23864,23901,23913,23975,23996,24000,24000,24011,24026,24048,24073,24098,24098,24147,24147,24186,24209,24231,24234,24235,24235,24250,24250,24250,24268,24268,24272,24272,24282,24282,24320,24320,24357,24444,24468,24479,24494,24516,24529,24543,24560,24579,24580,24593,24610,24627,24649,24650,24654,24676,24693,24693,24713,24726,24751,24762,24812,24862,24880,24936,24937,24951,24965,24965,24976,24976,24986,24996,25021,25059,25079,25079,25108,25133,25158,25170,25195,25196,25215,25231,25231,25249,25249,25250,25262,25263,25263,25267,25268,25279,25279,25293,25293,25309,25309,25317,25329,25329,25329,25342,25342,25366,25366,25378,25378,25393,25394,25403,25415,25415,25433,25448,25460,25460,25464,25476,25476,25492,25492,25492,25502,25502,25513,25513,25526,25526,25526,25543,25543,25551,25563,25575,25600" d="m436,362.89999c-1.82535,0.01068 -2.84375,0.14719 -3.52084,0.52084c-0.82587,0.45575 -1.49078,0.76407 -2.22849,1.07916c-1.11749,0.47729 -1.72577,1.04092 -2.22534,1.78934c-0.40915,0.61292 -1.46988,0.5152 -2.22534,0.89465c-0.86719,0.43558 -1.62344,0.3027 -2.44281,0.77316c-0.81207,0.46628 -1.40262,0.74902 -2.15717,1.02817c-0.8696,0.32169 -1.06033,1.42999 -1.72086,1.91467c-0.68951,0.50598 -1.72318,0.65457 -2.35782,1.22134c-0.60074,0.53647 -1.0697,1.34634 -1.11066,2c-0.06119,0.97662 -0.01068,1.94266 -0.01068,2.89465c0,0.76801 0,1.72 0,2.48535c0,0.99417 0,1.74149 0,2.76266c0,0.936 0.12411,1.84464 -0.00015,2.73584c-0.11182,0.80188 -1.05069,1.20099 -1.69986,1.54749c-0.84937,0.45334 -1.79999,0.35266 -2.69998,0.35266c-0.90451,0 -1.76666,0 -2.60001,0c-0.97849,0 -1.83722,0.20981 -2.70001,-0.05716c-0.86615,-0.26801 -1.27139,-1.24591 -1.29999,-2.1095c-0.02896,-0.87451 0,-1.51999 0,-2.51733c0,-0.81601 0,-1.63199 0,-2.85883c0,-0.64651 0,-1.65717 0,-2.45718c0,-1 0,-1.78934 0,-2.83331c0,-0.86218 0.0054,-1.76672 0,-2.66669c-0.00534,-0.88937 -0.53488,-1.35098 -1.39999,-1.51065c-0.83139,-0.15344 -1.76221,-0.56009 -2.43335,-1.15601c-0.60638,-0.53842 -1.22623,-1.11829 -1.86667,-1.48068c-0.82077,-0.46442 -1.63,-0.80429 -2.13333,-1.51932c-0.4892,-0.69495 -0.17685,-1.68805 -0.77731,-2.43335c-0.52704,-0.65417 -1.30145,-1.38632 -1.38486,-2.09998c-0.10446,-0.89395 -0.00449,-1.80002 -0.00449,-2.70001c0,-0.89999 0,-1.79999 0,-2.70001c0,-0.89999 0.21365,-1.83783 0.88666,-1.89865c0.93488,-0.08447 1.94669,-0.00134 2.73868,-0.00134c1.02734,0 1.72198,0 2.73868,0c0.93597,0 1.836,0 2.73599,0c0.89999,0 1.69998,0 2.60001,0c0.89999,0 1.81311,0.14276 2.69998,-0.01065c0.8335,-0.14417 1.32373,-0.87958 2.10001,-1.46851c0.74643,-0.56631 1.48431,-0.66394 2.27066,-1.09018c0.78549,-0.42578 1.31711,-0.82465 2.52899,-1.409c0.58185,-0.28055 1.4223,-0.59613 2.367,-0.85498c0.90668,-0.24844 1.4386,-0.81946 2.09052,-1.46133c0.64331,-0.63342 1.71881,-0.67096 2.133,-1.41519c0.40369,-0.72537 0.58286,-1.63974 1.10983,-2.45682c0.41971,-0.65073 0.76382,-1.42447 0.94733,-2.43335c0.14438,-0.79388 0.3389,-1.79779 0.62735,-2.564c0.30637,-0.81378 0.46292,-1.7381 0.7825,-2.48865c0.30426,-0.71457 1.10535,-1.49582 1.47617,-2.34735c0.32614,-0.74896 0.16666,-1.69998 0.16666,-2.52081c0,-0.96317 0,-1.82651 0,-2.7265c0,-0.91934 0,-1.7735 0,-2.75269c0,-0.79999 0,-1.60001 0,-2.60001c0,-0.79999 0,-1.80133 0,-2.63599c0,-0.93066 0,-1.71216 0,-2.50266c0,-1.11835 0,-1.95233 0,-2.86136l0,-0.89999l0,-0.89999l0,-0.89999" id="svg_11" stroke-width="2" stroke="#000" fill="none"/>
  <path t="26567,26673,26673,26685,26685,26703,26703,26704,26704,26709,26710,26710,26710,26710,26710,26710,26732,26732,26732,26732,26732,26732,26732,26732,26744,26744,26744,26744,26744,26744,26745,26745,26745,26761,26761,26761,26761,26775,26775,26776,26781,26781,26781,26781,26793,26793,26809,26809,26809,26826,26826,26826,26831,26831,26831,26831,26843,26843,26843,26843,26860,26860,26860,26868,26868,26868,26868,26880,26881,26881,26892,26893,26917,26929" d="m428,310.89999c0,-1.836 0,-2.60132 0,-3.60449c0,-0.85266 0,-1.81784 0,-2.68484c0,-0.70132 0.00058,-1.53867 0,-2.54398c-0.00067,-1.18933 -0.00262,-1.83905 -0.01068,-2.51468c-0.00827,-0.6937 -0.01706,-1.39764 -0.04648,-2.103c-0.08548,-2.05014 -0.15277,-2.68677 -0.23218,-3.29968c-0.15518,-1.19791 -0.28574,-1.79288 -0.42932,-2.39731c-0.1488,-0.62643 -0.32101,-1.28036 -0.78134,-2.68533c-0.25427,-0.77612 -0.54855,-1.58395 -0.858,-2.4165c-0.31448,-0.84616 -0.6398,-1.68854 -0.966,-2.5155c-0.31586,-0.80069 -0.61917,-1.56067 -1.17599,-2.90134c-0.23349,-0.56219 -0.61432,-1.48257 -1.06799,-2.448c-0.41898,-0.89157 -0.67297,-1.53262 -1.24634,-2.28534c-0.65558,-0.86063 -1.19504,-1.19504 -1.935,-1.79999c-0.48532,-0.39679 -1.3277,-1.16925 -1.82935,-2c-0.46738,-0.77402 -0.80527,-1.61627 -1.1785,-2.20001c-0.52744,-0.82498 -1.10706,-1.39368 -1.59015,-2.11432c-0.5303,-0.79105 -0.90732,-1.79169 -1.13184,-2.5065c-0.22842,-0.72733 -0.52109,-1.81244 -0.71951,-2.49384c-0.28082,-0.96442 -0.50375,-1.57071 -0.67984,-2.78534c-0.1297,-0.89468 -0.11615,-1.49997 -0.12149,-2.70001c-0.004,-0.89999 0.00052,-1.5 0,-2.39999c-0.00067,-1.19733 0.05273,-1.78484 -0.05716,-2.58566c-0.14526,-1.0584 -0.74417,-1.81168 -1.34283,-2.40367l-0.80002,-0.52666" id="svg_12" stroke-width="2" stroke="#000" fill="none"/>
  <path t="27966,28174,28187,28215,28233,28238,28253,28253,28264,28297,28320,28333,28382" d="m385,234.89999c1.70001,0.05717 2.42236,0.6862 3.29999,0.94284c0.8656,0.25313 1.80002,0.05716 2.70001,0.05716c0.79999,0 1.70001,0 2.60001,0l0.89999,0l0.88934,0.01068l0.63599,0.564" id="svg_13" stroke-width="2" stroke="#000" fill="none"/>
  <path t="29490,29736,29750,29764,29786,29809,29836,29865,29921,29969" d="m407,184.89999c1.564,0.61067 1.98199,1.39948 2,2.3c0.01801,0.89983 0,1.8 0,2.7l0.22134,0.87868l0.69333,0.40666l0.08533,0.91467" id="svg_14" stroke-width="2" stroke="#000" fill="none"/>
  <path t="31450,31644,31664,31664,31681,31718,31743,31743,31758,31779,31792,31809,31817,31853,31866,31891,31910,31910,31915,31915,31926,31926,31951,31951,31988,32013,32025,32042,32042,32051,32062,32062,32087,32099,32124,32162" d="m406,184.89999c-0.01068,-1.82533 -0.18054,-2.826 -0.57468,-3.58932c-0.41473,-0.80322 -0.57617,-1.80525 -1.42532,-2.244c-0.63837,-0.32985 -1.60001,-0.16667 -2.5,-0.16667c-0.89999,0 -1.79999,-0.00009 -2.70001,0c-0.89981,0.00009 -1.69235,0.30177 -2.22531,0.98534c-0.46912,0.60168 -0.55164,1.42397 -0.57602,2.41467c-0.01968,0.80051 -0.20886,1.80391 -0.49866,2.57916c-0.32104,0.85887 -0.50824,1.71637 -0.5,2.62083c0.00818,0.90019 0.24539,1.86858 1,2.23334c0.73547,0.35551 1.75717,0.16666 2.65268,0.16666c0.86331,0 1.82648,0 2.64731,0l0.90002,0l0.89999,0" id="svg_15" stroke-width="2" stroke="#000" fill="none"/>
  <path t="34060,34205,34205,34205,34205,34205,34218,34218,34218,34219,34219,34219,34237,34237,34238,34238,34238,34241,34241,34242,34242,34262,34263,34263,34266,34266,34266,34277,34277,34277,34291,34291,34291,34308,34308,34308,34308,34308,34315,34315,34315,34315,34315,34315,34327,34327,34327,34327,34328,34341,34342,34342,34342,34342,34342,34358,34359,34359,34359,34359,34364,34365,34365,34365,34375,34376,34376,34393,34393,34393,34393,34401,34401,34401,34401,34402,34402,34402,34402,34412,34413,34413,34413,34413,34413,34413,34413,34413,34425,34425,34425,34426,34426,34426,34426,34426,34441,34441,34441,34441,34442,34442,34450,34450,34451,34451,34462,34462,34474,34475,34475,34492,34492,34500,34501,34501,34511,34525,34543,34543,34543,34548,34548,34561,34561,34561,34574,34575,34590,34591,34591,34598,34609,34609,34624,34625,34634,34659,34685,34710" d="m295,140.89999c-3.74316,0.22151 -4.61948,0.35347 -5.5625,0.52084c-0.49518,0.08789 -1.52505,0.28308 -2.60416,0.47916c-1.11551,0.20268 -1.68158,0.29962 -2.24802,0.40001c-1.12411,0.19923 -1.67758,0.28934 -3.25198,0.59999c-0.49084,0.09685 -1.41913,0.28699 -2.27084,0.52084c-0.80099,0.21994 -1.90454,0.62781 -2.57584,0.96317c-0.64886,0.32416 -1.51468,0.88063 -2.56516,1.49449c-0.67905,0.3968 -1.32285,0.70558 -2.3215,1.22284c-0.60361,0.31264 -1.21671,0.66263 -2.2045,1.45134c-0.42371,0.3383 -1.04727,0.92326 -2.08218,1.46333c-0.8309,0.43361 -1.4809,0.62256 -2.47998,1.05066c-0.72311,0.30986 -1.47568,0.66797 -2.24402,1.08c-0.79742,0.42761 -1.59177,0.91623 -2.39066,1.436c-0.81183,0.52818 -1.21027,0.81192 -2.05585,1.3075c-0.42368,0.24831 -1.75879,0.88293 -2.69998,1.2045c-0.47617,0.16269 -1.45636,0.44717 -1.94734,0.61067c-1.50473,0.50108 -2.00534,0.71683 -2.9865,1.209c-0.49301,0.2473 -1.44382,0.79642 -1.89467,1.09467c-1.30141,0.86092 -1.67697,1.18379 -2.39999,1.782c-0.67801,0.56094 -1.27298,1.14015 -2.21434,1.77567c-0.58012,0.39165 -1.47838,0.79366 -2.31467,1.13068c-1.00172,0.40369 -1.69345,0.7269 -2.45467,0.91733c-0.86282,0.21585 -1.93465,0.26033 -2.75999,0.31067c-0.45116,0.02751 -1.97092,0.13893 -2.53568,0.196c-0.59526,0.06015 -1.87483,0.20554 -2.56,0.27866c-0.71483,0.07628 -1.45946,0.1539 -2.235,0.216c-1.63895,0.13123 -2.50352,0.16591 -3.38933,0.2c-0.89955,0.03462 -1.80534,0.05852 -2.709,0.084c-0.89368,0.02519 -1.76959,0.04626 -2.619,0.08401c-1.58992,0.07066 -2.31581,0.13235 -2.99733,0.2c-0.6445,0.06396 -1.25618,0.14006 -1.84201,0.21599c-1.11832,0.14493 -1.65958,0.24248 -3.30432,0.37868c-0.55966,0.04634 -1.12267,0.06905 -2.23734,0.12132c-0.54433,0.02553 -1.59283,0.03424 -2.97701,0.22151c-0.79303,0.10728 -1.49214,0.26698 -2.37534,0.57983c-1.01779,0.36052 -1.64359,0.76007 -2.68933,1.032c-0.78624,0.20445 -1.42142,0.14131 -2.39999,0.452c-0.82314,0.26134 -1.79488,0.82481 -2.38934,1.104c-0.71954,0.33792 -1.80368,0.5403 -2.632,0.62134c-0.92084,0.09009 -1.82629,0.42509 -2.57332,0.63666c-0.85934,0.24338 -1.66243,0.35075 -2.54817,0.57401c-0.98608,0.24855 -1.49886,0.47917 -2.77184,0.69466c-0.6604,0.11179 -1.69408,0.22537 -2.47467,0.50934c-0.73431,0.26714 -1.71106,0.54024 -2.69466,0.576c-0.69109,0.02513 -1.58992,0.35522 -2.31467,0.71466c-0.86198,0.42749 -1.70134,0.784 -2.49684,1.23134l-0.67917,0.48866" id="svg_16" stroke-width="2" stroke="#000" fill="none"/>
  <path t="35883,36095,36099,36099,36099,36112,36112,36124,36142,36142,36150,36150,36161,36161,36162,36175,36175,36175,36175,36191,36191,36191,36199,36199,36199,36211,36211,36212,36225,36225,36242,36242,36247,36247,36260,36260,36275,36275,36285,36285,36297,36297,36297,36308,36308,36308,36325,36325,36325,36325,36334,36335,36335,36335,36345,36345,36345,36345,36346,36359,36359,36359,36375,36376,36383,36394,36409,36409,36426,36427,36433,36444,36444,36459,36459,36460,36475,36475,36476,36476,36481,36482,36482,36482,36482,36482,36494,36494,36494,36494,36494,36495,36495,36508,36508,36508,36524,36524,36524,36531" d="m175,177.89999c-1.09734,1.636 -1.6445,2.34705 -2.28667,2.81467c-0.69244,0.50426 -1.77844,0.92569 -2.51067,1.26801c-0.75017,0.35071 -1.40007,1.11993 -2.00267,1.71733c-0.6187,0.61336 -1.16789,1.08905 -1.96933,1.68668c-0.74892,0.55847 -1.32188,0.93364 -2.064,1.67999c-0.74684,0.7511 -1.15022,1.3385 -1.505,1.93784c-0.69069,1.16678 -0.86807,1.80621 -1.287,2.6235c-0.49426,0.96428 -1.05545,1.43634 -1.54933,1.92267c-0.85559,0.84248 -1.18205,1.60327 -1.52083,2.34399c-0.39619,0.86626 -0.91977,1.61244 -1.62567,2.1055c-0.64026,0.4472 -1.39433,1.04979 -1.658,1.89983c-0.29865,0.96281 -0.70517,1.52582 -1.31633,2.30901c-0.48186,0.61749 -0.60686,1.4619 -0.72983,2.47633c-0.12726,1.0498 -0.30711,1.76776 -0.58534,2.40401c-0.45003,1.0291 -0.81306,1.62219 -1.08932,2.325c-0.43799,1.11424 -0.6071,1.7926 -0.77917,2.5065c-0.17554,0.72824 -0.40727,2.15726 -0.46815,2.83099c-0.06039,0.66835 -0.11598,1.72011 -0.274,2.89067c-0.11617,0.86052 -0.20459,1.29741 -0.35333,2.17084c-0.14189,0.83324 -0.33286,2.23161 -0.42534,3.02415c-0.07695,0.65936 -0.37459,1.64973 -0.64734,2.40533c-0.32162,0.89101 -0.35266,1.85851 -0.35266,2.82384c0,0.83333 0,1.66667 0,2.52884c0,0.94049 0,1.78983 0,2.709c0,0.99817 0,1.63716 0,2.36617c0,1.20267 0,1.92267 0,2.72267c0,0.87999 0,1.84 0,2.87733c0,0.54366 0,1.67099 0,2.25066c0,0.58768 0,2.37866 0,2.97816c0,0.59651 0,1.76851 0,2.338c0,1.091 0,1.60651 0,2.99785c0,0.78867 0,1.79666 0,2.89799l0,0.705l0,0.8l0,1.02567" id="svg_17" stroke-width="2" stroke="#000" fill="none"/>
  <path t="37395,37566,37567,37585,37585,37586,37586,37604,37604,37604,37604,37614,37614,37614,37614,37614,37614,37626,37626,37626,37626,37626,37642,37643,37643,37651,37651,37651,37651,37662,37662,37662,37676,37676,37676,37676,37692,37692,37692,37700,37701,37701,37711,37712,37726,37726,37742,37743,37749,37750,37762,37762,37775,37775,37792,37792,37799,37800,37810,37810,37826,37827,37827,37843,37843,37843,37848,37848,37849,37859,37859,37860,37860,37860,37876,37876,37876,37876,37885,37885,37885,37896,37897,37897,37897,37909,37909,37909,37909,37925,37925,37934,37934,37934,37946,37946,37947,37959,37959,37975,37975,37975,37984,37984,37984,37984,37995,37995,37995,37995,37996,37996,38007,38008,38008,38008,38008,38008,38008,38025,38025,38026,38026,38026,38032,38033,38033,38033,38044,38045,38059,38059,38106" d="m148,258.89999c0.01067,1.85733 0.02605,2.52383 0.2215,3.64285c0.11711,0.6705 0.38202,1.74438 0.57983,2.47449c0.28844,1.06454 0.5,1.74002 0.7195,2.42435c0.23299,0.72641 0.64377,1.95901 0.96451,2.91031c0.17073,0.50638 0.53107,1.54962 0.72533,2.07202c0.382,1.02725 0.77254,1.98413 1.188,2.81998c0.37563,0.75568 0.77649,1.41791 1.116,2.052c0.47957,0.89569 0.88095,1.79169 1.12367,2.70401c0.23676,0.88992 0.30734,1.80014 0.36166,2.39999c0.08153,0.90021 0.28085,2.10077 0.42534,2.70001c0.21727,0.90115 0.46158,2.09912 0.52199,2.69998c0.09036,0.89886 0.08003,1.51089 0.33801,2.69867c0.19345,0.89072 0.40163,1.45105 0.8145,2.47986c0.36398,0.90698 0.66383,1.51001 0.84749,2.52148c0.14415,0.79391 0.28558,1.82315 0.66335,2.564c0.43167,0.84659 0.99611,1.46814 1.87332,2.03601c0.67,0.43375 1.48297,0.9155 2.14134,1.39999c0.84282,0.62021 1.64651,0.87433 2.20667,1.60135c0.4651,0.60367 0.90878,1.42917 1.31734,2.00931c0.66861,0.94943 0.73399,1.83612 1.18399,2.78934c0.3024,0.64056 0.89716,1.16547 1.5,2c0.56396,0.78073 0.86736,1.44376 1.04533,2.42166c0.14873,0.81717 0.14767,1.74335 0.28801,2.74503c0.10109,0.72156 0.26376,1.47369 0.48,2.24399c0.22333,0.79556 0.66341,1.99384 1.006,2.78033c0.33635,0.77222 0.69331,1.49533 1.18066,2.47568c0.28056,0.56439 0.67151,1.30157 1.16667,2.5c0.21245,0.51419 0.49486,1.36536 0.88533,2.23465c0.40915,0.91089 0.75066,1.50034 1.28934,2.32666c0.33122,0.50809 1.05986,1.47406 1.578,2.02017c0.71536,0.75397 1.2684,1.27243 1.84866,1.85318c0.79767,0.79831 1.40419,1.37613 1.91333,1.99866c0.63258,0.77344 1.09993,1.58112 1.31866,2.39999c0.21284,0.79684 0.28641,1.7066 0.73734,2.68933c0.27209,0.59299 0.6685,1.2204 1.032,1.96802c0.62837,1.29245 0.80957,1.7937 1.18668,2.85065c0.19695,0.552 0.38353,1.12137 0.5535,1.70551c0.51761,1.77884 0.63892,2.38547 0.77316,2.98383c0.26474,1.17999 0.37999,1.7619 0.50934,2.33069c0.25089,1.10312 0.51852,2.14651 0.85866,3.10001c0.32005,0.89719 0.69141,1.71432 0.86334,2.10583c0.63387,1.4433 0.89754,2.10373 1.13184,2.72449c0.32231,0.85394 0.72083,1.85501 1.02083,2.5l0.59984,1.02017l0.46416,0.61084l0.40001,0.81064" id="svg_18" stroke-width="2" stroke="#000" fill="none"/>
  <path t="38799,38980,38981,38981,38981,38993,38993,38993,38993,39008,39008,39008,39018,39018,39018,39029,39030,39041,39041,39057,39058,39202,39238,39263,39263,39275,39290,39290,39291,39300,39300,39300,39312,39312,39312,39325,39325,39325,39340,39341,39341,39349,39350,39361,39361,39374,39374,39392,39392,39398,39398,39410,39411,39424,39424,39425,39448,39449,39449,39485,39485,39485,39509,39509,39526,39526,39534,39559,39608,39670,39684,39684,39698,39699,39714,39714,39726,39726,39731,39731,39744,39744,39744,39757,39757,39773,39773,39781,39793,39808,39808,39829,39829,39842,39858,39858,39866,39867,39878,39878,39891,39891,39891,39908,39908,39908,39916,39916,39916,39928,39928,39941,39942,39957,39977,39977,39992,39992,39992,40007,40007,40014,40026,40040,40041,40041,40058,40058,40058,40063,40064,40064,40075,40075,40075,40075,40093,40093,40100,40100,40112" d="m193,366.89999c0.56934,2.96933 0.85951,3.66217 1.18533,4.38535c0.33017,0.73282 0.8024,1.78955 1.0575,2.45749c0.3596,0.94162 0.5536,1.55661 0.95717,2.75583c0.1989,0.59103 0.47734,1.45322 0.90001,2.47986c0.28485,0.69193 0.71339,1.51361 1.09866,2.32147c0.37859,0.79382 0.72189,1.79556 0.7805,2.57919c0.07455,0.99677 -0.39075,1.95926 0.07799,2.66367c0.43646,0.65591 1.61517,0.47211 2.45885,0.27182c0.9082,-0.21561 1.81267,-0.78217 2.49382,-0.85751c0.77219,-0.08542 1.8235,-0.05716 2.76485,-0.05716c0.67799,0 1.64682,0 2.46132,0c0.86852,0 2.06384,0 2.6595,0c0.86852,0 1.93784,0 2.86852,0c0.83466,0 1.836,0 2.63599,0c0.99867,0 1.76401,0 2.716,0c0.76801,0 1.72,0.00171 2.48534,0c0.99867,-0.00226 1.81297,-0.00131 2.8,-0.284c0.84966,-0.24335 1.76151,-0.5816 2.55133,-0.65884c0.81941,-0.08011 1.88066,-0.05716 2.59467,-0.05716c0.90533,0 1.87384,0 2.66733,0c0.77551,0 1.83293,0.10336 2.668,-0.08533c0.97748,-0.22086 1.60847,-0.74988 2.59651,-0.89383c0.91144,-0.13278 1.98055,0.16147 2.4955,-0.45685c0.52826,-0.63431 0.8423,-1.42856 0.98933,-2.39999c0.11465,-0.75748 0.036,-1.76401 0.036,-2.564c0,-1 0,-1.79999 0,-2.79999c0,-0.80002 0,-1.80002 0,-2.60001c0,-0.80002 0,-1.80002 0,-2.60001c0,-0.99866 0.00008,-1.76401 0,-2.71466c-0.00009,-0.98535 -0.22852,-1.84967 -0.57466,-2.52133c-0.41853,-0.8121 -0.42308,-1.71133 -0.42534,-2.61133c-0.0023,-0.91934 0.12222,-1.7933 -0.22133,-2.73135c-0.25342,-0.69196 -0.72711,-1.50543 -0.76801,-2.26801c-0.0629,-1.173 0.02025,-1.98206 -0.06783,-2.80066c-0.11171,-1.0383 -0.39621,-1.71878 -0.59018,-2.40533c-0.27075,-0.95834 -0.33061,-1.77222 -0.34816,-2.59467c-0.02199,-1.03079 0.04817,-1.91235 -0.00467,-2.93115c-0.04271,-0.82346 -0.56416,-1.5126 -1.09984,-2.34302c-0.43671,-0.677 -0.89265,-1.68225 -1.2,-2.27399c-0.39072,-0.75223 -0.98987,-1.65662 -1.5,-2.20316c-0.66617,-0.71371 -1.16113,-1.50485 -1.2,-2.36801c-0.03937,-0.87436 -0.05713,-1.526 -0.284,-2.51868c-0.19226,-0.84125 -0.46481,-1.71069 -0.59467,-2.61465c-0.12869,-0.8959 -0.09142,-1.50781 -0.28801,-2.70001c-0.14896,-0.90332 -0.33157,-1.48709 -0.63466,-2.31467c-0.37004,-1.01041 -0.76266,-1.87466 -1.032,-2.68533l-0.16667,-0.95831l-0.28534,-0.87234" id="svg_19" stroke-width="2" stroke="#000" fill="none"/>
  <path t="41051,41235,41235,41235,41235,41253,41254,41254,41254,41254,41258,41258,41258,41258,41275,41276,41276,41276,41284,41284,41284,41294,41294,41294,41294,41307,41307,41307,41307,41324,41324,41324,41324,41324,41324,41325,41331,41331,41331,41331,41331,41343,41343,41344,41344,41344,41344,41357,41357,41357,41373,41374,41374,41380,41392,41393,41407,41407,41417,41417,41417,41429,41430,41430,41442,41442,41442,41442,41442,41442,41457,41457,41457,41457,41457,41457,41457,41467,41467,41467,41467,41467,41479,41479,41479,41491,41491,41492,41508,41508,41517,41528,41528,41541,41559,41565,41577,41591,41591,41608,41614" d="m229,321.89999c2.972,-0.28534 3.683,-0.43451 4.45734,-0.61066c0.83102,-0.18906 2.16374,-0.48981 2.62534,-0.58932c0.93179,-0.20093 1.85664,-0.39709 2.3075,-0.5c1.27841,-0.29175 2.0426,-0.48846 3.06816,-0.80002c0.63489,-0.19287 1.84167,-0.60001 2.44167,-0.79999c0.90001,-0.29999 1.50627,-0.48181 2.69867,-0.90268c0.59393,-0.20963 1.4904,-0.5473 2.23466,-1.13065c0.77188,-0.60501 1.11928,-1.23129 1.936,-1.81335c0.81557,-0.58124 1.55048,-0.70999 2.314,-0.81165c0.83696,-0.11142 2.25044,-0.20438 2.75951,-0.263c1.06799,-0.12302 1.61816,-0.20651 2.74249,-0.35333c0.56635,-0.07394 1.12976,-0.16638 2.79318,-0.30383c0.53555,-0.04425 1.58539,-0.08896 2.10065,-0.10068c1.01624,-0.02313 2.52084,-0.02084 3.02051,-0.02084c0.99133,0 1.95868,0 2.42834,0c0.90134,0 2.12881,0 2.85315,0c0.96152,0 2.05219,0 2.75717,0c0.97501,0 1.83633,0 2.78299,0c0.85333,0 1.79602,0 2.64801,0c0.80133,0 1.57233,0.00095 2.43335,0c1.19998,-0.00134 1.82455,0.02814 2.81165,-0.11432c1.12857,-0.16284 1.95935,-0.45123 2.40451,-0.60001c0.94733,-0.31656 1.43823,-0.50772 2.46918,-0.88834c1.07837,-0.3981 2.19458,-0.79749 2.76016,-0.99734c0.56644,-0.20013 1.69113,-0.59818 2.242,-0.79999c0.54114,-0.19824 2.06812,-0.79639 2.53781,-0.99866c0.89218,-0.38419 1.71167,-0.77209 2.48401,-1.116c1.06226,-0.47299 1.71478,-0.75952 2.64133,-1.03867c1.0683,-0.32184 1.78836,-0.41391 2.64218,-0.44217c1.00262,-0.03317 1.77261,0.08246 2.71915,-0.00583c0.89676,-0.08365 1.37827,-0.79187 1.88535,-1.47784c0.487,-0.65881 1.3504,-1.03815 2.20001,-1.43683c0.86026,-0.40366 1.44281,-0.78851 1.82532,-1.64801l0.67917,-0.43149" id="svg_20" stroke-width="2" stroke="#000" fill="none"/>
  <path t="42971,43167,43168,43168,43184,43184,43184,43184,43184,43184,43185,43191,43191,43191,43191,43191,43191,43209,43209,43209,43209,43215,43215,43216,43216,43227,43227,43227,43243,43244,43244,43257,43257,43257,43257,43264,43264,43275,43276,43276,43291,43307,43307,43313,43313,43313,43325,43325,43340,43340,43340,43350,43350,43362,43362,43362,43363,43374,43374,43391,43391,43391,43392,43398,43399,43399,43411,43424,43441,43442,43449,43460,43485,43498,43510,43547,43634,43659,43683,43697,43719,43905,43917,43932,43941,43941,43959,43960,43960,43966,43967,43967,43967,43977,43977,43977,43992,43992,44015,44015,44015,44027,44051,44051,44101,44138,44138,44164,44164,44164,44180,44180,44180" d="m318,303.89999c0.00449,2.03235 0.0097,2.62564 0.05716,3.33768c0.08868,1.33057 0.22617,2.40125 0.30002,2.98199c0.07672,0.60327 0.25186,1.85126 0.34732,2.48401c0.09521,0.63123 0.29324,1.8634 0.49417,3.02432c0.09576,0.55334 0.28357,1.60898 0.36533,2.11469c0.15656,0.96838 0.32474,2.33496 0.37885,3.19565c0.02606,0.41473 0.0549,1.60001 0.05716,2.69501c0.0014,0.68134 0,1.64584 0,2.26218c0,1.20432 0,2.09381 0,2.66849c0,1.06934 0,2.02133 0,2.74582c0,1.13284 0,1.7955 0,2.83951c0,0.68268 0,1.88 0,2.60901c0,1.04166 0,1.83099 0,2.55634c0,0.98532 0,1.97198 0,2.73199c0,0.92001 0,1.70151 0,2.7435c0,0.86716 -0.01184,1.81525 0.00134,2.77917c0.01028,0.75168 0.01761,1.56363 0.284,2.54666c0.18921,0.69821 0.71896,1.84903 0.91467,2.36801c0.30676,0.81345 0.59509,1.63394 0.99866,2.63199c0.27713,0.68536 0.66373,1.8472 0.74417,2.64117c0.05695,0.56195 0.0433,1.44424 0.0585,2.63882c0.01071,0.84164 0.04404,1.57199 0.57333,2.40799c0.41989,0.66318 0.74396,1.46625 1.07266,2.34335c0.3309,0.883 0.24188,1.75949 0.35266,2.65265c0.11151,0.89923 0.95721,1.28238 1,2.20001c0.0419,0.89886 0.5072,1.409 0.94284,2.15717c0.42447,0.72894 0.40131,1.60028 1.05716,2.14282c0.60297,0.49878 1.5,0.5 2.43201,0.5c0.62399,0 1.62265,0 2.60965,0c0.71469,0 1.79169,0 2.80118,0c0.63632,0 1.55585,0 2.457,0c0.8895,0 1.74301,0 2.77866,0c0.90067,0 1.92151,0 2.71085,0c0.72534,0 1.71066,0 2.69467,0c0.69064,0 1.75882,0 2.61633,0c0.71399,0 1.67032,0 2.44131,0c0.86102,0 2.05566,0 2.63702,0l1.05066,0" id="svg_21" stroke-width="2" stroke="#000" fill="none"/>
  <path t="46321,46466,46482,46482,46496,46497,46506,46507,46507,46513,46513,46513,46513,46513,46525,46525,46525,46525,46525,46525,46525,46525,46526,46541,46541,46541,46541,46541,46541,46541,46542,46542,46550,46550,46550,46550,46550,46550,46550,46551,46551,46562,46562,46562,46563,46563,46563,46563,46573,46573,46574,46574,46574,46574,46574,46574,46590,46590,46590,46590,46590,46591,46591,46591,46591,46600,46600,46600,46600,46600,46600,46600,46601,46601,46611,46611,46611,46611,46612,46612,46623,46623,46623,46699,46700,46714,46714,46730,46759,46857,46857,46907,46922,46932,46932,46932,46945,46957,46957,46974,46974,46982,46993,47018,47018,47030,47030,47054,47054,47073,47073,47080,47080,47091,47091,47107,47107,47123,47140,47141,47157,47157,47166,47166,47178,47178,47190,47208,47208,47215,47226,47240,47256,47257,47264,47264,47264,47264,47276,47276,47276,47277,47277,47290,47290,47290,47307,47307,47307,47313,47313,47325,47350,47350,47363,47363,47374,47389,47399,47411,47431,47431,47447,47448,47448,47450,47450,47450,47460,47460,47486,47622,47696,47696" d="m359,374.89999c0,-1.82532 0,-2.83331 0,-3.62534c0,-1.03183 -0.01413,-1.77927 0.00134,-2.77866c0.01019,-0.65872 0.07147,-1.45377 0.22,-2.461c0.12115,-0.82156 0.28342,-1.75934 0.35333,-2.27499c0.15167,-1.11865 0.2634,-2.35971 0.30399,-3.02469c0.04227,-0.69238 0.07004,-1.41125 0.09601,-2.15399c0.02673,-0.76459 0.04898,-1.54938 0.078,-2.35199c0.0296,-0.81873 0.10928,-2.49631 0.16901,-3.35049c0.06024,-0.86185 0.13492,-1.72754 0.22498,-2.59351c0.08997,-0.86505 0.19431,-1.72479 0.315,-2.5755c0.11935,-0.84134 0.39923,-2.47766 0.55966,-3.26666c0.15704,-0.77234 0.32858,-1.52499 0.50403,-2.2605c0.17194,-0.72083 0.34967,-1.42526 0.52197,-2.11652c0.16904,-0.67807 0.49603,-1.99731 0.76733,-3.28217c0.13309,-0.63031 0.25284,-1.25803 0.3645,-1.884c0.22327,-1.25143 0.32224,-1.88358 0.52084,-3.16666c0.10141,-0.65512 0.30121,-2.00381 0.39999,-2.70132c0.10126,-0.71515 0.20154,-1.45047 0.30002,-2.20801c0.10156,-0.78113 0.30179,-2.4238 0.39981,-3.28799c0.10071,-0.88779 0.19797,-1.79376 0.28952,-2.71201c0.0921,-0.9238 0.17764,-1.84775 0.25348,-2.76599c0.0748,-0.90576 0.19385,-2.65784 0.23584,-3.49316c0.04053,-0.80603 0.06921,-1.58432 0.09601,-2.33551c0.02585,-0.72513 0.04813,-1.42545 0.078,-2.1015c0.02887,-0.65329 0.10889,-1.89499 0.16867,-2.48434c0.05774,-0.56934 0.20151,-1.63986 0.27866,-2.13931c0.14279,-0.92438 0.35873,-2.10153 0.44284,-3.03268c0.06665,-0.73795 0.0571,-1.77133 0.05716,-2.55066c0.00009,-0.99933 0.00894,-1.87512 0.61066,-2.62085c0.52753,-0.65381 1.37344,-1.3338 2.08936,-1.39548c0.9408,-0.08105 1.29666,0.68539 1.58398,1.76349c0.19653,0.73746 0.43967,1.46219 0.66333,2.42218c0.22711,0.97473 0.57086,1.60239 0.88602,2.64316c0.22372,0.7388 0.06866,1.6731 0.17734,2.57733c0.11154,0.92807 0.46857,1.61469 0.98932,2.42267c0.44476,0.69006 0.92892,1.48297 0.98932,2.34134c0.06616,0.9404 0.01068,1.79465 0.01068,2.59332c0,0.98132 0,1.89868 0,2.71118c0,1.00482 0,1.86816 0,2.76364c0,0.95853 -0.04086,1.64386 0.01068,2.59317c0.04169,0.76785 0.37881,1.75137 0.63666,2.564c0.31265,0.98544 0.34732,1.76398 0.35266,2.71469c0.00497,0.88531 0,1.68533 0,2.58533c0,0.89999 0,1.82083 0,2.78799c0,0.79468 0,1.84534 0,2.48267c0,0.70132 0,1.83835 0,3.02933c0,0.79868 0,1.58936 0,2.36401c0,0.75067 0,1.81448 0,2.79999c0,0.62534 0,1.836 0,2.43335c0,0.86099 0,2.06934 0,2.86099c0,0.84616 0,1.86301 0,2.54166c0,0.97852 0,1.79868 0,2.70001c0,0.89999 0,1.79999 0,2.71066c0,0.91083 0,1.79999 0,2.78949c0,0.82068 0,1.48517 0,2.48386c0,0.81598 0,1.63199 0,2.62933c0,0.84 0,1.92947 0,2.78665l0,0.89999l0,0.80002" id="svg_22" stroke-width="2" stroke="#000" fill="none"/>
  <path t="48817,48976,48976,48997,48997,48997,49001,49001,49001,49018,49018,49018,49030,49030,49030,49030,49030,49030,49041,49041,49041,49041,49041,49041,49041,49041,49050,49050,49050,49050,49050,49050,49050,49050,49050,49060,49060,49060,49061,49061,49074,49074,49074,49074,49090,49090,49098,49110,49110,49124,49124,49124,49140,49140,49140,49148,49148,49148,49148,49159,49159,49159,49159,49159,49159,49176,49177,49177,49177,49191,49191,49192,49192,49198,49198,49209,49209,49224,49224,49240,49246,49259,49273,49290,49295,49295,49307,49332,49344,49345,49357,49358,49376,49376,49376,49382,49382,49382,49393,49393,49393,49409,49443,49444,49530,49546" d="m393,241.89999c0,3.54735 -0.00775,4.22537 0.00015,5.42134c0.00531,0.80405 -0.00821,1.63853 0.22119,2.65733c0.15933,0.70757 0.48447,1.36188 0.65732,2.34317c0.14587,0.82825 0.15359,1.79927 0.28799,2.9115c0.1019,0.84335 0.19016,1.29388 0.33334,2.27084c0.0769,0.52481 0.23239,1.65305 0.33334,2.89581c0.05392,0.66388 0.08514,1.35587 0.1095,2.0715c0.02505,0.73639 0.04803,2.2605 0.05267,3.04199c0.0047,0.79053 0.00449,2.38651 0.00449,3.18585c0,0.79532 0,1.58267 0,2.358c0,0.75934 0,1.49866 0,2.21399c0,0.68735 -0.00464,1.96201 0.00134,3.086c0.00525,0.98804 -0.00894,1.44025 0.05582,2.26752c0.11417,1.45828 0.29132,2.11453 0.51752,3.02847c0.13876,0.56067 0.39252,1.78378 0.42084,2.58502c0.0321,0.90845 0.00449,1.82834 0.00449,2.6825c0,0.97916 0,1.78983 0,2.66449c0,1 0,1.83551 0,2.41919c0,1.19598 0,2.12747 0,2.8035c0,0.74799 0,2.05615 0,2.54532c0,1.03333 0,1.5675 0,2.64584c0,0.53415 -0.0065,2.05771 0.00449,2.98199c0.01019,0.85641 0.01337,1.65732 0.16217,2.75217c0.09293,0.68375 0.34564,1.62201 0.48068,2.20499c0.29428,1.27039 0.34222,1.9407 0.35266,2.96167c0.00806,0.78931 0,1.83334 0,2.58936c0,0.91064 0,1.81064 0,2.71066c0,0.89999 0,1.79999 0,2.69998c0,0.80002 0,1.70001 0,2.63602c0,0.84933 0,1.76849 0,2.76398c0,0.80002 0,1.80017 0,2.41068c0,0.87466 0,1.87466 0,2.71017c0,0.88049 0,1.77884 0,2.65784c0,0.80701 0,1.85065 0,2.82132l0,0.80002l0,0.89999l0,0.89999" id="svg_23" stroke-width="2" stroke="#000" fill="none"/>
  <path t="50935,51142,51142,51155,51155,51183,51199,51228,51228,51327,51389,51389" d="m381,365.89999c1.83334,0.16669 2.10294,0.88989 2.86133,1.38934c0.61154,0.40274 1.75256,0.58966 2.53867,1.03601c0.72525,0.4118 1.48535,0.57333 2.42535,0.57465l1.008,0l0.75598,0" id="svg_24" stroke-width="2" stroke="#000" fill="none"/>
  <path t="53471,53655,53655,53668,53668,53668,53680,53680,53680,53696,53696,53696,53696,53713,53713,53713,53716,53716,53716,53726,53726,53726,53740,53740,53740,53756,53764,53764,53776,53776,53776,53789,53790,53790,53790,53807,53807,53808,53813,53813,53813,53825,53825,53839,53839,53840,53857,53857,53874,53875,53899,53899,53936,53936,53955,53955,53961,53961,53973,53973,53990,53990,53991,53998,53998,54011,54098,54115,54135,54136,54157,54157,54183,54183,54195,54195,54207,54207,54222,54232,54232,54243,54244,54244" d="m253,320.89999c0,2.60452 0,3.45718 0,4.42151c0,0.81448 -0.00423,1.68301 0.00017,2.87851c0.00221,0.59998 -0.0161,1.50681 0.1665,2.69998c0.09253,0.60458 0.34776,1.50198 0.53783,2.10001c0.38268,1.20398 0.58452,1.79938 0.89551,2.664c0.38641,1.07431 0.73656,1.76846 0.96399,2.46133c0.3857,1.17505 0.39949,2.00116 0.46133,2.54935c0.11972,1.06131 0.44016,1.96448 0.69067,2.73865c0.31439,0.97156 0.284,1.80835 0.284,2.73334c0,0.92001 0,1.71051 0,2.564c0,1.18933 -0.02109,1.7901 0.02084,2.68933c0.04202,0.90134 0.17477,1.80649 0.41516,2.68933c0.15781,0.57953 0.54657,1.6517 0.96399,2.57468c0.28809,0.63702 0.80002,1.63599 1.10001,2.23599c0.5,1 0.76526,1.61517 1.20001,2.34283c0.55673,0.93176 1.15323,1.50952 1.59549,2.31433c0.39691,0.72223 0.65213,1.73901 0.69382,2.50684c0.05161,0.95065 0.05161,1.72134 0,2.672c-0.04169,0.76785 -0.37076,1.754 -0.63666,2.564c-0.25977,0.79138 -0.30173,1.62943 -0.51932,2.76669c-0.15097,0.789 -0.43546,1.56479 -0.66669,2.5c-0.18927,0.76556 -0.6456,1.56369 -1.336,2.04932c-0.73419,0.51642 -1.64499,0.4899 -2.45599,0.85867c-0.84225,0.383 -1.60249,0.37817 -2.57449,0.64667c-0.79779,0.22037 -1.62306,0.69046 -2.55284,0.77417c-0.89638,0.08072 -1.59467,0.00467 -2.62199,0.00449c-0.94684,-0.00018 -1.64616,-0.04166 -2.62534,-0.33331l-0.78934,-0.51733l-0.5535,-0.444" id="svg_25" stroke-width="2" stroke="#000" fill="none"/>
  <path t="55714,55857,55858,55858,55870,55870,55870,55871,55871,55871,55884,55884,55884,55884,55884,55884,55885,55900,55900,55900,55900,55900,55901,55907,55907,55907,55907,55924,55924,55924,55924,55924,55931,55931,55931,55931,55941,55941,55958,55958,55974,55974,55979,55979,55979,55991,55991,55991,56007,56007,56007,56007,56024,56024,56024,56030,56030,56041,56057,56058,56066,56078,56090,56108,56115,56126,56127,56140,56141,56141,56158,56158,56158,56164,56164,56175,56175,56176,56191,56191,56207,56207,56213,56225,56241,56241,56257,56258,56263,56274,56274,56291,56307,56311,56312,56324,56324,56324,56340,56341,56341,56341,56348,56349,56349,56349,56349,56349,56361,56361,56361,56361,56374,56374,56374,56374,56391,56391,56410,56410,56596,56614,56631,56635,56635,56644,56644,56644,56657,56657,56657,56673,56674,56674,56681,56681,56693,56693,56717,56717,56755,56779,56804,56829,56841,56857,56857,56866,56866,56877,56877,56877,56889,56890,56907,56907,56907,56915,56915,56927,56927,57039,57039,57065,57087" d="m150,220.89999c0,2.02785 0.00005,2.92934 0,3.65868c-0.00009,1.30583 0.00365,1.79739 -0.01067,2.84933c-0.00754,0.55453 -0.01019,1.12473 -0.07466,2.29599c-0.06589,1.19695 -0.12103,1.79773 -0.27634,2.9915c-0.07739,0.59488 -0.16353,1.1869 -0.40001,2.34734c-0.11688,0.57355 -0.55325,2.23734 -0.72232,2.76917c-0.32892,1.0347 -0.5121,1.52695 -0.86334,2.46918c-0.16682,0.44751 -0.6412,1.67264 -0.89549,2.4135c-0.36081,1.05119 -0.56773,1.77034 -0.85718,2.948c-0.10429,0.4243 -0.29826,1.30838 -0.5,2.20667c-0.1983,0.88304 -0.49657,2.10838 -0.6955,2.83183c-0.18071,0.65715 -0.47546,1.52124 -0.61917,2.53349c-0.1234,0.86914 -0.08533,1.88518 -0.08533,2.66451c0,0.99968 0,1.83067 0,2.79149c0,0.77103 0,1.63202 0,2.52936c0,0.89999 0,1.79999 0,2.69998c0,0.89999 0,1.80002 0,2.39999c0,1.19867 0,2.07919 0,2.91467c0,0.99869 0,1.83868 0,2.80002c0,0.88531 0,1.68533 0,2.58533c0,0.89999 0,1.79999 0,2.69998c0,0.90002 0,1.80267 0,2.57068c0,1.04367 0,1.57101 0,2.43201c0,1.19598 0,2.07651 0,2.91199c0,1 0,1.66452 0,2.68533c0,0.80002 0,1.60001 0,2.60001c0,0.79999 0,1.79868 0,2.74283c0,0.89999 0.15642,1.90689 -0.16667,2.65717c-0.30679,0.7124 -1.077,1.46204 -1.39732,2.17468c-0.4115,0.91553 -0.6566,1.79199 -1.01067,2.42532c-0.48151,0.86127 -0.42534,1.79999 -0.42534,2.70901c0,0.66165 0,1.70981 0,2.54831c0,0.63068 0,1.66452 0,2.80002c0,0.40515 -0.00047,1.26151 0,2.67599c0.00017,0.50916 0.00246,1.56769 0.02133,2.10666c0.03763,1.07388 0.10016,2.11636 0.312,3.06c0.19196,0.8551 0.51546,1.59818 0.85201,2.26801c0.62494,1.24387 0.95648,1.82001 1.27299,2.71118c0.19804,0.55759 0.38672,1.60443 0.54167,2.47916c0.1821,1.02789 0.45407,1.85715 1,2.52084c0.50418,0.61295 1.00508,-0.25845 1.35716,-1.13635c0.30675,-0.76486 0.75497,-1.5372 1.14284,-2.36365c0.30975,-0.66003 0.70612,-1.66235 1,-2.5c0.20425,-0.58221 0.59468,-1.78067 0.8,-2.37018c0.29245,-0.83966 0.67012,-1.79437 1.09999,-2.44766c0.56207,-0.85422 0.83202,-1.62366 1.60001,-2.328c0.60944,-0.55893 0.99933,-1.13467 1,-2.03333c0.00067,-0.90002 0.11145,-1.8696 -0.35716,-2.60001c-0.5132,-0.79993 -1.3125,-1.29956 -1.55884,-2.18533c-0.19653,-0.70673 -0.24998,-1.73926 -0.62567,-2.51468c-0.30177,-0.62286 -0.98325,-1.36716 -1.597,-2.19998c-0.56866,-0.77164 -0.77271,-1.60541 -0.944,-2.40002c-0.17384,-0.8064 -0.56303,-1.58109 -0.79599,-2.59982c-0.17583,-0.76886 -0.34267,-1.77866 -0.76868,-2.49567l-0.33183,-0.8045l-0.02083,-0.91064" id="svg_26" stroke-width="2" stroke="#000" fill="none"/>
 </g>
 <g display="none">
  <title>muse_image</title>
  <image xlink:href="http://farm1.static.flickr.com/74/197941804_520419630f.jpg" id="muse" height="480" width="640" y="0" x="0"/>
 </g>
 <g display="none">
  <title>bbox</title>
  <rect stroke="#f00" fill="none" stroke-width="3" height="258.56" width="309.76" y="102.4" x="206.08" id="bbox"/>
 </g>
</svg>
