<svg width="640" height="480" xmlns="http://www.w3.org/2000/svg" xmlns:svg="http://www.w3.org/2000/svg" xmlns:xlink="http://www.w3.org/1999/xlink">
 <!-- Sketchy ANNOTATION
  ImageNet ID: n02503517_10275
  URL: http://farm2.static.flickr.com/1175/692108952_9532cbf31a.jpg
  Image Width: 403
  Image Height: 500
  BBox X: 12
  BBox Y: 45
  BBox Width: 380
  BBox Height: 444
  Exposure: 2000ms
  Synset Label: elephant
  Synset ID: n02503517
  Worker Tag: Elephant walking forward
  Sanity Check: 
   Saved
  Comment: 
   {}
  Worker ID: A1P7U2ULSAE7YL
  Assignment ID: 37C0GNLMHF3UPGHX6X7BD66WIOX6D3
  HIT ID: 3SZYX62S5G0G2JIFKZPIWONFVX057P
  Work Time: 92s
  Worker Score: 0.7857
 END ANNOTATION -->
 <g display="inline">
  <title>Layer 1</title>
  <path t="0,165,189,205,213,229,253,261,285,285,308,309,317,325,333,349,365,381,390,407,421,429,453,453,461,484,493,493,509,525,533,541,558,565,581,589,597,597,613,621,629,637,645,660,668,668,677,701,709,709,717,733,741,758,758,766,774,790,790,798,798,822,830,830,838,846,854,862,870,885,894,894,901,925,942,950,958,958,966,981,990,998,1006,1014,1030,1038,1046,1062,1070,1078,1085,1101,1110,1117,1126,1126,1134,1158,1166,1176,1190,1198,1198,1207,1207,1214,1225,1230,1238,1254,1270,1270,1278,1286,1294,1310,1310,1318,1328,1334,1334,1350,1358,1358,1366,1366,1375,1382,1382,1398,1408,1423,1430,1430,1438,1460,1470,1478,1486,1502,1502,1518,1518,1534,1550,1550,1557,1566,1576,1576,1582,1597,1613,1613,1622,1639,1646,1654,1670,1678,1694,1701,1710,1733,1742,1758,1766,1775,1782,1792,1798,1829,1830,1837,1854,1862,1870,1878,1885,1894,1902,1910,1933,1950,1958,1981,1991,1992,2006,2022,2030,2038,2039,2046,2046,2055,2055,2062,2069,2085,2094,2101,2111,2118,2134,2134,2142,2142,2150,2158,2166,2175,2182,2182,2191,2191,2208,2222,2222,2239,2239,2246,2246,2256,2270,2287,2287,2298,2310,2318,2326,2334,2350,2350,2359,2359,2366,2366,2375,2383,2384,2384,2391,2398,2406,2414,2414,2414,2427,2427,2431,2431,2439,2439,2446,2455,2462,2462,2470,2470,2478,2478,2487,2487,2494,2494,2504,2517,2526,2534,2534,2542,2542,2550,2558,2558,2566,2574,2582,2592,2598,2598,2610,2610,2614,2614,2615,2622,2630,2638,2638,2646,2646,2646,2656,2662,2662,2671,2672,2678,2678,2688,2694,2695,2702,2710,2710,2718,2718,2718,2726,2726,2749,2750,2758,2758,2766,2766,2774,2774,2774,2782,2790,2798,2798,2808,2817,2817,2822,2822,2830,2830,2838,2838,2846,2855,2855,2855,2862,2863,2872,2872,2879,2879,2886,2886,2895,2903,2903,2910,2910,2918,2918,2927,2927,2927,2934,2934,2943,2943,2943,2950,2950,2950,2959,2960,2966,2966,2975,2975,2982,2991,2991,3001,3001,3007,3007,3014,3014,3025,3030,3030,3045,3045,3046,3047,3055,3055,3062,3062,3072,3072,3086,3094,3094,3102,3102,3110,3110,3128,3128,3134,3142,3143,3150,3159,3177,3178,3192,3193,3198,3209,3214,3228,3238,3246,3254,3270,3278,3287,3294,3310,3318,3318,3326,3334,3357,3366,3374,3381,3382,3397,3397,3413,3414,3424,3424,3444,3469,3485,3486,3494,3509,3518,3566,3598,3598,3606,3606,3614,3624,3630,3645,3646,3669,3693,3693,3709,3765,3781,3782,3790" d="m329.51135,106.09091c-1.69998,0 -2.59998,0 -3.5,0c-0.89999,0 -1.88931,0 -2.78531,0c-0.81467,0 -1.71469,0 -2.60001,0c-0.94,0 -1.73807,-0.42507 -2.668,0.036c-0.70718,0.35064 -1.2482,0.94537 -2.14667,0.964c-0.90051,0.01867 -1.71603,0.41823 -2.216,1.19867c-0.46664,0.72845 -1.284,0.80133 -2.18399,0.80133c-0.90002,0 -1.83038,-0.39299 -2.61469,0.08533c-0.80374,0.49018 -1.24362,1.14861 -1.98532,1.562c-0.7637,0.42564 -1.50778,0.88412 -2.39984,1.23117c-0.83017,0.32298 -1.0181,0.90375 -1.47482,1.7215c-0.43149,0.77257 -1.03235,1.32846 -1.62534,1.968c-0.47977,0.51744 -1.13559,1.27487 -1.77466,1.85733c-0.58597,0.53405 -1.47385,0.97087 -1.90402,1.6745c-0.47565,0.77799 -1.17053,1.20406 -1.82132,1.5475c-0.88889,0.46909 -1.66718,0.69997 -2.30002,1.35267c-0.57321,0.5912 -0.68646,1.45346 -1.01065,2.38934c-0.23965,0.69186 -1.24252,1.15077 -1.55334,1.796c-0.43076,0.89417 -0.84775,1.57476 -1.53583,2.25749c-0.49078,0.48695 -0.53018,1.65709 -0.98416,2.27051c-0.56116,0.75819 -1.21683,1.33751 -1.56332,1.98666c-0.45337,0.84938 -0.30731,1.86078 -0.96335,2.32533c-0.71844,0.50873 -1.34662,1.17165 -1.38934,2.07468c-0.04254,0.89899 0,1.7 0,2.59999c0,0.864 -0.54504,1.55318 -0.87848,2.40001c-0.3327,0.84502 -0.12152,1.7 -0.12152,2.59999c0,0.90001 0,1.8 0,2.7c0,0.90001 0,1.8 0,2.69984c0,0.87483 0,1.70149 0,2.60016c0,0.90001 0,1.8 0,2.7c0,0.90001 0,1.8 0,2.70001c0,0.89999 0,1.7 0,2.61465c0,0.89601 -0.00226,1.78534 0,2.68533c0.00226,0.90453 0.12704,1.78432 0.436,2.42534c0.5015,1.0405 1.21457,1.57498 1.47867,2.37466c0.28351,0.85844 -0.33444,2.01828 0.25201,2.63333c0.59277,0.62166 1.29987,1.01126 1.54932,1.68401c0.34174,0.9216 1.03223,1.48083 1.24802,2.34399c0.2359,0.94363 0.03101,1.74899 0.46133,2.53867c0.44907,0.82407 0.69641,1.63692 1.29065,2.31467c0.59842,0.68251 1.39685,1.20087 1.84802,1.92134c0.4873,0.77817 0.32965,1.58528 0.72,2.47867c0.41714,0.95474 0.70193,1.60768 1.14133,2.32133c0.47568,0.77257 0.32648,1.80063 0.90799,2.564c0.4975,0.65309 1.38956,0.89259 1.70267,1.61067c0.35178,0.80676 0.92126,1.5863 0.96399,2.48933c0.04251,0.89899 0,1.65717 0,2.55266c0,0.86334 0,1.84734 0,2.83c0,0.8075 0,1.68533 0,2.53816c0,0.95767 0,1.77783 0,2.67917c0,0.936 0,1.784 0,2.64734c0,0.89549 0,1.85266 0,2.7525c0,0.90016 0,1.70149 0,2.60016c0,0.90001 0,1.8 0,2.7c0,0.90001 0,1.8 0,2.70001c0,0.89999 0.44608,1.44763 0.91467,2.18533c0.43912,0.6913 0.47418,1.39391 1.25201,1.88133c0.61121,0.38303 0.82416,1.45154 1.25867,2.23332c0.45535,0.81932 1.14145,1.27771 1.53867,2.03601c0.39926,0.76222 0.70654,1.37085 1.01517,2.08482c0.34894,0.80722 -0.2226,1.81053 0.02533,2.77467c0.18359,0.71393 1.37225,0.52104 2.09534,0.92599c0.73737,0.41295 0.89081,1.39682 1.3255,2.1785c0.45645,0.82082 0.91467,1.59122 1.57465,2.10001c0.76523,0.58992 1.13373,1.34142 1.85068,1.89999c0.55667,0.43369 0.98975,1.32162 1.58533,1.98933c0.61694,0.69167 1.30319,1.21835 2,1.57468c0.84982,0.43456 1.47818,0.60193 1.92117,1.3405c0.3761,0.62706 0.81439,1.44252 1.44284,2.12616c0.65082,0.70796 1.10727,1.37868 1.63599,1.95866c0.62589,0.68658 1.75928,0.71684 2.37866,1.04668c0.90189,0.48027 1.14273,1.32512 1.70618,2.064c0.59201,0.77634 1.20776,1.23831 1.67917,1.98399c0.42648,0.67464 0.98175,1.64691 1.5,2.2115c0.66653,0.72612 1.23911,1.39839 1.29999,2.3045c0.05362,0.79819 -0.18375,1.7265 0.03601,2.60001c0.21707,0.86282 0.84689,1.60245 0.96399,2.45267c0.13126,0.95288 0.64917,1.5574 1.09985,2.26865c0.41614,0.65674 0.82095,1.65207 0.89883,2.47736c0.08212,0.87024 0.22003,1.74475 0.42667,2.452c0.28702,0.98239 0.51096,1.93091 0.57465,2.83331c0.05188,0.73523 0.26541,1.69073 0.52084,2.41602c0.26041,0.73938 0.87857,1.63708 1.19385,2.38266c0.38379,0.90759 0.28464,1.71866 0.28531,2.71283c0.00061,0.91919 -0.08603,1.87686 0.08536,2.65918c0.1824,0.83258 0.45602,1.53894 1.0145,2.60251c0.33868,0.64502 0.82916,1.45947 0.8895,2.35349c0.06662,0.98697 0.01065,1.76849 0.01065,2.76782c0,0.82019 0,1.66434 0,2.54236c0,0.88983 -0.09158,1.8093 0.03601,2.65381c0.14523,0.96127 0.81039,1.59222 0.95334,2.46133c0.16501,1.00327 0.01065,1.71133 0.01065,2.72803c0,0.93597 0,1.836 0,2.73599c0,0.89999 0,1.65717 0,2.56165c0,0.80002 0,1.75952 0,2.55301c0,0.77551 0,1.97101 0,2.88535c0,0.89999 0,1.57199 0,2.668c0,0.73199 0,1.46399 0,2.57065c0,0.98267 0,1.66135 0,2.64001c0,0.90533 0,1.84665 0,2.53732c0,0.98401 0,1.96802 0,2.83133c0,0.90002 0,1.81934 0,2.67352c0,0.97916 0,1.77914 0,2.57916c0,0.991 0,1.82932 0,2.84283c0,0.74249 0,1.6745 0,2.52649c0,0.79999 0,1.81601 0,2.86401c0,0.70499 0,1.50497 0,2.53067c0,0.93597 0,1.83731 0,2.52133c0,0.93997 0.00061,1.948 0,2.73999c-0.00067,0.85999 0.02145,1.80057 -0.28531,2.77332c-0.18842,0.59744 -0.87836,1.53622 -1.27869,2.19067c-0.48172,0.78751 -0.41269,1.7446 -0.44666,2.66135c-0.02759,0.74493 -0.31732,1.75937 -0.63666,2.4975c-0.31134,0.71967 -0.35043,1.65634 -0.35269,2.65182c-0.0018,0.80002 0.00409,1.79968 0,2.55835c-0.00534,0.99103 -0.40112,1.73737 -0.64731,2.45065c-0.33487,0.97028 -0.34735,1.79099 -0.35269,2.79102c-0.00427,0.79999 0.06302,1.80417 -0.02133,2.59998c-0.08578,0.8093 -0.5686,1.5845 -1.12799,2.40002c-0.53888,0.78564 -0.8071,1.60852 -0.84167,2.25714c-0.05133,0.96286 -0.009,1.76819 -0.009,2.59018c0,1.26599 0,1.91101 0,2.93134c0,0.90533 0.00729,1.84668 0,2.53732c-0.01041,0.98416 -0.30197,1.96072 -0.57465,2.65866c-0.36423,0.93222 -0.42468,1.70935 -0.42535,2.66135c-0.00055,0.76532 0.09769,1.7738 -0.05716,2.50684c-0.22437,1.06207 -0.87793,1.75052 -0.93832,2.4715c-0.07962,0.95035 0.01044,1.68576 -0.00452,2.85233c-0.01041,0.81271 -0.23929,1.64795 -0.5,2.35419c-0.35822,0.97031 -0.48199,1.76804 -0.5,2.8125c-0.01389,0.80487 0,1.70831 0,2.65198c0,0.72534 0,1.71451 0,2.49384c0,0.99951 0,1.90485 0,2.84616c0,0.69067 0,1.67468 0,2.65869c0,0.86331 0,1.75882 0,2.716c0,0.90015 0,1.68533 0,2.62531c0,0.69067 -0.0054,1.76404 0,2.67468c0.00534,0.90005 0.50015,1.5585 0.87851,2.37866c0.34967,0.75797 0.12149,1.72134 0.12149,2.62134c0,0.89999 0,1.79999 0,2.70001c0,0.89999 0,1.79999 0,2.59998c0,0.90002 0,1.76401 0,2.72086c0,0.87915 -0.11664,1.82233 0.22134,2.57932c0.31924,0.715 0.69254,1.5625 0.83133,2.30435c0.18774,1.0036 0.51505,1.7869 1.04718,2.57397c0.50375,0.74509 0.7308,1.53912 0.91083,2.42151c0.19278,0.94492 0.88092,1.32269 1.46851,2.10001c0.55759,0.73761 0.36234,1.71414 0.52115,2.60001c0.16934,0.94458 0.82819,1.36969 1.83301,1.73334c0.78455,0.28394 1.26154,0.86218 1.96802,1.25064c0.84842,0.46649 1.69202,0.78384 2.37332,0.94135c1.0885,0.25162 1.81271,0.88959 2.62534,0.97333c0.83841,0.0864 1.74167,0.00134 2.68265,0.00269l0.80753,0.05582l0.72449,0.51752" id="svg_1" stroke-width="2" stroke="#000" fill="none"/>
  <path t="5447,5558,5574,5582,5582,5590,5614,5622,5630,5646,5662,5662,5670,5678,5702,5702,5718,5734,5734,5743,5743,5752,5758,5774,5791,5807,5822,5839,5839,5855,5862,5878,5888,5894,5905,5910,5926,5935,5952,5952,5952,5959,5966,5967,5975,5998,5998,6014,6014,6030,6054,6063,6078,6078,6088,6105,6110,6121,6121,6126,6150,6158,6158,6168,6183,6191,6207,6214,6214,6223,6246,6254,6262,6272,6278,6288,6304,6305,6310,6321,6321,6326,6342,6358,6368,6374,6382,6398,6398,6407,6422,6430,6446,6462,6470,6478,6486,6505,6526,6542,6542,6566,6574,6574,6590,6598,6606,6622,6622,6639,6662,6686,6702,6718,6718,6726,6726,6750,6766,6782,6790,6822,6830,6846,6846,6862,6870,6878,6894,6904,6910,6926,6942,6951,6959,6974,6984,6990,7006,7014,7030,7038,7038,7047,7062,7078,7087,7094,7110,7118,7134,7158,7182,7190,7215,7230,7239,7254,7278,7294,7294,7303,7320,7326,7336,7358,7367,7390,7400,7414,7430,7438,7446,7446,7462,7471,7487,7503,7518,7537,7537,7542,7543,7553,7567,7574,7583,7590,7600,7615,7638,7654,7654,7662,7678,7678,7686,7694,7703,7720,7720,7726,7736,7753,7753,7769,7774,7783,7790,7806,7814,7815,7838,7862,7870,7886,7894,7895,7903,7926,7937,7952,7959,7967,7974,7990,8014,8014,8022,8022,8030,8046,8055,8071,8079,8102,8110,8126,8136,8136,8142,8158,8169,8169,8174,8190,8199,8206,8222,8248,8255,8262,8286,8294,8318,8334,8342,8358,8374,8390,8406" d="m333.51135,105.09091c0.436,-1.42533 1.25363,-1.78903 2.10001,-2.22134c0.6553,-0.33472 1.49994,-0.77333 2.39999,-0.77866c0.89999,-0.00533 1.80331,0.07568 2.70135,-0.00134c0.9758,-0.08369 1.55701,-0.5672 2.55582,-0.87717c0.75821,-0.2353 1.72684,-0.1215 2.41751,-0.1215c1.07266,0 1.992,0 2.82532,0c0.97852,0 1.69553,0 2.60001,0c0.89999,0 1.80002,0 2.70001,0c0.89999,0 1.79999,0 2.69998,0c0.80002,0 1.70001,0 2.60001,0c0.89999,0 1.80002,0 2.70001,0c0.89865,0 1.78201,0.08733 2.40451,0.7045c0.59808,0.59293 1.45435,1.17852 2.1315,1.2595c0.76068,0.09097 2.07761,-0.29313 2.83066,0.20267c0.63382,0.4173 0.8237,1.44682 1.81732,1.74934c0.66895,0.20367 1.5899,0.44056 2.31467,0.8c0.86197,0.42749 1.66443,0.85758 2.50134,1.23134c0.77216,0.34483 1.33716,0.82794 2.10001,1.442c0.74554,0.60011 1.75345,0.42931 2.59998,0.77733c0.67108,0.27589 1.5325,0.69778 2.28534,1.11733c0.78738,0.4388 1.53867,0.55404 2.31467,0.752c0.86212,0.21992 1.60464,0.83907 2.5,0.96417c0.90646,0.12666 1.39294,0.79303 1.89999,1.479c0.487,0.65883 1.39618,0.95249 2.19867,1.43684c0.74066,0.44703 0.55441,1.46374 1.15851,2.03133c0.6618,0.6218 1.44315,0.85369 2.04285,1.45267c0.70035,0.69948 1.44925,1.00732 2.164,1.62533c0.61731,0.53374 1.09869,1.02245 1.48865,1.67917c0.46597,0.78473 0.77829,1.6481 1.23135,2.4955c0.34857,0.65199 0.77762,1.42795 1.51733,1.884c0.68643,0.42319 1.17996,1.31548 1.19864,2.216c0.01862,0.89847 0.34802,1.48384 1.09985,1.92133c0.82565,0.48045 0.89035,1.44029 1.18417,2.26266c0.25211,0.70566 0.67325,1.62759 0.71597,2.51601c0.03842,0.79909 0.41772,1.5544 0.87851,2.2215c0.50406,0.72971 0.12149,1.7785 0.12149,2.57851c0,0.91466 -0.16226,1.82948 0.02084,2.7c0.17914,0.85162 0.8656,1.65833 0.94318,2.32533c0.11652,1.00189 0.03598,1.87016 0.03598,2.77467c0,0.89999 0,1.79999 0,2.6955c0,0.92599 0,1.8045 0,2.7045c0,0.8 0,1.7 0,2.60001c0,0.89999 0,1.79999 0,2.7c0,0.89999 0,1.79984 0,2.7c0,0.80133 0,1.7 0,2.60001c0,0.89999 0,1.79999 0,2.7c0,0.89999 0,1.8 0,2.7c0,0.8 0.14142,1.52765 0.64734,2.05716c0.56851,0.595 0.35266,1.64284 0.35266,2.54285c0,0.89999 0,1.79999 0,2.7c0,0.89999 0,1.8 0,2.7c0,0.83333 0.68646,1.44124 0.94284,2.3c0.25797,0.86412 0.05716,1.8 0.05716,2.7c0,0.8 -0.01068,1.70006 0,2.60001c0.01044,0.87935 0.7749,1.33658 0.99551,2.10449c0.25909,0.90187 0.00449,1.81633 0.00449,2.6955c0,0.90001 0,1.8 0,2.70001c0,0.89999 0,1.7 0,2.59999c0,0.90001 0,1.8 0,2.7c0,0.90451 0,1.92134 0,2.60001c0,0.9785 0,1.79866 0,2.7c0,0.90001 0.00226,1.8 0,2.7c-0.00226,0.89552 -0.58051,1.54021 -0.98932,2.17467c-0.46832,0.72682 -1.01102,1.42502 -1.61066,2.02534c-0.599,0.59967 -1.16245,1.42628 -1.45267,2.09999c-0.36264,0.8418 -0.81183,1.60855 -0.94867,2.5c-0.14059,0.91579 -0.61182,1.51514 -1.02402,2.40001c-0.3797,0.81512 -1.15897,1.43318 -1.53867,2c-0.55161,0.82344 -0.18829,1.83623 -0.44049,2.6955c-0.22662,0.77208 -1.40024,0.85019 -1.82883,1.7045c-0.36633,0.73018 -0.04855,1.83586 -0.6875,2.47917c-0.63785,0.64221 -1.42963,0.88206 -1.47934,1.842c-0.04233,0.8172 -0.46771,1.40337 -1.28384,1.68016c-0.76428,0.25922 -0.6987,1.31001 -1.216,1.99867c-0.46997,0.62567 -0.38852,1.56958 -0.85715,2.3c-0.51321,0.79993 -1.26544,1.27827 -1.84149,1.89999c-0.53787,0.58051 -0.78995,1.51474 -0.80136,2.41068c-0.01105,0.86868 -0.72375,0.97255 -1.564,1.42532c-0.72894,0.39281 -0.95334,1.31439 -1.35199,2.164c-0.40372,0.86044 -0.84827,1.44615 -1.47333,2.2c-0.54517,0.65749 -0.8446,1.55829 -1.258,2.3c-0.42563,0.76369 -0.64267,1.69308 -1.45251,2.17867c-0.72961,0.43747 -1.33002,0.76959 -1.81482,1.40668c-0.55557,0.73009 -0.65213,1.39236 -1.04935,2.15067c-0.39926,0.76222 -0.70737,1.37048 -1.01517,2.08482c-0.38754,0.89946 -0.02084,1.87917 -0.02084,2.77916l0,0.90002l0,0.89981" id="svg_2" stroke-width="2" stroke="#000" fill="none"/>
  <path t="9622,9710,9719,9719,9726,9726,9734,9735,9742,9750,9750,9758,9774,9782,9782,9782,9799,9799,9806,9806,9806,9814,9814,9822,9822,9830,9838,9838,9847,9854,9854,9863,9863,9870,9870,9879,9886,9894,9894,9902,9910,9918,9926,9926,9934,9934,9942,9950,9974,9974,9982,9982,9990,9990,9998,10006,10014,10022,10030,10030,10038,10046,10054,10063,10070,10078,10078,10086,10094,10094,10102,10110,10118,10126,10126,10134,10134,10134,10142,10142,10150,10158,10166,10174,10174,10184,10190,10190,10198,10206,10214,10214,10222,10230,10238,10246,10254,10270,10270,10280,10280,10286,10286,10294,10302,10310,10318,10318,10326,10326,10334,10342,10342,10351,10358,10366,10374,10382,10382,10390,10398,10406,10406,10422,10430,10430,10438,10446,10463,10463,10470,10480,10486,10494,10494,10502,10502,10510,10518,10526,10550,10550,10558,10566,10582,10598,10598,10606,10606,10614,10630,10646,10654,10654,10663,10670,10680,10686,10694,10702,10710,10718,10742,10742,10750,10758,10766,10774,10782,10790,10798,10806,10814,10830,10846,10854,10854,10862,10879,10886,10902,10910,10918,10918,10926,10942,10950,10959,10959,10966,10966,10974,10974,10990,10990,10998,11015,11031,11031,11047,11047,11062,11062,11070,11094,11094,11102,11110,11118,11126,11134,11134,11151,11166,11174,11350,11398,11414,11430,11430,11454,11486,11502,11510,11558,11582,11614,11630,11654,11670,11686,11696,11712,11726,11742,11782,11806,11806,11878,11926,11934,11958,11974,11990,12030,12086,12110,12118,12128,12150,12167,12268,12275,12313,12414,12438,12447,12478,12494,12518,12527" d="m381.51135,261.09091c-0.97464,1.82532 -1.08826,2.883 -1.52081,3.47916c-0.58163,0.80167 -1.28119,1.38547 -1.422,2.17352c-0.15216,0.85162 -0.02393,1.84793 -0.0585,2.82999c-0.02847,0.80893 -0.64478,1.30917 -1.29416,1.879c-0.72772,0.63852 -0.59341,1.50418 -0.87384,2.23965c-0.40381,1.05908 -1.08218,1.5412 -1.49734,2.39868c-0.36819,0.76053 -0.33438,1.62619 -0.69049,2.59549c-0.28418,0.77356 -1.04495,1.58109 -1.35751,2.20319c-0.44839,0.89249 -0.28534,1.854 -0.28534,2.54865c0,1.02734 0.00003,1.97418 0,2.67352c-0.00009,1.17899 0.11578,1.99329 -0.16666,2.8125c-0.28,0.81213 -0.68271,1.57919 -0.83783,2.46664c-0.16226,0.92834 -0.82874,1.47168 -0.991,2.40002c-0.15512,0.88745 -0.54636,1.65854 -0.83783,2.46664c-0.28833,0.79944 -0.42099,1.79391 -0.74133,2.42267c-0.45236,0.88788 -0.42535,1.80002 -0.42535,2.74402c0,0.70831 0,1.66666 0,2.45599c0,1.04401 0,1.90616 0,2.81067c0,0.89999 0.11649,1.80814 -0.00449,2.69998c-0.11142,0.82135 -0.84732,1.46863 -0.991,2.40002c-0.13724,0.8895 -0.00452,1.79999 -0.00452,2.69998c0,0.89999 0,1.80133 0,2.48535c0,0.93997 0,1.948 0,2.81015c0,0.90451 0.00006,1.8045 0,2.60901c-0.00009,1.017 0.05933,1.73166 -0.16666,2.6955c-0.19193,0.81857 -0.6264,1.58554 -0.77615,2.59549c-0.10989,0.74109 -0.05719,1.76852 -0.05719,2.60452c0,0.89999 0,1.79999 0,2.59998c0,0.95718 0,1.85269 0,2.716c0,0.96317 0.11111,1.82834 -0.284,2.68533c-0.33871,0.73468 -0.698,1.61276 -0.716,2.46533c-0.01804,0.854 0,1.73334 0,2.63785c0,1.017 0,1.71634 0,2.6955c0,0.78934 0,1.83334 0,2.58932c0,0.91068 0,1.81067 0,2.71518c0,1.01682 0,1.6955 0,2.67398c0,0.82019 0,1.77869 0,2.67419c0,0.86331 0,1.71133 0,2.64731c0,0.90002 0,1.80002 0,2.70001c0,0.79999 0,1.70001 0,2.63599c0,0.84802 0,1.71133 0,2.73868c0,0.94666 0,1.62534 0,2.60367c0,0.939 0,1.73151 0,2.539c0,0.96182 0,1.88266 0,2.78717c0,1.01682 0,1.6955 0,2.67398c0,0.82019 0.41269,1.84494 -0.05716,2.66434c-0.39441,0.68784 -0.94284,1.35718 -0.94284,2.15717c0,0.90002 0.10223,1.80804 -0.02081,2.72086c-0.11026,0.81799 -0.55942,1.47626 -0.8125,2.47916c-0.19318,0.76553 -0.16669,1.82935 -0.16669,2.61066c0,0.91019 0.21631,1.91766 -0.05716,2.6795c-0.30081,0.83798 -0.94058,1.41434 -0.94284,2.30984c-0.00226,0.89999 0,1.79999 0,2.69998c0,0.89868 0,1.75269 0,2.70001c0,0.79999 0.36316,1.79691 -0.03598,2.564c-0.39514,0.75937 -0.96335,1.23734 -0.96402,2.13602c-0.00067,0.89999 0,1.79999 0,2.69998c0,0.89551 0,1.8215 0,2.70001c0,0.89999 0.01797,1.70016 0,2.60001c-0.01801,0.90054 -0.6181,1.61032 -0.91464,2.5c-0.28589,0.85764 -0.08536,1.79999 -0.08536,2.59998c0,0.91467 0,1.81067 0,2.72086c0,0.96448 -0.01303,1.68991 0.00018,2.67899c0.01041,0.77954 0.26114,1.75854 0.57449,2.42551c0.39291,0.83633 0.2691,1.82367 0.7825,2.61301c0.47757,0.73428 1.54105,1.08438 1.62201,1.7825c0.11038,0.95166 0.0405,1.745 0.3735,2.63184c0.26526,0.70639 0.47943,1.77921 0.93265,2.54733c0.40213,0.68158 1.23697,1.24313 2.01016,1.74731c0.70087,0.457 0.85019,1.45743 1.7045,1.88602c0.73019,0.3663 1.70007,0.15598 2.60001,0.16666c0.87936,0.01044 1.39932,0.63068 1.39999,-0.2215c0.00067,-0.87851 0,-1.7785 0,-2.57849c0,-0.90002 0,-1.80002 0,-2.70001c0,-0.89999 0,-1.79999 0,-2.70001c0,-0.89981 -0.15091,-1.46448 -0.83331,-1.96664c-0.70392,-0.51801 -1.46732,-0.65277 -2.08267,-1.11734c-0.6832,-0.51578 -1.53366,-0.54221 -2.05865,-1.15201c-0.61646,-0.71606 -0.97324,-1.62512 -1.52536,-2.04315c-0.7359,-0.55716 -1.48199,-0.95633 -1.5,-1.92084c-0.01682,-0.89984 -0.00241,-1.80002 0,-2.69983c0.00226,-0.84302 0.54761,-1.34625 1.28534,-1.81485c0.69131,-0.43912 1.56592,-0.42212 2.14001,-1.06c0.52084,-0.5787 1.18527,-1.02948 2.07465,-1.02533c0.9794,0.00455 1.48935,0.61066 1.5,1.5c0.01068,0.88934 0.5,1.5 0.99551,2.14734l0.00449,0.8735l0,0.87915" id="svg_3" stroke-width="2" stroke="#000" fill="none"/>
  <path t="13494,13598,13606,13614,13630,13654,13678,13694,13726,13726,13750,13806,13830,13838,13878,13902,13934,13942,13966,13990,14006,14006,14014,14030,14038,14038,14062,14062,14102,14118,14214,14254" d="m347.51135,449.09091c1.70001,0.99551 2.60001,1 3.5,1c0.90002,0 1.7955,0 2.72153,0c0.87848,0 1.77847,0 2.57849,0c0.89999,0 1.79999,0 2.69998,0c0.88934,0 1.85822,0.00266 2.5,-0.5c0.61609,-0.48254 1.55042,-0.46838 1.99551,-1.14734c0.43677,-0.66626 0.93161,-1.44199 1.60449,-1.91666c0.73483,-0.51837 1.79727,-0.72021 2.23334,-1.436c0.45145,-0.741 1.09262,-1.3082 1.59866,-1.79999c0.74875,-0.72763 1.284,-1.28403 1.56799,-2.20001l0,-0.83334" id="svg_4" stroke-width="2" stroke="#000" fill="none"/>
  <polyline timestamps="15391,15494" startTime="1451838275147" id="svg_5" points="360.51136684417725,419.09091091156006 358.9473668441772,419.6655775782267 " stroke-linecap="round" stroke-width="2" stroke="#000" fill="none"/>
  <path t="16126,16238,16254,16262,16262,16270,16278,16294,16302,16310,16326,16334,16342,16358,16366,16382,16382,16390,16398,16398,16398" d="m372.51135,420.09091c0,0.88666 0,1.82532 0,2.83334c0,0.75598 0,1.66666 0,2.56665c0,0.89999 0,1.80002 0,2.70001c0,0.89999 0,1.81598 0,2.60449c0,0.89551 0.08887,1.91678 -0.56931,2.49417c-0.67639,0.59335 -1.66901,0.75766 -2.26401,1.30133l-0.14133,0.776l-0.10934,0.87201" id="svg_6" stroke-width="2" stroke="#000" fill="none"/>
  <path t="19214,19286,19286,19310,19326,19342,19342,19350,19382,19398,19430,19446,19462,19494,19494,19534,19550,19702,19734,19758,19766,19798,19806,19814,19838,19862,19886,19910,19934,19950,19982,20030" d="m298.51135,194.09091c1,1 0.79556,1.83698 1.05719,2.7c0.26828,0.88489 1.15686,1.31374 1.58566,2c0.49329,0.78944 0.35715,1.82083 0.35715,2.7c0,0.90001 0,1.8 0,2.70001c0,0.89999 0,1.7 0,2.59999c0,0.90001 0.10577,2.42857 -0.64731,2.23834c-0.79395,-0.20056 -0.66718,-1.32552 -1.186,-2.10501c-0.47089,-0.70746 -0.617,-1.37827 -1.08133,-2.11867c-0.48807,-0.77824 0.00333,-1.81905 -0.08536,-2.71466c-0.08374,-0.84569 -0.87866,-1.22133 -1.35266,-1.94284l-0.64734,-0.3425" id="svg_7" stroke-width="2" stroke="#000" fill="none"/>
  <path t="21302,21629,21646,21686,21733,21766,21838,21990,22015,22037,22062,22086,22254,22270,22279,22287,22295,22303,22319,22327,22336,22359,22543,22599,22615,22623,22639,22663,22672,22695,22871,22907,22927" d="m408.51135,187.09091c0,1.8 0,2.64284 0,3.52083c0,0.87917 -0.27713,1.81984 0.00452,2.77467c0.22095,0.74902 0.98508,0.18385 0.99548,-0.6955c0.01065,-0.89995 0.17496,-1.81462 0,-2.76668c-0.14438,-0.78569 -0.99362,-0.42477 -1.5,0.16667c-0.50894,0.59442 -0.13327,1.57971 -0.52081,2.47917c-0.30777,0.71436 -0.79666,1.25145 -1.01517,2.12083c-0.21341,0.84904 -0.26294,1.74052 0.51517,1.37917c0.70731,-0.32849 0.15411,-1.55888 0.54166,-2.45834c0.3078,-0.71434 0.97467,-1.22533 0.97916,-2.15016l0,0.82933l0,0.90001" id="svg_8" stroke-width="2" stroke="#000" fill="none"/>
  <path t="24679,24758,24767,24774,24783,24783,24791,24799,24799,24815,24815,24822,24822,24831,24839,24847,24854,24854,24863,24871,24871,24880,24880,24880,24887,24887,24887,24894,24902,24903,24910,24910,24910,24919,24926,24926,24926,24935,24935,24935,24943,24943,24954,24959,24959,24973,24973,24973,24973,24975,24975,24988,24988,24991,24991,25005,25005,25006,25007,25007,25007,25015,25015,25022,25023,25037,25037,25037,25037,25039,25039,25039,25047,25047,25055,25055,25063,25063,25071,25071,25080,25080,25080,25087,25087,25087,25095,25095,25095,25104,25104,25105,25111,25111,25111,25111,25120,25120,25120,25126,25126,25127,25137,25138,25138,25142,25142,25155,25155,25159,25159,25166,25166,25166,25175,25175,25187,25187,25191,25191,25192,25205,25205,25207,25207,25207,25221,25221,25221,25221,25224,25224,25224,25225,25234,25234,25234,25239,25239,25239,25246,25246,25246,25255,25255,25263,25263,25263,25272,25272,25283,25283,25283,25288,25288,25297,25297,25305,25305,25305,25311,25312,25322,25322,25327,25327,25337,25337,25342,25354,25354,25370,25370,25375,25387,25387,25404,25678,25678,25694,25702,25703,25718,25718,25726,25734,25734,25742,25750,25751,25758,25758,25767,25767,25774,25774,25782,25790,25798,25806,25814,25822,25822,25831,25831,25838,25838,25848,25848,25854,25855,25862,25870,25879,25879,25886,25902,25902,25910,25911,25918,25926,25926,25942,25942,25950,25951,25959,25959,25967,25974,25974,25982,25990,25991,25998,25998,26006,26014,26014,26022,26031,26031,26048,26054,26054,26065,26070,26070,26079,26079,26086,26095,26096,26096,26102,26111,26112,26118,26119,26126,26126,26127,26134,26135,26135,26142,26142,26150,26151,26158,26158,26167,26167,26167,26174,26182,26183,26190,26198,26206,26207,26214,26222,26223,26231,26238,26249,26254,26265,26265,26270,26281,26286,26295,26295,26302,26303,26303,26318,26318,26327,26327,26334,26342,26343,26355,26355,26356,26358,26359,26367,26367,26374,26375,26384,26385,26390,26401,26401,26406,26406,26418,26418,26423,26423,26423,26435,26435,26439,26439,26439,26452,26455,26456,26463,26463,26463,26471,26471,26478,26479,26488,26488,26495,26495,26502,26503,26511,26511,26519,26519,26527,26527,26527,26535,26536,26536,26542,26543,26551,26551,26558,26559,26568,26568,26582,26590,26591,26606,26606,26616,26623,26637,26637,26639,26639,26662,26694,26704,26718,26728,26735,26735,26743,26743,26752,26752,26758,26759,26759,26768,26768,26774,26774,26784,26784,26790,26790,26800,26800,26806,26807,26817,26817,26823,26834,26834,26839,26839,26847,26847,26855,26855,26868,26878,26887,26894,26895,26903,26903,26911,26911,26918,26928,26928,26935,26943,26951,26959,26959,26974,26982,26990,27014,27030,27031,27040,27051,27062,27071,27072" d="m293.51135,116.09091c0,-1.8 0.07742,-2.66759 -0.43597,-3.4c-0.55374,-0.78996 -1.21652,-1.39777 -2.08484,-1.57916c-0.94305,-0.19701 -1.71826,0.10906 -2.7265,-0.37801c-0.69897,-0.33768 -1.46527,-0.8544 -2.04285,-1.34283c-0.79419,-0.67162 -1.3735,-1.03471 -2.20984,-1.34166c-0.82217,-0.30175 -0.96057,-1.27038 -1.79999,-1.8485c-0.71338,-0.49132 -1.49734,-0.84737 -2.24283,-1.21c-0.70386,-0.34238 -1.54745,-0.59207 -2.53549,-1.221c-0.70538,-0.44901 -1.20032,-1.07054 -2.16452,-1.569c-0.81656,-0.42213 -1.39996,-0.78686 -2.29984,-0.98833c-0.93936,-0.21031 -1.70911,0.06667 -2.79599,-0.14283c-0.86884,-0.16747 -1.49026,-0.86311 -2.12299,-1.33051c-0.68671,-0.50727 -1.47226,-0.92489 -2.27701,-1.2015c-1.10141,-0.37859 -1.84863,-0.33645 -2.78217,-0.4675c-0.8176,-0.11478 -1.51291,-0.51905 -2.64584,-0.97916c-0.51389,-0.2087 -1.33755,-0.48882 -2.14932,-0.8c-1.00406,-0.3849 -1.63681,-0.76705 -2.68401,-1.03333c-0.77541,-0.19717 -1.83905,-0.09898 -2.66133,-0.20267c-0.89372,-0.11269 -1.60556,-0.38419 -2.3905,-0.6685c-1.03439,-0.37465 -1.69046,-0.74728 -2.54683,-1.01017c-0.9818,-0.30139 -1.80133,-0.28308 -2.80267,-0.28533c-0.61949,-0.0014 -1.76534,0 -2.55583,0c-0.8535,0 -1.44417,0 -2.64149,0c-0.88051,0 -1.71622,0.01914 -2.716,-0.00134c-0.87517,-0.01792 -1.8893,-0.20842 -2.47467,-0.424c-1.05183,-0.38735 -1.83595,-0.56934 -2.696,-0.57467c-0.72531,-0.0045 -1.715,0 -2.55634,0c-0.72899,0 -1.92633,0 -2.60899,0c-0.69867,0 -2.01601,0 -2.83951,0c-0.72449,0 -1.93132,0 -2.467,0c-0.8535,0 -2.04283,0 -2.94283,0c-0.60001,0 -1.5,0 -2.69867,0c-0.59067,0 -1.44417,0 -2.48001,0c-0.92133,0 -1.60533,0 -2.60533,0c-0.81599,0 -1.63199,0 -2.85883,0c-0.6465,0 -1.657,0 -2.62117,0c-0.95334,0 -1.64583,0 -2.60533,0c-0.7515,0 -1.548,0 -2.7735,0c-0.6465,0 -1.65944,0.0414 -2.478,-0.02084c-1.15176,-0.08757 -1.92712,-0.3326 -2.71783,-0.55383c-0.92775,-0.25957 -1.76114,-0.41491 -2.59467,-0.42533c-0.9386,-0.01173 -1.77567,0 -2.66667,0c-0.9045,0 -1.52083,0 -2.48534,0c-1.03583,0 -1.76283,0 -2.85333,0c-0.692,0 -1.892,0 -2.6405,0c-0.70349,0 -1.70616,0 -2.54166,0c-0.88051,0 -2.07784,0 -2.6685,0c-0.8535,0 -1.88918,0 -2.78984,0c-1.02083,0 -1.82083,-0.00179 -2.62083,0c-1.0045,0.00225 -1.86449,0.01881 -2.82133,0.22133c-0.81151,0.17175 -1.61761,0.46712 -2.657,0.65733c-0.67065,0.12273 -1.77853,0.24686 -2.42166,0.64217c-0.85622,0.5263 -1.5042,1.00443 -2.10133,1.19383c-0.97743,0.31003 -1.82251,0.25256 -2.79733,0.57066c-0.79059,0.25798 -1.50966,0.93204 -2.354,1.3575c-0.8472,0.4269 -1.60852,0.19988 -2.61133,0.36784c-0.86914,0.14556 -1.49567,0.83301 -2.28867,1.28484c-0.67482,0.38449 -1.67213,0.46889 -2.44717,0.92599c-0.72794,0.42932 -1.47548,1.39628 -1.2455,2.0625c0.25784,0.74691 1.64369,0.52848 2.4455,0.9375c0.72639,0.37055 1.36185,1.02217 2.07451,1.3425c0.91551,0.41151 1.85855,0.562 2.52533,1.1405c0.63858,0.55402 1.47562,1.09428 2.12534,1.28083c1.02496,0.2943 1.40668,0.98812 2.17467,1.68134c0.61322,0.55352 1.19553,1.12295 1.8,1.76534c0.60886,0.64705 1.59312,0.85796 2.07866,1.66783c0.43753,0.72977 0.94127,1.36386 1.56416,2.00017c0.49171,0.5023 1.41949,0.86465 2.03635,1.4c0.76028,0.65983 1.28468,1.25055 2.00349,1.984c0.50121,0.51143 1.16396,1.35889 1.532,2.10533c0.39984,0.81096 1.24968,1.17528 1.98534,1.57733c0.73549,0.40195 0.90869,1.42268 1.22133,2.27617c0.28282,0.77211 0.53758,1.57535 0.86267,2.35583c0.32451,0.77912 1.01335,1.52424 1.416,2.20133c0.49673,0.83529 1.01357,1.46626 1.7,2.20134c0.51025,0.54643 1.0183,1.50563 1.5,2.08882c0.60768,0.73572 1.52762,0.96471 2.10001,1.51117c0.71564,0.68324 1.03691,1.52824 1.22533,2.37334c0.21216,0.95158 0.78418,1.47687 0.964,2.46133c0.15239,0.83426 -0.11385,1.72066 0.01517,2.60683c0.14365,0.98674 0.73601,1.54851 1.02083,2.39317c0.28328,0.84009 0.73686,1.6813 0.9175,2.60683c0.1646,0.84334 0.11852,1.65152 0.48251,2.5825c0.27286,0.69789 0.51326,1.7224 1.01733,2.496c0.354,0.54329 1.19241,1.10596 1.48532,2.05333c0.28049,0.9072 0.05931,1.83607 0.07217,2.82533c0.01041,0.8002 0.14201,1.80827 0.35699,2.4045c0.31229,0.86612 0.74158,1.81715 1.04283,2.61017c0.19917,0.52432 0.73299,1.62346 1.07918,2.26451c0.44295,0.82022 0.51549,1.73145 0.52083,2.72083c0.00432,0.79999 -0.03513,1.80125 0.01067,2.58934c0.0423,0.72794 0.54076,1.6897 0.98933,2.37733c0.51538,0.79002 0.95728,1.66066 1,2.48c0.04359,0.8362 -0.15457,1.71413 0.01067,2.71733c0.14294,0.86786 0.84116,1.40462 0.98483,2.336c0.13722,0.8895 -0.10695,1.86958 0.36166,2.60001c0.5132,0.79991 1.38399,1.23378 1.60684,2.09999c0.22443,0.87231 0.02037,1.80147 0.036,2.76668c0.01067,0.65892 0.30988,1.69009 0.85066,2.20799c0.55821,0.53458 0.98819,1.49597 1.31734,2.14134c0.41066,0.80521 1.39447,1.20027 1.81117,2.00482c0.46539,0.89856 0.62936,1.69089 1.02083,2.47917c0.39783,0.80109 0.70888,1.3956 1.19867,2.39867c0.3721,0.76205 0.66928,1.72945 0.88533,2.48534c0.22418,0.78435 0.72174,1.62904 1.2115,2.36333c0.42297,0.63414 0.52423,1.62032 0.87117,2.586c0.24904,0.69319 1.07375,1.33415 1.53333,1.92384c0.66644,0.85515 0.88673,1.48952 1.62134,2.44266c0.47346,0.6143 1.02487,1.14413 1.65733,1.77884c0.64552,0.64781 1.33131,1.35437 1.84666,1.836c0.67615,0.63191 1.70346,1.01222 2.092,1.756c0.39825,0.76241 0.45142,1.694 1.12434,2.38766c0.51004,0.52576 1.58856,0.83864 2.30116,1.147c0.82545,0.35719 1.28423,1.05453 1.57317,2.01067c0.22742,0.75255 0.42694,1.81606 1.056,2.31467c0.69815,0.55336 1.56409,0.39244 2.69467,0.73601c0.81165,0.24664 1.19409,1.05693 1.50266,1.804c0.34076,0.82504 0.84724,1.549 1.23967,2.02399c0.74532,0.90211 1.58325,1.47777 2.19101,1.80267c0.98349,0.52577 1.59627,0.75429 2.51599,1.40266c0.66165,0.46645 1.37671,0.98532 2.05867,1.40001c0.95125,0.57845 1.539,1.11432 2.1825,1.75716c0.64317,0.6425 1.24284,1.24284 1.84283,1.84283c0.60001,0.60001 1.21594,1.47328 2.10451,1.74283c0.82686,0.25082 1.74817,-0.09625 2.674,0.27867c0.67131,0.27185 1.21597,1.25075 2.0215,1.61183c0.81596,0.36577 1.01303,0.89786 1.52083,1.6875c0.53435,0.83093 0.80632,1.62976 1.57933,2.23634c0.56531,0.44359 1.60432,0.53879 2.30434,1.06166c0.86148,0.64348 1.22215,1.16203 1.72351,1.9305c0.58127,0.89096 0.75902,1.75404 1.15733,2.45201c0.42467,0.74414 1.02426,1.45076 1.41466,2.20316c0.40999,0.79015 0.81377,1.56152 1.17883,2.57401c0.25551,0.70863 0.8382,1.31018 1.47301,1.7215c0.90149,0.58411 1.44649,1.10034 2.14815,1.8c0.70102,0.69901 1.24478,1.18138 2.15268,1.45184c0.85327,0.25418 1.564,0.78336 2.10001,1.39999c0.69205,0.79614 1.44818,1.10025 2.2265,1.64816c0.69818,0.49152 1.4487,0.91824 2.34216,1.22134c0.69473,0.23569 1.66705,0.61862 2.43134,0.83133c0.91394,0.25436 1.59265,0.6008 2.49017,0.89465c0.85526,0.28003 1.42944,0.78625 2.14648,1.44202c0.69482,0.63544 1.63196,0.58377 2.444,0.61066c0.86362,0.02859 1.58902,0.68619 2.46667,0.94284c0.86557,0.25311 1.79999,0.05716 2.69998,0.05716c0.80002,0 1.70001,0 2.64285,0l0.89883,0l0.94501,0l0.75998,0" id="svg_9" stroke-width="2" stroke="#000" fill="none"/>
  <path t="27886,27950,27960,27966,27974,27974,27974,27982,27982,27990,27990,27998,27998,27998,28006,28006,28015,28015,28022,28022,28022,28022,28031,28031,28038,28038,28038,28047,28047,28048,28054,28054,28064,28064,28070,28070,28070,28081,28081,28081,28086,28086,28098,28098,28102,28102,28115,28115,28115,28118,28118,28118,28118,28126,28126,28126,28135,28135,28143,28143,28143,28151,28151,28151,28160,28160,28169,28169,28169,28174,28175,28175,28186,28186,28190,28190,28190,28201,28201,28201,28209,28209,28220,28220,28220,28220,28225,28225,28225,28235,28235,28235,28239,28240,28240,28252,28252,28252,28252,28255,28255,28255,28265,28266,28266,28266,28266,28270,28270,28270,28270,28280,28281,28281,28281,28281,28286,28286,28301,28301,28301,28301,28303,28303,28303,28319,28319,28374,28398,28398,28430,28518,28534,28542,28551,28566,28576,28583,28583,28599,28614,28622,28646,28662,28678,28687,28696,28696,28713,28734,28734,28758,28774,28790,28798,28998,29007,29014,29015,29022,29022,29030,29030,29038,29038,29046,29046,29046,29054,29054,29063,29063,29063,29070,29070,29078,29078,29086,29086,29086,29094,29110,29110,29110,29118,29118,29127,29127,29134,29144,29144,29150,29150,29158,29159,29166,29166,29176,29176,29182,29192,29198,29206,29206,29214,29222,29230,29238,29238,29238,29246,29254,29262,29270,29270,29278,29278,29286,29286,29294,29294,29302,29302,29310,29310,29327,29334,29334,29334,29343,29343,29350,29358,29359,29366,29366,29375,29382,29391,29392,29398,29398,29398,29406,29406,29414,29414,29422,29430,29430,29438,29438,29446,29454,29454,29462,29470,29470,29478,29486,29494,29502,29510,29518,29527,29527,29534,29534,29534,29543,29543,29550,29560,29560,29560,29566,29566,29567,29575,29575,29582,29582,29591,29598,29598,29599,29608,29614,29622,29622,29630,29630,29638,29646,29654,29654,29663,29663,29670,29670,29680,29680,29686,29686,29698,29698,29702,29702,29702,29714,29714,29718,29718,29730,29749,29750,29751,29763,29767,29775,29783,29791,29799,29808,29815,29815,29823,29832,29838,29847,29854,29863,29863,29870,29881,29886,29897,29902,29902,29913,29913,29918,29930,29930,29934,29934,29947,29950,29958,29967,29967,29974,29983,29991,30008,30008,30015,30016,30025,30025,30031,30046,30047,30054,30063,30063,30070,30070,30086,30086,30096,30102,30113,30118,30118,30134,30150,30163,30174,30175,30191,30191,30199,30199" d="m400.51135,118.09091c1.71469,-1.084 2.01254,-1.85214 2.54169,-2.52084c0.69348,-0.87636 1.27591,-1.32529 1.86282,-1.8265c0.77213,-0.65938 1.59253,-1.10363 2.42883,-1.65266c0.56467,-0.37071 1.49905,-0.83878 2.172,-0.95184c0.98804,-0.166 1.91788,-0.42924 2.453,-1.069c0.62653,-0.74902 1.07928,-1.48693 1.70834,-2.3125c0.32617,-0.42806 0.82162,-1.17505 1.34933,-1.89867c0.58844,-0.80688 1.11417,-1.40334 2.02682,-1.86816c0.69748,-0.35523 1.5452,-0.59565 2.53549,-1.22117c0.47931,-0.30276 1.25333,-1.03285 1.90033,-1.65717c0.64014,-0.61768 1.35172,-1.10723 2.04218,-1.54234c0.99237,-0.62535 1.55496,-1.15854 2.17917,-1.61783c0.77206,-0.56807 1.60727,-0.76424 2.39999,-0.944c1.01132,-0.22934 1.60471,-0.51849 2.59985,-1.01733c0.78311,-0.39256 1.63589,-0.89677 2.17484,-1.3c0.79556,-0.59525 1.47726,-1.03966 2.20132,-1.24284c0.90833,-0.25489 2.07767,-0.30675 2.48932,-0.3425c0.82306,-0.07149 2.30496,-0.27848 2.79333,-0.58266c0.77148,-0.48051 1.44354,-1.37101 2.112,-1.42934c1.03973,-0.09072 1.85315,-0.01511 2.43201,-0.088c1.20181,-0.15134 2.07516,-0.3868 2.82666,-0.716c0.99524,-0.43596 1.55255,-0.94682 2.54001,-1.39867c0.73578,-0.33669 1.29205,-0.47627 2.30917,-0.89999c0.9097,-0.37898 1.50677,-0.72821 2.526,-1.1955c0.62378,-0.28599 1.5596,-0.55729 2.34814,-0.65183c0.81985,-0.09829 1.88986,-0.18832 2.81134,-0.478c0.63858,-0.20074 1.64685,-0.44489 2.47202,-0.636c0.94458,-0.21877 1.72134,-0.64036 2.26398,-0.9595c0.82333,-0.48425 1.80664,-1.11196 2.5,-1.45833c0.67538,-0.33739 1.68372,-0.72164 2.5,-1.02084c0.54715,-0.20055 1.56479,-0.63685 2.52084,-0.97916c0.73874,-0.26451 1.62024,-0.4242 2.6405,-0.48484c0.72318,-0.04298 1.45599,-0.03532 2.51733,-0.036c0.996,-0.00063 1.64667,0 2.98801,0c0.71866,0 1.46933,0 2.24399,0c0.79068,0 1.98941,0.00583 2.78934,-0.0045c0.80008,-0.01034 1.60349,-0.01964 2.79999,-0.16216c0.80026,-0.09532 1.57883,-0.25787 2.328,-0.408c0.70151,-0.14059 1.90091,-0.36563 2.65118,-0.4045c1.1861,-0.06144 1.978,-0.02084 2.83148,-0.02084c0.59067,0 1.78802,0 2.66852,0c0.83548,0 1.83417,0 2.67416,0c0.96133,0 1.84665,0 2.64667,0c0.89999,0 1.79999,0 2.69998,0c0.90002,0 1.80002,0 2.70001,0c0.89999,0 1.79999,0 2.59998,0c0.90002,0 1.80005,0 2.70001,0c0.90002,0 1.79999,0 2.70001,0c0.90002,0 1.79999,0 2.59998,0c0.95721,0 1.84821,0 2.63068,0c1.00537,0 1.86932,0 2.76935,0c0.90002,0 2.22473,-0.57854 2.63336,0.16666c0.36713,0.66956 -1.05481,0.81512 -2.0332,0.8335c-0.77942,0.01465 -1.85724,0.1265 -2.38947,0.6465c-0.74182,0.72481 -0.98218,1.58567 -1.57733,2.18667c-0.59991,0.6058 -1.4024,1.0035 -2.08069,1.81933c-0.41205,0.49557 -1.02771,1.40437 -1.79431,1.80567c-0.6145,0.32167 -1.64264,0.44399 -2.4375,0.54166c-1.19019,0.14624 -1.84705,0.45474 -2.6875,1c-0.63885,0.41446 -1.17987,0.87714 -1.92001,1.6c-0.69724,0.68096 -1.45694,0.89506 -2.23203,1.2c-0.99719,0.39233 -1.64023,0.67766 -2.65967,1.07883c-0.73541,0.28941 -0.89096,1.18022 -1.18832,1.95451c-0.31433,0.81846 -1.23132,1.40951 -1.548,2.05199c-0.43381,0.88009 -0.45386,1.73904 -1.34332,2.35751c-0.61639,0.4286 -1.59207,0.84761 -1.98566,1.45716c-0.49561,0.76757 -1.53113,1.0086 -1.92035,1.74667c-0.40829,0.77419 0.00543,1.73965 -0.53601,2.5325c-0.46326,0.67835 -0.97726,1.40238 -1.5,2.1875c-0.42404,0.63687 -0.8288,1.32506 -0.97916,2.3125c-0.1387,0.91088 -0.43921,1.64359 -0.85416,2.52084c-0.33707,0.71259 -0.56198,1.64174 -0.814,2.4045c-0.323,0.97751 -0.29617,1.76119 -0.354,2.7115c-0.04694,0.77116 -0.47733,1.70183 -0.71466,2.48534c-0.29434,0.97173 -0.18961,1.6889 -0.28534,2.68533c-0.08563,0.89129 -0.53738,1.7212 -0.71466,2.31467c-0.29184,0.97706 -0.10849,1.93327 -0.30484,2.87783c-0.1814,0.87257 -0.82745,1.37789 -1.27466,2.1735c-0.47025,0.83662 -0.68652,1.71082 -0.70453,2.65184c-0.01651,0.86201 0,1.71632 0,2.6955c0,0.8 0,1.60001 0,2.60001c0,0.79999 0,1.79866 0,2.564c0,1.08333 0,2.00267 0,2.836c0,0.83333 0,1.6955 0,2.636c0,0.84799 0,1.71133 0,2.61133c0,0.91934 0,1.75267 0,2.731c0,0.90033 0,1.72617 0,2.62167c0,0.89999 0,1.81065 0,2.72166c0,0.72 0.01331,1.84518 -0.00449,2.6265c-0.01801,0.79092 -0.12778,1.73389 -0.49551,2.51016c-0.40979,0.86499 -0.677,1.7045 -0.92532,2.38834c-0.30338,0.83548 -0.49066,1.83734 -0.57468,2.65334c-0.08398,0.81599 -0.28922,1.81294 -0.57465,2.68933c-0.26352,0.80911 -0.41492,1.76881 -0.42535,2.644c-0.00989,0.83078 0,1.6875 0,2.40001c0,1.09467 0.01077,2.07123 0,2.93333c-0.01041,0.83353 -0.2543,1.7939 -0.57465,2.42265c-0.45236,0.88788 -0.31329,1.86389 -0.71066,2.61201c-0.40192,0.75668 -1.07431,1.42924 -1.35751,2.20316c-0.35464,0.96909 -0.3255,1.79596 -0.35748,2.79533c-0.02496,0.78004 -0.29813,1.66989 -0.85034,2.16417c-0.77087,0.69 -1.13376,1.31575 -1.37085,2.17867c-0.26575,0.96719 -0.52277,1.72046 -0.97849,2.48801c-0.44647,0.75198 -1.06345,1.42296 -1.44284,2.31667c-0.36963,0.87064 -0.64685,1.70958 -1.00449,2.35266c-0.47443,0.85313 -0.77982,1.68764 -1.40533,2.35268c-0.5235,0.55658 -0.76743,1.55586 -1.3045,2.24283c-0.5816,0.7439 -1.42767,0.96747 -1.80951,1.7045c-0.39063,0.75395 -0.76804,1.5321 -1.186,2.3c-0.45767,0.84081 -1.04456,1.38379 -1.59467,2.05716c-0.57373,0.70229 -0.82535,1.4754 -1.75266,1.63834c-0.8873,0.1559 -1.80939,0.37039 -2.216,1.2045c-0.36737,0.75357 -0.74646,1.40236 -1.28265,2.284c-0.40601,0.66759 -0.59018,1.67703 -0.96802,2.51601c-0.31027,0.68896 -0.78616,1.48126 -0.82883,2.34734c-0.04404,0.89442 -0.00452,1.85266 -0.00452,2.75267c0,0.89999 0.19595,1.73444 -0.05716,2.59999c-0.25665,0.87764 -0.90344,1.60352 -0.94284,2.46667c-0.03799,0.83272 -0.26157,1.79158 -0.57465,2.45866c-0.39185,0.83492 -0.17764,1.7513 -0.59601,2.54266c-0.45389,0.85854 -1.26193,1.10611 -1.71951,2.07933c-0.40848,0.86879 -0.36682,1.71794 -1.10983,2.41934c-0.60132,0.56764 -1.12653,1.36522 -1.61066,1.93333c-0.63516,0.74535 -0.92136,1.59868 -1.556,2.23332c-0.63467,0.63466 -1.37021,0.92519 -2.3125,1.14584c-0.85522,0.20027 -1.64359,0.43918 -2.52084,0.85416c-0.71259,0.33707 -1.65717,0.51933 -2.40448,0.81401l-0.79535,0.23116l-0.96414,0.11084" id="svg_10" stroke-width="2" stroke="#000" fill="none"/>
  <path t="32614,32694,32711,32718,32727,32758,32758,32767,32774,32782,32782,32790,32798,32814,32832,32832,32846,32854,32871,32871,32888,32888,32894,32902,32911,32919,32927,32934,32943,32943,32950,32961,32967,32976,32993,32998,33008,33008,33017,33030,33043,33046,33061,33062,33062,33071,33078,33078,33087,33088,33095,33096,33107,33107,33110,33110,33110,33119,33119,33119,33127,33127,33134,33134,33134,33147,33147,33147,33150,33150,33159,33159,33166,33166,33166,33176,33176,33176,33182,33182,33192,33192,33192,33198,33198,33209,33209,33214,33214,33223,33223,33231,33231,33231,33238,33238,33246,33246,33254,33262,33262,33262,33262,33270,33270,33270,33278,33287,33287,33294,33294,33303,33303,33303,33310,33310,33310,33318,33326,33326,33334,33342,33342,33350,33350,33358,33374,33374,33382,33382,33398,33398,33406,33406,33414,33414,33422,33422,33438,33438,33438,33446,33459,33459,33462,33462,33470,33470,33478,33478,33487,33495,33495,33503,33511,33518,33526,33526,33526,33538,33545,33545,33550,33550,33558,33566,33566,33575,33582,33582,33590,33598,33606,33606,33614,33614,33625,33630,33642,33646,33658,33662,33675,33675,33678,33678,33686,33696,33711,33722,33730,33734,33742,33742,33750,33758,33775,33775,33782,33806,33814,33814,33828,33828,33830,33854,33862,33875,33878,33878,33902,33926,33926,33934,33958,33975,34014,34038,34054,34094,34278,34326,34366,34389,34422,34431,34470,34534,34574,34614,34646,34655,34686,34686,34718,34718,34758,34766,34782,34805,34817,34840,34840,34870,34918,34958,34981,34998,35014,35030,35054,35054,35062,35078,35094,35110,35126,35126,35135,35142,35142,35158,35182,35206,35222,35230,35246,35256,35275,35290,35294,35310,35323,35323,35326,35342,35351,35358,35374,35391,35398,35414,35438,35446,35456,35462,35473,35493,35517,35518,35526,35542,35551,35558,35568,35598,35606,35607,35645,35654,35694,35726,35742,35751,35759,35782,35782,35790,35806,35823,35839,35846,35854,35875,35879,35887,35902,35911,35911,35918,35935,35954,35954,35962,35962,35985,35990,35990,36006,36026,36031,36046,36062,36078,36089,36106,36123,36126,36134,36151,36159,36167,36184,36190,36206,36206,36230,36246,36262,36272,36278,36294,36310,36310,36326,36338,36357,36359,36367,36375,36391,36398,36406,36407,36414,36430,36430,36440,36446,36462,36471,36478,36489,36505,36523,36527,36538,36542,36542,36558,36567,36575,36583,36591,36599,36614,36632,36636,36644,36657,36662,36678,36702,36702,36726,36742,36742,36755,36759" d="m286.51135,266.09091c0,1.79999 0,2.70001 0,3.60001c0,0.87915 0,1.84283 0,2.58533c0,0.92932 0,1.91467 0,2.81467c0,0.79999 0,1.70001 0,2.60001c0,0.81067 0,1.72116 0,2.53867c0,1.02798 0,1.96133 0,2.86133c0,0.75717 0,1.65268 0,2.51599c0,0.96317 0,1.884 0,2.784c0,0.90002 0,1.79984 0,2.65186c0,0.758 0,1.56549 0,2.63748c0,0.91068 0,1.81067 0,2.71066c0,0.90002 0,1.80002 0,2.70001c0,0.79999 0,1.64282 0,2.52084c0,0.97916 0,1.87915 0,2.68048c0,0.96533 0.17145,1.8631 -0.284,2.63068c-0.435,0.73312 -0.71066,1.38931 -0.716,2.36783c-0.00424,0.77933 0.10641,1.79529 -0.08533,2.68417c-0.1734,0.80383 -0.62567,1.56454 -0.79315,2.53751c-0.13895,0.8071 -0.117,1.68298 -0.12152,2.57849c-0.00449,0.89099 0.10144,1.75934 -0.22131,2.85733c-0.19757,0.67206 -0.65857,1.47064 -0.74268,2.40399c-0.07098,0.78793 -0.03601,1.81717 -0.03601,2.50269c0,0.83466 0.05872,1.84268 -0.05716,2.63599c-0.14822,1.01492 -0.5556,1.79901 -0.94284,2.60001c-0.39142,0.80966 -0.72876,1.44122 -0.91464,2.68399c-0.12109,0.80954 -0.0831,1.36334 -0.08536,2.63068c-0.00119,0.66449 0.03189,1.6864 -0.01065,2.48532c-0.04272,0.80237 -0.37897,1.78735 -0.63666,2.60001c-0.31287,0.98669 -0.33417,1.80014 -0.35284,2.79984c-0.01456,0.77948 -0.21933,1.60953 -0.57449,2.46152c-0.3588,0.86066 -0.37454,1.60291 -0.478,2.39047c-0.1355,1.03143 -0.49829,1.88879 -0.78067,2.78152c-0.23523,0.74368 -0.66733,1.55103 -1.16669,2.5c-0.34653,0.65854 -0.60266,1.48706 -0.79999,2.06934c-0.40417,1.19278 -0.60941,1.76996 -0.84283,2.58298c-0.29761,1.03662 -0.35718,2.01434 -0.35718,2.77151c0,0.90448 0,1.7045 0,2.66434c0,0.81448 0.00433,1.68298 -0.00015,2.87799c-0.0022,0.58701 0.11807,1.70602 -0.35251,2.53799c-0.39474,0.69791 -0.55167,1.35248 -0.65182,2.40985c-0.08804,0.92935 -0.51364,1.54523 -0.82883,2.586c-0.22372,0.73877 -0.14432,1.68781 -0.168,2.65198c-0.01782,0.72595 -0.20889,1.71857 -0.49869,2.49384c-0.32104,0.85886 -0.45804,1.64713 -0.50449,2.67352c-0.03149,0.69592 -0.44043,1.55945 -0.71149,2.31665c-0.35925,1.00354 -0.24475,1.82678 -0.45068,2.86401c-0.142,0.71515 -0.48553,1.50339 -0.78067,2.40948c-0.27878,0.85583 -0.80536,1.48386 -1.25131,2.24249c-0.41156,0.70016 -0.72189,1.71024 -0.78052,2.49384c-0.07455,0.99677 0.10254,1.83493 -0.078,2.77802c-0.17731,0.92618 -0.70764,1.55945 -0.88565,2.48117c-0.17688,0.91583 -0.05719,1.80331 -0.05719,2.76166c0,0.78934 0,1.51468 0,2.62534c0,0.85999 0,1.58533 0,2.57449c0,0.96417 0,1.91483 0,2.80017c0,0.79999 0,1.63599 0,2.65268c0,0.69464 0,1.71133 0,2.65182c0,0.86215 0,1.6955 0,2.67398c0,0.82019 0,1.72153 0,2.62152c0,0.89999 0,1.79999 0,2.69998c0,0.90002 0,1.80017 0,2.58536c0,0.93997 0,1.63065 0,2.70398c0,0.91068 0,1.81067 0,2.71066c0,0.90002 0,1.80002 0,2.70001c0,0.79999 0,1.70001 0,2.52084c0,0.96317 0,1.82648 0,2.7175c0,0.98334 0,1.92831 0,2.58698c0,1.00803 0,1.87018 0,2.77469c0,0.89999 -0.09543,1.84451 0.28403,2.60001c0.43558,0.86719 0.99655,1.29303 1.59467,2.02148c0.59839,0.72879 0.93118,1.43259 1.11066,2.37851c0.16779,0.88428 0.02133,1.78934 0.51065,2.39999c0.48935,0.61066 0.5,1.5 0.5,2.39999c0,0.89999 0,1.80002 0,2.69983c0,0.90018 0,1.70151 0,2.60019c0,0.89999 -0.00226,1.79999 0,2.69998c0.00226,0.89551 0.44345,1.48148 1.2955,1.60001c0.94318,0.13123 1.43579,0.76334 2.35718,0.94284c0.84918,0.16544 1.82651,0.05716 2.74734,0.05716c0.89999,0 1.79999,0 2.69998,0c0.89999,0 1.70001,0 2.61469,0c0.896,0 1.78531,0 2.68533,0c0.89999,0 1.79999,0 2.69998,0c0.89999,0 1.70001,0 2.60001,0c0.89999,0 1.79999,0 2.71066,0c0.91068,0 1.76807,0.08597 2.70401,-0.00134c0.89673,-0.08365 1.42297,-0.75983 2.38531,-0.97781c0.87802,-0.19888 1.80002,-0.02084 2.70001,-0.02084c0.89984,0 1.74756,0.01923 2.60135,0c0.79926,-0.01801 1.509,-0.61813 2.39865,-0.91467c0.85764,-0.28589 1.79999,-0.08533 2.60001,-0.08533c0.89999,0 1.82004,0.00272 2.60001,-0.42532c0.82175,-0.45096 1.33884,-1.18298 2.03598,-1.53867c0.76645,-0.39105 1.44116,-0.75269 2.17468,-1.02536c0.81461,-0.3028 0.96561,-0.73816 1.42532,-1.57465c0.36041,-0.65576 1.57388,-0.37946 2.164,-1.004c0.6058,-0.64114 1.44571,-1.19412 1.77917,-1.95285c0.34967,-0.79562 0.43671,-1.56171 1.07349,-2.1265c0.70145,-0.62216 0.94733,-1.35266 0.94733,-2.15265c0,-0.90002 0,-1.76401 0,-2.70001c0,-0.936 0,-1.79999 0,-2.70001c0,-0.89999 0,-1.79999 0,-2.59998c0,-0.90002 0.16522,-1.81921 -0.02081,-2.70001c-0.17899,-0.84738 -0.62643,-1.66855 -0.98367,-2.44733c-0.31601,-0.6889 -0.97684,-1.45215 -0.99551,-2.35266c-0.01865,-0.89984 -0.23392,-1.65829 -0.64731,-2.40002c-0.42563,-0.76367 -0.84476,-1.54044 -1.186,-2.46664c-0.29379,-0.79745 -0.24539,-1.72421 -0.74133,-2.38669c-0.61087,-0.81598 -1.3403,-1.43405 -1.42401,-2.24664c-0.09222,-0.89529 -0.00134,-1.80002 -0.00134,-2.70001c0,-0.89999 0,-1.79999 0,-2.70001c0,-0.89999 0,-1.79999 0,-2.63333c0,-0.87115 0,-1.76666 0,-2.66666c0,-0.89999 0,-1.79999 0,-2.70001c0,-0.89999 0,-1.79999 0,-2.59998c0,-0.90002 0,-1.80002 0,-2.70001c0,-0.89999 -0.00009,-1.79999 0,-2.70001c0.00009,-0.89999 0.1243,-1.57742 0.57468,-2.39999c0.42728,-0.7804 0.42523,-1.69998 0.42532,-2.60001c0.00009,-0.89981 0.56122,-1.35025 0.99869,-1.97064c0.48996,-0.69479 -0.18021,-1.84784 0.08667,-2.62802c0.26718,-0.7811 1.24551,-1.30927 1.62933,-2.00131c0.45728,-0.82449 0.28531,-1.80002 0.28531,-2.70001c0,-0.89999 -0.12244,-1.89487 0.42535,-2.46399c0.48285,-0.50168 0.38077,-1.35745 0.57599,-2.23468c0.18054,-0.81125 0.95203,-1.36606 0.99417,-2.09601c0.0571,-0.98901 0.00449,-1.90533 0.00449,-2.80533c0,-0.89999 0.38708,-1.35147 0.99551,-1.95715c0.60379,-0.60107 0.91238,-1.32791 1.42984,-1.91751c0.55972,-0.63776 1.3927,-1.01962 1.57333,-1.82666c0.18228,-0.81451 -0.07901,-1.86307 0.0585,-2.54599c0.18729,-0.93002 0.94281,-1.81934 1.33215,-2.46735l0.444,-0.85199l0.16666,-0.78" id="svg_11" stroke-width="2" stroke="#000" fill="none"/>
  <path t="37982,38021,38030,38037,38045,38054,38062,38062,38078,38078,38086,38086,38086,38094,38094,38103,38110,38110,38117,38126,38126,38133,38142,38149,38158,38165,38165,38174,38181,38190,38190,38197,38198,38206,38206,38214,38214,38221,38231,38231,38238,38246,38253,38261,38270,38270,38278,38278,38286,38286,38293,38309,38309,38317,38318,38326,38326,38326,38333,38334,38342,38349,38358,38358,38365,38366,38366,38374,38374,38374,38381,38381,38389,38389,38397,38398,38406,38406,38414,38414,38414,38422,38422,38430,38438,38438,38447,38454,38454,38461,38461,38469,38470,38477,38477,38486,38493,38494,38501,38502,38510,38510,38510,38518,38518,38526,38526,38533,38534,38541,38541,38542,38550,38550,38550,38558,38558,38558,38565,38574,38574,38574,38581,38582,38582,38590,38590,38590,38597,38606,38606,38606,38614,38614,38622,38622,38622,38630,38630,38630,38637,38638,38647,38647,38647,38654,38654,38654,38654,38661,38662,38670,38670,38678,38678,38678,38685,38686,38686,38694,38694,38701,38702,38710,38710,38718,38718,38726,38733,38734,38742,38742,38749,38750,38758,38773,38781,38790,38805,38821,38822,38830,38838,38847,38872,39133,39141" d="m442.51135,247.09091c0,1.8 0.02438,2.63463 -0.5,3.47917c-0.44916,0.72336 -0.36383,1.58856 -0.7215,2.4995c-0.27582,0.70253 -0.8952,1.33354 -1.2785,2.04216c-0.5231,0.96703 -0.92966,1.76366 -1.14282,2.37917c-0.33881,0.97833 -0.14957,1.86136 -0.64249,2.71335c-0.50803,0.87811 -1.55051,1.02747 -1.69385,1.9075c-0.15399,0.9454 -0.02084,1.67465 -0.02084,2.57916c0,0.89999 0,1.79999 0,2.7045c0,1.01682 0,1.6955 0,2.67383c0,0.94034 0,1.875 0,2.54251c0,1.14581 0,1.95831 0,2.80048c0,0.85333 0,1.79468 0,2.56268c0,0.94131 0,1.94934 0,2.70532c0,0.91068 0,1.81067 0,2.71066c0,0.90134 0,1.86667 0,2.70001c0,0.97867 0,1.75266 0,2.65268c0,0.86331 0,1.80566 0,2.68066c0,0.888 0,1.86667 0,2.66666c0,1 0,1.79999 0,2.60001c0,0.99548 0,1.74283 0,2.76401c0,0.836 0,1.73633 0,2.60666c0,0.79999 0,1.57098 0,2.43201c0,1.19598 0,2.07648 0,2.64017c0,1.27048 0,1.9155 0,2.93582c0,0.90533 0,1.85733 0,2.62265c0,1.00317 0,1.63467 0,2.81985c0,0.79349 0,1.569 0,2.60815c0,0.76801 0,1.72784 0,2.62335c0,0.86331 0,1.72198 0,2.66864c0,0.85333 0,1.79468 0,2.56268c0,0.952 0,1.71732 0,2.71149c0,0.91919 0,1.77917 0,2.72601c0,0.88916 0,1.87851 0,2.6785c0,1 -0.05789,1.80939 0.08536,2.60001c0.18475,1.01968 0.5246,1.60037 1.0145,2.59982c0.28906,0.58972 0.74194,1.63153 0.90015,2.32101c0.23389,1.01935 0.44778,1.74551 0.64734,2.58817c0.20975,0.88571 0.31442,1.78571 0.34201,2.655c0.03394,1.06885 0.01065,1.77432 0.01065,2.57431c0,1.04703 -0.01147,1.99521 0.00452,2.67151c0.01834,0.77594 0.20596,2.07211 0.42084,2.76483c0.21136,0.6814 0.48227,1.64392 0.53867,2.44c0.07184,1.01404 0.0282,1.97552 0.03598,2.952c0.00534,0.6694 0.0246,1.45313 0.35718,2.43784c0.29462,0.87228 0.75488,1.81271 0.93832,2.35266c0.28784,0.8472 0.55597,2.04065 0.61917,2.64017c0.09055,0.85867 0.08533,2.06934 0.08533,2.75201c0,0.98401 0,1.66501 0,2.47198c0,1.17868 -0.0098,2.07477 0.02084,2.65784c0.04398,0.83685 0.34442,2.05951 0.55383,2.71017c0.32333,1.00461 0.41492,1.81052 0.42532,2.81067c0.00842,0.81064 -0.01126,1.68542 0.00134,2.68399c0.01031,0.81619 0.02554,1.64545 0.28268,2.63068c0.17645,0.67606 0.60071,1.67853 0.67999,2.47467c0.10352,1.03949 0.03598,1.836 0.03598,2.69467c0,0.86331 0,1.76334 0,2.68265c0,0.85419 0,1.83334 0,2.62268c0,1.04401 0,1.79999 0,2.71066c0,0.89999 -0.00009,1.79999 0,2.70001c0.00009,0.89999 0.22061,1.76666 0.57468,2.39999c0.48151,0.86127 0.436,1.78934 0.92532,2.39999l0.48935,0.61066l0.01065,0.88934l0,0.88934" id="svg_12" stroke-width="2" stroke="#000" fill="none"/>
  <path t="40375,40454,40463,40471,40479,40479,40487,40487,40496,40496,40503,40503,40503,40512,40519,40519,40527,40527,40535,40535,40542,40551,40559,40559,40567,40574,40574,40582,40590,40590,40599,40600,40600,40606,40606,40614,40622,40622,40630,40630,40638,40638,40646,40646,40654,40654,40655,40662,40670,40670,40678,40686,40687,40696,40696,40702,40702,40712,40712,40719,40726,40726,40735,40735,40742,40742,40750,40750,40758,40759,40767,40767,40774,40782,40782,40790,40791,40798,40798,40806,40807,40814,40814,40822,40830,40838,40850,40850,40854,40855,40862,40862,40870,40878,40895,40895,40912,40919,40919,40919,40927,40934,40951,40951,40958,40959,40974,40982,40990,40991,40998,41006,41014,41022,41038,41038,41054,41054,41062,41070,41078,41086,41095,41112,41112,41118,41119,41126,41142,41158,41166,41174,41190,41198,41254,41263,41326,41350,41350,41366,41430,41454,41494,41503,41511,41518,41535,41550,41566,41582,41598,41630,41646,41678,41687,41687,41702,41726,41735,41751,41767,41782,41782,41790,41798,41817,41822,41838,41838,41862,41870,41886,41886,42150,42158,42184,42198,42214,42214,42230,42230,42230,42238,42254,42270,42271,42281,42295,42303,42311,42327,42327,42335,42358,42368,42406,42414,42431,42448,42486,42495,42513,42528,42559,42567,42590,42606,42654,42678,42678,42694,42710,42718,42726,42750,42782,42806,42822,42822,42854,42864,42879,42902,42913,42927,42943,42977,42991,43022,43022,43032,43054,43070,43079,43099,43099,43104,43104,43126,43158,43182,43192,43208,43230,43262,43271,43326,43334,43382,43391,43406,43414,43438,43446,43454,43463" d="m379.51135,308.09091c0,1.79999 0,2.70001 0,3.52084c0,0.96448 0,1.68982 0,2.67899c0,0.77933 -0.06769,1.78644 0.05719,2.61002c0.14761,0.97351 0.46725,1.68338 0.65881,2.42215c0.28467,1.09781 0.284,2.08932 0.284,2.76801c0,0.97867 0,1.884 0,2.82532c0,0.69067 -0.05835,1.69049 0.35269,2.47467c0.44449,0.84805 0.64664,1.58536 0.64731,2.52533c0.0007,1.00803 -0.10352,1.77213 0.02084,2.69553c0.11017,0.81799 0.61563,1.67218 0.8125,2.47916c0.19214,0.78751 0.16599,1.60001 0.16666,2.59549c0.00061,0.91919 0,1.90451 0,2.72601c0,0.88916 0,1.87833 0,2.65765c0,0.99951 0,1.7735 0,2.6825c0,0.80002 0,1.75952 0,2.55301c0,0.77551 -0.1662,2.0293 0.22134,2.88535c0.3035,0.67035 0.7254,1.43817 1.06268,2.384c0.25168,0.70578 0.67206,1.62857 0.71466,2.39999c0.05249,0.95056 0.00131,1.71732 0.00131,2.71149c0,0.74734 -0.06921,1.80057 0.22134,2.72583c0.21982,0.69995 0.61691,1.66757 0.83133,2.43134c0.25681,0.91479 0.61661,1.61856 1.14734,2.36334c0.46982,0.65924 1.13589,1.52332 1.36401,2.09467c0.38483,0.96387 0.35358,1.97293 0.78867,2.68399c0.45929,0.75061 0.6243,1.53525 0.93265,2.504c0.19,0.59695 0.82617,1.57129 1.31467,2.22668c0.51208,0.68704 1.00021,1.33362 1.2785,2.35315c0.21829,0.79968 0.16702,1.72809 0.62149,2.52151c0.40439,0.70599 0.39954,1.61774 0.58536,2.38535c0.23694,0.97876 0.75504,1.6806 1.39731,2.22931c0.61563,0.52597 1.35275,1.19324 1.51868,2.08536c0.1694,0.91092 0.74097,1.46487 1.39868,2.21066c0.63837,0.72385 0.97189,1.4317 1.39999,2.10532c0.55389,0.87158 1.10501,1.58084 1.19998,2.48401c0.07941,0.75516 0.38751,1.63892 0.64734,2.34732c0.3667,0.99973 0.34027,1.8541 0.35266,2.81934c0.01044,0.81271 0.55179,1.4433 0.94284,2.19052c0.39169,0.74847 0.05716,1.74283 0.05716,2.64282c0,0.88535 0,1.82532 0,2.51599c0,1.07333 -0.15015,1.96338 0.35269,2.77951c0.46283,0.75119 1.26062,1.20068 1.526,2.02582c0.26511,0.82425 0.4986,1.74268 0.83731,2.47736c0.39511,0.85699 -0.0441,1.87329 0.30484,2.68048c0.30865,0.71399 0.5665,1.34912 1.03635,2.16367c0.39615,0.68683 0.62076,1.49527 1.1095,2.19052c0.50327,0.71591 1.11829,1.22623 1.48065,1.86667c0.46442,0.82077 0.89548,1.52557 1.57401,2.17865c0.57947,0.55774 1.4491,0.92825 1.75784,1.64218c0.34482,0.79739 0.39572,1.4559 1.02081,1.97916c0.59705,0.49979 1.04874,1.35605 1.91602,1.5c0.77786,0.12909 1.47113,0.31448 2.25067,0.83334c0.70743,0.47086 1.62143,0.27274 2.33331,0.66666c0.88599,0.49026 1.95401,0.30408 2.44736,0.85718c0.60364,0.67673 1.04309,1.53207 1.85266,1.64148c0.89377,0.12079 1.51035,0.61948 2.39999,0.91602c0.85764,0.28589 1.80038,0.05997 2.60001,0.08533c0.90137,0.02859 1.70511,0.51559 2.39865,1.19867c0.5199,0.51208 1.41202,0.80133 2.30133,0.80133c0.90002,0 1.8045,0 2.66669,0c0.85416,0 1.83456,0.03513 2.62265,-0.01068c0.72794,-0.0423 1.64175,-0.59265 2.50616,-0.93216c0.83722,-0.32883 1.36502,-0.85617 2.3045,-1.04651c0.8826,-0.17883 1.73764,-0.33658 2.27884,-1.11047c0.49454,-0.70715 1.21024,-0.72839 2.01132,-1.25284c0.74374,-0.48691 1.75192,-0.46494 2.08902,-1.16818c0.37564,-0.78369 0.5415,-1.46628 1.5,-1.47916c0.87344,-0.01175 1.58105,-0.44086 2.09549,-1.02533c0.54871,-0.62341 0.88574,-1.49826 1.37268,-2.27017c0.44312,-0.70242 0.93558,-1.29053 1.40982,-2.00449c0.52585,-0.79166 1.11871,-1.35254 1.61749,-2.08936c0.45154,-0.66705 0.87659,-1.34192 1.46133,-2c0.61511,-0.69229 1.564,-0.77731 1.564,-1.71066c0,-0.89999 0,-1.69998 0,-2.60001c0,-0.89999 0,-1.79999 0,-2.69998c0,-0.89999 0.12399,-1.80862 -0.00015,-2.69983c-0.11172,-0.80188 -0.82605,-1.31409 -1.22134,-2.00018c-0.45377,-0.7876 -1.07553,-1.49741 -1.97849,-1.81467c-0.85278,-0.29962 -1.57294,-0.47726 -2.13333,-1.08533c-0.5679,-0.61621 -1.70114,-0.47052 -2.38,-1.08401c-0.57275,-0.51761 -0.65735,-1.34494 -1.16516,-2.13748c-0.47836,-0.74658 -0.04651,-1.8533 -0.73218,-2.35318c-0.70734,-0.51572 -1.47342,-0.83987 -2.03665,-1.478c-0.52554,-0.5954 -1.12238,-1.25287 -1.70535,-1.89465c-0.52625,-0.57932 -0.65182,-1.34818 -1.08331,-2.02734l-0.86401,-0.37799l-0.70001,-0.48068l-0.83331,-0.33331" id="svg_13" stroke-width="2" stroke="#000" fill="none"/>
  <path t="45223,45310,45319,45334,45342,45342,45350,45350,45358,45366,45374,45383,45390,45398,45406,45406,45414,45423,45440,45440,45446,45454,45462,45486,45494,45502,45502,45518,45526,45534,45550" d="m378.51135,320.09091c0,-1.70001 -0.31448,-2.38715 -0.83331,-3.16666c-0.47089,-0.70746 -0.18719,-1.60345 -0.51935,-2.48602c-0.26578,-0.70621 -0.57916,-1.71313 -0.64734,-2.64282c-0.05801,-0.79099 -0.76511,-1.35413 -1.38931,-2.10449c-0.5462,-0.65662 -0.82523,-1.5701 -1.18533,-2.20001c-0.49405,-0.8642 -0.92584,-1.6188 -1.25867,-2.39999c-0.32019,-0.75153 0.246,-1.82343 -0.22385,-2.64282c-0.39441,-0.68784 -0.93274,-1.31796 -1.46365,-1.87802c-0.66013,-0.69638 -1.19385,-1.27914 -1.47467,-2.17917l-0.0405,-0.89999l-0.38934,-0.79999l-0.48932,-0.80002" id="svg_14" stroke-width="2" stroke="#000" fill="none"/>
  <path t="47143,47230,47238,47255,47262,47271,47278,47278,47288,47318,47326,47326,47358,47390,47422,47431,47446,47457,47471,47478,47488,47495,47502,47518,47542,47542" d="m442.51135,406.09091c0,1.70001 -0.146,2.72275 0.436,3.38934c0.60956,0.69818 1.34958,1.05264 1.84933,1.80933c0.40216,0.60892 1.20251,1.08829 1.93619,1.67999c0.64609,0.52109 1.43109,0.92151 2.27847,1.10049c0.88083,0.18607 1.82242,0.2189 2.69867,0.0195c0.80429,-0.18304 0.80133,-1.29865 0.80133,-2.19867c0,-0.89981 -0.02896,-1.7478 0,-2.60132c0.02863,-0.84296 0.83334,-1.36533 1,-2.19867l0,-0.79999" id="svg_15" stroke-width="2" stroke="#000" fill="none"/>
  <path t="48007,48046,48054,48054,48062,48062,48070,48087,48094,48110,48118,48134,48150,48158,48174,48190,48198,48214,48230,48239,48256,48256,48270,48278,48287" d="m451.51135,410.09091c-0.01065,1.82532 -0.08798,2.88318 -0.52081,3.47916c-0.58145,0.80063 -1.33029,1.28915 -1.47467,2.22086c-0.13782,0.8894 -0.00452,1.79999 -0.00452,2.69998c0,0.89551 -0.15714,1.92172 0.35269,2.54733c0.49554,0.60809 1.25793,1.04733 2.14731,1.05267c0.89999,0.0054 1.80002,0 2.70001,0c0.89999,0 1.79999,0 2.60001,0l0.89999,-0.05716l0.77917,-0.46368l0.46817,-0.77466" id="svg_16" stroke-width="2" stroke="#000" fill="none"/>
  <path t="49567,49670,49670,49686,49702,49718,49734,49750,49766,49766,49774,49782,49806,49814,49822,49838,49854,49862,49870,49870,49878,49886,49894,49910,49918,49935,49935,49942,49951,49958,49967,49974,50022,50062" d="m280.51135,465.09091c-1,-1 -1.01801,-1.80017 -1,-2.70001c0.01801,-0.90054 0.2673,-1.92703 1.08401,-2.29865c0.73483,-0.33438 1.81122,-0.32703 2.34668,-0.80267c0.71817,-0.63791 1.27383,-1.19641 2.16931,-1.19867c0.89999,-0.00226 1.80002,0 2.70001,0c0.89999,0 1.80127,-0.04779 2.69998,0c0.80341,0.04272 1.65817,0.47626 2.38934,0.97467c0.65265,0.44489 1.05688,0.89725 1.91068,1.02982c0.93036,0.14447 1.13385,1.00012 1.80981,1.63834c0.69742,0.65848 1.71951,0.64252 1.89017,1.45718l0,0.89999l0.22134,0.87866l0.69333,0.40668" id="svg_17" stroke-width="2" stroke="#000" fill="none"/>
  <path t="50446,50566,50574,50598,50606,50614,50622,50638,50646,50646,50654,50670,50678,50686,50687,50694,50702,50726,50742,50766,50798,50806,50838,50838,50854,50870,50886,50934,50950,50975,50998,51038,51038" d="m304.51135,463.09091c0,-1.70001 0,-2.64282 0,-3.52084c0,-0.87915 -0.26694,-1.81686 0.00452,-2.77466c0.22034,-0.77744 0.68375,-1.35031 1.0795,-2.13651c0.37537,-0.7457 1.27264,-1.18033 1.832,-1.85333c0.55603,-0.66901 0.94229,-1.10938 1.72684,-1.76733c0.61041,-0.5119 1.27744,-0.88382 2.0625,-0.95181c0.97128,-0.08414 1.50937,-0.9346 2.34732,-0.99551c0.94482,-0.06866 1.78177,-0.19595 2.64734,0.05716c0.87762,0.25665 1.74451,0.64905 2.30017,1.16418c0.59183,0.54868 0.97449,1.21466 1.35251,2.07864l0.48065,0.70001l0.16534,0.79999" id="svg_18" stroke-width="2" stroke="#000" fill="none"/>
  <path t="52358,52382,52391,52399,52407,52416,52423,52432,52432,52439,52439,52447,52447,52454,52454,52462,52470,52470,52478,52488,52489,52494,52494,52505,52505,52510,52510,52522,52526,52526,52539,52539,52542,52542,52542,52555,52556,52558,52558,52571,52574,52574,52584,52584,52591,52591,52598,52598,52613,52617,52617,52622,52633,52633,52633,52641,52641,52641,52646,52647,52656,52656,52663,52663,52663,52674,52674,52679,52691,52691,52691,52696,52696,52696,52705,52705,52710,52710,52719,52726,52726,52726,52738,52738,52742,52750,52766,52774,52774,52788,52788,52790,52790,52798,52806,52806,52815,52831,52831,52838,52846,52855,52863,52863,52874,52878,52878,52888,52888,52894,52894,52905,52905,52910,52910,52920,52926,52934,52942,52955,52958,52958,52971,52974,52975,52990,52991,52991,52998,53006,53015,53023,53032,53040,53047,53054,53070,53078,53078,53094,53102,53102,53110,53118,53142,53150,53174,53182,53214,53246,53254,53334" d="m475.51135,205.09091c0,1.8 0,2.7 0,3.60001c0,0.79999 0,1.7 0,2.60133c0,0.96533 0,1.79866 0,2.77733c0,0.774 0,1.6785 0,2.42583c0,0.99417 0,1.93834 0,2.83833c0,0.85733 0,1.6425 0,2.5825c0,1.008 0,1.8 0,2.66c0,0.91916 0,1.91333 0,2.67867c0,0.952 0,1.72 0,2.66133c0,1.008 0,1.8 0,2.66133c0,0.75999 0,1.93466 0,2.73866c0,0.82201 0,1.85301 0,2.528c0,1.08 0,1.94217 0,2.7675c0,0.96451 0,1.68983 0,2.679c0,0.77934 0,1.77884 0,2.68417c0,0.94133 0,1.632 0,2.616c0,0.98399 0,1.67467 0,2.74733c0,0.91934 0,1.79434 0,2.43933c0,0.99734 0,1.81334 0,2.62935c0,1.22684 0,1.87332 0,2.88416c0,0.82068 0,1.96649 0,2.74799c0,0.79053 0,1.71851 0,2.63052c0,0.84265 0,1.75467 0,2.68265c0,0.7905 0,1.81717 0,2.50269c0,0.83466 0,1.836 0,2.63599c0,0.99866 0.07663,1.94647 -0.00449,2.84735c-0.08371,0.92975 -0.47455,1.57037 -0.71149,2.35397c-0.29514,0.97607 -0.28177,1.74152 -0.28403,2.7627c-0.00208,0.93597 0.09641,1.85925 -0.16666,2.80264c-0.19006,0.68164 -0.65469,1.6698 -0.83334,2.33334c-0.26627,0.98895 -0.69495,1.6395 -0.91464,2.61465c-0.1955,0.86771 -0.09415,1.74014 -0.66,2.44934c-0.57526,0.72098 -1.30508,1.16901 -1.90451,1.936c-0.50766,0.64957 -0.33755,1.65427 -0.6875,2.5c-0.32465,0.78464 -0.75778,1.58746 -1.40265,2.20132c-0.54608,0.51984 -1.47653,1.07697 -1.88901,1.79868c-0.45343,0.7934 -0.60992,1.73917 -1.24701,2.3045c-0.55582,0.49323 -1.01306,1.40735 -1.37732,2.12616c-0.39767,0.78479 -0.47604,1.66074 -1.13885,2.32632c-0.6431,0.64578 -1.55219,0.51306 -1.99982,1.34302c-0.34933,0.64764 -0.78632,1.59204 -1.64001,1.87466c-0.63135,0.20901 -1.61353,0.55084 -2.23865,1.12515c-0.59592,0.54749 -1.58051,0.55212 -2.37918,0.92102c-0.77106,0.35614 -1.23605,1.14877 -1.52084,1.97916c-0.28455,0.82962 -1.30408,0.81488 -1.91599,1.284c-0.69287,0.53119 -1.14719,1.18622 -1.68399,1.86533c-0.56299,0.71222 -1.61395,0.96851 -2.04285,1.55518c-0.55521,0.75946 -1.06168,1.34818 -1.85718,1.7955c-0.79547,0.44733 -1.30389,1.16586 -2,1.47916c-0.8443,0.37997 -1.52533,0.59552 -2.14731,1.07352l-0.51935,0.78067" id="svg_19" stroke-width="2" stroke="#000" fill="none"/>
 </g>
 <g display="none">
  <title>muse_image</title>
  <image xlink:href="http://farm2.static.flickr.com/1175/692108952_9532cbf31a.jpg" id="muse" height="480" width="386" y="0" x="127"/>
 </g>
 <g display="none">
  <title>bbox</title>
  <rect stroke="#f00" fill="none" stroke-width="3" height="426.24" width="363.97022" y="43.2" x="138.4938" id="bbox"/>
 </g>
</svg>
