<svg width="640" height="480" xmlns="http://www.w3.org/2000/svg" xmlns:svg="http://www.w3.org/2000/svg" xmlns:xlink="http://www.w3.org/1999/xlink">
 <!-- Sketchy ANNOTATION
  ImageNet ID: n02503517_6880
  URL: http://farm2.static.flickr.com/1061/847919322_0152ad3cef.jpg
  Image Width: 500
  Image Height: 400
  BBox X: 8
  BBox Y: 6
  BBox Width: 468
  BBox Height: 384
  Exposure: 2000ms
  Synset Label: elephant
  Synset ID: n02503517
  Worker Tag: elephant
  Sanity Check: 
   Context
   Saved
   Shading
  Comment: 
   {}
  Worker ID: AIH9VLD92GHFH
  Assignment ID: 3WETL7AQWT80OKFM8PRU8R6KOP2534
  HIT ID: 3BO3NEOQM0HAX9BSYMKWVOTAYYVAIP
  Work Time: 64s
  Worker Score: 0.9286
 END ANNOTATION -->
 <g display="inline">
  <title>Layer 1</title>
  <path t="0,264,264,264,280,280,280,280,298,299,299,299,314,314,314,331,331,331,331,349,349,349,366,366,366,383,383,400,401,417,417,418,435,452,455,469,469,469,485,486,486,504,504,504,521,521,521,521,537,537,554,554,554,571,572,572,588,588,588,588,606,607,607,624,624,624,624,624,624,641,641,641,641,658,658,659,659,659,676,676,676,676,676,692,692,692,692,692,710,710,710,710,710,727,727,728,728,728,744,744,744,744,763,764,764,784,784,784,796,796,796,812,812,812,830,831,847,847,847,864,864,864,885,885,885,885,898,898,898,898,915,915,915,915,915,933,933,933,933,933,949,950,950,950,950,966,966,966,966,966,966,983,983,983,983,983,1000,1000,1000,1017,1018,1018,1018,1035,1035,1035,1035,1053,1053,1053,1069,1069,1069,1069,1086,1087,1087,1087,1102,1103,1103,1103,1103,1120,1120,1120,1120,1120,1137,1137,1137,1155,1155,1155,1172,1172,1172,1190,1190,1190,1208,1208,1226,1226,1243,1260,1260,1278,1294,1295,1312,1312,1331" d="m311,64c2.95715,-0.009 3.53564,0.03548 4.40134,-0.17067c1.22928,-0.29273 1.80557,-0.68974 2.39865,-1.05067c0.6073,-0.36959 1.79636,-1.18303 2.40002,-1.568c0.59641,-0.38033 1.17978,-0.76757 2.39999,-1.32533c0.59094,-0.27012 1.50092,-0.57813 2.39999,-0.88533c0.89642,-0.3063 1.51819,-0.47291 2.31467,-0.97066c0.80923,-0.50573 1.44498,-1.28376 1.87466,-1.77867c0.80258,-0.92442 1.40305,-1.44096 2.1535,-1.94167c0.77002,-0.51376 1.38693,-1.0443 2.14249,-1.509c0.70557,-0.43394 1.72192,-0.88587 2.49384,-1.3c0.54089,-0.2902 1.33704,-1.02465 2.34235,-1.37883c0.67307,-0.23713 1.70004,-0.42216 2.2785,-0.831c0.62518,-0.44188 1.37308,-1.1671 2.21066,-1.65416c0.62805,-0.36522 1.60818,-0.74335 2.42532,-1.036c0.57285,-0.20516 1.76199,-0.60621 2.65952,-0.8955c0.58237,-0.18771 1.41238,-0.45646 2.41916,-0.6205c0.87,-0.14175 1.89194,-0.28795 2.496,-0.52c0.88486,-0.33992 1.87311,-0.76836 2.42532,-0.964c0.86609,-0.30685 1.76004,-0.61232 2.664,-0.8955c0.89624,-0.28077 1.49466,-0.4538 2.70267,-0.62183c0.61649,-0.08575 1.62103,-0.14986 2.73068,-0.416c0.84436,-0.20251 1.27557,-0.37487 2.1875,-0.66667c0.93005,-0.2976 1.3837,-0.49122 2.75766,-0.757c0.85794,-0.16596 1.70023,-0.21461 2.517,-0.234c1.20419,-0.02859 2.00449,-0.009 2.8045,-0.009c0.79999,0 1.60001,0 2.80017,0c0.80432,0 1.62067,0 2.457,0c0.42816,0 1.76431,0 2.69998,0c0.96368,0 1.45352,0 2.44418,0c0.99866,0 1.99731,0 2.98798,0c0.48984,0 1.45352,0 2.84402,0c0.44516,0 1.30948,0 2.14581,0c0.81635,0 2.02084,0 2.81818,0c0.78134,0 1.88834,0 2.86932,0c0.82352,0 1.5481,-0.01559 2.75467,0.00033c0.80423,0.01061 1.66687,0.00604 2.65717,0.4425c0.49014,0.21603 1.07001,0.79751 2.12152,1.5355c0.57913,0.40645 1.38965,0.78474 2.39999,0.969c0.79379,0.14477 1.59836,0.27936 2.42084,0.55267c0.66306,0.22033 1.66696,0.39904 2.5,0.52083c0.88354,0.12917 1.79761,0.38543 2.67917,0.85117c0.61386,0.3243 1.2019,0.72779 2.40131,1.52933c0.61032,0.40787 1.23746,0.8307 1.884,1.284c1.04068,0.72963 1.39786,1.00167 2.15067,1.54c0.77249,0.55242 1.55688,1.10397 2.36401,1.608c0.7919,0.49452 1.59854,0.93341 2,1.14584c0.79712,0.42179 1.99921,1.02242 2.80133,1.42083c0.80853,0.4016 1.21625,0.6069 2.05585,1c1.3045,0.61076 1.76495,0.79793 2.69098,1.2045c0.46701,0.20504 1.40338,0.6068 2.2825,1.08083c0.84909,0.45784 1.61252,0.97989 2.28668,1.54c0.64023,0.53191 1.19852,1.08681 1.96115,1.85333c0.68903,0.69254 1.13657,1.12511 1.92151,2.088c0.41385,0.50767 1.00305,1.35208 1.39999,1.93783c0.60468,0.89234 1.00302,1.49131 1.57916,2.37466c0.36646,0.56187 0.98901,1.60583 1.40619,2.2955c0.41403,0.68445 0.9418,1.39731 1.62,2.1825c0.4902,0.56754 1.03464,1.11504 1.66132,2.04283c0.39343,0.5825 0.81473,1.5199 1.08151,2.15717c0.422,1.00803 0.72748,1.73354 1.09851,2.47884c0.38855,0.78047 0.82678,1.57343 1.31998,2.364c0.50269,0.8058 1.04724,1.57919 1.3125,1.95834c0.50955,0.72835 1.21466,1.69182 1.70651,2.53183c0.41647,0.71128 0.80438,1.68044 1.11884,2.458c0.32138,0.79467 0.82532,1.75528 1.34818,2.242c0.65216,0.6071 1.34583,1.11697 1.84732,1.83067c0.40015,0.56948 1.00558,1.35876 1.63867,2.14317c0.64233,0.79585 0.82281,1.58672 1.29733,2.236c0.56931,0.77896 1.3537,1.22285 1.95334,2.01067c0.53101,0.69764 0.58981,1.58933 0.61066,2.56783l0,0.717l-0.07199,0.9045" id="svg_1" stroke-width="2" stroke="#000" fill="none"/>
  <path t="2259,2437,2455,2455,2455,2455,2455,2473,2474,2474,2474,2474,2474,2489,2489,2489,2489,2489,2508,2508,2508,2508,2508,2508,2508,2524,2524,2524,2524,2524,2524,2524,2541,2541,2541,2541,2541,2558,2558,2558,2558,2558,2575,2575,2575,2575,2575,2592,2592,2592,2592,2592,2610,2610,2628,2628,2628,2644,2661" d="m467,162c0,1.744 0,2.66667 0,3.34134c0,0.80266 0,1.70132 0,2.664c0,0.99466 0,1.99466 0,2.49466c0,1 0,2 0,2.5c0,1.50017 0,2.00133 0,3.01067c0,1.02533 0,1.54649 0,3.15601c0,0.55482 0,1.11867 0,2.26933c0,0.58482 0,1.76849 0,2.36533c0,1.19867 0,2.39734 0,2.99417c0,0.59383 0,1.76849 0,2.34734c0,0.57182 0,2.23549 0,2.77049c0,1.04001 0,2.04001 0,2.52501c0,1.39499 0,2.27632 0,3.12566c0,0.82533 0,1.63467 0,2.83617c0,0.80434 0,1.62067 0,2.03584c0,0.84933 0,2.185 0,3.10767c0,0.91466 0,1.35899 0,2.20166c0,1.39867 0,2.19217 0,3.25467c0,0.78934 0,1.51466 0,2.58934l0,0.81065" id="svg_2" stroke-width="2" stroke="#000" fill="none"/>
  <path t="4894,5042,5043,5043,5043,5059,5059,5059,5059,5059,5059,5059,5059,5076,5076,5076,5076,5076,5076,5076,5077,5077,5094,5094,5094,5094,5094,5094,5094,5094,5094,5111,5111,5111,5111,5111,5111,5111,5111,5111,5128,5128,5128,5128,5128,5128,5128,5145,5145,5145,5162,5162,5179,5197,5213,5232,5232,5248,5248,5265,5265,5265,5283,5283,5301,5301,5301,5301,5317,5317,5317,5317,5317,5335,5335,5335,5335,5335,5351,5352,5352,5352,5368,5368,5368,5368,5386,5386,5386,5386,5386,5403,5404,5404,5404,5404,5420,5420,5420,5420,5437,5437,5437,5454,5455,5455,5476,5476,5497,5497,5497,5510,5510,5510,5510,5527,5527,5527,5527,5527,5546,5546,5546,5546,5546,5546,5560,5560,5560,5560,5560,5560,5560,5580,5580,5580,5580,5580,5594,5594,5594,5594,5594,5610,5610,5610,5610,5627,5627,5627,5646,5646,5646,5646,5660,5660,5660,5677,5677,5677,5694,5694,5712,5712,5712,5729,5729,5746,5747,5763,5780,5780,5797,5797,5797,5815,5815,5815,5816,5816,5816,5832,5833,5833,5833,5833,5833,5849,5849,5849,5849,5849,5867,5867,5867,5867,5867,5867,5883,5884,5884,5884,5901,5920,5920,6126,6147,6162,6162,6311,6312,6312,6329,6329,6329,6330,6330,6345,6345,6345,6345,6345,6365,6365,6366,6366,6379,6379,6379,6396,6396,6413,6431,6431,6448,6449,6466,6482,6483,6499,6499,6517,6517,6517,6534,6534,6551,6551,6568,6568,6568,6586,6586,6603,6604,6621,6621,6638,6638,6638,6655,6655,6655,6655,6672,6673,6673,6673,6689,6689,6689,6689,6689,6707,6707,6707,6707,6723,6723,6723,6746,6746,6746,6765,6766,6766,6780,6780,6780,6780,6799,6800,6813,6813,6813,6829,6850,6850,6862,6862,6882,6883,6883,6897,6897,6913,6913,6913,6931,6931,6931,6948,6948,6948,6965,6965,6965,6982,7000,7017,7017,7035,7051,7072,7089,7116,7144,7167,7180,7180,7197,7213,7213,7213,7230,7230,7230,7231,7248,7248,7248,7248,7264,7264,7264,7264,7281,7281,7281,7281,7300,7301,7301,7301,7301,7315,7315,7315,7315,7315,7332,7333,7333,7333,7349,7349,7349,7349,7349,7366,7367,7367,7367,7383,7384,7384,7384,7401,7401,7401,7401,7401,7418,7418,7418,7436,7436,7436,7453,7471,7471,7488,7517,7534,7552,7569,7569,7586,7587,7587,7604,7604,7604,7621,7621,7638,7639,7676,7710,7733,7733,7747,7747,7747,7769,7769,7769,7781,7781,7781,7798,7799,7799,7818,7818,7818,7831,7831,7831,7831,7851,7851,7851,7865,7865,7865,7881,7882,7882,7899,7899,7899,7916,7916,7916,7935,7935,7935,7950,7950,7950,7950,7969,7969,7969,7969,7969,7985,7986,7986,7986,7986,7986,7987,8003,8003,8003,8003,8003,8004,8004,8020,8020,8020,8020,8020,8020,8020,8037,8037,8037,8037,8037,8037,8037,8054,8054,8054,8054,8054,8071,8071,8071,8089,8089,8089,8106,8107,8123,8123,8140,8158,8158,8159,8176,8176,8191,8191,8208,8208,8225,8225,8242,8242,8259,8259,8260,8276,8276,8294,8294,8294,8318,8318,8318,8331,8352,8352,8352,8366,8366,8382,8400,8400,8416,8432,8433,8452,8452,8466,8486,8499,8516,8516,8533,8533,8533,8533,8551,8551,8551,8568,8568,8585,8585,8585,8602,8603,8603,8620,8620,8620,8637,8637,8637,8637,8654,8655,8655,8671,8671,8671,8671,8688,8688,8688,8688,8705,8706,8706,8706,8706,8724,8724,8724,8724,8725,8740,8741,8741,8741,8742,8756,8757,8757,8757,8774,8774,8775,8775,8775,8790,8791,8791,8791,8791,8808,8809,8809,8809,8825,8825,8825,8843,8843,8843,8859,8859,8860,8877,8877,8894,8894,8894,8911,8912,8928,8928,8950,8950,8970,8971,8984,8984,8984,8984,8996,8997,8997,8997,9021,9022,9022,9022,9022,9022,9034,9035,9035,9035,9051,9051,9051,9068,9068,9085,9102,9102,9118,9118,9118,9137,9138,9153,9153,9153,9169,9169,9169,9186,9186,9204,9204,9222,9222,9222,9238,9238,9239,9239,9255,9256,9256,9256,9256,9273,9273,9274" d="m341,221c2.40533,1.77467 2.83942,2.30664 3.34399,2.92934c0.59351,0.73245 1.31989,1.5732 1.74185,2.03549c0.93219,1.02129 1.44958,1.56258 1.97665,2.13934c0.54633,0.59784 1.1069,1.21635 1.6575,1.8705c1.13113,1.34387 1.66296,2.06496 2.19733,2.79333c0.5387,0.73428 1.06635,1.48384 1.60352,2.23199c0.53885,0.7505 1.07709,1.50385 1.6485,2.23199c1.14053,1.4534 1.76633,2.13107 2.396,2.79601c0.62445,0.65942 1.2627,1.29066 1.89301,1.9095c0.61771,0.60648 1.22922,1.18915 1.80298,1.77451c1.08591,1.10788 1.55954,1.66083 1.99869,2.20132c0.42233,0.51981 0.80923,1.03813 1.17749,1.545c0.35834,0.49321 0.69724,0.98323 1.04251,1.455c0.67801,0.92639 1.03741,1.36783 1.40134,1.79868c0.35883,0.4248 1.07724,1.22528 1.42133,1.60533c0.6431,0.71028 1.46747,1.61581 1.98932,2.41066c0.42343,0.64493 0.85767,1.69931 1.20801,2.23035c0.61545,0.93289 1.38281,1.33096 1.50015,2.14166c0.1311,0.90582 0.65485,1.50687 1.19986,2.38531c0.43668,0.70386 0.82141,1.50461 1.18933,2.31467c0.26935,0.59305 0.5235,1.60309 0.63599,2.47202c0.13748,1.06186 0.24271,1.7019 0.42133,2.38934c0.28546,1.0986 0.69904,2.18222 1.04001,2.85464c0.33948,0.66949 0.75107,1.31543 1.20001,1.96802c0.72043,1.04724 1.26581,1.76877 1.53867,2.14133c0.54898,0.74957 1.09729,1.48593 1.85315,2.55316c0.46848,0.66144 0.90219,1.29962 1.31702,1.91699c0.60675,0.90302 0.9986,1.50952 1.41516,2.10452c0.63553,0.90775 1.34503,1.80966 1.87601,2.39999c0.54886,0.6102 1.15543,1.20486 1.47498,1.5c0.99106,0.91534 1.7189,1.50128 2.453,2.08932c0.36346,0.29114 1.0863,0.84036 2.052,1.64401c0.56915,0.47366 1.2951,1.1423 1.72433,1.56216c0.81555,0.7977 1.38907,1.41623 2.009,1.94733c0.77594,0.66476 1.61804,1.10806 2.11469,1.54117c0.80276,0.7001 1.20352,1.54633 1.80682,2.31601c0.48758,0.62204 1.08395,1.19904 1.87866,2.00034c0.40482,0.40817 1.04401,1.06439 1.48517,1.57031c0.75027,0.86038 1.27756,1.54388 1.83551,2.29184c0.29285,0.39261 0.8891,1.2197 1.47916,2.10416c0.60895,0.91278 0.90356,1.38831 1.5,2.35419c0.30179,0.48874 0.60089,0.98309 1.5,2.47916c0.30029,0.49966 0.89911,1.49603 1.20001,1.98932c0.29913,0.49036 0.89603,1.45605 1.19998,1.92535c0.88815,1.37134 1.2005,1.79782 1.77869,2.64932c0.28122,0.41412 0.86081,1.20261 1.48798,2.436c0.39758,0.78189 0.67279,1.58572 0.91202,2.36401c0.22971,0.74734 0.5173,1.8157 0.72131,2.47882c0.19614,0.63751 0.49982,1.55591 0.90002,2.75717c0.19989,0.60004 0.5,1.5 0.79999,2.39999c0.29999,0.89999 0.49997,1.5 0.79999,2.39999c0.29999,0.89984 0.59341,1.79169 0.80002,2.36401c0.38766,1.07388 0.82642,1.98636 1.04282,2.6315c0.33102,0.98694 0.31226,1.82089 0.57852,2.8045c0.22134,0.81769 0.57394,1.38525 0.7215,2.39999c0.11536,0.79337 0.05716,1.79868 0.05716,2.74283c0,0.89999 0.12405,1.90277 -0.17065,2.54251c-0.39981,0.86792 -1.1452,1.37808 -1.68802,1.80133c-0.98239,0.76602 -1.39572,1.00247 -2.24933,1.56c-0.45364,0.2963 -1.40775,0.91159 -1.896,1.23999c-1.0007,0.67307 -1.99466,1.39423 -2.487,1.76151c-0.48898,0.36475 -1.43637,1.09131 -1.89468,1.44199c-1.27921,0.97882 -1.66949,1.27017 -2.409,1.8045c-0.70328,0.50818 -1.41641,1.0029 -2.53867,1.83868c-0.41129,0.3063 -1.26749,0.9675 -1.70667,1.30667c-0.43915,0.33914 -1.2825,1.01807 -2.45999,1.85999c-0.6348,0.45389 -1.14044,0.8718 -2.01068,1.21066c-0.95523,0.37198 -1.81049,0.2894 -2.62799,0.28934c-1.08249,-0.00009 -1.38205,-0.4292 -0.76151,-1.10001c0.54953,-0.59402 0.90018,-1.23334 0.90018,-0.54532c0,0.8205 -0.00925,1.81207 0.00449,2.90698c0.00977,0.78012 0.04514,1.60059 0.08084,2.02499c0.11246,1.3367 0.263,2.26309 0.43552,3.1925c0.08545,0.46033 0.26276,1.35596 0.57916,2.57785c0.18942,0.73148 0.39456,1.40308 0.69998,2.34033c0.29462,0.90402 0.60941,1.7753 0.84283,2.58832c0.29761,1.03662 0.23077,1.82758 0.41434,2.77151c0.1803,0.92706 0.61923,1.60898 1.14151,2.35748c0.4903,0.70267 0.76688,1.54202 1.08667,2.36935c0.27527,0.71207 0.89606,1.64996 1.47183,2.26865c0.54581,0.58649 1.26724,1.24738 1.75882,1.84866c0.6311,0.77194 1.04279,1.58264 1.58401,2.3775c0.37915,0.55682 1.02112,1.55551 1.28934,2.27185c0.2756,0.73608 0.54532,1.60092 0.60617,2.4975c0.06155,0.90692 0.00449,1.65634 0.00449,2.65182c0,0.80002 0,1.80035 0,2.64166c0,0.729 0.01169,1.92953 -0.02133,2.63034c-0.03534,0.75021 -0.08688,1.5466 -0.42166,2.72784c-0.22922,0.80881 -0.58032,1.58841 -0.966,2.34299c-0.56451,1.10446 -0.9855,1.77527 -1.39099,2.42117c-0.39471,0.62872 -0.80331,1.23248 -1.39984,2.13599c-0.5928,0.89786 -0.98352,1.48911 -1.31485,2.10001c-0.63931,1.17883 -0.83221,1.80219 -1.23798,2.64285c-0.38788,0.80365 -0.89902,1.50079 -1.422,2.14648c-0.65744,0.81168 -1.07358,1.41464 -1.578,2.26782c-0.56967,0.96356 -0.90134,1.49469 -1.422,2.3175c-0.34219,0.5408 -0.98151,1.51947 -1.28369,2.2045c-0.43893,0.99503 -0.41769,1.83209 -0.62567,2.53552c-0.30017,1.01535 -1.06284,1.54556 -1.616,2.24249c-0.54913,0.69183 -0.90213,1.45242 -1.39999,2.44284c-0.30127,0.59933 -0.70001,1.39999 -1.10001,2.19998c-0.40002,0.80002 -0.78033,1.61041 -1.21066,2.39999c-0.33157,0.6084 -1.08023,1.59567 -1.58932,2.22086c-0.35214,0.43243 -1.00433,1.38858 -1.36401,2.2045c-0.35754,0.811 -0.63409,1.6088 -1.02533,2.52798c-0.32376,0.76068 -0.48456,1.65524 -0.89465,2.44669c-0.44647,0.86163 -0.71533,1.59998 -0.716,2.5c-0.00067,0.89999 0,1.79999 0,2.69998c0,0.89999 -0.24731,1.98016 0.35718,2.54733c0.66187,0.621 1.4339,0.79391 2.27881,1.078c0.84518,0.28418 1.67545,0.5806 2.22134,0.69067c1.38223,0.27872 1.80481,0.237 2.66351,0.26315c0.87808,0.02673 2.14581,0.02084 2.90982,0.02084c1.04849,0 1.7175,0 2.73599,0c0.71735,0 1.83334,0 2.58069,0c1.086,0 1.76999,0 2.7735,0c0.689,0 1.8125,0 2.6485,0c0.892,0 1.3515,0 2.2825,0c1.3815,0 2.26282,0 3.11215,0c0.82535,0 1.63467,0 2.836,0c0.80002,0 1.60001,0 2.39999,0c1.20001,0 1.99869,0 2.78934,0c0.77469,0 1.52533,0 2.58936,0c0.99597,0 1.64667,0 2.30533,0c1.40265,0 2.16266,0 2.96265,0c0.84,0 1.72,0.00397 2.63467,-0.00134c0.9227,-0.00534 1.82343,-0.00705 2.664,-0.08398c1.09421,-0.10016 1.95111,-0.36191 2.69833,-0.56201c0.97028,-0.25986 1.77054,-0.33075 2.54651,-0.34818c1.03891,-0.02335 2.00983,-0.00449 2.80981,-0.00449c0.90002,0 1.8252,0.01196 2.60001,-0.42532c0.72632,-0.40991 1.63275,-0.70078 2.23599,-1.22134c0.72818,-0.62839 1.1781,-1.20361 1.76852,-1.70065c0.96155,-0.80945 1.59189,-1.1387 2.1955,-1.45135c0.98969,-0.51263 1.76144,-0.87363 2.51465,-1.39999c0.7023,-0.49081 1.46515,-0.98553 2.052,-1.63467c0.55887,-0.61819 0.82291,-1.229 0.83334,-2.33331c0.00742,-0.78598 0,-1.608 0,-2.66669c0,-0.71399 0,-1.61932 0,-2.58817c0,-0.81448 0,-1.68298 0,-2.57849c0,-0.89551 0,-1.76401 0,-2.83334c0,-0.71848 0.00189,-1.67648 0,-2.5c-0.00226,-0.97198 0.00595,-1.66858 -0.05716,-2.36133c-0.11548,-1.26788 -0.37027,-2.0473 -0.64734,-2.75351c-0.38367,-0.97787 -0.68729,-1.78021 -0.99551,-2.59915c-0.38965,-1.03528 -0.70853,-1.7236 -1,-2.40533c-0.41196,-0.96356 -0.72003,-1.76382 -0.94281,-2.59467c-0.27399,-1.02188 -0.29684,-1.73221 -0.44119,-2.63666c-0.16113,-1.00964 -0.36658,-1.55692 -0.56332,-2.47766c-0.21359,-0.99951 -0.28769,-1.72272 -0.33182,-2.85919c-0.0304,-0.78323 -0.02084,-1.97916 -0.02084,-2.78183c0,-0.81866 0,-1.23898 0,-2.11166c0,-1.41901 0,-1.92865 0,-3c0,-0.55765 0,-1.707 0,-2.29468c0,-0.59366 0,-2.39114 0,-2.99231c0,-0.60318 0,-1.81952 0,-2.43466c0,-0.62119 0.00323,-1.24936 -0.00034,-3.18533c-0.00122,-0.66269 -0.0047,-1.33145 -0.021,-2.00403c-0.01636,-0.67477 -0.08002,-2.02319 -0.14932,-2.69064c-0.13708,-1.32025 -0.25067,-1.96695 -0.53918,-3.21783c-0.14102,-0.61133 -0.30695,-1.20483 -0.47549,-1.78351c-0.32419,-1.11298 -0.65344,-2.14774 -0.92932,-3.11066c-0.25439,-0.88791 -0.47095,-1.7157 -0.68402,-2.48401c-0.29614,-1.06781 -0.48404,-1.73218 -0.80133,-2.64133c-0.37949,-1.0874 -0.69199,-1.7933 -1,-2.436c-0.48724,-1.01663 -0.89505,-1.56113 -1.23334,-2.64401c-0.23016,-0.73679 -0.12949,-1.59747 -0.33331,-2.5c-0.20996,-0.92969 -0.53775,-1.64801 -0.71185,-2.52383c-0.1752,-0.88141 -0.12149,-1.79999 -0.12149,-2.54733c0,-0.99548 0,-1.7955 0,-2.79532c0,-0.77933 0,-1.77899 0,-2.61002c0,-0.9595 0,-1.711 0,-2.50748c0,-1.23001 0,-1.90802 0,-2.84933c0,-0.78601 0,-1.608 0,-2.66669c0,-0.91998 -0.00006,-1.67999 0,-2.6875c0.00009,-1.02182 -0.0462,-1.73557 0.05716,-2.47382c0.14688,-1.04901 0.78729,-1.77124 0.93216,-2.64133c0.16699,-1.00299 -0.00513,-1.73865 0.36334,-2.61136c0.4035,-0.95569 0.6369,-1.75247 0.64734,-2.586c0.01077,-0.86209 0,-1.76666 0,-2.66666c0,-0.91068 0,-1.82166 0,-2.54166c0,-1.125 0,-1.9155 0,-2.76901c0,-0.59067 0,-1.78799 0,-2.66849c0,-0.83551 -0.05112,-1.83917 0.03601,-2.71017c0.08173,-0.81705 0.4444,-1.60492 0.67999,-2.496c0.26062,-0.98569 0.27023,-1.83536 0.27951,-2.41916c0.01898,-1.19534 0.00449,-2.09552 0.00449,-2.6955c0,-1.20001 -0.00879,-2.10052 0.02084,-2.70001c0.04456,-0.90121 0.26001,-2.10077 0.40448,-2.70001c0.21729,-0.90115 0.42694,-1.79779 0.522,-2.7045c0.09744,-0.92966 0.10776,-1.58505 0.27435,-2.617c0.11935,-0.73929 0.29932,-1.50543 0.53998,-2.28299c0.3732,-1.20581 0.71899,-1.99692 1.06369,-2.7955c0.34595,-0.80145 0.70673,-1.59381 1.008,-2.39999c0.2973,-0.79553 0.54092,-1.60791 0.75598,-2.436c0.21988,-0.84668 0.51114,-2.18506 0.61069,-2.64667c0.20093,-0.93179 0.39709,-1.85663 0.5,-2.3075c0.29178,-1.27838 0.47845,-2.04773 0.82083,-3.08899c0.22162,-0.67401 0.64188,-1.68924 0.96317,-2.40619c0.33722,-0.7525 0.70624,-1.51877 1.03198,-2.31598c0.48596,-1.18936 0.60974,-1.59531 0.84802,-2.39868c0.23633,-0.79681 0.43381,-1.60022 0.73599,-2.79965c0.1994,-0.7915 0.38678,-1.56244 0.60001,-2.28601c0.37677,-1.27856 0.70355,-2.05151 1,-2.76251c0.40488,-0.97113 0.69669,-1.77838 0.89999,-2.32648c0.39362,-1.06107 0.69031,-1.7728 1.10001,-2.62085c0.39081,-0.80899 0.80301,-1.603 1.29999,-2.60449c0.2973,-0.59912 0.70877,-1.38428 0.91599,-2.39999c0.16141,-0.79117 0.29422,-1.80392 0.58401,-2.57916c0.32108,-0.85889 0.49384,-1.65628 0.784,-2.50751c0.26254,-0.77017 0.57104,-1.6772 0.66333,-2.47501c0.10208,-0.88254 0.11124,-1.5287 0.27417,-2.56c0.1174,-0.74312 0.29837,-1.52022 0.483,-2.34c0.29398,-1.30536 0.49704,-2.22176 0.591,-2.69101c0.18945,-0.94618 0.35492,-1.89355 0.41916,-2.36333c0.18588,-1.35933 0.23749,-2.21747 0.2645,-3.0215c0.02496,-0.74342 -0.00674,-2.02039 0.03152,-2.7905c0.0433,-0.87146 0.36447,-1.85902 0.63666,-2.61484c0.32242,-0.89525 0.35266,-1.82384 0.35266,-2.67799c0,-0.97917 -0.0018,-1.77917 0,-2.57918c0.00226,-1.0045 0.01883,-1.86447 0.22134,-2.82132c0.17175,-0.81149 0.47598,-1.61606 0.65717,-2.65718c0.11844,-0.68059 0.12082,-1.52016 0.12149,-2.5215c0.00055,-0.79999 0,-1.80133 0,-2.63599c0,-0.93068 0,-1.72118 0,-2.57468c0,-1.18933 0,-1.79199 0,-2.731c0,-0.67267 0,-1.79166 0,-2.625c0,-0.87332 0,-1.74666 0,-2.58l0,-1.08899l0,-0.867l0,-0.741" id="svg_3" stroke-width="2" stroke="#000" fill="none"/>
  <path t="9535,9739,9740,9756,9756,9756,9756,9774,9774,9774,9774,9774,9791,9791,9791,9791,9791,9809,9809,9809,9826,9826,9826,9843,9843,9861,9861,9861,9878,9878,9878,9895,9895,9912,9912,9912,9929,9929,9946,9946,9963,9980,9980,9997,9997,9997,10015,10015,10015,10032,10032,10032,10049,10049,10066,10066,10066,10083,10084,10084,10101,10102,10118,10119,10135,10135,10135,10152,10152,10173,10173,10186,10186,10186,10205,10205,10205,10205,10222,10222,10222,10238,10238,10238,10238,10238,10255,10255,10255,10255,10255,10255,10272,10272,10272,10272,10272,10272,10272,10273,10292,10292,10292,10292,10292,10292,10308,10308,10308,10308,10308,10308,10324,10324,10325,10325" d="m470,203c0,-2.01433 0,-2.82133 0,-4c0,-0.60266 0,-1.54167 0,-2.21434c0,-1.11899 0,-1.95499 0,-2.847c0,-0.924 0,-1.39049 0,-2.77199c0,-0.88 0,-1.72 0,-2.52c0,-0.75999 0.01514,-1.82529 -0.01068,-2.8c-0.0159,-0.60031 -0.12497,-1.68918 -0.41464,-2.61067c-0.20074,-0.63857 -0.52182,-1.63506 -0.564,-2.47198c-0.04684,-0.92957 -0.01068,-1.71667 -0.01068,-2.53868c0,-1.05865 0,-1.98933 0,-2.82399c0,-1.00584 0,-1.85851 0,-2.82251c0,-0.79349 0,-1.569 0,-2.6095c0,-0.85199 0,-1.79466 0,-2.48534c0,-1.10933 0,-1.97066 0,-2.73067c0,-0.92 0,-1.70599 0,-2.528c0,-1.05865 0,-2 0,-2.67799c0,-1.23134 0,-2.04733 0,-2.86333c0,-0.99867 0,-1.66318 0,-2.68401c0,-0.81067 0,-1.68533 0,-2.68401c0,-0.81599 0,-1.63199 0,-2.63066c0,-0.87466 0,-1.88533 0,-2.68533c0,-1 0,-1.8 0,-2.60001c0,-1 0,-1.79999 0,-2.80133c0,-0.83466 0,-1.76534 0,-2.55583c0,-0.8535 0,-2.04283 0,-2.64149c0,-0.88051 0,-1.716 0,-2.72c0,-0.72301 0,-1.536 0,-2.54584c0,-0.80699 0,-1.698 0,-2.64899c0,-0.4905 0.00153,-1.98701 -0.00134,-2.4905c-0.00589,-1.02802 -0.03168,-2.10413 -0.05582,-2.6675c-0.02505,-0.58464 -0.09753,-1.82961 -0.22949,-3.17917c-0.06879,-0.70346 -0.15472,-1.41538 -0.255,-2.12849c-0.09976,-0.70959 -0.20367,-1.40889 -0.345,-2.0835c-0.39001,-1.86163 -0.58118,-2.40488 -0.94934,-3.41467c-0.17651,-0.48412 -0.57138,-1.4178 -0.76532,-1.888c-0.60773,-1.47347 -0.79947,-2.00104 -1.19867,-3.07467c-0.20041,-0.53901 -0.59155,-1.6009 -0.80002,-2.10667c-0.57645,-1.39847 -0.79733,-1.796 -1.17865,-2.53467l-0.50702,-0.948" id="svg_4" stroke-width="2" stroke="#000" fill="none"/>
  <path t="11570,11764,11764,11780,11780,11780,11797,11797,11797,11797,11814,11814,11814,11814,11831,11831,11831,11831,11848,11848,11848,11866,11866,11866,11882,11882,11882,11899,11899,11899,11916,11916,11916,11933,11933,11950,11950,11968,11968,11986,11986,11986,12002,12002,12002,12019,12019,12019,12036,12036,12036,12053,12053,12053,12053,12071,12071,12071,12089,12089,12105,12105,12105,12124,12124,12140" d="m349,253c-1.836,-1.39999 -2.39243,-1.72493 -3.40268,-2.19867c-0.63181,-0.29628 -1.36166,-0.55779 -2.56665,-0.71866c-0.68924,-0.09203 -1.42484,-0.09554 -2.14801,-0.252c-1.42096,-0.30743 -2.05554,-0.68723 -2.672,-1.052c-0.61865,-0.36606 -1.81189,-1.1749 -2.39999,-1.57867c-0.57721,-0.39632 -1.14966,-0.77051 -2.12534,-1.59999c-0.6821,-0.5799 -1.27917,-1.20488 -1.8855,-1.79984c-0.60574,-0.59441 -1.22302,-1.19777 -2.22101,-1.77884c-0.5112,-0.29764 -1.39398,-0.53293 -2.24548,-1.188c-0.75174,-0.57832 -1.05234,-1.25967 -1.65466,-2.03333c-0.48138,-0.61832 -1.07401,-1.16489 -1.79333,-2.19867c-0.39151,-0.56265 -0.85001,-1.46365 -1.38535,-2.08051c-0.65982,-0.76027 -1.25717,-1.27802 -1.98532,-2.00616c-0.53552,-0.53551 -1.11859,-1.1134 -1.71451,-1.71466c-0.5921,-0.59744 -1.18817,-1.16664 -1.91617,-2.2c-0.41028,-0.58237 -0.74069,-1.22125 -1.36932,-2.00134c-0.51382,-0.63762 -1.1369,-1.26749 -1.71451,-2.02016c-0.61212,-0.79764 -0.98502,-1.37729 -1.31485,-1.97984c-0.64276,-1.17426 -0.80441,-1.80577 -1.23798,-2.58434c-0.50626,-0.90916 -1.31284,-1.42107 -2.08069,-2.181c-0.45169,-0.44704 -0.86215,-1.18066 -1.46664,-2.07616l-0.5,-0.55583l-0.70001,-0.68051" id="svg_5" stroke-width="2" stroke="#000" fill="none"/>
  <path t="13263,13409,13409,13409,13429,13429,13429,13429,13429,13446,13446,13446,13446,13446,13464,13464,13464,13464,13484,13484,13484,13484,13502,13502,13502,13502,13515,13515,13515,13515,13515,13532,13532,13532,13532,13548,13548,13548,13548,13565,13565,13565,13581,13581,13581,13581,13598,13598,13615,13616,13616,13635,13635,13635,13649,13649,13649,13667,13667,13667,13685,13685,13685,13685,13701,13701,13701,13701,13718,13718,13718,13718,13735,13735,13735,13735,13735,13752,13753,13753,13753,13770,13770,13770,13770,13770,13770,13787,13787,13787,13787,13787,13805,13805,13805,13805,13805,13822,13822,13822,13822,13822,13822,13839,13839,13839,13839,13839,13839,13856,13856,13856,13856,13856,13856,13873,13873,13873,13873,13873,13873,13890,13890,13890,13890,13891,13909,13909,13909,13909,13909,13925,13925,13925,13950,13966,13980,14002,14002,14015,14015,14037,14037,14048,14048,14048,14066,14066,14066,14066,14082,14082,14082,14082,14101,14101,14101,14116,14116,14117,14117,14133,14133,14151,14151,14151,14168,14169,14169,14169,14185,14185,14185,14185,14202,14202,14202,14219,14219,14236,14236,14236,14254,14254,14254,14254,14271,14271,14288,14288,14288,14288,14306,14306,14306,14323,14323,14324,14340,14340,14340,14358,14358,14358,14375,14375,14375,14392,14393,14393,14409,14409,14409,14426,14427,14427,14427,14427,14444,14444,14444,14461,14461,14462,14479,14479,14495,14495,14496,14512,14531,14531,14548,14548,14548,14564,14564,14564,14582,14582,14582,14602,14602,14602,14602,14602,14616,14616,14616,14616,14632,14632,14632,14632,14632,14649,14649,14649,14650,14650,14650,14666,14667,14667,14667,14667,14667,14683,14683,14683,14683,14683,14703,14703,14703,14703,14703,14718,14718,14718,14718,14734,14735,14735,14752,14752,14768,14768,14768,14768,14786,14786,14786,14786,14804,14804,14804,14804,14804,14820,14821,14821,14821,14821,14821,14837,14837,14837,14837,14854,14854,14854,14854,14854,14871,14871,14871,14888,14888,14888,14888,14889,14906,14906,14906,14907,14922,14922,14922,14923,14941,14941,14941,14942,14957,14957,14958,14958,14974,14974,14974,14991,14991,14991,14992,15009,15009,15026,15026,15044,15045,15045,15062,15080,15080,15131,15505,15505,15505,15521,15538,15538,15538,15556,15556,15557,15573,15573,15573,15590,15590,15590,15608,15625,15642,15642,15642,15660,15660,15660,15660,15661,15677,15678,15678,15678,15678,15678,15678,15679,15695,15695,15695,15696,15696,15696,15696,15696,15696,15712,15712,15712,15712,15713,15713,15713,15713,15729,15729,15730,15730,15730" d="m313,59c-1.66617,-1.66167 -2.27579,-2.25441 -2.772,-2.68667c-0.85916,-0.74843 -1.53824,-1.26998 -2.24884,-1.83416c-0.36472,-0.28957 -1.11401,-0.86021 -2.1575,-1.77934c-0.67154,-0.5915 -0.99179,-0.8948 -1.57498,-1.53583c-0.57703,-0.63425 -1.33624,-1.67822 -1.78952,-2.41217c-0.44733,-0.72431 -0.82166,-1.46189 -1.45715,-2.4185c-0.38303,-0.57658 -1.01392,-1.31905 -1.45715,-1.7815c-0.69873,-0.72899 -1.50043,-1.50425 -2.04285,-2.07267c-0.5524,-0.57888 -1.34082,-1.47323 -1.81601,-2.07917c-0.46603,-0.59427 -0.89926,-1.20784 -1.36798,-1.8c-0.72202,-0.91217 -1.26361,-1.50029 -1.81601,-2.07917c-0.54239,-0.56841 -1.33334,-1.35416 -2.04285,-2.06367c-0.43631,-0.43633 -1.06192,-1.04979 -1.85715,-1.8585c-0.60468,-0.61494 -1.02115,-1.03868 -1.80002,-2.01983c-0.41135,-0.51818 -0.97507,-1.33887 -1.39999,-1.8095c-0.75757,-0.83902 -1.59451,-1.35859 -2.39999,-1.76933c-0.80533,-0.41066 -1.44794,-0.72301 -2.42133,-1.09983c-0.79691,-0.30851 -1.6153,-0.5961 -2.65735,-0.77867c-0.6907,-0.12101 -1.60532,-0.12083 -2.60666,-0.1215c-0.83551,-0.00056 -1.41916,0 -2.61499,0c-0.92102,0 -1.57169,0 -2.27036,0c-1.172,0 -2.03467,0 -2.92932,0c-0.89465,0 -2.16666,0 -2.93066,0c-0.70801,0 -1.384,-0.00125 -2.73599,0c-0.71869,0.00067 -1.46979,-0.00081 -2.24402,0.036c-0.79129,0.03762 -1.9917,0.17314 -2.79382,0.32117c-0.81876,0.15109 -1.65181,0.35113 -2.96217,0.64283c-0.45438,0.10115 -1.38467,0.30244 -2.33333,0.47917c-0.47403,0.08831 -1.41327,0.26009 -2.77867,0.39967c-0.86722,0.08865 -1.2975,0.09119 -2.14667,0.1825c-0.86046,0.09252 -2.19823,0.37416 -2.65999,0.508c-0.95518,0.27687 -1.92421,0.61939 -2.41917,0.7825c-1.49217,0.49174 -1.99376,0.63339 -2.9955,0.8955c-0.49916,0.13061 -1.5013,0.37302 -2,0.50533c-1.50404,0.39903 -2.00676,0.54936 -2.9955,0.909c-0.991,0.36046 -1.47934,0.56231 -2.41917,1.025c-0.92992,0.45781 -1.80547,0.99362 -2.23267,1.275c-0.86119,0.56725 -1.28311,0.87819 -2.13666,1.525c-0.88806,0.67296 -1.79874,1.39593 -2.26418,1.7615c-0.46655,0.36643 -1.38901,1.09241 -1.842,1.442c-1.27235,0.9819 -1.66394,1.27122 -2.39999,1.8c-0.68619,0.49295 -1.36241,0.9518 -2.37651,1.6765c-0.7178,0.51296 -1.08473,0.77605 -1.79166,1.33333c-0.68227,0.53784 -1.59204,1.29177 -2.16566,2.03833c-0.44966,0.58523 -0.37323,1.76076 -0.93317,2.45716c-0.44394,0.55214 -0.90996,1.06595 -0.93834,2.00367c-0.0312,1.03104 -0.0045,1.749 -0.0045,2.6625c0,0.8 0,1.75983 0,2.57433c0,0.8685 0,2.06417 0,2.6685c0,0.9315 0,1.58083 0,2.9795c0,0.74133 0,1.49067 0,2.232c0,1.0625 0,2.048 0,2.67333c0,1.21067 0,2.10617 0,2.97467c0,0.55067 0,1.78333 0,2.46133c0,1.19617 0,2.01067 0,2.58533c0,1.18933 -0.0079,2.09428 0.02083,2.71017c0.04506,0.96561 0.18768,2.00287 0.33633,2.72733c0.15056,0.7338 0.4169,1.79174 0.74284,2.70883c0.27705,0.77953 0.59818,1.4349 1.09999,2.443c0.39857,0.80071 0.79065,1.6048 1.21066,2.41067c0.33902,0.65047 0.90849,1.61203 1.242,2.142c0.51863,0.82413 0.87186,1.35827 1.46333,2.362c0.38963,0.66121 1.03296,1.70026 1.54117,2.28533c0.53531,0.61627 0.94383,1.00034 1.74283,1.8c0.59975,0.60025 1.20001,1.2 2,2c0.60001,0.60001 1,1 1.8,1.8c0.60001,0.60001 1.20349,1.19653 1.99983,2c0.59212,0.59743 1.18214,1.1704 1.77884,2.00017c0.42485,0.59079 0.76491,1.26243 1.3425,2.22117c0.32196,0.5344 0.90535,1.3139 1.3455,2.412c0.28156,0.70243 0.3295,1.46648 0.5,2.66666c0.10707,0.75374 0.26567,1.57674 0.35416,2c0.17638,0.84356 0.45134,2.00941 0.77917,2.933c0.27675,0.77966 0.70149,1.73309 1,2.51517c0.30151,0.78993 0.67012,1.73721 1.09999,2.3905c0.56207,0.85419 1.05186,1.46053 1.31467,2.17733c0.35074,0.95667 0.28534,1.97066 0.28534,2.73067c0,0.92 0,1.706 0,2.528c0,1.05867 0.00006,2.00001 0,2.678c-0.00009,0.96899 0.01575,1.79573 -0.05716,2.709c-0.08044,1.00775 -0.21353,1.72725 -0.38951,2.47433c-0.18343,0.77875 -0.40948,1.57686 -0.87483,2.76382c-0.3152,0.804 -0.68629,1.58603 -1.08299,2.343c-0.57674,1.10054 -0.99289,1.77695 -1.40617,2.4425c-0.42131,0.6785 -0.87758,1.38217 -1.356,2.14799c-0.52185,0.83536 -0.7917,1.28027 -1.35416,2.20834c-0.29047,0.47928 -0.88058,1.46095 -1.47917,2.45833c-0.29987,0.49965 -0.89499,1.4913 -1.18933,1.97867c-0.5737,0.94992 -0.84674,1.41119 -1.644,2.688c-0.47862,0.76653 -0.70932,1.12659 -1.16667,1.8125c-0.4481,0.67206 -1.16455,1.68903 -1.68401,2.40483c-0.53914,0.74292 -1.09163,1.48996 -1.36333,1.86333c-0.78879,1.08397 -1.27939,1.75633 -1.69533,2.40601c-0.55858,0.87247 -0.97722,1.66606 -1.196,2.61067c-0.19112,0.82515 -0.33646,1.64139 -0.67201,2.47198c-0.37788,0.93538 -0.68651,1.72404 -0.91016,2.28484c-0.35301,0.88518 -0.81416,1.77223 -1.29384,2.7005c-0.33369,0.64575 -0.68979,1.33125 -0.94234,2.52167c-0.18279,0.8616 -0.18729,1.32828 -0.22166,2.27834c-0.03549,0.98088 -0.02133,1.97867 -0.02133,2.97734c0,0.49683 0,1.4805 0,2.44417c0,0.47183 0,1.83566 0,2.7c0,0.83633 0,1.65266 0,2.85716c0,0.79866 0,1.58934 0,2.364c0,0.75067 -0.01921,2.15298 0.02133,2.81067c0.06044,0.98055 0.29152,1.99907 0.548,2.70934c0.27061,0.7494 0.62024,1.48878 0.948,2.23199c0.46739,1.05984 0.71985,1.73096 1.108,2.67334c0.25211,0.61208 0.68463,1.51746 1.21066,2.42133c0.36668,0.63005 0.77626,1.26843 1.364,2.3105c0.40764,0.72276 0.78638,1.46585 1.2,2.16901c0.58109,0.98787 0.98961,1.54648 1.57918,2.26816c0.52747,0.64565 1.15495,1.43378 1.52083,2.08334c0.40436,0.7179 0.81813,1.60245 1.15266,2.25916c0.51707,1.01505 0.82173,1.672 1.46201,2.6445c0.44646,0.67812 1.00203,1.36688 1.38533,2.0755c0.52309,0.96704 0.66203,1.66972 1.3,2.40851c0.59027,0.68355 1.40031,1.1398 1.8,1.756c0.59914,0.92369 1.26112,1.15346 1.37466,0.50267c0.14514,-0.83188 0.70741,-1.6844 1.56816,-1.68767c0.71881,-0.00273 1.55386,-0.0025 2.53583,0.4425c0.73973,0.33522 1.33321,0.9771 2.34268,1.53549c0.77629,0.42941 1.33871,0.63762 2.41199,0.855c0.91074,0.18445 1.68001,0.166 2.75601,0.16667c0.82132,0.0005 1.74751,0.08655 2.47316,-0.08333c0.73509,-0.17209 1.59309,-0.78755 2.25633,-1.34534c0.75826,-0.6377 1.13565,-1.01714 1.96916,-1.77667c0.87569,-0.79796 1.33086,-1.1983 1.8,-1.59599c0.96327,-0.81654 1.47289,-1.22153 1.99467,-1.63467c0.53452,-0.42323 1.08563,-0.8542 2.25067,-1.73067c0.60773,-0.45721 1.23587,-0.91933 1.88098,-1.386c0.65622,-0.4747 1.32556,-0.94986 2.00702,-1.422c0.68588,-0.47522 1.37482,-0.95129 2.77866,-1.85866c0.69617,-0.44997 1.39407,-0.88095 2.082,-1.30501c0.67474,-0.41592 1.33667,-0.81676 1.974,-1.215c1.20651,-0.75389 2.27734,-1.48 2.75766,-1.82466l0.84866,-0.65134l0.37234,-0.30267l0.65067,-0.54933" id="svg_6" stroke-width="2" stroke="#000" fill="none"/>
  <path t="16791,16967,16967,16983,16984,16984,17001,17001,17001,17001,17019,17019,17019,17019,17036,17036,17036,17036,17054,17054,17054,17069,17070,17091,17091,17106,17106,17123,17138,17138,17155,17155,17173,17173,17190,17213,17213,17248,17248,17265,17283,17283,17300,17300,17317,17317,17334,17334,17352,17352,17370,17371,17391,17391,17404,17404,17420,17420,17420,17437,17437,17455,17472,17472,17472,17492,17492,17506,17541,17558,17558,17558,17577,17577,17577,17592,17592,17592,17610,17610,17610,17610,17610,17626,17626,17626,17626,17626,17643,17643,17643,17643,17643,17643,17660,17660,17660,17660,17660,17660,17677,17678,17678,17678,17678,17694,17694,17694,17695,17695,17712,17712,17713,17729,17729,17729,17729,17729,17729,17746,17746,17746,17746,17762,17762,17762,17779,17779,17779,17796,17796,17813,17813,17813,17831,17831,17848,17848,17865,17865,17893,17893,17943,17966,17984,18002,18020,18038,18038,18039,18061,18061,18062,18083,18083,18083,18092,18092,18092,18110,18110,18110,18110,18111,18125,18125,18125,18125,18125,18143,18143,18143,18143,18143,18159,18159,18159,18159,18159,18159,18177,18178,18178,18178,18178,18178,18178,18192,18192,18192,18192,18210,18211,18211,18211,18227,18227,18227,18244,18244,18244,18244,18260,18260,18277,18277,18294,18294,18311,18329,18350,18350,18363,18363,18363,18380,18381,18381,18381,18397,18397,18397,18413,18413,18413,18413,18431,18431,18432,18432,18432,18448,18448,18448,18448,18448,18448,18465,18466,18466,18466,18466,18466,18483,18483,18483,18483,18484,18484,18500,18500,18500,18500,18518,18518,18571,18945,18945,18945,18961,18961,18961,18962,18962,18962,18962,18962,18979,18979,18979,18979,18979,18980,18980,18980,18996,18996,18997,18997,18997,18997,19013,19014,19014,19014,19014,19031,19031,19031,19031,19048,19048,19048,19065,19065,19065,19087,19088,19099,19099,19099,19117,19117,19117,19117,19135,19135,19135,19135,19151,19152,19152,19169,19170,19185,19186,19202,19203,19221,19238,19238,19254,19271,19290,19290" d="m404,39c0.02133,-1.84667 0.10263,-2.71681 0.57199,-3.684c0.27249,-0.56152 0.85873,-1.39642 1.59467,-2.14933c0.49457,-0.50597 1.0751,-0.92191 1.88068,-1.61934c0.80283,-0.69504 1.28284,-1.22036 1.71667,-1.78333c0.65546,-0.85057 1.23224,-1.76653 1.63599,-2.36133c0.39633,-0.58385 0.95029,-1.43558 1.60001,-2.06933c0.73715,-0.71904 1.34076,-1.02746 2.24734,-1.62883c0.63522,-0.42136 1.58807,-0.68532 2.35397,-0.70317c0.9939,-0.02316 1.74152,-0.00133 2.77335,-0.00133c0.94684,0 1.64618,0 2.82516,0c0.77933,0 1.63351,0 2.49567,0c0.94049,0 1.79266,-0.09399 2.59467,0c0.95078,0.11142 1.48157,0.85186 2.46701,0.9955c0.89059,0.12981 1.64734,0.0045 2.64282,0.0045c0.80002,0 1.79984,0 2.57916,0c0.99951,0 1.7735,0 2.67801,0c0.94415,0 1.94284,0 2.74283,0c1,0 1.80002,0 2.80002,0c0.79999,0 1.79999,0 2.59998,0c0.80002,0 1.7955,0 2.54285,0c0.909,0 1.99051,0 2.66251,0c0.74399,0 1.85165,0 2.68567,0c0.95181,0 1.30188,0.56253 1.30914,1.54283c0.00531,0.71856 -0.01456,1.52304 0.22134,2.53583c0.16522,0.70932 0.59769,1.59842 0.97852,2.608c0.20987,0.55637 0.50937,1.47225 0.79999,2.48c0.2067,0.71677 0.40192,1.46884 0.60001,2.244c0.20193,0.79017 0.49747,1.99035 0.7045,2.79833c0.21356,0.83339 0.44943,1.70626 0.58084,2.16167c0.42566,1.47507 0.59384,1.99934 0.95065,3.08c0.18173,0.55037 0.36304,1.10292 0.76532,2.18133c0.38754,1.03889 0.79327,2.00108 1.00769,2.45367c0.41702,0.88023 0.89233,1.71383 1.16165,2.11167c0.8327,1.23006 1.18881,1.60876 1.88,2.392c0.69025,0.78218 1.06421,1.13583 2.01599,2.244c0.57507,0.66955 1.06201,1.31948 1.51202,1.92c0.41928,0.55952 1.21741,1.56997 1.64264,2.032c0.44391,0.48233 1.51248,1.54754 1.82135,1.8575c0.66367,0.66601 1.35983,1.37563 1.70667,1.7425c0.68765,0.72734 1.61365,1.78812 1.87866,2.128c0.72659,0.93192 1.11893,1.51691 1.60535,2.32c0.42557,0.70262 0.89029,1.58348 1.48782,2.36666c0.47125,0.61765 1.08719,1.14449 1.51083,2.2c0.30893,0.76966 0.4491,1.63757 1.02933,2.38933c0.45187,0.58546 1.3746,1.24289 1.77701,1.96334c0.46609,0.83448 0.33783,1.67291 0.647,2.646c0.1897,0.59704 0.71866,1.67989 1.31467,2.15467c0.69983,0.5575 1.52902,0.9105 2.04733,1.49933c0.57266,0.65057 0.91321,1.4409 1.45282,2.269c0.45526,0.69865 0.77069,1.37386 1.38385,2.361c0.33353,0.53694 0.84088,1.32428 1.49466,2.17467c0.50436,0.65606 0.92429,1.09684 1.50665,1.91467c0.55383,0.77777 0.93375,1.38564 1.51468,2.39466c0.41037,0.71279 0.80264,1.46798 1.20001,2.244c0.20132,0.39314 0.79837,1.59014 1.19998,2.388c0.39841,0.79147 0.79117,1.57011 1.20001,2.316c0.58722,1.07134 1.0112,1.73309 1.37915,2.42699c0.38013,0.71686 0.58807,1.09555 0.99951,2.42284c0.30859,0.99549 0.39774,1.54311 0.52133,2.098c0.25623,1.15021 0.36786,1.74543 0.66666,2.9375c0.30115,1.20152 0.48331,1.79181 0.65869,2.37867c0.34396,1.15094 0.52386,1.70642 0.69064,2.25066c0.46762,1.52589 0.72672,2.45071 0.83734,2.888c0.20825,0.82329 0.49469,2.31441 0.56134,2.99733c0.06326,0.64812 0.08307,1.58083 0.08533,2.78534c0.00113,0.6 0,1.5 0,2.7c0,0.59866 0,1.47916 0,2.31467c0,1 0,1.87466 0,2.88516c0,0.77934 0,1.77867 0,2.59883c0,0.90134 0,1.83734 0,2.68668c0,0.72533 0,1.715 0,2.55634c0,0.72899 0,1.92766 0,2.61966c0,0.724 0,1.45601 0,2.85333c0,0.64934 0,1.58084 0,2.78568c0,0.60866 0,1.57166 0,2.27032c0,1.17233 0,2.04367 0,2.50134c0,0.94933 -0.00067,1.93066 0,2.92799c0.00067,1.00133 0.00684,2.01076 0.02084,2.52083c0.02847,1.03658 0.04163,1.56656 0.2005,3.2005c0.05478,0.56349 0.13046,1.13144 0.27866,2.27867c0.07425,0.57472 0.22812,1.7148 0.33334,2.83333c0.05121,0.54448 0.11423,1.605 0.16666,2.625c0.02545,0.49501 0.05435,1.45831 0.22134,2.81967c0.05322,0.43393 0.19925,1.25497 0.42599,2.34599c0.18222,0.8768 0.34442,1.81331 0.35266,2.75467c0.00497,0.56932 -0.02344,1.31093 -0.11432,2.02518c-0.18256,1.4346 -0.32483,2.00414 -0.45636,2.62016c-0.13959,0.65372 -0.29288,1.33678 -0.65067,2.75732c-0.18335,0.72794 -0.37332,1.45691 -0.77866,2.88535c-0.19614,0.69127 -0.39758,1.36208 -0.60001,2.0145c-0.19763,0.6369 -0.59799,1.86218 -0.79999,2.45267c-0.19803,0.57886 -0.7995,2.24478 -0.99869,2.78084c-0.39001,1.04958 -0.58786,1.56189 -0.94415,2.58083c-0.17551,0.50191 -0.6387,2.00339 -0.77316,2.50183c-0.26431,0.97983 -0.36246,1.46713 -0.63666,2.38834c-0.38406,1.2903 -0.70505,2.05595 -1.08334,2.72101c-0.34973,0.61485 -1.13818,1.59116 -1.76401,2.0835c-0.57767,0.45444 -1.41595,0.95758 -1.99548,1.46249c-0.76932,0.67026 -1.32443,1.39883 -2.06586,1.93668c-0.8248,0.59831 -1.61453,0.81209 -2.15997,1.04666c-1.18747,0.5107 -1.78482,0.83904 -2.37869,1.2c-0.90967,0.55289 -1.79938,1.16495 -2.39865,1.56267c-0.59006,0.3916 -1.43646,0.95683 -2.23468,1.43466c-0.70288,0.42076 -1.56384,0.85887 -2.36649,1.26668c-0.78098,0.39679 -1.66248,0.86467 -2.27933,1.39999c-0.75888,0.65858 -1.15668,1.2719 -1.92084,1.88933c-0.74588,0.60266 -1.48535,0.69467 -2.41467,1.03601l-0.85199,0.40799l-0.80133,0.22l-0.58936,0.37334" id="svg_7" stroke-width="2" stroke="#000" fill="none"/>
  <path t="20361,20587,20587,20604,20604,20604,20621,20621,20639,20639,20655,20655,20673,20690,20707,20707,20724,20743,20759,20760,20777,20778,20794,20811,20811,20830,20830,20830,20845,20846,20846,20863,20863,20880,20897,20914,20914,20934,20951,20951,20967,20983,20983,21005,21005,21017,21017,21035,21052,21069,21109,21244,21261,21279,21279,21297,21314,21314,21331,21351,21351,21368,21368,21368,21384,21384,21404,21404,21418,21419,21435,21453,21453,21469,21487,21487,21506,21506,21521,21539,21539,21539,21556,21556,21574,21574,21591,21591,21609,21627,21627,21644,21644,21681,21832,21880,21897,21914,21931,21931,21948,21948,21966,21982,22014,22014,22032,22032,22049,22066,22084,22108,22108,22119,22136,22136,22152,22174,22174,22206,22252,22270,22288,22288,22305,22320,22320,22338,22355,22373,22390,22390,22407,22407,22428,22445,22468,22487,22506,22530,22562,22594" d="m352,130c2.00983,0 2.78537,0.00601 3.83334,0c0.93073,-0.00534 1.57849,0.00583 2.56665,-0.284c0.81677,-0.23956 1.79556,-0.63657 2.57916,-0.69518c0.99677,-0.07455 1.81952,-0.02083 2.72086,-0.02083c0.82083,0 1.784,0 2.64731,0c0.89551,0 1.85269,0 2.75284,0c0.78519,0 1.72522,-0.00731 2.41583,0c0.98416,0.01042 1.9754,0.27213 2.69467,0.61067c0.79633,0.37482 1.5845,0.82243 2.24649,1.03217c0.94611,0.29974 1.77005,0.24808 2.7735,0.44116c0.97845,0.18828 1.64594,0.65495 2.58401,0.89067c0.84702,0.21284 1.39294,0.99944 1.76001,1.62534c0.45248,0.77151 0.86588,1.65804 1.14133,2.28532c0.392,0.89267 0.40948,1.97156 0.80484,2.61467c0.52628,0.85606 1.0502,1.46667 1.3125,2.33333c0.25415,0.83966 0.16666,1.76668 0.16666,2.66667c0,0.89999 0.37387,2.06308 -0.2215,2.5c-0.70825,0.51976 -1.7785,0 -2.57849,0c-0.95718,0 -1.85269,0 -2.716,0c-0.85867,0 -1.80566,0 -2.52567,0c-1.125,0 -1.90652,0 -2.69702,0c-1.1185,0 -1.87598,0 -2.74664,0c-0.91919,0 -1.91336,0 -2.67868,0c-0.95065,0 -1.83636,0.02385 -2.63599,0c-0.95847,-0.02859 -1.87277,-0.3196 -2.54733,-0.7045c-0.79333,-0.45268 -1.48483,-1.06427 -2.05267,-1.70616c-0.63953,-0.7229 -0.9408,-1.46832 -1.48535,-2.10535c-0.68677,-0.80338 -1.51071,-1.11237 -2.22931,-1.68533c-0.6286,-0.50121 -1.13391,-1.25848 -1.44934,-1.97333c-0.45813,-1.03828 -0.74487,-1.87642 -1.08334,-2.5825c-0.40762,-0.85034 -0.3504,-1.59016 -0.35266,-2.59616c-0.00208,-0.93201 -0.12424,-1.8553 0.00015,-2.74651c0.11191,-0.80179 1.17035,-0.8385 1.99985,-0.92099c0.84186,-0.08372 1.52725,-0.72612 2.39999,-0.94318c0.87848,-0.21848 1.76666,-0.036 2.60001,-0.036c0.97849,0 1.79868,0 2.70001,0c0.89999,0 1.82083,0 2.784,0c0.69064,0 1.82483,-0.17332 2.616,0.2215c0.68921,0.34393 1.30933,1.1693 1.89999,1.7785c0.57321,0.59122 0.98956,1.47899 1,2.35716c0.0112,0.94278 0,1.84418 0,2.52817c0,0.94 0,1.948 0,2.81017c0,0.90451 0.11142,1.87407 -0.35718,2.60451c-0.51318,0.79991 -1.14282,1.19998 -1.84283,1.89999c-0.59998,0.59999 -1.20856,1.18764 -1.71597,1.99867c-0.45886,0.73341 -1.28268,0.80266 -2.03134,1.15399l-0.57352,0.62651l-0.87915,0.02083l-0.89551,0" id="svg_8" stroke-width="2" stroke="#000" fill="none"/>
  <path t="23475,23629,23629,23629,23645,23645,23645,23645,23663,23663,23663,23663,23682,23682,23682,23682,23682,23682,23682,23698,23698,23698,23698,23698,23698,23698,23716,23716,23716,23716,23716,23716,23733,23733,23733,23733,23733,23751,23752,23752,23752,23752,23768,23768,23768,23768,23786,23787,23787,23787,23801,23801,23801,23821,23821,23835,23852,24058,24077,24096,24110,24110,24126,24126,24126,24146,24146,24146,24146,24159,24159,24176,24176,24176,24193,24193,24193,24210,24210,24210,24227,24227,24227,24227,24244,24244,24244,24244,24264,24264,24278,24278,24278,24294,24294,24294,24312" d="m329,242c0.22198,14.056 -0.14792,14.88135 0.58334,15.66666c0.6647,0.71384 1.47131,0.33334 2.45831,0.33334c0.71469,0 1.79169,0 2.81467,0c0.68533,0 1.41068,0 2.64368,0c0.95734,0 1.47601,0 2.58334,0c0.58466,0 1.18732,0 1.806,0c1.93182,0 2.59332,0 3.25882,0c0.6665,0 1.99051,0 2.642,0c0.6405,0 1.8765,0.00262 3.03784,-0.00134c0.55316,-0.00189 1.60968,-0.01425 2.11465,-0.03467c0.96979,-0.03922 2.33972,-0.16348 3.20016,-0.32565c0.8407,-0.15845 1.25397,-0.26123 2.05585,-0.52499c1.21362,-0.3992 2.00513,-0.76233 2.80133,-1.13417c0.80389,-0.37544 1.20093,-0.57869 2.39984,-1.17917c0.79626,-0.3988 1.58347,-0.79219 2.34299,-1.2c1.09662,-0.58879 1.77249,-0.99544 2.41049,-1.38934c0.6019,-0.37161 1.67734,-1.04863 2.38501,-1.45349c0.6127,-0.35054 1.38477,-0.93921 2.15717,-1.40001c0.73959,-0.44122 1.70895,-1.0753 1.26849,-1.92116c-0.3302,-0.63411 -1.48483,-0.436 -2.45065,-0.436c-0.76001,0 -1.67999,0 -2.47049,0c-0.85352,0 -2.04285,0 -2.64151,0c-0.88049,0 -1.716,0 -2.71735,0c-0.90933,0 -1.85083,0.0128 -2.63666,-0.0045c-0.82239,-0.01811 -1.89505,-0.11621 -2.82199,-0.4315c-0.6904,-0.23483 -1.6442,-0.67133 -2.46133,-0.96399c-0.57285,-0.20517 -1.76578,-0.5948 -2.36401,-0.80135c-0.90274,-0.31166 -1.51825,-0.51854 -2.69983,-1.11983c-0.60562,-0.30818 -1.15479,-0.70673 -2.01483,-1.1095c-0.97537,-0.45677 -1.88898,-0.52335 -2.8855,-0.79066c-0.6217,-0.16678 -1.48517,-0.49467 -2.48251,-0.69334l-0.79648,-0.0645l-0.7515,-0.0195l-1.09735,-0.00133" id="svg_9" stroke-width="2" stroke="#000" fill="none"/>
  <path t="25661,25925,25925,25942,25958,25959,25978,25979,25998,26012,26029,26029,26045,26067,26241,26258,26276,26276,26292,26292,26310,26310,26310,26310,26328,26328,26328,26328,26345,26345,26345,26361,26361,26361,26380,26380,26399,26400,26413,26430,26448,26502,26614,26631,26648,26649,26665,26665,26682,26682,26699,26716,26717,26733,26734,26734,26751,26751,26767,26768,26786,26786,26802,26802,26820,26837,26838,26860,26860,27068,27086,27086,27086,27103,27103,27103,27120,27120,27139,27139,27139,27155,27155,27177,27177,27177,27301" d="m453,129c1.82535,-1.38934 2.51334,-1.72394 3.5,-2c0.81921,-0.22921 1.53503,-0.46533 2.47849,-1.09983c0.6366,-0.42815 1.43137,-0.76574 2.3215,-0.90467c0.81897,-0.12782 1.46863,-0.84732 2.40002,-0.991c0.8895,-0.13721 1.75296,-0.02387 1.41199,0.08083c-0.96625,0.29671 -1.51398,0.62432 -2.51334,1.11466c-0.61795,0.3032 -1.76242,0.80775 -2.28534,1c-0.85043,0.31266 -1.4715,0.51203 -2.8345,0.9c-0.72519,0.20642 -1.46121,0.38879 -2.16898,0.6c-1.27316,0.37994 -1.79892,0.60263 -2.75803,1c-0.97189,0.40266 -1.50897,0.57732 -2.2905,0.90001c-1.13229,0.46753 -1.70404,0.91696 -2.46133,1.59866c-0.58813,0.52943 -1.44861,0.8504 -1.85266,1.50583c-0.47501,0.77049 -1.66431,0.94685 -1.90067,1.73151c-0.26361,0.87503 0.94193,1.47887 1.83868,1.56267c0.76846,0.07181 1.71597,0.00133 2.71014,0.00133c0.74734,0 1.77917,0 2.72601,0c0.69934,0 1.6785,0 2.47849,0c0.80002,0 1.80002,0 2.60001,0c1,0 1.80002,0 2.79984,0c0.77933,0 1.77866,0 2.59885,0c0.9585,0 1.85849,0 2.60583,0c0.99283,0 2.33099,0.49062 2.37381,-0.00017c0.0834,-0.9559 -1.60727,-0.48259 -2.465,-0.71584c-0.98154,-0.26692 -1.81824,-0.24532 -2.62933,-0.368c-1.00702,-0.15231 -1.64395,-0.48189 -2.68399,-0.74933c-0.78864,-0.20279 -1.64792,-0.25224 -2.39868,-0.73734c-0.62787,-0.40569 -1.43466,-1.42934 -1.84415,-2.02034l-0.45267,-0.69466l-0.69385,-0.653" id="svg_10" stroke-width="2" stroke="#000" fill="none"/>
  <path t="29386,29524,29524,29524,29541,29541,29541,29541,29557,29557,29557,29557,29574,29574,29574,29575,29575,29575,29592,29592,29592,29592,29592,29592,29592,29615,29615,29615,29615,29615,29615,29627,29627,29627,29627,29627,29644,29644,29644,29644,29644,29644,29663,29663,29663,29663,29663,29679,29679,29679,29679,29679,29696,29696,29696,29696,29696,29696,29714,29714,29714,29714,29714,29714,29731,29731,29731,29731,29731,29731,29748,29748,29748,29748,29748,29748,29748,29766,29766,29766,29766,29766,29766,29766,29782,29783,29783,29783,29783,29783,29783,29801,29801,29801,29801,29801,29801,29801,29801,29817,29817,29817,29817,29817,29817,29817,29817,29834,29834,29834,29834,29834,29834,29834,29834,29851,29851,29851,29851,29851,29851,29851,29851,29869,29869,29869,29869,29869,29869,29869,29885,29885,29885,29885,29885,29885,29903,29903,29903,29903,29903,29903,29903,29903,29920,29921,29921,29921,29921,29937,29937,29937,29937,29937,29937,29954,29954,29954,29954,29954,29976,29976,29976,29976,29976,29976,29994,29995,29995,29995,29995,30010,30010,30010,30010,30010,30010,30010,30026,30026,30026,30026,30027,30027,30043,30043,30043,30043,30043,30043,30043,30062,30062,30062,30062,30062,30075,30076,30076,30076,30094,30094,30094" d="m224,98c-2.01883,0 -2.85733,0 -3.48801,0c-1.03333,0 -2.13733,0 -2.88666,0c-0.74133,0 -1.80434,0 -2.82133,0c-0.70134,0 -1.45866,0 -2.76849,0c-0.4915,0 -1.5435,0 -2.09801,0c-1.151,0 -1.7415,0 -2.9375,0c-1.2,0 -1.8,0 -2.39999,0c-1.20001,0 -1.8,0 -2.40001,0c-1.79967,0 -2.39732,0 -2.991,0c-1.16733,0 -1.737,0 -2.83833,0c-1.03734,0 -2.00133,0 -2.90933,0c-0.44051,0 -1.30949,0 -2.62801,0c-0.91866,0 -1.39049,0 -2.35416,0c-0.98367,0 -1.4805,0 -2.979,0c-0.99567,0 -1.4895,0 -2.46417,0c-0.95067,0 -1.86932,0 -2.75333,0c-0.868,0 -1.744,0 -2.65201,0c-0.96399,0 -2,0 -2.5405,0c-1.11099,0 -1.67549,0 -2.242,0c-1.68149,0 -2.22665,0 -3.291,0c-0.52116,0 -1.54649,0 -2.55583,0c-1.00133,0 -2.004,0 -2.51033,0c-1.03267,0 -1.563,0 -2.66167,0c-1.16266,0 -1.77202,-0.00369 -3.03467,0.0045c-0.64534,0.00419 -1.2948,0.01144 -1.944,0.0315c-1.283,0.03966 -2.5181,0.12294 -3.108,0.18549c-1.13901,0.12078 -1.69292,0.20883 -2.79332,0.38917c-0.55515,0.09098 -1.11606,0.1984 -2.89233,0.48933c-0.62723,0.10273 -1.27121,0.20088 -1.929,0.3c-0.66954,0.10089 -2.03696,0.30035 -2.73067,0.4c-1.39723,0.20071 -2.09734,0.3 -2.79733,0.39999c-0.70001,0.10001 -1.40001,0.2 -2.8,0.4c-0.7,0.1 -1.40004,0.19984 -2.8,0.4c-0.70001,0.10008 -1.40021,0.19986 -2.10001,0.3045c-0.70023,0.1047 -2.10059,0.32811 -2.79999,0.45267c-0.70062,0.12477 -2.10075,0.40617 -2.8,0.564c-0.70077,0.15817 -1.3995,0.32913 -2.10001,0.4935c-1.399,0.32825 -2.0979,0.4864 -2.8,0.616c-1.39616,0.25772 -2.09924,0.33253 -2.79867,0.40134c-0.69628,0.0685 -1.39101,0.11268 -2.76534,0.21867c-0.67902,0.05237 -1.35459,0.08855 -2.66933,0.28267c-0.64707,0.09554 -1.90247,0.37357 -2.50933,0.53867c-0.59686,0.16238 -1.74166,0.5283 -2.28533,0.73067c-1.539,0.57285 -2.0062,0.79842 -2.94267,1.19733c-0.47077,0.20054 -1.44635,0.60703 -1.968,0.8c-1.12249,0.41521 -2.39633,0.80213 -3.072,0.9955c-0.68966,0.19737 -1.38885,0.38551 -2.08801,0.5685c-0.69019,0.18065 -1.36551,0.34996 -3.2155,0.81467c-0.54588,0.13712 -1.55333,0.39293 -2.02333,0.52133c-0.9033,0.24678 -2.23055,0.66265 -2.68383,0.8215c-0.93427,0.32742 -1.87991,0.69627 -2.35334,0.88917c-0.94384,0.38457 -1.86309,0.77975 -2.74,1.19067c-0.85374,0.40005 -1.27371,0.60268 -2.08083,1.05583c-1.21895,0.68438 -2.00513,1.22395 -2.4,1.4955c-0.78761,0.54163 -1.54683,1.09536 -1.91917,1.36333c-1.0629,0.76498 -1.74426,1.23669 -2.42699,1.72566c-0.72812,0.52147 -1.12202,0.80141 -2.42233,1.82267c-0.49146,0.38599 -0.99738,0.79864 -1.512,1.233c-1.05499,0.89046 -1.57184,1.35269 -2.072,1.82133c-0.96339,0.90266 -1.39619,1.35217 -2.18951,2.22417c-0.37987,0.41754 -1.09679,1.25164 -1.46333,1.65267c-1.11539,1.22037 -1.53732,1.60919 -1.96716,2.00316c-0.8736,0.80067 -1.33134,1.18129 -1.78133,1.56534c-0.88137,0.7522 -1.72192,1.46422 -2.48,2.14934c-0.70295,0.63528 -1.34635,1.2433 -1.66167,1.52499c-0.90057,0.80453 -1.79815,1.50897 -2.38817,1.92c-0.55779,0.38858 -1.599,1.02017 -2.2635,1.40567l-0.68533,0.43466" id="svg_11" stroke-width="2" stroke="#000" fill="none"/>
  <path t="30296,30495,30495,30512,30512,30512,30512,30512,30530,30530,30530,30530,30530,30530,30547,30547,30547,30547,30547,30547,30564,30564,30564,30564,30565,30565,30565,30581,30581,30581,30581,30581,30582,30582,30582,30598,30598,30598,30598,30598,30598,30598,30598,30598,30615,30615,30615,30615,30615,30615,30615,30615,30615,30632,30632,30632,30632,30632,30632,30632,30649,30649,30649,30649,30667,30667,30667,30667,30684,30684,30684,30701,30701,30701,30701,30718,30718,30718,30718,30736,30736,30736,30736,30752,30752,30752,30752,30770,30770,30771,30771,30787,30787,30787,30787,30804,30804,30804,30821,30821,30821,30821,30821,30838,30839,30839,30839,30839,30855,30855,30855,30855,30855,30873,30873,30873,30873,30873,30889,30890,30890,30890,30890,30907,30907,30907,30907,30923,30923,30923,30923,30940,30940,30940,30941,30957,30957" d="m54,141c-1.66167,0.71883 -2.2499,1.25407 -3.16667,2.16667c-0.52051,0.51814 -1.07491,1.07471 -1.644,1.67999c-0.59657,0.63451 -1.19891,1.31213 -1.78933,2.04001c-0.61,0.752 -0.90701,1.14992 -1.5,1.97499c-0.30361,0.42244 -1.20365,1.7574 -1.49867,2.22366c-0.59844,0.9458 -0.88526,1.43277 -1.16533,1.92534c-0.56023,0.98529 -1.07832,1.98505 -1.55333,2.99333c-0.23904,0.50739 -0.70347,1.55852 -0.944,2.104c-0.24847,0.56351 -0.50025,1.15154 -1.072,2.392c-0.6262,1.3586 -0.97305,2.0665 -1.31733,2.79733c-0.35041,0.74384 -0.70237,1.49701 -1.044,2.259c-0.34104,0.76068 -0.97858,2.27446 -1.26233,3.02234c-0.27882,0.73489 -0.53381,1.46696 -0.771,2.196c-0.23545,0.72368 -0.45396,1.44969 -0.663,2.17799c-0.20964,0.73039 -0.60927,2.21393 -0.80917,2.96834c-0.20144,0.76025 -0.4017,1.52338 -0.6105,2.28299c-0.20755,0.75505 -0.41953,1.50046 -0.6465,2.229c-0.22248,0.71414 -0.69761,2.0719 -0.964,2.70216c-0.50466,1.19403 -0.78941,1.73758 -1.058,2.26067c-0.50336,0.9803 -0.77743,1.41666 -1.378,2.66118c-0.34818,0.72153 -0.60028,1.41095 -1.0255,2.34033c-0.41756,0.91261 -0.94567,1.80092 -1.292,2.40266c-0.34433,0.59828 -0.95233,1.79503 -1.18933,2.39999c-0.34985,0.89304 -0.63893,1.79904 -0.936,2.7045c-0.202,0.61568 -0.41249,1.24907 -0.8,2.61684c-0.20667,0.72948 -0.397,1.47948 -0.6,2.226c-0.29564,1.08719 -0.49411,1.76918 -0.8,2.73184c-0.19623,0.61754 -0.60243,1.82021 -0.8,2.42532c-0.30374,0.9303 -0.50774,1.57863 -0.8,2.61684c-0.20545,0.72983 -0.39592,1.47977 -0.6,2.226c-0.392,1.43333 -0.60515,2.0928 -0.77917,2.73184c-0.24939,0.91583 -0.44103,2.12177 -0.4955,2.73149c-0.08451,0.94594 -0.18036,1.95802 -0.31067,2.67601c-0.13835,0.76233 -0.32661,1.55971 -0.516,2.39999c-0.3007,1.33421 -0.39948,1.79716 -0.59867,2.73866c-0.20082,0.94917 -0.2943,1.42325 -0.6,2.808c-0.19504,0.88348 -0.39327,1.74052 -0.47917,2.16667c-0.17155,0.8511 -0.36298,2.16591 -0.43817,3.084c-0.07703,0.94063 -0.0722,1.41946 -0.1925,2.36333c-0.17751,1.39264 -0.31203,1.83763 -0.5955,2.69101c-0.27467,0.8269 -0.64095,1.58379 -0.96133,2.69499c-0.19442,0.67432 -0.30585,1.66612 -0.32433,2.31934c-0.03872,1.36815 -0.009,2.10001 -0.009,2.84734c0,0.74733 0,1.83333 0,2.83833c0,0.62 0,1.47501 0,2.7l0,0.8" id="svg_12" stroke-width="2" stroke="#000" fill="none"/>
  <path t="31207,31370,31370,31370,31370,31387,31387,31387,31387,31387,31404,31405,31405,31405,31405,31405,31405,31421,31421,31421,31421,31421,31421,31421,31422,31422,31439,31439,31439,31439,31439,31439,31439,31439,31439,31456,31456,31456,31456,31456,31456,31456,31456,31456,31473,31473,31473,31473,31473,31473,31473,31473,31473,31490,31490,31490,31490,31490,31490,31490,31490,31490,31508,31508,31508,31508,31508,31508,31508,31525,31525,31525,31525,31542,31542,31543,31543,31559,31559,31559,31559,31559,31559,31580,31580,31580,31580,31599,31599,31599,31599,31599,31614,31614,31614,31614,31614,31614,31614,31630,31630,31630,31630,31630,31630,31651,31651,31651,31651,31651,31651,31664,31664,31664,31664,31664,31664,31683,31683,31683,31683,31683,31683,31698,31698,31698,31698,31713,31713,31713,31714,31730,31730,31730,31747,31747,31747,31764,31764,31764,31782,31782,31799,31799,31817,31817,31834,31852,31852,31869,31915,31915,31933" d="m14,255c0,2.05734 0,3.08334 0,3.87067c0,0.41867 0,1.75082 0,2.68649c0,0.96368 0,1.45352 0,2.44418c0,0.99866 0,2.008 0,2.53015c0,1.11435 0,1.72052 0,2.36868c0,0.69714 0.00046,2.26648 -0.00017,3.14981c-0.00067,0.94336 -0.00248,1.93668 -0.0105,2.97c-0.00826,1.06339 -0.02184,2.14673 -0.0465,3.24002c-0.02467,1.09341 -0.10417,3.2403 -0.16433,4.27548c-0.05864,1.00882 -0.13189,1.99332 -0.2145,2.95651c-0.08112,0.94583 -0.17271,1.87622 -0.2685,2.79449c-0.0949,0.90973 -0.29583,2.71347 -0.39533,3.61301c-0.09916,0.89645 -0.19703,1.78683 -0.2895,2.66849c-0.09118,0.86935 -0.17722,1.72375 -0.2535,2.56052c-0.07432,0.81528 -0.19433,2.37128 -0.23567,3.10715c-0.03986,0.7095 -0.06717,1.39725 -0.0855,2.06702c-0.01794,0.65561 -0.02683,1.30133 -0.0315,1.94098c-0.00466,0.6377 -0.0045,1.923 -0.0045,2.57736c0,0.66031 0,1.32266 0,1.98297c0,0.65436 0,1.29868 0,1.92902c0,0.61234 -0.00053,1.767 0.00017,2.30249c0.00066,0.50851 0.00072,0.99307 0.0105,1.45651c0.0185,0.87619 0.04087,1.70831 0.21083,2.90784c0.11324,0.79916 0.28673,1.58246 0.483,2.34299c0.3722,1.4422 0.58383,2.11465 0.858,2.75717c0.28341,0.66418 0.92374,1.67743 1.4895,2.38535c0.60941,0.76254 0.95962,1.12613 1.59,1.91916c0.31181,0.39227 1.12907,1.57898 1.4865,2.39551c0.34389,0.78561 0.56481,1.59821 0.8715,2.79999c0.20455,0.80151 0.30435,1.20798 0.5,2.04166c0.20456,0.87161 0.50125,2.29144 0.60017,2.80118c0.20695,1.06647 0.30726,1.61914 0.42067,2.17801c0.22978,1.13232 0.33311,1.70505 0.8005,3.35767c0.15248,0.53915 0.50323,1.58575 0.67867,2.10065c0.17391,0.51044 0.54123,1.51196 0.9785,3.021c0.14455,0.49884 0.38964,1.50961 0.50067,2.02069c0.22473,1.03452 0.32618,1.56326 0.62067,3.2005c0.10113,0.56226 0.20265,1.13022 0.37933,2.27866c0.08833,0.57416 0.1883,1.14474 0.35417,2.83334c0.05345,0.5441 0.11543,1.60071 0.152,2.10931c0.07011,0.9751 0.10338,1.9061 0.4575,3.11435c0.21827,0.74472 0.57921,1.4007 0.909,2.034c0.62897,1.20779 0.90537,1.80359 1.2375,2.70898c0.21885,0.59659 0.59875,1.80353 0.82133,2.38934c0.32719,0.86111 0.87728,1.91595 1.42533,2.564c0.35391,0.41849 1.36796,1.21927 1.95333,1.62134c0.73056,0.5018 1.33401,1.10345 1.8,1.79999c0.62371,0.93228 1.15301,1.54288 1.89333,2.02536c0.64369,0.41953 1.2972,1.15518 1.73883,1.89999c0.39285,0.66254 1.1785,1.29999 1.87833,2l0.543,0.60001l0.32117,0.73199" id="svg_13" stroke-width="2" stroke="#000" fill="none"/>
  <path t="32131,32291,32291,32291,32309,32309,32309,32309,32326,32326,32326,32326,32326,32343,32343,32343,32343,32343,32343,32360,32360,32360,32360,32360,32381,32381,32381,32401,32418" d="m40,388c0,2.01883 0,2.85733 0,3.48801c0,1.03366 0,2.15866 0,2.95865c0,0.41501 0,1.72 0,2.63867c0,0.95068 0,1.43552 0,2.41916c0,1.49551 0,1.99551 0,2.99551c0,0.5 0,1.5 0,2.5c0,1 0,1.996 0,2.48651c0,0.95099 0,1.84198 0,3.01349c0,0.92401 0,1.63199 0,2.61465l0,0.98535" id="svg_14" stroke-width="2" stroke="#000" fill="none"/>
  <path t="33303,33450,33451,33451,33451,33451,33451,33451,33470,33471,33471,33471,33471,33471,33471,33487,33487,33487,33487,33487,33501,33501,33501,33501,33501,33501,33501,33501,33518,33519,33519,33519,33519,33519,33537,33537,33537,33537,33537,33537,33554,33554,33554,33554,33570,33570,33570,33588,33588,33588,33604,33604,33622,33804,33818,33835,33835,33851,33852,33852,33871,33871,33871,33888,33888,33888,33888,33902,33902,33902,33902,33902,33918,33918,33918,33938,33938,33938,33938,33955,33955,33955,33955,33969,33969,33969,33987,33988,33988,34003,34021,34021,34037,34061,34077,34077,34094,34112,34129,34147,34164,34181,34181,34266,34290,34308,34325,34343,34343,34343,34361,34361,34379,34379,34489,34529,34546,34563,34563,34580,34580,34580,34581,34599,34599,34599,34599,34620,34620,34620,34640,34640,34640,34654,34654,34672,34687,34704,34720,34720,34751,34751,34838,34879,34896,34896,34913,34913,34931,34931,34931,34932,34948,34949,34949,34966,34966,34966,34966,34967,34967,34983,34983,34983,34983,34983,34984,34984,34999,35000,35000,35000,35000,35000,35000,35023,35023,35023,35023,35023,35023,35023,35040,35040,35040,35040,35040,35040,35040,35055,35055,35055,35055,35055,35075,35075,35075,35075,35075,35088,35088,35088,35088,35088,35088,35088,35107,35107,35108,35108,35108,35123,35123,35124,35124,35124,35140,35140,35140,35141,35141,35155,35155,35155,35155,35172,35172,35172,35189,35189,35189,35207,35207,35223,35224,35224,35239,35240,35260,35260" d="m27,370c0,4.40717 0,5.02399 0,5.67682c0,0.68185 0,2.10452 0,2.83136c0,0.72781 0.00052,2.15848 -0.00017,2.84848c-0.00066,0.67001 -0.00775,1.95007 -0.02067,2.56c-0.0125,0.59006 -0.04159,1.71207 -0.14583,2.75c-0.09733,0.96906 -0.2669,1.8938 -0.35417,2.35419c-0.17868,0.9426 -0.48122,2.47879 -0.57917,3.04333c-0.10215,0.58878 -0.30038,1.82242 -0.4,2.45667c-0.10038,0.6391 -0.19793,1.27866 -0.3,1.91248c-0.29387,1.82483 -0.40183,2.39679 -0.58933,3.50534c-0.09138,0.54025 -0.26258,1.60837 -0.32533,2.14401c-0.1916,1.63531 -0.20491,2.19846 -0.22817,2.76099c-0.04606,1.11432 -0.05067,1.65897 -0.05583,2.70166c-0.00689,1.39014 -0.00133,2.18317 -0.00133,2.89218c0,0.9585 0,1.86234 0,2.75183c0,0.85352 0,1.88916 0,2.57468c0,0.83466 0,1.83148 0,2.75067c0,0.96448 -0.17973,2.1337 0.54167,2.46448c0.85921,0.39398 1.705,0.02084 2.625,0.02084c0.786,0 1.60802,-0.00595 2.66667,0c0.95205,0.00534 1.68089,0.0293 2.80967,0.22134c0.67437,0.11475 1.39622,0.29202 2.166,0.42599c1.18759,0.2067 1.98903,0.27905 2.78033,0.31665c0.7742,0.0368 1.52533,0.03534 2.92667,0.03601c0.65867,0.00031 1.63667,0 2.65067,0c0.71733,0 1.45866,0 2.208,0c1.45866,0 2.14,0 2.78933,0c0.9315,0 2.13583,0 2.7315,0c0.8685,0 1.93783,0 2.85783,0c0.76,0 1.74667,0 2.73067,0c0.69067,0 1.75883,0 2.616,0c0.9,0 1.7,0 2.6,0c0.9,0 1.8,0.00223 2.7,0c0.90001,-0.00226 1.73835,-0.38608 2.4,-0.716c0.84336,-0.42056 1.68021,-0.48605 2.284,-1c0.6155,-0.52393 1.68373,-0.57367 2.43684,-0.784c0.79485,-0.22198 1.80165,-0.36023 2.6325,-0.52533c0.97644,-0.19403 1.82657,-0.40567 2.48949,-1.02734c0.60464,-0.56702 0.36459,-1.59216 0.64117,-2.43533c0.26372,-0.80399 0.56512,-1.84348 0.632,-2.48132c0.11002,-1.0491 0.10113,-1.78683 0.25066,-2.86401c0.09489,-0.68347 0.34576,-1.62198 0.48067,-2.20499c0.29459,-1.27298 0.34116,-1.98233 0.35133,-2.73102c0.01626,-1.1972 0.00134,-1.87067 0.00134,-2.86816c0,-0.86249 0,-1.79999 0,-2.76248c0,-0.89999 -0.19714,-1.91595 0.33334,-2.60001c0.51068,-0.65851 1.49419,-0.95117 1.66399,-1.79999c0.17942,-0.89691 0.00267,-1.74167 0.00267,-2.68533c0,-0.72534 0,-1.71484 0,-2.53552c0,-1.14581 0,-1.93631 0,-2.78983c0,-0.59067 0,-1.79199 0,-2.41068c0,-0.99298 0.00718,-2.11206 -0.00267,-2.952c-0.0108,-0.9201 -0.02221,-1.41132 -0.11166,-2.44998c-0.04745,-0.55084 -0.20218,-1.71335 -0.455,-2.94601c-0.13175,-0.64236 -0.29022,-1.29242 -0.4515,-1.95151c-0.1627,-0.66492 -0.5061,-1.99423 -0.8125,-3.3125c-0.1497,-0.64407 -0.28638,-1.28006 -0.405,-1.90948c-0.23255,-1.23404 -0.32461,-1.84521 -0.4,-2.45267c-0.22355,-1.80118 -0.24432,-2.40427 -0.27766,-3.00452c-0.06664,-1.19955 -0.082,-1.80008 -0.10933,-2.39999c-0.05467,-1.20016 -0.13567,-2.40054 -0.19601,-2.99966c-0.12008,-1.1925 -0.20346,-1.77905 -0.27866,-2.35867c-0.14629,-1.12744 -0.24094,-1.66855 -0.37867,-3.19882c-0.08387,-0.93176 -0.09174,-1.38174 -0.14666,-2.25751c-0.05445,-0.86826 -0.19135,-2.20767 -0.32734,-3.147c-0.07026,-0.48535 -0.22839,-1.48413 -0.29466,-2c-0.20588,-1.60254 -0.23846,-2.15909 -0.3,-3.2865c-0.03091,-0.56631 -0.04681,-1.13129 -0.10533,-2.242c-0.02849,-0.54065 -0.15128,-2.0697 -0.3045,-3c-0.1469,-0.89191 -0.25208,-1.3248 -0.44416,-2.19247c-0.29647,-1.33917 -0.49888,-2.26999 -0.59867,-2.74268c-0.2004,-0.94925 -0.29285,-1.42355 -0.6,-2.80801c-0.19546,-0.88101 -0.39507,-1.72125 -0.6,-2.51999c-0.1953,-0.76123 -0.49519,-1.82663 -0.7,-2.4895c-0.29312,-0.94864 -0.49603,-1.55719 -0.89999,-2.75583c-0.29708,-0.88147 -0.47735,-1.45322 -0.9,-2.47983c-0.28487,-0.69196 -0.69974,-1.52029 -1.1,-2.3215c-0.39973,-0.80014 -0.91898,-1.79114 -1.18934,-2.39999c-0.3505,-0.78931 -0.558,-1.80002 -0.66333,-2.60001l-0.23133,-0.99869l-0.29067,-0.76532" id="svg_15" stroke-width="2" stroke="#000" fill="none"/>
  <path t="36141,36310,36311,36311,36311,36328,36328,36328,36328,36328,36328,36345,36345,36345,36345,36345,36345,36345,36345,36362,36362,36362,36362,36362,36362,36362,36362,36362,36380,36380,36380,36380,36380,36380,36380,36380,36380,36396,36396,36396,36396,36396,36396,36396,36396,36396,36414,36414,36414,36414,36414,36414,36414,36414,36414,36432,36432,36432,36432,36432,36432,36432,36432,36432,36448,36449,36449,36449,36449,36449,36449,36449,36449,36466,36466,36466,36466,36466,36466,36466,36466,36466,36482,36482,36483,36483,36483,36483,36483,36483,36483,36499,36500,36500,36500,36500,36500,36500,36500,36500,36516,36516,36517,36517,36517,36517,36517,36517,36517,36534,36534,36534,36534,36534,36534,36534,36534,36535,36551,36551,36551,36551,36551,36551,36551,36551,36551,36569,36569,36569,36569,36569,36569,36569,36569,36569,36585,36585,36585,36585,36586,36586,36586,36586,36586,36603,36603,36603,36603,36603,36603,36604,36604,36604,36624,36625,36625,36625,36625,36625,36625,36625,36625,36641,36641,36641" d="m79,329c2.972,0 3.68266,0 4.45734,0c0.83067,0 2.16467,0 3.11333,0c0.49734,0 1.548,0 2.10534,0c0.58133,0 2.48949,0 3.188,0c0.7345,0 1.508,0 2.3235,0c0.8605,0 1.769,0 2.7285,0c2.084,0 3.21267,0 4.39333,0c1.22466,0 2.48534,0 3.774,0c1.30866,0 2.62933,0 3.95399,0c2.62933,0 3.92017,0 5.196,0c1.26584,0 2.52667,0 3.78751,0c1.26583,0 2.54166,0 3.8325,0c2.64667,0 4.01083,0 5.4,0c1.40917,0 2.83334,0 4.26749,0c1.43918,0 2.87834,0 4.3125,0c2.83334,0 4.22284,0 5.58934,0c1.3405,0 2.65199,0 3.9315,0c1.24449,0 2.45099,0 3.6165,0c2.196,0 3.22217,0 4.20532,0c0.94717,0 1.86534,0 2.76151,0c0.88116,0 1.75433,0 2.6265,0c1.76933,0 2.67834,0 3.60133,0c0.931,0 1.864,0 2.793,0c0.91901,0 1.82201,0 2.703,0c1.672,0 2.4525,0 3.196,0c0.7095,0 1.388,0 2.0385,0c0.6255,0 1.229,0 1.81351,0c1.12399,0 1.66949,0.00082 2.20799,-0.00134c0.5345,-0.00217 1.06805,-0.0069 1.6035,-0.0195c0.54057,-0.01273 1.08931,-0.03088 1.6485,-0.06448c1.16473,-0.07001 1.77399,-0.13309 2.40134,-0.20001c0.64403,-0.0687 1.30156,-0.14886 1.97101,-0.2355c0.6799,-0.08798 1.36745,-0.18277 2.06099,-0.28049c1.39758,-0.1969 2.09763,-0.29608 2.79601,-0.40268c0.69731,-0.10641 1.39218,-0.22028 2.08051,-0.35849c0.68642,-0.13782 1.36917,-0.29001 2.03549,-0.4935c1.33073,-0.4064 1.96835,-0.69843 2.60001,-0.99734c0.63283,-0.29947 1.25096,-0.63037 1.8645,-0.9675c0.6118,-0.33618 1.21289,-0.6846 1.81949,-1.01248c1.1947,-0.64578 1.79871,-0.92969 2.40134,-1.19733c0.59746,-0.26535 1.19914,-0.51016 1.8,-0.7485c0.59915,-0.23764 1.20126,-0.46579 1.8,-0.70352c1.20259,-0.47751 1.80074,-0.73645 2.39867,-1c0.59773,-0.26346 1.19014,-0.53314 1.7805,-0.79648c0.58432,-0.26065 1.16054,-0.51859 1.73549,-0.7515c1.11281,-0.45078 1.66206,-0.63153 2.19867,-0.80002c0.5235,-0.16437 1.03972,-0.30905 1.545,-0.44849c0.49472,-0.13654 0.98163,-0.26346 1.455,-0.4035c0.92326,-0.27316 1.36699,-0.43326 1.79868,-0.60266c0.42401,-0.16638 0.83305,-0.34564 1.22549,-0.53552c0.38223,-0.18494 0.74786,-0.37643 1.0905,-0.58047c0.64688,-0.38522 0.93114,-0.59525 1.2,-0.79602c0.2554,-0.19073 0.48991,-0.38062 0.7095,-0.561c0.20572,-0.16898 0.39633,-0.32733 0.57449,-0.47098l0.32133,-0.23734l0.14517,-0.09052l0.50067,-0.22198" id="svg_16" stroke-width="2" stroke="#000" fill="none"/>
  <path t="37603,37774,37774,37774,37774,37774,37774,37774,37796,37796,37796,37796,37796,37796,37796,37796,37814,37814,37814,37814,37814,37814,37814,37814,37814,37827,37827,37827,37827,37827,37827,37827,37827,37827,37846,37846,37846,37846,37846,37846,37846,37846,37846,37863,37863,37863,37863,37863,37863,37880,37880,37880,37880,37897,37897,37913,37927,37928,37947,37962,37962,37980,37997,37998,38015,38015,38030,38048,38095,38118,38224,38247,38264,38264,38264,38278,38278,38278,38278,38295,38295,38295,38295,38296,38313,38313,38313,38313,38313,38313,38328,38328,38328,38328,38347,38347,38347,38347,38363,38363,38363,38532,38532,38557,38591,38614,38614,38628,38629,38648,38665,38681,38681,38731" d="m126,330c0,4.186 0,4.74133 0,5.944c0,0.63934 0,1.29868 0,1.974c0,0.68735 0,2.78284 0,3.48868c0,0.71582 0,1.44666 0,2.19748c0,0.77585 0,1.58167 0,2.42252c0,1.80667 0,2.77982 0,3.79199c0,1.04016 0,2.09732 0,3.16049c0,1.05817 0,2.10034 0,3.11551c0,1.90533 0,2.77649 0,3.59467c0,0.77216 0,1.50534 0,2.20651c0,0.67615 0,1.33432 0,1.98148c0,1.28934 0,1.94385 0,2.60535c0,0.6655 0,1.332 0,1.99649c0,0.65952 0,1.311 0,1.95151c0,1.23599 0,1.82599 0,2.94601c0,0.53 0,1.53 0,2.44998c0,1.23016 0,1.9545 0,2.61084c0,0.87451 0,2.10083 0,2.90085c0,0.909 -0.11063,1.83875 0.02084,2.64081c0.14437,0.88077 0.90917,1.45779 0.9685,2.20618c0.08393,1.05875 0.01067,1.98132 0.01067,2.81467c0,0.97849 0,1.6955 0,2.60001c0,0.96399 0.00071,1.836 0,2.78934c-0.00067,0.89465 -0.37118,1.53693 -1.33334,1.77731c-0.6849,0.17111 -1.47865,0.45505 -2.66666,0.66669c-0.59758,0.10645 -1.52203,0.15381 -2.15717,0.21933c-1.3678,0.14108 -2.10848,0.3028 -2.90533,0.44733c-0.4199,0.07617 -1.30646,0.24643 -2.78017,0.37851c-0.52447,0.047 -1.60792,0.08896 -2.15733,0.10065c-1.09454,0.02328 -1.632,0.02017 -3.15683,0.02084c-0.92434,0.0004 -1.3605,0 -2.18584,0c-1.49067,0 -2.172,0 -2.82133,0c-0.9315,0 -2.13567,0 -2.727,0c-0.837,0 -1.966,0 -2.8,0c-0.95183,0 -1.86671,0.03354 -2.63033,-0.22134c-0.87608,-0.29242 -1.82728,-0.59152 -2.47733,-0.86267c-0.86721,-0.36169 -1.612,-0.87997 -2.5225,-0.91614l-0.8175,-0.03586l-0.8,-0.38931" id="svg_17" stroke-width="2" stroke="#000" fill="none"/>
  <path t="39661,39824,39841,39841,39841,39841,39858,39858,39858,39858,39876,39876,39876,39876,39876,39876,39893,39893,39893,39893,39893,39893,39893,39893,39910,39911,39911,39911,39911,39911,39911,39911,39927,39927,39928,39928,39928,39928,39945,39945,39945,39945,39945,39962,39962,39962,39962,39979,39980,39980,39980,39997,39997,39997,39997,40014,40014,40014,40014,40031,40031,40031,40031,40054,40055,40055,40055,40069,40069,40069,40088,40088,40088,40104,40119,40136,40136,40155,40155,40171,40186" d="m213,320c0.58333,3.91666 1.5,4 2.367,4c0.67467,0 1.38933,0 2.812,0c0.67734,0 1.36267,0 2.088,0c1.233,0 2.19035,0.00092 2.709,-0.00449c1.10739,-0.01154 1.69228,-0.02472 2.29466,-0.05267c1.89713,-0.08804 2.55135,-0.16092 3.216,-0.22818c0.67537,-0.06836 1.36057,-0.14618 2.76001,-0.32532c0.71529,-0.09155 1.43983,-0.19186 2.92,-0.38934c0.75409,-0.10062 1.51337,-0.19968 2.27249,-0.29999c0.75421,-0.09967 1.49854,-0.19864 2.22751,-0.30002c0.70935,-0.09866 2.66721,-0.39688 3.2475,-0.5c0.54637,-0.09708 1.5533,-0.29623 2.47916,-0.5c0.44624,-0.09821 1.77219,-0.4054 2.68935,-0.59866c0.93085,-0.19617 1.39418,-0.29398 2.3075,-0.44415c1.27354,-0.20938 2.04033,-0.27515 2.7485,-0.33185c1.00926,-0.08081 2.03029,-0.17889 2.74533,-0.31067c0.74396,-0.13708 1.49594,-0.30603 2.94934,-0.71466c0.68393,-0.19229 1.34317,-0.37875 2.26215,-0.75717c0.91809,-0.37805 1.49817,-0.73718 2.40451,-1.22198c0.59592,-0.31876 1.79401,-0.81134 2.40451,-0.90652c0.92496,-0.1442 1.58084,-0.10809 2.61667,-0.11447c1.09351,-0.00674 1.82056,-0.00339 2.50949,-0.08517c1.20807,-0.1434 1.94833,-0.43591 2.65201,-0.716c0.99976,-0.39792 1.78763,-0.70816 2.54797,-0.91333c1.08646,-0.29315 1.96936,-0.28534 2.86951,-0.28534c0.78519,0 1.72519,-0.01068 2.41583,-0.08533l0.96317,-0.41467l0.82083,-0.44284" id="svg_18" stroke-width="2" stroke="#000" fill="none"/>
  <path t="40759,40906,40906,40906,40906,40923,40923,40923,40923,40923,40923,40923,40940,40940,40940,40940,40940,40940,40940,40940,40940,40957,40958,40958,40958,40958,40958,40958,40958,40958,40975,40975,40975,40975,40975,40975,40975,40975,40975,40992,40992,40992,40992,40992,40992,40992,40992,40992,41009,41009,41009,41009,41009,41009,41009,41009,41009,41026,41026,41026,41026,41026,41026,41026,41026,41026,41044,41044,41044,41044,41044,41044,41044,41044,41061,41062,41062,41062,41062,41062,41078,41078,41078,41078,41079,41095,41095,41095,41095,41112,41112,41112,41112,41112,41113,41113,41113,41129,41130,41130,41130,41130,41130,41148,41148,41148,41148,41148,41148,41164,41165,41165,41165,41181,41181,41181,41198,41216,41348,41348,41366,41383,41383,41400,41417,41417,41435,41458,41476,41493,41506,41602,41623,41623,41642,41642,41658,41658,41658,41673,41673,41673,41693,41693,41693,41708,41708,41723,41740,41740,41740,41760,41760,41760,41776,41777,41791,41791,41791,41791,41807,41808,41808,41825,41825,41844,41844,41860,41860,41877,41877,41895,41895,41917,41917,41917,41917,41929,41929,41929,41929,41946,41946,41946,41946,41946,41963,41963,41979,41980,41980,41999,41999,42158,42181,42181,42198,42215,42232,42232,42250,42250,42250,42266,42267,42267,42267,42267,42284,42284,42284,42284,42301,42302,42302,42302,42302,42319,42320,42320,42320,42320,42336,42337,42337,42337,42337,42354,42354,42354,42354,42354,42377,42377,42377,42377,42377,42377,42377,42392,42392,42392,42392,42392,42392,42392,42412,42412,42413,42413,42413,42413,42413,42426,42426,42426,42426,42426,42426,42441,42442,42442,42442,42442,42462,42462,42462,42462,42462,42475,42475,42475,42475,42475,42495,42495,42495,42495,42495,42510,42510,42510,42510,42510,42510,42528,42528,42528,42528,42528,42528,42545,42545,42545,42546,42546,42546,42560,42560,42560,42560,42560,42561,42561,42578,42578,42578,42578,42578,42578,42579,42579,42594,42594,42595,42595,42595,42595,42611,42611,42611,42611,42612,42628,42628,42628,42628,42645,42645,42645,42662,42662,42662,42678,42678,42696" d="m276,289c0,2.97333 0,3.69333 0,4.49335c0,0.87997 0,1.84 0,2.88266c0,0.55634 0,1.74899 0,2.38931c0,0.67233 0,1.37869 0,2.90134c0,0.81934 0,1.67468 0,2.56201c0,0.91534 0,1.85468 0,2.814c0,0.97534 0,1.96268 0,3.95734c0,1.00034 0,2.00266 0,3.009c0,1.01233 0,2.03265 0,3.06299c0,1.04233 0,2.09866 0,4.26135c0,1.10898 0,2.23199 0,3.36298c0,1.13303 0,2.26202 0,3.38101c0,1.103 0,2.18399 0,4.25601c0,0.98016 0,1.92133 0,2.82449c0,0.86615 0,1.69632 0,2.49149c0,0.76117 0,1.48935 0,2.85068c0,0.6355 0,1.24399 0,1.82849c0,0.56351 0,1.10901 0,1.6395c0,0.51852 0,1.02802 0,2.03201c0,0.50015 0,1.00134 0,1.50449c0,0.5062 0,1.01636 0,1.53152c0,0.52115 0,1.04932 0,2.13065c0,0.55469 0,1.11734 0,1.686c0,0.57266 0,1.14734 0,1.72202c0,1.14133 -0.00256,2.25867 0.00134,3.33865c0.00189,0.52499 0.01437,1.5452 0.03467,2.04001c0.03937,0.96045 0.17514,2.32678 0.31665,3.18948c0.13745,0.83801 0.23761,1.24396 0.36334,2.05585c0.18561,1.19849 0.23734,2.01443 0.26315,2.86383c0.02762,0.90872 0.02084,2.4375 0.02084,3.00183c0,0.59033 0,1.83301 0,2.47733c0,0.65436 0,1.31467 0,1.97702c0,1.95966 0,2.59467 0,3.21967c0,1.22 0,1.815 0,2.39999c0,1.69501 0,2.23999 0,3.29999c0,0.51501 0,1.51501 0,2.47501c0,0.92001 0,1.79868 0,2.62933c0,0.77466 0,2.12399 0,2.93851c0,0.6615 0,1.63348 0,2.61884c0,0.89999 0.1004,1.71039 -0.03601,2.53598c-0.14404,0.8717 -0.61746,1.70929 -0.91132,2.60684c-0.28003,0.85529 -0.81693,1.40335 -1.44202,2.15717c-0.54507,0.65732 -1.05585,1.33871 -1.55798,1.95718c-0.57205,0.70459 -1.40518,1.82431 -0.88602,2.47617c0.46024,0.57785 1.68002,0.16666 2.29501,0.16666c1.22366,0 2.05917,0 2.64282,0c1.19534,0 2.08484,0 2.65952,0c1.06934,0 2,0 2.83466,0c0.99683,0 1.75089,0.10733 2.776,-0.01068c0.96378,-0.11096 1.65472,-0.53012 2.31201,-0.70532c0.98285,-0.26199 1.81839,-0.24438 2.62933,-0.36801c1.00867,-0.15375 1.92142,-0.54135 2.85065,-1.08264c0.52441,-0.30548 1.33054,-0.83783 1.88068,-1.18066c1.02597,-0.6394 1.69043,-1.07434 2.55133,-1.36603c0.78253,-0.26514 1.60132,-0.28131 2.60117,-0.28665c0.96417,-0.00516 1.93082,0.08591 2.68417,-0.08533c0.79916,-0.18167 1.51199,-0.63675 2.51733,-1.11334c0.6145,-0.29132 1.76263,-0.6553 2.56033,-0.74866c0.57843,-0.06769 1.52924,-0.10788 2.55984,-0.27435c0.73929,-0.11942 1.50543,-0.29932 2.28299,-0.53998c1.20581,-0.3732 1.99725,-0.70956 2.76349,-1.06369c0.72971,-0.33722 1.39505,-0.65982 2.37866,-1.28931c0.70776,-0.45294 1.59341,-0.99155 2.30402,-1.28534c0.74133,-0.30649 1.6507,-0.64136 2.328,-1.20001c0.77292,-0.63751 1.3363,-1.38739 1.41998,-2.19998c0.09222,-0.89529 0.00134,-1.836 0.00134,-2.68668c0,-0.76001 0,-1.935 0,-2.47501c0,-0.88501 0,-2.20499 0,-2.92233c0,-0.74133 0,-1.49066 0,-2.23199c0,-1.40134 0,-2.06934 0,-2.74533c0,-0.70801 0,-1.88168 0,-2.75299c0,-0.92734 0.00003,-1.89468 0,-2.38834c-0.00009,-1.49719 0.00687,-1.99612 -0.01068,-2.98666c-0.01727,-0.97485 -0.00809,-1.45709 -0.15598,-2.84402c-0.09427,-0.88425 -0.25992,-1.7327 -0.444,-2.556c-0.18143,-0.81146 -0.39575,-1.6091 -0.58801,-2.41464c-0.19727,-0.82645 -0.38641,-1.7009 -0.51599,-2.65201c-0.14185,-1.04111 -0.17581,-1.60776 -0.22818,-2.811c-0.0274,-0.6301 -0.03909,-1.27463 -0.04648,-1.92902c-0.01495,-1.3226 -0.01068,-2.63733 -0.01068,-3.28265c0,-0.63733 0,-1.896 0,-2.52133c0,-0.62534 0,-1.884 0,-3.16666c0,-0.65436 0,-1.31467 0,-1.97702c0,-1.31467 0,-1.95898 0,-2.58932c0,-1.767 0.00427,-2.3027 -0.00449,-3.29999c-0.00412,-0.4697 -0.01181,-1.37234 -0.08084,-2.24835c-0.10583,-1.34271 -0.19537,-1.80316 -0.34,-2.74399c-0.14603,-0.94986 -0.30624,-1.88879 -0.40802,-2.80801c-0.09756,-0.88113 -0.1376,-1.74158 -0.19199,-2.59198c-0.05493,-0.85892 -0.12756,-1.74323 -0.26001,-2.65869c-0.13651,-0.94348 -0.22672,-1.41772 -0.41916,-2.36331c-0.28262,-1.3887 -0.49603,-2.26825 -0.591,-2.70001c-0.18735,-0.85187 -0.38306,-1.70062 -0.53784,-3.01932c-0.10754,-0.91608 -0.1145,-1.39047 -0.16666,-2.35419c-0.05322,-0.98361 -0.05765,-1.48315 -0.2215,-2.97931c-0.05499,-0.50223 -0.21179,-1.51099 -0.29935,-2.02069c-0.17816,-1.03726 -0.28461,-1.56375 -0.57916,-3.20065c-0.10141,-0.5636 -0.30038,-1.71445 -0.39999,-2.29935c-0.10043,-0.58975 -0.30014,-1.78046 -0.5,-2.97916c-0.1001,-0.60034 -0.30063,-1.8089 -0.39999,-2.42133c-0.10065,-0.62024 -0.20459,-1.24997 -0.39999,-2.54935c-0.2048,-1.36197 -0.30136,-2.07144 -0.39868,-2.79465c-0.09836,-0.7308 -0.19254,-1.46381 -0.28049,-2.19302c-0.08667,-0.71878 -0.18286,-1.42023 -0.35419,-3.375c-0.05087,-0.58035 -0.11337,-1.64233 -0.13065,-2.13333c-0.03262,-0.92645 -0.03369,-1.81332 -0.03616,-3.15448c-0.00085,-0.46152 0.00232,-1.39395 -0.03586,-2.3175c-0.0369,-0.89261 -0.17175,-2.12091 -0.31665,-2.84702c-0.13477,-0.67529 -0.40063,-1.60574 -0.52585,-2.51416c-0.12201,-0.88522 -0.11923,-1.74301 -0.12149,-2.77866c-0.0015,-0.68552 0,-1.52017 0,-2.517l0,-0.91919l0,-0.96448" id="svg_19" stroke-width="2" stroke="#000" fill="none"/>
  <path t="43714,43884,43884,43884,43900,43900,43900,43900,43918,43918,43918,43918,43918,43918,43918,43937,43938,43938,43938,43938,43938,43938,43954,43954,43954,43954,43954,43954,43954,43972,43972,43972,43972,43972,43989,43989,43989,43989,43989,43989,44005,44005,44005,44005,44022,44022,44022,44022,44022,44022,44041,44041,44041,44041,44058,44058,44058,44073,44073,44091,44091,44107,44125,44153" d="m326,324c2.01883,0 2.85733,0.00015 3.48801,0c1.03381,-0.00024 2.17026,-0.02158 2.57449,-0.0625c0.85886,-0.08691 2.2749,-0.42542 2.78049,-0.60184c1.08063,-0.37704 1.63025,-0.63013 2.19867,-0.87732c1.16995,-0.50879 1.75641,-0.78787 2.95834,-1.29169c0.59775,-0.25058 1.1969,-0.48975 2.39999,-0.93066c0.59848,-0.21933 1.19879,-0.42892 2.39999,-0.83466c1.19879,-0.40494 1.80005,-0.59973 2.39603,-0.80133c1.17307,-0.39682 1.74323,-0.59525 2.29599,-0.80002c1.05539,-0.39096 2.01782,-0.77988 2.85468,-1.20132c0.77621,-0.3909 1.49454,-0.8327 2.22,-1.284c1.17798,-0.73282 1.60092,-0.99933 2.48398,-1.54001c0.44913,-0.27499 1.34476,-0.82074 1.78134,-1.09067c1.22751,-0.75897 1.95819,-1.23416 2.668,-1.66315c0.70096,-0.42365 1.83133,-1.02502 2.24268,-1.22086c0.85855,-0.40875 1.758,-0.79849 2.20667,-1c0.884,-0.39703 2.11331,-0.98935 2.83182,-1.39548c0.66183,-0.37408 1.24194,-0.76538 2.29733,-1.383c0.6788,-0.39725 1.32098,-0.7092 2.32019,-1.22153c0.76843,-0.39401 1.5798,-0.89981 2.19064,-1.36398l0.88983,-0.436l0.54617,-0.57468l0.67917,-0.478" id="svg_20" stroke-width="2" stroke="#000" fill="none"/>
  <path t="45219,45491,45491,45491,45491,45491,45508,45508,45508,45508,45508,45508,45508,45525,45525,45525,45525,45525,45525,45525,45525,45542,45542,45542,45542,45542,45542,45542,45559,45559,45559,45559,45559,45559,45578,45578,45578,45578,45578,45578,45594,45594,45594,45594,45594,45610,45610,45610,45610,45630,45630,45630,45630,45630,45646,45646,45646,45670,45670,45670,45670,45670,45683,45683,45683,45683,45683,45683,45701,45701,45701,45701,45717,45718,45718,45737,45737,45737,45751,45751,45770,45783,45801,45801,45821,46020,46395,46410,46428,46444,46463,46463,46521" d="m374,299c0,2.34399 0,3.16534 0,3.625c0,1.00732 -0.00159,1.55099 0.00015,3.31799c0.00061,0.62769 0.00125,1.27136 0.01053,1.92902c0.01901,1.34943 0.04041,2.03726 0.07465,2.73065c0.06906,1.39801 0.13129,2.09766 0.20132,2.79602c0.06995,0.69733 0.24963,2.08133 0.36002,2.76532c0.10968,0.67972 0.22278,1.35446 0.51999,2.66934c0.14624,0.64694 0.48376,1.90564 0.65869,2.51999c0.17242,0.60565 0.52463,1.78424 0.69064,2.36002c0.32251,1.11853 0.60123,2.20102 0.73135,2.72949c0.25504,1.03574 0.36578,1.54968 0.63666,2.55582c0.27051,1.0047 0.59698,2.00104 0.76868,2.49686c0.34134,0.98575 0.69852,1.94595 0.86331,2.41916c0.47363,1.35999 0.72971,2.22733 0.84802,2.64932c0.23096,0.82379 0.43515,1.63455 0.73599,2.836c0.20032,0.79993 0.39999,1.60001 0.60001,2.39999c0.30002,1.20001 0.50455,1.99728 0.68933,2.78934c0.18042,0.77338 0.35562,1.52109 0.48932,2.58936c0.12427,0.99283 0.10779,1.65134 0.28799,2.98798c0.09769,0.72449 0.26794,1.491 0.444,2.31601c0.09311,0.43631 0.39209,1.85016 0.58936,2.88266c0.10138,0.53073 0.19373,1.06522 0.39999,2.112c0.19412,0.98517 0.49298,2.23904 0.6955,2.90302c0.25977,0.85172 0.46747,1.37787 0.62048,2.58765c0.08597,0.67978 0.08197,1.73468 0.25067,2.69867c0.1442,0.82397 0.3656,1.52811 1.03336,2.448c0.45023,0.62021 1.36804,1.18979 1.6785,1.98535c0.33014,0.84604 0.14948,1.70041 0.12149,2.61465c-0.02859,0.93399 -0.52802,1.28534 0.29999,1.28534c0.90002,0 1.80002,0 2.70001,0l0.79999,0l0.90002,0" id="svg_21" stroke-width="2" stroke="#000" fill="none"/>
 </g>
 <g display="none">
  <title>muse_image</title>
  <image xlink:href="http://farm2.static.flickr.com/1061/847919322_0152ad3cef.jpg" id="muse" height="480" width="600" y="0" x="20"/>
 </g>
 <g display="none">
  <title>bbox</title>
  <rect stroke="#f00" fill="none" stroke-width="3" height="460.8" width="561.6" y="7.2" x="29.6" id="bbox"/>
 </g>
</svg>
