<svg width="640" height="480" xmlns="http://www.w3.org/2000/svg" xmlns:svg="http://www.w3.org/2000/svg" xmlns:xlink="http://www.w3.org/1999/xlink">
 <!-- Sketchy ANNOTATION
  ImageNet ID: n02503517_8901
  URL: http://farm1.static.flickr.com/141/339310178_02ad8c564e.jpg
  Image Width: 500
  Image Height: 375
  BBox X: 96
  BBox Y: 42
  BBox Width: 301
  BBox Height: 301
  Exposure: 2000ms
  Synset Label: elephant
  Synset ID: n02503517
  Worker Tag: African elephant with broken and missing tusks
  Sanity Check: 
   Context
   Saved
   Shading
  Comment: 
   {}
  Worker ID: A2HM35CWB7IIFM
  Assignment ID: 3J4Q2Z4UTY3M840821QZBZC8IGYQWR
  HIT ID: 3M7OI89LVYOIX4DPGZ7Y4GTTPALC6Z
  Work Time: 104s
  Worker Score: 0.9286
 END ANNOTATION -->
 <g display="inline">
  <title>Layer 1</title>
  <path t="0,185,220,248,249,249,249,269,269,269,306,307,310,310,359,363,363,379,392,393,404,417,434,454,454,479,479,503,503,541,564,583,590,613,650,675,676,700,716,725,737,761,774,786,811,811,823,835,850,860,1206,1221,1236,1242,1243,1254,1267,1267,1283,1283,1291,1292,1292,1302,1302,1316,1316,1316,1333,1352,1352,1352,1376,1413,1438,1870,1895,1923,1944,1980,1994,1994,1994,2008,2008,2023,2023,2023,2040,2040,2041,2044,2045,2066,2067,2092,2103,2127,2127,2153,2177,2190,2201,2216,2217,2226,2226,2226,2238,2238,2251,2251,2251,2267,2276,2276,2314,2315" d="m257,227.89999c0,1.8 0,2.5625 0,3.5c0,0.867 0,1.54167 0,2.61867c0,1.05951 0,1.71518 0,2.59868c0,1.13983 0,1.89732 0,2.76666c0,0.86333 0,1.89067 0,2.83733c0,0.67867 0,1.65717 0,2.67867c0,0.8 0,1.70001 0,2.60001c0,0.81067 0,1.7215 0,2.61067c0,0.98917 0,1.76849 0,2.76782c0,0.82018 -0.00272,1.64154 0.42532,2.42151c0.45096,0.82173 1.06384,1.41151 1.54935,2.036c0.57996,0.74597 1.09302,1.50696 1.50449,2.064c0.60489,0.81888 0.96744,1.5538 1.54617,2.07468c0.63788,0.5741 1.45734,1.03281 1.88934,1.71066c0.49377,0.77481 0.32031,1.67236 0.73267,2.41467c0.45795,0.8244 1.16156,1.20773 1.742,1.73599c0.68546,0.62384 0.96652,1.5354 1.91064,1.564c0.8996,0.02725 1.84167,0.16733 2.5,-0.08533c0.91241,-0.35019 1.2941,-1.23953 1.70001,-1.91467c0.59155,-0.98389 1.01022,-1.51044 1.66666,-2.16666c0.65887,-0.65866 1.18323,-1.23892 2.23334,-1.66534c0.5773,-0.23444 1.6257,-0.46408 2.38934,-1.01865c0.57416,-0.41696 1.47232,-0.99573 2.37732,-1.31601c0.67087,-0.23743 1.3436,-0.64304 2.19736,-1.22266c0.73114,-0.49637 1.90988,-0.15744 2.5145,-0.83218c0.59183,-0.66052 0.45853,-1.92737 -0.04517,-2.61182c-0.48071,-0.65321 -0.97913,-1.34213 -1.26935,-2.00269c-0.34113,-0.77641 -0.81802,-1.54323 -1.12799,-2.39999c-0.32962,-0.91106 -0.33914,-1.72462 -0.49734,-2.53867c-0.20853,-1.07298 -0.64108,-1.76578 -1.08798,-2.37866c-0.60394,-0.8282 -0.86533,-1.61137 -1.20334,-2.49934c-0.26843,-0.70522 -0.53009,-1.71895 -0.64868,-2.54733c-0.13132,-0.91714 -0.84451,-1.56685 -0.98798,-2.39999c-0.15274,-0.88701 -0.01068,-1.8 -0.01068,-2.7045c0,-0.86217 0,-1.71634 0,-2.69551c0,-0.79999 0,-1.59999 0,-2.60449c0,-0.85266 0,-1.81667 0,-2.61017c0,-0.7755 0,-1.81467 0,-2.78534l0,-0.75716l0,-0.89551l0,-0.86333" id="svg_1" stroke-width="2" stroke="#000" fill="none"/>
  <path t="4642,4750,4762,4763,4776,4777,4789,4800,4801,4801,4818,4819,4819,4819,4824,4824,4824,4824,4824,4824,4835,4836,4836,4836,4836,4836,4836,4836,4851,4851,4851,4851,4852,4867,4868,4868,4868,4868,4873,4873,4873,4873,4884,4885,4885,4885,4901,4901,4901,4902,4902,4910,4910,4910,4910,4911,4911,4911,4922,4922,4922,4922,4922,4922,4923,4923,4923,4934,4934,4934,4934,4935,4935,4935,4949,4950,4950,4950,4959,4959,4959,4959,4970,4971,4971,4983,4983,4983,4999,5000,5000,5000,5008,5008,5008,5008,5020,5020,5021,5021,5021,5021,5032,5033,5033,5033,5033,5050,5050,5050,5050,5050,5058,5059,5059,5069,5069,5069,5083,5083,5100,5100,5100,5106,5106,5118,5133,5134,5134,5149,5149,5149,5155,5155,5155,5167,5167,5167,5168,5182,5183,5183,5183,5183,5183,5192,5193,5193,5193,5193,5193,5205,5206,5206,5206,5206,5206,5216,5217,5217,5217,5217,5217,5232,5232,5233,5233,5233,5242,5242,5243,5243,5253,5253,5253,5266,5266,5284,5284,5292,5292,5303,5303,5303,5316,5316,5316,5334,5334,5340,5341,5341,5352,5352,5352,5366,5366,5366,5383,5383,5383,5383,5389,5390,5390,5401,5402,5402,5415,5416,5416,5416,5428,5429,5438,5438,5450,5450,5450,5466,5476,5476,5487,5487,5500,5516,5516,5525,5525,5525" d="m279,81.9c-0.05716,-1.75716 -0.31961,-2.67276 -0.7045,-3.34734c-0.45267,-0.79336 -1.06427,-1.48479 -1.70618,-2.05267c-0.72287,-0.6395 -1.43915,-1.00512 -2.05099,-1.35716c-0.96539,-0.55547 -1.79617,-1.08779 -2.457,-1.4175c-0.72812,-0.36328 -1.57544,-0.67959 -2.53867,-0.94c-0.51575,-0.13943 -1.62537,-0.36797 -2.21066,-0.47466c-0.60202,-0.10975 -2.4985,-0.41159 -3.15302,-0.5105c-0.66016,-0.09977 -1.32233,-0.19814 -1.98297,-0.28951c-1.298,-0.17951 -1.92834,-0.25961 -2.54135,-0.32533c-1.68845,-0.18102 -2.19919,-0.19559 -3.14667,-0.27067c-0.87654,-0.06946 -1.71896,-0.12491 -2.90799,-0.4575c-0.81221,-0.22719 -1.60027,-0.57736 -2,-0.7425c-0.80054,-0.33072 -1.99623,-0.80428 -2.7955,-1.0575c-0.7803,-0.24722 -1.54929,-0.44576 -2.63783,-0.75716c-0.68393,-0.19566 -1.66571,-0.50317 -2.31934,-0.7c-1.01254,-0.30492 -1.73465,-0.508 -2.51534,-0.7c-0.84857,-0.20871 -1.78754,-0.4096 -2.832,-0.6c-1.15544,-0.21063 -1.77576,-0.30162 -2.41867,-0.4c-0.6644,-0.10167 -1.34906,-0.20196 -2.052,-0.3c-2.19514,-0.30614 -2.95047,-0.40025 -3.71199,-0.5c-0.76547,-0.10026 -1.53204,-0.19968 -2.29651,-0.3c-0.75954,-0.09968 -1.51122,-0.19846 -2.2515,-0.3c-1.43642,-0.19702 -2.12595,-0.29908 -2.79466,-0.39866c-1.27089,-0.18925 -1.87022,-0.28243 -2.44534,-0.36533c-1.07014,-0.15426 -2.46455,-0.32002 -3.26233,-0.38334c-0.72496,-0.05753 -1.41602,-0.06623 -2.78816,-0.274c-0.73044,-0.1106 -1.4563,-0.28716 -2.16901,-0.426c-1.26414,-0.24627 -2.048,-0.33077 -2.758,-0.34816c-0.97305,-0.02384 -1.78783,-0.0045 -2.65634,-0.0045c-1.19566,0 -1.79999,0 -2.73149,0c-0.64934,0 -2.05212,-0.0058 -2.82133,0.01067c-0.82553,0.01767 -1.26369,0.0213 -2.67599,0.156c-1.03659,0.09887 -1.5721,0.18528 -2.11734,0.25867c-1.09886,0.14789 -1.6412,0.24735 -3.216,0.408c-0.96254,0.09819 -1.42352,0.1134 -2.3125,0.16667c-0.86902,0.05207 -2.18906,0.15519 -3.10216,0.28533c-0.46321,0.06602 -1.38095,0.2176 -2.25166,0.41917c-1.17282,0.2715 -1.82336,0.46464 -2.60451,0.7955c-1.08127,0.45798 -1.67719,0.76607 -2.40533,1.2c-0.93562,0.55758 -1.44502,1.04459 -2.42517,1.5c-0.71742,0.33334 -1.49586,0.54297 -2.41766,1.0955c-0.636,0.38123 -1.50726,0.72121 -2.35716,1.14716c-0.73869,0.37022 -1.20372,0.79407 -2.2905,1.224c-0.90445,0.3578 -1.61839,0.3326 -2.56801,0.904c-0.66681,0.40123 -1.27141,1.04787 -2.02049,1.6295c-0.53558,0.41586 -1.45918,1.03837 -1.797,1.257c-1.10915,0.71784 -1.95172,1.22755 -2.39101,1.5045c-0.91356,0.57596 -1.38745,0.86794 -2.3075,1.52499c-0.92838,0.66301 -1.37671,1.01705 -2.21651,1.775c-0.41689,0.37626 -1.19888,1.172 -1.54733,1.6c-1.03246,1.26817 -1.29276,1.75027 -1.80901,2.691c-0.25691,0.46814 -0.71991,1.42429 -0.95799,1.89467c-0.70502,1.39291 -0.96312,1.83743 -1.5045,2.6955c-0.26773,0.42433 -0.8286,1.24213 -1.36333,2.05584c-0.52382,0.7971 -1.00449,1.59672 -1.44801,2.39066c-0.431,0.77152 -0.82108,1.53313 -1.43582,2.589c-0.38718,0.66502 -0.78268,1.27792 -1.14301,1.85999c-0.64163,1.0365 -1.02834,1.72198 -1.45583,2.56033c-0.40686,0.79788 -0.84137,1.58051 -1.08,2.60117c-0.17957,0.76801 -0.24684,1.65705 -0.64217,2.30016c-0.52644,0.85641 -0.99704,1.53365 -1.27917,2.18667c-0.42598,0.98598 -0.71335,1.80424 -0.91466,2.62933c-0.24141,0.98947 -0.28,1.87328 -0.28534,2.88416c-0.00322,0.6105 0,1.48517 0,2.48517c0,0.8355 0,1.716 0,2.61467c0,0.89999 0,1.8 0,2.7c0,0.9 0,1.8 0,2.4c0,1.2 0,2.1 0,2.7c0,1.2 0,2.1 0,2.7c0,1.19999 0,2.0955 0,2.964c0,0.55066 -0.05493,1.78461 0.05716,2.6315c0.10774,0.81403 0.45679,1.60782 0.94284,2.60449c0.2914,0.59752 0.62193,1.34987 0.97467,2.36401c0.2934,0.84354 0.86899,1.49567 1.32083,2.28867c0.38449,0.6748 0.66469,1.59375 0.7045,2.51399c0.03693,0.85362 0.16667,1.83333 0.436,2.644l0.26849,0.6465" id="svg_2" stroke-width="2" stroke="#000" fill="none"/>
  <path t="6059,6236,6237,6240,6241,6241,6253,6253,6253,6253,6266,6266,6266,6267,6267,6277,6277,6277,6277,6277,6277,6277,6287,6287,6287,6287,6287,6287,6287,6287,6300,6300,6300,6300,6300,6300,6300,6300,6300,6316,6316,6316,6316,6316,6316,6316,6316,6316,6325,6325,6325,6326,6326,6326,6326,6326,6326,6337,6337,6337,6337,6337,6338,6338,6338,6338,6349,6349,6349,6349,6350,6350,6350,6367,6367,6368,6375,6375,6386,6386,6399,6416,6416,6417,6423,6423,6423,6435,6435,6436,6436,6449,6450,6450,6450,6450,6466,6466,6466,6466,6466,6466,6473,6473,6474,6474,6474,6484,6484,6485,6485,6501,6501,6510,6510,6510,6521,6521,6534,6534,6549,6549,6559,6559,6559,6571,6571,6583,6584,6600,6600,6609,6609,6632,6651,6651,6681,6699,6744,6756,6768,6868,6889,6894,6908,6917,6933,6934,6941,6941,6952,6952,6967,6967,6967,6984,6984,6984,6984,6989,6990,6990,6990,6990,6990,7002,7002,7002,7002,7003,7003,7003,7016,7016,7017,7017,7017,7017,7017,7018,7018,7033,7033,7033,7034,7034,7034,7034,7034,7039,7040,7040,7040,7040,7050,7050,7051,7051,7051,7065,7066,7066,7082,7083,7083,7088,7088,7088,7100,7100,7117,7118,7118,7125,7125,7126,7137,7137,7138,7149,7149,7150,7166,7166,7166,7175,7175,7186,7186,7200,7216,7216,7217,7223,7235,7236,7250,7250,7266,7266,7266,7273,7274,7284,7285,7285,7300,7334,7334" d="m147,149.89999c1.39999,1.83601 1.6655,2.42274 2.20399,3.40001c0.33731,0.61215 0.80981,1.25562 1.85068,2.00133c0.61938,0.44376 1.34962,0.82158 2.064,1.28401c0.72331,0.46822 1.40285,0.99496 2.06667,1.55066c0.68033,0.56952 1.37225,1.18063 2.14799,1.76399c0.82516,0.62053 1.28545,0.90721 2.20834,1.5625c0.48199,0.34224 0.97842,0.69518 1.461,1.09351c1.53365,1.26588 2.0034,1.79573 2.49283,2.32451c0.50151,0.54182 0.99124,1.11761 1.46851,1.7235c0.48663,0.61777 0.97412,1.2551 1.86932,2.62933c0.45746,0.70224 0.88841,1.43674 1.31401,2.19c0.43318,0.76671 0.85594,1.55829 1.278,2.37c0.43068,0.82826 0.85985,1.6794 1.74133,3.44c0.45512,0.90903 0.91719,1.83408 1.3815,2.772c0.46768,0.94473 0.93346,1.89346 1.39049,2.84399c0.45396,0.94415 0.90524,1.87669 1.72801,3.71733c0.39656,0.88716 0.76514,1.75844 1.1145,2.61c0.33989,0.82849 0.65913,1.63892 0.96149,2.43001c0.2939,0.76895 0.57387,1.51836 1.09067,2.95999c0.24701,0.68906 0.48105,1.35786 0.7005,2.00551c0.21112,0.62305 0.40744,1.2225 0.58351,1.79849c0.16743,0.54774 0.32962,1.06613 0.54933,2.02933c0.09891,0.43364 0.16835,0.84322 0.21899,1.2285c0.0477,0.36284 0.09056,0.70844 0.11166,1.66751c0.02646,1.20238 -0.03053,1.79686 0.05983,2.64684c0.11082,1.04257 0.40477,1.95042 0.94284,2.7905c0.43373,0.67719 0.97141,1.46974 1,2.33333c0.02896,0.87453 -0.01099,1.52008 0.00133,2.51868c0.0103,0.83566 0.04883,1.72203 0.22017,2.61499c0.17821,0.92871 0.39516,1.57007 0.57983,2.27034c0.30853,1.16991 0.50478,2.04616 0.67784,2.99182c0.09038,0.49387 0.25409,1.52364 0.35416,2.60417c0.10321,1.11438 0.1161,1.68166 0.15201,2.248c0.07126,1.12431 0.06244,1.68556 0.34799,3.252c0.09007,0.49411 0.35707,1.42181 0.6875,2.27083c0.31277,0.80368 0.82336,1.89148 1.0925,2.57584c0.25017,0.63609 0.5737,1.51495 0.76534,2.56517c0.16313,0.89404 0.23671,1.94081 0.483,2.517c0.33316,0.77943 1.17056,1.4624 1.77701,2.02983c0.67998,0.63623 0.75294,1.64885 1.30432,2.35316c0.48108,0.61453 1.55701,1.0215 2.15701,1.3215c0.79999,0.40001 1.58658,0.82837 2.37917,1.17917c0.98434,0.43567 1.80733,0.58066 2.50482,1.08884c0.72964,0.5316 1.52293,1.12712 2.2115,1.48016c0.82411,0.42253 1.0681,1.30226 1.32983,2.0905c0.28186,0.84886 0.85358,1.57336 1.58534,1.85066c0.89253,0.33823 1.3783,0.85448 2.19066,1.00934c0.88448,0.16859 1.87283,-0.43269 2.14151,-1.29866c0.26726,-0.8614 0.22452,-1.69954 0.66783,-2.336c0.59023,-0.84738 0.93608,-1.57436 1.4895,-2.34267c0.49084,-0.68144 1.21404,-1.35056 1.74649,-1.85735c0.60664,-0.57741 1.31177,-1.175 2.11501,-1.76849c0.57422,-0.42427 1.20427,-0.84665 2.205,-1.56216c0.72311,-0.51701 1.10168,-0.79086 1.875,-1.39584c0.82724,-0.64717 1.25523,-0.99782 2.125,-1.77083c0.92976,-0.82634 1.39299,-1.28293 1.86932,-1.74933c0.4874,-0.47723 0.97951,-0.97002 1.46851,-1.48351c1.51059,-1.58626 1.99788,-2.15309 2.49417,-2.71916c0.49939,-0.5696 0.99336,-1.14841 1.4805,-1.7355c0.48755,-0.58759 0.96817,-1.18013 1.4355,-1.7805c0.92764,-1.19173 1.36552,-1.7968 1.79866,-2.39467c0.42683,-0.58917 0.83781,-1.17355 1.64,-2.29599c0.38396,-0.53725 0.73657,-1.07025 1.82516,-2.44366c0.32918,-0.4153 0.98421,-1.16817 1.30067,-1.52267c0.61382,-0.68759 1.52623,-1.70384 2.11816,-2.423c0.29639,-0.36009 0.8602,-1.07762 1.38834,-1.75166c0.67998,-0.86781 1.34444,-1.67783 1.89699,-2.24834c0.59361,-0.6129 1.13794,-1.13972 1.71867,-1.71999c0.79834,-0.79767 1.37689,-1.40327 1.99867,-1.91335c0.77293,-0.63406 1.61934,-1.04861 2.23332,-1.65199c0.61296,-0.60236 1.08023,-1.43233 1.93733,-1.948c0.73077,-0.43967 1.33763,-0.58293 2.52917,-0.98534c0.59531,-0.20105 1.47234,-0.47881 2.53349,-0.90001c0.71983,-0.28572 1.38412,-0.61906 2.33333,-1c0.77539,-0.31119 1.56198,-0.60139 2.5,-0.83333c0.80518,-0.1991 1.8689,-0.36209 2.47202,-0.77733c0.84247,-0.58002 0.99594,-1.57004 1.29733,-2.21468c0.33093,-0.70778 1.09277,-1.48598 1.39734,-2.34132c0.28378,-0.79698 0.09839,-1.8197 0.22382,-2.64317c0.14832,-0.97372 0.42316,-1.70702 0.74417,-2.42216c0.444,-0.98906 0.95337,-1.54692 1.39734,-2.536c0.32101,-0.71516 0.51599,-1.464 0.74866,-2.42216l0.21933,-0.9765l0.26935,-0.64799" id="svg_3" stroke-width="2" stroke="#000" fill="none"/>
  <path t="10696,10892,10893,10893,10908,10908,10908,10908,10908,10918,10918,10918,10918,10918,10935,10935,10935,10935,10935,10941,10941,10941,10941,10941,10952,10952,10952,10952,10953,10965,10965,10965,10965,10966,10983,10983,10984,10984,10990,10990,10990,11002,11002,11002,11015,11015,11032,11032,11039,11039,11039,11050,11051,11065,11065,11065,11082,11082,11083,11083,11083,11088,11088,11088,11088,11088,11100,11101,11101,11101,11101,11101,11115,11115,11115,11115,11125,11125,11126,11137,11138,11148,11165,11165,11165,11175,11175,11175,11186,11186,11186,11199,11199,11199,11199,11199,11215,11215,11215,11215,11215,11216,11224,11225,11225,11225,11236,11236,11236,11236,11248,11248,11248,11265,11265,11265,11272,11273,11273,11273,11285,11285,11285,11286,11298,11298,11298,11315,11316,11316,11322,11322,11323,11334,11334,11349,11349,11359,11359,11371,11371,11383,11383,11398,11399,11408,11409,11419,11420" d="m372,79.9c1.48532,-2.68533 1.83286,-3.23806 2.40451,-4.1045c0.59225,-0.89765 0.99854,-1.49703 1.40616,-2.11684c0.42712,-0.64948 0.87906,-1.34657 1.61066,-2.52133c0.26425,-0.42434 0.80392,-1.30805 1.07867,-1.75733c0.54718,-0.89477 1.33054,-2.16843 1.57883,-2.557c0.46774,-0.73204 0.91769,-1.42091 1.431,-2.034c0.78738,-0.94046 1.45129,-1.51742 2.15152,-2.09833c0.35541,-0.29484 1.08344,-0.86324 2.172,-1.644c0.67963,-0.48746 1.34415,-0.94339 2.02798,-1.356c0.70023,-0.4225 1.87933,-1.01489 2.30667,-1.20933c0.8786,-0.39975 1.78012,-0.76842 2.22665,-0.94417c1.26859,-0.49929 2.02966,-0.78563 2.73334,-1.0105c0.95663,-0.30571 1.87006,-0.49661 2.76752,-0.594c0.86691,-0.09407 1.94547,-0.19239 2.64734,-0.40533c0.86328,-0.26191 1.85474,-0.59502 2.65717,-0.63667c0.99872,-0.05185 1.79999,-0.01067 2.79999,-0.01067c0.79999,0 1.60001,0 2.60449,0c0.6315,0 1.81717,0 2.64218,0c0.60001,0 1.92001,0.00375 2.63998,-0.00134c0.76004,-0.00537 1.56125,-0.01667 2.39999,-0.084c1.33743,-0.10736 1.79898,-0.19655 2.74936,-0.34c0.97501,-0.14716 1.46555,-0.24716 2.96399,-0.408c0.49902,-0.05356 1.49527,-0.11735 2.47916,-0.14584c0.48474,-0.01403 1.43552,-0.02016 2.79901,-0.02083c0.85565,-0.00042 1.65933,0 2.40298,0c0.9855,0 1.8045,0 2.70984,0c1.00769,0 1.77301,0 2.72501,0c1.05066,0 1.73602,-0.03508 2.57068,0.08533c1.00674,0.14525 1.82043,0.41561 2.62933,0.716c1.0108,0.37537 1.70667,0.71578 2.45334,1.084c0.87598,0.43198 1.55124,0.77293 2.29315,1.15633c0.8056,0.41631 1.22989,0.63705 2.55865,1.3795c0.46307,0.25874 1.39267,0.79501 1.858,1.058c0.90936,0.51394 1.33813,0.77841 2.57785,1.378c0.72122,0.34882 1.72766,0.74404 2.34033,1.0255c0.91202,0.41899 1.80624,0.94767 2.40265,1.328c0.60367,0.38497 1.51398,0.9689 2.36801,1.58934c0.53333,0.38745 1.38751,1.17331 1.75601,2.01067c0.27695,0.6293 0.72864,1.61958 1.13849,2.1465c0.44604,0.57346 1.21521,1.41493 1.79468,2.34267c0.36151,0.57879 0.73355,1.47647 1.02548,2.01483c0.55679,1.02678 1.14725,1.66376 1.63333,2.36933c0.4938,0.71675 0.8519,1.53978 1.1795,2.36333c0.40936,1.02908 0.66202,1.72992 1.10449,2.466c0.45755,0.76118 1.03235,1.35069 1.5,2.14383c0.43054,0.73019 0.92807,1.72996 1.17917,2.34283c0.40219,0.98167 0.3508,1.82664 0.6875,2.83334c0.23642,0.70687 0.66983,1.49633 0.85867,2.34133c0.21298,0.95307 0.67917,1.578 1.17334,2.312l0.36533,0.76" id="svg_4" stroke-width="2" stroke="#000" fill="none"/>
  <path t="12028,12185,12185,12197,12210,12210,12226,12226,12226,12226,12238,12238,12238,12238,12238,12238,12250,12250,12250,12250,12250,12250,12250,12258,12258,12258,12258,12258,12270,12270,12270,12270,12283,12283,12283,12283,12299,12299,12299,12299,12307,12307,12307,12307,12318,12318,12318,12333,12333,12348,12349,12356,12356,12356,12368,12368,12368,12368,12383,12383,12383,12398,12398,12398,12406,12406,12406,12417,12432,12433,12433,12448,12449,12449,12454,12454,12466,12483,12483,12483,12492,12492,12492,12492,12503,12504,12504,12504,12504,12515,12515,12515,12515,12515,12531,12532,12532,12532,12532,12541,12541,12541,12541,12552,12553,12566,12566,12584,12584,12590,12590,12602,12602,12615,12615,12615,12633,12633,12633,12633,12638,12638,12639,12639,12639,12639,12650,12651,12651,12651,12651,12665,12666,12666,12666,12676,12676,12676,12688,12688,12701,12716,12717,12726,12726,12737,12762,12762,12776,12786,12787,12800,12818,12818,12826,12827,12836,12836,12836,12861,12861,12877,12909,12923,12934,12949,13107,13125,13140,13140,13143,13144,13156,13156,13167,13167,13167,13168,13183,13184,13200,13200,13200,13205,13205,13206,13206,13206,13217,13217,13217,13217,13218,13232,13233,13233,13233,13233,13233,13249,13249,13250,13250,13250,13254,13254,13255,13255,13255,13255,13266,13267,13267,13267,13283,13283,13283,13300,13300,13300,13303,13304,13304,13304,13304,13316,13316,13316,13317,13317,13332,13332,13333,13333,13333,13333,13333,13341,13342,13342,13342,13342,13342,13343,13343,13343,13352,13352,13352,13352,13353,13353,13353,13366,13367,13367,13367,13367,13368,13383,13383,13383,13383,13390,13390,13390,13391,13401,13401,13402,13415,13416,13438,13438,13439,13451,13451,13465,13481" d="m475,96.9c0.42532,1.82533 0.71573,2.51608 1,3.5c0.28506,0.98674 0.54184,1.53296 1,2.66666c0.20969,0.51886 0.51416,1.41274 0.70001,2.10934c0.32486,1.21763 0.50186,2.17964 0.59998,2.6955c0.10196,0.53614 0.30118,1.66031 0.40002,2.242c0.30353,1.7859 0.40097,2.38598 0.49866,2.98383c0.19296,1.18096 0.28387,1.76051 0.36533,2.33067c0.1572,1.10042 0.27917,2.13787 0.35199,3.10133c0.06787,0.89802 0.09204,1.75076 0.16803,2.568c0.11203,1.20514 0.26138,2.00072 0.43683,2.78183c0.17212,0.76635 0.47467,1.85551 0.67917,2.5355c0.19568,0.65064 0.5,1.58083 0.79999,2.48533c0.29999,0.90451 0.50958,1.51791 0.79999,2.48534c0.31009,1.03299 0.505,1.76506 0.67917,2.51466c0.17313,0.74521 0.38248,1.83066 0.46368,2.83385c0.07138,0.88184 0.05716,1.83282 0.05716,2.64532c0,1.00751 0,1.7675 0,2.6875c0,0.7905 0,1.644 0,2.83333c0,0.60001 0,1.5 0,2.40001c0,0.89999 0,1.8 0,2.7c0,0.89999 0,1.7955 0,2.664c0,1.06934 0.00598,1.77435 0,2.74933c-0.00534,0.87206 -0.16312,1.821 -0.35266,2.49651c-0.21793,0.77666 -0.4902,1.82211 -0.62201,2.75417c-0.11786,0.83351 -0.31699,1.63181 -0.60001,2.39999c-0.34949,0.94856 -0.40643,2.00322 -0.436,2.69334c-0.02838,0.66252 -0.20346,1.78719 -0.3465,2.457c-0.15567,0.72908 -0.3465,1.49487 -0.64282,2.68565c-0.19946,0.80148 -0.40268,1.61003 -0.60001,2.436c-0.20276,0.84868 -0.50082,2.18515 -0.60001,2.64801c-0.20166,0.94098 -0.3989,1.89088 -0.5,2.36333c-0.29675,1.38669 -0.49527,2.26715 -0.69998,3.106c-0.1955,0.80112 -0.38956,1.56299 -0.70001,2.625c-0.19351,0.66193 -0.48758,1.57959 -0.69998,2.13499c-0.4726,1.23584 -0.77255,1.85727 -1.29984,2.66533c-0.51666,0.79182 -0.78696,1.68594 -0.95285,2.36867c-0.22433,0.92326 -0.78052,1.51703 -1.24731,2.30984c-0.43008,0.73044 -0.90134,1.7455 -1.22086,2.38449c-0.3645,0.729 -0.80276,1.60046 -1.13632,2.27718c-0.366,0.74252 -0.75732,1.54282 -1.34283,2.84782c-0.20331,0.45313 -0.59863,1.38472 -0.78934,1.85867c-0.38098,0.94681 -0.73682,1.88675 -1.04401,2.808c-0.29227,0.87643 -0.53296,1.71936 -0.75598,2.52c-0.21152,0.75938 -0.49527,1.83002 -0.71518,2.485c-0.30975,0.92258 -0.52969,1.50732 -1.17816,2.47632c-0.46133,0.68938 -1.06305,1.23865 -1.4075,2.28084c-0.29471,0.89168 -0.5361,1.77727 -1.10983,2.4045c-0.59015,0.64517 -1.03497,1.36469 -1.60001,2.13867c-0.5401,0.73985 -1.185,1.33012 -1.42532,2.01067c-0.29944,0.84795 -1.228,1.3907 -1.53867,2.03601c-0.43106,0.89539 -0.66489,1.77878 -1.01068,2.45065c-0.41922,0.81456 -0.41998,1.61064 -0.42532,2.78517c-0.0036,0.79349 0,1.569 0,2.60817c0,0.76801 0,1.67067 0,2.57066c0,0.89999 0.00067,1.8 0,2.7c-0.00067,0.89867 -0.48532,1.81911 -1.09982,1.25717c-0.64621,-0.59093 -0.76758,-1.68544 -0.98419,-2.44116c-0.22754,-0.79378 -0.66348,-1.58607 -1.2373,-2.53734c-0.32346,-0.53618 -0.85904,-1.34978 -1.19467,-1.89467c-0.61044,-0.99098 -0.87442,-1.73792 -1.65067,-2.51733c-0.61462,-0.61714 -1.34366,-0.88596 -2.16669,-1.16667c-0.97626,-0.33298 -1.73022,-0.51721 -2.53284,-0.75716c-0.42239,-0.12627 -1.75626,-0.56148 -2.69098,-0.89551c-0.47934,-0.1713 -1.45163,-0.52747 -1.94733,-0.69466c-1.49002,-0.50255 -1.99374,-0.63737 -2.99103,-0.90001c-0.98209,-0.25864 -1.47284,-0.36241 -2.41916,-0.63666c-0.92319,-0.26755 -1.80618,-0.58971 -2.66,-0.95201c-0.85565,-0.36308 -1.27356,-0.57838 -2.59198,-1.164c-0.91299,-0.40553 -1.37988,-0.59943 -2.3125,-0.97916c-0.45871,-0.18677 -1.34998,-0.53954 -2.57767,-0.9995c-0.72345,-0.27106 -1.40634,-0.46751 -2.25519,-0.90533c-1.03949,-0.53616 -1.67496,-1.13368 -2.14066,-1.46333c-0.94385,-0.66812 -1.78534,-1.0228 -2.358,-1.278c-1.19357,-0.53189 -1.79004,-0.86223 -2.41068,-1.20001c-0.64865,-0.35304 -1.33307,-0.73419 -2.52182,-1.15349c-0.86502,-0.3051 -1.82031,-0.53862 -2.31418,-0.68251c-1.03278,-0.30092 -2.11261,-0.66347 -2.66434,-0.88167c-1.14713,-0.45369 -1.72598,-0.72678 -2.31998,-0.99866c-0.60605,-0.2774 -1.21652,-0.57478 -3.125,-1.45834c-0.65347,-0.30254 -1.31702,-0.60074 -1.98602,-0.89999c-0.67233,-0.30075 -1.34747,-0.59962 -2.02197,-0.89999c-0.67282,-0.29962 -1.34451,-0.59309 -2.65869,-1.20001c-1.28177,-0.59195 -1.90103,-0.89435 -2.50934,-1.18933c-0.59537,-0.28871 -1.17545,-0.57307 -2.28531,-1.12532c-1.0394,-0.5172 -2.00134,-1.00002 -2.45767,-1.22818c-0.87268,-0.43634 -1.70532,-0.85268 -2.11166,-1.05583c-1.20248,-0.6012 -1.99609,-1.00108 -2.78183,-1.38049c-0.76169,-0.3678 -1.85132,-0.86125 -2.53418,-1.1355c-0.63736,-0.25597 -1.53363,-0.55928 -2.56516,-0.98534c-0.69162,-0.28566 -1.32373,-0.58679 -2.3215,-1.10133c-0.60416,-0.31155 -1.61441,-0.9482 -2.1955,-1.45134c-0.58347,-0.5052 -1.38284,-1.32582 -1.86285,-1.82649l-0.48898,-0.81633l-0.48868,-0.6685" id="svg_5" stroke-width="2" stroke="#000" fill="none"/>
  <path t="16052,16224,16235,16256,16256,16259,16259,16270,16270,16284,16284,16284,16299,16299,16307,16308,16319,16320,16332,16355,16368,16382,16399,16406,16430,16467,16517,16533,16541,16553,16565,16565" d="m257,229.89999c0.87851,-1.2215 0.82999,-2.14888 1.16666,-3c0.27795,-0.70264 0.7327,-1.48802 0.85867,-2.21066c0.17322,-0.99358 0.5556,-1.76591 0.80801,-2.78934c0.19412,-0.787 0.13538,-1.60062 0.17114,-2.59999c0.02869,-0.80122 0.28665,-1.79747 0.49551,-2.40001c0.34521,-0.99596 0.1655,-1.91493 0.72134,-2.75716c0.4801,-0.72743 0.61932,-1.54071 1.13132,-2.19017c0.48453,-0.61461 0.60791,-1.3812 1.14734,-2.05267c0.48761,-0.60699 1.2045,-1.05266 2,-1.5c0.7955,-0.44733 1.45184,-0.85266 2.06799,-1.41599l0.86401,-0.16801" id="svg_6" stroke-width="2" stroke="#000" fill="none"/>
  <path t="17897,18081,18081,18081,18094,18095,18106,18106,18123,18123,18140,18140,18143,18143,18143,18153,18153,18165,18165,18182,18182,18191,18192,18202,18215,18215,18233,18239,18239,18252,18265,18281,18300,18331,18338,18338,18350,18375,18387,18413,18413,18426,18426,18427,18441,18455,18455,18464,18464,18474,18475,18485,18485,18498,18516,18516,18522,18522,18535,18535,18548,18548,18566,18566,18572,18572,18572,18583,18583,18583,18584,18584,18599,18599,18599,18599,18600,18600,18608,18609,18609,18609,18609,18609,18620,18620,18620,18621,18633,18633,18633,18648,18648,18658,18658,18670,18681,18699,18699,18708,18719,18731" d="m270,163.89999c-0.00134,3.59868 0.02875,4.4845 -0.08533,5.31467c-0.13879,1.01006 -0.48608,1.64389 -0.74802,2.68533c-0.19559,0.77766 -0.34402,1.82809 -0.66666,2.5c-0.3916,0.81551 -0.49466,1.74663 -0.5,2.66667c-0.00455,0.78149 0,1.57201 0,2.69051c0,0.75749 0,1.8 0,2.54733c0,0.99417 0,1.75949 0,2.7115c0,0.76799 0,1.70934 0,2.71733c0,0.86217 0,1.6875 0,2.65067c0,0.86333 -0.09183,1.81848 0.42532,2.49066c0.4743,0.61649 0.44196,1.43585 0.57916,2.32533c0.14368,0.9314 0.84735,1.46861 0.99103,2.40001c0.13721,0.88948 -0.03757,1.83928 0.22598,2.62149c0.24289,0.72089 0.79303,1.67149 1.16785,2.46783c0.33853,0.71927 0.59265,1.58482 0.61066,2.532c0.01624,0.85318 -0.09149,1.81061 0.08533,2.56267c0.23221,0.98761 0.62711,1.5166 1.11334,2.51468c0.3714,0.76239 0.56238,1.77541 0.96799,2.60132c0.32901,0.66998 1.10587,1.33978 1.71869,1.8c0.73236,0.54997 1.52393,0.81711 2.35748,1.5045c0.4939,0.40729 1.04352,1.36397 1.39316,1.90617c0.65234,1.01167 1.20401,1.5965 1.57468,2.02533c0.798,0.92323 1.21979,1.43362 1.78934,2.34734c0.4231,0.67879 0.62833,1.06136 1.20001,2.381c0.21051,0.48592 0.60205,1.53224 0.79999,2.07733c0.40424,1.11314 0.59473,1.67891 1,2.79167c0.39355,1.08054 0.59421,1.60098 0.97916,2.60416c0.18423,0.48009 0.54028,1.38872 0.99951,2.61951c0.27148,0.72763 0.50256,1.40916 0.77399,2.034c0.53217,1.2251 0.90292,1.7957 1.38602,2.63701c0.53629,0.93394 0.72876,1.63402 1.08282,2.59315c0.25034,0.67816 1.07126,1.20831 1.65717,1.90034c0.60931,0.71967 0.76868,1.4785 1.14667,2.37849l0.39999,0.8l0.45334,0.7" id="svg_7" stroke-width="2" stroke="#000" fill="none"/>
  <path t="19511,19668,19669,19681,19681,19682,19704,19704,19704,19704,19704,19704,19707,19708,19708,19708,19708,19708,19723,19723,19724,19724,19724,19724,19730,19730,19730,19730,19730,19730,19731,19741,19741,19741,19741,19741,19742,19742,19742,19754,19754,19754,19754,19754,19754,19754,19754,19754,19765,19765,19765,19765,19765,19766,19766,19766,19766,19781,19781,19781,19781,19781,19781,19781,19781,19781,19791,19791,19791,19791,19791,19791,19802,19802,19803,19803,19803,19814,19814,19814,19831,19832,19832,19840,19840,19851,19851,19851,19851,19865,19865,19865,19865,19865,19865,19866,19881,19881,19881,19881,19881,19881,19882,19882,19882,19889,19889,19889,19889,19889,19889,19889,19890,19890,19901,19901,19901,19901,19902,19902,19902,19902,19914,19914,19915,19915,19915,19931,19932,19932,19932,19938,19938,19938,19939,19939,19950,19951,19965,19965,19981,19981,19987,20024,20024" d="m296,249.89999c1.39999,0.88268 1.82144,1.67969 2.20001,2.688c0.2121,0.56493 0.4216,1.18889 0.79999,2.64534c0.10608,0.40831 0.30444,1.28455 0.5,2.22916c0.10236,0.49435 0.30396,1.52478 0.5,2.60419c0.20279,1.11658 0.29883,1.68542 0.38934,2.25867c0.18134,1.14828 0.27817,1.71939 0.444,3.40799c0.05347,0.54459 0.11618,1.61414 0.15198,2.14133c0.07138,1.05099 0.07819,1.58508 0.34802,3.19202c0.09366,0.55774 0.22229,1.12271 0.53867,2.26932c0.16196,0.58701 0.34329,1.17664 0.73065,2.36533c0.39127,1.20068 0.59888,1.79865 0.79733,2.40268c0.40311,1.22699 0.60251,1.85773 0.80002,2.504c0.20255,0.66275 0.41006,1.34525 0.79999,2.79199c0.20566,0.76309 0.40237,1.55609 0.60901,2.37152c0.21201,0.83658 0.42859,1.69205 0.66299,2.56049c0.23822,0.88263 0.47379,1.78 1.06134,3.56799c0.29697,0.90372 0.62967,1.79846 0.9765,2.68649c0.34525,0.88397 0.70685,1.75281 1.0755,2.60553c0.3624,0.83826 0.72632,1.6546 1.448,3.20798c0.34213,0.73642 0.67874,1.44131 1.00049,2.11951c0.3089,0.65112 0.60574,1.27536 0.88351,1.8765c0.26581,0.57526 0.52518,1.12332 0.94931,2.17068c0.19748,0.48764 0.3649,0.9628 0.68268,1.86133c0.3009,0.8508 0.40372,1.2872 0.98401,2.47198c0.39944,0.81555 0.91208,1.58218 1.41599,2.328c0.24283,0.35938 1.11838,1.62247 1.43634,2.15768c0.40689,0.68494 0.91434,1.71432 1.21432,2.31433c0.39999,0.79999 0.91193,1.79898 1.20001,2.43597c0.41742,0.923 0.70776,1.73355 0.92084,2.34735c0.24002,0.69138 0.6478,1.91599 0.96448,2.87668c0.17294,0.52463 0.35709,1.078 0.72534,2.28c0.1973,0.64395 0.40085,1.3172 0.78934,2.75998c0.20541,0.76291 0.40207,1.55417 0.60001,2.367c0.20209,0.8298 0.40067,1.67453 0.60001,2.52899c0.20065,0.8602 0.39719,1.72336 0.79999,3.43735c0.19861,0.84515 0.3985,1.67902 0.60001,2.50049c0.19852,0.8092 0.39804,1.60416 0.60001,2.38351c0.19806,0.76431 0.3923,1.51282 0.79999,2.94934c0.19614,0.69107 0.39722,1.36044 0.59549,2.00998c0.19244,0.63043 0.38373,1.23999 0.56851,1.83002c0.35077,1.11996 0.67075,2.15961 0.952,3.12134c0.25995,0.88895 0.49759,1.71869 0.63666,2.10583c0.52496,1.46133 0.897,2.11774 1.26819,2.76614c0.37613,0.65704 0.987,1.66238 1.3765,2.38135c0.38919,0.71844 0.75278,1.41141 1.03198,2.064c0.50113,1.17123 0.6123,1.95221 1.00668,2.89066c0.24359,0.57962 0.76266,1.56268 1.12799,2.328l0.35068,0.95068l0.08533,0.88531l0,0.80002" id="svg_8" stroke-width="2" stroke="#000" fill="none"/>
  <path t="20581,20763,20774,20786,20787,20787,20799,20799,20799,20815,20815,20824,20824,20836,20848,20849,20873,20910,20948,20973,20997,21023,21037,21052,21071,21119,21119,21145,21158,21195,21208,21221,21281,21317,21379,21403,21454,21478,21479,21505,21520,21538,21551,21565,21575,21575,21599,21638,21654,21670,21674,21685,21711,21723,21735,21735,21747,21771,21796,21834,21834,21871,21882,21898,21919,21932,21970,21970,21981,22030,22047,22047,22055,22067,22083,22116,22153,22179,22179,22191,22191,22191,22203,22203,22216,22231,22232,22241,22241,22264,22264,22326,22338,22350,22350,22365,22376,22376,22388,22388,22399,22399,22399,22425,22449,22465,22480,22486,22487,22498,22514,22523,22536,22547,22565,22572,22583,22584,22597,22598,22614,22614,22615,22615,22621,22621,22621,22621,22621,22622,22633,22633,22634,22634,22634,22634,22647,22647,22648,22648,22648,22658,22658,22659,22670,22671,22683,22683,22698,22708,22709,22719,22719,22731,22732,22732,22748,22748,22748,22757,22757,22757,22757,22769,22769,22769,22781,22781,22781,22798,22798,22798,22805,22805" d="m337,371.89999c0.5,2.47919 0.97141,3.30783 1,4.33334c0.01886,0.67621 0,1.452 0,2.5c0,0.93066 0,1.56216 0,2.56665c0,0.80002 0,1.79984 0,2.76401c0,0.95068 0,1.836 0,2.63602c0,0.89999 0.0054,1.80002 0,2.69998c-0.00534,0.8894 -0.52066,1.48959 -1.39999,1.5c-0.89993,0.01065 -1.80002,0 -2.70001,0c-0.89999,0 -1.69998,0 -2.60001,0c-0.89999,0 -1.85971,-0.30991 -2.68933,0.01068c-0.79291,0.3064 -1.34372,0.79739 -2.21066,1.02533c-0.8558,0.22501 -1.35727,1.16098 -1.39999,2.064c-0.04251,0.89899 0,1.70001 0,2.60001c0,0.89999 -0.00223,1.79999 0,2.69998c0.00226,0.90002 0.30688,1.64682 0.716,2.40002c0.4332,0.79752 0.98849,1.25266 1.784,1.69998c0.7955,0.44733 1.30978,1.16385 2.02084,1.47919c0.89587,0.39734 1.69794,0.5213 2.47916,0.85416c0.75153,0.32019 1.42892,0.53735 2.2215,1.04517c0.74673,0.47845 1.7785,0.12149 2.57849,0.12149c0.90002,0 1.80002,0 2.70001,0c0.89999,0 1.85007,0.13168 2.60001,-0.22131c0.77551,-0.36505 1.28476,-1.09006 2.06665,-1.612c0.70685,-0.47183 1.63333,-0.16669 2.53336,-0.16669c0.89999,0 1.79999,0 2.69998,0c0.90451,0 1.76666,0 2.62085,0c0.97916,0 1.77914,-0.0018 2.57916,0c0.99548,0.00226 1.77045,-0.01682 2.64734,0.35266c0.95599,0.4028 1.75247,0.63693 2.586,0.64734c0.91925,0.01147 1.81937,0.0065 2.51398,0c1.11118,-0.01041 1.64224,-0.54147 1.65268,-1.48398c0.00763,-0.69064 0,-1.75885 0,-2.61618c0,-0.78516 0,-1.74649 0,-2.58649c0,-0.996 0,-1.79251 0,-2.54401c0,-1.09735 0.18643,-1.98715 -0.00134,-2.96802c-0.14508,-0.75772 -1.04547,-1.10818 -1.79865,-1.51733c-0.79752,-0.43323 -1.25269,-0.98849 -1.70001,-1.784c-0.44733,-0.7955 -0.90329,-1.49756 -1.52533,-2.07465c-0.60153,-0.55807 -0.90851,-1.30463 -1.05869,-2.02802c-0.21173,-1.01981 -0.55688,-1.65536 -0.74933,-2.73065c-0.17477,-0.97656 -0.15784,-1.72983 -0.21933,-2.53284c-0.0997,-1.30167 -0.15845,-1.75708 -0.3045,-2.6955c-0.1528,-0.98175 -0.25317,-1.48508 -0.44415,-2.52502c-0.19833,-1.08005 -0.30286,-1.63373 -0.49417,-2.76147c-0.09604,-0.56616 -0.27448,-1.6897 -0.34732,-2.242c-0.20761,-1.57434 -0.24792,-2.06573 -0.30002,-2.98651c-0.04749,-0.83945 -0.0549,-1.60001 -0.05716,-2.88034c-0.00134,-0.771 0,-1.64032 0,-2.64301c0,-0.79999 0,-1.79865 0,-2.564c0,-0.95065 0,-1.836 0,-2.72131c0,-0.77634 0,-1.57635 0,-2.53601c0,-0.80399 0,-1.62601 0,-2.896c0,-0.70349 0,-1.452 0,-2.65201c0,-0.69199 0,-1.41599 0,-2.14801c0,-1.396 0,-2.03598 0,-2.92099c0,-1.04031 -0.00046,-1.96167 0,-2.64566c0.00067,-1 0.02084,-1.81601 0.08533,-2.63199l0.19867,-0.99869l0.29068,-0.87466" id="svg_9" stroke-width="2" stroke="#000" fill="none"/>
  <path t="23782,23926,23927,23927,23927,23927,23940,23940,23940,23941,23941,23941,23941,23941,23956,23956,23956,23956,23957,23957,23957,23966,23966,23966,23966,23966,23967,23967,23967,23976,23976,23976,23976,23976,23976,23976,23976,23977,23986,23986,23986,23987,23987,23987,23987,23987,23987,23999,23999,23999,23999,23999,23999,23999,23999,24000,24016,24016,24016,24016,24016,24016,24016,24016,24017,24024,24024,24024,24024,24025,24025,24025,24025,24025,24036,24036,24036,24036,24037,24037,24037,24037,24037,24048,24048,24048,24048,24049,24049,24065,24065,24065,24065,24074,24074,24074,24074,24074,24085,24085,24085,24085,24085,24086,24098,24098,24098,24098,24098,24098,24115,24116,24116,24116,24116,24122,24123,24123,24123,24134,24135,24135,24135,24148,24148,24165,24165,24172,24172,24172,24172,24184,24184,24185,24197,24197,24197,24214,24214,24214,24214,24221,24221,24221,24221,24221,24233,24233,24234,24234,24234,24247,24248,24248,24248,24258,24258,24258,24258,24270,24270,24281,24282,24299,24299,24343,24343" d="m356,333.89999c0.28534,-3.25998 0.35706,-3.68503 0.52084,-4.625c0.08975,-0.51498 0.2865,-1.63403 0.47916,-2.875c0.10303,-0.66367 0.20236,-1.35284 0.2955,-2.0625c0.19125,-1.45734 0.2717,-2.19714 0.34732,-2.93665c0.07504,-0.73389 0.19455,-2.16727 0.23569,-2.858c0.0401,-0.67331 0.07217,-1.33282 0.10065,-2.62201c0.01404,-0.63544 0.01859,-1.26901 0.02084,-3.1875c0.00076,-0.655 0,-1.32001 0,-1.995c0,-0.685 0,-1.38 0,-2.80002c0,-0.72498 0,-2.20499 0,-2.96048c0,-0.76852 0,-1.55301 0,-2.35651c0,-0.8255 0,-1.67599 0,-2.5545c0,-0.90948 0,-2.8335 0,-3.85266c0,-1.05417 0,-2.13834 0,-3.2475c0,-1.12918 0,-2.27335 0,-3.42752c0,-1.15915 0,-3.47247 0,-4.61716c0,-1.13266 0,-2.25134 0,-3.354c0,-1.08466 0,-2.14932 0,-3.19199c0,-1.01868 0,-2.97601 0,-3.91101c0,-0.905 0,-1.78 0,-2.625c0,-0.815 0,-1.60001 0,-2.35498c0,-0.72501 0,-2.08502 0,-2.72067c0,-0.60968 0,-1.19733 0,-1.767c0,-0.55566 0,-1.10135 0,-1.64102c0,-0.53766 0,-1.62299 0,-2.17731c0,-0.56033 0,-1.12268 0,-1.68301c0,-0.55432 0,-1.09866 0,-1.629c0,-0.51233 0,-1.46701 0,-1.9025c0,-0.40851 0,-0.793 0,-1.50201c0,-0.64899 0,-1.86282 0,-2.4715c0,-0.963 0,-1.66167 0,-2.834c0,-0.87132 0,-1.79866 0,-2.27834c0,-0.98132 0,-1.97867 0,-2.98c0,-1.00934 0,-1.5195 0,-2.55583c0,-0.52817 0,-2.164 0,-2.72549c0,-1.132 0,-1.6965 0,-2.25601c0,-1.092 0,-2.12799 0,-3.09065c0,-0.89868 0,-1.74934 0,-2.56801c0,-1.2025 0,-1.99817 0,-2.78183c0,-0.76367 0,-1.85417 0,-2.85918c0,-0.62 0,-1.47499 0,-2.7045c0,-0.6465 0,-1.65733 0,-2.478c0,-1.14583 0,-1.93633 0,-2.5c0,-0.88049 0.00946,-2.07942 -0.01068,-2.67917c-0.03024,-0.90068 -0.20276,-2.10178 -0.34198,-2.7c-0.21011,-0.90285 -0.50049,-2.09767 -0.56201,-2.70267c-0.09525,-0.93637 -0.08218,-1.61166 -0.08533,-2.73067c-0.00235,-0.836 -0.00241,-1.72826 -0.03601,-2.65199c-0.01697,-0.46667 -0.11633,-1.85004 -0.24799,-2.72934c-0.1275,-0.85152 -0.30618,-1.6721 -0.43201,-2.48399c-0.18561,-1.19785 -0.23065,-1.99689 -0.284,-2.7805c-0.052,-0.76372 -0.14841,-1.85757 -0.284,-2.53416c-0.19049,-0.95049 -0.43375,-1.51227 -0.63068,-2.80133c-0.10083,-0.65997 -0.0322,-1.68787 -0.09601,-2.47467c-0.08533,-1.05214 -0.51016,-1.68983 -1.18799,-2.41068l-0.51599,-0.59999" id="svg_10" stroke-width="2" stroke="#000" fill="none"/>
  <path t="27781,27926,27927,27939,27940,27940,27956,27956,27972,27972,27972,27975,27975,27975,27986,27987,27987,27998,27998,28015,28024,28024,28035,28059,28073,28073,28085,28098,28115,28115,28122,28133,28149,28168,28168,28168,28171,28171,28171,28171,28183,28183,28197,28198,28214,28214,28225,28225,28225,28233,28233,28246,28257,28269,28269,28281,28282,28297,28298,28307,28307,28307,28319,28319,28319,28330,28331,28347,28347,28356,28356,28356,28380,28380,28398,28398,28405,28417,28434,28434,28449,28449,28454,28455,28465,28466,28480,28481,28481,28490,28490,28491,28502,28503,28527,28552,28553,28576,28576,28603,28615,28632,28640,28651,28651,28675,28676,28704,28720" d="m270,83.9c1.29999,-2.6 1.69189,-3.40411 2.10016,-4.2c0.41254,-0.80424 0.73956,-1.43647 1.38516,-2.19733c0.50177,-0.59138 1.4978,-1.32175 2.11917,-1.49284c0.83606,-0.2302 1.82303,-0.3093 2.62085,-0.54583c0.82907,-0.2458 1.8584,-0.65226 2.53867,-0.964c0.8414,-0.3856 1.61868,-0.83424 2.39999,-1.164c0.93353,-0.394 1.87244,-0.26785 2.63599,-0.52133c0.77219,-0.25634 1.66406,-0.75851 2.40002,-1.2c0.67859,-0.40709 1.25735,-1.27583 2.09998,-1.662c0.76877,-0.35231 1.46686,-0.89852 2.30002,-1.042c0.88699,-0.15275 1.82132,-0.01067 2.73334,-0.01067c0.681,0 1.48798,0 2.66666,0c0.89551,0 1.47916,0 2.31467,0c1.22818,0 2.08084,0 3.08533,0c0.80002,0 1.80002,0 2.60001,0c1,0 1.79999,0 2.60001,0c0.99548,0 1.74283,0 2.76401,0c0.83731,0 1.80264,0 2.63599,0c0.83334,0 1.75266,0 2.66165,0c0.80002,0 1.75967,0 2.56369,0c0.82199,0 1.85333,0 2.77466,0c0.68399,0 1.68268,0 2.47916,0c1.1875,0 1.87018,0 2.85419,0c0.91733,0 1.66132,0 2.69733,0c0.7175,0 1.62201,0 2.48532,0c0.96317,0 1.8949,0.01903 2.80533,-0.00017c0.85388,-0.018 1.76117,-0.35015 2.43134,-0.64716c0.86993,-0.38555 1.65186,-0.35042 2.64868,-0.35267c0.83466,-0.00188 1.76532,0 2.55133,0c0.82199,0 1.88068,0 2.81134,0c0.83466,0 1.83148,0 2.57883,0c1.03183,0 1.97849,0 2.65717,0c0.97849,0 1.83316,-0.19628 2.70001,0.05717c0.87762,0.2566 1.59863,0.91415 2.5,0.94283c0.89969,0.02863 1.68533,0.08533 2.62534,0.436l0.69064,0.36533l0.72684,0.49417l0.85699,0.58317" id="svg_11" stroke-width="2" stroke="#000" fill="none"/>
  <path t="30610,30756,30756,30770,30770,30770,30782,30782,30800,30800,30805,30805,30805,30816,30816,30833,30833,30833,30849,30849,30854,30854,30854,30865,30865,30866,30866,30866,30883,30883,30883,30883,30883,30891,30891,30891,30903,30903,30915,30916,30991,30991,31027,31055,31055,31069,31082,31088,31101,31116,31125,31125,31137,31137,31149,31149,31165,31174,31175,31185,31185,31198,31215,31224" d="m358,218.89999c0.86133,-1.42133 1.59183,-1.91995 2.11465,-2.76799c0.42914,-0.69608 0.59073,-1.5192 1.18533,-2.41766c0.436,-0.65883 1.13034,-1.2193 1.58536,-1.785c0.62509,-0.77715 1.14825,-1.52167 1.54532,-2.34666c0.466,-0.96825 0.47394,-1.67839 0.73599,-2.68268c0.21057,-0.80699 0.65771,-1.49974 1.12885,-2.25183c0.44113,-0.70419 0.65439,-1.77127 0.7045,-2.3315c0.08853,-0.98959 0.21735,-2.16011 0.35266,-3.0265c0.07059,-0.45183 0.23279,-1.37392 0.36334,-2.3075c0.1279,-0.91458 0.21002,-1.79541 0.24799,-2.636c0.03613,-0.79959 0.03534,-1.56 0.03601,-2.95999c0.00031,-0.64 -0.01215,-1.52509 0.00015,-2.565c0.01041,-0.88019 0.26117,-1.88004 0.57452,-2.547c0.39291,-0.83632 0.37192,-1.76483 0.77798,-2.61751c0.38562,-0.80974 0.64667,-1.55716 0.64734,-2.45717c0.00067,-0.89999 0,-1.8 0,-2.7c0,-0.9045 -0.00006,-1.76666 0,-2.60001c0.00009,-0.97865 0.01965,-1.76585 0.35266,-2.65266c0.26526,-0.70641 0.56604,-1.7377 0.814,-2.51399c0.2731,-0.85498 0.66669,-1.66667 0.82886,-2.52884l0.00449,-0.9045l0.02084,-0.87917l0.6265,-0.5735" id="svg_12" stroke-width="2" stroke="#000" fill="none"/>
  <path t="35042,35162,35162,35175,35175,35190,35191,35206,35206,35214,35214,35215,35223,35234,35247,35264,35272,35272,35283,35284,35284,35298,35298,35298,35314,35314,35314,35321,35321,35321,35321,35333,35333,35346,35347,35364,35364,35369,35395,35395,35408,35432" d="m355,187.89999c-1,-1 -1.76617,-1.03105 -2.65717,-1.35266c-0.75562,-0.27275 -1.74042,-0.595 -2.54285,-0.63666c-0.99872,-0.05185 -1.79999,-0.01068 -2.79999,-0.01068c-0.78934,0 -1.51468,0 -2.58932,0c-0.81067,0 -1.71066,0 -2.612,0c-0.96533,0 -1.81952,0 -2.79868,0c-0.81067,0 -1.45715,0 -2.68533,0c-0.55066,0 -1.41916,0 -2.61465,0c-0.60001,0 -1.5,0 -2.70001,0c-0.59866,0 -1.47916,0 -2.31467,0c-1,0 -1.87466,0 -2.88516,0c-0.77933,0 -1.77866,0 -2.59885,0c-0.9585,0 -1.854,0.0045 -2.71732,0.08534l-0.84802,0.34l-0.836,0.492" id="svg_13" stroke-width="2" stroke="#000" fill="none"/>
  <path t="36875,37033,37033,37045,37045,37045,37057,37058,37058,37073,37073,37074,37074,37089,37090,37090,37090,37091,37095,37095,37095,37095,37095,37104,37104,37105,37105,37105,37118,37118,37118,37118,37130,37130,37147,37147,37154,37154,37166,37166,37180,37196,37203,37203,37214,37215,37215,37230,37230,37231,37241,37241,37252,37252,37252,37265,37265,37280,37290,37290,37301,37301,37313,37313,37332,37332" d="m353,228.89999c-0.009,-2.60449 -0.0423,-3.48479 -0.44284,-4.42133c-0.35645,-0.83337 -0.75516,-1.34569 -1.3905,-2.412c-0.42249,-0.70903 -0.77554,-1.40164 -1.33331,-2.33333c-0.31226,-0.52156 -0.85913,-1.34782 -1.35217,-1.8235c-0.76199,-0.73515 -1.44016,-1.06946 -2.52283,-1.489c-0.37589,-0.14566 -1.16995,-0.37985 -2.35852,-0.84216c-0.81073,-0.31534 -1.61752,-0.68637 -2.457,-1.026c-0.42661,-0.17259 -1.76093,-0.64215 -2.69098,-0.89551c-0.46506,-0.12668 -1.3916,-0.34189 -2.2825,-0.55583c-1.22769,-0.29482 -1.94962,-0.50005 -2.60684,-0.6805c-0.87335,-0.23979 -1.875,-0.46817 -2.75183,-0.51016c-1.0094,-0.04836 -1.78983,-0.01068 -2.78934,-0.01068c-0.77399,0 -1.67401,0 -2.53732,0c-0.96317,0 -1.89468,0 -2.80566,0c-0.72,0 -1.845,0 -2.63101,0c-0.82199,0 -1.88068,0 -2.59018,0c-0.85266,0 -1.85849,0 -2.69315,0c-0.93066,0 -1.71219,-0.00006 -2.50269,0c-1.11832,0.00009 -2.05692,-0.08524 -2.76132,0.54167c-0.73492,0.65405 -0.96594,1.47974 -1.5,2.29167c-0.45117,0.68591 -0.87851,1.48799 -0.98932,2.34132l-0.00934,0.94135l0.08398,0.76799" id="svg_14" stroke-width="2" stroke="#000" fill="none"/>
  <path t="38473,38645,38645,38658,38658,38675,38675,38690,38691,38691,38693,38693,38705,38705,38716,38716,38730,38730,38730,38746,38746,38754,38754,38766,38766,38780,38780,38797,38797,38797,38802,38803,38803,38815,38815,38840,38840,38852,38852,38864,38888,38889" d="m357,258.89999c-0.87201,-1.39999 -1.59286,-1.82022 -2.60001,-2.2955c-0.59448,-0.28055 -1.60092,-0.57733 -2.39999,-0.7045c-1.00119,-0.15935 -1.80545,-0.4241 -2.39999,-0.7045c-1.00833,-0.47554 -1.80923,-0.8284 -2.57849,-1.39566c-0.65396,-0.48224 -1.08682,-1.24403 -1.54236,-1.89984c-0.60144,-0.86589 -1.31314,-1.35056 -1.99515,-1.79866c-0.74103,-0.48691 -1.36719,-1.00258 -2.13669,-1.50583c-0.69391,-0.4538 -1.40509,-1.22784 -1.97266,-1.83417c-0.63629,-0.67978 -1.58514,-0.85066 -2.57483,-0.86134c-0.82062,-0.00885 -1.48517,0 -2.48383,0c-0.81601,0 -1.63202,0 -2.63068,0c-0.87466,0 -1.88516,0 -2.66449,0c-0.99933,0 -1.81952,0 -2.7355,0.08534l-0.28534,0.91466l-0.08533,0.8" id="svg_15" stroke-width="2" stroke="#000" fill="none"/>
  <path t="40443,40589,40602,40602,40615,40616,40632,40636,40637,40648,40648,40649,40663,40664,40674,40686,40686,40710,40711,40724,40724" d="m355,281.89999c-0.98532,-1.81467 -1.43329,-2.78659 -2.18533,-3.01465c-0.78439,-0.23788 -1.43552,-0.7775 -2.22534,-1.37466c-0.69934,-0.52875 -1.61002,-0.60025 -2.58932,-0.61069c-0.79996,-0.00851 -1.60001,0 -2.59549,0c-0.74734,0 -1.77917,0 -2.72601,0c-0.69934,0 -1.6785,0 -2.46783,0l-1.04401,0l-0.86215,0" id="svg_16" stroke-width="2" stroke="#000" fill="none"/>
  <path t="42571,42729,42730,42742,42742,42742,42756,42756,42756,42756,42771,42771,42771,42771,42791,42792,42804,42854,42868,42869,42882,42888,42889,42912,42937,42950,42951,42988,43012,43037,43048,43073,43098,43136,43172,43173,43234,43296,43331,43357,43357" d="m290,155.89999c0,-1.84666 0,-2.68666 0,-3.68666c0,-0.855 0,-1.47499 0,-2.83467c0,-0.73132 0,-1.47867 0,-2.226c0,-1.086 0,-2.091 0,-2.711c0,-0.855 0,-2.08 0,-2.88c0,-0.9045 0.17349,-1.91895 -0.16666,-2.66167c-0.36755,-0.8026 -1.12259,-1.3109 -1.83334,-2c-0.59122,-0.57321 -1.44131,-0.88385 -2.20001,-1.284c-0.85837,-0.45271 -1.59998,-0.71533 -2.5,-0.716c-0.89999,-0.00067 -1.79999,0 -2.69998,0c-0.89999,0 -1.80002,0 -2.70001,0c-0.89999,0 -1.69998,0 -2.60001,0c-0.89999,0 -1.71066,0 -2.62131,0l-0.85333,0" id="svg_17" stroke-width="2" stroke="#000" fill="none"/>
  <path t="44700,44920,44936,44936,44952,44952,44957,44967,44968,44993,45017,45029,45055,45065,45065,45079,45079,45097,45097,45103,45165,45190,45190,45203,45203,45227,45227,45240,45254,45254,45268,45269,45285,45300,45300,45325,45360,45380" d="m349,146.89999c0,-2.62532 0,-3.48532 0,-4.21066c0,-0.98917 0,-1.95332 0,-2.90399c0,-0.88535 0,-1.68533 0,-2.58534c0,-0.89999 -0.00223,-1.8 0,-2.7c0.00226,-0.90901 0.06616,-1.57581 0.35266,-2.60533c0.20816,-0.748 0.55304,-1.65187 0.63666,-2.57333c0.08325,-0.91763 -0.10944,-1.9291 0.45352,-2.52133c0.61673,-0.6488 1.4859,-1.0788 2.1825,-1.464c0.81168,-0.44885 1.72198,-0.43375 2.62201,-0.436c0.91931,-0.0023 1.75266,0 2.73114,0c0.82019,0 1.6575,0 2.67419,0c0.69464,0 1.71133,0 2.64731,0l0.90002,0" id="svg_18" stroke-width="2" stroke="#000" fill="none"/>
  <path t="46263,46408,46422,46437,46437,46453,46465,46481,46481,46498,46531,46605,46641,46655,46666,46666,46690,46715" d="m357,124.9c0,2.58933 0,3.52084 0,4.32133c0,0.85333 0,1.79333 0,2.77867c0,0.89999 0.01801,1.70018 0,2.60001c-0.01801,0.90053 -0.32855,1.89809 -1.20001,2.21466c-0.8497,0.30867 -1.79999,0.08533 -2.59998,0.08533l-0.90002,0l-0.89999,0" id="svg_19" stroke-width="2" stroke="#000" fill="none"/>
  <path t="47556,47775,47799,47837,47910" d="m286,142.89999c-1.70001,0 -2.60001,0 -3.5,0l-0.97916,-0.02083" id="svg_20" stroke-width="2" stroke="#000" fill="none"/>
  <path t="50029,50212,50212,50212,50212,50224,50224,50225,50225,50225,50241,50242,50242,50242,50242,50242,50242,50242,50258,50258,50259,50259,50259,50259,50259,50259,50259,50262,50262,50262,50262,50262,50262,50262,50263,50263,50274,50274,50274,50274,50274,50274,50274,50274,50274,50282,50282,50282,50282,50283,50283,50283,50283,50283,50297,50297,50297,50298,50298,50298,50298,50298,50298,50312,50313,50313,50313,50313,50313,50313,50313,50313,50320,50320,50320,50321,50321,50321,50321,50321,50321,50332,50332,50332,50332,50333,50333,50333,50333,50333,50346,50346,50346,50346,50346,50346,50346,50346,50347,50362,50363,50363,50363,50363,50363,50363,50363,50363,50370,50370,50370,50370,50370,50371,50371,50371,50371,50381,50381,50381,50381,50381,50382,50382,50382,50382,50396,50396,50397,50397,50397,50397,50397,50397,50398,50413,50414,50414,50414,50414,50414,50414,50414,50415" d="m239,235.89999c-0.00133,2.05734 -0.01254,3.08377 -0.05716,3.87068c-0.02376,0.41893 -0.14897,1.75354 -0.30901,2.69099c-0.08304,0.48647 -0.30322,1.48869 -0.45267,2c-0.47282,1.61777 -0.71959,2.16211 -0.9505,2.72766c-0.4828,1.18246 -0.75447,1.79277 -1.01601,2.42934c-0.26956,0.65608 -0.55612,1.33026 -1.04799,2.78133c-0.25806,0.76131 -0.48927,1.56221 -0.714,2.39851c-0.23424,0.87166 -0.45685,1.78801 -0.67799,2.7495c-0.23172,1.00748 -0.46324,2.06705 -0.94135,4.35199c-0.25696,1.228 -0.51865,2.50748 -0.78149,3.8295c-0.26921,1.35397 -0.53539,2.73218 -0.7905,4.1265c-0.25591,1.39871 -0.51389,2.79263 -0.92801,5.54401c-0.20078,1.33395 -0.36861,2.64316 -0.5145,3.9285c-0.14333,1.26273 -0.26283,2.50845 -0.3615,3.7395c-0.09761,1.21802 -0.18474,2.42728 -0.29066,4.832c-0.05284,1.19971 -0.08484,2.3999 -0.10951,3.60001c-0.02466,1.19995 -0.03833,2.39996 -0.04649,3.60001c-0.00816,1.19998 -0.00999,2.39999 -0.01067,4.79999c-0.00034,1.20102 0,2.40802 0,3.62701c0,1.237 0,2.49799 0,3.789c0,1.327 0,2.69598 0,5.58398c0,1.52835 0,3.10669 0,4.72501c0,1.64835 0,3.31668 0,4.995c0,1.67834 0,3.34668 0,6.61334c0,1.58017 0,3.12134 0,4.62451c0,1.46616 0,2.89633 0,4.29147c0,1.36118 0,2.68933 0,5.25067c0,1.23483 0,2.43866 0,3.6105c0,1.13882 0,2.24368 0,3.31351c0,1.03384 0,2.03067 0,3.90933c0,0.88049 0,1.724 0,2.53351c0,0.7785 0,1.52899 0,2.25449c0,0.70349 0,1.388 0,2.71201c0,0.64532 0,1.28265 0,1.914c0,0.62732 0,1.25266 0,1.87799c0,0.62735 0,1.25867 0,2.54135c0,0.65482 0,1.31866 0,1.99048c0,0.67883 0,1.36368 0,2.0535c0,0.69385 0,1.39069 0,2.78934c0,0.70016 0,1.40134 0,2.10452c0,0.70615 0,1.41632 0,2.13147c0,0.72119 0,1.44934 0,2.93069c0,0.75433 0,1.51465 0,2.27698c0,0.76035 0,1.51468 0,2.259c0,0.73035 0,1.44269 0,2.79733c0,0.63568 0,1.24533 0,1.83301c0,0.56967 0,1.12534 0,1.67099l0,0.53967l0,0.53766" id="svg_21" stroke-width="2" stroke="#000" fill="none"/>
  <path t="53129,53288,53288,53288,53289,53289,53306,53306,53306,53306,53320,53320,53321,53321,53323,53323,53323,53334,53334,53334,53334,53334,53334,53348,53348,53348,53348,53348,53348,53348,53364,53365,53365,53365,53365,53365,53365,53365,53365,53372,53372,53372,53372,53372,53372,53372,53373,53373,53384,53384,53385,53385,53385,53385,53397,53398,53398,53398,53414,53414,53422,53422,53434,53434,53447,53464,53471,53482,53497,53497,53514,53514,53514,53520,53520,53521,53521,53531,53531,53531,53547,53547,53548,53564,53564,53564,53816,53835,53836,53852,53852,53863,53864,53879,53879,53895,53895,53895,53900,53901,53901,53901,53913,53913,53913,53929,53929,53929,53929,53938,53938,53938,53950,53951,53951,53962,53962,53979,53988,53999,53999,54012,54012,54012,54029,54029,54030,54036,54037,54037,54037,54048,54048,54063,54063,54085,54085,54109,54109,54172,54282,54331,54356,54369,54380,54380,54396,54397,54397,54406,54406,54407,54407,54407,54417,54417,54417,54418,54418,54418,54418,54430,54431,54431,54431,54431,54445,54446,54446,54446,54455,54455,54455,54456,54467,54467,54467,54467,54467,54479,54479,54479,54479,54479,54479,54480,54480,54495,54495,54495,54496,54496,54496,54496,54504,54505,54505,54505,54505,54505,54506,54515,54515,54516,54516,54529,54529,54529,54529,54545,54545,54546,54553,54553,54553,54565,54578,54579,54579,54601,54602,54627,54627,54646,54652,54664,54682,54689,54701,54701,54714,54714,54730,54739,54749,54764,54764,54780,54787,54798,54798,54814,54814,54830,54831,54831,54836,54836,54837,54837,54848,54848,54848,54849,54849,54864,54864,54885,54885,54886" d="m230,383.89999c0.00017,4.62134 -0.00247,5.55283 0.02083,6.5c0.01167,0.47476 0.02206,1.42093 0.20084,2.77817c0.11324,0.85962 0.28227,1.67154 0.54001,2.40302c0.35408,1.00491 0.71141,1.55713 1.23833,2.298c0.50565,0.71097 1.13385,1.70081 1.364,2.27817c0.24612,0.61743 0.63815,2.07547 0.73618,2.48581c0.20892,0.87457 0.4185,1.81985 0.53583,2.31418c0.24486,1.03174 0.52678,2.11044 0.84799,3.23199c0.16666,0.58191 0.34567,1.17746 0.51601,1.79401c0.35643,1.29019 0.53679,1.96957 0.83333,3.41666c0.15614,0.76199 0.28583,1.55264 0.4095,2.36252c0.12575,0.82349 0.23831,1.65808 0.34651,2.4975c0.10812,0.83893 0.20648,1.67371 0.41066,3.30667c0.0988,0.79016 0.19844,1.56039 0.3045,2.31c0.10333,0.73038 0.21165,1.4408 0.3315,2.13c0.11664,0.67078 0.20956,1.3299 0.68533,3.15015c0.15018,0.57458 0.3233,1.12701 0.67867,2.18066c0.17082,0.5065 0.5334,1.46875 0.9785,2.84052c0.27512,0.8479 0.36383,1.2608 0.717,2.34598c0.287,0.8819 0.8286,1.6218 1.13783,2.54269c0.2693,0.80197 0.00662,1.84314 0.22383,2.52881c0.27499,0.86807 1.39015,1.09091 1.91751,1.74051c0.59555,0.73358 1.02533,1.564 1.54616,2.08484c0.64584,0.64584 1.31776,1.32397 1.72585,1.68982c0.90257,0.8092 1.43645,1.19052 2.25333,1.78934c0.54675,0.40079 1.58598,1.1915 2.04283,1.60001c0.65749,0.58795 1.4503,1.40698 2.05717,1.99551c0.59335,0.57541 1.37941,1.2699 1.99548,1.64282c0.72516,0.43896 1.65051,0.73306 2.57117,0.76166c0.83295,0.02588 1.81201,0 2.586,0c0.90451,0 1.65186,0 2.64734,0c0.80002,0 1.80035,0 2.64166,0c0.729,0 1.92783,0.0061 2.61969,-0.01065c0.72424,-0.01755 1.46585,-0.01492 2.85333,-0.27469c0.65518,-0.12268 1.5817,-0.41647 2.48532,-0.71466c0.90088,-0.2973 1.49997,-0.50006 2.39999,-0.79999c0.89984,-0.2999 1.78159,-0.61703 2.64285,-0.84283c1.02731,-0.26932 1.76855,-0.18185 2.47049,-0.52649c0.97833,-0.48035 1.24551,-1.32181 2.08667,-1.84534c0.76764,-0.47778 1.43085,-1.18713 2.07199,-1.54935c0.80627,-0.45551 1.59958,-0.41415 2.43701,-0.43149c1.19073,-0.02466 1.79099,-0.00452 2.69098,-0.00452c1.20001,0 1.79868,0 2.67917,0c0.83551,0 1.83551,0 2.71017,0c1.0105,0 1.78983,0 2.78934,0c0.90533,0 1.84668,0 2.53732,0c1.07333,0 1.94806,0.33969 2.87335,-0.01065c0.72931,-0.27612 0.61066,-1.38934 0.61066,-2.29834c0,-0.66168 0,-1.71432 0,-2.58432c0,-0.68002 0,-1.84985 0,-2.72552c0,-0.46384 0,-1.43848 0,-2.46915c0,-1.07867 0.00381,-1.63336 -0.00449,-2.76468c-0.00418,-0.57269 -0.02792,-1.72214 -0.05267,-2.29468c-0.0246,-0.56882 -0.159,-2.23148 -0.22684,-2.76465c-0.13132,-1.03198 -0.2934,-2.00491 -0.36334,-2.46918c-0.19351,-1.28439 -0.28674,-2.04849 -0.33182,-3.09799c-0.02872,-0.66858 -0.02084,-1.6875 -0.02084,-2.77802c0,-0.76364 0.00101,-1.54733 0,-2.74283c-0.00067,-0.80399 -0.00717,-1.63208 -0.02084,-2.0625c-0.0289,-0.90927 -0.14328,-2.43774 -0.2005,-3.00198c-0.06,-0.5918 -0.2048,-1.84341 -0.27866,-2.49802c-0.07553,-0.6694 -0.15482,-1.35028 -0.216,-2.0415c-0.18533,-2.09393 -0.2019,-2.79456 -0.23132,-3.49149c-0.02927,-0.69376 -0.05154,-1.3837 -0.078,-2.06851c-0.02621,-0.67886 -0.13577,-2.6698 -0.19635,-3.314c-0.05954,-0.63321 -0.21832,-1.85513 -0.31998,-2.43866c-0.09857,-0.56583 -0.30927,-1.63721 -0.625,-2.58334c-0.28543,-0.85532 -0.65396,-1.59445 -1.008,-2.26801c-0.65002,-1.2366 -0.95148,-1.82599 -1.3045,-2.71115c-0.22366,-0.56079 -0.64798,-1.58871 -1,-2.52084c-0.25555,-0.67676 -0.45737,-1.68118 -0.5,-2.47916c-0.0401,-0.75067 -0.02084,-1.87018 -0.02084,-2.85416c0,-0.67203 0,-1.66135 0,-2.69736c0,-0.7175 0,-1.62198 0,-2.48532c0,-0.96317 0,-1.884 0,-2.784c0,-0.89999 0,-1.80002 0,-2.70001c0,-0.75717 0,-1.65265 0,-2.51599c0,-0.96317 -0.09546,-1.92853 0.284,-2.68399c0.43558,-0.86722 0.5235,-1.63336 0.77316,-2.5c0.22034,-0.76486 1.17126,-1.31235 1.58566,-2.05719c0.46399,-0.83398 0.37,-1.71237 0.57867,-2.66431c0.18036,-0.82275 0.38516,-1.3905 0.7785,-2.57852c0.19931,-0.60199 0.51141,-1.52441 0.75717,-2.15717c0.39441,-1.01547 0.72202,-1.72775 1.06818,-2.45749c0.34451,-0.72629 0.69037,-1.41617 1.28931,-2.61469c0.36432,-0.72906 0.88535,-1.77066 1.18085,-2.36615l0.34732,-0.74734" id="svg_22" stroke-width="2" stroke="#000" fill="none"/>
  <path t="56120,56314,56314,56315,56315,56315,56326,56326,56326,56326,56326,56326,56327,56327,56327,56338,56339,56339,56339,56339,56339,56339,56339,56339,56355,56356,56356,56356,56356,56356,56372,56372,56372,56372,56373,56373,56376,56376,56376,56376,56377,56377,56391,56391,56391,56391,56400,56401,56401,56423,56424,56424,56460,56460,56474,56474,56488,56488,56489,56501,56501,56501,56511,56511,56512,56522,56522,56533,56533,56533,56546,56561,56571,56571,56582,56582,56584,56584,56595,56595,56595,56595,56612,56612,56612,56612,56612,56612,56620,56620,56620,56620,56621,56632,56632,56632,56632,56632,56645,56645,56645,56645,56662,56663,56663,56670,56670,56682,56682,56696,56712,56712,56718,56718,56730,56731,56731,56746,56746,56758,56758,56758,56767,56767,56767,56767,56779,56779,56796,56796,56880,56880,56905,56920,56937,56942,56955,57025,57044,57045,57051,57051,57089,57089,57188,57205" d="m361,315.89999c2.97067,1.77734 3.33148,2.01691 4.04166,2.64584c0.38937,0.34485 1.19263,1.15921 1.95834,2.1875c0.41782,0.5611 0.80655,1.18747 1.2045,1.84351c0.41159,0.67856 0.81583,1.38596 1.23151,2.10449c0.42065,0.72714 0.82773,1.4682 1.73065,2.88535c0.44397,0.69681 0.91086,1.36371 1.3815,2.00998c0.46149,0.6337 0.92856,1.24191 1.3905,1.83002c0.44916,0.57184 0.89816,1.11508 2.11835,2.65033c0.37421,0.47083 0.73108,0.92679 1.40134,1.80133c0.32147,0.41943 0.93997,1.23825 1.84164,2.44183c0.30035,0.40091 0.90192,1.20914 1.20001,1.62067c0.60382,0.83359 0.91217,1.25638 1.79984,2.60034c0.30301,0.45874 0.89035,1.39294 1.17932,1.858c0.5654,0.90994 0.82758,1.35648 1.59933,2.57767c0.45966,0.72733 0.8869,1.3905 1.31702,1.97699c0.77979,1.06326 1.4111,1.72702 1.76849,2.1915c0.70438,0.91541 1.10867,1.70999 1.38934,2.51334c0.3197,0.9151 0.43622,1.74033 0.44666,2.58301c0.01144,0.92493 0,1.845 0,2.63098c0,0.82202 0,1.88068 0,2.59467c0,0.90533 0,1.87402 0,2.67801c0,0.82199 0,1.85318 0,2.75385c0,1.02081 0,1.81015 0,2.53549c0,1.07468 0,1.896 0,2.80701c0,0.92499 0,1.845 0,2.63998c0,0.88501 0,1.52499 0,2.56c0,1.125 0,1.92502 0,2.34c0,1.30502 0,2.22366 0,3.17435c0,0.48483 0,1.46851 0,1.96533c0,1.49866 0,2.49866 0,2.99866c0,1 0,1.5 0,3c0,0.99734 0,1.491 0,2.45834c0,0.92734 0,2.20834 0,2.96967c0,0.68933 0,1.60583 0,2.65051c0,0.68549 0,1.52014 0,2.52148c0,0.79999 0,1.79868 0,2.74283c0,0.89999 0,1.85983 0,2.62784c0,0.79868 0,1.81467 0,2.86267c0,0.7095 0,1.56216 0,2.56799c0,0.83466 0,1.76535 0,2.55585c0,0.85349 0,2.04282 0,2.64148c0,0.88052 0,1.716 0,2.716c0,0.87466 0,1.88516 0,2.66452c0,0.99933 0,1.81949 0,2.72083c0,0.89999 0.06537,1.73743 0.57468,2.32532c0.56192,0.64862 1.36444,1.18991 1.42532,2.07486c0.05389,0.78329 -0.05231,1.7446 0.08533,2.50116c0.18427,1.01285 0.56201,1.74149 0.85751,2.64148l0.05731,0.85703" id="svg_23" stroke-width="2" stroke="#000" fill="none"/>
  <path t="57669,57851,57851,57851,57851,57851,57852,57852,57870,57870,57870,57870,57870,57870,57887,57887,57888,57888,57888,57888,57890,57891,57891,57891,57891,57891,57899,57899,57899,57899,57899,57912,57912,57912,57912,57912,57928,57928,57928,57928,57929,57929,57937,57937,57937,57937,57937,57949,57949,57949,57961,57962,57962,57979,57979,57997,57997,57997,58022,58034,58221,58256,58281,58294,58313,58318,58318,58329,58330,58330,58330,58345,58345,58346,58346,58346,58346,58355,58355,58355,58356,58356,58356,58366,58367,58367,58367,58367,58367,58379,58379,58379,58379,58379,58395,58395,58395,58396,58396,58396,58396,58396,58404,58405,58405,58405,58405,58405,58405,58405,58405,58416,58416,58416,58417,58417,58417,58417,58417,58417,58429,58430,58430,58430,58430,58430,58430,58445,58445,58445,58445,58454,58454,58454,58454,58455,58465,58465,58465,58465,58478,58478,58478,58479,58479,58479,58479,58495,58495,58495,58495,58495,58496,58496,58496,58503,58503,58503,58503,58503,58504,58504,58504,58504,58515,58515,58515,58515,58516,58516,58516,58516,58528,58528,58528,58529,58529,58529,58545,58545,58545,58545,58546,58551,58552,58552,58552,58563,58564,58564,58564,58579,58579,58579,58580,58580,58580,58588,58588,58589,58589,58589,58589,58589,58589,58590,58600,58601,58601,58601,58601,58601,58601,58602,58602,58613,58613,58613,58614,58614,58614,58614,58614,58615,58628,58628,58629,58629,58629,58629,58629,58630,58638,58638,58638,58639,58639,58639,58650,58650,58651,58651,58651,58651,58662,58662,58662,58662,58663,58663,58663,58680,58680,58680,58681,58681,58681,58681,58688,58688,58688,58688,58689,58689,58699,58700,58700,58700,58700,58701,58713,58714,58714,58714,58728,58729,58729,58729,58737,58737" d="m394,436.89999c5.28549,0 5.93735,0 6.61517,0c0.69684,0 1.40567,0 2.83133,0c0.70282,0 2.0535,0 2.689,0c1.19299,0 1.7565,0 2.302,0c1.04901,0 2.5625,0 3.0625,0c1,0 1.5,0 2.5,0c1,0 2,-0.00253 2.99866,0.00134c0.49686,0.00192 1.48096,0.00891 2.44418,0.05582c0.47211,0.02298 1.83829,0.14929 2.7045,0.30002c0.85538,0.14883 1.70526,0.3476 2.13666,0.44415c1.33749,0.29938 2.27686,0.4986 2.76266,0.58801c0.99835,0.18375 2.03845,0.34039 3.12,0.444c0.55383,0.05304 1.68149,0.1149 2.24802,0.14133c1.1239,0.05246 1.67801,0.04736 3.25198,0.19202c0.491,0.0451 1.41135,0.1785 2.25,0.33331c0.76129,0.14056 2.03815,0.40381 2.82202,0.46402c0.70813,0.05441 1.68265,0.03598 2.48666,0.03598c0.82199,0 1.85315,0 2.75381,0c1.02084,0 1.83228,0.10739 2.53552,-0.08533c1.00235,-0.27469 1.37604,-1.25378 1.91064,-1.88934c0.5462,-0.64932 1.3927,-1.01962 1.57333,-1.82666c0.18228,-0.81451 0.00134,-1.86032 0.00134,-2.66034c0,-0.96033 0,-1.80634 0,-2.457c0,-0.73865 0,-2.04565 0,-2.53598c0,-1.04266 0,-1.58701 0,-2.70166c0,-0.56235 0,-2.22235 0,-2.75967c0,-1.05869 0,-1.58401 0,-2.63669c0,-0.53131 0,-2.16849 0,-2.72998c0,-1.13202 0,-1.6965 0,-2.25601c0,-1.09198 0,-2.61884 0,-3.09467c0,-0.92667 0,-1.85333 0,-2.32916c0,-1.53751 0,-2.10233 0,-3.31799c0,-0.64883 0,-1.32367 0,-2.0235c0,-0.72385 0,-1.47067 0,-3.02933c0,-0.80936 0,-1.63467 0,-2.47202c0,-0.84534 0,-1.69467 0,-2.54401c0,-0.84534 0.00015,-1.68265 0,-3.31732c-0.00009,-0.79034 0.00024,-1.56268 -0.00449,-2.319c-0.00464,-0.74234 -0.01324,-1.47272 -0.03152,-2.19299c-0.01807,-0.71243 -0.02109,-1.42068 -0.18549,-3.52069c-0.0545,-0.69611 -0.13171,-1.38315 -0.21451,-2.05798c-0.08096,-0.65982 -0.2608,-1.91531 -0.36533,-2.50134c-0.27811,-1.55927 -0.39734,-2.00131 -0.58801,-2.80798c-0.25348,-1.07251 -0.45712,-2.09863 -0.52664,-2.81866c-0.07236,-0.74948 -0.09357,-1.52667 -0.16803,-2.31601c-0.11334,-1.20151 -0.27191,-2.00708 -0.41599,-2.84033c-0.15079,-0.8721 -0.33969,-2.29114 -0.37866,-2.80151c-0.08206,-1.07471 -0.09598,-1.6395 -0.12134,-2.21933c-0.05261,-1.20364 -0.07202,-1.82632 -0.16666,-3.10416c-0.04855,-0.65549 -0.18555,-1.99506 -0.25867,-2.67999c-0.07422,-0.69507 -0.15179,-1.39978 -0.22202,-2.11502c-0.07114,-0.72473 -0.19022,-2.20474 -0.23132,-2.95981c-0.04156,-0.76364 -0.06976,-1.53564 -0.09601,-2.31451c-0.02643,-0.78479 -0.04874,-1.57474 -0.078,-2.3685c-0.02939,-0.79691 -0.10938,-2.39584 -0.16882,-3.19501c-0.05927,-0.79684 -0.13205,-1.58737 -0.21451,-2.3685c-0.08127,-0.7699 -0.26459,-2.26105 -0.36533,-2.97598c-0.19125,-1.35709 -0.29712,-1.99155 -0.39734,-2.59866c-0.18808,-1.1391 -0.29333,-1.67203 -0.44415,-2.68668c-0.20831,-1.40146 -0.27652,-2.28372 -0.30002,-2.70901c-0.04529,-0.81952 -0.05032,-1.59998 -0.05731,-3.04031c-0.00323,-0.66867 -0.01758,-1.64828 -0.08517,-2.30533c-0.10712,-1.04108 -0.27081,-1.77704 -0.41467,-2.55768c-0.151,-0.81934 -0.34457,-2.12405 -0.41599,-3.04767c-0.0372,-0.4809 -0.08289,-1.49405 -0.10934,-2.02933c-0.05627,-1.13879 -0.13818,-2.38162 -0.19617,-3.04617c-0.06058,-0.69415 -0.13412,-1.41583 -0.21451,-2.16449c-0.08322,-0.77502 -0.17447,-1.57471 -0.26849,-2.3985c-0.09665,-0.84686 -0.29587,-2.60547 -0.39566,-3.51483c-0.10153,-0.92532 -0.20261,-1.86285 -0.31052,-2.80801c-0.10843,-0.94955 -0.22134,-1.8992 -0.3465,-2.84399c-0.12424,-0.93787 -0.40369,-2.77304 -0.56415,-3.66183c-0.15704,-0.86987 -0.32791,-1.7164 -0.50403,-2.53949c-0.1713,-0.80057 -0.34821,-1.57492 -0.52197,-2.32352c-0.1676,-0.72208 -0.48743,-2.0802 -0.63116,-2.716c-0.13751,-0.60818 -0.26541,-1.19275 -0.38553,-1.7565c-0.11618,-0.54529 -0.22687,-1.07568 -0.43466,-2.104c-0.20282,-1.00369 -0.4024,-2.00354 -0.49683,-2.504c-0.18848,-0.99911 -0.35577,-1.99887 -0.41916,-2.5c-0.18936,-1.49734 -0.20587,-2.00241 -0.26001,-3.02133c-0.02765,-0.5202 -0.07211,-1.59335 -0.10934,-2.14932c-0.11874,-1.77353 -0.19855,-2.39899 -0.27316,-3.03918c-0.07599,-0.65182 -0.25195,-1.97571 -0.34732,-2.642c-0.09531,-0.66571 -0.29434,-1.98166 -0.39551,-2.6265c-0.19772,-1.26035 -0.29877,-1.87521 -0.39999,-2.47998c-0.1976,-1.18042 -0.29587,-1.75574 -0.5,-2.875c-0.19736,-1.08209 -0.29614,-1.6113 -0.52084,-2.64584c-0.11102,-0.51108 -0.34683,-1.52463 -0.64581,-2.52084c-0.30096,-1.00281 -0.66348,-1.98096 -0.85419,-2.45831c-0.37231,-0.93198 -0.55099,-1.38583 -1.17917,-2.59868c-0.38229,-0.73811 -0.79343,-1.40553 -1.19998,-2.034c-0.78723,-1.21692 -1.1955,-1.8 -1.57916,-2.36734l-0.53552,-0.771l-0.59998,-0.8l-0.58084,-0.66167" id="svg_24" stroke-width="2" stroke="#000" fill="none"/>
  <path t="60316,60473,60474,60486,60486,60504,60523,60534,60546,60562,60562,60571,60582,60582,60595,60595,60612,60612,60620,60620,60631,60632,60656,60669,60830,60856,60867,60868,60868,60868,60868,60868,60881,60881,60881,60881,60891,60891,60902,60902,60914,60915,60928,60945,60952,60976,61038,61049,61049,61062,61062,61062,61080,61080,61080,61088,61088,61099,61112,61161,61162,61248,61272,61285,61285,61286,61296,61296,61296,61312,61312,61312,61313,61313,61313,61320,61320,61320,61321,61333,61333,61333,61333,61345,61362,61370,61370,61382,61395,61395,61412,61420,61444,61444,61461,61468,61492,61506,61517,61529,61529" d="m397,419.89999c2.60001,-0.94733 3.41791,-0.98569 4.39868,-1.284c0.78323,-0.23825 1.7132,-0.67331 2.70132,-0.716c0.89914,-0.03885 1.81625,0.15433 1.89999,1c0.07883,0.79611 0,1.63602 0,2.65717c0,0.74734 0,1.74283 0,2.54285c0,0.99982 0,1.77917 0,2.77866c0,0.77402 0,1.67401 0,2.53735c0,0.96317 -0.89102,2.77499 0,2.77499c0.09235,0 -0.00208,-1.12433 0.00134,-1.91367c0.00195,-0.44968 0.00925,-1.41943 0.05582,-2.42834c0.02307,-0.49994 0.1438,-1.888 0.2955,-2.673c0.19583,-1.0134 0.39737,-1.58075 0.59467,-2.81433c0.12744,-0.79678 0.35361,-1.76889 0.93933,-2.26031c0.69846,-0.586 1.47525,-1.06317 2.0925,-1.68051c0.57401,-0.5741 1.52084,-0.52536 2.42084,-0.52084c0.89554,0.00452 1.5488,0.56915 1.58932,1.25735c0.06845,1.16205 0.01068,1.96799 0.01068,2.78998c0,1.03119 0,1.71667 0,2.55133c0,0.99686 0,1.91602 0,2.88052c0,0.82532 -0.00006,1.84216 0,2.52081c0.00009,0.97833 0.33072,2.11707 1,1.66669c0.56195,-0.37817 0.85126,-1.2962 1.48801,-2.06934c0.54626,-0.6633 1.02927,-1.11319 1.84534,-1.93066c0.6348,-0.63586 1.32605,-1.31937 1.6875,-1.66669c0.72711,-0.69873 1.07605,-1.056 2.15765,-1.957c0.65231,-0.5434 1.2962,-1.00772 1.91699,-1.43399c1.19574,-0.82108 1.79074,-1.20746 2.36285,-1.56732c0.76477,-0.48105 1.72198,-0.98441 2.64166,-1.04169c0.89825,-0.05594 1.87759,-0.09827 2.46399,0.64667c0.56149,0.71332 0.43057,1.52798 0.436,2.59616c0.00436,0.85718 0.24213,1.71094 0.64734,2.45718c0.41327,0.76111 0.35266,1.69998 0.35266,2.60001c0,0.89999 0,1.79999 0,2.69998l0,0.80002" id="svg_25" stroke-width="2" stroke="#000" fill="none"/>
  <path t="62961,63131,63131,63154,63155,63155,63157,63157,63157,63166,63166,63166,63179,63195,63195,63254,63254,63269,63285,63285,63285,63303,63303,63304,63315,63315,63315,63315,63328,63345,63352,63352,63363,63363,63388,63388,63400,63400,63412,63562,63598,63620,63620,63624,63640,63640,63648,63648,63663,63663,63671,63709,63709,63745,63762,63770,63781,63781,63795,63812,63818,63818,63843,63867,63867,63968,63987,63992,64007,64015,64031,64031,64050,64052,64076,64077,64095,64139,64139,64150,64176,64188,64212,64228,64239,64272,64273" d="m305,439.89999c-0.96399,-1.84665 -0.98834,-2.68674 -1.00134,-3.68533c-0.01086,-0.83563 0.00372,-1.42886 -0.22015,-2.6145c-0.16977,-0.89911 -0.35678,-1.47653 -0.7785,-2.53348c-0.3718,-0.93176 -0.68408,-1.51569 -1.2955,-2.40952c-0.52435,-0.76657 -0.74969,-1.66342 -1.7045,-1.75717c-0.80069,-0.07861 -1.5285,0.53387 -2.16666,1.16669c-0.66681,0.66122 -1.21439,1.21219 -1.81216,2.03348c-0.43164,0.59302 -0.79562,1.285 -1.56384,2.22086c-0.44287,0.53952 -0.92139,1.07776 -1.68933,1.72433c-0.76254,0.642 -1.53326,1.12808 -1.93466,1.85464c-0.42688,0.77271 -1.18005,1.26736 -1.63333,1.88535c-0.66153,0.90192 -0.90076,1.505 -1.116,2.51199c-0.18787,0.87894 -0.47354,1.81528 -1.13669,2.25c-0.64407,0.42224 -1.40292,-0.4798 -1.66199,-1.16467c-0.36005,-0.95181 -0.23691,-1.97208 -0.32135,-2.69333c-0.11703,-0.99957 -0.43158,-1.80063 -0.96399,-2.62265c-0.43719,-0.67496 -0.78448,-1.54269 -1.2215,-2.26651c-0.4368,-0.72348 -1.42639,-0.84149 -1.86252,-0.09885c-0.42087,0.71667 -0.84491,1.51498 -0.9053,2.37335c-0.06598,0.93774 -0.01068,1.92532 -0.01068,2.82532c0,0.80002 0,1.63602 0,2.65268c0,0.69467 0.20435,1.97147 -0.52084,2.32651c-0.78983,0.38669 -1.78568,0.12778 -2.67917,0.0195c-0.91977,-0.11148 -1.4585,-0.78674 -2.39999,-0.98801c-0.88159,-0.18848 -1.55637,-0.61124 -2,-1.16c-0.64078,-0.7926 -1.52438,-1.26639 -2.19998,-1.56668c-0.85504,-0.38007 -1.19934,0.51733 -1.20001,1.41602c-0.00067,0.89999 -0.02084,1.79999 -0.35266,2.60001l-0.52585,0.80017l-0.12015,0.78516" id="svg_26" stroke-width="2" stroke="#000" fill="none"/>
 </g>
 <g display="none">
  <title>muse_image</title>
  <image xlink:href="http://farm1.static.flickr.com/141/339310178_02ad8c564e.jpg" id="muse" height="480" width="640" y="0" x="0"/>
 </g>
 <g display="none">
  <title>bbox</title>
  <rect stroke="#f00" fill="none" stroke-width="3" height="385.28" width="385.28" y="53.76" x="122.88" id="bbox"/>
 </g>
</svg>
