<svg width="640" height="480" xmlns="http://www.w3.org/2000/svg" xmlns:svg="http://www.w3.org/2000/svg" xmlns:xlink="http://www.w3.org/1999/xlink">
 <!-- Sketchy ANNOTATION
  ImageNet ID: n02503517_9270
  URL: http://static.flickr.com/155/376009394_aeafa0d8c4.jpg
  Image Width: 500
  Image Height: 333
  BBox X: 37
  BBox Y: 199
  BBox Width: 145
  BBox Height: 88
  Exposure: 2000ms
  Synset Label: elephant
  Synset ID: n02503517
  Worker Tag: brown elephant trees grass
  Sanity Check: 
   Context
   Saved
   Shading
  Comment: 
   {}
  Worker ID: AXD2DZ7U6CK35
  Assignment ID: 388U7OUMF71TCFENM9ME9UD9C0H0R1
  HIT ID: 3DTJ4WT8BDFZICHEEVA4R2MRFIZZEU
  Work Time: 1038s
  Worker Score: 0.9286
 END ANNOTATION -->
 <g display="inline">
  <title>Layer 1</title>
  <path t="0,10,10,10,10,25,25,25,39,54,70,70,87,87,104,104,104,120,120,120,137,137,137,154,154,154,170,170,187,204,204,220,220,237,237,254,254,272,272,288,365,375,406,631,685,701,708,721,738,755,771,788,788,805,821,821,838,838,855,855,870,870,886,904,904,919,920,940,940,956,969,986,1003,1019,1020,1036,1036,1053,1053,1053,1069,1069,1087,1104,1120,1137,1137,1154,1154,1169,1186,1204,1257,1440,1473,1489,1497,1509,1524,1524,1537,1554,1570,1588,1604,1620,1637,1637,1637,1654,1670,1687,1687,1704,1704,1704,1720,1720,1720,1737,1738,1754,1754,1770,1770,1787,1804,1804,1820,1820,1837,1837,1854,1854,1870,1887,1904,1904,1921,1938,1960,1976,1996,2004,2020,2037,2054,2070,2087,2104,2104,2120,2121,2137,2137,2154,2170,2187,2204,2220,2237,2276,2276,2321,2349,2356,2381,2396,2429,2429,2464" d="m48,306c1.13733,-1.42001 1.4093,-1.76819 2.02083,-2.5c0.61976,-0.74164 1.43903,-1.71521 1.92317,-2.07468c0.79478,-0.59012 1.53316,-0.94739 2.00783,-1.72531c0.48893,-0.80127 1.12011,-1.12527 2.02667,-1.80017c0.65176,-0.4852 1.11498,-1.2254 1.54233,-1.92068c0.35892,-0.58395 1.13018,-1.58484 1.5,-1.97916c0.57113,-0.60895 1.37917,-1.39999 1.97917,-2c0.6,-0.60001 1.39868,-1.39868 1.97917,-1.97916c0.53551,-0.53552 1.26366,-1.26367 1.8195,-1.81952c0.70132,-0.70132 1.34789,-1.26181 1.90133,-1.9585c0.54875,-0.69077 0.83604,-1.461 1.40017,-2.22131c0.48417,-0.65256 1.39024,-1.21066 2.0745,-1.62152c0.81146,-0.48724 1.30227,-1.19778 1.82533,-1.87915c0.48454,-0.6312 1.36482,-0.66992 2.05267,-1.16818c0.69373,-0.50253 1.65183,-0.35266 2.54733,-0.35266c0.9,0 1.8,0 2.7,0c0.89999,0 1.8,0 2.7,0c0.8,0 1.64903,0.00491 2.48534,-0.284c0.73859,-0.25516 1.7105,-0.63635 2.51466,-0.69516c0.99755,-0.07294 1.78933,-0.02084 2.83334,-0.02084c0.756,0 1.6875,0 2.652,0c0.72533,0 1.7145,0 2.49383,0c0.99934,0 1.8195,0 2.72083,0c0.9,0 1.80644,-0.09793 2.71067,0.01068c0.92805,0.11145 1.5618,0.5701 2.56817,0.86798c0.8141,0.24097 1.79587,0.38678 2.52116,0.64218c0.7394,0.26038 1.63004,0.87048 2.29733,1.19382c0.85074,0.41223 1.81208,0.30234 2.61333,0.71066c0.76541,0.39008 1.58916,0.56424 2.56783,0.57468c0.82012,0.00873 1.7215,0.05716 2.5215,0.5c0.8,0.44284 1.80065,0.31946 2.416,0.784c0.6832,0.51578 1.384,0.716 2.284,0.716c0.9,0 1.8,0 2.60001,0c0.89999,0 1.8,0 2.7,0c0.9,0 1.8033,0.07568 2.70134,-0.00134c0.9758,-0.08368 1.60426,-0.4762 2.31467,-0.71466c1.05,-0.35245 1.89484,-0.26572 2.8055,-0.28415c0.88969,-0.01801 1.88512,-0.2038 2.48917,-0.43585c0.88484,-0.3399 1.86967,-0.77341 2.41466,-0.95334c0.81683,-0.26968 1.84927,-0.5303 2.733,-0.58981c1.01825,-0.06854 1.80754,-0.0405 2.69434,-0.3735c0.70642,-0.26526 1.72148,-0.62933 2.66867,-0.64734c0.67854,-0.01291 1.66989,0.09296 2.43134,-0.05716c0.93358,-0.18405 1.63313,-0.67325 2.646,-0.85751c0.75655,-0.13763 1.84416,-0.08533 2.70134,-0.08533c0.89999,0 1.7,0 2.59999,0c0.90001,0 1.8,0 2.7,0c0.90001,0 1.89789,-0.15933 2.54733,0.35266c0.61462,0.48453 1.56964,0.53583 2.05267,1.16818c0.52029,0.68112 0.97054,1.51178 1.52083,1.97916c0.76251,0.64761 1.50462,0.95984 2.3125,1.5c0.66852,0.44699 1.61334,0.78693 2.14134,1.436c0.59366,0.7298 1.17467,1.14954 1.85866,1.73065c0.66692,0.56659 1.29071,1.02643 1.86667,1.53784c0.73227,0.65024 1.59729,1.06259 2.216,1.5795c0.65694,0.54883 1.384,0.72049 2.18401,0.93735l0.7,0.49466l0.84283,0.33667" id="svg_1" stroke-width="2" stroke="#000" fill="none"/>
  <path t="5587,5621,5621,5645,5657,5697,5725,5757,5778,5793,5793,5809,5829,5853,5892,5892,5913,5937,5960,5972,5988,6008,6024,6037,6052,6069,6086,6086,6102,6124,6124,6140,6152,6169,6192,6220,6241,6243,6272,6308,6634,6685,6733,6753,6761,6780,6820,6861,6861,6881,6905,6924,6924,6932,6941,6956,6969,6987,7008,7020,7020,7036,7052,7069,7069,7088,7112,7136,7156,7180,7200,7224,7248,7248,7268,7284,7308,7317,7360,7368,7380,7400,7436,7444,7464,7472,7500,7508,7524,7540,7560,7580,7592,7624,7644,7668,7731,7741,8097,8140,8176,8208,8208,8220,8228,8244,8268,8268,8276,8287,8304,8320,8336,8352,8353,8369,8386,8387,8402,8419,8419,8436,8452,8469,8486,8503,8528,8560,8568,8631,8704,8740,8784,8816,8828,8845,8854,8870,8888,8888,8904,8904,8921,8938,8954,8971,8971,8988,9004,9020,9020,9040,9064,9084,9108,9108,9124,9271,9591,9601,9601,9640,9704,9784" d="m179,291c-1.65266,0.70532 -2.24969,1.47366 -3.11467,1.82935c-0.92474,0.38025 -1.49397,0.67847 -2.24249,1.11349c-0.73038,0.42447 -1.74284,0.05716 -2.64284,0.05716c-0.8,0 -1.42892,0.3707 -2.2215,0.87851c-0.74675,0.47845 -1.7785,0.12149 -2.57851,0.12149c-0.89999,0 -1.8,0 -2.7,0c-0.89999,0 -1.8,0 -2.7,0c-0.90001,0 -1.9489,0.3371 -2.63333,-0.16666c-0.65302,-0.48062 -1.26685,-0.83334 -2.052,-0.83334c-0.94,0 -1.948,0 -2.70401,0c-0.91066,0 -1.81065,0 -2.71066,0c-0.89999,0 -1.8,0 -2.7,0c-0.91467,0 -1.7045,0 -2.60001,0c-0.89999,0 -2.03955,-0.18118 -2.37917,0.52084c-0.41772,0.86349 -0.6235,1.4856 -1.0735,2.18365c-0.50012,0.77582 -1.04964,1.39322 -1.64732,1.99551c-0.692,0.69733 -1.0508,1.45148 -1.46667,2.29999c-0.37372,0.76248 -0.53427,1.55508 -0.84399,2.38934c-0.27234,0.73361 -0.81883,1.24158 -1.01016,2.11066c-0.18658,0.84753 -1.07205,1.42462 -1.54317,2.10001c-0.5117,0.73358 -0.29944,1.75662 -0.72,2.60001c-0.32993,0.66162 -0.71375,1.5 -0.716,2.39999c-0.00224,0.89999 0,1.79999 0,2.69998c0,0.90002 0,1.80002 0,2.70001c0,0.79999 0,1.70001 0,2.60001c0,0.89999 -0.27995,1.83228 0.0045,2.75266c0.22176,0.7175 1.10738,1.12674 1.64284,1.70001c0.64001,0.68521 1.17979,1.29926 1.70532,1.89465c0.56326,0.63815 1.33762,0.70892 2.12651,1.07352c0.771,0.35632 1.32225,0.96677 2.22083,0.97916c0.8002,0.01102 1.61792,0.58914 2.40001,0.87851c0.85173,0.31512 1.64659,0.43912 2.18399,1.03748c0.57344,0.63846 1.28978,1.02762 1.74133,1.69467c0.49879,0.73682 1.07355,1.49048 1.67467,2.08936c0.59888,0.59662 1.59538,0.90192 2.17867,1.52148c0.56898,0.60437 0.56949,1.59671 1.14667,2.3425c0.48413,0.62555 1.25725,1.10767 1.85333,1.65735c0.64197,0.59201 1.19998,1.23727 1.62134,1.77866c0.66719,0.85724 1.62971,1.04175 2.14284,1.7045c0.53918,0.69641 0.8952,1.55301 1.5425,1.8595c1.0128,0.47955 1.72255,0.82108 2.24001,1.41068c0.55971,0.63776 1.06407,1.21024 1.74133,1.85867c0.63127,0.6044 0.43884,1.54822 1.11732,2.08133c0.69728,0.54788 1.39262,0.65417 2.15201,1.04932c0.76711,0.39917 2.04364,0.36136 2.50684,-0.32117c0.47437,-0.69901 0.05716,-1.74283 0.05716,-2.64282c0,-0.88535 0,-1.82535 0,-2.51599c0,-1.07333 -0.13271,-1.8945 0.0045,-2.784c0.14368,-0.9314 0.84741,-1.4686 0.991,-2.40002c0.14261,-0.92505 0.0045,-1.784 0.0045,-2.64731c0,-1.01669 0,-1.85269 0,-2.75269c0,-0.89999 -0.39296,-1.83035 0.08533,-2.61465c0.49007,-0.80365 0.86688,-1.38663 0.91467,-2.28534c0.04272,-0.80338 0.5,-1.5 0.964,-2.38934l0.036,-0.896" id="svg_2" stroke-width="2" stroke="#000" fill="none"/>
  <path t="10502,10534,10534,10534,10534,10542,10555,10574,10589,10610,10626,10646,10646,10655,10689,10730,10774,10774,10784,10825" d="m165,307c3.95667,7.47083 4.4671,8.25961 4.91667,8.85416c0.4995,0.66058 0.81921,1.66907 1.08783,2.44135c0.28294,0.81351 0.98962,1.33176 1.42084,2.10449c0.45699,0.81891 0.53748,1.60086 0.57466,2.39999c0.04271,0.91766 0.9391,1.41525 1,2.30002c0.0618,0.89786 0,1.69998 0,2.61465l0,0.91602" id="svg_3" stroke-width="2" stroke="#000" fill="none"/>
  <path t="11849,12126,12136,12161,12172,12188,12203,12220,12220,12236,12236,12253,12270,12270,12289,12313,12333,12365,12369,12468,12612,12736,12788,12837,12853,12905,12915,12937,12955,12972,12988,13004,13005,13025,13037,13053,13053,13070,13086,13103,13103,13120,13120,13136,13153,13153,13170,13170,13186,13186,13203,13203,13220,13220,13236,13236,13236,13253,13253,13253,13270,13270,13338,13338,13338" d="m178,291c0.80133,0 1.7,0 2.60001,0c0.89999,0 1.79999,0 2.7045,0c0.86217,0 1.6955,0 2.674,0c0.82016,0 1.6575,0 2.67416,0c0.69467,0 1.71133,0 2.64734,0c0.89999,0 1.93216,-0.24426 2.616,0.284c0.62749,0.48471 1.44373,0.63123 2.05867,1.14133c0.59926,0.4971 1.26413,1.0239 1.74133,1.65869c0.57626,0.76654 0.66959,1.49368 1.16249,2.13733c0.53937,0.70432 0.73218,1.38931 1.42151,2.07864c0.7,0.70001 1.30667,1.27951 1.67467,2.10001c0.35101,0.78262 0.92319,1.58813 1.02083,2.30002c0.12242,0.89255 0.56375,1.65552 0.88316,2.62131c0.21649,0.65457 0.39099,1.63058 0.76868,2.37418c0.40645,0.80023 0.6017,1.80679 0.96333,2.47916c0.44585,0.82892 1.03365,1.4209 1.48917,2.14667c0.5164,0.82275 0.73956,1.66724 0.95284,2.43134c0.25772,0.92334 0.66811,1.70245 1.04733,2.66867c0.31354,0.79883 0.48238,1.36017 0.89999,2.41202c0.28362,0.71432 0.68762,1.55099 0.91733,2.56665c0.17932,0.79285 0.416,1.60001 0.92267,2.37866l0.50667,0.65067" id="svg_4" stroke-width="2" stroke="#000" fill="none"/>
  <path t="14263,14790,14800,14825,14838,14856,14877,14889,14903,14920,14936,14953,14953,14970,14986,14986,15003,15025,15036,15077,15101,15121,15121,15137,15169,15189,15237,15265,15289,15305,15322,15322,15338,15353,15370,15989,16009,16022,16038,16038,16055,16070,16070,16086,16086,16103,16103,16103,16120,16120,16141,16141,16141,16153,16153,16170,16170,16188,16188,16203,16203,16220,16220,16220,16236,16236,16236,16252,16252,16270,16270,16320,16321,16336,16344" d="m173,332c0.16667,1.83334 0.76358,2.31116 1.35266,2.94733c0.53299,0.57559 1.19626,0.99893 2.04733,1.478c0.72664,0.40903 1.27026,1.12146 1.95717,1.51752c0.81854,0.47195 1.76886,0.24802 2.34283,0.76166c0.73532,0.65802 1.49754,1.31982 1.94284,1.99551c0.47165,0.71567 0.87526,1.45883 1.44116,2.01599c0.67102,0.66068 0.86821,1.38528 0.916,2.284c0.04272,0.80338 0.68552,1.42258 0.94284,2.29999c0.25345,0.8642 0.41302,1.67142 1.35716,1.70001c0.89958,0.02725 1.8,0 2.7,0c0.8,0 1.70006,0.01068 2.60001,0c0.87935,-0.01044 1.3342,-0.95062 2.10449,-0.93832c0.9184,0.01465 1.4955,1.13834 1.9955,1.63834c0.7,0.69998 1.36772,1.43719 1.936,1.89999c0.80692,0.65714 1.41884,0.87201 2.364,1.56665c0.61938,0.4552 1.15858,1.01352 1.97867,1.81183c0.51793,0.50418 1.33447,1.13651 2.04216,1.52151c0.57399,0.31229 1.59183,0.76947 2.32201,1.20001c0.79314,0.46765 1.38051,1.04599 2.14116,1.49866c0.83434,0.49649 1.77209,0.72794 2.48534,0.88535c0.80682,0.17804 1.57323,0.43414 2.43333,0.71732c0.8981,0.29568 1.77888,0.61584 2.64017,0.84149c1.02731,0.26917 1.71074,0.31464 2.7905,0.35718c0.79221,0.03122 1.64934,0.28265 2.45683,0.59018l0.70084,-0.29919l-0.04816,-0.93381" id="svg_5" stroke-width="2" stroke="#000" fill="none"/>
  <path t="17050,17060,17060,17060,17074,17088,17109,17120,17136,17153,17153,17170,17170,17186,17186,17203,17203,17220,17236,17253,17253,17270,17286,17303,17321,17321,17336,17336,17353,17353,17370,17371,17386,17403,17457,17457,17461,17485" d="m188,348c6.371,8.12784 6.87248,8.92621 7.536,9.47867c0.68584,0.57108 1.33864,1.06201 1.98483,1.52133c0.69711,0.49548 1.62425,0.76413 2.47917,1.16666c0.68364,0.3219 1.48805,0.73264 2.21066,0.85867c0.99342,0.17328 1.80066,0.44226 2.62267,0.97467c0.67496,0.43719 1.47522,0.8645 2.36667,1.00134c0.91579,0.14059 1.45409,0.8085 2.40001,0.98798c0.88428,0.16776 1.81065,0.01068 2.72133,0.01068c0.85333,0 1.79466,0 2.56267,0c0.952,0 1.71802,0.03271 2.7115,-0.00449c0.74866,-0.02805 1.69052,-0.58328 2.5045,-0.87402c0.85524,-0.30545 1.7,-0.12149 2.61465,-0.20682l0.28667,-0.82935" id="svg_6" stroke-width="2" stroke="#000" fill="none"/>
  <path t="18970,18993,18993,18993,19005,19005,19022,19038,19039,19055,19055,19072,19088,19105,19122,19136,19153,19170,19189,19213,19241,19241,19261,19277,19301,19325,19337,19418" d="m212,323c3.51416,12.52051 3.64616,13.09418 3.86667,13.93201c0.28235,1.07278 0.89294,1.60733 1.1125,2.58884c0.1748,0.78143 -0.08325,1.70245 0.30482,2.59381c0.32295,0.74176 0.74794,1.5968 1.14134,2.28534c0.46523,0.81427 0.4639,1.70685 0.57466,2.60001c0.11151,0.89923 0.95729,1.28235 1,2.20001c0.04184,0.89902 0,1.79999 0,2.59998c0,0.90002 0,1.80002 0.02083,2.70001l0.33183,0.79999l0.52583,0.80002l0.12151,0.89999" id="svg_7" stroke-width="2" stroke="#000" fill="none"/>
  <path t="20370,20401,20401,20401,20412,20412,20425,20437,20454,20469,20470,20487,20503,20504,20504,20520,20520,20520,20537,20537,20553,20554,20613,20621" d="m220,362c0,6.05865 0,6.91666 0,7.59467c0,1.00082 -0.00266,1.92001 0,2.88449c0.00226,0.81635 0.68509,1.45325 0.94284,2.23068c0.25473,0.76831 0.05716,1.67551 0.05716,2.6235c0,0.92798 0,1.71848 0,2.74515c0,0.68552 0,1.52017 0,2.52151c0,0.79999 0,1.79868 0,2.74283l0,0.89099l0,0.05716" id="svg_8" stroke-width="2" stroke="#000" fill="none"/>
  <path t="21289,21299,21299,21299,21299,21299,21299,21299,21299,21316,21316,21316,21316,21316,21316,21332,21340,21352,21368,21368,21401,21465,21537,21808,21857,21881,21905,21928,21928,21941,21953,21969,21986,22003,22003,22019,22036,22036,22053,22069,22148,22158,22188,22208,22224,22249,22261,22276,22292,22305,22319,22336,22336,22353,22370,22370,22386,22402,22419,22435,22452,22468,22468,22485,22485,22502,22502,22518,22608" d="m205,363c1.5425,2.65634 1.77113,3.40942 2.00084,4.241c0.24393,0.88303 0.48166,1.79984 0.71249,2.72699c0.22745,0.91351 0.44608,1.79187 0.78667,3.36536c0.14078,0.65036 0.25117,1.21075 0.32851,1.69049c0.12015,0.7453 0.16949,1.47751 0.17149,2.56549c0.0015,0.81067 -0.13657,1.7673 0.284,2.61069c0.32993,0.66162 0.71375,1.5 0.716,2.39999c0.00224,0.89999 0,1.79999 0,2.69998c0,0.90002 0,1.80002 0,2.70001c0,0.79999 0,1.70001 0,2.60001c0,0.89999 0,1.81067 0,2.72131c0,0.85333 0,1.79333 0,2.67868c0,0.79999 0,1.70001 0,2.60001c0,0.89999 -0.18491,2.04736 0.52083,2.37915c0.88632,0.41672 1.87917,0.02084 2.77917,0.02084c0.89999,0 1.80438,0.08868 2.7,0c0.84569,-0.08374 1.28394,-0.7489 2.10001,-1.2215c0.66653,-0.38602 1.21091,-1.06775 1.89999,-1.7785c0.5732,-0.59122 1.00725,-1.36011 1.57466,-2.02533c0.4794,-0.56204 0.97392,-1.31119 1.34134,-2.17599c0.38998,-0.91794 0.59598,-1.59314 0.91733,-2.63202c0.20166,-0.65195 0.16667,-1.65067 0.16667,-2.51398l0,-0.89551l-0.00133,-0.95718" id="svg_9" stroke-width="2" stroke="#000" fill="none"/>
  <path t="23936,23936,23936,23936,23960,23989,24005,24005,24019,24019,24036,24036,24053,24069,24086,24103,24119,24136,24215,24249,24415,24445,24455,24455,24469,24488,24512,24544,24552,24569,24586,24603,24619,24636,24653,24669,24669,24686,24703,24703,24725,24753,24761,24805" d="m219,350c8.12801,5.27118 8.86993,5.60425 9.78934,6.07733c0.73523,0.37833 1.53442,0.80484 2.37733,1.08932c0.85793,0.28955 1.69496,0.7988 2.3125,1.33334c0.65269,0.56497 1.23306,1.1152 2.12083,1.52533c0.81197,0.37509 1.59697,0.93195 2.5,0.97467c0.89899,0.04251 1.45483,0.4169 2.12132,0.87851c0.71727,0.49677 1.47649,0.66812 0.67867,1c-0.8385,0.34882 -1.7,0.12149 -2.59999,0.12149c-0.90001,0 -1.80002,-0.00485 -2.7,0c-0.98938,0.00534 -1.47394,0.72559 -2.21068,0.98932c-0.83736,0.29974 -1.78932,0.01068 -2.68933,0.01068c-0.89999,0 -1.80017,0 -2.58533,0c-0.94,0 -1.948,0 -2.70401,0c-0.91066,0 -1.81065,0 -2.70616,-0.00449l-0.6685,-0.43152" id="svg_10" stroke-width="2" stroke="#000" fill="none"/>
  <path t="27223,27540,27540,27573,27601,27641,27641,27677,27682,27753,27835,28037,28088,28275,28285,28321,28360,28389,28421" d="m182,321c1,-1.16666 1.53773,-1.74478 2.39999,-1.96399c0.87315,-0.22195 1.73836,-0.42209 2.40001,-0.75201c0.84335,-0.42056 1.84285,-0.27866 2.72083,-0.284c0.87921,-0.00534 1.88799,-0.94156 2.44318,-0.52802c0.73598,0.54819 -0.48483,1.50717 -1.364,1.52802l-0.90001,0l-0.89999,0l-0.90001,0" id="svg_11" stroke-width="2" stroke="#000" fill="none"/>
  <path t="31232,31366,31376,31391,31407,31423,31424,31442,31442,31456,31456,31471,31488,31488,31505,31505,31505,31521,31522,31539,31539,31554,31571,31571,31588,31588,31588,31604,31604,31604,31621,31621,31638,31638,31638,31660,31660,31672,31688,31704,31721,31738,31754,31754,31771,31788,31788,31804,31821,31838,31838,31854,31872,31888,31904,31921,31953,31953,31960,31980,31996,32013,32028,32038,32064,32080,32088,32116,32152,32168,32217,32269,32269" d="m127,336c0,1.79999 -0.1571,2.71976 0.02084,3.5c0.21938,0.96201 0.91257,1.59369 0.97783,2.38535c0.0781,0.94751 0.031,1.73264 0.354,2.71014c0.25204,0.76279 0.56712,1.64902 0.64867,2.60718c0.06551,0.76981 0.27092,1.57092 0.5195,2.31818c0.26654,0.80127 0.6376,1.81357 1.07918,2.63248c0.45789,0.84915 1.04755,1.39929 1.37466,2.25735c0.33618,0.88181 0.51285,1.64691 1.192,2.58932c0.45143,0.62643 1.04317,1.1723 1.66666,2c0.43484,0.57724 0.84372,1.35516 1.36667,2.11734c0.48323,0.70432 1,1.65067 1.3,2.38266c0.3,0.73199 0.65831,1.56378 1.3,2.29733c0.55499,0.63443 0.98349,1.49637 1.55266,2.14999c0.51947,0.59653 1.10927,1.28906 1.48067,2.05267c0.36667,0.75391 0.68222,1.50516 1.36667,2.20001c0.59544,0.60449 1.29532,1.13953 1.716,2c0.41743,0.85385 0.84834,1.44608 1.47333,2.19998c0.54504,0.65744 0.2886,1.7381 0.77734,2.43335c0.50327,0.71591 1.1402,1.21347 1.54933,1.96664c0.43323,0.79752 0.84586,1.40643 1.50533,2.07867c0.60629,0.61804 0.61932,1.41922 1.13133,2.06866c0.48456,0.61462 0.658,1.44202 1.14734,2.05267c0.48933,0.61066 0.5,1.5 0.51067,2.38934l0.564,0.59998l0.42534,-0.55865l0,-0.7825" id="svg_12" stroke-width="2" stroke="#000" fill="none"/>
  <path t="33018,33240,33295,33444,33468,33469,33480,33493,33504,33519,33536,33552,33552,33569,33586,33586,33586,33602,33602,33619,33636,33636,33652,33669,33669,33686,33686,33702,33702,33719,33736,33752,33752,33769,33769,33786,33802,33819,33836,33852,33853,33869,33869,33886,33902,33919,33919,33936,33952,33952,33969,33969,33986,34002,34019,34036,34052,34069,34086,34086,34102,34119,34136,34152,34169,34192,34208" d="m159,346c2.58934,-0.03601 3.35225,-1.1795 4,-0.83334c0.82318,0.43991 0.12428,1.61078 0.57466,2.43335c0.42728,0.7804 0.42534,1.69998 0.42534,2.60001c0,0.89999 -0.1586,1.83331 0.08533,2.59998c0.25763,0.80972 0.8208,1.73987 0.87868,2.45068c0.06044,0.74219 0.03207,1.93948 0.036,2.63199c0.00534,0.94272 0.16151,1.95337 0.5,2.5965c0.43623,0.82886 0.49994,1.84216 0.5,2.52084c0.00009,0.97867 0.06099,1.89291 0.35266,2.65268c0.33568,0.87445 0.62933,1.71082 0.64734,2.65182c0.01649,0.862 0,1.6955 0,2.67398c0,0.82019 0.05716,1.72153 0.5,2.52151c0.44284,0.79999 0.5,1.70132 0.5,2.66666c0,0.65869 0,1.66669 0,2.52884c0,0.90451 0,1.82535 0,2.62582c0,0.85333 0,1.79468 0,2.84534c0,0.65869 0,1.66669 0,2.52884c0,0.90451 0,1.8045 0,2.7045c0,0.89999 0,1.80002 0,2.70001c0,0.89999 0,1.69998 0,2.60001c0,0.89999 0,1.79999 0,2.69998l0,0.89999l0,0.90002l0,0.89999" id="svg_13" stroke-width="2" stroke="#000" fill="none"/>
  <path t="34998,35022,35022,35022,35022,35022,35037,35037,35038,35054,35054,35071,35071,35086,35102,35102,35119,35119,35136,35152,35169,35186,35186,35208,35291" d="m150,385c1.32117,1.5495 1.65305,2.47162 1.81467,2.98801c0.33412,1.06754 0.49596,1.59518 0.85201,3.01199c0.17262,0.68689 0.29848,1.7309 0.33783,2.65717c0.0318,0.74854 0.28697,1.73871 0.57016,2.50684c0.34926,0.9473 0.42534,1.836 0.42534,2.59317c0,0.89551 -0.00558,1.75885 0,2.72198c0.00534,0.9209 0.284,1.72086 0.83333,2.52084l0.16217,0.70001l0.0045,0.89999l0,0.92801" id="svg_14" stroke-width="2" stroke="#000" fill="none"/>
  <path t="37139,37149,37149,37149,37149,37149,37149,37149,37149,37149,37163,37163,37163,37163,37163,37163,37163,37163,37174,37174,37187,37187,37204,37219,37219,37235,37236,37252,37252,37269,37270,37270,37286,37286,37302,37302,37319,37336,37360,37369,37385,37404,37432,37456,37456,37500,37604" d="m92,368c3.66666,-0.16666 4.64135,-0.2211 5.744,-0.284c1.19868,-0.06839 2.46133,-0.14133 3.756,-0.216c1.29467,-0.07468 2.5573,-0.14783 3.756,-0.216c2.07729,-0.11816 2.90004,-0.16202 3.57867,-0.19998c0.5507,-0.03082 0.98964,-0.05487 1.332,-0.08401c0.26294,-0.0224 0.47993,-0.00394 0.83334,-0.16666c0.81466,-0.37509 1.65138,-0.79736 2.34734,-0.82886c1.02639,-0.04645 1.97117,-0.23282 2.65266,-0.50449c0.97472,-0.38855 1.75327,-0.47012 2.66167,-0.50449c0.80116,-0.0303 1.76234,-0.20609 2.553,-0.42084c0.77845,-0.21146 1.81281,-0.52612 2.5335,-0.57019c0.90285,-0.05521 1.79337,-0.03491 2.731,-0.50449c0.74356,-0.37238 1.62768,-0.38922 2.52084,-0.5c0.89923,-0.11151 1.29144,-0.86484 2.2,-1.00134c0.80785,-0.12137 1.5,-0.646 2.3,-0.97781l0.97917,-0.04169" id="svg_15" stroke-width="2" stroke="#000" fill="none"/>
  <path t="39070,39249,39273,39273,39286,39302,39319,39335,39335,39356,39369,39369,39385,39385,39402,39419,39419,39435,39452,39469,39469,39485,39502,39502,39519,39519,39535,39552,39569,39569,39569,39585,39602,39619,39635,39652,39669,39700,39793" d="m94,367c-1,0.10001 -1,1 -1,1.79999c0,0.90002 0,1.80002 0,2.72086c0,0.96317 0,1.65381 0,2.7265c0,0.91931 0,1.75266 0,2.586c0,0.86215 0,1.80264 0,2.65067c0,0.86331 0,1.75882 0,2.716c0,0.90015 0,1.68533 0,2.62534c0,1.008 0,1.79999 0,2.65866c0,0.86331 0.08052,1.76233 -0.00134,2.71732c-0.08364,0.9758 -0.47621,1.60431 -0.71467,2.31467c-0.35247,1.05002 -0.284,1.98401 -0.284,2.884c0,0.89999 -0.00134,1.79868 -0.284,2.51599l-0.68,0.52002l-0.036,0.85049" id="svg_16" stroke-width="2" stroke="#000" fill="none"/>
  <path t="40771,40819,40853,40877,40901,40917,40929,40937,40955,40969,40985,41002,41002,41019,41035,41052,41052,41069,41085,41102,41102,41119,41119,41136,41152,41169,41169,41185,41202,41219,41235,41235,41252,41269,41285,41285,41302,41320,41336,41352,41369,41388,41403,41419,41435,41452,41469,41500,41536,41553,41561,41580,41592,41592,41604,41620,41635,41652,41652,41669,41669,41685,41685,41702,41724,41724,41737,41813,41823,41823" d="m81,352c0,1.70001 0,2.70001 0,3.60001c0,0.89999 0.00067,1.79999 0,2.69998c-0.00067,0.89868 -0.56688,1.37766 -0.964,2.13602c-0.40124,0.76624 -0.39623,1.71588 -0.75201,2.36398c-0.43674,0.79559 -1.09949,1.22202 -1.67333,2.06134c-0.41328,0.60446 -0.47978,1.68823 -0.96783,2.43866c-0.51816,0.79672 -1.16926,1.17459 -1.8415,1.90002c-0.53788,0.58044 -0.76218,1.56134 -1.32217,2.29999c-0.50372,0.66443 -1.1914,1.1152 -2.07916,1.52533c-0.81197,0.37509 -1.66434,0.73926 -2.4,1.14133c-0.73548,0.40198 -0.95673,1.50812 -1.64667,1.85867c-0.78053,0.39658 -1.66217,0.66196 -2.292,1.36401c-0.51291,0.57172 -1.31254,1.04355 -2.06133,1.444c-0.79144,0.42328 -1.30644,0.95441 -2.19867,1.168c-0.74982,0.1795 -1.21785,0.98315 -1.80133,1.49866c-0.63787,0.56357 -1.41762,1.05444 -1.8785,1.7215c-0.50405,0.72952 -0.56669,1.51721 -1.06883,2.13568c-0.57206,0.70459 -0.70134,1.47095 -1.10533,2.34283c-0.38534,0.83163 -0.79882,1.63953 -1.16867,2.40015c-0.34241,0.70419 -0.74612,1.55566 -0.77417,2.30435c-0.03722,0.9935 0.10444,1.9455 -0.009,2.83832c-0.11145,0.87714 -0.7115,1.55716 -0.98483,2.35718l-0.01067,0.98566l0,-0.68582l0,-0.78519" id="svg_17" stroke-width="2" stroke="#000" fill="none"/>
  <path t="42743,43165,43175,43204,43224,43225,43237,43252,43269,43285,43302,43319,43335,43335,43352,43376,43376,43385,43412,43420,43448,43489,43489,43494,43548,43568,43569,43584,43632,43660,43680,43680,43696,43704,43724,43736,43753,43770,43786,43803,43803,43820,43820,43835,43852,43869,43886,43886,43902,43903,43920,43936,43952,43969,43970,43986,44003,44020,44020,44036,44053,44053,44069,44086,44086,44103,44103,44103,44120,44120,44137,44137,44153,44153,44170,44170,44170,44186,44186,44202,44203,44203,44220,44220,44236,44236,44253,44253,44270,44270,44286,44286,44302,44302,44319,44319,44336,44336,44353,44353,44369,44384,44385,44401,44401,44421,44421,44437,44452,44452,44469,44485,44485,44508,44523,44568,44664,44688,44716" d="m49,304c-1,1 -1.35674,1.61227 -1.916,2.28534c-0.55601,0.66916 -0.52451,1.53885 -1.10933,2.27866c-0.53614,0.67822 -0.89042,1.38672 -1.58533,2c-0.66713,0.58878 -1.75197,0.60416 -2.22266,1.436c-0.41285,0.72964 -0.70845,1.48032 -1.36533,2.20001c-0.53348,0.5845 -0.98656,1.28561 -1.63467,1.96664c-0.6028,0.63342 -0.94399,1.25778 -1.388,2.05484c-0.37091,0.66583 -1.09005,1.16324 -1.612,1.94516c-0.47183,0.70685 0.22629,1.7637 -0.252,2.548c-0.49007,0.80362 -0.91467,1.38535 -0.91467,2.28534c0,0.79999 0,1.70001 0,2.60001c0,0.89999 0,1.79999 0,2.69998c0,0.90002 0,1.80002 0,2.70001c0,0.75717 0,1.65268 0,2.51599c0,0.96317 0,1.884 0,2.68533c0,0.96533 0,1.79868 0,2.77716c0,0.82019 0,1.72153 0,2.62152c0,0.81067 0,1.72131 0,2.57465c0,0.94 0,1.92535 0,2.82535c0,0.79999 0,1.63599 0,2.48401c0,0.86331 0,1.89066 0,2.83749c0,0.69934 0,1.6785 0,2.47849c0,0.80002 0,1.80002 0,2.60001c0,1 0,1.80002 0,2.80017c0,0.82068 0,1.96649 0,2.74802c0,0.7905 0,1.71848 0,2.55182c0,1.04285 0,1.76132 0,2.55182c0,1.02652 0,1.90652 0,2.92685c0,0.77399 0,1.6785 0,2.42584c0,0.99548 0,1.7955 0,2.7955c0,0.79999 0,1.79999 0,2.58932c0,1.04401 0,1.836 0,2.69598c0,0.91919 0,1.91336 0,2.67868c0,0.95065 0,1.93616 0,2.72134c0,0.95065 0,1.71597 0,2.71014c0,0.74734 0,1.77917 0,2.72583c0,0.67868 0,1.65717 0,2.67868c0,0.79999 -0.00961,1.70007 0,2.564c0.01042,0.93619 0.61067,1.42532 1.5,1.436l0.88933,-0.01068" id="svg_18" stroke-width="2" stroke="#000" fill="none"/>
  <path t="46285,46295,46295,46320,46337,46337,46361,46368,46404,46412,46428,46448,46464,46496,46524,46540,46556,46560,46576,46592,46608,46620,46636,46660,46660,46680,46704,46724,46748,46792,46792" d="m64,378c6.688,1.19867 7.34481,1.54431 8.3,1.94733c0.77911,0.32874 1.63824,0.53329 2.34283,1.10535c0.61846,0.50214 1.17495,1.17938 1.35734,2.04715c0.16653,0.79233 0.95731,1.24432 1.49983,1.90018c0.49878,0.60297 0.5,1.5 0.5,2.39999c0,0.89999 -0.15933,1.89789 0.35267,2.54733c0.48454,0.61462 0.64733,1.35266 0.64733,2.25269c0,0.89999 0,1.79999 0,2.59998c0,1.03336 0.42533,1.63602 0.91467,2.40002l0.08533,0.89999l0,0.89999l0,0.79999" id="svg_19" stroke-width="2" stroke="#000" fill="none"/>
  <path t="49372,49382,49382,49382,49405,49418,49435,49454,49468,49485,49485,49502,49502,49518,49535,49552,49569,49585,49585,49602,49618,49637,49677,49681,49702,49721,49735,49752,49768,49785,49817,49833,50012" d="m138,367c3.51401,9.0065 3.87933,9.76743 3.99466,10.78799c0.1024,0.90628 0.00534,1.81201 0.00534,2.71201c0,0.89999 0,1.70132 0,2.66666c0,0.83334 0.0184,1.81204 0,2.63202c-0.01801,0.80194 -0.61813,1.51166 -0.91467,2.40134c-0.28587,0.85764 -0.05997,1.80038 -0.08533,2.59998c-0.02859,0.9014 -0.68552,1.62259 -0.94284,2.5c-0.25345,0.8642 -0.66737,1.4379 -1.02116,2.13602c-0.39088,0.77133 0.03705,1.91415 -0.46133,2.53867c-0.48518,0.60797 -0.57466,1.42532 -0.57916,2.32083l-0.42084,0.67917l-0.57016,0.61551" id="svg_20" stroke-width="2" stroke="#000" fill="none"/>
 </g>
 <g display="none">
  <title>muse_image</title>
  <image xlink:href="http://static.flickr.com/155/376009394_aeafa0d8c4.jpg" id="muse" height="426" width="640" y="27" x="0"/>
 </g>
 <g display="none">
  <title>bbox</title>
  <rect stroke="#f00" fill="none" stroke-width="3" height="112.57658" width="185.6" y="281.57658" x="47.36" id="bbox"/>
 </g>
</svg>
