<svg width="640" height="480" xmlns="http://www.w3.org/2000/svg" xmlns:svg="http://www.w3.org/2000/svg" xmlns:xlink="http://www.w3.org/1999/xlink">
 <!-- Sketchy ANNOTATION
  ImageNet ID: n02503517_6479
  URL: http://farm2.static.flickr.com/1187/738942378_6a0da916d3.jpg
  Image Width: 500
  Image Height: 334
  BBox X: 9
  BBox Y: 20
  BBox Width: 484
  BBox Height: 312
  Exposure: 2000ms
  Synset Label: elephant
  Synset ID: n02503517
  Worker Tag: elephant
  Sanity Check: 
   Context
   Saved
   Shading
  Comment: 
   {}
  Worker ID: AQ9ISCTDF9B48
  Assignment ID: 3AUQQEL7U5TL5MV4VTROAR2CYIS0VH
  HIT ID: 34R0BODSP1Z1BYXP773O2YFWEJS5EU
  Work Time: 163s
  Worker Score: 0.9286
 END ANNOTATION -->
 <g display="inline">
  <title>Layer 1</title>
  <path t="0,207,223,247,255,287,311,326,342,358,359,375,391,414,423,433,450,471,487,487,527,543,574,583,607,630,646,662,671,687,702,726,758,782,800,800,839,851,886,900,900,935,983,1046,1086,1174,1174,1238,1246,1319,1334,1366,1398,1406,1422,1433,1450,1450,1467,1483,1483,1500,1517,1533,1550,1551,1567,1583,1583,1600,1617,1654,1671,1702,1702,1718,1733,1758,1782,1838,1838,1894,2366,2430,2446,2478,2518,2534,2598,2638,2638,2726,2822,2822,2862,2918,2942,3262,3294,3310,3334,3334,3358,3398,3462,3590" d="m24.5,234c1.7,0 2.7,0 3.6,0c0.9,0 1.8,0 2.7,0c0.9,0 1.8,0 2.7,0c0.8,0 1.7,0 2.6,0c0.9,0 1.8,0 2.7,0c0.9,0 1.8,0 2.7,0c0.8,0 1.61961,-0.00195 2.4,0.42534c0.82256,0.45038 1.83423,0.32773 2.516,0.85866c0.62658,0.48795 1.16158,1.14207 1.65866,1.74133c0.51011,0.61494 0.27936,1.69742 0.86134,2.364c0.60957,0.69818 1.43531,0.97588 1.56533,1.81067c0.14259,0.91547 0.7976,1.45622 0.988,2.40001c0.17809,0.88277 0.36378,1.70375 1.01067,2.39999c0.5605,0.60327 0.982,1.39946 1,2.3c0.01799,0.89981 0,1.8 0,2.7c0,0.8 0.19078,1.72829 -0.036,2.60001c-0.22279,0.85638 -1.25533,1.18623 -1.91133,1.75266c-0.59239,0.51147 -1.35266,0.64734 -2.25267,0.64734c-0.9,0 -1.8,0 -2.6,0c-0.95717,0 -1.85267,0 -2.716,0c-0.848,0 -1.784,0 -2.684,0c-0.90017,0 -1.68533,0 -2.62533,0c-1.008,0 -1.764,0 -2.67467,0c-0.9,0 -1.80655,0.10706 -2.7,-0.00133c-0.91964,-0.11156 -1.15973,-0.88766 -1.85266,-1.64151c-0.50155,-0.54562 -1.39568,-0.5992 -2.03133,-1.07317c-0.76882,-0.57326 -1.71619,-0.26526 -2.616,-0.284c-0.86456,-0.01801 -1.29775,-0.70448 -1.3,-1.60001c-0.00226,-0.89999 0,-1.79999 0,-2.7c0,-0.89999 0,-1.80017 0,-2.58533c0,-0.94 -0.00885,-1.94804 0,-2.70401c0.01042,-0.89001 0.66179,-1.45456 1.05267,-2.11516c0.46475,-0.78545 1.02615,-1.59735 0.946,-2.4955c-0.08234,-0.92271 -0.70317,-1.44284 -1.56267,-1.82533l-0.52,-0.69067l-0.79467,-0.50533l-0.40533,-0.69467" id="svg_1" stroke-width="2" stroke="#000" fill="none"/>
  <path t="5798,5854,5867,5883,5900,5917,5933,5933,5950,5950,5967,5967,5967,5967,5983,5983,6000,6017,6017,6033,6050,6050,6067,6083,6100,6118,6142,6174,6190,6190,6230,6262,6270,6302,6326,6350,6368,6390,6390,6422,6446,6454,6486,6510,6518,6518,6534,6550,6567,6583,6600,6617,6633,6650,6650,6667,6667,6686,6700,6717,6717,6733,6734,6751,6774,6774,6783,6783,6783,6806,6817,6817,6833,6833,6851,6867,6867,6886,6900,6917,6934,6934,6951,6951,6967,6967,6990,7000,7000,7017,7017,7033,7050,7050,7067,7067,7083,7083,7100,7100,7117,7118,7118,7118,7133,7151,7151,7151,7167,7167,7167,7167,7168,7183,7183,7183,7183,7200,7200,7217,7217,7217,7233,7233,7250,7250,7267,7267,7267,7283,7283,7283,7284,7300,7300,7300,7316,7316,7317,7317,7333,7334,7334,7350,7350,7351,7366,7366,7367,7367,7367,7383,7383,7383,7400,7400,7401,7416,7416,7433,7433,7434,7450,7450,7451,7466,7466,7467,7467,7483,7483,7500,7500,7501,7501,7516,7516,7517,7533,7533,7534,7534,7550,7551,7567,7567,7567,7567,7567,7583,7583,7584,7584,7600,7600,7601,7616,7617,7617,7633,7633,7650,7650,7651,7666,7667,7667,7683,7683,7684,7700,7701,7701,7716,7734,7734,7751,7751,7751,7766,7767,7783,7784,7800,7801,7816,7817,7833,7834,7834,7852,7852,7866,7867,7886,7886,7910,7910,7926,7950,7950,7975,7975,7983,8006,8022,8022,8033,8054,8070,8086,8086,8100,8116,8134,8134,8150,8151,8166,8167,8183,8184,8200,8201,8201,8216,8217,8233,8234,8251,8266,8283,8300,8301,8316,8342,8342,8350,8366,8367,8398,8406,8406,8438,8438,8478,8534,8534,8590,8590,8606,8630,8630,8646,8654,8670,8702,8718,8718,8742,8742,8750,8767,8784,8801,8817,8834,8852,8867,8886,8900,8926,8958,8982,9022,9118,9118,9142,9151,9151,9167,9167,9183,9184,9184,9201,9201,9217,9234,9251,9278,9278,9398,9438,9455,9479,9503,9519,9534,9535,9552,9567,9584,9585,9601,9602,9623,9647,9655,9655,9671,9695,9695,9703,9717,9734,9751,9752,9767,9768,9784,9785,9801,9817,9818,9818,9834,9853,9853,9895,9895,9935,9959,9959,9975,9999,9999,10023,10087,10103,10135,10159,10159,10191,10191,10201,10217,10239,10251,10279,10279,10311,10318,10343,10343,10359,10382,10463,10479,10543,10543,10582,10647,10719,10735,10751,10791,10838,10918,11078,11086,11087,11101,11117,11118,11134,11152,11168,11168,11184,11201,11202,11217,11235,11235,11251,11252,11267,11268,11286,11287,11311,11311,11334,11335,11359,11368,11398,11399,11430,11431,11446,11462,11486,11511,11527,11543,11543,11574,11585,11601,11617,11634,11662,11694,11718,11719,11734,11760,11782,11822,11847,11886,11887,11902,11903,11918,11943,11966,11967,11984,12001,12017,12034,12035,12054,12055,12068,12086,12087,12102,12103,12166,12238,12326,12366,12390,12402,12422,12438,12463,12479,12479,12494,12502,12518,12535,12552,12568,12568,12584,12601,12602,12618,12634,12635,12651,12668,12668,12684,12685,12701,12702,12718,12718,12718,12718,12735,12735,12752,12752,12752,12752,12752,12768,12768,12768,12769,12785,12802,12802,12818,12819,12835,12835,12853,12869,12869,12886,12902,12902,12918,12919,12935,12936,12952,12953,12969,12969,12985,12986,13002,13002,13018,13019,13036,13036,13036,13036,13052,13053,13068,13069,13085,13086,13102,13118,13119,13119,13119,13135,13136,13136,13152,13153,13153,13169,13169,13185,13186,13186,13202,13203,13218,13219,13219,13235,13236,13252,13252,13268,13269,13285,13286,13286,13302,13303,13303,13319,13319,13319,13335,13336,13336,13352,13353,13353,13369,13369,13369,13385,13386,13386,13402,13403,13418,13419,13435,13436,13436,13452,13452,13468,13469,13485,13486,13502,13519,13519,13536,13536,13552,13553,13569,13585,13586,13602,13619,13635,13662,13663,13678,13694,13710,13711,13719,13736,13752,13774,13786,13803,13819,13820,13838,13853,13869,13870,13886,13887,13902,13919,13939,13939,13959,13959,13978,13979,13999,14000,14018,14019,14019,14038,14039,14058,14059,14059,14078,14078,14097,14098,14098,14117,14118,14138,14158,14158,14177,14178,14198,14198,14218,14219,14238,14259,14260,14260,14281,14281,14302,14303,14322,14322,14342,14342,14362,14362,14382,14382,14402,14422,14423,14443,14443,14463,14482,14483,14483,14504,14504,14527,14527,14545,14565,14566,14566,14585,14606,14607,14607,14626,14646,14647,14670,14671,14687,14707,14727,14750,14783,14783,14798,14814,14830,14886,14966,15006" d="m27.5,233c1.7,-0.9955 2.70258,-0.60179 3.564,-1.036c0.69888,-0.35228 1.19835,-0.93251 2.09317,-0.96851c0.74858,-0.03011 1.74822,-0.27061 2.57883,-0.60617c0.93538,-0.37787 1.71093,-0.70308 2.53867,-0.95332c0.53787,-0.16261 1.76251,-0.40117 2.56367,-0.4315c0.9039,-0.03423 1.80249,-0.38565 2.46167,-0.7205c0.78418,-0.39835 1.86418,-0.20467 2.54733,-0.34116c0.92472,-0.18475 1.75695,-0.79295 2.65267,-0.94284c0.83818,-0.14026 1.21523,-0.9391 2.1,-1c0.89788,-0.0618 1.7,0 2.6,0c0.9,0 1.8,0 2.7,0c0.9,0 1.8,0 2.7,0c0.9,0 1.7,0 2.6,0c0.9,0 1.8,-0.00224 2.7,0c0.90001,0.00226 1.73835,0.38608 2.4,0.716c0.84336,0.42055 1.8,0.284 2.7,0.284c0.9,0 1.8,0 2.7,0c0.9,0 1.81254,-0.09149 2.55717,0.05716c0.92475,0.18462 1.55795,0.72325 2.60683,0.90685c0.8243,0.14429 1.68784,0.34328 2.39317,0.68333c0.8507,0.41016 1.77645,0.39529 2.6175,0.778c0.81091,0.36899 1.646,0.56424 2.62534,0.57466c0.78929,0.00839 1.51466,-0.00067 2.5,0c0.984,0.00067 1.91346,-0.09456 2.74284,0.35716c0.62483,0.34032 1.22282,1.26044 2.0785,1.52133c0.82309,0.25096 1.80006,0.01257 2.67867,0.12151c0.89938,0.11151 1.43704,0.92894 2.18533,0.98933c0.92773,0.07487 1.72342,0.03563 2.64,0.44667c0.71293,0.31972 1.46814,1.08122 2.27483,1.44266c0.74063,0.33183 1.53358,0.52272 2.41583,0.83734c0.94582,0.33728 1.89097,0.57346 2.19867,1.17067c0.45213,0.87753 0.34705,1.78156 0.99516,2.70433c0.41225,0.58696 1.25163,1.22168 1.9875,1.42366c1.04762,0.28754 1.66355,0.3167 2.59067,0.59601c0.57973,0.17465 1.51808,0.94312 2.37666,1.26816c0.61969,0.2346 1.51825,0.1821 2.502,0.4545c0.72818,0.20163 1.4656,0.52417 2.208,0.888c0.7486,0.36687 1.80683,0.97327 2.46367,1.37418c0.91949,0.56122 1.46375,0.93835 2.47633,1.51917c0.65743,0.37711 1.68909,0.87798 2.28083,1.18533c0.75223,0.39072 1.59343,1.10175 2.28851,1.41466c0.90926,0.40935 1.58998,0.28088 2.80133,0.57201c0.55756,0.134 1.43314,0.44545 2.31467,0.88c0.91551,0.45129 1.48424,0.845 2.10001,1.12349c1.17332,0.53064 1.80505,0.5777 2.7,0.7605c1.2079,0.24672 1.80426,0.50612 2.67917,0.94934c0.56738,0.28743 1.59953,0.75659 2.5,1c0.61963,0.1675 1.63196,0.71761 2.08333,1.04166c0.78941,0.56674 1.79602,1.16934 2.5955,1.55383c0.41524,0.19971 1.26611,0.56821 2.09,0.91919c1.08783,0.46341 1.95003,0.85989 2.69566,1.18082c0.97166,0.41818 1.49767,0.62106 2.295,0.8685c1.10976,0.34439 1.91219,0.43967 2.748,1.004c0.5829,0.39355 1.16769,0.9567 2.19867,1.26401c0.81671,0.24344 1.73485,0.28061 2.6145,0.61084c0.61111,0.2294 1.46339,0.74377 2.01483,1.07449c0.99992,0.59967 1.67223,0.99222 2.85201,1.48267c0.51331,0.21338 1.35324,0.50272 2.23466,0.79999c0.89774,0.3028 1.79866,0.60001 2.39867,0.80002c1.2,0.39999 1.80284,0.58466 2.65833,0.89999c0.77626,0.28613 1.73158,0.82703 2.46133,1.25717c0.73389,0.43256 1.41565,0.73465 2.203,1.06818c0.84448,0.35773 1.71036,0.69501 2.54401,1.008c0.75984,0.28528 1.77316,0.6395 2.36716,0.86215c1.04907,0.39322 1.95204,0.82962 2.65018,1.01917c0.98442,0.2673 1.82091,0.24667 2.63199,0.36935c1.00705,0.15231 1.8576,0.54645 2.68401,0.74933c0.79916,0.1962 1.69371,0.2128 2.68533,0.452c0.84384,0.20355 1.42004,0.41653 2.6145,0.81467c0.5961,0.19867 1.47217,0.47925 2.53349,0.89999c0.71062,0.28171 1.47433,0.75958 2.4095,0.94284c0.84337,0.16525 1.58092,0.07806 2.52518,0.3425c0.74046,0.20737 1.48138,0.48364 2.42216,1.01016c0.70636,0.39532 1.65416,0.63156 2.41116,0.78851c1.01379,0.21021 1.79549,0.62698 2.59866,1.01581c0.79691,0.3858 1.79739,0.74915 2.60001,0.87485c0.79771,0.12494 1.5925,0.33084 2.39999,0.60001c0.99135,0.33047 1.78008,0.37823 2.77867,0.42548c0.77524,0.03665 1.69601,0.3161 2.36867,0.70435c0.92924,0.53638 1.64,1.20755 2.40984,1.29102c0.89029,0.09653 1.77269,-0.13788 2.60683,0.01517c0.98016,0.17981 1.6234,0.9043 2.436,0.98798c0.89526,0.09219 1.8,0.00134 2.72083,0.00134c0.96317,0 1.65384,0 2.722,0c0.85718,0 1.75717,0 2.51434,0c0.89999,0 1.64732,0 2.64282,0c0.8,0 1.80264,0.04736 2.60001,-0.02084c1.0069,-0.08612 1.80606,-0.40216 2.60001,-0.78049c0.80637,-0.38425 1.57967,-0.83661 2.59966,-1.07733c0.74777,-0.17648 1.48778,-0.56393 2.23634,-1.09601c0.67181,-0.47751 1.59317,-0.78119 2.26399,-1.078c0.84766,-0.37506 1.5,-1.14734 2,-1.64734c0.7,-0.69998 1.40001,-1.39999 1.90001,-1.89999c0.69998,-0.69998 1.39999,-1.39999 1.89999,-1.89999c0.70001,-0.70001 1.30002,-1.29996 1.89999,-1.89999c0.70004,-0.70013 1.25555,-1.1994 1.79868,-2.08401c0.40881,-0.66583 0.75861,-1.62756 0.80133,-2.51599c0.03842,-0.79907 -0.01041,-1.70007 0,-2.60001c0.01044,-0.90018 0.5033,-1.63635 0.83334,-2.56665c0.28287,-0.7973 0.16666,-1.66669 0.16666,-2.52884c0,-0.90451 -0.30991,-1.86423 0.01068,-2.69385c0.3064,-0.79291 0.98706,-1.31516 0.98932,-2.21066c0.00226,-0.89999 0.01068,-1.78932 0.5,-2.39999c0.48932,-0.61067 0.5,-1.5 0.5,-2.39999c0,-0.90001 -0.18887,-1.86931 0.2215,-2.70001c0.34116,-0.69058 1.08575,-1.46101 1.87866,-1.77849c0.73743,-0.29526 1.75177,-0.08694 2.58652,-0.20683c1.00659,-0.14456 1.80957,-0.4294 2.36066,-0.56201c1.25702,-0.30247 2.00589,-0.12961 2.84283,-0.70532c0.68182,-0.46899 1.41669,-0.99709 2.10983,-1.64734c0.50507,-0.47383 1.57541,-0.70477 1.96399,-1.436c0.45267,-0.85185 0.03601,-1.864 0.03601,-2.76399c0,-0.90001 -0.02536,-1.8004 0,-2.60001c0.02859,-0.90135 0.47726,-1.58156 1,-2.36667c0.42404,-0.63689 0.75528,-1.6909 1.02533,-2.42267c0.31296,-0.84807 0.75464,-1.66681 1.14133,-2.41066c0.40717,-0.78325 1.2746,-1.21188 1.71201,-2.10001c0.3223,-0.65443 0.60291,-1.55455 1.09601,-2.28932c0.46524,-0.69328 1.22665,-1.17915 1.62534,-1.79601c0.60065,-0.92938 1.11996,-1.54482 1.34732,-2.46733c0.20917,-0.84871 0.51797,-1.70193 1.05267,-2.51401c0.42377,-0.64362 0.74194,-1.39354 1.39999,-2.19733c0.55389,-0.67654 1.20001,-1.23599 1.80002,-1.836c0.59998,-0.59999 1.4176,-1.26564 1.6785,-2.12134c0.25095,-0.82309 0.12149,-1.79333 0.12149,-2.67867c0,-0.8 0.19077,-1.72829 -0.03601,-2.60001c-0.22278,-0.85638 -1.42542,-1.09163 -1.84232,-1.84283c-0.36212,-0.65253 0.22693,-1.63506 0.59433,-2.35582c0.41275,-0.80971 1.23471,-1.1171 1.84799,-1.81201c0.58875,-0.66711 0.70386,-1.60481 1.23734,-2.18933c0.65686,-0.7197 0.98315,-1.576 1.42017,-2.29984c0.4368,-0.72348 1.29346,-1.05865 1.86252,-1.61617c0.6727,-0.65903 1.35794,-1.06958 2.11465,-1.56934c0.60892,-0.40215 0.98657,-1.2003 1.63467,-1.88133c0.60278,-0.63342 0.88412,-1.23334 1.17114,-2.12883c0.24387,-0.76086 1.19867,-1.03108 1.64285,-1.75717c0.41879,-0.68457 -0.67923,-1.07387 -1.24734,-1.558c-0.74533,-0.63516 -1.44064,-1.11806 -2.19998,-1.47333c-0.73141,-0.34221 -1.04388,-1.38005 -1.48535,-2.116c-0.4071,-0.67862 -1.22974,-1.28529 -1.81448,-1.90001c-0.55774,-0.58632 -0.88922,-1.56943 -1.46951,-2.10133c-0.55576,-0.50941 -1.43564,-1.10123 -1.90982,-1.79866c-0.55252,-0.81267 -1.07166,-1.46521 -1.62067,-2.32133c-0.41971,-0.65446 -0.71191,-1.51755 -0.92551,-2.304c-0.23505,-0.86542 -0.73697,-1.69196 -0.91751,-2.61749c-0.16449,-0.84319 -0.05716,-1.75717 -0.05716,-2.51434c0,-0.89549 0,-1.75883 0,-2.722c0,-0.92082 0,-1.82083 0,-2.72083c0,-0.90001 0,-1.8 0,-2.60001c0,-0.89999 -0.39819,-1.90257 0.03601,-2.76399c0.35226,-0.69888 1.05753,-1.23175 1.46399,-1.936c0.45816,-0.79385 0.88608,-1.63835 1.216,-2.3c0.42056,-0.84335 0.52603,-1.64835 1,-2.284c0.57327,-0.76881 0.50015,-1.64546 1.284,-2.08267c0.65189,-0.3636 1.29623,-1.13713 1.79999,-1.63333c0.69485,-0.68443 1.55261,-1.0309 2.40002,-1.48399c0.65198,-0.3486 1.52628,-0.53229 2.39999,-0.752c0.87216,-0.21931 1.56882,-0.78682 2.39999,-0.964c0.98105,-0.20912 1.36188,-0.74529 2.02084,-1.47917c0.55823,-0.62169 1.57822,-0.59433 2.22198,-1.22617c0.53033,-0.52052 1.31161,-1.21587 1.7825,-1.90533c0.49649,-0.72696 1.27649,-1.15106 1.89066,-1.67332c0.65378,-0.55592 0.92038,-1.25371 1.0947,-2.116c0.1908,-0.9437 0.9043,-1.5874 0.98798,-2.40001c0.09219,-0.89526 0.20157,-1.60078 0.71735,-2.284c0.46454,-0.61536 0.24445,-1.67424 0.28848,-2.56866c0.04263,-0.86607 0.60004,-1.62976 0.91019,-2.54867c0.2204,-0.65295 0.06134,-1.62428 0.08533,-2.632c0.01801,-0.75664 0.47726,-1.54823 1,-2.33333c0.42404,-0.63689 0.81149,-1.67229 1.02533,-2.45867c0.23608,-0.86819 0.60416,-1.61359 0.97467,-2.54133c0.31146,-0.77982 0.51666,-1.32343 0.71466,-2.14934c0.29337,-1.22371 0.28885,-1.96169 0.61868,-3.01733c0.20245,-0.64795 0.52759,-1.33344 0.888,-2.05199c0.37003,-0.73777 0.97571,-1.79442 1.36966,-2.4485c0.53345,-0.88565 0.86917,-1.38039 1.34766,-2.49417c0.37088,-0.86333 0.79495,-1.41046 1.36133,-2.32466c0.42218,-0.68144 0.87961,-1.48023 1.40002,-2.04284c0.67438,-0.72904 1.39999,-1.40449 1.89999,-1.9045c0.69998,-0.7 1.39975,-1.40024 1.89999,-1.9c0.70099,-0.70033 1.23734,-1.23072 2.15268,-1.8c0.68066,-0.42333 1.44714,-0.9213 2.09998,-1.39999c0.71445,-0.52388 1.45261,-0.85448 2.36334,-1.5c0.66046,-0.46812 1.37439,-0.98919 2.05865,-1.4c0.81192,-0.48746 1.47192,-1.05546 2.36819,-1.72134c0.45963,-0.34147 1.23755,-0.86115 1.77448,-1.19466c0.98715,-0.61317 1.8714,-1.02011 2.66116,-1.584c0.64243,-0.4587 1.31094,-1.2108 1.8215,-1.7c0.74738,-0.71613 1.69556,-1.21281 2.25336,-1.39999c0.96033,-0.32224 1.65448,-0.47338 2.61331,-0.8c0.82709,-0.28175 1.54163,-0.59277 2.33334,-1.16666c0.83356,-0.60422 1.34662,-1.23016 2.20001,-1.5905c0.76483,-0.32294 1.81384,-0.37142 2.59998,-0.67883c0.61221,-0.2394 1.60001,-0.76399 2.40002,-1.164c0.79999,-0.39999 1.59988,-0.80016 2.19998,-1.1c0.99857,-0.49894 1.74304,-0.92487 2.57867,-1.17867c0.75906,-0.23055 1.68292,-0.46912 2.42584,-0.82583c1.00296,-0.48158 1.60132,-0.82237 2.28082,-1.01017c0.98322,-0.27173 1.83908,-0.25392 2.716,-0.36933c1.20377,-0.15842 1.79642,-0.32659 2.64151,-0.6205c1.04718,-0.36418 1.71793,-0.72561 2.40982,-0.93833c0.95309,-0.29304 1.78558,-0.30989 2.65182,-0.40984c1.19922,-0.13837 1.78961,-0.30562 2.65952,-0.522c1.06766,-0.26557 1.77771,-0.39201 2.6315,-0.42083c1.00394,-0.0339 1.82144,0.03486 2.8045,-0.22584c0.81882,-0.21715 1.79364,-0.65964 2.59998,-0.74266c0.79657,-0.08202 1.80002,-0.036 2.60001,-0.036c0.99869,0 1.76401,0 2.716,0c0.76801,0 1.70935,0 2.71735,0c0.79199,0 1.65198,0 2.57117,0c0.99417,0 1.75949,0 2.71014,0c0.88535,0 1.68533,0 2.58536,0c0.89999,0 1.84467,-0.05753 2.62115,0.2215c0.85205,0.30619 1.31799,1.15822 2.03601,1.72584c0.71198,0.56285 1.62869,0.47266 2.35748,1.13667c0.59641,0.54339 0.7608,1.57468 1.26001,2.30534c0.46216,0.67647 1.47171,0.87103 1.90399,1.71066c0.33392,0.64859 0.77493,1.46041 1.41684,2.2c0.57861,0.66669 0.76105,1.45805 1.40982,2c0.67697,0.5655 1.20563,1.36391 1.73068,2.1c0.47821,0.67039 1.13943,1.22561 1.8685,1.9c0.56262,0.52043 1.39188,0.94363 2.04282,1.45716c0.83127,0.6558 1.11084,1.2935 1.81934,2.24284c0.45975,0.61601 1.00531,1.16664 1.66669,1.83334c0.66397,0.66933 1.33331,1.33332 1.81934,1.81933c0.69467,0.69466 1.32599,1.326 1.97266,1.97267c0.69598,0.696 1.20023,1.19978 1.72198,1.722c0.76633,0.76701 1.23755,1.52041 1.71402,2.25266c0.52225,0.80258 1.36469,1.08652 2.05331,1.884c0.4129,0.47816 0.95819,1.51778 1.48535,2.10533c0.57172,0.63722 1.19998,1.21066 1.81067,1.82133c0.75598,0.75599 1.24203,1.24197 1.76398,1.764c0.80386,0.80397 1.45847,1.42057 1.92517,2.14667c0.42038,0.65404 0.6069,1.73781 1.01001,2.37417c0.55124,0.87018 1.42419,1.08097 2.13751,1.6045c0.65262,0.47898 1.41931,0.97666 2.09998,1.39999c0.91534,0.56928 1.65268,1.3 2.15268,1.8c0.70001,0.7 1.23901,1.1636 1.89999,1.91067c0.63956,0.72285 0.9408,1.46832 1.48535,2.10533c0.68677,0.80338 1.49612,1.13104 2.22931,1.684c0.61191,0.46148 1.33377,1.17464 1.88535,1.96667c0.4404,0.63238 0.7836,1.36102 1.39999,2.208c0.58469,0.80338 0.97351,1.46671 1.39999,2.14133c0.47141,0.74569 1.20026,1.48376 1.70001,1.984c0.69901,0.69966 1.13437,1.3344 1.55267,2.2c0.39551,0.81845 1.4046,1.07845 1.922,1.73601c0.50998,0.64816 0.91431,1.28867 1.50449,2.064c0.55908,0.73447 0.94617,1.47467 1.52084,2.02083l0.35266,0.77917l0.526,0.8" id="svg_2" stroke-width="2" stroke="#000" fill="none"/>
  <path t="17336,17367,17383,17383,17391,17391,17391,17401,17401,17401,17418,17418,17418,17435,17435,17435,17451,17451,17451,17451,17468,17468,17468,17468,17468,17468,17485,17485,17485,17505,17505,17505,17505,17526,17527,17527,17527,17527,17546,17546,17546,17607,17607,17615,17630,17636,17637,17637,17656,17656,17656,17656,17669,17669,17669,17669,17669,17669,17669,17669,17670,17686,17686,17686,17686,17702,17702,17702,17702,17702,17702,17702,17719,17719,17719,17719,17719,17719,17783,17783,17783,17799,17808,17808,17818,17818,17835,17835,17835,17852,17852,17852,17852,17852,17868,17868,17868,17885,17885,17885,17901,17901,17901,17901,17918,17918,17918,17918,17919,17919,17935,17935,17935,17936,17936,17936,17936,17936,17936,17951,17951,17951,17951,17951,17951,17951,17951,17951,17968,17968,17968,17968,17968,17968,17968,17969,17969,17991,17991,17991,17991,17991,17991,17991,17991,17991,18002,18002,18002,18018,18018,18035,18035,18035,18052,18052,18068,18069,18069,18085,18101" d="m399.5,97c0.61066,-1.6 1.30493,-2.30408 1.75717,-2.75716c0.72751,-0.72884 1.28687,-1.25161 1.75882,-1.9295c0.66501,-0.95522 0.82895,-1.553 1.23666,-2.36066c0.53067,-1.05122 1.08069,-1.71014 1.59467,-2.34817c0.6416,-0.79647 1.00119,-1.43234 1.46252,-2.0045c0.68143,-0.84512 1.47723,-1.42663 2.01147,-1.944c0.59879,-0.57986 1.20139,-1.30753 1.77469,-2.192c0.3027,-0.46698 0.85001,-1.45975 1.09598,-1.96266c0.46835,-0.95752 0.84262,-1.8241 1.14551,-2.87717c0.16013,-0.55669 0.47644,-1.80014 0.73318,-2.31084c0.43845,-0.87212 0.84949,-1.46852 1.42932,-2.48c0.4079,-0.71153 0.793,-1.4519 1.20001,-2.172c0.39328,-0.69583 0.97626,-1.63702 1.58932,-2.37866c0.36115,-0.43688 1.11209,-1.35583 1.79999,-1.83601c0.73343,-0.51196 1.37753,0.12392 1.63217,1.09617c0.19,0.72536 0.46677,1.51533 0.7785,2.2905c0.3024,0.75196 0.74298,1.64449 0.92868,2.0195c0.73404,1.48245 1.05682,2.11749 1.40598,2.81783c0.37189,0.74598 0.75702,1.52083 1.1445,2.30849c0.38452,0.78167 0.75681,1.54053 1.09952,2.2635c0.59454,1.25423 0.81934,1.76263 1.1535,2.56533c0.36377,0.87382 0.92938,2.02837 1.15381,2.39917c0.53076,0.877 0.85306,1.35487 1.19736,1.85533c0.7243,1.05285 1.10779,1.58461 1.91666,2.60416c0.39285,0.49516 1.18329,1.40829 1.57867,1.81867c0.73526,0.76315 1.02396,1.19942 2.37817,2.02866c0.49811,0.30501 1.38449,0.36858 2.41782,0.49667c0.96249,0.11931 1.65601,0.46039 2.45868,0.98933c0.69583,0.45854 1.48785,1.10139 2.02399,1.42133c0.66074,0.3943 1.789,1.11636 2.448,1.5885c0.34729,0.2488 1.05112,0.76648 1.72668,1.3075c0.93503,0.74881 1.70078,1.44164 2.14667,1.87199c0.83035,0.80141 1.42133,1.41066 2.02133,2.01067c0.79999,0.8 1.20267,1.20267 1.84164,1.84167c0.47269,0.47268 1.29279,1.29057 1.93167,1.93301c0.35062,0.35256 1.11127,1.1283 1.52002,1.55466c0.4313,0.44991 1.84131,1.96948 2.35049,2.53584c0.53485,0.59492 1.09253,1.22474 1.68149,1.8855c0.62003,0.6956 1.27405,1.4271 1.96951,2.1915c0.73245,0.80504 2.33585,2.52702 3.21149,3.44267c0.90826,0.94979 1.8465,1.91381 2.79901,2.8845c0.95151,0.96964 1.89526,1.92205 2.81699,2.8485c0.88629,0.89086 2.51102,2.51551 3.22684,3.23133c0.65085,0.65084 1.24167,1.24168 1.7775,1.7775c0.48584,0.48583 0.92667,0.92664 1.32751,1.32749c0.36581,0.36583 1.01248,1.0125 1.30267,1.30267c0.27115,0.27115 0.52432,0.52432 0.7605,0.7605c0.22015,0.22017 0.42532,0.42534 0.61649,0.6165c0.17816,0.17816 0.49951,0.4995 0.64465,0.64467c0.50064,0.5007 1.22284,1.22284 1.77869,1.77867c0.72684,0.72682 1.24362,1.24205 1.75882,1.75883c0.73248,0.73471 1.26013,1.2764 1.96667,2.252c0.34363,0.47447 0.8075,1.22665 1.34799,2.25999l0.336,0.80533" id="svg_3" stroke-width="20" stroke="#fff" fill="none"/>
  <path t="20568,20767,20815,20863,20927,20951,20991,21031,21047,21063,21063,21079,21095,21119,21151,21159,21159,21168,21185,21201,21201,21201,21218,21235,21235,21251,21268,21285,21301,21301,21318,21318,21335,21359,21360,21368,21368,21385,21401,21418,21418,21435,21435,21451,21451,21468,21485,21485,21501,21501,21518,21535,21535,21551,21551,21568,21568,21585,21585,21601,21601,21618,21618,21618,21635,21635,21651,21651,21668,21668,21685,21701,21718,21718,21735,21735,21752,21752,21752,21768,21769,21785,21801,21818,21839,21839,21863,21871,21871,21895,21903,21918,21935,21935,21951,21968,21968,21968,21985,22001,22018,22039,22055,22055,22071,22095,22119,22119,22127,22127,22127,22166,22175,22191,22191,22207,22231,22231,22247,22247,22255,22270,22286,22302,22303,22318,22319,22335,22351,22368,22368,22385,22385,22402,22402,22418,22419,22419,22435,22435,22435,22452,22452,22468,22468,22468,22494,22495,22502,22534" d="m404.5,69c1.70001,0 2.70001,0 3.60001,0c0.89999,0 1.79999,0 2.69998,0c0.90002,0 1.80002,0 2.70001,0c0.79999,0 1.6196,-0.00194 2.39999,0.42533c0.82257,0.45038 1.70001,0.57467 2.60001,0.57467c0.79999,0 1.70496,-0.0726 2.54166,0.02084c1.01459,0.1133 1.70514,0.41789 2.453,0.6265c1.02966,0.28721 1.97202,0.57326 2.60535,0.92734c0.86127,0.48151 1.84454,0.32986 2.60001,0.70933c0.86719,0.43559 1.55832,0.67422 2.45267,0.7205c0.86594,0.04482 1.66956,0.54481 2.51398,0.82883c0.80185,0.26971 1.84894,-0.00639 2.63202,0.252c0.77371,0.25529 1.50516,0.87066 2.52264,0.91483c0.67834,0.02945 1.66904,0.20252 2.30402,0.6105c0.87555,0.56255 1.53561,0.99236 2.48932,1.30534c0.87427,0.28692 1.48953,0.75172 2.36801,1c0.78812,0.22273 1.48703,0.78243 2.22717,1.384c0.58698,0.47708 1.38721,0.92512 2.04282,1.39999c0.87604,0.63453 1.61768,0.96629 2.36334,1.5c0.65829,0.47117 1.40109,0.95273 2.05865,1.436c0.85129,0.62566 1.28207,1.39923 1.70935,1.88c0.70279,0.79073 1.48761,1.14481 2.36334,1.784c0.52054,0.37995 1.45963,0.91829 2.04282,1.39999c0.73572,0.60769 1.09857,1.43739 1.54318,2.3c0.36932,0.71648 0.74207,1.48022 1.35199,2.21067c0.65457,0.7839 1.04474,1.39271 1.51016,2.13216c0.49118,0.78038 1.07578,1.28938 1.69385,2.05717c0.60013,0.74551 0.41248,1.76058 0.77731,2.6c0.29752,0.68455 1.25952,1.21675 1.66669,2c0.38669,0.74385 0.57874,1.55284 1.14133,2.38934c0.45844,0.68162 0.88409,1.34059 1.10934,2.128c0.25491,0.89103 0.92285,1.6452 1.31598,2.308c0.40717,0.68647 1.03659,1.50935 1.47867,2.2745c0.45587,0.78905 0.9686,1.30457 1.40533,2.10017c0.35577,0.64812 0.59869,1.51176 0.75201,2.436c0.14487,0.87325 0.56906,1.57745 1.064,2.56384c0.29663,0.59118 0.71948,1.30161 1.28934,2.16416c0.54425,0.82381 0.4325,1.67583 0.69598,2.436c0.32333,0.93291 1.05658,1.49946 1.39383,2.2c0.45844,0.95232 0.61536,1.79255 1.02084,2.5c0.45471,0.79332 0.48792,1.70142 0.5,2.66667c0.01044,0.83353 0.1846,1.65724 0.57468,2.42267c0.40833,0.80124 0.34683,1.735 0.59198,2.57733c0.25082,0.86177 0.74017,1.65567 0.82266,2.45866c0.10593,1.03096 0.01068,1.83633 0.01068,2.79601c0,0.80399 -0.01178,1.62607 0.00015,2.65717c0.01041,0.90085 0.02396,1.53874 0.35703,2.526c0.29431,0.87238 0.75385,1.81267 1.03217,2.61015c0.18201,0.5215 0.48917,1.64233 0.60617,2.47633l0.06165,0.95184l0.65884,0.44116" id="svg_4" stroke-width="2" stroke="#000" fill="none"/>
  <path t="24503,24759,24775,24799,24807,24831,24839,24851,24868,24894,24894,24942,24958,24982,24998,25006,25018,25034,25051,25051,25068,25068,25084,25084,25101,25118,25118,25118,25134,25134,25134,25151,25151,25168,25168,25168,25168,25184,25184,25201,25201,25201,25218,25218,25218,25234,25234,25234,25234,25251,25251,25251,25268,25268,25268,25284,25284,25284,25301,25301,25301,25318,25318,25318,25318,25334,25334,25351,25351,25351,25368,25368,25368,25384,25384,25401,25401,25418,25418,25418,25434,25434,25434,25451,25468,25468,25468,25484,25501,25501,25518,25518,25534,25534,25551,25551,25568,25568,25584,25584,25601,25601,25601,25618,25634,25651,25651,25668,25684,25701,25701,25718,25734,25734,25734,25751,25751,25768,25768,25790,25806,25818,25834,25852,25868,25868,25884,25901,25918,25934,25951,25951,25990,26007,26007,26038,26051,26068,26084,26101,26118,26118,26134,26151,26168,26168,26184,26184,26201,26230,26230,26254,26254,26268,26268,26284,26301,26301,26318,26318,26334,26334,26334,26351,26351,26368,26368,26384,26384,26401,26401,26418,26418,26434,26434,26451,26451,26468,26468,26484,26484,26502,26502,26534,26534,26551,26551,26568,26584,26601,26601,26618,26618,26634,26651,26652,26668,26668,26685,26685,26701,26701,26701,26718,26718,26735,26735,26752,26752,26769,26769,26785,26785,26785,26802,26802,26818,26818,26835,26835,26852,26852,26869,26869,26885,26885,26901,26902,26918,26935,26935,26951,26968,26968,26985,26985,27001,27002,27018,27018,27046,27046,27062,27062,27086,27110,27134,27134,27151,27168,27185,27185,27202,27219,27219,27235,27235,27235,27252,27269,27269,27286,27302,27302,27320,27320,27336,27352,27369,27370,27390,27390,27402,27402,27419,27420,27435,27453,27453,27469,27470,27485,27502,27503,27519,27535,27535,27552,27553,27569,27570,27585,27585,27602,27602,27602,27619,27619,27620,27636,27636,27652,27652,27670,27670,27685,27685,27702,27703,27720,27720,27720,27735,27753,27769,27770,27770,27785,27785,27802,27802,27819,27835,27853,27853,27870,27870,27885,27903,27919,27936,27952,27969,27985,28003,28038,28054,28068,28094,28118,28142,28158,28168,28214,28230,28238,28254,28254,28270,28286,28286,28303,28319,28319,28319,28336,28336,28337,28352,28353,28369,28370,28385,28386,28402,28402,28419,28420,28435,28452,28452,28469,28486,28486,28486,28503,28503,28520,28520,28520,28535,28553,28553,28553,28570,28585,28586,28586,28603,28620,28620,28638,28652,28652,28670,28686,28686,28703,28703,28703,28719,28720,28735,28736,28752,28752,28770,28786,28786,28786,28803,28803,28819,28820,28820,28820,28836,28836,28836,28837,28857,28857,28877,28878,28878,28878,28896,28897,28897,28913,28913,28933,28934,28934,28949,28949,28970,28970,28998,28998,29014,29014,29030,29046,29046,29060,29060,29080,29080,29099,29099,29099,29115,29116,29116,29136,29137,29137,29155,29156,29156,29156,29156,29175,29176,29176,29195,29195,29195,29196,29215,29215,29234,29234,29235,29250,29250,29250,29267,29267,29284,29297,29298,29298,29314,29314,29315,29315,29330,29346,29346,29362,29362,29377,29377,29394,29394,29409,29410,29425,29426,29441,29441,29441,29457,29457,29473,29490,29490,29507,29507,29523,29523,29543,29564,29564,29580,29582,29582,29600,29601,29602,29617,29617,29634,29634,29649,29649,29670,29690,29690,29707,29707,29724,29724,29744,29744,29761,29762,29782,29802,29820,29820,29836,29836,29854,29854,29854,29873,29894,29894,29895,29910,29928,29948,29949,29965,29984,29985,29985,30014,30014,30046,30142,30158,30190,30190,30198,30230,30246,30246,30254,30269,30286,30302,30302,30319,30336,30336,30352,30352,30369,30387,30388,30405,30421,30421,30454,30478,30494,30494,30503,30504,30522,30539,30566,30567,30598,30598,30614,30614,30630,30630,30654,30654,30668,30669,30686,30703,30703,30720,30720,30736,30753,30753,30754,30770,30798,30798,30807,30807,30820,30837,30837,30854,30871,30872,30887,30888,30888,30904,30904,30920,30921,30921,30936,30954,30955,30971,30971,30972,30987,30987,30988,31004,31004,31005,31005,31021,31022,31023,31023,31038,31038,31039,31039,31055,31056,31056,31056,31072,31072,31072,31089,31090,31105,31106,31107,31122,31123,31139,31156,31156,31174,31175,31175,31191,31191,31192,31208,31208,31225,31226,31242,31258,31259,31259,31275,31276,31276,31276,31293,31293,31311,31311,31312,31328,31328,31329,31345,31346,31362,31363,31390,31390,31390,31406,31422,31422,31432,31449,31470,31486,31510,31526,31526,31535,31550,31567,31585,31600,31600,31622,31646,31646,31670,31694,31702,31726,31742,31743,31758,31770,31787,31805,31822,31846,31870,31886,31910,31926,31927,31958,31982,32030,32046,32062,32062,32070,32086,32110,32142,32165,32181,32182,32198,32214,32246,32270,32302,32317,32358,32390,32390,32405,32486,32541,32573,32590,32605,32622,32622,32630,32630,32646,32662,32679,32680,32726,32726,32782" d="m398.5,67c1.70001,0 2.70001,0 3.60001,0c0.89999,0 1.79999,0 2.69998,0c0.90002,0 1.80002,0 2.70001,0c0.79999,0 1.70001,0 2.60001,0c0.89999,0 1.79999,0 2.69998,0c0.90002,0 1.80002,0 2.70001,0c0.75717,0 1.65717,0 2.40451,0c0.99417,0 1.93832,0 2.84283,0c0.91931,0 1.79431,0 2.43933,0c0.99731,0 1.81332,0 2.62933,0c1.00131,0 1.94531,0 3.01733,0c0.63333,0 1.64581,0 2.30417,0c1.09833,0 2.0025,0 2.90549,0c0.729,0 1.56601,0 2.75699,0c0.60001,0 1.5,0 2.70001,0c0.60001,0 1.5,0 2.39999,0c0.89999,0 1.80002,0 2.70001,0c0.89999,0 1.79764,-0.03252 2.664,0.036c1.07394,0.08493 1.76895,0.34703 2.6315,0.61133c0.99698,0.30549 1.6564,0.32989 2.37515,0.522c1.21915,0.32587 1.87833,0.68532 2.57867,0.98c0.68106,0.28655 1.87296,0.72953 2.60901,0.80901c1.03647,0.11192 1.85791,0.00317 2.72699,0.127c1.00702,0.14349 1.80939,0.39692 2.54532,0.716c0.81955,0.35532 1.49924,0.90205 2.431,1.15051c0.78793,0.21011 1.76553,0.47945 2.56369,0.89883c0.5535,0.29083 1.59659,0.85581 2.31299,1.0395c0.78992,0.20254 1.81308,0.57999 2.62833,1.10983c0.64157,0.41697 1.32495,0.83297 2.33334,0.97916c0.81308,0.11788 1.68024,-0.07899 2.616,0.02351c0.78149,0.08559 1.5145,0.73811 2.09467,1.14666c0.94925,0.66846 1.81668,0.68134 2.76801,1.07217c0.69812,0.2868 1.33356,0.8952 2.04218,1.2785c0.96701,0.52308 1.74805,0.93941 2.49384,1.21467c0.83041,0.3065 1.84195,0.14877 2.68533,0.56933c0.66162,0.32993 1.56131,0.67692 2.29999,1.23684c0.66458,0.50375 1.1636,1.21815 1.91068,1.87917c0.72281,0.63956 1.43008,0.97449 2.10532,1.4c0.74951,0.47234 1.33957,1.04721 2.13669,1.4955c0.83649,0.47042 1.758,0.57964 2.64731,1.05717c0.74814,0.4017 1.31229,1.00407 1.98535,1.56333c0.66916,0.55602 1.53885,0.52451 2.27866,1.10933c0.67822,0.53615 1.29193,0.984 2.03601,1.58533c0.65411,0.52863 1.19998,1.18934 1.89999,1.88934c0.60001,0.6 1.14478,1.26098 1.89999,1.88934c0.65643,0.54617 1.27029,1.15743 1.95718,1.5535c0.81848,0.47195 1.88147,0.1602 2.35748,0.8585c0.5108,0.74932 1.06946,1.19223 1.93799,1.55584c0.71643,0.29993 1.48163,0.82121 2.146,1.44283c0.6203,0.58041 1.30023,1.3011 1.90137,1.89999c0.60339,0.60112 1.1861,1.0988 2.11462,1.7c0.61658,0.3992 1.0813,1.19943 1.7547,1.8c0.69299,0.61806 1.565,0.98106 2.18335,1.55717c0.75439,0.70284 1.24731,1.24284 1.76331,1.75883c0.73132,0.73133 1.36798,1.368 1.96802,1.968c0.69067,0.69066 1.37671,1.32376 1.88,1.89066c0.67438,0.75959 0.85876,1.59789 1.63599,2.292c0.54071,0.4829 1.52722,0.54708 2.17468,0.98c0.87238,0.58332 1.26343,1.38047 1.82532,2.18667c0.46704,0.67007 1.17004,1.40384 1.75714,1.86666c0.69281,0.54618 1.44818,0.85448 2.35889,1.5c0.66046,0.46812 1.40967,0.93676 2.02264,1.4c0.81689,0.61734 1.37402,1.22988 2.06134,1.68667c0.70667,0.46964 1.07587,1.38046 1.5,2.06067c0.56836,0.91148 1.37152,1.34834 2,1.7625c0.71118,0.46866 0.98315,1.30788 1.50134,2.28883c0.30951,0.58588 0.93555,1.47391 1.62396,1.96533c0.66418,0.47414 1.47345,0.89174 1.97333,1.52133c0.56995,0.71785 0.95294,1.66655 1.50586,2.362c0.53632,0.67458 1.19629,1.22234 1.6955,1.7735c0.86316,0.95297 1.23035,1.58238 1.6955,2.32201c0.49146,0.78152 1.03223,1.39165 1.50452,2.14116c0.42554,0.67523 1.0213,1.61584 1.5,2.26868c0.52386,0.71442 0.85968,1.44849 1.39996,2.226c0.46643,0.67128 1.08923,1.5117 1.5,2.196c0.48718,0.81158 0.87604,1.46443 1.42084,2.32533c0.4751,0.75078 1.29108,0.96072 1.86932,1.8c0.49133,0.71312 0.85199,1.42947 1.59387,1.89999c0.67401,0.42747 1.75677,0.90411 2.1543,1.55717c0.49335,0.81044 0.42297,1.85332 1.07153,2.48566c0.56244,0.54837 1.54346,0.84418 2.00348,1.55717c0.52142,0.80823 0.80219,1.70515 1.38666,2.3c0.59473,0.60529 1.3996,1.23466 1.77869,2c0.41943,0.84677 0.87268,1.45695 1.62134,1.92082c0.75665,0.46883 1.10077,1.2001 1.59998,2.179c0.30054,0.58926 0.73926,1.28923 1.28937,2.17484c0.47913,0.77127 0.43701,1.69205 0.96332,2.52c0.40753,0.64114 0.55164,1.52263 1.00452,2.34816c0.34222,0.62379 1.20392,1.21455 1.59015,2.05717c0.35242,0.76892 0.79181,1.4348 1.25269,2.18533c0.43341,0.70583 0.85175,1.74178 1.29999,2.47299c0.45313,0.7392 1.30194,0.95384 2,1.58334c0.73059,0.65886 0.95984,1.4838 1.5,2.29166c0.44702,0.66852 0.81311,1.52615 1.2215,2.26668c0.37201,0.67448 1.20392,1.2755 1.87836,2.00017c0.48297,0.51895 0.74365,1.39847 0.95282,2.24716c0.22736,0.92252 0.79077,1.51123 1.24731,2.31433c0.44202,0.77757 0.80328,1.75847 1.10004,2.56366c0.20221,0.54854 0.60272,1.60686 0.89545,2.3175c0.35065,0.8513 0.57355,1.86403 0.72986,2.62117c0.19946,0.96614 0.70459,1.56534 0.922,2.49316c0.17218,0.73482 0.28577,1.7659 0.66333,2.50684c0.43152,0.84679 1.06018,1.46625 1.26782,2.37866c0.21362,0.93861 -0.16754,1.73148 0.1322,2.77467c0.2196,0.7644 0.87799,1.34547 0.98932,2.20349c0.09229,0.71147 0.35712,1.6694 0.80133,2.36183c0.49402,0.77007 0.87701,1.64536 1.17334,2.48134c0.33728,0.95143 0.84308,1.64069 1.078,2.39317c0.28143,0.90149 0.41626,1.66695 0.922,2.59616c0.39825,0.7318 1.01465,1.25734 1.02533,2.14667c0.01068,0.88933 0.71698,1.37706 0.98932,2.11067c0.30969,0.83426 0.55383,1.59264 0.88916,2.48933c0.31812,0.85063 0.5719,1.44493 1.03619,2.18533c0.48804,0.77826 -0.00336,1.81905 0.08533,2.71466c0.08374,0.8457 0.93909,1.21523 1,2.10001c0.06183,0.89787 0.1076,1.71164 -0.03601,2.536c-0.18274,1.04903 -0.72821,1.68106 -0.9068,2.61133c-0.17365,0.9046 -0.04071,1.80875 -0.22784,2.43933c-0.30505,1.02803 -0.84155,1.78568 -1.12402,2.30351c-0.56049,1.02751 -0.75171,1.90631 -1.0625,2.66699c-0.31171,0.76289 -0.86194,1.73206 -1.12201,2.32201c-0.43414,0.98491 -0.53796,1.78612 -0.87347,2.67351c-0.26685,0.70581 -0.47949,1.77921 -0.93268,2.54733c-0.4021,0.68155 -1.16589,1.1727 -1.71466,1.96664c-0.44336,0.64148 -0.80023,1.43454 -1.29999,2.43335c-0.30017,0.59991 -0.79028,1.60486 -1.10004,2.18933c-0.38788,0.73187 -1.04138,1.55563 -1.59998,2.37732c-0.43323,0.63733 -0.78363,1.36102 -1.40002,2.20801c-0.58466,0.80338 -0.97253,1.46735 -1.39996,2.14133c-0.47052,0.74188 -1.33807,1.26141 -2,1.56802c-0.86908,0.40256 -1.5,1.21597 -2,1.71597c-0.70001,0.70001 -1.27777,1.32535 -1.87201,1.836c-0.84027,0.72211 -1.57013,1.19226 -2.07733,1.50269c-0.90277,0.55255 -1.75458,0.7688 -2.73468,1.14667c-0.71234,0.27463 -1.43951,0.89597 -2.21149,1.35748c-0.77911,0.46582 -1.62177,0.80521 -2.1405,1.20786c-0.75922,0.58926 -1.5697,0.96521 -2.40002,1.19998c-0.93597,0.26462 -1.72797,0.65213 -2.28479,0.991c-0.89185,0.54276 -1.77521,1.16385 -2.37469,1.54935c-0.58008,0.37302 -1.38824,0.9263 -2.42181,1.23965c-0.68805,0.20862 -2.01819,0.32498 -2.64935,0.45468c-0.67584,0.13889 -1.68945,0.36951 -2.53333,0.71466c-0.83459,0.3414 -1.45465,0.77722 -2.50983,0.94733c-0.76947,0.12405 -1.83673,0.17557 -2.53302,0.40985c-0.87262,0.29361 -1.64374,0.77121 -2.43634,1.12198c-0.98425,0.43558 -1.78217,0.54861 -2.67798,0.8735c-0.75519,0.2739 -1.53827,0.57504 -2.50684,0.63666c-0.94885,0.06036 -1.86713,0.13812 -2.43597,0.62134c-0.74884,0.63608 -1.27783,1.13235 -2.2467,1.37466c-0.83417,0.20862 -1.57996,0.44708 -2.37866,0.86536c-0.82764,0.43344 -1.5932,0.87347 -2.54932,1.08798c-0.6701,0.15036 -1.65485,0.2562 -2.47198,0.508c-0.9248,0.28497 -1.92102,0.71783 -2.63733,1.03601c-0.74231,0.32974 -1.47998,0.68484 -2.23206,0.948c-1.04913,0.3671 -1.72382,0.4931 -2.67328,0.548c-1.20886,0.06992 -1.80939,0.02133 -2.68988,0.02133c-0.83545,0 -1.83679,0 -2.74615,0c-0.94135,0 -1.72729,0 -2.54932,0c-1.05865,0 -1.98932,0 -2.62085,0c-1.00317,0 -1.94733,0 -2.85632,0c-1.08148,0 -1.76251,0 -2.56952,0c-1.17865,0 -1.776,0 -2.63696,0c-0.771,0 -1.88037,0 -2.86304,0c-0.85333,0 -1.79468,0 -2.56262,0c-0.95203,0 -1.71735,0 -2.71603,0c-0.79999,0 -1.79999,0 -2.60001,0c-1,0 -1.79999,0 -2.79999,0c-0.79999,0 -1.60001,0 -2.59549,0c-0.74734,0 -1.77917,0 -2.72583,0c-0.85333,0 -1.81006,-0.08911 -2.56268,0.08533c-0.97501,0.22598 -1.60825,0.73663 -2.49066,0.87866c-0.93549,0.15057 -1.836,0.03601 -2.8255,0.03601c-0.82068,0 -1.48517,0 -2.48383,0c-0.81601,0 -1.63202,0 -2.63068,0c-0.87466,0 -1.8898,-0.0665 -2.66449,0.02084c-1.01282,0.1142 -1.69705,0.67554 -2.54169,0.97916c-0.94614,0.34012 -1.67056,0.64648 -2.67899,0.87866c-0.76862,0.17697 -1.65707,0.24683 -2.30017,0.64218c-0.85605,0.52628 -1.45895,1.07938 -2.47849,1.35767c-0.79968,0.21829 -1.72998,0.02298 -2.54236,0.14233c-0.98911,0.14532 -1.6673,0.64035 -2.67917,0.85767c-0.78833,0.16931 -1.79999,0.12149 -2.58932,0.12149c-0.72534,0 -1.73151,0 -2.75333,0c-0.70801,0 -1.46429,-0.15768 -2.48535,0.00134c-0.92203,0.14362 -1.40952,0.93097 -2.32382,0.99417c-0.89343,0.06177 -1.81409,0.17307 -2.48416,0.42981c-0.76447,0.29291 -1.75824,0.54468 -2.67868,0.57333c-0.84894,0.02643 -1.79184,0.10831 -2.68533,0c-0.91977,-0.11148 -1.65909,-0.39752 -2.36398,-1.02399c-0.63794,-0.56696 -0.4295,-1.62738 -0.436,-2.32199c-0.01044,-1.11118 -0.7673,-1.58612 -0.98932,-2.29935c-0.29904,-0.96066 0.03357,-1.74075 -0.36334,-2.59616c-0.42334,-0.91232 -0.60144,-1.64413 -0.65802,-2.58252c-0.04181,-0.69342 -0.61749,-1.62698 -0.86783,-2.49597c-0.23822,-0.82687 -0.12149,-1.79333 -0.12149,-2.67868c0,-0.79999 -0.00073,-1.70001 0,-2.63599c0.00067,-0.84802 -0.09454,-1.77744 0.35718,-2.60684c0.3403,-0.62485 1.32053,-1.17178 1.58566,-2.06168c0.2908,-0.97601 -0.08444,-1.74347 0.27866,-2.67416c0.27432,-0.70313 0.96768,-1.51172 1.37851,-2.19598c0.48727,-0.81161 1.02322,-1.39267 1.69998,-2.12985c0.51831,-0.56458 0.97787,-1.36139 1.40002,-2.04282c0.56638,-0.91418 1.11548,-1.65808 1.35266,-2.40985c0.28333,-0.89795 0.57394,-1.62787 1.358,-2.19217c0.84058,-0.60498 1.47409,-0.8526 2.01999,-1.56799c0.60233,-0.78937 1.00473,-1.59393 1.75467,-2.08267c0.78552,-0.5119 1.36374,-1.04367 2.11465,-1.6955c0.66666,-0.57867 1.5863,-0.67798 2.20001,-1.24615c0.72198,-0.66843 0.93481,-1.53278 1.66666,-2.29169c0.44354,-0.45996 1.24622,-0.84604 2.23203,-1.36798c0.5856,-0.31003 1.47388,-0.93558 1.96533,-1.62402c0.47412,-0.66418 0.92126,-1.43134 1.63599,-2.17465c0.51053,-0.53094 1.16666,-1.16666 1.836,-1.836c0.56851,-0.56851 1.164,-1.164 1.76401,-1.76401c0.60001,-0.59999 1.40662,-1.39348 2,-2.0045c0.60687,-0.62491 1.02347,-1.0625 1.79999,-2.08083c0.41269,-0.54121 0.80215,-1.12389 1.20001,-1.716c0.80432,-1.19708 1.20532,-1.80595 1.60001,-2.43466c0.40549,-0.64592 1.00531,-1.68221 1.39548,-2.41217c0.38916,-0.72809 0.74503,-1.44318 1.23785,-2.4185c0.41205,-0.81548 0.7095,-1.55222 1.48782,-2.312c0.60071,-0.58641 1.44211,-1.15793 1.60684,-1.85733c0.17618,-0.748 -0.05685,-1.78116 0.15732,-2.67867c0.21234,-0.88988 0.81873,-1.69072 0.99869,-2.45601c0.18884,-0.80302 0.43411,-1.57188 0.71732,-2.43199c0.29565,-0.89793 0.60818,-1.76994 0.84149,-2.58301c0.29779,-1.0379 0.31497,-1.76366 0.36166,-2.66699c0.04477,-0.86597 0.53757,-1.69055 0.82886,-2.68066c0.19489,-0.6624 0.14709,-1.49426 0.33331,-2.66667c0.09573,-0.60275 0.3316,-1.48709 0.63467,-2.31467c0.37003,-1.01042 0.76797,-1.63757 1.03201,-2.68533c0.20065,-0.79623 0.15042,-1.45728 0.168,-2.68401c0.01169,-0.81615 0.00876,-1.65007 0.284,-2.62933c0.18579,-0.66103 0.78482,-1.47607 1.19382,-2.20749c0.43259,-0.77361 0.49896,-1.72939 0.51636,-2.47383c0.02414,-1.03439 0.00449,-2.00534 0.00449,-2.80534c0,-0.89999 -0.00195,-1.81961 0.42532,-2.59999c0.45038,-0.82257 0.57468,-1.70001 0.57468,-2.60001c0,-0.8 0,-1.7 0,-2.60001c0,-0.89999 0,-1.81065 0,-2.72133c0,-0.67867 0,-1.79333 0,-2.67867c0,-0.8 0.01041,-1.70006 0,-2.60001c-0.01044,-0.90018 -0.52719,-1.60944 -0.87851,-2.5c-0.26062,-0.66069 0.06226,-1.62648 -0.1575,-2.5c-0.21704,-0.86281 -0.92126,-1.59697 -0.96399,-2.5c-0.04251,-0.89899 -0.45032,-1.4449 -0.91467,-2.18533c-0.48807,-0.77824 0.07184,-1.85251 -0.17065,-2.51466c-0.32913,-0.8987 -1.14764,-1.59637 -1.91467,-2.03333c-0.77988,-0.44426 -0.97464,-1.16707 -1,-1.96667c-0.02859,-0.90135 -0.68619,-1.62236 -0.94284,-2.5c-0.25311,-0.86555 -0.05716,-1.8 -0.05716,-2.7c0,-0.8 0,-1.7 0,-2.60001c0,-0.89999 0,-1.79999 0,-2.7c0,-0.89999 0,-1.8 0,-2.7c0,-0.8 0,-1.7 0,-2.60001c0,-0.89999 0,-1.79999 0,-2.7c0,-0.89999 0,-1.80017 0,-2.58533c0,-0.94 -0.00699,-1.63069 0,-2.70401c0.00534,-0.82137 0.22134,-1.73199 0.5,-2.41066l0.37851,-0.9785l0.12015,-0.82016l0.00134,-0.90134" id="svg_5" stroke-width="2" stroke="#000" fill="none"/>
  <path t="36463,36615,36630,36631,36639,36654,36683,36701,36717,36717,36734,36734,36751,36751,36767,36767,36784,36801,36817,36834,36834,36834,36852,36852,36867,36884,36884,36901,36917,36917,36934,36934,36951,36967,36967,36984,36984,37001,37001,37017,37034,37034,37051,37051,37067,37067,37084,37084,37101,37101,37117,37134,37134,37151,37167,37167,37184,37201,37201,37217,37233,37234,37251,37251,37267,37267,37284,37301,37301,37317,37317,37334,37334,37334,37358,37359,37359,37374,37375,37384,37401,37401,37417,37417,37434,37434,37451,37451,37451,37470,37471,37484,37484,37501,37517,37517,37534,37534,37551,37567,37567,37584,37584,37601,37601,37617,37617,37634,37634,37654,37654,37655,37670,37671,37694,37695,37710,37711,37718,37718,37734,37734,37751,37751,37767,37767,37784,37784,37801,37801,37817,37834,37834,37852,37867,37886,37910,37911,37911,37934,37934,37958,37982,37982,37983,37998,38022,38022,38038,38047,38047,38062,38086,38102,38118,38142,38158,38190,38214,38230,38254,38350" d="m293.5,166c-0.87866,1.2215 -1.11783,2.21394 -1.7045,2.64284c-0.75946,0.55521 -1.51038,0.90569 -2.12885,1.52383c-0.61975,0.61943 -1.19354,1.14789 -1.66666,1.85416c-0.53094,0.79262 -0.97641,1.48207 -1.70132,2.17917c-0.53891,0.51822 -1.35342,0.89899 -2.08884,1.5c-0.73285,0.59889 -1.23117,1.18851 -1.73068,1.84167c-0.53857,0.70427 -1.04175,1.43745 -1.41116,2.05966c-0.55887,0.94125 -0.5174,1.7812 -0.92065,2.64149c-0.42685,0.91063 -0.6571,1.61134 -1.258,2.35718c-0.52765,0.65494 -1.20346,1.26443 -1.35333,2.22533c-0.10657,0.68329 0.02936,1.702 -0.32135,2.65866c-0.26279,0.7168 -0.83078,1.48254 -1.31467,2.14134c-0.61966,0.84363 -1.00299,1.53563 -1.31598,2.48933c-0.28693,0.87425 -0.71747,1.46371 -1.384,2.18983c-0.51825,0.56459 -1.05902,1.32631 -1.34283,2.09999c-0.35507,0.96794 -0.21735,1.82101 -0.64252,2.71017c-0.30899,0.64619 -1.23367,1.23354 -1.548,2.052c-0.29736,0.77428 -0.7128,1.60535 -1.08264,2.40266c-0.33426,0.7206 -0.4187,1.69319 -1.08401,2.43066c-0.4639,0.51419 -0.88217,1.32376 -1.16666,2.16667c-0.28955,0.85793 -0.79874,1.69499 -1.33334,2.3125c-0.56512,0.65276 -1.20001,1.22083 -1.89999,1.92082c-0.60001,0.60001 -1.20001,1.20001 -1.90451,1.90451c-0.45267,0.45267 -1.18082,1.18082 -1.71634,1.71632c-0.58051,0.58049 -1.36758,1.39003 -1.97916,1.95834c-0.58911,0.54745 -1.36624,1.19615 -2.164,1.57416c-0.91907,0.4355 -1.87506,0.29512 -2.59317,0.561c-0.80415,0.29773 -1.41692,1.07159 -2.07616,1.71899c-0.54086,0.53116 -1.3222,1.18593 -2.00267,1.56667c-0.75362,0.42168 -1.57957,0.7692 -2.328,1.20001c-0.97429,0.56082 -1.53262,1.09886 -2.136,1.7c-0.70131,0.69868 -1.3,1.3 -1.89999,1.89999c-0.60001,0.60001 -1.33728,1.29362 -1.8,1.96667c-0.43657,0.63501 -0.97034,1.69037 -1.39999,2.19733c-0.65681,0.77496 -1.23912,1.24564 -1.8,2.12c-0.43095,0.6718 -0.87296,1.51823 -1.436,2.14134c-0.65488,0.72473 -1.18971,1.19962 -1.88,1.89067c-0.599,0.59966 -1.22194,1.20969 -1.784,2.14116c-0.32526,0.53905 -0.77856,1.55405 -1.2,2.32201c-0.47615,0.86768 -0.89082,1.39366 -1.60001,2.12083c-0.59242,0.60747 -1.2406,1.17189 -1.7,1.78532c-0.55125,0.7361 -0.90974,1.51433 -1.39867,2.51334c-0.3728,0.76172 -0.5457,1.62573 -0.88533,2.39999c-0.38521,0.87816 -1.22736,1.32047 -1.63066,2.00134c-0.48996,0.82716 -0.89268,1.64909 -1.23267,2.5045c-0.32857,0.82672 -0.48259,1.53442 -0.854,2.29681c-0.48624,0.99808 -0.88274,1.72867 -1.146,2.64603c-0.26071,0.90845 -0.51903,1.56213 -0.76868,2.26865c-0.34123,0.96567 -0.5858,1.96078 -0.85866,2.65866c-0.364,0.93097 -0.42534,1.82535 -0.42534,2.62534c0,0.90002 0,1.80002 0,2.70001c0,0.89999 0.1949,1.82169 -0.00133,2.69867c-0.18057,0.80704 -0.96268,1.23734 -0.99867,2.20132l0,0.89999l0,0.90002" id="svg_6" stroke-width="2" stroke="#000" fill="none"/>
  <path t="41759,42134,42150,42174,42198,42214,42222,42238,42250,42270,42294,42302,42318,42318,42358,42358,42374,42398,42422,42446,42487,42542,42550,42598,42622,42678,42710,42742,42766,42790,42800,42800,42817,42834,42851,42867,42884,42910,42910,42910,42926,42934,42950,42967,42984,43000,43000,43017,43034,43034,43050,43050,43067,43067,43086,43086,43118,43118,43134,43134,43150,43167,43167,43184,43200,43217,43217,43234,43250,43267,43284,43300,43318,43318,43342,43342,43350,43367,43384,43384,43400,43422,43438,43439,43454,43470,43494,43542,43582,43598,43598,43622,43670,43686,43702,43718,43718,43742,43750,43767,43784,43784,43784,43784,43800,43800,43817,43817,43834,43834,43851,43867,43883,43883,43900,43917,43917,43933,43933,43949,43950,43966,43967,43967,43983,43984,44000,44000,44016,44017,44038,44038,44050,44067,44083,44084,44099,44117,44133,44134,44150,44150,44150,44167,44167,44183,44184,44200,44200,44216,44217,44233,44234,44250,44250,44250,44267,44267,44267,44284,44284,44284,44300,44301,44317,44317,44334,44350,44350,44350,44367,44384,44384,44400,44417,44417,44434,44453,44467,44484,44484,44500,44517,44534,44534,44551,44551,44567,44567,44584,44584,44599,44616,44633,44649,44650,44666,44683,44700,44716,44733,44757,44758,44789,44790,44805,44821,44833,44853,44868,44868,44883,44902,44926,44926,44949,44950,44967,44967,44989,45005,45016,45033,45053,45070,45085,45086,45101,45117,45133,45149,45150,45166,45183,45199,45216,45237,45237,45253,45267,45283,45299,45300,45317,45334,45349,45367,45367,45383,45383,45399,45400,45417,45433,45449,45450,45466,45467,45483,45484,45484,45499,45516,45517,45534,45534,45549,45550,45550,45567,45567,45583,45599,45600,45616,45633,45634,45649,45650,45666,45683,45684,45699,45716,45717,45741,45741,45765,45765,45783,45799,45816,45817,45838,45838,45851,45866,45883,45899,45900,45917,45933,45934,45949,45950,45967,45967,45983,45984,45984,45999,46000,46000,46016,46033,46034,46049,46066,46067,46083,46084,46084,46099,46100,46116,46117,46133,46134,46149,46150,46150,46166,46167,46183,46200,46216,46217,46233,46234,46249,46266,46283,46284,46299,46316,46341,46350,46366,46383,46384,46400,46416,46433,46449,46450,46450,46466,46467,46483,46500,46500,46516,46533,46549,46550,46567,46567,46589,46621,46621,46633,46634,46649,46666,46667,46683,46701,46701,46716,46717,46733,46757,46773,46773,46783,46799,46816,46833,46853,46853,46869,46883,46899,46916,46934,46950,46950,46966,46989,46989,47005,47005,47061,47061,47085,47100,47100,47116,47134,47149,47166,47183,47199,47200,47229,47269,47301,47325,47357,47381,47381,47397,47437,47445,47493,47533,47581,47669,47669,47741,47741,47797,47821,47877,47917,47933,47933,47965,47984,48000,48032,48050,48069,48093,48117,48134,48150,48167,48184,48200,48217,48234,48250,48267,48267,48284,48284,48300,48300,48318,48318,48318,48334,48350,48367,48367,48384,48400,48417,48417,48434,48434,48450,48450,48467,48484,48484,48510,48518,48542,48550,48567,48567,48584,48584,48600,48600,48617,48634,48634,48650,48650,48667,48668,48684,48685,48700,48701,48717,48717,48734,48734,48735,48735,48750,48750,48751,48767,48784,48784,48800,48800,48800,48817,48817,48834,48834,48852,48852,48867,48867,48867,48884,48884,48884,48900,48900,48917,48934,48950,48967,48983,48984,49000,49149" d="m52.5,256c1.8,0 2.7,0 3.6,0c0.9,0 1.8,0 2.7,0c0.9,0 1.93833,0.27411 2.57867,-0.22133c0.63573,-0.49188 1.32265,-0.73015 2.2215,-0.77884c0.78861,-0.04271 1.70754,-0.47122 2.41583,-0.71584c0.94377,-0.32594 1.91884,-0.04112 2.7795,-0.2885c0.76789,-0.22072 1.22515,-0.98508 2.1045,-0.9955c0.89994,-0.01067 1.81258,0.1498 2.69983,-0.00017c0.85203,-0.144 1.25604,-0.97124 2.20017,-0.99983c0.89958,-0.02724 1.8,0 2.7,0c0.8,0 1.7,0 2.6,0c0.9,0 1.80411,-0.0817 2.7045,0.0045c0.87329,0.0836 1.54393,0.39084 2.2115,0.79683c0.88166,0.53621 1.77772,0.98216 2.43134,1.55133c0.59653,0.51945 1.28906,1.10927 2.05267,1.48067c0.75391,0.36668 1.48763,0.70052 2.20133,1.36668c0.54655,0.51013 1.45158,1.10794 2.00933,1.39999c0.9819,0.51413 1.79283,0.86057 2.62267,1.39999c0.68835,0.44745 1.49095,0.86319 2.16666,1c0.98331,0.1991 1.63622,0.77246 2.3045,1.2955c0.80022,0.62631 1.79091,0.4736 2.52617,0.98849c0.69371,0.48578 1.38483,0.98386 1.96934,1.51733c0.7197,0.65686 1.49371,0.98215 2.14733,1.55133c0.59653,0.51947 1.3665,0.98978 2.05267,1.64734c0.51052,0.48926 1.19733,1.2027 1.8,1.79999c0.59737,0.59204 1.46706,0.96375 2.3,1.42151c0.67503,0.37097 1.30899,1.16516 1.77883,1.87833c0.47473,0.72058 1.44759,0.69052 2.05984,1.33618c0.57645,0.60791 1.21067,1.14954 1.89467,1.73065c0.66691,0.56659 1.2907,1.02643 1.86666,1.53784c0.73228,0.65024 1.53236,0.97696 2.216,1.5795c0.59765,0.52673 1.29949,0.98386 1.884,1.51733c0.7197,0.65686 1.59551,1.01825 2.15633,1.56033c0.69844,0.67511 1.09966,1.30676 1.83968,1.81299c0.51523,0.35245 1.5233,0.92963 2.16232,1.3045c1.03008,0.60428 1.63365,1.11816 2.24167,1.72086c0.60263,0.59735 1.2574,1.36105 2.10001,1.74731c0.76875,0.35239 1.40112,0.75604 2.09999,1.45267c0.60097,0.59903 1.17546,1.22562 1.90451,1.89999c0.56261,0.52042 1.36952,0.97778 2.09999,1.45718c0.81522,0.535 1.39133,1.0614 1.93834,1.59015c0.78255,0.75644 1.39375,1.34167 2.30983,1.60452c0.68478,0.19647 1.59978,0.75131 2.04283,1.39999c0.51581,0.75522 1.04976,1.50818 1.7045,2.03751c0.74483,0.60217 1.72404,0.80374 2.3,1.31516c0.73227,0.65024 1.46101,1.02737 2.3,1.46216c0.70746,0.36661 1.32132,1.15466 1.82533,1.65869c0.52199,0.522 1.25276,1.3338 1.92734,1.87015c0.69543,0.55292 1.45261,0.85901 2.36333,1.50452c0.66046,0.46814 1.37686,0.98508 2.05867,1.39999c0.95419,0.58069 1.44983,1.03683 2.14684,1.72131c0.51389,0.50467 1.24797,1.23981 2.07983,1.79333c0.5984,0.39819 1.28355,0.68512 2.28133,1.08667c0.79616,0.3204 1.63083,0.5871 2.34666,1.28268c0.63289,0.61499 0.95233,1.62558 1.67067,2.15433c0.72931,0.53683 1.62526,0.79953 2.12534,1.21234c0.6962,0.57471 1.6039,0.96033 2.37466,1.43466c0.67397,0.41476 1.27457,1.24109 2,1.91333c0.58046,0.5379 1.41806,0.79245 2.2,1.22665c0.82047,0.4556 1.81395,0.6925 2.24284,1.27917c0.55521,0.75946 1.02582,1.25845 1.84116,1.58084c0.89249,0.35287 1.61584,0.93597 2.26868,1.41467c0.71442,0.52386 1.44852,0.86026 2.362,1.49866c0.59933,0.41885 1.50581,0.62872 2.38533,0.82217c0.84756,0.18643 1.42461,1.07205 2.10001,1.54315c0.73358,0.51169 1.72168,0.24112 2.59866,0.43735c0.80704,0.18057 1.24802,0.96234 2.12267,0.99881c0.85335,0.03558 1.75455,0.35245 2.47733,0.71585c0.76744,0.38583 1.51166,0.90213 2.40134,1.19867c0.85765,0.28589 1.8004,0.05997 2.60001,0.08533c0.90135,0.02859 1.67715,0.61121 2.5215,0.87866c0.67664,0.21436 1.68604,0.26602 2.46783,0.54666c1.05499,0.37869 1.82465,0.55353 2.61066,1c0.72504,0.41187 1.26933,1.12308 1.95717,1.51752c0.81941,0.46988 1.8913,-0.09637 2.64284,0.22382c0.7812,0.33282 1.53206,0.76813 2.3,1.186c0.84091,0.45758 1.73825,0.47379 2.5,0.73267c0.88792,0.30176 1.59947,0.896 2.5,0.91467c0.8998,0.01868 1.76007,0.28409 2.39999,0.64734c0.76033,0.43161 1.61792,0.9418 2.40001,1.23117c0.85173,0.31512 1.7,0.12149 2.59999,0.12149c0.90001,0 1.83774,-0.03745 2.62134,0.22134c0.877,0.28964 1.79126,0.73471 2.56267,0.77731c0.9399,0.05191 1.632,0.00134 2.70534,0.00134c0.82132,0 1.73216,0 2.62132,0c0.98933,0 1.78934,0 2.78934,0c0.78934,0 1.51466,0 2.5,0c0.98534,0 1.71066,0 2.7,0c0.8,0 1.8,0 2.59999,0c0.80002,0 1.7955,0 2.71469,0c0.98532,0 1.80664,0 2.65997,0c0.94,0 1.92551,0 2.71069,0c0.94,0 1.63065,0 2.61465,0c0.98401,0 1.84732,0 2.74734,0c0.91931,0 1.75266,0 2.73132,0c0.77399,0 1.69455,0.11853 2.53732,-0.08533c0.88803,-0.21481 1.6846,-0.82333 2.58417,-0.91483c0.78574,-0.07993 1.53455,-0.39859 2.41583,-0.71585c0.92606,-0.33337 1.41745,-1.0513 2.13068,-1.27332c0.96066,-0.29904 1.74078,0.03363 2.59616,-0.36334c0.91235,-0.42343 1.65634,-0.69507 2.41434,-1.00452c0.76297,-0.31149 1.75677,-0.81921 2.34283,-1.16367c1.02628,-0.60321 1.57581,-1.15854 2.20001,-1.61783c0.77203,-0.56805 1.61069,-0.71756 2.31467,-0.944c1.00845,-0.32437 1.68341,-1.11926 2.18533,-1.61734c0.69733,-0.69202 1.41769,-1.13083 2.11432,-1.40982c0.98273,-0.39359 1.69324,-0.89996 2.18033,-1.242c1.05289,-0.73932 1.59698,-1.27097 2.32666,-1.74817c0.6593,-0.43118 1.64117,-1.02313 2.19952,-1.39999c0.79077,-0.53372 1.72241,-0.91229 2.47382,-1.14282c0.85468,-0.26221 1.69742,-0.40793 2.50534,-0.85718c0.80106,-0.44543 1.68845,-0.80298 2.25717,-1.2045c0.87653,-0.6188 1.55914,-1.05533 2.48566,-1.23834c0.8428,-0.16647 1.71094,-0.29929 2.45718,-0.7045c0.76111,-0.41327 1.69998,-0.35266 2.59998,-0.35266c0.90002,0 1.8013,0.04779 2.70001,0c0.80338,-0.04272 1.53772,-0.7449 2.39999,-0.96399c0.87753,-0.22296 1.76593,-0.20459 2.436,-0.46133c0.76447,-0.29291 1.75824,-0.5448 2.67868,-0.57333c0.98486,-0.03055 1.80664,-0.00134 2.65997,-0.00134c0.94,0 1.92535,0 2.82535,0c0.75717,0 1.67276,0.11673 2.51599,-0.08533c0.8981,-0.21521 1.642,-0.81161 2.48401,-0.89383c0.97409,-0.09512 1.84909,-0.03391 2.5,-0.54169c0.76828,-0.59937 1.29129,-1.21832 2.13599,-1.50449c0.84009,-0.28461 1.56522,-0.54486 2.47867,-1.17334c0.70587,-0.48566 1.55167,-0.71735 2.28534,-1.23734c0.78708,-0.55783 1.30038,-1.20599 2.10001,-1.564c0.79587,-0.35635 1.10712,-1.28989 1.7215,-1.87866c0.68088,-0.65247 1.54034,-0.76959 2.16785,-1.52133c0.54721,-0.65555 0.91562,-1.37036 1.55798,-1.95267c0.59097,-0.53571 1.41547,-0.7905 2.03183,-1.16818c0.9296,-0.56961 1.3168,-1.53577 1.88217,-1.8685c0.92096,-0.54202 1.77887,-0.59094 2.62268,-0.89465c0.70505,-0.25375 1.63226,-0.61368 2.616,-0.71616c0.70135,-0.07306 1.43719,-0.7468 2.29999,-0.96384c0.8735,-0.21973 1.80002,-0.03601 2.70001,-0.03601c0.89999,0 1.69998,0 2.60001,0c0.89999,0 1.8157,0.1571 2.69998,-0.01068c0.94589,-0.17947 1.59045,-0.87857 2.39999,-0.98798c0.8938,-0.12079 1.7236,-0.46176 2.49551,-0.94867c0.70242,-0.44308 1.23245,-0.94666 2.11517,-1.06335c0.92667,-0.12253 1.63382,-0.44 2.42267,-0.98932c0.76913,-0.53558 0.95676,-1.6442 1.6875,-1.97916c0.79968,-0.36658 1.58636,-0.47382 2.47916,-0.85419c0.75153,-0.32019 1.79266,0.18823 2.564,-0.20267c0.69812,-0.35379 0.98361,-1.41006 1.72134,-1.87866c0.69128,-0.43912 1.56589,-0.42212 2.13998,-1.06c0.52087,-0.57874 1.3056,-0.87695 1.96402,-1.46133c0.69318,-0.61523 0.99573,-1.47186 1.58533,-1.98932c0.63776,-0.55972 0.98416,-1.22226 1.02982,-2.22736c0.03162,-0.69592 0.44202,-1.5589 0.71152,-2.31665c0.35684,-1.00336 0.27533,-1.81598 0.284,-2.86401c0.00583,-0.70499 0.01364,-1.71228 0.42532,-2.53067c0.38843,-0.77213 0.57468,-1.63599 0.57468,-2.43597c0,-0.90002 0,-1.836 0,-2.68533c0,-0.91919 0,-1.91336 0,-2.67868c0,-0.952 0,-1.72 0,-2.66135c0,-1.008 0,-1.76398 0,-2.67465c0,-0.89999 0.00006,-1.79999 0,-2.70001c-0.00009,-0.90015 -0.07608,-1.68869 -0.42532,-2.63599c-0.2832,-0.76813 -0.40729,-1.57855 -0.62735,-2.50684c-0.21881,-0.9231 -0.85745,-1.64471 -0.94284,-2.41434c-0.09924,-0.89456 0.00668,-1.66542 -0.28848,-2.64149c-0.23697,-0.78363 -0.58289,-1.72974 -0.80002,-2.48534c-0.2793,-0.972 -0.66177,-1.71078 -0.86783,-2.7205c-0.12814,-0.62796 -0.36581,-1.56973 -0.75348,-2.35266c-0.42691,-0.86218 -0.81903,-1.41736 -1.12402,-2.64017c-0.1427,-0.57211 -0.05066,-1.39473 -0.17514,-2.58833c-0.08612,-0.82584 -0.66092,-1.45775 -1.09534,-2.35699c-0.33273,-0.68875 -0.62579,-1.43375 -0.81485,-2.48801c-0.15112,-0.84268 -0.08533,-1.80533 -0.08533,-2.57066c0,-1.00317 0.00623,-1.85585 -0.00015,-2.81999c-0.00534,-0.80405 0.01028,-1.63901 -0.22119,-2.65718c-0.15857,-0.6974 -0.57169,-1.50571 -0.7215,-2.517c-0.10977,-0.7411 -0.05716,-1.76849 -0.05716,-2.7045c0,-0.89999 0,-1.8 0,-2.7l0,-0.8l0,-0.89999l0,-0.90001" id="svg_7" stroke-width="2" stroke="#000" fill="none"/>
  <path t="58318,58509,58518,58533,58550,58566,58582,58582,58600,58617,58617,58634,58634,58650,58650,58666,58666,58685,58685,58709,58709,58717,58734,58750,58750,58767,58784,58784,58800,58837,58851,58851,58867,58900,58916,58916,58933,58933,58933,58950,58950,58966,58966,58966,58984,58984,59000,59000,59016,59033,59034,59034,59066,59066,59100,59100,59100,59100,59116,59116,59116,59133,59133,59133,59133,59133,59150,59150,59166,59166,59166,59183,59183,59200,59200,59200,59216,59216,59233,59233,59233,59250,59250,59250,59265,59265,59265,59283,59283,59283,59300,59300,59300,59316,59316,59332,59332,59350,59350,59350,59366,59366,59383,59383,59400,59400,59415,59415,59433,59433,59450,59450,59465,59465,59482,59500,59500,59515,59532,59549,59549,59565,59582,59582,59599,59615,59615,59632,59632,59649,59649,59665,59682,59699,59699,59731,59731,59749,59750,59765,59797,59829,59829,59845,59885,59933,59973,60053,60141,60141,60173,61061,61077,61093,61093,61125,61133,61149,61165,61182,61199,61215,61232,61269,61309,61333,61333,61405,61493" d="m222.5,342c0,1.70001 0,2.70001 0,3.60001c0,0.89999 0,1.7045 0,2.72131c0,0.67868 0,1.65717 0,2.67868c0,0.75717 -0.05283,1.66342 0.05716,2.40451c0.1497,1.00867 0.57953,1.73947 0.85884,2.71149c0.21712,0.75558 0.5408,1.70871 0.73134,2.28851c0.32138,0.97803 0.12558,1.96875 0.35716,2.83383c0.22171,0.82822 0.94464,1.32819 0.991,2.11349c0.05965,1.01053 0.27235,1.86365 0.80583,2.44815c0.65689,0.7197 1.02957,1.55261 1.48267,2.40002c0.3486,0.65198 0.74721,1.51187 1.14134,2.19998c0.46828,0.81754 0.79877,1.59451 1.42667,2.36801c0.40491,0.49878 1.17343,1.16574 1.78383,2.08932c0.40175,0.60788 0.67278,1.49057 1.07401,2.14349c0.44849,0.72983 1.14998,1.4639 1.8795,2.03918c0.63377,0.49979 1.02629,1.32169 1.36249,2.20734c0.35324,0.93054 0.79419,1.37277 1.34283,2.09998c0.65523,0.86847 0.93097,1.64352 1.55867,2.42334c0.41551,0.5162 0.93483,1.02881 1.38,1.63202c0.85466,1.15802 1.10057,1.80533 1.41733,2.39731c0.65137,1.21729 1.10461,1.80814 1.60001,2.37869c0.4864,0.56021 1.00146,1.03107 1.9395,2.01599c0.5705,0.599 1.13383,1.3461 1.63516,2.056c0.35121,0.49734 1.01251,1.41245 1.53867,2.08798c0.64154,0.8237 1.04211,1.49417 1.436,2.26266c0.4077,0.79544 0.79683,1.6261 1.36667,2.39868c0.46002,0.62369 1.04282,1.20117 1.83333,2c0.59462,0.60089 1.2018,1.16986 1.83333,2c0.44136,0.58017 0.74257,1.23633 1.48817,2.20001c0.48364,0.62512 0.88647,1.00266 1.6785,1.79999c0.59351,0.59747 1.17224,1.15585 1.97849,1.97867c0.50589,0.51627 1.08682,1.36554 1.54236,2.02133c0.60144,0.86591 1.1673,1.2019 1.82648,1.75266c0.81345,0.67963 1.27496,1.43686 1.48602,2.24734c0.25027,0.96118 0.29211,1.85693 0.6875,2.5c0.5264,0.85611 0.93689,1.52686 1.47916,2.33334c0.465,0.69153 1.09735,1.48956 1.5,2.16666c0.49673,0.8353 1.05841,1.43878 1.44733,2.29999c0.34802,0.77069 0.72699,1.5174 1.078,2.30002c0.36798,0.8205 1.07693,1.49774 1.67468,2.10001c0.59775,0.60226 1.08469,1.47815 1.29999,2.27914c0.23343,0.8685 1.07016,1.31027 1.47916,2.04169c0.43259,0.77359 0.46838,1.63205 0.80618,2.46182c0.34305,0.84265 1.20831,1.29178 1.91333,1.80267c0.77396,0.56082 1.11914,1.2243 1.63467,2.048c0.37531,0.59964 0.32523,1.6918 0.87115,2.36215c0.53384,0.65552 1.23462,1.39838 1.2955,2.3045c0.05362,0.79819 -0.01041,1.70007 0,2.60001c0.01044,0.90018 0.54318,1.60327 0.87851,2.5c0.31808,0.85065 -0.06522,1.73175 0.17865,2.60001c0.21387,0.76144 0.73187,1.55362 1.16418,2.39999c0.33472,0.6553 0.77332,1.49994 0.77866,2.39999c0.00534,0.89996 -0.07306,1.85016 0.42532,2.47467c0.4852,0.60797 0.57468,1.42532 0.57468,2.32532c0,0.90002 0,1.80002 0,2.70001l0,0.79999l0,0.90002l0.03601,0.89999" id="svg_9" stroke-width="2" stroke="#000" fill="none"/>
  <path t="64389,64485,64509,64525,64541,64557,64573,64573,64582,64599,64615,64632,64632,64649,64649,64665,64665,64682,64699,64699,64715,64732,64732,64749,64749,64766,64766,64782,64782,64799,64799,64815,64815,64832,64851,64851,64865,64865,64882,64882,64899,64915,64915,64932,64932,64949,64949,64965,64966,64982,64999,64999,65021,65021,65032,65032,65053,65069,65085,65085,65101,65125,65141,65141,65164,65189,65199,65229,65261,65277,65301,65325,65325,65332,65381,65405,65445,65453,65485,65499,65515,65515,65532,65557,65597,65613,65709,65709,65717,65797,65821,65861,65861,65893,65925,65941,65973,66028,66068,66068,66204,66540" d="m236.5,384c0.9955,1.70001 0.99806,2.6196 1.42534,3.39999c0.45038,0.82257 0.57466,1.70001 0.57466,2.60001c0,0.79999 -0.18149,1.72595 0.036,2.60001c0.21713,0.87271 0.86102,1.55798 0.94318,2.39999c0.09506,0.97427 0.02083,1.75266 0.02083,2.65268c0,0.86331 0,1.84732 0,2.83133c0,0.69064 -0.0085,1.63202 0,2.68265c0.00534,0.65875 0.20644,1.64743 0.57466,2.45868c0.38222,0.84207 0.40698,1.58545 0.42551,2.57449c0.0146,0.77945 0.26114,1.75854 0.57449,2.42551c0.39293,0.83633 0.40703,1.74884 0.778,2.62201c0.40564,0.9548 0.62933,1.57751 0.64734,2.586c0.01413,0.79187 0,1.81934 0,2.51398c0,1.02734 0,1.974 0,2.65268c0,1.116 0,1.884 0,2.836c0,0.76532 0,1.75949 0,2.50684c0,1.03183 0,1.97867 0,2.67801c0,0.97916 0,1.76849 0,2.8125c0,0.86215 0,1.76666 0,2.57733c0,0.91064 0,1.76398 0,2.70398c0,0.98535 0,1.88535 0,2.68533c0,0.90002 0,1.80002 0,2.70001c0,0.89999 0,1.79999 0,2.70001c0,0.89999 0,1.79999 0,2.59998c0,0.90002 0,1.80002 0,2.70001c0,0.89999 0.00009,1.79999 0,2.70001c-0.00009,0.89999 -0.21097,1.77216 -0.57466,2.39999c-0.44597,0.76987 -0.42525,1.69998 -0.42534,2.60001c-0.00009,0.89999 -0.24213,1.75375 -0.64734,2.5c-0.41328,0.76111 -0.21996,1.71048 -0.35716,2.59998c-0.14368,0.9314 -0.64418,1.52814 -1.04817,2.40002c-0.38533,0.83163 -0.91873,1.5986 -0.94733,2.5c-0.02853,0.89954 0,1.79999 0,2.59998l0,0.90002l0,0.89999" id="svg_10" stroke-width="2" stroke="#000" fill="none"/>
  <path t="72037,72140,72140,72156,72172,72220,72252,72284,72284,72300,72314,72314,72331,72347,72364,72388,72388,72397,72414,72431,72431,72447,72447,72447,72464,72481,72497,72497,72514,72514,72531,72531,72547,72564,72564,72581,72581,72604,72604,72620,72631,72660,72660,72700,72700,72732,72756,72756,72764,72764,72781,72797,72814,72831,72848,72864,72864,72881,72916,73324,73340,73340,73388,73404,73420,73436,73452,73452,73464,73481,73497,73514,73531,73531,73547,73564,73564,73564,73581,73581,73581,73597,73597,73614,73614,73631,73652,73652,73652,73664,73681,73681,73697,73714,73714,73731,73731,73747,73748,73764,73764,73781,73797,73798,73814,73831,73849,73865,73881,73881,73898,73898,73915,73931,73948,73964,73964,73980,73981,73998,73998,74014,74014,74014,74030,74030,74047,74047,74064,74065,74080,74080,74098,74098,74098,74114,74115,74130,74130,74148,74164,74165,74181,74181,74181,74181,74198,74198,74198,74215,74230,74230,74231,74248,74248,74265,74265,74280,74280,74280,74297,74297,74315,74315,74330,74347,74348,74365,74380,74380,74397,74397,74414,74415,74430,74447,74464,74480,74480,74497,74514,74530,74547,74564,74580,74580,74597,74597,74614,74614,74630,74647,74664,74680,74697,74714,74714,74730,74747,74796,74852,75012" d="m566.5,294c-1,1 -1,1.79999 -1,2.70001c0,0.89999 0,1.79999 0,2.71066c0,0.91064 0,1.76398 0,2.70398c0,0.88535 0,1.68533 0,2.58536c0,0.89999 0,1.82083 0,2.62131c0,0.85333 0,1.79333 0,2.77869c0,0.89999 0,1.71432 0,2.668c0,0.73199 0,1.46399 0,2.56c0,0.9765 0,1.83865 0,2.672c0,0.97867 0,1.75266 0,2.65268c0,0.86331 0.04144,1.86505 -0.22131,2.66864c-0.28705,0.87787 -0.61865,1.66708 -0.83136,2.43134c-0.25439,0.91397 -0.72845,1.56232 -0.91132,2.61136c-0.16089,0.92294 -0.26971,1.72736 -0.74054,2.39316c-0.50745,0.71759 -0.97998,1.57709 -1.2428,2.49017c-0.26141,0.90826 -0.30969,1.71793 -1.05267,2.41931c-0.60132,0.56766 -0.80371,1.16916 -1.05719,2.03336c-0.25732,0.87741 -0.80731,1.60852 -0.94415,2.5c-0.14056,0.91577 -0.46729,1.60278 -1.02399,2.36398c-0.48853,0.66797 -0.95667,1.29684 -0.97467,2.26935c-0.01599,0.862 0,1.76666 0,2.66666c0,0.89999 -0.13165,1.85007 0.22131,2.60001c0.36505,0.77551 0.76605,1.6001 0.77869,2.5c0.0127,0.90015 0.50049,1.6188 0.83331,2.39999c0.32019,0.75153 0.18506,1.69684 0.6095,2.54285c0.37286,0.74319 0.75702,1.2337 1.3905,2.2905c0.41919,0.69931 0.84869,1.51389 1.36536,2.28265c0.43298,0.64429 0.64966,1.55832 0.88531,2.39999c0.25024,0.89365 0.94727,1.63318 1.30536,2.30936c0.3573,0.67465 0.60022,1.6745 0.61066,2.65866c0.00732,0.69061 -0.15594,1.81638 0.2215,2.61615c0.34802,0.73749 1.03589,1.35846 1.34253,2.1105c0.39191,0.96112 0.42554,1.76834 0.43597,2.76782c0.00854,0.82016 0,1.6575 0,2.67419c0,0.69464 0,1.71133 0,2.64731c0,0.90002 0,1.80002 0,2.70001c0,0.75717 0,1.65268 0,2.51599c0,0.96317 0,1.884 0,2.784c0,0.90268 0,1.67068 0,2.70535c0,0.74399 0,1.66132 0,2.49466c0,1.04285 0,1.76132 0,2.55182c0,1.02652 0,1.90652 0,2.92685c0,0.77399 0,1.6785 0,2.42584c0,0.99683 0,1.83148 0,3.01666c0,0.79349 0,1.569 0,2.6095c0,0.7175 0,1.62201 0,2.48532c0,0.98401 0.03491,1.97321 -0.03601,2.73068c-0.08661,0.92517 -0.32501,1.70834 -0.53864,2.564c-0.14709,0.58926 -0.36139,1.78531 -0.40454,2.64767c-0.03857,0.77026 0.04889,1.89957 -0.1875,2.70831c-0.20239,0.6925 -0.65399,1.42529 -1.12878,2.43335c-0.28009,0.5947 -0.57733,1.60092 -0.70453,2.39999c-0.15936,1.00119 -0.42273,1.80618 -0.80133,2.60001c-0.38403,0.80518 -0.88116,1.52841 -1.11334,2.51599c-0.17682,0.75208 0.06403,1.74753 -0.25201,2.71735c-0.22516,0.69101 -0.80469,1.46973 -0.83331,2.33331c-0.02759,0.83289 0,1.81201 0,2.586c0,0.90002 0.00562,1.76337 0,2.7265c-0.00537,0.9209 -0.45294,1.62808 -0.83331,2.52084c-0.32019,0.75153 -0.16669,1.70001 -0.16669,2.60001c0,0.89999 0,1.79999 0,2.7045c0,0.86215 0,1.6955 0,2.67416c0,0.77399 0,1.67401 0,2.53732c0,0.96317 0,1.884 0,2.784c0,0.90002 0,1.80002 0,2.70001c0,0.79999 0,1.70001 0,2.60001l0,0.89999l0,0.89999l0,0.89999" id="svg_11" stroke-width="2" stroke="#000" fill="none"/>
  <path t="79924,80123,80123,80131,80171,80172,80267,80291,80300,80300,80315,80347,80363,80403,80412,80427,80427,80443,80452,80468,80483,80499,80531,80563,80564,80589,80611,80627,80643,80699,80699,80899,80947,80956,80972,80988,80988,81043,81083,81092,81115,81179,81243,81259,81259,81291,81315,81331,81364,81381,81411,81523,81523,81723" d="m312.5,172c0,-1 0,-1.8 0,-2.71466c0,-0.99518 -0.17386,-1.65408 0.01068,-2.64934c0.18118,-0.9772 0.97672,-1.55096 1.78931,-1.63467c0.89529,-0.09222 1.81985,-0.16954 2.70001,0.0195c0.84442,0.18137 1.25272,1.12971 1.66666,1.97917c0.31787,0.65227 0.54813,1.44717 0.83783,2.2955c0.27835,0.81509 0.82501,1.33542 1.01636,2.2045c0.18658,0.84753 1.06662,1.42842 1.54315,2.10001c0.51489,0.72565 0.86047,1.47301 1.48868,2.04733c0.58987,0.53928 1.23712,1.06897 1.64734,1.7045c0.58118,0.90039 1.67709,1.88133 1.07849,2.52666c-0.60312,0.65021 -1.7785,0.12151 -2.57849,0.12151c-0.90002,0 -1.87198,0.32811 -2.67917,-0.02083c-0.71399,-0.30864 -1.02151,-1.24591 -1.6875,-1.8125c-0.68362,-0.58159 -1.32465,-0.96106 -1.83334,-1.64584c-0.51572,-0.69424 -1.36966,-0.94998 -1.87851,-1.74232c-0.47916,-0.74611 -0.34299,-1.65717 -1.2215,-1.99983l-0.60001,-0.42601l-0.86398,-0.37799" id="svg_12" stroke-width="2" stroke="#000" fill="none"/>
  <path t="83364,83571,83572,83587,83598,83620,83683,83684,83707,83708,83723,83763,83779,83788,83812,83883,83883,83892,83915,83931,83956,83980,84011,84043,84083,84099,84131,84164,84164,84181,84204,84243,84267,84268,84587,84611,84635,84651,84667,84715,84739,84755,84779,84795,84795,84811,84859,84876,84915,84931,84931,84963,84981,85051,85107,85123,85131,85131,85155,85164,85187,85219,85235,85251,85251,85275,85299,85314,85355,85427,85507" d="m410.5,179c-1,-1 -1,-1.8 -1,-2.7c0,-0.90001 -0.07944,-1.8497 0.35718,-2.60451c0.36612,-0.63293 0.81436,-1.44252 1.44281,-2.12616c0.65082,-0.70796 1.20044,-1.36189 2.00134,-1.56801c0.87216,-0.22446 1.68948,-0.53185 2.29868,-1.10117c0.59125,-0.55254 1.58051,-0.55212 2.37915,-0.92099c0.77112,-0.35614 1.22534,-0.97691 2.12085,-0.97917c0.89999,-0.00226 1.79999,0 2.69998,0c0.90002,0 1.80002,0 2.70001,0c0.79999,0 1.70096,-0.05545 2.5,-0.5c0.80093,-0.44562 1.63837,-0.88608 2.29999,-1.216c0.84338,-0.42056 1.96869,-0.34215 2.19553,0.4205c0.25531,0.85835 0.00449,1.7955 0.00449,2.6955c0,0.90001 0.08212,1.80377 -0.00015,2.70001c-0.08368,0.91144 -0.79303,1.39293 -1.479,1.89999c-0.65881,0.487 -1.04825,1.34573 -1.43683,2.2c-0.34714,0.76312 -0.91821,1.23167 -1.64801,1.82533c-0.64908,0.528 -0.76453,1.57277 -1.63602,1.88934c-0.8497,0.30867 -1.83823,-0.08823 -2.59998,0.17065c-0.88794,0.30176 -1.59946,0.89667 -2.5,0.91467c-0.89984,0.01799 -1.80002,0 -2.70001,0c-0.79999,0 -1.70001,0 -2.60001,0c-0.89999,0 -1.79999,0 -2.69998,0l-0.90002,0" id="svg_13" stroke-width="2" stroke="#000" fill="none"/>
  <path t="86068,86188,86196,86228,86260,86276,86292,86292,86316,86340,86380,86396,86428,86452,86452,86516" d="m415.5,170c0,1.8 0.00195,2.61961 -0.42532,3.39999c-0.45038,0.82257 -0.57468,1.70001 -0.57468,2.60001c0,0.8 0,1.7 0,2.60001c0,0.89999 0.01068,1.78932 0.54166,2.37917l0.94235,0.02083l0.86331,0l0.89551,0" id="svg_14" stroke-width="2" stroke="#000" fill="none"/>
  <path t="86932,87075,87084,87084,87116,87124,87124,87140,87147,87163,87211,87212,87227,87267,87268,87299,87315,87363,87379,87395,87427,87531" d="m418.5,167c1.82535,0 2.93881,-0.34525 3.63834,0.05716c0.81387,0.46817 1.49521,0.98166 2.00449,1.64734c0.51834,0.67752 0.95023,1.39032 1.46701,2c0.54663,0.64485 1.3313,0.88112 2.12851,1.5955c0.6842,0.6131 0.76099,1.5 0.76166,2.39999c0.00067,0.90001 -0.02084,1.8 -0.35718,2.5955l-0.74265,0.58316l-0.77884,0.34267l-0.47852,0.72151" id="svg_15" stroke-width="2" stroke="#000" fill="none"/>
  <path t="88668,88811,88827,88859,88875,88899,88971,89027" d="m316.5,168c0.99551,1.7 1,2.60001 1,3.5c0,0.89999 0,1.8 0,2.7l0,0.90001" id="svg_16" stroke-width="2" stroke="#000" fill="none"/>
  <path t="89532,89668,89699,89723,89747,89795,89795,89819" d="m321.5,172c1.64282,-0.291 1.98734,0.49985 2,1.39999c0.01266,0.89993 0.284,1.8 0.716,2.40001l0.27951,0.89999" id="svg_17" stroke-width="2" stroke="#000" fill="none"/>
  <path t="90740,90891,90899,90915,90979" d="m323.5,175c-1.22134,0.87866 -1.94284,1.35716 -2,2.2l0,0.90001" id="svg_18" stroke-width="2" stroke="#000" fill="none"/>
  <path t="96283,96563,96579,96595,96611,96627,96627,96635,96667,96681,96697,96714,96714,96731,96731,96731,96747,96747,96764,96764,96787,96788,96788,96803,96819,96831,96847,96865,96881,96897,96914,96931,96955,96955,96971,96981,96997,97019,97019,97059,97075,97091,97091,97107,97123,97147,97179,97211,97219,97219,97251,97267,97283,97297,97314,97331,97347,97347,97364,97364,97381,97397,97413,97430,97446,97446,97463,97480,97480,97496,97513,97530,97554,97555,97571,97587,97618,97619,97630,97646,97666,97698,97714,97738,97746,97764,97780,97796,97796,97813,97830,97847,97864,97880,97880,97896,97913,97913,97931,97931,97947,97947,97947,97947,97963,97964,97964,97980,97980,97981,97996,97997,98013,98013,98030,98046,98063,98063,98080,98096,98097,98113,98131,98131,98146,98147,98147,98163,98180,98180,98202,98213,98230,98246,98263,98280,98281,98307,98322,98410,98482,98538,98642,98643,98698,98754" d="m355.5,311c1.22134,0.87866 1.7388,1.6084 2.436,1.96399c0.77051,0.39297 1.87579,0.22891 2.27866,0.83734c0.54388,0.82144 1.10312,1.43073 1.28549,2.29849c0.16653,0.79251 0.88831,1.34164 1.02518,2.1575c0.15225,0.90756 0.32809,1.69064 0.54935,2.48135c0.25958,0.92773 0.39404,1.89493 0.71066,2.74664c0.27701,0.74515 0.72919,1.50769 1.104,2.30402c0.33853,0.71927 0.76483,1.63644 1.258,2.26334c0.51132,0.64996 -0.01877,1.7486 0.38867,2.51132c0.39014,0.73038 1.63812,0.87003 1.90683,1.73599c0.26727,0.86142 0.17938,1.73651 0.76166,2.40002c0.55548,0.633 1.59088,0.90189 2.17416,1.52148c0.56897,0.60437 0.78134,1.52661 1.42133,2.07401c0.75226,0.64343 1.74106,0.52286 2.5,0.78983c0.76111,0.2677 0.99011,1.55887 1.72086,1.89383c0.79968,0.36658 1.59097,0.4632 2.47916,0.85419c0.65765,0.28952 1.62201,-0.01138 2.5,0.1875c0.96234,0.21799 1.73093,0.66223 2.41599,1.26315c0.60077,0.52698 1.40408,0.94043 2.08401,1.216c0.83182,0.33713 1.69507,0.55344 2.5,1c0.79956,0.4436 1.76035,0.39166 2.45184,0.85266c0.69547,0.46365 1.4425,0.59512 2.29099,1c0.80945,0.38623 1.55716,0.64667 2.45718,0.64734c0.89999,0.00067 1.82083,0 2.784,0c0.69064,0 1.63065,0 2.616,0c0.89999,0 1.85324,0.42865 2.61465,-0.08533c0.66776,-0.45078 0.94705,-1.3938 1.67468,-1.88934c0.6658,-0.45343 1.34158,-0.87695 2,-1.46133c0.69318,-0.61523 1.01508,-1.41125 1.81067,-1.84799c0.6481,-0.35577 1.49905,-0.77039 2.29999,-1.216c0.79904,-0.44455 1.75729,-0.32654 2.5,-0.66666c0.80261,-0.36755 1.2247,-1.28546 2.16666,-1.66669c0.62448,-0.25272 1.66669,-0.33334 2.375,-0.6875c0.95834,-0.47919 1.50961,-0.68591 2.47919,-0.97916c0.67691,-0.20474 1.65598,-0.47357 2.46481,-0.79999c0.91785,-0.37042 1.71436,-0.80002 2.51434,-1.20001c0.60001,-0.29999 1.61255,-0.76962 2.34283,-1.20001c0.79166,-0.46655 1.47314,-0.97327 2.25717,-1.32532c0.82034,-0.36838 1.5,-1.07468 2.10001,-1.67468c0.59998,-0.59998 1.22583,-1.39111 1.89999,-1.86398c0.74399,-0.52185 1.72931,-0.63989 2.42084,-0.95685c0.99097,-0.45419 1.55502,-0.82043 2.32199,-1.12198c0.99927,-0.39291 1.79553,-0.74326 2.45715,-1.07318c0.84338,-0.42056 1.84958,-0.33691 2.25269,-0.98849c0.4762,-0.76974 1.32333,-1.07999 2.04715,-1.517c0.72348,-0.4368 0.53494,-1.57626 0.93619,-2.3425c0.39713,-0.75836 0.97702,-1.28711 1.48483,-1.936c0.60052,-0.76736 1.19382,-1.29999 1.47467,-2.20001l0.0405,-0.89999" id="svg_19" stroke-width="2" stroke="#000" fill="none"/>
  <path t="103138,103258,103258,103266,103279,103296,103313,103329,103329,103346,103363,103379,103396,103396,103413,103413,103429,103429,103446,103467,103467,103479,103496,103513,103513,103529,103529,103547,103547,103563,103563,103580,103603,103627,103643,103675,103707,103715,103771,103771,103803,103811,103843,103859,103859,103867,103899,103947,103947,103963,103987,104011,104027,104035,104035,104075,104099,104123,104123,104131,104147,104164,104211,104555,104563,104563,104563,104579,104580,104580,104596,104597,104597,104597,104597,104597,104613,104613,104613,104613,104613,104614,104629,104629,104630,104630,104630,104630,104630,104646,104646,104646,104646,104646,104663,104663,104663,104664,104679,104679,104679,104696,104696,104697,104713,104713,104729,104746,104746,104771,104803,104813,104843,104883,104883,104915,104931,104947,104947,104963,104963,104988,104988,104988,105091,105203,105243,105299,105347,105387,105411,105467,105835,105843,105851,105883,105899,105913,105929,105946,105964,105964,105979,105980,105996,106013,106013,106029,106029,106046,106063,106063,106079,106096,106097,106113,106113,106129,106130,106146,106147,106163,106179,106203,106203,106219,106229,106246,106263,106279,106280,106280,106280,106296,106297,106297,106297,106313,106313,106314,106329,106330,106330,106330,106347,106347,106347,106347,106347,106364,106364,106364,106364,106380,106380,106380,106380,106380,106396,106397,106397,106413,106414,106429,106430,106430,106430,106446,106447,106463,106464,106464,106479,106480,106496,106497,106497,106513,106514,106514,106529,106530,106547,106547,106547,106564,106564,106564,106579,106580,106580,106596,106597,106613,106635,106646,106663,106679,106696,106697,106714,106729,106747,106763,106764,106779,106803,106819,106819,106829,106859" d="m409.5,421c-1,1 -0.98126,1.80017 -1,2.70001c-0.01801,0.86453 -0.78769,1.36511 -0.96399,2.16132c-0.21027,0.94968 -0.03601,1.83417 -0.03601,2.73868c0,0.89999 0,1.81067 0,2.7215c0,0.69934 0,1.87833 0,2.65765c0,0.85419 0,1.71634 0,2.65683c0,0.84802 0,1.71133 0,2.60684c0,0.95718 -0.09528,1.87366 0.08533,2.64252c0.23172,0.98642 0.62711,1.51526 1.11334,2.51334c0.3714,0.76239 0.73914,1.57327 0.79999,2.39999c0.06616,0.8989 0.00134,1.80133 0.00134,2.70132c0,0.89999 0.00009,1.79999 0,2.70001c-0.00009,0.89999 -0.23395,1.75827 -0.64734,2.5c-0.42563,0.76367 -0.89584,1.50327 -1.23117,2.39999c-0.31808,0.85065 0.08301,1.73697 -0.17865,2.60001c-0.26828,0.88489 -1.16162,1.31076 -1.58566,2c-0.50534,0.82138 -0.35495,1.79999 -0.35718,2.69998c-0.00226,0.89999 -0.33691,1.63126 -0.716,2.39999c-0.41684,0.84525 -0.24203,1.74026 -0.56799,2.68402c-0.24463,0.70828 -0.58597,1.63611 -0.716,2.51599c-0.12424,0.8407 -1.48697,1.42471 -0.996,2.19601c0.37711,0.59241 1.30984,-0.06772 1.99518,-0.60953c0.69702,-0.55106 1.24875,-1.16827 1.5795,-1.8945c0.52399,-1.15057 0.63162,-1.94681 0.81067,-2.81064c0.09607,-0.46344 0.26324,-1.45078 0.32532,-1.97067c0.19449,-1.62881 0.20975,-2.19565 0.24933,-3.34668c0.02011,-0.58469 0.02933,-1.17462 0.03467,-2.36533c0.00537,-1.19867 -0.00256,-1.79852 0.00583,-2.99417c0.00418,-0.59387 0.00586,-1.18402 0.05267,-2.34732c0.02301,-0.57208 0.15738,-2.23624 0.22818,-2.76917c0.13718,-1.03256 0.2196,-1.52875 0.41916,-2.46918c0.27377,-1.29028 0.48383,-2.05035 0.6955,-2.73618c0.28439,-0.92148 0.69666,-1.9628 1,-2.65732c0.29675,-0.67944 0.71335,-1.64172 0.98935,-2.44c0.2666,-0.77109 0.56665,-1.81128 0.60931,-2.58267c0.04633,-0.83737 0.00134,-1.85535 0.00134,-2.54999c0,-1.01669 0,-1.95267 0,-2.85269c0,-0.89999 0,-1.79999 0,-2.59998c0,-0.90002 0.03662,-1.86087 -0.28534,-2.68268c-0.26709,-0.68179 -1.03439,-1.3873 -1.68533,-1.68533c-0.81052,-0.37112 -1.5603,-0.78989 -2.17599,-1.34933c-0.8342,-0.758 -1.58755,-1.35355 -1.84265,-2.09332c-0.28992,-0.84082 0.2793,-1.78247 1.08914,-2.26801c0.72977,-0.43753 1.28705,-1.02716 1.87485,-1.54666c0.58282,-0.51511 1.44269,-0.66415 2.05066,-1.14935c0.62451,-0.49838 1.5943,-0.42337 2.37466,-0.85065c0.8226,-0.45038 1.71533,-0.48434 2.48535,-0.66c0.79367,-0.18103 1.47223,-0.60391 2.35748,-1.21017c0.76627,-0.52478 1.5267,-0.7225 2.40985,-1.05716c0.7056,-0.2674 1.7605,-0.51245 2.54733,-0.93134c0.65259,-0.34744 1.55783,-0.68436 2.45715,-0.72049c0.7486,-0.03009 1.73535,-0.30096 2.54285,-0.57019c0.99136,-0.33054 1.81396,-0.29865 2.63333,-0.59198c0.80878,-0.28955 1.608,-0.71719 2.36667,-1.11734c0.85837,-0.45273 1.59998,-0.71533 2.5,-0.716c0.89999,-0.00067 1.828,-0.19745 2.60449,0.01349c0.95532,0.25952 1.36096,1.05197 1.71634,1.54901c0.59454,0.8316 1.181,1.73602 1.57465,2.33301c0.57141,0.86658 0.9339,1.41049 1.52051,2.4205c0.39395,0.67831 0.77292,1.36508 1.36667,2.37198c0.33478,0.56772 0.70099,1.17731 0.948,1.884c0.40103,1.1474 0.47531,2.03644 0.52768,2.94885c0.05338,0.93005 0.03699,1.39648 0.04181,2.75766c0.00305,0.86432 0.00183,1.70172 0.05701,2.517c0.08163,1.2067 0.21317,2.00488 0.37885,2.78317c0.16019,0.75256 0.32379,1.46527 0.76401,2.65067c0.27444,0.73901 0.59042,1.3728 1.10449,2.37515c0.32547,0.63461 0.86441,1.56079 1.34366,2.34818c0.33255,0.54639 0.85052,1.33862 1.18384,2.362c0.21228,0.6517 0.47766,1.70068 0.87332,2.28534c0.55692,0.82291 1.04114,1.60339 1.29468,2.39999c0.3197,1.00446 0.70663,1.60257 1.18533,2.20001c0.64374,0.80344 1.15555,1.6037 1.61334,2.31467c0.48199,0.74857 1.08133,1.37473 1.68799,1.97064c0.5502,0.54047 1.18063,1.14084 2.19733,1.91336c0.53156,0.4039 1.07828,0.78534 2.14935,1.43466c0.69717,0.42267 1.38379,0.66568 2.28,1.36667c0.57104,0.44669 0.90863,1.45065 1.73734,1.77466c0.87497,0.3421 1.59451,0.76404 2.09665,1.38251c0.57205,0.70459 0.90451,1.41144 1.04819,2.34283c0.13721,0.8895 0.00449,1.82083 0.00449,2.784c0,0.69064 0,1.75882 0,2.616c0,0.89999 0,1.69998 -0.05716,2.60001l-0.46368,0.77914" id="svg_20" stroke-width="2" stroke="#000" fill="none"/>
 </g>
 <g display="none">
  <title>muse_image</title>
  <image xlink:href="http://farm2.static.flickr.com/1187/738942378_6a0da916d3.jpg" id="muse" height="427" width="640" y="26.5" x="0"/>
 </g>
 <g display="none">
  <title>bbox</title>
  <rect stroke="#f00" fill="none" stroke-width="3" height="398.87425" width="619.52" y="52.06886" x="11.52" id="bbox"/>
 </g>
</svg>
