<svg width="640" height="480" xmlns="http://www.w3.org/2000/svg" xmlns:svg="http://www.w3.org/2000/svg" xmlns:xlink="http://www.w3.org/1999/xlink">
 <!-- Sketchy ANNOTATION
  ImageNet ID: n02503517_8137
  URL: http://farm1.static.flickr.com/41/81317196_a96223ef04.jpg
  Image Width: 500
  Image Height: 333
  BBox X: 0
  BBox Y: 1
  BBox Width: 453
  BBox Height: 332
  Exposure: 2000ms
  Synset Label: elephant
  Synset ID: n02503517
  Worker Tag: extreme close-up elephant with raised trunk
  Sanity Check: 
   Context
   Saved
   Shading
  Comment: 
   {}
  Worker ID: A2HM35CWB7IIFM
  Assignment ID: 30LB5CDZNCA2E60EWQGRVXF8M0C0Z9
  HIT ID: 306W7JMRYYYMRD47VE81DAJ2DKCB8E
  Work Time: 86s
  Worker Score: 0.9286
 END ANNOTATION -->
 <g display="inline">
  <title>Layer 1</title>
  <path t="0,112,112,122,123,123,134,134,149,150,150,165,165,165,171,172,172,186,187,187,202,203,207,207,207,223,223,238,238,248,248,261,262,262,268,268,268,280,280,294,294,310,310,317,341,359,359,378,403,403,426,451,476,476,493,493,493,501,501,512,513,513,526,526,526,542,542,542,550,550,562,562,574,575,593,593,593,600,611,611,625,641,648,673,673,686,697,697,710,723,724,724,724,735,735,735,735,735,747,747,747,747,759,759,759,775,775,775,784,785,796,796,808,808,826,826,834,834,834,845,845,845,845,858,858,859,859,874,874,874,875,882,883,883,894,894,908,908,925,943,958,969,980,1005,1005,1018,1018,1029,1030,1042,1063,1063,1071,1072,1072,1079,1079,1092,1092,1108" d="m387,224.89999c1.06699,-1.30449 1.83286,-1.56937 2.83334,-2.16666c0.73523,-0.43893 1.32526,-1.00259 2,-1.66667c0.54562,-0.537 1.33942,-1.32736 1.81934,-1.82384c0.52878,-0.54701 1.19382,-1.33409 1.72198,-2.14282c0.38776,-0.59373 0.9415,-1.40439 1.45068,-2c0.51678,-0.60449 1.15662,-1.39787 1.67465,-2.20001c0.38647,-0.5984 1.00986,-1.37851 1.47916,-2c0.73129,-0.96843 0.84927,-1.83745 1.18884,-2.51466c0.40845,-0.81459 1.2739,-1.15465 1.94534,-1.97066c0.40475,-0.4919 0.66846,-1.52638 0.87198,-2.304c0.27866,-1.06462 0.91711,-1.5527 1.36652,-2.02051c0.84903,-0.88383 0.96985,-1.47021 1.40082,-2.18483c0.65436,-1.08501 1.27039,-1.42978 2.08069,-2.00534c0.66586,-0.47296 1.478,-1.11913 1.88132,-1.79999c0.48996,-0.82716 0.71216,-1.60883 1.38535,-2.3c0.59204,-0.60786 1.30933,-1.2908 1.89999,-1.90001c0.57321,-0.5912 0.98199,-1.39946 1,-2.30449c0.02023,-1.0168 0.01306,-1.71643 0,-2.69551c-0.01068,-0.8002 -0.09509,-1.64233 -0.56934,-2.39999c-0.53568,-0.85587 -1.27664,-1.59148 -1.67801,-2.2c-0.39044,-0.59196 -1.06882,-1.60439 -1.578,-2.2c-0.51678,-0.60449 -1.14725,-1.40396 -1.54932,-1.98933c-0.5018,-0.73058 -1.27921,-1.45168 -1.97266,-1.90617c-0.76868,-0.5038 -1.38593,-1.0369 -1.85269,-1.78983c-0.43643,-0.70401 -0.89023,-1.71957 -1.19998,-2.304c-0.38788,-0.73189 -1.00912,-1.5661 -1.69983,-2.31067c-0.55035,-0.59326 -0.98117,-1.29906 -1.54752,-1.95267c-0.52008,-0.60019 -1.39191,-0.7709 -2.15265,-1.03267c-0.77957,-0.26823 -1.3063,-1.24854 -2,-1.62933c-0.8316,-0.45648 -1.70001,-0.28534 -2.57602,-0.28534c-0.70734,0 -1.49466,0 -2.79065,0c-0.91602,0 -1.3815,0 -2.3125,0c-0.91101,0 -2.1875,0 -2.95016,0c-0.69867,0 -1.66168,0 -2.87051,0c-0.59567,0 -1.46417,0 -2.53351,0c-0.7095,0 -1.56262,-0.02895 -2.56534,0.00134c-0.94537,0.02856 -1.80643,0.4382 -2.48532,0.71466c-0.91113,0.37102 -1.71786,0.25464 -2.72049,0.2885c-0.85379,0.02882 -1.8212,0.20175 -2.6315,0.4315c-0.57785,0.16385 -1.76175,0.57092 -2.36533,0.76266c-0.91623,0.29106 -1.54773,0.49724 -2.92001,0.68001c-0.72812,0.09697 -1.47968,0.10854 -2.22601,0.174c-1.0878,0.0954 -2.09573,0.29898 -2.73181,0.44733c-0.91986,0.21452 -1.81839,0.40401 -2.69952,0.464c-0.80573,0.05487 -1.85199,0.036 -2.70398,0.036c-0.94269,0 -1.63333,0 -2.70667,0c-0.91068,0 -1.81067,0 -2.71066,0c-0.90002,0 -1.80017,0 -2.58536,0c-0.95065,0 -1.71597,0 -2.71014,0c-0.74734,0 -1.77927,0.01392 -2.72601,-0.00015c-0.69955,-0.01039 -1.68326,-0.15224 -2.47849,-0.42517c-0.80508,-0.27631 -1.80002,-0.5175 -2.60001,-0.57018l-0.99869,-0.0045l-0.76532,0l-0.95065,0" id="svg_1" stroke-width="2" stroke="#000" fill="none"/>
  <path t="2520,2665,2666,2678,2678,2678,2691,2691,2691,2691,2708,2708,2708,2708,2708,2716,2716,2716,2716,2728,2728,2728,2728,2728,2741,2741,2741,2741,2741,2758,2758,2758,2765,2765,2777,2777,2791,2791,2791,2809,2809,2809,2814,2814,2827,2827,2827,2842,2842,2842,2842,2857,2858,2858,2864,2865,2865,2877,2877,2891,2891,2900,2901,2913,2913,2925,2941,2942,2949,2950,2950,2961,2962,2962,2962,2974,2975,2975,2975,2975,2975,2975,2992,2992,2992,2992,2992,2992,2999,2999,3000,3000,3000,3011,3011,3011,3025,3025,3041,3042,3061,3061,3076,3086,3096,3097,3109,3109,3126,3126,3134,3135,3135,3146,3146,3147,3147,3159,3159,3159,3159,3175,3175,3175,3175,3175,3184,3184,3184,3185,3185,3195,3195,3195,3209,3209,3232,3232,3232,3257,3258,3276,3282,3282,3307,3326,3331,3368,3392,3392,3418,3443,3469,3480,3493,3509,3516,3516,3527,3527,3541,3542,3559,3560,3565,3577,3577,3592,3602,3614,3626,3652,3663,3676,3700,3700,3725,3751,3751,3774,3793,3811,3835,3872,3872,3897,3921,3921,3935,3947,3947,3947,3958,3958,3959,3975,3975,3975,3984,3985,3985,3995,3995,4008,4008,4025,4095,4107,4107,4124,4132,4132,4142,4143,4143,4159,4160,4160,4169,4169,4179,4192,4192,4209,4242,4254,4269,4270,4292,4317,4366" d="m332,167.89999c-0.98532,-1.84666 -1.10767,-2.71376 -1.57068,-3.68399c-0.26685,-0.55914 -0.81705,-1.37981 -1.42932,-2.14934c-0.58463,-0.73476 -1.02655,-1.18245 -1.45715,-1.6765c-0.97748,-1.12152 -1.22491,-1.4608 -1.77884,-2.14084c-0.57132,-0.7014 -1.12863,-1.4185 -2.06418,-2.30632c-0.58243,-0.55272 -1.20917,-1.01878 -1.85699,-1.43401c-0.99258,-0.6362 -1.72925,-1.00597 -2.46817,-1.41966c-0.75183,-0.42091 -1.14813,-0.60805 -2.20801,-1.356c-0.69809,-0.49265 -1.32748,-1.05058 -1.91998,-1.608c-0.56729,-0.53369 -1.32501,-1.30368 -2,-1.97867c-0.58502,-0.58501 -1.39587,-1.33253 -1.836,-1.87199c-0.66727,-0.81786 -1.01208,-1.60971 -1.57733,-2.37468c-0.45886,-0.621 -1.05399,-1.16425 -1.66669,-2c-0.56412,-0.7695 -0.89615,-1.3792 -1.08133,-2.40132c-0.14938,-0.82458 -0.07297,-1.7655 -0.08981,-2.55583c-0.01819,-0.85388 -0.14404,-2.04672 -0.28085,-2.64284c-0.2081,-0.90674 -0.42133,-1.49928 -0.81448,-2.69983c-0.29114,-0.88899 -0.52188,-1.45126 -0.73352,-2.53351c-0.18036,-0.92232 -0.13547,-1.56268 -0.168,-2.56533c-0.03067,-0.94532 -0.4382,-1.80641 -0.71466,-2.48534c-0.37103,-0.91112 -0.28333,-1.71733 -0.284,-2.71149c-0.00052,-0.74734 0,-1.77917 0,-2.72601c0,-0.69933 0,-1.87883 0,-2.49983c0,-0.94933 0,-1.82217 0,-2.5065c0,-0.77633 0,-1.65266 0,-3.17216c0,-0.56416 0,-1.15334 0,-2.38667c0,-0.63417 0,-1.27334 0,-1.9125c0,-1.8675 0,-2.45784 0,-3.5865c0,-0.54234 0,-1.593 0,-2.10533c0,-1.509 0,-2.0085 0,-2.99551c0,-0.951 0,-1.842 0,-3.0135c0,-0.64267 0,-1.41666 0,-2.47867c0,-0.774 -0.07013,-1.68788 0.08533,-2.62267c0.1348,-0.81058 0.61395,-1.52695 0.82935,-2.51334c0.211,-0.96626 0.24866,-1.88766 0.69598,-2.52133c0.48557,-0.68788 0.91678,-1.34565 1.26819,-2.34267c0.26852,-0.7618 0.68848,-1.51087 1.16281,-2.063c0.55707,-0.64841 1.36026,-1.64324 1.76901,-2.19434c0.42593,-0.57423 0.85422,-1.1825 1.61084,-2.06384c0.52182,-0.60782 1.08685,-1.19254 1.68298,-1.743c0.87759,-0.81036 1.49582,-1.27583 2.10617,-1.7425c0.6243,-0.47735 1.29031,-0.96575 2.31052,-1.85717c0.73856,-0.64532 1.09079,-1.0004 1.81747,-1.67083c0.68948,-0.63609 1.60724,-1.43721 2.14252,-1.81517c0.64874,-0.4581 1.6333,-1.07643 2.18018,-1.5075c0.87677,-0.69113 1.34686,-1.01261 2.08798,-1.53867c0.9209,-0.65365 1.47876,-1.36988 2.35068,-1.70383c0.84808,-0.32482 1.60001,-0.17867 2.39999,-0.6215c0.79999,-0.44283 1.70001,-0.5 2.60001,-0.5c0.89999,0 1.69998,0 2.60001,0c0.89999,0 1.79999,0 2.69998,0c0.89999,0 2.0242,-0.22768 2.47867,0.44283c0.42465,0.6265 0.4155,1.66732 0.92267,2.44117c0.50299,0.76746 0.92673,1.50104 1.11334,2.51467c0.13922,0.75626 0.08533,1.716 0.08533,2.60133c0,0.8 0,1.7 0,2.6c0,0.9 0,1.8 0,2.7c0,0.89999 0,1.8 0,2.7c0,0.8 0,1.75716 0,2.65266c0,0.86333 -0.0007,1.71133 0,2.64734c0.00067,0.89867 0.40442,1.54725 1.20001,1.98399c0.6481,0.35577 1.55716,0.71375 2.45267,0.716c0.69464,0.00175 1.73267,0.00315 2.68066,0c0.67648,-0.00225 1.73251,0.01439 2.74533,-0.2215c0.70932,-0.1652 1.36807,-0.49783 2.34265,-0.8785c0.79935,-0.31223 1.63474,-0.57819 2.65717,-1c0.69174,-0.28538 1.31122,-0.61183 2.3215,-1.09867c0.59668,-0.28752 1.60519,-0.60852 2.37866,-0.776c0.98627,-0.21356 1.56766,-1.14121 2.32135,-0.80383c0.70303,0.31471 1.43265,1.1216 1.73334,1.94517c0.29718,0.81398 0.16666,1.83334 0.16666,2.644c0,0.87466 0,1.87333 0,2.68933c0,0.816 0,1.81333 0,2.65334c0,0.96133 -0.0372,1.84753 0,2.64667c0.04272,0.91764 0.93912,1.41522 1,2.3c0.0618,0.89788 0,1.7 0,2.6l0,0.9l0,0.9" id="svg_2" stroke-width="2" stroke="#000" fill="none"/>
  <path t="5180,5363,5363,5375,5375,5375,5375,5398,5399,5399,5399,5399,5399,5411,5411,5411,5411,5411,5411,5427,5427,5427,5428,5441,5441,5441,5441,5448,5448,5448,5448,5449,5460,5460,5460,5460,5460,5460,5460,5460,5474,5474,5474,5474,5474,5474,5474,5490,5491,5491,5491,5491,5491,5497,5497,5497,5497,5497,5509,5509,5509,5524,5524,5524,5534,5534,5534,5534,5547,5547,5547,5547,5558,5558,5558,5558,5558,5558,5574,5574,5575,5575,5575,5575,5575,5583,5583,5584,5584,5584,5584,5595,5595,5595,5595,5596,5596,5608,5608,5608,5608,5625,5625,5626,5633,5633,5633,5633,5644,5644,5644,5657,5657,5657,5674,5674,5674,5675,5681,5681,5681,5682,5682,5694,5694,5694,5694,5694,5708,5708,5708,5708,5708,5726,5726,5726,5726,5731,5731" d="m367,100.9c1.33334,0.83334 2.08887,0.93937 3.16666,1.33334c0.53748,0.19646 1.38632,0.70709 2.05219,1.01849c1.09973,0.51431 1.9516,0.76959 2.39999,0.8955c0.94052,0.26409 1.43988,0.37265 2.46918,0.63667c1.08011,0.27705 2.19321,0.59742 2.75116,0.77316c0.55542,0.17494 1.63248,0.54093 2.13666,0.74734c1.37189,0.56162 2.09402,0.97924 2.69083,1.38483c0.78601,0.53418 1.74377,1.2141 2.2995,1.45351c0.89987,0.38766 1.603,0.56711 2.77719,0.8575c0.87793,0.21712 1.35211,0.31263 2.34998,0.57166c0.53116,0.13789 2.2417,0.65652 2.84952,0.87083c0.62827,0.22153 1.26782,0.4649 1.91849,0.7185c0.66034,0.25737 1.32233,0.52821 2.65601,1.05601c1.31436,0.52016 1.96027,0.76275 2.59467,0.99733c0.62125,0.22972 1.82581,0.66368 2.40533,0.87466c0.56412,0.20538 2.15112,0.8063 2.63983,1.01067c0.93655,0.39165 1.3822,0.59847 2.25751,1c0.86868,0.39848 1.74991,0.80482 2.66666,1.19867c0.92059,0.39551 1.37772,0.57881 2.25168,0.94417c1.16794,0.48825 1.81564,0.76188 2.60449,1.13633c1.06897,0.50742 1.66049,0.83492 2.29849,1.12083c1.17413,0.52618 1.71945,0.70492 2.57468,1c0.58951,0.2034 1.79065,0.60861 2.42133,0.8c1.03531,0.31419 1.41977,0.4192 2.73251,0.7c1.00394,0.21474 1.54291,0.30326 2.66748,0.5c0.58121,0.10168 1.17194,0.20033 2.96802,0.5c0.59998,0.10011 1.19998,0.2 1.79999,0.3c1.20001,0.2 1.80002,0.30003 2.39999,0.4c1.79984,0.29991 2.39835,0.40073 2.99551,0.4955c1.18301,0.18774 1.76761,0.2752 2.34732,0.34733c1.6882,0.21004 2.23523,0.23774 3.29102,0.30901c0.50876,0.03434 1.49011,0.06363 2.39417,0.2175c1.24109,0.21124 1.97174,0.51012 2.6095,0.87233c0.90344,0.51309 1.63846,1.16138 2.33716,1.74767c0.44894,0.37674 1.38144,1.06471 2.17801,1.45801c0.54053,0.26689 1.40662,0.57004 2.362,1.23799c0.69943,0.489 1.28467,1.11533 1.88535,1.71468c0.60065,0.59932 1.20334,1.19664 2.00015,2.00034c0.6131,0.61841 1.04398,1.06442 1.48517,1.57033c0.75024,0.86028 1.27512,1.54112 1.83551,2.271c0.58713,0.76468 0.88177,1.16003 1.77899,2.35834c0.29926,0.39967 0.89517,1.19595 1.46417,2c0.28165,0.39801 1.07455,1.59685 1.552,2.39734c0.23389,0.39214 0.65796,1.17787 1.13666,1.88832c0.67801,1.00621 1.22867,1.54234 2.00568,2.25183l0.47467,0.39635l0.81097,0.78217l0.25201,0.76799" id="svg_3" stroke-width="2" stroke="#000" fill="none"/>
  <path t="6645,6790,6790,6790,6790,6790,6802,6802,6803,6803,6803,6803,6815,6815,6815,6815,6815,6831,6831,6832,6832,6832,6841,6841,6841,6842,6842,6851,6851,6851,6851,6852,6852,6863,6863,6863,6863,6863,6874,6874,6875,6875,6875,6892,6892,6892,6892,6899,6899,6900,6900,6900,6900,6912,6912,6912,6912,6912,6912,6912,6925,6925,6926,6926,6926,6926,6941,6941,6941,6941,6941,6941,6950,6950,6951,6951,6962,6962,6962,6974,6974,6974,6991,6991,6999,6999,7011,7011,7011,7024,7042,7042,7042,7048,7048,7048,7048,7060,7060,7060,7060,7060,7060,7074,7075,7075,7075,7075,7085,7085,7086,7086,7096,7096,7096,7096,7108,7109,7109,7109,7125,7125,7125,7125,7134,7134,7134,7134,7134,7135,7135,7146,7146,7146,7146,7146,7146,7147,7158,7158,7159,7159,7159,7159,7174,7174,7174,7174,7175,7183,7184,7196,7196,7207,7207,7208,7226,7226,7233,7234,7244,7257,7258,7258,7274,7282,7282,7282,7294,7294,7294,7294,7307,7308,7308,7324,7324,7325,7325,7330,7330,7331,7331,7343,7343,7343,7358,7358,7358,7358,7367,7368,7368,7368,7380,7380,7380,7380,7380,7392,7393,7393,7393,7407,7407,7408,7408,7417,7417,7418,7418,7418,7428,7429,7429,7429,7429,7429,7441,7441,7441,7441,7441,7457,7458,7458,7458,7466,7466,7478,7478,7478,7491,7491,7507,7516,7516,7527,7527,7541,7541,7558,7559,7559,7564,7565,7565,7577,7577,7577,7578,7592,7592,7592,7592,7593,7608,7608,7608,7608,7609,7613,7613,7614,7614,7625,7626,7626,7641,7641,7641,7642,7651,7651,7651,7663,7675,7675,7691,7691,7701,7712,7725,7742,7742,7742,7750,7750,7751,7761,7761,7762,7775,7776,7776,7776,7776,7792,7792,7792,7793,7799,7799,7799,7811,7811,7826,7826,7842,7842,7847,7872,7896" d="m474,154.89999c4.39999,3.30017 5.20157,3.90248 5.60001,4.21068c0.80316,0.62126 1.21332,0.93085 2.39999,1.95599c0.40445,0.3494 1.19754,1.08385 1.58932,1.45866c0.77878,0.74509 1.15305,1.12247 2.24402,2.20801c0.68237,0.67896 0.99854,1.01762 1.66666,1.60416c0.63837,0.56041 1.65277,1.258 2.38535,1.59317c0.73782,0.33757 1.52863,0.57449 2.31598,0.85201c1.20404,0.42436 2.00421,0.7722 2.40933,0.95334c0.82745,0.36996 1.67224,0.7708 2.556,1.16399c0.91486,0.40701 1.86023,0.80716 2.33334,1.02084c0.95053,0.42931 1.43356,0.63283 2.7785,1.4005c0.44217,0.2524 1.28659,0.80235 2.11084,1.35333c0.40671,0.27187 1.60818,1.06276 2.40665,1.54134c0.38931,0.23334 1.16656,0.64787 1.83252,1.13666c0.90823,0.66663 1.52841,1.50279 1.85065,2.10983c0.34271,0.64561 0.84821,1.77399 1.29019,2.60951c0.2373,0.44853 0.75507,1.3886 1.01599,1.88533c0.53943,1.02681 1.05542,2.10611 1.29315,2.664c0.47943,1.12503 0.68774,1.70317 0.9007,2.27866c0.2124,0.57385 0.61572,1.71738 1.02081,2.83334c0.19818,0.54585 0.59851,1.61005 0.79999,2.13066c0.39716,1.02643 0.5993,1.5318 1.20001,3.036c0.19958,0.49977 0.59607,1.49078 0.78931,1.97867c0.37579,0.9489 0.73029,1.84882 1.04401,2.688c0.28448,0.761 0.65076,1.78491 0.80499,2.42433c0.28906,1.19812 0.29089,1.80632 0.38702,2.673c0.11896,1.07207 0.42438,1.99196 0.62201,2.6315c0.30701,0.99347 0.30768,1.82089 0.57397,2.8045c0.22137,0.8177 0.62292,1.79811 0.75336,2.58932c0.11932,0.72377 0.56732,1.55391 0.85864,2.54401c0.19489,0.6624 0.14941,1.49388 0.33337,2.66666c0.09534,0.60786 0.35272,1.55875 0.48065,2.27151c0.21948,1.22295 0.24609,1.6918 0.29547,2.69099c0.05225,1.05766 0.05048,1.59747 0.05585,2.67084c0.00519,1.03331 0.00134,1.99599 0.00134,2.89467c0,0.43033 0,1.26299 0,2.47198c0,0.79868 0,1.58934 0,2.74284c0,1.0905 0,1.77184 0,2.73633c0,0.61633 0,1.821 0,2.42534c0,0.9315 0.00781,1.58086 -0.00134,2.98349c-0.00507,0.76938 -0.02838,1.59503 -0.05585,2.03084c-0.08917,1.41594 -0.22589,2.45348 -0.29999,3c-0.07648,0.56416 -0.25305,1.73856 -0.34735,2.34734c-0.09637,0.6219 -0.39484,2.55496 -0.49683,3.21516c-0.10236,0.66246 -0.20386,1.32359 -0.31946,1.97701c-0.22577,1.27658 -0.33246,1.89526 -0.64587,3.04166c-0.28809,1.05377 -0.47913,1.53561 -0.83331,2.45834c-0.34082,0.88788 -0.55481,1.31024 -0.97833,2.66266c-0.2865,0.91479 -0.3891,1.37997 -0.57501,2.28168c-0.17316,0.84003 -0.28857,1.93741 -0.44666,3.01401c-0.13538,0.92181 -0.56024,1.55688 -1.09998,2.40482c-0.43262,0.67966 -0.68738,1.28629 -1.20001,2.27402c-0.39044,0.75235 -0.88129,1.53607 -1.5,2.20316c-0.58282,0.62842 -1.20691,1.36386 -1.60004,2.02667c-0.40717,0.68646 -0.96332,1.59952 -1.76666,2.17465c-0.64594,0.46243 -1.30243,0.74469 -2.25464,1.32135c-0.53561,0.32437 -1.34964,0.85925 -1.89468,1.19467c-0.99472,0.61218 -1.7142,0.98953 -2.45334,1.45331c-0.88492,0.55527 -1.53598,1.03601 -2.23065,1.53067c-0.69467,0.49466 -1.66571,1.16815 -2.22934,1.53201c-0.72778,0.46988 -1.41415,0.89233 -2.17065,1.73865c-0.42743,0.47818 -1.00208,1.33694 -1.60001,2.22934c-0.4014,0.59906 -0.79999,1.20001 -1.39999,2.10001c-0.60001,0.89999 -0.99219,1.5051 -1.41068,2.08932c-0.41632,0.58124 -1.34293,1.65845 -1.87466,2.12668c-0.53784,0.47363 -1.1315,0.90149 -1.716,1.36801c-0.90842,0.7251 -1.48538,1.27954 -2.39865,2.05466c-0.59158,0.50211 -1.48874,1.14066 -2.10901,1.45151c-0.62183,0.31161 -1.30664,0.55447 -2.42435,0.9765c-0.83701,0.31604 -1.72879,0.66739 -2.1875,0.85416c-0.93262,0.37973 -2.31305,0.97791 -2.75781,1.17899c-0.86978,0.39325 -1.71933,0.78409 -2.14667,0.96417c-0.85474,0.36017 -2.19458,0.81894 -2.65735,0.952c-0.92957,0.26727 -1.85855,0.50061 -2.3075,0.63669c-1.28427,0.38922 -2.05646,0.6947 -3.02649,1.24731c-0.57257,0.3262 -1.41568,1.01236 -2.08334,1.47919c-0.80536,0.56311 -1.5116,0.80579 -2.24933,1.12082c-1.11758,0.47723 -1.65616,0.99112 -2.55518,1.34732c-0.82706,0.3277 -1.55905,0.42526 -2.52884,1.05267c-0.6752,0.43683 -1.366,0.95447 -2.13733,0.99869c-1.04196,0.05975 -1.85315,0.01355 -2.43201,0.08664c-1.20456,0.15213 -2.10556,0.43509 -2.69733,0.67636c-0.91388,0.37262 -1.80219,0.89517 -2.42084,1.23831c-0.63397,0.35162 -1.63828,0.85342 -2.36581,1.11469c-0.75281,0.27032 -1.55777,0.48389 -2.39999,0.68399c-1.33096,0.31625 -1.79913,0.38593 -2.71735,0.62268c-0.90344,0.23294 -1.79578,0.45575 -2.83167,1.12131c-0.63568,0.40842 -1.10519,0.9751 -1.608,1.452c-0.94601,0.89728 -1.52457,1.17303 -2.33099,1.65601c-1.08072,0.64725 -1.55118,1.10718 -1.98935,1.60001c-0.64838,0.72931 -1.41306,1.63632 -2.02533,2.07733c-0.70102,0.50494 -1.46738,0.95731 -2.21066,1.672c-0.5097,0.49011 -1.12363,1.30383 -1.79999,1.71466c-0.77612,0.47144 -1.35135,1.06418 -2.24167,1.28534c-0.94403,0.2345 -1.77948,0.40933 -2.35834,0.76169c-0.83398,0.50769 -1.3699,1.11407 -2.05716,1.52847c-0.91776,0.55341 -1.7941,0.63443 -2.7045,0.81519c-1.0108,0.20068 -1.72742,0.45456 -2.47433,0.75598c-0.77872,0.31424 -1.55527,0.68311 -2.76367,1.11719c-0.78519,0.28207 -1.56,0.49634 -2.28601,0.71698c-0.98279,0.29868 -1.79092,0.62473 -2.49301,0.8685c-1.00937,0.35046 -1.80032,0.4256 -2.79999,0.436c-0.77396,0.00806 -1.67401,0 -2.53732,0l-0.96317,0l-0.92084,0l-0.89999,0" id="svg_4" stroke-width="2" stroke="#000" fill="none"/>
  <path t="9277,9436,9436,9437,9449,9449,9449,9450,9450,9464,9465,9465,9465,9465,9465,9480,9480,9481,9481,9481,9481,9498,9498,9498,9498,9510,9511,9511,9511,9511,9525,9525,9525,9538,9552,9564,9574,9575,9583,9595,9595,9608,9629,9634,9634,9634,9643,9644,9669,9670,9681,9731,9756,9794,9842,9842,9917,9941,9978,10015,10090,10102,10102,10125,10125,10148,10148,10163,10186,10200,10223,10223,10242,10483,10499,10500,10520,10542,10543,10560,10560,10568,10580,10580,10592,10592,10608,10628,10665,10691,10691,10707,10716,10727,10742,10742,10758,10758,10765,10776,10776,10776,10791,10801,10802,10813,10825,10825,10841,10851,10862,10862,10862,10875,10875,10875,10891,10892,10892,10900,10900,10900,10912,10912,10912,10912,10924,10925,10942,10942,10950,10950,10961,10974,10975,10991,10999,11010,11024,11024,11042,11042,11047,11048,11060,11060,11060,11074,11074,11091,11097,11109,11126,11146" d="m366,318.89999c0.57199,2.68533 1.04553,3.53296 1.46616,4.10452c0.67389,0.91568 1.20792,1.509 1.79117,2.09549c0.61108,0.6145 0.93564,0.93304 2.07602,1.79999c0.8194,0.62292 1.2735,0.90759 2.20831,1.47919c0.47595,0.29102 0.95505,0.58734 2.45834,1.35416c0.49573,0.25287 1.48926,0.70901 1.97867,0.91998c0.94601,0.40781 1.84921,0.76385 2.68799,1.08002c0.7627,0.28751 1.82257,0.66525 2.48151,0.9765c1.03546,0.48907 1.73608,0.95438 2.46649,1.43018c0.3653,0.23795 1.02194,0.80496 2.34219,1.39566c0.73572,0.32916 1.58246,0.38452 2.40717,0.78967c0.86942,0.42712 1.73599,0.57465 2.63599,0.57465c0.79999,0 1.63599,0 2.65268,0c0.69464,0 1.71133,0 2.65182,0c0.86215,0 1.73715,0 2.38217,0c0.996,0 1.79248,0 2.97998,0c0.79169,0 1.73334,0 2.63333,0c0.90002,0 1.80002,0 2.70001,0c0.79999,0 1.81339,-0.39337 2.564,0.03601c0.69064,0.39508 0.453,1.57339 0.86133,2.37466c0.39008,0.76544 0.55762,1.61011 0.57468,2.58932c0.01373,0.78928 0.15866,1.83752 0.5,2.47919c0.43716,0.82181 0.96741,1.45288 1.52084,2.04166c0.5972,0.63535 1.3656,1.03552 2.2175,1.42648c0.73721,0.33835 0.49823,1.27225 -0.03967,1.85269c-0.67221,0.7254 -1.34567,1.26016 -1.89868,1.95715c-0.54785,0.69052 -0.98929,1.37988 -1.21466,2.35751c-0.1998,0.8667 -0.10544,1.79715 -0.4425,2.53348c-0.37451,0.81812 -1.26193,1.32767 -1.66815,1.96252c-0.47955,0.74945 -0.9968,1.59024 -1.67468,2.03217c-0.73392,0.47845 -1.50327,0.90033 -2.39999,1.23566c-0.85065,0.31808 -1.65717,0.12149 -2.55267,0.12149c-0.86331,0 -1.86816,0 -2.88998,0c-0.70801,0 -1.452,0 -2.48666,0c-0.97067,0 -1.77066,0 -2.72784,0c-0.89551,0 -1.59015,0 -2.60684,0c-0.94049,0 -1.80264,0 -2.67764,0c-0.64502,0 -1.64368,0 -2.47919,0c-0.88049,0 -2.07916,0 -2.67917,0c-0.89999,0 -2.09998,0 -2.69998,0c-0.89999,0 -2.10001,0 -2.69867,0c-0.88049,0 -1.716,0 -2.716,0c-0.87466,0 -1.88516,0 -2.66449,0c-0.99933,0 -1.81952,0 -2.77802,0c-0.89551,0 -1.59015,0 -2.60684,0c-0.93597,0 -1.83731,0 -2.80264,0c-0.83334,0 -1.66669,0 -2.586,0c-0.909,0 -1.70905,0.00626 -2.66852,-0.00015c-0.79355,-0.00531 -1.61407,0.09448 -2.60815,-0.28384c-0.82355,-0.31342 -1.57068,-0.70532 -2.47067,-0.716l-0.89999,0l-0.89551,-0.00449l-0.7045,-0.49551" id="svg_5" stroke-width="2" stroke="#000" fill="none"/>
  <path t="12749,12920,12944,12945,12966,12966,12971,12972,12991,12991,12991,12991,12993,12993,12993,13005,13005,13005,13005,13017,13017,13017,13029,13029,13041,13042,13058,13058,13058,13066,13066,13078,13078,13078,13091,13091,13109,13109,13116,13116,13116,13128,13142,13142,13159,13159,13165,13165,13166,13166,13177,13178,13178,13178,13178,13193,13193,13193,13193,13209,13209,13209,13209,13214,13214,13214,13228,13228,13243,13244,13251,13252,13263,13263,13263,13277,13278,13278,13292,13292" d="m393,218.89999c-1.82535,0 -2.83334,0.00172 -3.62534,0c-1.03183,-0.00224 -1.7973,0.01115 -2.776,-0.28532c-0.63431,-0.19215 -1.76126,-0.72557 -2.284,-0.91333c-0.82947,-0.29793 -1.71054,-0.54948 -2.61465,-0.68001c-0.89584,-0.12933 -1.80594,-0.13434 -2.70001,-0.28799c-0.90326,-0.15524 -1.50671,-0.31464 -2.31467,-0.72c-1.04114,-0.52235 -1.65128,-1.12964 -2.284,-1.62933c-0.78415,-0.61928 -1.60077,-1.02077 -2.38,-1.58417c-0.68057,-0.49205 -1.36029,-1.20485 -1.836,-1.73584c-0.49454,-0.552 -0.98834,-1.57249 -1.23599,-2.364c-0.25336,-0.80977 -0.84448,-1.5695 -1.24402,-2.2c-0.60666,-0.95738 -0.58801,-1.80949 -0.927,-2.57866c-0.31207,-0.7081 -1.11703,-1.32608 -1.75748,-2.02135c-0.46454,-0.50429 -0.91129,-1.58124 -1.59018,-2.2c-0.54282,-0.49475 -1.41025,-0.89919 -2.09201,-1.43599c-0.67276,-0.52971 -1.33685,-1.05974 -2.23199,-1.50267c-0.66327,-0.3282 -1.84787,-0.62753 -2.27466,-0.69333c-0.88004,-0.13568 -1.78741,-0.17967 -2.664,-0.33601c-1.23599,-0.22044 -1.96609,-0.52194 -2.62634,-0.87366c-0.64566,-0.34395 -1.54007,-0.96072 -2.43716,-1.55383c-0.58264,-0.38521 -1.14099,-0.75777 -2.18283,-1.38316c-0.67096,-0.40277 -1.48877,-0.85738 -2.16901,-1.67401c-0.41248,-0.49518 -1.10068,-1.29376 -1.73181,-1.84734c-0.71994,-0.63148 -0.97714,-1.33459 -1.02084,-2.5c-0.03036,-0.81015 -0.01883,-1.46446 -0.22134,-2.42133c-0.17175,-0.81149 -0.42599,-1.62601 -0.65717,-2.657l-0.10065,-0.88" id="svg_6" stroke-width="2" stroke="#000" fill="none"/>
  <path t="15124,15245,15260,15260,15270,15270,15280,15280,15293,15293,15308,15308,15308,15324,15324,15325,15325,15330,15330,15330,15330,15330,15330,15341,15341,15341,15341,15341,15341,15342,15342,15342,15357,15357,15357,15357,15357,15358,15358,15358,15358,15367,15367,15367,15367,15367,15367,15368,15368,15368,15378,15378,15378,15378,15379,15379,15379,15379,15379,15391,15391,15391,15391,15391,15391,15391,15407,15407,15407,15407,15417,15418,15418,15418,15428,15428,15429,15429,15441,15441,15441,15441,15458,15458,15458,15458,15466,15466,15466,15467,15467,15467,15478,15478,15478,15478,15478,15478,15478,15490,15490,15491,15491,15491,15491,15491,15491,15507,15507,15507,15507,15507,15508,15514,15514,15514,15515,15515,15526,15527,15527,15527,15527,15541,15541,15541,15542,15542,15558,15558,15558,15558,15559,15564,15564,15564,15564,15564,15565,15565,15575,15575,15575,15576,15576,15576,15576,15576,15591,15592,15592,15592,15592,15592,15593,15593,15608,15608,15608,15608,15608,15608,15609,15612,15613,15613,15613,15613,15625,15625,15625,15625,15641,15641,15642,15642,15650,15650,15662,15662" d="m305,136.89999c-0.85068,-1.39999 -1.58945,-2.05478 -2.10535,-2.7c-0.53189,-0.66521 -1.26974,-0.96666 -2.142,-1.59999c-0.65506,-0.47563 -1.44882,-0.94392 -2.09998,-1.45717c-0.83234,-0.65604 -1.13721,-1.29364 -1.62201,-1.84416c-0.7496,-0.8512 -1.31421,-1.21886 -1.888,-1.67068c-0.63168,-0.49741 -1.67044,-1.36488 -2.40884,-2.05133c-0.39435,-0.36659 -0.79889,-0.75739 -1.65265,-1.6c-0.45456,-0.44862 -1.41428,-1.41025 -1.9245,-1.91984c-0.52975,-0.52908 -1.0791,-1.07658 -1.65002,-1.6395c-0.58905,-0.58079 -1.19846,-1.17626 -1.82999,-1.7835c-0.64841,-0.62347 -2.00787,-1.90281 -2.71951,-2.555c-0.72433,-0.66386 -1.46472,-1.32954 -2.21848,-1.9935c-0.75726,-0.66706 -1.52148,-1.32698 -2.2905,-1.9755c-0.763,-0.64346 -2.27872,-1.88006 -3.02634,-2.4665c-0.73114,-0.5735 -1.45334,-1.12314 -2.16452,-1.65c-0.69257,-0.51307 -1.37274,-1.00275 -2.03848,-1.46999c-0.64499,-0.45267 -1.88422,-1.29196 -2.47568,-1.68034c-0.56992,-0.37423 -1.1239,-0.72932 -1.66049,-1.071c-0.51978,-0.33097 -1.02585,-0.64983 -1.51651,-0.96301c-0.47867,-0.30552 -1.40045,-0.90758 -1.84467,-1.20866c-0.4371,-0.29627 -0.86023,-0.5974 -1.70065,-1.15867c-0.40823,-0.27263 -1.19385,-0.82275 -2.42068,-1.39883c-0.78073,-0.36661 -1.58313,-0.61143 -2.34299,-0.891c-1.09622,-0.40333 -1.77623,-0.72758 -2.42117,-1.07716c-0.62973,-0.34134 -1.82867,-1.02419 -2.436,-1.28934c-0.88989,-0.3885 -1.49933,-0.58285 -2.7,-0.98533c-0.59966,-0.20101 -1.5,-0.50001 -2.09999,-0.7c-1.20401,-0.40134 -1.832,-0.61066 -2.50801,-0.836c-0.748,-0.24933 -2.05649,-0.6855 -2.54799,-0.84933c-1.052,-0.35066 -1.60651,-0.5355 -2.17601,-0.72533c-1.172,-0.39066 -2.3683,-0.78843 -2.968,-0.98949c-1.20061,-0.40253 -1.80077,-0.60828 -2.39999,-0.82067c-0.6008,-0.21294 -1.80495,-0.65236 -3,-1.14583c-0.60239,-0.24874 -1.201,-0.5136 -1.7955,-0.7905c-1.18843,-0.55356 -1.76984,-0.85088 -2.34734,-1.14733c-0.57317,-0.29424 -2.23636,-1.1935 -2.76917,-1.49416c-0.52286,-0.29504 -1.52666,-0.87855 -2.00533,-1.16534c-0.9129,-0.54696 -1.74892,-1.07003 -2.51468,-1.55067c-0.71692,-0.44998 -1.40955,-0.89105 -2.13599,-1.284c-1.16071,-0.62785 -1.59866,-0.80431 -2.48267,-1.20134c-0.89732,-0.40302 -1.35675,-0.57369 -2.61601,-1.2c-0.77214,-0.38403 -1.47305,-0.79823 -2.14799,-1.2c-0.66905,-0.39825 -1.69948,-1.01466 -2.45149,-1.3955c-0.78859,-0.39936 -1.20473,-0.59998 -2.10583,-0.91917c-1.45415,-0.51509 -1.99918,-0.6086 -2.55135,-0.72367c-1.15584,-0.24087 -1.7692,-0.32107 -2.39999,-0.4c-0.64925,-0.08125 -2.7193,-0.24442 -3.446,-0.27633c-0.74031,-0.0325 -1.49196,-0.05186 -2.2515,-0.0645c-0.76448,-0.01272 -1.53101,-0.01758 -2.29651,-0.0195c-1.51599,-0.0038 -2.26117,-0.00134 -2.99733,-0.00134c-0.72816,0 -1.44934,0 -2.87466,0c-0.70616,0 -1.40933,0 -2.81067,0c-0.69949,0 -1.396,0 -2.76801,0c-0.66949,0 -1.32399,0 -1.96049,0c-1.7715,0 -2.30705,-0.0134 -3.2955,0.009c-0.89304,0.02025 -1.72301,0.02995 -2.80933,0.32433c-0.69595,0.1886 -1.33286,0.52381 -1.95601,0.852c-1.21498,0.63987 -1.79869,0.9565 -2.68983,1.273c-0.55759,0.19804 -1.83417,0.45633 -2.47916,0.52083l-1.02017,0.02084l-0.82016,0" id="svg_7" stroke-width="2" stroke="#000" fill="none"/>
  <path t="16846,16905,16906,16906,16906,16918,16918,16918,16919,16931,16931,16945,16945,16962,16963,16968,16968,16968,16969,16980,16980,16980,16980,16980,16992,16992,16992,16992,16992,16992,16992,17009,17009,17009,17009,17009,17009,17010,17010,17010,17016,17017,17017,17017,17017,17017,17017,17017,17017,17027,17028,17028,17028,17028,17028,17028,17028,17028,17042,17042,17042,17042,17043,17043,17043,17043,17043,17059,17059,17059,17059,17059,17059,17060,17060,17065,17066,17066,17066,17078,17078,17078,17092,17092,17092,17092,17109,17109,17110,17115,17115,17116,17116,17116,17126,17126,17127,17127,17127,17127,17127,17127,17142,17142,17143,17143,17143,17143,17143,17143,17144,17158,17159,17159,17159,17159,17159,17160,17164,17164,17165,17165,17165,17165,17175,17176,17176,17176,17192,17193,17193,17193,17209,17209,17213,17213,17225,17225,17226,17243,17243,17243,17251,17251,17262,17262,17299,17374,17396,17399,17400,17401,17416,17416,17417,17431,17431,17431,17440,17440,17440,17440,17448,17448,17448,17448,17449,17458,17475,17475,17484,17484,17495,17507,17525,17525,17533,17533,17534,17544,17544,17545,17557,17557,17557,17574,17575,17575,17575,17582,17582,17606,17606,17631,17632,17667,17667" d="m164,76.9c-2.40134,-2.968 -2.7984,-3.65828 -3.23599,-4.34933c-0.43723,-0.69048 -1.16641,-1.62707 -1.71217,-2.13183c-0.51401,-0.4754 -1.27864,-1.036 -2.0825,-1.63217c-0.71411,-0.52961 -1.62515,-0.85463 -2.37383,-0.88216c-0.99617,-0.03664 -1.83977,-0.0178 -2.76218,0.16216c-0.80447,0.15695 -1.39554,0.35138 -2.31999,0.80534c-1.06097,0.52099 -1.77516,1.0376 -2.16,1.28933c-0.80032,0.52351 -1.19365,0.8273 -2.52,1.57201c-0.91006,0.51097 -1.40752,0.72507 -1.91199,0.96266c-1.07393,0.50577 -1.65633,0.76719 -2.26401,1.05867c-1.32803,0.63702 -2.04434,1.00837 -2.80133,1.4c-0.79437,0.41097 -1.62025,0.84477 -2.481,1.28699c-0.88855,0.45651 -1.80312,0.92337 -2.75101,1.377c-1.94882,0.93264 -2.96431,1.36501 -3.99066,1.79601c-1.032,0.43336 -2.07281,0.85063 -3.1125,1.2645c-1.03366,0.41146 -2.0602,0.81169 -3.0675,1.21951c-1.95701,0.79231 -2.89049,1.19594 -3.792,1.6c-0.87411,0.39178 -1.71311,0.78564 -2.5155,1.1805c-0.77222,0.38001 -1.50777,0.75607 -2.2005,1.13551c-1.28645,0.70464 -1.86163,1.05997 -2.404,1.39867c-0.51487,0.32151 -0.99812,0.63882 -1.458,0.945c-0.44141,0.29388 -0.86336,0.58298 -1.278,0.855c-0.80155,0.52582 -1.20322,0.76833 -1.604,1c-0.39494,0.22829 -0.78912,0.44296 -1.1805,0.645c-0.38335,0.19791 -0.75602,0.39722 -1.85417,0.875c-0.67413,0.2933 -1.62325,0.62911 -2.14783,0.91933c-0.9141,0.50572 -1.48415,1.31161 -2.07217,1.76333c-0.92482,0.71043 -1.63464,0.85517 -2.30666,1.10934c-0.67467,0.25517 -1.88076,0.84741 -2.38934,1.21066c-0.76972,0.54978 -1.57305,1.18212 -2.22533,1.564c-0.71784,0.42027 -1.55064,0.80933 -2.00583,1c-1.50682,0.63117 -2.08235,0.80545 -2.67683,1c-1.2576,0.41157 -1.92532,0.60236 -2.61066,0.8c-0.70197,0.20243 -1.42032,0.40377 -2.89867,0.8c-0.75399,0.20209 -1.51634,0.40006 -2.2815,0.6045c-0.76685,0.20489 -1.5321,0.41248 -2.2905,0.6315c-0.75261,0.21735 -1.49934,0.42795 -2.92799,0.93066c-0.69389,0.24417 -2.01537,0.77946 -2.65067,1.048c-0.62101,0.2625 -1.22243,0.53094 -1.8165,0.7755c-1.69147,0.69633 -2.2408,0.87843 -3.3,1.2c-0.5072,0.15398 -1.48588,0.41652 -1.94733,0.558c-1.29253,0.39627 -2.06229,0.70832 -2.73617,1.08783c-0.93973,0.52923 -1.7229,1.15588 -2.4255,1.7595c-0.44072,0.37862 -1.0476,0.93044 -2.04816,1.65183c-0.53269,0.38406 -1.21053,1.2479 -1.45967,1.96334c-0.34998,1.00502 -0.81698,1.58423 -1.30117,2.18933c-0.63485,0.79339 -1.15898,1.58031 -1.3615,2.2c-0.31903,0.9762 -0.27234,1.81793 -0.57067,2.79867c-0.23825,0.78323 -0.18046,2.19253 -1,2.51466c-0.67217,0.26421 -1.01267,-1.11176 -1.588,-1.73866c-0.50637,-0.55176 -1.31741,-1.17066 -2.14883,-1.67467c-0.6563,-0.39785 -1.39868,-0.82456 -2.21517,-1.32533c-0.57328,-0.35161 -1.75874,-1.01946 -2.36533,-1.29066c-0.60432,-0.27018 -1.56154,-0.62301 -2.56533,-1.05067c-0.71889,-0.30627 -1.43608,-0.65071 -2.136,-0.972c-0.64153,-0.29449 -1.86872,-0.64152 -2.69733,-1.028c-0.81279,-0.3791 -1.65123,-0.80094 -2.34733,-0.82883c-1.01586,-0.0407 -1.95717,-0.0045 -2.81933,-0.0045c-0.85417,0 -1.83333,0 -2.644,0c-0.6465,0 -1.87467,0 -2.42533,0c-0.8685,0 -2.064,0 -2.964,0c-0.6,0 -1.8,0 -2.6955,0c-0.58367,0 -1.41917,0 -2.64733,0c-0.6465,0 -1.65717,0 -2.45717,0c-1,0 -1.78933,0 -2.83333,0l-0.805,0.05717" id="svg_8" stroke-width="2" stroke="#000" fill="none"/>
  <path t="19468,19626,19638,19638,19638,19638,19651,19652,19652,19652,19652,19652,19668,19668,19668,19668,19668,19668,19681,19681,19681,19681,19681,19681,19691,19691,19691,19691,19691,19691,19699,19700,19700,19700,19700,19700,19711,19711,19711,19711,19711,19711,19711,19724,19724,19724,19724,19724,19740,19741,19741,19741,19741,19748,19749,19749,19749,19761,19761,19761,19774,19774,19774,19791,19791,19791,19797,19797,19809,19809,19809,19809,19809,19824,19824,19825,19825,19825,19840,19841,19841,19841,19841,19841,19841,19841,19846,19847,19847,19847,19847,19847,19847,19847,19857,19857,19858,19858,19858,19858,19858,19874,19875,19875,19875,19875,19875,19875,19875,19884,19884,19884,19884,19884,19884,19885,19885,19896,19896,19896,19896,19897,19897,19907,19908,19908,19908,19923,19923,19923,19923,19923,19932,19933,19933,19933,19944,19944,19945,19957,19957,19957,19973,19973,19973,19982,19982,19982,19994,19994,19994,20006,20006,20007,20007,20007,20023,20023,20023,20023,20024,20024,20030,20030,20031,20031,20031,20031,20031,20031,20043,20043,20043,20043,20043,20043,20044,20044,20056,20056,20057,20057,20057,20057,20073,20073,20074,20074,20081,20081,20081,20081,20092,20092,20108,20108,20124,20124,20129,20142,20158,20178,20191,20192,20207,20207,20215,20216,20227,20228,20240,20240,20256,20256,20257,20265,20265,20290,20313,20313,20338" d="m181,329.89999c0,1.70801 0,2.76468 0,3.37601c0,0.70734 0,1.49466 0,2.79068c0,0.91998 0,1.87997 0,2.375c0,1.01999 0,1.54498 0,3.17966c0,0.56265 0,1.13132 0,2.27866c0,0.57468 0,1.716 0,2.83334c0,1.08267 0,1.61398 0,2.66666c0,0.52533 0,1.58401 0,2.66669c0,1.11731 0,1.68597 0,2.25867c0,1.14932 0,1.72198 0,3.40799c0,0.54532 0,1.61398 0,2.14133c0,1.05066 0,1.578 0,3.19202c0,0.55447 0,1.116 0,2.24799c0,0.56451 0,1.67551 0,2.216c0,1.52649 0,2.4595 0,2.90799c0,0.87601 0,1.74402 0,3.08252c0,0.927 0,1.39349 0,2.31747c0,0.89203 0,2.11835 0,2.84702c0,0.99301 0,1.61166 0,2.81433c0,0.60001 0,1.5 0,2.69983c0,0.8895 0.00613,1.4642 0,2.53351c-0.00534,0.93073 -0.02673,1.78232 -0.28667,2.56934c-0.29507,0.89346 -0.8858,1.92783 -1.196,2.56799c-0.33835,0.69827 -0.69196,1.43817 -0.948,2.23199c-0.38115,1.1817 -0.46866,2.0108 -0.52934,2.42935c-0.127,0.87592 -0.25809,1.83292 -0.53999,2.86798c-0.31796,1.16745 -0.56964,1.77399 -0.81866,2.40802c-0.25809,0.6571 -0.54442,1.32617 -0.85201,2.00549c-0.31367,0.69278 -0.99281,2.0881 -1.35049,2.78616c-0.35831,0.69931 -0.7261,1.39182 -1.09351,2.07901c-0.36362,0.68015 -0.73309,1.34454 -1.416,2.65067c-0.64461,1.23288 -0.92815,1.82718 -1.20267,2.40134c-0.52919,1.10675 -0.78027,1.65213 -1.05333,2.18399c-0.55219,1.07556 -1.2058,2.15704 -1.57784,2.70648c-0.38379,0.5668 -0.80098,1.13171 -1.2435,1.69351c-0.44846,0.56934 -1.39778,1.68262 -1.896,2.216c-0.98099,1.05023 -1.49144,1.53104 -1.996,1.99734c-0.49557,0.45801 -0.9893,0.90244 -2,1.71466c-0.49484,0.39767 -0.98698,0.78784 -2.4995,1.83566c-0.49234,0.34106 -0.98637,0.66098 -1.938,1.28c-0.45419,0.29544 -1.32613,0.82776 -2.39833,1.62033c-0.61328,0.45334 -1.14082,0.92426 -1.66501,1.37399c-1.13641,0.97504 -1.46605,1.23276 -2.14983,1.77267c-0.69754,0.55078 -1.39513,1.07425 -2.30634,1.85333c-0.53697,0.45914 -1.23662,1.13345 -1.64034,1.60535c-0.83305,0.97372 -1.20636,1.53183 -1.7455,2.36331c-0.50406,0.77737 -0.87062,1.51651 -1.40984,2.34818c-0.53603,0.82672 -1.07617,1.41138 -1.65182,2.00449c-0.78568,0.80951 -1.20979,1.18274 -1.75951,1.80002c-0.6937,0.77896 -1.18932,1.63611 -1.703,2.19998c-0.58736,0.64474 -1.50208,1.21252 -2.21632,1.60001c-0.38109,0.20676 -1.20071,0.61194 -2.5385,1.20001c-0.46437,0.20413 -1.43402,0.60379 -1.94067,0.79999c-1.05331,0.4079 -1.60574,0.61108 -2.77083,1c-1.23347,0.41174 -1.8805,0.60165 -2.53867,0.80002c-0.66916,0.20166 -1.34911,0.40079 -2.03699,0.59998c-0.69344,0.20081 -2.09053,0.60165 -3.48967,0.99869c-0.69659,0.19766 -1.39019,0.39236 -2.0805,0.58051c-0.68437,0.18652 -1.36211,0.36984 -2.0355,0.53549c-1.95898,0.4819 -2.59563,0.60181 -3.21467,0.72815c-0.60232,0.12292 -1.75256,0.34372 -2.29467,0.45267c-1.47755,0.29691 -2.32271,0.49466 -3.068,0.7045c-0.67858,0.19107 -1.90681,0.60361 -2.50666,0.79868c-0.8788,0.2858 -1.70721,0.56653 -2.716,0.716c-0.66042,0.09784 -1.68533,0.08533 -2.47466,0.08533c-1.04401,0 -1.90617,0 -2.81067,0c-0.9,0 -1.8,0 -2.7,0c-0.90133,0 -1.58533,0 -2.536,0c-0.76534,0 -1.764,0 -2.564,0c-1,0 -1.8,0 -2.8,0c-0.8,0 -1.8,0 -2.60001,0c-0.8,0 -1.79549,0 -2.71466,0c-0.98534,0 -1.80667,0 -2.66,0l-0.94,0" id="svg_9" stroke-width="2" stroke="#000" fill="none"/>
  <path t="24428,24598,24598,24613,24613,24628,24634,24634,24645,24645,24658,24682,24719,24744,24768,24792,24793,24806,24806,24823,24823,24831,24831,24831,24842,24842,24842,24857,24857,24857,24857,24872,24872,24879,24904,24917,24941,24956,24956,24968,24982,24998,24998,24998,25014,25018,25028,25028,25040,25058,25076,25091,25091,25107,25107,25113,25113,25125,25126,25140,25140,25151,25163,25174,25190,25191,25199,25199,25212,25212,25223,25223,25241,25241,25273,25290,25322,25472,25497" d="m231,226.89999c1.836,0 2.60239,-0.04134 3.5955,0.0045c0.92172,0.04254 1.72673,0.54482 2.57117,0.82884c0.80185,0.2697 1.81183,0.16666 2.63199,0.16666c0.90134,0 1.80135,0 2.70134,0c0.89999,0 1.85341,0.13867 2.60017,-0.2215c0.73448,-0.35423 1.56369,-1.05965 2.24716,-1.4785c0.78342,-0.48009 1.29742,-0.95786 2.1955,-1.62132c0.7059,-0.52151 1.23093,-0.87213 2.2905,-1.51201c0.70651,-0.42667 1.40009,-0.77817 2.33334,-1.33333c0.52061,-0.30969 1.31924,-0.82364 1.8235,-1.18066c1.05362,-0.74599 1.52112,-1.40237 2.50983,-1.63184c0.87692,-0.20352 1.80472,-0.11172 2.70001,-0.0195c0.81259,0.08369 1.50046,0.64494 2.29999,0.99866c0.80496,0.35612 1.64917,1.03125 2.32535,1.38934c0.67465,0.35728 1.6879,0.54001 2.47464,0.96333c0.84305,0.45363 1.50018,0.62866 2.40002,0.64732c0.90051,0.01868 1.6973,0.43884 2.40015,1.10001c0.53381,0.50215 1.39023,1.08922 2.07449,1.5c0.81177,0.48732 1.42599,1.037 2.30936,1.60001c0.67303,0.42896 1.60062,0.79922 2.06934,1.39999c0.6066,0.77748 1.11917,1.18338 1.836,1.84666c0.62088,0.57449 0.47067,1.63297 0.944,2.38667c0.39822,0.63411 1.38992,1.3127 1.60532,1.992c0.31235,0.98512 0.59836,1.63896 1.26001,2.37466c0.52917,0.58839 0.79684,1.5 0.80133,2.39999l0.02084,0.87917l0.55383,0.54617l0.50934,0.69066" id="svg_10" stroke-width="2" stroke="#000" fill="none"/>
  <path t="27432,27636,27666,27674,27674,27688,27688,27698,27698,27698,27710,27710,27723,27740,27740,27746,27759,27759,27773,27789,27808,27823,27824,27846,27846,27857,27933,27957,27980,27995,27995,28013,28026,28026,28030,28030,28042,28042,28057,28057,28057,28073,28073,28073,28079,28080,28091,28091,28112,28112,28118,28118,28132,28132,28140,28141,28158,28158,28178,28178,28190,28207,28227" d="m288,241.89999c-1.70001,0.05717 -2.49457,0.55899 -3.32132,1.10001c-0.65918,0.43137 -1.51202,0.89999 -2.17868,1.39999c-0.66666,0.5 -1.3782,0.84174 -2.01599,1.38535c-0.80191,0.68349 -1.14935,1.43863 -1.884,2.064c-0.77011,0.65553 -1.06061,1.36272 -1.89999,1.94083c-0.7131,0.49112 -1.64563,0.58147 -2.34283,1.16251c-0.59149,0.49295 -0.89102,1.43495 -1.55719,2.14867c-0.51013,0.54654 -1.0481,1.25871 -1.36398,1.97333c-0.45712,1.0341 -0.79172,1.79674 -1.63602,1.82533c-0.89948,0.03046 -1.79999,0 -2.59998,0c-0.95718,0 -1.85718,0.00049 -2.60452,0c-0.99548,-0.00067 -1.81247,0.0394 -2.7955,-0.22131c-0.81885,-0.21716 -1.79999,-0.612 -2.39999,-0.73051c-0.79999,-0.158 -1.79999,-0.61617 -2.39999,-1.04817c-0.60001,-0.43199 -1.63808,-0.77945 -2.34283,-1.10533c-0.98405,-0.45502 -1.32167,-1.26787 -1.85716,-2.01067c-0.4734,-0.65668 -1.13593,-1.52333 -1.364,-2.09467c-0.38484,-0.96404 -0.27785,-1.81725 -0.6575,-2.76799c-0.27989,-0.70093 -1.02278,-1.48308 -1.3425,-2.196c-0.41106,-0.9166 -0.43468,-1.70934 -0.44667,-2.64l-0.21066,-0.9425l-0.69467,-0.52684" id="svg_11" stroke-width="2" stroke="#000" fill="none"/>
  <path t="29585,29681,29697,29697,29697,29697,29712,29712,29712,29712,29713,29718,29718,29718,29718,29718,29718,29730,29730,29730,29730,29741,29741,29742,29742,29758,29759,29759,29766,29766,29766,29777,29778,29778,29778,29778,29778,29791,29791,29792,29792,29792,29792,29810,29810,29810,29810,29816,29816,29816,29839,29866,29882,29882,29893,29913" d="m382,220.89999c0.5625,1.52084 1.32956,2.17195 2.01883,2.66167c0.54074,0.38417 1.15134,0.79436 2.14783,1.505c0.72162,0.5146 1.46976,1.06876 1.85419,1.35417c0.78455,0.58247 1.97903,1.47931 2.379,1.77899c0.79541,0.59599 1.18796,0.89157 1.96417,1.46417c0.74918,0.55266 1.81744,1.31033 2.47433,1.78334c0.62296,0.44856 1.23843,0.86469 1.995,1.61932c0.74966,0.74779 1.14249,1.33586 1.56216,1.88068c0.79803,1.03603 1.21011,1.48674 1.76849,2.142c0.68185,0.80016 1.12503,1.40297 1.42532,2.11867c0.48779,1.16255 0.62097,1.94684 0.80002,2.81065c0.09607,0.46342 0.26324,1.45076 0.32532,1.97067c0.19446,1.62846 0.20944,2.19296 0.24933,3.32533c0.01987,0.56435 0.03287,1.67551 0.03467,2.216c0.0051,1.52599 0.00134,1.996 0.00134,2.87599c0,0.8 0,2.16 0,2.9745c0,0.85266 0,1.76166 0,2.61884c0,0.89999 0,1.70001 0,2.60001l0,0.89999" id="svg_12" stroke-width="2" stroke="#000" fill="none"/>
  <path t="31061,31196,31196,31215,31216,31216,31220,31220,31220,31234,31234,31234,31245,31245,31246,31259,31259,31259,31273,31273,31273,31273,31273,31273,31279,31279,31279,31279,31292,31292,31292,31292,31306,31306,31306,31317,31317,31317,31317,31317,31317,31328,31328,31328,31328,31328,31328,31340,31340,31340,31340,31340,31341,31341,31357,31357,31358,31358" d="m404,211.89999c2.00534,0.36168 2.81729,0.54179 3.66666,1.16667c0.57785,0.42513 1.04849,1.26271 1.65485,2.03334c0.48874,0.62114 1.08188,1.20111 1.87851,2c0.59912,0.60083 0.9985,1.00151 1.79999,1.79999c0.59888,0.59663 1.1666,1.2061 2,1.83334c0.59134,0.44505 1.30106,0.8076 2.5,1.33333c0.74911,0.32848 1.16452,0.48576 2.02084,0.85417c0.88043,0.3788 1.3269,0.5519 2.53616,1.17917c0.73785,0.38275 1.40555,0.79343 2.034,1.2c1.2171,0.78738 1.80893,1.1936 2.38815,1.59999c0.84204,0.59079 1.63821,1.16121 2.27417,1.832c0.4278,0.4512 1.10233,1.66008 1.36133,2.42534c0.14038,0.41473 0.37405,1.32396 0.58084,2.31334c0.10818,0.51764 0.30899,1.5952 0.50317,2.71466c0.09912,0.57144 0.28369,1.73505 0.36533,2.32533c0.08206,0.5934 0.27377,2.38901 0.31451,2.989c0.04056,0.59738 0.08789,1.77895 0.10065,2.35867c0.01254,0.56963 0.0195,1.67099 0.02084,3.19817l0,0.46883l0,0.87067l0,0.77467" id="svg_13" stroke-width="2" stroke="#000" fill="none"/>
  <path t="32378,32536,32537,32537,32550,32550,32550,32550,32563,32563,32563,32564,32573,32573,32573,32573,32573,32573,32591,32591,32591,32591,32591,32591,32591,32591,32591,32597,32597,32597,32597,32597,32597,32597,32597,32597,32608,32608,32608,32608,32608,32609,32609,32609,32609,32624,32624,32624,32624,32624,32624,32624,32625,32625,32639,32640,32640,32640,32640,32640,32640,32640,32640,32644,32645,32645,32645,32657,32657,32657" d="m413,196.89999c3.60132,0 4.52084,-0.00005 5.15717,0c1.36417,0.00009 2.09576,-0.00548 2.84283,0.02084c0.74777,0.02635 1.84186,0.1059 2.84732,0.34084c0.65927,0.15405 1.31256,0.3824 2.31934,0.80499c0.73215,0.30731 1.53018,0.68742 2.46002,1.08c0.51907,0.21915 1.08179,0.45326 2.37332,0.92c0.72635,0.2625 1.51144,0.52168 2.34299,0.795c0.87244,0.28676 1.78232,0.57904 2.72101,0.88501c0.96335,0.314 1.94827,0.62764 3.936,1.31999c1.00186,0.34895 1.99991,0.71466 2.991,1.0995c0.99026,0.38452 1.97125,0.7874 2.93701,1.21651c0.96167,0.42729 1.91983,0.85475 3.73865,1.85066c0.89929,0.49242 1.76389,1.02652 2.6055,1.57199c0.82907,0.53735 1.6272,1.08977 2.3985,1.64401c0.75229,0.54057 1.47409,1.07819 2.82935,2.11732c0.63678,0.48825 1.24319,0.96033 1.81949,1.41901c0.55298,0.44011 1.07947,0.86899 1.57651,1.293c0.47919,0.4088 0.94382,0.80376 1.77066,1.62132c0.39709,0.39264 0.76428,0.79359 1.11002,1.19101c0.33414,0.38408 0.64343,0.76465 0.92999,1.13699c0.27332,0.35513 0.52774,0.69606 0.95999,1.33867c0.19385,0.28818 0.51901,0.8235 0.91202,1.548l0.42133,0.952l0.29999,0.78151l0.30002,0.7905" id="svg_14" stroke-width="2" stroke="#000" fill="none"/>
  <path t="34048,34146,34172,34189,34195,34196,34208,34223,34224,34233,34233,34245,34245,34256,34256,34272,34282,34282,34293,34306,34306,34321,34342,34342,34369,34369,34380,34392,34392,34406,34429,34441,34456,34456,34466,34478,34490,34491,34506,34507,34516,34516,34516,34527,34528,34539,34557,34576,34601,34601,34626,34626" d="m365,322.89999c-1.70001,0 -2.60001,0 -3.52084,0c-0.96317,0 -1.66226,-0.1297 -2.72198,0.00452c-0.87732,0.11111 -1.49084,0.72571 -2.41434,0.94281c-0.73471,0.17273 -1.76593,0.28571 -2.50684,0.66336c-0.84647,0.43149 -1.57883,0.94455 -2.336,1.41016c-0.75684,0.46539 -0.96677,1.28235 -1.79999,1.86932c-0.80359,0.5661 -1.50037,0.9108 -2.10001,1.50983c-0.70044,0.69977 -1.25555,1.19943 -1.79868,2.08401c-0.40881,0.66586 -0.57895,1.68216 -0.96799,2.51599c-0.30679,0.65753 -0.82068,1.49985 -0.83334,2.39999c-0.01266,0.89993 -0.32614,1.63666 -0.716,2.40002c-0.38452,0.75287 -0.284,1.72083 -0.284,2.68533c0,0.72531 0,1.71466 0,2.51465c0,1 0,1.80002 0,2.60001c0,0.99551 0,1.91467 0,2.87918c0,0.82083 0,1.72217 0,2.6875l0,0.83331l0,0.97852l0,0.71698" id="svg_15" stroke-width="2" stroke="#000" fill="none"/>
  <path t="38445,38602,38602,38603,38615,38616,38616,38616,38616,38633,38633,38633,38633,38633,38648,38649,38649,38649,38649,38649,38652,38652,38653,38665,38666,38666,38666,38674,38674,38674,38688,38706,38706,38712,38723,38723,38738,38738,38754,38755,38761,38761,38761,38772,38773,38773,38773,38789,38789,38789,38789,38798,38798,38798,38798,38798,38798,38810,38810,38810,38810,38822,38822,38823,38823,38838,38838,38838,38847,38847,38858,38859,38873,38873,38896,38897,38920,38920,38939,38939,38945,38946,38957,38957,38957,38957,38972,38972,38972,38972,38988,38989,38989,38989,38989,38994,38994,38994,38995,38995,39006,39007,39007,39023,39032,39032,39044,39056,39072" d="m405,358.89999c-0.57199,2.68533 -1.04553,3.53296 -1.46616,4.10452c-0.67389,0.91568 -1.21027,1.50522 -1.78052,2.09549c-0.58957,0.61026 -1.23126,1.21002 -1.91998,1.79999c-0.71115,0.60916 -1.47559,1.19547 -1.875,1.47919c-0.81122,0.57623 -2.12112,1.36148 -2.57935,1.59915c-0.91519,0.47473 -1.38,0.68176 -2.28168,1.07501c-0.8399,0.3663 -1.93753,0.81546 -2.53033,1.09399c-0.77716,0.36514 -1.73648,0.91476 -2.51965,1.40533c-0.54935,0.34412 -1.08517,0.71042 -2.12567,1.32584c-0.66904,0.39572 -1.4808,0.7601 -2.28568,1.42148c-0.78476,0.64484 -1.23596,1.20001 -1.93597,1.90002c-0.70001,0.70001 -1.19901,1.23026 -2.02118,1.80017c-0.64185,0.44492 -1.34549,1.0665 -1.67883,1.89981c-0.33334,0.83334 -0.88901,1.36469 -1.409,1.80984c-0.8194,0.70151 -1.40125,1.46124 -1.86301,1.97549c-0.48718,0.54254 -1.35889,1.31119 -2.04233,1.76199c-0.71515,0.47168 -1.50424,0.88959 -2.68567,1.61935c-0.40335,0.24915 -1.19724,0.78571 -2,1.3125c-0.39862,0.2616 -1.17453,0.80295 -2.39984,1.37799c-0.78082,0.36646 -1.19186,0.47488 -1.96417,0.75751c-1.474,0.5394 -2.15579,0.85745 -2.78931,1.21066c-0.60641,0.3381 -1.66718,1.03137 -2.38953,1.41299c-0.63586,0.33594 -1.66125,0.61551 -2.43631,0.76166c-1.00589,0.18967 -1.64554,0.62195 -2.22086,1.48267c-0.42697,0.63876 -1.00043,1.3504 -1.68533,1.60001c-0.94946,0.34601 -1.7012,0.71265 -2.71466,0.86017c-0.79337,0.11548 -1.80133,0.05716 -2.42084,0.05716c-1.14581,0 -1.94083,0 -2.82584,0c-0.63998,0 -1.67505,-0.0054 -2.41498,0.00452c-0.78009,0.01044 -1.60269,0.02432 -2.905,0.16217c-0.91968,0.09735 -1.85861,0.25906 -2.33334,0.33331c-0.9472,0.14813 -2.33289,0.3381 -2.77817,0.37866c-0.85486,0.07785 -1.66293,0.08328 -2.74985,0.20535c-0.93307,0.1048 -1.67703,0.3775 -2.48398,0.63199c-0.97513,0.30753 -1.97202,0.284 -2.83533,0.284l-0.89102,0.00452l-0.73633,0.42084l-0.54617,0.55383" id="svg_16" stroke-width="2" stroke="#000" fill="none"/>
  <path t="41066,41199,41199,41199,41212,41212,41212,41212,41212,41222,41222,41222,41222,41222,41222,41222,41239,41239,41239,41239,41239,41239,41239,41247,41248,41248,41248,41248,41248,41248,41248,41259,41259,41259,41260,41260,41260,41260,41260,41260,41271,41272,41272,41272,41272,41272,41272,41272,41272,41289,41290,41290,41290,41290,41290,41290,41290,41290,41296,41296,41296,41296,41296,41308,41308,41308,41322,41322,41322,41340,41346,41346,41356,41356,41372,41372,41372,41388,41388,41388,41388,41389,41394,41394,41394,41394,41394,41406,41406,41406,41407,41407,41407,41421,41421,41421,41422,41422,41422,41431,41431,41431,41431,41432,41444,41444,41444,41444,41455,41455,41455,41471,41471,41472,41481,41481,41482,41492,41492,41492,41505,41505,41505,41505,41505,41522,41522,41522,41522,41522,41530,41530,41531,41531,41531,41531,41531,41541,41541,41541,41541,41555,41555,41556,41556,41571,41572,41578,41579,41579,41591,41591,41616,41640,41640" d="m322,402.89999c-2.68533,0.57202 -3.53293,1.04553 -4.10449,1.46619c-0.91568,0.67392 -1.50656,1.21158 -2.10617,1.79117c-0.63583,0.61462 -0.95868,0.95059 -1.95599,2.07599c-0.35944,0.40561 -1.09412,1.27725 -1.48001,1.728c-0.39407,0.4603 -1.20911,1.39594 -1.63998,1.85599c-0.86829,0.92712 -1.32281,1.37463 -2.27502,2.22552c-0.47894,0.42801 -0.97574,0.84161 -1.48499,1.24649c-1.03152,0.8201 -2.11792,1.61356 -2.67517,2.0105c-0.56406,0.40179 -1.14133,0.80023 -1.7355,1.18951c-0.60214,0.3945 -1.85568,1.16391 -2.51465,1.52533c-1.34973,0.74023 -2.06815,1.07043 -2.80002,1.39999c-0.7438,0.33493 -1.50876,0.65402 -2.2905,0.96451c-0.79294,0.31494 -1.60226,0.62021 -2.42551,0.91949c-1.67581,0.60922 -2.53259,0.90234 -3.39334,1.19998c-0.86191,0.29803 -1.72241,0.5914 -2.577,0.88052c-0.84409,0.28555 -1.67453,0.56403 -2.487,0.83548c-1.55441,0.51938 -2.29004,0.76318 -2.996,1c-0.67838,0.22754 -1.3299,0.44769 -1.9545,0.66452c-0.60071,0.20856 -1.17795,0.41193 -1.72949,0.61948c-1.04446,0.39304 -1.5358,0.59094 -2.45132,0.99686c-0.84421,0.3743 -1.60089,0.74551 -2.59,1.23782c-0.81973,0.40799 -1.51093,0.75824 -2.33334,1.16666c-0.78827,0.39148 -1.53253,0.6601 -2.47916,1c-0.8486,0.30472 -1.47961,0.77164 -2.29019,0.91602c-1.00601,0.1792 -2.07263,0.22067 -2.78247,0.44116c-0.71951,0.22351 -1.77896,0.65121 -2.41885,0.84283c-0.69864,0.2092 -1.45013,0.40201 -2.23199,0.60001c-1.19687,0.3031 -2.00531,0.50433 -2.839,0.69998c-0.87161,0.20456 -1.32703,0.30981 -2.80116,0.60001c-0.52583,0.10352 -1.61841,0.30051 -2.17799,0.39999c-1.13083,0.20105 -1.69695,0.29758 -2.8125,0.5c-1.08177,0.19629 -1.60809,0.30368 -2.64584,0.47919c-1.015,0.17166 -1.51678,0.26266 -3.02049,0.39932c-0.49693,0.04517 -1.47885,0.09177 -2.42833,0.11084c-0.45763,0.00919 -1.73868,0.01065 -2.85767,0.01065c-0.67267,0 -1.30534,0 -2.51418,0c-0.8895,0 -1.743,0 -2.77882,0c-0.69601,0 -1.60535,0 -2.60667,0c-0.83549,0 -1.41917,0 -2.61484,0c-0.91049,0 -1.53583,0 -2.8665,0c-0.72,0 -1.48,0 -2.28,0c-0.84,0 -2.175,0.00153 -2.64,-0.00131c-0.96002,-0.00586 -1.96033,-0.02771 -2.47499,-0.05585c-1.60634,-0.0878 -2.15993,-0.16049 -2.72101,-0.22684c-1.1329,-0.13394 -1.69611,-0.21906 -2.8075,-0.36334c-0.54031,-0.07016 -2.06628,-0.23666 -2.991,-0.29999c-0.436,-0.02985 -1.26799,-0.02121 -2.75217,-0.21933c-0.68399,-0.09131 -1.31708,-0.27069 -2.205,-0.48068c-1.03694,-0.24524 -1.94069,-0.34222 -2.96167,-0.35266c-0.79996,-0.00818 -1.60001,0 -2.5955,0c-0.74733,0 -1.65182,0 -2.57117,0l-0.83333,0" id="svg_17" stroke-width="2" stroke="#000" fill="none"/>
  <path t="43205,43401,43415,43431,43445,43462,43462,43473,43488,43504" d="m222,440.89999c0,1.70001 0,2.70001 0,3.60001c0,0.81067 0,1.72134 0,2.57468l0,0.94l0,0.98532l0,0.89999" id="svg_18" stroke-width="2" stroke="#000" fill="none"/>
  <path t="44793,44889,44890,44890,44901,44902,44902,44902,44916,44916,44916,44932,44932,44945,44946,44955,44956,44956,44956,44964,44964,44964,44964,44964,44964,44975,44975,44975,44975,44975,44975,44975,44989,44989,44989,44989,44990,44990,44990,44990,44990,45005,45006,45006,45006,45006,45006,45006,45012,45012,45012,45012,45013,45024,45025,45025,45025,45025,45025,45039,45039,45039,45039,45055,45056,45056,45062,45062,45062,45062,45073,45073,45073,45089,45089,45098,45098,45110,45110,45122,45122,45123,45139,45140,45140,45140,45140,45140,45148,45148,45148,45148,45149,45149,45149,45160,45160,45160,45160,45160,45172,45172,45172,45189,45189,45189,45198,45198,45221,45238,45258,45272" d="m99,225.89999c-0.009,-2.01883 -0.03991,-2.86319 -0.17067,-3.48799c-0.21886,-1.04572 -0.53223,-1.76114 -0.82933,-2.49117c-0.4285,-1.05293 -0.78311,-1.97218 -0.93867,-2.74884c-0.17306,-0.86401 -0.4427,-1.862 -0.70866,-2.672c-0.25986,-0.79141 -0.28187,-1.64986 -0.686,-2.76666c-0.1945,-0.53749 -0.70934,-1.3744 -1.07566,-1.995c-0.59265,-1.00403 -0.99379,-1.72627 -1.41234,-2.49567c-0.2204,-0.40515 -0.68832,-1.26419 -0.94933,-1.71468c-0.85738,-1.47978 -1.19828,-2.0002 -1.55267,-2.53783c-0.3655,-0.55449 -1.16354,-1.68047 -1.6,-2.242c-0.4435,-0.57062 -1.40281,-1.68832 -1.91967,-2.2265c-0.52051,-0.54196 -1.06612,-1.06569 -1.629,-1.575c-0.5645,-0.51077 -1.14567,-1.00447 -1.737,-1.485c-0.59005,-0.47949 -1.78395,-1.40469 -2.987,-2.27234c-0.5871,-0.42342 -1.16964,-0.82484 -1.7415,-1.20599c-0.55225,-0.36807 -1.06892,-0.74553 -2.5625,-1.58334c-0.83488,-0.46832 -1.61333,-0.81334 -2.34,-1.14c-0.72667,-0.32668 -1.49933,-0.68205 -2.328,-1.12933c-0.88926,-0.47998 -1.33466,-0.74704 -2.22667,-1.28249c-0.43865,-0.26332 -1.66296,-1.02525 -2.3865,-1.48651c-0.65706,-0.41887 -1.24043,-0.82042 -2.29767,-1.44032c-0.69867,-0.40965 -1.43093,-0.77414 -2.2545,-1.188c-0.96742,-0.48616 -1.6507,-0.82426 -2.30417,-1.18066c-0.86914,-0.47403 -1.64885,-1.03929 -2.24383,-1.45134c-0.92014,-0.63724 -1.61921,-1.02509 -2.3705,-1.49683c-0.70374,-0.44188 -1.75943,-0.63875 -2.5335,-0.72984c-1.05024,-0.1236 -1.76279,-0.35686 -2.512,-0.54933c-1.19148,-0.30609 -1.96099,-0.34576 -2.38317,-0.36816c-0.92308,-0.04897 -1.94733,-0.05394 -2.49417,-0.05583c-1.15866,-0.00401 -2.392,-0.00134 -3.02617,-0.00134c-0.63917,0 -1.27834,0 -2.53667,0c-0.60917,0 -2.29783,0 -2.80517,0c-0.93867,0 -1.78933,0 -2.568,0c-1.06783,0 -2.05333,0 -2.67867,0c-1.21067,0 -2.10167,0 -2.669,0c-1.20833,0 -2,0 -2.94167,0l-0.9,0l-0.9,0l-0.9,0.00017" id="svg_19" stroke-width="2" stroke="#000" fill="none"/>
 </g>
 <g display="none">
  <title>muse_image</title>
  <image xlink:href="http://farm1.static.flickr.com/41/81317196_a96223ef04.jpg" id="muse" height="426" width="640" y="27" x="0"/>
 </g>
 <g display="none">
  <title>bbox</title>
  <rect stroke="#f00" fill="none" stroke-width="3" height="424.72072" width="579.84" y="28.27928" x="0" id="bbox"/>
 </g>
</svg>
