<svg width="640" height="480" xmlns="http://www.w3.org/2000/svg" xmlns:svg="http://www.w3.org/2000/svg" xmlns:xlink="http://www.w3.org/1999/xlink">
 <!-- Sketchy ANNOTATION
  ImageNet ID: n02503517_3108
  URL: http://farm1.static.flickr.com/54/184549563_d043ddf94a.jpg
  Image Width: 500
  Image Height: 375
  BBox X: 112
  BBox Y: 35
  BBox Width: 287
  BBox Height: 332
  Exposure: 2000ms
  Synset Label: elephant
  Synset ID: n02503517
  Worker Tag: elephant playing dirt
  Sanity Check: 
   Context
   Saved
   Shading
  Comment: 
   {}
  Worker ID: AXD2DZ7U6CK35
  Assignment ID: 388U7OUMF71TCFENM9ME9UD9CS90RD
  HIT ID: 37SOB9Z0SSXC3PKDAA2Z0W7W9K1L36
  Work Time: 120s
  Worker Score: 0.9286
 END ANNOTATION -->
 <g display="inline">
  <title>Layer 1</title>
  <path t="0,29,29,29,29,29,53,53,69,85,101,105,121,132,157,181,197,205,205,216,232,233,250,250,266,266,285,285,302,302,325,325,345,353,377,434,465,527,740,773,797,813,818,835,835,852,852,868,885,885,902,902,902,918,918,918,935,935,935,952,952,952,968,968,968,985,985,1003,1003,1003,1018,1018,1019,1019,1036,1036,1036,1052,1052,1053,1068,1068,1068,1068,1085,1085,1085,1104,1104,1104,1118,1119,1135,1135,1135,1152,1152,1152,1166,1167,1167,1185,1185,1185,1200,1200,1216,1216,1233,1233,1233,1250,1250,1250,1266,1266,1266,1282,1283,1283,1300,1300,1316,1316,1316,1332,1333,1333,1350,1350,1366,1366,1366,1383,1383,1383,1400,1400,1400,1418,1418,1418,1435,1435,1435,1452,1452,1452,1452,1452,1468,1468,1468,1468,1485,1485,1485,1502,1502,1502,1502,1517,1517,1517,1535,1535,1535,1535,1552,1553,1553,1553,1553,1568,1568,1568,1568,1585,1585,1585,1585,1602,1602,1602,1602,1618,1618,1618,1618,1635,1635,1635,1635,1635,1652,1652,1652,1653,1668,1668,1668,1668,1685,1685,1685,1685,1702,1702,1702,1702,1718,1718,1718,1718,1718,1735,1735,1735,1735,1752,1752,1752,1752,1768,1768,1768,1768,1785,1785,1785,1802,1802,1818,1818,1818,1818,1835,1835,1835,1852,1852,1852,1852,1868,1868,1869,1885,1885,1885,1885,1902,1902,1902,1918,1918,1918,1935,1935,1935,1952,1952,1952,1952,1968,1968,1968,1968,1985,1985,1985,2002,2002,2002,2018,2018,2018,2035,2035,2035,2035,2052,2052,2052,2052,2052,2068,2068,2069,2085,2085,2085,2085,2117,2117,2124,2135" d="m158,67c11.33333,-7.66667 12.0694,-8.15506 13.31934,-8.83367c0.49355,-0.26795 1.2907,-0.9571 2.53749,-0.82333c0.73595,0.07896 1.02704,1.09834 1.42717,1.857c0.45271,0.85838 0.99899,1.4712 1.59467,2.02133c0.63695,0.58826 1.10574,1.21412 1.12134,2.17867c0.01454,0.89989 -0.18866,1.72799 -0.7045,2.3c-0.65581,0.7272 -1.50648,1.18073 -2.18083,1.384c-0.9671,0.29153 -1.70674,0.67625 -2.71017,0.86333c-0.74193,0.13832 -1.60957,0.4922 -2.2885,0.76867c-0.91112,0.37102 -1.71733,0.28333 -2.7115,0.284c-0.91916,0.00062 -1.92238,0.24393 -2.7,-0.0045c-0.82045,-0.26212 -1.31512,-0.99017 -2.2045,-0.9955c-0.88931,-0.00533 -2.06171,-0.26364 -2.464,0.436c-0.43106,0.74966 -0.036,1.764 -0.036,2.664c0,0.9 0,1.65717 0,2.55267c0,0.86333 0,1.84734 0,2.83267c0,0.72533 0,1.715 0,2.55633c0,0.729 0.00638,1.92648 -0.01067,2.609c-0.01744,0.69891 -0.12068,2.02483 -0.342,2.835c-0.19176,0.70197 -0.53568,1.71306 -0.62201,2.325c-0.12315,0.87283 -0.29028,1.87949 -0.54616,2.68933c-0.25996,0.82278 -0.69975,1.80584 -0.95834,2.47916c-0.38739,1.00869 -0.46852,1.85 -0.63066,2.53517c-0.27092,1.14483 -0.59178,1.79474 -0.911,2.48566c-0.32274,0.69855 -0.8125,1.66666 -1.222,2.48566c-0.34651,0.693 -0.83868,1.72477 -1.1785,2.325c-0.37273,0.65839 -1.11646,1.61496 -1.58401,2.142c-0.48959,0.55187 -1.03349,1.05927 -1.85182,2.12583c-0.50993,0.66462 -0.85944,1.34045 -1.46417,2.1215c-0.47972,0.61959 -1.05792,1.17581 -1.65733,1.99984c-0.55156,0.75824 -1.16667,1.66018 -1.6785,2.04749c-0.71939,0.54438 -1.55579,1.05944 -2.14284,1.58867c-0.61391,0.55344 -1.40933,1.3548 -1.98933,1.964c-0.56287,0.59122 -1.20081,1.39238 -1.57466,1.98933c-0.44882,0.71666 -1.03871,1.59286 -1.52133,2.09467c-0.75508,0.78513 -1.3261,1.29739 -1.948,2.116c-0.44098,0.58045 -0.88365,1.42662 -1.48817,2.2c-0.48676,0.62272 -1.084,1.19901 -1.87833,2c-0.39618,0.39951 -1.02165,0.95581 -1.77867,2c-0.41861,0.57739 -0.70653,1.20535 -1.22284,2.2c-0.31317,0.60332 -0.95485,1.60866 -1.45132,2.20001c-0.51136,0.60909 -1.20621,1.38333 -1.59017,2c-0.48584,0.78029 -0.89842,1.58163 -1.23633,2.39999c-0.40488,0.98056 -0.49904,1.81013 -0.51633,2.45717c-0.03278,1.22641 0.00487,2.04568 -0.06167,2.59016c-0.15633,1.27927 -0.48077,1.94182 -0.65884,2.63667c-0.25342,0.98889 -0.27225,1.83667 -0.28266,2.71733c-0.01062,0.89894 -0.00134,1.81999 -0.00134,2.47066c0,1.46133 0,2.29601 0,2.73334c0,0.89467 0,1.78934 0,3.06134c0,0.76266 0,1.46133 0,2.42433c0,1.209 0,1.80899 0,2.709c0,1.2 0,1.8 0,2.7c0,0.89999 0,1.8 0,2.7c0,0.90001 -0.00948,1.80009 0.0045,2.709c0.00974,0.63281 0.06133,1.66409 0.217,2.83366c0.05674,0.42635 0.20518,1.30986 0.38917,2.20668c0.18149,0.8846 0.48343,2.10945 0.68934,2.84082c0.19444,0.6906 0.41134,1.35475 0.8,2.73117c0.20603,0.72966 0.397,1.47948 0.6,2.226c0.29564,1.08719 0.49411,1.76918 0.8,2.73184c0.19623,0.61754 0.60345,1.82005 0.8,2.42982c0.20357,0.63153 0.51157,1.65877 0.8,2.83366c0.10417,0.42433 0.29826,1.30838 0.5,2.20668c0.1983,0.88304 0.49232,2.10982 0.7,2.83632c0.19289,0.67474 0.39241,1.30788 0.80017,2.51434c0.30482,0.90193 0.51517,1.509 0.78516,2.09999c0.55798,1.22142 0.95009,1.81102 1.32533,2.436c0.39008,0.6497 0.99266,1.68353 1.38934,2.41667c0.40338,0.74551 0.78586,1.50258 1.39999,2.58066c0.39107,0.68649 0.79631,1.33305 1.2,1.95601c0.39639,0.61169 1.19597,1.81436 1.61067,2.41066c0.41992,0.60381 0.85558,1.21596 1.61067,2.09984c0.51846,0.60689 1.07533,1.18259 1.62599,1.743c0.7813,0.79514 1.4955,1.5 2.142,2.1465c0.40933,0.40933 1.19911,1.22153 1.81067,1.78984c0.58911,0.54745 1.37833,1.17847 2.23599,1.61017c0.90865,0.45737 1.71687,0.71011 2.26401,0.91066c0.81628,0.29919 1.81409,0.70772 2.52083,1c0.74518,0.30818 1.94733,0.70409 2.6405,0.89999c0.72281,0.20428 1.45906,0.38943 2.51717,0.70001c0.98845,0.29013 1.6111,0.49921 2.8215,0.89999c0.5988,0.19827 1.47076,0.51132 2.31467,0.71466c0.99423,0.23956 1.70868,0.26532 2.45467,0.36934c1.2036,0.16782 1.88011,0.34717 2.58,0.49066c1.31514,0.26964 1.8835,0.32329 2.86533,0.45067c0.95445,0.12383 1.74394,0.33994 2.632,0.54933c0.63792,0.15042 1.67322,0.32045 2.4015,0.36818c1.08916,0.07138 1.7825,0.05649 2.9825,0.05716c0.7485,0.00041 1.452,0 2.45467,0c0.83549,0 1.716,0 2.91467,0c0.59999,0 1.5,0 2.70033,0c0.60866,0 1.57166,0 2.27032,0c1.172,0 2.03467,0 2.92934,0c0.44934,0 1.332,0 2.55701,0c1.071,0 1.72166,0 2.94299,0c0.59866,0 1.47917,0.00055 2.31467,0c0.99733,-0.00067 1.96651,-0.05716 2.64366,-0.52083l0.03101,-0.88983" id="svg_1" stroke-width="2" stroke="#000" fill="none"/>
  <path t="3060,3070,3070,3086,3102,3119,3119,3136,3136,3153,3153,3153,3167,3167,3184,3184,3184,3201,3201,3216,3216,3217,3234,3234,3251,3251,3251,3267,3267,3267,3284,3284,3301,3301,3301,3317,3317,3317,3333,3333,3334,3350,3350,3366,3366,3383,3383,3400,3401,3416,3417,3417,3433,3433,3434,3450,3450,3450,3466,3466,3466,3466,3483,3483,3483,3483,3500,3500,3500,3517,3517,3517,3517,3533,3533,3533,3550,3550,3551,3551,3551,3567,3567,3567,3583,3583,3583,3583,3600,3600,3601,3616,3617,3617,3617,3633,3633,3633,3634,3651,3651,3651,3651,3651,3666,3667,3667,3667,3683,3683,3701,3701,3701,3716,3717,3717,3733,3734,3734,3734,3751,3751,3752,3766,3767,3783,3783,3801,3801,3801,3817,3833,3833,3850,3851,3851,3866,3883,3901,3901,3917,3917,3933,3933,3950,3951,3951,3966,3967,3983,4001,4001,4002,4016,4033,4033,4050,4051,4069,4097,4117,4141" d="m179,64c0.35266,5.07133 0.84596,5.76172 0.98933,6.6c0.15524,0.90771 0.01067,1.88534 0.01067,2.61067c0,0.98933 0,1.78933 0,2.78933c0,0.8 0,1.6 0,2.6045c0,0.85267 0,1.81683 0,2.62083c0,0.822 0,1.85316 0,2.75383c0,1.02084 0,1.82084 0,2.62083c0,1.0045 0.00766,1.63602 -0.00017,2.82133c-0.00531,0.80405 0.01035,1.639 -0.22116,2.65717c-0.15857,0.69741 -0.54305,1.51021 -0.726,2.5215c-0.14365,0.79402 -0.23088,1.61847 -0.59435,2.42084c-0.30894,0.68201 -0.94145,1.66371 -1.28366,2.2045c-0.52069,0.82284 -1.02063,1.60086 -1.4175,2.3175c-0.4677,0.84452 -0.83575,1.66838 -1.25717,2.43633c-0.47615,0.86769 -1.04109,1.49234 -1.60001,2.34217c-0.43286,0.65819 -0.89999,1.512 -1.39999,2.17867c-0.5,0.66666 -0.87743,1.35764 -1.38533,2.10133c-0.56293,0.82425 -1.13548,1.38138 -1.63068,1.99866c-0.62708,0.78168 -0.99158,1.43772 -1.368,2.17067c-0.61238,1.19238 -0.94612,1.88837 -1.29066,2.61466c-0.34618,0.72973 -0.81151,1.79016 -1.06816,2.4575c-0.24367,0.63356 -0.55624,1.55569 -0.85718,2.45717c-0.3004,0.89986 -0.50119,1.4996 -0.89999,2.7c-0.19926,0.5998 -0.5134,1.49173 -0.71466,2.4c-0.19795,0.89332 -0.2522,1.81135 -0.31067,2.436c-0.12471,1.33234 -0.25558,2.0486 -0.40001,2.78934c-0.14621,0.74994 -0.33711,1.48485 -0.48933,2.89067c-0.07111,0.65666 -0.07999,1.3093 -0.08533,2.65067c-0.00285,0.71599 0,1.448 0,2.172c0,1.328 0,2.15599 0,2.912c0,1.08266 0,1.71866 0,2.77016c0,0.731 0,1.8125 0,2.49651c0,1.00349 0,1.6925 0,2.81599c0,0.83467 0,1.71733 0,2.61601c0,0.44533 -0.01161,1.71744 0.0045,2.83183c0.00949,0.65646 0.01848,1.54521 0.2795,2.53349c0.23537,0.89114 0.59827,1.67896 0.68001,2.496c0.08714,0.871 0.02205,1.87648 0.05682,2.731c0.02525,0.62054 0.19318,1.98085 0.33183,2.7065c0.13995,0.73245 0.33917,1.43469 0.52583,2.70883c0.11244,0.76753 0.10413,1.64055 0.12283,2.44299c0.01866,0.80054 0.22539,1.79814 0.49867,2.60001c0.34004,0.99774 0.46915,1.78911 0.49867,2.51466c0.0452,1.11038 0.27345,1.97675 0.612,2.696c0.37482,0.79633 0.75266,1.60014 1.18933,2.304c0.545,0.87843 0.94751,1.63843 1.36667,2.48534c0.34406,0.69516 1.02248,1.49039 1.43333,2.17467c0.48743,0.8118 0.91556,1.33049 1.72133,2.14667c0.50075,0.50722 1.026,1.026 1.79333,1.79333c0.58083,0.58083 1.2567,1.33849 2.052,1.88533c0.63046,0.4335 1.34666,0.72403 2.33333,1c0.8192,0.22913 1.65837,0.62187 2.4785,0.87866c0.80685,0.25264 1.62151,0.696 2.42149,1.08534l0.90001,0.036l0.89999,0" id="svg_2" stroke-width="2" stroke="#000" fill="none"/>
  <path t="5226,5253,5253,5253,5253,5253,5253,5259,5259,5259,5287,5287,5300,5300,5300,5316,5316,5333,5333,5349,5349,5349,5366,5366,5383,5383,5399,5399,5416,5416,5416,5433,5453,5466,5483,5499,5517,5533,5534,5549,5549,5567,5584,5584,5599,5599,5617,5634,5650,5650,5666,5683,5700,5717,5717,5734,5749,5749,5766,5783,5783,5799,5816,5833,5849,5850,5866,5883,5884,5899,5899,5917,5933,5949,5950,5966,5967,5983,5983,5999,6000,6017,6018,6018,6033,6034,6034,6034,6049,6050,6067,6067,6083,6083,6099,6099,6099,6116,6117,6117,6117,6117,6133,6133,6133,6133,6149,6149,6150,6167,6167,6167,6167,6183,6184,6184,6199,6199,6216,6233,6233,6233,6250,6251,6251,6266,6266,6284,6284,6300,6300,6300,6317,6317,6317,6333,6333,6333,6334,6349,6349,6349,6366,6366,6384,6384,6399" d="m166,178c0,-2.64951 0,-3.18933 0,-4.388c0,-0.63283 0,-1.27066 0,-2.50934c0,-1.10266 0,-1.98933 0,-2.95683c0,-0.97916 -0.03012,-1.67799 0.2215,-2.68849c0.17876,-0.71786 0.42482,-1.48181 0.97717,-2.48801c0.33148,-0.60385 0.63231,-1.47708 0.91116,-2.37383c0.25603,-0.82335 0.73416,-1.40089 1.4075,-2.11017c0.71208,-0.75009 1.23534,-1.23801 1.96666,-1.96933c0.51601,-0.51601 1.32378,-1.37674 1.89067,-1.88c0.75961,-0.67436 1.42525,-1.08592 2.14134,-1.35066c0.93686,-0.34636 1.91882,-0.04247 2.7795,-0.28984c0.7679,-0.22072 1.29053,-0.8784 2.0045,-1.35266c0.79166,-0.52586 1.3,-1.24284 1.89999,-1.84283c0.60001,-0.60001 1.32899,-1.27235 1.89984,-1.90018c0.57341,-0.63063 0.86096,-1.55151 0.89883,-2.41583c0.04218,-0.96249 0.46326,-1.72038 0.83466,-2.48399c0.36668,-0.75391 0.77965,-1.58197 1.14134,-2.39999c0.34685,-0.78447 0.79146,-1.62473 1.078,-2.3c0.36516,-0.86053 0.87625,-1.61629 0.93666,-2.47467c0.06599,-0.93774 0.01067,-1.82533 0.01067,-2.62534c0,-0.89999 -0.11195,-1.80939 0.02083,-2.72083c0.14395,-0.98804 0.67416,-1.61867 0.89384,-2.59384c0.19547,-0.86769 0.10583,-1.65543 0.43799,-2.53799c0.26579,-0.70623 0.55908,-1.7153 0.64867,-2.54867c0.10468,-0.97378 0.52153,-1.58983 0.832,-2.632c0.23047,-0.77362 0.11823,-1.6561 0.20267,-2.37733c0.11705,-0.99974 0.47496,-1.79412 0.964,-2.78933c0.29851,-0.60748 0.61836,-1.24628 1.16667,-2.16666c0.47101,-0.79062 0.81596,-1.32472 1.34933,-2.064c0.70428,-0.97617 1.20999,-1.49784 1.784,-2.422c0.42294,-0.68095 0.88129,-1.48141 1.45717,-2.10001c0.5462,-0.58673 1.08934,-1.10584 1.76166,-1.709c0.80185,-0.71935 1.44652,-1.22746 2.1425,-1.76366c0.71992,-0.55466 1.0851,-0.82949 2.172,-1.608c0.67668,-0.48468 1.31213,-0.93208 2.205,-1.505c0.78819,-0.50576 1.51152,-0.90451 2.187,-1.287c0.94492,-0.53507 1.72707,-1.02776 2.27467,-1.37466c0.81558,-0.51665 1.57082,-0.9926 2.47917,-1.47916c0.61444,-0.32912 1.59764,-0.85978 2.36366,-1.16367c0.88579,-0.35139 1.82384,-0.35717 2.50383,-0.35717c0.84,0 1.83734,0 2.65334,0c0.81599,0 1.81467,-0.00008 2.68933,0c1.01067,0.00008 1.82735,-0.06647 2.81067,0.16666c0.83119,0.19706 1.45227,0.54999 2.42149,0.9335c0.81053,0.32072 1.40782,0.49586 2.57851,1.0665c0.60907,0.29688 1.47833,0.83471 2.04283,1.18067c1.03397,0.63368 1.73006,0.98412 2.4705,1.45133c0.75075,0.47372 1.28532,1.08666 1.78667,1.8495l0.5,0.78249l0.67917,0.5485" id="svg_3" stroke-width="2" stroke="#000" fill="none"/>
  <path t="6937,6961,6962,6962,6962,6969,6969,6985,7001,7001,7018,7018,7018,7035,7035,7035,7051,7051,7068,7069,7069,7085,7085,7085,7085,7099,7099,7116,7116,7116,7133,7133,7133,7149,7149,7149,7149,7166,7166,7166,7183,7183,7183,7199,7199,7199,7216,7216,7216,7233,7233,7249,7249,7249,7266,7266,7266,7283,7299,7299,7299,7316,7316,7333,7333,7349,7366,7484,7484,7709,7733,7751,7817,7837,7851,7868,7885,7901,7901,7917,7917,7934,7934,7950,7950,7967,7967,7967,7984,7984,7984,8000,8000,8000,8017,8017,8017,8034,8034,8034,8034,8050,8050,8050" d="m223,110c7.91333,-1.9785 8.45593,-2.10487 9.41333,-2.364c0.80226,-0.21714 1.92267,-0.63266 2.52417,-1.11517c0.67619,-0.54242 1.47662,-0.97667 2.03317,-1.4075c0.78865,-0.6105 1.54533,-1.12082 2.08116,-1.46067c1.01772,-0.6455 1.70921,-1.02235 2.34366,-1.34817c0.99992,-0.5135 1.80556,-0.9024 2.60451,-1.3045c0.81174,-0.40854 1.46355,-0.7464 2.42134,-1.32117c0.53496,-0.32102 1.3347,-0.85504 1.89465,-1.1095c1.19269,-0.54199 1.89139,-0.50987 2.88417,-0.79083c0.84055,-0.23788 1.47356,-0.61044 2.4865,-0.97717c0.8461,-0.30634 1.46802,-0.48567 2.48,-0.63467c1.0759,-0.1584 1.81433,-0.14593 2.5235,-0.21933c1.27139,-0.1316 2.0412,-0.39764 2.75803,-0.59467c0.96445,-0.26509 1.77673,-0.33062 2.59915,-0.34817c1.03113,-0.022 1.95267,-0.0045 2.63666,-0.0045c1,0 1.81601,0 2.63202,0c1,0 1.90933,0 2.85065,0c0.78601,0 1.60803,-0.00613 2.66669,0c0.92004,0.00533 1.72641,-0.01208 2.54132,0.436c0.85199,0.46847 1.50433,0.90479 2.14133,1.44933c0.80338,0.68678 1.13104,1.49615 1.68402,2.22934c0.46149,0.61189 1.17249,1.31894 1.99866,1.80133c0.6962,0.40651 1.46478,0.89394 1.78049,1.60484c0.38931,0.87668 0.79565,1.41576 1.01636,2.18366c0.24738,0.86066 0.14255,1.66843 0.65182,2.34817c0.4736,0.63213 0.29984,1.61076 0.40982,2.35184c0.14972,1.00867 0.63101,1.7263 0.85751,2.71149c0.1731,0.75294 0.04971,1.73608 0.17065,2.57067c0.1459,1.00693 0.30811,1.56109 0.67633,2.36066c0.49084,1.06581 1.08371,1.71237 1.58566,2.40533c0.50668,0.69949 0.93561,1.48428 1.20602,2.322c0.33643,1.04211 0.38632,1.77805 0.47198,2.48666c0.12976,1.07347 0.32245,2.04629 0.49551,2.73867c0.17422,0.69709 0.47916,1.66667 0.77914,2.48567l0.40002,0.90533" id="svg_4" stroke-width="2" stroke="#000" fill="none"/>
  <path t="10316,10345,10345,10345,10345,10353,10353,10366,10383,10383,10399,10399,10416,10416,10433,10433,10449,10449,10449,10466,10466,10466,10483,10483,10499,10499,10516,10516,10533,10533,10533,10549,10549,10549,10566,10566,10566,10583,10583,10599,10599,10616,10616,10616,10633,10633,10633,10649,10666,10709,10716,10733,10749,10766,10766,10766,10783,10783,10799,10799,10799,10816,10816,10833,10833,10833,10860,10868" d="m201,224c9.44917,-1.09984 10.00389,-1.18065 10.92667,-1.38933c1.03224,-0.23344 1.92435,-0.54553 2.76433,-0.60617c0.94257,-0.06805 1.79434,-0.0045 2.51967,-0.0045c0.98917,0 1.95479,0.05116 2.90533,-0.00133c0.77141,-0.0426 1.52989,-0.39836 2.34567,-0.64601c0.9446,-0.28674 1.76675,-0.29964 2.58566,-0.40533c1.03629,-0.13376 1.92065,-0.48257 2.55133,-0.66333c0.98697,-0.28288 1.80162,-0.26076 2.80133,-0.28532c0.80051,-0.01967 1.79814,-0.22539 2.60001,-0.49867c0.99774,-0.34004 1.81297,-0.45755 2.45717,-0.55267c0.96846,-0.14301 1.774,-0.39247 2.64734,-0.59467c0.89104,-0.2063 1.79022,-0.26701 2.62349,-0.37799c1.13602,-0.15129 1.7037,-0.60614 2.59367,-0.85316c0.89769,-0.24916 1.845,-0.12151 2.631,-0.12151c0.82201,0 1.88066,0 2.80066,0c0.76001,0 1.72585,0 2.64667,0c0.90001,0 2.07915,-0.32504 2.54285,0.35716c0.47568,0.69984 0.20296,1.8183 0.49316,2.47884c0.34113,0.77643 0.76399,1.564 1.164,2.364c0.5,1 0.79999,1.60002 1.19998,2.40001c0.40002,0.8 0.79785,1.60107 1.20001,2.39999c0.39786,0.79041 0.79999,1.51466 1.39999,2.35333l0.69983,0.52499" id="svg_5" stroke-width="2" stroke="#000" fill="none"/>
  <path t="11786,11813,11829,11844,11852,11866,11883,11883,11899,11916,11933,11956,11956,11976,11976,12000,12036,12134,12156,12171,12171,12183,12183,12199,12216,12216,12233,12249,12249,12266,12266,12282,12283,12300,12316,12384" d="m253,159c1.8,0 2.71976,-0.1571 3.5,0.02083c0.96204,0.21939 1.59839,0.87025 2.5,0.97917c0.79871,0.0965 1.65454,0.48157 2.38934,0.97467c0.69327,0.46524 1.17947,1.22614 1.79599,1.62534c0.92853,0.60121 1.57251,1.04327 2.20401,1.79999c0.54718,0.65567 1.04492,1.83241 0.444,2.43333c-0.60092,0.60094 -1.71869,0.16667 -2.65869,0.16667c-0.69064,0 -1.67465,0 -2.65866,0c-0.69064,0 -1.7634,0.01149 -2.68265,0c-0.83353,-0.01042 -1.72504,-0.07967 -2.42268,-0.61067c-0.78781,-0.59964 -1.21066,-1.18933 -1.88983,-1.88933l-0.46367,-0.8l-0.05716,-0.89999" id="svg_6" stroke-width="2" stroke="#000" fill="none"/>
  <path t="14186,14474,14504,14520,14536,14536,14544,14556,14572,14582,14599,14616,14616,14632,14632,14648,14649,14666,14666,14666,14682,14682,14682,14699,14699,14699,14716,14716,14731,14732,14732,14749,14749,14749,14749,14766,14766,14766,14782,14782,14798,14799,14799,14816,14816,14816,14831,14832,14848,14849,14849,14866,14881,14882,14898,14915,14916,14932,14949,14949,14966,14966,14982,14982,14999,14999,15016,15016,15031,15032,15049,15049,15066,15066,15081,15099,15148,15148,15617,15629,15651,15668,15685,15701,15701,15701,15718,15718,15718,15734,15734,15734,15751,15751,15751,15752,15766,15766,15766,15766,15782,15782,15782,15782,15783,15799,15799,15799,15799,15800,15816,15816,15816,15832,15832,15832,15833,15833,15849,15849,15849,15850,15866,15866,15866,15882,15899,15899,15916,15932,15932,15932,15949,15949,16017,16017,16027" d="m196,227c-0.16667,1.83333 -0.9391,2.21523 -1,3.10001c-0.0618,0.89787 0,1.7 0,2.59999c0,0.90001 0,1.8 0,2.7c0,0.90451 0,1.76668 0,2.60001c0,0.97867 0,1.75267 0,2.66167c0,0.8 -0.01729,1.76009 0.01067,2.56366c0.02863,0.82281 0.20506,1.85504 0.48933,2.77467c0.21184,0.6853 0.416,1.68401 0.5,2.5c0.084,0.81599 0.28923,1.81294 0.57466,2.68933c0.26352,0.80911 0.38741,1.63354 0.47801,2.325c0.14824,1.13123 0.28671,1.79547 0.558,2.83501c0.17899,0.68582 0.57172,1.88751 0.88933,2.60901c0.28441,0.64606 0.83067,1.62714 1.064,2.24167c0.37218,0.98026 0.40422,1.83481 0.60533,2.48532c0.31761,1.02731 0.85063,1.80438 1.12534,2.362c0.49944,1.01379 0.61607,1.94681 0.87201,2.95267c0.20483,0.80499 0.5239,1.52286 0.808,2.36401c0.28539,0.84497 0.82632,1.43631 1.52533,2.13599c0.69966,0.70035 1.13547,1.27237 1.89999,1.88934c0.74567,0.60175 1.48534,0.60999 2.436,0.61066c0.76534,0.00055 1.77063,-0.05832 2.564,0.05716c1.01343,0.14752 1.73082,0.63101 2.716,0.85751c0.75294,0.1731 1.72,0.08533 2.48534,0.08533c0.99867,0 1.79866,0 2.79733,0c0.76534,0 1.84775,0.07822 2.70134,-0.00015c0.91144,-0.08368 1.69083,-0.49225 2.37917,-0.99985c0.69604,-0.51331 1.20406,-1.10181 1.60483,-1.80133c0.4239,-0.7399 1.24571,-1.51208 1.74133,-2.03467c0.53113,-0.56 1.15663,-1.36188 1.67467,-2.164c0.38647,-0.59842 0.9837,-1.40274 1.52083,-2.02084c0.57875,-0.66602 1.19016,-1.39267 1.77917,-2.21515c0.40767,-0.56924 0.79958,-1.16562 1.40016,-2.06418c0.40405,-0.60452 1.03268,-1.53802 1.48517,-2.18515c0.47803,-0.68365 0.99432,-1.40292 1.55066,-2.14001c0.56891,-0.75372 0.85167,-1.13611 1.76401,-2.20801c0.58664,-0.68924 1.18202,-1.31693 1.728,-1.91998c0.50447,-0.55721 1.1459,-1.31424 1.62134,-2.03201c0.47273,-0.71368 0.97858,-1.55174 1.42,-2.18399c0.48607,-0.69618 1.0183,-1.41434 1.548,-2.14801c0.76431,-1.05861 1.22578,-1.71777 1.64099,-2.34099c0.38446,-0.57706 1.02132,-1.61935 1.40567,-2.295c0.33249,-0.58444 0.92924,-1.49582 1.636,-2.24667c0.47467,-0.50427 0.91718,-1.31593 1.16667,-2.33333c0.16606,-0.67722 0.45061,-1.40518 0.71199,-2.52383c0.17555,-0.75134 0.40401,-1.6255 0.7115,-2.433l-0.2115,-0.68851" id="svg_7" stroke-width="2" stroke="#000" fill="none"/>
  <path t="16510,16520,16520,16520,16520,16520,16520,16520,16520,16520,16535,16535,16535,16535,16535,16535,16535,16535,16535,16551,16551,16568,16568,16568,16583,16583,16599,16599,16616,16616,16616,16632,16632,16649,16649,16666,16682,16682,16713,16713,16724,16733,16733,16749,16766,16766,16766,16782,16782,16782,16799,16799,16799,16799,16816,16816,16816,16816,16832,16832,16832,16832,16849,16849,16849,16866,16866,16866,16882,16883,16883,16899,16900,16900,16900,16916,16916,16916,16932,16932,16932,16949,16949,16966,16966,16982,16982,16999,17016,17064,17064,17068,17116,17367" d="m206,223c0.16667,3.66667 0.22113,4.64151 0.284,5.74533c0.06845,1.20186 0.14148,2.47066 0.216,3.7755c0.0748,1.30983 0.14833,2.59361 0.216,3.82051c0.11906,2.15857 0.16373,3.03593 0.19867,3.77733c0.02919,0.61929 0.05063,1.13062 0.0645,1.548c0.01122,0.3373 0.01761,0.60864 0.0195,0.82799c0.00417,0.48416 0.00133,1.31517 0.00133,2.27467c0,0.7515 -0.01988,1.54823 0.00133,2.54401c0.0179,0.84052 0.19562,1.90007 0.8175,2.38216c0.84955,0.65857 1.69276,0.77763 2.41316,1.10451c0.81288,0.36885 1.48531,0.9606 2.42067,1.14284c0.84918,0.16545 1.86812,0.00667 2.66867,0.27866c0.70232,0.2386 1.61346,0.94231 2.26801,1.3425c0.76726,0.46912 1.72716,0.09674 2.21066,-0.36533c0.72572,-0.69354 1.29349,-1.52423 1.72083,-2.2195c0.35893,-0.58397 0.96289,-1.38191 1.5,-2c0.57877,-0.66602 1.19016,-1.39268 1.77917,-2.21516c0.40767,-0.56926 0.80031,-1.16515 1.39999,-2.06401c0.60031,-0.8998 1.00005,-1.49997 1.40001,-2.09999c0.5999,-0.89996 1.01109,-1.49034 1.564,-2.40001c0.36095,-0.59386 0.81552,-1.49945 1.21066,-2.38933c0.37883,-0.85313 0.76448,-1.66367 1.278,-2.3535c0.49617,-0.66653 1.21368,-1.43607 1.59016,-2.06168c0.49776,-0.82715 0.85573,-1.81761 1.06168,-2.35266c0.32892,-0.85451 0.53477,-1.4684 1.18083,-2.64017c0.32779,-0.59453 0.87582,-1.42882 1.51466,-2.06934c0.55992,-0.56139 1.42305,-1.00565 2.11467,-1.81732c0.54353,-0.63789 0.99677,-1.48599 1.48534,-2.14134c0.51213,-0.68695 0.77371,-1.47551 1.59866,-2.20534c0.63608,-0.56274 1.02283,-1.26917 1.60266,-1.88399l0.84151,-0.33801l0.40984,-0.65182l0.44733,-0.77467" id="svg_8" stroke-width="2" stroke="#000" fill="none"/>
  <path t="18545,18555,18555,18555,18555,18569,18586,18602,18602,18616,18617,18632,18632,18649,18649,18666,18666,18682,18682,18682,18699,18699,18699,18699,18699,18716,18716,18717,18732,18732,18732,18749,18749,18749,18749,18766,18766,18766,18766,18782,18782,18782,18799,18799,18799,18816,18816,18816,18816,18832,18832,18832,18832,18832,18832,18849,18849,18849,18849,18866,18866,18866,18882,18882,18882,18928" d="m198,174c9.22783,-7.24933 9.69849,-7.62794 10.50133,-8.13733c0.78918,-0.50072 1.61058,-0.81996 2.59868,-0.86267c0.89915,-0.03886 1.65717,0 2.55716,0c0.74733,0 1.7415,-0.00233 2.68567,0c0.90901,0.00226 1.63025,0.07114 2.66699,0.35266c0.77847,0.21138 1.82259,0.48636 2.54651,0.59917c0.74011,0.11534 1.94702,0.371 2.69566,0.61617c0.82788,0.27112 1.24426,0.44289 2.09,0.72667c1.15311,0.38692 2.09079,0.59685 2.862,0.72c0.96242,0.15369 1.76772,0.29709 2.57068,0.632c1.08858,0.45404 1.55203,0.82526 2.22533,1.37416c0.69534,0.56688 1.41783,1.18391 2.22533,1.77917c0.54698,0.40321 1.12704,0.75673 2.08801,1.60133c0.67172,0.59039 1.08826,1.01668 1.66533,2.02c0.44684,0.77689 0.58025,1.39001 1.188,2.41199c0.44788,0.75311 0.89203,1.19511 1.51999,2.02133c0.75549,0.99402 1.00235,1.39543 1.53867,2.23201c0.27727,0.43251 0.82132,1.31293 1.09067,1.74666c0.76056,1.22472 1.21716,1.95438 1.66318,2.60417c0.60648,0.88358 1.21744,1.6438 1.81017,2.32651c0.55052,0.63409 1.189,1.43582 1.564,2.02533l0.36,0.72533l0.276,1.00267" id="svg_9" stroke-width="2" stroke="#000" fill="none"/>
  <path t="19450,19460,19470,19470,19470,19470,19470,19470,19482,19482,19483,19500,19500,19516,19516,19516,19532,19532,19532,19532,19549,19549,19549,19549,19566,19566,19582,19582,19620,19628" d="m197,166c-6,16.33333 -6.37099,17.35606 -6.68933,18.23466c-0.27202,0.75073 -0.49136,1.39468 -0.88268,2.39467c-0.29486,0.75351 -0.72932,1.6821 -1.25333,2.54933c-0.33667,0.55719 -1.01251,1.48445 -1.53867,2.16c-0.64154,0.82372 -1.04097,1.51123 -1.39317,2.123c-0.55557,0.96501 -0.88782,1.50717 -1.4895,2.349c-0.42828,0.59921 -1.16731,1.49548 -1.70149,2.08034c-0.52403,0.57376 -1.04822,1.08853 -1.90883,1.96616c-0.60574,0.61772 -1.14301,1.30951 -1.543,1.9575l-0.60001,0.85201l-0.58566,0.33333" id="svg_10" stroke-width="2" stroke="#000" fill="none"/>
  <path t="21267,21649,21659,21674,21692,21692,21699,21715,21715,21732,21732,21732,21732,21749,21749,21749,21749,21749,21749,21765,21765,21765,21765,21765,21766,21766,21766,21782,21782,21782,21782,21782,21782,21799,21799,21799,21799,21815,21816,21816,21832,21832" d="m295,124c0.19867,0.00134 0.79938,0.50532 1.42532,0.964c0.74054,0.54266 1.28485,0.94949 2.09552,1.51517c0.73398,0.51216 1.54926,0.45314 2.64581,0.85417c0.53735,0.19653 1.38144,0.71943 1.995,1.13284c1.01593,0.68454 1.72754,1.22021 2.10452,1.5c0.79889,0.59291 1.22009,0.91187 2.10583,1.60583c0.9653,0.7563 1.47141,1.16977 1.996,1.59599c1.08414,0.88083 1.63181,1.33221 2.18134,1.78134c0.54514,0.44554 1.07889,0.88733 2.11731,1.71733c0.95789,0.76564 1.41177,1.11812 2.27084,1.77083c0.4039,0.30687 1.16898,0.88223 2.24084,1.64084c0.65665,0.46475 1.27472,0.88818 1.85999,1.25999c1.03088,0.65491 1.715,1.03633 2.47501,1.54567l0.60132,0.59866l0.47467,0.65601" id="svg_11" stroke-width="2" stroke="#000" fill="none"/>
  <path t="22506,22549,22569,22597,22605,22605,22617,22632,22649,22649,22665,22665,22665,22682,22682,22682,22682,22699,22700,22700,22715,22715,22715,22732,22732,22749,22749,22749,22765,22765,22765,22782,22782,22799,22800,22800,22815,22815,22815,22832,22832,22832,22849,22850,22850,22850,22865,22865,22865,22882,22882,22882,22899,22899,22899,22899,22915,22915,22915,22915,22932,22932,22932,22949,22950,22950,22965,22965,22965,22965,22982,22982,22982,22982,23000,23000,23000,23015,23016,23016,23032,23032,23032,23050,23050,23050,23050,23065,23065,23065,23082,23082,23100,23100,23100,23115,23115,23132,23150,23150,23212,23220,23232,23249,23264,23281,23282,23299,23299,23315,23315,23332,23332,23349,23349,23365,23365,23382,23382,23399,23399,23415,23415,23415,23431,23432,23449,23449,23449,23464,23465,23465,23481,23482,23482,23499,23499,23499,23499,23517,23517,23532,23532,23549,23549,23565,23565,23565,23582,23582,23582,23599,23599,23599,23615,23615,23615,23632,23632,23632,23649,23649,23649,23666,23666,23666,23666,23682,23682,23699,23699,23699,23715,23715,23715,23732,23732,23732,23732,23749,23749,23749,23765,23765,23782,23782,23782,23799,23799,23799,23799,23815,23815,23815,23815,23832,23832,23832,23849,23849,23849,23849,23865,23865,23865,23865,23882,23882,23882,23898,23899,23899,23899,23915,23915,23915,23932,23932,23932,23932,23949,23949,23965,23965,23965,23965,23982,23982,23982,23999,24015,24015,24032,24032,24032,24049,24049,24049,24065,24065,24082,24082,24099" d="m294,140c0,1.8 0.31448,2.38715 0.83334,3.16667c0.47089,0.70746 0.14865,1.63351 0.16666,2.53333c0.01801,0.90054 0.50198,1.70175 0.716,2.356c0.31659,0.96777 0.26154,1.64101 0.27951,2.70033c0.01828,1.07684 -0.01279,1.75888 0.02533,2.72284c0.02441,0.61691 0.18768,1.8237 0.40448,2.71016c0.14105,0.57677 0.45374,1.63872 0.53867,2.57468c0.0755,0.83195 0.03604,1.8405 0.03601,2.47198c-0.00009,1.18535 0.03098,1.99275 -0.05716,2.81134c-0.11179,1.03819 -0.35846,1.72589 -0.74417,2.55133c-0.37891,0.81087 -0.80078,1.60028 -1.19867,2.40134c-0.40213,0.80962 -0.7175,1.4501 -1.10001,2.42134c-0.31445,0.79843 -0.58377,1.63245 -1,2.65749c-0.28879,0.71117 -0.62067,1.42377 -0.89999,2.2545c-0.32419,0.9642 -0.49081,1.66939 -0.70001,2.36134c-0.38324,1.26768 -0.60275,1.79434 -1,2.75349c-0.40262,0.97217 -0.63074,1.4987 -0.86398,2.3625c-0.3179,1.17728 -0.37106,1.78946 -0.41516,2.71016c-0.03046,0.63582 -0.02084,2.00034 -0.02084,2.72734c0,0.731 0,1.442 0,2.709c0,0.78149 -0.01077,1.72557 0.00134,2.72949c0.01031,0.85516 0.02313,1.47911 0.16531,2.48001c0.15506,1.09163 0.34497,1.83565 0.53784,2.58066c0.28207,1.08957 0.50055,1.76413 0.77466,2.711c0.16757,0.57889 0.40353,1.61981 0.52084,2.54167c0.08701,0.68364 0.284,1.68401 0.5,2.5c0.216,0.81599 0.4191,1.81833 0.52533,2.79733c0.06046,0.55714 0.19232,1.56729 0.32733,2.36067c0.1434,0.84267 0.31897,1.68034 0.48068,2.842c0.12891,0.92599 0.14804,1.66811 0.16681,2.7c0.01456,0.80014 0.15222,1.80476 0.42517,2.60001c0.27631,0.80508 0.54199,1.79417 0.57019,2.54283c0.03406,0.90387 0.00443,1.82384 0.00449,2.65717c0.00009,0.97833 0.31299,1.75183 0.91599,2.284c0.64185,0.56645 1.38852,0.716 2.25067,0.716c0.85419,0 1.83334,0 2.62268,0c1.04401,0 1.836,0 2.69598,0c0.72534,0 1.71469,0 2.51468,0c1,0 1.98102,0.05627 2.83334,0c0.8678,-0.0573 1.45673,-0.72397 1.92383,-1.409c0.5473,-0.80264 1.11182,-1.35172 1.53299,-1.991c0.62604,-0.95021 0.6918,-1.84193 0.8765,-2.76668c0.15817,-0.79207 0.45074,-1.59846 0.66669,-2.66666c0.1424,-0.70435 0.15634,-1.57883 0.452,-2.56934c0.19479,-0.65257 0.53787,-1.36093 0.91467,-2.56534c0.2124,-0.67891 0.38712,-1.38524 0.59998,-2.064c0.37735,-1.20334 0.6344,-1.9454 1.20001,-2.80133c0.45029,-0.68143 1.18127,-1.3925 1.81433,-1.92384c0.70575,-0.59238 1.44235,-1.07524 1.97101,-1.4175c1.03906,-0.67268 1.76907,-1.05354 2.40399,-1.45067c0.82645,-0.51692 1.40363,-1.03552 2.01068,-1.54933c0.79095,-0.66946 1.59396,-1.20049 2.19998,-1.52083c0.99182,-0.52428 1.62802,-0.81255 2.28534,-1.18983c1.01141,-0.58055 1.55273,-0.94753 2.41916,-1.51917c0.89767,-0.59225 1.49469,-0.99141 2.07419,-1.38484c0.8096,-0.54965 1.69778,-1.16716 2.30048,-1.71066c0.71118,-0.64134 1.35684,-1.336 1.92535,-1.9045c0.59549,-0.59549 1.1955,-1.19551 1.7955,-1.7955c0.79999,-0.79999 1.418,-1.38493 1.96399,-2.036c0.36624,-0.43674 0.96988,-1.4397 1.31516,-2.26401c0.33856,-0.80827 0.64996,-1.56671 1,-2.47917c0.38699,-1.00885 0.48822,-1.62872 0.51636,-2.53516c0.03503,-1.12798 0.00449,-1.7955 0.00449,-2.5065c0,-0.731 0,-2.15767 0,-2.82201c0,-0.9465 0,-1.55583 0,-2.7585c0,-0.91949 0,-1.55583 0,-2.56534c0,-1.0905 0,-1.85416 0,-2.63783c0,-1.1955 0.00748,-1.99165 -0.01068,-2.76349c-0.01706,-0.72426 -0.10428,-1.94966 -0.3465,-2.57401c-0.28781,-0.74193 -0.75793,-1.61761 -1.04282,-2.55533c-0.21127,-0.69536 -0.38293,-1.42633 -0.70016,-2.481c-0.29474,-0.97989 -0.45956,-1.61594 -1.0665,-2.655c-0.43378,-0.7426 -0.854,-1.1292 -1.34933,-1.76534c-0.76404,-0.98123 -1.09683,-1.64471 -1.65067,-2.56801c-0.47537,-0.79248 -0.83777,-1.33055 -1.18066,-1.88066c-0.63947,-1.02588 -0.9808,-1.72768 -1.45135,-2.466c-0.55988,-0.87848 -1.30148,-1.58684 -1.83731,-2.12267c-0.68552,-0.6855 -1.20004,-1.19997 -1.76852,-1.76849c-0.79538,-0.79546 -1.40726,-1.37558 -1.93832,-1.9955c-0.66461,-0.77577 -1.02118,-1.37868 -1.65717,-2.26668l-0.70001,-0.3815l-0.79999,-0.47266" id="svg_12" stroke-width="2" stroke="#000" fill="none"/>
  <path t="24989,25032,25042,25058,25084,25101,25101,25101,25117,25117,25117,25134,25134,25151,25151,25151,25151,25151,25151,25165,25165,25165,25165,25182,25182,25182,25182,25182,25199,25199,25199,25199,25215,25215,25215,25215,25232,25232,25232,25232,25249,25249,25249,25249,25249,25265,25265,25265,25265,25265,25282,25282,25282,25282,25282,25299,25299,25299,25299,25299,25299,25299,25315,25315,25315,25315,25315,25332,25332,25332,25332,25349,25349,25349,25349,25365,25365,25365,25365,25366,25382,25382,25382,25399,25399,25399,25399,25400,25415,25415,25415,25432,25433,25433,25433,25450,25450,25450,25450,25465,25465,25466,25466,25466,25482,25482,25482,25483,25499,25499,25499,25500,25515,25515,25515,25515,25516,25533,25533,25533,25533,25551,25551,25551,25551,25551,25551,25565,25566,25566,25566,25566,25566,25584,25585,25585,25585,25585,25585,25600,25600,25600,25600,25600,25600,25601,25601,25616,25616,25617,25617,25617,25617,25617,25635,25635,25635,25635,25635,25635,25651,25651,25651,25651,25652,25652,25652,25667,25667,25667,25667,25667,25668,25668,25668,25668,25684,25684,25685,25685,25685,25685,25685,25702,25702,25702,25703,25703,25703,25703,25703,25703,25717,25718,25718,25718,25718,25718,25718,25718,25718,25734,25735,25735,25735,25735,25735,25735,25751,25751,25751,25751,25752,25767,25768,25768,25768" d="m293,116c-0.91333,1.71467 -0.22168,2.12358 0.60001,2.57467c0.80081,0.43963 1.73431,0.58846 2.40982,0.778c0.77667,0.21793 1.82285,0.48507 2.7435,0.622c0.75949,0.11296 1.65909,0.49943 2.28519,0.67266c0.94385,0.26115 1.86786,0.27422 2.93481,0.32734c0.56818,0.02829 1.14752,0.03563 2.29333,0.10933c1.06769,0.06867 1.99747,0.18071 2.80002,0.352c0.7309,0.15599 2.09915,0.56701 2.81732,0.764c0.74048,0.20311 1.49182,0.3957 2.23199,0.60001c1.06442,0.29382 1.7309,0.50138 2.70935,0.8c0.65839,0.20094 1.69543,0.502 2.42731,0.7c0.7468,0.20204 1.86542,0.49269 2.92618,0.8c0.67438,0.19537 1.3399,0.40745 2.03101,0.6c1.12021,0.3121 1.95877,0.5033 2.8515,0.7c0.92325,0.20342 1.39169,0.29456 2.772,0.6c0.88208,0.1952 1.72858,0.39946 2.556,0.564c0.80743,0.16057 2.0108,0.31901 2.41464,0.352c0.82733,0.06757 1.70456,0.10117 2.65201,0.168c1.04468,0.07368 2.19635,0.19864 2.802,0.27316c0.61835,0.07608 1.2431,0.15645 2.48401,0.34734c0.60654,0.09331 2.29373,0.39331 2.80066,0.49417c0.93942,0.1869 1.78656,0.38045 2.56799,0.51599c1.06464,0.18468 1.73703,0.22815 2.71469,0.31067c0.65894,0.05562 1.69971,0.17857 2.81064,0.41068c0.77734,0.1624 1.16898,0.26668 2.36401,0.564c0.79898,0.19878 1.59009,0.397 2.36401,0.60001c0.7514,0.1971 2.15231,0.59886 2.81064,0.79999c0.65103,0.1989 1.99118,0.60301 2.70935,0.8c0.74048,0.20311 1.49182,0.39574 2.23199,0.60001c1.06421,0.2937 2.04355,0.60611 2.67334,0.76399c1.20303,0.30161 1.81067,0.35201 2.71066,0.436c0.89999,0.084 1.80405,0.20613 2.72134,0.436c0.6535,0.16377 1.34549,0.3808 2.52133,0.66383c0.86002,0.20702 1.75659,0.38327 2.20667,0.46416c0.88132,0.15839 2.10718,0.3221 3.18933,0.41068c0.67563,0.0553 1.35013,0.07048 2.74667,0.31067c0.75455,0.12978 1.52603,0.32239 2.31598,0.51599c1.19977,0.29404 1.59689,0.40494 2.39868,0.588c0.79828,0.18225 1.59622,0.35605 2.80032,0.48933c0.80667,0.08929 1.64191,0.11267 2.51401,0.17401c1.42007,0.09988 1.9295,0.16 2.991,0.30449c0.54596,0.07431 1.64474,0.24931 2.18933,0.34734c1.57422,0.28337 2.06354,0.39078 2.99551,0.5955c0.88998,0.1955 1.32388,0.3026 2.19247,0.5c1.33844,0.30418 2.28809,0.50426 2.78534,0.61066c1.05078,0.22482 1.60837,0.34486 2.18933,0.47467c1.24347,0.27782 2.59512,0.59811 3.30069,0.77184c0.71848,0.17691 1.44269,0.36104 2.16599,0.5535c0.71869,0.19122 1.42896,0.37424 2.776,0.78934c1.24878,0.38481 1.82999,0.59583 2.392,0.8c1.07892,0.39198 1.59506,0.59857 2.104,0.8c1.5058,0.59598 2.00647,0.79857 3.01468,1.21066c0.51074,0.20876 1.54773,0.64359 2.07465,0.87466c1.08395,0.47537 2.2034,0.9998 2.78085,1.27634c0.59192,0.28345 1.1969,0.57886 1.8165,0.88499c1.2905,0.6376 2.65048,1.32039 3.35965,1.67433c0.72281,0.36073 1.45322,0.72432 2.18701,1.08301c0.72821,0.35596 1.44647,0.70192 2.151,1.02899c0.67953,0.31548 1.95001,0.87448 2.53448,1.103c1.0737,0.41982 1.5946,0.58771 2.6225,0.94c0.53058,0.18185 1.08862,0.36372 2.29602,0.82401c0.6763,0.25781 1.39157,0.55208 2.13898,0.87601c0.77805,0.33722 1.57266,0.70047 2.37302,1.092c0.80908,0.39577 1.6225,0.79164 3.15466,1.69867c0.74396,0.44041 1.44757,0.91025 2.12399,1.386c0.66223,0.46577 1.29562,0.94353 1.90802,1.422c0.60022,0.46895 1.17865,0.94135 2.30133,1.85866c0.54465,0.44501 1.07874,0.8783 1.59598,1.30501c0.99002,0.81674 1.45862,1.20755 1.89468,1.59999c1.1944,1.07491 1.83228,1.76709 2.37866,2.42567c0.51175,0.61685 0.97867,1.23466 1.71851,2.13567l0.52701,0.59134l0.53098,0.56732l0.51102,0.52734" id="svg_13" stroke-width="2" stroke="#000" fill="none"/>
  <path t="27339,27535,27545,27570,27600,27600,27600,27616,27616,27616,27616,27616,27632,27632,27632,27632,27649,27649,27649,27649,27666,27666,27666,27666,27682,27682,27682,27699,27699,27699,27699,27699,27715,27715,27715,27732,27732,27749,27749,27749,27765,27765,27782,27782,27782,27799,27799,27799,27815,27815,27832,27832,27832,27849,27849,27849,27927" d="m239,252c1.8,0 2.7,0.00113 3.52083,0c0.96851,-0.00134 1.80238,-0.04977 2.3365,-0.17067c1.01724,-0.23024 1.80717,-0.53369 2.6635,-0.85016c0.88045,-0.32539 1.30841,-0.50752 2.53633,-0.95767c1.078,-0.3952 1.75529,-0.61801 2.42551,-0.82016c1.03539,-0.31229 1.76707,-0.5092 2.51733,-0.68051c1.11197,-0.25389 2.17783,-0.40639 2.84283,-0.46815c0.94565,-0.08783 1.56616,-0.08287 2.75848,-0.33934c0.61591,-0.13248 1.56323,-0.45708 2.56534,-0.88c0.72156,-0.30452 1.44952,-0.65552 2.172,-1.008c0.69348,-0.33833 1.89069,-0.94 2.61969,-1.3045c0.63898,-0.31949 1.64166,-0.82083 2.24167,-1.12083c1,-0.5 1.60037,-0.79919 2.39999,-1.2c0.79907,-0.40054 1.64832,-0.7468 2.37866,-1.5215c0.59836,-0.63467 0.87933,-1.30005 1.50534,-2.07849c0.49594,-0.61668 1.06305,-1.17763 1.63199,-2c0.53958,-0.77992 1.04019,-1.60864 1.53668,-2.20001c0.51135,-0.60907 1.18066,-1.39999 1.71133,-2.18933l0.43466,-0.72533l0.49683,-0.71916" id="svg_14" stroke-width="2" stroke="#000" fill="none"/>
  <path t="28725,29052,29062,29086,29094,29106,29116,29133,29149,29149,29165,29165,29165,29165,29182,29182,29182,29199,29199,29215,29215,29215,29215,29232,29232,29232,29249,29249,29249,29249,29268,29268,29268,29268,29268,29285,29285,29285,29285,29302,29302,29302,29318,29318,29318,29318,29335,29335,29352,29352,29352,29352,29367,29368,29368,29385,29385,29402,29402,29402,29418,29418,29435,29435,29451,29451,29451,29468,29468,29468,29485,29485,29502,29502,29502,29518,29518,29518,29535,29535,29551,29551,29568,29568,29568,29585,29585,29602,29602,29602,29622,29622,29622,29637,29638,29638,29638,29649,29649,29649,29670,29670,29670,29685,29685,29685,29685,29701,29701,29701,29717,29717,29717,29735,29735,29735,29735,29750,29750,29750,29751,29767,29767,29767,29785,29785,29785,29800,29801,29801,29801,29801,29818,29818,29818,29833,29833,29833,29833,29851,29851,29851,29867,29867,29867,29867,29882,29882,29882,29882,29901,29901,29901,29901,29918,29918,29934,29934,29935,29935,29948,29948,29948,29966,29966,29966,29966,29982,29982,29982,29982,30002,30002,30002,30019,30019,30019,30019,30033,30034,30034,30049,30049,30050,30050,30066,30066,30066,30099,30099,30099,30100,30116,30116,30116,30133,30133,30149,30149,30149,30165,30166,30166,30166,30183,30184,30184,30184,30184,30199,30199,30199,30199,30217,30217,30383,30383" d="m241,255c0.16667,1.83334 0.9391,2.21524 1,3.10001c0.0618,0.89786 0.44981,1.44525 0.91467,2.18533c0.48869,0.77802 0.25725,1.71112 0.73199,2.42267c0.52585,0.78812 0.85753,1.33459 1.3325,2.31284c0.32593,0.67126 0.72214,1.63708 0.911,2.46033c0.19391,0.84521 0.47829,1.77078 0.87151,2.38583c0.56956,0.8909 0.89502,1.49338 1.23833,2.15384c0.35147,0.67618 0.97067,1.94043 1.37466,2.71783c0.3707,0.71335 0.78912,1.42975 1.2825,2.22299c0.36156,0.5813 0.76129,1.19183 1.34283,2.20499c0.40855,0.71176 0.79753,1.45465 1.164,2.20801c0.35873,0.73746 0.82373,1.80023 1.07883,2.46817c0.3596,0.94162 0.55624,1.55573 0.95717,2.75717c0.2002,0.59995 0.49873,1.50043 0.90001,2.69983c0.19934,0.59589 0.48984,1.46796 0.69998,2.01483c0.47711,1.2417 0.82086,1.9021 1.20001,2.85199c0.31284,0.78378 0.52161,1.3439 0.71466,2.23468c0.25714,1.18637 0.26318,1.7876 0.28085,2.64151c0.02142,1.03543 -0.06125,1.95248 0.17114,2.95715c0.18945,0.81915 0.61002,1.58734 0.74802,2.39999c0.13452,0.79214 0.08533,1.80017 0.08533,2.62085c0,1.14581 0,1.93182 0,2.75381c0,1.05869 0,1.76819 0,2.62085c0,1.00449 0,1.8045 0,2.80466c0,0.82068 0,1.48517 0,2.48383c0,0.81601 -0.02765,1.63245 0.00449,2.85886c0.01694,0.64703 0.18179,1.67123 0.51636,2.45715c0.43433,1.02026 0.83282,1.57721 1.12198,2.39999c0.34415,0.97922 0.34213,1.84305 0.52383,2.76666c0.15613,0.79355 0.4201,1.6171 0.83334,2.66669c0.28372,0.72061 0.6185,1.38437 1,2.33331c0.3154,0.78448 0.50217,1.35345 0.79999,2.23468c0.4043,1.19632 0.57169,1.8049 0.95718,2.64151c0.37259,0.80856 0.91107,1.49277 1.41748,2.1825c0.67996,0.92609 0.96661,1.44888 1.3045,2.2955c0.3472,0.86993 0.61655,1.78046 0.92084,2.66849c0.19724,0.57562 0.59348,1.64679 0.89999,2.358c0.39172,0.90897 0.80109,1.87399 1.00452,2.41434c0.33298,0.88446 0.56598,1.53137 1.01682,2.55951c0.32086,0.73169 0.67596,1.45932 1.026,2.16898c0.62616,1.26941 0.94504,1.77887 1.20602,2.52451c0.41299,1.17987 0.41461,2.03262 0.47198,2.63202c0.12653,1.32147 0.24948,2.03955 0.41068,2.77866c0.16397,0.75174 0.35394,1.49393 0.664,2.55316c0.2894,0.98868 0.4996,1.61096 0.89999,2.8215c0.19849,0.60007 0.50092,1.49448 0.64282,2.10001c0.27902,1.19067 0.32196,2.10092 0.38251,2.69998c0.12152,1.20218 0.24612,1.80499 0.49551,2.72086c0.17401,0.63904 0.58649,1.99854 0.77466,2.73181c0.19128,0.74542 0.37601,1.49005 0.53784,2.58069c0.10052,0.67758 0.12448,1.63019 0.25067,2.47998c0.15018,1.01135 0.49881,1.66614 0.74933,2.85333c0.16479,0.78085 0.15506,1.35403 0.16531,2.23468c0.01395,1.19858 0.00134,1.79868 0.00134,2.69867c0,1.20016 0,1.8045 0,2.73599c0,0.64932 0,2.048 0,2.78934c0,0.74933 0,1.49066 0,2.55316c0,0.9855 0,1.91699 0,2.8215c0,0.89999 0.00101,1.5 0,2.39999c-0.00134,1.20132 0.03326,1.81763 -0.11432,2.75717c-0.16028,1.02048 -0.44537,1.72876 -0.73636,2.45749c-0.29041,0.72733 -0.84384,2.04465 -0.97998,2.616c-0.23206,0.97382 -0.32678,1.93823 -0.522,2.7265c-0.21204,0.85605 -0.43018,1.43506 -0.56067,2.64017c-0.09283,0.85718 -0.22629,1.72995 0.27951,2.58835c0.43704,0.7417 1.39365,1.0448 2.17548,1.29349c0.85065,0.27057 1.75873,0.39914 2.67969,0.50616c0.65073,0.07562 1.35977,0.14267 2.52133,0.45752c0.87158,0.23627 1.75806,0.57602 2.20667,0.74249c0.88412,0.32809 2.10696,0.79462 2.83182,1.0575c0.96082,0.34845 1.53085,0.55585 2.53217,0.95718l0.84,0.39999l0.82501,0.49966l0.66,0.48599" id="svg_15" stroke-width="2" stroke="#000" fill="none"/>
  <path t="31526,31536,31536,31536,31536,31536,31546,31546,31546,31546,31553,31553,31553,31567,31567,31567,31582,31582,31598,31598,31598,31598,31598,31615,31615,31615,31615,31615,31632,31632,31632,31632,31648,31648,31648,31648,31648,31664,31665,31665,31665,31681,31682,31682,31682,31682,31682,31682,31698,31698,31698,31698,31698,31714,31715,31715,31715,31731,31732,31732,31732,31748,31748,31748,31748,31748,31764,31765,31765,31765,31765,31782,31782,31782,31782,31782,31782,31782,31798,31798,31798,31798,31798,31814,31815,31815,31815,31831,31832,31832,31832,31832,31847,31848,31848,31848,31848,31848,31864,31865,31865,31865,31881,31882,31882,31882,31897,31898,31898,31898,31898,31914,31915,31915,31915,31932,31932,31932,31932,31948,31948,31948,31965,31965,31965,31965,31982,31982,31982,31982,31998,31998,31998,32015,32015,32032,32032,32032,32048,32048,32048,32065,32065,32083,32083,32083,32099,32099,32099,32116,32116,32133,32133,32133,32149,32149,32149,32166,32183,32199,32199,32216,32216,32233,32233,32249,32249,32265,32265,32283,32333,32341,32349,32365,32365,32383,32383,32398,32398,32398,32415,32415,32415,32432,32432,32432,32432,32448,32448,32448,32448,32465,32465,32465,32465,32465,32482,32482,32482,32482,32498,32498,32498,32498,32498,32498,32515,32515,32515,32515,32532,32532,32532,32548,32548,32548,32548,32565,32565,32565,32565,32582,32582,32598,32598,32598,32615,32615,32632,32649,32649,32649,32665,32682,32682,32698,32729,32803,32813,32833,32833" d="m291,291c4.5,14.5 4.83685,15.60516 5.14133,16.62534c0.27969,0.93719 0.53186,1.7966 0.75452,2.58301c0.20245,0.71503 0.38431,1.36331 0.52948,1.953c0.35123,1.42651 0.44604,2.15585 0.58936,2.98532c0.18277,1.05774 0.45908,1.63733 0.70132,2.45334c0.29614,0.99753 0.29865,1.71964 0.61734,2.89999c0.20612,0.76337 0.5274,1.59753 0.6875,2.04166c0.32983,0.9151 0.81631,2.29047 0.95764,2.73666c0.2717,0.85773 0.5004,1.68008 0.71701,2.46002c0.30414,1.09509 0.50381,1.77786 0.8045,2.76166c0.19952,0.65283 0.50397,1.66556 0.70001,2.38535c0.20413,0.74951 0.401,1.52509 0.59998,2.31598c0.30154,1.19861 0.50436,2.00665 0.70001,2.84033c0.20456,0.87161 0.50201,2.29129 0.60001,2.80103c0.20416,1.06186 0.2998,1.608 0.39999,2.15732c0.19965,1.09473 0.28638,1.63474 0.60001,3.15701c0.19168,0.93039 0.2963,1.37189 0.5,2.22165c0.19644,0.81952 0.49854,2.02155 0.69998,2.81683c0.19858,0.78403 0.38956,1.55026 0.70001,2.63785c0.29025,1.01682 0.50317,1.66568 0.70001,2.31934c0.3049,1.01251 0.60516,2.10675 0.77914,2.88898c0.08984,0.40393 0.2655,1.24164 0.39969,2.58002c0.09406,0.93814 0.09747,1.42572 0.1825,2.42499c0.04385,0.51544 0.2616,2.12216 0.3815,2.6745c0.24573,1.13184 0.41449,1.69464 0.578,2.258c0.32312,1.11334 0.50787,1.64813 0.95749,3.17786c0.13852,0.47131 0.39117,1.36737 0.57501,2.22165c0.17551,0.81549 0.33328,2.02069 0.39398,2.82135c0.06061,0.79944 0.0751,1.60324 0.21933,2.79999c0.09705,0.80539 0.26334,1.62054 0.40802,2.47198c0.0751,0.44196 0.27203,1.86038 0.34,2.89468c0.03506,0.53378 0.06714,1.61246 0.07465,2.14667c0.0145,1.03326 0.00381,1.98669 0.01202,2.83066c0.01062,1.09363 0.00858,1.74982 0.22,2.95633c0.10748,0.61334 0.375,1.56766 0.49466,2.27036c0.19867,1.16656 0.23502,2.03888 0.26315,2.95016c0.01434,0.46436 0.02017,1.39648 0.02084,2.75748c0.00043,0.86002 0,1.68002 0,2.46002c0,1.095 0,1.77634 0,2.74081c0,0.61633 -0.01358,1.82111 0.01068,2.72086c0.01617,0.60028 0.13254,1.80524 0.3465,2.7045c0.14761,0.62036 0.35672,1.24997 0.74283,2.61667c0.20499,0.72559 0.39154,1.46042 0.60001,2.16898c0.28833,0.98001 0.64276,1.77875 0.94281,2.70084c0.32373,0.99493 0.34348,1.62973 0.35718,2.77567c0.0094,0.78598 -0.03436,1.61908 0.16666,2.66669c0.13821,0.72034 0.55991,1.54437 0.74802,2.56799c0.11258,0.61261 0.08533,1.76532 0.08533,2.55133c0,0.82199 0,1.88068 0,2.59018c0,0.85266 0,1.85849 0,2.69315c0,0.93066 0,1.71667 0,2.53867c0,1.05869 0.00821,1.9787 0,2.73868c-0.01044,0.966 -0.53528,1.69296 -0.87851,2.58682c-0.28473,0.74155 -0.06961,1.74454 -0.20682,2.50116c-0.18448,1.01727 -0.56039,1.5798 -0.79333,2.59851c-0.17581,0.76886 -0.28085,1.82455 -0.82584,2.49567c-0.61935,0.76273 -1.62479,1.6597 -1.01016,2.21918c0.60574,0.55139 1.71466,0.08533 2.60001,0.08533c0.77631,0 1.57632,0 2.53598,0c0.80402,0 1.62601,0 2.896,0c0.70352,0 1.45203,0 2.65335,0c0.70132,0 1.45065,0.00006 2.23199,0c1.19733,-0.00009 1.99762,0.00549 2.79733,-0.02084c0.80038,-0.02634 2.0018,-0.13416 2.79999,-0.26315c0.802,-0.12964 1.59732,-0.30676 2.40002,-0.43201c1.19666,-0.18671 2.00446,-0.23196 2.82083,-0.284c0.8363,-0.05331 2.14655,-0.16092 2.60031,-0.2215c0.92865,-0.12396 1.8588,-0.29532 2.3175,-0.38916c0.89365,-0.18283 2.11853,-0.48853 2.84702,-0.68484c0.99323,-0.26764 1.60501,-0.46417 2.81564,-0.62048c0.91574,-0.11823 1.55951,-0.10788 2.56534,-0.25067c1.09088,-0.15488 1.83157,-0.34271 2.58069,-0.48068c1.08359,-0.19958 1.76477,-0.28876 2.711,-0.33182c0.85431,-0.03888 1.86096,0.03967 2.73099,-0.05685c1.02127,-0.11331 1.59464,-0.4379 2.41068,-0.67999c0.9798,-0.29068 1.79535,-0.21109 2.64734,-0.64117c1.0014,-0.50549 1.55447,-1.08768 2.26865,-1.35748c0.95844,-0.36209 1.80252,-0.51358 2.48401,-0.78534c0.97443,-0.38858 1.83334,-0.66666 2.284,-1.41599l0.65884,-0.44119l0.05716,-0.95181l0,-0.66168" id="svg_16" stroke-width="2" stroke="#000" fill="none"/>
  <path t="34125,34135,34135,34135,34135,34135,34135,34135,34135,34135,34150,34150,34150,34150,34150,34150,34167,34167,34182,34182,34182,34182,34197,34197,34198,34198,34198,34198,34214,34215,34215,34215,34215,34231,34232,34232,34232,34232,34232,34232,34247,34247,34247,34248,34248,34264,34264,34265,34265,34282,34282,34282,34282,34282,34298,34298,34298,34298,34298,34298,34315,34315,34315,34315,34315,34315,34332,34332,34332,34332,34332,34348,34348,34348,34348,34365,34365,34365,34365,34382,34382,34382,34382,34383,34398,34398,34398,34398,34398,34415,34415,34415,34415,34432,34432,34432,34432,34448,34448,34448,34465,34465,34465,34465,34482,34482,34482,34482,34482,34498,34498,34498,34498,34515,34515,34515,34515,34532,34532,34532,34532,34532,34532,34548,34548,34548,34565,34565,34565,34565,34565,34582,34582,34582,34582,34582,34598,34598,34598,34598,34598,34598,34615,34615,34615,34615,34632,34632,34632,34632,34648,34648,34648,34648,34665,34665,34665,34665,34682,34682,34682,34683,34683,34698,34698,34698,34698,34698,34715,34715,34715,34715,34732,34732,34732,34732,34748,34748,34748,34765,34765,34765,34765,34782,34782,34782,34782,34782,34798,34798,34798,34798,34815,34815,34815,34815,34832,34832,34832,34832,34832,34848,34848,34848,34848,34865,34865,34882,34882,34882,34898,34898,34898,34898,34915,34915,34915,34932,34932,34932,34932,34948,34948,34948,34965,34965,34965,34982,34982,34982,34982,35033,35041" d="m363,224c0.83334,14.16667 0.88086,15.3911 0.91599,16.56267c0.03345,1.11543 0.0578,2.17203 0.08401,3.1665c0.02451,0.9295 0.04428,1.79138 0.08401,2.5815c0.06824,1.35681 0.12933,1.91841 0.19998,2.40666c0.06171,0.42641 0.23856,1.10991 0.43201,1.87201c0.25702,1.01247 0.28174,1.92497 0.284,2.74399c0.00269,0.9855 0,1.72917 0,2.53284c0,1.30049 -0.00571,1.75523 0.00449,2.68651c0.01038,0.94742 0.04343,1.89529 0.08084,2.36331c0.10913,1.36542 0.26843,2.24017 0.41467,3.12567c0.07526,0.4556 0.23761,1.41083 0.33334,2.45834c0.1051,1.15009 0.1138,1.75787 0.13065,2.37601c0.034,1.24777 0.03287,1.866 0.03467,2.47198c0.00504,1.6875 0.00134,2.19601 0.00134,3.14401c0,0.87601 0,1.70401 0,2.90799c0,0.80002 0,1.60001 0,2.39999c0,1.20001 0,2.00269 0,2.82135c0,0.85065 0.00092,1.293 0,2.71201c-0.00067,1.03598 0.00226,1.5766 -0.02084,2.6875c-0.01175,0.56458 -0.00693,1.13315 -0.14581,2.8125c-0.04514,0.54587 -0.18393,1.60529 -0.25867,2.12c-0.14529,1.00061 -0.30603,1.95816 -0.40802,2.88c-0.09732,0.87982 -0.13675,1.73096 -0.19199,2.556c-0.0542,0.80963 -0.18716,2.01202 -0.32733,2.80615c-0.13861,0.78525 -0.32611,1.54245 -0.48068,2.63785c-0.14322,1.0148 -0.15811,1.6882 -0.21933,2.3765c-0.10004,1.12482 -0.22992,1.95972 -0.37265,2.8515c-0.14792,0.92422 -0.24982,1.38705 -0.40802,2.772c-0.10031,0.87817 -0.1358,1.72037 -0.19199,2.51999c-0.05344,0.76041 -0.18427,1.82782 -0.39999,2.82132c-0.14166,0.6524 -0.34299,1.30292 -0.48935,2.70935c-0.0769,0.73898 -0.0788,1.49063 -0.08398,2.23199c-0.00745,1.06247 0.00891,2.04919 -0.03735,2.67334c-0.09003,1.21436 -0.32083,2.11871 -0.46399,2.75232c-0.15176,0.67169 -0.35062,1.79019 -0.41467,2.62634c-0.06754,0.88144 -0.07877,1.78131 -0.08398,2.664c-0.00723,1.22513 0.00809,1.95862 -0.02219,2.64716c-0.04419,1.00461 -0.19641,2.04324 -0.33182,2.7825c-0.14301,0.78079 -0.32248,1.59634 -0.48068,2.905c-0.05481,0.45343 -0.11929,1.38116 -0.14581,2.3125c-0.02594,0.9108 -0.02017,1.3515 -0.02084,2.578c-0.00058,1.08151 0,1.75751 0,3.1095c0,0.71869 0,1.46933 0,2.24402c0,0.79065 0,1.98965 0,2.79834c0,0.83264 0,1.70532 0,2.16165c0,1.47202 0,1.99734 0,3.07999c0,0.54935 0.00003,1.64401 0,2.18134c-0.00009,1.52484 0.00684,2.44949 -0.02084,3.30551c-0.02579,0.79672 -0.13181,1.89841 -0.26315,2.57849c-0.12775,0.66144 -0.39819,1.63092 -0.54935,2.65067c-0.10587,0.71414 -0.14407,1.45837 -0.16217,2.58069c-0.01749,1.08588 -0.00449,1.76999 -0.00449,2.7735c0,0.689 -0.00369,1.8125 0.00134,2.6485c0.00537,0.89203 0.00085,1.35242 0.05582,2.2825c0.08179,1.38342 0.21933,2.26282 0.36816,3.1015c0.14218,0.8013 0.32028,1.55591 0.45319,2.62534c0.08286,0.6666 0.11505,1.64661 0.12015,2.30533c0.00803,1.03729 0.00134,2.14133 0.00134,2.89066c0,0.74133 -0.01453,1.80411 0.01068,2.78934c0.01602,0.62564 0.14581,1.83807 0.27332,2.43866c0.2001,0.9425 0.40039,1.60614 0.54935,2.73068c0.11014,0.83148 0.13907,1.71744 0.19199,2.616c0.02621,0.44537 0.10226,1.72467 0.33185,2.83633c0.14001,0.67798 0.3465,1.3056 0.74283,2.51465c0.19955,0.6088 0.50986,1.56894 0.69998,2.27036c0.3165,1.16766 0.50043,2.03458 0.60001,2.47998c0.20087,0.8985 0.38547,1.785 0.69983,3.00616c0.18704,0.72662 0.40839,1.37335 0.61484,2.25519c0.23306,0.99548 0.26764,1.87741 0.28549,2.88834c0.01486,0.84143 0.0629,1.57422 0.28384,2.76898c0.12842,0.69452 0.3049,1.41342 0.43201,2.14801c0.18304,1.0578 0.26144,2.0463 0.27951,2.97815c0.01755,0.90436 -0.0043,1.80502 0.02533,2.40451c0.04456,0.90121 0.26001,2.10077 0.40448,2.70001c0.21729,0.90115 0.46976,2.09842 0.51752,2.69998c0.07129,0.89838 0.05716,2.10001 0.05716,2.69733c0,0.86102 0,1.63202 0,2.79852l0,-0.45834" id="svg_17" stroke-width="2" stroke="#000" fill="none"/>
  <path t="35576,35596,35596,35596,35596,35596,35596,35596,35596,35596,35654,35654,35654,35667" d="m320,351c9.16666,0.33334 10.12088,0.43607 11.07333,0.56799c0.94424,0.1308 1.86725,0.2793 2.76001,0.43201c0.85388,0.14609 1.65668,0.29449 2.39999,0.43201c1.26672,0.23434 2.19733,0.39865 2.832,0.50665l0.8775,0.41852" id="svg_18" stroke-width="2" stroke="#000" fill="none"/>
  <path t="36475,36485,36485,36485,36485,36485,36485,36485,36485,36485,36500,36500,36500,36517,36534,36534,36534,36557,36557,36557,36569,36584,36584,36600,36617,36617,36617,36634,36634,36650,36650,36669,36669,36684,36684,36684,36705,36705,36705,36719,36719,36719,36719,36733,36733,36733,36748,36748,36748,36765,36765,36765,36782,36782,36782,36798,36798,36815,36815,36841,36857,36865" d="m284,418c-2.5,14.5 -2.64276,15.60492 -2.74533,16.62534c-0.09418,0.93701 -0.1601,1.79715 -0.21301,2.58301c-0.04816,0.71552 -0.07547,1.36603 -0.12299,1.953c-0.116,1.43314 -0.34885,2.4465 -0.56601,3.159c-0.32391,1.06281 -0.35266,2.013 -0.35266,2.68948c0,0.77551 -0.03967,1.82483 0.01068,2.7435c0.04181,0.76251 0.49948,1.73599 1.08932,2.34668c0.58951,0.61032 1.27267,1.35126 2.06665,1.89999c0.64145,0.44333 1.24179,0.69226 2.23203,1.20001c0.76843,0.39401 1.57126,0.9115 2.22665,1.39999c0.68723,0.51221 1.39117,0.90854 2.37466,1.39999c0.6019,0.30075 1.44333,0.70911 2.42166,0.87851c0.81726,0.14151 1.73999,0.11923 2.745,0.12149c0.716,0.00159 1.448,0 2.5235,0c0.9765,0 1.80002,0.00006 2.52451,0c1.20667,-0.00009 2.0141,0.03098 2.83267,-0.05716c1.03836,-0.11179 1.72873,-0.37531 2.40533,-0.64734c0.9707,-0.39026 1.76382,-0.71558 2.59467,-0.93832c1.02151,-0.27386 1.70554,-0.33917 2.78601,-0.35718c0.86203,-0.01437 1.76666,0 2.64581,-0.02084l0.54617,-0.58981" id="svg_19" stroke-width="2" stroke="#000" fill="none"/>
  <path t="39465,39612,39622,39648,39648,39666,39681,39681,39698,39698,39698,39715,39715,39731,39731,39731,39750,39750,39750,39765,39765,39765,39765,39781,39781,39781,39798,39798,39798,39815,39815,39830,39831,39831,39847,39848,39864,39864,39880,39881,39881,39881,39897,39897,39898,39914,39914,39914,39915,39930,39930,39930,39931,39931,39948,39948,39948,39948,39965,39965,39965,39965,39965,39980,39981,39981,39981,39998,39998,39998,39998,40014,40015,40015,40015,40031,40031,40031,40031,40031,40047,40048,40048,40048,40065,40065,40065,40080,40081,40081,40081,40098,40098,40098,40098,40115,40115,40115,40130,40131,40131,40131,40149,40150,40150,40165,40165,40165,40165,40180,40181,40181,40197,40198,40198,40215,40215,40302,40302,40312" d="m359,330c-0.93832,1.70001 -0.48444,2.50516 0.20001,3.20001c0.49622,0.50375 1.18881,1.21136 1.90033,1.90015c0.56296,0.54495 1.22379,1.07965 1.905,1.548c0.73431,0.50488 1.6427,1.07092 2.34399,1.2905c0.96393,0.30179 1.66568,0.40314 2.436,0.672c1.05554,0.36841 1.75217,0.72629 2.47598,0.95334c1.05466,0.33084 2.04355,0.38882 2.73868,0.41516c0.69437,0.02631 1.95715,0.02084 2.73868,0.02084c0.7095,0 1.94531,0 2.76132,0c0.54733,0 1.81467,0 2.47916,0c1.02084,0 1.82083,0 2.62085,0c1,0 1.79999,0 2.80267,0c0.86932,0 1.93066,0 2.56531,0c1.03201,0 1.72668,0 2.98935,0c0.79199,0 1.548,0 2.68582,0c0.67569,0 1.41934,0 2.22302,0c1.30048,0 2.21649,0 2.68198,0c0.931,0 1.84201,0 3.1185,0c0.76401,0 1.47202,0 2.14801,0c1.35199,0 2.06949,-0.0065 2.81067,0.01068c0.74954,0.0174 1.49817,0.02737 2.892,0.27332c0.67239,0.11865 1.34012,0.31171 2.052,0.43201c1.168,0.19736 2.03601,0.23132 2.93066,0.284c0.89465,0.05267 2.17026,0.14548 2.93066,0.28534c0.71191,0.13095 1.38235,0.33105 2.73599,0.71466c0.71649,0.20306 1.45895,0.39902 2.20801,0.60001c0.74161,0.19901 1.8053,0.49518 2.46817,0.69998c0.94867,0.29312 1.55252,0.51013 2.75848,0.89868c0.60773,0.1958 1.54953,0.48145 2.56534,0.63467c0.71387,0.1077 1.83322,0.15244 2.58069,0.16217c1.08591,0.01413 1.76788,-0.01279 2.73181,0.02533c0.61691,0.02441 1.82303,0.19101 2.72086,0.40448c0.60153,0.14301 1.79773,0.42703 2.39999,0.48935c0.89752,0.0929 1.79999,0.08466 2.70016,0.08533c0.91049,0.00067 1.85699,0.00095 2.86649,0c0.716,-0.00067 1.45023,0.02612 2.5235,-0.05716c0.97968,-0.07602 1.79654,-0.30713 2.52451,-0.51752c0.94772,-0.2739 1.737,-0.34302 2.52402,-0.45065c1.12506,-0.15387 1.87598,-0.54935 2.74399,-0.89066l0.8075,-0.13669l0.68851,-0.59399" id="svg_20" stroke-width="2" stroke="#000" fill="none"/>
  <path t="41735,41745,41745,41745,41745,41745,41745,41745,41745,41762,41762,41762,41762,41762,41762,41762,41762,41762,41774,41774,41774,41774,41782,41783,41783,41783,41798,41798,41798,41798,41798,41815,41815,41815,41815,41815,41831,41831,41831,41831,41831,41848,41848,41848,41848,41848,41865,41865,41865,41865,41865,41881,41881,41881,41881,41881,41898,41898,41898,41898,41898,41915,41915,41915,41915,41931,41931,41931,41931,41949,41949,41949,41949,41965,41965,41965,41965,41965,41981,41981,41981,41981,41981,41998,41998,41998,41998,42015,42015,42015,42015,42031,42031,42031,42031,42031,42048,42048,42048,42065,42065,42065,42081,42081,42081,42081,42098,42098,42098,42098,42115,42115,42115,42131,42131,42132,42148,42148,42165,42165,42181,42181,42181,42198,42198,42198,42215,42215,42215,42231,42231,42231,42249,42249,42267,42267,42267,42282,42282,42299,42299,42299,42315,42315,42331,42331,42348,42348,42365,42365,42381,42381,42381,42398,42399,42399,42399,42415,42416,42431,42431,42431,42451,42451,42451,42465,42465,42465,42481,42481,42500,42500,42518,42518,42531,42565,42581,42581,42598,42615,42616,42616,42631,42631,42631,42648,42648,42665,42665,42665,42681,42681,42681,42681,42698,42698,42698,42698,42715,42715,42715,42731,42748,42748,42748,42765,42765,42782,42782,42783,42798,42800,42800,42815,42815,42831,42831,42831,42848,42865,42865,42880,42898,42915,42936,43069" d="m472,209c0.22134,2.44217 0.28461,3.35062 0.35266,4.36517c0.07333,1.09344 0.14828,2.23894 0.22202,3.4095c0.07361,1.16843 0.14749,2.30766 0.25867,4.392c0.04782,0.89636 0.08344,1.69193 0.1095,2.39549c0.02298,0.62044 0.0379,1.16698 0.04648,1.6485c0.0076,0.42549 0.01001,0.804 0.01068,1.45601c0.00031,0.29066 0,1.08266 0,1.83867c0,1.13766 0,1.80899 0,2.916c0,0.78133 0,1.97882 0,2.78316c0,0.81633 0,1.23151 0,2.08084c0,1.336 0,2.26733 0,2.73999c0,0.94934 0,1.89067 0,3.25334c0,0.43733 0,1.29599 0,2.14667c0,0.85866 0,2.196 0,3.12733c0,0.47266 0,1.422 0,2.36333c0,0.91733 0,1.8 0,2.65866c0,0.85068 0,1.70934 0,3.04668c0,0.46268 0,1.40399 0,2.35333c0,0.47266 0.00418,1.8587 -0.00134,2.73999c-0.00531,0.84937 -0.01367,1.67624 -0.08398,2.48401c-0.1048,1.20428 -0.26547,1.99719 -0.41467,2.78049c-0.14554,0.76401 -0.3454,1.85284 -0.41599,2.53683c-0.10138,0.98236 -0.09976,1.64175 -0.30536,3.00552c-0.11139,0.73892 -0.29102,1.4971 -0.42599,2.28299c-0.2048,1.19241 -0.27313,1.99652 -0.32733,2.80615c-0.05524,0.82504 -0.09442,1.67621 -0.19199,2.556c-0.10181,0.91788 -0.25845,1.84805 -0.33334,2.3125c-0.14691,0.91107 -0.34344,2.18646 -0.41599,2.95016c-0.09763,1.02783 -0.09213,1.66873 -0.30536,2.871c-0.10873,0.6131 -0.37494,1.56766 -0.49466,2.27036c-0.1987,1.16623 -0.23203,2.03012 -0.284,2.90848c-0.0257,0.43414 -0.00214,1.28171 -0.284,2.66617c-0.16782,0.82431 -0.48062,1.52753 -0.63199,2.54001c-0.12418,0.83051 -0.13348,1.72195 -0.30551,2.61499c-0.17886,0.92859 -0.39511,1.5701 -0.57983,2.27036c-0.30844,1.16922 -0.50195,2.02856 -0.67783,2.90848c-0.17126,0.85684 -0.36133,2.01996 -0.43683,2.66486c-0.0928,0.79251 -0.23639,1.86075 -0.50934,2.65598c-0.27631,0.80508 -0.52234,1.59763 -0.564,2.40002c-0.05185,0.99887 -0.01068,1.82083 -0.01068,2.96664c0,0.78601 0,1.608 0,2.66669c0,0.71399 0,1.61932 0,2.58798c0,0.80402 0,1.62601 0,2.65717c0,0.90067 0,1.52017 0,2.526c0,0.85266 0,1.81683 0,2.62085c0,0.82199 0,1.85315 0,2.75381c0,1.02084 -0.0018,1.82083 0,2.62085c0.00226,1 -0.03036,1.82413 0.28534,2.79868c0.25629,0.79111 0.82617,1.57126 1.31467,2.22665c0.51221,0.68723 0.90268,1.39413 1.39999,2.37466c0.30615,0.60367 0.74362,1.46521 1.32132,2.42133c0.32382,0.53595 0.85947,1.34952 1.19467,1.89468c0.60989,0.99185 0.96735,1.66104 1.48401,2.68399c0.30243,0.59879 0.70404,1.39801 1.10001,2.20016c0.40411,0.81866 0.72446,1.47574 1.09866,2.48383c0.30029,0.80893 0.57077,1.62259 0.716,2.62933c0.12042,0.83466 0.08533,1.80267 0.08533,2.57068c0,0.94135 0.01199,1.63205 0,2.70532c-0.01044,0.9317 -0.11758,1.78998 -0.61066,2.54935c-0.49493,0.76221 -1.556,0.86133 -2.23602,0.86133c-0.84,0 -1.83731,0 -2.65332,0c-0.81601,0 -1.81888,0.04398 -2.72534,-0.03601c-0.94666,-0.08353 -1.73438,-0.29935 -2.54932,-0.57465c-1.0687,-0.36099 -1.78036,-0.68704 -2.48666,-1.02533c-0.51041,-0.24448 -1.70667,-0.84802 -2.38934,-1.18936c-0.69867,-0.3493 -1.38263,-0.68811 -2.30618,-1.15314c-0.76154,-0.38345 -1.56723,-0.80322 -2.41782,-1.42151c-0.80371,-0.5842 -1.4585,-1.00543 -2.02985,-1.30002c-0.99066,-0.51077 -1.82291,-0.89679 -2.59549,-1.46664c-0.62369,-0.46002 -1.20267,-1.04132 -2,-1.83334c-0.59747,-0.59351 -1.16733,-1.16068 -1.83334,-1.83334c-0.53336,-0.53867 -1.17352,-1.32919 -1.56665,-1.992c-0.40714,-0.68646 -1.15958,-1.4505 -1.47852,-2.27481c-0.28662,-0.74081 -0.13217,-1.71451 -0.34283,-2.65701l-0.69333,-0.52817l-0.08667,-0.91333l-0.35132,-0.74417" id="svg_21" stroke-width="2" stroke="#000" fill="none"/>
  <path t="44111,44121,44137,44137,44168,44184,44184,44184,44198,44198,44198,44198,44215,44215,44215,44231,44231,44231,44248,44248,44248,44265,44265,44265,44265,44281,44281,44281,44298,44298,44298,44314,44315,44315,44331,44331,44348,44348,44365,44365,44365,44381,44381,44381,44398,44398,44414,44415,44430,44431,44431,44447,44448,44465,44465,44465,44481,44481,44498,44498,44515,44515,44530,44531,44531,44548,44548,44565,44565,44565,44581,44581,44581,44598,44598,44617,44618,44634,44634,44634,44650,44651,44667,44668,44684,44684,44684,44700,44700,44700,44700,44717,44717,44717,44733,44733,44733,44733,44750,44750,44767,44767,44783,44783,44783,44804,44804,44804,44821,44821,44821,44834,44851,44852,44865,44865,44865,44881,44881,44881,44898,44898,44915,44915,44931,44931,44948,44948,44984,44985,44992,45008,45015,45031,45048,45048,45065,45065,45065,45081,45081,45081,45098,45098,45098,45098,45115,45115,45115,45133,45152,45152,45167,45167,45183,45183,45183,45200,45201,45217,45234,45234,45251,45251,45267,45267,45283,45284,45284,45300,45317,45317,45333,45350,45350,45368,45383,45412,45448,45448,45454,45492,45516,45576,45601,45601,45729,45869,45893,45908,45920,45936,45950,45951,45951,45966,45967,45967,45967,45983,45984,46001,46001,46001,46001,46017,46018,46018,46018,46033,46034,46034,46051,46051,46051,46067,46068,46068,46084,46084,46084,46084,46084,46100,46100,46100,46100,46118,46118,46118,46134,46134,46134,46134,46151,46151,46151,46168,46168,46168,46168,46183,46184,46184,46184,46184,46201,46201,46201,46201,46218,46218,46218,46232,46232,46233,46233,46251,46251,46251,46251,46268,46268,46268,46283,46284,46284,46301,46301,46301,46317,46318,46334,46334,46351,46351,46351,46366,46366,46383,46384,46432,46433,46532,46851,46873,46889,46889,46902,46916,46934,46935,46935,46952,46952,46952,46967,46968,46968,46968,46985,46985,46985,46985,47001,47001,47001,47001,47001,47017,47017,47017,47017,47034,47034,47034,47034,47050,47050,47050,47050,47050,47067,47067,47067,47067,47084,47084,47084,47084,47101,47101,47101,47116,47117,47117,47117,47134,47134,47134,47151,47167,47167,47183,47183,47183,47201,47202,47217,47217,47234,47234,47234,47251,47251,47267,47267,47267,47284,47284,47301,47301,47301,47301,47316,47316,47316,47334,47334,47351,47351,47367,47384,47384,47401,47420,47420,47452,47468,47473,47483,47501,47517,47517,47534,47534,47551,47552,47567,47567,47567,47584,47584,47585,47602,47603,47603,47617,47617,47617,47635,47635,47651,47667,47684,47685,47685,47701,47701,47717,47734,47734,47735,47751,47767,47767,47784,47784,47801,47802,47817,47817,47834,47880,47916,47924" d="m402,339c1.39999,2.36401 2.18997,3.02936 2.64282,3.70001c0.51071,0.75632 1.01181,1.63367 1.65451,2.13599c0.49142,0.38409 1.54431,1.15421 2.01733,1.564c0.67667,0.58624 1.28433,1.19968 1.88535,1.80002c0.60031,0.59964 1.19998,1.19998 2,2c0.59998,0.59998 1.19998,1.19998 1.79999,1.79999c0.60001,0.60001 1.20151,1.19852 2,2c0.60114,0.60336 1.02014,1.00317 1.60001,1.68533c0.82822,0.9743 1.19894,1.53357 1.564,2.08932c0.68765,1.04688 1.0867,1.76404 1.42532,2.41467c0.52274,1.00439 0.86401,1.58752 1.12534,2.41068c0.31067,0.97858 0.26001,1.82141 0.57068,2.79999c0.26132,0.82315 0.74493,1.58615 1.104,2.41068c0.27725,0.63666 0.49905,1.60956 0.58533,2.41467c0.08795,0.82098 0.22156,1.86136 0.52533,2.733c0.30814,0.88419 0.49466,1.70294 0.5,2.5845c0.00436,0.71848 -0.01785,1.50912 0.00134,2.77182c0.0101,0.6647 0.15103,1.69009 0.42398,2.48532c0.27631,0.80508 0.54205,1.79877 0.57019,2.60001c0.0351,0.99939 0.00449,1.80002 0.00449,2.80002c0,0.79999 0,1.79999 0,2.59998c0,0.80002 -0.00003,1.8045 0,2.436c0.00009,1.18552 -0.00809,2.00113 0.03601,2.57468c0.09171,1.19296 0.31262,2.08139 0.53867,2.91733c0.25415,0.93988 0.39801,1.75134 0.42548,2.59351c0.02902,0.8894 0.21497,1.88068 0.42517,2.47849c0.28235,0.80301 0.54205,1.79877 0.57019,2.60001c0.03516,1.00073 0.00449,1.836 0.00449,2.76666c0,0.7905 0,1.64401 0,2.83334c0,0.60001 0.00006,1.5 0,2.39999c-0.00009,0.89999 0.02054,1.80219 -0.05716,2.70001c-0.07819,0.90326 -0.27866,1.80203 -0.5535,2.664c-0.17703,0.55521 -0.71478,1.76721 -0.95334,2.42532c-0.36072,0.99518 -0.36639,1.8248 -0.60266,2.81067c-0.14771,0.61636 -0.5589,1.44879 -0.93317,2.42133c-0.30692,0.79755 -0.51566,1.34155 -0.73352,2.41202c-0.18564,0.91208 -0.09988,1.76358 -0.6875,2.64581c-0.47079,0.70685 -1.1293,1.16589 -1.57932,2.06369c-0.35074,0.69974 -0.58716,1.5506 -1.22116,2.53549c-0.45599,0.70834 -1.03284,1.25333 -1.65717,1.90033c-0.61768,0.64014 -1.11563,1.34616 -1.52151,2.02133c-0.59146,0.98386 -1.05081,1.46521 -1.59982,2.32132c-0.41971,0.65448 -0.86594,1.64908 -0.89883,2.47736c-0.0336,0.84534 0.80017,1.18338 1.69867,1.20132c0.93649,0.01871 1.7742,0.31894 2.54666,0.57468c0.90723,0.30035 1.70764,0.35699 2.52798,0.45065c1.06119,0.12112 1.77017,0.35104 2.48666,0.54935c1.06284,0.29416 2.04355,0.37814 2.73868,0.40448c0.69437,0.02631 1.95685,0.02084 2.71735,0.02084c0.79465,0 1.78265,0 2.76797,0c0.72534,0 1.71469,0 2.51468,0c1,0 1.79999,-0.0018 2.60001,0c0.99548,0.00226 1.93259,0.04309 2.77466,0.42532c0.81125,0.36826 1.64603,0.56424 2.62534,0.57468c0.78931,0.00839 1.83334,0 2.52084,0c1.02182,0 1.72983,0 2.47382,0c1.19101,0 2.1055,0 2.89069,0c0.94,0 1.94806,0.00864 2.70398,0c0.91086,-0.01044 1.61395,-0.54318 2.51068,-0.87851c0.85065,-0.31808 1.72537,0.08383 2.54282,-0.12149c0.87289,-0.21927 1.55417,-0.95728 2.45718,-1c0.89899,-0.04251 1.70016,0.01874 2.60001,0c0.86453,-0.01801 1.29773,-0.7045 1.29999,-1.60001c0.00226,-0.89999 0,-1.82132 0,-2.73334c0,-0.681 0,-1.48798 0,-2.66666c0,-0.89551 0,-1.47916 0,-2.31467c0,-1.23715 0,-1.94666 0,-3.01868c0,-0.63599 0,-1.6875 0,-2.41849c0,-1.08151 0,-2.091 0,-2.72733c0,-0.91953 0,-1.82068 0,-2.71017c0,-0.85352 0.03278,-1.89069 -0.02084,-2.81067c-0.03998,-0.68585 -0.27249,-1.68573 -0.47916,-2.5625c-0.15433,-0.65472 -0.35062,-1.76935 -0.41467,-2.6055c-0.06754,-0.88144 -0.07697,-1.78131 -0.08084,-2.22665c-0.01108,-1.27197 0.01392,-2.03522 -0.02533,-3.06369c-0.02417,-0.63324 -0.19101,-1.84384 -0.40448,-2.74167c-0.14301,-0.60153 -0.42703,-1.79773 -0.48935,-2.39999c-0.0929,-0.89752 -0.07947,-1.80002 -0.08548,-2.69998c-0.00601,-0.90005 -0.02075,-1.80518 -0.1665,-2.70001c-0.14914,-0.91577 -0.36902,-1.53482 -0.54935,-2.57068c-0.20291,-1.16568 -0.21088,-1.59671 -0.24799,-2.47998c-0.03775,-0.89825 -0.03177,-1.78134 -0.03616,-3.00635c-0.00262,-0.72867 -0.00992,-1.72427 -0.08517,-2.34033c-0.14795,-1.21127 -0.36285,-1.80826 -0.56201,-2.75983c-0.21027,-1.00473 -0.28156,-1.72601 -0.31665,-2.46817c-0.05304,-1.12119 -0.03601,-2.20801 -0.03601,-2.88934c0,-0.96448 0,-1.58081 0,-2.78516c0,-0.8895 0,-1.46417 0,-2.77884c0,-0.69598 0,-1.60532 0,-2.60532c0,-0.81601 -0.0199,-1.63223 0.00134,-2.62933c0.01791,-0.84052 0.30594,-1.6268 0.646,-2.49652c0.3627,-0.92767 0.34048,-1.71085 0.35132,-2.50748c0.01355,-0.99725 -0.0387,-1.88898 0.22269,-2.88251c0.15872,-0.60327 0.68497,-1.62207 0.76797,-2.3895c0.09567,-0.88474 -0.07471,-0.93314 0.29468,-0.21066c0.4418,0.86404 0.81012,1.59409 1.216,2.29999c0.45883,0.798 0.65552,1.67126 1.02084,2.54166c0.27222,0.64856 0.68527,1.64151 0.97916,2.47919c0.20425,0.58218 0.59998,1.77914 0.79999,2.37915c0.29999,0.89999 0.49747,1.50085 0.90134,2.70267c0.20804,0.61911 0.43002,1.27103 0.68402,1.96802c0.42816,1.17487 0.76715,2.03473 1.11465,2.92932c0.17456,0.44937 0.52826,1.32745 0.97833,2.55716c0.2673,0.73038 0.52594,1.41144 0.73502,2.42551c0.2124,1.03024 0.23465,1.77444 0.28665,2.53818c0.05334,0.7836 0.1543,1.98108 0.284,2.77783c0.12906,0.79276 0.3074,1.56238 0.43201,2.31598c0.23114,1.39789 0.25601,2.07089 0.30933,2.74667c0.05588,0.70822 0.18985,1.88214 0.32733,2.7395c0.14102,0.87936 0.31406,1.73373 0.48068,2.89917c0.09207,0.64389 0.16132,1.70398 0.16666,2.66666c0.00439,0.7905 0,1.64401 0,2.23468c0,1.19598 0,2.05701 0,2.828c0,1.10931 0,2.09216 0,2.7915c0,0.97916 0,1.77914 0,2.57916c0,1 0.02097,1.80023 -0.00134,2.79999c-0.01788,0.80057 -0.18872,1.8125 -0.5195,2.60001c-0.2565,0.61066 -0.77917,1.60001 -1.17917,2.39999c-0.40002,0.80002 -0.80051,1.59973 -1.09998,2.20001c-0.50089,1.00406 -0.82022,1.62756 -1.20001,2.56665c-0.31699,0.78384 -0.6011,1.64365 -0.79999,2.23468c-0.40222,1.19525 -0.5643,1.79153 -0.90002,2.58432c-0.45154,1.06622 -1.05539,1.73267 -1.24283,2.66702c-0.13702,0.68301 -0.05716,1.72198 -0.05716,2.66864c0,0.85333 0,1.79333 0,2.67868c0,0.79999 0.22577,1.54324 0.87866,2.22134c0.5575,0.57904 1.32135,0.77866 2.22134,0.77866c0.89999,0 1.66617,0.03104 2.55716,0.35266c0.75562,0.27277 1.74533,0.55481 2.57883,0.67267c0.93207,0.13181 1.71405,0.33728 2.53867,0.54935c1.05548,0.27145 1.77161,0.38837 2.45068,0.41464c1.19513,0.04626 2,0.01068 2.82199,0.01068c1.03116,0 1.71667,0 2.55133,0c0.99683,0 1.91602,0 2.88049,0c0.82983,0 1.85419,0 2.52618,0c0.74399,0 1.85165,0 2.79199,0c0.87466,0 1.74533,0 2.45334,0c0.98132,0 1.93948,0 2.91599,0c0.83334,0 1.81201,0 2.586,0c0.90451,0 1.65186,0 2.64603,0c0.94415,0 1.84415,0 2.79999,0.00134l0.716,0.28131l0.08533,-0.08533" id="svg_22" stroke-width="2" stroke="#000" fill="none"/>
  <path t="49161,49209,49216,49216,49233,49248,49264,49264,49264,49281,49282,49298,49298,49298,49298,49298,49314,49314,49314,49332,49332,49332,49332,49332,49348,49348,49348,49348,49348,49364,49364,49364,49364,49364,49364,49381,49381,49381,49381,49381,49398,49398,49398,49398,49398,49414,49414,49414,49414,49414,49431,49431,49431,49431,49432,49448,49448,49448,49448,49448,49464,49464,49464,49464,49464,49464,49481,49481,49481,49481,49481,49482,49498,49498,49498,49498,49499,49514,49514,49514,49514,49514,49515,49531,49531,49531,49531,49531,49532,49532,49532,49548,49548,49548,49548,49549,49549,49549,49564,49564,49564,49564,49564,49565,49565,49581,49581,49581,49582,49582,49582,49582,49598,49598,49598,49599,49599,49599,49599,49599,49599,49614,49614,49614,49614,49615,49615,49615,49631,49631,49631,49632,49632,49632,49648,49648,49648,49648,49649,49649,49649,49664,49664,49664,49665,49665,49665,49665,49665,49681,49681,49682,49682,49682,49682,49682,49699,49699,49699,49699,49699,49714,49714,49715,49715,49715,49732,49732,49732,49732,49732,49748,49748,49748,49749,49749,49764,49764,49765,49765,49765,49765,49765,49781,49781,49782,49782,49782,49782,49799,49799,49799,49799,49799,49815,49815,49815,49815,49815,49832,49832,49832,49832,49833,49833,49849,49849,49849,49849,49849,49849,49865,49865,49865,49865,49865,49886,49886,49886,49886,49887,49899,49899,49899,49899,49900,49900,49914,49914,49915,49915,49915,49931,49931,49932,49932,49948,49948,49948,49948,49949,49964,49964,49964,49964,49964,49981,49981,49981,49981,49981,49998,49998,49998,49998,49998,49999,50014,50014,50014,50014,50014,50031,50031,50031,50048,50048,50049,50049,50049,50064,50064,50064,50064,50081,50081,50081,50081,50082,50098,50098,50098,50098,50114,50114,50114,50114,50131,50131,50148,50148,50148,50165,50166,50166,50181,50181,50198,50198,50198,50214,50231,50231,50248,50248,50315" d="m470,170c0.87866,1.2215 1.2897,2.0569 1.64734,2.7c0.47443,0.85312 0.75146,1.57498 1.35266,2.46667c0.43079,0.63895 0.76758,1.37271 1.30899,2.08966c0.47769,0.63254 1.24036,1.50293 1.69635,2.11067c0.50208,0.66916 1.00034,1.38234 1.22665,1.75166c0.84033,1.37132 1.10287,2.04703 1.38266,2.67067c0.54465,1.21399 0.86533,1.81509 1.22134,2.42133c0.36917,0.6286 0.78128,1.26561 1.36401,2.31117c0.41138,0.7381 0.80914,1.53645 1.19998,2.397c0.20483,0.451 0.80267,1.92276 0.99869,2.44916c0.19971,0.53627 0.58359,1.63097 0.76532,2.18134c0.35681,1.08066 0.67191,2.11659 0.952,3.08c0.26105,0.89798 0.36932,1.33359 0.63666,2.16167c0.39258,1.21613 0.728,2.01044 1.07269,2.80901c0.34595,0.80145 0.54922,1.18932 1.008,2.39999c0.30066,0.79341 0.53769,1.60115 0.79199,2.39999c0.25504,0.80116 0.69327,2.00105 1.02283,2.8c0.16522,0.40054 0.52448,1.18842 0.7825,2c0.37692,1.18552 0.46637,2.00871 0.56934,2.84167c0.10785,0.87236 0.1304,1.33652 0.44284,2.80116c0.11298,0.52957 0.41653,1.61906 0.578,2.17799c0.32706,1.13216 0.5083,1.69322 0.8125,2.8125c0.29269,1.07697 0.41391,1.60399 0.64581,2.625c0.1123,0.49452 0.31647,1.45567 0.62067,2.82034c0.19373,0.86911 0.30179,1.29356 0.46417,2.14667c0.16302,0.8564 0.32288,2.19609 0.38333,3.14532c0.03165,0.49707 0.07666,1.54807 0.10535,2.10533c0.02994,0.58142 0.16586,2.48845 0.23267,3.17734c0.06879,0.70947 0.1485,1.43359 0.2355,2.1675c0.08765,0.73943 0.18124,1.47865 0.28049,2.21251c0.19394,1.43398 0.39761,2.79616 0.49866,3.45233c0.09894,0.6425 0.19843,1.27292 0.40002,2.50533c0.09921,0.60646 0.30096,1.80885 0.39981,2.40901c0.1976,1.19968 0.29343,1.79941 0.37933,2.39999c0.17148,1.19891 0.25421,1.79828 0.35419,3c0.10007,1.20261 0.11392,1.81339 0.13065,2.43201c0.03448,1.27579 0.03278,1.93948 0.03467,2.62399c0.004,1.444 0.00055,2.20801 0.00269,2.996c0.00217,0.806 0.00684,1.62402 0.0195,2.448c0.01266,0.82404 0.0293,1.64227 0.06448,2.448c0.06781,1.55264 0.13174,2.28772 0.19867,2.99466c0.06454,0.68173 0.21591,1.974 0.29068,2.58936c0.07257,0.59732 0.26379,2.30093 0.30399,2.84665c0.07867,1.06796 0.09412,1.5961 0.14667,2.64667c0.0264,0.5274 0.13687,2.14178 0.19601,2.6965c0.12213,1.14536 0.20486,1.73538 0.27866,2.34067c0.07559,0.62006 0.23123,1.90826 0.33334,3.27084c0.0531,0.70862 0.0849,1.4332 0.1095,2.16748c0.02475,0.73904 0.039,1.4783 0.04648,2.21252c0.01459,1.43329 0.01068,2.78665 0.01068,3.42215c0,0.60849 0,1.7565 0,2.302c0,1.04901 0,1.5585 0,3.06235c0,0.99567 0,1.48947 0,2.46414c0,0.95068 0,1.86935 0,2.75201c0,0.85867 0,1.70932 0,2.56799c0,1.33734 0,1.80002 0,2.74133c0,0.94934 0,1.422 0,2.80801c0,0.88531 0,1.76266 0,2.20831c0,0.92535 0,2.45834 0,3.02252c0,0.58914 0,1.82248 0,2.45667c0,0.63916 0,1.27832 0,3.14581c0,0.59018 0,1.71451 0,2.25067c0,1.02533 0,1.51651 0,2.91602c0,0.88132 0,1.73065 0,2.556c0,0.80933 0.00562,2.01105 -0.00449,2.81967c-0.01041,0.83273 -0.01477,1.26404 -0.08084,2.16165c-0.10852,1.47446 -0.1965,1.99893 -0.34,3.09067c-0.07358,0.55966 -0.16037,1.12268 -0.29068,2.25601c-0.12817,1.11481 -0.20349,2.19708 -0.22684,2.72549c-0.04578,1.03595 -0.05066,1.54645 -0.05582,2.55582c-0.00769,1.50116 0.00552,2.00012 -0.01202,2.99066c-0.01727,0.97485 -0.0094,1.45694 -0.15598,2.84402c-0.09372,0.88681 -0.25989,1.75177 -0.33334,2.1875c-0.14981,0.88855 -0.34048,2.31192 -0.37851,2.82184c-0.07919,1.06165 -0.09189,1.60785 -0.11081,2.70667c-0.00937,0.54529 -0.01068,2.11731 -0.01068,2.60748c0,0.92435 0,1.78067 0,2.577c0,1.09952 -0.00494,2.11832 0.02084,2.78702c0.02658,0.68945 0.13483,1.81415 0.2645,2.6485c0.13892,0.89389 0.32248,1.81656 0.41916,2.2825c0.28705,1.38327 0.49939,2.26166 0.68484,3.11215c0.17972,0.82425 0.35596,1.63089 0.48932,2.83633c0.08923,0.80667 0.09357,1.22116 0.14667,2.07166c0.05612,0.89883 0.19308,2.37106 0.25867,2.89603c0.13531,1.0834 0.21747,1.63181 0.29068,2.18134c0.1442,1.08228 0.3071,2.60724 0.34131,3.07864c0.06454,0.88895 0.08939,1.71646 0.16803,2.48401c0.10959,1.06989 0.35275,2.06012 0.49066,2.71335c0.28217,1.33655 0.34558,2.05832 0.39999,2.79999c0.05496,0.74902 0.05405,1.49973 0.31067,2.892c0.12411,0.67343 0.33026,1.34268 0.51599,2.052c0.3067,1.17139 0.5025,2.03885 0.67783,2.95151c0.08908,0.46368 0.26627,1.39313 0.39935,2.75748c0.08374,0.85834 0.10724,1.6799 0.117,2.46002c0.01373,1.09491 -0.01999,1.77588 0.02533,2.72c0.04111,0.85641 0.26273,1.85648 0.47916,2.52081c0.33267,1.02106 0.44272,1.83609 0.58401,2.70618c0.16327,1.00531 0.43085,1.81088 0.56332,2.362c0.3028,1.25961 0.2742,1.94778 0.51932,2.95267c0.19684,0.80698 0.55795,1.51224 0.83334,2.5c0.22849,0.81955 0.5,1.52084 0.83334,2.5l0.13065,0.78934l0.03601,1.04401" id="svg_23" stroke-width="2" stroke="#000" fill="none"/>
 </g>
 <g display="none">
  <title>muse_image</title>
  <image xlink:href="http://farm1.static.flickr.com/54/184549563_d043ddf94a.jpg" id="muse" height="480" width="640" y="0" x="0"/>
 </g>
 <g display="none">
  <title>bbox</title>
  <rect stroke="#f00" fill="none" stroke-width="3" height="424.96" width="367.36" y="44.8" x="143.36" id="bbox"/>
 </g>
</svg>
