<svg width="640" height="480" xmlns="http://www.w3.org/2000/svg" xmlns:svg="http://www.w3.org/2000/svg" xmlns:xlink="http://www.w3.org/1999/xlink">
 <!-- Sketchy ANNOTATION
  ImageNet ID: n02503517_9237
  URL: http://static.flickr.com/45/164321329_eecf2ca755.jpg
  Image Width: 500
  Image Height: 375
  BBox X: 187
  BBox Y: 151
  BBox Width: 158
  BBox Height: 224
  Exposure: 2000ms
  Synset Label: elephant
  Synset ID: n02503517
  Worker Tag: Baby elephant
  Sanity Check: (none)
  Comment: 
   {}
  Worker ID: A1AYFPD1RFW8P5
  Assignment ID: 3T3IWE1XG6NUGNWE7WLOOF59LWPQT1
  HIT ID: 3FCO4VKOZ4DGY2B8V0IL0ITS8Q2E72
  Work Time: 226s
  Worker Score: 0.7143
 END ANNOTATION -->
 <g display="inline">
  <title>Layer 1</title>
  <path t="56155,56186,56186,56186,56194,56225,56250,56279,56298,56298,56314,56346,56370,56386,56402,56418,56441,56450,56466,56482,56499,56514,56529,56546,56562,56562,56579,56602,56618,56642,56665,56679,56696,56714,56730,56730,56746,56777,56796,56818,56818,56829,56846,56877,56896,56913,56929,56946,56970,56970,56986,56986,56996,57012,57029,57046,57063,57064,57080,57097,57113,57130,57146,57164,57188,57213,57236,57257,57282,57307,57307,57328,57355,57377,57400,57423,57450,57471,57496,57538,57553,57554,57586,57602,57626,57659,57660,57683,57697,57730,57777,57793,57827,57827,57851,57866,57897,57922,57939,57961,57962,57978,58022,58041,58058,58077,58100,58125,58147,58147,58171,58194,58195,58195,58217,58243,58243,58266,58266,58288,58311,58311,58334,58335,58361,58361,58383,58383,58406,58406,58430,58430,58453,58453,58478,58502,58502,58502,58525,58525,58550,58580,58581,58581,58606,58631,58631,58653,58653,58653,58677,58677,58701,58701,58726,58726,58768,58768,58782,58782,58806,58806,58829,58829,58852,58853,58877,58877,58901,58926,58926,58950,58951,58951,58973,58973,58997,59022,59022,59045,59045,59045,59070,59070,59070,59093,59093,59119,59120,59120,59141,59141,59165,59189,59190,59190,59213,59213,59213,59237,59238,59238,59261,59261,59261,59288,59288,59311,59311,59312,59338,59338,59338,59361,59362,59389,59390,59390,59390,59415,59415,59439,59439,59440,59465,59465,59465,59490,59490,59491,59515,59515,59538,59538,59577,59578,59591,59591,59591,59614,59614,59641,59641,59642,59663,59664,59689,59689,59713,59714,59738,59739,59739,59764,59764,59764,59788,59788,59788,59813,59838,59839,59839,59863,59863,59888,59888,59913,59914,59914,59938,59938,59962,59963,59963,59988,59988,60013,60013,60038,60038,60063,60063,60087,60087,60114,60114,60138,60138,60164,60164,60165,60165,60188,60188,60215,60215,60238,60238,60238,60266,60267,60267,60288,60289,60289,60316,60317,60338,60338,60363,60363,60363,60388,60388,60412,60412,60413,60437,60437,60462,60463,60487,60488,60513,60513,60539,60539,60539,60563,60563,60589,60589,60614,60614,60614,60642,60643,60643,60665,60665,60665,60666,60691,60691,60691,60715,60715,60742,60743,60767,60767,60767,60792,60793,60817,60818,60842,60843,60867,60868,60868,60892,60918,60918,60918,60943,60944,60968,60969,60994,60994,61019,61020,61020,61045,61045,61046,61074,61074,61097,61097,61125,61125,61126,61126,61148,61149,61177,61177,61177,61199,61200,61201,61224,61225,61250,61250,61277,61277,61278,61302,61302,61328,61329,61351,61352,61378,61378,61379,61404,61404,61429,61455,61480,61481,61506,61507,61532,61532,61557,61557,61583,61583,61609,61637,61665,61690,61690,61716,61740,61766,61767,61793,61793,61818,61843,61844,61869,61869,61894,61895,61921,61921,61946,61946,61971,62009,62073,62089,62161,62217,62249,62281,62297,62322,62323,62348,62374,62402,62402,62428,62475,62481,62513,62514,62532,62580,62595,62628,62648,62649,62676,62677,62724,62737,62769,62810,62833,62897,62937,62945,63009,63049,63081,63081,63097,63121,63138,63165,63190,63422,63458,63489,63510,63510,63539,63570,63592,63620,63650,63681,63682,63702,63753,63763,63793,63817,63849,63881,63916,63916,63954,63993,64002,64058,64073,64074,64105,64122,64169,64193,64218,64265,64302,64312,64345,64370,64370,64399,64429,64429,64457,64458,64458,64486,64514,64514,64543,64572,64572,64600,64601,64633,64657,64685,64711,64737,64738,64766,64791,64820,64820,64846,64846,64889,64905,64949,64969,64970,64993,65019,65044,65070,65105,65129,65161,65177,65205,65233,65279,65290,65313,65340,65367,65393,65393,65419,65446,65446,65475,65475,65499,65526,65527,65554,65580,65580,65581,65606,65633,65634,65660,65661,65687,65688,65715,65743,65755,65756,65770,65771,65797,65824,65827,65851,65879,65879,65905,65931,65931,65958,65959,65984,66011,66041,66042,66073,66074,66092,66119,66149,66173,66174,66201,66201,66228,66254,66255,66283,66309,66310,66337,66338,66363,66391,66391,66419,66419,66445,66446,66473,66501,66502,66527,66528,66529,66554,66580,66580,66608,66609,66609,66636,66637,66661,66662,66689,66689,66690,66716,66717,66717,66745,66746,66773,66773,66799,66800,66801,66827,66827,66828,66856,66856,66881,66908,66908,66909,66934,66935,66962,66991,66991,67015,67043,67044,67078,67102,67102,67130,67159,67160,67185,67212,67238,67783,67826,67835,67897,67945,67946,67970,67979,68006,68037,68063,68090,68116,68116,68143,68144,68193,68194,68199,68228,68228,68256,68257,68283,68284,68311,68312,68313,68313,68340,68341,68341,68369,68370,68370,68397,68397,68398,68398,68426,68427,68427,68452,68452,68453,68479,68480,68480,68508,68509,68509,68535,68535,68562,68563,68563,68589,68593,68593,68618,68618,68619,68646,68646,68647,68672,68673,68673,68700,68701,68730,68731,68757,68784,68784,68785,68812,68813,68813,68850,68851,68874,68874,68897,68898,68924,68952,68981,68982,69006,69007,69035,69035,69062,69062,69091,69118,69146,69147,69173,69174,69174,69200,69202,69228,69228,69256,69257,69258,69285,69286,69312,69313,69362,69379,69407,69408,69437,69462,69490,69520" d="m372.51135,29.09091c-5.42667,0.284 -6.10745,0.42229 -6.97665,0.64733c-0.88095,0.22808 -1.96478,0.00041 -2.67065,0.40983c-0.80783,0.46857 -1.35269,0.94283 -2.15268,0.94283c-0.89999,0 -1.79999,0 -2.70001,0c-0.89999,0 -1.79999,0 -2.69998,0c-0.89984,0 -1.77509,-0.02625 -2.60135,0c-0.90002,0.0286 -1.62103,0.68619 -2.49866,0.94283c-0.86557,0.25312 -1.79999,0.05717 -2.70001,0.05717c-0.79999,0 -1.7124,0.03444 -2.39999,0.42533c-0.81424,0.46291 -1.59769,0.77335 -2.3045,1.222c-0.72772,0.46191 -1.74258,0.25867 -2.59549,0.70533c-0.75223,0.39395 -1.63058,0.25375 -2.41467,0.73267c-0.80328,0.49065 -1.43878,0.7333 -2.28534,1.08133c-0.67105,0.27589 -1.70428,0.69438 -1.98932,1.408c-0.34344,0.85982 -0.60925,1.43444 -1.06332,2.12983c-0.49487,0.75789 -1.26917,1.18346 -2.11401,1.46217c-0.67578,0.22292 -1.75314,0.74119 -2.29166,1.33334c-0.56195,0.61792 -1.03024,1.312 -1.51633,1.936c-0.57813,0.74217 -1.07178,1.28064 -1.82535,1.648c-0.83411,0.40662 -1.18134,1.31547 -1.20001,2.216c-0.01862,0.89848 -0.36981,1.6258 -0.97464,2.12533c-0.65543,0.54133 -1.59149,0.52553 -2.05069,1.18533c-0.50549,0.72631 -0.77466,1.63542 -1.14133,2.38934c-0.3714,0.76361 -0.76804,1.5321 -1.186,2.3c-0.45767,0.84081 -1.15512,1.30865 -1.59015,2.05717c-0.4245,0.73038 0.24734,1.92651 -0.34119,2.5575c-0.53143,0.56975 -1.01682,1.13617 -1.36331,1.78534c-0.45334,0.84938 -0.29977,1.83473 -0.70535,2.59999c-0.4483,0.84589 -0.64667,1.5 -0.64734,2.53334c-0.00052,0.77733 0.15796,1.74705 -0.01065,2.60266c-0.17966,0.9117 -0.9043,1.55139 -0.98801,2.364c-0.09222,0.89526 0.00061,1.81961 -0.42667,2.60001c-0.45038,0.82256 -0.57468,1.7 -0.57468,2.6c0,0.8 0.01321,1.72263 -0.42532,2.436c-0.47516,0.7729 -0.33041,1.79615 -0.85867,2.48c-0.48471,0.62748 -0.5611,1.44547 -0.9375,2.184c-0.34976,0.68626 -1.15314,1.34843 -1.94516,1.9c-0.63239,0.44038 -1.39352,0.74196 -2.19733,1.4c-0.67654,0.55388 -1.23599,1.19999 -1.936,1.89999c-0.5,0.5 -1.18661,1.21371 -1.80017,1.8c-0.64328,0.61469 -1.39249,1.08541 -2.07449,1.5c-0.95389,0.57986 -1.55984,1.12768 -2.30933,1.6c-0.67523,0.42553 -1.51727,0.8734 -2.10535,1.4c-0.74548,0.66759 -1.26733,1.24745 -2.06332,1.6955c-0.83633,0.47076 -1.77026,0.59604 -2.51401,1.03783c-0.72733,0.43203 -1.16895,1.11628 -2.23199,1.49599c-0.73431,0.26229 -1.74356,0.05147 -2.76801,0.33733c-0.68542,0.19126 -1.32388,0.67366 -2.20801,1.22267c-0.77133,0.47898 -1.66263,0.53283 -2.62534,0.77733c-0.80832,0.20529 -1.34384,0.53625 -2.24731,1.12884c-0.63739,0.41805 -1.59686,0.63226 -2.354,0.7885c-1.0043,0.20724 -1.68207,0.56792 -2.73199,1.08266c-0.68604,0.33634 -1.4892,0.7384 -2.29199,0.82267c-1.02634,0.10773 -1.79727,-0.00049 -2.77335,0.29466c-0.78363,0.23696 -1.57443,0.64865 -2.48532,0.71467c-0.93896,0.06805 -1.63901,0.07044 -2.61603,0.50134c-0.82764,0.36501 -1.53537,0.42992 -2.5,0.66666c-0.81653,0.20039 -1.58551,0.62642 -2.59549,0.77617c-0.74106,0.10988 -1.77927,0.04327 -2.726,0.05733c-0.69955,0.0104 -1.68138,0.15763 -2.48917,0.42516c-0.6489,0.2149 -1.87222,0.50358 -2.41467,0.53867c-0.82088,0.05309 -2.08932,0.036 -2.75383,0.036c-1.02083,0 -1.83,-0.0567 -2.62083,0.08533c-1.01454,0.18221 -1.73076,0.60119 -2.64732,0.862c-0.90906,0.25867 -1.59375,0.50178 -2.43933,0.854c-0.99104,0.41281 -1.80826,0.69592 -2.36067,0.8415c-1.02303,0.26961 -1.95638,0.33108 -2.63667,0.44117c-1.00697,0.16296 -1.82289,0.41751 -2.63199,0.71733c-1.00784,0.37347 -1.63969,0.75459 -2.68401,1.03201c-0.79715,0.21175 -1.70457,0.28896 -2.42117,0.6095c-0.81891,0.36629 -1.58676,0.88512 -2.43616,1.53584c-0.65692,0.50326 -1.4709,1.19512 -1.91068,1.504c-0.7238,0.50836 -1.46825,0.9394 -2.42216,1.4165c-0.69566,0.34793 -1.29265,0.9562 -1.83066,1.62167c-0.5778,0.71468 -1.36816,1.52493 -1.97917,1.95833c-0.58977,0.41833 -1.42072,0.98321 -1.97917,1.54167c-0.55844,0.55845 -1.25697,1.57879 -1.61017,2.14317c-0.5994,0.95781 -1.10953,1.53262 -1.71967,2.145c-0.66045,0.66289 -1.2401,1.2272 -1.931,1.94167c-0.47794,0.49423 -1.35582,1.36789 -1.66266,2.09866c-0.39441,0.93935 -0.42752,1.66573 -0.70801,2.39999c-0.35561,0.93094 -0.91829,1.70969 -1.38933,2.41734c-0.42699,0.64149 -1.05009,1.63454 -1.38933,2.21866c-0.52571,0.90524 -0.5728,1.62358 -0.60001,2.40001c-0.0367,1.04739 -0.01067,1.98932 -0.01067,2.66733c0,1.23 0.00177,2.0265 0,2.778c-0.00226,0.95952 -0.16862,1.93526 -0.42534,2.60533c-0.29289,0.76448 -0.48358,1.77002 -0.62733,2.564c-0.18286,1.00998 -0.58299,1.78279 -0.78065,2.60001c-0.19057,0.78789 -0.166,1.60001 -0.16667,2.60449c-0.00056,0.85268 0,1.81668 0,2.61017c0,1.01601 -0.00168,1.98001 0,2.75334c0.00226,1.03732 -0.07637,1.8045 0.16667,2.69867c0.23036,0.84747 0.76166,1.64966 0.82266,2.508c0.06674,0.93904 0.08653,1.71277 0.436,2.66133c0.28302,0.76819 0.48749,1.56708 0.59999,2.436c0.13747,1.06183 0.23315,1.70009 0.4955,2.68633c0.16672,0.62677 0.677,1.70781 1.3645,2.207c0.76347,0.55435 1.32831,1.02464 1.948,1.83467c0.44293,0.57898 0.88365,1.42661 1.48817,2.2c0.48676,0.62273 1.08186,1.20113 1.87833,1.99983c0.58867,0.59033 1.13405,1.15208 1.77884,1.77867c0.63794,0.61993 1.50099,1.23187 2.04216,1.5215c0.96936,0.51878 1.77942,0.89952 2.37917,1.2c0.99907,0.50055 1.66095,0.72498 2.43333,1.46667c0.61496,0.59052 0.9987,1.4064 1.65067,1.948c0.64464,0.53552 1.64877,1.06505 2.2115,1.58533c0.63007,0.58253 1.16937,1.2066 1.96167,1.94817c0.53995,0.50539 1.32474,1.07906 2.14284,1.2905c0.787,0.2034 1.78996,0.44284 2.59999,0.70868c0.79121,0.25966 1.59984,0.34224 2.60001,0.35266c0.81062,0.00844 1.68533,0 2.68666,0c0.85501,0 1.47501,0 2.8345,0c0.72701,0 1.45801,0 2.16901,0c1.26683,0 2.03783,0 2.90717,0c1.00267,0 1.80289,0.02011 2.804,-0.00133c0.83519,-0.0179 1.76923,-0.1497 2.54683,-0.35133c0.7948,-0.20609 1.7095,-0.55182 2.6665,-0.63667c0.86734,-0.0769 1.61568,0.03796 2.58533,-0.23216c0.82283,-0.22923 1.79628,-0.78613 2.39551,-1.07401c0.74283,-0.35686 1.79785,-0.64311 2.73782,-0.87117c0.67877,-0.16469 1.44785,-0.37624 2.33334,-0.83333c0.84775,-0.43759 1.47803,-1.03984 2.15866,-1.38933c0.97983,-0.50313 1.72806,-0.55997 2.71735,-1.05351c0.73593,-0.36714 1.22174,-0.72166 2.12399,-1.39049c0.69461,-0.51491 1.27771,-1.01799 2.33865,-1.46217c0.72961,-0.30547 1.67618,-0.48105 2.49466,-0.72533c0.85284,-0.25453 1.51175,-0.68596 2.28534,-1.16451c0.53333,-0.32991 1.52396,-0.93932 2.19385,-1.29384c1.01291,-0.53604 1.64432,-0.78609 2.42084,-1.278c0.82693,-0.52383 1.41776,-1.05246 1.94281,-1.64732c0.67377,-0.76334 1.08151,-1.61063 1.65717,-2.42883c0.47742,-0.67857 1.33429,-1.24664 2,-1.6875c0.52673,-0.34883 1.24173,-1.13258 1.69553,-1.82651c0.50323,-0.76949 1.04535,-1.37953 1.60449,-2.30983c0.32431,-0.5396 0.79999,-1.54283 1.19998,-2.34283c0.30002,-0.60001 0.82367,-1.57762 1.14285,-2.28568c0.39096,-0.86732 0.32205,-1.73581 0.35733,-2.69299c0.02859,-0.77557 0.39526,-1.66302 0.64716,-2.42583c0.32321,-0.97878 0.34732,-1.79546 0.35266,-2.79533c0.00415,-0.77933 0,-1.77867 0,-2.59883c0,-0.90134 0,-1.80135 0,-2.72217c0,-0.96317 0,-1.65384 0,-2.722c0,-0.85718 0,-1.75717 0,-2.51434c0,-0.89549 0.17462,-1.77864 -0.02081,-2.722c-0.18082,-0.8727 -0.80048,-1.39375 -1.37918,-2.34616c-0.41446,-0.68208 -0.85571,-1.47342 -1.48532,-1.97333c-0.71783,-0.56996 -1.50693,-0.8392 -2.35751,-1.50134c-0.58994,-0.45923 -1.19745,-1.2242 -1.7045,-1.9955c-0.45486,-0.69193 -1.42877,-0.61349 -2.03183,-1.2045c-0.44766,-0.43872 -1.32083,-0.5 -2.22083,-0.5c-0.89999,0 -1.80002,0 -2.60001,0c-0.89999,0 -1.72083,0 -2.68399,0c-0.86334,0 -1.75433,0 -2.68268,0c-0.93332,0 -1.83334,0 -2.63333,0c-0.84283,0 -1.74155,-0.18069 -2.70001,0.02083c-0.84753,0.17819 -1.50485,0.79636 -2.25714,1.03185c-0.89725,0.28087 -1.68774,0.65079 -2.24734,1.29999c-0.53006,0.61493 -1.39252,0.64854 -1.99551,1.14734c-0.65585,0.54251 -1.28299,1.17119 -1.87866,1.72133c-0.63696,0.58826 -0.96082,1.28822 -1.47849,2.07867c-0.52069,0.79506 -1.14285,1.20001 -1.84149,1.89867c-0.63466,0.63467 -1.56075,0.752 -1.79684,1.50583c-0.26793,0.85545 -0.89311,1.73112 -0.59016,2.591c0.29907,0.84886 1.58566,0.7045 2.38567,0.7045c0.89999,0 1.80002,0.00533 2.69998,0c0.90009,-0.00534 1.61182,-0.44234 2.5,-0.83333c0.65765,-0.28951 1.33884,-0.45885 2,-1c0.56024,-0.45856 1.61963,-0.16472 2.40002,-0.59201c0.82254,-0.45038 1.69998,-0.57466 2.59998,-0.57466c0.80002,0 1.79691,-0.36317 2.56403,0.036c0.75937,0.39514 1.35223,1.11832 1.43597,1.964c0.07883,0.79611 -0.18375,1.7265 0.03601,2.60001c0.21707,0.86281 0.92126,1.59697 0.96399,2.5c0.04251,0.89899 0,1.77866 0,2.60449c0,0.9315 0.00217,1.7795 0,2.64284c-0.00226,0.89551 -0.26611,1.87224 -0.76166,2.40984c-0.69452,0.75343 -1.23834,1.24283 -1.75433,1.75883c-0.84799,0.84799 -1.40985,1.57512 -2.08398,2.04799c-0.74399,0.52187 -1.71854,0.66426 -2.40002,0.936c-0.97458,0.38861 -1.83203,0.377 -2.47916,1.02083c-0.64166,0.6384 -0.9964,1.37387 -1.82083,1.83183c-0.74231,0.41235 -1.48965,0.74927 -2.20001,1.14734c-0.88763,0.49741 -1.64529,0.88913 -2.38531,1.216c-0.89182,0.39392 -1.65021,0.32541 -2.59384,0.784c-0.83528,0.40593 -1.6875,0.5 -2.52083,0.5c-0.8,0 -1.7,0 -2.60001,0c-0.89999,0 -1.79999,0 -2.7,0c-0.89999,0 -1.80685,0.11078 -2.7,0c-0.89906,-0.11151 -1.21989,-0.7484 -1.916,-1.284c-0.62842,-0.48352 -1.43411,-0.64305 -2.05867,-1.14134c-0.63106,-0.50348 -1.40388,-0.69339 -2.164,-1.18533c-0.76392,-0.4944 -1.17589,-1.41621 -1.88216,-1.88933c-0.79262,-0.53096 -1.50281,-0.90959 -2.27467,-1.45183c-0.6237,-0.43814 -0.60884,-1.23813 -0.709,-2.2955c-0.08803,-0.92938 -0.39278,-1.59991 -0.79683,-2.26868c-0.53816,-0.89073 -1.11989,-1.80067 -1.17784,-2.50482c-0.08034,-0.97609 -0.02083,-1.76851 -0.02083,-2.8125c0,-0.75601 0,-1.70834 0,-2.70934c0,-0.70801 0,-1.45201 0,-2.48801c0,-0.85201 -0.02397,-1.79495 0,-2.80266c0.01801,-0.75665 0.4442,-1.55898 1.09984,-2.26668c0.54996,-0.59363 0.86626,-1.42122 0.90149,-2.38399c0.02528,-0.69109 0.35524,-1.5899 0.71468,-2.31467c0.42749,-0.86197 0.84297,-1.69591 1.384,-2.52267c0.43135,-0.65918 0.80017,-1.60706 1.39999,-2.13699c0.6998,-0.61826 1.28152,-1.07608 1.94667,-1.51634c0.75784,-0.50162 1.59998,-0.47375 2.53183,-1.12534c0.64691,-0.45233 1.36166,-1.0058 1.85483,-1.89999c0.36575,-0.66318 1.07127,-1.03815 1.81934,-1.35716c0.71442,-0.30467 1.59573,-0.93671 2.146,-1.44284c0.72964,-0.67113 1.52533,-1.06432 2.412,-1.22533c0.9922,-0.18018 1.61993,-0.34021 2.62267,-0.97467c0.55618,-0.35191 1.36519,-0.95729 2.33334,-1c0.66867,-0.0295 1.83331,0 2.62265,0c0.72534,0 1.72656,0.03568 2.53217,-0.22133c0.91156,-0.2908 1.67215,-0.65964 2.47852,-0.74268c0.79654,-0.08202 1.79999,-0.036 2.60001,-0.036c1.00131,0 1.836,0 2.76666,0c0.78598,0 1.608,0 2.66666,0c0.93066,0 1.76535,0 2.76666,0c0.80002,0 1.80133,0 2.63602,0c0.93066,0 1.71664,0 2.53867,0c1.05865,0 1.98932,0 2.62082,0c1.00317,0 1.95096,-0.0766 2.85184,0.0045c0.92978,0.08371 1.57037,0.47455 2.354,0.7115c0.97607,0.29515 1.91333,0.28333 2.77335,0.284c0.94666,0.00073 1.79999,0 2.73999,0c0.88531,0 1.65167,0.14798 2.52133,0.57466c0.82065,0.40263 1.5853,0.31898 2.47867,0.70934c0.95474,0.41716 1.58542,0.70334 2.48532,0.716c0.90015,0.01266 1.6033,0.54318 2.5,0.87849c0.85062,0.31808 1.3251,0.53603 1.95718,1.117c0.70547,0.64845 1.63324,0.42854 2.422,1.0045c0.64029,0.46753 1.25208,0.81505 2.12082,1.036c0.86227,0.21931 1.64044,0.77586 2.39999,1.13068c0.6846,0.31981 1.47992,0.78926 2.43069,0.832c0.90173,0.04054 1.75867,-0.08368 2.68399,0.00266c0.89673,0.08366 1.48077,0.70099 2.37067,0.91335c0.89749,0.21417 1.91599,0.08533 2.75067,0.08533c0.93066,0 1.72116,0 2.57465,0c0.59067,0 1.78934,0 2.68933,0c0.60001,0 1.80002,0 2.70001,0c0.60001,0 1.79999,0 2.70001,0c0.59998,0 1.5,0 2.69867,0c0.88049,0 1.44427,0.017 2.71866,-0.00133c0.70367,-0.01012 1.45792,-0.05139 2.64932,-0.28401c0.67722,-0.13223 1.37149,-0.25661 2.53333,-0.71466c0.65369,-0.25772 1.45465,-0.77071 2.26935,-0.916c1.00598,-0.1794 2.07407,-0.21625 2.77798,-0.44116c0.68951,-0.22031 1.61307,-0.66017 2.40533,-0.93834c0.81592,-0.28648 1.87842,-0.55302 2.59467,-0.65182c0.90289,-0.12456 1.87561,-0.26787 2.67801,-0.47801c0.82367,-0.21571 1.85022,-0.48152 2.53867,-0.53867c0.83255,-0.06909 1.836,-0.036 2.63602,-0.036c0.99866,0 1.76398,0 2.716,0c1.05066,0 1.7359,-0.03455 2.57065,0.08533c1.00662,0.14456 1.80698,0.44023 2.62933,0.63068c0.99197,0.22972 1.66302,0.27357 2.68399,0.284c0.97913,0.00999 1.83334,0 2.69553,0c0.90448,0 1.85419,0.07944 2.60898,-0.35716c0.63293,-0.36612 1.36746,-0.91093 2.21152,-1.44284c0.74951,-0.47232 1.34213,-1.04259 2.13666,-1.4955c0.67474,-0.38464 1.67786,-0.7095 2.36816,-1.2045c0.67264,-0.48235 1.44641,-0.50101 2.37784,-1.06934c0.62778,-0.38304 1.11667,-0.94731 1.97601,-1.80533c0.5097,-0.50893 1.29501,-1.26691 1.79999,-1.83601c0.68231,-0.76897 1.05573,-1.39252 1.52084,-2.13216c0.49146,-0.78151 1.04578,-1.38371 1.59998,-2.30534c0.37616,-0.62556 0.7045,-1.63716 0.7045,-2.45183c0,-0.9 0,-1.7 0,-2.60001l0.03601,-0.89999l0.38934,-0.8l0.48932,-0.80133" id="svg_11" stroke-width="2" stroke="#000" fill="none"/>
  <path t="71297,71312,71312,71312,71312,71312,71334,71335,71335,71359,71375,71375,71386,71399,71399,71416,71431,71431,71451,71452,71464,71482,71497,71516,71532,71555,71555,71571,71582,71603,71603,71616,71631,71649,71666,71694,71694,71713,71713,71714,71730,71747,71747,71763,71788,71788,71797,71819,71829,71829,71847,71865,71879,71898,72008,72045,72045,72063,72079,72096,72113,72113,72129,72146,72146,72163,72163,72179,72202,72202,72213,72230,72246,72277,72277,72296,72313,72330,72346,72363,72388,72388,72396,72413,72429,72446,72463,72479,72496,72514,72514,72529,72529,72546,72563,72579,72596,72613,72629,72646,72646,72675,72675,72698,72714,72738,72786,72826,72826,72850,72866,72898,72923,72939,72939,72962,73002,73095,73163" d="m372.51135,135.09091c0,6.59917 0,7.19333 0,8.34666c0,0.54916 -0.00137,1.5675 0,2.82001c0.00067,0.60666 0.07492,1.50175 0.5,2.35416c0.39517,0.79242 0.49466,1.65379 0.5,2.59384c0.005,0.88531 0,1.68533 0,2.6425c0,0.89999 0,1.64732 0,2.64149c0,0.76534 0,1.84416 0,2.70134c0,0.89999 0.07336,1.76483 0.5,2.44167c0.46216,0.73318 0.49466,1.63295 0.5,2.573c0.00558,0.98532 0,1.88533 0,2.68533c0,0.89999 0,1.8 0,2.7c0,0.88933 0.20435,1.8168 0.5,2.54167c0.38321,0.9395 0.47318,1.74728 0.49869,2.47299c0.03461,0.98497 0.24216,1.79886 0.57599,2.66c0.3613,0.93202 0.2572,1.86177 0.51068,2.62534c0.25635,0.77216 0.74561,1.5526 1.19867,2.39999c0.34857,0.65199 0.35074,1.59775 0.75198,2.364c0.39713,0.75835 0.64645,2.0607 1.61133,2.02167c0.68307,-0.02763 0.35266,-1.38567 0.35266,-2.28566c0,-0.90001 0,-1.82083 0,-2.62134c0,-0.85333 0,-1.79333 0,-2.77884c0,-0.78516 0,-1.72516 0,-2.41583c0,-0.98399 0,-1.96799 0,-2.83133c0,-0.89549 0,-1.85133 0,-2.70534c0,-0.94733 0,-1.74733 0,-2.64732c0,-0.90001 0,-1.8 0,-2.7c0,-0.90451 0,-1.76668 0,-2.60001c0,-0.97833 0,-1.83333 0,-2.7045c0,-0.89551 0,-1.7955 0,-2.6955c0,-0.90451 0,-1.76668 0,-2.60001c0,-0.9785 0,-1.79866 0,-2.7c0,-0.90001 0,-1.8 0,-2.7c0,-0.90001 0,-1.8 0,-2.70018c0,-0.78516 0,-1.72516 0,-2.41583c0,-1.07333 -0.00067,-1.98399 0,-2.87332c0.00067,-0.89601 0.32614,-1.64734 0.716,-2.41068c0.38455,-0.7529 0.28622,-1.7 0.284,-2.59999c-0.00226,-0.90002 -0.38605,-1.73837 -0.71597,-2.40001c-0.42053,-0.84337 -0.28403,-1.8 -0.28403,-2.76399l0.01068,-0.86134" id="svg_12" stroke-width="2" stroke="#000" fill="none"/>
  <path t="74565,74580,74580,74580,74580,74580,74580,74580,74580,74605,74618,74618,74634,74650,74666,74666,74682,74682,74700,74700,74700,74717,74717,74732,74733,74750,74767,74767,74782,74782,74782,74799,74799,74813,74813,74833,74851,74863,74884,74884,74901,74901,74917,74934,74951,74951,74963,74963,74985,75001,75021,75037,75037,75059,75059,75071,75088,75115,75131,75155,75173,75204,75219,75236,75253,75267,75314,75332,75355,75364,75380,75398,75419,75430,75431,75461,75479,75479,75496,75512,75529,75546,75546,75562,75579,75596,75612,75629,75646,75646,75662,75679,75679,75699,75718,75742,75742,75763,75783,75783,75807,75835,75875,75915,75940,75941,75963,75995,76027,76082,76123" d="m349.51135,135.09091c-3.29965,5.9355 -3.88864,6.73036 -4.17865,7.092c-0.54495,0.67955 -1.1272,1.2565 -1.84933,2.50534c-0.32504,0.56213 -0.69818,1.36778 -0.88666,2.43199c-0.16992,0.95949 -0.07394,1.77075 -0.08536,2.67067c-0.01041,0.82103 -0.30167,1.77682 -0.57465,2.47467c-0.36523,0.93367 -0.44656,1.64334 -0.71066,2.59467c-0.21066,0.75883 -0.48895,1.55927 -0.91467,2.54401c-0.28229,0.65295 -0.96204,1.62256 -1.36401,2.27599c-0.47867,0.77811 -0.436,1.73235 -0.436,2.45235c0,1.125 0,1.90649 0,2.69699c0,0.92801 0,1.87601 0,2.74533c0,0.86334 0,1.75883 0,2.71468c0,0.86266 0.00165,1.67332 0,2.40399c-0.00226,0.99284 -0.02313,1.93962 -0.42532,2.76134c-0.42584,0.87006 -0.57913,1.73618 -0.57468,2.52133c0.00534,0.94005 0.04327,1.6499 0.5,2.59384c0.40622,0.83957 0.45148,1.72214 0.50018,2.62099c0.04272,0.78862 0.39859,1.53453 0.71582,2.41585c0.33334,0.92603 1.04343,1.42519 1.27951,2.18849c0.26489,0.8564 0.42065,1.69365 1.05716,2.34818c0.55017,0.56573 1.4227,1.14041 1.78067,1.94733c0.37756,0.85104 0.21191,1.85425 0.96802,1.99867c0.88269,0.16861 1.92429,0.44255 2.76266,-0.03467c0.6915,-0.3936 0.35861,-1.63158 0.87198,-2.364c0.55365,-0.7899 1.2496,-1.20284 1.84802,-1.88535c0.59424,-0.67775 0.83505,-1.4942 1.29065,-2.31467c0.4342,-0.78194 0.86768,-1.51181 1.25867,-2.39999c0.28949,-0.65764 0.16473,-1.61961 0.59201,-2.39999c0.45038,-0.82256 0.25562,-1.8978 0.85999,-2.51601c0.60822,-0.62215 1.4158,-0.78735 2.11469,-1.48399c0.60095,-0.59903 1.15726,-1.24585 1.89999,-1.89551c0.66443,-0.58118 1.41962,-0.94595 1.86932,-1.50583c0.56866,-0.70799 1.76846,-0.80403 2.384,-1.224c0.69635,-0.47508 0.90308,-1.50081 1.39401,-2.27017c0.45007,-0.70532 1.26816,-0.97234 1.85266,-1.50583c0.7197,-0.65688 1.49548,-1.146 2.17465,-1.62401l0.54617,-0.57466l0.77917,-0.35266" id="svg_13" stroke-width="2" stroke="#000" fill="none"/>
  <path t="79145,79161,79161,79161,79161,79161,79161,79186,79186,79186,79203,79217,79217,79244,79277,79298,79331,79331,79378,79418,79418,79434,79450,79474,79498,79531,79562,79587,79610,79642,79642,79666,79744,79787,79787,79819,79974" d="m399.51135,130.09091c-1.76398,2.20683 -2.35913,3.06703 -2.67599,3.53734c-0.3252,0.48268 -0.96909,1.45451 -1.272,1.92799c-0.79544,1.24335 -1.22464,1.87717 -1.58398,2.65601c-0.44617,0.967 -0.75092,1.8028 -1.18399,2.59332c-0.40125,0.73242 -0.17303,1.69005 -0.56802,2.48534c-0.43167,0.86916 -0.99655,1.29305 -1.59467,2.0215c-0.59839,0.72878 -0.56946,1.59669 -1.14667,2.3425c-0.48413,0.62553 -1.07843,1.22592 -1.47467,1.936c-0.48877,0.87595 -1.05988,1.23741 -1.46399,1.936c-0.43311,0.7487 -0.39542,1.71634 -0.75198,2.364c-0.47549,0.86368 -1.11734,1.36667 -1.45068,2.2l-0.53784,0.64284l-0.77466,0.33633l-0.95682,0.02083" id="svg_14" stroke-width="2" stroke="#000" fill="none"/>
  <path t="82661,82677,82677,82677,82677,82677,82677,82677,82709,82709,82709,82724,82755,82755,82787,82796,82819,82843,82866,82908,82912,82963,82988,83052,83060,83131,83156,83187,83203,83251,83307,83339,83339,83355,83427,83436" d="m346.51135,193.09091c4.84219,-2.20667 5.36908,-2.61403 5.89185,-3.06334c0.53207,-0.45731 1.05267,-0.92934 2.03134,-1.87332c0.45612,-0.43996 1.25537,-1.21837 2.08649,-2.0775c0.50836,-0.52548 0.83417,-1.44991 1.27567,-2.18584c0.4071,-0.67863 1.23434,-1.24721 2.01016,-1.74733c0.69806,-0.45 1.0766,-1.18883 1.75717,-1.70001c0.68494,-0.51447 1.72308,-0.36592 1.94733,-1.23132c0.21112,-0.81477 0.69543,-1.39067 1.28403,-2.03734c0.57764,-0.63463 1.10538,-1.19789 1.76865,-1.73134c0.57587,-0.46315 1.3345,-0.66716 2.11401,-1.18599c0.70743,-0.47087 1.63333,-0.16667 2.548,-0.252l0.452,-0.748l0.82883,-0.22385" id="svg_15" stroke-width="2" stroke="#000" fill="none"/>
  <path t="86867,86867,86867,86867,86867,86867,86867,86867,86890,86890,86890,86910,86910,86923,86938,86938,86948,86962,86978,86978,86994,87011,87031,87059,87059,87078,87094,87094,87111,87133,87149,87164,87181,87198,87213,87214,87231,87247,87263,87281,87297,87314,87314,87331,87331,87347,87364,87364,87386,87386,87399,87399,87414,87414,87431,87431,87447,87464,87464,87481,87481,87481,87497,87515,87515,87515,87532,87532,87549,87549,87564,87564,87564,87580,87580,87580,87598,87598,87614,87614,87631,87631,87631,87647,87664,87664,87664,87681,87681,87698,87698,87714,87714,87731,87731,87731,87748,87748,87765,87765,87765,87781,87782,87798,87814,87815,87831,87849,87849,87865,87882,87882,87882,87898,87914,87914,87932,87945,87964,87964,87979,87998,87998,88012,88028,88050,88050,88061,88078,88078,88094,88111,88128,88144,88161,88178,88194,88211,88212,88228" d="m382.51135,167.09091c3.52786,-1.98517 4.10272,-2.33459 4.71152,-2.70616c0.62985,-0.38443 1.26697,-0.77419 1.90048,-1.15651c0.61414,-0.37064 2.20935,-1.32745 2.99069,-1.71199c0.74081,-0.36458 1.54471,-0.7939 2.19733,-1.14134c0.78683,-0.41888 1.91098,-0.54427 2.49017,-0.98849c0.74838,-0.57399 1.25223,-1.25327 2.19247,-1.29683c0.80859,-0.03746 1.3736,-0.72519 2.12802,-0.98801c0.90033,-0.31364 1.83215,-0.00908 2.57465,-0.01067c1.05753,-0.00226 1.85132,-0.32613 2.61469,-0.716c0.75287,-0.38454 1.69998,-0.284 2.60001,-0.284c0.89999,0 1.79999,0 2.69998,0c0.89999,0 1.70001,0 2.60001,0c0.89999,0 1.79999,0 2.70001,0c0.90448,0 1.76956,-0.05266 2.62082,0.02083c0.9863,0.08514 1.71857,0.50407 2.64584,0.8125c0.75327,0.25055 1.68515,0.16667 2.58517,0.16667c0.7175,0 1.75348,0 2.4975,0c1.10782,0 1.86533,0 2.73465,0c0.86334,0 1.89078,0.0139 2.83749,-0.00017c0.69955,-0.01039 1.69891,-0.11282 2.46783,-0.43584c0.74875,-0.31454 1.55563,-1.00539 2.37735,-1.564c0.6373,-0.43324 1.36624,-0.77612 2.08066,-1.3c0.65283,-0.4787 1.40106,-1.02773 2.21432,-1.39999c0.94537,-0.43275 1.76489,-0.69669 2.31302,-0.90001c1.06107,-0.3936 1.99597,-0.7684 2.56366,-1.09999c0.94049,-0.54933 1.53732,-1.11302 2.31885,-1.60451c0.73962,-0.46512 1.56409,-0.99304 2.12149,-1.52083c0.52838,-0.50032 1.02036,-1.47408 1.55466,-2.34134c0.32245,-0.52341 1.00433,-1.19502 1.78268,-1.948c0.5004,-0.48407 1.34625,-1.12845 2.05865,-1.44933c0.91833,-0.41362 1.66968,-0.55562 2.36783,-1.10017c0.73718,-0.57498 1.24734,-1.03473 1.95749,-2.0025c0.46674,-0.63608 0.83167,-1.50131 1.35068,-2.16933c0.44257,-0.56961 0.89835,-1.58691 1.164,-2.29201c0.32547,-0.86382 1.14169,-1.47258 1.58533,-2.02133c0.64078,-0.79262 1.44922,-1.15312 2.20001,-1.56667c0.7923,-0.43639 1.53918,-0.70653 2.19998,-1.30482c0.53085,-0.48062 1.3739,-1.33343 2,-1.97917c0.57321,-0.59122 1.01282,-1.35946 1.5,-2.02084c0.48721,-0.66142 0.44589,-1.56823 0.936,-2.34316c0.52982,-0.83768 1.36191,-1.28732 1.54318,-2.136c0.19025,-0.89082 0.02081,-1.82133 0.02081,-2.67467c0,-0.94 0,-1.82533 0,-2.62534c0,-0.9 0,-1.8 0,-2.7c0,-0.9 0,-1.8 0,-2.7c0,-0.89999 0,-1.8 -0.08533,-2.6l-0.52533,-0.764" id="svg_16" stroke-width="2" stroke="#000" fill="none"/>
  <path t="91672,91688,91688,91688,91688,91688,91688,91688,91688,91688,91724,91724,91724,91724,91724,91724,91724,91764,91764,91764,91796,91796,91796,91802,91802,91839,91840,91866,91881,91910,91922,91922,91931,91964,91978,91985,92011,92021,92033,92045,92065,92081,92105,92114,92137,92147,92147,92164,92180,92198,92213,92213,92231,92247,92265,92266,92282,92299,92299,92321,92332,92348,92366,92382,92382,92400,92400,92416,92416,92435,92435,92450,92450,92467,92486,92486,92501,92501,92525,92525,92525,92535,92535,92551,92569,92585,92585,92603,92603,92618,92618,92618,92636,92636,92652,92652,92670,92670,92670,92685,92686,92703,92703,92719,92719,92737,92738,92738,92754,92771,92771,92787,92787,92805,92805,92822,92822,92850,92889,92889,92913,93023,93958,93974,94002,94042,94074,94114,94138,94154,94162,94187,94218,94237,94251,94267,94290,94301,94321,94346,94346,94378,94397,94420,94420,94442,94466,94490,94512,94554,94579,94609,94609,94642,94642,94671,94671,94700,94701,94701,94731,94731,94731,94759,94759,94790,94790,94790,94819,94820,94820,94820,94849,94850,94850,94850,94879,94880,94909,94910,94941,94942,94969,94969,94969,94999,94999,95000,95028,95028,95028,95058,95058,95087,95087,95118,95118,95118,95118,95148,95148,95148,95148,95178,95178,95178,95179,95206,95206,95206,95207,95237,95237,95238,95269,95269,95269,95269,95269,95296,95297,95297,95297,95297,95298,95329,95329,95330,95330,95356,95357,95357,95385,95386,95386,95386,95415,95416,95416,95416,95448,95448,95449,95475,95475,95475,95504,95505,95505,95535,95602,95621,95636,95636,95667,95667,95668,95699,95700,95700,95700,95728,95729,95729,95758,95759,95759,95787,95788,95788,95788,95788,95818,95819,95819,95847,95847,95877,95877,95907,95907,95908,95937,95937,95938,95970,95970,95997,95997,95997,96027,96027,96027,96057,96058,96088,96088,96089,96116,96117,96146,96147,96176,96176,96177,96207,96207,96239,96239,96267,96267,96268,96296,96296,96327,96328,96328,96359,96359,96359,96391,96391,96391,96417,96418,96418,96449,96449,96479,96480,96480,96510,96510,96511,96511,96542,96543,96543,96571,96601,96602,96602,96631,96632,96666,96666,96666,96697,96698,96729,96730,96730,96759,96759,96759,96760,96793,96793,96793,96794,96823,96823,96823,96824,96853,96853,96854,96854,96884,96884,96884,96915,96915,96915,96944,96944,96974,96975,97004,97035,97035,97066,97067,97099,97099,97099,97132,97132,97133,97160,97161,97161,97191,97192,97192,97193,97222,97222,97222,97253,97253,97254,97284,97285,97285,97285,97313,97314,97314,97344,97345,97345,97345,97346,97374,97375,97375,97375,97405,97405,97405,97406,97436,97437,97437,97438,97466,97469,97470,97498,97498,97499,97499,97528,97529,97529,97530,97558,97559,97559,97593,97622,97623,97652,97652,97683,97683,97713,97762,97924,97924" d="m340.51135,28.09091c2.33334,-1.33333 3.09863,-1.77103 3.97736,-2.272c0.96426,-0.54973 1.9874,-1.13174 3.04349,-1.728c1.05991,-0.59841 2.09674,-1.18273 3.0885,-1.728c1.72012,-0.94574 2.40833,-1.30606 2.98267,-1.58933c0.46692,-0.23029 0.84726,-0.40368 1.15799,-0.516c0.24487,-0.08851 0.91812,-0.1335 1.79169,-0.1875c0.64697,-0.03999 1.6485,-0.24413 2.45831,-0.5c0.82278,-0.25997 1.80518,-0.69722 2.65335,-1.04317c0.81772,-0.33353 1.62259,-0.55923 2.44666,-1.01067c0.7803,-0.42747 1.75006,-0.29368 2.5,-0.64667c0.77554,-0.36504 1.62686,-0.5927 2.5,-0.81467c0.8623,-0.21921 1.49387,-0.90311 2.39999,-0.964c0.91394,-0.06141 1.70453,0 2.60001,0c0.89999,0 1.80002,0 2.70001,0c0.89999,0 1.79999,0 2.69998,0c0.80002,0 1.70001,0 2.60001,0c0.92084,0 1.884,0 2.57468,0c1.06818,0 1.92532,0 2.82532,0c0.80002,0 1.75717,0 2.65268,0c0.86334,0 1.82651,0 2.64734,0c0.89999,0 1.79999,0 2.69998,0c0.81436,0 1.76801,0 2.5,0c1.16669,0 1.97919,0 2.82135,0c0.85333,0 1.79468,0 2.56265,0c0.94135,0 1.95901,-0.09256 2.74133,0.036c0.88449,0.14535 1.60657,0.59861 2.54135,0.79733c0.77249,0.16422 1.6106,0.03688 2.69034,0.388c0.76413,0.24848 1.5481,0.67898 2.44748,0.78317c0.87146,0.10096 1.67252,0.56001 2.52884,0.82883c0.81094,0.25457 1.71518,0.36978 2.41733,0.60267c0.75076,0.24901 1.73331,0.84891 2.4975,1.20683c0.87201,0.40843 1.72205,0.36692 2.673,0.57867c0.80234,0.17866 1.60233,0.41688 2.436,0.8785c0.79404,0.43968 1.46771,0.99407 2.14282,1.4c0.98389,0.59158 1.50781,1.01286 2.16669,1.66667c0.65585,0.65082 1.1546,1.16044 1.728,2.07617c0.46439,0.74166 1.14996,1.22039 1.93866,1.75717c0.6889,0.46887 1.48956,1.09735 2.16666,1.5c0.8353,0.49674 1.43884,1.05832 2.30002,1.44733c0.77054,0.34807 1.37802,0.86925 1.72534,1.65267c0.36252,0.81767 0.78223,1.6167 0.97482,2.49983c0.18411,0.84428 0.97122,1.25604 0.99982,2.20017c0.02725,0.89959 -0.25861,1.92664 0.22134,2.57867c0.51398,0.69827 1.25891,0.80886 2.13135,1.12583c0.76617,0.27837 1.2569,0.99757 1.69998,1.7c0.48691,0.7719 0.71335,1.74949 1.3045,2.24284c0.69717,0.58184 1.53204,0.77719 2.12201,1.55267c0.56122,0.73771 0.62387,1.73865 1.32217,2.21466c0.7493,0.51078 0.79514,1.25915 1.25583,1.93267c0.4646,0.67923 1.49884,0.62007 2.19748,1.06867c0.70709,0.45403 1.77118,0.2342 2.60251,0.50533c0.79465,0.25918 1.62695,0.72716 2.3895,0.768c1.17303,0.06283 1.97867,0.01067 2.80066,0.01067c1.03119,0 1.71667,0 2.55136,0c1.00583,0 1.85849,0 2.82281,0c0.81451,0 1.68301,-0.00223 2.57849,0c0.90451,0.00225 1.83762,0.01825 2.48535,0.08533c1.039,0.10761 1.75943,0.26213 2.81732,0.48933c0.64337,0.13817 1.84491,0.30867 2.57867,0.50933c0.98148,0.2684 1.52362,0.61959 2.51868,1.116c0.80035,0.39927 1.61038,0.78035 2.39999,1.21067c0.6084,0.33155 1.41293,0.89611 2,1.42533c0.61392,0.55344 1.39984,1.36384 1.98932,1.95333c0.5535,0.5535 1.36008,1.29637 1.80002,1.836c0.66766,0.81895 1.03397,1.62878 1.57733,2.54133c0.31143,0.52304 0.8526,1.35519 1.23782,1.93784c0.59311,0.89708 1.00681,1.48746 1.57468,2.3955c0.37201,0.59486 0.86887,1.49338 1.26816,2.4c0.26239,0.5958 0.61331,1.51172 1.07401,2.39999c0.31555,0.60845 0.86612,1.4929 1.19467,2.10001c0.48163,0.88998 0.85028,1.80357 1.10931,2.39999c0.52444,1.20749 0.86102,1.80344 1.21069,2.43201c0.37573,0.6754 0.79309,1.41164 1.36383,2.73199c0.20908,0.48369 0.59171,1.5112 0.77933,2.036c0.18704,0.52321 0.53943,1.54669 0.99915,2.9355c0.26227,0.79226 0.50446,1.4957 0.66,2.151c0.28568,1.20363 0.29517,1.8148 0.38702,2.71349c0.12283,1.20203 0.23279,1.80973 0.51633,2.72084c0.20007,0.64288 0.61349,1.65108 0.94366,2.3605c0.33893,0.72824 0.6384,1.48341 1.51465,2.61867c0.36575,0.47388 1.22198,1.074 2,1.66666c0.61374,0.46751 1.20679,1.00963 1.83334,1.83334c0.436,0.57319 0.78699,1.34894 1.14133,2.364c0.29321,0.83998 0.61212,1.65962 -0.28366,1.6315c-0.66623,-0.02092 -1.70999,-0.35216 -2.25351,-0.51633c-0.92575,-0.27962 -1.95703,-0.5851 -2.68564,-0.77467c-0.72946,-0.18979 -1.77759,-0.44984 -2.70901,-0.583c-0.77826,-0.11126 -1.72549,-0.12083 -2.73083,-0.1215c-0.87451,-0.00058 -1.53082,0 -2.64532,0c-0.83334,0 -1.70667,0 -2.58002,0c-0.83331,0 -1.92215,0 -2.77866,0c-0.69449,0 -1.70801,0 -2.508,0c-1.00018,0 -1.82083,0.00328 -2.96667,0c-0.78601,-0.00225 -1.61908,0.03436 -2.66666,-0.16666c-0.72034,-0.13824 -1.3342,-0.49329 -2.36667,-0.71184c-0.78885,-0.16698 -1.80093,-0.09233 -2.61066,-0.13216c-0.8768,-0.04314 -1.87381,-0.27163 -2.68936,-0.48933c-0.54764,-0.14619 -1.81268,-0.44007 -2.47916,-0.47916c-1.01932,-0.05978 -1.82083,-0.02084 -2.62082,-0.02084c-1,0 -1.80026,-0.02098 -2.80002,0.00134c-0.80054,0.01787 -1.81247,0.18869 -2.60001,0.5195c-0.61063,0.2565 -1.61292,0.74821 -2.3428,1.17916c-0.79352,0.46851 -1.40457,1.06252 -2.14252,1.784c-0.53174,0.51988 -1.08493,1.07586 -1.91467,1.63066c-0.77328,0.51704 -1.6048,0.87601 -2.41064,1.29601c-0.65048,0.33901 -1.61798,0.89939 -2.13751,1.2465c-0.8024,0.53609 -1.74268,1.32243 -2.242,1.93833c-0.44684,0.55112 -1.11411,1.40639 -1.63516,1.7685c-0.67014,0.46571 -1.53061,1.0827 -2.14401,1.436c-1.00739,0.58022 -1.58865,0.71432 -2.51865,1c-1.02841,0.31591 -1.76089,0.49739 -2.49118,0.7c-0.7117,0.19746 -1.98132,0.59041 -2.73816,0.88934c-0.79865,0.31544 -1.66748,0.59266 -2.616,0.61066c-0.91718,0.01741 -1.66135,0 -2.69867,0c-0.77335,0 -1.73734,0 -2.48883,0c-0.79651,0 -1.79517,0 -2.7045,0c-0.94135,0 -1.73355,0.02642 -2.58533,-0.036c-1.19333,-0.08746 -1.79437,-0.23087 -2.68936,-0.48483c-0.60364,-0.17129 -1.79514,-0.59518 -2.71066,-0.8685c-0.62213,-0.18573 -1.2673,-0.38692 -2.67465,-0.524c-0.7482,-0.07288 -1.52692,-0.06423 -2.31601,0c-1.2019,0.09784 -1.99042,0.26211 -2.75699,0.41334c-0.72806,0.14363 -1.70688,0.34491 -2.78033,0.47466c-0.70862,0.08566 -1.68533,0.2359 -2.47601,0.45067c-0.77844,0.21144 -1.82993,0.43105 -2.668,0.65867c-0.78702,0.21375 -1.60074,0.87227 -2.48132,0.86933c-0.86975,-0.0029 -1.4791,-0.81384 -1.936,-1.615c-0.44312,-0.77695 -0.80267,-1.75867 -1,-2.291c-0.30414,-0.82047 -0.6759,-1.8915 -1.00449,-2.59016c-0.3092,-0.65746 -1.02017,-1.6546 -1.52084,-2.26784c-0.52551,-0.64365 -1.05609,-1.33315 -1.41299,-2.1465c-0.36557,-0.83309 -0.53204,-1.43597 -0.67633,-2.64283c-0.10712,-0.89594 -0.0831,-1.49999 -0.08536,-2.7c-0.00168,-0.9 -0.00302,-1.5 0,-2.7c0.00226,-0.90001 -0.02109,-1.50399 0.08536,-2.4c0.14368,-1.20936 0.34671,-1.81179 0.61917,-2.75716c0.29129,-1.01072 0.49649,-1.72656 0.6955,-2.46817c0.20099,-0.74905 0.39075,-1.49332 0.69998,-2.55333c0.29132,-0.99858 0.50583,-1.64493 0.70001,-2.30534c0.41101,-1.39777 0.60233,-2.14919 0.76401,-2.92667c0.16388,-0.78803 0.32181,-1.98841 0.38333,-2.78033c0.05957,-0.76683 0.04825,-1.503 0.21933,-2.47566c0.14661,-0.83348 0.45694,-1.56096 1,-2.5c0.46646,-0.80661 0.85715,-1.36223 1.18066,-1.995c0.68225,-1.3345 0.90726,-2.0818 1.11099,-2.8175c0.19574,-0.70683 0.40747,-1.68379 0.4845,-2.50201c0.09677,-1.02779 0.05716,-1.89349 0.05716,-2.84016c0,-0.85333 -0.08911,-1.81004 0.08536,-2.56267c0.22601,-0.975 0.63065,-1.632 0.89383,-2.59517l0.02081,-0.92083l0.00452,-0.8955l0.43149,-0.6685" id="svg_17" stroke-width="2" stroke="#000" fill="none"/>
  <path t="101043,101058,101058,101058,101058,101058,101083,101083,101117,101130,101179,101179,101211,101251,101277,101323,101363,101363,101389,101403,101443,101459,101495,101511,101537,101559,101581,101605,101627,101627,101654,101684,101684,101709,101735,101771,101779,101805,101826,101853,101872,101872,101898" d="m363.51135,78.09091c-4.39932,1.764 -5.18921,2.34966 -5.55731,2.676c-0.71304,0.63215 -1.44049,1.1747 -2.10135,2.268c-0.41895,0.69306 -0.58334,1.50436 -1.05731,2.14c-0.57327,0.76883 -0.64838,1.82674 -0.22684,2.55883c0.46725,0.81148 1.23212,1.23999 2.04282,1.35734c0.90582,0.13112 1.55261,0.8 2.39999,0.979c0.88083,0.18606 1.82172,0.21572 2.69867,0.0195c0.80707,-0.18058 1.48431,-0.81641 1.79068,-1.60933c0.32056,-0.82962 -0.17242,-1.88524 0.29599,-2.58801c0.53012,-0.79531 1.5687,-0.84895 1.71335,-1.688c0.15948,-0.92502 0.00131,-1.62933 0.00131,-2.70267c0,-0.88983 -0.2168,-1.79774 -1,-2.244c-0.77982,-0.44433 -1,-1.16666 -1.16666,-2l-0.83334,-0.33333l-0.69998,-0.48067l-0.82083,-0.29017" id="svg_18" stroke-width="2" stroke="#000" fill="none"/>
  <path t="102559,102575,102575,102575,102575,102575,102597,102597,102618,102650,102666,102678,102704,102726,102750,102786,102893,102938,102979,103027,103060,103091,103147,103163,103188,103221,103296,103355,103355,103371,103404,103495,103540,103815,104052,104068,104117,104117,104147,104164,104164,104196,104243,104261,104291,104321,104388,104413,104434,104450,104476,104476,104506,104549,104588,104624,104648,104659,104739,104765,104779,104811,104844,104883,104895,104923,104964,104964,105045,105253,105268" d="m349.51135,86.09091c1.76401,-1.98517 2.35477,-2.70888 3,-3.47916c0.32239,-0.38486 0.87283,-1.17966 1.73535,-1.91334c0.7392,-0.62878 1.70065,-0.60686 2.56467,-0.6075c0.89865,-0.00067 1.44983,-0.62286 2.22083,-0.97916c0.78891,-0.36458 1.56168,-0.43673 2.1265,-1.0735c0.62219,-0.70146 1.35266,-0.94733 2.23135,-0.94733c0.82584,0 1.57449,0.13733 2.20532,0.716c0.69394,0.63656 0.52716,1.63058 1.13733,2.16251c0.65668,0.57247 1.50772,0.41729 2.00018,1.22133c0.37958,0.61972 1.22028,1.03741 1.86249,1.61617c0.64957,0.58537 0.75766,1.33992 1.13718,2.16251c0.09183,0.19903 -0.43735,0.85095 -1.22119,1.28816c-0.65186,0.36359 -1.21674,1.25951 -2,1.66667c-0.74384,0.38667 -1.42163,0.86976 -2.39999,1.13066c-0.86612,0.23097 -1.40207,0.70598 -2.10001,1.01517c-0.85599,0.3792 -1.79999,0.02084 -2.69998,0.02084c-0.89999,0 -1.80002,0 -2.60001,0c-0.89999,0 -1.79999,0 -2.70001,0c-0.89999,0 -1.89487,0.12248 -2.46399,-0.42533c-0.50165,-0.48286 -1.38617,-0.50163 -2.01065,-1c-0.60797,-0.48518 -1.42535,-0.57467 -2.32535,-0.57467c-0.89999,0 -1.79999,0 -2.70001,0c-0.79999,0 -1.69998,0 -2.65698,0l0.85699,0" id="svg_19" stroke-width="2" stroke="#000" fill="none"/>
  <path t="108717,108717,108717,108717,108717,108717,108717,108717,108717,108717,108732,108732,108732,108732,108767,108793,108793,108793,108817,108817,108817,108839,108839,108839,108866,108866,108866,108891,108891,108891,108891,108916,108916,108916,108940,108940,108940,108940,108963,108963,108963,108986,108986,108987,108987,109014,109014,109014,109014,109038,109038,109038,109038,109062,109062,109062,109063,109086,109086,109086,109086,109086,109111,109111,109111,109111,109111,109136,109136,109136,109136,109136,109158,109158,109159,109159,109159,109185,109185,109186,109186,109207,109207,109207,109229,109229,109229,109254,109254,109255,109255,109279,109279,109279,109304,109304,109326,109326,109364,109364,109398,109398,109399,109438,109438,109438,109474,109474,109508,109508,109508,109542,109542,109943,110034,110082,110114,110124,110178,110226,110258,110274,110308,110344,110345,110379,110379,110379,110379,110417,110417,110417,110418,110454,110455,110455,110455,110455,110492,110492,110492,110492,110492,110526,110527,110527,110527,110527,110565,110565,110566,110566,110601,110601,110601,110641,110641,110641,110641,110642,110677,110677,110677,110677,110677,110715,110715,110715,110716,110716,110754,110755,110755,110755,110755,110755,110790,110790,110791,110791,110825,110825,110826,110826,110826,110863,110863,110864,110864,110899,110899,110899,110899,110899,110939,110939,110939,110973,110973,111011,111011,111047,111083,111119,111120,111159,111159,111159,111196,111197,111197,111197,111197,111232,111232,111233,111233,111233,111269,111269,111269,111269,111310,111310,111310,111310,111311,111311,111344,111344,111345,111345,111345,111380,111381,111381,111381,111381,111416,111416,111416,111417,111417,111417,111454,111454,111454,111455,111455,111491,111491,111492,111492,111492,111529,111529,111530,111530,111530,111530,111564,111565,111565,111565,111565,111566,111602,111603,111603,111603,111603,111604,111640,111641,111641,111641,111641,111677,111677,111680,111680,111715,111715,111715,111715,111716,111751,111752,111752,111788,111789,111826,111860,111900,111900,111901,111937,111937,111937,111938,111974,111975,111975,112009,112009,112009,112010,112010,112047,112047,112048,112048,112089,112089,112089,112090,112090,112090,112126,112126,112127,112127,112127,112164,112164,112164,112204,112204,112204,112204,112241,112241,112241,112242,112242,112278,112278,112279,112315,112316,112316,112355,112355,112356,112356,112391,112391,112392,112428,112429,112464,112502,112541,112577,112577,112612,112613,112651,112688,112689,112689,112727,112727,112765,112766,112766,112804,112804,112804,112805,112844,112844,112844,112845,112880,112881,112881,112881,112917,112918,112918,112918,112956,112956,112956,112956,112957,112995,112996,112996,112996,113031,113032,113032,113033,113069,113069,113069,113118,113118,113119,113119,113147,113148,113148,113148,113149,113183,113183,113221,113221,113259,113260,113299,113299,113337,113338,113373,113412,113412,113451,113452,113452,113486,113487,113487,113487,113488,113488,113526,113526,113527,113527,113527,113528,113565,113565,113569,113569,113569,113570,113570,113603,113604,113604,113604,113605,113605,113643,113644,113644,113644,113645,113680,113681,113681,113722,113723,113757,113758,113758,113796,113796,113833,113834,113834,113873,113873,113874,113911,113911,113911,113912,113948,113949,113949,113949,113987,113989,113990,113990,114026,114026,114026,114027,114064,114065,114065,114103,114104,114104,114148,114148,114149,114149,114181,114182,114182,114218,114218,114219,114270,114270,114271,114321,114322,114322,114323,114323,114365,114365,114366,114366,114366,114389,114390,114390,114433,114433,114434,114434,114475,114475,114479,114479,114480,114531,114532,114532,114533,114533,114585,114586,114586,114586,114647,114648,114649,114649,114650,114699,114700,114700,114701,114752,114753,114753,114754,114754,114801,114802,114802,114850,114850,114851,115026,115066" d="m356.51135,191.09091c-2.5,7.5 -2.64694,8.36183 -2.74533,9.24533c-0.099,0.88898 -0.16162,1.77707 -0.21298,2.6505c-0.04987,0.84795 -0.07993,1.66063 -0.12302,2.42551c-0.07584,1.3459 -0.16714,2.4019 -0.34399,3.17999c-0.18518,0.81476 -0.55667,1.87273 -0.57468,2.66534c-0.02036,0.8956 0,1.60533 0,2.80133c0,0.68266 0,1.38133 0,2.69867c0,0.819 0.01245,1.51207 -0.00015,2.53366c-0.01041,0.84152 -0.0629,1.57423 -0.28384,2.769c-0.12842,0.6945 -0.30481,1.41341 -0.43198,2.14799c-0.18314,1.05783 -0.24762,2.04767 -0.30936,2.67201c-0.11993,1.21297 -0.32892,2.11028 -0.47467,2.71066c-0.21835,0.89941 -0.42914,2.10033 -0.46399,2.71066c-0.05399,0.94548 -0.03601,1.95601 -0.03601,2.67334c0,0.74133 0,1.86333 0,2.94933c0,0.68268 0,1.66667 0,2.31934c0,1.01401 0,1.73134 0,2.84734c0,0.74733 0,1.83333 0,2.51733c0,1.00349 0,1.6925 0,2.81599c0,0.836 0,1.728 0,2.65201c0,0.46649 0,1.84799 0,2.72932c0,0.84933 -0.00006,1.67467 0,2.48401c0.00009,1.20151 -0.00223,2.00598 0.02084,2.82217c0.01175,0.41528 0.03534,1.26779 0.20068,2.60031c0.11536,0.92975 0.20352,1.39566 0.38916,2.3175c0.18008,0.8942 0.47739,2.12155 0.68933,2.8425c0.28409,0.96634 0.49905,1.53122 0.89865,2.53616c0.27985,0.7038 0.5726,1.44394 0.716,2.65201c0.08179,0.68893 0.07999,1.41599 0.08533,2.86401c0.0025,0.68134 0,1.33066 0,2.26215c0,1.20416 0,1.7955 0,2.63251c0,1.12918 0,2.02017 0,2.92917c0,0.74734 -0.03949,1.74686 0.03601,2.57883c0.08493,0.93594 0.32663,1.71405 0.53867,2.53867c0.27142,1.05548 0.392,1.76706 0.42084,2.62085c0.03391,1.00394 -0.04599,1.82449 0.22601,2.8045c0.22842,0.82303 0.59265,1.39374 1.07397,2.39548c0.3569,0.74283 0.6759,1.64606 0.7045,2.60452c0.02682,0.8996 0.42087,2.01929 -0.16666,2.63333c-0.58572,0.61218 -0.83334,0.96799 -0.83334,1.86667c0,0.89999 -0.02133,1.82111 0.00134,2.78665c0.01785,0.76059 0.13373,1.68848 0.36035,2.47049c0.25046,0.86429 0.49945,1.45721 1.12231,2.64551c0.32803,0.62582 0.71841,1.25647 1.03201,1.96802c0.50821,1.15308 0.73203,2.03778 0.84799,2.49066c0.23593,0.92133 0.4317,1.85666 0.63599,2.772c0.19714,0.8833 0.40091,1.74112 0.60001,2.59198c0.2009,0.85846 0.4054,1.74017 0.59866,2.65735c0.19617,0.93088 0.37094,1.85504 0.44418,2.3075c0.20624,1.27405 0.29077,2.03815 0.33633,3.06818c0.02795,0.63226 0.00781,1.84207 0.03149,2.75232c0.01627,0.62564 0.14731,1.95746 0.27335,2.67468c0.1322,0.75229 0.30728,1.52252 0.43198,2.31598c0.18784,1.19516 0.23196,2.00314 0.284,2.81952c0.05331,0.8363 0.05637,1.26764 0.22153,2.60065c0.11624,0.93826 0.29718,1.89975 0.38916,2.38916c0.18634,0.99152 0.38882,1.98944 0.58932,2.98801c0.09976,0.49692 0.29794,1.48093 0.5,2.44418c0.099,0.47205 0.39685,1.8364 0.60001,2.69998c0.19693,0.83707 0.40018,1.65265 0.69998,2.85718c0.19879,0.79865 0.39853,1.58731 0.56403,2.36401c0.15955,0.74881 0.32294,1.81403 0.38333,2.48782c0.09039,1.00845 0.11639,1.72006 0.27399,2.89084c0.11642,0.86481 0.20667,1.30756 0.35333,2.20667c0.14392,0.88223 0.31793,2.1062 0.36816,2.82733c0.0647,0.92889 0.05716,1.88998 0.05716,2.83798c0,0.86935 0.00061,1.73267 0,2.62817c-0.00067,0.95718 -0.28561,1.82248 -0.57465,2.42917c-0.39682,0.83292 -0.41132,1.89035 -0.42084,2.49417c-0.01578,1.00037 -0.00452,2.09549 -0.00452,2.87549c0,0.82001 0,1.245 0,2.5795c0,0.927 0,1.858 0,2.3175c0,0.892 0,2.11884 0,3.22134c0,0.72665 0,1.49332 0,2.80417c0,0.48917 0,1.52249 0,2.05667c0,1.07831 0,1.61249 0,3.13632c0,0.93301 0,1.3815 0,2.25751c0,0.86798 0.00156,2.20682 -0.00131,2.67065c-0.00586,0.95071 -0.02722,1.92569 -0.05585,2.41916c-0.08688,1.49701 -0.2244,2.49585 -0.2955,2.99551c-0.14243,1.0007 -0.23819,1.49783 -0.36331,2.5c-0.18692,1.49701 -0.20367,1.99844 -0.25867,2.98932c-0.02716,0.48975 -0.04303,1.45682 -0.19202,2.84402c-0.09509,0.88535 -0.186,1.314 -0.33334,2.16666c-0.14731,0.85266 -0.34891,2.16544 -0.41333,3.08533c-0.03299,0.47134 -0.05969,1.43591 -0.02499,2.41916c0.01755,0.49716 0.15598,1.99615 0.22235,2.49686c0.13391,1.01031 0.22217,1.51865 0.36331,2.55582c0.07181,0.52774 0.237,2.16367 0.26733,2.72549c0.0611,1.13144 0.06943,1.69644 0.08084,2.80753c0.00555,0.54047 0.00278,2.06665 0.00583,2.53781c0.00577,0.88937 0.00497,1.71713 0.08401,2.48401c0.14554,1.41202 0.3472,2.07422 0.52533,2.74933c0.18707,0.70898 0.4809,1.88333 0.69833,2.7395c0.22366,0.88065 0.47424,1.74994 0.66165,2.14584c0.68735,1.452 1.24957,1.96246 1.77869,2.34933c0.87207,0.63766 1.8291,0.89587 2.75064,0.90399c0.80899,0.00711 1.83353,-0.16605 2.51434,-0.35266c0.80722,-0.22128 1.9834,-0.49969 2.58566,-0.56201c0.89752,-0.0929 1.80002,-0.08466 2.70016,-0.08533c0.91052,-0.00067 1.53586,0 2.86652,0c0.71866,0 1.46933,0 2.24399,0c0.79068,0 1.9895,0 2.79385,0c0.81631,0 1.65265,0.00095 2.96216,0c0.91867,-0.00067 1.39066,0.00226 2.35416,-0.02084c0.48993,-0.01175 1.48309,-0.0383 2.97867,-0.2005c0.4975,-0.05396 1.46881,-0.20206 2.39252,-0.35333c0.85229,-0.13956 1.94333,-0.30847 2.54547,-0.37265c1.06253,-0.11325 1.89877,-0.20486 2.87686,-0.40985c0.72968,-0.15292 1.49481,-0.34674 2.68564,-0.64282c0.79742,-0.19827 1.57718,-0.39587 2.328,-0.564c0.70001,-0.15677 1.90112,-0.3725 2.65118,-0.41516c0.70264,-0.03998 1.98248,-0.02084 2.5625,-0.02084c0.94501,0 1.97968,0 2.711,0c0.74731,0 1.49466,0 2.92551,0c0.65567,0 1.53915,0 2.67883,0c0.72165,0 1.64297,0 2.543,0c0.90448,0 1.77179,0.07367 2.59998,-0.02084c0.99243,-0.11325 1.76755,-0.61942 2.2955,-1.28366c0.63226,-0.7955 0.68533,-1.53091 0.70319,-2.29684c0.02335,-1.00287 0.00131,-1.8558 0.00131,-2.82031c0,-0.82501 0.00092,-1.74002 0,-2.745c-0.00067,-0.71735 0.02246,-1.46054 -0.05716,-2.58069c-0.07739,-1.08875 -0.21994,-1.76889 -0.44284,-2.73181c-0.14291,-0.61737 -0.37979,-1.82089 -0.45181,-2.42535c-0.11099,-0.9313 -0.17371,-1.59335 -0.49084,-2.617c-0.23117,-0.74615 -0.58017,-1.49112 -0.85199,-2.28299c-0.40649,-1.1842 -0.5585,-1.99289 -0.63333,-2.7955c-0.07443,-0.79813 -0.06747,-1.60001 -0.07217,-2.79984c-0.00311,-0.79565 0.00467,-1.58093 -0.05701,-2.34299c-0.11658,-1.44034 -0.28592,-2.10379 -0.46365,-2.73633c-0.26007,-0.92551 -0.59158,-1.81689 -0.8685,-2.72086c-0.18301,-0.59747 -0.47244,-1.797 -0.5535,-2.70898c-0.05609,-0.63123 -0.05493,-1.30533 -0.05719,-2.83334c-0.00061,-0.423 0,-1.28699 0,-2.13498c0,-0.78403 0,-2.19852 0,-2.86185c0,-0.918 0,-1.86218 0,-2.86084c0,-0.79999 0,-1.79868 0,-2.564c0,-0.952 0,-1.72 0,-2.66135c0,-1.008 0.0061,-1.83603 -0.00015,-2.71799c-0.00531,-0.75006 -0.0336,-1.68256 -0.1665,-2.79001c-0.10092,-0.84097 -0.18613,-1.28625 -0.35416,-2.22916c-0.17902,-1.00452 -0.28485,-1.52472 -0.57916,-3.159c-0.1015,-0.56357 -0.20135,-1.13544 -0.40002,-2.29935c-0.10065,-0.58969 -0.20007,-1.18362 -0.5,-2.97916c-0.10019,-0.59982 -0.19501,-1.1998 -0.41064,-2.38934c-0.10703,-0.59039 -0.20639,-1.17892 -0.47467,-2.32532c-0.26285,-1.12317 -0.42871,-1.66589 -0.76285,-2.72366c-0.16302,-0.51611 -0.51178,-1.50879 -0.7825,-2.47501c-0.25626,-0.91458 -0.42123,-1.79767 -0.49731,-2.64001c-0.07211,-0.79834 -0.07639,-1.56 -0.07184,-2.62482c0.00412,-0.96457 -0.08252,-1.84335 0.28516,-2.85385c0.23901,-0.65686 0.84082,-1.50079 1.104,-2.22931c0.28207,-0.78079 0.40967,-1.83368 0.6315,-2.69702c0.23123,-0.8999 0.931,-1.34134 1.41116,-2.01099c0.52225,-0.72836 0.5369,-1.59439 0.65067,-2.51868c0.12735,-1.03479 0.26501,-1.76678 0.43817,-2.51199c0.17416,-0.74963 0.58246,-2.17767 0.77466,-2.84732c0.18704,-0.65173 0.45526,-1.63162 0.58301,-2.67419c0.08981,-0.73297 0.10736,-1.49921 0.117,-2.28299c0.01471,-1.1954 0.00449,-1.99283 0.00449,-2.77417c0,-0.74933 0,-2.08798 0,-2.9115c0,-0.72449 0,-1.67648 0,-2.46698c0,-0.85352 0,-2.04285 0,-2.64285c0,-0.89999 0,-1.79999 0,-2.69983c0,-0.8895 0,-1.74301 0,-2.77884c0,-0.92133 0,-1.60532 0,-2.60931c0,-0.87451 0,-1.53085 0,-2.64536c0,-0.836 0,-1.728 0,-2.65198c0,-0.46652 0,-1.84802 0,-2.72668c0,-0.83066 0,-1.60532 0,-2.31601c0,-1.20532 0,-1.99283 0,-2.82532c0,-1.01102 0,-1.81366 0,-2.68832c0,-0.91467 0,-2.29169 0,-2.737c0,-0.86868 0,-1.72134 0,-2.57401c0,-1.314 0,-1.76849 0,-2.6955c0,-0.931 0,-1.84201 0,-3.1185c0,-0.76401 0,-1.47202 0,-2.14801c0,-1.35199 0,-2.07068 0,-2.82132c0,-0.77469 0,-1.56534 0,-2.76401c0,-0.80002 0,-1.60001 0,-2.39999c0,-1.20001 0,-1.99869 0,-2.78934c0,-0.77469 0.0094,-1.52536 -0.00131,-2.92535c-0.00497,-0.64938 -0.01474,-1.58673 -0.16534,-2.48532c-0.14987,-0.89426 -0.444,-1.69199 -0.93317,-2.63568l-0.73349,-0.53098" id="svg_20" stroke-width="2" stroke="#000" fill="none"/>
  <path t="116765,116796,116796,116796,116796,116796,116796,116796,116796,116796,116796,116796,116796,116796,116796,116796,116796,116831,116831,116849,116849,116849,116868,116868,116868,116886,116886,116886,116906,116906,116906,116924,116924,116925,116925,116941,116941,116941,116958,116958,116958,116958,116979,116997,116997,116997,117015,117015,117049,117050,117050,117067,117067,117067,117086,117086,117103,117104,117128,117129,117147,117147,117179,117179,117179,117179,117197,117197,117197,117198,117198,117214,117215,117241,117241,117241,117254,117254,117255,117274,117291,117291,117291,117309,117309,117309,117329,117330,117348,117348,117366,117366,117384,117385,117403,117403,117420,117420,117438,118486,118501,118531,118532,118554,118568,118593,118609,118627,118628,118628,118645,118645,118666,118666,118666,118685,118685,118685,118702,118702,118703,118720,118720,118740,118741,118741,118758,118758,118762,118762,118778,118778,118778,118795,118796,118817,118817,118818,118835,118835,118853,118853,118853,118853,118871,118872,118890,118890,118912,118912,118930,118930,118930,118930,118947,118947,118966,118966,118985,118985,119034,119313,119329,119350,119351,119368,119388,119388,119389,119407,119408,119426,119427,119427,119427,119444,119445,119445,119463,119463,119463,119482,119482,119482,119503,119503,119503,119504,119520,119520,119520,119520,119538,119538,119538,119558,119558,119558,119577,119577,119578,119596,119596,119614,119614,119615,119633,119633,119651,119652,119652,119671,119671,119671,119701,119701,119701,119701,119732,119732,119732,119733,119761,119761,119762,119762,119789,119789,119789,119789,119790,119816,119816,119816,119817,119817,119818,119845,119845,119845,119845,119846,119846,119874,119875,119875,119875,119875,119899,119900,119900,119900,119900,119929,119929,119929,119930,119930,119956,119956,119957,119957,119957,119958,119987,119988,119988,119988,119988,120015,120016,120016,120016,120044,120044,120045,120071,120071,120072,120072,120072,120100,120100,120101,120127,120128,120128,120128,120157,120158,120158,120158,120185,120185,120186,120211,120212,120244,120244,120244,120245,120270,120270,120271,120298,120299,120299,120299,120331,120332,120332,120332,120356,120357,120357,120357,120387,120388,120388,120415,120415,120415,120416,120416,120416,120446,120447,120447,120474,120475,120475,120475,120504,120504,120504,120532,120532,120533,120533,120533,120565,120565,120565,120566,120566,120590,120591,120591,120619,120619,120619,120620,120646,120649,120649,120650,120650,120675,120676,120676,120676,120707,120708,120708,120734,120735,120735,120735,120761,120762,120762,120790,120791,120791,120818,120819,120819,120845,120846,121909,121925,122009,122065,122106,122153,122201,122257,122305,122369,122394,122413,122441,122634,122650,122681,122710,122741,122741,122741,122742,122769,122770,122770,122770,122799,122799,122800,122800,122828,122829,122829,122857,122857,122858,122884,122884,122912,122955,123035,123112" d="m495.51135,105.09091c2.83334,2.16666 3.31473,2.87247 3.81735,3.69466c0.54617,0.89345 1.0939,1.85271 1.64099,2.847c0.54898,0.99773 1.07352,1.98318 1.55099,2.937c0.84085,1.67967 1.14825,2.38136 1.39468,2.98133c0.207,0.50397 0.36264,0.93082 0.47098,1.29c0.16281,0.53983 0.39429,1.3796 0.88669,2.05983c0.54071,0.74696 1.09009,1.43034 1.5285,2.242c0.41226,0.76324 0.62241,1.73235 0.81516,2.40083c0.28418,0.98563 0.75153,1.77534 1.07999,2.322c0.63931,1.06394 1.08923,1.76254 1.40402,2.48667c0.45764,1.05278 0.61868,1.70412 0.79999,2.38933c0.18423,0.69621 0.47305,2.01268 0.5535,2.84399c0.07294,0.75392 0.05164,1.8387 0.0585,2.47067c0.0108,0.99313 -0.15002,1.68515 0.35135,2.8195c0.34836,0.78815 0.6254,1.51204 0.64285,2.2715c0.02344,1.02191 0.00446,1.92284 0.00446,2.94366c0,0.81067 0,1.45717 0,2.68401c0,0.81599 0,1.36333 0,2.63066c0,0.66451 -0.05316,1.68785 0.01068,2.47467c0.08533,1.05212 0.64142,1.65977 0.90399,2.69733c0.18738,0.74031 0.08533,1.68001 0.08533,2.47951c0,0.91649 0,1.60583 0,2.77632c0,0.85834 0,1.73668 0,2.17084c0,0.83333 0,2.23067 0,3.02417c0,1.0625 0,1.87317 0,2.74783c0,0.99733 0,1.79384 0,2.54533c0,0.964 0,2.10266 0,2.77916c0,0.77551 0.02881,1.82428 -0.01068,2.75417c-0.02686,0.63263 -0.28064,1.63194 -0.56396,2.40001c-0.35046,0.95003 -0.4928,1.80966 -0.70935,2.604c-0.20074,0.73633 -0.61179,1.88991 -0.69516,2.71117c-0.08511,0.83829 -0.00745,1.73158 -0.021,2.72049c-0.01038,0.75888 -0.58374,1.31947 -0.99985,2.02184c-0.44778,0.75581 0,1.7785 0,2.57851c0,0.89999 0.00519,1.80002 0,2.7c-0.00534,0.92137 -0.15997,1.83522 -0.35266,2.50533c-0.21457,0.74619 -0.57632,1.84657 -0.63666,2.64534c-0.0672,0.88969 -0.01068,1.87016 -0.01068,2.66667c0,1 0,1.70349 0,2.452c0,1.196 0.00058,1.86 0,2.811c-0.00067,1.08366 -0.08194,1.75652 -0.35715,2.84383c-0.16168,0.63884 -0.33664,1.33968 -0.64285,2.40916c-0.28989,1.01245 -0.49728,1.64673 -0.79999,2.56534c-0.29718,0.90189 -0.59927,1.77693 -0.76401,2.32933c-0.33502,1.12346 -0.42685,1.93095 -0.6575,2.81467c-0.18683,0.71581 -0.42957,1.47922 -0.97849,2.49066c-0.36542,0.67329 -0.91302,1.72668 -1.09549,2.32918c-0.19809,0.65413 -0.44354,1.66682 -0.58319,2.59433c-0.14709,0.97713 -0.20261,1.93361 -0.73199,2.63249c-0.51471,0.67953 -1.1712,1.26703 -1.71066,2.17467c-0.3475,0.58469 -0.66989,1.24084 -1.026,1.87801c-0.61606,1.10225 -1.17172,1.78899 -1.75266,2.67934c-0.43048,0.65977 -0.81583,1.58669 -1.37918,2.13699c-0.65735,0.64211 -1.39203,0.90689 -1.52216,1.74167c-0.1427,0.91533 -0.89307,1.19243 -1.56268,1.89734c-0.57516,0.60548 -0.39301,1.4502 -0.51999,2.22133c-0.20453,1.24194 -0.53824,1.90196 -0.91602,2.84801c-0.31415,0.7867 -0.62064,1.65071 -0.88531,2.23466c-0.41223,0.90958 -0.94519,1.77936 -1.25333,2.36266c-0.55707,1.0545 -0.74951,1.78369 -0.90952,2.68867c-0.17136,0.96921 -0.37646,1.79147 -0.59851,2.358c-0.47369,1.20853 -0.83481,1.79077 -1.17865,2.38934c-0.51825,0.90216 -1.03143,1.78967 -1.41751,2.69998c-0.2518,0.59369 -0.55484,1.50034 -0.85715,2.39984c-0.29904,0.88983 -0.48166,1.47122 -0.90002,2.53351c-0.28314,0.71896 -0.70688,1.60596 -0.87848,2.58783c-0.13739,0.78616 -0.08237,1.56976 -0.12283,2.61084c-0.03012,0.77475 -0.2709,1.74155 -0.5195,2.48883c-0.26654,0.80127 -0.66879,1.79861 -0.97919,2.45831c-0.48395,1.02856 -0.81946,1.61646 -1.19998,2.478c-0.42181,0.95502 -0.60577,1.49799 -0.89999,2.35352c-0.40805,1.18658 -0.60004,1.78934 -0.90002,2.68933c-0.20001,0.60001 -0.59998,1.79999 -0.79999,2.39999c-0.29999,0.89999 -0.4975,1.50082 -0.90134,2.70267c-0.20804,0.61911 -0.43002,1.27103 -0.68399,1.96802c-0.42822,1.1752 -0.77161,2.04205 -1.11469,2.97098c-0.17685,0.47885 -0.5329,1.45578 -0.83331,2.45834c-0.29819,0.99512 -0.41711,1.49823 -0.64584,2.5c-0.11395,0.49915 -0.31854,1.50018 -0.621,3c-0.10086,0.50006 -0.3067,1.50085 -0.42065,2c-0.22873,1.00177 -0.34033,1.50723 -0.80051,2.99985c-0.15457,0.50137 -0.50317,1.48978 -0.67868,1.97931c-0.3457,0.96426 -0.83646,2.35318 -0.97864,2.79935c-0.27478,0.8624 -0.50876,1.70465 -0.77402,2.517c-0.39532,1.21075 -0.72992,2.00641 -1.07266,2.81516c-0.17398,0.41049 -0.55225,1.23569 -1.008,2.556c-0.15576,0.4512 -0.41522,1.38568 -0.66669,2.33334c-0.12592,0.47452 -0.354,1.42596 -0.82117,2.7785c-0.15182,0.43961 -0.505,1.28107 -0.81747,2.11084c-0.30322,0.80521 -0.63876,2.00717 -0.75153,2.80167c-0.10855,0.7648 -0.08606,1.50653 -0.33115,2.76648c-0.15811,0.81281 -0.41571,1.31754 -0.612,2.54251c-0.11969,0.74686 -0.13852,1.57581 -0.15601,2.42401c-0.01697,0.82385 -0.01068,1.91183 -0.01068,2.78931c0,0.78751 -0.00531,1.92957 0.00452,2.59653c0.01047,0.71112 -0.0047,1.44977 0.21683,2.86865c0.10446,0.6691 0.37286,1.60663 0.49466,2.22015c0.23688,1.19305 0.27005,2.08035 0.27951,2.6442c0.02133,1.27301 -0.03668,1.96658 0.17117,3.12381c0.14359,0.79929 0.36713,1.34656 0.54932,2.23468c0.24442,1.1915 0.26166,1.80896 0.27951,2.75583c0.01904,1.00931 0.00449,1.72684 0.00449,2.46817c0,1.12201 0,2.20801 0,2.89066c0,0.98401 0,1.63669 0,2.65067c0,1.08151 0.00003,1.8125 0,2.5235c-0.00009,1.26752 0.01944,1.81479 -0.03598,2.63251c-0.09131,1.34723 -0.18216,1.76312 -0.31668,2.68799c-0.14395,0.98984 -0.22971,1.48691 -0.36331,2.45334c-0.17267,1.24899 -0.24213,2.21509 -0.33667,3.03235c-0.09708,0.83914 -0.30002,1.80899 -0.44736,2.50366c-0.14731,0.69467 -0.36713,1.95898 -0.48532,2.74933c-0.11334,0.75778 -0.45084,1.89651 -0.72449,2.56949c-0.30365,0.7467 -0.65067,1.54407 -0.80753,1.96918c-0.48831,1.3233 -0.72818,2.25497 -0.84665,2.716c-0.23059,0.89734 -0.40216,1.75082 -0.73599,2.83185c-0.27362,0.88605 -0.62054,1.65787 -0.90002,2.4975c-0.32397,0.97333 -0.50314,1.70749 -0.69998,2.47565c-0.3049,1.18976 -0.49808,1.99017 -0.70001,2.78033c-0.19809,0.77518 -0.39066,1.52802 -0.69998,2.58917c-0.19415,0.66608 -0.49872,1.61127 -0.70001,2.22015c-0.39746,1.20221 -0.60001,1.80136 -0.89999,2.70135c-0.30002,0.89999 -0.60788,1.79633 -0.77917,2.39999c-0.25397,0.89496 -0.43915,2.09845 -0.49548,2.68933c-0.08136,0.85321 -0.24109,1.89105 -0.52536,2.81067c-0.21182,0.68527 -0.41599,1.68399 -0.5,2.5c-0.08398,0.81601 -0.28113,1.81433 -0.57465,2.65332c-0.3367,0.96249 -0.42535,1.84668 -0.42535,2.68002c0,0.88266 -0.81415,1.15884 -0.99548,1.87115c-0.22092,0.86786 -0.00452,1.7955 -0.00452,2.6955c0,0.89999 -0.1373,1.88113 0.35269,2.54733c0.50323,0.68423 0.89813,1.48981 0.64282,2.34818c-0.22684,0.76263 -1.3154,0.65085 -2.32883,0.87115c-0.69525,0.15112 -1.52286,0.44788 -2.15466,0.63467c-1.03149,0.30499 -1.76468,0.49866 -2.51202,0.69867c-0.74731,0.20001 -2.17795,0.60165 -2.8428,0.7955c-0.63583,0.18539 -1.54977,0.45959 -2.75586,0.62048c-0.58835,0.07849 -1.45755,0.0686 -2.47998,0.30536c-0.93774,0.21716 -1.59567,0.55173 -2.60266,0.69333c-0.77209,0.10858 -1.8187,0.08533 -2.67584,0.08533l-0.94284,0l-0.89999,0" id="svg_21" stroke-width="2" stroke="#000" fill="none"/>
  <path t="124499,124514,124514,124514,124514,124514,124514,124514,124514,124530,124530,124530,124530,124530,124545,124570,124596,124596,124596,124617,124618,124618,124618,124643,124643,124643,124662,124662,124662,124662,124684,124684,124684,124684,124684,124684,124705,124705,124705,124705,124726,124727,124727,124750,124750,124750,124750,124751,124772,124772,124772,124795,124795,124801,124816,124816,124836,124837,124837,124837,124858,124858,124881,124881,124881,124901,124901,124901,124922,124922,124922,124942,124942,124965,124965,124985,124985,125007,125007,125027,125028,125028,125049,125049,125070,125070,125091,125091,125091,125111,125112,125112,125133,125133,125134,125155,125155,125155,125175,125175,125175,125175,125197,125197,125218,125218,125219,125240,125240,125240,125261,125261,125282,125282,125303,125303,125324,125324,125346,125346,125378,125378,125403,125427,125450,125482,125482,125498,125515,125539,125562,125562,125580,125580,125601,125601,125624,125644,125645,125666,125667,125688,125709,125749,125792,125792" d="m350.51135,275.09091c-1.32098,4.19199 -1.48553,4.95517 -1.64365,5.77399c-0.16473,0.85318 -0.32019,1.72513 -0.45901,2.59802c-0.13571,0.85315 -0.27701,1.66876 -0.39734,3.12799c-0.04993,0.60532 -0.1022,1.13553 -0.00266,1.96533c0.10147,0.84592 0.48465,1.8981 0.50266,2.73599c0.02072,0.96512 -0.02286,1.65936 0.08536,2.57068c0.10391,0.87521 0.34457,1.8884 0.48932,2.61334c0.14597,0.73108 0.32657,1.79144 0.38934,2.77866c0.03973,0.62457 0.03598,1.836 0.03598,2.44c0,0.9585 0,1.66748 0,2.896c0,0.952 0,1.45801 0,2.5c0,0.52399 0,1.548 0,2.93549c0,0.793 0,1.50201 0,2.46051c0,0.90417 0,1.81467 0,2.44c0,1.33066 0,2.048 0,2.78934c0,0.74933 -0.0094,1.49069 0.00134,2.88934c0.00497,0.64938 0.01736,1.5863 0.16534,2.48532c0.14783,0.8981 0.45514,1.71628 0.66666,2.66666c0.18826,0.84586 0.16666,1.83334 0.16666,2.69135c0,0.642 0,1.59 0,2.58865c0,0.85419 0.01929,1.82349 -0.02081,2.57419c-0.04263,0.79794 -0.25171,1.80099 -0.58984,2.74048c-0.18375,0.51053 -0.58936,1.70535 -0.78934,2.37866c-0.20001,0.67334 -0.5658,1.87778 -0.98932,2.65201c-0.45343,0.82892 -0.60843,1.52234 -0.61069,2.47601c-0.00174,0.73199 0.06168,1.9025 -0.02081,2.73199c-0.08371,0.84186 -0.41498,1.74762 -0.6265,2.49466c-0.24326,0.85919 -0.35043,1.75351 -0.35269,2.66699c-0.00198,0.80002 0,1.75967 0,2.56369c0,0.82199 0,1.85333 0,2.77466c0,0.68399 0.01947,1.68607 -0.02081,2.52084c-0.04257,0.88184 -0.19415,1.78076 -0.40451,2.68982c-0.14496,0.62637 -0.42413,1.95435 -0.48932,2.67065c-0.06564,0.72137 -0.0831,1.75168 -0.08536,2.61868c-0.00256,0.97916 0.02194,1.83386 -0.01065,2.76132c-0.0278,0.79138 -0.19501,1.82202 -0.41467,2.50269c-0.27145,0.84109 -0.54199,1.83475 -0.57016,2.63599c-0.03513,0.99939 -0.00452,1.80002 -0.00452,2.79984c0,0.77933 0,1.77884 0,2.55283c0,0.90451 0,1.65186 0,2.646c0,0.94418 0,1.84418 0,2.80136c0,0.89999 -0.18161,1.84103 0.08536,2.59998c0.2677,0.76108 1.31406,1.18201 2.116,1.20001c0.96509,0.02167 1.79865,0 2.77731,0c0.77402,0 1.67404,-0.00534 2.53735,0c0.85873,0.00534 1.80249,0.22833 2.48398,0.5c0.97458,0.38852 1.79886,0.48129 2.70001,0.5c0.90051,0.01868 1.71066,0.42532 2.46667,0.83334l0.85416,0.16666" id="svg_22" stroke-width="2" stroke="#000" fill="none"/>
  <path t="129235,129284,129284,129284,129284,129296,129296,129331,129403,129507,129606,129606,129642,129652,129667,129690,129710,129738,129746" d="m345.51135,23.09091c-2.6813,2.052 -3.21667,2.66642 -3.70267,3.324c-0.45471,0.61527 -0.70627,1.55509 -1.34097,2.30533c-0.5242,0.61964 -1.39133,1.02526 -1.89917,1.72333c-0.49664,0.68267 -0.72968,1.46691 -1.08252,2.24733c-0.36658,0.81075 -1.17331,1.316 -1.922,1.75267l-0.478,0.622l-0.60001,0.6l-0.62198,0.478" id="svg_23" stroke-width="2" stroke="#000" fill="none"/>
  <path t="131942,131958,131958,131958,131958,131958,131958,131958,131958,132027,132050,132050,132082,132099,132122,132178,132261,132277,132300,132318,132347,132379,132427,132427,132459,132526,132572,132579,132590,132685" d="m368.51135,26.09091c-3.08514,1.54267 -4.00681,2.00405 -4.49066,2.25067c-0.9733,0.49609 -1.45474,0.72025 -2.67599,1.416c-0.61353,0.34953 -1.31183,1.06267 -2.24399,1.29733c-0.88382,0.2225 -1.76401,0.036 -2.70401,0.036c-0.88535,0 -1.49158,0.4838 -2.16934,0.91467c-0.79443,0.50504 -1.94092,-0.17094 -2.59467,0.30667c-0.69907,0.51071 -1.32132,0.77867 -2.22131,0.77867c-0.90002,0 -1.70001,0 -2.60001,0c-0.89999,0 -1.80002,0 -2.68933,0.01067l-0.60001,0.564l-0.36334,0.7825" id="svg_24" stroke-width="20" stroke="#fff" fill="none"/>
  <path t="134003,134026,134026,134026,134090,134090,134122,134140,134177,134202,134233,134234,134419,134450,134542,134739,134840" d="m362.51135,27.09091c-1.32266,2.39733 -0.42752,2.98352 0.30734,3.28567c1.01224,0.41619 1.76895,0.56532 2.69266,0.71433c0.83899,0.13535 1.28198,0.95728 2.10001,1c0.89877,0.04694 1.7359,0.20081 2.60001,-0.05717c0.85876,-0.25638 1.29999,-1.22817 1.30133,-2.1415l0.28268,-0.716" id="svg_25" stroke-width="20" stroke="#fff" fill="none"/>
  <path t="135803,135834,135834,135834,135834,135834,135834,135850,135850,135850" d="m367.51135,26.09091c3.08517,2.86367 3.53088,3.25386 4.49069,4.05467c0.48657,0.40597 0.97198,0.79733 1.4415,1.173l1.2345,0.939l0.84299,0.552l0.69833,0.36" id="svg_26" stroke-width="20" stroke="#fff" fill="none"/>
  <path t="138708,138730,138730,138730,138730,138730,138762,138762,138803,138843,138874,138874,138906,138961,138994,139010,139027,139065,139082,139098,139146,139169,139209,139241,139241,139273,139281,139329,139345,139407,139442,139443,139498,139514,139538,139578,139594,139634,139651,139706,139715,139754,139811,139878,139878,139929,139961,139961,139970,140009,140050,140082,140130,140130" d="m370.51135,15.09091c-2.20667,0.44283 -3.06552,0.70333 -4,1.02083c-0.47446,0.16121 -1.40326,0.44387 -2.49249,0.9575c-0.92523,0.43629 -1.70447,0.97895 -2.60748,1.02167c-0.89902,0.04253 -1.81076,-0.36436 -2.54285,0.05717c-0.81149,0.46724 -1.49509,0.62105 -2.19049,1.1095c-0.71518,0.50232 -1.36667,0.83333 -2.26651,0.83333c-0.86417,0 -1.45459,0.41763 -2.12167,0.8785c-0.72964,0.50411 -1.73883,0.35181 -2.47849,0.76883c-0.74503,0.42004 -1.24365,1.10429 -2.00452,1.34817c-0.89548,0.28702 -1.51166,0.73395 -2.2955,1.17117c-0.65186,0.36359 -1.49649,0.97892 -1.91464,1.74933c-0.3902,0.71894 -0.83194,1.40163 -1.36935,2c-0.57339,0.63845 -1.42804,0.96292 -1.70532,1.69467c-0.33823,0.89254 -0.75555,1.19675 -1.62134,1.42533c-0.84637,0.22346 -1.07181,1.34378 -1.67465,1.88c-0.65005,0.57821 -1.66031,0.55561 -2.35751,1.13667c-0.59149,0.49294 -0.85718,1.4265 -1.35849,2.23267l-0.22,0.81467l-0.49466,0.7" id="svg_27" stroke-width="2" stroke="#000" fill="none"/>
 </g>
 <g display="none">
  <title>muse_image</title>
  <image xlink:href="http://static.flickr.com/45/164321329_eecf2ca755.jpg" id="muse" height="480" width="640" y="0" x="0"/>
 </g>
 <g display="none">
  <title>bbox</title>
  <rect stroke="#f00" fill="none" stroke-width="3" height="286.72" width="202.24" y="193.28" x="239.36" id="bbox"/>
 </g>
</svg>
