<svg width="640" height="480" xmlns="http://www.w3.org/2000/svg" xmlns:svg="http://www.w3.org/2000/svg" xmlns:xlink="http://www.w3.org/1999/xlink">
 <!-- Sketchy ANNOTATION
  ImageNet ID: n02503517_753
  URL: http://farm2.static.flickr.com/1253/1420295068_31cae37b48.jpg
  Image Width: 500
  Image Height: 418
  BBox X: 8
  BBox Y: 15
  BBox Width: 460
  BBox Height: 402
  Exposure: 2000ms
  Synset Label: elephant
  Synset ID: n02503517
  Worker Tag: elephant
  Sanity Check: 
   Saved
  Comment: 
   {}
  Worker ID: AQ9ISCTDF9B48
  Assignment ID: 3R6P78PK7KB33Y2040GCU117F2UGTW
  HIT ID: 3WA2XVDZEMHXU2X3CQDTU4TWDFH6EU
  Work Time: 157s
  Worker Score: 0.7857
 END ANNOTATION -->
 <g display="inline">
  <title>Layer 1</title>
  <path t="0,168,184,200,216,232,232,240,240,250,266,283,284,300,316,333,334,352,352,368,368,384,401,416,417,440,440,450,466,496,528,528,544,544,553,569,585,601,618,634,635,651,667,668,684,701,702,717,718,734,735,751,768,785,801,802,817,818,818,834,835,852,867,884,885,901,902,917,934,951,967,968,985,985,985,1001,1002,1025,1025,1041,1051,1052,1067,1068,1084,1085,1085,1101,1102,1102,1117,1134,1135,1151,1152,1167,1168,1185,1185,1185,1201,1202,1202,1217,1218,1234,1235,1235,1251,1252,1267,1268,1268,1284,1285,1301,1302,1317,1318,1334,1335,1353,1367,1368,1385,1401,1402,1418,1435,1452,1468,1468,1484,1485,1501,1502,1502,1517,1534,1535,1551,1568,1585,1602,1602,1618,1635,1635,1651,1652,1652,1668,1668,1698,1730,1746,1762,1786,1786,1794,1810,1810,1818,1835,1835,1851,1868,1885,1885,1885,1901,1918,1935,1935,1951,1967,1968,1984,1985,2001,2001,2018,2035,2051,2051,2068,2085,2085,2101,2118,2135,2135,2151,2151,2167,2168,2185,2201,2201,2218,2218,2242,2242,2242,2242,2258,2258,2268,2285,2285,2301,2301,2318,2318,2318,2335,2335,2351,2351,2368,2385,2401,2401,2418,2418,2435,2435,2435,2451,2451,2468,2468,2485,2485,2501,2518,2518,2518,2535,2535,2535,2535,2551,2551,2551,2568,2568,2585,2585,2601,2618,2618,2635,2635,2635,2635,2635,2651,2651,2651,2651,2668,2668,2685,2685,2701,2701,2718,2718,2735,2735,2751,2751,2768,2768,2785,2785,2801,2801,2818,2818,2818,2835,2835,2835,2835,2835,2851,2851,2851,2851,2851,2868,2868,2868,2885,2885,2885,2885,2901,2901,2918,2918,2918,2935,2935,2951,2951,2968,2968,2968,2985,2985,2985,3001,3001,3001,3018,3018,3018,3018,3035,3035,3035,3035,3035,3035,3051,3051,3051,3068,3068,3085,3085,3101,3101,3118,3135,3135,3158,3159,3168,3169,3169,3186,3186,3210,3210,3234,3234,3258,3370,3394,3394,3402,3434,3434,3442,3451,3468,3485,3522,3522,3530,3546,3554,3570,3570,3586,3586,3601,3602,3618,3635,3651,3668,3668,3690,3690,3706,3706,3722,3754,3754,3770,3778,3778,3786,3801,3801,3818,3818,3835,3835,3851,3851,3882,3882,3882,3897,3898,3898,3918,3918,3918,3951,3951,3951,3985,3985,3985,4018,4018,4018,4018,4051,4051,4051,4051,4051,4051,4085,4085,4085,4085,4118,4118,4118,4118,4151,4151,4151,4169,4169,4169,4169,4201,4201,4235,4235,4235,4235,4268,4268,4268,4268,4268,4301,4301,4301,4318,4319,4319,4319,4351,4351,4385,4385,4418,4418,4418,4418,4451,4451,4451,4451,4451,4451,4452,4490,4490,4490,4490,4518,4518,4535,4536,4568,4568,4601,4601,4601,4635,4635,4635,4635,4668,4668,4668,4701,4701,4701,4701,4701,4735,4735,4735,4735,4768,4768,4768,4768,4768,4769,4769,4769,4801,4801,4801,4801,4801,4801,4802,4802,4835,4835,4835,4835,4868,4868,4886,4887,4887,4904,4904,4938,4951,4951,4969,4988,4988,5006,5023,5023,5023,5040,5058,5059,5059,5076,5076,5076,5076,5076,5093,5093,5093,5111,5129,5129,5129,5150,5151,5151,5168,5168,5168,5168,5168,5186,5186,5186,5203,5204,5204,5221,5221,5238,5238,5239,5256,5256,5257,5257,5275,5275,5275,5275,5292,5293,5293,5311,5311,5329,5329,5348,5367,5367,5367,5367,5417,5418,5418" d="m37,472c0,-2.58932 0,-3.5 0,-4.39999c0,-0.90451 0,-1.76666 0,-2.60001c0,-0.97849 0,-1.79868 0,-2.70001c0,-0.82083 0,-1.784 0,-2.64731c0,-0.89551 0,-1.854 0,-2.81934c0,-0.65869 0,-1.66669 0,-2.45868c0,-1.02734 0,-1.72198 0,-2.73868c0,-0.94049 0,-1.80264 0,-2.63599c0,-0.97849 0,-1.79868 0,-2.70001c0,-0.89999 0.03746,-1.83774 -0.22133,-2.62131c-0.28965,-0.87698 -0.71648,-1.65063 -0.77733,-2.47736c-0.06617,-0.8989 0.004,-1.80136 -0.00134,-2.70132c-0.00533,-0.90005 -0.46193,-1.73639 -0.83333,-2.5c-0.36667,-0.75391 -0.81467,-1.46985 -1.08133,-2.48401c-0.17665,-0.67184 -0.08533,-1.75882 -0.08533,-2.61615c0,-0.78519 0,-1.73584 0,-2.50116c0,-0.99417 0,-1.74152 0,-2.7627c0,-0.93597 0,-1.836 0,-2.73633c0,-0.71399 0,-1.66901 0,-2.4205c0,-0.79648 0,-2.01749 0,-2.8175c0,-0.90448 0,-1.86298 0,-2.82831c0,-0.65869 0,-1.66669 0,-2.52884c0,-0.90451 0,-1.8045 0,-2.71518c0,-0.91083 0,-1.61017 0,-2.58932c0,-0.79999 0,-1.60001 0,-2.60001c0,-0.79999 0,-1.79868 0,-2.74283c0,-0.90451 -0.07359,-1.82892 0.02083,-2.65717c0.11318,-0.99271 0.6366,-1.63699 0.858,-2.54285c0.17245,-0.70557 0.11533,-1.55399 0.56383,-2.53549c0.3278,-0.71738 1.19238,-1.34656 1.48534,-2.29633c0.27983,-0.90723 0.01191,-1.62701 0.07333,-2.74133c0.04252,-0.77142 0.34605,-1.54581 0.70316,-2.28851c0.48238,-1.00323 0.80989,-1.61002 1.0955,-2.28082c0.42143,-0.98981 0.68834,-1.81906 1,-2.63068c0.38565,-1.0043 0.69582,-1.66519 1.2,-2.68399c0.29754,-0.60123 0.69999,-1.39999 1.1,-2.20001c0.39999,-0.79999 0.9,-1.79999 1.2,-2.39999c0.4,-0.79999 0.82336,-1.58881 1.17917,-2.37915c0.3796,-0.8432 0.51355,-1.69055 1.08883,-2.50485c0.3883,-0.54962 1.08653,-1.35504 1.44667,-2.10532c0.39738,-0.82785 0.80172,-1.74643 0.98533,-2.38983c0.26854,-0.94095 1.3193,-1.20883 1.71467,-1.82217c0.5202,-0.80701 0.85894,-1.66174 1.23267,-2.49866c0.34488,-0.77234 0.79175,-1.43481 1.25267,-2.18533c0.43348,-0.70584 0.89025,-1.71957 1.2,-2.30402c0.3879,-0.73187 1.00912,-1.5661 1.69983,-2.31067c0.55035,-0.59326 0.8349,-1.43207 1.25283,-2.19998c0.45769,-0.84097 0.70766,-1.80319 1.258,-2.26401c0.68601,-0.5744 1.58765,-1.0087 2.02533,-1.65735c0.52705,-0.7811 1.03607,-1.35437 1.50267,-1.94266c0.73068,-0.92126 0.86726,-1.69089 1.472,-2.436c0.61708,-0.76031 1.58802,-0.93201 2.22267,-1.56665c0.63466,-0.63464 0.73209,-1.48132 1.46667,-2.12885c0.66222,-0.58374 1.55025,-0.71677 2.2,-1.22534c0.76804,-0.60114 1.24548,-1.34036 1.9,-1.8685c0.74625,-0.60214 1.7807,-0.74527 2.42533,-1.04666c0.70779,-0.33093 1.47815,-1.05966 2.27467,-1.44266c0.85162,-0.40952 1.50266,-0.72931 2.2,-1.42133c0.70268,-0.69733 1.18264,-1.2547 2.02133,-1.79984c0.65188,-0.42371 1.68379,-0.40482 2.392,-0.98419c0.62494,-0.51126 0.84006,-1.41425 1.38667,-2.23715c0.42606,-0.64142 1.05547,-1.33124 1.9,-1.84549c0.61308,-0.37332 0.87604,-1.40115 1.35717,-2.13333c0.52193,-0.79425 1.19255,-1.15378 1.8415,-1.90134c0.56168,-0.64703 0.6478,-1.47351 0.88533,-2.31467c0.24952,-0.88361 1.01599,-1.58401 1.616,-2.18402c0.60899,-0.60898 1.11433,-1.11432 1.84267,-1.84265c0.708,-0.70801 1.20667,-1.20667 1.68934,-1.68933c0.79733,-0.79733 1.45901,-1.45901 2.168,-2.168c0.60001,-0.60001 1.18201,-1.2186 1.909,-1.90451c0.49345,-0.46558 1.23193,-1.01926 1.94167,-1.52084c0.7422,-0.52454 1.62543,-1.13107 2.20767,-1.65381c0.66437,-0.5965 1.18641,-1.28189 1.94167,-1.91019c0.65657,-0.5462 1.5996,-0.77789 2.236,-1.22131c0.84881,-0.59143 1.41884,-0.86136 2.364,-1.556c0.61938,-0.4552 1.15028,-1.02216 1.97867,-1.81168c0.51299,-0.48892 1.35103,-0.858 2.196,-1.047c0.95178,-0.21286 1.42571,-0.79666 2.24667,-1.36401c0.83447,-0.57666 1.59888,-0.52554 2.4,-0.672c1.18992,-0.21756 1.78123,-0.50125 2.37866,-0.78934c0.90396,-0.43588 1.79012,-0.85992 2.691,-1.03949c0.82989,-0.16541 1.78129,-0.26309 2.58817,-0.60983c0.84831,-0.36453 1.7,-0.40872 2.63551,-0.50134c0.89626,-0.08875 1.44078,-0.58829 2.552,-0.99866c0.65807,-0.24301 1.45844,-0.40167 2.304,-0.63599c0.86661,-0.24014 1.70644,-0.50662 2.45732,-0.84668c1.0248,-0.46411 1.56956,-0.89902 2.65034,-1.27432c0.65779,-0.22842 1.76472,-0.15015 2.547,-0.27902c0.88187,-0.14529 1.52881,-0.60172 2.49066,-0.87997c0.7552,-0.21848 1.70209,-0.56177 2.48534,-0.80002c0.98074,-0.29834 1.8199,-0.25931 2.79733,-0.56934c0.59714,-0.18939 1.52997,-0.89362 2.22667,-1.27866c0.81288,-0.44922 1.58569,-0.40714 2.57516,-0.43634c0.86261,-0.02548 1.66374,-0.14145 2.66383,-0.4425c0.81001,-0.24384 1.23289,-0.41876 2.13167,-0.74249c0.92256,-0.33231 1.83444,-0.6572 2.71733,-0.92932c0.83736,-0.25809 1.6407,-0.47211 2.39999,-0.68402c1.06618,-0.29755 2.04623,-0.60742 2.67601,-0.76532c1.20303,-0.30161 1.80954,-0.34976 2.68983,-0.436c0.83571,-0.08188 1.83377,-0.28925 2.71016,-0.57468c0.8091,-0.26352 1.61017,-0.4043 2.41068,-0.42398c0.99521,-0.02448 1.94887,-0.01147 2.78532,-0.43735c0.61386,-0.31256 1.62305,-0.87756 2.15634,-1.04315c0.85248,-0.26468 2.05692,-0.43768 2.9375,-0.52084c0.56361,-0.05322 1.61136,-0.18716 2.52083,-0.52084c0.69405,-0.25464 1.68858,-0.68646 2.27867,-0.88983c0.67368,-0.23218 1.46288,-0.47836 2.90633,-0.91064c0.54793,-0.16409 1.1178,-0.32764 2.27333,-0.67868c0.56891,-0.17282 1.64528,-0.48807 2.54167,-0.83334c0.97359,-0.37503 1.70595,-0.89038 2.65717,-1.11398c0.7347,-0.1727 1.76593,-0.28568 2.50684,-0.66333c0.84648,-0.43146 1.40573,-0.9946 2.23599,-1.36401c0.78479,-0.34918 1.478,-0.76907 2.44667,-1.01065c0.83437,-0.20807 1.58389,-0.43958 2.368,-0.86536c0.78531,-0.42642 1.66966,-0.84436 2.40001,-1.19998c0.90952,-0.44287 1.31058,-1.05539 2.21866,-1.616c0.70819,-0.43719 1.51706,-0.85068 2.36667,-1.24933c0.86044,-0.40372 1.50113,-0.78738 2.2,-1.48401c0.60097,-0.59903 1.18486,-1.19495 2,-1.57468c0.88486,-0.4122 1.79869,-0.55734 2.43333,-1.19199c0.63466,-0.63464 0.7321,-1.48132 1.46667,-2.12885c0.66222,-0.58374 1.41478,-0.92902 1.86667,-1.7045c0.38686,-0.66388 1.32373,-1.18915 2.008,-1.60001c0.81146,-0.48724 1.23607,-1.08846 1.82533,-1.87917c0.47374,-0.63568 1.06071,-1.27884 1.70984,-1.82533c0.60094,-0.50592 1.41736,-1.17104 1.8795,-1.87016c0.52507,-0.79433 1.14874,-1.18112 1.88983,-1.84616c0.61998,-0.55635 0.46999,-1.56618 0.95683,-2.34317c0.45135,-0.72032 1.14305,-1.22887 1.564,-2.136c0.37051,-0.79845 0.80244,-1.38461 1.3045,-2.15266c0.45367,-0.69402 1.22772,-1.40523 1.83417,-1.97267c0.67998,-0.63623 0.66304,-1.49149 1.30432,-2.35333c0.47389,-0.63689 1.20088,-0.85454 1.95435,-1.508c0.59616,-0.51704 1.12361,-1.16774 1.43466,-2.19734c0.24094,-0.79752 0.22855,-1.6823 0.73866,-2.63199c0.39299,-0.73163 1.0499,-1.35387 1.62917,-2.10533c0.60867,-0.7896 0.98135,-1.34268 1.6335,-2.412c0.29314,-0.48067 0.68829,-1.22134 1.22134,-2.02133c0.68419,-1.02682 0.99611,-1.4006 1.63199,-2.23201c0.33284,-0.43518 1.01456,-1.31093 1.34668,-1.74666c0.9294,-1.21931 1.20094,-1.5925 1.69466,-2.29468c0.45525,-0.64746 1.26823,-1.87453 1.672,-2.46933c0.39633,-0.58385 0.95802,-1.42775 1.60001,-2.06934c0.56531,-0.56499 1.24945,-0.92999 2,-1.66666c0.64081,-0.62895 1.15866,-1.41992 1.51468,-1.89867c0.72192,-0.97076 1.24332,-1.56924 1.80731,-2.311c0.55127,-0.72504 0.96954,-1.30472 1.53534,-1.85966c0.96252,-0.94405 1.38443,-1.20738 2.20801,-1.776c0.81403,-0.56203 1.22925,-0.79219 2.26801,-1.48801c0.75879,-0.50829 1.50131,-1.06914 2.43066,-1.43333c0.58356,-0.22868 1.56757,-0.47775 2.18399,-0.7c1.0097,-0.36403 1.71887,-0.92087 2.47333,-1.61066c0.53583,-0.48988 1.34793,-1.08629 1.89334,-1.436c0.64297,-0.41228 1.42218,-0.85396 2.35199,-1.32001c1.06143,-0.53204 1.64297,-0.7838 2.23468,-1.04799c0.59763,-0.26685 1.7869,-0.77815 2.36267,-1.01601c1.06732,-0.44092 1.99271,-0.79681 2.77066,-1.09734c0.93387,-0.36076 1.78683,-0.83585 2.57999,-1.23599c0.83737,-0.42245 1.60455,-0.3345 2.50269,-0.72134c0.74344,-0.32022 1.65363,-0.91528 2.42432,-1.23549c0.56757,-0.23581 1.75919,-0.7988 2.35834,-1.12733c0.60086,-0.32947 1.47931,-0.84639 2.40018,-1.10918c0.89481,-0.25534 1.55283,-0.22267 2.86649,-0.57599c0.72885,-0.19603 1.45645,-0.52296 2.20801,-0.81601c0.7392,-0.28822 1.8013,-0.62502 2.48618,-0.74533c0.69882,-0.12277 1.46808,-0.18417 2.80582,-0.43866c0.52158,-0.09923 1.66663,-0.37598 2.28802,-0.528c0.64963,-0.15894 1.32336,-0.32657 2.02048,-0.49051c0.7149,-0.16812 2.94482,-0.63039 3.70352,-0.76283c0.75534,-0.13187 1.50385,-0.25027 2.23798,-0.3645c0.71387,-0.11108 1.40295,-0.21056 2.05801,-0.31949c1.72025,-0.28606 2.2001,-0.38841 3.40033,-0.68051c0.64688,-0.15742 1.72,-0.31982 2.58334,-0.54166c0.8999,-0.23122 1.32104,-0.92967 1.92566,-1.41118c0.83624,-0.66599 1.71524,-0.5011 2.59515,-1.08882c0.70593,-0.47153 0.91125,-1.35651 1.58218,-2.04317c0.62845,-0.64319 1.54065,-0.37051 2.43866,-0.97768c0.75702,-0.51184 1.19507,-1.0704 1.79016,-1.80566c0.59097,-0.73016 1.02533,-1.67749 1.60318,-2.07399c0.61227,-0.42012 1.75122,-1.11864 2.41199,-1.58401c0.34634,-0.24393 1.03745,-0.75339 1.72668,-1.22665c1.18494,-0.81364 1.7038,-1.06604 2.47998,-1.56534c0.88504,-0.56932 1.664,-1.18806 2.31335,-1.61333c0.70108,-0.45914 1.2695,-1.097 1.90799,-1.83601c0.39169,-0.45337 1.24329,-1.18701 1.98184,-1.70149c0.39221,-0.27322 1.21454,-0.79877 2.03415,-1.2825c1.07977,-0.63728 1.67514,-0.96268 2.41867,-1.34799c1.02655,-0.532 1.63199,-0.82133 2.43201,-1.22134c1,-0.5 1.60172,-0.79663 2.60016,-1.30017c0.61154,-0.30843 1.26242,-0.6478 2.2215,-1.22116c0.8298,-0.49608 1.41351,-0.87581 2.065,-1.19467c1.01794,-0.49823 1.76315,-0.73601 2.51334,-0.96317c0.74463,-0.22548 2.17868,-0.61891 2.83383,-0.81633c0.60416,-0.18205 1.84866,-0.47517 2.62451,-0.7045c0.76208,-0.22525 1.25995,-0.9026 2.10416,-1.5c0.86731,-0.61375 1.48877,-0.70676 2.45834,-1c0.67691,-0.20473 1.64581,-0.5 2.46033,-0.7955l0.85266,-0.34734" id="svg_1" stroke-width="2" stroke="#000" fill="none"/>
  <path t="20177,20617,20625,20657,20697,20721,20761,20849,20865,20873,20900,20900,20916,20950,20983,20983,21001,21001,21034,21066,21066,21100,21100,21101,21133,21133,21133,21166,21200,21200,21201,21234,21234,21266,21267,21285,21385,21393,21404,21441,21441,21537,21561,21561,21585,21625,21641,22001,22001,22025,22033,22051,22073,22177,22201,22233,22329,22345,22345,22369,22641,22649,22657,22673,22683,22700,22716,22733,22761,22793,22793,22817,22873,23001,23001,23009,23020,23034,23052,23073,23073,23097,23121,23137,23177,23177,23193,23217,23225,23225,23241,23273,23273,23297,23297,23313,23329,23353,23369,23385,23441,23441,23489,23489,23497,23513,23513,23529,23553,23577,23601,23617,23617,23641,23681,23769,23769,23785,23833,23889,23889,23897,23913,23937,23961,23969,24009,24017,24039,24052,24073,24085,24107,24121,24121,24137,24137,24158,24182,24209,24225,24234,24234,24265,24281,24291,24315,24315,24324,24324,24337,24357,24368,24392,24404,24433,24433,24465,24481,24505,24529,24553,24561,24577,24593,24593,24601,24625,24649,24665,24681,24697,24713,24713,24729,24729,24737,24753,24777,24793,24801,24817,24834,24834,24857,24857,24881,24905,24913,24937,24937,24969,24969,24993,25009,25017,25034,25057,25081,25089,25113,25129,25161,25185,25185,25201,25201,25217,25249,25265,25265,25281,25289,25313,25313,25321,25336,25352,25353,25366,25383,25409,25409,25425,25425,25441,25457,25481,25505,25505,25505,25521,25534,25551,25567,25584,25584,25584,25601,25617,25617,25617,25634,25651,25651,25651,25667,25684,25684,25701,25717,25734,25734,25751,25751,25767,25784,25784,25801,25801,25817,25817,25817,25834,25834,25834,25851,25867,25867,25884,25884,25901,25901,25920,25921,25936,25937,25951,25967,25984,26001,26001,26017,26017,26017,26034,26051,26072,26073,26073,26088,26089,26104,26117,26134,26134,26151,26167,26184,26201,26217,26217,26234,26251,26267,26284,26284,26301,26301,26317,26317,26317,26334,26334,26351,26367,26367,26384,26384,26401,26401,26417,26417,26434,26434,26451,26451,26451,26467,26484,26484,26501,26517,26517,26534,26534,26552,26553,26568,26584,26601,26617,26634,26634,26651,26667,26684,26684,26701,26717,26734,26734,26750,26767,26767,26784,26784,26800,26817,26834,26850,26850,26867,26884,26900,26917,26934,26934,26952,26967,26967,26992,27008,27032,27040,27064,27088,27104,27120,27121,27128,27152,27168,27184,27208,27232,27233,27248,27249,27264,27296,27320,27336,27337,27392,27424,27528,27536,27592,27592,27656,27672,27688,27760,27776,27776,27792,27808,27832,27850,27888,27904,27920,27952,28024,28024,28064,28096,28128" d="m379,146c-1.60001,-0.57466 -2.41025,-1.07445 -3.02533,-1.57466c-0.61987,-0.50412 -1.42059,-0.57065 -2.05869,-1.14134c-0.65176,-0.58293 -1.21869,-1.17517 -1.90131,-1.70934c-0.59988,-0.46945 -1.53693,-0.58054 -2.06284,-1.27916c-0.47894,-0.6362 -1.09811,-1.35625 -1.65186,-2.05267c-0.54837,-0.68967 -0.90079,-1.38077 -1.59549,-2.1375c-0.62122,-0.67668 -0.6944,-1.3689 -0.87115,-2.272c-0.15515,-0.79266 -0.46048,-1.59654 -0.66669,-2.66666c-0.17581,-0.91245 -0.16599,-1.68001 -0.16666,-2.6875c-0.00055,-0.81251 0,-1.72984 0,-2.47384c0,-1.036 0,-1.888 0,-2.83067c0,-0.69067 -0.00546,-1.76402 0,-2.67467c0.00534,-0.88938 0.64893,-1.44447 0.94733,-2.20983c0.29752,-0.76305 0.47,-1.67147 1.15268,-2.39017c0.58438,-0.61522 1.28482,-1.14197 1.77866,-1.99983c0.42453,-0.73749 1.0751,-1.1423 1.82135,-1.5475c0.76111,-0.41328 1.86075,-0.39804 2.32532,0.258c0.50876,0.71844 1.207,1.07081 1.89066,1.67333c0.59766,0.52675 1.19583,1.15835 2.08401,1.54934c0.65765,0.28951 1.61951,0.16491 2.39999,0.592c0.82108,0.4493 1.53644,0.21254 2.10001,-0.42533c0.5155,-0.58349 1.2045,-1.05267 2,-1.5c0.7955,-0.44733 1.3555,-0.99612 1.78534,-1.7c0.41245,-0.67538 1.27579,-1.25736 1.66199,-2.10001c0.35233,-0.76874 0.51434,-1.65406 1.10535,-2.34283c0.56589,-0.65947 1.49893,-0.83882 1.89465,-1.65717c0.41797,-0.86438 1.03967,-1.11986 1.76733,-1.784c0.59595,-0.54391 0.89331,-1.51863 1.48535,-2.116c0.59729,-0.60268 1.36102,-1.25741 1.74731,-2.10001c0.35236,-0.76859 0.92361,-1.28537 1.65268,-1.76133c0.79901,-0.52164 1.04791,-1.3273 1.60001,-2.05334c0.55072,-0.72425 1.21146,-1.27117 1.71597,-2.084c0.45706,-0.73639 0.92352,-1.31087 1.44119,-2.10133c0.52069,-0.79505 1.14282,-1.19998 1.84283,-1.89999c0.59998,-0.6 1.1828,-1.21761 1.89999,-1.89983c0.58633,-0.55774 1.35614,-1.02804 1.95267,-1.5475c0.65363,-0.56917 1.45248,-0.86823 2.14734,-1.55267c0.60449,-0.59544 1.1395,-1.29539 2,-1.716c0.85385,-0.41735 1.51514,-0.69713 2.39999,-1.10933c0.81512,-0.37972 1.31729,-1.07824 2,-1.53867c0.82172,-0.55418 1.78934,-0.44666 2.39999,-0.936c0.61066,-0.48933 1.36844,-0.64409 2.05267,-1.14733c0.6662,-0.48999 1.65961,-0.38737 2.34732,-0.778c0.81543,-0.46319 1.79855,-0.37676 2.51733,-0.85867c0.65915,-0.44193 1.34711,-0.55242 2.3255,-1.07317c0.62808,-0.3343 1.17227,-1.3174 2.05716,-1.58566c0.86304,-0.26164 1.8013,-0.00937 2.70001,-0.05717c0.80341,-0.04272 1.42157,-0.70332 2.39999,-0.964c0.87491,-0.2331 1.76801,-0.19924 2.42535,-0.46133c1.0101,-0.40275 1.76392,-0.56934 2.67465,-0.57467c0.89996,-0.00527 1.79999,0 2.70001,0c0.89999,0 1.79999,0 2.59998,0c0.90002,0 1.80002,0 2.70001,0c0.89999,0 1.79999,0 2.70001,0c0.89999,0 1.79999,0 2.59998,0c0.90002,0 1.80002,0 2.70001,0c0.89999,0 1.79999,0 2.70132,0c0.96533,0 1.79868,0 2.63202,0c0.86215,0 1.76666,0 2.66666,0c0.89999,0 1.79999,0 2.70001,0c0.89999,0 1.79999,0 2.55716,0c0.89551,0 1.77835,-0.1733 2.72198,0.02084c0.86722,0.17841 1.61472,0.91828 2.52084,0.97916c0.75546,0.05077 1.65268,0 2.51599,0c0.96317,0 1.87335,0.01067 2.48401,0.5c0.61066,0.48933 1.5,0.49774 2.39999,0.5c0.89551,0.00225 1.53998,0.57915 2.21066,1.02533c0.74469,0.49543 1.55817,0.79758 2.38934,0.97467c0.98117,0.20905 1.58572,0.58244 2.5,1c0.79691,0.36397 1.42712,1.08932 2.10001,1.564c0.7348,0.51836 1.52731,0.84488 2.39999,1.26933c0.65967,0.32085 1.39197,0.74798 1.95184,1.46217c0.53949,0.68819 1.34305,0.75687 2.06284,1.27917c0.70154,0.50905 1.31781,1.26228 2.00616,1.42533c0.9563,0.22652 1.40805,0.83408 2.00449,1.564c0.52942,0.64791 1.4299,0.84 1.97467,1.60266c0.44791,0.62708 0.66867,1.4612 1.39999,2.18667c0.6936,0.68805 1.50055,1.00784 1.60135,1.848c0.11667,0.97241 0.39313,1.64762 0.79999,2.31467c0.54507,0.89365 1.20554,1.64654 1.59866,2.30933c0.40717,0.68647 1.04138,1.51961 1.60001,2.34133c0.43323,0.63729 0.80032,1.3491 1.2955,2.07617c0.58356,0.85688 0.82571,1.5355 1.27914,2.35716c0.43677,0.79147 0.61115,1.73823 0.94617,2.4c0.43414,0.85765 1.07233,1.42422 1.42651,2.3045c0.33209,0.82533 0.59973,1.67819 0.88599,2.52884c0.27393,0.81397 0.60876,1.70985 1.01733,2.42799c0.29828,0.52425 0.90247,1.55174 1.07733,2.492c0.13953,0.7503 0.01654,1.76916 0.29352,2.568c0.30725,0.88613 0.95752,1.6073 1.34253,2.304c0.44922,0.81287 0.41766,1.58545 0.43616,2.5745c0.01459,0.77946 0.28528,1.74424 0.64716,2.49567c0.41956,0.87122 0.27063,1.80916 0.35718,2.609c0.11188,1.03381 0.57025,1.69398 0.8288,2.6955c0.20044,0.77644 0.18884,1.54221 0.59204,2.364c0.42749,0.87129 0.74329,1.80193 1,2.472c0.29291,0.76448 0.54211,1.75818 0.57013,2.50684c0.03815,1.02046 -0.12714,2.00723 0.22583,2.75717c0.36505,0.77554 0.76801,1.5 0.77869,2.39999c0.01068,0.89999 0.50049,1.71881 0.83331,2.5c0.32019,0.75154 0.15649,1.70006 0.16669,2.60001c0.01044,0.92101 0.30212,1.87665 0.57465,2.57466c0.3645,0.93349 0.4231,1.63515 0.42535,2.59467c0.00177,0.7515 0,1.548 0,2.769c0,0.8 0,1.709 0,2.62834c0,0.83333 0,1.812 0,2.586c0,0.9045 0,1.65182 0,2.64732c0,0.8 -0.04736,1.80264 0.02081,2.60001c0.08612,1.00691 0.44861,1.77319 0.69519,2.51466c0.32184,0.96776 0.284,1.96933 0.284,2.66c0,1.07266 0,1.992 0,2.82533c0,0.97867 0,1.75267 0,2.65266c0,0.86334 0,1.82651 0,2.64734c0,0.89999 0,1.8 0,2.7c0,0.8 0,1.7 0,2.636c0,0.84799 0,1.71133 0,2.728c0,0.836 0,1.73618 0,2.52133c0,0.94 0,1.948 0,2.74001c0,0.85866 0,1.722 0,2.73866c0,0.836 0,1.73601 0,2.636c0,0.8 0,1.7 0,2.60001c0,0.89999 0,1.81065 0,2.72133c0,0.85333 0,1.79333 0,2.67867c0,0.8 0,1.7 0,2.60001c0,0.89999 0,1.79999 0,2.7c0,0.89999 0,1.8 0,2.7c0,0.8 0,1.7 0,2.60001c0,0.89999 0.09399,1.84708 -0.35266,2.7c-0.39392,0.75223 -0.64508,1.45715 -0.64734,2.35266c-0.0022,0.86334 0.14551,1.83978 -0.01068,2.74733c-0.14337,0.83316 -0.73151,1.63449 -1.0733,2.40001c-0.33197,0.74355 -0.88739,1.49864 -0.91602,2.39999c-0.02856,0.89955 0,1.8 0,2.60001c0,0.89999 -0.14624,1.92299 0.43597,2.58932c0.6106,0.69879 1.62091,0.90036 2.26404,1.25801c0.85309,0.4744 1.74011,0.75598 2.216,1.55133c0.41394,0.69183 1.06848,1.21785 1.58398,1.80133c0.56354,0.63788 1.30621,1.06076 1.5,2c0.16254,0.78795 0.5,1.5 0.96399,2.39999l0.04053,0.90001" id="svg_3" stroke-width="2" stroke="#000" fill="none"/>
  <path t="34944,35144,35152,35184,35200,35216,35224,35224,35240,35256,35256,35266,35282,35299,35376,35392,35408,35432,35440,35440,35528,35536,35552,35576,35576,35584,35608,35656" d="m514,253c1.79999,0 2.71979,0.1571 3.5,-0.02083c0.96204,-0.21939 1.59839,-0.87025 2.5,-0.97917c0.79871,-0.0965 1.48846,-0.56841 2.32135,-1.09984c0.6554,-0.4182 1.82092,-0.48685 2.51196,-1.06683c0.62103,-0.52122 1.27106,-0.74464 2.16669,-0.83333c0.8457,-0.08374 1.34418,-0.7905 2.09998,-1.2215c0.66913,-0.38158 1.33398,-1.15082 1.81604,-1.97717c0.40686,-0.69739 0.96265,-1.244 1.13666,-2.09599l0.55798,-0.72l0.77869,-0.42134l0.48932,-0.664" id="svg_4" stroke-width="2" stroke="#000" fill="none"/>
  <path t="36857,37104,37136,37160,37168,37184,37208,37224,37248,37288,37328,37368,37432,37432,37448,37448,37464,37472,37488,37513,37521,37552,37576,37600,37608,37640,37664,37680,37681,37712" d="m514,255c0.05719,1.70001 0.5376,2.45248 1.29547,2.94733c0.69543,0.45407 1.30316,1.06177 1.7572,1.75717c0.49487,0.75787 1.28827,1.18399 1.922,1.72083c0.59351,0.50275 1.45605,0.51224 2.34668,0.79602c0.69897,0.22272 1.65063,0.71646 2.47729,0.77731c0.89893,0.06616 1.6394,0.16415 2.25403,0.64868c0.64941,0.51199 1.64734,0.35266 2.5473,0.35266c0.90002,0 1.80005,0 2.70001,0c0.90002,0 1.79999,0 2.70001,0l0.79999,0l0.90002,0" id="svg_5" stroke-width="2" stroke="#000" fill="none"/>
  <path t="38761,38960,38985,38992,39016,39032,39056,39056,39065,39088,39112,39112,39128,39136,39152,39168,39168,39185,39201,39201,39216,39232,39250,39250,39273,39273,39289,39299,39336,39360,39376,39376,39400,39409,39409,39424,39432,39450,39466,39482,39499,39516,39517,39532,39549,39566,39567,39582,39600,39616,39617,39632,39632,39633,39633,39650,39650,39666,39667,39682,39683,39699,39700,39716,39717,39732,39733,39749,39750,39750,39766,39782,39783,39799,39800,39816,39817,39833,39833,39850,39850,39866,39882,39899,39916,39917,39932,39952,39952,39968,39984,40000,40000,40016,40032,40049,40066,40082,40104,40136,40136,40176,40176,40192,40224,40512,40536,40552,40568,40577,40608,40608,40648,40648,40648,40696,40696,40728,40728,40760,40800,40800,40824,40824,40832,40857,40880,40888,40920,40944,40944,40953,40968,40992,41016,41025,41040,41064,41080,41080,41096,41112,41144,41153,41168,41192,41216,41216,41232,41232,41241,41256,41280,41296,41296,41304,41304,41320,41333,41350,41367,41384,41384,41408,41408,41417,41417,41440,41450,41466,41482,41500,41517,41533,41533,41550,41567,41567,41583,41608,41617,41617,41640,41650,41667,41683,41700,41716,41717,41732,41733,41752,41776,41776,41792,41800,41817,41833,41833,41850,41867,41883,41883,41900,41900,41928,41928,41936,41960,41976,42000,42016,42024,42040,42040,42072,42088,42096,42112,42112,42136,42152,42224,42232,42272,42272,42296,42320,42336,42368,42368,42384,42408,42440,42480,42512,42512,42536,42592,42648,42648,42736,42888,42904,43008,43032,43041,43057,43057,43088" d="m533,244c1.70001,-0.9955 2.61914,-0.83478 3.5,-1.02083c0.84741,-0.17899 1.59387,-0.91829 2.5,-0.97917c0.79822,-0.05363 1.45148,-0.33101 2.16669,-0.83333c0.69543,-0.48843 1.63348,-0.14868 2.53333,-0.16667c0.90051,-0.01801 1.69232,-0.44423 2.39996,-1.09984c0.59363,-0.54997 1.43817,-0.84688 2.38403,-1.18416c0.70581,-0.25168 1.72437,-0.45807 2.39484,-0.93733c0.70459,-0.50368 1.354,-0.6716 2.23584,-1.06267c0.7395,-0.32796 1.61218,-0.53004 2.48529,-0.752c0.8623,-0.21921 1.65619,-0.744 2.40002,-1.13068c0.78326,-0.40717 1.28925,-1.14423 2,-1.83333c0.59119,-0.5732 1.49518,-0.79596 2.19867,-1.28534c0.78461,-0.54582 1.08313,-1.38716 1.67999,-1.93599c0.64008,-0.58855 1.33685,-1.04652 1.92133,-1.58c0.71973,-0.65689 1.47858,-0.94211 2.29987,-1.42017c0.62805,-0.36559 0.8161,-1.44489 1.33612,-2.1785c0.55823,-0.78754 1.23602,-1.27202 1.89734,-1.93333c0.43469,-0.43468 1.16675,-1.16661 1.66138,-1.66133c0.86224,-0.8624 1.56305,-1.43173 1.88416,-2.32668c0.23413,-0.65262 0.55273,-1.66983 1.12115,-2.15784c0.74298,-0.63788 0.96649,-1.31091 1.36169,-2.17349c0.33386,-0.72874 1.13593,-1.44537 1.81299,-1.97267c0.67261,-0.52385 1.24829,-1.16795 1.53864,-1.89067c0.38202,-0.95103 0.53577,-1.98627 0.89734,-2.65866c0.44574,-0.82889 1.05835,-1.41486 1.30536,-2.31067c0.19495,-0.70714 0.25,-1.73814 0.6048,-2.49384c0.41626,-0.88654 1.22028,-1.54478 1.44318,-2.42082c0.22211,-0.87291 -0.11749,-1.84846 0.2027,-2.60001c0.33282,-0.78119 0.82288,-1.52066 0.83331,-2.48399c0.00745,-0.69063 0,-1.75883 0,-2.61601c0,-0.89999 0,-1.7 0,-2.59999c0,-0.90001 0,-1.8 0,-2.7c0,-0.90001 0,-1.80135 0,-2.76668c0,-0.83333 -0.18549,-1.69954 0.05719,-2.52882c0.25793,-0.88135 0.71655,-1.63185 0.94415,-2.50317c0.2085,-0.79808 1.19867,-0.80133 2.09863,-0.80133c0.90002,0 1.75427,0.32872 1.90002,1.04167c0.19482,0.953 0.38562,1.77531 0.80133,2.47299c0.53638,0.90018 1.05579,1.33591 1.58801,2.31067c0.36591,0.67007 0.5592,1.69029 0.83197,2.496c0.23523,0.69492 0.69031,1.65298 0.77734,2.47733c0.09485,0.89824 0.6875,1.62372 0.94415,2.50134c0.25311,0.86555 0.05719,1.8 0.05719,2.7c0,0.8 0,1.7 0,2.60001c0,0.89999 0,1.79999 0,2.7c0,0.89999 0,1.8 0,2.7c0,0.8 0,1.7 0,2.60001c0,0.89999 0,1.79999 0,2.7c0,0.90134 0,1.86667 0,2.52533c0,1.008 0.01044,1.87022 0,2.77467c-0.01044,0.90018 -0.4928,1.64017 -0.83331,2.56667c-0.23163,0.63028 0.0188,1.69954 -0.22388,2.52882c-0.25793,0.88135 -0.81042,1.65694 -1.29547,2.25183c-0.54572,0.6693 -0.59894,1.5421 -0.68335,2.26334c-0.11694,0.99956 -0.51709,1.74965 -0.7973,2.62267c-0.27191,0.84706 -0.6012,1.5611 -1.0827,2.36534c-0.44519,0.74361 -0.91351,1.25336 -1.09467,2.20132c-0.15869,0.83038 -0.74518,1.62917 -1.04199,2.3c-0.37506,0.84764 -1.25488,1.42139 -1.66199,2.10001c-0.44147,0.73595 -0.72955,1.59229 -1.38519,2.3c-0.54993,0.59361 -0.72021,1.50853 -1.25732,2.1955c-0.5816,0.7439 -1.38379,1.03754 -2,1.65633c-0.6283,0.63094 -1.08362,1.10876 -1.7428,2.02667c-0.46045,0.64117 -1.24017,1.1273 -1.73334,2.0215c-0.36572,0.66318 -0.77417,1.48268 -1.45203,1.91467c-0.77478,0.49377 -1.83954,0.2774 -2.41467,0.78983c-0.62878,0.56024 -1.45306,1.043 -2.29999,1.46217c-0.69513,0.34406 -1.32483,0.92746 -2,1.33333c-0.9837,0.59132 -1.52454,1.23878 -2.40002,1.464c-0.8681,0.22331 -1.40979,0.69981 -2.12079,1.01517c-0.89594,0.39735 -1.698,0.52132 -2.47919,0.85416c-0.75153,0.32019 -1.70099,0.22212 -2.5,0.66667c-0.80096,0.44562 -1.53125,0.8369 -2.29999,1.216c-0.84521,0.41681 -1.8252,0.27202 -2.60004,0.70932c-0.72626,0.40988 -1.55823,0.80862 -2.29999,1.22202c-0.76367,0.42563 -1.5033,0.89587 -2.39996,1.23117c-0.85065,0.31808 -1.69403,0.2171 -2.40002,0.62149c-0.79346,0.45447 -1.70001,0.5 -2.59998,0.5c-0.90002,0 -1.7002,-0.0173 -2.60004,0c-0.93652,0.01801 -1.77679,0.30182 -2.47467,0.57468c-0.93097,0.36398 -1.92969,0.33664 -2.82532,0.42532c-0.8457,0.08374 -1.28534,0.91467 -2.09998,1.00015l-0.90002,0.1665l-0.70001,0.48068l-0.79999,0.35266" id="svg_6" stroke-width="2" stroke="#000" fill="none"/>
  <path t="44928,45096,45128,45128,45160,45192,45208,45216,45240,45240,45296,45304,45320,45344,45504,45504,45640,45648,45928,45928,46024,46064,46080,46080,46104,46128,46136,46152,46168,46168,46182,46200,46216,46216,46232,46233,46256,46280,46280,46288,46288,46312,46312,46320,46332,46349,46368,46408,46416,46424,46480,46576,46608,46608,46632,46648,46664,46688,46688,46728,46776" d="m537,263c0,1.82535 0,2.83334 0,3.6955c0,0.90451 0.14209,1.8175 -0.01068,2.7045c-0.14349,0.83316 -0.75177,1.62628 -1.04199,2.30002c-0.36261,0.84177 -0.72205,1.62704 -0.94867,2.49866c-0.20856,0.80225 -1.21417,1.06918 -1.79865,1.60266c-0.71973,0.65689 -1.4671,0.96243 -2.29999,1.42017c-0.67505,0.371 -1.20447,1.34656 -2,1.65701c-0.84607,0.33017 -1.67743,0.24582 -2.5,0.69617c-0.78046,0.42728 -1.70654,0.31836 -2.60004,0.42667c-0.91974,0.11148 -1.5119,0.61884 -2.39996,1.02399c-0.82245,0.37518 -1.55804,0.87161 -2.40002,0.95383c-0.97412,0.09512 -1.78271,0.13522 -2.52081,0.52084c-0.78485,0.41006 -1.65552,0.44409 -2.59521,0.50134c-0.77112,0.04697 -1.69452,0.46188 -2.39996,0.71466c-1.01904,0.36514 -1.4783,1.10208 -2.28534,1.28265c-0.87698,0.19623 -1.79871,-0.00406 -2.69867,0.00134c-0.8894,0.00534 -1.37955,0.72635 -2.14667,0.98932c-0.79214,0.27158 -1.70065,0.01068 -2.59616,0.01068c-0.95718,0 -1.85718,0 -2.75717,0l-0.79999,0l-0.90002,0l-0.89999,0" id="svg_7" stroke-width="2" stroke="#000" fill="none"/>
  <path t="47384,47743,47767,47791,47807,47839,47871,47887,47911,47911,47935,47951,47967,47999,48031,48039,48071,48103,48103,48135,48151,48183,48199,48207,48231,48239,48255,48255,48271,48295,48335,48351,48375,48399,48415,48439,48439,48455,48471,48479,48503,48519,48527,48535,48559,48559,48567,48583,48600,48616,48639,48650,48650,48666,48688,48703,48727,48727,48727,48743,48759,48775,48783,48783,48800,48816,48833,48850,48850,48866,48883,48900,48900,48916,48933,48950,48950,48966,48983,49000,49000,49016,49033,49033,49050,49066,49066,49088,49088,49111,49111,49111,49120,49133,49150,49165,49166,49183,49183,49183,49200,49200,49216,49216,49216,49233,49233,49250,49250,49265,49282,49283,49299,49300,49316,49333,49349,49350,49365,49366,49384,49384,49399,49400,49416,49416,49416,49433,49433,49449,49450,49471,49471,49482,49500,49515,49532,49549,49565" d="m495,286c-0.99551,1.70001 -1,2.60001 -1,3.5c0,0.89999 0,1.79999 0,2.70001c0,0.89999 0,1.79999 0,2.59998c0,0.90002 0,1.80002 0,2.70001c0,0.89999 0,1.79999 0,2.70001c0,0.89999 0,1.79999 0,2.59998c0,0.90002 0,1.80002 0,2.70001c0,0.89999 0,1.79999 0,2.70001c0,0.89999 0,1.79999 0,2.59998c0,0.90002 0,1.80002 0,2.70001c0,0.89999 0,1.79999 0,2.70001c0,0.89999 0,1.79999 0,2.59998c0,0.90002 0,1.80002 0,2.70001c0,0.89999 0,1.79999 0,2.70001c0,0.89999 0,1.79999 0,2.59998c0,0.90002 0.00534,1.80005 0,2.70001c-0.00534,0.90005 -0.50052,1.71878 -0.83334,2.5c-0.32019,0.75153 -0.22305,1.70044 -0.66666,2.5c-0.44656,0.80493 -0.63458,1.68069 -0.936,2.32535c-0.33093,0.70776 -1.1608,1.43988 -1.47867,2.37466c-0.29105,0.8559 0.08823,1.83823 -0.17065,2.59998c-0.30176,0.88794 -0.78015,1.60989 -0.91916,2.5c-0.1279,0.819 -0.77039,1.33752 -1.38486,2.10001c-0.60101,0.74576 -0.8446,1.55829 -1.258,2.30002c-0.42563,0.76367 -0.70578,1.60373 -1.35266,2.29999c-0.56049,0.60327 -0.88495,1.44318 -1.35266,2.29999c-0.40686,0.74533 -0.7023,1.51843 -1.16818,2.22086c-0.54602,0.82327 -0.84421,1.58426 -1.57898,2.23633c-0.67838,0.60202 -1.03241,1.15689 -1.61002,1.89999c-0.44781,0.57614 -1.14423,1.32928 -1.65417,2.13217c-0.45337,0.71381 -0.85959,1.55829 -1.73581,2.08932c-0.72772,0.44107 -1.02625,1.15411 -1.54684,1.75732c-0.62836,0.72803 -1.17868,1.18936 -1.86932,1.88c-0.73135,0.73135 -1.23022,1.24316 -1.96933,1.96802c-0.53094,0.52069 -1.09021,1.06799 -1.91336,1.63065c-0.74347,0.50818 -1.60709,0.95419 -2.29681,1.58536c-0.62598,0.57281 -1.02774,1.4873 -1.47385,2.09998c-0.53503,0.7348 -1.37521,0.83273 -2.41998,1.22534c-0.73419,0.27591 -1.37418,1.0159 -2.04666,1.57468c-0.6525,0.54214 -1.39667,0.8497 -2.34268,1.5c-0.5415,0.37222 -1.33356,1.01669 -2.04218,1.39999c-0.96704,0.52307 -1.62616,0.72873 -2.32199,1.25717c-0.84357,0.64066 -1.09598,1.552 -1.85849,2.07349c-0.60172,0.4115 -1.60889,0.63367 -2.31467,0.88535c-0.94583,0.33728 -1.784,0.63666 -2.58383,1.16266l-0.77884,0.34268l-0.47852,0.7215l-0.84283,0.0585" id="svg_8" stroke-width="2" stroke="#000" fill="none"/>
  <path t="50264,50455,50503,50543,50551,50566,50582,50599,50616,50616,50655,50687,50687,50727,50751,50751,50775,50783,50800,50823,50839,50839,50850,50865,50887,50899,50915,50935,50967,50983,50983,51015,51047,51063,51079,51103,51135,51143,51175,51175,51199,51231,51231,51247,51255,51271,51287,51304,51304,51315,51335,51349,51367,51383,51399,51415,51416,51432,51433,51449,51465,51487,51499,51520,51520,51543,51583,51591,51615,51631,51671,51679,51703,51783,51783,51895,52567,52575,52591,52599,52599,52615,52616,52633,52663,52703,52719,52743,52743,52791,52791,52807,52815,52815,52831,52839,52855,52887,52895,52911,52927,52951,52951,53167,53183,53199,53215,53215,53223,53233,53249,53266,53266,53266,53283,53299,53299,53316,53316,53316,53333,53333,53349,53366,53366,53383,53383,53383,53399,53399,53399,53416,53416,53416,53433,53433,53433,53449,53449,53449,53503,53503,53535,53543,53567,53583,53583,53599,53607,53623,53647,53663,53695,53735,53751,53751,53759,53775,53783,53799,53816,53833,53833,53833,53849,53849,53866,53866,53866,53883,53883,53883,53899,53899,53899,53916,53916,53916,53933,53933,53933,53949,53949,53949,53966,53966,53983,53983,53999,54016,54040,54040,54049,54049,54066,54096" d="m446,386c1.70001,0 2.70007,-0.01068 3.60001,0c0.87933,0.01044 1.40646,0.60269 2.10449,1.05267c0.77582,0.50012 1.39551,1.04733 1.99551,1.64734c0.69998,0.69998 1.30096,1.29901 1.89999,1.89999c0.69662,0.69885 1.31497,1.38739 1.39865,2.19998c0.09222,0.89529 -0.16385,1.81921 0.02219,2.70001c0.17899,0.84738 0.91699,1.59238 0.97781,2.29999c0.07709,0.89673 0.00134,1.80002 0.00134,2.70001c0,0.89999 0,1.79999 0,2.70001c0,0.89999 0,1.79999 0,2.59998c0,0.90002 0,1.80002 0,2.70001c0,0.89999 0,1.79999 0,2.70001c0,0.89999 0,1.79999 0,2.59998c0,0.95718 0,1.85269 0,2.716c0,0.96317 0,1.784 0,2.68402c0,0.89999 0,1.79999 0,2.59998c0,0.90002 0,1.80002 0,2.70001c0,0.89999 0,1.79999 0,2.70132c0,0.96533 -0.03873,1.79944 0.00015,2.77716c0.02859,0.71872 0.68604,1.44388 0.94269,2.3215c0.25311,0.8656 -0.16589,1.87186 0.22382,2.70001c0.35687,0.75839 1.53311,0.86951 1.82266,1.61066c0.34735,0.88904 0.82877,1.38364 1.00934,2.19067c0.19623,0.87698 0.06784,1.72729 0.70584,2.3085c0.62259,0.56717 1.07684,1.2081 1.25949,2.25418c0.1611,0.9227 0.31296,2.05182 -0.32565,2.58331c-0.6413,0.53372 -1.82339,0.36951 -2.39532,1.15268c-0.43649,0.59769 -0.0593,1.6265 -0.27902,2.5c-0.21704,0.86279 -0.87265,1.60059 -0.96414,2.50015c-0.07993,0.78574 -0.30524,1.58118 -0.80118,2.41583c-0.44897,0.75558 -1.11365,1.47141 -1.19733,2.284c-0.09222,0.89529 0.00061,1.81964 -0.42667,2.60001c-0.45038,0.8226 -0.31747,1.82559 -0.79602,2.47867c-0.51392,0.70135 -1.13809,1.27368 -1.49466,1.92133c-0.47552,0.86368 -1.1705,1.48395 -1.98401,1.08569c-0.75641,-0.37027 -1.12125,-1.37869 -1.26398,-2.24969c-0.15146,-0.92435 0.06696,-1.86108 -0.20267,-2.80264c-0.19589,-0.68414 -0.67368,-1.32388 -1.22269,-2.20801c-0.47897,-0.77133 -0.60022,-1.64603 -0.61066,-2.62534c-0.00851,-0.79996 0,-1.60001 0,-2.59549c0,-0.74734 0.06442,-1.79907 -0.22134,-2.72601c-0.2218,-0.71939 -0.63333,-1.67508 -0.75333,-2.48917c-0.09494,-0.64423 -0.22479,-1.61685 -0.46133,-2.41467c-0.24579,-0.82907 -0.66064,-1.8548 -0.96399,-2.54932c-0.29675,-0.67944 -0.7186,-1.64014 -0.98935,-2.45068c-0.27252,-0.81589 -0.48892,-1.85321 -0.61066,-2.75381c-0.08374,-0.61954 -0.30151,-1.64481 -0.7045,-2.36368c-0.52588,-0.93808 -1.4942,-1.18918 -2.12885,-1.82382c-0.63464,-0.63464 -0.57886,-1.53256 -1.16666,-2.3125c-0.4931,-0.65427 -1.56912,-0.85635 -1.87851,-1.62085c-0.3407,-0.84183 -0.51901,-1.56964 -1.03748,-2.18533c-0.56039,-0.6655 -0.93585,-1.48328 -1.07953,-2.41467c-0.13721,-0.8895 0.25763,-1.8428 -0.01517,-2.68933c-0.22723,-0.7052 -1.12329,-1.26047 -1.37866,-1.90799c-0.29358,-0.74442 -0.53018,-1.77753 -0.58981,-2.68182c-0.0672,-1.01883 -0.02048,-1.83151 -0.02084,-2.478c-0.00067,-1.22818 0.00082,-2.06543 -0.05716,-2.64734c-0.11963,-1.20062 -0.37305,-2.08359 -0.51752,-2.65952c-0.2677,-1.06711 -0.40344,-2.01013 -0.42084,-2.68866c-0.02481,-0.96835 0.02643,-1.77609 -0.06165,-2.59467c-0.11169,-1.03815 -0.47809,-1.92065 -0.65884,-2.55133c-0.28287,-0.98697 -0.28174,-1.80133 -0.284,-2.80002c-0.00211,-0.94415 0,-1.84415 0,-2.80264c0,-0.96533 0,-1.62402 0,-2.63202l0,-0.86215l0,-0.90451l0,-0.89999" id="svg_9" stroke-width="2" stroke="#000" fill="none"/>
  <path t="59464,59600,59600,59608,59640,59640,59656,59666,59688,59688,59703,59719,59736,59736,59752,59767,59782,59799,59799,59816,59832,59849,59865,59887,59888,59903,59915,59932,60039,60047" d="m425,236c-1,1 -0.89957,1.81042 -1.03601,2.636c-0.14404,0.87169 -0.72629,1.68129 -0.90683,2.60683c-0.16449,0.84319 -0.05716,1.75717 -0.05716,2.55717c0,0.89999 0,1.836 0,2.68399c0,0.86334 0,1.88 0,2.716c0,0.90001 0,1.8 0,2.60001c0,0.89999 -0.16733,1.81964 0.02084,2.7c0.1814,0.84866 1.07315,1.42384 1.54315,2.10001c0.56009,0.80579 1.01068,1.42532 1.48868,2.10449l0.46817,0.77466l0.67917,0.43683" id="svg_10" stroke-width="2" stroke="#000" fill="none"/>
  <path t="64526,64670,64694,64694,64710,64718,64735,64751,64765,64765,64781,64798,64815,64815,64831,64848,64865,64886,64886,64903,64916,64935,64958,64966,64982,64982,64998,65015,65015,65031,65031,65031,65048,65048,65065,65081,65098,65098,65115,65115,65115,65131,65131,65131,65131,65148,65148,65148,65165,65165,65181,65181,65198,65198,65215,65231,65248,65248,65265,65265,65281,65281,65281,65298,65298,65298,65315,65315,65334,65334,65348,65365,65381,65381,65398,65398,65415,65415,65439,65439,65448,65465,65465,65481,65481,65481,65498,65515,65515,65531,65531,65548,65565,65565,65581,65581,65598,65598,65615,65615,65615,65631,65631,65648,65648,65665,65665,65681,65698,65698,65715,65715,65731,65731,65748,65765,65781,65798,65815,65815,65831,65831,65878,66110,66118,66134,66148,66165,66181,66181,66198,66198,66215,66215,66231,66231,66254,66278,66278,66294,66294,66310,66318,66331,66348,66365,66381,66398,66398,66415,66431,66454,66465,66486,66510,66526,66534,66534,66558,66574,66574,66590,66598,66615,66615,66631,66631,66648,66665,66665,66681,66681,66698,66715,66715,66734,66734,66734,66750,66750,66766,66781,66798,66798,66815,66815,66831,66848,66848,66865,66881,66881,66898,66898,66915,66931,66948,66948,66965,66965,66981,66998,66998,67015,67015,67031,67031,67048,67048,67065,67065,67081,67081,67098,67115,67131,67131,67148,67165,67165,67182,67182,67198,67215,67215,67231,67248,67265,67281,67298,67315,67315,67331,67349,67366,67366,67382,67382,67398,67415,67415,67439,67439,67454,67486,67486,67486,67510,67510,67518,67534,67548,67548,67565,67582,67598,67622,67646,67646,67670,67686,67702,67734,67734,67838,67854,67865,67881,67898,67915,67934,67966,67966" d="m429,238c0.88666,0.99867 1.82535,1 2.51599,1c1.07333,0 1.98401,-0.00224 2.884,0c0.89999,0.00226 1.63126,0.3369 2.39999,0.716c0.84525,0.41682 1.72086,0.284 2.68402,0.284c0.86331,0 1.75882,0 2.716,0c0.89999,0 1.79999,0 2.59998,0c0.90002,0 1.80002,0 2.70001,0c0.89999,0 1.86145,0.15489 2.60001,-0.2215c0.68628,-0.34975 1.2504,-1.29189 2.06665,-1.61183c0.81421,-0.31914 1.85361,-0.46936 2.42883,-0.87201c0.59094,-0.41367 1.54736,-1.05908 2.20319,-1.37733c0.84595,-0.41052 1.70691,-0.78018 2.40265,-1.48666c0.52899,-0.53716 1.10211,-1.43474 1.64536,-1.80533c0.59634,-0.4068 1.58228,-0.9351 2.37866,-1.46133c0.55475,-0.36656 1.10855,-0.74342 2.08932,-1.56267c0.67719,-0.56566 1.25827,-1.1519 2.08401,-1.716c0.74362,-0.508 1.60309,-0.95818 2.19064,-1.48534c0.63724,-0.57172 1.29965,-1.12349 1.88983,-1.89999c0.56088,-0.73798 0.75369,-1.59198 1.22534,-2.25717c0.50922,-0.71819 0.8526,-1.49208 1.617,-2.22166c0.64005,-0.61089 1.32248,-0.95007 2.07718,-1.78917c0.41525,-0.46169 0.91895,-1.2458 1.5798,-2.08899c0.4827,-0.61586 1.12384,-1.24071 1.72153,-1.843c0.69202,-0.69734 1.20502,-1.39682 1.29999,-2.3c0.07941,-0.75516 0.31586,-1.67491 0.7045,-2.34734c0.54004,-0.93433 1.13809,-1.51082 1.591,-2.30533c0.38464,-0.67473 0.57861,-1.75578 0.98984,-2.55c0.34094,-0.65848 0.93344,-1.55795 1.19382,-2.29733c0.2554,-0.72528 0.38464,-1.71277 0.6875,-2.66667c0.21237,-0.66884 1.03378,-1.2959 1.548,-2.00133c0.52597,-0.72154 0.28305,-1.66533 0.28534,-2.58467c0.00226,-0.90451 -0.00433,-1.66786 0.284,-2.64732c0.24036,-0.81653 0.60153,-1.79895 0.69067,-2.40001c0.11847,-0.79871 0.36285,-1.80884 0.72983,-2.59999c0.37543,-0.80936 0.89441,-1.53929 1.17401,-2.57851c0.21536,-0.80045 0.12149,-1.6575 0.12149,-2.50684c0,-0.91916 -0.07864,-1.92117 0.03601,-2.67867c0.14703,-0.97142 0.79721,-1.60637 0.9595,-2.536c0.15494,-0.8875 0.59363,-1.61792 0.883,-2.40001c0.31512,-0.85173 0.08194,-1.65823 0.12598,-2.55266c0.04263,-0.86607 0.42081,-1.87518 0.91019,-2.54466c0.07477,-0.10229 -0.07986,0.81653 0.10617,1.69733c0.17899,0.8474 0.91699,1.59337 0.97781,2.38533c0.07278,0.94788 0.00134,1.716 0.00134,2.71468c0,0.79999 0,1.79866 0,2.564c0,0.952 0,2.00267 0,2.66133c0,1.008 0,1.87016 0,2.77467c0,0.89999 0,1.79999 0,2.7c0,0.89999 0,1.8 0,2.7c0,0.8 0,1.7 0,2.60001c0,0.89999 0,1.79999 0,2.7c0,0.89999 0,1.8 0,2.7c0,0.8 0,1.636 0,2.65266c0,0.69467 0.12125,1.7198 -0.00449,2.64734c-0.11136,0.82152 -0.75873,1.42694 -0.93835,2.35266c-0.16479,0.8493 0.02841,1.87837 -0.41434,2.65184c-0.36325,0.63457 -1.01285,1.3158 -1.35748,2.2115c-0.32108,0.83449 -0.2442,1.80794 -0.30618,2.50482c-0.08771,0.98608 -0.40192,1.78537 -0.78049,2.57918c-0.384,0.80516 -0.89224,1.52579 -1.11334,2.51466c-0.21579,0.96521 -0.31384,1.84966 -0.66,2.52133c-0.41852,0.8121 -0.31461,1.71873 -0.42981,2.60683c-0.11374,0.87688 -0.69897,1.45821 -1.39551,2.15717c-0.69879,0.70122 -1.26184,1.20168 -1.51599,2.08267c-0.22699,0.7869 -0.78912,1.39233 -1.48401,1.964c-0.72379,0.59544 -1.06836,1.34744 -1.43335,2.38666c-0.24692,0.70306 -0.953,1.20558 -1.46664,1.88101c-0.48523,0.63806 -0.77859,1.49687 -1.20001,2.26483c-0.47614,0.86768 -1.01358,1.48709 -1.70001,2.22217c-0.51025,0.54642 -1.08102,1.4626 -1.5,2.146c-0.4787,0.78081 -1.07083,1.28523 -1.68933,2.05266c-0.60101,0.74574 -0.73624,1.63269 -1.22131,2.20001c-0.63843,0.7467 -1.38934,1.39999 -1.88934,1.89999c-0.70001,0.7 -1.29996,1.30003 -1.89999,1.89999c-0.69998,0.69987 -1.41803,1.04541 -2.164,1.62534c-0.62448,0.4855 -1.22681,1.07687 -1.936,1.47467c-0.88742,0.49777 -1.64801,0.8674 -2.29999,1.216c-0.84741,0.45309 -1.69458,0.84299 -2.52133,1.384c-0.65918,0.43137 -1.49002,0.93115 -2.15784,1.37917c-0.6994,0.46919 -1.63766,0.42413 -2.40619,0.60616c-0.97629,0.23123 -1.60519,0.755 -2.48932,1.30402c-0.77133,0.47897 -1.46942,0.53888 -2.22665,0.69467c-1.0087,0.20755 -1.74899,0.54083 -2.7627,0.89066c-0.84262,0.29077 -1.62231,0.93744 -2.336,1.02084c-0.89392,0.10446 -1.8157,-0.15262 -2.69998,0.01517c-0.94589,0.17947 -1.5874,0.9043 -2.39999,0.98798c-0.89529,0.09222 -1.64835,0.24338 -2.28403,0.71735c-0.76883,0.57324 -1.71597,0.284 -2.616,0.284c-0.89999,0 -1.79999,0 -2.69998,0c-0.89999,0 -1.80002,0 -2.70001,0l-0.89999,0l-0.79999,0" id="svg_12" stroke-width="2" stroke="#000" fill="none"/>
  <path t="75646,76006,76022,76031,76055,76078,76094,76110,76150,76158,76166,76182,76198,76214,76239,76248,76264,76281,76281,76302,76318,76350,76366,76382,76398,76422,76454,76462,76481,76498,76514,76531,76531,76550,76564,76581,76598,76614,76614,76631,76648,76670,76686,76686,76698,76714,76714,76734,76734,76766,76774,76782,76797,76814,76831,76831,76878,76878,76878,76886,76902,76926,76942,76966,77046,77046,77070,77086,77126,77158,77158,77222,77294,77318,77318,77374,77398,77398,77414,77422,77422,77470,77494,77526,77526,77550,77566,77598,77622,77646,77646,77662,77694,77694,77702,77718,77731,77747,77747,77764,77781,77797,77814,77831,77847,77847,77870,77881,77910,77910,77926,77950,77974,77990,78038,78038,78070,78070,78086,78097,78097,78118,78134,78182,78222,78254,78334,78406,78406,78502,78542,78566,78582,78710,78726,78766,78782,78822,78838,78854,78926,78974,78974,78982,79014,79054,79086,79102,79118,79174,79174,79254,79270,79302,79302,79342,79374,79374,79406,79454,79494,79526,79542,79542,79566,79582,79614,79622,79639,79647,79670,79686,79710,79718,79750,79774,79806,79806,79822,79831,79847,79950,79950,79974,80038,80062,80342,80390" d="m419,146c1.70001,0 2.70001,0 3.60001,0c0.89999,0 1.79797,-0.00009 2.39999,-0.5c0.61972,-0.5146 1.38171,-0.95641 2.19867,-1.416c0.70264,-0.39529 1.33975,-0.96024 1.80133,-1.60483c0.49664,-0.69357 1.22855,-1.15152 1.87866,-1.7005c0.66434,-0.56099 1.33682,-1.04652 1.92133,-1.58c0.7197,-0.65689 1.48227,-0.99561 2.14734,-1.55133c0.65317,-0.54578 1.06177,-1.24594 1.75717,-1.70001c0.75787,-0.49486 1.17819,-1.29327 1.72083,-1.922c0.51801,-0.60017 1.04062,-1.26141 1.45334,-2.12534c0.40732,-0.85265 0.82874,-1.30942 1.60049,-1.89999c0.65063,-0.49789 0.88635,-1.50334 1.62085,-1.87866c0.84146,-0.42998 1.60001,-0.76867 2.39999,-1.12134c0.79999,-0.35267 1.59839,-0.89108 2.5,-1c0.79871,-0.0965 1.46887,-0.5546 2.20132,-1.19867c0.53433,-0.46983 1.47223,-0.65234 2.31467,-0.88533c0.88107,-0.24368 1.70071,-0.72359 2.58383,-0.91617c0.84427,-0.1841 1.26108,-0.95712 2.22168,-1c0.69894,-0.0312 1.68726,-0.14119 2.46783,-0.42516c0.73434,-0.26714 1.68964,-0.56425 2.61066,-0.57467c0.89993,-0.01018 1.8038,0.08212 2.70001,-0.00017c0.91144,-0.08368 1.55157,-0.80502 2.39999,-0.979c0.88171,-0.18079 1.60721,0.43212 2.5,0.8125c0.75153,0.32019 1.75571,0.13534 2.39999,0.60266c0.78101,0.56651 1.30002,1.26401 1.89999,1.86401c0.70001,0.70001 1.23459,1.44119 2.11069,1.66399c0.88309,0.22459 1.90088,-0.16574 2.52798,0.472c0.67175,0.68313 0.97632,1.5514 1.06,2.36401c0.09219,0.89526 0.00134,1.8 0.00134,2.7c0,0.91066 0.00061,1.82133 0,2.67467c-0.00067,0.94 -0.22058,1.79201 -0.57468,2.42534c-0.48151,0.86125 -0.24222,1.89589 -0.71066,2.59866c-0.53012,0.7953 -1.42993,0.97044 -1.71466,1.80133c-0.28461,0.83047 -0.9707,1.35588 -1,2.3c-0.02792,0.89957 -0.12476,1.73428 -0.7045,2.39999c-0.5531,0.63512 -1.23462,1.39389 -1.2955,2.3c-0.05362,0.7982 -0.05447,1.70148 -0.5,2.5c-0.44467,0.797 -0.96371,1.31995 -1.60001,1.94284c-0.50229,0.4917 -1.05688,1.49623 -1.46399,2.1465c-0.48221,0.77025 -0.70386,1.62614 -1.23734,2.21066c-0.65686,0.7197 -1.08939,1.53911 -1.62399,2.17467c-0.5462,0.64935 -0.96255,1.33655 -1.74133,1.85866c-0.7059,0.47324 -1.63351,0.14868 -2.53336,0.16667c-0.90054,0.01801 -1.69443,0.43451 -2.49866,0.916c-0.74362,0.44519 -1.16159,1.1317 -1.82666,1.65866c-0.62622,0.4962 -1.57471,0.42001 -2.47467,0.42534c-0.90005,0.00534 -1.61182,0.44234 -2.5,0.83333c-0.65765,0.28951 -1.60001,0.16667 -2.5,0.16667c-0.89999,0 -1.79999,0 -2.70001,0c-0.89999,0 -1.8425,0.18575 -2.59998,-0.08533c-0.90112,-0.32246 -1.30582,-1.25484 -2.20001,-1.748c-0.66318,-0.36575 -1.28192,-0.91693 -2,-1.33334c-0.72504,-0.42046 -0.99918,-1.43591 -1.7045,-1.886c-0.76935,-0.49094 -1.58112,-0.67888 -2.39532,-1.16882c-0.72412,-0.43575 -1.05859,-1.29352 -1.61618,-1.8625c-0.65909,-0.67258 -1.51062,-0.65738 -2.16266,-1.13733c-0.69827,-0.51398 -0.91187,-1.3232 -1.47852,-2.07417c-0.50482,-0.66905 -1.18808,-1.15431 -1.92816,-1.61917c-0.77802,-0.48869 -1.66843,-0.32745 -2.41467,-0.73267c-0.76111,-0.41328 -1.71048,-0.21996 -2.59998,-0.35716c-0.9314,-0.14368 -1.46863,-0.84732 -2.40002,-0.991c-0.8895,-0.13721 -1.77914,-0.02533 -2.35266,-0.65184l-0.65182,-0.40533" id="svg_13" stroke-width="2" stroke="#000" fill="none"/>
  <path t="82198,82406,82478,82502,82518,82542,82646,82646,82653,82725,82774,82805,82806,82821,82838,82847,82864,82864,82881,82925,82965,82973,82989,83006,83030,83062,83093,83109,83142,83165,83166,83189,83197,83214,83231,83247,83264,83301,83301,83333,83341,83366,83397,83422,83438,83447,83464,83464,83481,83497" d="m419,147c-1.70001,0 -2.62201,-0.17807 -3.5,0.02083c-0.96234,0.218 -1.59387,0.91829 -2.5,0.97917c-0.79819,0.05363 -1.42896,0.3707 -2.2215,0.87849c-0.74673,0.47844 -1.81494,-0.04665 -2.57849,0.20683c-0.77219,0.25635 -1.50854,0.77914 -2.40002,0.916c-0.91577,0.14058 -1.56683,0.84453 -2.39999,0.98801c-0.88699,0.15276 -1.83481,-0.23221 -2.6955,0.01517c-0.76788,0.22072 -1.31509,0.99016 -2.2045,0.9955c-0.89996,0.0054 -1.79999,0 -2.70001,0c-0.89999,0 -1.79999,0 -2.59998,0c-0.90002,0 -1.80002,0 -2.70001,0c-0.89999,0 -1.80472,0.0909 -2.70001,-0.00133c-0.81259,-0.08371 -1.45438,-0.79065 -2.29999,-0.97784c-0.95688,-0.21182 -1.43661,-0.79561 -2.2045,-1.01633c-0.86069,-0.24738 -1.83026,0.04846 -2.59549,-0.35716c-0.84595,-0.44841 -1.5,-0.73134 -2.30002,-1.222l-0.79999,-0.40001" id="svg_14" stroke-width="2" stroke="#000" fill="none"/>
  <path t="86917,87045,87054,87064,87086,87097,87114,87114,87142,87165,87166,87181,87285,87293,87294,87302,87318,87358,87381,87382,87405,87469,87469,87501,87517,87525,87549,87573,87589,87589,87605,87677,87677,87709,87949,87973,88045,88045,88053,88077,88085,88117,88269,88285,88285,88325,88341,88357,88437,88453,88478,88493,88493,88549,88549,88597,88606,88606,88614,88637,88662,88725,88741,88797,88861,88870,89326,89382,89382,89398,89422,89422,89478,89510,89534,89582,89646,89758,89774,89830,89886,89902,89902,89918,90206,90206,90238,90254,90270,90470" d="m369,214c0,-1.7 -0.00534,-2.60002 0,-3.5c0.00534,-0.90004 0.34976,-1.80688 1,-2.5c0.47382,-0.50507 0.87543,-1.44583 1.284,-2.2c0.35217,-0.65009 1.00299,-1.28784 1.59467,-2.0215c0.52109,-0.64612 0.82462,-1.42404 1.62134,-1.7785c0.7988,-0.35538 1.59839,-0.89108 2.5,-1c0.79871,-0.0965 1.46985,-0.64801 2.48401,-0.91467c0.67184,-0.17665 1.63065,-0.08533 2.616,-0.08533c0.89999,0 1.51233,-0.35667 2.18533,-0.916c0.66916,-0.55611 1.4158,-0.78737 2.11465,-1.48399c0.60098,-0.59904 1.36105,-1.13316 1.57916,-2.10001c0.19339,-0.85718 -0.62891,-0.99117 -0.89383,-0.01601c-0.18213,0.67039 0.03561,1.83119 -0.43799,2.46333c-0.50928,0.67973 -0.55188,1.49721 -0.93134,2.25267c-0.43558,0.86722 -0.77039,1.49904 -1.216,2.3c-0.44455,0.79906 -0.33795,1.80005 -0.85266,2.44733c-0.49234,0.61913 -0.98978,1.36652 -1.64734,2.05267c-0.48926,0.51053 -1.20001,1.20001 -1.79999,1.8c-0.60001,0.60001 -1.22144,1.40195 -1.90002,1.84283c-0.79233,0.51477 -1.29428,1.17526 -2.10132,1.35583c-0.87698,0.19623 -1.81787,-0.16389 -2.69867,0.02216c-0.84738,0.17899 -1.59598,1.06575 -2.5,0.97917c-0.69019,-0.0661 -0.19733,-0.80133 0.5,-1.5c0.69867,-0.7 1.34515,-1.26654 1.48932,-2.10001c0.15341,-0.88689 0.01068,-1.79999 0.01068,-2.7c0,-0.89999 -0.11087,-1.80685 0,-2.7c0.1116,-0.89909 1.10001,-1 2,-1c0.79999,0 1.63678,-0.03619 2.65268,0.0045c0.69608,0.02789 1.59015,0.34816 2.44733,0.87399l0.89999,0.12151l0.83334,0.16667" id="svg_15" stroke-width="2" stroke="#000" fill="none"/>
  <path t="93286,93637,93637,93653,93693,93717,93741,93757,93781,93781,93813,93821,93847,93847,93869,93909,93925,93925,93957,93981,94013,94037,94061,94061,94093,94117,94149,94165,94165,94173,94189,94213,94221,94229,94246,94262,94263,94279,94296,94312,94330,94346,94347,94362,94363,94380,94397,94397,94413,94430,94447,94447,94463,94480,94497,94497,94517,94533,94547,94547,94563,94580,94580,94597,94597,94613,94613,94630,94630,94647,94647,94663,94663,94680,94680,94680,94697,94697,94713,94713,94713,94730,94730,94730,94747,94747,94747,94747,94763,94763,94763,94763,94780,94780,94780,94797,94797,94813,94813,94813,94830,94830,94847,94847,94863,94863,94880,94897,94897,94913,94930,94930,94947,94963,94981,94997,95237,95245,95263,95280,95280,95280,95297,95297,95313,95313,95333,95333,95349,95365,95380,95397,95397,95413,95413,95430,95430,95447,95447,95463,95463,95480,95480,95497,95497,95513,95530,95530,95547,95547,95563,95563,95580,95580,95597,95597,95613,95613,95613,95630,95630,95647,95663,95680,95680,95697,95713,95713,95730,95730,95747,95747,95763,95780,95797,95813,95813,95813,95830,95830,95847,95847,95863,95863,95880,95897,95913,95913,95930,95930,95930,95947,95947,95965,95965,95981,95997,95997,96013,96030,96054,96069,96093,96117,96133,96157,96157,96173,96229,96269,96381,96381,96421,96493,96493,96509,96525,96557,96573,96573,96589,96597,96653,96677,96677,96685,96709,96853,96901,96949,96965,96989,97037,97061,97061,97077,97109,97133,97157,97189,97269,97285,97357,97357,97389,97421,97461,97501,97501,97541,97557,97573,97589,97597,97597,97613,97613,97630,97647,97663,97680,97680,97697,97697,97713,97713,97730,97747,97763,97781,97781,97797,97797,97813,97830,97830,97847,97863,97880,97880,97897,97913,97930,97949,97949,97981,97981,98005" d="m419,258c1,1 0.80405,1.83441 1.05716,2.70001c0.25665,0.87762 0.91425,1.5986 0.94284,2.5c0.02853,0.89954 -0.14606,1.8277 0.05716,2.5c0.26456,0.87527 0.77374,1.65259 1.22684,2.5c0.3486,0.65198 0.98276,1.29974 1.54935,1.96664c0.58112,0.68399 0.96103,1.32465 1.64581,1.83334c0.69424,0.51572 1.00958,1.28699 1.74234,1.87866c0.64581,0.52148 1.21017,0.95554 1.80383,1.68533c0.52802,0.64908 1.36697,0.88022 2.07468,1.53583c0.59363,0.54996 1.3717,1.01068 1.95267,1.54752c0.68863,0.63632 1.24799,1.1738 2.04715,1.35281c0.84366,0.18896 1.00058,1.24234 1.70151,1.71451c0.71075,0.47879 1.59357,0.71909 2.39734,1.20132c0.7485,0.44907 1.21152,1.23901 1.82217,1.56317c0.9165,0.48651 1.82831,0.53271 2.47916,1.04169c0.76831,0.60083 1.37802,1.21109 1.97916,1.97916c0.50858,0.64978 0.63547,1.71835 1.22534,2.14282c0.79041,0.56876 1.72125,0.76703 2.39532,1.45718c0.56543,0.57892 0.77621,1.4678 1.25735,2.19998c0.52194,0.79425 1.24911,1.27966 1.61749,2.10001c0.35205,0.78403 0.84747,1.47223 1.32532,2.25269c0.41855,0.68362 1.01895,1.39499 1.41467,2.23132c0.34534,0.72983 0.30838,1.73526 0.57068,2.51468c0.26523,0.78815 0.94748,1.69598 1.31467,2.26266c0.55096,0.85028 0.81631,1.58069 1.04282,2.33331c0.30905,1.02689 0.34702,1.97342 0.35852,2.776c0.01105,0.77115 0.03598,1.64102 0.284,2.82935c0.1264,0.60559 0.41983,1.49979 0.71466,2.39999c0.29617,0.9043 0.5192,1.51193 0.71466,2.48532c0.20648,1.0282 0.23956,1.76236 0.2645,2.49384c0.03586,1.05109 -0.01898,1.97946 0.04169,2.97919c0.03891,0.64105 0.3736,1.63284 0.6265,2.49881c0.27789,0.95163 0.28152,1.76349 0.40533,2.53302c0.16928,1.05237 0.70746,1.72879 0.89017,2.66699c0.14322,0.73538 0.05716,1.74152 0.05716,2.50684c0,1.07883 0,1.93616 0,2.72134c0,0.94 0,1.948 0,2.70398c0,0.91068 0,1.81067 0,2.71066c0,0.90002 -0.27899,2.07867 0,2.07867c0.92032,0 0,-1.92151 0,-2.63998c0,-0.7905 0,-1.81702 0,-2.69702c0,-0.875 0,-1.79431 0,-2.69434c0,-0.69464 0,-1.71133 0,-2.64731c0,-0.90002 0,-1.80017 0,-2.58536c0,-0.95065 0,-1.71597 0,-2.71466c0,-0.79999 0,-1.79999 0,-2.60001c0,-0.99982 0,-1.77914 0,-2.77866c0,-0.77399 0,-1.67401 0,-2.53732c0,-0.98401 0,-1.96933 0,-2.69467c0,-0.98917 -0.03665,-1.76917 0.00015,-2.76801c0.02859,-0.77554 0.3472,-1.68314 0.70435,-2.42584c0.38501,-0.80063 0.79401,-1.59625 1.2955,-2.59549c0.2991,-0.59595 0.67258,-1.3616 1.2955,-2.24283c0.40186,-0.56848 0.66541,-1.51849 1.22534,-2.25717c0.50375,-0.66458 1.17917,-1.20001 1.87915,-1.89999c0.60001,-0.60001 1.17548,-1.22562 1.90451,-1.89999c0.56262,-0.52042 1.4342,-0.88074 2.12616,-1.5c0.65051,-0.58218 1.21695,-1.16016 1.98001,-1.63602c0.80032,-0.49908 1.46747,-0.90576 2.10532,-1.44934c0.80679,-0.68756 1.02472,-1.37119 1.80533,-2.09314c0.61917,-0.57263 1.48499,-1.0603 2.15784,-1.50067c0.78741,-0.51535 1.39612,-1.04807 1.96384,-1.621c0.51501,-0.51974 1.57141,-1.04938 2.1525,-1.55252c0.58347,-0.50522 1.383,-1.32581 1.88367,-1.82648c0.72086,-0.72086 1.22079,-1.22092 1.92084,-1.92084c0.69998,-0.69989 1.39056,-1.08966 2.07916,-1.60001c0.69482,-0.51495 1.3623,-0.56516 2.16367,-1.05716c0.73727,-0.45264 0.83875,-1.49466 1.65717,-1.89017c0.86563,-0.4183 1.58826,-0.77792 2.17917,-1.55267c0.55978,-0.73392 0.94473,-1.3139 1.72086,-1.78534c0.67636,-0.41083 1.31506,-1.19995 1.89981,-1.81467c0.55774,-0.58633 0.90381,-1.49567 1.60468,-1.95267c0.77319,-0.50418 1.49744,-0.96875 1.93832,-1.64734c0.51477,-0.79233 1.12326,-1.26105 1.85718,-1.82083c0.77475,-0.59091 1.34515,-1.2457 1.48932,-2.07916c0.15341,-0.88687 0.01135,-1.79999 0.01068,-2.69998c-0.00067,-0.89868 -0.35571,-1.67142 -1.20001,-1.70001c-0.89948,-0.03046 -1.79999,0 -2.59998,0c-0.90002,0 -1.80002,0 -2.70001,0c-0.89999,0 -1.79999,0 -2.70001,0c-0.89999,0 -1.80255,-0.0639 -2.59998,0c-1.04337,0.08359 -1.41525,0.93912 -2.30002,1c-0.89786,0.0618 -1.6774,0.1243 -2.5,0.57468c-0.78036,0.42728 -1.69998,0.42532 -2.60132,0.42532c-0.96533,0 -1.62402,0 -2.63202,0c-0.86215,0 -1.76666,0 -2.66666,0c-0.91068,0 -1.82132,0 -2.5,0c-1.116,0 -1.884,0 -2.82535,0c-0.69064,0 -1.76401,0.00534 -2.67465,0c-0.91074,-0.00534 -1.8382,-0.18582 -2.5,-0.52084c-0.85764,-0.43417 -1.44431,-1.02557 -2.29999,-1.42648c-0.87015,-0.40768 -1.52637,-0.7052 -2.40002,-1.10535c-0.72559,-0.33231 -1.32141,-1.14926 -2,-1.59015c-0.79233,-0.51477 -1.39175,-1.06012 -2.06165,-1.46701c-0.73111,-0.44406 -1.41299,-1.03949 -2.21683,-1.64734l-0.71701,-0.29099l-0.8045,-0.45184" id="svg_16" stroke-width="2" stroke="#000" fill="none"/>
  <path t="102189,102693,102725,102765,102773,103253,103269,103269,103277,103293,103301,103301,103313,103330,103389,103389,103397,103413,103413,103430,103446,103463,103463,103480,103480,103496,103496,103496,103517,103517,103533,103549,103549,103563,103563,103580,103596,103613,103613,103630,103630,103630,103646,103646,103663,103663,103680,103696,103713,103713,103730,103730,103746,103746,103746,103763,103763,103780,103780,103796,103796,103813,103830,103830,103830,103830,103846,103846,103863,103863,103863,103880,103896,103896,103913,103913,103913,103930,103930,103930,103946,103946,103946,103963,103963,103963,103963,103980,103980,103980,103996,103996,103996,104013,104013,104013,104013,104030,104030,104030,104030,104046,104046,104046,104046,104063,104063,104063,104063,104080,104080,104096,104096,104113,104131,104131,104146,104146,104146,104163,104163,104163,104180,104180,104196,104196,104196,104213,104213,104230,104230,104230,104246,104246,104263,104263,104280,104280,104280,104280,104296,104296,104313,104313,104313,104330,104330,104346,104346,104363,104363,104363,104380,104380,104396,104396,104396,104396,104413,104413,104413,104430,104430,104430,104446,104463,104463,104480,104480,104480,104496,104496,104513,104513,104530,104530,104530,104546,104546,104563,104563,104563,104580,104580,104596,104596,104613,104630,104630,104630,104646,104646,104663,104663,104663,104680,104680,104680,104696,104696,104713,104713,104713,104730,104730,104730,104746,104746,104746,104746,104763,104763,104780,104780,104780,104796,104796,104796,104796,104813,104813,104813,104813,104830,104830,104830,104830,104830,104847,104847,104847,104847,104847,104863,104863,104863,104880,104880,104880,104896,104896,104896,104913,104913,104913,104913,104930,104930,104930,104946,104946,104946,104963,104963,104980,104980,104996,105013,105013,105030,105030,105030,105046,105046,105063,105063,105063,105080,105080,105096,105096,105113,105113,105130,105130,105146,105146,105164,105164,105180,105180,105196,105196,105213,105213,105213,105230,105230,105230,105246,105263,105263,105280,105280,105296,105313,105330,105330,105330,105346,105363,105363,105380,105380,105396,105396,105396,105413,105413,105413,105413,105430,105430,105446,105446,105463,105463,105463,105480,105480,105480,105496,105496,105513,105513,105530,105530,105546,105546,105546,105563,105563,105580,105580,105580,105596,105596,105613,105613,105613,105613,105630,105630,105630,105630,105646,105646,105646,105646,105663,105663,105663,105663,105663,105680,105680,105680,105680,105696,105696,105696,105696,105713,105713,105730,105730,105730,105746,105746,105763,105763,105780,105780,105781,105796,105796,105813,105813,105830,105830,105830,105830,105846,105847,105847,105847,105863,105863,105880,105880,105880,105896,105896,105896,105913,105913,105930,105930,105946,105946,105946,105963,105963,105964,105980,105980,105981,105996,105996,105997,105997,106013,106013,106013,106013,106030,106030,106030,106030,106046,106046,106046,106046,106063,106063,106063,106080,106080,106096,106096,106096,106113,106113,106113,106114,106130,106130,106130,106130,106146,106146,106146,106163,106163,106163,106180,106204,106213,106213,106230,106246,106263,106263,106280,106280,106296,106296,106313,106313,106330,106330,106330,106346,106346,106346,106363,106363,106364,106380,106380,106381,106396,106397,106413,106413,106430,106430,106446,106446,106463,106463,106480,106496,106513,106513,106513,106530,106530,106546,106546,106563,106563,106581,106596,106596,106613,106630,106646,106646,106646,106647,106663,106663,106680,106680,106696,106696,106713,106713,106730,106730,106746,106746,106746,106763,106763,106780,106781,106796,106797,106797,106813,106813,106830,106831,106846,106847,106847,106863,106863,106880,106896,106913,106930,106930,106946,106946,106965,106966,106980,106996,106997,107013,107013,107030,107031,107046,107046,107063,107063,107080,107080,107096,107096,107096,107113,107113,107113,107130,107130,107146,107146,107163,107163,107164,107180,107181,107196,107197,107213,107230,107231,107231,107246,107247,107247,107263,107263,107280,107280,107296,107313,107313,107330,107330,107349,107350,107363,107380,107397,107413,107413,107445,107446,107461,107462,107485,107486,107495,107509,107533,107534,107557,107589,107605,107637" d="m317,265c-1.60001,-0.57468 -2.39944,-0.98199 -3.29999,-1c-0.89984,-0.01801 -1.80002,0 -2.70001,0c-0.79999,0 -1.76239,0.03674 -2.5,-0.52084c-0.77731,-0.58759 -1.26819,-1.315 -2.10001,-1.46848c-0.90607,-0.16718 -1.87677,-0.3125 -2.57465,-0.58536c-0.93097,-0.36401 -1.82535,-0.42532 -2.62534,-0.42532c-0.90002,0 -1.836,0 -2.68533,0c-0.72534,0 -1.71735,-0.04736 -2.51468,0.02084c-1.0069,0.08612 -1.78345,0.4548 -2.60001,0.69516c-0.97946,0.2883 -1.74283,0.28168 -2.77466,0.284c-0.94666,0.00214 -1.67227,-0.13901 -2.60382,0.22134c-0.77783,0.3009 -1.62775,0.68671 -2.43219,0.78934c-0.9274,0.11832 -1.61221,0.50598 -2.58932,0.98932c-0.60129,0.29742 -1.39679,0.70651 -2.39868,1.19867c-0.57864,0.28424 -1.6181,0.56363 -2.39999,0.88535c-0.75409,0.31027 -1.63318,0.82278 -2.52264,1.13748c-0.69928,0.24741 -1.50888,0.78275 -2.17868,1.2785c-0.81769,0.60519 -1.51974,1.00214 -2.10132,1.29999c-0.99231,0.50818 -1.64319,0.75037 -2.37717,1.52118c-0.57016,0.59879 -1.14581,1.38818 -1.8215,1.76151c-0.77319,0.42719 -1.53336,1.25067 -1.96802,1.68533c-0.73199,0.73199 -1.22198,1.23135 -2.08917,2.08899c-0.47891,0.47363 -1.30536,1.14987 -1.96817,1.543c-0.68646,0.40714 -1.54745,0.99081 -2.17465,1.60001c-0.52838,0.51321 -1.3215,1.3215 -1.836,1.836c-0.56851,0.56851 -1.37105,1.35699 -1.95334,1.96399c-0.37943,0.39551 -1.20357,1.39117 -1.58533,2.01068c-0.39287,0.63754 -0.94449,1.61203 -1.278,2.142c-0.51862,0.82413 -0.87782,1.3548 -1.46333,2.36334c-0.39383,0.67838 -0.75139,1.37817 -1.36934,2.36798c-0.34157,0.54712 -0.9007,1.37769 -1.51466,2.14935c-0.58281,0.73251 -1.02803,1.16586 -1.60001,1.936c-0.63182,0.85074 -1.00418,1.53815 -1.39999,2.2515c-0.40428,0.72864 -0.99089,1.81793 -1.39999,2.49249c-0.39137,0.64529 -0.77031,1.26263 -1.60001,2.32001c-0.38518,0.49088 -0.97617,1.12793 -1.51466,1.67999c-0.84464,0.86594 -1.34158,1.33691 -1.87466,2.31201c-0.36621,0.66986 -0.51537,1.57037 -0.83217,2.49615c-0.24629,0.71973 -0.765,1.68555 -1.08301,2.2785c-0.43443,0.81003 -1.02214,1.59555 -1.51016,2.19998c-0.48093,0.59564 -1.02486,1.59802 -1.2,2.40002c-0.21786,0.99765 -0.40842,1.60602 -0.78667,2.39999c-0.48232,1.01245 -0.81944,1.62732 -1.19867,2.56665c-0.31279,0.77478 -0.60139,1.56198 -0.83333,2.5c-0.1991,0.80518 -0.45358,1.81934 -0.77734,2.58002c-0.39122,0.91919 -0.6888,1.70618 -0.88933,2.25333c-0.29919,0.81631 -0.73167,1.80161 -1.064,2.68933c-0.29948,0.80002 -0.36028,1.61917 -0.52,2.41068c-0.20485,1.01498 -0.62715,1.785 -0.832,2.79999c-0.15973,0.7915 -0.29912,1.80215 -0.50934,2.39999c-0.28236,0.80298 -0.54134,1.80795 -0.57016,2.71436c-0.02603,0.8186 -0.0045,1.79099 -0.0045,2.48566c0,0.69467 0,1.95715 0,2.73868c0,0.944 0,1.944 0,2.74048c0,0.7515 -0.01443,1.85962 0.00017,2.84235c0.01039,0.69955 0.15224,1.68326 0.42517,2.47849c0.27631,0.80508 0.50275,1.80283 0.59999,2.40002c0.16377,1.00577 0.55556,1.77658 0.808,2.79999c0.19412,0.78702 0.166,1.60001 0.16667,2.60449c0.00056,0.85266 0,1.81668 0,2.61017c0,0.77551 0,1.81601 0,2.668c0,0.94269 0,1.63333 0,2.63818c0,1.022 0,1.74048 0,2.53098c0,1.02667 0,1.92734 0,2.94818c0,0.81067 0,1.45715 0,2.68399c0,0.81601 0,1.63202 0,2.63068c0,0.66449 -0.05779,1.68893 0.02133,2.496c0.08656,0.88309 0.54073,1.8786 0.84,2.42532c0.47893,0.87494 0.9861,1.7576 1.25334,2.36267c0.38501,0.8717 0.66287,1.72473 1.08533,2.716c0.28584,0.67072 0.81003,1.68051 1.10001,2.29434c0.31084,0.65799 0.70853,1.72171 0.89999,2.36032c0.31404,1.04739 0.49251,1.78461 0.8,2.86401c0.19525,0.68536 0.41228,1.34848 0.7,2.3765c0.31342,1.11984 0.50012,1.95847 0.60451,2.39551c0.21382,0.89526 0.41095,1.8035 0.86217,3.06131c0.14172,0.39505 0.64912,1.45612 1.008,2.07602c0.33258,0.57449 0.95813,1.56396 1.3045,2.25732c0.33739,0.67535 0.70311,1.69171 1.04166,2.5c0.34526,0.82434 0.79884,1.58002 1.3045,2.28534c0.52029,0.72571 1.0397,1.53519 1.4175,2.5155c0.2583,0.67026 0.35417,1.37817 0.8575,2.435c0.3717,0.78049 0.86934,1.23184 1.66768,2.03217c0.48206,0.48328 1.22667,1.22665 1.89867,1.89865c0.66133,0.66135 1.28156,1.39401 1.83333,1.8125c0.74036,0.56152 1.588,0.97275 2.02083,1.54169c0.62843,0.82605 1.31252,1.33069 1.99518,1.77783c0.74481,0.48785 1.43726,1.03519 2.25333,1.40134c0.73827,0.33124 1.56099,0.56906 2.54399,1c0.85208,0.37357 1.68872,0.87253 2.276,1.39999c0.6376,0.57269 1.19934,1.29294 1.71518,2.04816c0.44305,0.64868 1.18939,1.14645 2.04282,1.39999c0.9122,0.271 1.52374,0.77371 2.30536,1.25183c0.68381,0.41827 1.59341,1.01169 2.15717,1.45718c0.72574,0.57349 1.44446,1.07898 2.24197,1.59015c0.77484,0.49661 1.46118,0.94629 2.28653,1.29102c0.88589,0.37003 1.82831,0.52832 2.66165,0.86166c0.83334,0.33334 1.60837,0.48886 2.39999,0.92532c0.82285,0.45367 1.7807,0.70926 2.42535,1.01068c0.70776,0.33093 1.52951,0.97385 2.17465,1.564c0.62723,0.57373 1.5004,0.8555 2.21066,1.06134c1.01865,0.2952 1.59836,0.81268 2.24649,1.34766c0.96173,0.79382 1.48972,1.19492 2.04285,1.57016c0.80771,0.54794 1.81747,1.12823 2.45834,1.5c0.88083,0.51096 1.5191,1.05243 2.20831,1.52084c0.64948,0.44141 1.44958,0.86591 2.23334,1.48267c0.61203,0.4816 1.15292,1.06879 2.20001,1.4075c0.77585,0.25098 1.79593,0.40118 2.564,0.68451c0.95001,0.35043 1.65402,0.44656 2.60535,0.71066c0.75882,0.21066 1.55206,0.50589 2.54532,0.91333c0.6673,0.27374 1.68274,0.6503 2.48532,0.776c0.79773,0.12494 1.79742,0.39926 2.436,0.60001c0.92148,0.28967 1.72495,0.38492 2.61069,0.41464c0.63968,0.02145 2.03867,0.01068 2.78931,0.01068c0.77469,0 1.56534,0 2.76401,0c0.80002,0 1.60001,0 2.39999,0c1.20001,0 2.00012,0.00665 2.80002,-0.01068c0.8002,-0.01733 1.60428,-0.04117 2.79984,-0.21082c0.79913,-0.1134 1.58203,-0.28845 2.34299,-0.483c1.09464,-0.27988 1.76779,-0.50351 2.71552,-0.77466c0.8526,-0.24393 1.85794,-0.42487 2.52081,-0.52084c1.02368,-0.14822 1.83957,-0.38272 2.53552,-0.80133c0.9032,-0.54324 1.37991,-1.07361 2.138,-1.85583c0.52948,-0.54633 1.18454,-1.34015 1.59467,-1.93832c0.51016,-0.74405 1.26636,-1.48343 1.73181,-1.90451c0.83911,-0.75916 0.91028,-1.56577 1.35419,-2.5c0.30829,-0.64883 0.90457,-1.25977 1.26932,-1.77066c0.83481,-1.16928 1.18738,-1.86896 1.56134,-2.54266c0.35135,-0.63297 0.95258,-1.63065 1.42532,-2.29068c0.51294,-0.71616 0.92288,-1.4426 1.29602,-2.08267c0.58524,-1.00394 0.92584,-1.53769 1.46198,-2.3035c0.61499,-0.87845 1.259,-1.43021 1.53119,-2.33133c0.25909,-0.85776 0.09232,-1.87991 0.14233,-2.69934c0.04068,-0.66638 0.26834,-1.66318 0.47916,-2.5c0.22147,-0.87912 0.38971,-1.77823 0.47467,-2.68982c0.05823,-0.62466 0.17813,-1.95844 0.31067,-2.672c0.13647,-0.73477 0.29092,-1.46655 0.71466,-2.784c0.18387,-0.57166 0.52737,-1.34204 0.71466,-2.18668c0.22168,-0.99976 0.23834,-1.80881 0.2645,-2.66751c0.02673,-0.87808 0.02084,-2.14581 0.02084,-2.90717c0,-0.68933 0,-1.60583 0,-2.65048c0,-0.68552 0,-1.52017 0,-2.526c0,-0.85266 0,-1.81702 0,-2.6315c0,-0.8685 0.0079,-2.0643 -0.00449,-2.66852c-0.0191,-0.93182 -0.05301,-1.58484 -0.21686,-2.61667c-0.17447,-1.09857 -0.36594,-1.81503 -0.49466,-2.50949c-0.22174,-1.19617 -0.25644,-1.95233 -0.36801,-2.65201c-0.16058,-1.00708 -0.43423,-1.79147 -0.63199,-2.54797c-0.28513,-1.09076 -0.73697,-1.87656 -1.11734,-2.76935c-0.32019,-0.75153 -0.22958,-1.69705 -0.59198,-2.41068c-0.46057,-0.90695 -0.56424,-1.58917 -0.57468,-2.56815c-0.00885,-0.83096 -0.03439,-1.79102 0.02084,-2.52118c0.08865,-1.17239 0.43997,-1.8223 0.97916,-2.66666c0.41968,-0.6572 0.81277,-1.42841 1.20001,-2.23602c0.41376,-0.86285 0.62039,-1.36133 1,-2.564c0.21143,-0.66983 0.31958,-1.37686 0.79999,-2.53333c0.34402,-0.82822 0.82047,-1.36847 1.29999,-2.15268c0.41815,-0.68387 1.02884,-1.57303 1.5,-2.23132c0.53372,-0.74567 0.86548,-1.48734 1.5,-2.36334c0.47488,-0.65561 1.0513,-1.38013 1.34283,-2.09998c0.40024,-0.98825 0.25687,-1.87704 0.52383,-2.81934c0.19669,-0.69418 0.64801,-1.42816 1.03201,-2.23334c0.37857,-0.79382 0.65524,-1.80408 0.80133,-2.57916c0.18958,-1.00586 0.65143,-1.57303 1.2955,-2.32083c0.57611,-0.66888 0.70383,-1.5 0.7045,-2.40002c0.00064,-0.86249 0,-1.79999 0,-2.65799c0,-0.642 0,-1.59 0,-2.77499c0,-0.74835 0,-1.703 0,-2.46832c0,-0.99869 0,-1.79868 0,-2.79868c0,-0.80002 0,-1.80002 0,-2.60001c0,-1 0,-1.79999 0,-2.60001c0,-1 0,-1.79999 0,-2.80133c0,-0.83466 0,-1.76532 0,-2.54684c0,-0.7905 0,-1.909 0,-2.79999c0,-0.91348 0.00629,-1.71353 -0.00015,-2.673c-0.00534,-0.79355 0.09448,-1.61407 -0.28384,-2.60815c-0.31342,-0.82355 -0.70712,-1.58871 -1.14133,-2.37067c-0.4556,-0.8205 -0.80176,-1.69614 -1.18533,-2.23599c-0.59814,-0.84186 -0.93839,-1.57269 -1.48935,-2.3425c-0.45944,-0.64191 -1.13672,-1.41553 -2,-1.90036c-0.6608,-0.37109 -1.25937,-1.02283 -1.78534,-1.63849c-0.54993,-0.64371 -1.32568,-1.07129 -2.31433,-1.58267c-0.57919,-0.29959 -1.38977,-0.95477 -1.90567,-1.60001c-0.53583,-0.6702 -1.3266,-1.02631 -2.09467,-1.62131c-0.61945,-0.47989 -1.17224,-1.06287 -2,-1.65735c-0.77557,-0.55701 -1.43051,-0.86679 -2.19733,-1.50534c-0.58572,-0.48773 -1.19049,-1.39645 -1.68933,-2.14133c-0.50323,-0.75143 -1.20053,-1.19928 -1.91251,-1.72198c-0.85849,-0.63028 -1.48007,-1.11096 -2.10065,-1.75269c-0.56256,-0.58173 -0.83997,-1.46912 -1.34317,-2.22165c-0.52048,-0.77838 -0.98795,-1.12234 -1.75684,-2.09952c-0.4075,-0.51791 -0.94678,-1.33029 -1.63351,-2.24548c-0.39514,-0.52655 -0.9006,-1.37158 -1.25067,-2.13333c-0.34454,-0.74976 -1.15677,-1.36722 -1.616,-1.95718c-0.66211,-0.85062 -0.97345,-1.60806 -1.49866,-2.35748c-0.49173,-0.70166 -1.03928,-1.35562 -1.51733,-2.05469c-0.50308,-0.73566 -0.01651,-1.89362 -0.36932,-2.54401c-0.46326,-0.854 -0.85944,-1.30887 -0.91483,-2.26532c-0.05258,-0.90781 -0.40222,-1.65472 -0.71585,-2.53732c-0.29584,-0.83255 -0.14743,-1.84064 -0.56799,-2.68402c-0.32993,-0.66162 -0.71152,-1.5 -0.716,-2.39999l0,-0.89999l0,-0.89999" id="svg_17" stroke-width="2" stroke="#000" fill="none"/>
  <path t="112597,112732,112748,112764,112765,112780,112788,112796,112820,112820,112836,112853,112853,112863,112879,112901,112901,112901,112940,112940,112941,112956,112964,112978,112996,113013,113013,113029,113029,113046,113046,113062,113079,113095,113112,113113,113129,113129,113129,113146,113146,113162,113179,113179,113196,113213,113213,113213,113229,113229,113246,113246,113263,113263,113285,113285,113285,113296,113313,113329,113346,113363,113380,113380,113396,113413,113429,113446,113446,113463,113463,113479,113501,113501,113516,113517,113532,113548,113563,113563,113588,113596,113620,113629,113646" d="m434,402c-1.70001,0.05716 -2.53101,0.49036 -3.19867,1.20001c-0.54224,0.57635 -0.79291,1.41779 -1.22665,2.19998c-0.4548,0.82016 -0.57468,1.70016 -0.57468,2.48535c0,0.94 0,1.948 0,2.70398c0,0.91068 0.03702,1.84146 -0.16666,2.74402c-0.15472,0.68555 -0.42249,1.46024 -0.83334,2.5c-0.28091,0.71094 -0.77872,1.47198 -0.96399,2.53067c-0.14426,0.82425 0.16183,1.8345 -0.32001,2.55331c-0.44196,0.65927 -0.67065,1.32086 -0.93735,2.2825c-0.22119,0.79755 -0.69058,1.62238 -0.77417,2.49567c-0.08621,0.90039 -0.00449,1.8045 -0.00449,2.71518c0,0.91083 0,1.61017 0,2.58932c0,0.79999 0,1.60001 0,2.78934c0,0.72534 0,1.71066 0,2.69467c0,0.69064 0,1.76334 0,2.68265c0,0.66934 0,1.43466 0,2.43335c0,0.79999 -0.00006,1.79999 0,2.60001c0.00009,1 -0.06445,1.81619 0.16666,2.79999c0.18997,0.80862 0.6785,1.48987 0.82266,2.58932c0.11841,0.90302 0.01001,1.81067 0.01068,2.71066c0.00067,0.90002 0.24213,1.65378 0.64734,2.40002c0.41327,0.76111 0.35266,1.69998 0.35266,2.60449c0,1.01682 0,1.6955 0,2.67398c0,0.82019 0,1.77869 0,2.67868c0,0.74734 0,1.74152 0,2.50684c0,1.07883 0,1.936 0,2.836c0,0.79999 0,1.70001 0,2.60001l0,0.89999l-0.02084,0.97916l-0.55383,0.54617" id="svg_18" stroke-width="2" stroke="#000" fill="none"/>
 </g>
 <g display="none">
  <title>muse_image</title>
  <image xlink:href="http://farm2.static.flickr.com/1253/1420295068_31cae37b48.jpg" id="muse" height="480" width="574" y="0" x="33"/>
 </g>
 <g display="none">
  <title>bbox</title>
  <rect stroke="#f00" fill="none" stroke-width="3" height="461.62679" width="528.08" y="17.22488" x="42.184" id="bbox"/>
 </g>
</svg>
