<svg width="640" height="480" xmlns="http://www.w3.org/2000/svg" xmlns:svg="http://www.w3.org/2000/svg" xmlns:xlink="http://www.w3.org/1999/xlink">
 <!-- Sketchy ANNOTATION
  ImageNet ID: n02503517_8904
  URL: http://farm1.static.flickr.com/227/518201928_7c2ae4fb60.jpg
  Image Width: 500
  Image Height: 368
  BBox X: 15
  BBox Y: 17
  BBox Width: 483
  BBox Height: 350
  Exposure: 2000ms
  Synset Label: elephant
  Synset ID: n02503517
  Worker Tag: elephant side view
  Sanity Check: 
   Context
   Saved
   Shading
  Comment: 
   {}
  Worker ID: AXD2DZ7U6CK35
  Assignment ID: 3HHRAGRYX858BWAKUDO38A9X5VQ9O5
  HIT ID: 3SCKNODZ0XGKS8OLOZL4Q5N1JHPN7H
  Work Time: 65s
  Worker Score: 0.9286
 END ANNOTATION -->
 <g display="inline">
  <title>Layer 1</title>
  <path t="0,12,12,12,12,12,12,12,12,12,17,17,17,17,17,17,17,17,17,33,33,33,33,33,33,33,33,33,49,50,50,50,66,66,67,82,83,83,99,99,116,150,150,170,183,200,283,380,426,426,458,482,500,517,533,533,550,568,568,583,583,600,600,617,617,617,633,633,633,650,650,667,667,667,683,683,701,701,717,717,733,733,750,750,750,767,767,767,783,783,783,800,800,800,817,817,817,833,833,850,850,850,851,867,867,867,867,883,883,883,883,900,901,901,917,917,917,917,933,933,933,934,950,950,950,951,967,967,967,968,968,983,983,984,984,984,1000,1000,1000,1001,1017,1017,1017,1018,1034,1034,1034,1034,1034,1050,1051,1051,1051,1051,1067,1067,1068,1068,1068,1068,1083,1083,1084,1084,1100,1100,1101,1101,1117,1118,1118,1118,1133,1133,1134,1134,1151,1151,1151,1151,1151,1167,1167,1168,1168,1168,1183,1183,1183,1184,1200,1200,1201,1201,1217,1217,1218,1218,1218,1233,1233,1234,1234,1250,1251,1251,1251,1267,1267,1268,1268,1268,1283,1283,1284,1300,1301,1301,1318,1318,1318,1318,1334,1334,1334,1334,1351,1351,1351,1351,1367,1368,1368,1368,1368,1383,1383,1384,1384,1400,1401,1401,1401,1417,1418,1418,1434,1434,1434,1434,1434,1451,1451,1451,1451,1467,1467,1468,1468,1486,1487,1487,1487,1500,1500,1501,1501,1517,1517,1518,1533,1534,1534,1551,1551,1551,1567,1567,1568,1568,1583,1583,1584,1600,1601,1617,1618,1633,1634,1634,1650,1650,1668,1668,1668,1683,1684,1684,1701,1701,1718,1718,1718,1735,1735,1750,1751,1751,1771,1771,1772,1772,1783,1784,1784,1801,1801,1801,1817,1817,1817,1817,1817,1835,1835,1835,1850,1850,1850,1850,1867,1867,1867,1867,1883,1883,1883,1883,1900,1900,1900,1917,1917,1917,1933,1933,1933,1950,1950,1950,1969,1970,1970,1983,1983,1983,1983,2000,2000,2000,2001,2001,2017,2017,2017,2018,2033,2033,2033,2034,2050,2050,2050,2050,2051,2067,2067,2067,2083,2083,2083,2083,2100,2100,2100,2100,2117,2117,2117,2117,2117,2133,2133,2133,2133,2150,2150,2150,2150,2167,2167,2167,2168,2168,2183,2183,2183,2184,2184,2203,2203,2203,2203,2217,2217,2217,2218,2218,2233,2233,2233,2233,2234,2252,2253,2253,2253,2267,2267,2267,2267,2283,2283,2283,2283,2300,2300,2300,2317,2317,2318,2318,2333,2333,2334,2334,2350,2350,2351,2351,2351,2367,2367,2367,2368,2368,2383,2383,2383,2384,2400,2400,2401,2401,2401,2417,2417,2417,2417,2420,2420,2433,2433,2433,2434,2450,2450,2450,2451,2467,2467,2467,2468,2468,2468,2483,2483,2483,2484,2484,2484,2500,2500,2500,2501,2517,2517,2517,2518,2533,2533,2533,2534,2553,2553,2553,2553,2567,2567,2567,2568,2568,2583,2583,2583,2584,2584,2602,2603,2603,2603,2617,2618,2618,2618,2633,2633,2633,2634,2653,2653,2653,2654,2667,2667,2667,2683,2683,2684,2684,2700,2700,2700,2719,2719,2719,2720,2735,2736,2736,2750,2852,2852,2872,2893,2915,2916,2936,2950,3051,3110,3150,3247,3276,3379,3402,3402,3418,3418,3438,3438,3439,3439,3451,3451,3452,3452,3467,3467,3467,3468,3483,3484,3484,3500,3500,3517,3517,3518,3533,3534,3550,3551,3551,3567,3567,3568,3568,3583,3584,3584,3584,3600,3601,3617,3617,3617,3634,3634,3635,3635,3653,3653,3667,3667,3667,3686,3686,3687,3700,3700,3717,3718,3733,3733,3734,3734,3750,3750,3767,3767,3768,3768,3785,3786,3786,3786,3800,3800,3801,3801,3817,3817,3818,3833,3833,3833,3850,3850,3851,3851,3866,3866,3867,3883,3883,3883,3903,3904,3904,3904,3916,3916,3916,3917,3933,3933,3933,3950,3951,3969,3970,3970,3983,3983,3983,4004,4005,4005,4021,4022,4022,4038,4038,4039,4050,4050,4070,4071,4071,4083,4083,4084,4105,4106,4106,4107,4121,4121,4122,4122,4138,4138,4156,4157,4157,4158,4166,4166,4166,4187,4187,4205,4206,4207,4207,4216,4216,4216,4233,4233,4254,4254,4254,4255,4268,4268,4269,4288,4288,4288,4289,4305,4305,4305,4306,4321,4321,4322,4335,4335,4336,4336,4356,4356,4357,4371,4371,4372,4372,4389,4389,4390,4400,4400,4400,4401,4401,4416,4416,4417,4417,4417,4434,4435,4435,4436,4436,4450,4450,4451,4451,4451,4452,4471,4472,4472,4473,4473,4488,4488,4489,4489,4490,4500,4500,4501,4501,4501,4516,4516,4517,4517,4517,4518,4538,4538,4539,4539,4555,4555,4556,4556,4557,4572,4572,4573,4573,4583,4583,4584,4584,4584,4605,4605,4606,4607,4607,4616,4616,4617,4617,4617,4618,4633,4633,4635,4636,4650,4651,4651,4651,4672,4672,4673,4683,4683,4684,4684,4700,4700,4701,4701,4702,4725,4726,4726,4727,4733,4733,4734,4734,4752,4753,4753,4754,4754,4767,4768,4768,4783,4784,4784,4800,4801,4801,4816,4816,4817,4817,4833,4834,4850,4850,4851,4866,4866,4883,4884,4976,4986,4986" d="m61,97c4.33334,-2.66666 5.52863,-3.53885 6.88,-4.54533c1.47549,-1.09894 3.02787,-2.26908 4.62,-3.4755c1.59454,-1.20824 3.14819,-2.39167 4.62,-3.5205c2.5493,-1.95522 3.55145,-2.7343 4.37333,-3.37866c0.66452,-0.521 1.18867,-0.93755 1.59,-1.2675c0.30486,-0.25065 0.52934,-0.44209 0.68999,-0.5925c0.23059,-0.21589 0.32684,-0.32017 0.428,-0.42133c0.10316,-0.10316 0.20934,-0.20934 0.3195,-0.3195c0.11517,-0.11517 0.23633,-0.23633 0.36449,-0.36449c0.28133,-0.28133 0.43773,-0.43448 0.59867,-0.60001c0.69821,-0.71808 1.36196,-1.50615 1.76333,-2.11466c0.39046,-0.59197 1.05979,-1.6123 1.578,-2.18933c0.50836,-0.56606 1.28934,-1.32534 1.87017,-1.90617c0.6045,-0.6045 1.39739,-1.2291 1.8685,-1.9045c0.5117,-0.7336 0.36514,-1.74844 0.86133,-2.37467c0.49535,-0.62515 0.57467,0.07467 0.57467,0.97467c0,0.8 -0.01041,1.70006 0,2.6c0.01042,0.90018 0.47652,1.63113 0.87867,2.5c0.30641,0.66203 0.77497,1.50729 1.22116,2.2215c0.42152,0.67474 0.73165,1.67883 0.87484,2.46783c0.18954,1.04446 0.59088,1.68091 1.12533,2.53233c0.43789,0.69761 0.72465,1.35551 1.09867,2.36234c0.30048,0.80886 0.48153,1.35581 0.71867,2.63067c0.12299,0.66117 0.39169,1.7011 0.78799,2.28533c0.41901,0.61771 1.06738,1.59557 1.27383,2.37917c0.26202,0.99448 0.69565,1.6129 0.93684,2.50617c0.19121,0.70817 0.27029,1.72874 0.60484,2.51466c0.43431,1.02028 0.79861,1.59564 1.17916,2.45717c0.42177,0.95484 0.59536,1.49721 0.9,2.3175c0.394,1.06091 0.70502,1.77047 1,2.45067c0.40694,0.93835 0.69536,1.72904 1,2.54933c0.394,1.06091 0.72546,1.75652 0.964,2.41467c0.36074,0.99532 0.38419,1.84025 0.60266,2.97733c0.15425,0.80283 0.3578,1.37393 0.63467,2.32c0.30246,1.03352 0.50367,1.76373 0.67783,2.51334c0.17314,0.74519 0.36926,1.83175 0.46817,2.84283c0.06216,0.63548 0.09957,1.56228 0.27416,2.45717c0.17716,0.90808 0.48164,1.80045 0.7785,2.7c0.29864,0.90495 0.50615,1.51894 0.7,2.15717c0.41315,1.36024 0.60001,2.0955 0.8,2.84283c0.2,0.74733 0.50188,1.83278 0.69867,2.51601c0.2832,0.98322 0.48048,1.63051 0.63467,2.65067c0.10831,0.7166 0.16519,1.87509 0.19199,2.28c0.05562,0.84021 0.19022,2.17551 0.32734,3.106c0.06972,0.4731 0.23628,1.41997 0.36333,2.36333c0.18313,1.35971 0.21001,1.79674 0.24799,2.63733c0.03613,0.79959 0.03184,2.28001 0.03734,2.96268c0.00531,0.65871 0.02744,1.64012 0.16533,2.65067c0.09847,0.72171 0.26358,1.47064 0.444,2.24399c0.18478,0.79207 0.49739,1.98773 0.68484,2.79834c0.19211,0.83076 0.35766,1.70383 0.41917,2.16167c0.19721,1.46793 0.23376,2.53461 0.26,3.08c0.02643,0.54929 0.06952,1.64456 0.10933,2.18134c0.11324,1.52681 0.26329,2.4501 0.416,3.3055c0.14233,0.79726 0.35149,1.89391 0.41467,2.57851c0.09061,0.98193 0.08308,1.63666 0.08533,2.65067c0.00241,1.086 0,1.83333 0,2.58066c0,1.086 0,1.77 0,2.7735c0,0.68901 -0.00371,1.81252 0.00134,2.6485c0.00538,0.89204 0.02679,1.81644 0.05583,2.2825c0.08617,1.38315 0.21934,2.2628 0.36816,3.1015c0.14219,0.8013 0.31692,1.55632 0.45334,2.62534c0.08509,0.66678 0.12899,1.64848 0.20533,2.30533c0.16359,1.40758 0.34904,2.16333 0.52666,2.96268c0.09229,0.41534 0.39097,1.71965 0.58933,2.636c0.20167,0.93164 0.2933,1.39799 0.5,2.3075c0.2906,1.27867 0.49323,2.04114 0.7,2.73784c0.19368,0.65257 0.60337,1.87088 0.8,2.47466c0.30525,0.93732 0.5148,1.60782 0.8,2.73067c0.21098,0.83063 0.39721,1.70731 0.6,2.58c0.09864,0.42448 0.4943,1.92418 0.6955,2.51967c0.26134,0.77345 0.54622,1.73247 0.65633,2.52417c0.11854,0.85229 0.35823,2.05252 0.6175,2.64284c0.26833,0.61095 0.81166,1.485 1.264,2.39999c0.43819,0.88638 0.65394,1.49716 0.96532,2.39999c0.30959,0.8976 0.60895,1.8224 0.83734,2.472c0.24605,0.69983 0.68396,1.8712 1.01666,2.73334c0.17197,0.4456 0.52452,1.34303 0.86334,2.22667c0.3197,0.83376 0.72966,1.95267 0.96317,2.62633c0.21898,0.63176 0.62083,1.84167 0.82083,2.44167c0.3,0.90001 0.50256,1.49915 0.89999,2.70134c0.20129,0.6089 0.50858,1.55333 0.8,2.56534c0.20607,0.71561 0.399,1.45894 0.60001,2.20799c0.19901,0.74159 0.5929,2.14409 0.81065,2.8c0.21696,0.6535 0.45721,1.31693 1.07333,2.70934c0.16405,0.37074 0.52135,1.11354 0.86334,1.86333c0.49374,1.0825 0.89999,2.10001 1.15266,2.75267c0.25267,0.65266 0.65984,1.66974 0.98399,2.38266c0.33432,0.73524 0.68852,1.45708 1.34933,2.78401c0.28043,0.56313 0.64273,1.29323 1.16667,2.33333c0.3027,0.60092 0.7233,1.42499 1.3215,2.20016c0.48778,0.63205 1.10088,1.24234 1.6785,1.96649c0.61493,0.7709 0.98854,1.32724 1.34283,1.88068c0.65311,1.0202 1.0275,1.71341 1.45583,2.55133c0.40738,0.79697 0.74507,1.60269 1.30151,2.38c0.48883,0.68289 1.22115,1.34265 1.72516,1.84668c0.69066,0.69067 1.40775,1.44351 1.9845,1.92731c0.71075,0.59622 1.45351,1.06705 1.9395,1.45801c0.94295,0.75854 1.40686,1.41144 1.99884,2.13217c0.54332,0.6615 1.26616,1.14871 2.25183,1.65717c0.59618,0.30753 1.39999,0.70001 2.39999,1.20001c0.60001,0.29999 1.59517,0.81 2.209,1.09998c0.658,0.31085 1.72067,0.7121 2.35901,0.89868c1.02649,0.30005 1.72128,0.47406 2.69867,0.63467c0.81975,0.1347 1.78152,0.15826 2.75499,0.16681c0.82504,0.00723 1.74342,0.02921 2.74501,0.1665c0.72035,0.09875 1.46069,0.26083 2.20799,0.444c0.74345,0.18222 2.14108,0.58585 2.78934,0.78934c0.6264,0.19662 1.83305,0.60913 2.73599,0.89551c0.59811,0.1897 1.4937,0.45868 2.40034,0.58301c0.91637,0.12567 1.57161,0.11508 2.27032,0.12015c1.1718,0.00851 2.03017,0.00134 2.90851,0.00134c0.85832,0 2.02083,0 2.95383,0c0.771,0 1.73386,0.01282 2.51967,-0.00449c0.82242,-0.01813 1.89171,-0.12476 2.59467,-0.35269c0.92239,-0.29907 1.86868,-0.7579 2.67799,-1.03217c0.54594,-0.185 1.60536,-0.46313 2.56001,-0.58533c0.72278,-0.09253 1.85919,-0.23947 2.52899,-0.38251c0.7291,-0.1557 1.49471,-0.3472 2.68567,-0.64282c0.80002,-0.19858 1.59758,-0.40088 2.39999,-0.564c0.79774,-0.16217 1.99922,-0.3222 2.7955,-0.38333c0.78314,-0.06012 1.55322,-0.05865 2.63783,-0.21933c1.02144,-0.15131 1.67296,-0.35718 2.31934,-0.595c1.02473,-0.37704 1.73547,-0.71243 2.46201,-1.07434c0.72968,-0.36346 1.44424,-0.72437 2.616,-1.56268c0.52118,-0.37289 1.18292,-1.00052 2.19083,-1.57999c0.51953,-0.29871 1.39638,-0.63083 1.97984,-0.90533c1.21454,-0.57144 1.81335,-0.95331 2.39867,-1.39865c0.61617,-0.46881 1.5108,-1.35052 2.09549,-2.02719c0.29955,-0.34665 0.87619,-1.06979 1.41917,-1.8075c0.77502,-1.05298 1.22278,-1.72833 1.68533,-2.341c0.44331,-0.58716 1.15117,-1.39243 1.95717,-2.09348c0.55328,-0.48123 1.17758,-0.92627 2.04283,-1.78152c0.62119,-0.61401 0.9064,-0.96768 1.47917,-1.6875c0.57474,-0.72229 1.35461,-1.81216 1.83682,-2.49384c0.45912,-0.64902 0.89711,-1.28406 1.36801,-1.884c0.71898,-0.91602 1.26866,-1.50131 1.81599,-2.10132c0.54733,-0.60001 1.34274,-1.49257 1.81599,-2.10133c0.46809,-0.60213 0.90816,-1.2355 1.36801,-1.884c0.73546,-1.03717 1.26692,-1.76413 1.54132,-2.12933c0.54591,-0.72659 1.07747,-1.42702 1.85333,-2.34267c0.46094,-0.54398 1.15318,-1.28763 1.60535,-1.81067c0.74808,-0.86536 1.27057,-1.53247 1.79515,-2.23199c0.5174,-0.68994 1.19696,-1.66069 1.55151,-2.23067c0.46091,-0.74092 0.83978,-1.45938 1.29083,-2.19066c0.5011,-0.81242 0.86224,-1.37395 1.6785,-2.412c0.38748,-0.49277 1.01279,-1.15567 1.60001,-1.85068c0.61374,-0.72639 1.00787,-1.27525 1.63599,-2.16266c0.45178,-0.63828 1.18463,-1.67519 1.448,-2.03734c0.53989,-0.74239 1.09286,-1.48906 1.63202,-2.23199c0.51947,-0.71579 1.00519,-1.39561 1.448,-2.05867c0.43173,-0.64644 0.8476,-1.30193 1.436,-2.34666c0.40906,-0.7263 0.79501,-1.48135 1.19998,-2.226c0.59277,-1.08997 0.99741,-1.77245 1.41068,-2.438c0.42133,-0.6785 0.87878,-1.38142 1.61066,-2.55733c0.26416,-0.42441 0.80392,-1.30804 1.07867,-1.75734c0.54715,-0.89478 0.80951,-1.33607 1.57849,-2.55701c0.46048,-0.73111 0.89914,-1.40233 1.31702,-2.034c0.60229,-0.91045 1.21109,-1.81662 1.62534,-2.45067c0.43854,-0.67122 1.14716,-1.79082 1.40048,-2.20116c0.53418,-0.86526 0.80743,-1.31648 1.35333,-2.24251c0.27441,-0.46548 1.06058,-1.84697 1.30383,-2.293c0.46799,-0.85803 0.89825,-1.68129 1.31702,-2.45999c0.202,-0.37563 0.79358,-1.4469 1.40448,-2.42567c0.39304,-0.62975 0.79971,-1.23486 1.40002,-2.136c0.39978,-0.60013 1.00003,-1.49997 1.39999,-2.09999c0.59988,-0.89996 1.00519,-1.49391 1.37915,-2.10001c0.54993,-0.89127 1.00635,-1.79741 1.40619,-2.72133c0.2807,-0.64865 0.564,-1.35933 1.1575,-2.52133c0.21918,-0.42915 0.71582,-1.30954 0.978,-1.75734c0.52567,-0.8978 1.31122,-2.16748 1.55765,-2.55701c0.46194,-0.73018 0.89905,-1.40239 1.31702,-2.034c0.80142,-1.21104 1.2045,-1.80899 1.60449,-2.409c0.39999,-0.60001 1,-1.5 1.60001,-2.39999c0.39999,-0.60001 0.79999,-1.20001 1.39999,-2.10001c0.60001,-0.89999 1,-1.5 1.39999,-2.10001c0.60001,-0.89999 0.99167,-1.50439 1.60001,-2.37917c0.39462,-0.56743 1.1915,-1.60681 1.60001,-2.06366c0.58795,-0.65749 1.39999,-1.45717 2,-2.05717c0.39999,-0.39999 1,-1 1.80133,-1.80133c0.61951,-0.61949 1.05389,-1.05777 2.01999,-2.01984c0.53027,-0.52806 1.06845,-1.06917 1.62601,-1.569c0.77219,-0.69225 1.45331,-1.26526 2.29102,-1.64366c0.87241,-0.39407 1.70847,-0.67303 2.46164,-1.08217c0.79752,-0.43323 1.25183,-1.14038 2.20001,-1.284c0.79095,-0.11981 1.70657,-0.04552 2.5,-0.5c0.70599,-0.4044 1.60684,-0.61079 2.5,-0.5c0.8989,0.11151 0.36115,1.35703 0.28534,0.99867c-0.17468,-0.82562 1.49817,-0.81728 2.14667,-1.42c0.60895,-0.56596 1.32727,-1.12802 1.935,-1.58401c0.66916,-0.50208 1.36737,-1.02588 2.46634,-1.66133c0.66873,-0.38667 1.33234,-0.66821 1.95599,-0.948c1.21399,-0.54465 1.81509,-0.8596 2.68982,-1.38533c0.5675,-0.34108 1.59384,-0.98843 2.28485,-1.364c0.62665,-0.34058 1.63599,-0.836 2.23599,-1.136c1,-0.5 1.60001,-0.8 2.39999,-1.2c1,-0.5 1.59705,-0.80595 2.60001,-1.3c0.60724,-0.29912 1.50494,-0.6891 2.33334,-0.83333c0.96857,-0.16862 1.68848,-0.15459 2.41849,-0.21935c1.08325,-0.0961 2.08759,-0.29561 2.70651,-0.44733c0.85648,-0.20995 1.85559,-0.44681 2.767,-0.48933c0.94034,-0.04388 1.73181,-0.01067 2.58533,-0.01067c1.18933,0 1.78799,0 2.66849,0c0.83551,0 1.83972,0.04401 2.74619,-0.036c0.94666,-0.08354 1.7247,-0.32661 2.54932,-0.53867c1.05548,-0.27142 1.76703,-0.39258 2.62085,-0.42084c1.00394,-0.03322 1.8045,-0.0045 2.80466,-0.0045c0.82068,0 1.96661,-0.00948 2.7525,0.0045c0.54749,0.00974 1.37866,0.01802 2.59467,0.34816c0.68851,0.18694 1.61652,0.50238 2.41434,0.59467c0.88257,0.1021 1.53134,0.09665 2.92233,0.33801c0.74536,0.12933 1.49283,0.31708 2.23199,0.51599c1.06577,0.2868 1.72839,0.49385 2.67334,0.79868c0.61035,0.19688 1.81049,0.59659 2.39999,0.79999c0.85522,0.29507 1.88217,0.71841 2.59601,0.98933c0.71762,0.27235 1.85657,0.49889 2.52451,0.558c0.71017,0.06285 1.81329,0.0976 2.8685,0.27417c0.66455,0.11121 1.58655,0.35847 2.655,0.7785c0.72238,0.28398 1.40161,0.61928 2.33331,1.16667c0.52426,0.30801 1.34555,0.8483 1.93784,1.18066c1.17889,0.66154 1.79651,0.8876 2.65952,1.278c0.55432,0.25076 1.5596,0.84737 2.21515,1.37466c0.62823,0.50533 1.40668,1.13939 2.22086,1.58934c0.78705,0.43495 1.60007,0.81049 2.19998,1.11066c1.00146,0.50107 1.62778,0.80849 2.28534,1.18533c1.00964,0.5786 1.80103,1.1192 2.362,1.40483c1.00891,0.51369 1.73053,0.62962 2.63666,0.79251c1.00397,0.18048 1.80966,0.44289 2.63202,0.63333c0.99197,0.22972 1.66309,0.26686 2.68399,0.284c0.81064,0.0136 1.6908,0.05956 2.68668,0.284c0.86026,0.19388 1.46817,0.40494 2.47998,0.54933c1.08057,0.15421 1.83322,0.15245 2.58069,0.16217c1.08591,0.01411 1.76599,0.0045 2.711,0.0045c0.85498,0 1.8613,-0.03856 2.80298,0.036c1.0766,0.08524 1.70706,0.24617 2.38934,0.38934c1.04459,0.21919 2.01248,0.43871 2.83499,0.5175c0.90274,0.08649 1.91568,0.05716 2.53519,0.05716c1.14581,0 1.93631,0 2.78983,0c0.59067,0 1.78799,0 2.66849,0c0.83551,0 1.83856,-0.03142 2.52084,0.02083c1.1723,0.08978 1.95605,0.33609 2.52084,0.47917c0.87885,0.22264 2.07816,0.4288 2.67917,0.464c0.89902,0.05266 2.10031,0.036 2.70898,0.036c0.96301,0 1.66168,0 2.8335,0c0.85834,0 1.73666,0 2.595,0c1.16251,0 1.80969,0.03772 2.62085,-0.02083c1.21393,-0.08762 1.72568,-0.26836 2.5625,-0.47917c0.87912,-0.22147 1.77823,-0.38759 2.67917,-0.47467c0.89917,-0.08691 1.80368,-0.17491 2.69998,-0.37799c0.90405,-0.20483 1.49371,-0.4057 2.70267,-0.56334c0.61624,-0.08035 1.61414,-0.11461 2.73068,-0.25067c0.83817,-0.10214 1.72852,-0.26653 2.1875,-0.35416c0.9321,-0.17796 2.31284,-0.47775 2.75766,-0.57918c0.86496,-0.19722 1.70105,-0.39842 2.517,-0.59999c1.20508,-0.29768 2.00632,-0.50356 2.82584,-0.7c0.84976,-0.2037 1.29086,-0.31027 2.71201,-0.60001c0.50861,-0.10368 1.57193,-0.30035 2.11731,-0.39999c1.09857,-0.20071 1.64594,-0.2901 3.216,-0.60001c0.49097,-0.09691 1.42007,-0.29544 2.29169,-0.5c0.83368,-0.19565 2.04166,-0.5 2.84164,-0.7c0.80002,-0.2 1.60001,-0.40001 2,-0.5c1.20001,-0.29999 2.0036,-0.4978 2.82135,-0.71066c0.85162,-0.22166 1.7511,-0.46869 2.71198,-0.75601c1.03528,-0.30957 1.56622,-0.48561 2.64587,-0.8125c0.53351,-0.16153 1.04761,-0.35529 2.52081,-0.6875c0.84003,-0.18942 1.60327,-0.26653 2.64368,-0.3815c1.02362,-0.11313 1.74347,-0.22829 2.49231,-0.38783c0.77667,-0.16548 1.56476,-0.36784 2.76404,-0.66383c0.79956,-0.19734 1.59656,-0.39713 2.39996,-0.543c1.1955,-0.21707 2.00104,-0.27763 2.81067,-0.33183c0.82501,-0.05522 1.67621,-0.09457 2.55603,-0.192c0.92047,-0.10193 1.86914,-0.25967 2.35413,-0.33333c0.9834,-0.14937 2.47864,-0.33966 2.97888,-0.37849c0.99042,-0.07689 1.47876,-0.09326 2.42828,-0.11084c0.90125,-0.01669 2.12921,-0.01067 2.86218,-0.01067c1.02448,0 1.6925,0 2.7312,0c0.73132,0 1.47864,0 2.59467,0c1.0625,0 1.72681,0 2.67328,0c1.21069,0 1.81335,0 2.75238,0c0.67267,0 1.79163,0 2.62634,0c0.88263,0 1.78131,0 2.22662,0c1.27203,0 2.39551,0 3.08453,0c0.66901,0 2.04254,-0.0054 2.78247,0.0045c0.78015,0.01045 1.60223,0.02917 2.90503,0.16217c0.4552,0.04646 1.3775,0.18271 2.29163,0.33333c0.87524,0.1442 2.04083,0.34048 2.68567,0.416c0.79254,0.0928 1.86639,0.22131 2.66669,0.52c0.65582,0.24477 1.60815,0.67133 2.42535,0.96399c0.57281,0.20515 1.76501,0.59694 2.65948,0.90001c0.58435,0.198 1.42316,0.48999 2.41913,0.89867c0.66736,0.27382 1.68274,0.6503 2.48535,0.776c0.79773,0.12492 1.80725,0.36601 2.40002,0.636c1.01294,0.46135 1.77917,0.8685 2.6333,1.22266l0.51202,0.168l-0.70166,0.05583" id="svg_1" stroke-width="2" stroke="#000" fill="none"/>
  <path t="6873,6883,6883,6902,6918,6935,6935,6935,6952,6952,6952,6968,6968,6968,6984,6984,6984,7001,7002,7002,7002,7017,7018,7018,7018,7035,7035,7035,7035,7052,7052,7052,7052,7068,7068,7068,7068,7068,7084,7085,7085,7102,7102,7102,7102,7117,7118,7118,7118,7118,7135,7135,7135,7152,7152,7152,7152,7152,7167,7168,7168,7168,7184,7185,7185,7185,7202,7202,7202,7216,7216,7216,7216,7233,7233,7233,7233,7250,7250,7250,7266,7266,7266,7266,7283,7283,7283,7300,7300,7300,7300,7316,7316,7316,7316,7334,7334,7334,7334,7350,7350,7350,7366,7366,7366,7383,7383,7383,7400,7400,7400,7400,7400,7416,7416,7416,7416,7433,7433,7433,7450,7450,7450,7450,7450,7466,7466,7466,7466,7483,7483,7483,7500,7500,7500,7516,7516,7516,7516,7533,7533,7533,7550,7550,7550,7550,7566,7566,7566,7583,7583,7583,7583,7600,7600,7600,7600,7601,7616,7616,7616,7633,7633,7633,7650,7650,7666,7666,7667,7683,7683,7683,7700,7700,7700,7700,7716,7716,7716,7716,7733,7733,7733,7733,7733,7750,7750,7750,7750,7750,7766,7766,7766,7766,7766,7783,7783,7783,7783,7800,7800,7800,7800,7800,7816,7816,7816,7816,7816,7816,7833,7833,7833,7833,7850,7850,7850,7851,7866,7866,7866,7866,7885,7886,7886,7886,7900,7900,7900,7900,7900,7900,7901,7916,7916,7916,7916,7916,7916,7916,7933,7933,7933,7933,7933,7950,7950,7950,7950,7950,7951,7966,7966,7966,7966,7966,7967,7967,7983,7983,7983,7983,7983,7983,8000,8000,8000,8000,8000,8001,8001,8001,8001,8016,8016,8016,8016,8016,8016,8017,8033,8033,8033,8033,8034,8034,8034,8053,8053,8053,8054,8054,8054,8054,8054,8066,8066,8066,8066,8066,8066,8067,8067,8084,8084,8084,8084,8085,8085,8100,8100,8100,8100,8101,8101,8101,8116,8116,8116,8116,8116,8117,8117,8117,8133,8133,8133,8133,8133,8134,8150,8150,8150,8150,8151,8151,8151,8151,8166,8166,8166,8166,8167,8167,8167,8183,8183,8183,8183,8183,8184,8184,8200,8200,8200,8200,8200,8201,8201,8201,8201,8216,8216,8216,8216,8217,8217,8217,8233,8233,8233,8233,8234,8234,8234,8250,8250,8250,8251,8251,8251,8251,8266,8266,8266,8266,8267,8267,8267,8267,8286,8286,8286,8287,8287,8287,8287,8300,8300,8300,8300,8301,8301,8301,8301,8318,8318,8318,8319,8319,8319,8333,8333,8333,8333,8334,8334,8350,8350,8350,8351,8352,8352,8352,8366,8366,8366,8367,8367,8385,8385,8385,8386,8386,8403,8403,8403,8404,8418,8418,8418,8419,8419,8433,8433,8433,8433,8450,8450,8450,8469,8469,8496,8497,8497,8508,8508,8508,8516,8516,8535,8535,8553,8603,8603,8609,8609,8617,8617,8617,8618,8633,8633,8653,8653,8666,8666,8686,8687,8700,8700,8719,8842,8865,8884,8885" d="m505,153c2.36401,1.38933 3.29309,1.78423 3.94733,2.35266c0.6084,0.52863 1.38031,1.08276 1.88867,1.50867c0.57556,0.48221 1.56403,1.25467 2.164,1.63867c0.59998,0.384 1.43152,0.95422 1.97919,1.54167c0.57166,0.61316 1.13763,1.64389 1.40613,2.19432c0.42377,0.86887 0.92877,1.7785 1.38403,2.36267c0.47253,0.60635 1.01135,1.16991 2.06396,2.23466c0.47925,0.48476 0.9502,0.92368 1.56219,1.61934c0.83173,0.94542 1.20367,1.50058 1.60449,2.04733c0.59882,0.81685 1.18738,1.59041 1.82135,2.28534c0.44177,0.48424 0.94897,0.98433 1.82117,1.85716c0.65808,0.65858 1.33667,1.33667 1.67084,1.67084c0.6333,0.63333 1.44116,1.40494 2.16583,2.18666c0.50067,0.54007 1.06696,1.26176 1.53064,1.867c0.51471,0.67184 1.04834,1.38475 1.82349,2.46632c0.48529,0.67717 0.92633,1.3231 1.35602,1.92c0.40527,0.56297 1.20966,1.56604 1.62134,2.03201c0.64288,0.72768 1.36029,1.54453 1.87335,2.18266c0.5459,0.679 1.08862,1.38292 1.36334,1.72667c0.78033,0.97652 1.49707,1.79408 1.93182,2.2845c0.62183,0.70146 1.23004,1.43532 1.61633,1.9735c0.58282,0.81192 0.93988,1.35115 1.52051,2.36467c0.39838,0.69543 0.76709,1.45242 1.20544,2.3255c0.33502,0.66731 0.69208,1.38187 1.08301,2.10899c0.58466,1.0874 0.98987,1.76418 1.57471,2.7065c0.36096,0.58167 1.0025,1.61861 1.39551,2.31635c0.38098,0.67633 0.94446,1.64804 1.27795,2.17799c0.51862,0.82416 0.88361,1.35146 1.46338,2.36467c0.39807,0.69562 0.76935,1.45129 1.20532,2.3255c0.3324,0.66646 0.68646,1.37433 1.026,2.10899c0.49744,1.07626 0.76373,1.7648 1.15265,2.72734c0.24951,0.61761 0.81531,1.82422 1.15265,2.42082c0.34125,0.6035 0.89191,1.48587 1.32568,2.39984c0.27863,0.58716 0.62756,1.45177 0.85498,2.53349c0.14874,0.70758 0.17426,1.6283 0.38837,2.58833c0.18616,0.83463 0.39893,1.43556 0.94501,2.74501c0.3017,0.72345 0.65161,1.45708 0.8125,1.83333c0.31824,0.74426 0.80023,2.17442 0.91095,2.84283c0.15607,0.94182 0.1394,1.56606 0.39655,2.7585c0.13281,0.61581 0.4574,1.56306 0.88,2.56534c0.30475,0.72276 0.66046,1.45782 1.008,2.20799c0.34308,0.74051 0.82092,1.79732 1.06366,2.46817c0.33942,0.93803 0.51611,1.54961 0.67767,2.75583c0.0788,0.58832 0.06146,1.45926 0.30548,2.48016c0.22974,0.96133 0.59912,1.68414 0.87836,2.56401c0.21027,0.66252 0.48236,1.73898 0.61481,2.4745c0.19025,1.05676 0.21661,1.72696 0.31067,2.672c0.12073,1.21289 0.25629,1.81125 0.47467,2.71066c0.14575,0.6004 0.40216,1.79807 0.46399,2.70001c0.04108,0.59909 0.03601,1.79999 0.03601,2.70898c0,0.63266 -0.00201,1.30533 0.00018,2.8335c0.00061,0.42416 -0.00262,1.298 0.03583,2.17084c0.03674,0.83398 0.15942,1.92883 0.38934,2.78934c0.19971,0.74731 0.48035,1.71622 0.53864,2.52267c0.05927,0.82047 0.03601,2.08932 0.03601,2.75381c0,1.02084 0.00061,1.83151 0,2.70618c-0.00067,1.00134 -0.00537,1.85742 -0.05719,2.47632c-0.08441,1.00742 -0.29047,2.09314 -0.46362,2.83835c-0.17419,0.74963 -0.47546,1.83444 -0.6792,2.51599c-0.29462,0.98563 -0.50757,1.63446 -0.79999,2.65067c-0.20673,0.71848 -0.40509,1.4816 -0.63599,2.28c-0.24347,0.84171 -0.68311,2.17548 -0.84802,2.63736c-0.33673,0.94296 -0.52271,1.41354 -0.86334,2.36331c-0.49579,1.38254 -0.63873,1.8287 -0.89551,2.69101c-0.24353,0.8179 -0.44507,1.60214 -0.75714,2.69501c-0.19531,0.68402 -0.50317,1.66568 -0.70001,2.31934c-0.30493,1.01251 -0.49371,1.7366 -0.72131,2.49399c-0.24127,0.80289 -0.5166,1.65448 -1.12134,2.97449c-0.21393,0.46692 -0.70691,1.39413 -0.95734,1.858c-0.49249,0.9122 -0.75836,1.33841 -1.35718,2.57785c-0.34851,0.72137 -0.74408,1.72766 -1.02551,2.34033c-0.41895,0.91202 -0.94769,1.80624 -1.328,2.40265c-0.38495,0.60367 -0.98926,1.50003 -1.58929,2.40002c-0.40002,0.60001 -0.79639,1.20239 -1.40051,2.10031c-0.41058,0.61032 -0.84705,1.25293 -1.37097,1.914c-0.9032,1.13959 -1.28656,1.53436 -2.09552,2.39551c-0.42706,0.45462 -0.87329,0.91238 -1.32898,1.37549c-0.91986,0.93478 -1.83685,1.84851 -2.28253,2.29285c-0.43567,0.43433 -1.28131,1.26898 -1.70068,1.65933c-0.80829,0.75235 -1.1922,1.12692 -2.42096,2.01965c-0.39282,0.2854 -1.20654,0.78851 -2.03583,1.25751c-0.41919,0.23706 -1.73297,0.94803 -2.64935,1.47067c-0.47302,0.26978 -0.95184,0.54874 -1.92535,1.12534c-0.49445,0.29285 -1.98944,1.18912 -2.48914,1.48932c-0.49896,0.2998 -1.4906,0.89819 -1.97937,1.20001c-0.96582,0.59641 -1.44122,0.89127 -2.35413,1.5c-0.89105,0.59421 -1.3252,0.90594 -2.20837,1.54166c-0.45679,0.32877 -1.41199,1.0304 -2.45831,1.79169c-0.5636,0.41006 -1.15265,0.83554 -1.76251,1.272c-0.62347,0.44623 -1.25732,0.89603 -1.89746,1.34399c-0.63824,0.44669 -1.2674,0.89154 -2.50671,1.71732c-1.15717,0.771 -1.71796,1.12064 -2.26129,1.46133c-0.52936,0.33194 -1.56262,0.96375 -2.06934,1.26935c-1.00177,0.60413 -2.00586,1.20447 -2.51166,1.51166c-0.51288,0.31149 -1.56415,0.96121 -2.10535,1.30533c-0.55753,0.35449 -1.72021,1.11728 -2.32834,1.52835c-0.62656,0.42352 -1.26297,0.86224 -1.90802,1.30798c-0.64963,0.44891 -1.29706,0.901 -1.944,1.34399c-1.8674,1.27872 -2.46051,1.66495 -3.03467,2.03336c-0.5546,0.35587 -1.09244,0.69989 -2.14932,1.31467c-0.50937,0.2963 -1.00787,0.59091 -2.52133,1.336c-0.49655,0.24445 -1.50018,0.69559 -2,0.92133c-1.00037,0.45184 -1.51068,0.66269 -3.00034,1.42166c-0.50604,0.25784 -1.01163,0.53476 -2.04132,1.12c-0.53189,0.30231 -1.07263,0.62006 -1.629,0.94501c-1.77176,1.03485 -2.39627,1.39691 -3.03018,1.76599c-0.6394,0.37225 -1.27921,0.74585 -1.91251,1.12201c-0.625,0.37122 -1.24515,0.72278 -2.92249,1.80402c-0.51453,0.33167 -1.00452,0.66458 -1.94333,1.32132c-0.46225,0.32336 -0.91766,0.65842 -2.35419,1.66666c-0.50821,0.35672 -1.03336,0.72327 -2.13864,1.45868c-0.56766,0.37772 -1.14758,0.75211 -1.73703,1.12201c-0.59192,0.37146 -1.78796,1.09128 -2.39081,1.431c-1.18982,0.6705 -1.78799,0.97797 -2.37933,1.28c-0.58334,0.29794 -1.73224,0.86203 -2.85419,1.375c-0.5441,0.24878 -1.62219,0.71588 -2.16266,0.94131c-0.54486,0.22726 -1.67038,0.67957 -2.25867,0.90933c-1.24405,0.48593 -1.90952,0.73706 -2.59732,1.00134c-0.70621,0.27136 -1.42487,0.54852 -2.14801,0.83551c-0.72485,0.28769 -1.44598,0.57428 -2.14801,0.88049c-1.99945,0.87213 -2.59924,1.19492 -3.185,1.49866c-0.57156,0.29639 -1.12653,0.59787 -2.21066,1.20001c-0.53824,0.29895 -1.61926,0.90704 -2.74167,1.49866c-0.56998,0.30042 -1.1492,0.59366 -1.7355,0.88049c-0.58835,0.28784 -1.7753,0.84766 -2.97916,1.35419c-0.5975,0.2514 -1.19867,0.48615 -2.39999,0.94131c-0.59933,0.22708 -1.20178,0.44604 -1.80002,0.67801c-1.80545,0.70004 -2.40073,0.96683 -3,1.23001c-0.60071,0.26382 -1.79852,0.79987 -2.39999,1.056c-0.59857,0.25488 -1.18359,0.5412 -3.00034,1.1185c-0.59738,0.18982 -1.20715,0.33932 -1.82098,0.48148c-1.24774,0.28894 -1.89322,0.40842 -2.54935,0.54401c-1.36316,0.28171 -2.07233,0.43594 -2.79465,0.60266c-0.73172,0.16888 -1.46545,0.34515 -2.19302,0.53552c-1.42487,0.37283 -2.10861,0.56293 -3.375,0.97916c-0.58353,0.19177 -1.64328,0.59351 -2.13333,0.78934c-0.92816,0.37091 -1.80582,0.74701 -2.69998,1.04401c-0.91425,0.30365 -1.39673,0.42154 -2.39584,0.64581c-0.5188,0.11646 -1.60861,0.32471 -2.77084,0.52084c-0.6087,0.10272 -1.86749,0.29999 -2.50665,0.39999c-0.63916,0.10001 -1.27448,0.19324 -2.50668,0.39999c-1.15439,0.1937 -2.198,0.39685 -2.68182,0.5c-0.91028,0.19406 -1.75815,0.39938 -2.9715,0.70001c-0.80008,0.19824 -1.59756,0.40088 -2.39999,0.564c-0.79776,0.16217 -1.99936,0.32263 -2.80002,0.38333c-0.79944,0.06061 -1.60339,0.0737 -2.79999,0.21933c-0.80154,0.09756 -1.59177,0.25891 -2.36401,0.444c-0.75314,0.18051 -1.81351,0.49249 -2.47882,0.68484c-0.94513,0.27325 -1.54944,0.46194 -2.75583,0.62048c-0.87695,0.11526 -1.73279,0.09763 -2.716,0.36935c-0.6795,0.18781 -1.67566,0.73535 -2.28983,1.01016c-0.84039,0.37604 -1.81577,0.59116 -2.61017,0.67917c-0.77469,0.08582 -1.79105,0.36356 -2.53351,0.67267c-0.87976,0.36627 -1.64154,0.30545 -2.61584,0.77798c-0.7778,0.37723 -1.52209,0.54526 -2.49332,0.58536c-0.66257,0.02734 -1.78644,0.20441 -2.44351,0.34198c-1.01456,0.2124 -1.64264,0.38031 -2.83667,0.59467c-0.82712,0.14847 -1.62958,0.33984 -2.36249,0.55267c-1.16519,0.33838 -1.85889,0.40479 -2.82132,0.72134c-0.69693,0.22922 -1.68701,0.56262 -2.37418,0.83133c-0.8573,0.33524 -1.59549,0.88565 -1.76285,0.42648l0.65967,-0.68317l0.55585,-0.66748" id="svg_2" stroke-width="2" stroke="#000" fill="none"/>
  <path t="11120,11140,11140,11140,11140,11140,11140,11140,11140,11140,11150,11150,11150,11150,11167,11167,11186,11186,11187,11187,11201,11201,11201,11201,11201,11201,11220,11220,11220,11220,11220,11220,11233,11233,11233,11233,11251,11251,11251,11251,11251,11271,11271,11271,11271,11287,11287,11287,11287,11287,11304,11304,11304,11304,11304,11304,11316,11317,11317,11317,11317,11333,11333,11333,11333,11333,11350,11351,11351,11351,11351,11351,11366,11367,11367,11367,11367,11386,11386,11386,11386,11403,11403,11403,11403,11419,11419,11419,11434,11434,11455,11455,11455,11469,11486,11486,11502,11502,11519,11536,11553,11553,11569,11970,12007,12023,12039,12051,12066,12066,12083,12100,12100,12101,12116,12116,12116,12133,12133,12133,12133,12153,12154,12154,12166,12166,12166,12166,12183,12183,12183,12183,12183,12203,12203,12203,12203,12203,12216,12216,12216,12216,12236,12236,12236,12236,12252,12252,12252,12252,12253,12253,12269,12269,12269,12269,12269,12286,12286,12286,12287,12299,12299,12299,12299,12299,12319,12319,12319,12319,12319,12333,12333,12333,12333,12349,12349,12349,12349,12366,12366,12366,12366,12383,12383,12383,12383,12402,12403,12403,12403,12403,12416,12416,12416,12416,12433,12433,12433,12449,12449,12449,12449,12466,12466,12466,12466,12483,12483,12483,12501,12501,12501,12516,12516,12516,12536,12536,12536,12552,12553,12553,12566,12566,12586,12586,12602,12602,12616,12616,12633,12675,12699,12716,12733,12749,12766,12787,12811,12827,12827,12846,12886,12939" d="m431,217c-10.33334,10.16667 -11.21054,10.99434 -12.05066,11.76666c-0.79135,0.72752 -1.53992,1.40163 -2.241,2.02501c-0.64835,0.57649 -1.24713,1.10023 -1.79102,1.575c-0.91696,0.80042 -1.28992,1.12405 -1.60532,1.40666c-0.69049,0.61865 -1.43729,1.30444 -1.948,1.89867c-0.72275,0.84097 -1.02921,1.35204 -1.42651,1.91133c-0.4552,0.64079 -1.26648,1.75334 -1.90683,2.58467c-0.33823,0.4391 -0.68735,0.88644 -1.41602,1.78134c-0.36417,0.44724 -1.44617,1.71896 -1.793,2.10782c-0.65656,0.7361 -1.28397,1.41856 -1.57498,1.75751c-0.56784,0.66136 -1.33887,1.69814 -1.78952,2.438c-0.45016,0.73907 -0.84024,1.50166 -1.45715,2.58066c-0.39215,0.68588 -0.7963,1.33304 -1.20001,1.95601c-0.39639,0.61168 -1.00378,1.50836 -1.39999,2.11516c-0.6058,0.92775 -1.01291,1.57344 -1.60016,2.61717c-0.41348,0.73492 -0.6095,1.12555 -1.03583,1.92499c-0.44827,0.84058 -0.92926,1.72079 -1.44669,2.63736c-0.2648,0.46906 -0.80093,1.41357 -1.056,1.89066c-0.50076,0.93668 -0.94739,1.85092 -1.29199,2.73999c-0.32651,0.84238 -0.57172,1.67883 -0.85199,2.48401c-0.42053,1.20819 -0.59851,1.6058 -0.95334,2.42267c-0.37033,0.85254 -0.58487,1.28622 -1.164,2.71201c-0.20587,0.50681 -0.59958,1.56766 -0.79999,2.10666c-0.3992,1.07364 -0.57025,1.61008 -1.20001,3.06c-0.19089,0.43948 -0.59027,1.23132 -0.97916,1.9375c-0.35889,0.65164 -1.00946,1.85834 -1.26819,2.46701c-0.39325,0.92514 -0.6221,1.58707 -1.07397,2.61667c-0.32108,0.7316 -0.67606,1.45926 -1.026,2.16898c-0.48239,0.9783 -0.93253,1.77811 -1.20602,2.48853c-0.3851,1.00034 -0.37143,1.83679 -0.61331,2.82132c-0.19818,0.80664 -0.49106,1.53378 -0.83334,2.47916c-0.30618,0.84561 -0.84366,1.38052 -1.2955,2.17352c-0.38449,0.67477 -0.5784,1.75589 -0.98849,2.54733c-0.44647,0.86163 -0.53006,1.52686 -0.75201,2.39999c-0.21921,0.86227 -0.75024,1.69131 -1.31665,2.34732c-0.51147,0.59238 -0.4754,1.42819 -0.93268,2.25269c-0.38382,0.69202 -1.19162,1.17511 -1.71466,2.13333c-0.35455,0.64954 -0.5827,1.45877 -1,2.5c-0.28812,0.71887 -0.62085,1.38342 -1,2.33331c-0.31284,0.78378 -0.58875,1.63824 -0.71466,2.23468c-0.2511,1.18924 -0.26965,2.10025 -0.33801,2.69867c-0.13754,1.20432 -0.2883,1.81537 -0.59399,2.772c-0.22485,0.70367 -0.67444,1.87091 -0.83734,2.29733c-0.34085,0.89218 -0.69443,1.81461 -0.86331,2.2825c-0.49719,1.37753 -0.77637,2.25861 -1.00601,3.1015c-0.10999,0.40369 -0.38757,1.55609 -0.52533,2.62534c-0.08591,0.66666 -0.13251,1.64807 -0.20535,2.30533c-0.1153,1.04037 -0.26389,1.78094 -0.45764,2.55765c-0.20547,0.82376 -0.61932,2.12698 -0.94235,3.04236c-0.16577,0.4697 -0.51712,1.41559 -0.69064,1.89066c-0.34354,0.94052 -0.80756,2.30267 -0.94,2.73999c-0.25659,0.84717 -0.47772,1.67389 -0.68402,2.48401c-0.30566,1.2002 -0.50638,1.99921 -0.68048,2.80133c-0.17319,0.79797 -0.36636,1.99884 -0.43683,2.80133c-0.07098,0.80835 -0.09894,1.63547 -0.16803,2.48401c-0.07184,0.88226 -0.19183,1.79892 -0.35199,2.72934c-0.08011,0.46533 -0.25107,1.37964 -0.564,2.65198c-0.18823,0.76532 -0.41388,1.4552 -0.64282,2.42435c-0.21353,0.90387 -0.30142,1.81378 -0.38251,2.745c-0.05655,0.64951 -0.18982,1.68646 -0.32733,2.41666c-0.14099,0.74857 -0.39008,1.85959 -0.526,2.92618c-0.08554,0.67108 -0.13467,1.68359 -0.20535,2.3905c-0.11755,1.17551 -0.26944,2.03668 -0.35199,2.48132c-0.16711,0.90012 -0.35104,1.78491 -0.66382,3.00635c-0.18716,0.7309 -0.41702,1.39267 -0.61484,2.34033c-0.24918,1.19366 -0.23611,1.80505 -0.33801,2.70267c-0.13672,1.20422 -0.30917,1.80237 -0.522,2.73599c-0.14771,0.64789 -0.32043,1.6839 -0.36816,2.41217c-0.07135,1.08914 -0.05649,1.7825 -0.05716,2.98383c-0.00043,0.76801 0,1.53601 0,2.73599c0,0.68268 0.0036,1.38135 0,2.69867c-0.00226,0.819 0.03894,1.5285 -0.22134,2.53351c-0.21729,0.83902 -0.54233,1.47681 -0.69464,2.48383c-0.12268,0.8111 -0.1011,1.64783 -0.36801,2.62933c-0.23325,0.85773 -0.54459,1.67816 -0.80002,2.57068c-0.22519,0.78693 -0.61911,1.50708 -0.83197,2.51334c-0.186,0.87933 -0.81021,1.45898 -1.07333,2.21332c-0.29294,0.83978 -0.08258,1.82117 -0.58536,2.41467c-0.5368,0.6337 -1.10797,1.39807 -1.36816,2.27466c-0.22824,0.76892 -0.22382,1.70001 -0.7045,2.40002l-0.33182,0.79999l-0.02084,0.89999l0,0.89999" id="svg_3" stroke-width="2" stroke="#000" fill="none"/>
  <path t="15056,15146,15180,15188,15199,15219,15233,15249,15249,15266,15283,15283,15299,15299,15299,15316,15316,15316,15316,15333,15333,15333,15349,15349,15349,15367,15367,15367,15383,15383,15383,15399,15399,15399,15416,15416,15416,15416,15433,15433,15433,15449,15449,15466,15466,15466,15483,15483,15483,15483,15499,15499,15499,15499,15516,15516,15533,15533,15533,15549,15549,15549,15549,15566,15566,15566,15566,15566,15583,15583,15583,15583,15583,15599,15599,15599,15599,15617,15617,15617,15617,15617,15617,15633,15633,15633,15634,15634,15649,15649,15649,15649,15667,15667,15667,15667,15683,15683,15683,15683,15699,15699,15699,15699,15699,15717,15717,15717,15717,15733,15733,15733,15733,15749,15749,15749,15749,15767,15767,15767,15767,15783,15783,15783,15783,15799,15799,15799,15799,15799,15816,15816,15816,15816,15817,15833,15833,15833,15833,15834,15849,15849,15849,15849,15866,15866,15867,15867,15867,15867,15867,15883,15883,15883,15883,15899,15899,15899,15900,15916,15916,15916,15916,15916,15916,15934,15935,15935,15935,15949,15949,15949,15949,15949,15966,15966,15966,15967,15983,15983,15983,15983,15984,15999,15999,15999,15999,16000,16016,16016,16016,16016,16033,16033,16049,16049,16067,16067,16067,16086,16086,16087,16087,16099,16099,16099,16116,16116,16117,16117,16136,16136,16149,16149,16149,16166,16166,16166,16166,16166,16183,16183,16183,16199,16199,16199,16216,16217,16217,16233,16233,16233,16249,16249,16249,16266,16266,16266,16283,16283,16284,16299,16299,16299,16299,16316,16316,16316,16316,16333,16333,16333,16333,16349,16349,16349,16349,16369,16369,16369,16369,16383,16383,16383,16383,16399,16399,16399,16399,16416,16416,16416,16416,16433,16433,16433,16433,16449,16449,16449,16466,16466,16466,16466,16466,16466,16467,16483,16483,16484,16484,16498,16499,16499,16499,16499,16499,16516,16516,16516,16516,16517,16533,16533,16533,16533,16549,16549,16549,16549,16549,16566,16566,16566,16566,16582,16583,16583,16583,16599,16599,16599,16599,16599,16616,16616,16617,16617,16633,16633,16633,16633,16633,16649,16649,16649,16649,16666,16666,16667,16667,16683,16683,16683,16683,16699,16699,16699,16699,16716,16716,16716,16733,16733,16733,16733,16749,16749,16749,16749,16749,16766,16766,16766,16766,16766,16783,16783,16783,16783,16802,16802,16802,16802,16803,16819,16819,16820,16820,16820,16820,16838,16838,16838,16838,16839,16849,16849,16849,16849,16868,16869,16869,16885,16885,16885,16899,16899,16899,16899,16899,16916,16916,16916,16916,16933,16933,16933,16933,16949,16949,16949,16950,16966,16966,16966,16987,16987,16988,16999,16999,17020,17020,17037,17380,17407,17433,17433,17449,17449,17449,17466,17466,17466,17486,17486,17499,17499,17516,17516,17536,17536,17549,17549,17566,17566,17566,17586,17586,17599,17599,17599,17616,17616,17636,17636,17649,17649,17649,17666,17666,17666,17683,17683,17699,17699,17699,17716,17716,17733,17752,17753,17766,17786,17787,17787,17799,17799,17799,17816,17816,17816,17817,17833,17833,17833,17849,17849,17849,17867,17867,17883,17899,17899,17916,17954,17969" d="m58,93c1.7,1.991 2.67195,1.67188 3.47917,2.02084c0.71398,0.30865 1.28592,0.94151 2.02083,1.5c0.66396,0.50457 1.2,1.17916 1.9,1.87917c0.6,0.6 1.236,1.236 1.92166,1.92166c0.525,0.525 1.14046,1.13955 1.845,1.845c0.51633,0.517 1.05968,1.04777 1.57201,1.608c0.95007,1.03891 1.28803,1.54266 1.876,2.41467c0.5483,0.81317 1.0462,1.40363 1.56,2.01067c0.66948,0.79098 1.08697,1.38965 1.52084,2.2c0.42323,0.7905 0.81286,1.62783 1.18983,2.28533c0.5797,1.01112 0.95169,1.54372 1.28934,2.12534c0.68258,1.17577 0.95203,1.78311 1.3045,2.6685c0.33085,0.83108 0.60602,1.60606 1.02084,2.5c0.28973,0.62437 0.80004,1.62081 1.1,2.22083c0.50006,1.00031 0.8237,1.61156 1.1,2.31434c0.43807,1.11427 0.60255,1.79478 0.8,2.5065c0.30392,1.09542 0.60075,2.15722 0.7955,2.8175c0.26978,0.91461 0.46362,1.46745 0.65183,2.709c0.10229,0.67476 0.27025,1.87509 0.40533,2.40984c0.216,0.85504 0.50047,2.0405 0.562,2.64549c0.09524,0.93639 0.08308,1.61168 0.08533,2.73067c0.00168,0.836 0,1.72801 0,2.65201c0,0.46649 -0.00422,1.84801 0.00134,2.728c0.0053,0.84003 0.01109,1.64189 0.084,2.39999c0.10284,1.06938 0.34888,2.08084 0.48933,2.78401c0.1509,0.75548 0.31022,2.06641 0.34,2.556c0.06281,1.03259 0.06947,1.56743 0.08083,2.64583c0.00563,0.53415 0.0045,2.05783 0.0045,2.9865c0,0.44234 0,1.293 0,2.11166c0,1.20267 0,2.00267 0,2.80267c0,0.8 0,2 0,2.79866c0,0.79068 0,1.56534 0,3.03467c0,0.68401 0,1.35201 0,2.37651c0,1.12349 0,1.95816 0,2.84082c0,0.44934 0,1.34401 0,2.61601c0,0.76399 0,1.8125 0,2.48149c0,1.01851 0,1.73584 0,2.85184c0,0.74733 0,1.83333 0,2.51601c0,0.98399 0.00397,1.63666 -0.00017,3.00533c-0.00221,0.73135 -0.00128,1.47986 -0.057,2.226c-0.08128,1.08847 -0.29755,2.10406 -0.44283,2.7735c-0.14944,0.68855 -0.34709,1.81125 -0.416,2.6485c-0.07333,0.89093 -0.10378,1.81636 -0.13667,2.2825c-0.09755,1.38275 -0.21868,2.26543 -0.38333,3.11217c-0.16103,0.82809 -0.36518,1.63472 -0.564,2.436c-0.19852,0.80005 -0.40088,1.59758 -0.564,2.39999c-0.16218,0.79774 -0.32338,1.99965 -0.38333,2.80901c-0.06163,0.83206 -0.08614,1.70702 -0.21933,3.12433c-0.04794,0.51004 -0.18666,1.57257 -0.26933,2.11734c-0.16692,1.09987 -0.26447,1.64474 -0.36533,2.18134c-0.28704,1.52702 -0.49784,2.44838 -0.67783,3.3055c-0.16708,0.79564 -0.36975,1.89417 -0.4355,2.58116c-0.0647,0.67604 -0.08286,1.74834 -0.08533,2.98134c-0.00093,0.464 -0.00132,1.45804 -0.01067,1.976c-0.01891,1.04814 -0.00066,1.57018 -0.156,3.024c-0.09067,0.84862 -0.27444,1.59943 -0.48067,2.64366c-0.20145,1.02008 -0.2797,1.74095 -0.31667,2.49234c-0.03809,0.77414 -0.03533,1.56534 -0.036,2.76399c-0.00044,0.8 0,1.60001 0,2.40001c0,1.2 0,2.00133 0,2.81067c0,0.82533 0,1.67467 0,3.0105c0,0.4615 0,1.39349 0,2.31749c0,0.89201 0,2.11818 0,2.84251c0,0.65633 0,1.53082 0,2.76166c0,0.6465 0,1.65718 0,2.45717c0,1 0,1.82132 0,2.77066c0,0.87216 0,1.89069 0,2.61469c0,0.73199 0,1.79315 0,2.77866c0,0.62534 0,1.836 0,2.73151c0,0.58365 0,1.41916 0,2.65182c0,0.67801 0,1.87433 0,2.41434c0,0.88501 -0.00385,2.20502 0.00134,2.92233c0.00536,0.74136 0.00699,1.49301 0.084,2.23199c0.14629,1.40378 0.35195,2.03442 0.562,2.92233c0.24535,1.03714 0.29163,1.74133 0.43667,2.64566c0.16175,1.00848 0.34351,1.55466 0.6205,2.4205c0.38362,1.19916 0.61415,1.78418 0.8595,2.65952c0.29762,1.0618 0.33898,1.78549 0.48866,2.6315c0.17986,1.0166 0.47501,1.6225 0.74866,2.28983c0.40893,0.99719 0.70669,1.85379 0.89867,2.47632c0.41768,1.3544 0.59536,2.09372 0.82084,2.83835c0.22716,0.75018 0.62954,1.84116 0.96317,2.51468c0.32562,0.65735 0.72717,1.25549 1.34933,2.48532c0.29915,0.59134 0.65208,1.49777 0.86217,2.10001c0.41712,1.19571 0.59065,1.80695 0.9405,2.69998c0.237,0.60498 0.84058,1.80524 1.2,2.40002c0.36583,0.60541 0.76487,1.20029 1.564,2.39999c0.39977,0.60016 0.8,1.19998 1.2,1.79999c0.6,0.89999 1.20001,1.80002 1.6,2.39999c0.40001,0.60001 0.98441,1.51086 1.61067,2.38934c0.41502,0.58215 0.83816,1.16226 1.61066,1.88916c0.76949,0.72406 1.35921,1.10318 1.89467,1.52017c1.014,0.78967 1.47594,1.2272 2.251,1.91568c0.92817,0.82446 1.29403,1.13211 2.0955,1.79099c0.42253,0.34735 1.2965,1.04529 1.73667,1.38934c0.43318,0.33859 1.65294,1.26978 2.3955,1.7955c0.70047,0.49591 1.40671,0.96423 2.53867,1.67648c0.40809,0.25677 1.27421,0.78543 1.728,1.048c0.91943,0.53198 1.36984,0.81946 2.772,1.452c0.86807,0.3916 1.30403,0.52628 2.125,0.8125c0.77909,0.27164 1.88278,0.67126 2.55766,1.00485c0.99606,0.49234 1.61992,0.89993 2.65067,1.34933c0.70676,0.30817 1.4603,0.5365 2.208,0.79199c0.74298,0.25388 1.81007,0.68378 2.46817,1.02734c0.64264,0.33551 1.54062,0.89426 2.4575,1.32599c0.907,0.42709 1.57199,0.64578 2.27032,0.90533c1.17256,0.43582 2.03474,0.76849 2.48,0.94135c0.89882,0.34894 1.77968,0.69504 2.61601,1.008c0.7625,0.28534 1.81013,0.65326 2.48149,0.86215c1.01506,0.31583 1.7364,0.50742 2.48784,0.7045c0.77388,0.20297 1.56548,0.39941 2.76382,0.70001c0.79576,0.19962 1.5806,0.39529 2.343,0.60001c1.09232,0.29327 2.1011,0.59653 2.73634,0.79999c0.92111,0.29501 1.81599,0.61603 2.73149,0.88934c0.62213,0.18573 1.26811,0.37833 2.67334,0.52533c0.73894,0.0773 1.49062,0.0788 2.23199,0.08398c1.06247,0.00745 2.04921,-0.00891 2.67334,0.03735c1.21436,0.09003 2.1187,0.32083 2.75233,0.46399c0.67168,0.15176 1.79015,0.3508 2.62766,0.41467c0.89079,0.06793 1.81598,0.077 2.2825,0.08084c1.38145,0.01141 2.26297,-0.00253 3.11217,0.01517c0.82555,0.01721 1.63844,0.04468 2.836,0.21066c0.80304,0.1113 1.59799,0.29001 2.40001,0.42599c1.19724,0.203 2.00288,0.26743 2.82133,0.33798c0.85089,0.07336 1.2997,0.08545 2.71199,0.34802c0.51216,0.09521 1.57237,0.37064 2.11734,0.51733c1.0994,0.29593 1.63518,0.48349 3.216,0.81598c0.48775,0.10257 1.4131,0.23773 2.27083,0.29169c0.79544,0.05002 1.89583,0.04166 2.90533,0.04166c0.63634,0 1.55585,-0.00525 2.457,0.00015c0.88954,0.00534 1.75471,-0.00485 2.77916,0.22119c0.72795,0.16061 1.48064,0.4678 2.42101,0.612c0.74895,0.11484 1.58647,0.13864 2.46001,0.15598c0.8732,0.01733 2.09715,0.01068 2.83015,0.01068c1.02451,0 1.6925,0.00299 2.73117,-0.00015c0.73135,-0.00223 1.85518,-0.01324 2.59467,-0.08517c1.06616,-0.1037 1.73232,-0.25223 2.67334,-0.52533c0.61316,-0.17795 1.80579,-0.5994 2.68983,-0.8685c0.56151,-0.17093 1.59619,-0.43643 2.52083,-0.5c0.68268,-0.04694 1.68266,-0.02084 2.47917,-0.02084c1.1875,0 1.97916,0 2.92082,0c0.90001,0 1.91251,0.17722 2.56084,-0.36166c0.49803,-0.41394 1.17201,-1.13 1.75117,-1.46368c0.92747,-0.53433 1.80429,-0.98413 2.59067,-1.53867c0.59145,-0.41708 1.34946,-0.94553 2.10182,-1.336c0.98772,-0.51263 1.60452,-0.75217 2.42883,-1.29999c0.69405,-0.46124 1.48958,-1.09735 2.16667,-1.5c0.83528,-0.49673 1.46791,-1.0466 2.3215,-1.60001c0.67599,-0.43826 1.27516,-0.70947 2.283,-1.19998c0.62863,-0.30597 1.55724,-0.71338 2.34366,-0.99551c0.78581,-0.28192 1.90331,-0.63361 2.6665,-0.69382c0.86935,-0.0686 1.632,-0.01068 2.80667,-0.01068c0.80399,0 1.35333,0 2.65717,0c0.6855,0 1.52069,-0.02878 2.52599,0.00449c0.85382,0.02826 1.81952,0.20609 2.61017,0.42084c0.77847,0.21146 1.85428,0.36285 2.58267,0.65869c0.76657,0.31134 1.40533,1.11334 2.00266,1.71597c0.60269,0.60803 1.19839,1.36768 1.61069,2.03601c0.47281,0.76648 1.07202,1.56763 1.61017,2.18484c0.38181,0.43793 1.18832,1.39365 1.57465,1.93182c0.58279,0.81192 0.93417,1.35449 1.52051,2.36334c0.39417,0.67819 0.75336,1.37692 1.36801,2.36667c0.33347,0.53696 0.8446,1.32144 1.49432,2.17432c0.55917,0.73401 0.92337,1.57666 1.24316,2.46417c0.24506,0.68008 0.87833,1.436 1.65683,1.90018l-0.2355,0.7215" id="svg_4" stroke-width="2" stroke="#000" fill="none"/>
  <path t="22322,22342,22342,22342,22342,22342,22359,22359,22384,22401,22401,22418,22418,22418,22432,22449,22449,22466,22482,22499,22516,22516,22546,22546,22558,22566,22582,22599,22616,22616,22616,22632,22632,22632,22649,22649,22666,22666,22666,22666,22682,22682,22682,22682,22699,22699,22699,22716,22716,22716,22732,22732,22732,22732,22749,22749,22749,22749,22766,22766,22766,22782,22782,22799,22799,22799,22816,22816,22832,22850,22850,22867,22883,22883,22900,22959" d="m250,347c-11,11 -11.63708,11.64713 -12.6185,12.61401c-0.64899,0.6394 -1.24371,1.18091 -2.02966,1.68597c-0.63635,0.40894 -1.17621,1.20755 -1.79483,1.80002c-0.66812,0.63986 -1.56412,0.88626 -2.34634,1.29999c-0.73221,0.38727 -1.4785,0.87387 -2.21066,1.60001c-0.58469,0.57986 -0.98199,1.39944 -1,2.29999c-0.01802,0.90115 0,1.86667 0,2.52536c0,1.008 0.04951,2.00354 0.80133,2.17331c0.87845,0.19836 1.62181,0.68625 2.50317,0.94418c0.82928,0.24268 1.73717,0.05759 2.38216,0.05716c0.99734,-0.00067 1.81955,0.03403 2.62933,-0.08533c1.24657,-0.18372 1.89494,-0.54901 2.85068,-0.74802c0.78627,-0.16373 1.68132,-0.17899 2.31999,-0.25067c1.03725,-0.11642 2.1407,-0.34348 2.888,-0.52664c0.74345,-0.18222 1.80597,-0.4819 2.46367,-0.68933c0.91833,-0.28964 1.99785,-0.6933 2.709,-1c0.68079,-0.29361 1.61511,-0.71146 2.41434,-1c0.57707,-0.20831 1.52295,-0.50717 2.55949,-0.80002c0.7256,-0.20502 1.46126,-0.38879 2.16899,-0.60001c1.27301,-0.37991 2.04321,-0.68839 2.70084,-1c1.01764,-0.48221 1.61035,-0.7973 2.60901,-1.29999c0.79041,-0.39786 1.38852,-0.63657 2.24283,-1.29999c0.59052,-0.45856 1.25717,-1.20001 1.95718,-1.90002c0.5,-0.5 1.19998,-1.19998 1.89999,-1.89999l0.5,-0.5l0.69998,-0.6955l0.70001,-0.53784" id="svg_6" stroke-width="2" stroke="#000" fill="none"/>
  <path t="23642,23672,23688,23688,23702,23719,23753,23753,23862" d="m253,345c2.364,-1.39999 3.02213,-2.20087 3.70001,-2.64282c0.73392,-0.47849 1.59998,-0.71436 2.29999,-1.35718l0.60001,-0.60001l0.6955,-0.69098" id="svg_7" stroke-width="2" stroke="#000" fill="none"/>
  <path t="25009,25019,25019,25019,25019,25019,25019,25019,25019,25019,25034,25034,25034,25034,25034,25034,25034,25034,25034,25049,25049,25066,25066,25082,25082,25082,25099,25099,25115,25115,25115,25131,25131,25149,25149,25166,25181,25199,25215,25231,25249,25249,25266,25282,25299,25316,25316,25316,25332,25332,25332,25349,25349,25349,25366,25366,25366,25382,25382,25382,25399,25399,25399,25399,25415,25416,25416,25416,25431,25431,25431,25448,25449,25449,25449,25449,25465,25466,25466,25482,25482,25482,25499,25499,25515,25515,25531,25532,25549,25549" d="m218,351c-5.33333,5.83334 -6.16685,6.60986 -7.06799,7.41599c-0.93642,0.83771 -1.90219,1.67923 -2.86951,2.52151c-0.95135,0.82837 -1.8741,1.62262 -2.7345,2.38651c-1.50247,1.33392 -2.09755,1.89774 -2.58934,2.392c-0.41499,0.41708 -0.74841,0.78052 -1.00949,1.0965c-0.21667,0.26224 -0.38107,0.49338 -0.51451,0.6915c-0.31804,0.47223 -0.81198,1.08798 -1.51917,1.80051c-0.57864,0.58301 -1.17056,1.19037 -1.71632,1.6955c-0.57001,0.52756 -1.57048,1.25836 -2.17917,1.58932c-0.98639,0.53635 -1.64919,0.74057 -2.31467,1.29602c-0.81212,0.67786 -1.1058,1.51703 -1.68533,2.228c-0.53612,0.65771 -1.48788,0.98511 -1.884,1.68799c-0.46021,0.81659 -0.79987,1.63998 -1.2,2.39868c-0.45271,0.85837 -1.18443,1.65833 -0.65884,2.44281c0.45912,0.6853 1.61487,0.36349 2.48567,0.35703c0.71857,-0.00534 1.53014,0.03894 2.77316,-0.28519c0.70001,-0.18253 1.3627,-0.52957 2.36801,-0.91467c0.81186,-0.311 1.63869,-0.58365 2.63199,-1c0.68883,-0.28873 1.36086,-0.61841 2.37067,-1c0.55626,-0.21021 1.47264,-0.50803 2.48001,-0.79999c0.71436,-0.20703 1.46376,-0.36508 2.5235,-0.75717c0.99309,-0.36743 1.54813,-0.71594 2.289,-1.24283c0.71097,-0.50565 1.43253,-1.00015 2.2675,-1.37466c0.59331,-0.26611 1.92453,-0.78198 2.63599,-1.11066c0.73685,-0.34039 1.46797,-0.70486 2.14801,-1.116c0.94379,-0.57059 1.45407,-0.9953 2.14799,-1.56268c0.82025,-0.67068 1.61531,-1.21115 2.22133,-1.53149c0.98918,-0.52289 1.60902,-0.75668 2.43333,-1.3045c0.69405,-0.46124 1.48801,-1.09982 2.16667,-1.47916l0.9785,-0.39951l0.717,-0.17401" id="svg_8" stroke-width="2" stroke="#000" fill="none"/>
  <path t="26999,27249,27249,27271,27278,27299,27315,27315,27331,27331,27348,27349,27349,27366,27382,27382,27398,27426,27478,27478,27502,27518,27538,27570,27590,27599,27622,27650,27666,27682,27702,27750,27802,27830,27854,27878,27898,27916,27931,27931,27949,27966,27966,27982,27983,27983,27983,27999,27999,27999,28016,28016,28016,28016,28032,28032,28032,28048,28049,28049,28066,28066,28082,28082,28099,28099,28099,28099,28116,28116,28116,28132,28132,28148,28149,28149,28165,28166,28182,28182,28182,28199,28199,28216,28216,28216,28216,28216,28231,28232,28232,28248,28248,28266,28266,28266,28281,28282,28299,28299,28316,28316,28316,28332,28332,28332,28349,28349,28365,28366,28366,28382,28382,28382,28399,28399,28399,28416,28416,28432,28432,28449,28449,28466,28466,28481,28499,28542,28542,28566,28582" d="m261,366c1,0 1.79999,0 2.70001,0c0.89999,0 1.82114,-0.02237 2.78531,0.00134c0.72595,0.01785 1.71283,0.22537 2.51468,0.49866c0.99774,0.34006 1.78873,0.48083 2.51468,0.49866c0.98502,0.0242 1.96933,0.00134 2.65997,0.00134c1.06818,0 1.92535,0 2.82535,0c0.79999,0 1.70001,0 2.60001,0c0.89999,0 1.83481,0.24289 2.6955,-0.00449c0.76788,-0.2207 1.22516,-0.98508 2.10449,-0.99551c0.89993,-0.01068 1.80002,0 2.70001,0c0.89999,0 1.50717,-0.48318 2.18533,-0.91467c0.77505,-0.49316 1.81906,0.00336 2.71466,-0.08533c0.8457,-0.08374 1.24548,-0.95197 1.64734,-1.70001c0.41898,-0.77997 0.31778,-1.78918 0.38867,-2.54666c0.08658,-0.92517 0.31113,-1.71353 0.57465,-2.564c0.18372,-0.59286 0.57346,-1.79642 0.81067,-2.38934c0.36481,-0.91177 0.89511,-1.81265 1.34668,-2.39865c0.46561,-0.60422 1.01563,-1.13684 1.89865,-2.23468c0.37772,-0.4696 0.91837,-1.35272 1.33334,-2.16666c0.40625,-0.79684 0.69363,-1.40323 1.20001,-2.39868c0.29626,-0.5824 0.897,-1.58258 1.32083,-2.12216c0.64111,-0.81622 1.13751,-1.48517 1.47916,-2c0.52475,-0.79074 1.12317,-1.78922 1.47916,-2.45831c0.32739,-0.61539 0.82086,-1.62085 1.22086,-2.42084c0.40002,-0.80002 0.79999,-1.60001 1.09998,-2.20001c0.5,-1 0.80002,-1.60001 1.30002,-2.60001c0.39999,-0.79999 0.70001,-1.39999 1.2045,-2.409c0.33148,-0.66299 0.86215,-1.72433 1.1795,-2.35898c0.34134,-0.68268 0.69019,-1.38159 1.03198,-2.06403c0.59921,-1.19638 0.92294,-1.95139 1.36801,-2.47998c0.68726,-0.81622 1.36053,-1.0675 2.31583,-1.80933c0.61261,-0.47571 1.13104,-1.03824 1.91617,-1.79333c0.5018,-0.4826 1.38086,-1.06796 2.09467,-1.52133c0.80289,-0.50995 1.38232,-1.02487 1.98935,-1.53867c0.79099,-0.66949 1.59387,-1.20065 2.19998,-1.52084c0.99036,-0.52316 1.59927,-0.806 2.60001,-1.3045c0.60403,-0.3009 1.44794,-0.72299 2.42133,-1.09982c0.79694,-0.3085 1.34137,-0.51657 2.41202,-0.73352c0.92258,-0.18695 1.7785,-0.20383 2.56534,-0.45065c0.78113,-0.24503 1.71558,-0.67206 2.57065,-0.71466c1.03473,-0.05154 1.78018,-0.01944 2.69733,-0.00134c0.91254,0.01801 1.67908,0.5274 2.53336,0.91599c0.76309,0.34711 1.44281,0.78851 1.77914,1.58401l0,0.97916" id="svg_9" stroke-width="2" stroke="#000" fill="none"/>
  <path t="29141,29151,29151,29151,29151,29151,29151,29167,29167,29185,29185,29201,29201,29201,29214,29215,29215,29231,29232,29249,29249,29249,29265,29265,29265,29281,29282,29282,29282,29299,29299,29315,29315,29315,29331,29331,29332,29349,29349,29365,29365,29382,29382,29399,29399,29415,29432,29449,29465,29518" d="m339,314c-4.33334,14.66666 -4.61105,15.59958 -4.85867,16.40268c-0.39264,1.27344 -0.49933,1.78714 -0.936,2.80798c-0.3595,0.84042 -0.94986,1.49884 -1.68933,1.99066c-0.67947,0.45193 -1.5145,1.1058 -2.01599,1.81952c-0.40015,0.56946 -0.9624,1.39987 -1.52084,1.95831c-0.55844,0.55844 -1.58542,1.25842 -2.17917,1.64618c-0.80875,0.52817 -1.39297,1.03552 -2,1.54932c-0.79099,0.66949 -1.61139,1.19879 -2.25714,1.578c-0.96524,0.56683 -1.49469,0.90134 -2.3175,1.422c-0.5408,0.34219 -1.53464,0.94998 -2.2045,1.3045c-1.01294,0.53607 -1.62051,0.8215 -2.42084,1.22086c-1.00095,0.49948 -1.60431,0.83246 -2.28534,1.01465c-1.24048,0.33185 -2.07672,0.20142 -2.98132,0.452c-0.84634,0.23444 -1.65759,0.69659 -2.33334,0.83334c-0.98328,0.19901 -1.70056,0.63599 -2.5,1c-0.90594,0.41254 -1.60001,0.87851 -2.5,1l-0.83334,0.16666" id="svg_10" stroke-width="2" stroke="#000" fill="none"/>
  <path t="30279,30289,30289,30289,30289,30315,30334,30351,30381,30381,30398,30398,30398,30398,30414,30414,30414,30431,30431,30431,30448,30448,30448,30448,30464,30464,30464,30464,30481,30481,30481,30481,30498,30498,30498,30514,30514,30531,30531,30548,30548,30548,30548,30564,30564,30564,30581,30581,30598,30598,30598,30614,30614,30614,30614,30631,30631,30631,30648,30648,30648,30664,30664,30681,30681,30681,30698,30698,30698,30714,30714,30714,30731,30731,30748,30748,30764,30764,30781,30781,30798,30798,30798,30814,30814,30831,30848,30848,30864,30864,30941,30949" d="m278,369c-0.87851,14.2775 -0.92014,14.91974 -0.96399,15.85999c-0.03601,0.77234 -0.40872,1.72235 -0.01517,2.61917c0.29013,0.6611 1.46716,0.52084 2.26181,0.52084c1.05069,0 1.68579,0.01587 2.71735,-0.02084c0.69519,-0.02472 1.96448,-0.17456 2.49017,-0.33633c0.97394,-0.29971 1.92944,-0.74802 2.46698,-0.94281c0.85059,-0.30823 2.04285,-0.70001 2.64285,-0.90002c0.89999,-0.29999 1.49957,-0.50128 2.70016,-0.89999c0.60413,-0.20062 1.53418,-0.50546 2.18515,-0.69998c1.03329,-0.30875 1.76395,-0.49603 2.49384,-0.70001c1.05313,-0.29428 1.97769,-0.60025 2.74884,-0.88934c0.86914,-0.32581 1.87799,-0.51968 2.672,-0.66333c1.01129,-0.18295 1.59964,-0.53146 2.76666,-0.78067c0.78046,-0.16666 1.35403,-0.15506 2.23468,-0.16531c1.19724,-0.01392 1.78799,-0.00089 2.64151,-0.00134c1.27182,-0.00067 1.9516,0.06189 2.95715,-0.16666c0.83966,-0.19086 1.50375,-0.54037 2.64267,-0.71185c0.65836,-0.09912 1.35721,-0.10965 2.38934,-0.12015c0.92508,-0.0094 1.94714,-0.00134 2.65067,-0.00134c1.00131,0 1.81732,-0.00055 2.63333,0c1,0.00067 1.91656,-0.00827 2.85065,0.16666c0.79391,0.14868 1.59836,0.45126 2.66669,0.66669c0.70877,0.14291 1.62677,0.18112 2.58783,0.388c0.80093,0.17239 1.55292,0.49905 2.6095,0.69333c0.71014,0.13058 1.6265,0.08322 2.57065,0.08533c0.99869,0.00226 1.81134,0.00446 2.59869,0.22134c0.81671,0.22498 1.79364,0.65964 2.59998,0.74265c0.79657,0.082 1.80957,-0.06049 2.54285,0.09317c1.07227,0.22467 1.82382,0.77618 2.65717,0.94284c0.83334,0.16666 1.58932,0.57468 2.45834,0.95834l-0.04367,-0.569" id="svg_11" stroke-width="2" stroke="#000" fill="none"/>
  <path t="32112,32143,32143,32143,32159,32167,32181,32198,32214,32232,32249,32249,32265,32282,32282,32299,32315,32332,32349,32349,32365,32365,32382,32382,32399,32415,32415,32432,32432,32449,32465,32482,32482,32502,32526,32526,32550,32565,32582,32599,32615,32631,32648,32649,32664,32689,32689" d="m345,245c-5.27084,12.52032 -5.62567,13.0538 -5.77335,13.92133c-0.16061,0.94363 0.99826,0.82242 1.65201,1.30002c0.69907,0.51071 1.32135,0.77866 2.22134,0.77866c0.89999,0 1.69998,0 2.65717,0c0.89551,0 1.75882,0 2.60684,0c0.93597,0 1.95587,0.20215 2.63599,-0.33334c0.66791,-0.52588 0.96466,-1.52896 1.5,-2.14581c0.6586,-0.75888 1.2001,-1.22076 1.89999,-1.92084c0.69992,-0.70009 1.2941,-1.19327 1.51468,-2.084c0.20844,-0.84169 0.08533,-1.88 0.08533,-2.716c0,-0.90018 0,-1.68533 0,-2.62534c0,-1.008 0.41891,-1.87595 -0.03601,-2.73866c-0.33347,-0.6324 -1.564,-0.436 -2.46399,-0.436c-0.89999,0 -1.79999,0 -2.70132,0c-0.68402,0 -1.62402,0.01067 -2.63202,0.16667l-0.64581,0.33333" id="svg_12" stroke-width="2" stroke="#000" fill="none"/>
  <path t="34044,34054,34054,34054,34054,34054,34054,34064,34064,34064,34101,34101,34101,34133,34133,34133,34133,34133,34150,34150,34150,34150,34150,34150,34150,34183,34183,34183,34216,34216,34216,34216,34253,34253,34253,34269,34281,34298,34314,34314,34314,34314,34331,34331,34331,34331,34348,34348,34348,34348,34364,34364,34364,34364,34364,34381,34381,34381,34381,34381,34381,34398,34398,34398,34398,34398,34414,34414,34414,34432,34432,34432,34449,34449,34449,34449,34465,34465,34465,34482,34482" d="m325,381c-3.5,14 -3.73492,14.94183 -3.944,15.77335c-0.18399,0.73178 -0.47934,1.93893 -0.74249,2.85831c-0.29758,1.0397 -0.53625,1.58878 -0.8775,2.54703c-0.28998,0.81427 -0.38989,1.6593 -0.54584,2.39282c-0.27768,1.30618 -0.45395,1.68826 -0.76218,2.54715c-0.34171,0.95212 -0.54404,1.44943 -1.12799,3.048c-0.20212,0.55328 -0.4035,1.11127 -0.77866,2.22668c-0.18268,0.54315 -0.36871,1.06766 -0.65067,2.06665c-0.35217,1.24771 -0.50616,2.21777 -0.61884,3.03635c-0.11526,0.83746 -0.29962,1.81128 -0.47269,2.50366c-0.17422,0.69708 -0.569,1.96072 -0.8685,2.71735c-0.24533,0.61978 -0.79099,1.90842 -0.08981,2.26181c0.80417,0.4053 1.81873,-0.12527 2.4935,-0.34082c0.81525,-0.26041 1.40652,-0.4899 2.58698,-1.12366c0.61942,-0.33255 1.23126,-0.73111 1.884,-1.116c1.03085,-0.60785 1.76974,-1.00272 2.53552,-1.39868c0.78156,-0.40411 1.97916,-1 2.37915,-1.20001c0.80002,-0.40002 1.60001,-0.79999 2.39999,-1.19998c1.20001,-0.60001 1.59903,-0.8024 2.40451,-1.20001c0.81516,-0.4024 1.65118,-0.80319 2.08084,-1c1.33115,-0.60977 1.79492,-0.80121 2.71866,-1.18933c0.89764,-0.37714 1.33514,-0.53915 2.83151,-1.18915c0.59549,-0.25867 1.33356,-0.60867 2.36484,-1.12167c0.62161,-0.3092 1.314,-0.65698 2.44232,-1.22116c0.66266,-0.33133 1.35733,-0.67868 2.052,-1.026c0.97198,-0.48599 1.7865,-0.89102 2.448,-1.20602l0.97333,-0.36264l0.76801,-0.16803" id="svg_13" stroke-width="2" stroke="#000" fill="none"/>
  <path t="35374,35491,35491,35501,35533,35533,35549,35549,35549,35564,35564,35581,35581,35581,35581,35581,35581,35598,35598,35598,35598,35598,35614,35614,35614,35614,35631,35631,35631,35631,35631,35649,35649,35649,35649,35667,35667,35667,35667,35667,35684,35684,35684,35684,35698,35698,35698,35698,35714,35714,35714,35714,35714,35731,35731,35731,35731,35751,35751,35751,35767,35767,35767,35781,35781,35781,35798,35798,35814,35814,35814,35831,35831,35831,35851,35851,35867,35867,35885,35886,35898,35898,35898,35916,35931,35931,35931,35948,35967,35967,35984,35998,35998,36014,36034,36034,36048,36048,36067,36067,36084,36098,36098,36114,36114,36131,36151,36164,36184,36184,36201,36254,36282,36330" d="m418,405c1.16666,1 1.59933,1.58817 1.97467,2.39999c0.41461,0.89673 0.80853,1.39841 1.508,2.36801c0.34274,0.4751 0.84995,1.20499 1.27499,2.08966c0.40659,0.84625 0.89993,1.81546 1.38235,2.48099c0.27896,0.38483 0.91946,1.20544 1.26666,1.63202c0.70721,0.86899 1.41956,1.70239 2.108,2.45734c0.32483,0.3562 0.9512,1.02353 1.58081,1.60583c0.88626,0.81967 1.49765,1.29016 2.10452,1.73016c0.89011,0.64536 1.79877,1.23782 2.40131,1.63599c0.60812,0.40186 1.22931,0.80887 1.884,1.20001c1.02777,0.61401 1.76733,1 2.51468,1.39999c0.74734,0.39999 1.83652,0.99463 2.51599,1.39999c0.66177,0.39481 1.30508,0.80713 1.96802,1.20001c1.03082,0.61093 1.76459,1.00351 2.51599,1.37915c0.74341,0.37164 1.83078,0.86047 2.51599,1.13684c0.65625,0.26471 1.64276,0.62207 2.65067,1.05066c0.72186,0.30698 1.45786,0.66046 2.20801,1.008c0.74054,0.34308 1.80438,0.80231 2.46368,1.07269c0.91595,0.37564 1.50851,0.58386 2.47766,1.23666c0.71063,0.47867 1.34302,1.0744 2.10532,1.49448c0.78094,0.43036 1.63522,0.69427 2.65701,1.12152c0.68146,0.28494 1.45609,0.67044 2.17349,1.2045c0.74048,0.55124 1.51825,1.17978 2.00949,1.53149c0.79169,0.56683 1.58551,1.14838 2.27701,1.75949c0.62756,0.5546 1.29498,1.23788 1.94083,1.88367c0.62097,0.62088 1.14059,1.14444 2.00485,1.72217c0.67841,0.45352 1.51785,1.10294 1.88,1.62402c0.4657,0.6701 1.07739,1.51959 1.63599,2.34131c0.43326,0.6373 0.74194,1.39355 1.39999,2.19736c0.55386,0.67654 1.19568,1.22052 1.57468,2.03598c0.41318,0.88901 0.7793,1.47574 1,2.42535c0.2323,0.99948 0.63577,1.63226 0.90399,2.49597c0.25677,0.8269 0.47919,1.75192 0.83734,2.47736c0.39514,0.80038 0.59833,1.6752 0.85867,2.41199c0.34473,0.97556 0.21036,1.86069 0.77798,2.6795c0.47147,0.68011 1.10928,1.34619 1.48068,2.10983c0.36667,0.75391 0.74133,1.60001 1.13065,2.39999l0.03601,0.89999l0,0.89734" id="svg_14" stroke-width="2" stroke="#000" fill="none"/>
 </g>
 <g display="none">
  <title>muse_image</title>
  <image xlink:href="http://farm1.static.flickr.com/227/518201928_7c2ae4fb60.jpg" id="muse" height="471" width="640" y="4.5" x="0"/>
 </g>
 <g display="none">
  <title>bbox</title>
  <rect stroke="#f00" fill="none" stroke-width="3" height="447.96196" width="618.24" y="26.25815" x="19.2" id="bbox"/>
 </g>
</svg>
