<svg width="640" height="480" xmlns="http://www.w3.org/2000/svg" xmlns:svg="http://www.w3.org/2000/svg" xmlns:xlink="http://www.w3.org/1999/xlink">
 <!-- Sketchy ANNOTATION
  ImageNet ID: n02503517_10075
  URL: http://farm1.static.flickr.com/182/414780652_2ef145eb0b.jpg
  Image Width: 480
  Image Height: 360
  BBox X: 67
  BBox Y: 102
  BBox Width: 171
  BBox Height: 166
  Exposure: 2000ms
  Synset Label: elephant
  Synset ID: n02503517
  Worker Tag: Elephant with tourists
  Sanity Check: 
   Context
   Saved
   Shading
  Comment: 
   {}
  Worker ID: A1P7U2ULSAE7YL
  Assignment ID: 3KYQYYSHYV7KEMN16TT5U6SNXT3DOF
  HIT ID: 3OYHVNTV5TYQ58VH88AQ9ZSSFJPKOA
  Work Time: 194s
  Worker Score: 0.9286
 END ANNOTATION -->
 <g display="inline">
  <title>Layer 1</title>
  <path t="0,208,216,224,232,239,264,272,289,368,376,384,392,400,408,440,544,544,552,568,584,624,728,744,768,880,880,888,920,1064,1072,1072,1088,1096,1209,1217,1241,1241,1257,1267,1267,1289,1305,1337,1369,1385,1385,1425,1425,1441,1457,1481,1489,1497,1521,1545,1569,1593,1625,1633,1657,1673,1697,1705,1753,1793,1809,1817,1849,1881,1897,1913,1929,1945,1955,1961,1971,1985,1993,2009,2009,2017,2033,2041,2057,2073,2073,2089,2137,2145,2161,2177,2177,2193,2201,2201,2209,2225,2241,2241,2249,2257,2265,2273,2281,2296,2305,2313,2329,2329,2345,2354,2361,2377,2385,2393,2417,2433,2433,2441,2449,2449,2465,2481,2481,2505,2505,2513,2529,2537,2545,2553,2561,2561,2570,2577,2587,2601,2609,2617,2633,2641,2649,2649,2665,2681,2697,2697,2705,2729,2737,2753,2753,2761,2777,2787,2793,2801,2817,2825,2833,2849,2857,2857,2873,2881,2897,2905,2905,2913,2913,2921,2929,2937,2945,2953,2953,2961,2961" d="m160.01137,174.09091c-0.7045,-0.64734 -1.71321,-0.8576 -2.38933,-1.436c-0.62668,-0.5361 -1.06758,-1.20038 -1.61067,-1.73067c-0.57335,-0.55983 -0.7419,-1.30943 -1.0045,-2.12883c-0.24283,-0.75771 -1.37285,-0.52898 -2.19417,-0.98849c-0.78822,-0.44101 -1.04686,-1.157 -1.63466,-1.88268c-0.56493,-0.69743 -0.76868,-1.41548 -1.66667,-1.83333c-0.79268,-0.36884 -1.74315,-0.65555 -2.37866,-1.22133c-0.60037,-0.53448 -1.32133,-0.77867 -2.22134,-0.77867c-0.89999,0 -1.73225,-0.24078 -2.61465,0c-0.80788,0.22044 -1.53897,0.789 -2.38535,1.22133c-0.6553,0.33473 -1.3717,0.88918 -1.95267,1.42601c-0.68863,0.63634 -1.29153,1.14314 -2.04733,1.57416c-0.6691,0.38158 -1.29999,1.1785 -1.89999,1.7785c-0.64284,0.64284 -1.02579,1.4128 -1.5,2c-0.51218,0.63422 -0.85716,1.35716 -1.5,2c-0.60001,0.60001 -1.30379,1.29625 -1.8,1.8c-0.68443,0.69485 -0.97687,1.52652 -1.20132,2.39867c-0.20612,0.8009 -0.98825,1.32198 -0.99867,2.20132c-0.01061,0.89545 0.15117,1.91687 -0.35267,2.54733c-0.4886,0.61139 -0.63004,1.36401 -1.14733,2.05267c-0.46999,0.62569 -0.20237,1.55508 -0.51067,2.38933c-0.27583,0.7464 -1.24821,1.03194 -2.08916,1.48933c-0.74734,0.40648 -0.63417,1.33443 -1.12151,2c-0.51222,0.69955 -1.27546,0.79378 -2.168,1.132c-0.73176,0.2773 -1.0409,1.14941 -1.69466,1.70534c-0.61418,0.52226 -1.55323,0.8591 -2.11467,1.48399c-0.68249,0.75961 -0.38802,1.62344 -0.8585,2.44284c-0.46626,0.81206 -0.56604,1.53714 -1.1095,2.19049c-0.57397,0.69002 -1.63176,0.82088 -1.8125,1.64584c-0.20483,0.93489 0.08612,1.82736 -0.02217,2.72083c-0.11148,0.91978 -0.7988,1.45375 -0.97783,2.32083c-0.19454,0.94221 -0.09245,1.75923 -0.5955,2.49384c-0.42709,0.62367 -0.42165,1.63802 -0.42533,2.33267c-0.00533,1.00604 -0.72604,1.52643 -0.98933,2.26334c-0.33289,0.9317 -0.01067,1.88933 -0.01067,2.77866c0,0.89601 0.05437,1.81232 -0.00017,2.71068c-0.04272,0.70386 -0.74453,1.43774 -0.96384,2.29999c-0.22096,0.86876 -0.71894,1.41776 -1.02533,2.21068c-0.32056,0.82961 -0.01067,1.79999 -0.01067,2.71066c0,0.67867 0.04702,1.79459 0,2.67867c-0.04272,0.80341 -0.62682,1.47237 -0.8785,2.32117c-0.23453,0.79094 -0.39361,1.76729 -0.76883,2.38333c-0.49865,0.81868 -0.35267,1.7955 -0.35267,2.6955c0,0.90001 0.1637,1.8573 -0.22134,2.70001c-0.30579,0.6693 -0.44553,1.57379 -0.7995,2.37917c-0.31297,0.71208 -0.97691,1.22531 -0.97916,2.12083c-0.00226,0.89999 0.13272,1.8105 -0.0045,2.7c-0.14368,0.93138 -0.8471,1.46866 -0.991,2.39999c-0.12534,0.81122 -0.0045,1.784 -0.0045,2.64734c0,0.89099 0,1.87416 0,2.75267c0,0.89999 0,1.7 0,2.59999c0,0.90001 0,1.8 0,2.7c0,0.89999 0,1.80002 0,2.69983c0,0.8855 0,1.76151 0,2.73352c0,0.75598 -0.00224,1.66666 0,2.56665c0.00225,0.90451 0.16666,1.76666 0.5,2.60001c0.33334,0.83334 0.41203,1.65686 0.92533,2.38934c0.54935,0.78394 1.34863,1.25388 1.87017,1.91516c0.62926,0.79788 0.6685,1.52081 0.7045,2.52884l0.08533,0.87997" id="svg_1" stroke-width="2" stroke="#000" fill="none"/>
  <path t="3906,3985,3985,3993,3993,4009,4019,4019,4025,4033,4041,4041,4057,4057,4065,4065,4073,4081,4105,4105,4113,4113,4121,4129,4129,4137,4145,4153,4161,4169,4169,4177,4185,4193,4202,4209,4218,4219,4225,4233,4241,4241,4249,4257,4265,4265,4273,4281,4281,4289,4289,4297,4297,4305,4305,4313,4321,4337,4337,4345,4345,4353,4354,4355,4377,4385,4385,4393,4401,4419,4425,4425,4435,4449,4457,4465,4489,4497,4513,4521,4537,4545,4545,4561,4569,4577,4585,4585,4593,4609,4618,4635,4635,4641,4673,4689,4697,4713,4713,4737,4753,4761,4793,4817,4841,4857,4881,4889,4969,4985,4993,5017,5121,5129,5153,5193,5233,5233,5249,5297,5329,5353,5384,5425,5497,5513,5513,5521,5529,5537,5545,5553,5569,5585,5603,5603,5625,5689,5729,5793,5937,5937,5945,5985,6081,6105,6113,6113,6145,6193,6225,6249,6265,6281,6305,6321,6433,6449,6465,6465,6473,6482,6483,6489,6537,6537,6609,6618,6673,6745,6769,6913,6937,6961,6969,6985,7009,7009,7025,7041,7065,7101,7129,7184,7201,7225,7225,7241,7265,7273,7289,7305,7321,7385,7393,7409,7425,7480,7505,7515,7529,7545,7553,7561,7577,7577,7585,7593,7609,7633,7641,7649,7657,7673,7689,7697,7705,7721,7721,7753,7777,7785,7801,7809,7817,7825,7825,7833,7849,7869,7873,7873,7883,7889,7913,7921,7931,7945,7961,7961,7969,7993,8009,8025,8033,8033,8057,8066,8073,8082,8089,8105,8121,8131,8133,8144,8153,8169,8177,8185,8193,8201,8209,8225,8233,8241,8250,8273,8273,8281,8305,8313,8321,8330,8345,8377,8385,8448,8480,8505,8505,8521,8585" d="m157.01137,217.09091c0,1 -0.00668,1.77554 -0.35266,2.64816c-0.31798,0.802 -0.50893,1.81764 -1.09001,2.45184c-0.58481,0.63826 -1.38875,1.09959 -1.5575,2c-0.16859,0.8996 -0.649,1.51009 -1.09967,2.22133c-0.41614,0.65674 -0.83798,1.65065 -0.89883,2.47733c-0.06618,0.89891 0.08232,1.87221 -0.22282,2.64417c-0.30818,0.77962 -0.95607,1.48296 -1.42134,2.25267c-0.45982,0.7607 -0.98351,1.42886 -1.65182,2.0045c-0.71478,0.61565 -1.2298,1.194 -1.73067,1.91068c-0.51236,0.73312 -0.75974,1.56741 -0.97467,2.3685c-0.2326,0.86696 -0.87624,1.55928 -1.52083,2.02083c-0.69357,0.49663 -1.2319,1.15054 -1.64584,2c-0.31784,0.65225 -0.68211,1.41264 -0.83783,2.3c-0.16296,0.9286 -0.87395,1.4328 -1.47467,2.2c-0.50912,0.65021 -0.86081,1.49126 -1.52083,2c-0.76518,0.5898 -1.34917,1.28275 -2.02083,1.52083c-0.98639,0.34964 -1.42281,1.02391 -1.97917,1.8125c-0.47086,0.66739 -1.2,1.36667 -1.7,1.86667c-0.68933,0.68935 -1.10794,1.44057 -1.46667,2.3c-0.29878,0.71579 -0.86751,1.36526 -1.43333,2.13867c-0.54079,0.7392 -1.53616,0.88611 -2.04283,1.50867c-0.59418,0.7301 -1.14385,1.07568 -1.78916,1.43665c-0.84524,0.47278 -1.13,1.38437 -1.51534,2.216c-0.40399,0.87189 -0.49755,1.66394 -1.13667,2.41467c-0.56728,0.66632 -1.4834,0.95932 -1.88,1.71066c-0.40121,0.7601 -0.5121,1.31656 -1.3315,1.57916c-0.75771,0.24283 -0.60062,1.44434 -0.9885,2.19553c-0.3392,0.65692 -0.82025,1.47769 -1.51733,1.88397c-0.72161,0.42056 -1.25334,1.26697 -1.69867,1.89517c-0.63699,0.89856 -1.23905,1.46561 -1.85717,1.96817c-0.70459,0.57288 -1.50442,0.79745 -2.12199,1.53183c-0.58363,0.694 -0.88605,1.39209 -1.72084,1.52219c-0.91548,0.14267 -1.44609,0.763 -2.2,1.388c-0.65743,0.54504 -1.7384,0.28815 -2.43333,0.77731c-0.71503,0.50333 -1.114,1.186 -1.66666,1.83334c-0.55267,0.64734 -1.04357,1.22482 -1.72134,1.87866c-0.57848,0.55807 -0.65466,1.32996 -0.77883,2.22116c-0.11172,0.80188 -0.97123,1.25589 -0.99983,2.10019c-0.03047,0.89948 0,1.79999 0,2.59998c0,0.90002 0,1.80002 0,2.70001c0,0.89999 0,1.88934 0,2.784c0,0.88266 0,1.716 0,2.51599c0,0.90002 0,1.80002 0,2.70001c0,0.89999 0,1.79999 0,2.70001c0,0.89999 0,1.79999 0,2.59998c0,0.90002 0,1.80002 0,2.70001c0,0.91068 -0.00061,1.82132 0,2.67465c0.00067,0.93869 0.28109,1.78265 1.2215,1.82535c0.87759,0.03986 1.77891,-0.02536 2.5785,0c0.90136,0.02859 1.62339,0.68274 2.5,0.94284c0.76891,0.22815 1.85381,-0.2652 2.57867,0.2785c0.64301,0.4823 1.32125,0.73166 2.20667,0.77866c0.80473,0.04272 1.72416,0.46628 2.43066,0.716c0.84267,0.29785 1.80534,0.284 2.65867,0.284c0.93999,0 1.82533,0 2.62533,0c0.9,0 1.84283,0 2.72084,0c0.87917,0 1.81052,0.24344 2.77467,-0.00449c0.71395,-0.18359 0.7045,-1.2955 0.7045,-2.19553c0,-0.89999 0,-1.79999 0,-2.59998c0,-0.90002 0,-1.80002 0,-2.70001c0,-0.88934 0,-1.784 0,-2.7215c0,-0.87851 0,-1.7785 0,-2.57849c0,-0.90002 -0.16521,-1.81921 0.02084,-2.70001c0.17899,-0.84738 0.63399,-1.74377 1.20049,-2.37866c0.53548,-0.6001 1.19519,-1.10583 1.77867,-1.62134c0.63788,-0.56357 1.16667,-1.33334 2,-1.5c0.83333,-0.16666 0.93819,-1.09933 1.61067,-1.57468c0.7187,-0.508 1.74597,-0.28876 2.58932,-0.70932c0.66165,-0.32993 1.6243,-0.30121 2.44284,-0.77316c0.6869,-0.39606 1.30592,-0.86032 1.92116,-1.5535c0.58437,-0.65842 1.03239,-1.03488 1.91518,-1.41019c0.73947,-0.31436 1.5105,-0.65146 2.1875,-1.14581c0.78485,-0.57312 0.9557,-1.53003 1.69049,-1.83783c0.81825,-0.34274 1.21353,-1.15775 1.80951,-1.82886c0.53842,-0.60629 1.27528,-0.95224 2.032,-1.452c0.60892,-0.40213 1.01587,-1.26254 1.63466,-1.88132c0.6188,-0.6188 1.40532,-0.93637 1.88133,-1.63467c0.51079,-0.7493 1.12447,-1.07947 1.76451,-1.71951c0.64003,-0.64001 0.96083,-1.31412 1.87799,-1.48364c0.87236,-0.16125 1.09689,-0.9527 1.72684,-1.71017c0.60262,-0.72461 1.21873,-1.17648 1.90134,-1.71066c0.5999,-0.46945 1.70235,-0.50104 2.00566,-1.27917c0.32526,-0.83441 -0.10428,-1.99484 0.61967,-2.28485c0.88602,-0.35492 1.38362,-0.82874 2.19066,-1.00931c0.87698,-0.19623 1.96281,0.11481 2.19867,-0.52219c0.30159,-0.81451 0.52065,-1.46872 1.39999,-1.47916c0.89995,-0.01068 2.1458,0.26395 2.54283,-0.35718c0.50647,-0.7923 0.47466,-1.62622 1.05717,-2.14282c0.60268,-0.53448 1.39232,-0.94421 2.10001,-1.59982c0.59363,-0.54996 1.65268,-0.83752 1.89549,-1.60468c0.25966,-0.82034 0.82365,-1.34702 1.00317,-2.09683c0.21361,-0.89221 0.68329,-1.58179 1.28532,-2.11334c0.58394,-0.51556 0.716,-1.18533 0.716,-2.08533l0,-0.79999l0.08533,-0.91467l0.79317,-0.50684" id="svg_2" stroke-width="2" stroke="#000" fill="none"/>
  <path t="10145,10264,10265,10281,10289,10297,10305,10313,10329,10337,10361,10385,10393,10440,10465,10473,10481,10489,10512,10521,10537,10560,10569,10585,10594,10609,10649,10785,10801,10841,10875,10905,10937,10937,10977,11009,11025,11081,11081,11097,11113,11129,11168,11185,11193,11210,11264,11273,11321,11321,11329,11361,11369,11393,11409,11433,11465,11489,11512,11544,11569,11584,11593,11609,11633,11633,11657,11665,11689,11697,11705,11723,11737,11753,11753,11769,11777,11785,11793,11810,11817,11841,11849,11857,11865,11889,11904,11969,11985,11993,12010,12065,12121,12121,12153,12225,12225,12305,12321,12337,12361,12384,12416,12417,12432" d="m162.01137,183.09091c-1,0 -1.77744,-0.12428 -2.60001,-0.57466c-0.78038,-0.42729 -1.96703,-0.17177 -2.364,-0.86134c-0.42929,-0.74571 -0.4715,-1.54599 -1.42532,-1.564c-0.89586,-0.01691 -1.91365,0.18362 -2.52667,-0.284c-0.67551,-0.51529 -1.48119,-0.66122 -2.05867,-1.14134c-0.59811,-0.49728 -1.52533,-0.5724 -2.42532,-0.57466c-0.89552,-0.00226 -1.40686,-0.67053 -2.12083,-0.97917c-0.80722,-0.34895 -1.82935,0.05222 -2.45384,-0.44617c-0.60796,-0.48518 -1.5045,-0.57677 -2.38249,-0.57466c-0.93835,0.00226 -1.62476,0.43544 -1.64284,1.2955c-0.01945,0.9258 -0.32423,1.73416 -0.716,2.41916c-0.42789,0.74815 -0.82718,1.48865 -1.16249,2.38535c-0.31808,0.85063 -0.12151,1.7 -0.12151,2.59999c0,0.90001 0,1.8 0,2.7c0,0.90001 -0.41562,1.96913 0.08533,2.59868c0.54637,0.68663 0.69165,1.17317 1.08134,2.00133c0.35686,0.75839 1.53311,0.86949 1.82266,1.61067c0.34732,0.88902 0.82877,1.38362 1.00934,2.19066c0.19623,0.87698 0.00133,1.79868 0.00133,2.69867c0,0.88933 0.18924,1.95023 -0.436,2.47467c-0.63095,0.52922 -1.09602,1.22401 -1.73067,1.85866c-0.63464,0.63464 -1.58879,0.71104 -1.8125,1.66667c-0.2052,0.87654 -0.02083,1.8 -0.02083,2.7c0,0.90001 0,1.8 0,2.67883c0,0.83101 0,1.6385 0,2.60034c0,0.92082 -0.07878,1.87563 0.42534,2.4955c0.50021,0.61507 0.99596,1.28419 1.45332,2.12517c0.40651,0.74748 1.04712,1.26999 1.54668,1.87483c0.54132,0.65541 0.29675,1.55141 0.57916,2.37799c0.26357,0.77142 0.98941,1.43997 1.7,1.64284c0.90424,0.25815 1.4482,0.91945 2.18217,1.00317c0.93262,0.10638 1.94666,0.00133 2.70265,0.00133c0.91068,0 1.81067,0 2.70618,0c0.92599,0 1.8045,0 2.7045,0l0.8,0l0.91466,-0.08533" id="svg_3" stroke-width="2" stroke="#000" fill="none"/>
  <path t="13617,13712,13736,13745,13752,13792,13809,13825,13864,13889,13905,13913,13920,13936,13937,13952,13953,13967,13977,14049,14049,14057,14081,14090,14097,14361,14401,14401,14409,14425,14425,14432,14441,14521,14529,14545,14561,14569,14641,14641,14697,14713,14729,14801,14849,14865,14905,14985,14985,14994,15017,15057,15112,15120,15136,15160,15176" d="m137.01137,213.09091c-0.916,0.284 -1.40001,0.71747 -2.2955,1.0045c-0.76085,0.24388 -1.29179,0.67145 -2.09383,1.00616c-0.75995,0.31715 -1.1315,0.98933 -2.01067,0.98933c-0.90001,0 -1.8,0 -2.7,0c-0.9,0 -1.65717,0 -2.55267,0c-0.86333,0 -1.81454,-0.13069 -2.77267,0c-0.81878,0.11169 -1.34457,0.85182 -2.27467,0.9955c-0.88946,0.13741 -1.70625,0.10088 -2.35266,0.65184c-0.6044,0.51517 -0.82265,1.38612 -0.33667,1.95267c0.63756,0.74324 1.37668,1.31201 2.1465,1.39549c0.88582,0.09607 1.9095,0.0045 2.76367,0.0045c0.87917,0 1.77916,0 2.67916,0c0.9,0 1.8,0 2.6,0c0.9,0 1.80001,0 2.7,0c0.88933,0 1.78534,0 2.7,0c0.90001,0 1.8,0 2.60001,0c0.91466,0 1.81067,0 2.7,0c0.89999,0 1.8,0 2.69867,-0.00133l0.74866,-0.35133l0.48868,-0.61134" id="svg_4" stroke-width="2" stroke="#000" fill="none"/>
  <path t="15769,15872,15880,15896,15921,15937,15945,15961,15985,15992,16000,16009,16023,16041,16057,16065,16089,16097,16105,16112,16121,16121,16138,16154,16161,16177,16177,16185,16193,16217,16225,16248,16257,16273,16273,16289,16305,16313,16328,16344,16354,16377,16409,16409,16417,16433,16441,16457,16481,16496,16512,16545,16569,16641,16657,16721,16753,16865,16881,16889,16937,17009,17017,17032,17053,17056" d="m127.01137,222.09091c-0.916,0.284 -1.3559,0.9707 -2.3,1c-0.89823,0.02788 -1.45955,0.31367 -1.70133,1.19867c-0.21795,0.79776 -0.97824,1.23688 -0.99866,2.20132c-0.01896,0.89532 -0.66998,1.40208 -0.97916,2.10001c-0.37922,0.856 0.10164,1.89488 -0.44617,2.464c-0.48286,0.50166 -0.39307,1.49487 -1.01067,2.01067c-0.63207,0.52788 -1.30621,1.05981 -1.64799,1.82533c-0.33198,0.74353 -0.78049,1.50854 -0.91734,2.39999c-0.14059,0.91579 -0.43916,1.62418 -1.024,2.364c-0.53614,0.67822 -0.63617,1.46815 -1.06,2.15201c-0.49548,0.79945 -0.91467,1.384 -0.91467,2.284c0,0.8 0,1.7 0,2.60001c0,0.89999 0,1.79999 0,2.7c0,0.89867 0,1.784 0,2.7c0,0.8 0,1.7 0,2.60001c0,0.89999 0,1.79999 0,2.69998c0,0.90002 0,1.80002 0,2.70001c0,0.87866 0,1.7045 0,2.60001c0,0.89999 -0.24287,1.83481 0.0045,2.6955c0.2207,0.76788 0.9321,1.47931 1.7,1.70001c0.86066,0.24738 1.77467,0.02533 2.35683,0.57916l0.78933,0.38931l0.90633,0.03601" id="svg_5" stroke-width="2" stroke="#000" fill="none"/>
  <path t="17801,17872,17904,17904,17928,17968,18000,18016" d="m108.01137,274.09091c0.28533,0.91599 1.03665,1.32614 1.8,1.716c0.75289,0.38452 1.67917,0.284 2.636,0.284l0.864,0" id="svg_6" stroke-width="2" stroke="#000" fill="none"/>
  <path t="21386,21513,21513,21522,21522,21545,21553,21617,21641,21649,21665,21682,21682,21699,21706,21737,21745,21825,21834,21858,21905,21913,21913" d="m159.01137,174.09091c-1,-0.16667 -1.6042,-0.66772 -2.48267,-0.916c-0.7881,-0.22275 -1.11378,-0.80011 -1.55333,-1.64799c-0.3602,-0.69484 -0.56129,-1.37381 -1.04933,-2.15067c-0.46492,-0.74005 -0.74112,-1.32359 -1,-2.08534c-0.30176,-0.88791 -0.89603,-1.58879 -0.91467,-2.48534c-0.019,-0.91313 -0.61157,-1.45184 -0.964,-2.15067c-0.42958,-0.85181 -0.03467,-1.84933 0.1855,-2.66383l0.57983,-0.61482" id="svg_7" stroke-width="20" stroke="#fff" fill="none"/>
  <path t="24497,24593,24601,24618,24618,24649,24657,24689,24713,24769,24777,24785,24801,24849,24881,24913,24913,24929,24951,25009,25033,25041,25081,25081,25089,25097,25116,25121,25129,25137,25137,25153,25161,25281,25313,25441,25457,25465,25473,25481,25497,25497,25513,25584,25609,25618,25625,25649,25673,25705,25705,25801,25825,25833,25849,25897,25977,26136" d="m139.01137,163.09091c0,-1 0.1543,-1.91626 1,-2c0.79611,-0.07883 1.37526,-0.4514 2.02083,-0.97917c0.60448,-0.49419 1.52165,-0.24738 2.2005,-0.89949c0.58002,-0.55717 1.21411,-1.10333 2.07867,-1.12134c0.8998,-0.01874 1.8,0 2.7,0c0.8,0 1.7,0 2.64284,0c0.87799,0 1.8017,0.09546 2.55716,-0.284c0.8672,-0.43558 1.74413,-0.2982 2.44284,-0.77318c0.68216,-0.46373 0.23822,-1.77951 0.87799,-2.422c0.6414,-0.64412 1.71782,-0.62386 2.19383,-1.32216c0.51079,-0.74933 1.08667,-1.198 2,-1.19867c0.89601,-0.00066 1.78534,0 2.68533,0c0.90001,0 1.8,0 2.70001,0c0.89999,0 1.7,0 2.59999,0c0.864,0 1.92697,-0.15887 2.5955,0.35716c0.74748,0.57698 0.91972,1.58194 1.8045,1.64284c0.89787,0.0618 1.69093,0.10101 2.39999,0.5c0.87854,0.49435 1.5,1 2.11067,1.48933l0.88933,0.01067l0.88933,0l0.61067,0.284" id="svg_8" stroke-width="2" stroke="#000" fill="none"/>
  <path t="26713,26984,26984,27001,27009,27033,27057,27137,27145,27145,27161,27177,27185,27194,27194,27217,27272,27289,27297,27305,27329,27353,27353,27384,27409,27425,27449,27464,27473,27489,27489,27520,27537,27553,27577,27608,27656,27680,27728,27745,27776,27800,27825,27825,27849,27873,27912,27929,27968,27993,28001,28024,28024,28036,28057,28073,28081,28089,28097,28113,28129,28129,28145,28145,28153,28160,28177,28280,28289,28297,28297,28305,28313,28313,28321,28329,28337,28345,28345,28369,28440,28456,28465,28474,28490,28505,28505,28513,28513,28521,28521,28529,28537,28553,28585,28585,28592,28624,28633,28640,28649,28657,28673,28690,28690,28697,28713,28720,28729,28737,28760,28769,28792,28840,28841,28880,28896,28928,28944,28960,28968,28978,28984,29016,29032,29056,29057,29065,29081,29096,29106,29120,29152,29176,29185,29193,29201,29201,29211,29217,29228,29243,29265,29265,29265,29281,29281,29304,29313,29329,29345,29360,29369,29377,29393,29393,29411,29417,29448,29457,29473,29473,29481,29489,29497,29528,29537,29545,29568,29584,29608,29624,29624,29648,29664,29680,29712,29784,29800,29816,29826,29833,29856,29872,29881,29889,29920,29929,29944,29961,29961,29992,30001,30016,30048,30057,30065,30088,30095,30112,30122,30145,30153,30168,30177,30185,30216,30225,30241,30264,30265,30275,30288,30312,30328,30338,30361,30384,30408,30409,30424,30440,30448,30464" d="m182.01137,157.09091c1,0 1.77864,-0.1221 2.60001,-0.57466c0.77086,-0.42473 1.68533,-0.42525 2.59999,-0.42534c0.90001,-0.00009 1.76669,-0.2206 2.40001,-0.57466c0.86127,-0.48151 1.80815,-0.30885 2.7,-0.42984c0.82135,-0.11142 1.46686,-0.84135 2.3,-0.98483c0.88699,-0.15276 1.84239,0.25716 2.6955,-0.01517c0.82051,-0.26192 1.246,-0.98508 2.18716,-0.9955c0.80745,-0.00894 1.29549,-0.60739 1.95334,-0.964c0.84807,-0.45973 1.864,-0.036 2.76399,-0.036c0.90001,0 1.8,0 2.60001,0c0.89999,0 1.8,0 2.7,0c0.89999,0 1.80975,0.15694 2.66667,0c0.78822,-0.14436 1.26877,-0.98199 2.13333,-1c0.8998,-0.01874 1.8,0 2.7,0c0.8,0 1.7,0 2.60001,0c0.89999,0 1.78932,0 2.75716,0c0.84283,0 1.74284,0 2.64284,0c0.8,0 1.71466,0 2.61067,0c0.88933,0 1.78932,0 2.68933,0c0.89999,0 1.8,0 2.7,0c0.75717,0 1.65266,0 2.51601,0c0.96317,0 1.91882,-0.24287 2.7795,0.0045c0.7679,0.22072 1.26556,0.93774 2.18716,1.2795c0.67274,0.24947 1.55991,0.75815 2.37866,1.14134c0.64987,0.30414 1.65195,0.50401 2.43867,0.92732c0.84305,0.45361 1.7,0.64734 2.5,0.64734c0.89999,0 1.60078,0.20021 2.284,0.716c0.61534,0.46455 1.56467,0.32774 1.98801,0.89467c0.56178,0.7523 1.32161,1.09573 2.32666,1.30533c0.75682,0.15784 1.66531,0.46127 2.39999,0.8c0.85696,0.39511 1.74838,0.20915 2.50583,0.64116c0.9342,0.53281 1.45996,1.14595 2.36218,1.47617c0.80212,0.29358 1.27454,0.92609 2.03784,1.16217c0.85635,0.26488 1.64124,0.53192 2.49548,0.9205c0.76309,0.34712 1.45798,0.83443 2.10001,1.3795c0.75458,0.64064 1.46701,1.0125 2.05267,1.65182c0.5343,0.58325 1.0802,1.30391 1.48065,2.05267c0.42328,0.79144 1.1384,1.2117 1.76666,1.57466c0.84567,0.48857 1.46356,0.98672 1.97467,1.46133c0.53516,0.49695 0.85983,1.35844 1.34134,2.16267c0.44522,0.74362 1.02759,1.37509 1.69467,1.82666c0.73685,0.49878 1.48932,1.07468 1.98932,1.57468c0.6955,0.6955 1.34833,1.34692 1.39999,2.10449c0.06396,0.9379 0.98141,0.96457 1.64734,1.35266c0.80688,0.47023 1.55713,0.55888 2.23135,1.16434c0.61761,0.5546 0.78427,1.33093 1.41681,2.07851c0.63937,0.75568 1.07721,1.39146 1.62186,1.98666c0.6571,0.71809 0.93671,1.54562 1.43448,2.06067c0.75064,0.77664 1.22971,1.35312 2.00534,2.00533c0.69647,0.58565 1.2923,0.79543 1.80951,1.48067c0.52679,0.69792 1.29041,0.93007 2.03198,1.45201c0.78162,0.55011 0.38657,1.53896 0.85852,2.3575c0.39606,0.68687 0.56604,1.53714 1.1095,2.19049c0.57394,0.69 1.25449,0.86523 1.83331,1.64584c0.4722,0.63684 1.36963,0.94998 1.87851,1.74232c0.47919,0.74611 0.6293,1.38715 1.06433,2.13567c0.42447,0.73038 -0.12418,1.79631 0.22385,2.64284c0.27588,0.67108 0.82291,1.49982 0.83331,2.39999c0.01041,0.89995 -0.32495,2.07907 0.35718,2.54283c0.69757,0.47426 1.60031,0.40132 2.14282,1.05717c0.49878,0.603 0.49774,1.5 0.5,2.39999c0.00226,0.89552 0.54071,1.47466 1,2.12083c0.49551,0.69711 0.93912,1.57306 1,2.47917c0.05362,0.7982 -0.41269,1.82343 0.05719,2.64284c0.39441,0.68782 0.60574,1.50606 1.1095,2.19049c0.48059,0.65298 0.83331,1.26668 0.83331,2.16667c0,0.87866 0,1.7045 0,2.60001c0,0.89999 -0.24594,1.83571 0.00452,2.6955c0.22092,0.75842 0.99548,1.06166 0.99548,1.9045c0,0.90001 0,1.8 0,2.60001c0,0.89999 0,1.8 0,2.7c0,0.89999 0,1.8 0,2.69867c0,0.968 0,1.80133 0,2.60133c0,0.89999 0,1.8 0,2.7l0,0.89999" id="svg_9" stroke-width="2" stroke="#000" fill="none"/>
  <path t="31873,31952,31952,31961,31969,31976,31986,31993,31993,32000,32009,32009,32025,32025,32041,32041,32049,32064,32064,32075,32081,32088,32088,32096,32096,32104,32112,32120,32120,32128,32136,32136,32144,32153,32160,32169,32176,32176,32186,32200,32216,32216,32232,32232,32232,32240,32248,32256,32256,32264,32264,32272,32288,32288,32312,32312,32336,32360,32368,32386,32386,32400,32400,32408,32416,32432,32440,32464,32472,32512,32522,32522,32528,32544,32552,32552,32560,32576,32576,32712,32720,32728,32736,32752,32752,32752,32842,32842,32912,32936,32944,32952,33040,33064,33064,33072,33080,33080,33096,33112,33112,33336,33336,33344,33360,33368,33368,33376,33408,33432,33432,33456,33464,33496,33512,33524,33529,33560,33569,33576,33584,33592,33608,33624,33634,33641,33656,33664,33664,33673,33680,33688,33696,33712,33712,33728,33728,33737,33737,33753,33760,33776,33800,33809,33825,33840,33849,33856,33873,33873,33874,33944,33976,34000,34008,34009,34032,34048,34064,34080,34208,34208,34232,34280,34352,34392,34408,34504,34513,34832,34840,34896,34902,34960,34984,35016,35025,35041,35072,35168,35288,35320,35320,35336,35352,35368,35392,35560,35560,35608,35632,35664,35680,35712,35736,35744,35768,35824,35840,35848,35848,35856,35856,35873,35873,35888,35898,35928,36016,36025,36037,36037,36041,36041,36051,36056,36056,36161,36169,36185,36185,36193,36205,36205,36222,36297,36329,36329,36353,36385,36425,36457,36505,36513,36561,36673,36705,36729,36745,36761,36771,36786,36805,36817,36817,36838,36849,36913,36921,36945,36960,37025,37037,37038,37042,37057,37071,37073,37097,37137,37161,37193,37193,37202,37221,37249,37265,37289,37305,37314,37321,37331,37338,37361,37371,37401,37417,37425,37441,37441,37465,37489,37505,37522,37537,37545,37553,37570,37577,37593,37609,37625,37641,37657,37671,37687,37703,37705,37721,37731,37747,37769,37777,37777,37801,37810,37817,37836,37841,37881,37881,37897,37906,37914,37921,37930,37937,37947,37970,37970,37977,37987,38025,38025,38035,38049,38058,38070,38074,38086,38090,38097,38097,38106,38121,38137,38161,38170,38193,38193,38203,38209,38220,38225,38237,38253,38257,38321,38337,38353,38363,38369,38387,38433,38481,38481,38491,38497,38523" d="m176.01137,247.09091c0,1 0,1.8 0,2.7c0,0.90001 -0.02579,1.82085 0.35266,2.60451c0.42926,0.88887 0.46402,1.75964 0.93134,2.5275c0.44321,0.72823 0.60086,1.4046 1.00134,2.284c0.31592,0.6937 1.0592,1.51425 1.3575,2.23132c0.3611,0.86804 0.52591,1.81726 1.06166,2.35718c0.6875,0.69284 1.03136,1.45447 1.46217,2.2955c0.3403,0.66434 1.13713,1.29623 1.63333,1.79999c0.68443,0.69485 1.00337,1.61282 1.64267,2.30002c0.46725,0.50226 1.27257,1.159 1.724,1.89999c0.43607,0.71576 1.51923,0.87506 1.82266,1.61066c0.3649,0.88461 0.93346,1.00412 1.67734,1.72269c0.52336,0.50555 0.37927,1.62445 0.85416,2.20831c0.61292,0.75354 0.90741,1.53918 1.64584,2.29169c0.59242,0.60373 1.42905,0.86655 2.07166,1.46664c0.74884,0.69931 0.9886,1.56235 1.64835,1.784c0.94679,0.31808 1.69563,0.47183 2.5925,0.93686c0.80246,0.41608 1.06128,1.34421 1.6875,2.14581c0.46825,0.5994 1.18886,1.29343 1.93317,1.71201c0.74178,0.41718 1.34914,0.97174 2.08549,1.14667c0.93854,0.22296 1.64157,0.62305 2.51466,1.02734c0.83173,0.38513 1.59865,0.91867 2.5,0.94733c0.89938,0.02859 1.28528,0.5256 1.96667,1c0.68391,0.47614 1.66641,-0.19125 2.53333,0.05716c0.89658,0.25693 1.6163,0.87177 2.47467,0.93216c0.93774,0.06598 1.82573,-0.01468 2.62534,0.01068c0.90135,0.02859 1.62254,0.68558 2.5,0.94284c0.86674,0.25412 1.86592,0.22577 2.536,0.48248c0.7645,0.29291 1.75363,0.5448 2.59334,0.57333c0.92729,0.03149 1.89235,-0.19354 2.76933,0.00269c0.80704,0.18057 1.22614,0.98065 2.13466,0.99866c0.85184,0.01688 1.83476,-0.17841 2.66667,0.16666c0.78436,0.32532 1.53592,0.78464 2.32133,1.05469c0.87341,0.30029 1.70306,0.52301 2.47733,0.86264c0.87816,0.38519 1.28145,1.30594 2.20134,1.74936c0.64726,0.31198 1.6676,0.08926 2.39999,0.60266c0.78996,0.55374 1.02351,1.3996 1.62534,2.12799c0.48219,0.58362 1.59346,0.77835 1.88934,1.63602c0.29477,0.85446 0.39647,1.56357 1.03265,2.15265c0.57559,0.53299 0.71118,1.33655 1.0735,2.1265c0.33514,0.73068 1.57727,0.84937 1.89384,1.72086c0.30867,0.8497 0.08318,1.79999 0.08533,2.63333c0.00226,0.87198 0.24802,1.48587 0.716,2.33466c0.43095,0.78159 -0.01189,1.92725 0.45067,2.66534c0.44252,0.70612 0.82291,1.20813 0.83333,2.16666c0.01064,0.9791 -0.45338,1.95914 0,2.71332c0.37766,0.6282 0.99933,1.08801 1,1.98669c0.00067,0.89999 0,1.79999 0,2.69998c0,0.89999 0,1.80002 0,2.70001c0,0.89999 -0.4095,1.80615 0,2.54282c0.32874,0.5914 0.89552,0.94507 1.35716,1.65717c0.517,0.79745 1.384,1.2338 1.60684,2.10001c0.22443,0.87231 -0.04614,1.8038 0.03616,2.70001c0.08368,0.91144 0.7999,1.55264 0.979,2.39999c0.18396,0.87036 0.62823,1.27814 0.98483,1.936c0.45972,0.84808 -0.03714,1.91425 0.46133,2.53867c0.46689,0.58487 -0.0643,1.08295 -0.50934,1.82666c-0.40839,0.68246 -0.72675,1.6489 -1.35199,2.17334c-0.63095,0.52924 -1.1347,1.18756 -1.73068,1.85867c-0.53842,0.60629 -1.19472,1.03122 -2.05482,1.16681c-0.89474,0.14105 -1.4565,0.81644 -1.80383,1.59985c-0.36252,0.81766 -0.93196,1.59549 -0.97467,2.45267c-0.04715,0.94617 0,1.74731 0,2.64734c0,0.89999 -0.04915,1.86612 0.61067,2.32532c0.7263,0.50546 1.58514,0.92612 2.45065,0.97467c0.78816,0.04422 1.52393,0.39505 2.224,0.91599c0.69818,0.5195 1.45413,0.81552 2.19867,1.28403c0.67554,0.42508 1.55798,1.11273 2.31467,1.51465c0.74811,0.39737 1.59534,0.38745 2.19684,0.93268c0.46881,0.42493 1.41516,0.35266 2.32584,0.35266c0.85333,0 1.79468,0 2.56265,0c0.94135,0 1.94934,0 2.75433,0c0.88251,0 1.77234,0 2.68301,0c0.85333,0 1.79333,0 2.67865,0c0.80002,0 1.70001,0.00073 2.63602,0c0.84665,-0.00067 1.61578,-0.11008 2.41217,-0.64734c0.72174,-0.48691 1.3848,-0.90338 1.89917,-1.64816c0.50882,-0.73676 1.2616,-1.09619 1.76865,-1.78851c0.51947,-0.70926 0.284,-1.62048 0.284,-2.51599c0,-0.89999 0,-1.79999 0,-2.69998c0,-0.90002 0,-1.80002 0,-2.70001c0,-0.79999 0,-1.70001 0,-2.64282c0,-0.87802 0,-1.75717 0,-2.65717c0,-0.89868 0,-1.86667 0,-2.70001c0,-0.79999 0,-1.70001 0,-2.60001c0,-0.89999 0,-1.78934 0,-2.75717c0,-0.84283 0,-1.74283 0,-2.64282c0,-0.79999 0,-1.70001 0,-2.60001c0,-0.89999 0,-1.79999 0,-2.69998c0,-0.90002 -0.24692,-1.93423 0.28403,-2.61603c0.48795,-0.62656 1.44159,-0.95789 1.70532,-1.69464c0.29977,-0.83737 0.00998,-1.78934 0.01065,-2.68933c0.00067,-0.90002 0.30084,-1.75085 0.64734,-2.40002c0.45334,-0.84937 0.31366,-1.81287 0.77802,-2.31067c0.51364,-0.55063 0.66412,-1.40668 1.14932,-2.01465c0.49838,-0.62451 0.62555,-1.37549 1.14133,-2.05869c0.46454,-0.61533 0.284,-1.74933 0.284,-2.52664c0,-0.88934 -0.21326,-1.81259 0,-2.77869c0.14545,-0.65884 0.99362,-1.01923 1.5,-1.61066c0.50894,-0.59442 0.3429,-1.51572 0.51068,-2.39999c0.17947,-0.94592 0.9043,-1.5874 0.98801,-2.39999c0.09222,-0.89529 0.23212,-1.67953 0.71732,-2.36935c0.50504,-0.71802 0.67255,-1.46124 1.45068,-1.99731c0.59399,-0.40921 0.82797,-1.43329 0.83331,-2.33334c0.00531,-0.89996 -0.07303,-1.85016 0.42535,-2.47467c0.4852,-0.60797 0.43027,-1.50162 0.93182,-2.32532c0.34781,-0.57123 1.23593,-1.14377 1.58566,-1.99551c0.34164,-0.83203 0.90305,-1.47263 1.04651,-2.3045c0.15298,-0.88696 0.01065,-1.79999 0.01065,-2.69998c0,-0.90002 -0.19781,-1.89853 0.28403,-2.61734c0.4418,-0.65909 0.56232,-1.27924 0.71597,-2.32101c0.11575,-0.78482 0.97141,-1.11737 1,-1.96167c0.03046,-0.89948 0,-1.79999 0,-2.59998c0,-0.90002 -0.00192,-1.81961 0.42535,-2.60001c0.45038,-0.82257 0.57465,-1.70001 0.57465,-2.60001c0,-0.87866 0,-1.7045 0,-2.60001c0,-0.89999 0,-1.79999 0,-2.69998c0,-0.90002 0,-1.80002 0,-2.70001c0,-0.79999 0,-1.70001 0,-2.564l0,-0.95685" id="svg_10" stroke-width="2" stroke="#000" fill="none"/>
  <path t="39122,39161,39161,39169,39179,39185,39193,39201,39217,39225,39233,39233,39241,39257,39257,39265,39265,39273,39289,39289,39297,39305,39305,39313,39321,39337,39337,39345,39345,39353,39353,39361,39369,39378,39378,39385,39385,39394,39394,39401,39401,39409,39417,39425,39433,39433,39441,39441,39449,39457,39481,39481,39497,39513,39529,39529,39545,39545,39553,39553,39561,39561,39569,39578,39585,39585,39595,39601,39617,39618,39633,39649,39649,39665,39665,39681,39689,39705,39714,39721,39730,39745,39745,39761,39761,39778,39785,39801,39825,39833,39857,39881,39905,39913,39945,39985,40047,40049,40361,40385,40401,40401,40417,40425,40433,40577,40585,40601,40611,40633,40817,40826,40841,40849,40866,40873,40881,40905,40905,40937,41009,41025,41049,41057,41077,41089,41129,41129,41145,41145,41169,41217,41265,41281,41289,41353,41353,41369,41409,41409,41425,41425,41465,41481,41489,41505,41529,41553,41577,41577,41601,41601,41610,41617,41641,41665,41681,41689,41689,41705,41713,41721,41729,41746,41769,41778,41817,41817,41825,41842,41889,41913,41921,41945,41945,41969,41978,42009,42025" d="m312.01135,244.09091c0,1 0,1.8 0,2.7c0,0.90001 0,1.8 0,2.7c0,0.89551 0,1.8215 0,2.70001c0,0.89999 0,1.7 0,2.65717c0,0.89999 0,1.64734 0,2.64148c0,0.76535 0,1.84418 0,2.70151c0,0.78519 0,1.72516 0,2.73318c0,0.75598 0,1.66666 0,2.57733c0,0.91083 0,1.79999 0,2.78915c0,0.77933 0,1.63351 0,2.49567c0,0.90451 0,1.82535 0,2.78983c0,0.72534 0,1.71469 0,2.51468c0,1 0,1.78934 0,2.83334c0,0.75598 0,1.66666 0,2.56665c0,0.90451 0,1.76666 0,2.60001c0,0.97849 0,1.79868 0,2.70001c0,0.94281 0,1.86932 0,2.65182c0,1.0015 0,1.86966 0,2.74832c0,0.78519 0,1.73584 0,2.50116c0,0.99869 0,1.79868 0,2.79733c0,0.76535 0,1.84418 0,2.70135c0,0.89999 0,1.69998 0,2.60001c0,0.93597 0.00452,1.784 0,2.64731c-0.00534,1.01672 -0.38214,1.80112 -0.71597,2.53802c-0.33017,0.72885 0.14169,1.73831 -0.32001,2.668c-0.35107,0.70697 -0.76773,1.28247 -1.02118,2.14667c-0.25732,0.87741 -0.74976,1.54471 -1.16415,2.40015c-0.3414,0.70468 -0.62967,1.57339 -0.86267,2.41583c-0.24368,0.88107 -0.85513,1.57788 -0.91602,2.48401c-0.06143,0.91391 0,1.7045 0,2.60001c0,0.89999 0,1.79999 0,2.69998c0,0.90002 0,1.80002 0,2.70001c0,0.91467 0.03568,1.76645 -0.52081,2.5c-0.58948,0.77704 -1.11548,1.27133 -1.87918,1.88934c-0.74365,0.60178 -1.55719,0.89301 -1.60001,1.81067c-0.04193,0.89883 -0.50778,1.40863 -0.94281,2.15717c-0.42447,0.73038 -0.33618,2.02148 -0.05719,2.02148c0.87866,0 0,-1.77866 0,-2.67865c0,-0.90002 0,-1.80002 0,-2.70001c0,-0.79999 0,-1.71466 0,-2.61066c0,-0.88934 0,-1.78934 0,-2.68933c0,-0.89868 0,-1.78534 0,-2.70001c0,-0.75717 0,-1.65268 0,-2.51599c0,-1.03735 0,-1.92001 0,-2.784c0,-0.89868 0,-1.78403 0,-2.70001c0,-0.79999 0.33063,-1.50296 0.83334,-2.33334c0.36398,-0.6012 0.16666,-1.64517 0.16666,-2.46533c0,-1.03467 0,-1.81198 0,-2.70132c0,-0.89999 -0.07568,-1.80328 0.00134,-2.70132c0.08371,-0.9758 0.51682,-1.59125 0.832,-2.63202c0.22372,-0.73877 0.16666,-1.66666 0.16666,-2.556c0,-0.896 0,-1.81067 0,-2.71066c0,-0.89999 0,-1.69998 0,-2.60001c0,-0.89999 0,-1.79999 0,-2.69998c0,-0.89999 0,-1.79868 0,-2.68402c0,-0.91599 -0.19592,-1.7504 0.05719,-2.616c0.25665,-0.87759 0.91422,-1.5986 0.94281,-2.5c0.02853,-0.89954 0,-1.79999 0,-2.59998c0,-0.90002 0,-1.76401 0,-2.63602l0,-0.96399" id="svg_11" stroke-width="2" stroke="#000" fill="none"/>
  <path t="43137,43240,43257,43273,43273,43281,43297,43305,43313,43321,43337,43345,43361,43369,43377,43385,43401,43401,43417,43425,43433,43449,43465,43465,43481,43505,43505,43529,43529,43544,43561,43569,43585,43593,43601,43617,43625,43641,43641,43657,43657,43673,43681,43689,43706,43721,43721,43737,43752,43753,43761,43761,43769,43785,43809,43822,43822,43825,43841,43857,43857,43873,43873,43881,43889,43912,43921,43945,43945,43969,43985,43993,44001,44017,44026,44043,44049,44073,44081,44105,44105,44121,44129,44137,44161,44184,44200,44217,44241,44264,44289,44289,44305,44321,44329,44337,44353,44361,44385,44401,44409,44425,44449,44458,44489,44513,44529,44537,44553,44553,44568,44577,44616,44633,44641,44658,44681,44704,44705,44721,44753,44784,44793,44841,44852,44859,44953,44953,45040,45065,45097,45097,45137,45153,45161,45177,45209,45225,45233,45242,45265,45369,45425,45457,45497,45513,45577,45593,45617,45633,45657,45697,45697,45729,45753,45761,45817,45841,45841,45849,45858,45882,45883" d="m312.01135,245.09091c0.91467,0.28534 1,1.10001 1,2c0,0.8 -0.01682,1.70015 0,2.60001c0.01801,0.96449 0.81812,1.39427 0.99869,2.20132c0.19623,0.87698 0.00131,1.79868 0.00131,2.69867c0,0.89999 0,1.79999 0,2.70001c0,0.90015 -0.09662,1.6915 0.01068,2.61465c0.11148,0.95929 0.94659,1.46735 0.98932,2.28534c0.04694,0.89877 0,1.69998 0,2.65717c0,0.89999 0,1.64734 0,2.64148c0,0.76535 0,1.84418 0,2.70117c0,0.92551 0,1.70151 0,2.60019c0,0.89999 0,1.79999 0,2.71066c0,0.91064 0,1.76398 0,2.70532c0,0.76801 0,1.69867 0,2.71466c0,0.78 0,1.69019 0,2.65335c0,0.69064 0,1.76334 0,2.68265c0,0.83334 0,1.66669 0,2.52884c0,0.90451 0,1.8685 0,2.75116c0,0.87451 0,1.69202 0,2.66766c0,0.90652 0,1.71902 0,2.63834c0,0.90002 0,1.76334 0,2.61136c0,0.93149 0,1.85748 0,2.73599c0,0.89999 0,1.69998 0,2.60001c0,0.89999 0,1.79999 0,2.69998c0,0.89999 0.02866,1.80048 0,2.69983c-0.02859,0.89706 -0.93909,1.11542 -1,2.00018c-0.0618,0.89786 0.01874,1.70016 0,2.60001c-0.01801,0.86453 -0.85422,1.34393 -0.99866,2.10132c-0.16833,0.88278 -0.00134,1.79868 -0.00134,2.69867c0,0.97916 -0.45792,1.68051 -0.83331,2.5c-0.34021,0.74268 -0.16669,1.70001 -0.16669,2.60001c0,0.89999 0,1.79999 0,2.69998c0,0.90002 0,1.80002 0,2.70001c0,0.83334 0,1.7045 0,2.60001c0,0.89999 0,1.79999 0,2.69998c0,0.90002 0,1.80002 0,2.70001c0,0.79999 0,1.70001 0,2.564c0,0.87201 0,1.836 0,2.73599c0,0.90002 0,1.80002 0,2.70001c0,0.79999 0,1.70001 0,2.60001c0,0.89999 0,1.78934 0,2.68533c0,0.91333 0,1.77182 0,2.71466c0,0.79999 0.03137,1.75574 -0.43597,2.39999c-0.56647,0.78088 -1.21915,1.39615 -2.164,1.58932c-0.86191,0.17621 -1.33664,0.78549 -2.10452,1.0062c-0.86066,0.24738 -1.66394,0.14859 -2.34814,0.65182c-0.66623,0.48999 -1.64734,0.35266 -2.51135,0.35266c-0.87198,0 -1.836,0 -2.73599,0c-0.89999,0 -1.80438,0.08868 -2.70001,0c-0.84567,-0.08374 -1.39722,-0.68381 -1.94733,-1.35718c-0.57373,-0.70227 -1.01776,-1.08752 -1.76733,-1.72684c-0.66583,-0.56787 -1.15012,-1.20743 -1.28665,-2.116c-0.12137,-0.80783 -0.646,-1.5 -1.02402,-2.36398l-0.62198,-0.48868l-0.51935,-0.78067l-0.82883,-0.16666" id="svg_12" stroke-width="2" stroke="#000" fill="none"/>
  <path t="54954,55057,55057,55066,55073,55089,55105,55113,55129,55137,55145,55153,55169,55185,55185,55194,55201,55211,55225,55226,55241,55257,55265,55273,55281,55289,55313,55321,55329,55329,55345,55353,55361,55393,55401,55417,55427,55433,55433,55450,55457,55465,55473,55497,55506,55529,55561,55593,55602,55602,55625,55634,55657,55665,55681,55689,55713,55729,55761,55801,55817,55839,55857,56001,56113,56113,56129,56137,56153,56153,56169,56185,56217,56225,56233,56257,56281,56289,56297,56313,56321,56329,56345,56362,56380,56380,56393,56425,56449,56465,56481,56497,56505,56521,56537,56546,56562,56593,56625,56634,56642,56642,56650,56659,56666,56682,56689,56705,56729,56761,56761,56769,56785,56801,56817,56849,56858,56864,56937,56993,57009,57009,57025,57033,57042,57073,57129,57161,57217,57217,57241,57257,57273,57297,57305,57313,57313,57329,57346,57346,57353,57361,57393,57402,57425,57441,57457,57457,57465,57474,57481,57489,57489,57497,57521,57529,57537,57537,57553,57569,57577,57594,57612,57617,57627,57641,57673,57769,57785,57785,57801,57801,57817,57833,57849,57857,57865" d="m170.01137,272.09091c0,1 0,1.79999 0,2.70001c0,0.89999 0,1.79999 0,2.69998c0,0.89999 0,1.80002 0,2.69983c0,0.90018 0,1.70151 0,2.65735c0,0.89551 0,1.59015 0,2.60684c0,0.93597 0,1.836 0,2.73615c0,0.78519 0,1.71451 0,2.65701c0,0.85349 0,1.74283 0,2.64282c0,0.89999 0,1.80002 0,2.70001c0,0.89999 0,1.69998 0,2.60001c0,0.89999 0,1.86398 0,2.73599c0,0.86398 0,1.76401 0,2.664c0,0.89999 0.19595,1.73441 -0.05717,2.60001c-0.25664,0.87762 -0.91423,1.5986 -0.94283,2.5c-0.02853,0.89935 0.03848,1.77554 0,2.60132c-0.04271,0.91632 -0.87146,1.35861 -1,2.19867c-0.12169,0.79526 -0.48254,1.6539 -0.97467,2.38934c-0.44798,0.66946 -0.62677,1.32483 -1.06133,2.17465c-0.35632,0.69684 -0.4823,1.42944 -1.04933,2.15067c-0.54236,0.68982 -1.19688,0.9574 -1.79333,1.50668c-0.63501,0.58481 -1.12134,1.064 -1.12134,1.87866c0,0.89999 -0.20448,1.73697 0.05716,2.60001c0.26826,0.88489 1.14476,1.49808 1.64284,2c0.69202,0.69733 0.91763,1.76385 1.58534,2.21466c0.76025,0.51331 1.92775,-0.18066 2.59332,0.30667c0.69954,0.51221 0.99527,1.50424 1.73201,1.76797c0.83736,0.29974 1.90559,-0.10031 2.38933,0.53152c0.51855,0.67731 1.09389,1.41827 2,1.47916c0.7982,0.05362 1.72649,-0.18375 2.60001,0.03601c0.86281,0.21704 1.59697,0.92126 2.5,0.96399c0.89899,0.04251 1.73332,0 2.51067,0c0.98933,0 1.88933,0 2.78932,0c0.90001,0 1.8,0 2.70001,0c0.89999,0 1.7,0 2.59999,0c0.90001,0 1.8,0 2.7,0c0.90001,0 1.8,0 2.70001,0c0.89999,0 1.81075,0.36435 2.54283,-0.05716c0.81151,-0.46725 1.1373,-1.23907 1.70982,-1.89017c0.56206,-0.63919 1.22513,-1.07608 1.64601,-1.76868c0.42987,-0.70737 1.00133,-1.45065 1.00133,-2.284c0,-0.79999 0,-1.70001 0,-2.60001c0,-0.89999 0.00066,-1.79999 0,-2.69998c-0.00067,-0.90134 -0.14467,-1.87589 -0.42534,-2.51468c-0.42067,-0.95746 -0.57466,-1.70618 -0.57466,-2.68533c0,-0.89999 0,-1.79999 0,-2.70132c0,-0.68402 0,-1.62402 0,-2.63202c0,-0.86215 0,-1.76666 0,-2.64581c0,-0.87802 0,-1.82083 0,-2.72086c0,-0.89999 -0.16815,-1.83643 0.08533,-2.59998c0.25635,-0.77219 0.77914,-1.50854 0.916,-2.40002c0.14058,-0.91577 0.59476,-1.52054 0.99417,-2.44281c0.3174,-0.73288 0.94362,-1.45105 1.0045,-2.35718c0.05363,-0.79819 0,-1.70001 0,-2.60001c0,-0.89999 -0.00067,-1.79999 0,-2.69998c0.00067,-0.89868 0.62627,-1.44278 0.97917,-2.20001c0.3622,-0.77716 0.02083,-1.8045 0.02083,-2.66666c0,-0.83334 0,-1.81186 0,-2.63202c0,-0.90134 0,-1.80133 0,-2.70132l0,-0.89999l0,-0.89551" id="svg_14" stroke-width="2" stroke="#000" fill="none"/>
  <path t="59314,59369,59369,59385,59409,59417,59433,59441,59449,59465,59474,59489,59505,59561,59569,59569,59577,59577,59585,59593,59601,59609,59626,59649,59681,59690,59697,59705,59729,59739,59745,59753,59769,59785" d="m101.01137,314.09091c0.16666,-1 0.8008,-1.65128 0.97916,-2.47916c0.20157,-0.93561 -0.05003,-1.86929 0.44617,-2.49551c0.52696,-0.66507 1.37645,-0.66208 2.13866,-1.06134c0.7583,-0.39722 0.98352,-1.41019 1.72134,-1.87866c0.6915,-0.43906 1.67931,0.14255 2.35067,0.48935c0.81106,0.41895 2.03532,0.35727 2.355,1.12982c0.34283,0.82852 0.59959,1.61288 0.8875,2.39532c0.32235,0.87604 0.1215,1.70151 0.1215,2.60019c0,0.89999 0.16279,1.73804 0.64733,2.35266c0.512,0.64944 0.35267,1.64734 0.38866,2.51132l0.68,0.51999l0.28267,0.71735l0.00134,0.89868" id="svg_15" stroke-width="2" stroke="#000" fill="none"/>
  <path t="60282,60321,60321,60337,60353,60353,60377,60385,60409,60425,60425,60441,60449,60465,60473,60481,60505,60513,60513,60521" d="m118.01137,319.09091c0,-1 -0.0024,-1.79999 0,-2.75717c0.00225,-0.89551 -0.04481,-1.63309 0.42533,-2.60684c0.37576,-0.77829 0.85824,-1.59326 1.74133,-1.63599c0.81155,-0.03925 1.772,0 2.53783,0c0.8955,0 1.90308,0.00623 2.34817,0.7045c0.42686,0.66965 1.04733,1.39551 1.64733,1.99551l0.68934,0.69998" id="svg_16" stroke-width="2" stroke="#000" fill="none"/>
  <path t="61401,61481,61481,61489,61497,61505,61521,61521,61529,61545,61545,61561,61577,61577,61649,61657,61673,61689,61689,61697,61705,61705,61729,61745,61777,61785,61809,61809,61825,61873,61889" d="m171.01137,328.09091c0,-1 -0.01799,-1.80017 0,-2.70001c0.01801,-0.90054 0.53989,-1.65927 0.83333,-2.46664c0.28333,-0.77954 0.71283,-1.60535 1.08267,-2.40268c0.33424,-0.72061 0.40312,-1.70752 1.084,-2.43066c0.47473,-0.50421 1.29865,-0.9715 2.2,-1c0.89957,-0.02847 1.83347,0.12466 2.40001,0.61066c0.74324,0.63754 1.18115,1.5257 1.48399,2.18933c0.37695,0.82605 0.916,1.55267 0.916,2.48535c0,0.81467 0,1.71466 0,2.51465l0,0.90002l0,0.89999l0,0.89999" id="svg_17" stroke-width="2" stroke="#000" fill="none"/>
  <path t="62281,62313,62329,62345,62345,62345,62353,62361,62361,62377,62393,62393,62409,62409,62419,62441,62441,62449,62457,62457,62473,62497,62505,62521,62537,62537,62545,62553,62553,62561,62569,62593" d="m186.01137,332.09091c0.036,-0.98935 0.93912,-1.21585 1,-2.16666c0.04277,-0.66797 -0.07172,-1.43762 0.0045,-2.42435c0.08379,-1.08456 0.94429,-1.32709 1.47467,-1.95065c0.67296,-0.7912 0.37488,-1.69827 0.80617,-2.573c0.37891,-0.76849 1.06374,-1.61063 1.88133,-1.88535c0.6825,-0.22934 1.65866,0 2.66666,0c0.86217,0 1.76668,0 2.66667,0c0.89999,0 1.87677,-0.18347 2.59984,0.2215c0.73735,0.41296 0.88248,1.42883 1.18416,2.26251c0.25497,0.70459 0.63068,1.63065 0.71617,2.61581l0.22116,0.77884" id="svg_18" stroke-width="2" stroke="#000" fill="none"/>
  <path t="63537,63617,63617,63649,63697,63705,63721,63721,63744,63760,63760,63800,63825,63825,63841,63841,63850,63857,63865,63873,63880,63969,63977,63985,64074,64104,64121,64121,64129,64137,64145,64152,64177,64224,64233,64248,64257,64266,64273,64281,64384,64400,64409,64416,64425,64456,64560,64560,64576,64577,64585,64593,64608,64616,64625,64952,64985" d="m142.01137,179.09091c0,-1 -0.19595,-1.83444 0.05716,-2.7c0.25664,-0.87764 0.75595,-1.65947 1.16434,-2.40001c0.37196,-0.67448 1.16133,-1.3176 1.87851,-1.99983c0.58632,-0.55774 1.44434,-0.74422 2.18666,-1.1855c0.68025,-0.40437 1.34265,-1.0614 2.06067,-1.3575c0.97931,-0.40385 1.54097,-0.93932 2.00533,-1.65266c0.51433,-0.79013 0.56075,-1.65901 1.25801,-2.26849c0.66624,-0.58237 1.68933,-0.436 2.588,-0.436c0.88666,0 1.80173,-0.02536 2.60133,0c0.90135,0.02859 1.7236,0.4604 2.4955,0.94733c0.70244,0.44312 1.22702,1.00731 1.71516,1.47801c0.59277,0.57158 1.05922,1.19374 1.79066,1.65866c0.78221,0.49718 0.98357,1.55974 1.69867,1.89517c0.83824,0.3932 1.48958,0.54147 1.5,1.42082c0.01067,0.89995 0,1.8 0,2.70001c0,0.89999 0.03954,1.65823 -0.0045,2.55266c-0.04263,0.86607 -0.49983,1.80165 -1.0795,2.43134c-0.56761,0.61659 -0.94133,1.48 -1.56334,1.96867l-0.51933,0.78065l-0.83333,0.16667" id="svg_19" stroke-width="2" stroke="#000" fill="none"/>
  <path t="66737,66832,66848,66865,66865,66873,66881,66896,66977,66992,67136,67145,67160,67169,67176,67177,67185,67193,67208,67217" d="m134.01137,187.09091c-1.02083,0 -1.72946,0.21616 -2.16667,1c-0.3636,0.65187 -1.13547,1.28894 -1.808,1.97467c-0.53061,0.54103 -1.008,1.42477 -1.02533,2.32533c-0.0173,0.8985 0.49387,1.80792 0.97467,1.26399c0.62306,-0.70486 1.06221,-1.30087 1.82533,-1.64799c0.85426,-0.38858 1.58932,-0.89067 2.2,-1.416l0.64734,-0.4955" id="svg_20" stroke-width="2" stroke="#000" fill="none"/>
  <path t="68585,69040,69056,69064,69072,69080" d="m132.01137,188.09091c-0.83333,0.16667 -1,1 -1,1.916l0,0.7885l0,0.89551" id="svg_21" stroke-width="2" stroke="#000" fill="none"/>
  <path t="69409,69600,69760,69784,69800,69824,69833,69905,70000,70008,70024,70032" d="m134.01137,189.09091c-0.284,-0.916 -0.98199,-1.40509 -1,-0.95833c-0.03773,0.9359 0,1.90565 0,2.75966c0,0.84151 0,0.588 0,-0.2805l0,-0.87799l0,-0.94284" id="svg_22" stroke-width="2" stroke="#000" fill="none"/>
  <path t="72082,72153,72154,72161,72177,72177,72193,72193" d="m119.01137,266.09091c1,0 1.85472,0.01019 2.6,0.61066c0.65566,0.52826 1.15717,1.08936 2.05267,1.68933l0.69467,0.40002" id="svg_23" stroke-width="2" stroke="#000" fill="none"/>
  <path t="73970,74017,74017,74027,74041,74049,74057,74065,74201,74241,74257,74257,74273,74289,74305,74305,74313,74329,74361,74401,74417,74473" d="m255.01137,357.09091c0,-1 0,-1.79999 0,-2.71466c0,-0.896 -0.3219,-1.84979 0.01067,-2.67468c0.30791,-0.76373 1.43338,-0.73434 2.37866,-0.61066c0.8537,0.11169 1.09329,0.93817 1.66333,1.64282c0.59128,0.7309 0.94733,1.35718 0.94733,2.15717c0,0.90002 0,1.80002 0,2.70001l0,0.89999l0,0.89999l0,0.89868" id="svg_24" stroke-width="2" stroke="#000" fill="none"/>
  <path t="74858,74905,74905,74921,74929,74945,74955,74955,74961,74961,74977,75001,75058,75097,75097,75105,75121,75138,75145,75169" d="m262.01135,364.09091c0,-1 0.1243,-1.77744 0.57468,-2.60001c0.42728,-0.7804 0.25034,-1.77209 0.647,-2.5c0.38626,-0.70883 1.4873,-1.11588 2.06851,-1.60001c0.72763,-0.60611 0.40454,-1.96365 1.13516,-2.26398c0.75595,-0.31073 1.42648,0.73389 1.57016,1.664c0.13739,0.88947 0.00449,1.79999 0.00449,2.69998l0,0.89551" id="svg_25" stroke-width="2" stroke="#000" fill="none"/>
  <path t="76106,76185,76193,76209,76225,76321,76345,76361,76385,76409,76425,76433,76449,76449,76481,76521,76553" d="m289.01135,349.09091c0.91602,-0.284 1.33817,-0.96478 2,-1.5c0.63388,-0.5126 1.72491,-0.60867 1.98935,0.11066c0.30688,0.83478 0.01065,1.78934 0.01065,2.68933c0,0.90002 0,1.80002 0,2.70001c0,0.79999 0,1.70001 0,2.60001l0,0.89999" id="svg_26" stroke-width="2" stroke="#000" fill="none"/>
 </g>
 <g display="none">
  <title>muse_image</title>
  <image xlink:href="http://farm1.static.flickr.com/182/414780652_2ef145eb0b.jpg" id="muse" height="480" width="640" y="0" x="0"/>
 </g>
 <g display="none">
  <title>bbox</title>
  <rect stroke="#f00" fill="none" stroke-width="3" height="221.33333" width="228" y="136" x="89.33333" id="bbox"/>
 </g>
</svg>
