<svg width="640" height="480" xmlns="http://www.w3.org/2000/svg" xmlns:svg="http://www.w3.org/2000/svg" xmlns:xlink="http://www.w3.org/1999/xlink">
 <!-- Sketchy ANNOTATION
  ImageNet ID: n02503517_8518
  URL: http://farm1.static.flickr.com/7/10289787_b11091e800.jpg
  Image Width: 500
  Image Height: 375
  BBox X: 126
  BBox Y: 232
  BBox Width: 153
  BBox Height: 132
  Exposure: 2000ms
  Synset Label: elephant
  Synset ID: n02503517
  Worker Tag: elephant walking near temple
  Sanity Check: 
   Context
   Saved
   Shading
  Comment: 
   {}
  Worker ID: AXD2DZ7U6CK35
  Assignment ID: 39GAF6DQWR0LCBGMRCVOOWLM3IGV1D
  HIT ID: 3OJX0UFJ0Z711HWN0XVAIW61M369U7
  Work Time: 85s
  Worker Score: 0.9286
 END ANNOTATION -->
 <g display="inline">
  <title>Layer 1</title>
  <path t="0,15,16,16,16,16,16,16,25,25,25,28,28,39,39,56,56,57,73,73,92,92,109,139,158,175,191,191,191,208,208,224,225,225,241,241,241,258,258,258,275,275,275,291,291,292,292,292,292,308,309,309,309,309,325,325,325,341,341,341,341,357,357,357,357,358,374,374,374,374,374,374,390,390,390,390,407,407,407,407,407,423,423,423,423,423,440,440,440,440,441,441,457,457,458,458,473,473,473,473,473,473,490,490,490,490,490,507,507,507,507,507,507,523,523,523,523,523,540,540,540,540,540,557,558,558,558,558,558,572,573,573,573,573,590,590,590,590,590,607,608,608,608,608,608,608,622,623,623,623,640,640,640,657,657,657,658,658,673,674,674,674,690,690,690,690,707,707,708,708,722,723,723,723,723,723,723,740,740,740,740,740,758,758,758,758,772,774,774,774,791,791,791,791,807,807,807,822,823,823,823,824,841,842,842,857,857,857,857,872,873,873,873,891,891,891,891,891,891,907,907,907,907,908,922,923,923,939,940,940,940,957,957,957,973,973,973,990,1008,1008,1022,1023,1023,1039,1057,1057,1073,1089,1108,1108,1108,1123,1123,1123,1139,1140,1156,1157,1157,1173,1173,1173,1173,1190,1190,1207,1207,1208,1208,1223,1223,1223,1240,1257,1257,1258,1272,1273,1290,1290,1307,1307,1323,1323,1323,1340,1357,1358,1373,1390,1390,1407,1407,1423,1423,1440,1440,1457,1473,1490,1507,1507,1523,1546,1579,1586,1606,1638,1646,1666,1682,1690,1707,1723,1740,1759,1759,1779,1779,1790,1807,1823,1840,1857,1859,1873,1890,1907,1923,1940,1940,1957,1973,1990,2007,2023,2040,2040,2057,2073,2090,2107,2107,2123,2123,2140,2157,2157,2173,2173,2190,2207,2223,2223,2240,2240,2257,2257,2273,2273,2273,2290,2290,2290,2307,2307,2323,2323,2323,2340,2340,2340,2357,2357,2373,2390,2390,2407,2407,2423,2423,2440,2457,2457,2473,2490,2490,2507,2507,2525,2540,2557,2557,2557,2573,2573,2573,2590,2590,2607,2623,2640,2640,2657,2657,2657,2673,2690,2690,2707,2707,2723,2740,2741,2757,2757,2757,2773,2773,2790,2790,2807,2807,2823,2840,2857,2857,2857,2873,2873,2890,2890,2907,2923,2923,2940,2940,2957,2973,2973,2991,2991,3007,3007,3023,3023,3023,3040,3040,3040,3057,3057,3057,3073,3073,3073,3090,3090,3107,3107,3107,3123,3140,3140,3140,3157,3157,3157,3173,3173,3190,3190,3207,3207,3223,3240,3240,3257,3257,3273,3273,3290,3290,3290,3307,3372,3383,3400,3423,3440,3457,3458,3473,3474,3491,3508,3509,3523,3524,3540,3541,3541,3558,3574,3574,3632,3692" d="m140,327c4.33333,-15 4.61673,-16.0408 4.85867,-16.97198c0.2151,-0.82788 0.3981,-1.56384 0.558,-2.21552c0.26663,-1.0867 0.56157,-2.31967 0.78333,-2.95517c0.27348,-0.78375 0.83978,-1.66296 1.27917,-2.33649c0.5218,-0.79984 0.66687,-1.50357 1.08882,-2.29019c0.40974,-0.76385 0.94749,-1.51849 1.26268,-2.54398c0.25262,-0.82196 0.50186,-1.77365 0.81667,-2.38217c0.45044,-0.8707 0.80817,-1.68674 1.26866,-2.50317c0.39725,-0.70432 1.25198,-1.133 1.92,-1.65201c0.56961,-0.44257 1.36737,-0.89578 2.164,-1.14932c1.00444,-0.3197 1.60008,-0.70975 2.2,-1.18533c1.00029,-0.793 1.59846,-1.20367 2.25717,-1.51016c0.94798,-0.4411 1.77121,-0.69629 2.59016,-1.00452c1.03561,-0.3898 1.74791,-0.71237 2.25,-0.93597c1.20085,-0.53476 1.95732,-0.8494 2.8,-1.20001c0.44432,-0.18488 1.3602,-0.5657 1.82133,-0.76532c1.3633,-0.59018 2.21976,-0.99396 2.63466,-1.18802c0.80019,-0.37427 1.55142,-0.74554 2.62517,-1.18915c0.97804,-0.40408 1.61003,-0.61325 2.8215,-1.02151c0.60094,-0.20251 1.52441,-0.51141 2.15717,-0.75717c1.01549,-0.39441 1.7305,-0.72598 2.4895,-1.07883c0.80107,-0.37241 1.63705,-0.77188 2.52,-1.164c0.91301,-0.40549 1.37939,-0.60065 2.3125,-0.97916c0.90897,-0.36871 1.34912,-0.54187 2.57799,-0.99951c0.7316,-0.27246 1.76134,-0.63696 2.42551,-0.90533c1.04526,-0.42233 1.77937,-0.77237 2.55901,-1.13684c0.40518,-0.18942 1.24094,-0.58963 2.57967,-1.17917c0.46129,-0.20316 1.40407,-0.59979 1.87866,-0.79999c0.94748,-0.39966 2.33406,-0.99835 2.7785,-1.19983c0.86578,-0.39249 1.69775,-0.78595 2.517,-1.14301c0.40176,-0.17511 1.60007,-0.65005 2.409,-0.89999c0.81198,-0.25089 1.65091,-0.4603 2.96217,-0.75717c0.45407,-0.10281 1.38748,-0.29813 2.33333,-0.52084c0.47543,-0.11194 1.4265,-0.33295 2.77867,-0.80048c0.44099,-0.15247 1.29404,-0.50882 2.14667,-0.85333c0.85672,-0.34616 1.73682,-0.6738 2.65999,-0.94135c0.94629,-0.27423 1.4364,-0.38052 2.41917,-0.63666c0.49728,-0.12961 1.99617,-0.56595 2.49417,-0.73001c0.99236,-0.3269 1.47334,-0.51959 2.44417,-0.8075c1.3811,-0.40958 1.83289,-0.48785 2.7045,-0.60001c0.85028,-0.10941 1.70787,-0.13257 3.01933,-0.27649c0.91945,-0.10089 1.38773,-0.18085 2.33333,-0.35419c0.94916,-0.17398 1.41759,-0.27335 2.77867,-0.57916c0.86971,-0.1954 1.72122,-0.40045 2.14667,-0.5c0.85844,-0.2009 2.19571,-0.50296 3.13632,-0.69998c0.48468,-0.10153 1.48465,-0.30182 2,-0.40002c1.60394,-0.30563 2.15875,-0.40417 3.2865,-0.59549c0.56615,-0.09604 1.12988,-0.1915 2.242,-0.34732c0.53998,-0.07565 2.0661,-0.2413 2.9865,-0.3045c0.83969,-0.05765 1.60736,-0.05347 2.59,-0.21933c0.84116,-0.142 1.60834,-0.47052 2.83334,-0.66669c0.74817,-0.11981 1.58655,-0.13419 2.02084,-0.14581c0.87817,-0.02351 2.14584,-0.01428 2.90848,-0.02217c1.02914,-0.01065 1.6691,-0.00818 2.87085,-0.22c0.60907,-0.10735 1.53195,-0.3725 2.18515,-0.49467c1.03146,-0.19292 2.18256,-0.25179 2.59802,-0.26317c0.89249,-0.02446 2.41666,-0.02083 2.98065,-0.02083c0.58801,0 1.81201,0 2.436,0c0.62399,0 1.84799,0 3,0c1.04266,0 1.52399,0 2.41666,0c0.81268,0 1.91669,0 2.93066,0c0.65268,0 1.63669,-0.00299 2.67401,0.00017c0.73132,0.00223 1.48026,-0.00389 2.22601,0.05699c1.43579,0.1172 2.09927,0.28593 2.73181,0.46367c0.92551,0.26006 2.1214,0.68147 2.73151,0.87917c0.62457,0.20236 1.95517,0.60303 2.67334,0.80002c0.74048,0.20309 1.49182,0.39572 2.23199,0.59998c1.06421,0.2937 2.04355,0.60611 2.67334,0.76401c1.20303,0.30161 1.81067,0.35199 2.71066,0.436c0.89999,0.08401 1.80344,0.20917 2.73199,0.436c0.67825,0.16568 1.42068,0.38025 2.73218,0.664c0.48801,0.10559 1.5224,0.30045 2.05667,0.39999c1.07816,0.2009 1.61465,0.28912 3.13599,0.59982c0.92572,0.18906 1.35919,0.29578 2.18585,0.46417c0.76816,0.15649 2.17181,0.35413 2.82132,0.41068c0.93121,0.08109 1.84277,0.16245 2.73599,0.38251c0.90787,0.22369 1.50107,0.44095 2.69867,0.84283c0.59119,0.19839 1.45169,0.48105 2.47968,0.89981c0.68018,0.27707 1.43243,0.62381 2.42166,0.90018c0.81946,0.22894 1.5242,0.51404 2.5,1c0.79211,0.39447 1.51465,0.80005 2.24283,1.2955c0.85715,0.58322 1.53549,0.82574 2.35718,1.27917c0.79147,0.43677 1.71542,0.66336 2.44165,0.92532c0.63986,0.23083 1.64087,0.43713 2.45834,0.47916c0.81516,0.04193 2.04733,0.02084 2.72534,0.02084c0.94131,0 1.73181,0 2.58533,0c1.18933,0 2.08484,0 2.66849,0c0.83551,0 2.07266,0 2.78217,0c1.07202,0 1.70667,0 2.73868,0c0.69467,0 1.95685,0 2.71735,0c0.79465,0 1.668,0 2.616,0c0.91733,0 1.66132,0 2.69733,0c0.85199,0 1.80533,0 2.57065,0c1.00317,0 1.85583,0 2.81985,0c0.79349,0 1.569,0 2.60815,0c0.97067,0 1.77066,-0.00183 2.60666,0c1.02118,0.00226 1.78415,-0.00287 2.76401,0.284c0.61203,0.17917 1.5932,0.60071 2.38934,0.67999c1.03949,0.10352 1.82074,0.03149 2.61066,0.46133c0.82376,0.44824 1.70001,0.57468 2.60001,0.57468c0.79999,0 1.42892,0.3707 2.2215,0.87851c0.74673,0.47845 1.9274,-0.21561 2.61185,0.28815c0.65298,0.48062 1.40088,0.58643 2.08264,1.11734c0.62659,0.48795 1.14426,1.15686 1.65869,1.74133c0.54871,0.62341 0.94089,1.47983 1.62399,2.17334c0.51208,0.5199 0.53412,1.44006 0.88666,2.23334c0.33868,0.76208 0.70987,1.40637 0.97183,2.26801c0.26895,0.88467 1.16162,1.31076 1.58566,2c0.50534,0.82138 0.35495,1.79999 0.35718,2.69998c0.00226,0.89999 0.33691,1.63126 0.716,2.39999c0.41684,0.84525 0.27866,1.80005 0.284,2.70001c0.00534,0.90005 0.44235,1.61182 0.83334,2.5c0.28952,0.65765 0.00146,1.6192 0.1875,2.5c0.17899,0.84738 0.82175,1.6105 1.06317,2.38535c0.29749,0.95477 0.64072,1.62817 0.91599,2.61465c0.22861,0.81934 0.56131,1.47842 0.87866,2.47849c0.25574,0.80591 0.73456,1.60339 1.09601,2.42151c0.34714,0.78571 0.8006,1.47116 1,2.436c0.15646,0.75708 0.39587,1.75769 0.60001,2.36401c0.33353,0.99069 0.40152,1.82428 0.50934,2.48532c0.16397,1.00519 0.44165,1.80829 0.63199,2.63068c0.22989,0.99329 0.27866,1.9093 0.284,2.85065c0.00446,0.78601 0,1.608 0,2.66669c0,0.93066 -0.03281,1.76602 0.00449,2.76215c0.02805,0.74869 0.48407,1.59274 0.82886,2.57117c0.22318,0.63336 0.16666,1.66669 0.16666,2.45868c0,1.02734 0,1.72198 0,2.74933c0,0.94666 0,1.62534 0,2.60382c0,1.02151 0,1.77869 0,2.67419c0,0.86331 0,1.82648 0,2.65631c0,1.02435 0,1.70084 0,2.47635c0,1.048 0,1.97867 0,2.81332c0,0.99683 0,1.74417 0,2.76535c0,0.94049 0.05264,1.80554 -0.02084,2.65683c-0.08514,0.9863 -0.44125,1.75482 -0.69516,2.49384c-0.29083,0.84647 -0.284,1.80664 -0.284,2.65997c0,0.94135 0,1.70935 0,2.6507c0,1.008 0.00638,1.83603 -0.00015,2.7175c-0.00534,0.71854 0.01846,1.52393 -0.22119,2.53549c-0.2128,0.89819 -0.68546,1.74402 -0.76797,2.547c-0.10504,1.022 -0.01068,1.72198 -0.01068,2.73868c0,0.94498 0,1.96933 0,2.64133c0,0.74399 0,1.85184 0,2.74283c0,0.90451 0,1.59915 0,2.6265c0,0.94666 0,1.79999 0,2.74133c0,0.76801 0,1.70935 0,2.71735c0,0.79199 0,1.65198 0,2.37732c0,0.98935 0,1.78934 0,2.78934c0,0.81067 0,1.68533 0,2.68533c0,0.83551 0,1.716 0,2.6145c0,0.8895 0,1.74301 0,2.77866c0,0.90067 0,1.52017 0,2.526c0,0.85266 0,1.81668 0,2.61017c0,1.01599 0,1.97549 0,2.952c0,0.68002 0,1.52002 0,2.51733c0,0.81601 -0.0199,1.63223 0.00134,2.62933c0.01791,0.84052 0.3718,1.75894 0.71466,2.57068c0.31186,0.73828 0.28333,1.63199 0.284,2.616c0.00067,0.98401 0,1.67465 0,2.75183c0,0.7175 0,1.758 0,2.53351c0,1.048 0,1.75299 0,2.728c0,0.85068 0.03943,1.81519 -0.5,2.48666c-0.48761,0.60699 -1.19156,1.07712 -2.02084,1.5c-0.78888,0.40228 -1.69165,0.4086 -2.45764,0.72134c-0.77213,0.31525 -1.54269,0.74588 -2.50684,0.78c-0.72571,0.0257 -1.71283,0.22537 -2.51468,0.49866c-0.99774,0.34006 -1.78873,0.48083 -2.51468,0.49866c-0.98502,0.0242 -1.96933,0.00269 -2.83264,0.0585l-0.89102,0.30002l-0.595,0.64282" id="svg_1" stroke-width="2" stroke="#000" fill="none"/>
  <path t="5323,5705,5728,5741,5757,5758,5773,5791,5791,5808,5808,5824,5824,5840,5858,5858,5874,5874,5874,5891,5891,5908,5908,5924,5940,5957,5957,5973,5990,6007,6023,6041,6041,6064,6073,6090,6108,6140,6168,6192,6208,6208,6224,6236,6260,6301,6340,6372,6441,6598,6640,6828,6848,6873,6893,6913,6926,6926,6941,6957,6958,6973,6974,6990,7008,7008,7024,7024,7040,7041,7058,7058,7058,7073,7074,7074,7091,7091,7108,7108,7108,7123,7124,7124,7140,7141,7141,7157,7158,7173,7174,7190,7191,7191,7207,7208,7223,7224,7240,7241,7241,7257,7258,7258,7273,7274,7290,7308,7308,7323,7324,7324,7341,7341,7357,7358,7374,7374,7391,7391,7391,7408,7408,7423,7424,7441,7441,7441,7460,7473,7496,7496,7512,7524,7541,7572,7625,7649,7661,7675,7690,7707,7723,7723,7740,7757,7773,7790,7873,7888" d="m345,334c1.70001,0.05716 2.46863,0.56143 3.29999,0.94733c0.87204,0.40475 1.50031,0.8537 2.10001,1.45267c0.70053,0.69965 1.20963,1.23914 2.08401,1.80002c0.67178,0.43094 1.43469,0.98944 2.21149,1.44281c0.7767,0.45331 1.63382,0.56107 2.32535,0.87802c0.99097,0.45419 1.78238,0.85483 2.32199,1.17917c0.9303,0.55917 1.51532,1.14255 2.30984,1.59549c0.67471,0.38461 1.75589,0.5784 2.54733,0.98849c0.86163,0.44647 1.49905,0.77039 2.29999,1.216c0.79904,0.44455 1.70001,0.5 2.60001,0.5c0.89999,0 1.69998,0 2.60001,0c0.89999,0 1.79999,0 2.69998,0c0.89999,0 1.80002,0 2.70001,0c0.89999,0 1.70041,0.02725 2.60001,0c0.94412,-0.02859 1.34976,-0.85617 2.24283,-1c0.84756,-0.13651 1.75717,0 2.65717,0c0.89999,0 1.83716,-0.25082 2.6955,0.00449c0.76263,0.22684 0.7045,1.2955 0.7045,2.19553c0,0.89999 0,1.79999 0,2.59998c0,0.836 0,1.85718 0,2.60452c0,0.99417 0,1.75949 0,2.71149c0,1.05066 0,1.70935 0,2.71735c0,0.79199 0,1.82831 0,2.62833c0,0.95966 -0.00006,1.76367 0,2.58566c0.00009,1.03116 -0.02725,1.93872 0.08533,2.55133c0.18811,1.02362 0.62485,1.84555 0.79318,2.82266c0.1373,0.79681 0.11923,1.62601 0.12149,2.6575c0.00153,0.70651 0,1.69052 0,2.56366c0,0.99753 0,1.67084 0,2.85751c0,0.80267 0,1.66666 0,2.52084c0,0.97916 0,1.77914 0,2.57916c0,1 0,1.79999 0,2.79999c0,0.80002 0,1.80017 0,2.62085c0,0.66449 0,1.66315 0,2.47916c0,0.81601 0,2.03833 0,2.83835c0,0.909 0,1.82831 0,2.6825c0,0.97916 0,1.77914 0,2.57916c0,1 0,1.79999 0,2.79999c0,0.80002 -0.04736,1.80267 0.02084,2.60001c0.08612,1.0069 0.43228,1.79041 0.6265,2.39999c0.31433,0.9866 0.30774,1.81641 0.57401,2.80002c0.22134,0.81769 0.62289,1.79813 0.75333,2.58932c0.11932,0.72375 0.59796,1.65253 0.94131,2.41068c0.39209,0.86575 0.88254,1.4563 1.07333,2.39999c0.17432,0.86227 0.82495,1.38809 1.0062,2.10449c0.21964,0.86816 0.00449,1.7955 0.00449,2.6955c0,0.89999 0,1.80002 0,2.70001c0,0.89999 0,1.69998 0,2.60001c0,0.89999 0,1.79999 0,2.69998l-0.01068,0.98935l-0.48932,0.54816" id="svg_2" stroke-width="2" stroke="#000" fill="none"/>
  <path t="9776,9907,9920,9943,9959,9959,9971,9979,9990,9990,10006,10023,10040,10040,10063,10063,10080,10080,10090,10106,10123,10141,10141,10156,10156,10173,10173,10190,10190,10206,10206,10223,10223,10240,10240,10240,10256,10256,10273,10273,10290,10290,10306,10323,10340,10356,10373,10373,10390,10406,10406,10423,10423,10440,10440,10440,10456,10456,10473,10473,10490,10490,10506,10506,10506,10523,10523,10540,10540,10540,10556,10556,10573,10573,10590,10590,10606,10606,10623,10640,10663,10663,10663,10760,10793,10793,10800,10812,10812,10824,10840,10856,10857,10874,10890,10891,10891,10906,10923,10941,10957" d="m376,282c-0.87866,1.22134 -1.36523,1.87125 -2.20001,2.00134c-0.91547,0.14267 -1.44614,0.76294 -2.19998,1.388c-0.65747,0.54514 -1.5701,0.82523 -2.20001,1.18533c-0.8642,0.49405 -1.70715,0.77478 -2.39999,1.42532c-0.52634,0.4942 -1.32291,1.09735 -2,1.5c-0.8353,0.49673 -1.50433,0.93774 -2.2955,1.44733c-0.70343,0.45306 -1.17474,1.28506 -1.53784,2.05267c-0.33707,0.71259 -0.48251,1.67493 -0.87115,2.34732c-0.54004,0.93436 -1.11652,1.52341 -1.59549,2.30536c-0.4187,0.68353 -1.01962,1.39465 -1.41467,2.23132c-0.34659,0.73401 -0.3024,1.58463 -0.50668,2.53732c-0.17392,0.81107 -0.48129,1.61514 -0.65717,2.65701c-0.14743,0.87338 -0.12149,1.755 -0.12149,2.67432c0,0.90002 0,1.76334 0,2.61136c0,0.93597 -0.08212,1.83978 0.00015,2.73599c0.08368,0.91144 0.60782,1.50266 1.29984,2.19998c0.69733,0.7027 1.23599,1.1951 1.80017,2.02133c0.45029,0.65942 1.03702,1.5502 1.55701,1.92151c0.71106,0.50775 1.7496,0.94202 2.32199,1.25717c0.86703,0.47739 1.48874,1.0466 2.34235,1.60001c0.67603,0.43826 1.68225,0.89264 2.27399,1.19998c0.75226,0.39072 1.53879,0.88107 2.15717,1.45718c0.75443,0.70285 1.24896,1.24121 1.76334,1.75882c0.85071,0.85602 1.2782,1.37094 1.89468,2.30936c0.34399,0.52362 1.06488,1.30185 1.76398,1.76398c0.79434,0.52509 1.46368,1.11069 1.82535,1.91068c0.36166,0.79999 1.16254,1.50687 1.82535,1.89999c0.68646,0.40714 1.31335,1.09052 2.27466,1.47852c0.6586,0.26584 1.55258,0.00278 2.06665,-0.87851c0.3656,-0.62674 0.6821,-1.41263 0.83783,-2.29999c0.16296,-0.92865 0.82959,-1.46954 1.39551,-2.11069c0.6387,-0.7236 0.96704,-1.43484 1.39999,-2.10532c0.55881,-0.86539 1.39868,-1.39999 2.14285,-1.84119l0.0585,-0.84149" id="svg_3" stroke-width="2" stroke="#000" fill="none"/>
  <path t="13000,13406,13416,13430,13460,13476,13476,13476,13492,13493,13493,13507,13507,13523,13524,13541,13557,13557,13557,13630,13652,13668,13692,13692,13708,13716,13724,13741,13741,13756,13757,13773,13774,13774,13790,13791,13791,13791,13791,13806,13806,13806,13823,13823,13823,13823,13840,13840,13840,13840,13840,13856,13856,13856,13856,13856,13873,13873,13873,13873,13890,13890,13890,13906,13906,13906,13906,13906,13923,13923,13923,13923,13940,13940,13940,13940,13940,13956,13956,13956,13956,13956,13973,13973,13990,13990,13990,14006,14006,14023,14023,14023,14040,14040,14040,14040,14040,14056,14056,14056,14073,14073,14073,14090,14090,14090,14090,14106,14106,14106,14123,14123,14123,14140,14140,14140,14156,14156,14156,14172,14189,14189,14206,14206,14223,14223,14240,14259,14259,14272,14273,14289,14306,14306,14323,14339,14340,14340,14355,14373,14395,14395,14431,14660,14696,14711,14727,14740,14757,14757,14773,14790,14790,14805,14823,14823,14823,14840,14840,14855,14856,14856,14873,14873,14890,14890,14906,14906,14922,14939,14956,14956,14973,14990,14990,15005,15022,15040,15056,15099,15123,15142,15145,15155,15173,15190,15206,15222,15223,15239,15240,15240,15255,15272,15295,15295,15327" d="m349,337c-1.02533,-2.55334 -1.6839,-2.89584 -2.08401,-2.19867c-0.42444,0.73956 -1.2457,1.51208 -1.74133,2.03467c-0.5311,0.56 -1.14072,1.37241 -1.67465,2.14316c-0.37524,0.54169 -1.15359,1.26227 -1.84732,1.71634c-0.76837,0.50296 -1.45169,1.10416 -2.06335,1.71518c-0.75638,0.75558 -1.20129,1.28455 -1.93665,1.87949c-0.72882,0.58969 -1.5918,0.92508 -1.65268,1.80984c-0.0618,0.89786 -0.1243,1.6774 -0.57468,2.5c-0.42728,0.78036 -0.30865,1.74316 -0.64667,2.50015c-0.31924,0.715 -0.7088,1.56393 -0.83133,2.36151c-0.14798,0.96341 -0.38782,1.78143 -0.522,2.38501c-0.29187,1.31302 -0.34558,2.03699 -0.39999,2.77866c-0.05496,0.74902 -0.06085,1.49844 -0.30933,2.89066c-0.11838,0.66318 -0.39728,1.63104 -0.54935,2.65067c-0.10654,0.7142 -0.13043,1.4595 -0.19199,2.20801c-0.12012,1.46057 -0.2438,2.14709 -0.42133,2.81067c-0.18219,0.68103 -0.43298,1.38663 -0.87466,2.55734c-0.3262,0.86462 -0.67908,1.75717 -0.85333,2.20667c-0.3421,0.88235 -0.80753,2.10632 -1.06818,2.83633c-0.23975,0.67145 -0.55759,1.61108 -0.85718,2.5145c-0.30176,0.90991 -0.51486,1.53146 -0.89999,2.86649c-0.20667,0.71643 -0.40231,1.46652 -0.564,2.24402c-0.16385,0.78802 -0.32263,1.98868 -0.38333,2.78934c-0.06061,0.79944 -0.07288,1.60352 -0.21933,2.79999c-0.09827,0.80295 -0.26605,1.60361 -0.48001,2.39999c-0.10797,0.40195 -0.51025,1.60394 -0.836,2.39734c-0.32242,0.78534 -0.6817,1.52051 -0.948,2.23199c-0.44339,1.18466 -0.47885,1.944 -0.73599,2.97067c-0.20425,0.81558 -0.59778,1.59003 -0.78067,2.60001c-0.14377,0.79398 -0.27179,1.60132 -0.57352,2.46249c-0.27829,0.79425 -0.58575,1.80005 -0.77914,2.60001c-0.20709,0.85666 -0.2933,1.29904 -0.5,2.17084c-0.29062,1.22574 -0.4765,1.95547 -0.80002,2.90933c-0.37311,1.10016 -0.73694,1.79483 -0.96399,2.51865c-0.33084,1.05466 -0.3558,1.70636 -0.41068,2.38934c-0.08383,1.04355 -0.16116,2.02356 -0.37799,2.83951c-0.19461,0.73233 -0.55307,1.92871 -0.61133,2.73517c-0.05927,0.82047 -0.01294,1.85406 -0.04669,2.54932c-0.04425,0.91132 -0.26733,1.90967 -0.48932,2.7045c-0.21033,0.75311 -0.47141,1.70975 -0.5,2.6875c-0.02435,0.83298 0,1.66669 0,2.586c0,0.90002 -0.10696,1.60138 0.01068,2.62201c0.11105,0.96347 0.4614,1.65533 0.98932,2.45868c0.51797,0.78821 0.84384,1.63071 1.28534,2.36667c0.40707,0.67859 1.16309,1.17462 1.71466,1.96664c0.4404,0.63239 0.81931,1.33624 1.38934,2.19736c0.54541,0.82388 0.9115,1.68683 1.258,2.336c0.45334,0.84937 0.46786,2.00421 -0.258,2.28931c-0.82831,0.32535 -1.59262,0.55386 -2.48935,0.88919c-0.85065,0.31808 -1.69998,0.11966 -2.53598,0.12149c-1.01669,0.00226 -1.73865,-0.01581 -2.61136,0.35266c-0.95569,0.4035 -1.58807,0.62814 -2.35397,0.646c-1.0029,0.02338 -1.85583,0.00134 -2.82001,0.00134c-0.80402,0 -1.62601,0 -2.65701,0c-0.88,0 -1.90033,0 -2.67432,0c-0.90002,0 -1.76334,0 -2.7265,0c-0.93152,0 -1.84216,0 -2.6955,0c-0.94,0 -1.82535,0 -2.62534,0c-0.90002,0 -1.81921,0.16519 -2.70001,-0.02084c-0.84738,-0.17899 -1.86581,-0.52167 -2.37851,-1.20065c-0.53433,-0.70761 -0.09525,-1.7536 -0.12149,-2.57983c-0.02859,-0.90005 -0.68491,-1.6218 -0.94284,-2.50317c-0.24268,-0.82925 -0.05716,-1.71634 -0.05716,-2.6955c0,-0.78934 0,-1.51468 0,-2.58932c0,-0.82135 0,-1.73199 0,-2.58533l0,-0.94" id="svg_4" stroke-width="2" stroke="#000" fill="none"/>
  <path t="16540,16550,16550,16550,16550,16550,16550,16550,16550,16573,16573,16573,16593,16593,16593,16593,16610,16610,16610,16610,16624,16624,16624,16624,16641,16641,16641,16641,16657,16657,16657,16674,16674,16674,16691,16691,16691,16707,16707,16724,16724,16741,16741,16741,16757,16774,16774,16791,16791,16807,16807,16824,16841,16864,16880,16880,16891,16907,16923,16923,16940,16957,16973,16999,17063" d="m296,364c-0.83334,19.16666 -0.88043,20.43393 -0.91467,21.54532c-0.02985,0.9693 -0.05099,1.81064 -0.06448,2.53802c-0.01163,0.62729 -0.01859,1.16867 -0.02084,2.41666c-0.00168,0.93301 0,1.70401 0,2.66666c0,0.79501 0,1.68002 0,2.32001c0,1.39868 0,2.14932 0,2.92401c0,0.79065 0.00598,1.98923 -0.00449,2.78482c-0.01031,0.78375 -0.008,1.55273 -0.16217,2.63785c-0.14441,1.01627 -0.35745,1.64047 -0.54935,2.56534c-0.186,0.89661 -0.2619,1.79025 -0.27951,2.64417c-0.02136,1.03561 -0.00449,1.73181 -0.00449,2.64114c0,1 0,1.81601 0,2.63202c0,0.99866 0.013,1.87341 -0.00015,2.884c-0.01041,0.8002 -0.1412,1.80875 -0.42517,2.58932c-0.26715,0.73434 -0.55667,1.58481 -0.57468,2.53198c-0.01624,0.85318 0.08911,1.81006 -0.08533,2.56268c-0.22598,0.97501 -0.74417,1.60797 -0.89383,2.59515c-0.13812,0.91098 -0.4632,1.63266 -0.85419,2.52084c-0.28952,0.65765 -0.48117,1.38712 -1,2.16666c-0.47089,0.70746 -0.29095,1.61075 -0.74133,2.43335c-0.42728,0.78036 -0.42532,1.69998 -0.42532,2.60001l0,0.89966" id="svg_5" stroke-width="2" stroke="#000" fill="none"/>
  <path t="18239,18261,18261,18261,18261,18261,18261,18261,18261,18261,18269,18269,18269,18293,18309,18309,18309,18309,18326,18326,18326,18339,18356,18356,18373,18373,18389,18389,18406,18423,18423,18439,18439,18456,18475,18489,18515,18551,18571,18587,18606" d="m309,324c-3,10.5 -3.29562,11.43567 -3.59732,12.33466c-0.28983,0.86365 -0.57758,1.68405 -0.86102,2.457c-0.26611,0.72565 -0.51831,1.39835 -0.771,2.00702c-0.60605,1.45993 -1.16147,2.30963 -1.48267,2.992c-0.41284,0.87704 -0.50333,1.97491 -0.64517,2.57181c-0.15686,0.66 -0.42062,1.67877 -0.74265,2.59436c-0.26999,0.76764 -0.73453,1.53067 -0.87933,2.54315c-0.13953,0.97565 0.02072,1.72839 -0.24219,2.69983c-0.21622,0.79892 -0.50723,1.66718 -0.83133,2.49567c-0.34201,0.87427 -0.79666,1.63138 -0.97266,2.47916c-0.16818,0.81012 -0.78452,1.47516 -0.96399,2.42535c-0.16705,0.88443 -0.02136,1.78934 -0.51068,2.39999c-0.48932,0.61066 -0.5,1.5 -0.52084,2.47916l-0.55383,0.51016" id="svg_6" stroke-width="2" stroke="#000" fill="none"/>
  <path t="19779,19804,19804,19804,19804,19804,19812,19812,19825,19826,19842,19842,19842,19858,19858,19858,19858,19858,19873,19874,19874,19890,19890,19890,19907,19907,19923,19924,19924,19939,19939,19939,19939,19940,19957,19957,19957,19957,19973,19973,19974,19974,19989,19990,19990,19990,20007,20007,20007,20023,20024,20024,20024,20039,20040,20057,20073,20074,20090,20090,20090,20107,20107,20107,20124,20124,20140,20140,20157,20174,20246,20309,20433,20457" d="m228,374c7.91367,1.75699 8.45418,1.84943 9.43466,1.92801c0.84946,0.06808 1.58934,0.07065 2.79468,0.07199c0.94933,0.00104 1.97066,0 2.77066,0c1,0 1.61349,0 2.5715,0c0.9285,0 1.6805,0 2.5045,0c0.84799,0 1.672,0 2.75966,0c0.867,0 1.84567,0 2.84834,0c0.81599,0 1.6322,0.0191 2.63066,-0.00134c0.87515,-0.01791 1.88809,-0.21359 2.51733,-0.43466c0.74225,-0.26077 1.66565,-0.57306 2.42133,-0.76401c0.83087,-0.20996 1.70822,-0.39331 2.58002,-0.59998c1.22607,-0.29065 1.95761,-0.49725 2.64581,-0.70001c0.6698,-0.19733 2.04163,-0.60199 2.7735,-0.79999c0.7468,-0.20203 1.49722,-0.39105 2.58069,-0.70001c0.68164,-0.19437 1.62857,-0.4899 2.20499,-0.70001c1.04733,-0.38177 1.73929,-0.71933 2.4715,-1c1.12164,-0.42993 1.79373,-0.591 2.8035,-0.89999c0.63507,-0.19434 1.60248,-0.6496 2.37317,-1.04282c0.80844,-0.41248 1.82208,-0.60034 2.52417,-1.00385c0.81952,-0.47098 1.38232,-1.01419 1.98935,-1.52798c0.79099,-0.66949 1.59772,-1.17575 2.14282,-1.52084c0.91919,-0.58191 1.51532,-1.14706 2.30984,-1.60001c0.67471,-0.38461 1.75186,-0.43427 2.64282,-0.70898c0.76352,-0.23541 1.22534,-0.97467 2.09384,-1.0062l0.58981,-0.51016" id="svg_7" stroke-width="2" stroke="#000" fill="none"/>
  <path t="23710,23720,23720,23720,23720,23720,23720,23720,23720,23720,23735,23735,23735,23735,23735,23735,23735,23735,23735,23749,23749,23749,23749,23749,23750,23750,23750,23750,23759,23759,23759,23759,23759,23759,23759,23759,23759,23773,23773,23773,23773,23773,23773,23773,23773,23773,23789,23789,23789,23789,23789,23789,23789,23789,23790,23806,23806,23806,23806,23806,23806,23806,23806,23806,23823,23823,23823,23823,23823,23823,23823,23823,23839,23839,23856,23856,23856,23856,23873,23873,23873,23873,23873,23873,23889,23889,23889,23889,23889,23889,23906,23907,23907,23907,23907,23907,23907,23907,23907,23923,23923,23923,23923,23924,23926,23926,23926,23926,23940,23940,23940,23940,23940,23940,23940,23940,23940,23956,23956,23956,23956,23956,23957,23957,23957,23957,23973,23973,23973,23973,23973,23973,23974,23974,23974,23989,23990,23990,23990,23990,23990,23990,23990,23990,24006,24006,24007,24007,24007,24007,24007,24007,24007,24023,24024,24024,24024,24024,24040,24040,24040,24040,24040,24040,24056,24057,24057,24057,24073,24073,24073,24089,24107,24107,24143,24156,24174,24174,24174,24189,24189,24190,24190,24190,24190,24206,24207,24207,24207,24207,24207,24208,24208,24223,24223,24224,24224,24224,24224,24239,24239,24239,24240,24240,24240,24240,24259,24259,24259" d="m156,271c0.5,6.33334 0.21785,8.41312 -0.16,10.79868c-0.41609,2.62698 -0.89488,5.41821 -1.4025,8.30548c-0.51234,2.91409 -1.032,5.78088 -1.53751,8.53052c-0.89467,4.8663 -1.2691,6.85623 -1.58932,8.54932c-0.27043,1.42984 -0.50064,2.62897 -0.7065,3.62851c-0.17224,0.83633 -0.32481,1.54141 -0.48151,2.14349c-0.27284,1.04843 -0.4413,1.54489 -0.60666,2.04401c-0.16595,0.50092 -0.34134,1 -0.51601,1.5c-0.17467,0.5 -0.35187,0.9985 -0.51601,1.5c-0.32635,0.9971 -0.46519,1.49969 -0.60133,2.00266c-0.13687,0.50571 -0.26689,1.01895 -0.40349,1.539c-0.13937,0.53064 -0.28229,1.07465 -0.4485,1.629c-0.34991,1.16699 -0.56902,1.7735 -0.8,2.39603c-0.23593,0.63586 -0.48897,1.27457 -0.7515,1.91248c-0.26151,0.63544 -0.52806,1.25961 -0.79651,1.86752c-0.51041,1.15579 -0.75856,1.68954 -0.99733,2.19333c-0.22569,0.4762 -0.44492,0.9223 -0.66451,1.33499c-0.20604,0.38724 -0.40616,0.74655 -0.61949,1.065c-0.38345,0.57239 -0.59485,0.80157 -0.8,1.00266c-0.19113,0.18735 -0.38661,0.34457 -0.58051,0.474c-0.18121,0.12097 -0.36075,0.21915 -0.53549,0.29401c-0.31387,0.13446 -0.46274,0.17148 -0.59866,0.20267c-0.12425,0.0285 -0.23988,0.04529 -0.345,0.04501c-0.09514,-0.00024 -0.28616,0.06732 -0.45634,-0.24768c-0.36722,-0.67975 -0.09566,-1.76849 -0.064,-2.42932c0.03593,-0.75018 0.10342,-1.5809 0.42183,-2.90283c0.11273,-0.46802 0.43123,-1.41766 0.61934,-1.89935c0.38678,-0.99042 0.60094,-1.49277 1.35933,-2.97931c0.25789,-0.50549 0.83119,-1.51315 1.14067,-2.02069c0.31577,-0.51785 0.99738,-1.57312 1.77083,-2.64581c0.40372,-0.55991 0.83771,-1.12448 1.29001,-1.70401c0.46762,-0.59918 0.95932,-1.21323 1.47,-1.84799c0.5293,-0.6579 1.08293,-1.33633 2.23999,-2.78134c0.6109,-0.76291 1.23584,-1.55243 1.87201,-2.36249c0.64651,-0.82324 1.29593,-1.65738 1.944,-2.4975c0.64659,-0.8382 1.28719,-1.66995 2.51733,-3.30667c0.59268,-0.78857 1.16347,-1.56174 1.7235,-2.31451c0.54797,-0.73657 1.08623,-1.45844 1.6245,-2.1615c0.53078,-0.69327 1.05283,-1.38193 2.15201,-2.69067c0.54718,-0.65149 1.11449,-1.28391 1.68599,-1.90948c0.56985,-0.62378 1.14687,-1.23679 1.722,-1.8465c0.5722,-0.60663 1.14825,-1.20294 2.25867,-2.41068c0.54877,-0.59686 1.0838,-1.19901 1.614,-1.79999c0.52847,-0.599 1.05211,-1.2005 1.578,-1.80002c0.52678,-0.60049 1.05144,-1.20654 2.14134,-2.39999c0.55069,-0.603 1.11369,-1.19824 1.677,-1.79099c0.55937,-0.58859 1.11533,-1.16672 1.659,-1.73703c0.53099,-0.55701 1.0518,-1.09299 1.99733,-2.13864c0.43962,-0.48618 0.84483,-0.95819 1.224,-1.41c0.35941,-0.42825 0.69325,-0.83954 1.008,-1.23001c0.29788,-0.36957 0.57341,-0.72433 1.10133,-1.35999c0.24309,-0.29269 0.47781,-0.57101 0.95201,-1.08267c0.46992,-0.50705 1.54799,-1.58401 1.85733,-1.89334c0.66267,-0.66266 1.35733,-1.35733 1.70667,-1.70667c0.68266,-0.68268 1.60768,-1.60767 2.13634,-2.13632c0.47267,-0.47269 1.11165,-1.11169 1.91299,-1.91302c0.58049,-0.58047 1.06693,-1.16898 1.84416,-1.83966c0.81004,-0.69901 2.39616,-0.44373 2.34283,-1.409c-0.02997,-0.54242 -1.26425,0.00629 -1.94032,0.33002c-0.59106,0.28302 -1.73134,0.86032 -2.67401,1.33167c-0.51534,0.25766 -1.05466,0.52731 -1.614,0.80698c-1.16267,0.58133 -2.35744,1.17847 -2.95717,1.47867c-0.59894,0.2998 -1.19711,0.59717 -2.37933,1.20001c-0.58554,0.29858 -1.16556,0.59641 -1.73549,0.89999c-1.66963,0.88934 -2.20087,1.19952 -2.73267,1.49551c-1.05173,0.58536 -1.57375,0.87671 -2.10535,1.14734c-1.60156,0.81537 -2.16505,1.04288 -2.72733,1.26917c-1.10741,0.44568 -1.65326,0.63858 -2.69583,0.96915c-0.4823,0.15292 -1.73784,0.47568 -2.65884,0.63617l-0.78932,-0.00534" id="svg_8" stroke-width="20" stroke="#fff" fill="none"/>
  <path t="28396,28629,28639,28651,28667,28675,28689,28707,28707,28722,28722,28739,28739,28756,28756,28772,28772,28789,28789,28806,28806,28822,28822,28822,28840,28840,28856,28857,28857,28873,28889,28890,28906,28907,28923,28923,28940,28940,28940,28956,28956,28957,28957,28972,28972,28973,28990,29006,29007,29022,29022,29040,29040,29040,29040,29056,29057,29057,29072,29090,29090,29090,29107,29107,29122,29122,29123,29140,29140,29140,29156,29157,29157,29157,29157,29172,29173,29173,29189,29190,29207,29207,29222,29223,29239,29239,29256,29256,29256,29272,29289,29289,29367,29379,29391,29406,29406,29422,29439,29439,29439,29456,29456,29456,29472,29472,29472,29489,29506,29506,29522,29522,29539,29539,29556,29556,29556,29575,29575,29599,29627,29635,29651,29659,29672,29689,29706,29727,29747,29756,29772,29807,29839,29952,29967,29979,30003,30003,30011,30027,30071,30079,30089,30107,30122,30139,30156,30156,30172,30189,30189,30206,30227,30227,30251,30259,30279,30289,30306,30322,30339,30356,30356,30356,30372,30389,30406,30406,30422,30439,30439,30439,30456,30456,30456,30472,30472,30489,30489,30506,30506,30522,30522,30539,30539,30539,30556,30556,30572,30572,30589,30589,30606,30627,30639,30656,30672,30672,30689,30706,30725,30759,30808,30860,30872,30892,30911,30923,30971,31007,31023,31031,31051,31067,31075,31091,31107,31122,31139,31139,31156,31156,31172,31172,31189,31206,31206,31206,31222,31222,31239,31239,31256,31256,31272,31272,31272,31289,31289,31306,31306,31322,31322,31322,31339,31339,31356,31356,31356,31356,31372,31372,31389,31389,31406" d="m230,372c0,1.70001 0,2.70001 0,3.60001c0,0.89999 0,1.79999 0,2.69998c0,0.80017 0,1.58536 0,2.53601c0,0.76532 0.00053,1.76401 0,2.564c-0.00067,0.99869 0.13298,1.82925 -0.35716,2.84735c-0.33673,0.69946 -0.95247,1.40475 -1.34283,2.15717c-0.41002,0.79031 -0.86304,1.56964 -1.13333,2.59549c-0.20699,0.78555 -0.19534,1.616 -0.45201,2.39999c-0.26871,0.82077 -0.8049,1.8049 -1.11465,2.38934c-0.38789,0.7319 -0.97841,1.59583 -1.70018,2.31067c-0.52072,0.51572 -1.39017,1.08923 -2.07449,1.5c-0.8119,0.48734 -1.45975,1.05075 -2.36833,1.50015c-0.71025,0.35132 -1.29604,0.49817 -2.457,1.0665c-0.60857,0.29791 -1.18996,0.65768 -2.04283,1.18066c-0.79108,0.48508 -1.69205,1.04749 -2.2955,1.29102c-1.01036,0.40775 -1.99988,0.54749 -2.66167,0.88251c-0.85764,0.43417 -1.50732,1.01736 -2.33333,1.64581c-0.42918,0.32654 -1.18016,0.84485 -1.98401,1.34933c-0.75427,0.47339 -1.65686,0.93707 -2.196,1.28268c-0.88953,0.57022 -1.65332,1.36798 -2.13933,1.854c-0.52199,0.522 -1.326,1.32599 -1.84734,1.84732c-0.66667,0.66666 -1.34613,1.31757 -1.84734,1.90451c-0.65974,0.77258 -1.03137,1.4209 -1.46249,2.10983c-0.51563,0.82397 -0.95665,1.45471 -1.44084,2.13632c-0.4971,0.69977 -1.00267,1.36728 -1.60632,2.30634c-0.48854,0.76001 -0.93394,1.64355 -1.343,2.44168c-0.39388,0.76849 -0.97833,1.53033 -1.364,2.22665c-0.44963,0.81183 -0.38707,1.76282 -0.79317,2.6265c-0.35905,0.76364 -0.84283,1.51617 -1.14284,2.24817c-0.3,0.73199 -0.91441,1.61859 -1.33333,2.5c-0.35986,0.75717 -0.6003,1.67545 -1.46667,1.94284c-0.86162,0.26593 -1.82211,-0.13809 -2.39999,-0.64734c-0.74046,-0.65253 -1.46812,-1.12219 -2.34167,-1.31635c-0.6461,-0.14359 -1.65118,-0.53287 -2.45833,-1c-0.5536,-0.3204 -1.56656,-0.97952 -2.25333,-1.33249c-0.74797,-0.38443 -1.64415,-0.5463 -2.56801,-0.86816c-0.70045,-0.24402 -1.50883,-0.78275 -2.17867,-1.2785c-0.81769,-0.60519 -1.51947,-1.00269 -2.5,-1.5c-0.59468,-0.30161 -1.36147,-0.6723 -2.11467,-1.19867c-0.70229,-0.49078 -1.33607,-1.13141 -2.052,-1.63467c-0.69525,-0.48871 -1.60031,-0.47467 -2.18599,-1.11398c-0.53433,-0.58325 -1.02299,-1.19693 -1.48067,-2.05267c-0.42329,-0.79144 -0.95937,-1.23773 -1.16684,-2.09982c-0.20218,-0.84012 -0.97124,-1.25604 -0.99983,-2.19568c-0.02817,-0.92557 -0.32312,-1.98401 0.2215,-2.58316c0.63422,-0.69769 1.21811,-0.94916 1.80383,-1.68533c0.53827,-0.67654 1.25992,-1.11441 1.89067,-1.72c0.57286,-0.54999 1.12863,-1.17099 1.65866,-1.74133c0.58864,-0.63339 1.14165,-1.26447 1.77718,-1.67468c0.90039,-0.58118 1.6864,-1.03394 2.44817,-1.384c0.74973,-0.34454 1.39732,-1.11868 2,-1.71597c0.59735,-0.59201 1.49677,-0.98001 2.14732,-1.55267c0.58884,-0.51834 1.054,-1.25809 1.75717,-1.70001c0.68465,-0.43027 1.45389,-1.1225 1.94817,-1.59549c0.68341,-0.65396 1.66406,-0.93582 2.26334,-1.63718c0.56522,-0.66147 0.82628,-1.37958 1.48399,-2.12534c0.6384,-0.72385 0.98688,-1.44052 1.35718,-1.99384c0.68538,-1.02414 1.23761,-1.60434 1.84416,-2.11017c0.76634,-0.6391 1.42029,-0.90085 2.37717,-1.58533c0.64203,-0.45926 1.26192,-1.06744 1.7215,-1.65717c0.66644,-0.85513 0.89082,-1.48636 1.62134,-2.44284c0.4756,-0.62271 1.06734,-1.16904 1.657,-1.99982c0.40439,-0.56976 0.70949,-1.69382 1.08301,-2.3895c0.37537,-0.6991 1.35954,-1.01279 1.87732,-1.81067c0.47435,-0.73096 0.59335,-1.79871 1.22801,-2.43335c0.63464,-0.63464 1.52376,-0.5907 2.3125,-1.16666c0.64027,-0.46753 1.3226,-0.63675 2.08482,-1.03601c0.7583,-0.39722 1.1826,-1.28162 1.72,-1.87997c0.57344,-0.63846 1.1174,-1.17313 1.7115,-1.73135c0.50832,-0.4776 0.64125,-1.15445 1.0405,-1.91666c0.39722,-0.75833 0.96333,-1.23734 0.964,-2.13602c0.00067,-0.89999 0.00224,-1.79999 0,-2.69998c-0.00226,-0.89999 -0.39407,-1.74313 -0.716,-2.48535c-0.39095,-0.90134 -0.25063,-1.71667 -0.2885,-2.71014c-0.02853,-0.74866 -0.47804,-1.59488 -0.82883,-2.57117c-0.23132,-0.6438 -0.20595,-1.44778 -0.51933,-2.43335c-0.25833,-0.81244 -0.59502,-1.79758 -0.63667,-2.60001c-0.05183,-0.99872 -0.004,-1.80002 -0.01067,-2.79999c-0.00534,-0.80005 -0.03906,-1.61353 -0.35266,-2.60001c-0.19382,-0.60968 -0.5677,-1.59586 -0.62651,-2.39999c-0.07295,-0.99756 -0.02083,-1.79999 -0.02083,-2.60001c0,-1.009 0,-1.91434 0,-2.73334c0,-0.9675 0,-1.64581 0,-2.61331c0,-0.99869 0,-1.797 0,-2.70602l0,-0.86331l0,-0.96317" id="svg_9" stroke-width="2" stroke="#000" fill="none"/>
  <path t="32522,32702,32712,32742,32742,32758,32758,32758,32758,32773,32773,32773,32790,32790,32790,32807,32807,32823,32823,32840,32840,32840,32857,32857,32857,32857,32873,32873,32890,32890,32890,32907,32907,32907,32922,32923,32940,32940,32940,32940,32956,32957,32957,32973,32973,32973,32990,32990,32990,32990,32990,33006,33006,33006,33022,33022,33039,33039,33039,33056,33056,33072,33072,33088,33089,33106,33106,33121,33122,33138,33138,33155,33171,33191,33191,33206,33299,33320,33339,33356,33356,33372,33372,33389,33389,33406,33406,33422,33422,33439,33456,33456,33472,33472,33489,33489,33506,33522,33522,33539,33539,33556,33556,33572,33572,33589,33606,33622,33639,33663,33749,33776,33791,33791,33807,33822,33839,33839,33855,33855,33872,33872,33889,33889,33905,33905,33905,33922,33922,33939,33939,33955,33955,33972,33972,33972,33989,34005,34005,34022,34039,34039,34055,34055,34055,34072,34089,34105,34105,34122,34139,34139,34155,34172,34223,34247,34247,34301,34382,34392" d="m230,385c0,0.20001 -0.02286,1.10031 0,2c0.01801,0.70868 0.22195,1.76422 0.35266,2.367c0.22307,1.02875 0.39252,1.74759 0.52583,2.81134c0.08246,0.65799 0.11617,1.57495 0.12151,2.655c0.00459,0.93066 0,1.76532 0,2.56665c0,0.80002 0,1.80002 0,2.60001c0,1 0,1.82132 0,2.77066c0,0.87201 0,1.88 0,2.57867c0,0.68268 0,1.88132 0,2.62982c0,1.1875 0,1.97351 0,2.7955c0,1.05869 -0.06352,1.77515 0.05716,2.62085c0.14566,1.02075 0.52373,1.60486 0.77617,2.77115c0.16896,0.78061 0.17207,1.64633 0.25067,2.23468c0.16077,1.20346 0.4229,2.08255 0.6205,2.64151c0.36966,1.04565 0.71875,1.74451 0.9955,2.52414c0.32785,0.92358 0.50868,1.68277 0.68933,2.509c0.18494,0.84586 0.34605,1.66907 0.48933,2.75952c0.11227,0.85449 0.13867,1.78107 0.4785,2.7645c0.21274,0.61563 0.74284,1.60001 1.14284,2.39999c0.3,0.60001 0.79999,1.60001 1.10001,2.20001c0.49997,0.99985 0.86057,1.80347 1.39999,2.63333c0.44745,0.68835 0.86325,1.49091 1,2.16666c0.19901,0.98346 0.72539,1.73029 0.94733,2.65268c0.16435,0.68307 0.5937,1.50003 0.93117,2.44733c0.30476,0.8555 -0.24286,1.81073 0.17867,2.54282c0.46724,0.81149 0.92201,1.35718 0.18117,1.35718c-0.89549,0 -1.84027,-0.03058 -2.83833,0.00449c-0.80122,0.02814 -1.60245,0.20963 -2.37917,0.49551c-1.00298,0.36917 -1.77348,0.49774 -2.67349,0.5c-0.86334,0.00217 -1.84734,0 -2.66884,0c-0.88916,0 -1.87833,0 -2.65767,0c-0.99933,0 -1.81949,0 -2.65683,0c-1.02116,0 -1.76849,0 -2.76399,0c-0.8,0 -1.79984,0 -2.57918,0c-0.99933,0 -1.81949,0 -2.72083,0c-0.90001,0 -1.83475,0.05292 -2.60001,-0.35266c-0.8459,-0.4483 -1.87997,-0.27054 -2.53333,-0.814c-0.69003,-0.57397 -0.92383,-1.37192 -1.14584,-2.33334c-0.18111,-0.78427 -0.24525,-1.82007 -0.52083,-2.5c-0.33713,-0.83182 -0.48735,-1.6377 -0.784,-2.48532c-0.25812,-0.73755 -0.58882,-1.71561 -0.716,-2.51468c-0.15935,-1.00119 -0.47604,-1.78336 -0.716,-2.60001c-0.28906,-0.98383 -0.28174,-1.79999 -0.284,-2.79999c-0.0018,-0.80002 0,-1.80002 0,-2.60001c0,-1 0,-1.78934 0,-2.51468c0,-0.98532 0,-1.96933 0,-2.65997c0,-1.07269 0,-1.992 0,-2.84619c0,-0.97916 0,-1.76849 0,-2.49384c0,-0.96448 0.07684,-1.92343 -0.35266,-2.78983c-0.30431,-0.61383 -0.62933,-1.52036 -0.64734,-2.52884c-0.01349,-0.75586 0.1571,-1.68237 -0.01067,-2.56665c-0.17946,-0.94592 -0.82266,-1.60001 -0.98801,-2.39999l-0.00133,-0.90002l0,-0.89999l0,-0.87915" id="svg_10" stroke-width="2" stroke="#000" fill="none"/>
  <path t="35727,35749,35758,35775,35789,35805,35805,35822,35839,35839,35855,35855,35872,35872,35872,35889,35889,35905,35922,35922,35939,35939,35955,35972,35989,35989,36005,36005,36022,36039,36055,36055,36072,36072,36089,36105,36122,36139,36156,36156,36172,36191,36205,36222,36239,36255,36272,36289,36289" d="m182,339c0.80133,-1.28134 1.68512,-0.89999 2.084,-0.19867c0.40736,0.71625 1.11601,1.39868 1.716,1.99866c0.60001,0.60001 1.34715,1.26004 1.89999,1.95718c0.54951,0.69296 0.9225,1.48004 1.3,2.40948c0.31442,0.77411 0.59897,1.56259 0.83333,2.5c0.19623,0.78488 0.65228,1.57617 1,2.5c0.23732,0.63049 0.35127,1.65729 0.74133,2.42267c0.40834,0.80127 0.34952,1.73425 0.59201,2.57733c0.1956,0.68008 0.73099,1.65622 0.82266,2.42267c0.10822,0.90479 0.51395,1.64706 0.84399,2.57733c0.28287,0.7973 0.16667,1.66669 0.16667,2.52884c0,0.90451 0.13805,1.67743 0.64734,2.35718c0.4736,0.63211 0.23413,1.62054 0.43799,2.46332c0.21481,0.88803 0.74796,1.6955 0.91484,2.58383c0.14949,0.79572 0.94267,1.25735 0.99983,2.10019l0,0.89999l0,0.89999l0.05716,0.75717" id="svg_11" stroke-width="2" stroke="#000" fill="none"/>
  <path t="42815,42952,43016,43048,43052,43068,43076,43087,43104,43122,43138,43138,43169,43169,43176,43176,43188,43188,43189,43206,43206,43206,43222,43223,43244,43244,43256,43256,43272,43272,43272,43288,43288,43305,43305,43322,43322,43338,43338,43338,43355,43355,43372,43372,43372,43388,43388,43405,43405,43405,43422,43422,43422,43422,43438,43438,43438,43455,43455,43455,43472,43472,43472,43488,43488,43488,43505,43505,43505,43522,43522,43522,43538,43538,43555,43555,43572,43572,43588,43588,43588,43588,43605,43605,43605,43622,43622,43638,43638,43655,43655,43672,43672,43672,43688,43688,43688,43705,43705,43738,43738,43738,43738,43755,43755,43755,43755,43755,43772,43772,43772,43772,43788,43788,43788,43805,43805,43805,43822,43822,43838,43838,43945,43968,43968,43976,43988,44005,44005,44022,44022,44038,44055,44072,44072,44088,44088,44105,44105,44122,44138,44138,44155,44155,44172,44172,44188,44188,44205,44222,44222,44238,44255,44255,44276,44300,44320,44320,44327,44360,44372,44372,44388,44396,44412,44427,44427,44438,44455,44472,44472,44488,44488,44488,44505,44505,44505,44522,44522,44538,44538,44538,44555,44555,44572,44572,44572,44588,44588,44588,44605,44605,44622,44622,44622,44638,44638,44638,44638,44655,44655,44655,44672,44672,44672,44688,44688,44688,44705,44705,44722" d="m208,269c-1.7,0 -2.70258,-0.39819 -3.564,0.03601c-0.69888,0.35226 -1.11441,1.24921 -1.72,1.87997c-0.55,0.57288 -1.30203,0.96692 -2.01601,1.44119c-0.79164,0.52585 -1.19998,1.14282 -1.89999,1.84283c-0.59999,0.59998 -1.22946,1.2056 -1.68533,1.77066c-0.62657,0.77664 -1.11478,1.54611 -1.51917,2.02399c-0.75787,0.8956 -1.61032,1.4411 -2.11017,1.888c-0.79005,0.70639 -1.14865,1.48679 -1.68533,2.23334c-0.47252,0.65732 -1.01314,1.36224 -1.40001,2.09467c-0.51775,0.98019 -0.79926,1.58969 -1.2,2.38934c-0.4991,0.99594 -0.75162,1.59625 -1.39999,2.51599c-0.46643,0.66165 -1.01314,1.36224 -1.40001,2.09467c-0.51775,0.98019 -0.79999,1.58932 -1.2,2.38934c-0.39999,0.79999 -0.8,1.60001 -1.2,2.39999c-0.39999,0.79999 -0.8,1.60001 -1.2,2.39999c-0.40001,0.80002 -0.81845,1.59128 -1.2,2.42133c-0.3154,0.68616 -0.70425,1.8201 -0.90001,2.48401c-0.20444,0.69339 -0.3698,1.39932 -0.79984,2.65182c-0.27065,0.78824 -0.60124,1.47873 -0.77882,2.46417c-0.14362,0.79691 -0.11092,1.63834 -0.34267,2.65735c-0.16083,0.70721 -0.54343,1.5968 -0.69467,2.60666c-0.12437,0.83044 -0.07932,1.42868 -0.3055,2.6145c-0.17143,0.8988 -0.36496,1.4733 -0.7785,2.53351c-0.2793,0.71603 -0.70551,1.54718 -0.916,2.56534c-0.15652,0.75708 -0.43381,1.68402 -0.73134,2.35397c-0.39026,0.87875 -0.38319,1.76959 -0.51933,2.58069c-0.16396,0.97681 -0.33853,1.67099 -0.53783,2.36133c-0.36691,1.27094 -0.68407,2.0386 -0.9955,2.69632c-0.48117,1.01617 -0.89653,1.54895 -1.1785,2.58768c-0.20506,0.75543 -0.08461,1.6868 -0.17867,2.483c-0.11421,0.96689 -0.386,1.75906 -0.59018,2.58566c-0.2534,1.02591 -0.33978,1.93161 -0.35133,2.55133c-0.01874,1.00568 -0.02574,1.86462 -0.22266,2.82333c-0.17509,0.85245 -0.37753,1.49246 -0.49467,2.23535c-0.20506,1.30048 -0.23108,2.29599 -0.248,2.80798c-0.0338,1.02243 -0.03085,1.5195 -0.036,2.86801c-0.004,1.047 0.01299,1.62842 -0.08533,2.43198c-0.14803,1.20993 -0.34584,1.88412 -0.48933,2.58401c-0.26964,1.31512 -0.38779,2.13528 -0.41467,2.82935c-0.03952,1.02045 -0.01067,1.80048 -0.01067,2.7998c0,0.82019 0.04646,1.9277 1,2.02151c0.80067,0.07877 1.46852,-0.56165 2.3,-0.94733c0.87326,-0.40506 1.42342,-0.8118 2.35266,-1.34818c0.67265,-0.38824 1.76323,-0.45584 2.32201,-1.1405c0.52193,-0.63953 0.8423,-1.42859 0.98933,-2.39999c0.11465,-0.75748 0.03214,-1.75949 0.036,-2.50684c0.00534,-1.03186 0.22829,-1.97568 0.5,-2.65717c0.38864,-0.97476 0.52776,-1.76129 0.85266,-2.65717c0.2739,-0.75522 0.59445,-1.73904 0.63667,-2.50684c0.0522,-0.94928 0.23395,-1.80118 0.58533,-2.436c0.48708,-0.87997 0.42534,-1.72131 0.42534,-2.57465c0,-0.94 0,-1.92535 0,-2.82535c0,-0.79999 0.31448,-1.38715 0.83333,-2.16666c0.47089,-0.70746 0.29095,-1.61078 0.74133,-2.43335c0.42728,-0.7804 0.26529,-1.7641 0.64684,-2.5c0.41838,-0.80692 1.27386,-1.2395 1.6945,-2.10001c0.41753,-0.85416 0.74615,-1.44501 1.18401,-2.34283c0.34128,-0.6998 0.57904,-1.5174 1,-2.53564c0.28587,-0.69153 0.69972,-1.52029 1.09999,-2.3215c0.39973,-0.80014 0.8,-1.60001 1.2,-2.39999c0.3,-0.60001 0.76657,-1.6199 1.23601,-2.40002c0.49496,-0.82257 1.02486,-1.39294 1.53867,-2c0.66946,-0.79095 1.08699,-1.38962 1.52083,-2.19998c0.42311,-0.79034 0.80301,-1.60074 1.3045,-2.60001c0.3036,-0.60495 0.61955,-1.24557 1.16667,-2.16666c0.47195,-0.79453 0.8427,-1.32748 1.34933,-2.14935c0.61137,-0.99173 0.95741,-1.68042 1.368,-2.28265c0.56451,-0.828 1.15666,-1.39252 1.632,-2.08667c0.65723,-0.95975 0.84799,-1.52933 1.17949,-2.30484l0.50317,-1.03915l0.44417,-0.66168l0.38249,-0.87299" id="svg_13" stroke-width="2" stroke="#000" fill="none"/>
  <path t="46902,47298,47308,47339,47339,47356,47356,47356,47373,47373,47373,47373,47389,47389,47389,47389,47406,47406,47406,47406,47423,47423,47423,47439,47439,47439,47439,47456,47456,47473,47473,47473,47473,47489,47489,47489,47489,47506,47506,47506,47523,47523,47523,47539,47539,47539,47556,47556,47556,47573,47573,47573,47589,47589,47606,47606,47623,47623,47623,47639,47639,47656,47656,47672,47688,47688,47689,47705,47705,47722,47739,47755,47772,47772,47788,47805,47805,47822,47838,47838,47855,47872,47872,47927,47943,47951,47963,47972,47988,48004,48005,48022,48022,48038,48038,48055,48055,48072,48072,48072,48087,48087,48088,48104,48121,48159,48175,48183,48191,48191" d="m330,375c0,1.70001 -0.01871,2.63623 0.00134,3.48666c0.01794,0.76059 0.20493,1.93903 0.43466,2.74933c0.16385,0.57785 0.57092,1.76175 0.76266,2.36533c0.29105,0.91623 0.48566,1.54889 0.63467,2.56534c0.15839,1.08041 0.15387,1.83435 0.21933,2.58069c0.0954,1.0878 0.20859,1.77353 0.46817,2.73181c0.16815,0.62073 0.58661,1.81839 0.77466,2.42084c0.27988,0.89651 0.55045,2.09839 0.62048,2.69867c0.10251,0.87854 0.10184,1.73163 0.36935,2.71735c0.18945,0.69815 0.72241,1.84772 0.91467,2.37067c0.31265,0.85043 0.51205,1.4715 0.89999,2.8345c0.20642,0.72519 0.38885,1.46121 0.60001,2.16898c0.37985,1.27313 0.64871,1.78238 0.94281,2.75803c0.289,0.95871 0.30417,1.78027 0.40985,2.59915c0.13379,1.03644 0.40067,1.71878 0.59467,2.40533c0.27087,0.95853 0.30533,1.78558 0.40533,2.65182c0.13843,1.19907 0.26334,1.80008 0.55798,2.6235c0.34235,0.95679 0.99875,1.70096 1.26785,2.59351c0.20395,0.67648 0.08963,1.67957 0.13217,2.47849c0.04272,0.80237 0.37881,1.78738 0.63666,2.60001c0.31265,0.98544 0.34732,1.76398 0.35266,2.716c0.00589,1.05063 -0.05231,1.72879 0.08533,2.48532c0.18427,1.01285 0.69583,1.70929 0.87866,2.7627c0.1431,0.82443 -0.01178,1.73727 0.03601,2.63599c0.04272,0.80338 0.69351,1.59753 0.91467,2.48401c0.16815,0.67401 0.08533,1.75882 0.08533,2.61615c0,0.78519 0,1.72519 0,2.73318c0,0.75598 -0.05814,1.93533 0.7045,2.16217c0.85834,0.25531 1.7955,0.00449 2.6955,0.00449c0.89999,0 1.80133,0 2.48535,0c0.95065,0 1.71658,0.03058 2.71466,-0.00449c0.80124,-0.02814 1.79251,-0.30099 2.60001,-0.57019c0.99167,-0.3306 1.82428,-0.40143 2.48532,-0.50934c1.00391,-0.16388 1.7879,-0.43771 2.54532,-0.63199c1.08975,-0.27951 1.98209,-0.13333 2.86917,-0.28415c0.8511,-0.14471 0.90018,-1.19986 0.90002,-2.10001l-0.08517,-0.78519" id="svg_14" stroke-width="2" stroke="#000" fill="none"/>
  <path t="48913,49058,49068,49081,49107,49123,49123,49123,49138,49138,49138,49155,49155,49172,49172,49172,49172,49188,49188,49188,49188,49205,49205,49205,49222,49222,49222,49222,49238,49238,49238,49255,49255,49255,49255,49272,49272,49272,49272,49288,49288,49288,49288,49288,49305,49305,49305,49305,49322,49322,49322,49322,49338,49338,49338,49338,49338,49355,49355,49355,49355,49372,49372,49372,49372,49388,49388,49388,49405,49405,49405,49422,49422,49422,49422,49438,49438,49438,49438,49455,49455,49455,49472,49472,49472,49472,49488,49488,49488,49488,49488,49505,49505,49505,49522,49522,49522,49538,49538,49555,49555,49555,49572,49572,49588,49588,49605,49605,49622,49622,49638,49655,49655,49712,49744,49764,49764,49780,49808,49840,49968" d="m346,339c0,1.79999 -0.00592,2.70004 0,3.60001c0.00534,0.81073 0.2157,1.72409 0.52084,2.44165c0.27527,0.64728 0.69836,1.63556 0.95831,2.45834c0.25586,0.80984 0.46765,1.81393 0.51016,2.72534c0.04388,0.94034 -0.00311,1.73718 0.04669,2.62134c0.0361,0.64087 0.17886,1.67584 0.31665,2.40598c0.2121,1.12393 0.38937,1.85968 0.526,2.92584c0.0849,0.66245 0.10022,1.61716 0.28799,2.8215c0.09418,0.60406 0.34851,1.49649 0.48068,2.10001c0.26147,1.19379 0.31744,2.10092 0.37799,2.69998c0.12152,1.20218 0.32114,2.10303 0.49551,2.70001c0.26431,0.90488 0.58685,1.79785 0.87915,2.72134c0.20541,0.64899 0.41339,1.34598 0.70001,2.52133c0.20981,0.86032 0.39914,1.75751 0.5,2.20667c0.1983,0.88303 0.5015,2.10736 0.6955,2.84082c0.27084,1.0239 0.45221,1.68784 0.58316,2.73135c0.09198,0.73309 0.11038,1.50015 0.17401,2.28299c0.09726,1.19696 0.22745,1.99619 0.37265,2.7955c0.14548,0.80069 0.31992,1.59641 0.45334,2.79984c0.08801,0.79376 0.103,1.58081 0.17401,2.34299c0.13409,1.4393 0.29898,2.10025 0.44733,2.73633c0.21454,0.91986 0.4183,2.11929 0.47467,2.71017c0.08136,0.85321 0.22296,1.8974 0.54617,2.83151c0.26135,0.7554 0.58487,1.6203 0.77914,2.289c0.20605,0.70926 0.49414,1.80917 0.79984,2.86865c0.19199,0.66541 0.48755,1.60553 0.61484,2.22018c0.24704,1.19278 0.23611,1.80371 0.33801,2.70132c0.13672,1.20438 0.31302,1.80609 0.522,2.772c0.15076,0.69669 0.31253,1.86984 0.37265,2.72882c0.06143,0.87775 0.04816,1.31512 0.13669,2.14584c0.14972,1.40491 0.44998,2.20236 0.63199,2.93466c0.24658,0.99222 0.24533,1.82358 0.36801,2.63467c0.15231,1.00702 0.55087,1.85651 0.74933,2.68399c0.18903,0.78824 0.13538,1.60062 0.17114,2.60001c0.02869,0.80121 0.30099,1.79251 0.57019,2.60001c0.33047,0.99133 0.41489,1.77899 0.42532,2.77847c0.00748,0.71698 -0.01184,1.67297 0.284,2.50552c0.25092,0.70605 0.67331,1.62787 0.716,2.616c0.03885,0.89914 0,1.69998 0,2.60001l0.03601,0.89999l0.38931,0.79999l0.48935,0.79602" id="svg_15" stroke-width="2" stroke="#000" fill="none"/>
 </g>
 <g display="none">
  <title>muse_image</title>
  <image xlink:href="http://farm1.static.flickr.com/7/10289787_b11091e800.jpg" id="muse" height="480" width="640" y="0" x="0"/>
 </g>
 <g display="none">
  <title>bbox</title>
  <rect stroke="#f00" fill="none" stroke-width="3" height="168.96" width="195.84" y="296.96" x="161.28" id="bbox"/>
 </g>
</svg>
