<svg width="640" height="480" xmlns="http://www.w3.org/2000/svg" xmlns:svg="http://www.w3.org/2000/svg" xmlns:xlink="http://www.w3.org/1999/xlink">
 <!-- Sketchy ANNOTATION
  ImageNet ID: n02503517_3808
  URL: http://farm1.static.flickr.com/171/412297969_0809910e5a.jpg
  Image Width: 500
  Image Height: 333
  BBox X: 166
  BBox Y: 33
  BBox Width: 249
  BBox Height: 270
  Exposure: 2000ms
  Synset Label: elephant
  Synset ID: n02503517
  Worker Tag: elephant mountain
  Sanity Check: 
   Context
   Saved
   Shading
  Comment: 
   {}
  Worker ID: AXD2DZ7U6CK35
  Assignment ID: 3TPZPLC3M0C4HUX5S4086XB1EM63PK
  HIT ID: 3ECKRY5B1QWBYHJ0AE0VCHKJ7B6IZM
  Work Time: 3246s
  Worker Score: 0.9286
 END ANNOTATION -->
 <g display="inline">
  <title>Layer 1</title>
  <path t="0,23,23,23,23,30,30,46,59,75,75,92,93,110,126,166" d="m232,85c-2.85683,8.57066 -3.03278,9.08377 -3.31734,9.96267c-0.32191,0.99426 -0.41434,1.93898 -0.76666,2.83466c-0.2989,0.7599 -0.73776,1.56036 -1.20134,2.404c-0.33525,0.61012 -1.01016,1.45133 -1.3575,2.146l-0.3,0.8955l-0.05849,0.95583l-0.35133,0.73966" id="svg_1" stroke-width="2" stroke="#000" fill="none"/>
  <path t="784,794,811,826,843,860,876,893,893,910,926,926,943,943,960,960,960,976,976,976,993,994,1010,1010,1026,1026,1043,1043,1043,1060,1060,1060,1076,1076,1093,1093,1093,1110,1110,1110,1126,1126,1126,1143,1143,1143,1160,1160,1160,1176,1176,1193,1193,1193,1210,1210,1210,1226,1226,1226,1243,1243,1243,1260,1260,1260,1276,1276,1276,1276,1293,1293,1310,1310,1310,1326,1326,1326,1343,1343,1343,1343,1343,1360,1360,1360,1376,1376,1376,1376,1393,1393,1393,1410,1410,1410,1410,1426,1426,1426,1426,1426,1443,1443,1443,1460,1460,1460,1486,1539" d="m234,83c2.45833,1.97916 2.99391,2.79262 3.7045,2.9955c0.90424,0.25816 1.30818,0.85585 1.81633,1.5045c0.60147,0.76778 1.27921,1.29997 1.87917,1.9c0.70004,0.70013 1.2236,1.21976 1.80135,2.084c0.45352,0.67843 0.94093,1.38098 1.63466,1.89066c0.74088,0.54431 1.57317,1.09776 2.14317,1.62534c0.54576,0.50513 1.26816,1.24733 1.90483,1.884c0.59999,0.6 1.29066,1.29067 1.94933,1.94933c0.54134,0.54133 1.33943,1.32737 1.81934,1.82383c0.52879,0.54703 1.21347,1.32202 1.71133,2.14284c0.3555,0.5861 0.81239,1.61397 1.15683,2.2c0.6032,1.02628 1.12209,1.60462 1.65382,2.164c0.647,0.68064 1.21094,1.22109 1.79468,1.80533c0.79901,0.79967 1.29236,1.28174 1.78,1.816c0.93893,1.02869 1.30878,1.51161 1.70901,2.19383c0.58478,0.99677 0.94119,1.82108 1.24167,2.42084c0.50052,0.99905 0.72562,1.66032 1.46664,2.43333c0.6004,0.6263 1.29071,0.92301 2.03317,1.7095c0.638,0.67581 0.98499,1.22949 1.63351,2.2905c0.29074,0.47569 0.75381,1.3571 1.16666,2.16666c0.40854,0.8011 0.7233,1.425 1.3215,2.20016c0.48776,0.63206 1.10718,1.23756 1.87833,2.22118c0.40872,0.52135 0.79565,1.06816 1.31485,1.89465c0.61972,0.98654 0.96558,1.66261 1.48532,2.68401c0.30515,0.59967 0.7265,1.42253 1.3215,2.20033c0.48999,0.64052 0.93146,1.04147 1.6785,2.133c0.42331,0.61852 0.79553,1.31406 1.164,2.01601c0.35669,0.67953 0.9473,1.88376 1.21066,2.38933c0.3714,0.71298 0.94992,1.68082 1.45068,2.49733c0.35159,0.57327 0.72507,1.14871 1.29065,2.36401c0.27567,0.59236 0.61154,1.51198 1.05066,2.39999c0.30167,0.61005 0.85724,1.51898 1.23785,2.15717c0.60034,1.00662 0.99377,1.72643 1.39548,2.4575c0.39832,0.72493 0.76895,1.43687 1.39984,2.34233c0.3775,0.54179 1.00659,1.18884 1.63351,2.043c0.55927,0.76201 0.88,1.51466 1.14133,2.35333l0.564,0.60001" id="svg_2" stroke-width="2" stroke="#000" fill="none"/>
  <path t="2436,2458,2466,2483,2495,2512,2529,2529,2545,2545,2562,2579,2579,2595,2595,2612,2612,2628,2645,2645,2662,2676,2676,2694,2694,2694,2710,2710,2726,2726,2726,2743,2760,2760,2776,2776,2776,2793,2793,2810,2810,2826,2827,2827,2844,2844,2844,2860,2861,2876,2876,2877,2893,2893,2910,2910,2911,2926,2926,2926,2926,2943,2943,2943,2943,2960,2960,2960,2976,2976,2976,2993,2993,2993,3009,3009,3009,3025,3026,3026,3026,3042,3043,3043,3043,3059,3059,3060,3060,3075,3076,3076,3076,3076,3093,3093,3093,3093,3110,3110,3110,3126,3126,3126,3126,3143,3143,3143,3159,3160,3160,3160,3160,3175,3176,3176,3192,3193,3193,3210,3210,3210,3226,3226,3226,3226,3243,3243,3259,3260,3260,3275,3276,3276,3293,3293,3309,3310,3310,3325,3326,3343,3343,3360,3375,3376,3393,3393,3410,3426,3426,3426,3442,3443,3460,3460,3460,3476,3476,3492,3493,3493,3510,3510,3526,3526,3526,3526,3543,3543,3543,3560,3576,3644,3644,3744,3766,3778,3793,3810,3826,3826,3826,3843,3843,3860,3860,3876,3876,3894,3909,3910,3925,3926,3926,3943,3943,3960,3960,3975,3976,3993,3993,3993,4010,4010,4026,4026,4043,4043,4043,4059,4060,4060,4076,4076,4094,4161,4171,4181" d="m226,103c2.364,1.38934 3.29677,1.78001 3.94733,2.35267c0.58884,0.51832 1.05711,1.34704 1.76701,1.59467c0.84863,0.29602 1.94662,0.29571 2.57132,0.75716c0.77325,0.57121 1.14819,1.40881 1.73517,1.7955c0.94371,0.62172 1.57115,1.09731 2.17917,1.7c0.60265,0.59736 1.3,1.3 1.90001,1.9c0.59999,0.6 1.29999,1.3 1.89999,1.9c0.636,0.636 1.32133,1.32133 1.82533,1.82533c0.522,0.522 1.29066,1.29066 1.92734,1.92734c0.73132,0.73133 1.24733,1.24732 1.76334,1.76333c0.72682,0.72683 1.51665,1.45451 1.98399,2.00484c0.64766,0.76263 1.00372,1.49809 1.3,2.0805c0.50639,0.99544 0.89581,1.80077 1.3,2.5985c0.39592,0.78141 0.93073,1.61277 1.39999,2.34184c0.32166,0.49971 0.70282,1.50943 0.89999,2.13432c0.30437,0.96463 0.68492,2.06793 1,2.63734c0.57295,1.03543 0.88965,1.69626 1.20001,2.43599c0.38718,0.92282 0.84302,1.5598 1.39999,2.41734c0.43472,0.66934 0.72858,1.34241 1.10001,2.47617c0.2168,0.66173 0.39871,1.37834 0.60001,2.10899c0.2981,1.08202 0.59213,2.0891 0.79999,2.7065c0.28912,0.85875 0.70001,1.85767 1,2.54167c0.29999,0.68401 0.72495,1.67697 0.97916,2.52083c0.26291,0.87271 0.4068,1.77824 0.49551,2.6685c0.08499,0.85283 0.22568,1.89627 0.46133,2.59601c0.24658,0.73224 0.66971,1.85582 0.86398,2.52449c0.20609,0.70926 0.39017,1.44479 0.70001,2.5235c0.29074,1.01221 0.49731,1.64673 0.79999,2.56534c0.29739,0.90254 0.60635,1.82076 0.80002,2.47333c0.20676,0.69669 0.50339,1.86989 0.69998,2.73334c0.20352,0.89388 0.29236,1.34578 0.5,2.22667c0.28937,1.22757 0.49048,1.95659 0.80002,2.94667c0.19403,0.62056 0.60864,1.81825 0.78934,2.42133c0.26837,0.89568 0.46182,1.79793 0.55798,2.7c0.09576,0.89828 0.08304,1.51028 0.33932,2.70134c0.13254,0.61589 0.45706,1.56322 0.88,2.56534c0.30453,0.72154 0.65555,1.44952 1.008,2.172c0.33832,0.69348 0.81213,1.61446 1.18936,2.39999c0.33899,0.70595 0.73886,1.68161 1.03598,2.48666c0.30295,0.82092 0.70316,1.85217 1,2.56001c0.30325,0.72314 0.7027,1.85635 0.89999,2.51549c0.20279,0.67752 0.42972,1.67691 0.90002,2.64584c0.34952,0.72009 0.91113,1.59161 1.19998,2.31467c0.20807,0.52086 0.57089,1.58521 1,2.49199c0.28122,0.59427 0.89178,1.50569 1.35718,1.99934c0.70795,0.75093 1.27109,1.24423 1.75882,1.84866c0.77338,0.9584 1.03448,1.58871 1.68268,2.51334c0.41971,0.59872 0.77881,1.56789 1.37067,2.08533c0.6991,0.61121 1.56158,0.98169 2.12616,1.5c0.73718,0.67679 1.46002,1.31924 2.1405,1.7c0.7536,0.42166 1.564,0.8 2.36401,1.20001c0.79999,0.39999 1.59998,0.79999 2.39999,1.2c0.79999,0.39999 1.59787,0.80429 2.39999,1.2c0.79788,0.39362 1.59262,0.74867 2.60901,0.95183c0.65894,0.13171 1.72894,0.36935 2.35898,0.61617c0.68799,0.26952 1.35455,0.65559 2.69867,1.09868c0.80103,0.26407 1.47586,0.32266 2.57617,0.33333c0.85715,0.00832 1.75717,0 2.55716,0c0.90002,0 1.80002,0 2.70001,0c0.89999,0 1.80899,0 2.83334,0c0.672,0 1.41599,0 2.52383,0c0.89099,0 1.79999,0 2.54733,0c0.99417,0 1.75949,0 2.84283,0c0.91931,0 1.58865,0 2.75266,0c0.79999,0 1.60001,0 2.60001,0c0.79999,0 1.79999,0 2.60001,0c1,0 1.79999,0 2.79999,0c0.79999,0 1.60001,0 2.60001,0c0.79999,0 1.80133,0 2.42084,0c1.14581,0 1.93182,0 2.75381,0c1.05869,0 1.76819,0 2.62085,0c1.00317,0 1.76849,0 2.84732,0l0.85684,0l0.27899,0l-0.87866,0" id="svg_3" stroke-width="2" stroke="#000" fill="none"/>
  <path t="5046,5123,5123,5133,5155,5167,5180,5196,5214,5229,5230,5246,5264,5279,5280,5280,5297,5297,5297,5314,5314,5314,5330,5330,5330,5346,5364,5364,5364,5380,5380,5380,5396,5397,5414,5414,5429,5429,5444,5444,5461,5477,5477,5498,5498,5511,5528,5545,5637,5647,5663,5676,5676,5693,5693,5710,5726,5726,5766,5766,5782,5798,5810,5826,5843,5860,5860,5876,5876,5893,5910,5910,5910,5926,5926,5926,5943,5943,5943,5960,5960,5976,5976,5976,5993,6010,6010,6026,6026,6026,6043,6043,6060,6060,6060,6076,6076,6076,6093,6093,6093,6110,6110,6126,6126,6126,6143,6143,6143,6160,6160,6160,6176,6714" d="m295,218c-1,1 -0.80405,1.83444 -1.05716,2.7c-0.25665,0.87764 -0.7475,1.61984 -0.94418,2.49867c-0.1684,0.7524 -0.87939,1.38876 -1.56665,1.71733c-0.7941,0.37965 -1.52298,0.78603 -2.19366,1.19383c-0.73306,0.44574 -1.45084,1.10963 -1.83966,1.49283c-0.8038,0.79218 -1.38437,1.42336 -2.08401,1.912c-0.95514,0.6671 -1.53842,0.85327 -2.362,1.18083c-1.02905,0.40929 -1.68933,0.73589 -2.466,1.01917c-0.98926,0.36081 -1.82324,0.61287 -2.49649,0.99068c-0.7793,0.43732 -1.81122,1.00497 -2.53302,1.18483c-0.84146,0.20966 -1.85498,0.39612 -2.62115,0.68449c-0.81375,0.30627 -1.58865,0.42308 -2.49316,0.42534c-0.94415,0.00235 -1.93832,0 -2.68567,0c-0.90451,0 -1.82382,0 -2.65717,0c-0.97849,0 -1.79868,0 -2.70001,0c-0.89999,0 -1.92484,-0.30754 -2.72531,0.01067c-0.69974,0.27817 -0.51224,1.42006 -0.79602,2.31067c-0.22275,0.69902 -0.54596,1.69341 -0.86267,2.47733c-0.31219,0.77272 -0.79364,1.6925 -0.94131,2.37601c-0.20587,0.95296 -1.25903,1.67957 -0.888,2.53999c0.34561,0.80148 1.19568,1.24263 2.11334,1.28534c0.89902,0.04184 1.79999,0 2.55716,0c0.89551,0 1.75882,0 2.62817,0c0.948,0 1.88666,0 2.43597,0c1.17868,0 2.07632,0.03252 2.94269,-0.036c1.07394,-0.08493 1.77469,-0.32918 2.42532,-0.53867c1.00464,-0.32346 1.82614,-0.35013 2.81067,-0.59201c0.80664,-0.19818 1.49036,-0.66843 2.5,-0.8125c0.97568,-0.13922 1.73035,0.0278 2.70001,-0.24232c0.82281,-0.22922 1.40027,-0.5793 2.39999,-1.07851c0.60016,-0.29968 1.59436,-0.81212 2.42084,-1.2c0.66,-0.30975 1.66275,-0.70107 2.2045,-0.89999c0.82141,-0.30162 1.8584,-0.68826 2.53867,-1c0.8414,-0.38559 1.836,-0.89999 2.436,-1.20001c1.00018,-0.50014 1.61722,-0.79868 2.25714,-1.15717c0.97452,-0.54594 1.75714,-1.077 2.3175,-1.3815c1.03949,-0.56487 1.75919,-0.7515 2.65335,-0.944l0.65466,-0.63333l0.75067,-0.45067" id="svg_4" stroke-width="2" stroke="#000" fill="none"/>
  <path t="7254,7264,7264,7264,7264,7264,7264,7264,7278,7278,7278,7294,7310,7310,7310,7326,7327,7343,7344,7344,7359,7360,7376,7377,7394,7394,7410,7426,7427,7427,7444,7444,7460,7460,7460,7477,7477,7494,7494,7510,7510,7510,7527,7527,7527,7527,7544,7544,7560,7560,7560,7576,7577,7577,7592,7592,7610,7670,7678,7695" d="m303,238c7.92032,3.73534 8.67365,3.95267 9.42566,4.12399c0.73352,0.16711 1.44836,0.29866 2.133,0.408c0.64481,0.10298 2.27313,0.31821 3.04401,0.38133c0.75034,0.06145 1.63962,-0.40045 2.564,-0.74666c0.64066,-0.23994 1.45667,-0.18021 2.43335,-0.52383c0.82269,-0.28946 1.60001,-0.74284 2.39999,-1.14284c0.60001,-0.3 1.6124,-0.76993 2.34283,-1.2c0.79282,-0.4668 1.52707,-1.06778 2.30984,-1.24733c0.85193,-0.1954 1.70001,-0.52087 2.51398,-1.05267c0.65277,-0.4265 1.43454,-0.80026 2.23334,-1.2c0.7999,-0.40027 1.8049,-0.89024 2.38934,-1.2c0.7319,-0.38789 1.59286,-1.00272 2.09467,-1.48534c0.78513,-0.75508 1.29898,-1.32402 2.116,-1.948c0.58139,-0.44402 1.44394,-0.93123 2.20001,-1.70934c0.42621,-0.43864 0.97751,-1.22621 1.39999,-1.68933c0.7612,-0.83444 1.59781,-1.35088 2.39999,-1.76801c0.79782,-0.41486 1.43015,-0.71671 2.19983,-1.3215c0.61523,-0.48343 1.18567,-1.05124 1.91483,-2.07584c0.38791,-0.54507 0.98517,-1.35983 1.76367,-1.82399l-0.2355,-0.72151l-0.84415,-0.05583" id="svg_5" stroke-width="2" stroke="#000" fill="none"/>
  <path t="8240,8266,8266,8266,8266,8266,8271,8271,8295,8311,8311,8328,8328,8343,8362,8378,8378,8393,8393,8409,8430,8430,8443,8459,8459,8476,8476,8493,8493,8509,8509,8526,8526,8543,8543,8559,8559,8576,8576,8593,8593,8609,8626,8626,8643,8643,8643,8659,8659,8659,8676,8676,8693,8693,8693,8709,8709,8709,8726,8726,8726,8743,8743,8759,8759,8776,8776,8793,8793,8809,8809,8826,8826,8844,8844,8844,8859,8859,8859,8876,8876,8894,8894,8894,8911,8946,8946,8978,8982" d="m303,235c0.44284,7.9135 0.53009,8.46736 0.86133,9.424c0.2901,0.83784 0.5751,1.56744 1.25333,2.51868c0.52213,0.7323 1.40659,1.02342 2.36935,1.05865c0.69104,0.02528 1.57996,0.37595 2.31467,0.71468c0.85699,0.39511 1.85904,0.25539 2.68533,0.56934c0.71365,0.27115 1.43469,0.90414 2.21149,1.3575c0.7767,0.45331 1.78128,0.65897 2.47916,0.93182c0.93097,0.364 1.82535,0.42723 2.58252,0.42534c0.89999,-0.00226 1.66544,0.01115 2.64151,-0.284c0.7836,-0.23695 1.7308,-0.57915 2.48532,-0.8c0.97412,-0.28514 1.51263,-0.63669 2.51599,-1.11467c0.79401,-0.37823 1.60208,-0.62288 2.57916,-0.80133c0.85614,-0.15637 1.5939,-0.62805 2.22086,-1.19867c0.58524,-0.53264 1.57077,-0.81622 2.46164,-1.15849c0.59518,-0.22867 1.50284,-0.64861 2.29102,-0.94284c0.81976,-0.30602 1.88052,-0.70035 2.59018,-0.9955c0.64636,-0.26881 1.65808,-0.57732 2.45715,-0.7045c1.00119,-0.15935 1.82254,-0.42342 2.45715,-0.76167c0.9837,-0.52431 1.49991,-0.87776 2.28152,-1.41299c0.93893,-0.64296 1.57953,-1.21622 2.14398,-1.62399c0.74481,-0.53809 1.48865,-0.86681 2.36469,-1.50134c0.65561,-0.47488 1.41882,-0.97746 2.09998,-1.39999c0.91919,-0.57019 1.51669,-1.13237 2.30984,-1.60001c0.73019,-0.43051 1.57697,-0.74205 2.32199,-1.22083c0.90088,-0.57893 1.29163,-1.1201 1.71634,-1.88367c0.43384,-0.77998 0.79681,-1.61378 1.18985,-2.19551c0.55939,-0.82794 1.32663,-1.57068 1.948,-2.39999c0.43182,-0.57634 0.81461,-1.3396 1.11398,-2.24283c0.28314,-0.8542 0.76868,-1.55717 0.991,-2.40001l-0.73965,-0.35583" id="svg_6" stroke-width="2" stroke="#000" fill="none"/>
  <path t="9540,9550,9564,9564,9578,9579,9595,9611,9611,9611,9627,9628,9643,9643,9643,9659,9659,9659,9676,9676,9710" d="m312,225c-2.36401,2.364 -3,3 -3.60001,3.60001c-0.60001,0.59999 -1.20001,1.19998 -1.92084,1.92082c-0.64581,0.64583 -1.09076,1.17485 -1.82648,1.76933c-0.73236,0.59175 -1.6442,0.83656 -2.42068,1.2805c-0.75565,0.43202 -1.28574,0.7784 -2.08917,1.62917c-0.52261,0.55338 -1.02548,1.31483 -1.7955,2.043l-0.52197,0.34651l-0.93735,0.60933" id="svg_7" stroke-width="2" stroke="#000" fill="none"/>
  <path t="10647,10657,10657,10657,10657,10657,10657,10657,10657,10657,10657,10678,10678,10693,10709,10726,10726,10743,10743,10759,10776,10776,10793,10793,10809,10830,10830,11154" d="m337,218c9.5,-0.83333 10.33444,-0.88339 11.13733,-0.91467c1.50101,-0.05849 2.19598,-0.06628 2.85068,-0.07466c0.61264,-0.00784 2.17865,-0.01067 2.98398,-0.01067c0.90302,0 1.86154,-0.01715 2.72351,0c0.90506,0.01801 1.63861,0.55432 2.50583,0.916c0.65009,0.27112 1.64713,0.47934 2.31467,0.88533c0.88168,0.53621 1.57773,1.13203 2.36935,1.19734c0.93689,0.0773 1.63065,0.08665 2.61465,0.50133l0.82132,0.37849l0.85333,0.11084l0.93869,0.01067" id="svg_8" stroke-width="2" stroke="#000" fill="none"/>
  <path t="12443,12443,12443,12443,12443,12467,12467,12495,12495,12511,12511,12528,12528,12543,12543,12559,12576,12593,12593,12609,12609,12626,12626,12643,12659,12659,12676,12702,12718,12817" d="m387,200c-3.07816,8.57066 -3.29703,9.09285 -3.74268,9.96266c-0.36258,0.70767 -0.82593,1.75288 -1.25732,2.49567c-0.47012,0.80945 -1.26636,1.09383 -1.97849,1.86301c-0.57294,0.61885 -0.98688,1.54037 -1.52151,2.15784c-0.56509,0.65262 -1.21445,1.13135 -2.10001,1.54616c-0.81433,0.38145 -1.36349,1.0159 -2.03598,1.57468c-0.6525,0.54216 -1.40701,0.83495 -2.3425,1.5c-0.64337,0.45738 -1.11914,1.25529 -2.02151,1.73332c-0.64822,0.3434 -1.5,0.66667 -2.29999,1.10951l-0.90002,0.05849l-0.89966,0.22" id="svg_9" stroke-width="2" stroke="#000" fill="none"/>
  <path t="13370,13380,13402,13402,13409,13426,13426,13443,13459,13459,13476,13476,13493,13493,13509,13509,13509,13526,13543,13543,13559,13559,13576,13576,13593,13609,13609,13626,13643,13643,13659,13659,13676,13676,13693,13693,13709,13726,13726,13743,13743,13759,13759,13759,13776,13776,13793,13793,13810,13811,13811,13811,13827,13828,13828,13845,13845,13845,13861,13861,13861,13861,13878,13878,13894,13894,13895,13911,13911,13927,13928,13945,13945,13945,13961,13961,13976,13994,13994,14010,14025,14042,14060,14076" d="m358,237c5.07132,-0.94733 6.03189,-1.12654 6.60001,-1.61067c0.74533,-0.63516 1.38937,-1.28679 2.19998,-1.388c0.83038,-0.10368 1.70444,-0.24648 2.37466,-0.612c0.9744,-0.53142 1.54742,-1.14928 2.487,-1.33217c0.78699,-0.1532 1.75952,-0.05716 2.55301,-0.05716c0.77551,0 1.97101,0 2.78534,0c0.81433,0 1.76801,0 2.5,0c1.16666,0 1.9682,-0.12396 2.79999,0.0045c0.9314,0.14384 1.49127,0.73619 2.336,1.02083c0.84137,0.28351 1.55099,0.64127 2.56384,0.85316c0.94995,0.19875 1.91617,0.12151 2.68417,0.12151c0.94135,0 1.63199,0 2.616,0c0.98532,0 1.71066,0 2.70001,0c0.79999,0 1.79999,0 2.59998,0c0.80002,0 1.8067,0.05859 2.60001,-0.05716c1.01627,-0.14828 1.82962,-0.56915 2.76666,-0.94284c0.78537,-0.3132 1.35327,-0.5027 2.23468,-0.8c0.89758,-0.30275 1.79269,-0.58694 2.64151,-0.89999c1.04184,-0.38425 1.74158,-0.69217 2.40982,-1.05717c0.9838,-0.53735 1.49915,-0.89682 2.32199,-1.4175c0.5408,-0.34221 1.53464,-0.95 2.2045,-1.3045c1.01294,-0.53606 1.66809,-0.74922 2.36368,-1.278c0.84399,-0.6416 1.22003,-1.43492 1.75717,-2.22166c0.47705,-0.69873 1.0062,-1.56123 1.29999,-2.27184c0.30649,-0.74133 0.64365,-1.64883 1.20001,-2.32799c0.54678,-0.66743 1.29785,-1.40947 1.39551,-2.12134c0.12244,-0.89256 0.42981,-1.7 0.91916,-2.5l0.08517,-0.89984l-0.28384,-0.81616" id="svg_10" stroke-width="2" stroke="#000" fill="none"/>
  <path t="15339,15349,15349,15349,15374,15374,15382,15402,15411,15426,15426,15450,15461,15476,15492,15509,15526,15526,15685,15710,15726,15742,15770,15770,15802,15822,15846,15869,15890,15906,15906,15950,15982,16114,16114" d="m382,158c8.34933,-0.22133 9.20569,-0.3145 10.08932,-0.57466c0.90137,-0.2654 1.84012,-0.03113 2.62534,-0.51067c0.80331,-0.49059 1.38535,-0.91467 2.28534,-0.91467c0.79999,0 1.70007,0.01067 2.60001,0c0.87933,-0.01042 1.39819,-0.74821 2.26132,-0.964c0.94363,-0.23592 1.56744,-0.7653 2.13867,-0.57466c0.84976,0.28358 0.08212,1.74243 -0.00015,2.63867c-0.08368,0.91144 -0.65543,1.6978 -1.49985,1.87917c-0.88016,0.18904 -1.79999,0.02083 -2.70001,0.02083c-0.89999,0 -1.79999,0 -2.59998,0c-0.90002,0 -1.84283,-0.05716 -2.19553,-0.7045l-0.06165,-0.93834" id="svg_11" stroke-width="2" stroke="#000" fill="none"/>
  <path t="17479,17489,17489,17489,17489,17489,17489,17489,17489,17489,17503,17503,17503,17503,17503,17503,17503,17503,17503,17526,17569,17570,17586" d="m295,160c1.5,2.66667 1.76849,3.54039 2.052,4.54666c0.31094,1.10364 0.62521,2.27966 0.948,3.49501c0.32526,1.22466 0.63895,2.4308 0.948,3.58499c0.54663,2.04146 0.7832,2.8734 0.99466,3.57733c0.17789,0.59222 0.33578,1.08234 0.474,1.48351c0.11301,0.32799 0.22006,0.58969 0.29401,0.8085c0.2937,0.86919 0.51068,1.825 0.78934,2.46233l0.48932,0.40967" id="svg_12" stroke-width="2" stroke="#000" fill="none"/>
  <path t="18196,18206,18221,18221,18243,18260,18260,18278,18278,18293,18293,18293,18310,18310,18327,18327,18343,18343,18360,18360,18360,18377,18377,18393,18393,18410,18410,18427,18427,18427,18443,18443,18443,18460,18460,18460,18460,18477,18477,18477,18493,18493,18493,18493,18510,18510,18510,18510,18527,18527,18527,18527,18543,18543,18543,18543,18560,18560,18560,18577,18577,18593,18614,18614,18627,18627" d="m298,161c2.36401,3.86667 3.1474,4.36856 3.79999,4.716c0.78683,0.4189 1.67386,0.59842 2.41068,0.85866c0.97601,0.34473 1.81003,0.41492 2.95599,0.42534c0.78149,0.0071 1.57202,0 2.5,0c0.8125,0 1.81866,0 2.54401,0c0.98935,0 1.78934,0 2.78934,0c0.79999,0 1.60001,0 2.60001,0c0.79999,0 1.79999,0.00006 2.60001,0c1,-0.00009 1.81668,0.06647 2.79999,-0.16667c0.83121,-0.19707 1.45224,-0.54999 2.42151,-0.9335c0.81052,-0.32071 1.40781,-0.49586 2.57849,-1.0665c0.60907,-0.29688 1.4783,-0.8347 2.04285,-1.18066c1.0343,-0.63385 1.73605,-1.01984 2.40982,-1.40533c0.9751,-0.55789 1.49805,-0.91066 2.358,-1.422c0.58636,-0.34866 1.48386,-0.81725 2.39999,-1.2c0.62164,-0.25972 1.28201,-0.49234 2.31052,-0.94684c0.73242,-0.32365 1.46835,-0.68069 2.16898,-1.08299c0.99188,-0.56953 1.81042,-1.1787 2.48853,-1.7955c0.42831,-0.38962 1.20975,-1.21086 1.82132,-1.77917c0.58911,-0.54745 1.3667,-1.19518 2.164,-1.57416c0.91937,-0.43701 1.836,-0.78 2.23599,-1.29733l0.60001,-0.81601l0.71466,-0.416" id="svg_13" stroke-width="2" stroke="#000" fill="none"/>
  <path t="19077,19087,19087,19087,19087,19087,19087,19087,19087,19087,19102,19102,19102,19102,19130" d="m329,164c2.5,5.16667 2.86472,5.94836 3.24933,6.784c0.40073,0.87067 0.8067,1.76071 1.20901,2.6535c0.39499,0.87656 0.7731,1.72067 1.11899,2.51849c0.59589,1.37451 0.81534,1.92883 0.99734,2.38934l0.34198,0.92549l0.51935,0.69318" id="svg_14" stroke-width="2" stroke="#000" fill="none"/>
  <path t="19671,19786,19815,19823,19844,19844,19861,19861,19879,19879,19894,19911,19911,19911,19926,19926,19926,19942,19959,19959,19959,19976,19976,19976,19991,19992,20008,20008,20025,20025,20025,20041,20041,20041,20059,20059,20059,20059,20076,20076,20076,20091,20092,20092,20092,20108,20108,20109,20109,20125,20125,20125,20141,20141,20141,20158,20159,20159,20176,20176,20176,20191,20191,20191,20208,20209,20209,20226,20226,20226,20241,20241,20242,20242,20258,20258,20258,20275,20276,20276,20276,20291,20291,20292,20308,20308,20325,20341,20341,20342,20358,20358,20375,20376,20392,20392,20408,21086,21086,21096,21118,21142,21150,21159,21176,21192,21192,21209,21226,21226,21244,21244,21262,21279,21292" d="m354,150c-0.05716,-1.7 -0.68628,-2.42235 -0.94284,-3.3c-0.25378,-0.86813 -0.07681,-1.67094 -0.05267,-2.70534c0.0174,-0.74445 0.20245,-1.85855 0.49551,-2.45299c0.4223,-0.8566 0.45004,-1.868 0.54166,-2.58334c0.08356,-0.65244 0.51651,-1.64641 0.95834,-2.4375c0.42267,-0.75679 0.74051,-1.81082 1.33334,-2.52083c0.43295,-0.51851 1.25848,-0.91997 1.78131,-1.76801c0.42914,-0.69608 0.55945,-1.54134 1.18985,-2.41766c0.49258,-0.68474 1.39166,-1.05826 2.04282,-1.5715c0.83234,-0.65604 1.13721,-1.29364 1.62201,-1.84416c0.7471,-0.84837 1.29364,-1.1965 2.08249,-1.79867c0.78317,-0.59785 1.49881,-1.19173 2.13751,-1.8c0.41446,-0.3947 1.2016,-1.21092 1.83151,-1.8c0.6539,-0.61152 1.38876,-1.21695 2.22583,-1.8c0.59174,-0.41215 1.23196,-0.81403 2.27451,-1.39983c0.72159,-0.40545 1.45667,-0.78193 2.16898,-1.143c0.9747,-0.49406 1.81186,-0.87593 2.48853,-1.2825c0.84317,-0.50661 1.41428,-1.03553 2.02133,-1.54933c0.79095,-0.66948 1.3848,-1.10735 2.25714,-1.52084c0.94482,-0.44785 1.76941,-0.70119 2.3175,-0.9045c1.0611,-0.3936 1.79773,-0.65277 2.62085,-1.15717c0.83792,-0.51347 1.38998,-1.10098 2.06165,-1.59017c0.93158,-0.67851 1.50357,-0.88297 2.3175,-1.278c1.06973,-0.51917 1.54135,-0.85867 2.22534,-1.37466c0.68399,-0.516 1.67816,-1.13478 2.24667,-1.364c0.90259,-0.3639 1.91943,-0.63803 2.63599,-0.836c0.73141,-0.20207 1.46588,-0.36851 2.784,-0.8c0.56592,-0.18526 1.45935,-0.61246 2.31183,-0.87867c0.80707,-0.25203 1.52649,-0.73807 2.56436,-1c0.70282,-0.17738 1.52374,-0.10069 2.53549,-0.34267c0.89777,-0.21472 1.74417,-0.68401 2.547,-0.768c0.8541,-0.08935 1.7652,0.04018 2.61749,-0.36333c0.81061,-0.38377 1.55716,-0.64666 2.45718,-0.64733c0.89999,-0.00066 1.79999,-0.00226 2.69998,0c0.89551,0.00225 1.54449,0.64893 2.30984,0.94733c0.76303,0.29749 1.65982,0.48247 2.39032,1.15266c0.54004,0.49545 1.38251,1.1 2.03851,1.5l0.69199,0.59867l0.52652,0.74416l0.84283,0.05717" id="svg_15" stroke-width="2" stroke="#000" fill="none"/>
  <path t="22006,22027,22027,22035,22044,22059,22076,22076,22094,22094,22110,22110,22110,22125,22142,22142,22142,22143,22158,22159,22159,22176,22176,22176,22191,22191,22191,22191,22209,22209,22209,22209,22226,22226,22226,22242,22242,22242,22242,22259,22259,22259,22276,22276,22276,22276,22276,22291,22291,22291,22291,22308,22308,22308,22309,22326,22326,22326,22326,22342,22342,22342,22342,22359,22359,22359,22376,22376,22376,22376,22391,22392,22392,22409,22409,22409,22426,22426,22426,22426,22441,22442,22442,22442,22459,22460,22460,22460,22476,22476,22476,22477,22491,22492,22492,22492,22508,22509,22509,22509,22525,22526,22526,22542,22542,22542,22558,22559,22559,22559,22575,22576,22576,22576,22576,22591,22592,22592,22592,22608,22609,22609,22626,22626,22626,22626,22641,22642,22642,22642,22642,22658,22659,22659,22659,22676,22676,22676,22676" d="m434,124c1.82535,-0.42533 2.65512,-0.4212 3.55334,-1.02533c0.66187,-0.44514 1.20898,-0.94318 2.10382,-0.97917c0.7486,-0.03011 1.75412,-0.25433 2.54285,-0.60616c0.81253,-0.36244 1.56689,-0.83417 2.31467,-1.104c1.00259,-0.36179 1.98605,-0.44865 2.84781,-0.638c0.65894,-0.14478 1.3291,-0.34058 2.59467,-0.52583c0.77789,-0.11387 1.49103,-0.11925 2.72818,-0.1215c0.55066,-0.001 1.41916,0 2.61484,0c0.60434,0 1.53583,0 2.18515,0c1.39868,0 2.14001,0 2.88934,0c0.74133,0 1.80383,0 2.78934,0c0.62534,0 1.836,0 2.73599,0c0.60001,0 1.50003,-0.0084 2.70267,0.00134c0.61874,0.00501 1.61432,0.03142 2.73068,0.16533c0.83704,0.10041 1.71802,0.26577 2.16666,0.35417c0.89609,0.17656 2.16782,0.47475 2.92932,0.67783c0.69977,0.18661 1.65469,0.48122 2.57068,0.63467c0.89914,0.15063 1.52298,0.14495 2.48532,0.25066c1.03885,0.11411 1.76947,0.26369 2.51468,0.43684c0.7496,0.17416 2.18207,0.56765 2.83835,0.78366c0.62375,0.2053 1.5144,0.51939 2.47766,1.18084c0.71609,0.49174 1.12006,0.9398 2.10532,1.71466c0.52277,0.41114 1.0885,0.78685 1.89468,1.4c0.77231,0.58739 1.43085,1.22524 2.13666,1.74284c0.93439,0.68521 1.50806,0.88747 2.32199,1.2825c1.06973,0.51918 1.56247,0.83627 2.22534,1.41634c0.70749,0.61911 1.42419,1.377 1.95267,1.9155c0.55032,0.56075 1.11359,1.13109 1.88068,2.04283c0.49509,0.58844 0.9252,1.20235 1.392,1.76401c0.91058,1.0956 1.45026,1.56094 2,2c0.80994,0.64687 1.62531,1.21626 2.3175,1.8405c0.44785,0.40387 1.07214,1.06779 1.65717,1.81683c0.61749,0.7906 0.9895,1.36125 1.39996,1.89465c0.7804,1.01411 1.39655,1.66658 1.80005,2.0795c0.79297,0.81142 1.43079,1.38184 1.94281,2.06168c0.69507,0.92284 0.90228,1.50764 1.31848,2.3895c0.30316,0.64233 0.87384,1.67949 1.34399,2.40601c0.48694,0.75241 0.76099,1.11122 1.22668,1.86333c0.64899,1.04803 0.97699,1.7175 1.34668,2.67334c0.23352,0.60379 0.61316,1.81409 0.83197,2.41066c0.33209,0.90541 0.74695,1.80495 1.242,2.7045c0.34113,0.61981 0.73279,1.2352 1.18066,2.26218c0.30798,0.7063 0.53705,1.45677 0.75604,2.20799c0.21558,0.73953 0.61176,2.14233 0.81067,2.81067c0.20105,0.67566 0.39996,1.384 0.69983,2.55701l0.19562,0.85399l0.18372,0.862l0.16364,0.82201" id="svg_16" stroke-width="2" stroke="#000" fill="none"/>
  <path t="24095,24105,24123,24143,24159,24159,24159,24174,24174,24174,24191,24191,24191,24209,24209,24209,24224,24225,24225,24225,24241,24242,24242,24307,24307,24323,24330,24342,24359,24359,24375,24392,24392,24392,24409,24409,24409,24409,24426,24426,24426,24442,24442,24442,24442,24459,24459,24459,24475,24476,24492,24492,24510,24510,24525,24542,24559,24559,24575,24576,24576,24576,24592,24592,24592,24592,24609,24609,24609,24625,24625,24642,24642,24659,24675,24692,24709,24709,24725,24742,24759,24759,24759,24775,24775,24775,24792,24792,24810,24810,24810,24825,24825,24825,24842,24842,24842,24842,24860,24860,24860,24860,24875,24875,24875,24875,24892,24893,24893,24893,24909,24909,24909,24925,24925,24925,24925,24942,24942,24943,24959,24959,24960,24960,24975,24975,24975,24992,24992,24992,24992,25009,25009,25009,25025,25026,25026,25026,25042,25042,25042,25043,25059,25059,25059,25060,25060,25075,25076,25076,25092,25093,25093,25109,25110,25110,25127,25128,25128,25128,25142,25142,25142,25142,25142,25159,25159,25159,25159,25175,25175,25175,25175,25192,25192,25192,25209,25209,25209,25209,25225,25225,25225,25242,25242,25259,25259,25259,25274,25275,25275,25275,25291,25292,25292,25309,25309,25325,25325,25325,25343,25344,25359,25359,25359,25376,25376,25377,25393,25394,25409,25409,25409,25409,25425,25425,25425,25443,25444,25444,25444,25459,25459,25459,25476,25477,25477,25493,25493,25494,25509,25509,25509,25526,25527,25544,25544,25544,25562,25562,25576,25577,25594,25611,25658,25663" d="m403,235c0,1.8 0,2.7 0,3.54167c0,1.00133 0,1.73033 0,2.56732c0,0.89101 0,1.7865 0,2.65501c0,1.06932 0.04517,1.78758 -0.05716,2.68866c-0.11087,0.97639 -0.37064,1.7859 -0.64734,2.65184c-0.28702,0.89825 -0.59549,1.79549 -0.7955,2.39549c-0.29999,0.89999 -0.58813,1.8038 -0.89999,2.67867c-0.28909,0.81099 -1.15598,1.55588 -1.12802,2.364c0.01947,0.56296 1.22803,0.45734 2.164,0.45734c0.84802,0 1.71133,0 2.74936,0c0.948,0 1.629,0 2.43597,0c1.17868,0 1.77869,0 2.67868,0c0.89999,0 1.79999,0 2.70001,0c0.89999,0 1.79999,0 2.69998,0c0.89999,0 1.5,0 2.69867,0c0.88049,0 1.716,0 2.716,0c0.87466,0 1.88516,0 2.66449,0c0.99933,0 1.85562,0.44058 2.66367,-0.05716c0.69397,-0.42746 0.70111,-1.61348 1.00385,-2.18951c0.49164,-0.93546 1.01227,-1.70668 1.35333,-2.27415c0.52573,-0.87474 0.9928,-1.77307 1.24283,-2.37917c0.36777,-0.89153 0.53738,-1.50638 0.9585,-2.69734c0.30615,-0.86583 0.42252,-1.49516 1.28268,-2.43199c0.45383,-0.49429 1.32086,-1.01166 1.99515,-1.44984c0.7905,-0.5137 1.72086,-0.52083 2.62085,-0.52083c0.89999,0 1.73801,-0.20792 2.60001,0.05716c0.91107,0.28015 1.45895,1.1174 1.95715,1.5955c0.73618,0.7065 1.52911,1.34811 2.14282,1.71133c0.78354,0.46373 1.57895,0.88483 2.40002,1.2c0.97879,0.37572 1.82062,0.42448 2.48532,0.43468c1.00122,0.01535 1.85632,0.00133 2.47632,0.00133c1.35968,0 2.091,0 2.83835,0c0.74734,0 2.17868,0 2.84732,0c0.65268,0 1.63669,0.00299 2.67401,-0.00017c0.73132,-0.00223 1.4816,0.0182 2.59467,-0.08516c1.06659,-0.09904 1.7323,-0.25223 2.67334,-0.52534c0.61316,-0.17796 1.81067,-0.58932 2.41068,-0.78932c0.89999,-0.3 1.79706,-0.6091 2.69998,-0.89551c0.59811,-0.18971 1.49493,-0.4519 2.70001,-0.62183c0.59793,-0.08432 1.51968,-0.12445 2.39999,-0.416c0.92612,-0.30672 1.49246,-0.7014 2.39999,-1.18401c0.89279,-0.47478 1.48438,-0.76978 2.39999,-1.036c1.18326,-0.34404 1.80209,-0.33812 2.67917,-0.4675c0.83951,-0.12384 1.84375,-0.53992 2.54169,-1c0.49301,-0.325 1.61655,-0.97173 2.289,-1.2265c0.7056,-0.26735 1.4574,-0.46713 2.5235,-0.91934c0.69354,-0.29419 1.34259,-0.66713 2.31934,-1.23782c1.01532,-0.59323 1.72998,-0.9955 2.09549,-1.19551c0.73099,-0.39999 1.4747,-0.75037 2.70883,-1.59982c0.54395,-0.37439 1.19562,-0.99747 2.043,-1.6335c0.58301,-0.43761 1.23633,-0.74255 2.20001,-1.48817c0.62512,-0.48364 1.20001,-1.08298 1.79999,-1.6785c0.60904,-0.60449 1.2648,-1.24413 1.77066,-1.68533c0.86014,-0.75018 1.53961,-1.27132 2.25018,-1.83549c0.36472,-0.28957 1.11081,-0.86389 2.1575,-1.77901c0.66931,-0.58517 1.28323,-1.17603 1.85999,-1.743c0.79953,-0.78593 1.25937,-1.2905 1.96167,-1.9155c0.44147,-0.3929 1.42084,-1.02151 2.22534,-1.427c0.54895,-0.27669 1.63013,-0.92468 2.08929,-1.38268c0.70001,-0.69817 1.01672,-1.29132 1.88538,-2.08899c0.56183,-0.51591 1.40613,-0.92834 2.20001,-1.34435c0.80646,-0.42258 1.62103,-0.9409 2.19995,-1.46033c0.62378,-0.55965 1.4082,-1.49879 1.79871,-2.02234c0.39911,-0.5351 0.96497,-1.35077 1.57983,-2.3945c0.39917,-0.67763 0.7179,-1.31653 1.2215,-2.32149c0.30054,-0.59973 0.79999,-1.60001 1.09998,-2.20001c0.40002,-0.8 0.84131,-1.58162 1.1792,-2.39999c0.40485,-0.98056 0.49933,-1.81012 0.5163,-2.45717c0.0321,-1.22643 0.00452,-1.76816 0.00452,-2.59016c0,-1.26866 0,-1.95267 0,-3.11934c0,-0.7905 -0.00049,-1.35416 0,-2.23466c0.00067,-1.2 -0.01721,-1.81111 0.05719,-2.75583c0.07971,-1.0123 0.20557,-1.73059 0.46362,-2.82201c0.16901,-0.71465 0.47485,-1.68906 0.77466,-2.511c0.26477,-0.72589 0.55731,-1.67392 0.65186,-2.46249c0.09833,-0.81982 0.19806,-1.88655 0.40533,-2.59467c0.26746,-0.91374 0.55304,-1.87157 0.61133,-2.67799c0.05927,-0.82047 0.03601,-1.85318 0.03601,-2.75385c0,-1.02083 0,-1.82083 0,-2.62083c0,-1 0,-1.79999 0,-2.79866c0,-0.76534 0,-1.716 0,-2.60133l0,-0.916l-0.08533,-0.8" id="svg_17" stroke-width="2" stroke="#000" fill="none"/>
  <path t="27052,27075,27091,27103,27111,27125,27143,27160,27179,27193,27193,27209,27225,27243,27243,27259,27259,27276,27293,27309,27325,27343,27343,27360,27360,27375,27392,27392,27409,27409,27409,27425,27425,27442,27459,27460,27475,27475,27492,27519,27530,27562,27591,27591,27606,27606,27614,27630,27643,27659,27675,27675,27692,27692,27710,27710,27726,27726,27742,27743,27760,27760,27760,27776,27776,27776,27793,27793,27810,27810,27846" d="m447,159c-1.64282,2.04817 -2.09271,2.79623 -2.5,3.5c-0.45715,0.7899 -1.07733,1.44119 -1.52533,2.11067c-0.49213,0.73543 -0.72543,1.54082 -1.14133,2.38933c-0.37372,0.76248 -0.79535,1.51775 -1.186,2.3045c-0.439,0.88412 -0.47031,1.56198 -0.814,2.52882c-0.28775,0.80946 -0.81534,1.56613 -0.83334,2.46667c-0.01801,0.89981 0,1.8 0,2.7c0,0.75717 -0.11673,1.67276 0.08533,2.51601c0.21521,0.8981 0.81146,1.64223 0.89383,2.50482c0.09308,0.97496 -0.03586,1.78835 0.10617,2.57918c0.18219,1.01454 0.6788,1.71271 0.85751,2.64732c0.173,0.90472 0.05716,1.75267 0.05716,2.73117c0,0.82016 0.01041,1.72156 0,2.62151c-0.01044,0.90018 -0.34244,1.71384 -1,2.39999c-0.5871,0.61264 -1.30304,1.12411 -1.71466,1.8c-0.51309,0.84248 -1.01892,1.52954 -1.56934,2.116c-0.54688,0.5827 -0.90182,1.42221 -1.23685,2.084c-0.43417,0.85764 -1.02026,1.4715 -1.57916,2.32133c-0.43286,0.65819 -0.86542,1.5403 -1.39999,2.15784c-0.56531,0.65305 -1.15717,1.17657 -1.82132,2.06349c-0.52094,0.69566 -0.82819,1.22525 -1.51202,2.12401c-0.52252,0.68672 -1.05032,1.21631 -1.81934,1.98599c-0.52176,0.52222 -1.18066,1.18066 -1.82648,1.82651l-0.62051,0.6205" id="svg_18" stroke-width="2" stroke="#000" fill="none"/>
  <path t="29282,29495,29495,29519,29527,29544,29561,29577,29594,29594,29594,29611,29611,29627,29627,29627,29644,29644,29644,29661,29661,29661,29677,29677,29677,29694,29694,29694,29694,29711,29711,29711,29711,29727,29727,29727,29727,29744,29744,29744,29761,29761,29761,29761,29761,29777,29778,29778,29778,29792,29792,29792,29809,29809,29809,29809,29825,29825,29825,29842,29842,29842,29842,29859,29859,29859,29859,29875,29876,29876,29892,29892,29892,29910,29910,29910,29925,29926,29926,29926,29942,29942,29942,29942,29959,29959,29959,29959,29960,29976,29976,29976,29976,29992,29992,29992,29992,29992,30009,30009,30009,30009,30025,30025,30025,30026,30042,30042,30042,30042,30042,30059,30059,30059,30060,30060,30060,30060,30075,30075,30075,30075,30075,30092,30092,30092,30092,30110,30110,30110,30110,30110,30126,30126,30126,30126,30126,30126,30142,30142,30142,30143,30143,30143,30159,30160,30160,30160,30160,30160,30160,30160,30175,30175,30175,30175,30192,30192,30192,30193,30210,30210,30210,30225,30226,30254,30254" d="m430,103c1,1 1.79999,1 2.70001,1c0.89999,0 1.79999,-0.00224 2.69998,0c0.90451,0.00225 1.76593,0.1686 2.436,0.42533c0.76447,0.29288 1.76733,0.54183 2.62115,0.57017c0.96365,0.03198 1.76819,0.00443 2.59018,0.0045c1.03134,0.00008 1.95685,-0.01389 2.63666,0.08533c1.01016,0.14745 1.8306,0.44192 2.71735,0.63067c0.89322,0.19013 1.79834,0.25799 2.39865,0.27333c1.19968,0.03065 2.10498,0.00276 2.72086,0.0315c0.96558,0.04507 2.00162,0.19431 2.73181,0.33183c0.74857,0.14099 1.48807,0.34029 2.92584,0.52583c0.66196,0.08543 1.61078,0.11482 2.22018,0.12016c1.20395,0.01055 1.82416,-0.01318 2.81564,0.0585c1.12143,0.08107 1.9541,0.22423 2.83633,0.36816c0.44955,0.07334 1.34061,0.24682 2.616,0.408c0.76093,0.09617 1.79153,0.15282 2.42435,0.16216c1.20886,0.01785 1.80899,0.0045 2.70898,0.0045c1.20001,0 1.80078,-0.0211 2.70001,0.02084c0.90134,0.04204 1.80197,0.19198 2.70001,0.4045c0.90207,0.21346 1.79788,0.42618 2.7045,0.522c0.61514,0.06502 1.58432,0.11241 2.61667,0.274c0.72986,0.11424 1.45499,0.29383 2.50949,0.49467c0.92404,0.17599 1.71326,0.22026 2.65201,0.368c1.00998,0.15894 1.83426,0.43243 2.42181,0.56333c1.18854,0.26479 2.09644,0.31744 2.6955,0.378c1.20218,0.12151 1.80499,0.24612 2.72086,0.49551c0.63904,0.17401 1.99976,0.5826 2.73633,0.77917c0.76273,0.20355 1.54727,0.40029 2.74283,0.7c0.79861,0.2002 1.59012,0.397 2.36401,0.6c0.7514,0.1971 1.81497,0.49946 2.48782,0.7c0.66916,0.19946 1.7153,0.50855 2.48151,0.7c0.83243,0.20798 1.71536,0.39964 2.616,0.564c0.88086,0.16076 2.1073,0.32095 2.84082,0.38333c0.68854,0.05856 1.36371,0.06418 2.73132,0.27416c0.73938,0.11353 1.50043,0.29459 2.28302,0.483c1.19727,0.28825 1.99878,0.49438 2.81683,0.70617c0.42065,0.10891 1.29584,0.33666 2.71198,0.756c0.51038,0.15114 1.57214,0.48566 2.11737,0.65867c0.54944,0.17433 1.64319,0.52457 2.18134,0.69067c1.52264,0.46994 2.44983,0.72897 2.88531,0.85867c0.82666,0.2462 1.61481,0.46307 2.66132,0.94684c1.01758,0.47041 1.64435,0.89314 2.30536,1.27983c1.03406,0.6049 1.77612,1.00165 2.16266,1.19867c0.79688,0.40617 1.63544,0.81023 2.97485,1.39999c0.46228,0.20354 1.414,0.60123 1.89929,0.8c0.98267,0.40249 1.48053,0.59997 2.97949,1.20016c0.50238,0.20116 1.52124,0.6101 2.04138,0.82066c0.53052,0.21475 1.62976,0.66257 2.79163,1.14584c0.60944,0.25349 1.23199,0.51598 1.86304,0.78149c1.26196,0.53099 1.88062,0.79131 2.48401,1.04201c0.58069,0.24127 2.13043,0.87573 2.99548,1.1955c0.75879,0.2805 1.46033,0.51549 2.49084,0.81433c0.71399,0.20706 1.45197,0.38602 2.5235,0.7c0.98035,0.28726 1.80896,0.5631 2.45245,0.90001c0.86292,0.45178 1.61005,1.04283 2.50555,1.34732l0.78247,0.13667" id="svg_19" stroke-width="2" stroke="#000" fill="none"/>
  <path t="33339,33349,33349,33349,33349,33349,33349,33349,33349,33349,33361,33361,33361,33361,33361,33361,33361,33374,33391,33392,33408,33408,33424,33424,33441,33441,33457,33457,33457,33474,33474,33491,33491,33507,33524,33525,33541,33542,33558,33574,33591,33607,33625,33642,33658,33674,33691,33708,33708,33724,33724,33741,33757,33775,33791,33807,33807,33807,33807,33824,33825,33825,33825,33841,33841,33841,33841,33842,33858,33858,33858,33858,33858,33875,33875,33875,33875,33892,33892,33892" d="m376,234c-1.5,2.33333 -1.76846,3.09755 -2.052,3.97867c-0.31088,0.96611 -0.62537,1.99692 -0.948,3.063c-0.32541,1.07524 -0.63965,2.13605 -0.948,3.153c-0.54779,1.80661 -0.78409,2.54823 -0.99466,3.17999c-0.17859,0.53577 -0.33606,0.98363 -0.474,1.35451c-0.20871,0.56116 -0.55475,1.51683 -0.58334,2.4375c-0.02588,0.83293 0,1.812 0,2.586c0,0.9045 0,1.65182 0,2.64867c0,0.83466 0,1.76532 0,2.54684c0,0.7905 -0.0022,1.909 0,2.79999c0.00226,0.90451 0.0434,1.78564 0.42532,2.6265c0.36844,0.81116 0.51373,1.62701 0.57483,2.60382c0.05148,0.823 0.57217,1.41974 1.38919,1.99619c0.65817,0.46439 1.3009,0.68158 2.08981,1.04617c0.77103,0.35632 1.22479,1.03278 2.02084,1.47916c0.79944,0.44827 1.55106,0.80887 2.25717,1.14734c0.85037,0.40762 1.75882,0.35199 2.72198,0.35266c0.92084,0.00064 2.03513,0.21674 2.49551,-0.45734c0.5058,-0.74054 0.37195,-1.56674 0.672,-2.39999c0.22861,-0.63489 0.67331,-1.66479 1.00601,-2.39984c0.34595,-0.76431 0.72348,-1.53601 1.18066,-2.74283c0.30042,-0.793 0.53671,-1.59833 0.75598,-2.39999c0.10919,-0.39917 0.40692,-1.60095 0.612,-2.39999c0.2056,-0.80099 0.41617,-1.60602 0.68402,-2.40002c0.40802,-1.20944 0.75949,-1.99458 1.11465,-2.75832c0.33987,-0.73085 0.83334,-1.70834 1.23834,-2.52284l0.315,-0.6615" id="svg_20" stroke-width="2" stroke="#000" fill="none"/>
  <path t="35005,35015,35015,35015,35030,35042,35058,35058,35076,35076,35092,35092,35092,35108,35108,35126,35126,35126,35143,35143,35143,35143,35158,35158,35158,35158,35158,35176,35176,35176,35192,35192,35192,35208,35208,35208,35208,35208,35226,35226,35226,35226,35243,35243,35243,35243,35243,35258,35258,35258,35258,35258,35258,35277,35277,35277,35277,35277,35292,35292,35292,35292,35292,35307,35308,35308,35308,35324,35325,35325,35325,35325,35341,35341,35342,35342,35342,35358,35358,35358,35358,35375,35375,35375,35375,35391,35391,35392,35392,35392,35392,35392,35407,35407,35408,35408,35408,35424,35425,35425,35425,35442,35442,35442,35442,35442,35458,35458,35458,35458,35458,35475,35475,35475,35475,35475,35491,35492,35492,35492,35492,35507,35508,35508,35508,35525,35525,35525,35525,35541,35542,35542,35542,35557,35558,35558,35558,35558,35575,35575,35575,35591,35592,35592,35608,35608,35608,35625,35625,35625,35641,35642,35658,35658,35675,35763,35794,35802" d="m408,253c-3.51401,9.0065 -3.90161,9.76514 -3.99466,10.78799c-0.07361,0.80923 0.60629,1.52478 0.90933,2.41467c0.24902,0.73135 0.08533,1.80716 0.08533,2.58267c0,1.048 0,1.75751 0,2.61017c0,1.00583 0,1.84048 0,2.77115c0,0.7905 0.00131,1.64401 0,2.83334c-0.00067,0.60266 -0.0062,1.5426 -0.05716,2.21432c-0.08508,1.12115 -0.22293,1.95297 -0.36816,2.82568c-0.14545,0.87399 -0.3114,1.70377 -0.45334,2.79565c-0.11246,0.86502 -0.13913,1.61465 -0.34268,2.586c-0.17432,0.83179 -0.40567,1.41583 -0.612,2.745c-0.11096,0.71487 -0.13791,1.46957 -0.19199,2.24402c-0.05521,0.79089 -0.18823,1.99063 -0.32733,2.78934c-0.13956,0.80139 -0.32642,1.59549 -0.48068,2.79999c-0.10248,0.80023 -0.13889,1.62112 -0.15598,2.47198c-0.01804,0.89856 -0.01068,1.86136 -0.01068,2.89603c0,0.53732 0,1.63199 0,2.18134c0,1.08264 0,2.11731 0,3.07999c0,0.89868 0,1.74933 0,2.56799c0,0.80267 0,1.60266 0,2.40268c0,0.79999 0,1.60001 0,2.80017c0,0.80432 0,1.62067 0,2.457c0,1.30948 0,2.22684 0,3.16815c0,0.47467 -0.00024,1.422 0,2.80801c0.00009,0.44498 -0.00641,1.30527 0.02084,2.125c0.02594,0.78043 0.19113,2.22226 0.33182,2.88898c0.13815,0.65469 0.39636,1.63205 0.526,2.6745c0.09225,0.74179 0.11322,1.54123 0.17401,2.397c0.10056,1.41553 0.16003,1.92502 0.3045,2.98651c0.07431,0.54596 0.25134,1.64438 0.34732,2.18933c0.09473,0.53769 0.38937,2.06369 0.59549,2.991c0.19424,0.87399 0.29797,1.29349 0.5,2.11166c0.29715,1.2034 0.49527,2.00525 0.72086,2.80267c0.22705,0.80267 0.63559,2.00412 0.96317,2.79999c0.33105,0.80432 0.69519,1.59808 0.86331,2c0.4996,1.19443 0.77841,1.99664 1.01669,2.80002c0.23633,0.79681 0.43304,1.6004 0.73615,2.80017c0.20328,0.8046 0.41757,1.62155 0.53583,2.03583c0.24298,0.8512 0.68015,2.18701 1.01669,3.11215c0.17004,0.46747 0.52231,1.39038 0.69464,1.84201c0.48697,1.27612 0.77298,2.03717 1.13184,3.06818c0.21979,0.63147 0.62259,1.84125 0.82083,2.44617c0.20178,0.61575 0.50571,1.57916 0.80017,2.617c0.2084,0.73453 0.40619,1.50385 0.65701,2.28299c0.38724,1.20288 0.71735,1.99704 1.06818,2.77417c0.34015,0.75351 0.69009,1.45093 1.15314,2.37833c0.38507,0.77124 0.72318,1.43094 1.22153,2.44434c0.30374,0.61768 0.61795,1.27701 1,2.284c0.31491,0.83002 0.59705,1.71698 0.89999,2.61432c0.29712,0.88 0.40591,1.47488 1,2.55734c0.34747,0.63315 1.20383,1.26663 1.61465,1.94299c0.47144,0.77612 1.11868,1.36667 1.28534,2.17917l0,-0.74081" id="svg_21" stroke-width="2" stroke="#000" fill="none"/>
  <path t="36916,36926,36926,36926,36926,36926,36926,36926,36950,36951,36951,36966,36966,37002,37018,37034,37042,37058,37075,37075,37092,37108,37108,37125,37125,37125,37125,37142,37142,37142,37158,37158,37158,37175,37175,37175,37175,37175,37192,37192,37192,37192,37208,37208,37208,37225,37225,37225,37242,37242,37242,37242,37258,37258,37258,37258,37258,37275,37275,37275,37275,37275,37292,37292,37292,37308,37308,37308,37308,37325,37325,37325,37325,37342,37342,37342,37342,37358,37358,37358,37358,37358,37375,37375,37375,37375,37392,37392,37392,37392,37408,37408,37408,37408,37408,37425,37425,37425,37425,37425,37442,37442,37442,37442,37458,37458,37458,37458,37475,37475,37475,37475,37475,37492,37492,37492,37492,37508,37508,37508,37525,37525,37525,37525,37542,37542,37542,37558,37558,37558,37558,37558,37575,37575,37575,37592,37592,37592,37608,37608,37608,37625,37625,37625,37642,37642,37642,37658,37658,37658,37658,37675,37675,37675,37675,37692,37692,37692,37708,37708,37708,37725,37725,37725,37725,37742,37742,37742,37758,37758,37758,37782,37782,37798,37808,37825,37842,37858,37875,37875,37892,37908,37908,37925,37925,38025,38066,38090,38106,38106,38114,38126,38143,38160,38176,38176,38192,38193,38208,38209,38225,38225,38242,38242,38258,38258,38258,38275,38275,38292,38292,38308,38308,38308,38326,38326,38326,38343,38343,38359,38359,38359,38375,38376,38376,38376,38376,38392,38392,38392,38408,38408,38425,38425,38425,38442,38442,38458,38458,38458,38475,38475,38475,38492,38492,38508,38508,38525,38525,38542,38542,38558,38558,38575,38592,38607,38625,38625,38642,38642,38642,38658,38658,38658,38675,38675,38675,38691,38692,38692,38692,38708,38708,38725,38725,38725,38742,38742,38742,38758,38758,38758,38758,38775,38775,38775,38792,38792,38792,38808,38808,38808,38825,38825,38825,38842,38842,38842,38842,38858,38858,38858,38858,38858,38875,38875,38875,38892,38892,38892,38892,38892,38908,38908,38908,38908,38925,38925,38925,38925,38925,38942,38942,38942,38942,38942,38958,38958,38958,38958,38975,38975,38975,38975,38976,38976,38992,38992,38992,38992,39008,39008,39008,39008,39025,39025,39026,39026,39042,39042,39042,39042,39058,39059,39059,39059,39059,39059,39075,39075,39075,39076,39092,39092,39092,39092,39108,39109,39109,39109,39125,39125,39125,39125,39142,39142,39142,39158,39158,39158,39158,39158,39175,39175,39175,39176,39192,39192,39192,39192,39208,39208,39208,39208,39208,39225,39225,39225,39226,39226,39242,39242,39242,39258,39258,39258,39258,39275,39275,39275,39275,39276,39292,39292,39292,39292,39308,39308,39308,39308,39326,39326,39326,39342,39342,39342,39342,39358,39358,39358,39358,39375,39375,39375,39375,39392,39392,39392,39392,39408,39408,39408,39408,39425,39425,39425,39442,39442,39442,39458,39458,39458,39475,39475,39475,39492,39492,39492,39508,39508,39508,39525,39525,39525,39526,39673" d="m435,267c1.76401,1.771 2.06021,2.27023 2.67599,3.42401c0.3284,0.61533 0.64917,1.24475 0.966,1.86899c0.30713,0.6051 1.09479,2.17709 1.30066,2.59366c0.47739,0.96585 0.96378,1.93524 1.04666,2.70267c0.09781,0.90546 0.01068,1.81067 0.01068,2.71066c0,0.90002 0,1.80002 0,2.70001c0,0.79999 0,1.63599 0,2.66617c0,0.61649 0,1.66718 0,2.63916c0,0.69467 0.00842,1.38937 -0.00015,2.65182c-0.00531,0.78159 -0.00964,1.5007 -0.28519,2.73083c-0.12872,0.57471 -0.43338,1.52719 -0.71466,2.64536c-0.20929,0.83206 -0.30515,1.27008 -0.47916,2.16666c-0.17328,0.89285 -0.36301,2.16574 -0.43683,2.92801c-0.06668,0.6886 -0.06467,1.62006 -0.30551,2.65067c-0.16574,0.70917 -0.50534,1.36517 -0.87833,2.34283c-0.30814,0.80762 -0.58118,1.67572 -0.73352,2.57849c-0.15244,0.90335 -0.14859,1.5433 -0.25067,2.57068c-0.1167,1.17438 -0.26849,2.03918 -0.34131,2.49066c-0.14905,0.92404 -0.30685,1.85406 -0.40802,2.772c-0.09683,0.87845 -0.1384,1.71979 -0.15598,2.51999c-0.01669,0.75989 -0.01068,2.16135 -0.01068,2.81067c0,0.93149 0,2.13617 0,2.74051c0,0.93149 0,1.58081 0,2.61682c0,1.104 0,1.85333 0,2.59467c0,1.06284 0,2.06934 0,2.74533c0,0.70801 0,1.8815 0,2.7485c0,0.91101 0,1.37549 0,2.3075c0,1.36099 0,2.22101 0,3.04102c0,0.78 0,1.875 0,2.55765c0,0.98401 0,1.63669 0,3.00583c0,0.74435 0,1.54068 0,2.397c0,0.45319 0,1.92368 0,2.44785c0,1.07333 0,1.61249 0,2.67084c0,1.46249 0,1.89798 0,3.0545c0,0.67599 0,1.90799 0,2.51065c0,0.939 0,1.61166 0,2.73068c0,0.83466 0,1.71732 0,2.616c0,0.44531 0.01135,1.71741 -0.00449,2.83633c-0.00952,0.67279 -0.04785,1.61725 -0.21686,2.51431c-0.17087,0.90689 -0.40536,1.48996 -0.612,2.70001c-0.15271,0.89423 -0.13388,1.50366 -0.25067,2.39999c-0.15738,1.20786 -0.34814,1.81177 -0.52664,2.436c-0.38116,1.33304 -0.58832,2.04694 -0.78934,2.77866c-0.19897,0.72427 -0.37741,1.42377 -0.79868,2.616c-0.2663,0.75366 -0.56531,1.44336 -0.71732,2.45468c-0.12482,0.83038 -0.11844,1.7254 -0.36935,2.91333c-0.12598,0.59644 -0.39737,1.45276 -0.81467,2.48001c-0.28522,0.70215 -0.61334,1.36859 -1.00015,2.34283c-0.32166,0.81015 -0.63138,1.69516 -1.0665,2.57849c-0.29993,0.60889 -0.84225,1.49493 -1.18066,2.10001c-0.49927,0.8927 -0.89352,1.79834 -1.15268,2.37915c-0.37466,0.83972 -0.97485,1.84262 -1.32535,2.28485c-0.50888,0.64209 -1.30878,1.62811 -1.67465,2.27765c-0.40439,0.7179 -0.82135,1.60101 -1.15268,2.26367c-0.34735,0.69467 -0.69461,1.38934 -1.32581,2.65167c-0.38553,0.771 -0.71701,1.43399 -1.12152,2.24301c-0.39999,0.79999 -0.71338,1.39343 -1.1955,2.39548c-0.3573,0.74261 -0.46896,1.67529 -0.70584,2.60318c-0.20456,0.8013 -0.82748,1.25348 -1.00934,2.20132c-0.15936,0.83069 -0.8317,1.36237 -1.48932,2.12085c-0.53503,0.6171 -1.03656,1.45703 -1.33334,2.3125c-0.27347,0.78824 -1.44467,1.42419 -0.94516,2.04517c0.55588,0.69104 1.7785,0.12149 2.57849,0.12149c0.90002,0 1.81903,-0.16434 2.70001,0.02084c0.85162,0.17902 1.65814,0.8746 2.5,0.95831c0.8295,0.08249 1.75266,0.02084 2.65717,0.02084c0.74734,0 1.74283,0 2.54285,0c1,0 1.79999,0 2.79999,0c0.79999,0 1.60001,0 2.60001,0c0.79999,0 1.79999,0 2.60001,0c1.00015,0 1.82083,0 2.48532,0c0.99866,0 1.81467,0 2.63068,0c1.23132,0 1.90933,0 3.10565,0c0.82501,0 1.42502,0 2.745,0c0.71735,0 1.45868,0 2.20801,0c0.74133,0 2.13867,0 2.77866,0c0.88501,0 1.92517,0 2.82584,0c1.02084,0 1.82083,0.00067 2.62085,0c0.80133,-0.00067 1.6452,0.01547 2.82132,-0.22134c0.53656,-0.10803 1.34171,-0.40665 2.41202,-0.612c0.92294,-0.17706 1.76532,-0.16599 2.76666,-0.16666c0.79999,-0.00055 1.79868,0.00055 2.564,0c0.952,-0.00067 1.72507,-0.07141 2.672,-0.42532c0.57172,-0.21365 1.5603,-0.52499 2.50684,-0.57019c0.89453,-0.04272 1.63916,-0.43994 1.65717,-1.30899c0.01785,-0.86197 0.05743,-1.73123 -0.16666,-2.6955c-0.19263,-0.82886 -0.54416,-1.44412 -0.71185,-2.42151c-0.13849,-0.80716 -0.11923,-1.68298 -0.12149,-2.87848c-0.00113,-0.60001 0,-1.5 0,-2.70001c0,-0.59866 0,-1.47916 0,-2.31467c0,-1 0,-1.87466 0,-2.8855c0,-0.82068 -0.01074,-1.48523 0.00134,-2.48651c0.01031,-0.85513 0.0563,-1.80402 0.22015,-2.8345c0.11615,-0.73038 0.28174,-1.46277 0.483,-2.16898c0.36374,-1.27643 0.72256,-2.03616 0.93832,-2.75803c0.28677,-0.95956 0.3158,-1.7894 0.40985,-2.65631c0.09738,-0.89746 0.3056,-1.78961 0.522,-2.65952c0.26556,-1.06763 0.39233,-1.78226 0.42084,-2.68866c0.03049,-0.96872 0.00549,-1.80511 0.0405,-2.42999c0.03864,-0.69 0.18008,-1.86084 0.31665,-2.72269c0.14191,-0.89554 0.30151,-1.7883 0.36334,-2.22665c0.22498,-1.59534 0.24875,-2.3075 0.30933,-2.98267c0.12146,-1.35391 0.25702,-2.07098 0.39999,-2.82132c0.14767,-0.77502 0.32025,-1.56171 0.45334,-2.76401c0.08835,-0.7981 0.10977,-1.60086 0.17401,-2.39999c0.09659,-1.20154 0.22116,-2.00226 0.38333,-2.80002c0.16312,-0.80243 0.36768,-1.59943 0.66382,-2.79999c0.19724,-0.79962 0.30106,-1.19757 0.46417,-2c0.16217,-0.79776 0.323,-1.99951 0.38333,-2.8045c0.06113,-0.81577 0.07797,-1.65536 0.21933,-2.96216c0.09946,-0.91965 0.18085,-1.38773 0.35419,-2.33334c0.17398,-0.94916 0.27188,-1.41791 0.57916,-2.77832c0.19455,-0.86127 0.39362,-1.6817 0.60001,-2.46002c0.29102,-1.09741 0.4993,-1.77786 0.79999,-2.76166c0.19952,-0.65283 0.50662,-1.66486 0.69867,-2.384c0.19751,-0.73953 0.47229,-1.85876 0.63467,-2.94934c0.10168,-0.68292 0.11798,-1.36716 0.27649,-2.43365c0.1842,-1.23947 0.32526,-1.69901 0.59549,-2.69101c0.14142,-0.5191 0.45016,-1.5643 0.58936,-2.08398c0.38928,-1.45349 0.54773,-2.30038 0.64398,-3.05002c0.08664,-0.67471 0.21658,-1.91034 0.34534,-2.50931c0.19849,-0.92346 0.41422,-1.54819 0.59467,-2.92001c0.09579,-0.72827 0.10855,-1.47968 0.17401,-2.22601c0.0954,-1.0878 0.29898,-2.09573 0.44733,-2.73181c0.21454,-0.91986 0.38971,-1.81992 0.47467,-2.73151c0.05823,-0.62466 0.17963,-1.95813 0.31067,-2.67468c0.13773,-0.75311 0.32233,-1.52606 0.51599,-2.31598c0.29413,-1.19965 0.49622,-1.99481 0.69867,-2.77783c0.19763,-0.76428 0.49628,-1.85529 0.70001,-2.53683c0.29462,-0.98563 0.50848,-1.63422 0.79999,-2.65067c0.20602,-0.71832 0.40451,-1.47888 0.60001,-2.28c0.20471,-0.83887 0.49979,-2.17441 0.69998,-3.09702c0.09988,-0.46036 0.2851,-1.3627 0.5,-2.20166c0.28061,-1.09549 0.59872,-1.95786 0.90002,-2.69833c0.39832,-0.97888 0.6156,-1.51752 0.89999,-2.439c0.21167,-0.68582 0.50339,-1.85925 0.69998,-2.72269c0.20352,-0.89386 0.2923,-1.34576 0.5,-2.22665c0.28943,-1.2276 0.47443,-1.96423 0.836,-2.94666c0.23041,-0.62601 0.67783,-1.52557 1.18936,-2.42136c0.34427,-0.60287 0.73233,-1.18008 1.28931,-2.39999c0.26987,-0.59106 0.58356,-1.49908 0.88535,-2.39999c0.3027,-0.90359 0.50616,-1.51895 0.70001,-2.15717c0.41315,-1.36023 0.59998,-2.09549 0.79999,-2.84283c0.20001,-0.74734 0.50189,-1.83279 0.69867,-2.51599c0.2832,-0.98322 0.48544,-1.62979 0.63467,-2.65067c0.15796,-1.08047 0.15387,-1.83435 0.21933,-2.58069c0.0954,-1.0878 0.20859,-1.77353 0.46817,-2.73181c0.16815,-0.62073 0.57657,-1.82156 0.77914,-2.41635c0.29623,-0.86981 0.6933,-1.9407 1,-2.65182c0.29361,-0.68082 0.71735,-1.61304 0.99551,-2.40533c0.28647,-0.81592 0.55075,-1.87871 0.65182,-2.59016c0.12082,-0.8506 0.31219,-1.87038 0.59433,-2.478c0.31531,-0.67909 0.94022,-1.66672 1.29434,-2.21516c0.56305,-0.87206 1.164,-1.76401 1.56134,-2.36134l0.561,-0.86099l0.32733,-0.52734l0.54233,-1.04233" id="svg_22" stroke-width="2" stroke="#000" fill="none"/>
  <path t="41181,41281,41291,41310,41326,41342,41360,41375,41375,41391,41408,41425,41425,41441,41441,41458,41458,41475,41475,41475,41491,41491,41508,41508,41525,41525,41541,41579" d="m415,263c0,1.79999 -0.35489,2.79266 0.03601,3.564c0.35379,0.69812 0.97702,1.28711 1.48483,1.936c0.60052,0.76736 1.1337,1.32492 1.53183,2.20001c0.33438,0.73495 0.95023,1.46487 1.34732,2.12534c0.60443,1.00534 0.99084,1.54749 1.70016,2.27481c0.52908,0.54248 1.22955,1.21326 1.72519,1.73584c0.5311,0.56 1.29312,1.5603 1.65381,2.14316c0.52646,0.85074 1.02084,1.5 1.71951,2.22086l0.51599,0.59998l0.33801,0.84283l0.74866,0.35583" id="svg_23" stroke-width="2" stroke="#000" fill="none"/>
  <path t="43551,43729,43729,43739,43761,43761,43776,43776,43791,43792,43808,43808,43826,43826,43842,43858,43876,43876,43876,43892,43892,43908,43908,43926,43926,43941,43941,43958,43958,43958,43975,43975,43975,43990,43991,43991,44008,44008,44008,44024,44024,44024,44025,44040,44041,44041,44058,44058,44058,44074,44074,44075,44075,44090,44091,44107,44107,44108,44124,44124,44140,44141,44157,44174,44174,44190,44190,44208,44224,44240,44240,44257,44257,44258,44274,44274,44290,44291,44308,44308,44324,44325,44325,44325,44340,44341,44341,44357,44358,44358,44374,44375,44375,44375,44391,44391,44391,44408,44408,44408,44408,44425,44425,44441,44441,44441,44458,44458,44458,44458,44475,44475,44475,44475,44491,44491,44508,44508,44525,44525,44541,44558,44558,44558,44574,44575,44591,44591,44591,44607,44608,44624,44625,44625,44625,44640,44641,44641,44658,44659,44659,44659,44676,44676,44676,44676,44692,44692,44692,44708,44709,44709,44726,44726,44726,44726,44742,44742,44759,44759,44759,44775,44776,44776,44776,44792,44792,44792,44809,44809,44824,44825,44825,44841,44842,44859" d="m493,294c-0.70084,1.05801 -1.83716,1.67639 -1.54401,2.74533c0.21185,0.77243 1.27164,1.01508 2.20117,1.19751c0.73517,0.14429 1.7511,-0.03253 2.50684,0.09317c1.11337,0.18518 1.69937,0.77878 2.66135,0.92798c0.68335,0.10599 1.80508,-0.0032 2.58533,0.47202c0.80551,0.49063 1.42175,0.97089 2.19064,1.36398c0.79376,0.40582 1.54056,0.83084 2.51468,1.116c0.75452,0.22086 1.5459,0.43121 2.28851,0.78851c1.00204,0.48212 1.59549,0.7955 2.59549,1.2955c0.79999,0.39999 1.39697,0.70612 2.40131,1.20001c0.61768,0.30374 1.27466,0.62442 2.28271,0.99866c0.8089,0.30029 1.62451,0.5575 2.63464,0.71732c0.71893,0.11374 1.53809,0.15356 2.54535,0.30536c0.79584,0.11993 1.63495,0.28455 2.47797,0.42599c1.15668,0.19409 2.09039,0.26953 2.82605,0.37799c1.03949,0.15326 1.63843,0.45401 2.60266,0.69067c0.86139,0.21143 1.87976,0.25586 2.57861,0.27332c0.68256,0.01703 1.88,0.01068 2.82935,0.01068c0.82135,0 1.62134,0 2.42133,0c1,0 1.80005,0 2.79871,0c0.94415,0 1.84869,0.01151 2.76801,0c0.8335,-0.01044 1.78699,-0.2662 2.52881,-0.64734c0.78131,-0.40143 1.61835,-0.69507 2.3045,-1.35266c0.5318,-0.50964 1.16663,-1.16669 1.82532,-1.82535c0.52203,-0.522 1.29047,-1.28824 1.87018,-1.87015c0.60559,-0.60788 1.15662,-1.15881 1.60449,-1.97067c0.45496,-0.82468 0.71783,-1.66193 0.99548,-2.63916c0.19641,-0.69119 0.38586,-1.38275 0.58319,-2.65167c0.11938,-0.76773 0.16492,-1.65149 0.40668,-2.44699c0.27936,-0.91925 0.53687,-1.44604 0.81464,-2.46002c0.21637,-0.78967 0.39148,-1.63806 0.60004,-2.478c0.28821,-1.16098 0.59247,-2.0939 0.79999,-2.61633c0.48273,-1.21533 0.70001,-1.72565 1,-2.54166c0.29999,-0.81601 0.68964,-1.81946 1,-2.47916c0.48395,-1.02856 0.81958,-1.61642 1.20001,-2.478c0.42175,-0.95514 0.70502,-1.78516 0.86401,-2.38953c0.16724,-0.63583 0.36249,-2.03528 0.39996,-2.76797c0.03705,-0.72351 0.01331,-1.41626 0.03735,-2.61334c0.01837,-0.91513 0.34698,-1.85538 0.646,-2.52466c0.38696,-0.86618 0.34052,-1.80936 0.78864,-2.62201c0.46948,-0.85144 0.90387,-1.50513 1.44934,-2.14133c0.69012,-0.80487 1.32745,-1.06934 2.31451,-1.58417c0.59076,-0.30814 1.35138,-0.75162 2.05652,-1.55701c0.46619,-0.53247 1.23248,-1.35873 1.79565,-1.74283c0.61237,-0.41763 1.34027,-0.70789 2.448,-1.60001c0.67926,-0.54706 1.07513,-1.22112 1.66669,-2c0.47253,-0.62221 1.07788,-1.23805 1.51996,-1.68533c0.73102,-0.73959 1.54102,-1.53908 2.052,-2.12534c0.50513,-0.57951 1.14221,-1.47661 1.44702,-2.08482c0.42712,-0.85226 0.79602,-1.94594 1.11884,-2.65184c0.3139,-0.68633 0.86261,-1.61908 1.17816,-2.13667c0.49719,-0.81558 0.90393,-1.32487 1.27448,-2.3945c0.30365,-0.87653 0.36963,-1.93622 0.68951,-2.74283c0.28064,-0.70761 0.7243,-1.50987 1.03601,-2.14667c0.50348,-1.02863 0.85815,-1.70854 1.18402,-2.69867c0.26538,-0.80638 0.26788,-1.53152 0.55481,-2.53333c0.23517,-0.82115 0.77112,-1.80377 1.07849,-2.39551c0.39075,-0.75224 0.89868,-1.51917 1.41467,-2.20316l0.28082,-0.90134" id="svg_24" stroke-width="2" stroke="#000" fill="none"/>
  <path t="46261,46498,46526,46550,46558,46577,46602,46611,46654,46661,46698,46722,46738,46766,46773,46789,46806,46806,46818,46825,46841,46858,46875,46892,46908,46925,46925,46941,46941,46959,46959,46975,46975,46991,46991,47008,47008,47025,47025,47025,47025,47041,47041,47041,47058,47058,47058,47075,47075,47075,47091,47091,47091,47091,47107,47108,47124,47124,47124,47142,47142,47159,47159,47159,47176,47176,47176,47191,47191,47209,47209,47226,47241,47258,47285,47286,47442,47783,47852,47894,47914,47930,47943,47967,47967,47975,47975,47990,47991,48008,48024,48025,48040,48041,48072,48072" d="m574,135c0.87866,1.22133 1.3822,1.78931 2.19867,2.00133c0.80042,0.20787 1.32196,0.98605 2.20135,0.99867c0.89539,0.01285 1.59363,0.40855 2.09998,1c0.50891,0.59444 0.5,1.5 0.5,2.39999c0,0.90001 0,1.8 0,2.70001c0,0.89999 0,1.7 0,2.59999c0,0.90001 0,1.8 0,2.7c0,0.90001 0,1.8 0,2.70001c0,0.89999 0,1.78532 0,2.55716c0,0.94417 -0.0882,1.95073 0.05719,2.68567c0.18494,0.93483 0.79688,1.5099 1.23828,2.31433c0.39648,0.72247 0.612,1.74533 0.72986,2.57883c0.13184,0.93208 0.32184,1.72423 0.58533,2.57468c0.18372,0.59288 0.59497,1.78578 0.77869,2.37866c0.26349,0.85045 0.46155,1.89407 0.63147,2.81067c0.12762,0.68822 0.53998,1.68999 1,2.52083c0.32501,0.58704 0.8324,1.47034 1.22205,2.37466c0.24915,0.57831 0.53467,1.4279 0.95715,2.41917c0.28583,0.67072 0.82141,1.67526 1.18933,2.48534c0.26935,0.59303 0.5036,1.60349 0.63599,2.39999c0.16718,1.00543 0.50238,1.81795 0.776,2.48534c0.40771,0.99449 0.69934,1.8087 0.84149,2.362c0.32233,1.25439 0.19623,1.95976 0.57849,2.93117c0.30536,0.77609 0.7135,1.55354 1.13135,2.3215c0.45758,0.8409 0.64734,1.7 0.64734,2.5c0,0.89999 0,1.8 0,2.7c0,0.89999 0,1.8 0,2.7c0,0.90001 0,1.8 0,2.55717c0,0.89999 0,1.64732 0,2.83833c0,0.74733 0,1.65182 0,2.57117c0,0.85416 0,1.83333 -0.01068,2.62267l-0.15601,1.04399l-0.33331,0.625" id="svg_25" stroke-width="2" stroke="#000" fill="none"/>
  <path t="49208,49298,49308,49308,49329,49343,49358,49358,49374,49374,49391,49391,49408,49408,49424,49424,49424,49424,49441,49441,49458,49458,49458,49474,49474,49474,49491,49491,49491,49508,49508,49508,49524,49524,49541,49541,49558,49558,49558,49558,49574,49574,49574,49574,49591,49591,49591,49608,49608,49608,49624,49624,49641,49641,49641,49641,49658,49658,49658,49674,49674,49674,49674,49691,49691,49708,49708,49708,49708,49724,49724,49724,49741,49741,49741,49758,49758,49758,49774,49774,49774,49774,49791,49791,49791,49808,49808,49808,49824,49824,49841,49841,49858,49858,49858,49874,49874,49874,49891,49908,49924,49924,49941,50298,50389,50426,50461,50461,50479,50494,50508,50524,50541,50541,50558,50558,50558,50574,50574,50591,50591,50608,50608,50608,50624,50624,50624,50624,50641,50641,50641,50658,50658,50658,50674,50674,50675,50675,50691,50691,50692,50692,50708,50708,50708,50724,50724,50724,50741,50742,50758,50758,50758,50759,50774,50774,50775,50775,50791,50791,50808,50808,50808,50824,50824,50825,50841,50841,50841,50858,50858,50858,50874,50874,50874,50891,50891,50891,50908,50908,50908,50924,50924,50924,50941,50941,50942,50959,50960,50974,50974,50974,50991,50991,51008,51008,51024,51041,51041,51058,51058,51074,51074,51162,51162,51193,51209,51209,51225,51225,51242,51242,51242,51259,51259,51259,51275,51275,51275,51276,51292,51292,51292,51307,51308,51308,51323,51324,51324,51340,51341,51358,51374,51374,51391,51391,51417,51418,51437,51445,51457,51474,51491,51508,51535,51565,51589,51625,51625,51666,51711,51755,51810,51956,51979,51994,52009,52024,52024,52041,52058,52059,52074,52074,52075,52091,52091,52108,52109,52124,52124,52141,52141,52158,52159,52159,52174,52175,52175,52191,52192,52192,52208,52209,52209,52224,52241,52241,52258,52286,52310,52334,52346,52358,52358,52374,52391,52408,52409,52424,52424,52441,52441,52442,52458,52459,52474,52475,52475,52491,52492,52492,52509,52509,52524,52525,52541,52542,52542,52558,52559,52574,52575,52575,52591,52591,52592,52608,52609,52624,52625,52641,52641,52658,52659,52659,52674,52691,52691,52708,52709,52724,52725,52741,52742,52758,52782,52783,52798,52799,52815,52826,52842,52858,52878,52894,52910,52934,52935,52955,52978,53030,53086" d="m596,226c1,0.10001 1.17352,1.03825 0.91467,1.8c-0.30176,0.88791 -0.83289,1.62787 -1.13599,2.52133c-0.23572,0.69476 -0.6192,1.6669 -0.83136,2.43134c-0.25482,0.91824 -0.64929,1.63794 -0.82599,2.44749c-0.17688,0.81052 -0.276,1.96945 -0.474,2.7525c-0.13892,0.54953 -0.40411,1.35634 -0.59467,2.59016c-0.09937,0.64355 -0.28741,1.65318 -0.55267,2.49884c-0.22754,0.72546 -0.42059,1.92595 -0.47467,2.60899c-0.0553,0.69832 -0.16638,2.02196 -0.30933,2.57867c-0.24689,0.96164 -0.59698,1.76433 -0.67999,2.57066c-0.08203,0.79654 0.02203,1.80659 -0.0932,2.59999c-0.14758,1.01605 -0.57782,1.82129 -0.77612,2.76666c-0.16486,0.78604 -0.17902,1.68134 -0.25067,2.32001c-0.11639,1.03726 -0.25665,1.76987 -0.52667,2.888c-0.17969,0.74408 -0.49005,1.80344 -0.68481,2.46368c-0.26978,0.91461 -0.55078,1.99304 -0.65186,2.7045c-0.12085,0.85062 -0.35297,1.85306 -0.55267,2.478c-0.36322,1.13669 -0.44678,1.93637 -0.5,2.5c-0.08313,0.88058 -0.27216,2.08261 -0.43597,2.67917c-0.24866,0.9057 -0.55988,1.80139 -0.86401,2.6955c-0.29596,0.8699 -0.49841,1.4198 -0.89868,2.4205c-0.36395,0.90991 -0.64307,1.84943 -0.75317,2.64114c-0.11853,0.85229 -0.14349,1.47141 -0.61615,2.64151c-0.24524,0.60715 -0.81348,1.40964 -1.18915,2.48001c-0.23816,0.67868 -0.24622,1.38345 -0.5282,2.608c-0.13013,0.56512 -0.42603,1.47299 -0.71466,2.47998c-0.20483,0.71463 -0.39166,1.45035 -0.59998,2.172c-0.38464,1.33255 -0.5943,1.89435 -1,2.87601c-0.39441,0.95432 -0.70703,1.72968 -0.87921,2.2645c-0.37976,1.17957 -0.43054,1.87811 -0.74213,2.84235c-0.23151,0.71634 -0.63336,1.67505 -0.75336,2.48917c-0.09497,0.64423 -0.30432,1.87338 -0.45068,2.40399c-0.28101,1.01871 -0.46259,1.9761 -0.57483,2.88535c-0.11212,0.90839 -0.74677,1.43716 -0.96381,2.29999c-0.21973,0.8735 0.04608,1.8038 -0.03619,2.70001c-0.08368,0.91144 -0.81958,1.48688 -0.99982,2.336c-0.2002,0.94296 0.00006,1.86398 0,2.76401c-0.00012,0.90033 -0.03497,1.61987 -0.284,2.56934c-0.19836,0.75635 -0.48785,1.53845 -0.63068,2.54532c-0.12329,0.86914 -0.08533,1.88535 -0.08533,2.68533c0,1 0.01611,1.82364 -0.05719,2.51434c-0.1203,1.13382 -0.29639,1.7908 -0.44281,2.48566c-0.21741,1.03171 -0.4068,1.95456 -0.46399,2.73868c-0.06873,0.94214 -0.02203,1.94849 -0.05682,2.80298c-0.02527,0.62054 -0.18896,1.98193 -0.33636,2.711c-0.15161,0.74988 -0.33752,1.49741 -0.64282,2.58069c-0.1925,0.68311 -0.49969,1.64072 -0.64282,2.26215c-0.27545,1.19586 -0.33093,2.09351 -0.3465,2.66852c-0.02887,1.069 -0.01068,2 -0.01068,2.83466c0,1.01035 0,1.67334 0,2.73468c0,0.9765 0,1.6875 0,2.41849c0,1.08151 0.01068,2.0871 -0.02081,2.70651c-0.04352,0.85629 -0.28198,1.85187 -0.55383,2.767c-0.27802,0.93579 -0.38727,1.72647 -0.41467,2.54932c-0.03528,1.05817 -0.01068,1.77267 -0.01068,2.67801c0,0.96884 0,1.78333 0,2.65182c0,1.19534 0,1.79102 0,2.65952c0,1.06934 0,1.78333 0,2.68866c0,0.96866 0,1.77267 0,2.59467c0,1.03149 0,1.97351 0,2.72202c0,0.87332 0,1.88132 0,2.57999c0,1.31732 0,1.88 0,2.82935c0,1.02133 0,1.82132 0,2.82132c0,0.79999 0,1.60001 0,2.60001c0,0.79999 0,1.79868 0,2.564c0,0.952 0,2.00266 0,2.66135c0,1.008 0.01385,1.81598 -0.284,2.65866c-0.31213,0.88312 -0.37927,2.03128 -1.07318,2.45883c-0.80414,0.49548 -1.84546,0.0578 -2.61346,0.05716c-0.79871,-0.00067 -1.82562,0.03302 -2.86267,-0.16666c-0.72028,-0.13867 -1.33325,-0.49789 -2.36719,-0.71185c-0.84985,-0.17587 -1.65552,-0.12082 -2.66351,-0.12149c-0.79401,-0.00052 -1.63599,0 -2.47797,0c-1.15802,0 -2.08655,0 -2.82605,0c-1.03217,0 -1.85278,0 -2.51733,0c-0.99866,0 -1.81464,0 -2.63062,0c-0.99738,0 -1.83734,0 -2.93134,0c-0.91937,0 -1.75269,0 -2.73132,0c-0.77405,0 -1.67401,0 -2.53735,0c-0.9632,0 -1.87335,-0.01068 -2.48401,-0.5c-0.61066,-0.48932 -1.5,-0.5 -2.40002,-0.5c-0.89545,0 -1.82147,0 -2.69995,0c-0.90002,0 -1.70001,0 -2.60004,0c-0.89996,0 -1.79999,0.00226 -2.70001,0c-0.89545,-0.00226 -1.58264,-0.43542 -1.59998,-1.29999c-0.01807,-0.89984 0.29413,-1.75446 0.64734,-2.40002c0.4845,-0.88556 0.62476,-1.79138 0.96332,-2.51065c0.37482,-0.79633 0.84265,-1.56619 1.104,-2.38934c0.31067,-0.97858 0.26068,-1.82123 0.57068,-2.79868c0.18939,-0.59711 0.8208,-1.57535 1.21466,-2.10132c0.60974,-0.81424 0.93555,-1.5737 1.66669,-2.33334c0.59595,-0.61917 1.25983,-0.91516 1.81195,-1.7095c0.4682,-0.67368 0.71655,-1.543 1.34271,-2.53564c0.30432,-0.48245 0.89063,-1.08191 1.51196,-1.92151c0.5658,-0.76456 0.96582,-1.51434 1.46216,-2.24283c0.58374,-0.85678 0.82794,-1.53427 1.27917,-2.35718c0.42773,-0.78012 0.42535,-1.69998 0.42535,-2.60001c0,-0.89999 0,-1.79999 0,-2.59998c0,-0.90002 -0.01794,-1.82858 0.43597,-2.62134c0.32782,-0.57254 0.89148,-1.57816 1.12805,-2.36401c0.31195,-1.0361 0.40265,-1.75638 0.43146,-2.61017c0.03394,-1.00528 -0.0025,-1.84756 0.1712,-2.77115c0.14929,-0.79379 0.45398,-1.59781 0.66663,-2.66669c0.14008,-0.7041 0.16443,-1.56216 0.16669,-2.56665c0.00177,-0.80002 0,-1.80002 0,-2.60001c0,-1 0,-1.79999 0,-2.60001c0,-1.00449 0,-1.63599 0,-2.82132c0,-0.80402 0,-1.62601 0,-2.65717c0,-0.68552 -0.03064,-1.52078 0.00452,-2.52151c0.02814,-0.80124 0.30096,-1.79251 0.57013,-2.60001c0.33044,-0.99152 0.41492,-1.79984 0.42535,-2.79999c0.00824,-0.78931 0,-1.51468 0,-2.5c0,-0.98401 0,-1.67465 0,-2.75183c0,-0.7175 -0.04132,-1.75687 0.03601,-2.4975c0.11664,-1.11697 0.69537,-1.76926 0.9068,-2.55518c0.26459,-0.98346 0.05719,-1.6955 0.05719,-2.67398c0,-0.82019 0,-1.72153 0,-2.62152c0,-0.89999 0,-1.79999 0,-2.69998c0,-0.90002 0,-1.80002 0,-2.70001c0,-0.79999 0,-1.70001 0,-2.60001l0,-0.89999l0,-0.89999" id="svg_26" stroke-width="2" stroke="#000" fill="none"/>
  <path t="54026,55144,55168,55184,55199,55219,55243,55259,55259,55267,55274,55291,55308,55324,55324,55341,55341,55358,55358,55374,55374,55374,55391,55391,55408,55408,55408,55424,55441,55458,55458,55474,55474,55491,55508,55508,55508,55524,55524,55541,55541,55559,55574,55574,55591,55591,55608,55608,55624,55624,55641,55641,55641,55658,55658,55674,55691,55691,55708,55708,55708,55724,55741,55758,55758,55774,55791,55808,55808,55824,55824,55841,55841,55858,55874,55874,55891,55891,55908,55908,55908,55924,55941,55941,55958,55958,55958,55974,55974,55974,55991,55991,56008,56008,56008,56024,56024,56024,56041,56074,56077,56118,56286" d="m502,298c0,1.61066 0,2.5 0,3.39999c0,0.89999 0,1.80002 0,2.70001c0,0.89999 -0.02725,1.70041 0,2.60001c0.02859,0.94412 0.83643,1.4411 0.97916,2.32083c0.15341,0.94568 0.02661,1.75052 0.37802,2.63632c0.30389,0.76602 0.78409,1.52448 1.12198,2.34283c0.40488,0.98056 0.46582,1.8046 0.57352,2.39999c0.18274,1.01031 0.55722,1.80038 1.04715,2.79984c0.28906,0.58972 0.73679,1.29086 0.8895,2.3895c0.11313,0.81381 0.23898,1.72919 0.51068,2.41068c0.38852,0.97455 0.42587,1.80484 0.53601,2.672c0.11215,0.88312 0.34888,1.59924 0.76532,2.56c0.35477,0.81848 0.95926,1.48529 1.14151,2.42068c0.16544,0.84915 0.02811,1.84821 0.40982,2.65631c0.32242,0.68256 0.57669,1.69846 0.67267,2.44034c0.11908,0.92047 0.59564,1.68533 0.85318,2.57217c0.19705,0.67853 0.08917,1.88 0.1423,2.6785c0.04004,0.60214 0.35754,1.58585 0.62653,2.34283c0.36243,1.02005 0.59192,1.97177 0.85266,2.67801c0.35822,0.97031 0.38239,1.78854 0.58398,2.49384c0.28864,1.00992 0.70502,1.73898 1.13733,2.58533c0.33472,0.65533 0.67114,1.50845 0.7995,2.42084c0.11499,0.81732 0.56055,1.47598 0.8125,2.47916c0.19489,0.77597 0.16669,1.83334 0.16669,2.6955c0,0.82535 -0.00006,1.78983 0,2.51517c0.00012,0.98935 -0.06445,1.80554 0.16669,2.78934c0.19,0.80862 0.66846,1.49036 0.8125,2.5c0.1394,0.97702 0.01501,1.7536 0.1875,2.66666c0.14996,0.79367 0.45068,1.59848 0.66663,2.66669c0.1424,0.70435 0.16492,1.57626 0.45068,2.56799c0.24475,0.84924 0.5816,1.76151 0.65881,2.55133c0.08014,0.8194 0.03625,1.88113 0.06171,2.58566c0.02893,0.80124 0.42084,1.82568 0.87396,2.56168l0.12152,0.89999l0,0.91599l0,0.66968" id="svg_27" stroke-width="2" stroke="#000" fill="none"/>
 </g>
 <g display="none">
  <title>muse_image</title>
  <image xlink:href="http://farm1.static.flickr.com/171/412297969_0809910e5a.jpg" id="muse" height="426" width="640" y="27" x="0"/>
 </g>
 <g display="none">
  <title>bbox</title>
  <rect stroke="#f00" fill="none" stroke-width="3" height="345.40541" width="318.72" y="69.21622" x="212.48" id="bbox"/>
 </g>
</svg>
