<svg width="640" height="480" xmlns="http://www.w3.org/2000/svg" xmlns:svg="http://www.w3.org/2000/svg" xmlns:xlink="http://www.w3.org/1999/xlink">
 <!-- Sketchy ANNOTATION
  ImageNet ID: n02503517_8265
  URL: http://farm1.static.flickr.com/70/230802412_f44d9faa43.jpg
  Image Width: 500
  Image Height: 333
  BBox X: 172
  BBox Y: 110
  BBox Width: 150
  BBox Height: 93
  Exposure: 2000ms
  Synset Label: elephant
  Synset ID: n02503517
  Worker Tag: Elephant
  Sanity Check: 
   Context
   Saved
   Shading
  Comment: 
   {}
  Worker ID: AIH9VLD92GHFH
  Assignment ID: 3TAYZSBPLL8C94HEGLQXISBKVYB2SY
  HIT ID: 3R15W654VDT4AQQF8LEVD407JCGQLF
  Work Time: 144s
  Worker Score: 0.9286
 END ANNOTATION -->
 <g display="inline">
  <title>Layer 1</title>
  <path t="0,230,233,233,246,247,264,264,264,280,287,287,287,297,313,313,330,330,330,346,346,362,363,363,380,380,396,396,417,429,430,446,480,480,480,496,512,513,581,581,646,646,979,979,996,996,1129,1146,1146,1195,1212,1279,1345,1346,1412,1446,1462,1463,1516,1529,1530,1562,1569,1580,1596,1629,1630,1645,1680,1680,1695,1696,1729,1746,1762,1762,1779,1795,1796,1812,1845,1862,1879,1880,1895,1896,1912,1912,1929,1945,1962,1962,1979,1995,1996,2012,2029,2045,2079,2080,2095,2096,2129,2129,2162,2179,2179,2195,2229,2245,2279,2279,2280,2295,2312,2329,2329,2345,2346,2380,2380,2412,2412,2413,2429,2429,2445,2479,2480,2495,2496,2529,2545,2546,2562,2562,2596,2596,2612,2613,2629,2645,2679,2696,2729,2729,2795,2979,3012,3012,3046,3112,3113,3145,3212,3212,3262,3295,3296,3329,3395,3396,3462,3512,3512,3629,3712,3762,3762,3845,3846,3895,3966,3980,4029,4029,4045,4046,4046" d="m335,147c2.63568,6.81366 2.83807,7.66147 2.95834,8.375c0.21747,1.29016 0.58118,1.93442 0.875,2.95833c0.19046,0.66368 0.1481,1.49409 0.33331,2.66667c0.09497,0.6013 0.34601,1.4549 0.54935,2.22934c0.28729,1.0941 0.75439,1.83705 1.30484,2.31233c0.85861,0.74139 1.22754,1.46111 1.56848,2.20766c0.41751,0.91425 0.91504,1.53729 1.24402,2.41734c0.24033,0.64291 0.22839,1.50154 0.8765,2.42433c0.41226,0.58696 1.46576,0.92912 2.00351,1.577c0.57462,0.69231 0.54846,1.78795 0.93399,2.5275c0.41876,0.80331 0.77893,1.64008 1.21399,2.12984c0.6326,0.71216 1.53247,1.31786 1.97202,2.17467c0.3598,0.70139 0.45999,1.69676 0.92831,2.34734c0.49283,0.68462 1.2757,1.07635 2.07169,1.65266c0.65897,0.47711 0.95544,1.51711 1.19199,2.13867c0.34457,0.90538 1.50116,0.65021 2.26483,0.91849c0.76733,0.26956 0.82639,1.34406 1.28452,2.00418c0.50726,0.73091 0.42465,1.45599 0.42532,2.528c0.00052,0.82132 0,1.73199 0,2.58533c0,0.94 0,1.92551 0,2.71066c0,0.94 0,1.63068 0,2.70401c0,0.82132 0,1.73199 0,2.58533c0,0.94 0,1.92551 0,2.71066c0,0.94 0,1.63068 0,2.70401c0,0.82132 0,1.73199 0,2.58533c0,0.94 -0.00452,1.92552 0,2.71066c0.00534,0.92938 0.42752,1.5544 0.87851,2.33617c0.44327,0.76839 0.25586,1.69044 0.82681,2.43117c0.41837,0.54276 1.20639,1.4469 1.29202,2.146c0.10959,0.89465 -0.00919,1.85283 0.28665,2.68533c0.25092,0.7061 0.68741,1.7574 0.716,2.61618c0.02612,0.78471 -0.30045,1.84433 0.22134,2.657c0.47205,0.73521 1.14063,1.20813 1.77866,1.76366c0.70004,0.6095 0.95157,1.47954 1,2.3125c0.05014,0.86261 0.62921,1.63835 0.87851,2.48801c0.24228,0.82568 -0.11658,1.92264 0.40549,2.59467c0.49255,0.63405 1.03659,1.26089 1.56668,1.90933c0.43372,0.53056 0.94794,1.67274 1.58533,2.14934c0.65994,0.49345 1.28821,0.9093 1.54932,1.85066c0.19104,0.68877 0.90918,1.52444 1.36652,1.9845c0.67978,0.68384 0.99976,1.4465 1.34366,2.18483c0.48578,1.04295 0.69431,1.87196 1.36584,2.56934c0.62717,0.65129 1.56909,0.48642 2.30267,1.29733c0.52792,0.58357 0.84097,1.55663 1.80264,1.972c0.61847,0.26714 1.74716,0.22038 2.3125,0.70834c0.75446,0.6512 0.90472,1.59871 1.6875,2.12498c0.72244,0.48572 1.52945,0.94492 2.26935,1.29733c0.77682,0.37 1.47049,0.59097 2.26932,0.98785c0.67932,0.33749 0.83395,1.14487 1.51617,1.80515c0.65509,0.634 1.66385,0.24301 2.60385,0.24301c1.008,0 1.76398,0 2.6955,0c0.80048,0 1.65381,0 2.59381,0c0.9855,0 1.77069,0 2.71069,0c1.008,0 1.76398,0 2.6955,0c0.80048,0 1.65381,0 2.59381,0c0.98535,0 1.88535,0 2.64252,0c0.89551,0 1.75885,-0.00565 2.72198,0c0.91025,0.00534 1.49368,0.58246 2.23068,0.95633c0.76773,0.38943 1.40482,0.897 1.76932,1.56451l0.31952,0.71249" id="svg_1" stroke-width="2" stroke="#000" fill="none"/>
  <path t="4448,4679,4680,4695,4695,4714,4714,4729,4729,4746,4761,4762,4779,4779,4795,4795,4829,4845,4845,4862,4862,5029,5328,5362,5362,5378,5395,5445,5445,5478,5511,5512,5545,5545,5578,5611,5644,5645,5661,5678,5711,5744,5745,5795,5795,5812,5812,5861,5894,5894,5978,6011,6061,6061,6111,6111,6128,6161,6161,6194,6211,6244,6245,6261,6261,6278,6294,6295,6311,6328,6361,6361,6378,6379,6395,6411,6411,6428,6444,6461,6461,6478,6479,6511,6528,6529,6564,6580,6595,6596,6611,6628,6629,6645,6662,6694,6695,6711,6728,6729,6744,6778,6778,6794,6795,6811,6831,6831,6861,6878,6879,6894,6928,6944,6945,6945,6961,6978,7011,7011,7028,7029,7061,7061,7078,7094,7095,7111,7111,7128,7144,7145,7161,7161,7178,7179,7194,7244,7245,7278,7294,7311,7311,7344,7345,7361,7378,7444,7494,7495,7563,7628,7694,7711,7711,7778,7828,7844,7878,7894,7895,7928,7961,7978,8011,8011,8044,8044,8061,8078,8078,8094,8111,8111,8144,8161,8161,8178,8178,8211,8228,8228,8244,8245,8261,8261,8278,8294,8294,8311,8311,8328,8329,8344,8361,8361,8378,8379,8394,8428,8428" d="m398,279c1.0625,-0.97916 1.68799,-0.99933 2.94818,-1c0.7905,-0.00043 1.71848,0 2.53098,0c1.00485,0 1.6955,0 2.76367,0c0.85751,0 1.5715,0 2.52518,0c0.98132,0 1.91415,0.13651 2.69034,-0.02084c0.89078,-0.18057 1.6998,-0.8746 2.54166,-0.95831c0.8295,-0.08249 1.6955,-0.02084 2.63599,-0.02084c0.84402,0 1.62402,0 0.84402,0c-0.95917,0 -1.89069,0 -2.80133,0c-0.67868,0 -1.79333,0 -2.67868,0c-0.75717,0 -1.65274,-0.00934 -2.51599,0c-0.96335,0.01044 -1.69031,0.53528 -2.58417,0.87851c-0.74155,0.28473 -1.82578,-0.1608 -2.5665,0.28815c-0.77185,0.4678 -1.48218,0.68292 -2.21869,1.004c-0.85733,0.37372 -1.19299,1.13339 -2.09314,1.58633c-0.76349,0.38416 -1.77869,0.24301 -2.67419,0.24301c-0.86331,0 -1.71133,0 -2.65182,0c-1.01682,0 -1.6955,0 -2.67398,0c-0.82019,0 -1.77869,0 -2.67419,0c-0.86331,0 -1.71133,0 -2.65182,0c-1.01682,0 -1.6955,0 -2.67398,0c-0.82019,0 -1.77869,0 -2.67419,0c-0.86331,0 -1.71133,0 -2.65182,0c-1.01682,0 -1.6955,0 -2.67398,0c-0.82019,0 -1.77869,0 -2.67419,0c-0.86331,0 -1.71133,0 -2.65182,0c-1.01682,0 -1.6955,0 -2.67398,0c-0.82019,0 -1.77869,0 -2.67419,0c-0.86331,0 -1.77466,0.32867 -2.64282,-0.009c-0.77927,-0.3031 -0.65576,-1.548 -1.56583,-1.91901c-0.90256,-0.36795 -1.62393,-0.26434 -2.22269,-0.78799c-0.56958,-0.49814 -1.55783,-0.66364 -2.26331,-0.93134c-0.99225,-0.3765 -1.49051,-0.93976 -1.70535,-1.7045c-0.29108,-1.0361 -1.11398,-1.48151 -1.94733,-1.64816c-0.83334,-0.16666 -1.69632,-0.41229 -2.38934,-0.98532c-0.70413,-0.58224 -0.69284,-1.59488 -1.47198,-1.95334c-0.90701,-0.4173 -1.77341,-0.55582 -2.52802,-1.03601c-0.64139,-0.40814 -1.02618,-1.37103 -1.47198,-1.84c-0.62,-0.65222 -1.70053,-1.07779 -2.13867,-1.70618c-0.49365,-0.70798 -0.88632,-1.36484 -1.65268,-2.13184c-0.52176,-0.52219 -1.26038,-1.11206 -1.80566,-1.82648c-0.58206,-0.76257 -0.70831,-1.6875 -1.04166,-2.52084c-0.33334,-0.83334 -0.5217,-1.59109 -0.92532,-2.41068c-0.44946,-0.91266 -0.37909,-1.71465 -1.01752,-2.56766c-0.4502,-0.6015 -1.56601,-0.52179 -2.27051,-1.10567c-0.58353,-0.48361 -0.67413,-1.5549 -0.93399,-2.26334c-0.3667,-0.99971 -0.20728,-2.13383 -0.92065,-2.56999c-0.64136,-0.39214 -1.35822,-0.78793 -1.42935,-1.60001c-0.09045,-1.03276 -0.8175,-1.4754 -0.99817,-2.24434c-0.2038,-0.86739 0.35635,-1.83484 -0.02533,-2.69666c-0.3497,-0.7896 -0.8913,-1.30855 -0.98816,-2.18983c-0.08728,-0.79424 -0.97687,-1.0309 -1.82166,-1.63583c-0.68628,-0.49144 -1.13223,-1.16272 -1.16949,-2.03717c-0.03482,-0.81755 -0.40576,-1.76347 -1.06119,-2.25349c-0.70874,-0.52986 -1.67166,-0.55757 -2.02133,-1.31201c-0.34216,-0.73825 -0.60657,-1.47092 -1.21283,-2.35616c-0.52478,-0.76628 -0.91455,-1.37836 -1.7045,-1.778c-0.88821,-0.44936 -0.88229,-1.21637 -1.35266,-2.222c-0.37997,-0.81239 -0.66534,-1.52672 -1,-2.40984c-0.2674,-0.70563 -0.42203,-1.71973 -1.09018,-2.44734c-0.47543,-0.51775 -1.51718,-0.77774 -2.0155,-1.42082c-0.65283,-0.84245 -0.40662,-1.66289 -0.54614,-2.722c-0.11548,-0.87677 -0.68988,-1.49971 -0.94736,-2.40984c-0.19394,-0.6855 -0.79935,-1.53601 -1.34283,-2.04283c-0.69864,-0.6515 -0.61374,-1.63467 -0.74133,-2.47917c-0.14523,-0.96126 -0.61133,-1.52083 -0.95331,-2.46133l-0.01068,-0.84799l0,-0.86334" id="svg_2" stroke-width="2" stroke="#000" fill="none"/>
  <path t="8946,9177,9178,9194,9194,9211" d="m420,262c-0.94284,3.54285 -0.99551,4.39551 -1,5.39868l0,0.76532l0,0.95065" id="svg_3" stroke-width="2" stroke="#000" fill="none"/>
  <path t="11264,11477,11477,11493,11493,11511,11511,11528,11529,11529,11545,11545,11545,11560" d="m418,261c-0.94284,2.60001 -0.99774,3.39999 -1,4.39999c-0.0018,0.80002 0,1.80017 0,2.62085c0,1.14581 -0.03018,1.9339 0.03601,2.75381c0.08585,1.06326 0.31665,1.76367 0.61133,2.56369l0.2955,0.90448" id="svg_4" stroke-width="2" stroke="#000" fill="none"/>
  <path t="15740,15872,15904,15922,15939,15939,15955,15955,15972,15973,15989,16005,16006,16023,16023,16039,16055,16056,16072,16089,16105,16105,16139" d="m286,198c1.79999,0 2.70856,0.0992 3.52084,-0.02083c0.9881,-0.146 1.68231,-0.54582 2.45782,-1.07918c0.67352,-0.46321 1.48572,-1.13846 2.19598,-1.46399c0.78467,-0.35963 1.82535,-0.436 2.58252,-0.436c0.89551,0 1.75882,0 2.74283,0c0.82132,0 1.67465,0 2.61465,0c0.98535,0 1.88535,0 2.68533,0l0.84283,0" id="svg_5" stroke-width="2" stroke="#000" fill="none"/>
  <path t="16492,16689,16689,16706,16706,16722,16722,16722,16739,16739,16739,16755,16756,16772,16772,16789,16789,16822,16822" d="m288,200c2.60001,2.23833 3.17343,2.65083 4.20016,2.87849c0.80722,0.17899 1.96649,0.12151 2.7525,0.12151c0.82199,0 1.88068,0 2.59018,0c0.85266,0 1.85715,0 2.65717,0c0.99982,0 1.77914,0 2.77866,0l0.77399,0l0.89551,0l0.7825,0" id="svg_6" stroke-width="2" stroke="#000" fill="none"/>
  <path t="17058,17206,17209,17224,17240,17257,17258,17273,17289,17306,17322,17339,17340,17356" d="m302,194c-3.94266,3.02933 -4.79068,3.63899 -4.97916,4.5c-0.19479,0.88983 -0.02145,1.82133 -0.02084,2.67467c0.00067,0.93866 0.28235,1.78262 1.20001,1.82533c0.89902,0.04184 1.79999,0 2.59998,0l0.90002,0" id="svg_7" stroke-width="2" stroke="#000" fill="none"/>
  <path t="19918,20065,20083,20107,20108,20133,20134,20134,20151,20151,20168,20199,20199,20232" d="m333,145c-3.18115,-3.77583 -3.78558,-4.44196 -4.28534,-5.19867c-0.40213,-0.60892 -1.3934,-0.79713 -2.19867,-1.36932c-0.54858,-0.3898 -1.35788,-1.08067 -2.10532,-1.44667c-0.82053,-0.40179 -1.51068,-1.08534 -2.01068,-1.58534l-0.69998,-0.7" id="svg_8" stroke-width="2" stroke="#000" fill="none"/>
  <path t="20618,20799,20799,20815,20832,20832,20849,20849,20866,20866,20882,20882,20900,20915,20931,20965,21049,21049,21099,21149,21149,21165,21199,21214,21249,21315,21365,21399,21399,21449,21499,21532,21566,21582,21615,21665,21665,21686,21716,21732,21749,21765,21782,21799,21799,21815,21815,21832,21849,21865,21882,21899,21915,21932,21932,21949,21966,21983,22002,22002,22019,22036" d="m333,143c-3.66,-4.85867 -3.99091,-5.71161 -4.52084,-6.52083c-0.44055,-0.67276 -0.87485,-1.6024 -1.64581,-2.14584c-0.57785,-0.40732 -1.41626,-0.71159 -1.884,-1.48267c-0.44412,-0.73213 -1.41144,-0.67981 -2.18768,-1.20782c-0.81079,-0.55153 -0.9769,-1.58194 -1.86166,-1.64284c-0.89786,-0.0618 -1.75043,-0.01314 -2.39999,-0.52083c-0.76846,-0.60062 -1.24588,-1.33987 -1.89999,-1.86851c-0.74408,-0.60133 -1.33789,-1.22088 -2.03601,-1.57466c-0.77133,-0.39088 -1.82089,0.12676 -2.664,-0.25734c-0.78,-0.35534 -1.49994,-0.77333 -2.39999,-0.77866c-0.89996,-0.00533 -1.79999,0 -2.69867,0c-0.88535,0 -1.80133,0 -2.60132,0c-0.90002,0 -1.80002,0 -2.70001,0c-0.89999,0 -1.79999,0 -2.70132,0c-0.96533,0 -1.79868,0 -2.63202,0c-0.86215,0 -1.76666,0 -2.66666,0c-0.89999,0 -1.79999,-0.00008 -2.70001,0c-0.89999,0.00008 -1.77008,0.21456 -2.39999,0.57467c-0.8642,0.49403 -1.73764,0.75126 -2.27884,1.52516c-0.49451,0.70714 -1.12115,0.90017 -2.01132,1.25733l-0.39517,0.84151" id="svg_9" stroke-width="2" stroke="#000" fill="none"/>
  <path t="28218,28845,28862,28881,28896,28912,28912,28929,28929,28929,28946,28946,28962,28979,28979,28995,29012,29012,29045,29046,29046,29062,29063,29079,29079,29095,29112,29112,29129,29129,29162,29195,29195,29212,29212,29229" d="m319,227c-0.02084,3.4375 -0.52069,3.98958 -1.5,4c-0.80447,0.00856 -1.8215,0 -2.52084,0c-0.97916,0 -1.77914,0 -2.57916,0c-0.99548,0 -1.91467,0 -2.89999,0c-0.82132,0 -1.67871,0.08598 -2.61465,-0.00133c-0.89676,-0.08366 -1.52054,-0.64613 -2.20685,-1.32001c-0.51392,-0.50459 -1.04712,-1.07491 -2.07718,-1.79333c-0.56219,-0.39211 -1.40656,-0.92572 -2.08047,-1.3645c-0.79517,-0.51775 -1.71024,-0.63817 -2.52084,-1.04166c-0.86057,-0.42834 -1.42422,-1.0723 -2.3045,-1.4265c-0.82532,-0.33208 -1.52084,-0.47801 -2.52884,-0.886l-0.75598,-0.192l-0.81067,-0.40001" id="svg_10" stroke-width="2" stroke="#000" fill="none"/>
  <path t="31516,31710,31728,31728,31746,31746,31762,31777,31777,31794,31810,31811,31827,31844,31877,31877,31929,32094,32127,32177,32227,32260,32277,32294,32310,32327,32327,32344,32360,32379,32394,32394,32410,32444,32460,32461,32477,32494,32510,32544,32544,32561,32578,32578,32594,32610,32644,32644,32644,32660,32660,32677,32694,32694,32711,32727,32744,32760,32761,32794,32794,32810,32833,32858,32859,32883,32900,32919,32936,32951" d="m321,222c-0.96399,3.33867 -1,4.32133 -1,5.17467c0,0.94133 0,1.70934 0,2.65067c0,1.008 0,1.76401 0,2.6955c0,0.96317 0,1.65384 0,2.722c0,0.85718 0.0372,1.75804 0,2.55717c-0.04272,0.91763 -0.80133,1.19933 -1.70001,1.2c-0.89999,0.00067 -1.79999,-0.00226 -2.69998,0c-0.89551,0.00226 -1.46826,0.71552 -2.14166,0.97917c-0.87772,0.34364 -1.80566,0.02083 -2.70117,0.02083c-0.95718,0 -1.85718,0 -2.75717,0c-0.79999,0 -1.70001,0 -2.63599,0c-0.84802,0 -1.71133,0 -2.60684,0c-0.95718,0 -1.91776,0.19817 -2.75717,-0.16667c-0.68457,-0.29753 -1.21674,-1.25949 -2,-1.66666c-0.74384,-0.38667 -1.45151,-0.76796 -2.3045,-1.114c-0.97604,-0.39597 -1.71793,-0.57027 -2.29681,-0.854c-0.99692,-0.48862 -1.73898,-0.84909 -2.64151,-1.146c-0.85483,-0.2812 -1.57269,-0.73116 -2.35718,-1.078c-0.81802,-0.36169 -1.60059,-0.88335 -2.50015,-0.97484c-0.78574,-0.07993 -1.74643,-0.39824 -2.41583,-0.80116c-0.75302,-0.45326 -1.57788,-1.13779 -2.48401,-1.19867c-0.79819,-0.05363 -1.70001,0 -2.60001,-0.036l-0.79999,-0.38934l-0.69983,-0.45316l-0.89569,-0.17867" id="svg_11" stroke-width="2" stroke="#000" fill="none"/>
  <path t="34964,35126,35126,35126,35127,35146,35146,35146,35146,35147,35147,35160,35161,35161,35161,35161,35161,35161,35177,35178,35178,35178,35178,35193,35194,35194,35194,35194,35210,35210,35210,35210,35210,35226,35227,35227,35227,35326,35326,35343,35360,35360,35360,35376,35377,35377,35377,35393,35394,35394,35394,35409,35410,35410,35410,35411,35427,35427,35427,35427,35443,35444,35444,35459,35460,35460,35476,35477,35526,35542,35543,35560,35561,35561,35578,35578,35578,35594,35595,35595,35610,35610,35610,35611,35626,35627,35627,35627,35643,35644,35644,35644,35659,35660,35676,35677,35726,35743,35744,35759,35760,35760,35776,35777,35777,35777,35777,35793,35794,35794,35794,35794,35809,35810,35810,35810,35810,35826,35827,35827,35827,35827,35827,35843,35844,35844,35844,35844,35859,35860,35860,35860,35861,35879,35880,35880,35880,35900,35901,35901,35922,35922,35942,35961,35981,35998,35999,35999,36017,36017,36017,36029,36029,36030,36030,36030,36041,36042,36042,36042,36042,36053,36053,36053,36053" d="m284,235c3.888,-1.82933 4.65662,-1.94165 5.48267,-1.97867c0.43588,-0.01953 1.85068,-0.0237 2.888,-0.02c0.54367,0.00194 1.10153,0.00131 2.25067,0.03467c0.5878,0.01706 2.37915,0.12556 2.97815,0.18567c0.59705,0.05991 1.76959,0.2188 2.33801,0.32001c0.5556,0.09894 1.62418,0.29201 2.99832,0.77983c0.41684,0.14798 1.18079,0.50826 1.90417,0.88916c0.73001,0.3844 1.89981,0.99597 2.76984,1.38934c0.44995,0.20345 1.37598,0.59889 1.84201,0.79999c1.3829,0.59674 2.26208,0.99599 2.68198,1.20001c0.80746,0.39233 1.57269,0.76019 2.53284,1.39999c0.84265,0.56152 1.27307,1.0022 1.93066,1.51466c0.96753,0.754 2.18143,1.38255 2.22217,0.77634c0.056,-0.83371 -1.39325,-0.77907 -2.13815,-1.26167c-0.79837,-0.51726 -1.45569,-1.29092 -1.90668,-1.81467c-0.45834,-0.53227 -1.45181,-1.54254 -2.02133,-1.98933c-0.59039,-0.46318 -1.24582,-0.90123 -2.27451,-1.64682c-0.73117,-0.52995 -1.10382,-0.8017 -1.81747,-1.38918c-0.70242,-0.57825 -1.63193,-1.47739 -2.147,-2.08482c-0.48575,-0.57286 -0.88074,-1.16704 -1.71436,-2.18301c-0.38873,-0.47379 -0.99731,-1.11348 -1.79999,-1.92149c-0.59351,-0.59747 -1.164,-1.164 -1.83334,-1.83333c-0.53067,-0.53067 -2.01907,-1.24222 -1.66666,-2c0.33047,-0.7106 1.66736,-0.19223 2.45267,-0.15767c0.82361,0.03624 1.92087,0.25786 2.58566,0.70534c0.66119,0.44507 1.31503,1.27243 1.70901,1.89017c0.53296,0.83566 1.06696,1.82173 1.41431,2.35266c0.37219,0.56886 0.77371,1.16893 1.75952,2.34283c0.51355,0.61154 1.07648,1.18471 1.569,1.8c0.70358,0.87898 1.05881,1.48912 1.33783,2.08932c0.39099,0.84105 0.77695,1.88684 1.06134,2.564c0.45218,1.07661 0.99789,1.94559 0.569,2.72585c-0.39536,0.71922 -1.4245,0.51857 -2.38,0.52083c-0.82501,0.00194 -1.73999,0.00093 -2.745,0c-0.72,-0.00067 -1.48044,0.00014 -2.28,-0.036c-0.84058,-0.03798 -2.17612,-0.1759 -3.10602,-0.32117c-0.47345,-0.07396 -1.42331,-0.24719 -2.36331,-0.44417c-0.91867,-0.1925 -1.80023,-0.39777 -2.65869,-0.59866c-0.85086,-0.19911 -1.7085,-0.40375 -2.59198,-0.60001c-0.91782,-0.20389 -1.8692,-0.40068 -2.35419,-0.5c-0.98337,-0.20139 -1.48059,-0.29953 -2.979,-0.60001c-0.99573,-0.19968 -1.48981,-0.29831 -2.46414,-0.5c-0.47903,-0.09917 -1.86926,-0.40039 -2.75067,-0.59866c-0.84924,-0.19104 -1.67126,-0.38498 -2.48401,-0.51599c-1.19666,-0.19289 -1.99194,-0.23772 -2.75967,-0.26451c-0.72708,-0.02538 -1.70831,-0.02083 -2.76965,-0.02083c-0.66299,0 -1.67068,0 -2.61484,0c-0.89999,0 -2.10901,-0.32967 -2.57184,0.28667c-0.53091,0.70699 -0.09674,1.75905 0,2.39999c0.15228,1.0089 0.45224,1.86591 0.73352,2.47501c0.47333,1.02504 0.9415,1.72838 1.44247,2.46367c0.51486,0.75566 0.79333,1.11995 1.57202,2.20799c0.48575,0.67874 0.93243,1.33606 1.42798,1.92c0.48923,0.57649 1.3815,1.32533 2.04852,1.79401l0.711,0.45267l0.73099,0.45267" id="svg_12" stroke-width="20" stroke="#fff" fill="none"/>
  <path t="40186,40448,40464,40481,40498,40499,40514,40531,40551,40552,40564,40581,40581,40598,40614,40631,40648,40648,40664,40681,40698,40698,40731" d="m323,234c-1.70001,-0.9955 -2.60001,-1 -3.52084,-1c-0.96317,0 -1.65381,0 -2.72198,0c-0.85718,0 -1.75717,0 -2.55716,0c-0.95718,0 -1.85269,0 -2.716,0c-0.84802,0 -1.784,0 -2.68533,0c-0.96533,0 -1.77783,0 -2.68884,0c-0.87149,0 -1.76251,0 -2.62582,0l-0.84802,0" id="svg_13" stroke-width="2" stroke="#000" fill="none"/>
  <path t="42986,43214,43214,43231,43248,43249,43249,43264,43264,43280,43298,43298,43314,43314,43330,43331,43348,43348,43364,43364,43380,43381,43398,43398,43414,43414,43430,43431,43448,43448,43464,43464,43480,43498,43514,43514,43531" d="m301,239c-3.53833,-1.88567 -4.34232,-1.9185 -5.24734,-2.0045c-0.92932,-0.0883 -1.57086,-0.47287 -2.35397,-0.7115c-0.97641,-0.29753 -1.94092,-0.30617 -2.7627,-0.70934c-0.87128,-0.42744 -1.54581,-0.59915 -2.46133,-1.01067c-0.71265,-0.32033 -1.53027,-0.9895 -2.05865,-1.364c-0.91074,-0.64551 -1.6489,-0.97612 -2.36334,-1.5c-0.65283,-0.4787 -1.44904,-0.94365 -2.09998,-1.45717c-0.8298,-0.6546 -1.19473,-1.44955 -1.75269,-2.22133c-0.46249,-0.63971 -1.23975,-1.29401 -1.69998,-1.90683c-0.54999,-0.73235 -0.83789,-1.50691 -1.5,-2.3575c-0.45923,-0.58997 -1.17917,-1.25717 -1.64734,-2.05717l-0.27417,-0.79984l-0.57983,-0.61482l-0.84149,-0.33801" id="svg_14" stroke-width="2" stroke="#000" fill="none"/>
  <path t="44452,45380,45380,45415,45415,45431,45431,45447,45463,45464,45480,45480,45498,45498,45513,45530,45530,45547,45563,45582,45582,45598,45598,45614,45630,45630,45647,45648,45664,45680,45697,45714,45730,45730,45747,45763,45780,45813,45814,45830,45847,45848,45863,45864,45880,45880,45897,45913,45914,45930,45930,45931,45947,45963,45980,45997,45998,46013,46030,46047,46075,46075,46104,46104,46106,46106,46127,46128,46153,46153,46155,46176,46176,46198,46199,46200,46200,46200,46223,46245,46245,46267,46267,46287,46288,46307,46315,46344,46344,46353" d="m277,219c-2.82849,-4.133 -2.99799,-4.88133 -3,-5.836c-0.00162,-0.76534 0,-1.75951 0,-2.67867c0,-0.86 0,-1.80684 0,-2.696c0,-0.98917 0,-1.76851 0,-2.76784c0,-0.717 0,-1.6575 0,-2.50549c0,-0.86334 0,-1.88 0,-2.71735c0,-0.96533 0.03873,-1.79944 -0.00015,-2.77716c-0.02859,-0.71869 -0.61172,-1.49843 -0.87851,-2.34283c-0.26086,-0.82562 -0.48837,-1.74747 -0.83734,-2.47733c-0.36523,-0.76384 -0.12692,-1.71706 -0.29468,-2.60133c-0.17947,-0.94592 -0.7262,-1.63689 -1.07333,-2.40001c-0.38858,-0.85426 -0.78146,-1.60986 -0.92047,-2.5c-0.1279,-0.81898 -0.78839,-1.32434 -1.38486,-2.11066c-0.52988,-0.69852 -0.47736,-1.62938 -0.832,-2.56801c-0.26044,-0.68935 -0.72733,-1.50282 -0.77417,-2.36867c-0.05551,-1.02594 -0.19,-1.81221 -0.50449,-2.67349c-0.35477,-0.9716 -0.3913,-1.78609 -0.58401,-2.49384c-0.24051,-0.88319 -0.61423,-1.86615 -1.27316,-2.43266c-0.68765,-0.59119 -1.27753,-0.88829 -1.6955,-1.75267c-0.39572,-0.81836 -1.34439,-1.11177 -1.94733,-1.63333c-0.63025,-0.54518 -1.09314,-1.4413 -1.88535,-1.74934c-0.76099,-0.2959 -1.5433,-0.60136 -2.22931,-1.40132c-0.54556,-0.63617 -0.95782,-1.51811 -1.48535,-2.10535c-0.66661,-0.74207 -1.39999,-1.41066 -1.89999,-1.91066c-0.70134,-0.70134 -1.25717,-1.25717 -1.98399,-1.98399c-0.51601,-0.51601 -1.03201,-1.03201 -1.88,-1.88c-0.636,-0.636 -1.22424,-1.11432 -1.55333,-2.12c-0.21942,-0.67055 -0.66199,-1.61714 -1.23201,-2.10535c-0.69415,-0.59451 -0.85083,-1.51067 -1.01733,-2.41066l-0.53783,-0.64284l-0.77467,-0.35716" id="svg_15" stroke-width="2" stroke="#000" fill="none"/>
  <path t="48084,48213,48230,48230,48248,48248,48264,48265,48280,48280,48297,48313,48313,48330,48347,48363,48363,48380,48380,48397,48397,48413,48413,48430,48430,48447,48463,48463,48480,48480,48497,48497,48513,48547,48547,48563,48563,48781,48781,48782,48782" d="m289,130c-3.33865,0.01067 -4.3382,0.18582 -5,0.52083c-0.85767,0.43416 -1.43771,1.02472 -2.20132,1.67784c-0.65112,0.55692 -1.45038,0.76234 -2.31467,0.8c-0.98334,0.04285 -1.81076,0.20999 -2.62268,0.57599c-0.86752,0.39107 -1.75757,0.29039 -2.69467,0.59201c-0.7095,0.22836 -1.48294,0.76227 -2.34131,0.82266c-0.93909,0.06607 -1.70935,0.01067 -2.66135,0.01067c-0.76532,0 -1.75949,0 -2.67868,0c-0.98532,0 -1.81174,-0.06412 -2.69598,0.036c-1,0.11322 -1.74347,0.53709 -2.62268,0.79733c-0.74017,0.21909 -1.6875,0.16667 -2.65198,0.16667c-0.72534,0 -1.71451,0 -2.49384,0c-0.99934,0 -1.8195,0 -2.64584,0l-0.687,0" id="svg_16" stroke-width="2" stroke="#000" fill="none"/>
  <path t="49216,49497,49513,49530,49553,49553,49575,49605,49631,49655,49729,49730" d="m254,139c-7.31866,-2.744 -8.2215,-3 -9.10001,-3c-0.89999,0 -1.7,0 -2.59999,0c-0.90001,0 -1.8,-0.02083 -2.60001,-0.35266l-0.8,-0.52583l-0.7,-0.12018" id="svg_17" stroke-width="2" stroke="#000" fill="none"/>
  <path t="50565,50763,50763,50780,50797,50797,50822,50822,50846,50847,50847,50871,50871,50893,50893,50915,50916,50917,50938,50938,50957,50978,50978,50998,50998,51018,51018,51048,51049,51070,51072,51073,51092,51112,51112,51132,51154,51174,51194,51215,51215,51216,51236,51257,51279,51280,51301,51325,51346,51368,51392,51392,51415,51417,51446,51479,51496,51497,51518,51542,51550,51573,51573,51580,51607,51607,51631,51631,51633,51633,51654,51675,51675,51698,51698,51698,51700,51721,51729,51752,51753,51776,51776,51799,51799,51799,51801,51824,51824,51848,51848,51849,51849,51870,51890,51911,51929,51930,51962,51996,51996,52018,52029,52052,52062,52096,52097,52119,52129,52130,52163,52196,52197,52212,52235,52246,52296,52312,52334,52346,52362,52379,52396,52429,52429,52447,52463,52463,52481,52530,52579,52580,52629,52647,52647,52662,52680,52696,52712,52713,52729,52747,52748,52762,52779,52796,52812,52813,52829,52846,52847,52862,52879,52896,52897,52912,52913,52929,52946,52947,52962,52979,52980,52996,52997,52997,53012,53029,53046,53062,53079,53112,53113,53129,53146,53147,53162,53179,53180,53196,53197,53212,53229,53246,53247,53262,53279,53296,53297,53313,53329,53346,53362,53379,53380,53396,53397,53429,53446,53447,53462,53479,53496,53497,53512,53529,53530,53546,53562,53579,53579,53595,53612,53629,53647,53662,53680,53696,53712,53729,53746,53762,53763,53779,53812,53837,53862,53879,53896,53896,53912,53913,53929,53946,53962,53963,53979,53996,54012,54029,54079,54079,54096,54179,54179,54229,54246,54262,54346,54412,54429,54462,54496,54546,54597,54612,54647,54696,54696,54729,54762,54779,54779,54796,54796,54812,54813,54829,54846,54846,54862,54879,54879,54896,54912,54929,54946,54947,54962,54963,54979,54979,54996,55012,55013,55013,55029,55029,55046,55047,55062,55078,55079,55096,55112,55128,55146,55162,55162,55178,55196,55196,55212,55213,55228,55229,55246,55262,55278,55279,55296,55297,55323,55337,55378" d="m248,134c-6.688,0.91467 -7.53595,0.99466 -8.41066,1c-0.91066,0.00555 -1.76401,0 -2.70534,0c-0.76801,0 -1.70934,0 -2.71733,0c-0.79201,0 -1.65201,0 -2.57117,0c-0.99417,0 -1.75951,0 -2.7115,0c-0.76801,0 -1.70934,0 -2.71733,0c-0.75601,0 -1.6875,0 -2.65201,0c-0.72533,0 -1.71449,0 -2.49384,0c-0.9995,0 -1.90483,0 -2.84616,0c-0.69067,0 -1.76401,0 -2.57466,0c-0.90001,0 -1.85687,-0.16277 -2.70001,0.22133c-0.78001,0.35535 -1.52,0.60817 -2.39999,0.7995c-0.84633,0.18401 -1.5984,0.87025 -2.5,0.97917c-0.79874,0.0965 -1.48747,0.65611 -1.97467,1.38933c-0.41156,0.6194 -1.53413,0.46007 -2.164,0.64667c-0.93034,0.2756 -1.15128,1.35716 -1.96117,1.84267c-0.72992,0.43758 -1.37457,0.89099 -2.0495,1.14667c-0.894,0.33867 -1.45334,0.98112 -1.90334,1.67917c-0.50012,0.7758 -1.2549,1.41689 -1.66199,2.0955c-0.44148,0.73595 -0.8027,1.55038 -1.20134,2.39999c-0.40372,0.86044 -0.74408,1.548 -1.384,2.0955c-0.75232,0.64366 -1.53415,0.84514 -2.11066,1.56583c-0.50581,0.63231 -1.28706,1.31834 -1.8795,1.83417c-0.72765,0.63354 -1.16174,1.3925 -1.73067,1.82533c-0.82603,0.62845 -1.40009,1.2733 -1.6925,1.99518c-0.3773,0.9314 -0.53392,1.89719 -1.3075,2.48399c-0.61679,0.46788 -1.51744,0.83212 -1.87384,1.65717c-0.30791,0.7128 -0.64996,1.7616 -1.12616,2.32201c-0.47285,0.55649 -1.34317,1.38483 -1.97917,2.02083c-0.5,0.5 -1.24007,1.16776 -1.7,1.75717c-0.66081,0.84688 -1.00215,1.53072 -1.68933,2.18149c-0.61259,0.58014 -0.95309,1.37517 -1.61067,2.06134c-0.58711,0.61263 -1.3553,1.09763 -1.83333,2c-0.34338,0.64822 -0.62306,1.52615 -1.114,2.2955c-0.45009,0.70534 -1.48404,0.96902 -1.886,1.7045c-0.40205,0.73566 -0.70847,1.48029 -1.36534,2.2c-0.53348,0.5845 -0.78365,1.45033 -1.08533,2.284c-0.31873,0.88078 -0.55867,1.82545 -1.06866,2.46333c-0.5304,0.66339 -0.64734,1.45267 -0.64734,2.35268c0,0.89999 -0.30475,1.85861 0.01067,2.67467c0.30646,0.79289 0.83319,1.48938 1.27467,2.22533c0.40709,0.67862 1.2411,1.27457 1.91333,2c0.53789,0.58046 0.71732,1.46637 1.23734,2.2c0.55797,0.78714 1.164,1.20001 1.864,1.90001c0.7,0.7 1.35735,1.16881 2.08932,1.67467c0.67398,0.46577 0.94257,1.34941 1.61067,2.02533c0.57889,0.58565 1.46405,0.84386 2.2,1.28534c0.67862,0.40709 1.24318,1.23697 1.74733,2.01016c0.457,0.70087 1.26428,0.97664 1.85268,1.50583c0.7357,0.66167 1.55183,0.95808 2.33867,1.224c0.85191,0.2879 1.29581,1.22504 1.69466,1.97467c0.35352,0.66444 1.00516,1.44016 1.68401,1.71466c0.93578,0.37842 1.63902,0.88591 2.08267,1.43468c0.64078,0.7926 1.52635,1.04196 2.15717,1.61234c0.76007,0.68726 1.24203,1.23914 1.75883,1.75433c0.72569,0.72345 1.72714,1.13954 2.36266,1.70532c0.60037,0.53448 1.39064,0.58978 2.22134,1.00017c0.69057,0.34116 1.18925,1.08942 1.89999,1.7785c0.59122,0.57321 1.45044,0.86722 2.20134,1.28534c0.74857,0.41682 1.51445,0.92247 2.08882,1.41466c0.80173,0.68701 0.94675,1.79543 1.80984,2.1785c0.64917,0.28813 1.66238,0.08473 2.39999,0.64233c0.7773,0.5876 1.26826,1.3147 2.10001,1.46851c0.88553,0.16376 1.84662,0.40802 2.27882,1.11067c0.52824,0.8588 0.93802,1.40364 1.9545,1.73332c0.78113,0.25336 1.53384,0.51398 2.16667,1.16667c0.57321,0.59122 0.88495,1.44319 1.35266,2.3c0.40685,0.74533 0.65961,1.55025 1.16817,2.2c0.60115,0.76804 1.35719,1.23196 1.95834,2c0.50856,0.64975 0.63544,1.71837 1.22533,2.14284c0.79041,0.56876 1.73563,0.76048 2.2115,1.55583c0.41394,0.69183 1.09897,1.18892 1.65866,1.82666c0.51746,0.5896 1.22107,1.06821 1.92534,1.47467c0.79384,0.45816 1.81181,0.69289 2.21466,1.30133c0.54388,0.82144 1.06604,1.31796 1.88535,1.77333c0.78178,0.43451 1.54326,0.80284 2.39999,1.25867c0.66444,0.35352 1.18471,0.96666 1.8,1.59868c0.69038,0.70914 1.59999,1.004 2.2,1.56799c0.60001,0.564 1.55766,0.93799 2.02533,1.61067c0.5025,0.72281 1.22736,1.17604 1.97467,1.55598c0.66536,0.33829 1.3,1.13333 2,1.83334c0.564,0.564 0.94724,1.39551 1.42534,1.97467c0.54019,0.65436 1.27924,1.01248 2.17467,1.02533c0.87932,0.01263 1.55888,0.51804 2.116,1.08401c0.66061,0.67111 0.96165,1.48285 1.72,1.87997c0.76625,0.40125 1.7811,0.30212 2.364,0.83734c0.6188,0.56818 1.39699,1.15594 2.30016,1.19867c0.7843,0.03708 1.73584,0 2.50116,0c0.99417,0 1.74152,0 2.77335,0c0.94666,0 1.79999,0 2.73999,0c0.88535,0 1.68552,0.01801 2.58536,0c0.90054,-0.01801 1.78925,-0.37595 2.21732,-1.20132c0.33563,-0.64713 0.78024,-1.46292 1.43451,-2.146c0.61514,-0.64224 1.20917,-1.23804 1.63348,-2.06335c0.46597,-0.90634 0.86963,-1.42081 1.53201,-2.10532c0.71417,-0.73804 1.284,-1.34708 1.42551,-2.13669c0.15262,-0.85156 0.02393,-1.84793 0.0585,-2.82999c0.02847,-0.80891 0.62479,-1.45168 0.94598,-2.22267c0.37921,-0.9102 0.78214,-1.51082 1.21933,-2.29466c0.36359,-0.65189 1.14807,-1.28557 1.83334,-2c0.4899,-0.51074 0.83633,-1.3297 1.02533,-2.17467c0.21286,-0.95178 0.83636,-1.57039 1.36401,-2.22533c0.60089,-0.74583 0.91742,-1.65211 1.258,-2.35718c0.40894,-0.84654 0.43668,-1.67349 1.05716,-2.291l0.77466,-0.47266l0.46368,-0.77917" id="svg_18" stroke-width="2" stroke="#000" fill="none"/>
  <path t="57733,58578,58595,58861,58879,58895,58912,58928,58928,58945,58945,58961,58978,58995,58996,59011,59011,59028,59045,59061,59061,59078,59095,59095,59111,59128,59129,59145,59145,59171,59199,59199,59201,59228,59230,59230,59256,59256,59280,59303,59327,59328,59328,59352,59353,59387,59389,59412,59414,59436,59437,59460,59462,59462,59486,59486,59509,59532,59532,59555,59579,59579,59602,59602,59604,59606,59630,59631,59655,59678,59678,59702,59727,59761,59786,59815,59817,59846,59848,59848,59877,59905,59929,59929,59931,59955,59955,59978,59980,60004,60028,60030,60030,60054,60078,60078,60102,60102,60126,60148,60171,60172,60195,60195,60219,60221,60245,60247,60270,60270,60295,60295,60319,60319,60343,60343,60366,60389,60413,60413,60437,60439,60463,60465,60488,60511,60535,60559,60559,60583,60611,60636,60664,60664,60690,60717,60727,60761,60786,60786,60814,60842,60869,60871,60896,60898,60934,60964,60964,60990,60990,61016,61017,61043,61051,61051,61076,61099,61123,61146,61155,61157,61157,61180,61182,61206,61229,61231,61231,61255,61255,61279,61281,61281,61305,61306,61330,61330,61331,61355,61355,61356,61379,61381,61381,61406,61406,61431,61431,61433,61456,61456,61465,61465,61489,61489,61514,61516,61516,61540,61564,61566,61590,61613,61614,61638,61647,61677,61704,61704,61727,61753,61794,61811,61838,61848,61876,61911,61911,61928,61979,62012,62012,62061,62077,62110,62127,62161,62194,62195,62227,62277,62294,62295" d="m179,171c3.45833,-0.02083 4.23679,-0.46112 5,-0.83333c0.49765,-0.24269 -0.44453,-0.26213 -1.2,0.11732c-0.8672,0.43558 -1.56955,0.73401 -2.45267,1.06866c-0.70563,0.2674 -1.5992,0.50502 -2.54733,0.64867c-0.91621,0.13881 -1.52795,0.75676 -2.45267,0.94151c-0.68317,0.13649 -1.75877,-0.04842 -2.54733,0.34116c-0.87007,0.42984 -1.60001,0.71533 -2.436,0.716c-0.84799,0.00067 -1.72476,-0.15433 -2.728,0.01067c-0.86914,0.14294 -1.50069,0.80417 -2.46133,0.95334c-0.68335,0.10611 -1.67467,0.036 -2.65866,0.036c-0.86334,0 -1.76387,-0.09671 -2.716,0.00133c-0.81262,0.08366 -1.39479,0.71693 -2.44817,0.94151c-0.76724,0.16357 -1.709,0.05716 -2.65184,0.05716c-0.89999,0 -1.80017,0 -2.58533,0c-0.94,0 -1.63068,0 -2.70401,0c-0.91066,0 -1.81065,0 -2.71066,0c-0.90134,0 -1.58533,0 -2.52533,0c-1.008,0 -1.8,0 -2.65866,0c-0.86334,0 -1.89067,0 -2.83734,0c-0.67867,0 -1.65717,0 -2.67867,0c-0.75717,0 -1.65266,0 -2.51601,0c-0.96317,0 -1.88399,0 -2.784,0c-0.89999,0 -1.8,0 -2.7,0c-0.8,0 -1.64283,0 -2.52084,0c-0.97916,0 -1.87917,0 -2.77917,0c-0.89999,0 -1.8,0 -2.7,0c-0.8,0 -1.60275,-0.03033 -2.41067,-0.42534c-0.91382,-0.44678 -1.58916,-0.56424 -2.56783,-0.57466c-1.02144,-0.01086 -1.84538,0.16132 -2.6215,-0.036c-0.86229,-0.21921 -1.59697,-0.9213 -2.5,-0.964c-0.89899,-0.04253 -1.7,0 -2.65717,0c-0.9,0 -1.64734,0 -2.6415,0c-0.76534,0 -1.84417,0 -2.70133,0c-0.9,0 -1.65717,0 -2.55267,0c-0.86333,0 -1.8265,0 -2.73667,0c-0.96783,0 -1.812,0 -2.77733,0c-0.83334,0 -1.66667,0 -2.58601,0c-0.9045,0 -1.65183,0 -2.646,0c-0.76534,0 -1.84417,0 -2.70133,0c-0.9,0 -1.7,0 -2.6,0c-0.9,0 -1.8,0 -2.7,0c-0.9,0 -1.8,0 -2.7,0c-0.9,0 -1.73444,-0.19595 -2.6,0.05716c-0.87764,0.25664 -1.67601,0.72733 -2.39983,1.16434c-0.72349,0.4368 -0.89924,1.56862 -1.7015,1.77718c-0.8716,0.22659 -1.68948,0.53185 -2.29867,1.10117c-0.59122,0.55254 -1.62221,0.74739 -2.28934,1.33617c-0.69492,0.6133 -0.94193,1.42146 -1.58533,1.98933c-0.5944,0.52461 -1.33916,0.91708 -2.02533,1.57466c-0.61263,0.58711 -1.20455,1.19548 -1.8,1.8c-0.68443,0.69485 -0.97844,1.65729 -1.636,2.17467c-0.64817,0.50999 -1.28865,0.91432 -2.064,1.5045c-0.73447,0.55907 -1.37573,1.05998 -2.02083,1.52083c-0.69744,0.49825 -1.56664,0.92842 -2.04317,1.60001c-0.51488,0.72565 -1.06398,1.38791 -1.46133,2.01067c-0.4786,0.75008 -1.11175,1.45715 -1.57467,2.02533c-0.65546,0.80449 -0.90657,1.60139 -1.7,2.25867c-0.63616,0.52699 -1.07085,1.22871 -1.8,1.86267c-0.61245,0.53249 -1.27952,1.11693 -1.7,1.75999c-0.57267,0.87582 -1.23125,1.63184 -1.58933,2.308c-0.3573,0.6747 -0.5161,1.75848 -1.18,2.37466c-0.53835,0.49965 -1.47398,0.83427 -2.02,1.436c-0.7017,0.7733 -1.01368,1.52496 -1.32667,2.47867c-0.28691,0.87425 -0.7301,1.49777 -1.284,2.36932c-0.42811,0.67361 -0.9569,1.45508 -1.364,2.10535c-0.48221,0.77025 -0.78252,1.72032 -1.23734,2.21066c-0.66264,0.7144 -0.9856,1.64667 -1.63467,2.17467c-0.7298,0.59367 -1.45324,1.01579 -1.56266,1.82533c-0.12081,0.89377 -0.575,1.66306 -0.94867,2.5c-0.34475,0.77216 -0.88591,1.47168 -1.04817,2.39999c-0.15512,0.88747 -0.47038,1.67534 -0.88317,2.39984c-0.45111,0.79178 -0.97064,1.26814 -1.12583,2.20016c-0.13614,0.81761 -0.47754,1.63707 -1.04817,2.34283c-0.59108,0.73108 -0.94733,1.35716 -0.94733,2.15717c0,0.89999 0.00195,1.81961 -0.42533,2.59999c-0.45038,0.82257 -0.57467,1.70001 -0.57467,2.60001c0,0.8 0,1.7 0,2.52083l0,0.96584l0,0.76001" id="svg_19" stroke-width="2" stroke="#000" fill="none"/>
  <path t="62630,63477,63507,63507,63539,63541,63541,63546,63563,63577,63577,63594,63610,63627,63644,63644,63677,63694,63710,63727,63744,63777,63810,63810,63827,63844,63845,63860,63877,63910,63927,63960,63977,64010,64011,64027,64027,64060,64061,64077,64094,64094,64110,64144,64160,64194,64194,64227,64277,64327,64377,64377,64410,64460,64510,64527,64560,64577,64597,64627,64677,64710,64760,64777,64810,64810,64860,64894,64926,64944,64977,65010,65027,65044,65060,65077,65104,65128,65160,65194,65210,65244,65294,65310,65344,65460,65477,65510,65528,65579,65627,65660,65694,65727,65760,65777,65794,65826,65827,65844,65860,65877,65894,65926,65943,65962,65977,65977,65995,66010,66044,66060,66077,66110,66127,66144,66144,66160,66177,66194,66210,66227,66244,66260,66276,66294,66326,66344,66360,66360,66393,66410,66443,66444,66476,66494,66510,66511,66526,66560,66576,66594,66594,66610,66626,66644,66677,66677,66694,66727,66760,66777,66810,66860,66877,66914,66926,66993,67010,67044,67143,67176,67226,67326,67393,67426,67448,67493,67510,67510,67609,67643,67677,67677,67693,67710,67710,67726,67727,67759,67776,67777,67809,67810,67826,67843,67860,67876,67893,67915,67936,67949,67977,67978,67993,68009,68026,68027,68043,68060,68094,68110,68126,68143,68144,68159,68193,68210,68227,68243,68259,68309,68343,68344,68359,68393,68426,68427,68443,68460,68493,68543,68544,68593,68644,68693,68776,69377,69393,69410,69426,69427,69593,69659,69693,69710,69710,69726,69727,69743,69759,69760,69776,69777,69793,69793,69809,69810,69826,69827,69843,69844,69859,69860,69876,69877,69893,69909,69942,69943,69976,70009,70010" d="m26,262c-0.9955,-5.55951 -1.2222,-4.55945 -0.94283,-3.71432c0.26729,0.80859 1.19657,1.25418 1.50683,1.89966c0.43031,0.89523 0.25465,1.96814 0.60267,2.81467c0.27589,0.67108 0.68091,1.51434 0.844,2.39999c0.15311,0.83145 0.75178,1.62631 1.042,2.30002c0.36262,0.8418 0.72421,1.6265 0.94867,2.49866c0.20612,0.8009 0.83817,1.31088 1.35583,2.10132c0.52069,0.79507 1.1915,1.16321 1.59017,2c0.41296,0.86679 1.07325,1.08484 1.76733,1.78403c0.54353,0.54752 0.3269,1.62506 0.78533,2.39514c0.48503,0.81476 0.97836,1.32617 1.59983,1.96368c0.61124,0.62701 0.72562,1.54956 0.98417,2.44116c0.2272,0.78351 0.60524,1.47357 1.2115,2.35883c0.52478,0.76627 0.79927,1.55087 1.2045,2.25717c0.45504,0.79312 0.33724,1.7569 0.72133,2.60001c0.35534,0.78 0.76979,1.51804 1.204,2.29999c0.45562,0.8205 0.81679,1.55377 1.222,2.30002c0.41328,0.76111 0.352,1.69998 0.35266,2.59998c0.00067,0.89868 0.35266,1.64734 1,2.20001c0.64734,0.55267 0.98739,1.20459 1,2.10001c0.01268,0.90015 0.46595,1.63608 0.87867,2.5c0.40733,0.85266 0.8825,1.43765 1.1005,2.39999c0.19889,0.87799 -0.23689,2.06723 0.44617,2.46399c0.74321,0.43167 1.30032,0.51749 1.57917,1.33151c0.27912,0.81482 0.65176,1.39474 1.01633,2.18365c0.3563,0.77103 1.03183,1.22534 1.47917,2.02084c0.44733,0.7955 1.04069,1.37463 1.5,2.02084c0.49548,0.69708 0.67329,1.70694 1.22133,2.35782c0.55762,0.66226 0.62989,1.41104 1.13133,2.06866c0.51609,0.67685 1.46158,1.04077 1.64283,1.75717c0.21965,0.86816 0.0045,1.7955 0.0045,2.6955c0,0.89999 0,1.80002 0,2.70001c0,0.89999 0,1.69998 0,2.60001c0,0.89999 0,1.79999 0,2.69998c0,0.89999 0.08212,1.8038 -0.00017,2.70001c-0.08368,0.91144 -0.49224,1.69083 -0.99983,2.37915c-0.5133,0.69604 -0.81503,1.25208 -1.036,2.12085c-0.21931,0.86224 -0.92128,1.59698 -0.964,2.5c-0.04253,0.89899 0.19596,1.73441 -0.05717,2.60001c-0.25664,0.87762 -0.83135,1.64096 -1.36817,2.27466c-0.50277,0.59351 -0.30684,1.46771 -0.57917,2.32083c-0.26192,0.8205 -0.98962,1.33176 -1.42083,2.10449c-0.45699,0.81894 -0.38893,1.64252 -0.66,2.39999c-0.32247,0.90112 -1.26997,1.29764 -1.748,2.20001c-0.3434,0.64822 -0.72866,1.46835 -1.114,2.29999c-0.40399,0.87189 -0.70134,1.52814 -1.10533,2.40002c-0.38534,0.83163 -0.67888,1.5856 -1.16883,2.39981c-0.43575,0.72412 -1.43094,0.9469 -1.83117,1.60468c-0.47979,0.78854 -1.07096,1.59933 -1.74733,2.01016c-0.77614,0.47141 -1.2306,1.03873 -1.9045,1.3425c-0.82308,0.371 -1.10014,1.26266 -1.29684,2.14151c-0.1684,0.75238 -0.74814,1.27505 -1.00317,2.09683c-0.23681,0.76309 -1.1513,1.14581 -1.64283,1.75717c-0.51819,0.64453 0.01254,1.76047 -0.38866,2.522c-0.396,0.75168 -0.93613,1.22708 -0.964,2.12534c-0.0293,0.94409 -0.91626,1.45428 -1,2.29999c-0.07883,0.79608 0.28795,1.48846 0.87867,2.2215c0.52085,0.64633 0.65714,1.46228 1.42583,2.07401c0.79512,0.63275 1.56199,0.52744 2.52883,0.87115c0.80945,0.28775 1.60057,0.73151 2.368,1.11734c0.72279,0.3634 1.62336,0.6969 2.31467,0.71466c1.07298,0.02759 2.02288,-0.0593 2.784,0.354c0.74623,0.40521 1.30718,1.13052 1.98533,1.56201c0.77505,0.49316 1.86814,-0.09604 2.71467,0.25198c0.67109,0.27591 1.4432,0.71829 2.3,1.186c0.74533,0.40686 1.50019,0.62866 2.4,0.64734c0.90052,0.01868 1.61033,0.61813 2.5,0.91467c0.85764,0.28589 1.8,0.08533 2.6,0.08533c0.9,0 1.8,0 2.7,0c0.9,0 1.84554,-0.0672 2.47467,0.42532c0.6241,0.48859 1.50933,0.57468 2.2,0.57468c1.06817,0 1.92533,0 2.82533,0c0.8,0 1.82258,-0.41122 2.64283,0.05716c0.81317,0.46432 1.35717,0.94284 2.15717,0.94284c0.89999,0 1.8,0 2.7,0c0.9,0 2.06898,0.2547 2.464,-0.436c0.43154,-0.75455 0.036,-1.73065 0.036,-2.564c0,-0.97818 0,-1.5 0,-2.10001c0,-0.89999 0,-1.65717 0,-2.55267c0,-0.86331 0.01715,-1.8475 -0.00017,-2.66864c-0.01801,-0.85388 -0.34865,-1.76184 -0.64716,-2.43134c-0.38808,-0.87036 -0.33912,-1.66962 -0.63667,-2.64603c-0.23864,-0.78311 -0.66775,-1.71417 -0.71467,-2.48532c-0.05782,-0.95032 -0.00414,-1.74365 -0.35851,-2.71149c-0.28334,-0.77386 -1.03968,-1.58377 -1.3575,-2.20319c-0.43099,-0.83997 -0.28533,-1.83731 -0.28533,-2.68399c0,-0.8075 -0.22134,-1.73883 -0.83334,-2.51733l-0.156,-0.672" id="svg_20" stroke-width="2" stroke="#000" fill="none"/>
  <path t="70880,71109,71125,71143,71143,71176,71193,71209,71226,71226,71243,71243,71259,71276,71276,71293,71293,71309,71342,71343,71359,71359,71375,71376,71393,71393,71409,71426,71443,71443,71462,71462,71476,71476,71493,71493,71509,71525,71526,71543,71559,71559,71575,71576,71593,71593" d="m77,369c0.97467,-3.328 1.45296,-4.10721 1.83334,-5c0.32019,-0.75153 0.21195,-1.7067 0.66666,-2.5c0.4055,-0.70746 0.66324,-1.668 0.92533,-2.32535c0.40275,-1.0101 0.48722,-1.83179 1.01067,-2.57465c0.55575,-0.7887 1.22588,-1.20166 1.48,-2.08267c0.22698,-0.7869 0.79475,-1.47772 1.384,-2.23166c0.49363,-0.63159 0.77857,-1.49689 1.2,-2.26483c0.47616,-0.86771 1.0102,-1.4903 1.59983,-2.12085c0.55271,-0.59106 0.81618,-1.56635 1.33617,-2.29999c0.55798,-0.78726 1.21954,-1.1994 1.76267,-2.08401c0.40881,-0.66583 0.62595,-1.50864 0.88533,-2.39999c0.22675,-0.77921 0.80642,-1.45496 1.39516,-2.116c0.56554,-0.63498 0.57607,-1.52936 0.94617,-2.37466c0.42094,-0.96143 0.55383,-1.62534 0.57484,-2.604l0.08517,-0.90533l0.27184,-0.76868l0.34733,-0.69464" id="svg_21" stroke-width="2" stroke="#000" fill="none"/>
  <path t="72330,72508,72525,72542,72559,72559,72576,72576,72592,72609,72609,72625,72626,72642,72643,72643,72659,72675,72675,72675,72693,72693,72709,72709,72725,72726,72743,72744,72759,72775,72776,72776,72792,72809,72809,72809,72826,72826,72842,72843,72859,72875,72876,72892,72893,72909,72925,72926,72942,72959,72959,72976,72976,72992,73009,73009,73025,73042,73043,73058,73059,73075,73091,73109,73109,73126,73142,73159,73159,73175,73193,73209,73209,73225,73242,73259,73275,73292,73309,73310,73325,73342,73360,73375,73392,73425,73425,73442,73459,73475,73492,73509,73542,73559,73575,73608,73625,73626,73659,73675,73692,73775,73909,74159,74176,74177,74192,74192,74208,74227,74227,74242,74243,74258,74258,74292,74293,74475,74475,74492,74509,74526,74526,74542,74559,74559,74575,74576,74592,74593,74608,74609,74625,74642,74643,74643,74659,74659,74674,74674,74693,74709,74709,74709,74725,74726,74742,74758,74775,74776,74792,74793,74808,74809,74824,74824,74842,74842,74857,74858,74858,74876,74876,74892,74892,74909,74909,74928,74929,74929,74944,74944,74963,74981,74981,74998,74998,74998,75013,75013,75042,75043,75058,75058,75075,75076,75092,75093,75108,75125,75126,75145,75145,75164,75164,75181,75181,75199,75200,75218,75218,75233,75233,75249,75249,75249,75265,75265,75282,75282,75299,75299,75315,75315,75331,75331,75347,75347,75347,75347,75363,75363,75364,75379,75380,75380,75380,75397,75397,75397,75398,75398,75415,75415,75415,75415,75416,75431,75432,75432,75432,75432,75459,75459,75459,75459,75459,75477,75477,75477,75477,75494,75495,75495,75495,75511,75511,75511,75512,75528,75528,75528,75528,75546,75546,75546,75563,75564,75580,75580,75596,75597,75597,75625,75625" d="m58,269c2.01467,1.60001 2.51738,2.35037 2.916,3.20001c0.40375,0.86057 0.8294,1.53098 1.28267,2.284c0.40293,0.6694 0.57384,1.68454 0.968,2.51599c0.33226,0.70087 1.04605,1.47845 1.43333,2.21066c0.41373,0.78223 0.76754,1.59753 1.2,2.30402c0.46178,0.75436 1.05556,1.64767 1.17467,2.32132c0.1346,0.76129 0.32849,1.78705 0.72983,2.50684c0.52739,0.94586 1.11654,1.52789 1.5955,2.30984c0.41869,0.68353 0.88126,1.47888 1.5,2.146c0.58281,0.62839 1.20686,1.36386 1.6,2.02667c0.40716,0.68646 1.04431,1.51761 1.6,2.34131c0.43609,0.64642 0.79338,1.43802 1.2,2.23203c0.39362,0.76862 0.87247,1.60342 1.4,2.19064c0.66663,0.74207 1.47766,1.34869 1.87917,1.93152c0.5075,0.73666 0.41309,1.6601 0.52217,2.59381c0.11715,1.00284 0.70205,1.58646 1.29867,2.18533c0.69869,0.70132 1.29999,1.30002 1.89999,1.90002c0.6,0.59998 1.3,1.29999 1.9,1.89999c0.6,0.60001 1.3,1.29999 1.9,1.89999c0.6,0.60001 1.29624,1.30377 1.8,1.79999c0.69485,0.68445 1.62625,0.98932 2.29983,1.64285c0.49619,0.48141 0.44685,1.73505 1.06683,2.3905c0.61676,0.65204 1.48132,0.73206 2.12884,1.46664c0.58373,0.66223 0.94422,1.42181 1.50583,1.86935c0.70383,0.56088 0.96137,1.61758 1.23467,2.44131c0.27715,0.83536 0.72861,1.65372 1.13066,2.38934c0.40195,0.73547 1.44194,0.82001 2.12884,1.35718c0.74384,0.58173 0.32768,1.82281 0.87116,2.47617c0.57397,0.69 1.22984,0.88412 1.83334,1.64581c0.49416,0.62369 1.60928,0.35358 2.2955,0.87802c0.75024,0.57336 0.94222,1.43552 1.80433,1.64297c0.84013,0.20218 1.26141,0.95029 2.22134,1c0.81718,0.04233 1.40292,0.47928 1.68333,1.29535c0.25857,0.75247 1.31788,0.50653 2.19417,0.70584c0.7945,0.18069 0.23349,0.95178 -0.60767,0.99417c-0.98843,0.0498 -1.76081,0.10806 -2.70567,0.00314c-1.00362,-0.11145 -1.49777,-0.64474 -2.36933,-1.19867c-0.6736,-0.4281 -1.55901,-0.8345 -2.10533,-1.43597c-0.70264,-0.77353 -0.97953,-1.55887 -1.51034,-2.34235c-0.45973,-0.67856 -0.01233,-1.021 0.925,-1.02167c1.008,-0.00073 1.77211,-0.10355 2.6955,0.02084c0.81784,0.11017 1.63331,0.61688 2.59516,0.89514c0.7552,0.21848 1.52573,0.47931 2.28851,0.73135c0.9775,0.323 1.76421,0.25513 2.84283,0.35715c0.92938,0.08789 1.57026,0.47495 2.354,0.71152c0.98041,0.29596 1.79866,0.28174 2.79733,0.284c0.76534,0.00171 1.71736,-0.00839 2.768,0c0.6694,0.00534 1.45133,0.02966 2.42883,0.35266c0.76277,0.25204 1.77379,0.54428 2.709,0.65182c0.87156,0.10022 1.48666,0.51837 2.52883,0.82886c0.77362,0.23047 1.65201,0.16666 2.57117,0.16666c0.9955,0 1.7955,0 2.7955,0c0.8,0 1.8,0 2.60001,0c0.8,0 1.8,0 2.59999,0c1,0 1.8,0 2.8,0c0.8,0 1.8,0 2.60001,0c0.8,0 1.7955,0 2.54283,0c0.9045,0 1.82384,0 2.67799,0c0.97917,0 1.77917,0 2.57918,0c0.991,0 1.82933,0 2.84299,0c0.77834,0 1.75684,0 2.53618,0c0.9995,0 1.7735,0 2.67349,0c0.86334,0 1.84734,0 2.83267,0c0.72533,0 1.71466,0 2.51466,0c1,0 1.78934,0 2.83333,0c0.79201,0 1.65201,0 2.57117,0c0.9955,0 1.7955,0 2.7955,0c0.8,0 1.8,0 2.60001,0c0.8,0 1.8,0.00055 2.59999,0c0.99867,-0.00067 1.80489,0.08704 2.716,-0.284c0.67892,-0.27646 1.53986,-0.68298 2.2885,-0.71152c0.99614,-0.03796 1.83846,0.00198 2.76218,-0.17114c0.79819,-0.1496 1.63937,-0.42902 2.23466,-0.54935c1.19221,-0.241 2.11935,-0.27029 2.75583,-0.27951c1.3642,-0.01978 2.10001,-0.00449 2.86366,-0.00449c0.78368,0 1.97919,0.004 2.77917,-0.00134c0.80003,-0.00534 1.60152,-0.01413 2.39999,-0.08398c1.20326,-0.10529 2.00603,-0.2644 2.82083,-0.43552c0.83798,-0.17599 1.26326,-0.28613 2.60051,-0.57916c0.93048,-0.20392 1.40416,-0.29919 2.35333,-0.5c0.9415,-0.19919 1.8597,-0.39551 2.73866,-0.60001c0.841,-0.19568 1.64175,-0.39346 2.39999,-0.59998c1.06789,-0.29083 2.06099,-0.60114 2.71201,-0.80002c0.65831,-0.20111 2.05923,-0.60291 2.81067,-0.79999c0.77388,-0.20297 1.56519,-0.40063 2.364,-0.60001c0.79851,-0.19931 1.58597,-0.40506 2.364,-0.564c1.46358,-0.29901 2.15048,-0.35413 2.8,-0.41068c0.93124,-0.08109 2.14066,-0.22665 2.72701,-0.38251c0.84518,-0.22467 1.75491,-0.6799 2.58817,-1.12198c0.82349,-0.43689 1.54149,-0.51041 2.52083,-0.52084c0.79996,-0.00851 1.60001,0 2.5955,0l0.91916,0" id="svg_22" stroke-width="2" stroke="#000" fill="none"/>
  <path t="76444,76724,76758,76758,76775,76792,76808,76825,76842,76874" d="m96,342c0,-3.41666 0,-3 0,-2.20001c0,0.90002 0,1.80002 0,2.70001l0,0.89999l0,0.89999l0,0.90002" id="svg_23" stroke-width="2" stroke="#000" fill="none"/>
  <path t="77008,77208,77208,77225,77225,77242,77242,77242,77258,77258,77275,77275,77275,77292,77292,77308,77308,77325,77325,77325,77342,77342,77358,77358,77358,77375,77375,77392,77392,77408,77408,77425,77425,77425,77442,77442,77442,77458,77458,77475,77475,77475,77492,77492,77508,77508,77525,77525,77541,77542,77567,77577,77593,77593,77608,77630,77642,77678,77678" d="m97,343c0,4.13751 -0.01892,4.96692 0.0045,6.00983c0.01743,0.77597 0.13522,1.83115 0.34817,2.53302c0.26191,0.86328 0.54022,1.86066 0.67266,2.65717c0.16714,1.00525 0.39847,1.60565 0.776,2.39999c0.47881,1.00745 0.84071,1.57874 1.07734,2.60001c0.18264,0.78824 0.27139,1.80554 0.54666,2.59998c0.20946,0.60449 0.48213,1.60251 0.6,2.436c0.13181,0.93207 0.33066,1.71127 0.54934,2.50269c0.30869,1.11722 0.41074,1.88885 0.70933,2.74664c0.25688,0.73798 0.63636,1.71054 0.69517,2.51468c0.07295,0.99756 -0.01699,1.81616 0.10617,2.68533c0.14285,1.00815 0.4295,1.81088 0.562,2.362c0.30281,1.25961 0.2762,1.9473 0.51933,2.95267c0.19763,0.8172 0.62862,1.58527 0.77617,2.60001c0.11536,0.79337 -0.02185,1.80658 0.09317,2.564c0.14775,0.97296 0.70856,1.56311 1.16267,2.32001c0.40197,0.66998 0.75862,1.62787 0.80133,2.616c0.03886,0.89914 -0.19595,1.73441 0.05717,2.60001c0.25665,0.87762 0.89017,1.59998 1.16417,2.39999l0.49467,0.69998" id="svg_24" stroke-width="2" stroke="#000" fill="none"/>
  <path t="78677,79357,79424,79442,79458,79475,79478,79491,79491,79508,79508,79525,79541,79542,79558,79558,79558,79575,79575,79591,79592,79608,79608,79625,79625,79641,79642,79658,79658,79674,79675,79692,79708,79708,79724,79725,79757,79775,79775,79791,79808,79824,79841,79842,79858,79875,79875,79891,79908,79924,79925,79943,79958,79974,79975,80007,80025,80025,80041,80058,80058,80075,80075,80091,80108,80108,80124,80124,80141,80158,80174,80175,80207,80241,80241,80258,80258,80274,80291,80308,80324,80358" d="m126,345c3.328,-2.892 4.21272,-3.1507 5.09984,-2.99985c0.85109,0.14471 0.90016,1.10001 0.90016,1.88519c0,0.95065 -0.04134,1.71701 0.0045,2.71014c0.04254,0.92175 0.54655,1.72617 0.82883,2.57117c0.27457,0.8219 0.16667,1.83334 0.16667,2.63333c0,0.80002 -0.05832,1.80664 0.05716,2.60001c0.14751,1.01346 0.57356,1.74524 0.8215,2.57867c0.2262,0.76038 0.51663,1.66306 0.76868,2.42584c0.323,0.97751 0.29617,1.76117 0.35399,2.71149c0.04692,0.77115 0.39597,1.73126 0.8,2.39999c0.53818,0.89075 1.032,1.65067 1.19867,2.48401c0.16667,0.83334 0.73508,1.60129 1.0045,2.36166c0.32855,0.92725 0.37547,1.74561 1.09534,2.39551c0.67293,0.60751 0.702,1.40341 1.06683,2.24283c0.29753,0.68457 1.25949,1.21674 1.66666,2c0.38667,0.74384 0.71915,1.47421 1.14134,2.39999c0.35611,0.78085 0.91527,1.32394 1.5045,2.10001c0.5605,0.73825 0.71167,1.62604 1.22533,2.20001c0.65802,0.73532 1.29454,1.30096 1.89551,1.89999c0.69887,0.69662 1.49738,1.06021 2.2,1.56934c0.74164,0.53741 0.94954,1.3855 1.5,2.07349c0.64421,0.80518 1.29999,1.35718 1.89999,1.95718c0.59999,0.59998 1.36113,1.25735 1.74733,2.09998c0.35226,0.76859 0.76833,1.41501 1.40984,2.05719c0.64249,0.64316 1.24284,1.24283 1.94284,1.94281c0.5,0.5 1.2,1.17917 2,1.64734l0.89867,0.33667l0.63466,0.54935l0.81401,0.22382" id="svg_25" stroke-width="2" stroke="#000" fill="none"/>
  <path t="80761,81507,81507,81541,81574,81607,81757,81774,81807,81824,81825,81841,81857,81858,81874,81891,81892,81907,81925,81925,81942,81942,81957,81975,81990,82007,82024,82041,82057,82058,82074,82091,82091,82107,82108,82124,82141,82157,82174,82174,82192,82207,82208,82224,82241,82241,82257,82274,82291,82291,82307,82325,82325,82341,82357,82358,82374,82391,82407,82424,82424,82441,82458,82474,82492,82507,82508,82524,82524,82541,82557" d="m107,394c1,1 1,1.79999 1,2.70001c0,0.89999 -0.3384,1.84583 0.01067,2.72531c0.27779,0.69989 1.4,0.57468 2.31067,0.57468c0.85333,0 1.84597,-0.17651 2.67867,0.16666c0.67085,0.27646 1.52063,0.82291 2.32133,0.83334c0.85326,0.01111 1.79478,-0.05313 2.77883,0.00015c0.78861,0.04272 1.53046,0.4101 2.41583,0.71585c0.94377,0.32593 1.784,0.284 2.684,0.284c0.9,0 1.90818,-0.25555 2.67883,0.22134c0.73641,0.45569 1.30646,0.77332 2.23584,0.77866c0.98549,0.00568 1.77066,0 2.71066,0c0.69067,0 1.76401,0 2.67467,0c0.91066,0 1.82133,0 2.5,0c0.9785,0 2,0 2.8,0c0.836,0 1.85266,0 2.54733,0c1.01666,0 1.95267,0 2.854,0c0.68399,0 1.62399,0 2.63199,0c0.86217,0 1.6875,0 2.65067,0c0.86334,0 1.75883,0 2.716,0c0.90001,0 1.8,0 2.60001,0c0.89999,0 1.81902,0.16434 2.7,-0.02084c0.85164,-0.17902 1.65834,-0.8656 2.32533,-0.94315c1.00189,-0.11649 1.87016,-0.03601 2.77467,-0.07202l0.79999,-0.38931" id="svg_26" stroke-width="2" stroke="#000" fill="none"/>
  <path t="84545,84922,84923,84940,84940,84940,84956,84957,84957,84973,84974,84974,84990,84991,85006,85006,85024,85024,85024,85040,85040,85057,85074,85090,85091" d="m211,251c2.9375,0.08333 2.998,0.68933 3,1.95717c0.00089,0.56366 -0.0088,1.44421 0.00133,2.64149c0.00499,0.59073 -0.02818,1.46106 0.22017,2.47983c0.22479,0.92209 0.60442,1.50842 1.07401,2.52151c0.36676,0.79126 0.62486,1.59586 0.68367,2.39999c0.07295,0.99756 0.01724,1.79999 0.02083,2.60001c0.00534,1.18936 0.08533,1.91467 0.42534,2.76401l0.48933,0.836l0.08549,0.90015l0.08516,0.78519" id="svg_27" stroke-width="2" stroke="#000" fill="none"/>
  <path t="85477,85572,85590,85591,85606,85624,85624,85641,85641,85656,85657,85674,85691,85691,85706,85723,85723,85740,85741,85756,85773,85773,85791,85791,85806,85806,85823,85841,85841,85856,85857,85873,85891,85891,85906,85907,85923,85940,85942,85960,85960,85972,85972,85989,86006,86006,86022,86040,86041,86056,86073,86091,86107,86107,86123,86123,86141,86156,86156,86173,86173,86190,86190,86206,86223,86223,86241,86272,86273,86291,86306,86307,86323,86341,86357,86373,86373,86391,86423,86424,86440,86456,86456,86473,86490,86507,86507,86523,86540,86555,86555,86590,86605,86605,86633,86656,86690,86690,86705,86740,86772,86773,86790,86806,86806,86824,86843,86860,86877,86894,86911,86940,86957,86979,87002,87002,87041,87042,87043,87044,87063,87080,87096,87096,87097,87113,87129,87129,87145,87160,87160,87176,87192,87192,87207,87223,87238,87256,87274,87274,87291,87309,87326,87326,87344,87389,87390,87406,87440,87441,87456,87456,87474,87492,87509,87540,87556,87557,87574,87592,87609,87639,87672,88172,88472,88505,88506,88539,88556,88585,88605,88623,88624,88655,88673,88691,88739,88855,88855,88889,88939,88972,88992,88992,89010,89011,89030,89048,89067,89067,89085,89105,89106,89123,89123,89141,89141,89161,89181,89200,89220,89237,89237,89254,89254,89257,89274,89290,89308,89308,89325,89342,89342,89359,89377,89395,89412,89439,89458,89477,89505,89506,89524,89525,89555,89574,89575,89594,89613,89633,89652,89673,89675,89692,89710,89727,89756,89789,89808,89873,89939,89991,90039,90089,90155,90206,90225,90225,90244,90264,90284,90305,90308,90326,90343,90344,90360,90378,90395,90413,90413,90431,90431,90448,90466,90466,90484,90502,90503,90520,90538,90556,90556,90574,90592,90639,90672,90672,90691,90722,90741,90761,90781,90802,90823,90855,90889,90939,90990,91022" d="m216,248c0,1.75717 0,2.65266 0,3.51601c0,0.85866 -0.06412,1.81042 0.036,2.69466c0.11322,0.99998 0.53709,1.74348 0.79733,2.62268c0.21909,0.74017 0.16667,1.6875 0.16667,2.65067c0,0.69064 0,1.76334 0,2.68265c0,0.83334 -0.18106,1.69827 0.05716,2.52884c0.25824,0.90033 0.82262,1.62582 0.94284,2.32535c0.16823,0.97888 0.49072,1.74524 0.83333,2.8125c0.2384,0.74265 0.71832,1.52176 1,2.33331c0.2774,0.79922 -0.00978,1.85007 0.252,2.63202c0.26773,0.79968 1.05164,1.5032 1.39384,2.20132c0.39854,0.81305 0.59628,1.68353 1.02083,2.52084c0.40045,0.78979 0.42119,1.68661 0.72133,2.45782c0.32042,0.82333 0.65689,1.68808 0.83134,2.36865c0.26888,1.04892 0.88518,1.74603 0.946,2.53802c0.07198,0.93726 -0.14821,1.97025 0.03732,2.70398c0.22046,0.87189 0.83907,1.61533 0.96417,2.51068c0.12665,0.90646 0.69969,1.49597 0.91451,2.384c0.20386,0.84277 -0.00378,1.78488 0.252,2.68265c0.24593,0.86319 0.73868,1.65585 0.82266,2.45868c0.08934,0.8541 -0.03369,1.76215 0.36333,2.61749c0.42342,0.91223 0.7951,1.52286 1.222,2.39316c0.40236,0.82028 0.29031,1.5477 0.42984,2.60684c0.11548,0.87662 0.46411,1.55997 1.02083,2.32117c0.48853,0.66797 0.78951,1.34314 1.14134,2.26935c0.31133,0.81958 1.18863,1.26428 1.66666,2.16666c0.3434,0.64822 0.72006,1.49826 1.26668,2.32117c0.42606,0.64142 1.17873,1.21454 1.73332,1.84549c0.59254,0.67413 0.81401,1.53336 1.16667,2.33334c0.35266,0.79999 0.7774,1.63806 1.084,2.29999c0.40257,0.86911 1.12056,1.39551 1.716,2c0.68445,0.69485 1.03639,1.54706 1.42133,2.30002c0.39017,0.76318 0.66139,1.50986 0.7995,2.42084c0.14966,0.98718 0.58807,1.64206 0.89517,2.59381c0.28255,0.8757 0.83928,1.42435 1.06317,2.38535c0.20192,0.8667 0.74641,1.3739 1.01016,2.11066c0.29976,0.83737 0.01067,1.77869 0.01067,2.74652c0,0.84283 0,1.74283 0,2.64282c0,0.79999 0,1.75717 0,2.65268c0,0.69464 -0.00069,1.71133 0,2.64731c0.00067,0.90134 0.15874,1.86984 0.42534,2.52536c0.2823,0.69409 0.56424,1.6745 0.57466,2.65866c0.00914,0.86325 0,1.75882 0,2.71732c0,0.68402 -0.15826,1.66516 0.16667,2.63202c0.27367,0.8143 0.81532,1.5661 0.83333,2.46664c0.01799,0.89984 0,1.80002 0,2.70001c0,0.79999 0,1.70001 0,2.52084c0,0.96317 0,1.82648 0,2.7175c0,0.92831 0,1.64832 0,2.58701c0,1.008 0,1.79999 0,2.82733c0,0.69464 0,1.71133 0,2.64731c0,0.90002 0,1.80002 0,2.70001c0,0.79999 0,1.70001 0,2.60001c0,0.89999 0,1.79999 0,2.69998c0,0.90002 0,1.80002 0,2.70001c0,0.79999 0,1.70001 0,2.60001c0,0.89999 0.13531,1.86618 -0.28534,2.60001c-0.39354,0.68655 -1.38921,1.21512 -1.6575,2.09998c-0.26129,0.86176 -0.05716,1.75269 -0.05716,2.70001c0,0.79999 -0.04636,1.84946 0.61067,2c0.77985,0.17868 1.70784,0.22833 2.38933,0.5c0.97456,0.38852 1.79866,0.49933 2.7,0.5c0.936,0.0007 1.784,0 2.64734,0c0.89999,0 1.81932,0 2.67351,0c0.97916,0 1.76849,0 2.8125,0c0.75598,0 1.66666,0 2.56665,0c0.89999,0 1.80133,0 2.76666,0c0.83334,0 1.66669,0 2.52884,0c0.90451,0 1.8045,0 2.71518,0c0.91064,0 1.76398,0 2.70398,0c0.88535,0 1.68533,0 2.58536,0c0.89999,0 1.79999,0 2.69998,0c0.89999,0 1.80002,0 2.70001,0c0.89999,0 1.65717,0 2.55267,0c0.86331,0 1.84793,0.03323 2.82999,-0.00134c0.80893,-0.02847 1.37366,-0.72485 2.12799,-0.98798c0.83978,-0.29294 1.78934,-0.01068 2.68933,-0.01068c0.90002,0 1.91589,0.2225 2.616,-0.284c0.69357,-0.50177 1.384,-0.71591 2.28403,-0.716c0.89981,-0.00009 1.47031,-0.54666 2.15717,-0.94284c0.81458,-0.46982 1.51907,-0.59558 2.16367,-1.05716c0.69357,-0.49664 1.41827,-1.09387 1.47916,-2c0.05362,-0.79819 0,-1.70001 0,-2.60001c0,-0.89999 0.00067,-1.79999 0,-2.69998c-0.00067,-0.90002 -0.12473,-1.73431 -0.7045,-2.40002c-0.5531,-0.6351 -0.95038,-1.54373 -1.517,-2.17883c-0.60013,-0.67267 -1.22949,-1.17429 -1.7785,-1.9545c-0.4606,-0.65457 -1.35947,-0.97977 -2.10001,-1.38815c-0.6745,-0.37195 -1.20163,-1.36353 -2.10132,-1.69318c-0.64709,-0.23709 -1.78894,0.28021 -2.55585,-0.30682c-0.69849,-0.53467 -1.06467,-1.22571 -1.80682,-1.80383c-0.62402,-0.48611 -1.35226,-1.12897 -1.436,-1.97467c-0.07883,-0.79608 0,-1.70001 0,-2.60001c0,-0.89999 0.13943,-1.86841 -0.284,-2.59866c-0.47913,-0.82629 -0.77411,-1.50531 -1.216,-2.30133c-0.44379,-0.79947 -0.5,-1.70001 -0.5,-2.60001l0,-0.89999" id="svg_28" stroke-width="2" stroke="#000" fill="none"/>
  <path t="92210,92372,92372,92372,92388,92389,92405,92405,92405,92405,92422,92422,92438,92439,92439,92455,92455,92455,92471,92472,92489,92489,92489,92505,92505,92505,92521,92522,92522,92538,92539,92539,92555,92555,92572,92572,92588,92589,92605,92605,92621,92622,92622,92639,92639,92655,92655,92671,92671,92688,92688,92704,92704,92704,92720,92720,92721,92738,92738,92755,92770,92770,92789,92789,92790,92804,92805,92821,92821,92837,92838,92854,92854,92870,92887,92888,92904,92904,92921,92922,92937,92938,92954,92954,92955,92972,92972,92993,93009,93009,93029,93029,93046,93062,93062,93076,93092,93092,93121,93188" d="m267,269c2.6355,7.47101 2.88461,8.24991 2.96799,9.13599c0.09973,1.06 -0.00751,1.89417 0.19867,3.03067c0.1442,0.79474 0.36475,1.32568 0.54935,2.14935c0.2738,1.22174 0.27866,1.9093 0.284,2.85065c0.00446,0.78601 -0.00607,1.60803 0,2.66669c0.00534,0.93073 0.04617,1.77655 0.35266,2.77115c0.19714,0.63971 0.51297,1.55835 0.59018,2.34818c0.08011,0.8194 0.0303,1.88138 0.06784,2.82199c0.0271,0.67905 0.18878,1.65286 0.42532,2.45068c0.24579,0.82907 0.67343,1.84918 0.95334,2.53867c0.33694,0.83002 0.57748,1.83478 0.60617,2.63599c0.03577,0.99939 -0.03885,1.81805 0.22583,2.79984c0.21545,0.7991 0.68457,1.62308 0.76797,2.46152c0.08728,0.87723 0.01068,1.59998 0.01068,2.39047c0,1.26151 0,1.90652 0,2.927c0,0.83102 -0.03439,1.79102 0.02084,2.52118c0.08865,1.17239 0.52142,1.80862 0.8125,2.83334c0.18726,0.65921 0.16132,1.45197 0.16666,2.5c0.00473,0.93066 0,1.56216 0,2.56534c0,0.94415 -0.0112,1.84872 0,2.76797c0.01044,0.85437 0.15005,1.8389 0.42532,2.63333c0.20947,0.60449 0.52234,1.59763 0.564,2.40002c0.05182,0.99854 -0.05054,1.78085 0.01202,2.91599c0.04251,0.77142 0.39594,1.51923 0.71466,2.39999c0.3017,0.83368 0.67419,1.62885 1,2.36935c0.39676,0.90179 0.32327,1.7291 0.63666,2.71466c0.25833,0.81244 0.52017,1.60092 0.64734,2.39999c0.15933,1.00119 0.47565,1.78345 0.716,2.60001c0.2883,0.97946 0.28174,1.74283 0.284,2.77466c0.00204,0.94684 -0.00671,1.64621 0,2.62534c0.00534,0.77872 0.46014,1.59033 0.87851,2.44284c0.33072,0.67395 0.12283,1.67181 0.28815,2.55716l0.48068,0.70001l0.33182,0.79999l0.03152,0.88934" id="svg_29" stroke-width="2" stroke="#000" fill="none"/>
  <path t="94609,94704,94721,94721,94738,94738,94738,94754,94754,94754,94771,94771,94771,94771,94788,94788,94788,94804,94804,94804,94821,94821,94821,94838,94839,94854,94854,94855,94871,94872,94888,94888,94888,94904,94905,94922,94923,94923,94938,94938,94954,94954,94971,94971,94971,94991,94991,94991,95005,95005,95020,95038,95038,95039,95054,95055,95071,95088,95088,95104,95104,95121,95138,95138,95154,95154,95155,95171,95171,95188,95204,95221,95221,95238,95254,95254,95273,95273,95294,95294,95311,95330,95330,95348,95348,95366,95383,95383,95399,95414,95414,95430,95430,95430,95446,95462,95462,95478,95478,95478,95495,95510,95526,95526,95542,95560,95561,95578,95596,95614,95638,95639,95656,95656,95675,95675,95693,95721,95739,95757,95775,95805,95805,95823,95854,95904,95938,95938,96022,96054,96104,96154,96188,96254,96307,96371,96488,96570,96654,96671,96690,96721,96740,96759,96779,96798,96816,96837,96856,96857,96877,96898,96919,96940,96960,96978,97003,97025,97043,97043,97070,97091,97112,97137,97138,97158,97187,97208,97229,97250,97272,97294,97338,97358,97358,97379,97380,97401,97401,97423,97423,97426,97446,97465,97489,97491" d="m288,245c0.98932,4.06534 1,4.85466 1,5.79601c0,1.03732 0,1.75133 0,2.65666c0,0.96883 0,1.78333 0,2.65182c0,0.89551 0,1.7955 0,2.6955c0,0.60001 0,1.80002 0,2.70001c0,0.60001 0,1.79984 0,2.68933c0,0.85352 0,1.88916 0,2.57468c0,0.83466 0,1.84048 0,2.69315c0,0.96417 0,1.76819 0,2.59018c0,1.03116 -0.00681,1.93185 0,2.95267c0.00534,0.80005 0.02939,1.61612 0.28534,2.39999c0.26807,0.82098 0.83365,1.79114 1.104,2.39999c0.35049,0.78931 0.57803,1.79877 0.60617,2.60001c0.0351,0.99939 -0.00806,1.80011 0.00464,2.80017c0.01041,0.82086 0.05411,1.49185 0.28384,2.48383c0.19043,0.82236 0.48611,1.62274 0.63068,2.62933c0.11987,0.83475 -0.02393,1.82617 0.25198,2.85333c0.18616,0.69302 0.62646,1.42017 0.77618,2.42883c0.10999,0.74109 0.05716,1.77917 0.05716,2.72583c0,0.67868 -0.17108,1.69363 0.08533,2.47736c0.30154,0.92175 0.82703,1.68851 0.94,2.448c0.13693,0.92065 0.33069,1.70056 0.54935,2.492c0.30859,1.117 0.41827,1.95236 0.42532,2.76132c0.00784,0.90002 0.44388,1.75659 0.716,2.38535c0.38614,0.89218 0.284,1.948 0.284,2.73999c0,0.85999 0,1.77917 0,2.77335c0,0.76532 0,1.71597 0,2.60132c0,0.88535 0,1.82535 0,2.51599c0,0.98401 -0.08041,1.97702 0.03601,2.65866c0.18759,1.09821 0.8165,1.82016 0.98932,2.49734c0.22067,0.86475 0.49469,1.82239 0.69067,2.56c0.25284,0.95163 0.284,1.93466 0.284,2.78885c0,0.97916 -0.09811,1.78812 0.08533,2.49384c0.2641,1.01608 0.87198,1.68384 0.91467,2.65198c0.0358,0.81171 0,1.728 0,2.54318c0,0.8075 0,1.76932 0,2.69016c0,0.90451 0,1.92151 0,2.62085c0,0.97916 0,1.76849 0,2.8125c0,0.75598 0,1.66666 0,2.56665c0,0.89999 0,1.80002 0,2.70001c0,0.89999 -0.39297,1.83035 0.08533,2.61465c0.49008,0.80365 0.91467,1.38535 0.91467,2.28534c0,0.79999 -0.36316,1.79691 0.03601,2.564c0.39514,0.7594 0.57104,1.36777 1.04932,2.15067c0.49072,0.80325 0.65842,1.51025 1.13602,2.164c0.51071,0.69907 0.62885,1.33392 0.77881,2.22116c0.14401,0.85202 0.98434,1.31668 1.49985,1.90018c0.56357,0.63788 1.33646,1.14041 1.47916,2c0.15375,0.92621 -0.01447,1.76617 0.54169,2.5c0.58853,0.77658 1.30911,1.26932 1.46848,2.10001c0.18185,0.94785 0.80322,1.40042 1.00934,2.20132c0.22446,0.87216 0.68753,1.62103 0.94418,2.49866c0.25311,0.8656 -0.08936,1.83405 0.14249,2.5c0.30835,0.88568 0.79962,1.64319 1.26733,2.5c0.40686,0.74533 0.45071,1.53455 0.7045,2.40002c0.25729,0.87744 0.71973,1.6265 0.94418,2.49866c0.20612,0.8009 0.98129,1.23676 0.99866,2.10132c0.01807,0.89984 -0.11111,1.93884 -0.76166,2.34283c-0.80231,0.49826 -1.64316,0.3331 -2.63702,0.35852c-0.76587,0.01959 -1.66913,0.3826 -2.48532,0.71466c-0.89212,0.36298 -1.87317,0.28415 -2.552,0.70932l-0.76266,0.49066l-0.74866,0.43668" id="svg_30" stroke-width="2" stroke="#000" fill="none"/>
  <path t="99028,99237,99237,99253,99254,99270,99270,99287,99287,99303,99304,99304,99320,99320,99337,99337,99353,99354,99370,99370,99387,99387,99403,99420,99437,99438,99453,99454,99470,99470,99487,99487,99504,99520,99520,99537,99537,99554,99570,99587,99620,99853,99870,99887,99903,99920,99937,99937,99953,99970,99970,99987,99987,100010,100010,100023,100038,100039,100053,100053,100070,100087,100103,100103,100120,100137,100154,100170,100170,100187,100203,100220,100237,100237,100253,100270,100287" d="m314,238c4.228,2.74533 5.17609,2.90193 5.97867,3.22133c0.82086,0.32668 1.68396,0.69264 2.42584,0.83134c1.00491,0.18787 1.79761,0.55371 2.59549,0.94733c0.80212,0.39571 1.3916,0.71718 2.39999,1.19867c0.79364,0.37895 1.60034,0.63281 2.38934,0.776c1.04446,0.18956 1.66739,0.63866 2.53217,0.90399c0.86154,0.26433 1.89194,0.30771 2.63684,0.62134c0.89072,0.37502 1.42566,1.07552 2.36298,1.37849c0.65286,0.21103 1.65735,0.12151 2.56268,0.12151c0.952,0 1.71732,0 2.71149,0c0.74734,0 1.77917,0 2.72583,0c0.67868,0 1.65717,0 2.47736,0c0.90134,0 1.80133,0 2.70132,0c0.89999,0 1.87866,0 1.69733,0c-0.89734,0 -1.79733,0 -2.71817,0c-0.96317,0 -1.65381,0 -2.72198,0c-0.85733,0 -1.64386,0.04086 -2.59317,-0.01067c-0.76782,-0.04169 -1.75183,-0.36221 -2.50684,-0.63667c-0.8916,-0.32411 -1.70898,-0.65994 -2.41434,-1c-0.85071,-0.41016 -1.78638,-0.37486 -2.60684,-0.778c-0.87,-0.42747 -1.77399,-0.61011 -2.27881,-1.27916c-0.56665,-0.75098 -1.03265,-1.21501 -1.75717,-1.73151c-0.78555,-0.56 -1.31558,-1.17209 -2.20001,-1.58932c-0.80472,-0.37964 -1.11096,-1.14685 -1.56665,-1.97467c-0.40417,-0.73427 -1.3125,-1 -1.88602,-1.64734l-0.66333,-0.43666" id="svg_31" stroke-width="2" stroke="#000" fill="none"/>
  <path t="102581,102841,102858,102875,102893,102909,102909,102925,102945,102946,102968,102968,102991,102993,102993,103009,103009,103027,103027,103043,103059,103075,103075,103092,103092,103108,103125,103125,103142,103143,103157,103192,103192,103208,103258,103491,103524,103557,103558,103575,103575,103591,103608,103608,103625,103643,103643,103657,103675,103675,103692,103707,103725,103742,103743,103758,103759,103775,103776,103792,103808,103825,103842,103874,103874,103907,103925" d="m361,217c3.328,1.92799 4.29556,1.99069 5.10983,2c0.91119,0.01042 1.91046,0.16257 2.47949,0.61067c0.77536,0.61061 1.41608,1.2048 2.16785,1.442c0.89795,0.28333 1.55099,0.63612 2.24283,1.44733c0.58484,0.68575 1.16211,1.13293 2.116,1.416c0.75369,0.22366 1.73245,0.47934 2.39999,0.88533c0.88168,0.53621 1.58084,1.1037 2.48401,1.19867c0.75516,0.07941 1.63852,0.38853 2.34732,0.64734c1.00983,0.36873 1.97827,0.29472 2.65268,0.37349c0.99207,0.11588 1.64935,0.77992 2.52084,0.95834c0.94382,0.19324 1.65381,0.02083 2.72198,0.02083c0.85718,0 2.12015,-0.52344 2.6355,0.2215c0.50305,0.72714 -0.48676,1.43597 -1.36234,1.97717c-0.66461,0.4108 -1.69006,0.56241 -2.51599,0.968c-0.66998,0.32903 -1.19739,1.29909 -2,1.66666c-0.74271,0.34015 -1.75717,0.16667 -2.65268,0.16667c-0.69464,0 -1.71133,0 -2.64731,0c-0.90134,0 -1.86667,0 -2.70001,0c-0.83334,0 -1.75266,0 -2.65268,0c-0.69464,0 -1.71133,0 -2.64731,0c-0.90002,0 -1.80002,0 -2.70001,0l-0.79999,0l-0.90002,0l-0.93597,0" id="svg_32" stroke-width="2" stroke="#000" fill="none"/>
  <path t="106249,106535,106604,106604,106606,106606,106675,106675,106675,106675,106675,106675,106738,106738,106738,106738,106738,106738,106738,106738,106740,106740,106740,106740,106794,106794,106794,106794,106794,106847,106847,106847,106847,106849,106849,106850,106850,106851,106851,106906,106906,106959,106959,106959,106961,106962,106962,107016,107016,107072,107073,107073,107131,107131,107131,107132,107132,107134,107192" d="m26,245c-2.08267,-0.112 -2.39501,0.63605 -2.716,1.51601c-0.32343,0.88666 -0.52394,1.71559 -0.94833,2.69167c-0.18399,0.42316 -0.63446,1.38232 -0.87733,1.91733c-0.25587,0.56363 -0.79317,1.76059 -1.29167,3.04167c-0.25326,0.65083 -0.4833,1.31088 -0.705,1.968c-0.21825,0.64688 -0.61497,1.896 -0.8,2.48398c-0.17497,0.556 -0.62694,1.97937 -0.909,2.70901c-0.36098,0.93378 -0.64353,1.51874 -1.074,2.5365c-0.33671,0.79608 -0.68132,1.65564 -1.026,2.535c-0.16998,0.43365 -0.63263,1.65714 -0.8955,2.38199c-0.34844,0.96082 -0.5395,1.5376 -1.05267,2.75717c-0.26026,0.61853 -0.56626,1.59158 -0.7885,2.34567c-0.2841,0.96402 -0.64758,1.6857 -1.225,2.36334c-0.59555,0.69891 -1.4607,1.23248 -1.931,1.578c-0.70208,0.51578 -1.42204,1.33398 -1.92667,2.17465c-0.38416,0.63998 -1.19558,1.26627 -1.63333,1.97067c-0.47242,0.76019 -0.70733,1.57681 -0.95717,2.13834c-0.53553,1.20364 -0.85243,1.8071 -1.4175,2.58298c-0.61371,0.84265 -1.28367,1.26636 -1.85067,1.91867l-0.42133,0.78934" id="svg_33" stroke-width="2" stroke="#000" fill="none"/>
  <path t="107574,107802,107818,107819,107835,107835,107852,107868,107868,107885,107902,107902,107918,107918,107935,107952,107952,107968,107968,107985,108002,108002,108023,108038,108038,108052,108052,108068,108069,108085,108102,108103,108118,108119,108135,108152,108152,108168,108185,108202,108218,108218,108235,108252,108252,108268,108285,108302,108303,108318,108335,108352,108352,108368,108385,108402,108435,108435,108452,108515,108515,108518" d="m25,259c-0.964,3.33865 -0.9084,4.33014 -1.036,5.17465c-0.14524,0.96124 -0.65216,1.50543 -0.98933,2.46133c-0.29492,0.83609 -0.58358,1.52692 -0.89067,2.47867c-0.28255,0.8757 -0.75632,1.48828 -1,2.36935c-0.233,0.84244 -0.56497,1.70694 -0.91733,2.68265c-0.22883,0.63364 -0.34721,1.65936 -0.74133,2.42267c-0.41474,0.80322 -0.79919,1.55527 -1.14133,2.21066c-0.46956,0.89948 -0.60387,1.87262 -0.9885,2.54733c-0.45292,0.79449 -1.04149,1.37601 -1.49417,2.13669c-0.4965,0.83432 -0.61381,1.81436 -1.02283,2.61615c-0.37055,0.72638 -1.02218,1.36185 -1.3425,2.07449c-0.41152,0.91553 -0.56253,1.85724 -1.04667,2.42535c-0.63517,0.74533 -0.99124,1.69537 -1.61083,2.27866c-0.60438,0.56897 -1.52656,0.78137 -2.074,1.42133c-0.64355,0.75229 -0.71415,1.55423 -1.31517,2.30002c-0.61449,0.76248 -1.27858,1.39044 -1.388,2.19998c-0.12081,0.8938 -0.44554,1.59232 -1.10117,2.30002c-0.54996,0.59363 -0.75772,1.61325 -1.33617,2.28934c-0.53622,0.62674 -1.59668,0.73624 -2.164,1.22131c-0.74671,0.63843 -1.4,1.38934 -1.87917,1.88934l-1.04167,1.5" id="svg_34" stroke-width="2" stroke="#000" fill="none"/>
 </g>
 <g display="none">
  <title>muse_image</title>
  <image xlink:href="http://farm1.static.flickr.com/70/230802412_f44d9faa43.jpg" id="muse" height="426" width="640" y="27" x="0"/>
 </g>
 <g display="none">
  <title>bbox</title>
  <rect stroke="#f00" fill="none" stroke-width="3" height="118.97297" width="192" y="167.72072" x="220.16" id="bbox"/>
 </g>
</svg>
