<svg width="640" height="480" xmlns="http://www.w3.org/2000/svg" xmlns:svg="http://www.w3.org/2000/svg" xmlns:xlink="http://www.w3.org/1999/xlink">
 <!-- Sketchy ANNOTATION
  ImageNet ID: n02503517_8757
  URL: http://farm1.static.flickr.com/22/27590184_a3ec36e96a.jpg
  Image Width: 500
  Image Height: 375
  BBox X: 159
  BBox Y: 22
  BBox Width: 186
  BBox Height: 330
  Exposure: 2000ms
  Synset Label: elephant
  Synset ID: n02503517
  Worker Tag: Elephant walking
  Sanity Check: 
   Context
   Saved
   Shading
  Comment: 
   {}
  Worker ID: A304IRIHFAI41G
  Assignment ID: 3BXQMRHWKZYIVLDBF84HC276N5UUMP
  HIT ID: 3FTID4TN8LYDJSH1ZVVPQQ39ITSYL1
  Work Time: 97s
  Worker Score: 0.9286
 END ANNOTATION -->
 <g display="inline">
  <title>Layer 1</title>
  <path t="0,163,172,182,217,241,266,281,282,305,314,345,377,377,409,410,417,430,430,448,464,480,480,497,513,514,537,537,569,593,593,601,617,633,633,647,663,680,697,713,730,730,761,777,793,809,817,841,849,863,863,879,920,921,928,945,968,993,1025,1025,1033,1073,1089,1116,1116,1168,1176,1193,1201,1229,1229,1248,1281,1297,1298,1321,1337,1337,1353,1361,1361,1377,1377,1393,1409,1432,1433,1440,1440,1448,1465,1480,1498,1498,1513,1513,1529,1548,1548,1563,1581,1581,1597,1598,1617,1641,1657,1673,1705,1721,1721,1761,1810,1860,1877,1897" d="m316,112c-1.47916,-1.5 -1.78693,-2.44667 -2.436,-2.97467c-0.7298,-0.59367 -1.09601,-1.22401 -1.73065,-1.85867c-0.63464,-0.63466 -1.4906,-0.724 -2.12885,-1.46667c-0.64514,-0.75072 -0.96896,-1.48196 -1.7045,-1.86666c-0.68732,-0.35947 -1.46201,-1.07702 -2.17465,-1.39734c-0.91553,-0.41151 -1.79544,-0.65056 -2.42535,-1.01067c-0.8642,-0.49403 -1.61877,-0.92584 -2.39999,-1.25867c-0.75153,-0.32018 -1.76617,-0.19772 -2.65717,-0.51933c-0.75562,-0.27275 -1.53824,-0.57572 -2.50684,-0.63667c-0.94882,-0.0597 -1.83685,0.02653 -2.63599,-0.01067c-0.91766,-0.04272 -1.40857,-0.74339 -2.20001,-1.16666c-0.74878,-0.40046 -1.49982,-0.82291 -2.39999,-0.83334c-0.89993,-0.01041 -1.80002,0 -2.70001,0c-0.89999,0 -1.69998,0 -2.60001,0c-0.89999,0 -1.79999,0 -2.69998,0c-0.89999,0 -1.80002,0 -2.70001,0c-0.89999,0 -1.69998,0 -2.53598,0c-1.01669,0 -1.71133,0 -2.72803,0c-0.93597,0 -1.83978,-0.08212 -2.73599,0.00017c-0.91144,0.08368 -1.43896,0.75531 -2.39999,0.979c-0.87711,0.20415 -1.63458,0.41508 -2.5,0.85417c-0.67538,0.34267 -1.23206,0.98444 -2.09982,1.16683c-0.79233,0.16653 -1.3046,0.84708 -2.10019,1.28383c-0.6481,0.35577 -1.56131,0.67692 -2.29999,1.23684c-0.66458,0.50375 -1.20001,1.17917 -1.89999,1.87917c-0.60001,0.60001 -1.24585,1.15726 -1.89551,1.9c-0.58118,0.66444 -0.76105,1.45805 -1.40984,2c-0.67696,0.56549 -1.1657,1.39625 -1.74133,2.1c-0.5934,0.72546 -1.55223,0.80001 -2.22,1.6c-0.49438,0.59226 -0.32144,1.62513 -0.75867,2.4c-0.40979,0.72623 -0.56964,1.60001 -0.57466,2.48533c-0.00534,0.94005 -0.05574,1.64298 -0.42534,2.48933c-0.42003,0.96182 -0.56424,1.62517 -0.57466,2.60384c-0.01086,1.02144 0,1.77866 0,2.67416c0,0.86333 0,1.8265 0,2.74734c0,0.9 0,1.8 0,2.7c0,0.89999 0,1.7 0,2.59999c0,0.90001 0,1.8 0.01067,2.7l0.27467,0.79868" id="svg_1" stroke-width="2" stroke="#000" fill="none"/>
  <path t="2850,2905,2922,2938,2953,2969,2969,2982,2982,3000,3015,3015,3015,3032,3033,3033,3049,3049,3065,3065,3082,3082,3099,3099,3099,3099,3115,3115,3132,3132,3149,3164,3164,3164,3182,3182,3199,3215,3215,3233,3257,3257,3273,3273,3289,3305,3313,3337,3337,3353,3369,3369,3385,3396,3396,3413,3433,3457,3458,3473,3489,3497,3529,3529,3537,3537,3547,3569,3569,3580,3597,3597,3613,3630,3630,3647,3647,3663,3663,3680,3680,3697,3697,3713,3713" d="m323,106c0,-1.8 -0.00214,-2.61971 0.42532,-3.4c0.45145,-0.82407 0.68082,-1.79527 1.01068,-2.41467c0.48026,-0.90185 1.29276,-1.18677 2.08484,-1.70617c0.67249,-0.44097 1.33679,-0.8566 2.08047,-1.36449c0.82425,-0.56293 1.38126,-1.13564 1.99869,-1.63067c0.77893,-0.62453 1.57718,-1.11835 2.59982,-1.36267c0.76712,-0.18327 1.63351,-0.288 2.34183,-0.64217c0.95834,-0.47917 1.81635,-0.77917 2.45834,-0.97916c0.642,-0.2 1.71109,-0.64903 2.604,-1.064c0.85907,-0.39924 1.57062,-0.43066 2.64334,-0.436c0.91931,-0.00457 1.58865,0 2.35397,0c1.18802,0 1.91336,0 2.89868,0c0.98401,0 1.67465,0 2.74734,0c0.91931,0 1.57919,-0.0487 2.586,0c0.88309,0.04272 1.39874,0.8177 2.26648,1.00017c0.79236,0.16662 1.09119,1.1257 1.60468,1.69983c0.56354,0.6301 1.29517,1.30034 1.89551,1.9c0.59967,0.59901 1.43091,1.15198 2.10001,1.45267c0.8291,0.3726 1.13092,1.29994 1.58398,2.14733c0.3486,0.65201 0.74753,1.51168 1.14133,2.2c0.46606,0.81458 0.88144,1.6521 1.22202,2.35716c0.40894,0.84656 0.60571,1.54436 1.06866,2.3255c0.48962,0.8261 0.24722,1.67971 0.80484,2.41734c0.58759,0.77729 1.32324,1.26811 1.46848,2.136c0.13998,0.83646 -0.05792,1.76357 0.36786,2.61133c0.34842,0.69371 1.00183,1.38348 1.28564,2.15717c0.35507,0.96793 0.38251,1.7595 0.64252,2.71149l0.51599,0.76801l0.49866,0.76866l0.40002,0.69467" id="svg_2" stroke-width="2" stroke="#000" fill="none"/>
  <path t="4467,4514,4514,4522,4538,4549,4549,4549,4565,4582,4599,4615,4615,4615,4632,4632,4649,4665,4665,4665,4682,4682,4682,4699,4699,4699,4715,4715,4715,4732,4749,4749,4765,4765,4765,4782,4782,4799,4799,4799,4815,4815,4815,4832,4832,4832,4847,4847,4847,4863,4863,4863,4880,4880,4880,4880,4897,4897,4897,4897,4913,4913,4913,4914,4914,4930,4930,4930,4930,4947,4947,4947,4963,4963,4964,4980,4980,4980,4996,4996,4996,4997,5013,5013,5030,5030,5030,5046,5046,5046,5046,5063,5063,5063,5064,5064,5080,5080,5081,5081,5096,5097,5097,5097,5097,5113,5113,5113,5137,5137,5137,5161,5161,5169,5193,5201,5217,5233,5281,5289,5305,5321,5330,5346,5363,5363,5380,5380,5395,5395,5413,5430,5430,5448,5448,5465,5465,5466,5482,5482,5496,5496,5497,5497,5513,5514,5530,5531,5531,5531,5531,5546,5547,5547,5563,5564,5580,5581,5581,5581,5596,5597,5613,5630,5646,5646,5663,5680,5681,5696,5696,5713,5714,5731,5731,5731,5731,5746,5747,5763,5764,5764,5780,5781,5796,5797,5797,5814,5815,5831,5831,5831,5846,5847,5863,5864,5864,5881,5897,5897,5914,5914,5931,5931,5947,5947,5964,5964,5981,5981,5981,5996,5997,6014,6030,6031,6031,6047,6063,6064,6080,6081,6097,6097,6113,6114,6131,6131,6131,6147,6147,6164,6164,6181,6181,6197,6197,6213,6214,6214,6231,6231,6246,6246,6263,6264,6281,6296,6297,6314,6314,6331,6331,6351,6351,6364,6381,6381,6381,6381,6381,6396,6397,6397,6413,6414,6414,6430,6431,6431,6431,6431,6446,6447,6447,6447,6447,6463,6464,6464,6480,6481,6481,6496,6513,6514,6530,6531,6531,6546,6546,6547,6563,6564,6564,6580,6581,6581,6596,6597,6597,6613,6614,6614,6630,6657,6657,6658,6681,6682,6697,6715,6732,6748,6749,6765,6766,6782,6783,6801,6813,6872,6880,6880,6896,6928" d="m364,123c1.82535,-0.42533 2.53503,-0.65797 3.47916,-1c0.84555,-0.30632 1.67001,-1.03124 2.34619,-1.38934c0.67465,-0.35728 1.65366,-0.59795 2.57465,-0.61066c0.90445,-0.01248 1.77545,-0.14578 2.436,-0.436c0.77643,-0.34112 1.74078,-0.90295 2.50684,-1.20683c0.8858,-0.35139 1.82468,-0.33237 2.50385,-0.36784c0.84216,-0.04398 1.84229,-0.26211 2.67416,-0.51017c0.58633,-0.17485 1.77988,-0.57659 2.37466,-0.77917c0.86978,-0.29623 1.93973,-0.69553 2.64282,-0.9955c0.80222,-0.34225 1.7081,-0.66468 2.62833,-0.7045c0.85364,-0.03694 1.8472,-0.12859 2.63333,-0.436c0.61221,-0.2394 1.58713,-0.79207 2.20001,-1.04317c0.98166,-0.40219 1.81534,-0.46308 2.68533,-0.60484c1.00677,-0.16404 1.55331,-0.34351 2.41916,-0.6205c1.19916,-0.38362 1.78418,-0.61415 2.65952,-0.8595c1.0618,-0.29762 1.78546,-0.3391 2.6315,-0.48866c1.01791,-0.17994 1.63974,-0.48546 2.37515,-0.74866c1.18896,-0.42552 1.88785,-0.60024 2.61469,-0.76267c0.72934,-0.16299 1.79263,-0.32586 2.81067,-0.41067c0.70071,-0.05837 1.46036,-0.09396 2.76782,-0.24667c0.48752,-0.05694 1.50153,-0.20388 2.52417,-0.35333c0.49683,-0.07261 1.84387,-0.27305 2.57333,-0.34c0.89557,-0.08219 1.70398,-0.08466 2.90665,-0.08533c0.68268,-0.00038 1.38135,0 2.69867,0c0.564,0 1.548,0 2.5,0c0.7905,0 1.64401,0 2.83334,0c0.59866,0 1.47916,0 2.31467,0c1.00134,0 1.91068,0 2.85199,0c0.7905,0 1.64401,-0.00264 2.83334,0c0.60132,0.00134 1.52649,0.00287 2.15717,0.11433c1.3819,0.24424 2.09964,0.59193 2.86368,0.88567c0.38965,0.1498 1.16638,0.48929 2.37915,0.75733c0.7926,0.17518 1.60333,0.21997 2.39999,0.348c1.20599,0.19381 2.00497,0.44438 2.77869,0.756c0.75726,0.30499 1.44818,0.66096 2.65198,1.25333c0.74698,0.36758 1.44766,0.69504 2.45203,1.08533c0.52975,0.20586 1.34598,0.42666 2.34665,0.99867c0.69186,0.39549 1.39328,0.96056 2.05469,1.51733c0.61676,0.5192 1.57901,0.75317 2.30533,1.25867c0.65979,0.45919 0.67761,1.36889 1.18533,2.05066c0.4772,0.64082 0.41345,1.59979 0.85065,2.37467c0.40982,0.72639 0.57401,1.48533 0.57468,2.436c0.00055,0.76534 0,1.7595 0,2.67867c0,0.86 0,1.80684 0,2.696c0,0.98933 0,1.78934 0,2.78934c0,0.8 0,1.60001 0,2.60899c0,0.66301 0,1.72433 0,2.69183c0,0.67834 0.02911,1.33702 -0.00134,2.64851c-0.01773,0.76324 -0.16287,1.71776 -0.28265,2.38799c-0.13852,0.77518 -0.30304,1.59529 -0.43201,2.412c-0.21976,1.39149 -0.271,2.18799 -0.28265,2.84666c-0.01791,1.01286 -0.03519,1.92178 -0.168,2.73734c-0.15836,0.97241 -0.34451,1.64342 -0.54935,2.61334c-0.21014,0.99498 -0.09109,1.88264 -0.34116,2.75333c-0.25748,0.89642 -0.87177,1.6163 -0.93216,2.47467c-0.06598,0.93774 0.14041,1.86421 -0.125,2.5825c-0.29697,0.80368 -1.14423,1.34557 -1.64301,2.22183c-0.38385,0.67432 -0.55994,1.52823 -0.95251,2.379c-0.29889,0.64774 -0.58572,1.31824 -1.26883,2.37767c-0.48288,0.7489 -1.18799,1.43098 -1.67401,1.91699c-0.69467,0.69466 -1.32599,1.326 -1.97266,1.97267c-0.69598,0.696 -1.20047,1.19955 -1.72198,1.722c-0.76801,0.76935 -1.38202,1.44481 -1.75284,2.19533c-0.34247,0.69312 -0.55399,1.52896 -1.22116,2.3145c-0.59595,0.70168 -1.56039,1.27296 -1.91702,1.7955c-0.55548,0.8139 -0.67319,1.74075 -0.983,2.66867c-0.23236,0.69588 -0.61749,1.66737 -0.83133,2.43134c-0.25726,0.91905 -0.64679,1.65436 -1.04733,2.44716c-0.39502,0.78188 -0.89999,1.6335 -1.39999,2.30017c-0.5,0.66667 -0.90738,1.3322 -1.29999,2.10133c-0.50504,0.98936 -0.814,1.75188 -1.15186,2.646c-0.35184,0.93111 -0.78671,1.37845 -1.34283,2.10001c-0.57138,0.74135 -0.87265,1.65221 -1.31598,2.28867c-0.59024,0.84738 -0.96295,1.55569 -1.48917,2.34267c-0.44247,0.66171 -0.75571,1.52173 -0.96152,2.23199c-0.2951,1.01845 -0.80997,1.58131 -1.2905,2.18933c-0.77921,0.98593 -1.08698,1.60513 -1.64816,2.43333c-0.46747,0.68988 -1.13693,1.46855 -1.47916,2.16667c-0.39856,0.81303 -0.51224,1.67068 -1.09018,2.48534c-0.40527,0.57127 -1.00967,1.07407 -1.66901,2.11017c-0.34894,0.54832 -0.62341,1.53439 -0.84567,2.2885c-0.28412,0.96399 -0.75632,1.60655 -1.30533,2.49066c-0.479,0.77135 -0.47461,1.66458 -0.77731,2.45866c-0.31232,0.81924 -1.17227,1.4398 -1.63333,2.052c-0.54871,0.72859 -0.78668,1.55829 -1.63202,2.06401c-0.97394,0.58266 -1.62378,0.61751 -2.26532,0.91199c-0.69992,0.32129 -1.41162,0.67921 -2.81601,1.25334c-0.63577,0.2599 -1.24628,0.45853 -2.32001,0.88533c-0.72742,0.28914 -1.45187,0.63849 -2.66666,1c-0.74796,0.2226 -1.59634,0.39432 -2.04166,0.47917c-0.91278,0.17392 -2.29077,0.3647 -3.17169,0.43683c-0.83923,0.06873 -1.64172,0.08989 -2.39999,0.168c-1.06818,0.11003 -1.72467,0.27002 -2.63998,0.49066c-1.07962,0.26027 -1.78375,0.39276 -2.58502,0.42084c-1.03568,0.0363 -1.9856,0.04565 -2.6825,-0.01633c-0.98605,-0.08769 -1.8017,-0.40254 -2.43631,-0.74084c-0.98373,-0.52441 -1.77371,-1.05263 -2.28152,-1.44899c-0.96036,-0.74962 -1.45502,-1.38686 -1.87598,-1.98933c-0.5567,-0.79674 -1.04974,-1.39 -1.56,-2c-0.82327,-0.98422 -1.18344,-1.61078 -1.578,-2.2c-0.54599,-0.81537 -1.27011,-1.54526 -1.67801,-2.11467c-0.58484,-0.81644 -0.99692,-1.81975 -1.43066,-2.31067c-0.47427,-0.5368 -1.38419,-1.19296 -1.85202,-1.97333c-0.49521,-0.82602 -0.69113,-1.6395 -1.48666,-2.11867c-0.7724,-0.46523 -1.2572,-1.13144 -1.79999,-1.916c-0.46469,-0.67169 -1.19809,-1.36859 -1.70001,-1.86667c-0.69733,-0.69202 -1.67975,-0.9825 -2.21597,-1.58534c-0.57822,-0.65007 -0.80002,-1.51466 -1.10934,-2.31467l-0.41068,-0.79999" id="svg_3" stroke-width="2" stroke="#000" fill="none"/>
  <path t="8810,8841,8841,8850,8863,8863,8881,8881,8896,8896,8896,8913,8913,8914,8930,8930,8930,8930,8947,8947,8964,8964,8980,8980,8980,8996,8996,8997,9013,9013,9014,9014,9014,9030,9030,9030,9030,9046,9046,9047,9047,9063,9063,9063,9064,9081,9081,9081,9097,9097,9097,9113,9113,9113,9130,9130,9130,9131,9131,9146,9147,9147,9147,9163,9163,9164,9164,9180,9180,9180,9181,9196,9196,9197,9213,9213,9214,9214,9230,9230,9231,9231,9246,9247,9247,9247,9263,9263,9264,9264,9264,9280,9281,9281,9281,9297,9297,9297,9297,9297,9297,9313,9314,9314,9314,9314,9330,9330,9331,9331,9346,9347,9347,9363,9364,9364,9364,9381,9381,9381,9397,9397,9397,9397,9397,9413,9413,9414,9414,9430,9431,9431,9431,9431,9446,9446,9447,9447,9447,9464,9464,9464,9464,9481,9481,9481,9496,9497,9497,9497,9514,9514,9514,9514,9530,9531,9531,9531,9531,9546,9547,9547,9547,9547,9564,9564,9564,9564,9580,9580,9580,9580,9596,9596,9597,9597,9597,9613,9614,9614,9630,9631,9631,9631,9646,9647,9647,9647,9663,9663,9664,9664,9664,9681,9681,9681,9681,9697,9697,9697,9697,9713,9714,9714,9714,9730,9731,9746,9747,9763,9765,9765,9765,9780,9781,9781,9781,9796,9797,9797,9814,9815,9815,9831,9831,9846,9847,9847,9863,9864,9881,9881,9896,9897,9914,9914,9914,9931,9931,9931,9947,9963,9980,9996,9997,10013,10014,10030,10046,10047,10063,10080,10081,10096,10113,10114,10130,10131,10131,10146,10146,10147,10147,10163,10164,10180,10196,10214,10214,10265,10265,10289,10313,10337,10346,10363,10380,10401,10433,10442,10489,10489,10513,10529,10568,10648,10737,10737" d="m281,250c1,-0.83333 1.64999,-0.42792 1.97467,0.41066c0.34064,0.87985 0.57382,1.57193 0.90417,2.56818c0.27148,0.81866 0.55399,1.56992 0.98248,2.2825c0.4794,0.79726 0.97806,1.56853 1.38602,2.286c0.3837,0.6748 0.91473,1.62216 1.40533,2.40533c0.34412,0.54935 0.87646,1.35556 1.46198,2.36066c0.37292,0.64017 0.91223,1.50125 1.38535,2.20752c0.53094,0.7926 0.82742,1.47867 1.064,2.2645c0.31195,1.03613 0.33942,1.77573 0.54584,2.72449c0.18143,0.8338 0.59753,1.80768 0.93182,2.53183c0.17606,0.38138 0.56049,1.16129 1.15817,2.358c0.39532,0.79153 0.77933,1.55869 1.14301,2.28601c0.49051,0.98099 0.80997,1.52979 1.11551,2.31433c0.29367,0.75406 0.46274,1.9689 0.51633,2.66135c0.056,0.7236 0.05908,1.46411 0.30933,2.85333c0.1178,0.65399 0.40018,1.57401 0.54935,2.48532c0.14572,0.89032 0.16132,1.76398 0.16666,2.83334c0.0036,0.72299 0,1.46399 0,2.66666c0,0.75333 0,1.58667 0,2.45999c0,0.87335 0,1.70667 0,2.83017c0,0.689 0,1.358 0,2.73117c0,0.73132 0,1.47867 0,2.22601c0,1.086 0,2.09549 0,2.73181c0,0.91953 0,2.12085 0,2.72086c0,0.89999 0,2.10016 0,2.7045c0,0.93149 0,1.58081 0,2.98083c0,0.75064 0,1.52533 0,2.31598c0,1.19867 0,1.99869 0,2.79868c0,0.79999 0,2 0,2.79868c0,0.79065 0,1.56534 0,2.31598c0,1.06433 0,2.08136 0,2.78268c0,0.75732 0,2.06683 0,2.556c0,1.03333 0,1.5675 0,2.64581c0,0.53418 0,2.05786 0,2.98651c0,0.87268 0,1.70532 0,2.11166c0,1.60001 0,2.38135 0,3.13068c0,0.70132 0,1.90399 0,2.672c0,0.76801 0,1.96933 0,2.66135c0,0.724 0,1.45599 0,2.85464c0,0.65866 0,1.30936 0,2.65067c0,0.71869 0,1.46933 0,2.24402c0,0.79065 0,1.98932 0,2.78934c0,0.79999 0,1.59998 0,2.79999c0,0.80133 0,1.61066 0,2.436c0,0.84933 0,2.18515 0,2.64667c0,0.93201 0,1.85599 0,2.74799c0,1.22635 0,1.95502 0,2.62769c0,0.939 0,2.14166 0,2.74167c0,0.89999 0,2.10016 0,2.7045c0,0.93149 0,1.58081 0,2.98215c0,0.76001 0,1.56 0,2.39999c0,0.88 0,1.79736 0,2.73868c0,0.47467 0,1.422 0,2.80801c0,0.88132 0,1.73065 0,2.556c0,0.40616 0,1.61066 0,2.80615c0,0.78366 -0.00107,1.54733 0,2.63785c0.00067,0.68399 0.00552,1.68848 0.05716,2.3765c0.08447,1.12567 0.21945,1.95837 0.37885,2.83017c0.08044,0.43997 0.23251,1.30722 0.564,2.45999c0.27084,0.94189 0.61594,1.69754 1,2.66666c0.31305,0.78995 0.51193,1.37131 0.79999,2.32001c0.31305,1.03098 0.50238,1.7699 0.70001,2.53418c0.20245,0.78302 0.49905,1.9794 0.70001,2.77783c0.19904,0.79089 0.39453,1.5668 0.59998,2.31598c0.29239,1.06619 0.4874,1.73865 0.836,2.71069c0.23776,0.66293 0.68182,1.69757 1.01669,2.42731c0.34372,0.74899 0.70981,1.48804 1.18066,2.58069c0.29074,0.67468 0.61465,1.61749 0.96533,2.39465c0.36911,0.81799 0.94296,1.49365 1.40134,2.25867c0.44144,0.73672 0.80048,1.67981 1.10449,2.47049c0.21667,0.56357 0.5546,1.4574 1.01682,2.34283c0.47736,0.91446 0.86938,1.49115 1.19467,2.10001c0.63162,1.18231 0.82263,1.80624 1.23666,2.64285c0.52399,1.05881 0.87927,1.51373 1.422,2.11047c0.77527,0.85242 1.32535,1.34668 2.14667,2.168c0.50403,0.50403 1.00894,1.04346 1.79468,1.79333c0.62344,0.595 1.37439,1.07455 2.05865,1.48535c0.81192,0.48746 1.46988,1.05817 2.36819,1.72116c0.45868,0.33853 1.20245,0.90591 2.2905,1.34549c0.68448,0.27652 1.50497,0.32883 2.53067,0.33334c0.836,0.00366 1.73663,-0.03391 2.63599,0c0.75879,0.02859 1.63852,0.38855 2.34732,0.64734c1.00983,0.36871 1.974,0.35266 2.65268,0.35266c1.11465,0 2,0 2.79999,0c0.836,0 1.86166,0.00006 2.66168,0c0.95984,-0.00009 1.7764,0.01889 2.64282,-0.05716c0.89871,-0.07889 1.79144,-0.29382 2.37466,-0.44284c0.83612,-0.21362 2.05795,-0.46716 2.85919,-0.49551c0.90393,-0.03198 1.86298,0.04404 2.76181,-0.00464c0.78864,-0.04272 1.53506,-0.39713 2.41583,-0.71585c0.83368,-0.3017 1.88745,-0.56451 2.31735,-1.284c0.46036,-0.77048 1.00415,-1.34293 1.51932,-1.94733c0.55096,-0.64642 0.53082,-1.46082 0.65182,-2.35266c0.11142,-0.82135 0.82877,-1.47168 0.99103,-2.40002c0.15512,-0.88745 0.42981,-1.69998 0.883,-2.39999l0.12149,-0.89999l0,-0.79999" id="svg_4" stroke-width="2" stroke="#000" fill="none"/>
  <path t="17001,17057,17069,17081,17081,17099,17099,17099,17099,17115,17115,17115,17115,17116,17131,17131,17131,17148,17148,17148,17165,17166,17181,17181,17181,17198,17198,17215,17215,17215,17231,17231,17231,17249,17249,17265,17266,17266,17282,17282,17298,17298,17299,17316,17316,17316,17316,17332,17332,17332,17346,17346,17363,17363,17363,17379,17379,17379,17396,17396,17396,17412,17412,17412,17429,17430,17430,17430,17446,17446,17463,17463,17463,17463,17479,17479,17479,17496,17496,17496,17513,17513,17513,17529,17529,17529,17529,17529,17546,17546,17546,17546,17546,17564,17564,17564,17564,17579,17579,17579,17579,17597,17597,17597,17613,17613,17613,17613,17613,17629,17629,17629,17629,17646,17646,17646,17646,17663,17663,17663,17678,17679,17679,17696,17696,17696,17697,17713,17713,17713,17729,17729,17729,17729,17746,17746,17746,17763,17763,17763,17779,17779,17796,17796,17813,17813,17813,17829,17829,17846,17847,17863,17863,17863,17881,17881,17881,17896,17913,17929,17929,17946,17946,17947,17963,17963,17979,17979,17979,17996,17996,18013,18033,18033,18046,18063,18079,18096,18096,18113,18113,18113,18129,18129,18129,18146,18146,18146,18169,18169,18179,18179,18196,18224,18248,18280,18304,18304,18328,18344,18344,18377,18385,18385,18409,18409,18440,18472,18497,18513,18521,18549,18549,18565,18584,18585,18609,18609,18633,18657,18672,18688,18736,18737" d="m362,249c0,3.45833 0,4.3 0,5.20399c0,0.85201 0.00516,1.85347 -0.01068,2.51466c-0.01794,0.74954 -0.05237,1.57315 -0.21066,2.90234c-0.05493,0.4613 -0.20331,1.38312 -0.35333,2.28168c-0.14072,0.84274 -0.30634,1.93274 -0.39999,2.79999c-0.08002,0.74078 -0.24051,1.72025 -0.45065,2.52267c-0.2157,0.82367 -0.4942,1.84952 -0.55383,2.75381c-0.0672,1.01883 0.03708,1.83023 -0.10617,2.62085c-0.18475,1.01968 -0.51416,1.60553 -1.01483,2.60001c-0.30377,0.60342 -0.75241,1.42566 -1.38385,2.19867c-0.49133,0.6015 -1.09143,1.06183 -1.88,1.98666c-0.47232,0.55396 -0.836,1.38266 -1.13599,2.11465c-0.29999,0.73199 -0.77664,1.71451 -1.38535,2.38266c-0.57336,0.62936 -1.16568,1.14542 -1.63065,1.88934c-0.52258,0.83609 -0.85251,1.88092 -1.10934,2.57733c-0.25262,0.68494 -0.65228,1.63837 -1.20001,2.36801c-0.48495,0.64603 -1.29068,1.39862 -1.79999,1.90799c-0.69604,0.69614 -1.23541,1.18015 -1.89066,1.97598c-0.63565,0.772 -0.97836,1.42282 -1.36801,2.08401c-0.59149,1.00372 -0.94626,1.5369 -1.46332,2.362c-0.49072,0.78308 -0.89554,1.50253 -1.27802,2.17801c-0.53503,0.94489 -1.03342,1.72104 -1.35382,2.27466c-0.46713,0.80716 -0.86954,1.81253 -1.03552,2.72534c-0.17059,0.93811 -0.33246,1.73486 -0.59598,2.58533c-0.18372,0.59286 -0.59799,1.78625 -0.77869,2.38934c-0.26837,0.89566 -0.47461,1.79678 -0.5535,2.6955c-0.07605,0.86642 -0.04404,1.93805 -0.06165,2.66083c-0.01807,0.74146 -0.15768,1.94437 -0.27951,2.69833c-0.13629,0.84348 -0.29581,1.74054 -0.36334,2.20166c-0.20135,1.37485 -0.27893,2.25775 -0.31665,3.10767c-0.03659,0.82492 -0.03534,1.63467 -0.03601,2.83585c-0.00046,0.79565 0,1.57932 0,2.34299c0,1.09052 0,1.77185 0,2.73633c0,0.91953 0.013,1.82126 -0.01068,2.73151c-0.0163,0.62564 -0.14728,1.95746 -0.27332,2.67468c-0.1322,0.75229 -0.30737,1.52252 -0.43201,2.31598c-0.18771,1.19482 -0.2366,1.99377 -0.26315,2.77783c-0.02585,0.7634 -0.0101,1.85428 -0.02533,2.86368c-0.00958,0.63647 -0.03851,1.56363 -0.27951,2.75583c-0.12033,0.59531 -0.41495,1.43399 -0.59451,2.48016c-0.12039,0.70142 -0.11639,1.69052 -0.12164,2.564c-0.00613,1.01855 -0.01385,1.74435 -0.08517,2.47452c-0.104,1.06476 -0.3475,2.04492 -0.48935,2.672c-0.27313,1.20749 -0.34131,1.81067 -0.42532,2.71066c-0.08401,0.89999 -0.19131,1.80765 -0.436,2.68933c-0.23926,0.86215 -0.66998,1.8866 -0.95334,2.57468c-0.25912,0.62921 -0.55832,1.63361 -0.59998,2.436c-0.05185,0.99872 -0.01068,1.79999 -0.01068,2.79999c0,0.79999 0.03061,1.60062 -0.00449,2.60001c-0.02814,0.80124 -0.30637,1.79245 -0.57019,2.63599c-0.28833,0.92191 -0.35699,1.71832 -0.45065,2.53867c-0.12112,1.06119 -0.34882,1.75607 -0.62201,2.56369c-0.34396,1.01685 -0.35266,1.86298 -0.35266,2.82831c0,0.66934 0,1.83334 0,2.63333c0,0.80002 0,1.8045 0,2.436c0,1.18518 0,1.97867 0,2.75418c0,1.03915 0,1.80716 0,2.767c0,0.89551 0,1.59015 0,2.60684c0,0.93597 0,1.83731 0,2.80264c0,0.66934 0,1.83334 0,2.43784c0,0.85266 0,1.81683 0,2.62085c0,0.82199 0,1.85333 0,2.77466c0,0.68399 0,1.94818 0,2.73868c0,0.92798 -0.32468,1.7821 0.01068,2.65067c0.30618,0.793 0.90878,1.28616 1.42532,2.01065c0.56012,0.78561 1.26401,1.30002 1.86398,1.89999c0.70001,0.70001 1.267,1.33505 1.90002,1.89868c0.76266,0.67908 1.55804,0.85788 2.09998,1.50665c0.56549,0.67697 1.29984,1.284 2.20001,1.29468c0.89993,0.01065 1.80472,0.09088 2.70001,-0.00134c0.81259,-0.08368 1.5481,-0.65866 2.09549,-1.29865c0.64359,-0.75241 0.74237,-1.60339 1.06168,-2.35269c0.30444,-0.71448 1.03168,-1.53183 1.47617,-2.34732c0.42957,-0.78806 1.08264,-1.28665 1.33331,-2.16666l0.26935,-0.64801" id="svg_6" stroke-width="2" stroke="#000" fill="none"/>
  <path t="26500,26609,26609,26626,26641,26648,26680,26688,26712,26728,26752,26752,26762,26785,26809,26824,26824,26848,26856,26888,26904,26921,26978,26994,27033,27033,27064,27088,27128,27161,27161,27185,27201,27225,27240,27256,27272,27296,27328,27328,27336,27352,27385,27392,27401,27417,27417,27429,27446,27462,27478,27496,27512,27529,27529,27552,27568,27592,27592,27624,27673,27697,27714,27732,27761,27761,27777,27793,27801,27858,27875,27898,27937,28010,28034,28050,28065,28065,28089" d="m350,413c-1,1 -1,1.79999 -1,2.70001c0,0.89999 0,1.79999 0,2.69998c0,0.89999 0,1.80002 0,2.70001c0,0.89999 -0.01801,1.70016 0,2.60001c0.01801,0.90054 0.43973,1.69647 1.09982,2.39999c0.46683,0.49753 0.60114,1.45508 0.91086,2.28934c0.27234,0.73358 0.59167,1.32437 1.02533,2.17465c0.33481,0.65646 1.35629,0.88022 2.064,1.53583c0.59363,0.54996 1.52002,0.72968 2.39999,0.92102c0.84631,0.18402 1.4874,0.89413 2.29999,0.97781c0.89529,0.09222 1.80005,0.00668 2.70001,0.00134c0.90005,-0.00534 1.75119,-0.43289 2.5,-0.83334c0.79144,-0.42328 1.03882,-1.3002 1.7045,-1.80948c0.67752,-0.51831 1.28961,-0.98444 1.72083,-1.75717c0.457,-0.81894 0.57468,-1.70001 0.57468,-2.60001c0,-0.79999 0,-1.70001 0,-2.60001c0,-0.89999 0.00067,-1.79999 0,-2.69998c-0.00067,-0.90002 -0.27399,-1.76593 -0.64734,-2.40002c-0.48608,-0.82559 -1.20969,-0.90384 -2.01932,-1.46664c-0.62311,-0.43314 -0.87695,-1.57455 -1.73334,-1.79733c-0.8717,-0.22678 -1.8038,0.04611 -2.70001,-0.03616c-0.91144,-0.08368 -1.69083,-0.49225 -2.37915,-0.99985c-0.69604,-0.51331 -1.22552,-0.98105 -2.12085,-1c-0.96445,-0.02042 -1.39429,-0.81808 -2.20132,-0.99866c-0.87698,-0.19623 -1.79868,-0.00134 -2.71951,-0.00134l-0.96317,0l-0.69064,0l-1.06818,0" id="svg_9" stroke-width="2" stroke="#000" fill="none"/>
  <path t="34186,34232,34248,34280,34297,34305,34314,34329,34329,34345,34345,34367,34367,34367,34379,34379,34379,34400,34400,34400,34417,34417,34429,34429,34445,34445,34445,34462,34462,34479,34479,34495,34495,34495,34512,34512,34513,34529,34529,34529,34529,34545,34545,34545,34562,34562,34562,34562,34579,34579,34597,34597,34614,34614,34614,34631,34631,34647,34647,34664,34664,34681,34681,34697,34697,34714,34714,34731,34731,34731,34731,34747,34747,34747,34747,34764,34764,34764,34779,34779,34779,34779,34795,34795,34795,34795,34795,34812,34812,34813,34829,34829,34829,34845,34845,34845,34862,34862,34862,34879,34879,34879,34879,34895,34895,34896,34896,34912,34912,34913,34913,34913,34929,34929,34929,34929,34946,34946,34946,34946,34962,34962,34963,34979,34979,34979,34995,34995,34995,35012,35012,35013,35029,35029,35030,35045,35045,35046,35062,35062,35079,35079,35095,35095,35096,35113,35113,35129,35129,35145,35145,35162,35179,35179,35195,35195,35212,35212,35229,35229,35245,35245,35262,35280,35304,35344,35344,35353,35362,35379,35395,35412,35449,35464,35472,35504,35520,35521,35536,35560,35569,35585,35601,35616,35630,35645,35663,35680,35695,35713,35737,35737,35785,35809,35848,35872,35872" d="m246,126c0,1.8 0,2.7 0,3.60001c0,0.89999 0,1.79999 0,2.7c0,0.80032 0.01295,1.67079 -0.00133,2.46933c-0.01819,1.01643 -0.14345,2.07007 -0.35133,2.778c-0.20102,0.68451 -0.51295,1.61551 -0.59018,2.40533c-0.08012,0.81941 -0.05716,1.88066 -0.05716,2.81134c0,0.83466 0,1.836 0,2.63599c0,1 0,1.8 0,2.80017c0,0.82066 0,1.48517 0,2.4825c0,0.79651 0,1.98401 0,2.66667c0,0.98399 0,1.912 0,2.7025c0,1.02699 0,1.73351 0,2.45799c0,1.13301 0,1.8 0,2.8755c0,0.73201 0,1.79317 0,2.77867c0,0.62534 0,1.836 0,2.43466c0,0.88051 0,1.716 0,2.716c0,0.87466 0,1.88533 0,2.68533c0,1 0,1.8 0,2.60001c0,1 0,1.79999 0,2.79999c0,0.8 0,1.79984 0,2.57918c0,0.9995 0,1.90483 0,2.85683c0,0.76534 0,1.77299 0,2.436c0,1.06133 0,2.03783 0,2.74883c0,0.731 0,1.8125 0,2.82201c0,0.63634 0,1.55583 0,2.45717c0,0.89999 0,1.8 0,2.7c0,0.909 0,1.87199 0,2.57066c0,1.17183 0,2.03017 0,2.46933c0,0.87334 0,1.70668 0,3.10535c0,0.81299 0,1.536 0,2.53999c0,0.83549 0,1.716 0,2.6145c0,0.8895 0,1.743 0,2.77899c0,0.942 0,1.69051 0,2.56418c0,1.02899 0,1.77834 0,2.55966c0,1.19733 0,1.99733 0,2.79733c0,0.8 0,2 0,2.8c0,0.8 0,1.59999 0,2.39999c0,1.19983 0,1.9955 0,2.77917c0,0.76366 0,1.85416 0,2.86366c0,0.63634 -0.00517,1.55585 0.00017,2.45717c0.00533,0.90004 0.01944,1.80537 0.1665,2.7c0.14836,0.9025 0.44711,1.75529 0.66666,2.83333c0.14442,0.70921 0.13359,1.42635 0.60951,2.58784c0.224,0.54666 0.71704,1.3358 1.39049,2.2455c0.39922,0.53926 0.9418,1.12202 1.64934,2.10133c0.34308,0.47485 0.90634,1.18082 1.34801,2.26266c0.28339,0.69412 0.46266,1.66609 0.931,2.31667c0.49298,0.6848 1.27415,1.13091 1.83966,1.53667c1.01814,0.73053 1.6154,1.2285 2.15601,2.0945c0.42204,0.67607 0.95897,1.31129 1.5945,1.7215c0.90039,0.58119 1.68173,1.05467 2.40533,1.40984c0.7713,0.37857 1.35519,1.13211 2.2215,1.64749c0.61026,0.36304 1.50055,0.81644 2.02133,1.24268c0.82587,0.6759 1.72284,0.81079 2.60001,1.03601c0.86172,0.22125 1.55148,0.71478 2.39999,1.13065c0.76251,0.37372 1.37381,0.94485 2.05267,1.48068c0.58005,0.45786 1.56653,0.18747 2.44733,0.3735c0.84738,0.17899 1.73233,0.66061 2.41599,1.26315c0.59766,0.52673 1.23203,1.0834 1.884,1.43201c0.84741,0.45309 1.62259,0.96951 2.5,1.22684c0.8642,0.25345 1.43887,0.66547 2.13602,1.02115c0.76645,0.39102 1.50519,0.61337 2.17465,1.06134c0.73544,0.49213 1.76904,0.65723 2.30533,1.26001c0.57822,0.64993 0.85355,1.55017 1.68402,1.70398c0.8855,0.164 1.69998,0.36334 2.50015,0.88934l0.78519,0.20535" id="svg_10" stroke-width="2" stroke="#000" fill="none"/>
  <path t="36811,36881,36889,36912,36912,36929,36929,36945,36945,36945,36962,36962,36979,36979,36979,36995,36995,37012,37012,37029,37029,37045,37045,37045,37062,37062,37079,37079,37079,37097,37097,37114,37114,37114,37131,37145,37145,37162,37162,37162,37163,37178,37178,37194,37194,37211,37211,37229,37229,37248,37248,37264,37264,37280,37296,37313,37313,37330,37330,37346,37368,37384,37400,37401,37413,37430" d="m364,265c0.57468,-1.60001 0.86371,-2.45541 1.35718,-3.3045c0.3674,-0.6322 0.97052,-1.34387 1.34283,-2.15717c0.43271,-0.94519 0.68546,-1.75876 0.89999,-2.27701c0.46863,-1.13199 0.94257,-1.71173 1.5,-2.58282c0.43423,-0.67859 0.68735,-1.28629 1.19998,-2.274c0.39047,-0.75237 0.9259,-1.50099 1.40002,-2.15717c0.63568,-0.87976 0.90213,-1.45691 1.39999,-2.44733c0.30127,-0.59935 0.69998,-1.40002 1.19998,-2.40001c0.30002,-0.59999 0.81897,-1.59113 1.08936,-2.2c0.35049,-0.78929 0.46976,-1.82405 0.72049,-2.59999c0.33786,-1.04552 0.93774,-1.54407 1.32217,-2.11467c0.62973,-0.93472 0.78638,-1.8083 1.08884,-2.52701c0.4743,-1.12706 0.67139,-1.64397 0.97916,-2.4375c0.2926,-0.75439 0.89941,-1.65794 1.21466,-2.40349c0.38379,-0.90759 0.25409,-1.7193 0.28983,-2.71735c0.02869,-0.80121 0.28668,-1.79597 0.57019,-2.564c0.35022,-0.94876 0.48566,-1.72893 0.85065,-2.66133c0.27313,-0.6978 0.4184,-1.66855 0.58536,-2.57466c0.1535,-0.83308 0.74844,-1.32343 1.28482,-2.25267c0.38824,-0.67265 0.67581,-1.58888 0.7045,-2.54733c0.02692,-0.89961 0.16666,-1.8 0.57468,-2.40001l0.40448,-0.89999l0.02084,-0.89999" id="svg_11" stroke-width="2" stroke="#000" fill="none"/>
  <path t="39177,39273,39300,39300,39312,39336,39352,39352,39364,39385,39409,39417,39432,39432,39448,39464,39489,39512,39552,39560,39576,39592,39600,39617,39628,39645,39662,39662,39678,39678,39695,39695,39712,39712,39736,39760,39760,39776,39800,39832,39832,39840,39840,39864,39888,39896,39913,39921,39921,39937,39953,39964,39980,39980,39980,39997,39997,40014,40030,40047,40047,40064,40080,40097,40097,40114,40114,40130,40130,40145,40145,40162,40162,40178,40178,40195,40212,40212,40212,40228,40245,40245,40245,40267,40267,40283,40283,40300,40300,40317,40317,40317,40328,40328,40328,40352,40352,40361,40377,40378,40394,40395,40412,40412,40412,40428,40428,40445,40445,40446,40462,40463,40478,40478,40478,40495,40495,40513,40513,40513,40528,40528,40528,40545,40545,40562,40562,40578,40578,40579,40595,40596,40612,40613,40628,40628,40628,40645,40645,40662,40662,40663,40663,40678,40679,40695,40696,40713,40713,40737,40745,40745,40762,40778,40778,40795,40795,40796,40812,40812,40828,40828,40845,40846,40846,40846,40862,40862,40878,40894,40894,40911,40912,40912,40928,40928,40929,40946,40946,40946,40946,40946,40946,40964,40964,40965,40965,40980,40980,40981,40981,40997,40997,40998,40998,41014,41015,41015,41030,41030,41030,41031,41045,41045,41045,41045,41062,41062,41063,41078,41078,41079,41100,41101,41101,41101,41112,41113,41113,41113,41113,41134,41134,41134,41134,41150,41150,41151,41151,41151,41162,41162,41163,41163,41178,41178,41179,41179,41198,41198,41199,41199,41214,41215,41215,41216,41227,41228,41228,41244,41245,41245,41245,41261,41261,41277,41277,41277,41297,41297,41298,41298,41314,41315,41315,41315,41331,41331,41331,41332,41345,41345,41345,41362,41362,41362,41377,41377,41378,41378,41395,41395,41395,41395,41396,41412,41412,41412,41412,41428,41428,41447,41448,41448,41464,41465,41480,41480,41481,41495,41495,41495,41512,41512,41513,41528,41528,41528,41545,41545,41562,41562,41562,41563,41563,41578,41578,41578,41578,41597,41597,41598,41598,41599,41614,41614,41615,41615,41630,41630,41631,41631,41645,41645,41662,41677,41677,41695,41712,41712,41712" d="m304,50c-0.87866,1.2215 -1.19308,2.12403 -1.7045,2.7c-0.65024,0.73227 -1.04819,1.45054 -1.46216,2.3c-0.31787,0.65226 -0.77133,1.55767 -1.444,2.02533c-0.72281,0.50252 -1.15393,1.23901 -1.556,1.97467c-0.40198,0.73548 -1.22513,1.08949 -1.88602,1.64734c-0.58655,0.49511 -1.39978,0.89027 -1.89465,1.64817c-0.45404,0.6954 -1.05475,1.31406 -1.75717,1.75716c-0.77191,0.48692 -1.59412,0.91874 -2.49551,0.94733c-0.89954,0.02854 -1.79999,-0.00189 -2.55716,0c-0.89999,0.00225 -1.66544,-0.01115 -2.64151,0.284c-0.78363,0.23696 -1.71417,0.66769 -2.48532,0.71467c-0.93967,0.05724 -1.95242,0.16212 -2.59515,0.50134c-0.82483,0.43532 -1.72217,0.5 -2.6875,0.5c-0.83334,0 -1.66687,-0.01715 -2.52884,0c-0.90506,0.01801 -1.61484,0.61812 -2.50452,0.91467c-0.85764,0.28587 -1.83643,-0.08281 -2.59998,0.17067c-0.77219,0.25634 -1.6051,0.81497 -2.50452,0.91917c-0.87143,0.10095 -1.5137,0.47286 -2.29681,0.7115c-0.97641,0.29755 -1.7843,0.2356 -2.7627,0.70933c-0.77792,0.37666 -1.67422,0.40112 -2.43597,0.66c-0.88794,0.30177 -1.65045,0.78189 -2.40134,1.2c-0.7486,0.41683 -1.46245,0.99597 -2.14601,1.41467c-0.78195,0.47896 -1.38615,1.02982 -2.30533,1.60001c-0.68118,0.42255 -1.40707,0.99285 -2.10001,1.34283c-0.84808,0.42834 -1.80934,0.34506 -2.62199,0.79317c-0.85144,0.4695 -1.46828,0.93504 -2.14134,1.36401c-0.88336,0.563 -1.64653,1.20688 -2.30933,1.6c-0.68648,0.40717 -1.43521,0.89033 -2.05867,1.48533c-0.78572,0.74986 -1.29066,1.28934 -1.94933,1.94801c-0.66667,0.66667 -1.32739,1.33942 -1.82384,1.81933c-0.54701,0.52879 -1.5468,1.31992 -2.13217,1.722c-0.73056,0.5018 -1.28432,1.13973 -1.8,1.764c-0.66081,0.79994 -1.52632,1.29364 -1.91066,1.88217c-0.52164,0.79878 -1.01556,1.48431 -1.66667,2.14583c-0.65341,0.66387 -1.18066,1.18067 -1.94933,1.94933c-0.50934,0.50934 -1.21371,1.19743 -1.70934,1.72c-0.53111,0.56 -1.30925,1.55235 -1.65384,2.164c-0.55342,0.98234 -0.7869,1.61468 -1.22083,2.34283c-0.55757,0.93562 -1.03853,1.44783 -1.50134,2.4265c-0.34911,0.73821 -0.48959,1.32179 -1.12,2.30917c-0.45787,0.71713 -1.06461,1.28815 -1.65717,2.12134c-0.53685,0.75486 -0.99155,1.65759 -1.43216,2.17483c-0.71001,0.83349 -1.24203,1.27797 -1.76401,1.8c-0.80388,0.80396 -1.45493,1.42287 -1.92534,2.14684c-0.43896,0.67556 -0.91449,1.67158 -1.1955,2.2785c-0.36644,0.79144 -0.61195,1.8025 -0.72983,2.636c-0.13181,0.93206 -0.30225,1.72929 -0.62134,2.53867c-0.21718,0.55089 -0.83279,1.54114 -1.3325,2.18367c-0.68315,0.8784 -0.95219,1.55776 -1.30482,2.52567c-0.2565,0.70406 -0.62617,1.63111 -0.716,2.516c-0.08125,0.80043 -0.5714,1.45451 -1.19867,2.20267c-0.48567,0.57925 -0.739,1.56505 -0.7805,2.31816c-0.04384,0.79555 -0.02077,2.022 -0.02083,2.6685c-0.00009,1.01083 0.03954,1.84081 -0.16667,2.97734c-0.14418,0.79472 -0.3642,1.32578 -0.54933,2.14932c-0.27267,1.21294 -0.28174,2.02232 -0.284,2.93134c-0.00227,0.91934 0,1.7735 0,2.75267c0,0.81067 0,1.45717 0,2.68933c0,0.57867 0,1.58667 0,2.81067c0,0.464 0,1.45799 0,1.976c0,1.048 0,1.56601 0,3.024c0,0.84534 0,1.60266 0,2.64366c0,1.02301 0,1.74034 0,2.48167c0,0.74933 0,2.20799 0,2.88933c0,0.96451 0,1.58084 0,2.78534c0,0.89999 0,1.5 0,2.7c0,0.60133 0,1.52083 0,2.48534c0,1.03583 0,1.76283 0,2.49384c0,1.0515 0,1.978 0,2.75949c0,0.944 0.01395,1.94849 -0.02083,2.80301c-0.02525,0.62054 -0.19011,1.98186 -0.33633,2.7155c-0.15266,0.76593 -0.34645,1.54755 -0.64284,2.74283c-0.19807,0.79881 -0.39851,1.58733 -0.564,2.364c-0.15955,0.74884 -0.3311,1.81345 -0.37885,2.48784c-0.07137,1.00804 -0.05365,1.7175 -0.05733,2.89099c-0.00272,0.867 0.00127,1.31891 -0.03583,2.24251c-0.03746,0.93254 -0.17206,2.29523 -0.32117,3.153c-0.07234,0.41617 -0.23395,1.22028 -0.64284,2.69499c-0.18962,0.68391 -0.41652,1.3237 -0.64284,2.26218c-0.21671,0.89857 -0.31192,1.80841 -0.33633,2.42532c-0.03815,0.96394 -0.02083,2.0005 -0.02083,2.73184c0,1.12199 0,1.86333 0,2.92583c0,0.66434 0,1.61084 0,2.8215c0,0.59866 0,1.47917 0,2.31467c0,1.00133 0,1.91066 0,2.85201c0,0.7905 0,1.644 0,2.83333c0,0.60133 0,1.52083 0,2.15717c0,1.36417 0,2.0955 0,2.84283c0,0.74733 0,1.83333 0,2.84283c0,0.63634 0,1.55583 0,2.75717c0,0.59999 -0.0085,1.50003 0.00034,2.7c0.00443,0.60004 -0.02315,1.52464 0.33299,2.7c0.18733,0.61823 0.54372,1.20268 1.01851,2.15717c0.49812,1.0014 0.76894,1.72519 1.02283,2.46817c0.25549,0.7477 0.47264,1.50652 0.9465,2.55299c0.30383,0.67097 0.84602,1.56104 1.1095,2.13501c0.44983,0.97995 0.50578,1.8952 0.79083,2.88666c0.23601,0.82092 0.60773,1.38676 1.07401,2.40451c0.28581,0.62384 0.55728,1.55959 0.65182,2.34816c0.09828,0.81982 0.16388,1.89856 0.48868,2.81134c0.23004,0.64648 0.77235,1.63336 1.064,2.25684c0.30891,0.6604 0.71921,1.65637 0.97917,2.47916c0.25587,0.80984 0.42938,1.81821 0.54616,2.76132c0.13287,1.07309 0.25229,1.70975 0.41068,2.40002c0.16656,0.72589 0.34761,1.46118 0.76534,2.85599c0.20084,0.67059 0.42859,1.34616 0.68399,2.052c0.4259,1.17703 0.76715,2.03607 0.94,2.48132c0.34895,0.89883 0.69551,1.77954 1.15334,3.00635c0.27153,0.7276 0.5025,1.40918 0.774,2.034c0.53238,1.22516 0.87241,1.82211 1.45799,2.63699c0.37091,0.51614 1.20905,1.27277 1.91734,1.85068c0.72676,0.59296 1.10944,1.37769 1.51933,2.12134c0.43124,0.78241 0.57433,1.62164 0.89433,2.34164l0.345,0.64502" id="svg_12" stroke-width="2" stroke="#000" fill="none"/>
  <path t="43881,43977,43994,44004,44012,44032,44032,44045,44045,44062,44062,44078,44078,44095,44095,44112,44112,44128,44128,44128,44145,44145,44162,44162,44178,44178,44195,44195,44212,44212,44228,44228,44245,44245,44262,44262,44278,44278,44297,44297,44314,44314,44330,44330,44345,44345,44362,44362,44378,44395,44412,44428,44447,44447,44462,44478,44478,44496,44496,44520,44528,44528,44560,44576,44600,44609,44609,44632,44656,44696,44720,44736,44745,44764,44780,44794,44811,44811,44840,44840,44856,44864,44889,44889,44904,44936,44945,44968,45177,45177,45225,45233,45249,45249,45265,45280,45297,45314,45314,45314,45344,45360,45360,45368,45384,45408,45416,45416,45448,45457,45480,45497,45498,45521,45521,45537,45569,45585,45585,45601,45601,45617,45630,45664,45729,45753,45768,45800,45816,45816,45856,45913,45953,45961,45962,45986,45995,46012,46012,46028,46045,46045,46062,46062,46096,46112,46120,46144,46160,46176,46184,46184,46195,46212,46227,46227,46245,46245,46245,46262,46262,46262,46262,46262,46278,46278,46278,46295,46295,46295,46312,46313,46328,46345,46362,46362,46378,46378,46395,46395,46395,46395,46412,46412,46412,46412,46428,46428,46428,46428,46445,46445,46445,46462,46462,46462,46478,46478,46478,46494,46494,46494,46512,46512,46512,46528,46528,46545,46561,46561,46578,46578,46595,46595,46611,46628,46628,46645,46645,46661,46661,46678,46678,46678,46695,46695,46711,46728,46728,46745,46745,46745,46761,46761,46761,46778,46778,46795,46795,46811,46811,46828,46828,46845,46845,46845,46861,46861,46878,46878,46895,46895,46911,46928,46928,46945,46945,46945,46961,46961,46978,46978,46995,47011,47011,47028,47045,47061,47077,47077,47095,47095,47111,47128,47128,47144,47144,47144,47161,47161,47178,47178,47195,47195,47195,47212,47212,47212,47227,47227,47228,47228,47245,47245,47245,47261,47278,47278,47278,47278,47294,47294,47294,47311,47311,47328,47328,47328,47345,47345,47345,47361,47361,47378,47378,47395,47396,47396,47396,47411,47411,47411,47428,47428,47428,47428,47445,47445,47461,47461,47461,47478,47478,47495,47495,47511,47511,47528,47528,47528,47545,47545,47561,47561,47578,47578,47595,47595,47611,47611,47628,47628,47645,47645,47661,47661,47661,47678,47678,47678,47695,47695,47711,47744,47848" d="m236,299c0,1.79999 0,2.70001 0,3.60001c0,0.81067 0.00121,1.72131 0,2.57465c-0.00134,0.94135 -0.14355,1.72882 -0.70534,2.48251c-0.42406,0.56891 -1.13484,1.52579 -1.25299,2.32199c-0.14685,0.98956 -0.07693,1.78091 -0.39433,2.6825c-0.20778,0.59021 -0.55237,1.75711 -0.61134,2.55301c-0.05736,0.77402 -0.03423,1.81601 -0.036,2.53351c-0.00226,0.909 -0.04381,1.86462 -0.284,2.65182c-0.24841,0.81412 -0.63651,1.79556 -0.69518,2.57916c-0.07465,0.99695 -0.05107,1.78275 -0.37349,2.67801c-0.2722,0.75583 -0.54028,1.74631 -0.67267,2.54285c-0.16704,1.00507 -0.55173,1.75296 -0.808,2.63333c-0.22562,0.77505 -0.16667,1.65198 -0.16667,2.57117c0,0.99548 0,1.7955 0,2.79532c0,0.77933 0,1.77884 0,2.55283c0,0.90002 0,1.76334 0,2.61136c0,0.93597 0,1.836 0,2.73599c0,0.89999 -0.0024,1.69998 0,2.65717c0.00226,0.89999 -0.01115,1.66544 0.284,2.64151c0.23695,0.7836 0.67329,1.71289 0.716,2.60132c0.03842,0.79907 0.05545,1.70096 0.5,2.5c0.44562,0.80093 0.82613,1.53665 1.216,2.29999c0.38455,0.7529 0.284,1.70001 0.284,2.60001c0,0.89999 -0.14978,1.81259 0.00017,2.69983c0.144,0.85202 0.97055,1.25607 0.99983,2.20016c0.02795,0.90091 0.02525,1.61002 0.436,2.52536c0.31989,0.71283 1.13084,1.44769 1.44249,2.27466c0.32025,0.84982 -0.07446,1.73441 0.17867,2.60001c0.25664,0.87762 0.80731,1.60852 0.94417,2.5c0.14058,0.91577 1.01147,1.45126 0.95201,2.39999c-0.05566,0.88797 -0.99193,1.57632 -1.55334,1.96399c-0.80754,0.55762 -1.28185,1.14206 -1.84666,1.836c-0.59164,0.7269 -1.39754,0.96906 -2.06934,1.39999c-0.87436,0.56088 -1.40784,1.29401 -2.084,1.76401c-0.8058,0.56012 -1.43964,0.99396 -2.01067,1.49734c-0.70766,0.62381 -1.13194,1.45334 -1.88933,1.91782c-0.75264,0.46158 -1.81259,0.60709 -2.37866,1.24252c-0.46292,0.51968 -0.58566,1.58853 -0.83734,2.29431c-0.33728,0.94583 -0.62642,1.79782 -1.284,2.48401c-0.58711,0.61264 -1.20456,1.1955 -1.8,1.79999c-0.68445,0.69485 -0.97859,1.6571 -1.636,2.17468c-0.64703,0.50943 -1.13474,1.1875 -1.73067,1.85867c-0.53841,0.60638 -1.12303,1.22357 -1.48067,1.86667c-0.47441,0.85312 -0.9418,1.61792 -1.23116,2.39999c-0.31512,0.85175 -0.13173,1.7547 -0.73218,2.5c-0.52704,0.65421 -1.15544,1.42471 -1.442,2.10001c-0.36516,0.86053 -0.78424,1.62955 -0.97266,2.47464c-0.21216,0.95157 -0.82053,1.59094 -0.964,2.42535c-0.15253,0.88702 -0.01067,1.79999 -0.01067,2.69998c0,0.90002 0,1.80002 0,2.70001c0,0.79999 -0.19525,1.72949 0.036,2.60001c0.23456,0.883 0.91722,1.31128 1.73601,1.884c0.77354,0.54108 1.37587,0.90292 2.39467,1.34933c0.70575,0.30923 1.45679,0.53699 2.20799,0.75598c0.73955,0.21558 2.14111,0.60303 2.77867,0.81067c0.88853,0.28937 1.69321,0.57089 2.59999,1c0.59427,0.28122 1.49879,0.88986 2.04533,1.39999c0.71371,0.66617 1.50443,1.17142 2.36801,1.20001c0.83287,0.02759 1.81233,-0.00006 2.70033,0c0.89732,0.00009 1.83081,-0.00046 2.52899,0.03601c0.72337,0.03778 1.78514,0.17358 2.77867,0.38931c0.65239,0.14166 1.3029,0.34299 2.70934,0.48935c0.73898,0.0769 1.49062,0.07886 2.23199,0.08398c1.0623,0.00735 2.03734,0.00134 2.92233,0.00134c1.04033,0 1.73634,0 2.64568,0c1.00133,0 1.83682,0 2.4205,0c1.19533,0 2.08482,0 2.93832,0c1.03568,0 1.72118,0 2.55583,0c0.99684,0 1.93584,0.17487 2.88051,-0.02084c0.8727,-0.18082 1.39305,-0.8013 2.17351,-1.27914c0.68362,-0.41855 1.6033,-0.98575 2.146,-1.5c0.71927,-0.68158 1.43851,-1.37003 1.90134,-1.95718c0.54614,-0.69284 0.86865,-1.43817 1.5,-2.36017c0.3815,-0.55713 0.90619,-1.42273 1.19998,-2.13333c0.30649,-0.74133 0.8616,-1.74051 1.24283,-2.44034c0.43219,-0.79337 0.6293,-1.80038 0.96783,-2.51965c0.37482,-0.79633 0.82245,-1.5845 1.03217,-2.24649c0.29971,-0.94611 0.24811,-1.77005 0.44119,-2.7735c0.18829,-0.97845 0.73288,-1.63132 0.87997,-2.60535c0.11438,-0.75751 0.03546,-1.76401 0.03601,-2.564c0.00067,-1 -0.03568,-1.81601 0.22134,-2.80002c0.16016,-0.61313 0.57394,-1.38525 0.7215,-2.39999c0.11536,-0.79337 -0.02148,-1.80652 0.09317,-2.564c0.14703,-0.97141 0.68842,-1.63174 1.01666,-2.59317c0.30789,-0.90182 0.60065,-1.47192 0.82599,-2.664c0.14847,-0.78537 0.06961,-1.59601 0.34268,-2.436c0.25839,-0.79489 0.72723,-1.62433 0.77417,-2.49014c0.05502,-1.01532 0.39056,-1.79105 0.72049,-2.45267c0.42056,-0.84338 0.11755,-1.81949 0.30484,-2.70001c0.1814,-0.85291 0.83731,-1.35211 1.3685,-2.32535c0.36572,-0.6701 0.57364,-1.54935 0.61081,-2.49615c0.03491,-0.88919 0.21497,-1.88068 0.42517,-2.47849c0.28235,-0.80301 0.54205,-1.79877 0.57019,-2.60001c0.03516,-1.00073 -0.00085,-1.83603 0.00449,-2.76666c0.00452,-0.78604 -0.05197,-1.64658 0.33334,-2.66669c0.28448,-0.75314 0.92853,-1.33841 1.33331,-2.33331c0.30914,-0.7598 0.32068,-1.6438 0.33069,-2.23468c0.02023,-1.1958 -0.00101,-2.05701 0.00266,-2.828c0.00534,-1.12003 0.16602,-2.10419 0.35266,-2.785c0.22128,-0.80719 0.41824,-1.38049 0.56201,-2.58432c0.10468,-0.87662 0.08466,-1.716 0.08533,-2.716c0.00058,-0.87466 0,-1.8855 0,-2.70618c0,-0.66449 0,-1.66315 0,-2.47916c0,-0.81601 0,-1.81467 0,-2.68933c0,-1.01083 0.00653,-1.83154 0,-2.97733c-0.00452,-0.79053 0.03464,-1.36877 -0.17065,-2.23468c-0.29132,-1.22876 -0.69659,-1.79071 -0.97867,-2.39865c-0.55002,-1.18539 -0.70065,-1.79562 -0.82983,-2.67917c-0.1218,-0.83304 -0.26645,-1.85132 -0.6315,-2.71017c-0.35181,-0.82767 -0.7554,-1.61978 -1.18933,-2.32535c-0.46469,-0.75555 -1.03235,-1.34933 -1.5,-2.14249c-0.43054,-0.73019 -0.90002,-1.74283 -1.20001,-2.34283c-0.5,-1 -0.7998,-1.6001 -1.20001,-2.39999c-0.49976,-0.99881 -0.75217,-1.60901 -1.29999,-2.43335c-0.46124,-0.69403 -1.09735,-1.48956 -1.5,-2.16666c-0.49673,-0.8353 -1.09875,-1.45193 -1.37866,-2.32132c-0.26535,-0.82419 -0.40314,-1.79703 -0.82584,-2.43134c-0.49008,-0.73541 -0.95261,-1.43311 -1.17401,-2.44751c-0.1763,-0.8078 -0.10413,-1.48535 -0.12598,-2.7525c-0.00943,-0.54749 -0.00134,-1.38348 -0.34818,-2.58566c-0.18124,-0.6282 -0.59018,-1.7045 -0.64734,-2.56168l0,-0.89999" id="svg_13" stroke-width="2" stroke="#000" fill="none"/>
  <path t="48949,49001,49020,49032,49045,49061,49078,49078,49095,49111,49111,49128,49128,49128,49145,49145,49161,49161,49178,49195,49195,49211,49211,49228,49228,49245,49245,49261,49261,49278,49278,49295,49329,49353,49353,49377,49400,49408,49424,49424,49449" d="m220,283c0,1.79999 0,2.70001 0,3.60001c0,0.89999 0,1.7045 0,2.72131c0,0.67868 -0.02733,1.65753 0,2.67868c0.01801,0.67273 0.19154,1.55255 0.52083,2.5c0.25734,0.74045 0.68867,1.52414 1.17917,2.24817c0.60738,0.89658 1.05992,1.56812 1.24284,2.49466c0.16641,0.84296 0.0163,1.64386 0.06783,2.59317c0.04169,0.76782 0.29692,1.78461 0.69383,2.50684c0.44228,0.80481 1.02531,1.39066 1.5955,2.30984c0.42253,0.68115 0.88173,1.47821 1.39999,2.04282c0.66652,0.7261 1.10001,1.5506 1.46667,2.3045c0.3714,0.76361 0.52483,1.55865 0.84399,2.38934c0.31465,0.81894 0.93666,1.3205 1.07333,2.12799l0.43683,0.96182" id="svg_14" stroke-width="2" stroke="#000" fill="none"/>
  <path t="50258,50329,50362,50362,50378,50402,50402,50417,50430,50430,50444,50461,50461,50478,50478,50478,50495,50495,50512,50536,50552,50552,50561,50578,50595" d="m274,321c1.75717,0.05716 2.64172,0.37994 3.34732,0.64734c0.88315,0.33466 1.68677,0.68387 2.45267,1.06866c0.78592,0.39487 1.85269,0.284 2.54733,0.284c1.02734,0 1.97433,0 2.69434,0c1.125,0 1.90652,0 2.69702,0c0.92798,0 1.85962,0.16937 2.76132,-0.02084c0.84741,-0.17877 1.60001,-0.85767 2.29999,-0.97781l0.90002,-0.00134l0.89999,-0.03601l0.81067,-0.38931" id="svg_15" stroke-width="2" stroke="#000" fill="none"/>
  <path t="52802,52825,52832,52845,52861,52878,52895,52895,52911,52911,52911,52927,52927,52945,52945,52945,52961,52961,52961,52978,52978,52978,52997,52997,53014,53014,53014,53014,53030,53031,53045,53045,53045,53061,53062,53062,53077,53077,53077,53077,53094,53094,53094,53110,53110,53110,53110,53127,53127,53127,53144,53144,53144,53144,53160,53160,53160,53160,53160,53177,53177,53177,53197,53197,53197,53213,53213,53213,53213,53230,53230,53230,53247,53247,53247,53263,53263,53263,53280,53280,53280,53280,53295,53295,53295,53311,53311,53311,53311,53328,53328,53328,53345,53345,53345,53345,53361,53361,53361,53378,53378,53394,53394,53394,53411,53411,53411,53428,53428,53445,53445,53445,53460,53460,53460,53478,53478,53495,53495,53510,53510,53528,53528,53545,53545,53561,53561,53578,53578,53578,53595,53595,53595,53611,53611,53628,53628,53645,53645,53661,53678,53695,53695,53711,53728,53747,53763,53780,53780,53800,53801,53824,53856,53864,53880,53880,53904,53920,53921,53936,53937,53946,53963,53963,53978,53978,53978,53978,53995,53995,53995,53995,53995,54011,54011,54011,54011,54028,54028,54028,54028,54028,54045,54045,54045,54045,54061,54061,54061,54078,54078,54095,54111,54111,54128,54128,54145,54161,54178,54178,54196,54196,54212,54229,54229,54244,54245,54260,54260,54277,54277,54278,54294,54294,54310,54311,54311,54311,54327,54328,54328,54344,54345,54345,54362,54362,54362,54363,54380,54380,54381,54397,54397,54413,54413,54414,54428,54428,54428,54445,54445,54445,54445,54445,54461,54461,54461,54461,54461,54478,54478,54478,54478,54478,54494,54494,54495,54495,54495,54511,54511,54512,54512,54512,54528,54528,54528,54545,54545,54545,54545,54561,54561,54561,54561,54561,54578,54578,54578,54578,54595,54595,54595,54595,54595,54596,54611,54611,54611,54611,54612,54612,54628,54628,54628,54628,54629,54629,54629,54645,54645,54645,54646,54646,54646,54661,54661,54661,54661,54662,54662,54678,54678,54678,54678,54679,54679,54679,54679,54695,54695,54695,54696,54696,54696,54696,54710,54710,54711,54711,54728,54728,54728,54729,54729,54745,54745,54745,54746,54746,54761,54761,54761,54762,54778,54778,54778,54795,54795,54795,54811,54811,54811,54828,54828,54845,54845,54846,54861,54861,54878,54878,54894,54895,54895,54910,54911,54927,54928,54928,54943,54944,54944,54963,54963,54964,54980,54981,54998,54998,55013,55014,55028,55029,55029,55045,55046,55046,55060,55061,55061,55077,55078,55078,55095,55112,55113,55129,55130,55130,55144,55144,55160,55178,55178,55194,55211,55211,55228,55228,55244,55244,55261,55261,55278,55278,55294,55294,55311,55328,55328,55344,55440" d="m353,301c0,1.79999 0,2.70001 0,3.60001c0,0.89999 0,1.7045 0,2.7215c0,0.69934 -0.03186,1.67957 0.01068,2.47849c0.04272,0.80237 0.32675,1.80887 0.69382,2.60001c0.3757,0.80975 0.80402,1.62778 1.18085,2.28534c0.57858,1.00961 0.96161,1.52216 1.40482,2.362c0.40674,0.77078 0.6167,1.72278 0.79251,2.55133c0.17184,0.80984 0.54276,1.63129 0.91733,2.56799c0.31238,0.78116 0.59311,1.6106 0.79999,2.14935c0.38589,1.005 0.82526,1.89392 1.03336,2.85065c0.16895,0.77673 0.10638,1.64694 0.5,2.66669c0.29065,0.75302 0.90274,1.35901 1.5,2.33331c0.30838,0.50305 0.65424,1.35114 0.86215,1.93784c0.42151,1.18954 0.63126,1.78677 0.8685,2.6955c0.31067,1.19 0.35199,1.80002 0.436,2.70001c0.08401,0.89999 0.19937,1.80554 0.436,2.70001c0.15982,0.6041 0.56058,1.80115 0.76532,2.40131c0.3143,0.92133 0.54095,1.56201 0.96533,2.56534c0.30536,0.72195 0.66037,1.45346 0.97202,2.20801c0.30414,0.73642 0.69553,2.13828 0.81067,2.77866c0.15903,0.88446 0.48044,1.93311 0.90134,2.63202c0.28989,0.48138 0.8511,1.53995 0.97998,2.18265c0.20499,1.02228 0.14276,1.73923 0.39069,2.98917c0.15717,0.79227 0.48837,1.4783 0.65717,2.46417c0.13644,0.79694 0.11923,1.62601 0.12149,2.6575c0.00153,0.70651 -0.00443,1.69052 0.00015,2.564c0.00534,1.01855 0.01379,1.74435 0.08517,2.47452c0.1041,1.06479 0.33859,2.05017 0.52533,2.672c0.36578,1.21799 0.60287,1.80472 0.8685,2.68982c0.24954,0.83142 0.43933,1.83786 0.52084,2.54169c0.08667,0.7482 0.27762,1.95023 0.436,2.6405c0.16656,0.72589 0.35614,1.45862 0.66382,2.51682c0.28116,0.96698 0.57828,1.79425 0.77884,2.67917c0.17831,0.78683 0.34763,1.6843 0.54666,2.41467c0.22769,0.83548 0.4588,2.02707 0.54935,2.90668c0.08301,0.80649 0.22882,1.68774 0.63599,2.47198c0.46887,0.90311 0.78784,1.61124 1.08936,2.40115c0.29852,0.78207 0.66937,1.71823 1,2.28653c0.54645,0.9393 1.07446,1.53131 1.27466,2.49765c0.15683,0.75702 0.41483,1.75137 0.67267,2.564c0.31265,0.98544 0.29617,1.76569 0.354,2.716c0.04694,0.77115 0.39841,1.52985 0.646,2.34567c0.28665,0.94458 0.33063,1.76324 0.34818,2.58566c0.022,1.03113 0.00449,1.95267 0.00449,2.63666c0,0.99869 0,1.79517 0,2.98267c0,0.8125 0,1.65466 0,2.508c0,0.94 0,1.92535 0,2.82535c0,0.79999 -0.01041,1.70007 0,2.60001c0.01044,0.90018 0.53528,1.60629 0.87851,2.50015c0.28473,0.74155 0.10992,1.72528 0.12149,2.41583c0.01801,1.07379 0.58914,1.80191 0.87851,2.58401c0.31512,0.85175 0.26892,1.6666 0.69617,2.53598c0.40341,0.82086 0.28824,1.67725 0.99466,2.47736c0.50104,0.56747 1.54553,0.79901 2.43066,0.88666c0.70819,0.07013 1.76379,0.44427 2.37149,0.70532c0.69022,0.29651 1.42465,0.65009 2.62851,0.96133c0.79062,0.20441 1.59964,0.276 2.39999,0.34802c0.79968,0.07196 2.00131,0.19888 2.80002,0.33798c0.80139,0.13956 1.59552,0.3262 2.79999,0.48068c0.79758,0.10229 1.59979,0.13864 2.39999,0.15598c0.7999,0.01733 1.99973,0.00458 2.79102,0.01517c0.76743,0.01028 1.50803,-0.02969 2.76599,0.21686c0.78262,0.15338 1.41565,0.50845 2.44168,0.69333c0.75677,0.13635 1.84866,0.08533 2.76797,0.08533c0.83334,0 1.81183,0 2.52884,0c0.90451,0 1.82565,0.02347 2.78851,-0.00134c0.69128,-0.01782 1.67178,-0.23358 2.31467,-0.79999c0.75391,-0.66422 1.20422,-1.36356 1.60132,-2.02402c0.60443,-1.00534 1.13898,-1.48593 1.47867,-2.49615c0.22623,-0.67276 0.24695,-1.69351 0.55734,-2.47849c0.32343,-0.81787 0.81802,-1.57925 1.12799,-2.436c0.32962,-0.91107 0.39532,-1.72043 0.42532,-2.57468c0.02072,-0.59036 0.01068,-1.78934 0.01068,-2.68933c0,-0.60001 0,-1.79999 0,-2.70001c0,-0.59998 0,-1.79999 0,-2.69998c0,-0.60001 0,-1.5 0,-2.69867c0,-0.59067 0,-1.44418 0,-2.47983c0,-0.90067 0,-1.92151 0,-2.73218c0,-0.87466 0,-1.87601 0,-2.73099c0,-0.62 0,-1.625 0,-2.72c0,-0.78 0.00003,-1.60001 0,-2.02499c-0.00009,-1.33484 0.00226,-2.27066 -0.02084,-3.23419c-0.01175,-0.48993 -0.04666,-1.48212 -0.14581,-2.47916c-0.09949,-1.00058 -0.25858,-1.98935 -0.33334,-2.47916c-0.14713,-0.96371 -0.33725,-2.35379 -0.37885,-2.79935c-0.0806,-0.86365 -0.11151,-1.70456 -0.23099,-2.517c-0.17825,-1.21204 -0.44565,-2.00647 -0.74084,-2.78317c-0.28656,-0.75403 -0.64545,-1.43121 -0.98132,-2.65332c-0.20834,-0.75806 -0.30139,-1.54764 -0.61099,-2.41101c-0.24442,-0.68158 -0.59326,-1.40128 -0.966,-2.16599c-0.58258,-1.19516 -0.99854,-1.98483 -1.36966,-2.78033c-0.35928,-0.77014 -0.58667,-1.12973 -0.97885,-2.58951c-0.17844,-0.66418 -0.21426,-1.3541 -0.49582,-2.3905c-0.21048,-0.77475 -0.59094,-1.60651 -1.04401,-2.50266c-0.23886,-0.47247 -0.76367,-1.43454 -1.02133,-1.93066c-0.77396,-1.49023 -1.0011,-1.9964 -1.22418,-2.50183c-0.44659,-1.01187 -0.65518,-1.52817 -1.05582,-2.58084c-0.41028,-1.07797 -0.60019,-1.63651 -1.00583,-2.76733c-0.20551,-0.57291 -0.40594,-1.15137 -0.85266,-2.29468c-0.22299,-0.57071 -0.69336,-1.69391 -1.22818,-2.76599c-0.26392,-0.52902 -0.53915,-1.04672 -1.12534,-2.04001c-0.28821,-0.48834 -1.18723,-1.88144 -1.48932,-2.3255c-0.59586,-0.87582 -0.90482,-1.30322 -1.5,-2.1825c-0.30246,-0.44684 -1.20386,-1.86978 -1.5,-2.38165c-0.30399,-0.52542 -0.60654,-1.0679 -1.20001,-2.19867c-0.30334,-0.57794 -0.60107,-1.16681 -0.89999,-1.76102c-0.90308,-1.7952 -1.19806,-2.39365 -1.49551,-2.98383c-0.29324,-0.58182 -0.5791,-1.15335 -1.14734,-2.242c-0.26965,-0.51663 -1.02899,-1.91092 -1.5,-2.69998c-0.21811,-0.36539 -0.85202,-1.35843 -1.45715,-2.27151c-0.39957,-0.60294 -0.81021,-1.21518 -1.20001,-1.87201c-0.41086,-0.69232 -1.00522,-1.86826 -1.39999,-2.73334c-0.20267,-0.44409 -0.59586,-1.34589 -0.79999,-1.78931c-0.5881,-1.27756 -0.99039,-2.03815 -1.38934,-2.72269c-0.36707,-0.62982 -1.05521,-1.70966 -1.45349,-2.42551c-0.35663,-0.64096 -0.86569,-1.6532 -1.15717,-2.26782c-0.41211,-0.86902 -0.80942,-1.86966 -0.98935,-2.41467c-0.26968,-0.81683 -0.47678,-1.85492 -0.61066,-2.75381c-0.1524,-1.02307 -0.4534,-1.81119 -0.64734,-2.42084c-0.31339,-0.9852 -0.25446,-1.9491 -0.36166,-2.85184c-0.08673,-0.73035 -0.56833,-1.51224 -0.991,-2.26901c-0.44183,-0.79108 -0.8812,-1.78738 -0.95834,-2.47916c-0.12936,-1.16022 -0.01147,-1.95474 -0.07767,-2.77466c-0.08585,-1.06326 -0.30954,-1.77713 -0.57465,-2.45068c-0.37308,-0.94788 -0.70267,-1.71701 -0.95334,-2.51334c-0.29013,-0.92169 -0.42142,-1.88885 -0.72,-2.74664c-0.2569,-0.73798 -0.58884,-1.71561 -0.716,-2.51468c-0.15933,-1.00119 -0.30417,-1.63144 -0.76166,-2.39999c-0.49942,-0.83899 -1.11411,-1.3699 -1.5285,-2.05716c-0.55319,-0.91745 -0.63449,-1.77017 -0.758,-2.59018c-0.15573,-1.03381 -0.43695,-1.93057 -0.75317,-2.466c-0.53033,-0.89798 -1.07846,-1.80798 -1.19867,-2.50751c-0.16821,-0.97888 -0.42444,-1.78445 -0.7045,-2.37915c-0.47473,-1.00806 -0.89716,-1.75089 -1.21149,-2.71466c-0.28531,-0.87479 -0.83099,-1.42328 -1.048,-2.29602c-0.21994,-0.88461 0.00055,-1.81638 -0.25735,-2.78915c-0.15985,-0.60297 -0.59055,-1.63904 -0.80399,-2.42551c-0.2352,-0.8667 -0.63422,-1.56314 -0.85318,-2.57449c-0.16629,-0.76801 -0.10385,-1.77884 -0.12149,-2.59885c-0.01801,-0.83789 -0.284,-1.68533 -0.64734,-2.54865l-0.2955,-0.89551l-0.05731,-0.85699" id="svg_16" stroke-width="2" stroke="#000" fill="none"/>
  <path t="56316,56385,56409,56426,56426,56441,56463,56463,56481,56481,56504,56528,56569,56602,56602,56610,56841" d="m343,331c1.70001,-1.05267 2.48032,-1.54178 3.20001,-2.19867c0.5845,-0.53348 1.45667,-0.76688 2.284,-1.08667c0.71207,-0.27527 1.58258,-0.9845 2.21149,-1.35748c0.75708,-0.44904 1.65076,-0.87897 2.40451,-1.23584c0.85406,-0.40436 1.5,-0.69601 2.37915,-1.12134l0.54617,-0.57468" id="svg_17" stroke-width="2" stroke="#000" fill="none"/>
  <path t="57602,57681,57681,57698,57714,57714,57728,57728,57744,57761,57778" d="m336,327c1.82535,1.38934 2.49161,1.83286 3.5,1.97916c0.81308,0.11795 1.7233,-0.08322 2.61465,0.30484c0.74176,0.32294 1.58536,0.71152 2.44934,0.75201l0.52002,0.67999" id="svg_18" stroke-width="2" stroke="#000" fill="none"/>
  <path t="59058,59103,59112,59112,59112,59128,59128,59128,59128,59144,59144,59144,59144,59144,59144,59144,59144,59161,59162,59162,59162,59162,59162,59162,59178,59178,59178,59178,59178,59178,59178,59194,59194,59194,59194,59194,59211,59211,59211,59211,59211,59228,59228,59228,59228,59244,59244,59244,59261,59261,59261,59261,59278,59278,59297,59297,59297,59312,59312,59312,59312,59328,59328,59344,59344,59360,59360,59360,59377,59400,59400,59424,59424,59456,59473,59520,59543,59560,59576,59592,59592,59704,59721,59721" d="m387,298c0.11432,-1.75717 0.58545,-2.47571 1.02084,-3.0625c0.51599,-0.69543 0.96774,-1.577 1.2355,-2.26083c0.29599,-0.75592 0.57153,-1.61823 1.24365,-3.01001c0.24966,-0.517 0.55164,-1.03888 0.858,-1.58548c0.64124,-1.1441 0.97333,-1.73471 1.284,-2.34735c0.31345,-0.6181 0.87598,-1.89429 1.09366,-2.55499c0.43347,-1.31564 0.57126,-1.99252 0.72269,-2.65799c0.14987,-0.65857 0.2532,-1.31854 0.70831,-3.1875c0.14438,-0.5929 0.31201,-1.16391 0.64801,-2.26135c0.16257,-0.53094 0.48993,-1.5592 0.616,-2.06934c0.36887,-1.49261 0.42215,-1.99927 0.49734,-2.99197c0.0737,-0.97321 0.06644,-1.45349 0.07199,-2.84402c0.00351,-0.88132 -0.00177,-1.73114 0.03601,-2.556c0.03711,-0.80997 0.16956,-2.01321 0.32117,-2.80167c0.14816,-0.77048 0.32278,-1.50238 0.64282,-2.47565c0.27463,-0.83517 0.62726,-1.57022 0.83334,-2.66669c0.11795,-0.62753 0.15259,-1.64569 0.16217,-2.30415c0.01596,-1.09824 0.00464,-2.01062 0.22598,-2.90567c0.18484,-0.74747 0.49017,-1.62091 0.7785,-2.6235c0.20511,-0.71321 0.37466,-1.44505 0.70001,-2.46632c0.27847,-0.87415 0.80811,-1.61833 1.13333,-2.53368c0.22903,-0.64461 0.31174,-1.8405 0.51932,-2.42883c0.26727,-0.75757 0.60953,-1.77924 0.64749,-2.72583c0.03424,-0.85339 0.28534,-1.62274 0.64719,-2.37416c0.41956,-0.87125 0.35266,-1.8045 0.35266,-2.7045c0,-0.90001 0,-1.8 0,-2.70001c0,-0.89999 0,-1.7 0.03601,-2.536l0.24799,-0.84799l0.36334,-0.86334" id="svg_19" stroke-width="2" stroke="#000" fill="none"/>
  <path t="60977,61008,61021,61030,61046,61046,61061,61061,61078,61078,61078,61094,61094,61094,61112,61143,61144,61159,61167,61183,61193,61193,61211,61211,61228,61228,61228,61244,61244,61244,61320,61320,61330,61346,61361,61378,61394,61411,61428,61428,61472,61504,61504,61512,61530,61530,61546,61546,61562,61562,61578,61578,61594,61594,61611,61611,61629,61629,61644,61661,61661,61678,61678,61694,61694,61694,61711,61711,61728,61728,61729,61744,61744,61744,61745,61761,61761,61761,61778,61778,61778,61794,61795,61795,61811,61812,61828,61828,61829,61843,61844,61844,61860,61860,61861,61877,61878,61893,61910,61910,61911,61927,61928,61928,61943,61943,61960,61960,61961,61978,61978,61978,61978,61993,61993,61994,62010,62011,62011,62032,62032,62032,62032,62048,62048,62048,62061,62096,62096,62096,62119,62120,62120,62136,62136,62160,62176" d="m304,47c2.58932,0 3.5,0 4.39999,0c0.909,0 1.57068,0 2.60983,0c0.77551,0 1.82352,0 2.76483,0c0.67801,0 1.64651,0 2.44,0c0.77551,0 2.0293,-0.16623 2.88535,0.22133c0.67035,0.30349 1.52002,0.60817 2.39999,0.7995c0.84631,0.18401 1.50433,0.79804 2.25717,1.03183c0.91006,0.28262 1.69257,0.65152 2.66415,0.826c0.79697,0.14312 1.63879,0.10885 2.65717,0.34267c0.69708,0.16005 1.50574,0.57171 2.517,0.7215c0.74112,0.10977 1.76471,0.0589 2.40451,0.55717c0.6174,0.48081 1.53473,0.4471 2.29999,0.85266c0.84592,0.44831 1.73926,0.47091 2.5,0.73267c0.77957,0.26824 1.31741,1.2493 2.08536,1.62933c0.8649,0.42802 1.72119,0.50452 2.28265,1.08667c0.64154,0.66516 1.43091,1.00622 2.23068,1.39733c0.76184,0.37256 1.79669,0.56149 2.39999,0.97067c0.75797,0.51407 1.04047,1.35736 2.02667,1.78c0.66586,0.28535 1.45139,0.97822 1.97333,1.48267c0.73349,0.70892 1.70364,0.81699 2.37598,1.17867c0.82895,0.44595 1.44983,1.02619 2.14685,1.71067c0.51389,0.50463 1.04712,1.07491 2.07718,1.79333c0.56219,0.39211 1.43045,0.89111 2.14297,1.40617c0.51001,0.36866 1.51205,0.96383 2.14502,1.31516c0.67371,0.37395 1.37064,0.72985 2.27032,1.36384c0.79333,0.55905 1.40839,1.17699 2.24301,1.77883c0.5831,0.42046 1.42047,0.87897 2.19998,1.50533c0.61688,0.49569 1.17764,1.06306 2,1.632c0.77994,0.53959 1.61493,1.03295 2.20001,1.54117c0.61627,0.53532 1.39493,1.34798 2,1.93833c0.3967,0.38706 1.3884,1.25522 1.99548,1.64734c0.73395,0.47408 1.53937,0.93461 2.10001,1.45716c0.73203,0.68229 1.30548,1.46606 1.71518,2.136c0.34735,0.56799 1.06177,1.57316 1.58932,2.14317c0.50513,0.54577 1.30005,1.23075 1.6955,1.83067c0.59824,0.9076 0.82074,1.7545 1.06168,2.35634c0.40179,1.00361 0.71878,1.71902 1.06818,2.43783c0.34149,0.70253 0.99915,1.90177 1.41748,2.5335c0.44339,0.66958 0.95926,1.63285 1.16785,2.13451c0.34778,0.83646 0.73837,1.73778 1.242,2.6235c0.33572,0.59042 0.87378,1.41293 1.32581,2.18283c0.51263,0.87309 0.80356,1.44685 1.42151,2.29633c0.5845,0.80351 1.01825,1.46343 1.30002,2.08701c0.42807,0.9473 0.66928,1.76559 1,2.5285c0.45819,1.05696 1,1.64367 1.86398,2.03516l0.48868,0.67917" id="svg_20" stroke-width="2" stroke="#000" fill="none"/>
  <path t="64435,64528,64537,64577,64594,64594,64594,64594,64594,64611,64611,64611,64627,64644,64644,64661,64661,64677,64677,64677,64694,64694,64694,64711,64711,64711,64727,64727,64744,64744,64744,64761,64761,64761,64777,64777,64777,64794,64794,64811,64811,64827,64827,64844,64844,64861,64861,64877,64877,64894,64894,64911,64927,64927,64944,64944,64961,64961,64961,64982,64982,64998,64998,65011,65027,65027,65044,65044,65044,65061,65080,65080,65094,65094,65112,65128,65144,65168,65184,65200,65200,65216,65229,65246,65263,65263,65279,65296,65296,65313,65400,65417,65417,65430,65445,65462,65462,65462,65478,65478,65478,65478,65495,65495,65512,65512,65527,65527,65527,65544,65544,65561,65561,65561,65577,65577,65577,65594,65611,65611,65627,65644,65644,65661,65677,65695,65695,65712,65712,65727,65746,65746,65763,65763,65779,65779,65794,65794,65812,65848,65896,65896,66007,66023,66032" d="m207,259c0,1.79999 0,2.70001 0,3.58334c0,1.08331 0,1.754 0,2.52866c0,0.82266 0,1.63733 0,2.72333c0,0.84601 0,1.67535 0,2.66467c0,0.98532 0,1.71066 0,2.70001c0,0.79999 0,1.79999 0,2.61066c0,0.87466 0,1.87466 0,2.71017c0,0.58365 0.01987,1.77927 -0.01067,2.65784c-0.02808,0.80783 -0.26933,1.85617 -0.60001,2.47198c-0.48141,0.89655 -0.8138,1.61148 -1.03217,2.45834c-0.22749,0.88226 -0.28633,1.78833 -0.38249,2.655c-0.11894,1.07205 -0.35849,1.76871 -0.62201,2.6315c-0.30363,0.99411 -0.33417,1.80463 -0.35283,2.80432c-0.01456,0.77948 -0.20627,1.61426 -0.57449,2.42551c-0.38222,0.84207 -0.42,1.5853 -0.42534,2.57449c-0.0042,0.77933 0.09351,1.7915 -0.05716,2.55283c-0.1839,0.92926 -0.5687,1.60184 -0.91751,2.61136c-0.2915,0.84369 -0.77679,1.51208 -1.01067,2.48267c-0.14699,0.61002 -0.43958,1.58389 -0.86533,2.36798c-0.42642,0.78531 -0.91685,1.63907 -1.164,2.39999c-0.28116,0.8656 -0.74959,1.70239 -0.92818,2.63269c-0.17366,0.90457 0.03015,1.60605 -0.22383,2.75266c-0.13492,0.6091 -0.50775,1.33463 -0.808,2.37466c-0.27133,0.93988 -0.62862,1.59143 -0.90382,2.60382c-0.19057,0.70105 -0.12151,1.62152 -0.12151,2.52151c0,0.89999 -0.10696,1.80652 0.00133,2.70001c0.11148,0.91977 0.4312,1.63055 1.024,2.36398c0.52596,0.65073 1.47981,0.95157 2.17467,1.63602c0.50375,0.49622 1.18716,1.21304 1.90001,1.89981c0.49132,0.47336 1.43205,0.83496 2.2,1.25284c0.84091,0.45758 1.50014,0.66333 2.39999,0.64734c0.97252,-0.01727 1.85716,-0.18192 2.56134,-0.45734c0.80952,-0.31662 1.60283,-0.84488 2.28149,-1.548c0.45808,-0.47461 0.99934,-1.28766 1.85583,-2.02399c0.54736,-0.47055 1.52002,-0.88275 2.08051,-1.51233c0.63011,-0.70779 0.84239,-1.4548 1.08482,-2.20767c0.35304,-1.09637 0.42859,-1.90918 0.6575,-2.79352c0.1879,-0.72589 0.46381,-1.51657 0.87834,-2.53549c0.27678,-0.6803 0.61508,-1.43491 0.90016,-2.42166c0.28426,-0.98392 0.69499,-1.6395 0.91467,-2.61465c0.19547,-0.86771 0.18027,-1.67972 0.58533,-2.38535c0.45828,-0.79831 0.73927,-1.81461 1,-2.52084c0.35822,-0.97034 0.17632,-1.88098 0.66667,-2.64581c0.44977,-0.70154 0.97667,-1.23874 1.53867,-1.99051c0.42485,-0.56833 1.07587,-1.53622 1.27383,-2.32199c0.21364,-0.84802 0.63213,-1.59311 0.9955,-2.42084c0.34477,-0.7854 0.85866,-1.60001 1.10933,-2.39999l0.416,-0.70001l0.44284,-0.79999l0.05983,-0.90002" id="svg_21" stroke-width="2" stroke="#000" fill="none"/>
  <path t="69424,69616,69623,69623,69632,69648,69664,69680,69680,69696,69719,69727,69728,69744,69744,69761,69777,69794,69811,69811,69827,69827,69843,69843,69861,69861,69876,69877,69877,69893,69894,69894,69910,69911,69926,69926,69943,69944,69944,69961,69961,69977,69977,69977,69995,69995,70012,70012,70029,70029,70046,70046,70061,70061,70061,70061,70077,70077,70077,70094,70094,70094,70111,70111,70111,70111,70127,70128,70128,70128,70144,70144,70144,70144,70168,70168,70168,70168,70177,70194,70211,70211,70233,70233,70244,70263,70279,70280,70296,70296,70311,70311,70327,70344,70361,70377,70377,70400,70400,70439,70480,70481,70505,70513,70529,70608,70633,70696,70704" d="m247,125c-1.7,0.11433 -2.37161,0.67467 -2.71466,1.51733c-0.37076,0.91074 -0.95969,1.40378 -1.68533,1.91867c-0.67159,0.47652 -1.17812,1.1573 -1.60001,2.064c-0.36961,0.79433 -1.00024,1.49976 -1.5,2c-0.69901,0.69966 -1.35114,1.26833 -1.4955,2.2c-0.13782,0.8894 0.04669,1.84242 -0.226,2.62134c-0.30991,0.88521 -0.95747,1.60732 -1.3425,2.304c-0.44923,0.81288 -0.43066,1.58528 -0.436,2.57466c-0.00432,0.79999 0,1.8 0,2.61067c0,0.87466 0,1.87334 0,2.68933c0,0.81599 0,1.81467 0,2.68933c0,1.01067 0,1.81067 0,2.81067c0,0.8 0,1.60001 0,2.60451c0,0.63148 0,1.81683 0,2.62082c0,0.82201 0,1.85301 0,2.528c0,1.08 0,1.87201 0,2.73201c0,0.91916 0,1.916 0,2.75066c0,0.93068 0,1.72118 0,2.57468c0,0.59067 0,1.78934 0,2.68933c0,0.60001 0,1.80017 0,2.71066c0,0.62534 0.00391,1.95602 -0.00133,2.672c-0.00534,0.73206 0.04587,1.46642 -0.16534,2.78401c-0.13501,0.84225 -0.43221,1.6145 -0.54933,2.18666c-0.20532,1.00301 -0.23701,1.80881 -0.26317,2.6675c-0.02675,0.87808 -0.02083,2.14584 -0.02083,2.90584c0,0.68001 0,1.55 0,2.759c0,0.91434 0,1.81433 0,2.5715c0,0.89549 0,1.75883 0,2.722c0,0.93149 0,1.84233 0,2.54166c0,0.97917 0,1.76851 0,2.8125c0,0.86217 -0.16733,1.78632 0.02083,2.66667c0.18138,0.84866 0.97917,1.5 1.47917,2c0.7,0.7 1.29997,1.30003 1.89999,1.89999c0.69997,0.69989 1.25514,1.39618 2.20001,1.58934c0.86191,0.17621 1.42532,0.58533 2.10449,1.00616l0.89551,0.0405l0.79999,0.38934l0.8,0.49066" id="svg_22" stroke-width="2" stroke="#000" fill="none"/>
  <path t="74532,74689,74697,74713,74729,74753,74753,74793,74824,74824,74848,74889,74929,74945,74961,74961,74969,74978,74995,75011,75065,75081,75096,75097,75113,75137,75161,75176,75184,75208,75208,75224,75232,75245,75261,75278,75295,75295,75312,75312,75336,75360,75376,75400,75432,75448,75561,75561,75585,75601" d="m277,193c-1.70001,-0.9955 -2.60001,-1 -3.5,-1c-0.91068,0 -1.82132,0 -2.67465,0c-0.94,0 -1.82535,0 -2.62534,0c-0.90002,0 -1.81967,-0.16733 -2.70001,0.02083c-0.84863,0.18138 -1.5929,0.90378 -2.064,1.57918c-0.51169,0.73358 -0.40677,1.72046 -0.936,2.39999c-0.49496,0.63553 -1.11292,1.31207 -1.41467,2.2c-0.25888,0.76175 -0.10333,1.60019 -0.08533,2.5c0.01801,0.90054 0.32852,1.8981 1.20001,2.21468c0.8497,0.30867 1.79999,0.08533 2.59998,0.08533c0.90002,0 1.80002,0 2.70001,0c0.89999,0 1.8045,0 2.66666,0c0.83334,0 1.8508,0.17863 2.63202,-0.08533c0.88953,-0.30055 1.59067,-0.88934 2.20132,-1.41467c0.61066,-0.52533 1.49963,-0.87073 1.91599,-1.7c0.42645,-0.84935 0.73135,-1.5 1.03735,-2.364l-0.66934,-0.52" id="svg_23" stroke-width="2" stroke="#000" fill="none"/>
  <path t="76537,76664,76664,76680,76711,76767,76808,76832,76871,76903,76943,76943,76975,76992,77015,77047,77055,77071,77071,77087,77111,77159,77175,77215,77215,77271,77328,77344,77383,77407,77439,77439,77472,77488,77496" d="m354,200c-1,-1 -1.78812,-1.10608 -2.5,-1.5c-0.88596,-0.49025 -1.79999,-0.50009 -2.70001,-0.5c-0.89981,0.00009 -1.73911,0.21523 -1.79999,1.10001c-0.0618,0.89787 0,1.7 0,2.59999c0,0.90001 -0.14297,1.81316 0.01068,2.7c0.14417,0.83218 1.01563,1.36246 1.68933,1.65268c0.84177,0.36263 1.5986,0.91873 2.5,0.94733c0.89954,0.02853 1.79999,0 2.59998,0c0.90002,0 1.92334,0.14665 2.58936,-0.436c0.69781,-0.61049 0.61066,-1.664 0.61066,-2.564c0,-0.8 0,-1.7 -0.05716,-2.64284l-0.65884,-0.44116" id="svg_24" stroke-width="2" stroke="#000" fill="none"/>
 </g>
 <g display="none">
  <title>muse_image</title>
  <image xlink:href="http://farm1.static.flickr.com/22/27590184_a3ec36e96a.jpg" id="muse" height="480" width="640" y="0" x="0"/>
 </g>
 <g display="none">
  <title>bbox</title>
  <rect stroke="#f00" fill="none" stroke-width="3" height="422.4" width="238.08" y="28.16" x="203.52" id="bbox"/>
 </g>
</svg>
