<svg width="640" height="480" xmlns="http://www.w3.org/2000/svg" xmlns:svg="http://www.w3.org/2000/svg" xmlns:xlink="http://www.w3.org/1999/xlink">
 <!-- Sketchy ANNOTATION
  ImageNet ID: n02503517_10036
  URL: http://farm1.static.flickr.com/94/210710890_8d9c64693d.jpg
  Image Width: 500
  Image Height: 375
  BBox X: 74
  BBox Y: 82
  BBox Width: 284
  BBox Height: 264
  Exposure: 2000ms
  Synset Label: elephant
  Synset ID: n02503517
  Worker Tag: elephant
  Sanity Check: 
   Context
   Saved
   Shading
  Comment: 
   {}
  Worker ID: AQ9ISCTDF9B48
  Assignment ID: 3BF51CHDTVAGNL0KQ4AKVQB3PTQ0HF
  HIT ID: 3R16PJFTS3RM1FLZPOVHV1MNYKT4K8
  Work Time: 228s
  Worker Score: 0.9286
 END ANNOTATION -->
 <g display="inline">
  <title>Layer 1</title>
  <path t="0,78,86,94,94,105,105,105,122,138,138,138,155,155,155,155,172,172,188,188,188,205,205,205,223,223,238,239,239,255,255,272,272,288,306,306,323,338,338,355,355,355,372,388,388,405,405,405,422,423,423,438,438,455,455,472,472,488,488,506,506,523,523,538,538,538,555,572,588,588,605,605,622,622,622,646,646,655,655,655,672,672,694,705,705,722,722,738,755,772,772,788,788,805,805,805,822,822,822,839,839,855,855,855,872,872,889,889,889,905,906,922,922,939,955,956,972,972,989,1006,1006,1023,1023,1039,1056,1078,1078,1089,1106,1123,1142,1142,1142,1158,1158,1174,1189,1206,1206,1223,1223,1246,1262,1262,1286,1310,1326,1342,1358,1358,1414,1414,1438,1470,1494,1542,1542,1550,1550,1566,1590,1606,1606,1623,1639,1655,1656,1678,1678,1689,1706,1722,1739,1739,1756,1772,1773,1789,1806,1806,1823,1839,1839,1856,1873,1889,1906,1923,1923,1939,1939,1956,1973,1989,2006,2006,2023,2053,2054,2078,2102,2102,2118,2118,2134,2158,2182,2190,2214,2237,2238,2255,2273,2301,2333,2342,2342,2381,2822,2838,2856,2872,2909,2925,2926,2938,2955,2972,2988,3006,3030,3061,3062,3085,3101,3110,3141,3221,3253,3254,3429,3461,3472,3488,3505,3523,3523,3538,3555,3556,3556,3572,3573,3588,3589,3605,3606,3622,3623,3638,3655,3656,3672,3673,3701,3741,3789,3845,3909,3910,4101,4461,4461,4541,4589,4589,4597,4637,4653,4677,4688,4705,4706,4721,4738,4755,4771,4788,4805,4806,4821,4839,4856,4871,4902,4902,4925,4949,4966,4983,5021,5061,5061,5071,5093,5134,5134,5134,5157,5157,5197,5197,5237,5277,5301,5301,5325,5338,5355,5389,5413,5429,5445,5445,5477,5488,5505,5525,5526,5538,5555,5571,5589,5589,5605,5622,5638,5655,5656,5677,5677,5693,5693,5709,5721,5738,5755,5756,5771,5788,5805,5806,5822,5838,5839,5855,5877,5901,5909,5922,5938,5957,5973,5989,6005,6022,6039,6056,6056,6072,6101,6125,6213,6349,6349,6421,6453,6454,6533,6541,6605,6621,6669,6709,6725,6749,6781,6805,6805,6829,6861,6893,6909,6925,6941,6941,6965,6989,7021,7022,7039,7077,7093,7125,7213,7213,7349,7621,7629,7677,7693,7717,7725,7740,7757,7774,7797,7797,7808,7826,7854,7870,7885,7910,7933,7997,8029,8029,8077,8077,8109,8125,8126,8165,8189,8189,8213,8237,8253,8253,8293,8293,8325,8325,8357,8372,8372,8391,8391,8413,8413,8429,8429,8454,8454,8469,8481,8481,8500,8517,8535,8535,8535,8552,8552,8569,8569,8569,8569,8586,8586,8587,8603,8603,8621,8621,8637,8638,8656,8656,8673,8674,8674,8690,8691,8707,8725,8744,8744,8761,8761,8778,8779,8795,8796,8813,8831,8848,8866,8883,8884,8902,8934,8957,8972,8989,9009,9026,9027,9045,9045,9061,9061,9079,9096,9097,9114,9132,9133,9150,9150,9168,9168,9186,9186,9213,9237,9246,9277,9277,9289,9308,9326,9326,9589,9853,10237" d="m128,410c1.60001,-0.57468 2.52782,-0.8421 3.2,-1.57068c0.51791,-0.56137 0.77046,-1.44522 1.2,-2.20798c0.37479,-0.66553 1.28961,-1.19336 2.08534,-1.79333c0.57983,-0.43719 1.13521,-1.10074 1.71449,-1.84933c0.61014,-0.78848 0.97336,-1.34747 1.31483,-1.89468c0.61679,-0.98837 1.07251,-1.87442 1.48534,-2.68399c0.40851,-0.80109 0.72389,-1.42453 1.32133,-2.20001c0.47821,-0.62073 1.08141,-1.15982 1.79333,-2.19998c0.39653,-0.57935 0.87799,-1.60376 1.18533,-2.1955c0.39072,-0.75223 1.09976,-1.59433 1.41466,-2.28851c0.40344,-0.88937 0.21938,-1.71527 0.80617,-2.59515c0.47102,-0.7063 1.17303,-1.2005 1.47917,-2.04169c0.34396,-0.94516 0.61067,-1.68982 1,-2.47916c0.38933,-0.78934 0.72371,-1.51212 1,-2.5c0.22919,-0.81943 0.48752,-1.55759 1.16667,-2.5c0.45143,-0.62643 1.04462,-1.1712 1.66666,-2c0.43605,-0.58099 0.85979,-1.40121 1.26668,-2.19983c0.39767,-0.78052 0.86494,-1.66223 1.39999,-2.27933c0.65886,-0.75989 1.22856,-1.25916 1.7,-2.00485c0.4265,-0.67462 1.02158,-1.61563 1.5,-2.26865c0.52423,-0.71555 0.90565,-1.45517 1.39984,-2.44717c0.29285,-0.58786 0.51559,-1.34866 0.92549,-2.3895c0.33299,-0.84555 1.01599,-1.37408 1.57468,-2.04666c0.5421,-0.65262 0.95819,-1.35977 1.23332,-2.36401c0.21516,-0.78537 0.26097,-1.64215 0.73601,-2.39999c0.53625,-0.8555 1.28137,-1.58841 1.67349,-2.1955c0.47408,-0.73395 0.93845,-1.53604 1.55717,-2.20319c0.58279,-0.62839 1.18057,-1.38037 1.59999,-2.01599c0.57394,-0.86975 1.27739,-1.28842 1.68401,-1.98666c0.4203,-0.72177 1.23891,-1.29602 1.916,-1.69867c0.83528,-0.49673 1.50255,-1.01822 2.16667,-1.66666c0.67192,-0.65604 1.2074,-1.22104 2.03333,-1.81183c0.58008,-0.41492 1.39973,-0.82074 2.2,-1.22153c0.79973,-0.40054 1.62146,-0.76114 2.38934,-1.21066c0.74809,-0.43793 1.43565,-1.25894 1.836,-1.76398c0.66057,-0.83334 1.38982,-1.31503 1.976,-1.62402c0.98495,-0.5192 1.77982,-0.84665 2.51334,-1.40134c0.72572,-0.54877 1.23012,-1.28458 2.08667,-1.71732c0.65062,-0.3287 1.42444,-0.82123 2.146,-1.37735c0.74135,-0.57138 1.72371,-0.79465 2.25267,-1.35199c0.70837,-0.7464 0.92004,-1.57022 1.59866,-2.18399c0.67882,-0.61392 1.16873,-1.31735 1.51733,-1.96933c0.45309,-0.84741 0.88643,-1.64862 1.2,-2.40134c0.38353,-0.92065 0.56137,-1.61688 0.8,-2.39999c0.29753,-0.97641 0.23563,-1.7843 0.70934,-2.7627c0.37665,-0.77792 0.48317,-1.64853 0.63182,-2.39316c0.18462,-0.92474 0.56845,-1.59741 0.91751,-2.60684c0.29132,-0.84244 0.87715,-1.4046 1.02083,-2.336c0.13721,-0.8895 -0.04842,-1.83475 0.35716,-2.59998c0.44843,-0.8461 0.70784,-1.59399 1,-2.35269c0.33659,-0.87408 0.63632,-1.82629 0.64734,-2.64731c0.0121,-0.90125 0.16325,-1.86801 0.42534,-2.52536c0.40274,-1.0101 0.76117,-1.56708 1.29066,-2.25867c0.44562,-0.58203 0.15485,-1.59183 0.36932,-2.43198c0.25938,-1.01605 0.82335,-1.6846 0.91484,-2.58417c0.07993,-0.78574 0.47122,-1.70758 0.71584,-2.41583c0.32594,-0.94376 0.18852,-1.92856 0.56799,-2.68402c0.43558,-0.86719 0.71469,-1.59998 0.716,-2.43597c0.00134,-0.84802 -0.10684,-1.78427 0.35716,-2.60684c0.48799,-0.86511 1.38403,-1.29175 1.60684,-2.16785c0.22459,-0.88309 -0.04593,-1.79706 0.46133,-2.52798c0.45815,-0.66013 0.47919,-1.50589 0.85866,-2.26135c0.43558,-0.86719 0.73401,-1.56952 1.06866,-2.45267c0.26738,-0.7056 0.62933,-1.71075 0.64734,-2.54733c0.01936,-0.89978 -0.02385,-1.80035 0,-2.59998c0.02859,-0.95847 0.38208,-1.84094 0.64734,-2.54733c0.33302,-0.88684 0.35266,-1.81934 0.35266,-2.65268c0,-0.97849 0,-1.79868 0,-2.70001c0,-0.89999 -0.14209,-1.81299 0.01067,-2.69998c0.14348,-0.83316 0.9043,-1.5874 0.98801,-2.40001c0.09221,-0.89526 -0.01056,-1.82513 0.42667,-2.59999c0.40979,-0.72624 0.57466,-1.60001 0.57466,-2.40001c0,-0.89999 0.00871,-2.04298 -0.80133,-2.19867c-0.8282,-0.15918 -1.21104,0.85027 -1.7195,1.49867c-0.60126,0.76675 -1.43326,0.96085 -2.12201,1.55267c-0.65907,0.56633 -0.83264,1.606 -1.33183,2.33665c-0.46217,0.67647 -1.34941,0.94257 -2.02533,1.61067c-0.58565,0.57889 -0.78809,1.64862 -1.52083,1.97916c-0.80164,0.3616 -1.78571,-0.08612 -2.67917,0.02219c-0.91977,0.11148 -1.45206,0.81961 -2.40001,0.98798c-0.86568,0.15375 -1.39993,-0.59991 -1.39999,-1.48932c-0.00006,-0.90005 0.26772,-1.71562 0.80133,-2.3c0.67691,-0.7413 1.27863,-1.53429 1.7195,-2.2c0.34883,-0.52673 1.13687,-1.2352 1.82651,-1.6955c0.89766,-0.59915 1.37604,-1.18698 1.638,-2.12984c0.19135,-0.68867 0.88091,-1.53134 1.532,-1.97333c0.72656,-0.49323 1.29872,-1.20656 1.53534,-1.95851c0.28391,-0.90222 0.63658,-1.60042 1.24283,-2.48566c0.52478,-0.76627 1.04732,-1.37001 1.58316,-1.97867c0.62314,-0.70782 0.88571,-1.42456 1.51067,-2.1785c0.54509,-0.65759 0.61,-1.48534 0.61067,-2.42534c0.00072,-1.008 0,-1.76401 0,-2.67467c0,-0.89999 0,-1.8 0,-2.7c0,-0.90001 -0.17355,-1.83826 0.08533,-2.60001c0.30176,-0.88791 0.89667,-1.59946 0.91467,-2.5c0.01799,-0.89981 0,-1.8 0,-2.7c0,-0.8 -0.33374,-1.78227 0.036,-2.564c0.35042,-0.74088 0.79565,-1.33691 1.13068,-2.26933c0.2905,-0.80847 0.81467,-1.56615 0.83333,-2.46667c0.01863,-0.89847 0.61102,-1.44063 0.964,-2.14667c0.39139,-0.78285 -0.16245,-1.86154 0.472,-2.49199c0.6795,-0.67523 1.41956,-1.22369 1.53867,-1.89734c0.13461,-0.76129 0.33264,-1.78476 0.72983,-2.50684c0.44205,-0.80363 1.17329,-1.38808 1.77467,-2.15717c0.50826,-0.64999 0.82167,-1.55083 1.16817,-2.2c0.45335,-0.84938 0.30728,-1.86078 0.96333,-2.32533c0.71843,-0.50873 1.34662,-1.17165 1.38933,-2.07468c0.04253,-0.89899 0.12428,-1.67743 0.57466,-2.5c0.42729,-0.78038 0.27045,-1.76147 0.64684,-2.5c0.34975,-0.68626 1.37599,-1.19701 1.69318,-2.09999c0.29961,-0.85295 0.08533,-1.8 0.08533,-2.60001c0,-0.89999 0.00009,-1.8 0,-2.72083c-0.00009,-0.80067 0.04158,-1.70757 -0.22133,-2.679c-0.21622,-0.79892 -0.6851,-1.62204 -0.76801,-2.38951c-0.09781,-0.90546 0.08334,-1.85776 -0.36333,-2.71066c-0.39395,-0.75223 -0.45541,-1.53319 -0.7045,-2.39999c-0.25758,-0.89639 -0.87177,-1.61629 -0.93217,-2.47467c-0.06599,-0.93774 0.16289,-1.86359 -0.09599,-2.62534c-0.30176,-0.88791 -0.89667,-1.59946 -0.91467,-2.5c-0.01799,-0.89981 0.25627,-1.92491 -0.22133,-2.57866c-0.51071,-0.69908 -0.77867,-1.32133 -0.77867,-2.22134c0,-0.89999 -0.39751,-1.56961 -0.916,-2.18533c-0.56039,-0.66548 -0.76248,-1.5302 -1.10933,-2.31467c-0.36169,-0.81802 -0.84973,-1.60463 -0.97484,-2.5c-0.12665,-0.90646 -0.65346,-1.46042 -1.29533,-2.2c-0.57861,-0.66669 -0.82133,-1.48076 -1.27916,-2.3c-0.43169,-0.77246 -1.15092,-1.27391 -1.41467,-2.01067c-0.29976,-0.83736 -0.01067,-1.78932 -0.01067,-2.68933c0,-0.89999 0,-1.8 0,-2.7c0,-0.8 0,-1.7 0,-2.60001c0,-0.89999 -0.13272,-1.8105 0.0045,-2.7c0.14368,-0.93138 0.4404,-1.66394 1.0795,-2.41466c0.56728,-0.66634 1.14632,-1.24565 1.56334,-1.98534c0.42004,-0.74503 1.00798,-1.34778 1.40533,-2.0045c0.47783,-0.78973 1.14925,-1.49358 1.64732,-1.9955c0.69202,-0.69734 1.06711,-1.59729 1.584,-2.216c0.54884,-0.65695 0.64296,-1.43417 1.14134,-2.05867c0.48518,-0.60796 0.65395,-1.45097 1.14932,-2.05066c0.47574,-0.57592 0.42166,-1.62734 0.42534,-2.32201c0.00534,-1.00604 0.77478,-1.58927 0.9955,-2.35716c0.24738,-0.86066 0.0045,-1.7955 0.0045,-2.6955c0,-0.9 -0.15643,-1.8497 0.16667,-2.6c0.30678,-0.7124 1.07744,-1.46181 1.39732,-2.17467c0.41075,-0.91535 0.26454,-1.86288 0.52133,-2.62534c0.26881,-0.79813 0.97893,-1.54428 1.41467,-2.17916c0.55592,-0.80997 1.2489,-1.30478 1.7215,-2.12083c0.38602,-0.66654 1.12117,-1.17034 1.57851,-1.78533c0.66545,-0.89485 0.94914,-1.66842 1.5,-2.35751c0.64388,-0.80544 1.18208,-1.27559 1.90134,-1.95716c0.54268,-0.51424 1.45158,-1.10797 2.00932,-1.4c0.9819,-0.51412 1.79694,-0.85433 2.62267,-1.4c0.67093,-0.44337 1.4203,-0.78902 2.26668,-1.22134c0.6553,-0.33472 1.53828,-0.73586 2.31065,-1.21466c0.80168,-0.49696 1.42204,-0.97038 2.19067,-1.36401c0.79665,-0.40797 1.64326,-0.82117 2.56534,-1.36666c0.52234,-0.30901 1.33054,-0.83778 1.88066,-1.18067c1.026,-0.6395 1.71362,-1.02251 2.34818,-1.34817c0.99847,-0.51242 1.74753,-0.92937 2.58316,-1.18317c0.75906,-0.23055 1.66318,-0.51627 2.42584,-0.76866c0.97888,-0.32394 1.81189,-0.30773 2.7955,-0.57401c0.81769,-0.22136 1.39148,-0.53503 2.39548,-0.726c0.91293,-0.17365 1.68182,-0.67284 2.60583,-0.96733c0.92334,-0.29427 1.66409,0.06977 2.63202,-0.252c0.71634,-0.23814 1.46609,-0.97531 2.16666,-1.3125c0.95227,-0.45834 1.6955,-0.51859 2.60001,-0.52084c0.89999,-0.00224 1.84708,0.094 2.69998,-0.35267c0.75223,-0.39395 1.5,-0.64666 2.40002,-0.64733c0.89999,-0.00066 1.79999,0 2.69998,0c0.89999,0 1.80002,0 2.70016,0c0.78519,0 1.73584,-0.00173 2.50116,0c0.99417,0.00225 1.78473,-0.04578 2.7627,0.42533c0.77881,0.37516 1.52451,0.50726 2.46133,0.58533c1.01648,0.08472 1.63138,0.60268 2.49615,0.868c0.86154,0.26433 1.88245,0.33109 2.46783,0.54666c1.05185,0.38735 1.82022,0.40209 2.71066,0.5955c0.84634,0.18384 1.65054,0.73189 2.5,1.14583c0.65225,0.31785 1.41263,0.68212 2.29999,0.83784c0.92862,0.16296 1.5,0.79683 2.20001,1.47466l0.70001,0.4355l0.89999,0.08533" id="svg_1" stroke-width="2" stroke="#000" fill="none"/>
  <path t="11598,11765,11773,11789,11806,11824,11824,11839,11857,11873,11891,11906,11925,11957,11997,12013,12022,12022,12040,12057,12072,12090,12106,12133,12157,12181,12181,12213,12229,12229,12285,12349,12349,12373,12389,12407,12407,12422,12439,12456,12472,12533,12557,12557,12572,12597,12613,12637,12638,12656,12656,12672,12689,12706,12706,12722,12722,12739,12756,12773,12774,12789,12789,12806,12839,12878,12878,12941,12942,13013,13014,13029,13030,13077,13133,13157,13205,13206,13253,13509,13613,13661,13709,13725,13726,13765,13805,13837,13845,13869,13893,13909,13926,13926,13941,13957,13972,13989,14005,14022,14039,14055,14055,14085,14101,14141,14173,14181,14237,14269,14317,14317,14325,14341,14397,14414,14414,14445,14455,14477,14489,14489,14525,14542,14565,14582,14582,14589,14614,14645,14661,14677,14709,14725,14739,14739,14755,14772,14772,14772,14789,14789,14789,14805,14805,14805,14822,14839,14839,14857,14857,14872,14872,14889,14889,14905,14922,14922,14939,14955,14955,14972,14989,15005,15037,15055,15055,15077,15093,15125,15150,15150,15189,15453,15453,15485,15509,15534,15949,16157,16157,16213,16229,16261,16261,16285,16294,16305,16337,16355,16372,16372,16389,16389,16405,16405,16405,16422,16422,16439,16439,16455,16455,16472,16472,16472,16489,16489,16505,16534,16534,16565,16565,16566,16581,16582,16589,16605,16622,16639,16656,16672,16672,16689,16757,16757,16805,16941,17093,17093,19053,19053,19141,19165,19182,19189,19205,19205,19222,19239,19255,19255,19272,19272,19289,19289,19289,19305,19305,19323,19373,19373,19405,19413,19413,19429,19430,19453,19533,19533,19541,19557,19572,19589,19605,19606,19606,19606,19622,19622,19622,19622,19622,19639,19639,19639,19639,19655,19655,19656,19797,19805,19805,19822,19822,19839,19839,19989,19989,19989,19997,19997,20023,20023,20039,20039,20039,20039,20040,20165,20165,20173,20173,20173,20189,20189,20205,20205,20206,20222,20223,20333,20333,20341,20365,20429,20437,20455,20455,20472,20472,20493,20493,20557,20597,20677,20685,20701,20718,20733,20757,20757,20781,20797,20797,20805,20822,20822,20839,20839,20855,20855,20941,20941,20973,20997,21037,21045,21055,21055,21072,21089,21105,21105,21122,21139,21139,21155,21156,21156,21172,21172,21189,21189,21206,21206,21222,21222,21223,21239,21239,21255,21272,21293,21309,21325,21341,21357,21372,21388,21406,21422,21445,21461,21477,21477,21509,21525,21557,21573,21589,21589,21621,21653,21661,21693,21725,21739,21739,21757,21781,21805,21829,21829,21838,21839,21856,21873,21889,21906,21907,21925,21941,21941,21957,21973,21973,21973,21989,22013,22045,22056,22056,22072,22089,22106,22106,22122,22122,22139,22139,22155,22156,22172,22173,22173,22189,22205,22206,22222,22223,22253,22253,22269,22269,22286,22317,22349,22357,22389,22413,22429,22429,22453,22477,22493,22509,22509,22525,22538,22557,22557,22573,22589,22589,22605,22623,22638,22655,22677,22677,22693,22709,22733,22749,22789,22821,22845,22855,22855,22877,22893,22909,22933,22949,22965,22965,22973,22988,23005,23022,23045,23085,23085,23117,23245,23253,23453,24061" d="m302,82c0.16666,-1.83334 0.76697,-2.30802 1.35266,-2.94733c0.53433,-0.58325 0.98651,-1.36926 1.44867,-1.85267c0.67334,-0.70428 1.53778,-1.09072 2.17334,-1.62533c0.64935,-0.5462 0.90396,-1.41598 1.54617,-2.05383c0.64328,-0.63893 1.67917,-0.52084 2.57916,-0.52084c0.89999,0 1.69998,0 2.60001,0c0.89999,0 1.79999,0 2.69998,0c0.89999,0 1.80002,0 2.70001,0c0.89999,0 1.69998,-0.00185 2.53598,0c1.01669,0.00225 1.78427,-0.10683 2.60684,0.35717c0.86511,0.48798 1.29153,1.38181 2.15717,1.60683c0.87192,0.22665 1.63126,0.37291 2.39999,0.75201c0.84525,0.41682 1.80005,0.27866 2.70001,0.284c0.90005,0.00533 1.61182,0.44234 2.5,0.83334c0.65765,0.28951 1.60004,0.17194 2.5,0.16666c0.91074,-0.00533 1.8382,-0.18582 2.5,-0.52084c0.85767,-0.43416 1.5239,-1.22032 2.39999,-1.44316c0.87729,-0.22314 1.77176,0.03762 2.60001,-0.05684c0.99237,-0.11317 1.52893,-0.73476 2.5,-0.95833c0.888,-0.20444 1.81851,-0.24915 2.5,-0.52084c0.97455,-0.38852 1.6955,-0.49775 2.60001,-0.5c0.92084,-0.00229 1.89139,-0.07043 2.57465,0.036c0.96219,0.14989 1.69641,0.78588 2.47803,1.264c0.68378,0.41827 1.59195,0.79266 2.06067,1.5c0.54514,0.82269 1.01065,1.44427 1.57065,2.11733c0.50748,0.60996 0.76147,1.38261 1.29068,2.09733c0.44464,0.6005 0.75388,1.58343 1.62534,1.9c0.8497,0.30867 1.79999,0.08533 2.59998,0.08533c0.90002,0 1.80002,0 2.70001,0c0.89999,0 1.79999,0 2.70001,0c0.89999,0 1.79999,0 2.59998,0c0.90002,0 1.80002,0 2.70001,0c0.89999,0 1.79999,0 2.70001,0c0.89999,0 1.79999,0 2.59998,0c0.90002,0 1.80002,0 2.70001,0c0.89999,0 1.79999,0 2.70001,0c0.89999,0 1.79999,0 2.59998,0c0.90002,0 1.58716,-0.3145 2.36667,-0.83334c0.70746,-0.47088 1.63351,-0.14867 2.53336,-0.16666c0.90054,-0.01801 1.69229,-0.4442 2.39999,-1.09983c0.59363,-0.54996 1.41434,-0.74775 2.29999,-0.91084c0.83145,-0.15311 1.5874,-0.9043 2.39999,-0.988c0.89529,-0.09222 1.80002,-0.00134 2.70001,-0.00134c0.89999,0 1.79999,0 2.70001,0c0.89999,0 1.79999,0 2.59998,0c0.87201,0 1.74301,0 2.47202,0c0.83701,0 2.02783,0 2.91733,0c0.57468,0 1.64401,0 2.564,0c0.76001,0 1.767,-0.04592 2.73068,0.284c0.70892,0.2427 1.62885,0.66775 2.39999,0.71467c0.95032,0.05782 1.73398,0.03101 2.71149,0.354c0.76279,0.25204 1.65097,0.60693 2.57117,0.64733c0.81198,0.03564 1.60382,0.42313 2.05484,1.09983c0.46869,0.70325 1.50537,0.7142 2.37851,0.93617c0.86227,0.21921 1.49838,0.85507 2.39999,0.964c0.79871,0.0965 1.58197,0.61298 2.39999,0.97467c0.78448,0.34685 1.63824,0.75925 2.39999,1.10933c0.74976,0.34456 1.30795,1.24686 2,1.63067c0.82449,0.45728 1.79779,0.2979 2.25269,0.98983c0.50708,0.77129 0.96548,1.50252 1.64734,1.93833c0.82397,0.52665 1.69647,0.79689 2.39999,1.457c0.49753,0.46682 1.3309,0.95022 1.92532,1.47484c0.6434,0.56787 1.30957,1.15338 1.892,1.71066c0.70047,0.67023 1.12732,1.17789 1.91602,1.71467c0.6889,0.46886 1.4798,1.11496 2.1875,1.5c0.57397,0.31228 1.57919,0.79997 2.37915,1.2c0.79987,0.39997 1.60901,0.75218 2.43335,1.3c0.69403,0.46124 1.31033,1.04253 2.00266,1.38934c0.74353,0.37245 1.78311,0.44657 2.67868,0.69466c0.88602,0.24545 1.58548,1.01617 2.12131,1.552c0.68533,0.68533 1.18912,1.18957 1.71133,1.71133c0.767,0.76634 1.42252,1.48448 2.35269,1.64816c0.88727,0.15613 1.74847,0.40072 2.17865,1.10433c0.47565,0.778 1.24738,1.09102 1.82135,1.60467c0.73532,0.65803 1.33679,1.47446 1.89999,1.8595c0.82553,0.56441 1.71381,0.77842 2.39999,1.436c0.51053,0.48925 1.11914,1.31136 1.79999,1.71467c0.82718,0.48997 1.62256,0.97087 2.5,1.22816c0.86548,0.25378 1.65771,0.29214 2.40002,0.7045c0.8244,0.45796 1.29373,1.03334 2.00983,1.65717c0.59232,0.51599 1.39719,1.18629 1.79016,1.6955c0.65198,0.84486 1.32666,1.38055 1.90451,1.6955c0.97784,0.53296 1.87668,0.76165 2.42615,1.50449c0.5835,0.78885 0.87271,1.50113 1.56934,2.2c0.59903,0.60097 1.20001,1.2 1.89999,1.9c0.5,0.50001 1.17459,1.22643 1.90002,1.89867c0.58044,0.53787 1.59741,0.79167 1.7955,1.50583c0.23959,0.8638 0.50369,1.68066 1.00449,2.62883c0.35031,0.66325 0.50977,1.23361 0.88535,2.15468c0.42352,1.03865 0.77103,1.7675 1.11465,2.53282c0.3511,0.78198 0.54364,1.17021 0.97849,2.37885c0.28244,0.78503 0.49384,1.56073 0.71701,2.286c0.39233,1.27492 0.73465,2.01616 1.01917,2.82632c0.33411,0.95143 0.60449,1.83682 1.172,2.28801c0.71796,0.57082 1.56375,0.8622 2.22668,1.68533c0.5321,0.66072 0.73566,1.51205 0.86133,2.31467c0.12494,0.79771 0.32849,1.82307 0.72986,2.54283c0.53534,0.95998 0.98712,1.37686 1.62878,2.32384c0.44727,0.66011 0.90955,1.43295 1.14587,1.83333c0.46399,0.78603 1.01166,1.83745 1.43414,2.76666c0.41107,0.9041 0.97705,1.54042 1.38135,2.13783c0.51575,0.76215 0.59119,1.64108 1.03864,2.5955c0.29968,0.63922 1.07379,1.3448 1.42371,2.19983c0.30487,0.74495 0.24298,1.77867 0.24298,2.59883c0,0.90134 -0.16522,1.82054 0.02081,2.70134c0.17902,0.8474 0.8269,1.60892 1.06317,2.38533c0.23792,0.78186 0.64642,1.50047 0.83069,2.51334c0.13763,0.75655 -0.05731,1.85614 0.08551,2.70117c0.14398,0.85202 0.98181,1.3356 0.99982,2.20016c0.01874,0.8998 0,1.8 0,2.7c0,0.8 0,1.636 0,2.65266c0,0.69467 0,1.71133 0,2.65634c0,0.66167 0,1.69633 0,2.44032c0,1.10783 0,1.86534 0,2.90334c0,0.69467 0,1.71133 0,2.64734c0,0.89999 0,1.8 0,2.7c0,0.8 0,1.7 0,2.52083c0,0.96317 0,1.82651 0,2.7265c0,0.91934 0,1.7735 0,2.75267c0,0.8 0,1.60001 0,2.60001c0,0.79999 0,1.79999 0,2.59999c0,1 0,1.8 0,2.8c0,0.8 0,1.60001 0,2.5955c0,0.74733 0,1.76849 0,2.7045c0,0.89999 0.25629,1.92491 -0.22131,2.57866c-0.51068,0.69908 -0.62891,1.33392 -0.77887,2.22118c-0.14398,0.85202 -0.98181,1.3356 -0.99982,2.20016c-0.01874,0.8998 0.04779,1.80127 0,2.7c-0.04272,0.80341 -0.70563,1.42094 -0.96399,2.39999c-0.2298,0.87091 0.01831,1.80165 -0.03619,2.70001c-0.04272,0.70386 -0.74677,1.43718 -0.96381,2.29999c-0.21979,0.8735 -0.03601,1.8 -0.03601,2.70001c0,0.89999 -0.12427,1.67744 -0.57465,2.5c-0.42731,0.78038 -0.34692,1.72432 -0.59204,2.56667c-0.25079,0.86176 -0.58856,1.6909 -0.85864,2.42267c-0.31299,0.84807 -0.93195,1.60764 -0.97467,2.51067c-0.04254,0.89899 -0.12762,1.67726 -0.5,2.42082c-0.4696,0.93764 -0.40338,1.65849 -0.50452,2.72652c-0.08795,0.92935 -0.39081,1.6011 -0.79681,2.26865c-0.53625,0.88168 -1.15594,1.681 -1.19867,2.58401c-0.04254,0.89899 0.18909,1.73245 -0.05719,2.60001c-0.21991,0.77469 -0.98267,1.44467 -1.33215,2.12534c-0.50311,0.97983 -0.58545,1.80032 -0.612,2.65997c-0.0224,0.72583 -0.18494,1.72876 -0.5195,2.51468c-0.43433,1.02026 -0.74481,1.6149 -1.17917,2.34283c-0.55298,0.92673 -1.11606,1.66238 -1.35266,2.41434c-0.28391,0.90225 -0.61658,1.61404 -1.14734,2.35883c-0.46982,0.65924 -1.02051,1.58911 -1.5,2.17416c-0.59991,0.73199 -1.28955,1.2305 -1.29999,2.10983c-0.01068,0.89993 0,1.80002 0,2.70001c0,0.89999 0,1.69998 0,2.60001c0,0.89999 0,1.82083 0,2.62131c0,0.85333 0,1.79333 0,2.77869c0,0.89999 0,1.69998 0,2.53598c0,1.01669 0,1.71133 0,2.72803c0,0.93597 0,1.836 0,2.73599c0,0.89999 0,1.69998 0,2.60001c0,0.89999 0,1.79999 0,2.69998c0,0.89999 0,1.80002 0,2.70001c0,0.89999 0,1.69998 0,2.60001c0,0.89999 0.05289,1.83472 -0.35266,2.59998c-0.4483,0.84592 -0.64734,1.70001 -0.64734,2.5c0,0.90002 0,1.80002 0,2.70001c0,0.89999 0.13168,1.85004 -0.22134,2.60001c-0.36505,0.77551 -0.76797,1.5 -0.77866,2.39999l-0.02084,0.97916l-0.55383,0.54617l-0.42084,0.67917" id="svg_2" stroke-width="2" stroke="#000" fill="none"/>
  <path t="34454,34717,34741,34773,34774,34805,34821,34893,34917,34933,34934,34957,34989,35045,35101,35182,35182,35358,35486,35518,35550,35582,35582,35614,35654,35678,35710,35734,35806,35806,35894,35902,35974,35974,35990,36022,36054,36062,36086,36118,36150,36174,36174,36189,36206,36222,36254,36254,36270,36286,36302,36302,36334,36342,36356,36372,36406,36430,36430,36454,36494,36526,36526,36558,36572,36589,36606,36606,36630,36655,36670,36670,36686,36718,36718,36742,36758,36806,36806,36830,36862,36894,36894,36918,36942,36942,36990,37022,37062,37078,37078,37102,37150,37174,37174,37206,37222,37239,37262,37286,37302,37326,37341,37342,37374,37421,37422,37453,37454,37518,37525,37526,37574,37590,37613,37614,37630,37639,37662,37701,37733,37734,37765,37790,37790,37806,37822,37853,37870,37870,37886,37909,37910,37949,37965,37966,37981,37982,38004,38022,38045,38046,38062,38078,38094,38110,38110,38126,38157,38189,38190,38213,38261,38262,38301,38302,38318,38333,38334,38357,38381,38405,38422,38453,38472,38494,38518,38573,38605,38606,38622,38646,38693,38725,38726,38789,38901,38902,38918,38918,38934,39021,39053,39093,39094,39101,39101,39157,39174,39197,39253,39270,39301,39333,39333,39357,39373,39397,39421,39439,39455,39477,39493,39493,39505,39522,39539,39557,39557,39573,39589,39605,39605,39622,39639,39661,39686,39693,39718,39725,39749,39781,39797,39797,39821,39839,39869,39917,39917,39949,39981,40013,40053,40061,40086,40149,40173,40253,40261,40261,40277,40318,40445,40453" d="m141,420c1.83333,-0.16666 2.29579,-0.72903 3.09984,-1.2215c0.61972,-0.37958 1.0374,-1.22028 1.61617,-1.86252c0.58536,-0.64957 1.04529,-1.27762 1.50549,-2.01581c0.44711,-0.71716 1.29346,-1.05869 1.8625,-1.61618c0.67268,-0.65906 1.27765,-1.04526 2.01584,-1.50549c0.71715,-0.44711 1.08539,-1.26413 1.73349,-1.94516c0.6028,-0.63342 0.95226,-1.2753 1.45201,-2.03201c0.40215,-0.60892 1.25659,-1.02686 1.93599,-1.67999c0.5798,-0.5574 1.30505,-0.93106 1.97734,-1.40668c0.78026,-0.552 0.854,-1.41467 1.30133,-2.21466c0.44733,-0.79999 0.85942,-1.65234 1.216,-2.29999c0.47551,-0.86368 0.96489,-1.48285 1.56799,-2.116c0.54689,-0.57413 0.64304,-1.43414 1.14134,-2.05869c0.50348,-0.63104 0.69345,-1.40384 1.18533,-2.164c0.49332,-0.76239 1.26064,-1.22653 1.39066,-2.06134c0.14259,-0.91547 0.6118,-1.51514 1.024,-2.39999c0.37971,-0.81512 1.18301,-1.4173 1.61751,-2.10001c0.46594,-0.73212 0.11429,-1.7348 0.36166,-2.59549c0.22072,-0.76788 0.91847,-1.27304 1.28084,-2.18716c0.26984,-0.68073 1.16747,-1.24332 1.66199,-1.87451c0.55972,-0.71445 0.87648,-1.41617 1.04817,-2.34283c0.17213,-0.92902 0.80498,-1.32849 1.3,-2.00983c0.53477,-0.73605 0.5784,-1.69873 0.98849,-2.49017c0.44646,-0.86163 0.72859,-1.64996 1.23683,-2.29999c0.6002,-0.76761 1.13094,-1.32617 1.53185,-2.20001c0.33279,-0.72537 1.04964,-1.39771 1.64732,-2c0.692,-0.69733 1.02336,-1.46548 1.46667,-2.29999c0.33675,-0.63391 1.46317,-0.93924 1.78065,-1.70532c0.2831,-0.68307 0.72516,-1.57645 1.274,-2.17334c0.58855,-0.64005 0.96666,-1.44064 1.58,-1.836c0.80699,-0.5202 1.68948,-0.81586 2.29868,-1.38516c0.59123,-0.55252 1.49158,-0.90649 1.95267,-1.60468c0.49879,-0.75528 1.29327,-1.17819 1.922,-1.72083c0.60017,-0.51801 1.32909,-0.9278 2.02533,-1.57468c0.60327,-0.56049 1.45044,-0.86722 2.20134,-1.28534c0.74857,-0.41681 1.46455,-0.99249 2.146,-1.41467c0.91418,-0.56638 1.67896,-1.06244 2.35266,-1.35266c0.8418,-0.36261 1.67601,-0.73181 2.39984,-1.16882c0.72348,-0.4368 0.90242,-1.55673 1.70149,-1.77716c0.8844,-0.24396 1.41483,-0.7308 2.19867,-1.168c0.65189,-0.36359 1.21188,-1.2746 2.10001,-1.71201c0.65443,-0.3223 1.48196,-0.73431 2.29999,-1.09601c0.78447,-0.34683 1.62918,-0.78119 2.3,-1.078c0.84766,-0.37506 1.49811,-1.14923 2,-1.64734c0.70801,-0.70267 1.47908,-1.28055 2.11467,-1.69998c0.86977,-0.57394 1.39882,-1.14731 2.01866,-1.76666c0.61903,-0.61853 1.29466,-1.022 1.86667,-1.53784c0.7272,-0.65579 0.90808,-1.60089 1.58534,-2.21149c0.64609,-0.58252 1.3885,-0.90244 1.73999,-1.68402c0.36882,-0.82013 1.07466,-1.5 1.67467,-2.10001c0.59999,-0.59998 1.3,-1.29999 1.8,-1.79999c0.7,-0.70001 1.30003,-1.29996 1.89999,-1.89999c0.69987,-0.69998 1.04541,-1.41803 1.62534,-2.164c0.4855,-0.62448 0.89214,-1.38477 1.58534,-2c0.6584,-0.58435 1.44313,-0.8826 1.96399,-1.46133c0.57408,-0.63788 1.1756,-1.25659 1.59201,-1.97467c0.42046,-0.72504 1.30504,-1.1105 1.886,-1.64734c0.68863,-0.63632 0.77586,-1.3902 1.03265,-2.15265c0.26881,-0.79816 1.05661,-1.49945 1.39384,-2.20001c0.45842,-0.9523 0.57426,-1.69507 1.02083,-2.5c0.44359,-0.79956 0.39435,-1.72589 0.66667,-2.66666c0.19513,-0.67407 1.00897,-1.28891 1.54799,-1.91602c0.50369,-0.58603 0.10159,-1.64383 0.32133,-2.51733c0.21706,-0.86282 0.9213,-1.59698 0.964,-2.5c0.04253,-0.89899 0,-1.69998 0,-2.60001c0,-0.89999 0,-1.79999 0,-2.69998c0,-0.89999 0,-1.80002 0,-2.70001c0,-0.89999 0,-1.69998 0,-2.60001c0,-0.89999 0,-1.82083 0,-2.62131c0,-0.85333 0,-1.79333 0,-2.77869c0,-0.89999 -0.19597,-1.73441 0.05716,-2.60001c0.25664,-0.87762 0.91417,-1.59863 0.94284,-2.5c0.02861,-0.89935 0.50781,-1.40863 0.94284,-2.15717c0.42447,-0.73038 0.05716,-1.74283 0.05716,-2.64282c0,-0.79999 -0.41269,-1.82343 0.05716,-2.64282c0.39442,-0.68787 0.94284,-1.35718 0.94284,-2.15717c0,-0.90002 -0.01189,-1.82513 0.42534,-2.60001c0.40979,-0.72626 0.25229,-1.75381 0.79599,-2.47867c0.48232,-0.64304 0.69655,-1.32513 0.77884,-2.22134c0.08368,-0.91144 0.57449,-1.5 0.979,-2.39999l0.02083,-0.89999l0,-0.89999l0.00133,-0.90001" id="svg_4" stroke-width="2" stroke="#000" fill="none"/>
  <path t="43797,44125,44149,44245,44373,44453,44525,44525,44557,44653,44709,44789,44789,44837,44957,45141,45253,45349,45349,45445,45477,45477,45525,45589,45621,45765,45789,45957,46045,46045,46189,46205,46205,46341,46389,46429,46429,46525,46565,46565,46621,46669,46709,46709,46757,46789,46837,46861,46861,46872,46901,46933,46957,46972,46997,47013,47013,47029,47038,47069,47101,47117,47133,47157,47181,47197,47197,47213,47237,47255,47272,47293,47325,47325,47349,47357,47381,47381,47405,47422" d="m253,242c0,1.8 0.00195,2.61961 -0.42534,3.39999c-0.45038,0.82257 -0.52687,1.70128 -0.57466,2.60001c-0.04272,0.80341 -0.61298,1.58197 -0.97467,2.39999c-0.34685,0.78447 -0.96611,1.58516 -1.024,2.40001c-0.0639,0.89946 0.32721,1.7981 1.19867,2.11467c0.84972,0.30869 1.80035,0.10918 2.60001,0.08533c0.95845,-0.02859 1.91096,-0.26027 2.49016,-0.7045c0.74838,-0.57399 1.18924,-1.40738 1.76251,-1.94284c0.68521,-0.64001 0.57053,-1.53264 1.11398,-2.18599c0.57397,-0.69003 1.48132,-0.7321 2.12885,-1.46667c0.58374,-0.66222 0.82358,-1.47954 1.27917,-2.3c0.4342,-0.78194 0.68875,-1.61954 1.22665,-2.2c0.67224,-0.72543 1.50623,-1.32138 1.91333,-2c0.44147,-0.73595 0.72955,-1.59232 1.38516,-2.3c0.54996,-0.59363 0.8349,-1.43207 1.25284,-2.2c0.45767,-0.84096 0.85495,-1.6741 1.22202,-2.3c0.45248,-0.77151 0.85822,-1.65121 1.25867,-2.39999c0.42328,-0.79144 1.04947,-1.28932 1.16681,-2.10001c0.1311,-0.90582 0.83267,-1.33336 1.56384,-1.92532c0.56235,-0.45528 0.3895,-1.50809 0.86133,-2.37466c0.39874,-0.73233 1.12146,-1.27026 1.51752,-1.95717c0.47195,-0.81854 0.25024,-1.76688 0.76166,-2.34283c0.65024,-0.73227 1.12875,-1.51149 1.29565,-2.39984c0.14951,-0.7957 0.81378,-1.32402 1.28519,-2.10016c0.41083,-0.67638 1.21005,-1.13951 1.63065,-2c0.41736,-0.85385 0.73135,-1.5 1.07333,-2.40001l0.03152,-0.87917" id="svg_5" stroke-width="2" stroke="#000" fill="none"/>
  <path t="48422,48766,48766,48782,48806,48862,48862,48878,48942,48965,48989,48990,49061,49078,49078,49088,49173,49213,49214,49229,49230,49277,49309,49310,49333,49334,49365,49397,49398,49421,49453,49454,49485,49509,49522,49557,49589,49629,49661,49672,49672,49741,49750,49750,49797,49813,49877,49925,50709,50821,51101,51261,51285,51285,51318,51381,51389,51413,51445,51501,51501,51637,51637,51709,52101,52101,52629" d="m251,245c0.42534,-1.82533 0.65703,-2.5354 1,-3.47917c0.30576,-0.84134 1.08931,-1.44795 1.564,-2.12083c0.51836,-0.7348 0.86887,-1.65121 1.26933,-2.39999c0.42329,-0.79144 1.06873,-1.09505 1.55602,-1.86133c0.57343,-0.90172 0.73868,-1.58009 1.32666,-2.22267c0.63589,-0.69493 1.34061,-1.21194 1.67334,-1.77733c0.54199,-0.92096 0.56488,-1.76759 1.04666,-2.54933c0.49484,-0.80298 0.79599,-1.55167 1.564,-2.25601c0.60944,-0.55891 0.99356,-1.11745 1.35718,-1.98599c0.29993,-0.71642 1.06332,-1.51538 1.47617,-2.34734c0.32608,-0.65709 0.85217,-1.42258 1.1095,-2.3c0.25345,-0.86417 0.66501,-1.43909 1.02115,-2.136c0.43918,-0.85941 0.43024,-1.69856 0.86935,-2.564c0.34268,-0.67538 0.95145,-1.26299 1.33331,-2c0.39063,-0.75397 0.45682,-1.58328 0.85419,-2.47917c0.31537,-0.71103 1.30917,-0.97247 1.8125,-1.6875c0.48917,-0.69493 0.3819,-1.77243 1.26666,-1.83333c0.89786,-0.0618 1.69998,0 2.60001,0c0.89999,0 1.79999,0.00224 2.69998,0c0.90451,-0.00226 1.76801,-0.16325 2.42535,-0.42534c1.0101,-0.40274 1.76398,-0.59999 2.57465,-1.01067l0.70001,-0.664l0.5,-0.5l0.69998,-0.7" id="svg_6" stroke-width="2" stroke="#000" fill="none"/>
  <path t="53518,53989,54069,54069,54125,54285,54293" d="m280,213c0.83334,-2.16667 1,-3 1,-3.8l0.05716,-0.89999l0.44284,-0.8l0.44733,-0.8" id="svg_7" stroke-width="2" stroke="#000" fill="none"/>
  <path t="56469,57077,57117,57157,57157,57189,57205,57237,57285,57309,57341,57341,57389,57413,57437,57437,57477,57525,57541,57557,57597,57613,57613,57645,57677,57741,57757,57805,57869,57869,57941,58197,58221,58309" d="m284,203c1.22134,0.87866 1.84726,1.4044 2.284,2.2c0.35577,0.64812 0.53006,1.52686 0.75201,2.40001c0.21921,0.86226 0.64651,1.77972 1.24933,2.31599c0.65005,0.57829 1.35217,0.85884 2.11465,1.47333c0.74579,0.60103 1.73801,0.64612 2.24283,1.31517c0.56665,0.75098 1.08841,1.11053 1.95718,1.3315c0.86224,0.21931 1.49387,0.90312 2.39999,0.964c0.79819,0.05363 1.7265,-0.18375 2.60001,0.036c0.86282,0.21706 1.59698,0.9213 2.5,0.964c0.89899,0.04253 1.69998,0 2.60001,0l0.89999,0l0.89999,0l0.89999,0" id="svg_8" stroke-width="2" stroke="#000" fill="none"/>
  <path t="59125,59453,59493,59517,59517,59533,59541,59555,59571,59588,59620,59653,59677,59677,59701,59709,59741,59757,59757,59773,59788,59805,59829,59838,59855,59877,59893,59933,59973,59981,59981,60005,60037,60061,60071,60093,60108,60108,60132,60148,60156,60180,60196,60236,60236,60260,60277,60293,60305,60305,60324,60338,60355,60372,60396,60412,60412,60421,60421,60438,60455,60477,60500,60508,60524,60548,60549,60556,60572,60588,60605,60605,60621,60638,60638,60655,60671,60688,60705,60705,60721,60738,60755,60772,60772,60796,60796,60805,60836,60861,60884,60893,60908,60908,60940,60955,60980,60988,61005,61021,61038,61061,61076,61093,61124,61124,61140,61140,61164,61188,61188,61205,61221,61238,61255,61277,61277,61293,61316,61316,61332,61332,61348,61356,61372,61388,61388,61405,61421,61421,61438,61438,61455,61471,61488,61508,61508,61540,61564,61588" d="m301,215c0.87851,1.2215 1,2.10001 1,3c0,0.8 -0.01068,1.70006 0,2.60001c0.01044,0.87935 0.5181,1.55882 1.08401,2.116c0.67102,0.66066 0.73462,1.43748 1.08264,2.284c0.27591,0.6711 0.68094,1.51434 0.84402,2.39999c0.15311,0.83142 0.75177,1.6263 1.04199,2.3c0.36261,0.8418 0.83582,1.64098 1.37265,2.27467c0.50278,0.59351 0.30682,1.46773 0.57916,2.32083c0.26193,0.82051 0.82712,1.33496 1.01636,2.2045c0.18417,0.84628 0.76721,1.63324 1.06317,2.3c0.38077,0.85777 0.6925,1.71379 1.27316,2.4955c0.49979,0.67282 1.51428,0.86444 1.64282,1.7045c0.12167,0.79529 0.74469,1.53775 0.96399,2.39999c0.22095,0.86876 0.56241,1.40973 1.23468,1.88535c0.78027,0.55202 0.90659,1.50247 1.30133,2.21466c0.49084,0.88562 0.31653,1.87677 0.7215,2.59984c0.41296,0.73735 1.5686,0.89925 1.77716,1.70149c0.22659,0.8716 0.54993,1.53519 0.91733,2.39999c0.38998,0.91794 0.34103,1.76395 1.08401,2.46533c0.60132,0.56766 0.98135,1.13486 1,2.03336c0.01868,0.90051 0.6181,1.61032 0.91467,2.5c0.28586,0.85764 0.05997,1.80038 0.08533,2.59998c0.02859,0.9014 0.57367,1.66306 0.94733,2.5c0.34476,0.77219 0.89813,1.46829 1.04199,2.336c0.1387,0.83667 0.01068,1.71133 0.01068,2.72803c0,0.836 0,1.73599 0,2.63599c0,0.79999 0.05811,1.69949 0.5,2.5c0.44379,0.80399 0.49994,1.66666 0.5,2.5c0.00009,0.97849 0.12405,1.77628 0.57468,2.60001c0.42697,0.78052 0.42532,1.69998 0.42532,2.60001c0,0.89999 0,1.79999 0,2.59998c0,0.90002 0,1.80002 0,2.70001c0,0.89999 -0.19489,1.82169 0.00134,2.69867c0.18057,0.80704 0.98065,1.23679 0.99866,2.10132c0.01877,0.90115 -0.00006,1.86667 0,2.70001c0.00009,0.97849 -0.03821,1.75858 0.52084,2.5c0.58664,0.77802 1.31467,1.26825 1.46848,2.10001c0.16376,0.88553 0.53247,1.74625 0.88934,2.5c0.40436,0.85406 0.77234,1.46844 1.12134,2.42084c0.28574,0.77982 0.62189,1.63751 0.87866,2.45764c0.25266,0.80688 0.73434,1.60349 1.09601,2.42151c0.34686,0.78448 0.92279,1.58939 1.02399,2.39999c0.10367,0.83038 0.24628,1.70456 0.612,2.37466c0.53119,0.97324 1.0036,1.53345 1.41467,2.42535c0.37436,0.81229 0.76138,1.65268 1.14133,2.39999c0.33829,0.66537 1.12885,1.29999 1.71201,2.09982l0.34283,0.77884" id="svg_9" stroke-width="2" stroke="#000" fill="none"/>
  <path t="75676,75940,75964,75980,75980,76020,76052,76060,76076,76077,76093,76108,76108,76132,76140,76196,76260,76340,76700,76732,76772,76788,76820,76852,76884,76900,76900,76940,77020,77108,77108,77140,77140,77212,77244,77244,77356,77380,77420,77420,77452,77476,77487,77524,77540,77596,77628,77644" d="m289,148c0.16666,-1.83333 0.72903,-2.29579 1.2215,-3.09984c0.37958,-0.61972 1.40195,-0.88173 2.1785,-1.3255c0.72409,-0.41379 1.6319,-0.7012 2.20001,-1.18533c0.74533,-0.63516 1.39044,-1.27858 2.19998,-1.388c0.8938,-0.12082 1.62238,-0.68753 2.5,-0.94417c0.8656,-0.25313 1.93216,0.18707 2.616,-0.34116c0.6275,-0.48471 1.65292,-0.97063 2.048,-0.28c0.42938,0.75061 0.03601,1.76399 0.03601,2.664c0,0.89999 0.1969,1.73471 -0.05716,2.59999c-0.22568,0.76862 -1.08228,1.35083 -1.94284,1.77917c-0.81061,0.40349 -1.58926,0.51549 -2.52084,0.52083c-0.96313,0.00551 -1.65381,0 -2.72198,0c-0.85718,0 -1.75717,0 -2.55716,0c-0.90002,0 -1.90213,-0.39731 -2.76401,0.036c-0.65842,0.33102 -0.87201,1.35333 -1.63467,1.88l-0.74866,0.43666l-0.48868,0.62201" id="svg_11" stroke-width="2" stroke="#000" fill="none"/>
  <path t="78428,78595,78596,78627,78651,78715,79003" d="m297,139c1.16666,1 1.57468,1.60001 1.96399,2.39999l0.03601,0.90001l0,0.89999l0,0.90001" id="svg_12" stroke-width="2" stroke="#000" fill="none"/>
  <path t="83853,84244,84276,84308,84308,84316,84324,84341,84341,84356,84370,84370,84387,84404,84404,84420,84420,84437,84437,84437,84454,84470,84470,84487,84487,84487,84504,84520,84520,84537,84554,84554,84570,84570,84587,84604,84604,84620,84637,84637,84660,84670,84692,84724,84748,84748,84756,84772,84787,84804,84804,84820,84820,84837,84854,84854,84870,84887,84887,84904,84904,84920,84920,84920,84937,84937,84956,84957,84957,84972,84972,84987,85004,85004,85020,85020,85037,85037,85054,85070,85070,85092,85108,85108,85124,85124,85137,85137,85154,85170,85187,85187,85204,85204,85220,85237,85254,85270,85270,85287,85287,85304,85320,85338,85338,85354,85354,85370,85387,85387,85404,85420,85420,85437,85454,85476,85476,85500,85500,85508,85508,85524,85548,85556,85556,85572,85596,85604,85620,85637,85637,85660,85660,85670,85687,85704,85704,85721,85721,85738,85738,85754,85754,85780,85788,85804,85821,85838,85854,85871,85871,85888,85904,85905,85924,85948,85980,85988,86012,86028,86052,86052,86069,86076,86092,86105,86121,86138,86138,86155,86171,86171,86187,86187,86205,86205,86205,86205,86221,86222,86222,86222,86238,86238,86238,86255,86255,86255,86255,86272,86272,86288,86305,86305,86321,86322,86339,86339,86339,86355,86355,86372,86389,86389,86405,86422,86422,86460,86460,86516,86516,86548,86564,86596,86628,86628,86636,86646,86662,86678,86693,86709,86709,86724,86740,86755,86772,86789,86789,86806,86860,86924,86924,86956,86980,86980,87004,87021,87038,87060,87076,87092,87105,87121,87122,87140,87180,87196,87196,87212,87212,87236,87254,87255,87276,87332,87332,87348,87364,87380,87388,87412,87428,87444,87476,87501,87508,87508,87524,87548,87556,87572,87588,87612,87637,87660,87692,87707,87731,87747,87771,87795,87795,87804,87827,87838,87854,87870,87871,87887,87887,87905,87905,87920,87920,87937,87955,87971,88003,88020,88020,88059,88091,88107,88139,88187,88251,88283,88403,88515,88587,88611,88643,88675,88731,88731,88787,88787,88875,88915,88963,89011,89011,89035,89115" d="m325,84c0.80133,0 1.63599,0 2.65268,0c0.69464,0 1.71982,0.12124 2.64731,-0.0045c0.82138,-0.11135 1.46814,-0.84189 2.336,-0.98483c1.00323,-0.16524 1.71133,-0.00825 2.72803,-0.01067c0.94498,-0.00225 1.61035,-0.07133 2.64581,-0.35267c0.77844,-0.21151 1.81937,-0.51191 2.5285,-0.59016c0.79691,-0.08794 1.83643,-0.04327 2.78317,-0.05733c0.69955,-0.0104 1.68726,-0.14119 2.46783,-0.42516c0.73434,-0.26714 1.71106,-0.54025 2.69467,-0.576c0.69107,-0.02512 1.54962,-0.44247 2.51599,-0.832c0.7182,-0.28949 1.65268,-0.16666 2.51599,-0.16666c0.85867,0 1.80533,0 2.65866,0c0.94,0 1.82535,0 2.62534,0c0.90002,0 1.80002,0 2.70001,0c0.91068,0 1.84549,-0.16515 2.63867,0.036c0.8624,0.2187 1.47815,0.87323 2.272,0.97466c0.92719,0.11847 1.62436,0.45467 2.56781,1.08916c0.6366,0.42815 1.45517,0.80188 2.34268,1.12167c0.68008,0.24505 1.22012,1.05759 1.90051,1.65733c0.54437,0.47985 1.42749,0.84047 1.98898,1.3065c0.97574,0.80985 1.58337,1.18966 2.18933,1.51017c0.9906,0.52397 1.63739,0.77082 2.60001,1.47116c0.62155,0.4522 1.15823,1.01389 1.97849,1.81167c0.49719,0.48359 1.37918,0.84343 2.22284,1.307c0.61014,0.33526 1.46262,0.9957 2.146,1.41467c0.78079,0.47869 1.3493,0.99888 2.05267,1.7c0.70114,0.69888 1.20001,1.2 1.89999,1.9c0.70001,0.7 1.1821,1.21843 1.90134,1.89999c0.54269,0.51425 1.50381,1.02053 2.08884,1.5c0.73199,0.59992 1.3118,1.16103 2.00983,1.66167c0.58914,0.42254 0.99503,1.53565 1.5,2.069c0.681,0.71926 1.64667,0.96668 2.07886,1.66933c0.52826,0.8588 1.12158,1.13714 1.78781,1.9c0.52438,0.60046 0.85541,1.47716 1.63333,1.95184c0.80127,0.48893 1.12726,1.11865 1.80002,2.0265c0.45367,0.61221 1.36404,0.86551 2.10001,1.307c0.67859,0.40709 1.31967,1.19563 1.89981,1.81467c0.63712,0.6798 0.81619,1.56634 1.33618,2.3c0.55798,0.78726 1.20313,1.20963 1.76401,2.084c0.43094,0.67179 0.79922,1.6006 1.39999,2.06934c0.77747,0.6066 1.35779,0.98907 1.40134,1.92933c0.03745,0.80856 0.75809,1.44902 0.99417,2.22183c0.2619,0.85731 0.55878,1.62963 0.92047,2.49684c0.27112,0.65005 0.54831,1.60886 0.80002,2.31467c0.33728,0.94582 0.81927,1.69031 1.16251,2.58417c0.28473,0.74152 0.0676,1.7449 0.20682,2.50116c0.18661,1.01363 0.5899,1.76105 1.11334,2.51334c0.48935,0.70329 0.78641,1.4854 0.80133,2.38533c0.01624,0.97926 0.77487,1.43658 0.99551,2.2045c0.25723,0.89529 -0.10315,1.79353 0.06165,2.64284c0.17963,0.92572 0.85782,1.64006 0.9415,2.45267c0.09219,0.89526 0.00134,1.8 0.00134,2.7c0,0.89999 0.10696,1.80653 -0.00134,2.7c-0.11148,0.91977 -0.79718,1.45631 -0.98798,2.40001c-0.17432,0.86229 -0.74185,1.25136 -1.40002,1.836c-0.69376,0.61624 -0.84808,1.52034 -1.258,2.26399c-0.43127,0.78239 -0.60165,1.80231 -0.96332,2.47467c-0.44595,0.8291 -1.04031,1.4751 -1.556,2.15866c-0.50543,0.66998 -0.85623,1.20697 -1.43466,2.06934c-0.60083,0.89575 -0.99228,1.49727 -1.39868,2.07651c-0.59079,0.84204 -1.1955,1.60341 -1.79999,2.2955c-0.59558,0.68188 -1.20999,1.38449 -1.7955,2.17349c-0.39038,0.52608 -0.88922,1.30592 -1.51917,2.08116c-0.55524,0.6833 -1.2963,1.19814 -1.76419,2.07085c-0.3956,0.73781 -0.82532,1.56647 -1.3425,2.11049c-0.76392,0.8036 -1.39261,1.36401 -1.90665,1.95334c-0.56476,0.64746 -0.8335,1.5867 -1.30801,2.23599c-0.56931,0.77898 -1.26401,1.30002 -1.86398,1.90001c-0.70001,0.70001 -1.31241,1.33408 -2.02133,1.8c-0.65833,0.43266 -1.46375,0.97127 -2.26801,1.46399c-0.77081,0.47224 -1.71539,0.34511 -2.61069,0.43733c-0.81259,0.08371 -1.45438,0.79065 -2.29999,0.97784c-0.95688,0.21182 -1.50644,0.6235 -2.2045,1.0735c-0.77582,0.50012 -1.31366,1.15436 -1.99551,1.59016c-0.82397,0.52664 -1.68207,0.81296 -2.49866,1.27316c-0.70288,0.39612 -0.90436,1.32265 -1.60266,1.79866c-0.7493,0.51079 -1.41483,1.0148 -2.19867,1.45201c-0.65189,0.3636 -1.42618,1.05008 -1.83334,1.83333c-0.38669,0.74385 -0.72681,1.41589 -1.556,1.97467c-0.61804,0.41649 -1.03036,1.28374 -1.444,2.02533c-0.4679,0.83885 -0.92792,1.36165 -1.38815,2.09984c-0.44711,0.71715 -1.21423,1.14224 -1.94516,1.73349c-0.69781,0.56447 -1.38522,0.8306 -2.13785,1.46217c-0.54868,0.46045 -1.52164,0.65077 -2.52884,0.7045c-0.80588,0.04298 -1.21848,0.85638 -2.16666,1c-0.79095,0.11981 -1.71228,0.0347 -2.39999,0.42534c-0.81543,0.4632 -1.81589,0.35216 -2.51599,0.85866c-0.69357,0.50179 -1.384,0.716 -2.28403,0.716c-0.89999,0 -1.79999,0 -2.59998,0c-0.90002,0 -1.8786,-0.34305 -2.67917,0.02083c-0.77325,0.35146 -1.22534,0.97691 -2.12085,0.97917c-0.89999,0.00226 -1.79999,-0.00067 -2.69998,0c-0.89868,0.00067 -1.52423,0.48746 -2.22086,1c-0.6922,0.50929 -1.64886,0.82001 -2.29382,0.97467c-0.94739,0.22719 -1.46771,0.98253 -2.38535,1.02533c-0.89902,0.04193 -1.79929,0.16769 -2.43597,0.61067c-0.84708,0.58936 -1.51712,1.01523 -2.34268,1.26799c-0.75854,0.23224 -1.66025,0.50882 -2.36865,0.76868c-0.99973,0.36671 -1.95267,0.35266 -2.85269,0.35266c-0.89999,0 -1.79999,0 -2.59998,0c-0.90002,0 -1.8786,0.34305 -2.67917,-0.02083c-0.77325,-0.35146 -1.22552,-0.96021 -2.12085,-0.97917c-0.96445,-0.02043 -1.39429,-0.8181 -2.20132,-0.99867c-0.87698,-0.19623 -1.81833,0.166 -2.69867,-0.02216c-0.84863,-0.18138 -1.5,-0.97917 -2.10001,-1.57918c-0.60001,-0.59999 -1.27853,-1.13155 -1.87915,-1.89999c-0.50769,-0.64955 -0.52084,-1.60001 -0.52084,-2.5l0,-0.8l0,-0.89999l0,-0.90001" id="svg_13" stroke-width="2" stroke="#000" fill="none"/>
  <path t="99394,99522,99554,99570,99570,99586,99586,99602,99619,99635,99652,99652,99668,99685,99685,99702,99719,99719,99738,99738,99752,99769,99785,99802,99802,99819,99835,99851,99869,99885,99885,99902,99922,99922,99935,99952,99969,99969,99985,100002,100002,100019,100019,100035,100035,100053,100053,100069,100091,100115,100123,100147,100171,100171,100185,100211,100235,100252,100269,100285,100302,100302,100319,100336,100336,100352,100403,100443,100531,100563,100595,100635,100651,100651,100669,100685,100685,100707,100719,100755,100784,100784,100802,100835,100859,100859,100869,100901,100918,100934,100934,100951,100968,100986,100986,101002,101018,101034,101074,101074,101098,101138,101154,101186,101218,101218,101242,101258,101290,101331,101370,101386,101418,101450,101450,101475,101491,101538,101546,101586,101602,101626,101650,101668,101690,101706,101730,101746,101746,101762,101778,101786,101802,101818,101834,101835,101852,101852,101868,101885,101901,101902,101918,101919,101934,101935,101952,101952,101968,101969,101984,102001,102019,102019,102035,102035,102052,102069,102085,102085,102162" d="m363,257c-1.70001,1.05267 -2.54367,1.50992 -3.10001,2.32117c-0.43549,0.63504 -1.03006,1.37793 -1.69998,1.76151c-0.80594,0.46146 -1.08386,1.35867 -1.48401,2.11734c-0.45273,0.85837 -0.67596,1.56201 -1.23685,2.29999c-0.59018,0.77652 -1.25107,1.13583 -1.8685,1.89999c-0.60263,0.74588 -0.67123,1.4942 -1.03598,2.42535c-0.27328,0.69769 -0.41885,1.66843 -0.58536,2.57465c-0.15277,0.83151 -0.9043,1.5874 -0.98798,2.39999c-0.09222,0.89529 0.00061,1.81964 -0.42667,2.60001c-0.45038,0.8226 -0.57468,1.60001 -0.57468,2.39999c0,0.95718 0.00934,1.85275 0,2.716c-0.01044,0.96335 -0.46194,1.72037 -0.83334,2.48401c-0.36667,0.75391 -0.81723,1.46924 -1.08133,2.48532c-0.18344,0.70572 -0.08533,1.71451 -0.08533,2.49384c0,0.99951 0,1.7735 0,2.67352c0,0.86331 0,1.82648 0,2.74731c0,0.89999 0,1.80002 0,2.70001c0,0.89999 0,1.69998 0,2.60001c0,0.89999 0,1.79999 0,2.69998c0,0.89999 0,1.80002 0,2.70016c0,0.78519 0,1.72519 0,2.73318c0,0.75598 -0.00226,1.66666 0,2.56665c0.00226,0.89551 0.67899,1.40326 0.97916,2.12085c0.37787,0.90332 -0.4411,1.71552 -0.8125,2.47916c-0.36667,0.75391 -0.79712,1.58121 -1.36533,2.20001c-0.53522,0.58289 -0.38657,1.6243 -0.85849,2.44281c-0.39606,0.68692 -0.90564,1.35803 -0.94284,2.15717c-0.04272,0.91766 -0.91626,1.35431 -1,2.20001c-0.07883,0.79608 -0.37064,1.42899 -0.87851,2.2215c-0.47852,0.74673 -0.34207,1.74518 -0.69617,2.37851c-0.48151,0.86124 -0.32144,1.84882 -0.70932,2.60001c-0.3392,0.65692 -0.30124,1.6243 -0.77316,2.44281c-0.39606,0.68692 -0.91748,1.35757 -0.94284,2.15717c-0.02859,0.9014 -0.68274,1.62338 -0.94284,2.5c-0.22815,0.76892 -0.05716,1.70001 -0.05716,2.5c0,0.90002 0,1.80002 0,2.70001c0,0.89999 0,1.79999 0,2.70001c0,0.89999 0,1.79999 0,2.59998c0,0.90002 -0.00958,1.80008 0,2.70001c0.01044,0.97931 0.77481,1.43661 0.99551,2.2045c0.24738,0.86069 0.00449,1.7955 0.00449,2.6955c0,0.89999 0,1.80002 0,2.70001c0,0.89999 0,1.69998 0,2.60001c0,0.89999 0,1.79999 0,2.69998c0,0.90451 0,1.76666 0,2.60001c0,0.97849 0.01733,1.79883 0,2.70001c-0.01801,0.93649 -0.30154,1.77689 -0.57468,2.47464c-0.36499,0.93243 -0.50043,1.71259 -0.85065,2.66135c-0.28351,0.76801 -0.45517,1.772 -0.62735,2.50684c-0.21738,0.92783 -0.67029,1.53925 -0.922,2.47183c-0.25388,0.94064 -1.15231,1.23407 -1.58932,1.832c-0.53568,0.73291 -0.43295,1.70065 -0.436,2.71735c-0.0025,0.836 -0.22134,1.73599 -0.716,2.43597l-0.27332,0.80002" id="svg_15" stroke-width="2" stroke="#000" fill="none"/>
  <path t="110818,111017,111017,111033,111033,111051,111067,111089,111089,111121,111153,111153,111167,111167,111233,111537,111585,111601,111657,111657,111761,111841,111929,111977,111993,112010,112034,112073,112097,112105,112129,112225,112225,112233,112273,112284,112305,112345,112369,112401,112441,112441,112481,112505,112529,112585,112601,112617,112617,112642,112673,112689,112721,112721,112753,112767,112784,112825,112834,112857,112867,112889,112905,112929,112953,112967,112994,113026,113042,113065,113066,113073,113089,113129,113154,113170,113185,113201,113218,113235,113235,113251,113251,113268,113268,113285,113285,113301,113318,113318,113338,113338,113369,113394,113394,113417,113418,113449,113468,113485,113485,113506,113518,113537,113561,113593,113610,113641,113658,113658,113690,113721,113753,113768,113794,113810,113818,113842,113842,113865,113890,113901,113921,113945,113953,113977,113994,114025,114105,114113,114153,114154,114193,114201,114242,114273,114289,114337,114337,114351,114369,114441,114457,114553,114561" d="m381,384c-1.65268,-0.70984 -2.35797,-1.34131 -2.97833,-1.97849c-0.58521,-0.60107 -0.89771,-1.58932 -1.37885,-2.3215c-0.52194,-0.79425 -1.29166,-1.26236 -1.61749,-2.11069c-0.33829,-0.88074 -0.58075,-1.56924 -0.85867,-2.42267c-0.27545,-0.84589 -0.85284,-1.58902 -1.1095,-2.46664c-0.25311,-0.8656 -0.05716,-1.80002 -0.05716,-2.70001c0,-0.79999 0,-1.70001 0,-2.60001c0,-0.89999 -0.24289,-1.83481 0.00449,-2.6955c0.2207,-0.76788 0.98508,-1.22516 0.99551,-2.10449c0.01068,-0.89993 -0.08212,-1.8038 0.00015,-2.70001c0.08368,-0.91144 0.49225,-1.69083 0.99985,-2.37915c0.51331,-0.69604 0.9874,-1.22543 1,-2.12085c0.01266,-0.90015 0.54318,-1.60327 0.87851,-2.5c0.31808,-0.85065 0.10349,-1.70016 0.12149,-2.60001c0.01801,-0.90054 0.6181,-1.61032 0.91467,-2.5c0.28586,-0.85764 -0.08282,-1.83643 0.17065,-2.59998c0.25635,-0.77219 0.78021,-1.60986 0.91916,-2.5c0.12784,-0.81897 0.84137,-1.46686 0.98483,-2.30002c0.15274,-0.88699 0.01068,-1.79999 0.01068,-2.69998c0,-0.90002 -0.11078,-1.80685 0,-2.70001c0.11151,-0.89923 0.95728,-1.28235 1,-2.20001c0.04184,-0.89902 -0.32181,-1.9379 0.16666,-2.63333c0.50232,-0.71518 0.78555,-1.26794 0.83334,-2.16666c0.04272,-0.80338 0.74695,-1.5372 0.96399,-2.39999c0.21973,-0.8735 -0.12332,-1.89789 0.38867,-2.54733c0.48453,-0.61462 0.56561,-1.45679 0.65182,-2.35718c0.08359,-0.87329 0.49585,-1.49362 0.82886,-2.52884c0.24954,-0.77579 0.46863,-1.64337 0.74133,-2.34131c0.36426,-0.93222 0.42465,-1.70935 0.42532,-2.6507c0.00073,-1.008 -0.01385,-1.81598 0.284,-2.65866c0.24973,-0.70648 0.67996,-1.76227 0.716,-2.68265c0.02579,-0.65826 0.1846,-1.65726 0.57468,-2.42267c0.40833,-0.80127 0.28876,-1.7673 0.70932,-2.61069c0.32993,-0.66162 0.71375,-1.5 0.716,-2.39999c0.00223,-0.89999 0,-1.79999 0,-2.69998c0,-0.90002 0,-1.80002 0,-2.70001c0,-0.79999 0,-1.70001 0,-2.60001c0,-0.89999 0,-1.79999 0,-2.69998c0,-0.90002 0,-1.80002 0,-2.70001c0,-0.79999 0,-1.70001 0,-2.60001c0,-0.89999 0,-1.79999 0,-2.69998c0,-0.90002 -0.08868,-1.80441 0,-2.70001c0.08374,-0.8457 0.95728,-1.28201 1,-2.10001c0.04694,-0.89877 -0.01801,-1.70016 0,-2.60001c0.01801,-0.90054 0.61804,-1.61032 0.91467,-2.5c0.28595,-0.85764 0.29703,-1.77173 0.66,-2.39999c0.48856,-0.84564 1,-1.42532 1.42084,-2.10449l0.0405,-0.89551l0.38931,-0.79999l0.49066,-0.79868" id="svg_17" stroke-width="2" stroke="#000" fill="none"/>
  <path t="116569,116945,116945,116977,116985,117001,117018,117035,117051,117068,117068,117097,117097,117113,117121,117153,117168,117185,117201,117241,117265,117274,117305,117329,117369,117417,117441,117489,117498,117529,117554,117570,117610,117642,117666,117675,117675,117706,117746,117762,117786,117810,117834,117851,117867,117868,117890,117906,117946,117978,117994,118042,118082,118130,118130,118146,118234,118306,118314,118458,118554,118930" d="m390,298c1,-1 1.79999,-1 2.70001,-1c0.89999,0 1.90927,-0.16727 2.59549,0.35718c0.75024,0.57336 0.92087,1.57425 1.87115,1.64282c0.65707,0.04742 1.65726,0.1846 2.42267,0.57468c0.80127,0.40833 1.77039,0.34055 2.38535,0.85065c0.59927,0.4971 1.01962,1.39276 1.82666,1.57333c0.87698,0.19623 1.87064,-0.32675 2.67783,0.02219c0.71399,0.30865 1.22534,0.9769 2.12085,0.97916c0.89999,0.00226 1.79999,-0.00067 2.69998,0c0.89868,0.00067 1.44763,0.62769 2.22086,0.97916c0.80057,0.36389 1.77914,0.02084 2.67917,0.02084c0.89999,0 1.79999,0 2.59998,0c0.90002,0 1.80002,0 2.70001,0c0.89999,0 1.79999,0 2.70001,0c0.89999,0 1.79999,0 2.59998,0c0.90002,0 1.80002,0 2.70001,0c0.89999,0 1.79999,0 2.70001,0c0.89999,0 1.79999,0 2.59998,0c0.90002,0 1.80002,0 2.70001,0c0.89999,0 1.79999,0 2.70001,0l0.89999,0" id="svg_18" stroke-width="2" stroke="#000" fill="none"/>
  <path t="134002,134041,134049,134057,134066,134089,134089,134105,134105,134121,134133,134133,134150,134150,134166,134166,134166,134166,134166,134166,134183,134183,134183,134183,134183,134183,134183,134183,134183,134200,134200,134200,134200,134200,134200,134200,134200,134216,134217,134217,134217,134217,134217,134217,134233,134233,134233,134233,134297,134297,134304,134316,134316,134335,134335,134335,134350,134350,134350,134350,134350,134366,134366,134366,134366,134366,134366,134366,134383,134383,134383,134383,134383,134383,134384,134384,134400,134400,134400,134401,134401,134401,134401,134401,134401,134416,134417,134417,134417,134417,134417,134417,134417,134417,134433,134433,134433,134433,134433,134434,134434,134434,134434,134450,134450,134450,134450,134450,134451,134451,134451,134451,134466,134466,134466,134466,134466,134466,134466,134466,134466,134483,134483,134483,134483,134483,134483,134483,134483,134483,134500,134500,134500,134500,134500,134500,134500,134500,134500,134516,134516,134516,134516,134516,134516,134516,134516,134517,134533,134533,134533,134550,134550,134600,134600,134624,134634,134650,134650,134650,134650,134666,134666,134666,134666,134666,134667,134667,134667,134667,134683,134683,134684,134684,134684,134684,134684,134684,134684,134700,134700,134700,134700,134701,134701,134701,134701,134716,134716,134716,134717,134717,134717,134717,134717,134717,134733,134733,134733,134734,134734,134734,134734,134734,134734,134750,134750,134750,134750,134751,134751,134751,134751,134751,134766,134766,134766,134766,134766,134767,134767,134767,134767,134783,134783,134784,134784,134784,134784,134784,134784,134784,134800,134800,134801,134801,134801,134801,134801,134801,134801,134816,134817,134817,134817,134817,134833,134833,134834,134850,134850,134866,134866,134883,134900,134900,134916,134916,134917,134933,134933,134934,134992,134993,135001,135008,135009,135009,135009,135016,135018,135018,135018,135018,135018,135033,135034,135034,135034,135034,135034,135034,135034,135050,135051,135051,135051,135051,135051,135051,135051,135051,135067,135067,135067,135067,135067,135067,135067,135067,135068,135083,135084,135084,135084,135084,135084,135084,135084,135084,135100,135101,135101,135101,135101,135101,135101,135101,135101,135116,135117,135117,135117,135117,135117,135117,135117,135118,135133,135133,135134,135134,135134,135134,135134,135134,135134,135150,135151,135151,135151,135151,135151,135151,135151,135152,135209,135210,135210,135210,135210,135210,135210" d="m492,282c2.58932,0.98932 3.43542,1.06769 4.02533,1.57468c0.58212,0.50027 1.62305,0.80127 2.18533,1c0.97562,0.34482 1.95331,0.41998 2.90399,0.42532c0.88535,0.00497 1.8017,0.04245 2.40619,-0.625c0.47299,-0.52225 0.80783,-1.58017 1.14081,-2.46982c0.18903,-0.50504 0.38074,-1.05078 0.80002,-2.242c0.2254,-0.64038 0.70358,-1.99701 0.95984,-2.70584c0.26239,-0.72586 0.53369,-1.46341 0.81448,-2.20801c0.28287,-0.75009 0.57199,-1.49973 0.8685,-2.24399c0.29419,-0.7384 0.89154,-2.17374 1.19568,-2.86218c0.29727,-0.67291 0.59692,-1.32794 0.91049,-1.96048c0.61099,-1.23257 0.93793,-1.82144 1.27466,-2.39468c0.66458,-1.13135 1.02225,-1.67584 1.76736,-2.72183c0.36591,-0.51367 0.73785,-1.01123 1.49463,-1.94733c0.3642,-0.45053 1.4292,-1.67685 1.76337,-2.0455c0.61859,-0.68246 1.24591,-1.22061 1.98932,-2.23999c0.45087,-0.61824 1.13928,-1.3983 1.44281,-0.619c0.25281,0.64915 0.05719,1.68965 0.05719,2.59367c0,0.54797 0,1.95065 0,2.3725c0,0.92365 0,1.94733 0,2.49414c0,1.15869 0,2.39603 0,3.03967c0,0.65768 0,1.32733 0,2.00702c0,1.38132 0.00195,2.77866 -0.00067,3.479c-0.00269,0.70233 -0.00958,1.40897 -0.04199,2.12097c-0.03284,0.72073 -0.07422,1.45428 -0.18597,2.19302c-0.35297,2.33347 -0.64429,3.13312 -0.91534,3.95764c-0.27991,0.85153 -0.61139,1.71481 -0.98102,2.59052c-0.37952,0.89917 -0.79688,1.80878 -1.25098,2.72549c-0.93591,1.8894 -1.46307,2.83588 -1.99469,3.79868c-0.53961,0.97723 -1.09973,1.96088 -1.67102,2.95499c-0.57806,1.00592 -1.1687,2.01923 -1.76099,3.04501c-1.20007,2.0784 -1.79953,3.13443 -2.39999,4.20401c-0.60822,1.0834 -1.22009,2.18719 -1.83899,3.31348c-0.63181,1.14972 -1.27396,2.32831 -1.92902,3.53851c-1.36536,2.52252 -2.07245,3.84079 -2.79065,5.18399c-0.72281,1.35181 -1.43866,2.69861 -2.13452,4.0275c-0.67609,1.29117 -1.32104,2.53098 -1.90948,3.71252c-1.04233,2.09293 -1.45227,2.99329 -1.79733,3.79465c-0.30435,0.70679 -0.55276,1.34006 -0.7515,1.90952c-0.17783,0.50952 -0.31921,0.9783 -0.43652,1.41449c-0.21844,0.81226 -0.30911,1.21457 -0.40933,1.61334c-0.09976,0.39688 -0.19937,0.7908 -0.29999,1.18048c-0.0994,0.38501 -0.19839,0.7641 -0.29999,1.1355c-0.19687,0.71957 -0.29861,1.06412 -0.40002,1.39868c-0.09863,0.32544 -0.19846,0.6405 -0.29999,0.94501c-0.09851,0.29547 -0.19748,0.58093 -0.29999,0.85498c-0.19519,0.52185 -0.29855,0.76578 -0.40002,1.00134c-0.09857,0.22879 -0.19901,0.4498 -0.29999,0.66449c-0.09906,0.21063 -0.19949,0.4166 -0.29999,0.61951c-0.19901,0.40182 -0.41913,0.79059 -0.67917,1.38049c-0.43417,0.98495 -0.53799,1.78613 -0.8735,2.67352c-0.26685,0.70581 -0.62946,1.69293 -0.64734,1.52399c-0.10065,-0.95135 0.00809,-1.52438 0.07199,-2.25c0.08176,-0.92831 0.2576,-2.09393 0.371,-2.77667c0.1236,-0.74402 0.2684,-1.5372 0.42902,-2.37c0.16663,-0.86392 0.34647,-1.74728 0.53699,-2.63998c0.1908,-0.89395 0.58725,-2.64093 0.79117,-3.47534c0.19754,-0.80823 0.39957,-1.59 0.6105,-2.34601c0.20554,-0.73663 0.41974,-1.45245 0.64648,-2.14801c0.22272,-0.68314 0.70514,-2.00574 0.96436,-2.65015c0.25946,-0.64496 0.53745,-1.28958 0.81448,-1.94852c0.57843,-1.37576 0.87872,-2.10666 1.16534,-2.88266c0.62094,-1.68127 0.90598,-2.61572 1.19598,-3.59866c0.30164,-1.02234 0.58835,-2.08356 0.86102,-3.17401c0.27676,-1.10687 0.53839,-2.22696 0.771,-3.354c0.4592,-2.22491 0.63519,-3.31845 0.79868,-4.392c0.16071,-1.05521 0.2962,-2.09787 0.40948,-3.129c0.112,-1.01959 0.2049,-2.03201 0.27451,-3.039c0.13837,-2.00156 0.17038,-3.00186 0.20267,-3.99731c0.03201,-0.98721 0.0517,-1.96265 0.06448,-2.922c0.01251,-0.9393 0.01758,-1.85468 0.0195,-2.742c0.00363,-1.67468 -0.00049,-2.45535 0.004,-3.20001c0.00427,-0.71268 0.01321,-1.39752 0.039,-2.05798c0.02502,-0.64093 0.05966,-1.26669 0.129,-1.87802c0.13705,-1.2085 0.26431,-1.80676 0.40002,-2.40265c0.13565,-0.59555 0.29529,-1.18314 0.47098,-1.76102c0.17374,-0.5715 0.36093,-1.12964 0.561,-1.67099c0.38507,-1.04193 0.59473,-1.52853 0.79602,-1.99866c0.19446,-0.45419 0.38989,-0.88971 0.58047,-1.30951c0.18408,-0.40549 0.36566,-0.79544 0.53552,-1.1745c0.32245,-0.71967 0.46228,-1.06705 0.73267,-1.72635c0.37564,-0.91595 0.57748,-1.51291 1.23666,-2.47632c0.47507,-0.69434 1.06744,-1.25864 1.63065,-2.08401c0.5076,-0.7439 1.04953,-1.53586 1.44934,-2.19064c0.52615,-0.86172 0.83295,-1.70132 1.1405,-2.28217c0.45682,-0.86276 0.68628,-1.80742 0.89551,-2.45251c0.38321,-1.18156 0.70419,-1.8062 1.19998,-2.55733c0.50427,-0.76401 0.72882,-2.20808 1.6792,-1.99367c0.83844,0.18918 0.49329,1.62943 0.51013,2.35367c0.01886,0.81183 0.01068,2.14316 0.01068,2.60933c0,0.96935 0,1.99467 0,2.53084c0,0.55316 0.00226,2.32568 -0.00403,2.96384c-0.00659,0.67218 -0.02203,1.38559 -0.05847,2.14648c-0.03912,0.8165 -0.09711,1.69547 -0.19348,2.64151c-0.21722,2.13223 -0.40302,3.32346 -0.59869,4.59601c-0.20673,1.34421 -0.44116,2.74695 -0.68701,4.19998c-0.25275,1.49362 -0.51788,3.01611 -0.77698,4.56c-0.52118,3.10559 -0.76285,4.65106 -0.996,6.18533c-0.2312,1.52139 -0.45074,3.03046 -0.66449,4.52551c-0.21155,1.47964 -0.41565,2.94376 -0.61951,4.3905c-0.39999,2.83884 -0.60016,4.22815 -0.80002,5.59332c-0.1958,1.33749 -0.39014,2.64276 -0.58047,3.91202c-0.18436,1.22937 -0.36389,2.41461 -0.53552,3.552c-0.31906,2.11459 -0.4632,3.0856 -0.60132,4.00131c-0.13062,0.86597 -0.2558,1.68713 -0.384,2.4675c-0.12259,0.74631 -0.24506,1.46317 -0.384,2.1525c-0.26804,1.32971 -0.43329,1.9722 -0.59866,2.60269c-0.16171,0.61649 -0.33093,1.21228 -0.49649,1.7865c-0.15851,0.5498 -0.31488,1.06989 -0.45151,1.56149c-0.24292,0.87411 -0.33127,1.25565 -0.39868,1.60132c-0.06082,0.31183 -0.10278,0.59689 -0.129,0.858c-0.02414,0.2403 -0.03513,0.46527 -0.039,0.67801c-0.00739,0.40527 -0.00266,0.60516 -0.00266,0.80402c0,0.19681 0,0.39066 0,0.58047c0,0.18484 0,0.36368 0,0.53552c0,0.31866 0,0.46381 0,0.59998c0,0.12817 0,0.24936 0,0.3645l0,0.11017" id="svg_22" stroke-width="20" stroke="#fff" fill="none"/>
  <path t="136002,136049,136065,136097,136113,136121,136133" d="m488,318c1.70001,0 2.70001,0 3.60001,0l0.89999,0l0.89999,0l0.80133,0" id="svg_23" stroke-width="20" stroke="#fff" fill="none"/>
  <path t="138273,138489,138498,138529,138545,138577,138609,138625,138689,138729,138745,138761,138761,138841,138929,138961,139017" d="m439,304c1.60001,0.57468 2.39948,0.98132 3.29999,1c0.8985,0.01865 1.44763,0.62769 2.22086,0.97916c0.80057,0.36389 1.77914,0.02084 2.67917,0.02084c0.89999,0 1.83643,-0.16815 2.59998,0.08533c0.77219,0.25635 1.60001,0.87866 2.5,0.91467l0.90002,0.00134" id="svg_24" stroke-width="2" stroke="#000" fill="none"/>
  <path t="141545,141673,141697,141697,141713,141713,141721,141721,141721,141733,141750,141750,141766,141766,141766,141767,141767,141783,141783,141783,141783,141800,141800,141817,141817,141817,141833,141921,141929,141937,141937,141937,141950,141950,141967,141967,141967,141967,141984,141984,141984,141984,141984,141984,141984,141984,142000,142001,142001,142001,142001,142001,142001,142001,142001,142017,142017,142017,142018,142018,142018,142018,142018,142018,142034,142034,142034,142034,142034,142034,142034,142034,142034,142050,142050,142050,142050,142050,142050,142129,142129,142145,142145,142169,142169,142177,142177,142185,142185,142185,142200,142200,142200,142200,142200,142217,142217,142217,142217,142234,142234,142234,142234,142234,142234,142234,142249,142249,142249,142249,142249,142250,142250,142250,142266,142266,142266,142267,142267,142284,142284,142284,142305,142305,142321,142321,142337,142337,142369,142393,142401,142417,142417,142434,142434,142434,142449,142450,142450,142450,142450,142450,142450,142451,142451,142466,142467,142467,142467,142467,142467,142467,142467,142467,142484,142484,142484,142484,142484,142484,142484,142484,142484,142499,142499,142499,142499,142499,142500,142500,142500,142500,142516,142516,142517,142517,142517,142517,142517,142517,142517,142534,142534,142534,142534,142534,142534,142534,142534,142535,142549,142549,142549,142550,142550,142550,142550,142550,142551,142566,142566,142566,142566,142567,142567,142567,142567,142567,142583,142584,142584,142584,142585,142585,142585,142585,142585,142599,142599,142599,142599,142600,142600,142600,142600,142600,142616,142617,142617,142617,142633,142634,142634,142634,142649,142649,142650,142650,142650,142650,142666,142666,142666,142737,142745,142745,142745,142745,142753,142753,142753,142753,142754,142754,142754,142766,142766,142767,142767,142767,142767,142767,142783,142783,142784,142784,142785,142785,142785,142785,142799,142799,142800,142800,142800,142800,142800,142800,142800,142816,142817,142817,142817,142817,142817,142817,142818,142818,142833,142834,142834,142834,142834,142835,142835,142835,142835,142849,142850,142850,142850,142850,142850,142850,142850,142850,142866,142866,142867,142867,142913,142993,143001,143001,143001,143017,143017,143017,143017,143033,143034,143034,143034,143034,143034,143034,143035,143049,143049,143050,143050,143050,143050,143050,143050,143050,143066,143066,143067,143067,143067,143067,143067,143067,143067,143083,143083,143084,143084,143084,143084,143084,143084,143084,143099,143099,143099,143100,143100,143100,143100,143100,143100,143116,143116,143116,143117,143117,143117,143117,143117,143117,143133,143133,143134,143134,143134,143134,143134,143134,143134,143149,143149,143150,143150,143150,143150,143166,143166,143167,143183,143183,143184,143199,143217,143217,143233,143249,143266,143266,143289,143289,143299,143299,143300,143316,143317,143333,143334,143334,143334,143351,143351,143351,143351,143366,143366,143367,143367,143367,143367,143383,143383,143384,143384,143384,143384,143399,143399,143399,143400,143489,143489,143497,143516,143516,143517,143533,143534,143534,143534,143534,143534,143534,143535,143549,143550,143550,143550,143550,143550,143550,143551,143551,143566,143567,143567,143567,143567,143567,143567,143568,143568,143583,143583,143584,143584,143584,143584,143585,143585,143585,143599,143599,143600,143600,143600,143600,143601,143601,143601,143616,143617,143617,143617,143633,143633" d="m507,131c-1.08401,-1.71466 -1.81393,-2.25397 -2.16934,-2.88667c-0.46094,-0.82057 -1.05441,-1.29397 -1.664,-2.11333c-0.56775,-0.7631 -0.95847,-1.51939 -1.46216,-2.24284c-0.53067,-0.76221 -0.71548,-1.50348 -0.87115,-2.42383c-0.17859,-1.05591 -0.26337,-1.4601 -0.48001,-2.304c-0.22296,-0.86855 -0.659,-2.09337 -1.0015,-2.8105c-0.3168,-0.66331 -0.86377,-1.50211 -1.1825,-2.5335c-0.20105,-0.65054 -0.3107,-1.69408 -0.59467,-2.47466c-0.26715,-0.73433 -0.52164,-2.36012 -1.22202,-2.149c-0.79791,0.24052 -0.35266,1.70766 -0.35266,2.45917c0,0.7965 0,1.79517 0,2.7045c0,0.94133 0,1.75433 0,2.39967c0,0.76534 0,2.20834 0,2.783c0,0.62267 0,2.00401 0,2.75867c0,0.79467 0,1.62733 0,2.496c0,1.83733 0,2.80117 0,3.788c0,1.00284 0,2.01466 0,3.0285c0,1.00883 0,2.00566 0,2.98349c0,1.87067 0,2.75168 0,3.59868c0,0.819 0,1.616 0,2.39699c0,0.77101 0,1.53801 0,2.30701c0,1.56799 0,2.3765 0,3.196c0,0.8215 0,1.636 0,2.43449c0,0.7735 0,1.513 0,2.2095c0,1.228 0,1.74417 0,2.19734c0,0.39716 0.00003,0.74533 0,1.32266c-0.00009,1.07449 0.19818,1.92429 -0.22134,2.85283c-0.33624,0.74425 -1.00754,0.05769 -1.35333,-0.61417c-0.41922,-0.81454 -0.41257,-1.61069 -0.42548,-2.78566c-0.00906,-0.82503 0.00598,-1.42981 -0.1665,-2.74501c-0.09451,-0.72069 -0.26181,-1.45805 -0.40802,-2.20799c-0.14441,-0.74074 -0.30368,-1.80455 -0.41064,-2.832c-0.07565,-0.7267 -0.16574,-1.53676 -0.34802,-2.46001c-0.21332,-1.08041 -0.37442,-1.66592 -0.51733,-2.28799c-0.30386,-1.32281 -0.45544,-2.0184 -0.58133,-2.73601c-0.25821,-1.47206 -0.33295,-2.22945 -0.39734,-2.98932c-0.0643,-0.75854 -0.10345,-1.51315 -0.129,-2.25751c-0.02502,-0.72902 -0.03714,-1.43832 -0.04166,-3.39583c-0.00134,-0.58034 0,-1.629 0,-2.10134c0,-0.85066 0,-2.23199 0,-3.05099c0,-0.693 0,-1.71417 0,-2.4935c0,-0.9995 0,-1.77351 0,-2.6735c0,-0.86333 -0.07166,-2.10266 0.61066,-2.33667c0.86102,-0.2953 1.88141,-0.08536 2.564,0.02534c0.96722,0.15685 1.54575,0.9231 1.88,1.61866c0.47891,0.99655 0.71426,1.65866 0.99869,2.4c0.31442,0.8195 0.63934,1.71393 0.9675,2.6745c0.34549,1.01135 0.69122,2.06915 1.01248,3.1695c0.65994,2.26041 0.93192,3.42076 1.19601,4.58533c0.26459,1.16682 0.50348,2.34041 0.729,3.51601c0.22516,1.17375 0.43423,2.34706 0.63898,3.51601c0.40579,2.31677 0.60056,3.4631 0.80536,4.59999c0.20389,1.13177 0.41382,2.25961 0.63898,3.384c0.22552,1.12631 0.46201,2.25514 0.729,3.384c0.54111,2.28787 0.86526,3.43956 1.20132,4.60133c0.33957,1.17397 0.70465,2.35262 1.09052,3.53549c0.38876,1.19183 0.79633,2.38628 1.22549,3.58051c0.86392,2.40402 1.32938,3.59955 1.79602,4.79333c0.46472,1.18887 0.93774,2.36414 1.41599,3.522c0.47116,1.14078 0.94226,2.25687 1.41599,3.342c0.90762,2.07893 1.35898,3.05598 1.79599,3.99333c0.41882,0.89827 0.82776,1.75212 1.22552,2.5605c0.37701,0.7662 0.73932,1.48593 1.09052,2.1555c0.63092,1.20277 0.92554,1.72656 1.20264,2.20534c0.25623,0.44275 0.50391,0.8493 0.74854,1.22249c0.23163,0.35339 0.46356,0.68579 0.70349,0.9975c0.47339,0.61499 0.73737,0.90765 1,1.20668c0.2644,0.30098 0.53345,0.59872 0.79651,0.89999c0.26086,0.29875 0.51813,0.59441 0.75146,0.89999c0.45007,0.58952 0.63214,0.89658 0.79871,1.19867c0.16199,0.29376 0.30194,0.5892 0.42896,0.88051c0.1236,0.28345 0.23273,0.56363 0.33905,0.83549c0.20276,0.5186 0.30188,0.76408 0.40131,1c0.09625,0.22841 0.19196,0.44881 0.28052,0.66451c0.08606,0.20966 0.16901,0.41451 0.23547,0.61949c0.12915,0.39809 0.19226,0.5984 0.24933,1.22267c0.06311,0.69083 0.03601,1.82199 0.03601,2.502c0,0.75999 0,1.60001 0,3.00999c0,0.509 0,1.563 0,2.09601c0,1.048 0,2.032 0,2.90399c0,1.03351 -1.09448,2.88251 0,2.88251c0.44501,0 0,-1.4425 0,-1.86166c0,-0.93834 0,-2.52084 0,-3.07584c0,-0.565 0,-1.72501 0,-2.32001c0,-0.605 0,-1.845 0,-3.125c0,-0.6545 0,-1.31599 0,-2.64799c0,-0.66451 0,-1.32401 0,-1.97549c0,-1.87651 0.00153,-2.46817 -0.00134,-3.04984c-0.00586,-1.17336 -0.01709,-1.78506 -0.03467,-2.42667c-0.01868,-0.68175 -0.04156,-1.41373 -0.13068,-3.06667c-0.0506,-0.93842 -0.11682,-1.94557 -0.19501,-3.0105c-0.08167,-1.11241 -0.17572,-2.26074 -0.28497,-3.4335c-0.11066,-1.18758 -0.2207,-2.37971 -0.52002,-4.72267c-0.14514,-1.13606 -0.31293,-2.23914 -0.48151,-3.3105c-0.16351,-1.03931 -0.33203,-2.0435 -0.49048,-3.0135c-0.15253,-0.93365 -0.31244,-1.82791 -0.52802,-3.50932c-0.09998,-0.77951 -0.16846,-1.52499 -0.22345,-2.23801c-0.0528,-0.68434 -0.0896,-1.34531 -0.12451,-1.98599c-0.03406,-0.62465 -0.05518,-1.2383 -0.15204,-2.44267c-0.04822,-0.59988 -0.11456,-1.19499 -0.18597,-1.782c-0.07001,-0.57567 -0.14667,-1.13477 -0.22198,-1.674c-0.07202,-0.51543 -0.14777,-1.00183 -0.25867,-1.87733c-0.04816,-0.38 -0.02417,-0.7308 -0.16669,-1.54167c-0.15747,-0.89578 -0.85925,-1.43571 -0.64282,-0.99184c0.34515,0.70775 0.45697,1.35388 0.74268,2.38867c0.20483,0.74184 0.40289,1.5365 0.54297,2.397c0.22925,1.40872 0.24194,1.92511 0.30902,3.03149c0.03674,0.60681 0.06677,1.25813 0.1095,1.959c0.04614,0.75716 0.09265,1.57742 0.27197,3.424c0.10089,1.03871 0.23315,2.14302 0.37653,3.3015c0.1485,1.20021 0.31018,2.42778 0.47552,3.6705c0.16565,1.24495 0.33643,2.47809 0.64795,4.86134c0.14709,1.12555 0.28302,2.20631 0.40503,3.2475c0.11786,1.00549 0.22406,1.98126 0.315,2.9325c0.08899,0.93047 0.17456,1.84575 0.27997,3.65334c0.05243,0.89911 0.08472,1.7959 0.1095,2.68649c0.02454,0.88141 0.03827,1.75099 0.04651,2.60551c0.00806,0.83647 0.00983,1.65199 0.01068,3.20799c0.00043,0.7355 -0.00024,1.44402 0.00452,2.12849c0.00464,0.66353 0.01312,1.3091 0.03149,1.9395c0.01807,0.61861 0.0351,1.22906 0.13068,2.43201c0.04773,0.60045 0.11505,1.19911 0.19049,1.7955c0.0752,0.5943 0.16119,1.18405 0.25348,1.76849c0.09143,0.57922 0.18756,1.15123 0.38934,2.26933c0.09845,0.54544 0.19934,1.08147 0.29999,1.60951c0.09937,0.52129 0.19958,1.03641 0.29999,1.54649c0.09961,0.50624 0.19995,1.00935 0.40002,2.01067c0.09985,0.49966 0.2998,1.49019 0.47919,2.45833c0.08698,0.46928 0.26758,1.36714 0.39929,2.59851c0.11316,1.05791 0.11615,1.68578 0.12152,2.77649c0.00452,0.91998 0.00067,1.68001 0,2.66667c-0.00067,0.98267 0.19092,1.8197 -0.52081,2.47917c-0.63379,0.58727 -1.61414,0.81778 -2.23633,1.13066c-0.96527,0.48541 -1.45715,1.07967 -2.07617,1.89017c-0.43872,0.57437 -0.8396,1.35829 -1.47119,2.25633c-0.43726,0.62177 -1.02509,1.50356 -1.34814,2.11067c-0.35651,0.66989 -0.71198,1.38171 -1.18066,2.46632c-0.29358,0.67941 -0.66614,1.6877 -0.91937,2.37651c-0.41315,1.12381 -0.73242,1.96042 -0.89996,2.4045c-0.34961,0.9265 -0.53516,1.40253 -0.86334,2.38834c-0.33057,0.99301 -0.60645,1.99408 -0.84802,2.98666c-0.11902,0.48892 -0.33093,1.45363 -0.43463,1.92534c-0.29974,1.36368 -0.49078,2.21741 -0.70135,3.002c-0.19049,0.70995 -0.198,2.36877 -1.06403,2.57933c-0.49057,0.11926 -0.45422,-1.18491 -0.328,-1.92267c0.11847,-0.69237 0.55365,-2.10361 0.74805,-2.688c0.21234,-0.63837 0.45154,-1.32281 0.70648,-2.052c0.26904,-0.76949 0.55371,-1.57373 0.84149,-2.41199c0.60168,-1.75273 0.89819,-2.66307 1.1947,-3.58801c0.29919,-0.9334 0.59222,-1.87282 0.88049,-2.8125c0.28638,-0.93367 0.56494,-1.85794 0.83545,-2.7675c0.52118,-1.75258 0.76306,-2.58934 1.00269,-3.39867c0.23334,-0.78801 0.46423,-1.55852 0.70349,-2.31299c0.23682,-0.74686 0.47998,-1.48859 0.74854,-2.22301c0.54565,-1.49216 0.86865,-2.24168 1.19867,-3c0.33264,-0.76437 0.68073,-1.52356 1.03198,-2.27699c0.34741,-0.74522 0.69611,-1.47398 1.03198,-2.18701c0.63751,-1.35335 0.92731,-1.98874 1.19604,-2.59599c0.25543,-0.57715 0.49133,-1.12848 0.70947,-1.6545c0.20709,-0.49937 0.39917,-0.97523 0.57452,-1.4295c0.47418,-1.22858 0.73083,-1.95584 0.96716,-2.61217l0.31946,-0.8745l0.40137,-1.00134l0.39996,-0.84" id="svg_25" stroke-width="20" stroke="#fff" fill="none"/>
  <path t="147537,147841,147953,148025,148073,148073,148097,148121,148169,148233,148249,148273,148273,148305,148329,148329,148345,148369,148369,148393,148393,148425,148425,148433,148441,148457,148473,148489,148500,148517,148517,148553,148553,148577,148577,148577,148594,148609,148641,148657,148667,148667,148698,148713,148713,148737,148761,148793,148810,148810,148817,148842,148857,148874,148890,148929,148945,148945,148969,149001,149001,149009,149009,149017,149042,149073,149097,149097,149105,149117,149133,149150,149150,149167,149167,149183,149183,149200,149217,149233,149258,149258,149273,149297,149297,149321,149333,149351,149367,149383,149383,149400,149417,149417,149433,149433,149450,149467,149483,149483,149500,149500,149521,149521,149533,149550,149567,149583,149583,149600,149600,149617,149633,149633,149633,149650,149650,149667,149667,149683,149700,149717,149717,149733,149733,149750,149750,149767,149767,149783,149783,149800,149800,149817,149833,149833,149833,149850,149850,149867,149883,149883,149900,149917,149917,149937,149937,149937,149961,149961,149977,149985,150000,150017,150017,150033,150033,150034,150050,150050,150067,150083,150083,150100,150117,150117,150133,150133,150150,150150,150167,150183,150200,150200,150217,150233,150233,150250,150250,150267,150283,150283,150300,150317,150317,150333,150353,150353,150369,150401,150401,150417,150441,150450,150467,150483,150500,150517,150533,150550,150567,150583,150600,150600,150617,150617,150633,150657,150657,150673,150697,150713,150737,150737,150761,150777,150793,150809,150817,150833,150850,150850,150867,150867,150883,150883,150900,150917,150917,150933,150933,150950,150967,150983,151000,151000,151017,151017,151033,151050,151067,151083,151100,151100,151117,151117,151133,151150,151150,151167,151167,151183,151183,151200,151217,151217,151233,151233,151313,151313,151353,151425,151449,151465,151489,151489,151537,151561,151569,151593,151609,151617,151633,151633,151650,151667,151683,151683,151700,151700,151717,151733,151750,151767,151767,151783,151800,151817,151817,151841,151850,151850,151873,151889,151913,151921,151934,151950,151967,151984,151984,152001,152001,152017,152034,152057,152067,152083,152101,152101,152121,152133,152151,152167,152183,152201,152201,152218,152218,152234,152234,152251,152267,152283,152284,152329,152329,152361,152393,152393,152425,152441,152441,152457,152481,152489,152506,152522,152554,152618,152634,152658,152674,152683,152700,152717,152738,152786,152786,152970,152994,153042,153065,153090,153122,153234,153274" d="m478,114c1,0 1.61234,0.35665 2.28534,0.916c0.66901,0.55602 1.14618,1.06611 1.76733,1.72683c0.56775,0.60394 1.65985,0.39146 2.34732,0.7825c0.81577,0.46403 1.72211,0.76992 2.30002,1.27917c0.74045,0.6525 1.478,1.08076 2.27914,1.2955c0.86823,0.23272 1.46991,0.85004 2.20618,1.02533c0.94003,0.22379 1.67319,0.81809 2.46735,1.27017c0.67493,0.38422 1.61813,0.46896 2.54599,0.70583c0.8013,0.20457 1.25336,0.8282 2.20132,1.00933c0.83041,0.15867 1.69348,0.64011 2.31467,1.07333c0.79706,0.55586 1.34348,0.83956 2.28534,1.08266c0.79776,0.20592 1.27209,0.77703 2.04816,1.47617c0.64853,0.58422 1.42047,0.91862 2.25183,1.3045c0.87204,0.40475 1.50031,0.8537 2.10001,1.45267c0.70035,0.69949 1.41803,1.04541 2.164,1.62534c0.62448,0.4855 1.15384,1.19743 1.60269,1.97467c0.35895,0.62157 1.28436,1.02811 1.85864,1.57466c0.59436,0.56569 0.75391,1.53777 1.25867,2.25601c0.48859,0.69518 0.79224,1.38173 1.23682,2.1485c0.48645,0.83902 1.30261,1.19101 1.56317,1.9075c0.33917,0.93275 0.83917,1.40549 1.55884,2.1615c0.55182,0.57973 1.12244,1.22527 1.52386,1.95183c0.42688,0.77267 1.07526,1.38481 1.93317,1.87866c0.73749,0.42453 1.05585,1.28804 1.6618,1.82133c0.65948,0.58041 1.46161,0.82932 2.21667,1.40001c0.71155,0.5378 0.84174,1.50856 1.37885,2.1955c0.58173,0.74394 1.67627,0.82919 2.2428,1.31517c0.74323,0.63757 1.12872,1.42998 1.48401,2.18933c0.34222,0.73143 1.56024,0.99008 1.8952,1.72083c0.36658,0.79971 0.28424,1.69872 0.82214,2.27917c0.67224,0.72543 1.42767,1.21204 1.84149,1.95717c0.4585,0.82562 0.03265,1.8241 0.37799,2.70116c0.2757,0.70027 1.24481,1.07903 1.54321,1.763c0.41101,0.94209 0.28046,1.80553 0.65729,2.75717c0.30707,0.77544 0.76801,1.62151 0.77869,2.5215c0.01068,0.89999 0.38916,1.64531 0.716,2.38533c0.39392,0.89182 0.36963,1.63 0.784,2.6355c0.33466,0.81197 0.46698,1.48352 0.49548,2.47383c0.02979,1.0356 -0.0354,1.75459 0.00903,2.658c0.0426,0.86607 0.61566,1.62463 0.91016,2.54868c0.29425,0.92334 0.08533,1.62399 0.08533,2.63199c0,0.79201 -0.0528,1.83009 0.05719,2.57117c0.14972,1.00867 0.63098,1.7263 0.85748,2.7115c0.1731,0.75294 -0.00092,1.72682 0.17065,2.40001c0.26843,1.05336 0.78455,1.81238 0.85748,2.48933c0.10614,0.98502 0.05719,2.02399 0.05719,2.79199c0,0.95984 -0.08795,1.86862 0.05719,2.55c0.22736,1.06735 0.8396,1.8109 0.922,2.67349c0.09308,0.97496 0.02081,1.77917 0.02081,2.57918c0,0.9955 0,1.74283 0,2.76399c0,0.836 -0.17566,1.78719 0.16669,2.636c0.30127,0.74695 0.95447,1.53433 1.22266,2.25067c0.27557,0.73608 0.56671,1.77525 0.60931,2.54666c0.05292,0.95837 0.00134,1.85533 0.00134,2.71867c0,0.85866 -0.09143,1.81413 0.03601,2.65866c0.14526,0.96255 0.72705,1.54796 0.9068,2.478c0.16418,0.84943 -0.00122,1.86317 0.40985,2.64734c0.44446,0.8479 0.64429,1.5 0.64734,2.45717c0.00287,0.89999 -0.01111,1.66542 0.284,2.64149c0.23694,0.78363 0.67328,1.71292 0.716,2.60133c0.03839,0.79909 0,1.75717 0,2.65266c0,0.69467 0,1.722 0,2.66867c0,0.85333 0,1.79333 0,2.67867c0,0.8 -0.01068,1.70006 0,2.60001c0.01044,0.87935 0.81805,1.39429 0.99866,2.20132c0.19623,0.87698 0.00134,1.79868 0.00134,2.69867c0,0.89999 0,1.8 0,2.7c0,0.90016 0,1.68535 0,2.62535c0,0.69064 0,1.67465 0,2.65866c0,0.86331 0,1.75882 0,2.716c0,0.89999 0,1.79999 0,2.59998c0,0.90002 0,1.80002 0,2.70001c0,0.89999 0,1.79999 0,2.70001c0,0.90015 0,1.68533 0,2.63599c0,0.76532 0.00391,1.75949 0,2.50684c-0.00537,1.02121 -0.38916,1.80246 -0.716,2.54251c-0.39392,0.89182 -0.32648,1.64966 -0.784,2.59381c-0.40668,0.83932 -0.45148,1.72217 -0.50018,2.621c-0.04272,0.78864 -0.40222,1.53323 -0.71582,2.41583c-0.29584,0.83255 -0.28387,1.784 -0.284,2.68402c-0.00012,0.89999 -0.22852,1.76434 -0.57465,2.43597c-0.41852,0.81216 -0.4231,1.71133 -0.42535,2.61136c-0.00232,0.91931 0.1416,1.80063 -0.2215,2.73132c-0.27435,0.70313 -1.02264,1.48315 -1.34253,2.19598c-0.41077,0.91534 -0.28491,1.86423 -0.55029,2.58252c-0.29694,0.80371 -1.17615,1.32816 -1.6427,2.22131c-0.34924,0.66852 -0.24298,1.62152 -0.24298,2.52151c0,0.89999 0.13654,1.85663 -0.284,2.70001c-0.3299,0.66162 -0.71375,1.5 -0.716,2.39999c-0.00226,0.89999 0.00067,1.79999 0,2.69998c-0.00067,0.90002 -0.30084,1.75082 -0.64734,2.40002c-0.45337,0.84937 -0.33594,1.82101 -0.35284,2.62131c-0.01801,0.85388 -0.24249,1.82773 -0.80115,2.47736c-0.5484,0.63766 -1.15594,1.39832 -1.19867,2.30133c-0.04254,0.89899 0.19122,1.73306 -0.05719,2.60001c-0.2569,0.89658 -0.8717,1.61627 -0.93213,2.47464c-0.06598,0.93774 0.01471,1.82574 -0.01068,2.62534c-0.02863,0.9014 -0.68616,1.62241 -0.94281,2.5c-0.25311,0.8656 0.19769,1.92389 -0.2785,2.57867c-0.51062,0.70221 -0.77869,1.44266 -0.77869,2.12134c0,0.97849 0.01801,1.79886 0,2.70001c-0.01801,0.90054 -0.61816,1.61032 -0.91467,2.5c-0.28589,0.85764 -0.08533,1.79999 -0.08533,2.59998c0,0.90002 0,1.80002 0,2.70001c0,0.89999 0,1.79999 0,2.70267c0,0.76801 0,1.80267 0,2.54666c0,0.91733 0.00708,1.85117 -0.42535,2.65067c-0.44617,0.82489 -0.48639,1.71487 -0.65997,2.48535c-0.17859,0.79269 -0.73663,1.6069 -0.87866,2.48932c-0.15051,0.9353 -0.03601,1.79999 -0.03601,2.73999c0,0.88535 0,1.68533 0,2.58536c0,0.89999 -0.16278,1.73804 -0.64734,2.35266c-0.51196,0.64944 -0.35266,1.64734 -0.35266,2.54733c0,0.89999 0.24286,1.83484 -0.00452,2.6955c-0.2207,0.76788 -1.13556,1.08386 -1.64282,1.81433c-0.46515,0.6698 -0.35266,1.72351 -0.35266,2.47949c0,0.91068 0,1.81067 0,2.71066c0,0.90002 0,1.80002 0,2.70001l-0.22131,0.87866l-0.6947,0.40533" id="svg_26" stroke-width="2" stroke="#000" fill="none"/>
  <path t="154210,155098,155130,155130,155170,155170,155194,155218,155242,155242,155250,155282,155322,155362,155378,155378,155426,155434,155458,155490,155506,155516,155546,155602,155642,155674,155714,155834,155930,156065,156065,156361,156553,156641,156705,156817,156817,156857,156985,156993,157073,157113,157153,157177,157209,157209,157233,157257,157297,157329,157353,157366,157385,157401,157418,157441,157457,157489,157500,157500,157529,157553,157577,157585,157602,157633,157681,157681,157697,157697,157721,157737,157761,157817,157849,157873,157985,158025,158041,158073,158113,158113,158137,158169,158209,158265,158313,158313,158337,158338,158409,158441,158481,158489,158537,158553,158569,158569,158583,158615,158633,158633,158673,158705,158729,158737,158737,158750,158769,158825,158841,158897,159073,159145,159145" d="m452,307c0.16666,1.83334 1.03268,2.12558 1.60001,2.61066c0.7467,0.63843 1.12347,1.27832 1.89999,1.8685c0.73798,0.56088 1.7666,0.60559 2.21466,1.32217c0.49918,0.79834 0.11801,1.81833 0.30618,2.69867c0.1814,0.84863 1.07205,1.42462 1.54315,2.10001c0.51169,0.73358 0.36295,1.75015 0.86133,2.37466c0.4852,0.60797 0.30682,1.46771 0.57916,2.32083c0.26193,0.82053 0.98483,1.31516 0.99551,2.2045c0.01068,0.88934 0.41452,1.58408 1.05267,2.14734c0.5954,0.52554 0.94733,1.35266 0.94733,2.15265c0,0.90002 -0.0119,1.82516 0.42532,2.60001c0.40979,0.72626 0.53748,1.60086 0.57468,2.39999c0.04272,0.91766 0.81778,1.4321 1.00015,2.29984c0.16653,0.79233 0.97125,1.25589 0.99985,2.10019c0.03046,0.89948 0,1.79999 0,2.59998c0,0.90002 0,1.80002 0,2.70001c0,0.89999 0,1.79999 0,2.70001c0,0.89999 -0.32236,1.9538 0.22134,2.67865c0.4823,0.64301 0.77866,1.32135 0.77866,2.22134c0,0.89999 0,1.69998 0,2.60001c0,0.89999 0,1.79999 0,2.69998c0,0.89999 0,1.80133 0,2.76666c0,0.65869 0,1.66669 0,2.52884c0,0.90451 -0.12656,1.68622 -0.64734,2.35718c-0.45313,0.58377 -0.35266,1.54733 -0.35266,2.44733c0,0.89999 0.00009,1.79999 0,2.70001c-0.00009,0.89999 -0.24213,1.75375 -0.64734,2.5c-0.41327,0.76111 -0.35266,1.69998 -0.35266,2.59998c0,0.90134 0,1.86667 0,2.70001c0,0.83334 0,1.6955 0,2.60001c0,0.89999 0,1.79999 0,2.69998c0,0.90002 0,1.80002 0,2.70001c0,0.79999 0.28796,1.48846 0.87866,2.2215c0.52084,0.64633 0.76868,1.47852 1.12134,2.2785c0.35266,0.79999 0.75272,1.65054 1.16666,2.5c0.31787,0.65228 0.90781,1.41025 1.40802,2.02533c0.50412,0.61987 0.46133,1.57468 0.85065,2.37466l0.49066,0.80002l0.25067,0.79999l0.48068,0.70001" id="svg_27" stroke-width="2" stroke="#000" fill="none"/>
  <path t="163257,163353,163353,163377,163393,163417,163457,163473,163489,163521,163545,163545,163561,163593,163633,163657,163673,163697,163729,163777,163809,163857,163897,163929,163929,164017,164089,164161,164161,164217,164249,164249,164273,164329,164377,164409,164457,164497,164537,164553,164553,164593,164625,164641,164673,164705,164737,164753,164793,164793,164849,164873,164905,164937,164977,165009,165057,165153,165153,165609" d="m494,317c1,1 1,1.79999 1,2.70001c0,0.89999 0,1.79999 0,2.69998c0,0.89999 0,1.80002 0,2.70001c0,0.89999 0,1.69998 0,2.60001c0,0.89999 0.00226,1.79999 0,2.69998c-0.00226,0.89551 -0.6705,1.40686 -0.97916,2.12085c-0.34894,0.80719 -0.02075,1.77914 -0.02084,2.67917c-0.00009,0.89999 -0.24213,1.75375 -0.64734,2.5c-0.41327,0.76111 -0.35266,1.71066 -0.35266,2.62131c0,0.85333 0,1.79333 0,2.67868c0,0.79999 0,1.70001 0,2.60001c0,0.89999 0,1.79999 0,2.69998c0,0.90002 0,1.80002 0,2.70001c0,0.79999 0,1.70001 0,2.60001c0,0.89999 0,1.79999 0,2.69998c0,0.90002 0,1.80002 0,2.70001c0,0.79999 0,1.70001 0,2.60001c0,0.89999 0,1.79999 0,2.69998c0,0.90002 0,1.80002 0,2.70001l0.08533,0.79999l0.48935,0.80002" id="svg_28" stroke-width="2" stroke="#000" fill="none"/>
  <path t="174585,174833,174881,174913,174913,174921,174945,174969,174982,175001,175001,175033,175049,175066,175089,175089,175105,175121,175137,175149,175169,175185,175209,175209,175225,175241,175273,175289,175313,175329,175353,175366,175366,175385,175401,175417,175433,175457,175473,175489,175521,175521,175545,175569,175582,175601,175617,175633,175633,175657,175673,175682,175699,175716,175732,175749,175766,175766,175785,175785,175801,175817,175832,175849,175849,175873,175889,175905,175929,175953,175969,176000,176032,176032,176057,176144" d="m506,325c-0.91333,1.71466 -0.23474,2.27344 0.16666,3c0.42688,0.77271 1.07532,1.3848 1.93317,1.87866c0.73737,0.4245 0.71881,1.27481 1.06683,2.12134c0.27591,0.67108 0.82068,1.49985 0.83334,2.39999c0.01266,0.8999 0.32614,1.63666 0.716,2.39999c0.38452,0.7529 0.284,1.70001 0.284,2.60001c0,0.89999 0,1.80002 0,2.70001c0,0.89999 0,1.69998 0,2.60001c0,0.89999 0,1.79999 0,2.69998c0,0.89999 0,1.80002 0,2.70001c0,0.89999 0,1.69998 0,2.60001c0,0.89999 0,1.79999 0,2.69998c0,0.89999 0,1.80002 0,2.70001c0,0.89999 0,1.69998 0,2.60001c0,0.89999 -0.04639,1.83334 0.42532,2.69998c0.39868,0.73242 0.57468,1.60001 0.57468,2.39999c0,0.90002 0,1.80002 0,2.70001c0,0.89999 0,1.79999 0,2.70001c0,0.89999 -0.00192,1.79999 0,2.55716c0.00226,0.89551 0.0235,1.78632 0.42535,2.60684c0.42609,0.86993 0.57465,1.73599 0.57465,2.63599c0,0.79999 0,1.70001 0,2.60001c0,0.89999 0,1.79999 0,2.69998c0,0.90002 0,1.80002 0,2.70001l0,0.79999l0,0.90002l0,0.89999" id="svg_30" stroke-width="2" stroke="#000" fill="none"/>
  <path t="178785,179040,179080,179144,179144,179184,179272,179337,179368,179392,179416,179416,179440,179464,179480,179528,179584,179664,179704,179784,179784,179808,179856,179880,179880" d="m491,369c0.87851,1.2215 1,2.10001 1,3c0,0.79999 0.05716,1.70001 0.5,2.5c0.44284,0.79999 0.5,1.70001 0.5,2.60001c0,0.89999 0,1.69998 0,2.60001c0,0.89999 0,1.79999 0,2.69998c0,0.89999 -0.08212,1.8038 0.00015,2.70001c0.08368,0.91144 0.6105,1.46399 1.39984,1.87466l0.89999,0.37799l0.70001,0.48068l0.75717,0.21933" id="svg_31" stroke-width="2" stroke="#000" fill="none"/>
  <path t="182784,182832,182832,182840,182840,182840,182849,182866,182866,182882,182882,182882,182899,182899,182899,182899,182920,182932,182932,182949,182965,182965,182982,182982,182999,182999,183015,183015,183032,183049,183049,183065,183065,183112,183112,183168,183168,183200,183216,183216,183456,183456,183504,183576,183624,183712,183736,183749,183776,183880,183880,183888,183928,183952,183984,183984,184024,184040,184064,184080,184104,184115,184136,184149,184184,184200,184224,184264,184280,184296,184312,184344,184360,184408,184408,184456" d="m555,250c0.44666,1.836 0.72241,2.43417 1.48267,3.39867c0.4729,0.59993 1.06006,1.06149 1.49652,2.10133c0.33148,0.78973 0.53601,1.52362 1.02081,2.5c0.30103,0.60623 0.74194,1.46622 1.32135,2.42117c0.32288,0.5322 0.84332,1.32462 1.19464,1.80948c0.70258,0.96964 1.36768,1.75955 1.47949,2.46936c0.14056,0.89224 0.79193,1.5141 1.29919,2.05716c0.73407,0.78589 0.63159,1.64172 1.0625,2.49017c0.3515,0.69214 1.01282,1.37296 1.35748,2.26865c0.32111,0.8345 0.28595,1.80533 0.28534,2.65866c-0.00067,0.94135 -0.00378,1.74484 -0.44666,2.6507c-0.26776,0.5477 -0.99683,1.35922 -1.72803,1.728c-0.89917,0.45349 -1.94019,0.35837 -2.71063,0.53198c-0.79266,0.17865 -1.60632,0.73862 -2.4787,0.87866c-0.92023,0.14771 -1.76038,-0.64365 -1.02533,-0.95331c0.81964,-0.34531 1.79755,0.10593 2.68933,-0.01517c0.82123,-0.11151 1.7572,-0.77707 1.63837,-1.69553c-0.11707,-0.90466 -0.72736,-1.55365 -1.15967,-2.39999c-0.33472,-0.65533 -0.43066,-1.58051 -0.7995,-2.37915c-0.35614,-0.77112 -0.95978,-1.32239 -0.97919,-2.22086c-0.01868,-0.86453 -0.68872,-1.39868 -1.08398,-2.10132c-0.45959,-0.81696 -0.89069,-1.58801 -1.41602,-2.19867c-0.52533,-0.61066 -0.95642,-1.38171 -1.41602,-2.19867c-0.39526,-0.70264 -1.04797,-1.23734 -1.0885,-2.10132l-0.27948,-0.90002l-0.43201,-0.59998l-0.33667,-0.90002" id="svg_32" stroke-width="2" stroke="#000" fill="none"/>
 </g>
 <g display="none">
  <title>muse_image</title>
  <image xlink:href="http://farm1.static.flickr.com/94/210710890_8d9c64693d.jpg" id="muse" height="480" width="640" y="0" x="0"/>
 </g>
 <g display="none">
  <title>bbox</title>
  <rect stroke="#f00" fill="none" stroke-width="3" height="337.92" width="363.52" y="104.96" x="94.72" id="bbox"/>
 </g>
</svg>
