<svg width="640" height="480" xmlns="http://www.w3.org/2000/svg" xmlns:svg="http://www.w3.org/2000/svg" xmlns:xlink="http://www.w3.org/1999/xlink">
 <!-- Sketchy ANNOTATION
  ImageNet ID: n02503517_2061
  URL: http://travel.paintedstork.com/blog/image/elephant_kaziranga.jpg
  Image Width: 400
  Image Height: 544
  BBox X: 145
  BBox Y: 225
  BBox Width: 119
  BBox Height: 140
  Exposure: 2000ms
  Synset Label: elephant
  Synset ID: n02503517
  Worker Tag: elephant river bank
  Sanity Check: 
   Context
   Saved
   Shading
  Comment: 
   {}
  Worker ID: AXD2DZ7U6CK35
  Assignment ID: 3EWIJTFFVO743B9I032EANEQYUEE0S
  HIT ID: 3PN6H8C9R4QTPYV668JL4RDX6LTDAG
  Work Time: 75s
  Worker Score: 0.9286
 END ANNOTATION -->
 <g display="inline">
  <title>Layer 1</title>
  <path t="0,70,70,80,98,115,130,130,146,146,163,163,180,180,196,196,213,213,213,230,230,246,263,263,280,280,296,313,313,330,331,346,346,363,363,380,396,396,413,430,430,446,446,463,480,496,496,513,654,654,682,694,698,715,730,746,746,763,763,763,780,797,813,830,846,846,863,863,880,896,913,930,930,946,963,980,980,996,1013,1013,1030,1030,1046,1046,1063,1080,1080,1080,1096,1113,1113" d="m236,244c0.42534,0.02533 1.10156,-0.39951 1.64734,-1.05267c0.55573,-0.66507 0.88651,-1.43495 1.55266,-2.14867c0.51013,-0.54654 0.98485,-1.29166 1.40001,-1.97333c0.58043,-0.95305 1.13715,-1.55098 1.88399,-2.02533c0.67374,-0.42792 1.64775,-0.98355 2.14134,-1.436c0.72003,-0.66003 1.34789,-1.41216 1.976,-1.79466c0.93542,-0.56964 1.7843,-0.51222 2.64149,-0.922c0.80916,-0.38681 1.52672,-0.66534 2.40984,-1c0.70563,-0.2674 1.72148,-0.62933 2.66884,-0.64734c0.6992,-0.01329 1.681,-0.05315 2.46783,0.01067c1.05215,0.08533 1.66299,0.61748 2.53198,0.86783c0.82687,0.23822 1.84674,-0.05688 2.67868,0.28818c0.78436,0.32533 1.54532,0.76093 2.48401,1.11867c0.71338,0.27188 1.45053,0.87888 2.10532,1.27866c0.86172,0.52615 1.71442,0.78911 2.41068,1.436c0.60327,0.5605 1.44583,0.87541 2.20001,1.284c0.65005,0.35217 1.62253,1.12662 2.44281,0.65884c0.68878,-0.39279 1.17386,-1.00325 1.99316,-1.55351c0.69919,-0.46959 1.38199,-0.89496 2.36401,-1.38933c0.59378,-0.29892 1.30923,-0.78123 2.36401,-0.964c0.92291,-0.15993 1.836,-0.036 2.73599,-0.036c0.89999,0 1.6701,0.02049 2.55267,0.35266c0.70621,0.26579 1.71075,0.62926 2.54733,0.64734c0.89978,0.01944 1.75375,0.24213 2.5,0.64734c0.76111,0.41328 1.76617,0.21735 2.5,0.638c0.68655,0.39354 1.31842,1.19675 2,1.916c0.51425,0.54268 0.9852,1.29144 1.39999,1.97333c0.57959,0.95273 1.13806,1.48547 1.79999,2.23599c0.63843,0.72386 1,1.41467 1.39999,2.10535l0.60001,0.84799l0.60001,0.636l0.564,0.60001" id="svg_1" stroke-width="2" stroke="#000" fill="none"/>
  <path t="2740,2781,2789,2813,2829,2837,2853,2863,2880,2896,2913,2913,2930,2949,2949,2963,2980,2996,2996,3013,3030,3030,3046,3046,3063,3085,3085,3097,3149,3173,3190,3198,3213,3230,3247,3247,3247,3263,3263,3280,3296,3296,3313,3331,3331,3353,3917,3938,3945,3977,3981,3997,4013,4041,4057,4057,4081,4105,4117,4133,4133,4149,4165,4193,4193,4209,4217,4233,4253,4253,4263,4285,4297,4313,4330,4346,4363,4363,4381,4396,4449,4461,4461" d="m237,245c-1.7,0 -2.47403,0.20319 -3.16667,0.83333c-0.59973,0.54561 -0.5864,1.40091 -1.11732,2.08267c-0.48795,0.62657 -1.34215,0.91235 -2.01151,1.44116c-0.74104,0.58543 -0.71341,1.49768 -1.31517,2.24284c-0.52838,0.6543 -1.27834,1.12347 -1.8685,1.89999c-0.56087,0.73798 -0.71169,1.62602 -1.22533,2.2c-0.65804,0.73534 -1.4326,1.36781 -1.89551,1.93599c-0.65546,0.8045 -0.86162,1.65277 -1.59999,2.19467c-0.79091,0.58044 -1.23961,0.99716 -1.82533,1.73334c-0.53827,0.67654 -0.974,1.23734 -0.97467,2.13602c-0.00067,0.89999 0,1.79999 0,2.72131c0,0.91202 0.0462,1.83508 -0.05716,2.57333c-0.14688,1.04901 -0.74358,1.65045 -0.92201,2.52618c-0.19235,0.944 -0.02083,1.65381 -0.02083,2.72198c0,0.85733 -0.09662,1.64868 0.01067,2.57184c0.11148,0.95932 0.85275,1.51138 1.41467,2.16c0.50931,0.58792 0.57588,1.42236 1.07466,2.02533c0.54253,0.65585 1.37146,1.15994 1.5,2c0.12169,0.79526 0.61298,1.58197 0.97467,2.39999c0.34685,0.78448 0.78778,1.62631 1.078,2.30002c0.36263,0.84177 0.76044,1.65945 1.16882,2.39999c0.37196,0.6745 1.18816,1.28696 1.6945,2.09866c0.45992,0.73727 1.39651,0.99374 1.79866,1.60266c0.49976,0.75671 0.96375,1.48389 1.56934,2.11465c0.55,0.57288 1.2668,1.02414 2.01601,1.43668c0.8387,0.46182 1.48076,0.76419 2.3,1.22202c0.77245,0.43167 1.38933,0.96399 1.39999,0.25867l-0.01067,-0.65869" id="svg_2" stroke-width="2" stroke="#000" fill="none"/>
  <path t="5004,5014,5014,5033,5048,5065,5081,5097,5097,5117,5117,5131,5147,5164,5181,5197,5214,5214,5231,5231,5247,5247,5265,5317,5357,5377,5385,5397,5414,5431,5447,5447,5464,5489,5489,5513,5529,5545,5565,5573,5609,5617,5641" d="m225,267c0,5.77335 -0.01721,6.67764 0,7.60001c0.01801,0.96451 0.61032,1.42603 1.41066,1.82532c0.91028,0.45413 1.63591,0.42456 2.56784,0.79602c0.77473,0.30878 1.52132,0.76822 2.42149,0.77866c0.89995,0.01041 1.8,0 2.70001,0c0.89999,0 1.65808,0.03619 2.55716,-0.00449c0.94666,-0.04282 1.73665,-0.2926 2.50684,-0.57019c1.07239,-0.38651 2.21509,-0.81708 2.75067,-0.13998c0.50818,0.64243 0.40852,1.86908 -0.136,2.59332c-0.48332,0.64285 -1.30498,0.9975 -1.87868,1.564c-0.61597,0.60825 -1.16029,1.27121 -2,1.77884c-0.65916,0.39847 -1.34286,1.14395 -1.77866,1.87833c-0.46506,0.78366 -1.06866,1.25284 -1.62134,1.90018l-0.48933,0.61066l-0.03149,0.8685l-0.62651,0.57352" id="svg_3" stroke-width="2" stroke="#000" fill="none"/>
  <path t="6810,6820,6820,6820,6820,6820,6820,6820,6842,6842,6842,6849,6849,6865,6880,6896,6913,6913,6930,6946,6946,6963,6980,6996,7037,7049" d="m239,251c0,2.87083 0,3.47333 0,4.12584c0,1.395 0,2.1075 0,2.80998c0,0.67752 0,1.89752 0,2.86551c0,1.03201 0,2.03201 0,2.78799c0,0.91068 -0.09401,1.85776 0.35266,2.71066c0.39395,0.75223 0.64667,1.5 0.64734,2.336c0.00081,1.01669 0,1.71133 0,2.72803c0,0.93597 0,1.836 0,2.73599l0,0.89999" id="svg_4" stroke-width="2" stroke="#000" fill="none"/>
  <path t="8866,8913,8949,8965,8978,9009,9021,9021,9037,9053,9069,9085,9097,9114,9114,9130,9147,9147,9163,9163,9179,9196,9213,9213,9229,9257,9273" d="m237,297c1.7,0.99551 2.70258,1.39819 3.564,0.96399c0.69888,-0.35226 1.30746,-1.12393 1.436,-1.96399c0.12169,-0.79526 0.74695,-1.53717 0.964,-2.39999c0.21974,-0.8735 0.036,-1.80002 0.036,-2.70001c0,-0.89999 0,-1.69998 0,-2.53598c0,-1.02118 0,-1.76852 0,-2.7627c0,-0.76532 0,-1.71597 0,-2.70132c0,-0.89999 0,-1.69998 0,-2.60001l0,-0.89999l0,-0.89999" id="svg_5" stroke-width="2" stroke="#000" fill="none"/>
  <path t="10133,10406,10416,10441,10441,10449,10465,10481,10501,10515,10531,10548,10548,10563,10563,10579,10596,10613,10629,10629,10646,10663,10663,10679,10696,10713,10729,10746,10763,10779,10796,10796,10817,10837,10861,10885,10896,10904,10945,10949,10981,11001,11001,11014,11049,11057,11093,11100,11121,11335,11355,11385,11396,11396,11414,11430,11447,11464,11464,11480,11480,11480,11497,11497,11514,11514,11514,11530,11530,11530,11547,11564,11564,11580,11580,11580,11597,11597,11614,11614,11614,11614,11630,11630,11630,11630,11647,11647,11647,11664,11664,11680,11680,11697,11697,11697,11725,11737,11747,11777,11933,12040,12050" d="m243,282c0,0.20001 0,1.10001 0,2c0,0.79999 0,1.70001 0,2.60001c0,0.89999 0,1.79999 0,2.69998c0,0.90134 0,1.86667 0,2.52536c0,1.008 0,1.87015 0,2.77466c0,0.89999 0,1.81067 0,2.72131c0,0.85333 0,1.79333 0,2.67868c0,0.79999 0,1.70001 0,2.60001c0,0.89999 0,1.79999 0,2.69998c0,0.90002 0.18134,1.85349 -0.16667,2.70001c-0.27589,0.67108 -0.82291,1.49982 -0.83333,2.39999c-0.01041,0.89993 -0.12399,1.80862 0.00017,2.69983c0.11172,0.80188 0.78712,1.28293 1.00116,2.09885c0.21033,0.80179 1.2182,1.06479 1.79868,1.60266c0.70383,0.65219 1.4733,1.00403 2.116,1.48267c0.68657,0.51129 1.43245,0.64511 2.05867,1.14133c0.66505,0.52698 1.33655,0.96255 1.85866,1.74133c0.47324,0.7059 0.29095,1.61078 0.74133,2.43335c0.42728,0.7804 0.41483,1.70456 0.42534,2.56665c0.01042,0.85437 0.15007,1.8389 0.42534,2.63333c0.20946,0.60449 0.52184,1.59909 0.564,2.436c0.04683,0.92953 -0.01953,1.71875 0.04666,2.53867c0.08583,1.06326 0.41748,1.96851 0.68001,2.73868c0.29016,0.85123 0.52327,1.80127 0.784,2.50751c0.35822,0.97034 0.42351,1.78781 0.584,2.57916c0.20778,1.02448 0.55269,1.66281 0.916,2.73334c0.21414,0.63095 0.41888,1.32156 0.64282,2.41849c0.21967,1.07596 0.27228,1.7616 0.35718,2.70651c0.05212,0.58005 0.284,1.85767 0.5,2.54166c0.216,0.68399 0.40231,1.68423 0.5,2.47916c0.14624,1.19019 0.46283,1.84186 1,2.6875c0.41025,0.64587 0.82513,1.32562 0.97916,2.3125c0.15436,0.98889 0.59552,1.54617 1.01636,2.22534l0.0405,0.8595l0.67999,0.34933l0.28265,-0.79999" id="svg_6" stroke-width="2" stroke="#000" fill="none"/>
  <path t="13169,13189,13189,13189,13189,13203,13203,13231,13248,13248,13248,13263,13263,13279,13279,13296,13296,13313,13329,13346,13346,13372,13402,13425,13449,13450,13457,13485,13493,13493,13509,13517,13533,13546,13569,13597,13613,13621,13629,13646,13663,13679,13679,13679,13696,13713,13729,13729,13746,13763,13763,13779,13796,13796,13796,13813,13813,13829,13829,13846,13846,13846,13863,13863,13863,13879,13879,13879,13896,13896,13896,13913,13913,13913,13929,13929,13946,13946,13946,13963,13963,13963,13979,13979,13996,13996,14098,14108,14122" d="m297,274c-2.85684,9.44916 -3.0289,9.99973 -3.31732,10.92667c-0.22604,0.72644 -0.59668,1.92575 -0.672,2.65201c-0.09946,0.95926 -0.33316,1.7608 -0.716,2.42667c-0.43185,0.7511 -1.08682,1.62668 -1.25302,2.47382c-0.19363,0.98697 0.06241,1.74414 -0.32565,2.6355c-0.32294,0.74176 -0.71375,1.58536 -0.716,2.52133c-0.00204,0.84802 0,1.71133 0,2.60684c0,0.95718 0,1.85718 0,2.75717c0,0.79999 0.33102,1.45148 0.83334,2.16666c0.48846,0.69543 0.16666,1.63333 0.16666,2.53336c0,0.89999 0,1.79999 0,2.69998c0,0.89999 0,1.80002 0,2.70001c0,0.89999 -0.48273,1.50745 -0.91467,2.18533c-0.49445,0.77594 -0.21991,1.89536 -0.52133,2.54001c-0.33093,0.70776 -1.13086,1.44769 -1.4425,2.27466c-0.32025,0.84982 -0.12149,1.69998 -0.12149,2.65717c0,0.89551 0.06546,1.76208 -0.01068,2.62817c-0.08414,0.95706 -0.35559,1.61603 -0.63666,2.60931c-0.24313,0.85925 -0.37964,1.76239 -0.70532,2.66251c-0.27335,0.7554 -0.56479,1.53943 -0.6265,2.38449c-0.05313,0.72733 -0.0145,1.92648 -0.03152,2.60901c-0.01746,0.69891 -0.12515,2.02356 -0.34198,2.83951c-0.19461,0.73233 -0.51297,1.67267 -0.59018,2.46249c-0.08011,0.8194 -0.02832,1.88144 -0.06784,2.81134c-0.02689,0.63263 -0.29486,1.62848 -0.564,2.436c-0.33051,0.99167 -0.41333,1.82062 -0.42398,2.48532c-0.01599,0.99854 0.02563,1.81985 -0.08667,2.63068c-0.13968,1.00861 -0.57297,1.85187 -0.79318,2.88382c-0.164,0.76849 -0.12149,1.77835 -0.12149,2.32819l0,-0.828" id="svg_7" stroke-width="2" stroke="#000" fill="none"/>
  <path t="15929,15929,15929,15954,15954,15954,15965,15965,15981,15996,15996,16013,16013,16013,16029,16046,16046,16063,16063,16079,16079,16096,16113,16113,16129,16149,16150,16177,16201,16201,16209,16225,16253,16285,16305,16449" d="m299,245c0.00134,4.22934 -0.04285,5.19617 0.22134,6.2c0.21561,0.81924 0.535,1.39149 0.72598,2.39551c0.17365,0.9129 0.59378,1.72952 0.88602,2.57115c0.28546,0.82214 0.30801,1.8421 0.59198,2.62268c0.26715,0.73434 0.49258,1.5994 0.92734,2.51965c0.32245,0.68256 0.54279,1.46152 0.67267,2.44034c0.12207,0.92007 0.66031,1.63507 0.91751,2.55066c0.24423,0.86951 0.05716,1.58536 0.05716,2.52536c0,1.008 0.03284,1.92654 -0.436,2.57465c-0.56543,0.78162 -1.38202,1.04541 -2.12799,1.62534c-0.62448,0.4855 -1.26935,1.14133 -1.72,1.89066l-0.66333,0.43668l-0.55267,0.64734" id="svg_8" stroke-width="2" stroke="#000" fill="none"/>
  <path t="18046,18126,18136,18162,18162,18179,18179,18196,18196,18212,18212,18212,18229,18229,18246,18246,18262,18262,18279,18279,18296,18296,18312,18312,18329,18329,18346,18362,18362,18379,18379,18396,18412,18429,18429,18446,18446,18462,18462,18479,18479,18496,18496,18512,18512,18512,18529,18529,18529,18546,18546,18562,18562,18579,18579,18596,18596,18612,18612,18629,18697,18713,18721,18729,18746,18746,18762,18779,18779,18796,18796,18812,18812,18829,18846,18846,18862,18893,18917,18925,18929,18946,18969,18985,18985,19013,19029,19033,19046,19062,19079,19096,19112,19129,19129,19146,19146,19177,19177,19209,19229,19253,19298,19329,19365,19417,19617,19627" d="m301,253c1,-1 1.62311,-0.65598 2.28665,-0.08267c0.49243,0.42546 1.37762,0.78018 2.06067,1.43451c0.64246,0.61543 1.27802,1.2735 1.974,1.96948c0.50403,0.50403 1.00894,1.04346 1.79468,1.79333c0.62344,0.595 1.36221,1.09851 2.09467,1.48535c0.97998,0.51758 1.54578,0.8765 2.62268,1.23334c0.77356,0.25632 1.66898,0.41568 2.34131,0.77731c0.82892,0.44586 1.43219,1.01669 2.30801,1.58936c0.64307,0.42047 1.33585,1.13354 1.73868,1.90015c0.36423,0.69315 0.65689,1.56659 0.83133,2.24716c0.26886,1.04892 0.88644,1.74655 0.94733,2.65268c0.05075,0.75546 -0.07068,1.66666 0.08533,2.60132c0.13556,0.8121 0.52457,1.59906 1.0145,2.59851c0.28906,0.58972 0.74191,1.63153 0.90018,2.32101c0.23395,1.01923 0.4202,1.74603 0.7045,2.53098c0.37463,1.03439 0.73782,1.69342 1.01016,2.54684c0.25119,0.78714 0.23639,1.6188 0.50668,2.60117c0.21954,0.798 0.61691,1.78903 0.83133,2.55283c0.25681,0.91476 0.59695,1.63303 1.14734,2.362c0.54825,0.72614 1.60278,1.13522 1.71332,2.08401c0.09164,0.7865 -1.11334,0.80133 -2.01334,0.80133c-0.89999,0 -1.69998,-0.00238 -2.65717,0c-0.89999,0.00226 -1.66544,-0.01117 -2.64151,0.284c-0.78363,0.23697 -1.7139,0.67206 -2.48532,0.71466c-0.93991,0.05191 -1.94934,0.00134 -2.70532,0.00134c-0.91068,0 -1.81067,-0.00067 -2.71066,0c-0.89868,0.00067 -1.51047,0.49054 -2.13602,0.97467c-0.74579,0.57718 -1.55139,0.94031 -2.36398,1.02399c-0.89529,0.09222 -1.90259,-0.39685 -2.76401,0.03735c-0.69888,0.35226 -1.23734,0.96332 -2.13602,0.96399c-0.89999,0.00067 -1.82083,0 -2.62149,0c-0.88916,0 -1.87833,0 -2.65765,0c-0.99933,0 -1.81952,0 -2.72086,0c-0.89999,0 -1.79999,0 -2.69998,0c-0.89999,0 -1.80002,0 -2.70001,0l-0.89999,0l-0.53867,-0.01068" id="svg_9" stroke-width="2" stroke="#000" fill="none"/>
  <path t="22562,23023,23033,23049,23065,23079,23079,23096,23096,23112,23112,23129,23129,23129,23146,23146,23146,23146,23162,23162,23162,23162,23162,23179,23179,23179,23179,23196,23196,23196,23196,23212,23212,23212,23229,23229,23229,23246,23246,23246,23246,23262,23262,23262,23262,23279,23279,23279,23279,23296,23296,23312,23312,23312,23329,23329,23329,23346,23346,23362,23362,23362,23379,23379,23379,23396,23412,23429,23446,23446,23446,23462,23462,23462,23479,23479,23479,23496,23496,23512,23529,23529,23546,23562,23579,23596,23677,23687,23701,23712,23712" d="m231,293c-1,1 -1.44615,1.54758 -1.91467,2.28534c-0.43912,0.69147 0.00616,1.7272 -0.14249,2.47183c-0.18462,0.92474 -0.71835,1.55972 -0.90685,2.63882c-0.11349,0.64975 -0.022,1.65909 -0.05682,2.64566c-0.02524,0.71518 -0.12582,1.79547 -0.26451,2.47568c-0.20593,1.00998 -0.43239,1.68912 -0.71466,2.81601c-0.20847,0.83228 -0.39302,1.71658 -0.47917,2.16666c-0.17101,0.89328 -0.36339,2.16571 -0.43683,2.92932c-0.06712,0.69791 -0.09033,1.66907 -0.30533,2.87067c-0.10817,0.60461 -0.37321,1.49567 -0.49467,2.10001c-0.23946,1.19141 -0.24371,2.0842 -0.368,2.91467c-0.15131,1.01114 -0.45975,1.69492 -0.632,2.45468c-0.26929,1.18771 -0.25587,1.90283 -0.30933,2.65198c-0.05576,0.78156 -0.18147,1.98117 -0.33183,2.77417c-0.14914,0.78656 -0.33664,1.55029 -0.64284,2.63785c-0.19199,0.68192 -0.51004,1.6171 -0.71466,2.47998c-0.23592,0.99484 -0.27492,1.68652 -0.28534,2.85333c-0.00702,0.78598 0,1.608 0,2.66669c0,0.7095 0.02109,1.56241 -0.00133,2.56665c-0.01787,0.80057 -0.22536,1.79837 -0.49867,2.62085c-0.22034,0.66306 -0.43654,1.66037 -0.47917,2.45831c-0.0401,0.75067 -0.02083,1.84885 -0.02083,2.82083c0,0.90134 0,1.86667 0,2.54669c0,0.84 0,1.83865 0,2.67416c0,0.88049 0,1.77881 0,2.65784c0,0.80698 0,1.85199 0,2.70398c0,0.94269 -0.00864,1.95074 0,2.70667c0.01042,0.91086 0.42131,1.66953 0.87866,2.5105c0.40652,0.7475 1.06418,1.24835 1.12134,1.0975l0.036,-0.83331l0.248,-0.84802l0.36334,-0.86331" id="svg_10" stroke-width="2" stroke="#000" fill="none"/>
  <path t="24263,24273,24273,24273,24273,24273,24273,24287,24287,24314,24314,24331,24331,24331,24331,24348,24348,24348,24362,24379,24396,24396,24413,24413,24429,24429,24446,24446,24446,24446,24463,24463,24481,24481,24505,24505,24525,24533,24546,24562,24579,24595,24595,25076,25098,25142,25154,25169,25221,25274,25373" d="m242,314c-3.5,14.66666 -3.73015,15.60007 -3.944,16.40268c-0.33952,1.27426 -0.42094,1.79178 -0.85201,2.80798c-0.42935,1.01221 -0.91248,1.51797 -1.15582,2.45551c-0.21786,0.83936 -0.36424,1.67395 -0.75351,2.63916c-0.28224,0.6998 -0.63725,1.37234 -0.96133,2.36133c-0.26302,0.80261 -0.28008,1.71021 -0.75867,2.69736c-0.37706,0.77774 -0.48372,1.64841 -0.63182,2.39316c-0.18475,0.92908 -0.65703,1.63168 -0.85884,2.64417c-0.16455,0.82553 -0.22664,1.77155 -0.44116,2.55133c-0.22816,0.82938 -0.43761,1.366 -0.93834,2.59018c-0.26503,0.64792 -0.62506,1.65271 -0.68367,2.43631c-0.07455,0.99677 -0.02083,1.81952 -0.02083,2.72086c0,0.89999 0.00224,1.79999 0,2.69998c-0.00226,0.89999 -0.32613,1.63666 -0.716,2.39999c-0.38455,0.7529 -0.23077,1.9527 -0.98849,2.19553c-0.8194,0.2626 -1.3795,0.72049 -2.09683,1.00314l-0.89867,0.00134l-0.94284,-0.05716" id="svg_11" stroke-width="2" stroke="#000" fill="none"/>
  <path t="26482,26492,26492,26492,26492,26492,26492,26492,26506,26506,26529,26529,26545,26545,26545,26562,26562,26579,26579,26579,26595,26595,26612,26612,26629,26629,26629,26645,26645,26662,26662,26679,26725,26725,26782,26797,26946,26956" d="m250,319c-1.66667,16.5 -1.76062,17.57672 -1.82933,18.51599c-0.05946,0.81281 -0.11098,1.51154 -0.14934,2.616c-0.0275,0.79178 0.05675,2.01462 -0.10666,2.74936c-0.17906,0.80515 -0.62436,1.56741 -0.79317,2.53983c-0.13651,0.78632 -0.05882,1.57083 -0.12601,2.7735c-0.04337,0.77631 -0.28516,1.57306 -0.4955,2.32617c-0.222,0.79483 -0.42427,2.02521 -0.52533,2.66849c-0.15976,1.01703 -0.55556,1.78726 -0.808,2.81067c-0.19412,0.78702 -0.166,1.60001 -0.16667,2.60001c-0.00053,0.79999 0.00053,1.79868 0,2.564c-0.00067,0.95065 -0.24213,1.78976 -0.64734,2.53601c-0.41328,0.76111 -0.35266,1.68933 -0.35266,2.64816l0,-0.15085" id="svg_12" stroke-width="2" stroke="#000" fill="none"/>
  <path t="28089,28110,28110,28110,28110,28110,28110,28110,28110,28118,28118,28118,28131,28145,28145,28162,28179,28179,28195,28195,28212,28229,28247,28247,28262,28278,28279,28294,28312,28328,28345,28361,28381,28381,28397,28397,28411,28429,28429,28444,28461,28461,28478,28478,28494,28513,28537,28537,28569,28581,28605,28637,28693,28693,28725,28749,28777,28785,28801,28811,28829,28844,28862,28881,28938" d="m261,360c2.86383,2.87067 3.25443,3.46967 3.6535,4.12134c0.41577,0.67896 0.82666,1.37808 1.2345,2.07599c0.3978,0.68076 0.76343,1.33737 1.44534,2.46933c0.51556,0.8558 1.23621,1.58173 1.54517,2.43335c0.30972,0.8537 0.09586,1.78644 0.66315,2.39999c0.66782,0.72226 1.6019,0.8327 2.21552,1.60001c0.48215,0.60287 0.78723,1.64133 1.6535,1.86398c0.88266,0.22687 1.76398,0.03601 2.70398,0.03601c0.88535,0 1.68533,0 2.58536,0c0.89999,0 1.81607,0.15903 2.69998,-0.01068c0.94708,-0.18182 1.60001,-0.98932 2.10001,-1.48932c0.70001,-0.70001 1.30002,-1.29996 1.89999,-1.89999c0.69989,-0.69998 1.24365,-1.29965 1.60001,-2.10001c0.35803,-0.80414 0.85815,-1.35211 1.38934,-2.32535c0.36572,-0.6701 0.53207,-1.69223 0.96332,-2.47464c0.40991,-0.74368 0.64667,-1.5 0.64734,-2.40002c0.00067,-0.89999 0.00226,-1.79999 0,-2.69998c-0.00226,-0.89551 -0.38757,-1.61496 -1.02533,-2.17468c-0.5896,-0.51746 -1.25989,-1.10376 -1.89066,-1.70932c-0.57288,-0.54999 -0.96118,-1.43265 -1.69467,-1.70532c-0.81461,-0.30283 -1.41467,-0.62134 -1.81467,-1.41068l-0.48935,-0.79868" id="svg_13" stroke-width="2" stroke="#000" fill="none"/>
  <path t="32589,32610,32610,32610,32627,32627,32634,32649,32649,32669,32679,32695,32712,32712,32729,32729,32745,32762,32789,32789,32789,32829,32865,32881,32889,32897,32912,32928,32928,32945,32965,32978,33001" d="m254,338c-0.87866,6.5925 -0.92934,7.62604 -1.05267,8.3775c-0.16959,1.03323 -0.64188,1.7518 -0.862,2.73715c-0.19391,0.86804 -0.20961,1.66278 -0.65999,2.48535c-0.42728,0.7804 -0.30754,1.74747 -0.70934,2.60132c-0.28275,0.60086 -0.567,1.47223 -0.8,2.31467c-0.24368,0.88107 -0.77451,1.70212 -1.08267,2.65067c-0.21866,0.67303 -0.66551,1.32629 -0.82266,2.42267c-0.12633,0.88138 -0.64359,1.39484 -1.41066,1.836c-0.72282,0.41571 -1.3613,0.93631 -1.8215,1.6745c-0.44711,0.71716 -1.37851,0.8895 -2.2785,0.90018l-0.88933,-0.01068l-0.58984,-0.51016" id="svg_14" stroke-width="2" stroke="#000" fill="none"/>
  <path t="33869,33869,33869,33869,33869,33869,33869,33869,33869,33869,33879,33879,33879,33897,33897,33912,33912,33929,33929,33945,33945,33962,33962,33978,34021,34057,34110,34134,34142,34164,34164,34178,34201,34229,34245,34261,34277,34289,34297,34312,34328,34345,34362,34362,34378,34378,34395,34395,34412,34412,34413,34428,34428,34428,34445,34446,34446,34462,34462,34478,34478,34479,34495,34495,34495,34512,34512,34513,34529,34529,34529,34545,34545,34545,34562,34562,34562,34563,34578,34578,34595,34596,34621,34621,34692" d="m284,333c2.16666,7.33334 2.41965,8.14233 2.68268,8.96133c0.26398,0.82199 0.53046,1.63651 0.79648,2.43451c0.25803,0.77399 0.50674,1.5145 0.7515,2.2095c0.61548,1.7478 0.95215,2.58932 1.20685,3.228c0.39841,0.99899 0.53177,1.79251 0.56384,2.65198c0.03436,0.92023 0.21271,1.71716 0.49866,2.49384c0.36926,1.00302 0.51715,1.78613 0.85266,2.67352c0.26685,0.70581 0.62933,1.71075 0.64734,2.54733c0.01938,0.89978 -0.45325,2.07388 0.2215,2.6785c0.66052,0.59183 1.7785,0.12149 2.57849,0.12149c0.90002,0 1.87198,0.32809 2.67917,-0.02084c0.71399,-0.30865 1.37509,-1.02313 1.5195,-1.78049c0.16833,-0.88278 0.00134,-1.79868 0.00134,-2.69867c0,-0.89999 0,-1.8045 0,-2.8215c0,-0.69934 0,-1.6785 0,-2.46783c0,-1.04401 0,-1.87201 0,-2.75366c0,-0.729 0.00424,-1.56601 -0.00015,-2.75684c-0.0022,-0.59567 0.04364,-1.47693 -0.1665,-2.53351c-0.18845,-0.94739 -0.54697,-1.54675 -0.74933,-2.56799c-0.16364,-0.82574 -0.22665,-1.77151 -0.44119,-2.55133c-0.22815,-0.82938 -0.63065,-1.88596 -0.94281,-2.59018c-0.28882,-0.65155 -0.80853,-1.6532 -1.10001,-2.26782c-0.41211,-0.86902 -0.80942,-1.86966 -0.98935,-2.41467c-0.26968,-0.81683 -0.49701,-1.85254 -0.61066,-2.7955c-0.09012,-0.7478 -0.20374,-1.62576 -0.436,-2.62982c-0.16229,-0.70163 -0.33215,-1.39288 -0.76266,-2.57733c-0.26062,-0.71704 -0.63467,-1.60535 -0.82666,-2.39734l-0.25867,-0.85867l-0.36334,-0.86331l-0.29999,-0.89102" id="svg_15" stroke-width="2" stroke="#000" fill="none"/>
  <path t="36188,36198,36198,36198,36198,36198,36217,36217,36230,36230,36245,36262,36262,36262,36278,36278,36295,36295,36329,36337,36373,36381,36708,37183,37221,37221,37238,37253,37264,37280,37295,37295,37312,37312,37312,37328,37328,37345,37362,37362,37378,37378,37378,37395,37395,37411,37412,37412,37427,37427,37428,37445,37445,37445,37461,37478,37495,37495,37511,37512,37512,37527,37528,37545,37562,37562,37577,37577,37595,37595,37611,37627,37627,37645,37661,37752,37777,37777,37801,37821,37845,37853,37889,37921,37921,37933,37957,37973,37989,38009,38017,38027,38045,38062,38101,38101,38117,38137,38145,38162,38177,38195,38212,38212,38227,38228,38245,38261,38342" d="m331,292c-2.19968,1.32816 -2.60739,2.11398 -2.95834,3.02084c-0.17801,0.46002 -0.53888,1.34277 -0.871,2.75381c-0.18826,0.79984 -0.16849,1.70935 -0.17065,2.57266c-0.00226,0.90002 -0.14578,1.82813 -0.436,2.48868c-0.34113,0.7764 -0.8425,1.77136 -1.164,2.328c-0.56192,0.97284 -0.83591,1.65622 -1.42532,2.39999c-0.53699,0.67758 -0.58167,1.3678 -1.06,2.15067c-0.49072,0.80316 -0.91467,1.37067 -0.91467,2.28534c0,0.79999 0,1.70001 0,2.60001c0,0.89999 0,1.81067 0,2.7215c0,0.69934 0,1.6785 0,2.47849c0,0.80002 0,1.7955 0,2.71469c0,0.98532 -0.06412,1.81174 0.03601,2.69598c0.11325,1.00018 0.50012,1.77753 0.67999,2.38934c0.29074,0.98892 0.30194,1.86386 0.50534,2.8215c0.17444,0.82132 0.46338,1.67603 0.612,2.57849c0.14661,0.8902 0.16132,1.76398 0.16666,2.83334c0.00351,0.70499 0,1.505 0,2.53067c0,0.94049 0,1.80264 0,2.65683c0,0.97916 0,1.77914 0,2.57916c0,0.99548 0,1.74283 0,2.77466c0,0.94684 0,1.64618 0,2.62534c0,0.78934 0,1.83334 0,2.6955c0,0.82535 0,1.78851 0,2.65182c0,0.89551 0,1.85269 0,2.75269c0,0.89999 0.01874,1.70016 0,2.60001c-0.01801,0.86453 -0.82825,0.88733 -1.64282,1.35715c-0.68686,0.39618 -1.35718,0.94284 -2.15717,0.94284c-0.90002,0 -1.80002,0 -2.70001,0c-0.89999,0 -1.81589,0.16699 -2.69867,-0.00134c-0.75735,-0.14441 -1.24945,-0.85342 -2.10132,-1.00314c-0.92819,-0.16315 -1.46863,-0.84735 -2.40002,-0.99103c-0.8895,-0.13721 -1.79999,-0.00449 -2.69998,-0.00449c-0.89999,0 -1.80002,0 -2.70016,0c-0.78519,0 -1.72519,0.01068 -2.41583,0.08533l-0.96317,0.41467l-0.82083,0.44284l-0.89734,0.05716" id="svg_16" stroke-width="2" stroke="#000" fill="none"/>
  <path t="40565,40597,40622,40642,40642,40649,40665,40717,40733" d="m282,285c1.83334,0.16666 2.27005,0.77368 3.10001,1.22134c0.64764,0.34933 1.46399,0.80399 1.95267,1.42599l0.74866,0.35132l0.91333,0.08667" id="svg_17" stroke-width="2" stroke="#000" fill="none"/>
  <path t="41645,41685,41686,41779,41789" d="m250,285c-5.77333,2.11334 -6.54666,2.55334 -7.38933,2.97467l-0.569,0.52533" id="svg_18" stroke-width="2" stroke="#000" fill="none"/>
 </g>
 <g display="none">
  <title>muse_image</title>
  <image xlink:href="http://travel.paintedstork.com/blog/image/elephant_kaziranga.jpg" id="muse" height="480" width="352" y="0" x="144"/>
 </g>
 <g display="none">
  <title>bbox</title>
  <rect stroke="#f00" fill="none" stroke-width="3" height="123.52941" width="104.72" y="198.52941" x="271.6" id="bbox"/>
 </g>
</svg>
