<svg width="640" height="480" xmlns="http://www.w3.org/2000/svg" xmlns:svg="http://www.w3.org/2000/svg" xmlns:xlink="http://www.w3.org/1999/xlink">
 <!-- Sketchy ANNOTATION
  ImageNet ID: n02503517_8292
  URL: http://static.flickr.com/1176/1387609668_f8f8f2fc4e.jpg
  Image Width: 500
  Image Height: 334
  BBox X: 100
  BBox Y: 28
  BBox Width: 325
  BBox Height: 296
  Exposure: 2000ms
  Synset Label: elephant
  Synset ID: n02503517
  Worker Tag: elephant safari
  Sanity Check: 
   Context
   Saved
   Shading
  Comment: 
   {}
  Worker ID: AXD2DZ7U6CK35
  Assignment ID: 3CFVK00FWLLDNS5PJE5ZWJE1JBBL6U
  HIT ID: 3ABAOCJ4R84OG8808XFADHFWJH6QMH
  Work Time: 148s
  Worker Score: 0.9286
 END ANNOTATION -->
 <g display="inline">
  <title>Layer 1</title>
  <path t="0,12,12,12,12,12,12,12,12,21,21,21,33,50,50,66,67,83,83,83,100,100,100,116,117,117,132,133,133,149,150,166,167,167,182,182,199,200,200,216,217,217,217,233,233,250,250,266,266,282,282,303,327,690,700,710,731,748,748,768,776,784,801,818,834,851,868,868,884,901,901,918,934,951,968,984,1001,1001,1018,1033,1051,1068,1068,1084,1084,1101,1118,1118,1134,1151,1151,1168,1184,1184,1204,1204,1228,1310,1573,1923,1933,1952,1969,1985,1985,2002,2002,2019,2019,2035,2052,2053,2069,2069,2069,2083,2083,2100,2117,2117,2133,2133,2134,2150,2150,2150,2167,2167,2183,2184,2184,2200,2201,2201,2217,2217,2217,2233,2233,2233,2250,2251,2267,2267,2283,2283,2284,2301,2301,2301,2317,2317,2333,2333,2350,2351,2351,2351,2367,2368,2383,2383,2384,2400,2401,2401,2417,2417,2418,2433,2433,2433,2450,2450,2450,2467,2467,2483,2483,2500,2500,2501,2517,2517,2533,2533,2550,2551,2567,2567,2583,2584,2600,2617,2633,2651,2651,2667,2685,2700,2701,2717,2717,2734,2734,2750,2750,2767,2767,2767,2783,2784,2800,2800,2801,2839,2859" d="m198,133c0,3.092 0,3.756 0,4.474c0,0.754 0,1.526 0,2.298c0,0.754 0,1.472 0,3.2345c0,1.0695 -0.12436,1.79694 0.05716,2.75067c0.17711,0.93056 0.67531,1.62828 0.85751,2.64282c0.14203,0.79083 0.08533,1.80017 0.08533,2.41068c0,0.87466 0,1.87466 0,2.71016c0,0.88051 0,1.77917 0,2.67917c0,0.90001 0,1.8 0,2.69101c0,0.83699 0,1.96632 0,2.75966c0,0.89217 0,1.61067 0,2.40117c0,1.02667 0,1.92734 0,2.94817c0,0.82133 0,1.51433 0,2.64267c0,0.66266 0,1.70667 0,2.38933c0,1.19734 0,1.92633 0,2.968c0,0.78934 0.0929,1.84306 -0.036,2.62534c-0.14529,0.88187 -0.66373,1.51311 -0.87868,2.48933c-0.21268,0.96588 -0.05824,1.88579 -0.08533,2.68533c-0.02859,0.84428 -0.87146,1.35994 -1,2.2c-0.12169,0.79529 -0.48254,1.6539 -0.97467,2.38933c-0.448,0.66948 -0.62679,1.32486 -1.06133,2.17467c-0.35632,0.69684 -0.98286,1.20979 -1.31667,2.08867c-0.26793,0.70543 -0.51245,1.7605 -0.93134,2.54733c-0.34744,0.65263 -0.71375,1.49998 -0.716,2.40001c-0.00224,0.89999 -0.03891,1.76842 -0.5,2.42082c-0.47272,0.66887 -0.49933,1.49651 -0.5,2.45834c-0.00064,0.92082 -0.11111,1.86519 0.284,2.72217c0.33873,0.73466 0.56245,1.47346 0.8,2.31467c0.24953,0.88359 1.01714,1.58287 1.616,2.18399c0.59663,0.59888 1.08405,1.43504 1.384,2.10001c0.40628,0.90067 1.01335,1.5229 1.416,2.2c0.49673,0.83528 0.97263,1.64328 1.47467,2.38933c0.44974,0.6683 1.02307,1.258 1.02533,2.1315c0.00226,0.87917 0,1.77917 0,2.68051c0,0.96533 0,1.79866 0,2.63199c0,0.91934 -0.0036,1.81935 0,2.51401c0.00534,1.02737 0.23929,1.96729 0.5,2.67349c0.35823,0.97034 0.4808,1.77863 0.49867,2.57918c0.02222,0.99525 0.00133,1.74283 0.00133,2.77466c0,0.94684 0,1.64616 0,2.62534c0,0.81067 -0.01126,1.68541 0.00133,2.68401c0.0103,0.81616 0.02228,1.64627 0.28267,2.63066c0.2357,0.89105 0.59827,1.67896 0.68001,2.496c0.08714,0.871 0.036,1.87466 0.036,2.71016c0,0.88051 0,1.77901 0,2.6685c0,0.8535 0,1.88918 0,2.57468c0,0.83466 0.00053,1.836 0,2.63599c-0.00067,1.00134 0.00705,1.84308 -0.16667,2.76666c-0.14931,0.79379 -0.4613,1.59637 -0.66666,2.66669c-0.17709,0.92294 -0.16441,1.56216 -0.16667,2.56665c-0.00179,0.80002 0.04141,1.80228 -0.02083,2.62085c-0.08757,1.15173 -0.33298,1.93152 -0.47917,2.47916c-0.21771,0.81555 -0.43564,2.04877 -0.52533,2.72534c-0.12509,0.9436 -0.33728,1.7247 -0.54933,2.54932c-0.27142,1.05548 -0.4035,1.99948 -0.42084,2.67801c-0.02473,0.96835 -0.00444,1.77267 -0.0045,2.59467c-0.00009,1.03134 0.01399,1.95685 -0.08533,2.63666c-0.14738,1.00882 -0.44023,1.80966 -0.63068,2.63202c-0.22972,0.99197 -0.27866,1.87329 -0.284,2.884c-0.00423,0.79999 0,1.79999 0,2.59998c0,0.80002 0,1.80002 0,2.60001c0,1 0.01317,1.80011 -0.00017,2.79984c-0.01039,0.77954 -0.26158,1.75833 -0.57449,2.42551c-0.39217,0.83615 -0.42308,1.72198 -0.42534,2.73868c-0.00185,0.836 0,1.73599 0,2.63599c0,0.79999 -0.11526,1.71161 0.036,2.63599c0.14275,0.87231 0.50557,1.58572 1.164,2.47867c0.45483,0.61685 1.10365,1.1907 1.68533,1.77069c0.77071,0.76846 1.29715,1.32462 2.11467,1.948c0.57674,0.43976 1.40907,0.8551 2.116,1.65067c0.42725,0.4808 1.05067,1.34933 1.70934,1.88l0.69067,0.43466l0.72232,0.50131l0.64034,0.79984" id="svg_1" stroke-width="2" stroke="#000" fill="none"/>
  <path t="4320,4340,4352,4368,4385,4400,4400,4416,4433,4433,4433,4450,4450,4466,4466,4483,4483,4483,4500,4500,4500,4516,4516,4533,4533,4533,4550,4550,4550,4566,4566,4566,4583,4583,4583,4600,4600,4600,4616,4616,4616,4616,4633,4633,4633,4633,4650,4650,4650,4666,4666,4666,4666,4684,4684,4684,4700,4700,4700,4716,4716,4716,4716,4716,4734,4734,4734,4752,4752,4752,4752,4752,4766,4767,4767,4767,4767,4783,4783,4783,4783,4783,4799,4800,4800,4815,4816,4816,4816,4833,4833,4833,4833,4850,4850,4850,4850,4850,4866,4866,4866,4866,4883,4883,4883,4883,4900,4900,4900,4900,4916,4916,4916,4916,4932,4933,4933,4933,4950,4950,4950,4965,4966,4995,5003" d="m207,316c1.991,1.70001 2.1709,2.44299 2.64734,3.10983c0.47408,0.66354 0.18117,1.75241 0.40982,2.58566c0.21538,0.78485 0.79704,1.63464 0.89017,2.30984c0.13594,0.9856 0.22968,1.8764 0.66335,2.60931c0.53502,0.90421 1.03775,1.57303 1.26782,2.58551c0.13661,0.60114 0.10957,1.48526 0.12283,2.48383c0.01083,0.81616 0.02771,1.64487 0.28267,2.63202c0.23872,0.92432 0.58162,1.84683 0.65884,2.63666c0.08012,0.8194 0.05716,1.88068 0.05716,2.59467c0,0.90533 -0.01729,1.87442 0.01067,2.67801c0.02863,0.82281 0.20224,1.85587 0.41467,2.54932c0.27962,0.91278 0.50432,1.91089 0.53867,2.47202c0.05594,0.91382 0.036,1.91998 0.036,3.00598c0,0.74734 0,1.49469 0,2.58069c0,0.68134 0,1.64581 0,2.56534c0,0.90131 0,1.80133 0,2.70132c0,0.89999 -0.01666,1.80096 0.036,2.69998c0.0352,0.60101 0.24136,1.80032 0.464,2.67917c0.14308,0.56479 0.41718,1.59659 0.47917,2.5625c0.05209,0.81158 0.02083,1.82251 0.02083,2.62085c0,0.85834 0,1.73666 0,2.17084c0,1.59732 0,2.30533 0,2.98132c0,1.35199 -0.00603,2.07211 0.01067,2.832c0.01758,0.8002 0.05261,1.64243 0.21066,2.97467c0.05501,0.46365 0.20564,1.40375 0.35333,2.35333c0.07349,0.47253 0.27342,1.85742 0.34001,2.73868c0.0634,0.83905 0.0788,1.63995 0.084,2.39999c0.00729,1.06512 -0.00894,2.05185 0.03732,2.67599c0.09003,1.21436 0.24947,1.81165 0.464,2.73151c0.14835,0.63608 0.38757,1.99991 0.44733,2.73633c0.0619,0.76297 0.07405,1.55072 0.21935,2.74283c0.09769,0.80151 0.2589,1.59177 0.444,2.36401c0.18051,0.75314 0.49945,1.81174 0.77866,2.81064c0.18137,0.64886 0.36176,1.30426 0.48933,2.34668c0.13461,1.09998 0.12827,1.85501 0.20534,2.59467c0.11105,1.06577 0.34566,2.06039 0.52667,2.70935c0.18422,0.66049 0.49799,1.69388 0.68483,2.43182c0.19279,0.76141 0.3801,1.54257 0.53783,2.74283c0.10445,0.79477 0.15091,1.95966 0.21935,2.68567c0.09268,0.98322 0.31636,1.79483 0.59467,2.70532c0.24586,0.80438 0.37799,1.737 0.778,2.52634l0.53299,-0.45898" id="svg_2" stroke-width="2" stroke="#000" fill="none"/>
  <path t="6380,6424,6444,6461,6484,6508,6521,6544,6544,6560,6560,6568,6583,6600,6616,6616,6633,6633,6650,6650,6650,6666,6666,6683,6683,6683,6700,6700,6700,6716,6716,6716,6733,6733,6733,6733,6750,6750,6766,6766,6783,6783,6783,6800,6800,6800,6800,6801,6816,6816,6816,6816,6833,6833,6833,6833,6850,6850,6850,6850,6866,6866,6866,6883,6883,6883,6883,6900,6900,6900,6900,6916,6916,6916,6916,6933,6933,6933,6933,6950,6950,6951,6951,6966,6966,6966,6966,6983,6983,6983,6983,7000,7000,7000,7001,7016,7016,7016,7033,7033,7033,7050,7050,7067,7067,7067,7084,7084,7100,7100,7100,7116,7133,7133,7150,7150,7167,7183,7200,7216,7216,7320,7320,7347,7376,7395,7396,7428,7443,7459,7471,7484,7484,7501,7517,7517" d="m194,307c0,1.79999 0,2.70001 0,3.60001c0,0.89999 0.00009,1.79999 0,2.69998c-0.00009,0.80017 -0.06134,1.59439 -0.42534,2.52536c-0.27286,0.69788 -0.56424,1.65363 -0.57466,2.57465c-0.01022,0.90445 0.00008,1.76666 0,2.60001c-0.00009,0.97882 -0.03432,1.81552 -0.284,2.76935c-0.19801,0.75644 -0.48787,1.53845 -0.63068,2.54532c-0.12328,0.86914 -0.05615,1.68625 -0.09599,2.496c-0.04314,0.87677 -0.27571,1.87405 -0.48933,2.71017c-0.149,0.58322 -0.40216,1.77722 -0.464,2.67917c-0.04108,0.59909 -0.02573,1.80011 -0.0405,2.6955c-0.00963,0.5838 -0.00981,1.4368 -0.34816,2.64734c-0.18401,0.65829 -0.5677,1.65302 -0.62651,2.45715c-0.07295,0.99756 -0.02083,1.832 -0.02083,2.5715c0,0.9285 0,1.68317 0,2.52582c0,0.89868 0,1.82135 0,3.181c0,0.43503 0,1.27502 0,2.07501c0,1.48001 0.01019,2.16162 -0.01067,2.81067c-0.02995,0.93216 -0.20277,2.13776 -0.342,2.73599c-0.21013,0.90283 -0.40671,1.49356 -0.56334,2.70001c-0.11638,0.89639 -0.08833,1.50778 -0.30533,2.70016c-0.16707,0.918 -0.37689,1.53113 -0.49467,2.18515c-0.25043,1.39053 -0.25436,2.14032 -0.30933,2.88934c-0.05441,0.74167 -0.1843,1.80649 -0.40001,2.79999c-0.14166,0.6524 -0.33543,1.30368 -0.49066,2.71069c-0.08257,0.74838 -0.09348,1.52667 -0.168,2.31598c-0.1134,1.20105 -0.26137,1.99673 -0.43683,2.77783c-0.17213,0.76636 -0.47371,1.8558 -0.67917,2.53552c-0.29225,0.96686 -0.50061,1.5806 -0.90001,2.78549c-0.2003,0.60425 -0.50555,1.53415 -0.7,2.18515c-0.30867,1.03342 -0.505,1.76508 -0.67917,2.51468c-0.17314,0.74521 -0.40564,2.17773 -0.46815,2.83835c-0.08652,0.91422 -0.1924,2.00262 -0.40533,2.7045c-0.2619,0.86328 -0.52016,1.65808 -0.64734,2.45715c-0.15935,1.00119 -0.42247,1.8063 -0.80133,2.60001c-0.38503,0.80664 -0.80084,1.59894 -1.19867,2.39999c-0.39146,0.78827 -0.72386,1.51205 -1,2.5c-0.22897,0.81921 -0.62564,1.65768 -0.916,2.61465c-0.2045,0.67401 -0.68529,1.4726 -1.05867,2.28534c-0.4075,0.88702 -0.93735,1.58734 -1.02083,2.35718c-0.09654,0.89029 -0.18002,1.77881 0.01633,2.72198c0.1808,0.86844 0.90378,1.61374 1.57918,2.08484c0.73358,0.51169 1.7,0.436 2.59999,0.436c0.90001,0 1.8,0 2.60001,0l0.836,0l1.02116,0l0.74733,0" id="svg_3" stroke-width="2" stroke="#000" fill="none"/>
  <path t="8510,8520,8520,8520,8520,8520,8534,8534,8534,8534,8551,8551,8567,8567,8584,8584,8584,8601,8601,8601,8617,8617,8617,8634,8634,8651,8651,8667,8667,8667,8684,8684,8684,8701,8701,8701,8717,8717,8734,8734,8734,8751,8751,8751,8767,8767,8767,8784,8784,8801,8801,8801,8817,8817,8817,8817,8833,8834,8851,8851,8851,8867,8867,8884,8884,8884,8901,8901,8901,8917,8917,8934,8934,8934,8951,8967,8967,8984,8984,8984,9001,9001,9017,9017,9034,9034,9051,9051,9051,9051,9067,9068,9084,9084,9084,9100,9100,9100,9116,9116,9132,9133,9200,9201,9220" d="m210,323c0,8.13516 0,8.74133 0,9.87067c0,0.52518 0,1.5015 0,2.79599c0,0.76001 0,1.44 0,2.31c0,1.05402 0,1.90601 0,2.87003c0,0.61499 0.00873,1.83893 -0.01067,2.38931c-0.03062,0.8692 -0.20078,2.0661 -0.342,2.65952c-0.20753,0.87207 -0.52251,1.93292 -0.61134,2.8685c-0.05977,0.62946 -0.03593,1.63599 -0.036,2.436c-0.00009,1 0.06647,1.81668 -0.16667,2.79999c-0.19707,0.83121 -0.55338,1.45093 -0.93333,2.42133c-0.31288,0.7991 -0.58473,1.63205 -0.99983,2.65717c-0.2793,0.68973 -0.66383,1.51004 -0.84749,2.52151c-0.14415,0.79391 -0.27936,1.59836 -0.55267,2.42084c-0.22034,0.66306 -0.41812,1.66428 -0.5,2.5c-0.08624,0.88028 -0.26578,2.08191 -0.436,2.65784c-0.24106,0.81558 -0.78375,1.841 -1.164,2.47198c-0.52795,0.87607 -0.80811,1.61847 -1.09999,2.45834c-0.30862,0.88803 -0.59575,1.78796 -0.8,2.37015c-0.2939,0.83768 -0.72058,1.82669 -0.97917,2.5c-0.38739,1.0087 -0.44344,1.82968 -0.60483,2.62085c-0.2072,1.01572 -0.62273,1.79889 -1.01601,2.60016c-0.40227,0.81958 -0.72444,1.47574 -1.09866,2.48383c-0.30029,0.80893 -0.49925,1.35272 -0.71733,2.63068c-0.11267,0.66025 -0.22537,1.69409 -0.50934,2.47467c-0.26714,0.73434 -0.51732,1.7283 -0.79616,2.53217c-0.2493,0.71869 -0.7785,1.6785 -1.1785,2.47849c-0.3,0.60001 -0.82831,1.58524 -1.164,2.36401c-0.3457,0.802 -0.44032,1.60648 -0.79767,2.50217c-0.25166,0.63083 -0.8065,1.66644 -1.121,2.30051c-0.33359,0.67255 -0.84444,1.65564 -1.18401,2.53333c-0.3058,0.79041 -0.549,1.8241 -0.85416,2.54166c-0.27527,0.64728 -0.67998,1.64203 -0.97917,2.45834c-0.20053,0.54715 -0.60971,1.57416 -0.97917,2.45834c-0.36394,0.87097 -0.54616,1.66699 -0.80482,2.52567l-0.29066,0.69064l-0.36818,1.06818" id="svg_4" stroke-width="2" stroke="#000" fill="none"/>
  <path t="11060,11080,11087,11104,11116,11116,11133,11150,11150,11150,11171,11171,11171,11183,11183,11200,11200,11200,11217,11217,11234,11234,11251,11251,11303,11311" d="m280,318c0.16,-0.61066 0.62619,-1.38043 1.28534,-1.91599c0.67526,-0.54865 1.4158,-0.78738 2.12534,-1.49469c0.75717,-0.75479 1.23093,-1.25903 1.79999,-1.76398c0.76898,-0.68234 1.58322,-1.20065 2.18933,-1.52084c0.99036,-0.52316 1.60077,-0.80301 2.60001,-1.3045c0.59595,-0.2991 1.38779,-0.63763 2.24734,-1.3045c0.53601,-0.41586 1.23666,-1.1795 1.75266,-1.6955c0.83334,-0.83334 1.36401,-1.35333 2.19867,-1.91333l0.71466,0.19867" id="svg_5" stroke-width="2" stroke="#000" fill="none"/>
  <path t="12286,12311,12312,12324,12324,12335,12352,12366,12366,12383,12383,12400,12400,12400,12416,12416,12416,12416,12433,12433,12433,12450,12450,12450,12466,12466,12466,12483,12483,12483,12500,12500,12500,12500,12500,12516,12516,12516,12516,12533,12533,12533,12550,12550,12566,12566,12566,12583,12583,12583,12583,12600,12600,12616,12616,12616,12616,12633,12633,12649,12649,12649,12649,12666,12666,12666,12666,12683,12683,12699,12699,12699,12699,12716,12716,12716,12716,12733,12733,12749,12749,12749,12766,12766,12766,12783,12783,12799,12799,12799,12816,12816,12816,12833,12833,12849,12849,12866,12866,12883,12883,12883,12899,12916,12933,12933,12949,12949,12966,12983,12999,13016,13039,13059,13103,13119,13127,13135,13149,13149,13166,13166,13183,13183,13227,13227" d="m280,318c0,5.14267 0,5.91666 0,6.97849c0,0.82019 -0.11438,1.733 0.03601,2.6575c0.14206,0.87332 0.62518,1.55215 0.8425,2.56403c0.16931,0.78833 0.09933,1.80057 0.13217,2.62131c0.02777,0.69403 0.20734,1.82217 0.34198,2.48853c0.1438,0.71173 0.34009,1.43536 0.52585,2.8685c0.08524,0.65762 0.11615,1.57495 0.12149,2.655c0.00354,0.71399 -0.00626,1.61935 0.00015,2.58798c0.00534,0.80408 -0.00424,1.63763 0.22119,2.65768c0.16086,0.72787 0.46698,1.48074 0.612,2.42099c0.11551,0.74899 0.13733,1.58691 0.19199,2.45999c0.05469,0.87363 0.18088,2.09991 0.32733,2.82568c0.20129,0.99738 0.4119,1.60464 0.56201,2.81299c0.07306,0.5882 0.08307,1.44418 0.08533,2.716c0.00116,0.66449 0,1.68533 0,2.50665c0,0.69302 0,1.82135 0,2.48401c0,1.04401 0,1.72668 0,2.92532c0,0.7485 0,1.936 0,2.72202c0,0.54733 0,1.36334 0,2.59915c0,0.7095 0,1.78152 0,2.75803c0,0.711 0,1.44199 0,2.5235c0,1.005 0,1.625 0,2.47998c0,1.004 0,1.948 0,3.02002c0,0.63599 0,1.328 0,2.41849c0,1.08151 0,1.76151 0,2.70651c0,0.85498 0,1.85767 0,2.54166c0,1.16666 0,1.95267 0,2.77466c0,1.05869 0,1.76819 0,2.62085c0,1.00583 0,1.84048 0,2.77115c0,0.78601 0.00607,1.60803 0,2.66669c-0.00534,0.93073 -0.04337,1.77692 -0.284,2.56665c-0.24811,0.81424 -0.63651,1.79556 -0.69516,2.57916c-0.07465,0.9971 -0.052,1.83722 -0.30484,2.78885c-0.19598,0.73761 -0.53134,1.44617 -0.67999,2.56c-0.11545,0.86514 -0.34488,1.72305 -0.68335,2.42917c-0.40762,0.85037 -0.3504,1.59015 -0.35266,2.60684c-0.00208,0.93597 0.15933,1.93387 -0.35266,2.58331c-0.48453,0.61462 -0.89078,1.384 -0.64285,2.34818c0.18359,0.71396 1.2955,0.7045 2.19684,0.7045c0.96533,0 1.62402,0 2.63202,0c0.79199,0 1.82382,0 2.57117,0l0.99283,-0.00134l0.73065,-0.03467" id="svg_6" stroke-width="2" stroke="#000" fill="none"/>
  <path t="14045,14055,14055,14055,14055,14055,14072,14072,14085,14085,14101,14116,14116,14116,14133,14133,14133,14149,14149,14149,14149,14166,14166,14166,14166,14183,14183,14183,14199,14199,14199,14199,14216,14216,14216,14233,14233,14233,14249,14249,14249,14249,14266,14266,14266,14283,14283,14283,14283,14283,14299,14299,14299,14299,14316,14316,14316,14333,14333,14333,14333,14349,14349,14349,14366,14366,14366,14366,14383,14383,14383,14399,14399,14399,14399,14416,14416,14416,14416,14433,14433,14449,14449,14449,14449,14466,14466,14483,14483,14499,14499,14499,14516,14516,14533,14533,14549,14549,14549,14566,14566,14566,14583,14583,14599,14599,14599,14616,14616,14633,14649,14649,14666,14666,14683,14683,14699,14699,14716,14733,14749,14749,14771" d="m295,307c1.83334,12.16666 2.10822,13.66107 2.23834,14.26666c0.21167,0.98517 0.45007,1.7168 0.64017,2.81168c0.11639,0.67035 0.11322,1.75504 0.12149,2.51099c0.01044,0.95251 0.16574,1.74426 0.42532,2.672c0.22125,0.79071 0.46317,1.81622 0.54935,2.52402c0.08807,0.72333 0.23831,1.85928 0.38251,2.52451c0.15457,0.71304 0.43765,1.80936 0.74265,2.86865c0.19162,0.66553 0.41904,1.29138 0.61484,2.22018c0.25146,1.19293 0.26297,1.81161 0.28085,2.75848c0.01904,1.00931 -0.01239,1.72598 0.02533,2.82199c0.02451,0.71152 0.11499,1.69507 0.33182,2.51102c0.19461,0.73233 0.55054,1.92911 0.61133,2.74582c0.04269,0.57364 0.03601,1.76401 0.03601,2.664c0,0.60001 0,1.5 0,2.70132c0,0.60934 0,1.55585 0,2.56534c0,0.71869 0,1.46933 0,2.24402c0,0.79065 0,1.98917 0,3.17865c0,0.77469 0,1.52533 0,2.58917c0,0.66434 0,1.61084 0,2.8215c0,0.60001 0,1.5 0,2.39999c0,0.89999 0,1.80002 0,2.70001c0,0.89999 0,1.79999 0,2.69998c0,0.60001 0,1.80133 0,2.72086c0,0.63632 0,1.64581 0,2.73181c0,0.74734 0,1.49469 0,2.58069c0,1.005 0,1.625 0,2.47998c0,1.004 0,1.948 0,3.02002c0,0.63333 0,1.64581 0,2.30417c0,1.09814 0.01944,1.96674 -0.00134,2.84915c-0.01791,0.76059 -0.21222,1.93652 -0.35132,2.46152c-0.2103,0.7937 -0.47699,1.91998 -0.70001,2.79999c-0.19012,0.75015 -0.59579,1.48184 -0.82599,2.67316c-0.10165,0.52603 -0.07382,1.36563 -0.28799,2.41202c-0.1937,0.94632 -0.54419,1.5473 -0.74933,2.56665c-0.1593,0.7916 -0.27408,1.8125 -0.60486,2.60001c-0.2565,0.61066 -0.81638,1.57748 -1.12198,2.34283c-0.35391,0.88635 -0.52383,1.82382 -0.85718,2.65717c-0.33334,0.83334 -0.46332,1.64661 -0.78534,2.48401c-0.27402,0.71255 -0.89642,1.64688 -1.41467,2.21149c-0.66653,0.7261 -1.17865,1.40451 -1.46664,2.3045l-0.444,0.60001l-0.68484,0.69998" id="svg_7" stroke-width="2" stroke="#000" fill="none"/>
  <path t="16466,16756,16766,16788,16801,16819,16835,16835,16849,16849,16866,16866,16866,16883,16899,16899,16899,16916,16916,16916,16933,16933,16949,16966,16966,16983,16983,16983,16999,16999,16999,17016,17016,17033,17033,17033,17049,17049,17049,17066,17066,17083,17083,17083,17084,17099,17099,17099,17116,17116,17133,17133,17133,17133,17149,17149,17149,17166,17166,17183,17183,17183,17199,17199,17199,17216,17216,17216,17233,17233,17233,17233,17249,17249,17249,17266,17266,17266,17283,17283,17283,17283,17299,17299,17299,17300,17300,17316,17316,17316,17316,17333,17333,17349,17349,17349,17366,17366,17367,17383,17383,17383,17383,17399,17399,17399,17416,17416,17416,17433,17433,17449,17449,17449,17449,17466,17466,17466,17466,17483,17483,17483,17499,17499,17499,17499,17499,17516,17516,17533,17533,17533,17549,17549,17549,17566,17603,17611" d="m279,328c0,1.79999 0,2.70001 0,3.60001c0,0.89999 0,1.79999 0,2.60266c0,0.76801 0,1.80716 0,2.58267c0,1.048 0,1.75299 0,2.728c0,0.87201 0,1.82001 0,2.74799c0,0.7905 0,1.81717 0,2.50269c0,0.83466 0,1.83148 0,2.75067c0,0.85999 0.00006,1.80682 0,2.69598c-0.00009,0.9895 0.01218,1.81421 -0.08533,2.47467c-0.14868,1.00732 -0.44034,1.80829 -0.63068,2.63068c-0.22989,0.99329 -0.27866,1.9093 -0.284,2.85065c-0.00446,0.78601 0,1.608 0,2.66669c0,0.7095 0.01941,1.56238 -0.00134,2.56934c-0.01791,0.86984 -0.15787,1.9321 -0.28265,2.56531c-0.20386,1.03448 -0.39072,1.72183 -0.54935,2.69867c-0.13245,0.81561 -0.1441,1.72461 -0.168,2.73468c-0.01974,0.83514 -0.1561,1.76755 -0.35132,2.55582c-0.21204,0.85605 -0.41821,1.43637 -0.56201,2.64151c-0.10461,0.87662 -0.08466,1.716 -0.08533,2.716c-0.00046,0.66449 0,1.68533 0,2.496c0,0.87466 0.01944,1.8754 -0.02084,2.71017c-0.04254,0.88184 -0.19101,1.78134 -0.40448,2.67917c-0.14301,0.60153 -0.43533,1.79709 -0.51752,2.69998c-0.05447,0.59863 -0.05649,1.5 -0.05716,2.70001c-0.00034,0.60001 0,1.5 0,2.69998c0,0.60001 0,1.5 0,2.70001c0,0.60266 0,1.54166 0,2.21432c0,1.11902 0,1.95367 0,2.83633c0,0.89868 0,1.78134 0,2.616c0,1.1145 0,1.77084 0,2.64536c0,1.00266 0,1.87732 0,2.88815c0,0.82068 0,1.48517 0,2.48651c0,0.85498 0,1.79999 0,2.8345c0,0.72699 0,1.45798 0,2.50949c0,0.92648 0,1.94849 0,2.65201c0,1.00131 0,1.81732 0,2.63333c0,1.00131 0,1.94531 0,3.01733c0,0.63599 0,1.328 0,2.41849c0,1.08151 0,1.76285 0,2.72733c0,0.61633 -0.013,1.82126 0.01068,2.73151c0.0163,0.62564 0.14587,1.95773 0.27332,2.672c0.13095,0.73392 0.30365,1.45346 0.43201,2.14801c0.22107,1.19604 0.27866,2.18396 0.284,3.13599c0.00439,0.78601 -0.00336,1.608 0,2.66669c0.00226,0.70499 0.08533,1.67999 0.42532,2.53067l0.45319,0.73566l0.12149,0.27899" id="svg_8" stroke-width="2" stroke="#000" fill="none"/>
  <path t="18500,18527,18527,18527,18535,18549,18566,18566,18583,18583,18599,18599,18616,18616,18616,18633,18633,18633,18649,18649,18666,18666,18666,18683,18683,18699,18699,18723,18723,18723,18759,18816" d="m222,422c1.757,6.59235 1.9614,7.60739 1.99733,8.508c0.03871,0.9704 -0.10844,1.83633 0.28667,2.69333c0.33873,0.73471 0.65125,1.64136 0.8,2.39999c0.15843,0.80795 0.56558,1.57892 0.79466,2.59885c0.18179,0.80945 0.16457,1.49426 0.40668,2.48383c0.20184,0.82498 0.49399,1.64108 0.91466,2.63068c0.28522,0.67096 0.8214,1.67526 1.18933,2.48532c0.26936,0.59305 0.50363,1.60349 0.636,2.40002c0.16705,1.00525 0.55446,1.77686 0.808,2.79999c0.19244,0.77658 0.16534,1.51468 0.16667,2.47916l0,0.89951" id="svg_9" stroke-width="2" stroke="#000" fill="none"/>
  <path t="22579,22615,22631,22647,22652,22666,22682,22682,22699,22699,22716,22716,22716,22732,22732,22732,22749,22767,22803,22955,22975,22999,23015,23027,23035,23035,23049,23066,23082,23082,23100,23100,23100,23100,23116,23116,23116,23132,23132,23149,23149,23149,23149,23166,23166,23166,23182,23182,23199,23199,23216,23216,23216,23232,23232,23249,23249,23267,23267,23282,23283,23283,23299,23299,23316,23316,23316,23333,23333,23333,23349,23349,23367,23367,23384,23385,23400,23400,23400,23416,23416,23433,23433,23433,23449,23449,23449,23466,23466,23483,23499,23499,23516,23516,23533,23549,23550,23567,23567,23586,23603,23627,23635,23865,23927,23959,23995,24019,24019,24038,24055,24055,24071,24082,24082,24104,24117,24118,24136,24136,24153,24153,24167,24167,24167,24185,24185,24186,24203,24203,24203,24219,24219,24219,24234,24235,24235,24251,24251,24252,24268,24268,24269,24284,24284,24284,24301,24301,24301,24302,24318,24318,24319,24319,24334,24335,24351,24352,24352,24352,24368,24368,24368,24368,24384,24384,24384,24385,24401,24401,24401,24418,24419,24419,24419,24419,24434,24435,24435,24451,24452,24452,24469,24469,24469,24484,24485,24485,24501,24501,24502,24518,24519,24519,24534,24535,24535,24551,24552,24566,24567,24567,24585,24585,24601,24602,24616,24634,24655,24655,24679,24715,24722,24774,25012,25039,25067,25083,25083,25099,25119,25132,25132,25149,25166,25182,25182,25199,25199,25216,25216,25216,25232,25232,25249,25249,25266,25266,25266,25282,25282,25299,25299,25299,25316,25316,25316,25332,25332,25349,25349,25349,25366,25382,25382,25399,25399,25416,25416,25432,25432,25449,25449,25466,25466,25482,25482,25482,25502,25502,25502,25518,25518,25535,25550,25550,25566,25566,25582,25582,25599,25616,25616,25632,25649,25649,25666,25682,25699,25699,25727,25743,25767,25819,25879,25938,25948,25975,26007,26035,26043,26043,26075,26087,26104,26116,26136,26151,26152,26169,26169,26185,26185,26202,26202,26202,26218,26218,26235,26235,26251,26251,26269,26269,26285,26285,26302,26302,26319,26319,26319,26335,26335,26335,26352,26352,26369,26369,26385,26385,26401,26402,26419,26435,26435,26452,26452,26468,26469,26484,26485,26502,26502,26519,26519,26535,26535,26551,26552,26569,26569,26585,26585,26601,26602,26619,26619,26619,26635,26652,26652,26669,26684,26685,26702,26702,26719,26735,26752,26769,26769,26787,26787,26830,26838,26867,26883,26899,26906,26927" d="m210,114c0,-1.8 -0.00195,-2.61961 0.42534,-3.4c0.45038,-0.82256 0.54076,-1.70064 0.57466,-2.6c0.02859,-0.75878 0.36472,-1.65843 0.7045,-2.46167c0.40436,-0.95589 0.70103,-1.75877 0.8595,-2.313c0.30031,-1.05031 0.41681,-1.97809 0.43468,-2.73867c0.02267,-0.96556 0.002,-1.88667 0.00133,-2.78667c-0.00067,-0.89867 -0.35135,-1.6714 -1.28534,-1.7c-0.91423,-0.02799 -1.81467,0 -2.71466,0c-0.8,0 -1.7,0 -2.52083,0c-0.96718,0 -1.76184,0 -2.8125,0c-0.63467,0 -1.66667,0 -2.36134,0c-0.972,0 -2.03333,0 -2.69633,0c-1.01166,0 -1.881,0 -2.94232,0c-0.63467,0 -1.66667,0 -2.36134,0c-0.972,0 -2.03333,0 -2.69633,0c-1.00899,0 -1.80899,0 -2.80916,0c-0.82066,0 -1.96651,0 -2.748,0c-0.7905,0 -1.71851,0 -2.53101,0c-1.00616,0 -1.73149,0 -2.72083,0c-0.8,0 -1.8,0 -2.60001,0c-0.8,0 -1.80853,0.04101 -2.65717,-0.05717c-0.97156,-0.1124 -1.76357,-0.38593 -2.59016,-0.59016c-1.02596,-0.2535 -1.72569,-0.27258 -2.55133,-0.43667c-1.01688,-0.2021 -1.78276,-0.64618 -2.8,-0.83067c-0.75662,-0.13722 -1.71867,-0.08463 -2.57066,-0.08533c-0.8,-0.00067 -1.5576,0.03233 -2.34801,-0.08533c-1.24065,-0.1847 -1.85258,-0.56354 -2.88283,-0.79333c-0.80969,-0.1806 -1.49174,-0.1749 -2.48384,-0.40533c-0.82222,-0.19096 -1.62273,-0.48611 -2.62933,-0.63067c-0.83475,-0.11988 -1.93407,-0.07384 -2.85333,-0.08533c-0.83353,-0.01042 -1.65833,-0.1825 -2.42267,-0.57467c-0.81281,-0.41703 -1.72917,-0.65365 -2.41066,-0.92533c-0.97456,-0.38853 -1.83325,-0.30305 -2.7,-0.55717c-0.87746,-0.25725 -1.61444,-0.78124 -2.39984,-0.943c-0.84634,-0.17431 -1.36554,-1.22033 -2.19566,-0.99533c-0.77663,0.21049 -0.96794,1.21504 -1.50583,1.7955c-0.65219,0.70383 -1.42017,1.42149 -1.90317,1.9045c-0.6955,0.6955 -1.3224,1.48913 -1.9955,1.93833c-0.73596,0.49117 -1.50102,0.92585 -1.90001,1.5425c-0.60152,0.92967 -1.13528,1.54446 -1.59999,2.3c-0.43394,0.70555 -0.79065,1.51947 -1.21066,2.32533c-0.33902,0.65047 -0.90481,1.61423 -1.242,2.1375c-0.51314,0.79629 -1.17443,1.7235 -1.722,2.40117c-0.50364,0.62331 -1.115,1.41612 -1.45067,1.91199c-0.53103,0.78447 -1.00217,1.57542 -1.54933,2.50267c-0.37403,0.63386 -0.95,1.43343 -1.45067,2.04667c-0.52551,0.64365 -1.16995,1.60264 -1.4175,2.142c-0.3721,0.81073 -0.75555,1.88135 -1.05717,2.59917c-0.2984,0.71017 -0.70306,1.78054 -0.90133,2.41617c-0.21262,0.68165 -0.50075,1.75175 -0.96533,2.69866c-0.28454,0.57995 -0.84598,1.28167 -1.34933,1.93067c-0.61433,0.7921 -1.09341,1.63007 -1.484,2.56933c-0.3259,0.78369 -0.49238,1.37994 -0.97066,2.23467c-0.52023,0.92969 -1.03349,1.50354 -1.55017,2.09866c-0.52528,0.60503 -1.32323,1.49156 -1.7925,2.09866c-0.45044,0.58275 -1.0396,1.43521 -1.52,2.23466c-0.42712,0.71078 -0.79323,1.42738 -1.33333,2.5c-0.3194,0.63431 -0.65975,1.32256 -1.04401,2.01601c-0.38123,0.68797 -0.98283,1.61266 -1.57866,2.38933c-0.54772,0.71397 -1.07632,1.412 -1.45351,2.214c-0.37965,0.80724 -0.745,1.88593 -1.05717,2.59016c-0.28883,0.65157 -0.78291,1.66641 -1.11066,2.25717c-0.45129,0.81342 -1.08401,1.59259 -1.58933,2.22083c-0.52731,0.65558 -1.00433,1.38863 -1.364,2.2045c-0.35754,0.81102 -0.72542,1.85791 -1.036,2.53868c-0.29018,0.63605 -0.8,1.63599 -1.1,2.23599c-0.5,1 -0.86606,1.80911 -1.3,2.51466c-0.4647,0.75555 -1.04259,1.34351 -1.4955,2.138c-0.38464,0.67473 -0.57841,1.75587 -0.98849,2.54733c-0.44646,0.86166 -0.35103,1.711 -0.77317,2.44284c-0.46788,0.81113 -0.62105,1.49506 -1.1095,2.19049c-0.50232,0.71519 -0.83334,1.36667 -0.83334,2.26668c0,0.89999 -0.36436,1.81075 0.05717,2.54283c0.46724,0.81149 0.76928,1.39542 1.02817,2.15717c0.30177,0.88791 0.82147,1.63182 1.13616,2.52133c0.24739,0.69928 0.74382,1.5406 1.29934,2.17867c0.6095,0.70004 1.3045,1.32533 1.8265,1.84734c0.76733,0.76733 1.26086,1.22374 1.95716,1.96167c0.4656,0.49344 1.1804,1.45837 1.52084,1.94167c0.52338,0.74301 1.16651,1.59598 1.65383,2.2285c0.63878,0.8291 1.03481,1.56642 1.40617,2.20749c0.42815,0.73912 0.92581,1.53773 1.46201,2.30351c0.6151,0.87846 1.16776,1.46321 1.65266,2.1765c0.43324,0.63728 0.74033,1.39488 1.4,2.19733c0.64502,0.78464 1.17545,1.26161 1.9045,1.936c0.56261,0.52043 1.36238,0.97627 2.04284,1.39999c0.92032,0.57309 1.40646,1.05605 2.13667,1.784c0.5168,0.51521 1.32378,1.37674 1.89066,1.88c0.75961,0.67436 1.47636,1.02312 2.02984,1.39317c1.02377,0.68449 1.57922,1.23813 2.11016,1.75883c0.73454,0.72038 1.24077,1.33011 2.00617,1.98399c0.76063,0.64981 1.51021,0.95157 2.3125,1.5c0.67428,0.46092 1.26666,1.10001 1.86666,1.7c0.7,0.7 1.22712,1.38931 1.9,1.864c0.73481,0.51837 1.70966,0.78252 2.2,1.23734c0.7144,0.66264 1.57285,0.99405 2.39999,1.48401c0.68088,0.40331 1.18582,1.12613 1.99867,1.63066c0.73637,0.45706 1.27693,0.9787 2.10133,1.43666c0.74229,0.41235 1.47954,0.76639 2.3,1.222c0.78195,0.43422 1.53456,0.81956 2.39999,1.25867c0.67538,0.34268 1.31114,0.93025 1.94733,1.51933c0.57559,0.53299 0.93558,1.23337 1.40984,1.94734c0.52586,0.79166 1.27692,1.31239 1.74284,2.02133c0.43266,0.65833 1.00615,1.65266 1.39999,2.17867c0.60979,0.81439 0.99321,1.53911 1.38533,2.10133c0.71841,1.03008 1.28665,1.56532 1.948,2.23199c0.52853,0.53279 1.30397,1.23433 1.76668,1.80267c0.65584,0.80557 0.95973,1.56516 1.5,2.34267c0.46645,0.67128 1.08932,1.51402 1.42082,2.04216c0.62358,0.9935 1.12634,1.58855 1.68983,2.17917c0.7758,0.81314 1.188,1.19867 1.76851,1.77917c0.85416,0.85416 1.38483,1.38483 2.12083,2.12083c0.5,0.5 1.1725,1.23978 1.78532,1.7c0.73235,0.54997 1.55217,0.78407 2.353,1.5c0.68492,0.6123 0.73071,1.49055 1.12334,2.35266c0.33224,0.72952 1.11226,1.4767 1.63834,1.82651c0.81831,0.54411 1.5766,1.13411 2.20134,1.72084c0.54497,0.51181 1.46243,1.0813 2.146,1.5c0.78194,0.47897 1.39565,1.01443 2.13666,1.50131c0.68202,0.44812 1.48691,1.1257 1.99518,1.77783c0.61194,0.78516 1.30521,0.99973 2.17799,1.38251c0.77626,0.34045 1.54442,0.95743 2.13217,1.453c0.72751,0.61343 1.62032,1.02945 2.41066,1.46933c0.64603,0.35956 1.47876,0.71182 2.284,1.284c0.54858,0.3898 1.30699,1.23312 2.10535,1.41068c0.88989,0.19791 1.74829,0.34726 2.28949,1.12115c0.49452,0.70715 1.36646,0.76666 2.23584,1.18552c0.64529,0.31088 1.32747,1.08054 1.76399,1.81448c0.46553,0.78271 1.32001,0.90152 2.03734,1.18417l0.50934,0.69067l0.57466,0.52533" id="svg_10" stroke-width="2" stroke="#000" fill="none"/>
  <path t="32005,32015,32015,32015,32035,32035,32042,32067,32067,32074,32082,32099,32115,32132,32132,32149,32149,32165,32165,32182,32182,32199,32215,32215,32238,32267,32283,32299,32311,32311,32327,32334,32351,32365,32382,32382,32399,32399,32415,32415,32416,32432,32432,32449,32449,32449,32449,32465,32465,32465,32482,32482,32482,32499,32499,32499,32515,32516,32516,32516,32532,32532,32532,32532,32549,32549,32549,32565,32565,32582,32582,32599,32599,32599,32599,32615,32615,32615,32615,32632,32632,32632,32649,32650,32665,32665,32665,32682,32682,32699,32699,32699,32715,32715,32715,32732,32749,32749,32749,32765,32765,32782,32782,32799,32799,32815,32815,32847,32847,32866,32899,32911,32918,32934,32951,32951,32965,32982,33001,33001,33015,33015,33056,33064" d="m293,204c-0.00134,2.052 0.00882,3.00237 -0.05716,3.642c-0.11343,1.09993 -0.54355,1.91487 -0.922,2.83717c-0.32764,0.79851 -0.7442,1.40547 -0.99551,2.33549c-0.25415,0.94052 -0.96445,1.40056 -1.02533,2.28534c-0.0618,0.89787 -0.03104,1.66617 -0.35266,2.55716c-0.27277,0.7556 -0.5162,1.74973 -0.67267,2.50684c-0.1994,0.96484 -0.82104,1.60286 -0.96399,2.472c-0.16501,1.00323 -0.01068,1.71133 -0.01068,2.728c0,0.936 0,1.836 0,2.73601c0,0.89999 0,1.7 0,2.59999c0,0.90001 0,1.8 0,2.7c0,0.90901 0,1.57068 0,2.60983c0,0.77551 0,1.8235 0,2.75418c0,0.63148 -0.03455,1.64082 0.03601,2.508c0.0867,1.06581 0.24661,1.69629 0.46399,2.728c0.14642,0.69487 0.34488,1.66516 0.44733,2.49017c0.11874,0.95642 0.25217,1.93736 0.48868,2.73515c0.24579,0.82907 0.56644,1.60698 0.96399,2.56001c0.30188,0.72371 0.61166,1.54448 0.89999,2.52449c0.20847,0.70857 0.39166,1.44435 0.70001,2.52351c0.19473,0.68152 0.48987,1.6286 0.70001,2.20499c0.38171,1.047 0.79733,1.94211 1.09998,2.56033c0.49121,1.00345 0.84393,1.57962 1.07867,2.6015c0.18573,0.80853 0.27649,1.96927 0.40668,2.48651c0.21646,0.85999 0.52252,1.79813 0.81467,2.8345c0.20456,0.72571 0.38882,1.46121 0.60001,2.16898c0.37982,1.27298 0.72305,2.02591 0.94281,2.70084c0.32364,0.99396 0.31592,1.8244 0.57852,2.80902c0.1633,0.6123 0.54688,1.38937 0.72598,2.40448c0.14926,0.84607 0.25214,1.82303 0.48868,2.62085c0.24579,0.82907 0.66406,1.85287 0.95334,2.52798c0.32559,0.75989 0.59265,1.6315 0.61066,2.58002c0.01761,0.92783 0,1.71848 0,2.745c0,0.67499 -0.00061,1.755 0,2.547c0.00067,0.85999 -0.00787,1.7963 0.284,2.77335c0.17728,0.59344 0.65381,1.57327 0.71466,2.39999c0.06616,0.8989 0.14734,1.92407 -0.43466,2.59067c-0.60956,0.69818 -1.3779,1.03455 -1.84933,1.81067c-0.41083,0.67636 -1.08835,1.23154 -1.91467,1.71732c-0.77731,0.45697 -1.27914,1.10352 -1.63333,1.91602l-0.21933,0.86215l-0.44733,0.76285l-0.49551,-0.16736" id="svg_11" stroke-width="2" stroke="#000" fill="none"/>
  <path t="34852,35119,35119,35144,35167,35184,35199,35199,35215,35232,35249,35265,35282,35300,35320,35351,35367,35420,35502,35539" d="m298,214c0.87866,-1.22133 1.39169,-1.90044 1.97467,-2.42534c0.58917,-0.53049 1.33914,-0.91708 2.02533,-1.57466c0.61264,-0.58711 1.23297,-1.39638 2,-1.83333c0.77988,-0.44426 1.29623,-0.94681 1.94733,-1.51933c0.63919,-0.56206 0.99408,-1.40604 1.75717,-1.64284c0.82178,-0.25502 1.37952,-0.7205 2.17416,-1.22583l0.40533,-0.69467" id="svg_12" stroke-width="2" stroke="#000" fill="none"/>
  <path t="36222,36244,36260,36280,36304,36328,36350,36485,36508,36528,36552,36564,36596,36632,36640,36656,36671,36682,36716,36760,36783,36792,36812,36852,36935" d="m302,210c-3.77585,3.18117 -4.38507,3.90788 -4.97467,4.42534c-0.63776,0.55971 -2.08383,0.6949 -1.90384,1.57466c0.11685,0.57118 1.47852,0 2.37851,0c0.89999,0 1.79999,0.00009 2.70001,0c0.89981,-0.00009 1.58011,-0.2962 2.15265,-0.94733c0.56207,-0.63921 1.42215,-0.98927 1.64285,-1.75717c0.24738,-0.86067 0.00449,-1.7955 0.01517,-2.68483l0.48932,-0.61067l0.48932,-0.61067l0.04669,-0.95332" id="svg_13" stroke-width="2" stroke="#000" fill="none"/>
  <path t="38468,38575,38599,38607,38615,38636,38651,38651,38665,38682,38697,38697,38715,38732,38732,38748,38748,38768,38782,38782,38798,38798,38815,38815,38834,38848,38848,38848,38868,38868,38884,38884,38898,38914,38915,38932,38932,38932,38932,38947,38948,38948,38964,38964,38981,38982,39003,39003,39014,39015,39108,39139,39160,39191,39219,39320,39802,39812,39834,39848,39865,39882,39882,39898,39898,39898,39915,39915,39932,39932,39932,39948,39948,39948,39965,39965,39982,39982,39998,39998,40015,40032,40032,40032,40048,40048,40065,40082,40082,40098,40098,40115,40135,40135,40148,40165,40165,40182,40455,40465,40484,40500,40515,40532,40548,40548,40565,40582,40598,40615,40632,40648,40648,40665,40699,40815,40847,40863,40883,40883,40887,40901,40923,40923,40939,40939,40947,40965,40982,40997,40998,41015,41015,41032,41032,41048,41048,41065,41065,41082,41082,41098,41098,41098,41115,41115,41132,41132,41148,41148,41165,41165,41182,41182,41199,41199,41223,41275,41275,41283,41635,41661,41668,41682,41698,41715,41732,41748,41748,41765,41765,41782,41782,41798,41798,41815,41815,41832,41832,41848,41848,41848,41865,41865,41882,41882,41882,41898,41898,41915,41915,41915,41932,41932,41932,41948,41948,41948,41965,41965,41965,41982,41982,41998,41998,41998,42015,42015,42015,42032,42032,42048,42048,42048,42048,42065,42065,42065,42082,42082,42082,42098,42098,42115,42115,42115,42136,42136,42153,42153,42153,42169,42169,42169,42186,42186,42198,42198,42218,42218,42218,42236,42236,42236,42236,42248,42248,42248,42266,42266,42323,42323,42380,42380" d="m298,275c1.83334,-0.16666 2.23773,-0.79269 3.09982,-1.00015c0.84012,-0.20218 1.3046,-0.84711 2.10019,-1.28384c0.6481,-0.35577 1.56125,-0.67697 2.29999,-1.23685c0.66452,-0.50363 1.29129,-1.21832 2.13599,-1.50449c0.84009,-0.28461 1.57758,-0.52649 2.3425,-1.07468c0.75995,-0.54462 1.24622,-1.35211 2.18817,-1.73334c0.62448,-0.25272 1.72437,-0.24719 2.42267,-0.77731c0.67596,-0.51315 1.25208,-1.15131 1.91068,-1.91019c0.53534,-0.61685 0.84079,-1.35815 1.38535,-1.99515c0.6868,-0.80338 1.49869,-1.12766 2.22931,-1.68402c0.72388,-0.55124 1.29672,-1.18881 1.9855,-1.90033c0.54495,-0.56296 1.22214,-1.44196 1.55701,-1.90948c0.55481,-0.7746 0.92377,-1.32416 1.74152,-2.30484c0.38132,-0.45729 0.99271,-1.04527 1.71597,-2.084c0.39169,-0.56253 0.88959,-1.43149 1.38535,-2.10133c0.60504,-0.8175 1.03165,-1.4796 1.33334,-2.33333c0.30487,-0.86272 0.84756,-1.44954 1.45065,-2.08267c0.54688,-0.57413 0.64514,-1.43245 1.14133,-2.05867c0.49533,-0.62515 0.57477,0.07468 0.57468,0.97467c-0.00009,0.87866 -0.5654,1.48677 -0.94733,2.3c-0.40955,0.87202 -0.7905,1.49352 -0.96735,2.46933c-0.13449,0.74217 -0.06558,1.54822 -0.08667,2.54533c-0.01852,0.87515 -0.22537,1.8837 -0.49866,2.70616c-0.22034,0.66309 -0.43713,1.6617 -0.47916,2.47917c-0.04193,0.81516 0.06601,1.82162 -0.05685,2.65332c-0.14529,0.98343 -0.77878,1.71005 -0.92798,2.67203c-0.10599,0.68335 -0.0285,1.69553 -0.03616,2.71732c-0.00531,0.70807 0.09335,1.49686 -0.28384,2.48666c-0.31381,0.82339 -0.68155,1.62735 -1.00134,2.45468c-0.27527,0.71207 -0.98746,1.58084 -1.35748,2.21149c-0.45511,0.77567 -0.65857,1.78146 -0.93185,2.47916c-0.36475,0.93115 -0.66745,1.77911 -1.07266,2.52536c-0.41327,0.76111 -0.60349,1.73715 -0.34818,2.59549c0.22684,0.76263 1.2955,0.7045 2.19553,0.7045c0.89999,0 1.79999,0 2.59998,0c0.90002,0 1.81964,-0.00195 2.60001,0.42532c0.8226,0.45038 1.70129,0.52689 2.60001,0.57468c0.80338,0.04272 1.5372,0.74695 2.39999,0.96399c0.8735,0.21973 1.8038,0.11813 2.70001,0.03586c0.91144,-0.08368 1.50266,-0.60782 2.1955,-1.29535c0.62155,-0.61679 1.03598,-1.42892 1.409,-2.05634c0.46429,-0.78094 1.28146,-1.06659 2.01016,-1.73218c0.59573,-0.54413 0.87805,-1.53418 1.48666,-2.116c0.54044,-0.51663 1.46286,-1.0806 2.146,-1.5c0.78113,-0.47955 1.38046,-1.03619 1.95267,-1.95267c0.42453,-0.67993 0.84628,-1.52017 1.45718,-2.04282c0.67288,-0.57565 1.49368,-0.86005 2.2215,-1.62582c0.58957,-0.62033 0.84314,-1.26666 1.67401,-1.92151c0.65118,-0.51324 1.60657,-1.04874 2.09998,-1.51434c0.74994,-0.70764 1.24734,-1.24283 2.08069,-2.07617c0.53067,-0.53067 1.16666,-1.16666 1.76666,-1.76666c0.69998,-0.69998 1.20032,-1.19965 1.89999,-1.89999c0.69901,-0.69968 0.97083,-1.44562 1.55267,-2.14282c0.49335,-0.59116 1.39978,-0.89481 1.89465,-1.65268c0.45407,-0.6954 0.9989,-1.25343 1.478,-2.10449c0.40918,-0.72682 0.92407,-1.58057 1.42535,-2.01067c0.84424,-0.72433 0.96835,-1.44943 1.31598,-2.42267c0.2507,-0.70193 0.66983,-1.49634 0.85867,-2.34134c0.21298,-0.95308 0.72003,-1.55202 1.17468,-2.312c0.44092,-0.73701 0.80145,-1.67944 1.09998,-2.4615c0.30151,-0.78993 0.67014,-1.73721 1.10001,-2.3905c0.56207,-0.8542 1.0567,-1.47208 1.31467,-2.26266c0.31808,-0.97484 0.25827,-1.82071 0.57199,-2.8c0.20438,-0.63799 0.58829,-1.29109 1.19736,-2.28267c0.33493,-0.5453 0.87738,-1.3548 1.34933,-2.14932c0.54715,-0.9211 0.85489,-1.56586 1.26682,-2.36667c0.41345,-0.80377 0.75842,-1.42076 1.38385,-2.2c0.49536,-0.61716 1.37216,-1.58505 1.75882,-2.20001c0.3688,-0.58655 0.85718,-1.59999 1.25717,-2.39999c0.29999,-0.60001 0.79355,-1.61038 1.13599,-2.23599c0.51437,-0.93977 1.0144,-1.72125 1.38486,-2.26401c0.37683,-0.55206 1.17538,-1.5816 1.57465,-2.04283c0.56345,-0.65091 1.23862,-1.45663 1.77917,-2.24651c0.37854,-0.55313 1.12982,-1.30002 1.79999,-1.836c0.83047,-0.66417 1.20773,-1.20052 1.62402,-1.976c0.52948,-0.98633 0.79987,-1.6248 1.36798,-2.39867c0.45694,-0.62244 1.06207,-1.15883 1.81183,-2.2c0.41675,-0.57875 0.71014,-1.20351 1.22153,-2.19867c0.39471,-0.76808 0.87296,-1.60353 1.43597,-2.22667c0.65509,-0.72504 1.2139,-1.20877 1.76852,-1.83633c0.61111,-0.6915 1.1994,-1.48518 1.57465,-2.03833c0.54794,-0.80771 1.11505,-1.82681 1.52084,-2.45833c0.36484,-0.56779 1.18787,-1.24387 1.84732,-1.79434c0.81302,-0.67868 1.11102,-1.24733 1.53101,-2.22583l0.035,-0.82016" id="svg_14" stroke-width="2" stroke="#000" fill="none"/>
  <path t="45615,45664,45680,45692,45708,45724,45731,45747,45904,45924,45948,45964,45964,45971,45981,45998,46014,46015,46015,46031,46047,46064,46065,46065,46080,46097,46114,46114,46114,46130,46130,46130,46147,46147,46147,46164,46164,46181,46181,46197,46197,46198,46214,46231,46231,46247,46247,46247,46264,46264,46264,46280,46280,46281,46281,46298,46298,46315,46315,46315,46315,46330,46331,46347,46347,46364,46364,46364,46381,46381,46397,46398,46415,46415,46430,46430,46431,46447,46447,46464,46464,46480,46480,46497,46497,46498,46514,46514,46531,46531,46547,46548,46548,46564,46565,46565,46565,46580,46580,46580,46597,46598,46614,46614,46631,46631,46648,46648,46664,46664,46681,46681,46697,46715,46715,46730,46731,46748,46748,46764,46787,46787,46875,46915,47061,47061,47088,47175,47216,47236,47236,47252,47267,47283,47283,47298,47315,47315,47315,47331,47331,47348,47348,47348,47365,47365,47381,47381,47381,47398,47398,47415,47415,47415,47431,47431,47431,47448,47448,47448,47448,47465,47465,47481,47481,47498,47515,47515,47531,47531,47548,47548,47565,47565,47581,47598,47598,47615,47615,47631,47631,47648,47648,47665,47681,47681,47681,47698,47698,47698,47715,47732,47732,47748,47748,47748,47765,47765,47765,47781,47781,47781,47798,47798,47798,47815,47815,47831,47832,47832,47848,47848,47848,47848,47865,47865,47881,47881,47898,47898,47915,47915,47915,47931,47931,47931,47948,47965,47981,47981,47981,48001,48001,48015,48031,48031,48048,48048,48131,48141,48141" d="m286,123c0,-1.8 0,-2.6 0,-3.5c0,-0.9 -0.01068,-1.88934 -0.5,-2.5c-0.48932,-0.61066 -0.66736,-1.60934 -0.14282,-2.2955c0.57349,-0.7502 1.67926,-0.53635 2.44281,-0.78983c0.77219,-0.25634 1.60382,-0.82946 2.40134,-0.916c0.97366,-0.10566 1.64713,-0.394 2.31467,-0.8c0.88168,-0.53622 1.70212,-1.05717 2.65067,-1.36533c0.67303,-0.21866 1.36838,-0.4913 2.3125,-0.83334c0.84555,-0.30632 1.67245,-1.02677 2.36752,-1.4c0.60284,-0.32371 1.58203,-0.68153 2.36798,-1.01067c0.78348,-0.3281 1.66708,-0.88829 2.12399,-1.41467c0.57632,-0.66395 1.28986,-1.46975 1.87201,-1.728c0.952,-0.42233 1.8063,-0.36547 2.78934,-0.61333c0.80872,-0.2039 1.48944,-0.67341 2.37466,-1.22267c0.77151,-0.47871 1.65985,-0.54418 2.62534,-0.77733c0.61609,-0.14877 1.45013,-0.5554 2.42151,-0.93333c0.8089,-0.31473 1.38837,-0.5024 2.57849,-0.9c0.59827,-0.19987 1.47079,-0.51122 2.31467,-0.71467c0.99292,-0.23939 1.69406,-0.23274 2.85199,-0.452c0.79361,-0.15027 1.60345,-0.42677 2.14935,-0.54934c1.21814,-0.27351 2.09198,-0.28535 2.884,-0.50533c0.81622,-0.22672 1.79364,-0.65964 2.59998,-0.74266c0.79657,-0.08202 1.80664,0.02231 2.60001,-0.09317c1.01346,-0.14751 1.74344,-0.5797 2.57883,-0.8215c0.81558,-0.23606 1.78891,-0.41099 2.54202,-0.62133c0.79483,-0.22199 1.79166,-0.44733 2.66849,-0.48933c1.0094,-0.04835 1.78983,-0.01067 2.78949,-0.01067c0.68253,0 1.79053,0 2.54202,0c0.79648,0 1.79382,0 2.66849,0c1.01068,0 1.81067,0 2.81067,0c0.82132,0 1.51434,0.00361 2.64267,-0.00017c0.66266,-0.00221 1.36197,0.03186 2.38934,-0.08517c1.2059,-0.13736 1.91602,-0.44801 2.56531,-0.63067c0.98962,-0.2784 1.80267,-0.28175 2.80267,-0.284c0.80002,-0.0018 1.79984,0 2.57916,0c0.99951,0 1.90485,0 2.85684,0c0.76532,0 1.75949,0 2.50684,0c1.03183,0 1.97867,0 2.67801,0c0.97916,0 1.76849,0 2.8125,0c0.86215,0 1.6875,0 2.65067,0c0.69064,0 1.76242,-0.07821 2.616,0.00017c0.91144,0.08369 1.34717,0.82167 1.92532,1.56384c0.48611,0.62402 1.19742,1.15381 1.97467,1.60266c0.62158,0.35896 0.96725,1.346 1.52084,1.85417c0.64233,0.58966 1.16418,1.31774 1.42648,2.22649c0.26208,0.90807 0.4819,1.59194 0.854,2.354c0.48978,1.00305 0.79868,1.59866 1.29868,2.59866c0.29999,0.60001 0.69998,1.39999 1.10001,2.2c0.39999,0.79999 0.89999,1.8 1.19998,2.4c0.39999,0.8 0.84869,1.57899 1.164,2.39999c0.37592,0.97885 0.40402,1.83489 0.60535,2.48534c0.31848,1.02887 0.70102,1.54562 1.1825,2.41917c0.49078,0.89045 0.89667,1.78873 1.12732,2.37466c0.32764,0.83235 0.73151,1.82908 1,2.47917c0.41818,1.01259 0.41974,1.85079 0.55685,2.67767c0.14474,0.87288 0.62354,1.55249 0.8425,2.56383c0.16629,0.76802 0.11636,1.77885 0.12149,2.68417c0.00534,0.94138 0.04541,1.65019 0.5,2.59517c0.40775,0.84763 0.49933,1.4915 0.5,2.52617c0.00049,0.74399 0,1.85182 0,2.60933c0,1.03799 0,1.73267 0,2.77066c0,0.948 0,1.6245 0,2.40001c0,1.04799 0,1.96799 0,2.728c0,0.98666 -0.03488,1.97585 0.03601,2.73334c0.08658,0.92519 0.3266,1.70337 0.53867,2.528c0.27142,1.05545 0.39233,1.77158 0.42084,2.67799c0.03046,0.9682 -0.02643,1.77608 0.06165,2.59467c0.11169,1.03818 0.47705,1.92094 0.65884,2.55133c0.28598,0.99168 0.29623,1.86647 0.50549,2.82283c0.18002,0.8228 0.483,1.68301 0.7785,2.57851c0.2955,0.89549 0.51111,1.47083 0.71466,2.31467c0.2392,0.99162 0.22311,1.89568 0.50684,2.88516c0.2301,0.80252 0.80539,1.61473 1.2785,2.321c0.53094,0.79262 0.82742,1.47868 1.064,2.26451c0.31195,1.03612 0.40341,1.75175 0.43152,2.55299c0.03595,1.02504 -0.07047,1.98497 0.17114,2.82834c0.2525,0.88144 0.63138,1.41945 0.77618,2.42883c0.13077,0.91151 0.03998,1.90468 0.05731,2.72583c0.01801,0.8539 0.28384,1.79333 0.71585,2.47733l0.28265,0.82935l-0.22015,-0.94934l-0.29935,-0.67867" id="svg_15" stroke-width="2" stroke="#000" fill="none"/>
  <path t="49805,49939,49949,49969,49969,49984,49984,49998,49998,50015,50015,50031,50031,50031,50048,50048,50048,50048,50065,50065,50065,50081,50081,50098,50098,50098,50098,50115,50115,50115,50115,50131,50131,50131,50148,50148,50148,50165,50165,50165,50181,50181,50198,50198,50215,50215,50215,50231,50231,50231,50248,50248,50248,50248,50265,50265,50281,50281,50281,50298,50298,50315,50315,50331,50331,50348,50365,50381,50381,50423,50801,50852,50860,50883,50883,50900,50916,50916,50931,50948,50966,50966,50981,50981,50998,51015,51015,51031,51031,51049,51049,51065,51065,51081,51098,51098,51115,51131,51131,51131,51148,51148,51148,51170,51170,51181,51181,51181,51201,51201,51201,51215,51215,51215,51236,51236,51236,51248,51248,51269,51269,51286,51286,51286,51303,51303,51303,51315,51315,51331,51331,51331,51348,51348,51348,51365,51365,51365,51380,51381,51398,51398,51398,51415,51415,51415,51431,51448,51448,51465,51465,51481,51481,51498,51515,51515,51531,51531,51548,51548,51565,51565,51587,51587,51623,51623,51635,51683,51699,51731,51797,51797,52120" d="m209,114c-0.58566,0.64733 0.15309,0.25249 1,-0.16666c0.69518,-0.34406 1.46439,-1.07176 2.17467,-1.39734c0.78487,-0.35976 1.72325,-0.48343 2.4825,-0.79317c0.76305,-0.31129 1.7455,-0.84416 2.38451,-1.16367c0.72899,-0.36449 1.59877,-0.80489 2.26366,-1.12733c0.69238,-0.33577 1.71037,-0.83295 2.65167,-1.109c0.76006,-0.22289 1.65535,-0.27517 2.65199,-0.60001c0.67488,-0.21996 1.72205,-0.65025 2.36034,-0.84283c0.68962,-0.20805 1.41936,-0.38805 2.864,-0.8c0.68164,-0.19437 1.32622,-0.38226 2.205,-0.7c1.04817,-0.37899 1.73264,-0.70854 2.41434,-1c0.96358,-0.41196 1.76381,-0.72004 2.59467,-0.94283c1.0217,-0.27397 1.72604,-0.27534 2.55133,-0.44117c1.01759,-0.20446 1.79816,-0.62699 2.60133,-1.01583c0.79691,-0.3858 1.79657,-0.75485 2.61067,-0.87484c0.64423,-0.09496 1.61554,-0.22964 2.42532,-0.46133c0.87401,-0.25006 1.76505,-0.56094 2.6595,-0.86401c0.58437,-0.198 1.42596,-0.48339 2.4205,-0.89999c0.6889,-0.28857 1.84654,-0.81117 2.63217,-1.0955c0.52834,-0.19122 1.72136,-0.52488 2.39049,-0.67917c0.98724,-0.22764 1.62521,-0.63687 2.63983,-0.90383c0.80167,-0.21093 1.72153,-0.1215 2.54236,-0.1215c0.96317,0 1.82648,0.00063 2.72198,0c0.95584,-0.00067 1.56134,-0.49878 2.19318,-0.97467c0.65878,-0.49619 1.36432,-0.82632 2.064,-1.52533c0.70035,-0.69966 1.13608,-1.27161 1.89999,-1.88934c0.74478,-0.60224 1.55856,-0.85062 2.23599,-1.18533c0.96942,-0.47899 1.71133,-0.42308 2.72803,-0.42533c0.94498,-0.00209 1.60693,0.01964 2.64133,-0.0045c0.74445,-0.01737 1.84097,-0.24112 2.60931,-0.57017c0.85809,-0.36749 1.56903,-0.29031 2.62817,-0.42983c0.87662,-0.11548 1.42902,-0.7195 2.29883,-0.9955c0.97739,-0.31013 1.72522,-0.42014 2.51016,-0.7045c1.03442,-0.37475 1.71497,-0.68971 2.34369,-0.9955c1.00903,-0.49075 1.60318,-0.80264 2.60449,-1.3c0.8096,-0.40214 1.45007,-0.71748 2.42133,-1.1c0.79846,-0.31448 1.36166,-0.47861 2.41202,-0.9c0.94925,-0.38083 1.6134,-0.71467 2.58783,-1.1c0.78888,-0.31195 1.59354,-0.5506 2.436,-0.99983c0.64285,-0.34279 1.62698,-0.8477 2.3895,-0.8895c0.91867,-0.05036 1.70599,-0.01067 2.52798,-0.01067c1.05869,0 1.98935,0 2.62085,0c1.00583,0 1.84048,0 3.02582,0c0.80402,0 1.35333,0 2.65735,0c0.69598,0 1.37399,0 2.60532,0c0.81601,0 1.63202,0 2.63202,0c0.68399,0 1.85065,0 2.63666,0c0.82199,0 1.88068,0 2.58566,0c0.80002,0 1.83655,-0.01978 2.78299,0.00017c0.85388,0.018 1.62195,0.29302 2.43134,0.64716c0.86914,0.38029 1.68109,0.22722 2.61136,0.78867c0.72778,0.43924 1.24838,1.19807 1.95731,1.664c0.65833,0.43267 1.68045,0.97283 2.26801,1.5c0.63861,0.57298 1.16785,1.15717 1.89468,1.884c0.51599,0.516 1.39206,1.31062 1.86932,1.88c0.58081,0.69289 0.9472,1.45774 1.74649,1.63617c0.84335,0.18827 1.3255,0.9745 1.90018,1.49983l0.64734,0.4955" id="svg_16" stroke-width="2" stroke="#000" fill="none"/>
  <path t="53495,53758,53768,53800,53817,53818,53818,53818,53818,53831,53831,53832,53849,53849,53849,53865,53866,53881,53881,53898,53898,53963,53979,54003,54015,54023,54039,54048,54065,54083,54083,54100,54100,54117,54117,54133,54133,54133,54133,54150,54150,54150,54167,54167,54167,54183,54183,54183,54183,54200,54200,54200,54217,54217,54217,54217,54233,54233,54233,54250,54250,54250,54267,54267,54267,54283,54283,54283,54283,54300,54300,54300,54316,54316,54316,54333,54333,54333,54350,54350,54350,54350,54366,54366,54366,54366,54383,54383,54383,54383,54401,54401,54401,54401,54416,54416,54416,54416,54433,54433,54433,54433,54433,54433,54450,54450,54450,54451,54451,54466,54466,54466,54466,54466,54483,54483,54483,54483,54483,54500,54500,54500,54500,54500,54516,54516,54516,54516,54516,54516,54516,54533,54533,54533,54534,54534,54550,54550,54550,54550,54566,54566,54566,54566,54567,54581,54581,54581,54581,54581,54601,54601,54601,54601,54601,54616,54616,54616,54633,54633,54633,54650,54650,54650,54650,54666,54666,54735,54751,54752" d="m389,99c-0.77866,0.87867 -0.20654,1.52018 0.46799,1.98534c0.89658,0.61829 1.58521,0.58601 2.22934,0.86533c0.69711,0.30229 1.40131,0.65948 2.81601,0.98c0.633,0.14341 1.53943,0.14613 2.56516,0.39083c0.6987,0.16668 1.52563,0.56905 2.517,1.07851c0.57175,0.29381 1.46347,0.99442 2.15717,1.34283c0.84778,0.4258 1.59467,0.35246 2.61136,0.35717c0.93149,0.00431 1.45374,0.68295 2.24664,0.98933c0.82962,0.32058 1.78934,0.01067 2.68933,0.01067c0.90002,0 1.80017,0 2.58536,0c0.95065,0 1.71631,-0.02167 2.72366,0.0045c0.66351,0.01723 1.72623,0.1525 2.69632,0.34817c0.69611,0.14041 1.38306,0.332 2.65182,0.526c0.77835,0.11901 1.49915,0.13242 2.46436,0.34283c0.82294,0.17939 1.68365,0.48097 2.57849,0.7785c0.89618,0.29797 1.4845,0.48548 2.31467,0.8c1.00946,0.38246 1.69763,0.72224 2.45468,1c1.18631,0.43524 1.88193,0.59783 2.57999,0.8c0.68329,0.19789 1.87646,0.61201 2.62982,0.87917c0.69922,0.24796 1.70483,0.43684 2.52084,0.52084c0.81601,0.084 1.83188,0.2506 2.76132,0.64667c0.51688,0.22027 1.70667,0.83733 2.38934,1.17867c0.69867,0.34933 1.38013,0.69314 2.30649,1.15317c0.78049,0.38759 1.48376,0.73498 2.46417,1.1215c0.79837,0.31474 1.63507,0.57741 2.6575,1.00017c0.71317,0.29488 1.43179,0.6554 2.25452,1.0665c0.63525,0.31744 1.32645,0.65282 2.01599,1.04401c1.33572,0.75777 1.8884,1.1805 2.38934,1.58933c0.71988,0.5875 1.67801,1.40652 2.21848,1.8c0.55881,0.40681 1.14664,0.80104 2.34283,1.6c0.59967,0.40052 1.20001,0.8 1.80002,1.2c1.20016,0.80014 1.80597,1.20235 2.42084,1.62083c0.63785,0.43411 1.6474,1.14363 2.3645,1.66451c0.37265,0.27069 1.13611,0.83469 1.91916,1.41917c0.39713,0.29642 1.5968,1.19356 2.39099,1.79549c0.39456,0.29904 1.17157,0.89621 1.54733,1.20001c1.09952,0.88896 1.77753,1.49393 2.42117,2.09999c0.63095,0.5941 0.93262,0.89888 1.836,1.8c0.60077,0.59926 1.20001,1.20001 1.79999,1.8c0.60001,0.60001 1.50034,1.50034 2.10901,2.10899c0.31235,0.31233 0.96301,0.963 1.66168,1.66167c0.76266,0.76266 1.59732,1.59734 2.03467,2.03467c0.44531,0.44531 0.89465,0.89468 1.78931,1.78934c0.43735,0.43733 1.27338,1.27063 2.03336,2.03467c0.35379,0.35568 1.02048,1.01881 1.60583,1.66167c0.81503,0.8951 1.2847,1.50706 1.74081,2.10899c0.45322,0.5981 1.38626,1.80501 1.91068,2.40134c0.26889,0.30576 0.84082,0.91467 1.41916,1.55583c0.90387,1.00203 1.49692,1.72464 1.79102,2.0955c0.58917,0.74297 1.15356,1.49016 1.93784,2.58066c0.2471,0.3436 0.92633,1.3231 1.35599,1.92c0.40524,0.56297 1.20343,1.5679 1.61066,2.01068c0.58966,0.64114 1.40677,1.42961 2,2.04666c0.40466,0.42091 1.20731,1.35046 1.59869,1.87199c0.59158,0.78828 0.90637,1.33667 1.71597,2.34666c0.4541,0.56648 1.18533,1.26617 1.88535,1.804l0.79999,0.16534" id="svg_17" stroke-width="2" stroke="#000" fill="none"/>
  <path t="60474,60581,60591,60615,60631,60648,60648,60664,60664,60681,60681,60699,60715,60731,60731,60748,60764,60764,60781,60781,60798,60814,60832,60832,60848,60848,60864,60864,60881,60881,60881,60898,60914,60914,60932,60932,60932,60948,60948,60948,60964,60965,60982,60982,60998,60998,61021,61021,61031,61031,61031,61048,61048,61064,61064,61081,61081,61098,61098,61114,61114,61131,61131,61131,61148,61148,61164,61164,61181,61181,61198,61198,61213,61231,61231,61255,61255,61264,61264,61281,61298,61313,61314,61331,61331,61348,61363,61364,61381,61398,61451,61495,61539,61540" d="m208,363c-1,-1 -1.61456,-2.12814 -1.97917,-1.47916c-0.43596,0.776 -0.02083,1.80048 -0.02083,2.65381c0,0.94135 0,1.70935 0,2.6507c0,0.69064 0,1.76398 0,2.6955c0,0.80048 0,1.65381 0,2.59381c0,0.9855 0,1.77069 0,2.71069c0,0.69064 0.10353,1.77209 -0.02083,2.6955c-0.11015,0.81799 -0.56052,1.47598 -0.8125,2.47916c-0.19492,0.77597 -0.16667,1.83334 -0.16667,2.66135c0,0.88132 0,1.58932 0,2.57065c0,0.95816 0,1.93466 0,2.78885c0,0.97916 0.02058,1.79285 -0.05716,2.43631c-0.11729,0.97083 -0.38271,1.75351 -0.59018,2.53302c-0.31786,1.19424 -0.35199,1.89249 -0.35266,2.84583c-0.00053,0.76532 0.00053,1.76401 0,2.564c-0.00067,1.00134 0.00764,1.84317 -0.16667,2.76666c-0.14902,0.7894 -0.47557,1.55582 -0.71182,2.69052c-0.15604,0.74948 -0.12151,1.62814 -0.12151,2.54733c0,0.99417 0,1.75949 0,2.71283c0,0.85199 0,1.65201 0,2.4035c0,1.3125 0,2.022 0,2.87466c0,1.00317 0,1.76849 0,2.72049c0,0.76801 0,1.72 0,2.48532c0,0.99417 0.08859,1.91904 -0.01067,2.77335c-0.11194,0.9635 -0.57068,1.62216 -0.82266,2.62534c-0.19492,0.77597 -0.16667,1.83334 -0.16667,2.58932c0,0.91068 0,1.82135 0,2.73199c0,0.85333 0,1.79468 0,2.56268c0,0.94135 0,1.94934 0,2.70532c0,0.91068 0,1.81067 0,2.71066l0.00133,0.90002l0.22,0.89999l0.42601,0.60001" id="svg_18" stroke-width="2" stroke="#000" fill="none"/>
  <path t="63149,63159,63159,63159,63159,63159,63159,63244,63244" d="m282,360c-0.66415,2.42783 -1.05972,3.41269 -1.28665,3.94135c-0.23138,0.53903 -0.71252,1.58548 -0.94669,2.06934l-0.79333,1.392l-0.60001,0.58798" id="svg_19" stroke-width="2" stroke="#000" fill="none"/>
  <path t="65197,65452,65452,65452,65744,65815,65823,65852,65876,65899,65899,65911,65918,65951,65954,65971,65995,66003,66030,66047,66055,66071,66087,66097,66114,66131,66131,66147,66147,66147,66164,66164,66181,66181,66181,66197,66197,66197,66214,66214,66231,66231,66231,66247,66247,66247,66247,66264,66264,66264,66264,66281,66281,66281,66281,66297,66297,66297,66314,66314,66314,66331,66331,66331,66347,66347,66347,66347,66364,66364,66364,66381,66381,66381,66397,66397,66414,66414,66431,66431,66431,66431,66447,66447,66447,66463,66481,66481,66497,66497,66497,66514,66514,66514,66530,66531,66531,66547,66547,66547,66547,66564,66564,66580,66581,66581,66596,66597,66597,66614,66614,66614,66631,66631,66631,66647,66647,66647,66664,66664,66681,66681,66697,66697,66697,66714,66714,66731,66746,66747,66747,66764,66764,66780,66798,66798,66813,66831,66831,66847,66864,66880,66922,66962,67015,67170,67170" d="m302,328c-1.05801,1.05801 -1.5,1.5 -2.14801,2.14801c-0.74399,0.74399 -0.04672,0.4826 0.71201,0.888c0.73035,0.39023 0.97778,1.44431 1.63467,2.164c0.53348,0.5845 0.95981,1.31494 1.51733,1.884c0.65903,0.6727 1.13522,1.25278 1.70932,1.89066c0.52087,0.57874 1.04987,1.2254 1.74133,1.85867c0.59793,0.54761 0.58911,1.3988 1.11734,2.08264c0.48471,0.6275 0.716,1.384 0.716,2.28403c0,0.90033 -0.01172,1.61441 0.00134,2.56934c0.01028,0.75168 0.02789,1.56079 0.28265,2.54666c0.23886,0.92429 0.58163,1.84683 0.65884,2.63666c0.08011,0.8194 0.05716,1.88068 0.05716,2.59018c0,0.85266 0,1.85849 0,2.69315c0,0.93066 0,1.72116 0,2.57468c0,1.18933 0,1.79065 0,2.71017c0,0.96448 0,2.00049 0,2.73181c0,0.74734 0,1.49469 0,2.92584c0,0.66434 0,1.61084 0,2.22018c0,1.20132 0,1.80133 0,2.70132c0,1.19983 0,2.08932 0,2.664c0,1.06934 0,2.02133 0,2.74582c0,1.133 0,1.80002 0,2.51102c0,1.0965 0,2.1575 0,2.8175c0,0.91498 0,1.995 0,2.7045c0,0.85266 0,1.85715 0,2.65717c0,1.00015 0,1.82083 0,2.96664c0,0.7905 0,1.35419 0,2.23468c0,1.19598 0,2.05701 0,2.828c0,0.96082 0,1.93732 0,2.7915c0,0.97916 0,1.78983 0,2.43631c0,1.22818 0,1.77884 0,2.64734c0,1.1955 0,1.7955 0,2.6955c0,1.20001 0,2.09552 0,2.67917c0,0.83551 0,2.06818 0,2.74619c0,0.94131 0,1.72733 0,2.54932c0,1.05869 -0.00037,2 0,2.67801c0.00067,1.23132 -0.0387,1.77695 0.05716,2.59467c0.15005,1.28003 0.48068,1.94183 0.65884,2.63666c0.25323,0.98761 0.27246,1.81583 0.28265,2.63202c0.01532,1.22675 0.00134,1.87332 0.00134,2.884c0,0.79999 0,1.79999 0,2.59998c0,0.80002 -0.12503,1.81625 0.08533,2.71469c0.2131,0.9101 0.78143,1.81406 0.85751,2.49066c0.08328,0.74078 0.04129,1.85181 0.05716,2.68567c0.01801,0.9455 0.30182,1.78577 0.57468,2.48364c0.36401,0.93097 0.25177,1.86359 0.51065,2.62534c0.30176,0.88794 0.89667,1.59946 0.91467,2.5c0.01801,0.89984 0.00015,1.79984 0.284,2.616l0.67999,0.49869l0.03601,-0.21735" id="svg_20" stroke-width="2" stroke="#000" fill="none"/>
  <path t="68747,68783,68799,68816,68833,68849,68864,68864,68881,68897,68897,68914,68914,68931,68931,68931,68947,68947,68964,68964,68964,68981,68981,68981,68997,68997,68997,69014,69031,69031,69031,69047,69047,69047,69064,69064,69064,69081,69081,69081,69097,69097,69097,69114,69114,69114,69131,69131,69131,69147,69147,69147,69147,69147,69164,69164,69164,69181,69181,69181,69181,69197,69197,69214,69214,69214,69214,69231,69231,69231,69231,69248,69248,69248,69248,69264,69264,69264,69264,69281,69281,69297,69297,69297,69297,69314,69314,69314,69331,69331,69331,69331,69347,69347,69348,69364,69364,69381,69381,69381,69397,69397,69397,69414,69414,69431,69431,69431,69447,69447,69447,69464,69464,69464,69481,69481,69497,69497,69497,69514,69514,69514,69514,69514,69531,69531,69531,69531,69547,69547,69547,69564,69564,69564,69581,69581,69581,69597,69597,69597,69614,69614,69614,69631,69631,69647,69647,69647,69648,69664,69664,69664,69681,69681,69681,69697,69697,69697,69714,69715,69731,69731,69747,69747,69764,69764,69781,69781,69797,69797,69814,69814,69815,69815,69831,69831,69831,69847,69847,69864,69864,69903,69910,69911" d="m380,297c0,1.79999 0.33371,2.78229 -0.03601,3.564c-0.3504,0.74088 -0.79559,1.33691 -1.13065,2.26935c-0.2905,0.80844 -0.73151,1.60056 -1.11734,2.36798c-0.3634,0.72281 -0.67599,1.6474 -0.76868,2.26035c-0.14569,0.96341 -0.39041,1.75906 -0.59467,2.58566c-0.25351,1.02594 -0.27991,1.94641 -0.51932,2.95267c-0.1467,0.61661 -0.55341,1.45093 -0.93335,2.42133c-0.31287,0.7991 -0.47937,1.36136 -0.89999,2.41202c-0.37128,0.92743 -0.67142,1.49628 -0.97467,2.54132c-0.27274,0.93985 -0.556,1.66281 -0.82666,2.31201c-0.41379,0.99249 -0.70078,1.83344 -0.89868,2.41782c-0.40433,1.19388 -0.58899,1.79489 -0.89999,2.65952c-0.38641,1.07431 -0.72916,1.77094 -0.96399,2.46133c-0.31531,0.92694 -0.36768,1.72897 -0.46133,2.54932c-0.12112,1.06119 -0.4072,2.0014 -0.67917,2.67801c-0.39032,0.97101 -0.70956,1.78735 -0.8595,2.39401c-0.32321,1.30783 -0.35626,2.03699 -0.41068,2.77866c-0.05496,0.74902 -0.05893,1.49881 -0.30933,2.88934c-0.11777,0.65399 -0.3447,1.26437 -0.54935,2.48532c-0.14914,0.88977 -0.15359,1.479 -0.16531,2.31467c-0.0173,1.23254 0.01767,1.9205 -0.22284,3.10699c-0.11063,0.54568 -0.39194,1.42419 -0.57983,2.065c-0.30298,1.03336 -0.59869,2.13626 -0.76266,2.888c-0.16119,0.73911 -0.32227,1.80328 -0.38333,2.47266c-0.08911,0.97708 -0.10849,1.64081 -0.27402,2.67368c-0.17441,1.08817 -0.36154,1.77994 -0.49466,2.42435c-0.24655,1.1936 -0.35818,2.10867 -0.56799,3.10931c-0.13501,0.64401 -0.30942,1.33792 -0.43201,2.064c-0.23474,1.39041 -0.26144,2.04498 -0.27951,2.97684c-0.01755,0.90436 0.01218,1.80548 -0.0405,2.7045c-0.03522,0.60101 -0.24133,1.80032 -0.46399,2.67917c-0.14307,0.56479 -0.44077,1.8349 -0.47916,2.52084c-0.06522,1.16501 0.00934,1.95474 -0.05685,2.77466c-0.08585,1.06326 -0.32919,1.76401 -0.53867,2.41467c-0.32346,1.00461 -0.34808,1.82666 -0.59198,2.81067c-0.20551,0.82916 -0.5589,1.44879 -0.93317,2.42133c-0.30692,0.79755 -0.58737,1.61685 -0.77884,2.65717c-0.12527,0.68079 -0.16946,1.53046 -0.474,2.526c-0.26392,0.86267 -0.52713,1.81705 -0.63266,2.64218c-0.07672,0.59991 -0.3288,1.92657 -0.58401,2.63867c-0.27173,0.75821 -0.61938,1.52393 -0.7825,1.91916c-0.4917,1.19135 -0.76941,1.99075 -1.01218,2.77417c-0.2316,0.74741 -0.62814,2.09082 -0.83466,2.65067c-0.35202,0.95435 -0.68359,1.76428 -0.76532,2.58133c-0.08713,0.871 -0.02115,1.87521 -0.05685,2.71017c-0.02499,0.58423 -0.18768,1.78201 -0.40448,2.66849c-0.14105,0.57678 -0.45374,1.63873 -0.53867,2.57468c-0.0755,0.83197 -0.01569,1.84665 -0.07202,2.508c-0.09079,1.06549 -0.31177,2.03561 -0.48483,2.728c-0.17422,0.69708 -0.47488,1.66821 -0.77466,2.49017c-0.26474,0.72586 -0.5929,1.93005 -0.67917,2.73517c-0.08795,0.82098 -0.23099,1.858 -0.45065,2.53867c-0.27145,0.84109 -0.54205,1.83475 -0.57019,2.63599c-0.0351,0.99939 0.0087,1.80011 -0.00464,2.79984c-0.01041,0.77954 -0.20627,1.61426 -0.57452,2.42551c-0.38223,0.84207 -0.41998,1.5853 -0.42532,2.57483c-0.00443,0.82068 0.00922,1.96658 -0.00449,2.75699c-0.00977,0.56384 -0.03882,1.4519 -0.27951,2.64151c-0.12045,0.59528 -0.4184,1.43341 -0.59451,2.47968c-0.14703,0.87344 -0.12149,1.90033 -0.12149,2.67432l0.00449,0.89102l0.21701,0.89148l0.57983,-0.50983" id="svg_21" stroke-width="2" stroke="#000" fill="none"/>
  <path t="71647,71647,71647,71647,71647,71647,71670,71670,71670,71698,71715,71715,71715,71715,71731,71731,71731,71748,71764,71764,71780,71796,71796,71814,71829,71829,71846,71846,71863,71864,71879,71896,71896,71913,71914,71929,71929,71929,71946,71946,71964,71964,71964,71979,71979,71980,71996,71996,72014,72014,72029,72029,72046,72047,72064,72064,72064,72064,72080,72080,72080,72097,72097,72097,72114,72114,72114,72130,72130,72130,72146,72146,72147,72147,72163,72164,72164,72180,72180,72196,72197,72214,72214,72235,72235,72246,72264,72280,72297,72297,72313,72330,72433" d="m360,361c2.42801,0.22134 3.41602,0.35248 3.952,0.42532c1.09607,0.14899 1.63052,0.23383 3.048,0.40802c0.95605,0.11749 1.68533,0.2771 2.5625,0.125c0.96738,-0.16776 1.80197,-0.66403 2.45834,-0.97919c0.68039,-0.32669 1.6424,-0.81943 2.46033,-1.2175c0.65878,-0.32062 1.68585,-0.53738 2.51883,-0.92831c0.76871,-0.36078 1.52066,-0.82291 2.48401,-0.83334c0.69061,-0.00748 1.76334,0 2.68265,0c0.83334,0 1.82468,0.09351 2.586,-0.05716c0.92926,-0.1839 1.564,-0.7084 2.49017,-0.88568c0.9444,-0.18076 1.72784,-0.05716 2.767,-0.05716c0.77551,0 1.82391,-0.01965 2.53302,0.00449c0.85379,0.02905 1.85306,0.29581 2.478,0.49551c1.13669,0.36322 1.93097,0.46191 2.75381,0.48932c1.05817,0.03525 1.76819,0.0101 2.62085,0.01068c1.00317,0.00067 1.80939,-0.08704 2.72049,0.284c0.67892,0.27646 1.53983,0.68347 2.28851,0.71152c0.99747,0.03735 1.86749,0.00449 2.92883,0.00449c0.63464,0 1.66666,0 2.36133,0c1.26248,0 2.04401,0 2.75351,0c0.97333,0 1.78781,0 2.65631,0c1.19534,0 1.79102,0 2.65952,0c1.06934,0 2.02133,0 2.74582,0c1.133,0 1.80002,0 2.51102,0c0.73099,0 2.15744,0.00937 2.81299,-0.00449c0.88388,-0.01868 1.83844,-0.1488 2.64532,-0.49551c0.84848,-0.36456 1.73148,-0.49466 2.72067,-0.5c0.77933,-0.00421 1.77881,0.01425 2.49567,0c0.90506,-0.01801 1.65485,-0.5174 2.50452,-0.91599c0.86041,-0.40363 1.5,-0.73135 2.36398,-1.10934l0.52002,-0.69067l0.74933,-0.45065" id="svg_22" stroke-width="2" stroke="#000" fill="none"/>
  <path t="73577,73597,73597,73597,73597,73597,73609,73609,73632,73632,73649,73649,73666,73666,73683,73699,73699,73716,73716,73716,73732,73732,73732,73747,73747,73764,73764,73764,73780,73780,73780,73797,73797,73814,73814,73814,73830,73830,73848,73848,73848,73864,73864,73864,73880,73880,73880,73880,73897,73897,73897,73914,73914,73930,73930,73930,73947,73947,73947,73964,73964,73964,73964,73980,73980,73997,73997,73997,74014,74014,74014,74014,74030,74030,74047,74048,74048,74064,74064,74064,74064,74080,74080,74080,74097,74097,74097,74114,74114,74115,74130,74130,74148,74148,74148,74164,74164,74164,74165,74180,74180,74180,74197,74197,74214,74214,74230,74230,74230,74230,74247,74247,74247,74265,74265,74265,74304" d="m489,231c-0.83334,14.66667 -0.87878,15.59866 -0.91599,16.40266c-0.05887,1.27199 0.02182,2.20125 -0.25067,3.26401c-0.17639,0.68787 -0.77106,1.42752 -0.832,2.304c-0.05533,0.79541 -0.00134,1.77866 -0.00134,2.696c0,0.912 0.04691,1.757 -0.35266,2.64684c-0.25848,0.57565 -0.56882,1.73935 -0.62201,2.37317c-0.05649,0.67285 -0.15668,1.9888 -0.37799,2.79898c-0.19177,0.702 -0.56769,1.71021 -0.6265,2.51434c-0.07294,0.99756 0.00427,1.81424 -0.078,2.45715c-0.15839,1.23755 -0.38593,1.76358 -0.59018,2.59018c-0.25351,1.02594 -0.27618,1.9473 -0.51932,2.95267c-0.19763,0.8172 -0.54449,1.38501 -0.74933,2.39999c-0.15973,0.7915 -0.28522,1.80786 -0.60486,2.62085c-0.26392,0.67123 -0.68527,1.66232 -0.97916,2.5c-0.20425,0.58218 -0.60745,1.7767 -0.7955,2.37915c-0.27988,0.89651 -0.46201,1.49359 -0.62048,2.69867c-0.11533,0.87695 -0.09763,1.73279 -0.36935,2.716c-0.18781,0.6795 -0.72131,1.68207 -1.01465,2.28983c-0.40936,0.84821 -0.81885,1.81052 -1.08936,2.6315c-0.18796,0.57047 -0.4566,1.76239 -0.52664,2.36267c-0.10251,0.87854 -0.10672,1.73026 -0.36801,2.716c-0.23618,0.89093 -0.60672,1.88394 -0.69067,2.50665c-0.12772,0.94705 -0.24118,1.82248 -0.45065,2.82935c-0.14554,0.69946 -0.32114,1.37665 -0.49066,2.57867c-0.10248,0.72662 -0.22913,1.77805 -0.52002,2.59198c-0.25012,0.69986 -0.66824,1.8201 -0.86398,2.48401c-0.20444,0.69339 -0.35242,1.40543 -0.80017,2.65167c-0.28104,0.78223 -0.6286,1.45456 -1.22101,2.24316c-0.4715,0.62766 -1.08081,1.21042 -1.436,2.22101c-0.2699,0.76791 -0.15149,1.61093 -0.52817,2.61084c-0.31009,0.82315 -0.81854,1.50943 -1.12534,2.23999c-0.35074,0.83524 -0.73837,1.73779 -1.242,2.6235c-0.33572,0.59039 -0.88013,1.40924 -1.32565,2.18298c-0.38989,0.67715 -0.78467,1.50986 -0.96899,2.52151c-0.14465,0.79382 -0.32788,1.80527 -0.57352,2.42084c-0.4603,1.1535 -0.686,1.66208 -0.97916,2.5c-0.30716,0.87802 -0.5957,1.78046 -0.89999,2.66849c-0.19724,0.57562 -0.60001,1.64401 -0.98935,2.564l-0.25348,0.58502l-0.31052,1.00433" id="svg_23" stroke-width="2" stroke="#000" fill="none"/>
  <path t="75157,75527,75556,75580,75580,75596,75608,75632,75648,75648,75656,75666,75684,75684,75697,75714,75730,75730,75747,75764,75764,75780,75780,75797,75797,75814,75814,75863" d="m439,357c0.16666,1.83334 0.77368,2.27005 1.22134,3.10001c0.34933,0.64764 0.88916,1.3717 1.42599,1.95267c0.63632,0.68863 1.48621,0.98615 1.99548,1.65182c0.51831,0.67752 1.10696,1.19418 1.64252,1.86349c0.4162,0.52014 1.16898,1.16913 1.68933,1.86801c0.49255,0.66153 0.78323,1.41159 1.54617,2.064c0.76031,0.65015 1.51019,0.95157 2.3125,1.5c0.67426,0.46091 1.26682,1.10001 1.92383,1.70001l0.72549,0.5l0.65601,0.39999l0.7515,0.6955" id="svg_24" stroke-width="2" stroke="#000" fill="none"/>
  <path t="76697,76727,76728,76744,76748,76765,76781,76804,76804,76815,76815,76815,76831,76848,76848,76848,76865,76865,76865,76881,76881,76881,76898,76898,76898,76915,76915,76931,76931,76948,76948,76948,76948,76965,76965,76965,76981,76981,76998,76998,76998,77014,77015,77015,77031,77031,77048,77048,77048,77065,77065,77065,77081,77081,77081,77098,77098,77098,77115,77115,77115,77131,77131,77148,77148,77148,77165,77165,77165,77165,77181,77181,77181,77181,77198,77198,77198,77215,77215,77231,77248,77248,77248,77265,77265,77281,77281,77298,77298,77315,77315,77315,77331,77331,77348,77365,77365,77381,77381,77398,77398,77415,77448,77524,77568,77568,77596,77784,77836,77852" d="m463,353c-1,1 -1,1.79999 -1,2.70001c0,0.89999 0.0979,1.80643 -0.01068,2.71066c-0.11145,0.92819 -0.56412,1.58783 -0.82266,2.58932c-0.20044,0.77643 -0.23483,1.52151 -0.66666,2.5c-0.36536,0.82785 -0.48306,1.5647 -0.58401,2.272c-0.17133,1.20041 -0.34714,1.87744 -0.49066,2.57733c-0.26965,1.31512 -0.30582,1.88477 -0.45065,2.82935c-0.15762,1.02795 -0.51181,1.80923 -0.69067,2.42133c-0.28763,0.98425 -0.26245,1.80023 -0.28534,2.80267c-0.01987,0.86978 -0.15787,1.9321 -0.28265,2.56531c-0.20386,1.03448 -0.39072,1.72183 -0.54935,2.69867c-0.13245,0.81561 -0.14325,1.72461 -0.168,2.73334c-0.01965,0.80054 -0.22049,1.80002 -0.42398,2.41068c-0.29138,0.87442 -0.51181,1.87186 -0.55383,2.68933c-0.04193,0.81516 -0.02084,1.81467 -0.02084,2.68933c0,1.01102 0,1.85233 0,2.58133c0,0.87201 0,1.88 0,2.57867c0,1.31732 0,1.88 0,2.82935c0,1.02148 0,1.84216 0,2.50665c0,0.99866 0,1.81467 0,2.63068c0,1.22684 0,1.87332 0,2.88449c0,0.862 0,1.65549 0,2.66367c0,0.79834 0,1.65668 0,2.535c0,1.26749 -0.01144,2.02914 0.01068,2.71817c0.02945,0.91721 0.19498,1.966 0.41464,2.64667c0.27145,0.84109 0.54224,1.83014 0.57019,2.57883c0.03891,1.04181 0.00449,1.99051 0.00449,2.66251c0,0.98932 -0.0022,1.85184 0,2.74283c0.00226,0.909 0.00201,1.6705 0.284,2.65317c0.24377,0.84955 0.58087,1.76154 0.65884,2.54684c0.07825,0.78799 0.05716,1.90881 0.05716,2.74283c0,0.82983 0,1.79431 0,2.51965c0,0.98917 0,1.76849 0,2.76782c0,0.82019 0.3707,1.45044 0.87851,2.24301c0.47845,0.74673 0.12149,1.7785 0.12149,2.57849c0,0.90002 0,1.80002 0.02084,2.67917l0.58981,0.51016" id="svg_25" stroke-width="2" stroke="#000" fill="none"/>
  <path t="78834,78844,78844,78844,78844,78844,78858,78859,78880,78880,78897,78897,78897,78897,78914,78914,78914,78930,78930,78947,78947,78947,78964,78964,78964,78964,78964,78980,78980,78980,78997,78997,78997,79014,79014,79030,79030,79047,79047,79064,79064,79064,79080,79080,79097,79097,79114,79114,79130,79130,79147,79164,79164,79180,79180,79203,79223,79231,79247,79264,79280,79744,79754,79754,79780,79797,79797,79797,79797,79813,79813,79830,79830,79847,79847,79847,79847,79863,79863,79928,79928,79936,79949" d="m489,449c0,-13 0,-14.57333 0,-15.20499c0,-0.54169 0,-1.72668 0,-2.65219c0,-0.89099 -0.02615,-1.81143 0.05716,-2.66165c0.08014,-0.81793 0.2955,-1.7865 0.44284,-2.48117c0.14734,-0.69467 0.40576,-1.95447 0.46399,-2.728c0.06531,-0.86755 -0.00497,-1.88052 0.09317,-2.72916c0.11243,-0.97189 0.38333,-1.78595 0.51752,-2.38953c0.29187,-1.31302 0.35211,-2.03662 0.38931,-2.77866c0.03757,-0.74881 0.03534,-1.49066 0.03601,-2.888c0.00031,-0.63998 0,-1.52499 0,-2.56516c0,-0.90067 0,-1.52017 0,-2.52151c0,-0.79999 0,-1.79999 0,-2.60001c0,-1 0,-1.79999 0,-2.79999c0,-0.79999 0,-1.60001 0,-2.60001c0,-0.79999 0,-1.79999 0,-2.60001c0,-0.99982 0,-1.96399 0,-2.91599c0,-0.76801 0,-1.70935 0,-2.71735c0,-0.79199 0,-1.65067 0,-2.51398c0,-0.89551 -0.14981,-1.86526 0.00015,-2.7525c0.14401,-0.85202 0.97055,-1.25607 0.99985,-2.20016c0.02792,-0.8996 0.23303,-1.65881 0.64734,-2.40002c0.44928,-0.80377 0.67181,-1.64142 1.0625,-2.30981c0.45905,-0.78537 0.82043,-1.29987 1.40482,-2.3035c0.4855,-0.8338 0.94339,-1.70432 1.427,-2.18668c0.73279,-0.7309 1.47513,-1.14209 2.20767,-1.71066c0.49054,-0.38074 1.3006,-1.17365 1.82935,-1.95334c0.54269,-0.80029 0.98532,-1.42532 1.38531,-2.23599l0.03601,-0.89999" id="svg_26" stroke-width="2" stroke="#000" fill="none"/>
  <path t="81343,81607,81607,81617,81649,81668,81668,81680,81680,81697,81713,81713,81730,81730,81730,81746,81747,81747,81763,81763,81763,81780,81780,81780,81797,81797,81812,81812,81813,81813,81829,81829,81829,81847,81847,81863,81863,81863,81880,81880,81880,81896,81896,81897,81913,81913,81913,81930,81930,81930,81947,81947,81947,81963,81963,81963,81979,81980,81980,81996,81996,81997,81997,81997,81997,82012,82013,82013,82013,82030,82030,82030,82030,82046,82047,82047,82047,82047,82064,82064,82064,82064,82064,82082,82082,82082,82082,82082,82097,82097,82097,82098,82098,82118,82119,82119,82119,82119,82119,82119,82119,82131,82131,82131,82131,82132,82147,82147,82147,82147,82147,82163,82163,82163,82163,82163,82163,82179,82180,82180,82180,82180,82197,82197,82197,82197,82197,82197,82213,82213,82213,82213,82213,82230,82230,82230,82230,82247,82247,82247,82247,82263,82263,82263,82263,82280,82280,82280,82280,82297,82297,82297,82297,82297,82297,82313,82313,82313,82313,82313,82330,82330,82330,82330,82347,82347,82347,82347,82347,82363,82363,82363,82363,82380,82380,82380,82397,82397,82397,82397,82413,82413,82413,82413,82430,82430,82430,82447,82447,82447,82463,82463,82463,82480,82480,82480,82480,82496,82497,82497,82513,82513,82530,82530,82530,82547,82547,82563,82563,82580,82580,82597,82597,82597,82613,82613,82630,82647,82663,82663,82680,82697,82790,82823,83343,83353,83353" d="m511,173c1,1 1.09644,1.79353 1.5,2.5c0.45551,0.79739 0.44208,1.82561 0.52081,2.5c0.11584,0.9921 0.77936,1.64948 0.95837,2.52083c0.19415,0.94502 -0.013,1.70551 0.24213,2.67934c0.21967,0.83839 0.5545,1.47513 0.69336,2.48517c0.11407,0.83017 0.07947,1.71602 0.08551,2.6145c0.00598,0.88954 -0.01807,1.75772 0.22131,2.77867c0.16394,0.69931 0.58826,1.51601 1.07849,2.526c0.3053,0.62895 0.72101,1.55463 0.99548,2.35266c0.29102,0.8461 0.4621,1.43773 0.62054,2.64149c0.11542,0.87694 0.05182,1.46257 0.36798,2.716c0.1709,0.67751 0.59454,1.67932 0.67999,2.496c0.06738,0.64375 0.03601,1.87466 0.03601,2.42532c0,0.86852 -0.01416,2.06413 0.01068,2.95334c0.01605,0.57501 0.13336,1.65051 0.41467,2.58534c0.20557,0.68315 0.48035,1.64424 0.53864,2.45065c0.05927,0.82047 0.03601,1.85333 0.03601,2.77467c0,0.68401 0,1.68533 0,2.52083c0,0.88051 0,1.77951 0,2.7005c0,0.65067 0.00232,2.112 -0.00134,2.948c-0.00195,0.44051 -0.00952,1.35194 -0.05585,2.2825c-0.02319,0.46577 -0.15283,1.82831 -0.29547,2.68651c-0.1366,0.82185 -0.32825,1.59482 -0.48065,2.69499c-0.14056,1.01468 -0.15265,1.68738 -0.16217,2.37651c-0.01556,1.1234 0.00171,1.95959 -0.0152,2.8515c-0.01752,0.92418 -0.00977,1.39389 -0.15601,2.77199c-0.09381,0.88414 -0.26117,1.73022 -0.40796,2.556c-0.1438,0.80891 -0.31238,2.01016 -0.37268,2.81517c-0.06116,0.81573 -0.099,1.65317 -0.13666,2.08084c-0.11774,1.33838 -0.27081,2.2812 -0.35199,2.77199c-0.16974,1.02618 -0.27563,1.5603 -0.56403,3.276c-0.10236,0.60893 -0.20514,1.23372 -0.38934,2.51735c-0.09314,0.64886 -0.17767,1.29828 -0.25348,1.944c-0.07477,0.63699 -0.23914,2.46194 -0.27319,3.03333c-0.06494,1.08896 -0.06982,1.61035 -0.13666,2.60583c-0.09406,1.401 -0.15948,1.84625 -0.29999,2.7135c-0.13837,0.85416 -0.32178,1.70178 -0.48065,3.01932c-0.05469,0.45364 -0.11401,1.38602 -0.16669,2.33334c-0.05267,0.94733 -0.05072,1.41974 -0.22131,2.77884c-0.10999,0.87595 -0.28162,1.74152 -0.35333,2.1825c-0.14746,0.90701 -0.30994,2.38095 -0.34003,2.90668c-0.06189,1.082 -0.06946,1.63193 -0.08081,2.72665c-0.00562,0.53729 -0.00281,2.06235 -0.00586,2.53467c-0.0058,0.89871 -0.01324,1.75092 -0.08398,2.56799c-0.10443,1.20566 -0.2655,1.99854 -0.41467,2.78183c-0.14551,0.76401 -0.34924,1.85251 -0.44733,2.86816c-0.06293,0.65176 -0.10992,1.64059 -0.27417,2.67401c-0.11676,0.73459 -0.29016,1.48099 -0.48303,2.22601c-0.2821,1.08954 -0.60056,2.10751 -0.79547,2.79431c-0.20541,0.72385 -0.50836,1.95663 -0.69867,2.91168c-0.10129,0.5083 -0.28342,1.56705 -0.36533,2.10666c-0.08176,0.53873 -0.2789,2.1059 -0.35199,3.06799c-0.0675,0.8887 -0.05081,1.31235 -0.16803,2.48401c-0.10709,1.07028 -0.27319,1.73886 -0.41599,2.40884c-0.22314,1.047 -0.38315,2.22147 -0.41599,2.64716c-0.06802,0.88199 -0.08939,1.7829 -0.16803,2.664c-0.10959,1.22781 -0.26514,1.95447 -0.41599,2.62634c-0.21109,0.94012 -0.42877,2.14066 -0.46399,2.74167c-0.05267,0.89902 -0.03601,2.10016 -0.03601,2.7045c0,0.93149 0.00485,1.58081 -0.00015,2.61682c-0.00534,1.10403 -0.01331,1.85516 -0.08517,2.59467c-0.10361,1.06601 -0.34265,2.03665 -0.48935,2.63733c-0.26346,1.07886 -0.4035,2.02081 -0.42084,2.69934c-0.02475,0.96854 -0.00449,1.78333 -0.00449,2.65182c0,1.19568 0,1.80002 0,2.73151c0,0.64932 0,2.04535 0,2.76801c0,0.69867 0.06622,1.89963 -0.01068,2.69867c-0.08411,0.8739 -0.52707,1.70547 -0.70532,2.29865c-0.29504,0.98175 -0.27655,1.81451 -0.56799,2.79868c-0.2417,0.81616 -0.63635,1.79587 -0.69516,2.60001c-0.07294,0.99756 0.03586,1.80917 -0.10617,2.60001c-0.18219,1.01453 -0.67682,1.71295 -0.85751,2.64282c-0.16385,0.84332 -0.05716,1.75717 -0.05716,2.55716c0,0.90002 0.00195,1.81964 -0.42532,2.60001c-0.45038,0.8226 -0.57483,1.70001 -0.74133,2.60001l-0.40802,0.60001" id="svg_27" stroke-width="2" stroke="#000" fill="none"/>
  <path t="84674,84820,84820,84850,84865,84865,84880,84880,84880,84897,84913,84913,84930,84930,84930,84947,84947,84963,84963,84963,84980,84980,84997,84997,84997,85013,85030,85030,85030,85047,85047,85047,85047,85063,85063,85063,85080,85080,85080,85097,85097,85113,85113,85113,85130,85130,85130,85147,85147,85163,85163,85163,85180,85180,85181,85181,85197,85197,85213,85213,85269,85270" d="m493,391c-1,0.61066 -1.09796,1.50644 -0.98932,2.41068c0.11154,0.92822 0.50745,1.61151 0.98932,2.58932c0.29385,0.59631 0.672,1.33389 0.97467,2.37466c0.27322,0.93951 0.60129,1.62354 0.85867,2.62534c0.20215,0.7868 0.19534,1.616 0.452,2.39999c0.26871,0.82077 0.81467,1.80002 1.11465,2.39999c0.39999,0.80002 0.80005,1.60001 1.20001,2.40002c0.49985,0.99982 0.84076,1.56839 1.11465,2.31467c0.35342,0.96301 0.57428,1.97186 0.80618,2.54782c0.28494,0.70773 0.68326,1.90567 0.87915,2.59885c0.20428,0.72281 0.39297,1.45801 0.69983,2.517c0.28305,0.97687 0.52118,1.56235 0.73352,2.655c0.17926,0.92255 0.14316,1.76569 0.17114,2.77115c0.01761,0.63205 0.21002,1.8186 0.42084,2.62085c0.14468,0.55057 0.45374,1.60272 0.53867,2.53867c0.0755,0.83197 0.00735,1.84302 0.07202,2.47198c0.12274,1.19363 0.40088,1.99713 0.53867,2.57468c0.28247,1.1839 0.37949,2.08426 0.40448,2.66849c0.03571,0.83496 0.02084,2.06369 0.02084,2.71017c0,1.01068 0,1.81067 0,2.81067l0,0.91666" id="svg_28" stroke-width="2" stroke="#000" fill="none"/>
  <path t="86027,86037,86037,86037,86037,86037,86037,86037,86037,86037,86047,86047,86047,86047,86047,86047,86047,86047,86047,86066,86066,86066,86066,86066,86066,86081,86081,86081,86081,86098,86098,86098,86098,86113,86113,86113,86113,86113,86130,86130,86130,86147,86147,86147,86163,86163,86163,86180,86180,86180,86180,86196,86197,86197,86197,86212,86213,86213,86229,86230,86230,86246,86246,86247,86247,86247,86263,86263,86263,86280,86280,86296,86297,86297,86312,86312,86329,86330,86347,86347,86363,86363,86380,86380,86396,86396,86397,86397,86413,86413,86413,86429,86430,86447,86447,86447,86447,86447,86463,86463,86463,86480,86480,86480,86497,86497,86498,86498,86513,86513,86530,86530,86547,86547,86547,86563,86563,86580,86580,86597,86597,86612,86613,86630,86630,86647" d="m507,330c0.5,3.83334 0.66302,4.86334 0.85333,6.03201c0.20795,1.27704 0.43213,2.63086 0.66751,4.03049c0.23798,1.41504 0.4754,2.81418 0.71249,4.1655c0.42804,2.43961 0.62006,3.47119 0.79599,4.37332c0.1532,0.78546 0.29367,1.46384 0.42902,2.04453c0.11603,0.49783 0.22339,0.92252 0.33899,1.27948c0.18774,0.57971 0.29968,0.81201 0.40134,1.02267c0.09424,0.19528 0.2421,0.35449 0.44415,0.91c0.32019,0.88025 0.32968,1.85016 0.38251,2.57401c0.05634,0.77219 0.18268,1.9704 0.33185,2.76801c0.15009,0.80264 0.34497,1.60056 0.64282,2.79999c0.19843,0.79907 0.39697,1.59012 0.59998,2.36401c0.19708,0.7514 0.50073,1.81409 0.6955,2.47433c0.26978,0.91461 0.55304,1.99274 0.65186,2.70898c0.12457,0.90289 0.27045,1.87506 0.47803,2.68866c0.14679,0.57532 0.42615,1.7619 0.52197,2.66852c0.065,0.61514 0.11292,1.58423 0.27399,2.61682c0.1145,0.73413 0.29163,1.47623 0.42603,2.22601c0.2558,1.42679 0.31421,2.09024 0.34198,3.00598c0.03278,1.07956 0.01068,1.80301 0.01068,2.54401c0,1.20267 0,1.95468 0,2.77866c0,0.84802 0,1.672 0,2.75952c0,0.85648 -0.0213,1.55124 0.00134,2.56448c0.01788,0.80057 0.22534,1.79837 0.49866,2.62085c0.22034,0.66306 0.43988,1.66019 0.47919,2.45831c0.05835,1.18625 -0.07098,2.03314 0.37799,2.82535c0.36053,0.63614 1.00159,1.32639 1.28564,2.10001c0.35638,0.97058 0.34393,1.8566 0.69049,2.76215c0.31152,0.81396 0.69061,1.33148 1.18402,2.14935c0.60114,0.9964 0.96558,1.66125 1.28131,2.28265c0.51184,1.00732 0.83783,1.6731 1.36804,2.73468c0.31763,0.63583 0.66345,1.32568 1.008,2.052c0.34619,0.72971 0.81012,1.79053 1.06818,2.453c0.35516,0.91165 0.75043,1.99783 1.05713,2.70898c0.29358,0.68079 0.70581,1.61716 1,2.40533c0.30603,0.81976 0.46021,1.38037 1,2.58566c0.27966,0.62448 0.84052,1.4126 1.29999,2.12302c0.55023,0.85077 0.81622,1.58072 1.04285,2.33331c0.30884,1.0256 0.31555,1.88937 0.36786,2.84134c0.04224,0.76779 0.3598,1.75769 0.56396,2.36401c0.33344,0.99039 0.42535,1.77914 0.64667,2.77847l0.42603,0.71701l0.33185,0.8045" id="svg_29" stroke-width="2" stroke="#000" fill="none"/>
 </g>
 <g display="none">
  <title>muse_image</title>
  <image xlink:href="http://static.flickr.com/1176/1387609668_f8f8f2fc4e.jpg" id="muse" height="427" width="640" y="26.5" x="0"/>
 </g>
 <g display="none">
  <title>bbox</title>
  <rect stroke="#f00" fill="none" stroke-width="3" height="378.41916" width="416" y="62.29641" x="128" id="bbox"/>
 </g>
</svg>
