<svg width="640" height="480" xmlns="http://www.w3.org/2000/svg" xmlns:svg="http://www.w3.org/2000/svg" xmlns:xlink="http://www.w3.org/1999/xlink">
 <!-- Sketchy ANNOTATION
  ImageNet ID: n02503517_4605
  URL: http://farm1.static.flickr.com/85/211593646_fda1b6f8d2.jpg
  Image Width: 332
  Image Height: 500
  BBox X: 21
  BBox Y: 105
  BBox Width: 310
  BBox Height: 394
  Exposure: 2000ms
  Synset Label: elephant
  Synset ID: n02503517
  Worker Tag: elephant with coiled trunk and rider
  Sanity Check: 
   Context
   Saved
   Shading
  Comment: 
   {}
  Worker ID: A2HM35CWB7IIFM
  Assignment ID: 3DUZQ9U6SMOL6VFG4VA8KX8VT0HSVI
  HIT ID: 3ZZAYRN1I6RP8RL42HOIAQFOYWFTOO
  Work Time: 84s
  Worker Score: 0.9286
 END ANNOTATION -->
 <g display="inline">
  <title>Layer 1</title>
  <path t="0,167,168,178,178,209,209,216,216,216,216,216,226,226,226,238,238,238,252,252,252,252,252,269,269,269,269,269,269,281,281,281,281,281,281,296,296,296,296,296,299,299,299,299,312,312,312,324,324,324,335,336,336,351,351,352,360,361,361,373,373,373,385,385,385,386,407,407,407,410,410,422,422,436,436,437,452,452,460,460,460,471,471,472,485,485,485,501,502,502,521,521,521,535,536,536,551,569,570,594,594,607,624,639,644,657,657,668,669,686,686,694,694,695,706,706,706,718,718,718,750,758,758,768,768,785,796,804,818,818,829,842,842,858,858,868,868,868,878,879,879,879,889,890,890,907,908,918,927,928,939,940,968,969,976,977,989,989,989,1001,1002,1018,1019,1026,1026,1026,1026,1037,1037,1038,1052,1052,1052,1052,1062,1062,1063,1063,1077,1077,1077,1087,1087,1088,1102,1102,1112,1113,1123,1123,1136,1152,1152,1162,1162,1175,1175,1189,1189,1190,1201,1202,1226,1226,1226,1227" d="m417,162.89999c-1.836,0 -2.60132,0 -3.60001,0c-0.79999,0 -1.82083,0.09709 -2.672,-0.10799c-1.09995,-0.26501 -1.70731,-0.72803 -2.36801,-1.18935c-0.68698,-0.47964 -1.34787,-0.98073 -2.09564,-1.78099c-0.60187,-0.64412 -0.92282,-1.35176 -1.75366,-2.03767c-0.54547,-0.45032 -1.36368,-0.77811 -2.37518,-1.20532c-0.80365,-0.33942 -1.23941,-0.515 -2.16751,-0.85333c-0.96786,-0.35284 -1.96539,-0.668 -2.96799,-0.94135c-0.49875,-0.13599 -1.50049,-0.38213 -2,-0.50932c-1.00098,-0.2549 -2.00314,-0.53157 -2.99866,-0.85867c-0.49847,-0.16379 -1.48041,-0.51627 -1.96533,-0.69066c-0.9505,-0.34184 -2.31348,-0.80737 -3.17883,-1.07268c-0.42068,-0.12897 -1.25183,-0.36189 -2.05585,-0.63666c-1.20932,-0.41328 -1.99359,-0.7565 -2.73883,-1.11601c-0.69656,-0.33603 -1.61771,-0.76059 -2.36517,-1.38533c-0.63083,-0.52725 -1.18979,-1.37827 -1.69733,-2.1355c-0.35324,-0.52705 -0.97336,-1.56076 -1.37466,-2.24316c-0.37308,-0.63441 -0.96057,-1.42506 -1.44,-2.04666c-0.49014,-0.63547 -0.9787,-1.60335 -1.12399,-2.41467c-0.14618,-0.81628 -0.24734,-1.86586 -0.508,-2.56c-0.27771,-0.73959 -0.87906,-1.8551 -1.20151,-2.52c-0.33575,-0.69238 -0.6991,-1.36909 -1.01849,-2.36133c-0.33258,-1.0331 -0.28592,-1.91267 -0.78,-2.70801c-0.35516,-0.57172 -1.22305,-1.26692 -1.728,-1.836c-0.68234,-0.76899 -1.01288,-1.42896 -1.578,-2.13216c-0.66663,-0.82953 -1.2644,-1.14349 -2.24734,-1.65717c-0.79697,-0.4165 -1.41898,-0.73113 -2.20016,-1.32117c-0.6264,-0.47314 -1.2121,-1.07604 -2.22116,-1.43616c-0.77853,-0.27785 -1.67194,-0.23103 -2.65717,-0.6855c-0.72931,-0.33643 -1.28714,-0.94936 -2.12167,-1.53567c-0.59079,-0.41508 -1.47787,-0.83883 -2.48251,-1.22017c-0.52835,-0.20055 -1.53192,-0.59882 -2.50299,-0.74416c-0.90619,-0.13563 -1.7085,-0.11842 -2.46701,-0.40984c-0.87436,-0.33591 -1.71082,-0.62933 -2.64731,-0.64733c-0.89987,-0.0173 -1.80002,0 -2.70001,0c-0.75717,0 -1.65717,0 -2.60132,0c-1.00317,0 -1.63467,0 -2.82001,0c-0.80402,0 -1.62601,0 -2.65735,0c-0.69598,0 -1.60532,0 -2.604,0c-0.79648,0 -1.54797,0 -2.65598,0c-0.828,0 -1.66135,0 -2.63983,0c-0.82019,0 -1.72153,0 -2.62152,0c-0.92084,0 -1.884,-0.00146 -2.57465,0c-1.06818,0.00225 -1.91632,0.23424 -2.58252,0.7045c-0.71985,0.50813 -1.47275,0.92525 -2.40948,1.12884c-0.78046,0.16962 -1.65036,0.14608 -2.83334,0.33333c-0.60281,0.09541 -1.48724,0.33112 -2.31467,0.63467c-1.01068,0.37079 -1.66605,0.69547 -2.284,0.99867c-0.99936,0.49034 -1.73132,0.88407 -2.64868,1.14733c-0.90845,0.2607 -1.61859,0.42159 -2.586,1.05267c-0.55658,0.36308 -1.23453,1.137 -1.80264,1.6c-0.80585,0.65677 -1.6156,0.95487 -2.3425,1.72134c-0.43665,0.46042 -0.76532,1.23655 -1.43219,2.05333c-0.44034,0.53931 -1.26086,1.27372 -1.79999,1.872c-0.81146,0.90054 -1.18567,1.43878 -1.58932,1.968c-0.59464,0.77962 -1.38474,1.66245 -2.01068,2.13466c-0.63156,0.47646 -1.36981,0.96826 -2.142,1.66051c-0.55756,0.49983 -1.0947,1.04195 -1.88068,1.8235c-0.4827,0.47997 -1.13498,1.1665 -1.85065,1.67999c-0.70831,0.50819 -1.55621,0.8129 -2.30618,1.23933c-0.90134,0.51251 -1.45276,1.27782 -1.89249,1.76334c-0.71069,0.78471 -1.5354,1.15739 -1.94934,1.968c-0.41183,0.8065 -0.77286,1.58734 -1.46268,2.2115c-0.63159,0.57147 -0.78162,1.51686 -1.22617,2.28366c-0.48645,0.83913 -1.27319,1.1673 -1.47916,2.08333c-0.13843,0.61575 -0.26498,1.62766 -0.52084,2.4375c-0.25995,0.82278 -0.71042,1.80353 -0.95831,2.5c-0.40884,1.14865 -0.47269,1.96167 -0.54169,2.54167l-0.1485,0.94501" id="svg_1" stroke-width="2" stroke="#000" fill="none"/>
  <path t="1868,2051,2051,2051,2067,2067,2067,2082,2082,2083,2085,2085,2086,2086,2100,2100,2100,2109,2109,2109,2109,2121,2121,2121,2121,2137,2138,2138,2146,2147,2162,2162,2174,2175,2185,2185,2185,2195,2195,2195,2207,2207,2207,2219,2235,2235,2235,2244,2245,2255,2270,2285,2285,2302,2302,2302,2305,2305,2305,2318,2318,2318,2318,2318,2335,2335,2335,2335,2342,2343,2343,2343,2355,2355,2355,2355,2374,2374,2374,2390,2390,2390,2392,2392,2392,2393,2403,2404,2404,2404,2404,2419,2419,2420,2420,2420,2435,2435,2435,2436,2436,2440,2441,2453,2453,2453,2478,2478,2478" d="m273,162.89999c-2.39999,2.40001 -3.00049,2.9995 -3.60001,3.60001c-0.79935,0.80067 -1.40411,1.4012 -1.74283,1.85716c-0.68872,0.92712 -1.00986,1.77864 -1.40982,2.59018c-0.3927,0.79684 -0.89746,1.50581 -1.45801,2.17799c-0.38586,0.46271 -1.19891,1.45244 -1.57867,2.01067c-0.38586,0.5672 -1.06018,1.75667 -1.32532,2.364c-0.38849,0.88991 -0.58289,1.49931 -0.98535,2.7c-0.20102,0.59967 -0.49979,1.50008 -0.69998,2.10001c-0.3996,1.19746 -0.67773,2.06734 -0.90002,2.58566c-0.45639,1.06409 -1.04453,1.72382 -1.784,2.21567c-0.67947,0.45193 -1.52098,1.10123 -1.99516,1.79866c-0.55254,0.81267 -0.91661,1.40372 -1.4915,1.884c-0.76662,0.64044 -1.54535,1.12346 -2.08116,1.46333c-1.01758,0.64546 -1.7218,0.98294 -2.4615,1.45134c-0.8875,0.562 -1.6422,1.22058 -2.32266,1.60133c-0.75362,0.42168 -1.6142,0.71581 -2.29201,1.2c-0.83958,0.59975 -1.33676,1.15363 -2.07066,1.688c-0.55954,0.40742 -0.73947,1.48106 -0.7805,2.25366c-0.04567,0.86002 -0.02083,2.05966 -0.02083,2.66901c0,0.9465 0,1.95599 0,2.67467c0,0.75066 0.00006,1.52533 0,2.31599c-0.00009,1.19867 0.00549,1.99893 -0.02083,2.79866c-0.02634,0.8004 -0.13347,2.00192 -0.26317,2.79868c-0.12906,0.79277 -0.33006,1.55894 -0.54933,3.03467c-0.10088,0.67888 -0.11548,1.33319 -0.21935,2.26216c-0.13512,1.20856 -0.3056,1.79858 -0.52199,2.6685c-0.26556,1.06764 -0.35925,1.7894 -0.47801,2.74583c-0.10245,0.82501 -0.30368,1.80377 -0.44733,2.53183c-0.15123,0.76657 -0.34949,1.95685 -0.41467,2.75967c-0.06563,0.80817 -0.07869,1.63463 -0.084,2.48399c-0.00551,0.88132 -0.00133,1.79868 -0.00133,2.74001c0,0.94933 0,1.422 0,2.808c0,0.87866 0,1.70934 0,2.48399c0,0.71068 0,1.912 0,2.64101c0,1.04166 0,1.85233 0,2.72701l0,0.99733l0,0.79649l0,0.7515" id="svg_2" stroke-width="2" stroke="#000" fill="none"/>
  <path t="3468,3636,3649,3661,3662,3662,3676,3676,3676,3676,3676,3689,3689,3689,3690,3707,3707,3707,3707,3707,3709,3709,3709,3726,3726,3726,3734,3735,3745,3745,3758,3758,3770,3770,3785,3803,3803,3818,3819,3819,3820,3820,3820,3820,3834,3835,3845,3845,3845,3856,3856,3868,3868,3868,3868,3885,3886,3887,3894,3894,3894,3894,3906,3906,3906,3923,3924,3935,3935,3935,3943,3943,3954,3954,3968,3968,3968,3979,3979,3979,3991,3991,3991,3992,3992,4003,4003,4003,4020,4020,4020,4035,4035,4053,4053,4077,4077,4102,4102,4123,4123,4127,4127,4140,4140,4151,4168,4168,4168,4176,4176,4176,4188,4188,4189,4189,4201,4201,4202,4202,4218,4218,4218,4233,4233,4234,4234,4249,4249,4250,4251,4251" d="m239,249.89999c0.036,2.58934 0.54721,3.35666 0.83333,4.16667c0.23761,0.67268 0.166,1.69067 0.16667,2.69768c0.00053,0.80267 0,1.67734 0,2.13165c0,0.92267 0,2.2825 0,3.14685c0,0.83633 0,1.65265 0,2.85715c0,0.79868 0,1.58936 0,2.36401c0,0.75067 0,1.81448 0,2.79999c0,0.62534 0,1.836 0,2.72702c0,0.56732 0,1.77567 0,2.58817c0,0.84232 0,1.73148 0,2.72064c0,0.77936 0,1.77869 0,2.59885c0,0.83734 0.03688,1.86682 -0.05716,2.66299c-0.11421,0.96704 -0.37971,1.77145 -0.5175,2.349c-0.28244,1.1839 -0.36969,2.08511 -0.42534,2.66852c-0.07974,0.83591 -0.33241,2.07391 -0.61067,2.71014c-0.44997,1.02881 -0.78906,1.61081 -1.18933,2.41068c-0.40108,0.80145 -0.82118,1.64459 -1.36667,2.56668c-0.30901,0.52234 -0.83771,1.33057 -1.18066,1.88065c-0.63972,1.02612 -0.99274,1.74957 -1.46249,2.34818c-0.67191,0.8562 -1.45006,1.40643 -1.97551,1.8045c-0.53053,0.40192 -1.52782,1.20041 -2.19383,1.77917c-0.61809,0.53711 -1.43498,1.11438 -2,1.52081c-0.87961,0.63272 -1.40154,1.32657 -1.71632,1.90451c-0.53326,0.97903 -0.84824,1.79684 -1.40468,2.57416c-0.48883,0.68289 -1.24684,1.31985 -1.71449,1.86801c-0.50455,0.5914 -0.96808,1.56949 -1.13467,2.39999c-0.11967,0.59662 -0.36351,1.92706 -0.62,2.63733c-0.27061,0.74939 -0.62032,1.48874 -0.948,2.23199c-0.46718,1.05966 -0.75687,1.71078 -1.036,2.63733c-0.32184,1.0683 -0.31769,1.7988 -0.49934,2.58502c-0.21582,0.93402 -0.76923,1.53268 -1.24733,2.31433c-0.41827,0.68381 -1.02882,1.57303 -1.5,2.23132c-0.53372,0.74567 -0.90103,1.46268 -1.4955,2.36334c-0.41989,0.63617 -0.63271,1.59674 -0.7885,2.354c-0.20753,1.0087 -0.68013,1.71136 -0.85884,2.646c-0.17299,0.90472 -0.02217,1.60464 -0.14249,2.43933c-0.14531,1.00806 -0.43124,1.83551 -0.61917,2.41785c-0.38678,1.19852 -0.60147,1.7981 -0.89551,2.73148c-0.20415,0.64807 -0.50955,1.6828 -0.6955,2.41669c-0.28336,1.11832 -0.44249,1.85995 -0.58333,2.92581c-0.08755,0.66257 -0.08987,1.63544 -0.4545,2.8215c-0.1891,0.61508 -0.51846,1.19489 -1.01851,2.04285c-0.61484,1.04263 -1.0015,1.72116 -1.2865,2.35266l-0.27634,1.00317l-0.07466,0.76532" id="svg_3" stroke-width="2" stroke="#000" fill="none"/>
  <path t="4980,5174,5174,5191,5191,5207,5207,5207,5221,5221,5222,5223,5223,5239,5239,5247,5247,5258,5258,5271,5284,5285,5301,5301,5301,5309,5309,5326,5326,5326,5326,5336,5336,5336,5345,5345,5345,5357,5357,5370,5370,5385,5385,5395,5407,5407,5407,5419,5419,5419,5441,5441,5441,5443,5443,5443,5459,5459,5468,5468,5469,5485,5485,5493,5494,5505,5505,5518,5518,5518,5535,5535,5535,5536,5545,5545,5545,5545,5545,5562,5562,5562,5562,5562,5570,5570,5570,5570,5591,5591,5591,5591,5593,5593,5593,5604,5604,5604,5604,5619,5619,5634,5635,5641,5641,5642,5642,5657,5657,5657,5657,5657,5657,5673,5674,5674,5674,5674,5674,5674,5674,5677,5678,5678,5678,5678,5678,5678,5689,5690,5690,5690,5690,5702,5702,5702,5702,5702,5718,5719,5719,5719,5719,5727,5727,5727,5728,5728,5728,5738,5738,5738,5738,5738,5739,5739,5739,5752,5752,5753,5753,5753,5753,5753,5753,5772,5772,5772,5772,5772,5772,5773,5796,5796,5796,5797,5797,5805,5805,5805,5805,5806,5806,5806,5818,5818,5818,5819,5819,5825,5826,5826,5826,5826,5826,5827,5837,5838,5838,5838,5838,5838,5839,5839,5852,5852,5852,5852,5853,5853,5853,5853,5853,5873,5873,5873,5873,5874,5874,5874,5874,5874,5876,5877,5877,5877,5877,5877,5878,5878,5878,5891,5891,5892,5892,5892,5892,5893,5893,5893,5907,5908,5908,5908,5908,5908,5909,5909,5919,5919,5920,5920,5920,5924,5924,5924,5925,5936,5936,5936,5951,5952,5952,5952,5961,5962,5962,5962,5962,5972,5972,5972,5973,5973,5973,5989,5989,5989,5989,5990,5990,5990,6005,6005,6005,6005,6006,6006,6009,6010,6010,6011,6022,6022,6022,6035,6035,6052,6052,6082,6084,6085,6096,6231,6232,6233,6233,6236,6237,6237,6238,6239,6239,6240,6240,6241,6251,6251,6252,6252,6252,6253,6253,6254,6254,6256,6257,6257,6257,6258,6268,6269,6280,6280,6281,6298,6298,6314,6314,6327,6328,6330,6330,6330,6341,6354,6369,6370,6385,6392,6404,6404,6424,6439,6440,6442,6442,6442,6452,6453,6453,6469,6469,6477,6478,6478,6489,6490,6502,6519,6519,6537,6546,6546,6555,6568,6569,6569,6576,6577,6577,6588,6588,6589,6601,6602,6618,6618,6619,6619,6625,6626,6626,6640,6640,6641,6660,6660,6663,6663,6664,6674,6674,6675,6687,6701,6718,6719,6724,6724,6735,6765,6766,6774,6785,6785,6801,6802,6811,6821,6822,6840,6841,6841,6857,6857,6857,6859,6860,6884,6884,7216,7217,7328,7354,7376,7635,7659,7683,7703,7704,7720,7751,7763,7779,7782,7807,7808,7821,7836,7922,7933,7942,7942,7955,7956,7974,7974,7985,7985,7986,7992,7992,8003,8003,8018,8018,8035,8040,8041,8052,8053,8068,8069,8069,8077,8078,8093,8114,8114,8139,8151,8226,8242,8283,8287,8311,8348,8393,8435,8459,8460,8477,8500,8501,8516,8517,8518,8518,8520,8521,8532,8545,8545,8570,8593,8598,8615,8632,8643,8644,8668,8686,8705,8742,8742,8797,8817,8853,8878,8891,8901,8918,8926,8927,8940,8958,8959,8968,8969,8969,8976,8977,8977,8987,9013" d="m206,359.89999c0,2.60001 0,3.60001 0,4.40134c0,0.83466 0,2.02002 0,2.82401c0,0.54935 0,1.85318 0,2.53867c0,0.83466 0,1.836 0,2.63599c0,1 0,1.80002 0,2.79984c0,0.77936 -0.16806,1.81418 0.08533,2.59885c0.25591,0.79245 0.82704,1.68851 0.94,2.448c0.13693,0.92068 0.29774,1.71326 0.58534,2.492c0.34865,0.94403 0.85583,1.57306 1.38933,2.59467c0.34447,0.65964 0.60251,1.48715 0.8,2.06934c0.40514,1.19424 0.58698,1.79135 0.89999,2.64017c0.38412,1.04166 0.69359,1.72427 1.10001,2.55582c0.3925,0.80307 0.83086,1.54321 1.116,2.51733c0.22086,0.75452 0.40549,1.78302 0.88533,2.31467c0.61736,0.68399 1.74562,0.77747 2.46001,1.00534c0.79536,0.25369 1.81877,0.66064 2.51334,0.96399c0.67943,0.29675 1.64015,0.71863 2.45065,0.98935c0.81589,0.27255 1.85275,0.49237 2.53868,0.58533c0.83417,0.11304 1.8448,0.36288 2.63599,0.72983c0.80968,0.37552 1.60574,0.82263 2.28534,1.01016c0.98055,0.27057 1.79382,0.2655 2.98134,0.28534c0.67198,0.01123 1.66263,0.20389 2.35416,0.52084c0.99098,0.45422 1.57478,0.79871 2.43634,1.17917c0.95529,0.42188 1.50404,0.6156 2.42549,0.89999c0.68585,0.21167 1.85854,0.50723 2.72717,0.6955c0.4507,0.09769 1.37265,0.28732 2.3075,0.41916c1.35759,0.19144 1.79712,0.20459 2.64667,0.26001c0.82513,0.0538 1.63846,0.07953 2.83583,0.24667c0.79869,0.11148 1.57716,0.29044 2.343,0.42599c1.43193,0.25345 2.10057,0.29346 3.04651,0.37799c0.60973,0.05447 1.81412,0.24689 2.41068,0.41068c0.90567,0.24869 1.79724,0.57248 2.6955,0.8595c0.86594,0.2767 1.40753,0.49445 2.64734,0.64734c0.84787,0.10455 1.85849,0.05716 2.478,0.05716c1.14581,0 1.94983,0 2.5625,0c1.07397,0 1.91666,0.00226 2.87399,-0.00131c0.51868,-0.00195 1.62613,-0.01529 2.21066,-0.03467c1.22168,-0.04053 2.49902,-0.12659 3.15332,-0.18552c0.66309,-0.05972 1.33234,-0.1279 2.67868,-0.29932c0.67517,-0.08597 1.3476,-0.18173 2.01599,-0.28052c1.31793,-0.19479 2.59616,-0.39761 3.21783,-0.49866c0.60901,-0.099 1.20447,-0.19556 2.34735,-0.39999c0.54721,-0.09787 2.07773,-0.39236 3.009,-0.60452c0.44937,-0.10239 1.32901,-0.31628 2.19247,-0.58081c1.34613,-0.41241 1.80219,-0.59644 2.74268,-0.94c0.4751,-0.17355 1.41672,-0.53735 2.80801,-1.008c0.4437,-0.15009 1.31146,-0.41885 2.16666,-0.64584c0.85025,-0.22568 2.16629,-0.52258 2.62183,-0.62085c0.94357,-0.20355 1.43469,-0.30426 2.46085,-0.5c0.53574,-0.1022 2.25037,-0.40192 2.8605,-0.49982c0.62851,-0.10083 1.27438,-0.20532 2.61932,-0.37933c0.69418,-0.08981 1.40302,-0.17056 2.12549,-0.2355c1.47748,-0.13278 2.23303,-0.16705 2.99469,-0.20132c0.76538,-0.03442 1.53198,-0.05859 2.29648,-0.08401c0.75952,-0.02524 1.51273,-0.02359 3.6875,-0.16666c0.69052,-0.04544 1.35904,-0.11404 2.00552,-0.186c0.62418,-0.06949 1.79825,-0.22382 2.34732,-0.29468c1.47986,-0.19095 2.33234,-0.25241 3.11517,-0.35931c0.78033,-0.10657 1.6163,-0.29681 2.53198,-0.66c1.08591,-0.43069 1.64316,-0.75067 2.224,-1.06668c0.59232,-0.32224 1.19263,-0.64203 2.28802,-1.38666c1.00775,-0.68509 1.80634,-1.38681 2.1445,-1.72733c0.63159,-0.63599 1.15649,-1.31555 2.01016,-2.31934c0.30536,-0.35904 0.98312,-1.10208 1.33865,-1.50134c0.75388,-0.84662 1.14795,-1.29922 1.53067,-1.78934c1.23361,-1.57974 1.60269,-2.1969 2.00635,-2.81415c0.4151,-0.6347 0.83115,-1.29199 1.26297,-1.96051c0.44083,-0.68246 0.88068,-1.38461 1.86136,-2.76801c0.50085,-0.70654 1.03391,-1.40482 1.59,-2.10001c0.56387,-0.70493 1.15442,-1.40491 1.76999,-2.09998c0.62439,-0.70502 1.26514,-1.41461 2.64001,-2.80002c0.70181,-0.70718 1.4313,-1.40094 2.172,-2.091c0.74197,-0.69125 1.49255,-1.36969 2.24399,-2.03699c0.74326,-0.66 1.47998,-1.30444 2.91733,-2.53867c0.68906,-0.59167 1.36136,-1.1629 2.01901,-1.71451c0.64105,-0.53769 1.27081,-1.05862 1.89301,-1.56149c0.61053,-0.49344 1.21173,-0.97845 2.42133,-1.89066c0.5961,-0.44952 1.19516,-0.8812 1.7865,-1.30502c0.58066,-0.41617 1.15167,-0.81903 1.70551,-1.215c0.53717,-0.38406 1.06082,-0.74844 2.008,-1.47998c0.43982,-0.33969 0.84665,-0.67847 1.233,-1.005c0.37094,-0.31351 0.72409,-0.62146 1.07098,-0.91501c0.33847,-0.28644 1.35287,-1.09488 2.07867,-1.56134c0.72256,-0.46439 1.46469,-0.86029 2.14801,-1.284c0.93869,-0.58203 1.48138,-0.97803 2.14801,-1.63733c0.43665,-0.43185 1.2402,-1.43503 1.59998,-2c0.54016,-0.84827 0.92328,-1.75583 1.116,-2.66849c0.12918,-0.61179 0.23199,-1.59268 0.548,-2.61734c0.2326,-0.75424 0.56445,-1.53824 0.70667,-1.96085c0.29764,-0.88443 0.62006,-2.35876 0.68002,-2.888c0.12448,-1.09869 0.13458,-1.67081 0.14932,-2.25067c0.03003,-1.18109 0.02133,-2.37866 0.02133,-2.97867c0,-1.19998 0,-1.79999 0,-2.39999c0,-1.19998 -0.00067,-1.79999 0,-3c0.00067,-1.19598 -0.00308,-1.78662 0.02084,-2.9375c0.01154,-0.5546 -0.01062,-1.09525 0.14581,-2.5625c0.09033,-0.84732 0.26801,-1.58994 0.48068,-2.58649c0.19458,-0.91171 0.27637,-1.80704 0.37799,-2.64151c0.11475,-0.94229 0.60178,-1.7049 0.85318,-2.59332c0.23428,-0.82797 0.12149,-1.79333 0.12149,-2.67868c0,-0.79999 0.10052,-1.71661 -0.09601,-2.59198c-0.15213,-0.67764 -0.41278,-1.13943 -0.672,-1.74402c-0.71631,-1.67081 -1.22177,-2.74908 -1.78934,-3.97598c-0.61856,-1.33719 -1.27927,-2.74496 -1.9635,-4.18802c-0.68512,-1.44498 -1.35788,-2.85416 -2.00848,-4.18799c-1.12961,-2.3158 -1.59293,-3.22781 -1.98801,-3.97467c-0.32071,-0.60629 -0.58612,-1.08401 -0.81601,-1.4415c-0.17493,-0.27203 -0.31818,-0.4711 -0.45599,-0.58652c-0.19504,-0.16336 -0.30978,-0.19098 -0.41199,-0.22531c-0.1022,-0.03436 -0.33405,-0.03867 -1.284,-0.36801c-0.73828,-0.25598 -1.51205,-0.56497 -2.31467,-0.69067c-0.79773,-0.12494 -1.78735,-0.41498 -2.60001,-0.67267c-0.98669,-0.3129 -1.80014,-0.33447 -2.80002,-0.35281c-0.80011,-0.01468 -1.80875,-0.1412 -2.58932,-0.42517c-0.73434,-0.26715 -1.62131,-0.44983 -2.51065,-0.92734c-0.74811,-0.4017 -1.5,-0.64667 -2.40002,-0.64734c-0.93597,-0.0007 -1.784,0 -2.64731,0c-0.90002,0 -1.81934,0 -2.67352,0c-0.97916,0 -1.78983,0 -2.66449,0c-0.99866,0 -1.81467,0 -2.63068,0c-1,0 -1.68399,0 -2.85065,0c-0.78152,0 -1.5722,-0.01831 -2.5,0c-0.91254,0.01801 -1.69263,0.53992 -2.5,0.83334c-0.77954,0.28333 -1.62579,0.57565 -2.05484,1.26666c-0.47949,0.77222 -1.15964,1.33923 -1.94516,1.89999c-0.63641,0.45432 -1.4201,0.92212 -1.94934,1.76935c-0.44711,0.71576 -0.56848,1.32336 -1.20532,2.30899c-0.45718,0.70755 -1.03629,1.25 -1.79468,2.039c-0.51642,0.53729 -1.19815,1.43094 -1.54565,1.888c-0.57281,0.75342 -0.96512,1.30783 -2.02234,2.02533c-0.51535,0.34976 -1.39853,0.65833 -2.3945,1.2905c-0.71313,0.45267 -1.26843,1.06509 -2.12152,1.43619c-0.7666,0.33347 -1.82153,0.54364 -2.39999,0.95248c-0.62518,0.44186 -1.38644,1.14423 -2.18933,1.65417c-0.71381,0.45337 -1.43329,0.96112 -2.21066,1.46933c-0.81342,0.5318 -0.79022,1.37683 -1.56799,1.99866c-0.60641,0.48483 -1.07108,0.98483 -1.59866,1.83469c-0.39224,0.63187 -0.78781,1.35501 -0.8335,2.31198c-0.03702,0.77524 -0.38837,1.65988 -0.64719,2.36868c-0.36871,1.0098 -0.35266,1.97433 -0.35266,2.69434c0,1.125 0,1.91098 0,2.733c0,1.05865 0,1.76816 0,2.62082c0,1.00449 0,1.8045 0,2.80432c0,0.77936 0,1.77869 0,2.49567c0,0.90451 -0.18582,1.93451 0.436,2.69385c0.52249,0.63803 1.5961,0.89218 1.56384,1.71066c-0.03604,0.91455 -0.80002,1.55261 -0.979,2.39999c-0.18604,0.8808 -0.02084,1.80002 -0.02084,2.70001c0,0.89999 0,1.79999 0,2.60001c0,0.89999 -0.42636,1.91736 0.03601,2.76398c0.35669,0.65314 1.44931,0.436 2.3685,0.436c0.99548,0 1.7955,0 2.7955,0c0.79999,0 1.79999,0 2.59998,0c0.80002,0 1.80002,0.00052 2.60001,0c0.99869,-0.00067 1.81332,0.10696 2.71466,-0.284c0.74222,-0.32193 1.5899,-0.68079 2.18533,-1.43033c0.4986,-0.62769 0.74207,-1.51981 1.22086,-2.26483c0.57892,-0.90085 1.16702,-1.22302 1.82648,-1.7735c0.81302,-0.67868 1.24976,-1.40628 1.56866,-2.362c0.29123,-0.87283 0.62976,-1.63495 1.58401,-1.8645c0.8652,-0.20813 1.57758,-0.4469 2.07468,-1.04617c0.5101,-0.61496 0.42532,-1.57468 0.42532,-2.47467c0,-0.89999 0,-1.79999 0,-2.69998c0,-0.90018 0,-1.68533 0,-2.62534c0,-1.008 0,-1.71634 0,-2.67468c0,-0.858 0,-1.5 0,-2.448c0,-1.185 0,-1.93332 0,-2.87732c0,-1.008 -0.1673,-1.78342 0.02084,-2.67468c0.17886,-0.84741 0.52173,-1.86575 1.20065,-2.37848c0.70773,-0.53448 1.73679,-0.35547 2.47852,-0.76886c0.76367,-0.42563 1.5033,-0.89584 2.39999,-1.23114c0.85065,-0.31808 1.69998,-0.12152 2.60001,-0.12152c0.89999,0 1.85196,-0.28909 2.68933,0.01068c0.73672,0.26373 1.35889,0.98752 1.57465,1.85065c0.2359,0.94363 0.03601,1.72803 0.03601,2.65952c0,0.96582 0,1.72583 0,2.64584c0,0.78598 0,1.608 0,2.66666c0,0.91998 0,1.67999 0,2.64584l0,0.92081" id="svg_4" stroke-width="2" stroke="#000" fill="none"/>
  <path t="10380,10528,10551,10577,10577,10577,10593,10593,10593,10593,10603,10603,10603,10603,10619,10619,10619,10619,10626,10626,10626,10626,10638,10638,10638,10638,10653,10653,10653,10653,10653,10669,10669,10669,10669,10669,10669,10674,10674,10674,10675,10675,10675,10689,10689,10689,10689,10707,10707,10707,10707,10707,10712,10712,10712,10712,10712,10724,10724,10724,10724,10725,10736,10736,10736,10736,10736,10736,10752,10752,10752,10752,10762,10762,10762,10772,10773,10773,10787,10787,10788,10816,10816,10816,10825,10825,10825,10825,10825,10835,10835,10835,10835,10852,10852,10852,10852,10852,10860,10860,10860,10860,10872,10873,10873,10873,10873,10873,10886,10886,10886,10907,10907,10907,10910,10911,10924,10936,10958,10958,10969,10986,10986,10995,11008,11008,11024,11024,11039,11039,11039,11045,11045,11045,11056,11056,11056,11069,11069,11085,11094,11094,11105,11126,11126,11141,11141,11144,11144,11155,11155,11156,11169,11169,11169,11185,11185,11186,11192,11192,11192,11192,11192,11204,11204,11204,11205,11235,11235,11236,11236,11251,11251,11251,11251,11251,11252,11254,11254,11254,11265,11265,11266,11278,11278,11278,11297,11297,11303,11327,11327,11357,11358,11370,11370,11378,11413,11444,11444,11462,11475,11484" d="m352,327.89999c-0.05716,1.70001 -0.52432,2.51834 -1.10068,3.32135c-0.4856,0.67654 -1.00864,1.25858 -1.88483,1.65732c-0.70773,0.32208 -1.5416,0.50177 -2.36099,0.77402c-1.16302,0.38644 -1.8024,0.72623 -2.36685,1.06198c-0.79062,0.47028 -1.92679,0.9552 -2.59198,1.0845c-0.69229,0.13458 -1.77966,0.25119 -2.65182,0.76517c-0.57553,0.33917 -1.24698,1.1413 -1.72552,1.65433c-0.72305,0.77518 -1.29501,1.21082 -2.09198,1.97867c-0.55954,0.53909 -1.0856,1.1861 -1.54135,1.95734c-0.4881,0.82599 -0.67542,1.29132 -1.13666,2.20166c-0.70102,1.38367 -0.9559,1.83032 -1.50449,2.68652c-0.27249,0.42529 -0.85086,1.24841 -1.14734,1.65265c-0.88763,1.2103 -1.4946,2.00287 -1.79102,2.39999c-0.58447,0.78308 -1.1489,1.5462 -1.41916,1.91919c-0.76846,1.06061 -1.22784,1.7316 -1.68533,2.3645c-0.44797,0.61975 -1.41168,1.82983 -1.96167,2.41632c-0.28,0.29858 -0.86487,0.89282 -1.52499,1.41916c-1.00571,0.80185 -1.76276,1.24725 -2.55499,1.64368c-0.80823,0.40442 -1.23163,0.59525 -2.57983,1.02017c-0.92731,0.29227 -1.41281,0.39304 -2.38919,0.61084c-0.49298,0.10995 -1.98941,0.41025 -2.48898,0.51065c-0.99149,0.19925 -1.95911,0.39798 -2.42834,0.5c-0.90219,0.19614 -2.12918,0.49921 -2.85767,0.6955c-0.99323,0.26761 -1.60513,0.46307 -2.81433,0.62051c-0.89633,0.1167 -1.50742,0.09042 -2.69983,0.30533c-0.60031,0.10818 -1.45398,0.39987 -2.53351,0.612c-0.92368,0.18149 -1.57745,0.16092 -2.57065,0.452c-0.67111,0.19669 -1.44501,0.54065 -2.46033,0.81451c-0.79767,0.21515 -1.67551,0.38986 -2.59201,0.543c-0.46149,0.07712 -1.82129,0.24899 -2.68649,0.29999c-0.83566,0.04926 -1.65268,0.0549 -2.85718,0.05716c-0.79999,0.0015 -1.60001,0 -2.39999,0c-0.80002,0 -2.00018,0 -2.8045,0c-0.81635,0 -1.65268,0 -2.96216,0c-0.4545,0 -1.3815,0 -2.3125,0c-0.91101,0 -1.3515,0 -2.57767,0c-1.06052,0 -1.68585,0 -2.77652,0c-0.93066,0 -1.76532,0 -2.76215,0c-0.74734,0 -1.76852,0 -2.70901,0c-0.86215,0 -1.8768,0.30661 -2.58566,-0.35715c-0.59369,-0.55591 -0.95462,-1.41125 -1.09915,-2.27884c-0.13959,-0.83786 -0.00781,-1.78412 -0.29468,-2.76401c-0.17917,-0.61203 -0.59827,-1.59363 -0.67999,-2.41068c-0.08713,-0.871 -0.03601,-1.87466 -0.03601,-2.71014c0,-0.58368 0,-1.77884 0,-2.65784c0,-0.80701 0,-1.85068 0,-2.61868c0,-0.95984 -0.00537,-1.85535 0,-2.71866c0.00534,-0.85873 0.18582,-1.8222 0.52084,-2.48401c0.43414,-0.8576 0.9523,-1.54614 1.80066,-2.09982c0.66626,-0.43481 1.68155,-0.7182 2.47849,-0.8855c0.80341,-0.16864 1.60406,-0.58032 2.22086,-1.03549c0.66745,-0.49255 1.65753,-1.11703 2.23648,-1.34317c0.94736,-0.37006 2.07565,-0.63757 2.90933,-0.83734c0.43399,-0.104 1.32129,-0.28961 2.17084,-0.55585c1.17612,-0.36859 1.83176,-0.69348 2.62085,-1.26364c0.50146,-0.36234 1.46646,-1.17548 1.99881,-1.59268c0.56723,-0.44455 1.19241,-0.91656 2.04285,-1.88651c0.63367,-0.72272 0.90164,-1.15378 1.47916,-2c0.28793,-0.42191 0.80991,-1.26642 1.59918,-2.33548c0.44577,-0.60379 1.11523,-1.30118 1.755,-2.16452c0.43323,-0.58459 0.8082,-1.21524 1.04532,-2.42117c0.15421,-0.78427 0.02969,-1.61203 0.40533,-2.60815c0.26636,-0.7063 0.64362,-1.51596 1.00134,-2.45465c0.27188,-0.71341 0.89279,-1.44513 1.27866,-2.14136c0.44925,-0.81061 0.34866,-1.79852 1.04666,-2.38931c0.68295,-0.57806 1.48935,-1.08517 2.08936,-1.62817l0.77914,-0.35718l0.57352,-0.64734l0.66333,-0.43665" id="svg_5" stroke-width="2" stroke="#000" fill="none"/>
  <path t="14311,14467,14481,14504,14504,14537,14537,14540,14540,14552,14552,14552,14563,14563,14563,14576,14576,14588,14588,14601,14601,14624,14626,14662,15009,15028,15046,15083,15091,15094,15094,15106,15106,15121,15121,15137,15137,15137,15142,15142,15142,15154,15155,15155,15201,15202,15202,15202,15205,15205,15205,15205,15228,15228,15229,15241,15254,15311,15311,15351,15575,15605,15608,15608,15610,15610,15610,15626,15626,15626,15637,15637,15637,15653,15653,15653,15658" d="m295,312.89999c1.70001,-0.05716 2.47693,-0.61188 3.32132,-0.87866c0.82562,-0.26086 1.79727,-0.40274 2.43134,-0.82584c0.73572,-0.49094 1.45523,-0.90103 2.44751,-1.39551c0.60883,-0.30338 1.47717,-0.72064 2.48383,-1.09866c0.53729,-0.20175 1.35397,-0.48965 2.39435,-0.67999c0.87384,-0.15988 1.87982,-0.38306 2.547,-0.69598c0.83615,-0.39218 1.72198,-0.42249 2.61749,-0.42535c0.95584,-0.00305 1.41608,-0.90991 2.1825,-0.95334c0.79636,-0.04514 0.86542,1.50592 0.564,2.34268c-0.27515,0.76376 -1.16098,1.20206 -1.62531,1.79599c-0.64563,0.82584 -1.39108,1.25284 -2.19736,1.81467c-0.55054,0.38364 -1.17697,1.16055 -1.57733,1.84668c-0.35574,0.60968 -0.90808,1.57629 -1.41467,2.37866c-0.34753,0.55045 -1.03726,1.59219 -1.41299,2.32199c-0.34222,0.6647 -0.5932,1.61963 -0.71799,2.41434c-0.13901,0.88531 -0.23483,1.55243 -0.70782,2.55951c-0.35239,0.75034 -0.85406,1.45978 -1.33502,2.16901c-0.66388,0.97897 -1.07306,1.51407 -1.43832,2.24731c-0.50406,1.01187 -0.72244,1.93396 -1.5625,2.0625c-0.79526,0.12167 -1.87955,0.52298 -1.95334,1.39999c-0.06989,0.83063 0.94034,1.50751 1.62534,1.58936c1.09094,0.13034 1.86966,0.01065 2.43701,0.01065c1.19098,0 2.091,0 2.69098,0c1.20001,0 2.09552,0 2.96402,0c1.06934,0 1.77432,0 2.57434,0l1.02567,0" id="svg_6" stroke-width="2" stroke="#000" fill="none"/>
  <path t="18458,18613,18625,18626,18626,18626,18641,18641,18642,18656,18656,18657,18657,18662,18662,18663,18663,18688,18688,18688,18697,18697,18697,18716,18716,18716,18727,18735,18750,18750,18760,18760,18771,18771,18785,18785,18785,18803,18803,18808,18809,18809,18821,18821,18821,18833,18834,18850,18850,18857,18857,18858,18870,18888,18888,18905,18907,18907,18931,18932,18944,18945,18945,18959,18973,18973,18983,18983,18983,19001,19002,19002,19017,19017,19017,19017,19018,19019,19019,19019,19032,19033,19042,19042,19043,19066,19067,19092,19093,19119,19134,19141,19142,19152,19167,19167,19178,19178,19178,19178,19189,19189,19202,19202,19222,19222,19223,19223,19239,19239,19239,19240,19240,19250,19251,19251,19267,19267,19277,19277,19277,19289,19290,19290,19303,19303,19303,19304,19304,19317,19317,19317,19325,19325,19326,19326,19342,19342,19342,19350,19350,19367,19367,19374,19386,19386,19401,19417,19423,19438,19439,19439,19460,19461,19485,19501" d="m378,192.89999c0.03201,-1.82533 0.46771,-2.88203 1.0715,-3.24733c0.72662,-0.43961 1.34857,-0.60562 2.5285,-1.23666c0.6087,-0.32555 1.17966,-0.72911 2.39999,-1.34933c0.59076,-0.30025 1.19568,-0.54269 2.10001,-0.86217c0.89584,-0.31648 1.80594,-0.58286 2.664,-0.94049c0.55795,-0.23256 1.552,-0.84801 2.23599,-1.36401c0.68399,-0.51599 1.40945,-1.00432 2.22534,-1.364c0.811,-0.35753 1.85291,-0.73607 2.52798,-1.02533c0.75989,-0.32561 1.79623,-0.47978 2.54666,-0.96783c0.79672,-0.51816 1.21844,-1.12491 1.90002,-1.84416c0.51425,-0.54268 1.10791,-1.45161 1.39999,-2.00934c0.51422,-0.98192 0.86578,-1.81044 1.28534,-2.304c0.68924,-0.81082 1.54196,-1.20738 2.31467,-1.80666c0.6192,-0.48021 1.16144,-1.07822 2,-1.65701c0.76779,-0.52995 1.38965,-0.78474 2.39999,-0.96899c0.79379,-0.14476 1.81128,-0.31149 2.60001,-0.66333c0.81253,-0.36244 1.56573,-0.83745 2.31467,-1.104c0.96115,-0.34209 1.80664,-0.28474 2.65997,-0.28534c0.94,-0.00067 1.92136,-0.22729 2.46133,-0.61066c0.84293,-0.59845 1.57468,-0.98933 2.36401,-1.38934c0.78934,-0.39999 1.48907,-0.8392 2.37466,-1.38933c0.77127,-0.47911 1.46091,-0.59267 2.62534,-0.61067c0.81058,-0.01254 1.45715,0 2.42166,0c0.82501,0 1.73999,0 2.745,0c0.71735,0 1.83334,0 2.58069,0c1.086,0 1.76688,0.02449 2.711,-0.02083c0.85641,-0.04111 1.85474,-0.27263 2.54166,-0.47917c1.16196,-0.3494 1.9473,-0.4615 2.73868,-0.48932c0.92746,-0.03259 1.74048,-0.01068 2.74533,-0.01068c0.69064,0 1.76242,-0.07822 2.616,0.00017c0.91144,0.08369 1.60187,0.68097 1.89999,1.52068c0.27798,0.783 0.54117,1.51239 1,2.64583c0.20795,0.51367 0.51218,1.32451 0.71466,2.14934c0.24261,0.98837 0.17535,1.94962 0.85602,2.80133c0.38718,0.48448 1.44193,1.20473 1.82932,1.65067c0.62073,0.71452 0.94235,1.28395 1.79984,2.08917c0.55487,0.52104 1.3938,0.95822 2.043,1.8c0.3988,0.51709 0.85718,1.54283 1.15717,2.14282c0.39999,0.8 0.90002,1.79999 1.20001,2.40001c0.50003,1.00015 0.81845,1.60245 1.19998,2.48534c0.3154,0.72987 0.61227,1.55739 0.90002,2.47632c0.31342,1.0009 0.50711,1.72021 0.68933,2.46367c0.18317,0.74731 0.37173,1.48482 0.52533,2.88934c0.0708,0.64734 0.08307,1.58081 0.08533,2.48532c0.00223,0.90001 0,1.8 0,2.40001c0,1.19867 0,2.07916 0,2.91466c0,0.99867 0,1.83867 0,2.80135c0,0.76799 0,1.70934 0,2.71733c0,0.756 0,1.66666 0,2.56667c0,0.909 0,1.93333 0,2.60533c0,0.744 0,1.85167 0,2.68567l-0.05716,0.95183l-0.74417,0.35583" id="svg_7" stroke-width="2" stroke="#000" fill="none"/>
  <path t="21899,22081,22096,22097,22097,22111,22111,22111,22111,22111,22122,22122,22122,22122,22135,22135,22135,22143,22143,22143,22158,22158,22158,22158,22174,22174,22174,22191,22191,22191,22191,22191,22193,22193,22193,22193,22205,22205,22205,22205,22205,22205,22205,22217,22217,22217,22217,22217,22217,22217,22217,22217,22233,22233,22233,22233,22233,22233,22233,22233,22233,22242,22242,22242,22242,22242,22242,22242,22254,22254,22254,22254,22266,22266,22267,22287,22298,22298,22306,22306,22316,22333,22333,22340,22340,22340,22352,22352,22353,22367,22367,22368,22368,22388,22389,22389,22389,22390,22390,22390,22391,22391,22391,22406,22406,22406,22406,22416,22417,22417,22426,22426,22426,22438,22562,22576,22577,22740,22759,22771,22771,22790,22790,22790,22790,22804,22805,22805,22805,22805,22807,22808,22808,22808,22808,22808,22821,22821,22821,22821,22821,22833,22833,22833,22834,22834,22834,22850,22850,22850,22850,22857,22857,22857,22857,22869,22869,22870,22883,22884,22894,22894,22906,22906,22906" d="m461,211.89999c1.38934,3.33867 1.86472,4.16107 1.97467,4.86801c0.10947,0.70381 0.24402,1.99661 0.37799,2.79449c0.07126,0.42441 0.23444,1.29558 0.36334,2.17084c0.17987,1.22124 0.24258,1.95172 0.27332,2.94533c0.01913,0.61844 0.01068,1.82133 0.01068,2.72133c0,0.60001 0,1.8 0,2.70001c0,0.59999 0.01001,1.80009 -0.00449,2.7c-0.00967,0.60013 -0.02655,1.51036 -0.28217,2.70132c-0.1322,0.61598 -0.4574,1.56308 -0.88,2.56534c-0.30475,0.72278 -0.66046,1.45784 -1.008,2.20801c-0.34308,0.74052 -0.81232,1.80109 -1.07269,2.48166c-0.26102,0.68219 -0.50641,1.41031 -0.91931,2.64366c-0.32086,0.95839 -0.49417,1.48079 -0.68002,2.02934c-0.39822,1.17528 -0.61343,1.79904 -0.84,2.44533c-0.47672,1.35983 -0.73358,2.06863 -0.99866,2.79468c-0.27054,0.74097 -0.54932,1.49249 -0.83551,2.2515c-0.28845,0.76501 -0.5813,1.53192 -0.88049,2.29651c-0.59399,1.51782 -0.89688,2.26172 -1.19867,2.996c-0.29825,0.72571 -0.59818,1.44077 -0.89999,2.14499c-0.29819,0.69577 -0.59717,1.38129 -0.89999,2.05499c-0.59445,1.32251 -1.19666,2.59766 -1.491,3.216c-0.28702,0.60297 -0.57022,1.18597 -1.09467,2.29468c-0.24503,0.51801 -0.87918,1.90808 -1.20001,2.69998c-0.27954,0.68994 -0.48108,1.31512 -0.91434,2.35434c-0.28424,0.68176 -0.63962,1.48096 -1.29999,2.28568c-0.64435,0.78519 -1.26184,1.23767 -1.51599,2.11865c-0.22699,0.7869 -0.79474,1.47775 -1.384,2.23169c-0.49362,0.63156 -0.81213,1.48001 -1.20001,2.30649c-0.30975,0.66 -0.71985,1.65768 -0.97916,2.5c-0.17834,0.57935 -0.40845,1.77838 -0.46817,2.38367c-0.09177,0.93024 -0.10864,1.58511 -0.33667,2.98349c-0.12589,0.77203 -0.29819,1.59348 -0.36334,2.03085c-0.21024,1.4111 -0.27075,2.44769 -0.29999,2.98199c-0.02948,0.53903 -0.06265,1.61346 -0.13669,2.64581c-0.06845,0.95447 -0.18768,1.79977 -0.34131,2.54535c-0.20563,0.99802 -0.43863,1.90479 -0.51752,2.8035c-0.07605,0.86642 -0.03622,1.93829 -0.06165,2.64282c-0.0289,0.80124 -0.58331,1.74771 -0.87402,2.56168c-0.30548,0.85526 0.39224,1.91824 -0.20682,2.61465c-0.53839,0.62589 -1.57318,-0.07916 -2.37634,-0.41916c-0.95618,-0.40479 -1.78653,-0.7034 -2.349,-1.00348c-0.60489,-0.32269 -1.49823,-1.04758 -2.09833,-1.65451c-0.64197,-0.64926 -1.29132,-1.35226 -1.66168,-1.67084c-1.13144,-0.97327 -1.58978,-1.21323 -2.49066,-1.70532c-0.45517,-0.24863 -1.39417,-0.70239 -1.85599,-0.944c-1.37238,-0.71802 -2.23035,-1.27197 -2.64667,-1.56403c-0.83533,-0.586 -1.24683,-0.89688 -2.436,-1.91998c-0.40497,-0.34842 -1.19302,-1.07941 -1.57867,-1.448c-0.75327,-0.71991 -1.45023,-1.41644 -2.08798,-2.052c-0.56497,-0.56305 -1.31769,-1.31064 -1.83868,-1.72433c-0.80493,-0.63919 -1.79358,-1.20792 -2.47382,-1.58817c-0.65652,-0.36697 -1.55722,-0.80377 -2.32352,-1.39551c-0.61017,-0.47116 -1.1481,-1.14487 -1.87198,-1.76401c-0.77087,-0.65936 -1.48669,-0.84 -2.36801,-0.86133l-0.95734,0l-0.73199,0" id="svg_8" stroke-width="2" stroke="#000" fill="none"/>
  <path t="24189,24335,24335,24335,24346,24346,24360,24360,24360,24377,24377,24387,24388,24402,24402,24407,24419,24419,24434,24434,24434,24434,24434,24450,24450,24450,24450,24450,24457,24457,24457,24458,24458,24481,24481,24481,24481,24481,24494,24494,24494,24494,24494,24494,24506,24506,24506,24506,24523,24523,24535,24535,24535,24535,24543,24543,24543,24555,24555,24567,24567,24567,24588,24588,24588,24606,24606,24606,24606,24620,24620,24620,24620,24620,24620,24620,24635,24635,24635,24635,24636,24636,24636,24641,24641,24642,24642,24642,24642,24667,24668,24668,24668,24668,24670,24670,24670,24671,24710,24711,24711,24711,24717,24718,24718,24718,24718,24718,24718,24730,24730,24730,24730,24730,24730,24731,24731,24731,24740,24740,24740,24740,24740,24752,24752,24752,24752,24769,24769,24777,24777,24777,24824,24825,24886,24886,24911,24929,24938,24951,24986,25108,25166,25166,25182,25207,25207,25219" d="m269,164.89999c-2.95267,0 -3.5,0 -4.31601,0c-1.23132,0 -1.90936,-0.00784 -3.10516,0.00017c-0.79355,0.00531 -1.6243,-0.11972 -2.60815,0.28517c-0.72433,0.2981 -1.23917,1.05981 -1.85602,1.51466c-0.89294,0.65845 -1.65047,0.8548 -2.59383,1.2c-0.85567,0.31311 -1.38162,0.83228 -2.28532,1.54268c-0.60002,0.47168 -1.29372,0.96379 -1.66751,1.20667c-0.76346,0.49605 -1.9623,1.12183 -2.76799,1.44533c-0.79463,0.31906 -1.21144,0.42856 -2,0.77333c-1.21915,0.53304 -2.00237,1.03813 -2.40001,1.29333c-0.80482,0.51653 -1.58907,1.0735 -2.80016,1.8175c-0.39766,0.24429 -1.21289,0.70241 -2.03584,1.1825c-0.42239,0.24641 -1.73491,1.06587 -2.18483,1.38133c-0.92725,0.65015 -1.377,1.00237 -1.81667,1.35733c-0.84714,0.68391 -1.91295,1.65109 -2.4225,2.22801c-0.42119,0.47688 -0.97862,1.32843 -1.62534,1.88933c-0.68494,0.59406 -1.53127,1.20154 -2.11467,1.888c-0.41196,0.48474 -0.95071,1.27921 -1.79866,2.02533c-0.55074,0.4846 -1.18152,0.79491 -1.84866,1.62651c-0.56453,0.70369 -1.05945,1.55577 -1.58867,2.14282c-0.55344,0.61392 -1.37103,1.39301 -1.95334,2c-0.37941,0.39551 -1.21849,1.38408 -1.59599,2.06401c-0.29956,0.53957 -0.59492,1.24364 -1.15717,2.66449c-0.22862,0.57776 -0.4621,1.19965 -0.69751,1.8555c-0.24304,0.67712 -0.48795,1.36749 -0.69749,2.0715c-0.60495,2.03233 -0.70816,2.67845 -0.8065,3.28984c-0.09428,0.58617 -0.20164,1.7126 -0.224,2.25867c-0.04408,1.0768 -0.032,2.16266 -0.032,3.27866c0,0.56551 0,1.6965 0,2.25601c0,1.092 0,2.12799 0,3.08932c0,0.88933 -0.00012,1.71468 0,2.48401c0.00017,1.0665 -0.03543,1.73483 0.07201,2.67732c0.0699,0.61331 0.4894,1.8192 0.79999,2.44267c0.33929,0.68109 0.75969,1.41113 1.328,2.733c0.21086,0.49046 0.41316,1.01546 0.8,2.15999c0.20706,0.61266 0.40578,1.25832 0.60001,1.93501c0.41231,1.43651 0.60315,2.20279 0.79733,2.98933c0.19722,0.7988 0.38507,1.60451 0.56099,2.409c0.17337,0.79288 0.33791,1.56738 0.47101,2.319c0.356,2.01019 0.40787,2.5939 0.45633,3.13232c0.08678,0.96417 0.10983,1.81064 0.11433,2.92368c0.00406,1.00499 0,1.92 0,2.48c0,1.23401 0,1.912 0,3.10783c0,0.7935 0,1.569 0,2.6095c0,0.7175 0,1.62201 0,2.48534c0,0.96318 0,1.88399 0,2.78401c0,0.89999 -0.08868,1.80438 0,2.69998c0.08374,0.8457 0.88667,0.99869 1.82533,1l1.008,0l0.86217,0l0.90451,0" id="svg_9" stroke-width="2" stroke="#000" fill="none"/>
  <path t="26417,26586,26607,26608,26608,26611,26611,26611,26625,26625,26625,26625,26641,26641,26641,26657,26657,26659,26659,26673,26673,26684,26720,26733,26754,26765,26786,26802,26802,26811,26811,26811,26819,26819,26834,26849,26849,26856,26856,26881,26881,26893,26905,26917,26954,26996,27065,27225,27239,27255,27267,27267,27276,27277,27286,27303,27319,27319,27335,27337,27349,27350,27366,27372,27372,27389,27400,27400,27409,27410,27410,27421,27422,27446,27446,27446,27459,27459,27483,27483,27500,27509,27520" d="m320,238.89999c0.85068,-1.41066 1.73969,-2.14182 1.93866,-2.84666c0.23154,-0.82019 0.3479,-1.83936 0.48666,-2.39999c0.2262,-0.91397 0.42178,-1.91855 0.49066,-2.636c0.10507,-1.09468 0.08203,-1.81543 0.25067,-2.784c0.14423,-0.8284 0.53851,-1.72401 0.93317,-2.53317c0.37997,-0.77902 0.80518,-1.6227 0.8895,-2.42549c0.10684,-1.01736 0.17432,-1.73781 0.72668,-2.45734c0.53317,-0.6945 1.55783,-0.46414 2.16251,-1.13884c0.5918,-0.66032 0.33734,-1.71762 1.28815,-1.7785c0.66797,-0.04277 1.83334,0 2.63333,0c0.80002,0 1.7955,0 2.54285,0c0.90451,0 1.82382,0 2.67801,0c0.97916,0 1.76849,0 2.8125,0c0.75598,0 1.72638,-0.30991 2.556,0.01068c0.79291,0.3064 1.23834,0.9827 2.01065,1.41466c0.81808,0.45757 1.57141,0.93039 1.60001,1.77467c0.03046,0.89948 0,1.79999 0,2.68533c0,0.94 0,1.63066 0,2.70399c0,0.82133 0.1694,1.75725 -0.03601,2.54933c-0.22452,0.86578 -1.39536,1.12585 -1.79733,1.86133c-0.40207,0.73566 -0.77158,1.6882 -1.65067,1.91467c-0.6727,0.17331 -1.7634,0.07411 -2.68265,0.08533c-0.85437,0.01042 -1.83841,0.15105 -2.43335,0.35268c-0.80743,0.27364 -1.79907,0.5945 -2.63599,0.63666c-0.92953,0.04683 -1.71219,0.01067 -2.50269,0.01067c-1.1185,0 -2.00949,0 -2.914,0c-0.69464,0 -1.71133,0 -2.64731,0l-0.90002,0" id="svg_10" stroke-width="2" stroke="#000" fill="none"/>
  <path t="30635,30782,30783,30783,30783,30798,30798,30799,30799,30799,30812,30812,30812,30812,30813,30832,30833,30833,30833,30833,30834,30834,30834,30834,30834,30834,30834,30835,30835,30845,30845,30845,30845,30845,30845,30845,30845,30845,30856,30856,30856,30856,30856,30856,30856,30856,30856,30869,30869,30869,30869,30869,30870,30870,30870,30870,30884,30884,30884,30884,30884,30884,30885,30885,30885,30893,30893,30893,30893,30893,30893,30893,30893,30894,30929,30930,30930,30930,30930,30930,30930,30931,30931,30935,30936,30936,30936,30936,30936,30936,30936,30937,30947,30947,30947,30947,30947,30948,30948,30948,30948,30959,30959,30959,30959,30959,30960,30960,30960,30960,30971,30971,30971,30971,30972,30972,30972,30972,30972,30985,30985,30985,30985,30986,30986,30986,30986,30992,30992,31003,31004,31020,31062,31063,31063,31065,31065,31066,31066,31066,31066,31077,31078,31078,31078,31078,31089,31089,31089,31089,31090,31090,31090,31104,31104,31104,31105,31105,31118,31118,31119,31119,31119,31126,31127,31166,31167,31167,31169,31169,31170,31170,31179,31180,31180,31194,31194,31194,31202,31202,31202,31225,31225,31225,31226,31236,31236,31237,31237,31237,31237,31237,31260,31260,31260,31261,31274,31275,31275,31299,31322,31335,31335,31353,31353,31374,31374,31376,31377,31377,31385,31385,31400,31400,31400,31409,31410,31410,31420,31421,31421,31433,31434,31434,31450,31450,31451,31458,31459,31459,31475,31476,31476,31476,31477,31489,31489,31490,31490,31500,31500,31500,31501,31507,31508,31508,31508,31520,31520,31520,31538,31538,31539,31550,31550,31557,31557,31569" d="m393,151.89999c3.25467,0.00134 4.09741,0.00694 4.54166,0.02084c0.91495,0.02863 2.29333,0.13409 3.173,0.26317c0.42905,0.06296 1.2627,0.22635 2.08084,0.36333c1.20206,0.20125 2.00385,0.27931 2.8045,0.31667c0.79953,0.03729 1.60001,0.03842 2.80084,0.03584c0.82166,-0.00177 1.70361,-0.01329 2.685,-0.05701c0.54102,-0.02409 1.74792,-0.10468 2.42148,-0.16516c0.71851,-0.06453 1.47556,-0.14674 2.26202,-0.267c0.81573,-0.12473 1.6521,-0.28461 2.49597,-0.50101c0.86057,-0.22069 2.57703,-0.82326 3.41351,-1.21716c0.84811,-0.39938 1.67929,-0.8679 2.5065,-1.3725c0.84204,-0.51363 1.67773,-1.07076 2.52451,-1.6425c0.86127,-0.58154 2.62119,-1.78105 3.5325,-2.37733c0.92068,-0.60242 1.85367,-1.1962 2.78699,-1.78951c0.92868,-0.59036 1.84964,-1.17209 2.75101,-1.75349c0.88263,-0.56932 2.55722,-1.68456 3.33368,-2.23584c0.74875,-0.5316 1.46143,-1.06337 2.142,-1.59599c0.6647,-0.5202 1.30487,-1.04652 1.92599,-1.578c0.61621,-0.52725 1.81952,-1.61235 2.41833,-2.16867c0.60388,-0.561 1.20731,-1.13278 1.82098,-1.70399c0.61899,-0.57614 1.24664,-1.1539 1.89301,-1.722c0.65228,-0.5733 2.01352,-1.69322 2.72852,-2.231c0.72104,-0.54233 1.46338,-1.06528 2.21848,-1.575c0.75595,-0.51031 1.52188,-1.00338 2.2905,-1.485c0.7634,-0.47836 2.28036,-1.39696 3.02686,-1.84c0.73621,-0.43693 1.46674,-0.86338 2.19598,-1.275c0.72345,-0.40836 1.44818,-0.80474 2.17801,-1.185c0.72885,-0.37976 2.21158,-1.1003 2.96951,-1.4405c0.76611,-0.34387 1.55176,-0.67597 2.35648,-1.0065c0.82425,-0.33855 1.67581,-0.67654 2.5545,-1.0245c0.9093,-0.36007 2.83414,-1.12193 3.8515,-1.53267c1.04663,-0.42255 2.10858,-0.85691 3.17401,-1.2975c1.05856,-0.43775 2.09668,-0.87177 3.10199,-1.2975c0.96265,-0.40766 2.70715,-1.1599 3.46701,-1.498c0.68802,-0.30614 1.30783,-0.58916 1.86301,-0.8565c0.50266,-0.24204 0.95462,-0.4712 1.35898,-0.6945c0.37146,-0.20512 1.01962,-0.60973 1.3075,-0.81334c0.27606,-0.19525 0.5336,-0.39494 0.78152,-0.58949c0.24103,-0.18913 0.47409,-0.37715 0.7095,-0.5535c0.23267,-0.1743 0.71576,-0.4954 0.97299,-0.63567c0.25885,-0.14114 0.52603,-0.26648 0.79349,-0.3855c0.26355,-0.11729 0.52686,-0.21883 0.77551,-0.3315c1.05325,-0.47727 1.7319,-1.04533 2.49384,-1.50317c0.66971,-0.40243 1.66696,-0.6133 2.51599,-0.96799c0.66284,-0.27692 1.30249,-0.6729 2.4285,-0.93317c0.99374,-0.22969 1.55475,-0.29463 2.134,-0.37933c1.1915,-0.17422 1.78806,-0.25018 2.9375,-0.35417c1.04688,-0.09471 2.0239,-0.13419 2.5,-0.14583c0.95786,-0.02342 2.5,-0.02084 3.06403,-0.02084c0.58795,0 1.81195,0 2.43597,0c0.62402,0 1.242,0 3,0c0.53552,0 1.5285,0 2.4375,0c0.849,0 2.0625,0 2.85986,0c0.78131,0 1.53064,0 2.23199,0c1.19995,0 2.14929,0 2.97064,0c0.82135,0 1.77069,0 2.64282,0c1.01849,0 1.74249,-0.00006 2.47449,0c1.06104,0.00008 2.03796,-0.01832 2.63605,0.036c1.3327,0.12104 2.01276,0.41732 2.69928,0.61133c0.95856,0.27088 1.78564,0.30525 2.65186,0.40533c1.20007,0.13866 1.81805,0.29883 2.47882,0.50983c0.75085,0.23978 2.08374,0.76994 2.60205,0.98c1.1261,0.45638 1.71509,0.69965 2.31464,0.93666c0.59784,0.23633 1.75391,0.69952 2.83331,1.02084c0.91626,0.27276 1.71185,0.40386 2.388,0.504c1.11169,0.16464 2.02533,0.43995 2.617,0.64333c1.01514,0.34895 2.03375,0.1777 2.76166,0.57433c0.70886,0.38625 1.15735,1.23699 1.46405,1.98901c0.39209,0.96127 0.36273,1.80434 0.60266,2.78933c0.19897,0.81689 0.60156,1.58939 0.78064,2.6045c0.11053,0.62663 0.26831,1.81827 0.40533,2.34817c0.2132,0.82433 0.49689,1.87837 0.62201,2.822c0.08966,0.67655 0.22479,1.65288 0.4613,2.45067c0.24579,0.82909 0.66071,1.85477 0.96405,2.54933c0.29675,0.67942 0.70288,1.64558 1,2.45067c0.30298,0.82091 0.6756,1.86526 1.0213,2.56c0.36719,0.73792 0.90485,1.55295 1.34802,2.18266c0.48431,0.68817 1.00702,1.38844 1.54797,2.06401c0.74884,0.93515 1.22711,1.45673 1.66187,1.94716c0.62183,0.70148 1.23181,1.43437 1.8208,2.25684c0.40765,0.56926 0.80035,1.1651 1.60004,2.364c0.40015,0.59988 0.79999,1.2 1.19995,1.8c0.59985,0.89983 1.1947,1.78589 1.56403,2.364c0.6792,1.06308 1.06635,1.78154 1.42535,2.38933c0.49353,0.83559 0.97467,1.472 1.32532,2.33067l0.08081,0.86333l0.00452,1.01668" id="svg_11" stroke-width="2" stroke="#000" fill="none"/>
  <path t="33509,33700,33700,33700,33700,33721,33721,33722,33722,33726,33726,33726,33737,33737,33768,33768,33788,33809,33846,33846,33873,33888" d="m286,341.89999c0,3.88535 0,4.63602 0,5.41068c0,0.79068 0,1.98901 0,2.78033c0,0.76733 0,1.49466 0,2.76599c0,0.771 0,1.64035 0,2.64301c0,0.79999 0,1.79868 0,2.564c0,0.95068 0,1.936 0,2.836l0,0.80002l0,0.89999l0,0.89999" id="svg_12" stroke-width="2" stroke="#000" fill="none"/>
  <path t="34885,35017,35017,35017,35028,35028,35041,35041,35041,35042,35060,35060,35060,35060,35060,35089,35089,35089,35089,35089,35089,35091,35091,35091,35091,35091,35091,35092,35092,35100,35100,35100,35115,35115,35125,35138,35138,35150,35150,35150,35175" d="m286,405.89999c0,2.95267 0,3.5 0,4.31601c0,1.23132 0,1.90933 0,3.10583c0,0.83551 0,1.46082 0,2.15018c0,1.17099 0,2.04233 0,2.96967c0,0.47964 0.0033,1.461 -0.00034,2.95883c-0.00122,0.50348 -0.01379,1.53183 -0.04132,2.06198c-0.05762,1.10989 -0.10834,1.69638 -0.29169,2.9375c-0.09827,0.66525 -0.36945,2.04501 -0.51733,2.74402c-0.14682,0.694 -0.29898,1.37189 -0.444,2.02649c-0.13766,0.62143 -0.48471,2.19714 -0.591,2.98651c-0.11795,0.87601 -0.11432,1.94281 -0.11432,2.72217c0,1.1355 0,2.02081 0,2.83514c0,0.95367 0,1.68567 0,2.41766l0,1.09601" id="svg_13" stroke-width="2" stroke="#000" fill="none"/>
  <path t="36431,36628,36628,36629,36631,36631,36631,36631,36631,36647,36647,36647,36648,36648,36648,36648,36655,36655,36655,36655,36655,36655,36655,36655,36666,36666,36666,36667,36667,36667,36667,36667,36667,36677,36677,36678,36678,36678,36678,36678,36678,36678,36689,36689,36689,36689,36689,36689,36689,36689,36689,36700,36701,36701,36701,36701,36701,36701,36701,36701,36723,36723,36723,36723,36724,36724,36724,36762,36804,36900,36942,36943,37023,37051,37094,37134,37134,37134,37147,37182,37183,37183,37185,37185,37185,37185,37185,37194,37194,37194,37194,37194,37205,37205,37205,37205,37217,37217,37218,37218,37234,37235,37235,37243,37243,37243,37243,37254,37255,37272,37299,37301,37310,37310,37319,37334,37334,37340,37341,37353,37353,37365,37366,37388,37390,37390,37402,37402,37416,37416,37432,37432,37433,37440,37440,37440,37440,37451,37451,37451,37451,37471,37471,37472,37472,37476,37476,37476,37476,37476,37488,37489,37489,37489,37505,37505,37505,37515,37516,37525,37526,37526,37537,37537,37537,37562,37563,37563,37592,37593,37610,37638,37648" d="m363,454.89999c0,-2.056 0,-3.0625 0,-3.81351c0,-1.18649 0.00616,-1.98929 -0.01068,-2.80783c-0.01752,-0.85083 -0.02042,-1.29526 -0.15598,-2.71198c-0.09958,-1.04068 -0.18808,-1.58585 -0.26935,-2.14935c-0.16956,-1.17542 -0.26859,-1.78345 -0.36533,-2.40533c-0.19888,-1.27863 -0.40033,-2.60526 -0.50317,-3.29617c-0.10654,-0.71576 -0.21628,-1.46164 -0.33148,-2.24249c-0.12112,-0.82083 -0.24823,-1.68683 -0.53067,-3.57333c-0.15405,-1.02893 -0.31821,-2.11053 -0.48602,-3.23849c-0.17355,-1.16672 -0.34952,-2.36536 -0.52197,-3.58951c-0.1749,-1.24152 -0.35342,-2.49316 -0.65869,-5.00531c-0.15112,-1.24365 -0.28366,-2.47443 -0.40948,-3.68701c-0.1235,-1.19009 -0.23669,-2.35464 -0.3465,-3.48901c-0.10651,-1.10028 -0.20248,-2.16336 -0.41068,-4.15732c-0.09665,-0.92566 -0.19757,-1.8028 -0.2955,-2.634c-0.09277,-0.78745 -0.18442,-1.53256 -0.26849,-2.23801c-0.07953,-0.66724 -0.16086,-1.29764 -0.26935,-2.46133c-0.04987,-0.53473 -0.0842,-1.04117 -0.1095,-1.5195c-0.02386,-0.45105 -0.03809,-0.87628 -0.04648,-1.27649c-0.00787,-0.37613 -0.01001,-0.72934 -0.01068,-1.37067c-0.00031,-0.29016 0,-0.56134 0,-0.81451c0,-0.23615 0,-0.45633 0,-1.03082c0,-0.96716 0.11652,-1.89615 -0.00449,-2.78799c-0.11142,-0.82135 -0.84137,-1.46686 -0.98483,-2.30002c-0.15274,-0.88699 -0.07413,-1.80463 0.32266,-1.39999c0.46381,0.47293 1.19547,0.78394 2.04132,1.39999c0.80316,0.58496 1.48691,1.02417 2.20132,1.35718c0.91608,0.42697 1.67807,0.72641 2.51068,1.07883c0.43457,0.18393 1.32651,0.53958 2.57999,1.164c0.77036,0.38376 1.46616,0.78879 2.07602,1.23599c0.5849,0.42889 1.3616,1.16449 2.02133,2c0.44305,0.5611 0.83902,1.16245 1.43582,2.06403c0.59387,0.89713 0.98016,1.49094 1.31485,2.09998c0.48764,0.88742 0.85159,1.80359 1.11066,2.40002c0.52444,1.20746 0.84048,1.8085 1.37466,2.65833c0.33603,0.53461 1.05072,1.3465 1.55334,2.12033c0.49765,0.76617 0.98166,1.2717 1.84665,1.43201c0.8317,0.15414 1.39999,0.79065 2.10001,1.48932c0.70132,0.70001 1.2468,1.21542 1.98401,1.70135c0.68134,0.4491 1.48691,1.12564 1.99515,1.77783c0.61182,0.7851 1.37512,1.02927 2.12085,1.6315c0.65503,0.52899 1.15228,1.09662 2.05267,1.69382c0.69095,0.45828 1.31934,1.022 1.84732,1.6955c0.65842,0.83987 1.3587,1.35654 1.90451,1.80984c0.83212,0.6911 1.21994,1.18484 1.75949,2.01151c0.37106,0.56854 0.82791,1.47318 1.21066,2.38931c0.2597,0.62164 0.49469,1.28107 1.10934,2.67468c0.16476,0.37357 0.5282,1.13019 0.86331,1.91916c0.50452,1.18781 0.77841,1.99216 1.01669,2.7955c0.23633,0.79681 0.43378,1.60022 0.73599,2.79968c0.1994,0.79147 0.38968,1.56155 0.60001,2.28598c0.28604,0.98517 0.62018,1.79095 0.86398,2.49301c0.35059,1.00955 0.35876,1.83731 0.60266,2.82132c0.20551,0.82916 0.55338,1.45096 0.93335,2.42136c0.31287,0.79907 0.57819,1.6347 1,2.65717c0.28537,0.69171 0.60803,1.31305 1.09866,2.32016c0.37143,0.76239 0.67999,1.57965 1.02267,2.47998l0.69333,0.40668" id="svg_14" stroke-width="2" stroke="#000" fill="none"/>
  <path t="38894,39088,39088,39088,39088,39105,39106,39106,39106,39106,39106,39142,39142,39142,39142,39142,39142,39142,39142,39143,39144,39144,39144,39144,39144,39144,39144,39144,39151,39151,39151,39151,39152,39152,39152,39152,39152,39164,39165,39165,39165,39165,39165,39165,39165,39165,39175,39175,39175,39175,39175,39175,39175,39175,39175,39185,39186,39186,39186,39186,39186,39186,39186,39186,39199,39199,39200,39200,39200,39200,39200,39200,39200,39223,39223,39421,39439,39460,39460,39473,39473,39473,39481,39482,39506,39519,39519,39532,39549,39549,39569,39569,39583,39584,39584,39592,39592,39592,39592,39604,39604,39604,39604,39617,39617,39617,39617,39617,39632,39632,39632,39632,39633,39633,39633,39641,39642,39642,39642,39642,39655,39656,39656,39656,39656,39671,39671,39672,39672,39672,39686,39686,39692,39692,39692,39702,39703,39703,39715,39716,39716,39732,39733,39733,39740,39740,39740,39752,39752,39752,39753,39765,39766,39766,39766,39766,39766,39790,39790,39791,39791,39800,39801,39801,39801,39801,39802,39803,39803,39803,39803,39813,39814,39814,39814,39831,39831,39832,39839,39839,39850,39851,39875,39905,39905,39915" d="m503,453.89999c-1.48532,-2.05731 -1.84338,-2.715 -2.21066,-3.46799c-0.39871,-0.81747 -0.79263,-1.69724 -1.19067,-2.61868c-0.20486,-0.47424 -0.61823,-1.45554 -0.83466,-1.95999c-0.44669,-1.04114 -0.93042,-2.12009 -1.18552,-2.67599c-0.53516,-1.16623 -0.81943,-1.78586 -1.09933,-2.444c-0.29507,-0.69382 -0.5961,-1.43344 -0.88049,-2.23199c-0.62625,-1.75842 -0.90665,-2.74915 -1.19598,-3.79602c-0.3024,-1.09412 -0.58878,-2.23425 -0.86102,-3.40948c-0.27722,-1.19678 -0.53876,-2.41077 -0.771,-3.63449c-0.46002,-2.4238 -0.63431,-3.61722 -0.79999,-4.78934c-0.16287,-1.15225 -0.30283,-2.28885 -0.42902,-3.40952c-0.12442,-1.10471 -0.23431,-2.19617 -0.33899,-3.27451c-0.2059,-2.121 -0.30292,-3.16614 -0.40134,-4.19998c-0.09726,-1.02182 -0.1925,-2.03052 -0.28049,-3.02551c-0.08664,-0.97968 -0.16901,-1.94327 -0.2355,-2.8905c-0.12903,-1.83795 -0.16748,-2.72833 -0.20001,-3.59732c-0.03171,-0.84671 -0.05167,-1.67062 -0.06448,-2.47049c-0.01242,-0.77481 -0.01758,-1.52368 -0.0195,-2.24551c-0.00363,-1.35867 -0.00134,-1.99365 -0.00134,-2.59866c0,-0.57501 0,-1.12 0,-1.63501c0,-0.48499 0,-0.94 0,-1.36499c0,-0.76001 0,-1.09534 0,-1.40268c0,-0.28131 0,-0.53867 0,-0.77399c0,-0.21533 0,-0.41266 0,-0.59399c0,-0.32266 -0.14349,-0.74429 0.00015,-1.58917c0.14471,-0.8511 1.10019,-0.90018 1.97052,-0.90018c0.79868,0 1.55017,0 2.34665,0c1.22101,0 2.03461,0.15601 3.04669,-0.01065c0.86786,-0.14291 1.5246,-0.54532 2.336,-1.09918c0.70081,-0.47836 0.96008,-1.27014 1.60449,-2.142c0.42706,-0.57782 1.01724,-1.2908 1.53149,-2.00949c0.37485,-0.5239 1.15726,-1.57764 1.564,-2.05466c0.59036,-0.69238 1.2171,-1.35443 1.80017,-2.10568c0.62927,-0.81079 1.03378,-1.42642 1.48517,-2.065c0.73318,-1.03717 0.99136,-1.40735 1.57199,-2.14932c0.61356,-0.78403 0.93372,-1.19504 2.07602,-2.36401c0.39984,-0.40918 0.82578,-0.80756 1.71732,-1.57864c0.44495,-0.38483 1.34094,-1.11096 1.78131,-1.45068c1.21686,-0.93875 1.59644,-1.20447 2.3067,-1.70932c0.67383,-0.479 1.35156,-0.93344 2.38251,-1.68301c0.73248,-0.53256 1.11011,-0.80554 1.8175,-1.42499c0.70911,-0.62094 1.6261,-1.66855 1.89063,-2.03467c0.51422,-0.71176 0.91791,-1.44299 1.36804,-2.064c0.75201,-1.03738 1.39087,-1.51367 2.40265,-2.05469c0.59332,-0.31726 1.43018,-0.71671 2.19983,-1.3215c0.61523,-0.48343 1.18219,-1.05316 1.77881,-1.87848c0.55945,-0.77386 0.88477,-1.41583 1.50537,-2.20135c0.49976,-0.63263 1.08337,-1.25491 1.63202,-2.284c0.28619,-0.53687 0.61292,-1.43051 1.05066,-2.31467c0.30249,-0.61093 0.86401,-1.5361 1.23779,-2.21432c0.61182,-1.11014 0.80145,-1.5256 1.1955,-2.39099c0.40613,-0.89194 0.58679,-1.35016 1,-2.22668c0.58167,-1.23392 0.98798,-1.96417 1.42084,-2.62631c0.42053,-0.64331 1.13702,-1.54947 1.66455,-2.14169c0.54169,-0.60809 1.12311,-1.20215 1.71594,-1.79999c0.89557,-0.90314 1.1922,-1.20682 1.80939,-1.78934c0.61761,-0.58295 1.24817,-1.16266 2.31049,-1.88901c0.71014,-0.48557 1.45392,-0.8877 2.16901,-1.25998c0.97107,-0.50555 1.58051,-0.70767 2.45245,-1.28702c0.7309,-0.48563 1.05408,-1.34485 1.85736,-2.04132c0.60236,-0.52225 1.40002,-0.76935 2.09985,-1.43335l0.54297,-0.59998l0.38251,-0.86401" id="svg_15" stroke-width="2" stroke="#000" fill="none"/>
  <path t="40925,41070,41070,41070,41071,41101,41101,41102,41102,41102,41117,41117,41117,41117,41117,41117,41117,41117,41117,41118,41119,41119,41119,41119,41119,41119,41119,41119,41130,41130,41130,41130,41130,41130,41130,41130,41131,41148,41149,41149,41149,41149,41149,41149,41155,41156,41156,41156,41156,41168,41168,41168,41182,41183,41183,41183,41183,41192,41192,41192,41192,41192,41204,41204,41204,41220,41220,41220,41232,41232,41232,41241,41241,41253,41253,41266,41266,41283,41315,41315,41330,41330,41351,41351,41376" d="m558,273.89999c0,3.884 0,4.62534 0,5.37466c0,0.74133 0,1.80585 0,2.91736c0,0.43716 0,1.48947 0,2.13065c0,1.57733 0,2.534 0,3.59067c0,1.13666 0,2.33334 0,3.57001c0,1.25665 0,2.51334 0,3.75c0,2.33334 0,3.39432 0,4.38132c0,0.91901 0,1.776 0,2.57703c0,0.75098 0,1.45798 0,2.12698c0,1.24802 0,1.83835 0,2.41068c0,0.55634 0,1.09866 0,1.629c0,0.52032 0,1.03265 0,1.539c0,1.00266 0,1.5025 0,2.00134c0,0.49683 0,0.99066 0,1.96533c0,0.95065 0,1.86932 0,2.74933c0,0.84 -0.00073,1.63998 0,2.39999c0.00134,1.40268 -0.03613,2.06851 0.11432,3.03934c0.15887,1.02515 0.44073,1.73914 0.75769,2.48334c0.33301,0.7818 0.72906,1.56613 1.12799,2.36398c0.39844,0.79681 0.78363,1.57727 1.20001,2.29202c0.38501,0.66092 1.17676,1.68185 1.79999,2.16632c0.57959,0.45053 1.39258,1.03635 2.02081,1.54166c0.65564,0.52731 1.67047,1.09644 2.4375,1.5c0.69653,0.36649 1.38824,1.15347 1.58533,1.90451c0.25964,0.98962 0.52338,1.78732 1.05621,2.57401c0.43024,0.63519 0.80695,1.45334 1.12164,2.34283c0.24738,0.69925 0.7785,1.51199 1.2785,2.15784l0.69867,0.72083l0.51599,0.60001l0.28082,0.89999" id="svg_16" stroke-width="2" stroke="#000" fill="none"/>
 </g>
 <g display="none">
  <title>muse_image</title>
  <image xlink:href="http://farm1.static.flickr.com/85/211593646_fda1b6f8d2.jpg" id="muse" height="480" width="318" y="0" x="161"/>
 </g>
 <g display="none">
  <title>bbox</title>
  <rect stroke="#f00" fill="none" stroke-width="3" height="378.24" width="296.92771" y="100.8" x="181.11446" id="bbox"/>
 </g>
</svg>
