<svg width="640" height="480" xmlns="http://www.w3.org/2000/svg" xmlns:svg="http://www.w3.org/2000/svg" xmlns:xlink="http://www.w3.org/1999/xlink">
 <!-- Sketchy ANNOTATION
  ImageNet ID: n02503517_6043
  URL: http://farm3.static.flickr.com/2026/2222909481_4495bc258d.jpg
  Image Width: 482
  Image Height: 500
  BBox X: 64
  BBox Y: 122
  BBox Width: 273
  BBox Height: 324
  Exposure: 2000ms
  Synset Label: elephant
  Synset ID: n02503517
  Worker Tag: elephant performing circus
  Sanity Check: 
   Context
   Saved
   Shading
  Comment: 
   {}
  Worker ID: AXD2DZ7U6CK35
  Assignment ID: 30OG32W0SUB7O71P194CLZA36XZNE6
  HIT ID: 34D9ZRXCYRUZRNEO3YEAZQZX7WXSAZ
  Work Time: 60s
  Worker Score: 0.9286
 END ANNOTATION -->
 <g display="inline">
  <title>Layer 1</title>
  <path t="0,21,21,21,21,36,36,49,50,67,67,82,83,83,100,100,100,117,117,132,133,133,133,150,150,166,166,182,182,200,200,216,216,232,232,249,250,267,283,300,300,300,316,316,317,332,332,333,349,350,350,367,367,368,383,383,383,400,400,400,400,416,417,433,433,433,449,449,449,467,467,482,483,500,500,500,517,517,517,532,532,550,550,567,567,583,600,600,617,617,617,633,633,649,650,650,666,667,683,683,683,699,699,716,717,732,732,749,750,766,766,782,782,800,800,817,817,817,833,833,833,849,866,867,867,882,883,899,900,900,917,917,932,933,949,950,966,966,982,982,982,999,999,1017,1017,1017,1033,1033,1049,1050,1050,1066,1067,1067,1082,1083,1099,1100,1100,1116,1117,1117,1117,1133,1133,1133,1150,1150,1150,1167,1167,1182,1183,1183,1200,1200,1200,1216,1217,1217,1233,1233,1250,1250,1250,1266,1267,1267,1267,1283,1283,1283,1300,1300,1317,1317,1317,1317,1333,1333,1350,1367,1367,1383,1383,1399,1417,1417,1433,1433,1450,1450,1467,1467,1483,1500,1516,1517,1517,1533,1533,1550,1550,1567,1567,1583,1600,1616,1617,1633,1633,1650,1650,1667,1667,1683,1699,1700,1717,1717,1717,1733,1750,1750,1767,1767,1783,1800,1800,1817,1817,1832,1850,1850,1867,1896,1896,1924,2008,2019,2035,2052,2069,2070,2070,2083,2100,2117,2117,2133,2133,2150,2167,2167,2196,2277,2380,2405,2419,2435,2452,2469,2469,2470,2485,2485,2502,2503,2519,2519,2520,2533,2550,2551,2567,2568,2568,2584,2584,2600,2600,2617,2617,2633,2633,2650,2650,2668,2683,2684,2700,2701,2717,2718,2718,2733,2733,2750,2767,2768,2768,2783,2783,2800,2817,2817,2833,2834,2850,2867,2883,2884,2901,2917,2918,2933,2950,2951,2967,2968,2983,2984,3000,3000,3018,3018,3034,3034,3050,3067,3068,3068,3084,3084,3101,3101,3117,3133,3134,3150,3167,3168,3183,3184,3200,3217,3218,3218,3233,3234,3250,3250,3268,3283,3301,3301,3317,3333,3334,3350,3351,3367,3368,3383,3384,3400,3417,3433,3434,3450,3451,3467,3468,3483,3501,3501,3518,3533,3534,3550,3551,3567,3568,3568,3583,3584,3601,3601,3601,3617,3618,3618,3633,3650,3651,3651,3667,3668,3683,3684,3700,3701,3717,3733,3734,3734,3750,3767,3768,3783,3784,3800,3801,3817,3833,3834,3850,3851,3867,3868,3883,3900,3901,3917,3933,3950,3951,3967,3968,3983,4000,4025,4073,4663,4673,5015,5015,5037,5050,5076,5239,5269,5293,5302,5319,5334,5351,5369,5369,5384,5401,5401,5421,5421,5437,5451,5468,5498,5518,5549,5549,5577,5617,5743,5753,5965,6013,6065,6105,6125,6149,6169,6201,6202,6225,6260,6297,6320,6353,6388,6389,6413,6433,6460,6461,6485,6500,6518,6533,6550,6567,6568,6583,6600,6601,6620,6621,6633,6651,6668,6668,6684,6700,6718,6718,6733,6734,6750,6751,6768,6783,6784,6800,6801,6817,6833,6834,6850,6866,6883,6884,6900,6901,6916,6917,6933,6956,6972,6984,7000,7016,7060,7093,7153,7343,7353,7386,7402,7403,7419,7436,7606,7606,7616" d="m173,175c6.15633,-3.95683 6.6239,-4.22815 7.48534,-4.71733c0.74925,-0.42548 1.94006,-1.03729 2.38133,-1.64667c0.54872,-0.75777 0.87897,-1.36047 1.7905,-1.94051c0.54431,-0.34636 1.56404,-0.9935 2.13217,-1.53149c0.57611,-0.54556 1.18324,-1.36797 1.58533,-1.95334c0.5018,-0.73056 1.27922,-1.47031 1.87201,-1.836c0.90848,-0.56046 1.70543,-1.02139 2.2325,-1.37466c0.75723,-0.50754 1.52898,-1.14365 2.269,-1.6955c0.71519,-0.53334 1.46353,-0.84938 2.23033,-1.40451c0.75729,-0.54825 1.2934,-1.2406 1.90683,-1.7c0.7361,-0.55125 1.5155,-0.90736 2.51334,-1.39867c0.57841,-0.28479 1.57565,-0.71301 2.39999,-0.8c0.89824,-0.0948 1.67726,-0.61647 2.52318,-0.87999c0.71657,-0.22322 1.45563,-0.17525 2.64616,-0.40668c0.68625,-0.13341 1.39191,-0.29118 2.69867,-0.71466c0.56764,-0.18396 1.49339,-0.62926 2.33333,-0.83333c0.79791,-0.19386 1.68541,-0.155 2.68533,-0.168c0.83565,-0.01086 1.42738,-0.00433 2.61467,-0.22c0.90797,-0.16493 1.48952,-0.40794 2.7,-0.612c0.88962,-0.14996 1.479,-0.15514 2.31467,-0.16534c1.23257,-0.01505 1.91066,0.00137 2.85201,-0.00133c0.78601,-0.00226 1.62059,0.04205 2.66666,-0.16667c0.94728,-0.18903 1.54337,-0.5654 2.56667,-0.748c0.79099,-0.14114 1.8,-0.08533 2.60001,-0.08533c1,0 1.81067,0 2.68533,0c0.99867,0 1.81467,0 2.63066,0c0.99867,0 1.87343,-0.01331 2.88383,0.00017c0.77954,0.01039 1.76474,0.24641 2.38951,0.57449c0.80472,0.42258 1.73538,0.37822 2.65733,0.46133c0.92548,0.08344 1.71324,0.28708 2.49199,0.57468c0.94405,0.34865 1.5743,0.82651 2.42801,1.38933c0.651,0.42918 1.43452,0.80026 2.23332,1.2c0.7999,0.40027 1.60001,0.8 2.39999,1.2c0.80002,0.40001 1.58304,0.83347 2.36401,1.164c0.93515,0.39578 1.74658,0.56909 2.48868,1.14134c0.54266,0.41846 1.4664,1.1161 2.23132,1.37733c0.7764,0.26515 1.52417,0.61456 2.51468,1.11732c0.58264,0.29575 1.46329,0.7653 2.10132,1.32083c0.70004,0.6095 1.3176,1.32529 1.90451,1.82651c0.77209,0.65936 1.40057,0.99142 2.11017,1.45132c0.88058,0.57072 1.64786,1.20821 2.31067,1.60133c0.68646,0.40717 1.55078,1.02223 2.14398,1.48534c0.78677,0.61423 1.53412,1.10983 2.02533,1.46201c0.8685,0.62267 1.56729,1.25955 2.20667,1.85266c0.66708,0.61879 1.45078,1.10963 2.20319,1.5c0.79031,0.41002 1.56964,0.86304 2.59549,1.13333c0.78555,0.20699 1.616,0.19534 2.39999,0.45201c0.82077,0.26871 1.80002,0.81467 2.39999,1.11465c0.80002,0.40001 1.57925,0.85403 2.436,1.164c0.91107,0.32961 1.71832,0.36768 2.53867,0.46133c1.06119,0.12114 1.758,0.35863 2.62085,0.62201c0.99542,0.30385 1.84042,0.34732 2.77115,0.35266c0.7905,0.00453 1.64401,0 2.83334,0c0.60001,0 1.5,0 2.39999,0c0.89984,0 1.78934,0 2.64285,0c1.03564,0 1.72116,0.00188 2.55582,0c1.00134,-0.00226 1.81891,0.00963 2.80402,-0.28534c0.88919,-0.26625 1.36093,-0.53787 2.56531,-0.91466c0.67892,-0.2124 1.3912,-0.36887 2.69867,-0.8c0.56592,-0.18661 1.50726,-0.55112 2.31201,-1.10001c0.67529,-0.4606 1.35129,-0.98708 2.06299,-1.44167c0.65283,-0.41699 1.38504,-0.99493 2.18369,-1.709c0.55307,-0.49449 1.06424,-1.01552 2.08798,-1.78c0.62949,-0.47006 1.24966,-0.80751 1.93851,-1.6265c0.44318,-0.52692 1.0719,-1.35371 1.74899,-1.94284c0.70273,-0.61143 1.31805,-0.90108 1.83218,-1.9955c0.33014,-0.70277 0.66077,-1.5744 1.00034,-2.4045c0.29318,-0.71669 0.16666,-1.82533 0.16666,-2.51601c0,-0.98399 0,-1.96933 0,-2.69466c0,-0.98933 0,-1.78934 0,-2.78934c0,-0.78934 0,-1.83333 0,-2.58934c0,-0.91066 0.00531,-1.832 0,-2.74399c-0.00534,-0.91739 0.11835,-1.71638 -0.28534,-2.696c-0.29843,-0.72418 -1.05981,-1.23918 -1.51465,-1.856c-0.65848,-0.89296 -0.85849,-1.64914 -1.20001,-2.59384c-0.30374,-0.84016 -0.81604,-1.52605 -1.05267,-2.278c-0.28391,-0.90224 -0.55835,-1.66043 -1.25183,-2.48566c-0.51721,-0.61548 -1.40427,-0.97327 -1.98566,-1.45717c-0.73944,-0.61546 -0.86441,-1.65724 -1.2515,-2.3c-0.53738,-0.89235 -1.29593,-1.34514 -1.97433,-1.79866c-0.86426,-0.57776 -1.48401,-1.20134 -2.08401,-1.80134c-0.60001,-0.6 -1.19995,-1.20005 -1.89999,-1.9c-0.60013,-0.60004 -1.22977,-1.2425 -1.98401,-1.69867c-0.66855,-0.40434 -1.69006,-0.5624 -2.51599,-0.96799c-0.66998,-0.32902 -1.28925,-1.14424 -2,-1.83334c-0.59122,-0.57321 -1.95834,-0.72558 -1.95834,-1.5c0,-0.77442 1.29486,-1.04859 2.15967,-1.416c0.91794,-0.38998 1.60889,-0.54832 2.31467,-0.8c0.94583,-0.33729 1.77844,-0.64726 2.48401,-1.284c0.63107,-0.5695 1.48138,-0.95068 2.34732,-0.9955c0.89435,-0.04629 1.68933,-0.33064 2.45267,-0.7205c0.7529,-0.38454 1.78094,-0.44464 2.63602,-0.27333c0.90866,0.18204 1.14999,1.1383 1.73065,1.82267c0.56662,0.6678 0.94659,1.35869 1.28,1.992c0.3815,0.72463 1.20703,1.41595 1.90067,1.87017c0.76981,0.5041 1.40646,1.06052 2.13669,1.7885c0.51678,0.5152 1.03198,1.03199 1.88,1.88c0.63599,0.63599 1.15683,1.15685 1.80264,1.80267c0.65869,0.65868 1.18066,1.18067 1.948,1.94801c0.58084,0.58083 1.18985,1.18983 1.77069,1.77066c0.76733,0.76733 1.28934,1.28932 1.948,1.948c0.64581,0.64583 1.26666,1.26668 1.86667,1.86667c0.69998,0.69998 1.34122,1.2635 1.89999,1.936c0.5423,0.65266 0.87201,1.41884 1.56665,2.364c0.4552,0.61938 1.0108,1.16124 1.66669,1.83333c0.62772,0.64322 1.05698,1.48772 1.33331,2.33334c0.22412,0.68581 0.64468,1.42975 1.12885,2.42883c0.27417,0.56578 0.62964,1.6487 0.70465,2.50467c0.06894,0.78674 0.47122,1.70753 0.71585,2.41583c0.32593,0.94377 0.18015,1.9328 0.56799,2.68399c0.3392,0.65695 0.67422,1.55832 0.72049,2.45267c0.0448,0.86597 0.53464,1.67307 0.82886,2.51401c0.28064,0.80215 0.37286,1.64749 0.74133,2.45866c0.38193,0.84084 0.3746,1.72365 0.42981,2.6265c0.04407,0.72069 0.35382,1.75185 0.57019,2.4975c0.26563,0.91536 0.41998,1.8293 0.42532,2.67201c0.00577,0.91197 0,1.82933 0,2.57332c0,1.03601 0,1.888 0,2.83067c0,0.69067 0,1.67467 0,2.65866c0,0.86334 0,1.76334 0,2.68268c0,0.83333 0.17645,1.85008 -0.08533,2.63199c-0.26773,0.7997 -1.02966,1.51448 -1.41467,2.22217c-0.31229,0.57399 -0.76965,1.59174 -1.20001,2.32201c-0.46655,0.79166 -0.95145,1.48212 -1.35266,2.35716c-0.33261,0.72546 -1.04733,1.39999 -1.64734,2c-0.59998,0.59999 -1.30032,1.29967 -1.89999,1.90001c-0.60034,0.601 -1.22128,1.27185 -1.69998,2.05266c-0.41898,0.6834 -0.87332,1.48637 -1.5,2.146c-0.67242,0.70778 -1.51236,0.95143 -2.20001,1.53467c-0.63553,0.53902 -1.08844,1.45192 -1.75717,1.71484c-0.88162,0.34662 -1.6004,0.64107 -2.48566,1.24733c-0.76627,0.52478 -1.57556,0.75948 -2.27802,1.22533c-0.82343,0.54607 -1.50601,0.9369 -2.3125,1.47917c-0.69153,0.46498 -1.4798,1.11496 -2.1875,1.5c-0.57397,0.31227 -1.57813,0.81192 -2.21515,1.10001c-0.92297,0.4174 -1.71838,0.69536 -2.53867,1c-1.06091,0.39401 -1.75577,0.7144 -2.37866,0.96399c-0.95148,0.38124 -2.02213,0.58179 -2.68268,0.87201c-0.7764,0.34111 -1.54297,0.81277 -2.36401,1.12799c-0.97849,0.37566 -1.77899,0.42558 -2.77847,0.436c-0.71698,0.00748 -1.69351,0 -2.56418,0c-0.70801,0 -1.69275,-0.07649 -2.64749,0.0045c-0.98633,0.08368 -1.60101,0.51836 -2.64319,0.82883c-0.77362,0.23047 -1.65067,0.16667 -2.51398,0.16667c-0.90002,0 -1.81934,0 -2.67352,0c-0.97916,0 -1.76849,0 -2.8125,0c-0.75598,0 -1.6875,0 -2.65067,0c-0.69064,0 -1.75882,0 -2.616,0c-0.89999,0 -1.65717,0 -2.55267,0c-0.86331,0 -1.82648,0 -2.74731,0c-0.89999,0 -1.80002,0 -2.69983,0c-0.89569,0 -1.57858,0.28525 -2.18417,0.916c-0.54999,0.57286 -1.44159,0.95793 -1.70532,1.69467c-0.29974,0.83736 -0.01135,1.78932 -0.01068,2.68933c0.00067,0.89867 0.49054,1.51045 0.97467,2.136c0.57718,0.7458 0.77246,1.59631 1.10934,2.364c0.33444,0.7621 0.79364,1.69116 0.94131,2.37466c0.20587,0.95296 0.79846,1.59741 0.97018,2.52533c0.17194,0.92908 0.54779,1.52512 1.22583,2.17867c0.57953,0.55861 1.08554,1.16815 1.49466,1.92134c0.43323,0.79752 1.20026,1.35431 1.284,2.2c0.08655,0.87422 -0.7045,1 -1.60001,1c-0.89999,0 -1.79999,0 -2.69998,0c-0.90002,0 -1.85349,0.18134 -2.70001,-0.16667c-0.67108,-0.27589 -1.49982,-0.82291 -2.39999,-0.83333c-0.89993,-0.01041 -1.80002,0 -2.70001,0c-0.89999,0 -1.81073,-0.36436 -2.54282,0.05716c-0.81149,0.46724 -1.38907,1.06938 -1.95718,1.55351c-0.74533,0.63516 -1.65936,0.86597 -2.23334,1.556c-0.54346,0.65335 -0.42963,1.61815 -1.16666,2c-0.75397,0.39064 -1.5408,0.77087 -2.32132,1.05482c-0.88138,0.32065 -1.61505,0.93974 -2.26801,1.3425c-0.84338,0.5202 -1.41058,1.17741 -2.272,1.40001c-0.63602,0.16435 -1.74884,0.0313 -2.53867,0.46133c-0.82523,0.44931 -1.48849,0.65001 -2.436,1c-0.76794,0.28368 -1.75818,0.54195 -2.50684,0.57016c-0.90387,0.03406 -1.82382,0.0045 -2.65717,0.0045c-0.97849,0 -1.79868,0 -2.636,0c-1.01666,0 -1.71133,0 -2.728,0c-0.94051,0 -1.80267,0 -2.636,0c-0.97867,0 -1.75375,0.03973 -2.65266,-0.0045c-0.86607,-0.04262 -1.62546,-0.61269 -2.54733,-0.91017c-0.86021,-0.27759 -1.62714,-0.43726 -2.15266,-1.03265c-0.56326,-0.63815 -1.10402,-1.18307 -1.73134,-1.76868c-0.68835,-0.64258 -0.82732,-1.38838 -0.916,-2.284c-0.08374,-0.8457 -1.10609,-1.05791 -1.564,-1.61067c-0.56761,-0.6852 -0.78867,-1.68933 -1.26933,-2.38933l-0.16534,-0.8l-0.05849,-0.89999" id="svg_1" stroke-width="2" stroke="#000" fill="none"/>
  <path t="8136,8146,8146,8146,8146,8146,8146,8161,8161,8161,8186,8187,8203,8203,8203,8219,8219,8234,8234,8251,8251,8267,8284,8301,8301,8325,8337,8353,8377,8413,8449,8450,8497,8790,8834,8878,8910,8946,8968,8974,8983,9000,9016,9033,9050,9066,9066,9066,9083,9083,9100,9116,9133,9133,9133,9150,9150,9166,9166,9313,9337,9352,9368,9384,9384,9401,9431,9432,9451,9451,9467,9467,9484,9499,9515,9533,9533,9550,9550,9550,9566,9566,9566,9583,9583,9600,9600,9616,9616,9616,9633,9633,9650,9650,9666,9666,9683,9683,9683,9700,9716,9716,9733,9733,9750,9750,9766,9766,9783,9783,9800,9800,9816,9833,9833,9850,9850,9866,9883,9900,9920,9921,9974,9988,10001,10019,10036,10037,10050,10050,10066,10066,10083,10083,10100,10100,10116,10133,10133,10150,10150,10150,10166,10166,10183,10183,10183,10200,10236,10273,10283,10300" d="m215,196c8.83333,9.5 9.43803,10.11884 10.49533,11.09c0.43738,0.40175 1.209,1.03316 1.81,1.58334c0.79324,0.72617 1.26932,1.24628 1.81201,2.06532c0.59566,0.89897 0.73506,1.65228 1.21599,2.42801c0.44481,0.71747 1.03484,1.16481 1.78134,1.94933c0.59407,0.62433 1.07053,1.37679 1.48534,2.05867c0.57957,0.95273 1.16017,1.4666 1.78932,2.22533c0.54517,0.65746 0.85281,1.55379 1.25801,2.3c0.4133,0.76112 0.35388,1.69702 0.85266,2.3c0.54253,0.65587 1.41626,1.1543 1.5,2c0.07883,0.79611 0,1.7 0,2.60001c0,0.89999 0,1.79999 0,2.7c0,0.89999 0,1.79984 0,2.67467c0,0.82666 -0.01041,1.72539 0,2.62534c0.01042,0.90018 0.4942,1.63965 0.83333,2.56667c0.2343,0.64046 0.12468,1.43573 0.17117,2.42883c0.04315,0.92169 0.61569,1.68178 0.91017,2.60583c0.29425,0.92334 0.03343,1.64337 0.17065,2.39999c0.18448,1.01724 0.64487,1.78009 0.82935,2.79733c0.13722,0.75662 0.47079,1.99367 -0.20001,2.51601c-0.72481,0.56439 -1.81467,0.08533 -2.71466,0.08533c-0.8,0 -1.50296,-0.3306 -2.33333,-0.83333c-0.6012,-0.36398 -1.64534,-0.16667 -2.41934,-0.16667c-0.89999,0 -1.78287,0.17331 -2.7265,-0.02083c-0.8672,-0.17841 -1.68184,-0.71107 -2.52083,-1.14584c-0.70746,-0.36661 -1.3215,-1.15483 -1.836,-1.66933c-0.5685,-0.5685 -1.36383,-1.36383 -1.95334,-1.95334c-0.5535,-0.5535 -1.29652,-1.35988 -1.836,-1.8c-0.81787,-0.66727 -1.42664,-0.8866 -2.37466,-1.57733c-0.62178,-0.45303 -1.14009,-1.07652 -2,-1.5c-0.74899,-0.36885 -1.85687,-0.45885 -2.5,-0.85416c-0.85623,-0.52629 -1.49431,-1.04268 -2.5,-1.3125c-0.77451,-0.20779 -1.52687,-0.22137 -2.37466,-0.59201c-0.96165,-0.42043 -1.62517,-0.56424 -2.60417,-0.57466c-0.83095,-0.00883 -1.78917,0 -2.52116,0c-1.16667,0 -1.97917,0 -2.82133,0c-0.85333,0 -1.79466,0 -2.56267,0c-0.94133,0 -1.94933,0 -2.74133,0c-0.85866,0 -1.722,0 -2.73866,0c-0.836,0 -1.73601,0 -2.636,0c-0.8,0 -1.67334,-0.28102 -2.22133,-0.87866c-0.5851,-0.63812 -0.76662,-1.32275 -0.77867,-2.28801c-0.01042,-0.83353 -0.20644,-1.6474 -0.57466,-2.45866c-0.38222,-0.84209 -0.42,-1.58528 -0.42534,-2.57449c-0.0042,-0.77933 0,-1.77867 0,-2.59883c0,-0.95851 0,-1.86301 0,-2.66301c0,-0.95966 0,-1.76366 0,-2.58566c0,-1.03117 0,-1.93184 0,-2.95267c0,-0.78934 0,-1.51466 0,-2.58934c0,-0.81065 0,-1.71066 -0.00133,-2.60933l-0.35583,-0.74417" id="svg_2" stroke-width="2" stroke="#000" fill="none"/>
  <path t="11320,11355,11370,11397,11421,11437,11457,11467,11488,11488,11500,11500,11516,11533,11533,11550,11550,11566,11566,11583,11583,11600,11600,11616,11616,11633,11650,11650,11669,11669,11669,11686,11686,11699,11700,11716,11716,11716,11733,11733,11750,11750,11766,11766,11785,11800,11800,11800,11816,11833,11833,11833,11850,11850,11850,11866,11866,11883,11883,11883,11900,11900,11921,11921,11933,11950,11950,11971,11983,11983,12000,12016,12016,12034,12034,12050,12050,12066,12088,12100,12100,12116,12136,12150,12150,12150,12166,12166,12182,12183,12183,12200,12200,12200,12216,12216,12216,12233,12234,12234,12250,12250,12250,12266,12266,12266,12283,12283,12283,12283,12302,12302,12303,12316,12316,12316,12316,12316,12336,12336,12336,12336,12352,12353,12353,12353,12369,12369,12369,12369,12369,12369,12385,12385,12385,12385,12400,12400,12400,12400,12416,12416,12416,12416,12433,12433,12433,12433,12450,12450,12450,12450,12450,12450,12466,12466,12466,12466,12483,12483,12483,12483,12484,12500,12500,12500,12500,12516,12516,12516,12516,12536,12536,12536,12550,12550,12550,12550,12566,12566,12566,12583,12583,12583,12603,12603,12603,12603,12616,12616,12616,12616,12616,12633,12633,12633,12633,12650,12650,12650,12669,12669,12669,12683,12683,12683,12683,12700,12700,12700,12700,12716,12716,12716,12716,12733,12733,12733,12750,12750,12750,12750,12750,12766,12766,12766,12766,12783,12783,12783,12783,12804,12804,12804,12816,12816,12816,12816,12833,12833,12850,12850,12850,12850,12866,12866,12866,12886,12886,12886,12900,12900,12916,12916,12916,12916,12933,12933,12933,12933,12950,12950,12950,12966,12966,12966,12983,12983,12983,12983,13000,13000,13000,13016,13016,13016,13036,13036,13036,13050,13050,13050,13050,13066,13066,13066,13083,13083,13083,13100,13100,13100,13116,13116,13133,13133,13133,13133,13152,13152,13153,13166,13166,13166,13184,13185,13200,13200,13216,13236,13236,13264,13486,13509,13516,13537,13550,13566,13583,13583,13601,13616,13616,13633,13633,13650,13650,13650,13669,13669,13670,13686,13687,13700,13700,13700,13716,13716,13716,13716,13733,13733,13733,13750,13750,13750,13766,13766,13766,13783,13783,13800,13801,13801,13816,13816,13816,13833,13833,13850,13850,13850,13866,13866,13883,13883,13900,13900,13900,13916,13916,13933,13933,13950,13950,13950,13966,13966,13966,13966,13983,13983,13983,14003,14004,14004,14004,14016,14016,14016,14016,14033,14033,14050,14050,14050,14066,14066,14083,14083,14100,14100,14100,14116,14116,14116,14133,14133,14150,14150,14150,14166,14166,14166,14166,14183,14183,14183,14200,14200,14216,14216,14233,14233,14250,14250,14269,14283,14300,14301,14324,14324,14344,14360,14384,14441,14455,14496,14512,14524,14548,14560,14569,14600,14631,14651,14652,14683,14700,14701,14701,14716,14716,14733,14750,14750,14766,14783,14783,14803,14816,14833,14850,14866,14866,14883,14900,14900,14916,14916,14933,14950,14966,14996,15020,15020" d="m173,173c1,0.97467 1.01796,1.80151 1,2.7c-0.01801,0.90054 -0.61813,1.61034 -0.91467,2.5c-0.28587,0.85765 0.00616,1.81255 -0.14249,2.55717c-0.18462,0.92474 -0.59642,1.5881 -0.89017,2.48566c-0.27995,0.85542 -0.7829,1.49084 -1,2.41434c-0.17271,0.7347 -0.35817,1.73534 -0.62733,2.54283c-0.33046,0.99135 -0.41492,1.77901 -0.42534,2.77867c-0.00806,0.77396 0.11673,1.69409 -0.08533,2.53734c-0.21521,0.8981 -0.81148,1.64223 -0.89384,2.50482c-0.09309,0.97496 -0.01903,1.77917 -0.02083,2.57918c-0.00226,1 0.00507,1.81618 -0.284,2.79999c-0.23994,0.81665 -0.56497,1.5974 -0.69067,2.40001c-0.12492,0.79771 -0.32974,1.82236 -0.72983,2.54283c-0.52455,0.9446 -1.06349,1.52805 -1.27017,2.4825c-0.14799,0.68344 -0.49063,1.52927 -1.02533,2.34134c-0.42378,0.64362 -0.78362,1.36102 -1.39999,2.20799c-0.58467,0.80339 -1.005,1.47522 -1.35718,2.08701c-0.5553,0.96466 -1.06053,1.75815 -1.4175,2.27699c-0.64502,0.93755 -1.23547,1.56653 -1.82533,2.42801c-0.43535,0.63585 -0.77614,1.36624 -1.3,2.08066c-0.47871,0.65283 -1.06335,1.37556 -1.41466,2.26868c-0.32466,0.82541 -0.54021,1.71161 -1.08667,2.284c-0.68324,0.71564 -1.55051,0.95941 -2.33734,1.22533c-0.85191,0.2879 -1.17957,1.32465 -1.748,1.77467c-0.71719,0.56779 -1.50557,0.83788 -2.35616,1.5c-0.58995,0.45924 -1.21454,1.26115 -2.05717,1.64732c-0.76874,0.35229 -1.51645,0.7291 -2.3,1.078c-0.83015,0.36966 -1.57599,0.96008 -2.22533,1.38533c-0.7011,0.45915 -1.41811,1.24918 -1.8,1.8c-0.68918,0.99405 -1.18431,1.6071 -1.77916,2.13217c-0.76349,0.67393 -1.41609,1.00085 -2.19551,1.54117c-0.82162,0.56956 -1.40901,1.11066 -1.91466,1.71733c-0.64076,0.76878 -0.97971,1.42279 -1.36934,2.084c-0.59148,1.00374 -0.94812,1.53572 -1.46333,2.362c-0.6398,1.02609 -1.01982,1.73158 -1.40533,2.40533c-0.55786,0.97493 -0.90131,1.49916 -1.422,2.32201c-0.34221,0.54077 -0.95583,1.53647 -1.32533,2.267c-0.26311,0.52019 -0.82153,1.82248 -0.98534,2.21165c-0.35073,0.83331 -0.71418,1.71173 -1.116,2.58002c-0.38796,0.83835 -0.79293,1.59845 -1.188,2.29465c-0.37056,0.65302 -1.05927,1.86508 -1.32667,2.47467c-0.40752,0.92902 -0.63165,1.61353 -1.05067,2.73068c-0.31359,0.83606 -0.486,1.272 -0.83334,2.16666c-0.34734,0.89465 -0.52084,1.3302 -0.97867,2.55701c-0.27153,0.7276 -0.62973,1.729 -0.90533,2.34033c-0.4123,0.91452 -0.94933,1.80893 -1.29066,2.43866c-0.34957,0.64493 -0.81872,1.68011 -1.06817,2.41666c-0.25143,0.7424 -0.44426,1.4971 -0.85716,2.92633c-0.19602,0.6785 -0.41104,1.35971 -0.6,2.08801c-0.31869,1.2283 -0.50139,2.18472 -0.60001,2.69101c-0.20286,1.04144 -0.29274,1.56741 -0.5,2.59c-0.19324,0.9534 -0.39153,1.79962 -0.6,2.55466c-0.28833,1.04431 -0.60754,2.06195 -0.79867,2.78268c-0.19852,0.7486 -0.38606,1.52167 -0.516,2.31598c-0.19529,1.19382 -0.23198,1.99423 -0.28533,2.77783c-0.05199,0.76373 -0.14384,1.85867 -0.35267,2.86368c-0.13288,0.6395 -0.40166,1.54977 -0.52583,2.45734c-0.12397,0.90607 -0.11925,1.85699 -0.1215,2.86649c-0.00159,0.716 0,1.448 0,2.5235c0,0.9765 0,1.80002 0,2.52451c0,1.20685 0,2.02133 0,2.59601c0,1.18933 0,2.09833 0,2.73099c0,1.02902 0,2.20102 0,2.62634c0,0.88266 0,1.78134 0,2.664c0,1.22501 0,1.95367 0,2.94666c0,0.61868 0,1.82001 0,2.7005c0,0.56369 0,1.83951 0,2.5625c0,0.81302 0,1.82251 0,2.62085c0,0.85834 0.00111,1.73666 0,3.00415c-0.00067,0.76266 0.01133,1.46255 -0.036,2.112c-0.08928,1.22507 -0.31824,2.12094 -0.464,2.72134c-0.21836,0.89941 -0.42121,2.1022 -0.47467,2.72134c-0.05614,0.65021 -0.18529,2.11298 -0.30933,2.94666c-0.06516,0.4379 -0.22407,1.33072 -0.36333,2.22665c-0.19746,1.27026 -0.28054,2.03387 -0.31667,2.73334c-0.04969,0.96225 -0.036,1.87201 -0.036,2.772c0,0.89999 0.01207,1.50006 -0.00134,2.70132c-0.01026,0.91968 -0.02411,1.55978 -0.16533,2.56534c-0.15201,1.08231 -0.33617,1.79108 -0.48067,2.46634c-0.23581,1.10202 -0.34225,1.86685 -0.35267,2.867c-0.00903,0.86694 0,1.54166 0,2.25635c0,1.422 0,2.082 0,2.99698c0,1.08002 0,1.78952 0,2.64218c0,1.00717 0,1.8765 0,2.93784c0,0.63599 0,1.328 0,2.41849c0,1.08151 0,1.76151 0,2.70651c0,0.85498 0,1.85898 0,2.5625c0,0.7485 0,1.94849 0,2.6405c0,0.724 0,2.172 0,2.85199c0,0.94501 -0.01754,1.52515 0.00134,2.80267c0.01011,0.6842 0.05548,1.37405 0.28266,2.36932c0.19205,0.84134 0.46536,1.7106 0.59467,2.61484c0.12961,0.90631 0.1479,1.86029 0.28799,2.86649c0.10009,0.71884 0.25185,1.45245 0.444,2.172c0.35706,1.33704 0.70321,2.14017 0.95334,2.84003c0.2909,0.81393 0.37869,1.6366 0.52,2.50665c0.16327,1.00531 0.44114,1.80841 0.632,2.63068c0.23059,0.99338 0.23215,1.6926 0.45066,2.85065c0.15057,0.798 0.36652,1.34671 0.54934,2.23468c0.24478,1.18896 0.22871,1.79126 0.33666,2.64151c0.13216,1.04092 0.48123,1.92551 0.66334,2.55582c0.28526,0.98734 0.26965,1.81927 0.56799,2.80002c0.23825,0.78323 0.61368,1.71759 0.71617,2.70132c0.07307,0.70135 0.6004,1.48758 0.9745,2.29999c0.40656,0.8829 0.97533,1.38742 1.72983,1.65717c0.85731,0.30652 1.65784,0.75079 2.3955,1.16434c0.79286,0.44452 1.245,1.31729 2.22134,1.65717c0.65111,0.22665 1.65526,0.3468 2.34,0.73199c0.87865,0.49426 1.59,0.81232 2.3905,1.03217c1.01579,0.27899 1.72144,0.27585 2.54683,0.44119c1.02197,0.20474 1.62753,0.55112 2.82283,1.01581c0.53154,0.20663 1.37871,0.51544 2.57851,0.73352c0.5959,0.10831 1.50284,0.14035 2.39999,0.25067c0.90347,0.11108 1.79674,0.3295 2.64284,0.62048c0.79805,0.27448 1.71796,0.72565 2.40984,0.93832c0.95293,0.29291 1.77225,0.33514 2.59467,0.35269c1.03094,0.022 1.93184,0.00449 2.95267,0.00449c0.81067,0 1.45717,0 2.42134,0c0.80399,0 1.62599,0 2.89333,0c0.66451,0 1.68533,0 2.48534,0c0.8,0 1.80661,-0.0582 2.59999,0.05716c1.01472,0.14755 1.77965,0.59506 2.8,0.82135c0.59169,0.13123 1.40063,0.09021 2.40001,0.12598c0.80121,0.02869 1.79245,0.30637 2.63599,0.57019c0.92192,0.28833 1.72034,0.38757 2.57468,0.41464c1.18878,0.03769 1.78934,0.01068 2.68933,0.01068c0.89999,0 1.8,0 2.7,0c0.90001,0 1.8,0 2.7045,0c0.61633,0 1.58084,0 2.61667,0c0.72701,0 1.8175,0 2.50951,0c1.19867,0 1.92766,0 2.96933,0c0.8,0 1.60001,0 2.60001,0c0.79999,0 1.79999,0 2.59999,0c1.00017,0 1.82083,0 2.48534,0c0.99867,0 1.81467,0 2.63066,0c1.22684,0 1.87334,0 2.88434,0c0.84134,0 1.57033,0 2.769,0c0.692,0 1.416,0 2.14801,0c1.396,0 2.036,0 2.92099,0c1.04018,0 1.94084,0 2.96167,0c0.78934,0 1.83333,0 2.62534,0c0.85866,0 1.722,0 2.61749,0c0.95851,0 1.92384,0 2.5825,0c1.008,0 1.87016,0 2.77467,0c0.89999,0 1.83482,-0.24289 2.6955,0.00449c0.7679,0.2207 1.30698,0.62704 2.18367,1.01636c0.71089,0.3157 1.3226,0.61591 2.08482,1.01517c0.7583,0.39722 1.03204,1.15585 1.60268,1.79733c0.59654,0.67059 1.36066,0.79822 1.82933,1.57733c0.46835,0.77856 1.07738,1.22296 1.728,1.76398c0.93454,0.77713 1.17505,1.48004 1.71201,2.22534c0.56398,0.78284 1.26401,1.30002 1.864,1.89999c0.70001,0.70001 1.35251,1.1759 2.08932,1.67468c0.66707,0.45157 1.28621,0.94476 2.01067,1.46133c0.78548,0.56009 1.24097,1.26483 1.60001,2.064c0.35979,0.80084 0.87375,1.32071 1.82533,1.89999c0.68175,0.41504 1.52235,0.82358 2.05333,1.69983c0.44096,0.72772 1.03734,1.18552 1.34267,2.00018l0.49467,0.69998" id="svg_3" stroke-width="2" stroke="#000" fill="none"/>
  <path t="17079,17153,17182,17201,17201,17225,17236,17252,17266,17266,17284,17300,17316,17316,17333,17333,17349,17349,17366,17366,17383,17383,17383,17399,17399,17399,17416,17416,17416,17433,17433,17449,17449,17466,17466,17483,17483,17483,17483,17500,17500,17500,17516,17516,17516,17533,17533,17533,17549,17549,17566,17566,17566,17583,17584,17599,17599,17616,17633,17633,17633,17649,17649,17666,17683,17683,17683,17699,17699,17716,17716,17716,17716,17733,17733,17733,17733,17749,17749,17749,17766,17766,17766,17783,17783,17783,17783,17799,17799,17799,17816,17816,17816,17833,17833,17833,17833,17849,17849,17849,17850,17866,17866,17866,17937,17937" d="m237,252c1.83333,0.16667 2.28394,0.74889 3.10001,1.2215c0.66653,0.38602 1.25557,1.23848 1.99983,1.65717c0.74164,0.41722 1.01797,1.33527 1.60466,1.76416c0.75946,0.55521 1.2706,1.02109 1.58084,1.8425c0.28088,0.74368 0.79324,1.72589 1.21466,2.49384c0.47615,0.86771 1.03894,1.33212 1.37866,2.34235c0.22624,0.67276 0.23958,1.69687 0.56801,2.48917c0.27539,0.66434 0.87813,1.60843 1.20149,2.142c0.49611,0.81863 1.06215,1.86838 1.242,2.59018c0.20966,0.84146 0.39212,1.85648 0.60983,2.43631c0.37572,1.00061 0.52161,1.78445 0.85716,2.68701c0.23228,0.62479 0.64995,1.66498 0.84283,2.30182c0.31154,1.02859 0.47495,1.73477 0.8,2.69867c0.27872,0.82648 0.59923,1.51242 1.10001,2.53351c0.29951,0.61072 0.72064,1.47717 1.09866,2.48383c0.20178,0.53732 0.49127,1.3537 0.67999,2.3945c0.16214,0.89423 0.24991,1.93536 0.55734,2.7215c0.23941,0.61218 0.73792,1.61292 1.164,2.36401c0.4715,0.83121 0.96744,1.42355 1.38531,2.24667c0.46133,0.90872 0.86871,1.42163 1.36652,1.93665c0.75195,0.77798 1.44684,1.45135 2.05884,2.06335c0.75598,0.75598 1.242,1.242 1.76398,1.76398c0.80417,0.80417 1.34494,1.34744 2.15869,2.15869c0.43665,0.43533 0.92017,0.93848 1.48798,1.41599c1.1431,0.9613 1.77332,1.28647 2.35736,1.58932c0.80334,0.4166 1.7016,0.96243 2.32132,1.68219c0.48651,0.56503 1.26273,1.38742 1.76132,1.77914c0.78036,0.61313 1.58417,1.18594 2.28152,1.80002c0.44421,0.39117 1.05615,0.99966 1.85715,1.79999c0.60025,0.59976 1.20001,1.20001 1.80017,1.80017c0.6105,0.6105 1.25699,1.25699 1.96649,1.96649c0.51733,0.51733 1.05869,1.05869 1.608,1.608c1.05869,1.05869 1.54001,1.54001 1.98935,1.98935c0.6315,0.6315 1.43582,1.43582 2.02533,2.02533l0.5535,0.5535l0.77051,0.76917l0.60001,0.51599" id="svg_4" stroke-width="2" stroke="#000" fill="none"/>
  <path t="18759,18769,18769,18769,18769,18769,18769,18769,18769,18769,18785,18786,18786,18786,18786,18786,18786,18802,18802,18819,18819,18819,18833,18833,18849,18849,18866,18883,18883,18883,18899,18899,18916,18916,18916,18933,18933,18949,18949,18949,18966,18966,18983,18983,18999,18999,18999,19016,19016,19033,19033,19033,19033,19049,19049,19049,19049,19066,19066,19083,19083,19099,19099,19099,19116,19116,19116,19133,19133,19149,19149,19149,19166,19166,19183,19183,19199,19199,19228,19264,19296,19308,19933,19933,19933,19957,19958,19958,19966,19966,19966,20019,20021,20021,20033,20033,20033,20033,20049,20049,20065,20066,20082,20112,20128,20140,20164,20164,20180,20196,20214,20232,20248,20249,20265,20266,20282,20299,20299,20299,20316,20316,20332,20333,20333,20349,20349,20365,20366,20382,20398,20399,20399,20415,20416,20416,20432,20433,20448,20465,20466,20488,20504,20516,20516,20532,20533,20549,20549,20566,20566,20583,20583,20599,20599,20616,20616,20633,20633,20633,20633,20649,20666,20666,20683,20683,20699,20699,20716,20716,20732,20733,20749,20749,20749,20765,20766,20783,20799,20799,20816,20816,20816,20833,20833,20849,20849,20866,20883,20899,20899,20916,20916,20933,20948,20949,20966,20988,21012,21020" d="m206,295c8.5,13.33334 9.23581,14.51181 9.93733,15.64667c0.66977,1.0835 1.30138,2.11331 1.896,3.08249c0.55472,0.90414 1.06493,1.73984 1.53601,2.4975c0.79329,1.27588 1.12065,1.78165 1.40399,2.20667c0.23872,0.35809 0.44489,0.65463 0.6225,0.90002c0.2789,0.38535 0.78679,1.16351 1.24017,1.87732c0.50996,0.80289 1.0065,1.39432 1.53867,1.95334c0.78903,0.82883 1.41466,1.42535 2.02533,2.03601c0.59999,0.59998 1.17268,1.25122 1.96667,1.79999c0.64145,0.44333 1.43452,0.80026 2.23332,1.20001c0.79987,0.40027 1.8,0.89999 2.40001,1.19998c0.8,0.39999 1.59999,0.80002 2.39999,1.20001c1,0.5 1.59975,0.80051 2.40001,1.19998c0.79973,0.3992 1.5787,0.84204 2.59999,1.07867c0.78827,0.18265 1.80507,0.27237 2.40001,0.474c0.80742,0.27365 1.80046,0.59491 2.672,0.63666c1.06017,0.05078 1.69733,0.01068 2.38933,0.01068c1.0905,0 2.172,0 2.85201,0c0.94499,0 1.8,0 2.80133,0c0.87466,0 1.88533,0 2.68533,0c1,0 1.81067,0 2.45715,0c0.96417,0 1.76819,0 2.59018,0c1.26733,0 1.93182,0 2.95267,0c0.79999,0 1.60001,0 2.60001,0c0.79999,0 1.80652,-0.07864 2.564,0.03601c0.97141,0.14703 1.60333,0.81583 2.53601,0.9595c0.88953,0.13702 1.79327,0.10446 2.35266,0.65182c0.42764,0.41846 -0.3703,0.70016 -0.93802,1.23932c-0.61456,0.58368 -1.1355,1.13419 -1.71597,1.71466c-0.79736,0.79736 -1.37784,1.37784 -1.91336,1.91336c-0.84933,0.84933 -1.52707,1.44937 -2.00616,2.04782c-0.71146,0.8887 -0.96509,1.48846 -1.3045,2.11349c-0.35129,0.64694 -0.99966,1.82947 -1.41299,2.45251c-0.58334,0.87933 -0.57571,1.59836 -0.79767,2.4715c-0.21921,0.86227 -0.92126,1.59698 -0.96399,2.5c-0.04251,0.89899 0,1.69998 0,2.60001c0,0.94281 -0.0705,1.93381 0.64667,2.32532c0.76956,0.4201 1.57501,0.51624 2.46799,1.17468c0.61685,0.45483 1.14194,1.16351 2.052,1.79999c0.63898,0.4469 1.24365,0.68869 2.23334,1.20132c0.60361,0.31265 1.60776,0.9559 2.1955,1.44684c0.57626,0.48138 1.35818,1.21857 2.15717,1.34283c0.88943,0.13834 1.80948,-0.00232 2.62201,0.44501c0.85175,0.46893 1.44724,1.02652 2.31201,1.27866c0.9765,0.28473 1.81314,0.27368 2.62933,0.284c0.99722,0.01257 1.83731,0.00134 2.79865,0.00134c0.88535,0 1.72232,0.2045 2.58536,-0.05716c0.88489,-0.26828 1.44699,-1.00299 2,-1.70001c0.54785,-0.69052 0.93185,-1.39481 1.21597,-2.35883c0.22226,-0.75409 0.51303,-1.72336 0.88535,-2.48532c0.39139,-0.80096 0.75555,-1.59079 1.29868,-2.37735c0.46448,-0.67264 1.12167,-1.49683 1.39999,-2.06299c0.54309,-1.10483 0.71262,-1.63626 0.97916,-2.4375c0.2486,-0.74728 0.4003,-1.88867 0.80484,-2.72217c0.35324,-0.72781 0.69681,-1.63409 0.71466,-2.39999c0.02328,-0.99841 0.00134,-1.79868 0.00134,-2.79868c0,-0.80002 0,-1.80002 0,-2.60001c0,-1 0.0567,-1.80917 -0.08533,-2.60001c-0.18219,-1.01453 -0.6788,-1.71271 -0.85751,-2.64734c-0.173,-0.90469 -0.00369,-1.78748 -0.22382,-2.75266c-0.13968,-0.61246 -0.5415,-1.38559 -0.74933,-2.39868c-0.15536,-0.75732 -0.44058,-1.6752 -0.80002,-2.39999c-0.42749,-0.86197 -0.8374,-1.69958 -1.384,-2.52249c-0.42606,-0.64142 -0.91721,-1.31393 -1.69998,-1.76151c-0.71692,-0.40991 -1.30798,-1.24817 -2,-1.63199c-0.82449,-0.45728 -1.80002,-0.28534 -2.70001,-0.28534l-0.89999,0" id="svg_5" stroke-width="2" stroke="#000" fill="none"/>
  <path t="22139,22159,22159,22181,22181,22202,22202,22219,22219,22236,22236,22250,22250,22267,22267,22284,22284,22300,22300,22300,22316,22333,22333,22349,22349,22349,22366,22366,22383,22399,22399,22416,22436" d="m239,334c3.944,5.77335 4.45203,6.38248 5.09984,7.10016c0.47501,0.52625 0.74561,1.39801 0.95284,2.24716c0.22493,0.92166 0.72253,1.52255 0.922,2.48868c0.15631,0.75711 0.41496,1.75134 0.67267,2.564c0.3129,0.98669 0.34732,1.79999 0.35266,2.80002c0.00427,0.79999 -0.03513,1.80124 0.01067,2.58932c0.0423,0.72794 0.56296,1.52771 0.86783,2.53217c0.2052,0.67609 0.12151,1.6785 0.12151,2.47849c0,0.80002 0,1.7955 0,2.71469c0,0.98532 0,1.80664 0,2.65997l0,0.94l0,0.98535" id="svg_6" stroke-width="2" stroke="#000" fill="none"/>
  <path t="23026,23036,23036,23036,23036,23036,23036,23036,23036,23036,23053,23053,23053,23053,23069,23083,23084,23084,23084,23100,23100,23100,23116,23116,23116,23117,23133,23133,23133,23133,23150,23150,23150,23150,23167,23167,23167,23167,23184,23184,23184,23200,23200,23200,23216,23217,23233,23233,23234,23234,23250,23250,23250,23250,23267,23267,23284,23284,23300,23300,23316,23333,23350,23367,23383,23399,23417,23433,23450,23467,23483,23483,23500,23517,23517,23533,23533,23550,23567,23567,23583,23583,23600,23600,23660" d="m188,360c6.83333,9.5 7.47437,10.3371 8.108,11.13599c0.60918,0.76804 1.20042,1.49387 1.767,2.17651c0.53223,0.64127 1.03278,1.2326 1.49699,1.77151c0.79146,0.91876 1.39568,1.60913 1.84801,2.09998c0.56631,0.61453 1.28679,1.37607 2.11333,1.81601c0.65689,0.34964 1.48709,0.60269 2.06934,0.79999c1.19681,0.40555 1.80533,0.60858 2.7545,0.90002c1.00674,0.30911 1.72658,0.50098 2.46817,0.69998c0.74907,0.20099 2.20818,0.59937 2.88933,0.79868c0.64952,0.19006 1.57378,0.48151 2.48534,0.63467c0.89905,0.15106 1.52296,0.14502 2.48534,0.25067c1.03865,0.11404 1.76311,0.2673 2.49384,0.41599c1.0519,0.21405 1.97508,0.41455 3,0.47916c0.70236,0.04425 1.70483,0.02084 2.52083,0.02084c0.81599,0 1.81964,0.03854 2.76134,-0.03601c1.07655,-0.08521 1.70813,-0.24731 2.39999,-0.38931c0.72415,-0.14865 2.17081,-0.41843 2.85066,-0.49066c0.92412,-0.09818 1.76633,-0.03018 2.67818,-0.44119c0.75002,-0.33804 1.47377,-0.92386 2.15717,-1.34283c0.78081,-0.4787 1.38383,-1.17743 2.15266,-1.77914c0.6489,-0.50784 1.43643,-0.88297 2,-1.52084c0.51552,-0.5835 1.35425,-1.04398 1.49867,-1.80133c0.16833,-0.88278 -0.11063,-1.80807 0.02216,-2.71951c0.14395,-0.98804 0.67416,-1.61865 0.89384,-2.59381c0.19547,-0.86771 0.08533,-1.64252 0.08533,-2.53802c0,-0.86331 0,-1.84732 0,-2.66882c0,-0.88916 0,-1.87833 0,-2.65765l0,-0.99933l0,-0.82019l0,-0.91599" id="svg_7" stroke-width="2" stroke="#000" fill="none"/>
  <path t="24292,24552,24552,24562,24585,24601,24616,24616,24632,24632,24632,24649,24649,24649,24649,24666,24666,24666,24682,24682,24682,24682,24699,24699,24699,24716,24716,24716,24732,24732,24732,24732,24749,24749,24749,24766,24766,24766,24782,24782,24799,24799,24799,24799,24816,24816,24832,24832,24832,24832,24849,24849,24849,24866,24866,24866,24882,24882,24882,24899,24899,24899,24916,24916,24916,24932,24932,24949,24949,24949,24972,24972,24972,25040,25060,25076,25076,25084,25099,25099,25116,25132,25132,25132,25150,25150,25150,25166,25166,25181,25182,25199,25199,25199,25199,25215,25216,25231,25231,25232,25248,25265,25265,25266,25281,25298,25316,25347,25376,25376,25383,25399,25416,25432,25449,25476,25476,25488,25527,25659" d="m246,373c-0.83333,1 -0.57594,1.69043 0,2.47916c0.46753,0.64029 0.9751,1.18475 1.28534,2.00616c0.28088,0.74368 0.8067,1.71906 1.12532,2.32535c0.46294,0.88092 0.91391,1.60886 1.41467,2.42532c0.35161,0.57327 0.7326,1.14529 1.28934,2.36401c0.26999,0.591 0.58488,1.49863 0.88533,2.39999c0.29955,0.89865 0.58798,1.79446 0.71466,2.39999c0.24887,1.1897 0.23003,1.7926 0.33801,2.64285c0.13226,1.04129 0.47905,1.974 0.74866,2.7265c0.31131,0.8689 0.49597,1.53677 0.79868,2.57999c0.19823,0.6832 0.50879,1.60455 0.78932,2.38934c0.33611,0.94022 0.52667,1.94531 0.61067,2.76132c0.08401,0.81601 0.29346,1.81311 0.5,2.5c0.3494,1.16196 0.45444,1.95203 0.47916,2.5c0.03677,0.8154 -0.00192,2.05356 0.05685,2.76132c0.08936,1.07626 0.24661,1.70697 0.46399,2.73868c0.14642,0.69485 0.36523,1.66306 0.44284,2.49017c0.08963,0.95526 0.05716,1.93115 0.05716,2.73517c0,0.82199 0,1.85333 0,2.77466c0,0.68399 0,1.68533 0,2.52084c0,0.88049 0,1.77899 0,2.66849c0,0.85352 0,1.88916 0,2.78983c0,1.02084 0,1.83151 0,2.478c0,0.96402 0,2.022 0,2.7735c0,0.95502 -0.19818,1.92993 0.16666,2.76935c0.29755,0.68457 1.2746,1.21188 1.71201,2.10001c0.3223,0.65442 0.6618,1.422 1.44266,2.2215c0.50327,0.51526 1.07132,1.04907 1.65717,1.87851c0.54446,0.77084 0.81073,1.40482 1.3215,2.39548c0.29459,0.57135 0.91891,1.51038 1.336,2.10184c0.55453,0.78638 1.01669,1.66068 1.36401,2.30267c0.34732,0.642 0.96796,1.74298 1.36401,2.30267c0.61972,0.87573 1.00702,1.54028 1.43597,2.21332c0.56302,0.88336 1.23126,1.63318 1.58936,2.30936c0.35727,0.67465 0.42236,1.76556 0.96783,2.47015c0.57803,0.74664 1.40808,0.97794 1.80948,1.7045c0.42688,0.77271 1.34286,1.18143 1.71185,2.10001c0.3385,0.84271 0.46426,1.51285 1.00015,2.12149c0.62308,0.70767 0.82584,1.42133 1.68533,1.80383l0.48868,0.67917l0.42648,0.75385" id="svg_8" stroke-width="2" stroke="#000" fill="none"/>
  <path t="26319,26336,26336,26336,26336,26388,26388,26476,26486" d="m247,462c-0.87849,5.27802 -0.95352,6.12891 -0.97917,6.91666c-0.0334,1.02563 -0.02083,2.02734 -0.02083,2.87933l0,0.90402l0.05716,0.94281" id="svg_9" stroke-width="2" stroke="#000" fill="none"/>
  <path t="28542,28562,28577,28577,28601,28619,28619,28632,28632,28632,28650,28650,28650,28650,28667,28667,28683,28683,28700,28700,28716,28716,28732,28732,28768,28768,28820,28828,28832,28849,28866,28882,28899,28916,28916,28932,28932,28949,28949,28966,28966,28982,28982,28982,28999,28999,29016,29016,29016,29032,29032,29032,29049,29049,29049,29066,29066,29082,29082,29099,29099,29116,29132,29216,29216,29226,29249,29267,29283,29283,29300,29318,29318,29333,29333,29350,29350,29350,29367,29367,29383,29383,29400,29417,29433,29450,29450,29467,29483,29500,29500,29517,29517,29542,29577,29722" d="m176,443c1.97917,1.02084 2.2433,1.96631 2.57466,2.58932c0.42899,0.80658 0.66461,1.72528 0.92534,2.43152c0.35822,0.97034 0.4621,1.802 0.55267,2.4935c0.14815,1.13101 0.2981,1.78693 0.52199,2.79898c0.14017,0.63361 0.31229,1.83325 0.50934,2.56802c0.26262,0.97925 0.6927,1.70728 0.83067,2.51865c0.13469,0.79211 0.08533,1.80002 0.08533,2.60001c0,1 -0.04126,1.98016 0,2.83334c0.04271,0.88309 0.6954,1.43597 1.284,2.08264c0.57765,0.63464 1.23665,1.07358 2.116,1.08401c0.89995,0.01068 1.84938,-0.14587 2.70018,0.22134c0.7189,0.3103 1.55566,0.74612 2.30432,0.77417c0.99481,0.03726 1.7955,0.00449 2.7955,0.00449c0.8,0 1.8,0 2.60001,0c0.8,0 1.8045,0 2.65717,0c0.96432,0 1.77882,0 2.64734,0c0.89549,0 1.79312,0.0325 2.6595,-0.03601c1.07391,-0.08493 1.78908,-0.29642 2.42532,-0.57465c1.02861,-0.44983 1.75893,-0.95493 2.644,-1.22269c0.77264,-0.23373 1.81934,-0.16666 2.51401,-0.16666c1.01666,0 2.02943,0.18347 2.7525,-0.2215c0.73735,-0.41296 1.06224,-1.39725 0.87933,-2.2785c-0.17635,-0.8497 -1.06848,-1.42712 -1.54317,-2.10001c-0.51836,-0.7348 -0.78319,-1.71793 -1.32268,-2.28534c-0.58337,-0.61356 -1.09467,-1.16342 -2.11333,-1.948c-0.5746,-0.44257 -1.25635,-0.69659 -1.97833,-1.48798c-0.56026,-0.61411 -0.80562,-1.68701 -1.07434,-2.37418c-0.33525,-0.8573 -0.8118,-1.61304 -0.94865,-2.50452c-0.14058,-0.91577 -0.62927,-1.5072 -1.024,-2.39999c-0.31412,-0.71048 -0.87167,-1.55798 -0.95384,-2.39999c-0.09505,-0.97409 -0.02083,-1.6955 -0.05682,-2.60001l-0.38934,-0.79999l-0.48933,-0.80002" id="svg_10" stroke-width="2" stroke="#000" fill="none"/>
  <path t="32472,32555,32555,32614,32615,32653,32677,32689,32713,32721,32733,32750,32766,32801,32817,32825,32857,32901,32913" d="m259,183c2.11465,6.40266 2.79874,7.0141 3.70001,7c0.86462,-0.01352 1.29773,-0.70448 1.29999,-1.60001c0.00226,-0.89999 0.24289,-1.83482 -0.00449,-2.6955c-0.2207,-0.7679 -1.10739,-1.18387 -1.64285,-1.75717c-0.63998,-0.68521 -1.35266,-0.94733 -2.23132,-1.16866l-0.40668,-0.69334l-0.91467,-0.08533l-0.89981,-0.00017" id="svg_11" stroke-width="2" stroke="#000" fill="none"/>
 </g>
 <g display="none">
  <title>muse_image</title>
  <image xlink:href="http://farm3.static.flickr.com/2026/2222909481_4495bc258d.jpg" id="muse" height="480" width="462" y="0" x="89"/>
 </g>
 <g display="none">
  <title>bbox</title>
  <rect stroke="#f00" fill="none" stroke-width="3" height="311.04" width="261.6722" y="117.12" x="150.3444" id="bbox"/>
 </g>
</svg>
