<svg width="640" height="480" xmlns="http://www.w3.org/2000/svg" xmlns:svg="http://www.w3.org/2000/svg" xmlns:xlink="http://www.w3.org/1999/xlink">
 <!-- Sketchy ANNOTATION
  ImageNet ID: n02503517_5527
  URL: http://farm3.static.flickr.com/2203/2063264905_d33a1f2630.jpg
  Image Width: 500
  Image Height: 375
  BBox X: 176
  BBox Y: 66
  BBox Width: 260
  BBox Height: 219
  Exposure: 2000ms
  Synset Label: elephant
  Synset ID: n02503517
  Worker Tag: elephant
  Sanity Check: 
   Context
   Saved
   Shading
  Comment: 
   {}
  Worker ID: AQ9ISCTDF9B48
  Assignment ID: 3C5W7UE9CFQACP76KDF4W96AHAYMX6
  HIT ID: 3Z33IC0JC0M1EWLN5N5FEI8K0AF9VW
  Work Time: 130s
  Worker Score: 0.9286
 END ANNOTATION -->
 <g display="inline">
  <title>Layer 1</title>
  <path t="0,254,254,270,286,310,326,334,334,350,366,382,382,391,391,408,424,441,441,458,458,474,474,491,508,508,524,541,559,582,582,598,614,646,646,654,678,694,726,726,750,758,766,766,790,798,814,830,846,858,874,891,908,908,925,926,941,958,974,974,975,991,991,1008,1008,1024,1041,1058,1075,1091,1091,1108,1126,1126,1141,1141,1158,1158,1174,1175,1175,1191,1191,1208,1224,1241,1261,1262,1286,1286,1302,1302,1318,1318,1318,1334,1341,1341,1373,1406,1406,1414,1430,1430,1441,1458,1477,1493,1494,1517,1518,1525,1526,1541,1558,1559,1559,1574,1575,1575,1591,1591,1608,1608,1625,1625,1642,1642,1658,1678,1678,1691,1691,1708,1724,1741,1766,1766,1805,1806,1814,1814,1838,1853,1854,1901,1925,1926,1941,1957,1958,1973,1989,1990,2013,2029,2038,2045,2058,2075,2091,2108,2108,2126,2126,2126,2141,2142,2158,2159,2181,2191,2191,2208,2224,2241,2241,2258,2274,2274,2291,2291,2309,2310,2333,2342,2358,2381,2391,2414,2414,2430,2454,2470,2486,2502,2517,2533,2557,2558,2573,2589,2598,2614,2624,2641,2641,2658,2674,2675,2675,2691,2692,2692,2708,2709,2725,2726,2741,2742,2758,2759,2759,2774,2775,2798,2798,2814,2824,2825,2841,2858,2859,2874,2875,2891,2891,2908,2909,2924,2925,2941,2942,2958,2959,2974,2975,2991,2992,3008,3024,3025,3041,3042,3058,3059,3075,3075,3091,3092,3108,3109,3126,3126,3141,3142,3158,3159,3175,3175,3191,3192,3209,3209,3209,3224,3241,3259,3259,3275,3275,3292,3292,3309,3309,3325,3342,3359,3359,3375,3397,3397,3422,3422,3429,3429,3442,3459,3459,3475,3475,3492,3492,3509,3509,3509,3525,3525,3526,3542,3542,3559,3559,3559,3559,3575,3575,3592,3592,3592,3609,3609,3609,3625,3625,3625,3642,3642,3642,3659,3659,3659,3675,3675,3675,3692,3692,3692,3692,3709,3709,3709,3725,3725,3725,3742,3742,3759,3759,3759,3775,3776,3776,3792,3793,3793,3793,3809,3809,3809,3810,3810,3825,3825,3826,3842,3842,3859,3859,3860,3876,3876,3892,3892,3893,3909,3910,3926,3926,3942,3943,3943,3943,3959,3959,3976,3976,3992,3992,4009,4010,4026,4026,4043,4043,4059,4060,4076,4093,4093,4109,4110,4127,4127,4143,4143,4143,4144,4159,4160,4175,4193,4194,4209,4210,4226,4226,4226,4242,4243,4260,4260,4276,4276,4292,4292,4309,4310,4325,4326,4343,4343,4359,4360,4375,4376,4392,4393,4409,4410,4425,4442,4442,4459,4475,4475,4475,4475,4492,4492,4509,4526,4526,4542,4543,4559,4560,4560,4575,4575,4592,4592,4609,4609,4609,4625,4641,4642,4642,4659,4675,4675,4692,4693,4693,4709,4709,4725,4742,4742,4759,4759,4775,4797,4797,4808,4824,4825,4845,4858,4875,4892,4909,4909,4925,4942,4942,4965,4965,4981,4981,4991,5008,5025,5041,5058,5078,5093,5094,5109,5126,5127,5142,5159,5174,5191,5208,5209,5224,5225,5225,5241,5258,5274,5291,5309,5309,5325,5325,5342,5365,5365,5381,5397,5398,5408,5429,5453,5462,5475,5492,5492,5509,5525,5525,5542,5542,5559,5559,5575,5575,5592,5592,5609,5625,5625,5641,5642,5659,5659,5675,5675,5692,5692,5709,5709,5725,5742,5742,5758,5759,5759,5775,5775,5792,5792,5792,5809,5809,5809,5825,5825,5842,5859,5875,5892,5892,5909,5925" d="m205,152c1,-1 0.80405,-1.83444 1.05716,-2.7c0.25664,-0.87764 0.91417,-1.59865 0.94284,-2.5c0.02863,-0.89955 0.01054,-1.65446 0.61067,-2.40001c0.61404,-0.76285 1.08739,-1.47 1.49916,-2.09999c0.46251,-0.70761 1.56116,-0.98122 1.86884,-1.90001c0.28609,-0.85435 0.40105,-1.68793 0.82266,-2.28532c0.52768,-0.74768 0.83655,-1.50691 1.49867,-2.3575c0.45924,-0.58995 1.17456,-1.28362 1.89999,-1.95584c0.58046,-0.53789 1.43304,-0.85986 1.884,-1.60266c0.42761,-0.70435 1.1187,-1.39598 1.716,-1.99867c0.59201,-0.59734 0.96373,-1.46706 1.42149,-2.3c0.37097,-0.67503 1.13408,-1.35999 1.87834,-1.77867c0.74164,-0.41721 1.08882,-1.24932 1.60466,-1.82133c0.65581,-0.7272 1.39391,-1.19108 2.2955,-1.3c0.79874,-0.0965 1.6539,-0.48255 2.38933,-0.97467c0.66948,-0.44799 1.2213,-1.02 2.11067,-1.02533c0.89998,-0.00539 1.8,0 2.70134,0c0.96533,0 1.83276,0.11073 2.63199,-0.16666c0.81158,-0.28168 1.56613,-0.81533 2.47568,-0.83334c1.02412,-0.02027 1.69633,0 2.44032,0c1.10783,0 1.99884,0 2.90334,0c0.69467,0 1.71133,0 2.64734,0c0.89999,0 1.8,0 2.7,0c0.8,0 1.75717,0 2.65717,0c0.74733,0 1.74283,0 2.54283,0c1,0 1.8,0 2.8,0c0.79999,0 1.60001,0 2.59549,0c0.91919,0 1.76852,0 2.7045,0c0.90134,0 1.87051,-0.06165 2.70001,0.02084c0.84186,0.08372 1.6033,0.62276 2.3215,1.07916c0.67996,0.43211 1.68225,0.89265 2.27399,1.2c0.75223,0.39072 1.55301,1.16252 2.40451,1.53333c0.74896,0.32615 1.65146,0.15482 2.48401,0.45066c0.8826,0.31363 1.811,0.5351 2.616,0.93734c0.65826,0.32892 1.52344,0.76022 2.29999,1.20399c0.72409,0.4138 1.59952,0.74201 2.23599,1.18533c0.84738,0.59023 1.5629,0.95232 2.3425,1.48917c0.63187,0.4351 1.45761,0.79529 2.34317,1.12199c0.74728,0.2757 1.38269,0.72813 2.09952,1.32066c0.8143,0.6731 1.26312,1.23991 2.24548,1.9575c0.62976,0.46002 1.42017,0.95238 1.83334,1.5c0.58191,0.77127 1.40506,1.03279 2.15268,1.35716c0.89066,0.38643 1.60403,0.92813 2.34732,1.64284c0.5097,0.4901 1.11914,1.31136 1.79999,1.71466c0.82718,0.48997 1.62167,0.84431 2.15186,1.58084c0.44543,0.61879 1.28638,0.65912 2.24799,0.92583c0.79755,0.22121 1.81119,0.55592 2.49567,0.83134c0.86353,0.34746 1.42294,1.25986 2.10449,1.66199c0.76813,0.4532 1.67697,0.5867 2.37466,0.86c0.93118,0.36475 1.85965,0.55009 2.52536,1.12984c0.6351,0.55309 1.43323,1.08356 2.09998,1.3795c0.85779,0.38075 1.63913,0.65562 2.49551,0.9205c0.76331,0.23608 1.31516,0.98489 2.2045,0.9955c0.89999,0.01073 1.66031,0.36736 2.31433,0.64734c0.91171,0.39029 1.70633,0.34116 2.50299,0.35133c1.22543,0.01566 1.87201,0.00133 2.88251,0.00133c0.96417,0 1.91483,0 2.80017,0c0.79999,0 1.70001,0 2.63599,0c0.84802,0 1.71133,0 2.61136,0c0.91931,0 1.75266,0 2.73132,0c0.77399,0 1.67401,0 2.53732,0c0.96317,0 1.884,0 2.784,0c0.90002,0 1.80002,0 2.70001,0c0.79999,0 1.70001,0 2.60001,0c0.89999,0 1.79999,0 2.69998,0c0.90002,0 1.85349,0.18134 2.70001,-0.16667c0.67108,-0.27589 1.49982,-0.82291 2.39999,-0.83333c0.89993,-0.01041 1.80002,0 2.70001,0c0.89999,0 1.71857,-0.05595 2.42084,-0.52083c0.82404,-0.54547 1.50491,-1.00754 2.16583,-1.19383c0.97803,-0.2757 1.80411,-0.21312 2.54398,-0.36934c1.14746,-0.24228 1.71432,-0.76886 2.77469,-1.2115c0.72992,-0.3047 1.66132,-0.53783 2.49466,-0.7045c0.83334,-0.16667 1.74762,-0.43582 2.49466,-0.64734c0.85919,-0.24327 1.75467,-0.31046 2.65802,-0.35716c0.86594,-0.04477 1.67377,-0.53256 2.51398,-0.82883c0.78223,-0.27582 1.60535,-0.71283 2.40268,-1.08267c0.72061,-0.33424 1.70047,-0.41881 2.18332,-0.84567c0.76944,-0.68022 1.3504,-1.48152 2.08069,-1.905c0.73639,-0.427 1.83008,-0.2805 2.57117,-0.39049c1.00867,-0.1497 1.73245,-0.60327 2.57416,-0.82133c0.75775,-0.19632 1.6879,-0.05138 2.62265,-0.20683c0.81061,-0.13481 1.52347,-0.63597 2.64603,-0.85751c0.90366,-0.17834 1.578,-0.05716 2.586,-0.05716c0.79199,0 1.82382,0 2.57117,0c0.99548,0 1.7955,0 2.79532,0c0.77933,0 1.77884,0 2.55283,0c0.90451,0 1.65186,0 2.64734,0c0.80002,0 1.80002,0 2.60001,0c1,0 1.97916,0 2.83334,0c0.828,0 1.70932,0 2.66666,0c0.73199,0 1.828,0 2.70132,0c0.96533,0 1.62402,0 2.63202,0c0.79199,0 1.82382,0 2.57117,0c0.99417,0 1.75949,0 2.83832,0c0.85718,0 1.75717,0 2.55716,0c0.836,0 1.86353,-0.0533 2.60452,0.05716c1.00888,0.15039 1.78732,0.5099 2.57397,1.04268c0.63519,0.43021 1.45532,0.80238 2.32602,1.25282c0.60852,0.3148 1.53973,0.57481 2.29681,0.73134c1.01816,0.21049 1.62772,0.54378 2.56534,0.916c0.78046,0.30984 1.59698,0.61179 2.66669,0.83333c0.70367,0.14574 1.58704,0.13055 2.56799,0.45334c0.86343,0.28412 1.76505,0.88045 2.28265,1.196c0.81558,0.49721 1.32486,0.90399 2.3945,1.27451c0.87653,0.30363 1.92978,0.38501 2.526,0.59999c0.86612,0.31229 1.8201,0.73468 2.62085,1.0535c0.55164,0.21964 1.62097,0.73744 2.3175,1.2375c0.65921,0.47327 1.44418,1.05885 2.26782,1.30118c0.638,0.1877 1.62204,0.47234 2.41467,0.91199c0.55771,0.30934 1.59833,0.98935 2.32199,1.3815c0.66946,0.36278 1.61566,0.76697 2.40982,1.05717c0.84973,0.31053 1.44501,0.49757 2.64151,0.89999c0.59106,0.19879 1.45441,0.47446 2.47968,0.90001c0.68222,0.28317 1.43436,0.70091 2.30701,1.29999c0.58356,0.40062 1.62766,0.89719 2.1355,1.12083c0.80164,0.35301 1.79257,0.96854 2.5,1.47917c0.48633,0.35104 1.61612,0.99429 2.29349,1.24733c0.72128,0.26944 1.50409,0.47911 2.68567,0.91934c0.80417,0.29962 1.58023,0.65529 1.95834,0.83333c1.07553,0.50645 1.99866,0.9785 2.76965,1.364c0.66299,0.3315 1.69522,0.79634 2.25116,1.15683c0.8985,0.58261 1.2988,1.3887 1.90485,1.90984c0.68369,0.58791 1.5787,0.56628 2.51468,1.13867c0.62738,0.38367 1.0936,0.97134 1.84866,1.67349c0.6189,0.57553 1.4328,1.03801 2.21432,1.5715c0.72302,0.49356 1.49127,1.18596 2.01749,1.68567c0.51572,0.48975 1.37784,1.35699 1.97919,1.95833c0.64166,0.64166 1.22076,1.26347 1.84616,1.84167c0.56274,0.52028 1.34763,1.00954 2.10001,1.39999c0.98773,0.5126 1.61038,0.74414 2.57413,1.40001c0.54327,0.36971 1.36566,0.96419 2.00055,1.39999c0.81,0.55602 1.18414,1.50237 1.63147,2.136c0.48566,0.68793 0.83643,1.39847 1.4895,2.34283c0.3902,0.5643 1.07123,1.35114 1.55249,2.0265c0.35077,0.49223 0.8576,1.23102 1.58569,2.18033c0.47131,0.6145 0.72235,1.47293 1.047,2.29832c0.35132,0.89311 0.95923,1.60327 1.41467,2.32584c0.44513,0.70624 0.72754,1.42899 1.01465,2.42216c0.27411,0.94827 0.41852,1.67711 0.99066,2.42067c0.55554,0.722 1.10925,1.46881 1.37732,2.23134c0.33344,0.94856 0.6944,1.64919 1.21735,2.36333c0.47827,0.65314 1.05853,1.38367 1.34283,2.15717c0.35583,0.96805 0.25531,1.86635 0.92517,2.7115c0.4801,0.60573 1.20691,1.20018 1.44666,2.05867c0.22327,0.79955 0.71075,1.55565 0.93268,2.478c0.16437,0.68312 0.47949,1.71957 1.05267,2.34734c0.55524,0.60812 0.92316,1.44756 1.33331,2.33333c0.3244,0.70058 0.85193,1.43445 1.09869,1.98401c0.53357,1.18825 0.45398,2.02869 0.57251,2.92549c0.11584,0.87675 0.73462,1.49197 1.1955,2.24251c0.43341,0.70583 0.89996,1.71465 1.20001,2.31467c0.40002,0.79999 0.84875,1.57896 1.164,2.39999c0.37579,0.97867 0.36078,1.81549 0.60266,2.8c0.19818,0.80666 0.48712,1.53668 0.81866,2.37466c0.38684,0.9776 0.92822,1.40228 1.44666,2.14134c0.56946,0.81178 0.52686,1.80794 0.58881,2.50482c0.08771,0.98608 0.45313,1.76317 0.69519,2.57918c0.29071,0.97981 0.23608,1.78288 0.63666,2.64282c0.42468,0.91168 0.60144,1.64413 0.65802,2.5825c0.04181,0.69344 0.60956,1.6293 0.8678,2.496c0.19592,0.65753 0.07452,1.79459 0.12152,2.67867c0.04272,0.80341 0.70563,1.42094 0.96399,2.39999c0.2298,0.87091 -0.11749,1.84848 0.2027,2.60001c0.33282,0.78119 0.82288,1.52066 0.83331,2.48532c0.00781,0.72531 0,1.71451 0,2.49384c0,0.99933 0,1.81952 0,2.72086c0,0.89999 0,1.79999 0,2.69998c0,0.89999 0,1.80002 0,2.70016c0,0.78519 0,1.72519 0,2.73318c0,0.75598 0,1.66666 0,2.56665c0,0.89999 0,1.80133 0,2.76666c0,0.66934 0,1.83334 0,2.62268c0,0.72534 0,1.68982 0,2.61066c0,0.89999 0.14587,1.8494 -0.22131,2.70016c-0.3103,0.71893 -0.74872,1.55118 -0.77734,2.41583c-0.02838,0.85822 -0.00073,1.80533 -0.00134,2.65866c-0.00067,0.94 -0.24213,1.77914 -0.64734,2.52536c-0.41327,0.76111 -0.35266,1.69998 -0.35266,2.59998c0,0.90002 0,1.80002 0,2.70001c0,0.79999 0,1.63599 0,2.65717c0,0.74734 0,1.74283 0,2.54285c0,1 0,1.79999 0,2.79999c0,0.78934 0,1.83334 0,2.58932c0,0.93152 0,1.896 0,2.62134c0,0.98935 0,1.78934 0,2.78934c0,0.78934 0,1.83334 0,2.62534c0,0.85999 0,1.58533 0,2.57449c0,0.96417 0,1.91483 0,2.80017c0,0.81433 0,1.76935 0,2.52084c0,0.79648 0,1.79382 0,2.66849c0,1.01083 0,1.83151 0,2.496c0,0.99866 0,1.81467 0,2.63068c0,1.22232 0,2.02234 0,2.92682c0,0.95718 0,1.85718 0,2.75717l0,0.79999l0,0.90002l0,0.89999" id="svg_1" stroke-width="2" stroke="#000" fill="none"/>
  <path t="7694,7981,8005,8021,8045,8045,8077,8085,8173,8173,8173,8213,8213,8229,8261,8317,8333,8357,8357,8389,8437,8453,8485,8533,8557,8613,8661,8661,8701,8717,8805,8877,8917,8925,9053,9141,9141,9165,9189,9213,9245,9285,9349,9349,9357,9389,9437,9461,9493,9525,9525,9557,9573,9597,9621,9629,9629,9669,9709,9733,9773,9773,9829,9853,9861,9917,9917,9933,9965,9989,9997,10029,10029,10053,10077,10085,10101,10149,10165,10165,10197,10237,10261,10293,10309,10325,10381,10405,10429,10445,10453,10453,10477,10493,10509,10533,10557,10581,10605,10637,10637,10669,10685,10709,10725,10741,10757,10773,10797,10813,10821,10821,10861,10869,10901,10917,10941,10973,10981,11005,11021,11037,11053,11053,11069,11085,11093,11117,11125,11142,11158,11174,11174,11191,11191,11207,11224,11241,11257,11274,11291,11291,11309,11309,11325,11341,11357,11375,11375,11392,11392,11407,11424,11424,11441,11457,11457,11474,11474,11491,11507,11524,11541,11557,11558,11581,11581,11596,11607,11624,11641,11657,11676,11701,11733,11733,11741,11765,11789,11789,11805,11829,11829,11853,11853,11861,11885,11901,11908,11909,11924,11941,11965,11965,11981,11981,11981,11991,12007,12024,12024,12024,12041,12041,12057,12075,12075,12091,12091,12107,12124,12142,12157,12158,12158,12174,12174,12174,12175,12191,12207,12207,12224,12224,12241,12241,12257,12257,12274,12275,12291,12291,12307,12308,12308,12324,12324,12341,12341,12342,12358,12358,12358,12374,12374,12391,12391,12392,12407,12424,12424,12441,12442,12460,12485,12508,12548,12564,12620,12692,12693,12740,12764,12828,12829,12853,12884,12885,12900,12925,12956,12980,12981,13020,13029,13133,13157,13158,13174,13245,13293,13309,13341,13342,13405,13437,13509,13510,13589,13661,13757,13797,13965,14029,14030,14125,14125,14173,14205,14277,14357,14429,14485,14485,14525,14565,14589,14621,14645,14709,14709,14741,14813,14813,14829,14869,14893,14909,14981,15037,15037,15429,15453,15613,15805,15829,15853,15893,15917,15957,16021,16021,16061,16085,16101,16101,16149,16197,16333,16469,16565,16565,16613,16677,16686,16725,16734,16765,16789,16805,16805,16837,16869,16885,16917,16917,16941,16949,17013,17053,17061,17075,17093,17149,17149,17181,17221,17245,17254,17269,17285,17309,17333,17373,17397,17445,17485,17485,17509,17533,17557,17581,17597,17637,17677,17701,17702,17741,17773,17782,17805,17814,17845,17877,17877,17886,17909,17933,17965,17974,17974,17991,18008,18025,18041,18058,18075,18091,18108,18125,18125,18142,18158,18182,18191,18208,18208,18225,18245,18258,18275,18291,18291,18308,18325,18341,18358,18375,18398,18421,18437,18438,18461,18509,18518,18549,18589,18598,18608,18645,18685,18717,18765,18781,18821,18861,18861,18885,18917,18965,18965,19029,19029,19101,19101,19125,19197,19237,19277,19277,19317,19317,19341,19357,19373,19373,19421,19421,19437,19445,19458,19475,19491,19508,19525,19525,19541,19559,19559,19575,19591,19608,19608,19625,19641,19658,19675,19691,19708,19725,19725,19741,19758,19775,19791,19808,19809,19825,19841,19858,19875,19891,19891,19909,19926,19926,19941,19941,19965,19989,20045,20045,20054,20061,20085,20117,20117,20165,20165,20245,20317,20317,20389,20429,20493,20509,20509,20525,20557,20629,21077,21077,21109,21133,21149,21173,21197,21197,21221,21237,21269,21317,21357,21373,21397,21437,21437,21477,21477,21509,21541,21557,21637,21661,21693,21694,21725,21757,21773,21782,21805,21813,21837,21869,21869,21885,21901,21917,21949,21965,22005,22005,22013,22069,22085,22085,22109,22141,22165,22181,22237,22653,22661,22701,22701,22741,22773,22773,22781,22805,22829,22869,23333,23453,23453,23477,23549,23597,23597,23637,23717,23733,23749,23965,23965,23973,23991,24008,24008,24024,24025,24041,24041,24058,24058,24075,24075,24109,24605,24629,24645,24661,24669,24677,24693,24709,24724,24724,24741,24758,24759,24759,24774,24774,24775,24791,24791,24808,24808,24824,24825,24841,24841,24858,24858,24874,24874,24891,24891,24891,24908,24908,24909,24924,24924,24941,24942,24958,24959,24959,24974,24974,24991,24991,25008,25008,25009,25024,25024,25024,25041,25041,25058,25058,25074,25074,25091,25091,25108,25108,25109,25124,25124,25125,25142,25143,25143,25143,25158,25158,25159,25159,25174,25174,25175,25191,25191,25191,25192,25208,25208,25224,25224,25241,25241,25258,25258,25274,25274,25291,25291,25308,25324,25324,25325,25325,25341,25358,25358,25374,25374,25375,25397,25398,25421,25445,25445,25453,25461,25477,25478,25491,25508,25524,25541,25558,25574,25574,25591,25608,25624,25641,25658,25676,25700,25701,25716,25740,25741,25756,25764,25774,25774,25791,25808,25824,25841,25860,25884,25885,25924,25948,25980,26012,26036,26780,26812,26836,26860,26892,26940,26941,26972,27004,27020,27060,27100,27116,27156,27204,27204,27236,27260,27276,27316,27340,27380,27404,27420,27420,27436,27468,27492,27532,27548,27588,27596,27597,27676,27700,27764,27804,27916,27916,27940,27988,28028,28028,28084,28108,28156,28628,28668,28740,28844,28900,28900,28940,28980,29020,29044,29084,29100,29100,29124,29164,29212,29228,29260,29292,29292,29308,29340,29372,29388,29420,29436,29437,29460,29484,29516,29548,29549,29564,29565,29581,29596,29612,29628,29629,29652,29653,29660,29676,29677,29700,29708,29724,29725,29749,29749,29765,29765,29775,29791,29828,29829,29884,29916" d="m206,149c-0.57466,1.60001 -0.84938,2.41254 -1.0045,3.3c-0.16226,0.92831 -0.81178,1.47479 -0.991,2.39999c-0.17859,0.92198 -0.45883,1.61238 -1.0045,2.32083c-0.44156,0.57327 -0.93489,1.56938 -0.991,2.32201c-0.07593,1.01837 -0.009,1.95717 -0.009,2.85716c0,0.90001 0,1.8 0,2.60001c0,0.89999 0,1.8 0,2.7c0,0.89999 0,1.8 0,2.7c0,0.90001 0,1.8 0,2.60001c0,0.89999 0,1.8 0,2.7c0,0.89999 0,1.8 0,2.7c0,0.90001 0,1.8 0,2.60001c0,0.89999 0,1.8 0,2.7c0,0.89999 0.13655,1.85664 -0.284,2.7c-0.32993,0.66165 -0.70334,1.50008 -0.716,2.40001c-0.01266,0.90015 -0.54318,1.6033 -0.87849,2.5c-0.31808,0.85063 -0.17867,1.59999 -0.62151,2.39999c-0.44284,0.8 -0.5,1.7 -0.5,2.60001c0,0.89999 -0.12428,1.67743 -0.57466,2.5c-0.42729,0.78038 -0.26529,1.76411 -0.64684,2.5c-0.41838,0.80695 -1.37599,1.19701 -1.69318,2.09999c-0.29961,0.85295 0.08823,1.83826 -0.17065,2.60001c-0.30176,0.88791 -0.89601,1.59947 -0.91467,2.5c-0.01865,0.8998 -0.24214,1.65378 -0.64734,2.39999c-0.4133,0.76112 -0.35266,1.7 -0.35266,2.60001c0,0.89999 0,1.8 0,2.7c0,0.8 -0.0168,1.70015 0,2.60001c0.01801,0.96449 0.79256,1.40042 0.99867,2.20132c0.22444,0.87215 0.68753,1.62103 0.94417,2.49867c0.25311,0.86555 0.05716,1.8 0.05716,2.7c0,0.8 0,1.7 0,2.60001c0,0.89999 0,1.79999 0,2.7c0,0.89999 0,1.8 0,2.7c0,0.8 0,1.7 0,2.60001c0,0.89999 0.00067,1.79999 0,2.7c-0.00067,0.89867 -0.44797,1.45042 -0.97467,2.136c-0.50214,0.65363 -0.94029,1.55139 -1.024,2.364c-0.09221,0.89526 -0.20154,1.60078 -0.71733,2.284c-0.46455,0.61534 -0.284,1.616 -0.284,2.51601c0,0.89999 0.00067,1.79999 0,2.7c-0.00067,0.89999 -0.30084,1.75082 -0.64734,2.39999c-0.45335,0.84938 -0.35266,1.8 -0.35266,2.7c0,0.89999 0.15866,1.89737 -0.35266,2.54733c-0.49318,0.62689 -0.87564,1.37115 -1.14734,2.05267c-0.38852,0.97455 -0.48132,1.79886 -0.5,2.70001c-0.01866,0.90051 -0.61813,1.61032 -0.91467,2.5c-0.28587,0.85764 0.00616,1.81253 -0.14249,2.55716c-0.18462,0.92474 -0.72408,1.55777 -0.90685,2.60684c-0.14362,0.82437 -0.036,1.73599 -0.036,2.63599c0,0.75717 0,1.65268 0,2.51599c0,0.98401 0,1.96802 0,2.65866c0,1.07269 0,1.992 0,2.82535c0,0.83334 0,1.6955 0,2.60001c0,0.89999 0,1.79999 0,2.7045c0,0.86215 0,1.6955 0,2.67398c0,0.82019 0,1.72153 0,2.62152c0,0.89999 0,1.79999 0,2.69998c0,0.90002 0,1.80002 0,2.70001c0,0.79999 0,1.70001 0,2.63599c0,0.84802 -0.15434,1.72476 0.01067,2.72803c0.14294,0.86911 0.79207,1.50085 0.93217,2.28867c0.15147,0.85175 -0.00124,1.86316 0.40982,2.64731c0.44449,0.84793 0.62198,1.70041 0.64734,2.5c0.02859,0.9014 0.61119,1.67719 0.87866,2.52151c0.21436,0.67664 0.26271,1.68726 0.54668,2.46783c0.26714,0.73434 0.50429,1.80368 0.58533,2.63199c0.09009,0.92087 0.30127,1.60107 0.69383,2.57333c0.35518,0.87964 1.03654,1.52017 1.25951,2.41602c0.22011,0.8844 -0.10303,1.63626 0.25732,2.56781c0.3009,0.77786 0.77083,1.62149 0.77867,2.52151c0.00705,0.80896 0.16605,1.83353 0.35266,2.51434c0.22125,0.80719 0.49879,1.98346 0.56201,2.58298c0.09055,0.85867 0.08466,1.63202 0.08533,2.74133c0.0006,0.98285 0,1.68219 0,2.66135c0,0.78934 0,1.83334 0,2.62534c0,1.03183 0,1.77917 0,2.77466c0,0.80002 0,1.80002 0,2.60001c0,1 0,1.79999 0,2.60001c0,1.00449 0,1.85715 0,2.82132c0,0.80402 0,1.62601 0,2.65717c0,0.68552 0,1.52017 0,2.526c0,0.85266 0,1.81668 0,2.61017c0,0.77551 0,1.97549 0,2.952c0,0.65869 0,1.66669 0,2.52884c0,0.90451 0,1.8045 0,2.7045c0,0.89999 0,1.80002 0,2.70001c0,0.89999 -0.09409,1.69485 -0.5,2.39999c-0.45728,0.79434 -0.7635,1.71951 -1.30133,2.29999c-0.57607,0.62173 -1.22009,1.40195 -1.89867,1.84283c-0.79233,0.5148 -1.26723,1.11615 -1.73601,1.75717c-0.56947,0.77869 -1.39442,1.02979 -2.12799,1.62534c-0.64958,0.52737 -0.93697,1.49451 -1.53601,2.07449c-0.58138,0.5629 -1.66887,0.83261 -1.89549,1.60468c-0.25223,0.85925 -0.0045,1.81635 -0.0045,2.77951c0,0.69064 0,1.75882 0,2.616c0,0.89999 -0.42865,1.85324 0.08533,2.61465c0.45076,0.66776 1.49664,0.89832 2.31467,1.26001c0.78447,0.34683 1.58734,0.93738 2.35718,1.02084c0.89029,0.09653 1.75883,0.00449 2.722,0.00449c0.92082,0 1.82083,0 2.72083,0c0.90001,0 1.8,0 2.60001,0c0.89999,0 1.79375,-0.01526 2.25267,-0.7045c0.50163,-0.75342 1.30679,-1.10861 2.04733,-1.517c0.67448,-0.37195 1.3176,-1.16132 1.99983,-1.87851c0.55774,-0.58633 1.01167,-1.2738 1.5475,-1.95267c0.45784,-0.58005 0.66714,-1.33447 1.18599,-2.11398c0.47089,-0.70746 0.29327,-1.6095 0.74133,-2.43335c0.41829,-0.76907 -0.09531,-1.38956 -0.97466,-1.39999c-0.89995,-0.01068 -2.07965,0.32535 -2.54285,-0.35718c-0.47437,-0.69901 -0.24043,-1.79709 0.10951,-2.64282c0.32466,-0.78464 0.70937,-1.56784 1.19049,-2.29999c0.52194,-0.79425 1.30458,-1.16251 2.03217,-1.67468c0.65735,-0.46274 0.51666,-1.47241 0.96333,-2.32532c0.39395,-0.75223 0.45071,-1.53455 0.7045,-2.40002c0.25729,-0.87744 0.83134,-1.64096 1.36818,-2.27466c0.50278,-0.59351 0.47919,-1.46988 0.85866,-2.22534c0.43558,-0.86719 0.51938,-1.63452 0.77316,-2.5c0.25729,-0.87744 0.77924,-1.64703 1.16417,-2.39999c0.39017,-0.76318 0.60817,-1.52002 0.7995,-2.39999c0.18401,-0.84631 0.82928,-1.60431 0.97917,-2.5c0.14026,-0.8382 0.81342,-1.33154 1.22133,-2.10001c0.34502,-0.64996 0.77333,-1.49994 0.77867,-2.39999c0.00533,-0.89996 -0.07304,-1.85016 0.42534,-2.47467c0.48518,-0.60797 0.57466,-1.52533 0.57466,-2.42532c0,-0.89999 0,-1.80002 0,-2.70001c0,-0.89999 0,-1.69998 0,-2.60001c0,-0.89999 0,-1.79999 0,-2.69998c0,-0.89999 0,-1.80002 0,-2.70001c0,-0.89999 0.01799,-1.70016 0,-2.60001c-0.01801,-0.90054 -0.39636,-1.74826 -1.09984,-2.17865c-0.77682,-0.47528 -0.90016,-1.32135 -0.90016,-2.2215c0,-0.78519 0.28229,-1.82578 -0.16667,-2.5665c-0.4678,-0.77182 -0.83333,-1.43335 -0.83333,-2.33334c0,-0.79999 -0.05449,-1.70151 -0.5,-2.5c-0.44467,-0.797 -1.17053,-1.30685 -1.47917,-2.02084c-0.34894,-0.80719 0.08614,-1.78568 -0.02216,-2.67917c-0.11148,-0.91977 -0.80855,-1.45407 -0.98801,-2.39999c-0.16777,-0.88428 0.10582,-1.80814 -0.01517,-2.69998c-0.11142,-0.82135 -0.67398,-1.51553 -1.02083,-2.30002c-0.36169,-0.81802 -0.93196,-1.59698 -0.97467,-2.5c-0.04253,-0.89899 0,-1.69998 0,-2.60001c0,-0.89999 0,-1.79999 0,-2.69998c0,-0.89999 0,-1.80002 0,-2.70001c0,-0.89999 0,-1.69998 0,-2.60001c0,-0.89999 0,-1.79999 0,-2.69998c0,-0.89999 -0.14978,-1.81259 0.00017,-2.69983c0.144,-0.85202 0.71732,-1.3002 1.00433,-2.19568c0.24387,-0.76086 0.87842,-1.29053 1.35266,-2.00449c0.52586,-0.79166 1.24951,-1.27951 1.61751,-2.10001c0.35101,-0.78262 0.84138,-1.60522 1.078,-2.35718c0.28391,-0.90225 0.62373,-1.60898 1.146,-2.35748c0.4903,-0.70267 0.854,-1.58536 1.30133,-2.38535c0.44733,-0.79999 0.73367,-1.59137 1.2045,-2.25717c0.50748,-0.71762 1.00906,-1.37573 1.23834,-2.48566c0.1738,-0.84131 -0.03433,-1.76971 0.11432,-2.51434c0.18462,-0.92474 0.72408,-1.55777 0.90685,-2.60684c0.14362,-0.82437 -0.18651,-1.85187 0.31999,-2.55197c0.50179,-0.69357 0.57944,-1.44064 1,-2.28403c0.32993,-0.66162 0.71066,-1.43594 0.716,-2.45267c0.00365,-0.69464 -0.12123,-1.71982 0.0045,-2.64731c0.11134,-0.82138 0.84135,-1.46686 0.98483,-2.30002c0.15276,-0.88699 0.01067,-1.79999 0.01067,-2.7c0,-0.89999 0,-1.8 0,-2.7c0,-0.8 0.05716,-1.7 0.5,-2.5c0.44284,-0.8 0.48763,-1.70142 0.5,-2.66667c0.01042,-0.8127 0.55177,-1.44327 0.94284,-2.19049c0.39171,-0.74846 0.05716,-1.74284 0.05716,-2.64284c0,-0.8 -0.00491,-1.78041 0.35716,-2.65266c0.29776,-0.71732 0.96628,-1.38373 1.3575,-2.146c0.43106,-0.83992 0.24339,-1.74156 0.56934,-2.68533c0.24461,-0.7083 0.56421,-1.63962 0.716,-2.51601c0.15465,-0.89285 1.16525,-1.02739 1.64284,-1.76167c0.51338,-0.78932 0.31029,-1.62543 0.70982,-2.48116c0.42548,-0.91127 0.76639,-1.53671 1.222,-2.35718c0.43422,-0.78195 0.88727,-1.63638 1.25867,-2.39999c0.36668,-0.75391 0.72992,-1.41129 1.556,-1.97467c0.62122,-0.42366 0.84525,-1.34131 1.18533,-2.2c0.31639,-0.79887 0.57846,-1.8727 1.52518,-1.82516c0.80864,0.04059 1.13515,0.95753 1.5475,1.69983c0.45796,0.8244 0.98347,1.36256 1.43666,2.10133c0.42166,0.68738 1.31548,1.18001 2.216,1.19867c0.8998,0.01865 1.6993,0.16768 2.336,0.61067c0.84706,0.58934 1.50102,1.07863 2.47867,1.304c0.8667,0.1998 1.43289,0.53148 2.17067,1c0.69147,0.43912 1.71466,0.08533 2.51466,0.08533c0.89999,0 1.8,0 2.7,0c0.89999,0 1.79999,0 2.70001,0c0.89999,0 1.79999,0 2.59998,0c0.90002,0 1.80002,0 2.70001,0c0.89999,0 1.85663,0.13657 2.70001,-0.284c0.66162,-0.32993 1.22824,-1.08572 2.02148,-1.5945c0.74655,-0.47881 1.5596,-0.23918 2.37851,-0.69617c0.77274,-0.43121 1.34119,-1.18475 2.10449,-1.42084c0.85638,-0.26488 1.58182,-0.70966 2.49551,-0.91783c0.78387,-0.1786 1.5011,0.61671 2.09998,1.21333c0.70132,0.69868 1.1759,1.35251 1.67468,2.08932c0.45157,0.66707 1.07312,1.26599 1.72983,1.66335c0.78973,0.47783 1.59933,1.07095 2.01016,1.74733c0.47141,0.77614 0.93839,1.31775 1.452,2.2c0.36505,0.62708 0.7009,1.70479 1.444,1.98933c0.83105,0.31822 1.60815,0.51115 2.38934,0.84399c0.75153,0.32019 1.85397,0.21556 1.99866,1.05334c0.16156,0.93549 0.00134,1.71466 0.00134,2.71333c0,0.79999 0,1.79999 0,2.59999c0,0.99983 -0.05161,1.78052 0.00015,2.7785c0.04269,0.82347 0.68604,1.44386 0.94269,2.3215c0.25311,0.86555 -0.05362,1.80684 0.05716,2.7c0.11151,0.89923 0.95728,1.28236 1,2.2c0.04184,0.89903 -0.16669,1.83595 0.08533,2.60001c0.26941,0.8168 0.94147,1.52225 1.21017,2.20982c0.29874,0.76437 0.58356,1.81822 0.66849,2.75418c0.0755,0.83195 0.03601,1.836 0.03601,2.63599c0,1 0,1.80002 0,2.79984c0,0.77933 0,1.63351 0,2.55283c0,0.90451 0,1.65186 0,2.64868c0,0.83466 0,1.76532 0,2.55133c0,0.82199 0,1.88068 0,2.81134c0,0.83466 0,1.836 0,2.63599c0,1.00134 0,1.62085 0,2.76666c0,0.78152 0,1.57202 0,2.69052c0,0.75748 0,1.62949 0,2.3895c0,1.17484 0,1.98932 0,2.564c0,1.18933 0,2.08032 0,2.91733c0,0.93866 0.02454,1.7515 -0.00134,2.75601c-0.01779,0.69128 -0.37091,1.58865 -0.71466,2.39999c-0.31653,0.74704 -0.29529,1.58588 -0.50549,2.53732c-0.1795,0.81256 -0.47119,1.63062 -0.87833,2.6575c-0.2814,0.70978 -0.59824,1.4209 -0.77902,2.56418c-0.10547,0.66699 -0.11517,1.40225 -0.23099,2.16599c-0.18167,1.19812 -0.4368,1.99597 -0.7515,2.759c-0.30243,0.73328 -0.98929,1.92145 -1.37701,2.57401c-0.41895,0.70508 -0.65353,1.62088 -0.73633,2.54468c-0.06027,0.67252 -0.03659,1.36111 -0.30933,2.54266c-0.17102,0.74084 -0.60071,1.76385 -0.67999,2.56c-0.10352,1.03949 -0.00519,1.85831 -0.32135,2.69467c-0.26993,0.71411 -1.00906,1.57495 -1.35748,2.26865c-0.42581,0.84778 -0.20139,1.60956 -0.37851,2.63269c-0.17023,0.9834 -0.68704,1.61816 -1.12799,2.36398c-0.28467,0.48151 -0.7858,1.58884 -0.85101,2.57217c-0.04636,0.69904 -0.30099,1.69974 -0.70499,2.27399c-0.54761,0.77844 -1.202,1.50751 -1.29202,2.28851c-0.10782,0.93524 -0.18726,1.93991 -0.57733,2.70532c-0.40833,0.80127 -0.29364,1.76071 -0.64667,2.51068c-0.36505,0.77551 -0.77332,1.49994 -0.77866,2.39999c-0.00534,0.89996 0.10696,1.80652 -0.00134,2.70001c-0.11148,0.91977 -0.8085,1.4541 -0.98798,2.39999c-0.16779,0.88428 -0.01068,1.79999 -0.01068,2.69998c0,0.90002 0,1.80002 0,2.70001c0,0.79999 0.01404,1.65295 -0.35266,2.65268c-0.25986,0.7084 -0.61865,1.58887 -0.64734,2.54733c-0.02692,0.8996 -0.1243,1.57739 -0.57468,2.39999c-0.42728,0.78036 -0.42532,1.69998 -0.42532,2.60001c0,0.89999 0,1.79999 0,2.59998c0,0.90002 0,1.80002 0,2.70001c0,0.89999 -0.19806,1.82239 0.00134,2.69867c0.18304,0.80429 1.29865,0.80133 2.19867,0.80133c0.89999,0 1.79999,0 2.59998,0c0.90002,0 1.80002,0 2.70001,0c0.89999,0 1.79999,0 2.70001,0c0.89999,0 1.79999,0 2.59998,0c0.90002,0 1.80002,0 2.70001,0c0.89999,0 1.79999,0 2.70001,0c0.89999,0 1.79999,0 2.59998,0c0.90002,0 1.80002,0 2.70001,0c0.89999,0 1.79999,0.00009 2.70001,0c0.89999,-0.00009 1.57739,-0.1243 2.39999,-0.57468c0.78036,-0.42728 1.70654,-0.3183 2.60001,-0.42667c0.9198,-0.11157 1.56192,-0.64682 2.18933,-1.39865c0.54718,-0.65567 0.61066,-1.60001 0.61066,-2.39999c0,-0.90002 0,-1.80002 0,-2.70001c0,-0.89999 0,-1.79999 0,-2.70001c0,-0.89999 -0.17355,-1.83823 0.08533,-2.59998c0.30176,-0.88794 0.89667,-1.59946 0.91467,-2.5c0.01801,-0.89984 -0.04779,-1.8013 0,-2.70001c0.04272,-0.80338 0.74695,-1.5372 0.96399,-2.39999c0.21973,-0.8735 0.03601,-1.80002 0.03601,-2.70001c0,-0.89999 -0.19595,-1.73441 0.05716,-2.60001c0.25665,-0.87762 0.91425,-1.5986 0.94284,-2.5c0.02853,-0.89954 -0.14606,-1.8277 0.05716,-2.5c0.26456,-0.87527 0.91425,-1.59863 0.94284,-2.50131c0.03055,-0.96484 0,-1.79868 0,-2.63202c0,-0.86215 -0.00195,-1.78629 0.42532,-2.56665c0.45038,-0.8226 0.47797,-1.71683 0.66,-2.48535c0.23123,-0.97629 0.70856,-1.63574 1.21017,-2.35748c0.53003,-0.76266 0.82358,-1.53668 1.27917,-2.35718c0.4342,-0.78195 0.73492,-1.58368 1.22665,-2.28534c0.52521,-0.74942 0.84531,-1.49951 1.39868,-2.22931c0.54974,-0.72501 1.36261,-1.33972 1.71597,-2.08536c0.40704,-0.85886 0.78851,-1.5 1.47336,-2.19998l0.48932,-0.69983" id="svg_2" stroke-width="2" stroke="#000" fill="none"/>
  <path t="32686,32765,32774,32774,32782,32782,32791,32791,32807,32807,32824,32824,32824,32824,32841,32841,32841,32841,32857,32857,32857,32874,32874,32874,32891,32891,32891,32907,32907,32907,32924,32924,32941,32941,32941,32957,32957,32974,32974,32974,32991,32991,32991,32991,33007,33007,33007,33024,33024,33024,33041,33041,33041,33057,33057,33057,33074,33074,33075,33091,33091,33107,33107,33124,33124,33142,33142,33142,33157,33157,33157,33174,33174,33191,33191,33191,33207,33207,33207,33224,33224,33224,33224,33241,33241,33241,33241,33257,33257,33257,33274,33274,33291,33291,33307,33324,33341,33357,33357,33389,33389,33421,33437,33438,33461,33477,33509,33541,33541,33550,33573,33581,33605,33637,33645,33669,33677,33677,33691,33707,33723,33741,33741,33757,33774,33774,33791,33791,33807,33824,33824,33824,33840,33840,33868,33869,33892,33893,33908,33909,33917,33940,33956,33965,33989,33989,34012,34028,34052,34068,34092,34108,34148,34220,34244,34388,34389,34948,34980,34996,35028,35029,35052,35061,35076,35090,35109,35148,35204,35244,35300,35324,35380,35404,35452,35500,35532,35548,35564,35636,35876,35924,35924,35972,36004,36028,36044,36068,36077,36100,36108,36124,36142,36156,36156,36174,36174,36212,36228,36244,36268,36284,36316,36332,36332,36340,36356,36388,36412,36428,36428,36468,36477,36548,36572,36572,36604,36628,36676,36684,36700,36724,36796,36805,36980,37012,37012,37028,37052,37076,37084,37108,37140,37172,37220,37220,37236,37324,37372,37372,37444,37492,37492,37540,37540,37588,37668,37700,37716,37716,37732,37740,37780,37788,37789,37812,37860,37900,37900,37940,37964,37964,38004,38044,38076,38108,38172,38228,38253,38324,38325,38356,38412,38421,38429,38460,38484,38572,38573,38628,38629,38652,38653,38692,38693,38708,38724,38748,38757,38774,38797,38813,38836,38884,38884,38916,38956,39004,39036,39045,39068,39068,39092,39101,39124,39140,39157,39174,39191,39207,39207,39229,39229,39244,39244,39260,39274,39291,39308,39308,39324,39341,39357,39357,39374,39374,39391,39407,39424,39424,39424,39441,39457,39474,39492,39492,39507,39507,39524,39541,39541,39557,39557,39581,39581,39620,39620,39644,39676,39676,39685,39685,39700,39700,39716,39732,39741,39757,39757,39774,39790,39807,39824,39824,39852,39876,39876,39908,39908,39924,39925,39940,39964,40012,40060,40060,40092,40124,40140,40165,40204,40284,40284,40348,40372,40381,40389,40420,40468" d="m319,226c0,1.82533 0,2.83333 0,3.62534c0,1.03183 0,1.77916 0,2.77333c0,0.76534 0,1.72 0,2.46834c0,1.189 0,1.84099 0,2.565c0,0.77199 0,1.96782 0,2.76349c0,0.78368 0,1.54733 0,2.98283c0,0.66 0,1.575 0,2.655c0,0.714 0,1.61934 0,2.58801c0,0.80399 0,1.62599 0,2.65717c0,0.6855 0,1.52016 0,2.526c0,0.85266 0,1.81683 0,2.62083c0,0.82199 0,1.85315 0,2.75381c0,1.02084 0,1.84216 0,2.53519c0,1.12833 0,1.79099 0,2.83499c0,0.68268 0,1.88132 0,2.62982c0,0.70352 0,1.70618 0,2.54169c0,0.88049 0,2.07782 0,2.66849c0,0.85352 0,1.88934 0,2.81067c0,0.68399 0,1.68399 0,2.5c0,0.81601 0,2.04285 0,2.68933c0,1.0105 0,1.97467 0,2.92801c0,0.6925 0,1.65332 0,2.42432c0,0.86102 0,2.05566 0,2.63702c0,0.80698 0,2.02048 0,2.68381c0,1.19086 0,1.82419 0,2.4975c0,1.30667 0.02512,2.13651 -0.03601,2.89069c-0.0881,1.08698 -0.2482,1.71863 -0.38931,2.41068c-0.22235,1.09042 -0.42578,2.1701 -0.48935,2.85333c-0.08957,0.96246 -0.08307,1.58081 -0.08533,2.78516c-0.00165,0.8895 0,1.46417 0,2.7785c0,0.67499 0,1.755 0,2.51099c0,0.91068 -0.08173,1.81479 0.00449,2.71518c0.08359,0.87329 0.55112,1.67535 0.82886,2.52884c0.24136,0.7417 0.59348,1.57547 1.26666,2.26666c0.59204,0.60788 1.28491,1.14188 1.77866,1.99982c0.4245,0.73764 1.04971,1.33728 1.11066,2.08551c0.08551,1.04965 0.40335,1.71402 0.98535,2.23999c0.64871,0.58627 0.66275,1.40936 1.19199,2.24133c0.4845,0.76163 1.06833,1.29105 1.48068,2.03336c0.45795,0.8244 1.0708,1.31665 1.40533,2.06165c0.38513,0.85767 0.63434,1.57339 0.89465,2.48569c0.25934,0.90884 0.52582,1.78195 1.05267,2.586c0.44073,0.67261 0.89618,1.48581 1.16666,2.33331c0.21817,0.68362 0.56158,1.43182 0.78519,2.42883c0.16718,0.74536 0.77612,1.62964 1.39999,2.15717c0.64609,0.54633 1.23697,1.20111 1.52667,2.22583c0.22552,0.79767 -0.06223,1.74802 0.1575,2.62152c0.21704,0.86279 0.71478,1.55148 1.13065,2.39999c0.37372,0.76251 0.82291,1.49982 0.83334,2.39999c0.01041,0.89993 -0.15933,1.89789 0.35266,2.54733c0.48453,0.61462 0.64725,1.35266 0.64734,2.25269c0.00009,0.89999 0.25052,1.74927 0.64734,2.5c0.40109,0.75882 0.12247,1.81094 -0.74734,2.1785c-0.83655,0.35349 -1.68106,0.23917 -2.5,0.69617c-0.77274,0.43121 -1.27393,1.15091 -2.01065,1.41464c-0.83737,0.29977 -1.78934,0.01001 -2.68933,0.01068c-0.89868,0.00067 -1.63644,0.36212 -2.20001,1c-0.5155,0.5835 -1.35425,1.04398 -1.49866,1.80133c-0.16833,0.88278 -0.00134,1.79868 -0.00134,2.69867c0,0.89999 -0.10706,1.80655 0.00134,2.70001c0.11157,0.91962 0.65582,1.60745 1.59866,1.78931c0.88376,0.17044 1.79999,0.01068 2.69998,0.01068c0.90002,0 1.93216,-0.24423 2.616,0.284c0.6275,0.48471 1.384,0.716 2.28403,0.716c0.90015,0 1.68533,0 2.62534,0c0.69064,0 1.76398,0 2.67465,0c0.89999,0 1.79999,0 2.70001,0c0.89999,0 1.79999,0 2.59998,0c0.90002,0 1.82516,-0.0119 2.60001,0.42532c0.72626,0.40979 1.60001,0.57468 2.39999,0.57468c0.90002,0 1.58713,0.31451 2.36667,0.83334c0.70746,0.47089 1.63333,0.16666 2.53336,0.16666c0.89999,0 1.79999,0 2.69998,0c0.89999,0 1.80002,0 2.70001,0c0.89999,0 1.81625,-0.1543 1.89999,-1c0.07883,-0.79608 0,-1.70001 0,-2.60001c0,-0.89999 0,-1.79999 0,-2.69998c0,-0.90002 0,-1.80002 0,-2.70001c0,-0.79999 -0.28796,-1.48846 -0.87866,-2.2215c-0.52084,-0.64633 -0.82471,-1.47964 -1.42133,-2.07849c-0.6987,-0.70132 -1.30002,-1.30002 -1.90002,-1.90002c-0.59998,-0.59998 -1.45099,-1.21887 -1.71466,-2c-0.28912,-0.85654 -0.08533,-1.79999 -0.08533,-2.59998c0,-0.90002 0.31451,-1.58713 0.83334,-2.36667c0.47089,-0.70746 -0.02463,-1.66641 0.22382,-2.53336c0.25693,-0.89658 0.87177,-1.61627 0.93216,-2.47464c0.06598,-0.93774 0.01068,-1.82535 0.01068,-2.62534c0,-0.90002 0,-1.80002 0,-2.70001c0,-0.89999 0,-1.79999 0,-2.70001c0,-0.89999 0,-1.79999 0,-2.59998c0,-0.90002 0.0054,-1.80005 0,-2.70001c-0.00534,-0.8894 -0.63272,-1.41183 -1.02533,-2.14667c-0.41357,-0.77408 -0.63422,-1.54181 -0.85318,-2.55316c-0.16629,-0.76801 -0.02798,-1.7915 -0.17865,-2.55283c-0.1839,-0.92926 -0.72406,-1.56229 -0.90683,-2.61136c-0.14362,-0.82437 0.07477,-1.74283 -0.03601,-2.63599c-0.11151,-0.89923 -0.95721,-1.28238 -1,-2.20001c-0.04193,-0.89902 -0.22058,-1.76666 -0.57468,-2.39999c-0.48151,-0.86124 -0.42532,-1.79999 -0.42532,-2.69998c0,-0.90002 0,-1.80002 0,-2.70001c0,-0.79999 0,-1.70001 0,-2.60001c0,-0.89999 0,-1.79999 0,-2.69998c0,-0.90002 0,-1.80002 0,-2.70001c0,-0.75717 0,-1.65717 0,-2.40451c0,-0.99417 0,-1.93832 0,-2.83832c0,-0.95718 -0.18137,-1.91064 0.16666,-2.75717c0.27591,-0.67108 0.68289,-1.41251 0.83783,-2.29999c0.16229,-0.92963 0.81033,-1.5647 0.9595,-2.52536c0.10611,-0.68332 -0.00409,-1.80328 0.39319,-2.47916c0.54495,-0.92712 1.09277,-1.49542 1.35748,-2.21149c0.34634,-0.93686 0.20361,-1.88812 0.28983,-2.78851c0.08359,-0.87329 0.3681,-1.55905 0.99551,-2.52884c0.4368,-0.67517 0.80692,-1.41138 1.22134,-2.26682c0.3414,-0.70468 0.69254,-1.5625 0.83133,-2.30435c0.18777,-1.00363 0.51437,-1.78732 1.04715,-2.57397c0.43024,-0.63519 0.82306,-1.44781 1.12152,-2.34302c0.23813,-0.71417 0.61014,-1.67883 0.75333,-2.46783c0.18954,-1.04446 0.71124,-1.61407 0.96817,-2.51065c0.24844,-0.86694 0.00937,-1.8013 0.05716,-2.70001c0.04272,-0.80338 0.74478,-1.53772 0.96399,-2.39999c0.22195,-0.87314 0.35257,-1.64163 0.75201,-2.39999c0.41541,-0.78867 0.59839,-1.67389 0.85867,-2.41068c0.34467,-0.97568 0.36331,-1.7702 0.42548,-2.76784c0.0513,-0.82297 0.61282,-1.60347 0.97452,-2.42149c0.34683,-0.78447 0.94031,-1.5874 1.02399,-2.40001c0.09219,-0.89526 0.00134,-1.8 0.00134,-2.7c0,-0.89999 -0.13165,-1.85007 0.22134,-2.60001c0.36505,-0.77551 0.77332,-1.49995 0.77866,-2.39999c0.00534,-0.89998 0.00449,-1.7955 0.5,-2.5l0.48932,-0.61067" id="svg_3" stroke-width="2" stroke="#000" fill="none"/>
  <path t="41590,41965,41989,41998,42008,42025,42041,42058,42075,42091,42108,42125,42125,42142,42165,42165,42197,42213,42213,42237,42237,42253,42253,42293,42301,42302,42325,42341,42349,42349,42381,42413,42429,42429,42445,42453,42469,42493,42509,42509,42526,42541,42549,42565,42581,42597,42597,42607,42608,42625,42625,42641,42657,42658,42675,42675,42691,42691,42707,42708,42725,42725,42725,42741,42741,42758,42758,42758,42775,42775,42775,42775,42791,42791,42807,42808,42808,42825,42825,42825,42841,42858,42858,42875,42891,42891,42891,42908,42908,42925,42941,42958,42958,42958,42975,42975,42975,42991,42991,43008,43025,43025,43041,43041,43058,43058,43075,43075,43075,43091,43091,43108,43108,43125,43142,43142,43158,43175,43191,43208,43208,43229,43229,43241,43258,43275,43301,43301,43309,43333,43341,43358,43381,43391,43391,43469,43485,43541,43965,43981,43997,44013,44013,44029,44045,44058,44058,44075,44075,44091,44091,44108,44108,44125,44125,44143,44143,44158,44158,44158,44175,44191,44191,44208,44208,44225,44241,44258,44277,44277,44302,44302,44309,44325,44342,44365,44389,44389,44405,44421,44421,44429,44441,44469,44469,44477,44501,44525,44533,44557,44557,44573,44581,44597,44613,44625,44641,44658,44658,44675,44675,44691,44691,44691,44707,44707,44733,44733,44756,44757,44764,44804,44812,44836,44837,44876,44900,44916,44972,44996,44997,45060,45108,45124,45228" d="m361,277c1.22134,0.87866 1.78931,1.38223 2.00134,2.19867c0.20789,0.80045 0.94351,1.37323 1.60931,1.82666c0.72763,0.49554 1.15414,1.2739 1.67334,1.89066c0.55679,0.66141 0.97946,1.30356 1.51733,1.884c0.67224,0.72543 1.39868,1.40002 1.89868,1.90002c0.69998,0.69998 1.29901,1.30096 1.89999,1.89999c0.70337,0.70111 1.27188,1.22128 2.05267,1.69998c0.68338,0.41898 1.51538,1.12051 2.34732,1.53336c0.6571,0.32608 1.46835,0.72864 2.29999,1.11398c0.87189,0.40399 1.52637,0.7052 2.40002,1.10535c0.72559,0.33231 1.31076,1.16611 2,1.59015c0.82138,0.50534 1.70883,0.45755 2.32532,0.93185c0.67218,0.51715 1.69223,0.17853 2.40533,0.51065c0.82233,0.38297 1.3476,1.03839 2.16934,1.48935c0.77997,0.42804 1.7045,0.42532 2.56665,0.42532c0.85419,0 1.83334,0 2.62268,0c1.04401,0 1.81046,0.01468 2.62134,0.42532c0.76639,0.38812 1.59021,0.52835 2.56799,0.57483c0.77521,0.03683 1.68311,0.34729 2.42584,0.70435c0.8006,0.38489 1.5679,0.8652 2.59549,1.12885c0.78516,0.20145 1.60001,0.16599 2.60449,0.16666c0.85266,0.00058 1.81738,-0.01636 2.6315,0.01068c0.86926,0.02887 1.76816,0.13699 2.65952,0.34198c0.58664,0.13492 1.41174,0.40723 2.65182,0.59467c0.6748,0.10199 1.62234,0.207 2.40533,0.40533c0.82538,0.20908 1.87549,0.52475 2.80066,0.61133c0.75748,0.07089 1.74667,0.03601 2.56799,0.03601c0.85333,0 1.79468,0 2.84534,0c0.66934,0 1.43466,0 2.42883,0c0.91919,0 1.88367,0 2.82584,0c0.91202,0 1.5885,0 2.36401,0c1.29315,0 1.97867,0 2.81332,0c0.99683,0 1.74417,0 2.776,0c0.94666,0 1.79999,0 2.74133,0c0.76801,0 1.73068,0 2.34567,0c1.22232,0 2.03833,0 2.85434,0c0.99731,0 1.83731,0 2.79999,0c0.76801,0 1.70935,0 2.71735,0c0.75598,0 1.66666,0 2.56665,0c0.90451,0 1.77176,0.07361 2.60001,-0.02084c0.99237,-0.11319 1.64944,-0.77426 2.5,-0.95831c0.88019,-0.19046 1.60721,-0.47382 2.5,-0.85419c0.75153,-0.32019 1.70007,-0.15598 2.60001,-0.16666c0.87933,-0.01044 1.39819,-0.74823 2.26132,-0.96399c0.94363,-0.2359 1.53174,-0.23569 2.22269,-0.75201c0.61761,-0.46152 1.616,-0.34116 2.41599,-0.784c0.79999,-0.44284 1.75729,-0.66367 2.60001,-0.27866c0.66931,0.30579 1.56638,0.69464 2.29999,1.21466c0.78714,0.55795 1.17548,1.18961 1.90451,1.86398c0.56262,0.52042 1.34763,1.00955 2.10001,1.40002c0.79016,0.4101 1.60449,0.75217 2.42883,1.29999c0.69403,0.46124 1.51086,1.06531 2.16666,1.52084c0.86591,0.60144 1.1358,1.21567 1.79868,1.90982c0.6149,0.64389 1.48734,0.95181 2.08667,1.37067c0.91348,0.6384 1.71054,0.89944 2.353,1.49866c0.74927,0.69882 1.08426,1.4386 1.76166,2.03336c0.49139,0.43146 1.01242,1.31027 1.79999,1.74933c0.71182,0.39682 1.64731,0.70377 2.17468,1.35333c0.59555,0.73355 1.08716,1.51135 1.50449,2.064c0.55859,0.73969 0.7887,1.71548 1.32217,2.29999c0.65689,0.7197 0.9877,1.45364 1.42001,2.30002c0.33472,0.6553 0.78497,1.49158 1.48315,1.95267c0.75528,0.49881 1.13193,1.29437 1.51685,2.04733c0.39017,0.76318 0.76599,1.6001 0.77866,2.5c0.01266,0.90015 0.41974,1.65839 0.83334,2.39999c0.46793,0.83902 1.09616,1.43744 1.15598,2.22134c0.07446,0.97589 0.004,1.77869 0.01068,2.77866c0.00534,0.80005 0.03903,1.61356 0.35266,2.60001c0.19382,0.60968 0.5679,1.59555 0.6265,2.37915c0.07455,0.99677 -0.37274,1.95004 0.10617,2.7355c0.49002,0.80368 0.86688,1.38663 0.91467,2.28534c0.04272,0.80338 0.70563,1.42096 0.96399,2.39999c0.22983,0.87091 -0.01837,1.80167 0.03616,2.70001c0.04272,0.70386 0.57452,1.5 0.96384,2.29999l0.03601,0.89999l0,0.90002" id="svg_4" stroke-width="2" stroke="#000" fill="none"/>
  <path t="48878,49029,49038,49046,49057,49074,49074,49091,49091,49107,49107,49123,49123,49141,49142,49158,49158,49173,49174,49191,49207,49207,49229,49240,49262,49262,49309,49333,49349,49358,49389,49389,49397,49397,49413,49437,49461,49461,49469,49478,49490,49509,49525,49540,49557,49573,49590,49607,49607,49623,49623,49640,49657,49657,49673,49673,49690,49709,49723,49740,49757,49773,49790,49813,49813,49845,49845,49853,49862,49873,49893,49907,49923,49941,49957,49989,50005,50013,50037,50046,50077,50101,50134,50134,50149,50149,50165,50189,50213,50221,50245,50245,50277,50285,50309,50333,50357,50357,50373,50373,50389,50397,50407,50423,50440,50457,50473,50473,50490,50490,50507,50523,50540,50557,50573,50590,50590,50613,50614,50629,50640,50657,50685,50701,50726,50741,50741,50757,50765,50781,50791,50807,50823,50840,50840,50857,50857,50873,50890,50907,50923,50940,50957,50957,50973,50973,50990,51007,51023,51040,51057,51073,51073,51090,51090,51109" d="m531,233c1.83331,0.16667 2.50781,0.60864 2.94281,1.35716c0.4245,0.73038 -0.03809,1.75932 0.14252,2.52817c0.23169,0.98643 0.62714,1.51527 1.11334,2.51334c0.3714,0.76241 0.66998,1.72925 0.88531,2.48534c0.22461,0.78864 0.6261,1.51776 1.11469,2.51466c0.28375,0.57893 0.72131,1.57481 0.79999,2.39999c0.07953,0.8344 0.32001,1.67155 0.64868,2.54868c0.33087,0.88303 0.30487,1.75394 0.35266,2.65266c0.04272,0.80341 0.74695,1.53719 0.96399,2.39999c0.21979,0.8735 -0.06036,1.82324 0.2027,2.76666c0.19006,0.68167 0.46863,1.75171 0.85864,2.38669c0.43677,0.71118 0.95667,1.3075 0.97467,2.28c0.01599,0.862 -0.34308,1.84525 0.02081,2.64581c0.35144,0.77325 0.97693,1.22534 0.97919,2.12085c0.00226,0.89999 -0.00067,1.79999 0,2.69998c0.00067,0.90134 0.16327,1.86801 0.42535,2.52536c0.40271,1.0101 0.46576,1.77252 0.59546,2.6955c0.11481,0.81717 0.64221,1.62576 0.85767,2.45764c0.20782,0.80246 0.12152,1.72153 0.12152,2.62152c0,0.89999 0,1.79999 0,2.69998c0,0.90002 0,1.80002 0,2.70001c0,0.88535 0.01196,1.82544 0,2.51599c-0.01801,1.03781 -0.81805,1.4783 -0.99866,2.28534c-0.19623,0.87698 -0.2016,1.59946 -0.71735,2.28268c-0.46454,0.61533 -0.284,1.616 -0.284,2.51599c0,0.89999 0.09399,1.84708 -0.35266,2.69998c-0.39392,0.75223 -1.09644,1.24625 -1.56201,1.98666c-0.47064,0.74847 -0.03485,1.71466 -0.08551,2.69183c-0.04272,0.82349 -0.68597,1.44391 -0.94263,2.3215c-0.25311,0.8656 -0.05719,1.80002 -0.05719,2.70001c0,0.79999 0,1.70001 0,2.60001c0,0.89999 0.06244,1.83075 -0.22131,2.72131c-0.22272,0.69904 -0.71649,1.65063 -0.77734,2.47736c-0.06616,0.8989 -0.00134,1.80133 -0.00134,2.70132c0,0.89999 0,1.79999 0,2.70001c0,0.90015 0,1.68533 0,2.62534c0,0.69064 0,1.76398 0,2.67465c0,0.89999 0,1.79999 0,2.70132c0,0.96533 0,1.62402 0,2.63202c0,0.86215 0,1.76666 0,2.66666c0,0.89999 0,1.79999 0,2.70001c0,0.89999 0,1.79999 0,2.59998c0,0.90002 0,1.80002 0,2.70001c0,0.89999 0,1.79999 0,2.70001c0,0.90015 0,1.68533 0,2.62534c0,0.69064 0,1.76398 0,2.67465c0,0.89999 0,1.79999 0,2.70132c0,0.96533 0,1.62402 0,2.63202c0,0.86215 0,1.76666 0,2.66666c0,0.89999 0,1.79999 0,2.70001c0,0.90015 0,1.68533 0,2.62534l0,0.69064l0,1.07333" id="svg_5" stroke-width="2" stroke="#000" fill="none"/>
  <path t="52486,52589,52605,52605,52613,52629,52640,52657,52673,52673,52690,52690,52707,52707,52723,52723,52740,52757,52773,52805,52853" d="m511,353c1.83331,0.16666 1.83185,1.03644 2.08533,1.79999c0.25635,0.77219 0.89667,1.59946 0.91467,2.5c0.01801,0.89984 0,1.80017 0,2.58536c0,0.95065 0,1.71597 0,2.71466c0,0.79999 -0.16138,1.82364 0.03601,2.52798c0.2616,0.93344 0.95331,1.48267 0.96399,2.37201l0,0.89999l0,0.89999" id="svg_6" stroke-width="2" stroke="#000" fill="none"/>
  <path t="58869,58996,59005,59012,59028,59028,59041,59041,59057,59074,59091,59091,59091,59116,59133,59133,59149,59173,59196,59228,59276" d="m548,337c0,1.79999 -0.09918,2.70856 0.02081,3.52084c0.146,0.9881 0.54974,1.67963 1.07904,2.45764c0.50592,0.74362 0.72363,1.54227 0.92151,2.43219c0.17755,0.79831 0.88678,1.37012 1.41064,2.10532c0.57324,0.8045 0.745,1.82089 1.36932,2.19867c0.80554,0.48743 1.79865,0.32135 2.59869,0.71066l0.79999,0.48935l0.89996,0.08548" id="svg_8" stroke-width="2" stroke="#000" fill="none"/>
  <path t="59917,60036,60052,60084,60156,60188,60204,60204,60212,60244,60244,60252,60260,60260,60273" d="m547,341c0,1.70001 0.1571,2.71979 -0.02081,3.5c-0.21942,0.96204 -0.91827,1.59387 -0.97919,2.5c-0.05365,0.79819 -0.30829,1.47263 -0.87866,2.22168c-0.42163,0.55371 -0.55731,1.59299 -1.12134,2.44498l-0.64282,0.3815l-0.35583,0.75317" id="svg_9" stroke-width="2" stroke="#000" fill="none"/>
  <path t="60972,61052,61060,61060,61073,61090,61106,61132,61148,61180,61180,61212,61236,61260,61276,61340,61340,61348,61364,61373,61412" d="m549,346c1.83331,0.16666 2,1 2,1.79999c0,0.90002 0,1.80002 0,2.70001c0,0.89999 -0.13165,1.85007 0.22131,2.60001c0.36505,0.77551 0.77026,1.51776 1.20404,2.29999c0.45477,0.82013 0.57465,1.70001 0.57465,2.60001c0,0.79999 0,1.70001 0,2.60001l0.02081,0.89999l0.33185,0.79999" id="svg_10" stroke-width="2" stroke="#000" fill="none"/>
  <path t="61852,62004,62020,62028,62068,62068,62100,62124,62124,62204,62364" d="m552,353c-1.22131,0.87866 -1.87122,1.36523 -2.00134,2.20001c-0.1427,0.91547 -0.70209,1.5011 -1.39868,2.19998c-0.599,0.60095 -1.164,1.20001 -1.57465,2l-0.37799,0.89999" id="svg_11" stroke-width="2" stroke="#000" fill="none"/>
  <path t="62964,63052,63068,63076,63076,63076,63090,63090,63106,63106,63123,63123,63123,63141,63156,63156,63188,63188,63196" d="m549,337c1.71466,-0.91333 2.31805,-0.25623 3,0.33334c0.51099,0.44177 0.92255,1.25409 1.76666,1.78131c0.67883,0.42398 1.79309,0.83615 2.21252,1.40619c0.54822,0.74509 1.03693,1.48373 1.53815,1.99515c0.71881,0.73346 1.48267,1.48401 1.98267,1.98401l0.69867,0.70001l0.51599,0.59998l0.33801,0.84283" id="svg_12" stroke-width="2" stroke="#000" fill="none"/>
  <path t="68573,68660,68676,68676,68692,68724,68732,68772,68804,68820,68852,68852,68932,69020,69052,69068,69092,69132,69156,69188,69460,69484,69516,69524,69564,69620,69620,69644,69668,69684,69716,69716,69732,69732,69741,69756,69773,69773,69789,69807,69807,69823,69839,69856,69856,69873,69873,69889,69889,69889,69906,69906,69932,70020,70044,70068,70068,70220,70292,70292,70332,70340,70372,70388,70404,70444,70484,70516,70516,70540,70588,70596,70628,70644,70668,70708,70740,70748,70772,70772,70804,70836,70860,70900,70916,70932,70980,71028,71028,71044,71116,71260" d="m515,366c0.99866,0.88666 1,1.82535 1,2.51599c0,1.07333 0,1.98401 0,2.884c0,0.89999 0,1.80002 0,2.70001c0,0.89999 0.01801,1.70016 0,2.60001c-0.01801,0.90054 -0.45642,1.6817 -0.91602,2.49866c-0.39526,0.70264 -1.06531,1.23679 -1.08398,2.10132c-0.01941,0.89847 -0.61023,1.4379 -0.96399,2.13602c-0.39087,0.77133 -0.1181,1.76779 -0.03583,2.664c0.08368,0.91144 0.66278,1.45242 1.29529,2.19998c0.6394,0.75568 0.92035,1.63913 1.87122,1.70001c0.65729,0.04208 1.66681,-0.01715 2.52881,0c0.90503,0.01801 1.6192,0.6058 2.50586,0.91467c0.65076,0.22668 1.62396,0.08533 2.63196,0.08533c0.75604,0 1.66669,0 2.57733,0c0.91083,0 1.80005,0 2.78937,0c0.79999,0 1.79999,0 2.59998,0c0.79999,0 1.79553,0 2.54285,0c1.02118,0 1.85718,0 2.75714,0c0.90002,0 1.90076,0.49283 2.61469,-0.08533c0.74463,-0.603 0.28534,-1.71466 0.28534,-2.61469c0,-0.89999 0,-1.79999 0,-2.69998c0,-0.89999 0,-1.80002 0,-2.70001c0,-0.89999 -0.10608,-1.68811 -0.5,-2.39999c-0.49023,-0.88596 -0.427,-1.85016 -0.92535,-2.47467c-0.48517,-0.60797 -0.57465,-1.42532 -0.57465,-2.32532c0,-0.90002 0,-1.80002 0,-2.70001c0,-0.79999 0,-1.70001 0,-2.60001c0,-0.89999 0,-1.79999 0,-2.69998c0,-0.90002 0,-1.80002 0,-2.70001c0,-0.79999 0,-1.70001 0,-2.60001l0,-0.89999" id="svg_13" stroke-width="2" stroke="#000" fill="none"/>
  <path t="72509,72604,72644,72676,72700,72716,72780,72780,72804,72836,72852,72860,72876,72889,72906,72923,72924,72939,72964,72973,72996,73196,73212,73212,73228,73237,73237,73260,73260,73284,73300,73308,73308,73324,73340,73340,73357,73380,73412,73412,73444,73468,73492,73516,73540,73540,73556,73604,73604,73644,73700,73724,73740" d="m329,369c0,-1.70001 0.20322,-2.474 0.83334,-3.16666c0.54562,-0.59976 1.32092,-0.65005 2.16666,-1c0.78464,-0.32468 1.49982,-0.82291 2.39999,-0.83334c0.89993,-0.01041 2.07907,-0.32498 2.54285,0.35718c0.47427,0.69757 0.49911,1.42841 1.25583,1.92816c0.60892,0.40216 0.78229,1.41486 0.80133,2.31467c0.02042,0.96445 0.38785,1.71121 1.16666,2.23334c0.7059,0.47324 1.68353,0.1532 2.33334,-0.35419c0.76947,-0.60086 1.22223,-1.23541 2.15268,-1.77466c0.67194,-0.3894 1.59677,-0.57922 2.54733,-0.70584c0.80975,-0.10785 1.45364,-0.79941 2.32083,-0.97781c0.94363,-0.19412 1.65381,-0.02084 2.72198,-0.02084c0.85718,0 1.75717,0 2.55716,0c0.90002,0 1.80023,-0.01913 2.70001,0c0.97983,0.02084 1.24362,0.77557 1.58401,1.43201c0.41757,0.80524 0.91599,1.56799 0.91599,2.36798c0,0.90002 0.03601,1.76401 0.716,2.28403l0.28265,0.71732" id="svg_14" stroke-width="2" stroke="#000" fill="none"/>
  <path t="75117,75260,75276,75285,75308,75308,75324,75396,75428,75532,75556,75556,75636,75676,75788,75804,75804,75813,75823,75840,75857,75873,75873,75890,75907,75907,75948,75948,75972,75980,75990,76020,76052,76116,76116,76140,76164,76173,76228,76268,76388,76388,76428,76548" d="m278,359c1.83334,0.16666 2.22449,0.85861 3.10001,1.00015c0.90353,0.14606 1.32117,0.69839 1.89999,1.479c0.47223,0.63684 0.9624,1.28589 1.52084,2.02084c0.50443,0.66391 0.95898,1.43823 1.53183,2.14282c0.50256,0.61813 1.2215,1.45157 2.04733,1.13583c0.68732,-0.26279 1.50256,-0.77783 1.95267,-1.48315c0.49094,-0.76935 0.69742,-1.60785 1.28067,-2.2955c0.539,-0.63553 1.17545,-1.31818 1.88834,-1.87866c0.54712,-0.43015 1.58603,-0.59271 2.29431,-0.83734c0.94376,-0.32596 1.884,-0.284 2.784,-0.284c0.90002,0 1.80002,0 2.70001,0c0.79999,0 1.82343,-0.41269 2.64282,0.05716c0.68787,0.39444 1.2963,1.15808 1.35718,2.04285c0.0618,0.89786 0.08533,1.69998 0.5,2.39999l0.46399,0.89999" id="svg_15" stroke-width="2" stroke="#000" fill="none"/>
  <path t="79653,79708,79724,79740,79756,79756,79765,79765,79780,79796,79807,79823,79840,79840,79857,79857,79873,79873,79890,79907,79924,79940,79957,79957,79973,79990,80007,80007,80023,80023,80040,80040,80124,80164,80188,80228,80260,80364,80428,80444,80460,80460,80492,80524,80532,80533,80540,80557,80573,80573,80590,80590,80607,80607,80623,80623,80640,80640,80657,80657,80673,80673,80690,80690,80707,80707,80723,80740,80740,80757,80773,80773,80789,80790,80807,80807,80807,80823,80839,80840,80857,80857,80873,80890,81140,81140,81157,81172,81173,81196,81196,81219,81244,81244,81253,81276,81284,81292,81308,81324,81340,81364,81476,81476,81532,81580,81628,81628,81644,81652,81660,81692,81692,81716,81748,81788,81788,81804,81836,81892,81948,81957,81988,82004,82004,82020,82036,82044,82060,82076,82090,82108,82108,82124,82124,82141,82141,82164,82164,82188,82220,82220,82260,82292,82324,82332,82348,82372,82372,82380,82390,82407,82423,82440,82460,82476,82500,82500,82508,82540,82556,82556,82588,82612,82612,82620,82628,82644,82668,82676,82676,82690,82708,82708,82723,82740,82740,82764,82764,82780,82780,82796,82796,82820,82820,82852,82852,82900" d="m272,157c1.79999,0 2.60275,0.03033 3.41068,0.42534c0.91379,0.44678 1.591,0.51375 2.56781,0.57483c0.823,0.05147 1.55869,0.74678 2.42151,0.96384c0.8735,0.21974 1.80133,0.036 2.76666,0.036c0.83334,0 1.66669,0 2.586,0c0.90002,0 1.76334,0 2.61136,0c0.93597,0 1.836,0 2.73599,0c0.89999,0 1.70013,0.0173 2.60001,0c0.93649,-0.01801 1.77386,-0.31441 2.51065,-0.57466c0.97586,-0.3447 1.78928,-0.40808 2.78934,-0.42534c0.77863,-0.01344 1.64206,-0.32011 2.22134,-0.87866c0.62415,-0.60181 1.21414,-1.10333 2.17865,-1.12134c0.89984,-0.0168 1.80002,0 2.70001,0c0.89999,0 1.73322,-0.19185 2.60001,0.05716c0.76498,0.21977 1.32907,1.13322 2,1.58568c0.79593,0.53676 1.01663,1.31657 1.46664,2.02383c0.43417,0.68237 1.24625,1.19839 1.63333,1.93599c0.41397,0.78885 0.7709,1.57993 1.29984,2.37601c0.44052,0.66301 0.74368,1.51996 0.95285,2.36867c0.22736,0.92252 0.7692,1.52373 1.24731,2.30533c0.4183,0.68382 1.03018,1.57208 1.5,2.23134c0.53076,0.74477 0.82312,1.46997 1.17468,2.48c0.29303,0.84186 0.68048,1.46382 1.08667,2.272c0.44391,0.88322 0.95837,1.3651 1.772,2.19733c0.52994,0.54205 1.17352,1.32921 1.56665,1.992c0.40717,0.68648 1.11725,1.46814 1.47867,2.27484c0.33182,0.74063 0.44705,1.79504 0.92267,2.33049c0.63794,0.71817 1.51862,1.02818 2.03201,1.73601c0.43375,0.59801 0.32819,1.7009 0,2.66666c-0.237,0.69742 -1.03336,1.36668 -1.63333,1.96667c-0.60001,0.60001 -1.22144,1.40195 -1.90002,1.84283c-0.79233,0.51477 -0.93674,1.15894 -1.336,1.92116c-0.39722,0.7583 -0.93613,1.23776 -0.96399,2.136c-0.0293,0.94412 -0.80624,1.36076 -1,2.3c-0.16257,0.78795 -0.56143,1.46861 -0.94733,2.3c-0.40475,0.87202 -0.9313,1.43265 -1.53183,2.2c-0.50781,0.6489 -0.9628,1.28558 -1.71951,1.78534c-0.60892,0.40215 -0.95718,1.33208 -1.60266,1.88399c-0.68933,0.58942 -1.17654,1.07393 -1.84149,1.87885c-0.53052,0.6422 -0.34677,1.65189 -0.35718,2.55183c-0.01044,0.90018 -0.23691,1.8954 -1.10001,2.27849c-0.64914,0.28813 -1.60001,0.12151 -2.5,0.12151c-0.89999,0 -1.79999,0.00066 -2.69998,0c-0.90002,-0.00067 -1.79147,-0.23354 -2.45718,-0.7045c-0.71899,-0.50867 -1.45065,-0.90115 -2.44266,-1.39534c-0.58786,-0.29285 -1.65918,-0.6516 -2.3895,-0.92549c-0.85089,-0.31912 -1.32797,-1.07823 -2.01068,-1.53867c-0.82172,-0.55418 -1.79999,-0.436 -2.69998,-0.436c-0.90002,0 -1.80002,0 -2.70001,0c-0.79999,0 -1.70001,0 -2.60001,0c-0.89999,0 -1.79999,0 -2.69998,0c-0.90002,0 -1.80002,0 -2.70001,0c-0.79999,0 -1.43784,-0.24539 -2.16666,-0.83333c-0.69858,-0.56354 -1.436,-0.77467 -2.13333,-1.46667c-0.7027,-0.69731 -1.22424,-1.14026 -1.99551,-1.64732c-0.69193,-0.4549 -0.60904,-1.49721 -0.98849,-2.25267c-0.43558,-0.86722 -0.59918,-1.51167 -0.75201,-2.436c-0.14413,-0.87167 -0.57291,-1.52693 -0.87997,-2.47867c-0.28253,-0.87569 -0.84442,-1.61296 -1.02686,-2.5425c-0.14429,-0.73515 -0.00266,-1.74721 -0.09317,-2.54283c-0.11496,-1.01035 -0.52203,-1.75874 -0.79733,-2.63333c-0.24469,-0.77734 -0.45065,-1.65067 -0.74133,-2.34134l-0.34,-0.94" id="svg_16" stroke-width="2" stroke="#000" fill="none"/>
  <path t="84917,85028,85037,85060,85076,85076,85100,85100,85117,85125,85140,85165,85165,85188,85197,85213,85223,85240,85256,85284,85316,85317,85412,85532,85604,85613,85644,85644,85660,85676,85685,85708,85724,85756,85797,85812,85812,85868,85900,85940,85972,86004,86028,86028,86100,86140,86196,86196,86284,86308" d="m223,188c1.60001,-0.57466 2.44319,-0.88495 3.3,-1.35266c0.74533,-0.40685 1.46954,-0.66534 2.35266,-1c0.70563,-0.2674 1.71075,-0.62933 2.54733,-0.64734c0.8998,-0.01936 1.8,0 2.60001,0c0.89999,0 1.8,0 2.7,0c0.89999,0 1.8,0 2.7,0c0.90001,0 1.83826,-0.17355 2.60001,0.08533c0.88791,0.30176 2.21263,0.668 2.15334,1.48933c-0.05527,0.76567 -1.10652,1.33607 -1.84001,1.42401c-0.92148,0.11049 -1.76064,0.32173 -2.39732,0.91733c-0.57996,0.54253 -1.25089,0.93498 -2.116,1.09467c-0.83136,0.15344 -1.5874,0.9043 -2.40001,0.98801c-0.89526,0.09221 -1.80002,0.00665 -2.7,0.00133c-0.90004,-0.00534 -1.84869,-0.17619 -2.33333,-1c-0.38402,-0.65277 -0.83633,-1.39746 -1.45201,-1.916c-0.66548,-0.56049 -1.41466,-0.7885 -2.11465,-1.47333l-0.8,-0.52534" id="svg_17" stroke-width="2" stroke="#000" fill="none"/>
  <path t="86788,86924,86972,87012,87060,87084,87100,87124,87156,87228,87244,87292,87340,87356,87460" d="m234,186c1.8,0 2.81564,-0.00298 2.99867,0.80133c0.1994,0.87627 0.05948,1.96733 -0.70317,2.19417c-0.85835,0.25531 -1.7955,0.0045 -2.6955,0.0045c-0.90001,0 -1.8,0 -2.69984,-0.00017l-0.81616,-0.28383l-0.43666,-0.66783" id="svg_18" stroke-width="2" stroke="#000" fill="none"/>
 </g>
 <g display="none">
  <title>muse_image</title>
  <image xlink:href="http://farm3.static.flickr.com/2203/2063264905_d33a1f2630.jpg" id="muse" height="480" width="640" y="0" x="0"/>
 </g>
 <g display="none">
  <title>bbox</title>
  <rect stroke="#f00" fill="none" stroke-width="3" height="280.32" width="332.8" y="84.48" x="225.28" id="bbox"/>
 </g>
</svg>
