<svg width="640" height="480" xmlns="http://www.w3.org/2000/svg" xmlns:svg="http://www.w3.org/2000/svg" xmlns:xlink="http://www.w3.org/1999/xlink">
 <!-- Sketchy ANNOTATION
  ImageNet ID: n02503517_2804
  URL: http://farm2.static.flickr.com/1297/560897101_784224d03a.jpg
  Image Width: 375
  Image Height: 500
  BBox X: 0
  BBox Y: 156
  BBox Width: 221
  BBox Height: 233
  Exposure: 2000ms
  Synset Label: elephant
  Synset ID: n02503517
  Worker Tag: black elephant
  Sanity Check: 
   Context
   Saved
   Shading
  Comment: 
   {}
  Worker ID: A1Y3PSVSU557SW
  Assignment ID: 3EF8EXOTT1VCLGGSANH5L8AS8W4J1D
  HIT ID: 3J9L0X0VDFMETLLSVXAB0KRY7JH9W6
  Work Time: 42s
  Worker Score: 0.6500
 END ANNOTATION -->
 <g display="inline">
  <title>Layer 1</title>
  <path t="0,101,110,111,123,124,138,138,138,140,140,149,149,165,166,182,182,186,222,223,234,234,234,242,242,258,274,274,274,275,275,291,308,308,308,308,324,324,324,324,324,340,340,340,340,340,357,357,357,357,373,373,373,373,373,374,390,390,390,390,390,390,406,407,407,407,407,407,423,423,423,423,423,423,426,426,426,426,426,436,436,436,436,442,442,463,463,466,466,466,466,474,474,474,490,490,490,507,507,507,507,534,535,535,535,535,538,538,538,538,538,538,538,547,547,547,547,554,554,554,563,563,563,570,570,570,580,580,597,597,661,692,706" d="m244,174.89999c-0.88667,-1.084 -1.67403,-1.31737 -2.34734,-1.7045c-0.94208,-0.54166 -1.4987,-1.0463 -2.41667,-1.39532c-0.89436,-0.34006 -1.552,-0.5018 -2.73599,-0.73351c-0.7981,-0.15619 -1.67178,-0.09306 -2.5,-0.1875c-0.99257,-0.11317 -1.58589,-0.67862 -2.48399,-0.89383c-0.84325,-0.20207 -1.88,-0.08534 -2.72,-0.08534c-0.85201,0 -1.84801,0 -2.472,0c-0.966,0 -2.05951,0 -2.892,0c-0.85335,0 -1.76534,0 -2.68268,0c-0.74399,0 -1.77866,0 -2.54666,0c-0.91066,0 -1.96722,-0.00484 -2.57417,0.0045c-0.6911,0.01064 -1.83582,0.05431 -3.02866,0.21701c-0.40248,0.0549 -1.21159,0.20943 -2.03584,0.38916c-0.85049,0.18546 -2.18503,0.48994 -3.11217,0.68933c-0.46643,0.10031 -1.39246,0.29141 -2.2825,0.5c-1.22966,0.28816 -1.9678,0.5025 -2.69016,0.7c-0.74097,0.20258 -1.97842,0.50354 -2.44351,0.60001c-1.0011,0.20764 -1.53265,0.3019 -2.63165,0.5c-0.56017,0.10097 -2.23773,0.39783 -2.7825,0.50017c-1.06516,0.2001 -1.58766,0.30095 -2.61084,0.53583c-0.50728,0.11644 -2.01253,0.5248 -2.51067,0.6855c-1.00389,0.32387 -1.50214,0.50883 -2.5,0.88918c-0.5011,0.19099 -1.99979,0.78984 -2.49983,0.98917c-0.99525,0.39671 -1.48772,0.59415 -2.46417,0.96416c-0.47798,0.18112 -1.86777,0.67422 -2.74933,0.95201c-0.42427,0.13368 -1.25131,0.36526 -2.02499,0.63666c-1.10466,0.3875 -2.1055,0.88318 -2.69917,1.24733c-0.80469,0.49359 -1.54283,1.18967 -2.17717,1.55334c-0.81975,0.46997 -1.65656,0.43568 -2.552,0.78c-0.81345,0.31279 -1.60634,0.85474 -2.14932,1.18399c-0.99564,0.60371 -1.68382,0.95122 -2.28267,1.36667c-1.04463,0.72473 -1.4267,1.15303 -2.08667,1.80267c-0.74129,0.72966 -1.27184,1.27049 -1.83549,1.83417c-0.58366,0.58368 -1.48308,1.4753 -2.08051,2.08316c-0.61336,0.62407 -0.93509,0.94481 -1.55583,1.66751c-1.03603,1.20621 -1.36736,1.68985 -1.72549,2.17915c-0.73897,1.00961 -1.09634,1.52863 -1.45601,2.03734c-0.35135,0.49695 -1.31801,1.85318 -1.88933,2.57066c-0.481,0.60406 -0.9567,1.0659 -1.60533,1.94133c-0.58032,0.78323 -0.90576,1.46532 -1.48801,2.42117c-0.32384,0.53165 -0.83191,1.33308 -1.51199,2.2455c-0.3972,0.53288 -0.98657,1.20258 -1.46667,1.98601c-0.41884,0.68346 -1,1.59016 -1.5,2.146l-0.67917,0.70132l-0.46367,0.791l0.05084,0.01567" id="svg_1" stroke-width="2" stroke="#000" fill="none"/>
  <path t="1597,1658,1666,1666,1682,1682,1699,1716,1716,1722,1722,1732,1732,1738,1738,1749,1749,1754,1766,1766,1770,1792,1798,1798,1802,1802,1813,1818,1834,1842,1849,1850,1858,1858,1866,1866,1866,1873,1873,1874,1881,1882,1882,1889,1889,1889,1897,1897,1898,1905,1905,1914,1914,1921,1922,1929,1938,1946,1946,1954,1962,1970,1970,1970,1979,1980,1980,1986,1986,1997,1997,1997,2002,2002,2013,2013,2013,2018,2018,2030,2030,2030,2034,2034,2034,2042,2042,2042,2050,2050,2058,2058,2058,2066,2066,2066,2074,2082,2082,2090,2090,2090,2090,2098,2098,2106,2106,2113,2114,2114,2122,2122,2130,2130,2130,2137,2138,2146,2146,2147,2154,2154,2163,2163,2163,2170,2170,2179,2179,2185,2186,2196,2196,2201,2202,2213,2213,2229,2230,2242,2242,2250,2250,2265,2266,2281,2289,2290,2297,2298,2305,2306,2313,2412,2420" d="m284,169.89999c0,-1.82533 0,-2.83333 0,-3.62532c0,-1.02734 0,-1.722 0,-2.74934c0,-0.94682 0.00662,-1.64618 0,-2.62534c-0.00534,-0.78938 -0.08798,-1.88319 -0.52084,-2.47916c-0.58258,-0.80211 -1.23541,-1.24304 -1.77466,-2.17351c-0.38943,-0.67197 -0.4689,-1.67213 -0.92599,-2.44716c-0.42932,-0.72795 -1.41681,-0.85736 -2.18918,-1.33617c-0.80167,-0.49696 -1.37344,-1.06218 -2.42267,-1.39734c-0.73529,-0.23489 -1.66666,-0.16667 -2.56665,-0.16667c-0.89999,0 -1.80002,0 -2.70016,0c-0.78519,0 -1.75732,-0.03343 -2.36151,0.11433c-0.98523,0.24095 -1.75214,0.75838 -2.58566,1.18034c-0.77585,0.39278 -1.73431,0.59546 -2.34818,0.81067c-1.04532,0.36647 -1.60062,0.95044 -2.28983,1.41199c-0.96783,0.64813 -1.54471,0.86275 -2.41916,1.17818c-0.88974,0.32094 -1.79565,0.58008 -2.6235,0.9045c-0.95,0.3723 -1.61723,0.78125 -2.272,1.39999c-0.61673,0.58281 -1.29625,1.30379 -1.8,1.8c-0.69485,0.68443 -1.576,0.9845 -2.29984,1.42151c-0.72348,0.4368 -0.90193,1.50841 -1.33617,2.18916c-0.50725,0.7952 -0.94142,1.44698 -1.44933,2.19066c-0.56293,0.82425 -1.13474,1.38197 -1.63068,1.99867c-0.62601,0.77844 -1.04681,1.61981 -1.65067,2.23334c-0.59229,0.60178 -1.37192,0.99936 -1.78267,2.00267c-0.30156,0.7366 -0.60626,1.57458 -1.07149,2.16399c-0.48251,0.61131 -1.23756,1.59128 -1.56851,2.20001c-0.53642,0.98668 -0.80934,1.61722 -1.16783,2.25716c-0.54593,0.97452 -1.077,1.75713 -1.3815,2.3175c-0.56487,1.03947 -0.62854,1.80865 -0.96666,2.56367c-0.44769,0.99974 -1.19685,1.23048 -1.873,2.2045c-0.46217,0.66577 -0.64343,1.22717 -0.90033,2.53549c-0.13136,0.66902 -0.18919,1.44196 -0.62134,2.42166c-0.36513,0.82777 -0.45219,1.5498 -0.66667,2.66667c-0.15231,0.79321 -0.42772,1.60323 -0.54933,2.14934c-0.27119,1.2178 -0.28174,2.07948 -0.284,2.884c-0.00224,0.79999 0,1.79999 0,2.59999c0,0.8 0,1.8045 0,2.65717c0,0.96417 -0.00006,1.76817 0,2.59018c0.00009,1.03116 -0.06572,1.94798 0.16667,2.95265c0.18948,0.81915 0.5237,1.38937 0.75066,2.40001c0.1781,0.79311 0.50293,1.81639 0.944,2.39999c0.46727,0.61827 1.25716,1.5963 1.61784,2.17917c0.52643,0.85074 1.06192,1.49232 1.62083,2.34216c0.43286,0.65819 0.83415,1.57117 1.42082,2.15784c0.58669,0.58667 1.33868,0.86682 2.3125,1.52083c0.55168,0.3705 1.26555,1.10114 1.86667,1.70001c0.60338,0.60112 1.15353,1.15344 1.95717,1.59549c0.72208,0.39719 1.73897,0.65268 2.50684,0.69383c1.08183,0.05798 2.00267,0.01067 2.836,0.01067c0.97867,0 1.75267,0 2.65266,0c0.86334,0 1.82651,0 2.73666,-0.01067l0.57468,-0.43599" id="svg_2" stroke-width="2" stroke="#000" fill="none"/>
  <path t="2804,2890,2890,2902,2902,2902,2906,2906,2906,2914,2914,2914,2914,2914,2921,2922,2922,2922,2922,2930,2930,2930,2930,2938,2938,2938,2938,2946,2946,2946,2954,2954,2963,2980,2980,2997,3002,3013,3018,3018,3030,3030,3030,3034,3034,3034,3041,3042,3042,3050,3050,3050,3050,3058,3058,3065,3066,3066,3073,3074,3074,3081,3082,3089,3090,3105,3106,3106,3121,3122,3122,3130,3147,3154" d="m286,170.89999c0.87201,-1.41066 1.62292,-1.85925 2.39999,-2.48399c0.61676,-0.49585 1.1767,-1.06445 2.00269,-1.63333c0.62238,-0.42865 1.37558,-0.84062 2.24033,-1.42551c0.6774,-0.45816 1.39548,-0.9826 2.16599,-1.50899c0.39209,-0.26785 1.5845,-1.03801 2.39102,-1.48651c0.39688,-0.2207 1.19073,-0.63626 2,-0.97499c1.1871,-0.49689 1.99646,-0.73103 2.77914,-0.98668c0.76462,-0.24976 1.86288,-0.64864 2.53418,-0.98399c0.64886,-0.32416 1.51779,-0.87531 2.32001,-1.34933c0.70334,-0.4156 1.54218,-0.89195 2.56534,-1.08133c0.7561,-0.13995 1.71597,-0.08534 2.60132,-0.08534c0.79999,0 1.70001,0 2.60001,0c0.92084,0 1.88919,-0.0349 2.64667,0.03601c0.92517,0.08659 1.71304,0.29938 2.52798,0.57466c1.06866,0.36101 1.78662,0.66011 2.41467,1.02533c0.83759,0.48706 1.39609,1.04066 2.04666,1.53867c0.90536,0.69302 1.71158,1.08052 2.53867,1.41467c0.53815,0.21742 1.56726,0.561 2.41467,1.04666c0.84064,0.48178 1.40366,1.02487 2.01068,1.53867c0.79099,0.66948 1.62079,1.15764 2.14282,1.578c0.82822,0.66692 1.17523,1.53365 1.97867,2.00467c0.63858,0.37437 1.70575,0.53616 2.2785,0.957c0.63303,0.46512 1.40738,1.27841 1.991,1.88116c0.54398,0.56183 1.16617,1.38284 1.57565,2.23784l0.74802,0.452" id="svg_3" stroke-width="2" stroke="#000" fill="none"/>
  <path t="3891,3963,3972,3987,3987,4004,4004,4017,4017,4058,4058,4066,4066,4074,4074,4074,4082,4082,4082,4082,4090,4090,4090,4090,4098,4098,4098,4106,4106,4106,4115,4131,4131,4138,4148,4154,4165,4170,4170,4186,4186,4199,4202,4202,4215,4218,4218,4231,4231,4231,4234,4242,4250,4250,4258" d="m340,167.89999c0.57468,-1.59999 0.83109,-2.47601 1.36166,-3.30449c0.42224,-0.65932 1.08926,-1.21487 1.81299,-1.83417c0.77054,-0.65935 1.21207,-1.15866 1.992,-1.69467c0.60883,-0.41841 1.69626,-0.24658 2.43466,0.004c0.84756,0.28763 1.41382,0.89157 2.16934,1.34666c0.84512,0.50905 1.88812,0.85509 2.61469,1.07201c0.72952,0.2178 1.79803,0.49527 2.453,0.71516c0.92258,0.30974 1.51889,0.51299 2.47632,1.18083c0.69995,0.48825 1.27823,1.12184 2.08401,1.912c0.57639,0.56522 1.09479,1.07098 2.08047,1.58183c0.80042,0.41483 1.2435,0.9053 1.49551,1.83549c0.25476,0.94035 0.9826,1.4677 1.02533,2.38535c0.04184,0.89919 0,1.68533 0,2.62534c0,0.69066 0,1.67465 0,2.65866c0,0.86333 0.0112,1.7634 0,2.68266c-0.01044,0.85435 -0.14136,1.84207 -0.42532,2.62267c-0.26715,0.73433 -0.54935,1.57468 -0.85867,2.41068l-0.54935,0.79999l-0.16531,0.8l-0.08667,0.91467" id="svg_4" stroke-width="2" stroke="#000" fill="none"/>
  <path t="5196,5250,5251,5259,5259,5272,5273,5273,5276,5276,5276,5276,5276,5289,5289,5289,5289,5292,5292,5292,5292,5307,5307,5307,5307,5307,5314,5314,5315,5315,5315,5315,5315,5322,5322,5322,5322,5332,5332,5332,5338,5347,5347,5354,5354,5354,5354,5364,5364,5370,5370,5370,5381,5382,5382,5386,5386,5386,5398,5398,5398,5402,5402,5414,5414,5418,5418,5431,5482,5492,5493,5507,5518,5519,5538,5538,5554,5554,5570,5570,5570,5570,5570,5586,5586,5586,5602,5616,5618,5632,5635,5635,5642,5642,5650,5650,5658,5659,5659,5667,5667,5674,5674,5683,5683,5690,5690,5699,5699,5706,5707,5707,5715,5716,5716,5722,5722,5722,5733,5733,5733,5738,5738,5738,5749,5749,5750,5754,5754,5763,5763,5763,5770,5770,5770,5780,5780,5786,5786,5796,5796,5796,5813,5833,5834,6069,6069,6076,6091,6109,6120,6133,6133,6149,6178,6202,6216,6218,6233,6234,6246,6249,6258,6258,6266,6276,6284,6299,6299,6299,6305,6305,6313,6340,6368,6368,6368,6370,6370,6370,6370,6400,6400,6402,6402,6402,6402,6402,6433,6433,6435,6435,6466,6466,6474,6474,6474,6500,6500,6500,6500,6506,6506,6506,6506,6514,6514,6550,6551,6551,6584,6584,6584,6584,6584,6590,6590,6590,6591,6591,6591,6597,6597,6601,6602,6602,6613,6613,6613,6617,6618,6629,6629,6633,6634,6634,6646,6650,6650,6650,6658,6658,6658,6665,6665,6673,6674,6681,6681,6689,6690,6697,6705,6706,6713,6713,6722,6729,6746,6753,6754,6769,6770,6785,6786,6802,6803,6819,6819,6819,6820,6836,6836,6836,6837,6843,6843,6843,6858,6859,7028,7036,7057,7058,7075,7076,7085,7085,7085,7090,7090,7100,7106,7106,7113,7114,7122,7122,7129,7146,7146,7162,7163,7163,7170,7179,7185,7201,7212,7212,7217,7218,7229,7229,7233,7234,7246,7246,7249,7250,7258,7258,7258,7265,7266,7266,7273,7274,7281,7289,7290,7298,7299,7299,7305,7313,7314,7321,7322,7337,7353,7354,7506" d="m283,229.89999c1.836,0 2.60132,0 3.60449,0c0.85266,0 1.81717,0 2.64218,0c0.91498,0 1.91998,0 2.63867,0c0.75064,0 1.52533,0 2.31598,0c1.19852,0 1.99417,0 2.77783,0c1.1355,0 2.19952,0 2.86816,0c0.97803,0 1.63669,-0.0029 2.67484,0.00017c0.75302,0.00223 1.58234,0.01318 2.51102,0.05701c0.5097,0.02405 2.25214,0.16144 2.90015,0.22816c0.66864,0.06885 1.34729,0.14586 2.02502,0.2355c1.31793,0.17433 1.94394,0.23666 3.51282,0.57899c0.7955,0.17357 1.41437,0.41673 2.20618,0.61484c0.99463,0.24886 1.81387,0.21106 2.55331,0.36934c1.12689,0.24121 1.74393,0.94395 2.44135,1.55199c0.63913,0.55724 1.33432,1.01529 2.07733,1.53867c0.48331,0.34044 1.4368,1.08319 2.056,1.578c0.72751,0.58136 1.46646,1.0567 2.18933,1.65184c0.69318,0.57069 1.19031,1.19914 1.75351,1.9955c0.56827,0.80354 1.05939,1.43614 1.7135,1.94283c0.90985,0.70479 1.51874,0.8383 2.241,1.2825c0.99152,0.6098 1.03796,1.55983 1.74017,2.13184c0.60931,0.49634 1.80875,0.40149 2.27051,1.04417c0.57513,0.80049 1.17242,1.41919 1.2868,2.29866c0.09094,0.69926 0.69559,1.49706 0.91452,2.38533c0.1745,0.70798 0.01889,1.71913 0.10617,2.49384c0.1142,1.01366 0.62643,1.77512 0.8125,2.85417c0.13437,0.77936 0.11948,1.22968 0.14581,2.16666c0.02634,0.93646 0.02084,2.16669 0.02084,3.01416c0,0.77917 0.01041,1.68591 0,2.58585c-0.01044,0.90018 -0.44681,1.64551 -0.87885,2.50018c-0.37769,0.74713 -0.82068,1.56207 -1.30649,2.07449c-0.77713,0.81967 -1.31192,1.32806 -1.98132,1.992c-0.65604,0.6507 -1.12842,1.20966 -2.08069,1.728c-0.60852,0.33124 -1.37015,0.86478 -2.15717,1.39999c-0.76077,0.51736 -1.62283,0.53598 -2.57416,0.92682c-0.69812,0.2868 -1.50098,0.98889 -2.04218,1.2785c-0.96936,0.51877 -1.77905,0.90015 -2.37915,1.20001c-1.00119,0.50027 -1.61453,0.81439 -2.28534,1.10001c-0.98981,0.42145 -1.81879,0.689 -2.63068,1c-1.00528,0.3851 -1.66998,0.72464 -2.36798,0.91464c-0.9845,0.26797 -1.83502,0.22507 -2.63202,0.45468c-1.03375,0.29779 -1.65005,0.86832 -2.28265,1.34799c-0.98611,0.74774 -1.61914,1.10568 -2.56799,1.31601c-0.77542,0.17188 -1.61938,0.12375 -2.66669,0.33334c-0.72034,0.14417 -1.5603,0.5416 -2.56534,1.03198c-0.57941,0.28271 -1.58289,0.66736 -2.41116,0.854c-0.96158,0.21671 -1.68454,0.46735 -2.42215,0.66333c-0.95163,0.25284 -1.93976,0.21039 -2.76801,0.30484c-0.99237,0.11319 -1.69016,0.38742 -2.47916,0.97916c-0.65543,0.49158 -1.10999,1.3179 -1.39935,2.10001c-0.31512,0.85175 -0.12149,1.70001 -0.12149,2.60001c0,0.89999 -0.00485,1.79999 0,2.69998c0.00534,0.98938 0.44086,1.66025 1.02533,2.17468c0.62341,0.54871 1.46548,0.95584 2.07468,1.52518c0.59125,0.55255 1.51981,0.73056 2.39999,0.92099c0.85056,0.18405 1.65884,0.86218 2.336,0.94318c0.76068,0.09097 1.95334,0.03598 2.67868,0.03598c0.96448,0 1.90665,0 2.81866,0c0.681,0 1.48798,0 2.66666,0c0.89551,0 1.47916,0 2.31467,0c1.24167,0 1.98267,0 3.18533,0c0.75067,0 1.56534,0 2.388,0c0.77466,0 1.72617,0 2.70532,0c0.89069,0 1.754,0 2.66302,0c0.79831,0 1.79721,0.00854 2.43033,-0.01065c1.01309,-0.03073 1.99283,-0.1076 2.8125,-0.35101c0.80283,-0.2384 1.35126,-0.53183 2.36465,-0.9595c0.78745,-0.33231 1.61169,-0.66754 2.42099,-0.96899c1.04401,-0.38889 2.03635,-0.55066 2.88184,-1.04315c0.54285,-0.31619 1.0878,-0.92758 2.16669,-1.66669c0.62192,-0.42606 1.34027,-0.81863 1.70831,-1.04166c0.77075,-0.46704 1.96429,-1.28412 2.35785,-1.60083c0.79935,-0.64325 1.5405,-1.33401 1.89249,-1.67084c0.65674,-0.62842 1.48041,-1.38824 2.14551,-2.14499c0.59711,-0.67941 0.93964,-1.39954 1.44785,-2.14301c0.56265,-0.82315 1.11157,-1.38083 1.63065,-1.91333c0.84305,-0.8649 1.29617,-1.36069 1.78851,-2.14252c0.46558,-0.73935 1.01459,-1.54443 1.51016,-2.13217c0.6134,-0.72751 1.10205,-1.60153 1.35199,-2.54398c0.17935,-0.67636 0.36905,-1.48849 1,-2.33334c0.55859,-0.74799 1.39627,-1.15152 1.72351,-1.99051c0.27756,-0.71161 0.34286,-1.7659 0.72049,-2.50684c0.43149,-0.84662 1.08304,-1.41919 1.30402,-2.31998c0.20657,-0.84216 -0.04102,-1.80716 0.36932,-2.71735c0.33249,-0.73752 0.68613,-1.44998 0.71466,-2.31467c0.03177,-0.96265 -0.08038,-1.88812 0.00583,-2.78851c0.08359,-0.87329 0.57437,-1.66812 0.82886,-2.52881c0.22888,-0.77411 0.16666,-1.82385 0.16666,-2.57117c0,-0.99818 0.00137,-1.63718 0,-2.92885c-0.00067,-0.636 0.00922,-1.32898 -0.03601,-2.052c-0.09076,-1.45105 -0.21994,-2.1358 -0.48483,-3.073c-0.16547,-0.58545 -0.56741,-1.62543 -0.87915,-2.30566c-0.38559,-0.84143 -0.83426,-1.61868 -1.164,-2.39999c-0.39401,-0.93355 -0.24945,-1.99164 -0.60266,-2.83601c-0.29935,-0.71555 -0.99936,-1.2905 -1.3125,-2.04166c-0.4538,-1.08864 -0.48236,-1.90564 -0.51016,-2.69701c-0.03259,-0.92749 -0.01178,-1.85625 -0.36334,-2.56583c-0.4382,-0.88451 -0.53336,-1.72668 -0.814,-2.52884c-0.29422,-0.84094 -0.78622,-1.64793 -0.82886,-2.51399c-0.04425,-0.89893 -0.00449,-1.81934 -0.00449,-2.67351c0,-0.97917 0,-1.76849 0,-2.49384c0,-1.07466 -0.00076,-1.98534 0,-2.88533c0.00067,-0.80133 0.16324,-1.76802 0.42532,-2.42534c0.40277,-1.0101 0.53799,-1.82127 0.86002,-2.65866c0.27402,-0.71257 0.78479,-1.5206 1.41467,-2.2115c0.57809,-0.63409 1.18533,-1.18983 1.95267,-1.95717c0.52197,-0.52199 1.19702,-1.16508 1.72198,-1.73267c0.52618,-0.56888 1.10934,-1.38266 1.62534,-2.11467c0.51599,-0.73199 1.09467,-1.54742 1.6955,-2.19099c0.58557,-0.62721 1.30453,-1.30898 1.82535,-1.82983c0.80038,-0.80045 1.33386,-1.27068 1.76932,-1.82649c0.66479,-0.84853 1.0166,-1.70477 1.35718,-2.40984c0.40894,-0.84656 0.43668,-1.67351 1.186,-2.4095l0.16666,-0.83334l0,-0.79999l-0.11432,-0.84283" id="svg_5" stroke-width="2" stroke="#000" fill="none"/>
  <path t="8309,8379,8379,8388,8404,8404,8404,8405,8421,8421,8421,8421,8421,8432,8432,8432,8432,8432,8432,8434,8434,8434,8434,8448,8448,8448,8450,8450,8450,8458,8458,8466,8466,8466,8474,8474,8475,8482,8482,8490,8491,8499,8499,8506,8514,8529,8537,8538,8554,8578,8586,8602,8602,8612,8618,8633,8649,8674,8674,8706" d="m299,228.89999c1.38934,1.82535 1.75439,2.5051 1.97467,3.38535c0.2348,0.93831 0.3869,1.63673 0.63599,2.508c0.19412,0.67902 0.49805,1.8479 0.68484,2.72549c0.09854,0.46286 0.28683,1.43599 0.41916,2.46918c0.13785,1.07639 0.1748,1.63242 0.22818,2.75566c0.02661,0.5601 0.04877,1.65898 0.05267,2.18933c0.0108,1.46696 0.00449,2.311 0.00449,3.05901c0,0.99449 0,1.90799 0,2.8035c0,0.8685 0,1.93784 0,2.64734c0,0.85266 0.00006,1.85716 0,2.65717c-0.00009,1.00015 0.01218,1.82486 -0.08533,2.48532c-0.14868,1.00735 -0.44012,1.80835 -0.63068,2.63068c-0.22955,0.99069 -0.22693,1.83905 -0.28534,2.79999c-0.04688,0.77115 -0.46295,1.69421 -0.71466,2.40002c-0.33728,0.94583 -0.74994,1.72009 -1.16266,2.58398c-0.40732,0.85266 -0.88251,1.43765 -1.10049,2.39999c-0.19888,0.87799 0.11081,1.85007 -0.24219,2.60001c-0.36505,0.77554 -0.60818,1.52002 -0.7995,2.39999c-0.18402,0.84631 -0.85767,1.60001 -0.97916,2.5l0,0.80002l0,0.89999" id="svg_6" stroke-width="2" stroke="#000" fill="none"/>
  <path t="9118,9162,9170,9170,9180,9180,9180,9186,9186,9197,9197,9202,9202,9202,9214,9214,9218,9218,9218,9231,9231,9231,9231,9234,9234,9247,9247,9250,9250,9250,9258,9258,9258,9267,9267,9274,9274,9274,9282,9282,9290,9301,9301,9306,9314,9315,9322,9331,9338,9347,9354,9364,9370,9382,9398,9402,9415,9418,9418,9434,9450,9450,9458,9466,9482,9498,9506,9506,9522,9546,9564,9570,9594,9618,9631,9647,9658,9658,9667,9674,9682,9690,9698,9698,9706,9706,9706,9714,9714,9714,9722,9722,9722,9722,9731,9731,9731,9731,9738,9738,9738,9738,9738,9748,9748,9748,9748,9754,9754,9754,9754,9764,9764,9764,9765,9770,9770,9770,9781,9781,9781,9786,9802,9802,10076,10093,10099,10100,10107,10125,10126,10138,10138,10148,10148,10154,10177,10186,10201,10250,10284,10310,10318,10319,10322,10331,10331,10347,10348,10364,10364,10370,10370,10381,10386,10397,10397,10398,10402,10402,10414,10414,10418,10418,10418,10431,10431,10431,10431,10434,10434,10434,10447,10448,10448,10448,10450,10450,10450,10450,10458,10458,10458,10458,10466,10466,10466,10466,10474,10474,10474,10482,10482,10490,10490,10498,10506,10538,10570,10581,10598,10598,10614,10634,10764,10788,10789,10801,10801,10801,10801,10802,10803,10804,10804,10817,10817,10819,10819,10819,10829,10829,10830,10833,10834,10846,10846,10846,10849,10850,10850,10850,10858,10858,10858,10858,10865,10866,10866,10874,10874,10874,10881,10882,10882,10889,10890,10890,10897,10898,10905,10906,10913,10913,10914,10921,10929,10929,10937,10938,10946,10946,10953,10954,10962,10962,10970,10979,10985,10986,10996,11013,11018,11029,11046,11046,11049,11065,11089,11097,11130,11178,11219,11237,11253,11254,11272,11272,11282,11282,11283,11283,11283,11283,11290,11290,11290,11302,11314,11329,11329,11345,11353,11362,11370,11370,11385,11395,11460,11498,11499,11500,11501,11501,11501,11506,11506,11507,11515,11515,11521,11521,11522,11529,11529,11537,11537,11537,11545,11545,11553,11553,11553,11562,11562,11562,11569,11570,11570,11579,11579,11585,11585,11595,11595,11596,11601,11601,11612,11612,11617,11618,11629,11629,11629,11629,11633,11633,11634,11634,11645,11645,11645,11646,11649,11650,11650,11662,11662,11662,11663,11663,11665,11666,11666,11674,11674,11681,11681,11682,11689,11690,11697,11697,11705,11721,11729,11801,11980,11987,11999,11999,12002,12002,12014,12014,12015,12018,12018,12018,12018,12031,12031,12031,12032,12032,12034,12034,12034,12034,12049,12049,12049,12049,12050,12051,12051,12052,12052,12052,12052,12062,12062,12062,12062,12065,12066,12066,12074,12074,12074,12082,12082,12091,12098,12113,12113,12122,12129,12137,12137,12145,12153,12154,12162,12162,12162,12169,12170,12179,12179,12179,12185,12186,12201,12428,12435,12455,12456,12460,12461,12462,12462,12477,12477,12477,12482,12482,12482,12490,12490,12499,12499,12506,12506,12516,12522,12522,12531,12538,12548,12548,12554,12564,12565,12570,12570,12581,12582,12586,12586,12598,12598,12602,12615,12616,12618,12632,12634,12634,12649,12665,12689,12698,12722,12737,12748,12749,12754,12765,12770,12781,12782,12782,12786,12786,12801,12801,12803,12803,12812,12817,12842,12842,12906,12937,12945,12945,13003,13027,13049,13066,13081,13114,13130,13138,13147,13164,13185,13201,13202,13214,13233,13234,13247,13250,13264,13266,13266,13266,13274,13274,13282,13283,13290,13290,13301,13301,13301,13306,13306,13314,13315,13321,13322,13330,13330,13337,13338,13345,13353,13353,13354,13362,13379,13564,13572,13590,13591,13612,13613,13613,13614,13614,13618,13619,13619,13620,13620,13620,13621,13621,13621,13632,13633,13633,13633,13634,13634,13635,13635,13635,13637,13638,13638,13638,13639,13639,13639,13647,13647,13647,13647,13648,13649,13650,13650,13650,13650,13662,13662,13662,13663,13665,13666,13666,13666,13666,13673,13674,13674,13674,13681,13681,13689,13690,13690,13697,13697,13705,13721,13721,13737,13737,13762,13762,13769,13793,13955,13964,13971,13972,13991,13993,13993,13994,13995,14010,14011,14011,14012,14012,14013,14013,14014,14018,14019,14019,14020,14020,14021,14021,14021,14022,14034,14034,14034,14034,14035,14035,14035,14035,14036,14046,14047,14047,14047,14047,14048,14048,14048,14049,14050,14050,14050,14051,14051,14051,14051,14052,14062,14063,14063,14065,14066,14073,14074,14081,14081,14089,14105,14156,14180,14202,14217,14219,14234,14266,14306,14318,14333,14337,14338,14346,14353,14363,14363,14363,14369,14370,14370,14370,14371,14379,14380,14380,14380,14385,14386,14386,14386,14387,14396,14396,14397,14397,14397,14401,14402,14402,14402,14417,14417,14418,14433,14434,14434,14449,14450,14450,14463,14596,14625,14626,14643,14644,14644,14645,14650,14651,14652,14652,14653,14654,14654,14667,14667,14668,14668,14668,14674,14674,14675,14675,14675,14676,14687,14687,14688,14688,14688,14690,14691,14691,14698,14698,14698,14699,14699,14705,14706,14706,14713,14714,14722,14723,14723,14729,14730,14730,14737,14738,14746,14753,14754,14762,14762,14763,14769,14770,14779,14779,14785,14786,14795,14796,14801,14802,14812,14850,14948,14956,14973,14990,15001,15003,15004,15015,15018,15033,15033,15046,15062,15065,15066,15074,15081,15089,15090,15097,15105,15106,15113,15113,15121,15122,15129,15129,15137,15138,15145,15146,15153,15154,15162,15163,15163,15169,15170,15170,15179,15179,15185,15186,15186,15196,15196,15196,15201,15202,15202,15212,15213,15213,15213,15217,15218,15218,15229,15229,15230,15230,15233,15234,15234,15246,15246,15246,15249,15250,15250,15262,15263,15263,15265,15266,15266,15273,15274,15281,15282,15289,15290,15290,15298,15299,15305,15306,15313,15322,15322,15322,15330,15330,15337,15338,15338,15346,15346,15353,15354,15354,15362,15363,15369,15370,15379,15379,15380,15385,15386,15396,15401,15402,15413,15413,15417,15433,15447,15463,15530,15530" d="m296,300.89999c0.87851,1.2215 0.99951,2.10034 1,2.81433c0.00067,0.95502 -0.03265,1.71268 0.08533,2.50302c0.18451,1.23621 0.56036,1.81372 0.83066,2.79999c0.22955,0.83752 0.37369,1.65039 0.58401,2.4035c0.22198,0.79486 0.46222,2.02545 0.48932,2.7045c0.03754,0.94064 -0.01575,1.73355 0.04669,2.58533c0.08746,1.1933 0.24252,1.78937 0.46399,2.66852c0.21082,0.83679 0.44727,1.83331 0.48932,2.71014c0.04843,1.00958 -0.04993,1.82599 0.17734,2.81067c0.19138,0.82913 0.54352,1.44424 0.71185,2.42136c0.13727,0.79678 0.11923,1.62598 0.12149,2.65717c0.00195,0.90067 0,1.92148 0,2.7215c0,0.79999 0,1.7955 0,2.54282c0,1.03183 0,1.97852 0,2.65717c0,1.11469 0,2 0,2.80002c0,0.89999 0,1.79999 0,2.69998c0,0.89999 -0.07306,1.85016 0.42532,2.47467c0.4852,0.60797 0.57468,1.42532 0.57468,2.32535c0,0.89999 0,1.79999 0,2.69998c0,0.80002 0,1.75717 0,2.65268c0,0.69467 0,1.71133 0,2.64734c0,0.89999 0,1.79999 0,2.69998c0,0.80002 0.01041,1.70007 0,2.60001c-0.01044,0.90018 -0.54321,1.6033 -0.87851,2.5c-0.31808,0.85062 -0.47812,1.51233 -1.03748,2.18533c-0.55603,0.66901 -0.85355,1.5502 -1.68402,1.70401c-0.8855,0.164 -1.60327,0.55383 -2.5,0.88916c-0.85065,0.31808 -1.71432,0.12149 -2.67065,0.12149c-0.771,0 -1.63202,0 -2.52933,0c-0.90002,0 -1.80002,-0.00226 -2.70001,0c-0.90451,0.00226 -1.52338,-0.00986 -2.48532,0.08533c-1.04001,0.10291 -1.77151,0.26913 -2.53552,0.41467c-0.78329,0.1492 -1.97769,0.34924 -2.77914,0.41467c-0.79889,0.06522 -1.59998,0.07892 -2.40002,0.08401c-1.1998,0.00766 -1.99548,0.00131 -2.77914,0.00131c-0.76367,0 -2.19965,-0.00842 -2.86816,0.00452c-0.97836,0.01892 -1.6402,0.05634 -2.67401,0.21683c-0.73422,0.11398 -1.47464,0.3006 -2.59467,0.49466c-1.05896,0.18347 -1.72433,0.21072 -2.63733,0.30933c-1.08292,0.11697 -1.77945,0.34283 -2.58502,0.62201c-0.90314,0.31299 -1.82831,0.35272 -2.66165,0.35266c-0.97833,-0.00009 -1.99268,-0.2132 -1.99985,-1.10001c-0.00571,-0.70511 0.62735,-1.48395 1.19986,-2.10132c0.61865,-0.66714 1.08142,-1.46234 1.5,-2.146c0.47784,-0.78046 0.74347,-1.61554 1.384,-2.36734c0.56754,-0.66611 0.59363,-1.43915 1.13733,-2.164c0.4823,-0.64301 0.53226,-1.50049 1.13583,-2.06866c0.66064,-0.62192 1.3096,-0.95465 1.62814,-1.86734c0.30325,-0.86893 1.21991,-0.94647 1.77185,-1.62833c0.51581,-0.63721 0.45303,-1.76093 0.74283,-2.53616c0.32104,-0.85886 0.5415,-1.72266 1,-2.52084c0.40616,-0.70706 0.66858,-1.66592 0.92532,-2.336c0.29291,-0.76447 0.54205,-1.76276 0.57019,-2.564c0.03516,-1.00073 0.00449,-1.836 0.00449,-2.76666c0,-0.7905 0,-1.64401 0,-2.83334c0,-0.60001 0,-1.5 0,-2.39999c0,-0.90018 0,-1.81067 0,-2.436c0,-1.33066 0,-2.048 0,-2.78934c0,-0.74933 0,-2.20798 0,-2.89066c0,-0.65866 0,-1.63666 0,-2.65067c0,-0.71735 0,-1.45868 0,-2.58066c0,-1.086 0,-1.76733 0,-2.73184c0,-0.61633 0,-1.8205 0,-2.69949c0,-0.80701 0,-1.85202 0,-2.56952c0,-0.90448 0,-1.76782 0,-2.73099c0,-0.92084 0,-1.82083 0,-2.72083c0,-0.90002 0,-1.80002 0,-2.60001c0,-0.89999 0.91714,-2.58667 0,-2.728c-0.54721,-0.08432 -0.66171,1.25208 -1,2.19467c-0.23639,0.65872 -0.39908,1.44553 -0.60001,2.26797c-0.19907,0.81488 -0.48956,1.90439 -0.78934,2.75735c-0.24512,0.69748 -0.55826,1.7056 -0.59998,2.508c-0.05191,0.99887 0.00192,1.82492 -0.09601,2.48532c-0.14938,1.00751 -0.41571,1.82175 -0.716,2.63068c-0.37421,1.00809 -0.69601,1.66449 -1.19867,2.68399c-0.29843,0.60529 -0.72153,1.44855 -1.10001,2.42166c-0.31821,0.81815 -0.50735,1.42276 -0.69998,2.065c-0.4173,1.3913 -0.59476,2.13318 -0.836,2.85202c-0.23401,0.69733 -0.67459,1.62527 -1.17868,2.39999c-0.46582,0.71591 -0.9787,1.67535 -1.12399,2.48666c-0.14618,0.81625 -0.25583,1.86224 -0.49734,2.54935c-0.24182,0.68796 -0.66095,1.64764 -0.96399,2.43997c-0.29703,0.77667 -0.79919,1.81659 -1.20001,2.40002c-0.59875,0.87152 -0.9068,1.40271 -1.39999,2.38531c-0.39481,0.78662 -0.73135,1.5098 -0.97467,2.37466c-0.26494,0.94174 -0.59874,1.60001 -0.90399,2.604c-0.23077,0.75903 -0.43834,1.69559 -0.82584,2.36868c-0.53719,0.93311 -1.06349,1.52353 -1.27017,2.478c-0.14798,0.68344 -0.59619,1.61902 -0.97266,2.47467c-0.34053,0.77402 -0.89853,1.46686 -1.04201,2.29999c-0.15276,0.88699 0.08481,1.84454 -0.29466,2.60001c-0.43558,0.86719 -0.71533,1.60001 -0.716,2.5c-0.00066,0.89999 0,1.79999 0,2.69998c0,0.90002 0,1.80002 0,2.70001c0,0.89999 -0.15182,1.82288 -0.88667,1.89868c-0.98695,0.10181 -1.75288,-0.08475 -2.78,-0.332c-0.87543,-0.21075 -1.34421,-0.37128 -2.33333,-0.66669c-0.49878,-0.14896 -1.45451,-0.47098 -2.71384,-0.75717c-0.92542,-0.21033 -1.65472,-0.18729 -2.65016,-0.66815c-0.77827,-0.37598 -1.636,-0.57468 -2.436,-0.57468c-0.89999,0 -1.8,0 -2.72083,0c-0.96317,0 -1.65384,0 -2.722,0c-0.85718,0 -1.96565,0.40933 -2.5905,-0.16666c-0.58621,-0.54037 -0.38109,-1.82004 -0.52383,-2.54401c-0.15594,-0.79089 -0.29404,-1.59525 -0.64284,-2.62265c-0.25691,-0.75674 -0.80116,-1.52649 -0.94284,-2.32834c-0.1395,-0.78952 -0.05716,-2.02234 -0.05716,-2.56366c0,-0.82202 0,-2.08936 0,-2.75385c0,-1.02084 0,-1.82083 0,-2.62085c0,-1.00449 0,-1.85715 0,-2.82147c0,-0.81451 0,-1.68301 0,-2.57852c0,-0.89548 0,-1.76401 0,-2.83331c0,-0.7095 0.02203,-1.56244 -0.00133,-2.56534c-0.01785,-0.76593 -0.35779,-1.6842 -0.64601,-2.41116c-0.36711,-0.92593 -0.34116,-1.71082 -0.35133,-2.50751c-0.01561,-1.22092 -0.00133,-2.021 -0.00133,-2.93451c0,-0.7175 0,-1.76248 0,-2.56949c0,-1.17868 0,-1.78 0,-2.69949c0,-0.63635 0,-2.00052 0,-2.73184c0,-0.74734 0,-1.49466 0,-2.58066c0,-1.00952 0,-1.64584 0,-2.56534c0,-1.20401 0,-1.82266 0,-2.81567c0,-1.11899 -0.00111,-1.95236 0.0045,-2.38651c0.01137,-0.87842 -0.00748,-1.7439 0.16217,-2.89917c0.13759,-0.93689 0.49203,-1.64688 0.71182,-2.69998c0.16473,-0.78931 0.08963,-1.80109 0.13217,-2.60001c0.04272,-0.80237 0.29709,-1.82053 0.69383,-2.54285c0.44121,-0.80328 1.14066,-1.42239 1.28484,-2.25717c0.15318,-0.88693 0.01134,-1.79999 0.01067,-2.69998c-0.00067,-0.89868 -0.36038,-1.67142 -1.32133,-1.70001c-0.67836,-0.02017 -1.79601,-0.00049 -2.48849,0c-0.96083,0.00067 -1.73491,-0.01172 -2.59283,0.08533c-0.90219,0.10205 -1.81903,0.34933 -2.46933,0.52536c-0.69907,0.18921 -1.86864,0.49915 -2.73784,0.68481c-0.90883,0.19415 -1.37265,0.28738 -2.3075,0.41916c-1.35757,0.19138 -2.22514,0.23798 -3.06184,0.26453c-0.81609,0.02588 -2.02084,0.01691 -2.8235,0.02216c-0.8187,0.00534 -1.66968,0.0282 -2.11166,0.05582c-1.42044,0.08875 -1.92886,0.1586 -2.9865,0.2955c-0.53955,0.06985 -1.61211,0.22498 -2.13667,0.29468c-1.46143,0.19421 -2.30576,0.28015 -3.05449,0.31668c-0.99382,0.04849 -1.908,0.03598 -2.8035,0.03598c-0.86852,0 -1.93784,0 -2.64734,0c-0.85266,0 -1.85583,0 -2.62117,0c-1.07883,0 -1.936,0 -2.836,0c-0.8,0 -1.7,0 -2.636,0c-0.84799,0 -1.71133,0 -2.73866,0c-0.94684,0 -1.64616,0 -2.62534,0c-0.8,0 -1.60001,0 -2.60451,0c-0.85266,0 -1.81712,0.01837 -2.61015,-0.01065c-0.77638,-0.02841 -1.77324,-0.35709 -2.58267,-0.70535c-0.868,-0.37347 -1.94514,-0.27936 -2.16667,0.57733c-0.24352,0.94171 -0.0275,1.68527 -0.20267,2.63867c-0.15944,0.86783 -0.34425,1.51855 -0.48067,2.19919c-0.25136,1.25412 -0.33337,2.03903 -0.35133,2.98349c-0.01904,1.00116 -0.00133,1.81732 -0.00133,2.63333c0,0.99866 0,1.87332 0,2.68399c0,0.97919 0,1.83334 0,2.6955c0,0.94052 0,1.78851 0,2.65186c0,0.89548 0,1.85266 0,2.75284c0,0.78516 0,1.72516 0,2.73315c0,0.79199 0,1.65201 0,2.37732c0,0.98935 0,1.78934 0,2.78934c0,0.97919 0,1.83334 0,2.6955c0,0.94052 0,1.78851 0,2.65186c0,0.89548 0.1637,1.90994 -0.22133,2.75266c-0.3058,0.66931 -0.77333,1.49994 -0.77867,2.39999c-0.00533,0.89996 0,1.80002 0,2.70001c0,0.89999 0,1.79999 0,2.60001c0,0.89999 -0.11537,1.89801 0.44667,2.59998c0.5858,0.7316 1.46669,0.90469 1.98399,1.48535c0.59906,0.67239 0.66927,1.75397 1.13733,2.51334c0.37968,0.616 1.08455,1.44131 1.44667,2.19067c0.39539,0.81821 0.76534,1.66681 1.15201,2.41064c0.40717,0.78326 1.34283,1.18146 1.71182,2.10001c0.33852,0.84271 0.12151,1.70001 0.12151,2.60001c0,0.89999 0.28909,1.85196 -0.01067,2.68933c-0.26375,0.73676 -0.98399,1.22128 -0.98933,2.11066c-0.0054,0.89996 0.17329,1.9491 -0.436,2.47467c-0.71237,0.61447 -1.44128,1.01749 -1.56267,1.82535c-0.13651,0.90854 -1.03777,1.03183 -1.80133,1.28531c-0.77217,0.25635 -1.5043,0.81036 -2.40134,0.91602c-0.97267,0.11453 -1.61626,0.47809 -2.39999,0.71466c-0.98042,0.29593 -1.79866,0.28174 -2.79866,0.284c-0.8,0.0018 -1.8,0 -2.60001,0c-1,0 -1.8,0 -2.60001,0c-1,0 -1.79999,0 -2.79999,0c-0.8,0 -1.79984,0 -2.57918,0c-0.9995,0 -1.77458,0.03976 -2.67349,-0.00449c-0.86607,-0.04263 -1.69876,-0.46567 -2.51401,-0.99551c-0.64153,-0.41693 -1.32605,-0.83148 -2.42267,-0.98932c-0.8813,-0.12683 -1.40532,-0.62128 -1.41066,-1.51068c-0.00565,-0.94263 0,-1.64133 0,-2.487c0,-0.76865 0,-1.72131 0,-2.27167c0,-1.25867 0,-2.74133 0,-3.56949c0,-0.87717 0,-1.79233 0,-2.7345c0,-0.95816 0,-1.92133 0,-2.87851c0,-0.94016 0,-2.72549 0,-3.55133c0,-0.78082 0,-1.52167 0,-2.22751c0,-0.67581 0,-1.32666 0,-1.95749c0,-0.61584 0,-1.82251 0,-2.42218c0,-0.59766 0,-1.19131 0,-2.35864c0,-0.56967 0,-1.67102 0,-2.70834c0,-0.96399 0,-1.87201 0,-2.74802c0,-0.43347 0,-1.75198 0,-2.668c0,-0.93198 0,-1.39648 0,-2.3075c0,-1.27649 0,-2.04184 0,-3.10983c0,-0.70532 0,-1.83331 0,-2.668c0,-0.88266 0,-1.332 0,-2.22665c0,-1.272 0,-2.03333 0,-3.04285c0,-0.87448 0,-1.87717 0,-2.75183c0,-0.81067 0,-1.61066 0,-2.41068c0,-1.18933 0,-1.91464 0,-2.89999c0,-0.98532 0,-1.71066 0,-2.69983c0,-0.77933 0,-1.77866 0,-2.59882c0,-0.90134 0.92323,-2.63562 0,-2.72934c-0.42247,-0.04288 -0.45177,1.37915 -0.7045,2.04681c-0.42206,1.11496 -0.60629,1.80634 -0.7955,2.58536c-0.21214,0.87344 -0.3141,1.35193 -0.60017,2.96149c-0.10641,0.59875 -0.20578,1.23712 -0.31049,1.91699c-0.11172,0.72543 -0.22603,1.50125 -0.34651,2.33099c-0.12889,0.8876 -0.40938,2.85306 -0.56416,3.93533c-0.16252,1.13638 -0.33078,2.31076 -0.504,3.50702c-0.17412,1.20242 -0.34821,2.39481 -0.522,3.561c-0.16759,1.12448 -0.48468,3.1832 -0.631,4.09c-0.13379,0.82916 -0.26164,1.59171 -0.375,2.30099c-0.10655,0.66675 -0.20456,1.30338 -0.285,1.923c-0.07951,0.61243 -0.2001,1.86865 -0.24016,2.53299c-0.04147,0.68771 -0.06741,1.39392 -0.08551,2.112c-0.01825,0.72394 -0.02679,1.448 -0.03149,2.16602c-0.00462,0.70599 -0.00398,2.05798 -0.00467,2.69299c-0.00066,0.60501 -0.00204,1.18002 -0.0105,1.72501c-0.008,0.51501 0.00435,1.00217 -0.07466,1.88c-0.09895,1.09946 -0.35753,1.94662 -0.56201,2.64648c-0.29405,1.00641 -0.30875,1.82962 -0.57399,2.81332c-0.1624,0.60229 -0.6851,1.62204 -0.76801,2.38953c-0.09781,0.90543 -0.01067,1.81064 -0.01067,2.71066c0,0.89999 0.08868,1.80438 0,2.69998c-0.08374,0.8457 -0.95729,1.28235 -1,2.20001c-0.04184,0.89902 0.43427,2.03241 -0.16667,2.63333c-0.60092,0.60092 -1.63333,0.16666 -2.53333,0.16666c-0.84167,0 -1.84317,0 -2.58267,0c-0.8835,0 -1.884,0 -2.60266,0c-0.75067,0 -1.52534,0.00006 -2.316,0c-1.19867,-0.00009 -1.99893,0.00552 -2.79867,-0.02081c-0.80039,-0.02634 -2.00169,-0.13486 -2.80133,-0.26318c-0.8112,-0.13019 -1.63177,-0.30927 -2.484,-0.43201c-1.33196,-0.19183 -2.26278,-0.23221 -2.72933,-0.25867c-0.9239,-0.0524 -1.82178,-0.06503 -3.04234,-0.24683c-0.7331,-0.10919 -1.40552,-0.28568 -2.34033,-0.57983c-0.90675,-0.28534 -1.78423,-0.61578 -2.6455,-0.84149c-1.02764,-0.26929 -1.73679,-0.29648 -2.64117,-0.44116c-1.00571,-0.16092 -1.79088,-0.43152 -2.54667,-0.63202c-0.94554,-0.25082 -1.74074,-0.64438 -1.76933,-1.60565c-0.02141,-0.7197 0,-1.845 0,-2.36902c0,-0.91348 0,-1.64249 0,-2.97598c0,-0.51868 0,-1.64401 0,-2.23468c0,-0.59866 -0.00009,-1.78799 0,-2.36267c0.00025,-1.55066 -0.01617,-2.42767 0.0625,-3.23599c0.07923,-0.81412 0.15281,-1.24808 0.60167,-2.68533c0.17357,-0.55579 0.39106,-1.12817 0.85667,-2.31467c0.2355,-0.60013 0.4857,-1.18637 1.14583,-2.83331c0.19232,-0.47983 0.53608,-1.33093 0.77084,-2.08334c0.30255,-0.9697 0.43929,-1.88376 0.54784,-2.79401c0.07459,-0.62552 0.32621,-1.96353 0.584,-2.672c0.26948,-0.74057 0.61095,-1.45844 0.948,-2.14801c0.45439,-0.92966 0.84724,-1.69702 1.28133,-2.56665c0.40054,-0.8024 0.84057,-1.58203 1.08,-2.60284c0.14113,-0.60168 0.16151,-1.49503 0.40666,-2.48248c0.20013,-0.80612 0.42132,-1.60376 1.01467,-2.50302c0.4351,-0.65942 1.29948,-1.28568 1.57867,-2.13583c0.22144,-0.67432 0.2343,-1.69891 0.55733,-2.46783c0.31454,-0.74875 1.00916,-1.5675 1.36401,-2.17999c0.57666,-0.99539 0.74003,-1.80856 1.2,-2.69733c0.35525,-0.68643 1.11266,-1.24899 1.564,-1.96933c0.48686,-0.77701 0.51678,-1.6347 1.01067,-2.37866c0.44694,-0.67322 0.61413,-1.47711 1.14133,-2.06934c0.53607,-0.6022 0.92685,-1.48608 1.48267,-2.116c0.67564,-0.76572 0.61068,-1.52808 0.83733,-2.40002c0.22501,-0.86566 1.06513,-1.49887 1.66399,-2.09998c0.59664,-0.59888 1.05273,-1.45056 1.46667,-2.30002c0.31785,-0.65225 0.71829,-1.44318 1.186,-2.29999c0.40686,-0.74533 0.70238,-1.51837 1.16817,-2.22083c0.54597,-0.82339 1.07703,-1.43878 1.35767,-2.45786c0.20782,-0.7547 0.12099,-1.6785 0.1215,-2.42581c0.00067,-0.99551 -0.04337,-1.81354 0.22134,-2.79535c0.21545,-0.7991 0.59016,-1.6391 0.80399,-2.42551c0.23607,-0.86819 0.60416,-1.61359 0.97467,-2.54132c0.31145,-0.77982 0.61511,-1.59628 0.83334,-2.66666c0.14342,-0.70343 0.14333,-1.56244 0.168,-2.56668c0.01966,-0.80051 0.22537,-1.79837 0.49866,-2.62082c0.22034,-0.66309 0.43762,-1.66306 0.47916,-2.5c0.04366,-0.87967 0.02084,-1.77936 0.02084,-2.68985c0,-0.62534 -0.00391,-1.95602 0.00133,-2.672c0.00534,-0.73203 -0.05081,-1.46719 0.16534,-2.784c0.13692,-0.83411 0.45856,-1.54218 0.83333,-2.5c0.30751,-0.78589 0.52168,-1.34387 0.71466,-2.23468c0.25729,-1.18768 0.26334,-1.79828 0.28084,-2.69867c0.02332,-1.1996 -0.02802,-1.79762 0.0405,-2.66399c0.08493,-1.07394 0.41734,-2.00214 0.61134,-2.68866c0.27087,-0.95854 0.31126,-1.78493 0.40533,-2.65184c0.0974,-0.89746 0.29596,-1.78758 0.52199,-2.6235c0.25414,-0.9399 0.37469,-1.76613 0.64667,-2.59349c0.2988,-0.90895 0.65964,-1.67218 0.74268,-2.4785c0.08202,-0.79654 0.036,-1.8 0.036,-2.60001c0,-0.99867 -0.07661,-1.94646 0.0045,-2.84734c0.08371,-0.92976 0.42473,-1.59193 0.79683,-2.35399c0.48979,-1.00305 0.80568,-1.59521 1.29851,-2.59868c0.29367,-0.59796 0.66769,-1.38919 0.84749,-2.4045c0.14981,-0.84598 0.24681,-1.82457 0.48868,-2.61017c0.24147,-0.78433 0.65192,-1.65062 1.164,-2.39999c0.48843,-0.71475 0.97119,-1.37762 1.23332,-2.38535c0.20406,-0.78448 0.166,-1.59999 0.16667,-2.59549c0.00061,-0.91917 -0.06924,-1.80057 0.22133,-2.72583c0.21982,-0.69997 0.54095,-1.69545 0.86267,-2.47734c0.31027,-0.75409 0.85884,-1.50133 0.916,-2.40134l0,-0.89999l0,-0.90001l0,-0.79999" id="svg_7" stroke-width="2" stroke="#000" fill="none"/>
  <path t="15762,15860,15860,15866,15866,15867,15867,15882,15882,15882,15882,15884,15884,15884,15884,15891,15891,15891,15891,15901,15901,15901,15901,15901,15906,15906,15906,15907,15916,15916,15916,15916,15922,15922,15922,15922,15932,15932,15932,15938,15938,15938,15938,15948,15948,15949,15949,15949,15954,15954,15954,15965,15965,15965,15965,15970,15970,15970,15970,15970,15971,15982,15982,15982,15982,15982,15986,15986,15986,15986,15998,15998,15999,15999,16002,16002,16002,16002,16015,16015,16015,16015,16018,16018,16018,16032,16032,16033,16033,16035,16035,16035,16049,16049,16049,16051,16051,16065,16065,16066,16066,16068,16068,16074,16074,16074,16082,16082,16082,16082,16090,16090,16090,16097,16097,16097,16105,16105,16105,16114,16114,16114,16114,16121,16121,16121,16121,16129,16129,16129,16137,16137,16137,16145,16145,16153,16169,16169,16185,16185,16201,16335,16339,16339,16356,16356,16356,16356,16374,16374,16374,16374,16374,16374,16374,16374,16382,16382,16382,16382,16382,16382,16382,16382,16382,16386,16386,16386,16386,16386,16386,16386,16386,16387,16396,16397,16397,16397,16397,16397,16397,16397,16402,16402,16402,16402,16402,16402,16413,16413,16413,16413,16413,16413,16418,16418,16418,16418,16418,16418,16430,16430,16430,16430,16430,16434,16434,16434,16434,16434,16435,16446,16447,16447,16447,16450,16450,16450,16463,16463,16463,16464,16466,16466,16466,16474,16474,16482,16482,16482,16490,16490,16490,16498,16498,16498,16506,16506,16506,16514,16514,16514,16522,16522,16530,16530,16546,16546,16554,16578,16596,16613,16613,16630" d="m142,197.89999c-0.36166,2.60451 -0.74873,3.46471 -1.16667,4.16667c-0.47592,0.79935 -0.85205,1.35556 -1.43466,2.23466c-0.59651,0.9001 -0.99867,1.49867 -1.39867,2.09866c-0.39999,0.60001 -1.2,1.8 -1.60001,2.40001c-0.39999,0.59999 -0.80489,1.19675 -1.59982,2.40016c-0.39813,0.60272 -0.80083,1.20886 -1.14301,1.85701c-0.52399,0.99252 -0.77795,1.72517 -1.03183,2.46815c-0.25549,0.74771 -0.45142,1.517 -1.11067,2.89067c-0.32286,0.67273 -0.72926,1.30702 -1.116,1.968c-0.60484,1.03375 -0.99867,1.76866 -1.39867,2.51599c-0.39999,0.74734 -0.9971,1.83505 -1.39733,2.51334c-0.37859,0.64162 -0.81509,1.20187 -1.26933,2.32001c-0.2821,0.69441 -0.31189,1.41675 -0.66667,2.33333c-0.31823,0.82214 -0.7142,1.37154 -1.26933,2.32001c-0.60341,1.03094 -0.994,1.7632 -1.17599,2.13866c-0.36063,0.74397 -0.72218,1.47205 -1.05334,2.88934c-0.15013,0.64253 -0.20436,1.60107 -0.50134,2.48532c-0.31435,0.936 -0.72285,1.5455 -1.13283,2.21434c-0.68993,1.12555 -0.95799,1.52678 -1.4865,2.39551c-0.27413,0.45061 -0.82472,1.3739 -1.09467,1.842c-0.79404,1.37689 -1.03867,1.82243 -1.491,2.68649c-0.42729,0.81624 -0.81721,1.59239 -1.29501,2.69501c-0.29329,0.67683 -0.52104,1.33914 -0.91933,2.26216c-0.39411,0.91333 -0.71825,1.51323 -1.26817,2.4045c-0.37396,0.60611 -0.98745,1.4946 -1.3765,2.10001c-0.57333,0.89218 -0.97926,1.46814 -1.36,2.70001c-0.18176,0.58804 -0.25433,1.50897 -0.41067,2.09998c-0.32337,1.22244 -0.67014,1.81161 -1.241,2.64285c-0.55875,0.8136 -1.2001,1.49039 -1.54934,1.95715c-0.49754,0.66498 -0.87366,1.68402 -1.04166,2.5c-0.168,0.81601 -0.5435,1.83298 -1.02084,2.47919c-0.47169,0.63855 -1.104,1.41681 -1.6045,2.25681c-0.55112,0.92493 -0.84988,1.45245 -1.37466,2.24319c-0.34165,0.5148 -1.13147,1.53821 -1.58933,2.1355c-0.53074,0.69235 -0.93517,1.44595 -1.296,2.15732c-0.44048,0.86841 -0.76733,1.53333 -1.11467,2.228c-0.516,1.03201 -0.96192,1.96582 -1.37466,2.728c-0.36343,0.67111 -0.95,1.46942 -1.45067,2.08267c-0.52551,0.64368 -1.16325,1.60577 -1.422,2.142c-0.39321,0.81485 -0.90012,1.89392 -1.23801,2.36334c-0.50748,0.70505 -1.12811,1.35834 -1.71483,2.10535c-0.62355,0.79391 -1.01144,1.37454 -1.48517,1.89465c-0.95039,1.04343 -1.53712,1.4386 -2.05334,1.87332c-0.94251,0.79373 -1.45103,1.40347 -1.95233,2.1535c-0.51315,0.76776 -1.17867,1.2413 -1.909,1.71851c-0.79883,0.52194 -1.0479,1.3273 -1.6,2.05334c-0.55074,0.72424 -1.83582,1.13733 -1.71201,2.08264c0.08413,0.64227 1.14622,0.20679 2.11284,-0.29831c0.66177,-0.34583 1.19225,-0.69839 1.82583,-1.211c0.82424,-0.66687 1.80202,-1.59787 2.35467,-2.1355c0.59161,-0.5755 1.20577,-1.1947 1.836,-1.85251c0.65192,-0.68045 1.31898,-1.38013 2.616,-2.86667c0.65244,-0.74777 1.28211,-1.51187 1.9005,-2.27701c0.61226,-0.75757 1.20528,-1.5134 1.7835,-2.259c0.56541,-0.7291 1.10882,-1.44406 2.14933,-2.79733c0.48914,-0.63617 0.96126,-1.24301 1.41,-1.82849c0.43121,-0.56259 0.84376,-1.10626 1.23,-1.6395c0.37366,-0.51587 0.74072,-1.01511 1.36,-2.03201c0.30069,-0.49374 0.56776,-0.9967 0.8235,-1.49548c0.25224,-0.49194 0.48772,-0.98428 0.7245,-1.46851c0.46549,-0.9519 1.20275,-2.31723 1.46933,-2.75333c0.53354,-0.87283 0.82616,-1.29733 1.36333,-2.1925c0.27388,-0.45642 1.03703,-1.93042 1.26733,-2.4595c0.23415,-0.53793 0.66658,-1.65073 0.87466,-2.216c0.20825,-0.56573 0.80909,-2.24857 1.01051,-2.793c0.39258,-1.06113 0.5921,-1.57404 0.96416,-2.57501c0.1801,-0.48453 0.67373,-1.87857 0.8145,-2.32532c0.27288,-0.86603 0.50953,-1.71915 0.717,-2.57401c0.31812,-1.31076 0.40611,-1.76834 0.6045,-2.70001c0.20164,-0.94699 0.29656,-1.42273 0.5,-2.36331c0.29486,-1.36328 0.49683,-2.21753 0.58933,-2.62668c0.2572,-1.13765 0.47306,-2.12067 0.5535,-2.952c0.07294,-0.75391 0.05184,-1.8387 0.0585,-2.47333c0.01083,-1.03214 -0.03324,-1.7415 0.22016,-2.989c0.15931,-0.78427 0.47939,-1.43579 0.9785,-2.44301c0.29785,-0.60107 0.82068,-1.59033 1.0955,-2.2045c0.37605,-0.84039 0.57585,-1.81786 0.68983,-2.62083c0.11684,-0.82314 0.41969,-1.87773 0.876,-2.53867c0.45429,-0.65802 1.12228,-1.43277 1.51333,-2.036c0.51589,-0.79579 1.10934,-1.60001 1.62534,-2.20001c0.516,-0.59999 1.11285,-1.3998 1.58933,-2.16399c0.50872,-0.81589 1.05081,-1.43419 1.5105,-2.15733c0.4171,-0.65614 0.50202,-1.80849 1.06683,-2.51201c0.54785,-0.6824 1.05467,-1.26666 1.48067,-1.86667l0.342,-0.89999" id="svg_8" stroke-width="2" stroke="#000" fill="none"/>
  <path t="17205,17355,17355,17403,17420,17436,17459,17459,17481,17490,17506,17516,17532,17538,17549,17602,17623,17638,17638,17648,17648,17665,17690,17690,17868,17886,17902,17902,17902,17903" d="m306,196.89999c-1,-1 -1.80075,-1.03741 -2.70001,-1c-0.86624,0.03604 -1.1402,0.89789 -1.46664,1.83334c-0.23944,0.6862 -0.80484,1.4653 -0.83334,2.36667c-0.02844,0.89938 0.35193,1.62712 0.94733,2.15266c0.63812,0.56326 0.98105,1.45311 1.75717,1.64284c0.87238,0.21324 1.66049,-0.67924 1.93832,-1.40451c0.36716,-0.9584 0.35184,-1.75494 0.35718,-2.70566c0.00497,-0.88533 -0.47882,-1.875 0.08533,-2.60001c0.51529,-0.66222 1.67969,-0.28517 2.29968,-0.28084l0.73999,0.01634l0.85999,0.03633" id="svg_9" stroke-width="2" stroke="#000" fill="none"/>
  <path t="18110,18283,18301,18307,18322,18337,18340,18354,18363,18370,18379,18379,18397,18397,18418,18434,18446,18463,18479,18479,18565,18572" d="m334,196.89999c-0.716,-0.19733 -0.99774,0.7 -1,1.60001c-0.00223,0.89999 -0.25082,1.83716 0.00449,2.6955c0.22684,0.76265 1.2955,0.7045 2.19684,0.7045c0.96533,0 1.62457,0.03336 2.63202,0c0.86359,-0.02859 1.84146,-0.43382 2.1095,-1.29999c0.2666,-0.86151 0.05716,-1.8 0.05716,-2.70001l0,-0.79999l-0.08533,-0.91467l-0.716,-0.19867" id="svg_10" stroke-width="2" stroke="#000" fill="none"/>
  <path t="18819,18908,18928,18931,18931,18931,18939,18939,18939,18955,18955,18955,18955,18972,18972,18972,18972,18972,18985,18986,18986,18986,18986,18986,18986,18987,18987,18987,18987,18987,18997,18997,18997,18997,19004,19004,19004,19004,19004,19015,19015,19015,19017,19018,19018,19029,19029,19029,19045,19045,19049,19140,19161,19165,19172,19191,19192,19203,19204,19204,19217,19217,19217,19219,19219,19219,19234,19234,19234,19236,19236,19236,19250,19250,19250,19262,19262,19262,19262,19266,19266,19266,19266,19279,19279,19290,19290,19290,19362,19362" d="m303,225.89999c1.05267,1.70001 1.57199,2.51289 2,3.33334c0.34229,0.65611 0.5827,1.45877 1,2.5c0.28812,0.71887 0.61938,1.384 1,2.33333c0.31622,0.78868 0.60666,1.67798 0.79999,2.32001c0.31088,1.03233 0.50708,1.78784 0.72086,2.61749c0.2392,0.92827 0.36505,1.43837 0.64581,2.5625c0.31665,1.26785 0.48291,1.93916 0.64801,2.62401c0.16589,0.68816 0.33075,1.3705 0.47549,2.04149c0.39493,1.83063 0.48877,2.35773 0.59552,3.2865c0.09152,0.79607 0.1098,1.51599 0.11432,2.90285c0.00238,0.73566 0,1.49933 0,2.28299c0,1.1955 0,1.99417 0,2.78485c0,0.77466 0,1.52533 0,2.58914c0,0.9855 0,1.91702 0,2.8215c0,0.89551 0,1.76401 0,2.83334c0,0.7095 0,1.56216 0,2.56534c0,0.76532 0,1.716 0,2.70099c0,0.35867 -0.09399,-0.54675 0.35266,-1.39966c0.39395,-0.75226 0.70718,-1.49127 1.21802,-2.18668c0.43094,-0.58664 1.0618,-1.17694 1.82666,-2.19733c0.39716,-0.52982 0.95645,-1.33383 1.26932,-2.14932c0.35095,-0.91486 0.34116,-1.62744 0.55484,-2.58801c0.18069,-0.81226 0.45926,-1.63544 0.87851,-2.65717c0.28406,-0.69226 0.72308,-1.50912 1.09866,-2.3255c0.29913,-0.65025 0.55679,-1.44621 0.67984,-2.46017c0.0965,-0.79507 0.10727,-1.65657 0.117,-2.53499c0.01404,-1.26743 0.00449,-2.02884 0.00449,-2.71817c0,-0.9165 0,-1.96117 0,-2.86183c0,-1.02084 0,-1.82083 0,-2.62083l0,-0.9955l0,-0.74733" id="svg_11" stroke-width="2" stroke="#000" fill="none"/>
 </g>
 <g display="none">
  <title>muse_image</title>
  <image xlink:href="http://farm2.static.flickr.com/1297/560897101_784224d03a.jpg" id="muse" height="480" width="360" y="0" x="140"/>
 </g>
 <g display="none">
  <title>bbox</title>
  <rect stroke="#f00" fill="none" stroke-width="3" height="223.68" width="212.16" y="149.76" x="140" id="bbox"/>
 </g>
</svg>
