<svg width="640" height="480" xmlns="http://www.w3.org/2000/svg" xmlns:svg="http://www.w3.org/2000/svg" xmlns:xlink="http://www.w3.org/1999/xlink">
 <!-- Sketchy ANNOTATION
  ImageNet ID: n02503517_3799
  URL: http://farm1.static.flickr.com/113/311927821_448135b479.jpg
  Image Width: 500
  Image Height: 333
  BBox X: 138
  BBox Y: 28
  BBox Width: 205
  BBox Height: 283
  Exposure: 2000ms
  Synset Label: elephant
  Synset ID: n02503517
  Worker Tag: elephant walking
  Sanity Check: 
   Saved
  Comment: 
   {}
  Worker ID: AXD2DZ7U6CK35
  Assignment ID: 3CN4LGXD5XOJ848AJ51ATTWJ4YYY49
  HIT ID: 3XUSYT70IT1XOLXOE6MSFL1K00U0DU
  Work Time: 65s
  Worker Score: 0.7857
 END ANNOTATION -->
 <g display="inline">
  <title>Layer 1</title>
  <path t="0,13,13,13,26,27,37,37,37,54,55,71,71,71,71,89,90,90,90,107,107,107,107,122,122,122,137,137,138,138,155,155,155,171,171,172,172,172,187,188,204,204,205,205,222,222,222,237,238,238,255,255,255,272,272,272,272,287,288,288,288,304,305,305,322,322,338,338,354,355,355,372,372,388,388,388,405,405,421,422,438,438,438,454,455,471,471,491,505,535" d="m204,56c3.59734,-2.11467 4.46506,-2.46345 4.98567,-2.6955c1.06099,-0.4729 1.63605,-0.96009 2.55699,-1.40434c0.68893,-0.33233 1.44032,-0.592 2.49068,-0.81617c0.82184,-0.1754 1.73306,-0.29665 2.66399,-0.52c0.7003,-0.16802 1.42406,-0.35585 2.48134,-0.664c0.99866,-0.29107 1.64534,-0.50443 2.30533,-0.7c1.03531,-0.30679 2.13893,-0.60003 2.89067,-0.764c0.73911,-0.16122 1.80316,-0.32157 2.46817,-0.38334c0.94565,-0.08783 2.15979,-0.20663 2.75717,-0.33667c0.90437,-0.19686 1.49123,-0.41476 2.70016,-0.59467c0.90556,-0.13476 1.54036,-0.10906 2.8665,-0.288c0.71902,-0.09702 1.44786,-0.25937 2.172,-0.408c0.69186,-0.14201 1.89417,-0.32329 2.87599,-0.45067c0.95445,-0.12383 1.74037,-0.33571 2.59601,-0.54933c0.58925,-0.14712 1.78835,-0.35413 2.38933,-0.38934c0.89902,-0.05267 2.09984,-0.036 2.6955,-0.036c0.86852,0 1.93784,0 2.88985,0c0.72449,0 1.8575,0 2.52449,0c0.711,0 1.80751,0 2.86867,0c0.66434,0 1.61084,0 2.22018,0c1.19998,0 2.08047,0 2.91599,0c1,0 1.87476,-0.01297 2.88535,0.00017c0.8002,0.0104 1.81049,0.1361 2.39999,0.357c0.81668,0.30602 1.79999,0.84283 2.39999,1.14283c1,0.5 1.6001,0.79979 2.39999,1.2c0.99881,0.49974 1.60901,0.75218 2.43335,1.3c0.69403,0.46124 1.49222,1.09348 2.1875,1.52083c0.58395,0.35892 1.38995,0.94985 1.95831,1.47917c0.87329,0.8133 1.37418,1.364 1.93683,2.19867l0.36801,0.71733l0.66934,0.50933" id="svg_1" stroke-width="2" stroke="#000" fill="none"/>
  <path t="1241,1255,1271,1275,1289,1289,1307,1323,1323,1339,1339,1340,1340,1356,1357,1357,1373,1374,1390,1390,1406,1407,1423,1424,1424,1439,1456,1456,1456,1474,1474,1490,1490,1490,1490,1507,1507,1523,1523,1539,1540,1557,1573,1590,1607,1639,1659,1667,1683,1683,1691,1706,1724,1743,1775,1790,1807,1807,1824,1840,1840,1840,1857,1857,1873,1874,1890,1890,1907,1907,1907,1924,1924,1940,1940,1940,1957,1957,1957,1978,1978,1993,1993,2006,2006,2023,2023,2023,2023,2039,2039,2056,2056,2056,2073,2073,2073,2089,2089,2089,2106,2106,2106,2106,2123,2123,2123,2140,2140,2140,2156,2156,2156,2156,2173,2173,2173,2189,2189,2206,2207,2207,2223,2223,2223,2239,2239,2239,2256,2256,2256,2256,2273,2273,2273,2273,2290,2290,2290,2306,2306,2306,2323,2323,2323,2339,2339,2356,2356,2356,2372,2372,2372,2372,2389,2389,2390,2406,2406,2406,2423,2423,2423,2439,2439,2439,2456,2456,2456,2456,2456,2473,2473,2473,2473,2473,2489,2489,2489,2489,2506,2506,2523,2523,2542,2556,2556" d="m204,55c-3.45833,0 -4.30653,0.10695 -5.2,-0.00134c-0.91977,-0.11148 -1.45583,-0.8082 -2.436,-0.988c-0.83809,-0.15373 -1.64667,-0.01067 -2.69733,-0.01067c-0.63467,0 -1.66667,0 -2.36134,0c-1.26233,0 -2.03333,0.00044 -2.69633,0c-1.00899,-0.00067 -1.82701,0.04337 -2.80882,-0.22133c-0.79913,-0.21545 -1.77261,-0.70867 -2.4615,-0.768c-1.10266,-0.09497 -1.84947,0.04493 -2.57066,-0.096c-1.13623,-0.22204 -1.92686,-0.79768 -2.604,-0.87867c-0.7607,-0.09098 -1.77299,-0.036 -2.67833,-0.036c-1.12817,0 -1.7865,0 -2.46484,0c-0.9675,0 -2.15382,0 -2.90216,0c-0.95467,0 -1.72,0 -2.71417,0c-0.74733,0 -1.76849,-0.00069 -2.7045,0c-0.89867,0.00067 -1.43788,0.61022 -2.136,0.964c-0.77136,0.3909 -1.82086,-0.12677 -2.664,0.25733c-0.78001,0.35534 -1.3898,0.96404 -1.98399,1.49467c-0.60133,0.53701 -1.51274,0.87848 -1.89067,1.684c-0.41461,0.88372 -0.76904,1.63381 -1.10933,2.4c-0.34938,0.78666 -0.92834,1.52796 -1.216,2.20533c-0.31357,0.73838 -0.83298,1.83279 -1.17917,2.47383c-0.44295,0.82023 -0.51549,1.73146 -0.52083,2.72083c-0.00432,0.79999 0,1.8 0,2.60001c0,0.8 0,1.8045 0,2.436c0,1.18533 0,1.98933 0,2.81133c0,1.03117 0,1.71667 0,2.55133c0,1.00134 0,1.80134 0,2.80134c0,0.8 -0.04141,1.80227 0.02083,2.62083c0.08757,1.15175 0.33298,1.93153 0.47917,2.47916c0.21771,0.81555 0.46222,2.04628 0.48933,2.72533c0.03755,0.94064 0.01067,1.72733 0.01067,2.54933c0,1.05867 0,2 0,2.678c0,1.234 0,1.794 0,2.709c0,1.005 0,1.721 0,2.8175c0,0.71101 0,1.6875 0,2.75951c0,0.7095 0,1.68283 0,2.49733c0,0.8685 -0.01349,1.76417 0.0045,2.664c0.01801,0.90038 0.03229,1.50907 0.2795,2.69733c0.1808,0.86907 0.4612,1.62547 0.66333,2.59733c0.15991,0.76887 0.38676,1.82587 0.69934,2.59067c0.22081,0.54025 0.81425,1.54977 1.37416,2.19383c0.55699,0.64072 1.38051,1.42217 1.78984,1.8315c0.6465,0.6465 1.356,1.356 1.87334,1.87333c0.54132,0.54134 1.36386,1.3628 2.14932,2.14934c0.48035,0.481 1.15205,1.12262 1.68001,1.76533c0.63644,0.77478 0.95958,1.41956 1.37067,2.00134c0.73103,1.03458 1.13609,1.42407 1.80266,2c0.96603,0.83468 1.53008,1.18645 2.30351,1.74284c0.67833,0.48796 1.35551,1.02455 2.1765,1.82384c0.4993,0.48611 1.0602,1.06767 2,1.83333c0.50699,0.41304 1.06514,0.79121 1.88066,1.39999c0.79239,0.59152 1.48674,1.20563 2.142,1.76401c0.80016,0.68185 1.41951,1.06964 2.01067,1.46133c1.01573,0.673 1.60663,1.20375 2.2,1.77916c0.60687,0.58852 1.18977,1.21141 1.836,1.7955c0.91048,0.82292 1.44673,1.20879 2.02135,1.61067c0.61972,0.43343 1.31145,0.87982 2.48515,1.6105c0.42302,0.26335 1.29614,0.79576 2.17084,1.31749c0.42351,0.25261 1.58357,0.93358 2.23067,1.29066c0.78978,0.43582 1.45848,0.75533 2.45151,1.27068c0.75237,0.39046 1.51917,0.89867 2.20316,1.41466l0.90134,0.1665l0.60001,-0.5955l0.39999,-0.69466" id="svg_2" stroke-width="2" stroke="#000" fill="none"/>
  <path t="3425,3431,3431,3431,3431,3439,3440,3440,3457,3472,3472,3488,3488,3488,3505,3505,3505,3522,3522,3522,3539,3539,3539,3539,3555,3555,3555,3572,3572,3572,3588,3588,3588,3605,3605,3605,3622,3622,3638,3655,3655,3655,3673,3673,3673,3691,3691,3705,3705,3722,3722,3722,3738,3738,3738,3755,3755,3772,3772,3772,3772,3788,3788,3826,3834,3842,3842" d="m281,54c1.42267,1.48267 2.14197,1.82993 2.94534,2.13867c0.79962,0.3073 1.88431,0.64772 2.47867,0.747c0.89899,0.15016 1.9415,0.16354 2.8895,0.10983c0.7457,-0.04224 1.73956,-0.28067 2.37317,-0.42083c1.01205,-0.22388 1.97833,-0.42049 2.8035,-0.522c0.72324,-0.08897 1.9342,-0.26331 2.46698,-0.40983c0.85849,-0.2361 2.04111,-0.64812 2.64285,-0.8415c0.89749,-0.28842 1.49091,-0.49631 2.69983,-0.68c0.88452,-0.1344 1.47748,-0.06838 2.53351,-0.288c0.95859,-0.19935 1.61127,-0.5582 2.58798,-0.93317c0.79779,-0.30627 1.61545,-0.59515 2.65717,-0.77867c0.68036,-0.11986 1.52017,-0.12083 2.517,-0.1215c0.74734,-0.0005 1.79767,0.05988 2.72617,-0.22133c0.73889,-0.22379 1.35507,-0.55369 2.36234,-0.69333c0.81079,-0.1124 1.63202,-0.08467 2.85886,-0.08533c0.64648,-0.00035 1.65717,0 2.45715,0c1,0 1.81067,0 2.68533,0c0.99866,0 1.81467,0 2.63068,0c1.00131,0 1.94531,0 3.01733,0c0.63333,0 1.30667,-0.00008 2.30417,0c1.09799,0.00008 1.93048,0.036 2.74115,0.436l0.25067,0.76266l-0.62933,0.63467l-0.75717,0.21933" id="svg_3" stroke-width="2" stroke="#000" fill="none"/>
  <path t="4256,4271,4271,4271,4271,4271,4271,4271,4275,4275,4275,4288,4288,4288,4305,4305,4322,4322,4338,4338,4338,4355,4372,4418,4442" d="m291,78c10.83334,-6.16666 11.64667,-6.59695 12.39868,-6.972c0.68555,-0.3419 1.89148,-0.90635 2.41864,-1.13866c0.91483,-0.40316 2.02255,-0.85827 2.87466,-1.25333c0.69818,-0.32371 1.50803,-0.736 2.30801,-1.136c0.60001,-0.3 1.59998,-0.80007 2.39999,-1.2c0.79999,-0.3999 1.57269,-0.8686 2.60001,-1.13334c0.77478,-0.19966 1.51468,-0.16533 2.45834,-0.1875l0.59433,-0.6265l0.74866,-0.35133l0.89868,-0.00134" id="svg_4" stroke-width="2" stroke="#000" fill="none"/>
  <path t="5172,5187,5187,5187,5191,5207,5222,5238,5258,5274,5290,5305,5322,5338,5355,5372,5372,5372,5388,5388,5388,5405,5405,5422,5422,5438,5438,5438,5455,5455,5472,5472,5472,5472,5488,5488,5488,5505,5505,5505,5522,5522,5538,5538,5538,5555,5555,5572,5572,5572,5588,5588,5588,5605,5605,5622,5622,5622,5637,5637,5637,5654,5654,5673,5673,5673,5688,5688,5688,5705,5705,5720,5720,5737,5737,5737,5753,5754,5770,5770,5770,5786,5786,5787,5803,5803,5803,5835,5835,5841,5841,5854,5854,5854,5854,5884,5884,5884,5887,5887,5903,5904,5919,5919,5936,5953,5970,5970,5986,6003,6021,6036,6037,6053,6069,6069,6086,6087,6103,6103,6119,6119,6136,6137,6153,6153,6169,6169,6169,6170,6186,6187,6187,6203,6204,6204,6219,6219,6220,6257,6257,6269,6269,6277" d="m340,52c9.88501,0.8785 10.72726,0.96695 11.655,0.9955c0.94458,0.02907 1.87979,-0.04849 2.64499,0.35717c0.84579,0.44838 1.44659,0.96497 1.98401,1.56334c0.57343,0.63846 1.44202,0.95776 1.70532,1.69467c0.33289,0.9317 -0.02353,1.81949 0.17734,2.72266c0.15231,0.68487 0.46207,1.44012 0.66669,2.5c0.17816,0.92275 0.13531,1.76596 0.17114,2.76667c0.02869,0.80122 0.28665,1.79748 0.49551,2.4c0.34521,0.99596 0.42517,1.80834 0.58401,2.6c0.20541,1.02375 0.55026,1.65923 0.74933,2.73334c0.11661,0.62914 0.15277,1.66653 0.16217,2.36133c0.01709,1.2624 0.00443,2.04401 0.00449,2.7535c0.00009,0.97317 -0.03091,1.78058 0.05716,2.59917c0.11169,1.03816 0.51251,1.91166 0.77618,2.95267c0.14975,0.59124 0.1644,1.39999 0.16666,2.40134c0.00186,0.83466 0,2.02 0,2.824c0,0.54933 0,1.85316 0,2.53867c0,0.83466 0,1.8405 0,2.69317c0,0.96416 0.00006,1.76817 0,2.59016c-0.00009,1.03117 0.02887,1.93904 -0.08533,2.55133c-0.19025,1.01999 -0.6214,1.80025 -1.01468,2.6015c-0.40228,0.81956 -0.72443,1.47575 -1.09866,2.48383c-0.30029,0.80892 -0.57248,1.62234 -0.716,2.63067c-0.12372,0.86908 -0.08533,1.88533 -0.08533,2.68533c0,1 0.0018,1.8 0,2.6c-0.00226,1.00451 0.01993,1.64612 -0.2215,2.82133c-0.11035,0.53716 -0.36407,1.3629 -0.7785,2.412c-0.28302,0.71644 -0.69913,1.56261 -1.10001,2.36666c-0.39911,0.80045 -0.68707,1.40659 -1.19998,2.3955c-0.39026,0.75247 -0.88254,1.54016 -1.51434,2.21433c-0.7066,0.75398 -1.1908,1.20042 -1.70651,1.69017c-0.52621,0.49973 -1.54456,1.3761 -2.23248,1.828c-0.74655,0.49043 -1.54544,0.9277 -2.04535,1.55733c-0.56995,0.71783 -0.8392,1.50691 -1.50131,2.3575c-0.45923,0.58997 -1.16312,1.30603 -2,1.7045c-0.86804,0.4133 -1.4458,0.91496 -2.10001,1.442c-0.7453,0.60045 -1.75348,0.42934 -2.60001,0.77734c-0.67108,0.27589 -1.53906,0.77576 -2.32132,1.05482c-0.69864,0.24924 -1.60757,0.95702 -2.30402,1.3425c-0.81302,0.45 -1.60251,0.38884 -2.57449,0.65733c-0.79776,0.22037 -1.63928,0.58961 -2.42551,0.804c-0.86841,0.2368 -1.63174,0.60336 -2.54132,1.14134c-0.79541,0.47046 -1.32855,0.841 -2.14935,1.34933c-0.7583,0.46962 -1.4454,0.87688 -2.36798,1.28265c-0.98682,0.43402 -1.56003,0.57065 -2.36334,0.95851c-1.05835,0.511 -1.71915,1.0538 -2.29102,1.59016c-0.65546,0.61475 -1.29999,1.23383 -1.66165,0.65266l0,-0.8l0,-0.89999" id="svg_5" stroke-width="2" stroke="#000" fill="none"/>
  <path t="7291,7298,7298,7298,7313,7313,7313,7329,7337,7337,7354,7370,7371,7387,7387,7404,7404,7421,7421,7421,7437,7437,7454,7455,7471,7471,7471,7487,7487,7504,7504,7520,7520,7537,7537,7555,7555,7573,7573,7586,7586,7603,7603,7619,7637,7637,7653,7653,7669,7669,7669,7686,7686,7703,7703,7719,7719,7719,7736,7736,7753,7753,7770,7770,7786,7786,7803,7803,7819,7819,7837,7837,7837,7853,7853,7914,7914" d="m292,79c1.82935,2.05334 1.97223,3.02031 1.991,3.69917c0.03476,1.25722 0.009,2.01817 0.009,2.81284c0,0.988 0,1.80933 0,2.66267c0,0.94 -0.08759,1.94006 0.08533,2.71066c0.17883,0.797 0.64905,1.49982 0.82935,2.51601c0.14639,0.8251 0.08533,1.76533 0.08533,2.54683c0,0.7905 0.0022,1.909 0,2.8c-0.00226,0.91351 -0.01791,1.72105 -0.22134,2.673c-0.17123,0.80121 -0.45966,1.56089 -0.69464,2.6095c-0.15973,0.71272 -0.47943,1.61102 -0.73135,2.37383c-0.32324,0.97878 -0.34732,1.79545 -0.35266,2.79549c-0.00427,0.8 0,1.8 0,2.58933c0,1.04401 0.02704,1.83647 -0.00134,2.69467c-0.02859,0.86466 -0.43726,1.72146 -0.71466,2.4c-0.36838,0.90105 -0.19089,1.9591 -0.32001,2.74133c-0.14606,0.88471 -0.59259,1.61395 -0.96399,2.54133c-0.31061,0.77562 -0.60141,1.56196 -0.83334,2.5c-0.1991,0.80517 -0.36795,1.66396 -0.77731,2.54401c-0.37122,0.79801 -0.78918,1.58941 -1.08936,2.18932c-0.49976,0.99879 -0.85687,1.7921 -1.39999,2.57867c-0.46448,0.67264 -1.04193,1.32079 -1.37915,2.02133c-0.45847,0.95247 -0.52411,1.77083 -0.87802,2.65717c-0.3056,0.76534 -0.74283,1.54283 -1.14282,2.34283c-0.5,1 -0.76978,1.61249 -1.20001,2.34283c-0.46793,0.7943 -1,1.467 -1.49866,2.4225l-0.28049,0.69299" id="svg_6" stroke-width="2" stroke="#000" fill="none"/>
  <path t="9087,9302,9314,9322,9339,9356,9356,9372,9372,9387,9387,9387,9404,9404,9420,9420,9437,9437,9437,9454,9454,9470,9470,9487,9487,9487,9504,9520,9520,9537,9537,9554,9570,9570,9587,9587,9604,9620,9637,9654,9654,9670,9670,9687,9704,9720,9737,9737,9754,9754,9770,9770,9787,9787,9804,9820,9820,9820,9837,9854,9870,9870,9893,9937,10206,10230,10253,10273,10289,10289,10297,10321,10337,10341,10341,10357,10369,10386,10403,10403,10403,10419,10419,10420,10436,10436,10436,10453,10454,10469,10469,10469,10469,10487,10487,10487,10487,10503,10503,10503,10519,10519,10519,10537,10537,10553,10553,10554,10554,10569,10570,10570,10570,10586,10586,10587,10603,10603,10603,10619,10619,10619,10637,10637,10637,10654,10654,10654,10654,10669,10670,10670,10670,10686,10686,10687,10703,10703,10703,10722,10722,10723,10723,10739,10739,10739,10757,10757,10757,10757,10770,10770,10770,10770,10770,10786,10786,10787,10803,10803,10803,10804,10819,10819,10820,10820,10837,10837,10837,10837,10853,10853,10854,10869,10869,10870,10870,10886,10886,10887,10887,10905,10905,10921,10921,10957,10965,10973" d="m203,89c0,1.8 -0.00592,2.70002 0,3.6c0.00534,0.81072 0.22835,1.7185 0.5,2.4c0.38858,0.97488 0.49774,1.80982 0.5,2.76933c0.00177,0.7515 0,1.548 0,2.54533c0,0.87466 -0.04736,1.88798 0.02083,2.68533c0.08612,1.0069 0.43231,1.79044 0.62651,2.4c0.31432,0.9866 0.30772,1.81638 0.57399,2.8c0.22136,0.81772 0.62289,1.79813 0.75334,2.58933c0.11932,0.72375 0.57642,1.68993 1.02533,2.37733c0.41837,0.64062 0.89796,1.65617 0.98933,2.42267c0.11032,0.92548 0.25096,1.7244 0.58533,2.58533c0.36205,0.93222 0.54855,1.60127 1,2.42533c0.42747,0.7803 0.42534,1.7045 0.42534,2.72134c0,0.67867 0,1.65717 0,2.47733c0,0.90133 -0.00064,1.80133 0,2.72216c0.00067,0.96317 -0.11641,1.70811 0.28534,2.59517c0.38171,0.84283 0.9957,1.54794 1.41466,2.23134c0.47868,0.78081 1.06877,1.48479 1.71066,2.05266c0.7229,0.63953 1.43483,0.96706 2.10535,1.40001c0.86537,0.55878 1.26399,1.45615 1.65067,2.2c0.40715,0.78325 1.21823,1.24193 1.71199,2.09984c0.42444,0.73746 1.09274,1.25587 1.12134,2.10016c0.03047,0.89949 -0.0372,1.80087 0,2.60001c0.04271,0.91763 0.9391,1.41522 1,2.3c0.0618,0.89787 0,1.7 0,2.59999c0,0.90001 0,1.72134 0,2.63333c0,0.92801 0,1.71851 0,2.74533c0,0.69601 0,1.60535 0,2.60535c0,0.81599 0,1.63199 0,2.63333c0,0.70349 0,2.01599 0,2.65199c0,0.692 0,1.416 0,2.864c0,0.68134 0,1.64584 0,2.26218c0,1.20433 0,2.09383 0,2.6685c0,1.06932 -0.06015,2.0094 0.08533,2.83466c0.18069,1.02496 0.5497,1.62262 0.748,2.56801c0.16487,0.78603 0.17578,1.68169 0.25067,2.31999c0.16449,1.40196 0.34445,2.13806 0.49066,2.888c0.14442,0.74074 0.31079,1.80302 0.40001,2.77867c0.05484,0.59962 0.14604,1.69438 0.46133,2.62134c0.23483,0.69038 0.66689,1.6456 0.96399,2.45065c0.30295,0.82092 0.60246,1.60696 1,2.56001c0.30188,0.72371 0.61168,1.54448 0.90001,2.52449c0.20847,0.70856 0.39165,1.44435 0.7,2.5235c0.19473,0.68153 0.48984,1.6286 0.7,2.205c0.38182,1.04721 0.80568,1.96996 1.18533,2.64568c0.41963,0.74687 0.93918,1.54933 1.32533,2.09067c0.76686,1.07504 1.20163,1.52998 1.76851,2.22533c0.5489,0.67329 1.01024,1.41614 1.39549,2.22533c0.38892,0.81689 0.74754,1.64127 1.2915,2.32201c0.57205,0.7159 1.09602,1.14842 1.9765,1.87401c0.65547,0.54016 1.35876,1.07684 2.052,1.62599c0.33803,0.26778 1.53668,1.26656 2.04399,1.71667c0.71048,0.63039 1.41849,1.24875 2.21851,1.836c0.55717,0.40898 1.1456,0.80258 2.04283,1.39999c0.89827,0.59811 1.49181,0.99304 2.10001,1.34283c0.8885,0.51102 1.79213,0.91824 2.39999,1.11549c0.88976,0.28871 2.10094,0.46187 2.71066,0.51634c0.94594,0.08452 1.95761,0.18259 2.67334,0.30933c0.74313,0.13159 1.48395,0.33192 2.94934,0.54933c0.67743,0.10049 1.31958,0.1445 2.20499,0.16217c1.03983,0.02075 1.92001,0.0045 2.94016,0.0045c0.82019,0 1.73618,-0.08533 2.02017,-0.80133l0.00134,-0.95584" id="svg_7" stroke-width="2" stroke="#000" fill="none"/>
  <path t="11764,11797,11821,11837,11845,11865,11881,11889,11904,11933,11933,11941,11961,11993,11993,12001,12037,12053,12053,12061,12070,12087,12104,12121,12137,12137,12154,12154,12170,12189,12189,12204,12204,12220,12220,12220,12238,12238,12255,12255,12271,12271,12288,12288,12288,12305,12305,12321,12321,12338,12338,12355,12355,12371,12371,12388,12388,12388,12405,12405,12421,12421,12437,12437,12437,12454,12454,12454,12455,12470" d="m280,145c0,0.2 0.08868,1.10439 0,2c-0.08374,0.84569 -0.82172,1.30054 -1.00015,2.09984c-0.18826,0.84335 -0.81378,1.32402 -1.28519,2.10016c-0.41083,0.67638 -1.17206,1.36105 -2.01465,1.74733c-0.76862,0.35236 -1.18185,0.99086 -1.75269,1.69551c-0.5918,0.7305 -1.15903,1.32889 -1.522,1.95717c-0.48856,0.84566 -1.18475,1.34119 -1.42084,2.10449c-0.26489,0.8564 -0.55878,1.62962 -0.92047,2.49684c-0.27112,0.65005 -0.55731,1.60571 -0.80002,2.31467c-0.3299,0.96367 -0.21414,1.97527 -0.32001,2.65866c-0.14923,0.96326 -0.68967,1.61661 -0.87997,2.59467c-0.14441,0.74226 -0.10132,1.56377 -0.36801,2.54401c-0.23337,0.8577 -0.58051,1.81575 -0.80002,2.57066c-0.28619,0.98424 -0.64023,1.56978 -1.01581,2.53717c-0.30569,0.7874 -0.61823,1.5522 -0.81485,2.6095c-0.13202,0.70987 -0.08533,1.6265 -0.08533,2.57066c0,0.99867 0,1.79866 0,2.79866c0,0.8 0,1.8 0,2.60001c0,1 -0.0018,1.8 0,2.60001c0.00226,1 0.00446,1.81264 0.22134,2.59999c0.22498,0.81673 0.63602,1.79623 0.75333,2.62134c0.09818,0.69043 0.24667,1.82117 0.37799,2.47949l0.22202,1.01251l0.14133,0.63333l0.22684,1.18182" id="svg_8" stroke-width="2" stroke="#000" fill="none"/>
  <path t="13187,13201,13201,13205,13205,13221,13239,13254,13270,13287,13303,13304,13304,13319,13319,13337,13337,13337,13354,13354,13370,13370,13387,13387,13404,13404,13419,13420,13437,13437,13437,13453,13454,13469,13469,13470,13486,13486,13503,13504,13519,13520,13537,13537,13554,13554,13554,13570,13570,13587,13587,13604,13604,13620,13620,13637,13637,13702,13709,13721" d="m264,223c2.00534,0.35266 2.7421,0.60187 3.66666,0.83333c0.86996,0.21779 1.37732,1.02092 2.13467,1.16534c0.88278,0.16833 1.83853,0.03757 2.60934,-0.43468c0.80426,-0.49272 1.42188,-0.97063 2.19064,-1.364c0.7952,-0.40689 1.59869,-0.8 2.59869,-1.3c0.59998,-0.29999 1.40347,-0.6931 2.19867,-1.09999c0.76877,-0.39337 1.60593,-0.87012 2.29681,-1.5c0.63412,-0.57811 1.18985,-1.18533 1.78851,-1.784c0.69064,-0.69067 1.34933,-1.34933 1.89066,-1.89067c0.79199,-0.79201 1.27802,-1.27802 1.79999,-1.8c0.80399,-0.80402 1.32953,-1.32117 2.14667,-2.14684c0.50662,-0.51193 1.06644,-1.05251 1.65717,-1.87833c0.53891,-0.7534 0.98694,-1.6618 1.52151,-2.27934c0.56516,-0.65288 1.13278,-1.13455 1.70132,-2.00616c0.46198,-0.70825 0.94821,-1.52907 1.45135,-2.11017c0.50519,-0.58345 1.32614,-1.38268 1.93665,-1.99384c0.61102,-0.61168 1.14139,-1.14799 1.71066,-2.06332c0.42334,-0.68071 0.84598,-1.52058 1.45718,-2.04283c0.67267,-0.57475 1.41748,-0.90451 2.35483,-1.50317l0.54501,-0.67982l-0.85703,-0.12151" id="svg_9" stroke-width="2" stroke="#000" fill="none"/>
  <path t="14387,14405,14405,14405,14418,14422,14439,14453,14453,14470,14470,14487,14487,14503,14503,14503,14520,14537,14537,14537,14553,14553,14553,14570,14570,14586,14603,14603,14620,14620,14620,14637,14637,14637,14653,14669,14670,14687,14703,14720,14737,14753,14753,14770,14787,14803,14803,14820,14841,14857,14872,14887,14903,14903,14920,14937,14953,14970,14993,14993,15013,15037,15045,15052,15070,15087,15104,15129,15129,15137,15180,15181,15192,15208,15225,15237,15253,15270,15270" d="m268,196c3.7355,7.24933 4.15988,8.29057 4.79599,8.70534c0.79532,0.51859 1.82346,0.46111 2.70401,0.27383c0.85291,-0.1814 1.3887,-0.77538 2.32535,-1.38983c0.52386,-0.34366 1.26404,-1.09377 1.79999,-1.76401c0.66403,-0.83043 1.21091,-1.17247 1.89066,-1.62399c0.8732,-0.58003 1.65167,-1.19972 2.32001,-1.612c0.76648,-0.47281 1.57315,-1.06178 2.14316,-1.58934c0.54578,-0.50514 1.19165,-1.36362 1.90485,-1.71333c0.87717,-0.43011 1.99921,-0.37599 2.616,-0.82834c0.73688,-0.54042 1.3176,-1.30444 1.90451,-1.80566c0.77209,-0.65936 1.40192,-0.98935 2.11017,-1.45132c0.87161,-0.56854 1.66165,-1.23993 2.04932,-1.80135c0.55762,-0.80754 1.16681,-1.25175 1.82535,-1.836c0.6947,-0.61633 0.944,-1.564 1.61066,-2.064c0.66666,-0.5 1.20758,-1.24519 2,-1.66667c0.64059,-0.34073 1.49982,-0.82291 2.39999,-0.83333c0.89993,-0.01041 1.80002,0 2.70001,0c0.89999,0 1.84381,-0.41721 2.54282,0.05716c0.68253,0.4632 0.35718,1.64284 0.35718,2.57884c0,0.84799 0,1.71133 0,2.60683c0,0.95717 -0.24426,1.98933 0.284,2.67317c0.48471,0.62749 0.716,1.284 0.716,2.18401c0,0.89999 0.4928,1.90077 -0.08533,2.61465c-0.603,0.7446 -1.71466,0.28534 -2.61469,0.28534c-0.89999,0 -1.79999,0 -2.69998,0l-0.90451,0l-0.86215,0l-0.83334,0" id="svg_10" stroke-width="2" stroke="#000" fill="none"/>
  <path t="16735,16750,16755,16755,16772,16788,16789,16789,16804,16804,16805,16820,16820,16820,16820,16837,16837,16837,16853,16853,16853,16853,16870,16870,16870,16887,16887,16887,16887,16903,16903,16903,16920,16920,16937,16957,16958,16982,16994,17003,17020,17037,17053,17053,17070,17070,17087,17087,17103,17103,17120,17120,17120,17137,17137,17153,17153,17170,17170,17170,17170,17187,17187,17187,17187,17203,17203,17203,17219,17219,17236,17236,17252,17252,17281,17317,17317" d="m287,138c0,1.82533 0,2.83333 0,3.6955c0,0.84618 0,1.8475 0,2.57651c0,0.83699 0,2.028 0,2.62799c0,0.90001 0,2.10001 0,2.70001c0,0.89999 0,1.79999 0,2.7c0,0.89999 -0.00223,1.8 0,2.7c0.00226,0.90001 0.01151,1.80252 0.08533,2.39999c0.14932,1.20847 0.36285,1.80559 0.56201,2.75717c0.21027,1.00473 0.27142,1.72528 0.32733,2.4575c0.08209,1.0752 0.15479,2.06136 0.37799,2.871c0.25302,0.91785 0.57504,1.70976 0.63666,2.67833c0.06036,0.94882 0.05887,1.95407 0.62134,2.39999c0.7691,0.60974 1.78934,0.436 2.68933,0.436c0.90002,0 1.80066,0.03391 2.70001,0c0.75879,-0.02859 1.6618,-0.34732 2.40451,-0.7045c0.80048,-0.38496 1.60449,-0.74768 2.42883,-1.2955c0.69403,-0.46123 1.50095,-1.07996 2.16666,-1.52083c0.52673,-0.34882 1.20245,-1.16682 1.75266,-1.82651c0.68015,-0.81549 1.30148,-1.10623 2.24734,-1.81934c0.62338,-0.46999 1.03568,-0.86713 1.60001,-1.60533c0.64218,-0.84004 1,-1.53333 1.39999,-2.228c0.39999,-0.69467 0.96844,-1.6907 1.59549,-2.48117c0.54208,-0.68333 1.23792,-1.3521 1.76852,-1.88283c0.7359,-0.73608 1.30246,-1.2364 1.55197,-2.12c0.23755,-0.8412 0.43668,-1.75883 0.91736,-2.51601l0.16531,-0.8" id="svg_11" stroke-width="2" stroke="#000" fill="none"/>
  <path t="18384,18422,18434,18434,18454,18471,18490,18503,18520,18520,18537,18553,18553,18570,18570,18570,18587,18587,18603,18603,18620,18637,18637,18653,18653,18670,18670,18687,18687,18703,18720,18720,18737,18753,18753,18771,18771,18771,18787,18787" d="m198,149c0.35266,4.12849 0.91496,4.9874 0.99867,5.8c0.09221,0.89526 -0.00063,1.81961 0.42667,2.59999c0.45038,0.82257 0.42413,1.73547 0.65999,2.40001c0.33025,0.9305 1.06796,1.49506 1.39384,2.22083c0.42651,0.94989 0.44298,1.78813 0.60483,2.57918c0.20692,1.01135 0.59123,1.76237 1.11467,2.51466c0.48935,0.70329 0.76688,1.54202 1.08667,2.36932c0.27527,0.71211 0.93594,1.61584 1.41466,2.26868c0.52386,0.71442 0.84488,1.45903 1.40001,2.22583c0.54825,0.75729 1.18925,1.33241 1.89999,2.0215c0.59122,0.57321 1.4263,0.92285 2.3215,1.22133c0.71416,0.23811 1.6785,0.612 2.4785,0.74268l0.8,0.03467l0.9955,0.00133l0.74733,0" id="svg_12" stroke-width="2" stroke="#000" fill="none"/>
  <path t="20500,20514,20514,20514,20522,20539,20539,20554,20555,20570,20570,20587,20587,20587,20603,20603,20620,20620,20620,20637,20637,20653,20653,20670,20670,20687,20687,20687,20704,20704,20704,20704,20720,20720,20720,20737,20737,20737,20737,20753,20753,20753,20753,20770,20770,20771,20771,20771,20787,20787,20787,20787,20787,20787,20803,20803,20803,20803,20803,20820,20820,20820,20820,20820,20841,20842,20842,20842,20842,20842,20855,20855,20855,20855,20855,20855,20855,20872,20872,20872,20872,20872,20887,20887,20887,20887,20887,20903,20903,20903,20903,20903,20941,20945,20953" d="m247,224c0.87866,7.47084 0.8979,8.58546 1.05267,9.31583c0.20198,0.95317 0.85744,1.67172 0.94283,2.44135c0.09924,0.89455 -0.01761,1.66888 0.28984,2.64282c0.25998,0.82356 0.83363,1.79114 1.10399,2.40001c0.35048,0.78931 0.57784,1.80334 0.60617,2.65717c0.03198,0.96365 0.0045,1.76816 0.0045,2.59016c0,1.03101 0,1.911 0,2.786c0,0.79201 0,1.82834 0,2.62834c0,0.95982 0,1.77432 0,2.64284c0,0.89549 0,1.79549 0,2.69548c0,0.60001 0,1.80133 0,2.41068c0,0.9465 0,1.95599 0,2.67334c0,1.116 -0.00105,1.86334 0,2.94934c0.00067,0.68265 0.00002,1.66815 0.05716,2.31934c0.12054,1.37369 0.29684,2.11417 0.46367,2.90982c0.08817,0.42053 0.28954,1.30771 0.57918,2.78018c0.10321,0.52472 0.29982,1.608 0.39999,2.15732c0.19965,1.09473 0.28941,1.63409 0.60001,3.15717c0.09669,0.47418 0.29912,1.38171 0.5,2.25751c0.19913,0.86819 0.40242,1.75146 0.59999,2.66934c0.2025,0.9408 0.29759,1.4165 0.5,2.36331c0.29646,1.38678 0.40086,1.83148 0.60001,2.70901c0.20087,0.88513 0.40437,1.80978 0.5,2.29834c0.31444,1.60657 0.40096,2.19717 0.49998,2.80331c0.10095,0.61786 0.29907,1.86615 0.40002,2.48401c0.09903,0.60614 0.39651,2.29419 0.5,2.802c0.19348,0.94934 0.397,1.82474 0.59998,2.65201c0.29568,1.20523 0.50159,2.00809 0.70001,2.82483c0.1008,0.41498 0.30728,1.26288 0.59982,2.59998c0.20068,0.91727 0.29376,1.3717 0.46417,2.24585c0.15451,0.7926 0.37885,2.19568 0.436,2.59167l0,-0.86902" id="svg_13" stroke-width="2" stroke="#000" fill="none"/>
  <path t="21607,21614,21614,21614,21614,21614,21614,21622,21622,21622,21622,21622,21639,21639,21639,21653,21654,21654,21654,21670,21670,21670,21670,21670,21688,21688,21688,21688,21688,21704,21704,21704,21704,21720,21720,21720,21737,21738,21738,21738,21753,21753,21753,21753,21754,21771,21771,21771,21787,21787,21787,21803,21803,21820,21820,21820,21837,21838,21853,21853,21870,21887,21887,21903,21920,21937,21953,21954,21970,22094,22134,22222,22238,22238,22261,22271,22287,22303,22320,22320,22337,22337,22353,22370,22370,22370,22386,22386,22386,22403,22403,22420,22420,22420,22439,22440,22454,22454,22471,22471,22471,22487,22487,22504,22504,22504,22521,22521,22537,22537,22554,22554,22554,22571,22571,22571,22587,22587,22587,22604,22604,22604,22621,22621,22637,22637,22654,22671,22671,22687,22717,22725,22737,22753,22770,22770,22787,22787,22787,22804,22804,22804,22820,22820,22820,22836,22836,22836,22853,22853,22870,22870,22870,22886,22886,22886,22903,22903,22920,22920,22936,22953,22953,22970,22970,22986,22986,22986,23003,23003,23003,23020,23020,23036,23036,23053,23053,23070,23086,23086,23105,23120" d="m202,244c2.66667,13.16666 2.85454,14.06403 3.02933,14.86133c0.29454,1.3436 0.42447,1.91061 0.66167,2.88916c0.30322,1.25092 0.505,2.04788 0.709,2.82819c0.19617,0.75034 0.37718,1.45834 0.70001,2.37866c0.28033,0.79916 0.62442,1.5397 1.00017,2.68567c0.21864,0.66681 0.40826,1.40259 0.657,2.16599c0.39017,1.19748 0.72345,1.99243 1.06816,2.79102c0.17297,0.40073 0.5489,1.18942 1.008,2.39999c0.30042,0.79218 0.53403,1.59174 0.79201,2.36401c0.25156,0.75305 0.68233,1.82147 1.02733,2.47882c0.50232,0.95709 0.89047,1.54242 1.326,2.45715c0.4227,0.88779 0.60985,1.5173 1.188,2.70001c0.2986,0.61084 0.67435,1.20215 1.008,1.836c0.6916,1.31384 0.94974,2.04343 1.18933,2.77866c0.23494,0.72095 0.41266,1.42358 0.83467,2.616c0.26669,0.75354 0.56419,1.44354 0.71733,2.45334c0.123,0.81104 0.0858,1.65228 0.37067,2.63068c0.19896,0.68335 0.87056,1.69308 1.3615,2.28082c0.48137,0.57626 1.12198,1.37842 1.40001,2.15717c0.31947,0.89481 0.57645,1.60226 0.9265,2.61136c0.29187,0.8414 0.86095,1.27069 1.72533,1.68866c0.81836,0.39572 1.08449,1.32333 1.5215,2.04715c0.4368,0.72348 1.41963,0.95386 1.8625,1.70151c0.41441,0.69962 0.7469,1.55127 1.2,2.39868c0.3486,0.65198 0.70334,1.50009 0.716,2.39999c0.01266,0.90015 0.53526,1.60629 0.87849,2.50015c0.28474,0.74155 0.12866,1.72522 0.12151,2.41583c-0.01042,1.005 -0.22237,2.02655 -0.42534,2.74533c-0.22314,0.79016 -0.48152,1.81421 -0.53867,2.50269c-0.06909,0.83252 0.005,1.84451 -0.09315,2.69315c-0.1124,0.97156 -0.386,1.76358 -0.59018,2.59018c-0.25339,1.02576 -0.34224,1.91083 -0.35266,2.78601c-0.00986,0.82794 -0.02901,1.71054 0.02083,2.6875c0.04071,0.79803 0.26273,1.79398 0.47917,2.45831c0.33266,1.02106 0.42427,1.82935 0.584,2.62085c0.20485,1.01498 0.57813,1.57751 0.79449,2.60016c0.17114,0.80893 0.12151,1.96649 0.12151,2.7525c0,0.82199 0,1.88068 0,2.59467c0,0.67801 0.01729,1.87442 -0.01067,2.67801c-0.02863,0.82281 -0.19501,1.858 -0.41467,2.53867c-0.27145,0.84109 -0.45517,1.84399 -0.62733,2.57883c-0.21738,0.92783 -0.76909,1.5195 -0.91133,2.48251c-0.14738,0.9978 -0.04671,1.87021 -0.036,2.77466c0.01042,0.87933 0.67815,1.08371 1.47917,1.42084c0.7406,0.31171 1.40294,0.95993 2.20883,0.97781c0.99709,0.02213 1.83282,0.00134 2.4165,0.00134c1.19533,0 2.08482,0 2.93832,0c1.03583,0 1.73184,0 2.64117,0c1,0 1.81599,0.00055 2.63199,0c0.99867,-0.00067 1.88531,0.02399 2.68401,-0.16666c0.82768,-0.19757 1.67696,-0.59702 2.68401,-0.74933c0.81108,-0.12268 1.64645,-0.10599 2.62933,-0.36801c0.65724,-0.1752 1.65865,-0.65378 2.48532,-0.71466c0.83508,-0.06152 1.85851,-0.00134 2.60585,-0.00134c0.99548,0 1.7955,0 2.79565,0c0.82068,0 1.48517,0 2.48383,0c0.81601,0 1.63202,0 2.85886,0c0.64648,0 1.66452,0.0896 2.62115,-0.03601c0.82822,-0.10873 1.45682,-0.75613 2.24667,-1.35333c0.69934,-0.52875 1.56848,-0.61066 2.41867,-0.896l0.16931,-0.91467" id="svg_14" stroke-width="2" stroke="#000" fill="none"/>
  <path t="23764,23774,23774,23774,23774,23788,23805,23805,23822,23822,23837,23837,23853,23853,23853,23853,23870,23870,23886,23886,23886,23903,23903,23903,23920,23920,23920,23936,23936,23953,23953,23970,23970,23986,23986,24003,24003,24020,24036,24036,24053,24053,24053,24070,24070,24086,24086,24133,24141" d="m263,309c0.00015,10.98483 -0.02472,11.54599 0.01068,12.42932c0.04303,1.07376 0.52823,1.87585 0.86798,2.67084c0.31897,0.74631 0.55164,1.73856 0.82584,2.30435c0.48547,1.00174 0.81998,1.60596 1.2955,2.76215c0.21097,0.51297 0.48831,1.33774 0.79999,2.14935c0.38565,1.0043 0.69736,1.66446 1.20001,2.68399c0.2984,0.60529 0.7175,1.45007 1.10001,2.42133c0.31445,0.79846 0.47833,1.36176 0.89999,2.41202c0.28546,0.711 0.66312,1.53046 1.29999,2.414c0.47336,0.65671 1.05914,1.38342 1.34283,2.15717c0.35535,0.96918 0.31329,1.81158 0.57852,2.79532c0.16238,0.60229 0.53583,1.65704 0.80399,2.3895c0.31406,0.85788 0.87146,1.56891 0.95383,2.43152c0.09308,0.97495 0.07709,1.78824 -0.06448,2.57916c-0.1824,1.01892 -0.48935,1.60001 -0.79318,2.59982l-0.10065,0.77933l-0.02084,1.13284l0,0.34634" id="svg_15" stroke-width="2" stroke="#000" fill="none"/>
  <path t="25275,25342,25366,25382,25394,25394,25403,25420,25435,25452,25452,25470,25485,25486,25486,25502,25503,25520,25520,25535,25535,25553,25570,25570,25570,25585,25585,25585,25603,25603,25603,25619,25619,25619,25636,25636,25636,25636,25652,25653,25653,25670,25670,25670,25670,25685,25685,25686,25686,25702,25702,25702,25719,25720,25720,25720,25720,25736,25736,25736,25736,25753,25753,25753,25753,25770,25770,25770,25770,25786,25786,25786,25786,25786,25802,25803,25803,25803,25820,25820,25820,25820,25835,25835,25836,25836,25853,25853,25853,25869,25870,25870,25886,25886,25886,25903,25903,25903,25920,25920,25920,25936,25936,25936,25952,25969,25970,25985,25985,26002,26019,26019,26037,26037,26052,26069,26085,26085,26085,26102,26102,26102,26119,26119,26135,26135,26135,26152,26152,26169,26169,26169,26185,26186,26186,26202,26202,26219,26219,26219,26235,26252,26252,26269,26269,26270,26286,26286,26302,26302,26320,26335,26335,26352,26370,26385,26402,26419,26420,26435,26453,26470,26485,26485,26486,26502,26503,26519,26520,26535,26536,26536,26552,26552,26552,26570,26570,26585,26586,26602,26602,26620,26620,26635,26636,26653,26653,26670,26670,26685,26685,26686,26702,26721,26778,26782,26805,26805" d="m276,225c1.70001,0.05716 2.55234,0.48129 2.94733,1.3c0.41754,0.86545 0.47269,1.68587 1.13669,2.41466c0.5434,0.59639 1.42114,0.80089 2.116,1.48534c0.60449,0.59544 1.25122,1.17268 1.79999,1.96667c0.44333,0.64145 0.81052,1.42947 1.2955,2.42883c0.27448,0.56563 0.57004,1.53329 0.78851,2.2885c0.27826,0.96185 0.63113,1.63225 0.91599,2.616c0.2858,0.98692 0.52612,1.55022 0.88666,2.18666c0.573,1.01152 1.1178,1.81053 1.46066,2.36067c0.63953,1.02615 1.0369,1.71782 1.34818,2.40533c0.43301,0.95642 0.70752,1.78229 0.90451,2.358c0.40622,1.18721 0.5928,1.79048 0.89999,2.6685c0.29315,0.83792 0.70773,1.83493 1,2.54166c0.30817,0.74518 0.60861,1.61951 0.89999,2.64052c0.20612,0.72229 0.39413,1.45767 0.69983,2.51715c0.19199,0.66541 0.48798,1.60544 0.61484,2.22018c0.24667,1.19528 0.26309,1.82233 0.28085,2.81564c0.01999,1.11884 0.00449,1.95367 0.00449,2.83633c0,0.44934 0,1.34399 0,2.616c0,0.76401 0,1.8125 0,2.48151c0,1.01849 0,2.10449 0,2.85184c0,0.74734 0,1.83334 0,2.51733c0,1.00351 -0.00092,1.6925 0,2.81601c0.00067,0.83466 0.00201,1.71759 0.03601,2.616c0.01685,0.4455 0.09412,1.72412 0.32117,2.84082c0.14111,0.69397 0.35355,1.35623 0.64282,2.3765c0.20303,0.71613 0.49487,1.83008 0.64282,2.58069c0.21326,1.08176 0.26877,1.76639 0.35718,2.711c0.08005,0.85535 0.26575,1.86472 0.52084,2.54166c0.26068,0.69177 0.68527,1.68317 0.97916,2.52084c0.20425,0.58218 0.59741,1.77988 0.79999,2.37466c0.29623,0.86981 0.68637,1.94376 1,2.64734c0.38348,0.86023 0.81213,1.65152 1.20001,2.478c0.30975,0.66 0.71262,1.65707 0.97916,2.45831c0.2486,0.74728 0.49225,1.70975 0.52084,2.6875c0.02435,0.83298 0,1.66669 0,2.52884c0,0.94049 0,1.78983 0,2.70901c0,0.99417 0.15948,1.77322 -0.00134,2.70883c-0.14465,0.84158 -1.02628,1.37289 -1.29865,1.95364c-0.33475,0.71375 -0.68637,1.77228 -1,2.47586c-0.38348,0.86023 -0.80002,1.65717 -1.20001,2.45715c-0.5,1 -0.85352,1.57724 -1.14282,2.39999c-0.34387,0.97794 -0.31097,1.81674 -0.57867,2.80017c-0.16998,0.62436 -0.59988,1.47742 -0.97717,2.48383c-0.20148,0.53741 -0.49127,1.3537 -0.67999,2.3945c-0.16214,0.89423 -0.2627,1.93027 -0.54666,2.71085c-0.26715,0.73434 -0.53766,1.58536 -0.57483,2.53217c-0.03491,0.88919 -0.21497,1.88068 -0.42517,2.47849c-0.28235,0.80301 -0.54205,1.79877 -0.57019,2.60001c-0.03506,0.99808 0.12659,1.77255 -0.00897,2.84283c-0.11108,0.87717 -0.80536,1.41129 -0.98483,2.35718c-0.16779,0.88428 -0.1272,1.80814 -0.0062,2.69998c0.11142,0.82135 0.66769,1.51834 1.02084,2.30002c0.36633,0.81085 1.19196,1.26105 2.14133,1.56665c0.68307,0.21988 1.41989,0.62866 2.43335,0.77618c0.79337,0.11548 1.80133,0.05716 2.63599,0.05716c0.93066,0 1.71875,0.03018 2.53867,-0.03601c1.06326,-0.08585 1.75809,-0.34766 2.62085,-0.61133c0.99286,-0.30344 1.77017,-0.29617 2.72049,-0.354c0.77115,-0.04694 1.7016,-0.47809 2.48532,-0.71466c0.98044,-0.29596 1.79868,-0.28174 2.79736,-0.284c0.76532,-0.00171 1.71732,0 2.48532,0c0.96268,0 1.80267,0 2.79868,0c0.79648,0 1.54797,0 2.64532,0c0.87201,0 1.77182,-0.00015 2.58667,-0.28534l0.08533,-0.91599l0,-0.68402" id="svg_16" stroke-width="2" stroke="#000" fill="none"/>
  <path t="27966,27989,27990,27997,27997,28022,28038,28038,28038,28054,28054,28054,28070,28070,28086,28086,28086,28103,28103,28103,28103,28103,28120,28120,28120,28120,28120,28136,28136,28136,28136,28153,28153,28153,28170,28170,28170,28170,28186,28186,28186,28203,28203,28220,28220,28220,28236,28236,28236,28253,28253,28270,28270,28270,28286,28286,28303,28303,28303,28320,28320,28336,28336,28336,28336,28353,28353,28353,28353,28353,28370,28370,28370,28386,28386,28386,28386,28386,28403,28403,28403,28403,28403,28420,28420,28420,28420,28436,28436,28436,28436,28453,28453,28453,28453,28453,28470,28470,28470,28470,28470,28471,28486,28486,28486,28486,28486,28503,28503,28503,28503,28503,28503,28520,28520,28520,28520,28536,28536,28536,28537,28537,28553,28553,28553,28553,28553,28554,28570,28570,28570,28570,28570,28570,28571,28586,28586,28586,28586,28586,28603,28603,28603,28620,28620,28620,28620,28620,28636,28636,28636,28653,28653,28653,28670,28670,28670,28670,28686,28686,28703,28703,28703,28720,28720,28720,28720,28736,28736,28753,28753,28753,28770,28771,28771,28786,28786,28786,28803,28803,28803,28820,28820,28820,28836,28836,28836,28853,28853,28870,28870,28870,28870,28886,28886,28886,28903,28903,28921,28921,28936,28936,28936,28953,28953,28970,28970,28986,29003,29020,29020,29020,29036,29036,29053,29070,29070,29086,29086,29103,29103,29120,29120,29136,29136,29153,29153,29173,29173,29186,29203" d="m317,154c1.19867,4.228 1.65524,5.11382 1.87851,5.9785c0.20721,0.8026 0.12271,1.70164 0.34299,2.56433c0.18552,0.72653 0.4671,1.51527 0.87833,2.53568c0.3653,0.90645 0.66385,1.51003 0.8475,2.5215c0.14417,0.79391 0.32599,1.80933 0.59433,2.46249c0.3288,0.80035 0.78662,1.79898 1.10651,2.60451c0.17029,0.42883 0.51553,1.32146 0.7825,2.25166c0.26059,0.90796 0.4147,1.79425 0.508,2.64532c0.0903,0.8239 0.11121,1.63892 0.28284,2.83568c0.11398,0.79474 0.27969,1.5639 0.483,2.286c0.3609,1.28192 0.70694,2.05922 0.99551,2.81967c0.31244,0.82336 0.60492,1.79756 0.77914,2.49466c0.17307,0.6924 0.40213,1.95668 0.49551,2.728c0.08026,0.66273 0.28336,1.68365 0.63599,2.472c0.45465,1.0164 0.80276,1.60461 1.08936,2.25717c0.41965,0.95554 0.71249,1.75029 0.94281,2.533c0.30402,1.03323 0.37775,1.82347 0.64252,2.77916c0.21027,0.75894 0.50589,1.55208 0.91333,2.54533c0.27374,0.66731 0.6503,1.68272 0.776,2.48534c0.12494,0.79771 0.40573,1.79543 0.60001,2.43599c0.35526,1.17146 0.38519,1.72948 0.41464,2.64667c0.02213,0.68906 0.01068,1.86 0.01068,2.72267c0,0.89467 0,1.78934 0,2.22667c0,1.59866 0,2.30667 0,2.98267c0,1.35201 -0.00601,2.07213 0.01068,2.832c0.01758,0.80022 0.05914,1.64157 0.15598,2.52c0.10117,0.91792 0.25897,1.84795 0.40802,2.77199c0.07281,0.45148 0.27573,1.72639 0.34,2.492c0.08786,1.04681 0.08307,1.7175 0.08533,3.09084c0.00119,0.73567 0,1.49933 0,2.283c0,1.1955 0,1.99817 0,2.81683c0,0.85066 0,1.293 0,2.71199c0,1.03467 0,1.57201 0,2.66667c0,0.54933 0,1.09467 0,2.66667c0,0.96399 0,1.42349 0,2.3125c0,0.86899 0,2.1875 0,3.10483c0,0.46867 0,1.416 0,2.36333c0,0.46867 0,1.83118 0,2.6955c0,0.83633 0,1.65268 0,2.85718c0,0.80133 0,1.61066 0,2.436c0,0.84933 0,2.18582 0,2.65201c0,0.96933 0,1.47449 0,2.53082c0,0.55316 0,2.32367 0,2.94785c0,0.63416 0,1.27332 0,2.54666c0,0.62415 0,1.23334 0,2.922c0,0.50732 0,1.44598 0,2.29666c0,0.77866 0.00961,2.18423 -0.01068,2.84265c-0.03018,0.97867 -0.14658,1.99359 -0.27332,2.70935c-0.13159,0.74313 -0.30826,1.48752 -0.43201,2.23199c-0.23169,1.39359 -0.26202,2.04764 -0.27951,2.97949c-0.02261,1.20428 -0.00449,1.8045 -0.00449,2.7045c0,1.20001 0,1.79868 0,2.67917c0,0.83551 0,1.83551 0,2.71017c0,1.01102 0,1.85233 0,2.58133c0,0.87201 0,1.88 0,2.57867c0,0.68268 -0.00006,1.88 0,2.82935c0.00009,1.02148 -0.0126,1.84625 0.08533,2.50665c0.14938,1.00748 0.41525,1.82193 0.716,2.63068c0.37497,1.00833 0.68304,1.6861 1.08401,2.28265c0.70572,1.04999 1.15552,1.3924 1.63065,2.08667c0.65759,0.96088 0.96387,1.81439 1.1795,2.362c0.40582,1.03064 0.80295,1.93259 1.10449,2.55133c0.49298,1.0116 0.8287,1.659 1.03336,2.73468c0.11957,0.62857 0.15277,1.66653 0.16217,2.36133c0.01709,1.26221 0.00449,2.03333 0.00449,2.69632c0,1.009 0,1.80902 0,2.80917c0,0.82068 0,1.96649 0,2.74802c0,0.7905 0,1.71848 0,2.66647c0,0.86935 0,1.73267 0,2.62817c0,0.9585 0,1.92383 0,2.59317c0,0.76532 0.00974,1.75955 0,2.67868c-0.01044,0.98547 -0.17145,1.8313 -0.61066,2.65997c-0.4407,0.83151 -1.00656,1.39828 -1.58936,2.02667c-0.61871,0.66711 -1.04337,1.49527 -1.55716,2.146c-0.65439,0.82877 -1.20828,1.20297 -2.2215,1.53134c-0.75467,0.24457 -1.66949,0.47852 -2.31149,0.82584l-0.689,0.77466l-0.59552,0.54617" id="svg_17" stroke-width="2" stroke="#000" fill="none"/>
  <path t="30587,30593,30593,30593,30593,30593,30609,30609,30609,30621,30621,30638,30638,30653,30653,30670,30670,30686,30686,30703,30703,30719,30719,30736,30736,30753,30753,30753,30769,30769,30786,30786,30803,30819,30819,30836,30836,30853,30853,30853,30869,30869,30869,30886,30886,30903,30903,30919,30919,31013,31013" d="m279,227c-1.76801,2.33733 -2.00974,2.71249 -2.5,3.52083c-0.49915,0.82297 -0.74255,1.2225 -1.35699,2.31467c-0.47928,0.8519 -0.84393,1.5461 -1.34167,2.56317c-0.37277,0.76173 -0.64188,1.58957 -0.854,2.354c-0.25482,0.91824 -0.65875,1.6367 -0.86331,2.64732c-0.16019,0.7914 -0.25003,1.82347 -0.60486,2.57918c-0.41626,0.88652 -1.01645,1.49443 -1.47916,2.1875c-0.42484,0.63634 -0.74738,1.69662 -1.06134,2.45866c-0.3024,0.73399 -0.97852,1.37976 -1.45599,1.976c-0.62274,0.77763 -1.02176,1.59642 -1.58267,2.37717c-0.46057,0.64108 -1.20715,1.31439 -1.89999,2.0215c-0.50528,0.5157 -1.06534,1.34421 -1.52084,2c-0.60147,0.86591 -1.14297,1.23764 -1.88367,1.75266c-0.80286,0.55823 -1.38315,1.08722 -1.99548,1.59467c-0.78448,0.65015 -1.60513,1.09146 -2.43335,1.65268c-0.68987,0.46747 -1.33333,1 -1.99199,1.39999l-1.008,0.60001l-0.60417,0.47916" id="svg_18" stroke-width="2" stroke="#000" fill="none"/>
  <path t="32466,32581,32587,32628,32636,32636,32655,32668,32668,32668,32688,32688,32705,32705,32722,32722,32738,32738,32755,32755,32755,32805,32805,32833,32833,32842,32857,32877,32897,32909,32925,32925,32941,32953,32968,32985,32985,33005,33018,33035,33035,33055,33068,33068,33088,33088,33102,33102,33121,33135,33136,33153,33169,33189,33217,33217,33261,33305,33329,33353,33362,33381,33397,33413,33421,33436,33453,33453,33471,33471,33488,33489,33502,33503,33503,33521,33521,33521,33521,33535,33535,33536,33552,33552,33552,33568,33568,33568,33585,33585,33585,33602,33602,33603,33603,33603,33618,33619,33619,33619,33635,33636,33636,33636,33652,33653,33653,33653,33668,33668,33668,33669,33685,33686,33686,33686,33686,33702,33702,33702,33718,33719,33719,33719,33735,33735,33735,33735,33736,33752,33752,33752,33753,33769,33769,33769,33785,33785,33786,33786,33802,33802,33802,33803,33818,33819,33819,33835,33835,33835,33852,33852,33868,33868,33868,33885,33885,33886,33902,33902,33902,33918,33918,33918,33935,33936,33952,33953,33968,33968,33985,33985,33985,34002,34003,34018,34018,34035,34035,34052,34052,34068,34069,34085,34085,34102,34102,34118,34119,34119,34136,34152,34152,34153,34168,34168,34185,34185,34185,34202,34203,34218,34218,34236,34236,34236,34253,34253,34268,34269,34269,34285,34285,34302,34318,34626,34778,34806,34806,34838,34854,34866,34882,34890,34903,34920,34937,34937,34954,34954,34954,34970,34970,34987,34987,34987,35004,35004,35004,35020,35020,35036,35037,35053,35054,35054,35070,35070,35086,35087,35087,35104,35104,35104,35119,35120,35120,35137,35137,35154,35154,35154,35169,35170,35186,35187,35187,35204,35204,35204,35220,35220,35220,35237,35237,35237,35254,35254,35269,35269,35269,35269,35285,35286,35286,35302,35303,35303,35318,35337,35369,35397,35417,35417,35421,35436,35452,35468,35485,35486,35486,35502,35503,35503,35518,35519,35536,35536,35536,35536,35552,35553,35553,35569,35569,35585,35586,35586,35602,35603,35603,35633,35634,35634,35661,35705,35721,35745,35757,35758,35777,35787,35804,35819,35819,35819,35836,35853,35853,35853,35870,35870,35870,35886,35886,35903,35903,35903,35919,35919,35937,35937,35953,35973,35989,35989,36003,36003,36023,36023,36036,36056,36057,36072,36089,36089,36089,36103,36122,36139,36139,36181" d="m150,84c-1,1 -1.6123,1.35667 -2.28534,1.916c-0.66914,0.5561 -1.37955,0.82629 -2.12532,1.484c-0.72388,0.6384 -1.43098,0.97306 -2.10535,1.4c-0.75066,0.47525 -1.34785,1.1063 -2.14116,1.84817c-0.54016,0.50513 -1.32829,1.06504 -2.13217,1.2905c-1.0289,0.28857 -1.7422,0.56403 -2.31084,1.38284c-0.46552,0.67031 -0.75972,1.29954 -1.38249,2.07716c-0.47749,0.59623 -1.31348,1.39345 -1.496,2.19067c-0.21791,0.95173 -0.6653,1.46531 -1.10533,2.212c-0.41284,0.70054 -0.74693,1.55128 -1.2,2.39867c-0.3486,0.65201 -0.52534,1.52807 -0.752,2.4c-0.22502,0.86567 -1.17236,1.4173 -1.60684,2.1c-0.46596,0.73213 -0.22186,1.76617 -0.6425,2.5c-0.39355,0.68656 -1.33226,1.26565 -1.59316,2.12134c-0.25096,0.82309 -0.02862,1.81092 -0.20683,2.56267c-0.23171,0.97743 -0.7243,1.62629 -1.304,2.48c-0.4965,0.73119 -0.73413,1.4131 -1.18533,2.236c-0.42776,0.78014 -0.28879,1.75664 -0.70933,2.6c-0.32993,0.66165 -0.71375,1.49999 -0.716,2.4c-0.00225,0.9 -0.06696,1.74356 -0.57467,2.42533c-0.47721,0.64081 -0.42533,1.57467 -0.42533,2.47467c0,0.89999 0.05437,1.80173 -0.00134,2.70134c-0.04259,0.68781 -0.47847,1.61613 -0.71467,2.39999c-0.29673,0.98476 -0.27866,1.63463 -0.284,2.82016c-0.00366,0.81448 0,1.38918 0,2.57851c0,0.89999 0,1.5 0,2.39999c0,1.19867 0,1.78934 0,2.64284c0,1.27316 0,1.95717 0,2.64117c0,1.27316 0,1.83682 0,2.71733c0,1.20132 0,1.81999 0,2.813c0,1.11899 0,1.95366 0,2.83632c0,0.44934 0,1.34401 0,2.61601c0,0.76399 0,1.472 0,2.48149c0,1.01851 0,1.73584 0,2.85184c0,0.74733 0,1.83333 0,2.51466c0,0.96451 0,1.58084 0,2.78568c0,0.92099 0,1.57166 0,2.27032c0,1.172 0,2.03467 0,2.92934c0,0.89467 -0.00999,1.33205 0.00134,2.92934c0.00496,0.69872 -0.02334,1.35693 0.16533,2.57066c0.14252,0.91682 0.3505,1.53815 0.48067,2.21434c0.21442,1.11389 0.27311,1.95337 0.32734,2.83632c0.05518,0.89842 0.06857,1.78661 0.24667,3.00635c0.10697,0.73262 0.30117,1.39642 0.49467,2.34033c0.1842,0.89851 0.24088,1.80438 0.33666,2.70267c0.09618,0.90207 0.29729,1.80646 0.46817,2.42082c0.26917,0.96773 0.5851,1.99872 0.77467,2.72734c0.18978,0.72943 0.39496,1.43407 0.583,2.709c0.11471,0.77774 0.11925,1.491 0.1215,2.72684c0.00149,0.81599 0,1.36333 0,2.63199c0,0.68401 0,1.85068 0,2.63667c0,0.82201 0,1.88066 0,2.59467c0,0.90533 0,1.87416 0,2.68866c0,0.86852 0,1.76401 0,2.65501c0,0.83699 0,1.77567 0,2.72366c0,0.87067 0,1.59599 0,2.58533c0,0.8 0,1.8 0,2.60001c0,0.8 0,1.8 0,2.59999c0,0.99867 0,1.94284 0,2.85184c0,0.7175 -0.00005,1.75351 0,2.4975c0.00008,1.10783 -0.00877,1.87936 0.284,2.73601c0.2527,0.73941 0.58882,1.71558 0.716,2.51466c0.15935,1.00119 0.38856,1.81525 0.80133,2.51466c0.5295,0.8972 1.02779,1.65298 1.18401,2.32133c0.17915,0.76648 0.72131,1.76656 1.2,2.364c0.64372,0.80344 1.07629,1.38966 1.51016,2.2c0.42307,0.79018 0.7567,1.60902 1.3045,2.43333c0.46124,0.69405 1.11497,1.47983 1.5,2.1875c0.31229,0.57399 0.8,1.57918 1.10001,2.17917c0.5,1 0.89891,1.80055 1.2,2.40001c0.4982,0.99191 0.90103,1.68457 1.58932,2.33865c0.6116,0.58121 1.15385,1.26462 1.48917,2.16135c0.31808,0.85065 0.12151,1.69998 0.12151,2.60001c0,0.89999 0,1.79999 0,2.69998c0,0.89999 0,1.80002 0,2.70001c0,0.89999 0,1.71432 0,2.66934c0,0.7515 0,1.54797 0,2.54532c0,0.87466 0,1.8855 0,2.70618c0,0.66449 -0.0211,1.664 0.02083,2.47916c0.04204,0.81747 0.2758,1.81058 0.55383,2.68933c0.31836,1.0062 0.41492,1.81052 0.42534,2.81067c0.00833,0.79996 0,1.60001 0,2.60449c0,0.6315 0,1.81683 0,2.62085c0,0.82199 0,1.85333 0,2.54932c0,0.90933 0,1.90933 0,2.72534c0,0.81601 -0.06052,1.81931 0.036,2.68933c0.1133,1.02127 0.44044,1.5939 0.68001,2.41068c0.28983,0.98816 0.28174,1.85715 0.284,2.82132c0.00188,0.80402 -0.01147,1.62607 0.00017,2.65735c0.01041,0.92151 0.05664,1.61139 0.28383,2.60666c0.19205,0.84134 0.4198,1.40961 0.5945,2.61432c0.12675,0.87402 0.0847,1.68668 0.12283,2.73367c0.03024,0.83047 0.22063,1.7309 0.35133,2.33368c0.22307,1.02875 0.39209,1.74762 0.526,2.81134c0.12238,0.97202 0.06937,1.58795 0.28801,2.655c0.19183,0.93622 0.66718,1.6554 0.8125,2.64581c0.1192,0.81241 0.02083,1.72086 0.02083,2.62085c0,0.89999 0,1.69998 0,2.60001c0,0.89999 0,1.79999 0,2.72131c0,0.91202 0,1.84 0,2.63049c0,1.02667 0,1.71219 0,2.54684c0,1.01035 0,1.91568 0,2.73468c0,0.97198 0,1.66666 0,2.36133c0,1.26233 0.00194,2.03333 0,2.90265c-0.00226,1.00717 -0.02025,1.86685 -0.22133,2.82419c-0.17259,0.82172 -0.46336,1.67603 -0.612,2.57849c-0.14661,0.8902 -0.16133,1.76398 -0.16667,2.83334c-0.00351,0.70499 0,1.505 0,2.53067c0,0.93597 -0.26518,2.01147 0.28534,2.55197c0.62082,0.60953 1.5302,0.76251 2.31467,1.10934c0.81802,0.36169 1.61812,0.83316 2.56667,1.14133c0.673,0.21866 1.32538,0.66925 2.35416,0.8125c1.01245,0.14096 1.74382,-0.00787 2.53101,0.078c1.03358,0.11273 1.91606,0.47839 2.54683,0.65884c0.99133,0.28363 1.85854,0.27542 2.82251,0.28415c0.79352,0.00717 1.60612,-0.073 2.6095,0.28384c0.75775,0.2695 1.62067,0.68613 2.48534,0.71466c0.96265,0.03177 1.93721,0.11337 2.68533,-0.284c0.75668,-0.40192 1.42931,-1.07413 2.20316,-1.35748c0.96783,-0.35437 1.75946,-0.35184 2.71017,-0.35718c0.88531,-0.00497 1.69145,0.07324 2.55733,-0.03601c0.88318,-0.11142 1.82249,-0.48361 2.56,-0.67999c0.94728,-0.25223 1.86801,-0.284 2.76801,-0.284l0.8,0l0.91466,-0.08533" id="svg_19" stroke-width="2" stroke="#000" fill="none"/>
  <path t="37681,37726,37739,37755,37772,37788,37805,37821,37821,37838,37838,37838,37853,37853,37869,37869,37869,37886,37886,37903,37903,37903,37903,37919,37919,37919,37936,37936,37936,37953,37969,37969,37986,37986,38003,38003,38019,38036,38036,38036,38054,38054,38069,38070,38070,38086,38086,38103,38103,38103,38119,38119,38136,38137,38153,38153,38169,38169,38186,38186,38203,38203,38203,38219,38219,38237,38237,38237,38253,38253,38269,38269,38287,38288,38288,38303,38303,38303,38319,38320,38336,38353,38353,38369,38386,38403,38419,38437,38457,38469,38486,38505,38534,38558,38626,38635" d="m155,218c0,1.8 0,2.7 0,3.60001c0,0.79999 -0.10692,1.70653 0.00133,2.59999c0.11148,0.92009 0.7365,1.59352 0.91335,2.56934c0.13451,0.74217 0.06557,1.54822 0.08665,2.54533c0.01851,0.87515 0.19487,1.89499 0.43468,2.48534c0.33099,0.8148 0.88553,1.79967 1.164,2.472c0.43401,1.04788 0.60176,1.69548 0.79999,2.37866c0.3027,1.04323 0.57661,2.02496 0.90001,2.83501c0.27998,0.70132 0.68626,1.52144 1.09999,2.30367c0.38727,0.73221 1.11723,1.50414 1.47867,2.31084c0.33182,0.74063 0.40535,1.60341 0.88301,2.24716c0.62741,0.84557 1.50993,1.12364 2.133,1.95717c0.57916,0.77481 0.80261,1.35997 1.45717,2.04283c0.75003,0.78246 1.2735,1.278 1.9695,1.974c0.504,0.504 1.20708,1.18254 1.79466,1.79601c0.65068,0.67934 1.20801,1.42343 1.70934,2.13333c0.35121,0.49734 0.98024,1.43924 1.53867,2.07733c0.70253,0.80273 1.24564,1.31113 2.12,1.87201c0.6718,0.43094 1.48595,0.9115 2.14134,1.39999c0.68723,0.51221 1.39075,0.90942 2.37466,1.39999c0.79623,0.397 1.38374,0.71152 2.40134,0.91599c0.82529,0.16583 1.76923,0.23502 2.54683,0.43668c0.7948,0.20612 1.91701,0.48941 2.6665,0.67267c0.88351,0.21603 1.61659,0.6123 2.552,0.80801c0.77676,0.16251 1.60796,0.16132 2.66666,0.16666c0.93066,0.0047 1.56262,-0.02893 2.56534,0.00134c0.94539,0.02856 1.77002,0.49542 2.60133,0.832c0.7572,0.30658 1.7,0.16666 2.60001,0.16666c0.89999,0 1.79999,-0.00067 2.7,0c0.89867,0.00067 1.43788,0.6102 2.136,0.96399c0.77136,0.3909 1.76399,0.03601 2.66383,0.03616l0.81349,0.2825l-0.43416,0.17569" id="svg_20" stroke-width="2" stroke="#000" fill="none"/>
  <path t="39323,39434,39435,39451,39471,39488,39502,39519,39519,39535,39535,39535,39551,39569,39569,39585,39586,39601,39601,39601,39619,39619,39636,39651,39651,39652,39668,39668,39685,39702,39702,39702,39718,39719,39719,39736,39736,39752,39752,39769,39769,39785,39786,39786,39801,39802,39802,39819,39819,39835,39836,39851,39851,39869,39869,39885,39886,39901,39902,39902,39902,39918,39918,39935,39936,39951,39969,39969,39969,39985,39986,40001,40002,40018,40019,40019,40036,40036,40036,40052,40052,40052,40069,40069,40069,40086,40102,40102,40102,40119,40119,40135,40135,40151,40151,40168,40168,40186,40186,40201,40201,40218,40218,40236,40236,40252,40252,40268,40333,40341" d="m174,262c1,1 1,1.79999 1,2.70001c0,0.89999 0.09792,1.80643 -0.01067,2.71066c-0.11145,0.92819 -0.57068,1.58615 -0.82266,2.58932c-0.19492,0.77597 -0.16534,1.51468 -0.16667,2.5c-0.00133,0.98532 0.03763,1.72733 -0.22133,2.70001c-0.21794,0.81863 -0.65965,1.79364 -0.74268,2.59998c-0.08203,0.79657 -0.03413,1.7955 -0.036,2.54285c-0.00226,0.90451 -0.17343,1.82123 -0.5,2.67801c-0.22058,0.57874 -0.47014,1.57339 -0.49867,2.49384c-0.03117,1.00568 -0.00133,1.81866 -0.00133,2.74664c0,0.7905 0,1.81717 0,2.71783c0,0.61951 0,1.62085 0,2.42084c0,1 0,1.80002 0,2.80002c0,0.79999 0,1.79999 0,2.61066c0,0.87466 0,1.87332 0,2.68933c0,0.81601 0,1.81467 0,2.68933c0,1.01068 0,1.81067 0,2.81067c0,0.78934 0,1.83334 0,2.62534c0,0.86267 0,1.65732 0,2.70801c0,0.63333 0,1.64581 0,2.30417c0,1.09814 -0.03741,1.96732 0.0045,3.01517c0.02785,0.69608 0.47064,1.54037 0.82883,2.51398c0.237,0.64417 0.24013,1.49313 0.87651,2.42883c0.41681,0.61285 1.30031,1.35452 1.76933,1.90451c0.66824,0.78357 1.03885,1.53357 1.32083,2.18668c0.42624,0.98721 0.70227,1.82819 0.84283,2.41782c0.28253,1.18515 0.31891,1.79022 0.3465,2.65952c0.03392,1.06885 -0.08171,2.00662 0.09599,2.74933c0.2178,0.91025 0.76888,1.8168 0.862,2.492c0.13594,0.9856 0.29797,1.84113 0.62733,2.60931c0.36852,0.85953 0.42497,1.80298 0.64667,2.58517c0.22569,0.7963 0.71162,1.77255 0.77417,2.55283c0.07228,0.90167 -0.00665,1.66995 0.2885,2.64603c0.23695,0.7836 0.66776,1.71417 0.71468,2.48532c0.05782,0.95032 0.03099,1.73398 0.35399,2.71149c0.25204,0.76279 0.59018,1.64734 0.64734,2.60184l0.05716,0.09366" id="svg_21" stroke-width="2" stroke="#000" fill="none"/>
  <path t="42511,42526,42526,42526,42526,42542,42542" d="m182,354c0,2.336 0,3.10132 0,3.89868l0,0.76532l0,1.19467l0,0.82333" id="svg_22" stroke-width="2" stroke="#000" fill="none"/>
  <path t="43615,43682,43688,43704,43721,43721,43736,43736,43736,43752,43752,43752,43752,43769,43769,43769,43769,43785,43785,43785,43785,43785,43801,43802,43802,43819,43819,43819,43819,43836,43836,43851,43852,43852,43869,43869,43869,43885,43885,43885,43901,43901,43902,43918,43918,43918,43935,43935,43952,43952,43952,43969,43969,43969,43985,43986,43986,44002,44002,44002,44018,44018,44035,44035,44051,44051,44051,44069,44069,44085,44086,44086,44101,44102,44119,44119,44136,44136,44152,44152,44152,44168,44186,44186,44202,44202,44219,44219,44236,44236,44252,44252,44269,44286,44302,44319,44336,44336,44352,44369,44386,44402,44419,44436,44452,44469,44469,44485,44486,44486,44502,44502,44519,44541,44626,44634" d="m205,267c0,1.79999 0,2.70001 0,3.52084c0,0.96448 0,1.68982 0,2.67966c0,0.862 -0.00266,1.65549 0.00017,2.66367c0.00223,0.79834 0.00098,1.65771 0.05699,2.535c0.08107,1.26962 0.21964,2.03296 0.36818,2.7395c0.14244,0.67749 0.42468,2.02628 0.48933,2.74533c0.06654,0.73999 0.07863,1.49063 0.084,2.23199c0.01013,1.39865 -0.02086,2.05023 0.05849,2.97949c0.07751,0.90781 0.29507,1.80014 0.5175,2.66852c0.14107,0.55072 0.38834,1.78226 0.41467,2.46133c0.04636,1.19513 0.00027,2.00137 0.04666,2.54932c0.08997,1.06293 0.41734,1.99146 0.61134,2.67801c0.27086,0.95853 0.30539,1.78558 0.40533,2.65182c0.13837,1.19922 0.3056,1.78961 0.52199,2.65952c0.26556,1.06766 0.32886,1.7854 0.47801,2.6315c0.17917,1.01642 0.52774,1.60495 0.78065,2.77115c0.16833,0.77618 0.12375,1.61938 0.33334,2.66669c0.14415,0.72034 0.45299,1.35168 0.93317,2.36682c0.3866,0.81729 0.67445,1.47507 0.81483,2.48383c0.11282,0.81073 0.08466,1.63202 0.08533,2.63068c0.00058,0.87466 -0.04736,1.888 0.02083,2.68533c0.08612,1.0069 0.43231,1.79044 0.62651,2.39999c0.31432,0.9866 0.31155,1.81537 0.57399,2.80017c0.22318,0.83746 0.54117,1.47696 0.69467,2.48251c0.12086,0.79172 0.22058,1.99634 0.50934,2.65598c0.37016,0.84558 0.56424,1.68204 0.57466,2.66135c0.00839,0.78931 0,1.51468 0,2.5c0,0.98532 0,1.71066 0,2.70001c0,0.79999 0,1.79999 0,2.58932c0,1.04401 0,1.836 0,2.86334c0,0.69464 0,1.71133 0,2.64731c0,0.90002 -0.18134,1.85349 0.16667,2.70001c0.27589,0.67108 0.49385,1.46286 0.84399,2.38934c0.27664,0.73199 0.99139,1.22025 1.69383,1.66333c0.7719,0.48691 1.59859,0.91873 2.46217,0.94733c0.85368,0.02826 1.83333,0 2.63333,0c0.8,0 1.79552,-0.00391 2.54283,0c1.02121,0.00534 1.85716,0.284 2.65717,0.83334l0.83333,0" id="svg_23" stroke-width="2" stroke="#000" fill="none"/>
 </g>
 <g display="none">
  <title>muse_image</title>
  <image xlink:href="http://farm1.static.flickr.com/113/311927821_448135b479.jpg" id="muse" height="426" width="640" y="27" x="0"/>
 </g>
 <g display="none">
  <title>bbox</title>
  <rect stroke="#f00" fill="none" stroke-width="3" height="362.03604" width="262.4" y="62.81982" x="176.64" id="bbox"/>
 </g>
</svg>
