<svg width="640" height="480" xmlns="http://www.w3.org/2000/svg" xmlns:svg="http://www.w3.org/2000/svg" xmlns:xlink="http://www.w3.org/1999/xlink">
 <!-- Sketchy ANNOTATION
  ImageNet ID: n02503517_6032
  URL: http://cimg2.163.com/catchpic/1/18/188540F0A8FA4466A6B416726BE91F32.jpg
  Image Width: 400
  Image Height: 268
  BBox X: 230
  BBox Y: 0
  BBox Width: 170
  BBox Height: 268
  Exposure: 2000ms
  Synset Label: elephant
  Synset ID: n02503517
  Worker Tag: an elephant
  Sanity Check: 
   Context
   Saved
   Shading
  Comment: 
   {}
  Worker ID: A1R959DUXT5S4I
  Assignment ID: 32UTUBMZ7GWMP9YET9ODU8YVOIABVQ
  HIT ID: 38F60IALAGH45ATL0WM7KPJ60L50TV
  Work Time: 107s
  Worker Score: 0.9286
 END ANNOTATION -->
 <g display="inline">
  <title>Layer 1</title>
  <path t="0,607,639,679,703,719,743,743,752,776,799,823,823,832,858,874,875,894,894,908,924,924,924,941,941,941,953,974,991,992,1015,1025,1047,1087,1103,1113,1143,1143,1159,1174,1191,1207,1221,1242,1242,1259,1279,1279,1303,1312,1312,1335,1351,1367,1367,1391,1423,1447,1463,1495,1519,1519,1529,1529,1559,1599,1647,1663,1711,1759,1783,1783,1815,1815,1855,1887,1903,1942,2191,2191,2887,2896,2926,2942,2959,2960,2980,2980,2980,2992,3009,3010,3025,3025,3025,3025,3037,3038,3038,3058,3058,3058,3075,3075,3076,3092,3092,3092,3108,3109,3109,3109,3109,3109,3125,3126,3142,3142,3143,3155,3156,3156,3156,3174,3175,3175,3175,3175,3196,3196,3196,3212,3212,3212,3212,3212,3232,3232,3232,3232,3233,3239,3239,3239,3239,3239,3239,3279,3280,3280,3280,3296,3296,3297,3297,3297,3312,3313,3313,3313,3313,3313,3321,3322,3322,3322,3322,3362,3362,3363,3363,3363,3363,3379,3380,3380,3380,3381,3381,3381,3382,3382,3411,3412,3412,3412,3412,3413,3413,3413,3430,3431,3431,3432,3432,3432,3432,3433,3462,3462,3463,3463,3463,3464,3464,3481,3482,3482,3482,3482,3482,3483,3483,3483,3497,3497,3498,3498,3498,3499,3499,3499,3500,3528,3529,3529,3529,3529,3537,3538,3538,3538,3582,3583,3583,3583,3597,3598,3598,3599,3599,3600,3629,3629,3630,3630,3630,3644,3645,3645,3646,3646,3661,3662,3662,3679,3679,3682,3688,3688,3688,3729,3729,3730,3745,3745,3746,3746,3746,3747,3760,3761,3761,3761,3794,3795,3795,3795,3818,3819,3819,3819,3820,3846,3846,3847,3847,3848,3848,3849,3859,3860,3860,3860,3881,3882,3882,3897,3898,3898,3913,3914,3928,3929,3929,3940,3940,3959,3959,3960,3977,3977,3978,3993,3994,3994,3994,4034,4034,4034,4050,4051,4051,4052,4052,4067,4068,4077,4078,4091,4092,4092,4124,4125,4145,4145,4146,4147,4155,4156,4181,4182,4182,4198,4198,4199,4213,4214,4223,4223,4224,4240,4241,4241,4260,4260,4343,4343,4361,4379,4395,4409,4429,4444,4479,4479,4489,4519,4543,4575,4575,4608,4631,4645,4659,4660,4679,4695,4696,4712,4725,4749,4763,4764,4779,4789,4813,4813,4814,4815,4829,4830,4831,4849,4850,4850,4863,4863,4864,4864,4864,4865,4883,4884,4900,4913,4914,4914,4922,4923,4950,4951,4952,4953,4979,4980,4980,4981,4982,4993,4994,4994,4995,4995,4996,4996,5006,5007,5007,5008,5008,5037,5037,5038,5038,5039,5039,5062,5063,5063,5064,5085,5086,5087,5112,5113,5114,5115,5115,5130,5132,5133,5134,5134,5135,5150,5151,5152,5169,5169,5170,5184,5185,5186,5206,5207,5231,5247,5264,5265,5266,5272,5296,5297,5298,5313,5314,5329,5339,5339,5360,5361,5373,5391,5415,5415,5420,5438,5462,5472,5498,5500,5514,5530,5532,5551,5552,5552,5567,5584,5598,5599,5630,5645,5645,5646,5664,5665,5666,5680,5681,5681,5697,5698,5791,5815,5832,5833,5855,5855,5866,5867,5887,5912,5932,5933,5940,5968,5983,5997,5998,6007,6033,6035,6071,6088,6112,6133,6133,6142,6169,6170,6196,6197,6197,6209,6210,6223,6240,6264,6295,6296,6319,6319,6337,6337,6360,6381,6398,6415,6427,6455,6495,6496,6527,6527,6558,6576,6600,6616,6648,6666,7031,7095,7112,7129,7148,7149,7165,7176,7195,7196,7197,7212,7213,7231,7232,7250,7251,7280,7281,7281,7399,7399,7400,7415,7416,7433,7434,7452,7454,7475,7476,7497,7498,7498,7517,7519,7520,7546,7555,7610,7630,7650,7651,7661,7679,7680,7735,7863,7863,7910,7929,7947,7959,7975,7992,7992,7993,8009,8026,8043,8044,8061,8088,8088,8104,8105,8129,8130,8183,8219,8255,8256,8310,8339,8438,8607,8652,8667,8687,8707,8730,8732,8750,8751,8769,8770,8776,8777,8794,8815,8815,8838,8871,8903,8921,8958,8974,9000,9024,9024,9039,9041,9065,9080,9102,9121,9167,9206,9207,9225,9261,9262,9287,9327,9350,9390,9423,9424,9435,9455,9479,9502,9503,9519,9550,9583,9584,9594,9615,9643,9666,9672,9705,9705,9750,9751,9769,9807,9854,9910,9974,10030,10087,10109,10134,10135,10190,10222,10254,10255,10273,10304,10406,10462,10479,10518,10536,10537,10566,10567,10590,10609,10639,10695,10695,10718,10735,10763,10784,10854,10855,10880,10896,10897,10914,10934,10962,10964,10985,11023,11038,11066,11083,11093,11108,11126,11127,11144,11145,11165,11195,11212,11214,11224,11225,11302,11334,11518,11519,11582,11630,11750,11751,11799,11822,11886,11982,12142,12167,12238,12326,12446,12447,12942,13078,13376,13440,13573,13574,13695,13783,13839,13895,13896,14103" d="m478.50348,179.88889c-1.70001,0 -2.60007,-0.00957 -3.5,0c-0.97934,0.01042 -1.49991,0.74141 -2.36136,0.964c-0.63602,0.16434 -1.5769,0.18013 -2.22266,0.752c-0.6546,0.57973 -0.95227,1.4209 -1.62048,1.92683c-0.69522,0.52638 -1.60934,0.69958 -2.2955,1.35716c-0.61264,0.58711 -1.20001,1.2 -1.80002,1.8c-0.61066,0.61066 -1.37274,1.36072 -1.85266,1.85716c-0.52878,0.54701 -1.32538,1.5428 -1.71133,2.12151c-0.43414,0.651 -1.30115,1.13054 -2.03601,1.65733c-0.78406,0.56206 -1.39258,1.21646 -1.57916,2.064c-0.19131,0.86908 -0.66714,1.30965 -1.41016,1.936c-0.63055,0.53156 -1.11047,1.30957 -1.48917,2.00682c-0.35831,0.65971 -0.12149,1.8 -0.12149,2.65718c0,0.89999 -0.33496,1.62799 -0.91736,2.18533c-0.70035,0.67021 -1.30856,1.00781 -1.83966,1.81467c-0.51254,0.77867 -0.24298,1.7 -0.24298,2.536c0,1.01666 0.15457,1.72479 -0.01068,2.728c-0.14294,0.86786 -0.9043,1.6234 -0.98801,2.436c-0.09219,0.89526 -0.00131,1.8 -0.00131,2.7c0,0.89999 0,1.8045 0,2.66667c0,0.83333 0,1.81183 0,2.63199c0,0.90134 0,1.80135 0,2.70134c0,0.89999 0,1.8 0,2.7c0,0.90016 0,1.68533 0,2.62534c0,0.69067 0.00449,1.78473 -0.42535,2.57466c-0.44824,0.82373 -0.57465,1.70001 -0.57465,2.60001c0,0.8 0.37143,1.80124 -0.03601,2.564c-0.39014,0.73039 -1.50757,0.81279 -1.84268,1.75751c-0.23727,0.66893 -0.2627,1.68724 -0.54666,2.46783c-0.26712,0.73431 -0.51611,1.72951 -0.85999,2.69733c-0.20187,0.56812 -0.7233,1.67679 -1.01468,2.4705c-0.20612,0.56145 -0.49234,1.44676 -0.80017,2.3425c-0.30298,0.88162 -0.56351,1.7542 -1.22116,2.55766c-0.44614,0.54503 -1.27341,1.0575 -1.79333,1.912c-0.43414,0.71353 -0.56644,1.2883 -0.9855,2.30983c-0.30023,0.73181 -0.67014,1.53995 -1.0665,2.58749c-0.32687,0.86395 -0.48602,1.33798 -0.8125,2.3125c-0.16174,0.48279 -0.49014,1.38901 -0.8515,2.7955c-0.20621,0.80264 -0.44601,1.71786 -0.711,2.28784c-0.33258,0.71539 -0.78693,1.577 -1.28366,2.6095c-0.17725,0.36841 -0.54999,1.12595 -1.008,2.328c-0.30121,0.7905 -0.52991,1.58258 -0.79199,2.328c-0.24792,0.7052 -0.85242,1.91046 -1.21066,2.43201c-0.55682,0.81064 -1.17853,1.73248 -1.56268,2.49332c-0.20465,0.40533 -0.59076,1.26334 -0.94415,2.14584c-0.50525,1.26169 -0.77673,2.0329 -1.03183,2.76083c-0.25421,0.72543 -0.50937,1.49332 -0.79202,2.34c-0.31735,0.95065 -0.48386,1.45422 -0.83331,2.47916c-0.17361,0.50922 -0.50586,1.4873 -0.97833,2.73535c-0.25455,0.67242 -0.61151,1.54205 -0.73502,2.13617c-0.28925,1.39142 -0.23611,1.8252 -0.28665,2.73267c-0.05496,0.98721 -0.0603,1.50815 -0.22153,3.13782c-0.05563,0.56235 -0.12689,1.12833 -0.29932,2.258c-0.08551,0.56018 -0.27335,1.65292 -0.47916,2.6875c-0.19202,0.96536 -0.39267,1.87134 -0.47919,2.3125c-0.1702,0.86777 -0.36816,2.18637 -0.43549,3.11417c-0.03558,0.49036 -0.06671,1.55249 -0.07468,2.13333c-0.00851,0.62082 -0.01065,2.77335 -0.01065,3.60117c0,0.87485 0,1.78369 0,2.7135c0,0.93784 0,1.87067 0,2.78552c0,0.88382 -0.00055,2.5065 0.00015,3.22333c0.00064,0.65784 0.00211,1.2677 0.0105,1.84048c0.00803,0.54688 0.01196,1.07938 0.07468,2.14136c0.06705,1.13559 0.13385,1.75369 0.19867,2.40533c0.13681,1.37512 0.21689,2.0834 0.29065,2.79733c0.07355,0.71173 0.15601,1.41345 0.25867,2.76532c0.09491,1.24973 0.11383,1.85086 0.13068,2.44534c0.03409,1.20245 0.03278,1.827 0.03467,2.47733c0.00412,1.41068 0.00134,2.18451 0.00134,3.00134c0,0.85281 0,1.73465 0,2.63849c0,0.91882 0,1.84567 0,2.7735c0,1.83066 0,2.72015 0,3.58667c0,0.84048 0,1.65201 0,2.43149c0,0.74451 0,1.45102 0,2.11652c0,1.19598 0,1.72198 0,2.64798c0,0.798 0,1.51602 0,2.90253c0,0.72699 -0.00003,1.45798 0,2.16898c0.00009,1.26785 0.00253,2.10223 0.03598,2.7045c0.0397,0.7153 0.18439,2.13342 0.24802,2.70935c0.06766,0.61212 0.21631,1.89597 0.29065,2.54401c0.07297,0.63596 0.26117,2.35175 0.30402,2.82367c0.07291,0.80295 0.13712,1.80923 0.20532,2.46164c0.12064,1.1539 0.26971,2.07794 0.35199,2.56802c0.16763,0.99854 0.32745,1.97232 0.664,3.21265c0.17993,0.66312 0.49811,1.44424 0.90002,2.28601c0.38748,0.81155 0.69537,1.4458 0.87881,2.42133c0.14987,0.79706 0.10284,1.67664 0.56451,2.6575c0.35672,0.7579 0.84189,1.19043 1.88998,2.25452c0.30701,0.31168 0.97202,0.97198 1.66669,1.66666c0.34933,0.34933 1.03384,1.03015 1.957,1.95715c0.52972,0.53195 1.23459,1.24625 1.64032,1.72552c0.83109,0.98169 1.21469,1.56305 1.63867,2.164c0.45078,0.63898 1.18314,1.67685 1.72565,2.41498c0.28369,0.38599 0.88354,1.1861 1.20001,1.60001c1.00043,1.3085 1.35919,1.75974 1.72101,2.22101c0.73138,0.93246 1.09863,1.39484 1.8075,2.3075c0.34152,0.4397 1.2692,1.66483 1.53784,2.03784c0.49402,0.68597 1.11798,1.59839 1.60532,2.40533c0.42468,0.70316 0.88297,1.58914 1.48801,2.36649c0.47638,0.61206 1.02487,1.14413 1.79468,1.91617c0.50861,0.51007 1.19531,1.21594 1.72,1.70932c0.75104,0.70618 1.55234,1.30927 2.164,1.65384c0.98233,0.55344 1.62341,0.78622 2.39999,1.27802c0.82733,0.52393 1.40503,1.09927 2.11432,1.64734c0.80127,0.61914 1.44885,1.00021 2.12567,1.38483c0.66995,0.38071 1.8765,1.01974 2.50201,1.46249c0.54929,0.38879 1.35315,1.08777 1.91132,1.51483c0.62796,0.48044 1.28421,0.9837 1.98001,1.38c1.16061,0.66104 1.90445,0.78647 2.9455,0.85349c0.83124,0.05353 1.78888,0.28952 2.54199,0.49985c0.79486,0.22198 1.802,0.37936 2.47919,0.52084c1.18225,0.24701 1.68399,0.54715 2.5,0.97916c0.81598,0.43201 1.81195,0.84338 2.47916,0.97916c1.01706,0.20697 1.82169,0.4772 2.478,0.66818c0.95187,0.27698 1.76993,0.24417 2.7735,0.43665c0.98282,0.18851 1.55603,0.64279 2.54001,0.832c0.7616,0.14645 1.63763,0.13513 2.52917,0.30536c0.89639,0.17117 1.73221,0.48105 2.77847,0.65717c0.87344,0.14703 1.755,0.12149 2.61719,0.12149c0.90448,0 1.8045,0 2.7045,0c0.89999,0 1.8606,0.1087 2.55182,-0.35266c0.69443,-0.4635 1.30994,-0.74426 2.09634,-1.29468c0.63199,-0.44235 1.457,-0.86826 2.15182,-1.55267c0.50375,-0.49622 1.23392,-1.1723 1.716,-1.99866c0.40686,-0.69739 0.94101,-1.3833 1.13666,-2.15317c0.23154,-0.91119 0.83658,-1.63861 0.94601,-2.44815c0.12082,-0.8938 0.57666,-1.66043 0.91733,-2.40002c0.39758,-0.86322 0.88129,-1.45654 1.07333,-2.39999c0.16608,-0.81589 0.33603,-1.90344 0.58002,-2.45334c0.28284,-0.63748 0.78162,-1.64624 1.26398,-2.61331c0.28082,-0.56293 0.75842,-1.5108 1.16669,-2.33334c0.30634,-0.61713 0.65442,-1.33673 1.16663,-2.66666c0.16034,-0.41632 0.48376,-1.33875 0.64801,-1.82401c0.32855,-0.97052 0.64624,-1.87958 0.94232,-3.00183c0.19061,-0.72263 0.14923,-1.73004 0.40967,-2.67416c0.19086,-0.69174 0.63062,-1.41974 0.77618,-2.43784c0.12091,-0.84567 0.05719,-1.81735 0.05719,-2.65283c0,-0.62534 0,-1.31467 0,-2.48602c0,-0.87997 0,-1.84 0,-2.34998c0,-1.08002 0.00098,-2.24002 -0.00018,-2.84918c-0.00238,-1.25833 -0.008,-1.89752 -0.02069,-2.53665c-0.01263,-0.63425 -0.04065,-1.86945 -0.14581,-3.02084c-0.0957,-1.04755 -0.18274,-1.53351 -0.33331,-2.45834c-0.14423,-0.88583 -0.33923,-2.20776 -0.37866,-2.66299c-0.08063,-0.93039 -0.11603,-1.87897 -0.17401,-2.82599c-0.02869,-0.46884 -0.15015,-1.83401 -0.3045,-2.68649c-0.14612,-0.80707 -0.3197,-1.55603 -0.64282,-2.53284c-0.27655,-0.83612 -0.62775,-1.57419 -1,-2.66669c-0.21625,-0.63467 -0.40863,-1.35788 -0.60004,-2.16c-0.20941,-0.87778 -0.49994,-2.34903 -0.60132,-2.87198c-0.10297,-0.53104 -0.31177,-1.59479 -0.43463,-2.112c-0.23462,-0.98764 -0.64673,-2.2576 -1.01666,-2.89401c-0.47418,-0.81577 -1.21371,-1.60754 -1.59021,-2.23315c-0.49777,-0.82715 -0.86438,-1.814 -1.05264,-2.34369c-0.27957,-0.78665 -0.46072,-1.94409 -0.75717,-2.74283c-0.32166,-0.86667 -0.80005,-1.66458 -1.28067,-2.47565c-0.31201,-0.52655 -1.09875,-1.10352 -1.55682,-2.08069c-0.40747,-0.86923 -0.47656,-1.63602 -0.99652,-2.26865c-0.66843,-0.81326 -1.45367,-1.13571 -2.06265,-1.884c-0.54062,-0.66431 -1.12115,-1.02725 -2.02899,-1.70001c-0.61221,-0.45367 -0.97943,-1.30386 -1.54251,-1.94165c-0.56265,-0.6373 -0.89648,-1.50345 -1.27917,-2.10635c-0.56662,-0.89267 -1.12112,-1.52631 -1.63599,-2.25198c-0.4765,-0.6716 -1.15643,-1.17999 -2.064,-1.60001c-0.80258,-0.37143 -1.45245,-0.84021 -2.26801,-1.19867c-0.71762,-0.31543 -1.44589,-0.61664 -2.56,-0.76532c-0.96432,-0.12869 -1.71094,-0.3577 -2.47202,-0.75201c-0.8215,-0.42563 -1.74161,-0.51028 -2.47198,-0.70932c-0.83548,-0.22769 -1.72479,-0.43863 -2.6235,-0.51752c-0.86642,-0.07605 -1.93784,-0.05716 -2.64734,-0.05716c-0.85266,0 -1.85583,0 -2.62115,0c-1.07886,0 -1.99164,-0.18655 -2.836,0.16666c-0.71558,0.29935 -1.49042,1.02249 -2.17468,1.43335c-0.81146,0.48724 -1.39923,0.99008 -1.82532,1.89999c-0.37076,0.79178 -0.90503,1.59598 -0.99869,2.29999c-0.12115,0.91074 -0.82178,1.46262 -1.354,2.15186c-0.51086,0.66156 -0.59512,1.44247 -1,2.29099c-0.38623,0.80942 -0.62866,1.55734 -0.64731,2.45718c-0.01868,0.90051 -0.44421,1.69229 -1.09985,2.39999c-0.54996,0.59363 -0.88974,1.39981 -0.90015,2.332c-0.00696,0.62396 0,1.62 0,2.56799c0,0.642 0,1.944 0,2.68649c0,0.91351 0,1.81351 0,2.72418c0,0.91083 0,1.61017 0,2.58932c0,0.97916 0,1.83334 0,2.6955c0,0.90451 0,1.8045 0,2.7045c0,0.89999 0,1.80002 0,2.70001c0,0.89999 0,1.65717 0,2.55267c0,0.86331 0.1239,1.71313 0.64731,2.39999c0.44791,0.58777 0.66718,1.33447 1.186,2.11398c0.47089,0.70746 0.31711,1.85443 1.16669,1.83334c0.9057,-0.02246 1,-1.10001 1,-2c0,-0.79999 0,-1.70001 0,-2.54166c0,-1.00101 0,-1.70901 0,-2.453c0,-1.1955 -0.04102,-1.88934 0.01065,-2.84134c0.04169,-0.76785 0.37875,-1.75143 0.63666,-2.564c0.31406,-0.98941 0.33368,-1.6441 0.43668,-2.37067c0.17004,-1.19952 0.29279,-1.87741 0.62051,-2.80966c0.33624,-0.95651 1.07779,-1.41455 1.94815,-1.0625c0.72,0.29123 1.7128,0.86334 2.06067,1.52817c0.45844,0.8761 0.39099,1.75192 0.85602,2.51599c0.39853,0.65482 1.01398,1.24744 1.54398,2.28134c0.39597,0.7724 0.68353,1.53168 0.8295,2.50299c0.13614,0.90594 -0.22925,1.92868 0.22385,2.64767c0.44431,0.70502 0.74301,1.35645 0.83466,2.28131c0.08881,0.89627 0.56409,1.53333 1.29868,2.18085c0.66223,0.58374 1.46176,0.79251 2.51468,0.69382c0.86237,-0.08084 0.84827,-1.13818 1.35199,-1.82266c0.48071,-0.6532 0.99207,-1.33649 1.25867,-1.992c0.28229,-0.69409 0.56934,-1.76392 0.57468,-2.58533c0.00592,-0.91061 0,-1.76401 0,-2.70398c0,-0.88535 0.06912,-1.77649 0.35266,-2.54251c0.27884,-0.75339 0.59546,-1.73898 0.63666,-2.50684c0.05777,-1.07733 0.01068,-1.936 0.01068,-2.836c0,-0.79999 -0.01065,-1.70007 0,-2.60001c0.01041,-0.87933 0.63284,-1.57678 1.5,-1.37915c0.95691,0.21811 1.22913,1.17212 1.784,1.89648c0.4826,0.63 0.5423,1.34879 1.00266,2.19733c0.4339,0.79977 1.44141,1.09378 2.00351,1.64252c0.64758,0.63217 0.55078,1.60422 0.72049,2.60684c0.14679,0.86722 0.84116,1.4046 0.98483,2.336c0.13724,0.8895 0.10925,1.69919 0.65182,2.35266c0.49033,0.59055 1.03757,1.37048 1.2955,2.25183c0.24268,0.82925 0.05719,1.6955 0.05719,2.67398c0,0.82019 0,1.72153 0,2.62152c0,0.89999 -0.09546,1.84451 0.284,2.60001c0.43558,0.86719 0.71533,1.59998 0.716,2.43597c0.00082,1.01669 0,1.71133 0,2.72803c0,0.93597 0,1.836 0,2.73599c0,0.89999 0,1.69998 0,2.60001c0,0.89999 0,1.82083 0,2.62131c0,0.85333 0,1.79333 0,2.77869c0,0.89999 0,1.69998 0,2.60001c0,0.89999 0,1.79999 0,2.69998c0,0.90451 0,1.76666 0,2.60001c0,0.97849 0,1.79868 0,2.70001c0,0.89999 0,1.79999 0,2.69998c0,0.89999 0.12396,1.80862 -0.00018,2.69983c-0.11172,0.80206 -0.92981,1.33713 -0.98917,2.08551c-0.08359,1.05423 0.17068,1.96814 -0.17734,2.81467c-0.27588,0.67108 -0.68091,1.51434 -0.84399,2.39999c-0.15311,0.83145 -0.56,1.76227 -1.15601,2.43335c-0.53854,0.60638 -1.3367,0.88828 -1.98267,1.228c-0.86877,0.45688 -0.79907,1.60641 -1.65198,1.936c-0.78693,0.30411 -1.353,0.91891 -2.19867,1.00266c-0.79611,0.07883 -1.70001,0 -2.60001,0c-0.89999,0 -1.81067,0 -2.72134,0c-0.85333,0 -1.79333,0 -2.67865,0c-0.80002,0 -1.60406,-0.16797 -2.22134,-0.87885c-0.56781,-0.6539 -0.4783,-1.56671 -1.21466,-2.04916c-0.80859,-0.52979 -1.92371,0.01279 -2.53867,-0.49731c-0.59927,-0.4971 -1.04031,-1.26007 -1.88669,-1.54935c-0.93753,-0.3204 -1.60297,-0.56235 -2.33865,-1.224c-0.58841,-0.52917 -1.43826,-0.75854 -2.21066,-1.23734c-0.80167,-0.49695 -1.55167,-0.79599 -2.25601,-1.564c-0.5589,-0.60944 -1.13116,-1.27521 -1.61734,-1.91733c-0.54755,-0.72321 -0.71246,-1.43451 -0.71597,-2.3255c-0.00375,-0.95584 -0.47443,-1.52682 -1.14935,-1.7825c-0.89401,-0.33865 -1.66492,-0.96277 -1.84616,-1.67917c-0.21964,-0.86816 0.36221,-1.87521 -0.02533,-2.77466c-0.3078,-0.71436 -0.97382,-1.16748 -0.97916,-2.17352c-0.00366,-0.69464 0,-1.71133 0,-2.64731c0,-0.90002 0,-1.80002 0,-2.70001c0,-0.79999 0,-1.70001 0,-2.60001c0,-0.92084 0,-1.72131 0,-2.57468l0,-0.93997" id="svg_1" stroke-width="2" stroke="#000" fill="none"/>
  <path t="21730,21832,21843,21859,21875,21875,21891,21891,21891,21912,21912,21912,21921,21921,21921,21947,21947,21963,21963,21975,21975,21997,22009,22024,22043,22059,22079,22092,22092,22112,22119,22119,22119,22141,22142,22162,22191,22191,22201,22224,22246,22246,22258,22258,22258,22275,22275,22276,22276,22292,22292,22292,22307,22308,22308,22308,22324,22324,22325,22341,22342,22358,22358,22376,22377,22408,22422,22422,22446,22452,22479,22479,22496,22496,22511,22511,22530,22531,22531,22547,22547,22564,22572,22573,22573,22588,22588,22605,22606,22628,22629,22629,22647,22648,22666,22666,22666,22688,22688,22699,22700,22716,22716,22740,22740,22740,22759,22760,22777,22777,22794,22816,22816,22831,22831,22849,22871,22911,22935,22975,22999,23055,23065,23066,23081,23096,23096,23112,23120,23146,23158,23158,23181,23181,23191,23191,23214,23214,23230,23231,23244,23245,23254,23254,23271,23272,23299,23300,23300,23328,23328,23329,23347,23347,23347,23364,23365,23365,23375,23375,23399,23400,23400,23429,23429,23442,23442,23442,23455,23455,23471,23472,23496,23505,23530,23547,23575,23599" d="m469.50348,183.88889c1.71466,-1.084 2.14395,-1.83148 2.85065,-2.39999c0.78918,-0.63487 1.12137,-1.28961 1.72134,-2.08534c0.43719,-0.57983 1.10251,-1.13289 1.84915,-1.71449c0.77985,-0.60747 1.33231,-0.94411 2.24551,-1.6335c0.68341,-0.5159 1.19586,-0.99791 1.99051,-1.46667c0.73007,-0.43066 1.75131,-0.88168 2.32199,-1.2c1.01788,-0.56776 1.59067,-1.105 2.42084,-1.47467c0.78354,-0.34891 1.76215,-0.59613 2.43332,-1.192c0.60632,-0.53828 1.48856,-0.5443 2,-1.16666c0.53223,-0.64767 0.62204,-1.62553 1.5,-1.66667c0.91638,-0.04294 1.70432,0.08815 2.69601,-0.284c0.70673,-0.26521 1.4913,-0.70558 2.45465,-0.716c0.86328,-0.00934 1.79602,0.06216 2.50134,-0.42534c0.62915,-0.43486 1.48709,-0.59509 2.43634,-0.79599c0.83142,-0.17596 1.41565,-0.40659 2.745,-0.612c0.71216,-0.11005 1.44772,-0.14043 2.172,-0.15601c1.32773,-0.02855 2.15601,-0.01067 2.91199,-0.01067c1.08267,0 1.71735,0 2.40002,0c1.04398,0 2.01596,0 2.83499,0c0.90533,0 1.91431,0 2.71436,0c0.99982,0 1.77911,0 2.7785,0c0.82013,0 1.77863,0 2.67413,0c0.6947,0 1.71564,-0.08505 2.65186,0.0045c0.87323,0.08353 1.67383,0.55574 2.52881,0.82883c0.77631,0.24796 1.64087,0.48561 2.41333,0.74133c0.90723,0.30034 1.70502,0.34303 2.492,0.45067c1.12494,0.15385 1.84149,0.54642 2.672,0.96001c0.91229,0.4543 1.42084,0.86958 2.10535,1.532c0.73798,0.71416 1.34741,1.28323 2.14569,1.42549c0.78931,0.14066 1.76007,0.03989 2.56366,0.06784c0.82275,0.02863 1.85535,0.20367 2.75378,0.48933c1.02344,0.32539 1.82031,0.4808 2.62085,0.49867c0.99976,0.02232 1.79999,0.00133 2.79999,0.00133c0.80005,0 1.80005,0 2.60004,0c1,0 1.79999,0 2.59998,0c1,0 1.79999,0 2.79871,0c0.76532,0 1.71594,0 2.60132,0c0.75714,0 1.65265,0 2.51599,0c0.96313,0 1.88397,0 2.784,0c0.90002,0 1.93298,0.24535 2.61603,-0.284c0.6297,-0.48798 1.21954,-1.10771 1.88397,-1.43201c0.89606,-0.43738 1.95642,-0.02586 2.63068,-0.45467c0.71625,-0.45551 0.76611,-1.70671 1.66931,-1.82933c0.89185,-0.12108 1.69098,0.02841 2.55267,-0.36166c0.73029,-0.3306 1.43018,-1.14525 1.93665,-1.77701c0.57843,-0.72145 1.3855,-0.92824 2.17871,-1.14532c0.73615,-0.20146 1.88989,-0.61165 2.71112,-0.69518c0.8382,-0.08525 1.7865,0.06116 2.49951,-0.46367c0.62689,-0.46143 1.1839,-1.39537 1.84668,-1.94249c0.51886,-0.42834 1.28455,-1.38562 1.56,-1.85468c0.41345,-0.7041 1.37646,-1.53267 2.1355,-1.73917c0.78961,-0.21481 1.81213,-0.56433 2.45831,-1.04166c0.63861,-0.47171 1.435,-1.07275 2,-1.47917c0.87964,-0.63275 1.37,-1.33495 1.81952,-2.01601c0.48987,-0.74214 1.08636,-1.36832 1.68671,-1.96933c0.53516,-0.53577 1.10956,-1.12248 1.91333,-1.912c0.57587,-0.56567 1.53619,-1.11035 2.15466,-1.61732c0.68018,-0.55753 1.24799,-1.06934 2.01062,-1.59601l0.41071,-0.78932l0.31067,-0.79868l0.71466,-0.63466" id="svg_2" stroke-width="2" stroke="#000" fill="none"/>
  <path t="25072,25143,25143,25161,25161,25176,25192,25208,25208,25225,25225,25225,25242,25242,25243,25243,25243,25243,25252,25252,25253,25253,25253,25275,25275,25275,25275,25275,25292,25292,25292,25292,25292,25308,25308,25308,25308,25308,25325,25325,25325,25326,25326,25342,25342,25342,25343,25343,25353,25353,25353,25353,25353,25353,25353,25375,25375,25376,25376,25376,25391,25391,25391,25392,25392,25408,25408,25408,25408,25408,25408,25409,25425,25425,25425,25425,25425,25426,25441,25442,25442,25442,25442,25442,25458,25458,25458,25458,25475,25475,25492,25492,25508,25508,25508,25525,25525,25539,25540,25558,25583,25595,25615,25631,25631,25648,25659,25674,25692,25693,25708,25708,25727,25727,25727,25737,25738,25738,25758,25759,25759,25774,25775,25775,25792,25792,25792,25807,25808,25808,25822,25823,25823,25823,25843,25843,25857,25858,25874,25875,25875,25891,25892,25907,25908,25908,25921,25922,25922,25941,25941,25941,25942,25958,25958,25958,25958,25959,25975,25975,25976,25976,25992,25992,25992,26008,26008,26008,26009,26021,26021,26021,26021,26046,26046,26047,26047,26079,26080,26080,26081,26081,26081,26115,26116,26116,26116,26116,26116,26117,26117,26133,26133,26134,26134,26134,26135,26135,26135,26136,26163,26163,26164,26164,26164,26164,26187,26188,26188,26188,26229,26230,26230,26231,26231,26231,26263,26264,26264,26264,26296,26297,26298,26298,26299,26299,26329,26330,26330,26330,26331,26331,26332,26361,26362,26362,26362,26362,26363,26363,26400,26400,26400,26401,26401,26401,26402,26402,26429,26430,26430,26432,26432,26433,26433,26453,26454,26454,26454,26454,26455,26455,26497,26498,26498,26499,26499,26499,26499,26517,26518,26518,26519,26519,26536,26536,26537,26565,26566,26586,26586,26608,26608,26624,26624,26640,26640,26661,26684,26684,26701,26701,26720,26752,26753,26772,26888,26944,26968,27000,27032,27072,27072" d="m519.50348,175.88889c1,-1 1.75714,-1 2.65265,-1c0.86334,0 1.82648,-0.00227 2.74731,0c0.909,0.00226 1.58746,0.02966 2.61884,0.37067c0.55432,0.18327 1.49585,0.64912 2.50269,1.39366c0.37427,0.27676 1.11615,0.93118 1.49933,1.27734c0.78705,0.71097 1.16718,1.09224 2.37903,2.13666c0.39453,0.34003 1.1853,0.98042 1.96417,1.575c0.37677,0.28763 1.46558,1.0853 2.15198,1.56134c0.65521,0.45441 1.30316,0.88474 1.96802,1.284c1.02802,0.61737 1.77722,0.99577 2.51599,1.44301c0.75641,0.45793 1.15942,0.67856 2.17865,1.60117c0.7002,0.63383 1.32062,1.37865 1.64667,1.74249c0.65723,0.73335 1.32568,1.46486 2.05865,2.12801c0.72626,0.65706 1.10797,0.95555 1.86334,1.52499c1.07471,0.81018 1.7796,1.26724 2.42737,1.76834c0.66211,0.51216 1.01453,0.78311 1.99194,1.86c0.36877,0.40634 1.08502,1.34596 1.448,1.84532c0.36804,0.50629 1.0769,1.53354 1.41602,2.03734c0.63867,0.94887 1.18909,1.80331 1.71869,2.54266c0.49011,0.6842 0.99493,1.32756 1.89349,2.20851c0.3183,0.31206 1.02875,0.92065 1.74249,1.6075c0.37195,0.35794 1.45673,1.58565 1.79315,2.05617c0.34521,0.48282 0.98846,1.52078 1.30066,2.05666c0.31311,0.53746 0.9082,1.61919 1.52087,2.64584c0.29456,0.49361 0.89594,1.42175 1.20001,1.86133c0.59216,0.85609 0.89801,1.26448 1.79999,2.472c0.59735,0.79964 0.89716,1.19427 1.47913,1.97917c0.56531,0.76247 0.84296,1.13019 1.59918,2.19916c0.4646,0.65677 0.89478,1.27058 1.435,2.13501c0.61841,0.98952 0.91998,1.67397 1.48669,2.51999c0.46381,0.69235 1.04254,1.31035 1.38934,2.00267c0.37244,0.74353 0.578,1.76277 0.60614,2.564c0.0351,0.99806 0.00452,1.76401 0.00452,2.84283c0,0.85718 0.38391,1.96162 -0.2215,2.63583c-0.55463,0.6176 -1.43109,0.92152 -2.2785,1.10051c-0.88086,0.18605 -1.8045,0.02083 -2.82135,0.02083c-0.67865,0 -1.65747,0 -2.48853,0c-0.96082,0 -1.73181,0 -2.59277,0c-0.89734,0 -1.79736,0 -2.69739,0c-0.89996,0 -1.79547,0 -2.664,0c-1.06934,0 -1.80432,-0.11803 -2.63147,0.11433c-1.06287,0.29857 -1.60559,0.93417 -2.28986,1.403c-0.71661,0.49097 -1.54468,0.86273 -2.41913,1.17816c-0.88977,0.32095 -1.78979,0.5954 -2.35388,0.8045c-0.7757,0.28755 -1.75684,0.77589 -2.42432,1.38533c-0.62732,0.57278 -1.30096,1.3232 -2.11731,1.948c-0.573,0.43855 -1.43848,0.82741 -1.83069,1.65201c-0.32141,0.67575 -0.39606,1.71303 -0.66931,2.53549c-0.22034,0.66309 -0.43762,1.66306 -0.47919,2.5c-0.04364,0.87964 -0.02081,2.08318 -0.02081,2.71117c0,0.67601 -0.00275,1.42401 0.00018,2.73184c0.00226,0.98965 0.00146,1.50177 0.03583,2.52417c0.01672,0.49698 0.05273,1.86295 0.32562,2.88782c0.22272,0.83664 0.52472,1.30432 1.12103,2.31085c0.33179,0.56009 0.87451,1.45236 1.18396,2.47998c0.21228,0.7049 0.26141,1.46188 0.38403,2.20801c0.24097,1.46616 0.50079,2.14835 0.81067,2.78934c0.30652,0.63406 0.98346,1.83075 1.25464,2.43732c0.2702,0.60434 0.62195,1.56201 1.05066,2.56534c0.31073,0.72729 0.68787,1.50275 0.89587,1.91669c0.4502,0.89575 0.7074,1.37509 1.58002,2.98166c0.32343,0.59543 0.66425,1.21695 0.9975,1.875c0.34528,0.68188 0.68481,1.39508 0.9975,2.14499c0.32111,0.77011 0.87738,2.41107 1.09796,3.27835c0.22369,0.87961 0.40094,1.77524 0.55652,2.66998c0.15338,0.88199 0.27771,1.74643 0.39447,2.58002c0.11108,0.79312 0.30859,2.22083 0.41333,2.83633c0.09442,0.55508 0.19446,1.05493 0.37933,1.92532c0.23395,1.10135 0.41962,2.14529 0.45917,2.88666c0.04156,0.77914 0.02618,1.60239 -0.10498,2.905c-0.04584,0.45551 -0.17365,1.38589 -0.375,2.3125c-0.19897,0.91583 -0.27979,1.37665 -0.78033,2.57767c-0.30927,0.742 -0.71332,1.42386 -1.25397,1.97702c-0.85406,0.87381 -1.67096,1.3013 -2.54266,1.73016c-0.45953,0.22607 -1.45032,0.63583 -1.9707,0.83466c-1.07391,0.41034 -2.19519,0.8024 -2.76782,0.99683c-0.57806,0.19626 -1.75238,0.57211 -2.34735,0.74734c-0.59576,0.17548 -2.39465,0.64069 -2.99817,0.77051c-0.60522,0.13022 -1.21606,0.2569 -2.4693,0.44c-0.64111,0.09366 -1.29736,0.17651 -2.66138,0.28c-0.70856,0.05377 -1.43298,0.09088 -2.90662,0.13065c-0.73907,0.01996 -1.47333,0.02682 -2.19751,0.03152c-0.70917,0.00461 -2.0625,0.00662 -2.69836,0.00415c-1.20166,-0.00464 -1.77838,-0.00388 -2.90417,-0.07166c-0.56134,-0.03378 -1.13416,-0.05356 -2.90265,-0.37119c-0.62836,-0.11285 -1.26538,-0.26526 -1.90802,-0.43948c-1.3045,-0.35364 -1.94794,-0.57242 -2.5813,-0.80533c-1.24286,-0.45706 -1.83032,-0.72202 -2.95367,-1.26019c-0.54498,-0.26108 -1.0686,-0.53931 -2.10535,-1.04199c-0.50439,-0.24457 -2.00598,-0.87378 -2.50366,-1.0405c-0.95837,-0.32108 -1.87704,-0.54089 -2.664,-0.85199c-0.97751,-0.38644 -1.70203,-0.89435 -2.05066,-1.71869c-0.32098,-0.75894 -0.27505,-1.83145 -0.85999,-2.51465c-0.51984,-0.60718 -1.43567,-1.18655 -1.90985,-1.884c-0.55252,-0.81268 -1.05692,-1.31223 -1.39951,-2.32117c-0.26706,-0.78647 -0.69781,-1.43805 -1.03598,-2.24951c-0.32397,-0.7774 -0.08533,-1.828 -0.08533,-2.59332c0,-0.95065 0,-1.836 0,-2.63599c0,-0.90002 0,-1.80002 0,-2.70001c0,-0.89999 0,-1.79999 0.00131,-2.70132l0.16534,-0.96533l0.25867,-0.65869" id="svg_3" stroke-width="2" stroke="#000" fill="none"/>
  <path t="28721,29008,29019,29043,29059,29075,29092,29092,29144,29144,29168,29192,29256,29336,29376,29408,29408,29432,29444,29459,29459,29472,29493,29509,29526,29542,29542,29559,29559,29576,29577,29577,29593,29594,29594,29648,29696,29760,29777,29777,29816,29816,29849,29888,29912,29928,29984,30080,30128,30248,30248,30272,30336,30384" d="m459.50348,252.88889c-1.70001,0 -2.60001,0 -3.5,0c-0.90002,0 -1.80463,-0.0154 -2.82135,0.00017c-0.67889,0.01039 -1.63184,0.267 -2.37418,0.64717c-0.84308,0.43175 -1.30222,1.05714 -1.30447,1.95267c-0.00226,0.89999 -0.07892,1.83618 0.2215,2.72116c0.23236,0.68451 0.96353,1.31628 1.65732,1.90018c0.6626,0.55762 1.30563,0.74725 2.10034,1.27866c0.66409,0.44406 1.52084,0.5 2.43149,0.5c0.91068,0 1.76401,0 2.70801,0c0.74832,0 1.64551,0 2.56799,0c0.67334,0 1.98001,0 2.79449,0c0.66153,0 2.02521,0.29874 2.46167,-0.35718c0.46872,-0.70438 0.05719,-1.80948 0.05719,-2.64282c0,-0.97852 0.01688,-1.69565 0,-2.60001c-0.01801,-0.96449 -0.47513,-1.60016 -1.16669,-2.23332c-0.59805,-0.54756 -1.17966,-1.12251 -1.81866,-1.59201c-0.7175,-0.52716 -1.53198,-0.57333 -2.49384,-0.57466l-0.91016,-0.01067l-0.61066,-0.48933" id="svg_4" stroke-width="2" stroke="#000" fill="none"/>
  <path t="48713,49280,49299,49328,49340,49368,49379,49393,49417,49427,49449,49449,49459,49481,49481,49504,49504,49515,49540,49540,49556,49573,49573,49590,49590,49590,49601,49623,49623,49623,49640,49640,49664,49664,49675,49675,49691,49704,49704,49723,49740,49756,49773,49773,49790,49790,49806,49818,49818,49840,49840,49858,49858,49873,49873,49889,49907,49921,49921,49940,49940,49956,49973,49973,49991,49991,50006,50007,50023,50023,50035,50035,50056,50056,50073,50073,50090,50090,50106,50123,50123,50137,50137,50156,50172,50172,50172,50190,50190,50206,50206,50223,50240,50240,50255,50255,50273,50273,50290,50306,50306,50323,50323,50340,50356,50391,50391,50406,50406,50406,50406,50423,50424,50440,50455,50456,50473,50473,50490,50490,50514,50514,50528,50529,50544,50544,50556,50573,50584,50607,50623,50624,50640,50658,50658,50674,50674,50686,50707,50707,50723,50724,50742,50742,50742,50756,50773,50786,50786,50806" d="m497.50348,279.88889c-0.16669,1.83334 -1.23242,1.56573 -1.83334,2.16666c-0.60092,0.60092 -0.436,1.52878 -1.08267,2.11734c-0.63464,0.57764 -0.71222,1.32977 -1.10532,2.10535c-0.40067,0.7905 -1.49435,0.38162 -2.332,1.05731c-0.67352,0.5433 -0.48218,1.6058 -0.86819,2.53183c-0.27866,0.66852 -1.02466,1.39548 -1.77847,1.85486c-0.67438,0.41098 -0.83481,1.24149 -1.22168,2.14532c-0.3045,0.7114 -1.11136,1.3313 -1.59299,1.84665c-0.6319,0.67615 -1.05908,1.57123 -1.40701,2.49619c-0.27078,0.71985 -0.62082,1.31497 -1.26233,2.07584c-0.6481,0.76865 -1.40979,1.16833 -2.10535,1.65332c-0.7951,0.55441 -1.09805,1.30975 -1.70615,2.19217c-0.52701,0.76474 -0.81378,1.42642 -1.50583,1.84116c-0.79501,0.47647 -1.1055,1.34784 -1.4202,2.23734c-0.24741,0.69928 -0.83524,1.47281 -1.3425,2.26801c-0.43427,0.68076 -0.67178,1.66452 -1.19766,2.11069c-0.82101,0.69656 -1.64694,0.9953 -2.21683,1.62131c-0.56775,0.62366 -0.89459,1.64038 -1.62149,2.23203c-0.69394,0.56482 -1.36374,0.89331 -1.40018,1.76797c-0.03555,0.85333 -0.23956,1.83023 -0.80115,2.47736c-0.55615,0.64087 -1.2998,1.3002 -1.89868,1.90134c-0.60114,0.60336 -1.10156,1.18433 -1.60449,1.95267c-0.45407,0.69373 -1.17108,1.47446 -1.87018,1.93665c-0.79434,0.52518 -1.49005,1.00732 -1.74133,1.896c-0.25287,0.89423 -0.25003,1.73816 -0.60483,2.49384c-0.41623,0.88654 -1.0838,1.59085 -1.45383,2.42084c-0.34995,0.78497 -0.86899,1.45969 -1.32083,2.25269c-0.38449,0.6748 -0.67227,1.59811 -0.7045,2.68066c-0.01999,0.67172 0.11179,1.45111 -0.22134,2.52383c-0.24789,0.79822 -0.72934,1.62421 -0.77417,2.49014c-0.0463,0.89435 -0.31387,1.70349 -0.65182,2.40985c-0.40881,0.85449 -0.3504,1.64734 -0.35266,2.64148c-0.00214,0.94418 0,1.84869 0,2.76801c0,0.83334 0,1.81183 0,2.63202c0,0.90134 0,1.72217 0,2.68933c0,0.79465 0,1.84534 0,2.47867c0,1.01248 0,1.67084 0,2.76883c0,0.95099 -0.04196,1.80472 0.284,2.7485c0.2446,0.70825 0.66937,1.62991 0.71149,2.32584c0.05789,0.95642 0.00452,1.69016 0.00452,2.85681c0,0.8125 -0.07013,1.82468 0.03598,2.508c0.14917,0.96066 0.81583,1.59268 0.9595,2.52536c0.13705,0.8895 0.00452,1.79999 0.00452,2.71066c0,0.91064 -0.086,1.76804 0.00131,2.70398c0.08365,0.89676 0.69852,1.48132 0.91333,2.36935c0.20386,0.84277 -0.04807,1.81033 0.36935,2.71732c0.27762,0.60324 0.68326,1.45911 0.71149,2.26035c0.03378,0.95892 0.00452,1.75299 0.00452,2.76898c0,0.95502 0.00015,1.86935 0.16666,2.76935l0.40799,0.60001l0.40451,0.92084" id="svg_5" stroke-width="2" stroke="#000" fill="none"/>
  <path t="51672,51872,51890,51907,51923,51940,51956,51956,51956,51975,51975,51985,51986,51986,51986,52006,52007,52023,52023,52023,52023,52040,52040,52040,52041,52056,52057,52074,52074,52086,52087,52128,52160,52192,52208,52223,52240,52241,52256,52273,52290,52291,52301,52323,52384,52416,52416,52429,52441,52457,52458,52473,52474,52490,52505,52523,52523,52540,52540,52556,52556,52573,52574,52590,52590,52605,52605,52799,52816,52816,52840,52856,52856,52856,52873,52873,52890,52890,52906,52906,53255,53319,53343,53355,53372,53390,53390,53405,53425,53456,53480,53480,53511,55455,55504,55559,55591,55607,55625,55640,55657,55673,55674,55690,55701,55701,55723,55739,55739,55756,55756,55756,55773,55773,55773,55773,55789,55789,55789,55801,55802,55802,55802,55823,55824,55824,55824,55824,55824,55839,55839,55839,55839,55840,55856,55856,55857,55857,55857,55873,55873,55873,55873,55889,55889,55889,55890,55890,55890,55901,55902,55902,55902,55902,55902,55902,55902,55923,55923,55924,55924,55924,55924,55924,55939,55939,55939,55940,55940,55940,55940,55940,55955,55956,55956,55956,55957,55957,55957,55957,55958,55973,55973,55973,55974,55974,55974,55974,55975,55975,55990,55990,55990,55990,55991,55991,55991,56279,56280,56280,56280,56280,56280,56297,56297,56298,56298,56298,56298,56299,56299,56299,56328,56329,56329,56329,56356,56356,56544,56556,56574,56589,56605,56624,56625,56637,56638,56831,56842,56843,56858,56859,56873,56873,56888,56889,56889,56890,56905,56906,56906,56907,56920,56923,56924,56924,56924,56939,56939,56940,56940,56940,56941,56956,56956,56957,56957,56957,56957,56973,56973,56973,56974,56974,56989,56989,56990,56990,56990,56991,57006,57006,57007,57007,57008,57008,57008,57018,57018,57018,57019,57019,57019,57039,57039,57040,57040,57040,57041,57056,57056,57058,57058,57072,57073,57074,57074,57074,57089,57089,57090,57104,57105,57122,57122,57123,57139,57139,57156,57156,57172,57173,57189,57202,57203,57223,57239,57256,57273,57289,57290,57300,57301,57323,57339,57340,57356,57373,57373,57388,57388,57406,57407,57424,57447,57463,57479,57490,57511,57523,57539,57556,57573,57585,57586,57623,57624" d="m496.50348,281.88889c0,1.79999 0,2.70001 0,3.60001c0,0.89999 0,1.70898 0,2.73334c0,0.672 0,1.41599 0,2.52417c0,0.82916 0,1.90665 0,2.50497c0,0.9975 0,1.67084 0,2.86816c0,0.7485 0,1.936 0,2.73102c0,0.57999 0,1.52499 0,2.55933c0,0.72266 0,1.78168 0,2.42435c0,1.18765 0,1.936 0,2.89066c0,0.76532 0,1.75949 0,2.67868c0,0.96448 0,1.88531 0,2.78531c0,0.90002 0,1.80002 0,2.70001c0,0.79999 0.0303,1.60275 0.42532,2.41068c0.44678,0.91379 0.44684,1.5975 0.57483,2.56766c0.12125,0.91913 0.76114,1.3833 1.22134,2.12149c0.44711,0.71716 1.47458,0.96039 2.18915,1.3255c0.90582,0.4628 1.59103,0.51373 2.56784,0.57483c0.82297,0.05148 1.55942,0.74692 2.43216,0.96384c0.88446,0.21985 1.76544,-0.01456 2.70535,0.03735c0.77142,0.0426 1.70404,0.47006 2.48532,0.71466c0.78543,0.24588 1.59863,0.27866 2.59851,0.284c0.96417,0.00516 1.91614,0 2.68414,0c0.94135,0 1.94934,0 2.70532,0c0.95233,0 1.74402,0 2.66138,0c0.74396,0 1.77997,0 2.63196,0c0.95337,0 1.71869,0 2.71283,0c0.74738,0 2.03729,-0.20847 2.38367,0.52084c0.41113,0.86563 -0.65033,1.49863 -0.9538,2.32983c-0.28748,0.78741 -0.97595,1.06412 -1.58936,1.75998c-0.58838,0.66745 -0.89795,1.6257 -1.26935,2.38934c-0.36664,0.75388 -1.66791,1.10678 -1.54529,1.96399c0.02618,0.18301 1.07867,0.03601 1.97864,0.03601c0.90002,0 1.79999,0 2.70001,0c0.90002,0 1.80017,0 2.58533,0c0.94,0 1.948,0 2.70398,0c0.93152,0 1.89606,0 2.62134,0c0.98969,0 1.83099,0 2.56,0c1.19867,0 1.89069,0 2.61469,0c0.73199,0 2.12958,-0.01016 2.77869,0.01068c0.93213,0.02994 1.84015,0.13708 2.74951,0.3465c0.65222,0.15018 1.35358,0.36615 2.58649,0.64282c0.95013,0.21323 1.46106,0.30383 2.52081,0.47916c0.53851,0.08908 1.6109,0.25043 2.64581,0.35419c0.96277,0.09653 1.87213,0.13904 2.74805,0.19199c0.43353,0.02621 1.75336,0.13077 2.66797,0.25867c0.93359,0.13055 1.39539,0.22314 2.3075,0.36334c1.27502,0.19598 2.0415,0.26044 2.74854,0.33798c1.01105,0.11087 2.03235,0.33484 2.7533,0.58401c0.80255,0.2774 1.69678,0.62177 2.19836,0.7825c0.53571,0.17169 2.41516,0.63303 3.12964,0.76282c0.74219,0.13483 1.50635,0.2518 2.28003,0.3645c0.77295,0.11261 1.53699,0.21402 2.27997,0.31952c1.38727,0.19699 2.01453,0.29578 3.16119,0.50131c0.54333,0.09738 1.62109,0.30228 2.17932,0.40002c0.58441,0.10236 2.60785,0.40176 3.38751,0.50131c0.82123,0.10486 1.67615,0.20786 2.5545,0.31952c0.89368,0.11362 1.79413,0.22845 2.68951,0.3645c1.75037,0.26596 2.58447,0.43167 3.39331,0.59732c0.78851,0.16147 1.55701,0.33334 2.31299,0.49649c0.74536,0.16086 1.48328,0.32233 2.22302,0.45151c1.48151,0.25873 2.23895,0.33353 3,0.39999c0.76172,0.06653 1.52252,0.11023 2.27698,0.1485c0.7442,0.03775 1.47491,0.06418 2.18701,0.10352c1.35522,0.07483 1.99121,0.13116 2.59998,0.20267c1.15912,0.13614 1.71399,0.22977 2.79834,0.41916c0.53815,0.09399 1.62799,0.27106 2.7337,0.50882c0.55554,0.11945 1.6449,0.44836 2.11731,0.74667c0.95703,0.60434 1.64032,1.69308 1.87634,2.35352c0.25562,0.71518 0.40497,1.51498 0.513,2.35049c0.11047,0.85455 0.16058,1.71832 0.18896,2.5665c0.02728,0.81458 0.02832,2.2695 0.02686,2.87582c-0.00232,0.97467 0.211,1.74881 -0.22131,2.87216c-0.26013,0.67596 -0.94269,1.57083 -1.7785,1.85486c-0.78906,0.26813 -1.47736,-0.54868 -1.94733,-1.19501c-0.58691,-0.80719 -0.60052,-1.62115 -0.93134,-2.61667c-0.24066,-0.72421 -1.0528,-0.8053 -1.12134,0.14499c-0.04742,0.65704 -0.20667,1.64731 -0.57471,2.45868c-0.38251,0.84329 -0.41992,1.62128 -0.42529,2.54132c-0.00464,0.79501 0,1.68002 0,2.32001c0,1.39999 0,2.16 0,2.95999c0,0.84 0,1.72 0,2.63867c0,0.95068 0,1.43552 0,2.41916c0,1.49551 0,1.99551 0,2.99551c0,0.5 0,1.5 0,2.5c0,1 0,2 0,2.5c0,1 -0.00006,2 0,2.5c0.00018,1.5 -0.01337,2.00043 0.0213,3c0.03467,1.00067 0.04053,1.50861 0.31201,3c0.09167,0.50369 0.37103,1.50476 0.51733,2.01068c0.29669,1.02591 0.49713,1.53513 0.81598,3.15598c0.10852,0.55157 0.22516,1.69009 0.26135,2.26935c0.0365,0.58447 0.06549,1.76846 0.06934,2.36533c0.00769,1.19864 0.00269,2.39734 0.00269,2.99417c0,0.59384 0,1.76849 0,2.34732c0,1.69052 -0.00403,2.23538 0.00452,3.29102c0.00415,0.50885 0.00598,1.48523 0.08081,2.39417c0.1015,1.23267 0.26733,1.96667 0.41467,2.672c0.14734,0.70532 0.3504,1.83185 0.41467,2.66666c0.0672,0.87216 0.07874,1.74664 0.08398,2.58002c0.00684,1.08881 -0.0415,1.95099 0.05847,2.63983c0.14923,1.02811 0.55353,1.81351 0.94287,2.61349c0.38934,0.79999 0.79456,1.58508 0.94281,2.60001c0.11584,0.7933 0.05719,1.79865 0.05719,2.564c0,0.952 0,1.72 0,2.66132c0,1.00803 0,1.76401 0,2.67468c0,0.89999 0,1.79999 0,2.70132c0,0.96533 0,1.79868 0,2.77716c0,0.71701 0,1.6575 0,2.50552c0,0.86331 0,1.89066 0,2.83731c0,0.67868 0,1.65735 0,2.43134c0,1.07266 0.17328,1.78287 -0.02087,2.7265c-0.17841,0.86719 -0.82928,1.62515 -0.97913,2.52084c-0.14026,0.8382 -0.95721,1.28238 -1,2.20001c-0.04193,0.89883 -0.43726,1.45447 -0.94733,2.16165c-0.4881,0.6767 -0.55267,1.63834 -0.88605,2.47168l-0.16211,0.86215" id="svg_6" stroke-width="2" stroke="#000" fill="none"/>
 </g>
 <g display="none">
  <title>muse_image</title>
  <image xlink:href="http://cimg2.163.com/catchpic/1/18/188540F0A8FA4466A6B416726BE91F32.jpg" id="muse" height="428" width="640" y="26" x="0"/>
 </g>
 <g display="none">
  <title>bbox</title>
  <rect stroke="#f00" fill="none" stroke-width="3" height="428" width="272" y="26" x="368" id="bbox"/>
 </g>
</svg>
