<svg width="640" height="480" xmlns="http://www.w3.org/2000/svg" xmlns:svg="http://www.w3.org/2000/svg" xmlns:xlink="http://www.w3.org/1999/xlink">
 <!-- Sketchy ANNOTATION
  ImageNet ID: n02503517_564
  URL: http://farm3.static.flickr.com/2053/1575679318_8f64150f4e.jpg
  Image Width: 500
  Image Height: 333
  BBox X: 188
  BBox Y: 95
  BBox Width: 280
  BBox Height: 200
  Exposure: 2000ms
  Synset Label: elephant
  Synset ID: n02503517
  Worker Tag: elephant forest
  Sanity Check: 
   Context
   Saved
   Shading
  Comment: 
   {}
  Worker ID: AXD2DZ7U6CK35
  Assignment ID: 3ATPCQ38J8AYATORS6B16WIJPN3YAG
  HIT ID: 32FESTC2NHQ3ZF3QCH51KM79SO8UC8
  Work Time: 75s
  Worker Score: 0.9286
 END ANNOTATION -->
 <g display="inline">
  <title>Layer 1</title>
  <path t="0,29,29,29,36,56,72,72,89,89,89,89,106,106,106,122,122,122,122,139,140,140,140,140,156,156,156,157,172,172,173,173,173,173,173,189,189,189,189,189,207,207,207,207,222,222,222,223,239,239,239,257,257,257,273,273,273,273,289,289,289,306,307,307,322,322,322,339,339,340,340,340,356,357,357,372,372,373,373,390,390,390,390,406,407,407,407,422,423,423,440,440,440,457,457,457,473,473,473,490,490,506,507,507,523,523,540,540,556,557,557,572,573,573,590,590,606,607,622,623,644,644,660,660,672,689,720,721,773,884,1204,1217,1245,1277,1280,1296,1308,1324,1324,1341,1341,1358,1358,1358,1374,1374,1391,1391,1391,1408,1408,1504,1521" d="m310,124c-1.10001,8.12801 -1.3158,9.16939 -1.79999,9.78934c-0.60495,0.77454 -1.54617,1.04886 -2.30051,1.43233c-0.66092,0.33598 -1.39285,0.95699 -2.26199,1.431c-0.6535,0.35641 -1.33676,0.69452 -2.30417,1.18066c-0.82358,0.41386 -1.55701,0.7765 -2.5,1.33334c-0.52518,0.3101 -1.37134,0.86014 -1.995,1.23782c-0.99924,0.60513 -1.71823,1.00211 -2.46368,1.38484c-0.7453,0.38264 -1.48413,0.74057 -2.55365,1.1895c-0.67337,0.28265 -1.36594,0.53391 -2.08801,0.83099c-1.23877,0.50969 -1.69949,0.7281 -2.6955,1.2c-0.52539,0.24893 -1.59781,0.77492 -2.13666,1.04201c-0.53448,0.26491 -2.05804,1.02592 -2.52884,1.26283c-0.89008,0.44791 -1.71649,0.87122 -2.10583,1.08083c-1.1048,0.59479 -1.78665,0.9953 -2.74533,1.60451c-0.62015,0.39407 -1.52023,1.00095 -2.11951,1.39867c-0.59006,0.3916 -1.43759,0.95494 -2.23468,1.43466c-0.70383,0.4236 -1.59259,0.87859 -2.36667,1.48834c-0.62628,0.49333 -1.2189,1.12431 -1.79999,1.845c-0.62067,0.76979 -0.99222,1.33911 -1.39999,1.88066c-0.785,1.04251 -1.39874,1.70859 -1.76401,2.142c-0.83658,0.99261 -1.19409,1.62143 -1.58865,2.21066c-0.54633,0.81587 -1.10379,1.40504 -1.65186,2.11433c-0.61914,0.80128 -0.9989,1.45168 -1.39548,2.13634c-0.40353,0.69666 -0.75986,1.40909 -1.59869,2.58c-0.3732,0.52095 -1.00531,1.18021 -1.5798,2.19099c-0.29709,0.52271 -0.62134,1.42166 -0.82019,2.065c-0.31824,1.0296 -0.50092,1.76611 -0.70132,2.51334c-0.29938,1.11617 -0.60316,2.17752 -0.7955,2.84283c-0.27322,0.94514 -0.46046,1.54964 -0.6205,2.75717c-0.07921,0.59763 -0.09041,1.50742 -0.30533,2.69983c-0.1082,0.6003 -0.39908,1.45413 -0.612,2.53349c-0.1398,0.70869 -0.16441,1.61932 -0.16667,2.58801c-0.00186,0.80399 0,1.62599 0,2.65717c0,0.90067 -0.03188,1.92256 0.01067,2.7215c0.04272,0.80234 0.35986,1.79369 0.564,2.39999c0.3335,0.99055 0.34811,1.81598 0.59201,2.8c0.20551,0.82915 0.55685,1.44958 0.93315,2.42117c0.30505,0.78764 0.5788,1.56026 0.81616,2.6095c0.16116,0.7124 0.39868,1.64493 0.78851,2.31667c0.54291,0.93555 1.05154,1.40645 1.77951,2.13666c0.5152,0.5168 1.30426,1.39973 1.88,1.86934c0.78003,0.63623 1.39725,1.00832 1.85748,1.74651c0.44711,0.71715 1.3963,0.89175 2.1785,1.3255c0.82016,0.45479 1.83215,0.33043 2.51599,0.85866c0.6275,0.48471 1.384,0.716 2.28403,0.716c0.89999,0 1.79999,0 2.55716,0c0.90448,0 1.7045,0 2.66415,0c0.80402,0 1.62601,0 2.65717,0c0.90067,0 1.92151,0 2.7215,0c0.80002,0 1.7955,0 2.54285,0l0.99985,0l-0.22134,-0.22133" id="svg_1" stroke-width="2" stroke="#000" fill="none"/>
  <path t="2117,2157,2170,2175,2192,2209,2209,2209,2225,2225,2241,2242,2258,2258,2273,2274,2291,2291,2308,2333,2333,2348,2369,2376,2400,2412,2424,2441,2458,2458,2474,2474,2491,2491,2524,2525,2549,2549,2617,2627,2645,2658,2672,2672,2689,2689,2690,2706,2706,2723,2723,2723,2739,2739,2739,2756,2756,2773,2773,2773,2790,2790,2790,2806,2807,2823,2823,2823,2840,2840,2840,2857,2857,2873,2873,2873,2873,2889,2890,2890,2890,2907,2907,2907,2923,2923,2923,2976,2984,2992" d="m270,215c-1.70001,1.05267 -2.42255,1.68559 -3.29999,1.94284c-0.86676,0.2541 -1.86591,0.22577 -2.53601,0.4825c-0.76447,0.29288 -1.77188,0.45572 -2.50684,0.62733c-0.93213,0.21767 -1.6149,0.72336 -2.66251,0.89465c-0.73825,0.12071 -1.66693,0.20596 -2.47382,0.55267c-0.84831,0.36452 -1.70001,0.40869 -2.63551,0.50133c-0.89626,0.08875 -1.67616,0.49106 -2.3645,0.99867c-0.69604,0.51329 -1.28447,1.07057 -1.52083,2c-0.20944,0.82362 -0.85863,1.22447 -1.00017,2.10001c-0.14607,0.90353 -0.67621,1.50189 -0.91583,2.38533c-0.24327,0.89685 -0.31071,1.7128 -0.584,2.51466c-0.34004,0.99774 -0.45592,1.78964 -0.5,2.83333c-0.03043,0.72026 -0.58566,1.16667 0.3,1.16667c0.89867,0 1.76134,0 2.58266,0c0.80534,0 1.80135,0 2.61734,0c0.81599,0 1.81467,0.00008 2.68933,0c1.01083,-0.00009 1.83554,0.01218 2.496,-0.08533c1.00732,-0.14871 1.80832,-0.44023 2.63068,-0.63068c0.99197,-0.22972 1.87341,-0.26602 2.88416,-0.28416c0.8208,-0.01472 1.49185,-0.05411 2.48383,-0.28383c0.82236,-0.19044 1.62253,-0.48782 2.63068,-0.63068c0.86917,-0.12315 1.88675,-0.05614 2.70618,-0.10616c0.66638,-0.04068 1.66315,-0.26317 2.47916,-0.47917c0.81601,-0.216 1.81821,-0.40855 2.76132,-0.52533c1.07309,-0.13287 1.70975,-0.25229 2.40002,-0.41068c0.72589,-0.16656 2.17218,-0.56335 2.85333,-0.76266c0.64951,-0.19005 1.57385,-0.48093 2.48532,-0.63466c0.89017,-0.15015 1.77509,-0.12468 2.83334,-0.33334c0.71533,-0.14105 1.505,-0.48067 2.40048,-0.77617l-0.0365,-0.05716l-0.89734,0" id="svg_2" stroke-width="2" stroke="#000" fill="none"/>
  <path t="3547,3600,3600,3629,3637,3653,3659,3675,3690,3707,3707,3724,3724,3741,3741,3741,3757,3758,3758,3758,3774,3774,3774,3791,3791,3791,3807,3807,3808,3823,3823,3824,3841,3841,3841,3841,3857,3857,3857,3857,3873,3874,3874,3874,3890,3891,3891,3891,3907,3907,3907,3908,3923,3923,3923,3923,3940,3940,3941,3941,3941,3957,3957,3957,3957,3973,3973,3974,3974,3974,3991,3991,3991,3991,3991,3991,3991,4007,4008,4008,4008,4008,4023,4024,4024,4048,4057,4074,4074,4074" d="m267,232c-1,1 -1.01874,1.8002 -1,2.7c0.01801,0.86456 0.83026,1.34894 0.99866,2.10133c0.19669,0.87883 0.62787,1.64069 0.94867,2.50768c0.23447,0.63365 0.39447,1.70602 0.66333,2.47633c0.36841,1.05553 0.67413,1.77199 1.02533,2.43999c0.50287,0.95648 0.84738,1.45909 1.36401,2.27467c0.34689,0.54761 0.97046,1.58333 1.37466,2.26401c0.49927,0.84073 1.09872,1.64687 1.64618,2.23599c0.5683,0.61154 1.17917,1.20001 1.77914,1.8c0.60001,0.60001 1.40002,1.40001 2,2c0.60001,0.60001 1.18744,1.21303 1.80902,1.8c0.65012,0.61392 1.14203,1.02957 2.03381,1.59982c0.65338,0.41782 1.37161,0.79248 2.10901,1.14301c1.07254,0.50983 2.0889,0.90573 2.72733,1.13632c0.61435,0.22189 1.8251,0.60889 2.72086,0.93152c0.60297,0.21719 1.2182,0.43948 2.40131,1.07465c0.61942,0.33255 1.23126,0.73111 1.884,1.116c1.03085,0.60785 1.76974,1.00272 2.53552,1.39868c0.78156,0.40411 1.97894,1.0004 2.379,1.19983c0.79526,0.39645 1.57541,0.78766 2.34299,1.14301c1.08511,0.50235 1.77246,0.77493 2.43182,1.03183c0.97699,0.38065 1.99326,0.78915 2.71469,1.11066c0.78003,0.34763 1.62662,0.73184 2.08667,0.91919c1.51538,0.61707 2.08646,0.79929 2.67465,0.99283c0.60147,0.19791 1.82736,0.56509 2.43735,0.73065c0.59576,0.16168 2.24393,0.54642 2.72598,0.62918c0.85507,0.14679 1.94565,0.23856 2.58066,0.3255c1.20813,0.16541 2.05914,0.43423 2.83469,0.63333c0.94672,0.24307 1.7045,-0.07318 1.32748,-0.8165l-0.61932,-0.46201l-0.62549,-0.4935" id="svg_3" stroke-width="2" stroke="#000" fill="none"/>
  <path t="5177,5350,5360,5385,5392,5409,5436,5501,5511,5524,5540,5540,5557,5573,5573,5590,5590,5607,5607,5623,5640,5640,5657,5657,5673,5673,5673,5690,5690,5690,5707,5707,5723,5723,5723,5740,5740,5740,5757,5757,5773,5773,5790,5790,5807,5823,5840,5840,5857,5857,5873,5873,5892,5892,5907,5923,5940,5940,5957,5973,5973,5990,6007,6007,6007,6023,6023,6023,6040,6057,6057,6073,6073,6090,6090,6107,6266,6293,6301,6313,6323,6340,6356,6374,6390,6391,6391,6406,6424,6440,6441,6441,6457,6457,6473,6473,6474,6490,6490,6507,6507,6507,6524,6541,6541,6560,6577,6577,6592,6607,6624,6640,6641,6657,6673,6674,6690,6691,6707,6723,6724,6740,6740,6756,6757,6774,6774,6790,6806,6807,6824,6824,6841,6856,6876,6877,6900,6912,6923,6941,6961,6973,7176,7313,7313,7323,7348,7364,7384,7400,7416,7424,7424,7440,7457,7473,7491,7506,7507,7524,7524,7541,7541,7556,7556,7590,7590,7591,7606,7606,7607,7607,7623,7624,7624,7640,7657,7657,7673,7673,7690,7706,7723,7740,7756,7756,7773,7792,7792,7806,7823,7823,7840,7856,7856,7874,7891,7891,7891,7906,7906,7906,7925,7925,7940,7940,7940,7941,7956,7956,7957,7957,7973,7974,7974,7990,7990,7991,8006,8006,8007,8023,8024,8024,8040,8040,8040,8056,8057,8057,8057,8057,8073,8074,8074,8090,8090,8091,8106,8106,8107,8123,8124,8124,8140,8140,8141,8156,8156,8157,8173,8173,8174,8190,8190,8190,8206,8206,8207,8207,8224,8224,8225,8240,8256,8257,8257,8274,8290,8306,8344,8352,8360" d="m310,124c0,-1.8 -0.31451,-2.38714 -0.83334,-3.16666c-0.47089,-0.70746 -0.52341,-1.44557 -1.08264,-2.11867c-0.55585,-0.66901 -0.73685,-1.5669 0.116,-1.716c0.80469,-0.14068 1.45361,-0.79943 2.32083,-0.97783c0.94492,-0.19439 1.68982,-0.02084 2.67899,-0.02084c0.77933,0 1.82196,-0.19112 2.59885,0.08533c0.90271,0.32124 1.45105,1.0754 2.00131,1.8c0.55768,0.73435 0.79083,1.35822 1.52133,2.31467c0.47565,0.62275 1.06546,1.17039 1.65717,2c0.41412,0.58064 0.82071,1.39974 1.3215,2.4c0.30032,0.59985 0.82657,1.58819 1.08936,2.21067c0.36295,0.85973 0.52417,1.87225 0.61066,2.6685c0.08167,0.75175 0.43405,1.67406 0.716,2.40349c0.35516,0.91881 0.32468,1.7197 0.27951,2.71284c-0.04193,0.92175 -0.51871,1.71828 -0.9115,2.60449c-0.33969,0.76645 -0.66754,1.42798 -1.38852,2.10001c-0.56064,0.52257 -1.36215,0.97667 -2.04282,1.39999c-0.91534,0.56927 -1.37512,1.1888 -2.15268,1.77917c-0.73822,0.56052 -1.6474,0.88939 -2.29999,1.23683c-0.78683,0.4189 -1.67075,0.60133 -2.54733,0.93134c-0.88788,0.33424 -1.8241,0.50763 -2.49936,0.78867c-0.61954,0.25784 -1.5697,0.67732 -2.36798,0.95332c-0.77112,0.26662 -1.86652,0.3763 -2.78534,0.77734c-0.6925,0.30226 -1.48804,0.73267 -2.21066,0.85866c-0.99341,0.17319 -1.7616,0.49339 -2.76767,0.85333c-0.84949,0.30392 -1.32724,0.89102 -1.96899,1.474c-0.57932,0.52625 -1.45065,0.64743 -2.05267,1.14734c-0.61972,0.5146 -1.38156,0.97729 -2.16666,1.5c-0.6369,0.42404 -1.36826,0.65723 -2.3125,1c-0.84534,0.30685 -1.67712,1.0179 -2.35684,1.39999c-0.56036,0.31499 -1.564,0.8 -2.164,1.10001c-1,0.5 -1.82574,0.85838 -2.34283,1.25717c-0.8403,0.64804 -1.20416,1.49265 -1.97849,2.22133c-0.4621,0.43488 -1.23999,0.76089 -2.04269,1.42149c-0.7843,0.64543 -1.29129,1.14909 -1.93149,1.90001c-0.64221,0.7533 -0.70383,1.5 -0.7045,2.39999c-0.00067,0.90001 0.02347,1.82115 -0.00134,2.784c-0.01782,0.69131 -0.44247,1.54965 -0.832,2.51601c-0.28949,0.71819 -0.17203,1.65268 -0.16666,2.51601c0.00534,0.8587 0.2283,1.80252 0.5,2.48399c0.38864,0.97475 0.52777,1.76132 0.85266,2.65717c0.2739,0.7552 0.59442,1.73903 0.63666,2.50684c0.05222,0.94931 0.17834,1.8353 0.62134,2.472c0.58936,0.84706 0.94348,1.54242 1.30533,2.47733c0.29745,0.76851 1.20807,1.07974 1.78403,1.59117c0.73227,0.65021 1.53137,0.97804 2.21597,1.5795c0.59567,0.52335 1.36966,0.57257 2.03134,1.06866c0.66843,0.50116 1.52213,0.41432 2.34818,0.65184c0.76788,0.22079 1.22516,0.98508 2.10449,0.9955c0.89993,0.01067 1.80002,0 2.70001,0c0.89999,0 1.69998,0 2.60001,0c0.89999,0 1.79999,0 2.71066,0c0.91083,0 1.79999,0 2.78915,0c0.77933,0 1.77884,0 2.55283,0c0.909,0 1.70901,0 2.66901,0c0.82501,0 1.73999,0 2.745,0c0.716,0 1.448,0 2.5235,0c0.9765,0 1.79102,0 2.64368,0c1.04083,0 1.98749,0 2.66617,0c0.97849,0 1.79868,0 2.70001,0c0.89999,0 1.79999,0 2.71066,0c0.91064,0 1.76398,0 2.70398,0c0.88535,0 1.65167,0.14799 2.52133,0.57466c0.82068,0.40265 1.58527,0.31898 2.47867,0.70934c0.95477,0.41716 1.58536,0.71385 2.55734,0.716c0.87085,0.00194 1.59354,0.03665 2.37982,-0.05716c1.27426,-0.15204 1.93234,-0.45284 2.54684,-0.74417c1.01443,-0.48094 1.62854,-0.81976 2.56799,-1.19867c0.78806,-0.31786 1.67798,-0.60667 2.32001,-0.8c1.03134,-0.31058 1.75797,-0.51027 2.85199,-0.76399c0.68991,-0.16 1.89044,-0.3725 2.6405,-0.41518c0.70267,-0.03998 1.70618,-0.02083 2.54169,-0.02083c0.88049,0 1.77942,-0.01878 2.66849,0.01067c0.85431,0.02829 1.89883,0.18213 2.58533,0.42534c0.92371,0.32727 1.91248,0.76413 2.47202,0.97466c0.91571,0.34454 1.92453,0.74602 2.63599,1.07468c0.73685,0.34038 1.46796,0.70485 2.14801,1.116c0.94379,0.57059 1.6955,1.19022 2.14801,1.56267c0.81805,0.67332 1.63211,1.19405 2.22131,1.58867c0.81561,0.54625 1.40692,1.0761 2,1.65182c0.80942,0.78575 1.41177,1.37556 1.94284,1.9955c0.66483,0.77608 1.00119,1.42038 1.54117,2.20001c0.56982,0.82271 1.13214,1.40457 1.71732,2c0.79236,0.80624 1.1987,1.19997 1.79868,1.79999c0.80005,0.80013 1.41507,1.397 2,2.05717c0.61621,0.69548 1.20233,1.49077 1.57916,2.04283c0.37045,0.54276 0.99915,1.57845 1.38486,2.25333c0.43445,0.76013 1.07736,1.59161 1.63599,2.41335c0.43323,0.63728 0.67972,1.45024 1.39999,2.18666c0.61188,0.62558 1.47867,0.868 1.94818,1.58951l-0.15085,-0.02817l-0.79733,-0.52534" id="svg_4" stroke-width="2" stroke="#000" fill="none"/>
  <path t="9533,9553,9553,9553,9553,9553,9573,9573,9592,9592,9607,9607,9624,9624,9641,9641,9657,9658,9673,9673,9690,9690,9706,9706,9723,9723,9723,9740,9740,9756,9756,9756,9756,9773,9773,9773,9790,9790,9790,9806,9806,9806,9824,9824,9824,9824,9841,9841,9841,9856,9856,9856,9856,9873,9873,9873,9873,9890,9890,9890,9890,9906,9906,9906,9923,9923,9923,9923,9940,9940,9956,9956,9973,9973,10012,10016,10024,10040,10056,10056,10077,10077,10078,10090,10090,10090,10106,10106,10123,10123,10123,10140,10140,10140,10157,10157,10157,10157,10173,10173,10173,10190,10190,10190,10206,10206,10206,10223,10224,10224,10224,10240,10241,10241,10256,10256,10273,10273,10273,10290,10290,10306,10306,10323,10340,10340,10357,10373,10373,10390,10406,10406,10424,10440,10440,10456,10456,10456,10473,10474,10490,10490,10509,10523,10523,10523,10540,10540,10540,10556,10556,10573,10573,10591,10591,10606,10606,10606,10623,10623,10640,10640,10656,10656,10673,10690,10706,10724,10724,10744,10760,10776,10800,10828,10844,10852,10860,10873,10904,10928,10928,10932" d="m339,224c16.16666,-3.33333 17.13324,-3.52122 17.94934,-3.65866c1.23685,-0.2083 2.06863,-0.32001 3.05066,-0.34134c0.78915,-0.01715 1.83334,0 2.62534,0c0.85999,0 1.77917,0 2.77466,0c0.80002,0 1.80328,-0.0553 2.57916,0.02083c0.8624,0.08463 1.6499,0.59752 2.12085,1.30051c0.43845,0.65448 1.00623,1.65262 1.39999,2.17867c0.60956,0.81432 1.0647,1.49399 1.33334,2.5c0.20959,0.78488 0.19281,1.61757 0.52383,2.60451c0.21637,0.64514 0.66385,1.55461 0.93832,2.35266c0.29099,0.8461 0.46207,1.43774 0.62048,2.64149c0.11542,0.87694 0.09006,1.735 0.37067,2.71733c0.20053,0.70192 0.59152,1.37312 1.19736,2.36934c0.33664,0.55354 0.88947,1.40546 1.34933,2.31467c0.29855,0.59026 0.63937,1.48167 0.96533,2.31467c0.39359,1.00574 0.72025,1.69885 1.00131,2.45467c0.3219,0.86568 0.50287,1.5397 0.80002,2.616c0.20193,0.73148 0.48743,1.79723 0.7045,2.4575c0.31323,0.9527 0.55402,1.56932 1.01682,2.45717c0.47681,0.9147 0.86981,1.49092 1.19467,2.09999c0.63113,1.18326 0.86005,1.79568 1.1795,2.70001c0.31647,0.89584 0.60883,1.79282 0.78366,2.37915c0.24805,0.83188 0.39362,2.07257 0.57352,2.85919c0.21341,0.93314 0.76212,1.52502 0.91132,2.487c0.10599,0.68335 0.39474,1.84872 0.01517,2.65381c-0.33255,0.70538 -1.50031,0.49847 -2.46448,0.52219c-0.72595,0.01785 -1.71069,0.2334 -2.55634,0.49866c-0.72546,0.22757 -1.59906,0.4024 -2.59836,0.46399c-0.67252,0.04144 -1.85999,0.03601 -2.67331,0.03601c-1.02002,0 -1.6965,0 -2.47202,0c-1.048,0 -2,0 -2.72449,0c-1.13284,0 -1.7955,0 -2.49017,0c-1.03201,0 -1.95715,0 -2.97916,0c-0.70352,0 -1.70618,0 -2.54169,0c-0.88049,0 -1.77933,0 -2.68982,0c-0.62534,0 -1.95599,0 -2.672,0c-0.73199,0 -1.8075,0 -2.784,0c-0.819,0 -1.72446,-0.01523 -2.73468,0.00134c-0.61972,0.01016 -1.7692,0.14966 -2.54684,0.35132c-0.7948,0.20612 -1.70956,0.54477 -2.53098,0.6265c-1.00012,0.09949 -1.6955,0.02084 -2.76367,0.02084c-0.85733,0 -1.64566,0.06674 -2.58252,-0.01068c-1.01654,-0.08398 -1.71371,-0.465 -2.12198,-1.28931c-0.4267,-0.86154 -0.85373,-1.50027 -1.45267,-2.10001c-0.69971,-0.70065 -1.25894,-1.24072 -1.69983,-2.14267c-0.33591,-0.68723 -0.62579,-1.43375 -0.81485,-2.48801c-0.15112,-0.84268 -0.0925,-1.79471 -0.08533,-2.48532c0.01044,-1.005 0.20813,-2.03098 0.436,-2.74533c0.25372,-0.79538 0.65341,-1.82191 0.96399,-2.50269c0.29019,-0.63606 0.84061,-1.61815 1.164,-2.43599c0.31042,-0.78499 0.27213,-1.62462 0.60266,-2.63333c0.23792,-0.72606 0.73944,-1.70654 0.79733,-2.41734c0.06042,-0.7422 0.03125,-1.78001 0.03601,-2.63199c0.00534,-0.95338 0.02966,-1.73534 0.35266,-2.71284c0.25204,-0.76277 0.61874,-1.64604 0.64734,-2.60449c0.02682,-0.89961 0,-1.8 0,-2.60001c0,-0.89999 0,-1.8 0,-2.7c0,-0.89999 0.00009,-1.8 0,-2.7c-0.00009,-0.89984 -0.50723,-1.409 -0.94284,-2.15717c-0.42511,-0.73013 -0.2785,-1.74284 -0.77316,-2.44284l-0.33667,-0.84283" id="svg_5" stroke-width="2" stroke="#000" fill="none"/>
  <path t="11650,11677,11677,11677,11677,11677,11677,11677,11677,11700,11700,11700,11700,11700,11712,11712,11723,11744,11761,11773,11790,11806,11824,11824,11840,11857,11857,11876,11900,11916,11916,11932,11952,11976,11984,11996,11996,12020" d="m304,207c0.44968,3.5345 0.78464,4.32542 1.17767,5.17484c0.41464,0.89612 0.85907,1.80681 1.31699,2.71049c0.44623,0.88062 0.86432,1.71877 1.672,3.11467c0.31665,0.54726 0.59518,0.98325 0.8475,1.30949c0.19708,0.25484 1.03265,0.38364 1.78583,-0.0255c0.79752,-0.43323 1.01508,-1.01524 1.23602,-1.884c0.2193,-0.86224 0.92126,-1.59697 0.96399,-2.5c0.04251,-0.89899 -0.01315,-1.75044 -0.52084,-2.39999c-0.60062,-0.76845 -1.21109,-1.37802 -1.97916,-1.97917c-0.64978,-0.50856 -1.55692,-0.81053 -2.20001,-1.16817c-0.85312,-0.47441 -1.61032,-0.97079 -2.5,-1.26733c-0.85764,-0.28587 -1.79999,-0.08533 -2.59998,-0.08533l-0.90002,0" id="svg_6" stroke-width="2" stroke="#000" fill="none"/>
  <path t="13310,13476,13505,13512,13512,13525,13542,13558,13558,13558,13558,13575,13575,13575,13576,13590,13590,13590,13590,13606,13606,13606,13606,13623,13623,13623,13623,13640,13640,13640,13640,13656,13656,13656,13656,13656,13672,13672,13672,13673,13673,13692,13692,13693,13693,13706,13706,13706,13706,13706,13706,13723,13723,13723,13723,13740,13740,13740,13740,13755,13756,13756,13756,13756,13756,13773,13773,13773,13773,13773,13792,13792,13792,13792,13805,13806,13806,13806,13823,13823,13823,13823,13823,13839,13840,13840,13856,13856,13856,13873,13873,13890,13890,13890,13890,13907,13908,13908,13923,13923,13923,13940,13940,13940,13940,13956,13956,13956,13956,13973,13973,13973,13973,13990,13990,13990,13990,14008,14008,14008,14008,14023,14023,14023,14023,14023,14023,14040,14040,14040,14040,14040,14057,14058,14058,14058,14058,14058,14058,14073,14073,14073,14073,14073,14089,14090,14090,14105,14106,14106,14106,14106,14124,14125,14125,14125,14125,14125,14142,14143,14143,14143,14143,14156,14156,14156,14156,14156,14156,14156,14173,14173,14173,14173,14173,14173,14173,14173,14190,14190,14190,14190,14190,14206,14206,14206,14206,14206,14225,14226,14226,14226,14226,14240,14240,14240,14240,14256,14256,14256,14256,14256,14256,14256,14257,14276,14276,14276,14276,14276,14276,14292,14293,14293,14293,14293,14306,14306,14306,14306,14306,14322,14323,14323,14323,14323,14340,14340,14340" d="m386,217c1.2215,0.87849 2.15347,0.81866 3,1.16667c0.67108,0.27589 1.49982,0.82291 2.42133,0.83333c0.91196,0.0103 1.59833,-0.01248 2.436,0.036c0.63156,0.03654 2.02832,0.24638 2.77866,0.38934c0.77499,0.14766 1.56137,0.32312 2.76385,0.45316c0.79361,0.08583 1.57919,0.10727 2.34299,0.117c1.09042,0.0139 1.77316,0.0045 2.75717,0.0045c0.65268,0 2.02133,0 2.75266,0c0.74734,0 1.49469,0 2.58069,0c1.01849,0 1.6875,0 2.3765,0c1.1235,0 1.9595,0 2.8515,0c0.92398,0 1.85599,0 2.772,0c0.88132,0 1.73065,0 2.556,0c0.80933,0 2.01083,0 2.81516,0c0.81635,0 1.65268,0.00024 2.96216,0c0.4545,-0.00009 1.38174,0.00589 2.3125,-0.02083c0.91135,-0.02615 1.35989,-0.00584 2.95151,-0.26317c0.71274,-0.11523 1.37964,-0.31317 2.052,-0.43201c1.39783,-0.24706 2.17471,-0.25813 3,-0.30933c0.43619,-0.02705 1.85184,-0.13168 2.88535,-0.26001c0.53796,-0.0668 1.08377,-0.14368 2.18134,-0.32533c0.5459,-0.09035 2.11853,-0.38353 3.07864,-0.58932c0.4538,-0.09727 1.31158,-0.29193 2.10583,-0.5c1.10251,-0.28882 2.10995,-0.59706 2.74533,-0.8c0.61725,-0.19714 1.81964,-0.60472 2.42984,-0.8c0.96066,-0.30745 1.65768,-0.5161 2.83368,-0.79984c0.85989,-0.20747 1.30603,-0.29979 2.20667,-0.46416c0.88089,-0.16077 2.10632,-0.3291 2.83182,-0.37885c0.96039,-0.06586 2.05219,-0.05716 2.76169,-0.05716c0.85266,0 1.85983,0 2.72916,0c1.06134,0 1.69598,0 2.37866,0c1.04401,0 2.01758,-0.04289 2.83499,0.009c0.90961,0.05775 1.9184,0.55666 2.53519,1.01183c0.66745,0.49254 1.39548,0.96904 2.22583,1.3645c0.59628,0.28398 1.25708,0.5542 2.27466,1.15733c0.74445,0.44125 1.47119,0.96881 2.22601,1.452c1.07559,0.68852 1.75717,1.05734 2.41666,1.32268c0.61667,0.24811 1.83307,0.5439 2.74051,0.6255c0.61493,0.0553 1.58081,0.05649 2.61716,0.05716c0.73999,0.00047 1.51999,0 2.34,0c1.30499,0 2.22235,0 2.69101,0c0.94733,0 1.89465,-0.00003 2.36331,0c1.36301,0.00009 2.24057,-0.0047 3.12567,0.02083c0.92569,0.0267 1.41461,0.04691 3.02234,0.2005c0.58865,0.05623 1.19406,0.13071 1.81201,0.20401c1.24814,0.14806 1.86545,0.22707 2.47198,0.29066c1.68591,0.17676 2.67599,0.23138 3.13333,0.25867c0.85068,0.05077 1.63885,0.0515 3.03467,0.31067c0.66437,0.12335 1.30701,0.33339 2.6507,0.71466c0.72009,0.20433 1.48944,0.40512 2.31598,0.60001c0.43555,0.10269 1.84955,0.4059 2.88531,0.59866c0.5368,0.0999 1.08148,0.19839 2.18134,0.36533c0.5448,0.08269 2.1167,0.27794 3.0827,0.35201c0.46234,0.03545 1.36859,0.07425 2.27332,0.13667c1.42914,0.0986 1.93927,0.15813 3.01349,0.30899c0.5647,0.0793 1.14563,0.16942 2.34735,0.40001c0.62292,0.11952 1.90137,0.40146 2.55481,0.55983c0.66119,0.16025 1.98407,0.51083 2.63733,0.69933c0.64539,0.18622 1.27759,0.37471 1.88702,0.58051c1.69879,0.57365 2.20129,0.79105 3.14667,1.188c0.87842,0.36885 1.28424,0.57968 2.508,1.04399c0.7937,0.30113 1.60498,0.53792 2.40002,0.828c0.8053,0.29382 2.00476,0.87276 2.39734,1.108c0.79199,0.47459 1.54089,1.00272 2.23199,1.548c0.94263,0.7438 1.47522,1.23799 2.01233,1.72433c0.57898,0.52425 1.62439,1.45905 2.04382,1.82266c0.45117,0.39111 1.42786,1.23145 1.9353,1.67734c0.51526,0.45276 1.0332,0.9066 1.5285,1.377c1.40796,1.33727 1.80084,1.79054 2.1792,2.22417c0.72083,0.82613 1.04547,1.24188 1.66748,2.05583c0.91278,1.19447 1.20135,1.60201 1.80402,2.39067c0.29871,0.39084 0.88373,1.16708 1.79999,2.24399c0.58838,0.69157 0.90118,1.00899 1.47919,1.66667c0.56927,0.64777 1.37372,1.65395 1.83417,2.384c0.4599,0.72916 0.83997,1.49066 1.19995,2.23199l0.46503,1.06216l0.26001,0.65567l0.21997,0.60367" id="svg_7" stroke-width="2" stroke="#000" fill="none"/>
  <path t="15706,16926,16949,16964,16992,17016,17040,17060,17060,17076,17092,17100,17106,17123,17139,17156,17156,17173,17173,17191,17206,17206,17223,17223,17239,17256,17256,17256,17273,17273,17289,17289,17306,17323,17323,17339,17356,17356,17373,17373,17389,17406,17406,17425,17425,17425,17439,17439,17456,17456,17456,17473,17473,17489,17489,17489,17489,17507,17507,17523,17523,17523,17539,17539,17539,17556,17556,17556,17573,17573,17573,17573,17573,17589,17589,17589,17589,17606,17606,17606,17623,17623,17623,17639,17639,17639,17656,17656,17656,17656,17673,17673,17673,17674,17674,17689,17689,17689,17689,17706,17706,17706,17706,17706,17723,17723,17723,17724,17739,17739,17739,17756,17756,17773,17789,17840,17848,17848" d="m321,272c0,1.61066 0.13586,2.4603 0.64734,3.05267c0.56641,0.65601 0.91464,1.41568 1.29999,2.24731c0.40399,0.87189 0.70135,1.52814 1.10535,2.40002c0.38535,0.83163 0.83585,1.64096 1.37265,2.27466c0.50278,0.59351 0.46268,1.47855 0.86002,2.22665c0.40192,0.75671 1.06253,1.42755 1.35748,2.146c0.40619,0.98935 0.66016,1.84113 1.06168,2.40985c0.6188,0.87653 0.98004,1.57709 1.24283,2.49017c0.26138,0.90823 0.4812,1.59225 0.854,2.35397c0.48892,0.99899 0.75613,1.59085 1.39734,2.51334c0.41733,0.6004 0.76929,1.52191 0.80267,2.36935c0.03406,0.86444 0.4632,1.69846 0.832,2.51599c0.32416,0.71857 0.55414,1.63892 0.814,2.34732c0.3667,0.99973 0.26224,1.88181 0.52332,2.62335c0.29623,0.84143 0.87653,1.52634 1.26135,2.34665c0.45615,0.97238 0.47464,1.67786 0.73465,2.68268c0.21146,0.8172 0.64059,1.59708 1.03336,2.40134c0.40616,0.83167 0.8056,1.76321 1.09998,2.55133c0.20392,0.5459 0.4762,1.3732 0.90002,2.362c0.37891,0.884 0.80969,1.6806 1.19998,2.496c0.30771,0.64285 0.70319,1.60947 1,2.41467c0.20218,0.54852 0.58707,1.61362 0.90451,2.32648c0.31857,0.71539 0.86072,1.78226 1.18082,2.41751c0.34912,0.69281 0.71683,1.42062 1.116,2.14801c0.58606,1.06793 0.99255,1.72202 1.56268,2.63599c0.3497,0.56061 0.96878,1.55334 1.31516,2.24667c0.3374,0.67535 0.70819,1.68961 1.04169,2.5c0.22687,0.5513 0.7796,1.59476 1.31516,2.27466c0.54749,0.6951 1.17499,1.38376 1.76849,2.18701c0.42429,0.57422 0.84717,1.20389 1.56216,2.20499c0.5134,0.71884 0.78113,1.08517 1.33334,1.8125c0.54257,0.71463 1.3259,1.69394 1.81601,2.2515c0.45187,0.51407 1.13507,1.21912 1.85065,1.936c0.51752,0.51849 1.0636,1.06476 1.64401,1.608c0.58496,0.54752 1.48254,1.31253 2.37866,1.98935c0.5705,0.43091 1.14868,0.80634 2.12399,1.63467c0.66141,0.56174 1.22824,1.08896 1.92502,1.84415c0.49582,0.53738 0.81433,1.45718 1.2825,2.23633l0.77014,0.45468l0.29919,-0.64368l-0.242,-0.642" id="svg_8" stroke-width="2" stroke="#000" fill="none"/>
  <path t="18346,18356,18356,18356,18356,18356,18356,18356,18356,18356,18374,18375,18375,18375,18375,18375,18375,18375,18375,18391,18391,18391,18391,18408,18408,18408,18425,18425,18425,18425,18441,18441,18441,18456,18456,18456,18473,18473,18473,18489,18489,18507,18507,18523,18523,18523,18539,18539,18539,18556,18556,18556,18573,18573,18573,18589,18589,18589,18606,18607,18607,18623,18623,18623,18623,18639,18639,18639,18656,18656,18656,18673,18673,18673,18689,18690,18690,18706,18707,18723,18724,18724,18740,18740,18740,18756,18756,18773,18773,18789,18789,18790,18806,18807,18823,18824,18839,18840,18857,18857,18873,18889,18889,18906,18906,18923,18923,18944,18956,18956,18973,18989,18989,19006,19006,19023,19023,19039,19040,19057,19057,19073,19073,19089,19089,19108,19123,19139,19176,19176,19323,19348,19358,19380,19389,19406,19423,19439,19440,19456,19473,19473,19489,19489,19506,19506,19523,19523,19523,19539,19539,19556,19556,19574,19574,19589,19589,19606,19606,19606,19623,19624,19639,19639,19656,19656,19673,19673,19689,19706,19706,19724,19739,19739,19756,19756,19773,19773,19789,19806,19806,19823,19824,19824,19839,19839,19856,19856,19856,19873,19873,19889,19906,19906,19924,19924,19976,19992,20105,20115,20115,20141,20156,20173,20173,20173,20173,20189,20189,20189,20189,20206,20206,20206,20224,20224,20224,20239,20240,20240,20240,20256,20256,20256,20256,20273,20273,20274,20274,20289,20289,20289,20289,20306,20306,20306,20325,20326,20326,20339,20339,20339,20356,20356,20356,20356,20357,20373,20373,20373,20389,20389,20389,20389,20406,20406,20406,20406,20423,20423,20423,20423,20423,20439,20439,20439,20439,20456,20456,20456,20473,20473,20473,20473,20489,20489,20512,20523,20539" d="m368,323c0.33334,4.83334 0.4411,5.96286 0.56934,7.228c0.13861,1.36752 0.28952,2.80295 0.45151,4.272c0.16202,1.4696 0.32364,2.90558 0.49649,4.272c0.30313,2.39633 0.45346,3.36362 0.59601,4.17599c0.11874,0.67679 0.23346,1.23093 0.345,1.677c0.08978,0.35901 0.17807,0.64197 0.255,0.867c0.11707,0.34235 0.17191,0.48523 0.20132,0.62534c0.08395,0.3999 0.08533,1.216 0.08533,2.15466c0,0.83701 -0.01352,1.72818 0.00449,2.62799c0.01801,0.90036 0.04062,1.50735 0.27951,2.70001c0.12106,0.60443 0.41318,1.49146 0.59451,2.69983c0.08893,0.5925 0.11615,1.46414 0.12149,2.53351c0.00464,0.93066 0,1.56216 0,2.56665c0,0.80002 0,1.80017 0,2.62085c0,1.14581 0,1.93182 0,2.75381c0,1.05869 0,1.77267 0,2.67801c0,0.96884 0,1.78333 0,2.65182c0,0.89551 0,1.79102 0,2.65952c0,1.06934 0,1.78333 0,2.68866c0,0.96884 0,1.78333 0,2.65182c0,0.89551 0,1.7955 0,2.6955c0,0.60001 0,1.79868 0,2.67917c0,0.83551 0,1.83817 0,2.54169c0,0.7485 0.00635,1.9473 -0.01068,2.62982c-0.01746,0.69891 -0.12067,2.02481 -0.34198,2.83499c-0.19177,0.702 -0.56769,1.71021 -0.6265,2.51434c-0.07294,0.99756 -0.02048,1.81067 -0.02084,2.45715c-0.00067,1.22552 0.04828,2.03116 -0.08533,2.7735c-0.17719,0.98459 -0.69431,1.72418 -0.82935,2.5387c-0.12338,0.74411 -0.06567,2.06439 -0.08981,2.7735c-0.02905,0.85379 -0.27783,1.85645 -0.49551,2.43631c-0.37564,1.00061 -0.49774,1.7735 -0.5,2.67801c-0.00235,0.94415 0.00186,1.93832 0,2.68567c-0.00226,0.89999 -0.38275,1.80533 -0.716,2.54251c-0.33139,0.73303 -0.28333,1.71597 -0.284,2.71014c-0.00052,0.74734 0.15338,1.7084 -0.284,2.60452c-0.32431,0.6644 -0.677,1.4368 -0.72049,2.45715c-0.03192,0.7485 -0.2818,1.74063 -0.57019,2.50684c-0.30627,0.81375 -0.42465,1.72 -0.42532,2.672c-0.00055,0.76532 0.05832,1.77063 -0.05716,2.564c-0.14752,1.01346 -0.60522,1.73648 -0.82135,2.57849c-0.20609,0.80292 0.2912,1.84494 -0.17865,2.66434c-0.39444,0.68787 -0.96991,1.35764 -0.94284,2.15717c0.02859,0.8443 0.80151,1.18137 1.70001,1.20001c0.90051,0.01868 1.61032,0.6181 2.5,0.91467c0.85764,0.28586 1.80017,0.06812 2.59998,0.08533c0.83658,0.01801 1.70444,0.24515 2.37466,0.61066c0.97443,0.5314 1.55298,1.12085 2.487,1.33667c0.78619,0.18167 1.76236,0.26324 2.55301,0.478c0.77847,0.21146 1.82645,0.44415 2.53351,0.62735c0.92664,0.24008 1.6373,0.67981 2.65182,0.862c0.79083,0.14203 1.80267,0.03796 2.60001,0.10617c1.0069,0.08612 1.79031,0.43268 2.39999,0.6265c0.98645,0.31363 1.79999,0.34732 2.79984,0.35266c0.77933,0.00415 1.91617,0 2.68417,0c0.94135,0 1.63199,0 2.616,0c0.98401,0 1.84732,0 2.74283,0c0.9585,0 1.64252,0 2.59317,0c0.76532,0 1.7807,0.12692 2.67868,-0.08533c0.89996,-0.21271 1.65002,-0.75833 2.50616,-0.91467c0.97708,-0.17844 1.78439,-0.42459 2.37915,-0.7045c1.00925,-0.47498 1.7821,-0.92017 2.60001,-1.12885c0.78717,-0.20084 1.61661,-0.19537 2.59549,-0.51932c0.76266,-0.25238 1.67035,-0.52805 2.57117,-0.814c0.85547,-0.27155 1.79309,-0.4006 2.47168,-0.88602c0.76669,-0.5484 1.59409,-0.51306 2.19501,-1.11398c0.60092,-0.60092 0.17752,-1.63339 0.16666,-2.53336c-0.01044,-0.86267 -0.16507,-1.80032 -0.35266,-2.66699c-0.14609,-0.67493 -0.34073,-1.38263 -0.52585,-2.81149c-0.08575,-0.66193 -0.11481,-1.61078 -0.12015,-2.22018c-0.01056,-1.20129 0.00043,-2.10312 -0.0585,-2.70132c-0.11877,-1.20532 -0.30884,-1.79681 -0.51752,-2.69998c-0.27637,-1.19604 -0.36246,-1.79868 -0.40448,-2.70001c-0.04193,-0.89923 -0.02084,-1.80032 -0.02084,-2.72134c0,-0.65067 0,-1.34933 0,-2.52133c0,-0.86267 0,-1.75732 0,-2.65198c0,-1.272 0,-2.03336 0,-2.72269c0,-0.9165 0,-1.96133 0,-2.65732c0,-0.90933 0,-1.91068 0,-2.74619c0,-0.88049 0,-1.77933 0,-2.68982c0,-0.62534 0,-1.95599 0,-2.67334c0,-0.74133 0,-1.49066 0,-2.23199c0,-1.39999 0,-2.05865 0,-3.03668c0,-1.01398 0,-1.73132 0,-2.47266c0,-1.12201 0,-2.20801 0,-2.892c0,-0.668 0,-1.6925 0,-2.81601c0,-0.83466 0,-1.71732 0,-2.16666c0,-0.89465 0,-2.16666 0,-2.92932c0,-1.02902 -0.00699,-1.66171 0.00015,-2.87067c0.00531,-0.90009 -0.01508,-1.50665 0.1665,-2.70001c0.09177,-0.60312 0.35709,-1.47339 0.54935,-2.31467c0.22687,-0.99265 0.27332,-1.83865 0.284,-2.79999l-0.00015,-0.98517l-0.22134,-0.77902" id="svg_9" stroke-width="2" stroke="#000" fill="none"/>
  <path t="21389,21559,21584,21585,21600,21606,21623,21639,21639,21656,21656,21673,21673,21673,21673,21673,21673,21689,21689,21689,21706,21706,21706,21706,21723,21723,21723,21739,21739,21739,21740,21756,21756,21756,21773,21773,21773,21773,21789,21789,21789,21806,21806,21806,21823,21823,21840,21840,21840,21856,21856,21856,21856,21873,21873,21873,21889,21889,21889,21889,21906,21906,21906,21923,21923,21923,21923,21939,21939,21939,21956,21956,21956,21956,21973,21973,21973,21989,21989,21989,21989,22006,22006,22006,22007,22023,22023,22023,22039,22039,22056,22056,22056,22073,22074,22074,22074,22090,22090,22090,22106,22107,22124,22124,22124,22139,22140,22156,22204,22325" d="m358,349c-0.64734,-1.58566 -0.97464,-0.9996 -1,-0.20001c-0.02859,0.9014 -0.68491,1.62314 -0.94284,2.50452c-0.24268,0.82925 -0.01306,1.6965 -0.0575,2.67484c-0.03601,0.79242 -0.32755,1.85565 -0.569,2.642c-0.13739,0.44748 -0.44919,1.4003 -0.616,1.888c-0.32748,0.95755 -0.78629,2.20761 -1.0575,2.86649c-0.33798,0.82108 -0.76694,1.7872 -1.05716,2.58133c-0.31052,0.84976 -0.50021,1.44409 -0.90002,2.64285c-0.2001,0.59998 -0.49933,1.50021 -0.79999,2.39999c-0.29932,0.89572 -0.48499,1.48471 -0.79999,2.31467c-0.38321,1.00974 -0.71725,1.70795 -1.08536,2.45468c-0.43161,0.87555 -0.94431,1.88547 -1.25333,2.616c-0.30701,0.72583 -0.64856,1.78781 -0.74701,2.453c-0.13464,0.90979 -0.11432,1.995 -0.11432,2.7045c0,0.85266 0,1.85715 0,2.65717c0,1.00034 0,1.84164 0,2.57065c0,1.19867 0,1.89069 0,2.61469c0,0.73199 -0.01016,2.12961 0.01068,2.77866c0.02994,0.93216 0.1301,1.84186 0.3465,2.73599c0.1463,0.60446 0.44357,1.50018 0.84283,2.70001c0.19971,0.6001 0.5,1.5 0.79999,2.39999c0.29999,0.89999 0.50006,1.49997 0.79999,2.39999c0.2999,0.89996 0.60818,1.79486 0.76401,2.39999c0.3067,1.19101 0.38168,2.10016 0.436,2.70001c0.08154,0.90021 0.26395,2.10654 0.44666,2.70001c0.28055,0.91132 0.70984,1.80548 1.03735,2.39999c0.50058,0.90866 0.89148,1.48535 1.34933,2.39999c0.44162,0.88223 0.62146,1.50143 1.05066,2.31467c0.54431,1.03137 1.13254,1.65106 1.63199,2.284c0.61963,0.78522 0.96994,1.39783 1.48401,2.40134c0.30859,0.60242 0.74091,1.46686 1.3215,2.42133c0.3266,0.53696 0.6803,1.09256 1.27982,1.89468c0.58026,0.77634 1.23593,1.40512 1.68436,2.0795c0.63278,0.95163 0.65985,1.82135 0.93582,2.8045c0.17221,0.61346 0.56506,1.40756 0.97852,2.19733c0.38632,0.73798 1.09549,1.49283 1.77466,2.02798l0.60001,0.60001" id="svg_10" stroke-width="2" stroke="#000" fill="none"/>
  <path t="23789,23799,23799,23799,23799,23799,23799,23799,23799,23799,23809,23809,23809,23809,23841,23841,23841,23841,23858,23858,23858,23858,23858,23858,23858,23872,23872,23872,23872,23872,23889,23889,23889,23889,23889,23906,23906,23906,23906,23906,23922,23922,23939,23939,23956,23956,24004,24020,24024,24055,24063,24072,24089,24106,24106,24106,24122,24122,24122,24139,24139,24156,24156,24172,24172,24191,24191,24208,24709,24709" d="m417,302c8.66666,20.83334 9.2287,22.1908 9.716,23.37601c0.42288,1.02853 0.78656,1.91818 1.0965,2.68649c0.26721,0.66241 0.49643,1.23685 0.6915,1.74149c0.33295,0.8613 0.47601,1.25229 0.86002,2.31335c0.2262,0.625 0.62698,1.71988 0.94498,2.448c0.35306,0.80841 0.66443,1.45877 1.02435,2.26801c0.43936,0.98782 0.6763,1.53909 0.92798,2.11465c0.52362,1.19751 0.78894,1.80371 1.056,2.40268c0.51303,1.15067 0.99646,2.19312 1.22101,2.67783c0.4209,0.9086 0.82391,1.74854 1.29501,2.9715c0.15295,0.39706 0.41876,1.19733 0.64581,2c0.22559,0.79742 0.51892,2.00049 0.72086,2.79733c0.19812,0.78183 0.38498,1.53513 0.59998,2.23199c0.3728,1.20831 0.76553,1.90353 1.03336,2.97067c0.19476,0.776 0.16666,1.83334 0.16666,2.58932c0,0.91068 0.18802,2.05225 -0.5,2.38983c-0.83121,0.40784 -1.49878,0.63568 -2.2045,1.07352c-0.68277,0.42361 -1.46317,0.94571 -2.1315,1.358c-0.76648,0.47281 -1.564,1.07333 -2.164,1.58932c-0.60001,0.51599 -1.39981,1.11282 -2.164,1.58932c-0.81589,0.50873 -1.43665,1.04767 -2.32001,1.61069c-0.67303,0.42896 -1.49448,0.89999 -2.10532,1.39999l-0.71066,0.6955l-0.70001,0.53784l-0.71466,0.25067" id="svg_11" stroke-width="2" stroke="#000" fill="none"/>
  <path t="25819,25839,25839,25839,25855,25855,25872,25872,25890,25890,25890,25907,25907,25907,25922,25922,25922,25940,25940,25940,25956,25956,25956,25956,25972,25972,25972,25989,25989,26006,26006,26006,26022,26022,26022,26022,26039,26039,26039,26039,26056,26056,26056,26056,26056,26072,26072,26072,26072,26089,26089,26089,26089,26106,26106,26106,26106,26106,26122,26122,26122,26122,26199,26209" d="m422,387c5.71399,2.85684 6.63541,3.3696 7.38199,3.63382c0.99554,0.35233 1.81799,0.36084 2.81802,0.36618c0.79999,0.00427 1.80066,-0.02374 2.61066,0.01068c0.64758,0.02753 1.87393,0.27103 2.41467,0.41464c0.82291,0.21854 1.85004,0.49026 2.77466,0.55383c0.68265,0.04694 1.68735,0.00281 2.54166,0.04169c0.94623,0.04306 1.98206,0.18768 2.70651,0.33633c0.7338,0.15057 1.4537,0.31155 2.70883,0.74265c0.7789,0.26755 1.41422,0.63162 2.44434,0.81485c0.82504,0.14673 1.76547,0.07297 2.55582,0.08981c0.85391,0.01819 2.0452,0.15076 2.64417,0.27951c0.92346,0.19849 1.54816,0.41458 2.9202,0.59467c0.73257,0.09616 1.50015,0.11038 2.28299,0.17401c1.19696,0.09726 1.99619,0.22745 2.7955,0.37265c0.80069,0.14548 1.59607,0.32309 2.79984,0.45319c0.79364,0.08575 1.57919,0.10727 2.34299,0.117c1.09042,0.01392 1.77451,0.00449 2.77802,0.00449c0.689,0 1.8125,0 2.64716,0c0.88266,0 1.78134,0 2.664,0c0.83466,0 1.94467,0 2.58466,0l0.81,0l1.21085,-0.02084l0.54166,-0.5" id="svg_12" stroke-width="2" stroke="#000" fill="none"/>
  <path t="26829,26839,26839,26839,26839,26839,26839,26839,26839,26839,26849,26849,26849,26849,26849,26849,26849,26849,26849,26858,26858,26858,26858,26858,26858,26858,26858,26858,26873,26873,26873,26873,26873,26873,26873,26873,26873,26889,26890,26890,26890,26906,26906,26906,26906,26906,26922,26922,26922,26922,26922,26939,26939,26939,26939,26956,26956,26956,26956,26956,26956,26972,26972,26972,26972,26989,26989,26989,26989,27006,27006,27006,27007,27022,27022,27022,27023,27039,27039,27039,27056,27056,27072,27072,27072,27089,27106,27106,27106,27122,27122,27139,27139,27156,27176,27217,27225,27489,27756,27776,27825,27838,27858,27858,27877,27891,27906,27906,27922,27922,27922,27939,27939,27956,27956,27957,27972,27972,27972,27989,27989,28006,28006,28006,28007,28022,28022,28039,28039,28056,28057,28072,28089,28089,28106,28123,28123,28139,28156,28156,28157,28172,28172,28189,28189,28206,28207,28222,28222,28239,28239,28239,28256,28256,28272,28272,28272,28289,28290,28306,28306,28322,28339,28356,28372,28372,28389,28406,28406,28422,28439,28439,28456,28456,28472,28472,28489,28489,28506,28522,28522,28539,28556,28556,28572,28670,28685,28708,28724,28739,28739,28756,28756,28757,28772,28772,28772,28789,28789,28806,28806,28829,28829,28829,28844,28845,28865,28888,28904,28916,28932,28949,28956,28973,28973,28989,29008,29024,29044,29068,29092,29112,29136,29137,29152,29389,29490,29500,29525,29541,29556,29572,29572,29589,29606,29622,29640,29640,29656,29656,29657,29672,29672,29689,29690,29706,29706,29707,29722,29722,29723,29739,29740,29740,29756,29757,29757,29757,29772,29772,29773,29789,29806,29822,29822,29839,29839,29857,29872,29873,29889,29889,29890,29906,29906,29922,29923,29923,29939,29939,29940,29956,29957,29957,29957,29972,29973,29973,29989,29989,29990,30006,30006,30007,30007,30022,30023,30023,30039,30039,30040,30040,30059,30059,30072,30073,30073,30073,30073,30089,30089,30090,30109,30109,30110,30110,30122,30122,30123,30139,30139,30140,30140,30156,30157,30157,30157,30172,30173,30173,30173,30173,30189,30189,30190,30191,30191,30206,30207,30207,30207,30222,30222,30223,30223,30239,30239,30240,30240,30256,30256,30257,30257,30257,30257,30272,30272,30273,30273,30289,30290,30290,30290,30307,30307,30307,30307,30308,30322,30322,30323,30323,30339,30340,30340,30356,30357,30357,30358,30372,30373,30373,30373,30389,30390,30390,30406,30407,30407,30422,30423,30439,30440,30440,30456,30456,30472,30473,30492,30508,30528" d="m535,322c-3.16669,3.66666 -3.98151,4.86734 -4.89331,6.25333c-1.00024,1.52045 -2.04944,3.14493 -3.1275,4.83002c-1.08862,1.70154 -2.15594,3.38397 -3.17255,5.00998c-1.81427,2.90192 -2.55139,4.11768 -3.18262,5.168c-0.54041,0.89923 -0.99261,1.66898 -1.37402,2.32202c-0.32257,0.55234 -0.59088,1.02441 -0.83398,1.422c-0.40753,0.66656 -0.61255,0.9541 -0.8147,1.224c-0.19373,0.25867 -0.38965,0.49948 -0.58051,0.729c-0.1839,0.22113 -0.36621,0.43051 -0.53546,0.63898c-0.32367,0.39868 -0.466,0.60159 -0.60266,0.80402c-0.13635,0.20193 -0.2674,0.40973 -0.4035,0.61951c-0.13989,0.21558 -0.28314,0.44052 -0.44855,0.66449c-0.55444,0.75092 -1.04407,1.27716 -1.57233,1.85632c-0.56635,0.62088 -1.46463,1.61978 -2.05698,2.34235c-0.30008,0.36603 -0.88687,1.11124 -1.44418,1.86334c-0.79971,1.07922 -1.03925,1.42865 -1.5,2.09549c-0.65158,0.94299 -1.0531,1.55768 -1.6575,2.45734c-0.40683,0.60556 -0.82785,1.2309 -1.314,1.85699c-0.79727,1.02673 -1.45099,1.72797 -1.79099,2.091c-0.68933,0.73602 -1.04193,1.09253 -1.72668,1.7825c-0.92221,0.92926 -1.46585,1.44803 -2.14667,2.18399c-0.42639,0.46097 -1.22324,1.47025 -1.63199,2.02133c-0.42593,0.57422 -0.85922,1.17822 -1.6105,2.064c-0.51654,0.60904 -1.09808,1.168 -1.80948,2.10001c-0.66528,0.87158 -0.96024,1.49515 -1.384,2.36401c-0.26846,0.55045 -0.85806,1.5596 -1.38535,2.21515c-0.50531,0.62823 -1.08102,1.44397 -1.62534,2.18484c-0.50967,0.69373 -1.21414,1.17834 -1.89066,1.63467c-0.867,0.58481 -1.50189,1.3576 -1.884,2.03732c-0.315,0.56036 -0.77383,1.57693 -1.20001,2.328c-0.47159,0.83112 -1.10773,1.22174 -1.87915,1.836c-0.6225,0.49567 -0.22464,1.55457 -0.53152,2.38934c-0.26443,0.7193 -1.30878,1.10559 -0.97864,2c0.27554,0.74649 1.22043,1.08716 2.08932,1.48932c0.66202,0.30643 1.43793,0.86832 2.31067,1.08533c0.88461,0.21994 1.62549,-0.02328 2.58932,0.20267c0.81857,0.19189 1.58939,0.60156 2.60449,0.78067c0.84607,0.14926 1.82211,0.25528 2.62085,0.48868c0.55328,0.16165 1.60519,0.57077 2.53867,0.95334c0.62964,0.25806 1.63907,0.5235 2.508,0.63599c1.06186,0.13748 1.69553,0.25458 2.36801,0.39999c0.99881,0.21597 2.10144,0.42285 2.81833,0.57468c0.87158,0.1846 1.69934,0.62564 2.65631,0.91599c0.67401,0.2045 1.48801,0.69199 2.18533,1.384c0.50192,0.49808 1.20001,1.20001 1.90002,1.90002c0.5,0.5 1.24384,1.17789 1.79999,1.96664c0.44733,0.63437 0.83307,1.40662 1.48401,1.948c0.64435,0.53589 1.64874,1.06509 2.21149,1.58536c0.63007,0.58252 1.17975,1.19559 1.96167,1.95267c0.54657,0.52924 1.33124,1.19803 1.93835,1.59015c0.73395,0.47406 1.51617,0.96555 2.21429,1.51434c0.72711,0.57156 1.44611,1.06073 2.18488,1.59015c0.86859,0.62247 1.48456,1.11093 2.10516,1.75269c0.56256,0.5817 1.04968,1.33792 1.54749,1.95267c0.49707,0.61383 0.35266,1.60001 0.35266,2.46332c0,0.98401 0,1.80533 0,2.65866c0,0.94135 0.04517,1.99429 -0.01068,2.6507c-0.08649,1.01633 -0.66095,1.76752 -0.90533,2.65866c-0.18494,0.67435 -0.32373,1.66754 -0.88531,2.31467c-0.55615,0.64087 -1.29865,1.30133 -1.89868,1.90134c-0.59998,0.59998 -1.38751,1.22839 -1.86401,1.89999c-0.51489,0.72565 -1.58667,1.3588 -1.37433,2.04733c0.24133,0.7825 1.57434,0.35266 2.60004,0.35266c0.79999,0 1.75964,0 2.56366,0c0.82202,0 1.85315,0 2.75385,0c0.61951,0 1.62079,0 2.42084,0c1.00128,0 1.836,0 3.02112,0c0.79352,0 1.56903,0 2.60822,0c0.76801,0 1.67065,0 2.57062,0c0.90002,0 1.80005,0 2.70001,0c0.90002,0 1.79999,0 2.70001,0c0.79999,0 1.70001,0 2.59998,0c0.90002,0 1.80005,0 2.70001,0c0.90002,0 1.79999,0 2.70001,0c0.79999,0 1.42896,-0.37064 2.2215,-0.87851c0.74658,-0.47845 1.54547,-0.4295 2.13116,-1.06882c0.5343,-0.58325 1.10028,-1.15991 1.48065,-2.05267c0.32019,-0.75153 0.16669,-1.70001 0.16669,-2.60001c0,-0.92084 -0.06409,-1.72641 0.03601,-2.61066c0.11322,-1.00015 0.49982,-1.77762 0.67999,-2.38934c0.28998,-0.98459 0.28296,-1.81393 0.56799,-2.80133c0.24518,-0.84912 0.56879,-1.76276 0.66333,-2.55133c0.09827,-0.81982 0.19806,-1.88657 0.40533,-2.59467c0.26746,-0.91376 0.55054,-1.87195 0.61133,-2.68866c0.04272,-0.57364 0.03601,-1.76401 0.03601,-2.664c0,-0.60001 0,-1.5 0,-2.69733c0,-0.86102 0,-1.63202 0,-2.58835c0,-0.91434 0,-1.81433 0,-2.69968c0,-0.94 -0.11896,-1.64041 0.02081,-2.61465c0.14478,-1.00897 0.54651,-1.74854 1.30054,-2.47867c0.46045,-0.44586 1.25812,-0.84988 1.92596,-1.6785c0.42059,-0.52185 1.06885,-1.54724 1.578,-2.14282c0.51678,-0.60452 1.1676,-1.39114 1.54938,-2.01068c0.39288,-0.63754 0.948,-1.61002 1.27795,-2.14648c0.52417,-0.8522 0.9021,-1.42557 1.46204,-2.64151c0.26819,-0.58237 0.55652,-1.45401 0.98547,-2.48001c0.29401,-0.70313 0.64417,-1.38156 1.22119,-2.34283c0.32416,-0.54001 0.86786,-1.38101 1.19464,-1.97983c0.48413,-0.88712 0.8653,-1.79007 1.03735,-2.39865c0.33521,-1.18576 0.39099,-2.09579 0.44666,-2.67917c0.07971,-0.83594 0.35535,-2.07333 0.61066,-2.78217c0.38654,-1.07303 0.59912,-1.70505 0.77869,-2.40002c0.18628,-0.7211 0.36243,-1.45114 0.52667,-2.85333c0.07587,-0.64755 0.09076,-1.58813 0.3053,-2.78531c0.10834,-0.60458 0.37329,-1.49564 0.49469,-2.10001c0.23962,-1.19272 0.26843,-2.10159 0.33667,-2.70001c0.13739,-1.20413 0.30914,-1.80237 0.52197,-2.73599c0.14771,-0.64792 0.3526,-2.04996 0.38934,-2.81067c0.03857,-0.79947 0.03534,-1.63998 0.03601,-2.51999c0.00067,-0.91736 0,-1.85867 0,-2.33334c0,-0.94733 0,-2.33334 0,-3.21466c0,-0.84933 0,-1.67468 0,-2.48401c0,-1.20117 0,-1.99683 0,-2.78049c0,-0.76367 0,-1.85419 0,-2.53552c0,-0.96448 0,-1.58081 0,-2.78583c0,-0.93149 0.00006,-1.60748 0,-2.3555c-0.00012,-1.30817 0.00378,-1.79739 -0.01068,-2.83066c-0.00751,-0.53421 -0.0368,-1.6131 -0.07465,-2.14667c-0.10822,-1.52573 -0.26196,-2.44879 -0.41467,-3.30417c-0.14233,-0.79724 -0.34863,-1.8942 -0.41467,-2.57983c-0.06421,-0.66672 -0.08215,-1.6925 -0.08533,-2.81601c-0.00232,-0.83466 -0.00659,-1.71744 -0.02081,-2.16666c-0.02826,-0.89496 -0.12524,-2.17014 -0.26318,-2.92932c-0.18799,-1.03452 -0.41315,-1.65323 -0.59448,-2.87067c-0.08893,-0.59686 -0.11615,-1.49997 -0.12152,-2.70001c-0.00269,-0.60132 0,-1.52084 0,-2.15717c0,-1.36401 0,-2.091 0,-2.82199c0,-0.711 0,-1.978 0,-2.75952c0,-0.7095 0,-1.94531 0,-2.76132c0,-0.81601 0,-1.81467 0,-2.47916c0,-1.02084 0,-1.82083 0,-2.62085c0,-1 0,-1.79999 0,-2.79868c0,-0.94415 -0.00452,-1.83966 -0.42535,-2.57599l-0.57465,-0.52533" id="svg_13" stroke-width="2" stroke="#000" fill="none"/>
  <path t="31246,31256,31256,31256,31256,31256,31256,31273,31273,31273,31291,31291,31291,31308,31308,31308,31308,31308,31322,31322,31322,31322,31339,31339,31339,31339,31339,31355,31355,31355,31355,31372,31372,31372,31372,31372,31389,31389,31389,31389,31389,31405,31405,31405,31405,31405,31422,31422,31422,31422,31439,31439,31439,31439,31455,31455,31455,31455,31455,31472,31472,31472,31472,31489,31489,31489,31489,31505,31505,31505,31505,31505,31506,31522,31522,31522,31522,31539,31539,31539,31539,31539,31556,31556,31557,31572,31572,31572,31573,31589,31589,31589,31589,31590,31605,31605,31605,31605,31622,31622,31622,31639,31639,31640,31655,31655,31655,31656,31672,31672,31672,31689,31689,31689,31689,31705,31705,31705,31706,31722,31722,31722,31739,31739,31739,31755,31755,31755,31755,31772,31772,31772,31789,31789,31805,31805,31806,31822,31822,31839,31855,31855,31872,31872,31889,31905,31922,31922,31939,31956,31977,32000,32016,32016,32025,32039,32055,32072,32089,32089,32105,32105,32106,32122,32122,32140,32156,32156,32173,32173,32189,32206,32206,32233,32249,32285" d="m571,252c6.16669,11.33334 6.58606,12.08853 7.30969,13.32382c0.29706,0.50705 0.80579,1.33057 1.1983,1.97751c0.61292,1.01013 1.00446,1.68088 1.20532,2.38266c0.28162,0.98373 0.25928,1.86652 0.45599,2.80267c0.22009,1.04752 0.53558,1.77252 0.8515,2.53418c0.32593,0.7858 0.52264,1.17075 0.95782,2.37915c0.28595,0.79401 0.51086,1.60339 0.77405,2.39999c0.39819,1.20535 0.72498,2.00146 1.07263,2.78934c0.34308,0.7775 0.70862,1.51773 1.1532,2.58936c0.27551,0.66412 0.51135,1.31787 0.71698,1.974c0.42694,1.36221 0.6051,2.11008 0.82532,2.88898c0.23218,0.8212 0.34717,1.25076 0.80054,2.57968c0.31915,0.93558 0.50507,1.40356 0.85333,2.35333c0.17322,0.47244 0.66785,1.85577 0.94,2.73868c0.25812,0.83734 0.47205,1.64072 0.68396,2.39999c0.29761,1.06638 0.50183,1.73383 0.70135,2.38666c0.30072,0.9838 0.60339,2.0206 0.79999,2.75717c0.20355,0.76273 0.40051,1.54721 0.70001,2.74283c0.20038,0.7999 0.40002,1.60001 0.59998,2.39999c0.20001,0.80002 0.50415,1.99881 0.6955,2.7955c0.18793,0.78265 0.37518,1.54285 0.53784,2.63785c0.10144,0.68298 0.1181,1.36716 0.27655,2.43365c0.18414,1.23947 0.32526,1.69901 0.59546,2.69101c0.14136,0.5191 0.4502,1.5643 0.58936,2.08398c0.38928,1.45349 0.55646,2.30081 0.6333,3.06067c0.07074,0.69958 0.07202,2.064 0.07202,2.78134c0,0.74133 0,1.49066 0,2.23199c0,1.39868 0,2.048 0,2.97949c0,0.90451 -0.00714,1.8139 0.02081,2.44617c0.04553,1.03003 0.19788,2.20142 0.26318,2.62634c0.13586,0.88351 0.30255,1.77951 0.43201,2.664c0.17896,1.22272 0.23804,1.95316 0.26318,2.62634c0.0351,0.93854 0.02081,2.14166 0.02081,2.74167c0,0.89999 0,2.09998 0,2.69998c0,0.89999 0,2.10001 0,2.70001c0,0.89999 0,1.79999 0,2.70016c0,0.91049 0,1.85699 0,2.86649c0,0.71735 0,1.45868 0,2.20801c0,1.45868 0,2.14001 0,2.78934c0,0.93149 0,2.13583 0,2.73151c0,0.8685 0,1.93784 0,2.88983c0,0.72449 0.00543,1.85739 -0.00452,2.51999c-0.01044,0.69479 -0.02307,1.73703 -0.2168,2.65167c-0.21533,1.01685 -0.54675,1.62976 -0.72601,2.64749c-0.14905,0.84613 -0.26324,1.81952 -0.47803,2.61017c-0.21149,0.77844 -0.37537,1.8493 -0.65863,2.58267c-0.30072,0.77853 -0.7937,1.69385 -0.94135,2.37732c-0.20587,0.95297 -0.6145,1.65628 -1.02734,2.52536c-0.39771,0.83725 -0.96545,1.50699 -1.64734,1.94281c-0.82397,0.52664 -1.61029,0.97537 -2.5,1.27185c-0.8576,0.2858 -1.9101,0.03076 -2.36401,-0.52533c-0.6145,-0.75284 -1.19604,-1.33032 -1.43146,-2.09384c-0.27472,-0.89096 -0.27661,-1.7869 -0.61517,-2.50616c-0.37482,-0.79633 -0.78961,-1.5892 -1.18933,-2.38934c-0.39893,-0.79855 -0.8017,-1.55087 -1.11603,-2.51465c-0.28528,-0.87479 -0.75629,-1.48828 -1,-2.36935c-0.23303,-0.84244 -0.53967,-1.70251 -0.9173,-2.51599c-0.35303,-0.76041 -0.74133,-1.60001 -1.14136,-2.38934l-0.52533,-0.61066" id="svg_14" stroke-width="2" stroke="#000" fill="none"/>
  <path t="32995,33005,33005,33005,33005,33005,33021,33021,33039,33056,33056,33072,33073,33073,33089,33090,33090,33106,33106,33122,33123,33140,33156,33156,33172,33237,33237,33253,33261,33272,33289,33306,33306,33306,33323,33323,33323,33339,33340,33340,33356,33356,33373,33373,33389,33390,33390,33406,33406,33406,33423,33423,33439,33440,33456,33456,33456,33472,33532,33539" d="m503,398c2.33334,17 2.43484,18.01199 2.45999,18.86267c0.03778,1.27811 -0.07019,2.1084 -0.29333,2.97067c-0.22287,0.86124 -0.72836,1.52139 -1.04532,2.48816c-0.22113,0.67447 -0.25864,1.68884 -0.55734,2.48917c-0.24478,0.65582 -0.66095,1.61166 -0.96399,2.40399c-0.29703,0.77667 -0.85089,1.78644 -1.164,2.39999c-0.42633,0.83542 -0.3826,1.77551 -0.78867,2.62817c-0.38562,0.80972 -0.77414,1.53409 -1.14734,2.27802c-0.47021,0.93732 -0.73318,1.68069 -0.49551,2.7175c0.17648,0.7699 0.81055,1.43494 1.55801,1.74081c0.9075,0.3714 1.69882,0.02084 2.48932,0.02084c1.02686,0 1.94818,0 2.63217,0c1,0 1.81601,0 2.63202,0c1.22684,0 1.87332,0 2.88416,0c0.82065,0 1.96652,0 2.75247,0c0.82202,0 1.88068,0 2.59021,0c0.85266,0 1.85718,0 2.65717,0c1,0 1.79999,0 2.79999,0c0.78931,0 1.51465,0 2.58936,0l0.88983,-0.02084l0.51013,-0.58981" id="svg_15" stroke-width="2" stroke="#000" fill="none"/>
 </g>
 <g display="none">
  <title>muse_image</title>
  <image xlink:href="http://farm3.static.flickr.com/2053/1575679318_8f64150f4e.jpg" id="muse" height="426" width="640" y="27" x="0"/>
 </g>
 <g display="none">
  <title>bbox</title>
  <rect stroke="#f00" fill="none" stroke-width="3" height="255.85586" width="358.4" y="148.53153" x="240.64" id="bbox"/>
 </g>
</svg>
