<svg width="640" height="480" xmlns="http://www.w3.org/2000/svg" xmlns:svg="http://www.w3.org/2000/svg" xmlns:xlink="http://www.w3.org/1999/xlink">
 <!-- Sketchy ANNOTATION
  ImageNet ID: n02503517_5287
  URL: http://farm1.static.flickr.com/21/34490227_b23f531769.jpg
  Image Width: 500
  Image Height: 408
  BBox X: 190
  BBox Y: 9
  BBox Width: 229
  BBox Height: 363
  Exposure: 2000ms
  Synset Label: elephant
  Synset ID: n02503517
  Worker Tag: elephant walking forward
  Sanity Check: 
   Context
   Saved
   Shading
  Comment: 
   {}
  Worker ID: A1P7U2ULSAE7YL
  Assignment ID: 3B3WTRP3DB2U4PLF7FQ61X6U45E296
  HIT ID: 3P4C70TRMRHDX1W15P9JJQW5DX2LGQ
  Work Time: 159s
  Worker Score: 0.9286
 END ANNOTATION -->
 <g display="inline">
  <title>Layer 1</title>
  <path t="0,262,270,278,286,302,326,334,334,350,357,374,382,398,422,446,462,493,494,510,526,542,574,606,622,662,686,710,734,734,758,758,774,798,829,838,854,854,862,886,918,926,934,950,958,974,990,1005,1085,1102,1110,1126,1142,1142,1150,1150,1158,1166,1182,1182,1190,1190,1198,1214,1222,1238,1262,1269,1302,1318,1342,1350,1358,1374,1390,1390,1398,1398,1438,1446,1446,1478,1517,1542,1558,1582,1590,1590,1605,1638,1670,1686,1710,1741,1765,1782,1782,1806,1806,1830,1853,1862,1870,1893,1918,1941,1949,1958,1974,1990,2029,2046,2046,2062,2110,2141,2174,2181,2182,2229,2253,2262,2286,2293,2302,2333,2334,2358,2406,2414,2454,2462,2525,2534,2542,2550,2574,2622,2622,2646,2670,2670,2685,2693,2702,2718,2718,2734,2742,2759,2766,2781,2782,2790,2798,2798,2814,2829,2838,2853,2861,2886,2917,2934,2934,2950,2982,3006,3014,3022,3038,3039,3047,3070,3078,3087,3102,3110,3126,3150,3151,3166,3191,3223,3238,3278,3294,3302,3318,3319,3326,3334,3335,3342,3359,3366,3382,3406,3422,3423,3438,3447,3447,3455,3455,3463,3471,3471,3471,3479,3487,3495,3519,3527,3550,3590,3622,3630,3654,3663,3886,3918,3934,3944,3960,3982,3998,4014,4046,4070,4086,4134,4158,4174,4182,4206,4214,4223,4230,4246,4255,4278,4302,4310,4326,4327,4342,4350,4382,4382,4406,4430,4438,4439,4462,4486,4510,4526,4542,4551,4551,4566,4575,4583,4590,4607,4624,4639,4639,4646,4647,4655,4662,4670,4671,4686,4702,4703,4710,4719,4726,4727,4742,4751,4751,4758,4774,4782,4790,4798,4814,4814,4830,4839,4839,4847,4855,4863,4871,4879,4879,4886,4895,4903,4903,4910,4919,4919,4919,4927,4927,4935,4942,4951,4958,4967,4974,4982,4990,4991,5007,5008,5015,5015,5024,5024,5031,5040,5041,5047,5054,5055,5062,5070,5078,5079,5086,5087,5095,5118,5119,5128,5150,5158,5167,5174,5183,5190,5214,5224,5224,5240,5247,5255" d="m316.51135,91.09091c1.60001,-0.61066 2.23297,-1.39639 3,-1.83334c0.77988,-0.44427 1.22452,-1.0253 2.10001,-1.16683c0.90353,-0.14606 1.42615,-0.71396 1.91068,-1.42516c0.46365,-0.68054 0.98975,-1.36722 1.79068,-1.57333c0.87213,-0.22444 1.62119,-0.68687 2.49866,-0.94417c0.86545,-0.25378 1.73428,-0.18192 2.39999,-0.76167c0.63513,-0.5531 1.39386,-1.23462 2.29999,-1.2955c0.83148,-0.05587 1.70453,0 2.60001,0c0.89999,0 1.80002,0 2.7045,0c0.86218,0 1.6955,0 2.67401,0c0.82016,0 1.72153,-0.00529 2.58551,0c0.87204,0.00533 1.64545,0.52719 2.53598,0.8785c0.66071,0.26064 1.60001,0.1215 2.5,0.1215c0.89999,0 1.81738,0.08949 2.42535,0.57467c0.62448,0.49837 1.64151,0.348 2.36398,0.85066c0.74945,0.52143 1.26755,1.37486 2.11066,1.55383c0.88065,0.18694 1.80002,0.02084 2.70135,0.02084c0.96533,0 1.62399,0 2.63199,0c0.86218,0 1.76666,0.00064 2.6875,0c0.96317,-0.00067 1.70248,0.10408 2.59384,-0.284c0.74173,-0.32294 1.61218,-0.53004 2.48532,-0.752c0.8623,-0.21921 1.59698,-0.92128 2.5,-0.964c0.89899,-0.04253 1.30484,-0.41715 1.92084,-0.97916c0.58191,-0.53091 1.51685,-0.76572 2.37918,-0.98484c0.8775,-0.22297 1.76666,-0.20267 2.59998,-0.536c0.83334,-0.33334 1.38162,-0.81154 2.16669,-1.33334c0.70773,-0.47041 1.63333,-0.16666 2.548,-0.16666c0.896,0 1.82004,0.05291 2.58533,-0.35267c0.84589,-0.4483 1.69998,-0.64733 2.5,-0.64733c0.89999,0 1.79999,0 2.69998,0c0.90002,0 1.7955,0 2.66669,0c0.93332,0 1.83331,0 2.59048,0c0.89551,0 1.75888,-0.00565 2.72202,0c0.91022,0.00533 1.39474,0.72559 2.1315,0.98933c0.83734,0.29974 1.77866,0.0099 2.74649,0.01067c0.84149,0.00067 1.37997,0.61172 2.07883,0.964c0.86145,0.43423 1.91406,-0.09566 2.664,0.25733c0.77554,0.36504 1.28476,1.09005 2.06668,1.61201c0.70682,0.47181 1.56085,0.3839 2,1.16666c0.39273,0.70001 0.87418,1.39834 1.40799,2.02533c0.47891,0.56248 0.85806,1.37019 1.34134,2.17334c0.44803,0.74457 1.30353,1.06477 1.884,1.60266c0.70383,0.65219 1.4299,1.07764 2.29984,1.19884c0.80188,0.11172 1.50784,0.73901 1.86417,1.43583c0.43454,0.84982 0.4826,1.61781 1.06134,2.13867c0.63785,0.57407 1.18866,1.35938 1.86133,1.424c0.93445,0.08977 1.93726,0.18594 2.70267,0.576c0.80127,0.40833 1.71066,0.42533 2.61066,0.42533c0.90018,0 1.68533,0 2.61465,0c0.9425,0 1.70618,0 2.59601,0c0.91068,0 1.76807,0.08598 2.70401,-0.00134c0.89673,-0.08366 1.539,-0.79382 2.38531,-0.97783c0.88,-0.19134 1.75122,-0.45371 2.5,-0.85417c0.79144,-0.42329 1.28931,-1.04948 2.10001,-1.16683c0.90582,-0.13112 1.55261,-0.8 2.39999,-0.979c0.88083,-0.18606 1.80002,-0.02084 2.70001,-0.02084c0.89999,0 1.79999,0 2.60001,0c0.91467,0 1.81067,0 2.69998,0c0.90002,0 1.80002,0 2.70001,0c0.89999,0 1.79999,0 2.60001,0c0.89999,0 1.79999,0 2.69998,0c0.88934,0 1.85718,0 2.70001,0c0.89999,0 1.83484,-0.16328 2.60001,0.08533c0.79089,0.25697 1.72711,0.66983 2.49017,0.96733c0.76535,0.2984 1.32043,0.942 2.20981,0.94733c0.97916,0.00587 1.90918,-0.11982 2.70001,0.284c0.65848,0.33623 1.45859,0.67667 2.284,1.00134c0.89313,0.3513 1.56033,1.02306 2.31467,1.42934c0.81613,0.43954 1.75354,0.47749 2.44135,0.72133c0.9213,0.32662 1.67303,0.94334 2.25998,1.564c0.53497,0.56572 1.20462,0.98714 2.10001,1c0.87933,0.01263 1.44391,0.66178 2.10452,1.05267c0.78543,0.46474 1.86932,0.65293 2.25949,1.38333c0.40744,0.76275 0.03598,1.764 0.03598,2.664c0,0.9 0.48318,1.50718 0.91467,2.18533c0.49316,0.77505 0.08533,1.8145 0.08533,2.68933c0,0.82667 0.01065,1.7254 0,2.62534c-0.01041,0.87935 -0.73151,1.25099 -1.38931,1.836c-0.69284,0.61616 -0.36374,1.79823 -0.89468,2.48c-0.48795,0.62657 -1.2605,0.87452 -2.01147,1.44116c-0.66907,0.50484 -1.10202,1.31245 -1.62051,1.92817c-0.56039,0.66548 -0.56458,1.6529 -1.13666,2.3575c-0.50214,0.61846 -0.91016,1.35803 -0.94736,2.15717c-0.04272,0.91765 -0.91626,1.3543 -1,2.2c-0.07883,0.79611 0.18378,1.72649 -0.03598,2.60001c-0.21704,0.86282 -0.9213,1.59697 -0.96402,2.5c-0.04254,0.89899 0,1.7 0,2.59999c0,0.90001 0,1.8 0,2.7c0,0.90001 0,1.80135 0,2.76668c0,0.65866 0,1.66666 0,2.52882c0,0.90451 0,1.82533 0,2.7885c0,0.69067 0,1.76334 0,2.68268c0,0.8125 0.0654,1.731 -0.00449,2.53867c-0.08405,0.97128 -0.832,1.43445 -0.97467,2.31549c-0.15314,0.94559 -0.02084,1.77783 -0.02084,2.67917c0,0.90001 0,1.8 0,2.7c0,0.89551 -0.30258,1.67082 -0.71597,2.40134c-0.43256,0.76439 -0.28403,1.68266 -0.28403,2.54601c0,0.89549 0.15866,1.95001 -0.35266,2.59999c-0.49316,0.62689 -0.87558,1.3712 -1.14734,2.05267c-0.38861,0.97443 -0.72952,1.70628 -1.5,2.16667c-0.71948,0.42992 -0.98499,1.37486 -1,2.16666c-0.0174,0.91724 0.11838,1.71638 -0.28531,2.696c-0.29843,0.7242 -1.31213,1.2677 -1.62933,2.17067c-0.29956,0.8528 -0.15503,1.69693 -0.58536,2.32083c-0.56726,0.82245 -0.91837,1.60193 -1.33331,2.47917c-0.33707,0.7126 -0.51563,1.661 -0.77734,2.21066c-0.4744,0.99634 -0.93085,1.74525 -1.22266,2.62267c-0.28076,0.84416 -0.59348,1.5755 -1.26666,2.26668c-0.59204,0.60786 -1.4014,1.08476 -1.7785,2.00015c-0.30255,0.73444 0.13525,1.81787 -0.34283,2.65718c-0.41595,0.73026 -0.65128,1.58615 -1.34668,2.07333c-0.62125,0.43521 -1.33221,0.8508 -1.71732,1.73732c-0.26544,0.61102 -1.00488,1.37465 -1.93619,1.43201c-0.87668,0.054 -1.60022,0.30054 -1.77866,1.09984c-0.18826,0.84335 -0.81104,1.5717 -1.5415,1.87933c-0.86749,0.36533 -1.7485,0.07799 -2.4375,0.54166l-0.3735,0.77917l-0.526,0.79984" id="svg_1" stroke-width="2" stroke="#000" fill="none"/>
  <path t="6679,6902,6949,6991,7015,7054,7070,7142,7166,7174,7206,7270,7286,7318,7334,7350,7382,7398,7414,7430,7430,7446,7454,7478,7518,7566,7598,7614,7622,7623,7638,7654,7662,7686,7702,7726,7726,7742,7758,7774,7774,7790,7798,7830,7846,7863,7870,7870,7887,7903,7926,7950,7950,7966,7998,8014,8030,8054,8054,8070,8070,8086,8110,8126,8174,8230,8270,8270,8302,8318,8327,8350,8366,8390,8406,8430,8446,8462,8462,8478,8510,8526,8536,8536,8550,8566,8598,8750,8774,8790,8798,8807,8823,8846,8846,8863,8878,8902,8902,8911,8926,8926,8936,8950,8958,8966,8975,8982,8982,8998,8998,9006,9014,9038,9054,9054,9070,9086,9094,9095,9102,9110,9126,9135,9142,9152,9159,9174,9175,9182,9182,9190,9206,9207,9214,9222,9230,9238,9246,9255,9262,9271,9278,9289,9305,9310,9310,9318,9326,9342,9358,9374,9375,9390,9398,9398,9406,9422,9438,9439,9446,9455,9462,9478,9488,9494,9510,9510,9518,9535,9542,9558,9574,9582,9582,9590,9590,9598,9607,9614,9614,9622,9630,9638,9646,9654,9671,9678,9678,9688,9694,9694,9705,9705,9719,9719,9735,9742,9752,9768,9768,9782,9783,9790,9814,9830,9830,9838,9838,9846,9854,9878,9902,9918,9934,9943,9974,9974,9983,9998,10007,10007,10014,10030,10038,10046,10062,10071,10087,10088,10094,10104,10121,10134,10142,10143,10151,10167,10174,10190,10198,10207,10222,10223,10238,10246,10254,10262,10286,10310,10326,10337,10351,10358,10359,10367,10384,10384,10406,10438,11566,11576,11576,11576,11582,11583,11590,11591,11591,11599,11599,11599,11607,11607,11616,11616,11623,11630,11630,11638,11654,11655,11718,11734,11734,11742,11752,11769,11790,11814,11830,11830,11846,11854,11863,11870,11878,11886,11902,11903,11910,11926,11950,11966,11982,11982,11998,12014,12014,12023,12023,12046,12054,12054,12078,12094,12102,12119,12135,12136,12152,12158,12174,12185,12190,12206,12222,12246,12254,12255,12270,12271,12278,12294,12302,12310,12310,12318,12326,12334,12342,12352,12358,12358,12368,12374,12375,12390,12398,12406,12422,12431,12438,12446,12462,12462,12478,12478,12486,12502,12526,12535,12551,12558,12559,12567,12574,12590,12606,12606,12622,12638,12648,12648,12655,12662,12678,12694,12694,12710,12710,12726,12726,12736,12742,12754,12770,12775,12775,12784,12791,12791,12798,12815,12823,12823,12831,12839,12839,12854,12854,12863,12870,12878,12894,12926,12942,12942,12954,12954,12958,12970,12987,12987,12991,12991,12998,13022,13031,13038,13039,13054,13054,13064,13078,13079,13094,13094,13102,13120,13120,13126,13126,13142,13153,13153,13174,13186,13191,13203,13230,13230,13238,13238,13247,13254,13255,13264,13279,13287,13294,13303,13318,13326,13327,13342,13353,13358,13369,13386,13391,13391,13398,13407,13422,13430,13431,13447,13448,13454,13464,13479,13486,13494,13495,13518,13526,13534,13553,13558,13559,13569,13570,13575,13590,13603,13607,13622,13623,13639,13647,13654,13664,13670,13671,13686,13694,13703,13710,13726,13736,13750,13769,13770,13775,13775,13785,13803,13806,13807,13822,13830,13839,13854,13878,13887,13895,13904,13904,13910,13911,13911,13918,13918,13926,13958,13967,13986,13991,14006,14019,14142,14151,14158,14174,14190,14190,14214,14302,14318,14335,14336,14342,14343,14352,14390,14470,14481,14482,14486,14487,14487,14496,14496,14506,14521,14538,14646,14662" d="m315.51135,90.09091c1,0.97466 0.55389,1.54758 0.08536,2.28533c-0.43915,0.69147 0.23703,1.86846 -0.30667,2.59333c-0.4823,0.64302 -0.65466,1.32994 -0.77884,2.22117c-0.11172,0.80188 -0.8851,1.26323 -0.99985,2.09884c-0.11133,0.81087 -1.22491,0.54505 -1.87866,1.02266c-0.69907,0.51071 -1.32132,0.77867 -2.22131,0.77867c-0.90002,0 -1.70001,0 -2.60001,0c-0.89999,0 -1.80002,0 -2.68933,0c-0.96783,0 -1.81067,0 -2.71066,0c-0.90002,0 -1.7002,0.01799 -2.60001,0c-0.90054,-0.01801 -1.61035,-0.61812 -2.5,-0.91467c-0.85764,-0.28587 -1.83646,0.08281 -2.60001,-0.17067c-0.77219,-0.25634 -1.64584,-0.79011 -2.39999,-1.19867c-0.65009,-0.35218 -1.5,-0.71375 -2.39999,-0.716c-0.90002,-0.00225 -1.84711,0.094 -2.70001,-0.35267c-0.75223,-0.39395 -1.53244,-0.4059 -2.41467,-0.64733c-0.80768,-0.22103 -1.53894,-0.78903 -2.38531,-1.22134c-0.6553,-0.33472 -1.49994,-0.77333 -2.40002,-0.77866c-0.89996,-0.00533 -1.80447,0 -2.66666,0c-0.83334,0 -1.81183,0 -2.63199,0c-0.90134,0 -1.80133,0 -2.70135,0c-0.89999,0 -1.85004,-0.13166 -2.59998,0.22133c-0.77554,0.36504 -1.50006,0.76376 -2.40002,0.77867c-0.97925,0.01622 -1.48416,0.63291 -1.92532,1.4c-0.41571,0.72282 -1.11969,1.27129 -1.51749,1.95716c-0.47192,0.81371 -0.6236,1.59388 -1.409,1.63834c-0.88513,0.0501 -1.5022,0.45274 -1.65268,1.3045c-0.16379,0.92717 -1.01608,1.08484 -1.71017,1.784c-0.54355,0.54752 -0.69653,1.73858 -0.22815,2.55883c0.46432,0.81315 1.24838,1.12684 1.89017,1.70984c0.57928,0.52623 1.42816,0.47541 2.25266,0.93266c0.69205,0.38381 1.25436,1.27729 2,1.63067c0.85886,0.40704 1.50113,0.78736 2.20001,1.484c0.60095,0.59902 1.15726,1.24583 1.89999,1.8955c0.66443,0.58118 1.53333,0.87116 1.69998,1.7045c0.16669,0.83334 1.00629,1.32853 1.40002,1.85066c0.6098,0.80868 1.31482,1.31728 1.59998,2.14934c0.28418,0.82928 0.81747,1.28914 1.22153,2.1c0.34354,0.6894 1.27808,1.23466 1.65717,2c0.41943,0.84677 0.54535,1.59042 1.12131,2.37917c0.46753,0.64028 0.81503,1.25208 1.03601,2.12084c0.2193,0.86224 0.92126,1.59547 0.96399,2.45267c0.04715,0.94615 0,1.7045 0,2.59999c0,0.86334 0,1.84734 0,2.66867c0,0.85333 0,1.79333 0,2.77867c0,0.89999 0,1.73332 0,2.60449c0,0.89551 0,1.7955 0,2.6955c0,0.90001 0,1.8 0,2.70001c0,0.89999 0,1.7 0,2.59999c0,0.864 0,1.82083 0,2.71066c0,0.91068 0,1.58934 0,2.70401c0,0.88533 0,1.68533 0,2.58533c0,0.82083 -0.21628,1.82834 0.05719,2.59016c0.30081,0.83798 0.94055,1.41432 0.94281,2.30984c0.00226,0.89999 -0.09543,1.84453 0.28403,2.59999c0.43558,0.86719 0.7153,1.60001 0.71597,2.5c0.00067,0.90001 -0.00067,1.8 0,2.68933c0.00067,0.89734 0.16327,1.7787 0.42535,2.436c0.40274,1.0101 0.1839,1.86115 0.61066,2.73866c0.33237,0.68346 1.3215,1.11598 1.60684,1.78784c0.4151,0.9774 0.08304,1.91859 0.4425,2.73216c0.33832,0.76575 0.6499,1.46164 0.936,2.31599c0.30768,0.91879 1.32538,1.03859 1.8688,1.90451c0.48129,0.76692 0.36682,1.66078 1.10983,2.36217c0.60135,0.56766 1.2117,1.30507 1.57468,1.93333c0.48856,0.84566 1.07172,1.20955 1.81467,1.836c0.63068,0.53178 0.61557,1.48328 1.04666,2.37866c0.31067,0.64531 1.24252,1.18753 1.53867,2.04666c0.32288,0.93669 0.5097,1.6541 1.22534,2.33734c0.57239,0.54646 1.58835,0.80087 1.79868,1.60266c0.21405,0.81593 0.92743,1.13264 1.4805,1.7195c0.69214,0.73442 0.72281,1.78645 1.52081,2.3125c0.65936,0.43466 0.70142,1.34125 1.28534,1.99734c0.60068,0.6749 1.53885,0.60982 2.27869,1.19466c0.67822,0.53613 1.27182,0.7784 2.13599,1.03183c0.87741,0.25732 1.67285,0.73822 2.5,1.22818c0.68088,0.40331 1.09711,1.31148 1.99866,1.62933c0.83884,0.29575 1.56262,0.44698 2.02286,1.18517c0.44711,0.71715 1.31104,0.98846 1.81448,1.47482c0.56815,0.54884 1.58362,0.42339 2.36401,0.85068c0.82254,0.45038 1.59998,0.57466 2.39999,0.57466c0.89999,0 1.91214,-0.4167 2.76401,0.036c0.73123,0.38858 0.86963,1.63792 1.73148,1.90683c0.83344,0.26004 1.384,0.62691 2.15118,1.02118c0.77844,0.40007 1.73972,-0.0148 2.50266,0.46133c0.67004,0.41818 1.4025,0.5724 2.41467,0.57466c0.936,0.00208 1.98911,-0.18378 2.63599,0.5c0.43686,0.46178 0.61511,1.58736 1.3215,2.13567c0.6084,0.47226 1.70117,0.4731 2.47852,0.811c0.62149,0.27016 1.58868,1.04999 2.19998,1.5325c0.58942,0.46524 1.60147,0.9037 2.40002,1.069c0.80121,0.16585 1.73056,0.52124 2.54932,0.9265c0.76294,0.37762 1.41205,0.71567 2.29352,1.32083c0.76566,0.52565 1.51889,0.66483 2.25714,1.22533c0.77606,0.58923 1.31818,1.15059 2.10001,1.5045c0.81061,0.36694 0.99051,1.36339 1.56668,1.97467c0.54996,0.58348 1.15945,1.03667 1.54932,1.8c0.38455,0.7529 -0.0827,1.77971 0.30484,2.67917c0.3078,0.71434 0.94156,1.28587 1.5,2.02083c0.50446,0.66391 1.28656,1.15292 1.46851,2.10001c0.16589,0.86343 -0.07471,1.87753 0.29468,2.59999c0.4418,0.86404 0.7251,1.52643 1.23682,2.32083c0.53503,0.83055 1.0108,1.45877 1.3125,2.3125c0.30487,0.86273 1.08292,1.32098 1.16666,2.16667c0.07883,0.79611 0.02289,1.81781 0.42535,2.436c0.5495,0.84401 0.57465,1.664 0.57465,2.564c0,0.8 0,1.7 0,2.60001c0,0.89999 0,1.79999 0,2.69998c0,0.99551 0,1.80984 0,2.72086c0,0.95782 0,1.73181 0,2.63184c0,0.86331 0,1.82648 0,2.64731c0,0.90134 0,1.86667 0,2.67917c0,0.9595 0,1.72534 0,2.62085c0,0.89999 0,1.81067 0,2.72131c0,0.85333 0,1.79333 0,2.67868c0,0.88535 0,1.81467 0,2.66666c0,0.85419 0,1.73334 0,2.63333c0,0.90002 0,1.80002 0,2.70001c0,0.88535 0,1.82532 0,2.51599c0,1.07333 0,1.96317 0,2.84119c0,0.84283 0,1.74283 0,2.64282c0,0.79999 0,1.70001 0,2.60001c0,0.92084 0,1.884 0,2.57465c0,1.06818 0,1.92535 0,2.82535c0,0.79999 0,1.70001 0,2.60001c0,0.92084 0,1.88531 0,2.61066c0,0.98917 0,1.76849 0,2.76782c0,0.82019 0,1.72153 0,2.62152c0,0.89999 0,1.81067 0,2.72131c0,0.85333 0,1.79333 0,2.67868c0,0.88535 -0.12936,1.82455 0,2.66666c0.14368,0.93533 0.70013,1.48196 0.91467,2.448c0.21448,0.96567 0.08533,1.77069 0.08533,2.71066c0,0.69067 0,1.76401 0,2.67468c0,0.89999 0,1.79999 0,2.70132c0,0.96533 -0.15826,1.66513 0.16669,2.63202c0.27365,0.8143 0.81531,1.5661 0.83331,2.47116c0.01715,0.86197 0,1.6955 0,2.67398c0,0.82019 -0.01367,1.74442 0.42535,2.45752c0.47601,0.77322 0.88351,1.61505 1.22198,2.32117c0.40762,0.85037 0.3504,1.59015 0.35266,2.61749c0.00208,0.94684 0,1.64618 0,2.62534c0,0.95834 -0.03113,1.8327 0.00452,2.71432c0.02814,0.69611 0.28699,1.68152 0.57016,2.44968c0.34924,0.9473 0.42532,1.836 0.42532,2.63599c0,0.90002 0,1.80002 0,2.70001c0,0.97916 -0.09271,1.84235 0.03601,2.68533c0.14517,0.95084 0.80948,1.58167 0.95334,2.45065c0.13852,0.8367 0.01065,1.71133 0.01065,2.72803c0,0.836 -0.00217,1.73599 0,2.63599c0.00226,0.94284 0.91626,1.1543 1,2c0.07883,0.79608 0,1.70001 0,2.60001c0,0.89999 -0.13272,1.81049 0.00452,2.69998c0.14368,0.9314 0.84723,1.46863 0.991,2.40002c0.13181,0.85388 -0.05243,1.76575 0.22583,2.62131c0.28568,0.8783 0.71649,1.65063 0.77734,2.47736c0.06616,0.8989 -0.0011,1.8212 0.42667,2.60132c0.4512,0.82291 0.90674,1.62524 1.29065,2.31467c0.41583,0.74677 0.284,1.68533 0.284,2.58533c0,0.90134 -0.04517,1.86896 0.01068,2.52533c0.08649,1.01636 0.73621,1.70197 0.95334,2.57468c0.21747,0.87405 -0.04358,1.80225 0.03598,2.68399c0.08368,0.92728 0.7612,1.45367 0.97919,2.41602c0.19888,0.87799 -0.07007,1.80472 0.02216,2.70001c0.08371,0.81259 0.79382,1.45367 0.97784,2.29999c0.19135,0.87997 0.36465,1.80368 0.96817,2.44733c0.54477,0.58099 0.91714,1.36121 1.05399,2.25269c0.14059,0.91592 0.76187,1.52692 0.9415,2.45267c0.16479,0.84927 -0.00912,1.86734 0.40985,2.64731c0.40182,0.74805 0.56421,1.64777 1.258,2.26401c0.65817,0.58463 1.3295,0.98682 1.742,1.73599c0.4617,0.8385 0.54315,1.66144 0.7045,2.46167c0.18692,0.92722 0.67099,1.66751 1.26416,2.43835c0.47787,0.62097 1.06049,1.17395 1.65717,1.99966c0.53238,0.73676 1.07675,1.35291 1.85483,1.80032c0.7334,0.42172 0.87335,1.57187 1.60266,1.96399c0.75784,0.40747 1.57895,0.42358 2.13867,1.06134c0.51746,0.5896 1.22668,0.974 2.06134,0.97467c1.01666,0.00082 1.71133,0 2.728,0c0.936,0 1.836,0 2.73618,0c0.78516,0 1.72516,0 2.41583,0c1.03732,0 2.01767,-0.13953 2.884,0.01065c0.8363,0.14499 1.40424,0.7644 2.14267,1.31067c0.69867,0.51685 1.46542,1.00806 2.31433,1.65701c0.61127,0.46729 1.44299,0.96451 2.24298,1.02167l0.89999,0l0.94284,-0.00449l0.22385,-0.82886" id="svg_2" stroke-width="2" stroke="#000" fill="none"/>
  <path t="16399,16629,16646,16686,16726,16742,16750,16774,16782,16798,16814,16870,16886,16910,16918,16934,16943,16950,16959,16974,16983,17014,17022,17030,17046,17062,17086,17094,17102,17118,17126,17142,17142,17150,17159,17182,17190,17206,17214,17214,17230,17238,17246,17262,17270,17278,17294,17310,17318,17326,17342,17350,17359,17375,17390,17398,17398,17406,17414,17430,17438,17454,17462,17470,17478,17486,17494,17518,17526,17542,17550,17574,17598,17614,17638,17654,17686,17686,17702,17725,17734,17750,17759,17766,17766,17775,17792,17806,17806,17814,17822,17822,17830,17838,17838,17846,17854,17862,17870,17886,17894,17894,17902,17910,17918,17926,17934,17942,17950,17950,17966,17975,17975,17982,18006,18015,18015,18022,18031,18038,18038,18046,18054,18054,18070,18070,18078,18086,18094,18102,18102,18118,18134,18142,18150,18158,18166,18190,18198,18198,18206,18222,18231,18238,18254,18262,18262,18270,18270,18286,18286,18302,18318,18318,18328,18328,18334,18345,18350,18351,18366,18375,18375,18382,18383,18392,18399,18408,18415,18415,18431,18438,18454,18462,18470,18478,18486,18494,18502,18502,18510,18518,18519,18534,18534,18547,18561,18566,18574,18575,18582,18598,18614,18615,18622,18630,18638,18639,18646,18654,18662,18670,18678,18678,18686,18702,18718,18734,18734,18744,18745,18758,18759,18766,18767,18782,18782,18822,18838,18838,18846,18846,18854,18870,18902,18902,18910,18918,18918,18934,18942,18950,18982,18990,18998,19014,19024,19046,19070,19078,19094,19111,19118,19142,19166,19182,19198,19207,19207,19214,19230,19238,19246,19246,19262,19278,19294,19302,19310,19326,19334,19358,19358,19405,19414,19423,19437,19454,19462,19478,19478,19502,19518,19518,19574,19574,19725,19734,19749,19766,19782,19798,19814,19814,19814,19830,20077,20078,20102,20110,20134,20166,20174,20198,20198,20221,20246,20270,20309,20325,20357,20358,20429,20446,20478,20479,20502,20526,20535,20606,20623,20631,20640,20656,20695,20734,20767,20782,20783,20798,20814,20830,20839,20839,20856,20863,20894,20918,20926,20950,20966,20998,21007,21030,21042,21047,21070,21087,21087,21126,21150,21159,21167,21183,21183,21194,21211,21238,21254,21302,21390,21422,21431,21446,21462,21542,21551,21574,21590,21614" d="m453.51135,203.09091c-0.16666,1.83333 -0.65207,2.30502 -1.05716,3.05267c-0.37442,0.69104 -1.32761,1.18932 -1.8215,2.04716c-0.4245,0.73732 -1.34729,0.64247 -2,1.12149c-0.69595,0.51076 -1.4382,0.62749 -2.06866,1.13133c-0.61139,0.4886 -1.45062,0.64742 -2.05267,1.14734c-0.61972,0.51459 -1.56747,0.84012 -1.91464,1.69867c-0.32458,0.80267 -0.88004,1.29541 -1.56451,1.80133c-0.69547,0.51405 -1.25208,0.81505 -2.12082,1.036c-0.86227,0.21931 -1.69135,0.75023 -2.34735,1.31667c-0.59238,0.51147 -1.37015,0.47346 -2.25266,0.65001c-0.84885,0.16982 -1.16342,1.06859 -1.74734,1.8875c-0.48602,0.68159 -1.37891,0.88771 -2.25131,1.11116c-0.80508,0.20621 -1.42166,0.74809 -2.09601,1.05135c-0.83078,0.37361 -1.13699,1.34348 -1.62134,2.146c-0.44702,0.74066 -1.29672,0.65067 -2.18384,0.8015c-0.85107,0.14471 -0.77615,1.20844 -0.90033,2.09967c-0.11172,0.80186 -0.93079,1.25821 -0.99985,2.09883c-0.07281,0.88644 -0.75131,1.46277 -1.29547,2.10133c-0.64212,0.75352 -0.82135,1.48076 -1.27917,2.3c-0.43167,0.77245 -1.20013,1.33659 -1.42084,2.10449c-0.24738,0.86067 0.28458,1.84747 -0.01517,2.68483c-0.26373,0.73677 -0.98401,1.2213 -0.98935,2.08984c-0.00589,0.95682 0.05188,1.85469 -0.42532,2.4955c-0.50772,0.68178 -0.57468,1.52533 -0.57468,2.42532c0,0.90001 0,1.8 0,2.70001c0,0.89999 0,1.7 0,2.54283c0,0.96783 0.14209,1.87016 -0.01065,2.75716c-0.14346,0.83315 -0.90143,1.58632 -0.98483,2.3c-0.10446,0.89394 0.03745,1.84023 -0.28851,2.78401c-0.2446,0.70825 -0.67328,1.62756 -0.716,2.51599c-0.03842,0.79907 0.04984,1.63742 -0.00449,2.64816c-0.04221,0.78552 -0.84973,1.39453 -0.99417,2.15317c-0.16806,0.88281 0.10092,1.8067 -0.02216,2.71951c-0.11026,0.81766 -0.74957,1.54968 -0.96851,2.49384c-0.1777,0.76639 -0.00027,1.68539 -0.01068,2.58533c-0.01041,0.90018 -0.53525,1.60632 -0.87848,2.50015c-0.28473,0.74155 -0.09756,1.72543 -0.12152,2.73318c-0.01801,0.75662 -0.69745,1.41519 -1,2.33331c-0.2608,0.79147 0,1.63333 0,2.53336c0,0.93597 0.00449,1.784 0,2.64731c-0.00534,1.02737 -0.16666,1.81934 -0.5,2.65268c-0.33331,0.83334 -0.54172,1.70166 -1,2.5c-0.40506,0.7056 -0.5,1.60001 -0.5,2.5c0,0.79999 0,1.70001 0,2.60001c0,0.89999 0,1.79999 0,2.69998c0,0.89868 0,1.86667 0,2.70001c0,0.79999 0,1.70001 0,2.60001c0,0.89999 0.00006,1.79999 0,2.7045c-0.00009,1.01682 0.16507,1.75293 -0.22131,2.67383c-0.34277,0.81696 -0.77869,1.591 -0.77869,2.3735c0,0.89551 0,1.81482 0,2.64816c0,0.97849 0,1.79868 0,2.70001c0,0.93597 0,1.78265 0,2.59015c0,0.99649 0.07364,1.88159 -0.02081,2.70984c-0.11316,0.99237 -0.77933,1.64835 -0.95834,2.5c-0.18518,0.88098 -0.02084,1.8045 -0.02084,2.66666c0,0.83334 0,1.81168 0,2.71201c0,0.82584 0,1.72134 0,2.62134c0,0.89999 0,1.79999 0,2.70001c0,0.90015 0,1.68533 0,2.62531c0,1.00803 0,1.81302 0,2.74402c0,0.7825 0,1.67349 0,2.63068c0,0.89999 0.02536,1.80038 0,2.59998c-0.02859,0.9014 -0.6268,1.67239 -0.87848,2.52118c-0.23453,0.79095 -0.12152,1.72949 -0.12152,2.54016c0,0.97202 0,1.83417 0,2.73868c0,0.89999 0.11649,1.80814 -0.00449,2.69998c-0.11142,0.82135 -0.84732,1.46863 -0.991,2.40002c-0.13724,0.8895 -0.00452,1.71066 -0.00452,2.62131c0,0.85333 0,1.79468 0,2.56268c0,0.952 0,1.71732 0,2.716c0,0.79999 0,1.79733 0,2.68567c0,1.00098 -0.07361,1.88608 0.02084,2.71432c0.11319,0.99237 0.56158,1.58575 0.97916,2.5c0.36398,0.79691 1.06516,1.44482 1.47919,2c0.61176,0.82031 1.18671,1.15067 1.95282,1.58398c0.72696,0.41119 0.7529,1.30701 1.284,1.91467c0.444,0.508 0.44678,1.43939 0.93134,2.05402c0.51202,0.64944 0.34225,1.6474 0.35266,2.54733c0.01044,0.90018 0.54321,1.6033 0.87851,2.5c0.31805,0.85065 0.10397,1.73352 0.12149,2.60449c0.01801,0.89606 0.58917,1.61343 0.87851,2.39551c0.31512,0.85175 -0.27145,1.83035 0.20685,2.61465c0.49008,0.80362 0.91464,1.38535 0.91464,2.28534c0,0.79999 0,1.70001 0,2.60001c0,0.89999 0,1.79999 0,2.69998c0,0.90002 0,1.80002 0,2.70001c0,0.79999 -0.36316,1.79691 0.03601,2.564c0.39514,0.75937 1.00684,1.21503 1.76535,1.52133c0.76337,0.30826 1.31708,1.2272 1.99866,1.62933c0.76813,0.45319 1.70465,0.53003 2.37466,0.896c0.97208,0.53094 1.67212,1.1843 1.82532,0.77869c0.31424,-0.83197 0,-1.78934 0,-2.68484c0,-0.87384 -0.05795,-1.76151 0.16669,-2.7045c0.19247,-0.80804 0.66687,-1.4906 0.8125,-2.5c0.11731,-0.81302 -0.27704,-1.97186 0.54166,-2.45834c0.7471,-0.44394 1.41937,0.50912 1.83185,1.25833c0.46173,0.83865 0.47919,1.73645 0.73267,2.5c0.25635,0.77216 0.89664,1.59946 0.91464,2.5c0.01797,0.89984 -0.03668,1.80075 0,2.70001c0.02863,0.70175 0.52203,1.4772 1.30002,1.95184c0.80121,0.4888 1.11194,1.42868 1.89999,1.8775c0.7959,0.45328 1.28528,0.69626 1.96667,1.17065c0.6839,0.47614 1.65112,0.23206 1.8335,1.09982c0.16653,0.79233 0.97122,1.25143 0.99982,2.12167c0.02884,0.87802 0,1.7785 0,2.57849c0,0.90002 0,1.80002 0,2.72086c0,0.96317 0,1.65381 0,2.72198c0,0.85699 0,1.75717 0,2.5585c0,0.89868 0.35431,1.88245 -0.02081,2.67783c-0.33267,0.70535 -1.58853,0.35352 -2.27466,0.87802c-0.75018,0.57349 -0.3277,1.82281 -0.87119,2.47617c-0.57397,0.69 -1.48593,0.96683 -2.33334,1.14581c-0.8808,0.18604 -1.80652,-0.08612 -2.69998,0.02219c-0.91977,0.11148 -1.45624,0.79758 -2.39999,0.98798c-0.88278,0.1781 -1.52325,0.64328 -2.40002,0.98984c-0.74548,0.29468 -1.69998,0.02084 -2.59998,0.02084c-0.90002,0 -1.78934,-0.01065 -2.40002,-0.5c-0.61066,-0.48932 -1.5,-0.5 -2.39999,-0.5l-0.89999,0l-0.89865,0" id="svg_3" stroke-width="2" stroke="#000" fill="none"/>
  <path t="23823,23918,23918,23927,23927,23935,23935,23942,23952,23952,23952,23959,23959,23967,23967,23975,23975,23983,23991,23991,23999,23999,24007,24015,24015,24023,24031,24031,24039,24039,24039,24047,24047,24055,24063,24063,24063,24071,24071,24079,24079,24087,24095,24103,24110,24110,24119,24119,24127,24127,24135,24143,24152,24152,24159,24159,24166,24175,24175,24183,24191,24191,24199,24199,24207,24223,24223,24231,24239,24247,24247,24255,24262,24271,24279,24287,24295,24295,24303,24311,24319,24326,24335,24352,24352,24359,24359,24368,24375,24391,24399,24407,24415,24415,24423,24423,24431,24439,24447,24455,24463,24472,24479,24495,24511,24511,24511,24526,24527,24535,24543,24559,24568,24569,24575,24583,24599,24599,24607,24607,24615,24623,24639,24647,24655,24663,24671,24679,24687,24695,24710,24710,24711,24719,24720,24735,24742,24752,24768,24791,24807,24815,24823,24831,24847,24863,24863,24887,24919,24927,24950,24975,24983,24999,25014,25023,25047,25071,25087,25087,25095,25111,25142,25159,25183,25199,25199,25207,25207,25215,25223,25239,25255,25263,25271,25278,25294,25310,25327,25327,25342,25342,25351,25359,25359,25374,25399,25407,25407,25415,25439,25447,25463,25463,25479,25495,25511,25527,25543,25551,25552,25559,25567,25584,25601,25607,25607,25623,25624,25647,25662,25671,25687,25705,25705,25721,25738,25743,25759,25767,25791,25791,25815,25831,25847,25910,25927,25951" d="m437.51135,221.09091c0,2.00533 0,2.74933 0,3.85716c0,0.75751 -0.00357,1.79552 0,2.49017c0.00534,1.03804 0.16,1.98788 0.35269,2.65799c0.21457,0.74619 0.57718,1.84608 0.63666,2.60934c0.08099,1.0394 0.01065,1.78983 0.01065,2.784c0,0.76534 0,1.71733 0,2.76801c0,0.65866 0,1.66666 0,2.52882c0,0.82533 0,1.7885 0,2.65184c0,0.89999 0,1.81934 0,2.67349c0,0.97917 0,1.77917 0,2.57918c0,0.9955 0,1.74283 0,2.78532c0,0.948 0,1.62 0,2.60933c0,1.03601 0,1.75351 0,2.65802c0,0.86331 0,1.82648 0,2.74731c0,0.90451 -0.07361,1.77176 0.02084,2.60001c0.11319,0.99255 0.67862,1.58591 0.89383,2.48401c0.20206,0.84323 0.08533,1.75882 0.08533,2.71732c0,0.96533 0,1.79868 0,2.63202c0,0.86215 0,1.80264 0,2.65067c0,0.86331 -0.01151,1.7634 0,2.68265c0.01044,0.83353 0.27768,1.78122 0.64734,2.52884c0.39429,0.79742 0.35266,1.78851 0.35266,2.47916c0,1.06818 0,1.92535 0,2.82535c0,0.79999 -0.18375,1.7265 0.03601,2.60001c0.21707,0.86282 0.83905,1.60464 0.96417,2.5c0.12665,0.90646 0.76102,1.43765 0.979,2.39999c0.19888,0.87799 0.02081,1.79999 0.02081,2.70001c0,0.89999 0,1.79999 0,2.55716c0,0.89551 0,1.75882 0,2.72198c0,0.92084 0,1.82083 0,2.72086c0,0.89999 0,1.79999 0,2.55716c0,0.89551 0,1.75882 0,2.72198c0,0.92084 -0.00009,1.82083 0,2.72086c0.00009,0.89981 0.50787,1.4086 0.94284,2.15717c0.42508,0.73154 0.05716,1.80948 0.05716,2.47882c0,0.76532 0,1.95334 0,2.67868c0,0.96448 -0.09543,1.92984 0.28403,2.68533c0.43558,0.86719 0.5235,1.63333 0.77316,2.5c0.22031,0.7648 1.17181,1.31201 1.58566,2.05716c0.45853,0.82562 0.35489,1.59015 0.35715,2.60684c0.00208,0.93597 0,1.836 0,2.73599c0,0.89999 0.18301,1.53012 0.716,2.07065c0.61551,0.62421 0.83957,1.43997 1.22684,2.19553c0.44193,0.86218 -0.00488,1.64496 0.11435,2.62848c0.10565,0.87143 0.73773,1.65057 0.922,2.50534c0.18753,0.8699 0.75275,1.37592 1.01633,2.14734c0.28241,0.8266 0.00223,1.85266 0.00449,2.75266c0.00226,0.89551 0.67209,1.41098 0.97919,2.14166c0.3652,0.86896 0.02081,1.633 0.02081,2.70117c0,0.85718 0,1.75717 0,2.63583c0,0.82584 0,1.72134 0,2.62134c0,0.89999 0,1.79999 0,2.70001c0,0.89999 0,1.79999 0,2.59998c0,0.90002 0,1.84283 0,2.72086c0,0.87915 0,1.78366 0,2.64581c0,0.83334 0,1.81183 0,2.63202c0,0.90134 0.00195,1.82092 -0.42532,2.60132c-0.45038,0.82257 -0.31839,1.82492 -0.79599,2.47867c-0.51071,0.69907 -0.77869,1.32135 -0.77869,2.22134c0,0.89999 0.00494,1.68042 -0.35715,2.55267c-0.29776,0.71729 -1.10535,1.49582 -1.47617,2.34732c-0.32617,0.74896 -0.13538,1.75568 -0.60266,2.39999c-0.56641,0.78098 -1.17923,1.31226 -1.58936,2.20001c-0.37509,0.81195 -0.91379,1.49387 -0.97467,2.39999c-0.05365,0.79819 0.18375,1.7265 -0.03598,2.60001c-0.21704,0.86282 -0.9213,1.59698 -0.96402,2.5c-0.04254,0.89899 -0.12427,1.67743 -0.57465,2.5c-0.42728,0.7804 -0.42535,1.69998 -0.42535,2.60132c0,0.96533 0,1.62399 0,2.63202c0,0.87997 -0.79266,1.16464 -0.99548,1.87115c-0.25946,0.90384 -0.92078,1.4498 -1.00452,2.2955c-0.07883,0.79608 0.18375,1.7265 -0.03598,2.60001c-0.21704,0.86282 -0.77753,1.66116 -1.24802,2.31732c-0.52856,0.73715 -0.79767,1.35718 -1.29065,2.09735c-0.44794,0.67255 -0.46133,1.58533 -0.85068,2.38531l-0.49066,0.79868l-0.36801,0.71732" id="svg_4" stroke-width="2" stroke="#000" fill="none"/>
  <path t="27447,27646,27702,27726,27750,27798,27830,27854,27894,27910,27926,27935,27958,27967,27967,27982,27998,28014,28023,28023,28031,28047,28054,28064,28086" d="m413.51135,390.09091c1.70001,0 2.70001,0 3.60001,0c0.89999,0 1.80002,0 2.70001,0c0.89999,0 2.04739,-0.38943 2.57849,0.2215c0.58188,0.66931 -0.25531,1.9585 0.28818,2.61185c0.57397,0.68997 1.58881,0.71103 1.8125,1.66666c0.20517,0.87656 0.02081,1.8045 0.02081,2.66666c0,0.83334 0,1.81168 0,2.71201l-0.05716,0.82584l-0.44284,0.7955l-0.44281,0.79999" id="svg_5" stroke-width="2" stroke="#000" fill="none"/>
  <path t="28807,28910,28919,28958,28982,28991,29046,29094,29110,29142,29166,29166,29174,29190,29214,29246,29254,29278" d="m426.51135,399.09091c2.58936,0 3.5,-0.00226 4.40002,0c0.89548,0.00226 1.4201,0.55536 1.95267,1c0.54303,0.45337 0.64731,1.20001 0.64731,2.10001c0,0.89999 0,1.69998 0,2.60001c0,0.89999 0,1.79999 0,2.69998l0,0.89999l0,0.89868" id="svg_6" stroke-width="2" stroke="#000" fill="none"/>
  <path t="31479,31582,31593,31598,31598,31606,31606,31616,31616,31616,31622,31630,31631,31631,31638,31638,31646,31646,31646,31646,31654,31655,31662,31662,31662,31671,31671,31671,31671,31678,31678,31678,31686,31687,31694,31694,31695,31703,31703,31703,31710,31710,31718,31719,31719,31726,31727,31734,31734,31734,31743,31743,31743,31751,31751,31751,31760,31767,31767,31774,31774,31782,31783,31783,31791,31798,31799,31806,31807,31815,31815,31815,31822,31822,31831,31831,31839,31839,31847,31847,31855,31855,31855,31864,31864,31870,31871,31871,31880,31880,31887,31887,31897,31898,31902,31903,31914,31914,31919,31919,31926,31927,31934,31943,31943,31950,31950,31959,31959,31959,31967,31967,31976,31977,31983,31983,31991,31991,31998,31998,31999,32007,32007,32015,32022,32023,32023,32030,32031,32031,32038,32039,32048,32055,32070,32071,32080,32080,32087,32095,32095,32103,32103,32114,32118,32118,32130,32143,32150,32159,32167,32176,32176,32183,32190,32198,32207,32222,32230,32231,32238,32247,32254,32255,32264,32271,32271,32278,32286,32310,32310,32318,32330,32330,32334,32350,32350,32359,32367,32376,32383,32399,32414,32422,32423,32430,32446,32478,32486,32487,32502,32513,32519,32530,32543,32550,32622,32630,32654,32694,32694,32734,32746,32767,32775,32799,32830,32942,32982,32990,32998,33022,33078,33134,33134,33158,33214,33254,33254,33270,33279,33296,33318,33334,33346,33350,33360,33366,33374,33382,33398,33398,33407,33430,33438,33446,33478,33486,33494,33512,33512,33529,33529,33534,33545,33550,33566,33622,33670,33670,33686,33710,33726,33734,33750,33766,33790,33798,33814,33838,33854,33878,33894,33910,33928,33945,33966,33966,33978,33998,34030,34038,34062,34070,34070,34078,34094,34102,34111,34128,34134,34142,34150,34166,34182,34206,34214,34231,34247,34294,34334,34366,34382,34430,34430,34494,34518,34566,34614,34623,34631,34647,34655,34655,34670,34686,34718,34742,34782,34806,34814,34823,34831,34847,34856,34863,34902,34910,34918,34928,34945,34960,34966,34977,34993,34994,34998,35014,35023,35031,35054,35063,35079,35094,35095,35102,35118,35127,35134,35144,35144,35150,35161,35166,35177,35182,35198,35214,35230,35239,35246,35256,35263,35271,35278,35279,35295,35295,35302,35318,35334,35358,35366,35382,35383,35394,35398,35410,35422,35439,35456,35463,35479,35494,35510,35518,35519,35526,35534,35535,35544,35550,35560,35566,35566,35577,35582,35598,35598,35622,35630,35638,35655,35663,35672,35679,35686,35687,35695,35710,35727,35742,35766,35782,35794,35814,35814,35826,35846,35870,35879,35902,35918,35934,35942,35942,35966,35982,36014,36014,36030,36046,36062,36086,36110,36119,36143,36182,36198,36198,36214,36230,36239,36257,36278,36279,36288,36302,36318,36334,36342,36343" d="m309.51135,251.09091c0,1.8 0,2.636 0,3.48534c0,0.91916 0,1.916 0,2.75066c0,0.93066 0,1.70767 0,2.46667c0,1.13934 0,1.96167 0,2.83899c0,0.77701 0,1.77567 0,2.47919c0,1.3125 0,1.94583 0,2.61914c0,0.99753 -0.05859,2.09982 0.02084,2.83917c0.11566,1.07639 0.42694,1.7872 0.6265,2.62985c0.20975,0.88571 0.29834,1.79114 0.35266,2.39099c0.08151,0.90024 0.27533,2.09952 0.42535,2.67868c0.20987,0.81021 0.54214,2.01898 0.57016,2.68381c0.03796,0.90088 0.00449,1.82419 0.00449,2.4975c0,1.30667 -0.04184,2.12933 0.03601,2.8187c0.11649,1.03146 0.53827,1.79956 0.79733,2.82132c0.19965,0.78745 0.21463,1.60986 0.45068,2.40134c0.25259,0.84695 0.58157,1.76151 0.65881,2.55133c0.08011,0.8194 0.05716,1.88068 0.05716,2.82199c0,0.67801 0,1.64651 0,2.44c0,1.01599 0,1.97101 0,2.8855c0,0.78519 0,1.74652 0,2.58652c0,0.996 0,1.79248 0,2.54398c0,1.108 0,1.936 0,2.76935c0,0.97882 0,1.80984 0,2.76932c0,0.75153 0,1.548 0,2.54535c0,0.87466 0,1.88535 0,2.68533c0,1 -0.02267,1.78958 0,2.83334c0.01801,0.82858 0.22238,1.7092 0.42535,2.42798c0.22314,0.79016 0.4942,1.81354 0.55383,2.71783c0.0672,1.01883 -0.02838,1.8287 0.10617,2.62085c0.13803,0.81265 0.5752,1.57785 0.79315,2.60001c0.16815,0.78857 0.12149,1.79999 0.12149,2.58932c0,1.04401 0,1.836 0,2.69598c0,0.72534 0,1.71451 0,2.67868c0,0.952 0,1.72 0,2.66132c0,1.00803 0,1.80002 0,2.66135c0,0.76001 0,1.93466 0,2.73868c0,0.54932 0,1.853 0,2.52798c0,1.08002 0,1.87201 0,2.73199c0,0.72534 0,1.71469 0,2.51468c0,1 0.00357,1.79999 0,2.60001c-0.00534,1.18936 -0.05551,1.92706 -0.42532,2.77466c-0.41983,0.96222 -0.56323,1.66678 -0.57333,2.31201c-0.01981,1.26584 -0.00134,1.81332 -0.00134,2.62933c0,1.22232 0.00079,2.02231 0,3.048c-0.00067,0.836 -0.30884,1.68704 -0.64731,2.39316c-0.40762,0.85037 -0.35043,1.59015 -0.35269,2.61749c-0.00208,0.94666 0,1.79999 0,2.74133c0,0.76801 0,1.70932 0,2.71735c0,0.75598 0,1.73065 0,2.60266c0,0.86398 0,1.76401 0,2.664c0,0.89999 0,1.69998 0,2.60001c0,0.89999 0.00223,1.79999 0,2.69998c-0.00226,0.89999 -0.38605,1.73837 -0.71597,2.39999c-0.42056,0.84338 -0.25729,1.83646 -0.28534,2.68402c-0.02859,0.86465 -0.49542,1.68469 -0.832,2.51599c-0.30658,0.75717 -0.16669,1.70001 -0.16669,2.64282c0,0.92651 0.10782,1.71613 -0.00449,2.60001c-0.11145,0.87714 -0.84189,1.5253 -0.98483,2.39316c-0.16525,1.00323 -0.01068,1.71133 -0.01068,2.72803c0,0.93597 0.23923,2.00708 -0.35266,2.57883c-0.5069,0.48965 -0.64734,1.15717 -0.64734,2.05716c0,0.79999 0.41119,1.82257 -0.05716,2.64282c-0.46432,0.81317 -0.94284,1.35718 -0.94284,2.15717c0,0.90002 0.36374,1.88831 -0.02081,2.67917c-0.35501,0.73013 -1.09918,1.00418 -1.6265,1.57352c-0.63715,0.6879 -1.2355,1.23663 -1.35284,2.04733c-0.13113,0.90582 -0.64716,1.60001 -0.99985,2.39999c-0.35266,0.79999 -0.93912,1.59387 -1,2.5c-0.05588,0.83148 0,1.716 0,2.61066c0,0.88934 -0.24771,1.82559 0.00452,2.68484c0.22662,0.77206 1.10269,1.15747 1.99548,1.53784c0.75156,0.32019 1.38715,0.48114 2.16669,1c0.70743,0.47086 1.63351,0.14865 2.53333,0.16666c0.90054,0.01801 1.69446,0.43451 2.49866,0.91599c0.74365,0.44522 1.27695,0.9787 2.10135,1.43668c0.74228,0.41235 1.24756,1.09348 1.98532,1.56201c0.69147,0.43912 1.71466,0.08533 2.51468,0.08533c0.89999,0 1.79999,0 2.69998,0c0.97919,0 1.85718,0 2.70001,0c0.89999,0 1.79999,0 2.55716,0c1.06818,0 1.75885,0 2.72202,0c0.92084,0 1.82083,0 2.71948,0c0.96802,0 1.80133,0 2.60135,0c0.89999,0 1.79999,0 2.69998,0c0.90002,0 1.80002,0 2.70001,0c0.89999,0 1.79999,0 2.716,0c0.78851,0 1.68399,0 2.58398,0c0.90002,0 1.80002,0 2.70001,0c0.89999,0 1.79999,0 2.60001,0c0.89999,0 1.84286,0.00534 2.72083,0c0.87924,-0.00534 1.69797,-0.50052 2.47916,-0.83334c0.75156,-0.32019 1.70001,-0.16666 2.60001,-0.16666c0.89999,0 1.80002,0 2.70001,0c0.89865,0 1.69769,-0.19867 2.40451,-0.64734c0.72769,-0.46188 1.6955,-0.35199 2.59549,-0.35266c0.89865,-0.00067 1.43918,-0.60767 2.13599,-0.96399c0.84982,-0.43457 1.41501,-0.57089 1.57468,-1.436c0.15344,-0.83139 0.9043,-1.5874 0.98801,-2.39999c0.09222,-0.89529 0.00131,-1.80002 0.00131,-2.67917c0,-0.87802 0,-1.82083 0,-2.72086c0,-0.89999 0,-1.79999 0,-2.59998c0,-0.90002 0,-1.80002 0,-2.70001c0,-0.89999 0.00009,-1.7955 0,-2.7215c-0.00009,-0.87833 -0.50778,-1.38715 -0.94281,-2.13568c-0.42447,-0.73038 0.18707,-1.87497 -0.34119,-2.55884c-0.48468,-0.62747 -0.64294,-1.43414 -1.14133,-2.05865c-0.4852,-0.60797 -0.32697,-1.46155 -0.57916,-2.32083c-0.22662,-0.77206 -1.46405,-0.94989 -1.82883,-1.7045c-0.35553,-0.73547 -0.22119,-1.70151 -0.66669,-2.5c-0.44467,-0.797 -1.1705,-1.30685 -1.47916,-2.02084c-0.34894,-0.80719 0.11572,-1.83578 -0.30484,-2.67917c-0.32993,-0.66162 -0.53018,-1.54175 -0.75198,-2.41064c-0.21768,-0.85278 -0.90891,-1.58847 -0.96402,-2.556c-0.04623,-0.81146 -0.35391,-1.58572 -0.94733,-2.186c-0.55148,-0.55789 -0.86166,-1.19046 -1.07349,-2.14734c-0.18719,-0.84561 -0.89551,-1.48874 -0.97919,-2.41602c-0.07086,-0.78528 0.00195,-1.70358 -0.42532,-2.48398c-0.45038,-0.82257 -0.57468,-1.70001 -0.57468,-2.60001c0,-0.81433 0,-1.76666 0,-2.47916c0,-1.02084 0,-1.95685 0,-2.82083c0,-0.90002 0,-1.80002 0,-2.70001c0,-0.79999 0,-1.70001 0,-2.60001c0,-0.89999 0.13943,-1.86838 -0.284,-2.59866c-0.47913,-0.82629 -0.716,-1.50583 -0.716,-2.40134c0,-0.89999 0,-1.81067 0,-2.72131c0,-0.85336 0,-1.79333 0,-2.67868c0,-0.75717 0,-1.64816 0,-2.66666c0,-0.875 0,-1.81735 0,-2.50803c0,-1.06815 0,-1.92532 0,-2.82532c0,-0.79999 0,-1.70001 0,-2.60001c0,-0.89999 0,-1.79999 0,-2.69998c0,-0.90002 0,-1.80002 0,-2.70001c0,-0.79999 0,-1.70001 0,-2.60001c0,-0.89999 0,-1.79999 0,-2.69998c0,-0.89868 0,-1.78403 0,-2.70001c0,-0.79999 0,-1.70001 0,-2.60001c0,-0.89999 0,-1.79999 0,-2.69998c0,-0.90002 -0.20023,-1.86151 0.16669,-2.70001c0.32178,-0.73532 0.70599,-1.44611 0.83783,-2.29999c0.1438,-0.9314 0.84732,-1.46863 0.991,-2.40002c0.13721,-0.8895 0.00449,-1.79999 0.00449,-2.69998c0,-0.89999 0,-1.80002 0,-2.69983c0,-0.8855 -0.0845,-1.77948 0.08536,-2.41751c0.26944,-1.01215 0.88605,-1.78128 0.91464,-2.68268c0.02853,-0.89954 0,-1.79999 0,-2.59998c0,-0.90002 0,-1.80002 0,-2.67917l0.28403,-0.80618l0.54932,-0.71466l0.16534,-0.79999" id="svg_7" stroke-width="2" stroke="#000" fill="none"/>
  <path t="37295,37422,37432,37432,37438,37438,37446,37446,37446,37454,37454,37462,37462,37470,37470,37478,37486,37486,37486,37494,37494,37510,37526,37550,37558,37558,37582,37598,37606,37622,37630,37638,37654,37654,37678,37686,37686,37694,37703,37710,37710,37719,37719,37726,37726,37726,37736,37742,37750,37759,37759,37759,37766,37766,37774,37774,37782,37782,37790,37790,37798,37806,37806,37814,37822,37822,37838,37838,37854,37862" d="m308.51135,430.09091c1,-0.04166 1.75165,-0.60223 2.10535,-1.35184c0.3815,-0.8085 1.15631,-1.19513 1.87317,-1.96967c0.43668,-0.47183 0.82098,-1.27945 1.3215,-2.2785c0.30048,-0.59976 0.81598,-1.59216 1.08932,-2.18933c0.4722,-1.03156 0.68152,-1.74747 1.46133,-2.20667c0.82645,-0.48666 0.98114,-1.31903 1.25467,-1.94598c0.42953,-0.98459 1.40289,-1.07224 1.94284,-1.76251c0.55911,-0.71478 1.29889,-1.13193 2.05182,-1.51685c0.76321,-0.39017 1.54285,-0.7764 2.42084,-0.77866c0.87918,-0.00226 1.77917,0 2.67917,0c0.89999,0 1.79999,0 2.60001,0c0.95715,0 1.86716,-0.09348 2.54733,0.05716c1.04953,0.23242 1.29321,1.26169 1.98599,1.77618c0.70807,0.52585 1.65897,0.59747 2.16666,1.1875c0.68549,0.79669 1.38773,1.25476 1.93069,1.77783c0.6933,0.66788 1.37546,1.1181 2.06931,1.74298c0.73108,0.65842 1.02499,1.46265 1.21469,2.05966c0.3092,0.97308 0.29465,1.94742 0.72131,2.78403c0.31296,0.61365 0.88223,1.61218 1.12802,2.36398c0.29709,0.90872 0.42557,1.70883 0.43597,2.66135c0.00995,0.91058 -0.08597,1.76804 0.00134,2.70398c0.08368,0.89676 0.57333,1.52133 0.91333,2.36935l0.08084,0.86331l0.00449,0.89551l0,0.95718" id="svg_8" stroke-width="2" stroke="#000" fill="none"/>
  <path t="38343,38478,38489,38505,38511,38527,38535,38535,38543,38575,38583,38607,38607,38615,38623,38631,38639,38655,38663,38671,38679,38695,38703,38719,38767,38783,38791,38799,38799,38807,38807,38815,38823,38823,38831,38831,38839,38847,38855,38863,38863,38871,38879,38879,38895,38903,38927,38936,38943,38943" d="m348.51135,438.09091c0,-1.70001 -0.00192,-2.6196 0.42535,-3.39999c0.45038,-0.82257 0.39139,-1.75427 0.74133,-2.60001c0.32465,-0.78464 0.8204,-1.479 0.83331,-2.436c0.01166,-0.86392 0.1868,-1.69431 0.80136,-2.36398c0.56802,-0.61896 1.68744,-0.8208 2.14148,-1.55719c0.44272,-0.71799 0.40131,-1.60031 1.05716,-2.14282c0.603,-0.49881 1.40628,-0.59637 2.05267,-1.14734c0.6044,-0.51517 0.85654,-1.31088 1.55801,-1.91666c0.66614,-0.57526 1.62173,0.03424 2.38931,0.39734c0.71259,0.3371 1.74347,0.38721 2.43069,0.96799c0.68835,0.58176 1.13791,1.39981 1.75464,1.79868c0.92825,0.60034 1.51712,1.02762 2.31467,1.39999c0.89746,0.41904 1.23587,1.15897 1.66669,2c0.3403,0.66434 1.12592,1.3075 1.83331,2c0.49487,0.48447 1.64725,0.78326 1.97919,1.5c0.36035,0.77805 0.02533,1.79999 0.24216,2.60001l0.49466,0.69998" id="svg_9" stroke-width="2" stroke="#000" fill="none"/>
  <path t="40792,40991,41015,41026,41041,41047,41055,41087,41095,41103,41111,41119,41143,41159,41167,41168,41175,41191,41207,41207,41216,41216,41223,41239,41247,41255,41263,41271,41287,41295,41303,41303,41311,41320,41327,41336,41343,41353,41359,41359,41369,41375,41375,41386,41391,41399,41407,41416,41416,41423,41432,41439,41439,41447,41447,41447,41456,41463,41470,41470,41478,41495,41504,41511,41511,41518,41518,41527,41527,41536,41542,41553,41558,41559,41572,41572,41578,41578,41582,41582,41590,41599,41606,41615,41623,41623,41632,41639,41646,41654,41654,41662,41663,41670,41678,41686,41686,41694,41695,41703,41710,41710,41710,41718,41726,41735,41750,41750,41759,41768,41768,41769,41774,41775,41786,41790,41791,41801,41801,41806,41806,41815,41823,41832,41839,41839,41848,41848,41855,41862,41871,41879,41879,41894,41895,41895,41903,41911,41911,41927,41927,41936,41943,41943,41953,41959,41959,41975,41991,41991,41999,41999,42007,42015,42023,42023,42032,42032,42032,42039,42049,42049,42055,42055,42063,42063,42071,42071,42079,42079,42087,42095,42095,42111,42111,42119,42127,42127,42136,42136,42143,42159,42159,42169,42175,42175,42186,42186,42191,42203,42203,42207,42216,42223,42223,42232,42232,42239,42240,42248,42255,42255,42263,42271,42279,42279,42287,42288,42295,42311,42311,42319,42319,42319,42327,42342,42343,42352,42359,42369,42391,42399,42407,42423,42423,42431,42431,42448,42456,42465,42471,42472,42479,42479,42490,42490,42511,42511,42522,42522,42527,42538,42544,42555,42555,42559,42583,42583,42583,42600,42607,42631,42671,42703,42713,42720,42738,42744,42760,42772,42807,42831,42841" d="m271.51135,122.09091c-1.05264,1.7 -1.54205,2.4457 -2.29547,2.94733c-0.68927,0.45892 -0.65265,1.38652 -1.12985,2.02733c-0.50772,0.68177 -0.28558,1.57731 -0.58533,2.41467c-0.26373,0.73677 -0.93274,1.28673 -1.34201,1.96783c-0.46878,0.78011 -0.47379,1.68109 -0.73267,2.44284c-0.30176,0.88791 -0.81284,1.63388 -1.19867,2.40134c-0.36337,0.72278 -0.60516,1.64308 -0.79999,2.31467c-0.29233,1.00761 -0.8045,1.82497 -1.34134,2.45866c-0.50278,0.59351 -0.57468,1.42532 -0.57468,2.32533c0,0.89999 0.04779,1.80127 0,2.7c-0.04272,0.80341 -0.48862,1.64987 -0.97464,2.38933c-0.4512,0.68646 -0.99677,1.31473 -1.02536,2.27734c-0.026,0.87462 0.00146,1.81732 0,2.508c-0.00226,1.06816 -0.28967,1.88225 -0.64731,2.52533c-0.47443,0.85313 -0.97079,1.61034 -1.26733,2.5c-0.28589,0.85765 0.06067,1.82771 -0.14252,2.5c-0.26456,0.87529 -0.89929,1.60384 -0.94299,2.62151c-0.03003,0.69899 -0.1412,1.68724 -0.42517,2.46783c-0.26714,0.73431 -0.56416,1.68967 -0.57466,2.62132c-0.01027,0.91045 0.08194,1.79707 -0.42534,2.528c-0.45813,0.66013 -0.57466,1.472 -0.57466,2.38284c0,0.88916 0,1.87833 0,2.65767c0,0.85416 0,1.71632 0,2.62083c0,0.89999 0.05785,1.82927 -0.22133,2.7215c-0.22481,0.71846 -0.66339,1.67169 -0.74268,2.46783c-0.10352,1.03947 -0.036,1.836 -0.036,2.69466c0,0.86334 0,1.75883 0,2.71468c0,0.86266 0,1.66266 0,2.63466c0,0.86217 0,1.76668 0,2.66667c0,0.91066 0,1.8215 0,2.52083c0,0.97917 0,1.9375 0,2.86934c0,0.7565 0,1.767 0,2.51433c0,0.99417 0,1.75951 0,2.7115c0,1.05067 0,1.72 0,2.48534c0,1.17734 0,2.06534 0,2.84534c0,1.03732 0,1.728 0,2.66933c0,1.05067 0,1.72 0,2.48534c0,0.99417 0,1.91333 0,2.89867c0,0.8215 0,1.71066 0,2.69983c0,0.77934 -0.02597,1.77908 0,2.59883c0.02859,0.90269 0.68491,1.62448 0.94283,2.50584c0.24269,0.82928 0.05717,1.71632 0.05717,2.6955c0,0.77867 -0.00569,1.75719 0,2.61067c0.00534,0.80003 0.20387,1.71864 0.52083,2.41016c0.45421,0.991 0.91983,1.7476 1.19385,2.49384c0.30865,0.84053 0.28531,1.80667 0.28531,2.66c0,0.94133 0,1.70934 0,2.65067c0,1.008 0,1.76399 0,2.6955c0,0.96317 0,1.65384 0,2.7265c0,0.91934 0,1.578 0,2.586c0,0.86217 0.01703,1.77608 0.42535,2.57733c0.39008,0.76541 0.50269,1.62518 0.74133,2.58934c0.19958,0.8063 0.66699,1.49057 0.8125,2.5c0.11722,0.81317 -0.02979,1.67609 0.02216,2.616c0.04263,0.77142 0.37384,1.76047 0.88535,2.39999c0.52823,0.66043 1.46814,0.97345 1.94266,1.96802c0.30426,0.63773 0.17065,1.76334 0.17065,2.68265c0,0.83334 -0.18103,1.69827 0.05719,2.52884c0.25824,0.90033 0.77975,1.63406 0.96817,2.47916c0.21216,0.95157 0.70953,1.61801 0.97015,2.46817c0.24362,0.79477 0.69992,1.50687 0.91916,2.47183c0.19705,0.86734 0.05869,1.67529 0.4425,2.53351c0.36734,0.82138 1.23108,1.25772 1.84283,1.91983c0.5986,0.64786 1.24435,1.17667 1.77466,1.86801c0.57761,0.75299 0.8475,1.43619 1.32535,2.21667c0.41855,0.68362 0.98575,1.6033 1.5,2.146c0.68155,0.71924 1.52112,1.31476 1.91467,2.00131c0.42065,0.73383 0.20587,1.74973 0.64249,2.50452c0.36612,0.63297 1.07858,1.50079 1.35751,2.21149c0.36923,0.9408 0.87671,1.65567 1.47064,2.12c0.82584,0.64563 1.15982,1.20157 1.61334,1.88c0.57776,0.86426 1.30246,1.58289 1.90134,2.18402c0.59662,0.59885 0.84256,1.66574 1.52151,2.1785c0.70758,0.53439 1.56763,0.36023 1.77847,1.20547c0.23593,0.9458 0.98978,1.16257 1.66669,1.91602c0.55264,0.61511 1.18893,1.00974 1.93332,1.61066c0.65369,0.52768 1.46924,1.08859 2.10001,1.49918c0.71115,0.46292 1.11121,1.48056 1.94818,1.77582c0.74542,0.26297 1.74384,0.44843 2.15317,1.00101c0.65735,0.88739 0.87933,1.78357 1.79865,2.09201c0.85419,0.28659 1.70377,0.37445 2.39999,1.02133c0.60327,0.56052 1.45654,0.89932 2.16669,1.33334c0.71463,0.43677 1.26105,1.29718 2.19733,1.59467c0.79843,0.25369 1.28384,0.50235 1.92133,0.98666c0.73148,0.55573 1.94131,-0.17328 2.59335,0.30667c0.69824,0.51398 0.93906,1.46158 1.73199,1.76797c0.82959,0.32056 1.78934,0.01068 2.68481,0.01517l0.67917,0.42084" id="svg_10" stroke-width="2" stroke="#000" fill="none"/>
  <path t="44239,44366,44375,44382,44398,44399,44406,44406,44406,44414,44415,44430,44431,44439,44455,44462,44462,44470,44478,44487,44487,44495,44503,44503,44512,44519,44519,44527,44542,44550,44559,44559,44567,44574,44582,44591,44591,44598,44607,44607,44614,44623,44623,44630,44631,44638,44646,44646,44647,44654,44654,44662,44663,44671,44678,44679,44687,44687,44695,44695,44703,44712,44719,44728,44728,44734,44734,44742,44743,44743,44751,44751,44759,44767,44775,44775,44790,44790,44790,44798,44799,44807,44814,44815,44822,44830,44838,44838,44846,44846,44854,44854,44854,44862,44862,44878,44878,44886,44886,44887,44895,44903,44903,44911,44912,44919,44919,44928,44934,44935,44942,44950,44950,44958,44958,44958,44966,44967,44974,44982,44982,44990,44998,44998,45006,45006,45014,45014,45022,45030,45030,45038,45038,45046,45054,45062,45062,45070,45070,45078,45086,45087,45094,45095,45111,45111,45118,45128,45142,45150,45150,45158,45158,45166,45174,45182,45182,45190,45198,45214,45238,45238,45238,45254,45254,45262,45270,45270,45278,45302,45311,45318,45327,45335,45344,45344,45358,45374,45382,45390,45399,45422,45430,45438,45454,45462,45470,45486,45486,45486,45502,45502,45511,45518,45527,45534,45566,45575,45591,45623,45750,45759,45759,45775,45799,45807,45831,45831,45855,46007,46062,46062,46102,46174" d="m482.51135,128.09091c0.42535,1.81467 0.81555,2.67067 1.02084,3.54167c0.18475,0.78377 0.50107,1.47864 0.97916,2.45833c0.3902,0.79958 0.68417,1.38954 0.91736,2.39867c0.17535,0.75876 0.67084,1.69231 1.23199,2.19066c0.76517,0.67953 0.69714,1.65913 1.01733,2.41068c0.33282,0.78119 0.76816,1.53203 1.186,2.3c0.45761,0.84103 0.5799,1.5885 0.65799,2.52533c0.08472,1.01648 0.56812,1.55208 1.28482,2.1265c0.68234,0.54689 0.70224,1.40001 0.7045,2.4015c0.00195,0.86816 0,1.74667 0,2.64667c0,0.8 0,1.7 0,2.60001c0,0.92082 0,1.88399 0,2.57466c0,1.06816 0,1.92549 0,2.71066c0,0.94 0,1.948 0,2.74001c0,0.85866 0,1.722 0,2.6265c0,1.0815 0,1.75349 0,2.4975c0,1.10783 0,1.99884 0,2.90334c0,0.69467 0,1.722 0,2.66884c0,0.69933 0,1.87833 0,2.65767c0,0.85416 0,1.71632 0,2.62083c0,0.89999 0,1.81065 0,2.72133c0,0.85333 0,1.79599 0,2.48849c0,0.9595 0,1.711 0,2.50751c0,1.22099 0,2.021 0,3.04666c0,0.83734 0,1.80267 0,2.472c0,1.164 0,1.964 0,2.76401c0,0.9955 0.1553,1.75635 -0.01065,2.76399c-0.14291,0.86786 -0.84122,1.4046 -0.98483,2.336c-0.14264,0.92508 -0.00452,1.78534 -0.00452,2.51067c0,0.98933 0.00665,1.78935 0,2.78934c-0.00534,0.80005 -0.01404,1.62206 -0.35266,2.591c-0.30142,0.86252 -0.85168,1.72578 -1.14734,2.45067c-0.38321,0.9395 -0.3851,1.76695 -0.58398,2.47299c-0.28998,1.0295 -0.77921,1.80962 -0.91602,2.48534c-0.1991,0.98347 -0.74457,1.72714 -1.19864,2.48399c-0.40198,0.67001 -0.57709,1.68304 -0.96802,2.51601c-0.36078,0.76868 -0.78986,1.53415 -1.05466,2.3215c-0.23999,0.71353 -0.65964,1.67216 -0.74268,2.4785c-0.08203,0.79654 0.09766,1.81831 -0.12134,2.71466c-0.21808,0.89261 -1.12613,1.50067 -1.5575,2.18533c-0.47287,0.75052 -0.28671,1.79137 -0.39316,2.47467c-0.1499,0.96219 -0.72232,1.54489 -1.25949,2.478c-0.38748,0.67311 -0.61801,1.59241 -0.70584,2.54868c-0.06302,0.68625 -0.46298,1.60886 -0.71466,2.31467c-0.33728,0.94583 -0.77609,1.72443 -1.11734,2.65067c-0.29379,0.79744 -0.35321,1.65627 -0.74133,2.42265c-0.41064,0.8109 -0.42535,1.73218 -0.42535,2.4315c0,0.97917 0.22491,2.14194 -0.44266,2.73634c-0.56171,0.50015 -1.5343,0.76297 -1.55734,1.64282c-0.02368,0.90421 -0.16324,1.76804 -0.42532,2.42534c-0.40274,1.0101 -0.56393,1.76399 -0.57468,2.67467c-0.01059,0.89999 -0.3428,1.81311 -0.80133,2.29999c-0.74011,0.78586 -1.33136,1.34775 -1.69867,2.24167c-0.38562,0.93851 -0.46732,1.5571 -0.49548,2.35834c-0.0351,0.99805 0.10452,1.95001 -0.009,2.84283c-0.11154,0.87717 -0.85754,1.50317 -1.38483,2.15717c-0.60001,0.7442 -0.78683,1.5621 -1.258,2.3045c-0.46185,0.72775 -0.25754,1.87076 -1.05801,2.24283c-0.6705,0.31165 -1.34454,0.7562 -1.79468,1.55267c-0.44904,0.79453 -1.16348,1.30994 -1.47916,2.02084c-0.38928,0.87668 -0.61942,1.48825 -1.07349,2.18365c-0.49487,0.75787 -1.26895,1.09326 -2.14734,1.29816c-0.84305,0.19666 -1.21194,0.86295 -1.60001,1.60001c-0.51602,0.98007 -0.89511,1.6882 -1.58932,2.336c-0.60645,0.56592 -1.3331,0.64706 -2.17468,1.09735c-0.63037,0.33728 -0.37787,1.73257 -1.1405,1.9595c-0.82382,0.24512 -1.65268,0.36163 -2.2955,1.00449c-0.59998,0.60001 -1.07349,1.4039 -2,1.83334c-0.77103,0.35736 -1.70987,0.15771 -2.51733,0.16666c-0.94116,0.01044 -1.54398,0.57468 -2.34399,0.96399l-0.65601,0.03467l-1.03598,0.03735l-0.44217,0.66849" id="svg_11" stroke-width="2" stroke="#000" fill="none"/>
  <path t="49263,49422,49422,49430,49430,49439,49439,49439,49447,49447,49447,49456,49456,49456,49456,49463,49463,49470,49470,49478,49478,49478,49486,49486,49494,49502,49510,49534,49542,49566,49566,49598,49615,49631,49631,49647,49647,49663,49670,49678,49686,49710,49718" d="m434.51135,226.09091c0,2.00533 0,2.74933 0,3.85733c0,0.79333 0,1.68567 0,2.41467c0,0.83699 0,2.028 0,2.92799c0,0.60001 0,1.8 0,2.6955c0,0.58368 0,1.41917 0,2.64734c0,0.6465 0,1.65717 0,2.45717c0,1 0,1.8 0,2.60001c0,0.9955 0,1.91466 0,2.87917c0,0.92082 0,1.81633 0,2.74232c0,0.87851 0,1.7785 0,2.57851c0,0.89999 -0.00488,1.84901 0.28403,2.68532c0.25516,0.73859 0.63657,1.71024 0.69516,2.49384c0.07452,0.99661 0.02081,1.85419 0.02081,2.72534l0,0.89551l0,0.89999l0.01068,0.88934" id="svg_12" stroke-width="20" stroke="#fff" fill="none"/>
  <path t="51014,51158,51198,51214" d="m442.51135,226.09091" id="svg_13" stroke-width="20" stroke="#fff" fill="none"/>
  <path t="54743,54926,54934,54966,54974,54998,55022,55038,55062,55062,55078,55102,55126,55142,55150,55166,55183,55200,55200,55206,55214,55230,55238,55254,55262,55294,55294,55310,55334,55334,55358,55374,55374,55383,55400,55400,55417,55417,55432,55439,55455,55479,55503,55511,55527,55527,55551,55567,55615,55647,55663,55687,55727,55735,55735,55759" d="m353.51135,233.09091c0,-1.83333 0,-2.64734 0,-3.52083c0,-0.87917 0,-1.77917 0,-2.67917c0,-0.90001 0,-1.8 0,-2.60001c0,-0.89999 0,-1.8 0,-2.7c0,-0.89999 0,-1.8 0,-2.7c0,-0.90001 0,-1.8 0,-2.60001c0,-0.89999 0,-1.8 0,-2.7c0,-0.89999 0,-1.8 0,-2.7955c0,-0.87117 0,-1.59117 0,-2.52983c0,-1.008 0,-1.87016 0,-2.6955c0,-0.96317 0,-1.65384 0,-2.7265c0,-0.91934 0,-1.75267 0,-2.73117c0,-0.82016 0,-1.62151 0,-2.5215c0,-0.89999 0,-1.8 0,-2.7c0,-0.90001 0,-1.8 0,-2.60001c0,-0.89999 0,-1.84283 0,-2.72083c0,-0.87917 0,-1.77917 0,-2.67917c0,-0.90001 0,-1.8 0,-2.60001l0,-0.89999" id="svg_14" stroke-width="2" stroke="#000" fill="none"/>
  <path t="57543,57623,57637,57648,57656,57671,57687,57695,57703,57703,57711,57719,57727,57735,57743,57751,57751,57759,57767,57783,57783,57791,57791,57807,57815,57823,57823,57839,57855,57855,57871,57887,57903,57912,57927,57927,57951,57967,57975,57999,58014,58031,58062,58095,58127,58143,58151,58183,58223,58239,58287,58319,58327,58351" d="m416.51135,237.09091c0,-1.7 0,-2.60001 0,-3.5c0,-0.89999 0,-1.8 0,-2.7c0,-0.90001 0,-1.8 0,-2.60001c0,-0.89999 0,-1.8 0,-2.7c0,-0.89999 0.09122,-1.82973 -0.22131,-2.82117c-0.21484,-0.68153 -0.73596,-1.50616 -0.77869,-2.3255c-0.05264,-1.00912 0,-1.75783 0,-2.752c0,-0.76534 0,-1.716 0,-2.70134c0,-0.89999 0,-1.7 0,-2.536c0,-1.01216 0,-1.79466 0,-2.72116c0,-0.94284 0.08212,-1.8466 -0.00015,-2.74284c-0.08368,-0.91144 -0.74677,-1.43718 -0.96384,-2.29999c-0.21976,-0.8735 -0.03601,-1.8 -0.03601,-2.70001c0,-0.89999 0.16116,-1.87723 -0.05716,-2.60449c-0.26178,-0.87201 -0.91415,-1.59415 -0.94284,-2.4955c-0.02863,-0.89938 -0.5484,-1.46935 -0.94281,-2.15717c-0.46988,-0.81941 -0.05719,-1.84283 -0.05719,-2.74284l0,-0.89999l0,-0.83333" id="svg_15" stroke-width="2" stroke="#000" fill="none"/>
  <path t="61487,61678,61703,61727,61774,61774,61791,61814,61870,61903,61903,61919,61951,61983,62015,62079,62111,62119,62143,62143,62167,62191,62199,62215,62231,62239,62263,62294,62295,62311,62327,62351,62359,62367,62391,62407,62430,62446,62463,62487,62502,62527,62535,62535,62567,62591,62607,62615,62615,62639,62647,62655,62663,62702,62726,62751,62783,62783,62791,62815,62831,62847,62863,62879,62895,62919,62951,62951,62967,62983,62999,63015,63024,63031,63047,63063,63079,63095,63095,63103,63118,63127,63143,63143,63150,63150,63167,63182,63199,63215,63215,63224,63231,63247,63255,63279,63303,63303,63319,63335,63343,63366,63366,63375,63391,63399,63407,63424,63439,63439,63447,63455,63471,63487,63487,63503,63511,63519,63527,63534,63543,63551,63551,63567,63575,63575,63606,63615,63631,63631,63647,63655,63663,63663,63687,63695,63702,63710,63711,63734,63790,63790" d="m310.51135,107.09091c0,1.8 0,2.7 0,3.564c0,0.87884 0,1.62134 0,2.67884c0,0.95716 0,1.85716 0,2.75716c0,0.8 0,1.7 0,2.6c0,0.9 0,1.78934 0,2.68533c0,0.91467 0,1.81467 0,2.71467c0,0.8 0,1.7 0,2.6c0,0.9 0,1.8 0,2.7c0,0.89867 0,1.75267 0,2.7c0,0.8 0,1.7 0,2.60001c0,0.89999 0.01068,1.78932 0.5,2.39999c0.48935,0.61067 0.59637,1.40627 1.14734,2.05267c0.51517,0.6044 1.30466,0.95857 1.35266,1.82599c0.04575,0.82655 0.53052,1.61215 1.09985,2.22134c0.55252,0.59122 0.72757,1.52046 0.92099,2.39999c0.1864,0.84758 1.07205,1.42459 1.54318,2.10001c0.51169,0.73358 0.24005,1.72191 0.43732,2.59866c0.18063,0.80286 0.99866,1.08667 0.99866,2.00133c0,0.90001 0,1.8 0,2.60001c0,0.89999 0,1.8 0,2.7c0,0.89999 0,1.8 0,2.69867c0,0.86266 0,1.66266 0,2.63466c0,0.86217 0,1.76668 0,2.66667c0,0.89999 -0.00009,1.8 0,2.7c0.00009,0.89984 0.50812,1.40685 0.94284,2.15266c0.43848,0.75227 0.358,1.69818 0.7045,2.34734c0.45337,0.84938 0.35257,1.8 0.35266,2.71066c0.00009,0.91068 -0.08566,1.80219 0.22134,2.56784c0.31039,0.77409 0.72086,1.69359 1.13135,2.37866c0.46777,0.7807 0.62192,1.64323 0.64731,2.44284c0.02859,0.90135 0.68619,1.62236 0.94284,2.5c0.25311,0.86555 0.05716,1.8 0.05716,2.7c0,0.8 -0.01367,1.7229 0.42535,2.436c0.47601,0.77321 0.76678,1.6889 1.27917,2.26399c0.56024,0.6288 1.1456,1.4043 1.29547,2.3c0.14026,0.83818 0.95728,1.282 1,2.10016c0.04095,0.7841 -0.39743,1.91556 0.22134,2.65685c0.54074,0.64781 0.58487,1.28844 0.86401,2.043c0.32169,0.86958 1.55869,0.99014 1.89383,1.72083c0.36234,0.78995 0.51834,1.48145 1.08215,2.08984c0.6412,0.69193 1.49298,0.92448 1.86667,1.79999c0.35855,0.84003 -0.32587,1.9178 0.23868,2.58934c0.51596,0.61375 1.02643,1.12404 1.53784,1.7c0.65021,0.73225 1.06009,1.56435 1.46216,2.3c0.40198,0.73549 1.4624,0.80115 2.22266,1.436c0.63312,0.52869 0.77734,1.564 1.22134,2.164l0.68933,0.7l0.69998,0.7l0.47919,0.5" id="svg_16" stroke-width="2" stroke="#000" fill="none"/>
  <path t="64839,64998,65014,65022,65039,65055,65062,65072,65078,65095,65095,65102,65126,65134,65142,65150,65150,65166,65182,65198,65214,65214,65222,65222,65230,65238,65246,65247,65255,65278,65295,65295,65310,65311,65318,65318,65327,65334,65342,65358,65358,65374,65390,65390,65398,65414,65422,65430,65438,65446,65447,65454,65478,65488,65488,65495,65502,65518,65534,65534,65550,65566,65566,65574,65590,65606,65630,65638,65638,65655,65686,65742,65774,65822,65854,65854,65862,65894,65902,65910,65918,65927,65934,65942,65942,65950,65966,65990,65990,66006,66014,66022,66030,66038,66046,66054,66071,66088,66088,66104,66118,66119,66142,66142,66150,66158,66166,66190,66198,66206,66214,66230,66238,66246,66279,66279,66287,66295,66304,66304,66310,66327,66327,66334,66350,66374,66374,66390,66398,66406,66422,66478,66518" d="m435.51135,105.09091c0,1.8 0,2.7 0,3.6c0,0.9 0,1.8 0,2.7c0,0.9 0,1.8 0,2.7c0,0.8 -0.00601,1.70002 0,2.6c0.00534,0.80006 0.46194,1.63639 0.83334,2.4c0.36667,0.75391 0.9137,1.53715 1.13068,2.4c0.22073,0.87788 0.03598,1.76666 0.03598,2.6c0,0.9785 0,1.79867 0,2.7c0,0.936 0,1.784 0,2.64734c0,0.89099 0,1.87433 0,2.81934c0,0.65866 0,1.66666 0,2.45866c0,1.02733 0,1.722 0,2.73866c0,0.936 0,1.836 0,2.73616c0,0.78517 0,1.72517 0,2.73317c0,0.756 0,1.66667 0,2.56667c0,0.90001 0,1.8 0,2.70001c0,0.89999 0.40274,1.8364 -0.08533,2.61465c-0.46432,0.7404 -0.91467,1.28534 -0.91467,2.08534c0,0.89999 -0.31448,1.58717 -0.83331,2.36667c-0.47089,0.70746 -0.29431,1.6106 -0.66669,2.35416c-0.46954,0.93762 -0.40759,1.65834 -0.5,2.5925c-0.08881,0.89781 -0.95718,1.16904 -1,2.08667c-0.04193,0.89903 -0.12427,1.57745 -0.57465,2.40001c-0.42728,0.78038 -0.42535,1.7 -0.42535,2.59999c0,0.90001 0,1.8 0,2.60001c0,0.91466 0,1.81067 0,2.7c0,0.89999 0,1.8 0,2.7c0,0.90001 0.02536,1.8004 0,2.60001c-0.02859,0.90135 -0.51971,1.6606 -1.16666,2.36667c-0.56705,0.61887 -0.828,1.43329 -0.83334,2.33333c-0.00534,0.89998 0.0173,1.81134 -0.5,2.5c-0.46997,0.62567 -0.35724,1.51311 -0.51065,2.39999c-0.14417,0.83347 -0.90265,1.30913 -1.46851,2.12083c-0.51163,0.73393 -0.41287,1.70116 -0.80484,2.59384c-0.27545,0.62729 -0.70682,1.50354 -1.14133,2.28532c-0.45535,0.81932 -1.14145,1.27771 -1.53867,2.03601c-0.39926,0.76222 -0.56696,1.44568 -1.03601,2.08482c-0.57217,0.77963 -0.80249,1.58804 -1.16666,2.47917c-0.27448,0.67166 -0.71829,1.44318 -1.186,2.3c-0.40686,0.74532 -0.65991,1.54999 -1.16815,2.2c-0.60019,0.76761 -1.11856,1.332 -1.53183,2.2c-0.39847,0.83691 -1.16614,1.31078 -1.59018,2c-0.50534,0.8214 -0.37799,1.77917 -1.00449,2.35268l-0.40533,0.65182l-0.44736,0.7955l-0.44281,0.8" id="svg_17" stroke-width="2" stroke="#000" fill="none"/>
  <path t="70784,70950,70950,70966,70974,70982,71014,71022,71039,71054,71062,71086,71103,71103,71118,71126,71150,71166,71174,71214,71230,71239,71239,71262,71510,71534,71535,71551,71558,71574,71590,71614,71646,71670,71679,71718,71719,71734,71766,71782,71806,71806,71822,71846,71862,71879,71894,71926,71990,71998,72014,72022,72054,72062,72070,72094,72102" d="m408.51135,136.09091c0,1 -0.11768,1.7811 -0.57465,2.60001c-0.43121,0.77272 -1.01483,1.27724 -1.72083,1.75266c-0.78098,0.52591 -1.15485,1.19228 -1.61917,1.93268c-0.48807,0.77824 -0.08536,1.81467 -0.08536,2.71466c0,0.8 0,1.7 0,2.60001c0,0.89999 0,1.79999 0,2.6955c0,0.87117 0,1.8045 0,2.7045c0,0.8 -0.87491,2.44795 0,2.58566c0.71176,0.11203 0.48059,-1.52391 1.05267,-2.2285c0.50214,-0.61845 0.51489,-1.58777 1.11401,-2.19049c0.5816,-0.58511 1.51324,-0.45049 2.11734,-1.08267c0.55038,-0.57596 1.07541,-1.23634 1.43198,-1.884c0.47549,-0.86368 1.22311,-1.41522 1.284,-2.3c0.0618,-0.89787 -0.36435,-1.81075 0.05719,-2.54283c0.46725,-0.81148 0.94281,-1.35716 0.94281,-2.23582c0,-0.82584 0.0054,-1.72136 0,-2.62134c-0.00534,-0.88937 -0.47937,-1.61188 -1.05264,-2.14734c-0.68521,-0.64001 -1.16885,-1.23116 -2.04718,-1.35283l-0.81482,-0.28517l-0.08551,-0.8145" id="svg_18" stroke-width="2" stroke="#000" fill="none"/>
  <path t="72718,72805,72813,72822,72830,72854,73007,73031,73062,73071,73095,73095,73103,73134,73151,73215" d="m407.51135,141.09091c0.02084,1 0.61523,1.69438 0.96402,2.436c0.41055,0.87294 0.20398,1.8801 0.03467,2.76266c-0.14511,0.75647 -1.37881,1.04868 -1.94601,0.44417c-0.62103,-0.66185 -0.76865,-1.44284 -1.13666,-2.3575l-0.74933,-0.45201l-0.45068,-0.74933l-0.65881,-0.44116" id="svg_19" stroke-width="2" stroke="#000" fill="none"/>
  <path t="73840,73935,73943,73959,73959,73971,73983,73983,73999,74015,74023,74039,74055,74071,74079,74096,74112,74112,74120,74135,74167,74183,74199,74487,74503,74520,74529,74536,74536,74551,74551,74559,74575,74607,74615,74623,74623,74655,74663,74687,74711,74720,74759,74767,74783,74783,74799,74808,74831,74863,74871,74903,74919,74936,74959" d="m343.51135,142.09091c0.05719,1.64734 0.63556,2.12817 1.16669,3c0.38834,0.63745 1.25949,1.21675 1.66666,2c0.38669,0.74385 0.85281,1.42238 1.1095,2.3c0.25278,0.86427 0.24808,1.7027 0.7045,2.4045c0.4744,0.72948 0.89587,1.49881 1.23117,2.39551c0.31808,0.85063 0.12149,1.7 0.12149,2.59999c0,0.90001 0,1.8 0,2.7c0,0.89551 0.31229,2.09578 -0.35715,2.54283c-0.70132,0.46835 -1.4285,-0.38487 -1.9295,-1.14282c-0.4679,-0.70787 -1.42032,-1.0183 -2.00351,-1.5c-0.73572,-0.60768 -1.1427,-1.55124 -1.54315,-2.3c-0.42328,-0.79144 -0.8981,-1.36424 -1.19202,-2.14934c-0.30862,-0.82443 -1.5629,-0.60913 -1.95383,-1.37149c-0.40128,-0.78252 -0.02084,-1.77467 -0.02084,-2.70067c0,-0.87851 0,-1.7785 0,-2.57851c0,-0.89999 0,-1.8 0,-2.7c0,-0.89999 0.00452,-1.7955 0.42535,-2.47467l0.55383,-0.54616l0.03149,-0.8685l0.564,-0.60001" id="svg_20" stroke-width="2" stroke="#000" fill="none"/>
  <path t="75311,75486,75494,75502,75510,75535,75543,75560,75726,75734,75743,75760" d="m345.51135,146.09091c0,1.8 0,2.7 0,3.60001c0,0.87917 -0.0007,1.75716 0,2.7c0.00067,0.89867 0.28403,1.61333 0.96402,1.26399l0.03598,-0.864l0,-0.89867" id="svg_21" stroke-width="2" stroke="#000" fill="none"/>
  <path t="78247,78294,78304,78310,78310,78318,78330,78330,78335,78351,78359,78367,78382,78391,78391,78399,78399,78407,78415,78424,78431,78431,78440,78471,78494,78503,78511,78527,78535,78543,78559,78567,78575,78591,78599,78623,78647,78775,78775,78783,78791,78799,78807,78815,78815,78846" d="m338.51135,212.09091c0.05719,1.7 0.60883,2.47789 0.87869,3.32117c0.25317,0.79103 0.71506,1.53622 1.06866,2.38417c0.28458,0.68243 0.90903,1.34518 1.05264,2.29466c0.12463,0.82396 0.31436,1.39029 0.83334,2.16667c0.47229,0.70651 0.12714,1.59157 0.17117,2.48599c0.04266,0.86607 0.61276,1.62544 0.91016,2.54733c0.27753,0.86038 0.08533,1.8 0.08533,2.60001c0,0.91466 -0.00534,1.81068 0,2.7c0.00534,0.88937 0.7587,1.44142 0.99551,2.2045c0.25504,0.82179 0.85876,1.33946 1.00317,2.09683c0.16833,0.88277 -0.16479,1.81805 0.02216,2.69867c0.17899,0.84315 0.97382,1.52527 0.97916,2.30133c0.00372,0.54399 0,-0.31999 0,-1.2805c0,-0.82083 0,-1.72083 0,-2.62083l0,-0.89999l0,-0.8l0,-0.89999" id="svg_22" stroke-width="2" stroke="#000" fill="none"/>
  <path t="81558,81662,81673,81674,81678,81690,81690,81694,81704,81710,81711,81719,81726,81736,81742,81742,81750,81758,81766,81774,81790,81806,81814,81822,81846,81862,81886,81910,81926,81926,81950,81974,81998,82006,82030,82046,82055,82071,82254,82278,82288,82310,82326,82342,82342,82352,82358,82374,82391,82399,82399,82407,82423,82447,82447,82455,82471,82471,82479,82487,82503,82511,82519,82527,82543,82552,82567" d="m339.51135,211.09091c0.87851,1.2215 1,2.10016 1,2.88533c0,0.94 -0.14954,1.97023 0.03601,2.70399c0.22046,0.87187 0.76401,1.65675 1.13068,2.41068c0.3714,0.76361 0.47116,1.57706 0.85416,2.47917c0.314,0.73961 0.9494,1.22923 0.97784,2.03816c0.03766,1.07133 0.00131,1.98267 0.00131,2.88266c0,0.90001 0,1.8 0,2.70001c0,0.89999 -0.01752,1.73351 0,2.60449c0.01801,0.89606 0.58917,1.61343 0.87851,2.39551c0.31512,0.85173 0.12149,1.7 0.12149,2.59999c0,0.90001 -0.15784,1.81586 0.01068,2.7c0.17947,0.94165 0.96072,1.54572 0.98932,2.3045c0.03372,0.89487 0,1.88116 0,1.1955c0,-0.89999 0,-1.81599 0,-2.66167c0,-0.89099 0,-1.75433 0,-2.60233c0,-0.936 0,-1.836 0,-2.73601c0,-0.89999 0,-1.7 0,-2.59999c0,-0.94284 0.09543,-1.88232 -0.05716,-2.65184c-0.18259,-0.92079 -0.85779,-1.63556 -0.9415,-2.44817c-0.09222,-0.89526 -0.00134,-1.8 -0.00134,-2.7c0,-0.89999 0,-1.8 0,-2.69867l-0.16666,-0.80133l-0.74799,-0.28534l-0.08536,-0.91466" id="svg_23" stroke-width="20" stroke="#fff" fill="none"/>
  <path t="84079,84214,84238,84246,84246,84254,84263,84270,84270,84278,84286,84294,84294,84310,84318,84318,84326,84326,84334,84342,84342,84342,84350,84350,84358,84358,84366,84375,84375,84383,84383,84390,84400,84407,84407,84414,84414,84430,84438,84446,84462,84462,84470,84494,84494,84518,84542,84654,84662,84670,84670,84678,84678,84678,84690,84694,84694,84700,84701,84701,84702,84702,84702,84702,84710,84710,84721,84721,84722,84726,84726,84727,84734,84734,84734,84742,84742,84742,84750,84759,84759,84766,84775,84783,84783,84800,84800,84806,84816,84822,84830,84902" d="m420.51135,197.09091c0,2.55333 0,3.44667 0,4.32133c0,0.85333 0,1.79333 0,2.77867c0,0.89999 0,1.7 0,2.59999c0,0.82083 0,1.78267 0,2.59016c0,0.99651 0,1.87651 0,2.70984c0,0.9785 0,1.79866 0,2.672c0,0.87083 0,1.84883 0,2.64534c0,0.996 0,1.836 0,2.79866c0,0.76801 0,1.70934 0,2.71733c0,0.79201 0,1.65067 0,2.51401c0,0.89549 0,1.854 0,2.81934c0,0.65866 0,1.66666 0,2.54666c0,0.89734 0,1.78667 0,2.69733c0,0.91068 0,1.76401 0,2.70401c0,0.88533 -0.01874,1.68553 0,2.58533c0.01801,0.86456 0.85471,1.2495 0.99869,0.41333c0.1629,-0.94608 0.00131,-1.575 0.00131,-2.79866c0,-0.55067 0,-1.41917 0,-2.6145c0,-0.8895 0,-1.46417 0,-2.53349c0,-0.95201 0,-1.67651 0,-2.80934c0,-0.66266 0,-1.35733 0,-2.38933c0,-1.19734 0,-1.92633 0,-2.968c0,-0.81067 0,-1.45717 0,-2.68533c0,-0.55067 0,-1.41917 0,-2.6145c0,-0.8895 0,-1.46417 0,-2.53349c0,-0.92001 0,-1.68001 0,-2.66667c0,-0.98399 0,-1.84734 0,-2.74283c0,-0.95717 0,-1.85735 0,-2.6425c0,-0.94 0,-1.63068 0,-2.70401c0,-0.91066 -0.01065,-1.79999 -0.5,-2.41066l-0.48932,-0.61067" id="svg_24" stroke-width="20" stroke="#fff" fill="none"/>
  <path t="88502,88581,88590,88606,88622,88622,88646,88646,88662,88678,88686,88695,88703,88703,88703,88718,88718,88727,88750,88766,88774,88790,88974,88990,88998,89006,89030,89046,89062,89078,89086,89102,89102" d="m353.51135,212.09091c0,1.8 0,2.7 0,3.52083c0,0.96451 0,1.68983 0,2.679c0,0.77934 -0.31207,1.92056 0.22134,2.67883c0.49811,0.7081 0.77866,1.32268 0.77866,2.28801c0,0.66933 0,1.43466 0,2.62267c0,0.72533 -0.00232,1.68983 0,2.61066c0.00226,0.89552 0.67303,1.41438 0.98935,2.17467c0.35565,0.85484 0.78546,1.36194 1.00616,2.12984c0.24738,0.86067 0.00449,1.7955 0.00449,2.6955c0,0.90001 0,1.8 0,2.70001l0,0.89999l0,0.8" id="svg_25" stroke-width="2" stroke="#000" fill="none"/>
  <path t="90070,90157,90166,90166,90174,90182,90190,90190,90198,90214,90214,90230,90238,90238,90246,90254,90262,90262,90270,90278,90294,90294,90302,90317,90318,90326,90358,90366,90376,90376,90383,90391,90399,90439,90455,90479,90487,90503,90503,90511,90543,90543,90559,90575,90575,90599,90615,90631,90655,90671,90687,90687,90695,90703,90727,90735,90775,90783,90799,90822,90823,90847,90863,90879,90927,90951,90975" d="m412.51135,192.09091c0,1.75717 0,2.65266 0,3.51601c0,0.96317 0,1.7885 0,2.80516c0,0.8175 0.04849,1.72362 0.42535,2.54016c0.30069,0.65147 0.56424,1.63847 0.57465,2.46001c0.0108,0.85327 -0.13605,1.86391 0.35269,2.63049c0.44885,0.70404 0.64444,1.40001 0.64731,2.291c0.00308,0.95717 0.29404,1.81169 0.64734,2.45717c0.42508,0.77664 0.35266,1.784 0.35266,2.64734c0,0.89549 0,1.85266 0,2.75267c0,0.89999 0,1.7 0,2.59999c0,0.90001 0,1.77917 0,2.65717c0,0.94284 0,1.84283 0,2.74284c0,0.89999 -0.40271,1.83641 0.08536,2.61465c0.46432,0.7404 0.91397,1.17201 0.91464,2.11067c0.0007,1.008 0,1.813 0,2.6955c0,0.87917 0,1.77917 0,2.67917c0,0.90001 0,1.8 0,2.60001c0,0.89999 0,1.8 0,2.7c0,0.88933 0,1.85716 0,2.7c0,0.90001 0,1.8 0,2.60001c0,0.89999 0,1.8 0,2.7l0,0.89999l0,0.90001l0,0.89867" id="svg_26" stroke-width="2" stroke="#000" fill="none"/>
  <path t="92047,92150,92158,92182,92191,92191,92199,92215,92215,92231,92247,92263,92270,92279,92287,92303,92303,92311,92319,92335,92343,92350,92367,92390,92390,92407,92414,92415,92424,92430,92447,92463,92463,92471,92479,92487,92494,92503,92510,92519,92526,92535,92535,92542,92559,92575,92583,92607,92607,92615,92624,92624,92639,92655,92671,92687,92695,92695,92703,92711,92719,92735,92743,92743,92751,92759,92775,92784,92799,92808,92825,92825,92841,92847,92856,92863,92879,92879,92895,92903,92919,92935,92959,92975,92999,93031,93047,93087,93095,93116,93151,93167,93263,93287,93367,93383,93415,93415,93455,93463,93471,93480,93487,93503,93519,93527,93535,93551,93551,93559,93591,93591,93599,93607,93615,93631,93647,93663,93679,93695,93703,93711,93735,93743,93759,93760,93783,93791,93815,93832,93847,93856,93863,93879,93880,93887,93919,93951,93959,93959,93967,93983,93991,93999,94023,94047,94063,94080,94080,94087,94103,94119,94135,94135,94150,94174,94198,94206,94238,94262,94278,94295,94318,94342,94350,94366,94390,94406,94430,94446,94463,94463,94472,94503,94566,94662,94670,94688" d="m337.51135,211.09091c0,1.8 -0.09866,2.70848 0.02084,3.52083c0.14532,0.98784 0.67416,1.61868 0.89383,2.59384c0.19547,0.86769 0.08533,1.68533 0.08533,2.58533c0,0.90001 0,1.8 0,2.7c0,0.90001 -0.1637,1.8573 0.22134,2.70001c0.30579,0.6693 0.77332,1.49995 0.77866,2.39999c0.00531,0.89998 0,1.8 0,2.69867c0,0.854 0,1.80133 0,2.60133c0,0.836 0,1.85266 0,2.54733c0,1.01666 0,1.95267 0,2.854c0,0.96533 0,1.61333 0,2.62933c0,0.87383 0,1.76933 0,2.66933c0,0.89999 0,1.8 0,2.7c0,0.90001 0,1.8 0,2.60001c0,0.89999 0,1.76399 0,2.72083c0,0.88983 0,1.80051 0,2.47917c0,1.11467 0,2 0,2.79999c0,0.90002 0.16437,1.81903 -0.02081,2.70001c-0.17902,0.85165 -0.79916,1.66971 -0.95383,2.31467c-0.22717,0.94739 -0.98264,1.46768 -1.02536,2.38535c-0.04187,0.89902 0.17355,1.83823 -0.08533,2.59998c-0.30176,0.88791 -0.89667,1.59946 -0.91467,2.5c-0.01797,0.8985 0,1.75269 0,2.58667c0,0.93866 0,1.62933 0,2.70267c0,0.91068 -0.03891,1.77908 -0.5,2.43152c-0.47269,0.66885 -0.32538,1.5163 -0.52081,2.45831c-0.17902,0.86285 -0.96875,1.52063 -0.97919,2.32217c-0.01169,0.89862 0,1.79868 0,2.69867c0,0.89999 0.00009,1.79999 0,2.70001c-0.00009,0.89981 -0.54828,1.46939 -0.94281,2.15717c-0.46774,0.81543 -0.05719,1.80948 -0.05719,2.74283c0,0.89999 0.15433,1.81625 1,1.89999c0.79611,0.07883 1.79691,0.36316 2.56403,-0.03601c0.75937,-0.39514 1.43817,-0.47134 2.15067,-1.04932c0.74411,-0.60361 0.73148,-1.46225 1.19998,-2.20001c0.43912,-0.69147 0.04813,-1.71552 0.08533,-2.51465c0.04272,-0.91766 0.78964,-1.54584 1,-2.20001c0.29309,-0.91153 0.9874,-1.52069 1,-2.39999c0.01291,-0.8999 0.41501,-1.57452 0.83334,-2.43335c0.34811,-0.71469 0.16666,-1.66666 0.16666,-2.56665c0,-0.89999 0,-1.80002 0,-2.70001c0,-0.89999 0,-1.69998 0,-2.60001c0,-0.89999 -0.039,-1.81287 0.42535,-2.31067c0.51364,-0.55063 0.43256,-1.50232 0.58533,-2.38931c0.14349,-0.83316 0.638,-1.42813 1.04199,-2.30002c0.38535,-0.83163 0.82568,-1.62506 1.11401,-2.46664c0.28729,-0.83847 1.09946,-1.21088 1.66666,-2c0.48282,-0.67172 0.9137,-1.38037 1.13068,-2.23334c0.22205,-0.87292 -0.12769,-1.8573 0.25732,-2.70001c0.30579,-0.66931 0.60815,-1.52 0.7995,-2.39999c0.18402,-0.84633 0.91708,-1.59236 0.97784,-2.3c0.08841,-1.02954 -0.00815,-1.81071 0.00131,-2.7c0.01044,-0.97934 0.77481,-1.4366 0.99551,-2.2045c0.24738,-0.86067 0.00449,-1.7955 0.00449,-2.6955c0,-0.90001 -0.14978,-1.81259 0.00018,-2.69984c0.14401,-0.85202 0.97122,-1.25151 0.99982,-2.1855c0.02493,-0.81429 -0.02539,-1.71506 0,-2.51466c0.02859,-0.90135 0.5,-1.7 0.94284,-2.5l0.05716,-0.89999l0,-0.90001l0,-0.89999" id="svg_27" stroke-width="2" stroke="#000" fill="none"/>
  <path t="95455,95606,95631,95655,95679,95703,95719,95735,95743,95761,95775,95903,95911,95935,95935,95975,95999,96007,96023,96079,96151,96151,96167,96190" d="m338.51135,210.09091c0.05719,-1.7 0.54022,-2.44853 1.2955,-2.94733c0.69818,-0.46109 1.13739,-1.30391 1.53784,-2.05267c0.42328,-0.79144 1.43793,-0.54898 2.04517,-1.22133c0.56314,-0.62352 0.3349,-1.79875 1.2215,-1.7785c0.91504,0.0209 1.59042,0.42387 2.37918,0.99983c0.64029,0.46753 1.06958,1.21461 1.6875,1.83333c0.61838,0.6192 1.05484,1.26651 1.63467,1.88133l0.84149,0.33801l0.40982,0.65182" id="svg_28" stroke-width="2" stroke="#000" fill="none"/>
  <path t="97399,97510,97519,97526,97535,97543,97551,97568,97568,97574,97582,97590,97598,97606,97614,97630,97630,97646,97646,97654,97662,97670,97670,97686,97702,97710,97726,97726,97735,97735,97742,97766,97774,97782,97790,97798,97798,97814,97830,97846,97862,97870,97878,97878,97886,97902,97910,97918,97926,97950,97958,97968,97985,97998,98007,98022,98038,98046,98046,98062,98070,98086,98094,98102,98118,98134,98134,98142,98151,98167,98174,98174,98190,98198,98206,98214,98223,98231,98238,98247,98254,98262,98278,98286,98310,98334,98343,98359,98670,98694,98703,98743,98791,98798,98815,98815,98831,98887,98902,98918,98919,98927,98958,99000,99006,99022,99031,99079,99118,99142,99159,99175,99214,99254,99254,99262,99286,99294,99302,99310,99326,99334,99382,99406,99422,99438,99438,99446,99454,99454" d="m419.51135,199.09091c0,1.61067 0,2.5 0,3.39999c0,0.90001 0,1.8 0,2.70001c0,0.89999 0,1.7 0,2.59999c0,0.90001 -0.30988,1.85973 0.01068,2.68933c0.3064,0.79291 0.98398,1.25729 0.98932,2.26784c0.00394,0.74731 0,1.7415 0,2.50684c0,0.95067 0,1.936 0,2.836c0,0.8 -0.01019,1.70006 0,2.60001c0.01044,0.92101 0.23468,1.71593 0.57468,2.57466c0.31635,0.799 0.40665,1.62419 0.42532,2.52533c0.01868,0.90054 0.61813,1.61034 0.91467,2.5c0.28586,0.85765 0.08533,1.8 0.08533,2.60001c0,0.89999 0,1.84283 0,2.72083c0,0.87917 -0.13651,1.8358 0.28403,2.67917c0.32993,0.66164 0.71371,1.49998 0.71597,2.40001c0.00223,0.89999 -0.02881,1.82445 0.5,2.37917c0.46732,0.4902 0.51068,1.41016 1,2.02083c0.48935,0.61067 0.5,1.5 0.5,2.39999c0,0.90001 -0.1637,1.8573 0.22134,2.70001c0.30579,0.6693 0.44553,1.57379 0.7995,2.37917c0.31296,0.71208 0.5665,1.34909 1.03635,2.16367c0.39615,0.68681 0.94281,1.35716 0.94281,2.15717c0,0.89999 -0.07568,1.86641 0.436,2.59999c0.4711,0.67538 1.31949,1.13446 1.54318,2.10001c0.20319,0.87701 -0.05222,1.85016 0.44617,2.47467c0.4852,0.60797 0.42606,1.50375 0.92734,2.32083c0.45981,0.74948 0.46457,1.43536 0.68332,2.3045c0.21716,0.86279 0.74402,1.69675 1.31668,2.34732c0.51831,0.58881 1.87933,0.99255 1.646,1.76868c-0.19354,0.6438 -1.56812,0.39584 -2.29416,-0.06866c-0.80594,-0.51563 -1.34958,-1.22559 -1.90317,-1.84735c-0.67905,-0.7627 -0.97073,-1.51443 -1.80136,-1.79999c-0.82938,-0.28513 -0.81113,-1.26453 -1.16666,-2c-0.36478,-0.75461 -1.45758,-0.98251 -1.85867,-1.61066c-0.47623,-0.74582 -0.5647,-1.7785 -1.14133,-2.38934c-0.55008,-0.5827 -1.28806,-0.81787 -2.12881,-1c-0.74289,-0.16095 -0.59369,-1.10687 -0.70453,-2c-0.1116,-0.89926 -1.0365,-1.12225 -1.69998,-1.7045c-0.633,-0.55548 -0.97095,-1.52527 -1.52133,-2.17416c-0.56085,-0.66122 -1.16626,-1.13629 -1.80402,-1.696c-0.58957,-0.51744 -0.60931,-1.4305 -1.06,-2.14134c-0.46759,-0.73753 -0.91467,-1.284 -1,-2.084l-0.52533,-0.8l-0.58932,-0.60266l-0.5,-0.61166" id="svg_29" stroke-width="2" stroke="#000" fill="none"/>
  <path t="100383,100510,100526,100526,100542,100558,100582,100582,100590,100598,100615,100622,100638,100648,100670,100686,100734,100774,100798,100806,100822,100822,100846,100854,100871,101158,101182,101182,101198,101206,101214,101230,101238,101254,101278,101278,101302,101310,101326,101326,101350,101374,101398,101398" d="m413.51135,192.09091c1.75717,0 2.67322,-0.11855 3.51602,0.08533c0.888,0.21481 1.73007,0.71468 2.48398,1.08134c0.76361,0.3714 1.6998,0.70282 1.98935,1.444c0.34732,0.88902 0.82877,1.38361 1.00934,2.19066c0.19943,0.8913 0.00131,1.80934 0.00131,2.67784c0,0.95683 0,1.82083 0,2.72083c0,0.90001 0,1.8 0,2.60001c0,0.89999 0,1.8 0,2.7c0,0.87866 0,0.5 0,-0.3c0,-0.89999 0,-1.8 0,-2.7c0,-0.89999 -0.09088,-1.80473 0.00134,-2.7c0.08371,-0.81261 0.74918,-1.45793 1.29416,-2.10001c0.64056,-0.7547 0.7045,-1.7 0.7045,-2.5c0,-0.89999 0,-1.72083 0,-2.68399l0,-0.86334" id="svg_30" stroke-width="2" stroke="#000" fill="none"/>
  <path t="104326,104406,104406,104416,104422,104422,104430,104438,104449,104455,104455,104471,104482,104499,104504,104515,104519,104519,104527,104535,104544,104550,104551,104566,104582,104582,104590,104590,104599,104606,104606,104614,104622,104633,104638,104646,104665,104671,104686,104686,104699,104703,104710,104719,104727,104734,104734,104744,104750,104761,104761,104761,104766,104775,104783,104783,104791,104799,104799,104815,104815,104822,104822,104832,104838,104839,104848,104848,104854,104865,104881,104886,104902,104915,104915,104919,104926,104943,104960,104960,104966,104974,104990,104999,105007,105015,105022,105038,105048,105054,105065,105070,105081,105082,105097,105098,105115,105119,105126,105150,105160,105166,105176,105182,105190,105199,105222,105231,105238,105254,105278,105287,105298,105310,105335,105343,105359,105376,105391,105406,105422,105438,105448,105464,105465,105481,105498,105498,105503,105519,105529,105551,105559,105614,105654,105790,105806,105838,105838,105847,105865,105870,105894,105903,105903,105915,105919,105930,105935,105947,105951,105959,105966,105967,106006,106070,106086,106103,106118,106118,106142,106142,106166,106183,106206,106222,106334,106347,106358,106375,106382,106391" d="m281.51135,302.09091c0,1 0,1.79999 0,2.75717c0,0.89551 -0.00247,1.59015 0,2.60684c0.00226,0.93149 0.59564,1.52451 0.94736,2.34131c0.29242,0.67914 0.96875,1.28012 1.05264,1.99918c0.10379,0.88947 -0.14273,1.80862 0.01068,2.6955c0.14417,0.83347 0.88092,1.32269 1.46851,2.10001c0.55759,0.73761 0.33194,1.76932 0.74234,2.60001c0.34116,0.69058 1.24863,1.11761 1.61182,2.06665c0.3024,0.79013 -0.02698,1.702 0.22385,2.52884c0.26956,0.88855 1.26395,1.41794 1.6575,2.10449c0.42065,0.73383 0.28531,1.70001 0.28531,2.60001c0,0.89999 0,1.79868 0,2.70984c0,0.91101 0,1.72351 0,2.58566c0,0.90451 0,1.8045 0,2.7045c0,0.89999 0,1.80133 0,2.76666c0,0.8125 0,1.72351 0,2.51602c0,1.08533 0,1.81732 0,2.54932c0,1.09601 0,1.96802 0,2.86816c0,0.78519 0,1.72516 0,2.73318c0,0.80499 0,1.73734 0,2.57565c0,0.98965 0,1.755 0,2.70566c0,0.88535 0,1.64252 0,2.53802c0,0.86331 0,1.82648 0,2.73666c0,0.96783 0,1.81067 0,2.71066c0,0.89999 0,1.69998 0,2.60001c0,0.89999 0,1.82083 0,2.784c0,0.69064 0.12094,1.83121 -0.35266,2.46332c-0.50928,0.67975 -0.64667,1.45267 -0.64734,2.35266c-0.00067,0.89868 -0.6102,1.4379 -0.96399,2.13602c-0.3909,0.77133 0.11356,1.77655 -0.03616,2.66382c-0.14401,0.8533 -0.83481,1.34995 -0.99533,2.19485c-0.17804,0.93716 -0.83777,1.47827 -1,2.40533c-0.1553,0.88742 -0.6174,1.61209 -0.91916,2.5c-0.25888,0.76175 -0.56848,1.40717 -1,2.08533c-0.49316,0.77505 -0.08536,1.81448 -0.08536,2.71466c0,0.80133 0,1.70001 0,2.60001c0,0.89999 0.00067,1.79999 0,2.69998c-0.00067,0.89868 -0.6102,1.4379 -0.96399,2.13602c-0.3909,0.77133 -0.03601,1.8595 -0.03601,2.73065c0,0.83334 -0.48312,1.44052 -0.91464,2.11868c-0.49316,0.77505 -0.08536,1.81467 -0.08536,2.71466c0,0.79999 0.01184,1.65146 -0.284,2.48401c-0.31363,0.88257 -0.52039,1.77338 -0.716,2.68265c-0.16855,0.78342 -0.98199,1.2688 -1,2.13333c-0.01874,0.89984 -0.08868,1.80441 0,2.70001c0.08374,0.8457 1.13358,1.03879 1.64285,1.7045c0.51831,0.67749 0.98566,1.11176 1.92117,1.2955c0.76117,0.14951 1.36057,1.0929 2.03598,1.564c0.73361,0.51169 1.71591,0.26901 2.59866,0.43735c0.75739,0.14441 1.23679,0.98001 2.10135,0.99866c0.89978,0.01941 1.7532,0.29639 2.39999,0.64734c0.81674,0.44318 1.82083,0.35266 2.70001,0.35266c0.90448,0 1.76666,0 2.59998,0c0.97852,0 1.79868,0 2.70001,0c0.89999,0 1.79999,0.00067 2.68933,0c0.89468,-0.00067 1.58533,-0.42532 2.1315,-0.97916l0.95834,-0.04169l0.54617,-0.55383l0.62131,-0.41467" id="svg_31" stroke-width="2" stroke="#000" fill="none"/>
  <path t="107231,107325,107342,107350,107366,107374,107374,107422,107430,107440,107478,107510,107518,107518,107534,107550,107566,107582,107590,107598,107614,107623,107662,107678,107694,107710,107710,107718,107734,107750,107766,107782,107806,107806,107822,107830,107846,107871" d="m277.51135,415.09091c0.61069,-1.60001 1.39639,-2.23297 1.83334,-3c0.44427,-0.77988 1.13333,-1.22058 1.76666,-1.57468c0.86124,-0.48151 1.82446,-0.39651 2.37918,-0.92532c0.4902,-0.46732 1.37747,-0.36343 2.22083,-0.784c0.66165,-0.32993 1.5,-0.71375 2.39999,-0.716c0.89999,-0.00223 1.80002,0 2.70001,0c0.89999,0 2.05029,-0.39203 2.57849,0.22134c0.62192,0.72223 0.25336,1.69812 0.69617,2.42532c0.47003,0.77188 0.19675,1.73163 0.42984,2.59167c0.22186,0.81857 0.8465,1.29654 1.00616,2.16165c0.15344,0.83139 0.9043,1.5874 0.98801,2.39999c0.09222,0.89529 0.03732,1.76401 0.71732,2.19867l0.284,0.612" id="svg_32" stroke-width="2" stroke="#000" fill="none"/>
  <path t="112207,112318,112318,112334,112345,112351,112358,112368,112375,112382,112383,112390,112390,112390,112398,112398,112414,112414,112422,112422,112422,112430,112430,112438,112446,112454,112470,112486,112534,112534,112574,112582" d="m438.51135,265.09091c0,-1 0,-1.79999 0,-2.70001c0,-0.89999 0,-1.79999 0,-2.69998c0,-0.89999 0,-1.80133 0,-2.76666c0,-0.66934 0,-1.83334 0,-2.63335c0,-0.8 0,-1.791 0,-2.48567c0,-1.04765 0,-1.77682 0,-2.881c0,-0.78149 0,-1.57199 0,-2.69032c0,-0.72168 0,-1.64301 0,-2.543c0,-0.90001 0,-1.79868 0,-2.68401c0,-0.916 0,-1.716 0,-2.616l0,-0.90001" id="svg_33" stroke-width="2" stroke="#000" fill="none"/>
 </g>
 <g display="none">
  <title>muse_image</title>
  <image xlink:href="http://farm1.static.flickr.com/21/34490227_b23f531769.jpg" id="muse" height="480" width="588" y="0" x="26"/>
 </g>
 <g display="none">
  <title>bbox</title>
  <rect stroke="#f00" fill="none" stroke-width="3" height="427.05882" width="269.304" y="10.58824" x="249.44" id="bbox"/>
 </g>
</svg>
