<svg width="640" height="480" xmlns="http://www.w3.org/2000/svg" xmlns:svg="http://www.w3.org/2000/svg" xmlns:xlink="http://www.w3.org/1999/xlink">
 <!-- Sketchy ANNOTATION
  ImageNet ID: n02503517_184
  URL: http://farm3.static.flickr.com/2246/2090666352_646575e4fc.jpg
  Image Width: 500
  Image Height: 333
  BBox X: 0
  BBox Y: 0
  BBox Width: 391
  BBox Height: 328
  Exposure: 2000ms
  Synset Label: elephant
  Synset ID: n02503517
  Worker Tag: close-up elephant with trunk curled
  Sanity Check: 
   Context
   Saved
   Shading
  Comment: 
   {}
  Worker ID: A2HM35CWB7IIFM
  Assignment ID: 3VHP9MDGRNKG3H4U7UF4N61RIQLCF7
  HIT ID: 34R3P23QHS178R3BT9Y3D1PMQWNWHH
  Work Time: 82s
  Worker Score: 0.9286
 END ANNOTATION -->
 <g display="inline">
  <title>Layer 1</title>
  <path t="0,147,153,153,167,167,177,192,192,202,203,203,214,214,214,226,226,241,241,241,251,251,251,263,263,275,275,275,293,293,311,312,325,325,342,349,349,361,375,392,398,398,414,432,438,447,459,475,475,485,496,509,509,525,525,525,533,533,533,545,545,545,545,558,558,558,558,575,576,576,576,576,582,582,582,582,594,594,595,595,609,609,609,625,626,626,632,632,644,644,659,676,681" d="m317,34.9c0.88666,-0.99866 1.836,-1 2.60132,-1c0.99417,0 1.74152,0 2.77335,0c0.94684,0 1.64618,0 2.62534,0c0.81067,0 1.68533,0 2.68399,0c0.81601,0 1.63202,0 2.63068,0c0.87466,0 1.8855,0 2.70618,0c0.66449,0 1.66315,0 2.47916,0c0.81601,0 2.04733,0 2.72534,0c1.19583,0 1.98932,-0.0005 2.76483,0c1.0405,0.00067 1.7818,-0.00686 2.66251,0.35717c0.71774,0.29667 1.6033,0.92858 2.146,1.44283c0.71924,0.68157 1.4201,1.21077 1.84415,1.9c0.50534,0.82139 0.24576,1.86957 0.71436,2.6c0.51318,0.79992 1.11871,1.3525 1.61749,2.08933c0.45157,0.66707 1.01898,1.23821 1.45065,2.01067c0.45782,0.81924 0.61093,1.73689 1.27917,2.24283c0.69522,0.52637 1.60931,0.69958 2.2955,1.35717c0.64938,0.62232 1.31342,1.32972 1.836,1.82533c0.56,0.53112 1.36691,1.14938 2.18484,1.6955c0.66675,0.44516 1.40521,1.01684 1.93631,1.489c0.5686,0.50552 1.13278,1.05899 2.04285,1.8235c0.58945,0.49518 1.50204,1.16229 2.04285,1.6765c0.82724,0.78658 1.27957,1.45391 1.73181,2.14083c0.45718,0.69443 0.86093,1.42206 1.64651,2.3065c0.49777,0.56041 1.08221,0.99691 1.569,1.491c0.91483,0.92853 1.21524,1.50158 1.62448,2.3625c0.27847,0.58581 0.86914,1.78737 1.20001,2.37866c0.47711,0.8526 0.86026,1.6415 1.13467,2.564c0.22546,0.75801 0.7861,1.46305 1.4025,1.99934c0.79654,0.69302 1.20151,1.422 1.56415,2.36066l0.30536,0.76534l0.72598,0.4785" id="svg_1" stroke-width="2" stroke="#000" fill="none"/>
  <path t="1608,1715,1739,1739,1739,1751,1751,1751,1751,1751,1766,1766,1766,1775,1775,1775,1775,1792,1792,1792,1792,1792,1801,1801,1801,1801,1801,1801,1801,1801,1815,1815,1816,1816,1816,1816,1816,1816,1816,1825,1825,1825,1825,1825,1825,1825,1825,1825,1843,1843,1843,1843,1843,1843,1843,1843,1844,1851,1852,1852,1852,1852,1852,1852,1852,1852,1861,1861,1861,1861,1862,1862,1862,1862,1863,1875,1875,1875,1875,1875,1892,1892,1892,1892,1902,1902,1902,1911,1911,1911,1926,1926,1926,1927,1942,1942,1942,1952,1952,1952,1960,1960,1960,1961,1975,1975,1975,1975,1984,1985,1985,1985,1985,1998,1998,1998,1998,1998,1999,2008,2009,2009,2009,2009,2009,2026,2026,2027,2027,2027,2027,2048,2048,2048,2049,2049,2049,2060,2060,2060,2061,2061,2061,2076,2076,2077,2077,2085,2085,2086,2086,2095,2095,2095,2110,2110,2110,2110,2111,2125,2126,2126,2126,2126,2126,2126,2132,2133,2133,2133,2133,2133,2144,2145,2145,2145,2145,2145,2158,2158,2159,2175,2176,2176,2176,2182,2193,2193,2194,2216,2217,2217,2221,2222,2235,2236,2236,2247,2248" d="m379,76.9c1.564,0.64667 1.88892,1.49631 2.09732,2.31866c0.13785,0.54398 0.55768,1.54987 0.96069,2.33933c0.43237,0.84698 0.68823,1.25494 1.09,2.09c0.51682,1.0742 0.73257,1.96373 0.95282,2.69566c0.29855,0.99209 0.76694,1.80231 1.15649,2.367c0.4151,0.60172 1.14584,1.50743 1.71783,2.08933c0.60938,0.61992 1.34711,1.21548 1.76752,1.5c1.40906,0.95357 1.99908,1.20701 2.595,1.509c0.62537,0.31691 1.28705,0.63322 1.97699,0.96301c0.71738,0.3429 1.46643,0.68835 3.01868,1.46133c0.81183,0.40428 1.63568,0.83297 2.4675,1.281c0.84155,0.45326 1.6813,0.92215 2.51248,1.407c0.82721,0.48254 1.64676,0.96073 3.18668,1.97867c0.74176,0.49033 1.44702,0.99376 2.11951,1.5045c0.6568,0.49883 1.28308,1.00858 1.8765,1.5315c0.58289,0.51364 1.15295,1.02708 2.17065,2.13066c0.50223,0.54461 0.97089,1.11632 1.41901,1.704c0.45068,0.59106 0.8804,1.20762 1.293,1.848c0.42026,0.65229 0.83719,1.32852 1.62134,2.78133c0.40958,0.75883 0.80222,1.55026 1.1955,2.358c0.39743,0.81626 0.785,1.64137 1.16852,2.466c0.38016,0.81738 0.74677,1.62579 1.46933,3.176c0.34299,0.73586 0.6781,1.44027 1.00049,2.115c0.30832,0.64526 0.6044,1.25966 0.88351,1.845c0.2645,0.55468 0.51862,1.0764 0.94931,2.04c0.19394,0.43391 0.3739,0.83962 0.66135,1.592c0.37784,0.98895 0.66891,1.90903 0.97198,2.8035c0.198,0.58435 0.4722,1.43076 0.90134,2.4205c0.30029,0.69264 0.67599,1.37283 1.28268,2.36934c0.33691,0.55338 0.8923,1.40402 1.34933,2.31465c0.44254,0.88176 0.62146,1.50146 1.05066,2.31467c0.54434,1.03137 0.95322,1.43971 1.46332,2.08084c0.78867,0.99127 1.15115,1.64101 1.62201,2.28984c0.5481,0.75528 1.04001,1.27226 1.55151,1.83549c0.53049,0.58412 1.56668,1.77229 2.022,2.37917c0.44522,0.5934 0.85376,1.19926 1.45715,2.09999c0.40341,0.60219 0.81674,1.22453 1.272,1.87201c0.49371,0.70216 1.36945,1.87189 1.69733,2.29733c0.68915,0.89423 1.05142,1.35158 1.41602,1.81599c0.73181,0.93216 1.44821,1.84785 2.13065,2.72934c0.33142,0.42809 0.98145,1.26654 1.30936,1.67467c0.65356,0.81345 1.33588,1.61557 2.05865,2.41066c0.36591,0.40251 1.11652,1.19951 1.49066,1.60001c0.3732,0.39951 1.46298,1.59633 1.80383,2.00017c0.67288,0.7972 1.30469,1.61769 1.61084,2.03583c0.61752,0.8434 1.21756,1.7262 1.80798,2.64667c0.29715,0.46327 0.86533,1.39401 1.13068,1.856c0.50964,0.88728 0.95178,1.72186 1.30267,2.49066c0.46606,1.02116 0.68784,1.67592 1.13599,2.57066c0.4563,0.91101 0.83472,1.47832 1.18066,2.04285c0.63388,1.03444 1.03305,1.73953 1.40533,2.467c0.57776,1.12898 0.90936,1.81119 1.26819,2.5735c0.19241,0.40878 0.5928,1.28497 0.97916,2.25c0.41324,1.03214 0.60263,1.58006 0.79999,2.13866c0.40543,1.14745 0.6008,1.73674 0.80002,2.33067c0.60245,1.79619 0.7991,2.39497 1,2.98833c0.1991,0.58798 0.59488,1.73888 0.79999,2.29468c0.58545,1.58644 0.79349,2.07391 1.1955,2.9955c0.19083,0.43748 0.57529,1.25845 0.91919,2.03084c0.47302,1.06238 0.86453,2.0443 1.03867,2.67732c0.32956,1.19812 0.35779,1.80849 0.44666,2.66901c0.07968,0.77145 0.45587,1.86713 1,2.70833c0.42651,0.65938 0.71832,1.26689 1.32132,2.03317c0.63907,0.81212 1.17752,1.33246 1.93051,2.0475c0.5459,0.51839 1.29083,1.07399 1.99884,1.578l0.74399,0.52199l0.86234,0.63101l0.60135,0.48" id="svg_2" stroke-width="2" stroke="#000" fill="none"/>
  <path t="2985,3116,3129,3129,3143,3161,3161,3166,3166,3166,3177,3177,3177,3193,3193,3193,3193,3193,3193,3209,3209,3210,3210,3210,3210,3210,3215,3215,3215,3215,3215,3215,3215,3215,3227,3227,3227,3227,3227,3227,3227,3228,3228,3243,3243,3243,3244,3244,3244,3244,3244,3244,3257,3257,3257,3258,3258,3258,3258,3258,3258,3263,3263,3264,3264,3264,3264,3264,3264,3264,3275,3275,3275,3276,3276,3276,3276,3276,3276,3292,3292,3292,3292,3301,3301,3301,3312,3313,3313,3325,3326,3326,3326,3341,3341,3341,3342,3350,3350,3350,3350,3350,3351,3351,3362,3362,3362,3362,3363,3363,3363,3363,3363,3375,3375,3375,3375,3375,3375,3375,3375,3376,3392,3392,3392,3392,3392,3392,3393,3393,3399,3399,3399,3400,3400,3410,3410,3411,3425,3426,3426,3441,3441,3442,3442,3448,3448,3448,3460,3461,3461,3461,3474,3475,3475,3475,3475,3475,3485,3485,3485,3485,3486,3486,3486,3497,3498,3498,3498,3498,3498,3498,3508,3509,3509,3509,3509,3526,3526,3527,3527,3527,3535,3535,3535,3535,3546,3546,3546,3558,3558,3575,3583,3584,3584,3596,3608,3608,3609,3626,3626,3626,3626,3634,3634,3634,3634,3644,3644,3644,3645,3659,3660,3660,3675,3675" d="m478,218.89999c0.99551,1.75717 0.87689,2.67432 1.08533,3.51601c0.22058,0.89075 0.95593,1.44746 1.51468,2.12c0.54236,0.6528 0.91248,1.41046 1.28534,2.05067c0.58691,1.00772 0.95645,1.55641 1.32532,2.16c0.802,1.31233 0.98492,1.67775 1.40283,2.41499c0.44382,0.78296 0.94598,1.60831 1.24249,2.02499c0.96997,1.3631 1.396,1.80226 1.81552,2.27051c0.43237,0.48257 1.35898,1.45502 1.84198,1.94733c0.48895,0.49837 1.48801,1.494 1.98618,1.99617c0.49918,0.50319 1.00125,1.0083 1.479,1.54201c0.96979,1.08336 1.42664,1.67226 1.85068,2.29866c0.87881,1.29817 1.23953,2.03899 1.60132,2.8c0.37161,0.78169 0.71353,1.60045 1.04849,2.442c0.34116,0.8571 0.66739,1.73528 1.00351,2.62199c0.68073,1.7959 1.03644,2.69574 1.40134,3.59601c0.36642,0.90407 0.74222,1.80898 1.116,2.7195c0.37555,0.91479 0.75375,1.8338 1.116,2.7645c0.73032,1.87634 1.06754,2.83365 1.396,3.79468c0.32721,0.95734 0.63547,1.91183 0.92551,2.85748c0.28455,0.92773 0.55069,1.83643 0.7905,2.7225c0.4519,1.6698 0.63281,2.45279 0.80133,3.19601c0.15997,0.70551 0.30066,1.37827 0.42902,2.01898c0.12222,0.60999 0.23178,1.19284 0.33899,1.74899c0.20105,1.043 0.2999,1.53348 0.40399,2.00403c0.10037,0.4538 0.20505,0.89047 0.31952,1.30948c0.11099,0.40634 0.22479,0.80045 0.3645,1.1745c0.40311,1.07935 0.76361,1.73288 1.11465,2.36719c0.51056,0.92252 0.99426,1.81396 1.36401,2.71014c0.23544,0.57062 0.62927,1.64688 0.93597,2.358c0.29361,0.68082 0.70978,1.61572 1,2.40985c0.31049,0.8497 0.51007,1.44086 0.90002,2.64816c0.20532,0.63565 0.41638,1.33472 0.59998,2.13599c0.32959,1.43854 0.40381,2.00208 0.5,2.59634c0.20819,1.28604 0.30176,1.97675 0.40002,2.69467c0.10181,0.74341 0.30151,2.30081 0.39984,3.1105c0.10034,0.82629 0.198,1.66672 0.28949,2.51849c0.09229,0.85925 0.1781,1.72369 0.25348,2.59048c0.07526,0.86523 0.19421,2.58133 0.23584,3.42633c0.04108,0.83365 0.06946,1.65564 0.09601,2.46451c0.02612,0.7948 0.04834,1.57477 0.078,2.3385c0.02905,0.74692 0.10913,2.18591 0.16864,2.87567c0.05792,0.6716 0.12897,1.32462 0.20404,1.96051c0.14471,1.22586 0.22803,1.8158 0.29065,2.39465c0.17993,1.66422 0.20972,2.19821 0.24799,3.22c0.03558,0.94901 0.03375,1.392 0.03601,2.90366c0.00092,0.59735 0,1.608 0,2.58585c0,0.81448 0,1.38916 0,2.57849c0,0.89999 0,1.5 0,2.39999c0,1.20001 0,1.80002 0,2.70001c0,1.2005 0,1.81351 0,2.80801c0,0.74799 0,2.05649 0,2.54797c0,1.052 0,1.60651 0,2.75751c0,0.59052 0,1.7865 0,2.98785c0,0.60315 0,1.20932 0,1.81949c0,1.23633 0,1.8645 0,3.14584c0,0.65433 0,1.97699 0,2.63733c0,0.65433 0,1.29865 0,2.54132c0,1.15466 0,2.20001 0,2.68768c0,0.92532 0.00098,1.81067 0,3.13367c-0.00067,0.91599 0.00592,1.38174 -0.02081,2.3125c-0.02618,0.91132 -0.12714,2.19061 -0.26318,2.94882c-0.12427,0.6926 -0.39459,1.59921 -0.54932,2.40533c-0.17743,0.92447 -0.19513,1.78198 -0.51935,2.76218c-0.25226,0.76266 -0.52466,1.67142 -0.81403,2.57117c-0.21783,0.6774 -0.61786,1.3613 -1.23334,2.20798c-0.58423,0.80368 -0.9834,1.4895 -1.41431,2.02985c-0.67264,0.84341 -1.45236,1.40289 -2.00699,1.7955c-0.57596,0.40771 -1.46872,1.01575 -2.38934,1.58932c-0.61871,0.3855 -1.25967,0.76038 -2.31052,1.18933c-0.71756,0.29291 -1.46872,0.49292 -2.16898,0.77402c-1.28854,0.51724 -1.79102,0.89999 -2.45251,1.422l-0.836,0.80383l-0.52133,0.50067" id="svg_3" stroke-width="2" stroke="#000" fill="none"/>
  <path t="4546,4667,4667,4667,4684,4684,4684,4694,4694,4694,4694,4710,4710,4710,4715,4715,4727,4727,4741,4758,4758,4764,4764,4776,4776,4791,4791,4791,4801,4801,4801,4801,4813,4813,4813,4813,4826,4826,4826,4842,4843,4851,4863,4874,4899,4899,4911,4924,4942,4942,4942,4949,4949,4949,4949,4960,4960,4961,4961,4961,4961,4975,4975,4975,4975,4975,4991,4991,4991,4991,4998,4998,4998,4998,5010,5010,5010,5011,5024,5025,5025,5025,5025,5025,5035,5035,5035,5035,5035,5035,5036,5036,5036,5047,5047,5047,5048,5048,5048,5048,5048,5058,5058,5058,5059,5059,5059,5059,5074,5074,5075,5075,5075,5084,5084,5085,5085,5096,5097,5097,5108,5108,5108,5108,5108,5108,5125,5125,5125,5125,5126,5126,5126,5133,5133,5134,5134,5134,5134,5134,5145,5145,5145,5146,5146,5146,5146,5158,5158,5158,5158,5175,5175,5176,5176,5183,5183,5194,5194,5194,5194,5208,5208,5208,5208,5208,5233,5233,5234,5234,5234,5235,5235,5245,5245,5245,5245,5246,5246,5246,5246,5246,5278,5279,5279,5279,5281,5282,5282,5282,5310,5311,5340,5341,5341,5341,5343,5344,5344,5344,5344,5364,5365,5365,5367,5367,5368,5398,5399,5399,5443,5443,5443,5444,5444,5444,5457,5457,5457,5457,5457,5458,5458,5458,5466,5466,5466,5467,5477,5477,5477,5477,5491,5491,5491,5502,5502,5503,5515,5515,5516,5526,5527,5543,5543,5563,5577,5577,5601,5650,5686,5762" d="m497,394.89999c-1.65268,2.60452 -2.19968,3.21802 -2.51599,3.68533c-0.65369,0.96576 -0.97369,1.84009 -1.23666,2.41919c-0.54736,1.20538 -0.90128,1.79474 -1.24734,2.39548c-0.51785,0.89893 -0.98676,1.79605 -1.24283,2.39102c-0.35812,0.83206 -0.68481,1.82629 -1.25717,2.56732c-0.53693,0.69516 -1.26315,1.06931 -2.10001,1.603c-0.66296,0.42279 -1.0788,1.36002 -1.884,1.77066c-0.64536,0.32913 -1.62296,0.7449 -2.14133,1.35333c-0.68457,0.8035 -1.21826,1.19437 -1.83633,1.56735c-0.95532,0.57651 -1.77859,1.08389 -2.38501,1.422c-0.63351,0.35321 -1.66809,0.82233 -2.40149,1.06366c-0.72513,0.23862 -1.77689,0.51044 -2.70883,0.64017c-0.99677,0.13876 -1.64139,0.07935 -2.63849,0.12601c-0.92172,0.04312 -1.68265,0.61267 -2.60452,0.91016c-0.86035,0.27762 -1.76666,0.30594 -2.39999,0.66c-0.86127,0.48151 -1.70898,0.42532 -2.73334,0.42532c-0.681,0 -1.48798,0 -2.66666,0c-0.604,0 -1.5625,0 -2.27151,0c-1.22849,0 -2.18182,0 -2.69098,0c-1.05835,0 -1.5975,0 -2.67084,0c-1.03333,0 -1.996,0 -2.89468,0c-0.85065,0 -1.66931,0 -2.87183,0c-0.79565,0 -1.57932,0 -2.34299,0c-1.09052,0 -1.77316,0 -2.75717,0c-0.65268,0 -2.02167,0 -2.76166,0c-0.78,0 -1.60001,0 -2.905,0c-0.45535,0 -1.40402,0 -2.41669,0c-0.53531,0 -1.09265,0 -2.91666,0c-0.66449,0 -1.35599,0 -2.0715,0c-0.73651,0 -1.491,0 -2.2605,0c-0.78149,0 -1.57199,0 -3.168,0c-0.79965,0 -1.59732,0 -2.39099,0c-0.78769,0 -1.56735,0 -2.33701,0c-0.75766,0 -2.93866,0 -3.62866,0c-0.67001,0 -1.32001,0 -2.56,0c-0.59,0 -1.16,0 -2.75,0c-0.96133,0 -1.41452,0 -2.27084,0c-0.79633,0 -2.241,0 -2.90533,0c-0.9465,0 -1.55585,0 -2.75983,0c-0.61868,0 -1.61166,0 -2.73068,0c-0.84,0 -1.28998,0 -2.25,0c-1.03998,0 -1.59,0 -2.75,0c-1.23599,0 -1.8765,0 -2.52798,0c-0.65952,0 -1.99051,0 -2.65601,0c-1.31601,0 -1.96115,0 -2.59732,0c-1.24936,0 -1.8645,0 -2.47467,0c-1.20935,0 -2.41068,0 -3.01035,0c-1.19131,0 -1.77899,0 -2.92834,0c-0.55765,0 -1.10132,0 -2.62881,0c-0.92435,0 -1.78067,0 -2.577,0c-1.09952,0 -1.77951,0 -2.72452,0c-0.85498,0 -1.86053,0.04401 -2.767,-0.03598c-0.94666,-0.08356 -1.74109,-0.32022 -2.33716,-0.48483c-1.00995,-0.2789 -2.1796,-0.58301 -2.60815,-0.67786c-0.89951,-0.19907 -1.84943,-0.37341 -2.33835,-0.44415c-1.48764,-0.21521 -1.9913,-0.24384 -3.01349,-0.3045c-0.53061,-0.03149 -1.65756,-0.07687 -2.26334,-0.10535c-0.6409,-0.03012 -2.04773,-0.11096 -2.82034,-0.16882c-0.81006,-0.06067 -1.64395,-0.1326 -2.48849,-0.21451c-0.84314,-0.08176 -1.67114,-0.17059 -2.47049,-0.26849c-0.75934,-0.09299 -2.6658,-0.38367 -3.15485,-0.49683c-0.81821,-0.18933 -1.76263,-0.547 -2.61334,-0.96533c-0.96796,-0.47598 -1.64038,-0.80713 -2.24698,-1.18066c-0.96011,-0.59125 -1.43073,-1.35718 -1.75302,-2.15268c-0.35648,-0.87988 -0.69864,-1.55768 -1.01849,-2.31351c-0.49902,-1.17923 -0.64331,-1.58099 -0.88651,-2.38199c-0.23645,-0.77884 -0.44937,-1.53995 -0.64017,-2.98282c-0.08694,-0.65741 -0.11615,-1.57498 -0.12149,-2.655c-0.00351,-0.7095 0.01385,-1.56229 -0.00134,-2.57202c-0.01019,-0.67819 -0.07315,-1.53732 -0.22,-2.681c-0.12231,-0.95251 -0.20712,-1.47861 -0.27866,-2.03867c-0.15411,-1.20648 -0.23135,-1.84973 -0.33334,-3.20831c-0.05316,-0.70828 -0.08481,-1.43057 -0.1095,-2.15851c-0.02463,-0.72672 -0.04794,-2.14951 -0.05267,-2.83133c-0.00455,-0.65283 -0.00449,-2.36935 -0.00449,-2.85019c0,-0.84665 0.00229,-1.90414 0,-2.82666c-0.00226,-0.89999 -0.01144,-1.80252 -0.08533,-2.39999c-0.14929,-1.20715 -0.36325,-1.79456 -0.56201,-2.70001c-0.26199,-1.19348 -0.31439,-1.79468 -0.34198,-2.664c-0.03394,-1.06882 -0.01068,-2 -0.01068,-2.63147c0,-1.00452 0,-1.8045 0,-2.80435c0,-0.96417 0,-1.91483 0,-2.80017c0,-0.79999 -0.05716,-1.69998 -0.5,-2.5l-0.44284,-0.79999l-0.0585,-0.89868" id="svg_4" stroke-width="2" stroke="#000" fill="none"/>
  <path t="8692,8861,8861,8881,8881,8881,8881,8897,8897,8914,8915,8915,8971,8972,8996,8997,9012,9025,9025,9033,9033,9044,9044,9059,9059,9059,9059,9075,9075,9075,9075,9082,9082,9082,9082,9094,9094,9094,9094,9108,9109,9109,9124,9124,9130,9130,9143,9143,9159,9168,9168,9179,9180,9180,9191,9191,9191,9208,9208,9208,9216,9216,9216,9228,9229,9229,9229,9241,9265,9265,9277,9291,9291,9309,9315,9327,9341,9358,9358,9358,9364,9364,9364,9365,9376,9377,9377,9391,9391,9408,9408,9413,9438,9438,9466,9481,9482,9491,9500,9500,9512,9525,9525,9541,9541,9549,9550,9560,9575,9575,9593,9598,9598,9622,9635,9671,9684,9709,9731,9732,9736,9736,9750,9768,9772,9795,9808,9826,9832,9844,9858,9859,9859,9874,9874,9881,9881,9882,9892,9893,9893,9909,9909,9918,9918,9929,9930,9942,9942,9942,9958,9958,9958,9968,9968,9978,9978,9978,9992,9992,10008,10028,10028,10052,10090,10116,10117,10164,10176,10201,10212,10212,10225,10225,10241,10249,10250,10262,10263,10274,10293,10311,10311,10324,10343,10343,10348,10361,10374,10393,10393,10409,10424,10441,10458,10484,10508,10508,10524,10533,10533,10545,10557,10582,10582,10606,10626,10643,10660,10668,10669,10680,10705,10717,10729,10730,10742,10742,10760,10760,10761,10761,10767,10768,10768,10768,10768,10769,10779,10779,10780,10793,10793,10793,10807,10816,10816,10853,10867,10885,10885,10903,10907,10908,10921,10929,10930,10950,10951,10964,10964,10974,10974,10975,10991,10991,11000" d="m331,362.89999c-0.70984,-2.60449 -1.23608,-3.20264 -1.83334,-4.16666c-0.30988,-0.50012 -0.60413,-1.34787 -1.05066,-2.064c-0.52966,-0.84946 -1.36969,-1.35175 -1.94934,-2.10266c-0.48087,-0.62296 -0.69177,-1.44754 -1.16666,-2.33334c-0.44241,-0.82523 -1.10001,-1.43332 -1.70001,-2.03333c-0.60001,-0.60001 -1.30032,-1.29968 -1.89999,-1.90002c-0.60034,-0.60098 -1.22382,-1.27032 -1.7045,-2.06165c-0.34909,-0.57468 -0.84464,-1.5163 -1.35715,-2.29102c-0.36765,-0.55573 -0.74625,-1.14746 -1.75986,-2.12582c-0.51004,-0.49231 -1.09375,-0.9086 -1.68298,-1.31699c-1.18433,-0.8208 -1.79929,-1.19766 -2.37466,-1.62534c-0.57211,-0.42523 -1.61505,-1.38718 -2.05917,-1.93185c-0.43597,-0.5347 -0.97827,-1.36136 -1.57767,-2.36066c-0.38611,-0.64374 -0.72079,-1.25287 -1.53668,-1.93399c-0.65942,-0.55051 -1.50946,-1.20718 -1.80566,-1.75269c-0.50815,-0.93582 -0.44073,-1.80908 -0.57767,-2.63599c-0.14478,-0.87418 -0.61246,-1.59402 -0.84265,-2.78534c-0.10165,-0.52603 -0.07535,-1.36533 -0.28799,-2.41199c-0.19437,-0.9567 -0.54395,-1.60641 -0.71185,-2.58817c-0.13806,-0.80725 -0.11923,-1.68301 -0.12149,-2.87851c-0.00113,-0.60001 0,-1.5 0,-2.70001c0,-0.59732 0,-1.45831 0,-2.22934c0,-1.10931 0,-2.09198 0,-2.77066c0,-1.11465 0,-2 0,-2.79999c0,-0.89999 -0.05521,-1.95908 0.7045,-2.1955c0.79971,-0.24887 1.84116,-0.21719 2.5675,-0.44052c0.84021,-0.25833 1.72507,-0.57312 2.62799,-0.8595c0.59811,-0.1897 1.4939,-0.45966 2.69867,-0.62048c0.58835,-0.07855 1.45914,-0.06198 2.47968,-0.30533c0.89792,-0.21411 1.74353,-0.68518 2.51099,-0.76801c0.92621,-0.09995 1.89468,-0.01361 2.58533,-0.01068c1.06372,0.00452 1.75763,0.43753 1.82086,1.35184c0.06146,0.88892 0.19754,1.77222 0.70898,2.34818c0.65021,0.73227 1.24774,1.49777 1.29416,2.18533c0.06403,0.94858 0.03101,1.73267 0.354,2.71017c0.25204,0.76276 0.53616,1.80542 0.93134,2.60583c0.35812,0.7254 0.3851,1.74753 0.88266,2.46533c0.43231,0.62366 1.57455,0.87695 1.79733,1.73331c0.22678,0.87173 -0.28949,2.08307 0.39767,2.54285c0.79901,0.53461 1.63834,0.05716 2.61682,0.05716c0.82019,0 1.72153,0 2.62152,0c0.89999,0 1.91492,0.20206 2.6955,-0.35715c0.68137,-0.48813 1.08899,-1.23343 1.62048,-1.9295c0.5553,-0.72726 0.51407,-1.55222 0.88535,-2.31467c0.39108,-0.8031 0.82733,-1.61835 1.03201,-2.56534c0.16779,-0.77631 0.12372,-1.61938 0.33331,-2.66666c0.14417,-0.72037 0.52875,-1.56671 1.03336,-2.56534c0.29471,-0.58322 0.72858,-1.49945 1.32083,-2.08051c0.72324,-0.70953 1.49789,-1.02499 2.47916,-1.52084c0.59872,-0.30252 1.39999,-0.69998 2.20001,-1.10001c0.79999,-0.39999 1.38644,-0.72842 2.40448,-1.1955c0.62369,-0.28616 1.81577,-0.59116 2.61017,-0.67917c0.77469,-0.08582 1.79379,-0.35025 2.47635,-0.67267c0.80811,-0.38171 1.793,-0.35266 2.48364,-0.35266c1.06818,0 1.92535,0 2.82535,0c0.79999,0 1.83884,-0.12109 2.47916,0.52084c0.64304,0.64468 0.52084,1.64584 0.52084,2.47916c0,0.97852 0,1.79868 0,2.75717c0,0.89999 0,1.64734 0,2.64151c0,0.76532 0.07822,1.84775 -0.00015,2.70132c-0.08368,0.91144 -0.65344,1.46042 -1.29535,2.20001c-0.57861,0.66669 -0.61969,1.64969 -1.31516,2.26398c-0.66687,0.58905 -1.73804,0.61218 -2.22269,1.436c-0.38403,0.65277 -0.77567,1.5072 -1.52383,1.94284c-0.72894,0.42447 -1.51413,0.42236 -1.64417,1.25717c-0.14261,0.91547 -0.73917,1.59134 -1.02399,2.436c-0.28329,0.84009 -0.67441,1.50244 -0.88934,2.47867c-0.21268,0.96588 -0.08533,1.88531 -0.08533,2.68533c0,0.89999 -0.16519,1.81918 0.02084,2.69998c0.17899,0.84741 0.88419,1.59598 0.97781,2.30002c0.12112,0.91071 0.85995,1.42447 1.0015,2.29999c0.14606,0.90353 0.67822,1.50143 0.91583,2.38666c0.19904,0.74158 0.2496,1.68027 0.43668,2.48401c0.22073,0.9483 0.39444,1.68317 0.526,2.99335c0.04889,0.48694 0.09543,1.51202 0.12134,2.03598c0.05151,1.04208 0.03809,1.55331 0.22134,2.93533c0.1051,0.79257 0.39569,1.78757 0.612,2.89801c0.13641,0.70029 0.00845,1.51889 0.17734,2.53067c0.14481,0.86755 0.62949,1.46814 1.04199,2.336c0.39792,0.83716 1.15909,1.31512 1.59015,2c0.5386,0.85574 0.659,1.77676 0.93185,2.47467c0.36398,0.93097 0.3327,1.83807 0.48248,2.58249c0.18713,0.93005 0.65906,1.6416 1.14151,2.64282c0.28751,0.59668 0.68231,1.59366 0.76532,2.40002c0.082,0.79654 0.0405,1.7955 0.09317,2.54282l0.36816,1.02118" id="svg_5" stroke-width="2" stroke="#000" fill="none"/>
  <path t="11782,11987,12010,12034,12034,12038,12054,12054,12054,12064,12064,12074,12074,12083,12083,12095,12095,12108,12132,12132,12144,12158,12175,12175,12181,12181,12193,12195,12195,12208,12208,12208,12208,12225,12225,12225,12231,12231,12231,12242,12242,12242,12258,12259,12259,12268,12268,12268,12279,12279,12291,12292,12292,12292,12308,12308,12308,12317,12318,12328,12328,12328,12341,12341,12341,12341,12341,12357,12357,12357,12357,12366,12366,12366,12366,12377,12377,12378,12391,12391,12391,12407,12407,12415,12415,12426,12426,12441,12442,12457,12457,12464,12464,12476,12476,12476,12476,12491,12491,12491,12491,12500,12501,12501,12501,12501,12513,12513,12513,12513,12525,12526,12540,12540,12541,12551,12551,12562,12575,12575,12592,12600,12611,12611,12624,12625,12625,12640,12648,12649,12649,12660,12661,12661,12661,12675,12675,12675,12675,12692,12692,12692,12692,12697,12697,12709,12709,12709,12725,12726,12726,12734,12734,12746,12746,12758,12759,12774,12774,12775,12784,12784,12796,12808,12808,12833,12833,12844,12858,12858,12882,12882,12906,12925,12932,12932,12943,12957" d="m364,372.89999c1.70001,0 2.63644,-0.0267 3.48401,0.00134c0.86465,0.02859 1.7037,0.48868 2.68265,0.832c0.64355,0.22568 1.43527,0.13547 2.43335,0.17117c0.80121,0.02869 1.79251,0.30096 2.60001,0.57016c0.99133,0.33047 1.77899,0.41492 2.77847,0.42532c0.82016,0.00854 1.6575,0 2.50552,0c0.86331,0 1.88,0 2.81598,0c0.90134,0 1.58536,0 2.54669,0c0.84,0 1.8392,0.01492 2.67416,-0.02081c0.58426,-0.02499 1.78391,-0.18207 2.68982,-0.41519c0.62878,-0.1618 1.27087,-0.37885 2.67068,-0.76266c0.72076,-0.19763 1.41751,-0.3829 2.61865,-0.63464c0.63113,-0.13226 1.42661,-0.38043 2.15717,-1.23367c0.38892,-0.45422 0.92795,-1.26474 1.54266,-2.01151c0.57462,-0.69806 1.18298,-1.28696 1.77866,-2.12149c0.41434,-0.58051 0.82718,-1.39655 1.22153,-2.20135c0.40726,-0.83115 0.7973,-1.76636 1.10449,-2.55133c0.21448,-0.54807 0.50714,-1.41153 1.18082,-2.36066c0.48523,-0.68362 1.0842,-1.24475 1.91467,-1.80133c0.77277,-0.51788 1.58786,-0.91165 2.43201,-1.28534c0.72974,-0.32303 1.66565,-0.60904 2.42133,-0.79999c0.8309,-0.20996 1.70709,-0.39813 2.14584,-0.5c1.26877,-0.29456 2.0336,-0.48846 3.05917,-0.80002c0.63486,-0.19287 1.84421,-0.59277 2.44165,-0.8045c0.90402,-0.32037 1.5145,-0.55209 2.39984,-1.01682c0.90524,-0.47513 1.45334,-0.87128 2.53351,-1.51199c0.70264,-0.41678 1.33679,-0.78705 2.36649,-1.0455c0.76831,-0.19284 1.63351,-0.4545 2.30017,-1.12119c0.66666,-0.66666 1.51773,-0.66083 2.16666,-1.33331c0.6391,-0.66229 0.5415,-1.65384 1.03784,-2.41934c0.48138,-0.74246 0.92822,-1.47662 1.12885,-2.414c0.16797,-0.78476 0.16022,-1.67993 0.16531,-2.32001c0.00821,-1.03497 0.00134,-2.16 0.00134,-2.95999c0,-0.41501 0,-1.72 0,-2.63602c0,-0.93198 0,-1.39648 0,-2.3075c0,-1.27649 0,-2.03781 0,-3.04733c0,-0.87448 0,-1.87717 0,-2.54166c0,-1.02084 0,-1.82083 0,-2.62085c0,-0.99548 0,-1.91464 0,-2.89999c0,-0.82132 0,-1.67465 0,-2.61465c0,-0.98535 0,-1.88535 0,-2.69968c0,-0.95367 0.00351,-1.68567 0,-2.41766c-0.00534,-1.11737 -0.16605,-2.1015 -0.35266,-2.78232c-0.22128,-0.80722 -0.48807,-1.98471 -0.56467,-2.58569c-0.11456,-0.89865 -0.19434,-1.81958 -0.52567,-2.69998c-0.23193,-0.6163 -0.77237,-1.50385 -1.15967,-2.10001c-0.58832,-0.90558 -0.97601,-1.50671 -1.59735,-2.328c-0.38696,-0.51147 -1.20984,-1.2883 -1.96399,-1.88666c-0.67966,-0.53925 -1.14728,-1.28082 -1.80533,-1.90134c-0.7262,-0.68478 -1.54175,-0.93887 -2.26266,-1.28265c-0.97421,-0.46457 -1.63559,-0.97394 -2.42517,-1.14868c-0.93146,-0.20612 -1.7728,-0.27905 -2.54285,-0.69934c-0.83749,-0.45712 -1.40704,-0.99374 -2.14282,-1.70065c-0.64597,-0.62061 -1.20306,-1.28857 -1.95715,-1.94818c-0.66443,-0.58118 -1.47314,-0.74921 -2,-1.41434c-0.58972,-0.74451 -0.98529,-1.54684 -1.70001,-2.29016c-0.49011,-0.5097 -1.19733,-1.2027 -1.79999,-1.79999c-0.59735,-0.59201 -1.40002,-1.116 -2.29984,-1.42151l-0.543,-0.483l-0.38251,-0.8595l-0.69067,-0.51999" id="svg_6" stroke-width="2" stroke="#000" fill="none"/>
  <path t="14360,14494,14517,14519,14519,14530,14530,14543,14543,14543,14557,14557,14568,14580,14580,14591,14591,14610,14610,14617,14629,14629,14641,14658,14667,14677,14703,14715,14715,14727,14727,14740,14740,14757,14764,14765,14765,14777,14791,14807,14825,14841,14850,14850,14874,14891,14891,14900,14900,14911,14924,14940,15060,15417,15433,15448,15448,15457,15466,15477,15490,15507,15507,15527,15527,15542,15542,15557,15557,15564,15564,15575,15575,15592,15592,15592,15600,15600,15613,15613,15624,15625,15642,15642,15662,15687,15700,15711,15736,15750,15750,15760,15774,15774,15791,15791,15797,15797,15809,15810,15810,15810,15824,15824,15824,15824,15840,15841,15841,15841,15846,15846,15847,15847,15847,15858,15858,15858,15858,15874,15874,15883,15884,15909,15909,15938,15952,15970,15985,16139,16155,16179,16192,16209,16209,16216,16216,16228,16240,16241,16257,16257,16258,16265,16265,16277,16301,16302,16315,16315,16326,16351,16363,16374,16401,16401,16412,16425,16425,16442,16450,16450,16462,16462,16475,16535,16548,16584" d="m404,282.89999c-2.58932,0 -3.52084,0 -4.3215,0c-0.88916,0 -1.87851,0 -2.6785,0c-1,0 -1.79999,0 -2.60001,0c-0.99548,0 -1.74283,0 -2.77466,0c-0.94684,0 -1.64618,0 -2.62534,0c-0.78934,0 -1.83334,0 -2.6955,0c-0.82535,0 -1.78851,0.00217 -2.65182,0c-0.89102,-0.00226 -1.45953,-0.6705 -2.17352,-0.97916c-0.80719,-0.34894 -1.78366,-0.02084 -2.80048,-0.02084c-0.67868,0 -1.67001,0.09351 -2.43134,-0.05716c-0.92926,-0.1839 -1.56253,-0.72641 -2.63269,-0.90683c-0.93549,-0.15771 -1.63467,0.10266 -2.55215,-0.09317c-1.01025,-0.21564 -1.56281,-0.60617 -2.45184,-0.95349c-0.74115,-0.28955 -0.96378,-1.29309 -1.61066,-1.98935c-0.56049,-0.60327 -0.96295,-1.41068 -1.00015,-2.32132c-0.03488,-0.85336 -0.28534,-1.62274 -0.64719,-2.37418c-0.41956,-0.87125 -0.20969,-1.81766 -0.36334,-2.7045c-0.14417,-0.83218 -1.17819,-1.96164 -1.82266,-1.43332c-0.6572,0.53879 -0.16666,1.63333 -0.16666,2.53333c0,0.89999 0,1.79999 0,2.71066c0,0.91068 0,1.76401 0,2.70532c0,0.76801 0,1.72 0,2.48535c0,0.99866 0,1.79865 0,2.79865c0,0.80002 0,1.80002 0,2.60001c0,1 0,1.80002 0,2.60001c0,1 0,1.79999 0,2.79999c0,0.80002 0,1.79984 0,2.57919c0,0.99933 0,1.81949 0,2.72083c0,0.89999 -0.14206,1.81299 0.01068,2.69998c0.14346,0.83316 0.72324,1.63824 1.07333,2.40002c0.34454,0.74973 1.15677,1.36719 1.616,1.95715c0.66211,0.85059 0.96326,1.61539 1.50131,2.36017c0.40778,0.56445 1.12604,1.42157 1.63467,2.15466c0.37906,0.54633 0.75604,1.13693 1.36435,2.02783c0.61172,0.89587 1.04071,1.49387 1.57031,2.01483c0.8266,0.81308 1.53638,1.23712 2.25018,1.68533c0.72815,0.45721 1.81754,1.16 2.15765,1.42136c0.67456,0.51828 1.29773,1.08197 1.91699,1.62598c0.90027,0.79086 1.49591,1.27402 2.36285,1.91101c0.52377,0.38486 1.42114,0.99454 2.12033,1.63101c0.64423,0.58646 1.29251,1.17853 2.07401,1.35797c0.8519,0.19562 1.62543,0.66995 2.54733,0.96735c0.86038,0.27753 2.14786,-0.44553 2.63333,0.25201c0.43262,0.62161 -1.03714,0.75119 -1.93335,0.8335c-0.91144,0.08368 -1.49597,0.69968 -2.384,0.91449c-0.84277,0.20386 -1.76334,0.08533 -2.68265,0.08533c-0.85419,0 -1.83441,-0.03186 -2.63333,0.01068c-0.80237,0.04272 -1.78763,0.36276 -2.54285,0.63666c-0.89587,0.32489 -1.82516,0.51593 -2.48251,0.77802c-1.0101,0.40274 -1.56293,0.76663 -2.25867,1.29065c-0.61588,0.46387 -1.73859,-0.12723 -2.55881,0.34116c-0.81317,0.46432 -1.24701,0.87555 -2.18253,0.95352c-1.01648,0.08472 -1.57883,0.67392 -2.47916,0.93216c-0.83057,0.23822 -1.74243,-0.08185 -2.67398,0.2785c-0.77783,0.3009 -1.52151,0.75784 -2.42151,0.77866l-0.89999,0l-0.90002,0" id="svg_7" stroke-width="2" stroke="#000" fill="none"/>
  <path t="21124,21271,21272,21284,21285,21299,21311,21312,21312,21323,21323,21323,21332,21332,21332,21344,21344,21344,21356,21356,21373,21373,21382,21382,21382,21392,21392,21407,21422,21422,21422,21430,21443,21457,21457,21474,21479,21492,21506,21528,21541,21541,21566,21577,21590,21627,21643,21666,21676,21676,21690,21690,21707,21707,21713,21713,21725,21725,21740,21740,21750,21750,21762,21762,21775,21799,21799,21811,21823,21840,21848,21860,21861,21873,21890,21898,21898,21909,21923,21940,21959,22120,22181,22205,22217,22218,22230,22230,22242,22256,22278,22278,22291,22306,22328,22339,22365,22365,22376,22391,22413,22413,22426,22440,22440,22463,22487,22488,22488,22513,22513,22537,22552,22565,22587,22601,22601,22615,22630,22647,22651,22662,22674,22674,22691,22697,22698,22698,22708,22708,22725,22741,22741,22746,22746,22758,22783,22783,22808,22824,22844" d="m307,183.89999c0.87201,-1.38933 1.58795,-1.79248 2.59549,-1.94283c0.741,-0.11057 1.84619,0.04776 2.72601,-0.50017c0.56863,-0.35413 1.08414,-0.96487 1.87851,-1.757c0.60083,-0.59914 1.20111,-1.19887 1.79999,-1.8c0.59662,-0.59886 1.20941,-1.16409 1.83334,-2c0.57422,-0.76932 0.85757,-1.40233 1.36667,-2.39867c0.2973,-0.58186 0.87622,-1.60023 1.32083,-2.10133c0.76117,-0.85786 1.3045,-1.32533 1.82648,-1.84732c0.76733,-0.76733 1.31152,-1.38742 2.06335,-2.05267c0.72281,-0.63957 1.39194,-1.04279 2.10532,-1.31467c0.93869,-0.35774 1.71512,-0.76184 2.58401,-1.164c0.66202,-0.30641 1.43716,-0.86827 2.29999,-1.08533c0.8735,-0.21974 1.80002,-0.03601 2.70001,-0.03601c0.89999,0 1.69998,0 2.60001,0c0.89999,0 1.79999,-0.00226 2.69998,0c0.89551,0.00226 1.51395,0.46614 1.8215,1.32133c0.25101,0.69798 0.84955,1.46629 1.25766,2.17867c0.53577,0.93523 0.46243,1.73103 0.74234,2.69984c0.23172,0.80203 0.83701,1.59512 1.25766,2.30016c0.46799,0.78435 0.36063,1.55069 0.74234,2.47867c0.34708,0.84375 0.91431,1.54778 1.37851,2.16c0.62048,0.81836 1.44455,1.17238 2.19998,1.57733c0.75598,0.40524 1.59552,0.71671 2.39868,1.2c0.74457,0.44804 1.06223,1.30592 1.60266,1.884c0.5737,0.61366 1.62289,0.91339 2.07733,1.64267c0.45987,0.73804 0.84753,1.41368 1.11066,2.168c0.29291,0.83977 0.1308,1.78348 0.58536,2.41467c0.44952,0.62421 -0.33633,0.97241 -1.23184,0.97466c-0.94415,0.00237 -1.93832,-0.00395 -2.68567,0c-1.01053,0.00534 -1.50833,0.56073 -2.2265,1.19867c-0.53546,0.47563 -1.65671,0.53432 -2.34665,1.08534c-0.66891,0.53421 -1.43405,0.58432 -2.18402,0.93733c-0.77551,0.36504 -1.56635,0.69469 -2.29999,1.21466c-0.78708,0.55785 -1.25241,1.36237 -2.12085,1.54317c-0.94318,0.19635 -1.83008,-0.05539 -2.7265,0.02533c-0.92975,0.08372 -1.57037,0.47455 -2.35397,0.7115c-0.97607,0.29515 -1.74152,0.28175 -2.7627,0.284c-0.93597,0.00206 -1.836,0 -2.73599,0c-0.89999,0 -1.70016,0.01799 -2.60001,0c-0.90054,-0.01801 -1.71704,-0.41757 -2.21597,-1.19865c-0.4678,-0.73235 -1.30591,-1.06227 -1.884,-1.60268c-0.62473,-0.58397 -1.24255,-1.34233 -1.58936,-2.03467c-0.37244,-0.74353 -0.47693,-1.77548 -0.66333,-2.50682c-0.26941,-1.05696 -1.06067,-1.57242 -1.51132,-2.29317c-0.48651,-0.77808 -0.32538,-1.71872 -0.44049,-2.60684c-0.11365,-0.87683 -0.71152,-1.55716 -1.02084,-2.35716l-0.39999,-0.8l-0.49066,-0.79866" id="svg_8" stroke-width="2" stroke="#000" fill="none"/>
  <path t="26745,26892,26892,26892,26892,26892,26893,26912,26912,26912,26912,26913,26913,26913,26913,26913,26917,26917,26918,26918,26918,26918,26918,26918,26918,26928,26928,26928,26928,26929,26929,26929,26929,26929,26941,26942,26942,26942,26942,26942,26942,26942,26957,26957,26957,26957,26958,26965,26965,26965,26977,26977,26977,26978,26990,26990,27007,27007,27007,27007,27014,27014,27014,27026,27026,27026,27040,27040,27040,27056,27056,27056,27063,27063,27074,27075,27075,27090,27090,27090,27106,27106,27112,27112,27112,27124,27125,27125,27125,27140,27140,27140,27157,27157,27157,27161,27162,27162,27174,27174,27190,27190,27199,27199,27211,27211,27222,27240,27240,27247,27247,27248,27259,27260,27260,27260,27273,27273,27273,27290,27290,27290,27290,27297,27297,27297,27308,27324,27324,27340,27340,27346,27358,27358,27374,27383,27395,27395,27395,27407,27408,27408,27423,27423,27423,27432,27433,27433,27444,27445,27445,27445,27457,27457,27457,27457,27474,27474,27475,27482,27482,27482,27493,27493,27506,27506,27523,27523,27531,27532,27542,27556,27556,27557,27567,27567,27580,27580,27580,27591,27591,27591,27592,27606,27606,27623,27623,27623,27628,27629,27629,27629,27641,27641,27656,27656,27656,27666,27666,27690,27691,27691,27706,27706,27707,27716,27716,27728,27728,27740,27741,27741,27757,27757,27757,27765,27765,27765,27765,27776,27776,27776,27789,27790,27790,27807,27807,27807,27813,27825,27826,27840,27857,27863,27874,27890" d="m285,80.9c-1.54349,-1.98666 -2.0282,-2.74643 -2.60416,-3.66666c-0.32538,-0.51987 -0.6748,-1.08096 -1.0545,-1.68c-0.83801,-1.32212 -1.3049,-2.0394 -1.79468,-2.792c-0.50851,-0.78142 -1.03387,-1.58365 -1.5675,-2.403c-0.5397,-0.82865 -1.08115,-1.66018 -1.61249,-2.493c-1.03891,-1.62844 -1.526,-2.42092 -1.996,-3.19466c-0.45859,-0.75496 -0.90024,-1.49775 -1.32901,-2.229c-0.42184,-0.71944 -0.83344,-1.4322 -1.23898,-2.139c-0.80426,-1.40175 -1.20297,-2.10196 -1.60001,-2.8c-0.39432,-0.6933 -0.78305,-1.38037 -1.16101,-2.061c-0.37134,-0.66873 -0.73209,-1.32482 -1.07098,-1.971c-0.64645,-1.2326 -0.93082,-1.82601 -1.20001,-2.39867c-0.25937,-0.55175 -0.50012,-1.08869 -0.729,-1.6095c-0.22174,-0.50455 -0.42444,-0.99994 -1.04166,-2.39583c-0.1972,-0.446 -0.59171,-1.30232 -0.97916,-2.10417c-0.36017,-0.74538 -0.8605,-1.72605 -1.26367,-2.55267c-0.35205,-0.72182 -0.76279,-1.67439 -1.05716,-2.4625c-0.20392,-0.54589 -0.49869,-1.36386 -0.89868,-2.36333c-0.36414,-0.90982 -0.6553,-1.84797 -0.74866,-2.64116c-0.10019,-0.85118 -0.0802,-1.45505 -0.33801,-2.6415c-0.19354,-0.89067 -0.39603,-1.45329 -0.81467,-2.48c-0.37924,-0.93007 -0.71335,-1.60009 -1.10001,-2.60533c-0.20718,-0.53862 -0.47818,-1.37206 -0.89999,-2.3945c-0.28537,-0.69172 -0.69971,-1.5203 -1.09999,-2.3215c-0.39975,-0.80013 -0.88292,-1.80925 -1.21066,-2.4c-0.45128,-0.81342 -1.04015,-1.63245 -1.61017,-2.15833c-0.54944,-0.5069 -1.58215,-0.91745 -2.37917,-1.08983c-1.00676,-0.21774 -1.62971,-0.49735 -2.37067,-0.66783c-1.18408,-0.27244 -1.89043,-0.25605 -2.61467,-0.27333c-0.73186,-0.01747 -2.12801,-0.01067 -2.76801,-0.01067c-0.88499,0 -1.92532,0 -2.84666,0c-0.68401,0 -1.68401,0 -2.5,0c-0.81599,0 -2.04283,0 -2.68933,0c-1.0105,0 -1.78984,0 -2.78934,0c-0.90533,0 -1.84666,0 -2.53734,0c-0.98399,0 -1.97066,0 -2.73067,0c-0.92,0 -1.71049,0 -2.564,0c-1.18933,0 -1.78934,0 -2.68933,0c-0.89999,0 -1.8,0 -2.7,0c-0.90001,0 -1.80017,-0.01349 -2.7,0.0045c-0.90038,0.018 -1.50908,0.03229 -2.69734,0.2795c-0.86906,0.1808 -1.63857,0.40638 -2.58833,0.66333c-0.92154,0.24932 -1.54968,0.77539 -2.467,1c-0.84901,0.20788 -1.63599,0.63326 -2.44751,0.93117c-0.74564,0.27373 -1.84755,-0.18388 -2.65717,0.343c-0.81168,0.52822 -1.13145,1.16425 -1.84532,1.66383c-0.81755,0.57215 -1.40167,1.13106 -1.99734,1.716c-0.80589,0.79137 -1.38574,1.39415 -1.79999,1.7415c-0.97083,0.81405 -1.6485,1.16709 -2.37067,1.6265c-0.88052,0.56016 -1.53467,1.036 -2.22934,1.53067c-0.69467,0.49467 -1.66573,1.16812 -2.22934,1.532c-0.72778,0.46988 -1.40691,0.89878 -2.17065,1.736c-0.42249,0.46312 -0.96053,1.26411 -1.60001,1.89867c-0.56282,0.55849 -1.42305,1.00564 -2.11467,1.81733c-0.54353,0.63789 -0.9585,1.51749 -1.48534,2.10533c-0.57201,0.63824 -1.24281,1.26999 -1.6955,2.06334c-0.3849,0.67457 -0.58904,1.61195 -0.87117,2.514c-0.27371,0.87509 -0.60164,1.42403 -0.78065,2.43783c-0.1494,0.84606 -0.25699,1.82172 -0.48868,2.6315c-0.25006,0.87399 -0.57021,1.76197 -0.8595,2.6595c-0.18771,0.58238 -0.47716,1.40931 -0.61917,2.4205c-0.12689,0.90352 -0.073,1.85083 -0.08983,2.64116c-0.01819,0.85389 -0.14259,2.04705 -0.28084,2.6415c-0.20647,0.88776 -0.49373,1.72516 -0.91466,2.716c-0.28506,0.67104 -0.8145,1.67841 -1.0955,2.28533c-0.36644,0.79143 -0.56244,1.813 -0.76584,2.6c-0.21144,0.81809 -0.79646,1.61301 -1.34766,2.2c-0.57649,0.61395 -1.23349,1.15076 -1.87666,1.94283c-0.59677,0.73493 -0.84494,1.56877 -1.42418,2.31433c-0.44768,0.57623 -1.17044,1.3139 -1.52849,1.94733c-0.46346,0.81992 -0.66805,1.81455 -0.72568,2.6315c-0.06116,0.86691 -0.02251,1.76417 -0.0405,2.664c-0.01801,0.90038 -0.0266,1.51031 -0.28084,2.7c-0.19441,0.90976 -0.41585,1.50109 -0.81467,2.69984c-0.19835,0.59621 -0.47925,1.47216 -0.89999,2.5335c-0.28171,0.71062 -0.60033,1.30746 -0.916,2.28133c-0.28372,0.8753 -0.87598,1.53971 -1.06317,2.38533c-0.21182,0.95689 -0.59549,1.52533 -1.01633,2.2045l-0.0405,0.8595" id="svg_9" stroke-width="2" stroke="#000" fill="none"/>
  <path t="28838,29019,29032,29033,29033,29046,29046,29046,29046,29046,29057,29057,29057,29057,29057,29075,29075,29075,29076,29080,29080,29081,29081,29092,29092,29108,29108,29125,29142,29158,29175,29175,29179,29180,29191,29191,29208,29208,29216,29216,29228,29228,29241,29241,29258,29258,29265,29277,29277,29294,29307,29313,29314,29314,29314,29325,29326,29326,29339,29339,29339,29339,29339,29356,29356,29356,29356,29356,29356,29356,29363,29363,29363,29363,29363,29363,29363,29375,29375,29375,29375,29375,29389,29389,29389,29389,29389,29406,29406,29406,29406,29412,29413,29423,29424,29439,29439,29439,29450,29450,29461,29461,29473,29473,29473,29489,29489,29499,29499,29499,29499,29509,29510,29510,29523,29523,29523,29546,29546,29547,29550,29550,29551,29563,29572,29572" d="m163,93.9c0,1.672 0,2.77333 0,3.58334c0,0.64 0,1.75 0,2.586c0,0.892 0,1.3515 0,2.2825c0,1.3815 0,2.26283 0,3.11217c0,0.82533 0,1.63467 0,2.83583c0,0.79567 0,1.57933 0,2.343c0,1.0905 0.02449,1.77139 -0.02083,2.7155c-0.04111,0.85644 -0.25485,1.85793 -0.55383,2.695c-0.29579,0.82814 -0.54855,1.6226 -1,2.44666c-0.42747,0.7803 -0.28668,1.75342 -0.64684,2.50017c-0.35423,0.73447 -1.03584,1.35848 -1.3425,2.1105c-0.39197,0.96127 -0.41884,1.78926 -0.436,2.78933c-0.01355,0.78928 -0.17735,1.8281 -0.5,2.49999c-0.39156,0.81535 -0.49466,1.71063 -0.5,2.69984c-0.0042,0.77931 0,1.77866 0,2.59883c0,0.83733 -0.25319,1.92191 0.08533,2.632c0.3763,0.78935 1.39471,0.9769 1.91467,1.90266c0.3633,0.64684 0.60942,1.46529 0.88533,1.98399c0.54733,1.02899 1.15923,1.67467 1.63068,2.45201c0.51289,0.84567 0.74454,1.55431 0.98399,2.33482c0.2675,0.87193 0.38023,1.35555 0.8215,2.96017c0.16245,0.59071 0.33427,1.20306 0.5145,1.83299c0.3718,1.2995 0.56665,1.95955 0.76534,2.62134c0.395,1.31577 0.59593,1.96037 0.79866,2.59334c0.3947,1.23238 0.59608,1.82686 0.8,2.40532c0.39247,1.11336 0.79298,2.15227 1.19867,3.112c0.1935,0.45776 0.59151,1.3243 0.94417,2.16167c0.50639,1.20242 0.77904,2.00543 1.02116,2.79834c0.11871,0.38876 0.42813,1.52719 0.73584,2.589c0.1916,0.66119 0.48549,1.56969 0.61482,2.13499c0.27908,1.2198 0.26541,2.10092 0.507,2.88651c0.24765,0.80525 0.92876,1.6539 1.60367,2.17484c0.51019,0.39378 1.30188,1.10088 1.76401,1.79999c0.52527,0.79465 1.04399,1.45331 1.73199,2.14667c0.50204,0.50595 1.17789,1.21196 1.9305,1.92601c0.54611,0.51814 1.29654,1.06683 2.00951,1.59933c0.52817,0.39449 1.10826,0.79041 2.052,1.83733c0.46707,0.51814 0.86128,1.07729 1.51999,2.14934c0.42801,0.69659 0.71443,1.39221 1.48801,2.14549c0.62225,0.60593 1.26939,0.93962 1.79333,1.78917c0.42924,0.69601 0.68399,1.464 1.18083,2.41766l0.53783,0.81433l0.21935,0.75717" id="svg_10" stroke-width="2" stroke="#000" fill="none"/>
  <path t="30830,30987,31013,31030,31030,31045,31045,31045,31049,31049,31050,31050,31062,31062,31062,31062,31062,31062,31072,31072,31072,31072,31090,31091,31091,31097,31097,31108,31109,31134,31134,31134,31146,31146,31160,31160,31178,31191,31191,31191,31196,31196,31196,31208,31208,31222,31222,31222,31239,31239,31257,31370,31382,31396,31396,31396,31396,31411,31411,31412,31412,31412,31412,31425,31425,31425,31425,31425,31426,31426,31426,31430,31430,31430,31430,31430,31430,31430,31430,31431,31442,31442,31442,31443,31443,31443,31443,31443,31443,31456,31456,31456,31456,31456,31457,31457,31457,31457,31466,31467,31467,31467,31467,31467,31478,31478,31478,31478,31478,31490,31490,31491,31491,31491,31491,31491,31506,31506,31507,31507,31507,31507,31507,31516,31516,31516,31516,31516,31527,31528,31528,31528,31528,31528,31539,31539,31539,31539,31556,31556,31556,31556,31556,31565,31565,31566,31566,31566,31566,31566,31566,31576,31576,31576,31577,31577,31577,31577,31577,31589,31589,31589,31589,31589,31590,31590,31605,31605,31606,31606,31606,31614,31615,31615,31615,31626,31626,31639,31639,31675" d="m191,196.89999c0.05716,1.70001 0.5714,2.45451 1.19867,3.20267c0.48567,0.57927 0.73752,1.56787 0.7805,2.35983c0.03273,0.603 0.02083,1.95917 0.02083,2.69917c0,0.78 0,1.60001 0,2.905c0,0.45467 0,1.386 0,2.33333c0,0.47467 0,1.416 0,2.77817c0,0.85567 0,1.65933 0,2.403c0,1.27583 0,2.04684 0,2.91617c0,0.80267 0,1.60268 0,2.60268c0,0.79999 0,1.79999 0,2.59999c0,0.8 0,1.8 0,2.60001c0,1.1955 0,1.94283 0,2.85184c0,1.0815 0,1.758 0,2.53349c0,1.048 0.00069,1.97867 0,2.81334c-0.00067,0.80266 0.02107,1.64767 -0.2215,2.82249c-0.11003,0.53294 -0.30652,1.35742 -0.87834,2.43584c-0.33307,0.62814 -0.87157,1.44164 -0.90016,2.34033c-0.00233,0.0733 -0.00943,-0.96222 0.009,-1.57333c0.02136,-0.70776 0.04758,-1.50577 0.32433,-2.79066c0.2,-0.92854 0.36646,-1.40193 0.77084,-2.35417c0.21072,-0.49622 0.72499,-1.50008 1.39583,-2.47917c0.34976,-0.5105 1.17262,-1.50278 1.62933,-1.98932c0.4669,-0.49741 0.96786,-0.98222 1.4985,-1.45351c0.54002,-0.47961 1.70016,-1.39789 2.31532,-1.83566c0.62354,-0.44373 1.27208,-0.87004 1.9395,-1.28551c0.67625,-0.42097 1.37247,-0.82922 2.08351,-1.23149c0.71962,-0.40712 2.19974,-1.20595 2.955,-1.60451c0.76073,-0.40144 1.52721,-0.79959 2.29349,-1.2c0.76472,-0.3996 1.52524,-0.79768 2.27551,-1.2c0.74173,-0.39772 2.17908,-1.19559 2.8665,-1.60001c0.67256,-0.39568 1.32295,-0.79538 1.95,-1.2c0.61293,-0.39551 1.2034,-0.7952 1.76999,-1.2c0.55336,-0.39534 2.08354,-1.5959 2.55135,-1.99867c0.45647,-0.39302 1.31209,-1.17778 1.71466,-1.56534c0.77435,-0.74547 1.49692,-1.46317 2.172,-2.15466c0.65547,-0.6714 0.9908,-1.00145 1.58084,-1.74834c0.94794,-1.19992 1.21289,-1.69238 1.50316,-2.189c0.60881,-1.04161 0.88751,-1.60306 1.16534,-2.17599c0.565,-1.16515 1.0733,-2.36639 1.31433,-2.96767c0.23895,-0.5961 0.67792,-1.77798 0.87999,-2.35867c0.19789,-0.56868 0.56227,-1.66878 0.875,-2.70833c0.2894,-0.96201 0.41132,-1.42427 0.66667,-2.3125c0.25005,-0.86977 0.66203,-2.1891 0.8215,-2.64183c0.3262,-0.92606 0.6926,-1.84027 0.88916,-2.28168c0.37784,-0.8485 0.95738,-1.95642 1.39833,-2.53033c0.61952,-0.80635 1.14841,-1.26425 2.03433,-1.98849c0.6702,-0.54788 1.04332,-0.82393 1.85001,-1.38916c0.42653,-0.29886 1.83658,-1.19524 2.34984,-1.48933c1.0687,-0.61235 1.63795,-0.90302 2.21933,-1.20001c0.59328,-0.30307 1.20158,-0.60432 1.8255,-0.89999c1.92703,-0.91324 2.59511,-1.20065 3.26466,-1.4955c0.6718,-0.29584 1.34641,-0.58586 2.022,-0.8685c0.67175,-0.28104 1.33771,-0.56 2.65866,-1.06934c1.27522,-0.4917 1.90106,-0.71255 2.50934,-0.94133c0.59537,-0.22392 1.74263,-0.66852 2.28532,-0.90933c1.04691,-0.46454 2.00406,-0.99123 2.44867,-1.26866c0.85059,-0.53076 1.61447,-1.0768 2.59,-1.88068c0.56998,-0.4697 1.27567,-1.12006 1.84534,-1.67999c0.60785,-0.59744 1.1835,-1.23933 1.78351,-2.13934l0.34732,-0.69466l0.3045,-0.89101" id="svg_11" stroke-width="2" stroke="#000" fill="none"/>
  <path t="32995,33140,33141,33153,33154,33171,33188,33188,33205,33229,33239,33250,33250,33261,33274,33274,33289,33299,33299,33310,33323,33339,33348,33360,33373,33373,33397,33397,33421,33421,33421,33439,33439,33447,33447,33459,33459,33459,33474,33474,33490,33491,33491,33491,33496,33496,33496,33508,33508,33522,33523,33545,33545,33556,33582,33594,33594,33607,33607,33624,33632,33633,33643,33643,33657,33657,33657,33673,33673,33673,33673,33680,33681,33693,33706,33730,33730,33742,33766,33791,33815,33816,33827" d="m326,34.9c-2.60001,0 -3.40082,0.03979 -4.59549,-0.0045c-0.74869,-0.02776 -1.57321,-0.49224 -2.40451,-0.82883c-0.75717,-0.30658 -1.70001,-0.16667 -2.60001,-0.16667c-0.92084,0 -1.884,0 -2.57465,0c-1.06818,0 -1.92551,0.00446 -2.71069,0c-0.94003,-0.00533 -1.95108,-0.16079 -2.59381,-0.5c-0.82483,-0.43532 -1.73343,-0.35021 -2.62067,-0.50017c-0.85202,-0.144 -1.30948,-0.8385 -2.1015,-1.28517c-0.60638,-0.34198 -1.46713,-1.00101 -2.00934,-1.35067c-1.01132,-0.65218 -1.58585,-1.18185 -2.13217,-1.71133c-0.78223,-0.75809 -1.27142,-1.26076 -1.85849,-2.13667c-0.45435,-0.67789 -0.92654,-1.40233 -1.63467,-1.88c-0.72964,-0.49219 -1.55307,-0.86703 -2.436,-1.236c-1.04651,-0.43733 -1.69345,-0.60803 -2.37866,-0.78933c-0.69623,-0.18421 -2.01282,-0.47105 -2.83499,-0.5535c-0.6911,-0.06931 -1.71881,0.00932 -2.4935,-0.078c-1.013,-0.11418 -1.74445,-0.73709 -2.67352,-0.922c-0.68323,-0.13598 -1.71133,-0.05717 -2.65182,-0.05717c-0.86215,0 -1.6955,0 -2.67398,0c-0.82019,0 -1.6575,0 -2.67868,0c-0.74734,0 -1.74417,0 -2.57883,0c-0.93066,0 -1.72116,0 -2.57468,0c-1.18933,0 -1.78799,0 -2.66849,0c-0.83551,0 -1.83417,0 -2.67416,0c-0.96133,0 -1.94669,0 -2.84668,0c-0.79999,0 -1.70007,-0.01018 -2.60001,0c-0.92102,0.01042 -1.72131,0.22133 -2.57465,0.57467l-0.80368,0.304" id="svg_12" stroke-width="2" stroke="#000" fill="none"/>
  <path t="35689,35834,35834,35835,35835,35835,35835,35846,35846,35846,35847,35847,35847,35847,35863,35863,35863,35864,35864,35864,35864,35878,35879,35879,35879,35879,35883,35883,35884,35884,35894,35894,35894,35907,35907,35907,35907,35922,35922,35922,35923,35931,35931,35931,35931,35932,35932,35942,35943,35943,35943,35943,35943,35955,35955,35955,35955,35955,35972,35972,35972,35972,35980,35980,35980,35992,35992,36005,36005,36022,36022,36022,36022,36029,36030,36030,36030,36041,36041,36041,36041,36041,36055,36055,36055,36055,36072,36072,36072,36078,36078,36079,36091,36091,36091,36106,36106,36106,36116,36116,36128,36128,36140,36154,36155,36165,36165,36176,36176,36188,36189,36189,36205,36205,36205,36214,36214,36214,36214,36225,36225,36225,36226,36239,36240,36240,36258,36258,36258,36263,36263,36275,36275,36275,36289,36305,36306,36313,36313,36323,36340,36340,36340,36350,36350,36350,36360,36361,36361,36373,36373,36373,36389,36390,36390,36390,36390,36399,36400,36400,36410,36410,36410,36423,36423,36440,36440,36448,36459,36473,36473,36496,36520,36521" d="m179,44.9c-2.20767,1.3215 -3.08904,1.66083 -3.59067,1.836c-1.0959,0.38269 -1.68822,0.57092 -2.30133,0.76534c-1.27309,0.40369 -2.59023,0.79885 -3.25616,0.99417c-0.66606,0.19535 -1.33052,0.38543 -1.99051,0.5685c-0.651,0.18058 -2.52745,0.67156 -3.11833,0.8145c-0.57181,0.13832 -1.67058,0.38745 -2.20132,0.50067c-1.03186,0.22012 -1.53917,0.31865 -3.04134,0.62083c-0.99144,0.19944 -1.48009,0.29492 -2.42833,0.5c-0.90239,0.19517 -2.12943,0.49831 -2.85767,0.6955c-0.67305,0.18225 -1.29527,0.40671 -2.51434,0.583c-0.89474,0.12939 -1.49997,0.11617 -2.7,0.1215c-0.90448,0.00402 -1.52083,0 -2.48534,0c-1.03633,0 -1.77634,0 -2.55634,0c-0.81999,0 -2.12503,0.0048 -3.045,-0.00267c-0.47502,-0.00385 -1.4556,-0.03027 -1.95999,-0.06933c-1.04156,-0.08066 -2.12503,-0.2389 -3.23466,-0.49867c-0.56512,-0.1323 -1.67896,-0.46521 -2.22134,-0.65067c-0.5323,-0.18201 -2.00455,-0.76369 -2.84267,-1.17733c-0.76416,-0.37714 -1.44873,-0.78522 -2.136,-1.116c-1.02588,-0.49376 -1.76213,-0.73994 -2.49783,-0.94366c-0.70684,-0.19573 -1.9753,-0.44743 -2.74883,-0.50567c-0.86758,-0.06532 -1.872,-0.03547 -2.672,-0.036c-1.00134,-0.00067 -1.63057,0.04187 -2.76666,-0.16667c-0.79977,-0.1468 -1.64488,-0.44129 -2.23467,-0.63467c-1.20316,-0.39448 -1.82107,-0.60628 -2.47066,-0.83467c-0.69983,-0.24605 -1.87126,-0.68378 -2.73333,-1.01667c-0.89529,-0.34572 -1.34263,-0.52558 -2.22667,-0.86333c-1.22311,-0.46729 -1.94829,-0.73953 -2.62634,-0.94233c-0.9322,-0.27882 -1.84076,-0.42926 -2.74166,-0.51633c-0.89919,-0.08691 -1.8124,-0.14212 -2.691,-0.387c-0.85172,-0.2374 -1.7931,-0.78656 -2.30367,-1.2865c-0.63309,-0.61991 -1.33943,-1.1465 -2.056,-1.2905c-0.9724,-0.19542 -1.93957,-0.41841 -2.632,-0.86267c-0.77007,-0.49406 -1.45301,-0.88004 -2.492,-1.17333c-0.78429,-0.2214 -1.65068,-0.50456 -2.45867,-1.02533c-0.69009,-0.44478 -1.48798,-0.87978 -2.1875,-1c-0.9789,-0.16823 -1.78922,-0.43748 -2.43633,-0.7045c-0.96342,-0.39754 -1.77,-0.7173 -2.64733,-0.93834c-0.88779,-0.22367 -1.80026,-0.30145 -2.7315,-0.3825c-0.64953,-0.05653 -1.68666,-0.18797 -2.41217,-0.32733c-1.09289,-0.20993 -1.77759,-0.39544 -2.9825,-0.56334c-0.74599,-0.10395 -1.46116,-0.12685 -2.45333,-0.36933c-0.82503,-0.20163 -1.64107,-0.494 -2.63067,-0.91467c-0.67097,-0.28522 -1.6816,-0.80763 -2.28083,-1.0955c-0.74284,-0.35686 -1.79756,-0.61493 -2.57117,-0.87117c-0.85955,-0.28471 -1.63949,-0.87232 -2.3125,-1.3125c-0.79597,-0.5206 -1.69805,-0.84081 -2.178,-1.23067c-0.76472,-0.62118 -1.53867,-1.27521 -2.14283,-1.66483c-0.59596,-0.38434 -1.59565,-1.11624 -2.22083,-1.62533c-0.43245,-0.35215 -1.38645,-1.01091 -2.22583,-1.364c-0.59078,-0.24852 -1.91917,-0.63901 -2.63733,-0.836c-0.74049,-0.20311 -1.49186,-0.39566 -2.232,-0.6c-1.06407,-0.29377 -2.04071,-0.59014 -2.63733,-0.8c-1.08644,-0.38215 -1.8077,-0.6575 -2.585,-1.1c-0.80346,-0.4574 -1.40452,-1.01491 -2.30983,-1.6c-0.63529,-0.41058 -1.12629,-1.19365 -1.63717,-1.89867c-0.56084,-0.77396 -1.41467,-0.854 -2.21467,-1.32217l-0.7,-0.67783l-0.6,-0.516" id="svg_13" stroke-width="2" stroke="#000" fill="none"/>
  <path t="38556,38786,38799,38817,38829,38829,38834,38846,38883,38883,38912,38929,38946,38981,39005,39023,39042,39080,39080,39116,39192,39327,39368,39379,39409,39438,39486,39486,39524,39560,39622,39659,39683,39696,39709,39732,39732,39756,39773,39793,39832,40360,40374,40391,40395,40396,40408,40408,40408,40424,40424,40439,40439,40445,40445,40456,40456,40472,40472,40481,40493,40493,40506,40506,40521,40522,40531,40531,40543,40543,40544,40544,40555,40555,40555,40555,40573,40573,40581,40582,40582,40591,40592,40606,40606,40623,40623,40623,40630,40630,40630,40642,40642,40642,40642,40656,40656,40656,40656,40656,40672,40672,40672,40672,40679,40679,40679,40690,40691,40691,40706,40706,40715,40716,40727,40727,40727,40740,40740,40756,40756,40756,40757,40765,40765,40766,40766,40776,40776,40776,40777,40789,40789,40790,40805,40805,40806,40815,40815,40815,40826,40826,40839,40839,40839,40856,40856,40856,40863,40864,40874,40875,40875,40889,40889,40889,40890,40890,40890,40906,40906,40907,40907,40912,40912,40912,40913,40913,40913,40924,40924,40924,40925,40925,40925,40938,40939,40939,40939,40955,40955,40955,40956,40961,40961,40962,40973,40973,40974,40988,40998,40999,40999,41010,41011,41022,41022,41038,41059,41059" d="m315,342.89999c-1.70001,0 -2.60001,0 -3.52084,0c-0.96317,0 -1.65381,0 -2.72198,0c-0.85718,0 -1.75717,0 -2.55716,0c-0.90002,0 -1.80002,0 -2.70001,0c-0.89999,0 -1.79999,0 -2.70001,0c-0.89999,0 -1.79999,0 -2.59998,0c-0.90002,0 -1.80002,0 -2.70001,0c-0.89999,0 -1.79999,0 -2.70001,0c-0.89999,0 -1.79999,0 -2.59998,0c-0.90002,0 -1.80002,0 -2.70001,0c-0.89999,0 -1.79999,0 -2.70001,0c-0.89999,0 -1.79999,0 -2.59998,0c-0.90002,0 -1.80002,0 -2.70001,0c-0.89999,0 -1.79999,0 -2.70001,0c-0.89999,0 -1.79999,0 -2.61432,0c-0.95502,0 -1.70651,0 -2.50299,0c-1.22552,0 -1.87201,0 -2.88251,0c-0.77933,0 -1.77884,0 -2.68417,0c-0.952,0 -1.71799,-0.03268 -2.71149,0.00452c-0.74866,0.02805 -1.56024,0.52814 -2.50467,0.87399c-0.74588,0.27313 -1.73584,0.12149 -2.50116,0.12149c-0.99869,0 -1.79868,0 -2.80135,0c-0.63901,0 -1.93066,0 -2.56667,0c-0.692,0 -1.416,0 -2.864,0c-0.68001,0 -1.625,0 -2.205,0c-1.27634,0 -1.94084,0 -2.96167,0c-0.8,0 -1.60001,0 -2.60001,0c-0.79999,0 -1.80133,0 -2.63599,0c-0.93068,0 -1.71667,0 -2.53868,0c-1.05865,0 -2.01067,0 -2.73515,0c-1.13335,0 -1.80901,0 -2.55267,0c-0.80367,0 -2.10417,0 -3.02017,0c-0.4655,0 -1.3965,0 -2.3075,0c-1.2765,0 -2.03917,0 -2.73784,0c-0.963,0 -1.87199,0 -2.76749,0c-0.86852,0 -1.93784,0 -2.64734,0c-0.85266,0 -1.85716,0 -2.65717,0c-1,0 -1.8,0 -2.8,0c-0.8,0 -1.60049,0.02707 -2.60899,-0.00449c-0.90642,-0.02835 -1.72586,-0.1543 -2.70084,-0.34818c-0.71216,-0.1416 -1.43671,-0.32867 -2.5235,-0.48065c-1.01007,-0.14127 -1.66653,-0.15497 -2.65067,-0.16534c-1.03728,-0.01096 -1.76868,-0.00134 -2.51601,-0.00134c-0.74733,0 -2.17883,0.01801 -2.83833,-0.009c-0.9164,-0.03754 -2.0244,-0.27347 -2.7045,-0.70084c-0.67952,-0.427 -1.44559,-1.14084 -2.05267,-1.53299c-0.73393,-0.47406 -1.51622,-0.96555 -2.21432,-1.51434c-0.72707,-0.57156 -1.44289,-1.06525 -1.9395,-1.41748c-0.92116,-0.65332 -1.59831,-1.19058 -2.13333,-1.70935c-0.78339,-0.75958 -1.33095,-1.29575 -1.95067,-2.116c-0.44768,-0.59253 -0.82301,-1.31082 -1.5,-2.5c-0.20781,-0.36505 -0.6748,-1.16092 -1.16667,-2.02081c-0.25075,-0.43835 -0.7543,-1.30136 -1.3575,-2.53635c-0.35492,-0.72668 -0.63454,-1.4375 -1.005,-2.091c-0.59256,-1.04529 -1.18648,-1.74197 -1.509,-2.10449c-0.67653,-0.76047 -1.04884,-1.13434 -1.83249,-1.86334c-0.78453,-0.72983 -1.59421,-1.39899 -1.987,-1.73132c-0.76903,-0.6507 -1.50714,-1.29288 -1.83833,-1.63666c-0.9655,-1.00223 -1.46321,-1.7626 -1.94984,-2.49518c-0.4713,-0.70947 -1.16661,-1.7074 -1.70349,-2.25018c-0.51277,-0.5184 -1.1127,-0.88937 -1.98401,-1.77066c-0.55777,-0.56415 -0.91695,-1.19742 -1.43333,-2.19983c-0.3029,-0.58801 -0.68326,-1.32675 -1.29999,-2.17484c-0.58437,-0.80359 -1.00638,-1.45804 -1.40001,-2.22665c-0.40662,-0.79398 -0.74606,-1.59836 -1.3,-2.37717c-0.45753,-0.64325 -1.1955,-1.3215 -1.77866,-2.12152l-0.20534,-0.69998" id="svg_14" stroke-width="2" stroke="#000" fill="none"/>
  <path t="42246,42402,42402,42402,42416,42416,42416,42416,42433,42433,42433,42433,42449,42449,42449,42452,42452,42452,42452,42452,42462,42462,42462,42462,42462,42462,42462,42462,42473,42473,42473,42474,42474,42474,42474,42474,42474,42490,42490,42490,42490,42490,42490,42490,42505,42505,42505,42505,42511,42511,42511,42523,42523,42523,42523,42539,42539,42548,42548,42548,42560,42560,42560,42560,42572,42573,42573,42573,42573,42589,42589,42589,42590,42590,42590,42598,42598,42598,42598,42608,42609,42609,42621,42622,42639,42639,42646,42646,42658,42659,42659,42672,42672,42689,42689,42695,42695,42695,42695,42695,42707,42707,42707,42708,42708,42708,42722,42722,42722,42722,42739,42739,42739,42740,42740,42744,42745,42757,42757,42757,42772,42772,42789,42793,42794,42806,42822,42831,42843,42843,42855,42855,42872,42872,42881,42881,42881,42891" d="m260,341.89999c0,3.60135 0,4.52084 0,5.15717c0,1.36417 0,2.09552 0,2.84283c0,0.74734 0,1.83334 0,2.84283c0,0.63635 -0.00513,1.55588 0.00015,2.45734c0.00534,0.91052 0.02942,1.86038 0.1665,2.86652c0.09888,0.72565 0.27023,1.50113 0.444,2.35199c0.19165,0.93845 0.39368,1.98056 0.48917,2.54617c0.20499,1.21414 0.29346,1.86398 0.37933,2.53934c0.08893,0.69931 0.17111,1.42297 0.2355,2.1705c0.13419,1.5574 0.16718,2.36768 0.20132,3.19199c0.03455,0.83405 0.05862,1.67334 0.08401,2.51251c0.02527,0.83417 0.04684,1.65857 0.08401,2.4675c0.07141,1.55386 0.13098,2.28891 0.19998,2.99332c0.12943,1.32123 0.21509,1.93512 0.29068,2.52002c0.13962,1.0802 0.26752,2.03915 0.34131,2.88397c0.09546,1.09256 0.08987,1.74994 0.30536,2.95602c0.108,0.60461 0.39987,1.49091 0.612,2.69998c0.1044,0.59506 0.155,1.47903 0.16531,2.31467c0.01233,0.99994 0.00134,1.87466 0.00134,2.88568c0,0.84134 0,1.57031 0,2.77032c0,0.70132 0,1.45068 0,2.23199c0,1.19766 0,2.00635 0,2.83902c0,0.87265 0,1.32898 0,2.80099c0,0.52533 0,1.608 0,2.15732c0,1.09467 -0.00351,1.63202 0.00015,3.15668c0.00223,0.91998 -0.00299,1.76151 0.05701,2.51999c0.07855,0.99295 0.31201,1.8038 0.59018,2.71436c0.24582,0.80466 0.34222,1.60883 0.35266,2.60898c0.01019,0.97913 -0.00006,1.83334 0,2.66135c0.00009,0.88132 -0.0462,1.84769 0.08533,2.57065c0.17807,0.97873 0.73132,1.63068 0.87866,2.63602c0.10278,0.70123 0.03461,1.99649 0.03735,2.388c0.00595,0.85202 0.01971,1.77689 0.08398,2.74799c0.06598,0.99713 0.19473,1.99548 0.27185,2.49152c0.1532,0.98535 0.34421,1.94797 0.44415,2.41916c0.28967,1.36578 0.49634,2.22873 0.69867,3.06451c0.19775,0.81686 0.50192,2.02032 0.69867,2.81815c0.19257,0.78088 0.38129,1.52744 0.51599,2.23199c0.22852,1.19513 0.19125,1.94849 0.452,2.97067c0.207,0.81155 0.52396,1.41592 1.31601,2.11469c0.60721,0.53568 1.32068,1.22708 1.73868,1.98532c0.41382,0.75064 0.94864,1.40393 1.49466,1.98401c0.53723,0.57074 0.98389,1.57791 1.46933,2.09067c0.63522,0.67099 1.40463,1.27036 1.69333,2.14682c0.28195,0.85593 0.34283,1.87833 0.55734,2.46783l0.36533,0.72534l0.58801,0.84933" id="svg_15" stroke-width="2" stroke="#000" fill="none"/>
 </g>
 <g display="none">
  <title>muse_image</title>
  <image xlink:href="http://farm3.static.flickr.com/2246/2090666352_646575e4fc.jpg" id="muse" height="426" width="640" y="27" x="0"/>
 </g>
 <g display="none">
  <title>bbox</title>
  <rect stroke="#f00" fill="none" stroke-width="3" height="419.6036" width="500.48" y="27" x="0" id="bbox"/>
 </g>
</svg>
