<svg width="640" height="480" xmlns="http://www.w3.org/2000/svg" xmlns:svg="http://www.w3.org/2000/svg" xmlns:xlink="http://www.w3.org/1999/xlink">
 <!-- Sketchy ANNOTATION
  ImageNet ID: n02503517_6232
  URL: http://farm1.static.flickr.com/48/171250362_0dbdfb9c43.jpg
  Image Width: 333
  Image Height: 500
  BBox X: 35
  BBox Y: 33
  BBox Width: 265
  BBox Height: 443
  Exposure: 2000ms
  Synset Label: elephant
  Synset ID: n02503517
  Worker Tag: elephant walking
  Sanity Check: 
   Saved
  Comment: 
   {}
  Worker ID: AXD2DZ7U6CK35
  Assignment ID: 3R8YZBNQ9HI7IPZ7UTINJJDRWZEQ75
  HIT ID: 3DGDV62G7O9D9S3SY2H1Y3BOBHIP2I
  Work Time: 56s
  Worker Score: 0.7333
 END ANNOTATION -->
 <g display="inline">
  <title>Layer 1</title>
  <path t="0,5,5,5,12,12,30,30,45,46,46,63,63,63,63,80,80,80,80,96,96,96,96,96,113,113,113,113,129,130,130,146,146,146,163,163,163,179,180,180,199,199,199,215,215,215,232,232,232,246,247,263,264,280,280,281,296,296,314,314,314,330,331,346,364,364,380,380,380,396,396,397,413,413,430,446,464,464,481,481,496,497,513,513,514,531,547,547,563,564,580,596,596,613,613,630,631,646,664,664,680,716,748,764,764,780,796,797,813,814,830,831,831,846,846,847,864,864,864,880,880,896,896,897,914,914,930,930,946,946,964,981,981,997,997,997,1014,1014,1030,1031,1031,1046,1063,1064,1064,1081,1081,1081,1096,1097,1097,1113,1114,1130,1131,1146,1146,1147,1147,1163,1164,1164,1180,1181,1181,1181,1197,1197,1197,1197,1213,1214,1214,1214,1214,1230,1231,1231,1231,1246,1247,1247,1264,1264,1264,1340" d="m226,63c0.85333,-0.22133 1.50984,-1.03019 1.99916,-1.59383c0.65308,-0.75227 1.39037,-1.16362 2.20218,-1.69283c0.61249,-0.39928 1.2937,-1.1908 1.81949,-1.755c0.5916,-0.63483 1.17557,-1.38254 1.78984,-2.18367c0.42274,-0.55132 0.83667,-1.12927 1.61099,-1.85333c0.78839,-0.73722 1.42439,-1.14752 2.065,-1.60533c1.03368,-0.73872 1.39784,-0.99931 2.13867,-1.54134c0.74985,-0.54863 1.48839,-1.09384 2.20799,-1.608c0.67787,-0.48434 1.63078,-1.13789 2.205,-1.56217c0.80324,-0.5935 1.49574,-1.21012 2.151,-1.7685c0.80016,-0.68185 1.41949,-1.06968 2.01067,-1.46133c1.01569,-0.6729 1.58765,-1.21455 2.2,-1.722c0.78479,-0.65036 1.41139,-1.02611 2.05717,-1.40533c0.96526,-0.56683 1.76645,-1.07537 2.3175,-1.422c1.0554,-0.66387 1.76421,-1.07566 2.41466,-1.41467c0.80588,-0.42001 1.61038,-0.8112 2.41068,-1.21067c0.79971,-0.39919 1.57584,-0.85491 2.60001,-1.0785c0.78775,-0.17197 1.80106,-0.08962 2.59998,-0.13216c0.80237,-0.04272 1.59247,-0.30019 2.436,-0.564c0.92191,-0.28832 1.71127,-0.38763 2.50269,-0.41467c1.11771,-0.03818 1.95233,-0.01067 2.89731,-0.01067c0.85068,0 1.61069,0 2.78534,0c0.80402,0 1.35333,0 2.65717,0c0.68552,0 1.52017,0 2.517,0c0.74734,0 1.7728,-0.08504 2.70901,0.0045c0.87329,0.08353 1.67386,0.55574 2.52884,0.82883c0.77631,0.24796 1.65826,0.43836 2.37732,0.77734c0.99823,0.47057 1.59888,0.7547 2.30402,1.18933c0.88748,0.54703 1.65414,1.02283 2.48532,1.2c0.9812,0.20914 1.52271,0.68782 2.3045,1.2955c0.80231,0.62362 1.56314,0.52422 2.52884,0.87117c0.69318,0.24904 1.36667,1.03334 1.96664,1.63333c0.60001,0.60001 1.22214,1.40089 1.90002,1.84283c0.73392,0.47846 1.50327,0.90036 2.39999,1.23567c0.85065,0.31808 1.69998,0.12389 2.65717,0.1215c0.89999,-0.00225 1.66888,0.02211 2.64282,-0.28533c0.82358,-0.25998 1.59528,-0.72438 2.41068,-1.11467c0.64285,-0.3077 1.60416,-0.71859 2.41467,-0.98933c0.81589,-0.27253 1.85022,-0.51754 2.53867,-0.57467c0.83252,-0.06908 1.84048,-0.036 2.69315,-0.036c0.96402,0 1.75751,0 2.53302,0c1.0405,0 1.89249,0 2.84583,0c0.76532,0 1.75949,0 2.50684,0c1.03183,0 1.98807,-0.0798 2.67801,0.04167c1.0062,0.17715 1.75504,0.84356 2.37915,1.253c0.77264,0.5069 1.61603,0.61331 2.60001,0.872c0.80661,0.21206 1.59695,0.53388 2.36401,1.244c0.72498,0.67114 1.02707,1.43774 1.39316,1.99383c0.53629,0.81467 1.07162,1.4024 1.64734,1.9955c0.78561,0.80936 1.38507,1.38909 1.93832,1.94283c0.77216,0.77283 1.38388,1.38927 1.85849,2.14383c0.46616,0.7411 0.96182,1.68217 1.28268,2.19733c0.51044,0.8195 0.87991,1.35336 1.49466,2.39467c0.4071,0.68957 0.76447,1.37964 1.34265,2.343c0.32602,0.54324 0.87579,1.41353 1.19467,2.065c0.49835,1.01812 0.73425,1.76954 0.98401,2.53417c0.25565,0.78269 0.65723,1.98298 0.98401,2.77783c0.16397,0.3988 0.51889,1.17918 0.86331,1.94417c0.49014,1.08865 0.89752,2.09473 1.13184,2.7155c0.3223,0.85395 0.72086,1.85767 1.02084,2.54166c0.29999,0.684 0.69867,1.68266 0.97916,2.47916l0.2355,0.7515l0.23868,1.08667" id="svg_1" stroke-width="2" stroke="#000" fill="none"/>
  <path t="2559,2569,2569,2585,2585,2601,2613,2613,2631,2631,2646,2647,2647,2663,2663,2663,2681,2681,2681,2697,2697,2697,2714,2714,2731,2731,2731,2731,2747,2748,2748,2764,2764,2781,2781,2781,2797,2797,2813,2813,2831,2831,2831,2846,2847,2847,2865,2865,2881,2881,2881,2881,2896,2896,2897,2897,2914,2914,2914,2931,2931,2931,2946,2947,2947,2963,2963" d="m356,81c0.91599,4.228 0.8815,5.19289 1.284,6.11467c0.32373,0.7414 0.71066,1.52128 0.716,2.37067c0.00577,0.91915 -0.03949,1.9187 0.03601,2.75066c0.08493,0.93594 0.3266,1.71404 0.53867,2.53867c0.27142,1.05547 0.32831,1.77483 0.478,2.62083c0.17987,1.0166 0.47507,1.62246 0.74866,2.28983c0.40768,0.99449 0.71106,1.8058 0.91333,2.63067c0.24301,0.99097 0.26984,1.93502 0.61868,2.85066c0.31027,0.81442 0.69058,1.33146 1.18399,2.14934c0.6011,0.9964 0.96555,1.66125 1.28134,2.28266c0.50732,0.99831 0.80133,1.60133 1.30133,2.60133c0.29999,0.60001 0.68997,1.40508 1.19998,2.3955c0.29428,0.5715 0.90494,1.51898 1.336,2.06583c0.69113,0.87679 1.18646,1.59138 1.53867,2.08801c0.65332,0.92117 1.21851,1.56728 1.62402,2.13333c0.54172,0.75613 0.92551,1.62767 1.20132,2.45067c0.32419,0.96735 0.49597,1.68394 0.64282,2.4185c0.21527,1.07685 0.3114,2.09045 0.33633,2.72734c0.03595,0.91899 0.02084,1.82066 0.02084,2.71016c0,0.8535 0,1.8895 0,2.8315c0,0.7485 0,1.62167 0,2.61917l0,0.67334l0,1.18666l0,0.79201" id="svg_2" stroke-width="2" stroke="#000" fill="none"/>
  <path t="4447,4461,4461,4461,4469,4482,4482,4497,4497,4497,4513,4513,4530,4530,4546,4546,4546,4563,4563,4580,4580,4580,4596,4596,4613,4613,4630,4630,4646,4663,4684,4684,4700,4713,4713,4730,4730,4746,4763,4763,4780,4796,4796,4813,4813,4813,4830,4830,4830,4830,4846,4846,4846,4863,4863,4863,4880,4880,4880,4896,4896,4896,4913,4913,4913,4913,4930,4930,4930,4946,4946,4963,4963,4963,4980,4980,4980,4980,4996,4996,5013,5013,5013,5030,5030,5046,5046,5046,5064,5065,5065,5080,5081,5096,5097,5114,5114,5114,5114,5130,5130,5146,5146,5146,5163,5163,5163,5180,5180,5180,5196,5196,5196,5213,5214,5214,5214,5230,5230,5230,5230,5246,5246,5246,5246,5263,5263,5263,5263,5280,5280,5280,5280,5280,5280,5296,5296,5296,5296,5296,5313,5313,5313,5314,5314,5330,5330,5330,5331,5331,5331,5331,5346,5346,5346,5346,5347,5363,5363,5363,5363,5363,5364,5380,5380,5380,5380,5380,5396,5396,5396,5397,5413,5413,5413,5413,5413,5413,5430,5430,5430,5430,5430,5430,5431,5446,5446,5446,5446,5447,5447,5463,5463,5463,5463,5480,5480,5481,5481,5496,5496,5496,5513,5513" d="m374,139c0,8.34933 0,9.19533 0,10.08934c0,1.02533 0.00058,1.91066 0,2.72499c-0.00067,0.955 0.02515,1.71156 -0.08533,2.50301c-0.14059,1.00716 -0.56161,1.85301 -0.79333,2.88266c-0.17764,0.78941 -0.25763,1.81052 -0.47852,2.40001c-0.30603,0.81668 -0.84283,1.79999 -1.14282,2.39999c-0.5,1 -0.85352,1.57724 -1.14282,2.39999c-0.34387,0.97794 -0.30823,1.81747 -0.57852,2.79984c-0.21954,0.798 -0.68509,1.62204 -0.76797,2.38951c-0.09781,0.90546 -0.01068,1.82132 -0.01068,2.73199c0,0.85333 0,1.79333 0,2.67867c0,0.88533 0,1.82533 0,2.51601c0,0.98399 0,1.96799 0,2.65866c0,1.07266 0,1.992 0,2.84616c0,0.97917 -0.01614,1.80283 0.05716,2.4935c0.12033,1.13402 0.29742,1.7951 0.44284,2.5065c0.14932,0.73061 0.3848,2.15689 0.44733,2.8175c0.08652,0.91423 0.18015,2.0067 0.40985,2.7045c0.21713,0.65961 0.76938,1.64536 1.03217,2.26784c0.36295,0.85974 0.53229,1.87546 0.61066,2.731c0.05676,0.61963 0.21402,1.98085 0.35266,2.7065c0.13995,0.73245 0.33069,1.43594 0.526,2.70883c0.11783,0.76796 0.11237,1.45015 0.40533,2.44299c0.24091,0.81638 0.60666,1.79869 0.716,2.64168c0.09439,0.72772 0.21585,1.60213 0.42532,2.60899c0.14554,0.69948 0.33643,1.37463 0.48935,2.57867c0.09219,0.726 0.05347,1.77171 0.09601,2.57066c0.04272,0.80234 0.38385,1.79117 0.63666,2.65717c0.27783,0.95177 0.33063,1.76775 0.34818,2.59016c0.022,1.03094 0.00449,1.71667 0.00449,2.55133c0,1.00134 0.04016,1.80225 -0.00266,2.80267c-0.0358,0.83676 -0.30991,1.77551 -0.70267,2.55133c-0.42197,0.83353 -0.81799,1.33159 -1.12534,2.36333c-0.26486,0.88916 -0.31201,1.85689 -0.52652,2.63667c-0.22818,0.82939 -0.63065,1.88594 -0.94281,2.59016c-0.28882,0.65158 -0.82657,1.64536 -1.08936,2.26784c-0.36295,0.85974 -0.53091,1.87425 -0.61066,2.71016c-0.05566,0.5834 -0.21497,1.78079 -0.42532,2.68983c-0.14496,0.62637 -0.34357,1.26819 -0.48935,2.67467c-0.07758,0.74828 -0.07886,1.52528 -0.08398,2.31601c-0.00775,1.19846 -0.00134,1.99416 -0.00134,2.77783c0,0.76366 0,1.85416 0,2.87717c0,0.68532 0,1.41066 0,2.64366c0,0.95334 0,1.46249 0,2.52084c0,0.53915 0.00073,1.61249 0,2.64581c-0.00067,0.96268 0.00226,1.86185 -0.03601,2.71201c-0.03687,0.81931 -0.18085,2.02261 -0.24933,2.42532c-0.14111,0.82968 -0.33026,1.70303 -0.51599,2.65201c-0.2041,1.04297 -0.39963,2.19586 -0.49866,2.802c-0.10095,0.61786 -0.19763,1.2424 -0.40002,2.48401c-0.09882,0.60617 -0.29117,1.75974 -0.5,2.80331c-0.19189,0.95898 -0.29965,1.41312 -0.5,2.29834c-0.29947,1.32312 -0.49948,2.24075 -0.60449,2.70901c-0.21265,0.94815 -0.30768,1.42862 -0.58084,2.36331c-0.40128,1.37314 -0.76495,2.22781 -0.94,2.64801c-0.34464,0.8273 -0.71982,1.62384 -1.15314,2.836c-0.2836,0.7934 -0.50693,1.59833 -0.71701,2.39999c-0.31384,1.1976 -0.40851,1.59955 -0.60449,2.41351c-0.20419,0.84799 -0.40463,1.75708 -0.5,2.24249c-0.31534,1.60526 -0.40155,2.19708 -0.5,2.80652c-0.20319,1.25781 -0.29965,1.89755 -0.40002,2.53665c-0.09961,0.63422 -0.39764,2.4581 -0.5,3.02884c-0.1955,1.09015 -0.29599,1.61029 -0.5,2.60583c-0.09805,0.47855 -0.39536,1.84558 -0.59998,2.7045c-0.19559,0.82108 -0.3898,1.60284 -0.70001,2.69501c-0.19366,0.68182 -0.48987,1.6286 -0.70001,2.20499c-0.38171,1.047 -0.79999,1.94083 -1.09998,2.56033l-0.50452,0.99234l-0.45267,0.69467" id="svg_3" stroke-width="2" stroke="#000" fill="none"/>
  <path t="6262,6277,6277,6277,6277,6277,6285,6285,6298,6298,6298,6315,6315,6315,6315,6332,6332,6332,6332,6332,6348,6348,6348,6348,6348,6363,6363,6363,6363,6363,6381,6381,6381,6381,6381,6396,6396,6396,6397,6397,6413,6413,6413,6413,6413,6430,6430,6430,6430,6430,6430,6446,6446,6446,6446,6446,6463,6463,6463,6463,6463,6480,6480,6480,6480,6481,6481,6496,6496,6496,6513,6513,6513,6530" d="m271,233c3.95667,8.57083 4.22357,9.08835 4.70667,9.97333c0.39746,0.72806 0.82565,1.29874 1.1835,2.5695c0.17847,0.63373 0.34457,1.65318 0.60983,2.49884c0.22757,0.72546 0.39261,1.60031 0.47467,2.64099c0.06104,0.77393 0.09402,1.6069 0.19199,2.48401c0.10266,0.91927 0.26587,1.85928 0.35419,2.33333c0.17673,0.94864 0.47641,2.33398 0.67917,3.21466c0.09863,0.42847 0.29843,1.26489 0.5,2.08084c0.2977,1.20508 0.5079,2.00369 0.68933,2.81516c0.18408,0.8233 0.34473,1.67227 0.444,2.556c0.10281,0.91531 0.13919,1.8588 0.19199,2.80801c0.02628,0.47272 0.12701,1.86069 0.25867,2.73999c0.1275,0.85153 0.30182,1.67282 0.43201,2.48401c0.12833,0.79965 0.21112,1.60336 0.24799,2.42267c0.03827,0.85016 0.03534,1.74933 0.03601,3.22134c0.00024,0.52533 0,1.60797 0,2.15732c0,0.54935 0,1.63199 0,3.15701c0,0.47232 0,1.371 0,2.22165c0,0.81866 0.00562,2.02173 -0.00449,2.83035c-0.01041,0.83273 -0.04568,1.70581 -0.08084,2.16165c-0.11362,1.47375 -0.1911,1.99728 -0.35068,3.06934c-0.08035,0.53983 -0.26245,1.59869 -0.36533,2.10666c-0.28195,1.39212 -0.50449,2.17465 -0.76266,3.18533c-0.28061,1.09854 -0.38333,1.80634 -0.48868,2.60635l-0.29999,0.89548" id="svg_4" stroke-width="2" stroke="#000" fill="none"/>
  <path t="7070,7077,7077,7077,7077,7077,7077,7085,7085,7085,7096,7112,7129,7130,7145,7145,7146,7162,7162,7162,7179,7179,7195,7195,7195,7212,7212,7212,7229,7229,7229,7229,7229,7245,7245,7245,7245,7245,7262,7262,7262,7262,7279,7279,7279,7279,7295,7295,7295,7295,7312,7312,7312,7312,7312,7329,7329,7329,7330,7330,7345,7345,7345,7345,7362,7362,7363,7363,7379,7379,7379,7379,7379,7395,7395,7395,7395,7395,7396,7412,7413,7413,7413,7413,7429,7429,7429,7430,7430,7445,7445,7445,7445,7446,7446,7446,7462,7463,7463,7463,7463,7479,7479,7480,7480,7480,7496,7496,7496,7496,7496,7513,7513,7513,7513,7513,7529,7529,7529,7529,7529,7546,7546,7546,7546,7546,7562,7563,7563,7563,7563,7578,7579,7579,7579,7595,7596,7596,7596,7612,7612,7613,7613,7613,7613,7613,7629,7629,7629,7629,7629,7645,7646,7646,7662,7663,7663,7663,7678,7678,7679,7679,7695,7695,7696,7696,7696,7712,7713,7713,7728,7728,7746,7746,7746,7763,7763,7763,7763,7778,7778,7779,7795,7795,7796,7796,7812,7813,7813,7828,7829,7829,7829,7845,7846,7846,7863,7863,7863,7878,7879,7879,7879,7896,7896,7896,7913,7913,7929,7929,7929,7946,7946,7946,7963,7963,7963,7979,7979,7979,7995,7995,8013,8013,8013,8028,8029,8029,8029,8045,8045,8062,8063,8063,8079,8079,8096,8096,8113,8113,8113,8129,8129,8129,8145,8146,8146,8146,8162,8163,8163,8179,8179,8179,8179,8196,8196,8196,8213,8213,8213,8213,8229,8229,8229,8229,8246,8263,8263,8279,8295,8296" d="m273,250c-11.66666,1.83333 -12.52795,1.97572 -14.02917,2.23833c-0.65103,0.11388 -1.24042,0.22731 -2.26334,0.40001c-1.20607,0.20361 -1.87305,0.14694 -2.80348,0.38699c-0.83176,0.21458 -1.37227,0.88278 -2.22551,1.19633c-0.72186,0.26527 -1.69937,0.92072 -2.274,1.4355c-0.59097,0.52942 -1.27768,1.31778 -1.64282,1.94284c-0.45116,0.77231 -0.65457,1.8035 -0.787,2.60001c-0.16716,1.0054 -0.41821,1.60754 -0.776,2.48532c-0.40727,0.99918 -0.61137,1.56805 -0.79868,2.19733c-0.42931,1.44229 -0.5034,1.85922 -0.7,2.72269c-0.20352,0.89386 -0.38449,1.79306 -0.7,3.06131c-0.19066,0.76639 -0.3989,1.47235 -0.60001,2.14801c-0.19891,0.66833 -0.51791,1.7023 -0.78932,2.82132c-0.18718,0.77176 -0.35844,1.56128 -0.48917,2.76385c-0.08626,0.79358 -0.10727,1.57919 -0.117,2.34299c-0.0139,1.09042 -0.0045,1.77316 -0.0045,2.75717c0,0.65268 -0.0092,1.66675 0.0045,2.76166c0.00977,0.78012 0.04515,1.60059 0.08083,2.02499c0.11238,1.3367 0.26541,2.26181 0.41467,3.1925c0.07372,0.45966 0.23961,1.3486 0.37866,2.578c0.08275,0.73154 0.13199,1.75897 0.20534,2.42551c0.11462,1.04163 0.26588,1.77609 0.43683,2.53818c0.17618,0.78537 0.48102,1.9787 0.67917,2.78183c0.20187,0.81821 0.40637,1.66791 0.60001,2.56799c0.2068,0.96124 0.4019,1.99677 0.4955,2.53467c0.19026,1.09354 0.28154,1.64227 0.41916,2.72665c0.13112,1.03317 0.2039,1.99719 0.26001,2.89603c0.05309,0.85049 0.04532,1.26651 0.192,2.47198c0.09819,0.80695 0.26971,1.6344 0.48,2.508c0.22885,0.95074 0.51915,1.99225 0.67467,2.556c0.32951,1.19449 0.504,1.81201 0.67867,2.436c0.17467,0.62399 0.51852,1.84729 0.83333,3c0.28494,1.0434 0.40576,1.53082 0.66667,2.4375c0.24496,0.85126 0.6611,2.0647 0.8215,2.46249c0.32445,0.80463 0.69395,1.6026 1.08299,2.39999c0.58742,1.20398 0.80019,1.59763 1.19101,2.40002c0.3885,0.79764 0.77559,1.58881 1.23782,2.79999c0.30269,0.79312 0.40961,1.20306 0.6875,2c0.28006,0.80316 0.78712,2.01443 1.24983,2.79868c0.47574,0.8063 0.75354,1.19376 1.33835,1.94415c0.86563,1.11075 1.18387,1.44214 1.79099,2.10001c0.59314,0.64273 1.19836,1.25427 2.10001,2.15717c0.59891,0.59976 1.198,1.19144 1.5,1.47916c0.59607,0.56787 1.48138,1.37863 2.39999,2.05917c0.5885,0.43597 1.1825,0.83331 2.10001,1.29501c0.89758,0.45166 1.56479,0.68192 2.27151,0.9765c1.23257,0.51379 1.69354,0.73093 2.69098,1.1955c0.52463,0.24435 1.05539,0.50113 2.13666,0.98932c0.53275,0.24054 2.05542,0.86862 2.52884,1.03467c0.88528,0.31049 1.71466,0.5495 2.48401,0.76801c1.06644,0.30289 2.05295,0.59967 2.67734,0.80267c1.21255,0.39423 1.81067,0.60001 2.71066,0.89999c0.60001,0.20001 1.8009,0.59845 2.409,0.8045c0.63327,0.21457 1.66336,0.57632 2.8335,1.01666c0.42477,0.15985 1.29459,0.50146 2.17084,0.8175c0.83066,0.29959 1.91629,0.64938 2.51517,0.74701c0.95123,0.15506 1.97284,0.11432 2.8075,0.11432c0.93066,0 1.72116,0 2.57468,0c1.18933,0 1.78934,0 2.68933,0c0.89999,0 1.79999,0 2.70001,0c0.89999,0 1.80017,0.01352 2.69998,-0.00449c0.90036,-0.01801 1.50696,-0.04251 2.70132,-0.27951c0.61356,-0.12177 1.55017,-0.3974 2.56534,-0.54935c0.71283,-0.10669 1.81378,-0.15164 2.5235,-0.21933c0.9787,-0.09332 1.79465,-0.31839 2.52451,-0.522c1.19876,-0.33441 2.02216,-0.39127 2.59601,-0.45065c1.19135,-0.12326 2.09235,-0.32114 2.68933,-0.49551c0.90488,-0.26431 1.8038,-0.56729 2.67868,-0.87915c0.81097,-0.28906 1.67542,-0.70526 2.32132,-1.10001c0.82922,-0.50677 1.52097,-0.77957 2.28534,-1.13599c1.06464,-0.49646 1.7583,-1.01569 2.40399,-1.53867c0.81168,-0.65744 1.40082,-1.09573 2.04666,-1.41467c0.91208,-0.45041 1.71902,-0.69327 2.50269,-1.01068c0.93658,-0.37936 1.74918,-0.91171 2.42798,-1.56665c0.5015,-0.48386 1.06009,-1.06787 2,-1.83334c0.50562,-0.41177 1.31509,-0.97552 1.82352,-1.34283c0.87152,-0.62964 1.49835,-1.14767 2.33115,-1.97867c0.50983,-0.50876 1.06644,-1.05252 1.65717,-1.87833c0.53891,-0.75339 1.01828,-1.63593 1.42151,-2.17484c0.59525,-0.79556 1.02402,-1.461 1.39999,-2.31201c0.32077,-0.72601 0.60406,-1.54791 0.90002,-2.41782c0.30417,-0.8941 0.59998,-1.7955 0.79999,-2.39551c0.29999,-0.89999 0.59998,-1.79999 0.89999,-2.70001c0.20001,-0.59998 0.60001,-1.79999 0.89999,-2.69998c0.20001,-0.60001 0.50003,-1.5 0.80002,-2.39999c0.30002,-0.90002 0.49881,-1.5004 0.89999,-2.70001c0.20071,-0.60022 0.50168,-1.5079 0.75717,-2.10001c0.52518,-1.21713 0.89053,-1.79126 1.22198,-2.35834c0.45087,-0.77136 0.85474,-1.91882 1.30484,-2.74167c0.35483,-0.64862 0.70532,-1.43597 0.707,-2.45715l-0.10532,-0.74734" id="svg_5" stroke-width="2" stroke="#000" fill="none"/>
  <path t="9794,9817,9853,9877,9877,9885,9900,9915,9931,9931,9948,9948,9965,9965,9979,9979,9997,9997,10014,10015,10015,10029,10029,10029,10048,10048,10063,10063,10079,10079,10079,10098,10115,10131,10131,10131,10148,10163,10181,10181,10196,10228,10246,10246,10265,10281,10281,10298,10298,10313,10313,10313,10329,10329,10329,10346,10346,10346,10365,10365,10365,10365,10381,10381,10381,10381,10381,10396,10396,10396,10413,10413,10413,10429,10429,10429,10429,10446,10446,10468,10480,10498,10498,10515,10530,10530,10530,10549,10549,10549,10564,10564,10564,10579,10579,10579,10595,10596,10596,10596,10614,10614,10614,10614,10630,10630,10630,10630,10630,10647,10647,10647,10647,10647,10664,10664,10664,10664,10664,10680,10680,10680,10680,10680,10697,10697,10697,10697,10697,10714,10714,10714,10714,10728,10729,10729,10729,10729,10747,10747,10747,10747,10747,10747,10764,10764,10764,10764,10780,10780,10780,10796,10796,10796,10796,10814,10814,10814,10830,10830,10830,10830,10847,10847,10847,10847,10864,10864,10864,10880,10880,10880,10880,10895,10896,10896,10896,10917,10917,10917,10917,10929,10929,10929,10929,10947,10964,10980,10980,10997" d="m225,62c-1.64284,2.04816 -2.15431,2.91626 -3,3c-0.79611,0.07883 -1.7,0.05717 -2.5,0.5c-0.8,0.44283 -1.70134,0.5 -2.38533,0.5c-0.95067,0 -1.716,0 -2.71468,0c-0.79999,0 -1.79999,0 -2.59999,0c-1.00017,0 -1.82083,0 -2.96667,0c-0.786,0 -1.608,0 -2.66666,0c-0.7095,0 -1.56216,0 -2.56667,0c-0.8,0 -1.8,0 -2.60001,0c-1,0 -1.78944,-0.01215 -2.51466,0c-1.07513,0.01801 -1.94058,0.40401 -2.48534,1.16666c-0.44791,0.62708 -0.80876,1.34332 -1.38933,2.19733c-0.49689,0.73093 -0.82524,1.60609 -1.18533,2.236c-0.49403,0.8642 -0.7605,1.72087 -1.42534,2.4c-0.48445,0.49487 -1.45041,0.86728 -2.20134,1.28533c-0.60826,0.33863 -1.45107,1.03345 -2.04533,1.31467c-0.90678,0.4291 -1.7077,0.69536 -2.528,1c-1.0609,0.394 -1.78659,0.67078 -2.41466,1.036c-0.83759,0.48706 -1.60909,1.2048 -2.04666,1.53867c-0.90646,0.69161 -1.72687,1.0746 -2.30568,1.34617c-0.94696,0.44431 -1.98239,1.01723 -2.34099,1.24716c-0.73811,0.47328 -1.45232,0.98667 -2.14801,1.464c-0.92149,0.63227 -1.71059,1.08594 -2.36034,1.51617c-0.82686,0.5475 -1.4108,1.09808 -2.06616,1.65633c-0.95137,0.8104 -1.48979,1.19268 -2.28149,1.7595c-0.49126,0.35171 -1.46269,1.06204 -2.05867,1.63467c-0.60849,0.58464 -0.99168,1.45496 -1.424,2.30133c-0.33473,0.65532 -0.76825,1.44151 -0.77867,2.44283c-0.00748,0.71846 0,1.509 0,2.53584c0,0.92133 -0.01102,1.60541 0.00133,2.60667c0.0103,0.83566 0.03581,1.72504 0.28401,2.91467c0.12634,0.60558 0.41713,1.50067 0.71466,2.4c0.29797,0.90067 0.49997,1.50001 0.8,2.4c0.30014,0.90034 0.6076,1.8224 0.836,2.472c0.24605,0.69982 0.68214,1.87214 1.02116,2.73783c0.17708,0.45219 0.55043,1.37679 0.74733,1.842c0.58638,1.3854 0.99356,2.26375 1.19551,2.69099c0.39618,0.83814 0.7999,1.65272 1.39999,2.85717c0.39861,0.80003 0.60373,1.1961 0.97917,2c0.37186,0.79623 0.86133,1.99749 1.13817,2.8c0.27513,0.79757 0.53287,1.6043 0.69249,2c0.48976,1.21416 0.94992,2.00375 1.44084,2.78934c0.24522,0.39243 0.77789,1.1333 1.416,2.24399c0.38481,0.6698 0.66309,1.33464 1.0815,2.26218c0.40981,0.90846 0.91185,1.81897 1.2935,2.467c0.4182,0.71007 0.65794,1.08632 1.3795,2.4015c0.2663,0.48538 0.7955,1.51099 1.058,2.036c0.26149,0.52301 0.76186,1.54332 1.1875,2.5c0.37314,0.83867 0.63806,1.59673 1.0815,2.52933c0.38922,0.81857 0.92009,1.50629 1.4265,2.196c0.67995,0.92609 1.07762,1.72336 1.3045,2.27467c0.3335,0.81038 0.69861,1.82988 1.0625,2.52083c0.40202,0.76334 0.99445,1.62662 1.46815,2.2845c0.50392,0.69983 1.02728,1.40137 1.8235,2.36134c0.4727,0.56993 0.92354,1.06821 1.56216,1.72433c0.79585,0.81766 1.19427,1.2249 1.8405,1.80899c0.91048,0.82292 1.4398,1.21246 2,1.58934c0.85451,0.57489 1.75233,1.07083 2.6685,1.45349c0.6091,0.25441 1.24843,0.46724 2.61684,0.85718c0.72917,0.20778 1.47948,0.39699 2.226,0.59999c1.08719,0.29564 1.76401,0.50087 2.69017,0.77917c0.78993,0.23737 1.74817,0.46367 2.66251,0.52083l0.89999,0l0.8,0l0.91466,-0.08533" id="svg_6" stroke-width="2" stroke="#000" fill="none"/>
  <path t="12186,12208,12208,12216,12228,12229,12245,12245,12262,12262,12278,12278,12279,12295,12296,12296,12312,12312,12312,12329,12329,12329,12329,12329,12345,12345,12345,12346,12362,12362,12362,12378,12379,12379,12379,12395,12395,12395,12413,12413,12413,12413,12413,12428,12428,12428,12445,12445,12445,12445,12462,12462,12462,12478,12478,12478,12478,12495,12495,12495,12512,12512,12529,12529,12529,12546,12546,12546,12546,12562,12562,12562,12578,12578,12595,12595,12612,12612,12612,12612,12628,12628,12628,12628,12645,12645,12645,12663,12663,12663,12663,12663,12678,12678,12679,12695,12695,12695,12696,12696,12712,12712,12712,12712,12713,12713,12728,12728,12728,12728,12729,12729,12745,12745,12745,12746,12746,12762,12762,12763,12763,12763,12763,12778,12778,12778,12779,12779,12779,12795,12795,12796,12796,12796,12812,12812,12852,12852" d="m203,127c0.94733,3.53833 0.94423,4.38185 1.35266,5.24283c0.38438,0.8103 0.65152,1.53224 1.0045,2.41434c0.30617,0.76512 0.74284,1.54283 1.14284,2.34283c0.5,1 0.80003,1.59999 1.2,2.39999c0.40004,0.80016 0.81447,1.61449 1.10001,2.28534c0.42297,0.99374 0.7187,1.87793 0.95717,2.53349c0.4059,1.11581 0.72551,1.94835 0.89549,2.382c0.3447,0.87938 0.68588,1.74037 1.18066,2.89917c0.27644,0.64745 0.65884,1.45273 0.96533,2.18134c0.41925,0.99666 0.60539,1.55327 0.90134,2.42317c0.30417,0.89409 0.60001,1.79549 0.90001,2.6955c0.2,0.59999 0.60229,1.80058 0.79999,2.41066c0.20238,0.62457 0.60301,1.95517 0.8,2.67334c0.20311,0.74049 0.39568,1.49184 0.60001,2.23199c0.29379,1.06424 0.59702,2.04897 0.8,2.67334c0.39421,1.21255 0.61484,1.80579 0.87917,2.71066c0.17439,0.59698 0.40941,1.799 0.4955,2.7c0.05727,0.59941 0.17538,1.8036 0.37799,2.7c0.13622,0.60263 0.40073,1.49405 0.52583,2.39984c0.12225,0.88519 0.10747,1.74309 0.12167,2.77867c0.01236,0.90082 0.16095,1.92322 0.35249,2.53049c0.28639,0.90799 0.50984,1.7215 0.59018,2.69633c0.05713,0.69327 0.0549,1.38934 0.05716,2.65167c0.00137,0.771 0,1.64034 0,2.64301c0,0.79999 0,1.80133 0,2.63599c0,0.93068 0,1.72568 0,2.61067c0,0.64 0,2.03734 0,2.77867c0,0.74933 0,1.49066 0,2.55333c0,0.996 0,1.64667 0,2.98801c0,0.71733 0,1.45866 0,2.20799c0,0.74133 -0.00964,2.14159 0.01067,2.8c0.0302,0.97864 0.14508,1.99388 0.27467,2.71333c0.13898,0.77153 0.32863,1.59396 0.51599,2.48399c0.20222,0.96059 0.39998,1.9971 0.49867,2.53784c0.20268,1.1105 0.29948,1.67558 0.39999,2.242c0.29845,1.68176 0.3972,2.22702 0.60001,3.2865c0.09863,0.51526 0.29794,1.51543 0.39999,2c0.29407,1.39626 0.49284,2.27979 0.71066,3.13632c0.21689,0.85287 0.32597,1.28458 0.75601,2.59201c0.30421,0.92488 0.48842,1.39577 0.85416,2.375c0.18877,0.50539 0.58463,1.54349 0.97917,2.625c0.20193,0.55356 0.59674,1.67657 0.78934,2.23734c0.37708,1.09784 0.55408,1.6288 1.04399,3.09599c0.14534,0.43527 0.40146,1.22679 0.75601,2.23199c0.2047,0.58032 0.61066,1.58134 1.01067,2.42134l0.49983,0.82483l0.61482,0.64984" id="svg_7" stroke-width="2" stroke="#000" fill="none"/>
  <path t="14001,14024,14037,14052,14064,14078,14096,14115,14115,14130,14130,14130,14146,14163,14163,14163,14181,14181,14181,14198,14198,14198,14215,14215,14228,14228,14228,14229,14248,14248,14248,14265,14265,14266,14278,14279,14279,14279,14298,14298,14298,14298,14315,14316,14329,14329,14329,14348,14362,14362,14379,14396,14396,14412,14412,14428,14429,14429,14445,14445,14445,14462,14462,14478,14478,14478,14478,14495,14495,14496,14496,14512,14512,14513,14528,14528,14529,14529,14529,14545,14545,14545,14562,14562,14563,14578,14578,14578,14595,14595,14595,14595,14612,14612,14612,14628,14628,14629,14645,14645,14645,14645,14662,14662,14663,14678,14678,14678,14696,14696,14696,14696,14712,14712,14713,14713,14728,14728,14729,14729,14729,14729,14745,14746,14746,14746,14763,14763,14763,14778,14778,14779,14796,14797,14797,14797,14812,14813,14813,14828,14828,14829,14846,14846,14846,14863,14863,14878,14879,14895,14896,14913,14913,14929,14929,14929,14946,14946,14946,14963,14963,14963,14978,14979,14979,15004,15028" d="m161,109c0,1.8 0,2.7 0,3.6c0,0.9 0.09497,1.80582 -0.00133,2.6c-0.11156,0.92009 -0.72325,1.59588 -0.91467,2.568c-0.14235,0.72292 -0.08138,1.49453 -0.50934,2.57067c-0.34109,0.85772 -0.5201,1.51232 -0.65866,2.348c-0.16643,1.00375 -0.41704,1.8204 -0.71733,2.62933c-0.37422,1.00808 -0.69601,1.66445 -0.99867,2.28266c-0.49567,1.01247 -0.82942,1.66272 -1.2,2.73466c-0.21742,0.62892 -0.49339,1.66861 -0.7,2.36134c-0.29073,0.97481 -0.58391,1.7982 -0.90001,2.48399c-0.47617,1.03307 -0.81068,1.64265 -1.15717,2.33566c-0.56421,1.12848 -0.89935,1.79362 -1.24283,2.5065c-0.3513,0.72911 -0.84418,1.80814 -1.11333,2.49251c-0.25015,0.63609 -0.5737,1.51494 -0.76534,2.56517c-0.16313,0.89404 -0.25105,1.9346 -0.4785,2.517c-0.2998,0.76764 -1.10535,1.55299 -1.47617,2.4045c-0.32616,0.74898 -0.16667,1.636 -0.16667,2.65717c0,0.74733 0,1.74417 0,2.57883c0,0.93068 0,1.71667 0,2.53868c0,1.05865 -0.03639,1.99457 0.05716,2.62082c0.15239,1.02008 0.56682,1.83504 0.94284,2.77118c0.31575,0.78607 0.49492,1.36534 0.88533,2.23466c0.40921,0.91118 0.94301,1.79692 1.28934,2.39867c0.34433,0.59828 0.93936,1.8015 1.21066,2.39999c0.27267,0.60152 0.92876,1.8145 1.384,2.39867c0.47253,0.60635 1.0118,1.16945 1.548,1.716c0.75511,0.76967 1.46005,1.42787 2.021,2.08083c0.67003,0.77995 1.00557,1.42494 1.54567,2.20451c0.57101,0.82419 1.15404,1.42435 1.57767,1.85716c0.9514,0.972 1.4865,1.491 2.0175,2.022c0.511,0.511 1.39128,1.36549 1.8595,1.87016c0.5603,0.60394 1.15146,1.41801 1.68216,2.19234c0.38718,0.56493 0.97644,1.46016 1.37917,2.05699c0.59598,0.88324 0.97531,1.46371 1.79984,2.47984c0.38438,0.47371 0.99907,1.08324 1.6335,1.92149c0.44371,0.58626 0.79362,1.26181 1.5,2.16667c0.41632,0.53329 1.18416,1.33659 1.71851,1.88066c0.77666,0.79077 1.28113,1.25565 1.94817,1.99434c0.46474,0.51468 1.17346,1.4537 1.68401,2.21033c0.27231,0.40356 0.81464,1.24889 1.09067,1.672c0.53868,0.82573 1.29285,1.92036 1.76816,2.509c0.63211,0.78284 1.08028,1.22931 1.85583,2.25101c0.40363,0.53172 0.78575,1.07803 1.43466,2.14932c0.42761,0.70593 0.77515,1.4019 1.33334,2.33334c0.47626,0.79471 0.84175,1.34224 1.23782,1.88066c0.77173,1.04909 1.39043,1.72151 1.7955,2.142c0.79019,0.82024 1.38275,1.42497 2,1.97467c0.77896,0.69371 1.40578,1.0623 2.14284,1.53149c0.91774,0.58421 1.3685,1.07262 2.31433,1.60001c0.71977,0.40134 1.739,0.65216 2.50684,0.69383c0.952,0.05167 1.64592,0.02216 2.60666,0.00934c0.77119,-0.01028 1.64326,-0.0258 2.828,-0.28534c0.59778,-0.13095 1.48094,-0.41174 2.47984,-1.03467c0.48401,-0.30183 1.07898,-0.89458 1.92149,-1.51199c0.76242,-0.55872 1.51466,-0.88 2.45833,-1.16667l0.567,-0.57466" id="svg_8" stroke-width="2" stroke="#000" fill="none"/>
  <path t="17098,17105,17105,17105,17105,17105,17105,17106,17106,17106,17114,17114,17115,17115,17115,17115,17115,17115,17115,17131,17131,17131,17131,17131,17131,17131,17131,17131,17147,17147,17147,17147,17147,17147,17147,17147,17147,17162,17162,17162,17162,17162,17180,17180,17180,17180,17196,17196,17196,17212,17213,17213,17252,17268,17284,17300,17388,17398,17412,17412,17429,17464,17504,17524,17556,17600,17609,17609,17620,17636,17668,17680,17696,17712,17712,17729,17788,17793,17804,17816,17885,17909" d="m180,123c0.66667,4.83334 0.88451,6.1915 1.13733,7.73734c0.27675,1.69218 0.57387,3.48813 0.8835,5.34599c0.31302,1.87814 0.6241,3.73427 0.92851,5.526c0.54784,3.22449 0.78403,4.58205 0.99466,5.76534c0.18263,1.026 0.34456,1.91 0.4935,2.66701c0.12755,0.64825 0.24208,1.20297 0.35851,1.677c0.1926,0.78421 0.29929,1.11887 0.40666,1.42799c0.10161,0.29253 0.21361,0.56902 0.339,0.8325c0.12531,0.26328 0.26768,0.52466 0.429,0.78749c0.35193,0.57339 0.57079,0.87714 0.79866,1.20267c0.23906,0.34151 0.49155,0.69234 0.7515,1.0515c0.26405,0.36484 0.53169,0.7305 0.79651,1.09651c0.51733,0.71501 0.76414,1.05908 1.22549,1.72549c0.43918,0.63438 0.85213,1.25302 1.45717,2.15717c0.59949,0.89584 0.98868,1.48738 1.39999,2.04283c0.77873,1.05164 1.20563,1.49124 1.76401,2.1465c0.68185,0.80016 1.09933,1.6693 1.63466,2.24001c0.65916,0.70274 0.78865,1.39893 1.2585,2.2135c0.39618,0.68684 1.33287,1.52148 1.89017,1c0.6627,-0.62012 0.70137,-1.47098 1.10535,-2.34283c0.38535,-0.83163 0.64478,-1.85323 1.30449,-2.24284c0.81332,-0.48033 1.8979,-0.22577 2.64284,0.10951c0.73195,0.32944 1.09273,1.26668 1.57466,1.85866c0.50443,0.61963 0.42534,1.57468 0.42534,2.4955c0,0.96317 -0.24098,1.68254 0.0045,2.7175c0.18044,0.76071 0.97467,0.24084 1.00616,-0.62766l0.48933,-0.61067l0.5,-0.62933l0,0.82933" id="svg_9" stroke-width="20" stroke="#fff" fill="none"/>
  <path t="20394,20445,20453,20465,20481,20496,20496,20512,20512,20512,20529,20529,20529,20546,20546,20546,20546,20546,20562,20562,20562,20562,20579,20579,20579,20579,20596,20596,20596,20614,20614,20614,20631,20631,20631,20649,20649,20664,20680,20696,20696,20712,20729,20746,20746,20762,20762,20781,20781,20796,20796,20812,20812,20829,20829,20829,20829,20846,20846,20846,20861,20861,20878,20878,20878,20879,20895,20895,20895,20912,20912,20912,20928,20929,20929,20929,20947,20947,20947,20961,20961,20961,20962,20980,20980,20980,20980,20996,20997,20997,20997,20997,21011,21011,21011,21011,21011,21011,21030,21030,21030,21030,21046,21046,21046,21046,21046,21046,21063,21063,21063,21063,21080,21080,21080,21080,21097,21097,21097,21097,21098,21112,21112,21112,21112,21129,21129,21129,21147,21147,21147,21147,21161,21161,21180,21180,21195,21195,21213,21213,21228,21229,21245,21261,21261,21279,21295,21295,21296,21311,21312,21312,21328,21328,21329,21345,21345,21346,21346,21346,21362,21362,21362,21362,21379,21379,21379,21379,21396,21396,21396,21396,21412,21412" d="m361,86c0.19867,0.00134 0.89526,0.39639 1.42532,0.97467c0.54599,0.59567 1.13013,1.25124 1.79602,1.62533c0.95822,0.5383 1.60501,0.76879 2.37866,1.28533c0.83344,0.55647 1.42889,1.15179 1.91434,1.51917c1.10098,0.83322 1.79388,1.2028 2.52731,1.57466c0.37662,0.19096 1.15002,0.5649 2.35818,0.99934c0.78897,0.2837 1.57892,0.50211 2.34299,0.717c1.08994,0.30655 2.10315,0.58827 2.71552,0.82533c0.86676,0.33554 1.62781,0.79034 2.31631,1.3045c0.68561,0.51199 1.63864,1.16995 2.17801,1.4175c0.81073,0.37209 1.8866,0.74353 2.59018,1.05717c0.86023,0.38347 1.69095,0.74106 2.4155,1.2c0.8439,0.53455 1.27118,1.20628 2.04166,1.66666c0.71948,0.42992 0.89169,1.34059 1.01068,2.244c0.12207,0.92671 0.59854,1.55383 0.86783,2.568c0.2009,0.75658 0.12149,1.6785 0.12149,2.42583c0,0.9955 0,1.79549 0,2.79566c0,0.82067 0,1.9665 0,2.757c0,0.56367 0,1.44417 0,2.64149c0,0.8805 0,1.44417 0,2.71734c0,0.684 0,1.85066 0,2.64117c0,0.56367 0,1.44417 0,2.64149c0,0.8805 0,1.44417 0,2.71867c0,0.70349 -0.00742,1.45203 0.00134,2.65199c0.00507,0.69205 0.00729,1.41837 0.08398,2.14801c0.14755,1.40384 0.33435,2.05153 0.61917,2.97816c0.27957,0.90955 0.60336,1.80084 0.77466,2.4045c0.25394,0.89496 0.41251,1.79926 0.49551,2.73199c0.06009,0.67523 0.08951,1.42625 0.24683,2.73218c0.12051,1.00026 0.20859,1.52347 0.38916,2.59583c0.09088,0.53967 0.38666,2.10722 0.48935,2.597c0.19492,0.92975 0.39874,1.80164 0.5,2.22166c0.19751,0.81926 0.50137,2.02116 0.69998,2.82584c0.20142,0.81599 0.40567,1.65138 0.70001,2.96217c0.10196,0.45406 0.29788,1.38196 0.5,2.3125c0.19797,0.91144 0.28662,1.35484 0.59982,2.57799c0.27771,1.08461 0.48608,1.75294 0.61484,2.42551c0.19772,1.03293 0.25742,2.15311 0.27466,2.92799c0.01758,0.79054 0.00494,1.98955 0.01517,2.79384c0.01038,0.81642 0.04501,1.65324 0.08084,2.08084c0.11209,1.33772 0.26297,2.25456 0.41467,3.15216c0.0726,0.42952 0.33871,1.89503 0.44733,2.64734c0.11084,0.76788 0.27371,1.67938 0.478,2.60182c0.14914,0.67339 0.32123,1.34196 0.49066,2.54268c0.13351,0.94623 0.29376,1.97462 0.50934,2.56c0.38736,1.05183 0.56934,1.83595 0.57468,2.696c0.00452,0.72531 0,1.71449 0,2.67867c0,0.95067 0.17941,1.87627 -0.08533,2.636c-0.28073,0.80562 -1.07004,1.37834 -1.75067,2.02533c-0.55939,0.53175 -1.35028,1.17545 -1.96399,1.53867c-0.78354,0.46373 -1.59946,0.84694 -2.50803,1.272c-0.54532,0.25511 -1.55469,0.68887 -2.35449,1.01666c-0.85678,0.35114 -1.29556,0.52693 -2.17084,0.86334c-1.22119,0.46938 -1.95422,0.7345 -2.64581,0.96317c-0.99991,0.33061 -2.04163,0.62283 -2.7735,0.82083c-0.7468,0.20204 -1.49783,0.38884 -2.58069,0.7c-1.00803,0.28966 -1.625,0.5 -2.47998,0.8l-1.00134,0.39867l-0.66449,0.2805" id="svg_10" stroke-width="2" stroke="#000" fill="none"/>
  <path t="22719,22725,22725,22725,22725,22725,22725,22725,22733,22733,22733,22748,22764,22779,22796,22796,22812,22812,22840,22860,22905,22928,22946,22946,22962,22979,22996,23012,23012,23029,23029,23046,23046,23062,23062,23079,23079,23096,23096,23096,23112,23112,23112,23112,23130,23130,23160,23160,23179" d="m258,157c5.05649,7.47783 5.43018,8.10661 5.77216,8.72484c0.32855,0.59393 0.63983,1.16325 1.14734,2.24199c0.22919,0.48712 0.78601,1.73051 0.9725,2.67851c0.16797,0.85387 0.108,1.71866 0.108,2.65466c0,0.90134 0,1.86667 0,2.7c0,0.9785 0.01047,1.69556 0,2.60001c-0.01044,0.90018 -0.23019,1.91093 -1.10001,2.27849c-0.83655,0.3535 -1.85324,0.55016 -2.61465,0.03618c-0.66776,-0.45076 -0.91284,-1.49863 -1.48535,-2.11601c-0.61865,-0.66714 -1.10959,-1.45076 -1.5,-2.20316c-0.40997,-0.79015 -0.84647,-1.54977 -1.13333,-2.42883c-0.25284,-0.77473 -0.4856,-1.64087 -0.74133,-2.41335c-0.30035,-0.90724 -0.36108,-1.71164 -0.45065,-2.564c-0.12518,-1.19113 -0.2532,-1.78935 -0.47467,-2.6685c-0.21082,-0.83682 -0.41467,-1.83549 -0.48932,-2.71016l-0.01085,-1.01033l-0.02066,-0.75867l-0.26451,-0.86967" id="svg_11" stroke-width="2" stroke="#000" fill="none"/>
  <path t="26522,26537,26537,26537,26547,26547,26566,26566,26582,26582,26582,26582,26594,26594,26594,26611,26611,26611,26629,26629,26629,26629,26645,26645,26645,26662,26662,26662,26678,26678,26695,26695,26695,26695,26712,26712,26712,26712,26728,26728,26728,26744,26745,26745,26745,26745,26761,26761,26761,26778,26778,26778,26795,26795,26795,26795,26811,26812,26812,26828,26828,26828,26828,26845,26845,26845,26845,26861,26861,26878,26878,26878,26894,26894,26912,26912,26928,26928,26928,26928,26928,26944,26944,26944,26961,26961,26961,26978,26978,26978,26978,26994,26994,26994,26994,26994,26994,27011,27011,27011,27011,27028,27028,27029,27029,27045,27045,27045,27045,27045,27045,27062,27062,27062,27062,27062,27078,27079,27079,27079,27094,27094,27094,27094,27094,27111,27111,27112,27112,27112,27129,27129,27129,27129,27145,27145,27145,27145,27145,27145,27161,27161,27161,27162,27179,27179,27179" d="m146,160c-1.09984,8.3495 -1.28793,9.20206 -1.564,10.12534c-0.26218,0.87683 -0.40265,1.66391 -0.436,2.70799c-0.02263,0.70828 -0.15535,1.66925 -0.35716,2.52917c-0.155,0.66042 -0.30579,1.35049 -0.74284,2.5945c-0.27422,0.78053 -0.61018,1.42903 -1.09999,2.44566c-0.30641,0.63596 -0.62248,1.36072 -1,2.56534c-0.21274,0.6788 -0.38773,1.38506 -0.60001,2.064c-0.37697,1.20567 -0.72388,1.93376 -0.91466,2.65067c-0.26259,0.98679 -0.27382,1.81717 -0.28401,2.63333c-0.01538,1.23125 -0.00133,1.90933 -0.00133,2.85068c0,0.795 0,1.67999 0,2.31999c0,1.39734 0,2.13867 0,2.888c0,0.74133 0,1.804 0,2.8c0,0.65067 0,1.992 0,2.70934c0,0.74133 0,1.49066 0,2.23199c0,1.39867 0,2.048 0,2.97951c0,1.2045 0,1.80449 0,2.7045c0,1.2 0,1.8 0,2.7c0,0.89999 0,1.8 0,2.7c0,0.90001 0,1.8 0,2.7045c0,0.61633 0,1.58084 0,2.61667c0,0.72701 0,1.8175 0,2.50951c0,1.19867 0,1.92766 0,2.96933c0,0.8 0,1.60001 0,2.60001c0,0.79999 -0.02483,1.80399 0.02083,2.44167c0.09282,1.29654 0.25679,1.92938 0.41518,2.61966c0.16656,0.72591 0.34811,1.46104 0.76399,2.85201c0.19208,0.64243 0.47934,1.53317 0.90001,2.56532c0.28606,0.70186 0.61935,1.36624 1.00017,2.34334c0.32726,0.83966 0.53706,1.49626 0.78516,2.23534c0.43837,1.30594 0.59531,1.79628 0.95067,2.81866c0.18242,0.52484 0.55936,1.56966 0.76534,2.07201c0.57326,1.39812 0.78745,1.80124 1.188,2.54399c0.54025,1.00177 1.05444,1.90318 1.328,2.51067c0.41965,0.93188 0.67271,1.62112 1.21599,2.73068c0.20221,0.41299 0.67065,1.27536 1.1875,2.16666c0.26157,0.45105 0.79263,1.33441 1.3125,2.16666c0.47778,0.76489 0.92888,1.46252 1.356,2.112c0.40761,0.61981 1.21025,1.82385 1.62134,2.43201c0.42352,0.62656 0.8689,1.27878 1.61082,2.31067c0.26181,0.36414 0.80759,1.10934 1.38918,1.85333c0.58377,0.74677 1.18349,1.46387 1.78799,2.14001c0.58505,0.65439 1.17505,1.26602 1.716,1.884c0.77847,0.88931 1.23459,1.51147 1.72701,2.12216c0.51794,0.64233 1.45291,1.65146 1.82233,2.00034c0.7827,0.73914 1.2104,1.09537 1.636,1.45798c0.83884,0.71472 2.00285,1.68423 2.33549,1.97784c0.864,0.7626 1.3325,1.22168 2.16451,2.043l0.5955,0.59549l0.5685,0.56851" id="svg_12" stroke-width="2" stroke="#000" fill="none"/>
  <path t="27755,27765,27781,27781,27801,27801,27812,27812,27812,27829,27845,27845,27845,27862,27862,27862,27879,27879,27879,27879,27895,27895,27895,27895,27912,27912,27912,27929,27929,27929,27929,27945,27945,27945,27945,27945,27962,27962,27962,27962,27979,27979,27979,27979,27996,27996,27996,27996,27996,28012,28012,28012,28012,28029,28029,28029,28029,28045,28045,28045,28045,28045,28046,28062,28062,28062,28062,28079,28079,28079,28095,28095,28095,28095,28112,28112,28112,28112,28129,28129,28129,28129,28129,28145,28145,28145,28145,28145,28162,28162,28162,28162,28179,28179,28179,28179,28195,28195,28195,28195,28215,28216,28216,28232,28232,28232,28245,28245,28245,28265,28265,28265,28279,28279,28295,28295,28295,28312,28312,28312,28332,28332,28348,28348,28365,28365,28382,28382,28395,28412,28429,28429,28448,28448,28462,28482,28482,28498,28516,28516,28532,28548,28565,28565,28582,28598,28613,28613,28632,28632,28645,28645,28662,28662,28679,28679,28679,28695,28695,28695,28715,28715,28715,28732,28732,28732,28732,28732,28745,28745,28745,28745,28745,28765,28765,28766,28766,28782,28782,28782,28782,28795,28795,28795,28795,28795,28795,28812,28812,28812,28812,28812,28829,28829,28829,28829,28829,28848,28848,28848,28849,28865,28865,28865,28866,28912,28912" d="m167,248c0,4.29201 -0.00435,5.10019 0,5.88533c0.00534,0.96138 0.05161,1.80865 0.284,2.79735c0.18883,0.80334 0.51608,1.53192 0.65884,2.50748c0.14163,0.96786 0.05673,1.8515 0.05716,2.49652c0.00067,1 0.00174,1.85638 0.05716,2.47498c0.12221,1.36411 0.2955,2.091 0.44284,2.83835c0.14734,0.74734 0.34842,1.83176 0.44733,2.84283c0.06216,0.63547 0.08882,1.56485 0.33801,2.75717c0.12656,0.60556 0.42049,1.49957 0.71466,2.39999c0.29683,0.90857 0.50282,1.53635 0.64284,2.21432c0.22957,1.11166 0.2776,1.9534 0.33183,2.83633c0.05518,0.89841 0.06578,1.78702 0.24683,3.0065c0.10947,0.73737 0.29517,1.42316 0.483,2.091c0.38695,1.37579 0.5979,2.1084 0.7955,2.87268c0.20245,0.78302 0.50287,1.97845 0.69867,2.77783c0.1935,0.78995 0.38231,1.56213 0.51599,2.31598c0.18797,1.06006 0.22815,1.73303 0.31067,2.71069c0.05562,0.65894 0.18163,1.69925 0.33633,2.43631c0.16444,0.78342 0.37881,1.60678 0.80501,2.905c0.30237,0.92105 0.48312,1.38257 0.83333,2.3125c0.17325,0.46005 0.52377,1.3486 0.9785,2.57785c0.26894,0.72699 0.61209,1.72122 0.82016,2.34033c0.30316,0.90204 0.60133,1.80267 0.90134,2.70267c0.3,0.89999 0.60001,1.79999 0.8,2.39999c0.3,0.89999 0.59637,1.80161 0.91066,2.72134c0.22266,0.65158 0.46602,1.3526 0.91084,2.52133c0.32927,0.86514 0.50478,1.3121 0.88916,2.20667c0.38107,0.88684 0.78047,1.72202 1.188,2.48132c0.3824,0.71249 0.79193,1.3707 1.116,2.052c0.65477,1.37659 0.85568,2.14078 1.07468,2.892c0.21559,0.73953 0.50076,1.80719 0.71516,2.47266c0.31668,0.98291 0.56548,1.64328 1.01683,2.67386c0.32051,0.73181 0.67604,1.45926 1.026,2.16898c0.48239,0.9783 0.89551,1.7955 1.242,2.48853c0.5107,1.02148 0.82404,1.62595 1.11066,2.27847c0.4198,0.95572 0.69176,1.77124 1,2.59018c0.38962,1.03513 0.6933,1.71991 1.10001,2.55133c0.39354,0.8045 0.80212,1.60028 1.2,2.40134c0.40213,0.8096 0.71541,1.4509 1.10001,2.42117c0.31259,0.7886 0.53566,1.60168 1,2.436c0.44138,0.79306 1.04195,1.44226 1.37917,2.14282c0.45847,0.95245 0.53798,1.76529 0.87349,2.65268c0.26685,0.70581 0.52124,1.75589 0.93134,2.54733c0.44646,0.86163 0.71375,1.55716 0.716,2.45267c0.00217,0.86331 -0.15636,1.7915 0.35716,2.64731c0.3441,0.57349 1.26044,1.16568 1.52133,2.02133c0.25096,0.82309 0.12151,1.79333 0.12151,2.77869c0,0.89999 0.09644,1.69351 0.5,2.39999c0.45551,0.79739 0.5,1.8215 0.5,2.52084c0,0.97916 0,1.76849 0,2.8125c0,0.79199 0,1.65332 0,2.41333c0,1.17465 0,1.97867 0,2.80066c0,1.03134 -0.00121,1.72733 0,2.63666c0.00134,1.004 0.01425,1.88214 0.11433,2.53485c0.17213,1.12268 0.44548,1.95236 0.74699,2.83182c0.15463,0.45105 0.49626,1.34183 0.972,2.616c0.28479,0.76273 0.5368,1.47 0.75601,2.14801c0.21536,0.66608 0.51314,1.70599 0.81065,2.81067c0.20169,0.74887 0.39058,1.49338 0.70018,2.55365c0.1983,0.67914 0.41859,1.36334 0.657,2.08801c0.40601,1.23416 0.72752,2.1861 0.89549,2.6955c0.34882,1.05786 0.52451,1.59671 0.69467,2.13666c0.49327,1.56522 0.76945,2.5296 0.89549,2.98651c0.2404,0.87158 0.45349,1.70511 0.75717,2.91434c0.20055,0.79855 0.397,1.59009 0.60001,2.36401c0.1971,0.7514 0.4901,1.81784 0.7045,2.48331c0.31668,0.98291 0.56796,1.64218 1.01666,2.67386c0.31793,0.73099 0.658,1.45798 0.96899,2.16898l0.46701,1.26617l0.18149,0.729" id="svg_13" stroke-width="2" stroke="#000" fill="none"/>
  <path t="30038,30129,30141,30141,30165,30182,30182,30197,30197,30197,30198,30198,30212,30212,30212,30212,30229,30229,30229,30229,30246,30246,30246,30246,30262,30262,30262,30262,30279,30279,30279,30279,30280,30295,30295,30295,30295,30312,30312,30312,30312,30312,30329,30329,30329,30346,30346,30346,30346,30346,30362,30362,30362,30362,30362,30362,30362,30379,30379,30379,30379,30396,30396,30396,30396,30412,30412,30412,30412,30412,30430,30430,30430,30430,30430,30430,30446,30446,30446,30446,30462,30462,30462,30462,30479,30479,30479,30479,30496,30496,30496,30496,30496,30512,30512,30512,30512,30529,30529,30529,30529,30529,30545,30545,30545,30564,30564,30564,30579,30579,30579,30595,30596,30596,30612,30612,30612,30629,30629,30629,30645,30646,30667,30667,30667,30667,30681,30681,30681,30697,30697,30697,30697,30714,30714,30729,30729,30730,30745,30745,30788" d="m244,322c1,0.10001 0.97615,1.00037 1,1.79999c0.02859,0.95847 0.3349,1.67322 0.57466,2.51868c0.32994,1.16345 0.3501,1.93411 0.38934,2.76801c0.02042,0.43396 0.03374,1.3125 0.036,2.57999c0.00136,0.76401 0,1.8125 0,2.48151c0,1.01849 0,2.10449 0,2.85184c0,0.74734 0,1.83334 0,2.51599c0,0.98401 0,1.63669 0,3.00552c0,0.73566 0,1.49933 0,2.28299c0,1.1955 0,1.99548 0,2.7955c0,0.79999 0,1.60001 0,2.79999c0,0.80002 0,1.60001 0,2.39999c0,1.20001 0,1.99869 0,2.78934c0,0.77469 0,1.52533 0,2.92667c0,0.65866 0,1.30936 0,2.65067c0,0.72269 0,1.50134 0,2.35202c0,0.93866 0,1.98132 0,2.54517c0,1.18967 0,1.80148 0,2.41531c0,1.20569 -0.00381,1.78351 0.00017,3.33502c0.00221,0.86166 0.00157,1.62457 0.05699,2.32498c0.0815,1.03009 0.29732,2.11768 0.44284,2.88168c0.1492,0.78329 0.34158,1.97833 0.41733,2.78049c0.07634,0.80859 0.07719,1.22272 0.1925,2.05585c0.18213,1.31586 0.4543,2.228 0.5955,2.6955c0.28685,0.94974 0.60127,1.89133 0.72667,2.36331c0.35965,1.35364 0.46632,2.2215 0.54716,3.04236c0.07675,0.77927 0.16614,1.87906 0.30617,2.55765c0.20448,0.99091 0.42433,1.63519 0.71466,2.65067c0.31004,1.08444 0.50063,1.84003 0.75717,2.58069c0.37987,1.09671 0.72203,1.77115 1.06816,2.42731c0.34459,0.65323 0.73053,1.29248 1.15317,2.34702c0.29233,0.72937 0.51245,1.51697 0.717,2.34c0.3232,1.30048 0.50398,2.21979 0.60451,2.68201c0.19897,0.91489 0.37231,1.79681 0.7,2.95633c0.18329,0.64856 0.5524,1.41583 0.83333,2.5c0.20689,0.79843 0.20644,1.48428 0.60951,2.42133c0.35815,0.83264 0.75366,1.34656 1.3905,2.41202c0.42145,0.70511 0.74448,1.39041 1.48798,2.36667c0.47476,0.62338 1.06546,1.17038 1.65717,2c0.41412,0.58063 0.81439,1.40292 1.22284,2.20132c0.42859,0.8378 0.95795,1.76996 1.284,2.28265c0.52377,0.82361 0.89658,1.3812 1.71451,2.39468c0.38519,0.47729 1.02283,1.1076 1.63351,2.08798c0.31104,0.4993 0.66733,1.32129 0.88,2.14935c0.25381,0.98825 0.27228,1.91617 0.45331,2.85065c0.15277,0.7887 0.40802,1.57202 0.66669,2.5l0.15598,0.91202l0.01068,0.94934" id="svg_14" stroke-width="2" stroke="#000" fill="none"/>
  <path t="31466,31480,31484,31497,31497,31514,31531,31531,31547,31547,31547,31547,31562,31562,31562,31579,31579,31579,31595,31595,31612,31612,31612,31629,31629,31629,31629,31646,31646,31646,31664,31664,31704,31716,31716,31732,31746,31762,31762,31779,31779,31795,31795,31795,31812,31812,31829,31829,31829,31845,31845,31845,31846,31862,31862,31862,31880,31880,31895,31895,31912,31912,31929,31929,31945,31962,31962,31981,31981,31981,31995,32012,32012,32012,32029,32029,32029,32045,32045,32045,32062,32062,32062,32079,32079,32079,32095,32095,32112,32112,32129,32129,32145,32145,32162,32162,32162,32179,32195,32195,32212,32212,32229,32229,32229,32245,32245,32262,32262,32279,32279,32295,32312,32312,32312,32329,32329,32329,32345,32345,32345,32362,32362,32362,32379,32379,32379,32395,32395,32395,32413,32413,32429,32429,32445,32488,32512" d="m211,421c0.94284,4.12851 1,5.10001 1,6c0,0.79999 0.04295,1.7619 0.35266,2.66617c0.21231,0.6199 0.50984,1.66434 0.59018,2.63916c0.05713,0.69327 0.06331,1.38934 0.05699,2.65182c-0.00391,0.78159 -0.01016,1.50012 -0.22133,2.46402c-0.1759,0.80292 -0.41637,1.60339 -0.9785,2.61084c-0.35896,0.64334 -0.90387,1.50943 -1.21066,2.23999c-0.35074,0.83524 -0.7433,1.73489 -1.07333,2.32666c-0.4971,0.8913 -0.88159,1.43329 -1.49451,2.47983c-0.39746,0.67865 -0.72682,1.31213 -1.22017,2.32019c-0.37279,0.76172 -0.74048,1.5744 -0.80133,2.60132c-0.04733,0.79858 -0.17503,1.72437 0.036,2.60001c0.18184,0.75452 0.8403,1.2959 1.62117,2.05267c0.54634,0.52948 1.34016,1.18454 1.93834,1.59467c0.74403,0.51013 1.51154,1.24347 1.9045,1.75266c0.65201,0.84488 1.3483,1.39093 2.01883,1.75266c0.80414,0.43378 1.7865,0.90002 2.48117,1.24734c0.69467,0.34732 1.67012,0.82657 2.48117,1.24283c0.66437,0.34097 1.4888,0.86865 2.14417,1.35718c0.68709,0.51218 1.39711,0.86481 2.35333,1.49982c0.66312,0.44037 1.5025,0.84866 2.196,0.8895c1.07086,0.06305 1.992,0.01068 2.84616,0.01068c0.97917,0 1.76855,0.00766 2.49384,0c0.9855,-0.01044 1.97188,-0.28894 2.54784,-0.52084c0.70773,-0.28494 1.90295,-0.68719 2.58817,-0.8685c0.69621,-0.1842 2.01358,-0.46307 2.58,-0.52533c0.98091,-0.10782 1.936,-0.08533 2.722,-0.08533c0.82201,0 1.88066,0 2.81134,0c0.63148,0 1.63599,-0.00006 2.43599,0c0.99983,0.00009 1.99776,-0.07565 2.77867,0.22134c0.82579,0.31406 1.68176,0.74594 2.483,0.77417c0.95892,0.03378 1.75299,0.00449 2.5285,0.00449c1.03915,0 2.00983,0.00189 2.767,0c0.90448,-0.00226 1.7146,-0.00635 2.664,-0.22168c0.80432,-0.18243 1.64789,-0.43344 2.43582,-1.09949c0.68076,-0.57544 1.31915,-1.32773 1.94299,-1.84683c0.7048,-0.58646 1.02472,-1.33316 1.49551,-2.07935c0.56833,-0.90079 0.65005,-1.60364 0.78851,-2.43933c0.1665,-1.00504 0.43256,-1.83554 0.62048,-2.41782c0.38672,-1.19821 0.5845,-1.79489 0.89551,-2.65952c0.38641,-1.07431 0.70502,-1.78113 1,-2.46133c0.40695,-0.93832 0.69534,-1.72903 1,-2.54932c0.39401,-1.06091 0.72546,-1.75653 0.96399,-2.41467c0.3606,-0.995 0.42557,-1.78967 0.436,-2.78915c0.00854,-0.82016 0,-1.72153 0,-2.62152l0,-0.89999" id="svg_15" stroke-width="2" stroke="#000" fill="none"/>
  <path t="33835,33842,33857,33865,33878,33895,33895,33912,33912,33912,33928,33928,33928,33945,33945,33945,33945,33962,33962,33962,33962,33962,33962,33978,33978,33978,33978,33978,33978,33995,33995,33995,33995,34012,34012,34012,34012,34089,34089" d="m261,348c0,1.70001 0,2.70001 0,3.60001c0,0.81067 0,1.7215 0,2.61066c0,0.9895 0.00046,1.81018 0,2.47467c-0.00067,1.00134 0.00882,1.85883 -0.08533,2.80133c-0.10376,1.03879 -0.26257,1.77829 -0.45633,2.55499c-0.20547,0.82376 -0.62213,2.12598 -0.77966,2.57983c-0.32547,0.93774 -0.50781,1.41318 -0.85333,2.38919c-0.17459,0.49313 -0.6633,1.98801 -0.80402,2.48898c-0.27777,0.98883 -0.51694,1.95987 -0.64667,2.42834c-0.25024,0.90372 -0.67792,2.13748 -1.02734,2.85767c-0.33044,0.68112 -0.73866,1.28336 -1.32565,2.51431c-0.28146,0.59024 -0.575,1.5 -0.735,2.10001l-0.2,1.19467l-0.045,0.82199" id="svg_16" stroke-width="2" stroke="#000" fill="none"/>
  <path t="34682,34696,34696,34696,34696,34696,34696,34696,34696,34705,34705,34705,34713,34714,34714,34729,34730,34747,34747,34747,34747,34747,34763,34763,34764,34816,34816,34824,34837,34847,34847,34862,34862,34878,34878,34895,34895,34895,34895,34912,34912,34913,34928,34928,34928,34928,34928,34945,34945,34945,34945,34945,34962,34962,34962,34978,34978" d="m292,362c-2.66666,19.16666 -2.85364,20.43451 -3.02933,21.54532c-0.15341,0.96982 -0.29425,1.81146 -0.42902,2.53802c-0.11652,0.62805 -0.19635,1.17822 -0.54166,2.41666c-0.18112,0.64957 -0.49057,1.44199 -1,2.5c-0.29016,0.6026 -0.69662,1.38678 -0.91733,2.40268c-0.13742,0.63257 -0.4021,1.936 -0.65201,2.56665c-0.2767,0.69827 -0.62177,1.41342 -0.948,2.14801c-0.46948,1.05716 -0.7103,1.7226 -1.07199,2.60001c-0.39423,0.95627 -0.89005,1.74088 -1.32666,2.48132c-0.44141,0.74854 -1.23306,1.1821 -1.96936,1.51733c-0.73331,0.33386 -1.73013,0.31839 -2.51599,0.56934c-0.85336,0.27249 -1.75778,0.73569 -2.55582,1.01016c-0.8461,0.29099 -1.43774,0.46222 -2.64551,0.62048c-0.61618,0.08075 -1.61414,0.11459 -2.73068,0.25067c-0.83817,0.10214 -1.27792,0.18277 -2.1875,0.35419c-0.93253,0.17572 -2.31265,0.47849 -2.75748,0.57898c-0.86032,0.19437 -1.67731,0.39282 -2.46002,0.543c-1.09155,0.20941 -2.09549,0.30002 -2.979,0.3465l-0.94931,0.01068l-0.8125,0.02084" id="svg_17" stroke-width="2" stroke="#000" fill="none"/>
  <path t="36671,36697,36713,36730,36747,36764,36764,36780,36780,36797,36797,36797,36814,36814,36830,36830,36830,36847,36847,36847,36864,36864,36880,36880,36897,36897,36897,36914,36915,36930,36930,36930,36947,36947,36964,36964,36980,36980,36995,36995,36995,37012,37012,37028,37045,37045,37062,37062,37078,37078,37095,37095,37095,37112,37112,37128,37128,37128,37128,37145,37145,37162,37162,37162,37178,37178" d="m186,337c0,1.79999 -0.14491,2.7171 0.02083,3.5c0.18024,0.85138 0.87619,1.65799 0.95834,2.5c0.09508,0.97443 0.02083,1.66135 0.02083,2.76935c0,0.7515 0,1.54797 0,2.54666c0,0.90933 0,1.85065 0,2.63666c0,0.82199 0,1.88068 0,2.59018c0,0.85266 0.00006,1.85715 0,2.65717c-0.00009,1.00015 0.04335,1.83084 -0.16667,2.96664c-0.14626,0.79099 -0.27136,1.34937 -0.83333,2.5c-0.34082,0.69785 -0.88301,1.49219 -0.964,2.16934c-0.09097,0.76068 -0.036,1.76401 -0.036,2.564c0,1 0,1.80002 0,2.80002c0,0.79999 0,1.79999 0,2.59998c0,0.80002 0,1.98935 0,2.71469c0,0.98532 -0.04846,1.97473 0.036,2.69598c0.11705,0.99957 0.42137,1.80734 0.964,2.62268c0.46872,0.70428 1.16666,1.33331 1.65266,1.81934c0.69466,0.69467 1.30605,1.34775 1.86816,1.84732c0.7856,0.69815 1.47417,1.17242 2.26451,1.63867c0.52269,0.30835 1.52882,0.6944 2.40399,0.87601c1.01009,0.20959 1.81067,0.50616 2.41068,0.78665l0.9955,0.49866l0.74733,0.40002" id="svg_18" stroke-width="2" stroke="#000" fill="none"/>
 </g>
 <g display="none">
  <title>muse_image</title>
  <image xlink:href="http://farm1.static.flickr.com/48/171250362_0dbdfb9c43.jpg" id="muse" height="480" width="319" y="0" x="160.5"/>
 </g>
 <g display="none">
  <title>bbox</title>
  <rect stroke="#f00" fill="none" stroke-width="3" height="425.28" width="253.85886" y="31.68" x="194.02853" id="bbox"/>
 </g>
</svg>
