<svg width="640" height="480" xmlns="http://www.w3.org/2000/svg" xmlns:svg="http://www.w3.org/2000/svg" xmlns:xlink="http://www.w3.org/1999/xlink">
 <!-- Sketchy ANNOTATION
  ImageNet ID: n02503517_6937
  URL: http://farm3.static.flickr.com/2299/1805009685_7e64003cee.jpg
  Image Width: 364
  Image Height: 500
  BBox X: 116
  BBox Y: 197
  BBox Width: 193
  BBox Height: 264
  Exposure: 2000ms
  Synset Label: elephant
  Synset ID: n02503517
  Worker Tag: woman petting elephant
  Sanity Check: 
   Context
   Saved
   Shading
  Comment: 
   {}
  Worker ID: AXD2DZ7U6CK35
  Assignment ID: 3JC6VJ2SABJ085E7H464VZKQUQXA5Q
  HIT ID: 3TZDZ3Y0JS6LSK5PY9LQ7U14B69190
  Work Time: 116s
  Worker Score: 0.9286
 END ANNOTATION -->
 <g display="inline">
  <title>Layer 1</title>
  <path t="0,34,34,34,34,50,50,67,67,86,86,103,103,103,119,119,119,135,135,152,152,152,169,169,185,185,202,202,219,219,235,235,235,252,252,268,269,269,285,285,302,302,319,334,335,352,352,352,369,369,385,385,402,402,402,402,419,419,435,435,435,452,452,452,452,469,469,485,486,486,502,502,502,519,519,535,535,552,552,552,569,569,585,602,602,619,619,619,635,635,652,652,670,670,685,686,703,719,719,735,1134,1158,1186,1202,1238,1278,1298,1299,1314,1338,1350,1366,1437,1470,1510,1534,1546,1570,1570,1578,1614,1630,1630,1666,1682,1698,1714,1726,1742,1758,1778,1778,1794,1810,1819,1838,1854,1878,1890,1906,1906,1930,1946,1954,1969,1985,2014,2026,2042,2052,2068,2110,2154,2220,2220,2274,2334,2344,2402,2430,2462,2494,2514,2554,2598,2610,2634,2634,2658,2666,2674,2694,2718,2742,2762,2770,2830,2846,2858,2968,3047,3118,3177,3177,3187,3251,3294,3295,3338,3386,3406,3442,3483,3507,3527,3558,3559,3586,3638,3686,3698,3722,3738,3790,3810,3826,3858,3878,3910,3926,3926,3946,3970,3978,3984,4006,4030,4054,4068,4084,4106,4134,4150,4150,4166,4186,4218,4238,4246,4294,4314,4338,4418,4477,4487,4521,4536,4554,4578,4586,4602,4622,4646,4651,4682,4702,4758,4810,4870,4937,4947,4974,5006,5034,5052" d="m270,182c-4.17816,3.07834 -4.83566,3.53569 -5.71735,4.15334c-0.51172,0.35847 -1.44611,1.12451 -2.16531,1.64532c-0.7442,0.53891 -1.50156,0.84888 -2.23334,1.40268c-0.67392,0.51001 -1.36932,1.28398 -1.90485,1.81949c-0.58051,0.58049 -1.36758,1.39003 -1.97916,1.95834c-0.58911,0.54745 -1.41414,1.1144 -1.97917,1.52083c-0.87961,0.63272 -1.36993,1.33493 -1.81949,2.01601c-0.48985,0.74213 -1.09723,1.35767 -1.8495,2.13666c-0.49759,0.51526 -1.12082,1.32167 -1.40001,2.10001c-0.32272,0.89969 -0.56036,1.45905 -1.05183,2.44733c-0.39827,0.80086 -0.7,1.40001 -1.2,2.40001c-0.3,0.59999 -0.8,1.59999 -1.2,2.39999c-0.3,0.60001 -0.7692,1.61282 -1.2,2.34283c-0.46739,0.79201 -1.08897,1.27649 -1.68933,2.06783c-0.52991,0.69849 -0.5406,1.62471 -0.77734,2.58934c-0.20039,0.81654 -0.5656,1.38107 -0.748,2.39999c-0.14159,0.79091 -0.04391,1.80228 -0.10616,2.62083c-0.08757,1.15176 -0.33298,1.93153 -0.47917,2.47917c-0.21771,0.81554 -0.46222,2.04628 -0.48933,2.72533c-0.03755,0.94066 -0.01067,1.73184 -0.01067,2.58534c0,1.18933 0,2.08482 0,2.6685c0,0.83549 0,2.06816 0,2.74615c0,0.94135 0,1.72734 0,2.54935c0,1.05865 -0.00188,1.98933 0,2.82399c0.00226,1.00134 -0.00363,1.81709 0.284,2.80133c0.17888,0.61211 0.56497,1.5974 0.69067,2.40001c0.12492,0.79771 0.40047,1.78702 0.67267,2.54283c0.32242,0.89525 0.3,1.82675 0.37349,2.67799c0.08514,0.9863 0.40376,1.78441 0.68367,2.37917c0.47498,1.00926 0.92458,1.78098 1.12883,2.60001c0.1936,0.77631 0.07378,1.84306 0.20267,2.62534c0.14529,0.88187 0.72826,1.69171 0.90685,2.62201c0.17366,0.90457 -0.16348,1.84869 0.34116,2.58331c0.47794,0.69574 1.1515,1.15134 2.116,1.16934c0.89986,0.01682 1.8,0 2.70001,0c0.89999,0 1.7,0 2.59999,0c0.90001,0 1.71738,-0.08948 2.32533,-0.57468c0.6245,-0.49838 1.5947,-0.42261 2.37466,-0.85065c0.82175,-0.45096 1.44727,-0.9791 1.884,-1.77469c0.35577,-0.6481 1.0274,-1.18472 1.54935,-1.96664c0.47183,-0.70685 0.16666,-1.63333 0.16666,-2.53334c0,-0.90001 0,-1.8 0,-2.7c0,-0.90001 0,-1.8 0,-2.70001c0,-0.89999 0,-1.7 0,-2.59999c0,-0.90001 0,-1.8 0,-2.7c0,-0.90001 0,-1.8 0,-2.70001c0,-0.89999 0,-1.7 0,-2.59999c0,-0.90001 0,-1.8 0,-2.7c0,-0.90001 0,-1.8 0,-2.70001c0,-0.89999 -0.45032,-1.4449 -0.91467,-2.18533c-0.48807,-0.77824 -0.08533,-1.81467 -0.08533,-2.71466c0,-0.8 0.36316,-1.79689 -0.03601,-2.564c-0.39514,-0.75938 -0.96332,-1.23734 -0.96399,-2.136c-0.00067,-0.90001 0,-1.8 0,-2.7c0,-0.90001 0,-1.8 0,-2.70001c0,-0.89999 -0.02725,-1.70041 0,-2.59999c0.02859,-0.94414 0.68872,-1.39868 1.08401,-2.10133c0.45959,-0.81694 0.63077,-1.64584 0.92047,-2.49417c0.27835,-0.81509 0.65176,-1.39478 1.01636,-2.18367c0.35632,-0.771 1.03278,-1.22479 1.47916,-2.02083c0.4483,-0.79947 0.60303,-1.73865 1.30133,-2.21466c0.7493,-0.51079 1.35297,-1.2016 2.19867,-1.28534c0.79608,-0.07883 1.70001,0 2.60001,0c0.89999,0 1.79999,0 2.69998,0c0.90002,0 1.80002,0 2.70001,0c0.79999,0 1.70007,0.01067 2.60001,0c0.87933,-0.01042 1.40088,-0.7908 2.20132,-0.99867c0.81644,-0.21202 1.36533,-0.83466 2.19867,-1.00133c0.83334,-0.16667 1.44519,-0.73871 1.94733,-1.35716c0.57208,-0.70459 0.96478,-1.62915 1.04819,-2.34283c0.10446,-0.89394 -0.36221,-1.87971 0.02533,-2.77917c0.3078,-0.71434 0.9769,-1.22531 0.97916,-2.12083c0.00226,-0.89999 0,-1.79999 0,-2.7c0,-0.89999 0,-1.8 0,-2.7c0,-0.8 0.18375,-1.72649 -0.03601,-2.60001c-0.21704,-0.86281 -0.73108,-1.69728 -1.24799,-2.31599c-0.54883,-0.65694 -0.64511,-1.43245 -1.14133,-2.05867c-0.52698,-0.66505 -1.39105,-1.41452 -2.13867,-0.98933c-0.69165,0.39336 -0.43405,1.58362 -0.86133,2.364c-0.45038,0.82257 -0.31842,1.82492 -0.79602,2.47867c-0.51071,0.69907 -0.62885,1.33392 -0.77881,2.22118c-0.14401,0.85202 -0.8067,1.57069 -1.52069,1.87933c-0.80719,0.34894 -1.80084,0.21573 -2.67783,0.0195c-0.80704,-0.18057 -1.30133,-0.99867 -1.79065,-1.60934l-0.03152,-0.8685l-0.55383,-0.54616" id="svg_1" stroke-width="2" stroke="#000" fill="none"/>
  <path t="7701,7711,7711,7711,7711,7711,7711,7711,7711,7711,7726,7726,7726,7726,7726,7726,7726,7726,7726,7737,7737,7737,7737,7737,7737,7737,7753,7753,7753,7753,7767,7767,7767,7767,7784,7784,7784,7784,7801,7801,7801,7801,7817,7817,7817,7834,7834,7834,7834,7851,7851,7851,7851,7867,7867,7884,7901,7901" d="m255,189c4.16666,-0.66667 5.30576,-0.88484 6.59866,-1.136c1.4111,-0.27412 2.90381,-0.56627 4.44299,-0.864c1.54883,-0.29959 3.07111,-0.59424 4.53302,-0.864c2.59039,-0.478 3.65875,-0.65585 4.57333,-0.79466c0.77493,-0.11761 1.42868,-0.20329 1.97699,-0.25801c0.45721,-0.04562 0.84119,-0.07005 1.16699,-0.07799c0.54123,-0.01318 0.78683,-0.00534 1.02533,-0.00534c0.2345,0 0.46802,0 0.70352,0c0.24048,0 1.31253,0.00523 1.94849,-0.00133c1.05164,-0.01085 1.78696,-0.01843 2.86401,-0.16534c0.68631,-0.09361 1.66379,-0.34662 2.31934,-0.48067c1.00998,-0.20654 2.09955,-0.3055 2.84732,-0.33183c0.74707,-0.02632 1.83334,-0.02083 2.84283,-0.02083c0.63632,0 1.55585,0 2.45715,0c0.90002,0 1.80002,0.00224 2.70001,0c0.90451,-0.00226 1.83759,-0.01825 2.48532,-0.08533c1.039,-0.1076 1.75943,-0.26212 2.81735,-0.48933c0.64337,-0.13818 1.83032,-0.36818 2.57867,-0.42401l0.944,-0.00133l1.008,0l0.75598,0" id="svg_2" stroke-width="20" stroke="#fff" fill="none"/>
  <path t="20260,20377,20402,20418,20418,20438,20469,20485,20497,20529,20537,20538,20558,20573,20597,20625,20686,20686,20710,20754,20762,20774,20822,20914,20935,20950,20969,20994,21021,21054,21086,21086,21106,21137,21174,21226,21250,21250,21285,21309,21345" d="m257,192c0.20001,0 1.10001,0 2,0c0.79999,0 1.70001,0 2.60001,0c0.89999,0 1.80814,0.11649 2.69998,-0.0045c0.82135,-0.11142 1.46863,-0.84732 2.40002,-0.991c0.8895,-0.13721 1.71735,-0.09398 2.32532,-0.57916c0.62451,-0.49838 1.49142,-0.58733 2.05869,-1.14134c0.67371,-0.65797 1.48483,-0.96062 1.87997,-1.72c0.39917,-0.76711 -0.11276,-1.85368 0.38867,-2.51132c0.51608,-0.67686 1.25793,-1.04733 2.14734,-1.05267c0.89996,-0.0054 1.85007,-0.13168 2.60001,0.22133c0.77551,0.36504 1.3721,0.97844 2.06665,1.612c0.59903,0.54642 0.65005,1.32095 1,2.16667c0.32468,0.78462 0.8125,1.5 0.83334,2.39999l0,0.90001" id="svg_4" stroke-width="2" stroke="#000" fill="none"/>
  <path t="22950,23000,23010,23026,23036,23037,23052,23067,23067,23084,23084,23100,23100,23117,23117,23134,23134,23150,23167,23184,23184,23200,23200,23246,23310,23376,23402,23410,23422,23435,23451,23468,23468,23485,23501,23501,23501,23517,23517,23534,23558,23558,23589,23589,23617,23649,23666,23686,23686,23694,23719,23734,23750,23750,23767,23767,23784,23784,23800,23800,23817,23817,23834,23834,23834,23850,23850,23867,23867,23867,23884,23884,23900,23900,23917,23934,23934,23950,23950,23967,23984,23984,24000,24000,24017,24017,24034,24034,24050,24050,24067,24083,24121,24137,24149,24165,24165,24181,24189,24205,24217,24233,24250,24267,24267,24283,24283,24300,24317,24333,24350,24369,24389,24400,24417,24417,24433,24433,24450,24450,24467,24467,24467,24483,24483,24483,24500,24500,24517,24533,24533,24533,24550,24550,24550,24567,24583,24583,24600,24617,24617,24633,24633,24650,24667,24683,24700,24717,24745,24745,24849,24894,24910,24919,24990,25126" d="m257,259c1.79999,0 2.43784,-0.24539 3.16666,-0.83334c0.69858,-0.56354 1.39844,-0.82166 2.24402,-1.14133c0.88251,-0.33365 1.564,-0.59872 2.56799,-0.90399c0.759,-0.23077 1.69559,-0.43835 2.36865,-0.82584c0.93314,-0.5372 1.52356,-1.06349 2.47803,-1.27017c0.68341,-0.14798 1.61896,-0.59622 2.47464,-0.97266c0.77417,-0.34058 1.42694,-0.81589 2.35269,-0.99551c0.84927,-0.16479 1.74857,-0.14325 2.37265,-0.63182c0.62912,-0.49252 1.65845,-0.77963 2.45383,-0.40451c0.70535,0.33267 0.56812,1.53044 1.1315,2.04051c0.69919,0.63303 1.07123,1.27864 1.36401,2.31332c0.22189,0.78415 0.54294,1.64777 0.82666,2.22665c0.48862,0.99692 0.88272,1.72867 1.146,2.64603c0.26071,0.90845 0.54739,1.55261 0.88602,2.586c0.24289,0.74121 0.78476,1.47699 1.08133,2.36667c0.28586,0.85764 0.08533,1.79999 0.08533,2.59998c0,0.90002 -0.017,1.80942 -0.42532,2.61069c-0.39008,0.76541 -0.42197,1.63696 -0.79617,2.56799c-0.28146,0.70029 -0.96771,1.51172 -1.37851,2.19598c-0.4873,0.81177 -1.03662,1.42581 -1.5,2.14685c-0.43558,0.67776 -0.89264,1.68225 -1.19998,2.27399c-0.39072,0.75226 -0.99179,1.66354 -1.45718,2.15717c-0.70795,0.75092 -1.27109,1.24426 -1.75882,1.84866c-0.77341,0.9584 -1.00845,1.60764 -1.68402,2.51334c-0.45822,0.61432 -1.32104,1.23279 -1.63333,2.052c-0.30273,0.7941 -0.34918,1.65833 -0.74133,2.42267c-0.41705,0.81284 -0.65363,1.72919 -0.92532,2.41068c-0.38864,0.97476 -0.49161,1.7757 -0.85718,2.65268c-0.29883,0.71686 -0.96466,1.57809 -1.34283,2.09998c-0.63324,0.87387 -1.06244,1.56314 -1.24283,2.49017c-0.18292,0.94 -0.41287,1.72858 -1.25717,1.75717c-0.89948,0.03046 -1.79999,0 -2.59998,0c-0.90002,0 -1.80002,0 -2.70001,0c-0.89999,0 -1.80652,0.10693 -2.70001,-0.00134c-0.91992,-0.11148 -1.52795,-0.75674 -2.45267,-0.9415c-0.68314,-0.13651 -1.71132,-0.05716 -2.64732,-0.05716c-0.89999,0 -2.08293,0.39478 -2.61467,-0.28534c-0.56583,-0.72369 -0.08533,-1.81467 -0.08533,-2.71466c0,-0.75717 0,-1.65717 0,-2.40451c0,-0.99683 0,-1.83148 0,-2.76215c0,-0.78601 0,-1.608 0,-2.66669c0,-0.93066 0,-1.76532 0,-2.76215c0,-0.74734 0,-1.78986 0,-2.73785c0,-0.67648 0,-1.452 0,-2.5c0,-0.91998 -0.11807,-1.68961 0.02083,-2.66666c0.14337,-1.00845 0.67416,-1.6395 0.89384,-2.61465c0.19547,-0.86771 0.08533,-1.64252 0.08533,-2.53802c0,-0.86331 0,-1.82648 0,-2.74731c0,-0.89999 0,-1.80002 0,-2.70001c0,-0.89999 0,-1.69998 0,-2.60001c0,-0.89999 0.02083,-1.77914 0.64734,-2.35266l0.35133,-0.74866l0.05849,-0.84149" id="svg_5" stroke-width="2" stroke="#000" fill="none"/>
  <path t="26200,26238,26250,26269,26285,26285,26302,26302,26317,26317,26333,26333,26350,26367,26383,26400,26417,26417,26433,26450,26450,26467,26483,26500,26517,26517,26517,26533,26533,26533,26550,26567,26567,26583,26583,26600,26600,26617,26617,26633,26633,26650,26650,26667,26667,26683,26683,26700,26717,26733,26733,26750,26767,26767,26793,26805,26849,26950,27247,27286,27318,27338,27353,27377,27389,27400,27417,27437,27457,27481,27525,27553,27553,27569,27585,27593,27609,27618,27633,27650,27667,27683,27700,27700,27721,27745,27758,27767,27783,27800,27817,27833,27833,27850,27867,27867,27883,27900,27917,27933,27933,27950,27950,27967,27983,28000,28000,28017,28033,28050,28050,28067,28083,28101,28118,28133,28157,28177,28193,28193,28209,28221,28245,28269,28289,28313,28313,28329,28357,28373,28373,28397,28441,28477,28583,28621,28649,28682,28718,28726,28741,28757,28769,28783,28800,28816,28817,28832,28833,28833,28850,28866,28866,28883,28883,28900,28900,28900,28916,28933,28933,28950,28950,28966,28967,28967,28983,29000,29017,29017,29033,29033,29033,29049,29067,29067,29082,29083,29100,29100,29117,29117,29133,29133,29150,29150,29167,29189,29189,29291" d="m248,263c0,1.79999 0,2.70001 0,3.52084c0,0.96317 0,1.65381 0,2.73099c0,0.7175 0,1.75351 0,2.4975c0,1.10767 0,1.94168 0,2.85068c0,0.89999 0,1.79999 0,2.69998c0,0.80017 0,1.58536 0,2.52536c0,1.008 0,1.87015 0,2.77466c0,0.89999 0,1.70898 0,2.73334c0,0.67648 0,1.452 0,2.5c0,0.91998 0.00067,1.67999 0,2.66666c-0.00067,0.98532 0.04158,1.72839 -0.22133,2.69983c-0.21622,0.79892 -0.69046,1.62308 -0.77417,2.55283c-0.08112,0.90088 -0.0045,1.65186 -0.0045,2.64734c0,0.80002 -0.06648,1.80447 0.02083,2.57916c0.11418,1.013 0.67863,1.60675 0.89384,2.50485c0.20206,0.84323 0.08533,1.88 0.08533,2.716c0,0.90015 0,1.68533 0,2.62534c0,1.008 -0.00969,1.76404 0,2.67465c0.01042,0.97931 0.68364,1.17099 1.47917,1.52084c0.71202,0.31314 1.22531,0.9769 2.12083,0.97916c0.89999,0.00226 1.79999,0 2.7,0c0.89999,0 1.93214,0.24423 2.61598,-0.284c0.6275,-0.48471 1.384,-0.716 2.28403,-0.716c0.89999,0 1.83643,0.16815 2.59998,-0.08533c0.77219,-0.25635 1.49863,-0.88608 2.40002,-0.91467c0.89954,-0.02853 1.9538,0.32236 2.67865,-0.22134c0.64301,-0.4823 1.32135,-0.77866 2.22134,-0.77866c0.89999,0 1.69998,0 2.60001,0c0.89999,0 1.79999,0 2.69998,0c0.89999,0 1.86008,-0.10794 2.55185,0.35266c0.69501,0.46274 1.4137,0.49127 2.41217,0.65802c0.86752,0.1449 1.4046,0.84116 2.336,0.98483c0.8895,0.13721 1.83774,-0.03296 2.62131,0.22583c0.87698,0.28964 1.65063,0.71646 2.47736,0.77731c0.8989,0.06616 1.85278,-0.0105 2.68533,0.28534c0.70605,0.25092 1.75739,0.68741 2.616,0.716c0.89951,0.02997 1.69998,0 2.60001,0c0.89999,0 1.79999,0 2.69998,0c0.89999,0 1.80002,0 2.70001,0c0.89999,0 1.6774,-0.1243 2.5,-0.57468c0.78036,-0.42728 1.69998,-0.42532 2.60001,-0.42532c0.89999,0 1.80045,0.02707 2.59998,0c0.8443,-0.02859 1.35431,-0.91626 2.20001,-1c0.79608,-0.07883 1.70016,0.01682 2.60001,0c0.96451,-0.01801 1.40088,-0.79077 2.20132,-0.99866c0.81644,-0.21204 1.31577,-0.78326 1.77335,-1.60135c0.43198,-0.77231 1.00269,-1.34119 1.45065,-2.01065c0.49213,-0.73544 0.93195,-1.58633 0.97467,-2.48935c0.04251,-0.89899 0.03177,-1.72073 0.284,-2.668c0.19638,-0.73752 0.43967,-1.46219 0.66333,-2.42215c0.22711,-0.97473 0.56796,-1.6033 0.88602,-2.64319c0.20554,-0.67206 0.16666,-1.70932 0.16666,-2.41733c0,-0.98132 0,-1.93948 0,-2.91599c0,-0.83334 0,-1.66669 0,-2.49469c0,-0.88132 0,-1.83865 0,-2.57065c0,-1.09601 0,-1.96933 0,-2.93466c0,-0.66934 0,-1.83334 0,-2.62268c0,-0.72534 0,-1.71066 0,-2.69598c0,-0.72534 0,-1.71469 0,-2.51468c0,-1 0,-1.78934 0,-2.83334c0,-0.79199 0,-1.65198 0,-2.37732c0,-1.18802 0,-1.95334 0,-2.90399l0,-0.88535l0,-0.79999l-0.08533,-0.91467" id="svg_6" stroke-width="2" stroke="#000" fill="none"/>
  <path t="31547,31915,31925,31941,31950,31950,31967,31991,31991,31991,32006,32006,32018,32018,32034,32050,32070,32084,32100,32117,32117,32133,32150,32167,32186,32200,32246,32266,32311,32426,32455,32455,32487,32494,32506,32522,32533,32590,32649,33129,33129,33139,33162,33174,33190,33200,33222,33234,33234,33250,33266,33283,33300,33300,33316,33316,33333,33350,33366,33386,33400,33438,33450,33482,33506,34455,34495,34531,34539,34586" d="m261,226c1.83334,-0.16667 2.21524,-0.9391 3.10001,-1c0.89786,-0.0618 1.70609,0.07323 2.57199,-0.036c0.88336,-0.11142 1.5838,-0.41008 2.37982,-0.61134c1.02011,-0.25792 1.90637,-0.34224 2.92667,-0.35266c0.82016,-0.00838 1.74802,0.18375 2.62152,-0.036c0.86282,-0.21706 1.59698,-0.9213 2.5,-0.964c0.89899,-0.04253 1.694,-0.0956 2.39999,-0.5c0.79343,-0.45448 1.71259,-0.35022 2.59982,-0.50017c0.85202,-0.144 1.33563,-0.98183 2.20016,-0.99983c0.89984,-0.01874 1.80002,0 2.70001,0c0.79999,0 1.79691,-0.36316 2.564,0.036c0.7594,0.39514 1.36777,0.57106 2.15067,1.04933c0.80325,0.49071 1.38535,0.91467 2.28534,0.91467c0.79999,0 1.70001,0 2.60001,0c0.89999,0 1.79999,0.00066 2.69998,0c0.90002,-0.00067 1.75085,-0.30084 2.40002,-0.64734c0.84937,-0.45335 1.81296,-0.2108 2.69998,-0.36333c0.83441,-0.14348 1.46469,-0.80417 2.42535,-0.95334c0.68332,-0.10611 1.76398,-0.036 2.67465,-0.036c0.89999,0 1.85016,-0.07304 2.47467,0.42534c0.60797,0.48518 1.39526,0.608 2.05066,1.14932c0.60483,0.49956 1.14133,1.25867 1.88934,1.71068l0.08533,0.81467l0,0.89999l0.22134,0.87866" id="svg_7" stroke-width="2" stroke="#000" fill="none"/>
  <path t="35584,35813,35823,35852,35868,35883,35900,35900,35916,35933,35950,35966,35983,36000,36000,36018,36018,36033,36033,36050,36050,36050,36066,36066,36146" d="m320,266c1.2215,-0.87851 2.23215,-0.75577 2.91599,-1.284c0.6275,-0.48471 1.43405,-0.58432 2.18402,-0.93735c0.77551,-0.36505 1.51822,-0.76947 2.29999,-1.20398c0.81931,-0.45535 1.40402,-1.07364 2.03601,-1.54935c0.65991,-0.49673 1.43622,-0.84747 2.21667,-1.32532c0.68362,-0.41855 1.57227,-1.04047 2.15717,-1.40002c0.92172,-0.56662 1.711,-0.79999 2.50748,-1.09998l0.996,-0.39868l0.64502,-0.28049l0.875,-0.35419" id="svg_8" stroke-width="2" stroke="#000" fill="none"/>
  <path t="37196,37504,37531,37554,37563,37587,37602,37615,37615,37632,37633,37650,37666,37690,37706,37718,37733,37750,37766,37810,37826,37846,37854,37870,37882,37899,37915,37932,37950,37966,37966,37982,37999,38016,38016,38033,38050,38066,38066,38066,38082,38099,38115,38116,38133,38133,38150,38150,38166,38166,38166,38183,38199,38199,38215,38215,38215,38232,38233,38250,38250,38266,38266,38283,38283,38283,38299,38300,38316,38316,38332,38333,38333,38350,38350,38366,38366,38366,38366,38382,38383,38383,38383,38399,38400,38416,38416,38432,38433,38433,38449,38450,38450,38466,38483,38483,38499,38500,38500,38518,38518,38518,38533,38533,38550,38550,38550,38566,38566,38566,38583,38583,38599,38599,38600,38615,38616,38633,38649,38650,38666,38682,38785,38785,38814,38830,38838,38852,38866,38882,38900,38900,38915,38933,38934,38950,38966,38983,39000,39016,39016,39033,39050,39050,39065,39082,39083,39099,39100,39115,39116,39132,39150,39166,39166,39183,39199,39215,39233,39250,39266,39286,39286,39302,39330,39330,39354,39398,39520" d="m316,226c1.79999,0 2.70001,0 3.60001,0c0.89999,0 1.79999,0 2.60132,0c0.96533,0 1.79868,0 2.77716,0c0.82019,0 1.72153,0 2.62152,0c0.89999,0 1.83481,-0.24287 2.6955,0.0045c0.76788,0.22072 1.22516,0.98508 2.10449,0.9955c0.89993,0.01067 1.90283,-0.16553 2.54733,0.35266c0.61136,0.49153 1.24567,1.05096 1.76868,1.73134c0.46988,0.61128 0.33945,1.61694 0.784,2.416c0.44562,0.80096 0.69308,1.62404 1.2045,2.2c0.65024,0.73227 1.09546,1.5461 1.46216,2.3c0.3714,0.76361 0.74609,1.54471 1.19052,2.3045c0.54297,0.9283 1.0856,1.49809 1.35748,2.2115c0.35773,0.93869 0.77335,1.7099 1.164,2.58417c0.27728,0.62051 0.46893,1.56152 0.82584,2.30432c0.48132,1.00177 0.85736,1.56996 1.12885,2.5955c0.2052,0.77519 0.23483,1.5215 0.66666,2.5c0.3652,0.8275 0.4744,1.52092 0.50015,2.7c0.01746,0.80008 0.03961,1.41331 0.35251,2.40001c0.25769,0.81265 0.59494,1.79761 0.63666,2.60001c0.05191,0.99872 -0.05182,1.81573 0.17734,2.79999c0.19067,0.81888 0.56561,1.38107 0.74802,2.39999c0.14157,0.79092 0.08533,1.80002 0.08533,2.60001c0,1 -0.00177,1.79999 0,2.60001c0.00226,1.009 0.03455,1.91766 0.16666,2.73334c0.15894,0.98126 0.34381,1.68546 0.48068,2.41849c0.20145,1.07874 0.2959,2.08688 0.35266,2.70651c0.07837,0.85553 0.36523,2.08032 0.57468,2.73099c0.32336,1.00461 0.41489,1.81052 0.42532,2.81067c0.00845,0.81064 0,1.45715 0,2.68268c0,0.79648 0,1.54797 0,2.50748c0,0.9765 0,1.83069 0,2.80984c0,0.81067 0,1.45715 0,2.68399c0,0.81601 -0.01791,1.36349 0.00134,2.63068c0.0101,0.6647 0.15643,1.68823 0.42398,2.496c0.2149,0.6489 0.50934,1.87198 0.55383,2.68933c0.02975,0.54675 0.02084,1.81467 0.02084,2.47916c0,1.02084 0,1.82083 0,2.62085c0,0.99548 0,1.91467 0,2.89999c0,0.82132 0,1.67465 0,2.61465c0,0.98535 0.02707,1.8858 0,2.68533c-0.02859,0.8443 -0.80133,1.19934 -1.70001,1.20001c-0.89999,0.00067 -1.79999,0 -2.71066,0c-0.91064,0 -1.76398,0 -2.70398,0c-0.88535,0 -1.71976,0.19595 -2.58536,-0.05716c-0.87762,-0.25665 -1.6062,-0.82339 -2.5,-0.94418c-0.80954,-0.10941 -1.45364,-0.79941 -2.32083,-0.97781c-0.94363,-0.19412 -1.65381,-0.02084 -2.7265,-0.02084c-0.91931,0 -1.75333,0.03589 -2.73132,-0.00015c-0.77554,-0.02859 -1.66245,-0.38141 -2.36865,-0.64719c-0.88257,-0.33215 -1.922,-0.16379 -2.75269,-0.57416c-0.69058,-0.34116 -1.25552,-1.23856 -1.99982,-1.65717c-0.74164,-0.41711 -1.38934,-0.93286 -1.87485,-1.55734c-0.57993,-0.74597 -1.08716,-1.51135 -1.50449,-2.064c-0.55859,-0.73969 -0.80484,-1.70001 -1.23685,-2.29999l-0.33667,-0.90002l-0.44733,-0.79999l-0.44284,-0.79099" id="svg_9" stroke-width="2" stroke="#000" fill="none"/>
  <path t="41279,41289,41289,41289,41314,41334,41335,41358,41370,41387,41402,41402,41418,41434,41462,41486,41498,41514,41530,41530,41546,41550,41566,41590,41606,41621,41622,41633,41649,41666,41683,41699,41699,41716,41716,41733,41754,41778" d="m299,230c3.7355,10.76334 3.77954,11.36076 4.4375,12.25c0.54324,0.73418 1.51627,0.99213 2.26251,1.39734c0.76111,0.41328 1.7106,0.48616 2.59998,0.34816c0.93042,-0.14438 1.16147,-0.95068 1.75269,-1.63834c0.5665,-0.65892 1.68854,-0.90077 1.91132,-1.75716c0.22678,-0.87172 0.22485,-1.86452 -0.13065,-2.60001c-0.36475,-0.75464 -1.28949,-1.12787 -1.88602,-1.64734c-0.65363,-0.56917 -1.41595,-0.91411 -2.24731,-1.29999c-0.87204,-0.40475 -1.42465,-0.94167 -2.20001,-1.53185c-0.73447,-0.55907 -1.24063,-1.13185 -1.94666,-1.48483c-0.78299,-0.39146 -1.77664,0.06808 -2.668,-0.31999c-0.74176,-0.32295 -1.58536,-0.7115 -2.48535,-0.716l-0.87915,0.02083" id="svg_10" stroke-width="2" stroke="#000" fill="none"/>
  <path t="47396,47449,47459,47482,47534,47592,47708,47751,47775" d="m282,190c0.57468,1.60001 1.07446,2.41026 1.57468,3.02533c0.50412,0.61987 0.46133,1.53867 1.14133,2.05867l0.28265,0.71733l0.08667,0.91333" id="svg_12" stroke-width="2" stroke="#000" fill="none"/>
  <path t="49952,50189,50206,50218,50234,50234,50249,50266,50266,50282,50282,50299,50299,50316,50316,50316,50332,50332,50349,50349,50349,50366,50366,50382,50399,50399,50399,50416,50416,50416,50432,50432,50432,50432,50449,50449,50466,50466,50466,50482,50482,50482,50482,50499,50499,50499,50499,50516,50516,50516,50532,50532,50532,50549,50549" d="m266,312c-1,1 -0.64334,1.61234 -0.08401,2.28534c0.55612,0.66916 0.84839,1.36072 1.47336,2.11465c0.54507,0.65756 0.56912,1.48672 0.62134,2.436c0.04224,0.76779 0.32678,1.77286 0.69382,2.564c0.37558,0.80957 0.7955,1.60001 1.09549,2.20001c0.5,1 0.80002,1.60001 1.30002,2.60001c0.39999,0.79999 0.71338,1.39343 1.1955,2.39548c0.3573,0.74261 0.66147,1.65109 0.7045,2.57117c0.03177,0.67963 0.11746,1.54294 0.56934,2.51868c0.26193,0.56558 0.81351,1.40317 1.26401,2.31467c0.43549,0.8811 0.6655,1.46786 0.88,2.31467c0.25052,0.98907 0.24127,1.89099 0.50815,2.88568c0.17026,0.63452 0.50894,1.30524 0.87851,2.44247c0.21521,0.66226 0.39545,1.37927 0.69998,2.47452c0.29541,1.06241 0.51166,1.72107 0.76401,2.672c0.16101,0.60669 0.35431,1.80911 0.41068,2.39999c0.08136,0.85321 0.24683,1.88916 0.54617,2.78983l0.28049,0.61951l0.49417,0.99683l0.34732,0.74734" id="svg_13" stroke-width="2" stroke="#000" fill="none"/>
  <path t="51512,51756,51786,51803,51826,51846,51862,51878,51886,51899,51899,51916,51932,51949,51949,51966,51966,51982,51982,51999,51999,51999,52016,52016,52032,52032,52049,52049,52066,52066,52066,52082,52082,52082,52099,52099,52099,52116,52116,52132,52132,52149,52149,52166,52166,52182,52182,52182,52200,52200,52216,52216,52232,52232,52249,52249,52266,52266,52282,52282,52299,52299,52316,52316,52332,52349,52366,52591,52618,52642,52658,52668,52682,52699,52716,52732,52749,52749,52766,52766,52766,52782,52782,52799,52799,52816,52816,52832,52832,52832,52849,52849,52866,52866,52866,52882,52883,52899,52899,52916,52916,52932,52932,52949,52949,52966,52966,52966,52982,52982,52982,52999,52999,53016,53016,53032,53032,53049,53049,53049,53066,53066,53066,53082,53082,53099,53099,53099,53116,53116,53116,53117,53132,53132,53132,53149,53149,53166,53166,53182,53182,53182,53182,53200,53200,53216,53217,53232,53232,53232,53249,53267,53267,53282,53299,53316,53316,53332,53349,53349,53369,53394,53405,53422,53445,53446,53465,53489,53505,53526,53549,53578,53617,53638,53751,53782,53806,53818,53834,53849,53850,53867,53867,53882,53882,53899,53899,53916,53916,53932,53932,53949,53949,53966,53966,53982,53982,53999,54016,54016,54032,54032,54049,54066,54082,54082,54099,54099,54116,54132,54149,54149,54185,54217,54218,54226,54245,54269,54277,54293,54305,54329,54345,54357,54373,54389,54390,54413,54425,54441,54457,54469,54485,54498,54516,54532,54532,54548,54566,54566,54582,54582,54598,54621,54622,54637,54637,54648,54666,54681,54682,54698,54715,54731,54757,54777,55121,55162,55178,55186,55199,55216,55232,55249,55249,55266,55266,55282,55282,55282,55299,55299,55316,55316,55316,55332,55332,55349,55349,55366,55366,55366,55366,55382,55382,55382,55399,55399,55416,55416,55432,55432,55449,55449,55466,55466,55482,55499,55499,55516,55516,55516,55532,55549,55549,55566,55582,55582,55599,55616,55616,55632,55657,55657,55710,55734,55754,55769,55881,55891,55891,55906,55934,55935,55951,55952,55952,55953,55953,55968,55969,55969,55970,55982,55982,55983,55999,55999,56000,56016,56016,56032,56032,56049,56050,56050,56066,56067,56067,56082,56083,56099,56099,56116,56132,56150,56174,56174,56199,56199,56326" d="m251,315c0.87849,-1.22116 1,-1.29099 1,-0.39999c0,0.89999 0,1.79999 0,2.69998c0,0.90002 0,1.80002 0,2.70001c0,0.79999 0,1.70001 0,2.52084c0,0.96317 0.04845,1.828 -0.0045,2.73099c-0.04227,0.72079 -0.36247,1.75403 -0.57016,2.53351c-0.27792,1.04306 -0.39258,1.75635 -0.42084,2.61017c-0.03319,1.00262 0.04666,1.76993 -0.00583,2.72049c-0.0426,0.77142 -0.46484,1.71744 -0.64601,2.34567c-0.34706,1.20349 -0.33078,1.77393 -0.34816,2.64282c-0.02391,1.1951 -0.0045,1.79102 -0.0045,2.65952c0,1.06934 0,2 0,2.83466c0,1.00134 0,1.80133 0,2.80002c0,0.76532 0,1.71866 0,2.57065c0,0.80002 0,1.81601 0,2.86401c0,0.7095 0,1.56216 0,2.56534c0,0.76532 0,1.71866 0,2.57065c0,0.79868 0,1.78 0,2.69733c0,0.8125 0,1.81866 0,2.54401c0,0.98917 0,1.76849 0,2.76801c0,0.90533 0,1.84668 0,2.53732c0,1.07333 0,1.884 0,2.784c0,0.90002 -0.2225,1.91589 0.284,2.616c0.50179,0.69357 0.64296,1.43417 1.14134,2.05869c0.48518,0.60797 0.42349,1.50577 0.93182,2.32532c0.50095,0.80765 1.19342,1.18533 1.74284,2.02151c0.44241,0.67331 0.70026,1.27969 1.2,2.2785c0.40021,0.7999 0.77858,1.61121 1.2,2.37915c0.47617,0.86771 1.0546,1.51053 1.5,2.35419c0.3436,0.65079 0.53662,1.44632 1,2.33331c0.44174,0.84558 1.01926,1.48886 1.39999,2.16934c0.42166,0.7536 0.93076,1.74945 1.164,2.36401c0.37198,0.98007 0.41882,1.79993 0.436,2.79999c0.01358,0.78931 0.17728,1.82813 0.5,2.5c0.39166,0.8154 0.46298,1.72507 0.72134,2.70016c0.16486,0.62222 0.54233,1.47681 0.69464,2.48383c0.12268,0.8111 0.11017,1.64539 0.36801,2.63068c0.17691,0.67596 0.54749,1.68567 0.69067,2.47467c0.18954,1.04446 0.59616,1.70401 1.02533,2.54401c0.33588,0.65738 0.61261,1.44067 0.83334,2.5c0.14658,0.70349 0.15845,1.57816 0.45065,2.56665c0.2413,0.81628 0.60672,1.79861 0.69067,2.42133c0.12772,0.94705 0.22906,1.82529 0.46133,2.82935c0.16229,0.70163 0.32428,1.39581 0.76401,2.57867c0.27469,0.73892 0.61923,1.3587 1.09549,2.37067c0.27991,0.59476 0.58414,1.60001 0.7045,2.42084c0.168,1.14563 0.35382,1.93152 0.5,2.47916c0.21771,0.81555 0.46259,2.04172 0.48932,2.68933c0.04169,1.00989 -0.05377,1.82687 0.17734,2.81067c0.18997,0.80862 0.6691,1.49026 0.8125,2.5c0.1384,0.97446 0.02084,1.67465 0.02084,2.74283c0,0.85718 0,1.75717 0,2.55716c0,0.95718 0,1.85269 0,2.716c0,0.96317 0,1.784 0,2.68402c0,0.89999 0,1.79999 0,2.59998c0,0.90002 -0.39819,1.90259 0.03601,2.76401c0.35226,0.69888 0.96332,1.23734 0.96399,2.13602c0.00067,0.89999 -0.00226,1.79999 0,2.69998c0.00226,0.89551 0.43546,1.582 1.29999,1.60001c0.89984,0.01874 1.80017,0 2.58536,0c0.95065,0 1.71597,0 2.71466,0c0.79999,0 1.79999,0 2.60001,0c1,0 1.79999,0 2.79999,0c0.78934,0 1.83334,0 2.62534,0c0.85999,0 1.77917,0 2.77335,0c0.76532,0 1.7641,0.16531 2.60132,-0.16666c0.70242,-0.27853 1.48126,-0.78647 2.34732,-0.82886c1.0155,-0.04968 1.854,-0.00449 2.81934,-0.00449c0.83334,0 1.66669,0 2.52884,0c0.90451,0 1.82535,0 2.78851,0c0.69064,0 1.81326,0.14932 2.616,-0.22134c0.66806,-0.3085 1.50256,-0.77783 1.95267,-1.48315c0.49094,-0.76935 0.83585,-1.63647 1.37265,-2.27017c0.50278,-0.59351 0.57468,-1.42532 0.57468,-2.32532c0,-0.90002 0,-1.80002 0,-2.70001c0,-0.79999 0,-1.70001 0,-2.60001c0,-0.89999 0.09546,-1.84454 -0.284,-2.60001c-0.43558,-0.86719 -1.07266,-1.41232 -1.63199,-2.08533c-0.55612,-0.66916 -0.78738,-1.4158 -1.48401,-2.11465c-0.59903,-0.60098 -1.20001,-1.20001 -1.89999,-1.89999c-0.5,-0.5 -1.24521,-1.1889 -1.80002,-2.02133c-0.43692,-0.65552 -0.93878,-1.48499 -1.37915,-2.15784c-0.51535,-0.78741 -0.94473,-1.33475 -1.72086,-1.80618c-0.67636,-0.41083 -1.32422,-1.15491 -2.09549,-1.66199c-0.69193,-0.4549 -0.50961,-1.37436 -0.70584,-2.25134c-0.18057,-0.80704 -0.7243,-1.28281 -1.00314,-2.09683c-0.27911,-0.81482 -0.98495,-1.31516 -0.99551,-2.2045c-0.0108,-0.91068 -0.22836,-1.81848 -0.5,-2.5c-0.38858,-0.97485 -0.48096,-1.66147 -0.50134,-2.76935c-0.01382,-0.75162 -0.0257,-1.56137 -0.28265,-2.54532c-0.17654,-0.67606 -0.59698,-1.67899 -0.67999,-2.48532c-0.082,-0.79657 -0.03546,-1.80002 -0.03601,-2.60001c-0.00067,-1.00134 0.00647,-1.84296 -0.16666,-2.76666c-0.1496,-0.79819 -0.42889,-1.6394 -0.54935,-2.23468c-0.24069,-1.18961 -0.27234,-2.07767 -0.28265,-2.91333c-0.01233,-0.9986 0.05038,-1.84012 -0.00269,-2.80133c-0.0426,-0.77142 -0.47809,-1.7016 -0.71466,-2.48532c-0.29596,-0.98044 -0.28174,-1.79868 -0.284,-2.79736c-0.00171,-0.76532 0,-1.71597 0,-2.60132c0,-0.81433 0,-1.76801 0,-2.5c0,-0.73199 0.10022,-1.87082 -0.284,-2.70132c-0.33969,-0.73425 -0.698,-1.62354 -0.716,-2.63202c-0.01349,-0.75586 0,-1.6875 0,-2.65067c0,-0.69064 0.14932,-1.81326 -0.22134,-2.616c-0.3085,-0.66806 -0.77332,-1.49994 -0.77866,-2.39999c-0.00534,-0.89996 -0.10706,-1.80655 0.00134,-2.70001c0.11157,-0.91962 0.70987,-1.42746 1.59866,-1.82532c0.72366,-0.32394 1.31158,-0.76984 2.38565,-1.29599c0.72324,-0.35428 1.55511,-0.68091 1.98502,-0.85333c0.86221,-0.34579 2.08295,-0.81342 2.815,-1.06369c0.66968,-0.22894 1.6062,-0.50833 2.51416,-0.64032c0.88535,-0.12869 1.75757,-0.10114 2.77866,-0.34283c0.69897,-0.16547 1.51105,-0.59879 2.52151,-1.07401c0.59485,-0.27975 1.60092,-0.57733 2.39999,-0.7045c1.00119,-0.15933 1.80081,-0.45642 2.45715,-0.64734c0.95206,-0.27692 1.76776,-0.33063 2.59018,-0.34818c1.03079,-0.022 1.91238,0.04819 2.93115,-0.00464c0.82349,-0.04269 1.44244,-0.7056 2.42151,-0.96384c0.87527,-0.23087 1.76666,-0.03601 2.60001,-0.03601l0.97849,0l0.82019,0l0.84415,-0.05716" id="svg_14" stroke-width="2" stroke="#000" fill="none"/>
  <path t="56999,57030,57030,57030,57038,57038,57051,57051,57066,57082,57082,57099,57116,57116,57132,57132,57132,57149,57166,57166,57182,57182,57182,57182,57199,57199,57216,57216,57232,57249,57249,57249,57266,57266,57282,57299,57316,57316,57332,57349,57349,57366,57366,57382,57382,57382,57399,57415,57415,57432,57432,57432,57449,57449,57465,57465,57482,57482,57482,57499,57499,57499,57515,57515,57515,57532,57532,57532,57549,57549,57549,57565,57565,57582,57582,57599,57600,57600,57616,57616,57616,57632,57633,57633,57650,57666,57666,57698,57698,57758,57768,57800,57815,57815,57832,57832,57849,57849,57865,57865,57882,57899,57899,57915,57915,57932,57949,57965,57965,57989,57989,57999,57999,58025,58041,58065,58065,58078,58093,58109,58137,58169,58185,58213,58229,58249,58250,58265,58273,58289,58305,58305,58325,58333,58349,58365,58382,58399,58415,58415,58432,58449,58449,58449,58465,58465,58482,58499,58499,58515,58515,58532,58532,58532,58549,58565,58565,58565,58582,58599,58599,58599,58615,58615,58632,58649,58665,58665,58682,58682,58682,58699,58699,58715,58732,58749,58749,58766,58767,58789,58805,58821,58822,58837,58849,58849,58865,58865,58882,58883,58883,58899,58899,58915,58915,58916,58932,58949,58949,58965,58983,59058" d="m337,355c-0.87866,6.5925 -0.92932,7.62604 -1.05267,8.3775c-0.16959,1.03323 -0.6355,1.7533 -0.862,2.73849c-0.1731,0.75293 0.06403,1.74756 -0.25198,2.71735c-0.22516,0.69101 -0.78976,1.47049 -0.8335,2.48816c-0.03003,0.69901 -0.1412,1.68726 -0.42517,2.46783c-0.26715,0.73434 -0.52148,1.72687 -0.79617,2.53232c-0.25168,0.73801 -0.78775,1.84155 -0.97717,2.36234c-0.29495,0.81088 -0.55087,1.62561 -0.71732,2.62933c-0.13855,0.83566 -0.32663,1.83575 -0.88535,2.48535c-0.55826,0.64908 -1.21793,1.35684 -1.59866,2.03732c-0.42166,0.7536 -0.83359,1.54697 -1.164,2.328c-0.39447,0.9325 -0.96771,1.58301 -1.35068,2.40533c-0.33212,0.7131 -0.08533,1.67349 -0.08533,2.63333c0,0.76801 0,1.80716 0,2.58267c0,1.048 0,1.75299 0,2.55301c0,1.03632 -0.04114,1.9856 0.02084,2.6825c0.08771,0.98605 0.4552,1.76248 0.69516,2.57916c0.28906,0.98383 0.28174,1.79999 0.284,2.79999c0.0018,0.80002 0,1.80017 0,2.62085c0,0.66449 0,1.66449 0,2.5c0,0.88049 0,2.07782 0,2.66849c0,0.85352 0,1.88934 0,2.81067c0,0.68399 0,1.68399 0,2.5c0,0.81601 0.0383,2.04636 -0.03601,2.68933c-0.11795,1.02075 -0.53293,1.79028 -0.79733,2.81067c-0.20688,0.79843 -0.21118,1.48224 -0.60931,2.42133c-0.35193,0.83011 -0.79678,1.31387 -1.224,2.41202c-0.34781,0.89407 -0.37463,1.69763 -0.75867,2.54132c-0.36911,0.81085 -0.56424,1.62518 -0.57468,2.60382c-0.00873,0.82013 -0.12109,1.86035 0.52084,2.50067c0.64468,0.64304 1.64581,0.52078 2.47916,0.52084c0.97867,0.00009 1.7619,0.03024 2.65717,0.35266c0.75583,0.27219 1.73901,0.59497 2.50684,0.63666c0.94931,0.05154 1.836,0.01068 2.72134,0.01068c0.94,0 1.63065,0 2.70398,0c0.82135,0 1.73218,0 2.62134,0c0.98917,0 1.77017,0.05753 2.76767,-0.00015c0.73871,-0.04272 1.23691,-0.93896 2.12167,-0.99985c0.89786,-0.0618 1.70016,0.01801 2.60001,0c0.90054,-0.01801 1.61035,-0.61804 2.5,-0.91467c0.85745,-0.28589 1.40897,-0.59256 2.15717,-1.02817c0.73013,-0.42508 1.69974,-0.34686 2.34283,-0.7045c0.85312,-0.4744 1.61032,-0.9707 2.5,-1.26733c0.85764,-0.28595 1.75479,0.00299 2.36398,-0.69598c0.63849,-0.7326 1.21082,-1.32596 1.43152,-2.09384c0.24738,-0.86069 0.00449,-1.81635 0.00449,-2.61682c0,-0.85333 0,-1.79468 0,-2.84534c0,-0.66934 0,-1.43466 0,-2.42883c0,-0.91919 0,-1.90451 0,-2.72601c0,-0.88916 0,-1.87851 0,-2.6785c0,-1 0,-1.78934 0,-2.51468c0,-1.00616 0,-2.02798 0,-2.73599c0,-0.74399 0.00778,-1.93951 0,-2.91599c-0.00534,-0.6694 -0.02966,-1.45132 -0.35266,-2.42883c-0.25204,-0.76279 -0.62933,-1.76794 -0.64734,-2.60583c-0.02075,-0.96512 0,-1.81952 0,-2.79868c0,-0.79999 0,-1.60001 0,-2.59549c0,-0.74734 0,-1.76852 0,-2.60583c0,-0.96533 0,-1.79868 0,-2.77716c0,-0.71701 -0.07736,-1.68909 0.436,-2.42151c0.55377,-0.7901 1.26401,-1.30002 1.86398,-1.89999c0.70001,-0.70001 1.23599,-1.1951 1.80017,-2.02133c0.45029,-0.65942 1.05026,-1.53241 1.72519,-2.05334c0.51016,-0.39377 1.26404,-1.12976 1.79999,-1.79999c0.66403,-0.83041 1.21225,-1.1705 1.89066,-1.62402c0.86426,-0.57773 1.58401,-1.30133 2.08401,-1.80133l0.6955,-0.69998l0.53784,-0.70001l0.388,-0.87866" id="svg_15" stroke-width="2" stroke="#000" fill="none"/>
  <path t="60532,60562,60570,60584,60599,60615,60632,60632,60632,60649,60665,60665,60682,60682,60699,60699,60699,60699,60715,60715,60715,60732,60732,60749,60749,60749,60765,60765,60765,60782,60782,60782,60799,60799,60799,60815,60815,60815,60832,60832,60832,60849,60849,60849,60865,60865,60865,60882,60882,60899,60899,60899,60915,60915,60915,60932,60932,60932,60949,60949,60965,60965,60965,60982,60982,60999,60999,61015,61015,61015,61032,61032,61049,61049,61065,61065,61065,61082,61099,61099,61099,61115,61115,61132,61149,61149,61165,61185,61185,61199,61344,61455,61704,61714,61745,61777,61785,61799,61815,61832,61849,61849,61865,61882,61882,61899,61915,61915,61915,61932,61949,61949,61964,61965,61981,61982,61982,61999,61999,61999,62014,62015,62031,62032,62049,62049,62049,62064,62065,62082,62082,62082,62098,62099,62114,62115,62115,62131,62149,62149,62165,62165,62182,62199,62214,62231,62232,62249,62265,62362,62742,62766,62783,62800,62817,62833,62833,62850,62865,62885,62885,62899,62915,62915,62931,62949,62949,62969,62989,63000,63016,63032,63050,63065,63065,63082,63098,63099,63117,63117,63134,63134,63149,63165,63165,63182,63199,63199,63214,63215,63232,63249,63249,63264,63265,63265,63281,63282,63298,63314,63315,63332,63332,63349,63349,63365,63365,63382,63382,63382,63398,63399,63414,63415,63431,63432,63449,63465,63465,63481,63482,63499,63499,63514,63515,63532,63549,63549,63549,63564,63565,63582,63599,63614,63615,63637,63698,63799,63995,64019,64043,64059,64068,64082,64099,64099,64115,64132,64132,64149,64149,64165,64182,64205,64218,64218,64234,64251,64265,64282,64282,64299,64299,64315,64315,64332,64332,64349,64349,64364,64366,64382,64398,64399,64415,64431,64432,64448,64449,64465,64481,64482,64499,64515,64538,64550,64574,64590,64590,64610,64626,64642,64666,64694,65156" d="m350,272c1.564,0.61066 2.05667,1.42514 2.57468,2.02533c0.54263,0.62872 0.82932,1.42993 1.59198,1.97467c0.62711,0.44791 1.3949,0.7403 2.19736,1.39999c0.78464,0.64502 1.336,1.30002 1.94498,1.909c0.50534,0.50534 1.23996,1.22769 1.94168,1.95233c0.5032,0.51965 1.01581,1.0293 1.78,2.052c0.47025,0.62933 0.80505,1.25262 1.62201,1.93402c0.65964,0.5502 1.34583,1.05978 1.84732,1.7735c0.40015,0.56946 1.151,1.58484 1.52084,1.97916c0.57111,0.60892 1.37009,1.41092 2,2c0.6539,0.61154 1.40033,1.20001 1.92734,1.60001c0.7905,0.60001 1.74963,1.37418 2.24197,2c0.45444,0.57767 0.96603,1.40863 1.46252,2c0.51135,0.60907 1.19382,1.39124 1.72198,2.19998c0.38776,0.59375 0.95197,1.39557 1.44,2c0.48093,0.59564 1.02487,1.59802 1.20001,2.40002c0.2179,0.9978 0.5127,1.81812 0.78665,2.48532c0.40845,0.99469 0.6933,1.81665 0.89868,2.362c0.38983,1.03503 0.79623,1.93365 1.09998,2.55133c0.4939,1.00436 0.80698,1.5979 1.29984,2.60135c0.29367,0.59796 0.66394,1.38983 0.8475,2.39999c0.14426,0.79388 0.31149,1.81128 0.66333,2.60001c0.36243,0.81253 0.81912,1.58444 1.03217,2.19998c0.33905,0.97961 0.30109,1.81949 0.57867,2.80002c0.23267,0.82187 0.78613,1.79626 1.07401,2.39548c0.35684,0.74283 0.61414,1.66467 0.87115,2.73785c0.16238,0.6781 0.47238,1.4003 0.71185,2.52365c0.15222,0.71408 0.08405,1.68076 0.34283,2.46432c0.28964,0.87698 0.73593,1.79025 0.77866,2.67868c0.03842,0.79907 0.04553,1.70657 0.5,2.5c0.40439,0.70599 0.38922,1.60684 0.5,2.5c0.11151,0.89923 0.75955,1.31366 1.00134,2.19867c0.21793,0.79776 0.89337,1.27692 1.35132,2.10132c0.41235,0.74231 0.65961,1.55023 1.16818,2.20001c0.60114,0.76807 1.31226,1.26913 1.87915,1.91068c0.6391,0.72324 0.96906,1.43353 1.39999,2.10532c0.56088,0.87439 1.33704,1.55188 1.80002,2.12c0.65677,0.80585 0.97433,1.59348 1.56665,2.19736c0.60178,0.61353 1.42407,1.08508 1.948,1.93466c0.42923,0.69601 0.6076,1.50729 1.08536,2.26132c0.52161,0.82324 1.23032,1.37561 1.68533,1.94135c0.62509,0.77713 1.12155,1.53488 1.40482,2.08115c0.51923,1.00128 0.61444,1.94388 0.8765,2.94818c0.21057,0.80701 0.62958,1.51816 1.13333,2.25183c0.49503,0.72095 0.91879,1.50879 1.17917,2.24817c0.2554,0.72528 0.4003,1.86783 0.80484,2.70132c0.35324,0.72781 0.60519,1.6431 0.80002,2.31467c0.29233,1.0076 0.79654,1.79022 0.91733,2.68402c0.10941,0.80954 0.79883,1.45261 0.97781,2.29999c0.18604,0.8808 -0.17404,1.82169 0.02219,2.69867c0.18057,0.80704 0.94226,1.37509 1.60931,1.82666c0.73682,0.49878 1.41147,1.17554 2.08936,1.61749c0.73392,0.47849 1.5311,0.83368 2.39999,1.23584c0.66202,0.30643 1.50266,0.72931 2.10001,1.32135c0.60266,0.59729 1.28528,1.31506 1.89999,1.89981c0.58633,0.55774 1.62222,0.74741 2.28934,1.33618c0.69489,0.61328 1.05862,1.31439 1.58533,2c0.50214,0.65363 0.77246,1.59631 1.10934,2.36398c0.33444,0.76212 0.75247,1.52966 0.94131,2.37466c0.21298,0.95309 0.73297,1.54489 1.27017,2.47803c0.38748,0.67307 0.6759,1.58871 0.7045,2.44748c0.02612,0.78476 0,1.72519 0,2.73318c0,0.79199 0,1.65067 0,2.51398c0,1.02734 0,1.97418 0,2.67352c0,0.97916 0,1.77914 0,2.57916c0,0.99548 0,1.91467 0,2.77466c0,0.94684 0,1.836 0,2.82516c0,0.77933 0,1.77884 0,2.55283c0,0.909 0,1.70901 0,2.66852c0,0.79349 0,1.569 0,2.6095c0,0.85199 0,1.80533 0,2.57065c0,0.99417 0,1.91336 0,2.77335c0,0.94666 0,1.79999 0,2.74133c0,0.76801 0.05231,1.72879 -0.08533,2.48532c-0.18427,1.01285 -0.6012,1.72946 -0.862,2.64603c-0.25867,0.90903 -0.53171,1.57034 -0.76868,2.35397c-0.29517,0.97607 -0.1098,1.93301 -0.30484,2.87784c-0.17899,0.86707 -0.86841,1.51129 -0.97781,2.32083c-0.12079,0.8938 -0.68686,1.62259 -0.94418,2.5c-0.25345,0.8642 -0.41287,1.67142 -1.25717,1.70001c-0.89948,0.03046 -1.90817,0.25555 -2.67883,-0.22134c-0.73642,-0.45569 -1.30643,-0.77332 -2.23581,-0.77866c-0.98547,-0.00568 -1.77231,0.04523 -2.71069,-0.01068c-0.69345,-0.04132 -1.57806,-0.67523 -2.47464,-0.93216c-0.86694,-0.24844 -1.83405,0.08936 -2.5,-0.14249c-0.88568,-0.30835 -1.59946,-0.89667 -2.50452,-0.91467c-1.0166,-0.02023 -1.6955,0 -2.67432,0c-0.83102,0 -1.78918,0 -2.52118,0c-1.16666,0 -1.99731,0.04413 -2.82132,-0.22134c-0.6983,-0.22498 -1.65067,-0.71643 -2.47736,-0.77731c-0.83505,-0.06152 -1.854,-0.00134 -2.54865,-0.00134c-1.02734,0 -1.974,0 -2.82733,0c-0.94135,0 -1.70935,0 -2.6507,0c-1.008,0 -1.76398,0 -2.67465,0c-0.89999,0 -1.79999,0 -2.70001,0c-0.89999,0 -1.79999,0 -2.59998,0c-0.90002,0 -1.80002,0 -2.70001,0l-0.89999,0l-0.89999,0l-0.89868,-0.00134" id="svg_16" stroke-width="2" stroke="#000" fill="none"/>
  <path t="68018,68379,68379,68389,68418,68435,68435,68451,68451,68465,68465,68482,68482,68498,68498,68498,68515,68532,68532,68548,68548,68565,68565,68582,68582,68582,68598,68615,68615,68632,68632,68648,68648,68665,68682,68682,68698,68698,68715,68715,68732,68732,68748,68748,68765,68765,68765,68782,68782,68798,68798,68815,68815,68815,68832,68832,68848,68848,68865,68882,68882,68898,68898,68915,68915,68932,68932,68948,69014,69022" d="m359,427c0.10001,0.22134 0.76865,0.85162 1.70001,0.99551c0.81122,0.12534 1.78531,0.00449 2.51065,0.00449c0.98917,0 1.76849,0 2.76801,0c0.90533,0 1.86801,0 2.483,0c1.22101,0 2.01749,0.00177 2.76898,0c0.9595,-0.00226 1.93735,-0.16324 2.5947,-0.42532c1.0101,-0.40277 1.81839,-0.54553 2.65997,-0.86002c0.74466,-0.27826 1.71957,-0.8049 2.30402,-1.11465c0.7319,-0.38788 1.52573,-1.11847 2.37732,-1.43335c0.79709,-0.29474 1.85294,-0.33011 2.42267,-0.77731c0.7789,-0.61139 1.28619,-1.14258 2.23602,-1.36401c0.99933,-0.23297 1.6517,-0.58017 2.49597,-1.12534c0.6618,-0.42734 1.51202,-0.89999 2.17868,-1.39999c0.66666,-0.5 1.35641,-0.85062 2.33334,-1.5c0.56055,-0.37259 1.3103,-1.04254 2.00266,-1.38934c0.74353,-0.37244 1.77264,-0.48843 2.50684,-0.66333c0.93396,-0.22247 1.61862,-0.84467 2.42517,-1.43134c0.47809,-0.34775 1.24945,-0.83328 2.08899,-1.49448c0.74277,-0.58499 1.26144,-1.33405 1.94299,-1.73618c0.76813,-0.45319 1.88348,-0.59668 2.37466,-0.93201c0.86673,-0.59171 1.26343,-1.38046 1.82535,-2.18668c0.46701,-0.67004 1.20132,-1.36533 1.75717,-1.80948l0.89099,-0.3045l1.01849,-0.21933l0.112,-0.71167" id="svg_17" stroke-width="2" stroke="#000" fill="none"/>
  <path t="69758,69768,69768,69784,69816,69816,69832,69832,69832,69848,69848,69865,69865,69882,69898,69898,69915,69932,69948,69965,69982,69982,70002,70018,70058,70125,70147,70243" d="m392,420c-1.75699,8.12799 -1.96399,9.11005 -2,10.10001c-0.03271,0.89938 -0.02429,1.72278 -0.28534,2.66934c-0.20938,0.75919 -0.48895,1.55923 -0.91467,2.54398c-0.28229,0.65295 -0.83957,1.49246 -1.27914,2.16583c-0.51654,0.79129 -0.83191,1.5654 -1.23685,2.32083c-0.40524,0.75598 -0.90204,1.51035 -1.19867,2.40002c-0.28595,0.85764 -0.21185,1.83188 -0.69598,2.39999c-0.63519,0.74533 -1.22269,1.39999 -1.556,2.23334l-0.74802,0.452l-0.08548,0.81448l-0.28384,0.81616" id="svg_18" stroke-width="2" stroke="#000" fill="none"/>
  <path t="75048,75395,75443,75466,75495,75510,75518,75538,75548,75586,75614,75614,75622,75650,75682,75706,75718,75734,75748,75765,75782,75798,75815,75815,75831,75852,75865,75865,75881,75881,75881,75902,75902,75919,75919,75931,75931,75948,75948,75965,75981,75981,75981,75998,75998,76015,76015,76015,76031,76031,76031,76048,76048,76065,76065,76065,76081,76081,76081,76098,76098,76098,76115,76131,76131,76131,76148,76148,76148,76148,76165,76165,76181,76181,76198,76198,76215,76231,76231,76248,76282,76334,76334,76580,76658,76687,76999,77038,77062,77062,77070,77094,77094,77106,77138,77158,77174,77190,77214,77214,77226,77250,77270,77278,77294,77302,77318,77331,77348,77365,77381,77381,77398,77422,77422,77438,77450,77466,77481,77498,77515,77531,77548,77548,77565,77581,77581,77602,77618,77638,77654,77670" d="m250,373c-1.7,0 -2.60005,-0.00958 -3.5,0c-0.97934,0.01044 -1.69298,0.40366 -2.216,1.08401c-0.46989,0.61127 -0.57195,1.40448 -1.16266,2.13748c-0.52086,0.64633 -0.97296,1.18936 -1.68533,1.80383c-0.6093,0.52557 -0.42412,1.59979 -0.86134,2.37466c-0.40979,0.72626 -0.25229,1.75381 -0.79599,2.47867c-0.48232,0.64304 -0.69655,1.32513 -0.77884,2.22134c-0.08368,0.91144 -0.75699,1.43857 -0.979,2.39999c-0.18111,0.78427 -0.2601,1.81461 -0.52083,2.52084c-0.35822,0.97034 -0.4808,1.77859 -0.49867,2.57916c-0.02231,0.99976 -0.00133,1.79999 -0.00133,2.79868c0,0.76532 -0.0929,1.73358 0.08533,2.48532c0.23172,0.97745 0.73999,1.61633 1.21017,2.36334c0.56737,0.90137 0.63197,1.59689 0.7885,2.35397c0.21049,1.01816 0.63466,1.85016 1.01601,2.82001c0.20775,0.52835 0.47954,1.3613 0.89999,2.41202c0.28618,0.71518 0.70744,1.5585 1.09984,2.36667c0.3867,0.79645 0.75273,1.79666 0.84749,2.40448c0.13235,0.84888 0.25215,1.82303 0.48868,2.62085c0.24579,0.82907 0.66406,1.85291 0.95332,2.52798c0.32559,0.75989 0.57948,1.77454 0.77734,2.58002c0.23296,0.94833 0.44318,1.48825 0.83333,2.66666c0.19826,0.59882 0.51099,1.47083 0.71466,2.31467c0.23903,0.99033 0.18985,1.87958 0.56934,2.80133c0.27907,0.67786 0.56247,1.55884 0.8,2.39999c0.24953,0.88361 1.1169,1.50613 1.55884,2.18402c0.47845,0.73392 0.83366,1.5311 1.23582,2.39999c0.30641,0.66202 0.54539,1.59042 1.12134,2.37915c0.46753,0.64029 0.73126,1.0228 0.16667,1.6875c-0.58105,0.68408 -0.82031,1.39377 -1.46217,2.13333c-0.57861,0.66669 -0.82794,1.47711 -1.27916,2.30002c-0.42775,0.78012 -0.42534,1.69998 -0.42534,2.60001c0,0.89999 -0.02536,1.80038 0,2.59998c0.02859,0.9014 0.4604,1.7236 0.94733,2.49551c0.44312,0.70245 0.7403,1.28705 1.06334,2.09384c0.31598,0.78912 1.04117,1.25943 1.79066,1.69467c0.7187,0.41736 1.515,0.8443 2.37334,0.9053c0.9377,0.06665 1.7791,0.25281 2.52534,0.65802c0.76111,0.41327 1.69998,0.35199 2.59998,0.35266c0.89868,0.00067 1.44757,0.62781 2.22086,0.97916c0.81036,0.36819 1.80048,0.02084 2.65381,0.02084c0.94,0 1.82535,0 2.62534,0c0.90002,0 1.80002,0 2.70001,0l0.88934,0.01068l0.61066,0.48932" id="svg_19" stroke-width="2" stroke="#000" fill="none"/>
  <path t="80211,80235,80235,80235,80235,80243,80243,80243,80251,80267,80281,80281,80281,80298,80315,80315,80331,80348,80348,80381,80381,80398,80422,80422,80438,80458,80482,80482,80570,80603,80745" d="m293,421c6.15668,2.85684 7.07129,3.19943 7.91666,3.4375c0.75558,0.21277 1.74658,0.4252 2.56451,0.50534c0.85022,0.08331 1.76517,-0.02335 2.72015,0.0585c0.9758,0.08365 1.60574,0.47195 2.31467,0.71466c0.96368,0.32993 1.96802,0.284 2.83133,0.284c0.90002,0 1.81934,-0.00006 2.65268,0c0.97849,0.00009 1.68451,0.07825 2.52084,0.5c0.79062,0.39871 1.65378,0.49466 2.59381,0.5c0.98532,0.00558 1.88535,0 2.68533,0l0.90002,0l0.89999,0l0.89999,0" id="svg_20" stroke-width="2" stroke="#000" fill="none"/>
 </g>
 <g display="none">
  <title>muse_image</title>
  <image xlink:href="http://farm3.static.flickr.com/2299/1805009685_7e64003cee.jpg" id="muse" height="480" width="349" y="0" x="145.5"/>
 </g>
 <g display="none">
  <title>bbox</title>
  <rect stroke="#f00" fill="none" stroke-width="3" height="253.44" width="185.0467" y="189.12" x="256.71978" id="bbox"/>
 </g>
</svg>
