<svg width="640" height="480" xmlns="http://www.w3.org/2000/svg" xmlns:svg="http://www.w3.org/2000/svg" xmlns:xlink="http://www.w3.org/1999/xlink">
 <!-- Sketchy ANNOTATION
  ImageNet ID: n02503517_10193
  URL: http://farm1.static.flickr.com/93/263367105_5701d1ac86.jpg
  Image Width: 334
  Image Height: 500
  BBox X: 8
  BBox Y: 15
  BBox Width: 325
  BBox Height: 481
  Exposure: 2000ms
  Synset Label: elephant
  Synset ID: n02503517
  Worker Tag: Elephant
  Sanity Check: 
   Context
   Saved
   Shading
  Comment: 
   {}
  Worker ID: AIH9VLD92GHFH
  Assignment ID: 31EUONYN2V3683NNXETZ0SYUV08OVO
  HIT ID: 3WRKFXQBOB7BTR9VESYCYABH1H2YIB
  Work Time: 98s
  Worker Score: 0.9286
 END ANNOTATION -->
 <g display="inline">
  <title>Layer 1</title>
  <path t="0,183,196,196,196,214,214,237,248,249,264,280,281,281,297,297,315,315,332,332,332,348,348,368,380,380,397,397,414,430,430,447,447,464,480,480,514,531,531,550,550,564,596,597,597,630,649,649,680,680,697,746,747,796,830,830,864,882,914,947,947,996,997,1030,1030,1063,1064,1097,1114,1114,1146,1164,1164,1164,1180,1196,1214,1230,1246,1264,1280,1280,1280,1296,1330,1346,1346,1380,1381,1413,1414,1430,1463,1464,1480,1481,1513,1514,1514,1546,1547,1563,1564,1564,1580,1580,1597,1597,1614,1614,1630,1647,1647,1664,1664,1696,1697,1698,1714,1714,1730,1747,1781,1781,1782,1797,1814,1814,1830,1830,1831,1847,1847,1864,1864,1880,1897,1897,1914,1915,1930,1931,1931,1947,1964,1980,1980,1997,1997,2014,2014,2015,2030,2047,2047,2064,2064,2080,2081,2097,2097,2114,2130,2131,2147,2148,2164,2164,2180,2180,2197,2198,2221,2221,2221,2230,2247,2264,2264,2264,2280,2280,2297,2297,2297,2313,2329,2330,2346,2346,2366,2366,2366,2380,2380,2397,2397,2414,2414,2415,2430,2430,2431,2447,2464,2464,2481,2482,2482,2496,2497,2514,2514,2530,2531,2547,2547,2564,2564,2580,2597,2597,2598,2614,2614,2630,2630,2646,2647,2663,2664,2664,2680,2681,2681,2696,2697,2713,2714,2714,2729,2730,2763,2764,2779,2780,2780,2796,2813,2814,2814,2829,2830,2848,2848,2863,2864,2880,2880,2896,2897,2897,2914,2929,2931,2931,2946,2947,2963,2964,2979,2980,2996,2997,2998,3013,3029,3030,3046,3047,3047,3063,3064,3064,3080,3080,3081,3096,3097,3097,3098,3113,3114,3114,3129,3130,3131,3151,3152,3162,3163,3179,3180,3196,3197,3197,3213,3214,3229,3247,3248,3263,3264,3264,3279,3280,3280,3296,3313,3314,3329,3329,3329,3330,3346,3346,3347,3363,3363,3380,3381,3381,3396,3397,3413,3414,3415,3429,3430,3431,3431,3446,3447,3463,3464,3464,3465,3479,3480,3481,3481,3496,3497,3497,3498,3513,3514,3530,3530,3546,3547,3547,3563,3564,3579,3580,3596,3597,3597,3614,3615,3629,3630,3631,3646,3647,3663,3664,3679,3680,3696,3697,3697,3713,3714,3730,3731,3731,3746,3747,3763,3764,3764,3780,3781,3796,3797,3813,3814,3830,3831,3847,3863,3864,3880,3896,3897,3913,3914,3914,3929,3930,3931,3946,3947,3964,3965,3965,3980,3981,3996,3997,3998,4023,4024,4024,4036,4036,4048,4049,4063,4064,4080,4081,4096,4097,4113,4114,4130,4130,4131,4146,4147,4163,4164,4179,4180,4181,4196,4197,4213,4214,4229,4230,4247,4248,4248,4263,4280,4296,4297,4314,4315,4315,4329,4330,4346,4379,4380,4396,4397,4413,4414,4429,4430,4446,4463,4464,4479,4480,4497,4514,4515,4546,4547,4563,4579,4596,4597,4598,4613,4646,4663,4664,4679,4696,4697,4729,4730,4746,4747,4779,4780,4796,4813,4814,4829,4830,4846,4863,4879,4913,4914,4929,4946,4979,4980,4981,4996,4997,5013,5029,5030,5046,5063,5065,5090,5091,5105,5106,5119,5133,5133,5147,5147,5148,5162,5179,5179,5179,5196,5197,5213,5229,5230,5263,5279,5280,5296,5297,5315,5347,5347,5348,5363,5380,5381,5396,5397,5429,5430,5446,5447,5448,5463,5464,5479,5480,5496,5497,5513,5514,5529,5530,5546,5547,5563,5564,5579,5580,5597,5597,5613,5614,5629,5646,5647,5663,5679,5696,5697,5713,5714,5730,5731,5746,5763,5764,5779,5796,5797,5813,5814,5829,5846,5847,5863,5878,5879,5896,5913,5930,5946,5947,5999,6029,6031,6063,6080,6096,6096,6113,6114,6115,6128,6129,6146,6163,6164,6165,6178,6179,6196,6213,6228,6228,6246,6263,6264,6278,6317,6317,6333,6350,6351,6380,6381,6413,6413,6446,6463,6464,6529,6546,6547,6563,6579,6613,6646,6663,6664,6712,6778,6780,6813,6846,6912,6913,6946,6995,7045,7046,7099,7099,7113,7129,7129,7163,7164,7196,7229,7230,7245,7262,7279,7280,7296,7297,7328,7345,7346,7364,7396,7413,7414,7446,7447,7479,7480,7481,7494,7528,7546,7547,7561,7562,7596,7612,7613,7630,7663,7678,7678,7712,7713,7746,7763,7764,7778,7796,7813,7814,7828,7829,7845,7879,7912,7913,7928,7982,7982,7996,7997,8029,8045,8046,8079,8080,8080,8094,8113,8128,8128,8146,8163,8164,8178,8179,8213,8228,8246,8247,8263,8278,8279,8295,8313,8332,8349,8368,8368,8385,8386,8402,8419,8420,8436,8436,8437,8452,8453,8467,8481,8482,8497,8497,8512,8512,8528,8529,8546,8547,8561,8562,8595,8613,8614,8629,8629,8645,8662,8663,8695,8696,8711,8728,8729,8729,8763,8764,8778,8780,8795,8812,8813,8829,8830,8863,8863,8879,8893,8893,8907,8922,8922,8937,8938,8952,8969,8984,8998,8999,9029,9029,9044,9062,9064,9095,9113,9145,9146,9162,9163,9178,9213,9214,9229,9245,9262,9263,9279,9280,9296,9313,9314,9334,9353,9354,9370,9371,9388,9403,9404,9420,9421,9436,9437,9452,9452,9453,9468,9468,9469,9484,9485,9500,9501,9516,9516,9517,9533,9533,9550,9550,9565,9581,9581,9582,9597,9598,9614,9615,9630,9631,9647,9662,9663,9663,9679,9679,9680,9711,9712,9727,9742,9743,9744,9759,9759,9775,9775,9776,9791,9791,9807,9808,9809,9825,9826,9841,9842,9843,9858,9858,9874,9875,9891,9891,9907,9908,9924,9925,9941,9941,9942,9957,9958,9974,9975,9990,9991,9992,10008,10009,10013,10014,10014,10029,10030,10045,10046,10062,10062,10063,10078,10079,10095,10096,10111,10112,10128,10129,10145,10145,10162,10178,10179,10195,10195,10196,10212,10213,10230,10231,10247,10248,10264,10280,10281,10298,10299,10300,10316,10317,10336,10336,10356,10374,10393,10393,10438,10456,10457,10462,10478,10501,10518,10519,10548,10549,10567,10596,10613,10614,10645,10662,10684,10685,10794,10812,10830,10862,10895,10896,10897,10944,10946,10979,11012,11013,11030,11049,11067,11086,11087,11106,11107,11127,11131,11132,11162,11163,11181,11200,11201,11219,11220,11221,11240,11260,11260,11279,11280,11296,11297,11313,11330,11350,11370,11370,11389,11408,11427,11431,11431,11461,11480,11480,11498,11515,11535,11553,11554,11571,11572,11591,11609,11626,11627,11627,11645,11646,11664,11681,11699,11700,11718,11718,11737,11754,11755,11773,11773,11791,11810,11813,11814,11818,11818,11845,11879,11897,11917,11938,11939,11960,11981,12014,12014,12045,12046,12081,12101,12129,12150,12151,12171,12212,12245,12246,12311,12313,12331,12362,12428,12494,12544,12546,12579,12613,12613,12645,12646,12679,12712,12731,12732,12753,12754,12777,12807,12828,12829,12833,12862,12863,12882,12883,12904,12928,12928,12950,12971,12972,12993,13028,13029,13494,13513,13536,13537,13560,13582,13583,13612,13631,13652,13653,13675,13677,13707,13729,13729,13730,13749,13753,13757,13777,13778,13782,13802,13822,13823,13844,13845,13863,13882,13902,13902,13923,13944,13963,13964,13983,13984,14003,14023,14024,14044,14063,14064,14083,14112,14113,14133,14155,14156,14178,14179,14201,14202,14225,14244,14246,14275,14276,14296,14316,14317,14346,14411,14412,14413,14461,14463,14495,14496,14711,15011" d="m204,193c0,3.34933 0,4.33333 0,5.25067c0,0.74399 0,1.77866 0,2.54666c0,0.95984 0.0954,1.87024 -0.05716,2.55c-0.2384,1.0623 -1.12901,1.6234 -1.75751,2.06332c-0.6371,0.44594 -1.06598,1.24858 -1.23351,1.99384c-0.22444,0.99844 -0.54781,1.80283 -1.052,2.79533c-0.30176,0.59402 -0.7334,1.37323 -1.54799,2.043c-0.60677,0.4989 -1.25041,1.18126 -1.57317,2.07851c-0.24832,0.69035 -0.56635,1.68559 -0.83134,2.37416c-0.33717,0.87611 -0.66219,1.68056 -1.00867,2.44318c-0.35509,0.78156 -1.40077,0.69044 -2.17699,1.21849c-0.81088,0.55165 -0.90826,1.40913 -1.33633,2.27884c-0.4039,0.8206 -0.28827,1.67725 -0.99467,2.47733c-0.50104,0.56747 -1.79771,0.58734 -2.26399,1.38667c-0.40182,0.68881 -0.07829,1.50305 -0.168,2.52933c-0.08574,0.98091 -0.63797,1.5833 -0.916,2.45334c-0.25269,0.79073 -0.97487,1.05092 -1.74934,1.68401c-0.55408,0.45291 -0.71826,1.46425 -1.16666,2.16666c-0.37816,0.59238 -0.07944,1.78564 -0.16667,2.66667c-0.08374,0.8457 -0.78279,1.34915 -1.02083,2.02083c-0.34956,0.98636 -1.15276,1.29297 -1.73634,2.07935c-0.50653,0.68254 -0.70714,1.71002 -0.95883,2.41583c-0.33728,0.94583 -0.72125,1.74348 -1,2.36932c-0.39784,0.89323 -0.57751,1.98996 -1.13466,2.47867c-0.54568,0.47867 -1.37378,1.11139 -1.86534,1.80533c-0.50745,0.71637 -0.83502,1.44101 -1.22684,2.18784c-0.44119,0.84094 -0.35344,1.84155 -0.91849,2.4575c-0.46181,0.50342 -1.54958,0.88446 -2.086,1.54251c-0.57422,0.70441 -0.78847,1.52237 -1.0045,2.2955c-0.23959,0.85745 -0.83475,1.49759 -1.48018,2.146c-0.63919,0.64215 -0.80922,1.51468 -1.14265,2.37598c-0.36179,0.93454 -0.4113,1.63528 -0.42667,2.5947c-0.01204,0.75165 -0.02791,1.56079 -0.28267,2.54666c-0.23885,0.92429 -0.58086,1.84686 -0.65884,2.63217c-0.07825,0.78799 -0.05388,1.909 -0.05716,2.66647c-0.0045,1.03806 0.01657,1.82703 -0.56799,2.5c-0.61005,0.70233 -1.39598,1.29388 -1.43201,2.20667c-0.03366,0.85266 0.05099,1.80225 -0.05716,2.48853c-0.15347,0.97394 -0.46941,1.70425 -0.65884,2.50748c-0.23291,0.98749 -0.23207,1.84732 -0.784,2.66183c-0.42348,0.62494 -0.5,1.56351 -0.5,2.27151c0,0.98132 0,1.93948 0,2.91599c0,0.66934 0,1.83334 0,2.63333c0,0.80002 0.13429,1.83023 -0.11433,2.54285c-0.29494,0.84531 -1.3102,1.04459 -1.77133,1.96167c-0.3907,0.77701 -0.08092,1.69608 -0.1145,2.67432c-0.02858,0.83249 -0.28383,1.78918 -0.49983,2.52118c-0.216,0.73199 -0.48199,1.82745 -0.5,2.70132c-0.01988,0.96512 0,1.79868 0,2.63202c0,0.828 0,1.70932 0,2.66666c0,0.73199 0,1.828 0,2.70267c0,0.76801 0,1.80267 0,2.54666c0,1.10785 0,1.86533 0,2.73468c0,0.86331 0.12633,1.8071 -0.284,2.71732c-0.33249,0.73755 -0.68613,1.45462 -0.71468,2.39999c-0.03015,0.99823 -0.00133,1.79868 -0.00133,2.79868c0,0.80002 0,1.80002 0,2.60001c0,1 0,1.78934 0,2.51468c0,0.96448 0,1.90665 0,2.81866c0,0.91733 0,1.66132 0,2.69867c0,0.77332 0,1.73599 0,2.46799c0,0.73199 0,1.83865 0,2.8215c0,0.69934 0,1.87851 0,2.6785c0,1 0,1.79999 0,2.60001c0,1 -0.02098,1.80023 0.00133,2.79999c0.01787,0.80057 0.16049,1.60156 0.42401,2.41068c0.28543,0.87637 0.5112,1.87054 0.55383,2.66849c0.0401,0.75067 -0.11087,1.90274 0.24249,2.62119c0.39511,0.80328 1.11108,1.43439 1.593,2.15033c0.33208,0.49332 1.04248,1.58414 1.164,2.36398c0.13411,0.86053 0.00044,1.7901 0.02266,2.78534c0.01787,0.80057 0.16039,1.8255 0.43468,2.37866c0.46733,0.94247 1.38977,1.35941 1.528,2.09335c0.20886,1.10907 -0.09544,1.96655 0.20667,2.64267c0.36961,0.82721 1.2988,1.0386 2.06766,1.79431c0.5809,0.57095 0.65714,1.46152 0.787,2.44034c0.12209,0.92007 0.51492,1.75171 0.86134,2.21866c0.59488,0.80182 1.10298,1.5394 1.62933,2.26401c0.58725,0.80844 1.13312,1.38702 1.58383,2.31067c0.33543,0.68744 0.52823,1.45602 0.81749,2.48801c0.23979,0.8555 0.79872,1.62122 1.26801,2.17999c0.65678,0.78204 1.08759,1.6391 1.61333,2.21866c0.6272,0.69141 1.53674,1.22369 2.02667,1.85733c0.35985,0.46542 1.05388,1.34689 1.528,2.052c0.53404,0.79422 0.46352,1.72186 0.86833,2.63983c0.30026,0.68088 1.12254,1.08685 1.77834,1.54236c0.86589,0.60144 1.4068,1.27917 1.71333,1.99515c0.4005,0.93546 0.94928,1.58731 1.57333,1.89468c0.71074,0.35007 1.77362,1.0491 2.17166,1.58932c0.58955,0.80017 1.03105,1.52197 1.86301,2.10016c0.65569,0.45569 1.53555,1.04791 2.04266,1.71451c0.45645,0.60004 1.17587,1.10992 2.12134,1.47067c0.74271,0.28339 1.52505,0.69501 2.31467,1.12534c0.60837,0.33154 1.41295,0.89609 2,1.42532c0.61392,0.55344 1.39165,1.3728 2.01067,1.96399c0.63786,0.60919 1.34512,1.21466 2.142,1.7955c0.54015,0.39371 1.35408,0.93475 2.12599,1.383c0.68805,0.39957 1.60307,0.82581 2.34251,1.12167c0.79111,0.31653 1.64168,0.55856 2.43599,1.22101c0.69537,0.57993 1.27734,1.44907 1.96817,1.60684c0.9852,0.22498 1.84486,0.06995 2.71733,0.29349c0.71664,0.18359 1.52901,0.34705 2.48534,0.97852c0.75926,0.50134 1.02747,1.47281 1.82533,1.71732c0.87773,0.26898 1.85873,0.36203 2.496,0.944c0.49454,0.45163 1.40623,1.27887 1.90134,1.492c0.96008,0.41333 1.99628,0.43985 2.84966,0.86835c0.6366,0.31964 1.43636,1.1088 1.914,1.431c0.79677,0.53748 1.36757,0.90677 2.58301,1.46066c0.5723,0.2608 1.37018,0.60632 2.43466,0.80133c0.76482,0.14011 1.73734,0.08533 2.48883,0.08533c0.79651,0 1.79803,-0.04398 2.7045,0.03601c0.94669,0.08353 1.72754,0.33389 2.58534,0.53867c1.18387,0.28259 1.78667,0.36194 2.6685,0.40448c0.83475,0.04028 1.84787,-0.06458 2.74615,0.09283c0.9623,0.16861 1.7325,0.64102 2.31635,0.92801c0.61606,0.30283 1.97523,0.78534 2.711,0.88568c0.74397,0.10147 1.49463,0.1098 2.58066,0.11432c1.00499,0.00415 1.625,0 2.48001,0c1.00133,0 1.87608,-0.013 2.88667,0.00015c0.8002,0.01041 1.80475,0.15222 2.59998,0.42517c0.80508,0.27631 1.79877,0.54205 2.60001,0.57019c1.00073,0.03516 1.62085,0.00449 2.76666,0.00449c0.78152,0 1.57202,0 2.69067,0c0.79333,0 1.68552,0 2.40399,0c0.7905,0 1.81717,0 2.71783,0c1.02084,0 1.81018,0 2.85419,0c0.6875,0 1.7095,0 2.42798,0c0.7905,0 1.81717,0 2.71783,0c1.02084,0 1.82083,0 2.62085,0c1.00449,0 1.85715,0 2.82117,0c0.79349,0 1.569,0 2.6095,0c0.85199,0 1.80533,0 2.57065,0c0.99869,0 1.79868,0 2.79736,0c0.76532,0 1.84415,0 2.70148,0c0.78519,0 1.75949,0.13721 2.73318,-0.16666c0.72937,-0.2276 1.49463,-0.71323 2.42798,-0.79733c0.78793,-0.07098 1.82053,0.01373 2.50269,-0.05734c0.84335,-0.08789 1.8223,-0.70313 2.436,-1.12799c0.78329,-0.5423 1.60724,-0.75357 2.39999,-0.93335c1.01132,-0.22934 1.60718,-0.51358 2.60001,-1.01749c0.806,-0.40909 1.42566,-0.75241 2.19867,-1.38385c0.6015,-0.49133 1.03177,-1.12949 1.98666,-1.86932c0.54233,-0.42017 1.62323,-0.56766 2.36398,-0.672c1.11392,-0.15692 1.7569,-0.47925 2.35083,-1.29584c0.45938,-0.63159 1.04977,-1.39435 1.89984,-1.65799c0.9631,-0.29871 1.63663,-0.67892 2.54266,-1.12085c0.6911,-0.3371 1.49728,-0.51419 2.31433,-1.00015c0.77252,-0.45947 1.20831,-1.24405 1.66385,-1.89984c0.60144,-0.86591 1.31473,-1.34814 1.99515,-1.79868c0.73834,-0.48889 1.2847,-1.08533 1.78851,-1.854c0.4545,-0.69345 1.21576,-1.42154 1.87015,-2.00867c0.70038,-0.62842 1.04947,-1.34888 1.41467,-2.052c0.48593,-0.93552 1.13644,-1.50488 1.57733,-2.28665c0.39142,-0.69403 1.15466,-1.32132 1.65869,-1.82535c0.69064,-0.69064 1.51718,-1.34317 1.888,-1.97333c0.45319,-0.77011 0.50043,-1.72852 0.93332,-2.37598c0.58322,-0.87231 1.5025,-1.1373 2.1105,-1.92551c0.43887,-0.56897 0.62695,-1.54001 0.89017,-2.24716c0.37259,-1.00098 0.74573,-1.79626 1.06866,-2.53802c0.38806,-0.89136 -0.03772,-1.70276 0.35599,-2.70398c0.28827,-0.73312 1.39795,-1.06705 1.75735,-1.89468c0.34982,-0.80563 0.09015,-1.76233 0.172,-2.71732c0.08365,-0.9758 0.4762,-1.60431 0.71466,-2.31467c0.35248,-1.05002 0.284,-1.89468 0.284,-2.80533c0,-0.85333 0,-1.79333 0,-2.67868c0,-0.88535 0,-1.836 0,-2.60132c0,-0.99869 0,-1.79868 0,-2.79736c0,-0.76532 0,-1.71597 0,-2.60132c0,-0.88535 0,-1.82535 0,-2.51599c0,-1.07333 -0.11655,-1.88519 -0.57468,-2.54535c-0.50726,-0.73093 0.05637,-1.61331 -0.49731,-2.492c-0.47751,-0.75781 -1.65518,-0.92624 -1.81818,-1.50916c-0.2558,-0.91483 -0.42746,-1.94943 -0.75717,-2.62851c-0.39383,-0.8111 -0.65448,-1.78577 -0.92734,-2.48364c-0.36401,-0.93097 -0.27377,-1.86441 -0.53964,-2.58252c-0.29773,-0.80417 -1.07373,-1.41483 -1.71902,-2.07617c-0.62766,-0.64325 -0.92621,-1.43607 -1.38834,-2.26682c-0.41342,-0.74319 -1.11703,-1.20459 -1.75748,-1.89984c-0.46454,-0.5043 -0.98053,-1.52557 -1.1875,-2.33334c-0.23657,-0.92328 -0.55576,-1.64478 -0.74802,-2.69598c-0.13898,-0.75998 -0.0491,-1.60745 -0.08981,-2.62335c-0.02789,-0.69608 -0.5282,-1.50305 -0.87402,-2.44748c-0.27313,-0.74588 -0.12149,-1.72519 -0.12149,-2.41583c0,-1.00485 0,-2.02667 0,-2.73468c0,-0.74399 0,-1.935 0,-2.84949c0,-0.78519 0,-1.73584 0,-2.50116c0,-1.00317 0,-1.85583 0,-2.81985c0,-0.79349 0,-1.569 0,-2.61084c0,-0.77332 0,-1.73599 0,-2.46799c0,-1.16666 0,-1.97916 0,-2.82132c0,-0.85333 -0.06104,-1.8045 0.08533,-2.64801c0.14078,-0.81122 0.35376,-1.56772 0.91467,-2.69733c0.34131,-0.68738 0.78122,-1.4769 1.16934,-2.21869c0.4339,-0.82935 1.09354,-1.2149 1.58783,-2.09314c0.4328,-0.76898 0.89084,-1.49136 1.1575,-2.50552c0.17664,-0.67184 -0.16776,-1.96103 0.44699,-2.46332c0.64609,-0.52789 1.79205,-0.44461 2.30499,-1.21933c0.48743,-0.73618 0.15228,-1.69827 0.3905,-2.52884c0.25824,-0.90033 0.87115,-1.62082 0.93216,-2.47916c0.06665,-0.93771 0.06012,-1.95135 0.65735,-2.38934c0.73187,-0.53674 1.90762,-0.38522 2.28134,-1.29733c0.36954,-0.90192 0.07199,-1.728 0.07199,-2.65952c0,-0.80048 -0.18521,-1.67252 0.00134,-2.5925c0.17984,-0.8869 0.98065,-1.33276 0.99866,-2.20798c0.01755,-0.85315 0,-1.79333 0,-2.67868c0,-0.79999 -0.09708,-1.69519 -0.76166,-2.10983c-0.91241,-0.56924 -1.3877,-1.14804 -2.23834,-1.55682c-0.75854,-0.36453 -1.6011,-0.29062 -2.59549,-0.33783c-0.92169,-0.04376 -1.7471,-0.5397 -2.73785,-0.82886c-0.65359,-0.19077 -1.41595,-0.16132 -2.52365,-0.16666c-0.83401,-0.00403 -1.74301,0 -2.66385,0c-0.96317,0 -1.65381,0 -2.72198,0c-0.85733,0 -1.64252,0 -2.58252,0c-1.008,0 -1.90372,-0.16382 -2.564,0.44666c-0.62109,0.57425 -0.37027,1.77554 -1.17999,2.384c-0.51398,0.3862 -1.69159,0.50476 -2.22934,0.97067c-0.74857,0.64856 -1.5553,0.95178 -2.34,1.224c-0.84534,0.29324 -0.69617,1.32016 -0.89734,2.11334c-0.21872,0.8624 -1.11438,1.30701 -1.61133,1.914c-0.50037,0.61118 -0.07162,1.71887 -0.52332,2.37799c-0.57193,0.83459 -1.92206,0.66049 -2.38269,1.17999c-0.64795,0.73074 -1.18808,1.38928 -1.41064,2.25067c-0.16434,0.63605 -0.03583,1.728 -0.03601,2.65952c-0.00018,0.80048 0.08954,1.75031 -0.44266,2.45764c-0.56158,0.7464 -1.47168,1.21161 -1.55734,2.18817c-0.05756,0.65616 0,1.66669 0,2.52884c0,0.94049 0,1.78851 0,2.65182c0,0.89551 0,1.854 0,2.81934c0,0.65869 0,1.66669 0,2.52884c0,0.94049 0,1.78851 0,2.65182c0,0.89551 0,1.854 0,2.81934c0,0.65869 0,1.66669 0,2.49469c0,0.88132 0,1.83865 0,2.57065c0,1.09601 0,1.96933 0,2.93466c0,0.65869 0,1.66669 0,2.52884c0,0.94049 0,1.78851 0,2.65182c0,0.89551 0,1.854 0,2.81934c0,0.65869 0,1.66669 0,2.52884c0,0.94049 0,1.78851 0,2.65182c0,0.89551 -0.02472,1.85431 0,2.81934c0.02084,0.81329 0.46341,1.53949 1.14932,1.84802c0.80743,0.36319 0.85068,1.396 0.85068,2.30664c0,0.67868 -0.16531,1.84146 0.16666,2.67868c0.27853,0.70242 0.78622,1.48129 0.82886,2.34732c0.04425,0.89896 0.00449,1.81934 0.00449,2.67352c0,0.97916 0,1.76849 0,2.49384c0,1.07465 0,1.896 0,2.80664c0,0.85333 0,1.79333 0,2.77884c0,0.78519 0,1.72519 0,2.41583c0,1.07333 0,1.89468 0,2.80533c0,0.85333 0,1.79333 0,2.77884c0,0.78519 0.28229,1.82578 -0.16666,2.5665c-0.4678,0.77185 -0.55502,1.64249 -1.16669,2.16669c-0.64331,0.55133 -1.47287,0.74319 -1.71481,1.51849c-0.28091,0.90024 -0.95184,1.64816 -1.47269,2.16901c-0.64581,0.64581 -1.30429,1.30472 -1.82648,1.82648c-0.767,0.76636 -1.53903,1.03882 -2.21667,1.75c-0.57483,0.60327 -0.22055,1.80124 -0.87885,2.53836c-0.44095,0.49371 -1.58337,0.52161 -2.25266,1.06882c-0.66187,0.54114 -1.1792,1.19171 -1.95718,1.94366c-0.51501,0.4978 -1.35593,1.0415 -2.146,1.43451c-0.75632,0.37619 -1.5032,1.05426 -2.20132,1.39648c-0.81305,0.39856 -1.6955,0.51712 -2.63599,0.52084c-0.84802,0.00336 -1.80264,-0.01306 -2.47867,0.56799c-0.56915,0.4892 -1.19879,1.29568 -2.052,1.59866c-0.86407,0.30682 -1.42465,0.59787 -2.43335,0.78067c-0.79398,0.14389 -1.79587,0.34415 -2.564,0.62735c-0.9473,0.34924 -1.836,0.42151 -2.59317,0.42532c-0.89554,0.00452 -1.84167,0.0733 -2.48566,0.70532c-0.65295,0.64084 -1.27734,1.27383 -2.24118,1.29468c-0.69049,0.01492 -1.76007,-0.04623 -2.61615,0.00015c-0.78864,0.04272 -1.70755,0.47122 -2.41583,0.71585c-0.94376,0.32596 -1.884,0.284 -2.78851,0.284c-0.86215,0 -1.6955,0 -2.67398,0c-0.82019,0 -1.6575,0 -2.67419,0c-0.69464,0 -1.71133,0 -2.65182,0c-0.86215,0 -1.6955,0 -2.67398,0c-0.82019,0 -1.65829,0.03622 -2.67419,-0.00449c-0.69608,-0.02789 -1.71188,-0.41998 -2.44714,-0.87436c-0.73407,-0.45364 -0.75327,-1.495 -1.46951,-1.9505c-0.67422,-0.4288 -1.88098,0.00452 -2.62933,-0.45599c-0.62148,-0.38245 -0.78165,-1.40488 -1.37067,-2.19733c-0.40033,-0.5386 -1.36945,-1.01395 -2.069,-1.56549c-0.66182,-0.52179 -1.24556,-1.09433 -2.08566,-1.58783c-0.81059,-0.47617 -1.03401,-1.23883 -1.44267,-2.19736c-0.29707,-0.69678 -1.17259,-1.15414 -1.83417,-1.47565c-0.71921,-0.34952 -1.60532,-0.98474 -1.90182,-1.94168c-0.22412,-0.7233 -0.35796,-1.79446 -0.70801,-2.36398c-0.55016,-0.89505 -1.01947,-1.57733 -1.26816,-2.58536c-0.19461,-0.78885 -0.19423,-1.45865 -0.83101,-2.39548c-0.41664,-0.61295 -1.32896,-1.33133 -1.74849,-1.88367c-0.58026,-0.76395 -0.7151,-1.68491 -1.04167,-2.54169c-0.22058,-0.57874 -0.35909,-1.60321 -0.60983,-2.37915c-0.33786,-1.04553 -1.01181,-1.49686 -1.55684,-2.43335c-0.41136,-0.70685 -0.28407,-1.59329 -0.55466,-2.48849c-0.22897,-0.75751 -0.54961,-1.44232 -0.69334,-2.64484c-0.08012,-0.67038 -0.07999,-1.34662 -0.08533,-2.53333c-0.00421,-0.9375 0.05309,-1.81979 -0.16667,-2.83334c-0.14775,-0.68143 -0.47993,-1.39871 -0.71182,-2.52399c-0.16168,-0.78455 -0.12151,-1.68552 -0.12151,-2.40399c0,-0.7905 0,-2.05334 0,-2.71783c0,-1.02084 0,-1.82083 0,-2.62085c0,-1.00449 0,-1.85715 0,-2.82117c0,-0.79349 0,-1.569 0,-2.61084c0,-0.93597 0,-1.73599 0,-2.71732c0,-0.91733 0,-1.72983 0,-2.73599c0,-0.72534 -0.04736,-1.71735 0.02083,-2.51468c0.08612,-1.0069 0.45522,-1.78336 0.69518,-2.60001c0.28906,-0.98383 0.26076,-1.80026 0.28532,-2.79999c0.01967,-0.80054 0.15108,-1.60477 0.42401,-2.39999c0.27631,-0.80508 0.44771,-1.8197 0.68449,-2.60001c0.25162,-0.82916 0.95044,-1.56091 1.32217,-2.20001c0.55305,-0.95081 0.5677,-1.81204 0.78932,-2.60001c0.22937,-0.81549 0.65965,-1.79364 0.74268,-2.59998c0.08203,-0.79657 -0.02333,-1.80679 0.09315,-2.60001c0.14888,-1.01385 0.51791,-1.82635 1.10951,-2.43335c0.58459,-0.59979 1.6431,-1.11469 1.812,-1.80264c0.24248,-0.9877 -0.02332,-1.75421 0.44667,-2.72803c0.37584,-0.77875 0.5825,-1.46246 0.86133,-2.40399c0.22011,-0.74323 0.52238,-1.52826 1.196,-2.26266c0.59367,-0.64725 1.27992,-1.28903 1.532,-2.14398c0.27664,-0.93826 0.77748,-1.4462 1.37466,-2.23602c0.52875,-0.69934 0.508,-1.65857 0.944,-2.58932c0.29726,-0.63458 1.01501,-1.29056 1.78,-1.83334c0.59731,-0.42383 0.7778,-1.45786 0.93935,-2.10864c0.24826,-1.00009 0.90959,-1.66263 1.65266,-2.00986c0.68719,-0.32111 1.16693,-1.10135 1.46133,-1.8815c0.3033,-0.80371 0.50142,-1.62668 0.84399,-2.556c0.27632,-0.7496 0.79514,-1.37488 1.15866,-2.12799c0.39211,-0.81235 1.09502,-1.20572 1.80984,-1.96182c0.57213,-0.60516 0.91679,-1.40027 1.10484,-2.03818c0.29633,-1.00516 0.72626,-1.96164 1.48398,-2.39999c0.6507,-0.37643 1.03082,-0.92581 1.59866,-1.74933c0.47308,-0.68607 1.1373,-1.1951 2,-1.5c0.67484,-0.23849 1.40762,-0.66837 2.07617,-1.48151c0.49887,-0.60678 1.18127,-1.25046 2.07849,-1.57318c0.69037,-0.24832 1.82089,-0.36539 2.51202,-0.94531c0.62119,-0.52124 1.33331,-0.83334 2.16666,-0.83334c0.83334,0 1.76633,0.28622 2.60001,-0.07199c0.87036,-0.37399 1.06735,-1.37311 1.884,-1.75867c0.80508,-0.3801 1.69504,-0.6416 2.51599,-1.00269c0.77197,-0.33954 1.76801,-0.45065 2.5,-0.66666c0.73199,-0.216 1.83807,-0.48199 2.66666,-0.5c0.83316,-0.0181 1.90564,0.24658 2.63202,-0.17065c0.7933,-0.45566 1.03094,-1.37054 1.84949,-1.71951c0.97083,-0.41388 1.50613,-1.02609 2.35184,-1.10983c0.75348,-0.07462 1.92603,0.28244 2.66666,-0.16666c0.77191,-0.46805 1.11292,-1.30408 1.35867,-1.98267c0.30469,-0.84128 1.29318,-1.07892 1.97467,-1.35068c0.97443,-0.38858 1.72397,-0.74429 2.284,-1.41733c0.50763,-0.61005 0.68716,-1.56175 1.42584,-1.97284c0.72537,-0.40367 1.7981,-0.45337 2.20615,-1.31117c0.42841,-0.90065 0.4032,-1.7283 0.97067,-2.22932c0.80011,-0.70642 1.79318,-0.40172 2.57169,-1.09016c0.69196,-0.61192 0.7049,-1.6472 0.96698,-2.3045c0.40277,-1.0101 0.58356,-1.8479 1.436,-2.14934c0.93411,-0.33032 1.74554,-0.50368 2.01718,-1.34666c0.26392,-0.81903 -0.2132,-2.01189 0.40814,-2.59467c0.66739,-0.62598 1.84378,-0.4919 2.38,-1.25067c0.40558,-0.57391 0.82465,-1.35681 1.24802,-2.11867c0.44562,-0.80194 0.60168,-1.54936 1.00266,-2.28265c0.36066,-0.65958 1.11877,-1.03281 1.74933,-1.59868c0.668,-0.59946 0.35385,-1.60344 0.686,-2.48599c0.26581,-0.70622 0.44962,-1.73456 0.64868,-2.54601c0.19803,-0.80713 0.71103,-1.45792 1.10849,-2.09599c0.51901,-0.83319 1.76724,-0.89911 1.89017,-1.70534c0.11411,-0.74852 -0.01498,-1.6528 0,-2.51601c0.01801,-1.0378 0.81802,-1.4783 0.99866,-2.28532c0.18231,-0.81451 -0.078,-1.86284 0.0585,-2.54601c0.18475,-0.92471 0.88068,-1.74603 0.9415,-2.53799c0.07196,-0.93724 0.00134,-1.63068 0.00134,-2.70401c0,-0.82132 -0.24292,-1.79152 0.07199,-2.54933c0.37714,-0.90753 1.60092,-0.79256 1.91901,-1.56583c0.3548,-0.86247 0.31039,-1.77243 0.58368,-2.47017c0.36475,-0.93117 0.68887,-1.7719 1.07266,-2.5825c0.40353,-0.85229 -0.01633,-1.66861 0.37399,-2.59616c0.30429,-0.72308 1.56512,-0.60577 1.99335,-1.29333c0.465,-0.74661 0.74762,-1.67062 0.92816,-2.59616c0.16452,-0.84335 0.05716,-1.6425 0.05716,-2.69467c0,0 0,0.916 0,1.73616c0,0.83734 0,1.854 0,2.54868c0,1.01666 0.07849,1.97701 -0.16666,2.81934c-0.25082,0.86177 -0.72305,1.65794 -0.82886,2.52882c-0.09967,0.82059 -0.44394,1.62848 -1.00449,2.3045c-0.42957,0.51805 -0.69095,1.53557 -1.01068,2.38933c-0.28018,0.74815 -0.95947,1.31909 -0.98798,2.12801c-0.03384,0.96124 0.0611,1.91339 -0.22269,2.804c-0.22275,0.69902 -0.66098,1.65662 -0.77731,2.47733c-0.1196,0.84363 -1.10684,0.86554 -1.75833,1.64418c-0.49725,0.59428 -0.24301,1.67183 -0.24301,2.65717c0,0.89999 0.03955,1.65823 -0.00449,2.55266c-0.04263,0.86607 -0.60004,1.62976 -0.91019,2.54868c-0.2204,0.65294 -0.05197,1.62454 -0.08533,2.63199c-0.02859,0.86359 -0.57355,1.51759 -0.87851,2.48801c-0.20569,0.65453 -0.04501,1.66003 -0.12149,2.67867c-0.05731,0.76361 -0.55261,1.49927 -1.18533,2.17467c-0.63171,0.67432 -1.45587,1.21736 -1.72934,2.02667c-0.31021,0.91811 0.02539,1.83276 -0.25198,2.63199c-0.28168,0.8116 -0.81534,1.5768 -0.83334,2.48801c-0.01688,0.85316 0.2262,1.91704 -0.33334,2.67867c-0.39603,0.53905 -1.25583,0.82327 -1.90948,1.65266c-0.51321,0.65121 -0.95584,1.46201 -1.47183,2.146l-0.39517,0.84418l-0.74084,0.3425" id="svg_1" stroke-width="2" stroke="#000" fill="none"/>
  <path t="20478,20681,20714,20714,20714,20748,20748,20914,20930,20948,20949,20965,20965,20965,20981,20998,20998,20998,21014,21015,21031,21048,21048,21049,21064,21064,21081,21081,21081,21097,21097,21114,21114,21114,21131,21131,21131,21148,21148,21148,21165,21165,21165,21165,21180,21180,21198,21199,21199,21214,21214,21231,21231,21414,21430,21447,21448,21466,21466,21484,21484,21484,21484,21500,21500,21501,21517,21517,21517,21534,21534,21548,21548,21563,21563,21581,21581,21581,21597,21597,21614,21615,21631,21631,21648" d="m249,254c3.34933,0.964 4.33333,1 5.00534,1c0.98932,0 2.02573,-0.05157 2.79199,0c0.85126,0.0573 1.18466,0.86082 1.20267,1.83334c0.01532,0.82785 0,1.70932 0,2.66666c0,0.73199 0.04456,1.85968 -0.16666,2.83334c-0.14783,0.68143 -0.4455,1.40637 -0.71201,2.52365c-0.17087,0.71634 -0.55884,1.5625 -1.28801,2.30966c-0.48004,0.49191 -0.99231,1.02399 -1.81216,1.81183c-0.53203,0.51126 -1.34485,1.04449 -2.0265,1.31702c-0.73444,0.29361 -1.87132,0.51364 -2.64532,0.76584c-0.9225,0.3006 -1.59613,0.81625 -2.40117,1.23334c-0.76849,0.39813 -1.72081,0.66162 -2.40083,0.69632c-0.96777,0.04938 -1.79401,0.009 -2.709,0.009c-1.005,0 -1.72018,-0.01785 -2.79666,0.02084c-0.6752,0.02429 -1.7794,0.19553 -2.52084,0.47916c-0.85637,0.32761 -1.77104,0.47815 -2.51549,0.49551c-1.03574,0.02417 -1.888,0.00449 -2.83067,0.00449c-0.69067,0 -1.80267,0 -1.20134,0c1.03201,0 1.77853,0.07431 2.884,-0.00049c0.79877,-0.05405 1.68593,-0.66321 2.157,-1.05753c0.52763,-0.44165 1.34564,-1.17838 2.28534,-1.57782c0.8483,-0.3606 1.77364,-0.2952 2.55733,-0.80716c0.71037,-0.46408 0.90477,-1.17865 1.44751,-2.1525c0.42535,-0.76321 1.02252,-1.37537 1.67467,-1.88367c0.78534,-0.61209 1.08771,-1.3548 1.58882,-2.28885c0.40184,-0.74899 0.78682,-1.1976 1.26401,-2.26266c0.31393,-0.70068 0.87334,-1.62201 1.31734,-2.14398l0.60767,-0.80383l0.24033,-0.82019l0.088,-0.91599" id="svg_2" stroke-width="2" stroke="#000" fill="none"/>
  <path t="23806,23986,23986,24020,24020,24020,24021,24022,24022,24061,24061,24063,24063,24097,24097,24097,24097,24099,24099,24099,24128,24129,24130,24130,24130,24160,24161,24189,24189,24189,24191,24219,24221,24252,24253,24285" d="m204,189c3.65866,-6.69067 3.9583,-7.41383 4,-8.33333c0.04205,-0.92706 0,-1.71851 0,-2.74518c0,-0.6855 -0.03065,-1.52077 0.0045,-2.5215c0.02814,-0.80122 0.27071,-1.80528 0.51633,-2.42082c0.46031,-1.15355 0.78987,-1.93161 0.95834,-2.5c0.25903,-0.87387 0.38539,-1.78069 0.50616,-2.65784c0.11137,-0.80893 0.6162,-1.82346 1.164,-2.472c0.55272,-0.65434 0.76062,-1.6048 0.89883,-2.34399c0.19551,-1.04568 0.62787,-1.62769 0.83032,-2.548c0.20682,-0.94014 0.12001,-1.68933 0.12151,-2.78534c0.00119,-0.87067 0.35266,-1.62383 0.91467,-2.24133l0.08083,-0.7825l0.0135,-0.89099" id="svg_3" stroke-width="2" stroke="#000" fill="none"/>
  <path t="24664,24869,24869,24885,24885,24885,24903,24903,24903,24919,24919,24919,24937,24937,24953,24953,24953,24969,24969,24986,24986,24986,25003,25003,25018,25019,25019,25036,25036,25052,25052,25052,25069,25069,25069,25085,25085,25085,25102,25102,25102,25119,25119,25119,25134,25135,25135,25165,25165,25165,25196,25196,25196,25197,25198,25227,25227,25228,25228,25229,25229,25258,25258,25258,25258,25260,25260,25260,25290,25290,25292,25292,25292,25322,25322,25323,25323,25324,25324,25354,25384,25384,25413,25414,25445,25446,25477,25478,25479,25509,25510,25569,25569,25602,25636,25702,25735,25735,25803,25804,25835,25837,25837,25885,25918,25918,25920,25969,25969,25985,25985,26020,26055,26073,26104,26145,26146,26146,26148,26178,26178,26180,26180,26210,26210,26212,26243,26243,26245,26245,26246,26275,26277,26277,26307,26307,26337,26367,26367,26397,26397,26398,26427,26460,26461,26462,26463,26464,26464,26498,26500,26500,26502,26502,26533,26563,26563,26594,26594,26626,26626,26628,26630,26630,26631,26661,26661,26691,26691,26691,26693,26693,26724,26726,26726,26757,26759,26790,26790,26821,26821,26823,26823,26854,26854,26856,26856,26886,26887,26888,26888,26889,26919,26919,26950,26950,26981,26981,27011,27012,27042,27045,27045,27047,27048,27049,27079,27081,27111,27112,27113,27113,27147,27147,27149,27150,27180,27182,27182,27183,27212,27213,27214,27214,27246,27246,27248,27280,27282,27282,27323,27324,27326,27359,27359,27391,27391,27394,27394,27394,27428,27429,27463,27494,27494,27523,27523,27525,27525,27525,27559,27562,27594,27594,27596,27597,27629,27631,27631,27660,27661,27663,27691,27691,27694,27694,27721,27723,27724,27752,27754,27781,27781,27809,27810,27812,27840,27840,27879,27881,27910,27910,27939,27939,27941,27971,27971,27973,28003,28032,28032,28062,28062,28062,28064,28064,28094,28094,28097,28126,28127,28127,28127,28130,28130,28130,28159,28161,28162,28191,28191,28193,28193,28223,28223,28225,28226,28255,28284,28285,28286,28287,28287,28325" d="m205,194c0,-2.00983 0,-2.78534 0,-3.83333c0,-0.94135 0,-1.61934 0,-2.58817c0,-0.8145 0,-1.68301 0,-2.87817c0,-0.59134 -0.02539,-1.42862 0.00017,-2.55766c0.01797,-0.79395 0.2222,-1.68521 0.42517,-2.40401c0.22313,-0.79018 0.39053,-1.82938 0.59549,-2.71783c0.23997,-1.04027 0.71223,-1.60127 1.12851,-2.22083c0.65265,-0.97134 0.77255,-1.81245 1.01733,-2.8c0.15112,-0.60973 0.54723,-1.38446 0.74933,-2.40134c0.16409,-0.82564 0.21127,-1.77623 0.44566,-2.54683c0.24454,-0.80394 0.78656,-1.73595 1.2865,-2.24651c0.6199,-0.63307 1.20929,-1.5713 1.33101,-2.347c0.08859,-0.56459 0.21643,-1.76482 0.45683,-2.64766c0.15781,-0.57953 0.57332,-1.64021 0.8595,-2.358c0.3591,-0.90073 0.57585,-1.87502 0.68983,-2.67799c0.11684,-0.82314 0.41969,-1.87775 0.87599,-2.53868c0.4543,-0.65802 1.13943,-1.42226 1.50267,-2.036c0.46371,-0.78352 0.82152,-1.60976 1.272,-2.43599c0.51285,-0.94061 0.8392,-1.45242 1.364,-2.24318c0.34166,-0.51482 1.16866,-1.51816 1.58934,-2.20749c0.47464,-0.77774 0.70932,-1.6778 0.93149,-2.33417c0.2303,-0.68042 0.59393,-1.67915 1.13184,-2.46034c0.47791,-0.69403 1.2466,-1.2957 1.82651,-2.03966c0.59332,-0.76117 0.84229,-1.47565 1.08482,-2.2285c0.35323,-1.09642 0.48006,-1.93571 0.936,-2.584c0.50249,-0.71446 1.03806,-1.13467 1.64799,-1.89867c0.73259,-0.91762 1.07944,-1.73289 1.42667,-2.40401c0.41972,-0.81123 0.399,-1.85842 1.28667,-2.30267c0.6006,-0.30058 1.58051,-0.59283 2.086,-1.35683c0.4631,-0.69993 0.83531,-1.31992 1.16251,-2.05633c0.43465,-0.97826 1.27414,-1.20639 2.12849,-1.5955c0.74323,-0.3385 1.37621,-1.01077 1.7135,-1.7625c0.34235,-0.76299 0.75319,-1.53992 1.40001,-1.98567c0.88449,-0.60954 1.84433,-0.87818 2.36282,-1.47383c0.58542,-0.67254 -0.05086,-1.98514 0.45601,-2.544c0.60274,-0.66457 1.93764,-0.37369 2.38266,-0.93333c0.56717,-0.71326 0.52745,-1.62405 1.02133,-2.368c0.44693,-0.67323 0.52562,-1.66064 1.28667,-1.97067c0.95612,-0.38951 1.56352,-0.84156 1.85201,-1.532c0.38693,-0.92606 0.63493,-1.79955 1.17334,-2.368c0.74339,-0.78487 1.36594,-1.21333 1.8705,-2.09317c0.38495,-0.67126 0.82118,-1.50974 1.12183,-2.34283c0.299,-0.82852 0.76645,-1.68832 1.397,-2.04266c0.64854,-0.36446 1.62691,-0.92899 1.724,-1.80267c0.09207,-0.8285 0.15982,-1.85749 0.7045,-2.52884c0.53467,-0.659 1.09427,-1.48011 1.28082,-2.12983c0.29431,-1.02498 0.84198,-1.59853 1.53201,-1.888c0.99774,-0.41856 1.4415,-0.93426 1.48715,-1.93933c0.03162,-0.69595 0.24792,-1.77303 1.16217,-2.18067c0.75754,-0.33776 1.70303,-0.44457 1.8335,-1.26683c0.12375,-0.78001 0.39517,-1.74827 0.80118,-2.41583c0.53622,-0.88167 0.97992,-1.62755 1.36801,-2.36933c0.4339,-0.82934 1.09354,-1.21493 1.58783,-2.09317c0.4328,-0.76897 0.89084,-1.49133 1.1575,-2.5055c0.17664,-0.67185 -0.08508,-1.82342 0.30701,-2.61617c0.30322,-0.61302 1.09964,-1.22116 1.77832,-1.89983c0.51599,-0.51599 1.25116,-1.23463 1.79868,-1.79867c0.69113,-0.71198 0.96494,-1.55176 1.22665,-2.34c0.28186,-0.84886 0.90656,-1.46469 1.54401,-2.06267c0.54987,-0.5158 1.43564,-1.10123 1.90982,-1.79867c0.55252,-0.81267 0.9859,-1.58837 1.84216,-1.87867c0.82001,-0.27801 1.92368,-0.29434 2.31702,-0.883c0.5256,-0.78659 0.40833,-1.71334 1.215,-2.353c0.59592,-0.47255 1.45715,-0.55986 2.33234,-1.18983c0.6846,-0.49278 1.05798,-1.39186 1.5715,-2.04283c0.6546,-0.82981 1.43961,-1.20871 2.22131,-1.7525c0.62979,-0.43811 1.61334,-0.85559 1.97336,-1.6055c0.32828,-0.6838 0.94803,-1.10715 1.8815,-1.46133c0.80319,-0.30475 1.52722,-0.84465 2.1875,-1.33333c0.66226,-0.49017 1.5907,-0.5618 2.22198,-1.20984c0.54816,-0.56268 0.97641,-1.65812 1.64252,-2.0035c0.86615,-0.44909 1.62997,-0.37227 2.6355,-0.78667c0.81198,-0.33463 1.7294,-0.47717 2.47382,-0.4955c1.03439,-0.02547 1.81958,-0.16029 2.41602,-0.85517c0.48883,-0.56949 1.41281,-1.09948 2.10532,-1.14667c1.07153,-0.07301 1.7204,-0.50596 2.65067,-0.836c0.7973,-0.28287 1.81183,-0.16667 2.52884,-0.16667c0.94049,0 1.79761,0.07464 2.70901,-0.05717c1.01108,-0.14622 1.63522,-0.42501 2.59549,-1.1095c0.6236,-0.4445 1.06546,-1.12977 1.97849,-1.59033c0.76309,-0.38493 1.6582,-0.20934 2.67868,-0.2475c0.74869,-0.028 1.7518,-0.25914 2.34283,-0.51633c1.01678,-0.44245 1.76889,-0.91857 2.51468,-1.19384c0.83041,-0.3065 1.78983,-0.28533 2.65198,-0.28533c0.83334,0 1.81183,0 2.63202,0c0.9585,0 1.85849,0 2.60583,0c0.99417,0 1.75949,0 2.84283,0c0.91931,0 1.75266,0 2.586,0c0.86215,0 1.80264,0 2.65067,0c0.86331,0 1.88,0 2.71732,0c0.96533,0 1.79868,0 2.63202,0c0.86215,0 1.80264,0 2.65067,0c0.86331,0 1.88,0 2.71732,0c0.96533,0 1.79868,0 2.63202,0c0.86215,0 1.80264,0 2.65067,0c0.86331,0 1.88,0 2.71732,0c0.96533,0 1.6347,-0.00776 2.79868,0c0.80005,0.00533 1.61154,0.04359 2.39999,0.284c0.81418,0.24825 1.81641,0.51641 2.55835,0.716c0.97333,0.26184 1.51672,1.19791 2.11316,1.64817c0.4726,0.35678 1.31137,0.84759 2.228,1.109c0.85324,0.24334 1.86258,0.29112 2.67966,0.74283c0.75314,0.41637 1.45941,0.45142 2.41953,0.78667c0.79849,0.2788 1.58524,1.0303 1.96533,1.528c0.64529,0.84497 1.39438,1.1413 2.28867,1.18983c0.86581,0.04699 1.72852,0.4127 2.34732,0.9955c0.65475,0.61666 1.32132,1.32117 1.82535,1.81467l0.69064,0.616l0.83734,0.508" id="svg_4" stroke-width="2" stroke="#000" fill="none"/>
  <path t="29773,29985,30002,30002,30019,30036,30052,30052,30085,30085,30102,30102,30102,30118,30118,30135,30152,30152,30168,30184,30185,30202,30202,30218,30218,30234,30235,30252,30252,30268,30268,30284,30285,30302,30318,30334,30484,30485" d="m283,143c3.33865,-1.92799 4.32132,-2 5,-2c0.97849,0 2.11194,0.28256 2.83334,-0.16667c0.58768,-0.36595 1.23721,-0.79593 1.99866,-0.82266c1.16733,-0.04099 2.05899,-0.01067 2.896,-0.01067c0.93866,0 1.85068,0 2.68268,0c0.91064,0 1.76398,0 2.70398,0c0.88535,0 1.64252,0 2.54251,0c0.94415,0 1.94284,-0.00053 2.74283,0c0.99869,0.00067 1.83887,-0.16003 2.71466,0.28667c0.66843,0.34093 0.99289,1.26889 1.52133,1.85201c0.73444,0.81041 1.56894,0.61252 2.60236,0.86583c0.76715,0.18805 1.20831,0.97017 2.08298,1.21683l0.85333,0.35333" id="svg_5" stroke-width="2" stroke="#000" fill="none"/>
  <path t="30789,31152,31152,31168,31168,31184,31185,31185,31202,31218,31218,31234,31235,31235,31251,31268,31284,31284,31301,31302,31334,31334,31334,31367,31368,31401,31402,31402,31417,31418,31434,31435,31435,31435,31451,31451,31467,31468,31485,31485,31502,31503,31517,31518,31567,31568" d="m290,147c-0.83334,1 -0.3667,1.62038 0.10016,2.32133c0.44263,0.66457 1.03674,1.55122 1.72519,2.04266c0.66418,0.47412 1.54745,1.02681 2.17465,1.636c0.52835,0.5132 1.31253,1.33032 1.82535,1.81467c0.51334,0.48482 1.41238,1.12807 2.37598,1.18533c0.96362,0.05727 1.62402,0 2.63202,0c0.828,0 1.7095,0 2.6875,0c0.79648,0 1.79517,0 2.47916,0c1.16666,0 1.94818,0 2.73868,0c0.92798,0 1.81268,0.0238 2.59467,-0.5c0.72809,-0.4877 1.17087,-1.01653 1.89865,-1.73334c0.80334,-0.79126 1.36557,-1.36929 2.08917,-1.86684c0.64352,-0.44247 1.39432,-1.04979 1.65799,-1.89983c0.29865,-0.96281 0.6315,-1.58934 1.32535,-2.3045l0.58084,-0.58083l0.59732,-0.59866l0.65601,-0.69067" id="svg_6" stroke-width="2" stroke="#000" fill="none"/>
  <path t="33320,33551,33567,33568,33585,33601,33601,33618,33651,33651,33701,33701,33717,33717,33734,33767,33767,33784,33785,33834,33884,33884" d="m299,139c0,4.29201 0,5.10017 0,5.88533c0,0.94 0,1.948 0,2.81017c0,0.82533 -0.12872,1.81468 0.07199,2.47917c0.30753,1.01804 1.14371,1.37035 1.90649,1.92534c0.63831,0.46442 1.24332,1.35944 2.18817,1.73332c0.62442,0.24709 1.66669,0.16667 2.52884,0.16667l0.82535,0l0.96317,0l0.86331,0" id="svg_7" stroke-width="2" stroke="#000" fill="none"/>
  <path t="36116,36327,36327,36345,36345,36361,36378,36379,36411,36427,36445,36445,36462,36462,36477,36495,36495,36511,36528,36545,36546,36561,36561,36594,36611,36611,36644,36660,36677,36678,36694,36714,36714,36744,36778,36778,36795,36827,36828,36845,36894,36895,36911,36944,36945,37010,37060,37061,37077,37078,37113,37144,37210,37211,37244,37245,37278,37294,37310,37327,37328,37360,37394,37427,37427,37427,37471,37471,37473,37473,37519,37519,37532,37532,37532,37574,37574,37576,37576,37614,37614,37627,37627,37628,37628,37645,37646,37688,37688,37690,37690,37734,37734,37745,37745,37746,37746,37761,37761,37804,37805,37806,37806,37806,37850,37851,37892,37893,37893,37893,37893,37893,37896,37896,37897,37897,37897,37910,37911,37927,37927,37928,37944,37945,37960,37961,37961,37977,37978,37994,37995,37995,38010,38011,38011,38027,38027,38045,38045,38045,38060,38061,38077,38077,38078,38078,38095,38096,38096,38110,38111,38127,38128,38128,38129,38144,38145,38146,38146,38146,38160,38161,38161,38161,38177,38177,38178,38194,38195,38195,38211,38212,38212,38212,38227,38227,38228,38244,38245,38260,38261,38261,38277,38295,38296,38296,38310,38311,38338,38338,38351,38351,38377,38378,38394,38395,38395,38410,38411,38427,38444,38445" d="m379,36c5.14267,2.744 5.91528,2.96873 6.97849,3c0.71671,0.02108 1.6575,0 2.50552,0c0.86331,0 1.88,0 2.71732,0c0.96533,0 1.79868,0 2.77716,0c0.71701,0 1.6575,0 2.50552,0c0.86331,0 1.88,0 2.71732,0c0.96533,0 1.79868,0 2.77716,0c0.71701,0 1.6575,0 2.50552,0c0.86331,0 1.88,0 2.716,0c0.90015,0 1.68533,0 2.62534,0c1.008,0 1.76398,0 2.6955,0c0.96317,0 1.65381,0 2.72198,0c0.85733,0 1.64252,0 2.58252,0c1.008,0 1.76398,0.00064 2.6955,0c0.96317,-0.00067 1.70093,0.10052 2.59381,-0.284c0.95697,-0.41211 1.64774,-0.62767 2.53351,-0.725c0.79425,-0.08727 0.85559,-1.13689 1.63718,-1.82034c0.62671,-0.54803 1.60904,-0.23201 2.54001,-0.596c0.69788,-0.27286 1.70752,-0.27568 2.564,-0.58533c0.75131,-0.27162 1.31906,-0.9595 2.12799,-0.988c0.96121,-0.03386 1.93494,0.05626 2.81601,-0.33467c0.70209,-0.31152 1.38147,-0.88267 2.33331,-1.33334c0.65167,-0.30854 1.65466,-0.33333 2.33334,-0.33333c0.979,0 1.86703,0.00508 2.76401,-0.00017c0.91202,-0.00533 1.57904,0.08155 2.73599,-0.1665c0.82458,-0.17679 1.65814,-0.72878 2.5,-0.8125c0.8295,-0.08249 1.70181,-0.03258 2.76401,-0.24217c0.59683,-0.11777 1.55771,-0.36384 2.18399,-0.49467c1.18103,-0.24671 1.93335,-0.28333 2.888,-0.284c0.76532,-0.00053 1.76401,0 2.564,0c1.00269,0 1.87201,0 2.93335,0c0.63333,0 1.64581,0.0001 2.30417,0c1.09799,-0.00017 1.98166,-0.01661 2.67148,-0.70533c0.54938,-0.54851 1.22101,-1.12593 2.19101,-1.253c0.72684,-0.09521 1.71268,-0.04167 2.534,-0.04167c0.966,0 1.87,0 2.38199,0c1.08401,0 1.63202,0 2.68002,0c1.27533,0 2.10931,0 3.23734,0c0.672,0 1.41599,0 2.52399,0c0.79333,0 1.68552,0 2.66351,0c0.79648,0 1.79517,0 2.47916,0c1.16666,0 1.94818,0 2.73868,0c0.92798,0 1.76132,0 2.80432,0c0.729,0 1.56601,0 2.75665,0c0.59134,0 1.42834,0 2.55768,0c0.79333,0 1.68552,0 2.66351,0c0.79648,0 1.79517,0 2.47916,0c1.16666,0 1.95715,0 2.81067,0c0.59067,0 1.78799,0 2.66849,0c0.83551,0 1.84348,-0.06137 2.52084,0.04167c1.1889,0.18086 1.68018,0.54251 2.5625,0.95833c0.65076,0.3067 1.76544,0.69692 2.60553,0.83067c0.87817,0.13981 1.33252,0.14138 2.22662,0.2175c1.27295,0.10837 2.04187,0.20767 3.06366,0.47267c0.6377,0.16539 1.83978,0.58422 2.43719,0.77467c0.86609,0.2761 1.93756,0.53938 2.65186,0.65633c0.67773,0.11097 1.87732,0.48449 2.40979,0.7535c0.8587,0.43383 1.41949,0.8101 2.6402,1.12533c0.57245,0.14783 1.67175,0.13839 2.59729,0.5265c0.64789,0.2717 1.56598,0.86161 2.30536,1.122c0.72528,0.25542 1.81012,0.2904 2.60034,0.96367c0.55353,0.47164 0.80652,1.17598 1.90497,1.7955c0.47156,0.26596 1.68152,0.51819 2.453,0.76167c0.87756,0.27696 1.42218,0.89156 2.02704,1.484c0.53125,0.52033 1.49323,1.38303 2.11462,1.75433c0.58173,0.34761 1.59967,0.64033 2.52802,0.787l0.75769,0.33633l0.1145,0.9595l0.03583,0.8175" id="svg_8" stroke-width="2" stroke="#000" fill="none"/>
  <path t="40412,40576,40577,40595,40596,40610,40610,40610,40627,40628,40628,40644,40644,40644,40660,40660,40660,40676,40677,40677,40677,40693,40694,40694,40694,40710,40711,40711,40726,40727,40727,40727,40743,40744,40744,40744,40760,40760,40760,40776,40777,40777,40794,40794,40794,40810,40810,40810,40826,40828,40828,40843,40844,40844,40844,40844,40860,40860,40860,40860,40876,40877,40877,40893,40894,40894,40910,40910,40910,40910,40926,40927,40927,40943,40944,40960,40960,40960,40976,40977,40977,40977,40993,40994,40994,41010,41010,41026,41027,41043,41044,41044,41060,41061,41076,41077,41078,41093,41110,41110,41110,41126,41127,41143,41144,41160,41161,41176,41177,41210,41210,41226,41227,41243,41244,41264,41275,41275,41293,41294,41310,41311,41326,41327,41343,41344,41360,41361,41376,41377,41393,41394,41410,41411,41426,41443,41444,41460,41476,41477,41494,41510,41510,41543,41544,41560,41576,41577,41609,41610,41626,41660,41660,41694,41694,41695,41710,41710,41726,41743,41744,41759,41760,41776,41794,41809,41826,41827,41843,41859,41893,41926,41927,41959,41960,41976,41977,42026,42027,42043,42059,42093,42126,42127,42160,42176,42177,42193,42227,42227,42243,42244,42277,42293,42294,42359,42509,42543,42593,42709,42861,42861,43009,43076,43126,43159,43160,43176,43209,43210,43226,43227,43259,43276,43293,43294,43309,43310,43326,43343,43360,43360,43376,43393,43394,43409,43410,43410,43426,43427,43427,43443,43443,43459,43460,43476,43477,43493,43493,43509,43544,43545,43559,43560,43560,43576,43577,43593,43594,43610,43610,43626,43626,43643,43644,43659,43660,43660,43676,43693,43694,43709,43710,43759,43760,43776,43859,43876,43993,43993,44009,44043,44044,44093,44126,44126,44159,44176,44193,44193,44226,44226,44243,44244,44259,44276,44276,44293,44293,44309,44325,44343,44343,44344,44359,44375,44397,44410,44410,44425,44426,44443,44459,44459,44475,44476,44493,44509,44510,44526,44526,44543,44559,44561,44561,44575,44576,44593,44594,44609,44610,44610,44626,44627,44643,44644,44659,44660,44660,44676,44677,44693,44709,44710,44726,44727,44743,44759,44760,44775,44777,44777,44793,44809,44809,44825,44826,44843,44843,44859,44875,44876,44877,44893,44893,44909,44925,44943,44943,44959,44960,44975,44976,44993,44994,45009,45025,45043,45044,45059,45075,45076,45092,45095,45109,45110,45125,45126,45143,45143,45179,45179,45193,45194,45225,45226,45227,45242,45243,45259,45276,45277,45292,45309,45310,45329,45329,45343,45375,45392,45393,45394,45425,45459,45493,45494,45525,45526,45542,45559,45593,45609,45609,45626,45659,45675,45709,45710,45742,45759,45759,45792,45809,45810,45826,45827,45842,45875,45876,45892,45893,45909,45942,45959,45959,45993,45994,46009,46025,46059,46060,46092,46093,46125,46159,46160,46181,46225,46275,46276,46409,46409,46425" d="m415,119c-1.89017,2.6 -1.97226,3.4211 -2.28534,4.4c-0.26309,0.82256 -0.67709,1.62094 -1.13599,2.4c-0.36401,0.61801 -1.11331,1.4096 -1.82935,2c-0.49323,0.40668 -1.45709,1.16678 -1.935,1.8c-0.43207,0.57249 -0.90796,1.60353 -1.22501,2.21066c-0.33954,0.65018 -0.905,1.61455 -1.42532,2.42532c-0.37051,0.57735 -0.76279,1.16704 -1.36401,2.06384c-0.59747,0.89119 -0.9877,1.47333 -1.39999,2.01483c-0.77591,1.01907 -1.40134,1.66837 -1.74283,2.138c-0.68152,0.9373 -1.03415,1.78929 -1.24649,2.394c-0.22308,0.63535 -0.6178,2.03522 -0.80002,2.77867c-0.18317,0.7473 -0.36023,1.48586 -0.48917,2.55299c-0.1174,0.97168 -0.10391,1.57509 -0.12149,2.655c-0.01532,0.94147 -0.04605,1.64523 -0.44266,2.58801c-0.34961,0.83105 -0.91632,1.59866 -1.224,2.41199c-0.34671,0.91647 -0.34985,1.62553 -0.55469,2.58833c-0.17685,0.83125 -0.46143,1.73409 -0.612,2.74501c-0.10654,0.71536 -0.13873,1.4691 -0.15598,2.24399c-0.01758,0.79054 -0.0047,1.98923 -0.01517,2.78484c-0.01031,0.78378 0.00641,1.55533 -0.21686,2.98283c-0.10397,0.66486 -0.3916,1.56654 -0.612,2.655c-0.14362,0.70938 -0.15433,1.41649 -0.5,2.33334c-0.30823,0.81747 -0.85361,1.62741 -1.09866,2.23466c-0.47162,1.1687 -0.52448,1.7756 -0.55899,2.58434c-0.05157,1.20793 -0.009,1.98233 -0.009,3.03316c0,0.54367 0,1.46918 0,2.50233c0,0.72701 0,1.8175 0,2.50951c0,1.2 0.00046,1.9485 0,2.65199c-0.00067,1 0.12027,1.82251 -0.16666,2.98401c-0.17508,0.70872 -0.7001,1.66206 -0.77618,2.33867c-0.08328,0.74077 -0.05716,1.85199 -0.05716,2.64532c0,1.11734 0,1.84933 0,2.58133c0,1.11734 0,2.10133 0,2.77335c0,0.74399 0,1.85182 0,2.74283c0,0.909 0,1.65633 0,2.65182c0,0.8 0,1.79984 0,2.57918c0,0.99966 0,1.83066 0,2.78883c0,0.73199 0,1.89867 0,2.69032c0,0.84618 0,1.86301 0,2.54167c0,0.97867 -0.04092,1.88535 0.01068,2.836c0.04169,0.76784 0.36502,1.75082 0.63666,2.50684c0.32321,0.89952 0.31274,1.62759 0.36166,2.66251c0.03525,0.74582 0.25546,1.72154 0.84167,2.32266c0.73804,0.75679 1.12579,1.32111 1.43332,2.15599c0.32376,0.87895 0.68741,1.7574 0.716,2.61618c0.02612,0.78471 -0.14935,1.76335 0.16666,2.73315c0.22516,0.69104 0.80475,1.46976 0.83334,2.33334c0.02759,0.83287 0,1.81183 0,2.63199c0,0.95851 -0.13773,1.89284 0.11432,2.54868c0.38489,1.00153 1.44,1.18416 1.81369,2.06332c0.35742,0.84088 0.03049,1.81773 0.29349,2.78934c0.16647,0.61507 0.58957,1.39523 1.07401,2.39551c0.27405,0.56584 0.55685,1.52658 0.70483,2.50467c0.12018,0.79437 0.7254,1.5358 1.14899,2.07448c0.71695,0.91177 1.33273,1.43378 1.76535,2.112c0.47546,0.74539 -0.00854,1.71786 0.08548,2.69168c0.08371,0.86703 0.95712,1.30524 0.99985,2.18832c0.04025,0.83237 -0.26483,1.74615 0.11432,2.52884c0.36996,0.76373 1.48141,1.11423 1.77136,1.95718c0.28314,0.82318 0.18997,1.7569 0.689,2.37265c0.47031,0.58032 0.33621,1.6409 0.48248,2.32199c0.22705,1.05719 0.87619,1.7464 0.9415,2.53802c0.0773,0.93689 0.01593,2.06958 0.543,2.573c0.64041,0.61169 1.89496,0.24057 2.38635,0.98831c0.4819,0.73331 0.0444,1.73041 0.57199,2.5325c0.43903,0.66745 0.60776,1.42825 1.07468,2.08218c0.51703,0.72412 0.77258,1.57434 1.57465,1.95334c0.80447,0.38013 1.37134,0.97488 2.26135,0.98532c0.91058,0.01065 1.76398,0 2.70398,0c0.88535,0 1.64252,0 2.53802,0c0.86331,0 1.84906,0.03061 2.65182,-0.35266c0.89078,-0.42529 1.75076,-0.31232 2.45267,-1.09c0.50394,-0.55832 0.78525,-1.32568 1.53833,-1.91452c0.66028,-0.51627 0.87726,-1.34814 1.72534,-1.66367c0.81589,-0.30356 1.43036,-1.01862 1.97916,-1.8125c0.39124,-0.56595 0.89706,-1.12732 1.48401,-1.93466c0.52664,-0.72437 1.00198,-1.48743 1.63065,-2.26132c0.55515,-0.68338 1.189,-1.27603 1.77069,-1.85602c0.7662,-0.76395 1.22128,-1.35355 2.09299,-1.87183c0.69095,-0.41083 1.24911,-1.09076 2.08417,-1.54733c0.67761,-0.37048 1.6524,-0.81528 2.12317,-1.34818c0.56873,-0.64377 0.95779,-1.52347 1.5715,-2.04282c0.82669,-0.69958 1.65143,-0.99982 2.22131,-1.62582c0.56775,-0.62366 0.9502,-1.57675 1.54236,-2.15784c0.72311,-0.70959 1.55392,-0.95532 2.3125,-1.6875c0.4552,-0.43936 0.6528,-1.46481 1.16266,-2.18668c0.4903,-0.69412 1.5961,-0.36221 2.504,-0.81332c0.71628,-0.3559 1.28967,-1.17917 1.5,-1.83334c0.29309,-0.91153 0.62033,-1.52254 1.02133,-2.38933c0.31873,-0.689 1.40863,-0.24336 2.332,-0.632c0.72305,-0.30432 0.6062,-1.56445 1.29333,-1.99333c0.74545,-0.46527 1.64807,-0.68552 2.29199,-1.37466c0.5864,-0.62759 1.23297,-1.20206 1.69733,-1.79601c0.64563,-0.82582 1.38544,-1.26103 2.19736,-1.81467c0.6644,-0.45305 1.57663,-0.72246 2.0455,-1.44284c0.41708,-0.64081 0.64087,-1.74995 1.30649,-2.11049c0.8761,-0.47453 1.67386,-0.75154 1.98132,-1.61334c0.23718,-0.66486 0.67197,-1.3638 1.64801,-1.77199c0.90778,-0.37965 1.48257,-0.78802 2.28534,-1.283c0.6871,-0.42366 1.14307,-1.24062 1.46399,-1.953c0.41196,-0.91444 0.88498,-1.67574 1.62134,-1.85066c0.93854,-0.22296 1.64102,-0.62997 2.45065,-1.03601c0.88303,-0.44286 1.28928,-1.04472 2.19736,-1.60533c0.70816,-0.43718 1.55444,-0.80138 2.33331,-1.33333c0.64099,-0.43779 1.40662,-0.83305 1.948,-1.48399c0.53589,-0.64433 1.03027,-1.69572 1.55734,-2.10535c0.79691,-0.61935 1.57031,-0.82596 2.32266,-1.0535c1.02585,-0.31027 1.91611,-0.4883 2.66251,-1.067c0.57666,-0.44711 1.31006,-1.17776 2.14282,-1.64349c0.57974,-0.32422 1.60693,-0.51555 2.36401,-0.672c0.96484,-0.19939 1.8407,-0.79242 2.59317,-1.02734c0.90152,-0.28145 1.62354,-0.51007 2.48566,-0.89915c0.90051,-0.4064 1.18872,-1.14882 1.92383,-1.8815c0.59439,-0.59242 1.3689,-0.82101 2.3125,-1.16667c0.84613,-0.30995 1.40652,-0.88634 2.00485,-1.48399c0.69104,-0.69028 1.30389,-1.40016 1.88,-1.86934c0.78223,-0.63705 1.828,-0.75993 2.4613,-1.09334c0.72461,-0.3815 1.35419,-1.25119 1.87018,-1.84349c0.62384,-0.71611 1.18054,-1.24327 1.87384,-1.91118c0.54297,-0.52307 1.40985,-1.11929 1.90985,-1.77783c0.52155,-0.68695 1.30591,-0.99785 2.16901,-1.37799c0.66797,-0.2942 1.30328,-1.15121 1.87262,-1.66367c0.64813,-0.58336 0.98523,-1.39128 1.43103,-2.2175c0.38312,-0.71013 1.31433,-0.58797 2.16284,-1.04834c0.79968,-0.4339 1.12927,-1.40947 1.64246,-2.06067c0.65369,-0.82941 1.43378,-0.93896 2.07355,-1.854c0.41766,-0.59738 0.59918,-1.63759 0.87384,-2.20316c0.48602,-1.00081 0.76398,-1.63129 1.46216,-2.5955c0.44916,-0.62029 1.08795,-1.08777 1.59045,-1.9785c0.43353,-0.76854 0.89087,-1.49132 1.15753,-2.50549c0.17664,-0.67186 0.03912,-1.76009 0.08551,-2.61618c0.04272,-0.7886 0.47119,-1.70755 0.71582,-2.41583c0.32593,-0.94377 0.16534,-1.84799 0.61731,-2.65067c0.41089,-0.72981 1.18341,-1.06865 1.55237,-2.07616c0.33191,-0.90643 0.11432,-1.92384 0.11432,-2.5825c0,-1.008 -0.37976,-1.97501 0.05719,-2.8175c0.38824,-0.74864 0.93237,-1.37779 0.94281,-2.19049c0.01105,-0.86209 0.24109,-1.63908 0.716,-2.336c0.50189,-0.7365 0.284,-1.80917 0.284,-2.62933c0,-0.83734 -0.00909,-1.68538 0,-2.54868c0.01068,-1.01683 0.49872,-1.68607 1.14935,-2.28867c0.672,-0.62238 0.82977,-1.36342 0.85065,-2.47867c0.01654,-0.88518 0,-1.6425 0,-2.53799c0,-0.86334 -0.14526,-1.83974 0.01068,-2.74733c0.14337,-0.83444 0.80414,-1.46469 0.95331,-2.42534c0.10608,-0.68335 0.03595,-1.76401 0.03601,-2.58533c0.00012,-0.91068 -0.10406,-1.81267 0.284,-2.70401c0.32294,-0.74174 0.71063,-1.52129 0.716,-2.53799c0.00366,-0.69466 0,-1.71133 0,-2.65184c0,-0.86217 0,-1.6955 0,-2.674l0,-0.82016l0.03601,-0.83734" id="svg_9" stroke-width="2" stroke="#000" fill="none"/>
  <path t="52465,52761,52779,52780,52796,52796,52812,52812,52830,52830,52830,52845,52846,52862,52862,52880,52880,52895,52895,52896,52912,52912,52912,52930,52930,52945,52945,52945,52962,52962,52962,52980,52980,52995,52996,52996,53012,53012,53030,53030,53061,53062,53083,53083,53095,53112,53112,53130,53145,53146,53179,53179,53361" d="m362,267c-0.79333,1.90668 0.14105,1.45013 0.58932,0.81467c0.54382,-0.7709 1.02103,-1.44125 1.896,-2.01599c0.52121,-0.34235 1.53534,-0.94122 2.10568,-1.45135c0.55817,-0.49924 1.02374,-1.42792 1.5715,-2.04282c0.56848,-0.63815 1.58893,-0.89923 2.50415,-1.13785c0.82654,-0.21548 1.67789,-0.48068 2.33868,-0.8765c0.75748,-0.45374 1.66284,-1.12158 2.33331,-1.65417c0.54526,-0.43311 1.33533,-0.91382 2.06586,-1.39316c0.81549,-0.53506 1.38098,-1.10098 2.05264,-1.59016c0.93143,-0.67836 1.49365,-0.88957 2.28152,-1.242c1.12244,-0.50209 1.72522,-0.99112 2.59467,-1.24399c0.89285,-0.25967 1.73541,-0.12654 2.52383,-0.60934c0.71222,-0.43614 1.29276,-1.27283 2.14282,-1.5365c0.9628,-0.29863 1.54361,-0.68268 2.3045,-1.31633c0.55042,-0.45837 1.52036,-0.68649 2.52884,-0.7045c0.75586,-0.01349 1.68878,0.04683 2.65067,-0.00267c0.69321,-0.03568 1.63065,-0.56532 2.10532,-1.14667l0.70618,-0.74083" id="svg_10" stroke-width="2" stroke="#000" fill="none"/>
  <path t="54006,54194,54212,54213,54227,54228,54246,54261,54261,54279,54280,54328,54329,54379,54478,54544,54545,54564,54565,54595,54612,54612,54629,54629,54678,54744,54861,54862,54890,54920,54920,54920,54922,54961,54961,54963,54963,54963,54994,54995,55029" d="m318,251c-0.96399,3.33867 -0.85345,4.34668 -1.07199,5.17465c-0.22589,0.8558 -0.93115,1.32657 -1.90634,1.70401c-0.8414,0.32565 -1.03992,1.03516 -1.38333,1.77402c-0.33786,0.7269 -1.08212,1.53128 -1.81299,1.90067c-0.89813,0.45392 -1.78262,0.73022 -1.82535,1.61331c-0.04025,0.83237 0.16806,1.84732 -0.08533,2.63202c-0.25592,0.79245 -0.6011,1.59097 -0.97601,2.34c-0.44296,0.88501 -1.62656,0.78656 -1.92966,1.56583c-0.33768,0.86816 -0.02274,1.77963 -0.009,2.64282c0.01602,1.00641 0.66049,1.56964 1.52084,1.63184c0.71091,0.05139 1.81781,0.02084 2.64581,0.02084c0.85419,0 1.83334,0 2.63333,0c0.80002,0 1.7955,0 2.54285,0l1.04251,0" id="svg_11" stroke-width="2" stroke="#000" fill="none"/>
  <path t="55565,55778,55778,55811,55811,55811,55830,55830,55830,55848,55848,55865,55881,55881,55881,55898,55898,55915,55915,55932,55932,55948,55948,55964,55964,55980,55980,55994,55994,56028,56029,56044,56044,56044,56061,56079,56111" d="m364,266c-4.86133,2.74399 -5.79642,2.9816 -6.77066,3.00134c-0.77109,0.01563 -1.63797,0.04932 -2.52899,0.22c-0.88626,0.16977 -1.66968,0.50061 -2.72968,0.69333c-0.76013,0.13818 -1.64273,0.07599 -2.51334,0.08548c-0.95749,0.01044 -1.71521,0.00519 -2.65201,0.35251c-0.80112,0.29703 -1.57144,0.5936 -2.55466,0.63666c-0.9165,0.04016 -1.72983,0.01068 -2.73599,0.01068c-0.72534,0 -1.71451,0 -2.49384,0c-0.99951,0 -1.9101,-0.08087 -2.85684,0.02133c-0.77524,0.08371 -1.5563,0.55753 -2.164,0.97867c-0.98782,0.68457 -1.78934,0.92801 -2.51468,0.99734l-0.94366,0.0235l-0.59433,0.6265l-0.70898,0.34818" id="svg_12" stroke-width="2" stroke="#000" fill="none"/>
  <path t="58858,59101,59118,59118,59118,59136,59137,59151,59152,59152,59169,59169,59185,59185,59185,59201,59202,59218,59235,59235,59235,59251,59252,59268,59285,59285,59301,59302,59318,59335,59335,59351,59352,59385,59401,59435,59785,59935,59936,59951,59985,60001,60001,60018,60019,60051,60068,60068,60085,60101,60122,60122,60151,60151,60185,60185,60186,60218,60218,60235,60236,60251,60251,60268,60285,60286,60301,60318,60335,60335,60351,60351,60368,60368,60385,60401,60418,60435,60435,60535" d="m455,266c0.96399,3.34933 1,4.33334 1,5.00534c0,0.98932 0.00055,2.02667 0,2.79999c-0.00067,0.96402 0.02615,1.72073 -0.08533,2.51199c-0.14197,1.00751 -0.51593,1.90302 -1.08133,2.68268c-0.45123,0.62225 -1.01389,1.15823 -1.81168,1.97849c-0.48361,0.49719 -0.89502,1.3483 -1.18832,2.18817c-0.3013,0.86273 -0.66953,1.40619 -1.48151,2.07617c-0.74036,0.61087 -1.24741,1.30203 -1.70901,2.06168c-0.37973,0.62488 -1.07816,1.50101 -1.35748,2.21149c-0.32568,0.82846 -0.90039,1.62863 -1.43466,2.12c-0.67419,0.62003 -0.54053,1.79822 -1.28668,2.29202c-0.71957,0.47623 -1.54608,0.50751 -1.564,1.48267c-0.01672,0.91034 -0.29819,2.02338 0.436,2.51733c0.72305,0.48648 1.73065,0.07199 2.564,0.07199c0.97849,0 1.79868,0 2.63599,0c1.01669,0 1.71133,0 2.72803,0c0.94049,0 1.80264,0 2.63599,0c0.97882,0 1.80984,0 2.76935,0c0.7515,0 1.54797,0 2.54532,0c0.87466,0 1.88516,0 2.66449,0c0.99933,0 1.81952,0 2.65683,0c1.01669,0 1.71133,0 2.72803,0c0.94049,0 1.80264,0.00015 2.63599,0c0.97849,-0.00018 1.81519,-0.15616 2.41068,-0.85068c0.48849,-0.56976 1.38269,-0.72339 2.25598,-1.31598c0.68958,-0.46793 1.33334,-0.83334 2.13333,-0.83334l0.91467,-0.08533" id="svg_13" stroke-width="2" stroke="#000" fill="none"/>
  <path t="61057,61317,61318,61335,61335,61335,61351,61351,61351,61351,61368,61368,61385,61385,61385,61385,61401,61401,61401,61418,61418,61419,61419,61435,61435,61451,61451,61451,61468,61468,61468,61485,61485,61501,61501,61501,61518,61535,61535,61551,61551,61568,61585,61601,61602,61618,61618,61636,61651,61652,61684,61685,61701,61701,61734,61735,61751,61751,61768,61784,61818,61835,61835,61868,61917,61935,61935,61967,62034,62051,62135,62184,62185" d="m465,265c2.60449,0.00449 3.46539,0.01456 4.42151,0.2215c0.82318,0.17816 1.68457,0.47827 2.57849,0.7785c0.89258,0.29977 1.5054,0.43457 2.22934,0.88535c1.05215,0.65515 1.40289,1.38559 2.27066,2.11465c0.52194,0.43851 1.18503,0.78574 1.82401,1.20001c1.19342,0.77374 1.61026,1.21027 2.15515,1.77914c0.8356,0.87238 1.52304,1.28131 2.30618,1.61017c0.5271,0.22134 1.55658,0.561 2.40399,1.04666c0.84064,0.48178 1.40366,1.02487 2.01068,1.53867c0.79099,0.66949 1.59412,1.2002 2.19998,1.52084c0.98944,0.52368 1.66458,0.72571 2.43335,1.47116c0.60727,0.58884 0.97452,1.34302 1.556,2.19736c0.49741,0.73083 0.64401,1.44974 1.3205,2.28415c0.43024,0.53067 1.47571,0.82635 2.1235,1.51849c0.61331,0.6553 0.77509,1.49081 1.65067,2.03201c0.66461,0.4108 1.85117,0.46887 2.34933,1.13467c0.4238,0.56641 0.28302,1.73825 0.92831,2.36215c0.63318,0.61218 1.54193,0.82178 1.99551,1.62582c0.43796,0.77634 0.59143,1.75656 0.95883,2.47736c0.41272,0.80969 0.93597,1.39703 1.30484,2.20132c0.36133,0.78784 1.54733,0.80554 1.9375,1.52084c0.42657,0.78204 -0.1235,1.82465 0.07767,2.61783c0.21872,0.8624 0.98932,1.436 1.61133,1.914l0.34818,0.70898l0.00449,0.89102l0,0.86331" id="svg_14" stroke-width="2" stroke="#000" fill="none"/>
  <path t="62908,63150,63151,63151,63151,63167,63168,63168,63184,63185,63201,63201,63201,63201,63217,63218,63234,63235,63235,63251,63251,63267,63268,63284,63285,63285,63285,63317,63317,63317,63334,63335,63335,63350,63351,63367,63368,63384,63400,63401,63417,63434,63435,63451,63452,63467,63468,63484,63501,63501,63517,63534,63551,63567,63568,63601,63601,63650,63750,63867,63867,63900,64017,64051,64084,64084,64117,64134,64135,64150,64167,64184,64185,64201,64217,64217,64218,64218,64234,64250,64251,64267,64267,64284,64285,64300,64301,64301,64317,64318,64334,64335,64350,64351,64351,64367,64368,64384,64385,64400,64401,64401,64417,64418,64434,64435,64450,64451,64451,64467,64467,64484,64484,64485,64500,64517,64518,64534,64535,64535,64535,64550,64551,64552,64575,64575,64575,64588,64588,64588,64601,64601,64602,64618,64619,64633,64634,64652,64652,64666,64667,64667,64684,64685,64700,64701,64701,64717,64718,64734,64734,64735,64750,64751,64751,64767,64767,64784,64785,64800,64801,64801,64801,64817,64817,64818,64834,64835,64850,64851,64851,64867,64867,64884,64885,64900,64901,64917,64967,64967" d="m475,285c3.31332,3.60001 3.7677,4.19067 4.15332,4.79999c0.37418,0.59128 0.96582,1.79544 1.21069,2.37869c0.33771,0.80438 0.80225,1.88272 1.30798,2.47198c0.61902,0.72128 1.33414,1.34961 1.80716,1.84933c0.46359,0.48975 1.15103,1.61887 1.67883,2.19101c0.58463,0.63373 1.44049,0.73013 1.99002,1.27966c0.87744,0.87744 0.75342,1.80289 1.01865,2.69598c0.25778,0.86801 0.84384,1.66208 1.13785,2.34769c0.34384,0.80179 0.54529,1.4068 1.1795,2.58432c0.32349,0.60062 0.70859,1.15448 1.34933,2.23468c0.41678,0.70264 0.80026,1.33359 1.04532,2.36649c0.18207,0.76743 0.39905,1.74805 0.76868,2.49567c0.39426,0.79742 0.34976,1.78851 0.35266,2.47916c0.00452,1.06821 0.36197,1.79068 1,2.34619c0.70001,0.6095 0.86725,1.51251 1.16666,2.3125c0.30112,0.80457 0.79544,1.57742 0.8335,2.48782c0.03418,0.81757 0.67206,1.45706 0.979,2.19968c0.34,0.82257 -0.22208,1.86002 0.09283,2.61783c0.37714,0.90753 1.60092,0.79254 1.91901,1.56583c0.35477,0.86246 0.20639,1.82971 0.61966,2.43417c0.57385,0.83932 1.06931,1.36154 1.39835,2.15683c0.31964,0.77264 1.548,0.65576 1.91901,1.56583c0.36795,0.90256 0.24255,1.5545 0.78799,2.22269c0.47849,0.58615 0.66693,1.55658 0.93134,2.26331c0.38251,1.02246 0.67514,1.99216 1.05798,2.65802c0.43185,0.7511 0.75708,1.2131 1.23334,2.32266c0.37061,0.86343 0.83307,1.38846 1.35684,2.32916c0.40091,0.72003 0.53278,1.5535 0.72534,2.34283c0.24829,1.01785 0.86435,1.77591 1.27383,2.39999c0.50684,0.77249 0.56653,1.61536 0.92664,2.57883c0.26904,0.71991 0.66302,1.56314 0.77869,2.52118c0.08832,0.73148 0.42871,1.6633 0.716,2.46799c0.27734,0.77695 0.17792,1.84872 0.61731,2.69867c0.39246,0.75919 1.11011,0.99719 1.78003,1.81735c0.51801,0.63422 0.78723,1.63657 0.93933,2.32584c0.21252,0.96317 0.41772,1.72824 0.83398,2.42215c0.51318,0.8555 1.42627,1.32031 1.87036,2.31067c0.29803,0.66458 0.15198,1.45609 0.24432,2.48666c0.08783,0.98071 0.66028,1.65561 0.99866,2.47067c0.34955,0.84201 0.49664,1.51688 0.64282,2.19916c0.26819,1.25137 0.2348,2.05881 0.52649,2.89816c0.29456,0.84772 0.89856,1.38403 1.2627,2.08801c0.49438,0.95578 0.5448,1.8349 0.56531,2.716c0.02783,1.19568 0.00116,1.77734 0.00269,2.58432c0.00226,1.20901 0.06793,1.98685 0.284,2.78235c0.20001,0.73651 0.54932,1.89865 0.716,2.73199c0.16669,0.83334 0.43585,1.74762 0.64734,2.49466c0.24329,0.85931 0.31891,1.65652 0.35535,2.77335c0.02386,0.73264 0.04736,1.54166 0.70264,2.42667c0.505,0.68207 1.09155,1.33929 1.23334,2.06665c0.15271,0.78329 0.23627,1.83401 0.58215,2.71783c0.2478,0.6333 0.83331,1.59787 1.12201,2.42084c0.34344,0.9791 0.34674,1.6207 0.35718,2.76666c0.0072,0.79047 -0.00067,1.64401 0,2.23468c0.00134,1.19598 -0.08691,2.08994 0.17065,2.828c0.36359,1.0419 1.14362,1.32901 1.58649,2.31351c0.30402,0.67581 0.21985,1.52356 0.46417,2.53549c0.21661,0.89731 0.68463,1.74411 0.76801,2.547c0.08868,0.85416 0.01068,1.72198 0.02136,2.73868l0.27332,0.83731l0.43201,0.68402" id="svg_15" stroke-width="2" stroke="#000" fill="none"/>
  <path t="70247,70444,70444,70444,70460,70460,70460,70477,70478,70478,70494,70494,70494,70494,70510,70510,70527,70527,70527,70527,70544,70544,70544,70544,70560,70560,70560,70561,70577,70577,70577,70594,70594,70594,70594,70615,70615,70615,70615,70627,70627,70627,70627,70644,70644,70644,70645,70660,70660,70661,70661,70677,70677,70677,70694,70694,70695,70695,70710,70710,70711,70727,70727,70744,70745,70745,70746,70760,70760,70761,70777,70777,70794,70794,70795,70795,70810,70810,70811,70827,70827,70827,70827,70844,70845,70845,70860,70860,70861,70877,70877,70877,70877,70894,70894,70894,70894,70910,70910,70911,70911,70927,70928,70928,70944,70944,70944,70945,70960,70960,70961,70977,70977,70977,70994,70995,70995,71010,71010,71011,71011,71027,71027,71044,71044,71044,71060,71060,71061,71077,71077,71077,71094,71094,71110,71144,71144" d="m555,42c-0.83331,-1.83333 -0.59833,-1.13633 -0.11334,-0.39867c0.54846,0.83427 1.15442,1.38956 1.62933,2.084c0.65796,0.96204 0.86407,1.54471 1.1795,2.41917c0.32092,0.88974 0.61426,1.78671 0.86853,2.6595c0.15967,0.54811 0.34698,1.79121 0.49731,2.46133c0.21448,0.95607 0.64587,1.73329 0.95947,2.2955c0.49243,0.8828 0.99475,1.76488 1.33252,2.68983c0.22522,0.61671 0.40485,1.26889 0.56268,2.672c0.08209,0.72974 0.08154,1.45892 0.16797,2.148c0.15155,1.2084 0.45782,1.95879 0.63202,2.73734c0.26599,1.18869 0.25421,1.89508 0.34534,2.61733c0.09265,0.7341 0.49841,2.13425 0.78931,2.78934c0.29053,0.65435 0.65997,1.2879 0.90637,2.34666c0.25317,1.08809 0.23004,1.85317 0.2403,2.59467c0.01471,1.06257 0.00269,2.05867 0.00269,2.70934c0,0.65867 0,2.05867 0,2.8c0,0.74933 0,1.49066 0,2.88933c0,0.64934 0,1.58083 0,2.48534c0,0.9 0,1.8 0,2.4c0,1.19866 0,2.07916 0,2.91467c0,1.00134 0,1.68533 0,2.852c0,0.7905 0,1.644 0,2.23467c0,1.19733 0,2.07783 0,2.91333c0,1.00134 0,1.68533 0,2.852c0,0.7905 0,1.644 0,2.23467c0,1.2 0,2.1195 0,2.75583c0,1.0095 0,2.091 0,2.822c0,0.71101 0,1.978 0,2.75951c0,0.7095 0,1.683 0,2.508c0,0.915 0,1.92 0,2.63734c0,0.74133 0,1.86333 0,2.94933c0,0.68266 0,1.66666 0,2.31933c0,1.014 0.0119,2.09673 -0.04169,2.8265c-0.05231,0.71279 -0.24072,1.71246 -0.66364,2.511c-0.39771,0.75092 -1.01343,1.66361 -1.18481,2.467c-0.17993,0.84355 -0.14838,1.45242 -0.39386,2.64149c-0.18329,0.88789 -0.40955,1.43492 -0.59467,2.48c-0.16211,0.91505 -0.15729,1.61629 -0.40802,2.60667c-0.21442,0.84682 -0.57458,1.72874 -1.03467,2.6145c-0.31421,0.60486 -0.85803,1.46129 -1.19464,2.01483c-0.60583,0.99622 -1.04041,1.65825 -1.31732,2.85201c-0.17847,0.76933 -0.08282,1.59534 -0.33337,2.5c-0.19696,0.71107 -0.73096,1.29323 -1.31732,2.10133c-0.52594,0.72487 -1.021,1.47235 -1.62933,2.26132c-0.51575,0.66888 -0.88666,1.4915 -1.17334,2.45334l-0.35999,0.65601" id="svg_16" stroke-width="2" stroke="#000" fill="none"/>
 </g>
 <g display="none">
  <title>muse_image</title>
  <image xlink:href="http://farm1.static.flickr.com/93/263367105_5701d1ac86.jpg" id="muse" height="480" width="320" y="0" x="160"/>
 </g>
 <g display="none">
  <title>bbox</title>
  <rect stroke="#f00" fill="none" stroke-width="3" height="461.76" width="311.37725" y="14.4" x="167.66467" id="bbox"/>
 </g>
</svg>
